<?xml version="1.0" encoding="UTF-8" standalone="no"?>
<svg xmlns:ffdec="https://www.free-decompiler.com/flash" xmlns:xlink="http://www.w3.org/1999/xlink" ffdec:objectType="shape" height="88.2px" width="101.3px" xmlns="http://www.w3.org/2000/svg">
  <g transform="matrix(1.0, 0.0, 0.0, 1.0, 50.65, 44.1)">
    <path d="M21.25 -32.35 L22.45 -29.1 22.5 -29.05 22.7 -28.65 23.3 -27.65 23.45 -27.1 25.1 -23.2 26.1 -21.15 26.65 -20.9 27.9 -20.2 Q29.05 -19.5 30.45 -18.9 31.7 -18.15 34.65 -16.75 L36.85 -15.7 38.7 -14.8 39.0 -14.65 Q39.55 -14.4 40.6 -13.9 L41.8 -13.2 41.95 -13.1 42.0 -13.1 42.85 -12.75 43.65 -12.15 44.35 -11.2 45.5 -9.2 47.45 -5.25 Q50.65 1.05 50.65 2.7 L50.5 3.2 50.5 3.45 Q50.5 4.3 49.4 6.1 L47.9 8.45 47.1 9.5 44.5 13.4 40.4 19.0 36.3 24.8 35.85 25.45 31.35 32.4 Q27.4 38.75 25.55 40.85 23.1 43.65 20.7 43.95 L20.6 44.0 19.2 44.0 18.15 44.1 18.1 44.1 -38.6 16.05 Q-40.3 15.7 -42.9 12.65 L-46.15 8.4 -48.85 4.5 Q-50.65 1.55 -50.65 0.2 -50.65 -2.0 -48.55 -4.9 L-46.85 -7.5 -46.0 -8.9 -45.55 -9.35 -45.45 -9.55 -43.65 -12.45 -41.4 -15.7 -36.55 -23.35 -30.0 -33.95 -25.4 -40.5 -25.4 -40.6 -25.2 -40.9 -23.95 -42.55 -23.85 -42.6 -23.85 -42.65 -23.55 -42.85 -23.45 -42.9 -22.85 -43.3 -22.65 -43.5 -21.95 -43.9 -21.1 -44.05 -20.55 -44.1 -20.05 -44.1 -19.9 -44.1 -19.8 -44.1 -19.65 -44.1 -17.65 -44.0 -17.05 -43.7 -14.85 -42.65 Q-13.3 -41.85 -12.35 -41.55 L-7.9 -39.5 -4.3 -37.7 -3.55 -38.95 -1.95 -41.35 -1.05 -42.4 -0.95 -42.45 -0.2 -42.8 Q0.65 -43.35 3.9 -42.0 6.3 -41.05 10.3 -39.1 15.5 -36.9 16.7 -36.2 L16.8 -36.15 17.3 -35.9 Q18.95 -35.1 19.45 -34.6 L20.05 -34.1 Q20.45 -34.15 20.75 -33.6 L21.25 -32.35 M23.0 -19.75 L23.1 -20.15 23.1 -20.25 Q23.45 -20.6 23.45 -21.1 L23.35 -21.55 23.15 -21.5 22.65 -22.55 22.2 -23.65 22.2 -23.7 21.9 -24.4 21.9 -24.45 21.7 -24.9 21.7 -24.95 21.4 -25.75 21.25 -25.85 21.3 -26.0 20.2 -28.5 19.6 -29.45 19.05 -30.5 Q18.15 -32.25 18.15 -32.55 L18.15 -32.65 17.95 -32.35 18.0 -32.2 17.95 -32.2 17.8 -32.55 17.8 -32.65 Q17.8 -32.95 15.7 -33.8 L15.35 -33.9 Q13.05 -35.25 7.8 -37.3 L6.35 -38.15 0.8 -40.55 -0.8 -38.25 -1.85 -36.3 -2.25 -35.65 Q-2.2 -35.0 -1.95 -35.0 L-1.9 -35.0 -1.75 -34.7 -0.7 -32.45 -0.35 -31.7 -0.25 -31.5 -0.3 -31.55 -1.2 -32.3 Q-1.9 -32.8 -2.3 -32.8 L-2.2 -32.65 -2.3 -32.65 -2.4 -32.75 -2.4 -32.8 -2.55 -32.9 -2.85 -33.1 -3.15 -33.25 -4.4 -33.85 -13.2 -38.4 -13.8 -38.85 -15.7 -39.75 -15.85 -39.85 -16.8 -40.3 Q-18.05 -40.9 -18.4 -41.15 L-18.6 -41.15 -19.05 -41.3 -19.1 -41.25 -19.4 -41.35 -19.5 -41.4 -19.65 -41.35 -20.8 -41.05 -20.85 -40.95 -21.05 -40.85 -21.4 -40.6 -21.5 -40.45 -22.35 -39.2 Q-23.55 -37.1 -26.85 -32.45 L-32.9 -23.65 -32.95 -23.6 Q-37.15 -16.05 -44.6 -5.15 L-44.7 -5.0 -44.8 -5.05 -45.8 -3.55 -46.3 -2.65 -46.7 -1.9 -46.75 -1.85 -46.95 -1.4 -47.45 0.3 -47.15 1.45 -46.95 1.7 -47.1 1.65 -47.1 1.8 -46.6 2.35 -45.9 3.5 -44.25 5.9 -42.45 8.25 Q-41.25 9.75 -40.8 10.6 L-40.8 10.65 -39.9 11.9 -38.95 12.75 11.65 37.6 11.85 37.8 12.75 38.2 14.55 39.2 16.6 40.2 16.8 40.5 17.35 40.7 17.5 40.75 17.5 40.65 18.75 41.3 19.0 41.3 19.1 41.3 Q20.25 41.3 21.45 40.15 L21.55 40.05 21.7 39.85 21.9 39.75 22.55 38.9 23.5 37.9 23.65 37.6 28.95 29.9 37.85 17.2 41.8 11.45 45.55 6.2 45.95 5.6 47.0 4.05 47.5 2.65 47.4 1.85 44.35 -4.35 41.4 -9.65 41.2 -9.85 40.0 -10.6 39.5 -10.95 39.3 -10.9 39.3 -10.65 38.35 -11.75 38.1 -11.95 37.15 -12.4 35.45 -13.05 Q32.7 -14.75 27.8 -17.25 L24.4 -19.0 Q23.8 -19.1 23.2 -19.6 L23.0 -19.75 M-17.9 -33.05 L-18.25 -33.15 -18.25 -32.95 -17.45 -31.25 -17.5 -31.15 -17.1 -30.35 -15.5 -27.25 -14.05 -24.45 -13.55 -23.4 -13.1 -22.65 -13.0 -22.45 -12.95 -22.4 -12.8 -22.2 -12.55 -21.95 -12.3 -21.65 -12.05 -21.7 -11.9 -21.55 -11.9 -21.4 -11.2 -21.0 -10.0 -20.15 -9.35 -19.8 -8.95 -19.6 -6.15 -18.25 -3.55 -17.15 Q-1.55 -16.05 1.3 -14.7 2.0 -14.2 4.0 -13.25 L8.65 -10.95 Q9.5 -10.35 11.85 -9.35 L13.45 -8.35 15.3 -7.35 15.95 -6.95 Q18.45 -5.4 20.0 -4.7 21.4 -4.05 22.45 -3.55 L23.6 -2.85 25.0 -2.2 25.45 -2.25 25.45 -2.15 Q25.45 -1.65 25.0 -1.6 L24.9 -1.6 Q24.55 -1.6 24.3 -1.9 L24.25 -2.0 24.1 -1.95 0.6 -14.3 -1.85 -15.85 -5.35 -17.6 -8.9 -19.25 -10.5 -20.3 -11.15 -20.45 -11.5 -20.4 -11.85 -20.45 -11.85 -20.4 Q-13.1 -20.2 -13.65 -19.8 L-14.65 -18.45 -15.55 -17.0 -16.2 -16.15 Q-13.2 -20.8 -13.2 -21.3 -13.25 -21.8 -13.5 -21.75 L-13.5 -21.9 -13.95 -22.55 -14.35 -23.45 -17.95 -31.2 -18.05 -31.25 -18.15 -31.5 -18.45 -31.95 -19.05 -32.9 -19.05 -32.95 -18.15 -33.3 -18.1 -33.25 -17.9 -33.05 M25.0 -1.4 L25.1 -1.35 24.5 -0.45 24.45 -0.45 25.0 -1.4 M7.25 28.6 L7.15 28.55 7.15 28.5 7.25 28.6" fill="#150d00" fill-rule="evenodd" stroke="none"/>
    <path d="M17.8 -32.55 L17.95 -32.2 18.0 -32.2 17.95 -32.35 18.15 -32.65 18.15 -32.55 Q18.15 -32.25 19.05 -30.5 L19.6 -29.45 20.2 -28.5 21.3 -26.0 21.25 -25.85 21.4 -25.75 21.7 -24.95 21.7 -24.9 21.9 -24.45 21.9 -24.4 22.2 -23.7 22.2 -23.65 22.65 -22.55 23.15 -21.5 23.35 -21.55 23.45 -21.1 Q23.45 -20.6 23.1 -20.25 L23.1 -20.15 23.0 -19.75 22.3 -18.85 21.3 -18.0 21.25 -18.0 20.8 -17.8 20.7 -17.8 20.6 -17.8 20.2 -17.9 19.9 -17.9 19.6 -18.05 19.5 -18.1 19.4 -18.1 19.35 -18.15 19.25 -18.15 18.9 -18.3 18.9 -18.35 18.35 -18.65 17.9 -18.85 17.75 -18.9 15.35 -20.15 15.3 -20.25 13.75 -21.0 13.45 -21.15 12.5 -21.65 10.9 -22.55 10.55 -22.7 10.3 -22.85 9.95 -23.05 Q8.3 -23.95 7.7 -24.35 L7.7 -24.4 7.4 -24.55 Q6.45 -24.85 5.9 -25.25 4.45 -26.0 4.25 -26.2 L3.55 -26.55 2.85 -27.0 Q2.05 -27.25 1.15 -27.85 L0.75 -28.35 0.6 -28.65 0.45 -28.85 -0.4 -30.15 -0.75 -30.7 -0.95 -31.2 -1.3 -31.3 -1.65 -31.85 -2.15 -32.65 -2.2 -32.65 -2.3 -32.8 Q-1.9 -32.8 -1.2 -32.3 L-0.3 -31.55 -0.3 -31.5 -0.05 -30.95 0.1 -30.75 0.2 -30.6 0.5 -30.55 0.95 -29.65 1.0 -29.45 1.45 -28.5 1.5 -28.45 1.55 -28.5 1.75 -28.35 2.1 -28.05 Q2.3 -27.85 2.75 -27.75 L2.95 -27.65 2.95 -27.6 3.85 -27.05 5.0 -26.55 6.05 -25.95 8.0 -24.85 9.95 -23.8 11.95 -22.7 13.95 -21.6 14.85 -21.1 14.95 -21.1 15.1 -21.0 15.85 -20.65 18.15 -19.55 19.45 -18.8 19.35 -18.95 19.2 -19.1 19.15 -19.15 18.85 -19.7 Q18.0 -21.3 17.3 -23.0 L17.25 -23.15 17.4 -23.2 16.9 -24.25 16.65 -24.25 16.4 -24.85 15.8 -25.45 15.3 -26.35 Q11.25 -28.15 8.75 -29.3 2.9 -31.9 -1.75 -34.7 L-1.9 -35.0 -1.95 -35.0 Q-2.2 -35.0 -2.25 -35.65 L-1.85 -36.3 -1.6 -36.1 -0.8 -35.55 -0.6 -35.5 1.5 -34.3 3.45 -33.25 4.95 -32.45 6.2 -31.85 6.75 -31.6 7.35 -31.25 12.0 -28.95 12.05 -28.9 14.15 -28.0 14.45 -27.85 15.2 -28.0 15.25 -28.0 15.4 -28.05 16.35 -29.9 17.7 -31.75 17.7 -31.95 17.7 -32.35 17.8 -32.55 M20.35 -17.6 L20.35 -17.55 20.25 -17.6 20.35 -17.6" fill="#484848" fill-rule="evenodd" stroke="none"/>
    <path d="M23.0 -19.75 L23.2 -19.6 Q23.8 -19.1 24.4 -19.0 L27.8 -17.25 Q32.7 -14.75 35.45 -13.05 L37.15 -12.4 38.1 -11.95 38.35 -11.75 39.3 -10.65 39.3 -10.5 39.35 -10.4 39.4 -10.4 39.5 -9.85 Q39.5 -9.3 38.4 -7.65 L37.9 -6.8 37.9 -6.7 37.05 -5.3 35.85 -3.75 33.3 0.3 32.5 1.4 31.8 2.4 31.25 3.3 29.6 5.85 26.5 10.25 Q24.05 13.3 19.2 20.25 15.3 25.8 14.45 27.4 L14.2 27.95 14.3 28.05 13.95 28.45 13.3 29.7 13.25 29.95 13.05 29.9 12.65 30.1 11.7 30.25 10.9 30.2 10.5 29.95 10.2 29.85 9.35 29.55 9.15 29.5 9.0 29.55 8.1 29.05 7.25 28.6 7.15 28.5 7.15 28.55 6.95 28.4 6.5 28.3 -46.1 2.55 -46.3 2.25 Q-46.65 1.8 -46.95 1.7 L-47.15 1.45 -47.45 0.3 -46.95 -1.4 -46.75 -1.85 -46.7 -1.9 -46.3 -2.65 -45.8 -3.55 -44.8 -5.05 -44.7 -5.0 -44.6 -5.15 Q-37.15 -16.05 -32.95 -23.6 L-32.9 -23.65 -26.85 -32.45 Q-23.55 -37.1 -22.35 -39.2 L-21.5 -40.45 -21.4 -40.6 -21.05 -40.85 -20.85 -40.95 -20.8 -41.05 -19.65 -41.35 -19.5 -41.4 -19.4 -41.35 -19.1 -41.25 -19.05 -41.3 -18.6 -41.15 -18.4 -41.15 Q-18.05 -40.9 -16.8 -40.3 L-15.85 -39.85 -15.7 -39.75 -13.8 -38.85 -13.2 -38.4 -4.4 -33.85 -3.15 -33.25 -2.85 -33.1 -2.55 -32.9 -2.4 -32.8 -2.4 -32.75 -2.3 -32.65 -2.2 -32.65 -2.15 -32.65 -1.65 -31.85 -1.3 -31.3 -0.95 -31.2 -0.75 -30.7 -0.4 -30.15 0.45 -28.85 0.6 -28.65 0.75 -28.35 1.15 -27.85 Q2.05 -27.25 2.85 -27.0 L3.55 -26.55 4.25 -26.2 Q4.45 -26.0 5.9 -25.25 6.45 -24.85 7.4 -24.55 L7.7 -24.4 7.7 -24.35 Q8.3 -23.95 9.95 -23.05 L10.3 -22.85 10.55 -22.7 10.9 -22.55 12.5 -21.65 13.45 -21.15 13.75 -21.0 15.3 -20.25 15.35 -20.15 17.75 -18.9 18.3 -18.6 18.9 -18.3 19.25 -18.15 19.45 -18.05 19.5 -18.1 19.6 -18.05 19.9 -17.9 20.2 -17.9 20.6 -17.8 20.7 -17.8 20.8 -17.8 21.25 -18.0 21.3 -18.0 22.3 -18.85 23.0 -19.75 M-1.85 -36.3 L-0.8 -38.25 0.8 -40.55 6.35 -38.15 7.8 -37.3 Q13.05 -35.25 15.35 -33.9 L15.7 -33.8 Q17.8 -32.95 17.8 -32.65 L17.8 -32.55 17.7 -32.35 17.7 -31.95 17.7 -31.75 16.35 -29.9 15.4 -28.05 15.25 -28.0 15.2 -28.0 14.45 -27.85 14.15 -28.0 12.05 -28.9 12.0 -28.95 7.35 -31.25 6.75 -31.6 6.2 -31.85 4.95 -32.45 3.45 -33.25 1.5 -34.3 -0.6 -35.5 -0.8 -35.55 -1.6 -36.1 -1.85 -36.3 M-17.9 -33.05 L-18.1 -33.25 -18.15 -33.3 -19.05 -32.95 -19.35 -32.75 -19.9 -31.85 -20.05 -31.6 -20.3 -31.1 -25.4 -24.0 Q-29.35 -18.25 -31.15 -14.85 L-32.8 -12.35 -33.65 -11.1 -35.95 -7.55 -37.1 -5.9 -37.15 -5.8 -37.2 -5.75 -38.95 -2.85 -38.8 -2.35 -38.75 -2.2 -27.6 3.45 -27.15 3.7 8.15 21.6 8.35 21.5 8.4 21.55 8.65 21.6 8.95 21.75 9.1 21.7 9.5 21.75 9.9 21.35 9.95 21.35 18.15 8.95 24.5 -0.45 25.1 -1.35 29.1 -7.5 29.05 -7.55 29.2 -8.1 Q29.2 -8.7 28.85 -8.75 L28.85 -8.8 28.9 -8.9 -17.1 -32.4 -17.3 -32.6 Q-17.5 -32.9 -17.8 -33.0 L-17.9 -33.05 M20.35 -17.6 L20.25 -17.6 20.35 -17.55 20.35 -17.6" fill="#e2e2e2" fill-rule="evenodd" stroke="none"/>
    <path d="M-0.3 -31.55 L-0.25 -31.5 -0.35 -31.7 -0.7 -32.45 -1.75 -34.7 Q2.9 -31.9 8.75 -29.3 11.25 -28.15 15.3 -26.35 L15.8 -25.45 16.4 -24.85 16.65 -24.25 16.9 -24.25 17.4 -23.2 17.25 -23.15 17.3 -23.0 Q18.0 -21.3 18.85 -19.7 L19.15 -19.15 19.2 -19.1 19.35 -18.95 19.45 -18.8 18.15 -19.55 15.85 -20.65 15.1 -21.0 14.95 -21.1 14.85 -21.1 13.95 -21.6 11.95 -22.7 9.95 -23.8 8.0 -24.85 6.05 -25.95 5.0 -26.55 3.85 -27.05 2.95 -27.6 2.95 -27.65 2.75 -27.75 Q2.3 -27.85 2.1 -28.05 L1.75 -28.35 1.55 -28.5 1.5 -28.45 1.45 -28.5 1.0 -29.45 0.95 -29.65 0.5 -30.55 0.2 -30.6 0.1 -30.75 -0.05 -30.95 -0.3 -31.5 -0.3 -31.55 M18.9 -18.3 L18.3 -18.6 17.75 -18.9 17.9 -18.85 18.35 -18.65 18.9 -18.35 18.9 -18.3 M19.25 -18.15 L19.35 -18.15 19.4 -18.1 19.5 -18.1 19.45 -18.05 19.25 -18.15" fill="#9f9f9f" fill-rule="evenodd" stroke="none"/>
    <path d="M25.0 -1.6 Q25.45 -1.65 25.45 -2.15 L25.45 -2.25 25.0 -2.2 23.6 -2.85 22.45 -3.55 Q21.4 -4.05 20.0 -4.7 18.45 -5.4 15.95 -6.95 L15.3 -7.35 13.45 -8.35 11.85 -9.35 Q9.5 -10.35 8.65 -10.95 L4.0 -13.25 Q2.0 -14.2 1.3 -14.7 -1.55 -16.05 -3.55 -17.15 L-6.15 -18.25 -8.95 -19.6 -9.35 -19.8 -10.0 -20.15 -11.2 -21.0 -11.9 -21.4 -11.9 -21.55 -12.05 -21.7 -12.3 -21.65 -12.55 -21.95 -12.8 -22.2 -12.95 -22.4 -13.0 -22.45 -13.1 -22.65 -13.55 -23.4 -14.05 -24.45 -15.5 -27.25 -17.1 -30.35 -17.5 -31.15 -17.45 -31.25 -18.25 -32.95 -18.25 -33.15 -17.9 -33.05 -17.8 -33.0 Q-17.5 -32.9 -17.3 -32.6 L-17.1 -32.4 28.9 -8.9 28.85 -8.8 28.85 -8.75 Q29.2 -8.7 29.2 -8.1 L29.05 -7.55 29.1 -7.5 25.1 -1.35 25.0 -1.4 25.0 -1.5 25.0 -1.6" fill="#25201b" fill-rule="evenodd" stroke="none"/>
    <path d="M-16.2 -16.15 L-15.55 -17.0 -14.65 -18.45 -13.65 -19.8 Q-13.1 -20.2 -11.85 -20.4 L-11.85 -20.45 -11.5 -20.4 -11.15 -20.45 -10.5 -20.3 -8.9 -19.25 -5.35 -17.6 -1.85 -15.85 0.6 -14.3 24.1 -1.95 24.25 -2.0 24.3 -1.9 Q24.55 -1.6 24.9 -1.6 L25.0 -1.6 25.0 -1.5 25.0 -1.4 24.45 -0.45 24.5 -0.45 18.15 8.95 9.95 21.35 9.9 21.35 9.5 21.75 9.1 21.7 8.95 21.75 8.65 21.6 8.4 21.55 8.35 21.5 8.15 21.6 -27.15 3.7 -27.6 3.45 -27.65 3.4 -27.9 3.05 -27.7 2.7 -25.55 -0.7 -25.2 -1.45 -24.5 -2.9 -23.9 -3.8 -23.75 -4.2 -22.85 -5.55 -20.3 -9.6 -18.2 -13.35 -18.1 -13.3 -16.2 -16.15" fill="#332b25" fill-rule="evenodd" stroke="none"/>
    <path d="M39.3 -10.65 L39.3 -10.9 39.5 -10.95 40.0 -10.6 41.2 -9.85 41.4 -9.65 44.35 -4.35 47.4 1.85 47.5 2.65 47.0 4.05 45.95 5.6 46.15 4.25 Q46.15 2.35 43.2 -2.8 41.3 -6.05 40.15 -7.15 L40.0 -7.45 39.8 -7.45 39.5 -7.65 39.35 -7.9 39.0 -8.05 37.9 -6.7 37.9 -6.8 38.4 -7.65 Q39.5 -9.3 39.5 -9.85 L39.4 -10.4 39.35 -10.4 39.3 -10.5 39.3 -10.65" fill="#8c8b8b" fill-rule="evenodd" stroke="none"/>
    <path d="M45.95 5.6 L45.55 6.2 41.8 11.45 37.85 17.2 28.95 29.9 23.65 37.6 23.5 37.9 22.55 38.9 21.9 39.75 21.7 39.85 21.55 40.05 21.45 40.15 Q20.25 41.3 19.1 41.3 L19.0 41.3 13.3 29.7 13.95 28.45 14.3 28.05 14.2 27.95 14.45 27.4 Q15.3 25.8 19.2 20.25 24.05 13.3 26.5 10.25 L29.6 5.85 31.25 3.3 31.8 2.4 32.5 1.4 33.3 0.3 35.85 -3.75 37.05 -5.3 37.9 -6.7 39.0 -8.05 39.35 -7.9 39.5 -7.65 39.8 -7.45 40.0 -7.45 40.15 -7.15 Q41.3 -6.05 43.2 -2.8 46.15 2.35 46.15 4.25 L45.95 5.6" fill="#585858" fill-rule="evenodd" stroke="none"/>
    <path d="M19.0 41.3 L18.75 41.3 17.5 40.65 17.5 40.75 17.35 40.7 16.8 40.5 16.6 40.2 14.55 39.2 12.75 38.2 11.85 37.8 11.65 37.6 -38.95 12.75 -39.9 11.9 -40.8 10.65 -40.8 10.6 Q-41.25 9.75 -42.45 8.25 L-44.25 5.9 -45.9 3.5 -46.6 2.35 -47.1 1.8 -47.1 1.65 -46.95 1.7 Q-46.65 1.8 -46.3 2.25 L-46.1 2.55 6.5 28.3 6.95 28.4 7.15 28.55 7.25 28.6 8.1 29.05 9.0 29.55 9.15 29.5 9.35 29.55 10.2 29.85 10.5 29.95 10.9 30.2 11.7 30.25 12.65 30.1 13.05 29.9 13.25 29.95 13.3 29.7 19.0 41.3" fill="#4a4a4a" fill-rule="evenodd" stroke="none"/>
    <path d="M-19.05 -32.95 L-19.05 -32.9 -18.45 -31.95 -18.15 -31.5 -18.05 -31.25 -17.95 -31.2 -14.35 -23.45 -13.95 -22.55 -13.5 -21.9 -13.5 -21.75 Q-13.25 -21.8 -13.2 -21.3 -13.2 -20.8 -16.2 -16.15 L-18.1 -13.3 -18.2 -13.35 -20.3 -9.6 -22.85 -5.55 -23.75 -4.2 -23.9 -3.8 -24.5 -2.9 -25.2 -1.45 -25.55 -0.7 -27.7 2.7 -27.9 3.05 -27.65 3.4 -27.6 3.45 -38.75 -2.2 -38.8 -2.35 -38.95 -2.85 -37.2 -5.75 -37.15 -5.8 -37.1 -5.9 -35.95 -7.55 -33.65 -11.1 -32.8 -12.35 -31.15 -14.85 Q-29.35 -18.25 -25.4 -24.0 L-20.3 -31.1 -20.05 -31.6 -19.9 -31.85 -19.35 -32.75 -19.05 -32.95" fill="#4a4139" fill-rule="evenodd" stroke="none"/>
  </g>
</svg>
