<?xml version="1.0" encoding="UTF-8" standalone="no"?>
<svg xmlns:ffdec="https://www.free-decompiler.com/flash" xmlns:xlink="http://www.w3.org/1999/xlink" ffdec:objectType="shape" height="44.55px" width="68.6px" xmlns="http://www.w3.org/2000/svg">
  <g transform="matrix(1.0, 0.0, 0.0, 1.0, 39.1, 22.5)">
    <path d="M23.5 15.65 L22.4 20.65 18.9 19.15 18.85 19.1 16.65 14.15 15.75 21.4 15.3 22.0 15.15 22.05 7.35 21.55 2.95 19.65 2.8 19.15 3.15 17.65 6.25 8.2 4.5 8.5 1.15 9.05 0.05 9.25 -0.5 9.35 -0.55 9.45 -0.65 9.5 Q-1.15 9.8 -2.6 9.9 -4.0 10.0 -4.65 10.5 L-6.15 11.55 Q-7.2 12.15 -8.4 12.3 L-8.45 13.1 Q-8.55 14.4 -9.95 15.85 L-12.7 18.3 -15.75 21.0 -19.8 21.5 -25.5 21.2 Q-29.75 21.2 -31.05 19.45 L-33.6 15.65 Q-37.4 11.2 -38.4 9.55 L-38.85 8.7 -38.9 7.35 -39.1 5.95 -38.85 -1.95 -38.95 -3.45 -38.4 -8.1 -37.85 -9.15 -37.4 -10.25 Q-37.1 -11.3 -36.35 -11.4 L-34.35 -13.95 -30.85 -18.6 -29.25 -20.85 -28.1 -21.9 Q-27.5 -22.45 -25.4 -22.5 L-20.5 -22.35 -15.7 -22.35 -13.05 -22.35 Q-12.25 -22.2 -12.0 -21.75 -11.05 -21.5 -10.0 -19.65 L-8.45 -16.85 -7.5 -15.7 Q-7.15 -15.3 -5.95 -15.05 -3.75 -14.55 -3.7 -14.1 -3.7 -13.85 -2.6 -13.85 L0.2 -13.5 Q1.15 -13.2 2.35 -12.3 L2.45 -12.25 2.4 -12.15 Q2.4 -11.45 3.4 -10.35 4.15 -9.5 4.95 -9.2 L4.9 -8.95 Q6.3 -8.9 6.8 -8.35 L7.4 -8.25 8.0 -8.5 8.6 -9.55 10.4 -12.5 12.45 -16.0 Q13.5 -17.75 14.55 -17.75 16.5 -17.75 18.0 -14.75 L19.5 -10.8 21.15 -14.7 Q21.8 -16.25 23.25 -17.1 23.95 -17.5 24.35 -17.35 L24.5 -17.35 25.4 -17.15 Q26.7 -16.6 27.45 -15.75 L28.3 -14.6 28.45 -14.35 29.35 -12.8 29.5 -12.55 28.05 -5.75 28.0 -5.8 27.95 -5.7 27.6 -5.75 27.0 -5.8 27.0 -5.95 26.85 -5.9 26.8 -6.45 26.7 -7.05 Q26.1 -10.55 24.5 -13.6 L24.4 -13.6 23.95 -13.65 23.55 -12.95 Q21.3 -9.0 20.5 -5.45 L20.5 -5.5 20.1 -5.45 19.9 -5.35 19.95 -5.3 18.7 -5.25 18.45 -5.4 18.4 -5.3 18.4 -5.35 18.2 -5.35 17.95 -5.3 17.95 -5.35 17.4 -7.4 Q16.45 -10.65 14.6 -13.15 L14.5 -13.35 14.2 -13.55 Q11.95 -9.5 11.0 -5.65 L10.8 -5.1 10.4 -5.1 10.45 -4.9 6.55 -4.75 6.2 -4.3 5.4 -4.15 5.3 -4.1 2.9 -3.65 2.7 -3.65 2.2 -4.05 2.1 -4.45 2.1 -4.55 2.1 -4.6 0.45 -5.2 -0.8 -5.85 -3.15 -5.75 -1.85 -6.15 -1.6 -6.4 -1.95 -6.6 -0.8 -6.85 -0.75 -6.9 0.35 -7.75 1.2 -8.15 1.25 -8.4 1.25 -8.85 -1.75 -10.3 -2.95 -10.2 -2.9 -10.25 -3.25 -10.4 -3.7 -10.25 -4.15 -10.2 -4.45 -10.15 -4.5 -10.2 -6.15 -10.1 -7.55 -12.0 -11.25 -12.6 -11.7 -15.65 -15.3 -19.6 -26.45 -18.95 -33.85 -8.95 -34.2 -8.85 -35.1 -7.8 -35.55 -5.35 Q-35.6 -3.55 -35.8 -2.5 L-36.0 -0.45 -35.85 2.6 -35.7 4.35 Q-35.55 5.0 -35.55 5.7 L-35.5 7.0 Q-35.25 8.3 -34.4 8.3 L-34.35 8.3 -28.1 17.15 -24.95 17.2 -24.6 17.25 -24.6 17.35 Q-24.4 17.85 -23.4 17.8 L-18.15 17.4 -17.9 17.3 -15.6 15.55 -13.6 13.8 -13.4 13.65 -13.0 13.2 -12.85 13.15 -12.85 13.0 -12.8 12.75 -11.7 10.05 -11.6 10.05 Q-6.45 8.05 -6.4 7.0 L-6.35 6.9 -6.3 6.9 -6.2 6.95 -2.45 6.6 -2.35 6.45 -2.6 6.25 -1.45 6.4 -0.9 5.95 0.5 5.2 0.55 5.2 0.8 4.55 0.3 4.4 -0.05 4.25 -0.6 3.65 -2.55 3.05 -2.55 3.0 -2.55 2.95 0.35 2.7 0.6 2.7 Q1.05 2.15 2.75 2.2 L4.3 2.4 5.3 2.35 7.55 2.2 7.6 2.2 7.8 2.15 8.15 2.15 9.05 2.05 9.5 2.05 9.8 2.1 9.95 2.1 10.6 2.3 10.7 2.3 10.7 2.4 10.85 2.75 10.8 3.0 10.35 3.35 5.45 18.45 8.05 19.55 13.6 19.6 14.95 13.9 16.25 8.35 16.25 8.3 16.6 8.3 19.9 17.5 22.55 18.5 23.5 15.65" fill="#28160e" fill-rule="evenodd" stroke="none"/>
    <path d="M26.5 1.5 L26.1 3.3 12.85 3.75 11.4 8.5 9.7 14.15 8.05 19.55 5.45 18.45 10.35 3.35 10.8 3.0 10.85 2.75 10.7 2.4 10.7 2.3 10.6 2.3 9.95 2.1 26.5 1.5 M22.55 18.5 L19.9 17.5 16.6 8.3 19.35 8.15 21.05 13.6 22.55 18.5 M9.8 2.1 L9.5 2.05 9.65 2.05 9.8 2.1 M5.3 2.35 L4.3 2.4 2.75 2.2 Q1.05 2.15 0.6 2.7 L0.35 2.7 0.3 2.7 0.0 2.7 -1.4 2.4 -1.25 2.35 0.0 1.85 1.05 1.25 2.05 0.65 2.4 0.4 2.45 0.45 2.6 0.25 2.85 0.05 2.6 0.05 2.35 -0.2 2.2 -0.3 1.45 -0.65 1.25 -0.75 0.2 -1.1 -1.4 -1.6 -1.25 -1.7 -0.6 -2.05 1.2 -2.8 2.7 -3.65 2.9 -3.65 5.3 -4.1 Q6.95 -0.75 5.3 2.3 L5.3 2.35 M2.1 -4.55 L2.1 -4.45 2.2 -4.05 1.55 -4.55 2.1 -4.55 M10.45 -4.9 L10.4 -5.1 10.8 -5.1 11.0 -5.65 11.15 -5.35 11.7 -4.75 12.75 -4.25 14.15 -4.25 14.2 -4.15 14.4 -4.65 14.3 -5.6 14.2 -13.55 14.5 -13.35 14.6 -13.15 15.6 -6.6 15.6 -6.15 15.65 -6.0 15.8 -4.3 16.9 -4.65 17.95 -5.35 17.9 -5.3 17.95 -5.3 18.2 -5.35 18.4 -5.35 18.4 -5.3 18.45 -5.4 18.7 -5.25 Q17.9 -4.05 16.8 -3.6 L16.3 -3.25 13.65 -2.9 12.15 -3.25 11.8 -3.45 Q11.45 -3.5 11.2 -3.7 10.95 -3.85 10.85 -4.15 L10.45 -4.9 M19.95 -5.3 L19.9 -5.35 20.1 -5.45 20.5 -5.5 20.5 -5.45 Q20.85 -4.9 21.4 -4.75 L22.0 -4.55 23.25 -4.45 23.45 -4.65 Q24.2 -6.3 24.25 -9.3 L24.4 -13.6 24.5 -13.6 25.15 -9.0 Q25.35 -6.25 25.1 -5.0 L25.1 -4.55 26.85 -5.5 27.0 -5.8 27.6 -5.75 27.85 -5.7 27.85 -5.4 27.65 -5.2 27.05 -4.45 25.5 -3.55 24.7 -3.4 23.35 -3.3 22.25 -3.4 21.15 -3.8 Q20.65 -4.0 20.6 -4.35 L19.95 -5.3" fill="#805917" fill-rule="evenodd" stroke="none"/>
    <path d="M-2.95 -10.2 L-1.75 -10.3 1.25 -8.85 1.25 -8.4 -0.15 -7.75 -0.5 -7.65 -0.75 -7.65 -0.85 -7.7 -1.35 -7.7 -1.65 -7.8 -1.75 -7.75 -2.4 -7.85 -2.4 -7.9 -2.45 -7.95 -3.1 -8.0 -3.4 -8.05 -3.5 -8.05 -3.45 -8.2 -3.45 -8.95 -3.25 -9.8 -2.95 -10.2 M-3.15 -5.75 L-0.8 -5.85 0.45 -5.2 2.1 -4.6 2.1 -4.55 1.55 -4.55 2.2 -4.05 2.7 -3.65 0.35 -3.25 -1.6 -3.2 -3.0 -3.4 -3.25 -3.25 -3.15 -3.4 -3.85 -3.45 -3.9 -3.55 -4.15 -3.4 -4.15 -3.8 -3.9 -4.65 Q-4.1 -4.8 -3.95 -5.1 L-3.4 -5.5 -3.5 -5.6 -3.3 -5.7 -3.25 -5.75 -3.15 -5.75 M0.2 -1.1 L1.25 -0.75 1.45 -0.65 2.2 -0.3 -2.05 0.25 -3.95 0.0 -4.35 -0.25 -4.55 -0.25 -4.5 -0.4 -4.05 -0.95 -3.75 -1.1 -3.4 -1.25 -3.4 -1.3 -2.1 -1.45 0.15 -1.1 0.2 -1.1" fill="#fffac7" fill-rule="evenodd" stroke="none"/>
    <path d="M-2.55 3.05 L-0.6 3.65 -0.05 4.25 0.3 4.4 -1.55 5.1 -2.5 5.05 -2.65 5.15 -2.95 5.0 -3.0 5.05 -4.4 4.6 -4.4 4.5 -4.45 4.45 -4.6 4.45 -4.6 4.4 -4.45 4.45 -4.55 4.25 -4.5 4.05 -4.2 3.9 -3.65 3.55 -2.85 3.35 -2.55 3.05 M1.25 -8.4 L1.2 -8.15 0.35 -7.75 -0.75 -6.9 -0.8 -6.85 -1.95 -6.6 -2.45 -6.6 -2.6 -6.7 -2.7 -6.75 -2.65 -6.8 -2.75 -6.85 -2.85 -6.85 -3.35 -7.45 -3.5 -8.05 -3.4 -8.05 -3.1 -8.0 -2.45 -7.95 -2.4 -7.9 -2.4 -7.85 -1.75 -7.75 -1.65 -7.8 -1.35 -7.7 -0.85 -7.7 -0.75 -7.65 -0.5 -7.65 -0.15 -7.75 1.25 -8.4 M-15.5 -7.2 L-15.45 -7.55 Q-14.8 -8.9 -14.7 -11.35 L-14.6 -12.15 -14.75 -13.55 Q-15.0 -14.65 -15.65 -15.2 L-16.15 -15.55 Q-17.05 -16.15 -19.75 -16.2 L-20.5 -16.15 -17.3 -16.55 Q-14.45 -16.6 -12.9 -14.75 L-12.2 -10.85 -12.25 -10.8 -12.25 -10.75 -12.1 -10.85 Q-11.9 -9.95 -12.05 -9.4 L-12.25 -7.75 -12.85 -6.2 -14.4 -3.4 Q-15.4 -1.75 -15.2 -0.5 L-14.85 0.85 -13.4 2.85 -13.05 4.45 -11.95 5.0 -10.65 5.05 -10.55 5.0 -9.3 4.5 -9.2 4.4 Q-7.0 3.35 -6.25 1.85 L-6.05 2.1 -5.5 2.55 -5.65 2.6 -6.15 2.9 -6.45 3.3 -6.55 3.35 -6.75 3.6 -7.1 4.5 -6.9 4.75 -7.0 4.8 -6.95 4.8 -8.5 6.0 -9.85 6.75 -10.0 6.65 -12.2 7.15 -14.05 7.3 -15.15 7.2 -15.2 7.9 Q-15.25 10.7 -16.05 11.95 L-16.25 12.15 -18.15 13.35 -20.05 14.2 -20.8 14.25 -23.25 13.7 -23.6 13.45 -23.95 13.45 Q-24.95 13.15 -25.0 12.0 -24.85 13.0 -24.15 13.2 L-22.6 13.3 -20.0 12.8 -19.9 12.75 -18.25 11.9 Q-16.5 10.35 -16.35 8.0 -16.3 7.1 -16.9 5.8 L-16.85 5.7 -18.7 3.6 -19.05 3.3 -19.25 3.2 -19.45 3.2 -19.55 2.9 -19.55 2.85 -18.75 1.4 -18.45 0.55 Q-18.2 -0.4 -18.55 -1.5 L-18.5 -1.6 -19.05 -3.3 -18.7 -3.65 -18.65 -3.75 -18.0 -4.4 -17.95 -4.45 -16.75 -5.4 -16.7 -5.45 Q-15.95 -6.05 -15.65 -6.9 L-15.5 -7.2 M-8.95 -2.9 L-9.0 -3.75 Q-9.1 -4.65 -9.75 -4.65 L-9.25 -4.8 -9.15 -4.8 Q-8.65 -4.85 -8.25 -4.25 -8.0 -3.8 -8.05 -3.35 L-8.05 -3.25 -7.95 -2.95 -8.05 -2.5 -8.05 -2.45 -8.1 -2.5 -8.15 -2.45 -8.5 -2.25 Q-8.9 -2.15 -8.85 -2.55 L-8.85 -2.7 -8.95 -2.9 M-9.8 -4.65 Q-9.9 -4.55 -10.05 -4.5 L-10.15 -4.5 -9.8 -4.65 M-4.15 -3.4 L-3.9 -3.55 -3.85 -3.45 -3.15 -3.4 -3.25 -3.25 -3.0 -3.4 -1.6 -3.2 0.35 -3.25 2.7 -3.65 1.2 -2.8 -0.6 -2.05 -1.25 -1.7 -1.4 -1.6 0.2 -1.1 0.15 -1.1 -2.1 -1.45 -1.65 -1.65 -2.05 -1.75 -2.0 -1.85 -1.9 -1.95 -2.1 -2.05 -2.15 -2.1 -2.2 -2.1 -3.0 -2.35 -3.9 -2.8 -3.9 -2.85 -4.0 -3.1 -4.1 -3.15 -4.15 -3.4 M2.2 -0.3 L2.35 -0.2 2.15 0.3 -1.6 1.25 -2.45 1.25 -3.05 1.05 -3.6 1.05 -3.5 1.0 -3.7 0.9 -3.75 0.8 -4.5 0.6 -4.55 0.65 -4.65 0.0 -4.6 -0.25 -4.55 -0.35 -4.5 -0.4 -4.55 -0.25 -4.35 -0.25 -3.95 0.0 -2.05 0.25 2.2 -0.3" fill="#d5c278" fill-rule="evenodd" stroke="none"/>
    <path d="M-2.55 2.95 L-2.55 3.0 -2.75 2.95 -2.55 2.95 M-6.35 6.9 L-6.4 7.0 -6.4 6.85 -6.35 6.9 M-11.6 10.05 L-11.7 10.05 -11.7 10.0 -11.55 9.7 -11.55 9.75 -11.7 10.0 -11.6 10.05 M17.95 -5.35 L17.95 -5.3 17.9 -5.3 17.95 -5.35 M-23.55 -14.3 L-22.4 -14.75 -20.25 -15.1 -19.65 -15.05 -18.5 -14.8 -18.65 -14.75 Q-19.65 -14.75 -19.9 -13.5 L-20.0 -8.5 Q-19.85 -6.7 -19.4 -6.05 L-18.0 -4.4 -18.65 -3.75 -18.7 -3.65 -19.05 -3.3 -21.4 -6.9 -21.8 -8.4 -22.95 -11.8 -23.4 -13.05 -23.55 -14.3 M-19.55 2.9 L-19.45 3.2 -19.25 3.45 -19.1 3.85 -20.4 6.35 Q-21.2 8.15 -21.25 9.55 L-21.2 10.3 Q-21.05 11.3 -20.35 12.3 L-20.2 12.35 -20.15 12.4 -19.95 12.7 -19.9 12.75 -20.0 12.8 -22.6 13.3 -24.15 13.2 Q-24.85 13.0 -25.0 12.0 L-25.05 11.6 -24.9 10.85 -24.6 10.4 -24.6 10.05 -24.25 9.4 -19.7 3.1 -19.65 2.95 -19.55 2.9 M-6.6 6.45 L-6.6 6.6 -6.75 6.6 -6.6 6.45" fill="#000000" fill-rule="evenodd" stroke="none"/>
    <path d="M26.1 3.3 L25.65 5.4 24.3 5.35 24.05 5.35 Q21.9 5.3 19.7 5.4 L17.7 5.5 14.55 5.95 14.4 6.05 Q13.1 6.45 12.1 7.65 L11.4 8.5 12.85 3.75 26.1 3.3 M9.5 2.05 L9.05 2.05 8.15 2.15 7.8 2.15 7.6 2.2 7.55 2.2 5.3 2.35 5.3 2.3 Q6.95 -0.75 5.3 -4.1 L5.4 -4.15 6.2 -4.3 6.55 -4.75 10.45 -4.9 10.85 -4.15 Q10.95 -3.85 11.2 -3.7 12.05 -1.95 11.9 -0.5 L11.85 -0.3 11.8 -0.3 Q11.5 1.0 10.35 1.7 L9.85 1.95 9.65 2.05 9.5 2.05 M14.6 -13.15 Q16.45 -10.65 17.4 -7.4 L17.95 -5.35 16.9 -4.65 15.8 -4.3 15.65 -6.0 15.6 -6.15 15.6 -6.6 14.6 -13.15 M24.5 -13.6 Q26.1 -10.55 26.7 -7.05 L26.8 -6.45 26.85 -5.9 27.0 -5.95 27.0 -5.8 26.85 -5.5 25.1 -4.55 25.1 -5.0 Q25.35 -6.25 25.15 -9.0 L24.5 -13.6 M10.3 -0.7 L10.25 -0.7 10.25 -0.65 10.3 -0.7" fill="#c47600" fill-rule="evenodd" stroke="none"/>
    <path d="M28.05 -5.75 L27.05 -1.05 21.6 -0.95 21.2 -0.9 21.0 -0.9 11.85 -0.3 11.9 -0.5 Q12.05 -1.95 11.2 -3.7 11.45 -3.5 11.8 -3.45 L12.15 -3.25 13.65 -2.9 16.3 -3.25 16.8 -3.6 Q17.9 -4.05 18.7 -5.25 L19.95 -5.3 20.6 -4.35 Q20.65 -4.0 21.15 -3.8 L22.25 -3.4 23.35 -3.3 24.7 -3.4 25.5 -3.55 27.05 -4.45 27.65 -5.2 27.85 -5.4 27.85 -5.7 27.6 -5.75 27.95 -5.7 28.0 -5.8 28.05 -5.75 M25.65 5.4 L23.95 13.45 21.05 13.6 19.35 8.15 16.6 8.3 16.25 8.3 16.25 8.35 14.95 13.9 9.7 14.15 11.4 8.5 12.1 7.65 Q13.1 6.45 14.4 6.05 L14.55 5.95 17.7 5.5 19.7 5.4 Q21.9 5.3 24.05 5.35 L24.3 5.35 25.65 5.4 M11.0 -5.65 Q11.95 -9.5 14.2 -13.55 L14.3 -5.6 14.4 -4.65 14.2 -4.15 14.15 -4.25 12.75 -4.25 11.7 -4.75 11.15 -5.35 11.0 -5.65 M20.5 -5.45 Q21.3 -9.0 23.55 -12.95 L23.95 -13.65 24.4 -13.6 24.25 -9.3 Q24.2 -6.3 23.45 -4.65 L23.25 -4.45 22.0 -4.55 21.4 -4.75 Q20.85 -4.9 20.5 -5.45 M10.3 -0.7 L10.25 -0.65 10.25 -0.7 10.3 -0.7" fill="#ffcc00" fill-rule="evenodd" stroke="none"/>
    <path d="M27.05 -1.05 L26.5 1.5 9.95 2.1 9.8 2.1 9.65 2.05 9.85 1.95 10.35 1.7 Q11.5 1.0 11.8 -0.3 L11.85 -0.3 21.0 -0.9 21.2 -0.9 21.6 -0.95 27.05 -1.05 M23.95 13.45 L23.5 15.65 22.55 18.5 21.05 13.6 23.95 13.45 M14.95 13.9 L13.6 19.6 8.05 19.55 9.7 14.15 14.95 13.9" fill="#fff783" fill-rule="evenodd" stroke="none"/>
    <path d="M-2.55 3.0 L-2.55 3.05 -2.85 3.35 -3.65 3.55 -4.2 3.9 -4.5 4.05 -4.55 4.25 -4.45 4.45 -4.6 4.4 -4.6 4.45 -4.45 4.45 -4.4 4.5 -4.4 4.6 -3.0 5.05 -2.95 5.0 -2.65 5.15 -2.5 5.05 -2.5 5.1 -2.15 5.3 -2.3 5.5 -4.1 5.6 -4.7 5.35 Q-5.45 5.1 -5.4 4.2 L-5.2 3.45 -5.15 3.4 -4.95 3.15 -3.5 2.85 -3.5 2.9 -2.8 2.85 -2.75 2.95 -2.55 3.0 M-4.45 -10.15 L-4.15 -10.2 -4.4 -10.1 -4.45 -10.15 M-3.7 -10.25 L-3.25 -10.4 -2.9 -10.25 -2.95 -10.2 -3.25 -9.8 -3.45 -8.95 -3.45 -8.2 -3.5 -8.05 -3.35 -7.45 -2.85 -6.85 -3.1 -6.95 -3.15 -6.8 Q-4.8 -6.75 -4.7 -8.0 L-4.5 -9.05 -4.05 -9.95 -3.7 -10.25 M-2.65 -6.7 L-2.7 -6.75 -2.6 -6.7 -2.65 -6.7 M-4.8 -7.0 L-4.75 -7.05 -4.75 -6.9 -4.8 -7.0 M-4.85 -5.05 L-3.7 -5.65 -3.5 -5.6 -3.4 -5.5 -3.95 -5.1 Q-4.1 -4.8 -3.9 -4.65 L-4.15 -3.8 -4.15 -3.4 -4.1 -3.15 -3.9 -2.8 -3.9 -2.7 -3.6 -2.3 -3.6 -2.25 -3.9 -2.15 Q-5.0 -2.15 -4.95 -3.95 L-4.8 -4.75 -4.95 -4.75 -4.85 -5.05 M2.05 0.65 L1.05 1.25 0.0 1.85 -1.25 2.35 -2.6 2.05 -2.95 2.05 -2.95 2.0 -3.35 1.9 -3.4 1.85 -4.5 0.9 -4.55 0.65 -4.5 0.6 -3.75 0.8 -3.7 0.9 -3.5 1.0 -3.6 1.05 -3.05 1.05 -2.45 1.25 -1.6 1.25 2.15 0.3 2.05 0.65 M-2.05 -1.75 L-2.55 -1.75 -2.15 -1.85 -2.15 -2.1 -2.1 -2.05 -1.9 -1.95 -2.0 -1.85 -2.05 -1.75 M-4.6 5.95 L-4.75 5.95 -4.65 5.45 -4.6 5.95" fill="#c19703" fill-rule="evenodd" stroke="none"/>
    <path d="M0.3 4.4 L0.8 4.55 0.55 5.2 0.5 5.2 -0.9 5.95 -1.45 6.4 -2.6 6.25 -3.85 6.0 -4.6 5.95 -4.65 5.45 -4.75 5.95 -5.6 5.85 -5.95 5.0 Q-5.9 4.15 -5.25 3.45 L-5.2 3.45 -5.4 4.2 Q-5.45 5.1 -4.7 5.35 L-4.1 5.6 -2.3 5.5 -2.15 5.3 -2.5 5.1 -2.5 5.05 -1.55 5.1 0.3 4.4 M-4.5 -10.2 L-4.45 -10.15 -4.4 -10.1 -4.15 -10.2 -3.7 -10.25 -4.05 -9.95 -4.5 -9.05 -4.7 -8.0 Q-4.8 -6.75 -3.15 -6.8 L-3.1 -6.95 -2.85 -6.85 -2.75 -6.85 -2.65 -6.8 -2.7 -6.75 -2.65 -6.7 -4.75 -6.7 -4.8 -6.75 -5.65 -7.3 -5.85 -7.7 Q-5.8 -8.7 -5.35 -9.35 L-5.0 -9.6 -4.5 -10.2 M-4.8 -7.0 L-4.75 -6.9 -4.75 -7.05 -4.8 -7.0 M-2.15 -1.85 L-4.15 -2.0 -4.3 -2.0 -5.15 -2.55 -5.65 -3.2 -5.7 -3.5 -5.4 -4.45 -5.05 -4.95 -4.9 -5.05 -4.85 -5.05 -4.95 -4.75 -4.8 -4.75 -4.95 -3.95 Q-5.0 -2.15 -3.9 -2.15 L-3.6 -2.25 -3.6 -2.3 -3.9 -2.7 -3.9 -2.8 -4.1 -3.15 -4.0 -3.1 -3.9 -2.85 -3.9 -2.8 -3.0 -2.35 -2.2 -2.1 -2.15 -2.1 -2.15 -1.85 M-3.5 -5.6 L-3.5 -5.65 -3.45 -5.65 -3.3 -5.7 -3.5 -5.6 M-4.5 -0.4 L-4.55 -0.35 -4.6 -0.25 -4.65 0.0 -4.55 0.65 -4.5 0.9 -3.4 1.85 -3.35 1.9 -2.95 2.0 -2.95 2.05 -4.75 1.8 -4.8 1.7 -4.9 1.7 -5.05 1.55 Q-5.65 1.15 -5.65 0.6 -5.65 -0.05 -5.2 -0.5 L-4.85 -0.8 -3.75 -1.15 -3.75 -1.1 -4.05 -0.95 -4.5 -0.4" fill="#a88300" fill-rule="evenodd" stroke="none"/>
    <path d="M-6.3 6.9 L-6.35 6.9 -6.4 6.85 -6.5 6.7 -6.65 6.65 -7.75 7.45 -10.05 8.2 -10.1 8.2 -11.8 8.65 -11.8 8.7 -12.0 8.8 -12.0 9.0 -12.25 9.1 -12.35 9.3 Q-12.6 11.9 -13.25 12.55 L-14.6 13.2 -18.4 15.85 -19.7 16.3 -22.2 16.35 -24.9 16.7 Q-26.1 15.95 -26.55 15.1 L-25.75 13.2 -25.35 12.45 -25.35 12.4 -25.05 11.6 -25.0 12.0 Q-24.95 13.15 -23.95 13.45 L-23.6 13.45 -23.25 13.7 -20.8 14.25 -20.05 14.2 -18.15 13.35 -16.25 12.15 -16.05 11.95 Q-15.25 10.7 -15.2 7.9 L-15.15 7.2 -14.05 7.3 -12.2 7.15 -10.0 6.65 -9.85 6.75 -8.5 6.0 -6.95 4.8 -6.9 4.9 -6.75 5.0 -6.8 6.2 -6.6 6.45 -6.75 6.6 -6.6 6.6 -6.5 6.55 Q-6.25 6.5 -6.25 6.75 L-6.3 6.9 M-12.8 12.75 L-12.85 13.0 -13.0 13.2 -13.4 13.65 -12.8 12.75 M-15.6 15.55 L-17.9 17.3 -18.15 17.4 -16.35 15.95 -15.6 15.55 M-23.55 -14.3 L-23.6 -14.6 -22.8 -15.5 -22.65 -15.5 -22.55 -15.65 -21.75 -16.1 -21.5 -16.15 -20.5 -16.15 -19.75 -16.2 Q-17.05 -16.15 -16.15 -15.55 L-15.65 -15.2 Q-15.0 -14.65 -14.75 -13.55 L-14.6 -12.15 -14.7 -11.35 Q-14.8 -8.9 -15.45 -7.55 L-15.5 -7.2 -15.45 -9.0 Q-15.45 -11.25 -16.1 -12.75 L-16.45 -13.45 Q-17.55 -14.9 -19.65 -15.05 L-20.25 -15.1 -22.4 -14.75 -23.55 -14.3 M-25.3 -3.4 L-25.65 -3.75 -26.25 -4.6 -27.2 -6.4 -26.75 -9.75 -26.45 -9.7 -26.05 -11.15 -24.9 -9.8 -24.8 -9.6 -24.3 -8.15 -25.5 -6.55 -26.1 -5.25 -25.95 -4.6 -25.3 -3.4 M-9.1 1.55 L-9.15 1.4 -9.0 1.45 -9.05 0.8 -9.2 0.2 -9.4 -1.2 -9.15 -1.65 -9.0 -2.7 -8.95 -2.9 -8.85 -2.7 -8.85 -2.55 Q-8.9 -2.15 -8.5 -2.25 L-8.15 -2.45 -8.1 -2.5 -8.05 -2.45 -8.05 -2.15 -8.5 1.2 -9.1 1.55 M-25.3 7.05 L-25.95 8.05 -27.1 9.75 -27.35 9.65 -27.4 9.65 -27.35 9.6 -27.75 9.3 -27.6 7.65 -26.55 3.45 -26.0 5.75 Q-25.8 6.7 -25.3 7.05" fill="#7b582f" fill-rule="evenodd" stroke="none"/>
    <path d="M-24.95 17.2 L-28.1 17.15 -34.35 8.3 -34.4 8.3 Q-35.25 8.3 -35.5 7.0 L-35.55 5.7 Q-35.55 5.0 -35.7 4.35 L-35.85 2.6 -36.0 -0.45 -35.8 -2.5 Q-35.6 -3.55 -35.55 -5.35 L-35.1 -7.8 -34.2 -8.85 -33.85 -8.95 -26.45 -18.95 -15.3 -19.6 -11.7 -15.65 -11.25 -12.6 -7.55 -12.0 -6.15 -10.1 -6.0 -9.95 -7.1 -8.3 -5.95 -6.5 -5.85 -6.45 -5.55 -6.45 -5.1 -5.95 -5.7 -5.55 -6.6 -4.4 -6.8 -4.05 -6.85 -2.7 -5.9 -2.1 -5.5 -2.0 -4.8 -1.25 -5.1 -1.05 -5.75 -0.5 -5.8 -0.5 -6.15 -0.3 -6.55 0.0 -6.75 0.5 -6.45 1.25 -6.3 1.5 -6.25 1.85 Q-7.0 3.35 -9.2 4.4 L-9.3 4.5 -10.55 5.0 -10.65 5.05 -11.95 5.0 -13.05 4.45 -13.4 2.85 -14.85 0.85 -15.2 -0.5 Q-15.4 -1.75 -14.4 -3.4 L-12.85 -6.2 -12.25 -7.75 -12.05 -9.4 Q-11.9 -9.95 -12.1 -10.85 L-12.25 -10.75 -12.25 -10.8 -12.2 -10.85 -12.9 -14.75 Q-14.45 -16.6 -17.3 -16.55 L-20.5 -16.15 -21.5 -16.15 -21.75 -16.1 -22.55 -15.65 -22.65 -15.5 -22.8 -15.5 -23.6 -14.6 -23.55 -14.3 -23.4 -13.05 -22.95 -11.8 -21.8 -8.4 -21.4 -6.9 -19.05 -3.3 -18.5 -1.6 -18.55 -1.5 Q-18.2 -0.4 -18.45 0.55 L-18.75 1.4 -19.55 2.85 -19.55 2.9 -19.65 2.95 -19.7 3.1 -24.25 9.4 -24.6 10.05 -24.85 10.75 -24.9 10.85 -25.05 11.6 -25.35 12.4 -25.35 12.45 -25.75 13.2 -26.55 15.1 Q-26.1 15.95 -24.9 16.7 L-25.25 16.8 -25.0 17.15 -24.95 17.2 M-24.3 -8.15 L-24.8 -9.6 -24.9 -9.8 -26.05 -11.15 -26.45 -9.7 -26.75 -9.75 -27.2 -6.4 -26.25 -4.6 -25.65 -3.75 -25.3 -3.4 -25.25 -3.35 -25.2 -3.25 -25.1 -3.2 -24.9 -3.05 -24.85 -3.05 -24.75 -3.0 -24.6 -3.0 -24.3 -2.95 -24.25 -3.0 -24.1 -2.85 -22.25 -2.95 -22.25 -3.4 -22.85 -4.55 -24.3 -8.15 M-10.15 -4.5 L-10.25 -4.55 -10.85 -4.35 -11.6 -4.0 -13.5 -2.5 -14.45 -1.2 -14.4 -1.1 -14.45 -0.7 -14.4 -0.65 -14.25 -0.2 -14.25 -0.15 -14.05 0.05 -10.5 1.65 -9.8 1.7 -9.1 1.55 -8.5 1.2 -8.05 -2.15 -8.05 -2.45 -8.05 -2.5 -7.95 -2.95 -8.05 -3.25 -8.05 -3.35 Q-8.0 -3.8 -8.25 -4.25 -8.65 -4.85 -9.15 -4.8 L-9.25 -4.8 -9.75 -4.65 -9.75 -4.7 -9.8 -4.65 -10.15 -4.5 M-25.3 7.05 L-22.15 1.55 Q-22.2 1.25 -22.65 1.3 L-22.9 1.25 -24.05 1.35 -25.65 1.85 -26.3 2.75 -26.55 3.45 -27.6 7.65 -27.75 9.3 -27.35 9.6 -27.4 9.65 -27.35 9.65 -27.1 9.75 -25.95 8.05 -25.3 7.05" fill="#fffac6" fill-rule="evenodd" stroke="none"/>
    <path d="M0.35 2.7 L-2.55 2.95 -2.75 2.95 -2.8 2.85 -3.5 2.9 -3.5 2.85 -4.95 3.15 -5.15 3.4 -5.2 3.45 -5.25 3.45 Q-5.9 4.15 -5.95 5.0 L-5.6 5.85 -4.75 5.95 -4.6 5.95 -3.85 6.0 -2.6 6.25 -2.35 6.45 -2.45 6.6 -6.2 6.95 -6.3 6.9 -6.25 6.75 Q-6.25 6.5 -6.5 6.55 L-6.6 6.6 -6.6 6.45 -6.8 6.2 -6.75 5.0 -6.9 4.9 -6.95 4.8 -7.0 4.8 -6.9 4.75 -7.1 4.5 -6.75 3.6 -6.55 3.35 -6.45 3.3 -6.15 2.9 -5.65 2.6 -5.5 2.55 -6.05 2.1 -6.25 1.85 -6.3 1.5 -6.45 1.25 -6.75 0.5 -6.55 0.0 -6.15 -0.3 -5.8 -0.5 -5.75 -0.5 -5.1 -1.05 -4.8 -1.25 -5.5 -2.0 -5.9 -2.1 -6.85 -2.7 -6.8 -4.05 -6.6 -4.4 -5.7 -5.55 -5.1 -5.95 -5.55 -6.45 -5.85 -6.45 -5.95 -6.5 -7.1 -8.3 -6.0 -9.95 -6.15 -10.1 -4.5 -10.2 -5.0 -9.6 -5.35 -9.35 Q-5.8 -8.7 -5.85 -7.7 L-5.65 -7.3 -4.8 -6.75 -4.75 -6.7 -2.65 -6.7 -2.6 -6.7 -2.45 -6.6 -1.95 -6.6 -1.6 -6.4 -1.85 -6.15 -3.15 -5.75 -3.25 -5.75 -3.3 -5.7 -3.45 -5.65 -3.5 -5.65 -3.5 -5.6 -3.7 -5.65 -4.85 -5.05 -4.9 -5.05 -5.05 -4.95 -5.4 -4.45 -5.7 -3.5 -5.65 -3.2 -5.15 -2.55 -4.3 -2.0 -4.15 -2.0 -2.15 -1.85 -2.55 -1.75 -2.05 -1.75 -1.65 -1.65 -2.1 -1.45 -3.4 -1.3 -3.4 -1.25 -3.75 -1.1 -3.75 -1.15 -4.85 -0.8 -5.2 -0.5 Q-5.65 -0.05 -5.65 0.6 -5.65 1.15 -5.05 1.55 L-4.9 1.7 -4.8 1.7 -4.75 1.8 -2.95 2.05 -2.6 2.05 -1.25 2.35 -1.4 2.4 0.0 2.7 0.3 2.7 0.35 2.7 M-19.65 -15.05 Q-17.55 -14.9 -16.45 -13.45 L-16.1 -12.75 Q-15.45 -11.25 -15.45 -9.0 L-15.5 -7.2 -15.65 -6.9 Q-15.95 -6.05 -16.7 -5.45 L-16.75 -5.4 -17.95 -4.45 -18.0 -4.4 -19.4 -6.05 Q-19.85 -6.7 -20.0 -8.5 L-19.9 -13.5 Q-19.65 -14.75 -18.65 -14.75 L-18.5 -14.8 -19.65 -15.05 M-19.45 3.2 L-19.25 3.2 -19.05 3.3 -18.7 3.6 -16.85 5.7 -16.9 5.8 Q-16.3 7.1 -16.35 8.0 -16.5 10.35 -18.25 11.9 L-19.9 12.75 -19.95 12.7 -20.15 12.4 -20.2 12.35 -20.35 12.3 Q-21.05 11.3 -21.2 10.3 L-21.25 9.55 Q-21.2 8.15 -20.4 6.35 L-19.1 3.85 -19.25 3.45 -19.45 3.2 M-9.1 1.55 L-9.8 1.7 -10.5 1.65 -14.05 0.05 -14.25 -0.15 -14.25 -0.2 -14.4 -0.65 -14.45 -0.7 -14.4 -1.1 -14.45 -1.2 -13.5 -2.5 -11.6 -4.0 -10.85 -4.35 -10.25 -4.55 -10.15 -4.5 -10.05 -4.5 Q-9.9 -4.55 -9.8 -4.65 L-9.75 -4.7 -9.75 -4.65 Q-9.1 -4.65 -9.0 -3.75 L-8.95 -2.9 -9.0 -2.7 -9.15 -1.65 -9.4 -1.2 -9.2 0.2 -9.05 0.8 -9.0 1.45 -9.15 1.4 -9.1 1.55" fill="#342514" fill-rule="evenodd" stroke="none"/>
    <path d="M-6.4 7.0 Q-6.45 8.05 -11.6 10.05 L-11.7 10.0 -11.55 9.75 -11.55 9.7 -11.7 10.0 -11.7 10.05 -12.8 12.75 -13.4 13.65 -13.6 13.8 -15.6 15.55 -16.35 15.95 -18.15 17.4 -23.4 17.8 Q-24.4 17.85 -24.6 17.35 L-24.6 17.25 -24.95 17.2 -25.0 17.15 -25.25 16.8 -24.9 16.7 -22.2 16.35 -19.7 16.3 -18.4 15.85 -14.6 13.2 -13.25 12.55 Q-12.6 11.9 -12.35 9.3 L-12.25 9.1 -12.0 9.0 -12.0 8.8 -11.8 8.7 -11.8 8.65 -10.1 8.2 -10.05 8.2 -7.75 7.45 -6.65 6.65 -6.5 6.7 -6.4 6.85 -6.4 7.0 M-12.85 13.0 L-12.85 13.15 -13.0 13.2 -12.85 13.0 M-25.3 -3.4 L-25.95 -4.6 -26.1 -5.25 -25.5 -6.55 -24.3 -8.15 -22.85 -4.55 -22.25 -3.4 -22.25 -2.95 -24.1 -2.85 -24.25 -3.0 -24.3 -2.95 -24.6 -3.0 -24.75 -3.0 -24.85 -3.05 -24.9 -3.05 -25.1 -3.2 -25.2 -3.25 -25.25 -3.35 -25.3 -3.4 M-24.6 10.05 L-24.6 10.4 -24.9 10.85 -24.85 10.75 -24.6 10.05 M-26.55 3.45 L-26.3 2.75 -25.65 1.85 -24.05 1.35 -22.9 1.25 -22.65 1.3 Q-22.2 1.25 -22.15 1.55 L-25.3 7.05 Q-25.8 6.7 -26.0 5.75 L-26.55 3.45" fill="#ab984d" fill-rule="evenodd" stroke="none"/>
  </g>
</svg>
