<?xml version="1.0" encoding="UTF-8" standalone="no"?>
<svg xmlns:ffdec="https://www.free-decompiler.com/flash" xmlns:xlink="http://www.w3.org/1999/xlink" ffdec:objectType="shape" height="86.0px" width="76.95px" xmlns="http://www.w3.org/2000/svg">
  <g transform="matrix(1.0, 0.0, 0.0, 1.0, 38.5, 43.0)">
    <path d="M33.35 -43.0 L33.95 -42.15 30.6 -22.85 29.8 -20.8 Q29.35 -20.4 28.1 -20.15 L23.45 -18.65 21.95 -17.1 21.45 -16.4 23.8 -16.9 25.5 -17.2 27.55 -17.55 29.8 -17.25 32.6 -15.85 33.4 -14.45 Q34.5 -12.8 35.2 -9.35 L35.5 -4.3 35.5 8.0 35.65 8.0 36.75 8.65 36.9 8.9 Q37.7 9.45 37.9 9.85 L38.4 10.85 38.45 11.6 Q38.45 12.9 37.15 13.95 35.95 14.95 34.9 14.95 32.9 14.95 31.85 12.1 L18.7 14.75 4.85 17.0 3.75 17.2 1.3 17.4 0.8 17.4 0.6 20.5 Q0.45 23.25 0.6 25.3 L0.7 25.6 0.95 25.6 0.95 26.05 0.95 26.1 Q0.8 26.55 0.8 27.0 L0.8 27.35 0.7 27.85 -0.55 32.2 -0.95 33.2 Q-2.8 37.65 -5.0 38.35 L-5.35 38.65 -7.0 40.15 -9.2 41.8 -9.9 42.2 -9.6 42.55 -9.9 42.8 -10.55 43.0 -11.4 42.8 -12.2 42.55 Q-12.4 42.55 -12.55 42.75 L-12.8 42.8 -13.5 42.65 -14.25 42.3 -16.7 42.2 Q-18.25 42.0 -18.25 41.15 L-18.25 41.0 -18.9 39.8 -18.9 39.75 -19.0 39.5 -19.3 38.8 -19.7 37.7 -20.5 35.2 -20.45 34.7 -20.5 34.4 -18.45 32.2 -15.7 29.9 -12.4 27.1 -11.65 26.55 -11.1 24.1 -10.85 22.5 Q-9.7 16.2 -8.6 13.5 L-9.6 12.65 Q-13.35 10.55 -14.4 9.7 L-16.7 8.1 -19.9 6.05 -28.25 -0.1 -29.3 -0.8 -31.1 0.0 -31.4 0.0 -32.4 0.05 -32.8 0.1 -33.8 0.05 -33.9 0.0 -34.05 0.0 -34.85 -0.05 -34.95 0.0 -35.15 -0.05 -36.2 -0.5 Q-36.85 -0.75 -37.1 -1.0 L-37.45 -1.5 -37.6 -1.7 -37.75 -1.7 -38.35 -2.35 -38.4 -2.7 -38.5 -3.3 -38.5 -3.55 -38.5 -4.25 -38.35 -4.8 -38.1 -5.05 -37.65 -5.35 -37.6 -5.55 -36.35 -6.3 -36.35 -6.25 -35.0 -6.5 Q-34.35 -6.5 -34.2 -6.0 L-33.4 -5.6 -32.7 -5.15 -32.65 -5.25 -32.65 -5.5 -32.65 -5.55 -32.55 -5.5 Q-29.3 -8.55 -24.6 -11.9 -18.2 -16.7 -12.95 -19.05 L-10.6 -20.5 Q-7.6 -22.0 -7.5 -22.2 L-3.8 -23.6 -1.1 -24.05 -0.8 -24.1 -0.3 -24.05 0.2 -24.05 1.6 -24.0 4.6 -23.7 7.6 -22.3 Q8.55 -21.0 10.7 -19.5 L12.05 -18.7 13.0 -17.8 13.4 -17.5 14.7 -19.15 15.9 -20.65 16.85 -22.2 16.4 -24.8 Q15.7 -25.8 15.45 -27.35 L15.45 -27.65 15.35 -27.8 Q15.2 -28.5 16.95 -29.95 L28.85 -40.25 30.35 -41.15 31.4 -42.2 32.8 -43.0 32.9 -42.85 33.35 -43.0 M0.95 -16.95 L-3.2 -16.4 -6.65 -15.15 -8.5 -14.4 -10.45 -13.25 -12.4 -12.15 -12.7 -11.9 -15.65 -10.15 -21.75 -6.0 Q-23.2 -4.8 -23.6 -4.8 L-23.7 -4.8 Q-24.1 -4.5 -24.8 -4.1 L-27.25 -2.45 -28.1 -1.7 -28.9 -1.05 Q-27.25 -0.2 -24.75 2.0 L-19.3 5.65 -15.6 8.25 -14.45 8.85 -11.3 10.85 -11.3 10.8 Q-10.3 11.15 -9.35 11.9 L-8.9 12.3 -9.4 11.35 -9.3 11.15 -8.6 10.85 -8.1 10.65 -8.65 9.95 Q-9.1 9.35 -9.6 9.1 L-10.3 8.85 -10.45 8.4 Q-10.45 8.0 -9.4 7.75 L-8.1 7.6 -6.1 7.35 -4.55 7.15 -4.5 7.15 -3.0 4.8 -2.8 4.4 0.75 0.0 2.1 -1.6 4.3 -4.25 6.4 -6.75 8.3 -8.95 8.5 -9.2 8.55 -9.3 8.9 -9.7 9.1 -10.1 11.05 -12.6 10.05 -13.4 9.05 -14.1 Q5.0 -16.95 0.95 -16.95 M20.2 -12.35 L20.15 -12.3 20.3 -12.3 20.2 -12.35 M19.0 -10.7 L18.9 -10.65 18.05 -10.7 18.0 -10.4 17.5 -6.8 17.2 -4.65 Q17.0 -3.3 16.6 -3.2 L14.45 -0.2 11.6 3.5 8.35 7.9 Q6.1 11.05 5.55 11.05 5.1 11.05 5.0 10.8 L3.1 10.85 Q2.1 10.85 1.85 11.15 L1.75 11.35 1.8 11.35 2.3 11.9 2.5 13.2 Q2.25 15.4 1.6 16.2 L1.3 17.0 2.25 16.6 3.8 16.4 5.3 16.1 10.55 15.5 17.2 14.2 25.25 12.8 31.7 11.8 31.1 8.3 30.8 1.55 30.4 -5.3 29.9 -8.65 29.3 -10.4 28.3 -11.1 Q27.3 -11.65 26.75 -11.65 L26.05 -11.6 21.5 -11.1 21.25 -11.05 19.75 -10.7 19.65 -10.7 19.5 -10.7 19.0 -10.7 M29.0 -22.7 L29.1 -22.85 29.0 -22.85 29.0 -22.7 M32.2 6.8 L32.4 9.2 32.2 6.6 32.15 6.3 32.2 6.8 M4.25 9.65 L4.25 9.7 4.4 9.7 4.25 9.65" fill="#ffffff" fill-rule="evenodd" stroke="none"/>
  </g>
</svg>
