<?xml version="1.0" encoding="UTF-8" standalone="no"?>
<svg xmlns:ffdec="https://www.free-decompiler.com/flash" xmlns:xlink="http://www.w3.org/1999/xlink" ffdec:objectType="shape" height="75.9px" width="73.55px" xmlns="http://www.w3.org/2000/svg">
  <g transform="matrix(1.0, 0.0, 0.0, 1.0, 25.9, 40.9)">
    <path d="M0.15 -29.9 Q1.3 -30.2 1.6 -29.05 L1.7 -28.6 3.25 -29.05 5.9 -29.55 6.25 -29.2 5.65 -27.55 5.55 -27.1 5.05 -26.2 4.5 -24.9 Q4.0 -23.85 3.45 -23.6 L4.35 -22.45 5.55 -20.9 5.95 -20.4 6.0 -20.2 6.25 -19.75 6.45 -18.85 6.65 -18.95 6.85 -18.6 8.05 -17.7 8.25 -17.45 8.5 -17.15 47.65 24.2 47.45 24.65 47.55 24.75 45.8 27.45 45.8 27.5 45.3 27.9 43.75 29.15 43.35 29.5 43.15 29.65 43.15 29.7 43.0 29.8 42.2 30.35 42.25 30.45 36.75 33.1 26.65 35.0 20.65 33.75 18.7 29.95 18.6 33.35 16.3 32.85 16.1 32.75 15.45 28.25 14.15 31.95 2.9 27.3 2.65 24.55 2.35 23.95 0.85 26.25 -14.0 14.8 -13.2 12.85 -13.15 12.85 -13.25 12.85 -13.2 12.8 -12.8 11.9 -12.75 11.95 -10.8 6.6 Q-10.15 6.05 -8.1 0.45 L-5.5 -5.75 -7.8 -7.1 -7.75 -7.4 -8.0 -7.6 -9.75 -9.25 -10.55 -10.0 -10.6 -10.05 -12.1 -9.1 Q-14.25 -7.9 -15.35 -7.6 -15.9 -7.45 -16.2 -7.8 L-16.4 -8.25 -16.1 -10.2 -15.75 -11.75 -15.55 -12.75 -16.3 -13.2 -16.8 -14.1 -16.9 -14.65 -17.15 -14.8 -17.5 -15.25 -17.95 -16.2 -18.25 -17.9 -18.25 -18.05 -19.4 -17.2 Q-20.95 -16.15 -22.45 -15.75 -23.85 -15.35 -24.1 -16.15 L-24.05 -18.1 -23.9 -19.75 -23.9 -21.1 -25.0 -22.05 -25.7 -23.65 Q-26.25 -25.7 -25.35 -28.65 -24.35 -31.75 -22.25 -34.0 -16.95 -39.95 -12.25 -40.75 -8.4 -41.4 -7.25 -38.8 L-5.6 -39.2 Q-2.85 -39.5 -2.6 -38.55 -3.7 -33.75 -4.25 -32.6 L-2.95 -31.4 -2.75 -31.3 -2.3 -31.3 -1.75 -30.9 -1.45 -31.0 Q-0.15 -31.35 0.15 -30.15 L0.15 -29.9 M42.7 28.4 L42.65 28.5 42.7 28.5 43.05 28.3 42.7 28.4 M27.6 16.6 L27.2 17.9 27.25 18.6 27.35 21.2 28.05 23.05 28.15 23.15 28.85 24.1 29.0 24.45 29.4 24.65 29.55 24.75 30.25 23.95 30.7 22.45 30.55 20.35 Q30.15 18.85 29.45 17.85 28.65 16.6 27.6 16.6 M-4.9 -8.85 L-4.95 -8.85 Q-4.85 -8.75 -4.75 -8.75 L-4.9 -8.85 M28.85 25.0 L28.7 25.05 28.9 25.0 28.85 25.0 M-10.2 10.85 L-10.3 10.75 -10.35 10.75 -10.2 10.85" fill="#ffffff" fill-rule="evenodd" stroke="none"/>
  </g>
</svg>
