<?xml version="1.0" encoding="UTF-8" standalone="no"?>
<svg xmlns:ffdec="https://www.free-decompiler.com/flash" xmlns:xlink="http://www.w3.org/1999/xlink" ffdec:objectType="shape" height="65.6px" width="83.0px" xmlns="http://www.w3.org/2000/svg">
  <g transform="matrix(1.0, 0.0, 0.0, 1.0, 43.95, 33.3)">
    <path d="M31.7 1.3 L31.4 1.5 31.3 1.6 30.6 1.9 30.3 1.85 30.3 1.8 30.65 0.6 30.85 0.85 31.7 1.3 M11.05 2.75 L8.1 2.95 8.0 3.0 8.0 2.95 8.05 2.95 5.05 3.1 4.0 1.2 7.05 0.9 7.1 0.8 9.9 0.4 12.9 0.15 12.9 0.35 12.65 1.2 12.0 2.55 11.0 2.55 11.05 2.75 M-28.2 6.2 L-27.6 5.15 -27.4 5.35 -24.1 6.4 -25.15 8.4 -25.35 7.85 Q-27.0 6.7 -28.2 6.2 M-36.15 -9.25 L-32.8 -11.7 -29.6 -12.05 -29.45 -12.0 -29.5 -12.05 -29.3 -11.9 -26.7 -10.7 -26.35 -9.8 -26.25 -6.9 -26.3 -6.25 -26.6 -5.4 -30.1 -9.5 -30.7 -9.6 -31.05 -9.5 Q-33.95 -9.4 -37.25 -8.3 L-36.15 -9.25 M24.9 -0.65 L24.85 -0.15 24.25 1.85 24.15 2.05 23.25 1.95 22.95 2.0 22.8 2.15 18.6 2.4 19.0 -0.3 19.0 -0.35 21.15 -0.5 24.25 -0.65 24.9 -0.65 M31.4 1.5 L31.4 1.45 31.4 1.5 M7.7 2.65 L7.85 2.8 7.85 2.75 7.9 2.7 7.7 2.65" fill="#e7d552" fill-rule="evenodd" stroke="none"/>
    <path d="M4.6 -26.5 Q7.4 -24.55 7.4 -23.45 L7.3 -23.0 7.6 -22.5 7.25 -21.9 Q6.85 -21.65 6.05 -21.45 L5.0 -21.2 0.65 -20.45 2.85 -19.25 Q4.3 -18.55 4.3 -17.95 4.3 -17.35 3.65 -16.9 L1.95 -16.1 -1.35 -14.35 Q-0.5 -14.2 1.3 -12.9 3.15 -11.5 3.15 -10.8 3.15 -10.05 2.2 -9.85 L0.95 -9.75 -0.4 -9.35 0.85 -8.35 Q1.5 -7.7 1.7 -7.7 L3.15 -7.8 8.15 -8.55 Q8.6 -8.6 9.65 -9.8 10.6 -10.95 11.7 -10.95 L11.9 -10.95 14.1 -10.8 16.75 -10.65 18.9 -10.4 19.6 -9.8 Q20.0 -9.3 20.25 -9.3 L21.9 -9.5 22.5 -10.0 Q24.0 -11.1 25.35 -11.1 L29.6 -11.35 Q31.75 -11.3 32.15 -9.8 L35.0 -9.5 Q36.95 -9.15 37.25 -8.55 L37.7 -7.45 38.25 -6.2 38.8 -4.15 39.05 -1.8 38.85 0.15 Q38.85 1.55 37.5 3.1 36.05 4.8 34.0 4.95 34.7 5.35 34.85 6.1 L35.1 7.85 Q35.4 8.55 35.35 9.45 L35.25 11.0 35.7 17.3 36.15 22.35 Q36.15 24.55 32.25 24.35 L26.35 25.1 Q25.45 25.1 24.9 24.45 L24.8 24.5 24.25 19.05 Q24.25 17.65 23.75 15.65 L23.8 15.25 25.25 14.75 25.35 14.7 25.45 14.7 25.5 14.6 25.75 14.25 25.75 14.15 25.65 13.55 25.1 13.2 19.9 13.7 19.4 13.8 19.35 13.85 19.35 15.4 19.4 15.45 21.25 15.45 Q22.4 15.5 22.4 16.25 L22.3 17.6 22.55 20.3 22.75 22.85 22.9 24.6 22.95 24.85 22.25 25.05 22.05 25.05 21.5 25.2 18.5 25.25 12.3 26.0 Q11.3 26.0 10.25 25.0 9.3 24.15 9.3 23.7 L9.15 22.45 9.15 22.35 8.5 23.2 Q7.3 24.55 3.95 26.6 2.2 27.75 -0.05 30.0 -1.2 30.9 -1.85 31.85 L-5.3 32.3 -5.35 32.3 -8.65 32.1 -8.8 32.1 -9.35 32.25 Q-10.05 32.25 -13.65 31.05 L-19.35 28.95 -23.55 27.45 Q-27.0 26.1 -27.0 25.1 -27.0 23.55 -21.25 20.6 L-20.8 20.25 -17.1 17.7 -15.65 16.6 -20.95 18.6 Q-22.3 18.6 -23.65 16.75 L-26.3 18.3 -30.4 20.4 Q-31.65 20.4 -35.05 17.5 L-38.75 13.95 Q-43.85 8.0 -43.85 7.4 -43.85 6.1 -42.65 5.9 L-39.0 5.85 Q-33.5 5.85 -32.55 5.05 -32.1 4.65 -32.1 1.55 L-31.8 0.05 -32.55 -1.65 -33.35 -3.6 -34.7 -3.65 Q-37.2 -3.65 -42.75 -2.15 -43.3 -2.15 -43.65 -2.55 L-43.95 -3.45 -43.75 -4.15 -43.95 -4.8 Q-43.95 -5.55 -38.75 -11.55 -33.4 -17.7 -32.15 -17.7 -31.5 -17.7 -29.15 -16.4 -26.85 -15.15 -26.3 -15.15 L-25.35 -15.75 Q-24.45 -16.35 -24.0 -16.35 L-20.45 -16.2 -16.2 -15.6 -15.9 -15.5 -19.25 -17.7 Q-21.2 -18.85 -23.1 -19.35 -23.95 -19.6 -26.45 -21.1 -29.4 -22.9 -29.4 -23.75 L-29.15 -24.6 -29.15 -24.75 Q-29.15 -25.65 -25.65 -27.7 L-21.45 -29.85 -16.4 -31.95 Q-13.0 -33.2 -10.2 -33.3 -5.25 -32.45 -2.9 -31.25 L1.05 -28.65 4.6 -26.5 M-24.1 -24.3 L-24.25 -24.2 -21.4 -22.7 -13.15 -18.45 -12.6 -17.95 -12.4 -17.8 -12.3 -17.65 -11.55 -16.1 -9.7 -10.5 -9.75 -10.5 -9.65 -10.3 -9.75 -10.25 -9.7 -10.0 -9.6 -9.75 -7.0 -9.15 -7.05 -9.25 -6.75 -9.7 -6.7 -9.85 -6.55 -9.9 -6.5 -10.15 -6.6 -10.15 -5.85 -11.35 -3.7 -11.85 -1.85 -12.0 -1.7 -11.95 -1.5 -11.95 -1.4 -12.05 -2.8 -12.8 -2.95 -12.8 -4.4 -13.35 -7.0 -13.8 -7.0 -13.9 -4.8 -16.65 -3.75 -17.25 -3.25 -17.4 -2.95 -17.5 -1.1 -17.9 -1.15 -18.05 -2.0 -18.4 Q-2.35 -18.95 -7.2 -20.55 L-7.45 -21.05 -7.65 -22.0 -3.1 -23.3 -2.85 -23.35 -2.6 -23.35 0.6 -23.5 0.75 -23.6 1.9 -23.65 -0.3 -24.85 Q-1.85 -25.7 -2.7 -25.85 L-3.2 -26.15 Q-6.5 -27.85 -8.9 -28.8 L-16.0 -27.35 Q-20.85 -26.05 -24.1 -24.3 M5.45 -4.25 L1.15 -4.05 1.0 -3.9 0.4 -3.7 0.2 -3.6 -0.35 -3.4 -1.7 -3.45 -1.75 -3.5 -1.85 -3.5 -2.0 -3.45 -2.2 -3.45 -2.65 -3.6 -2.65 -3.5 -2.7 -3.4 -5.05 -4.9 -5.0 -5.05 -4.2 -4.85 -0.5 -5.2 -0.55 -5.25 -4.4 -7.75 -4.45 -7.7 -4.55 -7.75 -4.65 -7.9 -4.7 -7.9 -5.0 -8.0 -5.05 -7.95 -7.2 -8.35 -8.25 -8.45 -8.25 -8.5 Q-8.4 -8.7 -9.7 -8.9 L-9.8 -9.05 -9.85 -9.0 -9.95 -9.0 -11.75 -9.25 -11.8 -9.15 -11.75 -9.1 -11.85 -9.05 -11.85 -9.0 -11.95 -9.0 -11.95 -8.95 -12.4 -9.1 -12.4 -9.15 -12.45 -9.1 -13.95 -11.35 -21.7 -12.6 -25.7 -10.7 -25.85 -10.65 -26.05 -10.7 -26.05 -10.65 -26.5 -10.6 -26.5 -10.65 -26.7 -10.7 -29.3 -11.9 -29.5 -12.05 -29.6 -12.05 -32.8 -11.7 -36.15 -9.25 -37.75 -8.2 -37.85 -8.05 -38.85 -7.0 -38.95 -6.8 -39.15 -6.55 -39.05 -6.5 -38.8 -6.5 -35.3 -7.2 -31.85 -7.4 -31.0 -7.05 -28.4 -3.3 -28.1 -3.0 -28.1 -1.6 -28.2 1.4 -28.2 4.65 -27.6 5.15 -28.2 6.2 -29.8 9.1 -29.85 9.1 -30.6 9.6 -34.05 9.8 -37.6 9.55 -37.9 9.55 -37.9 9.65 -37.75 9.85 Q-36.9 10.9 -36.4 10.95 L-36.3 11.1 -34.7 11.95 Q-32.85 13.0 -31.0 14.0 L-27.8 13.95 -27.75 13.95 -26.2 12.95 -26.0 12.9 -24.95 12.2 -24.35 12.15 -24.15 12.15 -24.1 12.2 -24.05 12.2 -24.05 12.25 -21.75 13.9 -20.25 13.6 -14.8 11.95 -11.35 10.4 -10.8 9.75 -10.75 9.7 Q-10.6 9.0 -10.0 8.55 L-9.8 8.45 -9.8 8.5 -8.9 7.95 -8.25 7.75 -8.2 7.75 -7.7 7.65 -7.3 7.75 -7.25 7.7 -7.2 7.75 -6.4 7.75 -5.75 7.75 -5.15 7.7 -4.85 7.5 -4.05 7.25 -4.0 7.2 -3.35 6.95 -3.25 6.95 -1.3 5.75 -1.2 5.65 -0.1 4.65 -4.6 4.4 -4.8 4.35 -4.9 4.35 -4.85 4.25 -4.8 4.15 Q-4.15 3.7 -2.75 3.5 L-2.45 3.15 -1.9 3.0 -1.7 3.0 -1.5 2.9 -1.45 2.9 -1.1 2.8 -1.0 2.8 -0.5 2.75 -0.2 2.75 0.9 2.55 0.95 2.55 Q1.8 2.65 1.9 3.3 L5.05 3.1 8.05 2.95 8.0 2.95 8.0 3.0 8.1 2.95 11.05 2.75 11.85 3.95 12.1 3.9 13.0 4.1 13.35 4.05 15.6 3.95 15.6 4.1 15.65 4.1 17.8 4.0 17.9 5.85 18.05 8.25 18.1 8.8 13.6 9.1 13.3 9.15 12.3 9.45 13.0 21.7 19.7 21.3 20.55 21.25 20.6 20.6 20.4 17.1 19.55 17.2 19.35 17.2 17.8 17.3 17.8 17.25 17.4 11.85 17.45 11.8 28.2 11.15 28.5 15.35 28.55 16.65 25.6 16.85 26.05 20.9 32.65 20.5 32.35 15.0 32.35 14.9 31.95 8.0 26.2 8.25 26.1 6.9 26.0 5.35 25.9 3.45 27.8 3.3 28.5 3.35 29.4 3.05 29.65 3.1 30.3 1.85 30.6 1.9 31.3 1.6 31.4 1.5 31.7 1.3 31.8 1.3 32.4 1.2 32.95 1.3 33.1 1.35 33.35 1.5 33.5 1.5 Q34.1 1.5 34.8 0.25 35.4 -0.85 35.4 -1.25 L35.05 -2.5 Q35.05 -3.25 34.55 -3.6 L34.55 -3.65 Q34.55 -5.2 33.9 -5.45 L33.45 -5.7 33.3 -5.7 33.1 -5.85 33.05 -5.9 32.55 -5.85 32.5 -5.65 31.1 -5.15 30.6 -5.15 30.55 -5.15 30.4 -5.5 Q30.1 -6.35 29.65 -6.6 L28.7 -6.85 27.7 -6.85 27.65 -6.75 25.2 -6.95 23.9 -6.85 23.5 -6.8 23.35 -6.75 23.25 -6.65 23.05 -6.2 23.0 -6.15 22.3 -5.1 23.35 -5.2 23.5 -5.1 23.7 -4.95 18.4 -4.8 18.35 -4.95 17.2 -6.1 15.05 -6.25 14.85 -6.15 14.75 -6.25 14.0 -6.25 13.7 -6.4 13.55 -6.3 13.45 -6.3 13.2 -6.4 12.7 -6.35 12.3 -6.3 12.15 -6.0 12.05 -5.85 11.75 -5.35 11.8 -5.25 11.7 -5.1 11.5 -5.0 11.55 -5.0 11.15 -4.7 11.0 -4.55 11.35 -4.55 11.6 -4.4 10.9 -4.4 10.55 -4.5 10.1 -4.4 10.05 -4.4 9.0 -4.15 Q8.5 -4.15 8.3 -4.5 L7.95 -4.35 5.45 -4.25 M9.4 -4.5 L9.45 -4.5 9.4 -4.55 9.4 -4.5 M3.9 8.85 Q5.1 9.4 5.1 10.2 5.1 11.65 3.15 12.75 L3.0 12.75 Q5.8 12.9 6.75 13.7 7.25 14.1 7.25 14.95 7.25 15.95 5.7 17.9 L5.55 18.0 7.2 17.9 9.05 18.2 9.0 12.15 8.3 8.45 Q8.3 7.4 8.75 6.7 L3.4 6.95 1.95 7.8 3.9 8.85 M-1.5 12.1 L0.2 10.95 0.45 10.9 0.2 10.9 0.0 10.75 0.0 10.85 -0.2 10.8 -0.25 10.85 -0.35 10.8 -1.55 10.7 -2.05 10.75 -2.1 10.75 -4.7 10.15 -4.8 10.2 -5.2 9.45 -5.15 9.05 -5.2 9.0 -5.6 8.75 -6.1 8.75 -7.85 9.0 -8.1 9.0 -9.15 9.4 -9.4 9.7 -9.6 9.9 -9.45 10.0 -9.45 10.1 -9.4 10.25 -9.6 14.5 -9.95 17.65 -11.8 19.65 -15.1 22.35 -15.75 22.8 -20.95 25.45 -20.8 25.6 -15.7 27.1 -5.15 28.2 5.35 21.6 5.35 21.55 4.95 21.5 4.7 21.55 2.9 22.05 2.75 22.05 2.65 22.05 0.15 21.9 -4.75 21.35 -4.75 21.15 -4.45 19.9 -4.3 19.9 -2.15 18.95 1.5 16.85 1.6 16.7 1.55 16.55 1.7 16.45 1.2 16.4 0.2 16.2 -0.65 15.9 -3.0 15.35 -3.6 15.1 -4.6 14.65 -4.85 13.9 -4.9 13.8 -1.5 12.1 M-12.2 -9.4 L-12.15 -9.4 -12.15 -9.45 -12.2 -9.4" fill="#28160e" fill-rule="evenodd" stroke="none"/>
    <path d="M0.6 -23.5 L0.65 -23.55 0.75 -23.6 0.6 -23.5 M-1.2 5.65 L-1.3 5.75 -1.2 5.6 -1.2 5.65 M-27.75 13.95 L-27.8 13.95 -27.75 13.9 -27.75 13.95 M-29.6 -12.05 L-29.5 -12.05 -29.45 -12.0 -29.6 -12.05 M-5.0 -5.05 L-5.05 -4.9 -5.1 -4.95 -5.0 -5.05 M-2.7 -3.4 L-2.65 -3.5 -2.5 -3.25 -2.7 -3.4 M9.4 -4.5 L9.4 -4.55 9.45 -4.5 9.4 -4.5 M25.2 3.45 L25.3 3.4 25.35 3.45 25.2 3.45 M23.75 3.55 L23.75 3.5 23.85 3.5 23.75 3.55 M-4.3 19.9 L-4.45 19.9 -4.45 19.85 -4.3 19.9 M2.65 22.05 L2.75 22.05 2.7 22.1 2.65 22.05 M-16.05 -2.8 L-17.45 -3.75 -18.75 -5.1 -21.3 -8.9 -21.55 -10.0 -21.4 -10.15 -21.1 -10.15 -19.15 -10.05 -19.05 -10.05 -18.05 -9.85 -17.55 -9.65 -18.25 -9.45 -18.3 -9.05 -18.25 -7.7 -17.9 -5.9 -17.5 -5.05 -16.05 -2.8 M-7.0 -13.9 L-7.0 -13.8 -7.05 -13.8 -7.0 -13.9 M-20.05 10.2 L-20.05 9.9 -20.0 9.8 -19.65 8.9 -19.0 7.8 -18.85 7.3 -18.6 6.8 -16.85 4.2 -15.7 3.35 -16.9 7.95 -16.85 8.6 -16.5 9.35 -16.3 9.55 -17.25 9.85 -20.05 10.2 M-9.4 9.7 L-9.3 9.6 -9.25 9.65 -9.4 9.7" fill="#000000" fill-rule="evenodd" stroke="none"/>
    <path d="M-24.1 -24.3 L-14.55 -24.85 -2.65 -24.3 -2.45 -24.15 -0.6 -23.8 -0.8 -23.75 0.25 -23.65 0.6 -23.5 -2.6 -23.35 Q-6.8 -23.8 -12.6 -23.55 L-21.4 -22.7 -24.25 -24.2 -24.1 -24.3 M10.05 -4.4 L10.1 -4.4 10.55 -4.5 10.9 -4.4 10.05 -4.35 10.05 -4.4 M11.6 -4.4 L11.35 -4.55 11.0 -4.55 11.15 -4.7 11.55 -5.0 11.5 -5.0 11.7 -5.1 11.8 -5.25 11.75 -5.35 12.05 -5.85 12.15 -5.75 13.25 -4.9 14.1 -3.95 14.3 -3.65 14.45 -3.4 14.45 -3.1 14.6 0.5 12.7 3.15 12.4 3.2 13.35 4.05 13.0 4.1 12.1 3.9 11.85 3.95 11.05 2.75 11.0 2.55 12.0 2.55 12.65 1.2 12.9 0.35 12.9 0.15 12.85 -1.75 Q12.65 -3.7 11.6 -4.4 M15.05 -6.25 L17.2 -6.1 18.35 -4.95 18.4 -4.8 18.85 -3.2 19.0 -0.35 19.0 -0.3 18.6 2.4 22.8 2.15 22.95 2.0 23.25 1.95 24.15 2.05 24.25 1.85 24.85 -0.15 24.9 -0.65 24.95 -1.4 24.85 -1.8 Q24.7 -3.9 23.7 -4.95 L23.5 -5.1 23.35 -5.2 22.3 -5.1 23.0 -6.15 23.05 -6.2 23.25 -6.65 23.35 -6.65 25.35 -5.5 25.75 -5.0 25.95 -4.55 26.15 -4.35 26.1 -4.2 26.4 -1.6 26.45 -0.3 25.7 2.05 25.6 2.2 25.4 2.4 25.35 2.5 25.15 2.65 24.45 3.2 25.2 3.4 25.2 3.45 25.35 3.45 25.9 3.45 26.0 5.35 17.9 5.85 17.8 4.0 15.65 4.1 17.2 2.05 17.3 0.15 17.35 -0.3 17.0 -3.6 15.7 -5.65 15.05 -6.25 M27.65 -6.75 L27.7 -6.85 28.7 -6.85 29.65 -6.6 Q30.1 -6.35 30.4 -5.5 L30.55 -5.15 31.0 -2.5 30.85 -0.7 30.8 -0.55 30.7 0.3 30.65 0.6 30.3 1.8 30.3 1.85 29.65 3.1 29.4 3.05 28.5 3.35 27.8 3.3 29.45 1.1 29.6 1.0 29.65 -1.55 29.15 -5.55 27.65 -6.75 M17.4 11.85 L17.8 17.25 17.8 17.3 16.7 17.45 16.7 17.4 16.35 11.95 17.4 11.85 M19.35 17.2 L19.55 17.2 20.4 17.1 20.6 20.6 20.55 21.25 19.7 21.3 19.35 17.2 M-2.45 3.15 L-2.75 3.5 Q-4.15 3.7 -4.8 4.15 L-4.85 4.25 -5.0 4.3 -5.15 4.3 -5.0 4.15 Q-4.75 4.35 -5.1 3.85 L-5.1 3.8 -5.75 3.7 -5.8 3.75 -5.85 3.7 -6.1 3.65 -7.9 4.75 -8.0 4.75 -6.45 3.7 -6.25 3.6 -6.05 3.55 -5.6 3.25 -5.8 3.45 -5.8 3.5 -5.0 2.85 -4.4 2.05 Q-3.65 1.25 -3.45 0.65 L-3.35 0.05 -3.35 -0.3 -3.65 -1.55 -4.45 -3.25 -4.5 -3.3 -4.65 -3.4 -6.5 -4.45 -6.6 -4.4 -6.45 -4.5 -6.4 -4.6 -6.65 -4.95 -6.55 -5.0 -5.8 -4.95 -5.25 -4.9 -5.1 -4.95 -5.05 -4.9 -2.7 -3.4 -2.5 -3.25 -2.45 -3.05 -2.1 -2.55 -1.3 -0.9 -1.2 -0.4 -1.2 -0.15 -1.55 0.85 -2.95 3.25 -2.65 3.1 -2.45 3.15 M-8.9 7.95 L-9.8 8.5 -9.8 8.45 -10.0 8.55 Q-10.6 9.0 -10.75 9.7 L-10.8 9.75 -10.8 9.6 -10.1 7.75 -10.05 7.65 -9.85 7.4 -9.25 6.95 -9.25 7.0 -9.25 7.2 -9.2 7.3 -9.1 7.35 -8.5 7.65 -8.55 7.7 -8.9 7.95 M-4.7 -7.9 L-4.65 -7.9 -4.55 -7.75 -4.75 -7.85 -4.7 -7.9 M23.75 3.55 L23.85 3.5 23.75 3.5 23.75 3.55 M0.15 21.9 L2.65 22.05 0.9 22.7 0.9 22.85 0.7 22.85 -3.8 24.05 -11.15 25.1 -11.2 25.05 -20.8 25.6 -20.95 25.45 -15.75 22.8 -7.7 23.35 0.15 21.9 M-9.4 10.25 L-9.45 10.1 -9.45 10.0 -9.6 9.9 -9.4 9.7 -9.15 9.4 -8.1 9.0 -7.85 9.0 -5.6 8.75 -5.2 9.0 -5.15 9.05 -5.2 9.45 -5.3 9.8 -5.4 9.7 -6.4 9.8 -7.45 9.95 -9.4 10.25 M-6.5 0.7 L-6.4 0.65 -5.95 0.6 -6.15 0.95 -6.1 1.0 -6.45 1.55 -6.75 2.5 -7.05 2.4 -7.25 2.3 -7.15 2.2 -7.7 1.75 -7.8 1.8 -7.75 1.7 -7.75 1.6 -7.3 1.15 -6.5 0.7 M-6.6 -10.15 L-6.5 -10.15 -6.55 -9.9 -6.7 -9.85 -6.75 -9.7 -7.05 -9.25 -7.0 -9.15 -9.6 -9.75 -9.7 -10.0 -9.75 -10.25 -9.65 -10.3 -9.75 -10.5 -9.7 -10.5 -7.95 -10.4 -6.6 -10.15 M-8.1 -2.65 L-7.85 -2.75 -7.9 -2.75 Q-7.3 -3.45 -7.0 -3.4 L-6.65 -3.15 -6.65 -3.1 -6.25 -2.05 -5.95 -1.6 -5.8 -1.55 -6.95 -1.7 -7.75 -2.3 -7.8 -2.35 -8.1 -2.55 -8.1 -2.65 M-8.4 6.1 L-8.4 6.0 -8.3 5.95 -8.15 5.9 -8.4 6.1 M-9.4 9.7 L-9.25 9.65 -9.3 9.6 -9.4 9.7" fill="#3c1b53" fill-rule="evenodd" stroke="none"/>
    <path d="M0.6 -23.5 L0.25 -23.65 -0.8 -23.75 -0.6 -23.8 -2.45 -24.15 -2.65 -24.3 -14.55 -24.85 -24.1 -24.3 Q-20.85 -26.05 -16.0 -27.35 L-8.9 -28.8 Q-6.5 -27.85 -3.2 -26.15 L-2.7 -25.85 Q-1.85 -25.7 -0.3 -24.85 L1.9 -23.65 0.75 -23.6 0.65 -23.55 0.6 -23.5 M12.05 -5.85 L12.15 -6.0 12.3 -6.3 12.7 -6.35 13.2 -6.4 13.45 -6.3 13.55 -6.3 13.7 -6.4 14.0 -6.25 14.75 -6.25 14.85 -6.15 15.05 -6.25 15.7 -5.65 17.0 -3.6 17.35 -0.3 17.3 0.15 16.7 -0.55 16.7 -0.8 16.45 -1.2 16.35 -1.25 14.45 -3.1 14.45 -3.4 14.3 -3.65 14.1 -3.95 13.25 -4.9 12.15 -5.75 12.05 -5.85 M23.25 -6.65 L23.35 -6.75 23.5 -6.8 23.9 -6.85 25.2 -6.95 27.65 -6.75 29.15 -5.55 29.65 -1.55 29.6 1.0 29.45 1.1 29.0 0.55 27.7 -0.6 27.35 -0.7 26.4 -1.6 26.1 -4.2 26.15 -4.35 25.95 -4.55 25.75 -5.0 25.35 -5.5 23.35 -6.65 23.25 -6.65 M32.35 14.9 L32.35 15.0 32.65 20.5 26.05 20.9 25.6 16.85 28.55 16.65 28.5 15.35 32.35 14.9 M17.8 17.3 L19.35 17.2 19.7 21.3 13.0 21.7 12.3 9.45 13.3 9.15 13.8 17.85 16.7 17.4 16.7 17.45 17.8 17.3 M-28.2 1.4 L-28.1 -1.6 -25.05 -5.6 -25.9 -10.4 -26.05 -10.65 -26.05 -10.7 -25.85 -10.65 -25.7 -10.7 -21.7 -12.6 -13.95 -11.35 -12.45 -9.1 -12.3 -8.9 -12.15 -9.0 -11.75 -7.55 -11.7 -7.5 -11.55 -7.25 -11.45 -7.3 -11.3 -7.15 -10.25 -6.4 -10.15 -6.2 -7.7 -4.8 -7.65 -4.8 -6.6 -4.4 -6.5 -4.45 -4.65 -3.4 -4.5 -3.3 -4.45 -3.25 -3.65 -1.55 -3.35 -0.3 -3.35 0.05 -3.45 0.65 Q-3.65 1.25 -4.4 2.05 L-5.0 2.85 -5.8 3.5 -5.8 3.45 -5.6 3.25 -6.05 3.55 -6.25 3.6 -6.45 3.7 -6.6 3.55 -6.6 3.4 -6.45 3.25 -6.5 3.15 -6.35 2.95 -6.4 2.8 Q-5.7 2.25 -5.55 1.45 L-5.65 0.45 -5.7 0.5 -5.85 0.5 -6.15 0.6 -6.4 0.65 -6.5 0.7 -7.0 0.65 -7.7 0.5 -11.45 -1.15 -12.1 -1.65 -12.5 -2.45 -12.9 -2.45 -13.9 -2.05 -14.1 -1.9 -14.3 -1.85 -14.5 -1.95 -14.65 -1.95 -14.85 -2.1 -13.3 -3.2 -13.9 -5.25 -14.1 -6.95 Q-14.35 -8.65 -14.9 -9.5 -15.3 -10.15 -18.25 -10.05 L-19.05 -10.05 -19.15 -10.05 -21.1 -10.15 -21.4 -10.15 -21.55 -10.0 -21.3 -8.9 -18.75 -5.1 -17.45 -3.75 -16.05 -2.8 -15.8 -2.65 -15.5 -2.4 -15.1 -2.2 -15.4 -2.05 -17.4 -0.25 -21.75 -0.5 -26.2 -0.7 Q-27.55 0.25 -28.2 1.4 M-11.95 -8.95 L-11.95 -9.0 -11.85 -9.0 -11.9 -8.8 -11.95 -8.95 M-21.45 -2.1 L-21.15 -1.5 -19.35 -1.3 -18.95 -1.3 -18.8 -1.4 -18.55 -1.35 -18.4 -1.35 -17.95 -1.5 -18.8 -2.3 -18.9 -2.35 -19.9 -3.55 -21.2 -5.6 -21.6 -6.05 -21.7 -4.35 -21.45 -2.1 M-8.1 -2.55 L-8.05 -2.3 -8.0 -2.15 -7.75 -1.95 -6.9 -1.5 -5.75 -1.3 -5.75 -1.6 -5.65 -1.65 -5.75 -1.7 -5.55 -1.8 -6.15 -3.3 -6.65 -3.65 -6.7 -3.6 -8.05 -3.0 -8.1 -2.85 -8.05 -2.75 -8.1 -2.65 -8.1 -2.55 M-18.75 10.95 L-18.8 10.95 -20.0 11.1 -20.05 11.05 -20.05 10.2 -17.25 9.85 -16.3 9.55 -14.45 8.6 -14.9 9.25 -15.65 9.85 -17.8 10.75 -18.75 10.95" fill="#cc98ff" fill-rule="evenodd" stroke="none"/>
    <path d="M-1.7 -3.45 L-0.35 -3.4 0.2 -3.6 0.4 -3.7 1.0 -3.9 1.15 -4.05 5.45 -4.25 3.35 -2.65 3.85 0.9 3.8 1.2 4.0 1.2 5.05 3.1 1.9 3.3 Q1.8 2.65 0.95 2.55 L0.9 2.55 -0.2 2.75 -0.5 2.75 -1.0 2.8 -1.1 2.8 -1.45 2.9 -1.5 2.9 -1.7 3.0 -1.65 2.9 -0.8 1.45 -0.8 1.3 0.0 -0.1 -0.35 -1.3 -1.7 -3.45 M33.05 -5.9 L33.1 -5.85 33.3 -5.7 32.65 -5.65 33.05 -5.9 M-24.15 12.15 L-24.35 12.15 -24.95 12.2 -26.0 12.9 -26.2 12.95 -27.75 13.95 -27.75 13.9 -27.8 13.95 -31.0 14.0 Q-32.85 13.0 -34.7 11.95 L-34.85 11.75 -35.85 11.15 -31.3 11.7 -29.2 11.65 -28.05 11.25 -26.8 10.3 -26.4 9.9 -26.2 9.8 -26.0 9.75 -25.6 9.4 -25.2 8.7 -25.05 8.9 -24.15 12.15 M-28.1 -1.6 L-28.1 -3.0 -28.4 -3.3 -26.6 -5.4 -26.3 -6.25 -26.25 -6.9 -26.35 -9.8 -26.7 -10.7 -26.5 -10.65 -26.5 -10.6 -26.05 -10.65 -25.9 -10.4 -25.05 -5.6 -28.1 -1.6 M31.4 1.5 L31.4 1.45 31.4 1.5" fill="#865400" fill-rule="evenodd" stroke="none"/>
    <path d="M5.45 -4.25 L7.95 -4.35 8.3 -4.5 Q8.5 -4.15 9.0 -4.15 L10.05 -4.4 10.05 -4.35 10.9 -4.4 11.6 -4.4 Q12.65 -3.7 12.85 -1.75 L12.9 0.15 9.9 0.4 7.1 0.8 7.05 0.9 4.0 1.2 3.8 1.2 3.85 0.9 3.35 -2.65 5.45 -4.25 M18.4 -4.8 L23.7 -4.95 Q24.7 -3.9 24.85 -1.8 L24.95 -1.4 24.9 -0.65 24.25 -0.65 21.15 -0.5 19.0 -0.35 18.85 -3.2 18.4 -4.8 M30.55 -5.15 L30.6 -5.15 31.1 -5.15 32.5 -5.65 32.55 -5.85 33.05 -5.9 32.65 -5.65 33.3 -5.7 33.45 -5.7 33.9 -5.45 Q34.55 -5.2 34.55 -3.65 L34.55 -3.6 Q35.05 -3.25 35.05 -2.5 L35.4 -1.25 Q35.4 -0.85 34.8 0.25 34.1 1.5 33.5 1.5 L33.35 1.5 33.1 1.35 32.95 1.3 32.4 1.2 31.8 1.3 31.7 1.3 30.85 0.85 30.65 0.6 30.7 0.3 30.8 -0.55 30.85 -0.7 31.0 -2.5 30.55 -5.15 M-24.1 12.2 L-24.15 12.15 -25.05 8.9 -25.2 8.7 -25.6 9.4 -26.0 9.75 -26.2 9.8 -26.4 9.9 -26.8 10.3 -28.05 11.25 -29.2 11.65 -31.3 11.7 -35.85 11.15 -34.85 11.75 -34.7 11.95 -36.3 11.1 -36.4 10.95 Q-36.9 10.9 -37.75 9.85 L-37.9 9.65 -37.9 9.55 -37.6 9.55 -34.05 9.8 -30.6 9.6 -29.85 9.1 -29.8 9.1 -28.2 6.2 Q-27.0 6.7 -25.35 7.85 L-25.15 8.4 -24.1 6.4 Q-23.85 7.6 -24.05 11.1 L-24.05 11.25 -24.1 11.5 -24.1 12.2 M-28.4 -3.3 L-31.0 -7.05 -31.85 -7.4 -35.3 -7.2 -38.8 -6.5 -39.05 -6.5 -39.15 -6.55 -38.95 -6.8 -38.85 -7.0 -37.85 -8.05 -37.75 -8.2 -36.15 -9.25 -37.25 -8.3 Q-33.95 -9.4 -31.05 -9.5 L-30.7 -9.6 -30.1 -9.5 -26.6 -5.4 -28.4 -3.3 M7.7 2.65 L7.9 2.7 7.85 2.75 7.85 2.8 7.7 2.65" fill="#c6923c" fill-rule="evenodd" stroke="none"/>
    <path d="M27.8 3.3 L25.9 3.45 25.35 3.45 25.3 3.4 25.2 3.45 25.2 3.4 24.45 3.2 25.15 2.65 25.35 2.5 25.4 2.4 25.6 2.2 25.7 2.05 26.45 -0.3 26.4 -1.6 27.35 -0.7 27.7 -0.6 29.0 0.55 29.45 1.1 27.8 3.3 M26.1 6.9 L26.2 8.25 31.95 8.0 32.35 14.9 28.5 15.35 28.2 11.15 17.45 11.8 17.4 11.85 16.35 11.95 16.7 17.4 13.8 17.85 13.3 9.15 13.6 9.1 18.1 8.8 18.05 8.25 26.1 6.9 M15.65 4.1 L15.6 4.1 15.6 3.95 13.35 4.05 12.4 3.2 12.7 3.15 14.6 0.5 14.45 -3.1 16.35 -1.25 16.45 -1.2 16.7 -0.8 16.7 -0.55 17.3 0.15 17.2 2.05 15.65 4.1 M2.75 22.05 L2.9 22.05 4.7 21.55 4.95 21.5 5.35 21.55 5.35 21.6 -5.15 28.2 -15.7 27.1 -20.8 25.6 -11.2 25.05 -11.15 25.1 -3.8 24.05 0.7 22.85 0.9 22.85 0.9 22.7 2.65 22.05 2.7 22.1 2.75 22.05" fill="#a34feb" fill-rule="evenodd" stroke="none"/>
    <path d="M26.0 5.35 L26.1 6.9 18.05 8.25 17.9 5.85 26.0 5.35 M-8.25 7.75 L-8.9 7.95 -8.55 7.7 -8.25 7.75 M-10.8 9.75 L-11.35 10.4 -14.8 11.95 -20.25 13.6 -21.75 13.9 -24.05 12.25 -24.05 12.2 -24.1 12.2 -24.1 11.5 -24.05 11.25 -24.05 11.1 Q-23.85 7.6 -24.1 6.4 L-24.05 6.15 -24.05 6.05 -23.8 6.4 -21.15 7.25 -20.75 7.35 -19.6 7.65 -19.2 7.65 -19.0 7.8 -19.65 8.9 -20.0 9.8 -20.05 9.9 -20.05 10.2 -20.05 11.05 -20.0 11.1 -18.8 10.95 -18.75 10.95 -18.75 11.0 -17.35 11.1 Q-15.55 11.0 -14.35 10.4 L-13.45 9.75 Q-12.7 9.1 -12.45 8.35 L-12.25 8.05 -11.7 8.05 -10.45 7.0 -10.3 6.7 -10.2 6.2 -9.6 5.75 -9.6 5.8 -8.0 4.75 -7.9 4.75 -6.1 3.65 -5.85 3.7 -5.8 3.75 -5.75 3.7 -5.1 3.8 -5.1 3.85 Q-4.75 4.35 -5.0 4.15 L-5.15 4.3 -5.45 4.3 -5.65 4.35 -7.1 5.25 -7.05 5.3 -8.0 5.7 -8.3 5.95 -8.4 6.0 -8.4 6.1 -8.55 6.2 -9.25 7.0 -9.25 6.95 -9.85 7.4 -10.05 7.65 -10.1 7.75 -10.8 9.6 -10.8 9.75 M-12.45 -9.1 L-12.4 -9.15 -12.4 -9.1 -11.95 -8.95 -11.9 -8.8 -11.85 -9.0 -11.85 -9.05 -11.75 -9.1 -11.8 -9.15 -11.75 -9.25 -9.95 -9.0 -9.85 -9.0 -9.8 -9.05 -9.7 -8.9 Q-8.4 -8.7 -8.25 -8.5 L-8.25 -8.45 -8.15 -8.4 Q-8.65 -8.6 -8.7 -8.25 L-8.8 -8.25 -9.0 -7.85 -8.45 -6.95 -7.55 -5.8 -7.55 -5.6 -6.95 -5.2 -6.55 -5.0 -6.65 -4.95 -6.4 -4.6 -6.45 -4.5 -6.6 -4.4 -7.65 -4.8 -7.7 -4.8 -10.15 -6.2 -10.25 -6.4 -11.3 -7.15 -11.45 -7.3 -11.55 -7.25 -11.7 -7.5 -11.75 -7.55 -12.15 -9.0 -12.3 -8.9 -12.45 -9.1 M-1.5 12.1 L-4.9 13.8 -4.85 13.9 -4.6 14.65 -3.6 15.1 -3.0 15.35 -0.65 15.9 0.2 16.2 1.2 16.4 1.7 16.45 1.55 16.55 1.6 16.7 1.5 16.85 -2.15 18.95 -4.3 19.9 -4.45 19.85 -4.45 19.9 -4.75 21.15 -4.75 21.35 0.15 21.9 -7.7 23.35 -15.75 22.8 -15.1 22.35 -11.8 19.65 -9.95 17.65 -9.6 14.5 Q-5.45 13.05 -1.5 12.1 M-7.85 9.0 L-6.1 8.75 -5.6 8.75 -7.85 9.0 M-6.4 0.65 L-6.15 0.6 -5.85 0.5 -5.7 0.5 -5.65 0.45 -5.55 1.45 Q-5.7 2.25 -6.4 2.8 L-6.6 2.9 -7.45 2.6 -7.95 1.9 -7.85 1.85 -7.75 1.7 -7.8 1.8 -7.7 1.75 -7.15 2.2 -7.25 2.3 -7.05 2.4 -6.75 2.5 -6.45 1.55 -6.1 1.0 -6.15 0.95 -5.95 0.6 -6.4 0.65 M-12.2 -9.4 L-12.15 -9.45 -12.15 -9.4 -12.2 -9.4 M-8.1 -2.65 L-8.05 -2.75 -8.1 -2.85 -8.05 -3.0 -6.7 -3.6 -6.65 -3.65 -6.15 -3.3 -5.55 -1.8 -5.75 -1.7 -5.65 -1.65 -5.75 -1.6 -5.75 -1.3 -6.9 -1.5 -7.75 -1.95 -8.0 -2.15 -8.05 -2.3 -8.1 -2.55 -7.8 -2.35 -7.75 -2.3 -6.95 -1.7 -5.8 -1.55 -5.95 -1.6 -6.25 -2.05 -6.65 -3.1 -6.65 -3.15 -7.0 -3.4 Q-7.3 -3.45 -7.9 -2.75 L-7.85 -2.75 -8.1 -2.65 M-9.25 7.2 L-9.1 7.35 -9.2 7.3 -9.25 7.2 M-5.65 4.85 L-5.75 4.85 -5.6 4.8 -5.65 4.85" fill="#7d20cd" fill-rule="evenodd" stroke="none"/>
    <path d="M-21.4 -22.7 L-12.6 -23.55 Q-6.8 -23.8 -2.6 -23.35 L-2.85 -23.35 -3.1 -23.3 -7.65 -22.0 -7.45 -21.05 -7.2 -20.55 Q-2.35 -18.95 -2.0 -18.4 L-1.15 -18.05 -1.1 -17.9 -2.95 -17.5 -3.25 -17.4 -3.75 -17.25 -4.8 -16.65 -7.0 -13.9 -7.05 -13.8 -7.0 -13.8 -4.4 -13.35 -2.95 -12.8 -2.8 -12.8 -1.4 -12.05 -1.5 -11.95 -1.7 -11.95 -1.85 -12.0 -3.7 -11.85 -5.85 -11.35 -6.6 -10.15 -7.95 -10.4 -9.7 -10.5 -11.55 -16.1 -12.3 -17.65 -12.4 -17.8 -12.6 -17.95 -13.15 -18.45 -21.4 -22.7 M-5.2 9.45 L-4.8 10.2 -4.7 10.15 -2.1 10.75 -2.05 10.75 -1.55 10.7 -0.35 10.8 -0.25 10.85 -0.2 10.8 0.0 10.85 0.0 10.75 0.2 10.9 0.45 10.9 0.2 10.95 -1.5 12.1 Q-5.45 13.05 -9.6 14.5 L-9.4 10.25 -7.45 9.95 -6.4 9.8 -5.4 9.7 -5.3 9.8 -5.2 9.45" fill="#572e74" fill-rule="evenodd" stroke="none"/>
    <path d="M-21.45 -2.1 L-21.7 -4.35 -21.6 -6.05 -21.2 -5.6 -19.9 -3.55 -18.9 -2.35 -18.8 -2.3 -17.95 -1.5 -18.4 -1.35 -18.55 -1.35 -18.8 -1.4 -18.95 -1.3 -19.35 -1.3 -21.15 -1.5 -21.45 -2.1 M-19.0 7.8 L-19.2 7.65 -19.6 7.65 -20.75 7.35 -20.25 6.3 -20.05 6.0 -19.9 5.85 -19.75 5.75 -17.8 2.6 -17.8 2.5 -15.15 1.95 -12.8 1.8 -12.6 2.15 -12.95 2.15 -12.95 2.35 -13.15 2.25 -13.15 2.2 -13.35 2.1 -13.75 2.05 -14.05 2.1 -14.6 2.55 -14.75 2.55 -15.7 3.35 -16.85 4.2 -18.6 6.8 -18.85 7.3 -19.0 7.8" fill="#8b38d2" fill-rule="evenodd" stroke="none"/>
    <path d="M-27.6 5.15 L-28.2 4.65 -28.2 1.4 Q-27.55 0.25 -26.2 -0.7 L-21.75 -0.5 -17.4 -0.25 -15.4 -2.05 -15.1 -2.2 -14.9 -2.15 -14.85 -2.1 -14.65 -1.95 -14.5 -1.95 -14.3 -1.85 -14.1 -1.9 -13.9 -2.05 -12.9 -2.45 -12.5 -2.45 -12.1 -1.65 -11.45 -1.15 -7.7 0.5 -7.0 0.65 -6.5 0.7 -7.3 1.15 -7.75 1.6 -7.75 1.7 -7.85 1.85 -7.95 1.9 -7.45 2.6 -6.6 2.9 -6.4 2.8 -6.35 2.95 -6.5 3.15 -6.45 3.25 -6.6 3.4 -6.6 3.55 -6.45 3.7 -8.0 4.75 -9.6 5.8 -9.6 5.75 -10.2 6.2 -10.3 6.7 -10.45 7.0 -11.7 8.05 -12.25 8.05 -11.9 7.3 -12.05 7.25 -12.0 7.25 -11.85 7.1 -12.05 2.9 Q-12.15 2.2 -12.6 2.15 L-12.8 1.8 -15.15 1.95 -17.8 2.5 -18.7 2.35 -19.55 2.4 -19.75 2.45 -20.5 2.6 -20.6 2.7 -20.95 4.4 -21.15 7.25 -23.8 6.4 -24.05 6.05 -24.05 6.15 -24.1 6.4 -27.4 5.35 -27.6 5.15 M-19.05 -10.05 L-18.25 -10.05 Q-15.3 -10.15 -14.9 -9.5 -14.35 -8.65 -14.1 -6.95 L-13.9 -5.25 -14.3 -6.15 -14.35 -6.2 -14.6 -6.7 Q-15.35 -8.2 -16.2 -8.9 L-16.85 -9.35 -17.55 -9.65 -18.05 -9.85 -19.05 -10.05" fill="#9964cd" fill-rule="evenodd" stroke="none"/>
    <path d="M-13.9 -5.25 L-13.3 -3.2 -14.85 -2.1 -14.9 -2.15 -15.1 -2.2 -15.5 -2.4 -15.8 -2.65 -16.05 -2.8 -17.5 -5.05 -17.9 -5.9 -18.25 -7.7 -18.3 -9.05 -18.25 -9.45 -17.55 -9.65 -16.85 -9.35 -16.2 -8.9 Q-15.35 -8.2 -14.6 -6.7 L-14.35 -6.2 -14.3 -6.15 -13.9 -5.25 M-12.95 2.35 L-12.6 2.45 -12.6 2.55 -12.75 3.7 -13.65 6.85 -14.45 8.6 -16.3 9.55 -16.5 9.35 -16.85 8.6 -16.9 7.95 -15.7 3.35 -14.75 2.55 -14.6 2.55 -14.05 2.1 -13.75 2.05 -13.35 2.1 -13.15 2.2 -13.15 2.25 -12.95 2.35" fill="#280f26" fill-rule="evenodd" stroke="none"/>
    <path d="M-4.6 4.4 L-0.1 4.65 -1.2 5.65 -1.2 5.6 -1.3 5.75 -3.25 6.95 -3.35 6.95 -4.0 7.2 -4.05 7.25 -4.85 7.5 -5.15 7.7 -5.75 7.75 -6.45 7.0 -7.0 5.9 -6.1 5.2 -5.05 4.7 -4.6 4.4 M-7.2 -8.35 L-5.05 -7.95 -5.0 -8.0 -4.7 -7.9 -4.75 -7.85 -4.55 -7.75 -4.45 -7.7 -4.4 -7.75 -0.55 -5.25 -0.5 -5.2 -4.2 -4.85 -5.0 -5.05 -5.1 -4.95 -5.25 -4.9 -5.8 -4.95 -6.5 -5.6 -7.1 -6.45 Q-7.9 -7.75 -7.2 -8.35" fill="#fffac6" fill-rule="evenodd" stroke="none"/>
    <path d="M-8.25 -8.45 L-7.2 -8.35 Q-7.9 -7.75 -7.1 -6.45 L-6.5 -5.6 -5.8 -4.95 -6.55 -5.0 -6.95 -5.2 -7.55 -5.6 -7.55 -5.8 -8.45 -6.95 -9.0 -7.85 -8.8 -8.25 -8.7 -8.25 Q-8.65 -8.6 -8.15 -8.4 L-8.25 -8.45 M-7.05 5.3 L-7.0 5.9 Q-8.3 6.9 -8.25 7.75 L-8.55 7.7 -8.5 7.65 -9.1 7.35 -9.25 7.2 -9.25 7.0 -8.55 6.2 -8.4 6.1 -8.15 5.9 -8.3 5.95 -8.0 5.7 -7.05 5.3" fill="#c19703" fill-rule="evenodd" stroke="none"/>
    <path d="M-1.7 3.0 L-1.9 3.0 -2.45 3.15 -2.65 3.1 -2.95 3.25 -1.55 0.85 -1.2 -0.15 -1.2 -0.4 -1.3 -0.9 -2.1 -2.55 -2.45 -3.05 -2.5 -3.25 -2.65 -3.5 -2.65 -3.6 -2.2 -3.45 -2.0 -3.45 -1.85 -3.5 -1.75 -3.5 -1.7 -3.45 -0.35 -1.3 0.0 -0.1 -0.8 1.3 -0.8 1.45 -1.65 2.9 -1.7 3.0" fill="#271135" fill-rule="evenodd" stroke="none"/>
    <path d="M-4.85 4.25 L-4.9 4.35 -4.8 4.35 -4.6 4.4 -5.05 4.7 -6.1 5.2 -7.0 5.9 -7.05 5.3 -7.1 5.25 -5.65 4.35 -5.45 4.3 -5.15 4.3 -5.0 4.3 -4.85 4.25 M-5.75 7.75 L-6.4 7.75 -7.2 7.75 -7.25 7.7 -7.3 7.75 -7.7 7.65 -8.2 7.75 -8.25 7.75 Q-8.3 6.9 -7.0 5.9 L-6.45 7.0 -5.75 7.75 M-5.65 4.85 L-5.6 4.8 -5.75 4.85 -5.65 4.85" fill="#d5c278" fill-rule="evenodd" stroke="none"/>
    <path d="M-12.25 8.05 L-12.45 8.35 Q-12.7 9.1 -13.45 9.75 L-14.35 10.4 Q-15.55 11.0 -17.35 11.1 L-18.75 11.0 -18.75 10.95 -17.8 10.75 -15.65 9.85 -14.9 9.25 -14.45 8.6 -13.65 6.85 -12.75 3.7 -12.6 2.55 -12.6 2.45 -12.95 2.35 -12.95 2.15 -12.6 2.15 Q-12.15 2.2 -12.05 2.9 L-11.85 7.1 -12.0 7.25 -12.05 7.25 -11.9 7.3 -12.25 8.05" fill="#c27bff" fill-rule="evenodd" stroke="none"/>
    <path d="M-20.75 7.35 L-21.15 7.25 -20.95 4.4 -20.6 2.7 -20.5 2.6 -19.75 2.45 -19.55 2.4 -18.7 2.35 -17.8 2.5 -17.8 2.6 -19.75 5.75 -19.9 5.85 -20.05 6.0 -20.25 6.3 -20.75 7.35" fill="#6210a8" fill-rule="evenodd" stroke="none"/>
  </g>
</svg>
