<?xml version="1.0" encoding="UTF-8" standalone="no"?>
<svg xmlns:ffdec="https://www.free-decompiler.com/flash" xmlns:xlink="http://www.w3.org/1999/xlink" ffdec:objectType="shape" height="43.5px" width="45.2px" xmlns="http://www.w3.org/2000/svg">
  <g transform="matrix(1.0, 0.0, 0.0, 1.0, 38.05, 22.65)">
    <path d="M3.05 2.8 L2.95 3.15 Q2.8 3.35 2.8 3.7 L3.1 6.25 3.1 7.0 1.8 6.95 1.85 6.95 0.6 6.9 -0.05 6.9 -0.55 6.9 -1.5 7.0 -2.4 10.6 -2.55 12.35 -2.65 12.85 Q-3.1 14.45 -3.9 14.95 L-5.05 15.7 -7.95 18.0 Q-11.9 21.1 -12.75 20.85 L-13.1 20.7 -13.9 20.6 -18.9 19.65 -28.9 17.25 -29.85 16.95 -32.4 16.55 -32.45 16.3 -32.5 16.2 Q-33.3 15.95 -33.95 14.75 L-35.1 12.7 -36.5 11.0 -37.95 8.95 Q-38.35 8.1 -37.4 3.85 L-35.95 -3.0 -34.35 -9.9 -33.1 -14.1 -32.55 -16.2 Q-32.15 -17.5 -31.4 -18.05 L-27.6 -21.1 Q-26.4 -22.1 -25.45 -22.4 -23.9 -22.9 -21.8 -22.35 L-13.55 -20.7 Q-10.4 -19.5 -8.85 -19.1 L-5.95 -18.5 -4.6 -18.15 Q-3.7 -18.5 -2.05 -16.8 L1.95 -12.05 2.65 -11.3 2.55 -10.7 2.05 -8.0 3.9 -8.1 4.0 -8.05 5.65 -6.7 Q6.65 -5.5 6.9 -4.5 L1.2 -4.45 1.15 -4.2 0.55 -1.85 0.3 -0.85 -0.6 2.85 3.05 2.8 M-17.75 -17.45 L-23.7 -18.9 -28.15 -15.7 -28.55 -15.75 -28.35 -15.7 -28.6 -15.4 -28.7 -15.4 -28.8 -15.2 -28.95 -15.3 -28.9 -15.25 -29.0 -14.95 -29.05 -15.05 -29.1 -14.65 -29.15 -14.7 -29.15 -14.55 -30.5 -8.65 -30.7 -8.55 -30.6 -8.35 -30.75 -8.25 -30.75 -8.15 -30.6 -8.15 -33.6 5.55 -33.7 5.55 -33.7 5.65 -33.6 5.65 -33.8 6.35 -30.25 12.6 -29.7 12.85 -27.35 13.4 -26.85 13.6 -26.6 13.65 -25.35 14.0 -23.35 14.65 -23.45 14.55 -21.9 14.9 -20.65 15.4 -20.35 15.45 -12.65 17.0 -12.65 16.95 -12.05 16.45 -6.35 12.5 -6.4 12.45 -5.05 6.55 -1.25 -9.85 -5.8 -14.8 -16.25 -17.2 -16.3 -17.1 -17.75 -17.45 M-34.1 5.6 L-34.25 5.5 -34.45 5.5 -34.1 5.6" fill="#28160e" fill-rule="evenodd" stroke="none"/>
    <path d="M3.05 2.8 L-0.6 2.85 0.3 -0.85 5.8 -0.05 5.85 -0.05 5.45 0.35 4.05 1.8 Q3.45 1.9 3.15 2.5 L3.05 2.8 M-20.6 0.8 L-10.7 -5.35 -10.2 -7.6 -11.4 -8.9 -13.7 -11.65 -10.45 -10.9 -7.8 -7.6 -11.55 8.7 -15.2 11.55 -17.95 11.0 -13.2 6.9 -11.75 0.05 -22.1 7.2 -22.3 7.0 -20.9 0.9 -20.6 0.8" fill="#e7d552" fill-rule="evenodd" stroke="none"/>
    <path d="M1.15 -4.2 L1.2 -4.45 6.9 -4.5 7.0 -3.85 1.15 -4.2" fill="#9f701b" fill-rule="evenodd" stroke="none"/>
    <path d="M0.3 -0.85 L0.55 -1.85 1.15 -4.2 7.0 -3.85 7.15 -2.85 Q7.15 -1.75 6.85 -1.25 L5.85 -0.05 5.8 -0.05 0.3 -0.85 M-11.4 -8.9 L-19.75 -1.95 -20.35 -1.4 -18.55 -9.5 -15.2 -11.95 -15.15 -11.9 -13.7 -11.65 -11.4 -8.9 M-22.1 7.2 L-11.75 0.05 -13.2 6.9 -17.95 11.0 -19.9 10.6 -22.1 7.2" fill="#d39e3c" fill-rule="evenodd" stroke="none"/>
    <path d="M-16.3 -17.1 L-16.25 -17.2 -5.8 -14.8 -1.25 -9.85 -5.05 6.55 -8.1 2.25 -5.95 -7.25 -8.3 -10.45 -10.45 -10.9 -13.7 -11.65 -15.15 -11.9 -15.2 -11.95 -17.35 -16.3 -16.65 -16.95 -16.3 -17.1 M-12.05 16.45 L-12.65 16.95 -12.65 17.0 -20.35 15.45 -20.65 15.4 -21.9 14.9 -22.4 14.15 -12.05 16.45 M-21.85 -13.2 L-20.4 -14.15 -25.35 7.7 -22.45 14.1 -26.75 8.05 -21.85 -13.2" fill="#b8743e" fill-rule="evenodd" stroke="none"/>
    <path d="M-15.2 11.55 L-11.55 8.7 -7.8 -7.6 -10.45 -10.9 -8.3 -10.45 -5.95 -7.25 -8.1 2.25 -9.85 9.55 -13.1 12.0 -15.2 11.55" fill="#4d2d13" fill-rule="evenodd" stroke="none"/>
    <path d="M-17.75 -17.45 L-16.3 -17.1 -16.65 -16.95 -17.35 -16.3 -20.4 -14.15 -21.85 -13.2 -23.25 -12.85 -23.2 -13.25 -23.45 -13.3 -17.75 -17.45" fill="#4f2e11" fill-rule="evenodd" stroke="none"/>
    <path d="M-28.6 -15.4 L-28.35 -15.7 -28.55 -15.75 -28.15 -15.7 -23.7 -18.9 -17.75 -17.45 -23.45 -13.3 -28.6 -15.4 M-5.05 6.55 L-6.4 12.45 -6.35 12.5 -12.05 16.45 -22.4 14.15 -22.45 14.15 -22.45 14.1 -25.35 7.7 -20.4 -14.15 -17.35 -16.3 -15.2 -11.95 -18.55 -9.5 -20.35 -1.4 -19.75 -1.95 -20.6 0.8 -20.9 0.9 -22.3 7.0 -22.1 7.2 -19.9 10.6 -17.95 11.0 -15.2 11.55 -13.1 12.0 -9.85 9.55 -8.1 2.25 -5.05 6.55" fill="#8a552b" fill-rule="evenodd" stroke="none"/>
    <path d="M-33.6 5.55 L-30.6 -8.15 -30.75 -8.15 -30.75 -8.25 -30.6 -8.35 -30.7 -8.55 -30.5 -8.65 -29.15 -14.55 -29.15 -14.7 -29.1 -14.65 -29.05 -15.05 -29.0 -14.95 -28.9 -15.25 -28.95 -15.3 -28.8 -15.2 -28.7 -15.4 -28.6 -15.4 -23.45 -13.3 -23.2 -13.25 -23.25 -12.85 -25.15 -4.8 -25.4 -4.35 -27.2 3.7 -27.25 3.8 -27.55 5.25 -27.55 5.3 -27.75 5.85 -33.6 5.55" fill="#543013" fill-rule="evenodd" stroke="none"/>
    <path d="M-21.9 14.9 L-23.45 14.55 -23.35 14.65 -25.35 14.0 -26.6 13.65 -26.85 13.6 -27.35 13.4 -29.7 12.85 -30.25 12.6 -33.8 6.35 -33.6 5.65 -33.7 5.65 -33.7 5.55 -33.6 5.55 -27.75 5.85 -27.55 5.3 -27.55 5.25 -27.25 3.8 -27.2 3.7 -25.4 -4.35 -25.15 -4.8 -23.25 -12.85 -21.85 -13.2 -26.75 8.05 -22.45 14.1 -22.45 14.15 -22.4 14.15 -21.9 14.9" fill="#41260f" fill-rule="evenodd" stroke="none"/>
    <path d="M-11.4 -8.9 L-10.2 -7.6 -10.7 -5.35 -20.6 0.8 -19.75 -1.95 -11.4 -8.9" fill="#9a682b" fill-rule="evenodd" stroke="none"/>
    <path d="M-34.1 5.6 L-34.45 5.5 -34.25 5.5 -34.1 5.6" fill="#331d0b" fill-rule="evenodd" stroke="none"/>
  </g>
</svg>
