<?xml version="1.0" encoding="UTF-8" standalone="no"?>
<svg xmlns:ffdec="https://www.free-decompiler.com/flash" xmlns:xlink="http://www.w3.org/1999/xlink" ffdec:objectType="shape" height="44.3px" width="51.45px" xmlns="http://www.w3.org/2000/svg">
  <g transform="matrix(1.0, 0.0, 0.0, 1.0, 43.1, 30.3)">
    <path d="M-3.1 -3.2 L-3.1 -9.25 -3.45 -9.35 -3.4 -13.85 -3.2 -13.8 -2.15 -13.45 0.2 -12.75 0.4 -12.85 Q0.8 -12.95 1.0 -12.5 L1.05 -12.5 1.05 -12.4 1.1 -11.45 1.2 -8.65 1.2 -8.45 6.9 -8.35 7.15 -8.05 7.65 -7.0 7.9 -6.55 8.15 -5.5 8.15 -4.6 8.35 -4.3 8.35 -3.9 8.3 -3.3 6.1 -3.4 4.7 -3.45 3.95 -3.4 3.1 -3.35 1.65 -3.3 1.1 -3.3 -1.0 -3.15 -2.3 -3.0 -3.1 -3.2 M5.4 3.95 L3.75 5.85 3.6 5.9 Q2.2 6.35 2.2 7.85 L2.55 8.4 2.55 8.6 1.35 8.65 0.4 8.4 -0.75 8.2 -2.3 8.1 Q-2.75 8.1 -3.1 8.5 L-3.15 8.6 -3.15 5.5 -2.95 5.3 -2.6 5.1 Q-2.45 4.6 -1.95 4.4 L0.1 4.1 1.2 4.05 1.5 4.05 2.35 4.05 4.5 4.0 5.4 3.95" fill="#28160e" fill-rule="evenodd" stroke="none"/>
    <path d="M-3.1 -3.2 L-2.3 -3.0 -1.0 -3.15 1.1 -3.3 1.65 -3.3 3.1 -3.35 3.95 -3.4 4.7 -3.45 6.1 -3.4 8.3 -3.3 8.15 -2.55 8.15 -1.85 5.75 -1.9 3.6 -1.85 2.8 -1.85 1.35 -1.8 1.0 -1.8 -0.9 -1.7 -3.1 -1.65 -3.1 -3.2" fill="#2965cd" fill-rule="evenodd" stroke="none"/>
    <path d="M8.15 -1.85 Q8.0 -0.3 7.25 1.3 L6.75 1.25 5.1 1.2 3.0 1.1 2.15 1.05 0.8 0.95 0.25 0.9 -1.7 0.7 -3.1 0.5 -3.1 -1.65 -0.9 -1.7 1.0 -1.8 1.35 -1.8 2.8 -1.85 3.6 -1.85 5.75 -1.9 8.15 -1.85" fill="#488bff" fill-rule="evenodd" stroke="none"/>
    <path d="M7.25 1.3 L5.55 3.75 5.4 3.95 4.5 4.0 2.35 4.05 1.5 4.05 1.2 4.05 0.1 4.1 -1.95 4.4 Q-2.45 4.6 -2.6 5.1 L-2.95 5.3 -3.15 5.5 -3.1 0.5 -1.7 0.7 0.25 0.9 0.8 0.95 2.15 1.05 3.0 1.1 5.1 1.2 6.75 1.25 7.25 1.3" fill="#70b7fe" fill-rule="evenodd" stroke="none"/>
    <path d="M-3.75 3.8 L-3.5 3.65 -3.1 3.6 Q-2.85 3.1 -2.35 3.05 L-1.5 3.05 -1.75 4.3 Q-1.75 5.25 -2.4 7.45 L-3.1 10.15 -2.75 11.0 -3.05 11.5 -3.2 12.1 -4.1 13.9 -6.2 14.0 -8.5 13.75 -9.15 13.45 -9.3 13.4 Q-10.35 13.1 -23.95 13.1 -24.55 13.55 -25.7 13.5 L-28.55 13.0 -28.9 13.2 -30.85 13.15 Q-32.25 12.8 -34.3 11.8 -37.3 10.3 -38.15 9.95 L-39.3 8.9 -39.4 8.65 Q-39.75 8.25 -39.7 7.45 L-35.45 4.0 -33.3 2.35 -33.05 2.2 -38.8 -5.6 -41.25 -9.25 Q-43.3 -12.5 -43.1 -13.2 L-42.95 -13.65 -42.6 -13.7 -40.3 -14.3 -38.55 -14.65 -36.25 -15.0 -33.2 -15.7 -28.35 -16.55 -27.5 -16.95 -27.45 -16.9 -27.4 -17.3 -27.35 -17.95 -27.3 -18.8 -27.55 -23.5 Q-27.85 -27.9 -27.55 -28.95 L-27.1 -30.15 -27.05 -30.3 -25.3 -29.9 -17.05 -27.4 -16.55 -27.0 -16.55 -26.8 -11.7 -23.55 Q-9.3 -21.7 -6.25 -19.7 L-0.2 -15.7 Q0.15 -15.45 1.15 -14.9 L2.1 -14.25 2.25 -14.2 1.9 -12.1 1.15 -9.3 0.55 -7.15 -0.1 -4.1 -0.7 -4.2 Q-1.15 -4.3 -1.45 -4.6 L0.1 -10.45 -19.85 -23.45 -19.8 -23.35 -19.85 -23.25 Q-19.8 -23.0 -19.95 -23.35 L-20.15 -23.8 -20.75 -23.8 -24.25 -25.95 -24.4 -25.95 -22.85 -12.85 -37.35 -10.4 -37.45 -10.4 -27.6 2.1 -34.5 7.35 Q-32.8 8.05 -31.5 8.85 L-30.6 9.35 -29.35 9.2 -27.4 9.3 -5.45 9.8 -3.75 3.8 M-32.9 -8.8 L-32.85 -8.85 -32.85 -8.8 -32.9 -8.8" fill="#28160e" fill-rule="evenodd" stroke="none"/>
    <path d="M-31.5 8.85 Q-32.8 8.05 -34.5 7.35 L-27.6 2.1 -37.45 -10.4 -37.35 -10.4 -22.85 -12.85 -24.4 -25.95 -24.25 -25.95 -20.75 -23.8 -20.15 -23.8 -19.95 -23.35 -20.15 -23.5 -18.6 -11.3 -32.2 -9.2 -23.15 2.4 -31.5 8.85 M-19.85 -23.25 L-19.8 -23.35 -19.8 -23.25 -19.85 -23.25 M-32.9 -8.8 L-32.85 -8.8 -32.85 -8.85 -32.9 -8.8" fill="#8f5e0a" fill-rule="evenodd" stroke="none"/>
    <path d="M-2.65 -0.2 L-3.55 2.95 -14.55 1.25 -15.7 0.45 -16.1 0.25 -19.7 0.1 -20.45 0.4 Q-20.9 -0.5 -25.45 -3.95 L-29.75 -7.3 -31.0 -8.1 -32.2 -9.2 -18.6 -11.3 -17.65 -11.45 -16.95 -10.85 -27.55 -7.95 -28.65 -7.55 -22.65 -5.9 -17.55 -1.3 -11.65 -2.8 -2.65 -0.2" fill="#e7d552" fill-rule="evenodd" stroke="none"/>
    <path d="M-29.35 9.2 L-30.6 9.35 -31.5 8.85 -23.15 2.4 -32.2 -9.2 -31.0 -8.1 -29.75 -7.3 -25.45 -3.95 Q-20.9 -0.5 -20.45 0.4 L-19.7 0.1 -16.1 0.25 -15.7 0.45 -14.55 1.25 -13.8 2.5 -13.6 3.5 -13.6 3.9 -13.7 4.9 Q-14.1 6.4 -16.4 6.85 -18.4 7.25 -20.1 6.2 L-21.4 5.15 -29.35 9.2 M-19.95 -23.35 Q-19.8 -23.0 -19.85 -23.25 L-19.8 -23.25 -17.25 -16.4 -16.15 -16.8 Q-12.25 -17.55 -10.85 -15.0 L-10.25 -14.15 -10.3 -14.0 -10.1 -13.5 -9.85 -12.25 -10.0 -12.15 -10.35 -11.4 Q-11.05 -10.45 -12.8 -10.0 L-12.85 -9.85 Q-14.95 -9.6 -16.7 -10.7 L-16.95 -10.85 -17.65 -11.45 -18.6 -11.3 -20.15 -23.5 -19.95 -23.35" fill="#674107" fill-rule="evenodd" stroke="none"/>
    <path d="M-1.8 -3.45 L-1.85 -3.1 -2.65 -0.2 -11.65 -2.8 -11.6 -2.8 -10.1 -3.15 -12.3 -5.25 -1.8 -3.45 M-22.65 -5.9 L-28.65 -7.55 -27.55 -7.95 -22.6 -7.1 -23.65 -6.8 -22.65 -5.9" fill="#aa6f0a" fill-rule="evenodd" stroke="none"/>
    <path d="M-22.65 -5.9 L-23.65 -6.8 -22.6 -7.1 -15.8 -8.8 -12.3 -5.25 -10.1 -3.15 -11.6 -2.8 -16.5 -7.45 -22.65 -5.9" fill="#704600" fill-rule="evenodd" stroke="none"/>
    <path d="M-3.75 3.8 L-5.45 9.8 -27.4 9.3 -29.35 9.2 -21.4 5.15 -20.1 6.2 Q-18.4 7.25 -16.4 6.85 -14.1 6.4 -13.7 4.9 L-13.6 3.9 -13.6 3.5 -13.8 2.5 -14.55 1.25 -3.55 2.95 -3.75 3.8 M-19.8 -23.35 L-19.85 -23.45 0.1 -10.45 -1.45 -4.6 -1.8 -3.45 -12.3 -5.25 -15.8 -8.8 -22.6 -7.1 -27.55 -7.95 -16.95 -10.85 -16.7 -10.7 Q-14.95 -9.6 -12.85 -9.85 L-12.8 -10.0 Q-11.05 -10.45 -10.35 -11.4 L-10.0 -12.15 -9.85 -12.25 -10.1 -13.5 -10.3 -14.0 -10.25 -14.15 -10.85 -15.0 Q-12.25 -17.55 -16.15 -16.8 L-17.25 -16.4 -19.8 -23.25 -19.8 -23.35" fill="#e6ae37" fill-rule="evenodd" stroke="none"/>
    <path d="M-11.6 -2.8 L-11.65 -2.8 -17.55 -1.3 -22.65 -5.9 -16.5 -7.45 -11.6 -2.8" fill="#15346b" fill-rule="evenodd" stroke="none"/>
  </g>
</svg>
