<?xml version="1.0" encoding="UTF-8" standalone="no"?>
<svg xmlns:ffdec="https://www.free-decompiler.com/flash" xmlns:xlink="http://www.w3.org/1999/xlink" ffdec:objectType="shape" height="222.3px" width="273.15px" xmlns="http://www.w3.org/2000/svg">
  <g transform="matrix(1.0, 0.0, 0.0, 1.0, 103.2, 203.4)">
    <path d="M108.15 -146.35 Q100.25 -143.2 92.0 -136.85 69.25 -119.25 53.8 -83.65 38.9 -49.4 33.8 -4.55 L1.0 -18.85 Q6.2 -84.25 34.65 -128.35 L-11.55 -145.4 Q-35.3 -108.5 -42.2 -42.6 L-82.15 -67.75 -82.45 -67.8 Q-78.95 -114.05 -66.4 -144.65 -55.05 -172.2 -38.15 -183.5 -23.75 -193.1 -9.15 -188.95 L-8.0 -188.55 -7.45 -188.4 -6.3 -187.95 108.15 -146.35" fill="#184eab" fill-opacity="0.45882353" fill-rule="evenodd" stroke="none"/>
    <path d="M108.15 -146.35 L-6.3 -187.95 -7.45 -188.4 -8.0 -188.55 -9.15 -188.95 Q-23.75 -193.1 -38.15 -183.5 -55.05 -172.2 -66.4 -144.65 -78.95 -114.05 -82.45 -67.8 L-82.15 -67.75 -42.2 -42.6 Q-35.3 -108.5 -11.55 -145.4 L34.65 -128.35 Q6.2 -84.25 1.0 -18.85 L33.8 -4.55 Q38.9 -49.4 53.8 -83.65 69.25 -119.25 92.0 -136.85 100.25 -143.2 108.15 -146.35 M144.15 -143.0 Q133.35 -145.6 121.85 -141.35 113.35 -138.25 104.5 -131.4 81.75 -113.8 66.3 -78.2 48.55 -37.35 44.65 18.6 L44.5 18.9 -6.35 -3.35 -13.4 1.4 -54.3 -20.5 -54.9 -21.1 -54.9 -30.0 -102.9 -60.2 -103.2 -60.25 Q-99.15 -114.35 -84.45 -150.15 -71.2 -182.35 -51.4 -195.55 -34.55 -206.8 -17.5 -201.95 L-16.15 -201.5 -15.5 -201.3 -14.15 -200.8 144.25 -143.15 144.15 -143.0" fill="#e6ad36" fill-opacity="0.49803922" fill-rule="evenodd" stroke="none"/>
    <path d="M44.65 18.6 Q48.55 -37.35 66.3 -78.2 81.75 -113.8 104.5 -131.4 113.35 -138.25 121.85 -141.35 133.35 -145.6 144.15 -143.0 L146.7 -142.25 Q163.45 -136.8 169.95 -115.15 L169.85 -115.0 160.0 -100.55 159.65 -100.8 Q155.35 -118.95 140.25 -122.6 125.3 -126.25 109.1 -111.1 92.85 -96.0 80.2 -64.7 67.65 -33.75 58.7 11.85 L44.65 18.6" fill="#855200" fill-opacity="0.49803922" fill-rule="evenodd" stroke="none"/>
    <path d="M-16.05 -126.25 Q-12.1 -136.3 -9.6 -136.3 -7.05 -136.3 -7.5 -126.25 -7.9 -116.15 -11.0 -101.9 -14.1 -87.65 -18.0 -77.6 -19.95 -72.6 -21.55 -70.05 L-21.65 -69.85 -29.1 -15.95 -43.75 -21.7 -26.55 -72.3 -26.55 -77.6 Q-26.15 -87.65 -23.05 -101.9 -19.95 -116.15 -16.05 -126.25" fill="#000000" fill-opacity="0.49803922" fill-rule="evenodd" stroke="none"/>
  </g>
</svg>
