<?xml version="1.0" encoding="UTF-8" standalone="no"?>
<svg xmlns:ffdec="https://www.free-decompiler.com/flash" xmlns:xlink="http://www.w3.org/1999/xlink" ffdec:objectType="shape" height="47.55px" width="48.9px" xmlns="http://www.w3.org/2000/svg">
  <g transform="matrix(1.0, 0.0, 0.0, 1.0, 25.15, 23.2)">
    <path d="M-4.95 -13.3 L-5.0 -13.3 -5.1 -13.25 -4.95 -13.3 M-22.0 -18.5 L-21.9 -18.1 Q-21.8 -17.75 -22.0 -17.35 L-23.25 -16.9 -24.5 -17.2 -25.15 -17.9 -24.8 -18.45 Q-24.45 -19.0 -23.9 -19.2 -22.55 -19.9 -22.0 -18.5 M0.2 -12.1 Q0.35 -11.95 0.55 -11.95 L3.2 -12.3 7.6 -12.05 8.5 -11.85 10.25 -11.45 10.9 -11.05 13.95 -9.35 Q16.0 -8.05 17.9 -5.3 L19.15 -3.3 19.35 -2.85 19.9 -1.05 20.45 0.85 20.75 4.6 20.75 4.75 21.05 4.9 20.95 5.05 21.25 5.35 22.1 6.5 23.05 7.5 Q23.75 8.25 23.75 8.7 L23.3 10.2 22.85 11.7 22.1 13.6 Q21.5 15.65 20.0 17.5 18.2 19.75 15.75 21.2 L14.5 22.1 13.0 22.9 8.9 24.2 8.3 24.2 8.1 24.35 Q7.5 24.35 6.4 23.1 L5.55 22.0 3.6 22.1 -0.1 21.8 -0.6 21.75 -3.15 21.2 -4.0 20.95 Q-6.65 20.1 -9.15 17.65 -11.95 15.0 -12.7 12.1 L-13.2 10.25 -13.3 9.7 -13.6 8.85 -13.7 6.75 -13.7 6.45 -13.85 6.3 -13.6 6.3 -13.7 5.7 -13.7 5.05 Q-13.7 4.3 -13.35 3.95 -13.0 3.55 -13.0 3.25 L-13.05 3.1 -14.85 1.3 Q-16.3 -0.35 -16.3 -1.05 L-16.2 -1.6 -16.15 -2.3 -16.2 -2.5 -16.15 -2.55 -15.75 -3.3 -15.55 -3.65 -15.5 -3.9 -15.2 -4.3 -15.2 -4.4 -15.2 -4.55 -16.2 -5.75 -16.7 -6.5 -16.25 -7.3 -15.7 -8.1 -15.8 -8.2 -15.6 -8.35 -16.15 -9.0 -17.3 -10.95 -17.85 -12.45 -17.95 -12.95 -18.3 -12.85 Q-18.9 -13.05 -19.05 -13.15 L-19.2 -13.65 -19.2 -13.75 -20.15 -13.5 Q-20.95 -13.35 -21.4 -13.8 L-21.9 -14.45 -21.85 -15.8 -21.85 -15.95 -21.75 -16.05 -21.1 -16.95 -20.05 -17.75 -20.1 -17.8 -21.0 -18.25 -21.3 -18.85 -21.35 -19.25 -21.0 -19.8 -19.5 -20.25 -18.95 -20.25 -18.6 -20.35 -18.6 -20.6 -18.5 -20.95 Q-18.15 -23.05 -17.05 -23.2 -15.95 -23.25 -15.5 -21.85 L-15.35 -21.4 -15.5 -21.0 -12.35 -21.95 -12.25 -21.95 -12.1 -22.0 -12.0 -22.15 -11.75 -22.05 -11.65 -22.1 -11.5 -21.85 Q-11.2 -21.5 -11.05 -20.85 L-10.85 -20.95 Q-10.2 -21.0 -9.85 -20.45 L-9.65 -19.7 -9.6 -19.4 -9.55 -19.35 -9.55 -19.25 -9.55 -19.1 -9.55 -19.0 -9.55 -18.75 Q-9.75 -17.8 -11.25 -16.7 L-10.75 -16.0 Q-10.65 -15.75 -10.8 -15.55 L-10.75 -15.5 -10.65 -15.2 -10.65 -15.15 -11.1 -14.75 -12.0 -14.4 -12.1 -14.5 -12.45 -14.4 -12.8 -14.5 -12.55 -13.95 -12.3 -13.4 -11.8 -12.75 -11.75 -12.95 -11.5 -12.75 -9.0 -14.3 -8.55 -13.95 -8.45 -13.85 -7.35 -12.8 -7.15 -12.6 -6.6 -12.7 -6.55 -12.75 -6.4 -12.85 -5.35 -13.65 -5.15 -13.75 -4.8 -13.95 -3.9 -14.3 -3.85 -14.35 -3.85 -14.4 Q-3.3 -14.25 -2.0 -13.35 L-0.1 -11.9 -0.1 -12.0 0.2 -12.1" fill="#ffffff" fill-rule="evenodd" stroke="none"/>
  </g>
</svg>
