<?xml version="1.0" encoding="UTF-8" standalone="no"?>
<svg xmlns:ffdec="https://www.free-decompiler.com/flash" xmlns:xlink="http://www.w3.org/1999/xlink" ffdec:objectType="shape" height="35.65px" width="36.3px" xmlns="http://www.w3.org/2000/svg">
  <g transform="matrix(1.0, 0.0, 0.0, 1.0, 17.25, 17.2)">
    <path d="M16.1 -15.95 L16.7 -15.9 Q17.9 -15.95 17.8 -15.5 L17.8 -15.45 Q18.1 -14.95 18.1 -13.35 L18.2 -8.15 18.4 -3.45 18.6 -2.05 Q18.85 0.3 18.7 1.45 L19.05 2.2 18.6 2.65 18.35 3.1 17.9 3.35 3.55 17.65 2.95 18.05 2.85 18.25 2.65 18.25 2.45 18.35 2.2 18.35 1.95 18.45 1.9 18.45 1.85 18.4 1.85 18.35 1.15 18.3 -6.4 18.2 -15.4 17.65 -15.5 17.1 -15.45 17.1 -17.15 0.1 -17.2 0.1 -17.0 -0.5 -16.9 -0.65 -16.8 -1.05 -16.6 -1.05 -15.85 -1.85 -14.4 -3.45 -11.2 -6.6 -1.1 -16.8 Q-0.8 -17.2 -0.4 -17.2 0.0 -17.3 0.0 -16.75 L4.25 -16.7 8.3 -16.5 9.6 -16.65 10.0 -16.45 12.4 -16.35 15.0 -16.15 16.1 -15.95" fill="#ffffff" fill-rule="evenodd" stroke="none"/>
  </g>
</svg>
