<?xml version="1.0" encoding="UTF-8" standalone="no"?>
<svg xmlns:ffdec="https://www.free-decompiler.com/flash" xmlns:xlink="http://www.w3.org/1999/xlink" ffdec:objectType="shape" height="15.9px" width="102.5px" xmlns="http://www.w3.org/2000/svg">
  <g transform="matrix(1.0, 0.0, 0.0, 1.0, 50.4, 17.85)">
    <path d="M-49.65 -7.25 L-49.65 -12.6 Q-49.65 -17.1 -44.5 -17.1 L-20.4 -17.1 Q-15.25 -17.1 -15.25 -12.6 L-15.25 -7.25 Q-15.25 -2.7 -20.4 -2.7 L-44.5 -2.7 Q-49.65 -2.7 -49.65 -7.25" fill="#660000" fill-rule="evenodd" stroke="none"/>
    <path d="M-49.65 -7.25 Q-49.65 -2.7 -44.5 -2.7 L-20.4 -2.7 Q-15.25 -2.7 -15.25 -7.25 L-15.25 -12.6 Q-15.25 -17.1 -20.4 -17.1 L-44.5 -17.1 Q-49.65 -17.1 -49.65 -12.6 L-49.65 -7.25 Z" fill="none" stroke="#000000" stroke-linecap="round" stroke-linejoin="round" stroke-width="1.5"/>
    <path d="M16.95 -7.25 L16.95 -12.6 Q16.95 -17.1 22.1 -17.1 L46.2 -17.1 Q51.35 -17.1 51.35 -12.6 L51.35 -7.25 Q51.35 -2.7 46.2 -2.7 L22.1 -2.7 Q16.95 -2.7 16.95 -7.25" fill="#660000" fill-rule="evenodd" stroke="none"/>
    <path d="M16.95 -7.25 Q16.95 -2.7 22.1 -2.7 L46.2 -2.7 Q51.35 -2.7 51.35 -7.25 L51.35 -12.6 Q51.35 -17.1 46.2 -17.1 L22.1 -17.1 Q16.95 -17.1 16.95 -12.6 L16.95 -7.25 Z" fill="none" stroke="#000000" stroke-linecap="round" stroke-linejoin="round" stroke-width="1.5"/>
  </g>
</svg>
