<?xml version="1.0" encoding="UTF-8" standalone="no"?>
<svg xmlns:ffdec="https://www.free-decompiler.com/flash" xmlns:xlink="http://www.w3.org/1999/xlink" ffdec:objectType="shape" height="184.15px" width="77.4px" xmlns="http://www.w3.org/2000/svg">
  <g transform="matrix(1.0, 0.0, 0.0, 1.0, 34.9, 130.75)">
    <path d="M10.95 -121.8 Q16.0 -107.95 23.0 -81.25 L26.65 -67.05 Q27.45 -58.3 28.6 -49.65 L28.85 -47.9 28.7 -45.25 Q28.4 -37.95 31.0 -34.55 L31.8 -31.45 32.65 -38.1 33.15 -41.25 33.1 -41.6 33.15 -49.1 32.9 -55.35 32.9 -56.2 Q33.85 -54.6 35.2 -48.25 39.45 -28.2 39.5 -10.1 40.5 -8.55 41.5 -0.65 L42.5 9.5 Q42.5 11.75 41.55 16.7 40.5 17.5 39.55 19.05 37.8 21.75 37.8 23.75 L37.85 24.65 37.8 25.05 37.8 26.6 Q38.0 27.45 38.85 27.75 L40.15 27.25 40.1 27.3 Q39.65 28.5 38.9 32.7 L38.55 34.0 Q37.15 36.6 36.0 37.85 L31.95 42.95 Q22.15 53.4 6.6 53.4 L-2.85 52.8 -3.35 52.85 -3.45 52.65 Q-5.5 52.2 -6.5 51.55 -9.55 50.8 -12.0 49.35 L-12.1 49.35 -12.3 49.2 Q-23.55 44.05 -28.45 33.0 -31.7 25.6 -31.85 17.45 -34.1 11.55 -34.65 3.75 -34.85 0.85 -34.85 -12.5 L-34.85 -20.85 -33.6 -31.05 Q-32.75 -31.15 -31.4 -25.2 L-29.65 -13.4 Q-26.0 -37.8 -15.05 -65.1 -13.55 -71.35 -10.2 -80.45 L-6.65 -89.35 4.8 -125.4 6.9 -130.75 Q8.25 -129.3 10.95 -121.8 M5.05 -101.9 L3.35 -91.2 0.8 -77.1 -1.55 -62.4 Q-2.8 -54.75 -4.85 -48.85 L-4.85 -47.75 Q-4.85 -43.85 -5.0 -41.25 L-5.5 -41.0 Q-5.95 -40.75 -6.3 -40.65 -7.85 -45.25 -8.2 -52.4 L-8.3 -61.2 Q-13.3 -41.85 -19.3 -19.8 L-19.65 -18.15 -22.65 -7.75 -25.0 3.45 Q-26.2 0.7 -27.7 -1.3 L-29.15 -6.45 -29.7 1.05 -30.1 6.65 -29.05 13.2 Q-26.35 29.1 -24.5 29.1 -22.8 29.1 -22.8 27.2 -22.8 24.75 -23.8 20.5 L-23.4 20.3 Q-22.95 20.95 -22.55 21.0 -21.85 28.3 -18.75 35.8 L-16.7 40.0 -14.25 39.85 -7.2 42.15 11.85 42.15 13.7 42.35 16.1 42.75 21.05 42.1 24.35 41.55 Q27.1 37.3 29.1 31.5 32.25 22.3 32.95 12.4 L33.45 12.95 33.75 12.85 34.05 14.1 Q36.05 12.55 36.05 6.45 L35.35 -2.05 35.15 -2.1 35.2 -3.85 34.95 -4.5 34.95 -7.65 Q34.3 -9.35 34.35 -14.9 34.45 -19.35 33.2 -21.65 L33.15 -24.35 32.7 -22.0 32.55 -21.85 32.55 -22.45 32.25 -21.4 Q31.7 -20.45 31.5 -18.9 L31.45 -18.35 31.15 -17.1 30.0 -12.2 Q28.3 -16.15 26.75 -22.25 24.55 -30.85 21.6 -49.8 L21.6 -54.95 18.45 -67.65 Q18.45 -69.7 16.95 -76.35 15.3 -83.6 13.3 -89.85 L10.9 -96.45 Q9.7 -101.2 8.3 -105.15 L8.2 -106.05 8.1 -106.2 7.95 -106.15 7.15 -108.25 5.05 -101.9" fill="#ff9a00" fill-rule="evenodd" stroke="none"/>
    <path d="M5.05 -101.9 L7.15 -108.25 7.95 -106.15 8.1 -106.2 8.2 -106.05 8.3 -105.15 Q9.7 -101.2 10.9 -96.45 L13.3 -89.85 Q15.3 -83.6 16.95 -76.35 18.45 -69.7 18.45 -67.65 L21.6 -54.95 21.6 -49.8 Q24.55 -30.85 26.75 -22.25 28.3 -16.15 30.0 -12.2 L31.15 -17.1 31.45 -18.35 31.5 -18.9 Q31.7 -20.45 32.25 -21.4 L32.55 -22.45 32.55 -21.85 32.7 -22.0 33.15 -24.35 33.2 -21.65 Q34.45 -19.35 34.35 -14.9 34.3 -9.35 34.95 -7.65 L34.95 -4.5 35.2 -3.85 35.15 -2.1 35.35 -2.05 36.05 6.45 Q36.05 12.55 34.05 14.1 L33.75 12.85 33.45 12.95 32.95 12.4 Q32.25 22.3 29.1 31.5 27.1 37.3 24.35 41.55 L21.05 42.1 16.1 42.75 13.7 42.35 11.85 42.15 -7.2 42.15 -14.25 39.85 -16.7 40.0 -18.75 35.8 Q-21.85 28.3 -22.55 21.0 -22.95 20.95 -23.4 20.3 L-23.8 20.5 Q-22.8 24.75 -22.8 27.2 -22.8 29.1 -24.5 29.1 -26.35 29.1 -29.05 13.2 L-30.1 6.65 -29.7 1.05 -29.15 -6.45 -27.7 -1.3 Q-26.2 0.7 -25.0 3.45 L-22.65 -7.75 -19.65 -18.15 -19.3 -19.8 Q-13.3 -41.85 -8.3 -61.2 L-8.2 -52.4 Q-7.85 -45.25 -6.3 -40.65 -5.95 -40.75 -5.5 -41.0 L-5.0 -41.25 Q-4.85 -43.85 -4.85 -47.75 L-4.85 -48.85 Q-2.8 -54.75 -1.55 -62.4 L0.8 -77.1 3.35 -91.2 5.05 -101.9" fill="#ffe000" fill-rule="evenodd" stroke="none"/>
    <path d="M18.15 -12.55 L17.25 -13.0 Q14.7 -13.95 5.3 -14.7 L-0.25 -13.65 Q-0.65 -13.0 -1.7 -12.3 L-1.7 -12.25 -2.0 -12.05 Q-4.0 -10.3 -4.0 -6.5 L-3.65 -5.45 Q-2.6 -3.75 2.05 -2.05 5.0 -0.95 7.4 -0.4 L11.0 0.0 11.1 0.0 11.25 0.15 13.2 0.15 17.7 -4.25 Q20.25 -7.15 20.25 -9.4 20.25 -11.05 19.3 -12.15 18.7 -12.8 18.15 -12.55 M-27.7 22.35 L-27.85 21.2 -27.85 20.9 -27.9 20.55 -28.05 19.8 -28.0 18.0 -28.0 17.5 -27.95 15.8 -27.55 15.55 Q-24.5 13.85 -24.5 11.1 -24.5 6.7 -25.0 4.5 -20.25 -1.1 -15.1 -8.95 -10.9 -9.7 -7.8 -11.75 -4.65 -13.8 -3.8 -16.05 -0.65 -16.85 2.85 -16.95 L4.5 -17.0 10.95 -16.55 12.6 -16.3 17.75 -15.2 19.2 -14.8 20.25 -14.5 24.4 -12.9 25.5 -9.0 Q26.8 -4.75 33.15 -2.2 34.85 -1.55 36.5 -1.1 L36.95 0.1 37.5 1.8 37.95 3.4 38.3 5.1 38.75 8.25 39.0 14.0 39.0 14.1 39.0 14.25 38.9 16.95 38.85 17.1 Q34.5 20.9 34.5 23.5 34.5 24.75 35.5 25.4 36.35 25.9 36.5 26.95 L35.0 30.05 Q33.35 33.15 31.0 36.05 27.8 40.0 24.0 42.55 L21.4 44.05 5.55 43.0 Q0.9 43.45 -0.65 46.45 L-1.45 46.35 -3.95 45.95 -4.35 45.95 Q-8.65 45.95 -14.2 42.65 L-14.65 42.4 -18.55 39.7 -18.95 39.55 Q-20.95 38.85 -22.75 35.65 -24.05 33.35 -25.3 29.85 L-26.2 27.15 -26.5 26.15 -27.6 22.0 -27.7 22.35 M26.85 -3.6 Q24.55 -4.35 24.4 -6.65 24.2 -9.25 23.25 -9.9 18.5 -2.7 15.5 0.85 L15.6 1.35 Q15.95 1.7 16.8 1.7 L16.8 1.9 Q17.15 2.4 17.25 4.0 17.55 5.35 18.95 5.35 L19.75 5.1 19.95 4.85 Q19.95 2.3 21.75 -0.35 L22.4 -1.3 Q26.15 -2.65 26.85 -3.6 M28.4 -0.5 L25.75 -0.85 25.15 -0.4 Q23.4 -0.05 23.15 1.0 L22.3 1.6 21.65 4.95 21.1 8.95 21.0 10.5 Q21.0 12.45 21.25 13.55 L21.55 14.55 21.75 14.8 21.75 15.5 Q22.55 16.2 22.55 16.8 L28.05 17.1 Q31.7 17.1 33.05 15.65 L33.8 15.4 34.4 13.95 34.85 12.2 35.25 11.35 35.3 9.9 34.45 5.95 33.3 2.4 Q32.85 1.05 31.55 0.35 L31.35 -0.15 29.8 -0.3 28.4 -0.5 M21.55 19.75 L22.4 19.95 23.4 18.95 21.25 17.4 19.75 14.8 19.55 14.55 19.95 12.25 19.8 11.8 19.1 11.1 18.9 11.35 Q18.35 17.2 13.4 21.85 10.7 24.35 6.2 26.9 L5.7 27.4 Q4.75 27.9 3.7 28.55 -0.7 31.3 -2.0 31.85 L-3.3 31.5 Q-3.2 31.3 -3.35 31.15 L-8.9 24.1 Q-13.0 18.7 -14.05 16.5 L-13.45 14.9 Q-12.35 11.8 -12.35 10.95 -12.35 9.65 -2.3 5.85 L8.25 1.7 Q-0.15 -1.25 -3.0 -1.45 L-3.95 -3.0 -5.45 -5.7 Q-5.45 -6.75 -3.6 -11.95 -3.6 -12.7 -3.75 -12.5 L-4.85 -12.65 Q-5.9 -12.65 -7.45 -11.25 -8.85 -9.95 -9.9 -8.1 L-6.35 -3.25 -4.45 -0.65 -3.8 0.75 -2.7 2.45 Q-7.95 6.3 -16.1 10.2 L-23.1 13.4 Q-23.1 14.15 -22.95 13.85 L-20.25 15.6 -17.15 16.5 Q-16.8 16.9 -16.8 17.9 L-16.8 18.0 -16.8 18.25 Q-16.85 19.3 -15.95 19.95 L-15.85 19.9 -15.2 20.95 -14.55 21.85 -13.65 24.0 Q-10.2 31.55 -5.4 32.15 L0.45 38.0 0.15 40.0 -0.15 42.15 -0.15 42.25 -0.15 42.4 Q-0.15 43.25 0.6 43.5 1.1 42.8 2.75 41.6 3.9 40.75 3.9 39.5 L3.65 38.9 3.5 38.9 3.0 37.4 Q2.6 36.65 2.6 35.85 2.6 35.0 3.15 33.55 L3.45 32.35 3.75 32.45 8.8 27.7 10.2 26.3 10.2 26.25 14.3 23.55 15.1 22.95 17.5 21.05 18.65 20.25 21.45 19.8 21.55 19.75 M23.25 21.35 L20.1 21.7 17.0 24.3 10.35 29.05 6.0 32.4 4.8 34.4 5.2 35.9 5.45 39.3 Q9.1 41.25 15.35 41.25 23.65 41.25 28.15 33.8 31.2 28.8 31.2 24.9 L30.95 23.6 30.95 23.4 30.35 22.75 30.2 22.75 29.85 22.55 Q28.3 21.75 24.4 21.55 L23.25 21.35 M27.2 19.2 L30.0 20.95 Q31.4 21.8 32.0 21.8 L35.25 17.75 36.4 16.85 Q37.8 15.6 37.8 15.0 L37.75 14.55 37.65 14.7 Q36.35 14.35 34.8 15.7 L34.5 16.0 Q33.9 16.1 33.45 16.5 32.1 17.75 27.9 18.0 27.15 18.4 27.15 18.75 L27.2 19.2 M13.0 4.6 Q11.4 4.45 11.0 5.05 L9.5 5.0 5.4 5.35 Q1.15 6.0 -3.95 8.05 L-6.9 9.4 -6.9 9.85 -8.85 12.65 Q-10.85 15.4 -10.85 17.7 -10.85 19.65 -8.7 22.75 -5.85 26.9 -1.65 26.9 L2.45 26.65 2.4 26.6 Q7.65 23.9 11.1 21.3 14.35 18.85 15.9 14.75 L17.1 11.45 17.1 11.1 17.05 9.15 16.2 6.65 Q15.25 4.8 13.0 4.6 M2.15 39.5 L2.0 39.6 2.0 39.4 2.15 39.5 M-8.6 -3.2 Q-11.6 -7.1 -12.0 -5.1 -15.4 -4.2 -19.1 0.2 -23.1 4.85 -23.1 7.65 -23.1 8.2 -22.3 9.0 L-21.65 9.6 -19.1 9.6 Q-14.8 8.2 -11.05 6.55 -5.15 4.0 -5.15 2.65 -5.15 1.3 -8.6 -3.2 M-13.2 17.0 L-13.2 16.7 -13.3 17.1 -13.2 17.0 M-14.45 40.7 L-14.3 40.8 Q-8.8 44.25 -4.45 44.25 L-3.85 44.25 -2.85 42.5 -1.35 39.7 Q-1.35 38.4 -6.55 34.05 -8.75 32.2 -10.0 31.4 L-11.6 29.0 -16.5 22.2 -17.65 20.45 -18.75 18.65 Q-19.95 17.1 -22.85 17.05 L-25.1 17.15 -26.45 19.25 -26.55 19.8 Q-26.55 21.35 -25.9 23.5 L-25.5 24.65 -23.6 29.55 Q-22.45 32.45 -21.3 34.25 -19.45 37.15 -16.8 38.75 L-17.0 39.15 -16.85 39.25 -14.45 40.7" fill="#4d3415" fill-rule="evenodd" stroke="none"/>
    <path d="M18.15 -12.55 Q18.7 -12.8 19.3 -12.15 20.25 -11.05 20.25 -9.4 20.25 -7.15 17.7 -4.25 L13.2 0.15 11.25 0.15 11.1 0.0 11.0 0.0 7.4 -0.4 Q5.0 -0.95 2.05 -2.05 -2.6 -3.75 -3.65 -5.45 L-4.0 -6.5 Q-4.0 -10.3 -2.0 -12.05 L-1.7 -12.25 -1.7 -12.3 Q-0.65 -13.0 -0.25 -13.65 L5.3 -14.7 Q14.7 -13.95 17.25 -13.0 L18.15 -12.55 M-27.7 22.35 L-27.6 22.0 -26.5 26.15 -26.2 27.15 -25.3 29.85 Q-24.05 33.35 -22.75 35.65 L-23.8 34.1 Q-25.4 31.6 -26.35 28.65 -27.1 26.45 -27.5 23.95 L-27.65 23.85 -27.75 22.4 -27.7 22.35 M-18.95 39.55 L-18.55 39.7 -14.65 42.4 -15.45 41.95 -16.6 41.25 -18.95 39.55 M2.3 -12.25 L1.15 -11.65 Q-1.5 -10.0 -1.5 -8.0 -1.5 -6.3 -0.8 -5.5 -0.3 -4.95 1.0 -4.5 L1.3 -4.5 Q3.05 -2.9 8.35 -2.65 L8.4 -2.6 8.7 -2.6 10.65 -2.6 Q13.35 -2.6 16.5 -10.2 16.5 -11.15 15.55 -12.0 14.45 -12.95 12.5 -13.35 L3.75 -13.35 Q2.3 -12.8 2.3 -12.3 L2.3 -12.25 M28.4 -0.5 L29.8 -0.3 31.35 -0.15 31.55 0.35 Q32.85 1.05 33.3 2.4 L34.45 5.95 35.3 9.9 35.25 11.35 34.85 12.2 34.4 13.95 33.8 15.4 33.05 15.65 Q31.7 17.1 28.05 17.1 L22.55 16.8 Q22.55 16.2 21.75 15.5 L21.75 14.8 21.55 14.55 21.25 13.55 Q21.0 12.45 21.0 10.5 L21.1 8.95 21.65 4.95 22.3 1.6 23.15 1.0 Q23.4 -0.05 25.15 -0.4 L25.75 -0.85 28.4 -0.5 M32.1 3.2 L31.45 2.3 Q30.45 1.2 29.2 1.1 L29.1 1.1 29.0 1.05 Q27.2 0.95 25.9 2.8 24.5 4.85 24.5 8.25 24.5 11.85 24.65 14.0 L24.8 14.05 30.75 14.9 Q31.8 14.85 32.1 13.9 32.55 12.6 32.9 12.35 L33.25 12.5 33.5 9.5 Q33.5 5.55 32.1 3.2 M23.25 21.35 L24.4 21.55 Q28.3 21.75 29.85 22.55 L30.2 22.75 30.35 22.75 30.95 23.4 30.95 23.6 31.2 24.9 Q31.2 28.8 28.15 33.8 23.65 41.25 15.35 41.25 9.1 41.25 5.45 39.3 L5.2 35.9 4.8 34.4 6.0 32.4 10.35 29.05 17.0 24.3 20.1 21.7 23.25 21.35 M15.95 39.6 L18.0 39.45 23.55 36.05 24.7 35.2 26.4 32.45 Q29.3 26.85 29.3 25.3 29.3 24.2 28.5 23.9 L24.95 23.3 Q22.5 23.85 19.0 25.6 L16.35 27.1 13.9 28.9 10.45 31.4 Q7.5 34.0 7.5 35.35 L8.5 38.0 9.0 38.6 11.9 39.35 15.3 39.6 15.95 39.6 M13.0 4.6 Q15.25 4.8 16.2 6.65 L17.05 9.15 17.1 11.1 17.1 11.45 15.9 14.75 Q14.35 18.85 11.1 21.3 7.65 23.9 2.4 26.6 L2.45 26.65 -1.65 26.9 Q-5.85 26.9 -8.7 22.75 -10.85 19.65 -10.85 17.7 -10.85 15.4 -8.85 12.65 L-6.9 9.85 -6.9 9.4 -3.95 8.05 Q1.15 6.0 5.4 5.35 L9.5 5.0 11.0 5.05 Q11.4 4.45 13.0 4.6 M13.5 10.5 L11.0 7.5 Q-1.15 7.55 -6.7 11.1 L-7.5 12.95 Q-8.5 15.1 -8.5 15.8 -8.5 19.35 -7.2 21.85 -4.75 26.5 1.55 26.3 L1.65 26.35 Q4.4 25.1 7.1 22.55 L7.95 21.75 8.45 21.25 Q10.25 19.25 11.0 17.85 14.5 14.25 14.5 12.5 14.5 12.0 13.5 10.5 M-9.9 4.35 L-9.75 4.5 Q-7.35 4.0 -7.35 2.55 -7.35 -2.0 -12.05 -2.25 -13.95 -2.35 -15.3 -1.5 -16.45 -0.8 -16.7 0.2 L-16.75 0.2 Q-20.25 3.05 -20.25 6.0 L-20.25 6.85 Q-19.95 7.65 -18.5 7.65 -18.0 7.65 -17.0 7.1 L-16.15 6.5 -15.0 6.5 -14.45 6.35 -14.4 6.4 -11.5 5.15 -10.0 4.45 -9.9 4.35 M-8.6 -3.2 Q-5.15 1.3 -5.15 2.65 -5.15 4.0 -11.05 6.55 -14.8 8.2 -19.1 9.6 L-21.65 9.6 -22.3 9.0 Q-23.1 8.2 -23.1 7.65 -23.1 4.85 -19.1 0.2 -15.4 -4.2 -12.0 -5.1 -11.6 -7.1 -8.6 -3.2 M-25.9 23.5 Q-26.55 21.35 -26.55 19.8 L-26.45 19.25 -25.1 17.15 -22.85 17.05 Q-19.95 17.1 -18.75 18.65 L-17.65 20.45 -16.5 22.2 -11.6 29.0 -10.0 31.4 Q-8.75 32.2 -6.55 34.05 -1.35 38.4 -1.35 39.7 L-2.85 42.5 -3.85 44.25 -4.45 44.25 Q-8.8 44.25 -14.3 40.8 L-14.45 40.7 Q-13.95 40.9 -13.4 41.25 -10.35 43.0 -7.25 43.05 L-7.0 43.0 -6.65 42.1 Q-6.5 41.75 -6.5 40.25 L-7.9 38.0 -9.55 36.05 Q-11.3 32.25 -16.3 26.7 L-16.35 26.6 Q-17.4 24.25 -18.3 22.95 -20.25 20.15 -22.9 19.75 -25.55 19.3 -25.55 21.9 L-25.5 22.05 -25.9 23.5 M-13.2 17.0 L-13.3 17.1 -13.2 16.7 -13.2 17.0 M-16.85 39.25 L-17.0 39.15 -16.85 39.25" fill="#ff3800" fill-rule="evenodd" stroke="none"/>
    <path d="M2.3 -12.25 L2.3 -12.3 Q2.3 -12.8 3.75 -13.35 L12.5 -13.35 Q14.45 -12.95 15.55 -12.0 16.5 -11.15 16.5 -10.2 13.35 -2.6 10.65 -2.6 L8.7 -2.6 8.4 -2.6 8.35 -2.65 Q3.05 -2.9 1.3 -4.5 L1.0 -4.5 Q-0.3 -4.95 -0.8 -5.5 -1.5 -6.3 -1.5 -8.0 -1.5 -10.0 1.15 -11.65 L2.3 -12.25 M1.2 -7.8 Q1.95 -6.85 3.0 -6.5 L11.0 -6.5 Q12.4 -6.95 12.8 -7.35 13.5 -8.05 13.5 -9.75 L13.45 -11.05 12.35 -11.55 6.0 -11.55 Q2.05 -10.45 0.5 -9.25 0.5 -8.6 1.2 -7.8 M32.1 3.2 Q33.5 5.55 33.5 9.5 L33.25 12.5 32.9 12.35 Q32.55 12.6 32.1 13.9 31.8 14.85 30.75 14.9 L24.8 14.05 24.65 14.0 Q24.5 11.85 24.5 8.25 24.5 4.85 25.9 2.8 27.2 0.95 29.0 1.05 L29.1 1.1 29.2 1.1 Q30.45 1.2 31.45 2.3 L32.1 3.2 M29.5 4.85 Q26.5 3.75 26.5 8.85 26.5 11.5 26.75 13.0 L27.2 13.25 29.5 13.5 Q31.45 13.5 32.05 12.55 32.5 11.8 32.5 9.5 32.5 5.95 29.5 4.85 M11.9 39.35 L9.0 38.6 8.5 38.0 7.5 35.35 Q7.5 34.0 10.45 31.4 L13.9 28.9 16.35 27.1 19.0 25.6 Q22.5 23.85 24.95 23.3 L28.5 23.9 Q29.3 24.2 29.3 25.3 29.3 26.85 26.4 32.45 L24.7 35.2 23.55 36.05 18.0 39.45 15.95 39.6 Q19.05 37.95 23.0 34.45 28.5 29.55 28.5 27.25 L28.25 25.45 28.0 25.0 Q23.2 25.0 17.2 29.85 11.5 34.4 11.5 37.35 11.5 38.65 11.9 39.35 M13.5 10.5 Q14.5 12.0 14.5 12.5 14.5 14.25 11.0 17.85 10.25 19.25 8.45 21.25 L7.95 21.75 7.1 22.55 Q4.4 25.1 1.65 26.35 L1.55 26.3 Q-4.75 26.5 -7.2 21.85 -8.5 19.35 -8.5 15.8 -8.5 15.1 -7.5 12.95 L-6.7 11.1 Q-1.15 7.55 11.0 7.5 L13.5 10.5 M8.9 17.0 Q9.75 15.85 10.25 15.6 L10.5 13.85 Q10.5 9.5 7.05 8.8 4.1 8.2 -0.5 10.3 -3.1 11.5 -5.35 13.15 L-5.75 14.7 -6.15 16.25 Q-6.15 19.65 -2.95 22.5 L-0.3 24.85 Q3.2 23.95 6.3 20.3 L8.9 17.0 M-14.45 6.35 L-15.0 6.5 -16.15 6.5 -17.0 7.1 Q-18.0 7.65 -18.5 7.65 -19.95 7.65 -20.25 6.85 L-20.25 6.0 Q-20.25 3.05 -16.75 0.2 L-16.7 0.2 Q-16.45 -0.8 -15.3 -1.5 -13.95 -2.35 -12.05 -2.25 -7.35 -2.0 -7.35 2.55 -7.35 4.0 -9.75 4.5 L-9.9 4.35 -10.5 3.55 Q-10.5 3.05 -10.1 2.85 L-9.5 2.6 -9.5 2.2 -10.15 1.05 -10.35 0.95 Q-13.5 0.6 -14.85 0.9 -15.35 1.7 -15.8 1.7 L-15.9 1.7 -16.3 2.05 -16.5 3.35 -16.3 4.9 -15.8 5.7 -14.45 6.35 M-25.9 23.5 L-25.5 22.05 -25.55 21.9 Q-25.55 19.3 -22.9 19.75 -20.25 20.15 -18.3 22.95 -17.4 24.25 -16.35 26.6 L-16.3 26.7 Q-11.3 32.25 -9.55 36.05 L-7.9 38.0 -6.5 40.25 Q-6.5 41.75 -6.65 42.1 L-7.0 43.0 -7.25 43.05 Q-10.35 43.0 -13.4 41.25 -13.95 40.9 -14.45 40.7 L-16.85 39.25 -17.0 39.15 -16.8 38.75 Q-19.45 37.15 -21.3 34.25 -22.45 32.45 -23.6 29.55 L-25.5 24.65 -25.9 23.5 M-24.3 24.3 Q-24.3 28.6 -18.5 35.0 -14.6 39.3 -11.35 40.8 L-11.15 40.55 -10.35 40.65 -9.75 40.5 -9.6 40.2 -9.6 39.7 Q-9.6 36.55 -14.6 30.5 -19.0 25.2 -21.15 24.3 L-21.75 22.65 Q-22.9 22.3 -24.05 22.65 L-24.05 22.95 -24.3 24.3" fill="#ff9a00" fill-rule="evenodd" stroke="none"/>
    <path d="M1.2 -7.8 Q0.5 -8.6 0.5 -9.25 2.05 -10.45 6.0 -11.55 L12.35 -11.55 13.45 -11.05 13.5 -9.75 Q13.5 -8.05 12.8 -7.35 12.4 -6.95 11.0 -6.5 L3.0 -6.5 Q1.95 -6.85 1.2 -7.8 M29.5 4.85 Q32.5 5.95 32.5 9.5 32.5 11.8 32.05 12.55 31.45 13.5 29.5 13.5 L27.2 13.25 26.75 13.0 Q26.5 11.5 26.5 8.85 26.5 3.75 29.5 4.85 M11.9 39.35 Q11.5 38.65 11.5 37.35 11.5 34.4 17.2 29.85 23.2 25.0 28.0 25.0 L28.25 25.45 28.5 27.25 Q28.5 29.55 23.0 34.45 19.05 37.95 15.95 39.6 L15.3 39.6 11.9 39.35 M8.9 17.0 L6.3 20.3 Q3.2 23.95 -0.3 24.85 L-2.95 22.5 Q-6.15 19.65 -6.15 16.25 L-5.75 14.7 -5.35 13.15 Q-3.1 11.5 -0.5 10.3 4.1 8.2 7.05 8.8 10.5 9.5 10.5 13.85 L10.25 15.6 Q9.75 15.85 8.9 17.0 M-9.9 4.35 L-10.0 4.45 -11.5 5.15 -14.4 6.4 -14.45 6.35 -15.8 5.7 -16.3 4.9 -16.5 3.35 -16.3 2.05 -15.9 1.7 -15.8 1.7 Q-15.35 1.7 -14.85 0.9 -13.5 0.6 -10.35 0.95 L-10.15 1.05 -9.5 2.2 -9.5 2.6 -10.1 2.85 Q-10.5 3.05 -10.5 3.55 L-9.9 4.35 M-24.3 24.3 L-24.05 22.95 -24.05 22.65 Q-22.9 22.3 -21.75 22.65 L-21.15 24.3 Q-19.0 25.2 -14.6 30.5 -9.6 36.55 -9.6 39.7 L-9.6 40.2 -9.75 40.5 -10.35 40.65 -11.15 40.55 -11.35 40.8 Q-14.6 39.3 -18.5 35.0 -24.3 28.6 -24.3 24.3" fill="#ffd200" fill-rule="evenodd" stroke="none"/>
    <path d="M26.85 -3.6 Q26.15 -2.65 22.4 -1.3 L21.75 -0.35 Q19.95 2.3 19.95 4.85 L19.75 5.1 18.95 5.35 Q17.55 5.35 17.25 4.0 17.15 2.4 16.8 1.9 L16.8 1.7 Q15.95 1.7 15.6 1.35 L15.5 0.85 Q18.5 -2.7 23.25 -9.9 24.2 -9.25 24.4 -6.65 24.55 -4.35 26.85 -3.6 M21.55 19.75 L21.45 19.8 18.65 20.25 17.5 21.05 15.1 22.95 14.3 23.55 10.2 26.25 10.2 26.3 8.8 27.7 3.75 32.45 3.45 32.35 3.15 33.55 Q2.6 35.0 2.6 35.85 2.6 36.65 3.0 37.4 L3.5 38.9 3.65 38.9 3.9 39.5 Q3.9 40.75 2.75 41.6 1.1 42.8 0.6 43.5 -0.15 43.25 -0.15 42.4 L-0.15 42.25 -0.15 42.15 0.15 40.0 0.45 38.0 -5.4 32.15 Q-10.2 31.55 -13.65 24.0 L-14.55 21.85 -15.2 20.95 -15.85 19.9 -15.95 19.95 Q-16.85 19.3 -16.8 18.25 L-16.8 18.0 -16.8 17.9 Q-16.8 16.9 -17.15 16.5 L-20.25 15.6 -22.95 13.85 Q-23.1 14.15 -23.1 13.4 L-16.1 10.2 Q-7.95 6.3 -2.7 2.45 L-3.8 0.75 -4.45 -0.65 -6.35 -3.25 -9.9 -8.1 Q-8.85 -9.95 -7.45 -11.25 -5.9 -12.65 -4.85 -12.65 L-3.75 -12.5 Q-3.6 -12.7 -3.6 -11.95 -5.45 -6.75 -5.45 -5.7 L-3.95 -3.0 -3.0 -1.45 Q-0.15 -1.25 8.25 1.7 L-2.3 5.85 Q-12.35 9.65 -12.35 10.95 -12.35 11.8 -13.45 14.9 L-14.05 16.5 Q-13.0 18.7 -8.9 24.1 L-3.35 31.15 Q-3.2 31.3 -3.3 31.5 L-2.0 31.85 Q-0.7 31.3 3.7 28.55 4.75 27.9 5.7 27.4 L6.2 26.9 Q10.7 24.35 13.4 21.85 18.35 17.2 18.9 11.35 L19.1 11.1 19.8 11.8 19.95 12.25 19.55 14.55 19.75 14.8 21.25 17.4 23.4 18.95 22.4 19.95 21.55 19.75 M27.2 19.2 L27.15 18.75 Q27.15 18.4 27.9 18.0 32.1 17.75 33.45 16.5 33.9 16.1 34.5 16.0 L34.8 15.7 Q36.35 14.35 37.65 14.7 L37.75 14.55 37.8 15.0 Q37.8 15.6 36.4 16.85 L35.25 17.75 32.0 21.8 Q31.4 21.8 30.0 20.95 L27.2 19.2 M2.15 39.5 L2.0 39.4 2.0 39.6 2.15 39.5" fill="#663d09" fill-rule="evenodd" stroke="none"/>
  </g>
</svg>
