<?xml version="1.0" encoding="UTF-8" standalone="no"?>
<svg xmlns:ffdec="https://www.free-decompiler.com/flash" xmlns:xlink="http://www.w3.org/1999/xlink" ffdec:objectType="shape" height="131.85px" width="111.9px" xmlns="http://www.w3.org/2000/svg">
  <g transform="matrix(1.0, 0.0, 0.0, 1.0, 56.15, 135.55)">
    <path d="M24.75 -116.2 Q31.75 -118.95 37.8 -115.5 69.5 -97.25 45.2 -69.6 59.6 -42.8 33.6 -26.25 29.9 -16.6 21.55 -10.9 -1.8 5.3 -19.1 -14.9 -19.9 -14.5 -20.75 -14.4 -53.3 -6.1 -50.05 -41.85 L-51.45 -43.4 Q-62.5 -57.55 -47.7 -70.0 -50.65 -72.85 -51.45 -76.25 -59.25 -109.15 -24.2 -105.0 -25.1 -113.8 -20.15 -120.3 4.25 -152.75 24.75 -116.2" fill="#1a1a1a" fill-opacity="0.47058824" fill-rule="evenodd" stroke="none"/>
  </g>
</svg>
