<?xml version="1.0" encoding="UTF-8" standalone="no"?>
<svg xmlns:ffdec="https://www.free-decompiler.com/flash" xmlns:xlink="http://www.w3.org/1999/xlink" ffdec:objectType="shape" height="241.35px" width="99.05px" xmlns="http://www.w3.org/2000/svg">
  <g transform="matrix(1.0, 0.0, 0.0, 1.0, 52.1, 227.55)">
    <path d="M14.6 -136.55 Q14.7 -133.3 17.15 -131.65 30.1 -122.95 36.0 -109.9 38.05 -99.55 30.4 -92.2 13.7 -76.35 19.8 -59.35 20.5 -59.35 21.15 -59.75 22.1 -60.0 22.7 -60.75 24.65 -62.8 23.5 -65.6 L23.95 -66.25 Q38.5 -47.5 39.35 -24.2 40.6 9.05 12.1 13.4 L8.6 13.8 12.1 10.0 Q18.6 1.85 19.8 -9.15 22.15 -30.55 5.45 -42.8 -2.2 -48.4 -10.25 -43.4 -18.55 -38.3 -23.65 -32.3 -38.5 -15.05 -27.45 9.55 -36.8 6.7 -41.9 -1.9 -51.05 -17.5 -52.0 -32.3 -53.65 -56.8 -32.75 -79.0 -42.0 -67.2 -33.65 -54.85 -31.45 -51.55 -28.25 -52.3 1.15 -59.75 -7.3 -92.75 L-6.5 -93.0 Q-2.7 -96.85 -3.8 -101.8 -10.9 -135.75 19.7 -150.8 14.35 -144.7 14.6 -136.55 M1.65 -227.55 Q0.8 -225.9 0.3 -224.05 -8.8 -192.35 24.25 -178.3 L26.9 -176.3 Q57.9 -148.8 41.0 -113.1 42.95 -136.7 23.65 -150.65 11.7 -159.25 -3.0 -157.45 -40.35 -152.8 -26.5 -118.15 -29.35 -118.05 -31.75 -119.85 -61.75 -142.8 -43.7 -178.1 L-42.85 -177.75 Q-29.1 -210.2 1.65 -227.55 M8.95 -16.25 Q10.4 7.85 -9.25 4.75 -12.05 4.45 -11.65 1.3 -10.45 -8.65 -4.3 -16.75 -19.1 -22.55 -11.9 -32.3 -10.05 -34.8 -6.75 -37.6 -1.3 -42.1 2.85 -36.65 4.45 -34.55 5.6 -32.3 9.35 -25.1 8.95 -16.25" fill="url(#gradient0)" fill-rule="evenodd" stroke="none"/>
  </g>
  <defs>
    <radialGradient cx="0" cy="0" gradientTransform="matrix(0.1142, 0.0, 0.0, 0.1142, -0.55, -12.65)" gradientUnits="userSpaceOnUse" id="gradient0" r="819.2" spreadMethod="pad">
      <stop offset="0.0" stop-color="#ffff02"/>
      <stop offset="0.6901960784313725" stop-color="#ff9900"/>
      <stop offset="1.0" stop-color="#ff3300"/>
    </radialGradient>
  </defs>
</svg>
