<?xml version="1.0" encoding="UTF-8" standalone="no"?>
<svg xmlns:ffdec="https://www.free-decompiler.com/flash" xmlns:xlink="http://www.w3.org/1999/xlink" ffdec:objectType="shape" height="46.65px" width="66.35px" xmlns="http://www.w3.org/2000/svg">
  <g transform="matrix(1.0, 0.0, 0.0, 1.0, -187.1, -8.4)">
    <path d="M252.9 38.1 L252.3 40.4 Q252.3 43.65 247.75 47.9 242.95 52.4 238.45 52.4 238.05 52.4 237.85 52.1 L237.85 52.0 237.75 51.7 240.55 47.0 240.9 44.95 Q240.9 44.0 240.55 43.65 237.65 47.85 232.45 50.95 225.65 55.05 217.95 55.05 L213.0 54.55 209.85 54.05 Q207.75 54.05 204.95 52.95 202.25 51.9 201.15 50.75 L201.25 50.5 210.6 50.35 213.5 49.95 215.2 49.45 216.75 49.0 217.7 48.6 218.75 48.25 219.8 47.9 Q220.4 47.55 220.5 47.55 221.85 47.55 223.3 46.6 L225.25 44.85 225.1 44.55 224.85 44.4 224.45 44.35 Q217.9 48.0 217.0 48.0 L214.2 48.6 208.95 49.2 Q199.95 49.2 193.9 44.65 191.55 42.9 190.05 40.75 L188.4 37.25 187.7 35.7 Q187.1 33.45 187.1 30.85 187.1 28.45 187.55 26.25 188.95 18.8 195.3 14.05 199.1 11.2 204.2 9.6 203.15 10.7 202.05 12.15 198.7 16.65 198.7 19.95 L198.8 20.3 198.9 20.45 Q200.15 16.65 208.6 12.85 217.0 9.1 223.9 9.1 L229.0 8.45 229.3 8.4 231.95 8.95 Q237.65 10.45 242.35 14.1 L241.85 14.1 233.45 15.0 228.3 15.95 228.25 16.2 Q234.9 14.5 247.5 24.2 L252.5 28.25 252.8 29.4 253.1 31.55 253.45 33.7 Q253.45 35.8 252.9 38.1" fill="#ffffff" fill-opacity="0.08627451" fill-rule="evenodd" stroke="none"/>
    <path d="M224.55 19.1 Q233.75 20.3 239.1 25.65 244.45 31.05 242.8 37.5 241.2 43.95 233.55 47.7 225.85 51.45 216.65 50.3 207.5 49.2 202.15 43.8 196.8 38.45 198.4 31.95 200.05 25.45 207.7 21.7 215.4 17.95 224.55 19.1" fill="#d9f5f9" fill-opacity="0.0" fill-rule="evenodd" stroke="none"/>
  </g>
</svg>
