<?xml version="1.0" encoding="UTF-8" standalone="no"?>
<svg xmlns:ffdec="https://www.free-decompiler.com/flash" xmlns:xlink="http://www.w3.org/1999/xlink" ffdec:objectType="shape" height="98.85px" width="127.8px" xmlns="http://www.w3.org/2000/svg">
  <g transform="matrix(1.0, 0.0, 0.0, 1.0, -158.25, 9.3)">
    <path d="M251.85 12.55 Q247.0 12.55 239.4 13.85 L231.8 15.25 231.7 15.6 Q241.55 13.1 260.25 27.45 L267.6 33.5 268.05 35.2 Q268.05 36.1 268.55 38.4 L269.05 41.55 Q269.05 44.65 268.2 48.05 L267.35 51.5 Q267.35 56.3 260.6 62.6 253.5 69.3 246.85 69.3 246.25 69.3 245.95 68.8 L245.9 68.65 245.8 68.25 Q249.95 61.65 249.95 61.25 L250.45 58.2 Q250.45 56.85 249.95 56.3 245.65 62.5 237.9 67.15 227.85 73.2 216.45 73.2 L209.1 72.45 204.45 71.7 Q201.3 71.7 197.15 70.05 193.15 68.5 191.55 66.8 L191.7 66.45 205.55 66.2 209.85 65.6 212.35 64.9 Q214.1 64.2 214.7 64.2 L216.1 63.65 Q217.35 63.1 217.6 63.1 L219.2 62.6 220.2 62.1 Q222.2 62.1 224.35 60.7 226.05 59.6 227.25 58.05 L227.0 57.6 226.65 57.4 226.1 57.35 Q216.4 62.75 215.05 62.75 L210.85 63.65 203.1 64.55 Q189.8 64.55 180.8 57.8 177.35 55.2 175.1 52.0 L172.65 46.8 171.65 44.55 Q170.75 41.2 170.75 37.35 170.75 33.75 171.4 30.5 173.5 19.5 182.85 12.45 188.5 8.2 196.1 5.85 L192.9 9.6 Q187.95 16.3 187.95 21.2 L188.05 21.7 188.25 21.95 Q190.1 16.3 202.6 10.7 215.0 5.1 225.25 5.1 L232.8 4.15 233.25 4.1 237.15 4.9 Q245.65 7.1 252.6 12.55 L251.85 12.55" fill="#ffffff" fill-opacity="0.49803922" fill-rule="evenodd" stroke="none"/>
    <path d="M220.35 -9.05 L208.95 1.65 218.85 -2.85 Q229.4 -6.9 237.1 -6.9 248.2 -6.9 256.75 -4.3 261.1 -2.95 267.8 0.45 L268.05 0.75 265.2 0.35 260.95 1.0 Q257.85 1.7 255.65 2.6 255.9 2.85 255.6 3.05 256.0 3.45 257.55 3.45 264.4 3.45 271.05 15.15 271.05 16.05 269.85 16.4 L258.2 15.6 257.9 15.75 Q270.05 21.9 277.3 28.6 285.35 36.05 285.35 42.45 285.35 43.85 286.05 44.15 285.05 44.05 281.4 42.3 277.4 40.4 276.9 39.3 L276.6 39.15 Q277.4 40.1 277.4 40.4 277.4 40.8 279.05 42.9 280.65 45.0 280.65 48.6 280.65 51.3 279.55 56.25 278.4 61.2 278.4 61.7 278.4 65.2 270.6 69.75 263.9 73.65 262.35 73.65 261.5 73.65 260.5 72.9 L259.35 71.85 Q256.25 75.3 243.4 82.1 229.3 89.55 223.25 89.55 222.3 89.55 221.25 88.5 221.4 87.75 226.75 82.95 L232.2 78.2 Q232.5 77.7 231.75 77.7 L225.15 79.3 Q217.55 80.85 212.4 80.85 L201.2 80.25 Q192.15 80.25 176.55 74.45 163.1 69.45 160.7 67.2 162.6 66.2 165.65 66.2 L172.8 66.45 181.05 65.9 182.15 65.85 Q163.7 57.3 161.7 51.85 L161.7 51.8 161.5 50.35 161.75 49.25 162.05 48.15 161.85 48.0 161.25 49.05 161.15 48.3 160.8 41.9 Q158.25 31.0 158.25 28.95 158.25 22.3 162.2 16.9 164.7 13.5 171.8 7.4 L172.2 7.25 172.25 7.85 171.55 9.55 Q170.85 10.9 170.85 11.4 L169.95 13.5 170.1 14.55 170.4 15.45 Q176.05 4.2 195.1 -2.95 205.9 -6.95 220.1 -9.3 L220.35 -9.05 M251.85 12.55 L252.6 12.55 Q245.65 7.1 237.15 4.9 L233.25 4.1 232.8 4.15 225.25 5.1 Q215.0 5.1 202.6 10.7 190.1 16.3 188.25 21.95 L188.05 21.7 187.95 21.2 Q187.95 16.3 192.9 9.6 L196.1 5.85 Q188.5 8.2 182.85 12.45 173.5 19.5 171.4 30.5 170.75 33.75 170.75 37.35 170.75 41.2 171.65 44.55 L172.65 46.8 175.1 52.0 Q177.35 55.2 180.8 57.8 189.8 64.55 203.1 64.55 L210.85 63.65 215.05 62.75 Q216.4 62.75 226.1 57.35 L226.65 57.4 227.0 57.6 227.25 58.05 Q226.05 59.6 224.35 60.7 222.2 62.1 220.2 62.1 L219.2 62.6 217.6 63.1 Q217.35 63.1 216.1 63.65 L214.7 64.2 Q214.1 64.2 212.35 64.9 L209.85 65.6 205.55 66.2 191.7 66.45 191.55 66.8 Q193.15 68.5 197.15 70.05 201.3 71.7 204.45 71.7 L209.1 72.45 216.45 73.2 Q227.85 73.2 237.9 67.15 245.65 62.5 249.95 56.3 250.45 56.85 250.45 58.2 L249.95 61.25 Q249.95 61.65 245.8 68.25 L245.9 68.65 245.95 68.8 Q246.25 69.3 246.85 69.3 253.5 69.3 260.6 62.6 267.35 56.3 267.35 51.5 L268.2 48.05 Q269.05 44.65 269.05 41.55 L268.55 38.4 Q268.05 36.1 268.05 35.2 L267.6 33.5 260.25 27.45 Q241.55 13.1 231.7 15.6 L231.8 15.25 239.4 13.85 Q247.0 12.55 251.85 12.55" fill="#ffffff" fill-opacity="0.2" fill-rule="evenodd" stroke="none"/>
    <path d="M214.5 51.95 L209.0 58.5 Q206.7 61.15 206.7 62.7 L206.8 63.15 Q204.8 62.9 200.3 61.05 194.55 58.7 194.55 56.85 L194.35 55.9 194.15 54.9 Q194.15 50.1 198.4 46.6 201.65 43.9 204.45 43.55 L203.65 43.05 202.5 42.65 198.3 42.15 Q193.45 42.15 188.25 45.45 L184.05 48.75 Q183.6 48.75 183.5 48.55 L183.5 48.3 183.6 48.25 183.35 47.6 Q183.35 41.55 191.6 36.9 197.9 33.35 201.15 33.35 L202.35 33.5 200.5 32.9 197.55 32.4 194.55 32.55 Q194.9 32.4 194.7 32.15 195.2 31.45 200.75 28.8 200.05 28.7 199.45 28.2 198.95 27.8 198.3 27.8 L193.75 27.3 188.25 28.05 185.1 28.65 185.1 28.35 Q185.1 28.0 185.35 28.05 L185.6 27.75 Q185.6 25.7 192.05 23.1 199.6 20.1 209.4 20.1 L210.15 20.1 213.1 19.8 215.45 20.05 218.4 19.9 Q220.85 19.9 225.1 20.9 228.75 21.75 231.9 22.85 L237.65 24.55 Q239.8 25.5 243.5 28.85 L244.2 28.8 Q249.05 28.8 252.35 31.1 255.05 33.05 255.05 34.95 L253.05 37.7 252.9 38.35 Q252.75 38.65 252.75 39.0 252.75 41.85 252.55 42.5 252.35 43.1 252.3 44.45 L252.15 44.1 Q252.15 42.7 249.6 40.85 247.3 39.15 246.0 39.0 L247.5 41.0 Q248.7 42.95 248.7 43.95 L248.95 44.95 249.15 45.9 Q249.15 46.35 248.15 47.4 L246.95 48.45 Q246.05 47.3 244.75 46.4 243.4 45.5 242.55 45.5 242.1 45.5 241.9 45.7 L241.8 45.9 Q242.55 46.65 242.55 47.6 242.55 49.65 241.0 52.45 239.35 55.5 237.8 55.5 L237.25 55.3 237.3 55.05 237.35 54.95 237.15 54.35 236.85 53.65 236.55 53.15 236.25 50.75 235.95 49.45 235.65 48.15 Q235.65 45.95 233.1 44.95 229.5 43.45 228.95 42.9 229.2 43.2 228.9 43.35 L229.45 45.05 229.95 46.5 229.6 47.2 Q229.2 47.55 229.2 47.9 229.2 49.9 228.1 52.0 226.55 54.9 222.8 58.0 L216.3 62.4 217.8 60.15 217.5 59.05 217.2 57.9 216.15 55.8 Q216.15 54.8 215.5 53.9 214.8 53.0 214.5 51.95 L214.65 51.75 214.4 51.5 214.5 51.95 M223.6 21.8 L223.8 21.85 223.7 21.75 223.3 21.75 223.6 21.8 M230.8 27.8 L231.15 27.6 230.05 27.3 230.0 27.65 229.8 28.25 229.1 28.85 230.8 27.8 M232.55 29.7 L232.15 29.85 232.7 29.75 232.55 29.7" fill="url(#gradient0)" fill-rule="evenodd" stroke="none"/>
    <path d="M243.3 24.0 L243.75 24.2 243.85 24.2 Q250.05 25.05 257.25 28.7 267.3 33.75 267.3 38.85 L267.55 39.65 267.8 40.4 267.75 40.85 Q266.7 41.4 265.1 41.4 L261.35 41.25 257.0 41.7 262.3 45.35 Q267.45 49.25 267.45 51.6 267.45 55.1 264.3 58.05 260.95 60.65 260.4 61.35 L260.7 60.8 261.0 60.0 Q261.0 58.95 256.3 56.0 252.05 53.35 251.1 53.1 L250.95 53.45 254.25 56.0 Q255.45 56.75 255.45 57.5 L257.1 60.75 Q257.1 66.55 251.0 69.3 L238.35 73.1 Q246.5 70.55 249.4 67.4 251.3 65.3 251.3 61.8 251.3 60.7 251.0 60.45 L250.65 60.6 Q249.8 62.2 245.45 64.45 241.1 66.75 238.95 66.75 237.35 66.75 236.4 67.25 L236.7 67.05 Q237.7 66.5 238.35 65.6 L238.85 64.5 238.35 62.35 Q237.8 60.6 237.8 60.3 237.8 59.6 237.1 58.45 L236.4 57.3 Q236.4 56.35 235.25 55.65 235.5 55.95 235.2 56.1 235.0 58.3 230.55 63.0 L229.25 64.35 222.95 70.2 Q220.75 72.1 213.6 74.6 L208.4 76.5 210.45 71.6 212.3 67.35 212.35 67.0 212.75 66.75 212.4 66.85 212.35 67.0 210.15 68.1 Q208.6 68.85 207.6 68.85 L206.8 69.1 205.95 69.3 204.0 68.85 202.5 68.4 Q199.95 68.4 196.7 65.3 193.95 62.65 193.95 61.95 L194.2 61.55 195.05 61.05 Q187.7 64.55 187.7 65.7 L187.55 66.55 187.35 67.35 187.75 68.15 Q187.95 68.75 187.25 68.45 L184.6 65.85 182.85 64.05 182.35 61.65 Q181.8 60.1 181.8 59.75 181.8 55.75 185.25 52.95 186.65 51.8 189.45 50.55 L188.85 50.45 186.2 51.2 Q184.1 51.7 184.1 52.05 L181.5 54.75 180.95 55.75 Q180.3 56.45 179.55 56.45 177.45 56.45 177.45 55.35 L177.15 54.55 Q176.85 54.15 176.85 53.75 L177.75 52.55 Q177.75 51.65 178.95 51.6 L178.7 51.35 176.55 51.3 174.95 50.25 Q173.85 49.2 173.85 48.6 173.85 45.4 179.55 41.0 184.8 36.95 187.65 36.75 187.2 36.2 185.6 36.2 183.95 36.2 180.15 37.4 L176.4 38.55 Q175.05 38.55 170.3 41.9 165.65 45.15 165.45 46.4 L165.8 45.25 166.1 43.95 Q166.1 39.05 168.95 36.0 L170.85 34.15 Q171.75 33.3 171.75 32.7 171.75 32.4 172.8 31.85 173.85 31.3 173.85 30.15 173.85 29.45 178.8 26.4 183.4 23.55 186.05 22.4 190.8 20.35 204.5 15.15 L205.9 15.0 210.75 12.15 215.9 8.35 221.85 14.3 222.4 14.4 225.35 15.0 226.75 13.8 Q228.5 12.65 229.8 12.65 233.05 12.65 236.1 13.85 L238.15 14.8 Q242.35 17.1 244.1 20.75 240.85 21.1 236.65 22.75 L237.95 22.9 243.3 24.0 M214.5 51.95 Q214.8 53.0 215.5 53.9 216.15 54.8 216.15 55.8 L217.2 57.9 217.5 59.05 217.8 60.15 216.3 62.4 222.8 58.0 Q226.55 54.9 228.1 52.0 229.2 49.9 229.2 47.9 229.2 47.55 229.6 47.2 L229.95 46.5 229.45 45.05 228.9 43.35 Q229.2 43.2 228.95 42.9 229.5 43.45 233.1 44.95 235.65 45.95 235.65 48.15 L235.95 49.45 236.25 50.75 236.55 53.15 236.85 53.65 237.15 54.35 237.35 54.95 237.3 55.05 237.25 55.3 237.8 55.5 Q239.35 55.5 241.0 52.45 242.55 49.65 242.55 47.6 242.55 46.65 241.8 45.9 L241.9 45.7 Q242.1 45.5 242.55 45.5 243.4 45.5 244.75 46.4 246.05 47.3 246.95 48.45 L248.15 47.4 Q249.15 46.35 249.15 45.9 L248.95 44.95 248.7 43.95 Q248.7 42.95 247.5 41.0 L246.0 39.0 Q247.3 39.15 249.6 40.85 252.15 42.7 252.15 44.1 L252.3 44.45 Q252.35 43.1 252.55 42.5 252.75 41.85 252.75 39.0 252.75 38.65 252.9 38.35 L253.05 37.7 255.05 34.95 Q255.05 33.05 252.35 31.1 249.05 28.8 244.2 28.8 L243.5 28.85 Q239.8 25.5 237.65 24.55 L231.9 22.85 Q228.75 21.75 225.1 20.9 220.85 19.9 218.4 19.9 L215.45 20.05 213.1 19.8 210.15 20.1 209.4 20.1 Q199.6 20.1 192.05 23.1 185.6 25.7 185.6 27.75 L185.35 28.05 Q185.1 28.0 185.1 28.35 L185.1 28.65 188.25 28.05 193.75 27.3 198.3 27.8 Q198.95 27.8 199.45 28.2 200.05 28.7 200.75 28.8 195.2 31.45 194.7 32.15 194.9 32.4 194.55 32.55 L197.55 32.4 200.5 32.9 202.35 33.5 201.15 33.35 Q197.9 33.35 191.6 36.9 183.35 41.55 183.35 47.6 L183.6 48.25 183.5 48.3 183.5 48.55 Q183.6 48.75 184.05 48.75 L188.25 45.45 Q193.45 42.15 198.3 42.15 L202.5 42.65 203.65 43.05 204.45 43.55 Q201.65 43.9 198.4 46.6 194.15 50.1 194.15 54.9 L194.35 55.9 194.55 56.85 Q194.55 58.7 200.3 61.05 204.8 62.9 206.8 63.15 L206.7 62.7 Q206.7 61.15 209.0 58.5 L214.5 51.95 M252.3 44.45 L252.3 44.6 252.35 44.5 252.3 44.45 M223.6 21.8 L223.3 21.75 223.7 21.75 223.8 21.85 223.6 21.8 M232.55 29.7 L232.7 29.75 232.15 29.85 232.55 29.7 M184.65 28.65 L184.9 28.75 185.1 28.65 184.65 28.65" fill="url(#gradient1)" fill-rule="evenodd" stroke="none"/>
  </g>
  <defs>
    <linearGradient gradientTransform="matrix(1.0E-4, 0.0322, -1.308, -0.0515, 753.45, 67.95)" gradientUnits="userSpaceOnUse" id="gradient0" spreadMethod="pad" x1="-819.2" x2="819.2">
      <stop offset="0.0" stop-color="#b8fff5" stop-opacity="0.49803922"/>
      <stop offset="1.0" stop-color="#5faed0" stop-opacity="0.49803922"/>
    </linearGradient>
    <linearGradient gradientTransform="matrix(-0.0032, 0.1384, -1.3082, -0.0175, 866.75, 134.05)" gradientUnits="userSpaceOnUse" id="gradient1" spreadMethod="pad" x1="-819.2" x2="819.2">
      <stop offset="0.0" stop-color="#44cce2" stop-opacity="0.49803922"/>
      <stop offset="1.0" stop-color="#216376" stop-opacity="0.49803922"/>
    </linearGradient>
  </defs>
</svg>
