<?xml version="1.0" encoding="UTF-8" standalone="no"?>
<svg xmlns:ffdec="https://www.free-decompiler.com/flash" xmlns:xlink="http://www.w3.org/1999/xlink" ffdec:objectType="shape" height="271.05px" width="122.05px" xmlns="http://www.w3.org/2000/svg">
  <g transform="matrix(1.0, 0.0, 0.0, 1.0, -160.7, 4.9)">
    <path d="M250.7 41.1 L253.2 45.75 Q253.2 47.7 250.0 51.4 246.95 54.95 246.75 55.5 L246.45 54.95 245.55 53.85 Q245.55 52.4 243.8 51.05 242.35 49.95 241.65 49.95 L240.85 50.3 Q240.15 50.7 240.15 51.0 L239.7 56.4 Q239.7 57.15 241.1 60.1 242.45 63.05 242.45 64.95 242.45 65.95 244.25 68.85 L244.45 69.9 244.65 70.95 245.55 75.5 246.45 79.55 Q246.45 79.95 246.75 80.35 L247.05 81.15 Q247.05 82.3 250.75 86.05 L254.4 89.7 255.0 90.8 Q255.6 91.65 255.6 92.45 L255.85 94.0 256.05 95.55 256.3 96.55 256.5 97.5 256.85 104.3 Q256.85 107.1 255.9 112.85 L255.55 114.85 255.2 116.85 255.15 117.5 254.95 118.9 254.9 119.2 254.8 118.5 254.45 117.1 254.4 116.55 Q254.4 113.0 252.9 110.6 251.7 108.6 250.8 108.75 L251.25 109.2 251.4 109.85 251.0 115.1 250.6 118.05 249.75 125.1 245.6 137.75 246.3 145.95 246.6 147.8 246.9 149.6 247.15 150.65 247.35 151.65 Q247.35 153.5 248.6 156.7 L249.8 160.05 251.1 162.8 251.25 163.2 Q254.85 171.0 254.85 171.9 254.85 174.0 255.8 177.35 256.7 180.7 256.7 182.7 L256.25 184.95 Q255.75 186.85 255.75 187.65 L253.2 200.0 253.2 199.75 252.9 198.75 Q252.6 198.1 252.6 197.7 L252.3 196.55 252.0 195.35 Q250.85 193.1 250.85 192.6 250.85 192.25 250.55 192.05 250.2 191.85 250.2 191.45 250.2 191.1 249.9 190.9 249.6 190.75 249.6 190.35 L249.35 189.55 Q249.05 189.1 249.05 188.7 249.05 187.75 248.6 187.15 248.75 187.35 248.4 187.55 249.0 188.75 249.0 190.2 L248.7 191.55 248.3 193.7 248.1 194.7 Q248.1 197.65 247.35 202.8 L246.9 205.55 246.5 206.4 Q246.15 207.0 246.15 207.45 L244.65 212.45 243.85 214.6 Q241.5 220.9 241.5 221.15 241.5 222.65 239.35 228.5 237.8 232.6 237.35 234.6 L237.15 235.8 237.05 236.75 236.95 237.15 236.8 236.6 236.05 234.0 234.5 229.25 Q232.35 222.95 232.35 222.0 232.35 220.95 230.85 218.55 229.35 216.15 229.35 215.3 229.35 214.45 225.65 208.45 L225.35 208.0 Q221.3 201.55 221.3 200.85 219.9 198.65 219.9 197.85 219.9 197.25 218.55 194.05 217.2 190.8 217.2 190.35 L216.9 189.55 Q216.6 189.15 216.6 188.75 215.55 187.2 215.55 185.6 L215.25 183.95 214.95 182.25 214.6 180.6 214.2 178.95 213.85 175.6 213.45 172.9 212.85 165.45 212.9 165.05 Q212.95 164.15 213.3 162.75 L213.75 161.1 Q213.75 159.5 215.2 157.6 L217.5 154.85 Q213.3 157.15 210.0 159.7 206.3 162.55 204.85 165.45 203.75 167.55 203.9 169.65 203.55 168.35 203.55 167.6 L203.25 166.3 203.05 165.55 202.95 165.0 202.65 163.65 202.5 162.7 202.35 161.75 Q202.95 158.55 202.95 157.0 L202.35 148.05 201.95 145.35 201.6 142.4 201.3 134.5 201.75 131.35 202.2 127.8 204.35 116.85 204.3 115.7 203.65 115.75 Q203.25 115.8 203.25 116.25 203.25 116.75 194.15 121.8 195.0 120.1 199.5 113.45 203.55 106.65 203.55 101.75 L203.05 97.1 202.85 94.7 202.6 90.7 202.35 88.35 201.75 85.8 Q201.15 83.15 201.15 80.85 L202.05 77.45 Q202.05 75.45 206.1 66.45 209.9 58.0 210.45 57.5 L205.25 62.35 Q200.45 66.9 199.4 66.95 199.8 66.8 199.55 66.6 201.0 64.65 204.0 55.2 204.0 54.0 203.35 52.3 L202.7 50.25 202.35 49.35 201.95 48.45 Q201.15 46.65 201.15 45.45 L201.3 43.65 200.65 41.7 Q199.3 37.3 198.85 33.95 198.5 31.8 198.5 30.1 198.5 27.4 198.65 26.9 198.8 26.45 200.7 23.3 L202.25 19.55 Q203.2 17.05 204.45 15.75 L207.75 11.8 210.45 8.35 Q213.3 4.65 214.9 4.65 L219.15 11.25 220.1 12.8 221.95 15.65 224.9 19.9 228.4 23.65 229.65 23.75 Q231.5 25.05 232.05 26.45 L231.5 24.45 231.65 24.85 231.95 25.7 231.95 25.95 Q231.95 26.45 232.95 27.35 234.85 29.2 240.75 32.85 L241.35 33.25 Q250.7 39.1 250.7 41.1" fill="url(#gradient0)" fill-rule="evenodd" stroke="none"/>
    <path d="M250.7 41.1 Q250.7 39.1 241.35 33.25 L240.75 32.85 Q234.85 29.2 232.95 27.35 231.95 26.45 231.95 25.95 L231.95 25.7 231.65 24.85 231.5 24.45 232.05 26.45 Q231.5 25.05 229.65 23.75 L228.4 23.65 224.9 19.9 221.95 15.65 220.1 12.8 219.15 11.25 214.9 4.65 Q213.3 4.65 210.45 8.35 L207.75 11.8 204.45 15.75 Q203.2 17.05 202.25 19.55 L200.7 23.3 Q198.8 26.45 198.65 26.9 198.5 27.4 198.5 30.1 198.5 31.8 198.85 33.95 199.3 37.3 200.65 41.7 L201.3 43.65 201.15 45.45 Q201.15 46.65 201.95 48.45 L202.35 49.35 202.7 50.25 203.35 52.3 Q204.0 54.0 204.0 55.2 201.0 64.65 199.55 66.6 199.8 66.8 199.4 66.95 200.45 66.9 205.25 62.35 L210.45 57.5 Q209.9 58.0 206.1 66.45 202.05 75.45 202.05 77.45 L201.15 80.85 Q201.15 83.15 201.75 85.8 L202.35 88.35 202.6 90.7 202.85 94.7 203.05 97.1 203.55 101.75 Q203.55 106.65 199.5 113.45 195.0 120.1 194.15 121.8 203.25 116.75 203.25 116.25 203.25 115.8 203.65 115.75 L204.3 115.7 204.35 116.85 202.2 127.8 201.75 131.35 201.3 134.5 201.6 142.4 201.95 145.35 202.35 148.05 202.95 157.0 Q202.95 158.55 202.35 161.75 L202.5 162.7 202.65 163.65 202.95 165.0 203.05 165.55 203.25 166.3 203.55 167.6 Q203.55 168.35 203.9 169.65 203.75 167.55 204.85 165.45 206.3 162.55 210.0 159.7 213.3 157.15 217.5 154.85 L215.2 157.6 Q213.75 159.5 213.75 161.1 L213.3 162.75 Q212.95 164.15 212.9 165.05 L212.85 165.45 213.45 172.9 213.85 175.6 214.2 178.95 214.6 180.6 214.95 182.25 215.25 183.95 215.55 185.6 Q215.55 187.2 216.6 188.75 216.6 189.15 216.9 189.55 L217.2 190.35 Q217.2 190.8 218.55 194.05 219.9 197.25 219.9 197.85 219.9 198.65 221.3 200.85 221.3 201.55 225.35 208.0 L225.65 208.45 Q229.35 214.45 229.35 215.3 229.35 216.15 230.85 218.55 232.35 220.95 232.35 222.0 232.35 222.95 234.5 229.25 L236.05 234.0 236.8 236.6 236.95 237.15 237.05 236.75 237.15 235.8 237.35 234.6 Q237.8 232.6 239.35 228.5 241.5 222.65 241.5 221.15 241.5 220.9 243.85 214.6 L244.65 212.45 246.15 207.45 Q246.15 207.0 246.5 206.4 L246.9 205.55 247.35 202.8 Q248.1 197.65 248.1 194.7 L248.3 193.7 248.7 191.55 249.0 190.2 Q249.0 188.75 248.4 187.55 248.75 187.35 248.6 187.15 249.05 187.75 249.05 188.7 249.05 189.1 249.35 189.55 L249.6 190.35 Q249.6 190.75 249.9 190.9 250.2 191.1 250.2 191.45 250.2 191.85 250.55 192.05 250.85 192.25 250.85 192.6 250.85 193.1 252.0 195.35 L252.3 196.55 252.6 197.7 Q252.6 198.1 252.9 198.75 L253.2 199.75 253.2 200.0 255.75 187.65 Q255.75 186.85 256.25 184.95 L256.7 182.7 Q256.7 180.7 255.8 177.35 254.85 174.0 254.85 171.9 254.85 171.0 251.25 163.2 L251.1 162.8 249.8 160.05 248.6 156.7 Q247.35 153.5 247.35 151.65 L247.15 150.65 246.9 149.6 246.6 147.8 246.3 145.95 245.6 137.75 249.75 125.1 250.6 118.05 251.0 115.1 251.4 109.85 251.25 109.2 250.8 108.75 Q251.7 108.6 252.9 110.6 254.4 113.0 254.4 116.55 L254.45 117.1 254.8 118.5 254.9 119.2 254.95 118.9 255.15 117.5 255.2 116.85 255.55 114.85 255.9 112.85 Q256.85 107.1 256.85 104.3 L256.5 97.5 256.3 96.55 256.05 95.55 255.85 94.0 255.6 92.45 Q255.6 91.65 255.0 90.8 L254.4 89.7 250.75 86.05 Q247.05 82.3 247.05 81.15 L246.75 80.35 Q246.45 79.95 246.45 79.55 L245.55 75.5 244.65 70.95 244.45 69.9 244.25 68.85 Q242.45 65.95 242.45 64.95 242.45 63.05 241.1 60.1 239.7 57.15 239.7 56.4 L240.15 51.0 Q240.15 50.7 240.85 50.3 L241.65 49.95 Q242.35 49.95 243.8 51.05 245.55 52.4 245.55 53.85 L246.45 54.95 246.75 55.5 Q246.95 54.95 250.0 51.4 253.2 47.7 253.2 45.75 L250.7 41.1 M246.75 55.5 L246.75 55.55 246.75 55.7 246.35 55.7 246.6 55.95 Q246.75 56.25 246.75 55.7 L246.75 55.5 M247.05 32.15 L255.0 41.25 261.15 48.45 Q261.15 49.4 262.55 51.45 L258.8 56.55 Q255.0 61.45 255.0 62.9 L254.7 65.25 Q254.7 66.6 259.35 75.7 L264.0 84.6 Q264.0 85.0 264.3 85.2 L264.6 85.8 Q264.6 86.2 264.95 86.4 L265.25 87.0 Q265.25 87.6 265.75 88.45 266.25 89.35 266.25 90.5 266.25 91.95 266.7 92.55 266.7 94.0 265.25 96.95 263.75 99.85 263.75 100.2 L263.25 104.85 262.85 109.8 Q262.85 115.25 267.85 119.5 L271.3 122.15 Q272.85 123.35 272.85 124.05 272.85 124.45 273.15 124.65 L273.45 125.25 273.7 126.05 273.95 126.8 Q273.95 127.65 274.25 128.25 L274.55 129.45 Q274.55 129.85 274.7 130.15 L274.8 130.6 274.8 130.8 273.95 134.25 Q273.95 135.95 269.05 144.8 L265.85 150.35 266.0 149.9 266.15 149.0 Q266.15 148.4 265.7 147.75 L265.2 147.0 262.95 142.5 261.9 140.45 Q261.9 139.8 259.55 135.0 L259.25 134.4 Q258.95 134.2 258.95 133.8 L258.1 132.25 256.95 130.7 Q257.35 132.15 256.85 133.1 256.25 134.3 256.25 134.75 L255.3 137.1 255.1 137.95 254.9 138.75 254.75 139.6 254.55 140.4 254.35 141.05 254.15 141.65 254.1 143.25 Q254.1 143.85 254.55 144.45 L255.0 145.65 Q255.0 146.35 255.75 147.9 L256.2 149.55 Q256.2 150.55 256.7 151.1 256.7 152.8 257.8 154.9 L258.9 157.05 259.95 158.6 Q261.0 159.95 261.0 161.15 L261.15 161.6 261.3 161.75 261.6 162.35 262.7 163.95 Q262.7 164.3 263.35 165.15 264.6 166.85 268.4 170.7 L271.25 173.5 Q279.8 181.85 279.8 185.4 L279.45 187.45 279.05 189.45 278.45 191.9 Q277.85 194.5 277.85 195.6 L277.6 197.2 277.35 198.75 Q277.35 201.8 275.3 206.75 L275.1 207.65 274.85 208.5 274.7 209.3 274.5 210.05 273.55 214.0 Q272.55 217.7 272.55 218.75 272.55 219.85 271.55 222.65 L270.55 225.1 270.05 226.25 Q270.05 225.0 269.65 223.45 L269.25 221.1 Q269.25 217.55 266.95 211.55 L265.5 207.9 265.2 209.15 264.15 211.85 263.15 214.55 261.9 218.0 261.5 218.8 Q259.8 222.35 259.8 222.8 259.8 224.5 256.8 233.25 L256.35 231.5 255.9 229.95 255.55 229.0 255.15 228.05 254.5 226.65 253.8 225.75 Q253.8 225.25 253.05 224.35 252.3 223.45 252.3 223.2 252.3 222.5 251.35 221.4 250.4 220.3 250.4 219.65 L250.2 218.9 250.0 218.65 250.2 218.4 249.9 218.55 250.0 218.65 250.05 218.75 250.65 223.65 Q250.65 225.8 250.25 228.55 L249.8 231.75 Q249.8 235.5 249.15 239.55 248.6 243.0 247.55 246.65 L245.0 254.0 244.05 256.35 243.2 258.25 240.8 263.0 240.15 264.15 239.9 264.95 239.65 264.7 239.55 264.05 239.5 262.95 239.15 261.25 Q238.7 259.55 238.7 258.5 L237.0 255.75 236.95 255.7 235.5 253.4 233.7 250.65 230.4 245.4 Q230.4 243.1 219.7 230.1 L213.9 222.7 212.75 221.05 Q208.95 215.5 208.95 213.15 208.95 212.4 207.95 208.95 L207.8 208.45 206.9 205.35 206.75 204.15 206.55 202.95 206.55 202.65 Q205.7 203.9 203.8 205.2 200.3 207.6 200.3 208.2 L200.25 208.3 200.05 208.45 199.75 208.65 199.2 209.15 198.9 209.85 197.5 211.8 196.7 212.9 196.3 213.65 Q195.75 214.6 195.75 215.25 195.75 216.35 197.1 220.75 L197.45 221.8 198.45 225.3 Q198.45 226.25 199.0 227.15 L199.5 228.45 199.4 228.9 198.75 229.25 198.2 228.75 Q199.2 225.9 197.0 224.7 194.45 223.35 194.45 222.9 194.45 222.0 192.75 219.55 L191.8 218.2 189.95 215.8 Q184.65 209.15 183.4 207.1 L183.35 207.0 182.7 205.65 179.8 199.05 177.15 192.75 Q177.15 185.8 180.4 177.6 183.2 170.45 185.75 168.2 L185.25 167.7 185.25 167.8 184.65 167.7 Q184.25 167.7 182.7 169.05 181.15 170.4 180.75 171.05 L180.5 170.85 179.95 167.8 179.9 167.6 179.6 164.7 180.05 164.05 180.5 163.5 Q180.5 162.6 185.25 161.9 189.95 159.95 189.95 152.9 L190.35 149.1 189.65 142.55 190.05 138.9 190.35 135.45 190.4 135.15 Q191.8 133.6 192.0 130.95 L192.35 130.05 192.4 129.75 192.85 129.1 192.6 129.4 192.4 129.75 192.0 130.2 192.0 130.95 191.35 132.25 Q190.5 134.15 190.4 135.15 189.15 136.45 187.0 136.95 L184.65 137.2 179.6 137.1 Q177.3 137.25 177.3 138.6 177.3 138.9 174.3 140.3 171.3 141.7 171.3 142.55 L170.1 143.9 170.25 144.7 170.3 145.25 Q169.95 144.9 169.95 143.8 L170.55 139.65 Q170.55 135.05 173.65 131.0 L175.7 128.75 180.45 123.95 Q185.1 119.35 187.25 115.2 190.35 109.35 190.35 101.6 L190.65 99.3 Q190.65 97.3 190.95 95.05 L190.95 95.0 191.25 91.4 190.65 84.0 Q190.65 79.5 191.05 75.75 L191.45 70.5 192.6 62.5 Q192.05 57.4 190.8 52.8 188.6 44.8 188.6 44.0 L188.85 39.6 189.05 35.05 Q189.05 29.55 194.25 22.0 195.7 19.85 202.85 11.3 L202.9 11.2 211.35 0.95 Q214.25 -2.75 215.1 -4.9 220.65 4.45 227.5 12.9 L231.9 18.1 232.35 18.6 Q233.55 19.1 235.1 20.25 L238.95 23.5 Q243.2 27.45 247.05 32.15 M183.15 71.7 L183.5 76.25 Q183.5 79.55 184.25 83.0 L184.95 87.75 Q184.95 90.5 183.05 94.25 L182.1 95.95 Q179.25 100.7 179.25 102.6 179.25 103.45 179.6 104.9 180.1 107.05 181.05 108.0 178.8 106.0 176.45 102.05 173.85 97.8 173.85 95.55 L174.05 94.15 Q174.4 92.65 175.45 91.05 177.0 88.65 177.0 87.15 177.0 86.35 177.55 85.1 L178.05 83.4 Q178.05 81.35 179.65 79.05 181.2 76.7 181.2 74.45 L181.45 71.85 183.25 70.05 183.15 71.7 M173.05 180.45 L172.95 180.7 Q171.65 184.25 171.65 186.15 L171.0 191.3 Q171.0 195.45 173.35 199.25 174.4 200.95 175.9 202.55 L178.25 205.0 179.25 206.0 Q180.75 207.7 180.75 209.0 L181.95 210.9 183.15 213.0 Q183.15 213.35 183.85 214.5 L184.5 216.0 Q184.5 216.4 185.2 217.45 L186.2 218.75 186.15 219.2 185.75 218.85 Q185.45 218.6 185.0 218.6 183.55 218.6 172.35 207.95 L171.45 207.1 164.85 200.4 Q160.7 195.8 160.7 194.1 160.7 191.75 162.0 189.55 163.75 186.45 167.95 183.75 L172.95 180.5 173.05 180.45 M208.2 195.4 L208.35 194.7 208.05 194.85 208.2 195.4 M214.5 247.2 L215.05 245.1 220.45 248.1 Q223.1 249.6 224.85 251.2 228.45 254.45 228.45 258.15 L227.65 261.25 227.55 261.65 Q226.8 263.85 226.8 264.35 L226.45 265.85 226.35 266.15 225.25 264.65 220.9 260.15 220.55 259.8 Q216.15 255.1 214.95 250.6 214.5 248.9 214.5 247.2 M253.2 200.0 L252.75 201.95 252.75 202.05 252.15 203.4 252.35 203.7 252.45 203.25 Q252.45 202.9 252.6 202.6 L252.75 202.05 253.2 200.0 M270.8 161.8 Q271.95 161.15 273.0 161.15 275.35 161.15 279.05 164.05 L281.2 166.0 Q282.75 167.65 282.75 168.9 L281.7 170.75 280.9 172.25 279.75 171.05 274.9 166.45 274.55 166.1 Q272.1 163.7 270.8 161.8 M236.95 237.2 L236.7 238.55 Q236.7 239.3 236.85 239.25 L237.3 238.65 236.95 237.15 236.95 237.2" fill="url(#gradient1)" fill-rule="evenodd" stroke="none"/>
    <path d="M245.9 43.6 L245.85 44.25 245.15 45.9 Q245.05 46.05 245.1 46.35 243.95 45.25 242.05 44.1 L238.55 42.2 Q235.05 40.5 233.1 39.25 L230.65 37.35 231.15 39.1 231.2 39.25 231.4 40.4 231.55 44.3 231.1 46.15 231.05 46.25 231.2 46.4 231.05 46.3 Q230.6 47.45 230.6 47.95 230.6 48.45 231.0 49.1 L231.35 50.2 231.45 51.75 231.95 53.05 232.5 54.4 232.85 55.2 233.05 55.7 Q233.05 56.05 234.0 57.4 L234.9 59.05 236.35 61.75 237.3 63.75 Q237.3 64.25 237.65 64.9 L238.0 66.0 238.4 67.15 238.75 68.3 238.9 69.1 239.1 69.75 239.4 71.2 239.4 71.55 239.05 72.95 238.45 74.45 237.6 76.4 237.45 76.9 237.1 78.4 Q236.75 79.35 236.75 79.85 L236.6 80.45 234.25 77.05 234.05 75.7 234.0 74.9 Q234.0 73.45 232.6 71.05 L231.45 69.3 Q229.7 66.75 226.75 63.45 L226.25 62.9 224.7 61.2 Q220.95 57.2 218.75 54.4 L218.7 54.3 Q216.6 51.65 215.8 50.05 215.35 49.1 215.35 48.5 L215.05 46.05 214.9 44.0 214.85 43.45 Q214.85 42.95 215.3 42.75 215.7 42.5 215.7 42.0 215.7 41.5 215.95 41.1 L216.15 40.3 216.15 40.2 216.8 38.15 Q217.45 36.15 217.75 35.7 L217.0 34.95 217.35 35.35 216.95 35.95 Q216.6 36.25 216.6 36.8 L215.3 40.05 215.2 40.4 212.9 42.85 211.4 44.15 209.0 46.0 203.8 49.9 204.55 49.0 Q204.55 48.2 206.2 45.85 L207.3 44.3 207.85 43.2 208.15 41.5 Q208.6 39.75 209.8 36.55 L209.85 36.45 211.8 31.2 Q211.8 30.25 212.4 29.0 212.55 28.5 212.85 28.05 L213.55 26.9 214.0 25.25 214.65 22.2 214.55 22.3 209.3 29.25 208.95 29.75 Q202.05 39.05 202.05 42.5 L201.75 44.55 201.7 44.75 201.25 44.65 201.1 44.55 200.75 43.25 Q200.35 41.8 200.35 40.4 200.35 35.75 203.95 31.0 205.2 29.3 206.9 27.6 211.55 22.95 214.7 21.8 L214.75 20.5 215.35 16.1 215.5 15.3 215.95 12.45 Q215.95 10.2 215.35 8.6 L214.8 7.0 Q217.25 10.0 222.75 14.75 L223.2 15.2 Q226.65 18.85 227.45 22.7 228.9 23.95 229.6 25.1 L229.95 25.75 230.15 26.6 230.15 26.95 230.0 27.55 229.65 28.0 Q229.15 28.5 229.15 29.0 L229.3 29.65 229.4 30.05 229.6 30.75 229.85 31.75 Q230.25 32.35 231.0 32.35 L232.45 32.7 233.9 33.05 234.95 33.35 236.0 33.6 Q237.6 33.6 241.2 35.8 245.1 38.15 245.1 39.75 L245.1 39.8 245.5 41.7 245.9 43.6 M244.6 68.65 Q242.15 66.1 239.8 61.15 L238.95 59.4 Q235.6 51.9 235.6 49.65 L235.4 48.95 235.2 48.55 235.45 48.4 235.5 49.15 235.95 49.8 236.35 50.85 Q236.35 51.35 240.9 55.65 243.4 58.05 244.55 60.3 245.4 62.05 245.4 63.7 245.4 65.3 244.8 67.7 L244.6 68.65 M246.15 77.8 L246.15 77.9 Q245.65 80.05 245.65 81.35 245.65 81.85 246.15 82.2 L246.6 83.0 Q246.6 83.5 247.6 84.55 L248.55 85.75 Q248.55 86.4 249.25 87.1 L249.9 87.65 Q251.2 88.7 251.2 89.2 251.2 89.55 252.1 90.9 L252.3 92.2 252.45 93.15 252.8 95.35 252.85 95.6 253.15 96.5 253.5 97.6 253.0 100.5 252.85 101.2 252.5 103.4 252.2 105.35 251.25 108.25 250.9 107.9 Q251.8 104.15 251.8 102.7 L251.7 101.35 Q251.25 98.6 249.1 94.7 L248.9 94.35 247.9 92.7 245.35 88.0 Q243.95 84.85 243.95 82.7 L244.1 81.2 244.7 80.1 246.1 77.9 246.15 77.8 M229.35 21.7 Q231.7 24.05 235.8 25.6 L236.45 25.9 Q238.4 26.9 238.4 28.9 L238.3 29.4 Q238.15 29.6 238.15 29.85 L236.85 31.2 Q235.75 30.4 234.4 29.2 232.4 27.4 231.7 26.4 231.25 25.85 231.25 25.5 L230.3 23.4 229.35 21.7 M207.2 21.95 Q205.65 24.4 199.9 29.35 L197.95 31.1 Q197.45 28.8 197.45 27.55 197.45 20.5 201.95 15.45 202.85 14.35 204.0 13.4 207.35 10.6 212.45 7.65 211.8 8.8 210.65 13.05 L210.0 15.35 Q208.6 19.7 207.2 21.95 M215.5 28.5 L215.6 28.6 215.6 28.35 215.6 28.3 215.6 28.35 215.5 28.5 M200.3 68.5 L200.05 69.8 199.75 69.55 199.6 68.65 199.55 68.5 199.3 67.45 198.8 62.4 Q198.8 57.6 204.7 52.8 L207.3 50.85 Q206.45 52.25 206.45 53.35 206.45 54.4 205.2 57.45 203.95 60.5 203.0 61.65 201.5 63.45 200.65 66.85 L200.3 68.5 M201.8 88.0 L201.35 87.2 Q200.9 86.85 200.9 86.35 L200.5 83.65 200.05 80.9 Q200.05 80.4 200.3 80.0 L200.5 79.1 202.95 73.15 203.35 72.55 204.2 71.15 206.0 68.15 206.6 67.25 209.75 62.05 210.15 61.35 210.8 60.25 211.2 60.65 Q211.65 60.95 211.65 61.45 L211.3 63.75 210.9 66.05 210.9 66.4 210.2 69.45 209.85 70.55 209.45 71.7 208.95 72.95 207.0 78.05 Q207.0 78.7 205.6 80.45 204.1 82.4 203.75 83.9 203.55 84.8 203.55 88.25 L203.25 90.05 203.25 90.25 202.95 90.65 202.7 90.4 202.75 89.7 202.3 89.0 201.8 88.0 M215.05 133.3 L215.2 134.4 215.55 139.7 214.65 142.3 Q213.75 144.9 213.75 146.25 L213.75 146.95 213.35 152.3 Q213.6 152.55 213.25 152.35 L213.0 151.9 212.45 149.45 211.95 146.85 211.85 145.85 Q211.85 141.1 213.3 137.1 L214.45 134.35 215.05 133.3 M226.2 120.85 L226.6 121.1 Q229.5 122.85 229.5 123.7 L229.7 124.3 229.9 124.85 230.45 127.75 Q230.45 129.2 230.8 131.15 L231.15 132.65 Q227.45 124.8 226.2 120.85 M232.55 114.35 L232.3 111.55 232.3 111.15 Q232.3 109.1 232.95 107.2 233.8 109.35 236.0 111.7 L238.5 114.1 239.0 114.55 Q244.05 119.05 244.6 121.5 L244.65 122.05 244.9 123.8 245.1 125.55 Q245.1 127.4 243.4 130.45 L242.7 131.55 242.45 131.95 241.3 133.7 240.15 135.45 240.4 133.8 240.4 133.75 239.4 130.5 235.85 124.15 234.05 120.15 Q232.95 117.2 232.55 114.35 M223.7 109.55 L223.4 111.25 223.05 112.3 Q222.5 114.15 222.7 115.35 L222.35 115.0 222.1 114.25 221.85 113.35 221.6 111.2 221.45 109.85 Q221.45 106.1 223.0 103.05 223.9 101.2 224.95 100.3 L225.5 102.6 225.0 104.6 Q224.45 106.25 224.45 107.65 L223.7 109.55 M219.1 76.2 Q222.7 81.2 222.7 86.25 222.7 86.75 222.3 87.0 221.9 87.25 221.9 87.75 L221.75 89.85 221.6 92.05 221.3 93.6 220.35 96.8 Q219.3 99.55 217.45 102.6 214.75 107.1 213.75 110.9 213.1 113.2 213.1 115.3 L213.1 115.6 213.1 115.65 Q213.15 117.5 214.0 120.4 L214.0 120.5 214.9 123.95 215.65 126.25 215.75 126.8 212.6 121.5 212.45 121.3 Q210.85 118.4 210.0 116.1 L209.45 114.55 Q208.85 112.6 208.85 111.05 L208.85 110.75 Q208.9 107.65 209.6 103.9 210.25 100.2 211.55 95.9 L211.9 94.7 212.75 92.1 212.85 91.8 216.7 80.2 216.8 79.6 Q216.8 78.35 217.55 75.25 L217.8 74.3 219.1 76.2 M227.05 72.0 L227.5 72.65 Q229.6 75.75 229.6 76.5 L230.0 77.65 230.35 78.75 230.9 81.65 Q230.9 83.4 232.5 85.8 L234.1 88.6 Q234.1 89.15 235.25 90.35 L235.6 90.65 237.05 92.4 Q237.05 93.15 239.75 96.3 L242.15 99.0 242.45 99.35 Q242.45 99.75 243.55 101.4 L244.6 103.05 Q244.6 103.7 245.55 105.7 L246.45 107.95 246.7 112.55 246.9 116.7 Q246.9 117.7 246.6 117.95 L246.35 117.3 246.05 116.95 246.0 116.3 Q245.85 116.15 245.85 115.65 L245.55 114.2 245.25 112.8 245.25 112.35 Q245.0 109.9 242.4 107.0 L237.55 102.3 236.15 100.95 Q231.4 96.4 229.15 91.8 227.0 87.45 227.0 83.05 227.0 82.4 227.55 80.15 L228.05 77.25 227.6 75.65 227.4 75.15 227.05 72.15 227.05 72.0 M222.85 66.25 L223.15 67.15 222.9 68.95 222.8 69.65 222.6 71.15 Q222.6 72.0 222.9 73.25 L223.2 74.8 223.85 75.85 223.65 75.65 Q221.35 73.35 219.2 69.85 L218.25 68.2 216.75 65.3 Q215.55 62.6 215.55 61.05 L215.3 59.05 217.2 60.4 Q220.85 62.9 222.0 64.3 L222.5 65.35 Q222.5 65.75 222.85 66.25 M205.95 129.4 L205.6 134.35 205.15 136.95 204.9 138.4 204.8 138.95 204.7 139.55 Q204.7 141.15 205.25 143.05 L205.75 145.9 205.8 146.65 Q205.95 147.65 206.5 148.55 207.2 149.65 209.2 151.65 204.65 148.75 202.35 146.55 L202.1 146.3 Q198.8 143.05 197.85 139.6 197.45 138.2 197.45 136.75 L197.65 135.55 Q197.95 134.4 198.75 133.2 L200.05 131.6 Q201.6 129.9 204.1 128.0 L206.35 126.2 206.3 126.5 Q205.95 127.8 205.95 129.4 M228.8 174.15 L228.15 178.0 227.9 180.65 Q227.7 182.4 227.65 184.4 L227.65 184.5 227.6 187.65 228.0 189.2 228.4 190.7 228.65 192.85 228.85 195.0 228.85 195.1 Q228.85 195.95 229.15 196.55 L229.45 197.75 229.45 197.9 Q229.45 198.4 229.9 198.7 230.35 199.0 230.35 199.5 L230.45 199.9 230.8 200.35 Q231.25 200.7 231.25 201.2 231.25 202.7 232.65 204.4 L234.0 206.2 Q234.0 206.9 236.25 210.6 238.45 214.3 238.45 216.75 L238.05 218.3 237.65 219.8 237.35 221.0 Q237.0 221.7 237.0 222.2 L236.8 223.15 236.7 223.45 236.3 221.15 235.75 218.6 Q235.75 216.95 229.55 209.85 223.4 202.75 223.35 199.3 L223.35 199.25 223.1 197.25 222.85 194.2 Q222.85 191.4 224.85 185.15 L225.0 184.65 226.5 180.15 227.35 177.85 228.8 174.15 M218.05 168.5 L220.05 171.7 Q221.15 173.75 221.15 174.95 L221.5 178.0 221.0 181.7 221.05 182.05 218.7 179.25 216.25 176.85 215.95 178.85 216.4 183.15 216.25 189.05 Q216.2 191.25 216.65 194.4 L216.65 194.55 215.7 193.65 Q214.45 192.45 214.45 191.8 L212.25 187.2 211.6 185.65 Q210.05 182.0 210.05 180.15 210.05 175.65 212.55 170.4 L214.2 167.3 215.7 164.95 218.05 168.5 M202.3 182.0 L202.1 182.75 200.95 186.7 198.55 194.0 198.6 194.45 198.85 195.4 199.25 196.6 199.05 196.4 198.2 194.45 197.8 193.35 Q196.7 190.45 196.7 187.25 196.7 180.85 202.7 173.8 L203.35 173.05 203.5 175.45 203.0 178.45 Q202.45 180.45 202.45 181.25 L202.3 182.0 M241.1 145.85 Q241.1 143.8 241.75 142.45 243.0 145.3 244.25 149.2 L244.95 151.45 246.65 157.7 Q246.65 159.4 247.55 161.7 L246.15 161.7 Q244.5 159.55 243.65 157.9 241.65 153.95 241.25 148.8 L241.1 145.85 M231.6 147.8 L232.0 147.1 232.5 146.3 232.75 147.9 232.75 148.05 233.15 149.2 233.5 150.35 233.75 152.8 234.0 155.35 234.3 156.8 234.6 158.25 234.85 160.75 234.65 161.9 234.5 162.3 234.1 163.8 234.15 164.2 234.5 165.75 234.9 167.65 Q234.9 168.15 235.25 168.8 L235.6 169.95 Q235.6 170.45 235.95 171.4 L236.25 172.8 236.05 175.65 235.45 179.55 235.4 180.4 234.8 178.25 234.1 176.0 Q234.1 175.5 233.65 175.15 L233.35 174.85 233.2 174.3 232.65 173.0 Q232.65 171.95 231.9 170.2 L231.15 168.45 230.85 166.25 230.55 164.4 230.5 164.0 230.2 162.55 230.05 162.0 229.9 161.1 229.4 156.05 Q229.4 155.1 230.05 153.25 L230.65 151.2 Q230.65 149.5 231.6 147.8 M222.55 144.75 L222.55 144.55 Q222.55 142.65 223.45 139.65 L224.3 136.0 224.3 135.75 224.3 135.65 224.4 135.05 224.7 135.6 225.05 136.2 225.4 136.85 Q227.4 140.25 227.4 141.15 227.4 141.65 227.8 142.3 L228.15 143.4 227.6 144.45 227.1 145.55 227.05 146.05 226.7 147.5 226.0 148.65 Q224.95 150.1 224.95 150.8 L224.6 153.1 224.35 154.65 224.25 155.4 224.5 156.5 224.65 157.3 224.3 156.95 223.05 155.2 222.6 154.4 Q221.65 152.65 221.65 149.75 L222.1 147.3 222.1 147.15 222.55 144.75 M241.05 191.85 L241.35 192.0 242.5 193.55 Q242.5 194.05 242.9 194.7 L243.25 195.85 243.5 197.65 243.75 200.1 243.75 200.3 243.35 201.25 Q242.95 201.85 242.95 202.35 L242.75 203.3 Q242.5 203.7 242.5 204.2 L242.25 206.9 242.05 206.0 Q242.05 205.5 241.75 205.35 241.45 205.2 241.45 204.7 L241.15 202.45 240.85 200.3 240.85 200.2 240.35 197.05 240.2 196.3 240.05 195.4 240.1 195.0 240.3 193.6 240.5 192.9 240.6 192.7 241.05 191.85 M254.55 177.6 Q254.55 178.85 254.05 180.15 253.25 182.05 251.35 184.05 L250.1 185.2 248.6 186.55 248.8 186.25 249.5 185.15 Q250.1 183.95 250.1 182.95 250.1 182.25 249.05 180.65 L247.75 178.85 Q245.8 176.35 243.85 174.4 242.1 172.65 240.85 169.0 L246.25 170.45 Q254.55 172.55 254.55 177.6" fill="#ffffff" fill-rule="evenodd" stroke="none"/>
  </g>
  <defs>
    <linearGradient gradientTransform="matrix(2.0E-4, 0.1043, -1.308, -0.0515, 735.5, 166.45)" gradientUnits="userSpaceOnUse" id="gradient0" spreadMethod="pad" x1="-819.2" x2="819.2">
      <stop offset="0.0" stop-color="#b8fff5" stop-opacity="0.49803922"/>
      <stop offset="1.0" stop-color="#5faed0" stop-opacity="0.49803922"/>
    </linearGradient>
    <linearGradient gradientTransform="matrix(-0.0032, 0.1384, -1.3082, -0.0175, 866.75, 134.05)" gradientUnits="userSpaceOnUse" id="gradient1" spreadMethod="pad" x1="-819.2" x2="819.2">
      <stop offset="0.0" stop-color="#44cce2" stop-opacity="0.49803922"/>
      <stop offset="1.0" stop-color="#216376" stop-opacity="0.49803922"/>
    </linearGradient>
  </defs>
</svg>
