<?xml version="1.0" encoding="UTF-8" standalone="no"?>
<svg xmlns:ffdec="https://www.free-decompiler.com/flash" xmlns:xlink="http://www.w3.org/1999/xlink" ffdec:objectType="shape" height="287.8px" width="119.55px" xmlns="http://www.w3.org/2000/svg">
  <g transform="matrix(1.0, 0.0, 0.0, 1.0, -160.2, 4.65)">
    <path d="M189.7 54.85 Q189.9 43.6 194.1 36.85 L194.4 35.55 Q194.4 32.75 198.55 28.7 197.95 31.6 197.7 34.8 L199.85 32.65 201.2 31.5 Q204.35 29.05 208.05 27.55 209.9 26.8 211.9 26.35 L212.85 26.1 213.0 26.1 213.35 26.0 215.0 25.7 214.75 25.85 Q213.3 26.05 211.45 27.25 208.6 29.0 204.75 32.95 L204.6 33.15 203.35 34.1 Q200.7 36.25 200.7 37.65 L199.8 39.9 199.6 40.75 199.35 41.6 198.45 43.85 198.5 45.25 198.65 46.7 199.2 49.8 Q199.2 50.2 199.5 50.4 L199.8 51.0 199.5 51.55 Q199.2 51.7 199.2 52.05 199.2 52.45 199.5 52.85 L199.8 53.6 199.3 55.15 Q198.75 56.7 198.75 57.35 L199.05 58.7 199.35 60.05 200.0 63.35 200.15 64.05 200.6 65.0 201.15 66.15 203.8 72.2 Q206.4 78.05 206.4 81.9 L205.65 86.4 Q205.65 86.95 205.15 87.3 L203.6 88.1 Q203.85 88.35 203.55 88.5 206.8 87.9 212.5 82.65 215.8 79.65 217.0 77.7 L216.9 78.3 216.0 80.55 Q216.0 81.45 214.8 84.05 L213.2 88.85 208.25 94.15 206.95 95.4 204.25 98.0 198.45 103.65 Q194.55 107.8 192.9 111.85 190.95 116.7 190.95 123.9 L190.55 125.2 190.55 125.25 Q190.2 126.05 190.3 126.5 L190.75 125.2 Q193.85 116.8 203.45 105.15 L210.25 97.05 210.3 97.0 210.3 97.05 210.1 97.85 209.9 98.7 Q209.9 99.35 208.8 101.65 207.65 103.9 207.65 104.85 L207.4 105.4 Q207.15 105.55 207.15 105.9 L206.85 106.45 Q206.55 106.6 206.55 106.95 L201.9 113.65 Q199.1 117.9 198.0 120.4 197.25 122.0 197.25 122.85 L197.1 123.5 Q196.95 123.75 196.95 124.1 L196.95 124.2 196.75 124.95 196.55 125.75 195.8 129.35 Q195.05 132.85 195.05 133.5 L195.5 138.45 195.8 139.8 196.05 141.15 Q196.05 141.55 196.4 142.3 L196.7 143.4 Q198.6 147.25 198.6 147.95 L198.9 148.6 199.6 150.0 Q200.55 151.85 200.55 152.55 200.55 152.95 200.85 153.35 L201.15 154.1 201.5 156.15 201.9 158.1 202.25 160.3 202.25 161.1 201.45 166.75 200.75 170.8 200.6 171.6 200.45 172.45 200.25 173.25 199.95 173.8 Q199.65 173.95 199.65 174.3 L199.4 174.75 198.45 176.35 197.25 178.8 196.55 180.0 196.25 180.4 195.8 181.05 Q195.8 181.9 193.9 185.2 192.0 188.55 192.0 189.8 L191.6 192.45 191.15 195.0 Q191.15 195.75 191.7 199.5 L191.95 200.35 192.2 201.15 192.75 202.7 Q192.75 203.75 193.45 204.6 194.1 205.45 194.1 206.1 194.1 206.5 194.3 206.55 L194.45 206.9 194.45 207.0 Q194.45 207.4 194.8 208.15 L195.15 209.1 195.15 209.25 195.25 209.9 195.4 210.25 195.65 210.9 Q195.65 211.35 195.8 211.3 L196.1 211.35 196.35 211.55 196.15 210.05 196.05 208.3 196.05 208.1 196.1 207.4 Q196.5 203.5 201.5 200.2 204.45 198.2 210.05 195.35 L209.7 197.15 209.55 197.65 Q209.15 199.65 209.15 201.3 L209.65 203.3 Q208.3 206.95 208.3 210.6 L208.2 211.5 207.95 212.85 207.6 214.7 207.6 214.85 207.55 215.1 Q207.55 223.55 213.65 232.75 218.7 240.4 222.35 241.9 219.8 239.2 218.3 235.5 215.8 229.15 215.65 219.25 L216.6 220.7 220.95 227.9 226.05 234.45 Q230.55 240.1 230.55 240.8 230.55 241.2 232.35 243.65 232.35 244.4 233.4 245.6 234.45 246.8 234.45 247.35 L237.4 240.25 Q240.35 232.55 240.35 225.35 240.35 223.75 240.65 221.75 L241.4 217.9 242.25 214.45 242.55 213.4 244.0 208.65 244.1 209.0 245.0 213.45 245.2 214.7 245.45 217.7 245.65 219.2 245.85 220.7 245.8 222.1 245.7 223.0 Q245.6 224.5 245.95 226.2 246.15 225.4 247.3 222.45 L247.45 222.15 Q248.15 220.1 248.15 219.1 248.15 218.7 248.5 217.8 L248.85 216.5 249.05 214.95 249.2 213.5 249.55 209.3 247.85 201.65 247.2 198.85 Q248.75 193.3 248.75 191.1 248.75 190.65 248.9 190.3 L249.05 189.8 249.15 189.85 249.2 190.5 Q249.2 190.9 249.55 191.1 249.9 191.35 249.9 191.7 L251.05 193.1 Q252.15 194.55 252.15 195.0 252.15 195.85 254.1 197.6 256.05 199.35 256.05 200.0 256.05 200.4 256.35 200.6 L256.65 201.15 Q256.65 201.7 257.5 202.95 258.3 204.25 258.3 205.95 L258.2 206.8 Q262.2 195.35 262.2 192.95 262.2 192.55 263.05 190.95 L263.85 188.85 264.15 187.9 Q264.75 189.2 265.15 191.05 265.7 193.75 265.7 197.2 265.7 200.15 262.1 208.2 L259.45 213.85 259.1 214.5 259.6 213.85 264.3 207.35 Q270.05 199.25 270.05 198.3 270.05 197.9 270.75 196.25 L271.4 194.4 271.1 192.45 270.8 190.5 269.75 188.75 Q269.75 188.3 269.15 187.2 L269.1 187.1 Q268.45 185.9 268.45 184.8 L268.1 183.1 268.0 182.75 Q267.85 182.8 267.85 182.35 L267.55 181.35 267.25 180.3 267.0 179.75 Q266.75 179.65 266.75 179.2 266.75 176.4 264.55 173.75 263.5 172.5 259.75 169.2 L256.95 166.5 256.7 166.2 256.45 165.7 Q255.2 163.2 255.2 161.75 L254.9 160.65 254.6 159.5 253.6 154.5 253.2 151.8 253.3 150.75 253.5 147.9 253.75 147.05 253.95 146.15 254.2 145.35 254.4 144.5 Q254.4 144.15 254.75 143.8 L254.8 143.75 255.05 143.1 Q255.05 142.75 256.15 141.2 L256.4 140.85 Q257.7 138.95 257.7 137.75 L258.6 135.15 259.2 132.55 259.5 130.2 259.8 129.15 260.1 128.1 259.7 123.5 Q259.7 122.35 259.0 121.5 258.3 120.65 258.3 119.45 L256.1 116.25 254.7 114.25 Q251.1 109.2 251.1 106.4 L250.45 103.4 Q249.75 100.25 249.75 98.25 L249.95 96.0 250.3 92.5 250.4 91.3 250.5 89.4 249.95 87.6 Q249.35 86.0 249.35 85.2 L248.75 84.4 Q248.1 83.5 248.1 82.8 L247.45 82.0 Q246.75 81.3 246.75 80.9 L245.75 79.95 245.8 79.75 246.45 79.55 252.6 82.5 253.9 83.5 255.05 84.55 Q253.95 83.1 253.95 81.8 L252.9 79.55 Q251.85 77.35 251.85 76.55 251.85 75.8 249.2 72.15 L246.5 68.55 245.75 66.55 Q244.95 64.4 244.95 63.2 L245.5 61.5 Q246.0 59.85 246.0 58.5 L245.65 55.0 Q244.95 51.5 243.05 46.9 L242.05 44.8 243.0 43.05 243.35 42.4 Q243.9 41.0 243.9 39.2 L243.65 37.85 243.35 36.95 243.2 36.5 243.05 36.0 242.9 35.55 242.7 35.05 Q242.7 34.2 242.15 32.65 L241.55 31.0 241.4 30.55 241.2 30.1 241.05 29.75 240.85 29.4 Q240.85 28.65 238.9 26.8 236.95 24.9 236.05 24.9 235.85 24.9 235.2 24.5 L234.75 24.1 234.65 24.05 Q234.25 24.05 233.05 23.45 L232.0 22.85 226.6 18.7 225.3 17.65 228.9 18.6 Q230.9 19.3 232.35 19.95 235.6 19.95 239.5 23.5 L239.7 23.7 241.55 25.55 Q243.0 27.1 243.0 27.6 L244.75 29.4 Q246.45 31.2 246.45 32.1 246.45 32.4 247.15 33.35 L247.55 33.9 247.8 34.5 Q247.8 35.0 248.7 38.4 L249.05 39.7 Q250.85 42.6 253.05 47.5 L255.7 53.85 257.35 58.2 256.0 57.45 256.1 56.95 253.8 54.05 253.5 53.7 253.75 54.05 Q254.15 54.7 254.15 55.65 254.15 56.55 254.8 57.15 255.4 57.7 255.4 58.25 255.4 60.65 253.3 62.8 L253.15 63.0 253.4 64.35 253.8 65.3 254.55 67.2 255.7 69.15 Q256.8 70.85 256.8 72.0 256.8 72.4 257.1 72.6 L257.4 73.2 Q257.4 73.6 257.7 73.75 258.0 73.95 258.0 74.3 L258.75 75.45 259.5 76.85 Q259.5 77.8 266.8 82.25 274.05 86.7 274.05 88.95 L274.75 90.7 274.95 91.35 275.4 93.35 277.0 97.1 277.9 99.45 Q278.6 101.55 278.6 102.45 L278.85 104.05 279.05 105.6 279.75 109.1 279.35 112.7 279.2 113.75 278.6 118.35 278.3 119.6 Q277.95 120.45 277.95 120.8 L277.15 122.5 277.1 122.6 276.85 122.6 Q277.5 120.5 277.5 119.25 L277.3 117.95 277.05 116.65 275.7 110.1 Q275.7 107.7 270.1 102.2 L265.95 98.05 265.65 97.7 265.4 97.4 264.45 96.15 Q264.45 95.8 264.15 95.6 L263.95 95.4 263.85 94.95 263.65 94.5 263.35 94.05 263.3 93.95 263.25 93.8 263.2 93.55 263.05 93.35 262.85 92.9 262.6 92.3 262.55 92.2 Q262.55 92.95 262.7 93.15 L262.8 93.3 262.8 93.45 262.45 93.0 262.15 93.45 261.85 94.15 257.9 89.75 Q258.1 90.0 257.7 90.3 L258.3 91.2 258.75 92.05 Q258.75 92.45 259.1 93.0 L259.45 94.0 259.6 95.55 259.7 96.75 259.7 97.55 Q259.7 98.1 259.85 98.3 L260.2 98.7 259.75 98.9 257.9 96.9 257.55 96.55 Q256.7 95.85 255.9 95.7 L256.7 96.5 257.15 96.95 Q257.15 97.4 257.55 97.7 257.95 98.0 257.95 98.4 257.95 98.85 258.3 99.45 L258.65 100.45 Q258.65 101.3 260.05 103.8 260.05 105.5 262.05 107.8 L262.6 110.1 Q263.4 113.1 263.4 114.0 L264.0 115.2 264.75 117.0 Q264.75 117.55 265.95 119.7 L266.1 120.8 266.35 121.1 Q268.25 123.4 268.25 124.6 268.25 125.05 268.6 125.6 L268.9 126.6 269.4 129.15 269.65 130.35 269.8 130.8 270.2 132.45 269.9 133.5 Q269.6 134.15 269.6 134.55 L268.35 136.55 268.65 136.9 268.25 136.5 Q268.1 136.25 268.1 135.7 268.1 135.15 266.75 132.45 L266.0 130.9 Q265.2 132.65 265.2 133.7 L263.9 139.8 263.9 139.85 Q263.9 140.55 264.45 143.9 L265.15 145.6 265.25 145.75 265.15 145.9 Q264.9 146.35 264.9 146.7 264.9 147.9 265.25 149.15 L265.55 151.4 265.55 151.55 265.65 154.8 265.8 155.5 265.95 156.15 266.1 157.95 266.3 159.25 266.0 159.3 Q263.4 158.1 263.4 157.35 263.4 156.45 262.15 154.8 L262.25 155.45 262.5 156.45 262.8 157.7 263.05 158.95 Q263.05 161.6 266.8 164.3 L268.7 165.55 268.7 165.8 268.7 165.85 Q268.7 166.3 269.3 167.35 L269.85 168.6 270.85 170.35 Q271.8 172.2 271.8 173.15 L272.0 173.6 272.15 174.0 272.25 174.4 272.45 174.85 272.7 175.65 Q272.7 176.05 273.0 176.45 L273.3 177.2 Q273.3 178.75 273.85 180.7 L274.35 183.65 274.65 185.0 274.95 186.35 275.2 187.2 275.3 187.45 275.45 187.85 275.6 188.55 275.8 189.8 276.0 190.55 276.3 191.9 276.6 193.25 276.9 194.55 276.0 198.0 274.35 202.1 Q274.35 202.5 274.15 202.4 273.9 202.35 273.9 202.7 L273.6 203.2 Q273.3 203.35 273.3 203.7 273.3 205.85 270.1 209.85 L266.85 213.5 266.55 214.25 266.3 214.65 265.35 215.8 264.85 214.2 264.85 214.15 264.6 212.9 Q264.3 212.15 264.3 211.65 L264.35 211.1 264.25 211.15 Q263.9 211.3 263.9 211.85 L263.35 214.05 262.9 215.9 262.55 217.2 Q261.75 220.45 261.6 222.35 L261.35 222.8 261.2 223.4 Q261.05 223.65 261.05 224.0 L260.7 226.8 Q260.7 228.5 261.15 230.9 L261.6 234.05 261.8 236.9 Q261.8 238.55 261.25 240.8 260.6 243.25 259.25 246.35 L257.7 249.9 256.35 252.65 255.95 253.5 255.55 253.5 255.5 253.5 255.5 253.25 255.6 252.45 255.7 251.9 255.9 250.5 256.2 248.35 256.2 248.15 Q256.2 245.15 252.9 234.6 L252.1 231.95 250.95 227.7 250.7 226.7 250.65 226.35 250.35 227.4 250.0 228.15 249.9 228.7 249.75 229.25 249.7 229.6 249.45 229.6 250.0 229.95 249.85 230.45 249.3 232.8 249.1 234.8 248.9 236.05 248.6 237.9 Q248.6 239.4 247.7 241.95 246.8 244.5 246.8 245.0 L246.65 245.65 246.45 246.3 246.2 247.15 245.4 246.2 Q244.0 244.65 243.25 244.55 243.45 244.7 243.25 245.05 242.95 245.6 242.9 246.1 L242.6 249.85 242.45 250.95 242.1 252.25 Q241.75 253.15 241.75 253.55 L241.7 254.7 238.9 258.95 237.7 260.7 Q232.4 268.55 230.35 272.15 L229.1 272.5 229.2 272.1 Q229.2 271.15 228.8 270.25 L228.75 270.15 228.65 270.0 228.8 268.6 228.9 268.2 228.9 268.15 229.15 267.85 228.85 268.05 227.6 264.75 Q227.6 262.85 224.05 259.75 L221.4 257.0 221.25 256.8 221.25 256.6 221.3 256.65 222.0 256.8 222.35 257.1 225.55 259.6 Q227.8 261.1 229.05 261.2 L228.5 260.7 Q228.2 260.25 228.2 259.7 L227.6 258.35 226.95 257.15 Q226.95 256.55 224.95 254.1 L222.95 251.75 Q222.95 250.7 222.4 249.05 L221.6 246.4 221.2 246.6 220.2 248.95 220.0 249.75 219.8 250.5 219.75 251.15 219.9 251.35 Q217.75 249.45 217.75 249.2 L217.65 247.15 Q217.5 246.4 216.5 245.25 L215.8 245.5 Q215.45 245.65 215.45 246.2 L215.3 247.7 215.15 248.95 Q212.85 246.65 212.85 246.2 L211.7 244.2 207.55 238.65 206.55 237.3 Q202.2 231.35 202.2 227.55 L202.3 223.85 202.2 220.7 202.2 220.55 200.85 222.25 Q199.7 223.65 199.7 223.95 L198.8 226.9 Q197.85 229.25 197.85 230.0 L197.65 230.9 197.4 231.75 Q197.4 235.15 198.3 239.4 L198.2 240.1 198.35 240.6 196.45 239.05 Q195.3 238.05 195.3 236.85 193.65 235.05 193.65 234.65 L189.75 228.15 Q189.75 226.9 188.95 226.05 188.15 225.15 188.15 224.4 188.15 224.05 187.85 223.85 187.55 223.65 187.55 223.25 187.55 222.35 186.2 219.4 L185.6 218.15 185.25 217.45 Q183.6 214.1 183.6 213.45 L183.3 212.9 Q183.0 212.7 183.0 212.3 L182.7 211.55 181.85 209.6 182.35 208.25 182.25 207.8 181.5 206.3 Q180.6 204.8 180.6 204.45 L180.25 202.75 Q180.25 201.0 179.9 199.75 L180.3 199.55 180.55 199.6 181.5 199.4 183.1 200.55 183.1 200.4 Q183.1 199.95 182.75 199.7 182.35 199.4 182.35 198.95 L180.35 194.4 178.6 189.9 179.0 185.95 179.6 180.45 Q179.95 178.9 181.65 175.8 L182.15 174.9 182.65 174.0 182.9 173.5 183.35 172.75 183.85 171.95 184.1 171.95 184.5 171.0 184.5 170.85 184.55 170.8 184.6 170.2 185.7 168.9 186.9 167.3 191.5 161.35 192.65 156.6 Q192.65 156.2 192.9 155.85 L193.1 155.05 Q193.1 153.5 194.15 152.2 195.7 150.3 196.05 149.45 194.35 150.05 193.05 151.1 L190.95 152.95 Q190.25 152.5 189.8 151.4 189.35 150.5 189.35 149.95 189.35 149.05 189.65 148.1 L189.95 147.1 Q190.45 145.75 190.9 145.5 188.2 146.6 186.85 147.25 L186.8 147.15 186.5 145.8 185.65 138.4 185.65 138.2 Q184.8 131.55 184.8 129.3 L185.25 121.8 185.75 117.05 185.85 116.05 Q186.0 114.8 186.5 113.0 L187.25 110.1 Q187.25 109.4 190.35 104.85 L191.65 102.95 194.45 98.9 196.05 96.3 Q196.05 95.7 196.8 93.2 L196.95 92.65 197.3 91.25 197.9 92.3 198.7 93.45 199.65 95.15 200.9 96.95 Q200.7 96.75 200.8 96.55 L201.0 96.4 Q200.95 95.0 201.15 94.1 L201.35 93.45 201.35 93.35 201.7 89.15 201.9 87.7 202.05 86.25 201.65 84.15 201.25 82.05 200.95 80.8 200.65 79.55 200.4 76.65 Q200.4 75.85 200.9 74.05 L198.9 75.8 197.25 77.5 197.45 78.1 197.25 78.1 197.25 78.15 197.15 77.65 197.0 76.9 196.95 76.65 196.85 76.4 196.2 74.4 195.95 73.85 Q195.7 73.7 195.7 73.25 L195.5 71.75 195.35 70.8 193.5 63.65 192.9 60.8 192.45 59.15 192.5 58.8 192.45 58.8 Q190.9 60.45 190.4 61.8 L190.35 61.6 Q190.05 60.8 190.05 60.35 L190.05 60.2 189.7 56.0 189.7 54.85 M257.75 82.85 Q259.35 86.3 263.8 90.2 L264.5 90.8 270.55 95.9 Q269.85 95.3 269.85 93.9 L269.75 93.5 269.65 93.1 Q269.65 92.5 268.95 91.4 L268.65 90.9 268.25 89.65 266.8 87.6 Q266.8 85.7 262.7 84.1 259.85 83.05 257.75 82.85 M178.95 92.35 L179.8 91.35 181.8 88.8 185.05 86.8 Q188.25 84.8 188.25 84.2 L189.4 82.3 189.6 81.9 190.15 80.85 190.5 82.8 Q190.5 85.2 188.3 88.85 L187.25 90.5 187.1 90.75 184.35 94.3 Q178.2 101.7 178.2 106.8 L178.0 106.0 177.75 105.2 176.95 102.6 Q176.1 100.4 176.1 98.3 176.1 95.8 178.95 92.35 M195.7 163.05 L195.65 162.85 195.55 162.2 195.2 163.2 Q194.2 165.75 191.0 171.85 L190.15 173.4 188.0 177.45 Q184.0 185.15 183.3 187.4 L183.65 187.95 Q184.8 185.4 189.7 178.95 L190.15 178.35 Q193.9 173.35 194.4 171.45 L194.45 170.95 Q194.45 170.55 194.85 170.3 195.2 170.1 195.2 169.65 L195.55 167.35 195.9 165.1 195.7 163.05 M171.65 173.05 L170.95 174.45 169.1 178.5 Q168.15 181.2 168.15 183.15 L167.4 189.75 Q167.4 193.75 169.85 197.95 L170.05 198.25 168.1 196.65 167.3 196.05 Q167.3 195.7 166.75 195.25 166.2 194.8 166.2 194.4 166.2 193.8 163.85 190.65 L161.45 187.5 160.85 186.05 Q160.2 184.9 160.2 184.1 L160.3 183.1 Q161.05 179.5 166.75 175.1 167.8 174.3 169.0 173.45 L172.95 170.7 171.65 173.05 M248.3 263.85 L250.5 265.65 250.8 267.0 251.1 268.35 Q251.1 269.8 246.55 274.4 L237.55 283.15 242.65 275.15 Q245.9 269.9 245.9 267.9 245.9 267.3 246.45 264.7 L246.85 262.6 248.3 263.85 M270.55 216.35 L271.95 214.7 272.2 214.4 276.7 210.1 277.0 211.9 Q277.0 212.9 275.95 215.15 L275.2 216.6 271.65 222.4 Q266.25 230.55 266.25 231.4 266.25 232.3 266.1 231.95 L265.8 231.7 Q265.1 229.2 265.1 228.3 265.1 222.95 270.55 216.35 M194.1 210.1 L193.85 209.7 192.35 207.3 188.7 201.5 188.5 201.95 188.35 202.75 188.15 203.5 187.95 208.6 188.05 208.8 188.5 209.6 189.0 210.9 189.3 211.9 189.5 212.3 189.6 212.85 190.3 213.9 191.35 215.3 192.2 216.4 193.05 217.6 193.55 218.8 Q194.1 219.7 194.45 219.7 195.3 219.7 195.3 219.3 L195.95 215.9 196.05 214.75 195.6 213.0 194.1 210.1 M183.1 200.55 L183.3 200.95 183.75 201.05 183.1 200.55 M210.7 252.85 L212.55 255.75 Q215.1 260.25 218.3 268.5 L212.55 264.05 Q208.25 260.6 208.25 258.35 208.25 256.75 209.0 255.2 209.45 254.25 210.2 253.35 L210.7 252.85" fill="url(#gradient0)" fill-rule="evenodd" stroke="none"/>
    <path d="M198.55 28.7 L198.7 28.0 Q199.7 23.45 201.6 19.75 205.75 11.7 215.65 4.45 L215.9 4.8 Q216.85 10.6 225.3 17.65 L226.6 18.7 232.0 22.85 233.05 23.45 Q234.25 24.05 234.65 24.05 L234.75 24.1 235.2 24.5 Q235.85 24.9 236.05 24.9 236.95 24.9 238.9 26.8 240.85 28.65 240.85 29.4 L241.05 29.75 241.2 30.1 241.4 30.55 241.55 31.0 242.15 32.65 Q242.7 34.2 242.7 35.05 L242.9 35.55 243.05 36.0 243.2 36.5 243.35 36.95 243.65 37.85 243.9 39.2 Q243.9 41.0 243.35 42.4 L243.0 43.05 242.05 44.8 243.05 46.9 Q244.95 51.5 245.65 55.0 L246.0 58.5 Q246.0 59.85 245.5 61.5 L244.95 63.2 Q244.95 64.4 245.75 66.55 L246.5 68.55 249.2 72.15 Q251.85 75.8 251.85 76.55 251.85 77.35 252.9 79.55 L253.95 81.8 Q253.95 83.1 255.05 84.55 L253.9 83.5 252.6 82.5 246.45 79.55 245.8 79.75 245.75 79.95 246.75 80.9 Q246.75 81.3 247.45 82.0 L248.1 82.8 Q248.1 83.5 248.75 84.4 L249.35 85.2 Q249.35 86.0 249.95 87.6 L250.5 89.4 250.4 91.3 250.3 92.5 249.95 96.0 249.75 98.25 Q249.75 100.25 250.45 103.4 L251.1 106.4 Q251.1 109.2 254.7 114.25 L256.1 116.25 258.3 119.45 Q258.3 120.65 259.0 121.5 259.7 122.35 259.7 123.5 L260.1 128.1 259.8 129.15 259.5 130.2 259.2 132.55 258.6 135.15 257.7 137.75 Q257.7 138.95 256.4 140.85 L256.15 141.2 Q255.05 142.75 255.05 143.1 L254.8 143.75 254.75 143.8 Q254.4 144.15 254.4 144.5 L254.2 145.35 253.95 146.15 253.75 147.05 253.5 147.9 253.3 150.75 253.2 151.8 253.6 154.5 254.6 159.5 254.9 160.65 255.2 161.75 Q255.2 163.2 256.45 165.7 L256.7 166.2 256.95 166.5 259.75 169.2 Q263.5 172.5 264.55 173.75 266.75 176.4 266.75 179.2 266.75 179.65 267.0 179.75 L267.25 180.3 267.55 181.35 267.85 182.35 Q267.85 182.8 268.0 182.75 L268.1 183.1 268.45 184.8 Q268.45 185.9 269.1 187.1 L269.15 187.2 Q269.75 188.3 269.75 188.75 L270.8 190.5 271.1 192.45 271.4 194.4 270.75 196.25 Q270.05 197.9 270.05 198.3 270.05 199.25 264.3 207.35 L259.6 213.85 259.1 214.5 259.45 213.85 262.1 208.2 Q265.7 200.15 265.7 197.2 265.7 193.75 265.15 191.05 264.75 189.2 264.15 187.9 L263.85 188.85 263.05 190.95 Q262.2 192.55 262.2 192.95 262.2 195.35 258.2 206.8 L258.3 205.95 Q258.3 204.25 257.5 202.95 256.65 201.7 256.65 201.15 L256.35 200.6 Q256.05 200.4 256.05 200.0 256.05 199.35 254.1 197.6 252.15 195.85 252.15 195.0 252.15 194.55 251.05 193.1 L249.9 191.7 Q249.9 191.35 249.55 191.1 249.2 190.9 249.2 190.5 L249.15 189.85 249.05 189.8 248.9 190.3 Q248.75 190.65 248.75 191.1 248.75 193.3 247.2 198.85 L247.85 201.65 249.55 209.3 249.2 213.5 249.05 214.95 248.85 216.5 248.5 217.8 Q248.15 218.7 248.15 219.1 248.15 220.1 247.45 222.15 L247.3 222.45 Q246.15 225.4 245.95 226.2 245.6 224.5 245.7 223.0 L245.8 222.1 245.85 220.7 245.65 219.2 245.45 217.7 245.2 214.7 245.0 213.45 244.1 209.0 244.0 208.65 242.55 213.4 242.25 214.45 241.4 217.9 240.65 221.75 Q240.35 223.75 240.35 225.35 240.35 232.55 237.4 240.25 L234.45 247.35 Q234.45 246.8 233.4 245.6 232.35 244.4 232.35 243.65 230.55 241.2 230.55 240.8 230.55 240.1 226.05 234.45 L220.95 227.9 216.6 220.7 215.65 219.25 Q215.8 229.15 218.3 235.5 219.8 239.2 222.35 241.9 218.7 240.4 213.65 232.75 207.55 223.55 207.55 215.1 L207.6 214.85 207.6 214.7 207.95 212.85 208.2 211.5 208.3 210.6 Q208.3 206.95 209.65 203.3 L209.15 201.3 Q209.15 199.65 209.55 197.65 L209.7 197.15 210.05 195.35 Q204.45 198.2 201.5 200.2 196.5 203.5 196.1 207.4 L196.05 208.1 196.05 208.3 196.15 210.05 196.35 211.55 196.1 211.35 195.8 211.3 Q195.65 211.35 195.65 210.9 L195.4 210.25 195.25 209.9 195.15 209.25 195.15 209.1 194.8 208.15 Q194.45 207.4 194.45 207.0 L194.45 206.9 194.3 206.55 Q194.1 206.5 194.1 206.1 194.1 205.45 193.45 204.6 192.75 203.75 192.75 202.7 L192.2 201.15 191.95 200.35 191.7 199.5 Q191.15 195.75 191.15 195.0 L191.6 192.45 192.0 189.8 Q192.0 188.55 193.9 185.2 195.8 181.9 195.8 181.05 L196.25 180.4 196.55 180.0 197.25 178.8 198.45 176.35 199.4 174.75 199.65 174.3 Q199.65 173.95 199.95 173.8 L200.25 173.25 200.45 172.45 200.6 171.6 200.75 170.8 201.45 166.75 202.25 161.1 202.25 160.3 201.9 158.1 201.5 156.15 201.15 154.1 200.85 153.35 Q200.55 152.95 200.55 152.55 200.55 151.85 199.6 150.0 L198.9 148.6 198.6 147.95 Q198.6 147.25 196.7 143.4 L196.4 142.3 Q196.05 141.55 196.05 141.15 L195.8 139.8 195.5 138.45 195.05 133.5 Q195.05 132.85 195.8 129.35 L196.55 125.75 196.75 124.95 196.95 124.2 196.95 124.1 Q196.95 123.75 197.1 123.5 L197.25 122.85 Q197.25 122.0 198.0 120.4 199.1 117.9 201.9 113.65 L206.55 106.95 Q206.55 106.6 206.85 106.45 L207.15 105.9 Q207.15 105.55 207.4 105.4 L207.65 104.85 Q207.65 103.9 208.8 101.65 209.9 99.35 209.9 98.7 L210.1 97.85 210.3 97.05 210.3 97.0 210.25 97.05 203.45 105.15 Q193.85 116.8 190.75 125.2 L190.3 126.5 Q190.2 126.05 190.55 125.25 L190.55 125.2 190.95 123.9 Q190.95 116.7 192.9 111.85 194.55 107.8 198.45 103.65 L204.25 98.0 206.95 95.4 208.25 94.15 213.2 88.85 214.8 84.05 Q216.0 81.45 216.0 80.55 L216.9 78.3 217.0 77.7 Q215.8 79.65 212.5 82.65 206.8 87.9 203.55 88.5 203.85 88.35 203.6 88.1 L205.15 87.3 Q205.65 86.95 205.65 86.4 L206.4 81.9 Q206.4 78.05 203.8 72.2 L201.15 66.15 200.6 65.0 200.15 64.05 200.0 63.35 199.35 60.05 199.05 58.7 198.75 57.35 Q198.75 56.7 199.3 55.15 L199.8 53.6 199.5 52.85 Q199.2 52.45 199.2 52.05 199.2 51.7 199.5 51.55 L199.8 51.0 199.5 50.4 Q199.2 50.2 199.2 49.8 L198.65 46.7 198.5 45.25 198.45 43.85 199.35 41.6 199.6 40.75 199.8 39.9 200.7 37.65 Q200.7 36.25 203.35 34.1 L204.6 33.15 204.75 32.95 Q208.6 29.0 211.45 27.25 213.3 26.05 214.75 25.85 L215.0 25.7 213.35 26.0 213.0 26.1 212.85 26.1 211.9 26.35 Q209.9 26.8 208.05 27.55 204.35 29.05 201.2 31.5 L199.85 32.65 197.7 34.8 Q197.95 31.6 198.55 28.7 M257.75 82.85 Q259.85 83.05 262.7 84.1 266.8 85.7 266.8 87.6 L268.25 89.65 268.65 90.9 268.95 91.4 Q269.65 92.5 269.65 93.1 L269.75 93.5 269.85 93.9 Q269.85 95.3 270.55 95.9 L264.5 90.8 263.8 90.2 Q259.35 86.3 257.75 82.85 M217.0 77.7 Q217.85 76.3 217.7 75.45 L217.95 75.15 217.65 75.3 217.7 75.45 217.2 76.8 217.0 77.7 M195.7 163.05 L195.9 165.1 195.55 167.35 195.2 169.65 Q195.2 170.1 194.85 170.3 194.45 170.55 194.45 170.95 L194.4 171.45 Q193.9 173.35 190.15 178.35 L189.7 178.95 Q184.8 185.4 183.65 187.95 L183.3 187.4 Q184.0 185.15 188.0 177.45 L190.15 173.4 191.0 171.85 Q194.2 165.75 195.2 163.2 L195.55 162.2 195.65 162.85 195.7 163.05 M194.1 210.1 L195.6 213.0 196.05 214.75 195.95 215.9 195.3 219.3 Q195.3 219.7 194.45 219.7 194.1 219.7 193.55 218.8 L193.05 217.6 192.2 216.4 191.35 215.3 190.3 213.9 189.6 212.85 189.5 212.3 189.3 211.9 189.0 210.9 188.5 209.6 188.05 208.8 187.95 208.6 188.15 203.5 188.35 202.75 188.5 201.95 188.7 201.5 192.35 207.3 193.85 209.7 194.1 210.1" fill="url(#gradient1)" fill-rule="evenodd" stroke="none"/>
    <path d="M186.85 147.25 L186.8 147.25 185.85 147.85 Q184.3 148.85 184.3 150.15 L184.25 152.05 Q183.75 150.4 184.05 147.7 L184.35 145.3 Q185.35 140.95 185.35 140.0 L185.6 138.3 185.65 138.2 185.65 138.4 186.5 145.8 186.8 147.15 186.85 147.25" fill="#6bb4c8" fill-rule="evenodd" stroke="none"/>
    <path d="M189.7 54.85 L189.25 50.45 Q188.35 41.75 188.35 40.2 188.35 36.85 191.05 29.9 L191.9 27.8 193.7 23.65 Q193.7 23.4 196.15 19.7 L199.95 14.35 Q201.7 12.3 206.65 8.15 214.35 0.7 214.35 -4.65 L214.75 -4.05 221.35 4.5 Q227.8 12.8 230.4 14.95 237.65 21.0 239.7 23.3 L239.85 23.45 241.55 25.55 239.7 23.7 239.5 23.5 Q235.6 19.95 232.35 19.95 230.9 19.3 228.9 18.6 L225.3 17.65 Q216.85 10.6 215.9 4.8 L215.65 4.45 Q205.75 11.7 201.6 19.75 199.7 23.45 198.7 28.0 L198.55 28.7 Q194.4 32.75 194.4 35.55 L194.1 36.85 Q189.9 43.6 189.7 54.85" fill="#86c2cd" fill-rule="evenodd" stroke="none"/>
    <path d="M243.85 32.55 L244.05 33.1 244.45 34.2 244.8 35.4 244.95 35.75 245.1 36.05 Q245.1 36.95 245.4 38.65 L245.7 41.6 245.6 41.85 245.5 41.95 245.6 41.45 Q245.6 40.25 243.65 38.4 L240.35 35.45 238.85 34.0 238.95 34.3 Q238.95 34.8 239.4 35.15 L239.85 35.95 Q239.85 36.45 240.3 36.8 240.75 37.15 240.75 37.65 L241.15 38.8 241.5 39.9 241.8 42.7 242.05 46.55 240.45 51.05 240.25 51.95 Q240.0 52.35 240.0 52.85 240.0 54.9 239.15 58.15 L239.0 58.6 Q238.3 61.0 238.1 63.2 L237.0 61.2 236.55 60.4 Q236.1 60.05 236.1 59.55 L235.75 58.7 233.45 53.35 Q231.2 48.1 230.85 46.35 L230.5 47.9 231.35 49.15 Q233.35 52.5 233.35 54.5 L234.05 58.95 234.05 59.0 Q234.05 61.5 233.15 65.1 L233.0 65.65 232.8 66.5 233.0 70.1 232.95 71.65 232.75 72.95 231.95 76.2 230.55 79.85 230.5 80.0 228.85 83.3 228.7 83.5 227.8 85.1 227.25 86.05 226.6 87.2 226.25 84.5 226.15 83.55 225.95 80.4 225.65 79.0 Q225.35 78.05 225.35 77.55 L225.2 76.9 222.35 69.95 Q222.35 69.3 220.7 66.85 L220.5 66.5 Q219.05 64.35 219.05 63.65 219.05 63.15 218.6 62.8 L218.35 62.6 218.15 61.95 218.0 61.3 218.1 62.65 218.4 66.85 218.55 69.2 218.2 70.7 217.95 71.45 217.8 72.2 217.4 75.6 217.0 78.4 216.95 79.0 216.95 79.05 216.7 78.45 216.65 78.4 215.85 76.35 Q215.85 75.2 214.35 74.15 212.85 73.05 212.85 72.55 212.85 71.7 211.5 70.05 L210.35 68.35 210.1 67.5 208.85 65.5 208.8 65.25 208.4 64.65 Q207.95 64.3 207.95 63.8 L207.6 62.7 207.2 61.55 206.85 60.4 206.45 59.25 206.35 58.8 206.0 58.4 Q205.55 58.05 205.55 57.55 L204.7 55.8 Q203.85 54.1 203.85 53.6 L203.5 52.5 Q203.15 51.85 203.15 51.35 L202.7 47.9 202.7 47.8 202.25 44.4 Q202.25 43.9 202.95 41.4 L203.6 38.95 205.25 36.0 206.0 35.0 Q206.7 34.15 206.7 33.7 206.7 33.2 207.1 33.0 207.5 32.75 207.5 32.25 L209.05 30.45 209.5 29.65 209.5 29.5 208.3 30.5 207.3 31.25 Q198.15 38.4 198.15 42.35 L198.0 42.95 197.85 43.55 197.8 43.85 197.6 43.7 Q198.1 41.8 198.1 39.95 L198.5 38.25 198.85 37.0 199.05 36.25 199.25 35.45 199.35 34.45 Q198.95 34.1 198.95 32.2 L199.05 29.2 Q199.05 21.6 204.05 15.75 206.75 12.6 212.85 7.25 211.8 8.9 211.15 11.9 L209.9 17.95 210.15 18.0 210.35 18.25 Q211.65 16.4 214.55 14.35 215.95 13.35 215.95 9.8 215.95 6.0 215.15 4.1 215.75 5.45 221.45 12.25 227.05 18.95 229.3 21.05 L232.2 24.1 232.5 24.2 236.6 25.9 237.15 26.15 Q240.3 27.7 241.95 29.1 243.65 30.6 243.65 31.95 L243.85 32.55 M244.0 82.55 L246.45 85.2 Q246.45 85.7 246.9 86.05 L247.35 86.85 247.75 87.8 Q248.15 88.55 248.15 89.15 248.15 89.65 247.2 91.05 L246.6 92.0 246.2 93.25 246.0 94.9 246.0 94.95 245.75 96.6 245.9 98.05 246.35 99.55 247.65 101.55 245.7 100.05 Q244.65 99.15 244.6 97.85 L244.6 97.75 243.65 95.45 243.15 94.35 242.4 92.45 242.35 92.3 240.95 88.9 240.7 88.3 Q239.8 86.2 239.8 85.25 L239.6 83.0 239.25 78.65 239.3 77.25 241.7 79.95 244.0 82.55 M244.5 82.3 L244.65 81.85 244.7 81.85 244.5 82.3 M245.65 64.15 L245.8 64.55 245.9 65.2 246.0 65.65 246.1 66.05 245.6 68.45 Q245.05 69.95 245.05 70.25 245.05 70.9 246.15 73.35 L246.15 73.95 246.65 74.55 245.45 73.25 243.8 69.3 Q242.7 66.9 242.35 64.6 L242.1 62.05 242.7 59.0 242.85 58.55 243.6 59.75 Q244.75 61.55 244.75 62.05 L245.35 63.25 245.65 64.15 M215.5 28.5 L215.6 28.6 215.6 28.3 215.5 28.5 M205.5 72.55 L206.35 73.35 Q209.7 76.5 209.7 78.8 L208.6 80.3 208.4 80.75 207.15 82.7 205.45 85.25 205.45 85.05 206.0 82.55 206.25 81.5 206.6 79.0 205.5 72.55 M232.4 39.1 L232.5 40.45 232.75 39.45 232.4 39.1 M205.75 68.65 L205.8 68.5 205.85 68.55 205.75 68.65 M228.9 212.4 L229.05 212.65 229.4 213.5 229.4 213.75 229.85 215.35 230.65 217.6 Q231.8 220.65 231.9 222.85 L231.9 223.15 Q231.9 225.85 232.5 231.0 L232.6 231.85 233.6 239.25 233.25 238.9 232.0 236.85 231.15 234.1 229.6 230.6 229.55 230.4 228.05 225.35 227.35 222.5 226.9 220.35 Q226.9 218.25 227.95 215.0 L228.5 213.45 228.7 212.85 228.9 212.4 M250.85 164.6 L250.3 161.75 251.3 162.4 Q254.3 164.15 255.0 165.1 L255.2 165.55 Q255.2 166.0 255.6 166.3 L255.95 167.0 Q255.95 167.85 257.15 170.6 L257.35 171.05 Q258.2 173.3 258.3 175.45 L258.3 175.95 258.3 176.15 257.65 175.45 255.2 172.7 253.7 170.65 Q251.75 167.75 250.85 164.6 M251.5 121.75 L251.3 121.3 252.55 122.05 253.3 122.45 Q260.05 126.1 260.05 127.75 L260.65 129.05 260.95 130.5 261.25 131.95 Q261.25 133.3 260.5 135.85 L259.85 137.9 258.8 140.7 258.2 142.2 257.95 148.5 Q257.95 150.95 259.35 156.6 259.35 157.05 259.7 157.6 L260.05 158.55 260.15 159.35 260.55 159.75 260.1 159.95 258.55 158.4 256.8 154.75 Q255.05 151.25 255.05 149.5 255.05 147.75 255.8 144.6 L256.0 143.8 256.4 142.5 256.95 140.35 Q256.95 139.8 257.1 139.25 L257.7 138.95 257.55 138.15 256.8 135.45 253.65 126.8 251.5 121.75 M235.25 185.0 L235.2 183.25 238.25 189.8 241.35 195.8 241.4 196.7 241.65 200.7 241.35 203.65 Q240.8 206.5 239.3 210.0 L236.9 215.1 237.0 214.45 237.65 204.5 237.55 203.5 236.7 199.5 236.05 196.8 235.7 195.35 235.75 194.5 235.05 193.35 Q234.5 194.45 233.25 195.6 L231.95 196.75 233.8 191.2 Q235.25 187.0 235.25 185.0 M219.25 186.05 L222.0 188.85 222.1 190.65 222.55 195.4 222.4 208.2 221.8 207.6 Q221.45 207.2 221.45 206.55 L221.0 201.9 220.75 198.95 220.75 197.8 Q220.6 194.7 219.75 191.95 L218.7 189.2 Q217.05 185.6 216.75 183.05 L219.25 186.05 M204.05 157.4 L204.05 156.8 204.55 154.15 Q205.35 155.4 205.35 156.85 L205.5 158.1 205.5 158.2 205.65 159.15 205.95 161.4 205.6 162.4 Q205.25 162.9 205.25 163.35 L204.9 166.3 204.95 167.05 Q204.2 163.2 204.1 158.45 L204.05 157.4 M237.9 170.65 L237.0 166.9 236.85 165.1 236.95 163.05 237.35 160.7 Q237.95 161.95 239.0 163.25 L239.65 164.0 Q239.95 166.05 241.85 167.95 L242.2 168.25 244.6 170.3 244.95 170.6 246.95 172.2 Q248.75 173.75 250.15 175.5 253.6 179.9 254.2 185.5 L254.35 188.0 253.8 191.6 253.2 195.25 Q253.2 195.75 252.65 196.55 L252.1 197.55 252.05 197.85 Q252.05 199.4 248.8 203.6 L248.65 203.75 247.25 205.45 244.2 209.3 244.8 207.3 245.7 203.75 245.9 203.05 246.0 202.75 Q246.75 199.95 246.75 197.85 L246.75 196.9 Q246.5 191.45 243.9 184.8 L241.8 180.05 240.05 176.2 239.65 175.35 237.9 170.65 M200.2 186.65 L200.45 186.0 201.3 184.1 203.5 179.75 204.2 178.55 206.15 175.1 206.15 175.15 206.5 176.25 Q206.5 176.6 207.2 177.45 L207.5 177.75 208.5 179.0 Q208.5 179.8 209.5 180.8 L210.45 181.75 Q210.45 182.6 211.15 183.9 L211.9 185.05 Q213.35 187.1 213.35 187.7 213.35 188.2 213.65 188.4 213.95 188.55 213.95 189.05 L214.2 190.8 214.4 192.55 214.6 193.75 215.7 198.35 215.7 198.4 215.85 198.9 216.4 201.1 Q217.0 203.85 217.0 205.05 217.0 206.9 219.25 212.6 L219.55 213.4 219.65 213.6 222.05 220.0 Q222.05 221.0 221.75 221.2 219.85 219.3 216.2 213.05 L215.75 212.25 212.45 206.45 208.75 199.35 208.7 199.25 208.0 197.75 Q205.55 192.5 205.55 190.5 L205.6 188.95 205.5 187.35 Q202.9 188.65 202.25 189.25 201.3 190.1 201.3 191.55 201.3 192.85 200.8 193.95 200.25 195.1 200.25 195.75 L200.25 196.5 200.25 196.6 200.15 197.55 Q200.15 198.65 200.35 198.85 L199.65 198.15 199.1 196.45 199.0 195.95 198.95 195.65 198.65 193.35 Q198.65 190.6 200.2 186.65 M193.0 172.45 L193.15 172.0 193.3 171.15 Q195.9 164.55 195.9 163.8 195.9 162.85 196.35 160.6 L196.75 162.05 195.9 169.8 195.6 172.4 195.55 172.7 195.05 174.85 Q194.5 176.5 194.5 176.9 L194.1 179.75 Q193.7 182.25 193.65 183.3 L193.35 183.05 192.9 182.9 Q192.7 182.9 192.7 182.35 192.0 179.5 192.0 178.35 L192.35 176.05 192.65 173.7 Q192.65 173.3 193.0 172.45 M199.05 102.45 Q198.55 103.65 198.55 104.5 198.55 109.25 197.05 112.4 L196.3 114.15 Q195.65 115.55 195.15 116.85 194.05 119.5 193.45 121.8 L193.2 121.45 192.0 120.6 Q191.85 120.35 191.85 118.85 L192.05 118.0 192.25 117.25 192.65 115.7 Q192.65 114.2 193.1 112.65 194.2 108.35 198.4 103.2 L199.05 102.45 M231.0 131.85 L231.6 133.2 Q231.6 133.95 234.85 137.2 L237.75 140.5 238.05 141.2 238.5 142.85 238.7 143.3 238.95 144.45 Q238.95 145.6 239.4 147.15 L239.5 147.5 239.85 149.85 239.35 152.0 238.8 154.1 238.8 154.3 236.15 147.8 235.3 145.8 234.1 142.9 233.2 140.6 Q231.1 135.2 231.1 133.45 L231.0 131.85 M222.75 141.55 Q221.55 138.7 221.05 135.9 L223.0 137.6 Q225.55 139.65 226.65 141.05 L226.85 141.3 227.4 142.2 Q228.6 144.4 228.6 147.35 L228.05 151.65 227.65 150.8 224.75 145.75 Q223.6 143.7 222.8 141.7 L222.75 141.55 M212.15 147.95 L212.15 147.0 Q212.15 145.9 213.2 143.8 L213.15 143.5 212.9 142.0 213.4 143.4 213.4 143.45 214.25 145.3 215.6 148.15 216.0 149.35 Q216.0 150.1 216.9 151.4 L217.8 152.7 218.0 153.9 Q218.3 155.05 219.15 156.75 L220.65 159.5 220.85 159.8 221.9 161.8 222.65 163.6 222.85 164.3 Q223.85 167.45 223.85 170.9 L223.95 172.7 224.35 174.85 Q224.85 176.95 226.0 179.0 227.9 182.4 228.5 184.1 L228.7 184.95 227.8 184.05 222.7 178.9 220.95 177.1 218.55 174.5 218.2 174.05 215.8 170.7 Q215.2 169.65 214.75 168.3 213.7 165.55 213.1 161.65 L212.95 160.5 212.55 157.25 Q212.2 153.1 212.15 147.95 M208.25 103.4 L208.3 103.55 209.6 111.6 209.75 112.7 209.7 113.75 209.15 117.8 208.6 120.7 206.95 127.25 206.2 130.35 205.85 131.75 Q205.3 134.3 205.3 135.55 L205.7 136.7 206.05 137.85 206.45 139.0 206.75 139.6 206.85 140.1 Q206.85 140.6 207.3 140.95 207.7 141.3 207.7 141.8 207.7 142.45 208.0 142.85 L208.6 143.45 208.1 143.7 204.75 140.35 204.6 140.2 203.9 139.45 203.65 139.1 Q200.9 135.3 200.55 131.15 L200.5 130.0 200.5 129.95 200.9 128.45 201.3 126.9 Q201.3 126.4 201.65 124.6 L202.0 122.3 202.2 120.3 203.1 116.4 203.2 116.0 203.65 114.7 205.1 110.5 205.85 108.55 208.0 103.5 208.2 102.95 208.25 103.4 M232.8 113.45 L232.7 111.8 234.1 112.55 235.1 113.8 235.65 114.45 Q237.7 116.9 237.7 118.1 L237.7 118.15 Q237.75 118.8 238.65 120.3 L241.45 124.15 245.2 128.7 246.5 131.6 247.8 134.35 247.8 134.45 248.15 137.35 248.3 138.5 248.45 140.35 248.5 141.1 248.7 144.1 249.1 150.05 249.1 150.35 249.05 151.55 248.4 156.1 247.95 158.2 247.85 158.65 247.85 159.0 247.6 158.5 247.45 158.15 247.3 157.35 Q247.3 154.05 246.45 150.2 L245.75 147.45 244.55 143.8 243.35 140.7 241.8 137.25 240.25 134.1 239.95 133.55 235.4 124.8 Q234.3 122.55 233.75 120.9 L233.55 120.25 Q233.25 119.25 233.25 118.5 L233.2 118.15 233.1 117.05 232.8 113.45 M226.25 108.55 L226.4 109.05 226.45 110.15 Q226.45 110.9 227.15 112.95 L227.6 114.3 228.75 117.8 228.4 120.05 228.4 120.1 228.0 122.3 228.4 123.7 228.8 125.1 Q228.8 125.9 229.85 127.3 230.9 128.7 230.9 129.15 230.9 130.0 231.2 130.45 L231.85 131.45 231.5 131.15 230.8 130.75 Q230.3 130.45 230.3 129.9 L227.9 124.4 Q227.0 122.2 226.45 119.95 225.5 116.45 225.45 112.9 L225.45 112.5 Q225.45 110.55 226.25 108.55 M241.9 108.3 Q240.25 105.35 239.4 102.75 L239.6 102.9 Q243.6 105.55 243.6 106.4 L244.05 107.8 244.85 109.95 246.05 113.45 246.35 116.3 246.45 117.3 246.05 116.2 Q244.85 113.25 242.65 109.6 L241.9 108.3 M234.5 76.25 L234.9 79.85 Q234.9 80.3 235.15 80.4 L235.4 80.95 235.1 82.95 235.05 83.3 234.75 84.95 236.0 92.15 234.4 98.45 Q234.4 99.2 234.9 101.1 L235.1 101.85 233.9 100.9 Q232.25 98.5 232.25 90.3 232.25 86.6 232.7 83.4 233.1 80.65 233.8 78.25 L234.5 76.25 M221.7 92.5 L221.0 86.35 223.3 90.55 223.7 91.3 Q224.1 91.6 224.1 92.05 L225.5 98.7 225.35 99.85 224.75 101.95 223.65 106.05 Q224.0 106.4 223.5 106.55 222.45 102.9 222.45 101.55 L222.4 99.7 221.7 92.5 M218.4 85.6 L218.35 86.2 218.15 90.05 217.95 94.4 218.45 98.65 218.6 99.6 218.8 101.35 218.9 102.95 218.45 105.9 218.25 106.6 Q217.55 109.05 217.55 109.95 L217.2 113.1 216.55 115.75 Q216.55 116.75 216.35 116.35 L215.95 115.9 215.85 115.0 215.7 113.2 215.3 108.45 214.85 105.15 214.65 104.2 214.2 101.5 214.0 99.7 214.0 99.5 214.45 96.9 214.85 94.3 Q214.85 90.5 217.5 86.85 L218.4 85.6 M236.2 215.7 L236.2 216.8 235.95 216.4 236.2 215.7 M192.45 205.5 L192.7 206.75 193.2 212.55 Q193.2 213.6 193.75 216.35 193.6 216.9 192.85 216.8 192.05 215.95 190.85 211.9 189.35 207.0 189.35 202.7 L189.35 202.65 Q189.35 200.35 190.5 197.6 191.65 200.55 191.65 201.75 L191.7 202.2 191.95 203.0 192.2 204.25 192.45 205.5" fill="#ffffff" fill-rule="evenodd" stroke="none"/>
  </g>
  <defs>
    <linearGradient gradientTransform="matrix(-0.0032, 0.1384, -1.3082, -0.0175, 866.75, 134.05)" gradientUnits="userSpaceOnUse" id="gradient0" spreadMethod="pad" x1="-819.2" x2="819.2">
      <stop offset="0.0" stop-color="#44cce2" stop-opacity="0.49803922"/>
      <stop offset="1.0" stop-color="#216376" stop-opacity="0.49803922"/>
    </linearGradient>
    <linearGradient gradientTransform="matrix(2.0E-4, 0.1043, -1.308, -0.0515, 735.5, 166.45)" gradientUnits="userSpaceOnUse" id="gradient1" spreadMethod="pad" x1="-819.2" x2="819.2">
      <stop offset="0.0" stop-color="#b8fff5" stop-opacity="0.49803922"/>
      <stop offset="1.0" stop-color="#5faed0" stop-opacity="0.49803922"/>
    </linearGradient>
  </defs>
</svg>
