<?xml version="1.0" encoding="UTF-8" standalone="no"?>
<svg xmlns:ffdec="https://www.free-decompiler.com/flash" xmlns:xlink="http://www.w3.org/1999/xlink" ffdec:objectType="shape" height="273.2px" width="115.15px" xmlns="http://www.w3.org/2000/svg">
  <g transform="matrix(1.0, 0.0, 0.0, 1.0, -166.85, 2.9)">
    <path d="M250.5 35.05 Q253.6 37.7 255.05 40.1 256.3 42.15 256.3 44.0 L256.35 45.15 256.5 46.45 Q255.95 45.6 254.75 44.9 L253.15 44.1 Q252.0 43.6 251.05 43.25 L251.3 44.45 251.45 45.05 252.05 48.25 Q252.05 49.45 254.0 53.4 L254.55 54.45 255.95 57.15 Q255.95 57.4 259.3 61.75 262.6 66.45 262.6 68.4 L263.0 70.2 263.4 71.9 263.65 74.1 263.85 75.65 263.9 76.7 Q263.9 78.55 264.05 79.9 L264.15 82.25 Q264.15 83.75 265.25 85.1 266.35 86.5 268.7 87.7 273.2 90.0 273.2 92.6 273.2 92.9 273.35 93.0 L273.65 93.1 273.75 93.55 265.95 89.75 Q262.1 87.9 260.9 86.35 L261.05 86.65 261.25 87.25 262.1 90.65 Q261.1 88.95 258.9 86.4 L257.8 85.25 254.45 81.7 254.25 82.05 254.2 82.25 254.15 84.55 254.1 85.35 254.0 86.55 254.3 87.8 Q254.5 88.6 254.1 89.25 L253.8 89.55 253.2 89.65 252.95 89.65 258.4 93.55 261.75 96.35 Q263.25 97.85 264.05 99.1 L264.75 102.65 265.0 105.15 265.25 106.2 265.45 107.25 265.1 109.5 263.9 113.45 263.0 116.45 Q262.8 117.05 262.75 117.55 L262.7 117.75 263.05 118.15 263.4 118.6 Q264.0 119.55 264.0 120.6 L264.15 121.4 264.6 122.45 Q265.2 123.55 265.2 124.15 265.2 124.95 266.8 126.85 L269.0 129.65 270.35 132.6 Q271.3 135.0 271.3 135.9 L271.6 136.55 271.85 137.5 272.2 139.45 272.95 140.7 Q273.65 141.95 273.65 142.55 273.65 142.95 274.35 143.7 L275.05 144.65 276.45 148.3 Q277.85 152.1 277.9 153.85 L278.0 156.25 279.65 160.3 280.3 162.25 280.95 164.3 Q282.0 168.2 282.0 170.8 282.0 172.15 281.05 173.9 L279.95 175.9 280.1 174.65 280.0 172.7 278.95 170.95 Q278.95 170.45 277.85 169.35 L277.8 169.85 Q277.8 172.1 271.75 183.9 L270.85 185.75 Q265.65 196.05 265.65 199.95 L266.45 201.75 Q267.2 203.4 267.25 204.25 L267.25 204.35 267.7 205.7 268.15 206.95 268.3 207.45 268.45 207.9 268.65 208.4 268.8 208.85 268.9 209.55 269.25 211.7 269.6 215.25 269.3 217.0 Q269.0 218.15 269.0 218.7 269.0 220.4 268.3 222.55 L267.15 225.35 Q265.25 229.15 265.25 229.7 265.25 232.55 262.45 235.55 L259.65 238.0 Q258.55 237.75 258.3 237.4 L258.15 237.1 258.1 236.7 257.95 236.4 257.75 235.7 258.15 233.4 Q258.15 232.1 257.55 230.2 L256.95 228.25 256.65 226.8 256.55 225.95 256.05 223.45 255.45 221.9 Q255.15 222.05 255.15 222.5 L255.05 222.9 Q254.9 223.05 254.9 223.3 L255.2 225.2 255.5 227.85 Q255.5 229.45 248.65 239.7 L248.45 240.5 248.25 241.3 248.1 241.95 247.9 242.6 247.65 243.2 247.4 243.8 246.25 247.55 Q246.25 248.65 243.45 252.85 L240.6 257.0 Q240.6 257.45 240.0 258.15 239.4 258.85 239.4 259.4 L237.85 262.5 237.3 263.55 236.2 265.65 231.4 270.3 231.25 269.15 231.15 267.6 230.7 261.25 230.0 260.7 229.45 260.95 Q221.8 255.4 216.75 249.45 209.75 241.15 209.75 233.85 209.75 233.0 210.35 231.6 L210.05 230.15 209.75 228.55 Q209.75 227.85 210.5 224.7 207.6 226.65 207.6 227.05 L207.45 227.85 207.25 228.6 206.95 229.7 Q206.65 230.35 206.65 230.75 L206.3 232.2 206.15 232.55 205.9 233.25 205.3 234.6 205.6 234.9 205.05 234.65 Q204.75 234.5 204.75 234.0 L204.7 233.85 Q205.6 241.2 209.5 245.4 203.85 241.65 199.9 236.85 193.95 229.6 193.95 221.8 193.95 219.75 194.7 217.45 L194.75 217.4 192.75 213.65 192.15 212.1 191.85 212.85 191.85 213.1 191.6 214.2 190.95 216.25 190.85 216.75 190.75 216.95 190.7 217.25 190.4 218.2 190.05 219.25 189.9 219.9 189.7 220.5 189.6 221.05 189.45 221.6 189.45 221.65 189.4 222.25 189.25 223.5 189.2 223.65 189.35 224.2 189.45 224.55 186.25 221.75 Q184.5 220.2 184.5 219.6 L181.9 216.7 180.05 214.8 Q179.3 213.9 179.3 213.65 L178.8 213.2 Q178.3 212.75 178.3 212.35 L177.6 211.25 Q176.85 210.55 176.85 210.25 L176.85 210.15 176.7 209.9 176.5 209.5 175.1 207.55 175.15 207.55 Q176.4 207.55 176.8 205.75 L177.1 204.95 Q177.6 203.9 178.85 203.9 L179.05 203.9 Q178.7 202.75 177.5 201.8 L176.15 200.6 Q176.15 200.2 175.75 199.9 175.35 199.6 175.35 199.15 175.35 198.75 174.95 198.45 174.55 198.2 174.55 197.75 L173.8 196.3 173.0 194.8 172.75 191.25 172.6 188.5 172.4 186.35 Q172.4 185.95 172.8 185.7 L173.15 185.05 Q173.15 184.6 173.5 184.45 173.85 184.25 173.85 183.8 173.85 183.25 174.0 183.2 L174.45 183.05 174.15 182.7 Q172.5 183.15 170.75 185.0 169.85 185.95 169.25 186.9 L168.45 188.55 168.35 188.5 Q168.15 188.5 168.15 187.95 166.85 182.5 166.85 179.4 166.85 178.45 167.6 176.7 L167.8 176.2 168.7 173.95 169.1 172.4 169.45 170.8 Q169.45 168.95 170.7 166.85 171.95 164.8 171.95 164.05 L172.0 163.5 172.25 165.0 172.8 168.2 172.95 169.3 173.8 166.45 175.35 162.5 177.8 157.15 181.3 151.45 183.95 147.3 186.75 142.9 190.05 137.75 190.3 137.2 190.55 136.65 190.8 135.95 191.05 135.2 191.5 133.7 186.7 136.15 Q189.3 133.65 193.0 127.45 L193.75 126.2 193.7 125.2 193.7 122.65 193.45 118.6 193.2 115.9 192.8 113.9 192.5 111.25 192.5 111.15 192.35 110.2 192.2 109.6 192.05 109.35 Q191.9 109.3 191.9 109.05 L191.75 108.55 191.6 108.0 191.4 107.45 191.15 106.9 191.0 106.55 190.95 106.05 190.9 105.3 Q189.6 103.95 189.6 103.4 L189.15 101.9 188.65 101.15 188.4 100.55 188.15 99.95 187.5 93.35 187.6 92.55 Q187.75 91.6 188.35 90.35 L188.85 89.25 189.15 88.45 189.35 87.65 189.55 86.85 189.6 85.8 Q189.95 86.95 191.7 88.9 L191.95 89.2 192.1 89.35 Q194.2 91.6 194.95 91.6 L195.8 91.15 196.4 90.4 196.6 89.3 196.75 88.45 196.75 88.15 Q196.75 85.95 197.75 84.75 199.0 83.3 199.5 79.7 L197.85 81.75 196.7 82.95 196.4 83.65 Q196.0 84.45 195.75 85.2 L195.4 84.85 195.3 84.05 195.0 83.05 Q194.65 82.5 194.65 82.05 L194.0 76.85 193.65 70.55 Q193.65 68.7 193.85 68.25 193.95 67.95 194.3 67.7 L195.35 67.0 194.75 66.4 Q194.1 66.45 192.55 67.45 L192.45 67.5 191.05 68.4 Q188.05 70.5 188.05 71.45 L187.95 72.1 187.85 71.4 187.7 71.15 188.3 68.5 188.5 67.1 188.65 64.8 Q188.65 61.65 189.6 58.9 189.85 58.05 190.25 57.25 L190.75 56.3 190.7 56.05 Q190.7 55.8 190.95 55.45 L191.2 54.85 191.3 54.25 Q189.4 55.65 187.1 58.45 L186.45 59.3 Q183.65 62.75 183.0 64.95 182.45 62.65 183.8 59.6 L184.7 57.75 186.1 55.55 Q187.95 51.35 188.1 49.95 187.85 46.8 187.85 42.3 187.85 33.3 192.4 26.05 194.2 23.2 197.85 18.7 199.75 16.3 202.2 13.45 204.25 10.75 212.15 2.35 L216.5 -2.9 Q217.55 -0.6 221.15 3.9 225.6 9.4 230.15 13.55 L235.9 19.0 238.05 21.1 239.4 22.1 242.25 24.3 242.8 24.7 243.1 25.1 243.75 26.35 Q243.75 27.1 244.65 27.95 L244.7 28.1 245.95 30.1 246.85 31.55 Q248.2 33.1 250.5 35.05 M243.35 36.95 L243.2 36.5 243.05 36.0 242.9 35.55 242.7 35.05 Q242.7 34.2 242.15 32.65 L241.55 31.0 241.4 30.55 241.2 30.1 241.05 29.75 240.85 29.4 Q240.85 28.65 238.9 26.8 236.95 24.9 236.05 24.9 235.85 24.9 235.2 24.5 L234.65 24.05 Q234.25 24.05 233.05 23.45 L231.85 22.8 230.6 22.35 228.0 19.3 227.15 18.35 226.05 17.1 215.75 5.9 Q215.2 7.9 213.25 10.65 211.4 13.3 207.45 17.6 L206.05 19.35 203.45 23.3 202.35 25.1 Q198.75 31.5 198.75 34.65 L198.85 39.8 Q199.1 41.75 200.55 46.25 201.2 48.4 202.95 51.8 L202.95 52.05 203.3 56.55 203.35 57.6 203.65 60.5 204.05 65.8 203.75 68.55 203.7 69.0 203.3 72.65 Q203.3 74.45 202.15 78.7 L201.6 80.75 200.85 83.2 Q201.8 82.55 204.25 81.2 L205.25 80.65 209.35 78.3 209.35 78.45 208.25 79.7 Q207.45 80.65 207.2 81.75 L207.1 82.75 Q207.1 83.9 206.6 84.55 206.1 85.25 206.1 86.65 L205.95 87.35 205.8 87.85 205.75 88.0 204.6 93.2 204.3 94.45 203.9 96.95 203.55 100.6 202.85 105.6 202.75 106.3 202.05 112.0 201.9 113.8 201.6 120.5 Q201.4 122.1 201.35 124.1 L201.25 127.9 Q201.25 131.35 199.8 136.6 L198.35 141.55 196.65 145.25 196.2 146.1 Q194.05 150.6 194.05 154.65 L194.05 154.7 193.2 158.0 192.35 161.55 192.0 163.5 191.65 164.95 Q191.3 165.75 191.3 166.4 L191.05 167.85 190.5 170.05 190.25 170.95 189.9 172.45 190.25 175.9 190.35 176.3 190.45 176.6 190.6 177.3 190.95 179.9 191.0 180.15 191.2 180.95 191.4 182.0 191.6 182.7 191.65 182.8 Q190.8 186.35 190.8 188.35 190.8 189.3 191.85 193.35 191.85 199.95 199.7 210.0 205.55 217.5 209.65 220.5 L210.35 220.6 Q210.2 220.45 210.4 220.3 L210.7 219.55 Q210.7 218.0 210.2 216.9 209.9 216.25 209.8 215.0 L210.3 214.8 210.4 214.05 210.6 213.4 210.75 212.7 211.35 209.75 212.25 206.0 212.95 203.6 212.5 201.3 212.8 199.25 213.15 199.3 213.75 199.9 213.95 198.5 214.1 198.65 213.8 199.95 213.75 200.25 Q213.65 206.7 224.2 219.95 L232.8 230.7 232.9 230.8 Q236.85 236.1 236.85 238.35 L237.45 241.3 238.05 244.85 238.0 245.9 239.0 245.75 239.4 244.25 239.8 239.75 240.2 234.85 Q240.2 232.45 242.6 225.95 L245.7 218.2 Q251.15 205.2 251.15 203.05 251.15 201.75 252.2 197.7 L253.25 193.55 252.15 186.25 252.1 185.8 251.35 182.65 250.65 180.75 250.4 180.35 250.1 179.9 249.95 179.55 249.45 178.55 252.3 183.05 254.95 187.55 Q258.1 193.75 257.4 197.75 L257.55 197.9 Q258.45 192.8 263.0 185.75 L264.85 182.8 Q267.25 178.8 267.25 177.65 269.3 173.45 269.5 171.7 L269.95 165.05 269.75 163.1 269.0 159.9 Q267.95 156.25 265.75 150.8 261.7 140.7 259.05 137.1 255.4 133.0 253.15 129.8 249.0 124.0 248.9 119.5 L248.9 119.25 249.35 112.85 249.0 110.75 248.8 109.65 Q248.8 108.75 249.05 108.5 L249.55 107.7 249.9 108.4 250.2 109.25 251.35 112.3 252.6 115.85 253.15 117.65 254.3 115.95 255.05 114.95 255.2 114.75 256.6 112.75 Q259.1 109.15 259.1 107.85 259.1 106.05 257.6 102.9 256.15 99.9 253.3 95.65 L250.0 90.9 249.3 89.9 246.2 85.65 Q240.85 78.25 240.85 77.9 240.85 77.25 241.45 76.4 L242.0 75.05 Q242.75 75.8 248.05 78.65 252.45 80.95 252.45 82.35 L252.6 82.5 254.55 80.9 254.75 80.75 255.85 79.2 Q257.0 77.3 257.4 75.5 L256.6 74.4 256.4 74.15 Q254.95 72.5 254.95 71.9 L255.2 71.0 255.4 70.05 Q255.4 69.05 255.85 68.25 L256.1 67.75 Q255.65 65.85 253.35 62.05 250.65 57.6 249.35 56.75 L247.0 54.8 246.15 53.9 Q243.6 51.0 243.6 48.25 L243.35 42.4 Q243.9 41.0 243.9 39.2 L243.65 37.85 243.35 36.95 M271.25 72.35 Q271.05 67.3 271.2 64.85 L273.45 69.45 274.7 71.75 Q275.9 76.75 275.9 77.7 L275.9 78.15 Q275.85 79.2 275.6 79.6 L274.55 81.0 Q273.05 82.65 270.5 83.6 L269.75 83.9 269.3 84.1 268.3 84.5 268.75 83.45 268.95 82.9 270.3 77.85 270.5 76.95 270.6 76.3 271.05 73.65 271.25 72.35 M260.8 86.05 L260.8 85.7 260.7 85.65 260.5 85.75 260.9 86.35 260.8 86.05 M197.6 46.95 Q196.5 48.65 196.5 50.3 L195.35 57.75 195.4 58.3 195.55 59.3 195.75 60.8 197.45 68.0 197.95 70.35 198.2 71.3 198.6 72.3 199.1 72.8 199.05 72.1 199.7 68.2 199.7 68.05 199.35 66.75 Q199.0 65.85 199.0 65.4 199.0 64.95 199.35 64.45 L199.7 63.45 199.55 60.35 199.4 57.95 199.4 57.2 197.95 50.5 197.6 49.8 Q197.2 49.5 197.2 49.05 L197.55 47.05 197.6 46.95 M200.4 88.95 L193.9 97.15 193.65 97.85 Q193.35 98.7 193.35 99.25 193.35 102.45 194.25 105.2 L194.55 106.2 195.1 108.95 Q195.1 109.4 195.4 109.55 L195.65 110.1 197.05 111.55 197.15 111.65 197.2 111.55 197.15 111.15 197.1 110.3 197.3 109.55 197.5 108.75 197.8 106.75 197.95 105.95 198.1 104.7 Q198.1 104.3 198.45 103.4 L198.8 102.1 199.0 100.65 199.15 99.15 199.4 97.45 199.65 95.7 200.0 93.0 200.0 92.8 200.4 88.95 M191.5 144.05 L189.65 146.8 Q183.6 155.9 183.6 157.4 L183.15 161.5 184.35 165.3 184.4 166.1 184.55 166.45 185.0 165.55 185.5 163.85 Q185.5 162.95 186.85 161.15 L188.15 159.3 191.1 152.35 Q191.1 151.65 193.35 146.2 L194.0 144.65 Q195.95 139.65 196.55 136.85 196.3 136.55 196.0 136.6 195.7 136.6 195.7 137.2 L191.5 144.05 M178.15 183.5 Q178.15 186.75 178.7 189.7 179.5 194.0 181.5 197.55 184.0 202.0 187.6 204.2 L187.85 204.15 188.3 204.3 Q188.45 204.7 188.45 203.8 188.45 203.4 188.05 203.05 187.65 202.75 187.65 202.3 186.95 201.2 186.3 199.2 L185.85 197.8 Q184.9 194.4 184.9 190.4 184.9 188.7 183.9 184.8 L183.8 184.3 Q182.9 180.75 182.9 178.4 L182.8 177.3 182.75 176.5 182.0 168.55 Q179.95 172.6 179.0 176.6 178.15 180.05 178.15 183.5 M251.0 107.65 L251.1 107.6 251.3 107.5 250.45 108.95 Q250.5 108.65 250.7 108.45 L250.8 107.95 Q250.8 107.65 251.0 107.65 M255.3 119.1 Q254.8 120.25 254.8 121.55 L254.45 122.9 Q254.1 123.8 254.1 124.25 254.1 130.45 259.6 135.5 263.95 139.55 267.05 139.9 266.25 139.75 265.75 138.9 265.35 138.2 265.35 137.55 L259.8 127.4 258.75 125.65 Q258.75 125.2 258.35 124.9 L257.95 124.15 Q257.95 123.7 257.55 123.4 257.15 123.1 257.15 122.65 L256.35 120.9 255.65 119.05 255.55 118.5 255.3 119.1 M263.35 210.75 Q263.35 210.05 259.35 206.0 255.35 201.95 255.35 201.3 L255.15 200.85 254.75 201.95 Q254.25 203.6 254.25 204.15 254.25 207.2 255.25 210.8 256.15 214.1 257.6 216.75 258.85 219.05 260.15 220.45 260.85 221.25 260.85 222.05 260.85 222.6 261.05 222.6 L261.15 222.6 261.1 222.35 261.0 221.55 263.6 212.95 263.35 210.75 M255.45 221.9 L255.5 221.85 255.4 221.75 255.45 221.9 M213.6 222.95 Q214.0 224.55 214.75 226.3 L215.4 227.7 215.55 228.0 Q217.35 231.5 220.45 235.35 L223.3 238.95 225.55 241.7 226.2 242.65 Q225.85 241.15 225.85 240.15 L225.55 239.15 Q225.2 238.6 225.2 238.15 L224.9 237.4 224.25 235.9 Q224.25 234.75 222.05 232.0 L221.9 231.8 218.65 228.2 217.4 226.9 213.6 222.95 M200.4 240.85 Q202.3 242.3 202.3 244.6 202.25 246.85 199.8 250.7 197.35 254.5 197.75 249.45 197.45 249.15 197.45 248.45 L196.55 244.6 Q196.1 243.0 195.95 241.45 L195.85 239.55 195.9 238.65 Q196.9 238.65 199.35 240.15 L200.4 240.85" fill="url(#gradient0)" fill-rule="evenodd" stroke="none"/>
    <path d="M243.35 36.95 L243.65 37.85 243.9 39.2 Q243.9 41.0 243.35 42.4 L243.6 48.25 Q243.6 51.0 246.15 53.9 L247.0 54.8 249.35 56.75 Q250.65 57.6 253.35 62.05 255.65 65.85 256.1 67.75 L255.85 68.25 Q255.4 69.05 255.4 70.05 L255.2 71.0 254.95 71.9 Q254.95 72.5 256.4 74.15 L256.6 74.4 257.4 75.5 Q257.0 77.3 255.85 79.2 L254.75 80.75 254.55 80.9 252.6 82.5 252.45 82.35 Q252.45 80.95 248.05 78.65 242.75 75.8 242.0 75.05 L241.45 76.4 Q240.85 77.25 240.85 77.9 240.85 78.25 246.2 85.65 L249.3 89.9 250.0 90.9 253.3 95.65 Q256.15 99.9 257.6 102.9 259.1 106.05 259.1 107.85 259.1 109.15 256.6 112.75 L255.2 114.75 255.05 114.95 254.3 115.95 253.15 117.65 252.6 115.85 251.35 112.3 250.2 109.25 249.9 108.4 249.55 107.7 249.05 108.5 Q248.8 108.75 248.8 109.65 L249.0 110.75 249.35 112.85 248.9 119.25 248.9 119.5 Q249.0 124.0 253.15 129.8 255.4 133.0 259.05 137.1 261.7 140.7 265.75 150.8 267.95 156.25 269.0 159.9 L269.75 163.1 269.95 165.05 269.5 171.7 Q269.3 173.45 267.25 177.65 267.25 178.8 264.85 182.8 L263.0 185.75 Q258.45 192.8 257.55 197.9 L257.4 197.75 Q258.1 193.75 254.95 187.55 L252.3 183.05 249.45 178.55 249.95 179.55 250.1 179.9 250.4 180.35 250.65 180.75 251.35 182.65 252.1 185.8 252.15 186.25 253.25 193.55 252.2 197.7 Q251.15 201.75 251.15 203.05 251.15 205.2 245.7 218.2 L242.6 225.95 Q240.2 232.45 240.2 234.85 L239.8 239.75 239.4 244.25 239.0 245.75 238.0 245.9 238.05 244.85 237.45 241.3 236.85 238.35 Q236.85 236.1 232.9 230.8 L232.8 230.7 224.2 219.95 Q213.65 206.7 213.75 200.25 L213.8 199.95 214.1 198.65 213.95 198.5 213.75 199.9 213.15 199.3 212.8 199.25 212.5 201.3 212.95 203.6 212.25 206.0 211.35 209.75 210.75 212.7 210.6 213.4 210.4 214.05 210.3 214.8 209.8 215.0 Q209.9 216.25 210.2 216.9 210.7 218.0 210.7 219.55 L210.4 220.3 Q210.2 220.45 210.35 220.6 L209.65 220.5 Q205.55 217.5 199.7 210.0 191.85 199.95 191.85 193.35 190.8 189.3 190.8 188.35 190.8 186.35 191.65 182.8 L191.6 182.7 191.4 182.0 191.2 180.95 191.0 180.15 190.95 179.9 190.6 177.3 190.45 176.6 190.35 176.3 190.25 175.9 189.9 172.45 190.25 170.95 190.5 170.05 191.05 167.85 191.3 166.4 Q191.3 165.75 191.65 164.95 L192.0 163.5 192.35 161.55 193.2 158.0 194.05 154.7 194.05 154.65 Q194.05 150.6 196.2 146.1 L196.65 145.25 198.35 141.55 199.8 136.6 Q201.25 131.35 201.25 127.9 L201.35 124.1 Q201.4 122.1 201.6 120.5 L201.9 113.8 202.05 112.0 202.75 106.3 202.85 105.6 203.55 100.6 203.9 96.95 204.3 94.45 204.6 93.2 205.75 88.0 205.8 87.85 205.95 87.35 206.1 86.65 Q206.1 85.25 206.6 84.55 207.1 83.9 207.1 82.75 L207.2 81.75 Q207.45 80.65 208.25 79.7 L209.35 78.45 209.35 78.3 205.25 80.65 204.25 81.2 Q201.8 82.55 200.85 83.2 L201.6 80.75 202.15 78.7 Q203.3 74.45 203.3 72.65 L203.7 69.0 203.75 68.55 204.05 65.8 203.65 60.5 203.35 57.6 203.3 56.55 202.95 52.05 202.95 51.8 Q201.2 48.4 200.55 46.25 199.1 41.75 198.85 39.8 L198.75 34.65 Q198.75 31.5 202.35 25.1 L203.45 23.3 206.05 19.35 207.45 17.6 Q211.4 13.3 213.25 10.65 215.2 7.9 215.75 5.9 L226.05 17.1 227.15 18.35 228.0 19.3 230.6 22.35 231.85 22.8 233.05 23.45 Q234.25 24.05 234.65 24.05 L235.2 24.5 Q235.85 24.9 236.05 24.9 236.95 24.9 238.9 26.8 240.85 28.65 240.85 29.4 L241.05 29.75 241.2 30.1 241.4 30.55 241.55 31.0 242.15 32.65 Q242.7 34.2 242.7 35.05 L242.9 35.55 243.05 36.0 243.2 36.5 243.35 36.95 M200.4 88.95 L200.0 92.8 200.0 93.0 199.65 95.7 199.4 97.45 199.15 99.15 199.0 100.65 198.8 102.1 198.45 103.4 Q198.1 104.3 198.1 104.7 L197.95 105.95 197.8 106.75 197.5 108.75 197.3 109.55 197.1 110.3 197.15 111.15 197.2 111.55 197.15 111.65 197.05 111.55 195.65 110.1 195.4 109.55 Q195.1 109.4 195.1 108.95 L194.55 106.2 194.25 105.2 Q193.35 102.45 193.35 99.25 193.35 98.7 193.65 97.85 L193.9 97.15 200.4 88.95 M197.6 46.95 L197.55 47.05 197.2 49.05 Q197.2 49.5 197.6 49.8 L197.95 50.5 199.4 57.2 199.4 57.95 199.55 60.35 199.7 63.45 199.35 64.45 Q199.0 64.95 199.0 65.4 199.0 65.85 199.35 66.75 L199.7 68.05 199.7 68.2 199.05 72.1 199.1 72.8 198.6 72.3 198.2 71.3 197.95 70.35 197.45 68.0 195.75 60.8 195.55 59.3 195.4 58.3 195.35 57.75 196.5 50.3 Q196.5 48.65 197.6 46.95 M209.35 78.3 L209.65 78.05 209.4 78.1 209.35 78.3 M191.5 144.05 L195.7 137.2 Q195.7 136.6 196.0 136.6 196.3 136.55 196.55 136.85 195.95 139.65 194.0 144.65 L193.35 146.2 Q191.1 151.65 191.1 152.35 L188.15 159.3 186.85 161.15 Q185.5 162.95 185.5 163.85 L185.0 165.55 184.55 166.45 184.4 166.1 184.35 165.3 183.15 161.5 183.6 157.4 Q183.6 155.9 189.65 146.8 L191.5 144.05 M263.35 210.75 L263.6 212.95 261.0 221.55 261.1 222.35 261.15 222.6 261.05 222.6 Q260.85 222.6 260.85 222.05 260.85 221.25 260.15 220.45 258.85 219.05 257.6 216.75 256.15 214.1 255.25 210.8 254.25 207.2 254.25 204.15 254.25 203.6 254.75 201.95 L255.15 200.85 255.35 201.3 Q255.35 201.95 259.35 206.0 263.35 210.05 263.35 210.75 M255.3 119.1 L255.55 118.5 255.65 119.05 256.35 120.9 257.15 122.65 Q257.15 123.1 257.55 123.4 257.95 123.7 257.95 124.15 L258.35 124.9 Q258.75 125.2 258.75 125.65 L259.8 127.4 265.35 137.55 Q265.35 138.2 265.75 138.9 266.25 139.75 267.05 139.9 263.95 139.55 259.6 135.5 254.1 130.45 254.1 124.25 254.1 123.8 254.45 122.9 L254.8 121.55 Q254.8 120.25 255.3 119.1 M251.0 107.65 Q250.8 107.65 250.8 107.95 L250.7 108.45 Q250.5 108.65 250.45 108.95 L251.3 107.5 251.1 107.6 251.0 107.65 M178.15 183.5 Q178.15 180.05 179.0 176.6 179.95 172.6 182.0 168.55 L182.75 176.5 182.8 177.3 182.9 178.4 Q182.9 180.75 183.8 184.3 L183.9 184.8 Q184.9 188.7 184.9 190.4 184.9 194.4 185.85 197.8 L186.3 199.2 Q186.95 201.2 187.65 202.3 187.65 202.75 188.05 203.05 188.45 203.4 188.45 203.8 188.45 204.7 188.3 204.3 L187.85 204.15 187.6 204.2 Q184.0 202.0 181.5 197.55 179.5 194.0 178.7 189.7 178.15 186.75 178.15 183.5 M210.2 218.05 L210.4 217.95 210.0 217.1 210.2 218.05 M213.6 222.95 L217.4 226.9 218.65 228.2 221.9 231.8 222.05 232.0 Q224.25 234.75 224.25 235.9 L224.9 237.4 225.2 238.15 Q225.2 238.6 225.55 239.15 L225.85 240.15 Q225.85 241.15 226.2 242.65 L225.55 241.7 223.3 238.95 220.45 235.35 Q217.35 231.5 215.55 228.0 L215.4 227.7 214.75 226.3 Q214.0 224.55 213.6 222.95" fill="url(#gradient1)" fill-rule="evenodd" stroke="none"/>
    <path d="M244.2 32.25 Q241.9 31.15 239.4 30.05 L233.5 27.65 229.15 26.4 229.95 27.0 231.5 27.45 233.8 28.35 233.95 28.35 236.45 30.6 Q235.2 29.75 233.35 28.95 232.4 28.55 231.65 28.3 L233.8 30.15 Q239.7 35.45 240.85 35.45 242.65 35.45 245.65 37.95 248.75 40.6 248.75 42.7 L249.1 44.95 249.45 47.15 249.0 49.0 248.55 50.8 248.2 53.1 248.0 54.05 247.8 55.4 Q247.8 56.4 247.65 56.0 L247.05 53.85 246.95 53.65 Q246.5 52.5 246.5 51.8 246.5 51.3 246.05 50.95 245.55 50.6 245.55 50.1 245.55 46.55 240.95 42.9 L238.6 41.3 Q239.55 42.1 239.55 42.5 L240.0 44.1 240.45 45.75 240.85 46.9 Q241.25 47.5 241.25 48.0 L241.65 49.95 241.85 50.85 242.0 51.85 242.1 52.8 242.3 54.4 242.7 55.55 242.85 55.9 243.0 57.1 243.1 58.0 243.2 58.7 243.55 61.7 243.3 62.9 243.15 63.25 242.75 64.75 242.7 65.25 243.35 66.0 244.1 66.9 Q244.7 69.35 244.7 71.2 L244.55 75.4 243.9 80.8 243.25 85.4 243.2 85.85 243.1 87.85 243.35 90.05 243.35 90.15 243.55 91.8 243.35 92.65 243.25 92.55 Q243.0 91.45 242.9 90.0 242.75 88.55 242.75 86.7 L242.7 85.8 242.65 85.2 242.65 85.15 242.35 78.75 242.1 77.0 241.85 75.45 241.85 75.25 241.5 74.1 241.25 73.45 241.15 72.95 Q241.15 72.45 240.7 72.15 240.25 71.8 240.25 71.3 240.25 70.6 239.35 69.25 L238.4 67.95 237.1 64.65 Q235.8 61.3 235.8 60.75 L235.45 59.6 235.05 58.45 234.7 56.5 234.4 55.2 234.05 55.8 Q233.45 57.05 233.45 57.65 L233.1 59.95 Q232.75 61.75 232.75 62.25 232.75 63.85 231.85 67.55 L230.95 71.1 Q230.95 73.15 231.45 74.3 L232.0 75.9 232.05 75.95 232.3 76.2 232.1 76.35 232.0 75.95 232.0 75.9 Q230.25 74.0 227.45 69.1 224.3 63.65 224.3 62.15 L224.05 60.7 223.75 59.25 223.45 57.8 223.2 56.8 222.9 59.15 222.4 64.7 222.1 66.7 221.8 68.65 220.95 71.5 219.15 69.75 220.75 72.0 220.7 72.05 Q219.6 74.5 219.6 75.55 L219.45 76.45 219.3 76.95 219.25 77.25 218.0 81.65 215.7 89.1 215.65 89.9 215.45 91.65 215.2 94.4 214.85 91.45 214.65 89.9 214.5 88.65 Q214.5 86.7 213.75 81.9 L213.6 80.8 213.2 78.15 212.95 75.7 212.55 74.55 212.25 73.85 212.15 73.4 211.25 71.15 Q210.3 69.15 210.3 68.5 210.3 66.45 208.5 60.8 L206.65 54.9 206.0 52.2 205.3 49.75 205.35 49.5 204.95 48.75 204.9 48.6 Q204.45 47.45 204.45 44.35 L205.05 42.75 205.6 41.7 Q205.6 41.05 206.25 39.85 L206.85 38.4 Q206.85 37.0 209.1 34.4 L211.3 31.45 Q211.3 29.05 216.05 26.5 217.8 25.55 219.4 25.0 215.6 25.95 213.25 27.3 L211.35 28.7 Q209.95 30.0 204.4 37.95 L199.45 45.15 199.6 44.55 199.75 43.95 200.2 41.35 200.55 39.05 200.85 37.05 Q200.85 31.75 205.3 27.3 L206.3 24.85 208.3 20.3 Q206.55 21.5 201.3 26.05 L195.4 31.35 195.4 31.05 Q196.2 27.1 205.4 18.65 214.35 10.45 214.35 9.85 L214.3 8.3 Q216.4 9.8 221.45 16.8 224.8 21.4 226.5 24.65 227.1 23.95 227.7 23.65 L228.9 23.35 229.45 23.15 230.15 22.95 Q233.95 22.95 236.3 23.8 239.25 24.9 242.05 28.0 242.6 28.6 243.45 30.65 L244.2 32.25 M247.4 86.55 L247.25 85.6 Q247.85 86.2 247.85 86.6 L248.0 87.25 Q248.35 88.45 250.0 90.35 L251.95 92.4 256.05 96.4 Q256.05 97.2 256.85 99.45 257.6 101.7 257.6 102.45 L257.6 102.65 257.45 103.35 255.45 109.4 Q255.45 110.1 253.95 111.85 L252.1 113.65 251.75 113.3 Q252.55 111.8 252.8 110.2 L252.85 109.05 252.35 106.65 Q251.85 104.75 251.85 104.25 L251.8 103.0 251.75 102.05 Q251.3 98.4 249.5 95.15 L249.0 94.25 248.75 93.8 248.75 93.55 248.45 91.2 248.3 90.25 248.15 89.15 Q248.15 88.65 247.85 88.5 247.55 88.35 247.55 87.85 L247.55 87.45 247.5 87.05 247.4 86.55 M247.25 82.15 L247.25 82.25 247.1 83.15 246.9 83.6 246.75 82.4 Q246.75 81.9 247.15 81.7 L247.4 81.4 247.25 82.15 M247.3 80.0 L247.7 79.85 247.65 80.3 247.5 80.95 247.45 80.15 247.3 80.0 M247.2 62.0 L252.25 66.15 Q259.1 71.55 259.1 72.5 259.1 72.95 259.5 73.25 259.85 73.6 259.85 74.0 259.85 74.45 260.15 74.6 L260.4 75.15 260.45 75.55 260.7 76.15 261.0 77.15 261.95 79.45 Q261.95 80.85 263.4 82.2 L266.0 84.8 Q259.05 80.5 255.8 77.6 L253.45 75.35 Q247.25 68.75 247.2 62.0 M207.65 42.25 L206.5 45.85 205.6 48.65 205.35 49.5 Q206.1 50.7 207.7 52.3 L207.25 49.65 207.05 48.7 Q206.7 46.9 206.7 45.9 206.7 45.4 207.15 45.2 207.55 44.95 207.55 44.45 L207.75 42.75 207.95 41.05 208.0 40.5 Q207.65 41.4 207.65 42.25 M225.4 71.55 L226.45 73.85 Q226.45 74.25 227.15 75.75 L227.4 76.3 227.85 77.35 Q227.85 77.8 228.2 79.0 L228.55 80.65 Q228.55 81.55 229.3 82.5 L229.95 83.7 230.0 84.05 230.4 88.45 230.25 89.75 230.1 90.45 229.75 92.45 Q229.75 94.45 228.1 99.6 L228.05 99.75 227.35 101.95 227.25 102.2 227.25 101.95 226.95 99.8 226.95 99.65 226.6 97.2 226.35 93.65 226.2 90.65 226.15 89.8 225.9 87.8 226.15 86.85 226.0 86.8 Q225.8 86.8 225.75 87.15 L225.9 87.8 225.25 89.8 225.1 90.25 Q224.15 93.15 224.15 94.75 L223.95 96.45 223.7 98.2 223.7 99.35 223.45 102.0 223.35 102.55 Q223.35 107.65 221.6 113.35 L218.9 121.7 219.1 120.65 218.2 104.55 218.3 102.1 218.6 98.9 Q219.2 94.35 220.8 89.8 L221.65 87.6 Q222.75 84.8 223.9 82.7 L224.95 80.85 225.25 79.95 225.5 78.9 Q225.5 78.5 225.85 77.6 L226.15 76.45 226.15 76.3 225.65 72.75 225.4 71.55 M232.75 39.45 L232.4 39.1 232.5 40.45 232.75 39.45 M205.75 68.65 L205.8 68.5 205.85 68.55 205.75 68.65 M201.75 178.95 L202.15 177.45 202.8 175.15 Q203.95 171.3 205.55 167.75 L209.0 159.65 209.15 159.3 209.45 158.65 209.8 157.85 211.1 155.2 211.1 155.25 211.4 157.95 211.4 158.95 211.35 159.65 210.6 163.35 209.8 166.7 Q209.8 170.65 207.7 174.7 L206.85 176.4 206.35 177.6 Q205.6 179.25 205.6 179.85 L205.45 181.05 205.0 184.4 Q204.35 188.85 204.35 190.05 204.35 192.75 205.6 196.75 L205.95 197.75 206.05 198.05 207.15 201.25 208.2 204.55 Q205.85 202.5 204.25 200.55 L203.5 199.55 202.2 197.55 201.35 195.7 Q200.25 192.85 200.25 189.65 200.25 185.55 201.45 180.2 L201.75 178.95 M178.65 195.3 L178.65 193.5 180.7 196.35 181.95 198.3 Q183.05 200.2 183.05 200.95 183.05 202.15 183.65 203.0 L182.15 202.5 181.55 202.1 Q181.55 201.55 180.1 199.3 L179.7 198.6 Q178.65 196.75 178.65 195.3 M186.75 160.45 Q187.6 159.05 188.6 157.6 L189.8 155.9 Q191.6 153.35 193.55 151.0 L192.35 156.35 191.4 160.2 191.3 160.5 190.75 162.75 Q190.15 164.5 190.15 165.25 L189.5 173.85 189.3 175.3 189.1 176.75 189.2 177.3 189.55 178.2 189.95 179.6 Q189.95 180.3 190.25 181.1 L190.5 182.1 Q190.5 184.85 191.75 188.5 L193.0 191.9 Q193.0 192.35 193.3 192.5 L193.55 193.05 Q193.55 193.45 193.9 193.75 194.25 194.05 194.25 194.5 L194.65 195.25 Q195.05 195.55 195.05 196.0 L194.95 196.45 191.3 193.1 191.25 193.05 Q188.65 190.55 188.65 189.45 L187.45 184.15 Q186.4 179.7 186.25 177.35 L186.25 177.1 186.3 176.6 186.3 175.95 186.35 175.85 186.7 175.7 186.45 175.75 186.35 175.85 186.25 175.85 186.3 175.95 186.2 176.4 186.2 176.55 186.25 177.1 186.2 177.35 186.15 177.45 185.9 178.85 185.05 182.7 184.2 187.0 184.6 189.4 184.9 191.3 184.95 191.8 184.95 191.85 184.7 191.25 183.05 188.05 Q180.45 183.2 180.45 179.2 L180.55 177.4 Q180.6 176.25 180.8 175.1 181.95 168.35 186.75 160.45 M234.5 144.0 L234.35 145.9 233.3 150.05 Q233.3 150.5 233.65 151.75 L234.0 153.4 234.5 160.45 234.75 163.65 234.75 164.05 235.0 165.6 235.2 167.1 Q235.2 168.7 236.1 171.7 L236.95 175.45 Q236.95 177.55 237.9 180.65 L238.85 183.35 238.2 182.1 237.45 180.6 Q233.65 172.75 233.1 170.9 L230.85 162.95 230.15 160.15 229.85 158.8 228.95 153.65 Q224.95 158.85 223.75 159.8 L223.45 159.95 223.15 159.65 Q223.05 157.85 228.95 148.8 L231.1 145.6 233.85 141.8 233.8 142.0 Q233.8 142.45 234.15 143.0 L234.5 144.0 M210.9 111.6 Q210.9 113.7 210.3 116.45 L210.05 117.55 209.65 120.2 209.1 124.2 208.95 128.6 208.9 130.05 208.7 130.95 208.45 131.85 208.3 132.75 208.1 133.4 207.7 134.9 207.4 136.15 Q207.05 136.85 207.05 137.35 L207.5 139.3 207.9 141.2 207.95 144.0 208.15 150.6 Q208.15 152.55 205.05 158.0 L204.75 158.5 204.05 159.75 200.85 164.3 203.1 159.75 203.3 159.3 203.75 158.35 204.0 157.85 Q205.95 153.55 205.95 152.15 L205.6 150.25 205.2 148.35 Q205.2 147.85 204.9 147.7 204.6 147.55 204.6 147.05 L203.8 145.25 203.15 143.8 202.95 143.05 202.75 142.1 202.5 141.45 202.45 141.3 202.0 139.85 Q201.25 133.25 201.25 132.25 L201.3 130.85 Q201.4 128.95 201.8 127.05 202.75 122.25 205.4 117.2 L206.35 115.4 210.45 108.65 212.7 104.7 210.9 111.6 M240.35 120.2 Q239.7 117.15 239.6 113.95 241.0 116.1 244.85 120.65 L250.7 127.45 Q259.1 137.1 261.6 141.35 262.65 143.15 262.65 144.0 262.65 144.65 263.45 145.95 264.25 147.25 264.25 147.95 L264.25 148.1 264.45 148.85 265.3 150.3 Q266.3 151.6 266.3 152.25 266.3 153.25 266.15 152.85 L264.85 151.6 263.7 150.35 Q263.7 149.8 262.55 148.65 L260.55 146.95 259.95 146.45 Q254.2 142.05 251.65 139.6 L250.2 138.1 247.9 135.55 247.25 134.7 Q242.05 128.0 240.35 120.2 M233.9 105.9 L234.35 106.75 Q235.15 108.1 235.15 108.7 L235.55 109.85 Q235.95 110.5 235.95 111.0 L236.35 112.95 236.7 114.85 237.05 117.45 237.4 119.9 237.4 120.05 Q237.4 127.15 232.45 133.65 L229.65 136.8 228.3 138.05 224.3 141.8 Q222.3 143.65 221.95 144.9 L221.85 145.4 Q221.85 147.05 221.2 148.85 L220.9 149.7 220.7 148.95 220.2 146.75 220.0 144.75 219.65 140.15 Q219.65 139.1 220.75 136.05 L221.0 135.3 222.3 131.45 222.3 131.35 Q222.35 129.3 224.9 124.95 227.45 120.45 227.45 119.95 L227.65 118.95 Q228.15 117.15 229.9 112.8 231.55 108.65 232.1 106.25 L232.35 105.85 232.2 105.7 232.3 104.5 232.3 104.3 232.55 101.9 232.6 101.55 232.7 101.9 233.55 104.75 Q233.55 105.2 233.9 105.9 M234.05 89.35 L234.3 89.75 239.2 99.3 239.5 100.85 239.9 102.25 Q240.95 105.65 243.1 108.65 244.25 110.3 247.85 113.95 241.25 109.95 238.35 106.15 236.9 104.25 235.9 102.0 L235.3 100.45 Q233.55 95.75 233.55 89.75 L233.55 89.65 233.55 88.4 234.05 89.35 M207.4 95.6 L207.05 97.75 206.2 100.0 205.2 102.6 204.95 103.7 Q204.95 104.5 203.45 108.15 L203.0 112.3 Q202.5 115.25 202.5 116.4 L202.15 116.1 200.45 111.7 Q199.4 109.1 199.4 102.95 L199.4 102.75 Q199.4 99.8 200.1 97.05 201.0 93.45 203.05 90.2 L203.85 88.95 206.35 85.6 206.75 90.1 206.75 90.35 207.4 95.6 M242.85 149.45 L243.05 147.75 243.3 146.7 243.6 146.0 243.9 146.75 250.35 161.15 250.8 162.15 252.8 166.7 253.1 167.35 Q259.4 181.9 259.4 184.75 L259.4 184.8 259.1 187.3 Q258.85 189.4 258.9 190.3 L258.5 188.85 258.25 187.4 257.9 186.3 Q257.55 185.65 257.55 185.15 257.55 184.65 257.1 184.3 256.65 183.95 256.65 183.45 L255.5 180.85 Q255.5 180.35 254.5 178.7 253.45 177.05 253.45 176.5 L251.2 172.9 Q248.95 169.45 248.95 168.15 248.95 167.4 247.0 166.1 L246.65 165.85 246.35 165.6 Q245.0 164.35 245.0 162.7 L244.3 160.4 Q243.65 158.4 243.65 157.55 243.65 155.6 243.15 154.35 242.6 153.15 242.6 151.15 L242.85 149.45 M245.2 215.5 L245.65 216.95 246.05 218.4 246.35 220.25 246.55 221.25 246.65 222.15 Q246.65 225.1 243.9 228.85 L243.0 230.0 Q240.5 233.05 239.7 235.0 239.8 232.7 240.25 228.5 L240.45 226.4 241.0 220.35 241.3 214.2 241.4 209.4 241.95 210.1 Q245.2 214.4 245.2 215.5 M253.25 183.45 L253.4 184.05 253.8 185.95 Q253.8 186.85 252.65 188.6 L252.3 189.9 251.8 191.2 251.0 192.9 250.25 194.65 249.45 190.25 249.2 189.4 Q248.5 187.0 247.4 184.3 L246.4 182.1 243.55 175.6 Q244.85 176.5 246.9 177.45 252.95 180.3 252.95 182.1 L253.25 183.45 M268.7 168.6 L268.7 169.2 Q268.55 170.8 267.85 172.65 266.65 175.65 264.45 176.2 L264.6 175.95 Q264.7 173.65 263.35 168.4 L262.65 165.9 261.95 163.55 261.3 161.65 263.6 162.5 Q266.3 163.45 267.3 164.3 267.95 164.8 267.95 165.25 L268.35 166.95 268.7 168.6 M221.3 193.4 L221.7 190.05 222.1 186.65 222.3 184.55 222.9 181.35 223.5 178.8 223.75 177.7 225.4 171.7 Q225.65 175.0 226.95 179.2 L227.15 179.8 228.1 182.9 228.9 185.8 228.9 185.95 Q228.9 186.55 229.7 189.15 L230.5 192.05 230.7 194.65 231.65 201.0 232.0 202.85 232.05 203.15 232.9 208.2 233.55 214.9 233.35 217.9 233.25 219.5 233.2 220.3 232.6 223.85 Q232.6 225.0 232.75 226.0 L233.05 227.5 233.3 228.25 232.9 228.45 232.6 227.55 233.05 230.25 233.45 232.95 233.5 234.2 Q233.0 233.0 233.0 231.05 233.0 230.2 231.9 227.35 L231.5 226.3 228.35 219.15 227.45 217.15 226.85 215.8 Q223.45 208.45 222.4 205.25 221.9 203.75 221.9 203.15 L221.75 200.55 221.65 199.4 221.3 193.4 M213.9 170.6 Q214.9 168.85 216.5 167.1 218.55 164.85 221.25 162.8 L220.65 167.7 Q220.65 169.7 219.9 171.5 219.15 173.25 219.15 173.8 219.15 174.5 216.9 176.85 L216.1 178.15 215.65 179.1 Q214.9 180.9 214.7 183.0 L214.65 184.45 215.25 185.3 Q215.55 185.8 214.5 185.05 L214.2 184.4 213.4 182.75 213.35 182.65 Q212.45 180.65 212.25 178.05 L212.25 177.9 212.2 176.65 Q212.2 173.6 213.9 170.6 M236.2 215.7 L236.2 216.8 235.95 216.4 236.2 215.7 M206.05 216.3 L209.35 219.3 Q212.95 222.25 216.9 223.9 L218.75 224.8 220.3 225.85 Q223.3 228.15 225.85 232.05 229.5 237.75 229.5 242.55 L229.55 243.6 229.9 244.45 Q223.5 238.85 217.15 232.45 213.2 228.4 210.25 224.75 L208.4 222.35 206.6 219.7 Q204.15 216.0 202.95 212.75 L206.05 216.3" fill="#ffffff" fill-rule="evenodd" stroke="none"/>
  </g>
  <defs>
    <linearGradient gradientTransform="matrix(-0.0032, 0.1384, -1.3082, -0.0175, 866.75, 134.05)" gradientUnits="userSpaceOnUse" id="gradient0" spreadMethod="pad" x1="-819.2" x2="819.2">
      <stop offset="0.0" stop-color="#44cce2" stop-opacity="0.49803922"/>
      <stop offset="1.0" stop-color="#216376" stop-opacity="0.49803922"/>
    </linearGradient>
    <linearGradient gradientTransform="matrix(2.0E-4, 0.1043, -1.308, -0.0515, 735.5, 166.45)" gradientUnits="userSpaceOnUse" id="gradient1" spreadMethod="pad" x1="-819.2" x2="819.2">
      <stop offset="0.0" stop-color="#b8fff5" stop-opacity="0.49803922"/>
      <stop offset="1.0" stop-color="#5faed0" stop-opacity="0.49803922"/>
    </linearGradient>
  </defs>
</svg>
