<?xml version="1.0" encoding="UTF-8" standalone="no"?>
<svg xmlns:ffdec="https://www.free-decompiler.com/flash" xmlns:xlink="http://www.w3.org/1999/xlink" ffdec:objectType="shape" height="110.5px" width="75.25px" xmlns="http://www.w3.org/2000/svg">
  <g transform="matrix(1.0, 0.0, 0.0, 1.0, -176.65, 1.5)">
    <path d="M250.2 34.65 Q250.2 35.85 249.45 37.75 L248.7 39.75 248.95 40.4 243.5 36.95 Q238.1 33.85 236.0 33.55 238.05 35.75 241.55 37.95 L246.7 41.4 Q251.35 45.5 251.85 55.3 L251.9 57.6 Q251.9 61.3 250.3 65.0 L249.65 66.25 249.1 67.25 247.4 69.9 247.05 70.4 247.25 69.85 247.75 67.8 247.75 67.6 Q247.55 64.7 242.2 60.85 240.55 59.65 238.45 58.35 L231.85 54.5 229.6 53.05 Q228.7 51.4 228.45 51.95 L229.6 53.05 229.75 53.35 Q230.85 55.4 230.85 56.65 L230.75 58.45 Q230.35 61.25 228.75 64.25 L226.7 67.5 222.85 72.05 219.1 75.45 214.95 79.25 213.65 80.6 214.5 78.9 215.5 75.55 215.45 74.85 Q215.0 71.95 211.1 68.25 208.9 66.15 207.8 64.4 206.65 62.55 206.65 61.0 L206.7 60.5 208.45 58.85 209.0 58.05 208.85 56.95 Q209.0 56.8 208.5 56.8 208.05 56.8 207.45 57.85 L207.1 58.55 Q206.75 59.45 206.7 60.5 L205.8 61.25 Q204.55 62.25 203.8 63.5 202.55 65.5 202.55 68.1 202.55 69.7 203.15 72.25 L203.35 73.15 203.65 74.45 203.6 74.85 201.0 75.1 Q193.55 75.1 188.75 70.0 L188.15 69.35 186.75 67.5 Q184.7 64.3 184.55 60.65 L184.55 60.15 184.6 59.8 184.85 59.75 184.95 60.5 Q185.55 62.2 189.25 65.45 193.55 69.2 194.2 69.2 L194.85 69.35 195.45 69.5 Q195.95 69.5 195.9 69.3 L195.85 69.1 195.95 69.0 192.5 62.7 191.15 59.7 190.75 58.65 Q189.9 56.55 189.65 54.8 L189.45 52.9 189.5 52.6 189.65 52.8 189.95 52.4 189.6 51.95 Q190.0 50.35 191.6 47.95 192.7 46.35 193.75 45.05 L193.8 44.75 194.05 44.7 193.9 44.55 Q192.55 44.75 190.45 46.85 188.5 48.85 188.3 50.35 L187.3 48.9 Q186.7 47.85 186.45 45.7 186.3 44.3 186.3 42.5 186.3 36.6 188.2 33.15 189.4 30.9 192.4 28.15 192.85 22.3 196.05 19.55 197.1 18.65 199.5 17.0 201.65 15.35 202.95 13.3 205.0 9.9 209.6 4.4 214.55 -1.5 215.7 -1.5 216.25 -1.5 219.0 4.1 222.05 10.35 224.65 12.35 L234.55 20.6 236.6 22.3 Q239.25 23.25 242.25 24.95 250.2 29.45 250.2 34.65 M176.65 86.3 Q176.65 85.1 178.85 82.65 L181.65 79.75 182.35 79.1 Q182.75 85.2 188.1 88.55 L192.55 90.95 Q194.5 91.95 195.3 92.9 L195.45 93.1 195.6 93.35 193.75 93.95 191.15 94.4 Q187.5 94.4 182.3 91.85 L181.45 91.4 Q176.65 88.85 176.65 86.3 M238.2 69.95 Q241.35 71.35 241.35 72.55 L241.8 74.6 242.25 77.05 242.25 77.3 Q241.9 78.95 237.55 80.6 233.45 82.15 231.4 82.15 L231.0 82.05 230.9 81.85 234.9 79.35 Q236.35 78.4 236.8 77.2 L237.0 76.05 Q237.0 71.7 235.0 68.75 L238.2 69.95 M226.15 95.4 Q227.35 95.8 228.9 97.3 L230.5 99.15 230.55 99.9 230.4 101.95 Q229.95 104.45 228.35 105.55 224.1 107.45 219.1 109.0 221.0 108.2 222.95 105.05 L224.3 102.65 Q225.6 100.0 225.6 98.2 L225.85 95.4 226.15 95.4" fill="url(#gradient0)" fill-rule="evenodd" stroke="none"/>
  </g>
  <defs>
    <linearGradient gradientTransform="matrix(0.0, 0.0, 0.0, 0.0, -8.0, 0.0)" gradientUnits="userSpaceOnUse" id="gradient0" spreadMethod="pad" x1="-819.2" x2="819.2">
      <stop offset="0.0" stop-color="#44cce2" stop-opacity="0.49803922"/>
      <stop offset="1.0" stop-color="#216376" stop-opacity="0.49803922"/>
    </linearGradient>
  </defs>
</svg>
