<?xml version="1.0" encoding="UTF-8" standalone="no"?>
<svg xmlns:ffdec="https://www.free-decompiler.com/flash" xmlns:xlink="http://www.w3.org/1999/xlink" ffdec:objectType="shape" height="68.6px" width="61.25px" xmlns="http://www.w3.org/2000/svg">
  <g transform="matrix(1.0, 0.0, 0.0, 1.0, -185.7, 2.0)">
    <path d="M246.95 34.85 Q246.95 36.55 243.95 40.35 241.2 43.9 239.85 44.5 L239.7 44.35 Q242.1 42.1 242.1 39.55 242.1 38.2 239.95 36.25 L237.5 34.2 237.35 34.4 237.3 34.5 Q237.45 35.15 237.2 35.9 237.2 38.7 236.3 40.65 L235.85 41.4 Q235.6 39.05 230.3 35.85 226.8 33.75 225.5 32.5 L225.85 31.4 225.6 30.7 225.3 30.55 Q224.75 30.85 224.75 31.25 224.75 31.75 225.5 32.5 L223.5 37.1 Q221.6 41.9 221.6 45.55 221.6 49.6 222.7 51.8 L223.8 54.05 Q223.8 54.7 224.75 55.4 220.55 54.3 216.45 50.25 214.5 48.3 213.5 46.65 L213.1 43.95 212.6 42.45 Q212.4 42.6 212.4 43.4 212.4 44.85 213.5 46.65 L213.55 48.7 213.05 52.1 212.65 53.9 212.4 54.75 210.15 59.0 Q209.4 60.15 209.25 61.0 208.9 58.75 206.7 56.9 205.2 55.7 200.95 53.55 196.85 51.5 195.2 50.05 192.6 47.75 192.6 44.7 192.6 43.5 193.2 42.45 L194.1 41.45 Q192.35 42.2 191.9 42.45 189.6 43.75 189.6 45.3 189.6 47.45 189.05 50.4 L189.35 52.25 188.9 51.45 Q188.6 51.0 188.6 50.6 L188.15 48.95 187.15 45.75 186.35 41.8 186.25 41.05 185.95 39.0 Q185.95 30.75 196.0 23.7 L198.0 22.4 Q200.6 17.35 207.05 10.05 215.35 0.65 215.1 -2.0 L217.1 1.8 Q219.35 5.7 221.6 7.8 223.4 9.5 226.35 13.5 L227.1 14.55 Q228.65 14.0 229.65 14.0 231.65 14.0 234.75 15.75 236.3 16.6 237.6 17.55 L237.2 17.8 236.2 17.8 Q234.2 17.85 231.55 18.95 L230.55 19.25 228.95 20.0 231.55 18.95 232.1 18.9 Q237.5 18.9 242.3 24.25 246.95 29.45 246.95 34.85 M185.7 60.5 Q185.7 59.2 187.35 57.6 L187.9 58.45 Q188.9 59.6 191.5 61.05 L191.9 61.25 196.4 63.8 195.05 64.2 191.9 63.95 190.35 63.65 Q186.0 62.7 185.75 60.8 L185.7 60.5 M233.05 58.45 Q234.5 58.95 234.5 59.55 L234.75 60.85 Q234.75 62.15 233.05 63.3 L231.15 64.25 224.85 66.6 Q226.05 65.8 227.65 63.4 L228.55 62.0 Q229.65 59.9 229.65 58.3 L229.65 58.05 230.65 58.0 233.05 58.45" fill="url(#gradient0)" fill-rule="evenodd" stroke="none"/>
  </g>
  <defs>
    <linearGradient gradientTransform="matrix(-0.0032, 0.1384, -1.3082, -0.0175, 866.75, 134.05)" gradientUnits="userSpaceOnUse" id="gradient0" spreadMethod="pad" x1="-819.2" x2="819.2">
      <stop offset="0.0" stop-color="#44cce2" stop-opacity="0.49803922"/>
      <stop offset="1.0" stop-color="#216376" stop-opacity="0.49803922"/>
    </linearGradient>
  </defs>
</svg>
