<?xml version="1.0" encoding="UTF-8" standalone="no"?>
<svg xmlns:ffdec="https://www.free-decompiler.com/flash" xmlns:xlink="http://www.w3.org/1999/xlink" ffdec:objectType="shape" height="216.45px" width="57.85px" xmlns="http://www.w3.org/2000/svg">
  <g transform="matrix(1.0, 0.0, 0.0, 1.0, -196.7, -7.0)">
    <path d="M245.9 43.6 L245.85 44.25 245.15 45.9 Q245.05 46.05 245.1 46.35 243.95 45.25 242.05 44.1 L238.55 42.2 Q235.05 40.5 233.1 39.25 L230.65 37.35 231.15 39.1 231.2 39.25 231.4 40.4 231.55 44.3 231.1 46.15 231.05 46.25 231.2 46.4 231.05 46.3 Q230.6 47.45 230.6 47.95 230.6 48.45 231.0 49.1 L231.35 50.2 231.45 51.75 231.95 53.05 232.5 54.4 232.85 55.2 233.05 55.7 Q233.05 56.05 234.0 57.4 L234.9 59.05 236.35 61.75 237.3 63.75 Q237.3 64.25 237.65 64.9 L238.0 66.0 238.4 67.15 238.75 68.3 238.9 69.1 239.1 69.75 239.4 71.2 239.4 71.55 239.05 72.95 238.45 74.45 237.6 76.4 237.45 76.9 237.1 78.4 Q236.75 79.35 236.75 79.85 L236.6 80.45 234.25 77.05 234.05 75.7 234.0 74.9 Q234.0 73.45 232.6 71.05 L231.45 69.3 Q229.7 66.75 226.75 63.45 L226.25 62.9 224.7 61.2 Q220.95 57.2 218.75 54.4 L218.7 54.3 Q216.6 51.65 215.8 50.05 215.35 49.1 215.35 48.5 L215.05 46.05 214.9 44.0 214.85 43.45 Q214.85 42.95 215.3 42.75 215.7 42.5 215.7 42.0 215.7 41.5 215.95 41.1 L216.15 40.3 216.15 40.2 216.8 38.15 Q217.45 36.15 217.75 35.7 L217.0 34.95 217.35 35.35 216.95 35.95 Q216.6 36.25 216.6 36.8 L215.3 40.05 215.2 40.4 212.9 42.85 211.4 44.15 209.0 46.0 203.8 49.9 204.55 49.0 Q204.55 48.2 206.2 45.85 L207.3 44.3 207.85 43.2 208.15 41.5 Q208.6 39.75 209.8 36.55 L209.85 36.45 211.8 31.2 Q211.8 30.25 212.4 29.0 212.55 28.5 212.85 28.05 L213.55 26.9 214.0 25.25 214.65 22.2 214.55 22.3 209.3 29.25 208.95 29.75 Q202.05 39.05 202.05 42.5 L201.75 44.55 201.7 44.75 201.25 44.65 201.1 44.55 200.75 43.25 Q200.35 41.8 200.35 40.4 200.35 35.75 203.95 31.0 205.2 29.3 206.9 27.6 211.55 22.95 214.7 21.8 L214.75 20.5 215.35 16.1 215.5 15.3 215.95 12.45 Q215.95 10.2 215.35 8.6 L214.8 7.0 Q217.25 10.0 222.75 14.75 L223.2 15.2 Q226.65 18.85 227.45 22.7 228.9 23.95 229.6 25.1 L229.95 25.75 230.15 26.6 230.15 26.95 230.0 27.55 229.65 28.0 Q229.15 28.5 229.15 29.0 L229.3 29.65 229.4 30.05 229.6 30.75 229.85 31.75 Q230.25 32.35 231.0 32.35 L232.45 32.7 233.9 33.05 234.95 33.35 236.0 33.6 Q237.6 33.6 241.2 35.8 245.1 38.15 245.1 39.75 L245.1 39.8 245.5 41.7 245.9 43.6 M245.4 63.7 Q245.4 65.3 244.8 67.7 L244.6 68.65 Q242.15 66.1 239.8 61.15 L238.95 59.4 Q235.6 51.9 235.6 49.65 L235.4 48.95 235.2 48.55 235.45 48.4 235.5 49.15 235.95 49.8 236.35 50.85 Q236.35 51.35 240.9 55.65 243.4 58.05 244.55 60.3 245.4 62.05 245.4 63.7 M246.15 77.8 L246.15 77.9 Q245.65 80.05 245.65 81.35 245.65 81.85 246.15 82.2 L246.6 83.0 Q246.6 83.5 247.6 84.55 L248.55 85.75 Q248.55 86.4 249.25 87.1 L249.9 87.65 Q251.2 88.7 251.2 89.2 251.2 89.55 252.1 90.9 L252.3 92.2 252.45 93.15 252.8 95.35 252.85 95.6 253.15 96.5 253.5 97.6 253.0 100.5 252.85 101.2 252.5 103.4 252.2 105.35 251.25 108.25 250.9 107.9 Q251.8 104.15 251.8 102.7 L251.7 101.35 Q251.25 98.6 249.1 94.7 L248.9 94.35 247.9 92.7 245.35 88.0 Q243.95 84.85 243.95 82.7 L244.1 81.2 244.7 80.1 246.1 77.9 246.15 77.8 M229.35 21.7 Q231.7 24.05 235.8 25.6 L236.45 25.9 Q238.4 26.9 238.4 28.9 L238.3 29.4 Q238.15 29.6 238.15 29.85 L236.85 31.2 Q235.75 30.4 234.4 29.2 232.4 27.4 231.7 26.4 231.25 25.85 231.25 25.5 L230.3 23.4 229.35 21.7 M207.2 21.95 Q205.65 24.4 199.9 29.35 L197.95 31.1 Q197.45 28.8 197.45 27.55 197.45 20.5 201.95 15.45 202.85 14.35 204.0 13.4 207.35 10.6 212.45 7.65 211.8 8.8 210.65 13.05 L210.0 15.35 Q208.6 19.7 207.2 21.95 M215.5 28.5 L215.6 28.6 215.6 28.35 215.6 28.3 215.6 28.35 215.5 28.5 M200.65 66.85 L200.3 68.5 200.05 69.8 199.75 69.55 199.6 68.65 199.55 68.5 199.3 67.45 198.8 62.4 Q198.8 57.6 204.7 52.8 L207.3 50.85 Q206.45 52.25 206.45 53.35 206.45 54.4 205.2 57.45 203.95 60.5 203.0 61.65 201.5 63.45 200.65 66.85 M201.8 88.0 L201.35 87.2 Q200.9 86.85 200.9 86.35 L200.5 83.65 200.05 80.9 Q200.05 80.4 200.3 80.0 L200.5 79.1 202.95 73.15 203.35 72.55 204.2 71.15 206.0 68.15 206.6 67.25 209.75 62.05 210.15 61.35 210.8 60.25 211.2 60.65 Q211.65 60.95 211.65 61.45 L211.3 63.75 210.9 66.05 210.9 66.4 210.2 69.45 209.85 70.55 209.45 71.7 208.95 72.95 207.0 78.05 Q207.0 78.7 205.6 80.45 204.1 82.4 203.75 83.9 203.55 84.8 203.55 88.25 L203.25 90.05 203.25 90.25 202.95 90.65 202.7 90.4 202.75 89.7 202.3 89.0 201.8 88.0 M215.05 133.3 L215.2 134.4 215.55 139.7 214.65 142.3 Q213.75 144.9 213.75 146.25 L213.75 146.95 213.35 152.3 Q213.6 152.55 213.25 152.35 L213.0 151.9 212.45 149.45 211.95 146.85 211.85 145.85 Q211.85 141.1 213.3 137.1 L214.45 134.35 215.05 133.3 M232.55 114.35 L232.3 111.55 232.3 111.15 Q232.3 109.1 232.95 107.2 233.8 109.35 236.0 111.7 L238.5 114.1 239.0 114.55 Q244.05 119.05 244.6 121.5 L244.65 122.05 244.9 123.8 245.1 125.55 Q245.1 127.4 243.4 130.45 L242.7 131.55 242.45 131.95 241.3 133.7 240.15 135.45 240.4 133.8 240.4 133.75 239.4 130.5 235.85 124.15 234.05 120.15 Q232.95 117.2 232.55 114.35 M226.2 120.85 L226.6 121.1 Q229.5 122.85 229.5 123.7 L229.7 124.3 229.9 124.85 230.45 127.75 Q230.45 129.2 230.8 131.15 L231.15 132.65 Q227.45 124.8 226.2 120.85 M224.45 107.65 L223.7 109.55 223.4 111.25 223.05 112.3 Q222.5 114.15 222.7 115.35 L222.35 115.0 222.1 114.25 221.85 113.35 221.6 111.2 221.45 109.85 Q221.45 106.1 223.0 103.05 223.9 101.2 224.95 100.3 L225.5 102.6 225.0 104.6 Q224.45 106.25 224.45 107.65 M219.1 76.2 Q222.7 81.2 222.7 86.25 222.7 86.75 222.3 87.0 221.9 87.25 221.9 87.75 L221.75 89.85 221.6 92.05 221.3 93.6 220.35 96.8 Q219.3 99.55 217.45 102.6 214.75 107.1 213.75 110.9 213.1 113.2 213.1 115.3 L213.1 115.6 213.1 115.65 Q213.15 117.5 214.0 120.4 L214.0 120.5 214.9 123.95 215.65 126.25 215.75 126.8 212.6 121.5 212.45 121.3 Q210.85 118.4 210.0 116.1 L209.45 114.55 Q208.85 112.6 208.85 111.05 L208.85 110.75 Q208.9 107.65 209.6 103.9 210.25 100.2 211.55 95.9 L211.9 94.7 212.75 92.1 212.85 91.8 216.7 80.2 216.8 79.6 Q216.8 78.35 217.55 75.25 L217.8 74.3 219.1 76.2 M222.85 66.25 L223.15 67.15 222.9 68.95 222.8 69.65 222.6 71.15 Q222.6 72.0 222.9 73.25 L223.2 74.8 223.85 75.85 223.65 75.65 Q221.35 73.35 219.2 69.85 L218.25 68.2 216.75 65.3 Q215.55 62.6 215.55 61.05 L215.3 59.05 217.2 60.4 Q220.85 62.9 222.0 64.3 L222.5 65.35 Q222.5 65.75 222.85 66.25 M227.05 72.0 L227.5 72.65 Q229.6 75.75 229.6 76.5 L230.0 77.65 230.35 78.75 230.9 81.65 Q230.9 83.4 232.5 85.8 L234.1 88.6 Q234.1 89.15 235.25 90.35 L235.6 90.65 237.05 92.4 Q237.05 93.15 239.75 96.3 L242.15 99.0 242.45 99.35 Q242.45 99.75 243.55 101.4 L244.6 103.05 Q244.6 103.7 245.55 105.7 L246.45 107.95 246.7 112.55 246.9 116.7 Q246.9 117.7 246.6 117.95 L246.35 117.3 246.05 116.95 246.0 116.3 Q245.85 116.15 245.85 115.65 L245.55 114.2 245.25 112.8 245.25 112.35 Q245.0 109.9 242.4 107.0 L237.55 102.3 236.15 100.95 Q231.4 96.4 229.15 91.8 227.0 87.45 227.0 83.05 227.0 82.4 227.55 80.15 L228.05 77.25 227.6 75.65 227.4 75.15 227.05 72.15 227.05 72.0 M205.95 129.4 L205.6 134.35 205.15 136.95 204.9 138.4 204.8 138.95 204.7 139.55 Q204.7 141.15 205.25 143.05 L205.75 145.9 205.8 146.65 Q205.95 147.65 206.5 148.55 207.2 149.65 209.2 151.65 204.65 148.75 202.35 146.55 L202.1 146.3 Q198.8 143.05 197.85 139.6 197.45 138.2 197.45 136.75 L197.65 135.55 Q197.95 134.4 198.75 133.2 L200.05 131.6 Q201.6 129.9 204.1 128.0 L206.35 126.2 206.3 126.5 Q205.95 127.8 205.95 129.4 M228.8 174.15 L228.15 178.0 227.9 180.65 Q227.7 182.4 227.65 184.4 L227.65 184.5 227.6 187.65 228.0 189.2 228.4 190.7 228.65 192.85 228.85 195.0 228.85 195.1 Q228.85 195.95 229.15 196.55 L229.45 197.75 229.45 197.9 Q229.45 198.4 229.9 198.7 230.35 199.0 230.35 199.5 L230.45 199.9 230.8 200.35 Q231.25 200.7 231.25 201.2 231.25 202.7 232.65 204.4 L234.0 206.2 Q234.0 206.9 236.25 210.6 238.45 214.3 238.45 216.75 L238.05 218.3 237.65 219.8 237.35 221.0 Q237.0 221.7 237.0 222.2 L236.8 223.15 236.7 223.45 236.3 221.15 235.75 218.6 Q235.75 216.95 229.55 209.85 223.4 202.75 223.35 199.3 L223.35 199.25 223.1 197.25 222.85 194.2 Q222.85 191.4 224.85 185.15 L225.0 184.65 226.5 180.15 227.35 177.85 228.8 174.15 M215.7 164.95 L218.05 168.5 220.05 171.7 Q221.15 173.75 221.15 174.95 L221.5 178.0 221.0 181.7 221.05 182.05 218.7 179.25 216.25 176.85 215.95 178.85 216.4 183.15 216.25 189.05 Q216.2 191.25 216.65 194.4 L216.65 194.55 215.7 193.65 Q214.45 192.45 214.45 191.8 L212.25 187.2 211.6 185.65 Q210.05 182.0 210.05 180.15 210.05 175.65 212.55 170.4 L214.2 167.3 215.7 164.95 M202.3 182.0 L202.1 182.75 200.95 186.7 198.55 194.0 198.6 194.45 198.85 195.4 199.25 196.6 199.05 196.4 198.2 194.45 197.8 193.35 Q196.7 190.45 196.7 187.25 196.7 180.85 202.7 173.8 L203.35 173.05 203.5 175.45 203.0 178.45 Q202.45 180.45 202.45 181.25 L202.3 182.0 M241.1 145.85 Q241.1 143.8 241.75 142.45 243.0 145.3 244.25 149.2 L244.95 151.45 246.65 157.7 Q246.65 159.4 247.55 161.7 L246.15 161.7 Q244.5 159.55 243.65 157.9 241.65 153.95 241.25 148.8 L241.1 145.85 M231.6 147.8 L232.0 147.1 232.5 146.3 232.75 147.9 232.75 148.05 233.15 149.2 233.5 150.35 233.75 152.8 234.0 155.35 234.3 156.8 234.6 158.25 234.85 160.75 234.65 161.9 234.5 162.3 234.1 163.8 234.15 164.2 234.5 165.75 234.9 167.65 Q234.9 168.15 235.25 168.8 L235.6 169.95 Q235.6 170.45 235.95 171.4 L236.25 172.8 236.05 175.65 235.45 179.55 235.4 180.4 234.8 178.25 234.1 176.0 Q234.1 175.5 233.65 175.15 L233.35 174.85 233.2 174.3 232.65 173.0 Q232.65 171.95 231.9 170.2 L231.15 168.45 230.85 166.25 230.55 164.4 230.5 164.0 230.2 162.55 230.05 162.0 229.9 161.1 229.4 156.05 Q229.4 155.1 230.05 153.25 L230.65 151.2 Q230.65 149.5 231.6 147.8 M222.55 144.75 L222.55 144.55 Q222.55 142.65 223.45 139.65 L224.3 136.0 224.3 135.75 224.3 135.65 224.4 135.05 224.7 135.6 225.05 136.2 225.4 136.85 Q227.4 140.25 227.4 141.15 227.4 141.65 227.8 142.3 L228.15 143.4 227.6 144.45 227.1 145.55 227.05 146.05 226.7 147.5 226.0 148.65 Q224.95 150.1 224.95 150.8 L224.6 153.1 224.35 154.65 224.25 155.4 224.5 156.5 224.65 157.3 224.3 156.95 223.05 155.2 222.6 154.4 Q221.65 152.65 221.65 149.75 L222.1 147.3 222.1 147.15 222.55 144.75 M241.05 191.85 L241.35 192.0 242.5 193.55 Q242.5 194.05 242.9 194.7 L243.25 195.85 243.5 197.65 243.75 200.1 243.75 200.3 243.35 201.25 Q242.95 201.85 242.95 202.35 L242.75 203.3 Q242.5 203.7 242.5 204.2 L242.25 206.9 242.05 206.0 Q242.05 205.5 241.75 205.35 241.45 205.2 241.45 204.7 L241.15 202.45 240.85 200.3 240.85 200.2 240.35 197.05 240.2 196.3 240.05 195.4 240.1 195.0 240.3 193.6 240.5 192.9 240.6 192.7 241.05 191.85 M254.55 177.6 Q254.55 178.85 254.05 180.15 253.25 182.05 251.35 184.05 L250.1 185.2 248.6 186.55 248.8 186.25 249.5 185.15 Q250.1 183.95 250.1 182.95 250.1 182.25 249.05 180.65 L247.75 178.85 Q245.8 176.35 243.85 174.4 242.1 172.65 240.85 169.0 L246.25 170.45 Q254.55 172.55 254.55 177.6" fill="#ffffff" fill-rule="evenodd" stroke="none"/>
  </g>
</svg>
