<?xml version="1.0" encoding="UTF-8" standalone="no"?>
<svg xmlns:ffdec="https://www.free-decompiler.com/flash" xmlns:xlink="http://www.w3.org/1999/xlink" ffdec:objectType="shape" height="235.15px" width="71.9px" xmlns="http://www.w3.org/2000/svg">
  <g transform="matrix(1.0, 0.0, 0.0, 1.0, -189.35, -4.1)">
    <path d="M243.85 32.55 L244.05 33.1 244.45 34.2 244.8 35.4 244.95 35.75 245.1 36.05 Q245.1 36.95 245.4 38.65 L245.7 41.6 245.6 41.85 245.5 41.95 245.6 41.45 Q245.6 40.25 243.65 38.4 L240.35 35.45 238.85 34.0 238.95 34.3 Q238.95 34.8 239.4 35.15 L239.85 35.95 Q239.85 36.45 240.3 36.8 240.75 37.15 240.75 37.65 L241.15 38.8 241.5 39.9 241.8 42.7 242.05 46.55 240.45 51.05 240.25 51.95 Q240.0 52.35 240.0 52.85 240.0 54.9 239.15 58.15 L239.0 58.6 Q238.3 61.0 238.1 63.2 L237.0 61.2 236.55 60.4 Q236.1 60.05 236.1 59.55 L235.75 58.7 233.45 53.35 Q231.2 48.1 230.85 46.35 L230.5 47.9 231.35 49.15 Q233.35 52.5 233.35 54.5 L234.05 58.95 234.05 59.0 Q234.05 61.5 233.15 65.1 L233.0 65.65 232.8 66.5 233.0 70.1 232.95 71.65 232.75 72.95 231.95 76.2 230.55 79.85 230.5 80.0 228.85 83.3 228.7 83.5 227.8 85.1 227.25 86.05 226.6 87.2 226.25 84.5 226.15 83.55 225.95 80.4 225.65 79.0 Q225.35 78.05 225.35 77.55 L225.2 76.9 222.35 69.95 Q222.35 69.3 220.7 66.85 L220.5 66.5 Q219.05 64.35 219.05 63.65 219.05 63.15 218.6 62.8 L218.35 62.6 218.15 61.95 218.0 61.3 218.1 62.65 218.4 66.85 218.55 69.2 218.2 70.7 217.95 71.45 217.8 72.2 217.4 75.6 217.0 78.4 216.95 79.0 216.95 79.05 216.7 78.45 216.65 78.4 215.85 76.35 Q215.85 75.2 214.35 74.15 212.85 73.05 212.85 72.55 212.85 71.7 211.5 70.05 L210.35 68.35 210.1 67.5 208.85 65.5 208.8 65.25 208.4 64.65 Q207.95 64.3 207.95 63.8 L207.6 62.7 207.2 61.55 206.85 60.4 206.45 59.25 206.35 58.8 206.0 58.4 Q205.55 58.05 205.55 57.55 L204.7 55.8 Q203.85 54.1 203.85 53.6 L203.5 52.5 Q203.15 51.85 203.15 51.35 L202.7 47.9 202.7 47.8 202.25 44.4 Q202.25 43.9 202.95 41.4 L203.6 38.95 205.25 36.0 206.0 35.0 Q206.7 34.15 206.7 33.7 206.7 33.2 207.1 33.0 207.5 32.75 207.5 32.25 L209.05 30.45 209.5 29.65 209.5 29.5 208.3 30.5 207.3 31.25 Q198.15 38.4 198.15 42.35 L198.0 42.95 197.85 43.55 197.8 43.85 197.6 43.7 Q198.1 41.8 198.1 39.95 L198.5 38.25 198.85 37.0 199.05 36.25 199.25 35.45 199.35 34.45 Q198.95 34.1 198.95 32.2 L199.05 29.2 Q199.05 21.6 204.05 15.75 206.75 12.6 212.85 7.25 211.8 8.9 211.15 11.9 L209.9 17.95 210.15 18.0 210.35 18.25 Q211.65 16.4 214.55 14.35 215.95 13.35 215.95 9.8 215.95 6.0 215.15 4.1 215.75 5.45 221.45 12.25 227.05 18.95 229.3 21.05 L232.2 24.1 Q234.4 24.8 237.15 26.15 240.3 27.7 241.95 29.1 243.65 30.6 243.65 31.95 L243.85 32.55 M244.0 82.55 L246.45 85.2 Q246.45 85.7 246.9 86.05 L247.35 86.85 247.75 87.8 Q248.15 88.55 248.15 89.15 248.15 89.65 247.2 91.05 L246.6 92.0 246.2 93.25 246.0 94.9 246.0 94.95 245.75 96.6 245.9 98.05 246.35 99.55 247.65 101.55 245.7 100.05 Q244.65 99.15 244.6 97.85 L244.6 97.75 243.65 95.45 243.15 94.35 242.4 92.45 242.35 92.3 240.95 88.9 240.7 88.3 Q239.8 86.2 239.8 85.25 L239.6 83.0 239.25 78.65 239.3 77.25 241.7 79.95 244.0 82.55 M244.5 82.3 L244.65 81.85 244.7 81.85 244.5 82.3 M245.65 64.15 L245.8 64.55 245.9 65.2 246.0 65.65 246.1 66.05 245.6 68.45 Q245.05 69.95 245.05 70.25 245.05 70.9 246.15 73.35 L246.15 73.95 246.65 74.55 245.45 73.25 243.8 69.3 Q242.7 66.9 242.35 64.6 L242.1 62.05 242.7 59.0 242.85 58.55 243.6 59.75 Q244.75 61.55 244.75 62.05 L245.35 63.25 245.65 64.15 M215.5 28.5 L215.6 28.6 215.6 28.3 215.5 28.5 M205.5 72.55 L206.35 73.35 Q209.7 76.5 209.7 78.8 L208.6 80.3 208.4 80.75 207.15 82.7 205.45 85.25 205.45 85.05 206.0 82.55 206.25 81.5 206.6 79.0 205.5 72.55 M232.75 39.45 L232.4 39.1 232.5 40.45 232.75 39.45 M205.75 68.65 L205.8 68.5 205.85 68.55 205.75 68.65 M228.9 212.4 L229.05 212.65 229.4 213.5 229.4 213.75 229.85 215.35 230.65 217.6 Q231.8 220.65 231.9 222.85 L231.9 223.15 Q231.9 225.85 232.5 231.0 L232.6 231.85 233.6 239.25 233.25 238.9 232.0 236.85 231.15 234.1 229.6 230.6 229.55 230.4 228.05 225.35 227.35 222.5 226.9 220.35 Q226.9 218.25 227.95 215.0 L228.5 213.45 228.7 212.85 228.9 212.4 M250.85 164.6 L250.3 161.75 251.3 162.4 Q254.3 164.15 255.0 165.1 L255.2 165.55 Q255.2 166.0 255.6 166.3 L255.95 167.0 Q255.95 167.85 257.15 170.6 L257.35 171.05 Q258.2 173.3 258.3 175.45 L258.3 175.95 258.3 176.15 257.65 175.45 255.2 172.7 253.7 170.65 Q251.75 167.75 250.85 164.6 M251.5 121.75 L251.3 121.3 252.55 122.05 253.3 122.45 Q260.05 126.1 260.05 127.75 L260.65 129.05 260.95 130.5 261.25 131.95 Q261.25 133.3 260.5 135.85 L259.85 137.9 258.8 140.7 258.2 142.2 257.95 148.5 Q257.95 150.95 259.35 156.6 259.35 157.05 259.7 157.6 L260.05 158.55 260.15 159.35 260.55 159.75 260.1 159.95 258.55 158.4 256.8 154.75 Q255.05 151.25 255.05 149.5 255.05 147.75 255.8 144.6 L256.0 143.8 256.4 142.5 256.95 140.35 Q256.95 139.8 257.1 139.25 L257.7 138.95 257.55 138.15 256.8 135.45 253.65 126.8 251.5 121.75 M235.25 185.0 L235.2 183.25 238.25 189.8 241.35 195.8 241.4 196.7 241.65 200.7 241.35 203.65 Q240.8 206.5 239.3 210.0 L236.9 215.1 237.0 214.45 237.65 204.5 237.55 203.5 236.7 199.5 236.05 196.8 235.7 195.35 235.75 194.5 235.05 193.35 Q234.5 194.45 233.25 195.6 L231.95 196.75 233.8 191.2 Q235.25 187.0 235.25 185.0 M219.25 186.05 L222.0 188.85 222.1 190.65 222.55 195.4 222.4 208.2 221.8 207.6 Q221.45 207.2 221.45 206.55 L221.0 201.9 220.75 198.95 220.75 197.8 Q220.6 194.7 219.75 191.95 L218.7 189.2 Q217.05 185.6 216.75 183.05 L219.25 186.05 M204.55 154.15 Q205.35 155.4 205.35 156.85 L205.5 158.1 205.5 158.2 205.65 159.15 205.95 161.4 205.6 162.4 Q205.25 162.9 205.25 163.35 L204.9 166.3 204.95 167.05 Q204.2 163.2 204.1 158.45 L204.05 157.4 204.05 156.8 204.55 154.15 M237.9 170.65 L237.0 166.9 236.85 165.1 236.95 163.05 237.35 160.7 Q237.95 161.95 239.0 163.25 L239.65 164.0 Q239.95 166.05 241.85 167.95 L242.2 168.25 244.6 170.3 244.95 170.6 246.95 172.2 Q248.75 173.75 250.15 175.5 253.6 179.9 254.2 185.5 L254.35 188.0 253.8 191.6 253.2 195.25 Q253.2 195.75 252.65 196.55 L252.1 197.55 252.05 197.85 Q252.05 199.4 248.8 203.6 L248.65 203.75 247.25 205.45 244.2 209.3 244.8 207.3 245.7 203.75 245.9 203.05 246.0 202.75 Q246.75 199.95 246.75 197.85 L246.75 196.9 Q246.5 191.45 243.9 184.8 L241.8 180.05 240.05 176.2 239.65 175.35 237.9 170.65 M200.2 186.65 L200.45 186.0 201.3 184.1 203.5 179.75 204.2 178.55 206.15 175.1 206.15 175.15 206.5 176.25 Q206.5 176.6 207.2 177.45 L207.5 177.75 208.5 179.0 Q208.5 179.8 209.5 180.8 L210.45 181.75 Q210.45 182.6 211.15 183.9 L211.9 185.05 Q213.35 187.1 213.35 187.7 213.35 188.2 213.65 188.4 213.95 188.55 213.95 189.05 L214.2 190.8 214.4 192.55 214.6 193.75 215.7 198.35 215.7 198.4 215.85 198.9 216.4 201.1 Q217.0 203.85 217.0 205.05 217.0 206.9 219.25 212.6 L219.55 213.4 219.65 213.6 222.05 220.0 Q222.05 221.0 221.75 221.2 219.85 219.3 216.2 213.05 L215.75 212.25 212.45 206.45 208.75 199.35 208.7 199.25 208.0 197.75 Q205.55 192.5 205.55 190.5 L205.6 188.95 205.5 187.35 Q202.9 188.65 202.25 189.25 201.3 190.1 201.3 191.55 201.3 192.85 200.8 193.95 200.25 195.1 200.25 195.75 L200.25 196.5 200.25 196.6 200.15 197.55 Q200.15 198.65 200.35 198.85 L199.65 198.15 199.1 196.45 199.0 195.95 198.95 195.65 198.65 193.35 Q198.65 190.6 200.2 186.65 M193.0 172.45 L193.15 172.0 193.3 171.15 Q195.9 164.55 195.9 163.8 195.9 162.85 196.35 160.6 L196.75 162.05 195.9 169.8 195.6 172.4 195.55 172.7 195.05 174.85 Q194.5 176.5 194.5 176.9 L194.1 179.75 Q193.7 182.25 193.65 183.3 L193.35 183.05 192.9 182.9 Q192.7 182.9 192.7 182.35 192.0 179.5 192.0 178.35 L192.35 176.05 192.65 173.7 Q192.65 173.3 193.0 172.45 M199.05 102.45 Q198.55 103.65 198.55 104.5 198.55 109.25 197.05 112.4 L196.3 114.15 Q195.65 115.55 195.15 116.85 194.05 119.5 193.45 121.8 L193.2 121.45 192.0 120.6 Q191.85 120.35 191.85 118.85 L192.05 118.0 192.25 117.25 192.65 115.7 Q192.65 114.2 193.1 112.65 194.2 108.35 198.4 103.2 L199.05 102.45 M231.0 131.85 L231.6 133.2 Q231.6 133.95 234.85 137.2 L237.75 140.5 238.05 141.2 238.5 142.85 238.7 143.3 238.95 144.45 Q238.95 145.6 239.4 147.15 L239.5 147.5 239.85 149.85 239.35 152.0 238.8 154.1 238.8 154.3 236.15 147.8 235.3 145.8 234.1 142.9 233.2 140.6 Q231.1 135.2 231.1 133.45 L231.0 131.85 M222.75 141.55 Q221.55 138.7 221.05 135.9 L223.0 137.6 Q225.55 139.65 226.65 141.05 L226.85 141.3 227.4 142.2 Q228.6 144.4 228.6 147.35 L228.05 151.65 227.65 150.8 224.75 145.75 Q223.6 143.7 222.8 141.7 L222.75 141.55 M212.15 147.95 L212.15 147.0 Q212.15 145.9 213.2 143.8 L213.15 143.5 212.9 142.0 213.4 143.4 213.4 143.45 214.25 145.3 215.6 148.15 216.0 149.35 Q216.0 150.1 216.9 151.4 L217.8 152.7 218.0 153.9 Q218.3 155.05 219.15 156.75 L220.65 159.5 220.85 159.8 221.9 161.8 222.65 163.6 222.85 164.3 Q223.85 167.45 223.85 170.9 L223.95 172.7 224.35 174.85 Q224.85 176.95 226.0 179.0 227.9 182.4 228.5 184.1 L228.7 184.95 227.8 184.05 222.7 178.9 220.95 177.1 218.55 174.5 218.2 174.05 215.8 170.7 Q215.2 169.65 214.75 168.3 213.7 165.55 213.1 161.65 L212.95 160.5 212.55 157.25 Q212.2 153.1 212.15 147.95 M208.25 103.4 L208.3 103.55 209.6 111.6 209.75 112.7 209.7 113.75 209.15 117.8 208.6 120.7 206.95 127.25 206.2 130.35 205.85 131.75 Q205.3 134.3 205.3 135.55 L205.7 136.7 206.05 137.85 206.45 139.0 206.75 139.6 206.85 140.1 Q206.85 140.6 207.3 140.95 207.7 141.3 207.7 141.8 207.7 142.45 208.0 142.85 L208.6 143.45 208.1 143.7 204.75 140.35 204.6 140.2 203.9 139.45 203.65 139.1 Q200.9 135.3 200.55 131.15 L200.5 130.0 200.5 129.95 200.9 128.45 201.3 126.9 Q201.3 126.4 201.65 124.6 L202.0 122.3 202.2 120.3 203.1 116.4 203.2 116.0 203.65 114.7 205.1 110.5 205.85 108.55 208.0 103.5 208.2 102.95 208.25 103.4 M232.8 113.45 L232.7 111.8 234.1 112.55 235.1 113.8 235.65 114.45 Q237.7 116.9 237.7 118.1 L237.7 118.15 Q237.75 118.8 238.65 120.3 L241.45 124.15 245.2 128.7 246.5 131.6 247.8 134.35 247.8 134.45 248.15 137.35 248.3 138.5 248.45 140.35 248.5 141.1 248.7 144.1 249.1 150.05 249.1 150.35 249.05 151.55 248.4 156.1 247.95 158.2 247.85 158.65 247.85 159.0 247.6 158.5 247.45 158.15 247.3 157.35 Q247.3 154.05 246.45 150.2 L245.75 147.45 244.55 143.8 243.35 140.7 241.8 137.25 240.25 134.1 239.95 133.55 235.4 124.8 Q234.3 122.55 233.75 120.9 L233.55 120.25 Q233.25 119.25 233.25 118.5 L233.2 118.15 233.1 117.05 232.8 113.45 M226.25 108.55 L226.4 109.05 226.45 110.15 Q226.45 110.9 227.15 112.95 L227.6 114.3 228.75 117.8 228.4 120.05 228.4 120.1 228.0 122.3 228.4 123.7 228.8 125.1 Q228.8 125.9 229.85 127.3 230.9 128.7 230.9 129.15 230.9 130.0 231.2 130.45 L231.85 131.45 231.5 131.15 230.8 130.75 Q230.3 130.45 230.3 129.9 L227.9 124.4 Q227.0 122.2 226.45 119.95 225.5 116.45 225.45 112.9 L225.45 112.5 Q225.45 110.55 226.25 108.55 M241.9 108.3 Q240.25 105.35 239.4 102.75 L239.6 102.9 Q243.6 105.55 243.6 106.4 L244.05 107.8 244.85 109.95 246.05 113.45 246.35 116.3 246.45 117.3 246.05 116.2 Q244.85 113.25 242.65 109.6 L241.9 108.3 M234.5 76.25 L234.9 79.85 Q234.9 80.3 235.15 80.4 L235.4 80.95 235.1 82.95 235.05 83.3 234.75 84.95 236.0 92.15 234.4 98.45 Q234.4 99.2 234.9 101.1 L235.1 101.85 233.9 100.9 Q232.25 98.5 232.25 90.3 232.25 86.6 232.7 83.4 233.1 80.65 233.8 78.25 L234.5 76.25 M221.7 92.5 L221.0 86.35 223.3 90.55 223.7 91.3 Q224.1 91.6 224.1 92.05 L225.5 98.7 225.35 99.85 224.75 101.95 223.65 106.05 Q224.0 106.4 223.5 106.55 222.45 102.9 222.45 101.55 L222.4 99.7 221.7 92.5 M218.4 85.6 L218.35 86.2 218.15 90.05 217.95 94.4 218.45 98.65 218.6 99.6 218.8 101.35 218.9 102.95 218.45 105.9 218.25 106.6 Q217.55 109.05 217.55 109.95 L217.2 113.1 216.55 115.75 Q216.55 116.75 216.35 116.35 L215.95 115.9 215.85 115.0 215.7 113.2 215.3 108.45 214.85 105.15 214.65 104.2 214.2 101.5 214.0 99.7 214.0 99.5 214.45 96.9 214.85 94.3 Q214.85 90.5 217.5 86.85 L218.4 85.6 M236.2 215.7 L236.2 216.8 235.95 216.4 236.2 215.7 M192.45 205.5 L192.7 206.75 193.2 212.55 Q193.2 213.6 193.75 216.35 193.6 216.9 192.85 216.8 192.05 215.95 190.85 211.9 189.35 207.0 189.35 202.7 L189.35 202.65 Q189.35 200.35 190.5 197.6 191.65 200.55 191.65 201.75 L191.7 202.2 191.95 203.0 192.2 204.25 192.45 205.5" fill="#ffffff" fill-rule="evenodd" stroke="none"/>
  </g>
</svg>
