<?xml version="1.0" encoding="UTF-8" standalone="no"?>
<svg xmlns:ffdec="https://www.free-decompiler.com/flash" xmlns:xlink="http://www.w3.org/1999/xlink" ffdec:objectType="shape" height="207.9px" width="74.6px" xmlns="http://www.w3.org/2000/svg">
  <g transform="matrix(1.0, 0.0, 0.0, 1.0, -182.6, -8.9)">
    <path d="M224.2 20.4 Q225.45 21.05 226.9 22.2 L228.4 23.55 229.35 24.7 229.6 25.1 229.85 25.6 230.75 26.3 Q235.25 29.95 235.25 31.35 235.25 32.1 236.85 33.75 L237.6 34.45 Q239.9 36.6 239.9 37.55 L240.4 38.85 240.65 39.75 240.85 40.8 240.2 42.55 240.0 42.95 239.55 44.05 Q239.55 44.55 239.15 44.8 238.75 45.0 238.75 45.5 L237.7 51.4 235.35 49.05 Q232.9 46.25 232.9 44.15 L232.7 42.3 232.5 40.45 232.75 39.45 232.4 39.1 232.5 40.45 231.95 42.25 231.55 43.75 231.4 44.15 Q230.45 47.55 230.45 48.5 230.45 49.95 231.1 52.2 231.7 54.45 231.7 55.85 L231.85 56.7 232.05 57.3 232.35 58.75 232.45 60.5 233.0 70.1 232.95 71.65 232.85 72.25 232.75 72.95 232.65 73.55 Q232.05 76.4 230.55 79.85 L228.85 83.3 227.8 85.1 227.25 86.05 222.95 93.2 222.75 93.15 222.85 92.5 223.25 87.6 222.55 84.2 222.25 82.55 222.05 81.95 221.85 80.85 Q221.85 79.45 220.55 76.45 L219.5 74.2 219.25 73.65 218.8 72.85 218.65 72.55 215.8 67.9 Q215.8 67.4 215.5 67.25 215.2 67.1 215.2 66.6 215.2 66.1 214.75 65.75 214.3 65.4 214.3 64.9 214.3 64.3 213.5 62.95 212.7 61.6 212.7 60.95 L212.25 60.15 211.9 59.8 Q211.75 59.55 211.75 59.3 L211.35 56.05 211.25 55.25 210.95 52.8 211.2 50.85 211.25 48.95 Q210.95 50.25 209.15 52.45 L207.75 54.35 207.5 55.0 Q207.5 56.1 206.35 58.8 L205.3 61.55 205.15 62.55 204.85 63.75 Q204.55 64.45 204.55 64.95 204.55 65.45 204.95 66.1 L205.3 67.25 205.25 67.85 204.2 66.15 Q203.45 64.65 203.45 63.9 L203.1 62.75 202.95 62.4 202.75 61.6 202.4 59.4 Q202.05 57.65 202.05 57.15 L201.8 55.7 201.5 54.25 201.6 52.75 Q201.7 51.55 202.1 50.85 202.65 49.7 202.65 47.85 L203.95 44.6 Q203.95 43.95 204.4 43.05 L204.75 42.35 Q205.5 40.9 205.5 40.1 205.5 39.4 206.35 38.3 L207.15 37.2 Q207.15 36.7 207.55 36.5 207.95 36.25 207.95 35.75 L209.6 32.8 Q209.6 31.65 211.4 29.0 L213.2 25.45 Q215.0 21.9 216.0 18.95 217.15 15.45 217.15 12.85 L217.05 8.9 218.5 11.55 222.4 17.8 224.2 20.4 M243.1 48.5 Q243.1 49.35 244.3 53.1 L242.9 56.0 242.6 56.5 Q240.85 59.7 240.85 60.35 240.85 60.9 241.55 61.9 L242.4 63.0 242.15 63.1 Q240.85 62.2 239.9 60.7 238.7 58.75 238.7 56.65 L238.75 56.2 Q238.9 53.05 241.6 48.85 L242.85 47.1 242.85 47.15 243.1 48.5 M248.45 90.0 L251.15 90.8 Q253.6 91.75 253.6 92.5 253.6 93.0 255.5 95.85 L256.65 98.4 257.2 100.4 Q256.8 99.2 256.2 98.35 255.35 97.2 254.15 96.5 L250.75 94.85 Q248.55 93.7 247.1 92.0 L246.95 92.35 246.85 93.7 246.5 96.8 246.55 97.7 Q246.55 98.7 246.7 99.45 L246.95 100.35 246.2 99.4 245.1 97.75 Q244.15 96.2 243.55 94.7 241.6 90.05 241.6 83.8 L241.65 81.45 241.85 81.85 Q241.85 82.65 242.85 83.65 243.85 84.65 243.85 85.35 243.85 86.15 245.85 88.1 247.8 90.0 248.45 90.0 M244.7 81.85 L244.5 82.3 244.65 81.85 244.7 81.85 M243.75 66.9 L245.2 67.2 Q246.4 67.2 247.2 69.95 L247.7 72.15 247.85 73.3 247.9 73.9 247.9 74.4 247.5 75.95 247.1 77.45 Q247.1 78.2 246.3 79.05 L245.8 79.7 245.7 79.8 245.9 79.1 246.25 77.35 Q246.25 76.0 245.35 73.9 L245.05 73.2 244.4 71.9 242.65 68.9 241.05 66.25 242.3 66.55 243.75 66.9 M247.75 39.1 Q247.75 39.75 247.4 39.95 L236.0 29.4 232.5 26.1 Q228.4 22.1 228.4 21.15 L228.35 20.7 228.1 20.5 228.35 20.25 229.6 20.05 Q230.7 20.05 234.8 22.25 L235.65 22.15 238.9 23.5 241.4 25.05 Q243.15 26.45 243.9 28.4 L246.5 34.65 Q247.75 37.65 247.75 39.1 M204.05 18.3 Q206.1 15.3 211.45 8.9 L211.5 12.6 Q211.5 15.7 210.05 19.8 L209.15 22.0 209.1 22.2 Q211.05 21.45 213.1 21.3 L212.9 22.75 Q212.3 26.05 211.1 28.65 L210.8 29.25 205.25 35.4 Q200.8 40.45 200.4 44.95 L200.2 44.8 199.45 43.6 Q199.15 42.7 199.15 40.65 L198.8 37.1 Q198.8 35.25 199.15 33.6 L199.05 33.45 Q198.25 32.4 198.25 30.8 198.25 27.1 202.6 20.5 L204.05 18.3 M215.5 28.5 L215.6 28.6 215.6 28.3 215.5 28.5 M199.1 91.5 Q199.55 90.2 200.3 88.9 L204.05 82.1 Q204.45 81.1 207.55 76.9 L207.65 76.75 Q210.6 72.75 210.6 72.0 L210.7 71.7 210.9 71.35 211.2 70.65 211.4 69.5 211.55 71.0 211.55 71.8 211.1 76.0 211.05 76.3 210.3 78.6 Q209.7 80.15 209.7 80.65 209.7 82.2 208.1 83.4 L206.5 84.6 Q205.1 85.75 203.45 87.85 201.8 89.85 200.7 92.15 199.5 94.45 198.9 97.05 198.55 96.1 198.55 95.0 198.55 93.2 199.1 91.5 M205.85 68.55 L205.75 68.65 205.8 68.5 205.85 68.55 M241.35 179.6 L241.55 180.0 Q243.3 183.6 243.5 187.6 L243.6 189.15 244.1 187.2 246.15 199.8 240.4 206.3 240.25 206.25 239.5 204.6 236.2 215.7 237.45 208.15 Q238.7 200.25 239.45 192.35 L240.25 179.4 240.3 177.55 241.35 179.6 M214.7 168.05 L217.5 170.2 Q219.65 171.85 219.65 173.55 L221.5 176.45 Q222.7 178.5 222.7 178.9 L223.9 183.5 224.5 186.2 224.8 187.65 225.1 190.45 224.9 192.75 223.4 190.3 220.35 186.4 220.15 186.15 Q215.3 180.4 215.3 176.75 L215.2 175.55 214.7 168.05 M195.15 159.45 L195.5 160.85 Q196.25 163.95 196.25 165.45 L195.45 167.35 194.6 169.3 Q192.9 173.15 192.9 173.45 L192.5 176.15 Q192.5 176.95 193.2 178.35 L192.95 178.45 Q191.65 177.75 191.15 175.75 190.7 173.85 190.7 169.75 190.7 168.7 191.85 166.15 192.95 163.55 195.15 159.45 M193.7 142.5 L193.1 145.2 Q193.1 146.5 190.75 150.5 L188.6 154.0 188.05 154.9 Q185.15 159.5 184.15 162.35 183.7 163.6 183.6 164.5 L183.4 164.3 Q182.6 163.75 182.6 161.4 L182.6 161.2 Q182.7 158.3 185.4 153.9 L187.6 150.6 188.35 149.55 193.7 142.5 M195.95 121.6 L196.1 122.3 Q196.1 125.55 194.35 127.05 L193.5 127.65 187.3 131.4 191.65 127.0 191.75 126.9 Q195.45 123.05 195.45 121.35 L195.65 120.4 195.75 120.9 195.95 121.6 M233.1 132.0 L235.0 135.1 Q239.65 142.85 239.65 145.15 239.65 145.65 240.15 146.0 240.6 146.35 240.6 146.85 L240.7 147.8 240.95 149.1 241.25 151.3 Q241.25 151.8 241.55 151.95 241.85 152.1 241.85 152.6 241.85 158.85 244.1 163.7 L247.35 169.15 248.6 171.15 249.25 172.25 248.0 170.95 246.15 168.8 Q241.7 163.4 237.8 155.65 235.7 151.55 234.3 147.55 231.85 140.85 231.25 134.5 L231.1 131.5 231.05 130.35 231.0 128.8 232.85 131.6 233.1 132.0 M204.8 137.25 L205.2 136.7 205.15 136.95 204.8 138.95 204.7 139.55 Q204.7 141.15 205.25 143.05 L205.75 145.9 205.95 147.35 206.5 148.55 Q207.2 149.65 209.2 151.65 L207.25 150.35 208.35 153.05 208.45 153.9 Q208.6 155.2 209.3 157.6 L209.55 158.55 209.85 159.6 210.2 161.75 209.75 163.55 Q209.25 164.85 209.25 165.35 209.25 166.35 208.5 167.6 L208.15 168.15 207.8 168.6 204.65 172.3 203.35 174.1 Q201.4 176.9 200.6 179.95 200.05 182.0 200.05 184.2 200.05 185.65 200.8 186.5 200.65 187.1 200.3 186.75 L199.7 186.15 Q199.4 185.7 199.4 185.05 L199.05 183.9 198.65 182.75 Q198.65 181.35 199.05 179.4 199.55 177.0 200.65 173.8 L201.6 171.1 202.5 168.8 204.55 162.9 205.3 158.45 205.3 158.35 205.6 155.55 205.6 153.1 205.45 149.1 205.3 147.35 205.2 146.15 205.05 144.8 Q204.5 140.2 204.5 138.6 204.5 137.9 204.8 137.25 M221.95 112.85 L222.0 112.95 222.15 114.6 221.8 116.1 221.4 117.6 221.2 118.9 220.95 120.0 220.95 120.15 221.05 122.45 221.35 125.95 Q221.65 128.5 222.4 131.1 L223.1 133.2 223.25 133.7 Q224.75 137.55 223.0 146.55 L222.9 147.25 Q221.45 155.3 222.75 162.9 L222.95 164.0 Q222.8 164.6 222.45 164.25 L221.95 162.7 220.15 158.25 Q218.3 153.75 215.95 151.05 214.8 149.75 214.05 147.3 213.15 144.6 212.7 140.65 212.1 135.5 213.05 131.65 L213.2 131.0 Q213.65 129.45 214.35 128.15 L217.45 121.7 218.5 119.35 220.65 114.1 221.15 112.95 221.75 111.4 221.95 112.85 M216.4 105.2 L216.2 110.35 Q216.2 111.2 215.4 112.8 L212.75 116.85 212.4 117.35 Q209.3 121.65 209.3 123.55 L209.25 124.6 Q209.2 125.3 209.3 125.4 L208.95 125.05 209.05 120.85 Q209.15 118.35 209.6 116.1 209.9 114.4 210.45 112.85 L210.5 112.75 Q211.1 111.3 215.15 105.25 L216.55 103.15 216.4 105.2 M238.0 114.85 L238.0 114.8 238.0 114.85 239.15 118.25 Q240.35 121.7 240.35 122.9 L240.55 123.5 240.6 123.55 240.75 124.05 Q240.75 125.1 242.8 127.35 L244.85 129.65 246.55 131.85 Q247.9 133.55 248.2 134.8 L248.25 135.4 248.65 136.9 248.75 137.2 249.2 139.2 248.6 143.0 248.45 143.6 248.3 144.2 Q248.3 145.8 246.85 148.5 L247.1 147.15 247.3 146.4 247.45 145.65 Q247.45 142.4 244.85 136.55 L243.95 134.65 243.25 133.15 240.4 127.1 240.15 126.2 240.15 126.15 240.05 126.0 240.15 126.2 239.4 130.25 239.25 130.85 239.05 131.45 239.3 132.35 239.7 133.55 240.3 135.4 240.6 135.95 241.75 137.6 241.45 137.7 239.7 135.85 238.6 134.4 Q237.8 133.25 237.3 132.1 236.2 129.65 236.2 127.05 L236.45 123.1 Q236.7 120.65 237.3 118.0 L238.0 114.85 M237.9 96.25 L237.7 93.75 238.25 94.5 239.75 96.3 241.15 97.85 241.95 98.8 242.15 99.0 242.45 99.35 Q242.45 99.75 243.55 101.4 L243.6 101.45 244.6 103.05 244.8 103.9 244.95 104.05 Q250.0 108.8 250.0 111.5 L248.95 117.3 248.95 117.45 248.5 119.1 248.05 120.9 247.7 122.45 247.3 123.95 247.3 124.0 246.9 126.15 246.65 126.95 246.4 123.95 246.2 121.3 Q246.2 120.1 245.1 116.45 L242.05 107.6 241.5 106.1 239.8 101.65 238.6 98.35 238.5 98.05 237.9 96.25 M237.6 81.55 L237.0 85.95 Q236.35 89.3 236.35 91.7 L234.95 95.6 Q234.95 96.2 234.35 97.45 L234.2 97.75 233.85 98.45 233.7 98.9 Q233.7 99.4 233.3 99.65 232.85 99.85 232.85 100.35 L232.5 102.65 Q232.15 104.4 232.15 104.9 L231.8 107.2 231.4 109.5 Q231.4 110.2 232.15 113.75 L232.2 113.85 232.85 117.8 Q232.85 118.3 233.15 118.45 233.45 118.6 233.45 119.1 L233.85 120.25 234.2 121.4 Q232.95 120.05 232.95 119.35 L230.8 113.65 Q228.95 108.45 228.95 107.0 L228.75 105.25 228.5 103.5 Q228.5 102.45 229.15 99.15 L229.15 99.0 229.5 97.1 229.8 94.95 Q229.8 90.3 234.2 84.2 234.85 83.3 237.45 80.3 L237.6 81.55 M202.75 96.15 L204.4 93.3 Q206.45 89.5 207.95 85.3 L207.5 88.4 207.05 93.95 206.9 95.05 206.2 102.25 204.85 109.3 203.9 113.1 203.6 114.2 Q203.05 116.15 203.05 118.15 L203.1 118.8 Q203.15 120.4 203.6 122.2 L204.1 124.45 Q204.1 125.05 204.25 125.3 L203.75 124.8 Q203.4 124.4 203.4 123.75 L203.05 122.6 202.65 121.45 201.5 118.45 200.7 116.35 199.75 113.6 Q198.7 110.45 198.7 109.15 198.7 106.35 199.2 104.05 199.45 102.75 199.85 101.6 200.55 99.65 202.75 96.15 M213.8 83.65 L215.65 85.95 Q215.65 86.45 216.1 86.8 216.55 87.15 216.55 87.65 L216.25 90.35 215.5 93.9 215.0 95.35 214.25 97.2 Q213.35 99.1 212.8 101.3 L212.35 99.0 211.65 94.85 Q211.3 92.25 211.3 90.75 211.3 88.75 212.65 85.85 L213.65 83.45 213.8 83.65 M224.9 192.75 L225.4 194.5 225.1 195.35 Q224.95 195.55 225.1 195.75 L224.25 195.6 224.9 192.75 M236.2 215.7 L236.2 216.8 235.95 216.4 236.2 215.7" fill="#ffffff" fill-rule="evenodd" stroke="none"/>
  </g>
</svg>
