<?xml version="1.0" encoding="UTF-8" standalone="no"?>
<svg xmlns:ffdec="https://www.free-decompiler.com/flash" xmlns:xlink="http://www.w3.org/1999/xlink" ffdec:objectType="shape" height="301.0px" width="174.0px" xmlns="http://www.w3.org/2000/svg">
  <g transform="matrix(1.0, 0.0, 0.0, 1.0, 109.0, -240.05)">
    <path d="M36.9 344.45 Q39.55 342.95 42.15 340.1 43.85 338.25 45.1 336.2 L46.15 335.8 Q43.4 344.25 42.05 346.95 L38.05 354.9 Q36.75 357.1 35.65 357.5 L35.65 357.1 35.2 357.5 35.15 357.5 35.15 354.45 Q37.15 351.2 37.15 348.3 L36.9 344.45 M6.15 505.7 L6.15 505.05 6.3 505.05 6.15 505.7 M-79.95 354.15 L-80.05 355.2 -80.85 353.0 -79.95 354.15 M-51.35 486.85 L-52.15 487.1 -51.35 486.2 -51.35 486.85 M-17.4 490.2 L-17.8 489.3 -17.8 485.9 -17.3 485.9 Q-14.65 483.55 -13.85 481.1 L-13.85 484.5 Q-15.15 487.55 -17.4 490.2 M-47.3 523.65 L-47.55 523.1 -47.45 523.05 -47.3 523.65" fill="#ffff00" fill-rule="evenodd" stroke="none"/>
    <path d="M4.2 295.1 L4.95 296.6 Q3.7 295.95 2.35 295.8 L4.2 295.1 M13.15 308.85 Q19.85 310.05 22.35 320.8 L22.65 322.25 22.7 322.25 24.95 322.35 Q23.85 324.4 23.85 328.0 23.85 331.2 24.55 332.55 23.85 335.0 23.85 338.75 L24.1 340.5 Q20.7 340.15 19.4 337.65 19.0 336.75 18.85 335.65 L18.85 334.6 18.85 333.2 Q19.0 330.9 19.5 328.25 L19.7 327.2 Q18.05 324.95 15.2 324.95 13.4 324.95 10.05 326.3 L9.95 326.15 9.7 325.9 9.6 325.75 9.85 325.75 9.95 325.65 Q11.55 324.65 12.8 320.35 13.85 316.7 13.85 314.4 13.85 311.55 13.15 308.85 M25.6 343.45 Q27.5 346.05 31.05 346.05 34.0 346.05 36.9 344.45 L37.15 348.3 Q37.15 351.2 35.15 354.45 L34.95 354.7 Q32.2 358.9 28.0 358.9 25.0 358.9 23.7 357.2 L23.15 356.3 Q22.8 355.45 22.7 354.4 L22.7 353.45 Q22.7 348.65 24.95 344.5 L25.6 343.45 M21.8 365.75 L22.2 365.75 Q26.85 365.75 30.0 371.8 32.75 377.2 32.75 383.4 32.75 389.3 29.65 394.05 27.05 397.95 24.95 398.3 30.0 399.0 32.0 401.1 34.5 403.6 34.5 409.8 34.5 414.45 32.55 418.9 L34.7 418.65 Q44.75 418.65 49.5 436.2 51.9 445.05 52.25 453.95 L50.7 462.3 50.7 462.55 50.5 463.45 49.1 465.55 Q42.35 475.3 35.9 475.3 31.6 475.3 28.25 468.35 24.95 461.75 24.95 454.05 24.95 452.1 26.15 450.05 23.2 453.2 19.3 454.55 L19.15 445.2 19.15 440.75 23.0 441.15 23.2 441.15 22.75 440.15 Q21.65 437.15 21.65 433.5 21.65 427.35 24.6 424.3 26.85 422.0 30.15 421.8 28.05 418.0 23.55 418.0 21.65 418.0 19.9 419.0 L19.35 418.8 Q16.6 417.8 14.8 419.9 12.75 422.3 12.75 428.05 L12.75 428.7 Q12.15 430.2 12.15 431.3 12.15 436.2 14.95 438.7 16.55 440.15 19.0 440.7 17.3 444.8 15.4 455.4 L13.2 455.5 Q4.65 455.5 1.45 452.8 L1.25 452.65 7.1 439.05 Q9.25 432.15 9.9 421.75 13.45 420.6 17.25 415.25 21.65 409.1 21.65 405.45 L21.65 402.95 Q21.1 405.6 18.85 407.95 16.4 410.5 13.55 410.5 11.9 410.5 10.45 409.85 10.6 408.65 10.85 408.1 L12.75 401.95 13.7 399.65 Q8.4 399.4 6.15 394.55 4.95 391.9 4.95 389.0 4.95 382.35 7.8 378.6 10.35 375.25 14.1 375.4 17.25 375.5 19.6 377.95 L20.45 374.05 Q21.05 369.75 21.8 365.75 M-75.55 417.1 Q-74.35 410.5 -70.75 404.7 L-70.45 405.8 Q-68.7 410.5 -63.35 410.5 -57.85 410.5 -55.15 406.15 L-54.8 405.5 -51.85 409.4 Q-51.05 413.35 -48.9 413.35 L-47.85 412.9 Q-48.4 409.8 -48.4 405.5 L-48.4 405.1 -48.65 402.4 Q-48.65 395.0 -45.45 395.0 -44.0 395.0 -42.65 395.65 -43.9 397.4 -43.9 399.75 -43.9 401.95 -42.4 406.0 -40.25 411.9 -36.7 411.9 L-33.15 411.25 Q-32.0 415.55 -29.15 429.5 -27.85 434.15 -27.45 441.45 L-28.15 440.4 Q-33.5 432.5 -31.95 424.1 -32.75 427.2 -35.8 433.0 -39.25 439.65 -44.0 446.85 -55.65 464.4 -60.4 464.4 L-60.9 464.4 Q-56.15 463.05 -53.25 457.65 -50.6 452.7 -50.6 448.65 -50.6 445.8 -51.45 443.3 L-52.1 444.35 Q-54.55 447.85 -58.1 447.85 -63.9 447.85 -65.6 443.4 -66.15 442.0 -66.2 440.25 L-66.15 438.6 Q-66.15 435.25 -64.7 432.85 L-66.95 432.9 Q-70.25 431.1 -72.75 425.95 -74.7 421.85 -75.55 417.1 M-61.65 371.45 L-61.65 369.7 Q-60.6 367.95 -60.6 365.6 -60.6 364.35 -61.25 362.95 -60.85 360.45 -60.05 358.2 -57.5 351.4 -51.95 351.4 -49.05 351.4 -46.0 352.85 L-44.85 353.4 Q-46.7 349.9 -46.7 345.0 -46.7 341.25 -45.55 338.3 -48.4 337.6 -49.45 334.95 -49.95 333.85 -50.05 332.4 L-50.05 331.15 -50.0 329.35 -47.55 329.75 Q-44.15 329.75 -42.4 326.55 -41.1 324.2 -41.1 321.55 L-41.2 319.95 Q-39.35 320.5 -37.8 322.2 -36.2 324.0 -35.75 326.3 L-35.55 328.3 Q-35.55 329.65 -35.95 331.05 -36.3 332.55 -37.15 334.15 -37.85 335.5 -38.7 336.45 L-38.9 338.1 -36.9 338.05 Q-29.9 337.65 -27.45 340.9 -26.05 342.7 -26.05 346.8 -26.05 350.05 -28.45 354.05 -31.45 358.9 -35.65 358.9 -39.15 358.9 -41.35 357.25 L-42.55 357.1 Q-47.3 356.8 -50.75 358.7 -52.1 359.5 -52.95 360.45 -54.3 361.0 -54.95 362.45 -55.6 363.9 -55.6 369.5 L-55.5 371.85 -54.9 375.6 Q-58.35 373.7 -61.65 371.45 M-35.0 331.1 L-35.0 330.7 -34.95 331.1 -35.0 331.1 M-33.3 322.2 L-32.45 319.45 Q-31.75 317.5 -30.05 315.45 L-27.45 312.75 Q-24.65 310.3 -21.7 309.35 L-21.7 309.3 -21.5 309.25 -21.65 309.45 -17.8 314.1 -17.2 314.05 -17.2 314.75 -17.8 314.1 Q-27.95 314.95 -33.3 322.2 M-15.6 284.05 Q-17.25 283.5 -19.45 283.5 -22.85 283.5 -24.9 285.0 -27.05 285.4 -28.45 287.2 -30.55 289.7 -30.55 294.0 L-30.55 294.3 Q-31.6 291.7 -31.45 288.0 -31.25 281.95 -29.55 274.75 L-29.5 274.5 -29.35 273.95 -29.05 273.7 -28.25 273.15 Q-26.25 272.0 -21.85 270.85 L-20.9 270.65 -22.2 269.3 Q-26.05 264.7 -26.05 255.0 -26.05 247.75 -23.75 244.45 -21.85 241.65 -18.15 241.8 -15.4 240.05 -13.1 240.05 -10.4 240.05 -8.05 240.9 -9.5 243.85 -9.5 248.85 L-9.55 250.7 Q-9.5 252.85 -9.0 254.65 -7.3 260.4 -1.75 260.4 L1.85 259.85 Q1.05 264.4 -1.7 267.9 L-2.9 269.35 Q-2.05 270.4 -1.15 272.05 0.3 274.9 0.8 277.4 -4.75 277.4 -8.95 270.6 -13.3 263.65 -13.3 253.6 -13.3 249.5 -13.0 247.7 -12.45 244.15 -10.6 242.7 L-10.5 242.3 -10.7 242.2 -11.95 242.15 Q-15.75 242.15 -18.25 248.95 -20.55 255.0 -20.55 262.15 -20.55 271.75 -16.0 276.6 -13.5 279.3 -9.0 281.5 -12.3 281.7 -15.6 284.05 M14.15 280.8 L13.8 278.45 13.85 277.2 Q13.85 273.35 15.3 271.3 L15.95 273.25 Q17.8 277.4 22.7 277.4 24.6 277.4 26.0 276.8 25.8 278.8 24.0 281.15 21.65 284.2 18.6 284.2 15.15 284.2 14.15 280.8 M-7.25 336.6 L-7.4 336.75 -8.9 338.6 Q-10.4 339.85 -12.5 339.85 -17.1 339.85 -18.15 336.05 -18.5 334.8 -18.4 333.45 L-18.25 332.45 Q-18.25 327.25 -16.4 324.9 -14.75 322.85 -12.25 323.45 -9.85 324.05 -8.1 326.55 -6.2 329.2 -6.2 332.55 -6.2 334.55 -7.25 336.6 M-21.45 378.35 L-23.85 379.8 Q-22.75 381.65 -22.75 383.45 -22.75 386.0 -24.55 388.1 -26.8 390.8 -30.85 390.8 -35.25 390.8 -36.45 387.5 -36.8 386.5 -36.8 385.15 L-36.7 383.85 -36.65 382.7 Q-36.45 378.15 -34.55 376.2 -33.85 375.5 -33.0 375.25 L-32.85 374.15 -32.65 373.85 -31.5 371.6 Q-29.3 374.4 -26.9 376.15 -23.85 378.3 -21.65 377.9 L-21.45 378.35 M-27.2 309.05 Q-27.2 311.2 -29.7 314.05 -32.65 317.5 -36.45 317.5 -39.6 317.5 -41.0 313.1 L-41.7 308.9 Q-41.7 304.2 -39.45 302.1 -37.45 300.3 -34.45 300.85 -31.6 301.45 -29.45 303.7 -27.2 306.1 -27.2 309.05 M-44.85 353.4 L-44.3 354.35 -44.05 353.85 -44.85 353.4" fill="#545159" fill-rule="evenodd" stroke="none"/>
    <path d="M-27.35 453.0 Q-26.4 452.65 -25.55 452.65 -30.9 456.55 -33.15 461.2 -35.25 465.6 -35.5 472.25 L-34.55 473.05 Q-29.2 477.1 -23.1 477.1 -17.25 477.1 -14.3 475.45 -11.45 473.8 -8.4 468.95 -9.0 474.5 -7.65 478.35 -5.8 483.8 -0.35 483.8 5.45 483.8 9.5 479.55 12.8 476.0 13.0 471.4 L13.3 471.4 13.3 473.6 Q10.45 485.75 7.55 491.0 L5.9 493.65 Q1.9 499.0 -3.95 499.5 L-5.05 499.5 Q-10.3 499.5 -12.65 497.75 -15.0 495.95 -17.4 490.2 -18.85 491.85 -20.65 493.3 -25.8 497.4 -31.15 497.4 L-36.5 496.75 -37.35 496.5 Q-41.55 495.2 -45.05 492.0 -51.8 486.0 -52.25 475.8 L-52.25 474.3 Q-52.25 467.75 -49.85 462.6 -48.2 459.0 -45.6 456.7 -45.6 459.5 -45.05 460.75 -44.15 462.85 -41.4 462.85 L-40.15 461.9 -34.95 457.75 Q-30.3 453.9 -27.35 453.0 M4.75 421.3 Q2.65 420.1 1.6 417.25 0.55 414.3 0.55 408.8 0.55 401.85 1.9 399.15 L2.55 398.05 Q3.35 401.8 5.3 405.05 L5.85 405.85 Q7.9 408.75 10.45 409.85 11.9 410.5 13.55 410.5 16.4 410.5 18.85 407.95 21.1 405.6 21.65 402.95 L21.65 405.45 Q21.65 409.1 17.25 415.25 13.45 420.6 9.9 421.75 L8.0 422.05 Q6.15 422.05 4.75 421.3 M-17.4 490.2 Q-15.15 487.55 -13.85 484.5 L-13.85 481.1 Q-14.65 483.55 -17.3 485.9 L-17.8 485.9 -17.8 489.3 -17.4 490.2" fill="#fefffd" fill-rule="evenodd" stroke="none"/>
    <path d="M0.8 277.4 Q5.75 277.4 7.75 274.5 9.45 272.1 9.85 266.45 L11.2 270.6 Q12.15 274.25 12.15 277.4 12.15 283.5 8.7 289.75 6.5 293.65 4.2 295.1 L2.35 295.8 Q3.7 295.95 4.95 296.6 7.8 298.0 10.15 301.9 12.25 305.3 13.15 308.85 13.85 311.55 13.85 314.4 13.85 316.7 12.8 320.35 11.55 324.65 9.95 325.65 L9.85 325.75 9.6 325.75 Q8.95 328.5 7.95 330.95 4.4 339.8 -1.3 339.8 -4.75 339.8 -6.95 337.15 L-7.25 336.6 Q-6.2 334.55 -6.2 332.55 -6.2 329.2 -8.1 326.55 -9.85 324.05 -12.25 323.45 -14.75 322.85 -16.4 324.9 -18.25 327.25 -18.25 332.45 L-18.4 333.45 Q-18.5 334.8 -18.15 336.05 -17.1 339.85 -12.5 339.85 -10.4 339.85 -8.9 338.6 -7.4 342.7 -7.4 347.7 -7.4 361.35 -14.7 371.5 -17.75 375.7 -21.45 378.35 L-21.65 377.9 Q-23.85 378.3 -26.9 376.15 -29.3 374.4 -31.5 371.6 L-32.65 373.85 -32.85 374.15 -33.0 375.25 Q-33.85 375.5 -34.55 376.2 -36.45 378.15 -36.65 382.7 -39.5 386.1 -43.6 386.1 -51.45 386.1 -54.35 377.6 L-54.9 375.6 -55.5 371.85 -55.6 369.5 Q-55.6 363.9 -54.95 362.45 -54.3 361.0 -52.95 360.45 -52.1 359.5 -50.75 358.7 -47.3 356.8 -42.55 357.1 L-41.35 357.25 Q-39.15 358.9 -35.65 358.9 -31.45 358.9 -28.45 354.05 -26.05 350.05 -26.05 346.8 -26.05 342.7 -27.45 340.9 -29.9 337.65 -36.9 338.05 L-38.9 338.1 -38.7 336.45 Q-37.85 335.5 -37.15 334.15 -36.3 332.55 -35.95 331.05 L-35.0 331.1 -35.0 331.2 -34.65 331.15 -34.95 331.1 -35.0 330.7 Q-35.0 329.0 -33.7 323.7 L-33.3 322.2 Q-27.95 314.95 -17.8 314.1 L-17.2 314.75 -17.2 314.05 -17.8 314.1 -21.65 309.45 -21.5 309.25 Q-22.2 305.8 -22.2 301.5 L-20.7 300.45 -19.45 300.45 Q-16.1 300.45 -13.2 296.9 -10.6 293.75 -10.6 291.05 -10.6 288.65 -11.95 286.7 -13.25 284.8 -15.6 284.05 -12.3 281.7 -9.0 281.5 -13.5 279.3 -16.0 276.6 -20.55 271.75 -20.55 262.15 -20.55 255.0 -18.25 248.95 -15.75 242.15 -11.95 242.15 L-10.7 242.2 -10.5 242.3 -10.6 242.7 Q-12.45 244.15 -13.0 247.7 -13.3 249.5 -13.3 253.6 -13.3 263.65 -8.95 270.6 -4.75 277.4 0.8 277.4 M6.0 310.35 L5.85 310.85 6.3 310.5 6.0 310.35 M10.05 326.3 Q13.4 324.95 15.2 324.95 18.05 324.95 19.7 327.2 L19.5 328.25 Q19.0 330.9 18.85 333.2 15.2 331.2 12.15 328.35 L10.05 326.3 M19.0 440.7 Q16.55 440.15 14.95 438.7 12.15 436.2 12.15 431.3 12.15 430.2 12.75 428.7 L12.75 428.05 Q12.75 422.3 14.8 419.9 16.6 417.8 19.35 418.8 L19.9 419.0 Q21.65 418.0 23.55 418.0 28.05 418.0 30.15 421.8 26.85 422.0 24.6 424.3 21.65 427.35 21.65 433.5 21.65 437.15 22.75 440.15 L23.2 441.15 23.0 441.15 19.15 440.75 19.0 440.7 M-42.65 395.65 L-41.5 394.3 Q-39.2 392.35 -36.15 392.35 -32.85 392.45 -30.75 394.9 -28.35 397.65 -28.35 402.75 -28.35 405.45 -29.55 407.8 -30.9 410.25 -33.15 411.25 L-36.7 411.9 Q-40.25 411.9 -42.4 406.0 -43.9 401.95 -43.9 399.75 -43.9 397.4 -42.65 395.65 M-60.9 464.4 L-64.25 464.85 Q-73.5 464.85 -76.9 457.65 -77.95 455.35 -78.3 452.55 L-78.45 450.1 Q-78.45 441.15 -74.1 436.5 -71.1 433.3 -66.95 432.9 L-64.7 432.85 Q-66.15 435.25 -66.15 438.6 L-66.2 440.25 Q-66.15 442.0 -65.6 443.4 -63.9 447.85 -58.1 447.85 -54.55 447.85 -52.1 444.35 L-51.45 443.3 Q-50.6 445.8 -50.6 448.65 -50.6 452.7 -53.25 457.65 -56.15 463.05 -60.9 464.4" fill="#2c2c23" fill-rule="evenodd" stroke="none"/>
    <path d="M-27.35 453.0 L-27.4 452.4 Q-23.05 451.1 -21.4 449.6 -17.9 446.45 -17.9 438.75 -17.9 435.3 -19.2 424.45 -20.4 414.9 -20.95 412.7 L-20.8 412.7 Q-19.45 417.35 -17.55 421.5 -14.9 427.55 -11.75 431.4 -14.15 410.5 -7.55 383.9 -4.45 371.65 -0.25 362.45 3.9 353.55 8.3 349.3 4.15 356.5 1.6 365.2 -0.8 373.85 -0.8 380.7 -0.8 385.2 0.25 388.65 0.8 390.55 2.6 394.1 5.15 399.2 5.8 404.95 L5.3 405.05 Q3.35 401.8 2.55 398.05 L1.9 399.15 Q0.55 401.85 0.55 408.8 0.55 414.3 1.6 417.25 2.65 420.1 4.75 421.3 3.4 428.4 0.75 436.85 L-3.9 450.8 Q-6.65 459.2 -8.1 465.15 L-6.85 465.15 -3.9 464.5 Q-2.2 463.9 -1.35 463.25 L0.75 463.25 Q2.3 468.35 4.05 470.05 5.65 471.6 9.1 471.6 L13.0 471.4 Q12.8 476.0 9.5 479.55 5.45 483.8 -0.35 483.8 -5.8 483.8 -7.65 478.35 -9.0 474.5 -8.4 468.95 -11.45 473.8 -14.3 475.45 -17.25 477.1 -23.1 477.1 -29.2 477.1 -34.55 473.05 L-35.5 472.25 Q-35.25 465.6 -33.15 461.2 -30.9 456.55 -25.55 452.65 -26.4 452.65 -27.35 453.0 M13.3 471.4 L13.35 471.3 Q14.65 470.7 16.4 467.2 15.95 474.7 19.35 479.5 23.2 484.95 30.8 484.95 34.3 484.95 37.6 482.35 41.55 479.25 44.05 478.55 L44.05 483.0 Q40.35 491.95 32.75 496.45 25.35 500.85 14.85 500.85 11.45 500.85 8.1 496.75 L5.9 493.65 7.55 491.0 Q10.45 485.75 13.3 473.6 L13.3 471.4 M-3.95 499.5 Q-5.85 503.5 -9.0 507.65 -16.05 516.8 -22.95 516.8 -28.1 516.8 -33.0 507.8 L-33.0 507.75 Q-35.05 504.05 -35.95 500.4 L-36.5 496.75 -31.15 497.4 Q-25.8 497.4 -20.65 493.3 -18.85 491.85 -17.4 490.2 -15.0 495.95 -12.65 497.75 -10.3 499.5 -5.05 499.5 L-3.95 499.5 M-37.35 496.5 Q-38.95 500.5 -43.35 504.6 -48.8 509.75 -52.95 509.75 -56.0 509.75 -57.15 507.9 -58.1 506.2 -58.1 501.75 -58.1 496.3 -56.85 493.5 -55.8 491.25 -52.15 487.1 L-54.65 488.2 Q-57.2 489.4 -59.95 489.4 -66.7 489.4 -72.85 481.7 -78.25 475.0 -79.0 469.0 L-79.0 460.1 -77.95 460.1 -76.7 463.4 Q-75.15 466.95 -73.2 469.95 -67.1 479.2 -59.45 479.2 -57.2 479.2 -52.25 475.8 -51.8 486.0 -45.05 492.0 -41.55 495.2 -37.35 496.5 M-51.35 486.85 L-51.35 486.2 -52.15 487.1 -51.35 486.85" fill="#ffffff" fill-rule="evenodd" stroke="none"/>
    <path d="M24.1 340.5 L25.1 342.8 25.6 343.45 24.95 344.5 Q22.7 348.65 22.7 353.45 L22.7 354.4 Q22.8 355.45 23.15 356.3 L23.7 357.2 Q22.65 361.25 21.8 365.6 L21.8 365.75 Q21.05 369.75 20.45 374.05 L19.6 377.95 Q17.25 375.5 14.1 375.4 10.35 375.25 7.8 378.6 4.95 382.35 4.95 389.0 4.95 391.9 6.15 394.55 8.4 399.4 13.7 399.65 L12.75 401.95 10.85 408.1 Q10.6 408.65 10.45 409.85 7.9 408.75 5.85 405.85 L5.3 405.05 5.8 404.95 Q5.15 399.2 2.6 394.1 0.8 390.55 0.25 388.65 -0.8 385.2 -0.8 380.7 -0.8 373.85 1.6 365.2 4.15 356.5 8.3 349.3 3.9 353.55 -0.25 362.45 -4.45 371.65 -7.55 383.9 -14.15 410.5 -11.75 431.4 -14.9 427.55 -17.55 421.5 -19.45 417.35 -20.8 412.7 L-20.95 412.7 Q-20.4 414.9 -19.2 424.45 -17.9 435.3 -17.9 438.75 -17.9 446.45 -21.4 449.6 -23.05 451.1 -27.4 452.4 L-27.35 453.0 Q-30.3 453.9 -34.95 457.75 L-40.15 461.9 -41.4 462.85 Q-44.15 462.85 -45.05 460.75 -45.6 459.5 -45.6 456.7 -48.2 459.0 -49.85 462.6 -52.25 467.75 -52.25 474.3 L-52.25 475.8 Q-57.2 479.2 -59.45 479.2 -67.1 479.2 -73.2 469.95 -75.15 466.95 -76.7 463.4 L-77.95 460.1 -79.0 460.1 -79.0 469.0 Q-78.25 475.0 -72.85 481.7 -66.7 489.4 -59.95 489.4 -57.2 489.4 -54.65 488.2 L-52.15 487.1 Q-55.8 491.25 -56.85 493.5 -58.1 496.3 -58.1 501.75 -58.1 506.2 -57.15 507.9 -56.0 509.75 -52.95 509.75 -48.8 509.75 -43.35 504.6 -38.95 500.5 -37.35 496.5 L-36.5 496.75 -35.95 500.4 Q-35.05 504.05 -33.0 507.75 L-33.0 507.8 Q-28.1 516.8 -22.95 516.8 -16.05 516.8 -9.0 507.65 -5.85 503.5 -3.95 499.5 1.9 499.0 5.9 493.65 L8.1 496.75 Q11.45 500.85 14.85 500.85 25.35 500.85 32.75 496.45 40.35 491.95 44.05 483.0 L44.05 478.55 Q41.55 479.25 37.6 482.35 34.3 484.95 30.8 484.95 23.2 484.95 19.35 479.5 15.95 474.7 16.4 467.2 14.65 470.7 13.35 471.3 L13.3 471.4 13.0 471.4 9.1 471.6 Q5.65 471.6 4.05 470.05 2.3 468.35 0.75 463.25 L-1.35 463.25 Q-2.2 463.9 -3.9 464.5 L-6.85 465.15 -8.1 465.15 Q-6.65 459.2 -3.9 450.8 L0.75 436.85 Q3.4 428.4 4.75 421.3 6.15 422.05 8.0 422.05 L9.9 421.75 Q9.25 432.15 7.1 439.05 L1.25 452.65 1.25 452.7 1.45 452.8 Q4.65 455.5 13.2 455.5 L15.4 455.4 Q17.3 444.8 19.0 440.7 L19.15 440.75 19.15 445.2 19.3 454.55 Q23.2 453.2 26.15 450.05 24.95 452.1 24.95 454.05 24.95 461.75 28.25 468.35 31.6 475.3 35.9 475.3 42.35 475.3 49.1 465.55 L50.5 463.45 50.95 462.7 54.05 457.65 Q56.45 453.7 57.85 452.05 L58.2 452.55 59.3 462.5 59.85 469.85 Q59.85 474.45 59.3 478.5 56.85 480.75 54.7 480.75 53.1 480.75 52.05 479.7 L49.4 476.15 Q48.95 486.35 42.0 495.0 33.6 505.45 20.45 505.45 L11.85 504.2 6.15 502.75 6.15 501.2 4.6 507.25 2.6 513.65 Q0.1 517.35 -3.8 520.45 -10.4 525.7 -17.35 526.6 L-17.95 526.7 -18.0 526.35 Q-22.0 524.6 -25.3 521.45 -31.15 515.95 -32.85 508.3 L-33.0 508.35 Q-33.0 516.75 -30.45 525.05 -33.15 524.0 -35.35 522.3 -41.75 517.45 -43.75 507.95 -45.7 513.4 -48.9 514.5 L-56.3 514.9 Q-58.1 514.9 -61.65 513.75 -66.0 512.3 -69.7 510.0 -80.25 503.45 -80.25 493.65 L-79.0 487.75 Q-77.85 482.75 -77.85 482.25 -81.25 484.55 -86.0 483.35 -90.45 482.25 -94.75 478.35 -99.1 474.35 -101.7 468.85 -104.6 462.8 -104.6 456.5 -104.6 453.65 -102.75 448.95 -100.95 444.35 -98.1 439.85 -91.25 428.9 -85.9 428.9 L-83.45 429.05 Q-82.4 429.25 -81.9 429.9 L-83.6 424.6 Q-85.15 419.65 -85.15 416.5 -85.15 408.45 -80.0 401.8 -77.6 398.65 -74.9 396.75 -76.2 404.2 -76.2 409.1 -76.2 413.35 -75.55 417.1 -74.7 421.85 -72.75 425.95 -70.25 431.1 -66.95 432.9 -71.1 433.3 -74.1 436.5 -78.45 441.15 -78.45 450.1 L-78.3 452.55 Q-77.95 455.35 -76.9 457.65 -73.5 464.85 -64.25 464.85 L-60.9 464.4 -60.4 464.4 Q-55.65 464.4 -44.0 446.85 -39.25 439.65 -35.8 433.0 -32.75 427.2 -31.95 424.1 -33.5 432.5 -28.15 440.4 L-27.45 441.45 Q-27.85 434.15 -29.15 429.5 -32.0 415.55 -33.15 411.25 -30.9 410.25 -29.55 407.8 -28.35 405.45 -28.35 402.75 -28.35 397.65 -30.75 394.9 -32.85 392.45 -36.15 392.35 -39.2 392.35 -41.5 394.3 L-42.65 395.65 Q-44.0 395.0 -45.45 395.0 -48.65 395.0 -48.65 402.4 L-48.4 405.1 -48.4 405.5 Q-48.4 409.8 -47.85 412.9 L-48.9 413.35 Q-51.05 413.35 -51.85 409.4 L-54.8 405.5 Q-53.4 402.9 -53.4 399.95 -53.4 395.3 -56.15 392.65 -58.7 390.2 -62.25 390.3 L-63.75 390.45 Q-69.7 379.5 -74.2 369.5 -71.1 372.5 -66.75 372.5 -64.15 372.5 -62.55 370.85 -62.05 371.1 -61.65 371.45 -58.35 373.7 -54.9 375.6 L-54.35 377.6 Q-51.45 386.1 -43.6 386.1 -39.5 386.1 -36.65 382.7 L-36.7 383.85 -36.8 385.15 Q-36.8 386.5 -36.45 387.5 -35.25 390.8 -30.85 390.8 -26.8 390.8 -24.55 388.1 -22.75 386.0 -22.75 383.45 -22.75 381.65 -23.85 379.8 L-21.45 378.35 Q-17.75 375.7 -14.7 371.5 -7.4 361.35 -7.4 347.7 -7.4 342.7 -8.9 338.6 L-7.4 336.75 -7.25 336.6 -6.95 337.15 Q-4.75 339.8 -1.3 339.8 4.4 339.8 7.95 330.95 8.95 328.5 9.6 325.75 L9.7 325.9 9.95 326.15 10.05 326.3 12.15 328.35 Q15.2 331.2 18.85 333.2 L18.85 334.6 18.85 335.65 Q19.0 336.75 19.4 337.65 20.7 340.15 24.1 340.5" fill="#fdee00" fill-rule="evenodd" stroke="none"/>
    <path d="M59.3 478.5 L61.3 476.3 Q64.35 472.65 65.0 470.15 62.45 488.1 53.7 500.95 42.05 517.95 23.3 517.95 17.8 517.95 11.9 514.1 8.4 511.9 6.15 509.3 6.05 519.85 2.6 527.9 -3.0 541.05 -15.85 541.05 -24.6 541.05 -29.45 527.95 L-30.45 525.05 Q-33.0 516.75 -33.0 508.35 L-32.85 508.3 Q-31.15 515.95 -25.3 521.45 -22.0 524.6 -18.0 526.35 L-17.95 526.7 -17.35 526.6 Q-10.4 525.7 -3.8 520.45 0.1 517.35 2.6 513.65 L4.6 507.25 6.15 501.2 6.15 502.75 11.85 504.2 20.45 505.45 Q33.6 505.45 42.0 495.0 48.95 486.35 49.4 476.15 L52.05 479.7 Q53.1 480.75 54.7 480.75 56.85 480.75 59.3 478.5 M6.15 505.7 L6.3 505.05 6.15 505.05 6.15 505.7 M-47.3 523.65 Q-49.1 529.85 -52.4 533.6 -56.45 538.25 -61.85 538.25 -73.7 538.25 -81.9 526.1 -89.2 515.35 -89.5 502.55 L-92.4 504.8 Q-94.55 506.2 -96.35 506.2 -102.05 506.2 -105.95 497.0 -108.05 491.95 -109.0 485.9 -107.8 488.2 -106.2 490.3 -100.25 498.25 -94.0 498.25 -91.95 498.25 -89.2 496.8 -85.55 494.85 -84.8 494.6 -83.85 510.65 -78.75 520.1 -72.95 530.9 -62.75 530.9 -59.1 530.9 -53.6 527.4 L-47.55 523.1 -47.3 523.65" fill="#f96206" fill-rule="evenodd" stroke="none"/>
  </g>
</svg>
