<?xml version="1.0" encoding="UTF-8" standalone="no"?>
<svg xmlns:ffdec="https://www.free-decompiler.com/flash" xmlns:xlink="http://www.w3.org/1999/xlink" ffdec:objectType="shape" height="56.6px" width="63.45px" xmlns="http://www.w3.org/2000/svg">
  <g transform="matrix(1.0, 0.0, 0.0, 1.0, 31.0, 33.05)">
    <path d="M-25.35 -4.3 Q-28.1 -5.25 -30.2 -6.15 L-30.5 -6.3 Q-30.6 -9.7 -31.0 -11.55 -26.25 -17.15 -21.1 -25.0 -16.9 -25.75 -13.8 -27.8 -10.65 -29.85 -9.8 -32.1 L-3.15 -33.0 -1.5 -33.05 4.95 -32.6 6.6 -32.35 11.75 -31.25 13.2 -30.85 14.25 -30.55 18.4 -28.95 19.5 -25.05 Q20.8 -20.8 27.15 -18.25 L30.5 -17.15 30.95 -15.95 31.5 -14.25 31.95 -12.65 32.3 -10.95 32.45 -10.0 29.35 -8.55 28.95 -8.3 28.45 -10.1 27.3 -13.65 Q26.85 -15.0 25.55 -15.7 L25.35 -16.2 23.8 -16.35 22.4 -16.55 19.75 -16.9 19.15 -16.45 Q17.4 -16.1 17.15 -15.05 L16.3 -14.45 15.65 -11.1 15.1 -7.1 15.0 -5.55 Q15.0 -4.25 15.15 -3.3 L13.9 -3.0 13.95 -3.8 13.8 -4.25 13.1 -4.95 12.9 -4.7 12.6 -2.65 10.2 -2.1 11.1 -4.6 11.1 -4.95 11.05 -6.9 10.2 -9.4 Q9.25 -11.25 7.0 -11.45 5.4 -11.6 5.0 -11.0 L3.5 -11.05 -0.6 -10.7 Q-4.85 -10.05 -9.95 -8.0 L-12.9 -6.65 -12.9 -6.2 -14.85 -3.4 -16.0 -1.55 -16.15 -1.6 -16.2 -1.6 -17.15 -1.85 -18.3 -2.15 -19.0 -2.35 Q-18.35 -4.45 -18.35 -5.1 -18.35 -6.4 -8.3 -10.2 2.1 -14.1 2.25 -14.35 -6.15 -17.3 -9.0 -17.5 L-9.95 -19.05 -11.45 -21.75 Q-11.45 -22.8 -9.6 -28.0 -9.6 -28.75 -9.75 -28.55 L-10.85 -28.7 Q-11.9 -28.7 -13.45 -27.3 -14.85 -26.0 -15.9 -24.15 L-12.35 -19.3 -10.45 -16.7 -9.8 -15.3 -8.7 -13.6 Q-13.95 -9.75 -22.1 -5.85 -23.8 -5.0 -25.35 -4.3 M13.3 -28.2 Q12.7 -28.85 12.15 -28.6 L11.25 -29.05 Q8.7 -30.0 -0.7 -30.75 L-6.25 -29.7 Q-6.65 -29.05 -7.7 -28.35 L-7.7 -28.3 -8.0 -28.1 Q-10.0 -26.35 -10.0 -22.55 L-9.65 -21.5 Q-8.6 -19.8 -3.95 -18.1 -1.0 -17.0 1.4 -16.45 L5.0 -16.05 5.1 -16.05 5.25 -15.9 7.2 -15.9 11.7 -20.3 Q14.25 -23.2 14.25 -25.45 14.25 -27.1 13.3 -28.2 M15.75 -16.4 L16.4 -17.35 Q20.15 -18.7 20.85 -19.65 18.55 -20.4 18.4 -22.7 18.2 -25.3 17.25 -25.95 12.5 -18.75 9.5 -15.2 L9.6 -14.7 Q9.95 -14.35 10.8 -14.35 L10.8 -14.15 Q11.15 -13.65 11.25 -12.05 11.55 -10.7 12.95 -10.7 13.55 -10.7 13.75 -10.95 L13.95 -11.2 Q13.95 -13.75 15.75 -16.4 M-28.3 -7.05 L-27.65 -6.45 -25.1 -6.45 Q-20.8 -7.85 -17.05 -9.5 -11.15 -12.05 -11.15 -13.4 -11.15 -14.75 -14.6 -19.25 -17.6 -23.15 -18.0 -21.15 -21.4 -20.25 -25.1 -15.85 -29.1 -11.2 -29.1 -8.4 -29.1 -7.85 -28.3 -7.05 M-4.0 23.35 L-3.85 23.45 -4.0 23.55 -4.0 23.35" fill="#4d3415" fill-rule="evenodd" stroke="none"/>
    <path d="M27.5 -7.65 L26.5 -7.2 Q26.2 -10.2 23.5 -11.2 20.5 -12.3 20.5 -7.2 L20.6 -4.75 20.2 -4.65 18.55 -4.15 18.5 -7.8 Q18.5 -11.2 19.9 -13.25 21.2 -15.1 23.0 -15.0 L23.1 -14.95 23.2 -14.95 Q24.45 -14.85 25.45 -13.75 L26.1 -12.85 Q27.3 -10.85 27.5 -7.65 M7.5 -25.8 L7.45 -27.1 6.35 -27.6 0.0 -27.6 Q-3.95 -26.5 -5.5 -25.3 -5.5 -24.65 -4.8 -23.85 -4.05 -22.9 -3.0 -22.55 L5.0 -22.55 Q6.4 -23.0 6.8 -23.4 7.5 -24.1 7.5 -25.8 M9.55 -28.05 Q10.5 -27.2 10.5 -26.25 7.35 -18.65 4.65 -18.65 L2.7 -18.65 2.4 -18.65 2.35 -18.7 Q-2.95 -18.95 -4.7 -20.55 L-5.0 -20.55 Q-6.3 -21.0 -6.8 -21.55 -7.5 -22.35 -7.5 -24.05 -7.5 -26.05 -4.85 -27.7 L-3.7 -28.3 -3.7 -28.35 Q-3.7 -28.85 -2.25 -29.4 L6.5 -29.4 Q8.45 -29.0 9.55 -28.05 M4.35 -0.8 L4.5 -2.2 Q4.5 -6.55 1.05 -7.25 -1.9 -7.85 -6.5 -5.75 L-11.35 -2.9 -11.75 -1.35 -12.0 -0.6 -14.3 -1.15 -13.5 -3.1 -12.7 -4.95 Q-7.15 -8.5 5.0 -8.55 L7.5 -5.55 Q8.5 -4.05 8.5 -3.55 8.5 -2.75 7.75 -1.55 L6.25 -1.2 4.35 -0.8 M21.85 13.55 L21.45 13.7 21.5 13.7 21.85 13.55 M-15.9 -11.7 L-16.5 -12.5 Q-16.5 -13.0 -16.1 -13.2 L-15.5 -13.45 -15.5 -13.85 -16.15 -15.0 -16.35 -15.1 Q-19.5 -15.45 -20.85 -15.15 -21.35 -14.35 -21.8 -14.35 L-21.9 -14.35 -22.3 -14.0 -22.5 -12.7 -22.3 -11.15 -21.8 -10.35 -20.45 -9.7 Q-20.85 -9.55 -21.0 -9.55 L-22.15 -9.55 -23.0 -8.95 Q-24.0 -8.4 -24.5 -8.4 -25.95 -8.4 -26.25 -9.2 L-26.25 -10.05 Q-26.25 -13.0 -22.75 -15.85 L-22.7 -15.85 Q-22.45 -16.85 -21.3 -17.55 -19.95 -18.4 -18.05 -18.3 -13.35 -18.05 -13.35 -13.5 -13.35 -12.05 -15.75 -11.55 L-15.9 -11.7" fill="#ff9a00" fill-rule="evenodd" stroke="none"/>
    <path d="M26.5 -7.2 L24.95 -6.5 23.1 -5.75 21.6 -5.15 20.6 -4.75 20.5 -7.2 Q20.5 -12.3 23.5 -11.2 26.2 -10.2 26.5 -7.2 M7.5 -25.8 Q7.5 -24.1 6.8 -23.4 6.4 -23.0 5.0 -22.55 L-3.0 -22.55 Q-4.05 -22.9 -4.8 -23.85 -5.5 -24.65 -5.5 -25.3 -3.95 -26.5 0.0 -27.6 L6.35 -27.6 7.45 -27.1 7.5 -25.8 M4.35 -0.8 L3.8 -0.7 0.45 -0.1 -4.35 0.3 -5.35 0.3 -10.4 -0.3 -12.0 -0.6 -11.75 -1.35 -11.35 -2.9 -6.5 -5.75 Q-1.9 -7.85 1.05 -7.25 4.5 -6.55 4.5 -2.2 L4.35 -0.8 M21.45 13.7 Q19.25 14.75 17.55 15.55 L17.85 14.8 21.5 13.7 21.45 13.7 M-20.45 -9.7 L-21.8 -10.35 -22.3 -11.15 -22.5 -12.7 -22.3 -14.0 -21.9 -14.35 -21.8 -14.35 Q-21.35 -14.35 -20.85 -15.15 -19.5 -15.45 -16.35 -15.1 L-16.15 -15.0 -15.5 -13.85 -15.5 -13.45 -16.1 -13.2 Q-16.5 -13.0 -16.5 -12.5 L-15.9 -11.7 -16.0 -11.6 -17.5 -10.9 -20.4 -9.65 -20.45 -9.7" fill="#ffd200" fill-rule="evenodd" stroke="none"/>
    <path d="M-16.0 -1.55 L-14.85 -3.4 -12.9 -6.2 -12.9 -6.65 -9.95 -8.0 Q-4.85 -10.05 -0.6 -10.7 L3.5 -11.05 5.0 -11.0 Q5.4 -11.6 7.0 -11.45 9.25 -11.25 10.2 -9.4 L11.05 -6.9 11.1 -4.95 11.1 -4.6 10.2 -2.1 8.55 -1.7 7.75 -1.55 Q8.5 -2.75 8.5 -3.55 8.5 -4.05 7.5 -5.55 L5.0 -8.55 Q-7.15 -8.5 -12.7 -4.95 L-13.5 -3.1 -14.3 -1.15 -16.0 -1.55 M15.15 -3.3 Q15.0 -4.25 15.0 -5.55 L15.1 -7.1 15.65 -11.1 16.3 -14.45 17.15 -15.05 Q17.4 -16.1 19.15 -16.45 L19.75 -16.9 22.4 -16.55 23.8 -16.35 25.35 -16.2 25.55 -15.7 Q26.85 -15.0 27.3 -13.65 L28.45 -10.1 28.95 -8.3 28.9 -8.3 27.5 -7.65 Q27.3 -10.85 26.1 -12.85 L25.45 -13.75 Q24.45 -14.85 23.2 -14.95 L23.1 -14.95 23.0 -15.0 Q21.2 -15.1 19.9 -13.25 18.5 -11.2 18.5 -7.8 L18.55 -4.15 18.15 -4.05 15.15 -3.3 M9.55 -28.05 Q8.45 -29.0 6.5 -29.4 L-2.25 -29.4 Q-3.7 -28.85 -3.7 -28.35 L-3.7 -28.3 -4.85 -27.7 Q-7.5 -26.05 -7.5 -24.05 -7.5 -22.35 -6.8 -21.55 -6.3 -21.0 -5.0 -20.55 L-4.7 -20.55 Q-2.95 -18.95 2.35 -18.7 L2.4 -18.65 2.7 -18.65 4.65 -18.65 Q7.35 -18.65 10.5 -26.25 10.5 -27.2 9.55 -28.05 M13.3 -28.2 Q14.25 -27.1 14.25 -25.45 14.25 -23.2 11.7 -20.3 L7.2 -15.9 5.25 -15.9 5.1 -16.05 5.0 -16.05 1.4 -16.45 Q-1.0 -17.0 -3.95 -18.1 -8.6 -19.8 -9.65 -21.5 L-10.0 -22.55 Q-10.0 -26.35 -8.0 -28.1 L-7.7 -28.3 -7.7 -28.35 Q-6.65 -29.05 -6.25 -29.7 L-0.7 -30.75 Q8.7 -30.0 11.25 -29.05 L12.15 -28.6 Q12.7 -28.85 13.3 -28.2 M21.85 13.55 L22.05 13.5 21.85 13.55 M-15.9 -11.7 L-15.75 -11.55 Q-13.35 -12.05 -13.35 -13.5 -13.35 -18.05 -18.05 -18.3 -19.95 -18.4 -21.3 -17.55 -22.45 -16.85 -22.7 -15.85 L-22.75 -15.85 Q-26.25 -13.0 -26.25 -10.05 L-26.25 -9.2 Q-25.95 -8.4 -24.5 -8.4 -24.0 -8.4 -23.0 -8.95 L-22.15 -9.55 -21.0 -9.55 Q-20.85 -9.55 -20.45 -9.7 L-20.4 -9.65 -17.5 -10.9 -16.0 -11.6 -15.9 -11.7 M-28.3 -7.05 Q-29.1 -7.85 -29.1 -8.4 -29.1 -11.2 -25.1 -15.85 -21.4 -20.25 -18.0 -21.15 -17.6 -23.15 -14.6 -19.25 -11.15 -14.75 -11.15 -13.4 -11.15 -12.05 -17.05 -9.5 -20.8 -7.85 -25.1 -6.45 L-27.65 -6.45 -28.3 -7.05" fill="#ff3800" fill-rule="evenodd" stroke="none"/>
    <path d="M-25.35 -4.3 Q-23.8 -5.0 -22.1 -5.85 -13.95 -9.75 -8.7 -13.6 L-9.8 -15.3 -10.45 -16.7 -12.35 -19.3 -15.9 -24.15 Q-14.85 -26.0 -13.45 -27.3 -11.9 -28.7 -10.85 -28.7 L-9.75 -28.55 Q-9.6 -28.75 -9.6 -28.0 -11.45 -22.8 -11.45 -21.75 L-9.95 -19.05 -9.0 -17.5 Q-6.15 -17.3 2.25 -14.35 2.1 -14.1 -8.3 -10.2 -18.35 -6.4 -18.35 -5.1 -18.35 -4.45 -19.0 -2.35 L-22.15 -3.3 -23.15 -3.6 -24.7 -4.1 -25.35 -4.3 M12.6 -2.65 L12.9 -4.7 13.1 -4.95 13.8 -4.25 13.95 -3.8 13.9 -3.0 12.8 -2.7 12.6 -2.65 M15.75 -16.4 Q13.95 -13.75 13.95 -11.2 L13.75 -10.95 Q13.55 -10.7 12.95 -10.7 11.55 -10.7 11.25 -12.05 11.15 -13.65 10.8 -14.15 L10.8 -14.35 Q9.95 -14.35 9.6 -14.7 L9.5 -15.2 Q12.5 -18.75 17.25 -25.95 18.2 -25.3 18.4 -22.7 18.55 -20.4 20.85 -19.65 20.15 -18.7 16.4 -17.35 L15.75 -16.4" fill="#663d09" fill-rule="evenodd" stroke="none"/>
  </g>
</svg>
