<?xml version="1.0" encoding="UTF-8" standalone="no"?>
<svg xmlns:ffdec="https://www.free-decompiler.com/flash" xmlns:xlink="http://www.w3.org/1999/xlink" ffdec:objectType="shape" height="23.65px" width="56.55px" xmlns="http://www.w3.org/2000/svg">
  <g transform="matrix(1.0, 0.0, 0.0, 1.0, 28.15, 23.35)">
    <path d="M14.25 -15.75 Q14.25 -17.4 13.3 -18.5 12.7 -19.15 12.15 -18.9 L11.25 -19.35 Q8.7 -20.3 -0.7 -21.05 L-6.25 -20.0 Q-6.65 -19.35 -7.7 -18.65 L-7.7 -18.6 -8.0 -18.4 Q-10.0 -16.65 -10.0 -12.85 L-9.65 -11.8 Q-8.6 -10.1 -3.95 -8.4 -1.0 -7.3 1.4 -6.75 L5.0 -6.35 5.1 -6.35 5.25 -6.2 7.2 -6.2 11.7 -10.6 Q14.25 -13.5 14.25 -15.75 M-26.3 -4.65 L-28.15 -5.3 Q-24.75 -9.75 -21.1 -15.3 -16.9 -16.05 -13.8 -18.1 -10.65 -20.15 -9.8 -22.4 L-3.15 -23.3 -1.5 -23.35 4.95 -22.9 6.6 -22.65 11.75 -21.55 13.2 -21.15 14.25 -20.85 18.4 -19.25 19.5 -15.35 Q20.8 -11.1 27.15 -8.55 L28.4 -8.1 24.95 -6.5 23.8 -6.65 22.4 -6.85 19.75 -7.2 19.15 -6.75 Q17.4 -6.4 17.15 -5.35 L16.3 -4.75 16.05 -3.5 14.15 -3.05 Q14.5 -4.85 15.75 -6.7 L16.4 -7.65 Q20.15 -9.0 20.85 -9.95 18.55 -10.7 18.4 -13.0 18.2 -15.6 17.25 -16.25 12.5 -9.05 9.5 -5.5 L9.6 -5.0 Q9.95 -4.65 10.8 -4.65 L10.8 -4.45 Q11.15 -3.95 11.25 -2.35 L8.55 -1.7 7.95 -1.55 7.0 -1.75 Q5.4 -1.9 5.0 -1.3 L3.5 -1.35 -0.6 -1.0 -5.85 0.25 -9.25 -0.1 -8.3 -0.5 Q2.1 -4.4 2.25 -4.65 -6.15 -7.6 -9.0 -7.8 L-9.95 -9.35 -11.45 -12.05 Q-11.45 -13.1 -9.6 -18.3 -9.6 -19.05 -9.75 -18.85 L-10.85 -19.0 Q-11.9 -19.0 -13.45 -17.6 -14.85 -16.3 -15.9 -14.45 L-12.35 -9.6 -10.45 -7.0 -9.8 -5.6 -8.7 -3.9 -13.2 -0.9 -14.2 -1.1 Q-11.15 -2.75 -11.15 -3.7 -11.15 -5.05 -14.6 -9.55 -17.6 -13.45 -18.0 -11.45 -21.4 -10.55 -25.1 -6.15 L-26.3 -4.65" fill="#4d3415" fill-rule="evenodd" stroke="none"/>
    <path d="M14.25 -15.75 Q14.25 -13.5 11.7 -10.6 L7.2 -6.2 5.25 -6.2 5.1 -6.35 5.0 -6.35 1.4 -6.75 Q-1.0 -7.3 -3.95 -8.4 -8.6 -10.1 -9.65 -11.8 L-10.0 -12.85 Q-10.0 -16.65 -8.0 -18.4 L-7.7 -18.6 -7.7 -18.65 Q-6.65 -19.35 -6.25 -20.0 L-0.7 -21.05 Q8.7 -20.3 11.25 -19.35 L12.15 -18.9 Q12.7 -19.15 13.3 -18.5 14.25 -17.4 14.25 -15.75 M-26.3 -4.65 L-25.1 -6.15 Q-21.4 -10.55 -18.0 -11.45 -17.6 -13.45 -14.6 -9.55 -11.15 -5.05 -11.15 -3.7 -11.15 -2.75 -14.2 -1.1 L-16.15 -1.6 -16.2 -1.6 -16.45 -1.65 -16.0 -1.9 -15.9 -2.0 -15.75 -1.85 Q-13.35 -2.35 -13.35 -3.8 -13.35 -8.35 -18.05 -8.6 -19.95 -8.7 -21.3 -7.85 -22.45 -7.15 -22.7 -6.15 L-22.75 -6.15 -24.75 -4.1 -26.3 -4.65 M-5.85 0.25 L-0.6 -1.0 3.5 -1.35 5.0 -1.3 Q5.4 -1.9 7.0 -1.75 L7.95 -1.55 6.25 -1.2 3.8 -0.7 0.45 -0.1 -4.35 0.3 -5.35 0.3 -5.85 0.25 M16.05 -3.5 L16.3 -4.75 17.15 -5.35 Q17.4 -6.4 19.15 -6.75 L19.75 -7.2 22.4 -6.85 23.8 -6.65 24.95 -6.5 23.1 -5.75 21.6 -5.15 20.2 -4.65 18.15 -4.05 16.05 -3.5 M9.55 -18.35 Q8.45 -19.3 6.5 -19.7 L-2.25 -19.7 Q-3.7 -19.15 -3.7 -18.65 L-3.7 -18.6 -4.85 -18.0 Q-7.5 -16.35 -7.5 -14.35 -7.5 -12.65 -6.8 -11.85 -6.3 -11.3 -5.0 -10.85 L-4.7 -10.85 Q-2.95 -9.25 2.35 -9.0 L2.4 -8.95 2.7 -8.95 4.65 -8.95 Q7.35 -8.95 10.5 -16.55 10.5 -17.5 9.55 -18.35" fill="#ff3800" fill-rule="evenodd" stroke="none"/>
    <path d="M-13.2 -0.9 L-8.7 -3.9 -9.8 -5.6 -10.45 -7.0 -12.35 -9.6 -15.9 -14.45 Q-14.85 -16.3 -13.45 -17.6 -11.9 -19.0 -10.85 -19.0 L-9.75 -18.85 Q-9.6 -19.05 -9.6 -18.3 -11.45 -13.1 -11.45 -12.05 L-9.95 -9.35 -9.0 -7.8 Q-6.15 -7.6 2.25 -4.65 2.1 -4.4 -8.3 -0.5 L-9.25 -0.1 -10.4 -0.3 -13.2 -0.9 M11.25 -2.35 Q11.15 -3.95 10.8 -4.45 L10.8 -4.65 Q9.95 -4.65 9.6 -5.0 L9.5 -5.5 Q12.5 -9.05 17.25 -16.25 18.2 -15.6 18.4 -13.0 18.55 -10.7 20.85 -9.95 20.15 -9.0 16.4 -7.65 L15.75 -6.7 Q14.5 -4.85 14.15 -3.05 L12.8 -2.7 11.25 -2.35" fill="#663d09" fill-rule="evenodd" stroke="none"/>
    <path d="M6.35 -17.9 L0.0 -17.9 Q-3.95 -16.8 -5.5 -15.6 -5.5 -14.95 -4.8 -14.15 -4.05 -13.2 -3.0 -12.85 L5.0 -12.85 Q6.4 -13.3 6.8 -13.7 7.5 -14.4 7.5 -16.1 L7.45 -17.4 6.35 -17.9 M9.55 -18.35 Q10.5 -17.5 10.5 -16.55 7.35 -8.95 4.65 -8.95 L2.7 -8.95 2.4 -8.95 2.35 -9.0 Q-2.95 -9.25 -4.7 -10.85 L-5.0 -10.85 Q-6.3 -11.3 -6.8 -11.85 -7.5 -12.65 -7.5 -14.35 -7.5 -16.35 -4.85 -18.0 L-3.7 -18.6 -3.7 -18.65 Q-3.7 -19.15 -2.25 -19.7 L6.5 -19.7 Q8.45 -19.3 9.55 -18.35 M-15.9 -2.0 L-16.5 -2.8 Q-16.5 -3.3 -16.1 -3.5 L-15.5 -3.75 -15.5 -4.15 -16.15 -5.3 -16.35 -5.4 Q-19.5 -5.75 -20.85 -5.45 -21.35 -4.65 -21.8 -4.65 L-21.9 -4.65 -22.3 -4.3 -22.45 -3.4 -23.15 -3.6 -24.7 -4.1 -24.75 -4.1 -22.75 -6.15 -22.7 -6.15 Q-22.45 -7.15 -21.3 -7.85 -19.95 -8.7 -18.05 -8.6 -13.35 -8.35 -13.35 -3.8 -13.35 -2.35 -15.75 -1.85 L-15.9 -2.0" fill="#ff9a00" fill-rule="evenodd" stroke="none"/>
    <path d="M6.35 -17.9 L7.45 -17.4 7.5 -16.1 Q7.5 -14.4 6.8 -13.7 6.4 -13.3 5.0 -12.85 L-3.0 -12.85 Q-4.05 -13.2 -4.8 -14.15 -5.5 -14.95 -5.5 -15.6 -3.95 -16.8 0.0 -17.9 L6.35 -17.9 M-22.45 -3.4 L-22.3 -4.3 -21.9 -4.65 -21.8 -4.65 Q-21.35 -4.65 -20.85 -5.45 -19.5 -5.75 -16.35 -5.4 L-16.15 -5.3 -15.5 -4.15 -15.5 -3.75 -16.1 -3.5 Q-16.5 -3.3 -16.5 -2.8 L-15.9 -2.0 -16.0 -1.9 -16.45 -1.65 -17.15 -1.85 -18.3 -2.15 -22.15 -3.3 -22.45 -3.4" fill="#ffd200" fill-rule="evenodd" stroke="none"/>
  </g>
</svg>
