<?xml version="1.0" encoding="UTF-8" standalone="no"?>
<svg xmlns:ffdec="https://www.free-decompiler.com/flash" xmlns:xlink="http://www.w3.org/1999/xlink" ffdec:objectType="shape" height="12.2px" width="40.9px" xmlns="http://www.w3.org/2000/svg">
  <g transform="matrix(1.0, 0.0, 0.0, 1.0, 21.55, 11.9)">
    <path d="M9.0 -1.8 L10.5 -5.1 Q10.5 -6.05 9.55 -6.9 8.45 -7.85 6.5 -8.25 L-2.25 -8.25 Q-3.7 -7.7 -3.7 -7.2 L-3.7 -7.15 -4.85 -6.55 Q-7.5 -4.9 -7.5 -2.9 -7.5 -1.2 -6.8 -0.4 L-5.85 0.25 -9.5 -0.15 -9.65 -0.35 -10.0 -1.4 Q-10.0 -5.2 -8.0 -6.95 L-7.7 -7.15 -7.7 -7.2 Q-6.65 -7.9 -6.25 -8.55 L-0.7 -9.6 Q8.7 -8.85 11.25 -7.9 L12.15 -7.45 Q12.7 -7.7 13.3 -7.05 14.25 -5.95 14.25 -4.3 L14.1 -3.0 12.8 -2.7 9.0 -1.8" fill="#ff3800" fill-rule="evenodd" stroke="none"/>
    <path d="M-5.85 0.25 L-6.8 -0.4 Q-7.5 -1.2 -7.5 -2.9 -7.5 -4.9 -4.85 -6.55 L-3.7 -7.15 -3.7 -7.2 Q-3.7 -7.7 -2.25 -8.25 L6.5 -8.25 Q8.45 -7.85 9.55 -6.9 10.5 -6.05 10.5 -5.1 L9.0 -1.8 8.55 -1.7 6.25 -1.2 3.8 -0.7 0.45 -0.1 -4.35 0.3 -5.35 0.3 -5.85 0.25 M6.8 -2.25 Q7.5 -2.95 7.5 -4.65 L7.45 -5.95 6.35 -6.45 0.0 -6.45 Q-3.95 -5.35 -5.5 -4.15 -5.5 -3.5 -4.8 -2.7 -4.05 -1.75 -3.0 -1.4 L5.0 -1.4 Q6.4 -1.85 6.8 -2.25" fill="#ff9a00" fill-rule="evenodd" stroke="none"/>
    <path d="M6.8 -2.25 Q6.4 -1.85 5.0 -1.4 L-3.0 -1.4 Q-4.05 -1.75 -4.8 -2.7 -5.5 -3.5 -5.5 -4.15 -3.95 -5.35 0.0 -6.45 L6.35 -6.45 7.45 -5.95 7.5 -4.65 Q7.5 -2.95 6.8 -2.25" fill="#ffd200" fill-rule="evenodd" stroke="none"/>
    <path d="M14.1 -3.0 L14.25 -4.3 Q14.25 -5.95 13.3 -7.05 12.7 -7.7 12.15 -7.45 L11.25 -7.9 Q8.7 -8.85 -0.7 -9.6 L-6.25 -8.55 Q-6.65 -7.9 -7.7 -7.2 L-7.7 -7.15 -8.0 -6.95 Q-10.0 -5.2 -10.0 -1.4 L-9.65 -0.35 -9.5 -0.15 -10.4 -0.3 -11.4 -0.5 -11.45 -0.6 Q-11.45 -1.65 -9.6 -6.85 -9.6 -7.6 -9.75 -7.4 L-10.85 -7.55 Q-11.9 -7.55 -13.45 -6.15 -14.85 -4.85 -15.9 -3.0 L-14.5 -1.15 -16.15 -1.6 -16.2 -1.6 -17.15 -1.85 -18.3 -2.15 -21.55 -3.1 -21.1 -3.85 Q-16.9 -4.6 -13.8 -6.65 -10.65 -8.7 -9.8 -10.95 L-3.15 -11.85 -1.5 -11.9 4.95 -11.45 6.6 -11.2 11.75 -10.1 13.2 -9.7 14.25 -9.4 18.4 -7.8 19.35 -4.35 18.15 -4.05 17.9 -3.95 17.25 -4.8 16.5 -3.6 14.1 -3.0" fill="#4d3415" fill-rule="evenodd" stroke="none"/>
    <path d="M-14.5 -1.15 L-15.9 -3.0 Q-14.85 -4.85 -13.45 -6.15 -11.9 -7.55 -10.85 -7.55 L-9.75 -7.4 Q-9.6 -7.6 -9.6 -6.85 -11.45 -1.65 -11.45 -0.6 L-11.4 -0.5 -14.5 -1.15 M17.9 -3.95 L16.5 -3.6 17.25 -4.8 17.9 -3.95" fill="#663d09" fill-rule="evenodd" stroke="none"/>
  </g>
</svg>
