<?xml version="1.0" encoding="UTF-8" standalone="no"?>
<svg xmlns:ffdec="https://www.free-decompiler.com/flash" xmlns:xlink="http://www.w3.org/1999/xlink" ffdec:objectType="shape" height="166.0px" width="190.15px" xmlns="http://www.w3.org/2000/svg">
  <g transform="matrix(1.0, 0.0, 0.0, 1.0, 95.65, 83.3)">
    <path d="M-34.75 -28.5 L15.5 -28.5 14.0 -24.3 Q15.65 -24.1 17.5 -25.55 L19.95 -27.4 20.9 -28.5 28.05 -28.5 26.8 -26.2 23.65 -21.2 24.15 -21.05 26.4 -20.4 28.1 -19.75 29.5 -19.3 Q30.7 -19.3 32.6 -20.8 L34.9 -22.6 37.05 -23.25 39.4 -24.05 Q41.0 -24.85 41.0 -23.3 41.0 -22.55 40.3 -21.9 L38.15 -19.55 36.75 -17.35 36.0 -16.4 36.25 -16.25 37.45 -15.2 38.4 -14.05 43.1 -13.85 Q43.4 -13.7 43.4 -13.1 43.4 -12.45 42.65 -11.95 L40.4 -10.8 Q41.75 -8.25 45.8 -6.7 48.15 -5.8 57.4 -3.45 59.5 -2.9 63.75 0.6 L66.1 2.6 68.75 1.95 72.15 1.05 Q74.3 0.15 75.15 0.05 L76.5 -0.45 81.3 -0.95 Q85.15 -2.5 88.45 -3.3 94.5 -4.7 94.5 -2.35 94.5 -1.8 88.55 5.85 L85.4 9.9 84.15 10.9 Q83.0 11.75 82.45 11.9 81.65 12.15 80.15 13.15 L79.85 13.35 80.6 15.15 Q81.3 17.3 81.3 19.0 81.3 19.9 79.05 23.8 L76.75 27.05 77.25 28.75 Q77.9 31.05 79.55 32.45 L81.2 35.9 Q82.2 38.05 85.15 37.8 L85.2 38.55 82.5 41.55 Q79.65 44.45 79.15 45.45 78.4 47.1 75.85 49.5 72.65 52.5 70.3 52.45 68.0 57.85 65.35 62.6 61.75 69.1 60.15 69.1 58.75 69.1 58.55 66.8 L58.65 63.95 58.15 61.25 57.65 58.75 57.35 58.75 50.2 65.15 Q43.2 71.1 41.65 71.1 L40.8 71.0 40.65 70.8 40.65 70.4 Q40.65 70.05 42.75 67.0 44.95 63.7 45.3 62.5 L46.05 58.5 46.1 58.2 44.95 56.95 Q44.4 56.95 42.25 58.8 L39.8 60.6 Q38.85 60.6 38.75 59.4 L38.3 57.7 Q37.7 57.15 36.7 57.25 L35.4 56.95 Q35.1 56.65 35.1 56.0 35.1 55.5 34.4 55.3 L32.45 55.45 Q31.95 55.15 31.95 54.55 L32.8 52.8 Q33.65 51.15 33.65 50.0 33.65 47.4 30.25 44.15 L28.0 41.9 26.55 43.3 23.65 45.7 18.35 47.0 Q13.6 48.1 12.2 49.8 10.85 51.45 4.85 55.15 -1.4 58.95 -3.1 60.8 -5.35 63.15 -7.75 66.45 -8.6 67.65 -11.5 69.3 L-14.85 70.1 Q-17.25 70.5 -18.6 71.8 L-24.8 77.45 -27.45 79.7 -33.1 80.2 Q-33.9 80.25 -35.75 81.45 L-37.6 82.7 -38.65 82.1 -39.6 81.65 -42.1 80.85 Q-43.9 80.6 -44.5 80.0 L-45.85 78.8 -55.0 78.6 -66.5 77.95 -69.35 77.3 Q-70.4 76.9 -70.4 75.95 L-69.75 75.35 -67.1 74.2 -65.8 73.0 -64.85 72.0 -61.75 69.85 Q-59.6 68.4 -58.6 68.2 -57.2 67.9 -55.2 66.5 L-51.4 64.05 -51.05 63.55 -56.35 61.0 -59.85 59.1 -59.75 59.55 -59.45 61.7 -59.6 63.4 Q-59.9 65.05 -60.7 65.05 -61.65 65.05 -64.55 60.75 -67.65 56.0 -68.45 55.0 -70.95 52.0 -76.2 48.0 L-80.7 44.4 Q-80.7 42.45 -78.6 43.4 L-78.45 43.4 -77.25 43.35 -77.35 38.3 -77.75 35.5 Q-77.65 33.9 -75.35 33.3 L-75.7 32.95 -76.5 33.2 -76.6 33.35 -76.95 33.35 -77.25 33.5 -79.35 33.8 -79.3 33.55 -81.3 33.8 Q-84.85 33.8 -84.85 30.25 -84.85 28.7 -82.65 21.35 L-81.6 18.95 Q-83.7 19.7 -86.15 19.7 -90.0 19.7 -93.0 18.1 -95.65 16.65 -95.65 15.4 -95.65 14.55 -92.35 12.15 L-87.65 8.65 -85.2 5.05 Q-83.65 2.65 -81.9 1.7 L-79.35 0.1 -78.25 -1.3 Q-76.3 -3.9 -75.9 -4.7 -74.85 -6.95 -73.4 -8.15 -72.4 -9.05 -66.75 -10.7 L-59.05 -12.05 Q-53.85 -13.05 -51.1 -16.1 L-47.6 -19.65 Q-45.2 -22.0 -44.35 -23.05 L-42.55 -24.85 -40.65 -26.4 -38.8 -28.05 -35.7 -28.45 -34.75 -28.5 M-39.35 80.3 L-39.35 80.25 -39.4 80.3 -39.35 80.3 M43.3 68.85 L43.2 68.95 43.4 68.95 43.3 68.85" fill="#ffffff" fill-rule="evenodd" stroke="none"/>
    <path d="M-34.75 -28.5 Q-33.35 -28.7 -32.6 -29.6 L-29.3 -33.05 Q-27.75 -34.5 -26.3 -34.7 L-22.35 -41.35 Q-18.35 -47.55 -18.35 -49.95 -18.35 -52.3 -20.95 -55.25 L-26.75 -60.75 Q-35.1 -68.7 -35.1 -76.7 L-35.0 -79.35 Q-34.8 -81.0 -33.85 -82.05 -32.5 -84.1 -30.65 -82.8 -29.85 -82.2 -28.55 -80.45 L-27.8 -81.15 Q-27.5 -81.55 -26.55 -81.55 -25.3 -81.55 -24.45 -79.0 -23.95 -77.45 -23.8 -76.05 -22.2 -76.0 -21.4 -74.9 -20.8 -74.0 -21.0 -73.2 -18.8 -74.05 -18.4 -72.7 -18.25 -70.95 -17.8 -70.6 L-16.65 -71.55 Q-15.9 -72.2 -15.35 -72.2 L-14.35 -72.05 Q-14.35 -68.55 -14.0 -67.2 L-10.65 -69.85 -9.95 -69.7 Q-10.3 -67.65 -10.15 -65.85 L-9.9 -63.1 Q-8.25 -64.1 -6.4 -66.4 -4.1 -69.15 -2.35 -69.6 L-2.3 -67.65 -3.55 -59.3 -3.15 -58.65 Q-2.65 -58.1 -2.3 -58.1 L5.55 -63.15 Q6.35 -63.15 6.5 -62.65 L6.55 -61.65 Q6.55 -59.95 3.85 -56.6 L-0.45 -51.7 -0.35 -51.6 2.1 -53.05 Q4.5 -54.3 7.7 -54.3 L9.35 -53.95 9.5 -53.2 Q9.5 -51.85 5.1 -47.75 L0.15 -43.3 Q6.85 -46.3 8.8 -46.3 9.95 -46.3 10.25 -45.9 L10.4 -44.85 Q2.9 -34.7 -1.7 -34.4 -1.35 -34.15 -0.85 -34.15 L0.3 -34.3 3.95 -34.55 6.9 -35.05 8.0 -34.95 Q8.4 -34.8 8.4 -34.1 L7.95 -33.1 7.05 -31.95 Q7.8 -31.85 8.65 -30.2 10.0 -31.05 13.85 -34.75 17.05 -37.35 17.05 -34.2 17.05 -32.9 15.65 -28.85 L15.5 -28.5 -34.75 -28.5 M20.9 -28.5 L21.9 -29.05 Q22.7 -29.4 24.45 -30.65 25.7 -31.4 26.65 -31.2 27.35 -31.7 27.9 -31.7 28.6 -31.7 28.8 -31.35 L29.0 -30.45 28.05 -28.5 20.9 -28.5 M14.95 -33.3 L14.75 -33.3 14.9 -33.2 14.95 -33.3" fill="url(#gradient0)" fill-rule="evenodd" stroke="none"/>
  </g>
  <defs>
    <linearGradient gradientTransform="matrix(0.0, 0.0152, 0.0334, 0.0, -8.65, -44.95)" gradientUnits="userSpaceOnUse" id="gradient0" spreadMethod="pad" x1="-819.2" x2="819.2">
      <stop offset="0.0" stop-color="#ffffff" stop-opacity="0.0"/>
      <stop offset="1.0" stop-color="#ffffff"/>
    </linearGradient>
  </defs>
</svg>
