<?xml version="1.0" encoding="UTF-8" standalone="no"?>
<svg xmlns:ffdec="https://www.free-decompiler.com/flash" xmlns:xlink="http://www.w3.org/1999/xlink" ffdec:objectType="shape" height="47.6px" width="27.25px" xmlns="http://www.w3.org/2000/svg">
  <g transform="matrix(1.0, 0.0, 0.0, 1.0, 12.1, 47.4)">
    <path d="M8.6 0.2 L-2.85 0.2 Q-3.4 -0.6 -3.7 -2.65 L-3.9 -6.0 Q-3.9 -8.75 -0.55 -14.05 L1.95 -18.1 Q3.4 -20.5 4.6 -21.85 L4.7 -21.65 4.5 -20.6 4.25 -19.45 Q4.25 -17.55 7.05 -14.05 9.85 -10.5 9.85 -5.5 9.85 -4.1 9.2 -1.65 L8.6 0.2" fill="#ffff00" fill-rule="evenodd" stroke="none"/>
    <path d="M10.4 -46.05 L9.65 -46.15 9.55 -46.7 Q9.55 -47.6 11.0 -47.3 L11.25 -46.7 Q11.25 -46.05 10.4 -46.05 M-2.85 0.2 L-10.55 0.2 -11.65 -1.85 -11.85 -2.2 -12.0 -3.0 -12.1 -4.05 -12.0 -4.1 -12.05 -4.6 -12.05 -4.65 Q-11.45 -4.05 -10.55 -4.05 -8.95 -4.05 -8.45 -6.0 L-8.25 -8.15 Q-8.25 -10.55 -10.05 -13.15 -11.9 -15.75 -11.9 -17.0 L-11.65 -19.55 -10.5 -21.55 -9.15 -23.65 -7.3 -26.2 -6.75 -28.25 -6.2 -29.4 Q-6.05 -28.35 -5.5 -27.2 -4.3 -24.65 -1.75 -24.65 L-0.3 -24.75 Q1.05 -24.8 2.55 -25.85 3.4 -26.4 3.9 -27.1 4.7 -28.2 4.7 -29.45 L4.6 -30.05 5.3 -32.25 5.45 -33.65 5.4 -34.15 5.2 -35.35 5.05 -36.35 4.45 -37.85 4.7 -37.65 4.75 -37.65 Q6.35 -37.05 7.05 -35.05 7.9 -32.55 7.9 -30.85 L7.8 -29.4 7.55 -28.85 7.35 -27.5 7.55 -25.5 Q8.05 -23.85 9.75 -23.85 11.35 -23.85 12.25 -25.1 L13.35 -23.65 Q15.15 -20.5 15.15 -13.65 15.15 -9.8 14.1 -6.75 13.65 -3.9 12.75 -1.55 L12.35 0.2 8.6 0.2 9.2 -1.65 Q9.85 -4.1 9.85 -5.5 9.85 -10.5 7.05 -14.05 4.25 -17.55 4.25 -19.45 L4.5 -20.6 4.7 -21.65 4.6 -21.85 Q3.4 -20.5 1.95 -18.1 L-0.55 -14.05 Q-3.9 -8.75 -3.9 -6.0 L-3.7 -2.65 Q-3.4 -0.6 -2.85 0.2 M-4.9 -38.6 L-4.95 -38.5 Q-5.05 -38.4 -5.25 -38.35 L-5.8 -38.95 -5.15 -38.95 -4.9 -38.6 M-6.3 -27.45 L-6.2 -27.55 -6.2 -27.7 -6.3 -27.5 -6.3 -27.45" fill="#ff3300" fill-rule="evenodd" stroke="none"/>
  </g>
</svg>
