<?xml version="1.0" encoding="UTF-8" standalone="no"?>
<svg xmlns:ffdec="https://www.free-decompiler.com/flash" xmlns:xlink="http://www.w3.org/1999/xlink" ffdec:objectType="shape" height="49.5px" width="27.45px" xmlns="http://www.w3.org/2000/svg">
  <g transform="matrix(1.0, 0.0, 0.0, 1.0, 13.35, 49.3)">
    <path d="M-5.2 0.2 L-5.7 -1.65 -6.0 -4.55 Q-6.0 -5.95 -5.15 -7.9 -4.35 -9.65 -3.2 -11.25 L-2.15 -9.6 Q-0.95 -8.35 1.45 -8.35 6.2 -8.35 7.1 -12.4 L9.15 -8.7 9.7 -6.45 9.85 -4.8 Q9.85 -1.7 8.65 0.2 L-5.2 0.2" fill="#ffff00" fill-rule="evenodd" stroke="none"/>
    <path d="M-5.2 0.2 L-12.75 0.2 Q-13.35 -2.05 -13.35 -4.0 -13.35 -9.4 -10.45 -14.9 -7.0 -21.3 -0.95 -23.1 L0.0 -23.4 0.75 -23.65 0.9 -23.55 1.1 -23.6 1.2 -23.65 0.55 -22.35 -0.15 -20.35 -0.25 -19.45 -0.5 -18.65 -0.25 -17.15 0.0 -16.5 0.2 -15.95 0.65 -15.05 1.15 -14.4 Q2.2 -13.4 3.75 -13.4 L3.9 -13.4 4.0 -13.4 Q5.85 -13.4 7.0 -15.4 L7.2 -15.7 7.35 -16.15 7.45 -16.4 7.55 -16.6 11.45 -10.5 Q14.1 -6.0 14.1 -3.95 14.1 -1.95 12.85 0.2 L8.65 0.2 Q9.85 -1.7 9.85 -4.8 L9.7 -6.45 9.15 -8.7 7.1 -12.4 Q6.2 -8.35 1.45 -8.35 -0.95 -8.35 -2.15 -9.6 L-3.2 -11.25 Q-4.35 -9.65 -5.15 -7.9 -6.0 -5.95 -6.0 -4.55 L-5.7 -1.65 -5.2 0.2 M7.8 -33.9 Q7.0 -33.9 6.5 -35.3 6.1 -36.35 6.1 -37.15 L6.55 -38.85 6.95 -40.75 Q7.55 -40.4 8.15 -38.45 8.7 -36.65 8.7 -35.7 8.6 -33.9 7.8 -33.9 M-5.3 -48.95 L-5.1 -49.3 -5.15 -48.5 Q-5.0 -45.75 -4.25 -45.15 L-3.25 -43.15 Q-1.6 -40.15 -1.6 -38.75 L-1.6 -38.5 -1.55 -38.15 Q-1.55 -37.0 -2.15 -35.8 -3.05 -34.0 -4.9 -34.0 L-5.2 -34.0 -5.55 -33.95 Q-6.95 -33.95 -7.6 -36.9 L-8.0 -39.95 Q-8.0 -41.6 -6.7 -45.6 L-6.1 -47.25 -5.3 -48.95" fill="#ff3300" fill-rule="evenodd" stroke="none"/>
  </g>
</svg>
