<?xml version="1.0" encoding="UTF-8" standalone="no"?>
<svg xmlns:ffdec="https://www.free-decompiler.com/flash" xmlns:xlink="http://www.w3.org/1999/xlink" ffdec:objectType="shape" height="64.7px" width="80.75px" xmlns="http://www.w3.org/2000/svg">
  <g transform="matrix(1.0, 0.0, 0.0, 1.0, 34.45, 64.25)">
    <path d="M30.7 -63.8 L30.6 -63.2 30.2 -63.1 29.7 -63.45 29.55 -63.65 Q29.55 -64.1 30.6 -64.25 L30.7 -63.8 M12.95 -1.4 L13.6 -1.35 13.7 -1.05 13.65 -0.75 13.6 -0.7 12.75 -0.6 12.65 -0.65 12.6 -1.0 Q12.6 -1.3 12.95 -1.4 M38.55 -0.4 L38.9 -0.4 39.45 -0.4 Q39.65 -0.6 39.65 -0.05 L39.5 0.35 39.05 0.45 38.65 0.35 38.55 0.3 38.5 -0.05 38.55 -0.4 M46.25 -32.25 L46.3 -31.95 46.25 -31.55 Q46.3 -31.35 45.8 -31.35 L45.4 -31.45 45.25 -31.65 Q45.45 -32.6 46.15 -32.3 L46.25 -32.25 M-32.95 -48.6 L-32.85 -48.3 -33.2 -47.95 -33.5 -48.0 -33.6 -48.3 -33.5 -48.6 -33.3 -48.65 -32.95 -48.6 M-25.2 -34.9 L-25.05 -34.45 -25.15 -34.2 Q-25.2 -34.05 -25.55 -34.05 L-25.9 -34.15 -26.05 -34.2 -26.05 -34.85 -26.0 -35.0 -25.2 -34.9 M-34.0 -1.2 L-33.65 -0.95 -33.6 -0.75 -33.65 -0.55 -33.8 -0.4 -34.35 -0.4 -34.45 -0.8 -34.3 -1.15 -34.0 -1.2 M-20.65 -10.1 L-20.35 -10.15 -20.05 -10.1 -19.95 -9.7 -20.0 -9.4 -20.05 -9.3 -20.35 -9.15 -20.65 -9.25 -20.8 -9.65 -20.65 -10.1" fill="#ffff99" fill-rule="evenodd" stroke="none"/>
  </g>
</svg>
