<?xml version="1.0" encoding="UTF-8" standalone="no"?>
<svg xmlns:ffdec="https://www.free-decompiler.com/flash" xmlns:xlink="http://www.w3.org/1999/xlink" ffdec:objectType="shape" height="46.0px" width="50.6px" xmlns="http://www.w3.org/2000/svg">
  <g transform="matrix(1.0, 0.0, 0.0, 1.0, 21.8, 45.7)">
    <path d="M26.2 -29.85 L27.15 -28.9 Q30.3 -25.55 27.45 -21.75 28.95 -12.75 21.05 -7.6 18.3 -0.25 10.6 -1.7 9.85 -0.9 8.85 -0.45 4.6 1.55 1.15 -1.9 L-0.6 -0.75 Q-5.7 1.15 -8.35 -3.7 -9.6 -3.0 -11.0 -3.1 -14.2 -3.6 -14.25 -6.5 -25.9 -14.75 -19.55 -27.25 -23.8 -35.65 -14.95 -38.0 L-14.55 -38.55 Q-11.25 -42.65 -6.05 -41.4 -0.25 -47.95 5.5 -41.65 L6.2 -42.3 Q16.7 -50.45 19.15 -38.95 28.2 -38.65 26.2 -29.85 M24.6 -29.15 L24.85 -30.05 Q26.55 -38.05 17.8 -37.9 18.2 -38.85 18.2 -39.9 18.2 -40.95 17.85 -41.9 10.6 -47.45 5.45 -39.6 0.2 -46.65 -5.5 -40.25 -11.35 -42.1 -14.0 -36.7 -22.8 -34.9 -18.0 -27.05 -24.5 -15.55 -13.45 -7.85 -13.65 -5.9 -12.2 -4.8 -10.3 -3.35 -8.45 -4.75 L-7.35 -4.55 -7.6 -4.3 -6.7 -3.15 Q-3.05 0.9 1.2 -3.15 L1.55 -3.0 1.55 -2.4 Q2.6 -1.4 3.95 -0.95 7.85 0.35 10.45 -2.9 L10.9 -2.5 Q17.7 -1.1 20.05 -7.65 L19.2 -7.7 Q20.65 -8.2 21.6 -9.4 22.4 -10.4 21.9 -11.45 29.0 -14.45 26.05 -21.6 27.2 -22.85 27.45 -24.5 28.0 -28.0 24.6 -29.15" fill="#2f2f2f" fill-rule="evenodd" stroke="none"/>
    <path d="M24.6 -29.15 Q28.0 -28.0 27.45 -24.5 27.2 -22.85 26.05 -21.6 29.0 -14.45 21.9 -11.45 22.4 -10.4 21.6 -9.4 20.65 -8.2 19.2 -7.7 L20.05 -7.65 Q17.7 -1.1 10.9 -2.5 L10.45 -2.9 Q7.85 0.35 3.95 -0.95 2.6 -1.4 1.55 -2.4 L1.55 -3.0 1.2 -3.15 Q-3.05 0.9 -6.7 -3.15 L-7.6 -4.3 -7.35 -4.55 -8.45 -4.75 Q-10.3 -3.35 -12.2 -4.8 -13.65 -5.9 -13.45 -7.85 -24.5 -15.55 -18.0 -27.05 -22.8 -34.9 -14.0 -36.7 -11.35 -42.1 -5.5 -40.25 0.2 -46.65 5.45 -39.6 10.6 -47.45 17.85 -41.9 18.2 -40.95 18.2 -39.9 18.2 -38.85 17.8 -37.9 26.55 -38.05 24.85 -30.05 L24.6 -29.15" fill="#444444" fill-rule="evenodd" stroke="none"/>
  </g>
</svg>
