<?xml version="1.0" encoding="UTF-8" standalone="no"?>
<svg xmlns:ffdec="https://www.free-decompiler.com/flash" xmlns:xlink="http://www.w3.org/1999/xlink" ffdec:objectType="shape" height="48.5px" width="59.7px" xmlns="http://www.w3.org/2000/svg">
  <g transform="matrix(1.0, 0.0, 0.0, 1.0, 27.2, 53.65)">
    <path d="M-21.7 -42.85 Q-28.75 -37.55 -24.85 -29.65 -28.1 -23.8 -24.4 -18.3 L-23.7 -18.7 -23.7 -17.9 -23.15 -17.75 -23.25 -17.35 -23.85 -17.1 Q-24.1 -16.0 -23.95 -14.95 -23.7 -12.5 -21.6 -11.2 L-21.1 -11.45 -20.0 -10.0 Q-17.25 -6.8 -13.55 -8.4 L-14.0 -9.1 Q-8.15 -6.7 -2.25 -8.8 L-2.0 -9.2 Q4.6 -4.0 11.35 -8.5 L10.65 -9.25 11.1 -9.75 Q18.1 -7.15 22.25 -13.1 23.85 -13.5 25.35 -14.55 27.0 -15.7 27.2 -17.7 28.2 -18.15 29.0 -18.95 31.15 -21.05 30.6 -23.85 L30.25 -24.15 30.2 -24.35 31.1 -26.2 Q32.2 -29.7 29.9 -32.5 L29.5 -32.05 29.0 -32.15 Q30.6 -40.45 23.1 -43.8 22.5 -46.4 21.1 -48.5 16.4 -55.65 8.65 -51.1 L9.05 -50.3 8.8 -50.0 8.5 -49.95 8.05 -50.2 7.8 -50.15 7.55 -50.55 6.25 -50.3 Q3.3 -49.1 2.3 -45.9 L2.1 -45.85 Q-4.4 -50.05 -9.85 -44.4 L-9.25 -43.35 -9.85 -43.1 -10.85 -43.55 -10.95 -43.95 Q-16.55 -47.6 -21.1 -42.35 L-21.4 -42.95 -20.35 -44.15 Q-16.0 -48.4 -10.65 -45.1 -5.05 -50.75 2.0 -47.2 5.25 -52.2 11.65 -53.35 21.95 -55.25 23.75 -44.2 31.55 -41.55 30.25 -33.5 L30.6 -33.0 Q33.9 -28.9 31.4 -24.2 32.05 -22.0 31.2 -19.95 30.35 -17.65 28.0 -17.1 27.8 -16.05 27.25 -15.1 25.75 -12.6 22.9 -12.45 L21.7 -10.9 Q17.7 -6.9 12.1 -8.15 5.1 -2.2 -2.05 -8.1 -7.35 -5.25 -12.8 -7.85 L-13.6 -7.65 Q-24.7 -5.8 -24.85 -17.45 L-25.7 -18.75 Q-28.7 -23.85 -25.75 -29.1 L-26.15 -29.95 Q-29.5 -38.25 -21.7 -42.85" fill="#2f2f2f" fill-rule="evenodd" stroke="none"/>
    <path d="M-21.4 -42.95 L-21.1 -42.35 Q-16.55 -47.6 -10.95 -43.95 L-10.85 -43.55 -9.85 -43.1 -9.25 -43.35 -9.85 -44.4 Q-4.4 -50.05 2.1 -45.85 L2.3 -45.9 Q3.3 -49.1 6.25 -50.3 L7.55 -50.55 7.8 -50.15 8.05 -50.2 8.5 -49.95 8.8 -50.0 9.05 -50.3 8.65 -51.1 Q16.4 -55.65 21.1 -48.5 22.5 -46.4 23.1 -43.8 30.6 -40.45 29.0 -32.15 L29.5 -32.05 29.9 -32.5 Q32.2 -29.7 31.1 -26.2 L30.2 -24.35 30.25 -24.15 30.6 -23.85 Q31.15 -21.05 29.0 -18.95 28.2 -18.15 27.2 -17.7 27.0 -15.7 25.35 -14.55 23.85 -13.5 22.25 -13.1 18.1 -7.15 11.1 -9.75 L10.65 -9.25 11.35 -8.5 Q4.6 -4.0 -2.0 -9.2 L-2.25 -8.8 Q-8.15 -6.7 -14.0 -9.1 L-13.55 -8.4 Q-17.25 -6.8 -20.0 -10.0 L-21.1 -11.45 -21.6 -11.2 Q-23.7 -12.5 -23.95 -14.95 -24.1 -16.0 -23.85 -17.1 L-23.25 -17.35 -23.15 -17.75 -23.7 -17.9 -23.7 -18.7 -24.4 -18.3 Q-28.1 -23.8 -24.85 -29.65 -28.75 -37.55 -21.7 -42.85 L-21.4 -42.95" fill="#444444" fill-rule="evenodd" stroke="none"/>
  </g>
</svg>
