<?xml version="1.0" encoding="UTF-8" standalone="no"?>
<svg xmlns:ffdec="https://www.free-decompiler.com/flash" xmlns:xlink="http://www.w3.org/1999/xlink" ffdec:objectType="shape" height="55.6px" width="61.0px" xmlns="http://www.w3.org/2000/svg">
  <g transform="matrix(1.0, 0.0, 0.0, 1.0, 27.15, 61.45)">
    <path d="M-24.5 -32.75 L-24.3 -32.8 -24.15 -32.25 Q-28.45 -25.15 -21.8 -20.3 L-21.8 -20.1 -21.95 -19.95 Q-22.25 -15.65 -18.2 -14.35 L-18.65 -13.7 Q-18.55 -12.4 -17.65 -11.4 -15.5 -9.05 -14.55 -12.05 L-12.0 -11.9 Q-10.9 -12.45 -11.25 -13.75 L-10.5 -14.5 -10.25 -14.4 -10.05 -14.55 Q-9.4 -13.35 -8.15 -12.85 -5.4 -11.65 -3.8 -14.05 L-3.55 -13.9 -3.25 -13.15 Q-2.25 -10.75 0.25 -10.35 L0.15 -9.1 -0.2 -9.15 Q0.75 -6.7 3.25 -6.95 7.45 -7.4 6.65 -11.2 L7.0 -11.3 Q8.55 -10.4 10.05 -11.3 L10.05 -12.7 10.2 -12.85 10.15 -13.05 10.25 -13.4 10.7 -13.25 10.85 -13.1 11.2 -12.75 11.35 -12.15 Q12.2 -11.4 13.3 -11.4 15.8 -11.4 16.2 -13.75 L17.2 -13.85 17.35 -13.1 20.6 -12.95 Q22.9 -14.05 22.05 -16.35 L22.3 -16.6 23.9 -16.05 24.3 -16.5 24.45 -16.9 24.35 -17.9 24.95 -18.0 Q26.05 -18.35 26.75 -19.2 L26.35 -20.3 26.3 -21.0 26.6 -21.3 27.1 -21.05 27.65 -21.2 Q29.95 -22.1 30.8 -24.4 L30.0 -24.95 30.4 -26.3 30.7 -26.4 30.9 -26.35 Q32.85 -27.8 32.55 -30.2 32.15 -33.5 29.05 -34.25 33.7 -43.75 22.95 -44.6 L22.7 -45.2 23.9 -49.3 Q25.0 -54.65 20.8 -57.7 9.35 -65.9 6.35 -53.15 L7.55 -52.95 Q9.0 -52.3 8.65 -50.95 3.45 -52.8 2.2 -47.05 L1.8 -47.0 1.5 -47.2 0.9 -49.55 Q0.5 -50.9 -0.6 -51.45 -8.75 -55.3 -7.35 -46.5 L-7.8 -46.65 -6.55 -45.4 -7.3 -45.05 -8.4 -46.0 Q-10.65 -46.05 -12.15 -44.35 L-12.2 -44.8 Q-12.15 -45.75 -11.35 -46.3 L-9.0 -47.0 Q-9.35 -48.6 -8.75 -50.05 -5.4 -58.45 1.9 -51.0 L5.85 -53.15 Q5.85 -55.0 6.2 -56.75 7.1 -61.35 11.6 -61.45 27.65 -61.7 24.65 -46.25 L25.75 -46.0 Q34.6 -43.55 30.85 -34.85 31.85 -34.3 32.5 -33.35 35.55 -29.05 31.75 -25.05 L31.65 -23.85 Q30.95 -20.7 27.75 -20.15 27.85 -19.05 27.3 -18.05 26.65 -16.9 25.35 -17.2 25.35 -16.0 24.5 -15.35 23.85 -14.8 23.0 -15.15 23.15 -13.4 21.8 -12.25 19.55 -10.3 17.05 -12.05 16.8 -11.3 16.2 -10.85 13.6 -9.0 11.05 -10.85 L10.65 -10.4 9.35 -9.65 8.2 -9.75 Q8.0 -7.65 6.25 -6.75 0.95 -4.05 -0.85 -9.3 L-1.35 -9.55 Q-3.2 -10.3 -4.1 -12.1 -4.7 -11.25 -5.75 -11.1 -8.65 -10.6 -10.2 -13.2 -10.1 -12.3 -10.7 -11.55 -12.0 -9.8 -14.05 -10.65 -14.15 -9.4 -15.4 -9.4 -19.4 -9.15 -19.25 -13.35 L-20.7 -14.25 Q-23.25 -16.4 -22.85 -19.75 L-23.45 -20.15 Q-30.3 -25.8 -24.5 -32.75 M-11.75 -46.85 L-12.1 -46.7 Q-19.65 -52.55 -20.65 -43.3 L-21.45 -43.25 -21.4 -44.3 Q-19.55 -53.9 -11.75 -46.85 M-21.5 -43.15 L-21.0 -42.85 Q-26.4 -39.65 -24.1 -33.8 L-24.3 -33.25 -24.65 -33.15 -25.0 -33.85 Q-27.8 -40.05 -21.5 -43.15" fill="#2f2f2f" fill-rule="evenodd" stroke="none"/>
    <path d="M-11.35 -46.3 Q-12.15 -45.75 -12.2 -44.8 L-12.15 -44.35 Q-10.65 -46.05 -8.4 -46.0 L-7.3 -45.05 -6.55 -45.4 -7.8 -46.65 -7.35 -46.5 Q-8.75 -55.3 -0.6 -51.45 0.5 -50.9 0.9 -49.55 L1.5 -47.2 1.8 -47.0 2.2 -47.05 Q3.45 -52.8 8.65 -50.95 9.0 -52.3 7.55 -52.95 L6.35 -53.15 Q9.35 -65.9 20.8 -57.7 25.0 -54.65 23.9 -49.3 L22.7 -45.2 22.95 -44.6 Q33.7 -43.75 29.05 -34.25 32.15 -33.5 32.55 -30.2 32.85 -27.8 30.9 -26.35 L30.7 -26.4 30.4 -26.3 30.0 -24.95 30.8 -24.4 Q29.95 -22.1 27.65 -21.2 L27.1 -21.05 26.6 -21.3 26.3 -21.0 26.35 -20.3 26.75 -19.2 Q26.05 -18.35 24.95 -18.0 L24.35 -17.9 24.45 -16.9 24.3 -16.5 23.9 -16.05 22.3 -16.6 22.05 -16.35 Q22.9 -14.05 20.6 -12.95 L17.35 -13.1 17.2 -13.85 16.2 -13.75 Q15.8 -11.4 13.3 -11.4 12.2 -11.4 11.35 -12.15 L11.2 -12.75 10.85 -13.1 10.7 -13.25 10.25 -13.4 10.15 -13.05 10.2 -12.85 10.05 -12.7 10.05 -11.3 Q8.55 -10.4 7.0 -11.3 L6.65 -11.2 Q7.45 -7.4 3.25 -6.95 0.75 -6.7 -0.2 -9.15 L0.15 -9.1 0.25 -10.35 Q-2.25 -10.75 -3.25 -13.15 L-3.55 -13.9 -3.8 -14.05 Q-5.4 -11.65 -8.15 -12.85 -9.4 -13.35 -10.05 -14.55 L-10.25 -14.4 -10.5 -14.5 -11.25 -13.75 Q-10.9 -12.45 -12.0 -11.9 L-14.55 -12.05 Q-15.5 -9.05 -17.65 -11.4 -18.55 -12.4 -18.65 -13.7 L-18.2 -14.35 Q-22.25 -15.65 -21.95 -19.95 L-21.8 -20.1 -21.8 -20.3 Q-28.45 -25.15 -24.15 -32.25 L-24.3 -32.8 -24.5 -32.75 -24.65 -33.15 -24.3 -33.25 -24.1 -33.8 Q-26.4 -39.65 -21.0 -42.85 L-21.5 -43.15 -21.45 -43.25 -20.65 -43.3 Q-19.65 -52.55 -12.1 -46.7 L-11.75 -46.85 -11.35 -46.3" fill="#444444" fill-rule="evenodd" stroke="none"/>
  </g>
</svg>
