<?xml version="1.0" encoding="UTF-8" standalone="no"?>
<svg xmlns:ffdec="https://www.free-decompiler.com/flash" xmlns:xlink="http://www.w3.org/1999/xlink" ffdec:objectType="shape" height="57.6px" width="62.95px" xmlns="http://www.w3.org/2000/svg">
  <g transform="matrix(1.0, 0.0, 0.0, 1.0, 28.85, 66.0)">
    <path d="M-22.55 -44.95 Q-22.95 -47.4 -21.45 -49.15 -16.65 -54.8 -10.7 -49.95 -10.65 -52.85 -8.65 -54.8 -3.2 -60.15 2.4 -54.2 L3.35 -54.55 Q4.0 -61.45 9.75 -64.75 13.55 -66.9 17.6 -65.35 30.1 -60.65 25.0 -47.7 27.85 -47.5 29.85 -45.45 33.8 -41.5 30.75 -37.25 32.55 -36.45 33.4 -34.7 35.0 -31.7 32.95 -29.1 L32.55 -29.15 Q31.4 -30.6 29.65 -31.2 L23.9 -31.0 Q24.3 -32.45 24.15 -33.95 23.7 -38.95 18.9 -40.2 L19.85 -44.15 Q20.55 -47.95 17.55 -49.8 9.6 -54.75 5.5 -46.6 L5.8 -45.25 5.45 -45.0 4.55 -45.45 Q3.45 -47.5 1.25 -47.8 -5.95 -48.45 -7.35 -41.0 L-7.15 -40.6 -7.6 -40.0 Q-9.9 -41.75 -12.45 -40.6 -17.45 -38.35 -15.9 -33.15 -24.65 -30.4 -23.3 -21.4 -32.9 -26.4 -25.85 -35.5 L-26.25 -36.45 Q-28.2 -42.1 -22.8 -44.7 -27.05 -40.25 -24.75 -34.8 -31.55 -28.35 -24.35 -22.25 -24.9 -30.7 -17.1 -33.9 -17.4 -43.7 -7.95 -41.45 L-6.95 -44.15 Q-3.0 -52.75 4.95 -47.5 7.35 -52.15 12.15 -54.35 L15.2 -53.45 Q23.3 -49.8 19.8 -40.9 L20.6 -40.7 Q26.25 -38.7 25.1 -32.8 29.5 -33.4 32.65 -30.3 L32.95 -31.5 Q33.45 -35.0 30.15 -36.7 L29.85 -36.55 29.5 -37.25 30.15 -38.75 Q32.25 -45.95 24.0 -46.95 26.5 -52.2 24.7 -57.65 23.3 -61.8 19.15 -63.2 6.15 -67.75 4.1 -53.8 L2.1 -52.85 Q1.05 -54.4 -0.65 -55.0 -10.0 -58.45 -9.35 -47.3 L-9.9 -47.2 -10.85 -48.15 Q-18.35 -55.35 -22.55 -44.95 M13.45 -49.55 Q13.6 -49.75 13.9 -49.75 L14.3 -49.55 14.5 -49.15 14.3 -48.7 Q14.15 -48.55 13.9 -48.55 13.6 -48.55 13.45 -48.7 13.3 -48.9 13.3 -49.15 L13.45 -49.55 M24.75 -27.0 L25.95 -27.65 26.6 -27.15 Q28.45 -25.4 26.4 -23.7 L24.9 -24.3 26.6 -24.75 26.6 -25.25 Q26.55 -26.95 24.75 -27.0 M24.45 -24.55 L24.25 -24.8 Q23.45 -25.75 24.35 -26.65 L24.25 -26.1 Q24.1 -25.25 24.45 -24.55 M7.1 -35.7 Q4.45 -41.4 10.85 -44.3 13.4 -45.45 14.75 -43.2 20.4 -33.35 10.0 -32.8 L7.8 -34.85 Q14.5 -31.05 16.05 -38.75 16.5 -40.7 14.7 -41.4 6.9 -44.55 7.1 -35.7 M1.05 -45.4 L0.95 -45.15 Q0.85 -45.0 0.65 -45.0 L0.4 -45.15 0.25 -45.4 0.4 -45.65 0.65 -45.8 0.95 -45.65 1.05 -45.4 M1.55 -39.45 Q2.15 -38.8 1.9 -38.35 -2.15 -31.4 -4.8 -39.0 L-3.45 -41.2 Q-3.9 -39.7 -3.2 -38.65 -0.4 -34.05 1.55 -39.45 M-3.3 -41.35 L-2.95 -41.6 Q-1.35 -42.45 0.05 -41.1 L-0.35 -41.25 -3.3 -41.35 M2.75 -29.2 Q2.75 -27.75 1.7 -26.75 0.7 -25.75 -0.8 -25.75 -2.25 -25.75 -3.3 -26.75 -4.3 -27.75 -4.3 -29.2 -4.3 -30.6 -3.3 -31.6 -2.25 -32.6 -0.8 -32.6 0.7 -32.6 1.7 -31.6 2.75 -30.6 2.75 -29.2 M5.65 -32.35 L5.8 -32.65 6.1 -32.8 6.45 -32.65 6.55 -32.35 6.45 -32.05 6.1 -31.9 Q5.95 -31.9 5.8 -32.05 5.65 -32.15 5.65 -32.35 M1.15 -27.45 Q1.95 -28.2 1.95 -29.2 1.95 -30.25 1.15 -30.95 0.35 -31.7 -0.8 -31.7 -1.95 -31.7 -2.75 -30.95 -3.55 -30.25 -3.55 -29.2 -3.55 -28.2 -2.75 -27.45 -1.95 -26.75 -0.8 -26.75 0.35 -26.75 1.15 -27.45 M19.45 -31.7 L19.3 -31.35 Q19.15 -31.2 18.95 -31.2 L18.6 -31.35 18.45 -31.7 18.6 -32.05 18.95 -32.2 19.3 -32.05 19.45 -31.7 M11.5 -28.15 L11.15 -28.25 Q9.8 -27.5 9.25 -26.2 10.75 -25.55 12.4 -26.2 L11.5 -28.15 M17.4 -25.0 Q18.1 -25.75 19.05 -25.75 20.05 -25.75 20.75 -25.0 21.45 -24.25 21.45 -23.2 21.45 -22.1 20.75 -21.35 20.05 -20.6 19.05 -20.6 18.1 -20.6 17.4 -21.35 16.7 -22.1 16.7 -23.2 16.7 -24.25 17.4 -25.0 M16.7 -28.4 L17.05 -28.25 17.15 -28.0 17.05 -27.65 16.7 -27.55 16.4 -27.65 16.3 -28.0 16.4 -28.25 16.7 -28.4 M10.9 -29.15 L11.65 -28.75 Q14.1 -27.25 12.7 -24.7 L12.0 -24.55 Q6.9 -24.85 10.9 -29.15 M17.45 -23.15 Q17.45 -22.4 17.9 -21.85 18.4 -21.35 19.05 -21.35 19.75 -21.35 20.2 -21.85 20.65 -22.4 20.65 -23.15 L20.2 -24.4 Q19.75 -24.9 19.05 -24.9 18.4 -24.9 17.9 -24.4 17.45 -23.9 17.45 -23.15 M14.2 -20.65 L14.3 -20.9 14.55 -21.0 14.8 -20.9 14.9 -20.65 14.8 -20.4 Q14.7 -20.3 14.55 -20.3 L14.3 -20.4 14.2 -20.65 M13.6 -16.05 Q13.6 -16.55 13.2 -16.9 12.85 -17.3 12.35 -17.3 11.85 -17.3 11.5 -16.9 11.1 -16.55 11.1 -16.05 11.1 -15.55 11.5 -15.2 11.85 -14.8 12.35 -14.8 12.85 -14.8 13.2 -15.2 13.6 -15.55 13.6 -16.05 M13.9 -17.65 Q14.5 -17.0 14.5 -16.1 14.5 -15.2 13.9 -14.55 13.25 -13.9 12.4 -13.9 11.55 -13.9 10.95 -14.55 10.35 -15.2 10.35 -16.1 10.35 -17.0 10.95 -17.65 11.55 -18.25 12.4 -18.25 13.25 -18.25 13.9 -17.65 M20.2 -15.6 L18.6 -16.2 18.65 -14.95 19.55 -14.7 20.15 -15.05 20.2 -15.6 M16.3 -16.05 L16.2 -16.25 16.3 -16.45 16.55 -16.55 16.8 -16.45 16.9 -16.25 16.8 -16.05 16.55 -16.0 16.3 -16.05 M18.3 -16.4 Q18.75 -16.8 19.4 -16.8 20.05 -16.8 20.5 -16.4 20.95 -16.0 20.95 -15.4 20.95 -14.8 20.5 -14.4 20.05 -14.0 19.4 -14.0 18.75 -14.0 18.3 -14.4 17.85 -14.8 17.85 -15.4 17.85 -16.0 18.3 -16.4 M4.05 -18.0 Q1.85 -17.1 1.8 -20.75 L5.35 -20.95 5.35 -20.2 5.2 -20.25 Q0.85 -21.0 4.05 -18.0 M8.9 -18.95 L9.2 -18.85 9.35 -18.65 9.2 -18.35 8.9 -18.3 8.6 -18.35 8.5 -18.65 8.6 -18.85 8.9 -18.95 M3.3 -11.6 Q3.7 -12.55 3.2 -13.5 2.9 -14.2 2.1 -14.2 L1.8 -14.0 1.3 -11.65 0.85 -11.8 Q0.15 -13.7 1.95 -14.95 3.95 -14.0 4.75 -12.15 L4.65 -12.05 Q4.05 -11.5 3.3 -11.6 M23.2 -18.2 L23.3 -17.95 23.2 -17.65 22.9 -17.55 Q22.75 -17.55 22.65 -17.65 L22.5 -17.95 22.65 -18.2 22.9 -18.35 23.2 -18.2 M24.3 -19.35 L24.15 -19.6 24.3 -19.85 24.55 -19.95 24.8 -19.85 24.95 -19.6 24.8 -19.35 Q24.7 -19.25 24.55 -19.25 L24.3 -19.35 M6.7 -15.8 L7.05 -15.95 7.35 -15.8 7.45 -15.5 7.35 -15.2 7.05 -15.1 6.7 -15.2 6.6 -15.5 6.7 -15.8 M-12.45 -33.55 L-12.5 -33.35 Q-12.65 -31.55 -11.45 -30.1 -10.7 -29.05 -9.5 -29.75 -7.5 -30.95 -8.55 -33.2 -10.5 -34.2 -12.45 -33.55 M-13.2 -34.3 Q-12.15 -35.4 -10.7 -35.4 -9.2 -35.4 -8.15 -34.3 -7.15 -33.2 -7.15 -31.7 -7.15 -30.15 -8.15 -29.05 -9.2 -27.95 -10.7 -27.95 -12.15 -27.95 -13.2 -29.05 -14.25 -30.15 -14.25 -31.7 -14.25 -33.2 -13.2 -34.3 M-18.6 -27.45 Q-19.1 -27.45 -19.45 -27.05 -19.85 -26.7 -19.85 -26.15 -19.85 -25.6 -19.45 -25.25 -19.1 -24.85 -18.6 -24.85 -18.05 -24.85 -17.7 -25.25 -17.3 -25.6 -17.3 -26.15 -17.3 -26.7 -17.7 -27.05 -18.05 -27.45 -18.6 -27.45 M-7.45 -25.7 L-7.65 -25.25 Q-7.85 -25.05 -8.15 -25.05 L-8.6 -25.25 -8.8 -25.7 -8.6 -26.15 -8.15 -26.35 -7.65 -26.15 -7.45 -25.7 M-17.1 -27.65 Q-16.55 -27.0 -16.55 -26.15 -16.55 -25.3 -17.1 -24.65 -17.7 -24.05 -18.55 -24.05 -19.4 -24.05 -19.95 -24.65 -20.55 -25.3 -20.55 -26.15 -20.55 -27.0 -19.95 -27.65 -19.4 -28.25 -18.55 -28.25 -17.7 -28.25 -17.1 -27.65 M-21.3 -18.5 L-21.7 -18.65 Q-21.95 -19.05 -21.65 -19.55 L-20.95 -20.75 -19.95 -19.95 Q-20.5 -19.95 -20.9 -19.5 -21.3 -19.1 -21.3 -18.5 M-19.2 -19.3 L-18.7 -18.35 -19.15 -18.15 -19.2 -19.3 M-1.5 -23.65 Q-1.0 -23.05 -1.0 -22.25 -1.0 -21.45 -1.5 -20.9 -2.05 -20.35 -2.8 -20.35 -3.55 -20.35 -4.05 -20.9 -4.6 -21.45 -4.6 -22.25 -4.6 -23.05 -4.05 -23.65 -3.55 -24.2 -2.8 -24.2 -2.05 -24.2 -1.5 -23.65 M-3.6 -22.75 L-4.05 -22.75 Q-3.8 -21.5 -2.6 -21.25 L-2.25 -21.2 -1.85 -22.5 -2.75 -23.3 -3.6 -22.75 M-7.4 -19.75 Q-7.1 -20.15 -6.65 -20.15 -6.2 -20.15 -5.9 -19.75 -5.6 -19.4 -5.6 -18.9 -5.6 -18.4 -5.9 -18.05 L-6.65 -17.65 -7.4 -18.05 -7.7 -18.9 -7.4 -19.75 M-6.7 -19.5 L-7.1 -19.2 -6.55 -18.4 -6.3 -18.4 -6.7 -19.5 M-9.8 -13.3 Q-10.0 -13.3 -10.1 -13.45 L-10.25 -13.8 -10.1 -14.1 -9.8 -14.25 -9.45 -14.1 -9.3 -13.8 Q-9.3 -13.6 -9.45 -13.45 -9.6 -13.3 -9.8 -13.3 M-7.35 -15.6 Q-6.7 -16.25 -5.85 -16.25 -4.95 -16.25 -4.35 -15.6 -3.7 -14.95 -3.7 -14.0 -3.7 -13.05 -4.35 -12.4 -4.95 -11.75 -5.85 -11.75 -6.7 -11.75 -7.35 -12.4 -7.95 -13.05 -7.95 -14.0 -7.95 -14.95 -7.35 -15.6 M-10.0 -18.8 L-9.7 -18.95 -9.35 -18.8 -9.2 -18.5 -9.35 -18.15 -9.7 -18.05 -10.0 -18.15 -10.15 -18.5 -10.0 -18.8 M-5.7 -15.5 L-7.35 -14.8 Q-7.0 -12.25 -4.75 -13.2 L-4.7 -13.45 Q-4.4 -14.8 -5.7 -15.5 M-10.6 -10.9 L-10.6 -10.05 -11.45 -10.05 -11.45 -10.9 -10.6 -10.9 M-14.25 -12.5 L-14.05 -12.85 -13.65 -12.95 -13.2 -12.85 -13.0 -12.5 -13.2 -12.2 Q-13.4 -12.05 -13.65 -12.05 -13.9 -12.05 -14.05 -12.2 L-14.25 -12.5 M-14.45 -17.85 L-14.1 -18.05 -13.75 -17.85 -13.6 -17.4 Q-13.6 -17.15 -13.75 -17.0 L-14.1 -16.8 -14.45 -17.0 -14.6 -17.4 -14.45 -17.85 M-18.7 -12.95 Q-18.3 -13.4 -17.75 -13.4 -17.25 -13.4 -16.85 -12.95 -16.45 -12.5 -16.45 -11.85 -16.45 -11.25 -16.85 -10.8 -17.25 -10.35 -17.75 -10.35 -18.3 -10.35 -18.7 -10.8 -19.1 -11.25 -19.1 -11.85 -19.1 -12.5 -18.7 -12.95 M-17.55 -22.05 L-17.15 -22.25 -16.7 -22.05 -16.55 -21.65 -16.7 -21.2 -17.15 -21.05 -17.55 -21.2 -17.75 -21.65 -17.55 -22.05 M-12.6 -21.65 L-12.4 -21.75 -12.15 -21.65 -12.1 -21.45 -12.15 -21.2 Q-12.3 -21.1 -12.4 -21.1 L-12.6 -21.2 -12.75 -21.45 -12.6 -21.65 M-1.35 -16.65 L-1.2 -16.35 Q-1.2 -16.15 -1.35 -16.05 L-1.8 -15.95 -2.2 -16.05 -2.35 -16.35 -2.2 -16.65 -1.8 -16.75 -1.35 -16.65 M-17.25 -11.1 Q-17.05 -11.55 -17.35 -11.9 L-17.55 -12.15 -18.15 -12.6 -18.3 -11.3 -17.7 -11.05 -17.25 -11.1 M-6.8 -8.9 L-6.7 -8.7 -6.8 -8.5 -7.1 -8.4 -7.4 -8.5 -7.5 -8.7 -7.4 -8.9 -7.1 -9.0 -6.8 -8.9" fill="#2f2f2f" fill-rule="evenodd" stroke="none"/>
    <path d="M-22.55 -44.95 Q-18.35 -55.35 -10.85 -48.15 L-9.9 -47.2 -9.35 -47.3 Q-10.0 -58.45 -0.65 -55.0 1.05 -54.4 2.1 -52.85 L4.1 -53.8 Q6.15 -67.75 19.15 -63.2 23.3 -61.8 24.7 -57.65 26.5 -52.2 24.0 -46.95 32.25 -45.95 30.15 -38.75 L29.5 -37.25 29.85 -36.55 30.15 -36.7 Q33.45 -35.0 32.95 -31.5 L32.65 -30.3 Q29.5 -33.4 25.1 -32.8 26.25 -38.7 20.6 -40.7 L19.8 -40.9 Q23.3 -49.8 15.2 -53.45 L12.15 -54.35 Q7.35 -52.15 4.95 -47.5 -3.0 -52.75 -6.95 -44.15 L-7.95 -41.45 Q-17.4 -43.7 -17.1 -33.9 -24.9 -30.7 -24.35 -22.25 -31.55 -28.35 -24.75 -34.8 -27.05 -40.25 -22.8 -44.7 L-22.6 -44.8 -22.55 -44.95 M24.35 -26.65 L24.55 -26.95 24.75 -27.0 Q26.55 -26.95 26.6 -25.25 L26.6 -24.75 24.9 -24.3 24.7 -24.25 24.45 -24.55 Q24.1 -25.25 24.25 -26.1 L24.35 -26.65 M7.1 -35.7 Q6.9 -44.55 14.7 -41.4 16.5 -40.7 16.05 -38.75 14.5 -31.05 7.8 -34.85 L7.15 -35.35 7.1 -35.7 M-3.45 -41.2 L-3.35 -41.4 -3.35 -41.3 -3.3 -41.35 -0.35 -41.25 0.05 -41.1 1.4 -40.2 1.55 -39.45 Q-0.4 -34.05 -3.2 -38.65 -3.9 -39.7 -3.45 -41.2 M1.15 -27.45 Q0.35 -26.75 -0.8 -26.75 -1.95 -26.75 -2.75 -27.45 -3.55 -28.2 -3.55 -29.2 -3.55 -30.25 -2.75 -30.95 -1.95 -31.7 -0.8 -31.7 0.35 -31.7 1.15 -30.95 1.95 -30.25 1.95 -29.2 1.95 -28.2 1.15 -27.45 M11.5 -28.15 L12.4 -26.2 Q10.75 -25.55 9.25 -26.2 9.8 -27.5 11.15 -28.25 L11.5 -28.15 M17.45 -23.15 Q17.45 -23.9 17.9 -24.4 18.4 -24.9 19.05 -24.9 19.75 -24.9 20.2 -24.4 L20.65 -23.15 Q20.65 -22.4 20.2 -21.85 19.75 -21.35 19.05 -21.35 18.4 -21.35 17.9 -21.85 17.45 -22.4 17.45 -23.15 M13.6 -16.05 Q13.6 -15.55 13.2 -15.2 12.85 -14.8 12.35 -14.8 11.85 -14.8 11.5 -15.2 11.1 -15.55 11.1 -16.05 11.1 -16.55 11.5 -16.9 11.85 -17.3 12.35 -17.3 12.85 -17.3 13.2 -16.9 13.6 -16.55 13.6 -16.05 M20.2 -15.6 L20.15 -15.05 19.55 -14.7 18.65 -14.95 18.6 -16.2 20.2 -15.6 M5.35 -20.2 Q5.35 -19.3 5.0 -18.65 4.6 -18.0 4.05 -18.0 0.85 -21.0 5.2 -20.25 L5.35 -20.2 M1.3 -11.65 L1.8 -14.0 2.1 -14.2 Q2.9 -14.2 3.2 -13.5 3.7 -12.55 3.3 -11.6 2.65 -10.95 1.7 -11.3 L1.3 -11.45 1.3 -11.65 M-12.45 -33.55 Q-10.5 -34.2 -8.55 -33.2 -7.5 -30.95 -9.5 -29.75 -10.7 -29.05 -11.45 -30.1 -12.65 -31.55 -12.5 -33.35 L-12.45 -33.55 M-18.6 -27.45 Q-18.05 -27.45 -17.7 -27.05 -17.3 -26.7 -17.3 -26.15 -17.3 -25.6 -17.7 -25.25 -18.05 -24.85 -18.6 -24.85 -19.1 -24.85 -19.45 -25.25 -19.85 -25.6 -19.85 -26.15 -19.85 -26.7 -19.45 -27.05 -19.1 -27.45 -18.6 -27.45 M-19.15 -18.15 Q-19.2 -17.65 -19.55 -17.35 -19.95 -17.05 -20.4 -17.15 -20.8 -17.2 -21.1 -17.6 L-21.3 -18.5 Q-21.3 -19.1 -20.9 -19.5 -20.5 -19.95 -19.95 -19.95 L-19.2 -19.3 -19.15 -18.15 M-3.6 -22.75 L-2.75 -23.3 -1.85 -22.5 -2.25 -21.2 -2.6 -21.25 Q-3.8 -21.5 -4.05 -22.75 L-3.6 -22.75 M-6.7 -19.5 L-6.3 -18.4 -6.55 -18.4 -7.1 -19.2 -6.7 -19.5 M-5.7 -15.5 Q-4.4 -14.8 -4.7 -13.45 L-4.75 -13.2 Q-7.0 -12.25 -7.35 -14.8 L-5.7 -15.5 M-17.25 -11.1 L-17.7 -11.05 -18.3 -11.3 -18.15 -12.6 -17.55 -12.15 -17.35 -11.9 Q-17.05 -11.55 -17.25 -11.1" fill="#444444" fill-rule="evenodd" stroke="none"/>
  </g>
</svg>
