<?xml version="1.0" encoding="UTF-8" standalone="no"?>
<svg xmlns:ffdec="https://www.free-decompiler.com/flash" xmlns:xlink="http://www.w3.org/1999/xlink" ffdec:objectType="shape" height="160.85px" width="135.3px" xmlns="http://www.w3.org/2000/svg">
  <g transform="matrix(1.0, 0.0, 0.0, 1.0, 67.3, 159.15)">
    <path d="M0.2 -155.2 L0.25 -155.25 Q0.3 -154.35 1.4 -154.35 2.1 -154.35 2.55 -155.25 L3.35 -155.9 Q5.85 -155.8 7.2 -154.65 8.05 -154.7 9.25 -153.4 L11.0 -151.0 Q12.35 -148.8 12.35 -145.75 L11.9 -143.25 11.4 -141.15 Q11.2 -139.2 9.8 -137.75 L8.5 -136.35 8.6 -135.7 8.8 -135.4 8.9 -134.8 Q9.2 -134.25 10.0 -134.25 L11.2 -135.1 Q12.15 -136.0 16.45 -136.0 24.2 -136.0 27.75 -129.4 29.9 -125.45 29.9 -121.6 L29.75 -120.8 29.6 -120.25 29.65 -120.05 29.6 -119.7 Q29.55 -117.9 30.8 -117.9 31.8 -117.9 32.15 -119.2 L34.0 -119.6 Q41.0 -119.6 43.65 -112.75 45.05 -109.2 45.05 -104.7 L44.7 -100.8 44.3 -98.25 44.4 -97.45 Q44.7 -96.75 45.5 -96.75 46.1 -96.75 46.5 -97.5 L47.25 -97.75 48.3 -98.0 Q49.9 -98.0 54.25 -94.6 55.4 -93.75 55.8 -92.75 L56.35 -90.85 Q57.55 -86.7 57.55 -83.15 L56.8 -77.5 55.05 -74.6 53.55 -71.85 53.6 -71.55 53.55 -71.35 53.65 -70.8 Q53.9 -70.15 54.75 -70.15 55.5 -70.15 56.1 -70.7 56.7 -71.25 59.0 -71.25 62.95 -71.25 64.55 -66.6 65.4 -64.15 65.4 -61.4 65.4 -58.55 63.75 -55.35 L62.1 -52.15 62.15 -51.8 62.1 -51.45 Q62.1 -50.75 63.25 -50.55 64.55 -50.25 65.0 -49.1 65.6 -47.65 65.6 -46.2 65.6 -42.75 63.05 -39.3 58.7 -33.4 48.6 -33.0 L46.95 -32.75 Q45.7 -32.75 44.8 -33.1 L44.75 -32.55 45.0 -31.5 45.0 -31.45 Q44.65 -29.75 41.1 -27.6 36.3 -24.75 29.5 -24.75 27.05 -24.75 24.8 -26.35 L24.05 -26.9 24.4 -28.5 Q24.4 -29.6 23.55 -29.85 22.65 -30.05 21.85 -28.5 L19.9 -25.4 Q18.75 -23.3 17.35 -22.2 14.85 -20.25 9.5 -20.25 4.2 -20.25 0.9 -23.6 L-0.75 -25.65 -0.65 -26.3 Q-0.65 -28.65 -2.55 -26.95 -3.4 -26.9 -3.5 -25.9 L-5.25 -23.75 Q-6.35 -22.3 -7.85 -21.2 -10.75 -19.05 -14.4 -19.05 -22.3 -19.05 -25.75 -22.2 L-27.5 -24.35 -28.15 -25.15 -28.15 -25.4 -28.35 -26.0 Q-28.65 -26.55 -29.35 -26.55 L-32.15 -24.2 Q-34.9 -21.9 -37.45 -21.9 -41.55 -21.9 -45.65 -24.75 -48.35 -26.65 -49.05 -27.8 L-50.2 -29.65 -50.6 -30.8 -50.5 -31.35 -50.65 -31.85 Q-50.75 -33.7 -51.95 -32.75 L-52.1 -32.6 -52.95 -32.75 Q-56.45 -33.1 -57.85 -33.85 -59.55 -34.75 -60.55 -36.05 L-61.75 -37.9 Q-63.15 -39.8 -64.0 -42.05 -64.9 -44.4 -64.9 -46.15 L-64.3 -49.1 -63.4 -51.6 -61.4 -54.5 Q-60.45 -55.45 -58.95 -56.1 L-58.6 -56.3 -57.8 -56.25 Q-55.9 -56.25 -55.9 -57.4 -55.9 -57.95 -59.45 -59.65 -63.0 -62.35 -63.0 -67.7 -63.0 -70.05 -62.5 -72.55 -62.05 -74.85 -60.7 -76.05 L-60.1 -75.85 Q-59.7 -75.85 -59.35 -76.25 -59.0 -76.65 -59.0 -77.05 L-59.0 -77.3 -58.75 -77.6 Q-58.75 -78.8 -60.2 -78.8 L-60.25 -78.85 -62.8 -81.15 Q-63.65 -82.2 -63.65 -85.9 L-63.6 -88.6 Q-63.4 -90.05 -62.65 -91.5 L-61.75 -92.85 -60.55 -94.3 Q-59.35 -95.45 -57.65 -96.05 -56.6 -96.45 -56.6 -97.25 -56.6 -97.85 -56.9 -98.15 L-57.2 -100.05 -57.55 -102.65 -57.5 -107.55 Q-57.2 -109.9 -55.25 -113.25 -54.0 -115.3 -49.1 -118.6 L-46.55 -119.9 -43.75 -121.05 Q-41.7 -121.75 -39.45 -121.75 -38.35 -121.8 -38.35 -122.65 -38.35 -123.35 -38.75 -123.75 L-38.5 -124.7 Q-37.9 -127.9 -37.0 -129.65 -36.3 -131.05 -33.3 -133.5 -29.7 -136.5 -27.35 -136.5 -25.4 -136.5 -24.4 -136.0 L-22.7 -135.5 Q-21.25 -135.5 -21.25 -136.65 -21.25 -137.0 -21.65 -137.35 -21.25 -138.3 -21.3 -140.9 -21.3 -145.7 -20.65 -146.8 -18.4 -150.85 -15.25 -153.35 -11.15 -156.6 -6.05 -156.6 -1.8 -156.6 -0.4 -155.6 L0.2 -155.2" fill="#444444" fill-rule="evenodd" stroke="none"/>
    <path d="M0.2 -155.2 L-0.4 -155.6 Q-1.8 -156.6 -6.05 -156.6 -11.15 -156.6 -15.25 -153.35 -18.4 -150.85 -20.65 -146.8 -21.3 -145.7 -21.3 -140.9 -21.25 -138.3 -21.65 -137.35 -21.25 -137.0 -21.25 -136.65 -21.25 -135.5 -22.7 -135.5 L-24.4 -136.0 Q-25.4 -136.5 -27.35 -136.5 -29.7 -136.5 -33.3 -133.5 -36.3 -131.05 -37.0 -129.65 -37.9 -127.9 -38.5 -124.7 L-38.75 -123.75 Q-38.35 -123.35 -38.35 -122.65 -38.35 -121.8 -39.45 -121.75 -41.7 -121.75 -43.75 -121.05 L-46.55 -119.9 -49.1 -118.6 Q-54.0 -115.3 -55.25 -113.25 -57.2 -109.9 -57.5 -107.55 L-57.55 -102.65 -57.2 -100.05 -56.9 -98.15 Q-56.6 -97.85 -56.6 -97.25 -56.6 -96.45 -57.65 -96.05 -59.35 -95.45 -60.55 -94.3 L-61.75 -92.85 -62.65 -91.5 Q-63.4 -90.05 -63.6 -88.6 L-63.65 -85.9 Q-63.65 -82.2 -62.8 -81.15 L-60.25 -78.85 -60.2 -78.8 Q-58.75 -78.8 -58.75 -77.6 L-59.0 -77.3 -59.0 -77.05 Q-59.0 -76.65 -59.35 -76.25 -59.7 -75.85 -60.1 -75.85 L-60.7 -76.05 Q-62.05 -74.85 -62.5 -72.55 -63.0 -70.05 -63.0 -67.7 -63.0 -62.35 -59.45 -59.65 -55.9 -57.95 -55.9 -57.4 -55.9 -56.25 -57.8 -56.25 L-58.6 -56.3 -58.95 -56.1 Q-60.45 -55.45 -61.4 -54.5 L-63.4 -51.6 -64.3 -49.1 -64.9 -46.15 Q-64.9 -44.4 -64.0 -42.05 -63.15 -39.8 -61.75 -37.9 L-60.55 -36.05 Q-59.55 -34.75 -57.85 -33.85 -56.45 -33.1 -52.95 -32.75 L-52.1 -32.6 -51.95 -32.75 Q-50.75 -33.7 -50.65 -31.85 L-50.5 -31.35 -50.6 -30.8 -50.2 -29.65 -49.05 -27.8 Q-48.35 -26.65 -45.65 -24.75 -41.55 -21.9 -37.45 -21.9 -34.9 -21.9 -32.15 -24.2 L-29.35 -26.55 Q-28.65 -26.55 -28.35 -26.0 L-28.15 -25.4 -28.15 -25.15 -27.5 -24.35 -25.75 -22.2 Q-22.3 -19.05 -14.4 -19.05 -10.75 -19.05 -7.85 -21.2 -6.35 -22.3 -5.25 -23.75 L-3.5 -25.9 Q-3.4 -26.9 -2.55 -26.95 -0.65 -28.65 -0.65 -26.3 L-0.75 -25.65 0.9 -23.6 Q4.2 -20.25 9.5 -20.25 14.85 -20.25 17.35 -22.2 18.75 -23.3 19.9 -25.4 L21.85 -28.5 Q22.65 -30.05 23.55 -29.85 24.4 -29.6 24.4 -28.5 L24.05 -26.9 24.8 -26.35 Q27.05 -24.75 29.5 -24.75 36.3 -24.75 41.1 -27.6 44.65 -29.75 45.0 -31.45 L45.0 -31.5 44.75 -32.55 44.8 -33.1 Q45.7 -32.75 46.95 -32.75 L48.6 -33.0 Q58.7 -33.4 63.05 -39.3 65.6 -42.75 65.6 -46.2 65.6 -47.65 65.0 -49.1 64.55 -50.25 63.25 -50.55 62.1 -50.75 62.1 -51.45 L62.15 -51.8 62.1 -52.15 63.75 -55.35 Q65.4 -58.55 65.4 -61.4 65.4 -64.15 64.55 -66.6 62.95 -71.25 59.0 -71.25 56.7 -71.25 56.1 -70.7 55.5 -70.15 54.75 -70.15 53.9 -70.15 53.65 -70.8 L53.55 -71.35 53.6 -71.55 53.55 -71.85 55.05 -74.6 56.8 -77.5 57.55 -83.15 Q57.55 -86.7 56.35 -90.85 L55.8 -92.75 Q55.4 -93.75 54.25 -94.6 49.9 -98.0 48.3 -98.0 L47.25 -97.75 46.5 -97.5 Q46.1 -96.75 45.5 -96.75 44.7 -96.75 44.4 -97.45 L44.3 -98.25 44.7 -100.8 45.05 -104.7 Q45.05 -109.2 43.65 -112.75 41.0 -119.6 34.0 -119.6 L32.15 -119.2 Q31.8 -117.9 30.8 -117.9 29.55 -117.9 29.6 -119.7 L29.65 -120.05 29.6 -120.25 29.75 -120.8 29.9 -121.6 Q29.9 -125.45 27.75 -129.4 24.2 -136.0 16.45 -136.0 12.15 -136.0 11.2 -135.1 L10.0 -134.25 Q9.2 -134.25 8.9 -134.8 L8.8 -135.4 8.6 -135.7 8.5 -136.35 9.8 -137.75 Q11.2 -139.2 11.4 -141.15 L11.9 -143.25 12.35 -145.75 Q12.35 -148.8 11.0 -151.0 L9.25 -153.4 Q8.05 -154.7 7.2 -154.65 5.85 -155.8 3.35 -155.9 L2.55 -155.25 Q2.1 -154.35 1.4 -154.35 0.3 -154.35 0.25 -155.25 L0.2 -155.2 M5.8 -158.4 Q10.75 -157.4 11.3 -154.65 L11.95 -153.7 13.05 -152.1 Q14.75 -150.0 14.75 -145.9 14.75 -143.75 13.8 -140.35 L13.15 -138.35 15.5 -138.35 Q24.95 -139.25 29.45 -131.75 32.15 -127.2 32.3 -122.05 L33.0 -122.15 Q36.7 -122.5 40.0 -120.25 44.1 -117.4 45.05 -115.1 46.75 -111.05 47.1 -109.6 47.4 -108.2 47.4 -104.65 L47.2 -100.55 47.2 -100.5 47.75 -100.55 Q50.75 -100.8 53.3 -98.15 L56.55 -95.7 Q58.05 -94.2 58.25 -93.25 L59.35 -88.25 Q60.0 -85.1 60.0 -83.15 L59.85 -80.15 59.05 -76.75 Q58.7 -75.2 57.75 -73.45 L61.35 -73.35 Q63.05 -72.85 64.35 -71.5 L66.0 -69.4 Q66.75 -68.45 67.3 -65.45 L67.75 -61.3 Q67.75 -58.1 66.75 -55.0 66.2 -53.25 65.45 -52.25 66.85 -51.65 67.25 -50.15 68.0 -47.8 68.0 -46.2 68.0 -41.95 64.6 -37.55 59.1 -30.55 47.5 -30.55 L47.1 -30.55 Q46.55 -28.7 46.0 -28.15 44.55 -26.75 40.25 -24.75 34.75 -22.25 30.85 -22.25 26.3 -22.25 23.4 -24.2 L22.75 -24.7 20.8 -22.45 Q16.25 -17.75 10.15 -17.75 3.9 -17.75 -0.35 -21.3 L-2.3 -23.2 -4.25 -21.15 Q-8.8 -16.6 -14.3 -16.6 -19.3 -16.6 -23.9 -18.25 -28.95 -20.1 -29.65 -23.0 L-30.6 -22.15 Q-33.7 -19.4 -37.55 -19.4 -45.0 -19.4 -49.85 -24.75 -52.85 -28.1 -53.25 -30.15 -59.4 -30.55 -63.5 -35.8 -67.3 -40.7 -67.3 -46.15 -67.3 -51.9 -62.65 -56.6 L-61.6 -57.55 Q-63.1 -58.75 -64.05 -61.1 -65.4 -64.3 -65.4 -67.65 L-65.4 -70.35 -64.55 -74.1 Q-64.35 -75.25 -62.85 -77.3 L-62.65 -77.55 -63.05 -77.95 Q-65.0 -79.9 -65.55 -81.0 -66.0 -81.8 -66.1 -83.45 L-66.05 -85.9 Q-66.05 -93.2 -61.3 -97.05 L-59.7 -98.1 -60.0 -99.5 -60.0 -102.55 Q-60.0 -105.8 -59.5 -108.85 -58.75 -113.1 -57.25 -114.65 L-54.3 -117.6 Q-52.15 -119.65 -50.25 -120.75 -47.55 -122.35 -43.9 -123.55 L-41.2 -124.2 -41.15 -124.95 Q-41.15 -126.65 -39.7 -129.55 -38.25 -132.6 -36.75 -133.75 L-30.6 -138.0 Q-28.05 -139.45 -24.5 -138.5 L-23.4 -138.2 -23.6 -139.2 -23.6 -141.65 Q-23.6 -145.75 -23.25 -146.8 -22.6 -148.75 -19.1 -152.75 L-16.1 -155.4 -11.6 -158.1 Q-7.55 -159.9 -2.05 -158.6 L0.9 -157.7 Q2.1 -159.1 5.8 -158.4" fill="#2f2f2f" fill-rule="evenodd" stroke="none"/>
    <path d="M27.55 -109.55 Q18.25 -115.3 12.55 -117.35 -6.65 -124.45 -23.4 -116.55 L-28.4 -114.25 -30.25 -113.1 -30.1 -113.15 -30.25 -113.05 -30.55 -112.95 -31.05 -112.7 Q-44.0 -106.1 -51.85 -89.7 -59.0 -74.55 -56.55 -65.55 -56.2 -64.35 -53.95 -50.85 -52.25 -40.8 -48.95 -33.75 -44.7 -24.65 -35.5 -16.35 L-35.0 -15.8 -34.4 -15.3 -33.7 -14.7 -32.45 -14.7 Q-27.05 -14.7 -24.0 -20.65 -22.15 -24.2 -19.1 -33.65 -15.75 -42.4 -10.75 -46.7 -3.85 -52.65 8.05 -52.65 17.6 -52.65 23.05 -48.2 26.9 -45.05 29.65 -38.35 L31.5 -34.0 31.35 -33.95 31.5 -33.95 33.95 -28.55 Q36.8 -24.1 42.0 -24.1 43.6 -24.1 44.75 -24.7 48.1 -29.45 51.05 -36.8 L51.2 -37.15 52.35 -40.1 Q56.95 -52.55 57.25 -63.35 57.5 -75.95 51.95 -87.75 47.35 -97.55 39.7 -103.15 35.05 -106.5 27.55 -109.55 M-39.35 -40.1 L-39.2 -40.3 -39.15 -40.25 -39.35 -40.1 M21.35 -120.25 L25.4 -118.8 Q29.1 -116.65 32.5 -113.2 44.85 -101.4 48.0 -98.0 51.9 -93.6 56.6 -83.55 58.2 -80.1 59.8 -73.0 61.3 -65.55 60.9 -63.3 59.2 -54.95 59.15 -50.95 59.1 -44.3 57.65 -38.8 57.15 -36.8 54.15 -31.45 L50.2 -23.95 50.1 -23.75 46.0 -18.3 43.45 -16.4 Q37.05 -12.15 35.65 -10.35 33.8 -8.2 28.9 -4.95 L21.95 -0.6 Q15.45 1.65 4.5 1.7 L-9.55 0.8 Q-15.2 0.1 -21.35 -2.55 -26.35 -4.75 -30.7 -7.8 L-38.4 -13.4 Q-42.55 -18.35 -46.75 -22.7 -50.05 -26.55 -53.15 -33.1 -55.3 -37.7 -58.35 -50.6 -61.0 -61.85 -61.25 -64.55 -62.3 -76.9 -56.3 -90.35 L-52.55 -98.7 Q-51.95 -100.4 -51.7 -101.55 L-42.85 -109.2 Q-31.2 -119.45 -24.8 -122.45 -21.6 -123.95 -14.55 -124.65 L-6.05 -125.25 2.1 -124.75 10.25 -123.45 16.05 -122.45 Q17.2 -121.65 21.35 -120.25 M22.95 -10.55 L23.05 -10.6 23.0 -10.65 22.95 -10.55" fill="#fd0202" fill-rule="evenodd" stroke="none"/>
    <path d="M27.55 -109.55 Q35.05 -106.5 39.7 -103.15 47.35 -97.55 51.95 -87.75 57.5 -75.95 57.25 -63.35 56.95 -52.55 52.35 -40.1 L51.2 -37.15 51.05 -36.8 Q48.1 -29.45 44.75 -24.7 43.6 -24.1 42.0 -24.1 36.8 -24.1 33.95 -28.55 L31.5 -33.95 31.35 -33.95 31.5 -34.0 29.65 -38.35 Q26.9 -45.05 23.05 -48.2 17.6 -52.65 8.05 -52.65 -3.85 -52.65 -10.75 -46.7 -15.75 -42.4 -19.1 -33.65 -22.15 -24.2 -24.0 -20.65 -27.05 -14.7 -32.45 -14.7 L-33.7 -14.7 -34.4 -15.3 -35.0 -15.8 -35.5 -16.35 Q-44.7 -24.65 -48.95 -33.75 -52.25 -40.8 -53.95 -50.85 -56.2 -64.35 -56.55 -65.55 -59.0 -74.55 -51.85 -89.7 -44.0 -106.1 -31.05 -112.7 L-30.55 -112.95 -30.25 -113.05 -30.1 -113.15 -30.25 -113.1 -28.4 -114.25 -23.4 -116.55 Q-6.65 -124.45 12.55 -117.35 18.25 -115.3 27.55 -109.55 M-39.2 -40.3 L-40.8 -41.3 Q-41.95 -42.3 -42.7 -43.85 -43.75 -46.15 -43.5 -52.15 -43.2 -57.25 -42.4 -60.35 -40.6 -67.35 -28.3 -72.2 -28.1 -75.2 -26.0 -78.95 -22.7 -84.5 -17.45 -87.0 -13.4 -88.85 -10.7 -86.55 -7.7 -83.25 -5.55 -81.95 -3.0 -78.9 1.3 -76.85 9.05 -73.25 16.5 -76.75 25.05 -80.75 25.85 -88.25 26.5 -93.05 24.0 -98.3 17.2 -112.85 -0.75 -114.05 -14.3 -115.1 -26.1 -109.6 -40.9 -102.65 -45.65 -93.4 -49.75 -85.75 -46.3 -78.5 L-46.25 -78.45 -47.45 -78.85 -48.5 -78.8 Q-49.45 -78.4 -50.7 -74.5 -51.95 -70.3 -52.55 -65.3 -52.8 -62.3 -51.35 -56.5 -50.05 -51.25 -48.4 -47.7 -46.0 -42.65 -43.8 -41.2 -42.35 -40.15 -39.35 -40.1 L-39.15 -40.25 -39.2 -40.3 M22.95 -10.55 L23.0 -10.65 23.05 -10.6 22.95 -10.55" fill="#ffff00" fill-rule="evenodd" stroke="none"/>
    <path d="M-39.35 -40.1 Q-42.35 -40.15 -43.8 -41.2 -46.0 -42.65 -48.4 -47.7 -50.05 -51.25 -51.35 -56.5 -52.8 -62.3 -52.55 -65.3 -51.95 -70.3 -50.7 -74.5 -49.45 -78.4 -48.5 -78.8 L-47.45 -78.85 -46.25 -78.45 -46.3 -78.5 Q-49.75 -85.75 -45.65 -93.4 -40.9 -102.65 -26.1 -109.6 -14.3 -115.1 -0.75 -114.05 17.2 -112.85 24.0 -98.3 26.5 -93.05 25.85 -88.25 25.05 -80.75 16.5 -76.75 9.05 -73.25 1.3 -76.85 -3.0 -78.9 -5.55 -81.95 -7.7 -83.25 -10.7 -86.55 -13.4 -88.85 -17.45 -87.0 -22.7 -84.5 -26.0 -78.95 -28.1 -75.2 -28.3 -72.2 -40.6 -67.35 -42.4 -60.35 -43.2 -57.25 -43.5 -52.15 -43.75 -46.15 -42.7 -43.85 -41.95 -42.3 -40.8 -41.3 L-39.2 -40.3 -39.35 -40.1" fill="#ffff99" fill-rule="evenodd" stroke="none"/>
  </g>
</svg>
