<?xml version="1.0" encoding="UTF-8" standalone="no"?>
<svg xmlns:ffdec="https://www.free-decompiler.com/flash" xmlns:xlink="http://www.w3.org/1999/xlink" ffdec:objectType="shape" height="168.35px" width="133.1px" xmlns="http://www.w3.org/2000/svg">
  <g transform="matrix(1.0, 0.0, 0.0, 1.0, 68.25, 199.15)">
    <path d="M18.25 -161.4 L19.55 -159.0 19.65 -157.25 Q19.65 -155.1 18.25 -152.85 16.2 -149.6 12.15 -149.6 8.7 -149.6 6.75 -152.1 5.15 -154.15 5.15 -156.9 5.15 -159.6 6.3 -161.55 8.0 -164.35 12.05 -165.0 13.8 -165.25 15.75 -163.95 17.3 -162.9 18.25 -161.4 M11.75 -162.8 Q8.3 -161.3 7.45 -159.8 7.05 -159.05 7.05 -156.85 7.05 -155.25 7.7 -154.0 8.95 -151.6 12.05 -151.6 15.25 -151.6 16.8 -154.35 17.6 -155.7 17.75 -157.25 17.75 -159.65 15.4 -161.5 13.25 -163.1 11.75 -162.8 M21.1 -143.95 Q19.8 -143.45 19.4 -142.75 L18.75 -141.7 17.9 -140.8 Q16.8 -139.55 16.8 -138.8 L17.0 -136.85 Q17.0 -134.75 17.5 -133.75 18.75 -131.25 22.75 -131.25 26.85 -131.25 28.6 -133.9 29.5 -135.25 29.6 -136.75 29.6 -138.55 28.0 -141.45 25.9 -145.45 22.8 -144.5 L21.1 -143.95 M29.55 -142.7 Q31.5 -139.25 31.5 -136.7 31.5 -134.75 30.0 -132.6 27.65 -129.25 22.8 -129.25 17.4 -129.25 15.75 -133.0 14.9 -134.85 15.15 -136.9 15.15 -140.4 16.1 -142.15 17.8 -145.35 23.0 -146.5 26.9 -147.35 29.55 -142.7 M35.9 -125.6 Q35.3 -124.75 35.3 -123.75 35.3 -122.2 36.05 -120.8 37.35 -118.4 40.3 -118.4 43.8 -118.4 45.0 -120.55 45.6 -121.65 45.5 -122.8 45.5 -123.8 45.15 -124.4 L43.55 -126.4 Q42.05 -128.3 39.45 -126.95 36.4 -125.4 35.9 -125.6 M40.25 -129.0 Q44.65 -128.95 46.4 -126.25 47.4 -124.75 47.4 -122.75 47.4 -120.9 46.35 -119.2 44.5 -116.4 40.3 -116.4 37.1 -116.4 35.15 -118.7 33.4 -120.8 33.4 -123.7 33.4 -125.65 34.65 -126.8 36.25 -128.25 40.25 -129.0 M17.1 -147.0 L17.0 -147.55 Q17.0 -148.3 17.95 -148.4 18.9 -148.45 18.9 -147.5 L18.8 -146.85 Q18.6 -146.5 18.0 -146.5 L17.45 -146.6 17.15 -146.8 17.1 -147.0 M8.5 -145.1 Q7.85 -145.1 7.5 -145.75 L7.3 -146.3 Q7.3 -147.3 8.4 -147.25 9.5 -147.15 9.5 -146.25 9.5 -145.1 8.5 -145.1 M11.7 -117.8 L11.0 -116.9 Q11.0 -116.45 11.3 -115.9 11.55 -115.35 11.75 -115.35 L13.95 -115.65 14.55 -116.3 Q14.3 -116.65 13.8 -117.75 13.25 -118.7 12.5 -119.05 L11.7 -117.8 M11.4 -120.75 Q11.9 -121.2 13.25 -121.05 L15.15 -118.75 16.65 -116.4 Q16.65 -115.7 15.6 -114.65 14.2 -113.4 12.3 -113.4 9.85 -113.4 9.2 -115.45 8.9 -116.5 9.05 -117.35 9.05 -119.15 9.5 -119.75 9.6 -119.95 10.45 -120.3 L11.4 -120.75 M2.8 -115.7 L2.1 -118.0 1.0 -120.15 Q-1.2 -122.25 -3.1 -120.55 -5.35 -118.55 -5.9 -118.75 L-6.1 -117.45 Q-6.1 -115.6 -5.65 -114.65 -4.75 -112.75 -2.0 -112.75 1.05 -112.75 2.2 -114.1 2.8 -114.8 2.8 -115.7 M3.6 -112.75 Q1.8 -110.75 -2.1 -110.75 -6.05 -110.75 -7.4 -113.95 -8.0 -115.3 -8.0 -117.5 -8.0 -119.6 -6.0 -121.25 -4.1 -122.75 -1.6 -122.9 4.75 -123.25 4.75 -115.65 4.75 -114.05 3.6 -112.75 M28.7 -114.35 L32.0 -114.1 Q33.25 -113.2 34.35 -110.95 35.3 -108.85 35.3 -107.65 L35.1 -106.6 Q37.9 -105.7 37.9 -102.3 37.9 -101.55 36.9 -100.6 35.65 -99.35 33.75 -99.35 31.7 -99.35 30.9 -101.05 30.55 -101.95 30.55 -102.8 30.55 -103.65 30.7 -104.3 27.2 -104.4 25.3 -107.35 24.35 -108.85 24.15 -110.4 24.15 -111.95 25.65 -113.55 26.15 -114.1 28.7 -114.35 M27.0 -112.15 L26.45 -111.3 26.05 -110.45 Q26.05 -109.4 27.15 -108.1 28.65 -106.35 30.95 -106.35 L31.8 -106.4 Q32.7 -106.5 33.15 -106.85 L33.25 -107.0 33.4 -107.75 32.4 -110.2 31.15 -112.25 Q30.0 -113.25 28.85 -111.5 27.8 -109.55 27.55 -109.55 26.5 -109.55 26.65 -110.7 L27.0 -112.0 27.0 -112.15 M32.75 -103.7 Q32.5 -103.35 32.5 -102.8 L32.75 -101.95 Q33.1 -101.3 33.65 -101.3 34.75 -101.3 36.0 -102.5 36.0 -103.2 35.65 -103.6 L34.0 -104.75 32.75 -103.7 M42.55 -106.55 Q44.15 -108.95 49.4 -109.0 52.95 -108.0 54.85 -105.1 56.4 -102.85 56.4 -100.6 56.4 -98.7 55.45 -97.05 53.6 -94.0 49.05 -94.0 44.25 -94.0 42.55 -98.0 41.65 -100.05 41.75 -102.25 41.75 -105.35 42.55 -106.55 M43.95 -104.3 Q43.6 -104.05 43.6 -103.6 L43.6 -102.2 Q43.6 -100.45 44.25 -98.8 45.35 -95.9 48.0 -95.9 52.55 -95.9 53.95 -98.25 54.7 -99.4 54.5 -100.65 54.5 -104.25 50.3 -106.65 L46.65 -106.8 Q45.55 -105.2 44.9 -104.9 L43.95 -104.3 M55.3 -86.65 Q55.3 -84.5 56.65 -84.5 57.75 -84.5 58.6 -85.65 L59.25 -86.8 Q59.25 -89.7 57.3 -89.8 55.3 -89.9 55.3 -86.65 M56.55 -91.75 Q59.9 -93.4 61.15 -86.75 61.15 -85.6 60.35 -84.35 59.1 -82.5 56.65 -82.5 54.2 -82.5 53.55 -84.45 53.25 -85.45 53.4 -86.6 53.4 -89.15 53.75 -89.75 54.2 -90.5 56.55 -91.75 M40.75 -80.35 Q36.65 -80.35 35.05 -84.4 34.25 -86.45 34.25 -88.35 34.25 -90.0 36.15 -91.3 37.9 -92.55 40.25 -92.7 46.25 -93.1 46.25 -87.05 46.25 -85.05 45.6 -83.5 44.25 -80.35 40.75 -80.35 M44.3 -86.95 Q44.3 -91.4 40.4 -90.55 36.5 -89.7 36.5 -86.9 36.5 -85.8 37.1 -84.45 38.05 -82.35 40.0 -82.35 43.2 -82.35 44.1 -84.7 44.5 -85.9 44.3 -86.95 M59.05 -62.75 L60.25 -61.3 60.25 -59.75 Q60.25 -58.1 59.35 -56.35 57.85 -53.4 54.55 -53.4 49.05 -53.4 49.05 -58.35 49.05 -59.5 49.55 -61.2 50.25 -63.7 51.5 -64.0 56.3 -65.3 59.05 -62.75 M45.1 -70.15 Q45.1 -68.85 44.5 -67.75 43.4 -65.65 40.7 -65.65 37.65 -65.65 36.9 -67.4 36.55 -68.3 36.8 -69.25 36.8 -75.0 40.95 -75.2 42.6 -75.3 43.8 -74.0 45.1 -72.6 45.1 -70.15 M41.0 -72.9 Q41.0 -72.45 39.9 -71.5 38.75 -70.55 38.75 -69.4 L38.75 -68.5 Q38.9 -67.6 39.75 -67.6 41.55 -67.6 42.35 -68.1 43.25 -68.65 43.25 -70.1 L42.8 -71.75 Q42.1 -73.1 41.0 -73.15 L41.0 -72.9 M46.5 -56.35 L45.35 -57.1 44.0 -57.3 Q43.85 -57.25 43.85 -56.6 L44.25 -55.9 Q44.55 -55.55 44.75 -55.55 45.65 -55.55 46.05 -55.85 L46.5 -56.35 M45.2 -59.55 Q48.35 -59.05 48.35 -56.5 48.35 -55.5 47.75 -54.7 46.85 -53.55 44.9 -53.55 43.0 -53.55 42.35 -55.1 42.0 -55.85 42.0 -56.75 42.0 -60.0 45.2 -59.55 M58.3 -59.9 Q58.3 -60.85 57.8 -61.3 56.5 -62.7 54.95 -62.8 53.2 -62.95 51.8 -61.4 51.2 -60.9 51.05 -60.0 L51.0 -58.4 Q51.0 -55.35 53.15 -55.35 56.7 -55.35 57.85 -57.55 58.45 -58.7 58.3 -59.9 M30.4 -76.55 Q31.75 -74.8 31.75 -72.55 31.75 -70.9 31.3 -70.05 30.35 -68.1 27.25 -68.1 24.75 -68.1 23.75 -70.15 23.25 -71.2 23.25 -72.25 23.25 -79.35 27.5 -78.55 29.15 -78.2 30.4 -76.55 M14.7 -83.3 Q17.2 -83.25 18.9 -81.35 20.85 -79.2 20.85 -75.75 20.85 -74.0 20.15 -72.8 18.65 -70.15 14.35 -70.15 10.65 -70.15 9.25 -72.85 8.5 -74.25 8.5 -76.05 8.5 -79.6 10.45 -81.6 12.15 -83.4 14.7 -83.3 M14.5 -80.6 L14.2 -79.95 Q13.9 -79.65 13.55 -79.65 13.25 -79.65 13.1 -79.9 L12.65 -80.15 Q11.6 -80.15 10.9 -78.1 L10.4 -76.0 Q10.4 -74.9 10.9 -73.85 11.75 -72.15 13.5 -72.15 17.45 -72.15 18.6 -73.85 19.2 -74.7 19.0 -75.75 19.0 -77.45 18.15 -79.1 16.9 -81.55 14.25 -81.25 L14.45 -81.05 14.5 -80.6 M29.75 -71.35 Q30.05 -72.0 29.85 -72.65 29.85 -75.8 27.5 -76.3 25.1 -76.85 25.1 -72.3 L25.5 -70.95 Q25.9 -70.05 26.35 -70.05 29.05 -70.05 29.75 -71.35 M30.4 -46.65 L28.75 -45.05 27.9 -43.95 Q27.75 -43.75 27.75 -43.15 27.75 -42.4 28.2 -41.65 28.75 -40.65 29.75 -40.65 32.65 -40.65 33.3 -41.6 33.65 -42.1 33.4 -42.6 33.4 -45.35 30.4 -46.65 M30.95 -38.75 Q25.85 -38.75 25.85 -43.15 25.85 -45.4 27.35 -46.9 28.7 -48.35 30.6 -48.45 35.3 -48.8 35.3 -42.55 35.3 -41.1 34.85 -40.35 33.9 -38.75 30.95 -38.75 M38.65 -34.35 Q37.5 -34.35 37.3 -35.1 37.15 -35.45 37.25 -35.9 37.25 -38.85 38.8 -38.6 40.3 -38.4 40.3 -36.15 40.3 -35.55 39.9 -35.0 39.45 -34.35 38.65 -34.35 M10.8 -42.65 Q8.75 -42.65 8.05 -44.4 7.75 -45.3 7.8 -46.15 7.8 -50.3 11.3 -49.7 14.75 -49.05 14.75 -45.8 14.75 -44.85 13.9 -43.9 12.75 -42.65 10.8 -42.65 M12.3 -45.2 L12.85 -45.85 12.0 -46.95 10.65 -47.9 9.95 -46.9 9.75 -46.15 9.8 -45.15 Q9.85 -44.6 10.25 -44.6 11.55 -44.6 12.3 -45.2 M3.6 -46.6 Q8.1 -46.5 8.1 -41.65 8.1 -40.3 7.4 -39.25 6.3 -37.5 3.7 -37.5 0.25 -37.5 -0.65 -39.9 -1.1 -41.05 -0.9 -42.15 -0.9 -44.25 0.5 -45.5 1.8 -46.6 3.6 -46.6 M3.8 -39.5 Q5.05 -39.5 5.7 -40.15 6.25 -40.75 6.25 -41.7 6.25 -44.45 3.6 -44.65 0.9 -44.9 0.9 -42.15 0.9 -41.1 1.1 -40.75 1.65 -39.5 3.8 -39.5 M15.45 -30.8 Q14.5 -30.8 14.25 -31.35 L14.25 -32.0 Q14.25 -33.05 15.55 -33.3 16.8 -33.6 16.8 -32.35 L16.5 -31.35 Q16.15 -30.8 15.45 -30.8 M45.8 -47.4 Q43.25 -47.5 43.25 -44.85 L43.45 -43.15 Q43.85 -42.05 45.1 -42.05 46.45 -42.05 47.5 -43.15 48.35 -44.1 48.35 -44.75 48.35 -47.3 45.8 -47.4 M50.25 -44.65 Q50.25 -43.15 49.0 -41.75 47.45 -40.05 45.05 -40.05 42.4 -40.05 41.6 -42.4 41.3 -43.25 41.3 -45.0 41.3 -47.05 41.55 -47.55 42.15 -48.95 44.8 -49.3 48.05 -49.65 49.45 -47.55 50.25 -46.3 50.25 -44.65 M-0.25 -161.4 Q-0.25 -158.7 -1.25 -156.5 -3.2 -152.25 -8.3 -152.25 -16.7 -152.25 -19.1 -156.95 -19.85 -158.45 -19.85 -162.25 L-19.75 -164.9 Q-19.55 -166.45 -18.75 -167.55 -17.2 -169.55 -16.0 -170.25 -13.8 -171.5 -9.5 -171.75 -3.3 -171.1 -1.25 -167.0 -0.25 -165.05 -0.25 -161.4 M-2.95 -166.2 Q-4.8 -169.85 -10.15 -169.9 -12.45 -169.95 -13.1 -169.4 L-14.25 -168.1 Q-14.75 -167.65 -15.55 -167.5 -16.25 -167.4 -16.85 -166.75 -17.65 -165.85 -17.9 -164.5 L-18.0 -162.25 Q-18.0 -159.15 -17.25 -157.85 -15.25 -154.25 -8.3 -154.25 -4.25 -154.25 -2.75 -157.7 -2.0 -159.45 -2.1 -161.25 -2.1 -164.45 -2.95 -166.2 M-20.1 -151.5 Q-20.1 -154.15 -17.25 -153.45 -14.4 -152.75 -14.4 -149.9 -14.4 -149.0 -14.85 -148.15 -15.45 -147.0 -16.7 -147.0 -18.4 -147.0 -19.4 -149.25 L-20.1 -151.5 M-17.45 -149.75 Q-17.35 -149.3 -16.8 -149.0 -16.65 -149.1 -16.45 -149.3 -16.3 -149.5 -16.3 -149.9 L-16.7 -150.95 -17.4 -151.6 -17.5 -150.5 -17.45 -149.75 M-41.5 -144.25 Q-40.4 -148.15 -37.5 -148.15 -36.85 -148.15 -36.6 -147.7 L-36.35 -147.1 Q-28.65 -150.45 -24.5 -146.15 -21.75 -143.3 -21.75 -139.9 -21.75 -137.45 -23.45 -135.0 -26.05 -131.35 -31.3 -131.35 -42.0 -131.35 -42.0 -140.2 L-41.5 -144.25 M-54.85 -126.0 Q-56.15 -123.75 -56.15 -122.4 -56.15 -116.5 -50.05 -116.5 -46.35 -116.5 -45.0 -119.25 -44.3 -120.65 -44.35 -122.05 -44.35 -123.0 -46.3 -125.25 -48.45 -127.8 -50.3 -128.35 -53.05 -129.15 -54.85 -126.0 M-52.15 -130.4 Q-47.6 -131.2 -44.6 -127.0 -42.4 -123.95 -42.4 -122.05 -42.4 -119.5 -43.4 -117.75 -45.25 -114.5 -50.15 -114.5 -55.25 -114.5 -57.15 -118.4 -58.1 -120.35 -58.05 -122.35 -58.05 -125.15 -57.25 -126.6 -56.0 -129.1 -52.15 -130.4 M-65.95 -105.05 Q-63.35 -107.6 -59.0 -108.35 -54.95 -108.3 -52.65 -104.25 -51.0 -101.35 -51.0 -98.9 -51.0 -96.6 -52.05 -95.0 -53.95 -92.25 -58.65 -92.25 -63.9 -92.25 -66.5 -95.7 -68.25 -97.95 -68.25 -100.2 -68.25 -102.8 -65.95 -105.05 M-66.35 -100.15 Q-66.35 -98.55 -64.7 -96.65 -62.55 -94.15 -59.15 -94.15 -55.05 -94.15 -53.55 -96.3 -52.85 -97.35 -52.85 -98.8 -52.85 -100.1 -54.1 -102.5 -55.55 -105.3 -57.15 -106.1 -60.0 -107.55 -63.05 -104.25 -65.65 -100.55 -66.3 -100.55 L-66.55 -100.55 -66.35 -100.15 M-46.4 -113.05 Q-45.25 -113.0 -45.25 -112.15 -45.25 -111.1 -46.5 -111.1 -47.75 -111.1 -47.6 -112.15 -47.6 -113.15 -46.4 -113.05 M-51.65 -112.15 Q-51.65 -111.6 -52.05 -111.3 L-52.75 -111.1 Q-53.8 -111.1 -53.8 -112.15 -53.8 -113.15 -52.7 -113.05 -51.65 -113.0 -51.65 -112.15 M-4.0 -140.8 Q-2.1 -139.15 -2.1 -136.55 -2.1 -134.05 -2.85 -132.15 -4.3 -128.5 -8.15 -128.5 -10.65 -128.5 -12.5 -130.55 -14.25 -132.5 -14.25 -134.6 -14.25 -138.3 -12.35 -140.4 -10.7 -142.2 -8.15 -142.25 -5.75 -142.3 -4.0 -140.8 M-9.75 -139.4 L-10.5 -138.25 -10.55 -137.55 Q-10.8 -137.0 -11.8 -137.15 L-12.3 -134.55 Q-12.3 -133.4 -11.2 -132.1 -9.9 -130.5 -8.15 -130.5 -5.5 -130.5 -4.5 -133.5 -3.95 -135.0 -4.0 -136.5 -4.0 -139.5 -6.85 -140.0 -9.75 -140.5 -9.75 -139.4 M-7.7 -147.6 L-7.8 -148.5 Q-7.8 -150.6 -6.45 -150.35 -5.15 -150.1 -5.15 -148.35 -5.15 -147.6 -5.55 -147.15 -5.95 -146.75 -6.5 -146.75 -7.45 -146.75 -7.7 -147.6 M-1.15 -130.85 Q0.0 -130.85 0.0 -130.0 0.0 -129.6 -0.35 -129.15 -0.7 -128.65 -1.3 -128.65 -2.5 -128.65 -2.3 -129.8 -2.3 -130.85 -1.15 -130.85 M-25.15 -143.75 Q-27.25 -146.45 -31.25 -146.65 -33.4 -146.25 -35.6 -145.15 -37.75 -144.1 -38.15 -143.35 -38.4 -142.9 -39.15 -142.55 L-39.9 -142.0 -40.05 -140.25 Q-40.05 -137.8 -38.8 -136.15 -36.65 -133.3 -31.3 -133.3 -27.05 -133.3 -24.95 -136.35 -23.65 -138.25 -23.65 -139.95 -23.65 -141.8 -25.15 -143.75 M-25.75 -115.25 Q-24.2 -115.25 -23.7 -116.05 -23.45 -116.5 -23.5 -116.9 -23.5 -118.65 -24.75 -118.4 -26.0 -118.2 -27.0 -116.5 L-25.75 -115.25 M-28.9 -117.25 Q-28.9 -119.9 -25.2 -120.5 -21.55 -121.1 -21.55 -116.8 -21.55 -115.7 -22.0 -114.85 -22.85 -113.3 -24.9 -113.3 -27.5 -113.3 -28.45 -115.4 -28.95 -116.45 -28.9 -117.25 M-15.85 -92.25 Q-17.2 -90.8 -20.1 -90.8 -23.6 -90.8 -24.6 -93.5 -25.05 -94.8 -24.85 -96.05 -24.85 -101.2 -19.15 -100.15 -16.9 -99.95 -15.7 -97.75 -14.9 -96.2 -14.9 -94.85 -14.9 -93.3 -15.85 -92.25 M-16.8 -94.9 Q-16.8 -98.25 -19.9 -98.3 -23.0 -98.35 -23.0 -95.8 L-22.75 -94.1 Q-22.15 -92.8 -20.25 -92.8 -18.05 -92.8 -17.2 -93.8 -16.8 -94.3 -16.8 -94.9 M-33.4 -74.65 Q-33.4 -74.1 -32.35 -72.75 -31.05 -71.15 -29.6 -71.15 L-26.15 -71.4 Q-25.35 -71.9 -25.35 -74.65 -25.35 -80.05 -29.35 -79.6 -31.0 -79.4 -32.15 -78.1 -33.4 -76.65 -33.4 -74.65 M-32.3 -80.6 Q-29.6 -82.05 -27.0 -81.15 -24.35 -79.25 -23.75 -77.75 -23.5 -77.05 -23.5 -74.65 -23.5 -72.3 -23.8 -71.55 -24.65 -69.25 -28.0 -69.25 -31.6 -69.25 -33.5 -71.1 -35.3 -72.85 -35.3 -75.8 -35.3 -79.0 -32.3 -80.6 M-56.15 -78.6 Q-56.15 -82.55 -54.0 -84.35 -52.15 -85.9 -49.25 -85.45 -46.55 -85.05 -44.55 -83.2 -42.4 -81.2 -42.4 -78.7 -42.4 -77.4 -43.95 -75.6 -46.25 -73.0 -50.15 -73.0 -54.35 -73.0 -55.65 -75.75 -56.3 -77.15 -56.15 -78.6 M-53.65 -76.5 Q-52.65 -75.0 -50.1 -75.0 -47.0 -75.0 -45.35 -76.85 -44.5 -77.8 -44.3 -78.65 -44.3 -80.4 -45.85 -81.8 -47.3 -83.15 -49.25 -83.45 -54.25 -84.25 -54.25 -78.55 -54.25 -77.4 -53.65 -76.5 M-62.05 -56.7 Q-60.15 -54.8 -56.4 -54.8 -53.3 -54.8 -51.85 -57.1 -51.0 -58.5 -51.0 -59.9 -51.0 -66.4 -57.25 -65.1 -59.65 -64.55 -61.55 -63.05 -63.5 -61.45 -63.5 -59.8 -63.5 -58.15 -62.05 -56.7 M-65.4 -59.85 Q-65.4 -62.35 -62.85 -64.45 -60.4 -66.45 -57.2 -66.95 -53.8 -67.5 -51.6 -65.9 -49.05 -64.1 -49.05 -59.9 -49.05 -57.75 -50.4 -55.75 -52.4 -52.85 -56.4 -52.85 -61.9 -52.85 -64.15 -55.9 -65.4 -57.65 -65.4 -59.85 M-45.5 -44.75 Q-45.5 -44.45 -46.1 -43.75 L-46.75 -42.8 Q-46.75 -42.45 -46.35 -42.15 -45.8 -41.8 -44.75 -41.8 -43.2 -41.8 -42.65 -42.4 -42.4 -42.65 -42.4 -43.05 -42.4 -43.8 -43.15 -44.55 -44.1 -45.5 -45.75 -45.35 L-45.55 -45.25 -45.5 -44.75 M-48.8 -45.15 Q-48.8 -48.05 -44.65 -47.05 -40.5 -46.0 -40.5 -43.1 -40.5 -42.15 -41.25 -41.2 -42.35 -39.8 -44.7 -39.8 -48.55 -39.8 -48.55 -42.55 L-48.65 -44.15 -48.8 -45.15" fill="#2f2f2f" fill-rule="evenodd" stroke="none"/>
    <path d="M21.1 -143.95 L22.8 -144.5 Q25.9 -145.45 28.0 -141.45 29.6 -138.55 29.6 -136.75 29.5 -135.25 28.6 -133.9 26.85 -131.25 22.75 -131.25 18.75 -131.25 17.5 -133.75 17.0 -134.75 17.0 -136.85 L16.8 -138.8 Q16.8 -139.55 17.9 -140.8 L18.75 -141.7 19.4 -142.75 Q19.8 -143.45 21.1 -143.95 M11.75 -162.8 Q13.25 -163.1 15.4 -161.5 17.75 -159.65 17.75 -157.25 17.6 -155.7 16.8 -154.35 15.25 -151.6 12.05 -151.6 8.95 -151.6 7.7 -154.0 7.05 -155.25 7.05 -156.85 7.05 -159.05 7.45 -159.8 8.3 -161.3 11.75 -162.8 M35.9 -125.6 Q36.4 -125.4 39.45 -126.95 42.05 -128.3 43.55 -126.4 L45.15 -124.4 Q45.5 -123.8 45.5 -122.8 45.6 -121.65 45.0 -120.55 43.8 -118.4 40.3 -118.4 37.35 -118.4 36.05 -120.8 35.3 -122.2 35.3 -123.75 35.3 -124.75 35.9 -125.6 M11.7 -117.8 L12.5 -119.05 Q13.25 -118.7 13.8 -117.75 14.3 -116.65 14.55 -116.3 L13.95 -115.65 11.75 -115.35 Q11.55 -115.35 11.3 -115.9 11.0 -116.45 11.0 -116.9 L11.7 -117.8 M2.8 -115.7 Q2.8 -114.8 2.2 -114.1 1.05 -112.75 -2.0 -112.75 -4.75 -112.75 -5.65 -114.65 -6.1 -115.6 -6.1 -117.45 L-5.9 -118.75 Q-5.35 -118.55 -3.1 -120.55 -1.2 -122.25 1.0 -120.15 L2.1 -118.0 2.8 -115.7 M32.75 -103.7 L34.0 -104.75 35.65 -103.6 Q36.0 -103.2 36.0 -102.5 34.75 -101.3 33.65 -101.3 33.1 -101.3 32.75 -101.95 L32.5 -102.8 Q32.5 -103.35 32.75 -103.7 M27.0 -112.15 L27.0 -112.0 26.65 -110.7 Q26.5 -109.55 27.55 -109.55 27.8 -109.55 28.85 -111.5 30.0 -113.25 31.15 -112.25 L32.4 -110.2 33.4 -107.75 33.25 -107.0 33.15 -106.85 Q32.7 -106.5 31.8 -106.4 L30.95 -106.35 Q28.65 -106.35 27.15 -108.1 26.05 -109.4 26.05 -110.45 L26.45 -111.3 27.0 -112.15 M55.3 -86.65 Q55.3 -89.9 57.3 -89.8 59.25 -89.7 59.25 -86.8 L58.6 -85.65 Q57.75 -84.5 56.65 -84.5 55.3 -84.5 55.3 -86.65 M43.95 -104.3 L44.9 -104.9 Q45.55 -105.2 46.65 -106.8 L50.3 -106.65 Q54.5 -104.25 54.5 -100.65 54.7 -99.4 53.95 -98.25 52.55 -95.9 48.0 -95.9 45.35 -95.9 44.25 -98.8 43.6 -100.45 43.6 -102.2 L43.6 -103.6 Q43.6 -104.05 43.95 -104.3 M44.3 -86.95 Q44.5 -85.9 44.1 -84.7 43.2 -82.35 40.0 -82.35 38.05 -82.35 37.1 -84.45 36.5 -85.8 36.5 -86.9 36.5 -89.7 40.4 -90.55 44.3 -91.4 44.3 -86.95 M46.5 -56.35 L46.05 -55.85 Q45.65 -55.55 44.75 -55.55 44.55 -55.55 44.25 -55.9 L43.85 -56.6 Q43.85 -57.25 44.0 -57.3 L45.35 -57.1 46.5 -56.35 M41.0 -72.9 L41.0 -73.15 Q42.1 -73.1 42.8 -71.75 L43.25 -70.1 Q43.25 -68.65 42.35 -68.1 41.55 -67.6 39.75 -67.6 38.9 -67.6 38.75 -68.5 L38.75 -69.4 Q38.75 -70.55 39.9 -71.5 41.0 -72.45 41.0 -72.9 M58.3 -59.9 Q58.45 -58.7 57.85 -57.55 56.7 -55.35 53.15 -55.35 51.0 -55.35 51.0 -58.4 L51.05 -60.0 Q51.2 -60.9 51.8 -61.4 53.2 -62.95 54.95 -62.8 56.5 -62.7 57.8 -61.3 58.3 -60.85 58.3 -59.9 M30.4 -46.65 Q33.4 -45.35 33.4 -42.6 33.65 -42.1 33.3 -41.6 32.65 -40.65 29.75 -40.65 28.75 -40.65 28.2 -41.65 27.75 -42.4 27.75 -43.15 27.75 -43.75 27.9 -43.95 L28.75 -45.05 30.4 -46.65 M29.75 -71.35 Q29.05 -70.05 26.35 -70.05 25.9 -70.05 25.5 -70.95 L25.1 -72.3 Q25.1 -76.85 27.5 -76.3 29.85 -75.8 29.85 -72.65 30.05 -72.0 29.75 -71.35 M14.5 -80.6 L14.45 -81.05 14.25 -81.25 Q16.9 -81.55 18.15 -79.1 19.0 -77.45 19.0 -75.75 19.2 -74.7 18.6 -73.85 17.45 -72.15 13.5 -72.15 11.75 -72.15 10.9 -73.85 10.4 -74.9 10.4 -76.0 L10.9 -78.1 Q11.6 -80.15 12.65 -80.15 L13.1 -79.9 Q13.25 -79.65 13.55 -79.65 13.9 -79.65 14.2 -79.95 L14.5 -80.6 M12.3 -45.2 Q11.55 -44.6 10.25 -44.6 9.85 -44.6 9.8 -45.15 L9.75 -46.15 9.95 -46.9 10.65 -47.9 12.0 -46.95 12.85 -45.85 12.3 -45.2 M3.8 -39.5 Q1.65 -39.5 1.1 -40.75 0.9 -41.1 0.9 -42.15 0.9 -44.9 3.6 -44.65 6.25 -44.45 6.25 -41.7 6.25 -40.75 5.7 -40.15 5.05 -39.5 3.8 -39.5 M45.8 -47.4 Q48.35 -47.3 48.35 -44.75 48.35 -44.1 47.5 -43.15 46.45 -42.05 45.1 -42.05 43.85 -42.05 43.45 -43.15 L43.25 -44.85 Q43.25 -47.5 45.8 -47.4 M-2.95 -166.2 Q-2.1 -164.45 -2.1 -161.25 -2.0 -159.45 -2.75 -157.7 -4.25 -154.25 -8.3 -154.25 -15.25 -154.25 -17.25 -157.85 -18.0 -159.15 -18.0 -162.25 L-17.9 -164.5 Q-17.65 -165.85 -16.85 -166.75 -16.25 -167.4 -15.55 -167.5 -14.75 -167.65 -14.25 -168.1 L-13.1 -169.4 Q-12.45 -169.95 -10.15 -169.9 -4.8 -169.85 -2.95 -166.2 M-17.45 -149.75 L-17.5 -150.5 -17.4 -151.6 -16.7 -150.95 -16.3 -149.9 Q-16.3 -149.5 -16.45 -149.3 -16.65 -149.1 -16.8 -149.0 -17.35 -149.3 -17.45 -149.75 M-54.85 -126.0 Q-53.05 -129.15 -50.3 -128.35 -48.45 -127.8 -46.3 -125.25 -44.35 -123.0 -44.35 -122.05 -44.3 -120.65 -45.0 -119.25 -46.35 -116.5 -50.05 -116.5 -56.15 -116.5 -56.15 -122.4 -56.15 -123.75 -54.85 -126.0 M-66.35 -100.15 L-66.55 -100.55 -66.3 -100.55 Q-65.65 -100.55 -63.05 -104.25 -60.0 -107.55 -57.15 -106.1 -55.55 -105.3 -54.1 -102.5 -52.85 -100.1 -52.85 -98.8 -52.85 -97.35 -53.55 -96.3 -55.05 -94.15 -59.15 -94.15 -62.55 -94.15 -64.7 -96.65 -66.35 -98.55 -66.35 -100.15 M-9.75 -139.4 Q-9.75 -140.5 -6.85 -140.0 -4.0 -139.5 -4.0 -136.5 -3.95 -135.0 -4.5 -133.5 -5.5 -130.5 -8.15 -130.5 -9.9 -130.5 -11.2 -132.1 -12.3 -133.4 -12.3 -134.55 L-11.8 -137.15 Q-10.8 -137.0 -10.55 -137.55 L-10.5 -138.25 -9.75 -139.4 M-25.75 -115.25 L-27.0 -116.5 Q-26.0 -118.2 -24.75 -118.4 -23.5 -118.65 -23.5 -116.9 -23.45 -116.5 -23.7 -116.05 -24.2 -115.25 -25.75 -115.25 M-25.15 -143.75 Q-23.65 -141.8 -23.65 -139.95 -23.65 -138.25 -24.95 -136.35 -27.05 -133.3 -31.3 -133.3 -36.65 -133.3 -38.8 -136.15 -40.05 -137.8 -40.05 -140.25 L-39.9 -142.0 -39.15 -142.55 Q-38.4 -142.9 -38.15 -143.35 -37.75 -144.1 -35.6 -145.15 -33.4 -146.25 -31.25 -146.65 -27.25 -146.45 -25.15 -143.75 M-33.4 -74.65 Q-33.4 -76.65 -32.15 -78.1 -31.0 -79.4 -29.35 -79.6 -25.35 -80.05 -25.35 -74.65 -25.35 -71.9 -26.15 -71.4 L-29.6 -71.15 Q-31.05 -71.15 -32.35 -72.75 -33.4 -74.1 -33.4 -74.65 M-16.8 -94.9 Q-16.8 -94.3 -17.2 -93.8 -18.05 -92.8 -20.25 -92.8 -22.15 -92.8 -22.75 -94.1 L-23.0 -95.8 Q-23.0 -98.35 -19.9 -98.3 -16.8 -98.25 -16.8 -94.9 M-62.05 -56.7 Q-63.5 -58.15 -63.5 -59.8 -63.5 -61.45 -61.55 -63.05 -59.65 -64.55 -57.25 -65.1 -51.0 -66.4 -51.0 -59.9 -51.0 -58.5 -51.85 -57.1 -53.3 -54.8 -56.4 -54.8 -60.15 -54.8 -62.05 -56.7 M-53.65 -76.5 Q-54.25 -77.4 -54.25 -78.55 -54.25 -84.25 -49.25 -83.45 -47.3 -83.15 -45.85 -81.8 -44.3 -80.4 -44.3 -78.65 -44.5 -77.8 -45.35 -76.85 -47.0 -75.0 -50.1 -75.0 -52.65 -75.0 -53.65 -76.5 M-45.5 -44.75 L-45.55 -45.25 -45.75 -45.35 Q-44.1 -45.5 -43.15 -44.55 -42.4 -43.8 -42.4 -43.05 -42.4 -42.65 -42.65 -42.4 -43.2 -41.8 -44.75 -41.8 -45.8 -41.8 -46.35 -42.15 -46.75 -42.45 -46.75 -42.8 L-46.1 -43.75 Q-45.5 -44.45 -45.5 -44.75" fill="#444444" fill-rule="evenodd" stroke="none"/>
    <path d="M61.2 -163.4 Q62.15 -160.75 62.55 -158.55 63.2 -155.7 63.2 -151.6 63.2 -148.75 62.85 -147.0 L61.1 -141.85 Q60.4 -140.25 57.55 -136.95 L55.1 -134.5 53.85 -133.45 54.3 -134.7 55.4 -138.8 Q56.15 -142.0 56.15 -147.0 L56.15 -149.2 56.1 -150.15 55.9 -151.35 55.45 -155.6 54.8 -158.7 54.35 -159.9 52.9 -164.15 Q51.7 -167.0 47.95 -172.7 L47.1 -173.7 46.2 -174.85 44.0 -176.95 42.1 -178.6 Q43.65 -178.4 45.15 -177.6 46.4 -176.9 48.25 -176.4 L51.25 -175.0 53.6 -173.4 Q55.45 -172.0 56.05 -171.75 L57.7 -169.9 58.6 -168.55 59.6 -166.65 61.2 -163.4 M46.9 -175.3 L47.0 -175.2 47.0 -175.3 46.9 -175.3 M44.15 -164.85 Q45.15 -164.75 45.15 -163.75 L44.9 -163.1 Q44.55 -162.6 44.05 -162.6 43.45 -162.6 43.15 -163.25 43.0 -163.5 43.0 -163.8 43.0 -164.9 44.15 -164.85 M50.4 -155.35 L50.1 -154.7 Q49.75 -154.2 49.3 -154.2 L48.7 -154.25 48.3 -154.6 48.15 -155.35 Q48.15 -156.5 49.3 -156.4 50.4 -156.35 50.4 -155.35 M18.85 -145.9 L16.55 -143.95 17.25 -144.65 18.85 -145.9 M15.65 -150.7 L15.55 -151.1 15.65 -150.8 15.65 -150.7 M13.35 -154.1 L13.2 -154.1 11.2 -156.0 11.35 -155.95 13.35 -154.1 M22.15 -156.2 L21.3 -152.6 Q21.0 -151.6 19.95 -149.95 18.7 -147.9 17.75 -147.35 L17.4 -150.7 Q17.1 -151.95 15.65 -154.0 13.9 -156.15 12.3 -157.3 L9.65 -158.65 Q7.35 -159.55 4.6 -159.55 L1.55 -159.15 0.2 -158.55 -2.15 -157.55 -5.85 -154.8 -5.85 -157.3 Q-5.2 -160.45 -1.55 -164.0 0.4 -165.8 2.85 -167.15 5.45 -168.55 10.3 -169.35 L14.0 -169.3 14.25 -169.2 15.45 -169.1 17.25 -168.45 18.35 -167.85 Q22.15 -164.55 22.15 -156.85 L22.15 -156.2 M5.55 -113.25 Q5.55 -114.6 6.7 -114.6 7.7 -114.6 7.7 -113.25 7.7 -112.0 6.7 -112.0 L6.1 -112.1 5.7 -112.35 5.55 -113.25 M27.05 -117.45 Q28.05 -118.05 29.95 -116.9 32.55 -114.85 33.0 -113.9 L34.45 -110.5 34.6 -107.95 Q32.7 -97.55 28.6 -97.55 27.7 -97.55 27.5 -98.15 L27.4 -98.8 Q27.4 -99.35 29.5 -101.45 31.55 -103.5 31.55 -105.65 31.55 -107.35 30.5 -110.6 29.25 -114.5 27.75 -114.5 27.0 -114.5 26.6 -115.3 L26.4 -116.0 Q26.4 -116.95 27.05 -117.45 M24.85 -107.4 L24.7 -108.1 Q24.7 -109.2 26.1 -109.15 27.5 -109.1 27.5 -108.05 27.5 -106.85 26.1 -106.85 25.2 -106.85 24.85 -107.4 M53.6 -111.95 L52.5 -114.1 51.65 -115.05 51.35 -115.4 Q54.1 -115.3 55.55 -114.1 L57.7 -112.45 Q57.7 -111.95 58.1 -111.6 L58.6 -110.75 Q60.15 -106.65 60.15 -104.05 60.15 -102.6 59.7 -101.2 L58.6 -98.1 Q58.25 -97.2 56.25 -95.1 L54.5 -94.05 Q54.55 -94.9 55.05 -96.35 55.45 -99.05 55.45 -101.2 L55.25 -105.2 54.3 -109.8 53.6 -111.95 M47.95 -122.4 Q47.95 -121.35 46.75 -121.35 45.85 -121.35 45.6 -122.1 L45.5 -122.6 Q45.5 -123.9 46.75 -123.7 47.95 -123.5 47.95 -122.4 M50.3 -101.1 Q51.55 -100.85 51.55 -99.85 51.55 -99.35 51.15 -98.9 50.8 -98.65 50.45 -98.65 49.65 -98.65 49.3 -99.5 L49.05 -100.1 Q49.05 -101.35 50.3 -101.1 M49.3 -86.8 Q48.6 -86.8 48.3 -87.35 L48.15 -88.0 Q48.15 -89.2 49.5 -89.25 50.75 -89.3 50.75 -88.2 50.75 -87.7 50.3 -87.3 49.85 -86.8 49.3 -86.8 M30.15 -94.7 Q30.15 -93.55 28.9 -93.55 28.0 -93.55 27.7 -94.35 L27.65 -94.9 Q27.65 -96.35 28.9 -96.05 30.15 -95.7 30.15 -94.7 M-0.05 -86.55 L1.2 -87.3 Q2.3 -88.05 3.5 -89.45 6.4 -92.85 6.05 -96.7 L6.25 -97.05 6.75 -95.45 Q7.15 -93.65 7.15 -91.9 7.15 -88.05 5.7 -85.2 4.05 -82.0 1.45 -82.0 -0.05 -82.0 -1.05 -83.55 L-1.2 -83.75 -0.55 -85.05 -0.05 -86.55 M-3.55 -81.4 Q-4.55 -79.2 -7.4 -79.2 L-10.3 -79.7 -7.95 -79.5 Q-6.0 -79.5 -3.55 -81.4 M-1.95 -88.6 L-1.8 -88.85 -1.8 -88.75 -1.95 -88.6 M2.8 -79.5 Q2.8 -80.5 3.9 -80.55 4.95 -80.6 4.95 -79.45 4.95 -78.3 3.8 -78.3 2.8 -78.3 2.8 -79.5 M-10.15 -195.6 Q-2.85 -192.6 -0.15 -186.3 -6.85 -188.45 -11.7 -188.45 L-17.6 -187.8 -26.4 -185.1 -32.35 -182.45 Q-35.65 -180.65 -37.1 -179.3 -44.0 -172.7 -46.15 -166.3 L-47.25 -170.4 Q-47.6 -171.75 -47.6 -173.9 -47.6 -179.45 -44.95 -184.0 -41.35 -190.2 -33.2 -193.5 -27.3 -195.9 -23.75 -196.7 -17.25 -198.4 -10.15 -195.6 M-31.6 -173.7 L-31.8 -173.25 Q-32.0 -172.9 -32.35 -172.9 -33.7 -172.9 -33.7 -173.7 -33.7 -174.6 -32.65 -175.0 -31.6 -175.5 -31.6 -173.7 M-24.85 -169.5 Q-24.85 -170.6 -23.6 -170.75 -22.4 -170.9 -22.4 -169.65 -22.4 -168.25 -23.65 -168.25 -24.85 -168.25 -24.85 -169.5 M-39.9 -169.35 Q-39.25 -170.5 -38.75 -170.5 -35.55 -170.5 -35.55 -168.25 -35.55 -167.75 -36.2 -166.8 -37.05 -165.55 -38.3 -165.55 -39.45 -165.55 -40.1 -166.6 -40.5 -167.3 -40.5 -167.9 L-39.9 -169.35 M-29.75 -154.2 Q-29.75 -155.35 -28.45 -155.3 -27.3 -155.25 -27.3 -154.1 -27.3 -153.0 -28.45 -153.0 -29.75 -153.0 -29.75 -154.2 M-28.45 -150.1 L-29.25 -149.85 -28.95 -150.1 -28.45 -150.1 M-39.05 -141.4 Q-39.9 -139.65 -40.6 -136.95 L-41.15 -134.55 Q-40.95 -138.3 -39.05 -141.4 M-28.0 -142.7 L-26.5 -145.5 -26.45 -145.5 -28.0 -142.7 M-50.9 -164.35 Q-48.6 -163.5 -48.6 -161.55 -48.6 -160.8 -49.1 -160.1 -49.75 -159.05 -50.95 -159.05 -52.4 -159.05 -52.95 -160.65 L-53.2 -162.35 Q-53.2 -165.25 -50.9 -164.35 M-47.7 -149.2 Q-47.7 -148.35 -48.1 -147.5 -48.75 -146.2 -50.1 -146.2 -51.5 -146.2 -52.85 -148.0 -53.95 -149.6 -53.95 -150.5 -52.65 -155.45 -50.45 -153.4 -47.7 -151.15 -47.7 -149.2 M-52.7 -132.35 L-52.75 -132.2 Q-58.45 -130.3 -61.05 -125.3 -62.85 -121.75 -62.85 -117.45 L-62.85 -116.2 -62.65 -114.85 Q-63.55 -115.4 -64.45 -118.05 -65.35 -120.55 -65.35 -121.8 -65.35 -123.15 -64.65 -124.9 L-62.85 -127.9 -59.45 -130.8 Q-58.35 -131.7 -56.85 -132.05 L-54.25 -132.4 -52.7 -132.35 M-62.1 -106.25 L-63.0 -104.65 Q-63.95 -103.1 -63.95 -102.1 -63.95 -101.2 -63.3 -99.7 -62.65 -98.15 -62.65 -97.8 -62.65 -96.5 -64.1 -96.5 -66.4 -96.5 -67.15 -99.35 -67.6 -100.65 -67.5 -102.1 -67.5 -106.65 -64.8 -107.75 -62.1 -108.75 -62.1 -106.25 M-58.45 -115.65 Q-59.8 -115.65 -59.6 -116.95 -59.6 -118.35 -58.35 -118.25 -57.1 -118.15 -57.1 -117.1 -57.1 -116.65 -57.55 -116.2 -58.05 -115.65 -58.45 -115.65 M-27.2 -147.8 Q-29.4 -145.35 -30.2 -142.3 -31.1 -138.8 -31.1 -134.15 -31.1 -131.3 -30.75 -129.9 -30.4 -128.3 -28.9 -125.25 -28.1 -123.65 -25.5 -120.8 L-21.45 -117.6 Q-23.3 -116.9 -26.4 -116.9 -34.2 -116.9 -37.65 -123.4 -39.75 -127.3 -39.75 -131.2 -39.75 -136.8 -36.85 -141.8 -33.15 -147.85 -26.45 -148.6 L-27.2 -147.8 M-26.45 -132.1 Q-25.05 -132.05 -25.05 -130.95 -25.05 -129.9 -26.45 -129.9 -28.0 -129.9 -27.9 -131.1 -27.9 -132.2 -26.45 -132.1 M-5.9 -100.15 Q-5.8 -100.85 -4.55 -101.45 L-4.3 -101.45 Q-3.4 -101.45 -1.9 -100.25 0.0 -98.8 0.0 -97.1 0.0 -96.05 -1.1 -95.1 -2.3 -94.0 -3.9 -94.0 -5.2 -94.0 -5.65 -94.8 -6.0 -95.35 -6.0 -97.3 L-5.9 -100.15 M-2.45 -84.95 L-2.6 -84.8 Q-3.0 -83.95 -4.3 -82.85 -6.25 -81.25 -8.2 -81.25 L-9.6 -81.4 -11.2 -81.75 Q-12.25 -82.0 -13.0 -82.65 L-14.35 -83.45 -16.1 -84.95 Q-16.65 -85.55 -17.2 -87.0 -17.8 -88.55 -17.8 -89.45 L-17.6 -91.4 -16.8 -93.85 -15.85 -95.8 -15.85 -95.7 -15.75 -93.1 Q-15.55 -92.15 -14.35 -90.0 -11.7 -85.15 -6.35 -85.15 -4.4 -85.15 -2.45 -86.25 L-2.0 -86.45 -2.45 -84.95 M-4.6 -75.25 Q-6.0 -75.25 -5.9 -76.45 -5.9 -77.55 -4.6 -77.5 -3.3 -77.4 -3.3 -76.45 -3.3 -75.25 -4.6 -75.25 M-35.9 -91.8 L-37.45 -89.4 Q-38.85 -86.95 -38.85 -83.95 L-38.55 -82.65 -38.3 -81.3 Q-38.3 -80.05 -39.4 -80.05 -40.7 -80.05 -41.35 -82.7 L-41.75 -85.35 Q-41.75 -90.9 -38.2 -94.55 -36.9 -95.95 -35.85 -96.05 -34.75 -96.3 -34.75 -95.0 -34.75 -93.9 -35.9 -91.8 M-36.05 -74.5 Q-36.05 -73.15 -37.25 -73.15 -38.35 -73.15 -38.7 -74.2 L-38.75 -74.9 Q-38.75 -76.5 -37.4 -76.45 -36.05 -76.45 -36.05 -74.5 M-31.75 -69.7 Q-32.1 -69.25 -32.5 -69.25 -33.6 -69.25 -33.6 -70.45 -33.6 -71.45 -32.5 -71.5 -31.45 -71.55 -31.45 -70.4 -31.45 -70.05 -31.75 -69.7 M-55.2 -92.05 Q-55.2 -90.5 -56.4 -90.5 -57.65 -90.5 -58.2 -91.9 L-58.45 -93.1 Q-58.45 -94.8 -56.8 -94.4 -55.2 -94.05 -55.2 -92.05" fill="#ffff99" fill-rule="evenodd" stroke="none"/>
    <path d="M58.6 -168.55 L57.7 -169.9 56.05 -171.75 Q55.45 -172.0 53.6 -173.4 L51.25 -175.0 48.25 -176.4 Q46.4 -176.9 45.15 -177.6 43.65 -178.4 42.1 -178.6 L44.0 -176.95 46.2 -174.85 47.1 -173.7 47.95 -172.7 Q51.7 -167.0 52.9 -164.15 L54.35 -159.9 54.8 -158.7 55.45 -155.6 55.9 -151.35 56.1 -150.15 56.15 -149.2 56.15 -147.0 Q56.15 -142.0 55.4 -138.8 L54.3 -134.7 53.85 -133.45 55.1 -134.5 57.55 -136.95 Q60.4 -140.25 61.1 -141.85 L62.85 -147.0 Q63.2 -148.75 63.2 -151.6 63.2 -155.7 62.55 -158.55 62.15 -160.75 61.2 -163.4 L60.0 -166.25 58.6 -168.55 M40.85 -177.3 L39.25 -178.25 Q38.7 -178.5 38.7 -178.95 L38.75 -179.3 Q38.75 -180.5 41.75 -180.35 44.75 -180.2 45.95 -179.2 50.6 -177.15 53.2 -175.7 56.5 -173.7 58.35 -171.85 L61.05 -167.85 62.8 -163.75 63.95 -159.7 Q64.85 -156.35 64.85 -151.6 64.85 -148.4 64.5 -146.65 64.1 -144.7 62.7 -141.15 L61.05 -138.45 59.0 -135.95 56.15 -132.95 Q53.95 -131.1 53.4 -131.1 L52.95 -131.15 Q52.6 -130.75 52.25 -130.75 51.8 -130.75 51.55 -131.2 L51.45 -131.65 Q51.45 -132.1 52.75 -135.55 L53.2 -136.6 53.3 -137.55 53.8 -139.35 Q54.5 -143.0 54.5 -147.0 54.5 -156.2 51.5 -163.3 L49.55 -167.3 Q48.6 -169.1 46.9 -171.3 L43.15 -175.35 40.85 -177.3 M2.3 -184.8 Q2.3 -183.85 1.3 -183.85 L-3.05 -185.25 Q-7.6 -186.65 -11.7 -186.65 -15.45 -186.65 -22.15 -184.55 L-28.25 -182.4 Q-31.45 -181.15 -34.3 -179.1 -36.75 -177.35 -38.3 -175.55 -42.45 -170.35 -43.25 -168.4 L-44.6 -164.85 -44.85 -162.75 Q-45.05 -161.45 -45.85 -161.45 -46.7 -161.45 -46.85 -162.05 L-46.85 -162.9 -47.5 -164.5 Q-47.9 -165.45 -48.3 -167.6 L-48.75 -169.0 -49.3 -171.1 -49.4 -173.8 -49.4 -174.3 -49.4 -174.85 Q-49.4 -178.4 -48.3 -181.05 -43.8 -195.05 -20.1 -199.15 L-17.9 -199.15 Q-12.95 -199.15 -7.45 -196.25 -4.45 -194.65 -2.6 -193.05 -0.85 -191.45 0.85 -188.45 2.3 -185.8 2.3 -184.8 M11.2 -156.0 Q8.35 -157.9 4.5 -157.9 1.3 -157.9 -3.2 -154.95 -3.5 -154.2 -4.1 -153.9 L-4.95 -153.0 -5.35 -152.05 Q-5.35 -151.8 -5.5 -151.6 L-6.15 -151.25 -6.9 -151.75 -7.3 -152.15 -7.45 -153.2 -7.45 -155.15 Q-7.45 -158.0 -7.15 -158.9 -6.7 -160.4 -4.45 -163.45 -2.85 -165.4 0.25 -167.55 4.05 -170.15 6.6 -170.35 7.35 -170.35 8.3 -170.8 L14.4 -171.05 Q15.75 -170.55 16.7 -170.55 L18.25 -169.9 Q20.75 -168.95 22.0 -166.15 L23.45 -161.8 Q23.85 -160.1 23.85 -157.9 23.85 -156.3 23.3 -153.85 22.75 -151.25 22.15 -150.35 20.75 -147.6 19.55 -146.55 L18.85 -145.9 17.25 -144.65 16.55 -143.95 15.3 -143.0 15.6 -143.7 Q16.3 -145.65 16.3 -147.1 16.3 -148.85 15.75 -150.5 L15.75 -150.55 15.65 -150.7 15.65 -150.8 15.55 -151.1 15.5 -151.15 15.45 -151.2 15.25 -151.7 14.7 -152.95 13.8 -154.0 13.35 -154.1 11.35 -155.95 11.2 -156.0 M22.15 -156.2 L22.25 -157.9 21.8 -161.3 21.0 -164.05 20.4 -165.6 19.5 -167.15 18.35 -167.85 17.25 -168.45 15.45 -169.1 14.25 -169.2 14.0 -169.3 10.3 -169.35 Q5.45 -168.55 2.85 -167.15 0.4 -165.8 -1.55 -164.0 -5.2 -160.45 -5.85 -157.3 L-5.85 -154.8 -2.15 -157.55 0.2 -158.55 1.55 -159.15 4.6 -159.55 Q7.35 -159.55 9.65 -158.65 L12.3 -157.3 Q13.9 -156.15 15.65 -154.0 17.1 -151.95 17.4 -150.7 L17.75 -147.35 Q18.7 -147.9 19.95 -149.95 21.0 -151.6 21.3 -152.6 L22.15 -156.2 M53.6 -111.95 L54.3 -109.8 55.25 -105.2 55.45 -101.2 Q55.45 -99.05 55.05 -96.35 54.55 -94.9 54.5 -94.05 L56.25 -95.1 Q58.25 -97.2 58.6 -98.1 L59.7 -101.2 Q60.15 -102.6 60.15 -104.05 60.15 -106.65 58.6 -110.75 L58.1 -111.6 Q57.7 -111.95 57.7 -112.45 L55.55 -114.1 Q54.1 -115.3 51.35 -115.4 L51.65 -115.05 52.5 -114.1 53.6 -111.95 M60.0 -111.65 L61.25 -107.85 61.75 -105.65 61.8 -104.0 Q61.8 -102.6 61.3 -100.65 L60.15 -97.45 Q59.5 -96.05 57.7 -94.2 56.65 -93.15 55.4 -92.65 53.8 -91.35 53.25 -91.35 52.6 -91.35 52.5 -91.75 L52.4 -92.25 52.5 -92.45 52.4 -92.5 53.1 -95.6 Q53.8 -98.7 53.8 -101.2 L53.75 -104.55 52.85 -108.8 Q52.55 -110.0 51.25 -112.65 L49.9 -114.5 49.35 -115.4 Q48.7 -115.75 48.7 -116.25 48.7 -117.0 49.55 -117.15 L49.9 -117.15 51.8 -117.25 Q54.35 -116.9 56.6 -115.5 L58.8 -113.55 60.0 -111.65 M-1.2 -83.75 L-1.75 -83.1 -3.55 -81.4 Q-6.0 -79.5 -7.95 -79.5 L-10.3 -79.7 Q-12.0 -80.15 -13.5 -80.9 -15.25 -81.8 -17.6 -84.1 L-18.45 -85.5 -18.95 -86.9 -19.4 -88.25 -19.4 -89.6 -19.2 -91.9 -18.15 -94.95 -16.7 -97.6 -15.6 -98.65 -14.75 -99.35 Q-13.85 -99.5 -13.85 -98.5 L-14.2 -97.1 -14.25 -95.65 Q-14.25 -93.35 -12.95 -90.9 L-12.25 -89.75 -11.2 -88.6 -8.55 -87.15 -6.35 -86.9 Q-4.6 -86.9 -3.0 -87.9 L-1.95 -88.6 -1.8 -88.75 -1.4 -89.05 Q-1.0 -89.05 -0.7 -88.7 0.2 -88.6 0.0 -87.35 L-0.05 -86.55 -0.55 -85.05 -1.2 -83.75 M-10.15 -195.6 Q-17.25 -198.4 -23.75 -196.7 -27.3 -195.9 -33.2 -193.5 -41.35 -190.2 -44.95 -184.0 -47.6 -179.45 -47.6 -173.9 -47.6 -171.75 -47.25 -170.4 L-46.15 -166.3 Q-44.0 -172.7 -37.1 -179.3 -35.65 -180.65 -32.35 -182.45 L-26.4 -185.1 -17.6 -187.8 -11.7 -188.45 Q-6.85 -188.45 -0.15 -186.3 -2.85 -192.6 -10.15 -195.6 M-29.25 -149.85 L-28.45 -150.1 Q-22.9 -151.4 -22.9 -149.55 L-22.9 -149.3 -22.9 -149.2 -22.95 -148.95 -23.1 -148.85 -24.5 -147.45 -26.45 -145.5 -26.5 -145.5 -28.0 -142.7 -28.1 -142.55 -28.1 -142.5 -28.2 -142.45 -28.4 -141.8 Q-29.3 -137.85 -29.3 -134.15 -29.3 -131.65 -28.9 -129.9 -28.4 -127.75 -27.0 -125.6 -25.05 -122.5 -23.4 -121.35 L-20.4 -119.25 -18.3 -118.5 Q-17.7 -118.25 -17.7 -117.65 -17.7 -116.75 -18.75 -116.75 L-18.85 -116.75 Q-19.35 -116.3 -20.35 -115.9 -22.7 -114.95 -26.3 -114.95 -30.75 -114.95 -34.3 -117.25 -37.4 -119.2 -39.25 -122.6 -40.25 -124.35 -40.95 -126.85 -41.55 -129.35 -41.55 -131.3 -41.55 -132.6 -41.15 -134.55 L-40.6 -136.95 Q-39.9 -139.65 -39.05 -141.4 L-38.65 -142.3 Q-36.6 -145.65 -33.75 -147.7 -31.25 -149.4 -29.45 -149.85 L-29.25 -149.85 M-53.95 -134.2 L-52.4 -134.15 Q-48.75 -133.95 -48.75 -132.6 -48.75 -132.0 -49.4 -131.65 L-49.9 -131.45 -50.8 -131.3 -51.1 -130.8 -52.0 -130.45 -52.95 -130.25 -54.35 -129.55 Q-57.55 -128.0 -59.05 -125.6 -61.2 -121.4 -61.2 -117.5 -61.2 -115.65 -60.75 -114.35 L-60.35 -112.75 Q-60.35 -111.75 -61.25 -111.75 -62.0 -111.75 -63.05 -112.7 L-64.55 -114.3 Q-65.5 -115.85 -65.85 -116.9 -67.05 -120.8 -67.05 -121.95 -67.05 -123.35 -66.15 -125.45 -65.3 -127.45 -64.3 -128.65 L-60.65 -132.0 -58.35 -133.6 -54.15 -134.2 -53.95 -134.2 M-52.7 -132.35 L-54.25 -132.4 -56.85 -132.05 Q-58.35 -131.7 -59.45 -130.8 L-62.85 -127.9 -64.65 -124.9 Q-65.35 -123.15 -65.35 -121.8 -65.35 -120.55 -64.45 -118.05 -63.55 -115.4 -62.65 -114.85 L-62.85 -116.2 -62.85 -117.45 Q-62.85 -121.75 -61.05 -125.3 -58.45 -130.3 -52.75 -132.2 L-52.7 -132.35 M-27.2 -147.8 L-26.45 -148.6 Q-33.15 -147.85 -36.85 -141.8 -39.75 -136.8 -39.75 -131.2 -39.75 -127.3 -37.65 -123.4 -34.2 -116.9 -26.4 -116.9 -23.3 -116.9 -21.45 -117.6 L-25.5 -120.8 Q-28.1 -123.65 -28.9 -125.25 -30.4 -128.3 -30.75 -129.9 -31.1 -131.3 -31.1 -134.15 -31.1 -138.8 -30.2 -142.3 -29.4 -145.35 -27.2 -147.8 M-2.0 -86.45 L-2.45 -86.25 Q-4.4 -85.15 -6.35 -85.15 -11.7 -85.15 -14.35 -90.0 -15.55 -92.15 -15.75 -93.1 L-15.85 -95.7 -15.85 -95.8 -16.8 -93.85 -17.6 -91.4 -17.8 -89.45 Q-17.8 -88.55 -17.2 -87.0 -16.65 -85.55 -16.1 -84.95 L-14.35 -83.45 -13.0 -82.65 Q-12.25 -82.0 -11.2 -81.75 L-9.6 -81.4 -8.2 -81.25 Q-6.25 -81.25 -4.3 -82.85 -3.0 -83.95 -2.6 -84.8 L-2.45 -84.95 Q-2.15 -85.4 -1.8 -86.6 L-2.0 -86.45 M-4.8 -63.05 Q-4.8 -62.1 -5.45 -61.8 L-5.8 -61.8 Q-6.55 -61.8 -7.05 -62.3 L-7.25 -63.2 Q-7.25 -63.9 -7.05 -64.05 L-6.2 -64.1 Q-4.8 -64.1 -4.8 -63.05 M-5.0 -56.0 Q-8.3 -56.0 -9.05 -59.3 L-9.4 -60.7 Q-8.1 -59.1 -5.8 -59.1 -1.8 -59.1 -1.8 -62.65 -1.25 -62.3 -1.25 -59.95 -1.25 -58.55 -1.9 -57.5 -2.95 -56.0 -5.0 -56.0 M-3.9 -51.25 Q-4.25 -50.9 -4.45 -50.9 -5.3 -50.9 -5.2 -51.95 -5.2 -52.75 -4.4 -52.75 -3.55 -52.75 -3.55 -51.95 -3.55 -51.6 -3.9 -51.25 M-1.8 -48.55 L-1.6 -48.6 Q-1.4 -48.65 -1.4 -49.0 L-1.0 -48.45 -1.05 -48.2 -1.4 -48.05 -1.8 -48.55 M-4.4 -47.7 Q-4.4 -48.6 -3.75 -48.6 -3.15 -48.6 -3.15 -47.9 -3.15 -47.35 -3.75 -47.35 L-4.3 -47.4 -4.4 -47.7" fill="#fd0202" fill-rule="evenodd" stroke="none"/>
  </g>
</svg>
