<?xml version="1.0" encoding="UTF-8" standalone="no"?>
<svg xmlns:ffdec="https://www.free-decompiler.com/flash" xmlns:xlink="http://www.w3.org/1999/xlink" ffdec:objectType="shape" height="157.55px" width="183.85px" xmlns="http://www.w3.org/2000/svg">
  <g transform="matrix(1.0, 0.0, 0.0, 1.0, 59.4, 268.25)">
    <path d="M26.5 -132.95 Q25.7 -132.4 25.05 -127.45 24.6 -123.65 23.75 -120.1 22.3 -118.0 22.05 -113.5 20.8 -112.0 18.25 -111.65 15.7 -111.35 13.8 -120.2 L14.4 -128.15 15.0 -135.75 15.0 -137.35 9.7 -138.15 2.8 -138.8 Q2.4 -138.8 0.8 -135.95 L-1.05 -132.1 -3.75 -138.8 -4.8 -138.8 -14.65 -136.8 -14.85 -136.2 -15.25 -136.65 Q-26.15 -149.5 -27.7 -166.7 L-59.4 -268.25 124.45 -268.25 63.7 -154.0 Q61.7 -148.1 58.4 -142.75 55.9 -138.9 52.7 -135.35 L50.4 -132.9 Q50.0 -134.85 49.05 -136.9 47.2 -140.9 44.85 -140.9 43.4 -140.9 36.15 -137.75 29.05 -134.65 26.5 -132.95" fill="url(#gradient0)" fill-rule="evenodd" stroke="none"/>
    <path d="M43.7 -162.05 L43.7 -162.0 43.8 -161.8 43.3 -161.25 42.95 -160.85 40.65 -158.1 40.5 -158.1 34.35 -157.2 Q31.55 -156.65 29.7 -155.6 29.35 -155.95 28.85 -156.1 L29.4 -155.45 27.65 -154.1 Q26.55 -153.0 26.1 -151.55 L26.05 -151.5 25.9 -151.65 25.7 -151.7 24.4 -153.55 22.65 -155.5 17.5 -155.5 16.65 -148.55 15.85 -141.5 14.45 -140.55 13.5 -139.9 11.95 -139.8 Q10.45 -139.8 8.8 -144.65 7.35 -148.85 7.35 -150.75 L4.6 -150.75 3.1 -150.4 1.85 -150.05 0.15 -150.05 -3.35 -158.4 Q-1.65 -159.3 0.4 -160.45 L2.2 -151.7 7.4 -155.95 12.15 -159.95 12.4 -159.85 Q11.35 -156.75 11.2 -155.45 L11.1 -152.1 Q11.1 -150.35 11.8 -146.95 L12.15 -146.95 Q12.2 -149.95 14.15 -153.75 16.3 -157.9 18.5 -157.9 18.85 -157.9 20.9 -156.7 L22.75 -155.8 24.0 -155.5 Q24.75 -155.5 26.15 -156.15 L29.1 -157.7 33.9 -160.3 42.55 -161.85 43.7 -162.05" fill="#e69249" fill-rule="evenodd" stroke="none"/>
    <path d="M40.65 -158.1 L42.95 -160.85 43.3 -161.25 43.8 -161.8 43.7 -162.0 43.7 -162.05 43.5 -162.4 41.4 -162.7 37.05 -163.4 32.75 -164.3 28.9 -165.05 25.7 -165.5 23.45 -166.1 21.4 -166.65 19.8 -167.0 20.55 -165.8 21.25 -164.6 21.0 -164.4 23.0 -160.5 23.8 -158.85 23.95 -158.65 24.75 -157.2 23.6 -158.65 22.55 -159.85 Q19.55 -162.55 18.05 -165.5 L17.9 -165.8 17.8 -166.15 16.4 -167.7 15.35 -167.85 Q13.65 -166.75 11.0 -165.55 L8.45 -164.4 5.25 -163.2 3.7 -162.35 1.2 -160.9 0.4 -160.45 Q-1.65 -159.3 -3.35 -158.4 L-6.1 -157.0 -2.4 -151.5 Q-0.45 -148.4 0.45 -146.1 L0.6 -145.65 0.8 -145.7 5.95 -146.2 Q6.45 -142.25 8.2 -138.15 L8.85 -136.85 6.3 -136.7 Q5.65 -137.85 5.3 -139.2 L4.9 -141.55 4.5 -144.55 2.45 -144.1 0.05 -143.3 Q0.1 -145.1 -1.3 -147.9 L-2.65 -150.25 Q-5.6 -154.6 -6.8 -156.7 -8.0 -156.1 -8.85 -155.8 L-9.5 -155.6 Q-10.7 -152.75 -13.45 -147.25 L-14.85 -144.45 -16.4 -141.65 -16.6 -141.1 -16.8 -140.6 Q-17.45 -141.15 -18.2 -141.15 -18.85 -141.15 -20.15 -140.0 -19.6 -141.3 -21.95 -144.3 L-18.35 -150.15 -17.05 -152.3 -11.6 -161.35 -11.4 -161.7 -11.4 -161.65 Q-8.4 -163.35 -1.4 -166.1 5.85 -169.3 9.65 -170.6 L13.25 -171.55 Q13.4 -172.25 14.0 -172.4 L17.2 -172.3 Q26.45 -170.6 31.9 -170.5 43.4 -169.05 47.75 -167.1 L49.2 -164.7 49.9 -163.55 50.25 -162.95 60.3 -145.75 60.65 -145.05 58.8 -142.8 56.0 -140.2 55.8 -139.95 50.5 -149.5 45.35 -159.0 44.9 -159.8 44.2 -158.75 42.45 -156.4 37.05 -150.1 37.4 -149.8 36.2 -148.95 36.15 -148.95 35.65 -148.7 35.55 -148.55 35.9 -148.1 35.5 -147.7 37.75 -144.4 38.1 -143.9 38.2 -143.7 40.5 -140.1 41.05 -138.6 39.75 -138.2 Q38.75 -140.3 38.4 -142.0 L38.2 -141.95 38.75 -138.25 36.7 -141.3 36.45 -141.55 Q34.05 -144.9 33.95 -146.35 L33.95 -146.5 Q33.95 -147.4 34.4 -147.8 L34.9 -148.0 34.65 -148.35 32.6 -147.7 32.3 -147.65 24.85 -146.1 Q24.0 -146.1 23.3 -146.9 L22.15 -148.25 Q24.15 -144.6 18.6 -140.9 L13.75 -137.8 12.3 -136.85 10.3 -136.95 9.7 -136.9 13.5 -139.9 14.45 -140.55 15.85 -141.5 Q20.0 -144.55 20.05 -145.8 L19.75 -148.45 19.6 -151.45 Q21.05 -152.05 22.85 -150.55 24.85 -148.8 25.45 -148.8 26.6 -148.8 29.5 -149.75 L30.65 -150.1 31.3 -150.35 30.95 -151.25 30.9 -151.45 30.8 -151.9 30.9 -151.85 31.05 -151.7 31.65 -151.25 Q32.75 -150.5 33.4 -150.5 L34.5 -150.7 35.05 -150.65 Q36.2 -152.65 39.9 -157.2 L40.6 -158.05 40.65 -158.1 M55.4 -131.8 Q55.4 -129.75 54.85 -127.65 L53.15 -125.65 52.9 -125.05 52.45 -123.8 52.05 -123.75 Q51.45 -124.35 51.45 -125.1 L52.0 -127.9 55.0 -131.4 55.15 -131.55 55.4 -131.8 M23.8 -114.9 Q23.25 -113.4 22.3 -112.55 L21.85 -114.0 20.65 -117.4 Q20.1 -119.1 16.75 -119.6 L15.3 -120.0 Q14.4 -120.45 14.0 -121.35 L13.95 -123.8 14.3 -129.25 Q15.3 -126.55 15.75 -123.75 16.1 -121.65 17.25 -121.05 L19.55 -120.85 Q22.65 -120.95 23.0 -117.5 L23.8 -114.9 M35.1 -148.05 L35.05 -148.1 35.05 -148.05 35.1 -148.05" fill="#160b0b" fill-rule="evenodd" stroke="none"/>
    <path d="M43.7 -162.05 L42.55 -161.85 33.9 -160.3 29.1 -157.7 26.15 -156.15 Q24.75 -155.5 24.0 -155.5 L22.75 -155.8 20.9 -156.7 Q18.85 -157.9 18.5 -157.9 16.3 -157.9 14.15 -153.75 12.2 -149.95 12.15 -146.95 L11.8 -146.95 Q11.1 -150.35 11.1 -152.1 L11.2 -155.45 Q11.35 -156.75 12.4 -159.85 L12.15 -159.95 7.4 -155.95 2.2 -151.7 0.4 -160.45 1.2 -160.9 3.05 -154.4 3.25 -154.25 Q4.15 -155.75 8.55 -158.45 L13.1 -161.25 13.45 -161.25 Q13.65 -160.7 13.65 -158.4 L13.3 -155.7 Q12.95 -154.35 12.95 -153.0 L13.0 -152.95 Q13.85 -155.55 16.2 -157.45 18.35 -159.1 19.85 -159.1 L22.5 -158.8 23.6 -158.65 24.75 -157.2 23.95 -158.65 23.8 -158.85 23.0 -160.5 24.35 -158.6 25.5 -158.55 Q25.65 -158.25 34.3 -162.2 L37.05 -163.4 41.4 -162.7 43.5 -162.4 43.7 -162.05 M26.05 -151.5 L26.1 -151.55 26.05 -151.35 26.05 -151.5 M40.5 -158.1 L40.65 -158.1 40.6 -158.05 40.5 -158.1 M55.0 -134.35 L55.4 -132.1 55.0 -131.4 52.0 -127.9 52.3 -129.45 52.8 -131.75 53.05 -132.05 55.0 -134.35 M39.75 -138.2 L38.95 -137.9 38.75 -138.25 38.2 -141.95 38.4 -142.0 Q38.75 -140.3 39.75 -138.2" fill="#ffff8d" fill-rule="evenodd" stroke="none"/>
    <path d="M-3.35 -158.4 L0.15 -150.05 1.85 -150.05 3.1 -150.4 4.6 -150.75 7.35 -150.75 Q7.35 -148.85 8.8 -144.65 10.45 -139.8 11.95 -139.8 L13.5 -139.9 9.7 -136.9 9.6 -136.8 9.15 -136.25 8.85 -136.85 8.2 -138.15 Q6.45 -142.25 5.95 -146.2 L0.8 -145.7 0.6 -145.65 0.45 -146.1 Q-0.45 -148.4 -2.4 -151.5 L-6.1 -157.0 -3.35 -158.4 M15.85 -141.5 L16.65 -148.55 17.5 -155.5 22.65 -155.5 24.4 -153.55 25.7 -151.7 25.9 -151.65 26.05 -151.5 26.05 -151.35 26.1 -151.55 Q26.55 -153.0 27.65 -154.1 L29.4 -155.45 30.35 -154.4 30.3 -154.65 29.7 -155.6 Q31.55 -156.65 34.35 -157.2 L40.5 -158.1 40.6 -158.05 39.9 -157.2 Q36.2 -152.65 35.05 -150.65 L34.5 -150.7 33.4 -150.5 Q32.75 -150.5 31.65 -151.25 L31.05 -151.7 30.9 -151.85 30.8 -151.9 30.9 -151.45 30.95 -151.25 31.3 -150.35 30.65 -150.1 29.5 -149.75 Q26.6 -148.8 25.45 -148.8 24.85 -148.8 22.85 -150.55 21.05 -152.05 19.6 -151.45 L19.75 -148.45 20.05 -145.8 Q20.0 -144.55 15.85 -141.5" fill="#952c19" fill-rule="evenodd" stroke="none"/>
    <path d="M37.05 -163.4 L34.3 -162.2 Q25.65 -158.25 25.5 -158.55 L24.35 -158.6 23.0 -160.5 21.0 -164.4 21.25 -164.6 20.55 -165.8 19.8 -167.0 21.4 -166.65 23.45 -166.1 25.7 -165.5 28.9 -165.05 32.75 -164.3 37.05 -163.4 M23.6 -158.65 L22.5 -158.8 19.85 -159.1 Q18.35 -159.1 16.2 -157.45 13.85 -155.55 13.0 -152.95 L12.95 -153.0 Q12.95 -154.35 13.3 -155.7 L13.65 -158.4 Q13.65 -160.7 13.45 -161.25 L13.1 -161.25 8.55 -158.45 Q4.15 -155.75 3.25 -154.25 L3.05 -154.4 1.2 -160.9 3.7 -162.35 5.25 -163.2 8.45 -164.4 11.0 -165.55 Q13.65 -166.75 15.35 -167.85 L16.4 -167.7 17.8 -166.15 17.9 -165.8 18.05 -165.5 Q19.55 -162.55 22.55 -159.85 L23.6 -158.65 M55.8 -139.95 Q54.3 -138.35 54.3 -137.1 L54.85 -134.9 55.0 -134.35 53.05 -132.05 52.8 -131.75 53.15 -133.65 51.95 -133.9 51.15 -134.15 Q49.75 -134.15 47.65 -136.5 45.6 -138.9 42.5 -138.9 L41.05 -138.6 40.5 -140.1 38.2 -143.7 38.1 -143.9 37.75 -144.4 35.5 -147.7 35.9 -148.1 35.55 -148.55 35.65 -148.7 36.15 -148.95 36.2 -148.95 37.4 -149.8 37.05 -150.1 42.45 -156.4 44.2 -158.75 44.9 -159.8 45.35 -159.0 50.5 -149.5 55.8 -139.95 M55.4 -132.1 L55.4 -131.8 55.15 -131.55 55.0 -131.4 55.4 -132.1 M22.55 -110.8 L22.55 -110.7 22.5 -110.8 22.55 -110.8" fill="#6d584c" fill-rule="evenodd" stroke="none"/>
    <path d="M38.95 -137.9 L34.05 -135.85 Q25.8 -132.1 25.4 -128.55 24.85 -119.4 24.2 -116.35 L23.8 -114.9 23.0 -117.5 Q22.65 -120.95 19.55 -120.85 L17.25 -121.05 Q16.1 -121.65 15.75 -123.75 15.3 -126.55 14.3 -129.25 L14.55 -133.9 Q14.55 -136.1 13.4 -136.65 L12.3 -136.85 13.75 -137.8 18.6 -140.9 Q24.15 -144.6 22.15 -148.25 L23.3 -146.9 Q24.0 -146.1 24.85 -146.1 L32.3 -147.65 32.6 -147.7 34.65 -148.35 34.9 -148.0 34.4 -147.8 Q33.95 -147.4 33.95 -146.5 L33.95 -146.35 Q34.05 -144.9 36.45 -141.55 L36.7 -141.3 38.75 -138.25 38.95 -137.9 M22.3 -112.55 Q21.0 -111.45 19.1 -111.45 L17.65 -111.7 14.35 -116.9 Q14.05 -118.65 14.0 -121.35 14.4 -120.45 15.3 -120.0 L16.75 -119.6 Q20.1 -119.1 20.65 -117.4 L21.85 -114.0 22.3 -112.55" fill="#5d4538" fill-rule="evenodd" stroke="none"/>
    <path d="M54.85 -127.65 L54.7 -127.1 Q53.8 -124.3 52.45 -123.8 L52.9 -125.05 53.15 -125.65 54.85 -127.65 M17.65 -111.7 Q15.4 -112.5 14.55 -115.95 L14.35 -116.9 17.65 -111.7 M6.3 -136.7 L2.75 -136.65 Q0.5 -136.75 0.4 -134.55 L0.2 -131.1 -0.3 -131.1 -2.75 -135.4 Q-3.9 -137.55 -6.9 -137.55 -8.95 -137.55 -10.9 -136.55 -12.8 -135.6 -13.45 -135.6 -14.3 -135.6 -15.35 -138.35 -15.95 -139.95 -16.8 -140.6 L-16.6 -141.1 -16.4 -141.65 -14.85 -144.45 -13.45 -147.25 Q-10.7 -152.75 -9.5 -155.6 L-8.85 -155.8 Q-8.0 -156.1 -6.8 -156.7 -5.6 -154.6 -2.65 -150.25 L-1.3 -147.9 Q0.1 -145.1 0.05 -143.3 L2.45 -144.1 4.5 -144.55 4.9 -141.55 5.3 -139.2 Q5.65 -137.85 6.3 -136.7" fill="#402828" fill-rule="evenodd" stroke="none"/>
  </g>
  <defs>
    <radialGradient cx="0" cy="0" gradientTransform="matrix(0.0947, 0.0, 0.0, 0.0649, 18.3, -145.1)" gradientUnits="userSpaceOnUse" id="gradient0" r="819.2" spreadMethod="pad">
      <stop offset="0.0" stop-color="#fff27f"/>
      <stop offset="1.0" stop-color="#dd4931" stop-opacity="0.0"/>
    </radialGradient>
  </defs>
</svg>
