<?xml version="1.0" encoding="UTF-8" standalone="no"?>
<svg xmlns:ffdec="https://www.free-decompiler.com/flash" xmlns:xlink="http://www.w3.org/1999/xlink" ffdec:objectType="shape" height="353.1px" width="376.0px" xmlns="http://www.w3.org/2000/svg">
  <g transform="matrix(1.0, 0.0, 0.0, 1.0, 188.0, 176.55)">
    <path d="M20.75 134.2 Q18.75 140.1 15.45 145.45 12.95 149.3 9.75 152.85 L7.45 155.3 Q7.05 153.35 6.1 151.3 4.25 147.3 1.9 147.3 0.45 147.3 -6.8 150.45 -13.9 153.55 -16.45 155.25 -17.25 155.8 -17.9 160.75 -18.35 164.55 -19.2 168.1 -20.65 170.2 -20.9 174.7 -22.15 176.2 -24.7 176.55 -27.25 176.85 -29.15 168.0 L-28.55 160.05 -27.95 152.45 -27.95 150.85 -33.25 150.05 -40.15 149.4 Q-40.55 149.4 -42.15 152.25 -43.65 155.0 -44.0 156.1 L-46.7 149.4 -47.75 149.4 -57.6 151.4 -57.8 152.0 -58.2 151.55 Q-69.1 138.7 -70.65 121.5 L-188.0 -169.95 188.0 -176.55 20.75 134.2" fill="url(#gradient0)" fill-rule="evenodd" stroke="none"/>
  </g>
  <defs>
    <radialGradient cx="0" cy="0" gradientTransform="matrix(0.2642, 0.0, 0.0, 0.4242, -24.3, 151.0)" gradientUnits="userSpaceOnUse" id="gradient0" r="819.2" spreadMethod="pad">
      <stop offset="0.0" stop-color="#fff27f"/>
      <stop offset="1.0" stop-color="#dd4931" stop-opacity="0.0"/>
    </radialGradient>
  </defs>
</svg>
