<?xml version="1.0" encoding="UTF-8" standalone="no"?>
<svg xmlns:ffdec="https://www.free-decompiler.com/flash" xmlns:xlink="http://www.w3.org/1999/xlink" ffdec:objectType="shape" height="112.65px" width="112.85px" xmlns="http://www.w3.org/2000/svg">
  <g transform="matrix(1.0, 0.0, 0.0, 1.0, 56.5, 56.85)">
    <path d="M5.15 -43.35 L2.55 -48.35 2.9 -48.6 1.05 -51.65 3.1 -51.25 8.6 -49.75 12.7 -49.15 17.65 -48.2 23.15 -47.05 19.65 -45.5 Q8.55 -40.45 8.35 -40.85 L6.85 -40.9 5.15 -43.35 M-22.85 -43.85 L-19.65 -45.7 -17.65 -46.8 Q-13.05 -48.55 -10.25 -49.8 -6.85 -51.35 -4.7 -52.75 L-3.35 -52.55 -1.55 -50.6 -1.4 -50.15 Q0.5 -46.15 4.55 -42.5 L5.9 -40.95 4.5 -41.15 1.1 -41.55 Q-0.85 -41.55 -3.6 -39.4 -6.6 -36.95 -7.7 -33.65 L-7.75 -33.7 -7.3 -37.15 Q-6.85 -38.95 -6.85 -40.65 -6.85 -43.6 -7.15 -44.3 L-7.55 -44.3 Q-7.9 -43.9 -13.4 -40.7 -19.05 -37.25 -20.2 -35.3 L-20.5 -35.5 -22.85 -43.85 M28.75 -10.9 L28.7 -11.9 Q28.65 -15.2 27.6 -17.15 L24.65 -21.75 24.5 -22.0 24.05 -22.65 21.2 -26.9 21.7 -27.4 21.25 -28.0 21.4 -28.2 22.0 -28.5 22.1 -28.5 Q23.25 -29.1 23.6 -29.6 L23.15 -30.0 Q27.35 -34.55 30.1 -38.05 L32.35 -41.1 33.25 -42.45 33.85 -41.4 40.45 -29.2 49.25 -13.2 43.7 -6.8 Q37.1 1.2 36.95 2.05 L29.45 -9.75 28.75 -10.9 M50.2 -11.15 L50.4 -10.8 50.05 -9.7 46.4 -6.15 46.2 -5.95 46.8 -7.0 Q47.9 -8.9 50.2 -11.15 M38.95 7.25 L38.85 7.7 38.75 7.9 Q38.25 9.2 37.55 9.95 L38.95 7.25 M-29.6 0.6 L-29.6 0.65 -30.05 0.75 -29.6 0.6 M4.55 20.5 L4.55 20.6 4.5 20.5 4.55 20.5" fill="#6d584c" fill-rule="evenodd" stroke="none"/>
    <path d="M23.15 -47.05 L17.65 -48.2 12.7 -49.15 8.6 -49.75 3.1 -51.25 1.05 -51.65 2.9 -48.6 2.55 -48.35 5.15 -43.35 6.15 -41.2 6.35 -40.95 7.4 -39.1 5.9 -40.95 4.55 -42.5 Q0.5 -46.15 -1.4 -50.15 L-1.55 -50.6 -3.35 -52.55 -4.7 -52.75 Q-6.85 -51.35 -10.25 -49.8 -13.05 -48.55 -17.65 -46.8 L-19.65 -45.7 -22.85 -43.85 -23.9 -43.25 Q-26.5 -41.8 -28.7 -40.65 L-32.2 -38.85 -27.45 -31.8 Q-24.95 -27.8 -23.8 -24.85 L-23.6 -24.25 -23.35 -24.35 -16.75 -24.95 Q-16.1 -19.9 -13.85 -14.65 L-12.65 -12.2 -12.05 -12.9 -7.05 -16.9 -5.85 -17.7 -4.05 -18.95 Q1.3 -22.85 1.35 -24.45 L0.95 -27.85 Q0.7 -30.3 0.75 -31.7 2.65 -32.5 4.95 -30.55 7.5 -28.3 8.3 -28.3 9.75 -28.3 13.5 -29.55 L14.95 -30.0 15.8 -30.3 15.35 -31.45 15.3 -31.7 15.15 -32.3 15.3 -32.2 15.45 -32.05 16.25 -31.45 Q17.65 -30.5 18.5 -30.5 L19.9 -30.75 20.6 -30.7 Q22.1 -33.25 26.85 -39.1 L27.75 -40.2 27.8 -40.25 30.75 -43.8 31.2 -44.3 31.85 -45.0 31.7 -45.25 31.7 -45.3 31.45 -45.75 28.75 -46.15 23.15 -47.05 M8.9 -54.4 Q13.85 -52.4 21.2 -50.6 29.1 -48.7 37.55 -47.8 L40.3 -42.35 Q42.05 -38.65 45.25 -32.8 L50.5 -23.45 56.35 -13.0 Q55.6 -10.6 55.2 -8.45 L53.45 1.6 51.85 11.65 Q49.85 23.75 49.1 30.05 41.6 33.3 33.3 37.35 29.05 39.45 21.1 44.0 L8.1 51.2 -0.35 55.8 Q-12.45 51.75 -25.1 44.3 -39.3 35.8 -45.85 33.35 L-49.1 31.1 -51.8 18.05 -52.55 11.25 Q-53.0 6.55 -54.65 -0.05 L-55.35 -2.8 -55.9 -5.95 -56.5 -9.45 -49.05 -22.8 Q-44.1 -31.55 -36.85 -42.9 L-35.75 -44.55 -35.5 -44.7 -14.5 -52.35 -1.05 -56.85 8.9 -54.4 M49.25 -13.2 L40.45 -29.2 33.85 -41.4 33.25 -42.45 32.35 -41.1 30.1 -38.05 Q27.35 -34.55 23.15 -30.0 L23.6 -29.6 Q23.25 -29.1 22.1 -28.5 L22.0 -28.5 21.4 -28.2 21.25 -28.0 21.7 -27.4 21.2 -26.9 24.05 -22.65 24.5 -22.0 24.65 -21.75 27.6 -17.15 Q28.65 -15.2 28.7 -11.9 L28.75 -10.9 Q25.6 -16.0 24.9 -19.6 L24.65 -19.5 25.35 -14.75 22.7 -18.7 22.4 -19.0 Q19.3 -23.3 19.2 -25.15 L19.2 -25.35 Q19.2 -26.5 19.75 -27.0 L20.4 -27.3 20.1 -27.75 17.45 -26.9 17.1 -26.85 Q13.3 -25.8 7.5 -24.85 6.4 -24.85 5.5 -25.85 L4.05 -27.6 Q6.6 -22.9 -0.5 -18.15 -2.45 -16.75 -6.75 -14.2 L-9.8 -12.05 -9.0 -11.75 -8.85 -11.6 -8.75 -10.4 -9.25 -9.65 Q-5.25 -3.1 -4.15 3.85 -3.7 6.55 -2.25 7.3 L0.7 7.55 Q4.7 7.45 5.15 11.9 L6.35 15.8 7.45 19.5 7.5 20.15 Q7.5 22.15 6.85 24.45 L6.55 25.8 7.65 25.8 Q12.0 22.9 18.5 19.5 L32.85 11.9 26.6 -2.5 Q26.3 -3.2 26.25 -7.4 L26.2 -9.55 26.2 -10.35 26.4 -9.35 Q27.4 -4.7 28.65 -1.35 31.05 5.5 36.25 12.05 L36.4 12.25 36.4 12.2 37.55 9.95 Q38.25 9.2 38.75 7.9 L38.85 7.7 38.95 7.25 39.8 4.15 Q40.5 1.65 41.15 0.3 42.15 -1.75 46.2 -5.95 L46.4 -6.15 50.05 -9.7 50.4 -10.8 50.2 -11.15 49.55 -12.65 49.25 -13.2 M20.6 -27.35 L20.65 -27.35 20.6 -27.4 20.6 -27.35 M35.0 14.5 Q37.15 16.2 39.6 19.9 L42.5 24.45 43.05 25.5 43.45 25.3 44.05 22.1 46.15 8.75 47.05 3.2 47.7 -0.15 48.55 -4.1 43.85 1.4 43.5 2.2 41.6 7.65 40.65 9.95 Q38.95 13.4 37.85 13.4 L36.2 13.2 35.8 13.6 34.9 14.4 34.8 14.45 35.0 14.5 M34.8 14.45 Q31.45 16.9 21.1 22.0 L6.75 28.75 6.3 28.95 5.65 29.25 5.5 30.0 5.6 30.0 9.25 32.95 Q10.7 34.1 10.7 35.25 L9.1 39.55 Q7.7 43.05 7.3 45.5 L12.3 42.55 Q15.45 40.75 26.4 35.35 35.05 29.8 39.05 27.4 39.65 27.0 40.4 26.7 39.2 25.1 37.75 22.15 34.8 16.25 34.8 15.4 L34.8 14.45 M-29.6 0.65 L-27.45 0.05 -26.5 -0.2 -22.7 0.0 -21.95 0.75 -18.7 -3.25 -17.7 -4.35 Q-14.45 -8.15 -12.2 -10.15 L-12.4 -10.25 -13.35 -9.55 Q-16.55 -11.95 -17.6 -16.0 L-18.1 -19.0 -18.6 -22.85 -21.25 -22.25 -24.35 -21.25 Q-24.25 -23.55 -26.05 -27.15 -26.75 -28.55 -27.8 -30.15 L-33.1 -38.45 Q-34.65 -37.7 -35.75 -37.3 L-36.6 -37.05 Q-38.15 -33.4 -41.65 -26.3 L-43.45 -22.7 -45.45 -19.15 -45.7 -18.4 -48.85 -10.7 Q-46.85 -10.6 -44.3 -7.85 L-41.35 -4.15 -39.8 -2.0 Q-37.15 1.3 -33.5 1.3 L-30.05 0.75 -29.6 0.65 M-49.55 -8.35 L-49.6 -8.4 -49.6 -8.35 -49.45 -7.55 -48.8 -4.55 -46.65 4.8 -45.75 8.45 -45.3 10.25 Q-43.8 17.6 -43.65 24.15 L-43.65 25.1 -43.7 28.05 -38.85 30.35 -37.95 30.8 -37.4 31.0 -35.1 32.3 -34.6 32.2 -25.1 31.45 -21.5 31.15 -20.1 31.0 -20.05 31.0 Q-19.85 31.65 -19.85 30.45 L-19.85 30.0 Q-19.85 23.9 -21.25 17.2 L-24.0 3.85 Q-31.2 7.7 -39.95 0.75 -44.95 -4.35 -47.7 -6.8 L-49.55 -8.35 M4.55 20.5 Q4.5 18.95 3.65 16.35 L2.1 12.0 Q1.4 9.8 -2.9 9.2 L-4.75 8.65 Q-6.8 7.55 -6.95 4.75 -7.05 1.65 -9.5 -4.8 L-10.7 -7.95 -13.6 -4.9 -15.3 -3.1 -18.05 -0.15 -20.95 2.9 -20.6 4.15 -20.5 5.05 -20.2 6.95 Q-20.05 9.2 -17.95 19.95 -16.35 28.3 -16.1 30.25 L-16.05 30.8 -16.05 30.9 Q-13.75 32.75 -12.3 32.75 -9.45 31.2 -6.05 29.65 L-4.75 29.1 Q-0.75 27.3 2.25 26.6 L2.8 26.45 Q3.0 25.4 3.55 24.0 L4.55 20.6 4.55 20.5 M-31.45 34.15 Q-27.4 36.2 -21.9 39.1 -13.05 42.3 -5.15 46.9 L-4.3 47.35 -2.55 48.45 1.85 50.6 1.85 50.5 Q1.85 49.6 3.6 48.15 L4.6 47.25 5.05 47.0 5.85 43.95 8.1 35.35 6.35 32.85 5.2 31.25 4.9 31.45 4.05 31.7 Q3.4 30.95 2.95 29.8 L-3.45 31.4 Q-4.55 31.7 -7.75 33.7 -10.55 35.35 -12.05 35.35 -14.0 35.35 -16.9 32.75 L-17.0 32.6 -18.3 33.2 -23.95 33.95 -31.45 34.15 M3.7 51.5 L3.45 51.4 3.65 51.55 3.7 51.5" fill="#160b0b" fill-rule="evenodd" stroke="none"/>
    <path d="M31.7 -45.3 L31.7 -45.25 31.85 -45.0 31.2 -44.3 30.75 -43.8 27.8 -40.25 27.6 -40.25 19.7 -39.1 Q16.1 -38.4 13.75 -37.05 L12.65 -37.7 13.35 -36.85 11.1 -35.1 Q9.7 -33.7 9.1 -31.85 L9.05 -31.8 8.85 -31.95 8.6 -32.05 6.95 -34.4 4.7 -36.9 -1.95 -36.9 -3.0 -28.0 -4.05 -18.95 -5.85 -17.7 -7.05 -16.9 -9.05 -16.75 Q-11.0 -16.75 -13.1 -23.0 -14.95 -28.35 -14.95 -30.8 L-18.5 -30.8 Q-19.05 -30.6 -20.4 -30.35 L-22.0 -29.9 -24.2 -29.9 -28.7 -40.65 Q-26.5 -41.8 -23.9 -43.25 L-21.55 -32.05 -14.9 -37.5 Q-9.3 -41.9 -8.8 -42.6 L-8.45 -42.5 Q-9.8 -38.5 -10.0 -36.85 L-10.15 -32.55 Q-10.15 -30.3 -9.25 -25.95 L-8.8 -25.95 Q-8.75 -29.8 -6.25 -34.65 -3.45 -40.0 -0.65 -40.0 -0.2 -40.0 2.45 -38.45 3.8 -37.7 4.8 -37.3 L6.4 -36.9 Q7.4 -36.9 9.2 -37.75 L12.95 -39.75 Q18.25 -42.8 19.15 -43.05 L30.25 -45.05 31.7 -45.3 M39.8 4.15 L38.95 7.25 37.55 9.95 36.4 12.2 36.25 12.05 Q31.05 5.5 28.65 -1.35 27.4 -4.7 26.4 -9.35 29.1 -6.4 31.7 -1.8 35.1 4.15 35.1 6.1 L35.3 6.15 35.5 6.5 39.8 4.15 M-20.1 31.0 L-21.5 31.15 Q-23.15 27.75 -25.75 20.1 L-28.65 11.15 Q-29.25 12.2 -30.0 19.95 L-30.0 20.35 Q-30.7 25.85 -33.65 25.55 L-33.65 23.9 -32.5 16.65 -31.45 11.0 -31.45 9.5 Q-35.5 9.3 -41.9 6.95 L-46.65 4.8 -48.8 -4.55 -43.85 -1.05 Q-38.75 2.8 -36.95 4.5 -35.45 5.85 -32.65 6.25 L-28.35 6.7 Q-25.85 7.15 -22.65 19.6 -21.2 25.15 -20.1 31.0" fill="#e69249" fill-rule="evenodd" stroke="none"/>
    <path d="M5.15 -43.35 L6.85 -40.9 8.35 -40.85 Q8.55 -40.45 19.65 -45.5 L23.15 -47.05 28.75 -46.15 31.45 -45.75 31.7 -45.3 30.25 -45.05 19.15 -43.05 Q18.25 -42.8 12.95 -39.75 L9.2 -37.75 Q7.4 -36.9 6.4 -36.9 L4.8 -37.3 Q3.8 -37.7 2.45 -38.45 -0.2 -40.0 -0.65 -40.0 -3.45 -40.0 -6.25 -34.65 -8.75 -29.8 -8.8 -25.95 L-9.25 -25.95 Q-10.15 -30.3 -10.15 -32.55 L-10.0 -36.85 Q-9.8 -38.5 -8.45 -42.5 L-8.8 -42.6 Q-9.3 -41.9 -14.9 -37.5 L-21.55 -32.05 -23.9 -43.25 -22.85 -43.85 -20.5 -35.5 -20.2 -35.3 Q-19.05 -37.25 -13.4 -40.7 -7.9 -43.9 -7.55 -44.3 L-7.15 -44.3 Q-6.85 -43.6 -6.85 -40.65 -6.85 -38.95 -7.3 -37.15 L-7.75 -33.7 -7.7 -33.65 Q-6.6 -36.95 -3.6 -39.4 -0.85 -41.55 1.1 -41.55 L4.5 -41.15 5.9 -40.95 7.4 -39.1 6.35 -40.95 6.15 -41.2 5.15 -43.35 M27.8 -40.25 L27.75 -40.2 27.6 -40.25 27.8 -40.25 M28.75 -10.9 L29.45 -9.75 36.95 2.05 Q37.1 1.2 43.7 -6.8 L49.25 -13.2 49.55 -12.65 50.2 -11.15 Q47.9 -8.9 46.8 -7.0 L46.2 -5.95 Q42.15 -1.75 41.15 0.3 40.5 1.65 39.8 4.15 L35.5 6.5 35.3 6.15 35.1 6.1 Q35.1 4.15 31.7 -1.8 29.1 -6.4 26.4 -9.35 L26.2 -10.35 26.2 -12.75 25.35 -14.75 24.65 -19.5 24.9 -19.6 Q25.6 -16.0 28.75 -10.9 M36.4 12.2 L36.4 12.25 36.25 12.05 36.4 12.2 M9.1 -31.85 L9.05 -31.6 9.05 -31.8 9.1 -31.85 M-21.5 31.15 L-25.1 31.45 -26.65 28.2 -30.0 20.35 -30.0 19.95 Q-29.25 12.2 -28.65 11.15 L-25.75 20.1 Q-23.15 27.75 -21.5 31.15 M-45.3 10.25 L-45.75 8.45 -46.65 4.8 -41.9 6.95 Q-35.5 9.3 -31.45 9.5 L-31.45 11.0 -32.5 16.65 -34.3 15.1 Q-35.7 13.4 -36.55 12.7 -38.9 10.45 -45.3 10.25" fill="#ffff8d" fill-rule="evenodd" stroke="none"/>
    <path d="M27.75 -40.2 L26.85 -39.1 Q22.1 -33.25 20.6 -30.7 L19.9 -30.75 18.5 -30.5 Q17.65 -30.5 16.25 -31.45 L15.45 -32.05 15.3 -32.2 15.15 -32.3 15.3 -31.7 15.35 -31.45 15.8 -30.3 14.95 -30.0 13.5 -29.55 Q9.75 -28.3 8.3 -28.3 7.5 -28.3 4.95 -30.55 2.65 -32.5 0.75 -31.7 0.7 -30.3 0.95 -27.85 L1.35 -24.45 Q1.3 -22.85 -4.05 -18.95 L-3.0 -28.0 -1.95 -36.9 4.7 -36.9 6.95 -34.4 8.6 -32.05 8.85 -31.95 9.05 -31.8 9.05 -31.6 9.1 -31.85 Q9.7 -33.7 11.1 -35.1 L13.35 -36.85 14.55 -35.5 14.5 -35.8 13.75 -37.05 Q16.1 -38.4 19.7 -39.1 L27.6 -40.25 27.75 -40.2 M-7.05 -16.9 L-12.05 -12.9 -12.65 -12.2 -13.85 -14.65 Q-16.1 -19.9 -16.75 -24.95 L-23.35 -24.35 -23.6 -24.25 -23.8 -24.85 Q-24.95 -27.8 -27.45 -31.8 L-32.2 -38.85 -28.7 -40.65 -24.2 -29.9 -22.0 -29.9 -20.4 -30.35 Q-19.05 -30.6 -18.5 -30.8 L-14.95 -30.8 Q-14.95 -28.35 -13.1 -23.0 -11.0 -16.75 -9.05 -16.75 L-7.05 -16.9 M-49.6 -8.35 L-49.55 -8.35 -47.7 -6.8 Q-44.95 -4.35 -39.95 0.75 -31.2 7.7 -24.0 3.85 L-21.25 17.2 Q-19.85 23.9 -19.85 30.0 L-19.85 30.45 Q-19.85 31.65 -20.05 31.0 L-20.1 31.0 Q-21.2 25.15 -22.65 19.6 -25.85 7.15 -28.35 6.7 L-32.65 6.25 Q-35.45 5.85 -36.95 4.5 -38.75 2.8 -43.85 -1.05 L-48.8 -4.55 -49.45 -7.55 -49.6 -8.35" fill="#952c19" fill-rule="evenodd" stroke="none"/>
    <path d="M26.2 -10.35 L26.2 -9.55 26.25 -7.4 Q26.3 -3.2 26.6 -2.5 L32.85 11.9 Q20.35 15.0 10.35 18.5 L7.45 19.5 6.35 15.8 5.15 11.9 Q4.7 7.45 0.7 7.55 L-2.25 7.3 Q-3.7 6.55 -4.15 3.85 -5.25 -3.1 -9.25 -9.65 L-8.75 -10.4 -8.85 -11.6 -9.0 -11.75 -9.8 -12.05 -6.75 -14.2 Q-2.45 -16.75 -0.5 -18.15 6.6 -22.9 4.05 -27.6 L5.5 -25.85 Q6.4 -24.85 7.5 -24.85 13.3 -25.8 17.1 -26.85 L17.45 -26.9 20.1 -27.75 20.4 -27.3 19.75 -27.0 Q19.2 -26.5 19.2 -25.35 L19.2 -25.15 Q19.3 -23.3 22.4 -19.0 L22.7 -18.7 25.35 -14.75 26.2 -12.75 26.2 -10.35 M-30.05 0.75 L-29.6 0.5 -29.6 0.6 -30.05 0.75 M-15.3 -3.1 L-13.6 -4.9 -10.7 -7.95 -9.5 -4.8 Q-7.05 1.65 -6.95 4.75 -6.8 7.55 -4.75 8.65 L-2.9 9.2 Q1.4 9.8 2.1 12.0 L3.65 16.35 Q4.5 18.95 4.55 20.5 L4.5 20.5 0.25 21.45 Q-1.05 21.45 -8.15 8.8 -13.4 -0.6 -15.3 -3.1" fill="#5d4538" fill-rule="evenodd" stroke="none"/>
    <path d="M32.85 11.9 L18.5 19.5 Q12.0 22.9 7.65 25.8 L6.55 25.8 6.85 24.45 Q7.5 22.15 7.5 20.15 L7.45 19.5 10.35 18.5 Q20.35 15.0 32.85 11.9 M34.9 14.4 L35.8 13.6 36.2 13.2 37.85 13.4 Q38.95 13.4 40.65 9.95 L41.6 7.65 43.5 2.2 43.85 1.4 48.55 -4.1 47.7 -0.15 47.05 3.2 46.15 8.75 44.05 22.1 43.45 25.3 43.05 25.5 42.5 24.45 39.6 19.9 Q37.15 16.2 35.0 14.5 L34.9 14.4 M-30.05 0.75 L-33.5 1.3 Q-37.15 1.3 -39.8 -2.0 L-41.35 -4.15 -44.3 -7.85 Q-46.85 -10.6 -48.85 -10.7 L-45.7 -18.4 -45.45 -19.15 -43.45 -22.7 -41.65 -26.3 Q-38.15 -33.4 -36.6 -37.05 L-35.75 -37.3 Q-34.65 -37.7 -33.1 -38.45 L-27.8 -30.15 Q-26.75 -28.55 -26.05 -27.15 -24.25 -23.55 -24.35 -21.25 L-21.25 -22.25 -18.6 -22.85 -18.1 -19.0 -17.6 -16.0 Q-16.55 -11.95 -13.35 -9.55 L-12.4 -10.25 -12.2 -10.15 Q-14.45 -8.15 -17.7 -4.35 L-18.7 -3.25 -21.95 0.75 -22.7 0.0 -26.5 -0.2 -27.45 0.05 -29.6 0.65 -29.6 0.6 -29.6 0.5 -30.05 0.75 M4.55 20.6 L3.55 24.0 Q3.0 25.4 2.8 26.45 L2.25 26.6 Q-0.75 27.3 -4.75 29.1 L-6.05 29.65 Q-9.45 31.2 -12.3 32.75 -13.75 32.75 -16.05 30.9 L-16.05 30.8 -16.1 30.25 Q-16.35 28.3 -17.95 19.95 -20.05 9.2 -20.2 6.95 L-20.5 5.05 -20.6 4.15 -20.95 2.9 -18.05 -0.15 -15.3 -3.1 Q-13.4 -0.6 -8.15 8.8 -1.05 21.45 0.25 21.45 L4.5 20.5 4.55 20.6" fill="#402828" fill-rule="evenodd" stroke="none"/>
    <path d="M34.8 14.45 L34.8 15.4 Q34.8 16.25 37.75 22.15 39.2 25.1 40.4 26.7 39.65 27.0 39.05 27.4 35.05 29.8 26.4 35.35 15.45 40.75 12.3 42.55 L7.3 45.5 Q7.7 43.05 9.1 39.55 L10.7 35.25 Q10.7 34.1 9.25 32.95 L5.6 30.0 5.5 30.0 5.65 29.25 6.3 28.95 6.75 28.75 21.1 22.0 Q31.45 16.9 34.8 14.45 M-49.6 -8.35 L-49.6 -8.4 -49.55 -8.35 -49.6 -8.35 M-25.1 31.45 L-34.6 32.2 -35.1 32.3 -37.4 31.0 -37.95 30.8 -38.85 30.35 -43.7 28.05 -43.65 25.1 -43.65 24.15 Q-43.8 17.6 -45.3 10.25 -38.9 10.45 -36.55 12.7 -35.7 13.4 -34.3 15.1 L-32.5 16.65 -33.65 23.9 -33.65 25.55 Q-30.7 25.85 -30.0 20.35 L-26.65 28.2 -25.1 31.45 M-31.45 34.15 L-23.95 33.95 -18.3 33.2 -17.0 32.6 -16.9 32.75 Q-14.0 35.35 -12.05 35.35 -10.55 35.35 -7.75 33.7 -4.55 31.7 -3.45 31.4 L2.95 29.8 Q3.4 30.95 4.05 31.7 L4.9 31.45 5.2 31.25 6.35 32.85 8.1 35.35 5.85 43.95 5.05 47.0 4.6 47.25 3.6 48.15 Q1.85 49.6 1.85 50.5 L1.85 50.6 -2.55 48.45 -4.3 47.35 -5.15 46.9 Q-13.05 42.3 -21.9 39.1 -27.4 36.2 -31.45 34.15" fill="#2f1d1c" fill-rule="evenodd" stroke="none"/>
  </g>
</svg>
