<?xml version="1.0" encoding="UTF-8" standalone="no"?>
<svg xmlns:ffdec="https://www.free-decompiler.com/flash" xmlns:xlink="http://www.w3.org/1999/xlink" ffdec:objectType="shape" height="326.3px" width="399.85px" xmlns="http://www.w3.org/2000/svg">
  <g transform="matrix(1.0, 0.0, 0.0, 1.0, 163.05, 399.5)">
    <path d="M194.05 -315.25 Q194.05 -314.3 191.25 -313.55 L188.3 -313.0 Q186.65 -313.0 186.35 -314.0 186.15 -314.55 186.3 -315.15 186.3 -316.65 188.65 -317.8 190.85 -318.85 193.85 -319.05 201.35 -319.6 201.35 -315.4 201.35 -313.55 199.75 -313.55 198.15 -313.55 197.15 -314.95 196.2 -316.3 194.0 -316.15 L194.05 -315.25 M198.45 -303.2 Q198.45 -305.05 200.25 -306.0 201.9 -306.8 204.2 -306.5 209.9 -305.75 209.9 -300.9 209.9 -299.35 208.95 -298.6 207.7 -297.55 204.6 -297.55 201.7 -297.55 199.95 -299.5 198.45 -301.15 198.45 -303.2 M213.55 -303.75 L213.45 -304.0 Q212.35 -306.7 210.95 -306.7 209.5 -306.7 209.05 -307.6 208.85 -308.05 208.95 -308.3 208.95 -310.1 211.3 -309.45 213.6 -308.8 214.2 -306.75 L214.7 -305.05 214.65 -305.05 213.55 -303.75 M231.65 -264.5 L234.1 -256.15 Q233.1 -256.95 231.9 -257.05 228.3 -257.45 228.3 -251.95 228.3 -250.45 228.85 -249.25 229.85 -247.1 232.35 -247.1 233.15 -247.1 233.8 -247.8 234.4 -248.45 234.4 -249.2 234.4 -249.9 234.05 -250.35 L233.35 -251.15 Q233.85 -251.15 234.6 -251.9 L234.9 -252.25 235.25 -248.55 234.95 -243.6 234.4 -243.6 Q232.0 -243.55 232.0 -240.7 232.0 -240.0 232.3 -239.35 232.65 -238.55 233.3 -238.25 L232.9 -237.6 Q230.85 -234.35 227.5 -234.35 223.65 -234.35 222.6 -237.6 222.15 -239.05 222.15 -243.7 222.15 -245.65 224.05 -253.8 L225.9 -262.85 Q225.9 -265.2 221.7 -273.15 217.45 -281.15 217.45 -287.15 217.45 -288.9 218.4 -289.5 L219.2 -289.85 219.2 -289.8 Q222.45 -284.2 223.1 -279.8 223.2 -275.1 224.1 -271.4 225.8 -264.25 230.55 -264.25 L231.65 -264.5 M83.85 -336.25 L84.05 -335.05 Q84.05 -334.3 83.2 -333.45 82.25 -332.55 80.8 -332.25 80.45 -332.55 80.35 -333.05 L80.35 -333.1 80.45 -333.35 80.55 -333.6 Q81.65 -336.35 82.2 -336.9 L83.6 -336.9 83.85 -336.25 M152.75 -335.95 Q151.1 -334.55 149.7 -334.55 L146.9 -335.0 144.1 -335.5 Q140.8 -335.5 137.6 -332.85 133.5 -329.45 132.2 -328.95 130.7 -328.3 125.55 -327.4 121.15 -326.6 119.1 -325.2 120.85 -327.75 124.6 -334.3 127.5 -338.75 130.3 -340.7 L131.5 -341.85 Q133.2 -343.3 135.6 -344.6 141.2 -347.65 145.7 -347.65 149.0 -347.65 151.8 -345.3 154.65 -342.9 154.65 -339.75 154.65 -337.6 152.75 -335.95 M55.85 -356.1 L56.15 -356.3 56.5 -356.55 57.5 -354.4 Q57.9 -353.1 57.9 -351.15 57.9 -347.65 57.4 -346.25 L56.5 -346.25 56.05 -349.0 Q55.55 -351.25 55.55 -352.35 55.55 -355.0 55.85 -356.1 M50.9 -363.35 L50.65 -362.2 50.4 -361.2 49.95 -361.2 49.5 -361.65 49.5 -364.95 50.55 -365.0 50.9 -363.35 M137.2 -329.65 L138.2 -330.9 Q139.45 -331.75 140.1 -331.75 141.5 -331.75 142.5 -330.85 141.05 -327.85 139.75 -327.85 L136.25 -328.5 136.95 -329.35 137.2 -329.65 M32.95 -339.65 L33.1 -337.85 Q33.1 -336.45 32.4 -334.75 31.7 -333.1 31.7 -331.75 L31.25 -332.0 31.25 -341.6 Q32.55 -341.0 32.95 -339.65 M37.15 -329.45 L37.35 -328.5 Q37.35 -326.65 36.1 -325.3 L34.05 -323.35 33.75 -323.6 Q33.6 -324.2 33.6 -325.25 33.6 -327.05 34.6 -328.6 35.65 -330.3 36.9 -329.9 L37.15 -329.45 M-1.95 -337.45 L-2.05 -337.9 -2.3 -339.95 -1.35 -344.6 -0.9 -346.45 0.0 -344.25 0.45 -341.15 0.3 -337.75 Q0.05 -336.7 -0.85 -336.2 -0.95 -336.9 -1.5 -337.5 L-1.95 -337.45 M7.25 -340.7 L6.95 -341.1 6.95 -344.4 7.4 -345.1 7.9 -345.8 8.85 -345.55 Q10.25 -345.05 10.25 -344.15 9.65 -340.65 8.1 -340.65 L7.25 -340.7 M58.7 -150.5 Q59.8 -153.35 59.8 -159.35 L59.6 -162.0 60.05 -162.15 Q63.25 -154.35 63.25 -152.45 63.25 -145.85 58.7 -140.25 54.1 -134.5 48.4 -134.5 47.3 -134.5 46.2 -135.6 45.05 -136.7 43.55 -136.7 37.75 -136.7 32.7 -133.5 29.45 -131.45 23.9 -125.95 19.85 -129.25 17.5 -132.2 L15.1 -135.6 Q14.2 -136.75 12.45 -137.05 L5.35 -137.35 Q1.9 -137.35 0.65 -136.05 L-1.1 -132.75 Q-2.6 -132.55 -4.2 -134.35 -6.05 -136.45 -6.8 -136.7 L-10.35 -136.95 -13.65 -136.7 Q-21.55 -136.7 -26.35 -154.25 -28.0 -160.2 -29.35 -168.1 L-30.4 -174.3 -27.95 -168.45 -22.8 -155.9 Q-15.2 -139.05 -8.5 -139.05 -6.35 -139.05 -5.6 -140.25 -5.05 -141.1 -5.05 -143.3 -5.05 -145.55 -5.9 -150.7 -6.8 -155.9 -6.8 -158.15 -6.8 -159.4 -5.65 -163.85 -4.95 -166.65 -4.9 -168.55 -4.35 -160.3 -2.6 -154.45 0.45 -144.2 6.5 -144.2 12.85 -144.2 20.2 -155.7 25.4 -163.9 29.05 -173.8 30.15 -173.8 30.15 -172.15 L28.7 -165.3 27.25 -158.15 Q27.25 -150.4 35.85 -147.55 41.15 -145.85 51.8 -145.85 56.9 -145.85 58.7 -150.5 M-43.4 -353.25 Q-41.3 -353.25 -40.45 -349.65 -39.75 -346.65 -40.25 -344.3 L-41.75 -346.8 Q-43.9 -350.55 -43.9 -351.15 L-43.85 -352.45 -43.4 -353.25 M-131.7 -300.9 L-129.25 -303.2 Q-128.6 -303.75 -127.25 -303.75 L-126.0 -303.7 Q-125.5 -303.6 -125.2 -303.3 L-125.2 -301.35 Q-126.05 -300.35 -127.05 -299.45 -128.95 -297.65 -129.85 -297.65 -131.45 -297.65 -131.7 -298.55 L-131.75 -299.4 -131.7 -300.9 M-139.65 -298.5 L-139.6 -298.55 Q-137.35 -298.5 -137.35 -294.15 -137.35 -292.1 -137.85 -290.9 -138.6 -289.2 -140.4 -289.2 -142.0 -289.2 -142.0 -291.6 -142.0 -292.8 -141.05 -295.5 L-139.65 -298.5 M-155.15 -253.25 L-155.05 -253.05 Q-156.0 -250.15 -156.0 -248.3 L-148.1 -212.1 Q-148.1 -210.45 -150.4 -208.35 -152.8 -206.1 -154.9 -206.1 -157.65 -206.1 -160.25 -211.2 -163.05 -216.75 -163.05 -223.8 -163.05 -229.2 -159.8 -240.9 -156.95 -251.15 -155.15 -253.25 M-144.75 -281.35 L-144.8 -279.65 Q-144.8 -275.45 -144.1 -273.8 -143.4 -272.2 -143.4 -267.75 -143.4 -265.05 -143.85 -262.1 -144.65 -256.95 -146.45 -256.95 -147.95 -256.95 -149.0 -259.8 -149.95 -262.4 -149.95 -265.35 -149.95 -269.05 -148.55 -273.9 -147.0 -279.15 -144.75 -281.35" fill="#fffa86" fill-opacity="0.69411767" fill-rule="evenodd" stroke="none"/>
    <path d="M175.15 -318.25 Q175.05 -317.75 174.4 -317.4 L174.0 -317.65 Q173.6 -318.05 173.6 -318.55 L175.15 -318.25 M196.75 -307.9 L197.0 -306.55 Q196.85 -306.05 196.2 -305.7 L195.05 -305.85 Q194.8 -306.05 194.8 -307.1 194.8 -307.9 196.5 -308.95 L196.75 -307.9 M205.05 -285.8 L204.55 -285.0 203.1 -284.9 202.95 -284.85 Q202.8 -284.9 202.8 -285.9 L202.95 -286.95 203.65 -287.0 204.75 -286.8 205.05 -285.8 M199.1 -292.5 L198.3 -292.5 Q198.0 -292.9 198.0 -294.2 L198.55 -294.2 199.6 -293.85 Q199.6 -292.9 199.1 -292.5 M33.95 -287.95 Q33.7 -287.05 32.65 -286.65 L32.2 -286.85 31.4 -287.45 32.5 -288.6 33.45 -288.9 33.95 -287.95 M2.6 -252.65 L2.2 -252.9 Q1.75 -253.3 1.75 -253.8 L3.3 -253.5 Q3.15 -253.0 2.6 -252.65 M17.8 -120.15 L20.35 -120.1 Q25.65 -119.5 25.65 -116.9 L21.65 -111.35 Q18.55 -111.35 16.55 -114.3 15.25 -116.2 15.1 -117.55 14.8 -118.35 14.8 -119.15 14.8 -120.35 15.15 -120.7 L16.2 -121.2 17.8 -120.15 M55.2 -111.6 L55.6 -107.6 Q55.8 -104.0 56.25 -102.45 57.1 -99.75 58.4 -96.95 L60.9 -91.95 60.9 -91.9 61.2 -91.15 Q61.8 -89.55 63.55 -88.45 64.65 -87.75 64.9 -86.9 L66.6 -85.4 Q68.8 -83.25 68.0 -81.35 L69.75 -79.65 70.2 -78.65 Q70.2 -77.65 68.75 -76.75 67.05 -75.75 64.4 -75.75 61.55 -75.75 59.95 -77.2 58.8 -78.25 58.8 -79.1 L58.8 -79.2 58.2 -79.3 58.05 -79.7 57.85 -80.7 Q57.85 -82.05 59.95 -82.05 L60.6 -82.0 Q59.8 -83.1 59.15 -84.25 L57.45 -85.7 Q55.75 -86.1 54.65 -88.65 52.7 -90.1 51.35 -93.45 50.2 -96.4 49.85 -99.55 49.85 -101.65 50.65 -104.85 L50.9 -105.85 Q50.6 -108.2 50.6 -109.8 50.6 -114.6 50.75 -115.6 51.5 -120.1 54.65 -120.05 L55.2 -111.6 M-18.2 -106.05 L-17.5 -108.25 Q-16.5 -111.9 -15.35 -112.65 -14.45 -111.25 -13.95 -109.05 -13.5 -107.25 -13.5 -105.65 -13.5 -103.2 -19.15 -97.75 L-21.5 -95.6 -23.15 -93.0 Q-25.35 -89.7 -27.2 -88.05 -27.35 -85.35 -27.85 -81.85 L-28.95 -74.05 -29.3 -73.75 Q-29.85 -73.4 -30.75 -73.2 L-30.9 -73.8 -31.2 -73.7 -33.0 -73.2 Q-33.55 -74.4 -33.55 -77.9 -33.55 -82.35 -31.4 -88.15 -31.1 -91.4 -30.4 -93.65 -27.45 -103.55 -18.45 -106.1 L-18.2 -106.05" fill="#de4830" fill-rule="evenodd" stroke="none"/>
    <path d="M214.7 -305.05 Q216.5 -306.7 219.1 -306.85 225.7 -307.25 228.7 -298.75 L230.8 -291.8 233.0 -287.35 233.2 -285.1 233.35 -284.45 Q234.85 -278.2 234.85 -272.75 234.85 -270.45 233.95 -267.85 233.05 -265.2 231.65 -264.5 L230.55 -264.25 Q225.8 -264.25 224.1 -271.4 223.2 -275.1 223.1 -279.8 222.45 -284.2 219.2 -289.8 L219.2 -289.85 Q216.2 -295.1 216.2 -295.55 L216.4 -297.3 Q215.7 -297.75 215.35 -298.4 213.65 -298.6 213.05 -299.5 212.75 -300.0 212.75 -301.1 212.75 -302.55 213.55 -303.75 L214.65 -305.05 214.7 -305.05 M234.1 -256.15 L234.4 -255.9 Q235.5 -254.85 235.5 -253.65 235.5 -252.95 234.9 -252.25 L234.6 -251.9 Q233.85 -251.15 233.35 -251.15 L234.05 -250.35 Q234.4 -249.9 234.4 -249.2 234.4 -248.45 233.8 -247.8 233.15 -247.1 232.35 -247.1 229.85 -247.1 228.85 -249.25 228.3 -250.45 228.3 -251.95 228.3 -257.45 231.9 -257.05 233.1 -256.95 234.1 -256.15 M234.95 -243.6 Q236.8 -243.45 236.8 -241.55 236.8 -240.85 236.1 -239.6 235.2 -238.1 234.15 -238.1 L233.3 -238.25 Q232.65 -238.55 232.3 -239.35 232.0 -240.0 232.0 -240.7 232.0 -243.55 234.4 -243.6 L234.95 -243.6 M-1.95 -337.45 L-1.5 -337.5 Q-0.95 -336.9 -0.85 -336.2 L-0.85 -336.05 Q-1.05 -335.55 -1.85 -335.2 -2.8 -335.6 -2.8 -337.0 L-1.95 -337.45 M34.45 -317.25 Q34.05 -316.3 33.3 -315.95 32.75 -316.2 32.45 -316.8 32.15 -317.3 32.15 -317.75 L32.95 -318.3 34.1 -318.25 34.45 -317.25 M-0.8 -315.45 Q-1.15 -314.9 -2.15 -314.9 -3.2 -314.9 -4.1 -316.1 L-4.85 -317.35 -4.75 -318.05 Q-3.85 -318.2 -2.6 -317.65 -1.35 -317.15 -0.65 -316.3 L-0.8 -315.45 M-139.8 -279.85 L-138.45 -273.95 Q-136.9 -267.7 -136.85 -264.45 L-136.85 -248.3 Q-136.85 -240.4 -137.2 -233.8 -137.8 -223.2 -139.2 -221.25 -141.7 -223.6 -143.5 -230.7 -145.4 -238.15 -145.4 -246.35 -145.4 -253.65 -142.15 -269.35 L-139.8 -279.85 M-149.8 -225.4 Q-151.55 -232.75 -151.55 -244.4 -151.55 -252.9 -150.8 -254.4 -150.8 -252.75 -146.15 -239.05 -141.55 -225.4 -141.55 -220.5 -141.55 -216.65 -143.05 -214.95 -147.65 -216.3 -149.8 -225.4" fill="#de4830" fill-opacity="0.69411767" fill-rule="evenodd" stroke="none"/>
    <path d="M39.35 -241.1 L41.5 -238.95 41.4 -237.9 41.3 -237.8 Q40.65 -236.8 39.35 -236.3 L37.9 -237.7 Q37.3 -238.4 37.3 -239.05 L37.4 -240.3 Q37.8 -241.35 39.35 -241.1 M26.6 -221.9 Q27.05 -221.45 27.05 -220.2 L26.8 -218.7 26.4 -218.35 24.75 -218.05 22.95 -218.5 22.7 -218.35 Q22.4 -218.45 22.4 -219.65 L23.45 -220.85 25.5 -222.55 26.6 -221.9 M38.5 -208.1 L37.85 -209.5 Q37.85 -213.75 42.75 -212.05 L42.95 -211.3 43.1 -209.5 Q43.1 -208.1 42.65 -207.4 42.05 -206.6 40.2 -205.95 39.3 -206.75 38.5 -208.1 M75.05 -223.4 L74.8 -223.3 74.75 -222.75 73.5 -222.55 Q71.55 -222.55 70.95 -224.05 70.65 -224.8 70.75 -225.65 70.75 -228.35 72.95 -227.45 75.15 -226.5 75.15 -224.5 L75.05 -223.4 M68.45 -214.15 L68.6 -212.9 Q68.6 -210.75 68.05 -210.0 67.5 -209.25 66.05 -209.25 L64.0 -209.6 63.9 -209.95 63.8 -211.3 Q63.8 -212.6 65.5 -213.4 66.85 -214.0 68.25 -214.0 L68.45 -214.15 M79.15 -200.45 Q78.75 -200.7 78.75 -201.9 L78.8 -202.85 Q79.35 -203.4 82.1 -203.4 L82.35 -202.75 82.75 -201.8 81.8 -200.8 Q80.95 -200.25 80.4 -200.15 L79.15 -200.45 M-8.25 -236.8 L-8.35 -235.4 -8.8 -234.75 -9.15 -234.55 -10.75 -234.35 -13.1 -234.75 -12.75 -240.9 -11.5 -241.1 Q-9.7 -239.05 -9.75 -238.85 -10.2 -238.9 -10.2 -238.55 -10.2 -237.6 -9.2 -237.65 -8.25 -237.7 -8.25 -236.8 M-25.85 -218.4 L-25.65 -216.75 Q-25.65 -215.85 -26.15 -215.05 -26.75 -214.0 -27.8 -213.8 -29.4 -214.2 -29.8 -215.35 L-29.9 -216.8 Q-29.9 -218.35 -29.4 -218.9 L-26.05 -219.05 -25.85 -218.4" fill="#fffa86" fill-opacity="0.47058824" fill-rule="evenodd" stroke="none"/>
    <path d="M-33.25 -298.05 Q-31.65 -297.4 -31.65 -295.85 -31.65 -293.7 -32.6 -292.3 -33.5 -291.0 -34.75 -291.0 L-36.0 -291.05 -36.8 -291.35 -37.0 -295.75 -36.95 -297.3 -36.8 -298.2 -33.25 -298.05" fill="#fffa86" fill-rule="evenodd" stroke="none"/>
    <path d="M54.9 -398.3 Q54.9 -395.8 46.35 -393.0 37.8 -390.2 37.8 -388.55 L38.6 -387.3 39.75 -385.5 39.2 -385.05 38.05 -384.75 Q36.15 -384.75 35.15 -386.6 34.5 -387.75 34.5 -388.6 34.5 -391.7 39.5 -393.2 42.6 -394.15 45.15 -394.15 47.3 -394.25 49.7 -395.2 52.05 -396.1 52.25 -396.9 51.9 -398.45 52.0 -398.8 52.25 -399.85 54.4 -399.35 L54.65 -399.2 54.9 -398.3 M122.05 -364.5 L118.0 -364.0 Q117.45 -358.75 116.85 -357.05 115.25 -352.65 111.1 -352.65 L108.05 -352.8 108.0 -353.0 107.55 -353.55 107.55 -354.3 Q113.05 -354.35 114.65 -356.65 115.55 -357.95 115.35 -361.3 115.15 -364.4 116.25 -365.25 117.95 -366.6 123.8 -365.35 122.55 -364.65 122.05 -364.5 M-75.35 -312.55 Q-75.35 -311.05 -77.15 -311.05 -81.0 -311.05 -89.85 -318.85 -89.85 -319.7 -88.85 -320.9 -87.95 -322.1 -88.05 -324.25 L-88.05 -324.35 -86.15 -322.85 -84.65 -321.3 -85.45 -320.25 Q-86.15 -319.5 -87.3 -319.0 -84.05 -316.65 -81.75 -315.25 -77.45 -312.6 -75.6 -313.75 L-75.45 -313.45 -75.35 -312.55" fill="#fffa86" fill-opacity="0.5176471" fill-rule="evenodd" stroke="none"/>
    <path d="M61.2 -374.3 L61.1 -370.05 Q60.8 -367.55 59.75 -366.8 57.2 -368.05 55.1 -370.95 53.65 -372.9 50.45 -372.9 L48.7 -372.95 Q48.95 -376.1 49.9 -378.4 51.85 -383.15 56.5 -383.15 59.75 -383.15 60.75 -379.9 61.2 -378.3 61.2 -374.3 M17.25 -363.3 Q17.25 -361.25 13.05 -356.55 8.9 -351.9 7.2 -351.9 5.5 -351.9 3.65 -353.95 1.8 -356.05 0.9 -356.05 -0.95 -356.05 -2.6 -352.3 -4.15 -348.1 -4.65 -347.2 L-4.65 -357.45 Q-2.7 -361.2 1.65 -365.75 2.45 -367.25 4.2 -368.4 7.35 -370.55 11.4 -370.55 17.25 -370.55 17.25 -363.3" fill="#fffa86" fill-opacity="0.69411767" fill-rule="evenodd" stroke="none"/>
  </g>
</svg>
