<?xml version="1.0" encoding="UTF-8" standalone="no"?>
<svg xmlns:ffdec="https://www.free-decompiler.com/flash" xmlns:xlink="http://www.w3.org/1999/xlink" ffdec:objectType="shape" height="524.7px" width="274.95px" xmlns="http://www.w3.org/2000/svg">
  <g transform="matrix(1.0, 0.0, 0.0, 1.0, 142.65, 12.75)">
    <path d="M76.9 -6.05 L78.95 -8.45 80.7 -11.3 81.15 -11.15 82.2 -12.25 82.85 -12.75 86.95 -9.1 86.5 -9.1 87.35 -8.2 89.15 -6.45 Q92.25 -2.9 95.8 3.35 L96.25 3.75 Q103.8 18.0 103.35 27.75 102.2 38.95 102.95 49.2 103.45 58.45 104.8 67.15 L106.0 74.0 Q110.45 96.05 123.35 131.75 125.4 137.55 127.0 143.35 124.35 144.2 122.25 146.4 117.85 150.95 117.85 159.4 117.85 166.7 119.2 170.6 122.4 179.95 132.2 180.1 L132.2 181.1 Q132.65 204.3 130.9 227.55 128.2 261.75 122.1 270.2 L122.0 270.3 121.1 269.15 120.25 266.8 Q119.35 264.4 116.7 262.05 L116.25 261.45 Q114.0 259.65 111.35 258.4 110.45 259.05 110.0 259.05 L108.25 259.05 Q103.35 259.05 101.6 265.0 100.85 267.0 100.75 269.8 L99.8 269.75 Q99.35 273.3 99.35 277.5 99.35 285.2 100.25 293.0 L94.9 331.65 Q82.05 389.3 52.3 404.8 L50.95 408.35 Q50.05 406.0 48.75 404.2 45.2 398.25 41.65 396.5 40.3 395.3 38.5 395.3 23.0 395.3 14.55 425.05 11.8 434.25 10.4 441.95 9.1 448.75 8.85 454.3 L8.75 457.2 Q8.75 460.15 10.55 470.85 12.35 480.95 13.2 482.75 15.45 488.05 20.75 495.25 22.55 498.2 24.3 502.4 27.0 507.75 30.1 511.3 24.3 514.25 9.2 504.15 L4.8 501.2 Q-9.7 491.15 -21.15 479.35 L-24.1 476.2 Q-44.95 451.2 -50.75 428.05 -55.15 407.2 -60.05 379.8 -63.6 355.4 -65.4 350.65 -70.25 332.25 -80.05 332.25 -82.7 332.25 -82.7 336.4 -85.35 340.55 -85.35 350.05 L-85.35 354.8 Q-88.45 352.5 -96.9 334.6 -106.7 313.75 -109.35 303.65 L-113.6 283.75 -113.3 278.35 Q-113.3 267.2 -113.8 263.3 -114.4 258.6 -116.0 254.1 L-116.0 250.1 Q-116.0 239.4 -113.8 222.8 -112.0 208.45 -111.55 198.35 L-110.7 193.05 -110.25 184.05 Q-110.25 176.95 -110.7 175.75 -111.55 170.4 -116.9 170.4 -121.8 170.4 -124.9 181.1 -127.1 188.8 -127.1 194.2 -133.75 191.25 -135.55 135.3 -135.55 99.85 -129.2 67.15 -127.65 59.2 -125.75 51.45 L-125.15 49.2 Q-122.9 43.1 -118.25 35.3 L-108.45 19.3 Q-103.55 11.3 -96.45 2.9 L-89.15 -5.35 Q-86.25 -8.25 -84.0 -9.65 L-82.4 -9.05 -81.7 -8.8 -81.3 -8.65 Q-77.2 -7.25 -76.5 -7.25 L-75.35 -7.4 Q-74.5 -6.85 -74.1 -6.15 -84.5 11.45 -89.6 28.9 -96.9 53.75 -96.9 88.65 -96.9 97.45 -95.0 117.6 -93.25 136.6 -92.5 139.0 -91.4 130.35 -88.45 124.85 -84.7 117.95 -78.75 117.95 -69.55 117.95 -63.95 133.4 -59.5 145.55 -59.5 157.7 -59.5 169.85 -63.6 183.7 -65.25 189.15 -72.7 208.85 -78.95 225.35 -81.75 237.5 -85.9 255.2 -85.9 274.0 -85.9 289.8 -83.75 299.6 L-80.4 313.2 Q-78.25 311.05 -72.95 301.1 -68.85 293.4 -65.55 293.4 -54.6 293.4 -47.25 319.8 -44.05 331.4 -39.0 361.1 -34.05 359.95 -29.1 354.05 L-28.6 353.35 -27.0 351.0 -23.5 346.0 -23.5 360.25 Q-26.0 364.65 -29.4 373.3 -31.95 378.2 -36.05 379.4 L-35.95 379.95 Q-28.85 424.85 -23.05 445.4 -13.8 478.2 0.0 487.55 -4.0 475.35 -7.65 456.4 -13.2 427.35 -13.2 402.05 -13.2 356.6 -2.2 331.0 7.35 308.8 20.9 308.8 29.5 308.8 35.35 321.05 39.7 330.2 39.7 335.9 39.7 339.85 37.55 343.05 35.35 346.35 32.45 346.35 29.85 346.35 28.7 344.65 L28.45 343.95 Q27.95 346.95 27.7 350.55 L27.5 361.2 Q27.5 371.2 27.7 373.5 28.25 379.85 30.8 385.0 32.2 373.5 38.45 366.0 41.4 362.45 51.15 355.0 59.5 348.65 63.05 342.6 68.3 333.65 68.3 319.25 68.3 313.95 66.65 299.45 65.0 284.95 65.0 280.2 65.0 275.75 66.65 267.7 68.55 258.45 71.6 250.35 79.85 228.35 91.0 228.35 100.2 228.35 103.5 231.35 106.75 234.35 110.25 245.95 L110.25 223.3 110.35 212.55 Q110.25 204.95 109.15 199.65 105.95 184.25 93.75 184.25 92.4 184.25 89.3 185.35 86.2 186.45 84.8 186.45 76.6 186.45 70.55 173.25 65.0 161.3 65.0 148.35 65.0 139.05 69.45 126.8 75.05 111.35 83.15 111.35 88.85 111.35 91.25 116.3 92.95 119.7 94.85 131.15 92.85 91.25 89.95 60.65 85.25 10.7 76.9 -6.05 M31.5 31.75 L32.3 31.8 32.75 31.8 Q34.45 31.15 35.9 29.55 L36.15 27.95 36.15 27.25 39.0 23.5 39.05 23.45 39.5 23.65 40.0 23.4 Q46.6 34.6 50.05 43.25 55.1 55.9 55.1 67.85 55.1 79.95 52.55 87.7 50.85 92.8 46.95 98.35 42.6 104.45 41.3 107.5 38.75 113.6 38.75 122.85 38.75 132.45 44.8 151.75 L43.85 152.0 Q42.6 148.95 38.3 141.35 L30.8 127.55 Q21.35 108.6 21.35 93.85 21.35 79.9 27.3 55.35 30.65 41.45 31.5 31.75 M106.45 255.5 L106.9 254.85 106.45 254.85 106.45 255.5 M27.5 341.95 L28.45 343.95 28.8 341.95 27.5 341.95 M-125.7 263.2 L-125.35 265.45 Q-124.7 269.85 -124.5 274.25 -124.8 283.0 -126.65 287.05 L-127.55 292.4 Q-130.2 300.7 -130.2 304.85 L-130.2 306.05 Q-130.2 313.15 -128.9 318.5 -127.55 326.3 -126.65 329.25 -134.2 319.7 -137.75 309.0 -139.1 307.25 -139.55 306.05 -142.2 300.1 -142.65 291.2 L-142.2 290.6 -142.2 288.75 -142.2 285.2 Q-142.2 281.35 -141.7 277.6 -139.75 274.3 -138.05 269.1 -134.5 258.4 -134.5 252.85 -134.5 247.55 -135.45 242.65 -132.1 245.1 -128.45 254.85 -126.7 259.55 -125.7 263.2 M-133.35 254.45 L-133.35 253.9 -133.45 253.35 -133.45 253.9 -133.35 254.45" fill="#ff0000" fill-rule="evenodd" stroke="none"/>
    <path d="M68.6 0.0 Q70.15 -1.2 71.35 -3.0 L71.9 -3.8 74.8 -4.8 Q75.95 -5.25 76.9 -6.05 85.25 10.7 89.95 60.65 92.85 91.25 94.85 131.15 92.95 119.7 91.25 116.3 88.85 111.35 83.15 111.35 75.05 111.35 69.45 126.8 65.0 139.05 65.0 148.35 65.0 161.3 70.55 173.25 76.6 186.45 84.8 186.45 86.2 186.45 89.3 185.35 92.4 184.25 93.75 184.25 105.95 184.25 109.15 199.65 110.25 204.95 110.35 212.55 L110.25 223.3 110.25 245.95 Q106.75 234.35 103.5 231.35 100.2 228.35 91.0 228.35 79.85 228.35 71.6 250.35 68.55 258.45 66.65 267.7 65.0 275.75 65.0 280.2 65.0 284.95 66.65 299.45 68.3 313.95 68.3 319.25 68.3 333.65 63.05 342.6 59.5 348.65 51.15 355.0 41.4 362.45 38.45 366.0 32.2 373.5 30.8 385.0 28.25 379.85 27.7 373.5 27.5 371.2 27.5 361.2 L27.7 350.55 Q27.95 346.95 28.45 343.95 L28.7 344.65 Q29.85 346.35 32.45 346.35 35.35 346.35 37.55 343.05 39.7 339.85 39.7 335.9 39.7 330.2 35.35 321.05 29.5 308.8 20.9 308.8 7.35 308.8 -2.2 331.0 -13.2 356.6 -13.2 402.05 -13.2 427.35 -7.65 456.4 -4.0 475.35 0.0 487.55 -13.8 478.2 -23.05 445.4 -28.85 424.85 -35.95 379.95 L-36.05 379.4 Q-31.95 378.2 -29.4 373.3 -26.0 364.65 -23.5 360.25 L-23.5 346.0 -27.0 351.0 Q-25.75 328.8 -12.85 309.8 -6.45 300.35 1.15 294.95 9.0 289.35 16.35 289.35 30.65 289.35 40.55 307.5 49.45 323.75 50.45 344.7 L50.95 344.8 Q51.4 345.05 51.4 345.65 53.4 343.3 54.45 335.35 55.3 328.85 55.3 320.85 L54.3 301.45 53.3 282.0 Q53.3 264.9 56.6 254.1 59.65 244.1 66.2 237.5 71.65 232.05 81.75 227.0 87.9 223.95 102.8 217.4 L103.75 217.4 Q78.4 210.15 67.7 194.55 58.15 180.6 58.15 156.25 58.15 127.05 71.3 108.1 L80.3 96.55 Q84.4 91.2 84.4 87.25 84.4 85.5 81.7 71.95 78.65 56.8 77.65 45.6 76.3 31.5 70.55 7.85 L68.6 0.0 M122.1 270.2 L122.0 270.35 122.0 270.3 122.1 270.2 M100.75 269.8 L100.7 270.95 100.7 272.75 100.7 273.3 Q99.85 272.2 99.8 269.95 L99.8 269.75 100.75 269.8 M-74.1 -6.15 L-73.75 -5.4 -69.95 -9.65 -69.2 -9.75 -66.45 -9.5 Q-65.55 -6.6 -65.0 -6.1 -61.55 -3.0 -59.6 -2.5 L-58.45 -2.25 Q-66.4 8.1 -72.0 26.7 -78.6 48.9 -78.6 69.8 L-78.5 87.65 Q-78.1 95.05 -75.6 101.85 L-70.9 95.85 Q-68.8 93.1 -66.5 93.1 -54.45 93.1 -47.5 115.55 -41.65 134.55 -41.65 159.6 -41.65 173.55 -44.4 186.55 -46.05 194.45 -50.35 208.25 -54.75 222.1 -56.35 229.75 -59.1 242.6 -59.1 256.25 L-58.5 267.1 Q-57.85 276.7 -57.2 280.6 L-53.35 272.2 Q-51.1 268.0 -49.0 268.0 -44.3 268.0 -37.25 305.95 L-32.1 335.3 Q-29.9 348.0 -28.6 353.35 L-29.1 354.05 Q-34.05 359.95 -39.0 361.1 -44.05 331.4 -47.25 319.8 -54.6 293.4 -65.55 293.4 -68.85 293.4 -72.95 301.1 -78.25 311.05 -80.4 313.2 L-83.75 299.6 Q-85.9 289.8 -85.9 274.0 -85.9 255.2 -81.75 237.5 -78.95 225.35 -72.7 208.85 -65.25 189.15 -63.6 183.7 -59.5 169.85 -59.5 157.7 -59.5 145.55 -63.95 133.4 -69.55 117.95 -78.75 117.95 -84.7 117.95 -88.45 124.85 -91.4 130.35 -92.5 139.0 -93.25 136.6 -95.0 117.6 -96.9 97.45 -96.9 88.65 -96.9 53.75 -89.6 28.9 -84.5 11.45 -74.1 -6.15 M27.5 341.95 L28.8 341.95 28.45 343.95 27.5 341.95" fill="#ffff00" fill-rule="evenodd" stroke="none"/>
    <path d="M-58.45 -2.25 L-56.25 -2.05 -53.25 -1.85 -52.55 -1.6 -51.45 2.4 -48.65 12.25 -48.05 14.35 Q-47.65 15.55 -46.85 16.5 -46.35 17.1 -46.1 18.7 L-45.5 20.9 Q-44.25 22.85 -43.25 26.3 L-42.4 27.45 Q-41.0 28.8 -38.15 28.8 L-36.9 28.5 Q-33.85 28.2 -32.1 24.5 L-31.45 22.95 -28.8 18.95 -26.75 14.3 -26.0 12.75 Q-25.5 11.0 -24.75 7.4 L-16.8 8.0 Q-11.3 8.0 -9.0 5.25 -7.65 3.7 -7.5 1.55 L-1.5 1.75 0.25 2.0 Q0.3 4.8 0.85 6.05 2.65 9.85 8.65 9.85 L18.45 9.45 18.8 10.75 Q20.75 12.65 22.3 15.7 L25.4 21.8 27.45 25.3 27.95 27.55 Q29.05 30.65 30.9 31.5 L31.05 32.1 31.45 31.7 31.5 31.75 Q30.65 41.45 27.3 55.35 21.35 79.9 21.35 93.85 21.35 108.6 30.8 127.55 L38.3 141.35 Q42.6 148.95 43.85 152.0 L44.8 151.75 Q38.75 132.45 38.75 122.85 38.75 113.6 41.3 107.5 42.6 104.45 46.95 98.35 50.85 92.8 52.55 87.7 55.1 79.95 55.1 67.85 55.1 55.9 50.05 43.25 46.6 34.6 40.0 23.4 L39.5 23.65 39.8 23.05 40.85 20.7 41.55 19.9 41.65 19.85 42.85 17.6 43.5 16.95 43.55 16.15 44.0 15.35 Q48.5 8.0 50.4 4.0 L53.15 3.95 53.55 3.95 55.05 3.85 55.5 3.85 56.0 3.8 Q63.45 3.15 67.4 0.8 L68.15 0.3 68.6 0.0 70.55 7.85 Q76.3 31.5 77.65 45.6 78.65 56.8 81.7 71.95 84.4 85.5 84.4 87.25 84.4 91.2 80.3 96.55 L71.3 108.1 Q58.15 127.05 58.15 156.25 58.15 180.6 67.7 194.55 78.4 210.15 103.75 217.4 L102.8 217.4 Q87.9 223.95 81.75 227.0 71.65 232.05 66.2 237.5 59.65 244.1 56.6 254.1 53.3 264.9 53.3 282.0 L54.3 301.45 55.3 320.85 Q55.3 328.85 54.45 335.35 53.4 343.3 51.4 345.65 51.4 345.05 50.95 344.8 L50.45 344.7 Q49.45 323.75 40.55 307.5 30.65 289.35 16.35 289.35 9.0 289.35 1.15 294.95 -6.45 300.35 -12.85 309.8 -25.75 328.8 -27.0 351.0 L-28.6 353.35 Q-29.9 348.0 -32.1 335.3 L-37.25 305.95 Q-44.3 268.0 -49.0 268.0 -51.1 268.0 -53.35 272.2 L-57.2 280.6 Q-57.85 276.7 -58.5 267.1 L-59.1 256.25 Q-59.1 242.6 -56.35 229.75 -54.75 222.1 -50.35 208.25 -46.05 194.45 -44.4 186.55 -41.65 173.55 -41.65 159.6 -41.65 134.55 -47.5 115.55 -54.45 93.1 -66.5 93.1 -68.8 93.1 -70.9 95.85 L-75.6 101.85 Q-78.1 95.05 -78.5 87.65 L-78.6 69.8 Q-78.6 48.9 -72.0 26.7 -66.4 8.1 -58.45 -2.25" fill="#ffffff" fill-rule="evenodd" stroke="none"/>
  </g>
</svg>
