<?xml version="1.0" encoding="UTF-8" standalone="no"?>
<svg xmlns:ffdec="https://www.free-decompiler.com/flash" xmlns:xlink="http://www.w3.org/1999/xlink" ffdec:objectType="shape" height="580.1px" width="264.65px" xmlns="http://www.w3.org/2000/svg">
  <g transform="matrix(1.0, 0.0, 0.0, 1.0, 136.45, 12.6)">
    <path d="M66.1 1.45 L67.4 0.8 68.15 0.3 Q69.95 -0.95 71.35 -3.0 L71.9 -3.8 74.8 -4.8 Q77.3 -5.8 78.95 -8.45 L80.7 -11.3 81.15 -11.15 82.2 -12.25 82.65 -12.6 87.35 -8.3 89.15 -6.55 Q92.25 -3.0 94.9 4.1 L98.45 7.25 100.7 11.2 Q102.45 13.9 104.25 14.75 105.15 15.65 106.0 15.65 L110.9 23.65 Q119.3 37.1 123.5 49.2 125.9 58.45 127.0 67.15 127.8 74.0 127.8 80.45 L128.2 89.95 Q128.2 98.85 127.35 101.85 126.45 101.25 125.1 97.7 118.9 85.8 113.1 85.8 106.45 85.8 106.0 92.35 104.25 95.3 102.9 100.05 100.7 107.85 100.7 114.95 100.7 140.5 114.0 175.0 127.35 209.5 127.35 232.75 L127.35 236.3 127.35 245.25 Q127.35 297.6 105.6 342.25 100.3 352.0 93.05 363.65 L87.95 371.75 84.95 371.55 Q79.45 371.8 75.55 375.65 71.3 379.85 71.3 386.65 71.3 389.85 72.45 392.6 70.05 394.0 67.3 397.45 64.65 400.7 61.6 405.85 L60.75 407.05 56.75 411.25 Q54.5 412.95 50.5 416.6 47.4 418.95 46.5 421.35 L45.7 421.15 47.4 410.0 47.4 406.45 Q48.3 404.65 48.3 402.9 48.3 401.1 46.05 398.7 43.85 396.95 41.65 395.75 39.4 394.55 36.75 394.55 28.75 394.55 22.55 403.45 L22.55 404.05 Q22.55 405.85 19.85 412.45 17.2 418.95 17.2 424.9 L18.1 443.9 Q18.1 464.15 8.35 482.65 L8.05 483.15 Q5.1 488.65 3.0 490.95 2.1 486.2 0.35 480.25 -3.2 467.75 -8.55 467.75 L-9.0 467.75 Q-11.65 466.55 -14.3 466.55 -18.9 466.55 -21.1 470.05 -23.2 473.35 -23.2 479.6 L-23.2 480.85 Q-24.1 485.6 -24.55 492.15 -23.65 502.25 -21.85 508.75 -27.2 506.4 -33.85 490.95 -40.05 475.45 -41.85 467.15 L-44.5 441.55 Q-46.75 426.7 -52.5 418.95 -58.2 410.3 -62.55 401.5 L-63.95 397.4 Q-65.9 392.0 -68.3 388.5 L-72.05 377.35 -72.5 368.95 Q-74.25 364.2 -74.25 354.7 L-75.15 349.35 -76.05 345.2 -78.7 339.8 Q-84.5 329.7 -90.25 329.7 -92.9 329.7 -94.25 331.5 -95.15 333.25 -95.6 335.65 L-95.6 337.45 -95.15 342.85 -95.15 345.2 Q-95.15 351.75 -90.7 368.95 -92.45 368.95 -94.25 366.6 L-96.35 365.35 Q-99.3 363.3 -103.15 359.45 L-114.25 342.25 Q-117.35 335.65 -126.65 307.15 -130.65 294.6 -133.3 270.8 -136.45 247.65 -136.45 230.95 -136.45 189.9 -125.75 142.95 -121.05 123.45 -113.9 101.7 -111.1 82.85 -107.35 75.25 -105.6 71.75 -101.8 67.0 L-99.5 64.15 -96.7 60.4 -94.35 57.35 Q-91.75 53.65 -90.3 50.05 -88.7 46.05 -88.7 42.95 -88.7 38.25 -90.7 33.45 -92.9 28.05 -96.75 26.7 L-99.6 26.2 Q-105.35 26.2 -108.8 31.7 L-109.1 31.5 Q-105.8 20.55 -101.25 11.6 -96.25 1.8 -89.2 -6.95 L-88.75 -6.6 -85.55 -10.3 -82.4 -9.05 -81.7 -8.8 -81.15 -8.6 -80.9 -8.5 -80.85 -8.5 -76.5 -7.25 -75.35 -7.4 Q-74.05 -6.5 -73.75 -5.4 L-69.95 -9.65 -69.2 -9.75 -68.45 -9.75 -66.15 -0.7 Q-63.9 8.45 -63.9 15.4 -63.9 29.1 -67.25 49.6 -70.4 69.15 -72.7 72.7 -76.15 61.2 -77.0 51.75 -77.9 42.6 -79.2 57.45 -91.2 101.75 -80.7 162.4 -81.5 160.05 -81.5 163.9 -81.5 172.1 -79.3 179.55 L-78.75 181.3 Q-76.9 186.8 -72.7 194.55 -67.95 203.3 -66.65 206.55 -63.9 213.4 -63.9 220.1 -63.9 226.75 -65.05 230.2 -66.8 235.65 -71.6 235.65 -75.65 235.65 -78.4 223.3 -80.4 214.25 -80.4 209.1 -83.2 222.2 -90.2 249.75 -91.6 256.35 -92.65 263.0 -91.45 276.75 -90.3 281.6 -88.7 288.45 -76.8 313.7 L-75.15 317.2 Q-65.65 327.6 -61.65 335.45 -60.15 338.4 -59.0 341.55 -54.8 349.55 -53.3 359.95 -52.8 363.45 -51.75 378.05 -50.95 389.05 -49.2 395.45 -45.05 408.1 -35.1 431.05 -32.35 438.15 -30.55 444.65 L-28.3 441.65 Q-25.9 439.0 -24.2 439.0 -18.35 439.0 -14.25 449.8 -12.15 455.2 -11.0 461.15 -4.35 424.45 4.5 404.65 17.75 375.1 37.95 375.1 48.65 375.1 53.15 382.2 57.15 388.65 55.15 399.15 L55.1 399.3 56.2 399.3 60.6 390.25 59.15 388.3 Q56.05 383.85 56.05 380.8 56.05 375.5 60.8 370.0 65.7 364.35 70.9 364.35 L72.8 364.65 Q80.2 348.6 82.95 341.15 85.75 333.55 87.75 326.05 L88.6 328.45 89.95 324.5 89.4 319.1 Q92.65 304.0 92.65 289.0 92.65 272.55 89.9 259.75 87.95 250.8 83.8 240.8 78.5 228.1 77.65 225.55 75.4 218.45 75.0 210.8 76.95 204.4 77.1 195.3 L77.1 193.7 Q77.1 189.8 75.0 180.0 73.55 173.2 73.0 169.35 L73.0 169.25 72.7 166.1 71.6 166.1 72.5 169.4 Q73.45 174.45 72.1 180.5 70.1 189.3 64.45 189.3 60.2 189.3 57.35 183.85 54.0 177.5 54.0 166.1 54.0 158.4 57.35 144.75 58.55 139.75 59.75 136.05 72.25 115.05 76.75 96.3 81.5 76.3 81.5 61.7 81.5 41.05 76.3 23.25 72.35 9.6 66.1 1.45 M31.6 279.1 Q31.6 266.15 35.9 255.35 L38.65 249.55 Q40.2 261.4 44.35 271.2 L49.6 283.8 Q52.0 291.0 52.0 299.0 52.0 309.15 47.75 322.65 43.6 335.65 37.75 345.0 L37.75 340.85 Q38.45 338.7 39.15 334.55 39.75 330.6 39.75 328.6 39.75 322.85 35.7 306.5 31.6 290.1 31.6 279.1 M68.7 414.8 L73.15 409.4 Q73.15 415.4 72.7 420.75 L71.4 431.45 Q70.95 434.4 70.95 436.8 L70.7 437.55 69.6 440.95 Q67.85 446.35 61.15 461.8 58.5 468.3 57.6 473.05 54.95 480.25 54.95 489.15 L55.15 493.5 Q55.6 499.1 57.15 507.0 L57.15 507.6 56.3 511.8 Q53.1 508.15 49.55 501.9 46.6 496.7 43.4 489.75 38.95 479.6 38.95 463.55 38.95 449.9 43.4 441.55 45.65 436.2 49.65 433.2 L51.4 432.05 52.3 430.85 Q57.1 428.85 65.4 418.95 L68.7 414.8 M8.85 516.3 Q9.65 521.6 9.65 531.25 9.65 567.5 -7.65 567.5 -12.65 567.5 -16.85 564.9 -23.85 560.6 -28.55 549.1 -33.85 536.05 -33.85 525.3 -33.85 521.15 -34.75 517.0 L-34.1 516.15 -28.95 519.95 Q-24.1 522.9 -19.65 524.7 -15.2 527.65 -8.55 527.65 L-7.65 527.65 -6.35 527.65 -2.85 527.15 Q3.4 525.25 8.35 516.4 L8.85 516.3 M-82.4 -6.95 L-84.05 -5.65 -85.35 -4.75 Q-83.7 -5.6 -82.4 -6.75 L-82.4 -6.95 M-14.65 203.9 Q-13.15 196.55 -12.25 189.6 L-12.25 217.35 Q-15.55 238.4 -20.95 250.35 -27.8 265.35 -37.75 265.35 -44.45 265.35 -49.0 257.2 -54.0 248.3 -54.0 233.25 -54.0 225.55 -49.9 211.1 -46.7 199.8 -44.95 196.2 -45.5 205.3 -41.85 216.35 -37.15 230.6 -29.0 230.6 -20.1 230.6 -14.65 203.9 M-95.0 314.15 L-95.1 313.85 -95.1 314.05 -95.0 314.15 M-96.4 335.6 L-96.4 335.65 -95.6 335.65 -96.4 335.6 M-99.15 480.25 L-99.6 480.25 -99.6 480.85 -99.15 480.25 M-106.7 470.1 Q-95.15 477.3 -91.15 482.65 -88.05 487.4 -88.05 496.3 -88.05 514.1 -99.6 533.15 L-99.15 520.1 Q-99.15 492.75 -109.35 470.7 L-109.35 470.1 -106.7 470.1" fill="#ff0000" fill-rule="evenodd" stroke="none"/>
    <path d="M46.5 421.35 L45.7 421.35 45.65 421.35 45.7 421.15 46.5 421.35 M-62.55 401.5 Q-65.8 395.05 -68.3 388.5 -65.9 392.0 -63.95 397.4 L-62.55 401.5 M-68.45 -9.75 L-66.45 -9.5 Q-65.55 -6.6 -65.0 -6.1 -61.55 -3.0 -59.6 -2.5 L-56.25 -2.05 -53.25 -1.85 -52.55 -1.6 -51.45 2.4 -48.65 12.25 -48.05 14.35 Q-47.65 15.55 -46.85 16.5 -46.35 17.1 -46.1 18.7 L-45.5 20.9 Q-44.25 22.85 -43.25 26.3 L-42.4 27.45 Q-41.0 28.8 -38.15 28.8 L-36.9 28.5 Q-33.85 28.2 -32.1 24.5 L-31.45 22.95 -28.8 18.95 -26.75 14.3 -26.0 12.75 Q-25.5 11.0 -24.75 7.4 L-16.8 8.0 Q-11.3 8.0 -9.0 5.25 -7.65 3.7 -7.5 1.55 L-1.5 1.75 0.25 2.0 Q0.3 4.8 0.85 6.05 2.65 9.85 8.65 9.85 L18.45 9.45 18.8 10.75 Q20.75 12.65 22.3 15.7 L25.4 21.8 27.45 25.3 27.95 27.55 Q29.05 30.65 30.9 31.5 L31.05 32.1 31.45 31.7 32.3 31.8 32.75 31.8 Q34.45 31.15 35.9 29.55 L36.15 27.95 36.15 27.25 39.0 23.5 39.05 23.45 39.5 23.65 40.85 20.7 41.55 19.9 41.65 19.85 42.85 17.6 43.5 16.95 43.55 16.15 44.0 15.35 Q48.5 8.0 50.4 4.0 L53.15 3.95 53.55 3.95 55.05 3.85 55.2 3.85 55.5 3.85 56.0 3.8 Q62.3 3.25 66.1 1.45 72.35 9.6 76.3 23.25 81.5 41.05 81.5 61.7 81.5 76.3 76.75 96.3 72.25 115.05 59.75 136.05 58.55 139.75 57.35 144.75 54.0 158.4 54.0 166.1 54.0 177.5 57.35 183.85 60.2 189.3 64.45 189.3 70.1 189.3 72.1 180.5 73.45 174.45 72.5 169.4 L71.6 166.1 72.7 166.1 73.0 169.25 73.0 169.35 Q73.55 173.2 75.0 180.0 77.1 189.8 77.1 193.7 L77.1 195.3 Q76.95 204.4 75.0 210.8 75.4 218.45 77.65 225.55 78.5 228.1 83.8 240.8 87.95 250.8 89.9 259.75 92.65 272.55 92.65 289.0 92.65 304.0 89.4 319.1 L89.95 324.5 88.6 328.45 87.75 326.05 Q85.75 333.55 82.95 341.15 80.2 348.6 72.8 364.65 L70.9 364.35 Q65.7 364.35 60.8 370.0 56.05 375.5 56.05 380.8 56.05 383.85 59.15 388.3 L60.6 390.25 56.2 399.3 55.1 399.3 55.15 399.15 Q57.15 388.65 53.15 382.2 48.65 375.1 37.95 375.1 17.75 375.1 4.5 404.65 -4.35 424.45 -11.0 461.15 -12.15 455.2 -14.25 449.8 -18.35 439.0 -24.2 439.0 -25.9 439.0 -28.3 441.65 L-30.55 444.65 Q-32.35 438.15 -35.1 431.05 -45.05 408.1 -49.2 395.45 -50.95 389.05 -51.75 378.05 -52.8 363.45 -53.3 359.95 -54.8 349.55 -59.0 341.55 -60.15 338.4 -61.65 335.45 -65.65 327.6 -75.15 317.2 L-76.8 313.7 Q-88.7 288.45 -90.3 281.6 -91.45 276.75 -92.65 263.0 -91.6 256.35 -90.2 249.75 -83.2 222.2 -80.4 209.1 -80.4 214.25 -78.4 223.3 -75.65 235.65 -71.6 235.65 -66.8 235.65 -65.05 230.2 -63.9 226.75 -63.9 220.1 -63.9 213.4 -66.65 206.55 -67.95 203.3 -72.7 194.55 -76.9 186.8 -78.75 181.3 L-79.3 179.55 Q-81.5 172.1 -81.5 163.9 -81.5 160.05 -80.7 162.4 -91.2 101.75 -79.2 57.45 -77.9 42.6 -77.0 51.75 -76.15 61.2 -72.7 72.7 -70.4 69.15 -67.25 49.6 -63.9 29.1 -63.9 15.4 -63.9 8.45 -66.15 -0.7 L-68.45 -9.75 M69.8 27.65 Q64.65 44.2 57.9 54.05 49.25 66.65 38.95 66.65 29.55 66.65 22.1 50.4 20.0 45.8 16.7 36.8 13.65 28.3 12.3 25.55 L9.15 25.55 Q6.25 34.3 -8.55 67.85 -22.95 100.4 -29.75 114.05 -35.2 104.5 -39.1 75.5 L-41.95 53.65 Q-43.55 42.15 -45.15 36.85 -53.65 49.95 -61.45 64.75 -77.0 94.0 -77.0 107.35 L-78.05 107.35 Q-77.9 130.4 -71.65 151.9 L-65.65 170.6 Q-61.8 182.5 -59.55 191.0 -59.6 185.35 -57.2 181.15 -54.6 176.65 -50.9 176.65 -42.65 176.65 -38.1 191.35 -36.9 195.4 -34.85 204.5 -32.95 213.2 -31.75 216.8 L-30.8 216.8 Q-29.3 207.05 -23.25 195.4 -16.7 182.8 -11.8 182.8 -4.9 182.8 -1.95 197.25 0.0 206.8 0.0 220.85 0.0 245.65 -11.25 265.0 -23.25 285.6 -40.55 285.6 -58.9 285.6 -62.6 246.6 -67.85 248.65 -72.05 260.65 -75.95 271.75 -75.95 281.5 -75.95 293.9 -60.1 319.85 -52.05 332.95 -43.05 345.15 -37.6 354.1 -31.1 379.8 L-24.5 406.85 -22.55 406.85 Q-19.6 381.35 -12.1 368.2 -7.35 359.85 2.25 353.25 L9.15 348.2 Q12.75 345.15 14.95 341.4 20.45 332.05 20.45 312.2 L19.4 296.1 18.35 279.95 Q18.35 266.85 26.65 249.35 32.6 236.9 40.0 227.05 45.45 235.35 52.95 262.95 L62.6 300.0 Q65.4 296.05 67.65 283.95 69.8 272.05 69.8 261.45 69.8 237.1 64.8 224.3 61.45 215.65 53.85 209.2 L48.0 204.2 Q44.8 201.2 42.9 197.85 37.9 189.2 37.9 171.9 37.9 162.5 42.9 144.65 45.0 137.0 53.85 109.45 61.45 85.8 64.8 71.85 69.8 51.3 69.8 37.4 L69.8 27.65 M31.6 279.1 Q31.6 290.1 35.7 306.5 39.75 322.85 39.75 328.6 39.75 330.6 39.15 334.55 38.45 338.7 37.75 340.85 L37.75 345.0 Q43.6 335.65 47.75 322.65 52.0 309.15 52.0 299.0 52.0 291.0 49.6 283.8 L44.35 271.2 Q40.2 261.4 38.65 249.55 L35.9 255.35 Q31.6 266.15 31.6 279.1 M8.85 516.3 L8.35 516.4 8.75 515.8 8.85 516.3 M-34.1 516.15 L-34.75 517.0 Q-35.2 516.4 -35.2 515.2 L-34.1 516.15 M-96.4 335.6 L-95.6 335.65 -96.4 335.65 -96.4 335.6 M-95.0 314.15 L-95.1 314.05 -95.1 313.85 -95.0 314.15 M-14.65 203.9 Q-20.1 230.6 -29.0 230.6 -37.15 230.6 -41.85 216.35 -45.5 205.3 -44.95 196.2 -46.7 199.8 -49.9 211.1 -54.0 225.55 -54.0 233.25 -54.0 248.3 -49.0 257.2 -44.45 265.35 -37.75 265.35 -27.8 265.35 -20.95 250.35 -15.55 238.4 -12.25 217.35 L-12.25 189.6 Q-13.15 196.55 -14.65 203.9" fill="#ffff00" fill-rule="evenodd" stroke="none"/>
    <path d="M69.8 27.65 L69.8 37.4 Q69.8 51.3 64.8 71.85 61.45 85.8 53.85 109.45 45.0 137.0 42.9 144.65 37.9 162.5 37.9 171.9 37.9 189.2 42.9 197.85 44.8 201.2 48.0 204.2 L53.85 209.2 Q61.45 215.65 64.8 224.3 69.8 237.1 69.8 261.45 69.8 272.05 67.65 283.95 65.4 296.05 62.6 300.0 L52.95 262.95 Q45.45 235.35 40.0 227.05 32.6 236.9 26.65 249.35 18.35 266.85 18.35 279.95 L19.4 296.1 20.45 312.2 Q20.45 332.05 14.95 341.4 12.75 345.15 9.15 348.2 L2.25 353.25 Q-7.35 359.85 -12.1 368.2 -19.6 381.35 -22.55 406.85 L-24.5 406.85 -31.1 379.8 Q-37.6 354.1 -43.05 345.15 -52.05 332.95 -60.1 319.85 -75.95 293.9 -75.95 281.5 -75.95 271.75 -72.05 260.65 -67.85 248.65 -62.6 246.6 -58.9 285.6 -40.55 285.6 -23.25 285.6 -11.25 265.0 0.0 245.65 0.0 220.85 0.0 206.8 -1.95 197.25 -4.9 182.8 -11.8 182.8 -16.7 182.8 -23.25 195.4 -29.3 207.05 -30.8 216.8 L-31.75 216.8 Q-32.95 213.2 -34.85 204.5 -36.9 195.4 -38.1 191.35 -42.65 176.65 -50.9 176.65 -54.6 176.65 -57.2 181.15 -59.6 185.35 -59.55 191.0 -61.8 182.5 -65.65 170.6 L-71.65 151.9 Q-77.9 130.4 -78.05 107.35 L-77.0 107.35 Q-77.0 94.0 -61.45 64.75 -53.65 49.95 -45.15 36.85 -43.55 42.15 -41.95 53.65 L-39.1 75.5 Q-35.2 104.5 -29.75 114.05 -22.95 100.4 -8.55 67.85 6.25 34.3 9.15 25.55 L12.3 25.55 Q13.65 28.3 16.7 36.8 20.0 45.8 22.1 50.4 29.55 66.65 38.95 66.65 49.25 66.65 57.9 54.05 64.65 44.2 69.8 27.65" fill="#ffffff" fill-rule="evenodd" stroke="none"/>
  </g>
</svg>
