<?xml version="1.0" encoding="UTF-8" standalone="no"?>
<svg xmlns:ffdec="https://www.free-decompiler.com/flash" xmlns:xlink="http://www.w3.org/1999/xlink" ffdec:objectType="shape" height="313.0px" width="270.95px" xmlns="http://www.w3.org/2000/svg">
  <g transform="matrix(1.0, 0.0, 0.0, 1.0, 145.6, -288.3)">
    <path d="M-56.7 470.3 L-53.75 471.75 Q-46.3 475.15 -37.65 476.2 L-35.55 476.4 Q-26.7 477.25 -20.25 475.5 L-20.25 478.2 Q-21.95 479.6 -24.4 482.75 L-28.55 487.6 Q-30.75 489.65 -33.65 490.95 -38.45 493.05 -45.2 493.05 -55.05 493.05 -62.15 486.35 L-64.95 483.3 Q-71.9 474.7 -75.25 458.7 L-75.4 457.95 -75.4 440.45 Q-74.9 460.65 -56.7 470.3 M108.75 455.5 Q115.4 456.75 120.75 465.45 L121.3 456.6 Q122.0 456.6 122.65 457.3 123.35 457.95 124.0 457.95 125.35 460.65 125.35 469.45 L125.3 474.3 Q124.4 502.05 113.2 521.4 104.0 537.25 89.35 543.8 L88.1 544.35 Q74.3 543.95 65.45 537.0 L64.9 536.55 64.05 537.5 Q56.25 540.3 50.45 540.3 L48.0 540.1 47.35 539.0 45.25 539.15 45.25 539.3 Q44.8 545.7 41.85 550.5 36.5 559.2 24.8 559.2 23.05 559.2 20.6 558.25 17.65 557.15 14.85 555.15 14.6 562.95 6.55 566.85 -0.05 570.0 -10.1 570.0 -22.2 570.0 -26.7 566.85 -28.7 565.4 -31.15 562.25 L-34.3 557.95 -36.95 558.15 -37.25 558.15 Q-38.9 562.15 -43.25 564.6 -48.15 567.3 -54.5 567.3 -64.2 567.3 -73.85 561.5 -84.85 554.9 -84.85 545.7 L-86.2 545.7 Q-87.4 547.8 -90.0 549.55 -92.3 551.1 -93.65 551.1 -105.5 551.1 -111.9 544.4 -118.6 537.35 -118.6 523.45 L-118.2 518.55 -120.55 518.0 -125.7 516.8 Q-131.7 515.5 -134.05 513.8 -137.35 511.4 -138.75 505.65 L-139.0 504.55 -139.35 502.3 -140.0 495.2 -140.85 493.95 Q-145.6 486.35 -145.6 476.85 -145.6 474.35 -144.75 469.7 L-143.6 464.5 -142.05 462.0 -140.95 460.55 -140.7 461.55 Q-139.7 465.4 -138.05 468.2 L-139.0 472.05 Q-140.2 478.2 -140.2 487.0 L-140.15 490.9 -140.0 495.2 -139.0 496.6 -136.15 499.85 Q-128.3 507.9 -121.3 507.9 L-121.25 507.9 -117.25 507.3 -115.8 506.9 Q-115.5 509.15 -113.7 512.65 -111.35 517.2 -107.8 521.4 -98.7 532.2 -89.6 532.2 -83.95 532.2 -78.9 529.35 -77.05 528.3 -75.3 526.9 L-75.3 527.1 -74.45 530.55 Q-73.3 534.4 -71.55 537.6 -66.15 547.65 -57.4 547.65 L-55.75 547.55 Q-55.45 549.1 -54.7 550.35 -53.0 553.15 -49.5 554.2 -49.05 548.5 -46.1 545.05 -43.2 541.6 -38.45 540.95 L-33.55 541.15 Q-34.45 538.6 -36.55 536.75 -37.8 535.7 -39.2 535.1 -35.75 534.05 -33.15 530.8 -31.75 529.0 -31.0 527.35 L-27.65 527.5 Q-24.05 527.5 -21.85 525.1 -20.0 523.0 -20.0 520.45 -20.0 519.55 -20.75 517.85 L-21.05 517.1 -16.85 517.35 Q-9.4 517.35 -4.25 512.45 L-3.2 512.45 Q3.85 512.45 7.7 508.35 10.65 505.15 10.65 501.35 10.65 495.85 6.65 492.35 L5.4 491.4 6.1 486.65 6.35 486.65 Q11.05 486.65 14.45 482.1 17.15 478.5 17.15 476.15 L16.9 474.6 Q21.0 476.85 24.15 477.7 L27.5 478.2 31.25 477.8 32.4 479.8 Q36.25 485.85 42.35 485.85 47.7 485.85 51.8 480.5 55.2 476.15 55.2 473.0 55.2 470.9 54.3 468.5 53.3 465.65 53.0 462.75 52.8 459.8 50.35 457.0 L48.8 455.5 49.35 453.5 49.75 451.95 51.15 445.4 51.3 444.7 Q52.05 440.1 52.45 435.3 53.1 427.25 52.45 424.4 L53.1 423.8 Q56.95 427.95 64.95 435.3 68.45 438.8 71.0 441.95 73.15 444.7 74.6 447.2 78.4 443.65 82.35 442.5 L86.2 441.95 Q95.85 441.95 102.45 452.6 L104.1 455.4 106.45 455.25 108.75 455.5 M109.05 481.1 Q104.85 488.25 97.4 495.0 80.05 510.7 62.9 510.7 55.65 510.7 48.55 505.6 42.0 500.85 41.65 496.8 L40.8 496.8 35.45 508.85 Q32.55 515.35 30.2 518.85 24.0 528.15 13.8 528.15 L6.25 527.85 Q2.85 527.0 1.85 523.35 4.75 535.9 -9.6 543.65 -17.65 547.95 -28.2 549.85 -25.65 553.25 -23.55 554.6 -20.25 556.75 -13.8 556.75 -5.05 556.75 0.2 549.75 4.95 543.3 3.4 536.75 9.65 540.3 11.7 541.15 17.5 543.75 22.5 543.75 32.65 543.75 38.6 532.25 40.5 528.55 41.95 523.7 L43.35 518.5 Q45.2 520.65 49.55 522.55 54.45 524.65 58.95 524.65 82.5 524.65 98.05 508.2 112.65 492.65 112.8 471.15 112.3 475.6 109.05 481.1 M72.45 449.3 L72.35 449.35 72.25 449.35 72.3 449.55 72.35 449.55 72.4 449.5 72.5 449.35 72.55 449.3 72.45 449.3 M74.6 447.2 L72.55 449.3 75.4 448.8 74.6 447.2 M-1.35 532.2 L-1.45 533.25 -1.15 532.95 -1.35 532.2 M-66.15 516.1 L-66.35 516.1 -66.15 515.65 -66.15 516.1" fill="#ffff00" fill-rule="evenodd" stroke="none"/>
    <path d="M-56.7 470.3 L-59.65 466.55 Q-61.1 464.4 -61.85 462.1 L-59.9 462.25 Q-52.75 462.25 -47.65 454.85 -45.65 451.9 -44.65 449.55 -42.3 450.8 -38.75 450.8 -31.6 450.8 -28.2 446.65 -25.8 443.7 -25.8 439.85 -25.8 432.9 -29.5 428.8 -32.8 425.15 -37.65 425.0 -42.45 424.85 -45.8 428.2 L-47.5 430.35 -47.65 427.25 Q-47.65 420.0 -44.5 413.95 -41.4 416.3 -36.55 416.3 -32.15 416.3 -26.1 411.75 -19.4 406.7 -19.3 401.15 -15.75 394.05 -15.75 390.25 -15.75 388.65 -16.0 387.25 -13.5 388.3 -9.95 388.3 -3.3 388.3 -0.35 382.75 1.4 379.4 1.4 375.7 1.4 370.2 -2.3 367.2 -4.7 365.2 -7.95 364.85 L-7.15 363.95 Q-4.25 360.2 -4.25 355.25 -4.25 348.95 -8.2 344.95 -11.25 341.75 -15.4 341.2 L-15.45 340.95 -15.55 336.95 -18.45 337.2 Q-23.85 337.2 -27.0 334.4 L-29.05 331.85 -28.95 329.35 -26.95 329.4 Q-16.5 329.4 -12.0 321.4 -10.1 318.0 -9.5 314.1 -7.8 314.75 -6.4 315.85 -2.8 318.75 -2.8 323.75 -2.8 325.8 -5.3 329.4 L-0.2 332.3 1.1 333.15 Q2.4 333.65 3.5 334.4 4.95 335.4 5.8 336.65 4.2 333.3 4.2 329.35 4.2 325.0 5.9 321.05 L7.1 323.15 Q11.8 330.8 21.75 330.8 30.55 330.8 35.3 323.5 L36.6 321.35 Q39.0 324.75 39.0 328.3 39.0 335.85 34.8 341.55 30.05 347.9 22.3 347.9 17.95 347.9 12.05 343.75 8.45 341.2 6.55 337.95 7.05 339.25 7.05 340.8 7.05 343.4 4.85 347.9 L3.8 349.8 Q9.1 350.85 13.45 354.25 19.85 359.2 19.85 365.65 19.85 371.0 18.3 375.55 L22.1 374.6 Q20.7 377.5 20.7 381.65 20.7 385.8 22.55 388.65 25.6 393.3 32.95 393.3 38.45 393.3 42.4 390.4 44.1 395.85 44.1 401.6 44.1 405.05 42.8 408.15 L41.75 406.45 Q38.55 401.95 31.85 401.95 25.55 401.95 23.1 405.2 17.2 400.5 10.45 400.5 3.7 400.5 -1.3 402.9 L-2.9 403.75 -4.45 404.7 Q-6.8 406.25 -9.25 408.5 -10.05 409.6 -10.65 411.0 -12.8 416.1 -12.8 427.15 -12.8 435.95 -7.6 441.55 -18.05 443.1 -25.75 449.2 -37.65 458.6 -37.65 475.4 L-37.65 476.2 Q-46.3 475.15 -53.75 471.75 L-56.7 470.3 M11.25 288.3 Q12.05 290.45 12.05 293.0 12.05 296.85 9.9 301.0 6.9 306.65 1.75 306.65 -1.05 306.65 -3.45 304.5 -7.05 301.25 -7.05 294.5 L-6.6 290.6 -0.75 291.35 Q5.85 291.35 11.25 288.3 M34.35 422.6 Q38.45 421.9 40.95 419.05 L41.95 419.95 42.25 417.2 Q43.6 414.9 43.75 412.45 44.8 410.25 46.5 408.55 L47.35 410.0 Q52.2 417.7 62.7 417.7 72.25 417.7 77.5 413.55 76.0 415.9 76.0 419.45 L76.05 421.2 Q76.25 423.3 77.05 425.05 79.65 430.65 87.5 430.65 94.65 430.65 98.05 426.45 L99.3 424.55 Q104.95 426.7 108.15 432.6 111.65 438.95 111.65 447.55 111.65 452.05 109.95 454.3 L108.75 455.5 106.45 455.25 104.1 455.4 102.45 452.6 Q95.85 441.95 86.2 441.95 L82.35 442.5 Q78.4 443.65 74.6 447.2 73.15 444.7 71.0 441.95 68.45 438.8 64.95 435.3 56.95 427.95 53.1 423.8 L53.05 423.75 52.45 423.05 52.45 424.4 Q53.1 427.25 52.45 435.3 52.05 440.1 51.3 444.7 47.45 441.55 39.45 441.55 34.3 441.55 29.95 442.95 34.85 436.75 34.85 427.6 34.85 425.05 34.35 422.6 M-140.15 490.9 L-139.0 488.85 Q-136.65 485.1 -132.85 481.65 -128.3 477.5 -123.15 475.8 L-121.25 475.6 -121.25 476.15 Q-121.25 480.4 -119.55 482.7 -116.05 487.35 -105.85 487.35 -94.65 487.35 -94.65 480.2 -94.65 477.75 -96.85 475.2 L-98.0 474.15 -97.6 473.3 -92.2 473.7 Q-75.3 473.7 -75.3 461.7 -75.3 460.0 -75.65 458.5 L-75.35 458.65 -75.25 458.7 Q-71.9 474.7 -64.95 483.3 L-69.05 483.3 Q-78.8 491.1 -82.55 496.0 -88.3 503.5 -88.3 512.3 -88.3 521.15 -82.65 526.55 -80.95 528.15 -78.9 529.35 -83.95 532.2 -89.6 532.2 -98.7 532.2 -107.8 521.4 -111.35 517.2 -113.7 512.65 -115.5 509.15 -115.8 506.9 L-117.25 507.3 -121.25 507.9 -121.3 507.9 Q-128.3 507.9 -136.15 499.85 L-139.0 496.6 -140.0 495.2 -140.15 490.9 M80.05 410.95 L80.35 410.55 80.5 410.7 80.05 410.95 M19.05 449.8 L18.1 450.9 17.35 450.05 19.05 449.8 M72.45 449.3 L72.55 449.3 72.5 449.35 72.4 449.5 72.35 449.55 72.3 449.55 72.25 449.35 72.35 449.35 72.45 449.3 M74.6 447.2 L75.4 448.8 72.55 449.3 74.6 447.2" fill="#545159" fill-rule="evenodd" stroke="none"/>
    <path d="M-37.65 476.2 L-37.65 475.4 Q-37.65 458.6 -25.75 449.2 -18.05 443.1 -7.6 441.55 -12.8 435.95 -12.8 427.15 -12.8 416.1 -10.65 411.0 -10.05 409.6 -9.25 408.5 -6.8 406.25 -4.45 404.7 L-2.9 403.75 -1.3 402.9 Q3.7 400.5 10.45 400.5 17.2 400.5 23.1 405.2 L22.55 405.95 Q21.4 407.95 21.4 412.3 L21.3 414.15 Q21.35 416.15 22.0 417.75 24.05 422.8 31.5 422.8 L34.35 422.6 Q34.85 425.05 34.85 427.6 34.85 436.75 29.95 442.95 L29.35 443.65 Q25.05 448.65 19.05 449.8 L17.35 450.05 18.1 450.9 Q12.65 457.55 12.65 468.0 L12.7 469.6 13.7 470.4 Q16.2 472.5 16.9 474.6 L17.15 476.15 Q17.15 478.5 14.45 482.1 11.05 486.65 6.35 486.65 L6.1 486.65 5.4 491.4 6.65 492.35 Q10.65 495.85 10.65 501.35 10.65 505.15 7.7 508.35 3.85 512.45 -3.2 512.45 L-4.25 512.45 Q-9.4 517.35 -16.85 517.35 L-21.05 517.1 -20.75 517.85 Q-20.0 519.55 -20.0 520.45 -20.0 523.0 -21.85 525.1 -24.05 527.5 -27.65 527.5 L-31.0 527.35 Q-31.75 529.0 -33.15 530.8 -35.75 534.05 -39.2 535.1 -37.8 535.7 -36.55 536.75 -34.45 538.6 -33.55 541.15 L-38.45 540.95 Q-43.2 541.6 -46.1 545.05 -49.05 548.5 -49.5 554.2 -53.0 553.15 -54.7 550.35 -55.45 549.1 -55.75 547.55 L-57.4 547.65 Q-66.15 547.65 -71.55 537.6 -73.3 534.4 -74.45 530.55 L-75.3 527.1 -75.3 526.9 Q-77.05 528.3 -78.9 529.35 -80.95 528.15 -82.65 526.55 -88.3 521.15 -88.3 512.3 -88.3 503.5 -82.55 496.0 -78.8 491.1 -69.05 483.3 L-64.95 483.3 -62.15 486.35 Q-55.05 493.05 -45.2 493.05 -38.45 493.05 -33.65 490.95 -30.75 489.65 -28.55 487.6 L-24.4 482.75 Q-21.95 479.6 -20.25 478.2 L-20.25 475.5 Q-26.7 477.25 -35.55 476.4 L-37.65 476.2 M-29.35 502.8 L-29.6 502.65 Q-38.4 514.6 -42.6 517.55 -48.0 521.35 -58.5 521.35 -63.75 521.35 -68.8 519.5 L-71.25 518.4 Q-69.6 523.4 -64.5 527.5 -57.45 533.25 -50.25 533.25 -40.9 533.25 -34.4 521.8 -28.7 511.75 -29.35 502.8 M-66.15 516.1 L-66.15 515.65 -66.35 516.1 -66.15 516.1" fill="#4a4851" fill-rule="evenodd" stroke="none"/>
    <path d="M51.3 444.7 L51.15 445.4 49.75 451.95 48.95 453.15 49.35 453.5 48.8 455.5 50.35 457.0 Q52.8 459.8 53.0 462.75 53.3 465.65 54.3 468.5 55.2 470.9 55.2 473.0 55.2 476.15 51.8 480.5 47.7 485.85 42.35 485.85 36.25 485.85 32.4 479.8 L31.25 477.8 27.5 478.2 24.15 477.7 Q21.0 476.85 16.9 474.6 16.2 472.5 13.7 470.4 L12.7 469.6 12.65 468.0 Q12.65 457.55 18.1 450.9 L19.05 449.8 Q25.05 448.65 29.35 443.65 L29.95 442.95 Q34.3 441.55 39.45 441.55 47.45 441.55 51.3 444.7" fill="#39383f" fill-rule="evenodd" stroke="none"/>
    <path d="M109.05 481.1 Q112.3 475.6 112.8 471.15 112.65 492.65 98.05 508.2 82.5 524.65 58.95 524.65 54.45 524.65 49.55 522.55 45.2 520.65 43.35 518.5 L41.95 523.7 Q40.5 528.55 38.6 532.25 32.65 543.75 22.5 543.75 17.5 543.75 11.7 541.15 9.65 540.3 3.4 536.75 4.95 543.3 0.2 549.75 -5.05 556.75 -13.8 556.75 -20.25 556.75 -23.55 554.6 -25.65 553.25 -28.2 549.85 -17.65 547.95 -9.6 543.65 4.75 535.9 1.85 523.35 2.85 527.0 6.25 527.85 L13.8 528.15 Q24.0 528.15 30.2 518.85 32.55 515.35 35.45 508.85 L40.8 496.8 41.65 496.8 Q42.0 500.85 48.55 505.6 55.65 510.7 62.9 510.7 80.05 510.7 97.4 495.0 104.85 488.25 109.05 481.1" fill="#ffffff" fill-rule="evenodd" stroke="none"/>
    <path d="M26.25 590.3 Q29.5 591.8 32.9 591.8 41.6 591.8 48.2 585.0 54.6 578.45 57.0 567.75 L57.65 567.75 57.65 579.8 Q51.7 601.3 40.2 601.3 33.65 601.3 27.85 596.3 23.45 592.5 22.1 587.6 23.9 589.2 26.25 590.3 M-84.55 581.1 Q-79.4 581.1 -75.7 579.6 -71.4 577.9 -70.9 574.65 L-65.15 580.55 Q-61.55 583.6 -57.9 583.6 -50.2 583.6 -44.9 579.45 -39.6 575.25 -38.05 567.9 L-37.55 568.0 Q-37.25 568.7 -37.25 569.6 -37.25 576.1 -44.25 584.15 -52.6 593.75 -63.7 593.75 -66.4 593.75 -69.3 591.05 L-72.8 587.4 Q-74.9 587.4 -79.05 589.95 -83.25 592.45 -87.1 592.45 -102.05 592.45 -110.05 580.6 -115.5 572.45 -118.25 557.4 -111.9 568.3 -105.0 573.9 -96.15 581.1 -84.55 581.1 M-29.35 502.8 Q-28.7 511.75 -34.4 521.8 -40.9 533.25 -50.25 533.25 -57.45 533.25 -64.5 527.5 -69.6 523.4 -71.25 518.4 L-68.8 519.5 Q-63.75 521.35 -58.5 521.35 -48.0 521.35 -42.6 517.55 -38.4 514.6 -29.6 502.65 L-29.35 502.8" fill="#ff0000" fill-rule="evenodd" stroke="none"/>
  </g>
</svg>
