<?xml version="1.0" encoding="UTF-8" standalone="no"?>
<svg xmlns:ffdec="https://www.free-decompiler.com/flash" xmlns:xlink="http://www.w3.org/1999/xlink" ffdec:objectType="shape" height="164.1px" width="171.7px" xmlns="http://www.w3.org/2000/svg">
  <g transform="matrix(1.0, 0.0, 0.0, 1.0, 86.35, 96.45)">
    <path d="M77.45 -85.3 Q77.45 -83.7 76.65 -81.75 75.65 -79.35 74.05 -78.15 71.65 -76.3 70.2 -76.0 L64.8 -75.85 56.6 -75.35 Q55.95 -74.45 54.55 -74.1 51.7 -73.4 49.25 -71.05 L45.9 -67.5 44.3 -64.2 Q42.75 -61.2 41.75 -61.2 40.35 -61.2 40.1 -64.05 39.95 -65.5 40.1 -67.05 40.1 -74.85 41.1 -77.1 42.25 -79.6 49.9 -88.55 58.45 -98.6 68.3 -95.9 72.3 -94.85 74.9 -91.85 77.45 -88.85 77.45 -85.3 M69.35 -54.75 Q71.2 -52.45 71.2 -49.55 71.2 -45.55 68.55 -41.95 66.65 -39.3 61.7 -34.95 L54.95 -27.2 Q50.25 -21.55 48.95 -21.55 46.75 -21.55 45.7 -23.8 L45.0 -26.1 44.2 -26.0 43.3 -25.55 Q41.9 -26.95 41.9 -28.35 41.9 -29.4 46.6 -37.85 L52.55 -48.6 Q57.8 -58.9 64.75 -57.6 67.5 -57.05 69.35 -54.75 M85.35 10.75 Q85.35 13.0 84.7 14.05 83.4 16.15 79.45 16.15 L73.65 15.0 Q69.1 13.85 66.45 13.85 63.05 13.85 58.8 17.6 56.4 19.75 54.5 22.25 L51.0 27.25 47.25 32.1 43.0 37.0 Q40.35 39.75 37.2 40.95 34.25 42.1 31.25 45.15 L26.95 49.55 26.05 48.5 Q26.05 47.55 29.65 43.15 34.25 37.6 35.8 35.1 L39.2 28.35 Q41.1 24.2 43.15 21.4 L47.5 14.6 Q50.2 10.2 52.45 7.6 59.35 -0.4 71.3 -2.95 79.2 -3.85 82.95 2.3 85.35 6.25 85.35 10.75 M-86.35 -51.75 Q-86.35 -57.5 -80.7 -60.15 -75.4 -62.6 -67.7 -61.15 -59.65 -59.7 -53.25 -54.65 -45.95 -48.9 -43.15 -40.25 L-36.8 -22.7 Q-32.3 -9.9 -32.3 -3.6 L-32.45 -1.9 -32.6 -1.6 Q-32.8 -1.35 -33.65 -1.35 -34.85 -1.35 -38.45 -7.8 L-46.2 -22.0 Q-58.1 -42.65 -67.0 -42.65 L-72.2 -41.95 -77.4 -41.3 Q-83.3 -41.3 -85.4 -46.25 -86.35 -48.55 -86.35 -51.75 M-33.8 -59.0 L-28.35 -50.85 Q-25.7 -47.85 -24.15 -43.65 -22.75 -39.85 -22.75 -36.55 L-22.85 -32.7 -23.1 -32.5 -24.2 -32.3 Q-26.05 -32.3 -31.05 -37.95 L-37.5 -45.75 Q-38.3 -46.6 -43.2 -48.35 -47.85 -49.95 -48.65 -51.25 -49.75 -53.1 -49.75 -58.05 -49.75 -63.3 -48.05 -64.4 -46.4 -65.5 -38.8 -65.5 -38.05 -65.5 -33.8 -59.0 M-60.85 39.05 Q-52.75 40.65 -48.45 41.95 -42.35 43.85 -38.5 46.55 L-30.45 51.3 Q-23.3 55.6 -23.3 56.35 L-23.55 57.1 Q-23.9 57.9 -24.3 58.1 L-27.15 58.1 -36.8 56.0 -43.45 54.65 -56.7 54.65 Q-60.95 54.35 -69.3 60.95 -77.7 67.65 -78.45 67.65 -80.35 67.65 -81.15 63.0 L-81.55 58.05 -80.85 53.35 Q-80.0 49.05 -79.4 48.15 -73.75 40.1 -69.65 39.05 L-60.85 39.05" fill="#faf580" fill-rule="evenodd" stroke="none"/>
  </g>
</svg>
