<?xml version="1.0" encoding="UTF-8" standalone="no"?>
<svg xmlns:ffdec="https://www.free-decompiler.com/flash" xmlns:xlink="http://www.w3.org/1999/xlink" ffdec:objectType="shape" height="29.6px" width="18.0px" xmlns="http://www.w3.org/2000/svg">
  <g transform="matrix(1.0, 0.0, 0.0, 1.0, 9.0, 14.8)">
    <path d="M3.65 -5.3 Q4.9 -4.0 5.95 -1.5 6.9 0.9 6.9 2.5 L6.7 5.45 5.9 8.45 Q5.7 9.55 4.6 11.4 L3.35 13.5 3.3 13.55 2.9 13.55 2.65 13.5 0.55 12.85 0.25 12.65 -0.1 12.45 -0.7 11.9 -0.55 11.5 0.3 10.15 1.1 7.95 1.5 5.7 1.65 4.35 1.35 1.8 1.1 1.05 0.8 0.4 Q-0.05 -1.25 -2.4 -3.55 L-3.25 -4.35 -4.95 -6.4 -6.5 -8.5 -6.8 -8.85 -6.8 -8.95 -6.7 -9.05 -6.65 -9.3 -6.65 -9.55 -5.9 -10.45 -4.75 -11.5 -3.15 -12.4 -2.8 -12.05 -2.7 -12.05 -1.0 -9.85 3.65 -5.3" fill="#d7d7d7" fill-rule="evenodd" stroke="none"/>
    <path d="M3.65 -5.3 L-1.0 -9.85 -2.7 -12.05 -2.8 -12.05 -3.15 -12.4 -4.75 -11.5 -5.9 -10.45 -6.65 -9.55 -6.65 -9.3 -6.7 -9.05 -6.8 -8.95 -6.8 -8.85 -6.5 -8.5 -4.95 -6.4 -3.25 -4.35 -2.4 -3.55 Q-0.05 -1.25 0.8 0.4 L1.1 1.05 1.35 1.8 1.65 4.35 1.5 5.7 1.1 7.95 0.3 10.15 -0.55 11.5 -0.7 11.9 -0.1 12.45 0.25 12.65 0.55 12.85 2.65 13.5 2.9 13.55 3.3 13.55 3.35 13.5 4.6 11.4 Q5.7 9.55 5.9 8.45 L6.7 5.45 6.9 2.5 Q6.9 0.9 5.95 -1.5 4.9 -4.0 3.65 -5.3 M8.95 5.5 L8.25 8.05 7.05 11.2 7.05 11.25 5.95 12.8 5.9 12.85 Q4.85 14.55 4.4 14.55 L4.05 14.45 2.9 14.8 Q0.15 14.8 -0.8 13.5 -1.25 13.0 -2.05 12.5 L-2.45 12.2 -1.8 10.05 -1.5 9.7 -1.0 8.5 Q-0.1 6.25 -0.1 4.05 -0.1 2.3 -1.0 0.8 L-3.75 -2.55 -5.5 -4.15 Q-6.55 -5.1 -7.0 -5.8 L-8.2 -7.4 Q-8.75 -8.15 -8.75 -9.0 L-8.6 -9.25 Q-9.0 -9.5 -9.0 -10.05 -9.0 -10.5 -7.9 -11.55 L-6.35 -12.9 -4.05 -14.35 -1.6 -14.4 Q0.0 -11.2 3.15 -8.55 9.0 -3.5 9.0 3.05 L8.95 5.5" fill="#151515" fill-rule="evenodd" stroke="none"/>
  </g>
</svg>
