<?xml version="1.0" encoding="UTF-8" standalone="no"?>
<svg xmlns:ffdec="https://www.free-decompiler.com/flash" xmlns:xlink="http://www.w3.org/1999/xlink" ffdec:objectType="shape" height="5.1px" width="7.8px" xmlns="http://www.w3.org/2000/svg">
  <g transform="matrix(1.0, 0.0, 0.0, 1.0, -8.15, 39.35)">
    <path d="M12.55 -37.25 L12.65 -37.25 11.75 -37.65 12.55 -37.25 M13.05 -37.65 L13.15 -37.65 12.75 -37.8 13.05 -37.65 M14.05 -37.2 L13.95 -37.15 14.55 -36.7 14.4 -36.55 14.65 -36.3 14.45 -36.0 15.95 -34.85 15.3 -34.45 14.7 -34.25 Q14.05 -34.25 12.7 -35.1 L11.1 -36.15 8.95 -37.05 Q8.15 -37.45 8.15 -38.1 L8.25 -38.4 9.3 -38.1 Q9.05 -38.3 9.1 -38.5 9.35 -38.55 9.5 -38.85 L9.5 -38.9 8.65 -39.15 8.65 -39.35 11.2 -38.7 Q14.05 -37.65 14.05 -37.2" fill="#151515" fill-rule="evenodd" stroke="none"/>
  </g>
</svg>
