<?xml version="1.0" encoding="UTF-8" standalone="no"?>
<svg xmlns:ffdec="https://www.free-decompiler.com/flash" xmlns:xlink="http://www.w3.org/1999/xlink" ffdec:objectType="shape" height="172.55px" width="196.75px" xmlns="http://www.w3.org/2000/svg">
  <g transform="matrix(1.0, 0.0, 0.0, 1.0, 107.1, 153.55)">
    <path d="M35.35 -131.0 L28.2 -126.05 Q-0.45 -134.85 -14.3 -107.85 -48.7 -118.8 -55.65 -83.2 -92.25 -63.85 -66.9 -29.5 L-66.85 -25.4 Q-66.35 -13.9 -56.15 -11.65 -54.45 5.6 -38.75 12.8 -74.0 15.7 -79.45 -20.3 L-78.75 -20.4 -78.35 -21.0 -79.45 -21.65 Q-90.7 -29.1 -86.05 -42.1 -95.2 -45.55 -99.0 -54.35 -115.3 -91.7 -77.3 -103.55 L-76.2 -102.95 -75.65 -103.8 -73.8 -104.55 -74.35 -106.55 Q-67.55 -121.35 -51.5 -123.15 L-51.1 -122.65 -50.05 -122.55 -49.1 -123.25 -48.35 -123.25 -48.15 -124.25 Q-33.85 -134.75 -17.8 -127.35 L-17.55 -128.5 -17.85 -129.0 Q-13.4 -144.15 1.05 -149.3 33.2 -160.8 39.85 -130.45 L35.35 -131.0 M65.35 -105.55 L66.95 -105.05 Q77.05 -101.4 82.05 -92.05 94.7 -68.5 75.8 -50.15 83.95 -26.6 65.55 -10.25 65.75 7.4 50.45 15.95 60.65 -3.2 52.5 -23.2 74.15 -39.95 61.65 -64.85 73.75 -87.8 48.15 -96.8 51.15 -111.35 45.15 -125.05 L45.8 -124.9 43.6 -128.3 Q64.95 -128.05 63.7 -106.2 L65.35 -105.55" fill="#333333" fill-rule="evenodd" stroke="none"/>
    <path d="M35.35 -131.0 L39.85 -130.45 Q33.2 -160.8 1.05 -149.3 -13.4 -144.15 -17.85 -129.0 L-17.55 -128.5 -17.8 -127.35 Q-33.85 -134.75 -48.15 -124.25 L-48.35 -123.25 -49.1 -123.25 -50.05 -122.55 -51.1 -122.65 -51.5 -123.15 Q-67.55 -121.35 -74.35 -106.55 L-73.8 -104.55 -75.65 -103.8 -76.2 -102.95 -77.3 -103.55 Q-115.3 -91.7 -99.0 -54.35 -95.2 -45.55 -86.05 -42.1 -90.7 -29.1 -79.45 -21.65 L-78.35 -21.0 -78.75 -20.4 -79.45 -20.3 Q-74.0 15.7 -38.75 12.8 -54.45 5.6 -56.15 -11.65 -66.35 -13.9 -66.85 -25.4 L-66.9 -29.5 Q-92.25 -63.85 -55.65 -83.2 -48.7 -118.8 -14.3 -107.85 -0.45 -134.85 28.2 -126.05 L35.35 -131.0 M66.95 -105.05 Q90.5 -97.25 89.6 -71.35 89.1 -57.4 77.8 -48.95 86.7 -25.95 68.05 -9.95 69.6 9.35 51.95 17.05 L49.5 18.0 48.95 19.0 47.9 17.6 Q58.25 -2.95 50.15 -24.35 70.7 -41.9 59.35 -66.25 L60.2 -66.5 Q66.15 -79.2 56.45 -89.6 52.6 -93.7 47.3 -95.55 49.25 -112.4 41.1 -127.05 L41.15 -127.6 Q39.25 -128.7 37.15 -128.45 34.8 -128.25 32.8 -127.1 L32.45 -127.4 28.5 -122.55 27.55 -123.3 27.45 -123.8 Q-0.1 -132.7 -12.8 -106.55 L-12.45 -106.15 -13.45 -105.2 Q-39.95 -115.7 -51.95 -91.75 -54.45 -86.85 -53.85 -81.2 L-54.55 -81.0 -54.95 -81.2 Q-81.7 -67.8 -70.5 -40.4 -68.3 -35.0 -64.05 -30.95 -66.85 -21.45 -60.15 -15.4 -58.35 -13.75 -55.75 -13.65 L-54.55 -14.3 -54.25 -13.85 -53.75 -13.85 -53.6 -12.5 -53.95 -12.15 Q-52.3 1.35 -40.95 8.85 -38.4 10.5 -35.4 11.5 L-34.65 11.2 -37.8 15.25 Q-69.55 18.2 -79.95 -11.25 -81.5 -15.65 -81.8 -20.55 -90.3 -25.0 -90.5 -34.5 -90.6 -37.85 -89.35 -41.2 -113.4 -54.3 -104.85 -81.75 -98.45 -102.4 -76.7 -106.8 -55.55 -136.85 -19.6 -130.2 -7.85 -160.75 24.45 -151.35 39.9 -147.0 42.6 -130.85 63.4 -131.1 65.45 -111.05 65.75 -108.3 65.35 -105.55 L63.7 -106.2 Q64.95 -128.05 43.6 -128.3 L45.8 -124.9 45.15 -125.05 Q51.15 -111.35 48.15 -96.8 73.75 -87.8 61.65 -64.85 74.15 -39.95 52.5 -23.2 60.65 -3.2 50.45 15.95 65.75 7.4 65.55 -10.25 83.95 -26.6 75.8 -50.15 94.7 -68.5 82.05 -92.05 77.05 -101.4 66.95 -105.05 M53.95 -55.6 Q53.95 -56.1 54.3 -56.4 54.6 -56.75 55.1 -56.75 55.6 -56.75 55.95 -56.4 L56.25 -55.6 Q56.25 -55.1 55.95 -54.75 55.6 -54.45 55.1 -54.45 54.6 -54.45 54.3 -54.75 53.95 -55.1 53.95 -55.6 M52.6 -37.45 Q53.1 -35.05 51.1 -33.85 49.55 -32.9 47.85 -33.5 L47.8 -34.15 Q49.15 -36.25 51.45 -37.15 L52.6 -37.45 M56.95 -40.45 Q56.35 -40.45 55.95 -40.9 55.5 -41.35 55.5 -41.95 55.5 -42.55 55.95 -43.0 56.35 -43.45 56.95 -43.45 57.55 -43.45 58.0 -43.0 58.4 -42.55 58.4 -41.95 58.4 -41.35 58.0 -40.9 57.55 -40.45 56.95 -40.45 M48.95 -14.15 L51.25 -13.25 51.2 -11.6 50.0 -11.55 48.95 -14.15 M48.3 2.8 Q47.75 2.8 47.4 2.45 47.0 2.05 47.0 1.55 47.0 1.05 47.4 0.7 47.75 0.3 48.3 0.3 48.85 0.3 49.25 0.7 49.6 1.05 49.6 1.55 L49.25 2.45 Q48.85 2.8 48.3 2.8 M42.15 8.9 Q41.6 9.4 40.85 9.4 40.1 9.4 39.6 8.9 39.05 8.35 39.05 7.65 39.05 6.95 39.6 6.45 40.1 5.9 40.85 5.9 41.6 5.9 42.15 6.45 42.65 6.95 42.65 7.65 42.65 8.35 42.15 8.9 M-8.65 -98.05 Q-8.65 -97.6 -8.95 -97.25 -9.3 -96.95 -9.75 -96.95 -10.2 -96.95 -10.5 -97.25 -10.85 -97.6 -10.85 -98.05 -10.85 -98.5 -10.5 -98.8 -10.2 -99.15 -9.75 -99.15 -9.3 -99.15 -8.95 -98.8 -8.65 -98.5 -8.65 -98.05 M-7.95 -90.3 Q-8.3 -90.65 -8.3 -91.1 L-7.95 -91.85 Q-7.65 -92.2 -7.2 -92.2 -6.75 -92.2 -6.4 -91.85 -6.1 -91.55 -6.1 -91.1 -6.1 -90.65 -6.4 -90.3 -6.75 -90.0 -7.2 -90.0 -7.65 -90.0 -7.95 -90.3 M-33.55 -85.25 Q-33.2 -84.9 -33.2 -84.35 -33.2 -83.8 -33.55 -83.4 -33.95 -83.05 -34.5 -83.05 -35.05 -83.05 -35.4 -83.4 -35.8 -83.8 -35.8 -84.35 -35.8 -84.9 -35.4 -85.25 -35.05 -85.65 -34.5 -85.65 -33.95 -85.65 -33.55 -85.25 M-33.7 -81.55 Q-33.4 -82.0 -32.9 -82.0 -32.4 -82.0 -32.05 -81.55 -31.75 -81.1 -31.75 -80.5 -31.75 -79.9 -32.05 -79.45 -32.4 -79.0 -32.9 -79.0 -33.4 -79.0 -33.7 -79.45 -34.05 -79.9 -34.05 -80.5 -34.05 -81.1 -33.7 -81.55 M-48.85 -83.05 Q-48.0 -83.05 -47.4 -82.4 -46.85 -81.75 -46.85 -80.85 -46.85 -79.95 -47.4 -79.3 -48.0 -78.65 -48.85 -78.65 -49.7 -78.65 -50.25 -79.3 -50.85 -79.95 -50.85 -80.85 -50.85 -81.75 -50.25 -82.4 -49.7 -83.05 -48.85 -83.05 M-63.25 -60.55 L-61.9 -61.0 Q-61.1 -61.0 -60.55 -60.55 -60.0 -60.15 -60.0 -59.55 -60.0 -58.95 -60.55 -58.5 -61.1 -58.1 -61.9 -58.1 -62.7 -58.1 -63.25 -58.5 -63.8 -58.95 -63.8 -59.55 -63.8 -60.15 -63.25 -60.55 M-42.55 -71.9 Q-42.15 -72.3 -41.55 -72.3 -40.95 -72.3 -40.55 -71.9 -40.15 -71.5 -40.15 -70.9 -40.15 -70.3 -40.55 -69.9 -40.95 -69.5 -41.55 -69.5 -42.15 -69.5 -42.55 -69.9 -42.95 -70.3 -42.95 -70.9 -42.95 -71.5 -42.55 -71.9 M-47.55 -39.3 Q-47.2 -38.95 -47.2 -38.4 -47.2 -37.85 -47.55 -37.45 -47.95 -37.1 -48.5 -37.1 -49.05 -37.1 -49.4 -37.45 -49.8 -37.85 -49.8 -38.4 -49.8 -38.95 -49.4 -39.3 -49.05 -39.7 -48.5 -39.7 -47.95 -39.7 -47.55 -39.3 M-53.4 -45.05 Q-53.4 -44.5 -53.8 -44.1 -54.2 -43.75 -54.75 -43.75 -55.3 -43.75 -55.7 -44.1 -56.1 -44.5 -56.1 -45.05 -56.1 -45.6 -55.7 -45.95 -55.3 -46.35 -54.75 -46.35 -54.2 -46.35 -53.8 -45.95 -53.4 -45.6 -53.4 -45.05 M-57.1 -32.45 Q-57.85 -32.45 -58.4 -32.85 -58.95 -33.3 -58.95 -33.9 -58.95 -34.5 -58.4 -34.9 -57.85 -35.35 -57.1 -35.35 -56.35 -35.35 -55.8 -34.9 -55.25 -34.5 -55.25 -33.9 -55.25 -33.3 -55.8 -32.85 -56.35 -32.45 -57.1 -32.45 M-46.05 -14.5 Q-46.05 -14.0 -46.5 -13.6 -46.95 -13.25 -47.55 -13.25 -48.15 -13.25 -48.6 -13.6 -49.05 -14.0 -49.05 -14.5 L-48.6 -15.35 Q-48.15 -15.75 -47.55 -15.75 -46.95 -15.75 -46.5 -15.35 -46.05 -15.0 -46.05 -14.5 M-41.35 -0.8 Q-41.35 -1.25 -40.9 -1.55 L-39.9 -1.85 -38.85 -1.55 Q-38.45 -1.25 -38.45 -0.8 -38.45 -0.35 -38.85 -0.05 L-39.9 0.25 -40.9 -0.05 Q-41.35 -0.35 -41.35 -0.8 M-26.85 -14.65 Q-27.35 -14.65 -27.7 -15.0 -28.1 -15.4 -28.1 -15.95 -28.1 -16.5 -27.7 -16.85 -27.35 -17.25 -26.85 -17.25 -26.35 -17.25 -25.95 -16.85 -25.6 -16.5 -25.6 -15.95 -25.6 -15.4 -25.95 -15.0 -26.35 -14.65 -26.85 -14.65" fill="#ff0000" fill-rule="evenodd" stroke="none"/>
  </g>
</svg>
