<?xml version="1.0" encoding="UTF-8" standalone="no"?>
<svg xmlns:ffdec="https://www.free-decompiler.com/flash" xmlns:xlink="http://www.w3.org/1999/xlink" ffdec:objectType="shape" height="91.6px" width="117.2px" xmlns="http://www.w3.org/2000/svg">
  <g transform="matrix(1.0, 0.0, 0.0, 1.0, 58.6, 47.9)">
    <path d="M38.15 -31.9 Q22.35 -44.25 0.0 -44.25 -22.35 -44.25 -38.15 -31.9 -53.95 -19.55 -53.95 -2.1 -53.95 15.4 -38.15 27.75 -22.35 40.1 0.0 40.1 22.35 40.1 38.15 27.75 53.95 15.4 53.95 -2.1 53.95 -19.55 38.15 -31.9 M58.6 -2.1 Q58.6 16.9 41.45 30.3 24.3 43.7 0.0 43.7 -24.3 43.7 -41.45 30.3 -58.6 16.9 -58.6 -2.1 -58.6 -21.1 -41.45 -34.5 -24.3 -47.9 0.0 -47.9 24.3 -47.9 41.45 -34.5 58.6 -21.1 58.6 -2.1" fill="url(#gradient0)" fill-rule="evenodd" stroke="none"/>
  </g>
  <defs>
    <radialGradient cx="0" cy="0" gradientTransform="matrix(0.0709, 0.0, 0.0, 0.0554, 0.2, -2.1)" gradientUnits="userSpaceOnUse" id="gradient0" r="819.2" spreadMethod="pad">
      <stop offset="0.17254901960784313" stop-color="#039f02"/>
      <stop offset="0.6705882352941176" stop-color="#05e703"/>
      <stop offset="1.0" stop-color="#05e703" stop-opacity="0.0"/>
    </radialGradient>
  </defs>
</svg>
