<?xml version="1.0" encoding="UTF-8" standalone="no"?>
<svg xmlns:ffdec="https://www.free-decompiler.com/flash" xmlns:xlink="http://www.w3.org/1999/xlink" ffdec:objectType="shape" height="489.75px" width="183.7px" xmlns="http://www.w3.org/2000/svg">
  <g transform="matrix(1.0, 0.0, 0.0, 1.0, 93.45, 218.0)">
    <path d="M-75.0 -210.05 L-76.0 -207.95 -76.75 -205.3 -77.2 -202.05 -77.5 -195.85 -77.5 -195.65 -77.5 -195.55 -77.45 -193.35 Q-77.2 -190.95 -76.35 -190.25 L-75.3 -190.25 -74.55 -190.05 -71.3 -189.6 -70.9 -189.55 Q-65.6 -189.2 -54.75 -189.2 L-38.85 -189.6 -38.25 -189.8 -17.6 -189.95 -11.75 -190.55 -11.55 -190.55 -7.8 -190.9 -7.5 -190.95 -4.85 -191.15 2.15 -191.15 4.0 -190.9 11.8 -190.6 49.05 -190.45 49.7 -190.25 63.6 -190.25 Q69.3 -190.2 70.2 -191.5 70.55 -191.95 70.65 -195.0 L70.65 -197.2 70.65 -198.35 70.55 -201.05 70.4 -202.35 70.45 -204.35 70.35 -205.9 70.35 -210.4 70.3 -210.9 70.7 -211.1 Q71.8 -204.25 71.8 -200.2 L71.6 -189.7 71.3 -183.4 71.25 -183.1 71.25 -182.8 71.1 -181.7 71.15 -181.5 71.05 -180.85 Q70.4 -176.55 70.4 -175.15 70.4 -174.8 70.7 -174.8 L70.9 -174.85 70.55 -172.65 68.7 -162.25 65.0 -142.85 Q62.9 -130.05 61.15 -123.3 59.45 -116.7 57.05 -110.95 L56.65 -109.55 56.1 -108.05 55.6 -106.1 55.6 -105.65 55.6 -105.2 55.35 -104.3 55.1 -103.4 55.0 -103.15 54.75 -102.65 54.65 -102.2 54.6 -101.85 54.35 -101.3 53.15 -96.4 52.65 -94.3 51.75 -92.3 Q49.4 -88.25 43.65 -83.6 L42.5 -82.7 Q40.85 -81.55 38.65 -80.45 L32.85 -77.65 31.65 -76.95 22.8 -72.1 14.9 -68.0 14.6 -67.85 Q4.9 -63.05 2.0 -63.05 L1.95 -63.05 Q1.7 -62.55 1.2 -62.55 L-0.45 -63.25 Q-2.75 -63.75 -6.35 -65.25 -9.25 -66.5 -10.5 -67.3 -12.1 -67.6 -16.8 -69.5 -21.1 -71.3 -27.9 -74.4 L-34.0 -77.35 -35.3 -78.0 -36.8 -78.7 Q-40.85 -80.7 -43.5 -82.2 -50.7 -86.3 -54.75 -91.9 -57.0 -95.05 -60.0 -101.95 -63.8 -110.9 -65.65 -119.3 L-67.35 -126.05 -69.6 -137.7 -69.65 -137.75 -69.65 -137.95 -69.75 -138.5 -70.6 -143.55 -70.65 -143.6 -70.65 -143.8 -71.45 -148.3 -71.65 -148.5 -71.65 -149.0 -71.65 -149.2 -71.85 -150.25 -72.05 -151.0 -72.15 -151.15 -72.15 -151.25 -76.3 -168.9 -77.3 -178.6 -78.3 -180.35 -78.35 -184.6 -78.75 -185.95 -79.35 -186.75 -79.35 -189.1 -79.35 -189.45 -79.35 -189.7 -79.5 -191.25 -79.55 -191.55 -79.55 -191.6 -79.6 -191.9 -79.8 -195.65 -79.8 -196.9 -79.8 -197.3 -79.8 -199.4 -79.15 -203.55 -79.15 -203.6 -79.1 -203.85 -79.05 -204.0 -79.05 -204.1 -79.0 -204.25 -78.6 -206.15 -78.1 -208.2 Q-77.3 -209.7 -75.45 -210.0 L-75.0 -210.05 M76.1 -211.85 L76.15 -212.05 76.2 -212.1 76.4 -212.4 76.45 -212.45 77.9 -212.85 78.1 -212.85 78.15 -212.95 Q79.3 -214.35 80.4 -214.05 L81.4 -213.75 81.75 -213.5 Q81.25 -213.5 81.0 -212.85 80.75 -212.2 80.75 -210.9 L80.7 -209.75 Q80.65 -208.4 80.85 -207.0 81.15 -204.8 82.0 -203.8 L82.3 -203.55 Q82.8 -203.15 83.5 -203.15 L84.55 -203.8 84.7 -203.95 85.1 -204.45 85.5 -204.95 85.5 -203.85 85.5 -203.6 85.5 -202.75 Q85.5 -198.9 83.3 -194.25 L83.15 -193.9 83.1 -193.85 Q81.7 -190.25 79.9 -189.65 L78.6 -189.2 78.3 -189.2 Q77.45 -189.2 77.2 -189.85 L77.15 -190.05 77.15 -190.1 77.15 -191.0 77.3 -191.75 78.3 -194.55 Q79.05 -196.4 79.3 -198.3 L79.4 -199.35 79.4 -200.2 79.4 -200.95 79.25 -202.9 78.85 -204.9 78.75 -205.2 77.4 -209.7 77.0 -211.05 77.05 -211.4 77.05 -211.5 77.25 -211.8 77.05 -211.9 76.15 -211.9 76.1 -211.85 M63.2 -188.1 L64.85 -188.85 40.45 -187.0 40.35 -187.0 39.45 -186.95 39.85 -186.65 40.0 -186.5 40.1 -186.45 Q46.8 -181.45 54.35 -182.3 L55.0 -182.35 Q57.6 -182.7 60.35 -183.8 L63.2 -188.1 M67.2 -184.5 L67.45 -185.15 67.2 -184.8 64.4 -182.4 63.75 -181.5 62.25 -179.7 62.1 -178.95 61.5 -177.95 61.5 -177.8 61.35 -177.05 61.25 -175.2 61.25 -174.35 60.95 -173.55 60.85 -173.3 60.65 -173.05 60.25 -172.55 60.25 -171.7 60.25 -170.85 60.25 -170.8 Q60.25 -170.35 60.4 -170.0 L61.0 -169.0 61.2 -167.25 61.25 -165.45 61.25 -164.05 62.35 -162.9 62.55 -162.75 67.2 -184.5 M57.95 -163.45 L57.7 -164.3 57.8 -165.25 Q57.6 -166.35 57.65 -167.55 L57.65 -167.75 57.7 -168.25 57.75 -169.55 57.75 -170.0 57.75 -170.05 57.75 -170.5 57.75 -173.15 57.75 -173.75 57.75 -173.8 57.75 -174.0 57.75 -174.5 57.75 -176.45 57.75 -176.8 58.1 -177.6 58.65 -178.35 58.7 -179.3 54.5 -179.05 53.15 -178.55 Q46.95 -177.55 42.1 -181.65 L37.1 -185.25 Q36.15 -185.9 35.35 -186.9 L-1.25 -188.4 -7.8 -188.5 -46.2 -187.6 -48.3 -185.8 -49.05 -184.0 -50.7 -182.8 Q-56.55 -177.6 -63.3 -179.05 L-63.45 -179.05 -63.75 -179.1 -63.8 -179.1 -64.3 -178.9 -64.25 -178.35 Q-63.75 -175.95 -63.55 -173.75 L-63.55 -173.65 Q-63.0 -165.7 -66.9 -159.5 L-67.05 -159.25 -68.5 -157.3 -68.65 -157.5 Q-69.1 -157.9 -69.15 -156.55 L-69.3 -156.35 -69.3 -156.15 -69.2 -155.8 -69.15 -155.7 -69.0 -155.15 -68.2 -150.4 -67.05 -143.85 -65.15 -131.4 -63.85 -123.65 -63.4 -121.3 -63.0 -119.1 Q-62.15 -114.9 -59.7 -106.65 -58.5 -102.5 -54.45 -94.35 -53.0 -91.5 -48.65 -88.0 L-44.4 -84.95 -39.75 -82.3 -29.95 -77.05 -27.5 -75.85 Q-23.25 -73.75 -19.8 -72.6 -15.1 -70.55 -10.65 -68.8 -9.75 -68.75 -7.65 -67.6 L-3.6 -66.05 0.75 -64.65 1.25 -64.4 1.3 -64.5 3.35 -64.15 Q4.15 -64.15 4.4 -64.65 6.35 -65.25 13.6 -69.5 L24.6 -76.3 Q26.15 -77.15 29.35 -79.15 L33.45 -81.85 Q38.3 -85.1 40.35 -86.85 L43.15 -88.95 Q44.9 -89.1 48.05 -93.8 L48.5 -94.5 Q51.8 -99.55 52.7 -102.85 L54.9 -110.0 56.85 -116.85 58.85 -125.2 59.6 -128.5 59.7 -128.85 Q63.05 -143.45 63.05 -145.1 L62.9 -148.7 63.3 -152.45 63.25 -153.7 62.85 -155.0 61.95 -156.0 61.4 -156.35 60.75 -157.1 60.0 -158.0 59.75 -158.85 59.7 -159.1 59.5 -159.35 59.1 -159.85 59.05 -160.2 59.0 -160.35 58.75 -160.7 58.75 -160.8 58.75 -160.85 58.65 -161.15 58.6 -161.3 58.6 -161.55 58.6 -162.05 58.35 -162.55 58.15 -162.9 58.0 -163.4 57.95 -163.45 M69.7 -148.05 L71.7 -157.6 72.75 -72.25 72.9 -71.75 73.2 -69.1 Q72.95 -65.0 73.0 -63.05 L73.1 -60.45 73.05 -60.45 73.35 -35.5 73.55 -35.5 73.7 -25.1 74.7 -23.6 75.7 35.4 74.7 36.4 Q74.7 50.75 75.25 64.9 75.7 77.3 75.5 89.65 L75.5 106.15 Q75.7 117.8 76.85 129.4 78.1 142.2 77.8 155.15 L77.9 155.9 78.3 158.6 79.25 186.15 79.35 188.45 80.5 216.85 80.1 216.85 78.95 217.45 Q78.2 217.65 77.7 218.05 L76.55 194.1 Q75.45 175.6 74.95 156.9 74.85 153.45 74.35 149.7 73.25 141.7 73.65 133.65 L73.65 127.25 73.35 119.8 Q72.45 87.1 72.85 54.15 73.3 19.9 71.95 -14.1 L71.2 -27.55 71.1 -30.6 71.05 -35.5 70.45 -35.5 69.8 -44.6 69.9 -45.35 70.65 -46.85 70.7 -47.0 70.7 -50.1 69.7 -51.35 69.7 -125.05 69.7 -133.85 69.7 -148.05 M80.75 224.7 L80.75 224.75 80.7 224.7 80.75 224.7 M-82.8 229.35 L-82.9 228.35 -82.85 228.4 -82.6 228.5 -82.8 229.35 M-83.15 226.25 L-83.2 225.65 -83.15 225.7 -83.15 225.85 -83.15 226.25 M-83.55 221.85 L-83.65 221.7 -83.65 221.65 -83.9 219.75 -83.8 218.25 Q-83.75 217.45 -84.2 216.8 L-84.8 211.65 -80.8 90.15 Q-78.75 82.75 -78.9 74.7 L-78.85 73.1 -77.9 58.15 Q-77.0 42.25 -76.6 26.4 -76.1 5.6 -77.3 -15.35 L-76.3 -16.6 -76.8 -35.5 -77.3 -35.5 -77.6 -39.8 Q-77.95 -44.45 -77.4 -48.85 L-77.3 -49.5 -77.25 -49.6 -77.1 -50.9 -76.6 -57.45 -76.6 -57.65 -76.45 -60.45 -76.05 -60.45 -75.55 -87.05 -75.35 -119.65 -75.4 -120.85 -75.4 -121.85 -75.6 -136.0 -75.5 -135.65 -75.35 -134.8 -75.25 -133.9 -75.25 -133.0 -74.8 -132.1 -74.5 -131.2 -74.35 -130.3 -74.25 -129.45 -73.8 -128.5 -73.5 -127.7 -73.25 -126.75 -73.2 -125.0 -73.05 -124.45 -72.95 -124.1 -73.4 -93.85 -73.6 -92.45 -73.75 -90.2 Q-73.85 -87.65 -74.05 -86.55 L-74.35 -60.45 -73.2 -60.45 -73.75 -35.5 -73.8 -35.5 -73.8 -2.6 -72.8 -1.85 Q-72.25 9.3 -73.2 19.95 L-73.65 28.15 Q-73.8 33.4 -74.3 38.6 -76.1 57.25 -76.45 76.4 L-76.55 78.2 -77.7 94.45 Q-78.95 113.7 -79.05 133.4 -79.05 134.9 -79.3 136.4 -80.25 142.65 -80.15 149.15 -79.8 168.4 -81.05 187.55 -82.15 204.5 -81.8 221.4 L-83.0 221.3 -83.05 221.35 Q-83.4 221.35 -83.45 221.6 L-83.55 221.85 M49.1 -98.75 L48.95 -98.4 49.0 -98.65 49.1 -98.75 M39.85 -183.8 L40.1 -184.0 Q41.6 -186.6 39.85 -183.8 M-85.85 -201.1 L-87.15 -204.25 -87.1 -205.15 -87.1 -205.3 -87.0 -206.4 -86.4 -207.4 Q-86.0 -210.4 -84.3 -212.35 L-84.15 -212.55 -83.05 -213.55 -82.75 -213.8 Q-81.25 -214.85 -80.2 -214.25 L-80.05 -214.15 -79.85 -214.0 -80.65 -213.35 -80.9 -213.1 -82.1 -211.35 -82.55 -210.3 -82.55 -210.15 -82.8 -208.75 -82.85 -208.3 Q-82.8 -206.7 -81.6 -206.65 L-81.5 -206.65 -80.95 -206.75 -80.55 -207.05 -81.4 -203.95 -81.9 -200.2 Q-82.25 -198.65 -82.75 -197.85 L-82.6 -197.05 -83.1 -197.5 Q-83.45 -197.2 -83.85 -197.2 -84.45 -197.2 -85.3 -200.0 L-85.6 -201.15 -85.85 -201.1 M-88.3 -208.55 L-88.45 -208.3 -88.65 -207.85 -88.75 -208.1 -88.6 -208.35 -88.3 -208.55 M-88.35 -197.6 L-88.25 -197.5 -88.35 -197.55 -88.35 -197.6 M-49.55 -188.4 L-59.05 -187.85 -72.05 -188.05 -68.25 -185.05 Q-58.25 -178.4 -49.55 -188.4 M-74.35 -181.65 L-73.8 -176.5 -70.35 -160.95 -67.4 -168.1 -66.85 -177.8 -68.1 -180.5 -74.2 -184.2 -74.3 -184.3 -74.85 -184.6 -74.35 -181.65 M77.7 222.0 L78.1 221.85 77.7 222.0" fill="#ff9900" fill-rule="evenodd" stroke="none"/>
    <path d="M-75.0 -210.05 L-74.5 -210.7 -55.35 -210.7 -53.75 -210.9 -51.9 -211.0 -51.2 -211.05 -47.05 -211.25 -42.75 -211.0 -41.8 -210.8 -38.9 -210.35 -38.75 -210.3 -38.0 -210.15 -18.8 -210.15 -17.9 -210.45 -9.75 -210.45 -4.3 -210.45 Q-0.75 -210.5 1.1 -211.25 L22.1 -211.3 25.25 -211.0 43.35 -211.0 46.6 -211.2 51.5 -211.8 69.6 -211.8 70.2 -211.95 70.25 -211.95 70.75 -211.9 72.8 -211.75 75.75 -211.75 76.05 -212.05 76.15 -212.05 76.1 -211.85 Q75.65 -211.75 75.4 -211.45 L75.05 -210.9 75.0 -210.6 75.0 -210.5 75.2 -210.0 73.9 -209.9 74.65 -208.35 Q75.5 -205.9 75.75 -203.45 L76.2 -198.0 76.2 -197.0 76.2 -195.8 76.2 -195.35 76.2 -193.45 76.2 -189.8 76.15 -188.75 75.85 -186.4 75.7 -186.35 Q75.05 -186.35 75.1 -187.65 L75.2 -189.9 Q75.05 -191.0 75.3 -193.5 L75.1 -201.55 Q74.65 -206.0 72.9 -209.7 L73.3 -205.2 73.35 -204.7 73.35 -204.15 73.35 -203.7 73.4 -198.95 73.05 -190.15 Q72.7 -184.9 72.25 -182.75 L72.15 -181.25 Q71.75 -175.5 70.9 -174.85 L70.7 -174.8 Q70.4 -174.8 70.4 -175.15 70.4 -176.55 71.05 -180.85 L71.15 -181.5 71.1 -181.7 71.25 -182.8 71.25 -183.1 71.3 -183.4 71.6 -189.7 71.8 -200.2 Q71.8 -204.25 70.7 -211.1 L70.3 -210.9 70.35 -210.4 70.35 -205.9 70.45 -204.35 70.4 -202.35 70.55 -201.05 70.65 -198.35 70.65 -197.2 70.65 -195.0 Q70.55 -191.95 70.2 -191.5 69.3 -190.2 63.6 -190.25 L49.7 -190.25 49.05 -190.45 11.8 -190.6 4.0 -190.9 2.15 -191.15 -4.85 -191.15 -7.5 -190.95 -7.8 -190.9 -11.55 -190.55 -11.75 -190.55 -17.6 -189.95 -38.25 -189.8 -38.85 -189.6 -54.75 -189.2 Q-65.6 -189.2 -70.9 -189.55 L-71.3 -189.6 -74.55 -190.05 -75.3 -190.25 -76.35 -190.25 Q-77.2 -190.95 -77.45 -193.35 L-77.5 -195.55 -77.5 -195.65 -77.5 -195.85 -77.2 -202.05 -76.75 -205.3 -76.0 -207.95 -75.0 -210.05 M72.35 -205.35 L72.4 -205.15 72.4 -205.45 72.35 -205.35 M63.2 -188.1 L60.35 -183.8 Q57.6 -182.7 55.0 -182.35 L54.35 -182.3 Q46.8 -181.45 40.1 -186.45 L40.0 -186.5 39.85 -186.65 39.45 -186.95 40.35 -187.0 40.45 -187.0 64.85 -188.85 63.2 -188.1 M67.2 -184.8 L67.2 -184.5 62.55 -162.75 62.35 -162.9 61.25 -164.05 61.25 -165.45 61.2 -167.25 61.0 -169.0 60.4 -170.0 Q60.25 -170.35 60.25 -170.8 L60.25 -170.85 60.25 -171.7 60.25 -172.55 60.65 -173.05 60.85 -173.3 60.95 -173.55 61.25 -174.35 61.25 -175.2 61.35 -177.05 61.5 -177.8 61.5 -177.95 62.1 -178.95 62.25 -179.7 63.75 -181.5 64.4 -182.4 67.2 -184.8 M-1.25 -188.4 L35.35 -186.9 Q36.15 -185.9 37.1 -185.25 L42.1 -181.65 Q46.95 -177.55 53.15 -178.55 L54.5 -179.05 58.7 -179.3 58.65 -178.35 58.1 -177.6 57.75 -176.8 57.75 -176.45 57.75 -174.5 57.75 -174.0 57.75 -173.8 57.75 -173.75 57.75 -173.15 57.75 -170.5 57.75 -170.05 57.75 -170.0 57.75 -169.55 57.7 -168.25 57.65 -167.75 57.65 -167.55 Q57.6 -166.35 57.8 -165.25 L57.7 -164.3 57.95 -163.45 57.6 -163.85 57.25 -164.3 57.15 -164.3 57.1 -164.3 56.85 -164.35 56.75 -164.35 56.7 -164.35 56.6 -168.2 54.5 -172.1 Q45.7 -170.55 38.45 -172.75 L34.3 -172.45 Q24.85 -169.1 15.8 -169.85 L-15.5 -170.2 -22.7 -169.15 -23.1 -169.8 -23.05 -170.35 -22.55 -171.1 -24.6 -170.3 Q-28.05 -168.2 -31.75 -170.0 -33.65 -170.9 -35.65 -171.35 -41.8 -172.85 -48.0 -174.7 L-50.05 -171.9 -56.55 -170.2 -57.05 -168.4 -58.8 -167.55 -62.2 -159.1 -63.8 -158.05 -62.8 -155.4 -62.05 -149.8 -62.5 -146.9 -64.8 -146.9 -64.9 -147.3 -65.85 -151.7 Q-66.65 -155.85 -67.7 -155.9 L-67.75 -155.95 -68.15 -156.75 -68.5 -157.3 -67.05 -159.25 -66.9 -159.5 Q-63.0 -165.7 -63.55 -173.65 L-63.55 -173.75 Q-63.75 -175.95 -64.25 -178.35 L-64.3 -178.9 -63.8 -179.1 -63.75 -179.1 -63.45 -179.05 -63.7 -178.9 -63.7 -178.85 -63.4 -179.0 Q-63.35 -178.95 -63.3 -179.05 -56.55 -177.6 -50.7 -182.8 L-49.05 -184.0 -48.3 -185.8 -46.2 -187.6 -7.8 -188.5 -5.8 -179.9 -1.55 -179.9 -1.0 -178.4 1.7 -179.6 -0.25 -182.2 -4.3 -185.45 -1.25 -188.4 M58.6 -161.3 L58.65 -161.15 58.6 -161.2 58.6 -161.3 M-69.0 -155.15 L-69.15 -155.7 -69.2 -155.8 -69.3 -156.15 -69.3 -156.35 -69.15 -156.55 -69.15 -156.2 -69.0 -155.15 M56.7 -160.65 L56.75 -160.6 56.85 -160.1 57.0 -159.65 57.2 -159.25 57.35 -158.8 56.7 -159.5 56.7 -160.65 M-79.35 -189.1 L-79.8 -189.25 -79.35 -189.7 -79.35 -189.45 -79.35 -189.1 M-1.3 -177.55 Q-2.2 -176.85 -1.3 -177.25 L-1.3 -177.55 M-37.8 -193.65 L-39.05 -193.75 -39.05 -193.7 -36.85 -193.6 -37.8 -193.65 M-49.55 -188.4 Q-58.25 -178.4 -68.25 -185.05 L-72.05 -188.05 -59.05 -187.85 -49.55 -188.4 M-74.35 -181.65 L-74.85 -184.6 -74.3 -184.3 -74.2 -184.2 -68.1 -180.5 -66.85 -177.8 -67.4 -168.1 -70.35 -160.95 -70.35 -163.4 -70.8 -166.75 -74.35 -181.65" fill="#990000" fill-rule="evenodd" stroke="none"/>
    <path d="M76.9 -180.25 L76.45 -174.7 75.8 -174.45 75.6 -178.3 75.75 -178.5 75.8 -178.6 Q76.45 -180.0 76.25 -181.15 L76.9 -180.25 M-81.45 -149.65 L-81.3 -156.5 -81.3 -144.4 -81.45 -144.25 -81.35 -149.1 -81.35 -149.75 -81.45 -149.65 M-81.1 -163.4 L-80.9 -163.7 -80.9 -163.65 -81.1 -163.4 M73.35 -203.7 L73.35 -204.15 73.45 -204.0 73.35 -203.7 M75.85 -186.4 L76.15 -188.75 76.2 -189.8 76.2 -193.45 76.2 -195.35 76.35 -195.4 76.3 -195.75 76.2 -195.8 76.2 -197.0 76.2 -198.0 75.75 -203.45 Q75.5 -205.9 74.65 -208.35 L73.9 -209.9 75.2 -210.0 75.0 -210.5 75.0 -210.6 75.05 -210.9 75.4 -211.45 Q75.65 -211.75 76.1 -211.85 L76.15 -211.9 77.05 -211.9 77.25 -211.8 77.05 -211.5 77.05 -211.4 77.0 -211.05 77.4 -209.7 78.75 -205.2 78.85 -204.9 79.25 -202.9 79.4 -200.95 79.4 -200.2 79.4 -199.35 79.3 -198.3 Q79.05 -196.4 78.3 -194.55 L77.3 -191.75 77.15 -191.0 77.15 -190.1 77.15 -190.05 77.2 -189.85 Q77.45 -189.2 78.3 -189.2 L78.6 -189.2 75.8 -186.05 75.85 -186.4 M80.5 216.85 L80.75 216.85 81.1 217.25 81.1 218.0 81.1 218.75 81.1 219.15 80.7 219.9 Q80.3 220.6 79.5 220.9 L79.25 220.8 79.1 220.9 78.35 221.65 78.2 221.8 78.1 221.85 77.7 222.0 76.95 222.2 76.75 222.35 76.6 222.4 75.7 223.1 74.75 223.6 73.75 223.55 61.5 229.45 59.95 229.15 48.2 233.4 Q26.45 244.95 2.95 252.2 L-0.2 253.2 -2.25 253.4 Q-12.1 252.4 -21.5 248.35 -24.25 247.05 -27.15 246.1 -42.85 240.55 -58.2 234.45 L-64.0 231.75 -79.5 225.7 -81.4 224.65 -81.75 224.45 -82.35 224.35 -82.4 224.3 -82.75 223.95 -83.0 223.95 -83.35 223.95 -83.35 223.2 -83.5 222.05 -83.55 221.85 -83.45 221.6 Q-83.4 221.35 -83.05 221.35 L-83.0 221.3 -81.8 221.4 -81.75 221.4 -81.45 221.55 -63.1 228.8 -56.1 231.85 -54.85 232.3 -1.2 251.85 47.15 231.45 72.95 220.7 73.2 220.4 74.65 219.8 75.95 218.45 76.0 218.7 76.3 218.55 76.95 218.3 76.95 218.15 77.55 218.2 77.7 218.05 Q78.2 217.65 78.95 217.45 L80.1 216.85 80.5 216.85 M80.75 224.75 L81.2 225.2 80.85 225.9 79.5 227.55 78.95 228.25 Q76.65 229.25 74.45 230.45 L71.2 232.05 70.45 232.75 69.45 233.55 68.3 233.35 67.95 233.1 45.2 245.6 37.85 248.35 36.65 247.95 Q19.5 258.8 -1.4 266.45 L-16.8 262.35 -37.65 252.45 -39.45 252.65 -40.35 252.5 -41.3 251.95 -41.6 251.75 Q-41.75 251.6 -41.9 251.6 L-46.05 247.9 -48.15 248.45 -59.55 243.4 -82.2 229.6 -79.55 228.4 -60.3 238.4 -58.2 238.15 -26.8 251.4 -2.9 260.5 Q8.35 258.55 18.6 252.8 23.6 249.95 28.9 247.5 39.3 242.75 49.45 237.5 L70.95 228.8 73.25 227.5 74.95 226.75 75.8 226.05 76.0 226.1 76.5 225.85 77.5 225.6 77.85 225.45 79.0 224.85 79.75 224.45 79.8 224.4 79.85 224.55 80.7 224.7 80.75 224.75 M-79.15 -203.6 L-79.05 -204.1 -79.05 -204.0 -79.1 -203.85 -79.15 -203.6 M-84.15 -212.55 L-84.3 -212.35 Q-86.0 -210.4 -86.4 -207.4 L-87.0 -206.4 -87.1 -205.3 -87.1 -205.15 -87.15 -204.25 -85.85 -201.1 -85.3 -200.0 Q-84.45 -197.2 -83.85 -197.2 -83.45 -197.2 -83.1 -197.5 L-82.6 -197.05 -83.4 -192.65 -82.9 -189.3 -85.1 -190.05 -88.25 -197.5 -88.35 -197.6 -88.5 -201.05 Q-89.35 -201.45 -89.5 -203.95 L-89.45 -204.65 Q-89.35 -205.95 -88.85 -207.3 L-88.9 -208.0 -88.9 -208.1 -88.85 -208.1 -88.6 -208.35 -88.75 -208.1 -88.65 -207.85 -88.45 -208.3 -88.3 -208.55 -87.45 -210.1 -86.8 -211.15 Q-84.75 -214.05 -84.2 -212.9 L-84.2 -212.85 -84.15 -212.55 M-80.9 -159.35 L-81.1 -159.1 -80.9 -159.4 -80.9 -159.35 M-80.9 -154.05 L-80.9 -154.0 -81.1 -153.7 -80.9 -154.05 M-81.3 -137.65 L-81.45 -137.5 -81.3 -144.1 -81.3 -137.65" fill="#a53f00" fill-rule="evenodd" stroke="none"/>
    <path d="M-82.2 229.6 L-82.8 229.35 -82.6 228.5 -82.0 228.55 -81.65 228.5 -81.5 228.25 -81.3 227.9 -81.0 227.6 -80.4 228.0 -79.0 228.1 -78.6 227.9 -78.4 228.0 -77.15 228.25 -75.5 228.45 Q-75.25 228.45 -75.0 228.25 L-75.0 227.9 -75.25 227.5 -78.8 226.05 -79.5 225.7 -64.0 231.75 -58.2 238.15 -60.3 238.4 -79.55 228.4 -82.2 229.6 M76.55 194.1 L77.7 218.05 77.55 218.2 76.95 218.15 76.95 218.3 76.3 218.55 76.0 218.7 75.95 218.45 74.65 219.8 73.2 220.4 72.95 220.7 47.15 231.45 46.35 230.7 44.95 230.6 44.95 229.85 45.2 229.15 Q39.5 226.45 33.95 230.95 L30.4 230.5 31.7 227.4 27.95 224.15 26.2 224.9 23.95 224.15 22.3 225.7 22.2 223.15 19.25 222.2 18.45 220.4 Q15.95 219.55 15.7 221.65 L15.7 222.05 15.55 222.35 15.4 222.5 15.3 222.6 15.2 222.15 15.2 219.15 Q13.35 217.0 11.65 219.4 L11.2 218.15 7.6 219.05 6.2 217.15 3.7 215.9 2.45 214.4 -0.65 216.0 -1.65 218.8 Q-2.1 217.0 -3.5 217.95 L-4.75 218.05 Q-6.55 216.75 -8.05 218.4 L-8.3 219.3 -8.6 219.9 -8.8 220.0 -9.8 219.9 Q-10.5 217.4 -12.15 219.6 L-11.8 221.9 -16.7 219.65 -17.2 221.65 -23.05 216.4 -24.3 217.65 -23.85 220.95 -26.05 220.15 -27.35 220.8 -30.95 219.9 -30.6 223.7 -36.1 222.15 -34.95 225.1 -37.2 226.6 -36.8 227.75 -36.85 227.8 -37.25 228.1 -40.65 227.5 Q-42.45 227.3 -42.1 228.8 L-41.9 229.3 Q-44.1 231.6 -48.8 230.4 L-50.3 231.4 Q-54.2 229.3 -54.95 231.9 L-54.85 232.3 -56.1 231.85 Q-56.1 230.6 -58.15 229.7 -60.2 228.8 -63.1 228.8 L-81.45 221.55 -81.75 221.4 -81.8 221.4 Q-82.15 204.5 -81.05 187.55 -79.8 168.4 -80.15 149.15 -80.25 142.65 -79.3 136.4 -79.05 134.9 -79.05 133.4 -78.95 113.7 -77.7 94.45 L-76.55 78.2 -76.45 76.4 Q-76.1 57.25 -74.3 38.6 -73.8 33.4 -73.65 28.15 L-73.2 19.95 Q-72.25 9.3 -72.8 -1.85 L-73.8 -2.6 -73.8 -35.5 -73.75 -35.5 -72.7 -35.5 68.65 -35.5 69.5 -35.5 Q69.85 -27.35 69.7 -19.1 L70.7 -17.6 Q70.7 4.55 70.85 26.55 L70.75 33.4 Q70.05 65.15 71.25 96.6 L71.3 98.9 Q71.7 118.25 72.55 137.7 L73.25 160.4 73.4 165.7 73.95 176.3 Q74.35 182.95 75.45 189.2 75.75 191.05 75.7 192.9 L76.55 194.1 M61.5 229.45 L73.75 223.55 74.75 223.6 73.5 224.05 73.1 224.45 72.15 225.0 Q70.3 225.8 69.35 227.1 L69.65 227.35 70.5 227.6 71.75 227.0 73.5 225.85 74.75 225.6 75.1 225.95 75.8 226.05 74.95 226.75 73.25 227.5 70.95 228.8 49.45 237.5 Q55.1 234.2 61.05 231.3 62.85 230.5 61.5 229.45 M76.75 222.35 L76.95 222.2 77.7 222.0 76.75 222.35" fill="url(#gradient0)" fill-rule="evenodd" stroke="none"/>
    <path d="M-85.3 -200.0 L-85.85 -201.1 -85.6 -201.15 -85.3 -200.0" fill="#ffffcc" fill-rule="evenodd" stroke="none"/>
    <path d="M-81.5 -135.3 L-81.45 -137.5 -81.3 -137.65 -81.5 -135.3 M-81.5 -142.2 L-81.45 -144.25 -81.3 -144.4 -81.3 -144.1 -81.35 -143.65 -81.35 -143.5 -81.5 -142.2 M-81.5 -147.75 L-81.45 -149.65 -81.35 -149.75 -81.35 -149.1 -81.5 -147.75 M75.2 -175.45 L75.55 -174.4 75.35 -174.35 75.2 -175.45" fill="#ff9933" fill-rule="evenodd" stroke="none"/>
    <path d="M-80.9 -163.7 L-80.85 -163.75 -80.9 -163.65 -80.9 -163.7 M75.6 -178.3 L75.8 -174.45 75.55 -174.4 75.2 -175.45 75.5 -177.6 75.55 -177.7 75.6 -178.3 M-80.9 -159.4 L-80.85 -159.45 -80.9 -159.35 -80.9 -159.4 M-80.9 -154.0 L-80.9 -154.05 -80.85 -154.1 -80.9 -154.0" fill="#cc6600" fill-rule="evenodd" stroke="none"/>
    <path d="M67.2 -184.5 L67.2 -184.8 67.45 -185.15 67.2 -184.5 M49.5 -124.7 L49.5 -124.65 49.3 -124.05 49.5 -124.7 M69.7 -125.05 L69.7 -51.35 70.7 -50.1 70.7 -47.0 70.65 -46.85 69.9 -45.35 69.8 -44.6 70.45 -35.5 71.05 -35.5 71.1 -30.6 71.2 -27.55 71.95 -14.1 Q73.3 19.9 72.85 54.15 72.45 87.1 73.35 119.8 L73.65 127.25 73.65 133.65 Q73.25 141.7 74.35 149.7 74.85 153.45 74.95 156.9 75.45 175.6 76.55 194.1 L75.7 192.9 Q75.75 191.05 75.45 189.2 74.35 182.95 73.95 176.3 L73.4 165.7 73.25 160.4 72.55 137.7 Q71.7 118.25 71.3 98.9 L71.25 96.6 Q70.05 65.15 70.75 33.4 L70.85 26.55 Q70.7 4.55 70.7 -17.6 L69.7 -19.1 Q69.85 -27.35 69.5 -35.5 L68.65 -35.5 68.2 -42.55 67.9 -48.85 67.85 -50.9 67.65 -57.45 67.6 -60.45 68.05 -60.45 67.95 -71.35 68.15 -75.55 Q68.9 -89.3 68.85 -103.15 L68.8 -104.85 68.8 -105.95 68.45 -119.65 Q68.4 -120.5 68.5 -121.25 L68.65 -122.15 68.65 -122.3 68.65 -122.35 Q68.95 -123.8 69.7 -125.05" fill="#c60000" fill-rule="evenodd" stroke="none"/>
    <path d="M14.6 -67.85 L13.85 -67.0 Q12.45 -65.5 10.5 -64.95 L9.65 -64.25 Q7.7 -62.85 5.5 -62.15 L5.25 -61.85 7.75 -62.6 Q9.7 -63.2 10.9 -64.3 L11.1 -64.45 21.85 -69.55 23.35 -70.3 Q26.95 -72.1 29.9 -74.4 L33.35 -76.3 Q34.75 -76.8 35.85 -77.55 L38.05 -79.1 38.85 -79.7 Q40.65 -80.5 42.3 -81.5 44.2 -82.55 45.6 -83.9 46.7 -84.4 47.45 -85.1 L49.0 -86.25 49.1 -86.5 49.25 -86.8 49.45 -87.1 49.6 -87.3 49.9 -87.4 52.05 -91.8 53.05 -93.9 Q57.1 -102.75 59.2 -110.85 L61.15 -118.15 62.45 -123.0 64.05 -129.0 64.85 -132.15 Q65.35 -133.7 66.1 -133.5 L66.15 -133.5 66.2 -134.0 67.1 -136.75 67.1 -137.25 67.2 -138.1 67.5 -138.95 67.65 -139.85 68.1 -141.65 68.6 -143.45 68.6 -143.9 68.65 -144.8 69.7 -148.05 69.7 -133.85 69.25 -132.0 69.25 -131.95 68.5 -129.25 65.8 -121.25 62.6 -113.5 60.7 -109.3 60.5 -108.6 58.25 -101.25 58.2 -101.05 58.2 -101.0 56.05 -94.8 56.0 -94.6 55.75 -94.1 55.0 -92.05 53.4 -89.9 50.85 -85.35 50.6 -85.3 50.2 -85.0 49.5 -84.4 49.3 -84.05 46.95 -81.9 45.2 -80.35 45.1 -80.3 43.5 -79.35 43.15 -79.2 42.0 -78.8 38.95 -76.55 36.5 -74.75 35.0 -74.2 34.2 -73.6 32.5 -72.55 31.4 -72.05 29.85 -71.15 28.85 -70.45 27.65 -69.9 13.05 -62.55 11.45 -61.7 5.4 -61.7 4.1 -61.5 -10.25 -61.4 -12.7 -62.1 -13.15 -62.4 -14.75 -62.65 -15.5 -63.25 -16.0 -63.65 -16.3 -63.75 -18.75 -64.15 -18.85 -64.3 Q-21.25 -66.05 -24.5 -66.6 L-24.7 -66.65 -25.25 -67.0 -25.25 -67.05 -25.4 -67.5 -26.0 -68.1 -28.95 -69.4 -29.6 -69.7 -31.0 -70.35 -32.75 -70.95 -33.5 -71.55 -34.0 -71.95 -34.3 -72.05 -36.75 -72.55 -37.55 -73.0 -40.0 -74.2 -42.1 -75.25 Q-43.5 -75.95 -45.0 -76.45 -46.5 -77.55 -48.4 -78.35 L-50.05 -79.25 -50.25 -79.35 -50.6 -79.8 -51.25 -80.4 -51.25 -80.55 Q-52.45 -80.85 -55.15 -83.85 -55.95 -86.3 -59.4 -90.9 -61.95 -94.3 -63.4 -95.35 L-66.15 -99.8 Q-67.2 -101.7 -69.8 -108.45 L-70.8 -111.15 -70.8 -103.15 -70.85 -92.6 -70.9 -92.35 Q-71.6 -89.5 -71.45 -84.65 L-71.7 -77.25 Q-71.85 -72.65 -71.65 -69.8 L-71.65 -61.65 -71.7 -60.45 -71.2 -60.45 -71.2 -57.45 -71.25 -54.65 -71.4 -50.9 -71.55 -48.85 -71.75 -47.2 -72.7 -35.5 -73.75 -35.5 -73.2 -60.45 -74.35 -60.45 -74.05 -86.55 Q-73.85 -87.65 -73.75 -90.2 L-73.6 -92.45 -73.4 -93.85 -72.95 -124.1 -72.5 -123.2 -72.35 -122.3 -72.25 -121.4 -72.25 -121.25 -72.25 -120.5 -72.25 -119.6 -72.1 -119.1 -71.2 -117.65 -70.8 -116.85 -68.05 -111.0 -66.0 -106.1 -63.95 -101.25 Q-61.15 -95.5 -58.4 -91.3 L-53.75 -86.15 -53.25 -85.6 -51.3 -83.45 -50.5 -82.95 -47.5 -81.35 -46.75 -81.0 -46.6 -80.75 -46.4 -80.4 -44.75 -79.85 -43.4 -79.35 -43.15 -79.2 -42.8 -79.0 -40.45 -77.85 Q-38.3 -76.85 -36.0 -76.1 L-34.0 -74.9 -32.0 -73.85 -30.6 -73.2 -28.75 -72.15 -24.35 -70.5 -22.85 -69.8 -22.25 -69.4 -22.05 -69.3 -12.75 -65.7 -10.3 -65.3 -15.75 -68.2 Q-16.15 -68.95 -16.8 -69.5 -12.1 -67.6 -10.5 -67.3 -9.25 -66.5 -6.35 -65.25 -2.75 -63.75 -0.45 -63.25 L1.2 -62.55 Q1.7 -62.55 1.95 -63.05 L2.0 -63.05 Q4.9 -63.05 14.6 -67.85 M80.7 219.9 L80.75 219.9 81.1 220.25 81.1 220.8 81.1 221.15 81.1 221.9 81.1 222.15 81.1 222.65 81.1 222.7 81.1 224.05 81.1 224.45 80.95 224.65 80.75 224.7 80.7 224.7 79.85 224.55 79.8 224.4 79.75 224.45 79.0 224.85 77.85 225.45 77.5 225.6 76.5 225.85 76.0 226.1 75.8 226.05 75.1 225.95 74.75 225.6 73.5 225.85 71.75 227.0 70.5 227.6 69.65 227.35 69.35 227.1 Q70.3 225.8 72.15 225.0 L73.1 224.45 73.5 224.05 74.75 223.6 75.7 223.1 76.6 222.4 76.75 222.35 77.7 222.0 78.1 221.85 78.2 221.8 78.35 221.65 79.1 220.9 79.25 220.8 79.5 220.9 Q80.3 220.6 80.7 219.9 M-82.9 228.35 L-82.9 227.35 -83.0 226.6 -83.15 226.45 -83.15 226.25 -83.15 225.85 -83.15 225.7 -83.2 225.65 -83.35 225.45 -83.4 225.4 -83.4 224.7 -83.35 223.95 -83.0 223.95 -82.75 223.95 -82.4 224.3 -82.35 224.35 -81.75 224.45 -81.4 224.65 -79.5 225.7 -78.8 226.05 -75.25 227.5 -75.0 227.9 -75.0 228.25 Q-75.25 228.45 -75.5 228.45 L-77.15 228.25 -78.4 228.0 -78.6 227.9 -79.0 228.1 -80.4 228.0 -81.0 227.6 -81.3 227.9 -81.5 228.25 -81.65 228.5 -82.0 228.55 -82.6 228.5 -82.85 228.4 -82.9 228.35 M-34.0 -77.35 L-34.5 -77.45 -35.3 -78.0 -34.0 -77.35 M-70.35 -160.95 L-73.8 -176.5 -74.35 -181.65 -70.8 -166.75 -70.35 -163.4 -70.35 -160.95 M-61.35 -104.55 L-61.65 -105.5 -61.3 -104.7 -61.25 -104.3 -61.35 -104.55 M-63.1 228.8 Q-60.2 228.8 -58.15 229.7 -56.1 230.6 -56.1 231.85 L-63.1 228.8 M-54.85 232.3 L-54.95 231.9 Q-54.2 229.3 -50.3 231.4 L-48.8 230.4 Q-44.1 231.6 -41.9 229.3 L-42.1 228.8 Q-42.45 227.3 -40.65 227.5 L-37.25 228.1 -36.85 227.8 -36.8 227.75 -37.2 226.6 -34.95 225.1 -36.1 222.15 -30.6 223.7 -30.95 219.9 -27.35 220.8 -26.05 220.15 -23.85 220.95 -24.3 217.65 -23.05 216.4 -17.2 221.65 -16.7 219.65 -11.8 221.9 -12.15 219.6 Q-10.5 217.4 -9.8 219.9 L-8.8 220.0 -8.6 219.9 -8.3 219.3 -8.05 218.4 Q-6.55 216.75 -4.75 218.05 L-3.5 217.95 Q-2.1 217.0 -1.65 218.8 L-0.65 216.0 2.45 214.4 3.7 215.9 6.2 217.15 7.6 219.05 11.2 218.15 11.65 219.4 Q13.35 217.0 15.2 219.15 L15.2 222.15 15.3 222.6 15.4 222.5 15.55 222.35 15.7 222.05 15.7 221.65 Q15.95 219.55 18.45 220.4 L19.25 222.2 22.2 223.15 22.3 225.7 23.95 224.15 26.2 224.9 27.95 224.15 31.7 227.4 30.4 230.5 33.95 230.95 Q39.5 226.45 45.2 229.15 L44.95 229.85 44.95 230.6 46.35 230.7 47.15 231.45 -1.2 251.85 -54.85 232.3 M-58.2 238.15 L-64.0 231.75 -58.2 234.45 Q-42.85 240.55 -27.15 246.1 -24.25 247.05 -21.5 248.35 -12.1 252.4 -2.25 253.4 L-0.2 253.2 2.95 252.2 Q26.45 244.95 48.2 233.4 L59.95 229.15 61.5 229.45 Q62.85 230.5 61.05 231.3 55.1 234.2 49.45 237.5 39.3 242.75 28.9 247.5 23.6 249.95 18.6 252.8 8.35 258.55 -2.9 260.5 L-26.8 251.4 -58.2 238.15" fill="#690000" fill-rule="evenodd" stroke="none"/>
    <path d="M-80.85 -163.75 L-80.8 -168.95 -81.3 -169.9 -81.6 -172.3 -81.65 -177.1 -81.65 -180.65 -81.7 -181.15 Q-82.15 -183.2 -84.0 -184.15 -87.95 -186.15 -90.7 -191.05 L-93.35 -195.75 -93.35 -197.4 -93.35 -200.25 -93.4 -200.8 -93.45 -202.7 -93.45 -203.25 -93.45 -203.9 -93.45 -204.05 Q-93.55 -206.15 -92.7 -207.95 L-92.2 -209.1 Q-91.25 -211.6 -89.35 -213.9 -88.75 -214.15 -88.25 -214.55 -83.65 -218.65 -77.6 -216.65 L-75.5 -214.15 -68.1 -215.0 -59.9 -215.0 Q-49.7 -216.8 -39.0 -215.45 L-39.0 -215.6 -35.35 -215.5 -32.9 -215.7 -28.55 -215.8 -5.65 -215.8 14.95 -216.5 15.0 -216.6 20.55 -216.3 20.95 -216.45 21.0 -216.6 39.5 -216.35 50.1 -216.1 51.1 -216.15 52.0 -216.6 53.5 -216.35 53.7 -216.15 72.6 -216.25 73.95 -217.75 73.95 -217.9 74.4 -217.9 75.3 -217.95 76.2 -217.95 76.3 -217.95 78.25 -217.8 79.9 -217.4 Q85.55 -215.9 88.55 -209.9 L89.2 -208.5 89.45 -205.9 90.25 -204.4 90.2 -203.4 90.25 -203.3 90.25 -203.15 90.2 -202.15 90.2 -202.1 90.25 -201.95 Q90.05 -194.35 85.65 -188.3 L77.55 -183.1 76.9 -180.25 76.25 -181.15 Q76.45 -180.0 75.8 -178.6 L75.75 -178.5 75.6 -178.3 75.55 -177.7 75.5 -177.6 75.2 -175.45 75.35 -174.35 75.55 -174.4 75.8 -174.45 76.45 -174.7 76.4 -166.8 76.1 -164.05 75.8 -150.05 76.45 -149.05 76.55 -142.6 77.2 -141.55 77.2 -48.35 77.7 -47.6 77.7 -35.4 77.85 -33.3 Q78.0 -28.1 78.7 -23.05 79.35 -17.95 79.1 -12.8 78.7 -5.35 79.6 2.05 80.0 5.05 79.8 8.2 78.9 20.65 78.95 33.4 78.95 34.1 78.2 33.85 L78.2 46.3 Q79.85 63.55 79.55 80.9 79.25 99.5 80.15 117.9 80.75 129.4 81.7 141.1 L81.85 144.15 Q82.45 174.0 84.0 204.4 L84.15 207.4 Q84.35 215.85 85.4 223.9 L85.7 228.8 -0.05 271.6 Q-5.8 272.25 -11.15 269.8 -14.35 268.35 -17.15 266.7 -20.25 265.0 -23.7 264.2 -26.05 263.75 -28.25 262.5 -29.45 261.85 -30.8 261.55 L-87.55 234.15 -89.8 230.6 -86.3 122.4 -85.65 121.3 -84.3 83.4 -83.3 81.95 -83.3 61.4 -82.3 59.9 -80.3 15.65 -80.5 -35.5 -80.55 -35.5 -80.55 -35.6 -80.75 -35.65 -81.1 -36.05 -81.15 -36.3 -81.1 -37.2 -80.55 -37.75 -80.6 -44.35 -80.55 -45.15 -80.65 -50.9 -80.75 -50.9 -80.85 -50.95 -80.9 -52.5 -80.7 -52.75 -80.75 -60.45 -80.85 -60.45 -81.5 -135.3 -81.3 -137.65 -81.3 -144.1 -81.45 -137.5 -81.5 -142.2 -81.35 -143.5 -81.35 -143.65 -81.3 -144.1 -81.3 -144.4 -81.3 -156.5 -81.2 -163.25 -81.1 -163.4 -80.9 -163.65 -80.85 -163.75 M-81.45 -144.25 L-81.5 -147.75 -81.35 -149.1 -81.45 -144.25 M76.15 -212.05 L76.05 -212.05 75.75 -211.75 72.8 -211.75 70.75 -211.9 70.25 -211.95 70.2 -211.95 69.6 -211.8 51.5 -211.8 46.6 -211.2 43.35 -211.0 25.25 -211.0 22.1 -211.3 1.1 -211.25 Q-0.75 -210.5 -4.3 -210.45 L-9.75 -210.45 -17.9 -210.45 -18.8 -210.15 -38.0 -210.15 -38.75 -210.3 -38.9 -210.35 -41.8 -210.8 -42.75 -211.0 -47.05 -211.25 -51.2 -211.05 -51.9 -211.0 -53.75 -210.9 -55.35 -210.7 -74.5 -210.7 -75.0 -210.05 -75.45 -210.0 Q-77.3 -209.7 -78.1 -208.2 L-78.6 -206.15 -79.0 -204.25 -79.05 -204.1 -79.15 -203.6 -79.15 -203.55 -79.8 -199.4 -79.8 -197.3 -79.8 -196.9 -79.8 -195.65 -79.6 -191.9 -79.55 -191.6 -79.55 -191.55 -79.5 -191.25 -79.35 -189.7 -79.8 -189.25 -79.35 -189.1 -79.35 -186.75 -78.75 -185.95 -78.35 -184.6 -78.3 -180.35 -77.3 -178.6 -76.3 -168.9 -72.15 -151.25 -72.15 -151.15 -72.05 -151.0 -71.85 -150.25 -71.65 -149.2 -71.65 -149.0 -71.65 -148.5 -71.45 -148.3 -70.65 -143.8 -70.65 -143.6 -70.6 -143.55 -69.75 -138.5 -69.65 -137.95 -69.65 -137.75 -69.6 -137.7 -67.35 -126.05 -65.65 -119.3 Q-63.8 -110.9 -60.0 -101.95 -57.0 -95.05 -54.75 -91.9 -50.7 -86.3 -43.5 -82.2 -40.85 -80.7 -36.8 -78.7 L-35.3 -78.0 -34.5 -77.45 -34.0 -77.35 -27.9 -74.4 Q-21.1 -71.3 -16.8 -69.5 -16.15 -68.95 -15.75 -68.2 L-10.3 -65.3 -12.75 -65.7 -22.05 -69.3 -22.25 -69.4 -22.85 -69.8 -24.35 -70.5 -28.75 -72.15 -30.6 -73.2 -32.0 -73.85 -34.0 -74.9 -36.0 -76.1 Q-38.3 -76.85 -40.45 -77.85 L-42.8 -79.0 -43.15 -79.2 -43.4 -79.35 -44.75 -79.85 -46.4 -80.4 -46.6 -80.75 -46.75 -81.0 -47.5 -81.35 -50.5 -82.95 -51.3 -83.45 -53.25 -85.6 -53.75 -86.15 -58.4 -91.3 Q-61.15 -95.5 -63.95 -101.25 L-66.0 -106.1 -68.05 -111.0 -70.8 -116.85 -71.2 -117.65 -72.1 -119.1 -72.25 -119.6 -72.25 -120.5 -72.25 -121.25 -72.25 -121.4 -72.35 -122.3 -72.5 -123.2 -72.95 -124.1 -73.05 -124.45 -73.2 -125.0 -73.25 -126.75 -73.5 -127.7 -73.8 -128.5 -74.25 -129.45 -74.35 -130.3 -74.5 -131.2 -74.8 -132.1 -75.25 -133.0 -75.25 -133.9 -75.35 -134.8 -75.5 -135.65 -75.6 -136.0 -75.4 -121.85 -75.4 -120.85 -75.35 -119.65 -75.55 -87.05 -76.05 -60.45 -76.45 -60.45 -76.6 -57.65 -76.6 -57.45 -77.1 -50.9 -77.25 -49.6 -77.3 -49.5 -77.4 -48.85 Q-77.95 -44.45 -77.6 -39.8 L-77.3 -35.5 -76.8 -35.5 -76.3 -16.6 -77.3 -15.35 Q-76.1 5.6 -76.6 26.4 -77.0 42.25 -77.9 58.15 L-78.85 73.1 -78.9 74.7 Q-78.75 82.75 -80.8 90.15 L-84.8 211.65 -84.2 216.8 Q-83.75 217.45 -83.8 218.25 L-83.9 219.75 -83.65 221.65 -83.65 221.7 -83.55 221.85 -83.5 222.05 -83.35 223.2 -83.35 223.95 -83.4 224.7 -83.4 225.4 -83.35 225.45 -83.2 225.65 -83.15 226.25 -83.15 226.45 -83.0 226.6 -82.9 227.35 -82.9 228.35 -82.8 229.35 -82.2 229.6 -59.55 243.4 -48.15 248.45 -46.05 247.9 -41.9 251.6 Q-41.75 251.6 -41.6 251.75 L-41.3 251.95 -40.35 252.5 -39.45 252.65 -37.65 252.45 -16.8 262.35 -1.4 266.45 Q19.5 258.8 36.65 247.95 L37.85 248.35 45.2 245.6 67.95 233.1 68.3 233.35 69.45 233.55 70.45 232.75 71.2 232.05 74.45 230.45 Q76.65 229.25 78.95 228.25 L79.5 227.55 80.85 225.9 81.2 225.2 80.75 224.75 80.75 224.7 80.95 224.65 81.1 224.45 81.1 224.05 81.1 222.7 81.1 222.65 81.1 222.15 81.1 221.9 81.1 221.15 81.1 220.8 81.1 220.25 80.75 219.9 80.7 219.9 81.1 219.15 81.1 218.75 81.1 218.0 81.1 217.25 80.75 216.85 80.5 216.85 79.35 188.45 79.25 186.15 78.3 158.6 77.9 155.9 77.8 155.15 Q78.1 142.2 76.85 129.4 75.7 117.8 75.5 106.15 L75.5 89.65 Q75.7 77.3 75.25 64.9 74.7 50.75 74.7 36.4 L75.7 35.4 74.7 -23.6 73.7 -25.1 73.55 -35.5 73.35 -35.5 73.05 -60.45 73.1 -60.45 73.0 -63.05 Q72.95 -65.0 73.2 -69.1 L72.9 -71.75 72.75 -72.25 71.7 -157.6 69.7 -148.05 68.65 -144.8 68.6 -143.9 68.6 -143.45 68.1 -141.65 67.65 -139.85 67.5 -138.95 67.2 -138.1 67.1 -137.25 67.1 -136.75 66.2 -134.0 66.15 -133.5 66.1 -133.5 Q65.35 -133.7 64.85 -132.15 L64.05 -129.0 62.45 -123.0 61.15 -118.15 59.2 -110.85 Q57.1 -102.75 53.05 -93.9 L52.05 -91.8 49.9 -87.4 49.6 -87.3 49.45 -87.1 49.25 -86.8 49.1 -86.5 49.0 -86.25 47.45 -85.1 Q46.7 -84.4 45.6 -83.9 44.2 -82.55 42.3 -81.5 40.65 -80.5 38.85 -79.7 L38.05 -79.1 35.85 -77.55 Q34.75 -76.8 33.35 -76.3 L29.9 -74.4 Q26.95 -72.1 23.35 -70.3 L21.85 -69.55 11.1 -64.45 10.9 -64.3 Q9.7 -63.2 7.75 -62.6 L5.25 -61.85 5.5 -62.15 Q7.7 -62.85 9.65 -64.25 L10.5 -64.95 Q12.45 -65.5 13.85 -67.0 L14.6 -67.85 14.9 -68.0 22.8 -72.1 31.65 -76.95 32.85 -77.65 38.65 -80.45 Q40.85 -81.55 42.5 -82.7 L43.65 -83.6 Q49.4 -88.25 51.75 -92.3 L52.65 -94.3 53.15 -96.4 54.35 -101.3 54.6 -101.85 54.65 -102.2 54.75 -102.65 55.0 -103.15 55.1 -103.4 55.35 -104.3 55.6 -105.2 55.6 -105.65 55.6 -106.1 56.1 -108.05 56.65 -109.55 57.05 -110.95 Q59.45 -116.7 61.15 -123.3 62.9 -130.05 65.0 -142.85 L68.7 -162.25 70.55 -172.65 70.9 -174.85 Q71.75 -175.5 72.15 -181.25 L72.25 -182.75 Q72.7 -184.9 73.05 -190.15 L73.4 -198.95 73.35 -203.7 73.45 -204.0 73.35 -204.15 73.35 -204.7 73.3 -205.2 72.9 -209.7 Q74.65 -206.0 75.1 -201.55 L75.3 -193.5 Q75.05 -191.0 75.2 -189.9 L75.1 -187.65 Q75.05 -186.35 75.7 -186.35 L75.85 -186.4 75.8 -186.05 78.6 -189.2 79.9 -189.65 Q81.7 -190.25 83.1 -193.85 L83.15 -193.9 83.3 -194.25 Q85.5 -198.9 85.5 -202.75 L85.5 -203.6 85.5 -203.85 85.5 -204.95 86.15 -206.4 86.15 -207.0 Q85.85 -209.65 83.45 -212.35 82.35 -213.5 81.75 -213.5 L81.4 -213.75 80.4 -214.05 Q79.3 -214.35 78.15 -212.95 L78.1 -212.85 77.9 -212.85 76.45 -212.45 76.4 -212.4 76.2 -212.1 76.15 -212.05 M76.2 -195.35 L76.2 -195.8 76.3 -195.75 76.35 -195.4 76.2 -195.35 M72.35 -205.35 L72.4 -205.45 72.4 -205.15 72.35 -205.35 M1.3 -64.5 L1.25 -64.4 0.75 -64.65 1.3 -64.5 M39.85 -183.8 Q41.6 -186.6 40.1 -184.0 L39.85 -183.8 M-84.15 -212.55 L-84.2 -212.85 -84.2 -212.9 Q-84.75 -214.05 -86.8 -211.15 L-87.45 -210.1 -88.3 -208.55 -88.6 -208.35 -88.85 -208.1 -88.9 -208.1 -88.9 -208.0 -88.85 -207.3 Q-89.35 -205.95 -89.45 -204.65 L-89.5 -203.95 Q-89.35 -201.45 -88.5 -201.05 L-88.35 -197.6 -88.35 -197.55 -88.25 -197.5 -85.1 -190.05 -82.9 -189.3 -83.4 -192.65 -82.6 -197.05 -82.75 -197.85 Q-82.25 -198.65 -81.9 -200.2 L-81.4 -203.95 -80.55 -207.05 Q-79.85 -207.75 -79.25 -209.45 -78.5 -211.65 -78.5 -212.75 L-78.5 -213.0 Q-78.55 -215.0 -79.85 -214.0 L-80.05 -214.15 -80.2 -214.25 Q-81.25 -214.85 -82.75 -213.8 L-83.05 -213.55 -84.15 -212.55 M-37.8 -193.65 L-36.85 -193.6 -39.05 -193.7 -39.05 -193.75 -37.8 -193.65 M-80.9 -159.35 L-80.85 -159.45 -80.9 -159.4 -81.1 -159.1 -80.9 -159.35 M-80.9 -154.0 L-80.85 -154.1 -80.9 -154.05 -81.1 -153.7 -80.9 -154.0 M-61.35 -104.55 L-61.25 -104.3 -61.3 -104.7 -61.65 -105.5 -61.35 -104.55" fill="#330000" fill-rule="evenodd" stroke="none"/>
    <path d="M-59.75 -129.15 L-60.05 -128.95 -61.05 -132.7 -61.05 -132.75 -61.0 -132.75 -60.5 -132.75 -59.75 -131.8 -59.75 -130.9 -59.75 -130.0 -59.75 -129.15 M-67.7 -155.9 L-67.75 -155.9 -67.75 -155.95 -67.7 -155.9 M49.25 -98.9 L49.1 -98.75 49.0 -98.65 49.25 -98.9" fill="#960000" fill-rule="evenodd" stroke="none"/>
    <path d="M58.25 -101.25 L58.25 -101.2 58.2 -101.05 58.25 -101.25 M56.0 -94.6 L55.85 -94.1 55.75 -94.1 56.0 -94.6 M11.45 -61.7 L13.65 -61.7 25.1 -62.1 Q29.3 -62.6 29.3 -60.9 L29.3 -60.45 67.6 -60.45 67.65 -57.45 67.85 -50.9 67.9 -48.85 68.2 -42.55 68.65 -35.5 -72.7 -35.5 -71.75 -47.2 -71.55 -48.85 -71.4 -50.9 -71.25 -54.65 -71.2 -57.45 -71.2 -60.45 -69.95 -60.45 -63.65 -60.45 -25.8 -60.45 -22.8 -61.35 -10.25 -61.4 4.1 -61.5 5.4 -61.7 11.45 -61.7" fill="url(#gradient1)" fill-rule="evenodd" stroke="none"/>
    <path d="M81.75 -213.5 Q82.35 -213.5 83.45 -212.35 85.85 -209.65 86.15 -207.0 L86.15 -206.4 85.5 -204.95 85.1 -204.45 84.7 -203.95 84.55 -203.8 83.5 -203.15 Q82.8 -203.15 82.3 -203.55 L82.0 -203.8 Q81.15 -204.8 80.85 -207.0 80.65 -208.4 80.7 -209.75 L80.75 -210.9 Q80.75 -212.2 81.0 -212.85 81.25 -213.5 81.75 -213.5 M-79.85 -214.0 Q-78.55 -215.0 -78.5 -213.0 L-78.5 -212.75 Q-78.5 -211.65 -79.25 -209.45 -79.85 -207.75 -80.55 -207.05 L-80.95 -206.75 -81.5 -206.65 -81.6 -206.65 Q-82.8 -206.7 -82.85 -208.3 L-82.8 -208.75 -82.55 -210.15 -82.55 -210.3 -82.1 -211.35 -80.9 -213.1 -80.65 -213.35 -79.85 -214.0" fill="#ffffff" fill-rule="evenodd" stroke="none"/>
    <path d="M57.95 -163.45 L58.0 -163.4 58.15 -162.9 58.35 -162.55 58.6 -162.05 58.6 -161.55 58.6 -161.3 58.6 -161.2 58.65 -161.15 58.75 -160.85 58.75 -160.8 58.75 -160.7 59.0 -160.35 59.05 -160.2 59.1 -159.85 59.5 -159.35 59.7 -159.1 59.75 -158.85 60.0 -158.0 60.75 -157.1 61.4 -156.35 61.95 -156.0 62.85 -155.0 63.25 -153.7 63.3 -152.45 62.9 -148.7 63.05 -145.1 Q63.05 -143.45 59.7 -128.85 L59.6 -128.5 58.85 -125.2 56.85 -116.85 54.9 -110.0 52.7 -102.85 Q51.8 -99.55 48.5 -94.5 L48.05 -93.8 Q44.9 -89.1 43.15 -88.95 L40.35 -86.85 Q41.85 -88.15 41.85 -88.65 41.85 -89.45 40.7 -88.95 39.8 -88.6 38.15 -87.4 L33.75 -83.9 23.7 -77.8 Q18.15 -74.3 14.15 -71.95 L14.25 -72.25 14.1 -72.65 13.65 -72.9 13.05 -72.8 Q14.85 -74.3 14.85 -74.65 14.85 -76.2 12.15 -74.2 L8.7 -71.35 Q3.75 -68.2 1.9 -66.85 L1.5 -67.1 0.9 -66.9 0.9 -66.8 0.6 -66.9 0.2 -67.0 -5.75 -68.9 -7.7 -69.75 Q-12.15 -71.7 -16.35 -73.25 -25.8 -76.6 -37.95 -83.45 L-38.05 -83.5 Q-42.0 -85.7 -44.95 -87.7 L-44.9 -87.75 Q-44.5 -88.25 -44.5 -88.85 L-44.9 -89.55 -48.65 -95.15 Q-51.8 -100.0 -53.5 -103.65 L-54.75 -106.7 -55.1 -107.85 -57.1 -115.6 -59.05 -124.7 -60.05 -128.95 -59.75 -129.15 -59.45 -128.3 -58.75 -127.35 -58.0 -126.45 -57.85 -125.5 -57.75 -123.8 -57.75 -122.85 -57.2 -122.05 -56.5 -121.4 -56.25 -121.25 -55.5 -120.75 -54.75 -119.9 -54.6 -119.15 -54.1 -118.05 -53.75 -117.25 -53.65 -116.35 -53.05 -114.5 -52.75 -113.65 -52.65 -112.85 -52.05 -110.95 -51.75 -110.1 -51.5 -108.4 -50.5 -106.5 -49.75 -105.65 -49.75 -104.7 -49.75 -103.85 -49.35 -103.15 37.35 -103.15 37.6 -103.9 37.75 -104.7 38.5 -105.65 38.75 -106.5 39.0 -107.4 39.6 -108.4 39.85 -109.15 40.3 -109.9 41.0 -110.4 41.95 -110.3 43.05 -110.15 43.5 -111.2 44.4 -113.1 44.75 -113.95 44.8 -114.85 45.05 -115.7 45.5 -116.65 45.65 -117.55 45.75 -118.4 45.75 -119.3 Q45.75 -119.8 45.9 -119.9 46.85 -120.65 48.0 -121.1 L48.1 -121.25 48.45 -122.0 48.85 -122.8 49.1 -123.45 49.2 -123.8 49.3 -124.05 49.5 -124.65 49.5 -124.7 49.65 -126.5 49.75 -128.25 49.75 -129.15 50.05 -129.95 50.75 -130.9 50.85 -131.7 51.6 -133.65 51.75 -134.45 52.3 -135.1 52.55 -135.6 52.65 -136.3 52.75 -137.0 52.75 -137.75 52.75 -138.1 52.75 -138.15 52.75 -138.7 53.05 -139.5 53.15 -139.6 53.25 -139.85 53.75 -140.75 53.75 -141.35 53.75 -141.6 53.75 -142.2 53.75 -142.5 53.75 -143.15 53.9 -143.9 54.5 -144.95 54.65 -145.8 54.75 -147.6 54.75 -150.3 54.9 -151.05 Q55.25 -151.75 55.75 -152.15 L55.75 -152.35 Q55.75 -153.85 56.1 -155.3 56.5 -156.75 58.0 -156.6 L58.05 -156.55 57.75 -156.95 57.35 -157.45 57.35 -157.9 57.35 -158.3 57.35 -158.75 57.35 -158.8 57.2 -159.25 57.0 -159.65 56.85 -160.1 56.75 -160.6 56.7 -160.65 56.6 -160.7 56.35 -160.95 56.35 -161.05 56.3 -161.4 56.1 -161.9 55.85 -162.35 55.85 -162.8 55.85 -163.25 55.85 -163.7 56.05 -164.05 56.45 -164.35 56.5 -164.4 56.7 -164.35 56.75 -164.35 56.85 -164.35 57.1 -164.3 57.15 -164.3 57.25 -164.3 57.6 -163.85 57.95 -163.45 M58.75 -156.25 L58.65 -156.25 58.75 -156.15 58.75 -156.25 M49.25 -98.9 L49.25 -98.95 51.5 -104.35 Q54.5 -113.05 55.7 -118.9 57.05 -125.35 59.5 -135.1 61.35 -142.95 61.35 -148.05 L61.55 -150.95 61.7 -152.9 61.7 -153.1 61.35 -154.1 Q60.5 -154.15 59.5 -151.0 58.7 -148.4 58.35 -143.2 58.1 -140.05 56.75 -135.25 L54.65 -127.7 Q53.55 -123.25 49.3 -109.55 L46.25 -99.35 46.2 -99.25 45.75 -97.6 45.75 -97.5 45.55 -96.65 Q45.55 -95.95 45.75 -95.9 L46.3 -95.8 49.0 -98.65 48.95 -98.4 49.1 -98.75 49.25 -98.9 M44.5 -96.9 L44.25 -96.8 44.05 -96.65 Q43.35 -97.15 42.85 -96.4 L42.45 -95.25 42.5 -94.75 42.3 -94.2 41.95 -93.7 41.65 -93.1 Q41.65 -92.65 42.2 -92.65 43.05 -92.65 44.85 -96.5 44.85 -96.9 44.5 -96.9 M31.9 -95.65 L32.05 -95.8 28.1 -95.7 3.15 -95.25 -26.7 -94.15 -31.7 -93.85 -40.55 -93.1 -40.0 -92.7 -39.05 -92.35 -37.85 -91.7 -36.25 -90.65 -35.75 -90.3 -35.0 -90.45 -33.5 -90.65 Q-32.4 -89.65 -31.15 -88.85 L-28.0 -86.65 -26.5 -86.15 -25.0 -85.0 -24.5 -84.6 -24.15 -84.3 -23.75 -83.85 -23.9 -83.55 -24.1 -83.3 -24.75 -82.7 -23.05 -82.15 -21.5 -81.55 -20.75 -81.0 -20.0 -80.45 -19.1 -79.9 -19.0 -79.85 -18.75 -79.6 -18.2 -79.05 -17.9 -78.85 -16.0 -77.55 Q-13.85 -76.95 -12.05 -75.9 L-10.25 -74.75 -9.8 -74.2 -9.5 -73.6 -8.1 -72.95 -7.5 -72.55 -7.2 -72.35 Q-3.8 -71.2 -0.1 -70.65 L0.15 -70.8 0.5 -71.2 0.65 -71.3 1.25 -71.8 3.0 -72.3 3.75 -72.85 4.95 -73.5 7.0 -74.55 Q8.6 -75.05 9.9 -76.0 L11.0 -76.85 11.95 -77.6 12.1 -78.05 12.7 -78.85 12.75 -78.85 13.05 -79.15 13.25 -79.35 13.85 -79.45 13.9 -79.45 13.95 -79.5 15.0 -79.85 15.65 -80.35 16.7 -81.1 19.95 -83.6 20.25 -83.85 20.6 -84.45 20.75 -84.95 21.5 -85.55 23.0 -86.65 24.5 -87.05 26.5 -89.3 27.25 -89.9 28.0 -90.45 28.25 -90.65 29.0 -91.2 29.5 -91.6 29.75 -92.1 30.0 -92.7 30.75 -93.3 30.85 -93.8 31.25 -94.45 31.6 -95.0 31.75 -95.5 31.9 -95.65" fill="url(#gradient2)" fill-rule="evenodd" stroke="none"/>
    <path d="M40.35 -86.85 Q38.3 -85.1 33.45 -81.85 L29.35 -79.15 Q26.15 -77.15 24.6 -76.3 L13.6 -69.5 Q6.35 -65.25 4.4 -64.65 4.15 -64.15 3.35 -64.15 L1.3 -64.5 0.75 -64.65 -3.6 -66.05 -7.65 -67.6 Q-9.75 -68.75 -10.65 -68.8 -15.1 -70.55 -19.8 -72.6 -23.25 -73.75 -27.5 -75.85 L-29.95 -77.05 -39.75 -82.3 -44.4 -84.95 -48.65 -88.0 Q-53.0 -91.5 -54.45 -94.35 -58.5 -102.5 -59.7 -106.65 -62.15 -114.9 -63.0 -119.1 L-63.4 -121.3 -63.85 -123.65 -65.15 -131.4 -67.05 -143.85 -68.2 -150.4 -69.0 -155.15 -69.15 -156.2 -69.15 -156.55 Q-69.1 -157.9 -68.65 -157.5 L-68.5 -157.3 -68.15 -156.75 -67.75 -155.95 -67.75 -155.9 -67.7 -155.9 Q-66.65 -155.85 -65.85 -151.7 L-64.9 -147.3 -64.8 -146.9 -62.5 -146.9 -62.05 -149.8 -62.8 -155.4 -63.8 -158.05 -62.2 -159.1 -58.8 -167.55 -57.05 -168.4 -56.55 -170.2 -50.05 -171.9 -48.0 -174.7 Q-41.8 -172.85 -35.65 -171.35 -33.65 -170.9 -31.75 -170.0 -28.05 -168.2 -24.6 -170.3 L-22.55 -171.1 -23.05 -170.35 -23.1 -169.8 -22.7 -169.15 -15.5 -170.2 15.8 -169.85 Q24.85 -169.1 34.3 -172.45 L38.45 -172.75 Q45.7 -170.55 54.5 -172.1 L56.6 -168.2 56.7 -164.35 56.5 -164.4 56.45 -164.35 56.05 -164.05 55.85 -163.7 55.85 -163.25 55.85 -162.8 55.85 -162.35 56.1 -161.9 56.3 -161.4 56.35 -161.05 56.35 -160.95 56.6 -160.7 56.7 -160.65 56.7 -159.5 57.35 -158.8 57.35 -158.75 57.35 -158.3 57.35 -157.9 57.35 -157.45 57.75 -156.95 58.05 -156.55 58.0 -156.6 Q56.5 -156.75 56.1 -155.3 55.75 -153.85 55.75 -152.35 L55.75 -152.15 Q55.25 -151.75 54.9 -151.05 L54.75 -150.3 54.75 -147.6 54.65 -145.8 54.5 -144.95 53.9 -143.9 53.75 -143.15 53.75 -142.5 53.75 -142.2 53.75 -141.6 53.75 -141.35 53.75 -140.75 53.25 -139.85 53.15 -139.6 53.05 -139.5 52.75 -138.7 52.75 -138.15 52.75 -138.1 52.75 -137.75 52.75 -137.0 52.65 -136.3 52.55 -135.6 52.3 -135.1 51.75 -134.45 51.6 -133.65 50.85 -131.7 50.75 -130.9 50.05 -129.95 49.75 -129.15 49.75 -128.25 49.65 -126.5 49.5 -124.7 49.3 -124.05 49.2 -123.8 49.1 -123.45 48.85 -122.8 48.45 -122.0 48.1 -121.25 48.0 -121.1 Q46.85 -120.65 45.9 -119.9 45.75 -119.8 45.75 -119.3 L45.75 -118.4 45.65 -117.55 45.5 -116.65 45.05 -115.7 44.8 -114.85 44.75 -113.95 44.4 -113.1 43.5 -111.2 43.05 -110.15 41.95 -110.3 41.0 -110.4 40.3 -109.9 39.85 -109.15 39.6 -108.4 39.0 -107.4 38.75 -106.5 38.5 -105.65 37.75 -104.7 37.6 -103.9 37.35 -103.15 -49.35 -103.15 -49.75 -103.85 -49.75 -104.7 -49.75 -105.65 -50.5 -106.5 -51.5 -108.4 -51.75 -110.1 -52.05 -110.95 -52.65 -112.85 -52.75 -113.65 -53.05 -114.5 -53.65 -116.35 -53.75 -117.25 -54.1 -118.05 -54.6 -119.15 -54.75 -119.9 -55.5 -120.75 -56.25 -121.25 -56.5 -121.4 -57.2 -122.05 -57.75 -122.85 -57.75 -123.8 -57.85 -125.5 -58.0 -126.45 -58.75 -127.35 -59.45 -128.3 -59.75 -129.15 -59.75 -130.0 -59.75 -130.9 -59.75 -131.8 -60.5 -132.75 -61.0 -132.75 -61.05 -132.75 -61.05 -132.7 -60.05 -128.95 -59.05 -124.7 -57.1 -115.6 -55.1 -107.85 -54.75 -106.7 -53.5 -103.65 Q-51.8 -100.0 -48.65 -95.15 L-44.9 -89.55 -44.5 -88.85 Q-44.5 -88.25 -44.9 -87.75 L-44.95 -87.7 Q-42.0 -85.7 -38.05 -83.5 L-37.95 -83.45 Q-25.8 -76.6 -16.35 -73.25 -12.15 -71.7 -7.7 -69.75 L-5.75 -68.9 0.2 -67.0 0.6 -66.9 0.9 -66.8 0.9 -66.9 1.5 -67.1 1.9 -66.85 Q3.75 -68.2 8.7 -71.35 L12.15 -74.2 Q14.85 -76.2 14.85 -74.65 14.85 -74.3 13.05 -72.8 L13.65 -72.9 14.1 -72.65 14.25 -72.25 14.15 -71.95 Q18.15 -74.3 23.7 -77.8 L33.75 -83.9 38.15 -87.4 Q39.8 -88.6 40.7 -88.95 41.85 -89.45 41.85 -88.65 41.85 -88.15 40.35 -86.85 M-63.45 -179.05 L-63.3 -179.05 Q-63.35 -178.95 -63.4 -179.0 L-63.7 -178.85 -63.7 -178.9 -63.45 -179.05 M-7.8 -188.5 L-1.25 -188.4 -4.3 -185.45 -0.25 -182.2 1.7 -179.6 -1.0 -178.4 -1.55 -179.9 -5.8 -179.9 -7.8 -188.5 M58.75 -156.25 L58.75 -156.15 58.65 -156.25 58.75 -156.25 M49.0 -98.65 L46.3 -95.8 45.75 -95.9 Q45.55 -95.95 45.55 -96.65 L45.75 -97.5 45.75 -97.6 46.2 -99.25 46.25 -99.35 49.3 -109.55 Q53.55 -123.25 54.65 -127.7 L56.75 -135.25 Q58.1 -140.05 58.35 -143.2 58.7 -148.4 59.5 -151.0 60.5 -154.15 61.35 -154.1 L61.7 -153.1 61.7 -152.9 61.55 -150.95 61.35 -148.05 Q61.35 -142.95 59.5 -135.1 57.05 -125.35 55.7 -118.9 54.5 -113.05 51.5 -104.35 L49.25 -98.95 49.25 -98.9 49.0 -98.65 M-1.3 -177.55 L-1.3 -177.25 Q-2.2 -176.85 -1.3 -177.55 M-70.85 -92.6 L-70.8 -103.15 -70.8 -111.15 -69.8 -108.45 Q-67.2 -101.7 -66.15 -99.8 L-63.4 -95.35 Q-64.6 -96.35 -65.1 -95.75 L-60.5 -87.6 Q-67.9 -84.6 -66.45 -76.8 -67.3 -72.05 -65.25 -65.15 L-63.65 -60.45 -69.95 -60.45 -69.8 -65.75 -69.95 -70.25 -70.0 -77.3 -69.55 -89.05 Q-69.55 -96.45 -70.6 -93.45 L-70.85 -92.6" fill="url(#gradient3)" fill-rule="evenodd" stroke="none"/>
    <path d="M58.25 -101.25 L60.5 -108.6 60.7 -109.3 62.6 -113.5 65.8 -121.25 68.5 -129.25 69.25 -131.95 69.25 -132.0 69.7 -133.85 69.7 -125.05 Q68.95 -123.8 68.65 -122.35 L68.65 -122.3 68.65 -122.15 68.5 -121.25 Q68.4 -120.5 68.45 -119.65 L68.8 -105.95 68.8 -104.85 68.85 -103.15 Q68.9 -89.3 68.15 -75.55 L67.95 -71.35 68.05 -60.45 67.6 -60.45 29.3 -60.45 29.3 -60.9 Q29.3 -62.6 25.1 -62.1 L13.65 -61.7 11.45 -61.7 13.05 -62.55 27.65 -69.9 28.85 -70.45 29.85 -71.15 31.4 -72.05 32.5 -72.55 34.2 -73.6 35.0 -74.2 36.5 -74.75 38.95 -76.55 42.0 -78.8 43.15 -79.2 43.5 -79.35 45.1 -80.3 45.2 -80.35 46.95 -81.9 49.3 -84.05 49.5 -84.4 50.2 -85.0 50.6 -85.3 50.85 -85.35 53.4 -89.9 55.0 -92.05 55.75 -94.1 55.85 -94.1 56.0 -94.6 56.05 -94.8 58.2 -101.0 58.2 -101.05 58.25 -101.2 58.25 -101.25 M-63.4 -95.35 Q-61.95 -94.3 -59.4 -90.9 -55.95 -86.3 -55.15 -83.85 -52.45 -80.85 -51.25 -80.55 L-51.25 -80.4 -50.6 -79.8 -50.25 -79.35 -50.05 -79.25 -48.4 -78.35 Q-46.5 -77.55 -45.0 -76.45 -43.5 -75.95 -42.1 -75.25 L-40.0 -74.2 -37.55 -73.0 -36.75 -72.55 -34.3 -72.05 -34.0 -71.95 -33.5 -71.55 -32.75 -70.95 -31.0 -70.35 -29.6 -69.7 -28.95 -69.4 -26.0 -68.1 -25.4 -67.5 -25.25 -67.05 -25.25 -67.0 -24.7 -66.65 -24.5 -66.6 Q-21.25 -66.05 -18.85 -64.3 L-18.75 -64.15 -16.3 -63.75 -16.0 -63.65 -15.5 -63.25 -14.75 -62.65 -13.15 -62.4 -12.7 -62.1 -10.25 -61.4 -22.8 -61.35 -25.8 -60.45 -63.65 -60.45 -65.25 -65.15 Q-67.3 -72.05 -66.45 -76.8 -67.9 -84.6 -60.5 -87.6 L-65.1 -95.75 Q-64.6 -96.35 -63.4 -95.35 M-69.95 -60.45 L-71.2 -60.45 -71.7 -60.45 -71.65 -61.65 -71.65 -69.8 Q-71.85 -72.65 -71.7 -77.25 L-71.45 -84.65 Q-71.6 -89.5 -70.9 -92.35 L-70.85 -92.6 -70.6 -93.45 Q-69.55 -96.45 -69.55 -89.05 L-70.0 -77.3 -69.95 -70.25 -69.8 -65.75 -69.95 -60.45" fill="url(#gradient4)" fill-rule="evenodd" stroke="none"/>
    <path d="M44.5 -96.9 Q44.85 -96.9 44.85 -96.5 43.05 -92.65 42.2 -92.65 41.65 -92.65 41.65 -93.1 L41.95 -93.7 42.3 -94.2 42.5 -94.75 42.45 -95.25 42.85 -96.4 Q43.35 -97.15 44.05 -96.65 L44.25 -96.8 44.5 -96.9 M31.9 -95.65 L31.75 -95.5 31.6 -95.0 31.25 -94.45 30.85 -93.8 30.75 -93.3 30.0 -92.7 29.75 -92.1 29.5 -91.6 29.0 -91.2 28.25 -90.65 28.0 -90.45 27.25 -89.9 26.5 -89.3 24.5 -87.05 23.0 -86.65 21.5 -85.55 20.75 -84.95 20.6 -84.45 20.25 -83.85 19.95 -83.6 16.7 -81.1 15.65 -80.35 15.0 -79.85 13.95 -79.5 13.9 -79.45 13.85 -79.45 13.25 -79.35 13.05 -79.15 12.75 -78.85 12.7 -78.85 12.1 -78.05 11.95 -77.6 11.0 -76.85 9.9 -76.0 Q8.6 -75.05 7.0 -74.55 L4.95 -73.5 3.75 -72.85 3.0 -72.3 1.25 -71.8 0.65 -71.3 0.5 -71.2 0.15 -70.8 -0.1 -70.65 Q-3.8 -71.2 -7.2 -72.35 L-7.5 -72.55 -8.1 -72.95 -9.5 -73.6 -9.8 -74.2 -10.25 -74.75 -12.05 -75.9 Q-13.85 -76.95 -16.0 -77.55 L-17.9 -78.85 -18.2 -79.05 -18.75 -79.6 -19.0 -79.85 -19.1 -79.9 -20.0 -80.45 -20.75 -81.0 -21.5 -81.55 -23.05 -82.15 -24.75 -82.7 -24.1 -83.3 -23.9 -83.55 -23.75 -83.85 -24.15 -84.3 -24.5 -84.6 -25.0 -85.0 -26.5 -86.15 -28.0 -86.65 -31.15 -88.85 Q-32.4 -89.65 -33.5 -90.65 L-35.0 -90.45 -35.75 -90.3 -36.25 -90.65 -37.85 -91.7 -39.05 -92.35 -40.0 -92.7 -40.55 -93.1 -31.7 -93.85 -26.7 -94.15 3.15 -95.25 28.1 -95.7 32.05 -95.8 31.9 -95.65" fill="url(#gradient5)" fill-rule="evenodd" stroke="none"/>
  </g>
  <defs>
    <linearGradient gradientTransform="matrix(0.0, 0.202, -0.1095, 0.0, 6.6, 39.7)" gradientUnits="userSpaceOnUse" id="gradient0" spreadMethod="pad" x1="-819.2" x2="819.2">
      <stop offset="0.0" stop-color="#990000"/>
      <stop offset="1.0" stop-color="#690000"/>
    </linearGradient>
    <linearGradient gradientTransform="matrix(0.0, 0.2205, -0.1095, 0.0, 6.6, 63.2)" gradientUnits="userSpaceOnUse" id="gradient1" spreadMethod="pad" x1="-819.2" x2="819.2">
      <stop offset="0.0" stop-color="#990000"/>
      <stop offset="1.0" stop-color="#690000"/>
    </linearGradient>
    <linearGradient gradientTransform="matrix(0.0, 0.203, -0.1095, 0.0, 6.6, 57.8)" gradientUnits="userSpaceOnUse" id="gradient2" spreadMethod="pad" x1="-819.2" x2="819.2">
      <stop offset="0.0" stop-color="#990000"/>
      <stop offset="1.0" stop-color="#690000"/>
    </linearGradient>
    <linearGradient gradientTransform="matrix(0.0, 0.2379, -0.1095, 0.0, 6.6, 85.45)" gradientUnits="userSpaceOnUse" id="gradient3" spreadMethod="pad" x1="-819.2" x2="819.2">
      <stop offset="0.0" stop-color="#990000"/>
      <stop offset="1.0" stop-color="#690000"/>
    </linearGradient>
    <linearGradient gradientTransform="matrix(0.0, 0.218, -0.1095, 0.0, 6.6, 60.1)" gradientUnits="userSpaceOnUse" id="gradient4" spreadMethod="pad" x1="-819.2" x2="819.2">
      <stop offset="0.0" stop-color="#990000"/>
      <stop offset="1.0" stop-color="#690000"/>
    </linearGradient>
    <linearGradient gradientTransform="matrix(0.0, 0.1511, -0.1095, 0.0, 6.6, 18.45)" gradientUnits="userSpaceOnUse" id="gradient5" spreadMethod="pad" x1="-819.2" x2="819.2">
      <stop offset="0.0" stop-color="#990000"/>
      <stop offset="1.0" stop-color="#690000"/>
    </linearGradient>
  </defs>
</svg>
