<?xml version="1.0" encoding="UTF-8" standalone="no"?>
<svg xmlns:ffdec="https://www.free-decompiler.com/flash" xmlns:xlink="http://www.w3.org/1999/xlink" ffdec:objectType="shape" height="339.6px" width="279.3px" xmlns="http://www.w3.org/2000/svg">
  <g transform="matrix(1.0, 0.0, 0.0, 1.0, 176.5, 173.0)">
    <path d="M95.7 -159.15 Q98.45 -156.3 100.9 -154.7 L100.9 -154.6 101.85 -152.35 102.8 -152.4 Q102.05 -150.35 102.4 -147.4 L101.9 -138.5 101.4 -131.65 101.45 -129.15 Q100.35 -121.85 99.85 -116.65 L99.5 -115.0 Q98.25 -104.45 97.3 -92.25 L97.15 -91.4 94.05 -74.25 Q93.05 -67.7 92.65 -62.6 L91.7 -58.25 91.15 -55.6 91.4 -54.15 Q91.4 -53.55 87.05 -49.4 82.95 -42.85 79.4 -38.0 79.2 -33.2 75.25 -26.5 L74.3 -24.95 Q72.15 -20.0 68.55 -13.85 60.75 -0.55 53.65 4.45 L47.85 10.8 Q46.85 10.1 46.1 10.5 L46.95 12.0 48.7 15.65 50.2 17.85 53.75 23.2 Q56.2 27.25 58.2 31.4 L59.7 34.35 62.4 39.85 62.3 40.9 Q62.9 42.05 62.9 44.1 L62.85 44.55 62.9 46.1 Q62.9 48.6 59.15 54.1 58.9 55.1 58.9 56.35 58.9 58.7 60.95 69.5 L62.5 78.2 62.3 79.35 Q61.9 81.85 61.6 85.3 58.9 95.0 58.9 103.1 L58.9 104.15 58.35 104.4 57.4 117.1 Q56.15 128.85 54.4 138.85 53.85 142.1 50.3 146.8 49.05 149.45 45.5 152.35 L41.7 156.05 40.25 157.65 Q38.65 160.4 33.4 163.15 26.75 166.6 22.9 166.6 9.0 166.6 -0.55 158.1 L-3.2 155.45 -15.15 155.35 -24.6 156.1 -34.35 155.55 -33.65 155.5 -34.6 155.5 -34.75 152.1 Q-34.95 146.2 -35.45 142.2 L-35.5 141.7 -36.0 136.6 Q-33.85 136.45 -32.85 135.85 L-31.6 135.1 Q-31.45 135.4 -31.35 135.1 -31.1 134.5 -31.1 131.35 -31.1 128.4 -31.6 128.15 L-32.1 127.6 Q-34.65 126.65 -36.6 126.65 L-36.6 126.5 -37.1 126.6 -39.2 126.5 Q-39.55 123.1 -40.65 121.0 L-41.55 119.75 -38.4 117.7 -36.6 116.9 Q-36.85 115.6 -37.35 114.35 L-37.1 113.6 -39.05 110.9 -41.1 108.0 Q-41.2 111.0 -41.6 110.6 -41.7 111.1 -42.15 111.6 -42.75 112.25 -44.25 112.5 L-45.6 110.05 Q-48.05 106.1 -51.1 103.45 -53.0 101.8 -54.5 101.25 L-54.1 100.8 -53.05 99.8 -52.95 99.75 -52.9 99.7 Q-51.8 98.85 -50.1 98.1 -52.5 96.1 -54.8 95.0 L-55.0 94.75 -65.55 85.15 -72.1 94.55 -77.0 102.1 Q-77.35 106.5 -87.0 116.0 L-91.35 120.2 Q-93.25 126.3 -104.55 133.5 L-112.9 138.2 Q-114.1 139.45 -116.0 140.55 -120.25 143.0 -124.0 143.0 -128.3 143.0 -133.05 136.4 L-133.85 135.3 -137.1 132.0 Q-137.8 132.5 -139.0 132.5 -143.4 132.5 -146.6 129.0 -148.9 127.25 -151.05 123.5 -152.6 123.45 -154.55 120.25 -157.35 117.9 -164.8 93.75 L-167.2 85.75 -167.3 85.55 Q-169.05 80.9 -169.8 77.65 -173.5 68.15 -174.25 65.35 L-174.5 64.9 Q-176.5 61.05 -176.5 60.0 -176.5 58.35 -175.45 57.05 L-173.0 54.9 -172.9 51.9 -172.95 48.8 -172.75 48.75 Q-172.5 43.5 -172.5 33.35 L-172.5 29.55 -172.5 26.75 Q-172.5 22.15 -172.95 19.5 L-172.4 18.6 -172.5 18.5 -173.0 15.5 Q-170.25 12.9 -164.75 11.2 L-164.55 11.05 Q-158.15 7.5 -148.0 6.0 L-147.5 6.55 Q-147.25 6.7 -147.1 7.55 L-147.05 7.6 Q-143.35 8.35 -139.45 11.6 L-136.0 14.85 -133.8 15.1 -131.6 16.1 -133.3 19.15 Q-133.0 20.1 -133.0 21.0 L-133.0 22.55 -132.6 22.85 -132.6 22.95 Q-132.6 22.4 -129.8 29.55 L-131.45 31.75 Q-133.6 35.0 -133.6 36.6 L-133.35 39.6 -133.3 39.65 -133.5 41.15 -134.6 44.75 -136.05 49.4 -137.45 49.8 Q-139.6 50.8 -139.6 53.2 -139.6 53.9 -137.55 57.45 L-136.05 60.0 -134.9 61.55 -132.3 64.85 -131.3 66.05 Q-129.75 68.55 -128.6 69.0 L-127.55 69.95 Q-123.9 76.65 -120.5 79.3 -120.05 74.0 -116.45 64.9 -114.8 60.65 -113.25 57.95 -111.75 54.8 -109.95 51.9 -104.45 42.9 -97.75 38.35 L-97.4 37.2 -97.35 36.5 -97.1 34.6 Q-97.1 30.65 -94.25 24.05 -92.45 19.95 -90.1 16.2 L-89.45 15.65 -86.3 14.2 Q-85.0 10.9 -81.4 7.75 -79.5 5.7 -76.6 3.8 L-76.4 3.65 -75.1 2.85 -72.45 0.95 -76.85 0.25 -82.75 -6.8 -85.8 -9.95 -82.05 -7.55 Q-76.1 -4.3 -70.1 -4.65 L-71.95 -5.65 Q-75.25 -7.75 -76.4 -10.4 L-79.05 -12.15 -81.2 -13.75 -80.1 -13.4 Q-72.85 -15.1 -69.55 -19.1 -68.6 -20.25 -68.0 -21.5 -67.1 -23.05 -67.1 -24.65 L-67.1 -25.4 -67.1 -25.9 -67.15 -27.0 -67.1 -27.9 Q-67.1 -30.05 -67.35 -30.95 L-67.3 -32.35 -67.4 -35.75 Q-67.4 -41.2 -69.35 -53.25 L-72.05 -68.95 Q-62.65 -70.25 -51.5 -81.7 -45.55 -87.8 -40.8 -94.5 L-40.1 -93.3 Q-36.95 -89.4 -31.95 -89.4 L-31.4 -89.5 -30.75 -88.75 -27.6 -87.65 Q-23.1 -89.55 -18.65 -92.45 -17.75 -93.5 -16.0 -94.2 L-12.0 -96.05 Q-11.05 -96.75 -9.6 -97.25 -4.8 -98.85 -4.1 -99.9 L-2.95 -99.9 Q0.0 -101.15 3.35 -100.5 L4.65 -98.65 5.0 -98.15 6.75 -94.05 Q10.45 -85.5 11.4 -81.15 11.7 -79.85 11.85 -73.35 L11.1 -73.0 11.15 -72.75 11.4 -72.4 10.95 -65.8 8.65 -60.05 8.6 -60.0 8.4 -59.7 7.85 -64.35 7.5 -66.8 Q6.7 -67.65 6.15 -69.35 5.6 -70.95 5.45 -72.2 4.75 -72.7 3.75 -72.85 L1.5 -74.6 -1.0 -76.8 Q-2.75 -77.2 -4.55 -76.4 L-5.65 -76.95 -4.75 -75.3 -3.15 -73.25 -2.8 -72.85 Q1.4 -68.25 1.4 -63.9 L1.2 -61.4 1.5 -61.0 1.4 -58.9 2.65 -55.1 3.3 -53.85 2.8 -53.25 Q2.4 -52.9 0.9 -52.9 0.2 -52.9 -0.35 -53.2 L-1.7 -52.9 -1.75 -52.8 Q1.7 -44.35 4.8 -32.25 L7.3 -22.05 Q11.05 -26.45 16.45 -30.65 L16.6 -30.75 16.75 -31.0 Q19.15 -34.8 22.45 -38.3 26.1 -42.05 29.05 -43.7 33.25 -48.85 38.8 -53.05 43.75 -56.75 47.4 -57.9 51.15 -60.4 54.4 -61.15 54.2 -64.85 54.6 -68.85 L54.5 -77.4 55.35 -79.15 Q58.4 -85.8 61.45 -93.95 L66.7 -107.6 Q70.9 -119.1 74.05 -130.4 L72.1 -131.9 Q69.6 -132.15 67.45 -132.9 L66.9 -132.9 65.8 -132.95 63.7 -134.85 Q62.15 -135.95 60.8 -136.2 L59.0 -140.35 Q57.85 -142.7 56.4 -144.4 L56.4 -159.45 56.65 -159.6 Q57.45 -161.4 61.45 -162.85 L64.6 -163.75 67.4 -172.0 71.9 -171.4 Q77.85 -171.4 83.2 -173.0 L86.7 -169.6 Q88.2 -168.75 89.75 -167.0 L90.5 -166.15 Q91.0 -164.05 95.7 -159.15 M78.35 -155.2 L79.35 -154.15 79.5 -154.9 78.35 -155.2 M-66.55 51.65 L-67.3 52.45 -67.1 52.75 Q-66.35 51.7 -66.55 51.25 L-66.55 51.65 M-96.75 58.6 L-96.95 58.15 -97.1 58.6 -96.75 58.6" fill="#ffdc99" fill-rule="evenodd" stroke="none"/>
  </g>
</svg>
