<?xml version="1.0" encoding="UTF-8" standalone="no"?>
<svg xmlns:ffdec="https://www.free-decompiler.com/flash" xmlns:xlink="http://www.w3.org/1999/xlink" ffdec:objectType="shape" height="489.75px" width="183.7px" xmlns="http://www.w3.org/2000/svg">
  <g transform="matrix(1.0, 0.0, 0.0, 1.0, 93.45, 218.0)">
    <path d="M-75.0 -210.65 L-76.0 -208.7 -76.75 -206.25 -77.2 -203.2 -77.5 -197.3 -77.5 -197.2 -77.45 -195.15 Q-77.2 -192.95 -76.35 -192.3 L-75.3 -192.3 -74.55 -192.1 -70.9 -191.65 Q-65.6 -191.3 -54.75 -191.3 L-38.85 -191.7 -38.25 -191.85 -17.6 -192.0 -11.75 -192.55 -7.8 -192.9 -7.5 -192.95 -4.85 -193.1 2.15 -193.1 4.0 -192.9 11.8 -192.6 49.05 -192.45 49.7 -192.3 63.6 -192.3 Q69.3 -192.25 70.2 -193.45 70.55 -193.85 70.65 -196.7 L70.65 -198.75 70.55 -202.3 70.4 -203.5 70.45 -205.35 70.35 -206.8 70.35 -210.95 70.3 -211.4 70.7 -211.6 Q71.8 -205.25 71.8 -201.5 L71.6 -191.8 71.3 -185.95 71.1 -184.35 71.15 -184.2 Q70.4 -179.7 70.4 -178.3 70.4 -177.95 70.7 -177.95 L70.9 -178.0 70.55 -176.0 68.7 -166.35 65.0 -148.35 Q62.9 -136.5 61.15 -130.25 59.45 -124.15 57.05 -118.8 L56.65 -117.5 56.1 -116.1 55.6 -114.3 55.6 -113.9 55.6 -113.45 55.35 -112.65 55.1 -111.8 55.0 -111.55 54.75 -111.1 54.65 -110.7 54.6 -110.35 54.35 -109.85 53.15 -105.3 Q52.4 -100.0 43.65 -93.45 41.65 -91.95 38.65 -90.55 L32.85 -87.95 22.8 -82.8 Q6.0 -74.4 2.0 -74.4 L1.95 -74.4 Q1.7 -73.95 1.2 -73.95 L-0.45 -74.6 Q-2.75 -75.05 -6.35 -76.45 -9.25 -77.6 -10.5 -78.35 -13.55 -78.85 -27.9 -84.95 L-34.0 -87.65 -35.3 -88.25 Q-40.4 -90.55 -43.5 -92.15 -50.7 -95.95 -54.75 -101.15 -57.0 -104.05 -60.0 -110.45 -63.8 -118.75 -65.65 -126.55 L-67.35 -132.8 -69.6 -143.6 -69.65 -143.65 -69.65 -143.8 -69.75 -144.35 -70.6 -149.0 -70.65 -149.05 -70.65 -149.25 -71.45 -153.4 -71.65 -153.6 -71.65 -154.05 -71.65 -154.25 -71.85 -155.2 -72.05 -155.9 -72.15 -156.05 -72.15 -156.15 -76.3 -172.5 -77.3 -181.5 -78.3 -183.1 -78.35 -187.05 -78.75 -188.3 -79.35 -189.05 -79.35 -191.2 -79.35 -191.55 -79.35 -191.8 -79.55 -193.5 -79.6 -193.8 -79.8 -197.3 -79.8 -200.75 -79.15 -204.6 -79.1 -204.9 -79.05 -205.05 -79.0 -205.25 -78.6 -207.0 -78.1 -208.9 Q-77.2 -210.45 -75.0 -210.65 M76.1 -212.3 L76.15 -212.5 76.2 -212.55 76.45 -212.85 77.9 -213.25 78.1 -213.25 78.15 -213.3 Q79.3 -214.6 80.4 -214.35 L81.75 -213.85 Q81.25 -213.85 81.0 -213.25 80.75 -212.65 80.75 -211.4 80.6 -209.6 80.85 -207.8 81.15 -205.75 82.0 -204.85 L82.3 -204.6 Q82.8 -204.25 83.5 -204.25 L84.55 -204.85 84.7 -205.0 85.1 -205.45 85.5 -205.9 85.5 -203.85 Q85.5 -200.3 83.3 -196.0 L83.15 -195.65 83.1 -195.6 Q81.7 -192.3 79.9 -191.75 L78.6 -191.3 78.3 -191.3 Q77.35 -191.3 77.15 -192.1 L77.15 -192.15 77.15 -193.0 Q77.15 -193.7 78.3 -196.25 79.05 -198.0 79.3 -199.75 L79.4 -200.7 79.4 -201.5 79.25 -204.0 78.85 -205.85 78.75 -206.15 Q77.8 -208.85 77.4 -210.3 L77.0 -211.55 77.05 -212.0 77.25 -212.25 76.15 -212.35 76.1 -212.3 M70.45 -212.0 L70.2 -211.9 70.45 -212.0 M67.2 -186.95 L67.45 -187.55 67.2 -187.25 64.4 -185.0 63.75 -184.2 62.25 -182.5 62.1 -181.8 61.5 -180.9 61.5 -180.75 61.35 -180.05 61.25 -178.35 61.25 -177.55 60.95 -176.8 60.85 -176.6 60.25 -175.9 60.25 -175.1 60.25 -174.3 60.25 -174.25 Q60.25 -173.85 60.4 -173.5 L61.0 -172.6 61.2 -170.95 61.25 -169.3 61.25 -168.0 62.35 -166.95 62.55 -166.8 67.2 -186.95 M63.2 -190.3 L64.85 -191.0 39.45 -189.25 39.85 -188.95 Q46.65 -184.15 54.35 -184.9 L55.0 -184.95 Q57.6 -185.3 60.35 -186.3 L63.2 -190.3 M57.95 -167.45 L57.7 -168.25 57.8 -169.1 57.65 -171.25 57.7 -171.9 57.75 -173.5 57.75 -173.55 57.75 -174.0 57.75 -176.45 57.75 -177.0 57.75 -177.05 57.75 -177.7 57.75 -179.8 58.1 -180.55 58.65 -181.25 58.7 -182.15 54.5 -181.9 53.15 -181.45 Q46.95 -180.5 42.1 -184.3 L37.1 -187.65 Q36.15 -188.25 35.35 -189.2 L-1.25 -190.55 -7.8 -190.65 -46.2 -189.85 -48.3 -188.15 -49.05 -186.5 -50.7 -185.4 Q-56.55 -180.55 -63.3 -181.9 L-63.45 -181.9 -63.75 -181.95 -64.3 -181.75 -64.25 -181.25 Q-63.75 -179.05 -63.55 -177.0 -63.0 -169.6 -66.9 -163.8 L-68.5 -161.75 Q-69.1 -162.55 -69.15 -161.05 L-69.3 -160.85 -69.3 -160.7 -69.2 -160.35 -69.15 -160.25 -69.0 -159.75 -68.2 -155.35 -67.05 -149.3 -65.15 -137.75 -63.0 -126.35 Q-62.15 -122.45 -59.7 -114.8 -58.5 -110.95 -54.45 -103.4 -53.0 -100.8 -48.65 -97.55 -44.55 -94.5 -39.75 -92.25 L-29.95 -87.4 Q-24.2 -84.65 -19.8 -83.25 -15.1 -81.35 -10.65 -79.75 -9.75 -79.7 -7.65 -78.65 L-3.6 -77.2 0.75 -75.9 1.25 -75.65 1.3 -75.75 3.35 -75.45 Q4.15 -75.45 4.4 -75.9 6.35 -76.45 13.6 -80.4 L24.6 -86.7 33.45 -91.85 40.35 -96.45 43.15 -98.4 Q45.05 -98.55 48.5 -103.55 51.8 -108.25 52.7 -111.3 L54.9 -117.9 56.85 -124.25 Q63.05 -148.35 63.05 -150.45 L62.9 -153.8 63.3 -157.25 63.25 -158.4 62.85 -159.6 61.4 -160.85 60.75 -161.55 60.0 -162.4 59.75 -163.2 59.7 -163.4 59.5 -163.65 59.1 -164.1 59.05 -164.45 59.0 -164.6 58.75 -164.9 58.75 -165.05 58.65 -165.3 58.6 -165.45 58.6 -165.7 58.6 -166.15 58.35 -166.6 58.15 -166.95 58.0 -167.4 57.95 -167.45 M49.1 -107.5 L48.95 -107.15 49.0 -107.4 49.1 -107.5 M-72.95 -131.0 L-73.4 -102.95 -73.75 -99.55 Q-73.85 -97.2 -74.05 -96.2 L-74.4 -70.85 -74.6 -70.4 -74.6 -41.35 Q-75.5 -19.2 -75.5 -12.25 L-75.35 -5.4 -74.9 -2.85 -75.25 2.9 -75.4 12.2 -75.0 16.25 -75.0 18.95 -75.15 22.75 -75.0 24.7 -75.0 30.75 Q-74.95 33.35 -74.45 34.3 L-74.55 37.95 -74.5 39.35 -74.4 39.65 Q-76.1 57.8 -76.45 76.4 L-76.55 78.2 -77.7 94.45 Q-78.95 113.7 -79.05 133.4 -79.05 134.9 -79.3 136.4 -80.25 142.65 -80.15 149.15 -79.8 168.4 -81.05 187.55 -82.15 204.5 -81.8 221.4 L-83.0 221.3 -83.05 221.35 Q-83.4 221.35 -83.45 221.6 L-83.55 221.85 -83.65 221.7 -83.65 221.65 -83.9 219.75 -83.8 218.25 Q-83.75 217.45 -84.2 216.8 L-84.8 211.65 -80.8 90.15 Q-78.75 82.75 -78.9 74.7 L-78.85 73.1 -77.9 58.15 Q-77.0 42.25 -76.6 26.4 -76.1 5.6 -77.3 -15.35 L-76.3 -16.6 Q-76.65 -32.95 -77.3 -49.95 L-77.3 -50.75 -77.3 -50.9 -77.1 -50.9 -76.6 -57.05 -76.6 -57.45 -76.6 -57.65 -76.05 -72.0 -75.55 -96.65 -75.35 -126.85 -75.4 -128.35 -75.6 -142.0 -75.5 -141.7 -75.35 -140.9 -75.25 -140.05 -75.25 -139.25 -74.8 -138.4 -74.5 -137.55 -74.35 -136.75 -74.25 -135.95 -73.8 -135.05 -73.5 -134.3 -73.25 -133.45 -73.2 -131.8 -73.05 -131.3 -72.95 -131.0 M69.7 -140.0 L69.7 -153.2 71.7 -162.05 72.75 -82.95 Q73.15 -81.65 73.2 -80.0 72.95 -76.2 73.0 -74.4 L73.1 -72.0 73.45 -63.3 73.1 -54.15 73.35 -50.9 74.05 -40.3 Q75.05 -25.85 75.05 -21.45 L75.05 -17.65 74.85 -15.55 75.7 35.4 74.7 36.4 Q74.7 50.75 75.25 64.9 75.7 77.3 75.5 89.65 L75.5 106.15 Q75.7 117.8 76.85 129.4 78.1 142.2 77.8 155.15 L77.9 155.9 78.3 158.6 79.25 186.15 79.35 188.45 80.5 216.85 80.1 216.85 78.95 217.45 Q78.2 217.65 77.7 218.05 L76.55 194.1 Q75.45 175.6 74.95 156.9 74.85 153.45 74.35 149.7 73.25 141.7 73.65 133.65 L73.65 127.25 73.35 119.8 Q72.45 87.1 72.85 54.15 73.3 19.9 71.95 -14.1 L71.2 -27.55 71.1 -30.6 Q71.05 -40.75 70.45 -50.75 L70.45 -50.9 70.05 -50.9 69.7 -51.35 69.7 -131.85 69.7 -140.0 M80.75 224.7 L80.75 224.75 80.7 224.7 80.75 224.7 M-82.8 229.35 L-82.9 228.35 -82.85 228.4 -82.6 228.5 -82.8 229.35 M-83.15 226.25 L-83.2 225.65 -83.15 225.7 -83.15 225.85 -83.15 226.25 M39.85 -186.3 L40.1 -186.5 Q41.6 -188.9 39.85 -186.3 M77.7 222.0 L78.1 221.85 77.7 222.0 M-84.15 -212.95 L-83.05 -213.9 -82.75 -214.1 Q-81.25 -215.1 -80.2 -214.55 L-79.85 -214.3 -80.65 -213.7 -80.9 -213.45 -82.1 -211.85 -82.55 -210.85 -82.55 -210.75 -82.85 -209.0 Q-82.8 -207.55 -81.6 -207.5 L-81.5 -207.5 Q-81.0 -207.5 -80.55 -207.85 L-81.4 -205.0 -81.9 -201.5 Q-82.25 -200.05 -82.75 -199.35 L-82.6 -198.6 -83.1 -199.0 Q-83.45 -198.75 -83.85 -198.75 -84.45 -198.75 -85.3 -201.3 L-85.6 -202.4 -85.85 -202.35 -87.15 -205.25 -87.1 -206.25 -87.0 -207.25 -86.4 -208.2 Q-86.0 -210.95 -84.3 -212.75 L-84.15 -212.95 M-88.25 -199.0 L-88.35 -199.05 -88.35 -199.1 -88.25 -199.0 M-88.6 -209.05 L-88.3 -209.25 -88.45 -209.0 -88.65 -208.6 -88.75 -208.85 -88.6 -209.05 M-70.35 -165.15 L-67.4 -171.75 -66.85 -180.75 -68.1 -183.25 -74.2 -186.7 -74.3 -186.75 -74.85 -187.05 -74.35 -184.3 -73.8 -179.55 -70.35 -165.15 M-49.55 -190.55 L-59.05 -190.05 -72.05 -190.25 -68.25 -187.45 Q-58.25 -181.3 -49.55 -190.55" fill="#ff9900" fill-rule="evenodd" stroke="none"/>
    <path d="M-75.0 -210.65 L-74.5 -211.25 -55.35 -211.25 -53.75 -211.4 -51.9 -211.5 -51.2 -211.55 -47.05 -211.75 -42.75 -211.5 -41.8 -211.35 -38.9 -210.9 -38.75 -210.85 -38.0 -210.75 -18.8 -210.75 -17.9 -211.0 -9.75 -211.0 -4.3 -211.0 Q-0.75 -211.05 1.1 -211.75 L22.1 -211.8 25.25 -211.5 43.35 -211.5 46.6 -211.7 51.5 -212.25 69.6 -212.25 70.2 -212.4 72.8 -212.2 75.75 -212.2 76.05 -212.5 76.15 -212.5 76.1 -212.3 75.4 -211.95 Q75.0 -211.6 75.0 -211.05 L75.2 -210.6 73.9 -210.5 74.65 -209.05 Q75.5 -206.8 75.75 -204.5 L76.2 -199.45 76.2 -197.45 76.2 -197.0 76.2 -195.25 76.2 -191.85 Q76.1 -189.15 75.85 -188.7 L75.7 -188.65 Q75.05 -188.65 75.1 -189.9 L75.2 -191.95 Q75.05 -193.0 75.3 -195.3 L75.1 -202.75 Q74.65 -206.9 72.9 -210.3 L73.35 -205.15 73.35 -204.75 73.4 -200.35 73.05 -192.2 Q72.7 -187.35 72.25 -185.35 L72.15 -183.95 Q71.75 -178.6 70.9 -178.0 L70.7 -177.95 Q70.4 -177.95 70.4 -178.3 70.4 -179.7 71.15 -184.2 L71.1 -184.35 71.3 -185.95 71.6 -191.8 71.8 -201.5 Q71.8 -205.25 70.7 -211.6 L70.3 -211.4 70.35 -210.95 70.35 -206.8 70.45 -205.35 70.4 -203.5 70.55 -202.3 70.65 -198.75 70.65 -196.7 Q70.55 -193.85 70.2 -193.45 69.3 -192.25 63.6 -192.3 L49.7 -192.3 49.05 -192.45 11.8 -192.6 4.0 -192.9 2.15 -193.1 -4.85 -193.1 -7.5 -192.95 -7.8 -192.9 -11.75 -192.55 -17.6 -192.0 -38.25 -191.85 -38.85 -191.7 -54.75 -191.3 Q-65.6 -191.3 -70.9 -191.65 L-74.55 -192.1 -75.3 -192.3 -76.35 -192.3 Q-77.2 -192.95 -77.45 -195.15 L-77.5 -197.2 -77.5 -197.3 -77.2 -203.2 -76.75 -206.25 -76.0 -208.7 -75.0 -210.65 M70.45 -212.0 L70.2 -211.9 70.45 -212.0 M72.35 -206.3 L72.4 -206.1 72.4 -206.35 72.35 -206.3 M67.2 -187.25 L67.2 -186.95 62.55 -166.8 62.35 -166.95 61.25 -168.0 61.25 -169.3 61.2 -170.95 61.0 -172.6 60.4 -173.5 Q60.25 -173.85 60.25 -174.25 L60.25 -174.3 60.25 -175.1 60.25 -175.9 60.85 -176.6 60.95 -176.8 61.25 -177.55 61.25 -178.35 61.35 -180.05 61.5 -180.75 61.5 -180.9 62.1 -181.8 62.25 -182.5 63.75 -184.2 64.4 -185.0 67.2 -187.25 M63.2 -190.3 L60.35 -186.3 Q57.6 -185.3 55.0 -184.95 L54.35 -184.9 Q46.65 -184.15 39.85 -188.95 L39.45 -189.25 64.85 -191.0 63.2 -190.3 M-79.35 -191.2 L-79.8 -191.35 -79.35 -191.8 -79.35 -191.55 -79.35 -191.2 M-1.25 -190.55 L35.35 -189.2 Q36.15 -188.25 37.1 -187.65 L42.1 -184.3 Q46.95 -180.5 53.15 -181.45 L54.5 -181.9 58.7 -182.15 58.65 -181.25 58.1 -180.55 57.75 -179.8 57.75 -177.7 57.75 -177.05 57.75 -177.0 57.75 -176.45 57.75 -174.0 57.75 -173.55 57.75 -173.5 57.7 -171.9 57.65 -171.25 57.8 -169.1 57.7 -168.25 57.95 -167.45 57.6 -167.8 57.25 -168.25 57.15 -168.25 57.1 -168.25 56.75 -168.3 56.7 -168.3 56.6 -171.85 54.5 -175.45 Q45.7 -174.05 38.45 -176.05 L34.3 -175.8 Q24.85 -172.7 15.8 -173.4 L-15.5 -173.7 -22.7 -172.75 -23.1 -173.35 -23.05 -173.85 -22.55 -174.55 -24.6 -173.8 Q-28.05 -171.85 -31.75 -173.5 -33.65 -174.35 -35.65 -174.75 L-48.0 -177.9 -50.05 -175.3 -56.55 -173.7 -57.05 -172.05 -58.8 -171.25 -62.2 -163.4 -63.8 -162.45 -62.8 -160.0 -62.05 -154.8 -62.5 -152.1 -64.8 -152.1 -64.9 -152.5 Q-65.5 -155.4 -65.85 -156.55 -66.65 -160.4 -67.7 -160.45 L-67.75 -160.5 -68.15 -161.25 -68.5 -161.75 -66.9 -163.8 Q-63.0 -169.6 -63.55 -177.0 -63.75 -179.05 -64.25 -181.25 L-64.3 -181.75 -63.75 -181.95 -63.45 -181.9 -63.7 -181.75 -63.7 -181.7 -63.4 -181.85 Q-63.35 -181.8 -63.3 -181.9 -56.55 -180.55 -50.7 -185.4 L-49.05 -186.5 -48.3 -188.15 -46.2 -189.85 -7.8 -190.65 -5.8 -182.7 -1.55 -182.7 -1.0 -181.3 1.7 -182.4 -0.25 -184.85 -4.3 -187.85 -1.25 -190.55 M58.6 -165.45 L58.65 -165.3 58.6 -165.35 58.6 -165.45 M-69.0 -159.75 L-69.15 -160.25 -69.2 -160.35 -69.3 -160.7 -69.3 -160.85 -69.15 -161.05 -69.15 -160.75 -69.0 -159.75 M56.7 -164.85 L56.75 -164.8 56.85 -164.35 57.0 -163.95 57.2 -163.55 57.35 -163.15 56.7 -163.8 56.7 -164.85 M-1.3 -180.25 L-1.3 -180.5 Q-2.2 -179.85 -1.3 -180.25 M-36.85 -195.4 L-37.8 -195.45 -39.05 -195.55 -39.05 -195.5 -36.85 -195.4 M-49.55 -190.55 Q-58.25 -181.3 -68.25 -187.45 L-72.05 -190.25 -59.05 -190.05 -49.55 -190.55 M-74.35 -184.3 L-74.85 -187.05 -74.3 -186.75 -74.2 -186.7 -68.1 -183.25 -66.85 -180.75 -67.4 -171.75 -70.35 -165.15 -70.35 -167.4 -70.8 -170.5 -74.35 -184.3" fill="#990000" fill-rule="evenodd" stroke="none"/>
    <path d="M-80.9 -163.65 L-81.1 -163.4 -80.9 -163.7 -80.9 -163.65 M-81.3 -156.5 L-81.3 -143.55 -81.45 -143.4 -81.3 -149.5 -81.3 -149.8 -81.45 -149.65 -81.3 -156.5 M76.45 -177.9 L75.8 -177.65 75.6 -181.2 75.8 -181.5 Q76.45 -182.8 76.25 -183.85 L76.9 -183.0 76.45 -177.9 M73.35 -204.75 L73.35 -205.15 73.45 -205.05 73.35 -204.75 M75.85 -188.7 Q76.1 -189.15 76.2 -191.85 L76.2 -195.25 76.2 -197.0 76.35 -197.05 76.3 -197.4 76.2 -197.45 76.2 -199.45 75.75 -204.5 Q75.5 -206.8 74.65 -209.05 L73.9 -210.5 75.2 -210.6 75.0 -211.05 Q75.0 -211.6 75.4 -211.95 L76.1 -212.3 76.15 -212.35 77.25 -212.25 77.05 -212.0 77.0 -211.55 77.4 -210.3 Q77.8 -208.85 78.75 -206.15 L78.85 -205.85 79.25 -204.0 79.4 -201.5 79.4 -200.7 79.3 -199.75 Q79.05 -198.0 78.3 -196.25 77.15 -193.7 77.15 -193.0 L77.15 -192.15 77.15 -192.1 Q77.35 -191.3 78.3 -191.3 L78.6 -191.3 75.8 -188.4 75.85 -188.7 M-79.15 -204.6 L-79.05 -205.1 -79.0 -205.25 -79.05 -205.05 -79.1 -204.9 -79.15 -204.6 M80.5 216.85 L80.75 216.85 81.1 217.25 81.1 218.0 81.1 218.75 81.1 219.15 80.7 219.9 Q80.3 220.6 79.5 220.9 L79.25 220.8 79.1 220.9 78.35 221.65 78.2 221.8 78.1 221.85 77.7 222.0 76.95 222.2 76.75 222.35 76.6 222.4 75.7 223.1 74.75 223.6 73.75 223.55 61.5 229.45 59.95 229.15 48.2 233.4 Q26.45 244.95 2.95 252.2 L-0.2 253.2 -2.25 253.4 Q-12.1 252.4 -21.5 248.35 -24.25 247.05 -27.15 246.1 -42.85 240.55 -58.2 234.45 L-64.0 231.75 -79.5 225.7 -81.4 224.65 -81.75 224.45 -82.35 224.35 -82.4 224.3 -82.75 223.95 -83.0 223.95 -83.35 223.95 -83.35 223.2 -83.5 222.05 -83.55 221.85 -83.45 221.6 Q-83.4 221.35 -83.05 221.35 L-83.0 221.3 -81.8 221.4 -81.75 221.4 -81.45 221.55 -63.1 228.8 -56.1 231.85 -54.85 232.3 -1.2 251.85 47.15 231.45 72.95 220.7 73.2 220.4 74.65 219.8 75.95 218.45 76.0 218.7 76.3 218.55 76.95 218.3 76.95 218.15 77.55 218.2 77.7 218.05 Q78.2 217.65 78.95 217.45 L80.1 216.85 80.5 216.85 M80.75 224.75 L81.2 225.2 80.85 225.9 79.5 227.55 78.95 228.25 Q76.65 229.25 74.45 230.45 L71.2 232.05 70.45 232.75 69.45 233.55 68.3 233.35 67.95 233.1 45.2 245.6 37.85 248.35 36.65 247.95 Q19.5 258.8 -1.4 266.45 L-16.8 262.35 -37.65 252.45 -39.45 252.65 -40.35 252.5 -41.3 251.95 -41.6 251.75 Q-41.75 251.6 -41.9 251.6 L-46.05 247.9 -48.15 248.45 -59.55 243.4 -82.2 229.6 -79.55 228.4 -60.3 238.4 -58.2 238.15 -26.8 251.4 -2.9 260.5 Q8.35 258.55 18.6 252.8 23.6 249.95 28.9 247.5 39.3 242.75 49.45 237.5 L70.95 228.8 73.25 227.5 74.95 226.75 75.8 226.05 76.0 226.1 76.5 225.85 77.5 225.6 77.85 225.45 79.0 224.85 79.75 224.45 79.8 224.4 79.85 224.55 80.7 224.7 80.75 224.75 M-88.3 -209.25 L-87.45 -210.7 -86.8 -211.65 Q-84.7 -214.4 -84.2 -213.25 L-84.15 -212.95 -84.3 -212.75 Q-86.0 -210.95 -86.4 -208.2 L-87.0 -207.25 -87.1 -206.25 -87.15 -205.25 -85.85 -202.35 -85.3 -201.3 Q-84.45 -198.75 -83.85 -198.75 -83.45 -198.75 -83.1 -199.0 L-82.6 -198.6 -83.4 -194.5 -82.9 -191.4 -85.1 -192.1 -88.25 -199.0 -88.35 -199.1 -88.5 -202.3 Q-89.35 -202.65 -89.5 -205.0 -89.5 -206.5 -88.85 -208.1 L-88.9 -208.85 -88.85 -208.85 -88.6 -209.05 -88.75 -208.85 -88.65 -208.6 -88.45 -209.0 -88.3 -209.25 M-80.9 -158.75 L-80.9 -158.7 -81.1 -158.4 -80.9 -158.75" fill="#a53f00" fill-rule="evenodd" stroke="none"/>
    <path d="M-74.45 34.3 L-74.15 29.0 -74.15 10.4 -74.05 10.0 -74.05 0.2 -74.1 -5.45 -74.1 -13.95 -73.9 -16.55 -73.55 -17.8 -72.75 -40.95 -72.75 -50.4 -72.7 -50.75 -72.7 -50.9 -72.55 -50.9 Q-72.5 -59.3 -71.7 -72.0 L-71.65 -73.1 -71.65 -80.65 Q-71.85 -83.3 -71.7 -87.55 L-71.45 -94.45 Q-71.6 -99.1 -70.85 -101.8 L-70.6 -102.6 Q-69.55 -105.35 -69.55 -98.5 L-70.0 -87.6 -69.95 -81.1 -69.8 -76.9 -69.95 -72.0 -70.25 -66.75 -70.75 -57.3 -70.75 -50.9 -49.15 -50.9 Q-52.3 -53.8 -54.9 -57.05 -60.3 -63.75 -63.65 -72.0 -64.55 -74.1 -65.25 -76.35 -67.3 -82.75 -66.45 -87.15 -67.9 -94.4 -60.5 -97.15 L-65.1 -104.7 Q-64.6 -105.25 -63.4 -104.35 -61.95 -103.35 -59.4 -100.2 -55.95 -95.95 -55.15 -93.7 -52.45 -90.9 -51.25 -90.65 L-51.25 -90.5 -50.6 -89.95 -50.25 -89.5 -48.4 -88.6 Q-46.5 -87.85 -45.0 -86.85 L-42.1 -85.7 -40.0 -84.75 -37.55 -83.65 -36.75 -83.2 -34.3 -82.75 -34.0 -82.65 -33.5 -82.3 -32.75 -81.75 -31.0 -81.2 Q-30.0 -80.7 -28.95 -80.3 L-26.0 -79.1 -25.4 -78.55 -25.25 -78.05 -24.7 -77.75 Q-21.3 -77.25 -18.85 -75.55 L-18.75 -75.45 -16.3 -75.05 -16.0 -74.95 -15.5 -74.6 -14.75 -74.05 -13.15 -73.8 -12.7 -73.55 -7.55 -72.0 -6.0 -71.35 7.85 -71.35 9.15 -72.0 13.05 -73.95 Q22.65 -78.65 28.85 -81.25 L29.85 -81.9 31.4 -82.75 32.5 -83.2 34.2 -84.2 35.0 -84.75 36.5 -85.25 38.95 -86.9 42.0 -89.0 43.5 -89.5 45.1 -90.4 45.2 -90.45 46.95 -91.9 49.3 -93.85 49.5 -94.2 50.2 -94.75 50.6 -95.05 50.85 -95.1 53.4 -99.3 55.0 -101.3 55.75 -103.2 55.85 -103.2 56.05 -103.85 58.2 -109.6 58.25 -109.75 58.25 -109.8 60.5 -116.6 60.7 -117.25 62.6 -121.15 65.8 -128.35 68.5 -135.75 69.25 -138.25 69.25 -138.3 69.7 -140.0 69.7 -131.85 Q68.95 -130.7 68.65 -129.35 L68.65 -129.3 68.5 -128.35 Q68.4 -127.65 68.45 -126.85 L68.8 -114.15 68.85 -111.55 Q68.9 -98.75 68.15 -86.0 L67.95 -82.1 68.15 -60.3 Q68.6 -57.05 68.7 -52.65 L68.7 -49.55 69.25 -40.05 69.4 -37.1 Q69.85 -28.15 69.7 -19.1 L70.7 -17.6 Q70.7 4.55 70.85 26.55 L70.75 33.4 Q70.05 65.15 71.25 96.6 L71.3 98.9 Q71.7 118.25 72.55 137.7 L73.25 160.4 73.4 165.7 73.95 176.3 Q74.35 182.95 75.45 189.2 75.75 191.05 75.7 192.9 L76.55 194.1 77.7 218.05 77.55 218.2 76.95 218.15 76.95 218.3 76.3 218.55 76.0 218.7 75.95 218.45 74.65 219.8 73.2 220.4 72.95 220.7 47.15 231.45 46.35 230.7 44.95 230.6 44.95 229.85 45.2 229.15 Q39.5 226.45 33.95 230.95 L30.4 230.5 31.7 227.4 27.95 224.15 26.2 224.9 23.95 224.15 22.3 225.7 22.2 223.15 19.25 222.2 18.45 220.4 Q15.95 219.55 15.7 221.65 L15.7 222.05 15.55 222.35 15.4 222.5 15.3 222.6 15.2 222.15 15.2 219.15 Q13.35 217.0 11.65 219.4 L11.2 218.15 7.6 219.05 6.2 217.15 3.7 215.9 2.45 214.4 -0.65 216.0 -1.65 218.8 Q-2.1 217.0 -3.5 217.95 L-4.75 218.05 Q-6.55 216.75 -8.05 218.4 L-8.3 219.3 -8.6 219.9 -8.8 220.0 -9.8 219.9 Q-10.5 217.4 -12.15 219.6 L-11.8 221.9 -16.7 219.65 -17.2 221.65 -23.05 216.4 -24.3 217.65 -23.85 220.95 -26.05 220.15 -27.35 220.8 -30.95 219.9 -30.6 223.7 -36.1 222.15 -34.95 225.1 -37.2 226.6 -36.8 227.75 -36.85 227.8 -37.25 228.1 -40.65 227.5 Q-42.45 227.3 -42.1 228.8 L-41.9 229.3 Q-44.1 231.6 -48.8 230.4 L-50.3 231.4 Q-54.2 229.3 -54.95 231.9 L-54.85 232.3 -56.1 231.85 Q-56.1 230.6 -58.15 229.7 -60.2 228.8 -63.1 228.8 L-81.45 221.55 -81.75 221.4 -81.8 221.4 Q-82.15 204.5 -81.05 187.55 -79.8 168.4 -80.15 149.15 -80.25 142.65 -79.3 136.4 -79.05 134.9 -79.05 133.4 -78.95 113.7 -77.7 94.45 L-76.55 78.2 -76.45 76.4 Q-76.1 57.8 -74.4 39.65 L-74.5 39.35 -74.55 37.95 -74.45 34.3 M-82.2 229.6 L-82.8 229.35 -82.6 228.5 -82.0 228.55 -81.65 228.5 -81.5 228.25 -81.3 227.9 -81.0 227.6 -80.4 228.0 -79.0 228.1 -78.6 227.9 -78.4 228.0 -77.15 228.25 -75.5 228.45 Q-75.25 228.45 -75.0 228.25 L-75.0 227.9 -75.25 227.5 -78.8 226.05 -79.5 225.7 -64.0 231.75 -58.2 238.15 -60.3 238.4 -79.55 228.4 -82.2 229.6 M76.75 222.35 L76.95 222.2 77.7 222.0 76.75 222.35 M61.5 229.45 L73.75 223.55 74.75 223.6 73.5 224.05 73.1 224.45 72.15 225.0 Q70.3 225.8 69.35 227.1 L69.65 227.35 70.5 227.6 71.75 227.0 73.5 225.85 74.75 225.6 75.1 225.95 75.8 226.05 74.95 226.75 73.25 227.5 70.95 228.8 49.45 237.5 Q55.1 234.2 61.05 231.3 62.85 230.5 61.5 229.45" fill="url(#gradient0)" fill-rule="evenodd" stroke="none"/>
    <path d="M-85.85 -202.35 L-85.6 -202.4 -85.3 -201.3 -85.85 -202.35" fill="#ffffcc" fill-rule="evenodd" stroke="none"/>
    <path d="M-81.3 -143.55 L-81.5 -141.35 -81.45 -143.4 -81.3 -143.55 M75.55 -177.6 L75.35 -177.55 Q75.2 -178.05 75.2 -178.55 L75.55 -177.6 M-81.3 -149.5 L-81.35 -149.1 -81.35 -149.05 -81.5 -147.75 -81.45 -149.65 -81.3 -149.8 -81.3 -149.5" fill="#ff9933" fill-rule="evenodd" stroke="none"/>
    <path d="M-80.85 -163.75 L-80.9 -163.65 -80.9 -163.7 -80.85 -163.75 M75.8 -177.65 L75.55 -177.6 75.2 -178.55 75.6 -181.2 75.8 -177.65 M-80.9 -158.75 L-80.85 -158.8 -80.9 -158.7 -80.9 -158.75" fill="#cc6600" fill-rule="evenodd" stroke="none"/>
    <path d="M67.2 -186.95 L67.2 -187.25 67.45 -187.55 67.2 -186.95 M49.5 -131.55 L49.5 -131.5 49.2 -130.7 49.1 -130.4 49.5 -131.55 M76.55 194.1 L75.7 192.9 Q75.75 191.05 75.45 189.2 74.35 182.95 73.95 176.3 L73.4 165.7 73.25 160.4 72.55 137.7 Q71.7 118.25 71.3 98.9 L71.25 96.6 Q70.05 65.15 70.75 33.4 L70.85 26.55 Q70.7 4.55 70.7 -17.6 L69.7 -19.1 Q69.85 -28.15 69.4 -37.1 L69.25 -40.05 68.7 -49.55 68.7 -52.65 Q68.6 -57.05 68.15 -60.3 L67.95 -82.1 68.15 -86.0 Q68.9 -98.75 68.85 -111.55 L68.8 -114.15 68.45 -126.85 Q68.4 -127.65 68.5 -128.35 L68.65 -129.3 68.65 -129.35 Q68.95 -130.7 69.7 -131.85 L69.7 -51.35 70.05 -50.9 70.45 -50.9 70.45 -50.75 Q71.05 -40.75 71.1 -30.6 L71.2 -27.55 71.95 -14.1 Q73.3 19.9 72.85 54.15 72.45 87.1 73.35 119.8 L73.65 127.25 73.65 133.65 Q73.25 141.7 74.35 149.7 74.85 153.45 74.95 156.9 75.45 175.6 76.55 194.1" fill="#c60000" fill-rule="evenodd" stroke="none"/>
    <path d="M-34.0 -87.65 L-34.5 -87.75 -35.3 -88.25 -34.0 -87.65 M-72.95 -131.0 L-72.5 -130.15 -72.35 -129.3 -72.25 -128.5 -72.25 -128.35 -72.25 -127.65 -72.25 -126.8 -72.1 -126.35 -71.2 -125.0 -68.05 -118.85 Q-67.25 -117.35 -66.0 -114.3 L-63.95 -109.8 Q-61.15 -104.5 -58.4 -100.6 L-53.75 -95.8 -51.3 -93.3 -50.5 -92.85 -47.5 -91.35 -46.75 -91.05 -46.6 -90.8 -46.4 -90.5 -44.75 -90.0 -43.4 -89.5 -43.15 -89.4 -40.45 -88.15 Q-38.3 -87.2 -36.0 -86.5 L-34.0 -85.4 -32.0 -84.4 -30.6 -83.8 -28.75 -82.85 Q-25.65 -81.95 -22.85 -80.65 L-22.25 -80.3 -22.05 -80.2 -12.75 -76.85 -10.25 -76.5 -9.7 -76.2 -7.6 -75.55 -3.75 -74.05 -3.45 -73.95 -2.1 -73.9 -1.9 -73.75 3.35 -73.2 3.5 -73.1 4.0 -73.0 7.75 -74.0 Q9.7 -74.55 10.9 -75.55 L11.1 -75.7 23.35 -81.15 Q26.95 -82.8 29.9 -84.95 L33.35 -86.7 35.85 -87.85 38.85 -89.85 42.3 -91.5 45.6 -93.75 47.45 -94.85 49.0 -95.9 49.1 -96.15 49.25 -96.4 49.45 -96.7 49.6 -96.9 49.9 -97.0 53.05 -103.0 Q57.1 -111.2 59.2 -118.7 L62.45 -129.95 64.05 -135.55 64.85 -138.45 Q65.35 -139.9 66.1 -139.7 L66.15 -139.7 66.2 -140.15 67.1 -142.7 67.1 -143.15 67.2 -143.95 67.5 -144.75 67.65 -145.6 68.1 -147.25 68.6 -148.9 68.6 -149.35 68.65 -150.15 69.7 -153.2 69.7 -140.0 69.25 -138.3 69.25 -138.25 68.5 -135.75 65.8 -128.35 62.6 -121.15 60.7 -117.25 60.5 -116.6 58.25 -109.8 58.2 -109.6 56.05 -103.85 55.75 -103.2 55.0 -101.3 53.4 -99.3 50.85 -95.1 50.6 -95.05 50.2 -94.75 49.5 -94.2 49.3 -93.85 46.95 -91.9 45.2 -90.45 45.1 -90.4 43.5 -89.5 42.0 -89.0 38.95 -86.9 36.5 -85.25 35.0 -84.75 34.2 -84.2 32.5 -83.2 31.4 -82.75 29.85 -81.9 28.85 -81.25 Q22.65 -78.65 13.05 -73.95 L9.15 -72.0 7.85 -71.35 -6.0 -71.35 -7.55 -72.0 -12.7 -73.55 -13.15 -73.8 -14.75 -74.05 -15.5 -74.6 -16.0 -74.95 -16.3 -75.05 -18.75 -75.45 -18.85 -75.55 Q-21.3 -77.25 -24.7 -77.75 L-25.25 -78.05 -25.4 -78.55 -26.0 -79.1 -28.95 -80.3 Q-30.0 -80.7 -31.0 -81.2 L-32.75 -81.75 -33.5 -82.3 -34.0 -82.65 -34.3 -82.75 -36.75 -83.2 -37.55 -83.65 -40.0 -84.75 -42.1 -85.7 -45.0 -86.85 Q-46.5 -87.85 -48.4 -88.6 L-50.25 -89.5 -50.6 -89.95 -51.25 -90.5 -51.25 -90.65 Q-52.45 -90.9 -55.15 -93.7 -55.95 -95.95 -59.4 -100.2 -61.95 -103.35 -63.4 -104.35 L-66.15 -108.45 -69.8 -116.5 -70.8 -119.0 -70.8 -111.55 -70.85 -101.8 Q-71.6 -99.1 -71.45 -94.45 L-71.7 -87.55 Q-71.85 -83.3 -71.65 -80.65 L-71.65 -73.1 -71.7 -72.0 Q-72.5 -59.3 -72.55 -50.9 L-72.7 -50.9 -72.7 -50.75 -72.75 -50.4 -72.75 -40.95 -73.55 -17.8 -73.9 -16.55 -74.1 -13.95 -74.1 -5.45 -74.05 0.2 -74.05 10.0 -74.15 10.4 -74.15 29.0 -74.45 34.3 Q-74.95 33.35 -75.0 30.75 L-75.0 24.7 -75.15 22.75 -75.0 18.95 -75.0 16.25 -75.4 12.2 -75.25 2.9 -74.9 -2.85 -75.35 -5.4 -75.5 -12.25 Q-75.5 -19.2 -74.6 -41.35 L-74.6 -70.4 -74.4 -70.85 -74.05 -96.2 Q-73.85 -97.2 -73.75 -99.55 L-73.4 -102.95 -72.95 -131.0 M80.7 219.9 L80.75 219.9 81.1 220.25 81.1 220.8 81.1 221.15 81.1 221.9 81.1 222.15 81.1 222.65 81.1 222.7 81.1 224.05 81.1 224.45 80.95 224.65 80.75 224.7 80.7 224.7 79.85 224.55 79.8 224.4 79.75 224.45 79.0 224.85 77.85 225.45 77.5 225.6 76.5 225.85 76.0 226.1 75.8 226.05 75.1 225.95 74.75 225.6 73.5 225.85 71.75 227.0 70.5 227.6 69.65 227.35 69.35 227.1 Q70.3 225.8 72.15 225.0 L73.1 224.45 73.5 224.05 74.75 223.6 75.7 223.1 76.6 222.4 76.75 222.35 77.7 222.0 78.1 221.85 78.2 221.8 78.35 221.65 79.1 220.9 79.25 220.8 79.5 220.9 Q80.3 220.6 80.7 219.9 M-82.9 228.35 L-82.9 227.35 -83.0 226.6 -83.15 226.45 -83.15 226.25 -83.15 225.85 -83.15 225.7 -83.2 225.65 -83.35 225.45 -83.4 225.4 -83.4 224.7 -83.35 223.95 -83.0 223.95 -82.75 223.95 -82.4 224.3 -82.35 224.35 -81.75 224.45 -81.4 224.65 -79.5 225.7 -78.8 226.05 -75.25 227.5 -75.0 227.9 -75.0 228.25 Q-75.25 228.45 -75.5 228.45 L-77.15 228.25 -78.4 228.0 -78.6 227.9 -79.0 228.1 -80.4 228.0 -81.0 227.6 -81.3 227.9 -81.5 228.25 -81.65 228.5 -82.0 228.55 -82.6 228.5 -82.85 228.4 -82.9 228.35 M47.15 231.45 L-1.2 251.85 -54.85 232.3 -54.95 231.9 Q-54.2 229.3 -50.3 231.4 L-48.8 230.4 Q-44.1 231.6 -41.9 229.3 L-42.1 228.8 Q-42.45 227.3 -40.65 227.5 L-37.25 228.1 -36.85 227.8 -36.8 227.75 -37.2 226.6 -34.95 225.1 -36.1 222.15 -30.6 223.7 -30.95 219.9 -27.35 220.8 -26.05 220.15 -23.85 220.95 -24.3 217.65 -23.05 216.4 -17.2 221.65 -16.7 219.65 -11.8 221.9 -12.15 219.6 Q-10.5 217.4 -9.8 219.9 L-8.8 220.0 -8.6 219.9 -8.3 219.3 -8.05 218.4 Q-6.55 216.75 -4.75 218.05 L-3.5 217.95 Q-2.1 217.0 -1.65 218.8 L-0.65 216.0 2.45 214.4 3.7 215.9 6.2 217.15 7.6 219.05 11.2 218.15 11.65 219.4 Q13.35 217.0 15.2 219.15 L15.2 222.15 15.3 222.6 15.4 222.5 15.55 222.35 15.7 222.05 15.7 221.65 Q15.95 219.55 18.45 220.4 L19.25 222.2 22.2 223.15 22.3 225.7 23.95 224.15 26.2 224.9 27.95 224.15 31.7 227.4 30.4 230.5 33.95 230.95 Q39.5 226.45 45.2 229.15 L44.95 229.85 44.95 230.6 46.35 230.7 47.15 231.45 M-56.1 231.85 L-63.1 228.8 Q-60.2 228.8 -58.15 229.7 -56.1 230.6 -56.1 231.85 M-64.0 231.75 L-58.2 234.45 Q-42.85 240.55 -27.15 246.1 -24.25 247.05 -21.5 248.35 -12.1 252.4 -2.25 253.4 L-0.2 253.2 2.95 252.2 Q26.45 244.95 48.2 233.4 L59.95 229.15 61.5 229.45 Q62.85 230.5 61.05 231.3 55.1 234.2 49.45 237.5 39.3 242.75 28.9 247.5 23.6 249.95 18.6 252.8 8.35 258.55 -2.9 260.5 L-26.8 251.4 -58.2 238.15 -64.0 231.75 M-70.35 -165.15 L-73.8 -179.55 -74.35 -184.3 -70.8 -170.5 -70.35 -167.4 -70.35 -165.15 M-61.65 -113.75 L-61.3 -113.0 -61.25 -112.65 -61.35 -112.85 -61.65 -113.75" fill="#690000" fill-rule="evenodd" stroke="none"/>
    <path d="M-80.85 -163.75 L-80.75 -172.5 -81.3 -173.45 -81.6 -175.65 -81.65 -180.65 -81.65 -183.65 Q-82.05 -185.7 -84.0 -186.65 -87.95 -188.5 -90.7 -193.05 L-93.35 -197.4 -93.35 -199.15 -93.35 -201.45 -93.35 -201.5 -93.4 -202.05 -93.45 -203.9 Q-93.6 -206.1 -92.7 -207.95 L-92.2 -209.1 Q-91.25 -211.6 -89.35 -213.9 -88.75 -214.15 -88.25 -214.55 -83.65 -218.65 -77.6 -216.65 L-75.5 -214.15 -68.1 -215.0 -59.9 -215.0 Q-49.7 -216.8 -39.0 -215.45 L-39.0 -215.6 -38.4 -215.6 -35.35 -215.5 -35.3 -215.5 -32.9 -215.7 -28.55 -215.8 -5.65 -215.8 14.95 -216.5 15.0 -216.6 15.15 -216.6 17.1 -216.2 20.1 -216.35 20.55 -216.3 20.8 -216.35 24.05 -216.55 28.9 -216.5 39.5 -216.35 44.25 -216.25 46.65 -216.0 52.55 -215.6 58.55 -216.15 72.6 -216.25 73.95 -217.75 73.95 -217.9 76.2 -217.95 76.35 -217.95 78.25 -217.8 Q85.15 -216.75 88.55 -209.9 L89.2 -208.5 89.45 -205.9 90.25 -204.4 90.2 -203.3 90.2 -203.25 90.25 -203.15 Q90.05 -196.1 85.65 -190.5 L77.55 -185.65 76.9 -183.0 76.25 -183.85 Q76.45 -182.8 75.8 -181.5 L75.6 -181.2 75.2 -178.55 Q75.2 -178.05 75.35 -177.55 L75.55 -177.6 75.8 -177.65 76.45 -177.9 76.4 -170.55 76.1 -168.0 75.65 -150.3 75.85 -149.95 76.45 -149.05 76.55 -142.6 77.2 -141.55 77.2 -52.75 77.2 -52.45 77.6 -42.95 77.6 -26.85 Q77.9 -26.5 78.3 -26.35 L78.7 -23.05 Q79.35 -17.95 79.1 -12.8 78.7 -5.35 79.6 2.05 80.0 5.05 79.8 8.2 78.9 20.65 78.95 33.4 78.95 34.1 78.2 33.85 L78.2 46.3 Q79.85 63.55 79.55 80.9 79.25 99.5 80.15 117.9 80.75 129.4 81.7 141.1 L81.85 144.15 Q82.45 174.0 84.0 204.4 L84.15 207.4 Q84.35 215.85 85.4 223.9 L85.7 228.8 -0.05 271.6 Q-5.8 272.25 -11.15 269.8 -14.35 268.35 -17.15 266.7 -20.25 265.0 -23.7 264.2 -26.05 263.75 -28.25 262.5 -29.45 261.85 -30.8 261.55 L-87.55 234.15 -89.8 230.6 -86.3 122.4 -85.65 121.3 -84.3 83.4 -83.3 81.95 -83.3 61.4 -82.3 59.9 -80.3 15.65 -80.55 -50.85 -80.75 -50.9 -80.8 -50.95 -81.25 -52.05 -80.7 -52.75 -81.5 -141.35 -81.3 -143.55 -81.3 -156.5 -81.2 -163.25 -81.1 -163.4 -80.9 -163.65 -80.85 -163.75 M76.15 -212.5 L76.05 -212.5 75.75 -212.2 72.8 -212.2 70.2 -212.4 69.6 -212.25 51.5 -212.25 46.6 -211.7 43.35 -211.5 25.25 -211.5 22.1 -211.8 1.1 -211.75 Q-0.75 -211.05 -4.3 -211.0 L-9.75 -211.0 -17.9 -211.0 -18.8 -210.75 -38.0 -210.75 -38.75 -210.85 -38.9 -210.9 -41.8 -211.35 -42.75 -211.5 -47.05 -211.75 -51.2 -211.55 -51.9 -211.5 -53.75 -211.4 -55.35 -211.25 -74.5 -211.25 -75.0 -210.65 Q-77.2 -210.45 -78.1 -208.9 L-78.6 -207.0 -79.0 -205.25 -79.05 -205.1 -79.15 -204.6 -79.8 -200.75 -79.8 -197.3 -79.6 -193.8 -79.55 -193.5 -79.35 -191.8 -79.8 -191.35 -79.35 -191.2 -79.35 -189.05 -78.75 -188.3 -78.35 -187.05 -78.3 -183.1 -77.3 -181.5 -76.3 -172.5 -72.15 -156.15 -72.15 -156.05 -72.05 -155.9 -71.85 -155.2 -71.65 -154.25 -71.65 -154.05 -71.65 -153.6 -71.45 -153.4 -70.65 -149.25 -70.65 -149.05 -70.6 -149.0 -69.75 -144.35 -69.65 -143.8 -69.65 -143.65 -69.6 -143.6 -67.35 -132.8 -65.65 -126.55 Q-63.8 -118.75 -60.0 -110.45 -57.0 -104.05 -54.75 -101.15 -50.7 -95.95 -43.5 -92.15 -40.4 -90.55 -35.3 -88.25 L-34.5 -87.75 -34.0 -87.65 -27.9 -84.95 Q-13.55 -78.85 -10.5 -78.35 -9.25 -77.6 -6.35 -76.45 -2.75 -75.05 -0.45 -74.6 L1.2 -73.95 Q1.7 -73.95 1.95 -74.4 L2.0 -74.4 Q6.0 -74.4 22.8 -82.8 L32.85 -87.95 38.65 -90.55 Q41.65 -91.95 43.65 -93.45 52.4 -100.0 53.15 -105.3 L54.35 -109.85 54.6 -110.35 54.65 -110.7 54.75 -111.1 55.0 -111.55 55.1 -111.8 55.35 -112.65 55.6 -113.45 55.6 -113.9 55.6 -114.3 56.1 -116.1 56.65 -117.5 57.05 -118.8 Q59.45 -124.15 61.15 -130.25 62.9 -136.5 65.0 -148.35 L68.7 -166.35 70.55 -176.0 70.9 -178.0 Q71.75 -178.6 72.15 -183.95 L72.25 -185.35 Q72.7 -187.35 73.05 -192.2 L73.4 -200.35 73.35 -204.75 73.45 -205.05 73.35 -205.15 72.9 -210.3 Q74.65 -206.9 75.1 -202.75 L75.3 -195.3 Q75.05 -193.0 75.2 -191.95 L75.1 -189.9 Q75.05 -188.65 75.7 -188.65 L75.85 -188.7 75.8 -188.4 78.6 -191.3 79.9 -191.75 Q81.7 -192.3 83.1 -195.6 L83.15 -195.65 83.3 -196.0 Q85.5 -200.3 85.5 -203.85 L85.5 -205.9 86.15 -207.25 Q86.15 -210.0 83.45 -212.75 82.35 -213.85 81.75 -213.85 L80.4 -214.35 Q79.3 -214.6 78.15 -213.3 L78.1 -213.25 77.9 -213.25 76.45 -212.85 76.2 -212.55 76.15 -212.5 M76.2 -197.0 L76.2 -197.45 76.3 -197.4 76.35 -197.05 76.2 -197.0 M72.35 -206.3 L72.4 -206.35 72.4 -206.1 72.35 -206.3 M1.3 -75.75 L1.25 -75.65 0.75 -75.9 1.3 -75.75 M69.7 -153.2 L68.65 -150.15 68.6 -149.35 68.6 -148.9 68.1 -147.25 67.65 -145.6 67.5 -144.75 67.2 -143.95 67.1 -143.15 67.1 -142.7 66.2 -140.15 66.15 -139.7 66.1 -139.7 Q65.35 -139.9 64.85 -138.45 L64.05 -135.55 62.45 -129.95 59.2 -118.7 Q57.1 -111.2 53.05 -103.0 L49.9 -97.0 49.6 -96.9 49.45 -96.7 49.25 -96.4 49.1 -96.15 49.0 -95.9 47.45 -94.85 45.6 -93.75 42.3 -91.5 38.85 -89.85 35.85 -87.85 33.35 -86.7 29.9 -84.95 Q26.95 -82.8 23.35 -81.15 L11.1 -75.7 10.9 -75.55 Q9.7 -74.55 7.75 -74.0 L4.0 -73.0 3.5 -73.1 3.35 -73.2 -1.9 -73.75 -2.1 -73.9 -3.45 -73.95 -3.75 -74.05 -7.6 -75.55 -9.7 -76.2 -10.25 -76.5 -12.75 -76.85 -22.05 -80.2 -22.25 -80.3 -22.85 -80.65 Q-25.65 -81.95 -28.75 -82.85 L-30.6 -83.8 -32.0 -84.4 -34.0 -85.4 -36.0 -86.5 Q-38.3 -87.2 -40.45 -88.15 L-43.15 -89.4 -43.4 -89.5 -44.75 -90.0 -46.4 -90.5 -46.6 -90.8 -46.75 -91.05 -47.5 -91.35 -50.5 -92.85 -51.3 -93.3 -53.75 -95.8 -58.4 -100.6 Q-61.15 -104.5 -63.95 -109.8 L-66.0 -114.3 Q-67.25 -117.35 -68.05 -118.85 L-71.2 -125.0 -72.1 -126.35 -72.25 -126.8 -72.25 -127.65 -72.25 -128.35 -72.25 -128.5 -72.35 -129.3 -72.5 -130.15 -72.95 -131.0 -73.05 -131.3 -73.2 -131.8 -73.25 -133.45 -73.5 -134.3 -73.8 -135.05 -74.25 -135.95 -74.35 -136.75 -74.5 -137.55 -74.8 -138.4 -75.25 -139.25 -75.25 -140.05 -75.35 -140.9 -75.5 -141.7 -75.6 -142.0 -75.4 -128.35 -75.35 -126.85 -75.55 -96.65 -76.05 -72.0 -76.6 -57.65 -76.6 -57.45 -76.6 -57.05 -77.1 -50.9 -77.3 -50.9 -77.3 -50.75 -77.3 -49.95 Q-76.65 -32.95 -76.3 -16.6 L-77.3 -15.35 Q-76.1 5.6 -76.6 26.4 -77.0 42.25 -77.9 58.15 L-78.85 73.1 -78.9 74.7 Q-78.75 82.75 -80.8 90.15 L-84.8 211.65 -84.2 216.8 Q-83.75 217.45 -83.8 218.25 L-83.9 219.75 -83.65 221.65 -83.65 221.7 -83.55 221.85 -83.5 222.05 -83.35 223.2 -83.35 223.95 -83.4 224.7 -83.4 225.4 -83.35 225.45 -83.2 225.65 -83.15 226.25 -83.15 226.45 -83.0 226.6 -82.9 227.35 -82.9 228.35 -82.8 229.35 -82.2 229.6 -59.55 243.4 -48.15 248.45 -46.05 247.9 -41.9 251.6 Q-41.75 251.6 -41.6 251.75 L-41.3 251.95 -40.35 252.5 -39.45 252.65 -37.65 252.45 -16.8 262.35 -1.4 266.45 Q19.5 258.8 36.65 247.95 L37.85 248.35 45.2 245.6 67.95 233.1 68.3 233.35 69.45 233.55 70.45 232.75 71.2 232.05 74.45 230.45 Q76.65 229.25 78.95 228.25 L79.5 227.55 80.85 225.9 81.2 225.2 80.75 224.75 80.75 224.7 80.95 224.65 81.1 224.45 81.1 224.05 81.1 222.7 81.1 222.65 81.1 222.15 81.1 221.9 81.1 221.15 81.1 220.8 81.1 220.25 80.75 219.9 80.7 219.9 81.1 219.15 81.1 218.75 81.1 218.0 81.1 217.25 80.75 216.85 80.5 216.85 79.35 188.45 79.25 186.15 78.3 158.6 77.9 155.9 77.8 155.15 Q78.1 142.2 76.85 129.4 75.7 117.8 75.5 106.15 L75.5 89.65 Q75.7 77.3 75.25 64.9 74.7 50.75 74.7 36.4 L75.7 35.4 74.85 -15.55 75.05 -17.65 75.05 -21.45 Q75.05 -25.85 74.05 -40.3 L73.35 -50.9 73.1 -54.15 73.45 -63.3 73.1 -72.0 73.0 -74.4 Q72.95 -76.2 73.2 -80.0 73.15 -81.65 72.75 -82.95 L71.7 -162.05 69.7 -153.2 M39.85 -186.3 Q41.6 -188.9 40.1 -186.5 L39.85 -186.3 M-84.15 -212.95 L-84.2 -213.25 Q-84.7 -214.4 -86.8 -211.65 L-87.45 -210.7 -88.3 -209.25 -88.6 -209.05 -88.85 -208.85 -88.9 -208.85 -88.85 -208.1 Q-89.5 -206.5 -89.5 -205.0 -89.35 -202.65 -88.5 -202.3 L-88.35 -199.1 -88.35 -199.05 -88.25 -199.0 -85.1 -192.1 -82.9 -191.4 -83.4 -194.5 -82.6 -198.6 -82.75 -199.35 Q-82.25 -200.05 -81.9 -201.5 L-81.4 -205.0 -80.55 -207.85 Q-79.85 -208.5 -79.25 -210.1 -78.5 -212.1 -78.5 -213.15 -78.5 -215.25 -79.85 -214.3 L-80.2 -214.55 Q-81.25 -215.1 -82.75 -214.1 L-83.05 -213.9 -84.15 -212.95 M-36.85 -195.4 L-39.05 -195.5 -39.05 -195.55 -37.8 -195.45 -36.85 -195.4 M-80.9 -158.7 L-80.85 -158.8 -80.9 -158.75 -81.1 -158.4 -80.9 -158.7 M-61.65 -113.75 L-61.35 -112.85 -61.25 -112.65 -61.3 -113.0 -61.65 -113.75 M-81.5 -147.75 L-81.35 -149.05 -81.35 -149.1 -81.3 -149.5 -81.45 -143.4 -81.5 -147.75" fill="#330000" fill-rule="evenodd" stroke="none"/>
    <path d="M-59.75 -135.65 L-60.05 -135.5 -61.05 -138.95 -61.05 -139.0 -61.0 -139.0 -60.5 -139.0 -59.75 -138.1 -59.75 -137.3 -59.75 -136.45 -59.75 -135.65 M-67.7 -160.45 L-67.75 -160.45 -67.75 -160.5 -67.7 -160.45 M49.25 -107.7 L49.1 -107.5 49.0 -107.4 49.25 -107.7" fill="#960000" fill-rule="evenodd" stroke="none"/>
    <path d="M81.75 -213.85 Q82.35 -213.85 83.45 -212.75 86.15 -210.0 86.15 -207.25 L85.5 -205.9 85.1 -205.45 84.7 -205.0 84.55 -204.85 83.5 -204.25 Q82.8 -204.25 82.3 -204.6 L82.0 -204.85 Q81.15 -205.75 80.85 -207.8 80.6 -209.6 80.75 -211.4 80.75 -212.65 81.0 -213.25 81.25 -213.85 81.75 -213.85 M-79.85 -214.3 Q-78.5 -215.25 -78.5 -213.15 -78.5 -212.1 -79.25 -210.1 -79.85 -208.5 -80.55 -207.85 -81.0 -207.5 -81.5 -207.5 L-81.6 -207.5 Q-82.8 -207.55 -82.85 -209.0 L-82.55 -210.75 -82.55 -210.85 -82.1 -211.85 -80.9 -213.45 -80.65 -213.7 -79.85 -214.3" fill="#ffffff" fill-rule="evenodd" stroke="none"/>
    <path d="M40.35 -96.45 L33.45 -91.85 24.6 -86.7 13.6 -80.4 Q6.35 -76.45 4.4 -75.9 4.15 -75.45 3.35 -75.45 L1.3 -75.75 0.75 -75.9 -3.6 -77.2 -7.65 -78.65 Q-9.75 -79.7 -10.65 -79.75 -15.1 -81.35 -19.8 -83.25 -24.2 -84.65 -29.95 -87.4 L-39.75 -92.25 Q-44.55 -94.5 -48.65 -97.55 -53.0 -100.8 -54.45 -103.4 -58.5 -110.95 -59.7 -114.8 -62.15 -122.45 -63.0 -126.35 L-65.15 -137.75 -67.05 -149.3 -68.2 -155.35 -69.0 -159.75 -69.15 -160.75 -69.15 -161.05 Q-69.1 -162.55 -68.5 -161.75 L-68.15 -161.25 -67.75 -160.5 -67.75 -160.45 -67.7 -160.45 Q-66.65 -160.4 -65.85 -156.55 -65.5 -155.4 -64.9 -152.5 L-64.8 -152.1 -62.5 -152.1 -62.05 -154.8 -62.8 -160.0 -63.8 -162.45 -62.2 -163.4 -58.8 -171.25 -57.05 -172.05 -56.55 -173.7 -50.05 -175.3 -48.0 -177.9 -35.65 -174.75 Q-33.65 -174.35 -31.75 -173.5 -28.05 -171.85 -24.6 -173.8 L-22.55 -174.55 -23.05 -173.85 -23.1 -173.35 -22.7 -172.75 -15.5 -173.7 15.8 -173.4 Q24.85 -172.7 34.3 -175.8 L38.45 -176.05 Q45.7 -174.05 54.5 -175.45 L56.6 -171.85 56.7 -168.3 56.5 -168.35 56.45 -168.3 56.05 -168.0 55.85 -167.7 55.85 -167.25 55.85 -166.85 55.85 -166.45 56.1 -166.0 56.3 -165.55 56.35 -165.25 56.35 -165.15 Q56.55 -164.95 56.7 -164.85 L56.7 -163.8 57.35 -163.15 57.35 -163.1 57.35 -162.7 57.35 -162.3 57.35 -161.9 57.75 -161.45 58.05 -161.05 58.0 -161.1 Q56.5 -161.25 56.1 -159.9 55.75 -158.55 55.75 -157.15 L55.75 -157.0 54.9 -155.95 Q54.75 -155.6 54.75 -155.25 L54.75 -152.75 54.65 -151.1 54.5 -150.3 53.9 -149.35 53.75 -148.65 53.75 -148.05 53.75 -147.75 53.75 -147.2 53.75 -146.95 53.75 -146.4 53.25 -145.6 53.15 -145.35 53.05 -145.25 52.75 -144.5 52.75 -144.0 52.75 -143.95 52.75 -143.65 52.75 -142.95 52.65 -142.3 52.55 -141.65 52.3 -141.2 51.75 -140.6 51.6 -139.85 50.85 -138.05 50.75 -137.3 50.05 -136.4 49.75 -135.65 49.75 -134.85 49.65 -133.2 49.5 -131.55 49.1 -130.4 48.85 -129.8 48.45 -129.05 48.1 -128.35 48.0 -128.2 Q46.85 -127.8 45.9 -127.1 45.75 -127.0 45.75 -126.55 L45.75 -125.7 45.65 -124.9 45.5 -124.1 45.05 -123.2 44.8 -122.4 44.75 -121.6 44.4 -120.8 43.5 -119.05 43.05 -118.05 41.95 -118.2 41.0 -118.3 40.3 -117.85 39.85 -117.15 39.6 -116.45 39.0 -115.5 38.75 -114.7 38.5 -113.9 37.75 -113.0 37.6 -112.25 37.35 -111.55 -49.35 -111.55 -49.75 -112.2 -49.75 -113.0 -49.75 -113.9 -50.5 -114.7 Q-51.15 -115.5 -51.5 -116.45 L-51.75 -118.0 -52.05 -118.8 -52.65 -120.55 -52.75 -121.3 -53.05 -122.1 -53.65 -123.8 -53.75 -124.65 -54.1 -125.4 -54.6 -126.4 -54.75 -127.1 -55.5 -127.9 -56.25 -128.35 -56.5 -128.5 -57.2 -129.1 -57.75 -129.85 -57.75 -130.7 -57.85 -132.3 -58.0 -133.15 -58.75 -134.0 -59.45 -134.9 -59.75 -135.65 -59.75 -136.45 -59.75 -137.3 -59.75 -138.1 -60.5 -139.0 -61.0 -139.0 -61.05 -139.0 -61.05 -138.95 -60.05 -135.5 -59.05 -131.55 -57.1 -123.1 Q-55.85 -117.85 -54.75 -114.85 -53.2 -110.65 -48.65 -104.15 -44.5 -98.55 -44.5 -98.3 -44.5 -97.75 -44.9 -97.3 L-44.95 -97.25 Q-41.95 -95.35 -37.95 -93.3 -25.8 -86.95 -16.35 -83.85 L-5.75 -79.85 0.6 -78.0 0.9 -77.9 0.9 -78.0 1.5 -78.15 1.9 -77.95 8.7 -82.1 12.15 -84.75 Q14.85 -86.6 14.85 -85.15 14.85 -84.85 13.05 -83.45 L13.65 -83.55 14.1 -83.3 14.25 -82.95 14.15 -82.65 23.7 -88.1 33.75 -93.75 38.15 -97.0 Q41.85 -99.5 41.85 -98.15 41.85 -97.65 40.35 -96.45 M-63.45 -181.9 L-63.3 -181.9 Q-63.35 -181.8 -63.4 -181.85 L-63.7 -181.7 -63.7 -181.75 -63.45 -181.9 M-7.8 -190.65 L-1.25 -190.55 -4.3 -187.85 -0.25 -184.85 1.7 -182.4 -1.0 -181.3 -1.55 -182.7 -5.8 -182.7 -7.8 -190.65 M58.75 -160.8 L58.75 -160.7 58.65 -160.8 58.75 -160.8 M49.0 -107.4 L46.3 -104.75 45.75 -104.85 Q45.55 -104.9 45.55 -105.55 45.55 -106.2 49.3 -117.5 53.55 -130.2 54.65 -134.3 L56.75 -141.3 Q58.1 -145.75 58.35 -148.7 58.7 -153.5 59.5 -155.9 60.5 -158.85 61.35 -158.8 L61.7 -157.85 61.55 -155.85 61.35 -153.2 Q61.35 -148.45 59.5 -141.2 57.05 -132.15 55.7 -126.15 54.5 -120.75 51.5 -112.7 L49.25 -107.7 49.0 -107.4 M-70.85 -101.8 L-70.8 -111.55 -70.8 -119.0 -69.8 -116.5 -66.15 -108.45 -63.4 -104.35 Q-64.6 -105.25 -65.1 -104.7 L-60.5 -97.15 Q-67.9 -94.4 -66.45 -87.15 -67.3 -82.75 -65.25 -76.35 -64.55 -74.1 -63.65 -72.0 -60.3 -63.75 -54.9 -57.05 -52.3 -53.8 -49.15 -50.9 L-70.75 -50.9 -70.75 -57.3 -70.25 -66.75 -69.95 -72.0 -69.8 -76.9 -69.95 -81.1 -70.0 -87.6 -69.55 -98.5 Q-69.55 -105.35 -70.6 -102.6 L-70.85 -101.8 M-1.3 -180.25 Q-2.2 -179.85 -1.3 -180.5 L-1.3 -180.25" fill="url(#gradient1)" fill-rule="evenodd" stroke="none"/>
    <path d="M57.95 -167.45 L58.0 -167.4 58.15 -166.95 58.35 -166.6 58.6 -166.15 58.6 -165.7 58.6 -165.45 58.6 -165.35 58.65 -165.3 58.75 -165.05 58.75 -164.9 59.0 -164.6 59.05 -164.45 59.1 -164.1 59.5 -163.65 59.7 -163.4 59.75 -163.2 60.0 -162.4 60.75 -161.55 61.4 -160.85 62.85 -159.6 63.25 -158.4 63.3 -157.25 62.9 -153.8 63.05 -150.45 Q63.05 -148.35 56.85 -124.25 L54.9 -117.9 52.7 -111.3 Q51.8 -108.25 48.5 -103.55 45.05 -98.55 43.15 -98.4 L40.35 -96.45 Q41.85 -97.65 41.85 -98.15 41.85 -99.5 38.15 -97.0 L33.75 -93.75 23.7 -88.1 14.15 -82.65 14.25 -82.95 14.1 -83.3 13.65 -83.55 13.05 -83.45 Q14.85 -84.85 14.85 -85.15 14.85 -86.6 12.15 -84.75 L8.7 -82.1 1.9 -77.95 1.5 -78.15 0.9 -78.0 0.9 -77.9 0.6 -78.0 -5.75 -79.85 -16.35 -83.85 Q-25.8 -86.95 -37.95 -93.3 -41.95 -95.35 -44.95 -97.25 L-44.9 -97.3 Q-44.5 -97.75 -44.5 -98.3 -44.5 -98.55 -48.65 -104.15 -53.2 -110.65 -54.75 -114.85 -55.85 -117.85 -57.1 -123.1 L-59.05 -131.55 -60.05 -135.5 -59.75 -135.65 -59.45 -134.9 -58.75 -134.0 -58.0 -133.15 -57.85 -132.3 -57.75 -130.7 -57.75 -129.85 -57.2 -129.1 -56.5 -128.5 -56.25 -128.35 -55.5 -127.9 -54.75 -127.1 -54.6 -126.4 -54.1 -125.4 -53.75 -124.65 -53.65 -123.8 -53.05 -122.1 -52.75 -121.3 -52.65 -120.55 -52.05 -118.8 -51.75 -118.0 -51.5 -116.45 Q-51.15 -115.5 -50.5 -114.7 L-49.75 -113.9 -49.75 -113.0 -49.75 -112.2 -49.35 -111.55 37.35 -111.55 37.6 -112.25 37.75 -113.0 38.5 -113.9 38.75 -114.7 39.0 -115.5 39.6 -116.45 39.85 -117.15 40.3 -117.85 41.0 -118.3 41.95 -118.2 43.05 -118.05 43.5 -119.05 44.4 -120.8 44.75 -121.6 44.8 -122.4 45.05 -123.2 45.5 -124.1 45.65 -124.9 45.75 -125.7 45.75 -126.55 Q45.75 -127.0 45.9 -127.1 46.85 -127.8 48.0 -128.2 L48.1 -128.35 48.45 -129.05 48.85 -129.8 49.1 -130.4 49.2 -130.7 49.5 -131.5 49.5 -131.55 49.65 -133.2 49.75 -134.85 49.75 -135.65 50.05 -136.4 50.75 -137.3 50.85 -138.05 51.6 -139.85 51.75 -140.6 52.3 -141.2 52.55 -141.65 52.65 -142.3 52.75 -142.95 52.75 -143.65 52.75 -143.95 52.75 -144.0 52.75 -144.5 53.05 -145.25 53.15 -145.35 53.25 -145.6 53.75 -146.4 53.75 -146.95 53.75 -147.2 53.75 -147.75 53.75 -148.05 53.75 -148.65 53.9 -149.35 54.5 -150.3 54.65 -151.1 54.75 -152.75 54.75 -155.25 Q54.75 -155.6 54.9 -155.95 L55.75 -157.0 55.75 -157.15 Q55.75 -158.55 56.1 -159.9 56.5 -161.25 58.0 -161.1 L58.05 -161.05 57.75 -161.45 57.35 -161.9 57.35 -162.3 57.35 -162.7 57.35 -163.1 57.35 -163.15 57.2 -163.55 57.0 -163.95 56.85 -164.35 56.75 -164.8 56.7 -164.85 Q56.55 -164.95 56.35 -165.15 L56.35 -165.25 56.3 -165.55 56.1 -166.0 55.85 -166.45 55.85 -166.85 55.85 -167.25 55.85 -167.7 56.05 -168.0 56.45 -168.3 56.5 -168.35 56.7 -168.3 56.75 -168.3 57.1 -168.25 57.15 -168.25 57.25 -168.25 57.6 -167.8 57.95 -167.45 M58.75 -160.8 L58.65 -160.8 58.75 -160.7 58.75 -160.8 M49.25 -107.7 L51.5 -112.7 Q54.5 -120.75 55.7 -126.15 57.05 -132.15 59.5 -141.2 61.35 -148.45 61.35 -153.2 L61.55 -155.85 61.7 -157.85 61.35 -158.8 Q60.5 -158.85 59.5 -155.9 58.7 -153.5 58.35 -148.7 58.1 -145.75 56.75 -141.3 L54.65 -134.3 Q53.55 -130.2 49.3 -117.5 45.55 -106.2 45.55 -105.55 45.55 -104.9 45.75 -104.85 L46.3 -104.75 49.0 -107.4 48.95 -107.15 49.1 -107.5 49.25 -107.7 M29.5 -100.85 L29.75 -101.35 30.0 -101.9 30.75 -102.45 30.85 -102.9 31.25 -103.5 31.6 -104.0 31.75 -104.5 31.9 -104.6 32.05 -104.75 3.15 -104.25 -26.7 -103.25 -40.55 -102.25 -40.0 -101.9 -39.05 -101.55 -37.85 -100.95 -36.25 -100.0 -35.75 -99.65 -35.0 -99.8 -33.5 -100.0 -31.15 -98.3 -28.0 -96.3 -26.5 -95.8 -25.0 -94.75 -24.15 -94.1 -23.75 -93.7 -23.9 -93.4 -24.1 -93.2 -24.75 -92.6 -23.05 -92.1 -21.5 -91.55 -20.75 -91.05 -20.0 -90.55 -19.1 -90.05 -19.0 -90.0 -18.75 -89.75 -17.9 -89.05 -16.0 -87.85 Q-13.85 -87.3 -12.05 -86.3 L-10.25 -85.25 -9.8 -84.75 -9.5 -84.2 -8.1 -83.6 -7.5 -83.2 -7.2 -83.05 Q-3.8 -81.95 -0.1 -81.45 L0.15 -81.6 0.5 -81.95 0.65 -82.05 1.25 -82.5 3.0 -83.0 3.75 -83.5 4.95 -84.1 7.0 -85.05 Q8.6 -85.55 9.9 -86.4 L11.0 -87.2 11.95 -87.9 12.1 -88.3 12.7 -89.05 12.75 -89.05 13.25 -89.5 13.85 -89.6 13.9 -89.6 13.95 -89.65 15.0 -90.0 15.65 -90.45 16.7 -91.15 19.95 -93.45 20.25 -93.7 20.6 -94.25 20.75 -94.7 21.5 -95.25 23.0 -96.3 24.5 -96.65 26.5 -98.75 27.25 -99.3 28.0 -99.8 28.25 -100.0 29.0 -100.5 29.5 -100.85 M44.5 -105.8 L44.25 -105.7 44.05 -105.55 Q43.35 -106.0 42.85 -105.3 L42.45 -104.25 42.5 -103.8 42.3 -103.3 41.95 -102.8 41.65 -102.25 Q41.65 -101.85 42.2 -101.85 43.05 -101.85 44.85 -105.4 44.85 -105.8 44.5 -105.8" fill="url(#gradient2)" fill-rule="evenodd" stroke="none"/>
    <path d="M29.5 -100.85 L29.0 -100.5 28.25 -100.0 28.0 -99.8 27.25 -99.3 26.5 -98.75 24.5 -96.65 23.0 -96.3 21.5 -95.25 20.75 -94.7 20.6 -94.25 20.25 -93.7 19.95 -93.45 16.7 -91.15 15.65 -90.45 15.0 -90.0 13.95 -89.65 13.9 -89.6 13.85 -89.6 13.25 -89.5 12.75 -89.05 12.7 -89.05 12.1 -88.3 11.95 -87.9 11.0 -87.2 9.9 -86.4 Q8.6 -85.55 7.0 -85.05 L4.95 -84.1 3.75 -83.5 3.0 -83.0 1.25 -82.5 0.65 -82.05 0.5 -81.95 0.15 -81.6 -0.1 -81.45 Q-3.8 -81.95 -7.2 -83.05 L-7.5 -83.2 -8.1 -83.6 -9.5 -84.2 -9.8 -84.75 -10.25 -85.25 -12.05 -86.3 Q-13.85 -87.3 -16.0 -87.85 L-17.9 -89.05 -18.75 -89.75 -19.0 -90.0 -19.1 -90.05 -20.0 -90.55 -20.75 -91.05 -21.5 -91.55 -23.05 -92.1 -24.75 -92.6 -24.1 -93.2 -23.9 -93.4 -23.75 -93.7 -24.15 -94.1 -25.0 -94.75 -26.5 -95.8 -28.0 -96.3 -31.15 -98.3 -33.5 -100.0 -35.0 -99.8 -35.75 -99.65 -36.25 -100.0 -37.85 -100.95 -39.05 -101.55 -40.0 -101.9 -40.55 -102.25 -26.7 -103.25 3.15 -104.25 32.05 -104.75 31.9 -104.6 31.75 -104.5 31.6 -104.0 31.25 -103.5 30.85 -102.9 30.75 -102.45 30.0 -101.9 29.75 -101.35 29.5 -100.85 M44.5 -105.8 Q44.85 -105.8 44.85 -105.4 43.05 -101.85 42.2 -101.85 41.65 -101.85 41.65 -102.25 L41.95 -102.8 42.3 -103.3 42.5 -103.8 42.45 -104.25 42.85 -105.3 Q43.35 -106.0 44.05 -105.55 L44.25 -105.7 44.5 -105.8" fill="url(#gradient3)" fill-rule="evenodd" stroke="none"/>
  </g>
  <defs>
    <linearGradient gradientTransform="matrix(0.0, 0.202, -0.1095, 0.0, 6.6, 39.7)" gradientUnits="userSpaceOnUse" id="gradient0" spreadMethod="pad" x1="-819.2" x2="819.2">
      <stop offset="0.0" stop-color="#990000"/>
      <stop offset="1.0" stop-color="#690000"/>
    </linearGradient>
    <linearGradient gradientTransform="matrix(0.0, 0.2205, -0.1095, 0.0, 6.6, 63.2)" gradientUnits="userSpaceOnUse" id="gradient1" spreadMethod="pad" x1="-819.2" x2="819.2">
      <stop offset="0.0" stop-color="#990000"/>
      <stop offset="1.0" stop-color="#690000"/>
    </linearGradient>
    <linearGradient gradientTransform="matrix(0.0, 0.1882, -0.1095, 0.0, 6.6, 37.6)" gradientUnits="userSpaceOnUse" id="gradient2" spreadMethod="pad" x1="-819.2" x2="819.2">
      <stop offset="0.0" stop-color="#990000"/>
      <stop offset="1.0" stop-color="#690000"/>
    </linearGradient>
    <linearGradient gradientTransform="matrix(0.0, 0.14, -0.1095, 0.0, 6.6, 1.1)" gradientUnits="userSpaceOnUse" id="gradient3" spreadMethod="pad" x1="-819.2" x2="819.2">
      <stop offset="0.0" stop-color="#990000"/>
      <stop offset="1.0" stop-color="#690000"/>
    </linearGradient>
  </defs>
</svg>
