<?xml version="1.0" encoding="UTF-8" standalone="no"?>
<svg xmlns:ffdec="https://www.free-decompiler.com/flash" xmlns:xlink="http://www.w3.org/1999/xlink" ffdec:objectType="shape" height="202.35px" width="256.05px" xmlns="http://www.w3.org/2000/svg">
  <g transform="matrix(1.0, 0.0, 0.0, 1.0, 128.0, 100.3)">
    <path d="M122.25 79.8 Q122.3 79.7 122.45 79.65 L122.45 79.8 122.25 79.8 122.45 79.8 122.45 80.15 124.7 80.3 125.2 80.25 124.95 80.55 116.45 80.55 116.3 80.05 116.2 79.8 115.9 79.45 114.55 79.35 114.55 78.05 114.55 -44.9 114.55 -45.45 114.55 -46.0 114.55 -46.6 114.55 -47.15 114.55 -77.05 114.55 -77.3 115.15 -77.35 115.8 -77.85 115.9 -78.1 116.05 -78.6 124.55 -78.6 124.8 -78.3 124.3 -78.35 122.45 -78.2 122.45 -77.85 122.45 -77.25 121.5 -77.85 121.5 -77.45 121.3 -77.85 121.5 -77.85 122.45 -77.85 121.5 -77.85 121.3 -77.85 121.15 -78.15 118.75 -78.1 118.75 -77.85 118.75 -77.5 115.5 -77.0 115.2 -76.85 Q114.75 -76.55 114.75 -75.6 114.75 -74.75 115.1 -74.35 115.35 -74.05 116.0 -73.85 L118.75 -73.85 118.75 2.4 118.65 1.95 118.5 1.9 116.9 1.8 114.75 1.95 114.8 3.45 115.5 3.95 116.75 4.15 116.9 4.15 Q118.7 4.1 118.75 2.8 L118.75 35.75 118.75 36.2 118.75 78.05 118.75 79.15 119.2 79.8 116.2 79.8 119.2 79.8 119.65 80.05 121.5 80.1 121.65 80.1 122.1 80.15 122.1 79.9 122.25 79.8 M106.4 -85.7 L104.55 -85.7 -85.65 -85.7 -85.45 -85.8 -85.25 -86.85 104.4 -86.85 Q104.65 -86.2 105.0 -85.85 105.85 -85.95 106.4 -86.5 L106.5 -86.6 106.4 -87.7 106.4 -93.0 106.45 -93.6 106.5 -93.85 106.65 -95.6 Q106.65 -96.5 106.8 -97.0 L106.8 -96.65 Q106.8 -96.0 107.15 -95.6 L107.15 -91.15 Q107.55 -90.25 107.45 -88.55 L107.3 -87.05 107.15 -85.8 107.15 -85.7 107.15 -85.45 107.25 -84.55 Q107.6 -82.75 109.35 -80.9 L110.65 -79.65 110.7 -79.2 111.05 -78.8 111.9 -78.6 111.95 -78.6 112.7 -78.1 111.9 -78.1 Q110.95 -78.5 110.65 -79.1 L110.7 -79.2 109.65 -79.6 108.05 -81.2 Q107.25 -82.5 106.8 -84.55 L106.6 -85.7 106.4 -85.7 M-87.3 -85.7 L-103.6 -85.7 -103.0 -86.5 -102.75 -86.85 -87.75 -86.85 -87.75 -86.35 -87.4 -85.8 -87.3 -85.7 M-104.8 -85.7 L-105.05 -85.7 -106.3 -85.7 -106.3 -93.6 -105.05 -93.6 -105.0 -93.6 -105.1 -93.45 -106.25 -93.55 -106.25 -87.85 -105.65 -86.6 -104.8 -85.7 M-109.35 -79.95 L-109.55 -79.8 Q-110.05 -79.5 -110.6 -79.4 L-110.55 -79.3 -110.6 -79.2 Q-110.9 -78.65 -111.8 -78.3 L-112.6 -78.3 -111.85 -78.8 -111.8 -78.8 -110.95 -79.0 -110.6 -79.4 -110.55 -79.85 -110.5 -79.9 -108.95 -81.4 -108.15 -82.4 -108.0 -82.65 Q-107.45 -83.55 -107.2 -84.45 -107.05 -85.05 -107.05 -85.65 L-107.05 -85.7 Q-107.05 -86.6 -107.2 -87.25 L-107.35 -88.75 -107.35 -89.0 Q-107.4 -90.5 -107.05 -91.35 L-107.05 -95.8 Q-106.7 -96.2 -106.7 -96.85 L-106.7 -97.2 Q-106.55 -96.7 -106.55 -95.8 L-106.3 -93.6 -106.3 -85.7 -106.55 -85.7 -106.75 -84.55 -107.3 -82.7 -107.95 -81.4 -108.9 -80.45 -108.95 -80.4 -109.35 -79.95 M-114.35 -77.3 L-114.35 -77.15 -114.5 -77.15 -115.0 -77.35 -115.95 -77.35 -115.95 -78.05 -116.0 -78.3 -116.0 -78.05 -121.5 -78.05 -116.0 -78.05 -116.05 -77.35 -116.45 -77.35 -116.5 -77.7 -116.5 -77.35 -120.5 -77.35 -121.3 -77.1 -121.5 -76.9 -121.5 -77.05 -121.5 -78.05 -121.5 -78.35 -124.2 -78.55 -124.7 -78.5 -124.45 -78.8 -115.95 -78.8 -115.8 -78.3 -115.7 -78.05 -115.95 -78.05 -115.7 -78.05 Q-115.3 -77.35 -114.35 -77.5 L-114.35 -77.3 M-114.35 -75.2 L-114.35 -62.2 -115.25 -62.35 -115.8 -74.35 -115.5 -74.35 -114.6 -75.0 -114.35 -75.2 M-114.35 -59.95 L-114.35 -59.6 -115.2 -59.7 -115.2 -59.85 -114.35 -59.95 M-114.35 -57.0 L-114.35 74.35 -114.95 74.2 -114.8 30.1 -114.75 0.25 -114.8 -39.35 -115.1 -56.85 -114.35 -57.0 M-114.35 78.1 L-114.35 79.15 Q-115.6 78.75 -116.1 79.5 L-116.15 79.55 -121.5 79.55 -116.15 79.55 -116.25 79.8 -116.4 80.3 -124.9 80.3 -125.15 80.0 -124.65 80.05 -121.5 79.85 -121.5 79.55 -121.5 78.05 -121.5 76.75 -120.9 78.1 -120.5 78.65 -119.75 78.2 -119.65 78.15 -116.35 78.15 -116.1 78.9 -116.0 79.15 -115.0 78.65 -115.0 78.15 -114.5 78.15 -114.35 78.1 M-110.0 81.3 L-108.4 82.9 Q-107.6 84.2 -107.15 86.3 L-107.05 86.9 -106.75 86.9 -105.05 86.9 44.75 86.9 48.05 86.9 104.55 86.9 106.8 86.9 107.15 86.9 107.3 86.3 Q107.7 84.35 108.45 83.15 L110.05 81.55 111.1 81.15 111.05 81.05 Q111.35 80.45 112.3 80.05 L113.1 80.05 Q112.75 80.25 112.35 80.55 L112.3 80.55 111.45 80.75 111.1 81.15 111.05 81.6 Q108.35 83.9 107.75 86.1 L107.6 86.9 107.55 87.15 107.55 87.4 Q107.55 88.35 107.7 89.0 L107.8 90.05 107.85 90.5 107.9 91.15 107.55 93.1 107.55 97.55 Q107.2 97.95 107.2 98.6 L107.2 98.95 Q107.05 98.45 107.05 97.55 L106.8 94.95 106.8 94.35 104.55 94.35 65.7 94.35 66.0 94.15 66.15 93.65 101.6 93.65 Q102.05 94.15 102.5 94.15 103.25 94.15 103.5 93.8 L103.6 93.65 103.8 93.65 103.8 93.9 104.05 94.05 104.55 94.15 105.25 94.15 106.3 93.95 106.55 93.7 106.55 93.65 106.8 93.65 106.8 94.35 106.8 93.65 106.8 91.15 106.75 91.15 106.75 91.05 106.75 90.15 106.8 90.15 106.8 89.65 106.9 88.5 107.1 87.15 106.8 87.15 104.55 87.15 2.55 87.15 1.1 87.15 -105.05 87.15 -106.75 87.15 -107.0 87.15 -106.85 88.25 -106.75 89.4 -106.75 89.65 -106.05 89.65 -105.9 89.85 -105.5 90.0 -105.2 90.1 -105.2 90.15 -105.5 90.2 Q-106.75 90.5 -106.75 91.5 L-106.7 92.9 -105.5 92.95 -105.2 92.95 -105.2 93.4 -105.05 93.5 -104.95 93.55 -104.7 93.6 -104.4 94.35 -105.05 94.35 -106.75 94.35 -106.75 94.7 -107.0 97.3 Q-107.0 98.2 -107.15 98.7 L-107.15 98.35 Q-107.15 97.7 -107.5 97.3 L-107.5 92.85 Q-107.9 91.95 -107.8 90.25 L-107.7 89.65 -107.65 88.75 Q-107.5 88.1 -107.5 87.15 L-107.5 86.9 -107.6 86.05 Q-108.2 83.75 -111.0 81.35 L-111.05 80.9 -111.4 80.5 -112.25 80.3 -112.3 80.3 -113.05 79.8 -112.25 79.8 Q-111.3 80.2 -111.0 80.8 L-111.05 80.9 -110.0 81.3 M-117.55 74.2 L-118.25 74.35 -118.25 42.15 -117.75 42.1 -117.8 48.6 -117.75 58.4 Q-117.65 61.7 -117.95 68.5 -117.95 71.65 -117.55 74.2 M-117.75 39.8 L-118.25 39.75 -118.25 -57.4 -118.2 -57.55 -117.35 -57.05 -117.65 -39.2 -117.75 0.0 -117.75 38.9 -117.75 39.8 M-117.25 -59.45 Q-118.25 -59.15 -118.25 -58.25 L-118.25 -74.35 -116.7 -74.35 -117.25 -59.45 M-116.3 -74.35 L-116.2 -74.35 -116.25 -73.35 -116.3 -74.35 M-121.5 -74.9 L-121.4 -74.8 Q-121.2 -74.6 -120.5 -74.35 L-119.65 -74.35 Q-120.25 -62.85 -120.5 -48.25 L-121.0 -48.0 -121.5 -47.5 -121.5 -74.9 M-121.5 -45.85 L-121.25 -45.55 -120.55 -45.35 -120.65 -38.6 -120.75 -0.1 -120.75 5.2 -121.5 5.2 -121.5 -45.85 M-121.5 8.45 L-120.75 8.65 -120.75 9.25 -121.5 9.3 -121.5 8.45 M-121.5 11.45 L-120.75 11.65 -120.75 37.55 -121.5 37.8 -121.5 11.45 M-121.5 41.65 L-120.75 42.0 -120.8 47.7 -120.75 57.2 -120.85 63.85 -121.5 63.15 -121.5 41.65 M118.75 -77.85 L115.8 -77.85 118.75 -77.85 M103.4 90.15 L103.5 90.9 Q101.75 90.6 100.9 91.15 L66.15 91.15 Q65.85 90.15 65.15 90.15 L103.4 90.15 M64.95 90.15 Q64.15 90.15 63.9 91.15 L61.0 91.15 60.75 90.55 60.5 90.15 64.95 90.15 M58.25 90.15 L58.25 91.15 -88.6 91.15 -89.5 90.65 -89.95 91.05 -90.25 91.0 -91.25 90.15 58.25 90.15 M-92.05 90.15 L-92.5 90.75 Q-95.3 90.5 -97.25 90.75 L-97.95 90.9 -99.8 90.55 -99.85 90.45 -100.0 90.4 -102.15 90.25 -102.25 90.25 -102.25 90.15 -92.05 90.15 M-88.25 94.35 L-88.25 93.65 50.45 93.65 50.6 93.85 51.5 94.15 52.55 93.7 52.7 93.65 58.85 93.65 59.3 94.35 -88.25 94.35 M61.15 94.35 L61.25 93.65 64.25 93.65 64.75 94.35 61.15 94.35 M-102.35 -89.35 Q-102.55 -90.35 -103.05 -91.35 L-89.65 -91.35 -89.4 -90.85 Q-89.15 -90.55 -88.5 -90.35 L-87.75 -90.8 -87.25 -91.05 -87.3 -91.35 -86.15 -91.35 -85.9 -90.85 -85.6 -90.6 -85.0 -89.85 -84.0 -90.35 -83.85 -91.0 -83.75 -91.05 -83.8 -91.35 75.25 -91.35 75.3 -90.1 75.55 -89.95 76.75 -89.85 Q78.85 -90.35 79.2 -91.35 L80.55 -91.35 81.0 -90.85 82.05 -91.35 96.0 -91.35 Q96.35 -90.5 97.0 -89.85 L98.25 -91.35 103.35 -91.35 103.65 -89.35 -85.95 -89.35 -86.85 -89.35 -102.35 -89.35 M108.8 -98.5 L109.65 -98.6 110.25 -98.3 109.55 -98.3 109.0 -98.3 108.8 -98.5 M-109.15 100.2 L-110.0 100.3 -110.6 100.0 -109.9 100.0 -109.35 100.0 -109.15 100.2 M-110.55 96.5 Q-112.15 94.65 -116.4 90.5 -120.95 86.05 -123.65 83.75 L-123.7 83.25 -122.45 83.15 -121.25 83.1 -115.25 82.9 -113.8 84.7 Q-113.4 85.55 -112.7 86.05 L-111.45 87.4 -111.1 92.05 -111.0 93.75 -110.55 96.5 M-106.75 94.35 L-106.75 91.5 -106.75 94.35 M-106.75 89.65 L-106.75 91.5 -106.75 89.65 M-110.1 -95.0 L-110.35 -93.6 -110.55 -92.25 -111.0 -85.9 -111.2 -85.65 -111.25 -85.65 -111.45 -85.4 -113.55 -82.95 -114.25 -82.1 -114.8 -81.4 -121.1 -81.6 -122.0 -81.65 -123.25 -81.75 -123.2 -82.25 Q-120.5 -84.55 -115.95 -89.0 L-112.1 -92.8 -111.35 -93.6 -110.1 -95.0 M-108.7 -98.7 L-108.9 -98.5 -109.45 -98.5 -110.15 -98.5 -109.55 -98.8 -108.7 -98.7 M114.75 -0.75 L114.85 0.15 115.25 0.4 115.3 0.55 116.25 0.65 116.9 0.6 117.3 0.45 117.55 0.2 Q117.75 0.5 117.75 -0.75 L117.65 -1.55 117.5 -1.6 116.9 -1.75 Q114.75 -2.2 114.75 -0.75 M109.4 100.25 L109.95 100.25 110.65 100.25 110.05 100.55 109.2 100.45 109.4 100.25 M123.75 83.5 L123.7 84.0 Q121.0 86.3 116.45 90.75 112.2 94.9 110.6 96.75 L111.05 94.0 111.1 93.65 111.2 92.05 111.3 91.15 111.4 89.5 111.5 87.65 111.8 87.35 113.1 85.9 113.95 84.9 115.3 83.15 121.35 83.35 122.5 83.4 123.75 83.5 M106.8 91.15 L106.8 90.15 106.8 91.15 M106.8 86.9 L106.8 87.15 106.8 86.9 M110.2 -94.8 L116.05 -88.8 Q120.6 -84.35 123.3 -82.05 L123.35 -81.55 122.45 -81.45 122.1 -81.45 114.9 -81.2 114.5 -81.7 113.8 -82.55 113.05 -83.5 112.45 -84.2 111.8 -84.9 111.25 -85.5 111.1 -85.7 110.7 -91.55 110.65 -92.05 110.2 -94.8" fill="#b3b3b3" fill-rule="evenodd" stroke="none"/>
    <path d="M121.4 79.8 L120.85 78.1 Q120.05 75.0 120.05 70.6 L119.9 70.55 119.75 70.4 119.35 70.15 119.25 69.25 Q119.25 68.35 120.15 68.2 L120.25 60.4 Q120.15 56.55 120.2 50.55 L120.25 40.45 120.25 37.15 119.3 37.05 119.25 36.9 118.85 36.65 118.75 36.2 118.75 35.75 Q118.75 34.95 120.05 34.65 L120.25 34.6 120.25 1.15 120.35 -38.5 Q120.45 -52.65 120.9 -64.35 L120.75 -64.35 119.8 -64.45 119.75 -64.6 119.35 -64.85 119.25 -65.75 Q119.25 -66.55 119.95 -66.8 L121.0 -66.85 121.0 -67.35 119.7 -67.45 119.3 -67.6 119.25 -69.0 119.3 -69.25 119.25 -69.75 Q119.25 -70.95 121.15 -70.8 L121.35 -74.85 121.3 -74.85 120.0 -73.85 118.75 -73.85 116.0 -73.85 Q115.35 -74.05 115.1 -74.35 114.75 -74.75 114.75 -75.6 114.75 -76.55 115.2 -76.85 L115.5 -77.0 118.75 -77.5 121.5 -77.35 121.5 -77.45 121.5 -77.85 122.45 -77.25 122.45 -77.05 122.45 78.05 122.45 79.65 122.45 78.05 122.45 -77.05 122.45 -77.25 122.75 -76.85 122.75 78.05 122.75 79.45 122.45 79.65 Q122.3 79.7 122.25 79.8 L121.4 79.8 122.25 79.8 122.1 79.9 121.65 80.1 121.5 80.1 121.4 79.8 M-85.65 -85.7 L-86.5 -85.35 Q-87.0 -85.45 -87.3 -85.7 L-85.65 -85.7 -87.3 -85.7 -87.4 -85.8 -87.75 -86.35 -87.75 -86.85 -87.75 -89.05 -86.85 -89.35 -85.95 -89.35 -85.4 -88.85 Q-85.25 -88.55 -85.25 -87.5 L-85.25 -86.85 -85.45 -85.8 -85.65 -85.7 M-103.6 -85.7 L-104.0 -85.35 -104.8 -85.7 -105.65 -86.6 -106.25 -87.85 -106.25 -93.55 -105.1 -93.45 -105.0 -93.6 -104.8 -93.75 -104.0 -93.85 -85.9 -93.85 Q-85.6 -94.35 -85.0 -94.35 -84.4 -94.35 -84.05 -93.85 L96.15 -93.85 Q96.5 -94.3 97.25 -94.15 L98.0 -93.85 103.35 -93.85 Q103.6 -95.3 104.9 -93.85 L106.4 -93.85 106.4 -93.6 106.45 -93.6 106.4 -93.6 106.4 -93.85 106.5 -93.85 106.45 -93.6 106.4 -93.0 106.4 -93.6 104.55 -93.6 -105.0 -93.6 104.55 -93.6 106.4 -93.6 106.4 -93.0 106.4 -87.7 106.4 -86.5 106.4 -87.7 106.5 -86.6 106.4 -86.5 Q105.85 -85.95 105.0 -85.85 104.65 -86.2 104.4 -86.85 104.0 -87.75 103.7 -89.15 L103.65 -89.35 103.35 -91.35 98.25 -91.35 97.0 -89.85 Q96.35 -90.5 96.0 -91.35 L82.05 -91.35 81.0 -90.85 80.55 -91.35 79.2 -91.35 Q78.85 -90.35 76.75 -89.85 L75.55 -89.95 75.3 -90.1 75.25 -91.35 -83.8 -91.35 -83.75 -91.05 -83.85 -91.0 -84.0 -90.35 -85.0 -89.85 -85.6 -90.6 -85.9 -90.85 -86.15 -91.35 -87.3 -91.35 -87.25 -91.05 -87.75 -90.8 -88.5 -90.35 Q-89.15 -90.55 -89.4 -90.85 L-89.65 -91.35 -103.05 -91.35 Q-102.55 -90.35 -102.35 -89.35 L-102.25 -88.8 -102.25 -88.1 Q-102.25 -87.65 -102.75 -86.85 L-103.0 -86.5 -103.6 -85.7 -104.8 -85.7 -103.6 -85.7 M-114.35 -77.15 L-114.15 -77.15 Q-113.75 -77.0 -113.75 -76.25 -113.75 -75.85 -114.15 -75.4 L-114.35 -75.2 -114.6 -75.0 -115.5 -74.35 -115.8 -74.35 -116.2 -74.35 -116.3 -74.35 -116.7 -74.35 -118.25 -74.35 -118.25 -58.25 Q-118.25 -59.15 -117.25 -59.45 L-116.1 -59.7 -115.2 -59.7 -114.35 -59.6 -114.15 -59.6 -114.0 -59.6 -113.85 -59.4 -113.75 -58.5 -113.85 -57.6 -113.9 -57.45 -114.0 -57.1 -114.35 -57.0 -115.1 -56.85 -116.0 -56.85 -116.1 -56.85 -117.35 -57.05 -118.2 -57.55 -118.25 -57.4 -118.25 39.75 -117.75 39.8 -117.0 39.9 -116.85 39.95 -116.75 40.75 Q-116.75 41.7 -117.5 42.0 L-117.75 42.1 -118.25 42.15 -118.25 74.35 -117.55 74.2 -116.1 74.1 -114.95 74.2 -114.35 74.35 -114.15 74.4 -114.0 74.4 -113.85 74.45 -113.75 75.25 -114.15 75.95 -114.25 76.0 -114.15 76.05 -113.5 76.2 -113.25 76.75 Q-113.5 77.6 -114.15 78.0 L-114.35 78.1 -114.35 78.05 -114.35 74.35 -114.35 78.05 -114.35 78.1 -114.5 78.15 -115.0 78.15 -116.35 78.15 -119.65 78.15 -119.75 78.2 -120.5 78.65 -120.9 78.1 -121.5 76.75 -121.55 76.5 -121.75 76.0 -121.75 75.85 -122.35 72.35 Q-122.75 68.85 -122.75 64.9 -122.75 64.7 -122.1 64.35 -121.5 63.95 -121.5 63.3 L-121.5 63.15 -120.85 63.85 -120.75 57.2 -120.8 47.7 -120.75 42.0 -121.5 41.65 -121.5 40.1 -121.5 37.8 -121.5 40.1 -121.5 41.65 -121.7 41.45 -121.75 40.75 -121.5 40.1 -121.75 39.95 -122.2 39.45 -122.25 38.75 Q-122.25 38.1 -121.5 37.8 L-120.75 37.55 -120.75 11.65 -121.5 11.45 -121.5 9.3 -121.5 11.45 -122.2 10.95 -122.25 9.45 -121.5 9.3 -120.75 9.25 -120.75 8.65 -121.5 8.45 -121.5 5.2 -121.5 8.45 -122.0 8.15 -122.45 8.05 -122.7 7.9 -122.75 6.5 Q-122.75 5.3 -121.5 5.2 L-120.75 5.2 -120.75 -0.1 -120.65 -38.6 -120.55 -45.35 -121.25 -45.55 -121.5 -45.85 -121.5 -47.5 -121.5 -45.85 -121.7 -46.05 -121.75 -46.75 -121.5 -47.5 -121.0 -48.0 -120.5 -48.25 Q-120.25 -62.85 -119.65 -74.35 L-120.5 -74.35 Q-121.2 -74.6 -121.4 -74.8 L-121.5 -74.9 -121.5 -76.9 -121.5 -74.9 -121.75 -76.0 -121.5 -76.9 -121.3 -77.1 -120.5 -77.35 -116.5 -77.35 -116.45 -77.35 -116.05 -77.35 -115.95 -77.35 -115.0 -77.35 -114.5 -77.15 -114.35 -77.15 -114.35 -77.05 -114.35 -75.2 -114.35 -77.05 -114.35 -77.15 M-114.35 -62.2 L-114.15 -62.15 -114.0 -62.1 -113.85 -62.05 -113.75 -61.25 Q-113.75 -60.0 -113.95 -60.3 L-114.2 -60.05 -114.35 -59.95 -114.35 -62.2 -114.35 -59.95 -115.2 -59.85 -115.25 -59.85 -116.1 -59.9 -116.2 -59.95 -116.25 -60.1 -116.65 -60.35 -116.75 -61.25 Q-116.75 -62.0 -116.1 -62.25 L-116.05 -62.3 -115.25 -62.35 -114.35 -62.2 M-114.35 -59.6 L-114.35 -57.0 -114.35 -59.6 M-121.5 76.75 L-121.5 63.3 -121.5 76.75 M-125.0 -78.05 Q-125.65 -77.3 -125.95 -78.05 L-125.0 -78.05 -125.95 -78.05 -126.15 -79.15 -126.2 -80.2 -126.2 -80.75 -126.3 -80.75 -126.5 -80.95 Q-126.7 -81.15 -126.7 -81.7 L-126.3 -82.7 -125.8 -83.4 -125.5 -83.8 -125.1 -84.3 -121.1 -88.45 -118.8 -90.6 -112.8 -96.05 -112.95 -96.05 -113.2 -96.6 -111.9 -97.95 -111.85 -97.95 -110.15 -98.5 -109.45 -98.5 -108.9 -98.5 -107.2 -98.3 -106.85 -98.25 Q-106.7 -98.1 -106.7 -97.2 L-106.7 -96.85 Q-106.7 -96.2 -107.05 -95.8 -107.75 -95.05 -109.85 -95.35 L-110.1 -95.0 -111.35 -93.6 -112.1 -92.8 -115.95 -89.0 Q-120.5 -84.55 -123.2 -82.25 L-123.25 -81.75 Q-123.45 -80.35 -124.45 -78.8 L-124.7 -78.5 -124.7 -78.45 -125.0 -78.05 M112.0 -97.75 L113.3 -96.4 113.05 -95.85 112.9 -95.85 118.9 -90.4 121.2 -88.25 125.2 -84.1 125.6 -83.6 125.9 -83.2 126.4 -82.5 126.8 -81.5 Q126.8 -80.95 126.6 -80.75 L126.4 -80.55 126.3 -80.55 126.3 -80.0 126.25 -78.95 126.05 -77.85 Q125.75 -77.1 125.1 -77.85 L126.05 -77.85 125.1 -77.85 124.8 -78.25 124.8 -78.3 124.55 -78.6 Q123.55 -80.15 123.35 -81.55 L123.3 -82.05 Q120.6 -84.35 116.05 -88.8 L110.2 -94.8 109.95 -95.15 Q107.85 -94.85 107.15 -95.6 106.8 -96.0 106.8 -96.65 L106.8 -97.0 Q106.8 -97.9 106.95 -98.05 L107.3 -98.1 109.0 -98.3 109.55 -98.3 110.25 -98.3 111.95 -97.75 112.0 -97.75 M106.8 93.65 L106.55 93.65 106.55 93.7 106.3 93.95 105.25 94.15 104.55 94.15 104.05 94.05 103.8 93.9 103.8 93.65 103.6 93.65 103.5 93.8 Q103.25 94.15 102.5 94.15 102.05 94.15 101.6 93.65 L66.15 93.65 66.0 94.15 65.7 94.35 64.75 94.35 65.7 94.35 65.0 94.65 64.75 94.35 64.25 93.65 61.25 93.65 61.15 94.35 61.05 94.7 60.0 95.15 59.3 94.35 58.85 93.65 52.7 93.65 52.55 93.7 51.5 94.15 50.6 93.85 50.45 93.65 -88.25 93.65 -88.25 94.35 -104.4 94.35 -88.25 94.35 -88.25 94.95 -89.5 95.65 -90.35 94.55 -91.25 94.65 -91.95 94.65 -92.2 94.85 -93.0 95.15 -97.0 95.15 -103.5 94.65 -104.4 94.35 -104.7 93.6 -104.95 93.55 -105.05 93.5 -105.2 93.4 -105.2 92.95 -105.5 92.95 -106.7 92.9 -106.75 91.5 Q-106.75 90.5 -105.5 90.2 L-105.2 90.15 -105.2 90.1 -105.2 87.4 Q-103.0 87.0 -102.45 88.4 -102.3 88.75 -102.25 90.15 L-102.25 90.25 -102.15 90.25 -100.0 90.4 -99.85 90.45 -99.8 90.55 -97.95 90.9 -97.25 90.75 Q-95.3 90.5 -92.5 90.75 L-92.05 90.15 -91.25 90.15 -90.25 91.0 -89.95 91.05 -89.5 90.65 -88.6 91.15 58.25 91.15 58.25 90.15 58.25 89.95 Q59.7 89.2 60.5 90.15 L60.75 90.55 61.0 91.15 63.9 91.15 Q64.15 90.15 64.95 90.15 L65.15 90.15 Q65.85 90.15 66.15 91.15 L100.9 91.15 Q101.75 90.6 103.5 90.9 L103.4 90.15 103.25 88.45 103.4 88.45 103.25 87.45 104.55 87.75 Q106.15 88.1 106.5 88.6 L106.55 88.7 106.75 90.15 106.75 91.05 106.75 91.15 106.8 91.15 106.8 93.65 M61.15 94.35 L59.3 94.35 61.15 94.35 M-112.35 99.45 L-113.65 98.1 -113.4 97.55 -113.25 97.55 -119.25 92.1 -121.55 89.95 -125.55 85.8 -125.95 85.3 -126.25 84.9 -126.75 84.2 -127.15 83.2 Q-127.15 82.65 -126.95 82.45 L-126.75 82.25 -126.65 82.25 -126.65 81.7 -126.6 80.65 -126.4 79.55 Q-126.1 78.8 -125.45 79.55 L-125.15 79.95 -125.15 80.0 -124.9 80.3 Q-123.9 81.85 -123.7 83.25 L-123.65 83.75 Q-120.95 86.05 -116.4 90.5 -112.15 94.65 -110.55 96.5 L-110.3 96.85 Q-108.2 96.55 -107.5 97.3 -107.15 97.7 -107.15 98.35 L-107.15 98.7 Q-107.15 99.6 -107.3 99.75 L-107.65 99.8 -109.35 100.0 -109.9 100.0 -110.6 100.0 -112.3 99.45 -112.35 99.45 M-126.4 79.55 L-125.45 79.55 -126.4 79.55 M-126.75 84.2 L-126.75 82.25 -126.75 84.2 M-126.3 -80.75 L-126.3 -82.7 -126.3 -80.75 M118.75 2.4 L118.75 2.8 Q118.7 4.1 116.9 4.15 L116.75 4.15 115.5 3.95 114.8 3.45 114.75 1.95 116.9 1.8 118.5 1.9 118.65 1.95 118.75 2.4 M114.75 -0.75 Q114.75 -2.2 116.9 -1.75 L117.5 -1.6 117.65 -1.55 117.75 -0.75 Q117.75 0.5 117.55 0.2 L117.3 0.45 116.9 0.6 116.25 0.65 115.3 0.55 115.25 0.4 114.85 0.15 114.75 -0.75 M107.7 100.05 L107.35 100.0 Q107.2 99.85 107.2 98.95 L107.2 98.6 Q107.2 97.95 107.55 97.55 108.25 96.8 110.35 97.1 L110.6 96.75 Q112.2 94.9 116.45 90.75 121.0 86.3 123.7 84.0 L123.75 83.5 Q123.95 82.1 124.95 80.55 L125.2 80.25 125.2 80.2 125.5 79.8 126.45 79.8 125.5 79.8 Q126.15 79.05 126.45 79.8 L126.65 80.9 126.7 81.95 126.7 82.5 126.8 82.5 126.8 84.45 126.8 82.5 127.0 82.7 Q127.2 82.9 127.2 83.45 L126.8 84.45 126.3 85.15 126.0 85.55 125.6 86.05 121.6 90.2 119.3 92.35 113.3 97.8 113.45 97.8 113.7 98.35 112.4 99.7 112.35 99.7 110.65 100.25 109.95 100.25 109.4 100.25 107.7 100.05 M126.4 -82.5 L126.4 -80.55 126.4 -82.5" fill="#8f918e" fill-rule="evenodd" stroke="none"/>
    <path d="M109.35 -72.6 L108.55 -72.6 107.85 -72.8 107.85 -72.7 107.75 -72.65 106.4 -72.8 106.0 -72.6 105.45 -72.4 105.15 -72.3 105.1 -72.1 107.6 -72.1 107.95 -71.9 Q108.05 -71.85 108.25 -71.75 L108.6 -71.6 108.7 -71.5 109.35 -71.35 110.55 -70.9 110.95 -70.65 111.0 -70.65 110.95 -70.45 110.85 -70.35 110.85 -70.1 110.85 -69.8 110.85 -69.25 110.8 -69.1 110.55 -68.7 110.3 -68.15 110.25 -67.6 110.25 -67.0 110.25 -66.5 110.25 -65.9 110.25 -65.4 110.25 -64.85 110.25 -64.3 110.25 -63.7 110.25 -63.65 104.55 -63.9 100.15 -64.1 97.4 -64.15 Q82.95 -60.05 67.6 -59.8 L65.6 -59.5 Q62.0 -59.2 58.7 -58.0 L57.05 -57.4 56.25 -57.2 76.45 -57.55 76.95 -57.9 96.3 -57.7 101.75 -57.55 102.35 -57.9 104.55 -57.8 105.55 -57.75 108.7 -57.65 108.55 -57.55 107.85 -56.55 107.75 -56.1 104.55 -55.85 102.95 -55.75 102.55 -55.5 102.3 -55.15 102.2 -54.6 83.25 -55.0 83.2 -54.95 82.8 -54.75 82.65 -54.6 85.35 -54.6 85.8 -54.4 89.05 -54.25 89.45 -54.15 92.8 -53.95 93.2 -53.75 93.45 -53.45 93.6 -53.35 104.55 -52.95 107.8 -52.9 107.75 -52.85 107.65 -52.35 107.4 -51.75 107.15 -51.2 107.15 -50.1 107.15 -49.0 107.15 -47.9 106.7 -47.3 106.5 -46.8 106.5 -45.7 106.5 -41.9 106.5 -38.6 106.95 -38.3 106.95 -38.0 104.55 -37.95 102.9 -37.95 100.55 -36.25 100.25 -35.95 Q93.7 -34.7 87.0 -34.4 L85.7 -34.05 Q95.0 -32.75 104.55 -32.35 L107.0 -32.3 107.65 -31.85 108.15 -31.5 108.3 -31.15 108.55 -30.7 108.6 -30.3 110.3 -30.2 110.3 -27.75 110.25 -27.55 110.25 -27.3 110.25 -27.0 110.25 -26.8 110.05 -26.45 110.0 -26.15 109.95 -25.9 109.95 -25.1 109.85 -24.55 109.6 -23.95 109.6 -23.15 109.6 -21.8 109.6 -20.7 109.45 -20.35 109.35 -20.1 109.25 -19.9 109.35 -19.65 109.45 -19.35 109.55 -19.05 109.6 -18.85 109.6 -18.0 109.6 -17.2 109.85 -16.65 109.9 -16.3 109.95 -16.0 109.95 -15.8 109.95 -15.5 110.05 -15.2 110.25 -14.95 110.25 -14.45 110.25 -13.85 110.25 -12.95 Q110.35 -12.85 110.55 -12.8 L110.55 -12.6 110.35 -12.7 109.45 -13.25 108.55 -13.5 108.55 -13.45 108.25 -13.4 104.55 -13.1 98.65 -12.75 98.05 -12.4 97.0 -12.3 90.4 -8.6 Q87.6 -7.2 84.45 -6.45 L82.45 -5.95 80.45 -5.4 78.55 -5.1 Q85.55 -5.45 92.55 -4.95 L94.0 -5.45 Q94.85 -5.75 95.7 -6.2 L96.55 -6.55 97.8 -6.75 97.85 -6.8 100.7 -6.7 101.85 -6.55 102.55 -6.15 103.0 -5.75 103.1 -5.5 104.55 -5.55 108.35 -5.85 112.35 -6.2 112.2 -5.9 Q112.05 -5.8 112.05 -5.5 L111.95 -5.0 111.65 -4.35 111.45 -3.8 111.45 -3.3 111.45 -1.65 111.45 -1.35 110.05 -1.55 108.65 -1.7 107.55 -1.75 107.5 -1.75 105.45 -0.65 104.55 -0.3 103.1 0.1 102.8 0.45 99.55 1.45 98.7 1.7 98.85 1.75 100.5 2.15 101.1 1.8 103.6 1.45 104.2 1.05 106.65 0.7 107.35 0.35 108.7 0.2 109.05 0.1 109.35 0.4 112.05 0.95 112.05 1.05 112.05 2.55 112.05 4.2 112.05 4.75 112.05 4.8 110.55 4.5 109.8 4.25 109.5 4.55 109.15 4.75 108.7 4.75 107.6 4.75 107.35 4.75 106.25 4.25 104.8 4.35 104.35 4.2 103.85 4.0 103.6 3.9 103.8 4.05 104.75 4.8 106.35 5.8 106.8 6.4 108.65 6.55 110.85 6.75 110.85 6.9 110.85 7.2 110.85 8.9 110.85 9.4 110.85 10.0 110.85 11.1 110.85 11.65 111.15 12.15 111.45 12.75 111.45 13.3 111.45 13.85 111.5 14.3 111.6 14.9 111.95 15.45 112.05 16.0 112.05 16.5 112.05 17.1 112.05 17.6 112.05 18.2 112.05 18.65 112.25 19.3 112.65 19.9 112.75 20.35 112.75 20.9 112.8 21.5 112.8 21.6 109.95 21.4 109.1 22.2 108.25 22.85 108.05 22.95 104.6 23.55 101.75 23.15 97.55 24.55 95.0 25.05 94.45 25.2 97.85 24.7 104.15 24.8 104.55 24.85 105.3 25.0 105.95 25.4 106.4 25.75 107.2 26.2 107.8 26.55 107.95 26.7 108.15 26.9 108.35 27.35 108.45 27.5 109.05 27.45 109.05 27.85 109.05 36.6 109.05 45.35 109.4 45.95 109.6 46.4 109.6 46.95 109.6 47.5 109.6 48.1 109.95 48.55 110.25 49.1 110.25 49.15 109.1 49.05 107.45 48.95 107.25 49.15 106.65 49.5 106.1 49.7 105.0 50.1 104.4 50.3 94.0 49.7 83.2 50.4 89.8 51.25 Q93.1 51.75 96.25 53.1 98.6 54.15 101.3 54.4 L101.95 54.8 102.8 55.55 103.3 55.9 104.6 56.05 111.9 56.35 111.8 56.65 111.5 57.15 111.45 57.65 111.45 58.75 111.45 60.45 111.45 62.0 111.05 62.7 110.85 63.1 110.85 64.2 110.85 67.5 110.85 70.8 111.25 71.35 111.45 71.9 111.45 72.4 111.45 74.1 111.45 75.4 109.95 75.05 109.8 75.0 109.8 74.7 109.45 74.1 106.65 73.9 106.0 74.15 104.55 74.3 102.35 74.55 101.75 74.95 99.25 75.3 98.65 75.7 85.05 76.05 84.45 76.4 79.0 76.6 Q78.0 77.3 76.8 77.4 76.55 77.4 76.45 77.55 L73.5 77.75 72.95 77.9 69.3 78.1 69.05 78.3 64.0 79.05 57.15 79.05 57.1 79.3 57.45 79.65 62.2 80.05 62.8 79.7 75.15 79.3 75.75 79.0 85.05 78.55 85.7 78.25 99.25 77.85 99.9 77.5 102.35 77.15 102.95 76.8 104.6 76.6 106.0 76.4 106.65 76.05 107.35 75.95 107.5 76.1 109.0 76.65 109.35 76.85 110.85 77.3 111.05 77.5 111.15 77.65 111.45 77.9 111.45 78.05 111.5 78.45 110.55 78.45 104.55 78.3 102.35 78.25 101.75 78.5 96.75 79.0 96.15 79.3 90.6 79.7 90.0 80.05 86.9 80.45 86.25 80.75 80.1 81.05 75.15 81.2 74.55 81.5 57.85 81.95 57.25 82.25 Q52.2 82.2 47.05 82.3 40.8 82.4 34.9 81.1 L34.65 81.05 23.6 79.2 22.0 79.0 Q21.9 79.05 21.75 79.2 L8.45 79.0 7.85 79.3 1.15 79.35 -15.1 78.9 -17.8 78.65 -29.1 78.3 -29.85 78.25 -29.85 78.3 -31.1 78.25 -31.15 78.35 -31.65 78.6 -33.2 79.15 -40.35 79.0 -40.95 79.3 -43.45 79.7 -45.3 80.5 -45.85 80.75 -47.75 81.2 -48.4 81.5 -55.55 81.05 -59.7 80.75 -59.8 80.6 -67.4 80.15 -67.55 80.05 -68.1 79.7 -69.05 79.3 -70.4 78.7 -70.85 78.45 -79.1 78.05 -95.15 77.3 -105.05 76.85 -105.8 76.8 -105.8 76.9 -106.4 77.15 -107.65 77.55 -108.25 77.85 -109.0 78.05 -110.6 78.45 Q-110.9 78.6 -111.25 78.9 L-111.25 78.05 -111.15 77.55 -111.05 77.0 -111.0 76.95 -108.9 77.15 -108.25 76.8 -105.8 76.4 -105.2 76.05 -102.65 75.7 -102.1 75.3 -101.05 75.1 -100.75 75.4 -98.25 76.1 -95.3 76.4 -94.65 76.05 -92.85 75.7 -92.45 75.4 -92.15 75.1 -92.15 74.8 -93.2 74.95 -97.45 74.95 -99.55 74.15 Q-100.9 73.5 -102.3 73.2 L-102.65 73.15 -102.7 73.25 -103.4 73.5 -105.2 73.9 -105.8 74.25 -108.9 74.55 -109.5 74.95 -110.75 75.2 -111.05 74.8 -111.25 74.8 -111.25 74.25 -111.45 73.8 -111.7 73.1 -111.8 72.65 -111.8 72.05 -111.8 70.95 -111.85 69.9 -111.95 69.3 -112.35 68.75 -112.5 68.2 -112.5 67.7 -112.5 66.6 -112.55 65.6 -112.6 64.95 -113.0 64.4 -113.0 63.85 -113.0 63.35 -113.3 62.8 -113.55 62.4 -113.7 62.25 -113.55 62.25 -111.4 61.85 -111.05 61.7 -110.7 61.2 -109.7 61.35 -106.4 61.85 -105.85 61.45 -105.45 61.05 -105.0 60.7 -104.6 60.4 -103.8 59.85 -103.2 60.25 -98.45 60.2 Q-98.05 60.1 -97.75 59.85 L-97.7 59.7 -98.45 59.7 -98.9 59.55 -99.95 59.3 -100.45 59.15 -100.5 59.05 -103.4 58.85 Q-104.4 58.9 -105.25 59.55 L-105.6 59.8 -107.1 60.45 -107.55 60.25 -107.75 59.9 -107.8 59.8 -108.75 59.85 -109.25 59.6 -110.6 59.05 -111.05 58.75 -112.5 58.9 -112.5 58.25 -112.45 56.1 Q-112.35 54.9 -112.6 53.9 L-112.95 53.3 -105.8 53.9 -105.2 53.5 -101.45 53.2 -100.85 52.75 -97.75 52.45 -97.15 52.05 -95.3 51.7 -93.5 50.95 -93.5 51.0 -93.15 50.75 -91.65 50.55 -91.25 50.4 -85.2 50.25 Q-81.05 47.05 -76.0 48.85 L-71.85 49.65 -69.65 49.1 -69.95 49.1 Q-75.8 47.65 -81.9 47.65 L-85.45 46.95 -85.5 47.1 -85.75 47.35 -87.3 47.35 -88.95 47.85 -90.35 47.65 -90.9 48.0 -90.95 48.0 -105.05 47.4 -107.55 47.3 -109.4 47.2 -109.5 47.25 -109.85 47.35 -110.25 47.15 -110.35 47.05 -110.7 46.95 -110.75 47.1 -111.15 47.25 -111.35 47.4 -111.3 47.3 -111.25 46.85 -111.25 45.7 -111.25 44.9 -110.35 44.95 -110.25 45.0 -110.25 44.95 -109.85 44.8 -107.7 44.8 -107.85 44.65 -108.75 44.25 -109.8 44.05 -109.85 43.95 -110.05 43.9 -110.15 43.8 -110.6 43.45 -111.3 43.4 -111.4 42.95 -111.7 42.35 -111.8 41.85 -111.8 41.25 -111.8 40.2 -111.8 39.15 -111.8 38.6 -108.85 39.15 -108.7 39.0 -108.5 38.8 -107.0 38.15 -105.25 37.5 -105.2 37.5 -105.45 36.95 Q-108.45 36.15 -111.4 35.7 L-112.2 35.0 -112.5 34.55 -112.5 34.0 -112.45 32.9 -112.3 31.8 -111.9 31.3 -111.85 31.05 -111.8 31.1 -105.0 32.45 -101.45 32.75 -100.85 32.4 -98.95 32.0 -98.85 31.95 -98.75 31.8 -98.4 31.4 -97.55 30.6 -95.8 29.2 Q-90.4 29.4 -85.55 27.85 L-85.45 27.45 -85.35 27.35 -85.45 27.3 -100.25 26.6 -100.85 26.9 -105.0 27.35 Q-109.15 27.25 -112.5 25.15 L-112.25 24.55 -111.9 24.0 -110.9 24.15 -105.05 24.6 -103.35 24.7 -102.65 24.4 -100.1 24.35 -102.55 23.8 -105.3 22.65 -109.35 22.55 -112.9 22.25 -113.0 22.05 -112.65 21.45 -112.5 20.95 -112.5 18.7 -112.5 16.0 -112.5 13.85 -112.5 12.75 -112.9 12.15 -113.0 11.65 -113.0 11.1 -113.0 9.4 -113.0 8.9 -113.0 6.7 -113.0 6.15 -112.05 5.75 -111.4 5.5 -109.05 4.8 -108.9 4.55 -108.9 4.2 -107.55 4.25 Q-106.4 3.5 -105.05 3.15 L-103.05 2.8 -99.0 2.3 -101.8 2.15 -102.55 2.0 -102.7 2.05 -104.3 2.15 -104.45 2.05 -104.55 2.15 -105.05 2.2 -108.75 2.15 -109.15 2.0 -110.7 0.85 -111.4 0.4 Q-111.8 0.05 -112.3 -0.2 L-113.0 -0.3 -113.0 -0.6 -113.0 -1.15 -108.95 -1.55 -108.5 -1.65 -108.25 -2.05 -107.65 -2.6 -105.85 -2.6 -105.0 -3.3 -104.05 -3.7 Q-100.85 -4.6 -97.35 -4.65 L-97.35 -4.7 -94.5 -4.4 Q-92.85 -4.25 -91.35 -3.55 L-90.9 -3.35 -90.1 -3.45 -89.55 -3.1 -78.75 -2.6 -78.7 -2.65 -78.1 -3.05 -77.55 -3.4 -67.8 -4.3 -88.45 -5.15 -88.85 -5.3 -89.15 -5.5 Q-89.55 -5.75 -90.05 -6.0 L-96.4 -6.5 -101.35 -6.85 -105.0 -7.25 Q-108.1 -7.8 -111.05 -8.95 L-111.4 -8.95 -111.8 -8.95 -111.8 -19.95 -111.8 -20.0 -111.8 -20.95 -111.8 -21.35 -111.7 -21.65 -111.55 -21.9 -111.5 -22.15 -111.5 -22.4 -111.5 -22.7 -111.5 -23.0 -111.45 -23.25 -111.35 -23.5 -111.25 -23.85 -111.25 -24.6 -111.25 -25.4 -111.25 -26.05 -111.15 -26.3 -111.05 -26.55 -110.95 -26.85 -110.95 -27.1 -110.95 -27.6 -111.05 -27.9 -111.15 -28.2 -111.25 -28.7 -111.25 -29.5 -111.25 -30.05 -111.35 -30.35 -111.4 -30.6 -111.45 -30.95 -111.5 -31.15 -111.5 -31.45 -111.55 -31.7 -111.7 -32.0 -111.8 -32.1 -111.8 -32.45 -111.85 -32.5 -111.85 -32.6 -109.05 -32.1 -109.05 -32.15 -108.75 -32.55 -108.3 -32.9 -107.8 -33.35 -106.5 -33.55 -106.5 -33.6 -105.0 -33.65 Q-96.75 -33.9 -88.75 -32.25 L-76.2 -33.55 -83.5 -34.35 -94.5 -36.0 -105.05 -37.7 -109.95 -38.7 -109.95 -38.8 -105.5 -38.7 -105.25 -38.9 -102.55 -38.9 -103.05 -39.65 -103.1 -39.85 -105.25 -40.0 -105.5 -39.8 -109.7 -39.65 -109.4 -40.1 -109.35 -40.6 -109.35 -42.3 -109.35 -48.55 -109.35 -48.85 -109.15 -49.35 -109.05 -49.7 -109.05 -49.95 -108.95 -50.15 -108.9 -50.45 -108.85 -50.75 -108.75 -51.0 -108.75 -51.3 -108.75 -51.6 -108.6 -51.9 -108.5 -52.1 -108.5 -52.4 -108.55 -52.7 -108.7 -52.95 -108.75 -53.2 -108.75 -53.5 -108.85 -53.75 -108.9 -54.05 -108.95 -54.25 -109.0 -54.55 -109.05 -54.85 -109.05 -55.1 -109.05 -55.35 -109.25 -55.65 -109.35 -55.85 -109.35 -56.85 -107.65 -56.85 -106.2 -57.2 -105.75 -57.35 -105.05 -57.4 -104.55 -57.4 -103.75 -58.0 -101.9 -58.9 -101.2 -59.2 Q-97.05 -60.85 -92.35 -60.35 L-91.1 -60.4 Q-86.65 -61.1 -82.4 -60.45 L-72.25 -59.95 -66.2 -59.6 -56.25 -60.3 -46.8 -60.65 -46.85 -60.7 -48.2 -61.15 -48.65 -61.45 -100.85 -61.55 -101.5 -61.4 -105.2 -60.8 -105.8 -60.5 -107.75 -60.2 -107.9 -60.3 -108.3 -60.5 -109.5 -60.5 -110.05 -60.35 -111.1 -60.05 -111.25 -60.0 -111.4 -59.8 -111.4 -59.9 -111.3 -60.15 -111.25 -60.4 -111.25 -61.75 -111.25 -63.1 -111.25 -63.6 -111.25 -63.9 -105.05 -63.8 -102.1 -63.8 -101.8 -64.05 -99.35 -64.15 -98.9 -64.1 -97.65 -63.9 -97.55 -63.95 -97.4 -63.95 -95.65 -63.95 -95.3 -64.15 -95.3 -64.4 -95.35 -64.45 -95.65 -64.45 -96.1 -64.65 -99.35 -64.85 -99.8 -65.05 -102.7 -65.2 -103.25 -65.45 -103.3 -65.45 -105.35 -65.75 -111.25 -66.15 -111.25 -68.85 -111.25 -69.2 -111.15 -69.4 -110.95 -69.6 -110.95 -70.95 -110.95 -72.05 -110.95 -72.6 -110.75 -72.85 -110.7 -73.1 -110.6 -73.4 -110.6 -73.7 -110.6 -73.95 -110.55 -74.2 -110.35 -74.5 -110.25 -75.6 -110.25 -76.45 -110.25 -76.7 -110.25 -77.25 -110.45 -77.55 -110.6 -77.85 -110.6 -78.1 -110.6 -78.75 -109.55 -79.8 -109.35 -79.95 -109.15 -80.0 -108.25 -80.15 Q-107.95 -80.25 -107.65 -80.45 L-105.0 -80.7 -102.45 -81.0 -102.0 -81.65 -102.0 -82.15 -102.0 -82.7 -101.8 -82.8 -89.1 -82.8 -89.4 -83.15 -89.55 -83.4 -88.95 -84.55 -105.05 -84.55 -106.3 -84.55 -106.3 -85.7 -105.05 -85.7 -104.8 -85.7 -104.0 -85.35 -103.6 -85.7 -87.3 -85.7 Q-87.0 -85.45 -86.5 -85.35 L-85.65 -85.7 104.55 -85.7 106.4 -85.7 106.4 -84.55 104.55 -84.55 104.35 -84.55 104.55 -84.0 Q105.65 -80.8 107.15 -77.9 L104.6 -77.9 101.1 -78.3 100.65 -78.1 100.45 -77.75 100.3 -77.3 95.55 -77.6 95.55 -77.55 Q95.35 -77.4 95.1 -77.35 L94.85 -77.0 94.75 -76.55 Q96.5 -75.4 98.75 -75.05 L101.3 -74.65 104.6 -74.05 109.85 -73.2 110.3 -72.6 109.4 -72.6 109.4 -72.65 109.35 -72.6 M-111.0 53.75 L-110.95 53.6 -110.75 53.5 -111.0 53.5 -111.0 53.75 M-110.8 34.3 L-110.75 34.5 -110.75 32.6 -110.8 33.75 -110.8 34.3 M-39.1 52.15 L-39.25 52.25 -38.65 52.15 -38.2 52.05 -38.0 52.0 -39.1 52.15 M-10.4 51.75 L-9.45 51.85 -9.4 51.85 -12.05 51.6 -10.4 51.75 M-50.2 57.55 L-48.65 57.65 -49.15 57.55 -50.2 57.55 M-42.7 52.7 L-45.8 52.9 -45.85 52.95 -43.15 52.85 -42.7 52.7 M46.2 51.4 L46.2 51.45 46.45 51.45 46.65 51.35 46.2 51.4 M58.65 61.4 L55.85 61.3 55.95 61.35 56.0 61.4 58.65 61.4 M51.4 56.3 L51.55 56.3 51.45 56.25 51.4 56.3 M63.3 59.7 L63.15 59.65 62.9 59.65 63.3 59.7 M61.6 55.55 L63.2 55.65 63.1 55.5 61.6 55.55 M68.85 54.5 L68.7 54.45 68.6 54.45 68.85 54.5 M74.15 56.75 L75.15 56.8 74.4 56.7 74.2 56.7 74.15 56.75 M37.0 50.7 L36.25 50.7 36.35 50.95 36.8 50.85 37.0 50.7 M34.85 53.6 L34.65 53.55 33.45 53.75 35.25 53.75 34.85 53.6 M90.1 55.05 L89.35 55.0 89.3 55.05 90.05 55.05 90.1 55.05 M110.3 56.85 L110.3 56.55 110.2 56.55 110.2 57.05 110.3 56.85 M109.0 56.75 L108.85 56.75 108.85 56.8 108.95 56.85 109.0 56.75 M108.7 -68.6 L108.7 -68.05 108.8 -68.05 108.8 -68.3 108.8 -68.85 108.8 -69.4 108.8 -69.5 108.7 -69.4 108.7 -69.15 108.7 -68.85 108.7 -68.6" fill="url(#gradient0)" fill-rule="evenodd" stroke="none"/>
    <path d="M114.55 -45.45 L114.55 -44.9 114.55 78.05 114.55 79.35 113.9 79.65 113.55 79.8 111.8 79.8 110.05 81.55 108.45 83.15 106.8 84.8 106.8 86.35 106.8 86.9 106.8 86.35 107.3 86.3 107.15 86.9 106.8 86.9 104.55 86.9 48.05 86.9 44.75 86.9 -105.05 86.9 -106.75 86.9 -106.75 86.35 -106.75 86.9 -107.05 86.9 -107.15 86.3 -107.0 86.35 -106.75 86.35 -106.75 84.55 -108.4 82.9 -110.0 81.3 -111.75 79.55 -113.5 79.55 -113.8 79.4 -114.35 79.15 -114.35 78.1 -114.15 78.0 Q-113.5 77.6 -113.25 76.75 L-113.5 76.2 -114.15 76.05 -114.25 76.0 -114.15 75.95 -113.75 75.25 -113.85 74.45 -114.0 74.4 -114.15 74.4 -114.35 74.35 -114.35 -57.0 -114.0 -57.1 -113.9 -57.45 -113.85 -57.6 -113.75 -58.5 -113.85 -59.4 -114.0 -59.6 -114.15 -59.6 -114.35 -59.6 -114.35 -59.95 -114.2 -60.05 -113.95 -60.3 Q-113.75 -60.0 -113.75 -61.25 L-113.85 -62.05 -114.0 -62.1 -114.15 -62.15 -114.35 -62.2 -114.35 -75.2 -114.15 -75.4 Q-113.75 -75.85 -113.75 -76.25 -113.75 -77.0 -114.15 -77.15 L-114.35 -77.15 -114.35 -77.3 -114.05 -77.6 Q-113.6 -77.75 -113.05 -78.05 L-111.3 -78.05 -110.6 -78.75 -110.6 -78.1 -110.6 -77.85 -110.45 -77.55 -110.25 -77.25 -110.25 -76.7 -110.25 -76.45 -110.25 -75.6 -110.35 -74.5 -110.55 -74.2 -110.6 -73.95 -110.6 -73.7 -110.6 -73.4 -110.7 -73.1 -110.75 -72.85 -110.95 -72.6 -110.95 -72.05 -110.95 -70.95 -110.95 -69.6 -111.15 -69.4 -111.25 -69.2 -111.25 -68.85 -111.25 -66.15 -105.35 -65.75 -103.3 -65.45 -103.25 -65.45 -102.7 -65.2 -99.8 -65.05 -99.35 -64.85 -96.1 -64.65 -95.65 -64.45 -95.35 -64.45 -95.3 -64.4 -95.3 -64.15 -95.65 -63.95 -97.4 -63.95 -97.55 -63.95 -97.65 -63.9 -98.9 -64.1 -99.35 -64.15 -101.8 -64.05 -102.1 -63.8 -105.05 -63.8 -111.25 -63.9 -111.25 -63.6 -111.25 -63.1 -111.25 -61.75 -111.25 -60.4 -111.3 -60.15 -111.4 -59.9 -111.4 -59.8 -111.25 -60.0 -111.1 -60.05 -110.05 -60.35 -109.5 -60.5 -108.3 -60.5 -107.9 -60.3 -107.75 -60.2 -105.8 -60.5 -105.2 -60.8 -101.5 -61.4 -100.85 -61.55 -48.65 -61.45 -48.2 -61.15 -46.85 -60.7 -46.8 -60.65 -56.25 -60.3 -66.2 -59.6 -72.25 -59.95 -82.4 -60.45 Q-86.65 -61.1 -91.1 -60.4 L-92.35 -60.35 Q-97.05 -60.85 -101.2 -59.2 L-101.9 -58.9 -103.75 -58.0 -104.55 -57.4 -105.05 -57.4 -105.75 -57.35 -106.2 -57.2 -107.65 -56.85 -109.35 -56.85 -109.35 -55.85 -109.25 -55.65 -109.05 -55.35 -109.05 -55.1 -109.05 -54.85 -109.0 -54.55 -108.95 -54.25 -108.9 -54.05 -108.85 -53.75 -108.75 -53.5 -108.75 -53.2 -108.7 -52.95 -108.55 -52.7 -108.5 -52.4 -108.5 -52.1 -108.6 -51.9 -108.75 -51.6 -108.75 -51.3 -108.75 -51.0 -108.85 -50.75 -108.9 -50.45 -108.95 -50.15 -109.05 -49.95 -109.05 -49.7 -109.15 -49.35 -109.35 -48.85 -109.35 -48.55 -109.35 -42.3 -109.35 -40.6 -109.4 -40.1 -109.7 -39.65 -105.5 -39.8 -105.25 -40.0 -103.1 -39.85 -103.05 -39.65 -102.55 -38.9 -105.25 -38.9 -105.5 -38.7 -109.95 -38.8 -109.95 -38.7 -105.05 -37.7 -94.5 -36.0 -83.5 -34.35 -76.2 -33.55 -88.75 -32.25 Q-96.75 -33.9 -105.0 -33.65 L-106.5 -33.6 -106.5 -33.55 -107.8 -33.35 -108.3 -32.9 -108.75 -32.55 -109.05 -32.15 -109.05 -32.1 -111.85 -32.6 -111.85 -32.5 -111.8 -32.45 -111.8 -32.1 -111.7 -32.0 -111.55 -31.7 -111.5 -31.45 -111.5 -31.15 -111.45 -30.95 -111.4 -30.6 -111.35 -30.35 -111.25 -30.05 -111.25 -29.5 -111.25 -28.7 -111.15 -28.2 -111.05 -27.9 -110.95 -27.6 -110.95 -27.1 -110.95 -26.85 -111.05 -26.55 -111.15 -26.3 -111.25 -26.05 -111.25 -25.4 -111.25 -24.6 -111.25 -23.85 -111.35 -23.5 -111.45 -23.25 -111.5 -23.0 -111.5 -22.7 -111.5 -22.4 -111.5 -22.15 -111.55 -21.9 -111.7 -21.65 -111.8 -21.35 -111.8 -20.95 -111.8 -20.0 -111.8 -19.95 -111.8 -8.95 -111.4 -8.95 -111.05 -8.95 Q-108.1 -7.8 -105.0 -7.25 L-101.35 -6.85 -96.4 -6.5 -90.05 -6.0 Q-89.55 -5.75 -89.15 -5.5 L-88.85 -5.3 -88.45 -5.15 -67.8 -4.3 -77.55 -3.4 -78.1 -3.05 -78.7 -2.65 -78.75 -2.6 -89.55 -3.1 -90.1 -3.45 -90.9 -3.35 -91.35 -3.55 Q-92.85 -4.25 -94.5 -4.4 L-97.35 -4.7 -97.35 -4.65 Q-100.85 -4.6 -104.05 -3.7 L-105.0 -3.3 -105.85 -2.6 -107.65 -2.6 -108.25 -2.05 -108.5 -1.65 -108.95 -1.55 -113.0 -1.15 -113.0 -0.6 -113.0 -0.3 -112.3 -0.2 Q-111.8 0.05 -111.4 0.4 L-110.7 0.85 -109.15 2.0 -108.75 2.15 -105.05 2.2 -104.55 2.15 -104.45 2.05 -104.3 2.15 -102.7 2.05 -102.55 2.0 -101.8 2.15 -99.0 2.3 -103.05 2.8 -105.05 3.15 Q-106.4 3.5 -107.55 4.25 L-108.9 4.2 -108.9 4.55 -109.05 4.8 -111.4 5.5 -112.05 5.75 -113.0 6.15 -113.0 6.7 -113.0 8.9 -113.0 9.4 -113.0 11.1 -113.0 11.65 -112.9 12.15 -112.5 12.75 -112.5 13.85 -112.5 16.0 -112.5 18.7 -112.5 20.95 -112.65 21.45 -113.0 22.05 -112.9 22.25 -109.35 22.55 -105.3 22.65 -102.55 23.8 -100.1 24.35 -102.65 24.4 -103.35 24.7 -105.05 24.6 -110.9 24.15 -111.9 24.0 -112.25 24.55 -112.5 25.15 Q-109.15 27.25 -105.0 27.35 L-100.85 26.9 -100.25 26.6 -85.45 27.3 -85.35 27.35 -85.45 27.45 -85.55 27.85 Q-90.4 29.4 -95.8 29.2 L-97.55 30.6 -98.4 31.4 -98.75 31.8 -98.85 31.95 -98.95 32.0 -100.85 32.4 -101.45 32.75 -105.0 32.45 -111.8 31.1 -111.85 31.05 -111.9 31.3 -112.3 31.8 -112.45 32.9 -112.5 34.0 -112.5 34.55 -112.2 35.0 -111.4 35.7 Q-108.45 36.15 -105.45 36.95 L-105.2 37.5 -105.25 37.5 -107.0 38.15 -108.5 38.8 -108.7 39.0 -108.85 39.15 -111.8 38.6 -111.8 39.15 -111.8 40.2 -111.8 41.25 -111.8 41.85 -111.7 42.35 -111.4 42.95 -111.3 43.4 -110.6 43.45 -110.15 43.8 -110.05 43.9 -109.85 43.95 -109.8 44.05 -108.75 44.25 -107.85 44.65 -107.7 44.8 -109.85 44.8 -110.25 44.95 -110.25 45.0 -110.35 44.95 -111.25 44.9 -111.25 45.7 -111.25 46.85 -111.3 47.3 -111.35 47.4 -111.15 47.25 -110.75 47.1 -110.7 46.95 -110.35 47.05 -110.25 47.15 -109.85 47.35 -109.5 47.25 -109.4 47.2 -107.55 47.3 -105.05 47.4 -90.95 48.0 -90.9 48.0 -90.35 47.65 -88.95 47.85 -87.3 47.35 -85.75 47.35 -85.5 47.1 -85.45 46.95 -81.9 47.65 Q-75.8 47.65 -69.95 49.1 L-69.65 49.1 -71.85 49.65 -76.0 48.85 Q-81.05 47.05 -85.2 50.25 L-91.25 50.4 -91.65 50.55 -93.15 50.75 -93.5 51.0 -93.5 50.95 -95.3 51.7 -97.15 52.05 -97.75 52.45 -100.85 52.75 -101.45 53.2 -105.2 53.5 -105.8 53.9 -112.95 53.3 -112.6 53.9 Q-112.35 54.9 -112.45 56.1 L-112.5 58.25 -112.5 58.9 -111.05 58.75 -110.6 59.05 -109.25 59.6 -108.75 59.85 -107.8 59.8 -107.75 59.9 -107.55 60.25 -107.1 60.45 -105.6 59.8 -105.25 59.55 Q-104.4 58.9 -103.4 58.85 L-100.5 59.05 -100.45 59.15 -99.95 59.3 -98.9 59.55 -98.45 59.7 -97.7 59.7 -97.75 59.85 Q-98.05 60.1 -98.45 60.2 L-103.2 60.25 -103.8 59.85 -104.6 60.4 -105.0 60.7 -105.45 61.05 -105.85 61.45 -106.4 61.85 -109.7 61.35 -110.7 61.2 -111.05 61.7 -111.4 61.85 -113.55 62.25 -113.7 62.25 -113.55 62.4 -113.3 62.8 -113.0 63.35 -113.0 63.85 -113.0 64.4 -112.6 64.95 -112.55 65.6 -112.5 66.6 -112.5 67.7 -112.5 68.2 -112.35 68.75 -111.95 69.3 -111.85 69.9 -111.8 70.95 -111.8 72.05 -111.8 72.65 -111.7 73.1 -111.45 73.8 -111.25 74.25 -111.25 74.8 -111.05 74.8 -110.75 75.2 -109.5 74.95 -108.9 74.55 -105.8 74.25 -105.2 73.9 -103.4 73.5 -102.7 73.25 -102.65 73.15 -102.3 73.2 Q-100.9 73.5 -99.55 74.15 L-97.45 74.95 -93.2 74.95 -92.15 74.8 -92.15 75.1 -92.45 75.4 -92.85 75.7 -94.65 76.05 -95.3 76.4 -98.25 76.1 -100.75 75.4 -101.05 75.1 -102.1 75.3 -102.65 75.7 -105.2 76.05 -105.8 76.4 -108.25 76.8 -108.9 77.15 -111.0 76.95 -111.05 77.0 -111.15 77.55 -111.25 78.05 -111.25 78.9 Q-110.9 78.6 -110.6 78.45 L-109.0 78.05 -108.25 77.85 -107.65 77.55 -106.4 77.15 -105.8 76.9 -105.8 76.8 -105.05 76.85 -95.15 77.3 -79.1 78.05 -70.85 78.45 -70.4 78.7 -69.05 79.3 -68.1 79.7 -67.55 80.05 -67.4 80.15 -59.8 80.6 -59.7 80.75 -55.55 81.05 -48.4 81.5 -47.75 81.2 -45.85 80.75 -45.3 80.5 -43.45 79.7 -40.95 79.3 -40.35 79.0 -33.2 79.15 -31.65 78.6 -31.15 78.35 -31.1 78.25 -29.85 78.3 -29.85 78.25 -29.1 78.3 -17.8 78.65 -15.1 78.9 1.15 79.35 7.85 79.3 8.45 79.0 21.75 79.2 Q21.9 79.05 22.0 79.0 L23.6 79.2 34.65 81.05 34.9 81.1 Q40.8 82.4 47.05 82.3 52.2 82.2 57.25 82.25 L57.85 81.95 74.55 81.5 75.15 81.2 80.1 81.05 86.25 80.75 86.9 80.45 90.0 80.05 90.6 79.7 96.15 79.3 96.75 79.0 101.75 78.5 102.35 78.25 104.55 78.3 110.55 78.45 111.5 78.45 111.45 78.05 111.45 77.9 111.15 77.65 111.05 77.5 110.85 77.3 109.35 76.85 109.0 76.65 107.5 76.1 107.35 75.95 106.65 76.05 106.0 76.4 104.6 76.6 102.95 76.8 102.35 77.15 99.9 77.5 99.25 77.85 85.7 78.25 85.05 78.55 75.75 79.0 75.15 79.3 62.8 79.7 62.2 80.05 57.45 79.65 57.1 79.3 57.15 79.05 64.0 79.05 69.05 78.3 69.3 78.1 72.95 77.9 73.5 77.75 76.45 77.55 Q76.55 77.4 76.8 77.4 78.0 77.3 79.0 76.6 L84.45 76.4 85.05 76.05 98.65 75.7 99.25 75.3 101.75 74.95 102.35 74.55 104.55 74.3 106.0 74.15 106.65 73.9 109.45 74.1 109.8 74.7 109.8 75.0 109.95 75.05 111.45 75.4 111.45 74.1 111.45 72.4 111.45 71.9 111.25 71.35 110.85 70.8 110.85 67.5 110.85 64.2 110.85 63.1 111.05 62.7 111.45 62.0 111.45 60.45 111.45 58.75 111.45 57.65 111.5 57.15 111.8 56.65 111.9 56.35 104.6 56.05 103.3 55.9 102.8 55.55 101.95 54.8 101.3 54.4 Q98.6 54.15 96.25 53.1 93.1 51.75 89.8 51.25 L83.2 50.4 94.0 49.7 104.4 50.3 105.0 50.1 106.1 49.7 106.65 49.5 107.25 49.15 107.45 48.95 109.1 49.05 110.25 49.15 110.25 49.1 109.95 48.55 109.6 48.1 109.6 47.5 109.6 46.95 109.6 46.4 109.4 45.95 109.05 45.35 109.05 36.6 109.05 27.85 109.05 27.45 108.45 27.5 108.35 27.35 108.15 26.9 107.95 26.7 107.8 26.55 107.2 26.2 106.4 25.75 105.95 25.4 105.3 25.0 104.55 24.85 104.15 24.8 97.85 24.7 94.45 25.2 95.0 25.05 97.55 24.55 101.75 23.15 104.6 23.55 108.05 22.95 108.25 22.85 109.1 22.2 109.95 21.4 112.8 21.6 112.8 21.5 112.75 20.9 112.75 20.35 112.65 19.9 112.25 19.3 112.05 18.65 112.05 18.2 112.05 17.6 112.05 17.1 112.05 16.5 112.05 16.0 111.95 15.45 111.6 14.9 111.5 14.3 111.45 13.85 111.45 13.3 111.45 12.75 111.15 12.15 110.85 11.65 110.85 11.1 110.85 10.0 110.85 9.4 110.85 8.9 110.85 7.2 110.85 6.9 110.85 6.75 108.65 6.55 106.8 6.4 106.35 5.8 104.75 4.8 103.8 4.05 103.6 3.9 103.85 4.0 104.35 4.2 104.8 4.35 106.25 4.25 107.35 4.75 107.6 4.75 108.7 4.75 109.15 4.75 109.5 4.55 109.8 4.25 110.55 4.5 112.05 4.8 112.05 4.75 112.05 4.2 112.05 2.55 112.05 1.05 112.05 0.95 109.35 0.4 109.05 0.1 108.7 0.2 107.35 0.35 106.65 0.7 104.2 1.05 103.6 1.45 101.1 1.8 100.5 2.15 98.85 1.75 98.7 1.7 99.55 1.45 102.8 0.45 103.1 0.1 104.55 -0.3 105.45 -0.65 107.5 -1.75 107.55 -1.75 108.65 -1.7 110.05 -1.55 111.45 -1.35 111.45 -1.65 111.45 -3.3 111.45 -3.8 111.65 -4.35 111.95 -5.0 112.05 -5.5 Q112.05 -5.8 112.2 -5.9 L112.35 -6.2 108.35 -5.85 104.55 -5.55 103.1 -5.5 103.0 -5.75 102.55 -6.15 101.85 -6.55 100.7 -6.7 97.85 -6.8 97.8 -6.75 96.55 -6.55 95.7 -6.2 Q94.85 -5.75 94.0 -5.45 L92.55 -4.95 Q85.55 -5.45 78.55 -5.1 L80.45 -5.4 82.45 -5.95 84.45 -6.45 Q87.6 -7.2 90.4 -8.6 L97.0 -12.3 98.05 -12.4 98.65 -12.75 104.55 -13.1 108.25 -13.4 108.55 -13.45 108.55 -13.5 109.45 -13.25 110.35 -12.7 110.55 -12.6 110.55 -12.8 Q110.35 -12.85 110.25 -12.95 L110.25 -13.85 110.25 -14.45 110.25 -14.95 110.05 -15.2 109.95 -15.5 109.95 -15.8 109.95 -16.0 109.9 -16.3 109.85 -16.65 109.6 -17.2 109.6 -18.0 109.6 -18.85 109.55 -19.05 109.45 -19.35 109.35 -19.65 109.25 -19.9 109.35 -20.1 109.45 -20.35 109.6 -20.7 109.6 -21.8 109.6 -23.15 109.6 -23.95 109.85 -24.55 109.95 -25.1 109.95 -25.9 110.0 -26.15 110.05 -26.45 110.25 -26.8 110.25 -27.0 110.25 -27.3 110.25 -27.55 110.3 -27.75 110.3 -30.2 108.6 -30.3 108.55 -30.7 108.3 -31.15 108.15 -31.5 107.65 -31.85 107.0 -32.3 104.55 -32.35 Q95.0 -32.75 85.7 -34.05 L87.0 -34.4 Q93.7 -34.7 100.25 -35.95 L100.55 -36.25 102.9 -37.95 104.55 -37.95 106.95 -38.0 106.95 -38.3 106.5 -38.6 106.5 -41.9 106.5 -45.7 106.5 -46.8 106.7 -47.3 107.15 -47.9 107.15 -49.0 107.15 -50.1 107.15 -51.2 107.4 -51.75 107.65 -52.35 107.75 -52.85 107.8 -52.9 104.55 -52.95 93.6 -53.35 93.45 -53.45 93.2 -53.75 92.8 -53.95 89.45 -54.15 89.05 -54.25 85.8 -54.4 85.35 -54.6 82.65 -54.6 82.8 -54.75 83.2 -54.95 83.25 -55.0 102.2 -54.6 102.3 -55.15 102.55 -55.5 102.95 -55.75 104.55 -55.85 107.75 -56.1 107.85 -56.55 108.55 -57.55 108.7 -57.65 105.55 -57.75 104.55 -57.8 102.35 -57.9 101.75 -57.55 96.3 -57.7 76.95 -57.9 76.45 -57.55 56.25 -57.2 57.05 -57.4 58.7 -58.0 Q62.0 -59.2 65.6 -59.5 L67.6 -59.8 Q82.95 -60.05 97.4 -64.15 L100.15 -64.1 104.55 -63.9 110.25 -63.65 110.25 -63.7 110.25 -64.3 110.25 -64.85 110.25 -65.4 110.25 -65.9 110.25 -66.5 110.25 -67.0 110.25 -67.6 110.3 -68.15 110.55 -68.7 110.8 -69.1 110.85 -69.25 110.85 -69.8 110.85 -70.1 110.85 -70.35 110.95 -70.45 111.0 -70.65 110.95 -70.65 110.55 -70.9 109.35 -71.35 108.7 -71.5 108.6 -71.6 108.25 -71.75 Q108.05 -71.85 107.95 -71.9 L107.6 -72.1 105.1 -72.1 105.15 -72.3 105.45 -72.4 106.0 -72.6 106.4 -72.8 107.75 -72.65 107.85 -72.7 107.85 -72.8 108.55 -72.6 109.35 -72.6 109.3 -72.55 109.3 -72.25 109.3 -71.95 109.3 -71.65 109.3 -71.5 109.4 -71.65 109.4 -72.25 109.4 -72.6 110.3 -72.6 109.85 -73.2 104.6 -74.05 101.3 -74.65 98.75 -75.05 Q96.5 -75.4 94.75 -76.55 L94.85 -77.0 95.1 -77.35 Q95.35 -77.4 95.55 -77.55 L95.55 -77.6 100.3 -77.3 100.45 -77.75 100.65 -78.1 101.1 -78.3 104.6 -77.9 107.15 -77.9 Q105.65 -80.8 104.55 -84.0 L104.35 -84.55 104.55 -84.55 106.4 -84.55 106.4 -82.85 108.05 -81.2 109.65 -79.6 111.4 -77.85 113.15 -77.85 113.9 -77.5 114.55 -77.3 114.55 -77.05 114.55 -47.15 114.55 -46.6 114.55 -46.0 114.55 -45.45 M-106.3 -84.55 L-105.05 -84.55 -88.95 -84.55 -89.55 -83.4 -89.4 -83.15 -89.1 -82.8 -101.8 -82.8 -102.0 -82.7 -102.0 -82.15 -102.0 -81.65 -102.45 -81.0 -105.0 -80.7 -107.65 -80.45 Q-107.95 -80.25 -108.25 -80.15 L-109.15 -80.0 -109.35 -79.95 -108.95 -80.4 -108.9 -80.3 -108.9 -80.45 -107.95 -81.4 -106.3 -83.05 -106.3 -84.55 M-108.15 -80.85 L-108.1 -81.0 -108.0 -81.15 -108.15 -81.15 -108.15 -80.85 M109.8 -74.25 L109.9 -74.25 110.0 -74.2 110.0 -74.3 109.8 -74.25 M105.35 -74.6 L107.2 -74.0 107.15 -74.05 106.8 -74.25 Q106.65 -74.35 106.55 -74.4 L106.2 -74.6 105.35 -74.6 M107.9 -73.8 L107.35 -73.9 107.6 -73.8 108.15 -73.7 108.4 -73.6 109.0 -73.4 107.9 -73.8" fill="#4f2400" fill-rule="evenodd" stroke="none"/>
    <path d="M114.55 79.35 L115.9 79.45 116.2 79.8 116.3 80.05 116.45 80.55 124.95 80.55 Q123.95 82.1 123.75 83.5 L122.5 83.4 121.35 83.35 115.3 83.15 113.95 84.9 113.1 85.9 111.8 87.35 111.5 87.65 111.4 89.5 111.3 91.15 111.2 92.05 111.1 93.65 111.05 94.0 110.6 96.75 110.35 97.1 Q108.25 96.8 107.55 97.55 L107.55 93.1 107.9 91.15 107.85 90.5 107.8 90.05 107.7 89.0 Q107.55 88.35 107.55 87.4 L107.55 87.15 107.6 86.9 107.75 86.1 Q108.35 83.9 111.05 81.6 L111.1 81.15 111.45 80.75 112.3 80.55 112.35 80.55 Q112.75 80.25 113.1 80.05 113.35 79.9 113.55 79.8 L113.9 79.65 114.55 79.35 M-113.05 -78.05 Q-113.6 -77.75 -114.05 -77.6 L-114.1 -77.6 -114.35 -77.5 Q-115.3 -77.35 -115.7 -78.05 L-115.8 -78.3 -115.95 -78.8 -124.45 -78.8 Q-123.45 -80.35 -123.25 -81.75 L-122.0 -81.65 -121.1 -81.6 -114.8 -81.4 -114.25 -82.1 -113.55 -82.95 -111.45 -85.4 -111.25 -85.65 -111.2 -85.65 -111.0 -85.9 -110.55 -92.25 -110.35 -93.6 -110.1 -95.0 -109.85 -95.35 Q-107.75 -95.05 -107.05 -95.8 L-107.05 -91.35 Q-107.4 -90.5 -107.35 -89.0 L-107.35 -88.75 -107.2 -87.25 Q-107.05 -86.6 -107.05 -85.7 L-107.05 -85.65 Q-107.05 -85.05 -107.2 -84.45 -107.45 -83.55 -108.0 -82.65 L-108.15 -82.4 -108.95 -81.4 -110.5 -79.9 -110.55 -79.85 -110.6 -79.4 -110.95 -79.0 -111.8 -78.8 -111.85 -78.8 -112.6 -78.3 -113.05 -78.05 -115.7 -78.05 -113.05 -78.05 M-114.35 79.15 L-113.8 79.4 -113.5 79.55 -116.15 79.55 -113.5 79.55 -113.05 79.8 -112.3 80.3 -112.25 80.3 -111.4 80.5 -111.05 80.9 -111.0 81.35 Q-108.2 83.75 -107.6 86.05 L-107.5 86.9 -107.5 87.15 Q-107.5 88.1 -107.65 88.75 L-107.7 89.65 -107.8 90.25 Q-107.9 91.95 -107.5 92.85 L-107.5 97.3 Q-108.2 96.55 -110.3 96.85 L-110.55 96.5 -111.0 93.75 -111.1 92.05 -111.45 87.4 -112.7 86.05 Q-113.4 85.55 -113.8 84.7 L-115.25 82.9 -121.25 83.1 -122.45 83.15 -123.7 83.25 Q-123.9 81.85 -124.9 80.3 L-116.4 80.3 -116.25 79.8 -116.15 79.55 -116.1 79.5 Q-115.6 78.75 -114.35 79.15 M-126.3 -79.3 L-126.55 -80.15 -126.5 -80.95 -126.3 -80.75 -126.2 -80.75 -126.2 -80.2 -126.15 -79.15 -126.3 -79.3 -126.3 -80.75 -126.3 -79.3 M126.6 -80.75 L126.65 -79.95 126.4 -79.1 126.4 -80.55 126.4 -79.1 126.25 -78.95 126.3 -80.0 126.3 -80.55 126.4 -80.55 126.6 -80.75 M124.55 -78.6 L116.05 -78.6 115.9 -78.1 115.8 -77.85 113.15 -77.85 115.8 -77.85 115.15 -77.35 114.55 -77.3 113.9 -77.5 113.15 -77.85 112.7 -78.1 111.95 -78.6 111.9 -78.6 111.05 -78.8 110.7 -79.2 110.65 -79.65 109.35 -80.9 Q107.6 -82.75 107.25 -84.55 L107.15 -85.45 107.15 -85.7 107.15 -85.8 107.3 -87.05 107.45 -88.55 Q107.55 -90.25 107.15 -91.15 L107.15 -95.6 Q107.85 -94.85 109.95 -95.15 L110.2 -94.8 110.65 -92.05 110.7 -91.55 111.1 -85.7 111.25 -85.5 111.8 -84.9 112.45 -84.2 113.05 -83.5 113.8 -82.55 114.5 -81.7 114.9 -81.2 122.1 -81.45 122.45 -81.45 123.35 -81.55 Q123.55 -80.15 124.55 -78.6 M-126.95 82.45 L-127.0 81.65 -126.75 80.8 -126.75 82.25 -126.95 82.45 M107.3 -98.1 L107.4 -98.25 Q107.65 -98.6 108.4 -98.6 L108.8 -98.5 109.0 -98.3 107.3 -98.1 M-107.65 99.8 L-107.75 99.95 Q-108.0 100.3 -108.75 100.3 L-109.15 100.2 -109.35 100.0 -107.65 99.8 M-126.6 80.65 L-126.65 81.7 -126.65 82.25 -126.75 82.25 -126.75 80.8 -126.6 80.65 M-107.2 -98.3 L-108.9 -98.5 -108.7 -98.7 -108.3 -98.8 Q-107.55 -98.8 -107.3 -98.45 L-107.2 -98.3 M107.7 100.05 L109.4 100.25 109.2 100.45 108.8 100.55 Q108.05 100.55 107.8 100.2 L107.7 100.05 M126.8 82.5 L126.7 82.5 126.7 81.95 126.65 80.9 126.8 81.05 127.05 81.9 127.0 82.7 126.8 82.5 126.8 81.05 126.8 82.5 M113.55 79.8 L116.2 79.8 113.55 79.8" fill="#dedede" fill-rule="evenodd" stroke="none"/>
    <path d="M118.75 36.2 L118.85 36.65 119.25 36.9 119.3 37.05 120.25 37.15 120.25 40.45 120.2 50.55 Q120.15 56.55 120.25 60.4 L120.15 68.2 Q119.25 68.35 119.25 69.25 L119.35 70.15 119.75 70.4 119.9 70.55 120.05 70.6 Q120.05 75.0 120.85 78.1 L121.4 79.8 119.2 79.8 121.4 79.8 121.5 80.1 119.65 80.05 119.2 79.8 118.75 79.15 118.75 78.05 118.75 36.2 M121.5 -77.45 L121.5 -77.35 118.75 -77.5 118.75 -77.85 118.75 -78.1 121.15 -78.15 121.3 -77.85 121.5 -77.45 M118.75 -73.85 L120.0 -73.85 121.3 -74.85 121.35 -74.85 121.15 -70.8 Q119.25 -70.95 119.25 -69.75 L119.3 -69.25 119.25 -69.0 119.3 -67.6 119.7 -67.45 121.0 -67.35 121.0 -66.85 119.95 -66.8 Q119.25 -66.55 119.25 -65.75 L119.35 -64.85 119.75 -64.6 119.8 -64.45 120.75 -64.35 120.9 -64.35 Q120.45 -52.65 120.35 -38.5 L120.25 1.15 120.25 34.6 120.05 34.65 Q118.75 34.95 118.75 35.75 L118.75 2.8 118.75 2.4 118.75 -73.85 M121.65 80.1 L122.1 79.9 122.1 80.15 121.65 80.1 M-114.95 74.2 L-116.1 74.1 -117.55 74.2 Q-117.95 71.65 -117.95 68.5 -117.65 61.7 -117.75 58.4 L-117.8 48.6 -117.75 42.1 -117.5 42.0 Q-116.75 41.7 -116.75 40.75 L-116.85 39.95 -117.0 39.9 -117.75 39.8 -117.75 38.9 -117.75 0.0 -117.65 -39.2 -117.35 -57.05 -116.1 -56.85 -116.0 -56.85 -115.1 -56.85 -114.8 -39.35 -114.75 0.25 -114.8 30.1 -114.95 74.2 M-115.2 -59.7 L-116.1 -59.7 -117.25 -59.45 -116.7 -74.35 -116.3 -74.35 -116.25 -73.35 -116.2 -74.35 -115.8 -74.35 -115.25 -62.35 -116.05 -62.3 -116.1 -62.25 Q-116.75 -62.0 -116.75 -61.25 L-116.65 -60.35 -116.25 -60.1 -116.2 -59.95 -116.1 -59.9 -115.25 -59.85 -115.2 -59.85 -115.2 -59.7 M-115.95 -77.35 L-116.05 -77.35 -116.0 -78.05 -116.0 -78.3 -115.95 -78.05 -116.0 -78.05 -115.95 -78.05 -115.95 -77.35 M-116.45 -77.35 L-116.5 -77.35 -116.5 -77.7 -116.45 -77.35 M-116.35 78.15 L-115.0 78.15 -115.0 78.65 -116.0 79.15 -116.1 78.9 -116.35 78.15 M118.75 -77.85 L121.3 -77.85 118.75 -77.85 M106.75 90.15 L106.55 88.7 106.5 88.6 Q106.15 88.1 104.55 87.75 L103.25 87.45 103.4 88.45 103.25 88.45 103.4 90.15 65.15 90.15 64.95 90.15 60.5 90.15 Q59.7 89.2 58.25 89.95 L58.25 90.15 -91.25 90.15 -92.05 90.15 -102.25 90.15 Q-102.3 88.75 -102.45 88.4 -103.0 87.0 -105.2 87.4 L-105.2 90.1 -105.5 90.0 -105.9 89.85 -106.05 89.65 -106.75 89.65 -106.75 89.4 -106.75 87.15 -106.75 89.4 -106.85 88.25 -107.0 87.15 -106.75 87.15 -105.05 87.15 1.1 87.15 2.55 87.15 104.55 87.15 106.8 87.15 106.8 89.65 106.8 87.15 107.1 87.15 106.9 88.5 106.8 89.65 106.8 90.15 106.75 90.15 M-102.75 -86.85 Q-102.25 -87.65 -102.25 -88.1 L-102.25 -88.8 -102.35 -89.35 -86.85 -89.35 -87.75 -89.05 -87.75 -86.85 -102.75 -86.85 M103.65 -89.35 L103.7 -89.15 Q104.0 -87.75 104.4 -86.85 L-85.25 -86.85 -85.25 -87.5 Q-85.25 -88.55 -85.4 -88.85 L-85.95 -89.35 103.65 -89.35" fill="#cdced0" fill-rule="evenodd" stroke="none"/>
    <path d="M109.35 -72.6 L109.4 -72.65 109.4 -72.6 109.4 -72.25 109.4 -71.65 109.3 -71.5 109.3 -71.65 109.3 -71.95 109.3 -72.25 109.3 -72.55 109.35 -72.6 M106.4 -84.55 L106.4 -85.7 106.6 -85.7 106.8 -84.55 Q107.25 -82.5 108.05 -81.2 L106.4 -82.85 106.4 -84.55 M-111.0 53.75 L-111.0 53.5 -110.75 53.5 -110.95 53.6 -111.0 53.75 M-42.7 52.7 L-43.15 52.85 -45.85 52.95 -45.8 52.9 -42.7 52.7 M-50.2 57.55 L-49.15 57.55 -48.65 57.65 -50.2 57.55 M-10.4 51.75 L-12.05 51.6 -9.4 51.85 -9.45 51.85 -10.4 51.75 M-39.1 52.15 L-38.0 52.0 -38.2 52.05 -38.65 52.15 -39.25 52.25 -39.1 52.15 M-110.8 34.3 L-110.8 33.75 -110.75 32.6 -110.75 34.5 -110.8 34.3 M-108.95 -80.4 L-108.9 -80.45 -108.9 -80.3 -108.95 -80.4 M-108.15 -80.85 L-108.15 -81.15 -108.0 -81.15 -108.1 -81.0 -108.15 -80.85 M46.2 51.4 L46.65 51.35 46.45 51.45 46.2 51.45 46.2 51.4 M34.85 53.6 L35.25 53.75 33.45 53.75 34.65 53.55 34.85 53.6 M37.0 50.7 L36.8 50.85 36.35 50.95 36.25 50.7 37.0 50.7 M74.15 56.75 L74.2 56.7 74.4 56.7 75.15 56.8 74.15 56.75 M68.85 54.5 L68.6 54.45 68.7 54.45 68.85 54.5 M61.6 55.55 L63.1 55.5 63.2 55.65 61.6 55.55 M63.3 59.7 L62.9 59.65 63.15 59.65 63.3 59.7 M51.4 56.3 L51.45 56.25 51.55 56.3 51.4 56.3 M58.65 61.4 L56.0 61.4 55.95 61.35 55.85 61.3 58.65 61.4 M90.1 55.05 L90.05 55.05 89.3 55.05 89.35 55.0 90.1 55.05 M110.3 56.85 L110.2 57.05 110.2 56.55 110.3 56.55 110.3 56.85 M109.0 56.75 L108.95 56.85 108.85 56.8 108.85 56.75 109.0 56.75 M109.8 -74.25 L110.0 -74.3 110.0 -74.2 109.9 -74.25 109.8 -74.25 M105.35 -74.6 L106.2 -74.6 106.55 -74.4 Q106.65 -74.35 106.8 -74.25 L107.15 -74.05 107.2 -74.0 105.35 -74.6 M108.7 -68.6 L108.7 -68.85 108.7 -69.15 108.7 -69.4 108.8 -69.5 108.8 -69.4 108.8 -68.85 108.8 -68.3 108.8 -68.05 108.7 -68.05 108.7 -68.6 M107.9 -73.8 L109.0 -73.4 108.4 -73.6 108.15 -73.7 107.6 -73.8 107.35 -73.9 107.9 -73.8" fill="#8f4903" fill-rule="evenodd" stroke="none"/>
    <path d="M-106.3 -85.7 L-106.3 -84.55 -106.3 -83.05 -106.4 -83.05 -106.7 -82.95 -107.3 -82.7 -106.75 -84.55 -106.55 -85.7 -106.3 -85.7 M-109.55 -79.8 L-110.6 -78.75 -111.3 -78.05 -113.05 -78.05 -112.6 -78.3 -111.8 -78.3 Q-110.9 -78.65 -110.6 -79.2 L-110.55 -79.3 -110.6 -79.4 Q-110.05 -79.5 -109.55 -79.8 M-114.05 -77.6 L-114.35 -77.3 -114.35 -77.5 -114.1 -77.6 -114.05 -77.6 M-113.5 79.55 L-111.75 79.55 -110.0 81.3 -111.05 80.9 -111.0 80.8 Q-111.3 80.2 -112.25 79.8 L-113.05 79.8 -113.5 79.55 M-108.4 82.9 L-106.75 84.55 -106.75 86.35 -107.0 86.35 -107.15 86.3 Q-107.6 84.2 -108.4 82.9 M106.8 86.35 L106.8 84.8 108.45 83.15 Q107.7 84.35 107.3 86.3 L106.8 86.35 M110.05 81.55 L111.8 79.8 113.55 79.8 Q113.35 79.9 113.1 80.05 L112.3 80.05 Q111.35 80.45 111.05 81.05 L111.1 81.15 110.05 81.55 M112.7 -78.1 L113.15 -77.85 111.4 -77.85 109.65 -79.6 110.7 -79.2 110.65 -79.1 Q110.95 -78.5 111.9 -78.1 L112.7 -78.1" fill="#6e3701" fill-rule="evenodd" stroke="none"/>
    <path d="M-107.95 -81.4 L-107.3 -82.7 -106.7 -82.95 -106.4 -83.05 -106.3 -83.05 -107.95 -81.4" fill="#a05f1f" fill-rule="evenodd" stroke="none"/>
    <path d="M121.4 79.8 L122.25 79.8 122.45 79.8 122.45 79.65 122.45 78.05 122.45 -77.05 122.45 -77.25 122.45 -77.85 121.5 -77.85 121.3 -77.85 118.75 -77.85 115.8 -77.85 113.15 -77.85 111.4 -77.85 109.65 -79.6 108.05 -81.2 106.4 -82.85 106.4 -84.55 106.4 -85.7 104.55 -85.7 -85.65 -85.7 -87.3 -85.7 -103.6 -85.7 -104.8 -85.7 -105.05 -85.7 -106.3 -85.7 -106.3 -84.55 -106.3 -83.05 -107.95 -81.4 -108.9 -80.45 -108.95 -80.4 -109.35 -79.95 -109.55 -79.8 -110.6 -78.75 -111.3 -78.05 -113.05 -78.05 -115.7 -78.05 -115.95 -78.05 -116.0 -78.05 -121.5 -78.05 -125.0 -78.05 -125.95 -78.05 -126.3 -78.05 -126.3 -79.3 -126.3 -80.75 -126.3 -82.7 -126.3 -83.05 -125.1 -84.3 -121.1 -88.45 -113.2 -96.6 -111.9 -97.95 -110.8 -99.05 -106.3 -99.05 -106.3 -93.6 -105.05 -93.6 -105.0 -93.6 104.55 -93.6 106.4 -93.6 106.4 -93.85 106.4 -98.85 110.9 -98.85 112.0 -97.75 113.3 -96.4 121.2 -88.25 125.2 -84.1 126.4 -82.85 126.4 -82.5 126.4 -80.55 126.4 -79.1 126.4 -77.85 126.05 -77.85 125.1 -77.85 122.45 -77.85 M119.2 79.8 L121.4 79.8 M114.55 -45.45 L114.55 -44.9 114.55 78.05 114.55 79.35 M116.2 79.8 L119.2 79.8 M-114.35 -77.3 L-114.35 -77.15 -114.35 -77.05 -114.35 -75.2 -114.35 -62.2 -114.35 -59.95 -114.35 -59.6 -114.35 -57.0 -114.35 74.35 -114.35 78.05 -114.35 78.1 -114.35 79.15 M-113.5 79.55 L-111.75 79.55 -110.0 81.3 -108.4 82.9 -106.75 84.55 -106.75 86.35 -106.75 86.9 -105.05 86.9 44.75 86.9 48.05 86.9 104.55 86.9 106.8 86.9 106.8 86.35 106.8 84.8 108.45 83.15 110.05 81.55 111.8 79.8 113.55 79.8 116.2 79.8 M-121.5 -76.9 L-121.5 -74.9 -121.5 -47.5 -121.5 -45.85 -121.5 5.2 -121.5 8.45 -121.5 9.3 -121.5 11.45 -121.5 37.8 -121.5 40.1 -121.5 41.65 -121.5 63.15 -121.5 63.3 -121.5 76.75 -121.5 78.05 -121.5 79.55 -116.15 79.55 -113.5 79.55 M114.55 -77.3 L114.55 -77.05 114.55 -47.15 114.55 -46.6 114.55 -46.0 M-121.5 -76.9 L-121.5 -77.05 -121.5 -78.05 -121.5 -78.35 M65.7 94.35 L104.55 94.35 106.8 94.35 106.8 93.65 106.8 91.15 106.8 90.15 106.8 89.65 106.8 87.15 106.8 86.9 M-104.4 94.35 L-88.25 94.35 59.3 94.35 61.15 94.35 64.75 94.35 65.7 94.35 M-104.4 94.35 L-105.05 94.35 -106.75 94.35 -106.75 94.7 -106.75 100.55 -111.25 100.55 -112.35 99.45 -113.65 98.1 -121.55 89.95 -125.55 85.8 -126.75 84.55 -126.75 84.2 -126.75 82.25 -126.75 80.8 -126.75 79.55 -126.4 79.55 -125.45 79.55 -121.5 79.55 M-106.75 87.15 L-106.75 89.4 -106.75 89.65 -106.75 91.5 -106.75 94.35 M106.4 -93.0 L106.4 -93.6 106.45 -93.6 M106.4 -86.5 L106.4 -87.7 106.4 -93.0 M-106.3 -85.7 L-106.3 -93.6 M-106.55 -85.7 L-106.3 -85.7 M-114.35 -77.3 L-114.35 -77.5 M112.4 99.7 L113.7 98.35 121.6 90.2 125.6 86.05 126.8 84.8 126.8 84.45 126.8 82.5 126.8 81.05 126.8 79.8 126.45 79.8 125.5 79.8 122.45 79.8 122.45 80.15 M106.8 94.95 L106.8 100.8 111.3 100.8 112.4 99.7 M106.8 94.95 L106.8 94.35 M106.4 -85.7 L106.6 -85.7" fill="none" stroke="#333333" stroke-linecap="round" stroke-linejoin="round" stroke-width="2.5"/>
  </g>
  <defs>
    <radialGradient cx="0" cy="0" gradientTransform="matrix(0.1403, 0.0, 0.0, 0.0732, 12.95, -11.95)" gradientUnits="userSpaceOnUse" id="gradient0" r="819.2" spreadMethod="pad">
      <stop offset="0.0" stop-color="#883700"/>
      <stop offset="0.7019607843137254" stop-color="#743200"/>
      <stop offset="1.0" stop-color="#642f00"/>
    </radialGradient>
  </defs>
</svg>
