<?xml version="1.0" encoding="UTF-8" standalone="no"?>
<svg xmlns:ffdec="https://www.free-decompiler.com/flash" xmlns:xlink="http://www.w3.org/1999/xlink" ffdec:objectType="shape" height="32.75px" width="33.65px" xmlns="http://www.w3.org/2000/svg">
  <g transform="matrix(1.0, 0.0, 0.0, 1.0, 12.9, 17.1)">
    <path d="M0.4 -15.75 L1.25 -16.4 1.5 -16.55 Q2.4 -17.1 3.6 -17.1 L3.9 -17.1 5.15 -16.9 Q6.5 -16.6 7.4 -15.55 8.25 -14.45 8.25 -13.15 L8.2 -12.65 8.3 -12.55 7.9 -11.6 7.8 -11.35 7.15 -10.6 7.1 -10.6 7.0 -10.65 7.0 -10.75 6.75 -10.75 5.7 -10.8 6.05 -11.15 Q6.85 -12.25 6.85 -13.15 6.85 -14.1 6.1 -14.9 5.15 -16.0 3.3 -15.65 2.1 -15.4 1.6 -14.5 L1.6 -14.45 Q1.25 -13.9 1.2 -13.25 0.2 -14.25 -0.15 -15.1 L0.4 -15.75 M14.85 -7.3 Q15.6 -7.95 16.95 -8.3 L17.4 -8.45 17.95 -8.45 Q20.75 -8.45 20.75 -4.9 20.8 -4.15 20.25 -3.3 L18.9 -3.5 19.25 -4.0 19.7 -5.45 19.2 -6.6 18.65 -7.05 17.7 -7.35 16.45 -7.1 Q15.8 -6.95 15.55 -6.6 L15.35 -5.95 Q15.0 -6.55 14.8 -7.25 L14.85 -7.3 M-11.7 -7.55 Q-11.05 -8.15 -10.15 -8.35 L-9.4 -8.35 -9.1 -8.35 Q-7.35 -8.25 -6.6 -7.15 -6.1 -6.45 -6.1 -5.65 L-6.25 -4.15 -4.85 -3.8 -4.25 -3.5 -6.35 -3.1 -7.75 -3.2 -7.35 -3.6 Q-6.95 -4.3 -6.95 -5.25 -6.95 -6.45 -7.8 -6.85 L-8.45 -7.0 -9.3 -7.1 -9.4 -7.05 -10.45 -6.95 Q-11.1 -6.55 -11.35 -6.15 L-11.7 -7.55 M6.75 6.95 Q7.45 6.6 8.35 6.6 L10.2 7.05 12.3 7.45 Q13.45 7.45 14.65 6.85 L15.75 6.1 16.55 5.2 16.95 4.7 Q16.95 4.25 17.25 4.4 L17.55 4.9 17.7 7.5 Q17.7 9.1 17.1 10.8 L17.05 10.95 15.85 11.3 15.9 11.15 16.2 10.5 Q16.9 8.95 17.0 7.5 L17.0 7.15 Q17.05 6.55 16.7 6.55 L15.55 7.9 14.2 8.8 12.8 9.0 Q11.1 9.0 10.45 8.5 9.8 8.05 8.75 8.05 6.35 8.05 5.55 9.9 5.1 9.95 4.75 10.2 L5.05 8.9 Q5.1 8.3 5.85 7.6 L6.75 6.95 M-10.25 4.5 L-10.15 4.4 -9.4 5.3 -8.65 6.1 -7.55 6.85 Q-6.35 7.45 -5.2 7.45 L-3.1 7.05 -1.25 6.6 Q0.25 6.6 1.25 7.6 2.0 8.3 2.05 8.9 2.5 9.8 2.5 12.35 L2.4 13.55 1.95 12.65 1.95 12.35 1.95 11.95 Q1.95 10.8 1.6 10.0 0.85 8.05 -1.65 8.05 -2.7 8.05 -3.35 8.5 L-5.7 9.0 -7.1 8.8 -8.45 7.9 -9.55 6.6 -9.6 6.55 -9.7 6.55 -9.95 5.8 -10.25 4.5" fill="#f9993b" fill-rule="evenodd" stroke="none"/>
    <path d="M1.2 -13.25 Q1.25 -13.9 1.6 -14.45 L1.6 -14.5 Q2.1 -15.4 3.3 -15.65 5.15 -16.0 6.1 -14.9 6.85 -14.1 6.85 -13.15 6.85 -12.25 6.05 -11.15 L5.7 -10.8 Q4.3 -11.0 3.1 -11.65 2.1 -12.25 1.25 -13.15 L1.2 -13.25 M3.6 -8.1 L3.85 -8.45 4.3 -8.55 4.85 -7.6 8.15 -3.2 8.35 -2.85 9.4 -1.7 9.75 -1.45 9.7 -1.45 8.7 -0.75 7.85 -1.45 Q6.45 -3.0 3.6 -8.1 M15.35 -5.95 L15.55 -6.6 Q15.8 -6.95 16.45 -7.1 L17.7 -7.35 18.65 -7.05 19.2 -6.6 19.7 -5.45 19.25 -4.0 18.9 -3.5 Q17.65 -3.85 16.65 -4.55 L16.55 -4.65 Q15.8 -5.25 15.35 -5.95 M-11.35 -6.15 Q-11.1 -6.55 -10.45 -6.95 L-9.4 -7.05 -9.3 -7.1 -8.45 -7.0 -7.8 -6.85 Q-6.95 -6.45 -6.95 -5.25 -6.95 -4.3 -7.35 -3.6 L-7.75 -3.2 Q-10.55 -3.7 -11.35 -6.15" fill="#f9f074" fill-rule="evenodd" stroke="none"/>
    <path d="M-0.15 -15.1 Q0.2 -14.25 1.2 -13.25 L1.15 -12.95 Q1.15 -11.9 1.6 -10.95 2.45 -9.6 4.1 -9.6 L5.1 -10.25 5.7 -10.8 6.75 -10.75 7.0 -10.75 7.0 -10.65 7.1 -10.6 6.85 -10.2 5.6 -9.0 7.5 -6.1 7.65 -6.0 7.7 -5.85 7.8 -5.8 10.45 -2.55 10.6 -2.6 13.35 -3.9 14.1 -4.3 14.05 -5.45 Q14.05 -6.55 14.8 -7.25 15.0 -6.55 15.35 -5.95 L15.3 -5.35 Q15.3 -4.7 15.6 -4.1 L15.65 -3.95 16.1 -3.3 Q16.6 -2.85 17.35 -2.85 L17.8 -2.9 Q18.4 -3.0 18.9 -3.5 L20.25 -3.3 20.05 -3.05 19.35 -2.3 Q18.55 -1.75 17.45 -1.75 L16.7 -1.8 13.1 4.0 Q12.75 4.2 12.65 4.8 L12.55 4.8 11.4 5.05 11.4 5.0 11.0 5.0 -4.1 5.35 -5.3 5.25 Q-5.7 4.95 -6.0 4.85 L-7.2 2.75 -9.2 -1.75 -9.55 -1.75 Q-11.35 -1.9 -12.1 -3.2 L-12.65 -4.4 -12.7 -4.95 -12.65 -5.55 -12.1 -6.95 -11.85 -7.35 -11.7 -7.55 -11.35 -6.15 -11.5 -6.0 -11.5 -5.95 -11.55 -5.9 -11.6 -5.65 -11.65 -5.65 -11.75 -4.75 -11.7 -4.5 -11.15 -3.65 -10.75 -3.3 -10.5 -3.15 -10.35 -3.1 -9.1 -2.8 -8.0 -3.05 -7.7 -3.05 -7.75 -3.2 -6.35 -3.1 -4.25 -3.5 -3.45 -3.1 -2.05 -2.65 -0.05 -5.7 0.0 -5.8 1.85 -8.5 1.95 -8.7 1.2 -9.25 0.05 -10.35 Q-0.65 -11.1 -0.65 -12.8 L-0.35 -14.3 -0.2 -15.1 -0.15 -15.1 M3.85 -8.45 L3.45 -8.45 3.4 -8.45 2.75 -7.55 2.4 -6.75 -0.8 -1.95 -1.05 -1.6 -1.05 -1.7 Q-1.25 -1.55 -1.3 -1.55 L-1.65 -1.55 -1.85 -1.5 -2.85 -1.65 -3.2 -1.75 -3.8 -1.8 -3.8 -1.9 -4.85 -2.2 -6.8 -3.0 -7.35 -2.4 -8.2 -1.9 -7.0 0.45 -6.8 0.95 -5.1 3.95 10.25 3.9 11.6 3.55 11.85 3.55 13.45 1.05 13.75 0.45 15.45 -2.35 15.4 -2.45 15.3 -2.55 14.75 -3.1 13.35 -2.5 10.35 -1.0 10.35 -0.95 10.3 -0.85 10.3 -1.0 10.25 -1.15 9.75 -1.45 9.4 -1.7 8.35 -2.85 8.15 -3.2 4.85 -7.6 4.3 -8.55 3.85 -8.45 M17.05 10.95 L17.0 11.05 16.65 11.8 15.75 12.9 Q15.05 13.45 14.1 13.45 L12.05 13.05 Q10.95 12.75 10.5 12.5 L10.55 12.45 10.5 12.45 9.6 12.25 Q7.9 12.25 6.7 13.45 L5.95 14.2 5.2 14.8 5.05 14.7 Q4.8 14.55 4.7 13.55 L4.6 12.35 Q4.6 11.05 4.75 10.2 5.1 9.95 5.55 9.9 L5.5 10.0 Q5.15 10.8 5.15 11.95 L5.15 12.35 5.2 13.0 5.45 13.65 Q5.65 13.0 6.35 12.4 L7.05 11.95 Q8.0 11.4 9.25 11.4 L10.1 11.5 Q10.85 11.6 11.6 12.0 12.7 12.55 14.35 12.55 15.2 12.25 15.85 11.3 L17.05 10.95 M-10.25 4.5 L-9.95 5.8 -9.7 6.55 -9.9 7.15 -9.9 7.5 Q-9.8 8.95 -9.1 10.5 L-8.8 11.15 Q-8.15 12.25 -7.25 12.55 -5.6 12.55 -4.5 12.0 -3.75 11.6 -3.0 11.5 L-2.15 11.4 Q-0.9 11.4 0.05 11.95 L0.75 12.4 1.65 13.65 1.95 12.85 1.95 12.65 2.4 13.55 2.4 13.8 2.05 14.7 1.9 14.8 1.15 14.2 0.7 13.75 0.4 13.45 Q-0.8 12.25 -2.5 12.25 L-3.4 12.45 -3.45 12.45 -3.4 12.5 -4.95 13.05 -7.0 13.45 Q-9.0 13.45 -10.0 10.8 -10.6 9.1 -10.6 7.5 L-10.45 5.15 -10.45 4.9 -10.25 4.5" fill="#f97b00" fill-rule="evenodd" stroke="none"/>
    <path d="M1.2 -13.25 L1.25 -13.15 Q2.1 -12.25 3.1 -11.65 4.3 -11.0 5.7 -10.8 L5.1 -10.25 4.1 -9.6 Q2.45 -9.6 1.6 -10.95 1.15 -11.9 1.15 -12.95 L1.2 -13.25 M3.45 -8.45 L3.6 -8.1 Q1.85 -5.35 0.9 -3.0 L0.85 -2.95 Q0.4 -2.2 -0.8 -1.95 L2.4 -6.75 2.75 -7.55 3.4 -8.45 3.45 -8.45 M15.35 -5.95 Q15.8 -5.25 16.55 -4.65 L16.65 -4.55 Q17.65 -3.85 18.9 -3.5 18.4 -3.0 17.8 -2.9 L17.35 -2.85 Q16.6 -2.85 16.1 -3.3 L15.65 -3.95 15.6 -4.1 Q15.3 -4.7 15.3 -5.35 L15.35 -5.95 M15.3 -2.55 L15.4 -2.45 15.45 -2.35 13.75 0.45 13.45 1.05 11.85 3.55 11.6 3.55 10.25 3.9 -5.1 3.95 -6.8 0.95 -7.0 0.45 -8.2 -1.9 -7.35 -2.4 -4.3 2.7 10.95 2.7 15.3 -2.55 M5.55 9.9 Q6.35 8.05 8.75 8.05 9.8 8.05 10.45 8.5 11.1 9.0 12.8 9.0 L14.2 8.8 15.55 7.9 16.7 6.55 Q17.05 6.55 17.0 7.15 L17.0 7.5 Q16.9 8.95 16.2 10.5 L15.9 11.15 14.65 11.15 12.4 10.7 11.7 10.25 Q10.45 9.3 9.0 9.3 L7.05 9.55 5.5 10.0 5.55 9.9 M-9.55 6.6 L-8.45 7.9 -7.1 8.8 -5.7 9.0 -3.35 8.5 Q-2.7 8.05 -1.65 8.05 0.85 8.05 1.6 10.0 1.95 10.8 1.95 11.95 L1.95 12.35 1.95 12.65 1.95 12.85 1.7 12.5 1.6 12.3 Q0.15 10.15 -2.15 10.15 L-4.6 10.4 -4.8 10.4 Q-7.2 10.35 -8.4 8.95 L-9.25 7.45 -9.55 6.6 M-8.0 -3.05 L-9.1 -2.8 -10.35 -3.1 -10.5 -3.15 -10.75 -3.3 -11.15 -3.65 -11.7 -4.5 -11.75 -4.75 -11.65 -5.65 -11.6 -5.65 -11.55 -5.9 -11.5 -5.95 -11.5 -6.0 -11.35 -6.15 Q-10.55 -3.7 -7.75 -3.2 L-8.0 -3.05 -8.35 -3.1 -8.45 -3.05 -8.0 -3.05" fill="#f9cb09" fill-rule="evenodd" stroke="none"/>
    <path d="M0.4 -15.75 L-0.15 -15.1 -0.2 -15.1 -0.35 -14.3 -0.65 -12.8 Q-0.65 -11.1 0.05 -10.35 L1.2 -9.25 1.95 -8.7 1.85 -8.5 Q1.0 -8.7 0.1 -9.35 -1.4 -10.45 -1.4 -12.05 -1.4 -13.75 -0.65 -14.8 L0.4 -15.75 M13.35 -3.9 Q13.2 -4.3 13.2 -4.7 13.2 -5.45 13.65 -6.15 14.1 -6.9 14.85 -7.3 L14.8 -7.25 Q14.05 -6.55 14.05 -5.45 L14.1 -4.3 13.35 -3.9 M11.0 5.0 L10.8 5.05 8.6 5.35 1.7 5.8 -2.6 5.7 -5.4 5.55 Q-6.35 5.5 -7.05 4.4 L-8.3 1.85 -9.3 -0.4 -9.5 -0.9 -9.8 -1.15 -10.8 -1.45 -12.45 -2.75 Q-12.9 -3.35 -12.9 -4.65 L-12.65 -6.15 Q-12.4 -7.1 -11.85 -7.35 L-12.1 -6.95 -12.65 -5.55 -12.7 -4.95 -12.65 -4.4 -12.1 -3.2 Q-11.35 -1.9 -9.55 -1.75 L-9.2 -1.75 -7.2 2.75 -6.0 4.85 Q-5.7 4.95 -5.3 5.25 L-4.1 5.35 11.0 5.0 M15.75 12.9 L14.95 13.5 13.15 13.85 11.05 13.55 9.5 13.2 Q8.2 13.2 6.4 14.45 L4.9 15.65 Q4.5 15.65 4.2 14.15 L3.95 11.95 Q3.95 10.1 4.7 8.75 5.5 7.35 6.75 6.95 L5.85 7.6 Q5.1 8.3 5.05 8.9 L4.75 10.2 Q4.6 11.05 4.6 12.35 L4.7 13.55 Q4.8 14.55 5.05 14.7 L5.2 14.8 5.95 14.2 6.7 13.45 Q7.9 12.25 9.6 12.25 L10.5 12.45 10.55 12.45 10.5 12.5 Q10.95 12.75 12.05 13.05 L14.1 13.45 Q15.05 13.45 15.75 12.9 M0.7 13.75 L0.35 13.5 Q-0.55 12.95 -1.85 12.95 L-4.25 13.4 -6.8 13.85 -8.5 13.65 Q-9.25 13.4 -9.7 12.4 -10.95 9.75 -10.95 7.95 L-10.65 6.0 -10.45 5.15 -10.6 7.5 Q-10.6 9.1 -10.0 10.8 -9.0 13.45 -7.0 13.45 L-4.95 13.05 -3.4 12.5 -3.45 12.45 -3.4 12.45 -2.5 12.25 Q-0.8 12.25 0.4 13.45 L0.7 13.75" fill="#bb7100" fill-opacity="0.21960784" fill-rule="evenodd" stroke="none"/>
    <path d="M3.6 -8.1 L3.45 -8.45 3.85 -8.45 3.6 -8.1 Q6.45 -3.0 7.85 -1.45 L8.7 -0.75 9.7 -1.45 9.75 -1.45 10.25 -1.15 10.3 -1.0 10.3 -0.85 10.35 -0.95 10.35 -1.0 13.35 -2.5 14.75 -3.1 15.3 -2.55 10.95 2.7 -4.3 2.7 -7.35 -2.4 -6.8 -3.0 -4.85 -2.2 -3.8 -1.9 -3.8 -1.8 -3.2 -1.75 -2.85 -1.65 -1.85 -1.5 -1.65 -1.55 -1.3 -1.55 Q-1.25 -1.55 -1.05 -1.7 L-1.05 -1.6 -0.8 -1.95 Q0.4 -2.2 0.85 -2.95 L0.9 -3.0 Q1.85 -5.35 3.6 -8.1" fill="#f9de0b" fill-rule="evenodd" stroke="none"/>
    <path d="M15.9 11.15 L15.85 11.3 Q15.2 12.25 14.35 12.55 12.7 12.55 11.6 12.0 10.85 11.6 10.1 11.5 L9.25 11.4 Q8.0 11.4 7.05 11.95 L6.35 12.4 Q5.65 13.0 5.45 13.65 L5.2 13.0 5.15 12.35 5.15 11.95 Q5.15 10.8 5.5 10.0 L7.05 9.55 9.0 9.3 Q10.45 9.3 11.7 10.25 L12.4 10.7 14.65 11.15 15.9 11.15 M-9.7 6.55 L-9.6 6.55 -9.55 6.6 -9.25 7.45 -8.4 8.95 Q-7.2 10.35 -4.8 10.4 L-4.6 10.4 -2.15 10.15 Q0.15 10.15 1.6 12.3 L1.7 12.5 1.95 12.85 1.65 13.65 0.75 12.4 0.05 11.95 Q-0.9 11.4 -2.15 11.4 L-3.0 11.5 Q-3.75 11.6 -4.5 12.0 -5.6 12.55 -7.25 12.55 -8.15 12.25 -8.8 11.15 L-9.1 10.5 Q-9.8 8.95 -9.9 7.5 L-9.9 7.15 -9.7 6.55 M-8.0 -3.05 L-8.45 -3.05 -8.35 -3.1 -8.0 -3.05" fill="#f9a802" fill-rule="evenodd" stroke="none"/>
    <path d="M-8.0 -3.05 L-7.75 -3.2 -7.7 -3.05 -8.0 -3.05" fill="#ffbf00" fill-rule="evenodd" stroke="none"/>
  </g>
</svg>
