<?xml version="1.0" encoding="UTF-8" standalone="no"?>
<svg xmlns:ffdec="https://www.free-decompiler.com/flash" xmlns:xlink="http://www.w3.org/1999/xlink" ffdec:objectType="shape" height="72.0px" width="74.65px" xmlns="http://www.w3.org/2000/svg">
  <g transform="matrix(1.0, 0.0, 0.0, 1.0, 36.85, 36.25)">
    <path d="M-27.85 35.3 L-27.95 35.25 -27.9 35.25 -27.85 35.3 M-35.25 30.3 L-35.3 30.25 -35.3 30.2 -35.25 30.25 -35.25 30.3 M-35.75 28.85 L-35.75 28.8 -35.7 28.5 -36.25 28.3 -36.6 27.95 -36.75 0.6 -36.85 -27.5 -36.5 -28.55 -36.25 -28.8 -36.25 -28.55 -36.15 -28.2 -35.75 -27.85 -34.8 -27.45 -33.6 -27.1 -33.45 -27.1 -32.9 -27.0 -32.9 -0.95 -32.9 25.9 -32.95 25.9 -33.0 25.95 -33.0 26.0 -33.1 26.05 -33.2 26.05 -33.25 26.1 -33.3 26.2 -33.35 26.3 -33.45 26.4 -33.85 26.75 -34.2 27.15 -34.25 27.25 -34.25 27.35 -34.35 27.4 -34.35 27.45 -34.45 27.5 -34.6 27.65 -35.25 28.2 -35.75 28.85 M-28.4 34.55 L-28.35 34.6 -28.45 34.55 -28.4 34.55" fill="#dead81" fill-rule="evenodd" stroke="none"/>
    <path d="M-28.9 -35.55 L-28.75 -35.4 -28.7 -35.2 -28.6 -35.0 -28.45 -34.85 -28.45 -34.65 -28.45 -34.45 -28.45 -34.25 -28.4 -34.1 -28.3 -33.9 -28.2 -33.7 -28.2 -33.5 -28.15 -33.35 -28.0 -33.15 -27.95 -32.95 -27.95 -32.75 -27.95 -32.6 -27.95 -32.4 -28.0 -32.2 -28.0 -32.05 -28.0 -32.0 -27.95 -31.85 -28.0 -31.65 -28.1 -31.55 -28.25 -31.45 -28.45 -31.45 -29.8 -30.0 -31.15 -28.7 -31.35 -28.5 -31.45 -28.3 -31.5 -28.15 Q-31.85 -27.7 -32.3 -27.4 L-32.9 -27.0 -33.45 -27.1 -33.6 -27.1 -34.8 -27.45 -35.75 -27.85 -36.15 -28.2 -36.25 -28.55 -36.25 -28.8 -36.25 -28.95 -36.25 -29.3 -36.25 -29.65 -36.0 -30.0 -35.65 -30.4 -34.95 -31.1 -34.8 -31.45 -34.7 -31.8 -34.0 -32.55 -32.9 -33.6 -32.55 -34.0 -32.4 -34.3 -32.3 -34.7 -31.9 -35.05 -31.1 -35.4 -30.7 -35.6 -30.25 -35.75 -29.75 -35.7 -29.5 -35.65 -29.5 -35.7 -29.45 -35.75 -29.25 -35.75 -29.15 -35.75 -28.95 -35.6 -28.9 -35.55 M-26.7 35.45 L-26.8 35.6 -27.0 35.75 -27.35 35.6 -27.5 35.45 -27.55 35.3 -27.85 35.3 -27.9 35.25 -27.95 35.25 -28.0 35.35 -28.1 35.4 -28.3 35.35 -28.4 35.25 -28.75 35.05 -28.8 35.0 -28.85 34.95 -29.1 34.9 -29.2 34.8 -29.3 34.7 -29.45 34.6 -29.7 34.55 -29.85 34.55 -31.9 32.8 -34.1 31.2 -34.5 31.0 -34.7 30.75 -34.7 30.7 -34.95 30.65 -35.1 30.55 -35.15 30.45 -35.25 30.35 -35.25 30.3 -35.25 30.25 -35.3 30.2 -35.35 30.2 -35.35 30.15 -35.4 30.15 -35.6 30.05 -35.7 29.95 -35.75 29.85 -35.75 29.75 -35.75 29.7 -35.8 29.6 -35.9 29.45 -35.9 29.4 -35.85 29.3 -35.75 29.2 -35.75 29.1 -35.75 29.0 -35.75 28.95 -35.75 28.85 -35.25 28.2 -34.6 27.65 -34.45 27.5 -34.35 27.45 -34.35 27.4 -34.25 27.35 -34.25 27.25 -34.2 27.15 -33.85 26.75 -33.45 26.4 -33.35 26.3 -33.3 26.2 -33.25 26.1 -33.2 26.05 -33.1 26.05 -33.0 26.0 -33.0 25.95 -32.95 25.9 -32.9 25.9 -32.85 25.9 -32.85 25.85 -32.75 25.85 -32.55 25.9 -32.4 26.0 -32.25 26.0 -32.15 26.1 -32.0 26.1 -31.85 26.2 -31.75 26.25 -31.55 26.3 -31.45 26.4 -31.35 26.5 -31.15 26.55 -30.95 26.65 -30.85 26.75 -30.85 26.85 -30.85 26.9 -29.7 27.85 -28.1 29.1 -27.9 29.2 -27.5 29.55 -27.1 29.9 -26.65 30.3 -26.45 30.4 -26.35 30.5 -26.35 30.6 -26.2 30.65 -26.1 30.75 -26.0 30.85 -25.95 30.95 -25.9 31.0 -25.85 31.1 -25.75 31.2 -25.75 31.3 -25.8 31.4 -25.85 31.5 -25.85 31.6 -25.85 31.7 -25.85 31.75 -25.9 31.85 -25.85 31.9 -25.85 32.05 -25.85 32.35 -25.85 32.45 -25.9 32.5 -25.95 32.6 -25.95 32.7 -25.95 32.8 -25.95 32.9 -25.95 33.0 -26.0 33.1 -26.0 33.15 -26.1 33.25 -26.1 33.35 -26.1 33.45 -26.1 33.55 -26.15 33.65 -26.2 33.85 -26.2 33.95 -26.25 34.0 -26.3 34.1 -26.35 34.2 -26.35 34.3 -26.35 34.4 -26.35 34.5 -26.4 34.6 -26.4 34.7 -26.45 34.75 -26.45 34.85 -26.45 34.95 -26.45 35.05 -26.6 35.25 -26.7 35.35 -26.7 35.45 M-28.4 34.55 L-28.45 34.55 -28.35 34.6 -28.4 34.55" fill="#d29359" fill-rule="evenodd" stroke="none"/>
    <path d="M29.15 31.9 L29.3 31.9 29.85 32.15 30.2 32.5 30.5 32.9 30.5 33.0 30.8 33.1 31.15 33.45 31.45 33.85 31.4 34.2 31.3 34.5 31.05 34.9 30.7 35.3 30.5 35.5 29.75 35.6 21.05 35.6 -0.55 35.75 -1.9 35.75 -1.95 35.75 -25.9 35.75 -26.65 35.5 -26.7 35.45 -26.7 35.35 -26.6 35.25 -26.45 35.05 -26.45 34.95 -26.45 34.85 -26.45 34.75 -26.4 34.7 -26.4 34.6 -26.35 34.5 -26.35 34.4 -26.35 34.3 -26.35 34.2 -26.3 34.1 -26.25 34.0 -26.2 33.95 -26.2 33.85 -26.15 33.65 -26.1 33.55 -26.1 33.45 -26.1 33.35 -26.1 33.25 -26.0 33.15 -26.0 33.1 -25.95 33.0 -25.95 32.9 -25.95 32.8 -25.95 32.7 -25.95 32.6 -25.9 32.5 -25.85 32.45 -25.85 32.35 -25.85 32.05 -25.85 31.9 -16.15 31.9 -13.45 31.9 29.15 31.9" fill="#b77131" fill-rule="evenodd" stroke="none"/>
    <path d="M31.0 -36.15 L30.8 -36.05 31.0 -36.05 31.35 -36.0 31.5 -35.8 31.55 -35.65 31.5 -35.45 31.3 -35.05 31.05 -34.5 31.0 -34.35 30.8 -34.15 30.75 -33.95 30.55 -33.55 30.3 -33.0 30.25 -32.85 30.05 -32.65 30.0 -32.5 29.85 -32.25 29.55 -31.9 29.35 -31.8 29.25 -31.75 28.9 -31.9 28.9 -32.05 28.9 -32.1 -25.9 -31.9 -26.15 -31.7 -26.4 -31.6 -26.9 -31.45 -27.6 -31.7 -28.0 -32.05 -28.0 -32.2 -27.95 -32.4 -27.95 -32.6 -27.95 -32.75 -27.95 -32.95 -28.0 -33.15 -28.15 -33.35 -28.2 -33.5 -28.2 -33.7 -28.3 -33.9 -28.4 -34.1 -28.45 -34.25 -28.45 -34.45 -28.45 -34.65 -28.45 -34.85 -28.6 -35.0 -28.7 -35.2 -28.75 -35.4 -28.9 -35.55 -28.25 -36.1 -27.85 -36.25 12.95 -36.25 20.15 -36.25 30.7 -36.25 31.0 -36.15" fill="#653e1b" fill-rule="evenodd" stroke="none"/>
    <path d="M29.35 -31.8 L29.55 -31.9 29.85 -32.25 30.0 -32.5 30.05 -32.65 30.25 -32.85 30.3 -33.0 30.55 -33.55 30.75 -33.95 30.8 -34.15 31.0 -34.35 31.05 -34.5 31.3 -35.05 31.5 -35.45 31.55 -35.65 31.5 -35.8 31.35 -36.0 31.0 -36.05 30.8 -36.05 31.0 -36.15 31.15 -36.2 31.2 -36.25 31.8 -36.0 32.65 -35.3 33.55 -34.2 33.95 -33.5 35.05 -32.4 36.45 -30.95 37.05 -30.25 37.15 -30.0 37.05 -30.0 37.0 -29.95 36.95 -29.85 36.75 -29.45 36.7 -29.25 36.7 -29.1 36.7 -28.65 35.15 -28.05 35.05 -28.1 35.0 -28.05 34.3 -27.85 34.0 -27.45 33.85 -27.35 33.75 -27.2 33.35 -27.35 31.9 -28.8 30.1 -30.6 29.75 -30.95 29.5 -31.35 29.4 -31.7 29.35 -31.8" fill="#4b2f14" fill-rule="evenodd" stroke="none"/>
    <path d="M33.75 -27.2 L33.85 -27.35 34.0 -27.45 34.3 -27.85 35.0 -28.05 35.05 -28.1 35.15 -28.05 36.7 -28.65 36.7 -29.1 36.7 -29.25 36.75 -29.45 36.95 -29.85 37.0 -29.95 37.05 -30.0 37.15 -30.0 37.25 -30.0 37.35 -30.0 37.55 -29.85 37.55 -28.9 37.55 -27.95 37.6 -27.75 37.7 -27.6 37.7 -27.35 37.75 -27.2 37.8 -26.85 37.8 -26.65 37.75 -26.45 37.7 -26.35 37.7 -1.35 37.7 25.7 37.7 27.1 37.4 27.45 37.3 27.6 37.4 27.7 37.7 28.1 Q37.5 29.25 36.6 30.15 L33.45 33.45 32.9 34.1 32.65 34.2 32.15 34.3 31.7 34.25 31.4 34.2 31.45 33.85 31.15 33.45 30.8 33.1 30.5 33.0 30.5 32.9 30.2 32.5 29.85 32.15 29.3 31.9 29.15 31.9 29.4 31.35 29.75 30.95 30.1 30.6 30.35 30.2 30.5 29.85 31.15 29.15 31.45 28.8 31.8 28.4 32.15 28.1 32.35 27.7 32.4 27.35 32.75 27.0 33.1 26.8 33.15 26.8 33.15 26.75 33.65 26.4 33.85 26.3 33.85 24.5 33.85 23.4 33.9 23.15 33.8 1.3 33.85 -25.7 33.85 -26.9 33.65 -26.95 33.7 -27.1 33.75 -27.2" fill="#3e2611" fill-rule="evenodd" stroke="none"/>
  </g>
</svg>
