<?xml version="1.0" encoding="UTF-8" standalone="no"?>
<svg xmlns:ffdec="https://www.free-decompiler.com/flash" xmlns:xlink="http://www.w3.org/1999/xlink" ffdec:objectType="shape" height="307.25px" width="156.55px" xmlns="http://www.w3.org/2000/svg">
  <g transform="matrix(1.0, 0.0, 0.0, 1.0, -105.75, -206.8)">
    <path d="M160.5 392.4 Q162.55 390.65 164.6 391.5 L165.0 393.7 Q165.0 395.3 162.4 397.9 175.6 403.85 175.0 407.5 174.35 409.4 172.4 409.4 166.6 409.4 165.6 406.35 165.3 405.4 165.5 404.2 L165.8 403.1 Q165.8 402.8 131.85 376.7 158.6 394.05 160.5 392.4 M215.05 217.0 Q215.9 222.1 216.0 227.6 216.0 229.6 214.4 238.5 212.8 247.4 212.8 249.4 212.8 251.55 216.5 257.2 220.2 262.85 220.2 266.0 220.2 267.85 215.6 293.1 218.4 297.3 218.4 299.2 218.4 301.55 213.7 306.15 L213.1 306.75 212.0 312.7 213.6 317.2 Q211.4 323.05 209.6 327.1 L207.65 339.8 209.25 344.8 Q211.25 351.9 212.4 359.4 212.4 363.25 211.25 364.85 209.5 367.2 204.25 367.95 L204.15 368.9 205.8 372.4 203.65 375.05 Q203.2 381.85 203.2 387.2 L203.1 389.6 204.6 393.8 Q204.6 395.1 203.9 396.9 205.8 393.75 207.9 392.9 208.3 393.25 208.75 393.4 L209.0 394.9 Q209.0 396.65 208.1 399.15 214.0 392.4 224.7 384.3 218.2 392.4 218.7 394.5 218.7 395.3 210.9 405.6 L210.9 406.5 208.7 408.5 205.95 412.05 Q208.8 414.2 208.8 414.9 208.8 415.4 206.65 418.45 204.5 421.55 204.5 425.1 204.5 426.4 202.4 427.65 200.35 428.8 198.4 428.8 197.6 428.8 196.85 427.8 L196.8 428.25 Q201.45 438.2 189.3 442.5 190.5 443.05 190.5 445.3 190.5 445.6 187.6 447.4 184.6 449.25 183.4 449.6 L181.7 449.0 Q180.6 448.45 180.6 447.2 180.6 446.0 184.4 444.05 L185.15 443.7 Q166.85 448.15 158.0 446.05 L148.5 448.3 172.75 437.9 172.8 436.7 170.4 436.15 163.1 439.5 161.7 438.5 163.0 435.35 Q165.0 431.35 169.1 429.25 L125.95 423.9 Q84.45 418.85 128.25 421.45 143.2 420.7 123.2 411.35 162.05 419.7 166.0 419.5 L144.0 410.7 194.05 423.3 Q192.85 416.1 191.7 413.45 190.2 409.95 190.2 408.6 190.2 407.1 193.1 404.45 L195.05 402.75 194.2 399.2 Q191.7 398.85 188.7 395.4 185.8 392.05 185.8 390.5 185.8 388.45 187.95 388.1 L191.1 388.1 191.7 388.15 Q189.6 378.1 189.6 374.6 L190.95 363.85 190.2 363.05 Q182.6 354.55 182.6 348.0 182.6 343.35 189.3 337.0 192.25 334.2 194.8 332.65 L195.1 330.4 Q193.9 328.35 192.9 325.6 190.2 318.25 190.2 312.6 190.2 304.95 198.5 303.8 197.25 301.85 196.15 299.5 193.0 292.7 193.0 288.6 193.0 283.95 198.8 280.55 L205.45 276.25 Q203.9 271.1 200.7 264.25 194.4 250.7 194.4 248.6 194.4 247.75 196.25 246.35 198.75 244.35 203.0 243.6 203.0 233.4 203.7 224.45 205.0 206.8 209.6 206.8 213.35 206.8 215.05 217.0 M207.0 284.75 L206.8 285.0 207.0 285.1 207.0 284.8 207.0 284.75 M237.7 383.05 Q235.35 383.25 229.05 387.8 234.4 380.95 238.9 378.15 244.25 374.7 254.3 372.8 L255.7 372.4 251.1 375.05 Q252.25 374.45 253.2 375.25 254.15 376.05 241.7 382.1 241.25 382.1 240.65 382.5 L237.7 383.05 M235.0 395.0 Q234.6 394.8 234.6 392.8 234.6 391.95 235.95 390.75 237.4 389.4 238.9 389.4 240.25 389.4 240.45 389.95 L240.5 392.0 Q240.5 393.35 239.55 394.5 238.6 395.6 237.8 395.6 L235.0 395.0 M244.4 418.45 Q244.7 418.75 244.7 420.0 244.7 422.0 244.1 421.6 L242.9 422.6 241.0 422.6 Q240.6 423.2 240.6 421.2 240.6 420.8 241.4 419.65 242.4 418.2 243.5 417.9 L244.4 418.45 M249.6 435.7 L246.4 436.5 Q244.15 435.7 243.4 435.05 L243.0 434.5 Q244.4 433.8 247.7 433.8 L248.55 433.9 Q249.25 432.2 251.2 432.2 252.95 432.2 255.65 433.7 258.35 435.2 258.7 435.2 259.4 435.2 260.2 435.55 261.6 436.1 262.1 437.5 L262.3 438.2 Q260.8 439.2 257.9 439.2 252.15 437.2 249.6 435.1 L249.6 435.7 M259.2 448.75 L258.1 449.0 Q255.6 449.0 255.1 446.3 255.35 444.8 256.9 445.0 258.5 446.35 259.1 448.1 L259.2 448.75 M239.4 404.25 L224.25 419.6 215.05 426.95 214.0 422.6 Q214.95 420.25 216.45 418.45 L217.2 417.7 Q222.15 413.75 239.4 404.25 M209.8 411.6 L211.3 412.9 210.5 413.9 Q209.45 413.75 208.8 412.3 L209.0 411.7 209.8 411.6 M216.6 429.4 L216.6 430.0 Q216.4 430.25 216.35 430.65 L215.7 430.9 218.0 434.0 Q218.0 435.55 217.2 437.0 216.3 438.6 215.1 438.6 212.6 438.6 210.5 436.65 208.8 435.05 208.8 434.3 208.8 433.3 209.65 433.65 210.5 434.0 210.5 433.0 210.5 432.0 209.65 430.5 208.8 429.0 208.8 428.0 L209.2 426.3 211.8 426.0 213.3 427.85 214.7 427.6 Q215.95 427.6 216.3 428.2 L216.6 429.4 M216.75 445.2 L215.4 441.65 Q214.8 440.35 229.35 453.2 L235.9 454.7 Q237.45 454.95 254.95 472.3 247.05 469.5 242.55 465.6 238.05 461.7 234.95 461.25 236.0 462.95 236.0 464.6 L235.85 465.8 238.65 467.05 Q245.2 469.9 251.1 474.1 246.0 473.1 241.4 471.25 247.25 476.85 249.4 480.3 246.15 479.15 236.6 471.55 L230.25 466.3 Q228.75 465.35 227.2 463.7 L226.15 465.75 226.65 467.7 Q228.1 473.5 229.2 479.5 229.2 480.2 232.1 488.7 L232.05 488.95 Q226.4 480.65 224.2 476.35 222.4 472.85 221.25 470.0 220.45 470.4 220.9 475.8 217.85 470.8 215.8 464.45 214.0 459.1 214.0 457.9 L214.05 457.6 Q212.05 456.85 210.65 451.0 L205.45 440.65 Q209.5 442.1 213.1 442.1 215.55 442.1 216.75 445.2 M202.1 400.3 L200.55 402.65 200.35 403.55 200.8 403.75 201.65 401.45 202.25 400.1 202.1 400.3 M186.8 400.2 Q186.8 401.2 185.85 402.2 184.85 403.2 183.8 403.2 178.75 403.2 177.2 397.5 178.65 396.2 179.6 396.05 L182.4 396.1 Q187.2 396.1 186.8 400.2 M194.0 452.8 Q194.0 453.65 191.7 455.5 L189.3 453.5 189.0 454.0 Q187.35 456.8 185.2 457.0 L183.85 456.8 Q183.5 456.55 183.5 455.2 183.5 454.35 185.3 451.6 187.55 448.1 190.0 447.8 L190.25 447.8 190.5 449.3 190.3 450.95 193.3 450.2 193.65 451.05 Q194.0 451.65 194.0 452.8 M200.75 468.15 Q201.05 468.5 201.55 470.95 L202.0 474.3 200.95 476.25 200.65 476.2 Q199.65 471.7 199.65 470.2 199.65 469.05 200.75 468.15 M170.5 461.4 Q170.5 466.7 164.3 466.7 162.1 469.4 159.6 469.4 L158.35 468.65 Q158.0 468.35 158.0 467.1 158.0 464.55 161.1 460.65 164.45 456.4 167.5 456.4 168.9 456.4 170.5 461.4 M175.5 474.2 Q167.5 491.5 167.2 491.5 L165.6 491.2 Q164.6 491.7 164.6 489.7 164.6 488.7 165.3 486.75 166.0 484.8 166.0 483.8 L169.45 479.3 Q172.65 474.7 171.8 471.5 L171.95 470.9 173.3 470.7 Q174.7 470.7 175.5 474.2 M184.4 490.75 L183.8 497.35 Q183.2 504.0 183.2 510.75 183.2 511.45 180.6 514.05 179.3 512.75 178.45 508.55 177.9 505.65 177.9 504.35 L179.35 496.95 Q180.8 490.1 180.8 483.05 180.8 481.35 182.8 481.35 184.4 487.75 184.4 490.75 M204.6 479.1 L202.8 479.2 202.1 463.5 203.6 463.4 Q207.4 472.75 209.9 482.55 L210.15 484.05 209.1 484.2 205.4 476.75 204.6 479.1 M144.6 429.9 Q139.6 431.5 125.4 436.75 122.35 438.8 108.15 440.85 133.55 430.1 143.5 429.05 L143.9 429.65 Q143.95 429.4 144.5 429.4 L144.6 429.9 M145.6 428.95 Q148.35 428.95 149.3 430.1 L145.6 428.95 M149.6 454.3 Q150.2 454.75 150.7 456.3 L149.6 457.6 Q150.8 457.7 148.8 457.7 147.55 457.7 147.35 457.2 L147.2 456.2 Q148.2 454.5 149.6 454.3 M133.1 454.5 Q133.1 450.6 137.2 450.6 138.6 450.6 138.85 451.15 L139.0 453.2 Q139.0 454.45 137.85 455.75 136.8 456.9 136.1 456.9 133.1 456.9 133.1 454.5 M138.2 462.0 Q138.75 462.0 140.3 464.4 140.1 464.65 140.15 465.3 140.0 465.8 138.8 465.8 136.3 465.8 135.5 464.2 136.5 462.75 137.4 462.25 L138.2 462.0 M135.1 480.45 Q131.5 484.15 129.65 485.25 127.65 485.0 127.65 483.35 127.65 482.4 131.35 478.35 135.45 473.85 140.05 470.95 144.6 468.0 145.15 467.25 145.7 466.5 141.75 475.0 137.75 483.5 152.4 473.2 148.15 480.5 141.15 488.5 L124.7 507.35 Q115.3 518.15 124.7 504.9 134.1 491.6 134.75 489.95 L135.6 488.05 132.25 491.25 130.65 490.85 Q132.95 485.15 135.9 481.25 L135.1 480.45 M136.35 471.25 L112.45 486.9 Q117.55 482.1 125.1 476.6 132.1 471.45 136.35 471.25" fill="#ffffff" fill-rule="evenodd" stroke="none"/>
  </g>
</svg>
