<?xml version="1.0" encoding="UTF-8" standalone="no"?>
<svg xmlns:ffdec="https://www.free-decompiler.com/flash" xmlns:xlink="http://www.w3.org/1999/xlink" ffdec:objectType="shape" height="719.85px" width="773.4px" xmlns="http://www.w3.org/2000/svg">
  <g transform="matrix(1.0, 0.0, 0.0, 1.0, 220.5, 1074.35)">
    <path d="M402.6 -398.6 Q395.55 -398.6 392.55 -391.85 390.95 -388.2 389.3 -377.0 387.8 -366.5 385.35 -362.2 381.55 -355.45 373.15 -355.45 359.35 -355.45 351.5 -367.15 L345.75 -377.1 Q342.4 -382.95 339.35 -385.65 L333.5 -385.65 Q332.75 -384.7 331.55 -380.15 330.05 -374.25 329.05 -371.5 324.75 -360.1 315.8 -360.1 307.95 -360.1 303.35 -366.4 300.1 -370.9 297.65 -380.3 294.45 -392.85 293.9 -394.2 291.5 -400.5 287.25 -400.5 283.55 -400.5 282.25 -396.5 L280.85 -387.7 Q280.0 -381.8 277.7 -378.95 274.5 -374.95 267.5 -374.95 257.5 -374.95 253.85 -384.6 251.4 -390.8 250.85 -405.75 250.25 -421.8 248.75 -426.95 246.05 -436.6 237.8 -436.6 232.75 -436.6 229.8 -433.65 228.1 -431.95 225.7 -427.1 223.3 -422.45 221.25 -420.55 217.9 -417.6 212.25 -417.6 205.85 -417.6 203.15 -420.85 201.45 -422.95 200.65 -428.05 199.75 -433.45 198.55 -435.25 196.45 -438.5 190.9 -438.5 186.25 -438.5 183.6 -435.55 182.0 -433.85 180.0 -429.0 177.95 -424.3 176.15 -422.45 173.2 -419.5 168.1 -419.5 163.1 -419.5 157.4 -424.65 L152.6 -429.95 149.9 -435.2 Q148.15 -438.45 143.2 -440.4 L136.45 -440.4 Q133.55 -438.35 131.25 -433.0 129.25 -428.2 125.9 -426.85 L116.55 -426.85 Q114.6 -427.8 112.95 -430.2 L110.2 -434.75 Q106.85 -440.4 102.2 -440.4 96.9 -440.4 93.85 -436.25 91.9 -433.6 89.9 -427.15 87.8 -420.3 86.4 -418.05 83.85 -413.9 79.4 -413.9 75.2 -413.9 71.15 -417.95 L67.05 -422.9 60.4 -422.7 Q52.05 -417.85 49.55 -410.95 48.0 -406.7 48.35 -398.5 48.7 -390.15 47.5 -386.65 45.4 -380.55 37.7 -376.85 L32.0 -376.85 Q26.75 -380.45 25.45 -385.85 24.65 -388.85 25.05 -395.75 25.35 -402.3 24.2 -405.6 22.5 -410.85 16.5 -414.35 L11.6 -414.35 Q6.5 -411.35 4.45 -406.6 3.15 -403.75 2.45 -397.8 1.75 -391.9 0.55 -389.25 -1.45 -384.9 -6.45 -382.45 L-13.05 -382.45 Q-18.05 -386.7 -20.05 -392.55 -21.35 -396.2 -22.05 -403.45 -22.75 -410.9 -23.85 -414.35 -25.8 -420.3 -30.5 -424.6 L-35.3 -424.6 Q-38.05 -422.75 -40.3 -419.1 -41.4 -417.3 -42.55 -416.0 -42.4 -413.9 -42.6 -411.65 -42.6 -402.75 -43.55 -399.05 -46.25 -388.85 -55.35 -388.85 -63.3 -388.85 -65.85 -393.4 -67.65 -396.5 -67.3 -403.45 -66.9 -411.55 -67.35 -413.5 -68.4 -418.05 -73.75 -418.05 -82.3 -418.05 -86.8 -408.1 -89.65 -401.8 -92.3 -386.25 -95.0 -369.95 -97.15 -364.45 -100.95 -354.5 -108.4 -354.5 -120.2 -354.5 -125.2 -362.0 -126.75 -364.4 -127.65 -367.65 L-128.55 -371.25 -132.25 -379.9 Q-134.8 -385.45 -137.45 -389.3 L-142.4 -389.3 -145.6 -385.3 Q-148.0 -382.1 -149.1 -381.5 L-153.8 -381.5 Q-160.25 -386.1 -160.25 -394.0 L-159.6 -400.9 Q-158.95 -405.45 -158.95 -407.7 -158.95 -411.2 -159.85 -414.6 -161.55 -420.9 -165.65 -420.9 -173.9 -420.9 -176.6 -415.55 -177.7 -413.35 -177.7 -409.4 L-176.8 -402.2 Q-175.9 -396.2 -175.9 -395.0 -175.9 -389.65 -177.9 -385.6 -180.95 -379.6 -187.7 -379.6 -195.55 -379.6 -198.15 -383.55 -199.9 -386.15 -200.2 -393.55 -200.55 -402.6 -201.75 -406.9 -204.1 -415.05 -210.85 -421.0 L-220.5 -421.0 -220.5 -1074.35 552.9 -1074.35 552.9 -417.65 Q547.9 -412.35 545.15 -406.2 543.95 -403.65 542.8 -402.9 541.25 -401.9 537.35 -401.9 522.45 -401.9 513.1 -414.9 510.5 -418.5 507.35 -424.75 504.6 -430.1 503.6 -431.1 L497.8 -431.1 Q484.95 -422.5 478.85 -411.0 476.6 -406.8 475.0 -405.6 472.5 -403.7 467.05 -403.7 456.4 -403.7 451.75 -410.15 450.7 -411.6 448.0 -416.6 445.65 -421.1 443.35 -423.85 436.75 -425.6 432.5 -421.0 429.55 -417.85 426.55 -409.7 422.9 -399.8 421.6 -397.45 418.3 -391.7 413.55 -391.7 407.9 -391.7 405.95 -395.15 L404.75 -397.5 Q404.0 -398.6 402.6 -398.6" fill="#221b2c" fill-rule="evenodd" stroke="none"/>
  </g>
</svg>
