<?xml version="1.0" encoding="UTF-8" standalone="no"?>
<svg xmlns:ffdec="https://www.free-decompiler.com/flash" xmlns:xlink="http://www.w3.org/1999/xlink" ffdec:objectType="shape" height="62.05px" width="85.9px" xmlns="http://www.w3.org/2000/svg">
  <g transform="matrix(1.0, 0.0, 0.0, 1.0, 42.95, 31.0)">
    <path d="M12.7 -13.3 Q9.6 -13.85 7.45 -9.5 7.95 -10.8 8.8 -11.9 L8.55 -11.8 7.95 -11.3 7.75 -11.3 6.9 -10.6 Q4.9 -8.85 3.9 -7.2 L3.3 -5.45 5.25 -4.1 Q8.2 -1.7 8.5 -0.05 L9.15 1.1 10.2 3.45 12.1 4.15 13.8 5.5 16.25 7.35 16.25 7.45 16.25 7.6 16.7 7.6 16.85 7.6 Q18.05 7.6 19.25 8.05 L20.95 8.4 Q21.6 8.4 21.9 7.8 L22.1 7.8 Q22.5 6.6 24.4 5.7 L26.05 5.1 27.0 5.1 31.4 4.45 Q34.6 4.45 36.05 5.5 L36.25 5.5 37.15 4.75 Q39.55 2.4 39.75 0.1 L39.0 -1.1 Q37.05 -3.7 32.95 -3.7 29.9 -3.7 28.15 -2.7 L27.85 -2.45 26.75 -1.3 26.55 -1.25 24.6 -0.3 24.75 -0.7 23.5 -0.45 23.7 -0.7 Q23.7 -1.4 24.45 -3.75 L24.6 -4.2 24.8 -4.25 Q25.3 -5.7 26.7 -7.05 26.45 -8.75 25.25 -10.35 23.25 -13.0 19.2 -13.55 L18.95 -13.55 18.65 -13.6 16.95 -13.7 12.7 -13.3 M14.7 -20.1 Q17.3 -21.15 20.45 -21.1 25.15 -21.05 28.2 -18.5 30.2 -16.75 31.1 -14.15 31.95 -12.95 31.95 -11.6 L31.7 -10.35 31.7 -9.85 31.75 -9.7 33.95 -9.65 34.55 -9.55 37.7 -9.0 37.95 -8.5 39.6 -7.45 Q41.85 -5.7 42.15 -3.2 42.95 -1.9 42.95 -0.95 42.95 2.25 40.1 5.1 37.2 7.95 37.2 8.7 37.2 9.35 37.85 10.9 L38.45 13.05 Q38.4 15.05 37.5 16.9 35.75 20.65 31.45 20.65 L27.25 20.9 25.75 20.05 24.5 21.65 23.8 22.0 23.1 22.9 22.8 23.25 22.8 23.35 22.6 23.5 Q20.4 25.8 18.2 25.8 L17.95 25.8 15.45 26.05 Q11.95 26.05 9.65 24.8 L8.15 26.3 Q3.35 30.75 -4.95 30.8 L-7.9 31.05 Q-13.0 31.05 -17.8 28.5 -20.9 26.8 -21.8 25.35 -24.65 26.55 -27.05 26.55 -32.2 26.55 -34.85 23.35 -36.15 21.8 -36.45 20.15 -36.45 16.85 -35.75 14.95 -39.55 13.85 -41.4 10.9 -42.95 8.5 -42.95 5.05 -42.95 -5.45 -33.25 -9.0 L-29.8 -9.85 Q-29.6 -17.0 -21.9 -17.1 L-19.95 -16.95 Q-19.15 -20.3 -16.65 -23.75 -11.55 -30.65 -2.3 -31.0 7.4 -30.0 12.0 -24.7 13.9 -22.5 14.7 -20.1 M4.3 -13.75 Q5.5 -15.5 7.4 -17.1 8.25 -17.85 9.05 -18.3 8.5 -21.0 5.9 -22.55 2.95 -24.3 -1.3 -23.8 -5.6 -23.3 -8.5 -20.75 -11.8 -17.9 -11.8 -13.6 L-11.65 -13.1 -11.55 -13.05 Q-7.55 -10.65 -7.55 -9.25 L-7.6 -8.3 -7.95 -8.1 -9.05 -7.95 Q-9.4 -7.95 -12.2 -9.8 L-14.6 -11.5 -16.3 -11.7 Q-20.6 -11.7 -23.0 -8.95 L-23.6 -7.85 -23.9 -6.2 Q-23.9 -5.25 -23.15 -4.15 L-20.8 -4.2 Q-18.2 -4.05 -16.2 -2.9 L-14.5 -1.85 -14.15 -1.6 Q-14.05 -2.75 -11.35 -4.2 L-9.3 -5.55 Q-6.3 -7.15 -3.6 -6.95 L-1.55 -7.05 Q0.1 -6.95 1.75 -6.2 1.8 -8.85 2.85 -11.2 L2.25 -10.8 3.05 -12.15 3.8 -13.35 4.3 -13.75 M7.7 -13.65 L7.25 -13.2 7.55 -13.3 7.7 -13.65 M7.7 -2.55 Q7.1 -3.45 6.9 -4.35 7.6 -2.9 8.25 -1.8 L7.7 -2.55 M31.7 4.35 L32.15 4.2 32.5 4.3 31.7 4.35 M35.35 2.55 L35.2 2.75 35.15 2.7 35.35 2.55 M33.75 7.9 Q32.5 7.35 30.85 7.55 30.2 7.15 28.65 7.9 L28.75 7.95 Q26.6 7.7 26.4 9.25 22.3 12.0 22.05 15.05 L21.75 15.05 Q21.45 15.05 21.5 15.35 21.5 15.6 21.2 15.6 20.45 15.6 20.3 14.45 L20.25 13.2 Q20.25 12.15 20.6 11.25 L18.35 10.85 18.05 10.9 16.55 10.85 15.15 10.95 13.9 10.9 13.8 11.1 Q13.4 10.95 12.65 11.35 L11.85 11.9 10.7 12.85 9.95 14.2 Q9.6 14.85 8.8 14.85 L8.25 14.8 8.05 14.65 8.0 14.2 Q8.0 12.85 9.4 11.15 10.15 10.25 11.05 9.6 8.15 7.65 6.95 7.65 -0.6 7.65 -4.8 13.0 -6.05 14.55 -6.95 16.4 L-8.25 17.0 -9.05 17.55 -9.15 17.2 -9.15 16.8 -9.4 17.55 -9.8 17.6 Q-10.15 17.3 -10.3 16.6 L-10.4 15.85 Q-10.4 11.4 -6.7 7.05 -2.1 1.55 5.25 2.75 L4.95 1.65 3.25 -0.35 Q1.0 -2.5 -3.55 -2.5 -8.45 -2.5 -10.25 -0.05 L-11.0 1.2 Q-10.15 2.35 -10.15 3.35 -10.15 3.8 -10.45 4.25 L-10.15 5.3 -10.25 6.0 -10.15 6.85 Q-10.15 8.45 -10.45 9.6 L-10.85 9.4 Q-11.0 7.95 -11.45 7.25 L-11.4 6.85 -11.45 6.2 -13.75 4.3 -16.3 3.0 Q-19.75 1.2 -21.9 0.4 -24.6 0.85 -26.5 2.75 -28.1 4.35 -28.65 6.15 L-28.5 7.05 -27.55 6.85 -27.1 7.0 -26.9 7.45 -27.0 7.75 -25.0 7.9 -23.9 8.1 -23.9 7.95 -22.65 8.4 Q-20.25 9.1 -18.4 10.55 L-17.4 11.45 -17.1 11.5 -16.75 12.05 -16.1 12.85 -16.3 12.85 -15.95 13.5 Q-12.55 18.15 -12.55 21.65 -12.55 23.05 -12.7 23.35 -13.05 24.3 -14.8 25.05 L-15.7 24.75 Q-16.05 24.45 -16.05 23.65 -16.05 23.05 -15.55 22.55 -15.05 22.05 -15.05 21.4 -15.05 20.35 -16.1 18.65 L-16.8 17.35 -17.7 16.45 -17.8 16.3 -20.4 12.65 -23.8 12.25 Q-27.05 12.3 -29.3 13.75 -31.8 15.35 -31.8 18.05 -32.05 19.65 -31.1 21.05 -29.15 23.8 -23.05 23.8 L-20.4 23.45 Q-20.05 24.45 -19.3 25.3 -16.2 28.8 -7.8 28.8 1.25 28.8 5.0 23.95 L5.85 22.7 6.45 22.8 Q7.45 22.8 8.75 21.7 10.5 23.3 13.7 23.3 18.15 23.3 20.75 20.4 22.15 18.9 22.55 17.55 L23.15 17.3 24.25 16.7 Q25.95 18.8 29.45 18.8 33.9 18.8 35.2 15.45 35.7 14.15 35.7 11.3 35.7 8.8 33.75 7.9 M32.0 13.65 L32.45 12.85 31.95 13.85 31.6 14.2 32.0 13.65 M-27.15 -3.7 L-30.55 -3.25 Q-35.1 -2.95 -37.2 0.6 -38.65 3.05 -38.65 6.1 -38.65 7.55 -37.9 9.75 -36.8 13.1 -34.8 13.1 L-34.3 13.0 -34.2 12.8 -34.15 12.35 -34.3 12.05 Q-33.65 10.0 -31.65 8.85 L-31.55 8.85 -31.35 8.7 -31.1 8.6 -31.6 8.55 Q-30.55 7.65 -30.55 7.25 L-30.75 6.65 -31.1 4.4 -30.65 1.85 Q-29.1 -2.0 -25.9 -3.4 L-27.15 -3.7 M-8.5 19.4 L-8.5 19.45 -8.55 19.25 -8.4 19.25 -8.5 19.4 M-1.8 13.25 L-1.85 13.25 -1.8 13.2 -1.8 13.25 M-0.3 -9.8 L-0.3 -9.7 -0.45 -9.65 -0.3 -9.8 M-6.55 -14.3 L-6.65 -14.1 -6.8 -14.55 -6.75 -14.55 -6.55 -14.4 -6.55 -14.3" fill="#f4d6bf" fill-rule="evenodd" stroke="none"/>
    <path d="M12.7 -13.3 L16.95 -13.7 18.65 -13.6 18.95 -13.55 19.2 -13.55 Q23.25 -13.0 25.25 -10.35 26.45 -8.75 26.7 -7.05 25.3 -5.7 24.8 -4.25 L24.6 -4.2 24.45 -3.75 Q23.7 -1.4 23.7 -0.7 L23.5 -0.45 24.75 -0.7 24.6 -0.3 26.55 -1.25 26.75 -1.3 27.85 -2.45 28.15 -2.7 Q29.9 -3.7 32.95 -3.7 37.05 -3.7 39.0 -1.1 L39.75 0.1 Q39.55 2.4 37.15 4.75 L36.25 5.5 36.05 5.5 Q34.6 4.45 31.4 4.45 L27.0 5.1 26.05 5.1 24.4 5.7 Q22.5 6.6 22.1 7.8 L21.9 7.8 Q21.6 8.4 20.95 8.4 L19.25 8.05 Q18.05 7.6 16.85 7.6 L16.7 7.6 16.25 7.6 16.25 7.45 16.25 7.35 13.8 5.5 12.1 4.15 10.2 3.45 9.15 1.1 8.5 -0.05 Q8.2 -1.7 5.25 -4.1 L3.3 -5.45 3.9 -7.2 Q4.9 -8.85 6.9 -10.6 L7.75 -11.3 7.95 -11.3 8.55 -11.8 8.8 -11.9 Q7.95 -10.8 7.45 -9.5 9.6 -13.85 12.7 -13.3 M7.7 -13.65 L7.55 -13.3 7.25 -13.2 7.7 -13.65 M4.3 -13.75 L3.8 -13.35 3.05 -12.15 2.25 -10.8 2.85 -11.2 Q1.8 -8.85 1.75 -6.2 0.1 -6.95 -1.55 -7.05 L-3.6 -6.95 Q-6.3 -7.15 -9.3 -5.55 L-11.35 -4.2 Q-14.05 -2.75 -14.15 -1.6 L-14.5 -1.85 -16.2 -2.9 Q-18.2 -4.05 -20.8 -4.2 L-23.15 -4.15 Q-23.9 -5.25 -23.9 -6.2 L-23.6 -7.85 -23.0 -8.95 Q-20.6 -11.7 -16.3 -11.7 L-14.6 -11.5 -12.2 -9.8 Q-9.4 -7.95 -9.05 -7.95 L-7.95 -8.1 -7.6 -8.3 -7.55 -9.25 Q-7.55 -10.65 -11.55 -13.05 L-11.65 -13.1 -11.8 -13.6 Q-11.8 -17.9 -8.5 -20.75 -5.6 -23.3 -1.3 -23.8 2.95 -24.3 5.9 -22.55 8.5 -21.0 9.05 -18.3 8.25 -17.85 7.4 -17.1 5.5 -15.5 4.3 -13.75 M7.7 -2.55 L8.25 -1.8 Q7.6 -2.9 6.9 -4.35 7.1 -3.45 7.7 -2.55 M35.35 2.55 L35.15 2.7 35.2 2.75 35.35 2.55 M31.7 4.35 L32.5 4.3 32.15 4.2 31.7 4.35 M33.75 7.9 Q35.7 8.8 35.7 11.3 35.7 14.15 35.2 15.45 33.9 18.8 29.45 18.8 25.95 18.8 24.25 16.7 L23.15 17.3 22.55 17.55 Q22.15 18.9 20.75 20.4 18.15 23.3 13.7 23.3 10.5 23.3 8.75 21.7 7.45 22.8 6.45 22.8 L5.85 22.7 5.0 23.95 Q1.25 28.8 -7.8 28.8 -16.2 28.8 -19.3 25.3 -20.05 24.45 -20.4 23.45 L-23.05 23.8 Q-29.15 23.8 -31.1 21.05 -32.05 19.65 -31.8 18.05 -31.8 15.35 -29.3 13.75 -27.05 12.3 -23.8 12.25 L-20.4 12.65 -17.8 16.3 -17.7 16.45 -16.8 17.35 -16.1 18.65 Q-15.05 20.35 -15.05 21.4 -15.05 22.05 -15.55 22.55 -16.05 23.05 -16.05 23.65 -16.05 24.45 -15.7 24.75 L-14.8 25.05 Q-13.05 24.3 -12.7 23.35 -12.55 23.05 -12.55 21.65 -12.55 18.15 -15.95 13.5 L-16.3 12.85 -16.1 12.85 -16.75 12.05 -17.1 11.5 -17.4 11.45 -18.4 10.55 Q-20.25 9.1 -22.65 8.4 L-23.9 7.95 -23.9 8.1 -25.0 7.9 -27.0 7.75 -26.9 7.45 -27.1 7.0 -27.55 6.85 -28.5 7.05 -28.65 6.15 Q-28.1 4.35 -26.5 2.75 -24.6 0.85 -21.9 0.4 -19.75 1.2 -16.3 3.0 L-13.75 4.3 -11.45 6.2 -11.4 6.85 -11.45 7.25 Q-11.0 7.95 -10.85 9.4 L-10.45 9.6 Q-10.15 8.45 -10.15 6.85 L-10.25 6.0 -10.15 5.3 -10.45 4.25 Q-10.15 3.8 -10.15 3.35 -10.15 2.35 -11.0 1.2 L-10.25 -0.05 Q-8.45 -2.5 -3.55 -2.5 1.0 -2.5 3.25 -0.35 L4.95 1.65 5.25 2.75 Q-2.1 1.55 -6.7 7.05 -10.4 11.4 -10.4 15.85 L-10.3 16.6 Q-10.15 17.3 -9.8 17.6 L-9.4 17.55 -9.15 16.8 -9.15 17.2 -9.05 17.55 -8.25 17.0 -6.95 16.4 Q-6.05 14.55 -4.8 13.0 -0.6 7.65 6.95 7.65 8.15 7.65 11.05 9.6 10.15 10.25 9.4 11.15 8.0 12.85 8.0 14.2 L8.05 14.65 8.25 14.8 8.8 14.85 Q9.6 14.85 9.95 14.2 L10.7 12.85 11.85 11.9 12.65 11.35 Q13.4 10.95 13.8 11.1 L13.9 10.9 15.15 10.95 16.55 10.85 18.05 10.9 18.35 10.85 20.6 11.25 Q20.25 12.15 20.25 13.2 L20.3 14.45 Q20.45 15.6 21.2 15.6 21.5 15.6 21.5 15.35 21.45 15.05 21.75 15.05 L22.05 15.05 Q22.3 12.0 26.4 9.25 26.6 7.7 28.75 7.95 L28.65 7.9 Q30.2 7.15 30.85 7.55 32.5 7.35 33.75 7.9 M32.0 13.65 L31.6 14.2 31.95 13.85 32.45 12.85 32.0 13.65 M-27.15 -3.7 L-25.9 -3.4 Q-29.1 -2.0 -30.65 1.85 L-31.1 4.4 -30.75 6.65 -30.55 7.25 Q-30.55 7.65 -31.6 8.55 L-31.1 8.6 -31.35 8.7 -31.55 8.85 -31.65 8.85 Q-33.65 10.0 -34.3 12.05 L-34.15 12.35 -34.2 12.8 -34.3 13.0 -34.8 13.1 Q-36.8 13.1 -37.9 9.75 -38.65 7.55 -38.65 6.1 -38.65 3.05 -37.2 0.6 -35.1 -2.95 -30.55 -3.25 L-27.15 -3.7 M-6.55 -14.3 L-6.55 -14.4 -6.75 -14.55 -6.8 -14.55 -6.65 -14.1 -6.55 -14.3 M-0.3 -9.8 L-0.45 -9.65 -0.3 -9.7 -0.3 -9.8 M-1.8 13.25 L-1.8 13.2 -1.85 13.25 -1.8 13.25 M-8.5 19.4 L-8.4 19.25 -8.55 19.25 -8.5 19.45 -8.5 19.4" fill="#faebe0" fill-rule="evenodd" stroke="none"/>
  </g>
</svg>
