<?xml version="1.0" encoding="UTF-8" standalone="no"?>
<svg xmlns:ffdec="https://www.free-decompiler.com/flash" xmlns:xlink="http://www.w3.org/1999/xlink" ffdec:objectType="shape" height="149.25px" width="130.6px" xmlns="http://www.w3.org/2000/svg">
  <g transform="matrix(1.0, 0.0, 0.0, 1.0, 67.85, 301.0)">
    <path d="M-67.3 -301.0 L-66.8 -300.9 Q-66.8 -282.45 -63.6 -270.85 -60.5 -259.45 -52.95 -249.95 -46.8 -242.1 -33.2 -230.5 -14.8 -215.25 -2.65 -204.8 -5.35 -206.4 -11.8 -208.8 -18.2 -211.55 -23.7 -216.5 L-23.9 -216.7 -23.9 -216.3 Q-22.75 -213.95 -18.8 -210.0 L-19.2 -209.5 Q-36.6 -223.35 -46.7 -235.55 -67.85 -261.2 -67.85 -288.45 L-67.5 -296.45 -67.3 -301.0" fill="#ffffff" fill-opacity="0.7058824" fill-rule="evenodd" stroke="none"/>
    <path d="M59.4 -286.65 Q55.25 -274.05 48.85 -267.15 45.7 -263.75 37.95 -252.25 30.45 -241.2 25.8 -236.5 20.0 -230.6 8.85 -220.1 L-8.85 -203.2 Q-29.85 -182.2 -43.55 -161.05 L-43.7 -161.15 -40.3 -169.25 Q-37.95 -175.05 -36.15 -177.8 L-36.5 -177.8 Q-41.95 -172.1 -46.5 -166.15 -52.45 -158.35 -55.6 -151.75 L-55.9 -151.85 Q-51.2 -168.75 -33.95 -188.35 -23.95 -199.65 2.1 -223.45 27.5 -246.65 38.7 -259.65 56.75 -280.6 62.75 -299.55 60.65 -290.5 59.4 -286.65" fill="#ffffff" fill-opacity="0.7058824" fill-rule="evenodd" stroke="none"/>
  </g>
</svg>
