<?xml version="1.0" encoding="UTF-8" standalone="no"?>
<svg xmlns:ffdec="https://www.free-decompiler.com/flash" xmlns:xlink="http://www.w3.org/1999/xlink" ffdec:objectType="shape" height="327.65px" width="143.6px" xmlns="http://www.w3.org/2000/svg">
  <g transform="matrix(1.0, 0.0, 0.0, 1.0, 74.0, 304.0)">
    <path d="M7.0 -298.05 L7.0 -80.8 5.5 -65.75 Q4.85 -59.2 4.1 -54.9 3.0 -60.4 0.7 -68.85 L0.55 -71.3 Q0.15 -75.6 -1.5 -84.2 L-3.1 -89.75 Q-4.65 -94.7 -6.45 -98.25 -11.9 -109.15 -19.25 -106.4 -27.75 -103.2 -29.4 -95.5 L-29.85 -92.45 -30.4 -92.3 -30.4 -87.95 -30.25 -87.95 -30.05 -88.45 -30.25 -84.6 Q-30.65 -82.9 -30.65 -81.5 L-30.65 -81.35 -32.85 -69.2 -34.15 -61.0 -35.85 -68.1 -35.9 -72.1 Q-35.9 -80.9 -34.95 -85.4 L-34.95 -109.65 -34.1 -110.75 Q-34.25 -116.3 -34.0 -126.1 L-34.0 -130.3 -34.1 -133.15 -34.1 -140.0 -34.0 -174.8 Q-33.85 -199.15 -34.25 -260.75 -34.25 -285.3 -33.75 -304.0 L7.0 -304.0 7.0 -298.05 M28.45 -301.95 L28.45 -295.5 28.75 -297.35 28.75 -301.95 28.45 -301.95 M55.4 -301.95 L55.4 -177.55 54.3 -162.5 53.25 -151.65 Q52.15 -159.3 49.25 -172.7 L46.8 -183.8 45.2 -193.35 Q44.25 -193.9 42.5 -195.95 L40.25 -198.7 Q34.1 -198.7 32.85 -197.45 L32.2 -196.65 32.0 -196.45 31.55 -195.5 Q30.15 -192.1 28.9 -185.9 27.6 -181.3 27.6 -178.2 L26.0 -165.95 Q24.65 -155.35 24.6 -152.15 L24.5 -152.25 Q23.75 -157.5 23.75 -168.85 23.75 -177.65 24.45 -182.15 L24.45 -206.4 Q24.5 -206.9 25.05 -207.5 24.95 -213.05 25.15 -222.85 L25.15 -227.05 25.05 -229.9 Q25.0 -235.6 25.1 -239.0 L25.15 -244.75 Q25.25 -256.05 24.95 -284.65 24.95 -295.55 25.3 -304.0 L55.4 -304.0 55.4 -301.95 M27.8 -189.05 L27.8 -184.7 27.9 -184.7 29.0 -189.2 28.45 -189.3 27.8 -189.05 M27.1 -178.75 Q27.45 -179.15 27.6 -179.9 27.7 -180.6 27.4 -180.85 L27.4 -180.6 Q27.1 -180.3 27.1 -178.75 M-62.05 -300.7 L-61.9 -304.0 -59.2 -304.0 -59.2 -303.05 -58.95 -303.45 -58.95 -304.0 -37.4 -304.0 -37.4 -229.35 -38.3 -214.3 Q-39.3 -198.6 -40.4 -195.75 L-42.3 -216.55 Q-44.75 -241.65 -46.45 -249.7 -49.1 -253.45 -51.3 -253.7 L-51.8 -256.3 -52.75 -253.45 Q-55.0 -252.45 -56.7 -247.3 -58.6 -241.65 -60.05 -228.45 L-61.1 -213.55 -61.85 -203.85 -62.4 -204.05 Q-63.0 -209.3 -63.0 -220.65 -63.0 -229.45 -62.45 -233.95 L-62.45 -258.2 -61.95 -259.3 -61.9 -274.65 -61.9 -278.85 -61.95 -281.7 -61.9 -292.05 Q-61.8 -294.5 -62.05 -300.7 M-29.5 -298.05 L-29.5 -284.1 -29.1 -288.1 -29.1 -298.05 -29.5 -298.05 M-58.75 -241.0 L-59.2 -241.1 -59.75 -240.85 -59.75 -236.5 -59.65 -236.5 -58.75 -241.0 M-59.9 -231.7 Q-59.8 -232.4 -60.05 -232.65 L-60.05 -232.4 -60.3 -230.55 Q-60.0 -230.95 -59.9 -231.7 M-30.65 -83.15 Q-30.55 -83.85 -30.95 -84.1 L-30.95 -83.85 Q-31.35 -83.55 -31.35 -82.0 -30.85 -82.4 -30.65 -83.15" fill="#ffffff" fill-opacity="0.49803922" fill-rule="evenodd" stroke="none"/>
    <path d="M11.5 -296.3 L14.4 -296.3 14.15 -289.5 13.05 -264.15 Q12.6 -254.25 11.95 -246.15 L14.05 -246.65 16.1 -246.65 Q21.55 -242.3 21.35 -236.15 L20.85 -230.95 Q20.6 -227.75 21.15 -225.5 22.25 -221.3 22.85 -215.0 L23.75 -204.5 28.4 -161.8 Q28.8 -161.8 28.8 -161.4 L36.3 -162.9 Q37.95 -163.3 41.5 -164.4 L44.05 -164.4 Q46.6 -160.65 47.25 -154.55 47.6 -147.6 48.05 -144.35 48.65 -140.2 48.95 -132.25 L49.1 -124.15 48.95 -115.35 Q48.6 -112.6 47.15 -111.45 46.0 -110.55 41.95 -109.35 L31.4 -105.9 35.65 -80.4 Q36.3 -80.4 39.85 -82.25 43.4 -84.15 44.55 -84.15 47.1 -84.15 47.55 -78.0 L47.55 -68.75 Q47.55 -59.2 48.05 -53.65 L49.35 -38.25 Q50.35 -28.95 52.5 -23.25 53.45 -23.75 56.0 -25.35 57.5 -26.25 58.3 -26.25 61.15 -26.25 61.85 -23.15 62.2 -19.45 62.55 -18.25 L63.3 -14.65 69.6 -19.3 69.2 -17.7 68.3 -13.7 64.1 -10.55 64.1 -10.25 Q64.1 -7.85 62.15 -7.85 61.65 -7.85 61.15 -8.3 54.8 -3.3 54.8 -1.6 54.8 0.0 55.8 3.45 L56.85 7.7 51.9 3.45 50.4 -3.9 Q50.4 -4.9 59.35 -11.7 L59.4 -11.75 Q58.35 -15.1 57.5 -21.3 53.65 -18.9 52.35 -18.75 L50.25 -18.75 Q48.0 -21.8 47.1 -26.1 46.7 -28.1 46.25 -33.75 L45.65 -41.25 44.75 -48.85 Q43.6 -55.55 43.3 -63.95 43.15 -67.95 43.15 -79.1 L39.8 -77.45 Q37.2 -76.1 36.3 -76.15 L34.25 -76.15 Q31.05 -78.8 30.55 -83.7 L30.25 -91.55 28.2 -100.2 26.6 -107.1 Q26.6 -109.25 31.45 -110.35 39.4 -112.2 43.55 -114.25 44.9 -114.9 45.2 -118.35 L45.25 -124.15 Q45.25 -131.4 44.25 -142.25 L42.65 -160.25 36.6 -158.9 31.65 -157.4 27.5 -157.4 Q24.25 -160.9 23.55 -168.15 23.15 -172.05 23.0 -178.6 L21.8 -189.3 Q21.1 -196.3 20.4 -200.0 19.85 -203.1 19.15 -210.65 18.5 -217.75 17.8 -221.3 17.5 -222.75 17.05 -234.4 16.7 -242.65 14.75 -242.65 L11.6 -241.85 11.3 -238.8 11.3 -212.6 Q10.9 -211.85 10.6 -209.2 9.9 -208.75 9.35 -208.65 8.3 -208.95 8.1 -209.75 L8.0 -211.05 Q8.0 -212.25 8.55 -213.6 L8.55 -239.35 8.7 -241.1 -0.7 -238.65 Q-2.6 -238.65 -3.4 -241.1 -4.0 -243.05 -4.3 -248.25 -5.45 -266.8 -7.0 -275.75 L-7.0 -296.3 -3.05 -296.3 -3.05 -276.75 -0.75 -259.75 Q0.55 -249.75 0.0 -243.05 L6.6 -244.9 9.0 -245.45 10.1 -264.7 11.3 -290.05 11.5 -296.3 M13.9 -152.5 Q12.05 -152.1 -10.75 -144.0 -13.25 -144.0 -14.25 -150.0 -14.75 -153.0 -14.75 -156.25 -14.75 -160.0 -14.25 -160.95 -12.8 -163.6 -6.75 -165.55 -8.6 -183.9 -11.1 -225.0 -12.65 -250.5 -12.65 -284.35 L-12.6 -295.55 -12.6 -296.3 -8.25 -296.3 -8.25 -288.3 Q-8.75 -286.35 -8.75 -283.65 -8.75 -262.2 -6.8 -223.9 L-4.65 -197.1 Q-2.65 -171.55 -2.65 -164.55 -2.65 -162.25 -3.95 -161.4 -4.65 -160.9 -6.75 -160.55 -10.85 -159.95 -10.85 -156.05 L-10.55 -153.05 -10.25 -149.25 -10.4 -149.05 Q-10.55 -148.85 -9.8 -148.85 L-1.15 -151.65 13.5 -156.6 18.25 -156.6 Q20.0 -154.9 21.3 -147.35 22.25 -141.65 22.25 -139.3 22.25 -137.7 12.5 -133.4 2.1 -128.85 1.0 -127.0 L1.0 -100.6 0.5 -99.5 0.5 -90.5 9.2 -94.15 Q15.55 -96.85 18.25 -97.6 L22.3 -97.6 Q25.8 -92.7 26.75 -85.5 L28.4 -73.3 Q32.0 -52.35 32.0 -48.85 L31.95 -46.7 Q31.75 -46.0 30.4 -45.55 L13.9 -41.75 Q13.3 -41.6 9.95 -40.05 6.85 -38.6 5.25 -38.35 L-4.45 -36.9 Q-9.3 -36.05 -9.3 -35.05 -9.3 -32.6 -8.55 -27.55 -7.7 -21.85 -7.6 -19.85 L-7.25 -12.65 -6.75 -5.1 -3.05 -6.55 Q0.15 -7.85 2.0 -8.05 5.45 -10.7 25.3 -14.05 26.45 -12.2 26.35 -8.6 26.2 -3.65 26.35 -2.8 L27.8 8.35 28.35 12.1 27.6 11.25 Q26.55 9.95 24.8 7.25 L23.2 4.85 Q22.5 -1.05 22.5 -9.8 L6.05 -5.45 6.15 -4.55 Q6.15 0.0 5.1 7.45 L3.45 9.5 1.35 12.55 0.4 12.55 0.75 10.8 1.25 3.65 1.9 -3.5 2.15 -3.75 Q-1.05 -3.6 -3.45 -2.1 -5.8 -0.6 -7.6 -0.6 -10.55 -0.6 -11.0 -7.55 L-11.25 -18.3 Q-11.4 -19.7 -12.7 -27.3 -13.75 -33.4 -13.75 -36.25 -13.75 -37.45 -13.2 -38.0 -12.25 -38.9 -8.5 -40.5 -5.95 -41.55 0.6 -42.45 L8.0 -43.55 16.35 -46.4 Q22.0 -48.1 28.15 -49.25 27.1 -54.85 24.5 -71.35 22.35 -85.25 20.5 -93.5 15.35 -93.55 9.5 -90.8 L1.6 -86.5 -0.95 -86.5 Q-2.55 -87.6 -3.1 -91.3 L-3.35 -94.75 Q-3.35 -99.25 -2.9 -101.5 L-2.9 -128.3 Q-1.75 -131.95 8.15 -136.35 L17.8 -140.5 17.3 -146.1 Q16.75 -149.8 16.75 -152.5 L13.9 -152.5 M-13.95 -294.5 Q-12.9 -282.85 -12.9 -270.6 L-13.4 -236.65 Q-13.4 -234.0 -17.0 -230.1 L-20.65 -226.0 Q-20.65 -225.1 -17.85 -217.35 -14.85 -208.9 -14.5 -207.35 L-12.25 -197.0 -10.85 -189.3 Q-10.85 -186.95 -14.0 -186.15 L-23.75 -183.55 -25.75 -160.1 -27.2 -140.75 Q-26.35 -140.6 -26.35 -138.15 -26.35 -137.2 -26.85 -136.2 L-27.2 -135.55 -26.85 -134.7 Q-23.9 -135.4 -22.5 -136.5 -21.2 -137.5 -20.3 -137.5 -18.15 -137.5 -16.8 -123.35 L-15.1 -100.35 Q-13.85 -87.8 -13.55 -81.75 L-12.5 -72.4 Q-12.3 -71.2 -10.5 -67.4 -8.75 -63.8 -8.75 -63.1 -8.75 -60.05 -16.05 -56.65 -27.45 -51.3 -29.5 -49.9 L-23.15 -39.55 Q-19.1 -32.55 -19.1 -32.05 -19.1 -30.3 -24.2 -28.3 -27.35 -27.05 -36.25 -23.9 -35.45 -21.85 -30.85 -12.8 L-29.0 -9.15 -28.4 -9.0 -27.85 -6.75 -27.65 -6.25 -28.05 -3.2 Q-28.95 5.95 -29.1 10.5 L-29.4 14.85 -29.75 12.75 -30.3 4.65 Q-30.5 -0.15 -30.8 -2.8 L-31.1 -3.05 Q-32.25 -0.05 -33.0 9.3 -33.55 16.75 -33.6 23.65 L-36.15 15.75 -36.95 12.8 Q-36.7 8.95 -37.0 6.3 -37.5 0.95 -34.75 -4.45 L-33.25 -6.85 -33.3 -7.0 -35.4 -13.25 -38.35 -18.45 Q-40.6 -22.6 -40.6 -24.55 -40.6 -26.85 -35.2 -28.5 -26.6 -31.15 -24.65 -32.15 L-24.4 -32.1 Q-24.15 -32.2 -24.15 -33.0 L-34.9 -51.0 Q-34.9 -52.25 -24.9 -57.4 -13.7 -63.15 -13.3 -63.5 -17.45 -70.2 -18.15 -80.45 L-18.85 -98.0 -20.45 -115.0 Q-21.35 -125.15 -21.5 -132.15 -25.2 -130.65 -27.8 -130.0 L-30.35 -130.0 Q-32.3 -131.4 -32.3 -132.6 -32.3 -134.55 -31.25 -136.55 L-30.2 -151.05 -28.75 -164.65 Q-28.75 -173.1 -28.05 -179.0 -27.65 -182.75 -27.65 -186.0 -26.2 -187.8 -21.55 -188.75 -16.1 -189.9 -15.25 -190.4 -16.5 -195.3 -18.75 -206.2 -21.0 -216.1 -24.05 -222.5 L-26.3 -220.7 Q-27.5 -220.0 -28.05 -220.0 -29.7 -220.0 -30.1 -220.85 L-30.25 -221.85 Q-30.25 -222.45 -24.0 -228.35 -17.8 -235.05 -17.8 -239.85 L-16.8 -270.55 Q-16.8 -279.6 -17.4 -288.35 L-22.8 -283.3 Q-27.9 -278.4 -27.9 -276.65 -27.9 -273.95 -25.05 -265.35 -22.25 -256.75 -22.25 -252.0 -22.25 -247.5 -29.95 -242.1 -40.0 -235.0 -42.9 -231.0 -45.7 -227.15 -46.6 -221.1 -47.25 -216.9 -47.05 -210.5 -46.8 -202.45 -47.85 -189.9 L-49.65 -168.9 -49.65 -149.5 Q-50.3 -143.9 -50.7 -131.85 -51.05 -119.85 -51.75 -114.25 L-51.75 -109.9 Q-52.5 -109.4 -51.25 -109.4 L-47.05 -111.0 Q-43.25 -112.65 -41.55 -112.65 -35.15 -112.65 -34.1 -105.75 -34.05 -97.75 -33.6 -95.55 -32.55 -90.55 -32.55 -78.1 L-32.55 -69.15 Q-32.55 -68.0 -33.15 -66.95 -33.95 -65.5 -35.55 -65.3 -41.1 -64.55 -43.45 -63.2 L-46.65 -61.15 Q-50.95 -59.4 -52.15 -56.9 -52.85 -55.45 -52.75 -52.25 -52.55 -46.5 -52.75 -43.65 L-53.35 -34.95 Q-53.7 -29.7 -54.3 -26.25 -54.3 -23.25 -54.8 -21.65 -55.55 -19.35 -58.35 -18.15 L-57.9 -15.75 Q-57.25 -12.2 -56.9 -7.6 -56.8 -5.75 -55.4 -0.85 L-57.75 5.35 -58.95 1.3 Q-60.65 -4.3 -60.75 -6.05 -60.8 -7.8 -61.85 -13.45 L-62.45 -16.8 Q-65.55 -15.6 -67.75 -13.65 -70.35 -11.35 -70.35 -9.55 L-69.55 -3.4 Q-68.8 2.1 -68.8 4.0 L-68.8 5.35 -70.5 -0.9 -71.5 -4.8 Q-72.1 -7.25 -72.05 -8.55 -72.45 -11.1 -74.0 -11.7 -73.55 -13.7 -71.9 -15.2 L-64.15 -20.9 -61.75 -21.75 Q-59.6 -22.55 -59.1 -23.35 -58.7 -24.0 -58.3 -26.5 L-58.1 -29.4 -57.65 -32.3 -57.4 -44.5 -57.15 -56.0 Q-57.15 -58.65 -56.8 -59.2 -55.95 -60.55 -51.3 -63.0 L-46.0 -66.4 Q-42.4 -68.55 -36.6 -69.4 L-36.5 -78.55 -37.45 -93.85 Q-38.85 -108.6 -40.85 -108.6 -43.9 -108.6 -46.8 -106.85 -49.75 -105.15 -51.6 -105.15 -54.9 -105.15 -55.6 -108.3 -55.9 -109.9 -55.6 -111.6 -55.6 -131.85 -53.5 -150.4 L-53.5 -169.8 -51.8 -190.35 Q-50.85 -202.85 -51.0 -211.0 -51.2 -223.95 -47.75 -231.55 -47.45 -232.2 -36.5 -241.05 -26.1 -249.5 -26.1 -252.1 -26.1 -255.9 -28.95 -264.5 -31.8 -273.1 -31.8 -276.75 -31.8 -279.9 -27.8 -283.95 L-20.4 -290.9 -20.4 -296.3 -14.1 -296.3 -13.95 -294.5" fill="#ffffff" fill-opacity="0.49803922" fill-rule="evenodd" stroke="none"/>
  </g>
</svg>
