<?xml version="1.0" encoding="UTF-8" standalone="no"?>
<svg xmlns:ffdec="https://www.free-decompiler.com/flash" xmlns:xlink="http://www.w3.org/1999/xlink" ffdec:objectType="shape" height="320.15px" width="123.65px" xmlns="http://www.w3.org/2000/svg">
  <g transform="matrix(1.0, 0.0, 0.0, 1.0, 62.8, 326.95)">
    <path d="M-25.05 -326.95 Q-20.9 -318.95 -4.6 -290.7 L-1.7 -285.7 Q14.0 -258.3 14.0 -256.85 14.0 -255.2 9.35 -251.05 4.65 -246.9 4.65 -245.65 4.65 -245.2 8.35 -236.75 12.0 -228.4 12.0 -225.45 11.95 -222.85 8.65 -220.25 L-2.05 -213.05 -3.2 -212.25 -7.45 -209.3 Q-27.8 -195.05 -49.8 -173.65 -45.1 -171.35 -42.1 -159.7 -39.7 -147.55 -39.0 -145.4 -37.3 -145.35 -26.35 -153.6 -14.95 -162.2 -13.35 -162.55 L-4.9 -144.05 2.15 -128.45 8.65 -113.95 17.55 -94.25 18.55 -91.95 26.15 -75.25 20.5 -70.5 16.0 -67.15 Q6.4 -59.95 2.45 -58.55 3.75 -57.0 5.0 -50.55 L6.3 -42.95 5.85 -42.9 -8.4 -37.05 Q-22.55 -31.25 -26.45 -30.45 -26.9 -28.25 -26.85 -25.35 -26.85 -22.95 -27.2 -21.95 -28.2 -19.2 -37.2 -13.95 L-41.0 -11.55 Q-42.6 -10.3 -42.9 -8.15 L-43.1 -6.8 -62.8 -6.8 -62.55 -7.4 -58.5 -16.4 Q-52.55 -30.1 -53.1 -53.85 L-54.3 -84.0 -55.6 -118.0 -60.85 -326.95 -25.05 -326.95 M-39.35 -6.8 L-35.05 -12.7 -33.5 -11.15 Q-32.9 -10.35 -32.85 -9.4 -30.2 -10.7 -26.4 -15.35 -21.75 -21.0 -23.9 -23.7 -13.6 -29.2 -3.8 -34.1 6.0 -39.1 7.9 -39.85 8.4 -38.35 9.4 -31.95 L10.85 -23.7 Q11.45 -23.7 16.2 -26.15 20.8 -28.6 21.8 -28.35 L26.95 -8.45 27.4 -6.8 -39.35 -6.8 M31.1 -6.8 L30.0 -12.5 Q26.2 -30.9 23.05 -30.9 L18.95 -29.15 14.2 -27.05 Q13.7 -27.85 12.95 -31.25 L11.75 -35.6 17.1 -37.1 23.15 -38.2 Q25.25 -38.2 30.55 -26.45 L36.6 -12.35 Q37.9 -9.8 40.1 -6.8 L31.1 -6.8 M46.45 -6.8 L41.25 -15.7 34.4 -28.55 Q27.7 -40.75 26.75 -40.75 L20.0 -40.5 13.05 -40.3 13.0 -40.4 Q12.05 -42.0 9.9 -47.35 L6.75 -55.45 15.75 -62.65 22.0 -67.35 Q27.1 -71.2 30.45 -73.45 L11.65 -114.55 Q6.0 -127.3 1.7 -138.1 L1.55 -140.85 0.7 -140.5 -5.4 -156.75 Q-8.05 -164.45 -9.8 -170.7 L-11.15 -170.7 Q-12.15 -169.15 -22.3 -160.8 L-35.95 -149.6 Q-36.9 -151.55 -42.65 -171.8 -42.7 -175.65 -25.4 -187.65 L-6.8 -200.6 -2.55 -203.55 Q10.5 -212.8 15.6 -216.75 17.25 -213.85 22.5 -198.1 27.5 -182.75 27.5 -180.75 27.45 -178.95 26.4 -177.6 L22.45 -173.65 23.95 -159.6 Q25.3 -147.8 28.2 -136.9 L33.6 -116.9 35.2 -110.05 33.15 -132.65 Q30.1 -162.05 27.35 -168.35 L35.55 -173.95 Q35.6 -177.85 26.1 -203.45 12.25 -240.55 10.65 -245.4 11.1 -245.4 11.15 -245.9 12.7 -246.15 16.3 -248.65 L21.45 -252.05 Q18.75 -259.25 4.8 -285.3 L0.75 -292.85 Q-9.15 -311.05 -16.1 -322.8 L-18.65 -326.95 55.8 -326.95 51.2 -133.75 Q51.85 -131.45 51.65 -123.35 L51.6 -119.9 Q51.45 -115.65 51.15 -114.05 L50.65 -101.55 49.65 -76.85 Q48.6 -33.25 55.1 -17.8 55.5 -16.85 59.6 -9.75 L60.85 -6.8 46.45 -6.8 M39.05 -240.1 L38.85 -229.5 39.2 -232.7 39.4 -244.9 39.05 -240.1 M38.0 -201.5 L38.05 -203.2 37.85 -203.1 37.8 -202.5 38.0 -201.5 M38.05 -176.25 L38.2 -181.45 38.0 -177.9 37.9 -176.45 38.05 -176.25 M36.9 -160.65 L36.85 -160.15 36.9 -159.9 36.9 -160.65 M-27.8 -58.45 L-28.55 -57.15 -27.95 -58.15 -27.8 -58.45 -27.25 -59.35 -27.25 -59.8 -27.8 -58.45 M-53.0 -12.7 L-53.05 -12.75 -53.05 -12.35 -53.0 -12.7" fill="#ffffff" fill-opacity="0.6509804" fill-rule="evenodd" stroke="none"/>
    <path d="M-43.1 -6.8 L-42.9 -8.15 Q-42.6 -10.3 -41.0 -11.55 L-37.2 -13.95 Q-28.2 -19.2 -27.2 -21.95 -26.85 -22.95 -26.85 -25.35 -26.9 -28.25 -26.45 -30.45 -22.55 -31.25 -8.4 -37.05 L5.85 -42.9 6.3 -42.95 5.0 -50.55 Q3.75 -57.0 2.45 -58.55 6.4 -59.95 16.0 -67.15 L20.5 -70.5 26.15 -75.25 18.55 -91.95 17.55 -94.25 8.65 -113.95 2.15 -128.45 -4.9 -144.05 -13.35 -162.55 Q-14.95 -162.2 -26.35 -153.6 -37.3 -145.35 -39.0 -145.4 -39.7 -147.55 -42.1 -159.7 -45.1 -171.35 -49.8 -173.65 -27.8 -195.05 -7.45 -209.3 L-3.2 -212.25 -2.05 -213.05 8.65 -220.25 Q11.95 -222.85 12.0 -225.45 12.0 -228.4 8.35 -236.75 4.65 -245.2 4.65 -245.65 4.65 -246.9 9.35 -251.05 14.0 -255.2 14.0 -256.85 14.0 -258.3 -1.7 -285.7 L-4.6 -290.7 Q-20.9 -318.95 -25.05 -326.95 L-18.65 -326.95 -16.1 -322.8 Q-9.15 -311.05 0.75 -292.85 L4.8 -285.3 Q18.75 -259.25 21.45 -252.05 L16.3 -248.65 Q12.7 -246.15 11.15 -245.9 11.1 -245.4 10.65 -245.4 12.25 -240.55 26.1 -203.45 35.6 -177.85 35.55 -173.95 L27.35 -168.35 Q30.1 -162.05 33.15 -132.65 L35.2 -110.05 33.6 -116.9 28.2 -136.9 Q25.3 -147.8 23.95 -159.6 L22.45 -173.65 26.4 -177.6 Q27.45 -178.95 27.5 -180.75 27.5 -182.75 22.5 -198.1 17.25 -213.85 15.6 -216.75 10.5 -212.8 -2.55 -203.55 L-6.8 -200.6 -25.4 -187.65 Q-42.7 -175.65 -42.65 -171.8 -36.9 -151.55 -35.95 -149.6 L-22.3 -160.8 Q-12.15 -169.15 -11.15 -170.7 L-9.8 -170.7 Q-8.05 -164.45 -5.4 -156.75 L0.7 -140.5 1.55 -140.85 1.7 -138.1 Q6.0 -127.3 11.65 -114.55 L30.45 -73.45 Q27.1 -71.2 22.0 -67.35 L15.75 -62.65 6.75 -55.45 9.9 -47.35 Q12.05 -42.0 13.0 -40.4 L13.05 -40.3 20.0 -40.5 26.75 -40.75 Q27.7 -40.75 34.4 -28.55 L41.25 -15.7 46.45 -6.8 40.1 -6.8 Q37.9 -9.8 36.6 -12.35 L30.55 -26.45 Q25.25 -38.2 23.15 -38.2 L17.1 -37.1 11.75 -35.6 12.95 -31.25 Q13.7 -27.85 14.2 -27.05 L18.95 -29.15 23.05 -30.9 Q26.2 -30.9 30.0 -12.5 L31.1 -6.8 27.4 -6.8 26.95 -8.45 21.8 -28.35 Q20.8 -28.6 16.2 -26.15 11.45 -23.7 10.85 -23.7 L9.4 -31.95 Q8.4 -38.35 7.9 -39.85 6.0 -39.1 -3.8 -34.1 -13.6 -29.2 -23.9 -23.7 -21.75 -21.0 -26.4 -15.35 -30.2 -10.7 -32.85 -9.4 -32.9 -10.35 -33.5 -11.15 L-35.05 -12.7 -39.35 -6.8 -43.1 -6.8 M36.9 -160.65 L36.9 -159.9 36.85 -160.15 36.9 -160.65 M38.05 -176.25 L37.9 -176.45 38.0 -177.9 38.2 -181.45 38.05 -176.25 M38.0 -201.5 L37.8 -202.5 37.85 -203.1 38.05 -203.2 38.0 -201.5 M39.05 -240.1 L39.4 -244.9 39.2 -232.7 38.85 -229.5 39.05 -240.1 M-27.8 -58.45 L-27.25 -59.8 -27.25 -59.35 -27.8 -58.45 -27.95 -58.15 -28.55 -57.15 -27.8 -58.45 M-53.0 -12.7 L-53.05 -12.35 -53.05 -12.75 -53.0 -12.7" fill="#ffffff" fill-rule="evenodd" stroke="none"/>
  </g>
</svg>
