<?xml version="1.0" encoding="UTF-8" standalone="no"?>
<svg xmlns:ffdec="https://www.free-decompiler.com/flash" xmlns:xlink="http://www.w3.org/1999/xlink" ffdec:objectType="shape" height="305.0px" width="121.9px" xmlns="http://www.w3.org/2000/svg">
  <g transform="matrix(1.0, 0.0, 0.0, 1.0, 59.95, 292.3)">
    <path d="M5.5 -206.2 Q4.85 -199.65 4.1 -195.35 3.0 -200.85 0.7 -209.3 L0.55 -211.75 Q0.15 -216.05 -1.5 -224.65 L-3.1 -230.2 Q-4.65 -235.15 -6.45 -238.7 -11.9 -249.6 -19.25 -246.85 -27.75 -243.65 -29.4 -235.95 L-29.85 -232.9 -30.4 -232.75 -30.4 -228.4 -30.25 -228.4 -30.05 -228.9 -30.25 -225.05 Q-30.65 -223.35 -30.65 -221.95 L-30.65 -221.8 -32.85 -209.65 -34.15 -201.45 -35.85 -208.55 -35.9 -212.55 Q-35.9 -221.35 -34.95 -225.85 L-34.95 -250.1 -34.1 -251.2 Q-34.25 -256.75 -34.0 -266.55 L-34.0 -270.75 -34.1 -273.6 -34.1 -278.3 7.0 -278.3 7.0 -221.25 5.5 -206.2 M-30.95 -224.55 L-30.95 -224.3 Q-31.35 -224.0 -31.35 -222.45 -30.85 -222.85 -30.65 -223.6 -30.55 -224.3 -30.95 -224.55" fill="#ffffff" fill-opacity="0.49803922" fill-rule="evenodd" stroke="none"/>
    <path d="M20.45 -292.3 L23.8 -292.3 23.55 -291.05 Q23.15 -288.85 23.15 -282.8 L23.05 -281.95 22.95 -282.15 22.65 -281.6 Q22.35 -281.35 21.45 -281.35 L20.15 -281.45 19.85 -281.6 19.75 -284.4 Q19.75 -287.7 20.45 -292.3 M39.9 -292.3 L43.0 -292.3 Q40.45 -271.05 39.35 -257.1 L38.0 -256.55 Q36.85 -257.7 36.65 -260.4 36.65 -267.25 38.3 -280.55 L39.9 -292.3 M16.5 -251.0 L14.0 -240.05 Q13.4 -232.9 10.8 -229.6 9.1 -227.45 5.55 -226.25 1.75 -224.9 0.65 -223.85 -1.5 -221.75 -1.5 -216.5 -1.5 -211.85 1.35 -206.15 4.7 -199.5 9.95 -196.55 19.2 -191.3 25.9 -186.4 33.8 -180.55 36.0 -176.55 40.45 -168.35 43.35 -157.0 46.2 -145.95 46.2 -137.3 46.2 -135.1 44.7 -134.1 L39.9 -134.55 36.3 -135.05 Q29.45 -135.05 25.35 -129.6 24.1 -127.85 23.25 -125.8 L22.65 -123.95 Q22.65 -123.25 23.95 -121.4 25.2 -119.5 25.2 -118.85 25.2 -118.0 22.6 -113.6 L16.8 -103.55 Q8.4 -87.65 8.4 -75.45 8.4 -71.3 11.0 -67.4 L16.15 -60.95 Q19.3 -57.1 20.1 -53.85 21.2 -49.35 18.95 -43.8 L19.55 -43.35 22.05 -43.35 Q24.8 -44.65 31.3 -48.45 36.0 -51.15 40.95 -52.95 L44.1 -52.95 Q46.85 -51.95 49.75 -42.15 52.4 -33.3 52.4 -28.5 L48.7 -24.6 Q45.0 -21.05 45.0 -18.8 45.0 -15.5 49.45 -14.45 L59.25 -13.15 61.15 -12.8 61.7 -11.0 61.95 -10.2 Q59.15 -11.3 55.4 -11.15 48.35 -10.85 45.6 -12.65 43.1 -14.3 42.35 -16.0 41.9 -17.0 41.9 -18.9 41.9 -22.6 45.35 -26.3 48.75 -30.0 48.75 -31.05 48.75 -33.9 46.4 -40.8 L42.95 -49.65 Q37.15 -48.35 31.6 -45.25 23.1 -40.5 21.75 -39.9 L19.25 -39.9 Q15.25 -43.0 16.1 -48.9 L16.55 -53.5 Q16.45 -56.05 14.9 -57.9 L8.9 -65.15 9.05 -60.9 Q9.05 -52.45 5.05 -41.8 1.05 -31.15 1.05 -27.15 1.05 -23.6 9.7 -17.05 18.35 -10.55 18.35 -8.75 18.35 -6.5 13.1 -3.8 7.8 -1.15 7.8 0.15 L8.65 3.45 8.4 5.7 8.0 9.35 7.7 11.9 6.95 9.3 Q4.7 1.55 4.7 0.0 4.7 -3.0 6.65 -4.05 10.65 -5.7 14.75 -8.45 10.55 -13.2 2.15 -19.05 -0.2 -20.65 -1.05 -22.15 -2.1 -24.0 -2.1 -27.3 -2.1 -32.4 1.95 -42.95 6.0 -53.55 6.0 -61.05 6.0 -66.35 4.15 -74.75 2.25 -83.15 2.25 -96.3 L2.25 -105.95 4.1 -119.55 Q4.7 -123.65 8.3 -133.35 L11.7 -142.35 Q11.7 -143.15 8.5 -148.3 5.3 -154.4 5.3 -160.05 5.3 -163.8 7.2 -170.35 L9.05 -177.65 Q9.05 -180.35 4.25 -186.4 1.3 -190.1 -2.85 -194.4 -5.9 -197.5 -7.7 -202.05 -9.45 -206.45 -9.45 -210.6 -9.45 -221.3 -10.7 -243.45 L-10.4 -255.3 -10.1 -273.35 -8.25 -288.1 -7.7 -292.3 -3.15 -292.3 -3.3 -290.6 Q-3.3 -279.55 7.85 -273.4 L15.45 -269.55 Q18.95 -267.55 18.95 -265.4 18.95 -262.5 16.5 -251.0 M15.9 -264.95 L8.8 -268.85 Q0.95 -273.15 -1.95 -277.4 -4.35 -280.95 -5.35 -283.95 L-5.5 -284.4 -5.75 -282.1 Q-7.65 -265.75 -7.65 -243.45 L-6.75 -230.55 Q-6.0 -217.3 -6.35 -210.45 -6.6 -206.05 -3.75 -201.5 -1.95 -198.65 2.65 -193.7 7.5 -188.55 9.15 -186.05 12.15 -181.65 12.15 -177.5 12.15 -175.45 10.3 -169.45 8.4 -163.45 8.4 -159.8 8.4 -154.75 12.15 -148.65 L15.9 -142.2 Q14.1 -139.7 12.1 -135.65 8.05 -127.55 7.2 -118.95 L5.85 -107.0 Q5.3 -101.5 5.3 -96.15 5.3 -88.55 5.95 -82.85 7.55 -92.5 13.1 -103.5 L18.4 -113.25 Q20.85 -117.5 20.85 -118.55 L20.2 -121.2 Q19.55 -123.15 19.55 -123.9 19.55 -128.5 24.2 -132.95 30.9 -139.4 43.1 -137.55 41.45 -152.15 40.3 -157.4 37.7 -169.2 32.1 -177.0 30.05 -179.85 19.15 -186.85 6.4 -195.1 4.1 -197.0 -0.1 -200.55 -2.45 -206.45 -4.5 -211.6 -4.5 -216.6 -4.5 -223.0 -2.45 -225.6 -1.2 -227.15 2.25 -228.15 5.85 -229.25 7.35 -230.85 9.9 -233.55 10.65 -240.05 10.8 -241.25 13.45 -251.8 15.9 -261.55 15.9 -264.95 M-18.65 -292.3 L-15.5 -292.3 -15.65 -287.85 -12.55 -242.4 Q-9.45 -194.85 -9.45 -183.3 L-9.45 -174.75 Q-10.1 -167.55 -13.5 -167.55 -15.0 -167.55 -16.65 -168.5 -19.05 -169.9 -20.6 -170.4 L-24.35 -170.4 Q-23.35 -167.1 -19.6 -165.0 -15.0 -163.05 -12.9 -162.0 -10.65 -160.85 -8.6 -157.95 -6.65 -155.25 -6.2 -152.85 -3.3 -137.55 -3.3 -134.55 -3.3 -126.0 -11.0 -118.7 L-16.35 -113.35 Q-18.75 -110.2 -18.75 -106.65 -18.75 -104.65 -16.6 -101.95 L-11.9 -96.8 Q-5.1 -89.4 -5.1 -83.4 -5.1 -81.65 -5.95 -79.95 -6.9 -78.1 -7.05 -75.75 L-7.1 -72.2 -7.05 -68.7 -6.8 -61.35 Q-6.75 -56.95 -7.8 -54.3 -9.4 -50.2 -18.55 -46.55 -28.95 -42.4 -30.2 -41.15 -36.05 -35.1 -37.05 -33.25 -37.95 -31.5 -37.95 -26.75 -37.95 -22.5 -34.6 -16.3 -30.35 -9.3 -28.65 -5.85 -27.3 -3.15 -26.5 -0.8 L-27.3 4.1 -28.4 9.75 -29.05 12.7 -28.65 7.9 Q-28.35 3.75 -29.3 1.05 -30.7 -2.8 -36.8 -13.25 -41.1 -20.55 -41.1 -26.75 -41.1 -32.35 -40.8 -33.0 -40.3 -34.2 -34.1 -41.6 -32.45 -43.55 -22.25 -48.2 -12.35 -52.75 -11.15 -54.6 -9.7 -56.9 -9.8 -61.65 L-10.1 -69.5 -10.1 -76.95 Q-10.1 -78.25 -9.15 -80.55 -8.25 -82.8 -8.25 -83.7 -8.25 -88.15 -15.05 -95.6 -21.9 -103.05 -21.9 -106.7 -21.9 -110.4 -19.45 -113.9 -18.15 -115.85 -14.1 -119.85 -10.35 -123.65 -8.8 -126.15 -6.35 -130.05 -6.35 -134.4 -6.35 -136.55 -7.8 -144.75 -9.25 -152.8 -9.6 -153.15 -13.45 -157.5 -22.05 -162.75 -27.45 -166.05 -27.45 -170.85 -27.45 -172.55 -26.55 -173.15 -25.65 -173.75 -23.1 -173.75 -20.4 -173.75 -17.3 -172.6 L-13.95 -171.15 Q-13.2 -172.0 -12.85 -176.95 L-12.6 -183.0 Q-12.6 -191.5 -13.7 -210.0 L-15.05 -235.7 Q-15.25 -242.5 -17.05 -261.5 -18.75 -279.2 -18.75 -287.75 L-18.65 -292.3 M-24.65 -292.3 L-19.55 -292.3 -24.3 -288.0 Q-33.6 -279.95 -33.6 -278.55 -33.6 -277.1 -29.25 -270.95 -24.95 -264.8 -24.95 -261.8 -24.95 -259.75 -33.7 -251.65 -42.6 -243.5 -42.9 -239.45 L-44.05 -228.3 Q-44.85 -221.3 -44.85 -217.35 -44.85 -211.0 -42.15 -205.75 L-36.15 -196.65 Q-27.45 -183.8 -27.45 -164.4 -27.45 -146.1 -36.45 -130.1 L-42.65 -119.75 Q-45.45 -114.75 -45.45 -111.45 -45.45 -107.55 -41.85 -104.7 -33.0 -104.85 -30.65 -102.05 -29.9 -101.1 -29.9 -97.95 -29.9 -90.1 -33.0 -85.75 -34.55 -83.65 -39.85 -79.85 -44.6 -76.45 -46.7 -72.55 -49.8 -66.65 -49.8 -56.1 -49.8 -47.3 -47.6 -40.65 -45.45 -33.95 -45.45 -31.2 -45.45 -30.15 -48.05 -27.35 L-53.8 -21.15 Q-57.85 -16.35 -59.95 -11.7 L-59.45 -19.05 -56.85 -22.55 Q-52.7 -27.7 -48.5 -31.25 -48.5 -32.0 -50.65 -39.85 -52.85 -47.75 -52.85 -56.4 -52.85 -66.3 -49.75 -72.85 -47.55 -77.45 -42.9 -81.65 L-36.1 -88.2 Q-33.0 -92.2 -33.0 -97.85 -33.0 -99.6 -35.4 -100.45 L-40.75 -101.85 Q-48.5 -104.05 -48.5 -111.6 -48.5 -115.55 -45.7 -120.75 L-39.55 -131.0 Q-30.6 -146.5 -30.6 -164.3 -30.6 -175.45 -33.3 -183.55 -35.15 -189.1 -39.25 -195.25 -44.15 -202.6 -45.2 -204.75 -47.9 -210.45 -47.9 -217.55 -47.9 -231.1 -46.05 -240.05 -45.05 -244.9 -36.35 -252.75 -28.05 -260.25 -28.05 -262.05 -28.05 -264.05 -32.7 -270.15 -37.35 -276.3 -37.35 -278.85 -37.35 -280.25 -27.75 -289.4 L-24.65 -292.3" fill="#ffffff" fill-opacity="0.49803922" fill-rule="evenodd" stroke="none"/>
  </g>
</svg>
