<?xml version="1.0" encoding="UTF-8" standalone="no"?>
<svg xmlns:ffdec="https://www.free-decompiler.com/flash" xmlns:xlink="http://www.w3.org/1999/xlink" ffdec:objectType="shape" height="149.25px" width="130.6px" xmlns="http://www.w3.org/2000/svg">
  <g transform="matrix(1.0, 0.0, 0.0, 1.0, 64.85, 301.0)">
    <path d="M-64.3 -301.0 L-63.8 -300.9 Q-63.8 -282.45 -60.6 -270.85 -57.5 -259.45 -49.95 -249.95 -43.8 -242.1 -30.2 -230.5 -11.8 -215.25 0.35 -204.8 -2.35 -206.4 -8.8 -208.8 -15.2 -211.55 -20.7 -216.5 L-20.9 -216.7 -20.9 -216.3 Q-19.75 -213.95 -15.8 -210.0 L-16.2 -209.5 Q-33.6 -223.35 -43.7 -235.55 -64.85 -261.2 -64.85 -288.45 L-64.5 -296.45 -64.3 -301.0" fill="#ffffff" fill-opacity="0.7058824" fill-rule="evenodd" stroke="none"/>
    <path d="M51.85 -267.15 Q48.7 -263.75 40.95 -252.25 33.45 -241.2 28.8 -236.5 23.0 -230.6 11.85 -220.1 L-5.85 -203.2 Q-26.85 -182.2 -40.55 -161.05 L-40.7 -161.15 -37.3 -169.25 Q-34.95 -175.05 -33.15 -177.8 L-33.5 -177.8 Q-38.95 -172.1 -43.5 -166.15 -49.45 -158.35 -52.6 -151.75 L-52.9 -151.85 Q-48.2 -168.75 -30.95 -188.35 -20.95 -199.65 5.1 -223.45 30.5 -246.65 41.7 -259.65 59.75 -280.6 65.75 -299.55 63.65 -290.5 62.4 -286.65 58.25 -274.05 51.85 -267.15" fill="#ffffff" fill-opacity="0.7058824" fill-rule="evenodd" stroke="none"/>
    <path d="M4.65 -278.65 L3.5 -277.75 2.3 -279.3 4.4 -279.3 4.65 -278.65 M16.4 -271.3 L19.05 -269.1 18.4 -268.1 Q18.1 -267.75 17.7 -267.75 15.95 -267.75 14.9 -269.1 14.35 -269.75 14.2 -270.35 14.2 -272.6 16.4 -271.3 M26.5 -257.05 Q26.85 -256.9 26.85 -256.2 L26.2 -248.95 25.55 -243.0 24.45 -242.4 Q23.65 -242.65 23.45 -243.45 L23.35 -244.95 Q23.35 -246.9 24.2 -251.15 24.45 -251.9 24.1 -254.25 24.0 -256.4 25.8 -257.25 L26.5 -257.05 M1.95 -190.55 L1.8 -189.95 Q1.6 -189.6 0.85 -189.6 -0.2 -189.6 -0.75 -190.75 L-1.1 -191.8 Q-1.1 -193.6 0.25 -192.75 1.55 -191.95 1.95 -190.55 M10.5 -178.9 Q11.1 -178.85 12.0 -177.25 14.2 -173.25 14.2 -169.1 L14.1 -167.4 Q13.55 -167.0 13.1 -166.95 12.25 -167.6 11.0 -171.65 9.8 -175.45 9.8 -176.95 9.8 -179.0 10.5 -178.9 M12.3 -159.15 L12.1 -159.3 12.0 -160.4 Q12.0 -161.65 12.95 -161.65 13.9 -161.6 14.6 -160.1 L14.4 -159.45 14.2 -159.2 13.35 -159.05 12.3 -159.15 M-37.1 -279.3 L-34.65 -279.3 Q-35.15 -275.3 -35.15 -271.55 L-35.45 -271.35 -36.4 -271.2 Q-37.5 -271.2 -37.55 -271.45 L-37.65 -272.45 Q-37.65 -275.65 -37.1 -279.3 M-5.9 -278.2 L-6.9 -277.75 -7.45 -279.3 -5.85 -279.3 -5.9 -278.2 M-52.25 -184.8 Q-51.8 -185.6 -50.1 -185.45 L-50.1 -184.4 -50.3 -182.95 -49.85 -181.75 -49.45 -180.55 -49.55 -179.55 -49.65 -179.3 Q-49.85 -179.1 -50.55 -179.1 -51.9 -179.1 -52.5 -182.95 L-52.25 -184.8 M-48.8 -169.75 Q-46.4 -169.8 -45.1 -165.25 -44.2 -162.1 -44.2 -159.3 L-44.3 -157.3 -45.3 -156.85 Q-46.3 -158.85 -47.45 -162.8 L-49.0 -168.9 -48.8 -169.75" fill="#ffffff" fill-opacity="0.49803922" fill-rule="evenodd" stroke="none"/>
  </g>
</svg>
