<?xml version="1.0" encoding="UTF-8" standalone="no"?>
<svg xmlns:ffdec="https://www.free-decompiler.com/flash" xmlns:xlink="http://www.w3.org/1999/xlink" ffdec:objectType="shape" height="15.1px" width="21.6px" xmlns="http://www.w3.org/2000/svg">
  <g transform="matrix(1.0, 0.0, 0.0, 1.0, 30.3, 7.75)">
    <path d="M-24.55 -6.4 L-22.35 -6.4 -20.15 -6.6 -18.25 -6.75 -14.35 -6.6 Q-15.6 -2.1 -17.9 -0.3 L-19.35 0.95 Q-19.95 1.7 -19.95 3.15 L-19.85 5.15 -20.45 4.9 -20.5 4.65 -20.85 3.25 -20.85 2.8 -20.9 2.7 -20.9 2.55 -20.95 2.4 -20.95 2.25 -21.1 1.85 -21.3 1.75 -22.05 1.4 -22.45 1.2 -21.55 1.3 Q-20.1 1.3 -19.2 0.7 -18.5 0.15 -18.25 -0.7 L-18.75 -0.2 -19.85 -0.05 Q-21.75 -0.05 -23.1 -1.65 -24.55 -3.35 -24.55 -6.05 L-24.55 -6.4 M-12.7 -6.55 L-12.1 -6.55 -12.1 -6.0 -12.05 -5.75 -12.1 -5.6 -12.1 -5.5 -12.15 -5.5 -12.15 -5.15 -12.2 -5.0 -12.2 -4.95 -11.65 -5.2 -10.9 -4.9 -10.05 -4.15 Q-9.8 -3.55 -9.8 -2.65 -9.8 -1.95 -10.2 -1.25 -11.0 0.05 -12.85 0.05 L-13.4 -0.2 -14.1 -0.5 -14.65 0.05 -14.85 0.3 -15.65 0.9 -15.75 0.95 -16.5 1.35 -17.05 1.6 -17.15 1.65 -15.2 -1.15 -13.45 -3.55 Q-12.6 -4.85 -12.6 -5.85 L-12.7 -6.55 M-22.2 6.45 L-23.15 6.45 -23.1 6.4 -22.2 6.45 M-27.25 -5.2 L-27.2 -4.4 -28.1 -3.7 -28.4 -2.95 -28.4 -2.7 -28.2 -1.55 Q-27.9 -0.7 -27.15 -0.7 L-26.25 -0.85 -26.15 -0.85 -25.8 -1.0 -25.3 -0.3 -25.65 -0.2 -27.15 0.05 Q-28.3 0.05 -28.85 -1.1 -29.2 -1.85 -29.2 -2.5 L-28.95 -3.65 -28.35 -4.65 -27.55 -5.05 -27.25 -5.2 M-24.65 -0.15 L-24.6 -0.1 -24.65 -0.1 -24.65 -0.15 M-12.25 -4.35 L-12.35 -4.2 -12.55 -4.3 -12.7 -3.3 -13.4 -1.5 -13.55 -1.25 -13.65 -1.1 -12.85 -0.85 -12.75 -0.85 -11.85 -0.7 Q-11.25 -0.7 -10.9 -1.25 L-10.8 -1.55 -10.6 -2.5 -10.55 -3.0 -10.8 -3.85 Q-11.25 -4.5 -12.25 -4.35" fill="#ffef00" fill-rule="evenodd" stroke="none"/>
    <path d="M-22.2 -7.6 L-20.6 -7.6 -19.85 -7.5 -16.2 -7.5 -13.85 -7.65 -11.85 -7.75 -11.0 -7.65 -10.95 -7.65 -10.85 -7.5 -10.95 -6.5 Q-9.75 -6.05 -9.15 -4.75 -8.7 -3.75 -8.7 -2.75 -8.7 -1.65 -9.3 -0.6 -10.0 0.65 -11.25 1.0 L-11.65 1.1 -12.35 1.15 -13.55 1.0 -13.65 0.95 -13.95 0.85 -15.05 1.7 -15.55 2.15 -16.35 2.6 -16.55 2.65 -17.05 3.0 -17.1 3.35 -15.85 5.05 -14.65 6.45 -14.55 6.65 -14.55 6.7 -14.6 6.8 -14.7 7.0 -16.35 7.15 -19.75 7.35 -21.75 7.35 -24.15 7.25 -25.35 7.05 -26.15 7.05 -26.4 7.0 -25.75 6.35 -24.8 5.6 -22.5 3.95 -22.5 3.9 -22.55 2.8 -23.75 2.05 -24.55 1.45 -24.95 1.15 -25.25 0.95 -25.65 1.05 -26.75 1.15 -27.0 1.15 Q-29.05 1.05 -29.9 -0.6 L-30.3 -2.55 Q-30.3 -3.5 -29.9 -4.3 L-28.3 -6.2 -28.0 -6.9 -28.0 -7.05 -28.0 -7.15 -27.85 -7.35 -27.7 -7.35 -26.65 -7.5 -24.35 -7.35 -23.15 -7.45 -22.2 -7.6 M-14.35 -6.6 L-18.25 -6.75 -20.15 -6.6 -22.35 -6.4 -24.55 -6.4 -25.95 -6.4 -26.75 -6.2 -26.8 -6.2 -26.8 -6.05 -26.75 -5.95 -26.6 -5.2 -26.75 -5.15 -26.8 -5.15 -27.2 -5.3 -27.25 -5.2 -27.55 -5.05 -28.35 -4.65 -28.95 -3.65 -29.2 -2.5 Q-29.2 -1.85 -28.85 -1.1 -28.3 0.05 -27.15 0.05 L-25.65 -0.2 -25.3 -0.3 -25.1 -0.35 -24.85 -0.3 -24.85 -0.35 -24.8 -0.35 -24.75 -0.25 -24.65 -0.15 -24.65 -0.1 -24.6 -0.1 -24.2 0.1 -23.9 0.3 -22.95 1.0 -22.55 1.15 -22.45 1.2 -22.05 1.4 -21.3 1.75 -21.1 1.85 -20.95 2.25 -20.95 2.4 -20.9 2.55 -20.9 2.7 -20.85 2.8 -20.85 3.25 -20.5 4.65 -20.45 4.9 -20.85 4.8 -21.0 4.8 -22.3 5.4 -24.15 6.3 -24.15 6.35 -23.1 6.4 -23.15 6.45 -22.2 6.45 -19.7 6.45 -19.65 6.4 -16.5 6.35 -16.35 6.35 -16.45 6.3 -16.5 6.3 -16.55 6.25 -16.65 6.15 -17.55 5.6 -18.05 5.25 -18.4 5.05 -18.55 4.55 -18.55 3.35 -18.4 2.65 -18.35 2.6 -18.15 2.2 -18.0 2.05 -17.15 1.65 -17.05 1.6 -16.5 1.35 -15.75 0.95 -15.65 0.9 -14.85 0.3 -14.65 0.05 -14.1 -0.5 -13.4 -0.2 -12.85 0.05 Q-11.0 0.05 -10.2 -1.25 -9.8 -1.95 -9.8 -2.65 -9.8 -3.55 -10.05 -4.15 L-10.9 -4.9 -11.65 -5.2 -12.2 -4.95 -12.2 -5.0 -12.15 -5.15 -12.15 -5.5 -12.1 -5.5 -12.1 -5.6 -12.05 -5.75 -12.1 -6.0 -12.1 -6.55 -12.7 -6.55 -14.35 -6.6 M-27.2 -4.4 L-26.8 -4.65 -26.7 -4.6 -26.45 -4.3 -26.45 -4.2 -25.95 -3.05 -25.45 -1.45 -25.5 -1.3 -25.5 -1.25 -25.35 -1.1 -25.65 -1.05 -25.8 -1.0 -26.15 -0.85 -26.25 -0.85 -27.15 -0.7 Q-27.9 -0.7 -28.2 -1.55 L-28.4 -2.7 -28.4 -2.95 -28.1 -3.7 -27.2 -4.4 M-27.3 -3.3 Q-27.6 -3.3 -27.85 -2.35 L-27.85 -2.2 -27.6 -1.8 Q-27.4 -1.65 -26.8 -1.45 L-26.75 -1.45 -26.5 -1.55 -26.75 -2.05 -26.95 -2.6 -27.05 -3.3 -27.3 -3.3 M-12.25 -4.35 Q-11.25 -4.5 -10.8 -3.85 L-10.55 -3.0 -10.6 -2.5 -10.8 -1.55 -10.9 -1.25 Q-11.25 -0.7 -11.85 -0.7 L-12.75 -0.85 -12.85 -0.85 -13.65 -1.1 -13.55 -1.25 -13.4 -1.5 -12.7 -3.3 -12.55 -4.3 -12.35 -4.2 -12.25 -4.35 M-11.3 -2.15 L-11.25 -2.55 Q-11.45 -3.3 -11.75 -3.3 L-12.3 -1.8 -12.3 -1.65 -12.1 -1.6 -11.9 -1.6 -11.3 -2.15" fill="#311708" fill-rule="evenodd" stroke="none"/>
    <path d="M-24.55 -6.4 L-24.55 -6.05 Q-24.55 -3.35 -23.1 -1.65 -21.75 -0.05 -19.85 -0.05 L-18.75 -0.2 -18.25 -0.7 Q-18.5 0.15 -19.2 0.7 -20.1 1.3 -21.55 1.3 L-22.45 1.2 -22.55 1.15 -22.95 1.0 -23.9 0.3 -24.2 0.1 -24.6 -0.1 -24.65 -0.15 -24.75 -0.25 -24.8 -0.35 -24.85 -0.35 -24.85 -0.3 -25.1 -0.35 -25.3 -0.3 -25.8 -1.0 -25.65 -1.05 -25.35 -1.1 -25.5 -1.25 -25.5 -1.3 -25.45 -1.45 -25.95 -3.05 -26.45 -4.2 -26.45 -4.3 -26.7 -4.6 -26.8 -4.65 -27.2 -4.4 -27.25 -5.2 -27.2 -5.3 -26.8 -5.15 -26.75 -5.15 -26.6 -5.2 -26.75 -5.95 -26.8 -6.05 -26.8 -6.2 -26.75 -6.2 -25.95 -6.4 -24.55 -6.4 M-20.45 4.9 L-19.85 5.15 -19.65 6.4 -19.7 6.45 -22.2 6.45 -23.1 6.4 -24.15 6.35 -24.15 6.3 -22.3 5.4 -21.0 4.8 -20.85 4.8 -20.45 4.9" fill="#ff9900" fill-rule="evenodd" stroke="none"/>
    <path d="M-19.85 5.15 L-19.95 3.15 Q-19.95 1.7 -19.35 0.95 L-17.9 -0.3 Q-15.6 -2.1 -14.35 -6.6 L-12.7 -6.55 -12.6 -5.85 Q-12.6 -4.85 -13.45 -3.55 L-15.2 -1.15 -17.15 1.65 -18.0 2.05 -18.15 2.2 -18.35 2.6 -18.4 2.65 -18.55 3.35 -18.55 4.55 -18.4 5.05 -18.05 5.25 -17.55 5.6 -16.65 6.15 -16.55 6.25 -16.5 6.3 -16.5 6.35 -19.65 6.4 -19.85 5.15" fill="#ffffff" fill-rule="evenodd" stroke="none"/>
    <path d="M-16.5 6.3 L-16.45 6.3 -16.35 6.35 -16.5 6.35 -16.5 6.3" fill="#bea27b" fill-rule="evenodd" stroke="none"/>
  </g>
</svg>
