<?xml version="1.0" encoding="UTF-8" standalone="no"?>
<svg xmlns:ffdec="https://www.free-decompiler.com/flash" xmlns:xlink="http://www.w3.org/1999/xlink" ffdec:objectType="shape" height="86.15px" width="93.05px" xmlns="http://www.w3.org/2000/svg">
  <g transform="matrix(1.0, 0.0, 0.0, 1.0, 46.55, 43.1)">
    <path d="M9.4 -3.9 L9.45 -3.95 9.25 -4.05 10.1 -4.7 11.25 -5.8 11.8 -5.3 11.9 -5.3 13.5 -3.8 17.0 0.2 19.7 3.4 Q21.65 5.35 24.7 6.5 27.8 7.7 29.35 9.25 30.6 10.6 31.0 11.5 31.4 12.3 31.25 13.15 L31.2 13.2 31.3 13.3 Q31.6 13.6 31.35 14.55 L30.95 15.45 Q29.65 18.15 25.6 22.2 L25.5 22.3 25.4 22.3 Q22.95 24.85 19.9 27.0 L19.05 27.45 18.95 27.45 18.8 27.6 Q17.95 28.45 16.35 28.15 15.1 27.8 14.25 27.15 L16.25 25.95 16.8 25.6 Q19.7 23.8 21.55 21.85 24.85 18.55 25.3 15.7 25.65 13.15 23.75 11.25 L21.2 9.2 18.55 7.05 16.9 5.1 15.0 2.4 11.65 -2.05 9.7 -3.7 9.4 -3.9 M26.8 23.6 L26.7 23.6 28.35 22.15 29.1 21.5 29.7 21.0 30.75 19.95 33.8 16.2 34.95 17.35 37.9 20.7 42.2 26.1 42.35 26.45 42.6 26.8 42.5 26.9 41.95 28.25 40.5 30.3 40.25 30.65 40.2 30.6 Q39.7 30.1 39.3 30.7 L39.2 31.3 38.65 32.25 38.3 32.6 37.8 33.1 37.45 33.55 37.45 33.85 37.25 33.65 37.2 33.6 34.8 31.4 26.8 23.6" fill="#fb8815" fill-rule="evenodd" stroke="none"/>
    <path d="M9.25 -4.05 L9.45 -3.95 9.4 -3.9 8.8 -3.3 6.9 -1.3 11.35 2.75 Q15.65 7.05 16.75 11.05 17.9 15.3 15.2 18.5 L14.65 19.05 Q13.8 19.9 12.8 20.4 L10.9 20.9 9.8 21.0 8.85 18.85 Q6.0 13.3 2.75 10.05 L1.5 8.9 0.75 7.75 -0.2 7.0 -0.85 6.1 0.0 4.9 1.4 3.4 1.5 3.3 1.95 2.75 5.25 -0.45 5.2 -0.5 5.4 -0.65 5.65 -0.85 7.8 -2.8 9.25 -4.05 M12.0 10.5 L12.0 10.4 9.9 9.5 Q8.1 8.7 7.2 7.8 L7.15 7.75 6.9 7.6 6.0 6.8 5.5 6.5 5.3 6.3 5.15 6.15 4.7 5.8 4.3 5.6 2.5 5.7 2.35 5.75 2.0 6.2 3.5 7.4 Q5.0 8.9 6.4 12.4 L6.55 13.55 Q6.55 14.35 7.2 15.0 8.3 16.1 9.6 16.3 10.95 16.55 12.0 15.5 L12.45 14.65 12.75 13.35 12.75 12.05 12.4 11.0 12.0 10.5 M-30.6 -27.1 L-27.95 -30.05 Q-23.15 -34.85 -19.1 -37.4 L-18.3 -37.8 -17.8 -37.3 -17.85 -37.25 Q-18.6 -37.6 -19.35 -36.85 L-19.7 -36.3 Q-20.75 -35.65 -23.2 -33.2 L-24.25 -31.55 -24.5 -31.5 -24.75 -30.95 -24.75 -30.75 -25.0 -30.7 -28.15 -28.75 -30.6 -27.1 M-16.85 -21.55 L-18.6 -20.2 -19.95 -19.15 -22.1 -17.2 -23.3 -18.7 -23.6 -19.2 Q-24.35 -19.95 -25.9 -19.2 L-26.05 -19.05 -26.4 -19.4 -26.65 -19.75 -26.75 -19.75 -30.15 -23.55 -30.2 -23.3 -31.7 -25.1 -31.8 -25.2 -31.75 -25.25 -26.95 -28.25 Q-25.1 -29.4 -24.45 -28.75 L-24.25 -28.45 -23.45 -28.05 -22.7 -27.4 Q-21.6 -26.6 -19.75 -24.45 L-17.5 -22.3 -16.85 -21.55" fill="#ffcc00" fill-rule="evenodd" stroke="none"/>
    <path d="M9.4 -3.9 L9.7 -3.7 11.65 -2.05 15.0 2.4 16.9 5.1 18.55 7.05 21.2 9.2 23.75 11.25 Q25.65 13.15 25.3 15.7 24.85 18.55 21.55 21.85 19.7 23.8 16.8 25.6 L16.25 25.95 14.25 27.15 13.85 26.75 Q12.05 24.95 9.8 21.0 L10.9 20.9 12.8 20.4 Q13.8 19.9 14.65 19.05 L15.2 18.5 Q17.9 15.3 16.75 11.05 15.65 7.05 11.35 2.75 L6.9 -1.3 8.8 -3.3 9.4 -3.9 M26.8 23.6 L34.8 31.4 37.2 33.6 37.25 33.65 37.45 33.85 37.45 33.55 37.8 33.1 38.3 32.6 38.65 32.25 39.2 31.3 39.3 30.7 Q39.7 30.1 40.2 30.6 L40.25 30.65 40.5 30.3 41.95 28.25 42.5 26.9 42.6 26.8 42.85 27.15 Q43.15 27.65 42.45 28.55 L40.7 31.5 39.9 32.5 39.55 32.85 39.45 33.05 39.1 33.4 39.0 33.4 37.9 35.3 36.65 36.45 35.3 37.6 32.75 38.75 Q32.95 38.35 32.5 37.6 L31.85 36.75 30.4 35.5 29.1 34.4 26.25 32.15 23.05 28.75 Q22.25 28.15 21.4 28.1 L22.55 27.35 24.7 25.5 25.7 24.6 26.8 23.6" fill="#fae414" fill-rule="evenodd" stroke="none"/>
    <path d="M10.2 -38.9 L17.5 -37.3 19.7 -36.8 20.8 -30.9 Q21.2 -28.7 22.75 -23.45 L24.6 -15.9 25.4 -12.6 25.4 -12.4 25.35 -12.45 25.3 -12.3 25.25 -12.05 19.8 -13.3 19.5 -13.0 18.8 -14.0 13.65 -8.45 13.75 -8.35 14.05 -7.95 14.45 -7.65 15.65 -6.45 18.95 -2.65 20.75 -0.55 Q22.15 0.85 26.15 2.45 29.5 3.7 31.9 5.8 L32.35 6.05 32.65 6.65 Q33.75 7.75 34.9 9.7 35.6 10.8 36.0 12.2 L36.2 13.1 36.65 13.55 36.7 13.5 43.3 21.9 45.3 25.0 45.85 25.85 Q46.55 27.05 46.5 27.6 46.45 28.55 45.75 29.85 L44.75 31.65 44.15 32.35 40.85 36.45 39.95 37.85 38.9 39.2 Q38.1 40.0 35.05 41.35 L31.8 42.7 29.4 42.6 27.9 41.4 23.25 37.35 22.1 36.4 20.65 34.75 19.05 33.35 18.35 32.75 Q17.25 32.75 14.85 31.75 11.65 30.45 10.35 29.15 7.55 26.35 5.7 21.1 L5.5 20.3 Q3.65 15.45 0.9 12.7 L0.1 12.1 0.15 11.85 0.1 11.8 -2.1 9.05 -2.3 10.6 -2.85 12.95 -3.55 15.15 -5.35 20.85 -5.2 21.2 -5.85 22.45 -6.4 24.6 -6.95 25.15 -7.3 26.5 Q-7.95 28.05 -9.3 30.1 L-9.9 29.6 -10.0 29.8 -10.4 29.7 -10.9 30.2 -18.25 29.85 -25.4 29.1 -25.75 28.65 -25.95 28.85 -44.65 9.95 -44.45 9.75 Q-44.4 9.7 -44.5 9.6 L-45.25 2.85 -45.95 -3.75 -46.3 -5.3 -46.35 -5.35 -46.4 -6.5 -46.55 -7.65 -44.1 -10.4 -42.7 -10.8 -35.9 -12.2 -29.75 -14.35 -26.9 -15.2 -26.25 -15.05 -25.7 -15.25 -26.1 -15.6 -26.7 -16.3 -26.8 -16.3 -29.15 -15.95 Q-29.45 -15.85 -30.15 -16.35 L-30.05 -16.45 -30.9 -17.3 -31.05 -17.45 -32.25 -18.95 -34.0 -21.3 -35.85 -23.55 -36.9 -24.9 -36.85 -25.15 -32.95 -29.85 -27.05 -36.15 -22.4 -40.0 Q-19.3 -42.2 -17.9 -42.7 L-16.9 -43.1 -18.55 -42.15 -17.65 -42.45 -17.05 -42.65 -14.55 -40.15 -13.65 -39.65 -13.2 -39.2 -9.4 -35.0 -9.35 -34.85 -9.35 -34.65 Q-9.55 -34.05 -9.15 -33.55 L-8.0 -32.3 -6.8 -31.2 -2.65 -35.45 -2.65 -35.55 -3.55 -35.95 -3.2 -36.4 -3.05 -36.85 -3.2 -37.6 -3.35 -38.35 -3.55 -39.05 -3.95 -40.55 -4.1 -41.6 2.45 -40.25 10.2 -38.9 M0.55 -36.55 L0.4 -36.2 0.5 -36.1 1.05 -35.85 7.1 -31.9 Q11.6 -28.8 15.3 -23.5 L17.75 -19.85 20.2 -16.3 21.45 -16.15 16.85 -33.05 -0.05 -37.65 0.15 -36.65 0.55 -36.55 M8.05 -29.55 L7.0 -30.6 6.95 -30.55 Q3.8 -33.1 0.4 -35.1 L-0.1 -34.6 -0.35 -32.65 -0.4 -32.7 -0.45 -32.45 -11.35 -21.55 -11.25 -21.45 -11.25 -21.25 -12.55 -20.05 -15.1 -17.7 Q-17.15 -15.65 -17.05 -15.35 L-17.75 -14.75 -17.6 -14.6 -18.0 -14.1 Q-18.5 -13.6 -20.35 -12.95 L-20.95 -12.75 -21.25 -12.75 -22.45 -12.35 -23.7 -12.0 -24.1 -12.0 -28.75 -10.85 -30.95 -10.35 -31.35 -10.05 -34.5 -9.3 -36.75 -8.65 -36.95 -8.65 -38.4 -8.4 -41.2 -7.3 -37.3 -6.8 -31.45 -5.75 -29.9 -5.6 -29.7 -5.4 -28.9 -5.2 -14.25 9.35 -11.85 11.85 -10.9 12.9 -10.85 13.15 -10.95 13.25 Q-10.75 13.75 -10.7 14.6 -10.3 16.1 -9.95 18.75 L-9.35 24.35 -8.3 20.6 -6.5 14.7 -6.0 12.8 -5.3 10.4 -5.1 9.4 -4.35 6.75 -4.15 6.05 -3.5 4.95 -3.15 4.45 3.25 -2.25 7.8 -7.0 9.75 -8.75 11.35 -10.55 11.3 -10.6 15.7 -15.1 16.05 -15.05 Q16.8 -14.8 17.4 -15.4 L17.45 -15.45 17.6 -15.4 17.75 -15.35 18.2 -15.9 19.0 -16.6 17.5 -18.9 15.9 -21.0 Q12.35 -25.85 8.05 -29.55 M19.45 -36.35 L19.4 -36.5 19.1 -36.5 19.45 -36.35 M14.25 27.15 Q15.1 27.8 16.35 28.15 17.95 28.45 18.8 27.6 L18.95 27.45 19.05 27.45 19.9 27.0 Q22.95 24.85 25.4 22.3 L25.5 22.3 25.6 22.2 Q29.65 18.15 30.95 15.45 L31.35 14.55 Q31.6 13.6 31.3 13.3 L31.2 13.2 31.25 13.15 Q31.4 12.3 31.0 11.5 30.6 10.6 29.35 9.25 27.8 7.7 24.7 6.5 21.65 5.35 19.7 3.4 L17.0 0.2 13.5 -3.8 11.9 -5.3 11.8 -5.3 11.25 -5.8 10.1 -4.7 9.25 -4.05 7.8 -2.8 7.6 -2.9 5.6 -0.9 5.4 -0.65 5.2 -0.5 5.25 -0.45 1.95 2.75 1.35 3.25 1.5 3.3 1.4 3.4 1.3 3.3 0.1 4.6 0.25 4.55 -0.05 4.85 0.0 4.9 -0.85 6.1 -0.2 7.0 0.75 7.75 1.5 8.9 2.75 10.05 Q6.0 13.3 8.85 18.85 L9.8 21.0 Q12.05 24.95 13.85 26.75 L14.25 27.15 M42.6 26.8 L42.35 26.45 42.2 26.1 37.9 20.7 34.95 17.35 33.8 16.2 30.75 19.95 29.7 21.0 29.1 21.5 28.35 22.15 26.7 23.6 26.8 23.6 25.7 24.6 24.7 25.5 22.55 27.35 21.4 28.1 Q20.5 28.0 19.55 28.95 18.8 29.7 21.3 32.1 L26.3 36.4 26.5 36.5 Q29.25 38.65 30.7 39.1 L31.1 39.2 32.75 38.95 32.75 38.75 35.3 37.6 36.65 36.45 37.9 35.3 39.0 33.4 39.1 33.4 39.45 33.05 39.55 32.85 39.9 32.5 40.7 31.5 42.45 28.55 Q43.15 27.65 42.85 27.15 L42.6 26.8 M-42.4 -4.4 L-42.3 -3.1 -42.2 0.9 -41.7 4.7 -41.4 6.9 Q-41.05 7.95 -41.5 8.6 L-41.1 9.1 -41.05 9.45 -39.45 11.05 -24.5 26.0 -18.45 26.65 -12.1 27.1 -12.4 24.1 -12.4 21.3 -12.65 20.55 -12.95 16.85 Q-13.3 14.9 -14.05 14.05 L-13.95 13.95 -21.8 6.1 Q-27.25 0.95 -31.2 -2.3 L-31.25 -2.45 Q-32.5 -3.0 -34.8 -3.3 L-38.9 -3.9 -42.4 -4.4 M-17.85 -37.25 L-17.8 -37.3 -18.3 -37.8 -19.1 -37.4 Q-23.15 -34.85 -27.95 -30.05 L-30.6 -27.1 Q-31.4 -26.2 -31.8 -25.3 L-31.8 -25.2 -31.7 -25.1 -30.2 -23.3 -30.15 -23.55 -26.75 -19.75 -26.65 -19.75 -26.4 -19.4 -26.05 -19.05 -25.9 -19.2 Q-24.35 -19.95 -23.6 -19.2 L-23.3 -18.7 -22.1 -17.2 -19.95 -19.15 -18.6 -20.2 -16.85 -21.55 -16.55 -21.95 -16.45 -22.05 -15.65 -22.95 -14.7 -24.0 -11.8 -26.8 -11.35 -27.25 -13.65 -29.55 -13.7 -30.0 Q-14.1 -30.8 -13.9 -31.2 L-13.85 -31.35 -13.8 -32.1 -13.75 -32.55 -13.8 -32.8 -13.9 -32.9 Q-14.9 -34.6 -16.3 -35.9 L-17.65 -37.15 -17.85 -37.25 M-24.75 -30.75 L-24.75 -30.95 -24.65 -30.85 -24.75 -30.75" fill="#000000" fill-rule="evenodd" stroke="none"/>
    <path d="M32.75 38.75 L32.75 38.95 31.1 39.2 30.7 39.1 Q29.25 38.65 26.5 36.5 L26.3 36.4 21.3 32.1 Q18.8 29.7 19.55 28.95 20.5 28.0 21.4 28.1 22.25 28.15 23.05 28.75 L26.25 32.15 29.1 34.4 30.4 35.5 31.85 36.75 32.5 37.6 Q32.95 38.35 32.75 38.75 M12.0 10.5 L12.4 11.0 12.75 12.05 12.75 13.35 12.45 14.65 12.0 15.5 Q10.95 16.55 9.6 16.3 8.3 16.1 7.2 15.0 6.55 14.35 6.55 13.55 L6.4 12.4 Q5.0 8.9 3.5 7.4 L2.0 6.2 2.35 5.75 2.5 5.7 4.3 5.6 4.7 5.8 5.15 6.15 5.3 6.3 5.5 6.5 6.0 6.8 6.9 7.6 7.15 7.75 7.2 7.8 Q8.1 8.7 9.9 9.5 L12.0 10.4 12.0 10.5 M-16.45 -22.05 L-16.55 -21.95 -16.85 -21.55 -17.5 -22.3 -19.75 -24.45 Q-21.6 -26.6 -22.7 -27.4 L-23.45 -28.05 -24.25 -28.45 -24.45 -28.75 Q-25.1 -29.4 -26.95 -28.25 L-31.75 -25.25 -31.8 -25.2 -31.8 -25.3 Q-31.4 -26.2 -30.6 -27.1 L-28.15 -28.75 -25.0 -30.7 -24.75 -30.75 -24.65 -30.85 Q-24.25 -30.95 -23.9 -30.4 L-23.25 -29.75 -23.1 -29.5 -22.55 -28.85 -16.45 -22.05" fill="#ffffff" fill-rule="evenodd" stroke="none"/>
    <path d="M-17.85 -37.25 L-17.65 -37.15 -16.3 -35.9 Q-14.9 -34.6 -13.9 -32.9 L-13.8 -32.8 -13.75 -32.55 -13.8 -32.1 -13.85 -31.35 -13.9 -31.2 Q-14.1 -30.8 -13.7 -30.0 L-13.65 -29.55 -11.35 -27.25 -11.8 -26.8 -14.7 -24.0 -15.65 -22.95 -16.45 -22.05 -22.55 -28.85 -23.1 -29.5 -23.25 -29.75 -23.9 -30.4 Q-24.25 -30.95 -24.65 -30.85 L-24.75 -30.95 -24.5 -31.5 -24.25 -31.55 -23.2 -33.2 Q-20.75 -35.65 -19.7 -36.3 L-19.35 -36.85 Q-18.6 -37.6 -17.85 -37.25" fill="#ff9900" fill-rule="evenodd" stroke="none"/>
    <path d="M0.55 -36.55 L0.15 -36.65 -0.05 -37.65 16.85 -33.05 21.45 -16.15 20.2 -16.3 17.75 -19.85 15.3 -23.5 Q11.6 -28.8 7.1 -31.9 L1.05 -35.85 0.5 -36.1 0.4 -36.2 0.55 -36.55" fill="url(#gradient0)" fill-rule="evenodd" stroke="none"/>
    <path d="M6.95 -30.55 L7.0 -30.6 8.05 -29.55 -11.85 -9.55 -12.85 -8.65 -13.0 -8.6 -29.7 -5.4 -29.9 -5.6 -31.45 -5.75 -14.75 -9.25 -23.7 -12.0 -22.45 -12.35 -21.25 -12.75 -20.95 -12.75 -20.35 -12.95 -13.5 -10.9 6.95 -30.55" fill="#d9d9d9" fill-rule="evenodd" stroke="none"/>
    <path d="M6.95 -30.55 L-13.5 -10.9 -20.35 -12.95 Q-18.5 -13.6 -18.0 -14.1 L-17.6 -14.6 -17.75 -14.75 -17.05 -15.35 Q-17.15 -15.65 -15.1 -17.7 L-12.55 -20.05 -11.25 -21.25 -11.25 -21.45 -11.35 -21.55 -0.45 -32.45 -0.4 -32.7 -0.35 -32.65 -0.1 -34.6 0.4 -35.1 Q3.8 -33.1 6.95 -30.55" fill="#6f6f6f" fill-rule="evenodd" stroke="none"/>
    <path d="M15.9 -21.0 L17.5 -18.9 19.0 -16.6 18.2 -15.9 17.75 -15.35 17.6 -15.4 17.45 -15.45 17.4 -15.4 Q16.8 -14.8 16.05 -15.05 L15.7 -15.1 15.05 -15.55 Q14.0 -16.6 15.05 -17.75 14.8 -18.1 16.6 -20.0 L-3.1 -0.9 -3.15 4.45 -3.5 4.95 -4.15 6.05 -4.35 6.75 -5.1 9.4 -5.3 10.4 -5.05 0.55 -10.7 14.6 Q-10.75 13.75 -10.95 13.25 L-10.85 13.15 -10.9 12.9 -11.85 11.85 -5.05 -0.85 -4.1 -1.8 15.9 -21.0" fill="#2b2b2b" fill-rule="evenodd" stroke="none"/>
    <path d="M15.7 -15.1 L11.3 -10.6 11.35 -10.55 9.75 -8.75 7.8 -7.0 3.25 -2.25 -3.15 4.45 -3.1 -0.9 16.6 -20.0 Q14.8 -18.1 15.05 -17.75 14.0 -16.6 15.05 -15.55 L15.7 -15.1" fill="#3c3c3c" fill-rule="evenodd" stroke="none"/>
    <path d="M5.65 -0.85 L5.4 -0.65 5.6 -0.9 5.65 -0.85" fill="#555555" fill-rule="evenodd" stroke="none"/>
    <path d="M-5.3 10.4 L-6.0 12.8 -6.5 14.7 -8.3 20.6 -9.35 24.35 -9.95 18.75 Q-10.3 16.1 -10.7 14.6 L-5.05 0.55 -5.3 10.4 M7.8 -2.8 L5.65 -0.85 5.6 -0.9 7.6 -2.9 7.8 -2.8" fill="#484848" fill-rule="evenodd" stroke="none"/>
    <path d="M-11.85 -9.55 L8.05 -29.55 Q12.35 -25.85 15.9 -21.0 L-4.1 -1.8 -11.85 -9.55 M1.95 2.75 L1.5 3.3 1.35 3.25 1.95 2.75" fill="#666666" fill-rule="evenodd" stroke="none"/>
    <path d="M-42.4 -4.4 L-38.9 -3.9 -34.8 -3.3 Q-32.5 -3.0 -31.25 -2.45 L-31.2 -2.3 Q-27.25 0.95 -21.8 6.1 L-13.95 13.95 -14.05 14.05 Q-13.3 14.9 -12.95 16.85 L-12.65 20.55 -12.4 21.3 -12.4 24.1 -12.1 27.1 -18.45 26.65 -24.5 26.0 -39.45 11.05 -41.05 9.45 -41.1 9.1 -41.5 8.6 Q-41.05 7.95 -41.4 6.9 L-41.7 4.7 -42.2 0.9 -42.3 -3.1 -42.4 -4.4" fill="url(#gradient1)" fill-rule="evenodd" stroke="none"/>
    <path d="M-23.7 -12.0 L-14.75 -9.25 -31.45 -5.75 -37.3 -6.8 -41.2 -7.3 -38.4 -8.4 -36.95 -8.65 -36.75 -8.65 -34.5 -9.3 -31.35 -10.05 -30.95 -10.35 -28.75 -10.85 -24.1 -12.0 -23.7 -12.0" fill="#848484" fill-rule="evenodd" stroke="none"/>
    <path d="M-29.7 -5.4 L-13.0 -8.6 -12.9 -8.5 -12.85 -8.65 -5.05 -0.85 -11.85 11.85 -14.25 9.35 -28.9 -5.2 -29.7 -5.4" fill="#404040" fill-rule="evenodd" stroke="none"/>
    <path d="M-12.85 -8.65 L-11.85 -9.55 -4.1 -1.8 -5.05 -0.85 -12.85 -8.65" fill="#a6a6a6" fill-rule="evenodd" stroke="none"/>
    <path d="M1.4 3.4 L0.0 4.9 -0.05 4.85 0.25 4.55 0.1 4.6 1.3 3.3 1.4 3.4" fill="#7b7b7b" fill-rule="evenodd" stroke="none"/>
  </g>
  <defs>
    <radialGradient cx="0" cy="0" gradientTransform="matrix(-0.0102, 0.0102, 0.0163, 0.0163, 3.6, -35.9)" gradientUnits="userSpaceOnUse" id="gradient0" r="819.2" spreadMethod="pad">
      <stop offset="0.5058823529411764" stop-color="#cccccc"/>
      <stop offset="0.8352941176470589" stop-color="#484848"/>
    </radialGradient>
    <radialGradient cx="0" cy="0" gradientTransform="matrix(-0.0224, 0.0224, 0.0339, 0.034, -34.0, 15.3)" gradientUnits="userSpaceOnUse" id="gradient1" r="819.2" spreadMethod="pad">
      <stop offset="0.5058823529411764" stop-color="#cccccc"/>
      <stop offset="0.8352941176470589" stop-color="#484848"/>
    </radialGradient>
  </defs>
</svg>
