<?xml version="1.0" encoding="UTF-8" standalone="no"?>
<svg xmlns:ffdec="https://www.free-decompiler.com/flash" xmlns:xlink="http://www.w3.org/1999/xlink" ffdec:objectType="shape" height="78.0px" width="83.8px" xmlns="http://www.w3.org/2000/svg">
  <g transform="matrix(1.0, 0.0, 0.0, 1.0, 41.9, 39.0)">
    <path d="M4.9 -39.0 L7.1 -38.7 8.4 -38.5 9.15 -37.75 9.6 -37.9 9.45 -37.45 19.6 -26.9 21.85 -24.55 24.65 -21.85 Q27.2 -19.1 27.05 -18.05 L27.2 -17.9 27.45 -17.15 27.35 -17.05 27.1 -14.6 26.9 -11.5 Q25.95 -10.55 23.05 -8.85 20.25 -7.25 16.95 -3.95 L14.65 -1.65 15.1 -1.1 27.0 11.0 27.5 10.7 31.3 10.8 34.2 13.7 35.35 14.85 37.45 17.05 39.05 18.85 Q39.55 19.35 39.4 20.4 39.1 21.3 38.4 22.2 L41.0 26.3 Q42.9 30.8 40.7 33.8 39.6 36.3 36.95 37.55 L36.0 37.9 Q33.7 39.3 32.1 38.9 30.15 38.45 24.75 33.05 22.9 34.7 21.55 34.15 21.3 34.1 20.1 32.9 L15.2 27.5 12.35 24.95 Q11.9 24.5 12.8 22.0 L13.3 20.9 8.7 16.3 4.6 11.8 2.8 14.7 0.2 19.6 -0.7 19.8 -5.75 21.15 -6.6 21.4 -13.7 21.4 -22.05 22.05 -22.6 21.6 -24.2 20.3 -28.75 15.75 -41.45 3.05 -41.4 2.7 -41.7 -0.1 Q-41.7 -1.1 -41.85 -1.95 L-41.65 -2.85 -41.9 -4.5 Q-41.75 -5.15 -39.5 -7.2 L-37.85 -8.55 -28.15 -17.35 -28.35 -17.55 Q-29.3 -18.5 -28.65 -19.15 L-28.4 -19.8 Q-25.3 -23.2 -23.25 -27.95 L-22.55 -29.75 -21.55 -30.15 -18.0 -30.4 Q-17.85 -31.55 -16.6 -33.7 -15.65 -35.35 -14.55 -36.25 L-13.2 -36.4 -6.7 -37.5 0.8 -38.3 4.9 -39.0 M10.55 -30.85 Q7.65 -34.15 7.0 -35.2 L3.95 -35.55 3.65 -35.5 3.6 -35.4 2.4 -35.2 2.4 -35.5 -9.15 -33.65 -11.75 -33.65 -16.15 -27.05 -13.3 -27.3 -13.05 -27.45 -12.95 -27.15 -12.55 -26.95 -12.5 -26.9 -12.2 -26.4 -11.15 -25.35 -10.4 -24.4 -9.55 -23.35 -9.25 -22.95 -9.4 -22.9 -11.8 -19.2 Q-13.45 -16.75 -14.25 -15.85 L-14.45 -15.75 -14.65 -15.75 -14.7 -15.8 -15.45 -15.65 -20.45 -15.25 -21.65 -15.35 -22.1 -15.8 -21.95 -15.85 -22.05 -15.95 -23.4 -17.1 -38.05 -4.15 -30.8 -4.9 -24.35 -5.25 -23.85 -5.65 -22.85 -5.15 -23.0 -5.1 -23.1 -5.1 -22.95 -5.05 -19.55 -1.85 Q-17.15 0.35 -14.5 3.3 L-11.75 6.45 -10.15 8.15 -2.05 16.75 -2.0 16.1 Q-1.9 15.4 -1.5 15.2 L7.1 1.3 Q11.95 -4.35 17.55 -9.25 21.55 -12.65 23.4 -13.3 L23.95 -13.65 Q23.9 -14.9 24.65 -16.75 L24.7 -16.8 20.1 -21.0 17.55 -23.45 15.85 -25.35 14.15 -27.05 10.55 -30.85 M21.75 10.25 L20.45 8.95 18.25 6.75 16.1 4.5 15.85 4.25 14.4 2.9 12.7 1.4 12.9 1.1 10.95 -0.35 8.55 2.25 8.2 2.8 6.55 5.25 5.2 7.3 5.3 7.4 6.6 8.7 6.65 8.75 7.6 9.8 8.5 11.2 8.4 11.2 9.3 12.3 10.95 14.05 11.55 14.65 15.2 18.4 16.75 19.85 17.45 20.65 18.3 21.4 Q19.35 21.15 21.2 19.5 L22.35 18.35 22.95 17.75 24.05 16.65 25.15 15.05 25.55 14.05 21.75 10.25 M21.75 28.85 L22.0 28.9 23.65 29.15 25.4 29.1 25.45 29.05 26.05 28.95 27.05 28.65 28.15 28.25 Q29.2 27.5 29.6 27.4 L29.95 27.15 30.35 26.55 30.9 25.7 31.65 24.65 31.8 24.6 32.6 23.3 33.15 22.35 33.3 21.9 34.95 19.55 34.85 19.45 34.35 18.45 33.9 17.9 32.2 15.9 32.05 15.75 30.8 14.8 30.15 14.55 29.8 14.4 29.55 14.35 29.45 14.05 27.45 14.25 27.45 14.55 Q26.9 14.6 26.65 14.85 L25.5 17.0 Q24.55 18.95 23.75 19.75 23.15 20.35 21.65 21.05 20.15 21.75 19.85 22.05 18.4 23.5 18.55 25.35 18.8 26.8 19.65 27.65 L20.7 28.4 21.75 28.85 M36.3 25.5 L35.75 24.75 35.25 23.95 35.1 23.8 35.0 24.1 33.85 25.75 33.05 26.85 32.2 27.8 32.05 28.05 31.95 28.05 29.55 30.25 27.95 30.95 27.45 31.15 27.55 31.25 28.05 31.05 28.85 31.95 29.55 32.55 30.75 34.45 32.25 35.55 32.75 35.95 36.15 35.25 37.3 34.6 37.55 34.45 38.3 33.6 38.6 32.7 38.7 32.6 38.9 32.0 39.15 29.55 39.05 29.45 38.05 27.95 38.3 27.7 38.0 27.4 36.3 25.5 M4.7 8.1 L4.7 8.0 4.55 8.15 4.7 8.1 M-13.85 -26.45 L-13.75 -26.65 -16.6 -26.4 -16.85 -26.45 -20.25 -26.15 -24.3 -19.9 -24.6 -19.7 Q-24.85 -19.45 -24.6 -19.2 L-24.25 -19.05 -23.95 -18.75 -23.9 -18.8 -23.7 -18.6 -23.5 -18.2 -23.6 -18.2 -23.6 -18.1 -20.9 -15.7 -15.0 -16.3 -14.6 -16.3 -10.0 -22.7 -10.3 -22.6 -9.95 -22.95 -13.1 -26.8 -13.3 -26.5 -13.85 -26.45 M-38.95 -3.15 L-38.7 -0.8 -38.85 -0.35 Q-38.7 0.2 -36.3 0.0 L-25.0 -1.4 -24.9 -1.2 -24.85 -1.15 Q-23.1 0.3 -20.75 3.05 L-8.4 16.1 -8.8 16.3 -9.8 16.3 -21.7 17.0 -21.0 17.9 -19.95 18.15 -19.6 18.4 -3.1 17.5 -10.95 9.45 -13.0 7.0 -15.45 4.15 -20.9 -1.6 -23.95 -4.45 -24.05 -4.45 -38.95 -3.15 M-25.65 -0.55 L-26.85 -0.25 -37.05 1.15 -36.5 1.7 -35.8 2.7 -29.45 9.55 -22.5 16.0 -22.05 16.05 -21.65 15.85 -16.4 15.6 Q-11.6 15.4 -10.15 15.65 L-25.65 -0.55" fill="#000000" fill-rule="evenodd" stroke="none"/>
    <path d="M-21.05 -7.75 L-22.35 -6.55 -22.35 -6.45 -22.9 -6.3 -23.85 -5.65 -24.35 -5.25 -30.8 -4.9 -38.05 -4.15 -23.4 -17.1 -22.05 -15.95 -22.1 -15.8 -21.65 -15.35 -20.45 -15.25 -15.45 -15.65 -14.7 -15.8 -14.65 -15.75 -14.45 -15.75 -14.25 -15.85 Q-13.45 -16.75 -11.8 -19.2 L-9.4 -22.9 -9.25 -22.95 -9.55 -23.35 -10.4 -24.4 -11.15 -25.35 -12.2 -26.4 -12.5 -26.9 -12.55 -26.95 -12.95 -27.15 -13.05 -27.45 -13.3 -27.3 -16.15 -27.05 -11.75 -33.65 -9.15 -33.65 2.4 -35.5 2.4 -35.2 Q-0.5 -28.1 -7.3 -21.0 L-13.1 -15.2 -21.05 -7.75 M-24.25 -19.05 L-24.6 -19.2 Q-24.85 -19.45 -24.6 -19.7 L-24.3 -19.9 -20.25 -26.15 -16.85 -26.45 -16.6 -26.4 -13.75 -26.65 -13.85 -26.45 -14.6 -25.2 -15.05 -24.75 -18.35 -20.25 -18.6 -20.2 -18.2 -19.6 -18.35 -19.75 -18.65 -19.75 Q-18.9 -19.6 -19.2 -19.5 L-23.85 -19.15 -24.2 -19.1 -24.25 -19.05" fill="#a2a2a2" fill-rule="evenodd" stroke="none"/>
    <path d="M3.6 -35.4 Q3.55 -31.95 -6.45 -20.15 L-10.05 -16.05 -15.15 -10.75 -15.7 -10.2 -21.05 -7.75 -13.1 -15.2 -7.3 -21.0 Q-0.5 -28.1 2.4 -35.2 L3.6 -35.4 M-13.85 -26.45 L-13.3 -26.5 -14.4 -24.8 -14.45 -24.75 -15.65 -23.05 Q-17.15 -20.75 -18.1 -19.9 L-18.2 -19.6 -18.6 -20.2 -18.35 -20.25 -15.05 -24.75 -14.6 -25.2 -13.85 -26.45" fill="#c8c8c8" fill-rule="evenodd" stroke="none"/>
    <path d="M3.95 -35.55 L7.0 -35.2 Q7.65 -34.15 10.55 -30.85 L10.6 -29.0 Q10.55 -27.15 9.4 -24.8 L7.2 -20.7 6.3 -19.2 Q4.4 -16.3 1.5 -13.4 -3.55 -8.35 -10.45 -5.05 -15.8 -2.4 -19.55 -1.85 L-22.95 -5.05 -23.0 -5.1 -22.85 -5.15 -23.85 -5.65 -22.9 -6.3 -22.35 -6.45 -22.3 -6.5 -22.35 -6.55 -21.05 -7.75 -15.7 -10.2 -15.15 -10.75 -10.05 -16.05 -6.45 -20.15 Q3.55 -31.95 3.6 -35.4 L3.95 -35.55" fill="#848484" fill-rule="evenodd" stroke="none"/>
    <path d="M-19.55 -1.85 Q-15.8 -2.4 -10.45 -5.05 -3.55 -8.35 1.5 -13.4 4.4 -16.3 6.3 -19.2 L7.2 -20.7 9.4 -24.8 Q10.55 -27.15 10.6 -29.0 L10.55 -30.85 14.15 -27.05 15.85 -25.35 14.55 -22.65 14.55 -22.55 Q12.75 -19.55 8.25 -15.05 4.4 -11.2 -4.95 -4.25 L-14.5 3.3 Q-17.15 0.35 -19.55 -1.85" fill="#5f6160" fill-rule="evenodd" stroke="none"/>
    <path d="M15.85 -25.35 L17.55 -23.45 20.1 -21.0 14.75 -17.25 Q7.25 -11.95 1.7 -6.4 -4.8 0.1 -9.85 7.65 L-10.15 8.15 -11.75 6.45 -14.5 3.3 -4.95 -4.25 Q4.4 -11.2 8.25 -15.05 12.75 -19.55 14.55 -22.55 L14.55 -22.65 15.85 -25.35" fill="#e9e9e9" fill-rule="evenodd" stroke="none"/>
    <path d="M20.1 -21.0 L24.7 -16.8 24.65 -16.75 Q23.9 -14.9 23.95 -13.65 L23.4 -13.3 Q21.55 -12.65 17.55 -9.25 11.95 -4.35 7.1 1.3 L-1.5 15.2 Q-1.9 15.4 -2.0 16.1 L-2.05 16.75 -10.15 8.15 -9.85 7.65 Q-4.8 0.1 1.7 -6.4 7.25 -11.95 14.75 -17.25 L20.1 -21.0" fill="#c2c2c2" fill-rule="evenodd" stroke="none"/>
    <path d="M21.75 10.25 Q21.5 10.3 21.3 10.5 L19.35 11.55 15.65 13.55 Q14.3 14.4 11.55 14.65 L10.95 14.05 9.3 12.3 10.05 12.25 13.3 12.1 Q15.3 11.7 18.0 10.3 L19.25 9.65 20.45 8.95 21.75 10.25 M23.45 16.05 L24.05 16.65 22.95 17.75 22.35 18.35 21.2 19.5 17.45 20.65 16.75 19.85 15.2 18.4 18.45 17.75 Q21.3 17.0 23.45 16.05 M36.3 25.5 L38.0 27.4 Q36.2 28.9 33.65 30.15 L29.55 31.75 28.85 31.95 28.05 31.05 27.95 30.95 29.55 30.25 31.95 28.05 32.05 28.05 32.35 27.95 Q34.8 26.7 36.3 25.5 M14.4 2.9 L15.85 4.25 16.1 4.5 13.7 6.2 Q11.15 7.85 8.8 8.4 L6.65 8.75 6.6 8.7 5.3 7.4 5.2 7.3 6.55 5.25 9.35 4.85 11.5 4.3 14.4 2.9" fill="#a05001" fill-rule="evenodd" stroke="none"/>
    <path d="M19.35 11.55 L21.3 10.5 Q21.5 10.3 21.75 10.25 L25.55 14.05 25.15 15.05 24.05 16.65 23.45 16.05 19.35 11.55 M20.45 8.95 L19.25 9.65 18.0 10.3 13.7 6.2 16.1 4.5 18.25 6.75 20.45 8.95 M32.2 27.8 L33.05 26.85 33.85 25.75 35.0 24.1 35.1 23.8 35.25 23.95 35.75 24.75 36.3 25.5 Q34.8 26.7 32.35 27.95 L32.2 27.8 M38.0 27.4 L38.3 27.7 38.05 27.95 39.05 29.45 39.15 29.55 38.9 32.0 38.7 32.6 38.6 32.7 38.3 33.6 37.55 34.45 37.3 34.6 36.15 35.25 Q35.3 33.0 33.65 30.15 36.2 28.9 38.0 27.4 M14.4 2.9 L11.5 4.3 8.55 2.25 10.95 -0.35 12.9 1.1 12.7 1.4 14.4 2.9" fill="#563400" fill-rule="evenodd" stroke="none"/>
    <path d="M27.45 14.55 L27.45 14.25 29.45 14.05 29.55 14.35 29.8 14.4 30.15 14.55 30.8 14.8 32.05 15.75 32.2 15.9 33.9 17.9 34.35 18.45 34.85 19.45 34.95 19.55 33.3 21.9 33.15 22.35 32.6 23.3 31.8 24.6 31.65 24.65 30.9 25.7 30.35 26.55 29.95 27.15 29.6 27.4 Q29.2 27.5 28.15 28.25 L27.05 28.65 26.05 28.95 25.45 29.05 25.4 29.1 23.65 29.15 22.0 28.9 21.75 28.85 21.15 28.55 Q22.6 28.4 23.95 27.55 L24.15 27.45 25.4 26.4 Q27.55 24.55 28.05 21.65 L28.2 19.4 27.9 16.9 27.85 16.85 27.85 16.65 27.7 16.4 27.7 16.2 27.4 15.4 27.35 15.15 27.4 15.0 27.45 14.55" fill="#d36f00" fill-rule="evenodd" stroke="none"/>
    <path d="M27.45 14.55 L27.4 15.0 27.35 15.15 27.4 15.4 27.7 16.2 27.7 16.4 27.85 16.65 27.85 16.85 27.9 16.9 28.2 19.4 28.05 21.65 Q27.55 24.55 25.4 26.4 L24.15 27.45 23.95 27.55 Q22.6 28.4 21.15 28.55 L21.75 28.85 20.7 28.4 19.65 27.65 Q18.8 26.8 18.55 25.35 18.4 23.5 19.85 22.05 20.15 21.75 21.65 21.05 23.15 20.35 23.75 19.75 24.55 18.95 25.5 17.0 L26.65 14.85 Q26.9 14.6 27.45 14.55" fill="#ffcc00" fill-rule="evenodd" stroke="none"/>
    <path d="M18.0 10.3 Q15.3 11.7 13.3 12.1 L10.05 12.25 9.3 12.3 8.4 11.2 8.5 11.2 7.6 9.8 6.65 8.75 8.8 8.4 Q11.15 7.85 13.7 6.2 L18.0 10.3 M11.55 14.65 Q14.3 14.4 15.65 13.55 L19.35 11.55 23.45 16.05 Q21.3 17.0 18.45 17.75 L15.2 18.4 11.55 14.65 M36.15 35.25 L32.75 35.95 32.25 35.55 30.75 34.45 29.55 32.55 28.85 31.95 29.55 31.75 33.65 30.15 Q35.3 33.0 36.15 35.25 M28.05 31.05 L27.55 31.25 27.45 31.15 27.95 30.95 28.05 31.05 M32.05 28.05 L32.2 27.8 32.35 27.95 32.05 28.05 M8.55 2.25 L11.5 4.3 9.35 4.85 6.55 5.25 8.2 2.8 8.55 2.25 M21.2 19.5 Q19.35 21.15 18.3 21.4 L17.45 20.65 21.2 19.5" fill="#7b3d00" fill-rule="evenodd" stroke="none"/>
    <path d="M-13.3 -26.5 L-13.1 -26.8 -9.95 -22.95 -10.3 -22.6 -10.0 -22.7 -14.6 -16.3 -15.0 -16.3 -20.9 -15.7 -23.6 -18.1 -23.5 -18.2 -23.7 -18.6 -23.9 -18.8 -23.95 -18.75 -24.25 -19.05 -24.2 -19.1 -23.85 -19.15 -19.2 -19.5 Q-18.9 -19.6 -18.65 -19.75 L-18.35 -19.75 -18.2 -19.6 -18.1 -19.9 Q-17.15 -20.75 -15.65 -23.05 L-14.45 -24.75 -14.4 -24.8 -13.3 -26.5" fill="url(#gradient0)" fill-rule="evenodd" stroke="none"/>
    <path d="M-38.95 -3.15 L-24.05 -4.45 -23.95 -4.45 -20.9 -1.6 -15.45 4.15 -13.0 7.0 -10.95 9.45 -3.1 17.5 -19.6 18.4 -19.95 18.15 -21.0 17.9 -21.7 17.0 -9.8 16.3 -8.8 16.3 -8.4 16.1 -20.75 3.05 Q-23.1 0.3 -24.85 -1.15 L-24.9 -1.2 -25.0 -1.4 -36.3 0.0 Q-38.7 0.2 -38.85 -0.35 L-38.7 -0.8 -38.95 -3.15" fill="url(#gradient1)" fill-rule="evenodd" stroke="none"/>
    <path d="M-25.65 -0.55 L-10.15 15.65 Q-11.6 15.4 -16.4 15.6 L-21.65 15.85 -22.05 16.05 -22.5 16.0 -29.45 9.55 -35.8 2.7 -36.5 1.7 -37.05 1.15 -26.85 -0.25 -25.65 -0.55" fill="url(#gradient2)" fill-rule="evenodd" stroke="none"/>
  </g>
  <defs>
    <linearGradient gradientTransform="matrix(0.0321, -0.0697, -0.0049, -0.0022, 103.25, -173.35)" gradientUnits="userSpaceOnUse" id="gradient0" spreadMethod="pad" x1="-819.2" x2="819.2">
      <stop offset="0.0" stop-color="#666666"/>
      <stop offset="1.0" stop-color="#000000"/>
    </linearGradient>
    <linearGradient color-interpolation="linearRGB" gradientTransform="matrix(-0.0405, -0.0318, -0.0045, 0.0057, 41.5, -39.9)" gradientUnits="userSpaceOnUse" id="gradient1" spreadMethod="pad" x1="-819.2" x2="819.2">
      <stop offset="0.0" stop-color="#ffffff"/>
      <stop offset="1.0" stop-color="#000000"/>
    </linearGradient>
    <linearGradient color-interpolation="linearRGB" gradientTransform="matrix(0.0357, 0.0352, 0.0045, -0.0046, 5.85, -59.55)" gradientUnits="userSpaceOnUse" id="gradient2" spreadMethod="pad" x1="-819.2" x2="819.2">
      <stop offset="0.0" stop-color="#ffffff"/>
      <stop offset="1.0" stop-color="#000000"/>
    </linearGradient>
  </defs>
</svg>
