<?xml version="1.0" encoding="UTF-8" standalone="no"?>
<svg xmlns:ffdec="https://www.free-decompiler.com/flash" xmlns:xlink="http://www.w3.org/1999/xlink" ffdec:objectType="shape" height="85.95px" width="100.1px" xmlns="http://www.w3.org/2000/svg">
  <g transform="matrix(1.0, 0.0, 0.0, 1.0, 49.5, 42.85)">
    <path d="M5.8 -35.1 L7.9 -36.3 Q9.15 -37.05 9.8 -36.9 L10.75 -34.55 11.95 -31.35 13.6 -27.95 Q14.2 -27.35 14.6 -27.3 L16.85 -27.65 17.3 -27.7 18.3 -27.4 18.35 -26.45 18.25 -25.85 Q18.05 -24.25 18.9 -22.7 L19.7 -20.2 19.85 -19.05 20.9 -18.1 Q21.4 -17.6 22.9 -16.6 L24.95 -15.15 25.45 -14.15 25.5 -13.9 26.0 -13.9 26.2 -13.5 Q26.3 -12.9 25.35 -11.95 L18.0 -4.8 Q16.55 -4.05 14.8 -2.1 L15.45 -2.75 15.55 -2.65 16.7 -1.5 19.2 0.7 Q19.7 1.1 21.1 1.1 L22.45 2.05 Q22.75 2.35 23.05 3.55 23.4 4.7 23.65 4.95 24.25 5.55 25.1 5.4 25.95 5.25 26.65 5.95 27.45 6.75 27.35 8.25 27.35 9.85 27.85 10.35 28.25 10.75 28.8 10.7 L30.35 10.55 31.2 10.9 32.15 11.45 Q32.55 11.85 32.6 13.2 32.7 14.5 33.15 14.95 L35.2 15.2 Q36.85 15.05 37.8 16.0 38.4 16.6 38.25 17.95 38.15 18.7 38.3 19.2 L38.75 19.55 39.5 19.7 40.65 19.55 45.2 19.2 Q45.55 19.25 46.9 20.6 L49.15 23.15 Q50.2 24.5 50.4 25.4 L50.6 27.1 Q50.55 28.95 49.2 30.6 49.35 31.15 48.8 31.7 47.65 32.85 44.25 33.65 L42.8 34.0 Q42.75 34.65 41.95 36.05 L41.05 38.05 39.8 40.4 Q39.4 40.8 37.5 41.3 L36.25 41.65 Q34.75 42.15 34.45 42.35 32.9 43.4 31.7 43.0 28.75 42.15 27.9 41.3 25.6 39.0 25.4 33.9 L25.4 31.8 24.95 31.9 Q24.55 31.65 23.65 31.35 22.45 31.05 21.9 30.5 L20.5 28.4 Q20.0 27.45 20.1 26.7 20.2 26.1 19.7 25.6 19.25 25.15 18.05 24.95 16.95 24.7 16.35 24.1 15.6 23.3 15.75 22.15 15.9 21.0 15.35 20.5 15.0 20.1 14.1 20.1 13.25 20.15 12.8 19.7 12.2 19.1 12.4 18.15 12.65 17.15 12.1 16.6 11.65 16.15 9.8 16.2 7.95 16.35 6.65 15.05 5.2 13.6 6.55 11.95 7.35 10.9 7.15 9.95 L6.6 9.7 5.15 8.05 -0.25 13.45 Q-0.7 13.9 -1.1 13.8 L-4.4 17.2 Q-4.25 17.65 -4.95 18.55 L-7.5 21.9 -9.45 24.75 -10.75 27.05 -11.1 27.65 -11.15 27.7 -11.5 28.3 Q-12.1 28.9 -12.7 28.3 L-14.5 28.7 -20.05 29.85 -24.4 31.05 -27.1 31.6 -27.3 31.8 Q-27.85 32.35 -28.7 31.6 L-29.75 30.55 -31.65 28.45 -33.45 26.15 Q-33.7 25.9 -34.0 25.8 L-35.1 26.8 -35.85 27.05 Q-36.25 27.15 -36.7 26.7 L-38.65 23.85 -39.0 22.9 -39.4 22.15 -40.15 20.55 -40.6 20.45 -41.1 19.9 -41.2 19.85 Q-43.85 17.15 -46.45 13.15 L-49.0 9.8 -49.5 9.2 Q-48.95 8.45 -48.95 6.65 L-49.1 4.4 -48.4 1.7 -48.35 1.25 -47.55 0.65 -44.05 -3.65 -41.7 -7.1 -36.4 -13.3 -36.0 -13.85 Q-33.75 -15.95 -34.95 -17.15 L-35.25 -17.45 -36.35 -18.55 -36.5 -18.7 -29.7 -27.9 -28.4 -30.0 Q-27.65 -31.35 -26.9 -32.1 L-23.85 -35.25 -22.2 -34.65 -20.2 -33.6 Q-19.45 -33.25 -17.95 -34.75 -11.45 -39.25 -8.25 -41.75 L-8.05 -42.35 -6.5 -42.3 -6.0 -41.8 -1.45 -39.45 Q0.15 -38.45 3.8 -36.5 L5.0 -35.5 5.8 -35.1 M14.9 -6.4 L15.4 -7.05 20.0 -12.2 20.35 -12.0 Q20.8 -12.0 21.0 -12.2 21.35 -12.55 21.3 -12.95 L21.2 -13.35 20.8 -14.0 18.6 -15.6 16.1 -17.5 14.3 -18.7 Q14.1 -19.7 14.95 -20.35 L16.35 -21.25 16.3 -21.7 15.45 -23.15 Q15.75 -23.65 15.15 -24.25 L15.0 -24.4 14.9 -24.5 13.9 -24.6 11.55 -23.75 10.15 -23.35 12.3 -24.8 12.75 -24.95 12.2 -25.5 10.4 -28.8 8.65 -31.95 7.9 -33.1 4.9 -30.7 Q3.1 -29.3 2.65 -29.55 L2.3 -29.9 2.25 -30.05 Q3.3 -31.7 4.5 -32.8 L3.4 -33.1 -1.65 -36.15 Q-4.6 -38.0 -7.1 -38.5 L-7.5 -38.5 Q-8.25 -38.45 -9.55 -37.35 L-11.0 -36.0 -12.4 -34.7 -13.6 -33.5 -14.05 -33.25 -17.55 -30.15 -19.25 -29.75 -19.25 -29.85 -19.9 -30.1 -20.6 -30.4 -22.65 -31.15 -24.4 -29.3 -27.2 -26.3 Q-28.05 -24.95 -28.85 -24.05 L-29.6 -23.0 -31.55 -20.25 -31.15 -19.65 -30.55 -18.55 -30.8 -17.1 Q-30.85 -16.45 -31.4 -15.9 L-38.25 -6.75 -44.6 1.75 -44.85 1.75 Q-44.7 2.0 -44.85 2.35 L-44.9 2.4 -45.25 2.95 -45.6 3.1 -46.1 4.0 -46.05 4.9 -46.3 6.9 -46.15 8.75 -45.3 10.1 Q-45.0 10.4 -44.1 10.4 L-38.7 17.8 -38.8 17.9 -38.95 17.95 -39.1 18.4 -38.95 19.15 -38.15 20.45 -36.3 22.8 -35.05 23.85 -34.2 24.2 -33.55 24.45 -33.15 24.35 Q-32.85 24.05 -33.1 22.85 L-33.45 21.55 -33.35 21.65 -32.5 22.2 -32.45 22.15 -32.3 22.3 -32.25 22.35 -31.3 23.2 -29.4 25.8 -27.65 27.75 Q-27.25 28.05 -26.45 28.15 L-25.25 27.75 -21.9 26.2 -18.25 25.65 -17.7 25.55 Q-14.8 24.9 -13.9 24.2 L-8.8 17.4 Q-2.65 9.65 3.5 4.3 L5.85 2.5 6.3 2.3 6.2 2.2 6.65 2.15 10.0 -1.2 11.15 -2.35 13.45 -4.65 14.9 -6.4 M13.6 -0.6 L13.5 -0.8 13.45 -0.75 7.25 5.45 7.5 5.7 8.05 6.55 8.45 6.95 8.55 7.05 10.35 8.95 14.95 5.45 16.05 4.65 17.0 4.0 17.35 3.75 17.25 3.65 16.9 3.9 16.7 3.9 16.55 3.65 16.5 3.4 14.75 0.85 13.6 -0.6 M40.8 31.8 L41.2 31.6 Q41.4 31.4 42.45 30.95 L43.15 30.6 43.7 30.1 45.0 29.2 Q45.95 28.25 46.3 27.2 46.75 26.25 46.55 25.25 46.3 24.2 45.65 23.55 43.65 21.55 41.05 22.25 40.25 22.45 39.8 22.7 L39.15 22.65 38.6 22.6 37.65 22.35 37.05 22.0 36.2 21.7 36.15 21.65 35.75 21.25 35.35 21.65 34.25 22.6 34.1 22.75 32.1 24.5 31.9 24.7 31.05 25.45 27.8 28.4 28.2 29.15 28.85 32.35 29.1 33.2 28.85 33.95 29.15 35.85 29.25 38.0 30.1 39.1 Q30.7 39.7 31.75 39.85 32.3 39.5 33.5 39.2 L35.4 38.9 37.45 37.25 39.6 34.4 40.05 33.25 40.2 32.7 40.2 32.1 40.8 31.8 M45.05 25.75 L45.05 25.85 45.0 25.8 45.05 25.75 M17.95 8.75 L19.3 7.6 Q20.45 6.45 20.7 5.0 L20.65 4.85 19.7 3.4 Q19.15 3.55 18.4 4.0 L15.6 6.1 12.95 8.05 Q10.4 9.8 9.35 11.15 L8.9 11.5 8.95 11.95 Q8.6 12.8 9.15 13.45 9.95 14.45 11.45 13.75 13.4 12.8 17.95 8.75 M22.0 13.1 L23.35 11.65 24.65 9.75 24.6 9.4 24.55 8.75 24.4 8.1 Q23.9 7.6 23.05 7.95 21.75 8.65 19.6 10.6 L15.55 14.45 Q14.9 15.4 14.7 16.1 L14.65 16.15 14.75 16.25 14.75 16.45 Q14.7 16.8 15.05 17.2 15.5 17.7 15.95 17.75 L15.9 18.0 15.95 18.05 16.55 17.65 16.9 17.5 Q17.95 16.95 19.65 15.45 L22.0 13.1 M18.95 9.85 Q20.0 8.85 21.0 8.1 L20.55 7.55 20.25 7.85 18.65 9.45 15.8 11.9 14.7 12.7 14.3 13.2 14.8 13.8 15.05 14.05 18.7 10.0 18.95 9.85 M27.25 18.45 L28.75 17.05 Q30.55 15.35 30.55 14.05 L30.1 13.0 Q28.7 11.5 24.35 14.65 L23.85 15.05 Q20.35 17.65 18.85 19.35 L18.8 19.4 18.8 19.3 18.2 19.6 17.85 19.95 17.3 21.1 Q17.25 21.25 17.35 21.4 L17.55 21.55 18.05 22.35 18.65 22.85 18.85 23.15 19.75 23.05 21.05 22.75 21.1 22.7 21.7 22.5 Q23.75 21.45 27.25 18.45 M22.6 13.7 L18.3 17.8 18.55 18.05 18.85 17.75 22.8 14.8 23.35 14.45 25.65 12.55 24.6 11.6 22.6 13.7 M27.4 18.7 L22.95 22.35 23.15 22.6 Q23.6 23.0 23.5 23.5 L23.95 23.05 28.25 19.45 30.75 17.15 30.05 16.55 27.4 18.7 M28.65 19.95 L25.7 22.5 Q23.6 24.2 22.9 25.5 L22.6 25.8 22.7 25.95 22.6 26.4 Q22.5 27.1 23.15 27.85 23.7 28.4 24.6 28.3 L25.0 28.7 25.3 28.9 25.45 29.0 26.4 28.1 27.05 27.65 27.3 27.4 Q29.8 26.0 33.3 22.7 L34.55 21.45 35.9 19.4 35.95 19.25 36.1 18.6 35.85 17.85 34.5 16.8 Q33.65 16.45 32.6 17.0 L31.9 17.3 29.25 19.4 28.65 19.95 M7.8 13.8 L7.3 13.3 7.5 13.6 7.8 13.8 M-32.2 -19.0 L-32.3 -19.2 -32.45 -19.05 -32.2 -19.0 M-33.7 23.5 L-33.7 23.6 -33.75 23.55 -33.7 23.5" fill="#000000" fill-rule="evenodd" stroke="none"/>
    <path d="M-17.55 -30.15 L-14.05 -33.25 -13.6 -33.5 -12.4 -34.7 -11.0 -36.0 -9.55 -37.35 Q-8.25 -38.45 -7.5 -38.5 L-7.1 -38.5 Q-4.6 -38.0 -1.65 -36.15 L3.4 -33.1 4.5 -32.8 Q3.3 -31.7 2.25 -30.05 L2.3 -29.9 2.65 -29.55 Q3.1 -29.3 4.9 -30.7 L7.9 -33.1 8.65 -31.95 10.4 -28.8 12.2 -25.5 12.75 -24.95 12.3 -24.8 10.15 -23.35 11.55 -23.75 13.9 -24.6 14.9 -24.5 15.0 -24.4 15.15 -24.25 Q15.75 -23.65 15.45 -23.15 L16.3 -21.7 16.35 -21.25 14.95 -20.35 Q14.1 -19.7 14.3 -18.7 L16.1 -17.5 18.6 -15.6 20.8 -14.0 21.2 -13.35 21.3 -12.95 Q21.35 -12.55 21.0 -12.2 20.8 -12.0 20.35 -12.0 L20.0 -12.2 15.4 -7.05 14.9 -6.4 9.0 -7.65 8.95 -12.45 5.0 -8.1 Q2.4 -5.2 2.3 -4.1 L0.8 -1.0 -1.0 1.8 -3.25 3.15 Q-4.5 3.6 -4.85 3.95 L-5.6 5.4 Q-6.35 6.85 -7.05 7.55 -7.8 8.3 -11.0 9.9 -11.7 10.4 -13.5 10.7 L-15.3 11.2 -16.0 12.6 Q-16.55 13.75 -17.4 14.6 -17.9 15.1 -18.6 15.35 L-19.3 15.5 -19.7 16.8 Q-20.0 18.0 -20.4 18.4 L-21.35 18.35 -21.7 18.2 -21.9 17.8 -21.85 17.25 -22.6 13.8 -22.9 11.7 -22.9 11.0 -22.05 11.15 -20.9 11.85 -19.7 12.6 -18.9 12.9 -18.85 13.15 -18.05 12.95 -18.0 12.6 -18.05 12.55 -18.15 12.25 -18.2 12.2 -18.25 11.55 -19.15 9.45 -19.5 7.9 -19.4 7.8 -19.35 7.85 -19.35 7.75 Q-19.15 7.55 -19.25 7.45 L-15.1 8.4 -15.1 8.5 -15.0 8.4 -13.8 8.8 -13.3 8.8 -12.9 8.8 -12.5 8.8 -12.25 8.75 -12.0 8.75 Q-10.15 7.95 -9.0 6.8 -8.2 6.0 -7.95 5.25 L-7.85 4.85 -7.8 4.4 -7.7 4.1 -7.65 2.95 -7.7 2.8 -7.8 1.8 -7.95 0.85 -3.5 1.2 -3.35 1.05 -3.1 1.0 -3.15 0.85 -3.05 0.75 -2.9 0.7 -1.35 -0.45 Q-0.65 -1.15 -0.4 -1.9 -0.1 -2.4 -0.05 -3.05 L-0.05 -3.55 2.3 -6.9 Q4.7 -9.5 8.9 -15.1 L2.4 -17.2 7.2 -23.5 7.55 -24.15 3.75 -20.35 Q1.3 -17.1 0.75 -15.85 2.45 -15.15 4.3 -14.9 L7.85 -14.25 7.9 -14.2 Q7.0 -13.9 5.65 -12.55 L2.45 -13.85 -8.2 -14.6 -6.95 -10.55 -8.65 -9.15 Q-3.45 -5.95 -1.3 -5.0 L-2.05 -4.1 -3.6 -4.5 -6.25 -5.55 -7.1 -6.0 -8.55 -6.95 -10.15 -8.05 -10.4 -8.05 -10.55 -8.05 -10.6 -8.1 Q-10.85 -8.05 -10.75 -7.65 L-10.5 -7.2 -12.8 -4.5 -12.65 -4.6 -13.95 -3.3 -14.45 -2.8 -14.1 -3.0 -16.0 -0.8 -12.35 0.85 -11.6 1.1 Q-9.6 2.0 -8.55 2.45 L-8.45 3.45 -8.45 3.85 -9.25 3.7 -12.8 2.2 -15.1 1.0 Q-15.3 0.8 -16.15 0.35 L-16.45 0.15 -16.6 0.0 -16.7 -0.1 -17.2 -0.05 -17.25 0.25 -17.05 0.75 -16.75 1.55 -16.85 1.65 -16.75 1.8 -16.7 1.9 -16.6 2.1 -16.45 2.45 -15.9 3.95 -14.9 5.8 -14.85 5.85 -14.7 6.3 -14.65 6.55 -14.5 6.7 -14.2 7.1 Q-13.95 7.35 -14.25 7.65 L-14.35 7.75 -14.75 7.65 -14.8 7.6 -15.2 7.4 -17.05 7.05 -18.95 6.75 -19.95 6.55 -20.6 6.6 -20.7 6.9 -20.8 6.9 -20.65 7.35 -20.55 7.4 -20.45 7.55 -20.0 9.1 -19.3 11.5 -19.95 11.15 Q-20.1 11.0 -20.3 11.0 L-21.5 10.3 -22.45 9.75 -22.7 9.8 -22.9 9.6 -23.4 9.4 -23.45 9.35 -23.6 9.4 -23.8 9.45 -24.85 9.55 -26.15 9.95 -26.65 10.35 -27.65 11.15 -27.8 11.3 -28.5 11.9 -33.3 6.6 Q-31.5 4.8 -31.35 3.85 -31.35 3.55 -31.65 3.25 L-31.15 2.35 -31.3 1.3 -31.7 0.7 -31.65 -0.15 -31.75 -0.45 -31.85 -1.75 -31.85 -2.15 -29.95 -8.55 -29.5 -8.3 -29.0 -8.4 -18.2 -20.0 Q-17.15 -20.85 -17.2 -21.5 L-17.4 -22.3 -17.6 -23.2 -17.9 -23.8 -18.1 -24.0 -17.85 -24.65 Q-17.4 -25.0 -17.6 -26.1 L-17.9 -27.6 -17.8 -30.0 -17.55 -30.15 M13.45 -0.75 L13.6 -0.6 14.75 0.85 16.5 3.4 16.55 3.65 16.7 3.9 16.9 3.9 17.0 4.0 16.05 4.65 14.95 5.45 13.45 3.85 Q11.7 4.4 9.5 5.6 L8.05 6.55 7.5 5.7 7.25 5.45 13.45 -0.75 M34.25 22.6 L35.35 21.65 35.75 21.25 36.15 21.65 36.2 21.7 37.05 22.0 37.65 22.35 38.6 22.6 39.15 22.65 39.8 22.7 Q40.25 22.45 41.05 22.25 43.65 21.55 45.65 23.55 46.3 24.2 46.55 25.25 46.75 26.25 46.3 27.2 45.95 28.25 45.0 29.2 L43.7 30.1 43.15 30.6 42.45 30.95 Q41.4 31.4 41.2 31.6 L40.8 31.8 Q41.3 30.8 41.2 29.7 41.05 28.05 39.65 26.65 39.3 26.3 38.7 26.1 L38.3 26.0 38.35 26.15 37.8 26.1 37.55 26.15 Q37.75 25.55 38.25 25.15 L38.8 24.7 38.2 24.1 Q35.3 22.7 34.25 22.6 M31.05 25.45 L31.9 24.7 33.85 27.35 34.5 27.9 35.5 29.1 36.0 30.05 34.25 28.15 33.4 27.8 32.5 27.3 32.3 26.7 32.2 25.9 31.2 25.65 31.05 25.45 M45.05 25.75 L45.0 25.8 45.05 25.85 45.05 25.75 M18.65 9.45 L20.25 7.85 20.55 7.55 21.0 8.1 Q20.0 8.85 18.95 9.85 L18.65 9.45 M22.6 13.7 L24.6 11.6 25.65 12.55 23.35 14.45 22.6 13.7 M27.4 18.7 L30.05 16.55 30.75 17.15 28.25 19.45 27.4 18.7 M31.0 32.8 Q32.45 34.05 34.5 34.0 31.1 36.0 31.0 32.8 M-10.7 -29.2 L-10.5 -29.4 Q-9.95 -29.95 -10.0 -30.4 L-10.2 -30.7 Q-10.5 -31.0 -11.2 -31.1 L-12.35 -31.05 -12.8 -30.8 Q-13.45 -31.05 -13.7 -29.6 L-13.85 -27.45 -14.15 -26.45 -14.4 -25.05 -14.55 -23.05 -14.85 -20.95 -15.05 -18.85 -15.3 -17.0 Q-15.6 -15.2 -15.35 -14.95 L-14.2 -15.0 Q-13.8 -15.4 -13.5 -18.4 L-13.05 -22.55 -13.1 -21.5 -13.55 -17.35 -13.65 -16.55 -13.7 -16.4 -13.75 -16.05 -13.7 -16.0 -13.8 -15.5 -13.05 -15.55 -12.45 -15.65 -11.8 -15.7 -11.0 -15.9 -10.55 -15.95 -7.8 -16.7 -7.75 -16.75 -5.2 -19.5 -3.45 -21.45 -3.3 -23.9 -3.2 -26.9 -4.0 -27.5 -6.15 -29.15 -7.75 -30.25 -8.85 -29.85 -10.05 -29.4 -10.35 -29.35 -10.4 -29.3 -10.7 -29.2 M-12.5 -26.0 L-12.2 -28.5 -12.0 -28.5 -12.5 -26.0 M-19.2 -0.9 L-19.15 -0.95 -19.2 -1.0 -19.3 -1.1 -19.2 -0.9 M-17.5 1.7 L-17.55 1.55 -17.6 1.55 -17.5 1.7" fill="#b1b498" fill-rule="evenodd" stroke="none"/>
    <path d="M-31.75 -0.45 L-31.65 -0.15 -31.7 0.7 -31.3 1.3 -31.15 2.35 -31.65 3.25 Q-31.35 3.55 -31.35 3.85 -31.5 4.8 -33.3 6.6 L-34.0 7.0 Q-33.7 5.6 -33.75 3.25 -33.75 -0.05 -33.25 -0.55 L-32.5 -0.5 -31.75 -0.45 M-2.05 -4.1 L-1.3 -5.0 Q1.05 -7.95 5.65 -12.55 7.0 -13.9 7.9 -14.2 L7.85 -14.25 4.3 -14.9 Q2.45 -15.15 0.75 -15.85 1.3 -17.1 3.75 -20.35 L7.55 -24.15 7.2 -23.5 2.4 -17.2 2.6 -16.95 2.9 -16.8 2.95 -16.85 8.9 -15.1 Q4.7 -9.5 2.3 -6.9 L-0.05 -3.55 -0.05 -3.75 -1.0 -4.2 -1.0 -4.0 -1.7 -4.1 -2.05 -4.1 M-44.1 10.4 Q-45.0 10.4 -45.3 10.1 L-46.15 8.75 -46.3 6.9 -46.05 4.9 -46.1 4.0 -45.6 3.1 -45.25 2.95 -44.9 2.4 -44.85 2.35 -44.4 2.3 -44.05 2.65 Q-43.7 3.0 -43.65 3.75 -43.5 4.2 -43.8 4.9 L-43.9 5.2 -43.8 6.75 -42.9 8.3 -42.4 9.0 Q-42.05 9.55 -42.4 9.9 -42.8 10.3 -44.1 10.4 M-30.8 -17.1 L-30.55 -18.55 -30.3 -18.6 -27.55 -21.55 -25.65 -23.55 -23.25 -25.55 -23.2 -25.4 -23.5 -24.9 -28.4 -19.75 -29.95 -18.2 -30.25 -17.85 -30.2 -17.8 -30.35 -17.65 -30.8 -17.1 M-13.7 -16.4 L-13.65 -16.55 -13.7 -16.35 -13.7 -16.4 M-10.5 -16.6 L-11.2 -16.4 -13.3 -16.2 -12.95 -18.3 -12.7 -19.6 -11.2 -17.8 -10.5 -16.6" fill="#625c48" fill-rule="evenodd" stroke="none"/>
    <path d="M-8.55 2.45 Q-9.6 2.0 -11.6 1.1 L-12.35 0.85 -12.85 -0.45 -12.9 -0.7 -13.65 -3.35 -13.5 -3.5 -13.3 -3.7 -12.65 -3.05 -10.85 -1.85 Q-9.7 -1.1 -7.2 0.0 L-8.05 -0.15 -8.85 -0.2 Q-9.25 -0.15 -9.25 0.05 L-9.15 0.35 -9.1 0.4 -9.05 0.75 -8.7 1.9 Q-8.55 2.15 -8.55 2.45 M2.4 -17.2 L8.9 -15.1 2.95 -16.85 2.9 -16.8 2.6 -16.95 2.4 -17.2 M-15.0 8.4 L-15.1 8.5 -15.1 8.4 -15.0 8.4 M-21.7 18.2 L-21.35 18.35 -20.4 18.4 Q-20.0 18.0 -19.7 16.8 L-19.3 15.5 -18.6 15.35 Q-17.9 15.1 -17.4 14.6 -16.55 13.75 -16.0 12.6 L-15.3 11.2 -13.5 10.7 Q-11.7 10.4 -11.0 9.9 -7.8 8.3 -7.05 7.55 -6.35 6.85 -5.6 5.4 L-4.85 3.95 Q-4.5 3.6 -3.25 3.15 L-1.0 1.8 0.8 -1.0 2.3 -4.1 Q2.4 -5.2 5.0 -8.1 L8.95 -12.45 9.0 -7.65 14.9 -6.4 13.45 -4.65 11.15 -2.35 10.0 -1.2 6.65 2.15 6.2 2.2 6.3 2.3 5.85 2.5 3.5 4.3 Q-2.65 9.65 -8.8 17.4 L-13.9 24.2 Q-14.8 24.9 -17.7 25.55 L-18.25 25.65 -21.9 26.2 -25.25 27.75 -26.45 28.15 Q-27.25 28.05 -27.65 27.75 L-29.4 25.8 -31.3 23.2 -32.25 22.35 -32.3 22.3 -32.45 22.15 -32.5 22.2 -33.35 21.65 -33.45 21.55 -33.5 21.3 -33.45 20.75 -33.2 19.3 -33.05 18.65 -33.0 18.65 -30.55 19.05 -28.9 19.4 -27.65 19.85 -27.4 19.3 -27.3 19.2 -27.45 19.05 -27.55 19.0 -27.6 17.7 -27.95 16.15 -28.05 14.35 -26.8 15.3 -25.0 16.7 -22.6 18.15 -21.45 18.65 -21.7 18.2 M-5.6 0.3 L-5.85 -0.75 -5.5 -0.4 -4.75 0.35 -5.6 0.3 M-28.9 18.4 L-29.1 18.4 -29.0 18.3 -28.9 18.4" fill="url(#gradient0)" fill-rule="evenodd" stroke="none"/>
    <path d="M-18.1 -24.0 L-17.9 -23.8 -17.6 -23.2 -17.4 -22.3 -17.2 -21.5 Q-17.15 -20.85 -18.2 -20.0 L-29.0 -8.4 -29.5 -8.3 -29.95 -8.55 -31.85 -2.15 -32.1 -3.5 -33.0 -3.6 Q-33.85 -3.45 -34.15 -2.65 L-34.65 -1.15 -34.95 0.45 Q-35.1 2.8 -34.5 4.0 L-34.35 4.65 -34.55 6.05 Q-34.7 6.5 -34.45 6.75 L-34.0 7.0 -33.3 6.6 -28.5 11.9 -28.55 11.95 -28.6 12.4 Q-28.7 13.3 -29.05 13.75 L-28.95 14.25 -28.8 15.9 -28.5 18.5 -28.9 18.4 -29.0 18.3 -29.1 18.4 -29.4 18.4 -31.2 18.05 -31.95 17.95 -33.6 18.05 -33.7 17.8 -34.05 17.45 -34.7 17.0 -35.25 16.75 -36.4 16.6 Q-37.1 16.7 -38.15 17.35 L-38.7 17.8 -44.1 10.4 Q-42.8 10.3 -42.4 9.9 -42.05 9.55 -42.4 9.0 L-42.9 8.3 -43.8 6.75 -43.9 5.2 -43.8 4.9 Q-43.5 4.2 -43.65 3.75 -43.7 3.0 -44.05 2.65 L-44.4 2.3 -44.85 2.35 Q-44.7 2.0 -44.85 1.75 L-44.6 1.75 -38.25 -6.75 -31.4 -15.9 Q-30.85 -16.45 -30.8 -17.1 L-30.35 -17.65 -30.2 -17.8 -30.25 -17.85 -29.95 -18.2 -28.4 -19.75 -23.5 -24.9 -23.2 -25.4 -23.25 -25.55 -25.65 -23.55 -27.55 -21.55 -30.3 -18.6 -30.55 -18.55 -31.15 -19.65 -31.55 -20.25 -29.6 -23.0 -28.85 -24.05 Q-28.05 -24.95 -27.2 -26.3 L-24.4 -29.3 -22.65 -31.15 -20.6 -30.4 -19.9 -30.1 -19.25 -29.85 -19.25 -29.75 -18.1 -24.0 M-14.65 6.55 L-14.7 6.3 -14.65 6.35 -14.65 6.55 M-14.85 5.85 L-14.9 5.8 -15.9 3.95 -16.45 2.45 -15.9 3.8 -14.95 5.45 -14.85 5.85 M-12.35 0.85 L-16.0 -0.8 -14.1 -3.0 -14.45 -2.8 -13.95 -3.3 -12.65 -4.6 -12.8 -4.5 -10.5 -7.2 -9.85 -6.15 -8.5 -4.2 -6.9 -1.9 -5.85 -0.75 -5.6 0.3 -6.55 0.15 -7.2 0.0 Q-9.7 -1.1 -10.85 -1.85 L-12.65 -3.05 -13.3 -3.7 -13.5 -3.5 -13.65 -3.35 -12.9 -0.7 -12.85 -0.45 -12.35 0.85 M-1.3 -5.0 Q-3.45 -5.95 -8.65 -9.15 L-6.95 -10.55 -8.2 -14.6 2.45 -13.85 5.65 -12.55 Q1.05 -7.95 -1.3 -5.0 M-19.35 7.75 L-19.35 7.85 -19.4 7.8 -19.35 7.75 M-17.5 1.7 L-17.6 1.55 -17.55 1.55 -17.5 1.7 M-33.0 18.65 L-33.05 18.65 -33.05 18.55 -33.0 18.65" fill="url(#gradient1)" fill-rule="evenodd" stroke="none"/>
    <path d="M13.6 -0.6 L13.45 -0.75 13.5 -0.8 13.6 -0.6" fill="#c7c2b1" fill-rule="evenodd" stroke="none"/>
    <path d="M40.8 31.8 L40.2 32.1 40.2 32.7 40.05 33.25 39.6 34.4 37.45 37.25 35.4 38.9 33.5 39.2 Q32.3 39.5 31.75 39.85 30.7 39.7 30.1 39.1 L29.25 38.0 29.15 35.85 28.85 33.95 29.1 33.2 28.85 32.35 28.2 29.15 27.8 28.4 31.05 25.45 31.2 25.65 32.2 25.9 32.3 26.7 32.5 27.3 33.4 27.8 34.25 28.15 36.0 30.05 35.5 29.1 34.5 27.9 33.85 27.35 31.9 24.7 32.1 24.5 34.1 22.75 34.25 22.6 Q35.3 22.7 38.2 24.1 L38.8 24.7 38.25 25.15 Q37.75 25.55 37.55 26.15 L37.8 26.1 38.35 26.15 38.3 26.0 38.7 26.1 Q39.3 26.3 39.65 26.65 41.05 28.05 41.2 29.7 41.3 30.8 40.8 31.8 M31.0 32.8 Q31.1 36.0 34.5 34.0 32.45 34.05 31.0 32.8" fill="url(#gradient2)" fill-rule="evenodd" stroke="none"/>
    <path d="M-28.5 11.9 L-27.8 11.3 -27.65 11.15 -26.65 10.35 -26.15 9.95 -24.85 9.55 -23.8 9.45 -23.6 9.4 -23.45 9.35 -23.4 9.4 -22.9 9.6 -22.7 9.8 -22.45 9.75 -21.5 10.3 -20.3 11.0 Q-20.1 11.0 -19.95 11.15 L-19.3 11.5 -20.0 9.1 -20.45 7.55 -20.55 7.4 -20.65 7.35 -20.8 6.9 -20.7 6.9 -20.6 6.6 -19.95 6.55 -18.95 6.75 -17.05 7.05 -15.2 7.4 -14.8 7.6 -14.75 7.65 -14.35 7.75 -14.25 7.65 Q-13.95 7.35 -14.2 7.1 L-14.5 6.7 -14.65 6.55 -14.65 6.35 -14.7 6.3 -14.85 5.85 -14.95 5.45 -15.9 3.8 -16.45 2.45 -16.6 2.1 -16.7 1.9 -16.75 1.8 -16.85 1.65 -16.75 1.55 -17.05 0.75 -17.25 0.25 -17.2 -0.05 -16.7 -0.1 -16.6 0.0 -16.45 0.15 -16.15 0.35 Q-15.3 0.8 -15.1 1.0 L-12.8 2.2 -9.25 3.7 -8.45 3.85 -8.45 3.45 -8.55 2.45 Q-8.55 2.15 -8.7 1.9 L-9.05 0.75 -9.1 0.4 -9.15 0.35 -9.25 0.05 Q-9.25 -0.15 -8.85 -0.2 L-8.05 -0.15 -7.2 0.0 -6.55 0.15 -5.6 0.3 -4.75 0.35 -5.5 -0.4 -5.85 -0.75 -6.9 -1.9 -8.5 -4.2 -9.85 -6.15 -10.5 -7.2 -10.75 -7.65 Q-10.85 -8.05 -10.6 -8.1 L-10.55 -8.05 -10.4 -8.05 -10.15 -8.05 -8.55 -6.95 -7.1 -6.0 -6.25 -5.55 -3.6 -4.5 -2.05 -4.1 -1.7 -4.1 -1.0 -4.0 -1.0 -4.2 -0.05 -3.75 -0.05 -3.55 -0.05 -3.05 Q-0.1 -2.4 -0.4 -1.9 -0.65 -1.15 -1.35 -0.45 L-2.9 0.7 -3.05 0.75 -3.15 0.85 -3.1 1.0 -3.35 1.05 -3.5 1.2 -7.95 0.85 -7.8 1.8 -7.7 2.8 -7.65 2.95 -7.7 4.1 -7.8 4.4 -7.85 4.85 -7.95 5.25 Q-8.2 6.0 -9.0 6.8 -10.15 7.95 -12.0 8.75 L-12.25 8.75 -12.5 8.8 -12.9 8.8 -13.3 8.8 -13.8 8.8 -15.0 8.4 -15.1 8.4 -19.25 7.45 Q-19.15 7.55 -19.35 7.75 L-19.4 7.8 -19.5 7.9 -19.15 9.45 -18.25 11.55 -18.2 12.2 -18.15 12.25 -18.05 12.55 -18.0 12.6 -18.05 12.95 -18.85 13.15 -18.9 12.9 -19.7 12.6 -20.9 11.85 -22.05 11.15 -22.9 11.0 -22.9 11.7 -22.6 13.8 -21.85 17.25 -21.9 17.8 -21.7 18.2 -21.45 18.65 -22.6 18.15 -25.0 16.7 -26.8 15.3 -28.05 14.35 -27.95 16.15 -27.6 17.7 -27.55 19.0 -27.45 19.05 -27.3 19.2 -27.4 19.3 -27.65 19.85 -28.9 19.4 -30.55 19.05 -33.0 18.65 -33.05 18.55 -33.05 18.65 -33.2 19.3 -33.45 20.75 -33.5 21.3 -33.45 21.55 -33.1 22.85 Q-32.85 24.05 -33.15 24.35 L-33.55 24.45 -34.2 24.2 -35.05 23.85 -36.3 22.8 -38.15 20.45 -38.95 19.15 -39.1 18.4 -38.95 17.95 -38.8 17.9 -38.7 17.8 -38.15 17.35 Q-37.1 16.7 -36.4 16.6 L-35.25 16.75 -34.7 17.0 -34.05 17.45 -33.7 17.8 -33.6 18.05 -31.95 17.95 -31.2 18.05 -29.4 18.4 -29.1 18.4 -28.9 18.4 -28.5 18.5 -28.8 15.9 -28.95 14.25 -29.05 13.75 Q-28.7 13.3 -28.6 12.4 L-28.55 11.95 -28.5 11.9 M15.6 6.1 L18.4 4.0 Q19.15 3.55 19.7 3.4 L20.65 4.85 20.7 5.0 Q20.45 6.45 19.3 7.6 L17.95 8.75 15.6 6.1 M19.6 10.6 Q21.75 8.65 23.05 7.95 23.9 7.6 24.4 8.1 L24.55 8.75 24.6 9.4 24.65 9.75 23.35 11.65 22.0 13.1 20.25 11.25 19.6 10.6 M23.85 15.05 L24.35 14.65 Q28.7 11.5 30.1 13.0 L30.55 14.05 Q30.55 15.35 28.75 17.05 L27.25 18.45 23.85 15.05 M28.65 19.95 L29.25 19.4 31.9 17.3 32.6 17.0 Q33.65 16.45 34.5 16.8 L35.85 17.85 36.1 18.6 35.95 19.25 35.9 19.4 34.55 21.45 33.8 21.4 30.6 21.5 30.6 21.7 30.55 21.75 28.65 19.95 M-13.05 -22.55 L-13.0 -23.0 -12.5 -26.0 -12.0 -28.5 -11.55 -28.65 Q-11.1 -28.85 -10.7 -29.2 L-10.4 -29.3 -10.35 -29.35 -10.05 -29.4 -8.85 -29.85 -7.75 -30.25 -6.15 -29.15 -4.0 -27.5 -3.2 -26.9 -3.3 -23.9 -3.45 -21.45 -5.2 -19.5 -7.75 -16.75 -7.8 -16.7 -10.55 -15.95 -11.0 -15.9 -12.45 -15.65 -13.05 -15.55 -13.8 -15.5 -13.7 -16.0 -13.7 -16.35 -13.65 -16.55 -13.55 -17.35 -13.1 -21.5 -13.05 -22.55 M-10.1 -28.8 L-11.2 -28.25 -11.6 -28.1 -11.8 -26.6 -11.85 -25.95 -12.25 -23.65 -12.4 -22.5 -12.55 -20.65 -12.7 -19.6 -12.95 -18.3 -13.3 -16.2 -11.2 -16.4 -10.5 -16.6 -10.2 -16.7 -9.0 -17.1 -8.0 -17.3 -4.9 -20.6 -4.45 -21.35 -3.95 -22.05 -3.95 -22.85 -3.95 -24.55 -3.7 -26.3 -3.75 -26.3 -4.3 -26.8 -5.25 -27.75 Q-6.55 -28.55 -7.25 -29.15 L-7.9 -29.15 -9.2 -29.1 -10.1 -28.8 M-7.55 -4.45 L-6.55 -3.25 -6.0 -2.7 -4.55 -0.75 -3.6 0.2 -3.15 0.05 Q-2.4 -0.5 -1.65 -1.25 L-1.1 -1.9 -1.05 -2.2 -0.9 -2.7 -0.85 -2.85 -0.85 -3.15 -0.9 -3.2 -0.9 -3.3 -1.15 -3.3 -1.2 -3.3 -1.25 -3.25 -1.75 -3.45 -2.8 -3.6 -3.0 -3.6 -5.2 -4.3 Q-5.95 -4.55 -6.95 -5.15 L-7.1 -5.3 -9.0 -6.4 -7.55 -4.45 M-8.75 4.95 L-8.65 4.75 -8.55 4.55 -9.2 4.4 -10.4 4.0 -12.75 3.05 -15.05 1.85 -16.05 1.35 -15.1 3.9 -14.15 5.85 -13.15 7.45 -13.0 7.6 -12.6 7.9 -12.5 7.9 -11.6 7.7 Q-10.9 7.4 -10.0 6.5 L-9.3 6.0 Q-8.65 5.35 -8.75 4.95 M-26.85 11.75 L-27.6 12.6 -27.75 12.75 Q-28.05 13.15 -27.8 13.4 L-27.45 13.65 -27.05 13.95 -25.1 15.6 -23.65 16.55 Q-23.3 16.7 -23.05 16.9 L-23.3 16.2 -23.7 13.9 -23.7 11.5 -23.7 10.6 -24.25 10.65 -24.55 10.65 -24.8 10.7 -25.75 10.95 -26.85 11.75 M-34.75 17.75 L-34.85 17.75 -35.35 17.55 -36.3 17.3 Q-37.0 17.4 -38.3 18.4 L-38.35 18.55 -38.15 18.85 -37.95 19.25 -37.9 19.5 -37.4 20.2 -36.4 21.4 -36.35 21.45 -36.2 21.6 -35.55 22.25 -35.1 22.8 Q-34.45 23.45 -34.2 23.2 L-34.15 23.15 -34.05 23.05 -34.05 21.85 -34.15 20.35 -34.25 19.05 -34.35 18.55 -34.3 18.5 -34.15 18.35 -34.4 18.1 -34.45 17.85 -34.75 17.75 M-33.7 23.5 L-33.75 23.55 -33.7 23.6 -33.7 23.5" fill="#403c2f" fill-rule="evenodd" stroke="none"/>
    <path d="M8.05 6.55 L9.5 5.6 Q11.7 4.4 13.45 3.85 L14.95 5.45 10.35 8.95 8.55 7.05 8.45 6.95 8.05 6.55 M18.95 9.85 L18.7 10.0 15.05 14.05 14.8 13.8 14.3 13.2 14.7 12.7 15.8 11.9 18.65 9.45 18.95 9.85 M23.35 14.45 L22.8 14.8 18.85 17.75 18.55 18.05 18.3 17.8 22.6 13.7 23.35 14.45 M28.25 19.45 L23.95 23.05 23.5 23.5 Q23.6 23.0 23.15 22.6 L22.95 22.35 27.4 18.7 28.25 19.45" fill="#e9efd5" fill-rule="evenodd" stroke="none"/>
    <path d="M15.6 6.1 L17.95 8.75 Q13.4 12.8 11.45 13.75 9.95 14.45 9.15 13.45 8.6 12.8 8.95 11.95 L8.9 11.5 9.35 11.15 Q10.4 9.8 12.95 8.05 L15.6 6.1 M19.6 10.6 L20.25 11.25 22.0 13.1 19.65 15.45 Q17.95 16.95 16.9 17.5 L16.55 17.65 15.95 18.05 15.9 18.0 15.95 17.75 Q15.5 17.7 15.05 17.2 14.7 16.8 14.75 16.45 L14.75 16.25 14.7 16.1 Q14.9 15.4 15.55 14.45 L19.6 10.6 M23.85 15.05 L27.25 18.45 Q23.75 21.45 21.7 22.5 L21.1 22.7 21.05 22.75 19.75 23.05 18.85 23.15 18.65 22.85 18.05 22.35 17.55 21.55 17.35 21.4 Q17.25 21.25 17.3 21.1 L17.85 19.95 18.2 19.6 18.8 19.3 18.8 19.4 18.85 19.35 Q20.35 17.65 23.85 15.05 M34.55 21.45 L33.3 22.7 Q29.8 26.0 27.3 27.4 L27.05 27.65 26.4 28.1 25.45 29.0 25.3 28.9 25.0 28.7 24.6 28.3 Q23.7 28.4 23.15 27.85 22.5 27.1 22.6 26.4 L22.7 25.95 22.6 25.8 22.9 25.5 Q23.6 24.2 25.7 22.5 L28.65 19.95 30.55 21.75 30.7 21.9 30.6 21.7 30.6 21.5 33.8 21.4 34.55 21.45" fill="#5c5545" fill-rule="evenodd" stroke="none"/>
    <path d="M-13.05 -22.55 L-13.5 -18.4 Q-13.8 -15.4 -14.2 -15.0 L-15.35 -14.95 Q-15.6 -15.2 -15.3 -17.0 L-15.05 -18.85 -14.85 -20.95 -14.55 -23.05 -14.4 -25.05 -14.15 -26.45 -13.85 -27.45 -13.7 -29.6 Q-13.45 -31.05 -12.8 -30.8 L-12.35 -31.05 -11.2 -31.1 Q-10.5 -31.0 -10.2 -30.7 L-10.0 -30.4 Q-9.95 -29.95 -10.5 -29.4 L-10.7 -29.2 Q-11.1 -28.85 -11.55 -28.65 L-12.0 -28.5 -12.2 -28.5 -12.5 -26.0 -13.0 -23.0 -13.05 -22.55" fill="#a8a88a" fill-rule="evenodd" stroke="none"/>
    <path d="M-17.55 -30.15 L-17.8 -30.0 -17.9 -27.6 -17.6 -26.1 Q-17.4 -25.0 -17.85 -24.65 L-18.1 -24.0 -19.25 -29.75 -17.55 -30.15" fill="url(#gradient3)" fill-rule="evenodd" stroke="none"/>
    <path d="M-31.85 -2.15 L-31.85 -1.75 -31.75 -0.45 -32.5 -0.5 -33.25 -0.55 Q-33.75 -0.05 -33.75 3.25 -33.7 5.6 -34.0 7.0 L-34.45 6.75 Q-34.7 6.5 -34.55 6.05 L-34.35 4.65 -34.5 4.0 Q-35.1 2.8 -34.95 0.45 L-34.65 -1.15 -34.15 -2.65 Q-33.85 -3.45 -33.0 -3.6 L-32.1 -3.5 -31.85 -2.15 M-11.0 -15.9 L-11.8 -15.7 -12.45 -15.65 -11.0 -15.9 M-13.7 -16.0 L-13.75 -16.05 -13.7 -16.4 -13.7 -16.35 -13.7 -16.0 M-12.55 -20.65 L-12.4 -22.5 -12.25 -23.65 -11.85 -25.95 -11.8 -26.6 -11.6 -28.1 -11.2 -28.25 -10.1 -28.8 -10.3 -27.0 -10.15 -24.75 -9.9 -24.8 -10.2 -24.5 -12.55 -20.65 M-3.95 -22.85 L-3.95 -22.05 -4.45 -21.35 -4.9 -20.6 -8.0 -17.3 -9.0 -17.1 -10.2 -16.7 Q-9.1 -17.2 -8.55 -17.45 -6.3 -18.8 -5.0 -20.9 L-4.55 -21.65 -3.95 -22.85" fill="#8d8669" fill-rule="evenodd" stroke="none"/>
    <path d="M-10.1 -28.8 L-9.2 -29.1 -7.9 -29.15 -7.25 -29.15 Q-6.55 -28.55 -5.25 -27.75 L-4.3 -26.8 -3.75 -26.3 -3.7 -26.3 -3.95 -24.55 -3.95 -22.85 -4.55 -21.65 -6.15 -24.85 -8.0 -24.95 -9.9 -24.8 -10.15 -24.75 -10.3 -27.0 -10.1 -28.8" fill="#a29a80" fill-rule="evenodd" stroke="none"/>
    <path d="M-10.2 -16.7 L-10.5 -16.6 -11.2 -17.8 -12.7 -19.6 -12.55 -20.65 -10.2 -24.5 -9.9 -24.8 -8.0 -24.95 -6.15 -24.85 -4.55 -21.65 -5.0 -20.9 Q-6.3 -18.8 -8.55 -17.45 -9.1 -17.2 -10.2 -16.7" fill="#181612" fill-rule="evenodd" stroke="none"/>
    <path d="M-19.2 -0.9 L-19.2 -1.0 -19.15 -0.95 -19.2 -0.9" fill="#cfbcaf" fill-rule="evenodd" stroke="none"/>
    <path d="M-7.55 -4.45 L-9.0 -6.4 -7.1 -5.3 -6.95 -5.15 Q-5.95 -4.55 -5.2 -4.3 L-3.0 -3.6 -2.8 -3.6 -1.75 -3.45 -1.25 -3.25 -1.2 -3.3 -1.15 -3.3 -0.9 -3.3 -0.9 -3.2 -0.85 -3.15 -0.85 -2.85 -0.9 -2.7 -1.05 -2.2 -1.1 -1.9 -1.65 -1.25 Q-2.4 -0.5 -3.15 0.05 L-3.6 0.2 -4.55 -0.75 -6.0 -2.7 -6.55 -3.25 -7.55 -4.45 M-8.75 4.95 Q-8.65 5.35 -9.3 6.0 L-10.0 6.5 Q-10.9 7.4 -11.6 7.7 L-12.5 7.9 -12.6 7.9 -13.0 7.6 -13.15 7.45 -14.15 5.85 -15.1 3.9 -16.05 1.35 -15.05 1.85 -12.75 3.05 -10.4 4.0 -9.2 4.4 -8.55 4.55 -8.65 4.75 -8.75 4.95 M-26.85 11.75 L-25.75 10.95 -24.8 10.7 -24.55 10.65 -24.25 10.65 -23.7 10.6 -23.7 11.5 -23.7 13.9 -23.3 16.2 -23.05 16.9 Q-23.3 16.7 -23.65 16.55 L-25.1 15.6 -27.05 13.95 -27.45 13.65 -27.8 13.4 Q-28.05 13.15 -27.75 12.75 L-27.6 12.6 -26.85 11.75 M-34.75 17.75 L-34.45 17.85 -34.4 18.1 -34.15 18.35 -34.3 18.5 -34.35 18.55 -34.25 19.05 -34.15 20.35 -34.05 21.85 -34.05 23.05 -34.15 23.15 -34.2 23.2 Q-34.45 23.45 -35.1 22.8 L-35.55 22.25 -36.2 21.6 -36.35 21.45 -36.4 21.4 -37.4 20.2 -37.9 19.5 -37.95 19.25 -38.15 18.85 -38.35 18.55 -38.3 18.4 Q-37.0 17.4 -36.3 17.3 L-35.35 17.55 -34.85 17.75 -34.75 17.75" fill="#e1e2d7" fill-rule="evenodd" stroke="none"/>
  </g>
  <defs>
    <radialGradient cx="0" cy="0" gradientTransform="matrix(-0.0392, 0.0392, 0.0289, 0.0289, 5.15, -10.35)" gradientUnits="userSpaceOnUse" id="gradient0" r="819.2" spreadMethod="pad">
      <stop offset="0.6980392156862745" stop-color="#c4c6b0"/>
      <stop offset="1.0" stop-color="#ffffff"/>
    </radialGradient>
    <radialGradient cx="0" cy="0" gradientTransform="matrix(-0.041, 0.041, 0.0293, 0.0293, -0.65, -11.25)" gradientUnits="userSpaceOnUse" id="gradient1" r="819.2" spreadMethod="pad">
      <stop offset="0.6980392156862745" stop-color="#c4c6b0"/>
      <stop offset="1.0" stop-color="#ffffff"/>
    </radialGradient>
    <radialGradient cx="0" cy="0" gradientTransform="matrix(-0.0134, 0.0134, 0.0083, 0.0083, 35.75, 21.25)" gradientUnits="userSpaceOnUse" id="gradient2" r="819.2" spreadMethod="pad">
      <stop offset="0.6980392156862745" stop-color="#e9efd5"/>
      <stop offset="1.0" stop-color="#ffffff"/>
    </radialGradient>
    <radialGradient cx="0" cy="0" gradientTransform="matrix(-0.0029, 0.0029, 0.0029, 0.0029, -18.15, -27.35)" gradientUnits="userSpaceOnUse" id="gradient3" r="819.2" spreadMethod="pad">
      <stop offset="0.6980392156862745" stop-color="#c4c6b0"/>
      <stop offset="1.0" stop-color="#ffffff"/>
    </radialGradient>
  </defs>
</svg>
