<?xml version="1.0" encoding="UTF-8" standalone="no"?>
<svg xmlns:ffdec="https://www.free-decompiler.com/flash" xmlns:xlink="http://www.w3.org/1999/xlink" ffdec:objectType="shape" height="97.75px" width="92.5px" xmlns="http://www.w3.org/2000/svg">
  <g transform="matrix(1.0, 0.0, 0.0, 1.0, 44.8, 49.65)">
    <path d="M1.5 -0.5 L0.15 -1.5 -3.75 -4.5 -4.35 -3.75 -7.1 -0.95 -6.65 -0.55 -2.55 3.35 -0.1 5.7 6.65 11.45 Q15.6 19.1 26.85 29.75 L36.75 39.1 40.0 42.05 40.35 41.55 41.8 39.1 42.0 38.8 43.1 36.9 43.75 35.65 40.7 33.25 30.05 24.2 27.65 22.2 26.45 21.2 26.4 21.1 11.45 8.3 1.7 -0.3 1.5 -0.5 M1.4 -4.15 L13.05 5.2 20.55 11.9 28.05 18.35 44.85 32.35 Q47.2 34.05 47.7 35.05 L45.2 40.1 42.4 44.9 40.6 48.1 39.95 47.65 25.5 34.9 18.4 28.25 Q9.6 19.65 4.75 15.55 L-1.95 9.4 -8.95 2.95 Q-9.4 2.55 -9.8 2.45 L-9.9 2.4 -9.9 2.3 Q-10.95 2.85 -12.3 3.1 L-14.7 3.3 -19.4 2.85 Q-22.3 2.2 -23.65 1.4 L-26.5 -0.8 -29.2 -3.25 Q-29.9 -4.25 -31.1 -7.65 -31.9 -9.9 -31.75 -12.9 -31.55 -17.25 -29.1 -20.15 L-28.25 -20.75 -27.65 -20.65 -27.6 -20.65 -27.0 -21.4 Q-24.45 -23.9 -20.6 -25.45 -17.65 -26.55 -15.0 -26.55 L-15.5 -26.9 Q-15.9 -27.25 -15.7 -27.65 -15.5 -28.1 -14.4 -28.1 L-12.6 -27.75 -11.0 -27.2 -9.6 -26.6 -9.5 -26.5 Q-8.6 -26.35 -7.85 -25.85 L-6.15 -24.55 Q-2.3 -21.25 -1.05 -13.75 -0.25 -8.8 -0.95 -6.25 L0.05 -5.6 1.4 -4.15 M-27.55 -17.0 Q-28.6 -14.65 -28.45 -12.85 -28.8 -10.9 -27.5 -7.6 -26.45 -4.85 -23.0 -2.35 -17.8 1.3 -11.9 -0.9 -8.25 -2.25 -6.45 -4.7 L-6.25 -5.2 -5.7 -5.95 Q-4.8 -7.05 -4.55 -7.9 L-4.3 -10.7 -4.45 -13.65 -5.2 -15.7 Q-6.75 -19.65 -8.9 -21.55 -13.3 -26.05 -20.1 -23.35 -22.45 -22.6 -23.8 -21.4 L-25.35 -20.05 -26.5 -18.45 Q-27.45 -16.95 -27.55 -17.0" fill="#000000" fill-rule="evenodd" stroke="none"/>
    <path d="M1.5 -0.5 L1.7 -0.3 11.45 8.3 26.4 21.1 26.45 21.2 27.65 22.2 30.05 24.2 40.7 33.25 43.75 35.65 43.1 36.9 42.0 38.8 Q40.5 38.0 36.9 35.15 33.35 32.4 30.9 30.3 L19.3 19.75 9.1 10.45 5.55 7.6 Q-0.2 2.65 1.5 -0.5" fill="#b74040" fill-rule="evenodd" stroke="none"/>
    <path d="M0.15 -1.5 L1.5 -0.5 Q-0.2 2.65 5.55 7.6 L9.1 10.45 19.3 19.75 30.9 30.3 Q33.35 32.4 36.9 35.15 40.5 38.0 42.0 38.8 L41.8 39.1 40.35 41.55 40.0 42.05 36.75 39.1 26.85 29.75 Q15.6 19.1 6.65 11.45 L-0.1 5.7 -2.55 3.35 -2.25 3.0 -0.8 0.4 0.15 -1.5" fill="url(#gradient0)" fill-rule="evenodd" stroke="none"/>
    <path d="M-27.55 -17.0 Q-27.45 -16.95 -26.5 -18.45 L-25.35 -20.05 -23.8 -21.4 Q-22.45 -22.6 -20.1 -23.35 -13.3 -26.05 -8.9 -21.55 -6.75 -19.65 -5.2 -15.7 L-4.45 -13.65 -4.3 -10.7 -4.55 -7.9 Q-4.8 -7.05 -5.7 -5.95 L-6.25 -5.2 -6.45 -4.7 Q-8.25 -2.25 -11.9 -0.9 -17.8 1.3 -23.0 -2.35 -26.45 -4.85 -27.5 -7.6 -28.8 -10.9 -28.45 -12.85 -28.6 -14.65 -27.55 -17.0" fill="url(#gradient1)" fill-rule="evenodd" stroke="none"/>
    <path d="M-2.55 3.35 L-6.65 -0.55 -7.1 -0.95 -4.35 -3.75 -3.75 -4.5 0.15 -1.5 -0.8 0.4 -2.25 3.0 -2.55 3.35" fill="#4b1b1b" fill-rule="evenodd" stroke="none"/>
    <path d="M-27.8 -8.7 Q-26.3 -6.65 -23.15 -5.05 -17.8 -2.25 -12.7 -4.15 -9.25 -5.45 -6.75 -8.35 -5.5 -9.9 -4.3 -12.05 L-4.3 -10.8 Q-4.25 -9.55 -4.55 -8.0 -4.8 -7.15 -5.7 -6.05 L-6.15 -5.2 -6.5 -4.75 Q-8.2 -2.35 -11.9 -0.9 -17.8 1.25 -22.9 -2.4 -26.45 -4.9 -27.45 -7.6 L-27.8 -8.7" fill="#000000" fill-opacity="0.09411765" fill-rule="evenodd" stroke="none"/>
    <path d="M-40.65 -39.2 L-40.7 -39.25 -40.7 -39.15 -40.15 -37.8 -39.5 -36.0 -33.7 -19.5 -28.2 -28.3 -24.9 -13.4 -18.65 -20.75 -15.05 -14.5 -16.05 -29.05 -16.2 -31.1 -21.3 -25.15 -21.35 -25.1 -25.55 -41.85 -26.1 -44.1 -32.1 -32.95 -40.65 -39.2 M-43.7 -40.95 L-44.8 -45.6 -39.35 -41.55 -36.15 -38.95 -34.4 -37.75 -33.55 -37.0 -33.15 -36.85 -32.6 -38.2 -31.1 -40.8 -25.4 -49.25 -25.0 -49.65 -24.7 -48.75 -24.4 -48.0 -24.4 -47.95 -23.45 -44.1 -23.15 -43.1 -22.55 -40.7 -22.05 -39.05 -20.9 -33.8 -19.9 -30.45 -18.2 -32.65 -15.8 -35.0 Q-15.3 -35.35 -14.9 -35.0 -14.55 -34.7 -13.9 -28.9 L-13.1 -20.65 -12.45 -12.05 Q-12.05 -5.6 -12.2 -5.4 -12.5 -5.05 -12.75 -5.05 L-13.15 -5.0 -13.4 -5.2 Q-14.05 -5.75 -15.5 -8.4 L-16.95 -11.25 -18.65 -14.25 -18.95 -14.7 -19.2 -15.05 -19.4 -15.3 -19.7 -15.55 -19.8 -15.8 -23.5 -9.8 -24.45 -8.3 -25.8 -6.45 -25.9 -6.55 -25.9 -6.7 -26.0 -6.9 -26.7 -10.0 -27.1 -12.05 -28.15 -16.2 -29.35 -20.75 -29.6 -22.55 -30.55 -20.7 Q-31.95 -18.5 -32.15 -17.65 -33.1 -15.45 -33.75 -14.65 L-34.1 -14.45 -34.35 -14.3 -34.65 -14.8 -35.45 -17.2 -37.35 -21.65 -39.25 -26.2 -40.75 -31.05 -42.2 -35.85 -43.7 -40.95" fill="#000000" fill-rule="evenodd" stroke="none"/>
    <path d="M-40.65 -39.2 L-32.1 -32.95 -26.1 -44.1 -25.55 -41.85 -30.95 -29.85 Q-32.1 -30.45 -35.65 -33.05 L-39.5 -36.0 -40.15 -37.8 -40.7 -39.15 -40.65 -39.2 M-21.3 -25.15 L-16.2 -31.1 -16.05 -29.05 -20.85 -23.45 -21.3 -25.15" fill="#ffffff" fill-rule="evenodd" stroke="none"/>
    <path d="M-25.55 -41.85 L-21.35 -25.1 -21.3 -25.15 -20.85 -23.45 -16.05 -29.05 -15.05 -14.5 -18.65 -20.75 -24.9 -13.4 -28.2 -28.3 -33.7 -19.5 -39.5 -36.0 -35.65 -33.05 Q-32.1 -30.45 -30.95 -29.85 L-25.55 -41.85" fill="#ffcc33" fill-rule="evenodd" stroke="none"/>
  </g>
  <defs>
    <radialGradient cx="0" cy="0" gradientTransform="matrix(0.9434, -1.1032, 1.1032, 0.9434, -831.9, -1.85)" gradientUnits="userSpaceOnUse" id="gradient0" r="819.2" spreadMethod="pad">
      <stop offset="0.0" stop-color="#950c96"/>
      <stop offset="1.0" stop-color="#974c0b"/>
    </radialGradient>
    <radialGradient cx="0" cy="0" gradientTransform="matrix(0.0208, -0.0078, 0.0078, 0.0208, -19.65, -17.05)" gradientUnits="userSpaceOnUse" id="gradient1" r="819.2" spreadMethod="pad">
      <stop offset="0.0" stop-color="#950c96"/>
      <stop offset="1.0" stop-color="#974c0b"/>
    </radialGradient>
  </defs>
</svg>
