<?xml version="1.0" encoding="UTF-8" standalone="no"?>
<svg xmlns:ffdec="https://www.free-decompiler.com/flash" xmlns:xlink="http://www.w3.org/1999/xlink" ffdec:objectType="shape" height="89.0px" width="92.95px" xmlns="http://www.w3.org/2000/svg">
  <g transform="matrix(1.0, 0.0, 0.0, 1.0, 46.15, 43.5)">
    <path d="M0.8 -21.7 Q1.15 -21.55 1.65 -21.35 L2.25 -21.05 2.4 -17.7 Q2.45 -17.05 1.55 -13.25 L1.2 -12.4 -0.6 -8.4 -1.75 -6.35 -2.2 -5.9 Q-2.55 -5.55 -2.85 -5.65 L-3.55 -6.05 -4.4 -6.1 -2.8 -7.9 Q0.55 -11.55 0.9 -16.0 L0.85 -21.15 0.8 -21.7 M-18.45 -1.15 L-19.15 -0.75 Q-21.95 0.35 -24.9 -0.7 -27.3 -1.55 -29.45 -3.5 L-28.1 -4.5 -27.9 -4.65 Q-26.5 -3.7 -24.8 -3.0 -21.95 -1.75 -18.8 -1.1 L-18.45 -1.15 M-25.4 -6.65 L-20.8 -10.3 -12.95 -16.2 -7.1 -19.9 Q-4.0 -21.5 -1.2 -22.0 L-0.85 -22.05 -0.6 -22.05 Q-1.25 -19.55 -2.55 -17.05 -3.65 -14.55 -5.9 -12.4 -11.0 -7.7 -17.6 -6.6 L-21.6 -6.2 -25.4 -6.65 M-19.15 -37.35 L-18.7 -37.4 -18.75 -37.35 -18.6 -37.2 Q-18.35 -36.95 -18.7 -36.6 L-18.8 -36.5 -19.0 -36.25 -19.8 -35.8 -24.1 -31.7 -27.05 -28.75 -29.8 -25.8 -29.6 -25.9 -30.15 -25.45 -31.85 -23.45 Q-33.75 -21.55 -34.45 -21.25 -34.7 -21.1 -34.95 -21.25 L-35.35 -21.15 -35.35 -21.55 -35.55 -22.45 -35.5 -22.6 Q-35.85 -23.45 -34.1 -26.4 -32.3 -29.5 -30.75 -30.85 L-28.9 -32.6 Q-26.8 -34.6 -22.95 -36.35 L-20.25 -37.25 -19.15 -37.35 M-14.8 -31.5 Q-13.65 -32.55 -12.85 -32.85 L-12.7 -33.0 Q-12.1 -33.6 -9.4 -34.3 L-9.2 -34.3 -8.8 -34.4 -6.4 -33.9 -4.95 -33.45 -4.55 -32.85 -4.05 -32.3 -4.4 -32.2 Q-6.65 -31.55 -9.95 -29.15 L-16.1 -24.3 -26.15 -15.65 Q-29.25 -13.25 -31.25 -12.45 L-31.9 -12.2 -32.15 -11.85 Q-32.85 -11.15 -34.7 -11.3 -35.35 -12.6 -35.1 -13.3 L-35.35 -13.95 -34.95 -14.15 Q-33.2 -14.8 -23.85 -23.45 L-14.8 -31.5" fill="url(#gradient0)" fill-rule="evenodd" stroke="none"/>
    <path d="M0.6 -32.35 Q3.8 -31.2 5.25 -29.75 7.05 -27.95 6.85 -22.45 L6.8 -19.3 6.75 -19.15 6.6 -18.1 Q6.35 -16.85 5.85 -16.35 5.65 -16.15 5.45 -16.15 L5.3 -16.2 4.05 -10.95 Q2.45 -6.25 1.35 -4.6 L1.45 -4.45 2.5 -3.7 2.65 -3.55 4.45 -1.95 4.5 -1.8 4.65 -1.65 5.0 -1.4 7.85 0.95 13.35 5.25 24.2 14.0 35.45 22.35 40.35 25.95 46.45 30.95 46.8 31.3 46.55 33.95 45.5 40.6 44.65 44.25 Q44.55 44.4 44.6 44.5 L44.0 44.8 43.7 44.8 41.15 45.25 40.1 45.5 37.7 45.4 36.95 45.25 31.75 39.85 22.0 30.4 11.95 20.95 1.9 11.7 Q-1.25 8.95 -3.45 7.35 L-6.3 5.4 Q-7.45 4.65 -8.4 5.2 -10.8 4.5 -13.45 6.05 -21.1 10.3 -25.85 9.6 -27.5 9.4 -29.15 8.45 L-30.1 7.1 -30.3 6.8 -30.5 6.4 -31.45 3.75 Q-31.75 2.05 -31.5 0.6 L-31.45 -0.95 -31.55 -0.95 -32.55 -1.65 Q-33.55 -1.2 -34.35 -1.05 L-37.25 -0.65 Q-38.05 -0.75 -38.9 -1.6 L-39.75 -2.75 -40.1 -3.4 -40.2 -3.7 Q-40.5 -5.0 -39.95 -6.85 -39.55 -8.85 -38.4 -10.8 L-38.2 -11.2 -38.35 -11.65 -38.45 -11.85 -40.05 -11.95 -41.3 -12.3 -42.2 -13.1 Q-44.75 -15.65 -41.25 -25.45 -37.8 -35.0 -41.45 -38.65 L-45.8 -41.6 Q-46.15 -41.95 -46.15 -42.55 L-46.0 -42.95 Q-45.85 -43.35 -44.85 -43.45 L-41.95 -43.25 -37.7 -42.2 Q-33.2 -40.7 -31.0 -38.5 L-29.65 -36.95 -29.0 -37.7 Q-25.95 -40.25 -21.2 -40.8 L-16.25 -40.45 Q-15.4 -41.3 -13.2 -42.5 -11.7 -43.6 -8.85 -43.35 -5.45 -43.05 -3.35 -40.95 -2.5 -40.1 -0.9 -37.3 -0.25 -35.95 0.0 -34.5 L0.15 -32.85 0.6 -32.35 M4.65 -25.25 Q3.95 -27.65 2.9 -28.7 L1.7 -29.6 -0.05 -30.05 -2.0 -30.05 Q-3.65 -29.95 -5.05 -29.25 -7.95 -27.85 -13.2 -23.4 L-16.65 -20.45 -22.45 -15.85 -28.55 -11.55 Q-30.95 -10.0 -32.5 -9.5 L-32.6 -9.45 -33.7 -9.3 -33.75 -9.3 -35.7 -9.4 Q-36.35 -9.75 -36.65 -9.15 L-36.95 -7.95 -36.95 -7.9 Q-37.9 -5.8 -36.4 -4.3 -35.8 -3.7 -34.5 -3.9 -33.2 -4.2 -31.2 -5.3 L-29.85 -6.15 -28.0 -7.35 -26.55 -8.45 -12.1 -19.2 Q-6.25 -22.85 -2.2 -23.7 L-0.25 -23.85 0.55 -23.75 1.8 -23.35 1.85 -23.35 3.6 -22.0 4.7 -22.1 Q5.35 -22.75 4.65 -25.25 M-4.4 -6.1 L-3.55 -6.05 -2.85 -5.65 Q-2.55 -5.55 -2.2 -5.9 L-1.75 -6.35 -0.6 -8.4 1.2 -12.4 1.55 -13.25 Q2.45 -17.05 2.4 -17.7 L2.25 -21.05 1.65 -21.35 Q1.15 -21.55 0.8 -21.7 L-0.15 -22.05 -0.6 -22.05 -0.85 -22.05 -1.2 -22.0 Q-4.0 -21.5 -7.1 -19.9 L-12.95 -16.2 -20.8 -10.3 -25.4 -6.65 -27.9 -4.65 -28.1 -4.5 -29.45 -3.5 Q-27.3 -1.55 -24.9 -0.7 -21.95 0.35 -19.15 -0.75 L-18.45 -1.15 -17.95 -1.45 -17.5 -1.7 Q-16.65 -2.05 -15.55 -2.65 L-13.65 -3.65 -9.8 -5.3 -7.7 -6.1 -5.15 -6.25 -4.4 -6.1 M1.5 -1.5 Q0.7 -2.0 0.15 -2.15 L-0.25 -2.25 -0.6 -2.4 -0.55 -2.45 -2.05 -3.35 -3.45 -4.25 Q-3.75 -4.55 -4.1 -4.5 L-4.9 -4.7 -5.4 -4.8 -5.65 -4.85 -6.05 -4.95 -8.55 -4.55 -9.5 -4.1 -18.9 0.2 Q-21.95 1.55 -22.95 1.35 L-23.1 1.3 Q-24.05 1.55 -26.2 0.2 -27.35 -0.25 -28.15 -0.85 L-28.95 -1.45 -29.0 -0.25 Q-29.1 1.5 -28.8 2.2 L-28.15 3.95 -27.15 4.95 -26.35 5.75 -25.25 6.15 -23.05 6.25 -20.4 5.8 Q-18.85 5.65 -14.55 3.75 -10.55 1.95 -9.05 2.15 -7.6 2.2 -6.05 3.05 L-5.65 3.15 Q-5.35 3.15 -4.9 3.4 L-4.15 3.65 -4.1 3.7 -4.05 3.65 -4.0 3.7 -3.55 3.75 -2.65 4.25 -1.5 5.0 -0.55 5.75 0.15 6.45 1.25 7.45 2.3 8.4 3.6 9.3 3.65 9.35 6.05 11.75 6.75 12.55 8.25 13.95 9.25 14.95 9.4 15.1 9.9 15.4 11.35 16.65 12.2 17.7 15.05 20.25 19.75 24.45 21.05 25.75 21.25 26.05 22.0 26.8 Q22.0 27.2 22.35 27.55 L22.3 27.7 22.45 27.65 23.25 28.15 23.3 28.2 25.4 30.8 26.45 31.65 26.8 32.1 33.7 39.4 36.9 42.1 37.65 42.45 37.55 42.55 37.8 42.5 38.15 42.65 38.3 42.7 38.95 42.85 Q41.0 43.3 42.25 42.15 L42.55 42.15 42.5 41.9 Q43.25 41.05 43.6 38.8 L44.0 35.7 Q44.75 31.65 43.65 30.55 43.0 30.0 42.45 30.15 L41.7 29.3 38.7 27.0 35.9 25.1 32.95 23.2 Q31.9 22.3 31.25 22.25 L30.95 22.05 30.45 21.65 28.3 20.2 28.15 20.15 27.6 19.6 26.65 18.55 22.85 15.35 20.65 13.55 20.6 13.5 20.1 13.1 19.85 12.95 17.3 11.6 17.25 11.55 15.35 10.25 15.1 10.2 14.0 9.4 13.9 9.3 12.5 8.2 12.4 8.1 11.7 7.6 9.35 5.85 8.65 4.75 6.65 2.95 6.5 2.8 5.35 1.75 2.95 -0.45 2.15 -1.05 1.5 -1.5 M-20.4 -29.05 L-20.35 -29.15 -20.25 -29.25 -20.0 -29.5 -18.15 -31.05 -17.65 -31.45 -14.7 -33.4 Q-13.55 -34.35 -11.65 -35.05 L-11.55 -35.15 Q-10.65 -36.05 -6.4 -35.1 L-4.1 -34.3 -3.75 -34.15 -3.75 -34.25 -4.05 -36.15 -5.15 -38.05 -6.25 -38.85 -7.75 -39.35 Q-10.1 -39.6 -12.0 -38.8 -16.1 -37.1 -21.65 -32.65 L-22.05 -32.05 -29.7 -24.4 -31.05 -22.95 -31.6 -22.5 -31.85 -22.25 Q-34.55 -19.55 -35.4 -19.9 -35.7 -19.9 -36.0 -20.2 L-36.25 -20.65 -36.4 -20.8 Q-37.05 -21.45 -36.45 -23.25 L-35.35 -26.05 Q-34.9 -27.7 -34.0 -28.8 L-33.4 -29.6 -32.4 -31.0 -31.8 -31.6 -31.55 -31.85 Q-31.5 -33.1 -31.85 -33.85 -32.95 -35.85 -34.4 -37.3 L-35.5 -38.4 -36.75 -39.25 -37.15 -39.35 -38.75 -39.85 -37.2 -38.5 -36.15 -36.25 -35.75 -34.95 -35.7 -34.8 -35.25 -33.35 -35.15 -32.65 -35.25 -31.45 Q-35.8 -29.6 -37.7 -25.3 -38.8 -23.2 -38.85 -22.25 L-39.1 -21.4 Q-39.8 -18.4 -39.0 -17.0 -37.9 -14.9 -34.35 -17.15 -30.4 -19.6 -20.4 -29.05 M-19.15 -37.35 L-20.25 -37.25 -22.95 -36.35 Q-26.8 -34.6 -28.9 -32.6 L-30.75 -30.85 Q-32.3 -29.5 -34.1 -26.4 -35.85 -23.45 -35.5 -22.6 L-35.55 -22.45 -35.35 -21.55 -35.35 -21.15 -34.95 -21.25 Q-34.7 -21.1 -34.45 -21.25 -33.75 -21.55 -31.85 -23.45 L-30.15 -25.45 -29.6 -25.9 -29.8 -25.8 -27.05 -28.75 -24.1 -31.7 -19.8 -35.8 -19.0 -36.25 -18.8 -36.5 -18.7 -36.6 Q-18.35 -36.95 -18.6 -37.2 L-18.75 -37.35 -18.7 -37.4 -19.15 -37.35 M-14.8 -31.5 L-23.85 -23.45 Q-33.2 -14.8 -34.95 -14.15 L-35.35 -13.95 -35.1 -13.3 Q-35.35 -12.6 -34.7 -11.3 -32.85 -11.15 -32.15 -11.85 L-31.9 -12.2 -31.25 -12.45 Q-29.25 -13.25 -26.15 -15.65 L-16.1 -24.3 -9.95 -29.15 Q-6.65 -31.55 -4.4 -32.2 L-4.05 -32.3 -4.55 -32.85 -4.95 -33.45 -6.4 -33.9 -8.8 -34.4 -9.2 -34.3 -9.4 -34.3 Q-12.1 -33.6 -12.7 -33.0 L-12.85 -32.85 Q-13.65 -32.55 -14.8 -31.5" fill="#000000" fill-rule="evenodd" stroke="none"/>
    <path d="M0.8 -21.7 L0.85 -21.15 0.9 -16.0 Q0.55 -11.55 -2.8 -7.9 L-4.4 -6.1 -5.15 -6.25 -7.7 -6.1 -9.8 -5.3 -13.65 -3.65 -15.55 -2.65 Q-16.65 -2.05 -17.5 -1.7 L-17.95 -1.45 -18.45 -1.15 -18.8 -1.1 Q-21.95 -1.75 -24.8 -3.0 -26.5 -3.7 -27.9 -4.65 L-25.4 -6.65 -21.6 -6.2 -17.6 -6.6 Q-11.0 -7.7 -5.9 -12.4 -3.65 -14.55 -2.55 -17.05 -1.25 -19.55 -0.6 -22.05 L-0.15 -22.05 0.8 -21.7" fill="#024a2d" fill-rule="evenodd" stroke="none"/>
    <path d="M1.5 -1.5 L2.15 -1.05 1.3 2.4 5.35 1.75 6.5 2.8 6.65 2.95 6.75 7.05 11.2 7.5 11.7 7.6 12.4 8.1 12.5 8.2 13.9 9.3 14.0 9.4 14.15 10.05 15.0 14.0 20.6 13.6 21.35 19.55 28.15 20.15 28.3 20.2 30.45 21.65 21.4 20.9 22.35 27.55 Q22.0 27.2 22.0 26.8 L21.25 26.05 21.05 25.75 20.5 20.8 15.05 20.25 13.85 14.95 10.45 15.15 10.55 15.05 9.4 15.1 9.25 14.95 8.25 13.95 12.45 14.25 13.65 14.15 13.3 12.3 13.35 12.25 12.65 8.75 6.75 8.05 6.75 12.55 6.05 11.75 5.9 7.9 1.25 7.45 0.15 6.45 -0.55 5.75 0.15 3.25 -3.55 3.75 -4.0 3.7 -4.05 3.65 -4.1 3.7 -4.15 3.65 -4.9 3.4 0.35 2.55 1.5 -1.5 M0.15 6.45 L5.9 7.0 5.75 2.5 1.1 3.1 0.15 6.45 M19.85 14.65 L15.25 14.85 16.35 19.15 20.35 19.55 19.85 14.65" fill="#7e2601" fill-rule="evenodd" stroke="none"/>
    <path d="M-0.6 -2.4 L-0.25 -2.25 0.15 -2.15 Q0.7 -2.0 1.5 -1.5 L0.35 2.55 -4.9 3.4 Q-5.35 3.15 -5.65 3.15 L-6.05 3.05 -0.6 -2.4 M2.15 -1.05 L2.95 -0.45 5.35 1.75 1.3 2.4 2.15 -1.05 M6.65 2.95 L8.65 4.75 9.35 5.85 9.45 6.05 11.2 7.5 6.75 7.05 6.65 2.95 M17.25 11.55 L17.3 11.6 19.85 12.95 20.1 13.1 20.6 13.5 20.65 13.55 22.85 15.35 26.65 18.55 27.6 19.6 28.15 20.15 21.35 19.55 20.6 13.6 15.0 14.0 14.15 10.05 14.7 10.6 16.6 12.2 17.25 11.55 M30.45 21.65 L30.95 22.05 31.25 22.25 Q31.9 22.3 32.95 23.2 L35.9 25.1 38.7 27.0 41.7 29.3 42.45 30.15 Q43.0 30.0 43.65 30.55 44.75 31.65 44.0 35.7 L43.6 38.8 Q43.25 41.05 42.5 41.9 L42.55 42.15 42.25 42.15 Q41.0 43.3 38.95 42.85 L38.3 42.7 38.15 42.65 37.8 42.5 37.55 42.55 37.65 42.45 36.9 42.1 33.7 39.4 26.8 32.1 26.45 31.65 25.4 30.8 23.3 28.2 23.25 28.15 22.45 27.65 22.3 27.7 22.35 27.55 21.4 20.9 30.45 21.65 M21.05 25.75 L19.75 24.45 15.05 20.25 12.2 17.7 11.35 16.65 9.9 15.4 9.4 15.1 10.55 15.05 10.45 15.15 13.85 14.95 15.05 20.25 20.5 20.8 21.05 25.75 M8.25 13.95 L6.75 12.55 6.75 8.05 12.65 8.75 13.35 12.25 13.3 12.3 13.65 14.15 12.45 14.25 8.25 13.95 M6.05 11.75 L3.65 9.35 3.6 9.3 2.3 8.4 1.25 7.45 5.9 7.9 6.05 11.75 M-0.55 5.75 L-1.5 5.0 -2.65 4.25 -3.55 3.75 0.15 3.25 -0.55 5.75 M0.15 6.45 L1.1 3.1 5.75 2.5 5.9 7.0 0.15 6.45 M19.85 14.65 L20.35 19.55 16.35 19.15 15.25 14.85 19.85 14.65" fill="url(#gradient1)" fill-rule="evenodd" stroke="none"/>
    <path d="M9.35 5.85 L11.7 7.6 11.2 7.5 9.45 6.05 9.35 5.85 M14.0 9.4 L15.1 10.2 14.7 10.6 14.15 10.05 14.0 9.4" fill="url(#gradient2)" fill-rule="evenodd" stroke="none"/>
    <path d="M15.1 10.2 L15.35 10.25 17.25 11.55 16.6 12.2 14.7 10.6 15.1 10.2" fill="url(#gradient3)" fill-rule="evenodd" stroke="none"/>
    <path d="M-6.05 3.05 Q-7.6 2.2 -9.05 2.15 -10.55 1.95 -14.55 3.75 -18.85 5.65 -20.4 5.8 L-23.05 6.25 -25.25 6.15 -26.35 5.75 -27.15 4.95 -28.15 3.95 -28.8 2.2 Q-29.1 1.5 -29.0 -0.25 L-28.95 -1.45 -28.15 -0.85 Q-27.35 -0.25 -26.2 0.2 -24.05 1.55 -23.1 1.3 L-22.95 1.35 Q-21.95 1.55 -18.9 0.2 L-9.5 -4.1 -8.55 -4.55 -6.05 -4.95 -5.65 -4.85 -5.4 -4.8 -4.9 -4.7 -4.1 -4.5 Q-3.75 -4.55 -3.45 -4.25 L-2.05 -3.35 -0.55 -2.45 -0.6 -2.4 -6.05 3.05 M-38.85 -22.25 Q-38.8 -23.2 -37.7 -25.3 -35.8 -29.6 -35.25 -31.45 L-35.15 -32.65 -35.25 -33.35 -35.7 -34.8 -35.75 -34.95 -36.15 -36.25 -37.2 -38.5 -38.75 -39.85 -37.15 -39.35 -36.75 -39.25 -35.5 -38.4 -34.4 -37.3 Q-32.95 -35.85 -31.85 -33.85 -31.5 -33.1 -31.55 -31.85 L-31.8 -31.6 -32.4 -31.0 -33.4 -29.6 -34.0 -28.8 Q-34.9 -27.7 -35.35 -26.05 L-36.45 -23.25 Q-37.05 -21.45 -36.4 -20.8 L-36.25 -20.65 -36.0 -20.2 Q-35.7 -19.9 -35.4 -19.9 -34.55 -19.55 -31.85 -22.25 L-31.6 -22.5 -31.05 -22.95 -29.7 -24.4 -22.05 -32.05 -21.65 -32.65 Q-16.1 -37.1 -12.0 -38.8 -10.1 -39.6 -7.75 -39.35 L-6.25 -38.85 -5.15 -38.05 -4.05 -36.15 -3.75 -34.25 -3.75 -34.15 -4.1 -34.3 -6.4 -35.1 Q-10.65 -36.05 -11.55 -35.15 L-11.65 -35.05 Q-13.55 -34.35 -14.7 -33.4 L-17.65 -31.45 -18.15 -31.05 -20.0 -29.5 -20.25 -29.25 -20.35 -29.15 -20.4 -29.05 -21.2 -29.0 -21.25 -29.05 -29.85 -20.85 -32.3 -18.9 Q-34.25 -17.65 -35.3 -17.6 -35.35 -17.05 -35.65 -16.75 L-36.6 -16.7 -36.75 -17.05 Q-37.85 -16.75 -38.4 -17.7 -39.05 -18.85 -38.2 -21.95 L-37.75 -22.85 -38.2 -22.1 -38.55 -21.75 -38.8 -21.8 -38.85 -22.25 M-36.25 -26.25 L-36.35 -26.15 -36.4 -25.9 -36.25 -26.25 M-12.05 -1.05 L-11.95 -0.65 -10.9 -0.6 -9.15 -1.35 -9.3 -1.5 -9.55 -2.15 -8.15 -1.95 Q-8.0 -2.3 -8.2 -2.8 L-8.7 -2.6 -9.3 -2.4 -9.4 -2.3 -9.8 -2.1 -11.25 -1.45 -12.05 -1.05 M-25.3 3.5 L-25.5 3.5 -24.75 3.85 -24.0 3.9 -24.9 3.6 -25.3 3.5" fill="url(#gradient4)" fill-rule="evenodd" stroke="none"/>
    <path d="M-20.4 -29.05 Q-30.4 -19.6 -34.35 -17.15 -37.9 -14.9 -39.0 -17.0 -39.8 -18.4 -39.1 -21.4 L-38.85 -22.25 -38.8 -21.8 -38.55 -21.75 -38.2 -22.1 -37.75 -22.85 -38.2 -21.95 Q-39.05 -18.85 -38.4 -17.7 -37.85 -16.75 -36.75 -17.05 L-36.6 -16.7 -35.65 -16.75 Q-35.35 -17.05 -35.3 -17.6 -34.25 -17.65 -32.3 -18.9 L-29.85 -20.85 -21.25 -29.05 -21.2 -29.0 -20.4 -29.05 M-36.25 -26.25 L-36.4 -25.9 -36.35 -26.15 -36.25 -26.25 M-25.3 3.5 L-24.9 3.6 -24.0 3.9 -24.75 3.85 -25.5 3.5 -25.3 3.5 M-12.05 -1.05 L-11.25 -1.45 -9.8 -2.1 -9.4 -2.3 -9.3 -2.4 -8.7 -2.6 -8.2 -2.8 Q-8.0 -2.3 -8.15 -1.95 L-9.55 -2.15 -9.3 -1.5 -9.15 -1.35 -10.9 -0.6 -11.95 -0.65 -12.05 -1.05" fill="url(#gradient5)" fill-rule="evenodd" stroke="none"/>
    <path d="M4.65 -25.25 Q5.35 -22.75 4.7 -22.1 L3.6 -22.0 1.85 -23.35 1.8 -23.35 0.55 -23.75 -0.25 -23.85 -2.2 -23.7 Q-6.25 -22.85 -12.1 -19.2 L-26.55 -8.45 -28.0 -7.35 -29.85 -6.15 -31.2 -5.3 Q-33.2 -4.2 -34.5 -3.9 -35.8 -3.7 -36.4 -4.3 -37.9 -5.8 -36.95 -7.9 L-36.95 -7.95 -36.65 -9.15 Q-36.35 -9.75 -35.7 -9.4 L-33.75 -9.3 -33.7 -9.3 -32.6 -9.45 -32.5 -9.5 Q-30.95 -10.0 -28.55 -11.55 L-22.45 -15.85 -16.65 -20.45 -13.2 -23.4 Q-7.95 -27.85 -5.05 -29.25 -3.65 -29.95 -2.0 -30.05 L-0.05 -30.05 1.7 -29.6 2.9 -28.7 Q3.95 -27.65 4.65 -25.25" fill="#fee801" fill-rule="evenodd" stroke="none"/>
  </g>
  <defs>
    <radialGradient cx="0" cy="0" gradientTransform="matrix(0.022, -0.022, 0.022, 0.022, -22.05, -32.05)" gradientUnits="userSpaceOnUse" id="gradient0" r="819.2" spreadMethod="pad">
      <stop offset="0.0" stop-color="#ffffff"/>
      <stop offset="0.5215686274509804" stop-color="#04abf2"/>
      <stop offset="1.0" stop-color="#02643d"/>
    </radialGradient>
    <linearGradient gradientTransform="matrix(0.0824, 0.1347, -0.0797, 0.0437, -129.45, 155.95)" gradientUnits="userSpaceOnUse" id="gradient1" spreadMethod="pad" x1="-819.2" x2="819.2">
      <stop offset="0.0" stop-color="#ffff00"/>
      <stop offset="0.6470588235294118" stop-color="#fd3a0b"/>
      <stop offset="1.0" stop-color="#cc3333"/>
    </linearGradient>
    <linearGradient gradientTransform="matrix(1.7334, 1.6769, -0.3534, -0.2121, -596.15, -280.25)" gradientUnits="userSpaceOnUse" id="gradient2" spreadMethod="pad" x1="-819.2" x2="819.2">
      <stop offset="0.0" stop-color="#ffff00"/>
      <stop offset="0.6470588235294118" stop-color="#fd3a0b"/>
      <stop offset="1.0" stop-color="#cc3333"/>
    </linearGradient>
    <linearGradient gradientTransform="matrix(0.0802, 0.1369, -0.0793, 0.0433, -128.75, 155.2)" gradientUnits="userSpaceOnUse" id="gradient3" spreadMethod="pad" x1="-819.2" x2="819.2">
      <stop offset="0.0" stop-color="#ffff00"/>
      <stop offset="0.6470588235294118" stop-color="#fd3a0b"/>
      <stop offset="1.0" stop-color="#cc3333"/>
    </linearGradient>
    <linearGradient gradientTransform="matrix(0.0763, 0.1408, -0.0787, 0.0427, -130.3, 156.8)" gradientUnits="userSpaceOnUse" id="gradient4" spreadMethod="pad" x1="-819.2" x2="819.2">
      <stop offset="0.0" stop-color="#ffff00"/>
      <stop offset="0.6470588235294118" stop-color="#fd3a0b"/>
      <stop offset="1.0" stop-color="#cc3333"/>
    </linearGradient>
    <linearGradient gradientTransform="matrix(0.0763, 0.1408, -0.0787, 0.0427, -127.75, 154.25)" gradientUnits="userSpaceOnUse" id="gradient5" spreadMethod="pad" x1="-819.2" x2="819.2">
      <stop offset="0.0" stop-color="#ffff00"/>
      <stop offset="0.6470588235294118" stop-color="#fd3a0b"/>
      <stop offset="1.0" stop-color="#cc3333"/>
    </linearGradient>
  </defs>
</svg>
