<?xml version="1.0" encoding="UTF-8" standalone="no"?>
<svg xmlns:ffdec="https://www.free-decompiler.com/flash" xmlns:xlink="http://www.w3.org/1999/xlink" ffdec:objectType="shape" height="65.6px" width="145.4px" xmlns="http://www.w3.org/2000/svg">
  <g transform="matrix(1.0, 0.0, 0.0, 1.0, 49.7, 18.6)">
    <path d="M-45.85 11.55 L-46.35 11.45 Q-48.5 11.0 -48.5 10.0 -48.5 9.2 -47.85 8.55 L-49.1 8.4 Q-49.7 8.25 -49.7 7.4 -49.7 6.95 -47.65 4.8 L-44.3 1.7 -44.25 1.65 -45.2 1.7 Q-46.05 1.55 -46.05 0.65 -46.05 0.2 -40.9 -4.15 L-33.2 -10.35 -33.15 -10.5 Q-38.8 -11.2 -43.4 -10.5 -44.1 -10.6 -44.1 -11.4 -44.1 -12.75 -35.2 -16.65 L-33.75 -17.7 -31.35 -17.85 -19.35 -18.6 Q-9.95 -18.6 0.5 -15.85 10.1 -13.35 25.35 -7.2 L26.1 -6.3 26.15 -5.75 24.8 -2.25 Q23.95 -0.3 23.9 1.25 L29.15 2.4 33.95 3.15 Q36.75 3.15 38.3 1.2 L41.75 -3.05 46.05 -6.85 49.1 -9.45 56.45 -5.65 66.15 -0.75 75.3 3.45 79.5 4.6 Q80.75 4.9 81.45 5.65 83.05 6.2 82.2 6.9 L82.1 7.2 81.55 7.35 81.4 7.35 Q78.4 8.25 77.75 8.7 L77.7 8.85 81.5 11.05 85.25 13.4 Q84.45 14.65 81.0 14.3 L80.05 14.5 78.9 14.7 78.35 14.85 81.95 18.25 Q84.6 20.95 84.6 21.4 84.6 22.1 82.25 23.4 L86.55 27.2 91.2 31.8 91.25 32.25 90.75 32.8 89.35 31.8 88.25 31.0 Q87.15 30.3 86.75 30.3 86.25 30.3 86.25 30.45 L86.25 31.05 86.85 32.1 88.1 32.9 87.2 32.65 86.45 32.45 85.4 32.55 65.3 25.35 58.5 23.85 50.4 21.8 36.3 19.25 Q35.8 19.25 33.85 20.75 31.95 22.25 31.35 22.25 30.9 22.25 30.75 21.95 L29.1 19.25 28.95 19.25 13.9 16.55 Q0.35 13.8 -2.85 13.8 -4.75 13.8 -9.75 12.6 -14.7 11.4 -18.3 11.4 L-23.35 10.95 -30.55 10.5 -36.95 11.1 -43.35 11.7 -43.6 11.7 Q-46.45 9.9 -47.1 9.8 L-47.55 10.2 -45.85 11.55 M-47.1 6.75 L-47.15 6.75 Q-47.35 6.8 -47.15 6.8 L-47.1 6.75 M29.6 18.5 L29.55 18.15 29.55 18.55 29.6 18.5 M78.1 6.05 L77.95 6.55 78.65 6.25 78.1 6.05 M-40.4 -12.35 L-40.4 -12.45 -40.8 -12.3 -40.4 -12.35" fill="#37230b" fill-rule="evenodd" stroke="none"/>
    <path d="M90.75 32.8 L92.85 33.95 93.3 34.5 93.45 35.1 Q93.45 36.15 91.05 37.85 L88.35 39.6 92.15 42.4 Q93.9 43.6 95.55 45.75 L95.7 46.2 94.8 47.0 Q93.9 47.0 78.95 41.85 L60.0 35.1 Q48.8 30.8 43.05 29.9 L35.25 28.45 28.2 27.15 16.35 25.5 8.85 24.3 4.05 23.85 2.1 23.55 0.15 23.25 -4.25 22.8 -9.95 22.3 -17.05 21.75 -24.0 21.5 -36.0 20.85 -38.8 21.05 -41.7 21.65 -44.45 22.5 -46.8 23.15 -47.4 23.1 Q-47.75 22.95 -47.75 22.2 -47.75 21.5 -44.65 18.8 L-40.65 15.5 -45.85 11.55 -47.55 10.2 -47.1 9.8 Q-46.45 9.9 -43.6 11.7 L-43.4 11.8 -43.35 11.7 -36.95 11.1 -30.55 10.5 -23.35 10.95 -18.3 11.4 Q-14.7 11.4 -9.75 12.6 -4.75 13.8 -2.85 13.8 0.35 13.8 13.9 16.55 L28.95 19.25 29.1 19.25 30.75 21.95 Q30.9 22.25 31.35 22.25 31.95 22.25 33.85 20.75 35.8 19.25 36.3 19.25 L50.4 21.8 58.5 23.85 65.3 25.35 85.4 32.55 86.45 32.45 87.2 32.65 88.1 32.9 86.85 32.1 86.25 31.05 86.25 30.45 Q86.25 30.3 86.75 30.3 87.15 30.3 88.25 31.0 L89.35 31.8 90.75 32.8" fill="#5c3f21" fill-rule="evenodd" stroke="none"/>
  </g>
</svg>
