<?xml version="1.0" encoding="UTF-8" standalone="no"?>
<svg xmlns:ffdec="https://www.free-decompiler.com/flash" xmlns:xlink="http://www.w3.org/1999/xlink" ffdec:objectType="shape" height="63.95px" width="67.35px" xmlns="http://www.w3.org/2000/svg">
  <g transform="matrix(1.0, 0.0, 0.0, 1.0, 32.1, 30.0)">
    <path d="M-27.3 -12.85 L-26.8 -12.85 Q-26.5 -13.75 -23.05 -13.75 -18.65 -13.5 -17.45 -13.65 L-21.75 -19.15 -21.65 -19.5 -14.75 -19.35 -14.55 -19.15 Q-14.4 -19.05 -14.4 -19.5 -14.4 -20.75 -19.4 -26.15 -19.4 -26.9 -18.6 -26.9 -17.45 -26.9 -15.85 -26.25 -14.25 -25.65 -13.65 -25.65 L-13.2 -25.7 -13.35 -25.8 -16.5 -29.7 Q-16.5 -30.75 -10.25 -27.8 -4.35 -25.0 1.55 -21.3 L9.25 -15.6 11.1 -14.25 11.6 -14.2 11.85 -13.65 12.1 -13.45 11.85 -13.5 11.7 -13.5 Q9.9 -11.45 9.45 -10.5 9.15 -9.85 9.15 -8.25 9.15 -6.85 10.3 -6.0 11.45 -5.1 13.5 -5.1 15.65 -5.1 16.2 -6.75 L16.35 -8.85 16.5 -9.0 17.1 -9.15 Q17.5 -9.15 18.6 -6.45 19.85 -3.35 20.25 -2.85 L21.1 -3.9 Q21.7 -4.8 22.2 -4.8 L22.85 -4.5 22.95 -4.5 24.0 -3.5 25.1 -2.05 28.7 2.25 30.0 4.5 29.95 4.7 29.65 4.8 Q32.55 8.6 34.65 12.2 L35.25 11.85 35.15 12.2 Q34.8 13.7 34.6 15.25 L34.5 15.05 Q34.1 16.15 34.1 17.45 L33.05 17.7 Q32.7 17.7 31.05 16.9 29.3 16.05 28.85 15.6 28.2 17.2 28.95 20.85 L28.85 21.3 Q28.9 21.5 28.15 21.5 27.2 21.5 24.5 19.25 L24.45 21.1 24.25 23.4 24.2 26.45 24.15 27.05 23.6 27.2 23.2 27.05 23.05 27.15 22.6 26.7 21.95 26.1 21.7 25.7 20.95 24.75 20.25 23.9 19.75 23.15 19.75 23.1 19.65 22.75 19.75 22.5 Q13.0 13.95 2.1 5.1 -4.6 -0.35 -16.7 -7.05 -22.0 -10.0 -26.25 -12.05 L-26.4 -12.05 -27.3 -12.85 M21.85 -2.05 L21.85 -2.1 21.75 -1.95 21.85 -2.05" fill="#37230b" fill-rule="evenodd" stroke="none"/>
    <path d="M-27.3 -12.85 L-26.4 -12.05 -26.35 -12.0 -26.25 -12.05 Q-22.0 -10.0 -16.7 -7.05 -4.6 -0.35 2.1 5.1 13.0 13.95 19.75 22.5 L19.65 22.75 19.75 23.1 19.65 23.15 19.75 23.15 20.25 23.9 20.95 24.75 21.7 25.7 21.95 26.1 21.05 25.75 19.8 24.8 19.95 31.55 Q19.95 33.45 18.75 33.45 17.85 33.45 16.55 32.0 L15.15 30.3 Q15.0 30.95 15.2 32.7 15.2 33.95 14.0 33.95 13.55 33.95 5.55 26.9 -4.1 18.45 -6.5 16.55 L-11.8 12.15 -17.1 7.8 -24.5 3.25 Q-29.4 0.45 -29.4 0.0 -29.4 -0.45 -28.2 -0.8 L-26.55 -1.35 Q-27.2 -1.9 -28.5 -2.55 L-30.75 -3.65 Q-31.4 -4.0 -31.65 -5.3 L-32.1 -7.4 -32.0 -7.8 -31.45 -8.0 -24.3 -6.35 -28.1 -12.3 Q-28.1 -13.4 -27.3 -12.85" fill="#5c3f21" fill-rule="evenodd" stroke="none"/>
  </g>
</svg>
