<?xml version="1.0" encoding="UTF-8" standalone="no"?>
<svg xmlns:ffdec="https://www.free-decompiler.com/flash" xmlns:xlink="http://www.w3.org/1999/xlink" ffdec:objectType="shape" height="376.2px" width="311.65px" xmlns="http://www.w3.org/2000/svg">
  <g transform="matrix(1.0, 0.0, 0.0, 1.0, 176.8, 159.8)">
    <path d="M-145.75 -13.05 L-146.15 -13.55 -145.95 -13.8 -145.75 -13.05 M-146.15 -39.45 L-146.5 -40.0 -145.65 -40.7 -144.75 -41.3 -145.3 -40.45 -146.05 -39.55 -146.15 -39.45 M-153.65 -46.65 L-154.05 -47.0 -152.5 -48.0 -153.65 -46.65 M-137.95 -22.55 L-137.95 -22.6 -137.9 -22.5 -137.95 -22.55" fill="#cccee3" fill-rule="evenodd" stroke="none"/>
    <path d="M-67.95 -106.6 L-67.7 -106.6 -67.95 -106.55 -67.95 -106.6 M-79.7 -106.8 L-79.75 -106.5 -79.8 -106.45 -79.85 -106.45 -79.7 -106.8 M74.65 119.65 L74.65 119.7 74.6 119.85 74.25 120.8 74.2 119.65 74.65 119.65 M59.25 132.3 L57.0 132.8 57.2 132.4 59.25 132.3" fill="#3e3e3e" fill-rule="evenodd" stroke="none"/>
    <path d="M-163.9 -42.5 L-158.95 -46.15 -149.75 -52.85 Q-150.7 -57.7 -151.05 -62.7 -153.7 -61.4 -155.35 -61.45 -157.15 -61.65 -158.25 -63.45 -160.7 -67.3 -159.45 -71.95 -158.4 -75.8 -156.3 -77.1 L-153.7 -77.35 Q-152.0 -76.95 -151.35 -76.0 -150.25 -103.8 -135.1 -127.4 -136.45 -123.1 -137.15 -118.7 -137.65 -115.0 -136.65 -110.05 -135.65 -105.1 -133.9 -102.3 -132.6 -100.25 -130.6 -98.15 -125.2 -90.8 -118.95 -90.0 L-105.35 -89.25 Q-101.35 -89.25 -95.6 -91.6 L-89.1 -94.0 -88.9 -94.0 -85.7 -93.8 -85.45 -93.85 Q-85.3 -93.1 -84.75 -92.25 L-82.45 -89.0 -80.6 -85.95 -79.6 -84.4 -82.45 -82.65 Q-88.95 -78.9 -96.4 -76.6 -109.35 -72.55 -119.55 -75.6 -123.95 -77.85 -127.9 -81.05 -132.65 -84.9 -134.95 -88.5 L-136.45 -91.1 Q-137.1 -92.4 -137.15 -93.95 -138.4 -91.55 -139.95 -86.9 L-141.55 -81.65 Q-142.45 -78.75 -142.75 -76.65 L-142.75 -78.75 Q-143.7 -75.7 -144.3 -71.9 -145.35 -65.55 -145.1 -59.3 -144.8 -51.95 -141.95 -43.4 -139.5 -35.9 -136.35 -30.95 -135.2 -29.1 -129.0 -22.0 L-128.8 -21.8 -128.0 -20.9 -128.0 -20.85 -127.95 -20.9 -126.4 -19.15 Q-124.55 -17.1 -123.9 -16.75 L-123.8 -16.55 -123.85 -16.75 Q-124.75 -21.4 -123.4 -37.85 L-123.05 -39.3 -122.2 -44.25 -121.15 -48.6 Q-120.4 -51.5 -120.3 -52.85 -119.85 -56.75 -118.45 -63.7 L-118.15 -65.2 -118.05 -64.5 -117.85 -62.1 -118.0 -59.55 -118.3 -49.45 -118.75 -39.7 -119.3 -36.45 Q-122.15 -18.9 -121.35 -14.4 L-121.25 -14.35 -121.05 -14.15 -120.95 -14.05 -120.3 -13.4 -120.4 -13.3 Q-117.4 -9.55 -107.5 -5.95 -98.05 -2.5 -95.0 -2.5 L-93.5 -2.7 -93.55 -2.8 Q-95.55 -2.8 -100.0 -6.65 -104.8 -10.8 -104.8 -13.7 L-105.1 -15.75 -105.4 -17.55 Q-105.4 -21.65 -97.8 -30.2 -94.8 -33.6 -91.6 -36.35 -80.7 -43.15 -75.35 -45.45 -70.7 -47.4 -64.35 -49.0 -72.8 -45.7 -77.4 -42.4 -89.85 -33.35 -92.45 -22.35 -94.5 -13.9 -90.65 -7.75 L-88.7 -4.85 Q-87.95 -3.9 -85.45 -2.05 L-83.9 -0.7 -82.85 0.1 -84.55 0.75 -93.6 4.3 -101.0 5.4 -103.4 5.7 -109.95 5.4 Q-116.0 4.7 -121.65 2.5 -125.5 1.0 -130.9 -1.9 -135.15 -4.2 -139.5 -7.6 L-133.5 -15.95 -135.3 -18.6 -141.95 -9.7 -143.85 -11.35 -136.7 -20.65 -137.9 -22.5 -137.95 -22.6 -137.95 -22.55 Q-140.0 -20.75 -145.95 -13.8 L-146.15 -13.55 -147.4 -14.7 -139.15 -24.6 -139.25 -24.75 Q-142.65 -30.45 -145.1 -36.55 L-155.95 -25.85 -157.05 -27.65 -154.9 -29.95 Q-148.55 -36.65 -146.15 -39.45 L-146.05 -39.55 -145.3 -40.45 -144.75 -41.3 -145.65 -40.7 -146.5 -40.0 -146.55 -39.95 -158.45 -30.0 -160.75 -34.65 -162.5 -38.9 -161.6 -39.6 -153.65 -46.65 -152.5 -48.0 -154.05 -47.0 -154.45 -46.8 -162.95 -40.0 -163.9 -42.5 M-104.15 -71.15 Q-94.65 -70.65 -86.25 -75.95 -83.0 -77.95 -81.3 -81.3 L-80.2 -83.25 -79.55 -84.35 -79.1 -83.7 -78.65 -82.95 -70.8 -70.5 -72.45 -65.2 Q-77.7 -68.25 -79.85 -69.9 -80.2 -69.05 -80.95 -64.0 L-81.7 -57.15 -84.1 -56.35 -87.15 -54.5 -87.8 -54.55 Q-89.2 -54.1 -93.55 -49.9 -99.7 -43.6 -101.0 -42.55 -103.7 -49.2 -104.4 -50.25 -105.2 -51.55 -106.85 -51.95 -108.95 -52.5 -109.55 -52.95 L-108.15 -61.55 Q-107.3 -67.5 -104.15 -71.15 M-156.1 -94.8 L-155.4 -95.45 -154.45 -95.75 Q-153.65 -95.9 -153.35 -95.4 -153.0 -94.85 -153.35 -93.55 -153.65 -92.1 -154.5 -91.55 -155.05 -91.2 -155.4 -91.25 -155.85 -91.3 -156.3 -92.05 -156.75 -92.75 -156.65 -93.35 L-156.55 -93.7 -156.1 -94.8 M-130.85 -25.5 L-129.75 -34.4 Q-128.45 -43.45 -128.3 -45.5 L-127.35 -53.45 -126.6 -56.9 -126.4 -56.25 -126.35 -56.2 Q-126.5 -51.3 -127.45 -38.65 L-128.8 -22.15 -130.85 -25.5" fill="#8e92af" fill-rule="evenodd" stroke="none"/>
    <path d="M-24.25 -73.1 L-24.3 -72.65 -24.5 -72.9 -24.25 -73.1" fill="#ccceda" fill-rule="evenodd" stroke="none"/>
    <path d="M-67.7 -106.6 Q-64.85 -108.8 -62.5 -111.05 L-60.65 -113.0 -59.95 -111.45 -59.1 -109.4 -59.1 -109.35 -58.65 -109.65 -56.35 -111.75 Q-56.45 -111.15 -57.35 -110.15 L-58.35 -108.75 Q-58.35 -107.45 -57.55 -107.05 L-59.1 -105.3 -59.8 -104.45 -65.55 -97.85 -67.55 -101.05 Q-68.2 -102.25 -68.85 -102.5 L-68.45 -103.6 -68.35 -103.8 -68.1 -104.8 -67.7 -106.6" fill="#3a3b40" fill-rule="evenodd" stroke="none"/>
    <path d="M-74.5 -110.65 L-73.2 -109.05 -73.1 -108.95 Q-71.85 -106.85 -72.15 -103.9 L-72.1 -103.5 Q-71.9 -102.35 -72.0 -100.8 L-72.0 -100.5 -72.15 -99.45 Q-72.45 -97.85 -72.95 -96.9 L-72.95 -96.6 -71.05 -98.6 -70.4 -97.7 -69.4 -95.95 -56.65 -75.8 -55.6 -74.4 Q-49.75 -66.85 -40.45 -51.45 L-38.75 -48.7 -39.0 -48.0 -39.6 -45.75 -39.55 -44.5 -41.5 -44.55 -41.3 -44.2 -40.7 -44.35 -40.55 -44.45 -40.1 -43.65 -39.55 -42.55 -39.4 -42.2 -38.75 -40.7 -38.25 -39.9 -35.55 -35.5 -32.8 -31.25 -26.6 -21.4 -21.3 -11.9 -18.7 -7.3 5.75 31.45 5.75 32.9 16.4 49.8 19.8 54.75 22.75 58.9 Q22.8 60.2 26.45 65.65 L32.4 74.0 43.8 89.0 Q48.45 95.1 57.75 108.75 61.2 113.65 63.6 116.3 66.35 119.35 67.6 119.35 L67.65 119.35 68.3 120.8 69.0 121.5 68.9 121.6 Q67.35 124.3 64.3 126.25 60.9 128.25 58.4 128.35 L57.35 128.4 Q57.5 127.25 56.55 126.0 L54.7 123.6 54.05 124.05 Q52.5 121.65 49.55 118.15 L42.5 109.9 37.7 100.7 32.95 91.5 Q30.85 87.55 27.4 82.35 L21.35 73.4 18.9 69.95 14.3 64.35 11.2 60.9 5.2 52.75 5.2 52.85 5.15 52.8 1.6 47.85 -1.75 43.15 -10.6 30.1 -25.95 6.35 -40.7 -17.55 -48.1 -29.95 -48.4 -30.45 -49.7 -32.6 Q-50.85 -34.95 -50.85 -37.25 -50.85 -39.4 -49.65 -43.3 L-48.45 -47.6 Q-48.45 -48.55 -55.95 -59.85 L-67.95 -78.15 Q-73.3 -86.95 -77.4 -94.75 -79.8 -98.25 -85.65 -99.0 -85.0 -100.15 -79.35 -103.2 -74.45 -106.55 -74.5 -110.65 M44.95 108.95 L44.25 108.05 44.2 108.0 44.95 108.95" fill="#af7a21" fill-rule="evenodd" stroke="none"/>
    <path d="M-44.85 -138.35 L-44.4 -138.1 -42.95 -134.15 -42.6 -133.25 -41.85 -131.55 -38.85 -125.35 -36.0 -119.35 -29.25 -104.75 Q-26.25 -98.45 -24.5 -96.2 -26.1 -93.85 -26.25 -89.95 L-26.45 -89.3 -26.65 -86.55 Q-26.65 -83.55 -24.7 -79.25 -23.35 -76.55 -22.95 -75.5 -24.0 -74.3 -24.25 -73.1 L-24.5 -72.9 Q-29.75 -81.5 -35.55 -94.05 -40.45 -104.5 -44.95 -116.15 -48.55 -110.2 -55.5 -102.35 L-57.3 -100.3 -54.2 -95.05 Q-55.65 -93.45 -55.65 -90.7 -55.65 -87.7 -53.3 -82.2 L-54.2 -79.8 -65.55 -97.85 -59.8 -104.45 -59.1 -105.3 -57.55 -107.05 Q-58.35 -107.45 -58.35 -108.75 L-57.35 -110.15 Q-56.45 -111.15 -56.35 -111.75 L-58.65 -109.65 -59.1 -109.35 -59.1 -109.4 -59.95 -111.45 -60.65 -113.0 -58.4 -115.5 -56.15 -118.4 -55.85 -118.8 -55.85 -119.0 Q-55.85 -119.65 -53.25 -123.7 L-50.1 -128.35 -48.9 -130.55 -47.45 -133.15 -47.4 -133.2 -45.25 -137.55 -44.85 -138.3 -44.85 -138.35" fill="#9396af" fill-rule="evenodd" stroke="none"/>
    <path d="M-60.0 -50.4 L-64.35 -49.0 Q-70.7 -47.4 -75.35 -45.45 -80.7 -43.15 -91.6 -36.35 -94.8 -33.6 -97.8 -30.2 -105.4 -21.65 -105.4 -17.55 L-105.1 -15.75 -104.8 -13.7 Q-104.8 -10.8 -100.0 -6.65 -95.55 -2.8 -93.55 -2.8 L-93.5 -2.7 -95.0 -2.5 Q-98.05 -2.5 -107.5 -5.95 -117.4 -9.55 -120.4 -13.3 L-120.3 -13.4 -120.95 -14.05 -121.05 -14.15 -121.25 -14.35 -121.35 -14.4 Q-122.15 -18.9 -119.3 -36.45 L-118.75 -39.7 -118.3 -49.45 -118.0 -59.55 -117.85 -62.1 -118.05 -64.5 -118.15 -65.2 -118.45 -63.7 Q-119.85 -56.75 -120.3 -52.85 -120.4 -51.5 -121.15 -48.6 L-122.2 -44.25 -123.05 -39.3 -123.4 -37.85 Q-124.75 -21.4 -123.85 -16.75 L-123.8 -16.55 -123.9 -16.75 Q-124.55 -17.1 -126.4 -19.15 L-127.95 -20.9 -128.0 -20.85 -128.0 -20.9 -128.8 -21.8 -129.0 -22.0 -128.8 -22.15 -127.45 -38.65 Q-126.5 -51.3 -126.35 -56.2 L-126.4 -56.25 -126.6 -56.9 -127.35 -53.45 -128.3 -45.5 Q-128.45 -43.45 -129.75 -34.4 L-130.85 -25.5 Q-136.8 -35.6 -139.05 -43.2 -142.8 -55.75 -142.75 -76.65 -142.45 -78.75 -141.55 -81.65 L-139.95 -86.9 Q-138.4 -91.55 -137.15 -93.95 -137.1 -92.4 -136.45 -91.1 L-134.95 -88.5 Q-132.65 -84.9 -127.9 -81.05 -123.95 -77.85 -119.55 -75.6 L-116.2 -74.1 Q-110.0 -71.5 -104.15 -71.15 -107.3 -67.5 -108.15 -61.55 L-109.55 -52.95 Q-108.95 -52.5 -106.85 -51.95 -105.2 -51.55 -104.4 -50.25 -103.7 -49.2 -101.0 -42.55 -99.7 -43.6 -93.55 -49.9 -89.2 -54.1 -87.8 -54.55 L-87.15 -54.5 -84.1 -56.35 -81.7 -57.15 -80.95 -64.0 Q-80.2 -69.05 -79.85 -69.9 -77.7 -68.25 -72.45 -65.2 L-70.8 -70.5 -64.8 -61.0 -64.65 -60.7 -63.45 -58.8 -59.35 -52.05 -60.0 -50.45 -60.0 -50.4 M-80.4 -113.55 L-80.5 -113.45 -80.6 -113.85 -80.4 -113.55 M-80.75 -107.5 L-81.35 -107.35 -80.95 -108.5 -80.9 -108.1 -80.75 -107.5 M-103.0 -138.2 L-103.15 -138.2 -103.3 -138.5 -103.0 -138.2 M-88.9 -94.0 L-89.1 -94.0 -88.9 -94.15 -88.9 -94.0 M-156.55 -93.7 L-156.3 -94.5 -156.1 -94.8 -156.55 -93.7" fill="#505573" fill-rule="evenodd" stroke="none"/>
    <path d="M-81.35 -107.35 L-81.6 -107.3 -82.15 -108.05 -83.05 -109.3 -103.0 -138.2 Q-100.1 -135.0 -98.6 -133.85 -93.3 -129.6 -91.45 -127.25 -87.8 -122.75 -81.1 -123.1 -82.15 -118.05 -81.8 -114.3 L-81.2 -110.6 -80.95 -108.5 -81.35 -107.35" fill="#b2b2c1" fill-rule="evenodd" stroke="none"/>
    <path d="M-81.6 -107.3 L-83.45 -106.95 -83.8 -107.15 Q-86.5 -108.55 -91.45 -109.5 L-99.5 -110.65 -99.25 -114.1 Q-98.75 -117.9 -98.85 -120.05 -99.1 -123.0 -100.25 -128.45 -100.8 -131.65 -102.15 -135.65 L-103.15 -138.2 -103.0 -138.2 -83.05 -109.3 -82.15 -108.05 -81.6 -107.3" fill="#8483a7" fill-rule="evenodd" stroke="none"/>
    <path d="M-79.55 -84.35 L-80.2 -83.25 -81.3 -81.3 Q-83.0 -77.95 -86.25 -75.95 -94.65 -70.65 -104.15 -71.15 -110.0 -71.5 -116.2 -74.1 L-119.55 -75.6 Q-109.35 -72.55 -96.4 -76.6 -88.95 -78.9 -82.45 -82.65 L-79.6 -84.4 -79.55 -84.35 M-129.0 -22.0 Q-135.2 -29.1 -136.35 -30.95 -139.5 -35.9 -141.95 -43.4 -144.8 -51.95 -145.1 -59.3 -145.35 -65.55 -144.3 -71.9 -143.7 -75.7 -142.75 -78.75 L-142.75 -76.65 Q-142.8 -55.75 -139.05 -43.2 -136.8 -35.6 -130.85 -25.5 L-128.8 -22.15 -129.0 -22.0" fill="#383e3f" fill-rule="evenodd" stroke="none"/>
    <path d="M-24.3 -72.65 L-24.4 -69.95 -24.2 -68.95 -23.65 -65.65 -23.25 -64.8 -24.3 -64.95 -20.25 -59.5 -17.85 -56.35 -19.0 -56.35 -25.9 -55.9 -38.2 -54.9 -38.65 -55.65 -39.2 -56.5 -39.85 -57.4 -41.1 -59.35 -43.95 -63.6 -54.2 -79.8 -53.3 -82.2 Q-55.65 -87.7 -55.65 -90.7 -55.65 -93.45 -54.2 -95.05 L-57.3 -100.3 -55.5 -102.35 Q-48.55 -110.2 -44.95 -116.15 -40.45 -104.5 -35.55 -94.05 -29.75 -81.5 -24.5 -72.9 L-24.3 -72.65" fill="#52556b" fill-rule="evenodd" stroke="none"/>
    <path d="M-135.1 -127.4 L-134.25 -129.8 -132.0 -135.25 Q-137.5 -131.45 -144.1 -125.0 -149.85 -119.35 -152.05 -116.3 -155.0 -112.25 -158.8 -105.95 -162.5 -99.85 -163.35 -97.75 -166.15 -90.6 -167.2 -82.5 -167.85 -78.2 -168.35 -68.95 -169.1 -55.75 -165.15 -45.4 L-163.9 -42.5 -162.95 -40.0 -162.5 -38.9 -160.75 -34.65 -158.45 -30.0 -157.05 -27.65 -155.95 -25.85 -152.05 -20.35 -149.95 -17.7 -149.7 -17.15 -147.4 -14.7 -146.15 -13.55 -145.75 -13.05 -143.85 -11.35 -141.95 -9.7 -139.5 -7.6 Q-135.15 -4.2 -130.9 -1.9 -125.5 1.0 -121.65 2.5 -116.0 4.7 -109.95 5.4 L-103.4 5.7 -101.0 5.4 -93.6 4.3 -84.55 0.75 -82.85 0.1 -83.9 -0.7 -85.45 -2.05 Q-87.95 -3.9 -88.7 -4.85 L-90.65 -7.75 Q-94.5 -13.9 -92.45 -22.35 -89.85 -33.35 -77.4 -42.4 -72.8 -45.7 -64.35 -49.0 L-60.0 -50.4 -61.4 -44.5 -62.2 -40.4 -63.6 -40.1 Q-69.65 -38.6 -77.0 -30.65 -84.3 -22.75 -84.3 -17.8 -84.3 -12.75 -79.15 -8.2 -73.85 -3.55 -67.45 -3.55 L-62.2 -4.05 Q-67.05 2.65 -78.4 7.4 -91.0 12.7 -104.35 12.7 -109.0 12.7 -114.0 11.65 L-120.55 10.1 -121.95 9.7 -122.65 9.7 -123.45 9.45 Q-145.45 2.8 -160.8 -19.25 -176.8 -42.25 -176.8 -69.15 -176.8 -96.25 -160.3 -118.55 -144.0 -140.65 -119.8 -146.95 -123.0 -140.75 -125.4 -132.6 -128.2 -123.0 -128.2 -115.8 -128.2 -111.05 -127.1 -106.95 -125.75 -101.8 -123.05 -100.1 -119.55 -97.95 -115.9 -96.5 -111.1 -94.65 -107.25 -94.65 -105.55 -94.65 -101.55 -96.6 -100.95 -96.9 -100.45 -97.15 L-96.7 -98.4 Q-95.45 -98.85 -94.35 -99.25 L-93.7 -97.85 -93.2 -97.2 -92.9 -97.35 -93.15 -97.1 Q-92.1 -95.6 -90.5 -94.7 -89.9 -94.3 -89.1 -94.0 L-95.6 -91.6 Q-101.35 -89.25 -105.35 -89.25 L-118.95 -90.0 Q-125.2 -90.8 -130.6 -98.15 -132.6 -100.25 -133.9 -102.3 -135.65 -105.1 -136.65 -110.05 -137.65 -115.0 -137.15 -118.7 -136.45 -123.1 -135.1 -127.4 M-44.4 -138.1 L-44.65 -138.8 -44.85 -138.35 -44.85 -138.3 -45.25 -137.55 -47.4 -133.2 -47.45 -133.15 -48.9 -130.55 -50.1 -128.35 -53.25 -123.7 Q-55.85 -119.65 -55.85 -119.0 L-55.85 -118.8 -56.15 -118.4 -58.4 -115.5 -60.65 -113.0 -62.5 -111.05 Q-64.85 -108.8 -67.7 -106.6 L-67.95 -106.6 -68.0 -109.25 -68.2 -111.15 -68.45 -111.5 -68.75 -112.35 -68.55 -112.95 -68.65 -113.2 -68.85 -113.55 -68.9 -113.6 -67.35 -116.1 -67.05 -115.8 -63.6 -121.45 -54.85 -134.5 Q-54.1 -135.5 -52.7 -138.45 L-52.7 -138.55 -52.65 -138.55 -51.8 -140.4 Q-49.65 -145.2 -48.4 -147.05 -46.4 -150.05 -44.55 -149.7 L-39.9 -140.7 -32.75 -127.15 -28.65 -118.0 Q-20.7 -100.45 -20.7 -99.6 -20.7 -98.85 -21.1 -98.3 -20.5 -97.95 -20.5 -96.65 L-20.8 -95.3 -20.8 -95.1 Q-20.8 -93.7 -21.65 -90.85 L-22.1 -89.15 Q-22.05 -85.35 -19.6 -81.15 -17.1 -76.9 -17.1 -76.2 -17.1 -74.45 -18.65 -73.1 L-19.55 -72.1 -20.0 -71.3 -20.25 -70.0 Q-20.25 -68.4 -18.3 -65.55 L-16.6 -62.75 -12.4 -56.5 -9.45 -52.75 -9.75 -52.5 -9.4 -52.7 Q-7.5 -50.55 -6.05 -49.65 L-9.2 -50.15 -14.45 -50.2 -28.25 -48.9 -29.55 -49.0 Q-32.5 -48.9 -32.65 -47.35 L-32.85 -47.7 -33.1 -48.15 -33.2 -48.3 Q-33.95 -51.05 -36.3 -52.95 L-36.65 -52.7 -38.2 -54.9 -25.9 -55.9 -19.0 -56.35 -17.85 -56.35 -20.25 -59.5 -24.3 -64.95 -23.25 -64.8 -23.65 -65.65 -24.2 -68.95 -24.4 -69.95 -24.3 -72.65 -24.25 -73.1 Q-24.0 -74.3 -22.95 -75.5 -23.35 -76.55 -24.7 -79.25 -26.65 -83.55 -26.65 -86.55 L-26.45 -89.3 -26.25 -89.95 Q-26.1 -93.85 -24.5 -96.2 -26.25 -98.45 -29.25 -104.75 L-36.0 -119.35 -38.85 -125.35 -41.85 -131.55 -42.6 -133.25 -42.95 -134.15 -44.4 -138.1 M-93.75 -104.1 L-94.85 -104.15 -102.5 -103.95 -109.55 -103.45 -111.85 -103.6 -111.85 -105.55 Q-110.7 -107.85 -110.1 -116.05 -109.7 -121.7 -109.7 -126.15 -109.7 -135.05 -111.0 -141.2 -112.45 -147.9 -117.05 -159.8 L-116.2 -159.8 -113.95 -157.65 -113.3 -156.9 -101.1 -145.15 Q-94.95 -139.25 -89.8 -136.35 -84.7 -133.45 -79.0 -131.6 L-72.7 -129.65 -72.65 -129.65 Q-73.35 -123.4 -73.95 -120.8 L-73.95 -120.65 -75.15 -118.4 -75.65 -117.3 -75.9 -117.3 -76.6 -114.9 -76.95 -113.75 -77.1 -113.15 -77.4 -112.15 -78.3 -109.85 -78.5 -108.0 Q-78.65 -106.8 -79.4 -106.8 L-79.65 -106.9 -79.7 -106.8 -79.85 -106.45 Q-80.25 -106.4 -80.5 -106.8 L-80.75 -107.5 -80.9 -108.1 -80.95 -108.5 -81.2 -110.6 -81.8 -114.3 Q-82.15 -118.05 -81.1 -123.1 -87.8 -122.75 -91.45 -127.25 -93.3 -129.6 -98.6 -133.85 -100.1 -135.0 -103.0 -138.2 L-103.3 -138.5 -103.15 -138.2 -102.15 -135.65 Q-100.8 -131.65 -100.25 -128.45 -99.1 -123.0 -98.85 -120.05 -98.75 -117.9 -99.25 -114.1 L-99.5 -110.65 -91.45 -109.5 Q-86.5 -108.55 -83.8 -107.15 L-83.45 -106.95 -82.0 -105.85 Q-81.5 -105.8 -81.3 -105.45 L-81.2 -105.0 -81.2 -104.9 -81.15 -104.85 -80.9 -104.4 Q-80.9 -104.2 -81.35 -103.95 L-81.85 -104.0 -83.75 -103.7 -86.1 -104.0 -88.4 -104.1 -92.4 -104.25 -93.55 -104.4 -93.75 -104.1 M-80.4 -113.55 L-80.6 -113.85 -80.5 -113.45 -80.4 -113.55" fill="#303130" fill-rule="evenodd" stroke="none"/>
    <path d="M-39.4 -42.2 L-33.2 -43.95 -33.7 -42.75 -29.65 -36.0 -25.35 -29.1 -22.9 -24.75 -19.2 -18.6 -14.7 -11.65 -12.2 -7.8 -9.95 -4.2 Q-8.8 -1.45 -5.85 3.6 -4.3 6.65 0.45 14.1 L3.65 19.4 6.8 24.65 9.55 28.7 Q15.85 38.9 27.55 56.7 L28.5 57.7 Q31.45 60.95 35.1 66.55 38.0 69.8 41.5 74.9 L47.0 82.9 61.95 101.7 69.55 111.3 69.7 111.15 71.55 109.5 73.8 112.15 Q77.7 110.85 87.25 108.6 L91.2 115.05 93.5 118.55 Q92.7 121.0 92.7 124.85 92.7 125.7 101.95 139.4 112.7 155.25 115.65 160.5 117.0 162.9 121.4 169.2 122.35 170.65 127.25 173.4 L129.95 175.0 131.25 176.75 Q134.85 181.15 134.85 184.25 134.85 188.35 131.2 192.4 L126.4 196.95 121.95 200.95 111.6 208.8 Q100.55 216.4 95.65 216.4 94.0 216.4 90.05 213.95 85.95 211.35 85.4 209.55 85.8 206.6 85.65 204.75 85.5 202.75 84.1 201.95 83.65 199.65 80.9 196.15 77.6 191.95 77.6 190.3 78.8 185.9 78.2 183.8 77.1 180.05 67.85 178.3 68.05 173.85 67.3 171.35 65.85 166.85 59.8 166.15 L61.0 163.45 61.25 161.35 Q61.25 159.5 59.6 156.8 57.15 152.8 52.7 152.8 L50.0 153.3 47.25 153.8 44.45 150.7 Q41.75 147.5 41.75 147.0 41.75 146.25 45.35 139.9 48.95 133.55 48.95 129.6 L48.85 128.35 49.9 127.55 Q48.3 125.9 46.25 123.1 L38.9 112.55 32.45 103.65 26.15 95.1 Q16.95 82.35 10.35 71.75 L9.1 71.75 -8.65 45.2 -8.05 45.85 Q-10.9 40.8 -14.1 36.0 -25.05 19.55 -41.25 -5.8 L-59.0 -33.45 -52.45 -37.15 -49.7 -32.6 -48.4 -30.45 -48.1 -29.95 -40.7 -17.55 -25.95 6.35 -10.6 30.1 -1.75 43.15 1.6 47.85 5.15 52.8 5.2 52.85 5.2 52.75 11.2 60.9 14.3 64.35 18.9 69.95 21.35 73.4 27.4 82.35 Q30.85 87.55 32.95 91.5 L37.7 100.7 42.5 109.9 49.55 118.15 Q52.5 121.65 54.05 124.05 L54.1 124.1 54.7 123.6 56.55 126.0 Q57.5 127.25 57.35 128.4 L58.4 128.35 Q60.9 128.25 64.3 126.25 67.35 124.3 68.9 121.6 L69.0 121.5 68.3 120.8 67.65 119.35 67.6 119.35 Q66.35 119.35 63.6 116.3 61.2 113.65 57.75 108.75 48.45 95.1 43.8 89.0 L32.4 74.0 26.45 65.65 Q22.8 60.2 22.75 58.9 L19.8 54.75 16.4 49.8 5.75 32.9 5.75 31.45 -18.7 -7.3 -21.3 -11.9 -26.6 -21.4 -32.8 -31.25 -35.55 -35.5 -38.25 -39.9 -38.75 -40.7 -39.4 -42.2 M74.25 120.8 L73.95 121.1 73.8 121.45 Q71.4 126.0 66.2 129.3 62.95 131.3 59.85 132.15 L59.25 132.3 57.2 132.4 57.0 132.8 55.25 133.3 53.7 135.75 Q51.25 139.5 48.85 141.7 L50.6 143.05 Q52.15 144.25 53.15 145.85 53.55 146.75 54.2 146.85 L57.85 146.6 66.05 143.75 77.1 136.8 Q78.85 135.65 81.55 132.9 L85.1 129.25 Q88.5 126.1 87.7 123.85 L86.65 120.4 85.4 117.5 83.6 115.7 82.5 116.2 Q80.4 117.05 79.65 117.5 L79.35 117.7 Q76.45 119.15 74.65 119.65 L74.2 119.65 74.25 120.8 M44.95 108.95 L44.2 108.0 44.25 108.05 44.95 108.95 M48.35 134.25 L48.4 134.2 48.4 134.1 48.35 134.25 M104.9 153.6 L96.55 140.3 94.45 137.05 92.3 133.8 89.6 130.0 Q86.45 133.8 79.6 139.6 L67.7 146.9 62.0 149.15 60.0 149.85 63.05 154.7 65.95 159.2 66.1 159.7 66.25 159.65 Q71.65 157.9 73.05 160.15 73.5 160.75 72.8 167.0 72.2 173.2 72.4 173.7 73.5 175.4 76.45 175.85 L78.05 176.1 Q82.05 176.3 83.1 177.8 83.5 178.4 83.5 179.85 L83.55 180.8 83.25 185.2 82.45 191.2 84.9 193.3 87.75 195.8 Q89.05 197.7 90.75 197.9 L94.4 196.85 Q98.25 195.85 102.6 193.15 107.95 189.8 112.0 186.0 115.4 182.95 115.85 181.4 116.4 179.85 117.5 178.5 L119.05 176.85 119.15 176.7 Q118.15 175.75 117.25 174.15 L113.0 166.45 104.9 153.6 M118.8 198.1 Q124.35 192.45 126.3 189.95 L126.5 189.7 Q126.55 189.25 127.1 188.75 L127.25 188.55 Q128.2 187.35 127.75 186.1 L127.7 186.05 Q127.05 183.9 126.6 183.2 125.8 181.8 122.65 180.55 L121.95 180.3 118.25 184.95 114.25 189.05 Q109.85 193.0 104.65 196.25 99.7 199.3 95.75 200.65 L94.75 201.45 94.5 202.25 Q93.75 205.2 94.9 207.15 95.75 208.5 101.9 206.4 L111.6 202.85 118.0 198.85 118.8 198.1" fill="#332509" fill-rule="evenodd" stroke="none"/>
    <path d="M-77.4 -112.15 Q-75.95 -111.9 -74.75 -110.9 L-74.5 -110.65 Q-74.45 -106.55 -79.35 -103.2 -85.0 -100.15 -85.65 -99.0 -79.8 -98.25 -77.4 -94.75 -73.3 -86.95 -67.95 -78.15 L-55.95 -59.85 Q-48.45 -48.55 -48.45 -47.6 L-49.65 -43.3 Q-50.85 -39.4 -50.85 -37.25 -50.85 -34.95 -49.7 -32.6 L-52.45 -37.15 -54.85 -41.1 -54.55 -41.8 -54.6 -42.75 Q-54.6 -45.05 -53.1 -46.85 L-58.85 -56.6 -61.95 -61.85 -68.3 -71.9 -76.65 -84.8 Q-80.2 -90.5 -80.75 -91.95 L-81.35 -92.95 Q-82.05 -94.25 -82.85 -94.8 L-80.9 -95.6 -80.6 -95.75 -81.1 -95.75 Q-83.15 -96.05 -84.1 -96.7 -85.2 -97.25 -85.9 -98.2 L-86.05 -98.45 -86.15 -98.45 -86.95 -99.2 -87.6 -99.9 -88.05 -100.6 Q-89.0 -102.1 -88.4 -104.1 L-86.1 -104.0 -83.75 -103.7 -81.85 -104.0 -81.35 -103.95 Q-80.9 -104.2 -80.9 -104.4 L-81.15 -104.85 -81.2 -104.9 -81.2 -105.0 -81.3 -105.45 Q-81.5 -105.8 -82.0 -105.85 L-83.45 -106.95 -81.6 -107.3 -81.35 -107.35 -80.75 -107.5 -80.5 -106.8 Q-80.25 -106.4 -79.85 -106.45 L-79.8 -106.45 -79.75 -106.5 -79.7 -106.8 -79.65 -106.9 -79.4 -106.8 Q-78.65 -106.8 -78.5 -108.0 L-78.3 -109.85 -77.4 -112.15 M74.25 120.8 L74.6 119.85 74.65 119.7 74.65 119.65 Q76.45 119.15 79.35 117.7 L79.65 117.5 Q80.4 117.05 82.5 116.2 L83.6 115.7 85.4 117.5 86.65 120.4 87.7 123.85 Q88.5 126.1 85.1 129.25 L81.55 132.9 Q78.85 135.65 77.1 136.8 L66.05 143.75 57.85 146.6 54.2 146.85 Q53.55 146.75 53.15 145.85 52.15 144.25 50.6 143.05 L48.85 141.7 Q51.25 139.5 53.7 135.75 L55.25 133.3 57.0 132.8 59.25 132.3 59.85 132.15 Q62.95 131.3 66.2 129.3 71.4 126.0 73.8 121.45 L73.95 121.1 74.25 120.8 M76.45 175.85 Q73.5 175.4 72.4 173.7 72.2 173.2 72.8 167.0 73.5 160.75 73.05 160.15 71.65 157.9 66.25 159.65 L66.1 159.7 65.95 159.2 63.05 154.7 60.0 149.85 62.0 149.15 67.7 146.9 79.6 139.6 Q86.45 133.8 89.6 130.0 L92.3 133.8 94.45 137.05 96.55 140.3 104.9 153.6 Q100.9 156.85 99.5 158.6 L99.2 158.9 95.45 164.5 Q93.15 168.1 90.6 169.65 88.15 171.2 85.3 171.15 L84.45 171.2 Q81.25 170.9 79.7 171.75 78.4 172.55 77.2 174.5 76.6 175.25 76.45 175.85" fill="#8c591a" fill-rule="evenodd" stroke="none"/>
    <path d="M-163.9 -42.5 L-165.15 -45.4 Q-169.1 -55.75 -168.35 -68.95 -167.85 -78.2 -167.2 -82.5 -166.15 -90.6 -163.35 -97.75 -162.5 -99.85 -158.8 -105.95 -155.0 -112.25 -152.05 -116.3 -149.85 -119.35 -144.1 -125.0 -137.5 -131.45 -132.0 -135.25 L-134.25 -129.8 -135.1 -127.4 Q-150.25 -103.8 -151.35 -76.0 -152.0 -76.95 -153.7 -77.35 L-156.3 -77.1 Q-158.4 -75.8 -159.45 -71.95 -160.7 -67.3 -158.25 -63.45 -157.15 -61.65 -155.35 -61.45 -153.7 -61.4 -151.05 -62.7 -150.7 -57.7 -149.75 -52.85 L-158.95 -46.15 -163.9 -42.5 M-139.5 -7.6 L-141.95 -9.7 -135.3 -18.6 -133.5 -15.95 -139.5 -7.6 M-143.85 -11.35 L-145.75 -13.05 -145.95 -13.8 Q-140.0 -20.75 -137.95 -22.55 L-137.9 -22.5 -136.7 -20.65 -143.85 -11.35 M-147.4 -14.7 L-149.7 -17.15 -149.95 -17.7 -152.05 -20.35 -155.95 -25.85 -145.1 -36.55 Q-142.65 -30.45 -139.25 -24.75 L-139.15 -24.6 -147.4 -14.7 M-157.05 -27.65 L-158.45 -30.0 -146.55 -39.95 -146.15 -39.45 Q-148.55 -36.65 -154.9 -29.95 L-157.05 -27.65 M-162.5 -38.9 L-162.95 -40.0 -154.45 -46.8 -154.05 -47.0 -153.65 -46.65 -161.6 -39.6 -162.5 -38.9 M-156.1 -94.8 L-156.3 -94.5 -156.55 -93.7 -156.65 -93.35 Q-156.75 -92.75 -156.3 -92.05 -155.85 -91.3 -155.4 -91.25 -155.05 -91.2 -154.5 -91.55 -153.65 -92.1 -153.35 -93.55 -153.0 -94.85 -153.35 -95.4 -153.65 -95.9 -154.45 -95.75 L-155.4 -95.45 -156.1 -94.8" fill="url(#gradient0)" fill-rule="evenodd" stroke="none"/>
    <path d="M-146.15 -39.45 L-146.55 -39.95 -146.5 -40.0 -146.15 -39.45" fill="url(#gradient1)" fill-rule="evenodd" stroke="none"/>
    <path d="M76.45 175.85 Q76.6 175.25 77.2 174.5 78.4 172.55 79.7 171.75 81.25 170.9 84.45 171.2 L85.3 171.15 Q88.15 171.2 90.6 169.65 93.15 168.1 95.45 164.5 L99.2 158.9 99.5 158.6 Q100.9 156.85 104.9 153.6 L113.0 166.45 117.25 174.15 Q118.15 175.75 119.15 176.7 L119.05 176.85 117.5 178.5 Q113.55 180.85 108.35 183.45 97.8 188.7 92.1 189.05 L90.75 189.05 90.75 189.0 99.6 180.4 108.6 171.6 108.45 171.6 Q108.3 171.65 97.9 176.55 88.9 180.8 83.7 180.8 L83.55 180.8 83.5 179.85 Q83.5 178.4 83.1 177.8 82.05 176.3 78.05 176.1 L76.45 175.85 M118.8 198.1 Q117.15 197.85 115.9 197.1 113.55 195.65 113.55 192.6 113.55 191.75 114.25 189.05 L118.25 184.95 121.95 180.3 122.65 180.55 Q125.8 181.8 126.6 183.2 127.05 183.9 127.7 186.05 L127.75 186.1 Q128.2 187.35 127.25 188.55 L127.1 188.75 Q126.55 189.25 126.5 189.7 L126.3 189.95 Q124.35 192.45 118.8 198.1" fill="#724b0f" fill-rule="evenodd" stroke="none"/>
    <path d="M-89.1 -94.0 Q-89.9 -94.3 -90.5 -94.7 -92.1 -95.6 -93.15 -97.1 L-92.9 -97.35 -93.2 -97.2 -93.7 -97.85 -94.35 -99.25 Q-94.75 -100.75 -94.4 -102.5 L-94.4 -102.55 -94.05 -103.65 -93.75 -104.1 -93.55 -104.4 -92.4 -104.25 -88.4 -104.1 Q-89.0 -102.1 -88.05 -100.6 L-87.6 -99.9 -86.95 -99.2 -86.15 -98.45 -86.05 -98.45 -85.9 -98.2 Q-85.2 -97.25 -84.1 -96.7 -83.15 -96.05 -81.1 -95.75 L-80.6 -95.75 -80.9 -95.6 -82.85 -94.8 Q-82.05 -94.25 -81.35 -92.95 L-80.75 -91.95 Q-80.2 -90.5 -76.65 -84.8 L-68.3 -71.9 -61.95 -61.85 -58.85 -56.6 -53.1 -46.85 Q-54.6 -45.05 -54.6 -42.75 L-54.55 -41.8 -54.85 -41.1 -52.45 -37.15 -59.0 -33.45 -61.35 -37.1 -61.85 -37.8 -61.75 -37.8 Q-62.3 -38.95 -62.3 -39.8 L-62.2 -40.4 -61.4 -44.5 -60.0 -50.4 -60.0 -50.45 -59.35 -52.05 -63.45 -58.8 -64.65 -60.7 -64.8 -61.0 -70.8 -70.5 -78.65 -82.95 -79.1 -83.7 -79.55 -84.35 -79.6 -84.4 -80.6 -85.95 -82.45 -89.0 -84.75 -92.25 Q-85.3 -93.1 -85.45 -93.85 L-85.7 -93.8 -88.9 -94.0 -88.9 -94.15 -89.1 -94.0 M-38.2 -54.9 L-36.65 -52.7 -36.3 -52.95 Q-33.95 -51.05 -33.2 -48.3 L-33.1 -48.15 -32.85 -47.7 -33.05 -47.75 -32.85 -45.55 Q-32.85 -44.9 -33.2 -43.95 L-39.4 -42.2 -39.55 -42.55 -40.1 -43.65 -40.55 -44.45 -40.7 -44.35 -41.3 -44.2 -41.5 -44.55 -39.55 -44.5 -39.6 -45.75 -39.0 -48.0 -38.75 -48.7 -40.45 -51.45 Q-49.75 -66.85 -55.6 -74.4 L-56.65 -75.8 -69.4 -95.95 -70.4 -97.7 -71.05 -98.6 -72.95 -96.6 -72.95 -96.9 Q-72.45 -97.85 -72.15 -99.45 L-72.0 -100.5 -72.0 -100.8 Q-71.9 -102.35 -72.1 -103.5 L-72.15 -103.9 Q-71.85 -106.85 -73.1 -108.95 L-73.2 -109.05 -74.5 -110.65 -74.75 -110.9 Q-75.95 -111.9 -77.4 -112.15 L-77.1 -113.15 -76.95 -113.75 -76.6 -114.9 -75.9 -117.3 -75.65 -117.3 -74.65 -117.3 Q-71.15 -116.85 -69.05 -113.85 L-68.9 -113.6 -68.85 -113.55 -68.65 -113.2 -68.55 -112.95 -68.75 -112.35 -68.45 -111.5 -68.2 -111.15 -68.0 -109.25 -67.95 -106.6 -67.95 -106.55 -67.7 -106.6 -68.1 -104.8 -68.35 -103.8 -68.45 -103.6 -68.85 -102.5 Q-68.2 -102.25 -67.55 -101.05 L-65.55 -97.85 -54.2 -79.8 -43.95 -63.6 -41.1 -59.35 -39.85 -57.4 -39.2 -56.5 -38.65 -55.65 -38.2 -54.9" fill="#46350c" fill-rule="evenodd" stroke="none"/>
    <path d="M117.5 178.5 Q116.4 179.85 115.85 181.4 115.4 182.95 112.0 186.0 107.95 189.8 102.6 193.15 98.25 195.85 94.4 196.85 L90.75 197.9 Q89.05 197.7 87.75 195.8 L84.9 193.3 82.45 191.2 83.25 185.2 83.55 180.8 83.7 180.8 Q88.9 180.8 97.9 176.55 108.3 171.65 108.45 171.6 L108.6 171.6 99.6 180.4 90.75 189.0 90.75 189.05 92.1 189.05 Q97.8 188.7 108.35 183.45 113.55 180.85 117.5 178.5 M114.25 189.05 Q113.55 191.75 113.55 192.6 113.55 195.65 115.9 197.1 117.15 197.85 118.8 198.1 L118.0 198.85 111.6 202.85 101.9 206.4 Q95.75 208.5 94.9 207.15 93.75 205.2 94.5 202.25 L94.75 201.45 95.75 200.65 Q99.7 199.3 104.65 196.25 109.85 193.0 114.25 189.05" fill="#5b400c" fill-rule="evenodd" stroke="none"/>
  </g>
  <defs>
    <radialGradient cx="0" cy="0" gradientTransform="matrix(0.1127, -0.0405, 0.0439, 0.122, -93.85, -66.85)" gradientUnits="userSpaceOnUse" id="gradient0" r="819.2" spreadMethod="pad">
      <stop offset="0.6078431372549019" stop-color="#cccee3"/>
      <stop offset="0.9568627450980393" stop-color="#ff6600"/>
    </radialGradient>
    <linearGradient gradientTransform="matrix(-0.0139, 0.0024, -0.0067, -0.0386, -164.5, -74.3)" gradientUnits="userSpaceOnUse" id="gradient1" spreadMethod="pad" x1="-819.2" x2="819.2">
      <stop offset="0.0" stop-color="#cccee3"/>
      <stop offset="1.0" stop-color="#ff6600"/>
    </linearGradient>
  </defs>
</svg>
