<?xml version="1.0" encoding="UTF-8" standalone="no"?>
<svg xmlns:ffdec="https://www.free-decompiler.com/flash" xmlns:xlink="http://www.w3.org/1999/xlink" ffdec:objectType="shape" height="301.0px" width="152.7px" xmlns="http://www.w3.org/2000/svg">
  <g transform="matrix(1.0, 0.0, 0.0, 1.0, 84.65, 309.65)">
    <path d="M20.1 -180.05 Q23.85 -198.1 20.0 -220.5 47.85 -195.65 42.7 -140.05 40.55 -116.8 44.25 -109.75 25.45 -131.15 22.35 -115.95 L22.25 -115.3 Q21.0 -106.4 24.55 -97.7 27.8 -89.85 33.15 -86.1 38.65 -82.3 42.5 -85.65 46.9 -89.45 47.1 -101.3 68.35 -80.6 63.7 -42.05 62.0 -21.1 68.05 -8.65 L-78.7 -8.65 Q-76.25 -27.2 -63.65 -39.85 -54.35 -51.2 -72.8 -78.55 -91.25 -105.9 -81.0 -147.65 -80.8 -139.15 -77.3 -132.5 -74.25 -126.7 -69.75 -124.1 -65.4 -121.6 -62.25 -123.45 -60.45 -124.5 -59.7 -128.25 -58.9 -132.25 -60.3 -135.5 -64.8 -145.8 -65.4 -156.15 -66.15 -167.75 -62.65 -182.6 -59.45 -176.35 -54.7 -174.95 -50.4 -173.7 -46.4 -176.6 -42.45 -179.5 -40.9 -184.9 -39.25 -190.8 -41.4 -197.1 -55.75 -238.3 -42.75 -257.25 -39.25 -237.8 -32.35 -225.45 -26.25 -214.6 -19.1 -211.7 -12.4 -208.95 -7.85 -214.25 -3.15 -219.75 -3.4 -231.3 16.25 -218.45 17.3 -190.7 8.4 -198.55 1.3 -195.85 -3.25 -194.05 -5.35 -188.8 -7.75 -182.7 -2.5 -174.25 2.75 -165.85 10.15 -166.75 17.5 -167.7 20.1 -180.05 M-27.0 -272.65 Q-34.45 -290.7 -19.0 -309.65 -20.1 -293.2 -15.9 -285.75 -8.55 -272.25 -14.4 -262.75 -19.5 -254.55 -27.0 -272.65" fill="url(#gradient0)" fill-rule="evenodd" stroke="none"/>
  </g>
  <defs>
    <radialGradient cx="0" cy="0" gradientTransform="matrix(0.2458, 0.0, 0.0, 0.2458, -14.1, -24.95)" gradientUnits="userSpaceOnUse" id="gradient0" r="819.2" spreadMethod="pad">
      <stop offset="0.0" stop-color="#ffff00"/>
      <stop offset="1.0" stop-color="#ff3300"/>
    </radialGradient>
  </defs>
</svg>
