<?xml version="1.0" encoding="UTF-8" standalone="no"?>
<svg xmlns:ffdec="https://www.free-decompiler.com/flash" xmlns:xlink="http://www.w3.org/1999/xlink" ffdec:objectType="shape" height="104.4px" width="104.25px" xmlns="http://www.w3.org/2000/svg">
  <g transform="matrix(1.0, 0.0, 0.0, 1.0, 51.95, -15.4)">
    <path d="M38.8 45.0 L41.1 49.5 Q42.6 52.85 43.45 56.4 L44.2 59.95 44.05 60.85 44.5 61.9 44.65 63.55 Q44.35 64.05 43.45 64.35 L40.95 64.8 40.6 64.75 40.6 64.65 40.8 64.45 38.7 64.55 34.3 64.65 Q32.95 65.5 31.3 65.9 L28.65 66.5 31.4 66.55 32.2 66.85 40.4 66.25 41.45 66.1 41.65 66.35 41.95 66.1 Q43.45 65.15 44.3 65.4 L44.4 65.8 Q44.4 66.4 43.8 67.1 43.0 68.0 41.7 68.0 L41.2 67.9 Q36.15 70.6 29.45 69.25 L28.8 68.95 12.75 69.7 12.65 69.75 12.75 69.85 12.85 70.3 Q18.15 71.95 24.0 71.75 L25.9 73.25 26.8 74.15 27.2 74.55 27.3 74.75 27.4 74.8 29.45 75.25 30.1 75.6 39.65 74.25 41.25 73.1 Q43.25 71.95 44.4 72.5 L44.6 72.7 43.95 76.85 Q43.45 77.8 42.75 77.8 L42.7 77.8 41.7 78.2 40.9 78.8 Q37.7 79.3 34.45 80.15 L34.2 80.75 34.25 80.75 36.15 81.45 37.75 82.15 38.0 82.4 38.15 82.55 41.35 81.95 41.35 82.5 41.5 82.4 42.45 82.5 41.4 85.2 41.35 85.2 41.35 85.25 40.45 87.2 40.05 87.2 39.55 87.6 39.45 87.7 39.25 87.75 39.2 87.85 38.05 88.1 37.05 88.5 36.9 88.7 39.25 88.7 39.6 88.85 38.1 91.35 36.75 91.4 18.7 92.15 18.65 92.15 18.05 91.8 16.55 92.0 Q15.7 91.65 14.75 91.45 L13.1 91.45 12.8 91.2 12.75 91.0 8.9 91.8 Q2.3 91.8 -4.05 93.35 L-4.4 93.35 -2.0 93.95 Q0.35 93.8 2.5 93.1 8.0 91.15 12.5 94.6 L19.05 94.75 19.5 94.95 21.1 95.15 21.5 95.4 21.5 95.35 23.45 96.15 25.45 96.55 26.1 97.0 29.45 97.3 30.1 97.8 32.9 98.0 31.7 99.2 29.7 101.1 28.05 102.55 25.95 104.2 24.95 104.85 Q20.7 107.8 16.0 109.6 8.8 112.25 0.5 112.3 L0.2 112.3 Q-16.1 112.3 -28.2 102.05 L-27.8 101.85 Q-24.35 100.4 -20.8 99.85 L-13.6 98.95 -25.35 98.2 -31.55 99.0 -34.0 96.35 Q-36.5 93.4 -38.4 90.2 -40.75 86.25 -42.2 81.9 -43.35 78.5 -43.85 74.85 L-42.45 73.8 Q-41.2 73.2 -40.45 73.15 L-40.3 73.05 -39.65 72.65 -38.8 72.2 -38.3 71.8 -37.6 71.35 -36.35 71.15 -29.5 71.05 -25.85 71.6 -26.45 71.45 -29.2 70.9 -33.75 69.35 -40.6 69.15 -40.8 69.05 -41.75 68.35 -42.65 67.45 -44.4 67.6 -44.35 66.55 -44.3 64.85 Q-44.2 61.75 -43.6 58.95 -42.9 54.95 -41.45 51.4 L-41.25 51.35 -39.25 51.2 -38.75 50.55 -37.0 49.45 -36.0 48.65 -35.75 48.45 -36.05 48.6 -36.6 48.8 -37.05 48.95 -38.65 48.85 -39.85 49.4 -40.1 49.4 -40.65 49.4 -39.3 46.65 -38.4 45.1 -36.4 45.4 -35.75 45.8 -33.05 46.2 -32.4 46.55 -30.6 46.15 -30.45 46.1 -31.35 45.8 -34.9 44.75 -35.2 44.35 -37.5 43.65 -35.15 40.45 -32.05 36.95 -29.5 36.85 -29.45 36.9 -28.1 37.15 -27.2 37.5 -25.35 38.3 -23.75 38.85 Q-16.15 38.3 -8.55 38.7 L-10.65 38.4 -12.8 37.8 -15.0 37.25 Q-18.4 36.4 -21.45 34.9 L-26.7 32.05 Q-15.1 23.1 0.2 23.1 16.1 23.1 28.0 32.75 L24.65 33.0 17.75 33.55 16.75 34.1 16.45 34.3 16.0 34.45 -6.4 35.4 4.2 36.35 4.8 36.75 5.45 37.2 5.5 37.25 17.2 36.7 17.8 36.3 18.65 36.4 19.15 36.2 Q20.8 35.45 22.6 35.3 L25.65 34.95 25.65 35.0 31.2 35.65 31.7 36.1 Q33.95 38.35 35.8 40.75 L37.4 42.85 38.35 44.3 38.8 45.0 M41.9 52.85 L41.85 52.7 41.85 54.6 42.3 55.2 42.5 56.05 42.6 55.3 41.9 52.85 M42.45 59.85 L42.35 59.6 41.85 58.4 41.85 61.4 42.05 60.9 42.45 59.85 M43.7 73.7 L43.3 73.75 Q43.5 73.8 43.7 74.0 L43.7 73.85 43.7 73.7 M41.5 74.1 L41.85 74.5 41.85 74.85 41.9 74.85 42.0 73.9 41.5 74.1 M-41.7 74.9 Q-42.3 75.35 -42.3 75.65 L-41.7 78.55 -41.7 74.9" fill="url(#gradient0)" fill-rule="evenodd" stroke="none"/>
    <path d="M31.2 35.65 L25.65 35.0 25.65 34.95 22.6 35.3 Q20.8 35.45 19.15 36.2 L18.65 36.4 17.8 36.3 17.2 36.7 5.5 37.25 5.45 37.2 4.8 36.75 4.2 36.35 -6.4 35.4 16.0 34.45 16.45 34.3 16.75 34.1 17.75 33.55 24.65 33.0 28.0 32.75 30.65 35.1 31.2 35.65 M-26.7 32.05 L-21.45 34.9 Q-18.4 36.4 -15.0 37.25 L-12.8 37.8 -10.65 38.4 -8.55 38.7 Q-16.15 38.3 -23.75 38.85 L-25.35 38.3 -27.2 37.5 -28.1 37.15 -29.45 36.9 -29.5 36.85 -32.05 36.95 -31.5 36.35 -31.35 36.1 -28.3 33.35 -26.7 32.05 M-37.5 43.65 L-35.2 44.35 -34.9 44.75 -31.35 45.8 -30.45 46.1 -30.6 46.15 -32.4 46.55 -33.05 46.2 -35.75 45.8 -36.4 45.4 -38.4 45.1 -38.4 45.05 -38.15 44.7 -37.95 44.4 -37.95 44.35 -37.5 43.65 M-40.65 49.4 L-40.1 49.4 -39.85 49.4 -38.65 48.85 -37.05 48.95 -36.6 48.8 -36.05 48.6 -35.75 48.45 -36.0 48.65 -37.0 49.45 -38.75 50.55 -39.25 51.2 -41.25 51.35 -41.45 51.4 -41.25 50.9 -41.1 50.5 -40.65 49.4 M-44.4 67.6 L-42.65 67.45 -41.75 68.35 -40.8 69.05 -40.6 69.15 -33.75 69.35 -29.2 70.9 -26.45 71.45 -25.85 71.6 -29.5 71.05 -36.35 71.15 -37.6 71.35 -38.3 71.8 -38.8 72.2 -39.65 72.65 -40.3 73.05 -40.45 73.15 Q-41.2 73.2 -42.45 73.8 L-43.85 74.85 -44.05 73.55 -44.2 72.6 -44.3 71.15 -44.35 69.8 -44.4 67.7 -44.4 67.6 M-31.55 99.0 L-25.35 98.2 -13.6 98.95 -20.8 99.85 Q-24.35 100.4 -27.8 101.85 L-28.2 102.05 -30.05 100.45 -31.35 99.2 -31.55 99.0 M32.9 98.0 L30.1 97.8 29.45 97.3 26.1 97.0 25.45 96.55 23.45 96.15 21.5 95.35 21.5 95.4 21.1 95.15 19.5 94.95 19.05 94.75 12.5 94.6 Q8.0 91.15 2.5 93.1 0.35 93.8 -2.0 93.95 L-4.4 93.35 -4.05 93.35 Q2.3 91.8 8.9 91.8 L12.75 91.0 12.8 91.2 13.1 91.45 14.75 91.45 Q15.7 91.65 16.55 92.0 L18.05 91.8 18.65 92.15 18.7 92.15 36.75 91.4 38.1 91.35 34.7 95.95 32.9 98.0 M39.6 88.85 L39.25 88.7 36.9 88.7 37.05 88.5 38.05 88.1 39.2 87.85 39.25 87.75 39.45 87.7 39.55 87.6 40.05 87.2 40.45 87.2 39.6 88.85 M41.35 85.25 L41.35 85.2 41.4 85.2 41.35 85.25 M42.45 82.5 L41.5 82.4 41.35 82.5 41.35 81.95 38.15 82.55 38.0 82.4 37.75 82.15 36.15 81.45 34.25 80.75 34.2 80.75 34.45 80.15 Q37.7 79.3 40.9 78.8 L41.7 78.2 42.7 77.8 42.75 77.8 Q43.45 77.8 43.95 76.85 43.4 79.75 42.45 82.5 M44.6 72.7 L44.4 72.5 Q43.25 71.95 41.25 73.1 L39.65 74.25 30.1 75.6 29.45 75.25 27.4 74.8 27.3 74.75 27.2 74.55 26.8 74.15 25.9 73.25 24.0 71.75 Q18.15 71.95 12.85 70.3 L12.75 69.85 12.65 69.75 12.75 69.7 28.8 68.95 29.45 69.25 Q36.15 70.6 41.2 67.9 L41.7 68.0 Q43.0 68.0 43.8 67.1 44.4 66.4 44.4 65.8 L44.3 65.4 Q43.45 65.15 41.95 66.1 L41.65 66.35 41.45 66.1 40.4 66.25 32.2 66.85 31.4 66.55 28.65 66.5 31.3 65.9 Q32.95 65.5 34.3 64.65 L38.7 64.55 40.8 64.45 40.6 64.65 40.6 64.75 40.95 64.8 43.45 64.35 Q44.35 64.05 44.65 63.55 L44.8 67.7 44.65 71.9 44.6 72.7 M44.5 61.9 L44.05 60.85 44.2 59.95 44.5 61.9 M42.45 59.85 L42.05 60.9 41.85 61.4 41.85 58.4 42.35 59.6 42.45 59.85 M41.9 52.85 L42.6 55.3 42.5 56.05 42.3 55.2 41.85 54.6 41.85 52.7 41.9 52.85 M41.5 74.1 L42.0 73.9 41.9 74.85 41.85 74.85 41.85 74.5 41.5 74.1 M43.7 73.7 L43.7 73.85 43.7 74.0 Q43.5 73.8 43.3 73.75 L43.7 73.7 M-41.7 74.9 L-41.7 78.55 -42.3 75.65 Q-42.3 75.35 -41.7 74.9" fill="#4f2400" fill-rule="evenodd" stroke="none"/>
    <path d="M49.05 49.0 L50.65 54.25 51.4 57.7 51.65 59.05 Q52.3 63.25 52.3 67.65 52.3 89.15 36.95 104.45 L36.85 104.6 36.7 104.65 33.25 107.85 30.3 110.2 28.85 111.2 Q25.65 113.35 22.3 115.0 L20.0 116.05 15.95 117.5 14.85 117.8 14.75 117.8 Q8.65 119.55 1.85 119.8 L0.2 119.8 -5.3 119.55 Q-23.05 117.8 -36.1 104.95 L-36.6 104.45 -36.6 104.5 -39.0 101.95 -40.7 99.9 Q-46.2 93.1 -49.05 85.15 -50.5 81.15 -51.2 76.9 L-51.45 75.45 -51.9 69.75 -51.9 69.05 -51.95 67.5 Q-51.95 53.8 -45.75 42.6 -42.5 36.75 -37.55 31.6 L-36.65 30.7 -36.65 30.6 -36.6 30.6 Q-21.4 15.4 0.15 15.4 21.35 15.4 36.45 30.05 L36.95 30.6 Q44.45 38.1 48.3 47.1 L49.05 49.0 M49.95 66.15 L49.75 63.1 49.5 60.9 Q49.15 57.9 48.4 55.05 47.75 52.35 46.8 49.8 L46.1 48.1 Q42.7 40.25 36.45 33.65 L35.3 32.45 Q20.8 17.9 0.2 17.9 -20.4 17.9 -34.9 32.45 L-35.0 32.5 -36.6 34.2 Q-42.75 40.8 -45.95 48.75 L-47.0 51.65 Q-48.8 56.95 -49.3 62.75 L-49.55 67.65 -49.55 68.15 -49.55 68.25 -49.35 72.5 -49.2 73.75 -49.15 74.45 -48.1 80.2 Q-45.75 89.6 -39.6 97.55 L-36.75 100.9 -35.0 102.75 -34.55 103.15 Q-20.3 117.3 -0.25 117.45 L0.2 117.45 0.45 117.45 3.2 117.35 Q9.25 117.0 14.8 115.35 22.3 113.05 28.85 108.35 L30.65 106.95 30.75 106.9 35.15 102.95 35.3 102.75 35.7 102.35 Q49.95 87.95 49.95 67.65 L49.95 66.15 M42.0 109.4 L41.95 109.45 41.95 109.4 42.0 109.4" fill="#2a2a2a" fill-rule="evenodd" stroke="none"/>
    <path d="M39.8 42.1 Q40.2 41.8 40.75 41.8 43.2 41.8 45.15 46.2 L45.8 48.0 Q46.7 50.55 46.7 52.45 46.7 54.5 45.8 55.5 45.35 56.0 44.6 56.25 L44.15 56.35 43.45 56.4 Q42.6 52.85 41.1 49.5 L38.8 45.0 Q38.85 44.0 39.05 43.35 L39.35 42.6 39.8 42.1 M-47.0 51.65 L-46.7 51.3 Q-44.85 49.85 -43.45 49.6 L-42.75 49.55 -42.0 49.75 -41.4 50.2 -41.1 50.5 -41.25 50.9 -41.45 51.4 Q-42.9 54.95 -43.6 58.95 -44.2 61.75 -44.3 64.85 L-44.35 66.55 -44.4 67.6 -44.4 67.7 -44.35 69.8 -45.5 69.1 -46.9 68.45 -46.9 67.8 -46.9 67.7 -46.85 64.85 -48.75 63.5 -49.3 62.75 Q-48.8 56.95 -47.0 51.65 M-40.0 42.95 Q-40.35 41.9 -40.35 40.35 L-40.3 40.05 Q-40.2 38.3 -38.55 36.45 -36.7 34.5 -34.85 34.5 L-33.45 34.75 Q-32.85 34.95 -32.3 35.45 L-32.15 35.6 -31.5 36.35 -32.05 36.95 -35.15 40.45 -37.5 43.65 -37.95 44.35 -37.95 44.4 -38.15 44.7 -38.75 44.6 -39.05 44.5 -39.2 44.3 -39.6 43.75 -40.0 42.95 M24.95 104.85 L25.95 104.2 28.05 102.55 29.7 101.1 31.7 99.2 32.9 98.0 34.7 95.95 38.1 91.35 39.6 88.85 40.45 87.2 41.35 85.25 41.4 85.2 42.45 82.5 Q43.4 79.75 43.95 76.85 L44.6 72.7 44.65 71.9 45.9 70.75 47.3 69.35 Q46.8 84.2 38.1 95.65 L33.45 100.9 33.4 100.95 32.15 102.2 31.35 102.95 30.4 103.8 28.15 105.6 26.6 105.1 25.8 104.85 24.95 104.85" fill="#8f918e" fill-rule="evenodd" stroke="none"/>
    <path d="M45.8 55.5 Q46.7 54.5 46.7 52.45 46.7 50.55 45.8 48.0 L45.15 46.2 Q43.2 41.8 40.75 41.8 40.2 41.8 39.8 42.1 37.15 38.1 33.6 34.5 L33.45 34.35 Q19.7 20.6 0.2 20.6 -18.4 20.6 -31.75 33.1 L-33.05 34.35 -33.45 34.75 -34.85 34.5 Q-36.7 34.5 -38.55 36.45 -40.2 38.3 -40.3 40.05 L-40.35 40.35 Q-40.35 41.9 -40.0 42.95 L-40.15 43.3 -40.8 44.35 -41.5 45.6 -43.45 49.6 Q-44.85 49.85 -46.7 51.3 L-47.0 51.65 -45.95 48.75 Q-42.75 40.8 -36.6 34.2 L-35.0 32.5 -34.9 32.45 Q-20.4 17.9 0.2 17.9 20.8 17.9 35.3 32.45 L36.45 33.65 Q42.7 40.25 46.1 48.1 L46.8 49.8 Q47.75 52.35 48.4 55.05 49.15 57.9 49.5 60.9 L49.75 63.1 49.95 66.15 48.4 68.05 47.3 69.35 47.3 67.7 Q47.3 61.3 45.8 55.5" fill="#cdced0" fill-rule="evenodd" stroke="none"/>
    <path d="M39.8 42.1 L39.35 42.6 39.05 43.35 Q38.85 44.0 38.8 45.0 L38.35 44.3 37.4 42.85 35.8 40.75 Q33.95 38.35 31.7 36.1 L31.2 35.65 30.65 35.1 28.0 32.75 Q16.1 23.1 0.2 23.1 -15.1 23.1 -26.7 32.05 L-28.3 33.35 -31.35 36.1 -31.5 36.35 -32.15 35.6 -32.3 35.45 Q-32.85 34.95 -33.45 34.75 L-33.05 34.35 -31.75 33.1 Q-18.4 20.6 0.2 20.6 19.7 20.6 33.45 34.35 L33.6 34.5 Q37.15 38.1 39.8 42.1 M43.45 56.4 L44.15 56.35 44.6 56.25 Q45.35 56.0 45.8 55.5 47.3 61.3 47.3 67.7 L47.3 69.35 45.9 70.75 44.65 71.9 44.8 67.7 44.65 63.55 44.5 61.9 44.2 59.95 43.45 56.4 M-43.45 49.6 L-41.5 45.6 -40.8 44.35 -40.15 43.3 -40.0 42.95 -39.6 43.75 -39.2 44.3 -39.05 44.5 -38.75 44.6 -38.15 44.7 -38.4 45.05 -38.4 45.1 -39.3 46.65 -40.65 49.4 -41.1 50.5 -41.4 50.2 -42.0 49.75 -42.75 49.55 -43.45 49.6 M-43.85 74.85 Q-43.35 78.5 -42.2 81.9 -40.75 86.25 -38.4 90.2 -36.5 93.4 -34.0 96.35 L-31.55 99.0 -31.35 99.2 -30.05 100.45 -28.2 102.05 Q-16.1 112.3 0.2 112.3 L0.5 112.3 Q8.8 112.25 16.0 109.6 20.7 107.8 24.95 104.85 L25.8 104.85 26.6 105.1 28.15 105.6 30.4 106.65 30.65 106.85 30.75 106.9 30.65 106.95 28.85 108.35 Q22.3 113.05 14.8 115.35 9.25 117.0 3.2 117.35 L0.45 117.45 0.2 117.45 -0.25 117.45 -0.3 117.0 Q-0.3 115.9 0.55 115.1 L0.9 114.8 0.5 114.8 0.2 114.8 Q-18.7 114.8 -32.2 101.7 L-33.05 100.9 -33.05 100.95 Q-35.85 98.15 -38.1 95.15 L-38.95 93.95 Q-45.15 84.95 -46.5 74.0 L-47.0 74.0 -49.2 73.75 -49.35 72.5 -49.55 68.25 -48.85 68.25 -47.9 68.65 -46.85 69.05 -46.9 68.45 -45.5 69.1 -44.35 69.8 -44.3 71.15 -44.2 72.6 -44.05 73.55 -43.85 74.85" fill="#838383" fill-rule="evenodd" stroke="none"/>
    <path d="M47.3 69.35 L48.4 68.05 49.95 66.15 49.95 67.65 Q49.95 87.95 35.7 102.35 L35.3 102.75 35.15 102.95 30.75 106.9 30.65 106.85 30.4 106.65 28.15 105.6 30.4 103.8 31.35 102.95 32.15 102.2 33.4 100.95 33.45 100.9 38.1 95.65 Q46.8 84.2 47.3 69.35 M-0.25 117.45 Q-20.3 117.3 -34.55 103.15 L-35.0 102.75 -36.75 100.9 -39.6 97.55 Q-45.75 89.6 -48.1 80.2 L-49.15 74.45 -49.2 73.75 -47.0 74.0 -46.5 74.0 Q-45.15 84.95 -38.95 93.95 L-38.1 95.15 Q-35.85 98.15 -33.05 100.95 L-33.05 100.9 -32.2 101.7 Q-18.7 114.8 0.2 114.8 L0.5 114.8 0.9 114.8 0.55 115.1 Q-0.3 115.9 -0.3 117.0 L-0.25 117.45 M-49.55 68.25 L-49.55 68.15 -49.55 67.65 -49.3 62.75 -48.75 63.5 -46.85 64.85 -46.9 67.7 -46.9 67.8 -46.9 68.45 -46.85 69.05 -47.9 68.65 -48.85 68.25 -49.55 68.25" fill="#b4b4b4" fill-rule="evenodd" stroke="none"/>
    <path d="M38.8 45.0 L41.1 49.5 Q42.6 52.85 43.45 56.4 L44.2 59.95 44.5 61.9 44.65 63.55 44.8 67.7 44.65 71.9 44.6 72.7 43.95 76.85 Q43.4 79.75 42.45 82.5 L41.4 85.2 41.35 85.25 40.45 87.2 39.6 88.85 38.1 91.35 34.7 95.95 32.9 98.0 31.7 99.2 29.7 101.1 28.05 102.55 25.95 104.2 24.95 104.85 Q20.7 107.8 16.0 109.6 8.8 112.25 0.5 112.3 L0.2 112.3 Q-16.1 112.3 -28.2 102.05 L-30.05 100.45 -31.35 99.2 -31.55 99.0 -34.0 96.35 Q-36.5 93.4 -38.4 90.2 -40.75 86.25 -42.2 81.9 -43.35 78.5 -43.85 74.85 L-44.05 73.55 -44.2 72.6 -44.3 71.15 -44.35 69.8 -44.4 67.7 -44.4 67.6 -44.35 66.55 -44.3 64.85 Q-44.2 61.75 -43.6 58.95 -42.9 54.95 -41.45 51.4 L-41.25 50.9 -41.1 50.5 -40.65 49.4 -39.3 46.65 -38.4 45.1 -38.4 45.05 -38.15 44.7 -37.95 44.4 -37.95 44.35 -37.5 43.65 -35.15 40.45 -32.05 36.95 -31.5 36.35 -31.35 36.1 -28.3 33.35 -26.7 32.05 Q-15.1 23.1 0.2 23.1 16.1 23.1 28.0 32.75 L30.65 35.1 31.2 35.65 31.7 36.1 Q33.95 38.35 35.8 40.75 L37.4 42.85 38.35 44.3 38.8 45.0 Z" fill="none" stroke="#333333" stroke-linecap="round" stroke-linejoin="round" stroke-width="1.5"/>
  </g>
  <defs>
    <radialGradient cx="0" cy="0" fx="48.0" fy="0" gradientTransform="matrix(0.0679, 0.0, 0.0, 0.0902, -15.15, 104.9)" gradientUnits="userSpaceOnUse" id="gradient0" r="819.2" spreadMethod="pad">
      <stop offset="0.0" stop-color="#642800"/>
      <stop offset="1.0" stop-color="#512300"/>
    </radialGradient>
  </defs>
</svg>
