<?xml version="1.0" encoding="UTF-8" standalone="no"?>
<svg xmlns:ffdec="https://www.free-decompiler.com/flash" xmlns:xlink="http://www.w3.org/1999/xlink" ffdec:objectType="shape" height="252.45px" width="440.3px" xmlns="http://www.w3.org/2000/svg">
  <g transform="matrix(1.0, 0.0, 0.0, 1.0, -166.55, -127.2)">
    <path d="M606.55 138.9 L599.4 141.85 591.05 133.2 593.55 127.2 594.45 127.2 606.55 138.9 M599.4 365.3 L606.65 368.0 595.15 379.65 591.8 373.05 599.4 365.3" fill="#441d00" fill-rule="evenodd" stroke="none"/>
    <path d="M593.55 127.2 L591.05 133.2 181.55 133.2 178.55 127.2 593.55 127.2" fill="#4f2100" fill-rule="evenodd" stroke="none"/>
    <path d="M599.4 141.85 L606.55 138.9 606.65 237.3 606.75 237.3 606.85 368.0 606.65 368.0 599.4 365.3 599.4 141.85" fill="#3a1900" fill-rule="evenodd" stroke="none"/>
    <path d="M595.15 379.65 L347.1 379.55 347.1 379.3 178.55 379.15 181.55 373.2 591.45 373.2 591.8 373.05 595.15 379.65" fill="#773700" fill-rule="evenodd" stroke="none"/>
    <path d="M178.55 379.15 L166.55 367.5 173.35 364.7 174.4 365.95 174.4 366.15 181.55 373.2 178.55 379.15 M166.85 138.7 L178.55 127.2 181.55 133.2 173.35 141.55 166.85 138.7" fill="#733600" fill-rule="evenodd" stroke="none"/>
    <path d="M166.55 367.5 L166.55 138.7 166.85 138.7 173.35 141.55 173.35 364.7 166.55 367.5" fill="#8e4300" fill-rule="evenodd" stroke="none"/>
  </g>
</svg>
