<?xml version="1.0" encoding="UTF-8" standalone="no"?>
<svg xmlns:ffdec="https://www.free-decompiler.com/flash" xmlns:xlink="http://www.w3.org/1999/xlink" ffdec:objectType="shape" height="270.6px" width="311.85px" xmlns="http://www.w3.org/2000/svg">
  <g transform="matrix(1.0, 0.0, 0.0, 1.0, -223.05, -98.85)">
    <path d="M264.7 144.85 L267.55 142.25 270.2 139.95 270.2 139.65 270.35 139.65 Q315.2 100.85 378.9 100.85 441.5 100.85 486.1 138.25 L487.55 139.65 Q501.4 151.65 511.05 165.15 508.85 164.05 506.55 164.05 L505.2 164.2 Q504.3 164.35 503.55 164.85 495.3 154.1 484.35 144.45 L484.05 144.2 483.55 143.75 Q478.45 139.35 473.05 135.4 433.05 106.4 379.05 106.4 327.75 106.4 289.15 132.6 283.75 136.25 278.6 140.4 L274.55 143.75 273.3 144.85 271.35 144.35 268.9 144.2 Q266.8 144.2 264.7 144.85 M525.1 191.15 Q526.75 195.45 528.05 200.05 529.35 204.3 530.25 208.85 L530.95 212.3 Q532.7 222.4 532.9 232.9 L532.9 234.25 Q532.9 247.95 530.05 260.65 526.35 277.45 517.6 292.65 506.55 311.8 487.55 328.2 L487.35 328.6 486.8 328.7 476.65 336.9 472.85 339.65 Q471.05 338.85 468.95 338.1 L466.9 337.35 474.0 332.5 476.95 330.15 Q478.25 329.05 479.45 328.1 L483.4 324.75 483.55 324.6 488.3 320.4 Q493.55 315.45 498.15 310.35 502.1 305.9 505.5 301.25 L510.1 294.45 510.3 294.2 Q519.85 278.8 524.05 261.45 L524.9 257.65 525.9 252.2 Q526.85 245.65 527.1 238.9 L527.1 234.4 Q527.1 218.15 523.0 203.3 L522.4 201.25 522.7 200.95 523.7 199.6 Q525.2 197.05 525.2 192.95 L525.1 191.15 M377.55 367.45 L362.8 366.8 Q310.4 362.3 271.85 329.5 L270.35 328.2 270.3 328.3 263.25 321.85 258.25 316.65 Q242.0 299.25 233.55 278.95 229.3 268.75 227.25 257.9 L226.55 254.15 226.1 251.25 230.5 251.5 230.65 251.5 232.25 251.5 Q234.65 268.35 241.9 283.5 247.5 295.1 256.0 305.7 L258.7 309.0 Q264.9 316.2 272.5 322.95 L274.55 324.75 274.55 324.6 277.2 326.8 284.15 332.3 Q324.4 362.35 379.05 362.35 L380.0 362.35 381.25 362.35 380.15 363.2 379.45 363.85 Q377.85 365.4 377.55 367.45 M225.1 235.9 L225.05 233.85 Q225.05 229.8 225.3 225.8 L225.5 223.25 229.15 225.8 229.55 226.0 231.15 226.65 Q231.0 230.25 231.0 234.3 L231.0 234.4 231.0 234.65 231.0 236.4 231.15 238.05 229.4 237.4 227.9 236.95 Q225.9 236.1 225.1 235.9 M233.85 188.4 Q237.75 179.05 243.35 170.35 247.0 164.55 251.5 159.1 L251.75 159.25 Q251.6 159.65 251.6 160.1 251.6 163.1 252.15 165.4 L252.7 167.15 252.25 168.1 Q251.4 169.1 250.7 170.25 L250.2 170.95 248.0 174.35 Q245.5 178.5 243.25 182.6 L241.85 185.2 239.95 185.6 Q237.15 186.4 233.85 188.4" fill="#f6ffaa" fill-rule="evenodd" stroke="none"/>
    <path d="M511.05 165.15 Q516.85 173.2 521.1 181.8 L523.3 186.65 525.1 191.15 525.2 192.95 Q525.2 197.05 523.7 199.6 L522.7 200.95 522.4 201.25 523.0 203.3 Q527.1 218.15 527.1 234.4 L527.1 238.9 Q526.85 245.65 525.9 252.2 L524.9 257.65 524.05 261.45 Q519.85 278.8 510.3 294.2 L510.1 294.45 505.5 301.25 Q502.1 305.9 498.15 310.35 493.55 315.45 488.3 320.4 L483.55 324.6 483.4 324.75 479.45 328.1 Q478.25 329.05 476.95 330.15 L474.0 332.5 466.9 337.35 463.7 336.45 469.6 332.35 475.0 328.3 481.5 322.95 484.8 320.05 491.25 313.8 Q497.15 307.75 501.95 301.3 L507.15 293.9 509.75 289.6 Q512.25 285.2 514.35 280.65 L516.5 275.65 Q519.1 269.15 520.8 262.4 L520.95 261.95 Q522.6 255.05 523.4 247.9 L523.55 246.2 523.9 241.6 524.15 234.4 Q524.15 228.85 523.7 223.55 522.7 212.85 519.8 202.9 L519.85 202.9 519.7 202.65 Q516.95 192.6 512.05 183.2 508.7 176.75 504.6 170.55 L503.15 168.55 501.8 166.75 500.05 164.5 494.85 158.6 Q488.85 151.85 481.5 145.5 L478.9 143.4 478.05 142.7 468.55 135.6 Q430.1 109.0 379.05 109.0 329.55 109.0 291.9 133.95 L286.35 137.8 Q281.25 141.45 276.45 145.5 L276.0 146.1 Q274.65 145.3 273.3 144.85 L274.55 143.75 278.6 140.4 Q283.75 136.25 289.15 132.6 327.75 106.4 379.05 106.4 433.05 106.4 473.05 135.4 478.45 139.35 483.55 143.75 L484.05 144.2 484.35 144.45 Q495.3 154.1 503.55 164.85 504.3 164.35 505.2 164.2 L506.55 164.05 Q508.85 164.05 511.05 165.15 M253.65 170.55 Q253.55 170.55 253.45 170.7 L250.6 175.15 Q248.2 178.85 246.35 182.6 L245.1 185.15 244.05 185.05 241.85 185.2 243.25 182.6 Q245.5 178.5 248.0 174.35 L250.2 170.95 250.7 170.25 Q251.4 169.1 252.25 168.1 L252.7 167.15 Q253.2 168.35 254.0 169.3 L254.3 169.75 253.65 170.55" fill="#f09100" fill-rule="evenodd" stroke="none"/>
    <path d="M478.9 143.4 L481.5 145.5 Q488.85 151.85 494.85 158.6 L500.05 164.5 501.8 166.75 503.15 168.55 504.6 170.55 Q508.7 176.75 512.05 183.2 516.95 192.6 519.7 202.65 L519.8 202.9 Q522.7 212.85 523.7 223.55 522.6 224.35 520.65 224.95 517.0 226.25 512.4 226.25 L511.3 226.05 511.3 225.75 511.95 225.2 505.1 225.45 490.7 225.75 Q486.3 228.2 480.85 229.35 L472.15 231.0 Q476.8 231.0 481.2 231.15 L483.8 232.0 510.65 230.3 514.1 229.9 514.7 230.6 515.7 229.9 Q520.65 227.2 523.4 227.85 523.4 228.2 523.75 229.05 523.75 230.7 521.8 232.7 519.1 235.25 514.9 235.25 L513.25 234.95 Q496.7 242.6 474.8 238.8 473.85 238.25 472.7 237.95 L420.15 240.05 419.75 240.2 420.15 240.5 Q420.15 241.05 420.45 241.8 437.8 246.4 456.95 245.9 460.2 247.7 463.2 250.1 464.5 251.35 466.15 252.65 L467.4 253.75 467.75 254.35 468.1 254.45 474.8 255.75 Q476.1 256.2 476.9 256.75 492.85 256.05 508.15 252.9 509.6 251.5 513.45 249.7 519.7 246.55 523.4 247.9 522.6 255.05 520.95 261.95 519.8 262.95 518.35 262.95 L518.15 262.95 514.9 264.15 512.3 265.8 Q501.8 267.2 491.15 269.65 L490.35 271.3 490.5 271.3 Q493.45 272.05 496.7 273.35 499.2 274.6 501.95 275.3 L502.8 276.0 503.25 276.4 Q509.05 276.2 513.75 274.75 L513.75 276.3 514.25 276.0 Q515.65 275.4 516.5 275.65 L514.35 280.65 Q512.25 285.2 509.75 289.6 L509.5 289.6 507.9 290.7 507.5 291.0 506.85 291.15 506.75 291.45 502.9 292.15 Q501.3 292.55 499.65 293.25 499.35 293.25 499.2 293.85 L506.85 293.85 507.15 293.9 501.95 301.3 498.7 301.45 439.6 303.6 439.45 303.6 437.5 302.6 432.55 303.15 Q429.8 302.2 426.7 301.6 L421.3 301.6 420.3 300.9 Q420.15 300.8 420.15 300.3 L407.55 302.6 Q385.95 302.6 365.15 307.0 L364.0 307.0 371.9 308.7 Q379.6 308.25 386.6 306.3 404.6 300.8 419.3 310.5 L440.8 310.95 442.25 311.5 447.45 312.05 448.75 312.75 448.75 312.65 455.15 314.9 461.75 316.05 463.85 317.3 474.8 318.15 476.9 319.6 484.8 320.05 481.5 322.95 475.0 328.3 469.6 332.35 463.7 336.45 462.8 337.05 459.6 338.85 Q445.75 347.1 430.45 352.2 407.0 359.65 380.05 359.8 L379.05 359.8 Q326.2 359.8 286.9 331.25 L287.45 331.05 Q298.7 326.95 310.35 325.4 322.1 323.7 333.9 322.85 L295.4 320.75 Q286.0 322.4 276.3 322.85 271.8 318.9 267.85 314.95 259.65 306.65 253.45 297.65 239.55 277.55 235.6 253.85 236.85 252.9 239.45 251.65 243.6 249.95 246.05 249.85 246.2 249.7 246.5 249.55 L248.6 248.45 Q249.95 247.55 251.45 247.15 L253.0 246.05 Q254.25 245.25 255.4 244.75 L259.4 244.15 Q270.55 243.9 281.85 243.9 287.25 245.1 293.8 245.45 L291.85 245.05 282.85 243.45 267.95 239.05 Q257.65 241.8 245.5 238.5 L244.9 238.25 241.75 236.25 238.85 233.7 234.0 234.0 Q234.0 232.55 234.15 231.15 234.15 228.6 234.3 226.4 L234.3 225.8 Q234.65 217.35 236.55 209.8 238.9 198.4 243.75 188.1 L249.95 187.7 251.6 185.9 Q254.4 184.2 257.3 182.8 L260.55 180.5 261.4 179.9 Q260.75 179.9 260.4 180.4 259.4 180.5 258.65 180.9 257.8 180.9 257.15 181.35 L251.9 181.05 248.0 182.6 247.15 182.6 246.35 182.6 Q248.2 178.85 250.6 175.15 L253.45 170.7 Q253.55 170.55 253.65 170.55 L259.25 171.3 261.4 172.45 270.25 173.6 272.35 174.6 278.25 173.4 278.75 173.25 275.8 172.45 264.2 169.45 263.2 168.35 256.55 166.6 Q260.0 162.1 264.05 157.75 L267.6 153.95 274.8 147.25 Q278.25 147.1 281.85 147.1 281.85 147.25 282.05 147.25 L286.5 147.95 Q287.75 148.55 289.35 148.95 292.5 150.4 295.4 151.2 L300.65 152.8 Q325.55 151.2 350.4 152.35 L343.55 151.5 336.45 149.75 329.3 148.25 Q318.15 145.85 308.2 141.55 L291.9 133.95 Q329.55 109.0 379.05 109.0 430.1 109.0 468.55 135.6 L459.05 136.25 436.5 137.75 Q434.7 138.5 433.25 139.35 L432.25 139.9 430.8 140.35 Q394.65 143.45 357.45 143.0 L392.15 145.65 394.1 146.85 Q395.1 147.55 396.25 148.1 L396.35 148.25 434.7 146.7 436.65 145.55 439.45 145.85 441.05 145.3 Q446.45 143.15 452.4 142.7 L462.35 141.7 462.35 141.85 Q470.85 142.0 478.9 143.4 M515.4 197.35 L516.85 199.05 Q516.85 200.55 517.5 201.5 L517.85 199.3 515.6 192.4 515.4 192.0 515.4 197.35 M516.05 215.15 L517.35 212.15 517.0 211.5 515.4 208.1 515.4 216.55 516.05 215.15 M520.1 251.5 Q520.8 251.65 521.45 252.25 L521.45 251.8 521.45 251.35 520.1 251.5 M515.4 254.65 L515.6 254.65 515.85 251.95 514.25 252.5 515.4 253.65 515.4 254.65 M239.95 256.9 Q239.95 258.05 241.9 265.1 L241.9 254.75 Q239.95 256.05 239.95 256.9" fill="url(#gradient0)" fill-rule="evenodd" stroke="none"/>
    <path d="M523.7 223.55 Q524.15 228.85 524.15 234.4 L523.9 241.6 523.55 246.2 523.4 247.9 Q519.7 246.55 513.45 249.7 509.6 251.5 508.15 252.9 492.85 256.05 476.9 256.75 476.1 256.2 474.8 255.75 L468.1 254.45 467.75 254.35 467.4 253.75 466.15 252.65 Q464.5 251.35 463.2 250.1 460.2 247.7 456.95 245.9 437.8 246.4 420.45 241.8 420.15 241.05 420.15 240.5 L419.75 240.2 420.15 240.05 472.7 237.95 Q473.85 238.25 474.8 238.8 496.7 242.6 513.25 234.95 L514.9 235.25 Q519.1 235.25 521.8 232.7 523.75 230.7 523.75 229.05 523.4 228.2 523.4 227.85 520.65 227.2 515.7 229.9 L514.7 230.6 514.1 229.9 510.65 230.3 483.8 232.0 481.2 231.15 Q476.8 231.0 472.15 231.0 L480.85 229.35 Q486.3 228.2 490.7 225.75 L505.1 225.45 511.95 225.2 511.3 225.75 511.3 226.05 512.4 226.25 Q517.0 226.25 520.65 224.95 522.6 224.35 523.7 223.55 M520.95 261.95 L520.8 262.4 Q519.1 269.15 516.5 275.65 515.65 275.4 514.25 276.0 L513.75 276.3 513.75 274.75 Q509.05 276.2 503.25 276.4 L502.8 276.0 501.95 275.3 Q499.2 274.6 496.7 273.35 493.45 272.05 490.5 271.3 L490.35 271.3 491.15 269.65 Q501.8 267.2 512.3 265.8 L514.9 264.15 518.15 262.95 518.35 262.95 Q519.8 262.95 520.95 261.95 M509.75 289.6 L507.15 293.9 506.85 293.85 499.2 293.85 Q499.35 293.25 499.65 293.25 501.3 292.55 502.9 292.15 L506.75 291.45 506.85 291.15 507.5 291.0 507.9 290.7 509.5 289.6 509.75 289.6 M501.95 301.3 Q497.15 307.75 491.25 313.8 L484.8 320.05 476.9 319.6 474.8 318.15 463.85 317.3 461.75 316.05 455.15 314.9 448.75 312.65 448.75 312.75 447.45 312.05 442.25 311.5 440.8 310.95 419.3 310.5 Q404.6 300.8 386.6 306.3 379.6 308.25 371.9 308.7 L364.0 307.0 365.15 307.0 Q385.95 302.6 407.55 302.6 L420.15 300.3 Q420.15 300.8 420.3 300.9 L421.3 301.6 426.7 301.6 Q429.8 302.2 432.55 303.15 L437.5 302.6 439.45 303.6 439.6 303.6 498.7 301.45 501.95 301.3 M478.9 143.4 Q470.85 142.0 462.35 141.85 L462.35 141.7 452.4 142.7 Q446.45 143.15 441.05 145.3 L439.45 145.85 436.65 145.55 434.7 146.7 396.35 148.25 396.25 148.1 Q395.1 147.55 394.1 146.85 L392.15 145.65 357.45 143.0 Q394.65 143.45 430.8 140.35 L432.25 139.9 433.25 139.35 Q434.7 138.5 436.5 137.75 L459.05 136.25 468.55 135.6 478.05 142.7 478.9 143.4 M515.4 197.35 L515.4 192.0 515.6 192.4 517.85 199.3 517.5 201.5 Q516.85 200.55 516.85 199.05 L515.4 197.35 M291.9 133.95 L308.2 141.55 Q318.15 145.85 329.3 148.25 L336.45 149.75 343.55 151.5 350.4 152.35 Q325.55 151.2 300.65 152.8 L295.4 151.2 Q292.5 150.4 289.35 148.95 287.75 148.55 286.5 147.95 L282.05 147.25 Q281.85 147.25 281.85 147.1 278.25 147.1 274.8 147.25 L275.95 146.25 276.0 146.1 276.45 145.5 Q281.25 141.45 286.35 137.8 L291.9 133.95 M256.55 166.6 L263.2 168.35 264.2 169.45 275.8 172.45 278.75 173.25 278.25 173.4 272.35 174.6 270.25 173.6 261.4 172.45 259.25 171.3 253.65 170.55 254.3 169.75 254.3 169.7 255.0 168.85 255.0 168.7 256.55 166.6 M246.35 182.6 L247.15 182.6 248.0 182.6 251.9 181.05 257.15 181.35 Q257.8 180.9 258.65 180.9 259.4 180.5 260.4 180.4 260.75 179.9 261.4 179.9 L260.55 180.5 257.3 182.8 Q254.4 184.2 251.6 185.9 L249.95 187.7 243.75 188.1 244.2 187.1 244.7 186.0 245.1 185.15 246.35 182.6 M234.0 234.0 L238.85 233.7 241.75 236.25 244.9 238.25 245.5 238.5 Q257.65 241.8 267.95 239.05 L282.85 243.45 291.85 245.05 293.8 245.45 Q287.25 245.1 281.85 243.9 270.55 243.9 259.4 244.15 L255.4 244.75 Q254.25 245.25 253.0 246.05 L251.45 247.15 Q249.95 247.55 248.6 248.45 L246.5 249.55 Q246.2 249.7 246.05 249.85 243.6 249.95 239.45 251.65 236.85 252.9 235.6 253.85 L235.1 250.8 234.6 248.15 234.3 244.1 Q234.15 242.25 234.15 240.3 L234.0 237.55 234.0 234.4 234.0 234.0 M276.3 322.85 Q286.0 322.4 295.4 320.75 L333.9 322.85 Q322.1 323.7 310.35 325.4 298.7 326.95 287.45 331.05 L286.9 331.25 280.65 326.5 276.45 322.95 276.3 322.85 M515.4 254.65 L515.4 253.65 514.25 252.5 515.85 251.95 515.6 254.65 515.4 254.65 M520.1 251.5 L521.45 251.35 521.45 251.8 521.45 252.25 Q520.8 251.65 520.1 251.5 M516.05 215.15 L515.4 216.55 515.4 208.1 517.0 211.5 517.35 212.15 516.05 215.15 M239.95 256.9 Q239.95 256.05 241.9 254.75 L241.9 265.1 Q239.95 258.05 239.95 256.9" fill="#3b2c27" fill-rule="evenodd" stroke="none"/>
    <path d="M472.85 339.65 L467.95 342.85 463.65 345.45 Q454.2 350.95 444.3 355.15 L437.55 357.9 Q431.65 359.9 425.55 361.5 L422.3 362.3 422.0 362.3 Q403.95 366.8 383.9 367.45 L379.05 367.45 377.55 367.45 Q377.85 365.4 379.45 363.85 L380.15 363.2 381.25 362.35 380.0 362.35 379.05 362.35 Q324.4 362.35 284.15 332.3 L277.2 326.8 274.55 324.6 274.55 324.75 272.5 322.95 Q264.9 316.2 258.7 309.0 L256.0 305.7 Q247.5 295.1 241.9 283.5 234.65 268.35 232.25 251.5 L230.65 251.5 230.5 251.5 226.1 251.25 Q225.3 245.45 225.2 239.65 225.05 238.75 225.2 237.85 L225.1 235.9 Q225.9 236.1 227.9 236.95 L229.4 237.4 231.15 238.05 231.0 236.4 231.0 234.65 231.0 234.4 231.0 234.3 Q231.0 230.25 231.15 226.65 L229.55 226.0 229.15 225.8 225.5 223.25 Q227.0 204.9 233.85 188.4 237.15 186.4 239.95 185.6 L241.85 185.2 244.05 185.05 245.1 185.15 244.7 186.0 244.2 187.1 243.75 188.1 Q238.9 198.4 236.55 209.8 234.65 217.35 234.3 225.8 L234.3 226.4 Q234.15 228.6 234.15 231.15 234.0 232.55 234.0 234.0 L234.0 234.4 234.0 237.55 234.15 240.3 Q234.15 242.25 234.3 244.1 L234.6 248.15 235.1 250.8 235.6 253.85 Q239.55 277.55 253.45 297.65 259.65 306.65 267.85 314.95 271.8 318.9 276.3 322.85 L276.45 322.95 280.65 326.5 286.9 331.25 Q326.2 359.8 379.05 359.8 L380.05 359.8 Q407.0 359.65 430.45 352.2 445.75 347.1 459.6 338.85 L462.8 337.05 463.7 336.45 466.9 337.35 468.95 338.1 Q471.05 338.85 472.85 339.65 M251.85 158.65 L255.85 153.95 Q260.0 149.3 264.7 144.85 266.8 144.2 268.9 144.2 L271.35 144.35 273.3 144.85 Q274.65 145.3 276.0 146.1 L275.95 146.25 274.8 147.25 267.6 153.95 264.05 157.75 Q260.0 162.1 256.55 166.6 L255.0 168.7 255.0 168.85 254.3 169.7 254.3 169.75 254.0 169.3 Q253.2 168.35 252.7 167.15 L252.15 165.4 Q251.6 163.1 251.6 160.1 251.6 159.65 251.75 159.25 L251.85 158.65" fill="#ffdf00" fill-rule="evenodd" stroke="none"/>
    <path d="M519.7 202.65 L519.85 202.9 519.8 202.9 519.7 202.65" fill="#695423" fill-rule="evenodd" stroke="none"/>
    <path d="M515.7 352.55 L515.7 352.4 515.85 352.4 515.7 352.55" fill="#2a2a2a" fill-rule="evenodd" stroke="none"/>
    <path d="M270.35 328.2 L270.35 328.35 270.3 328.3 270.35 328.2 M251.5 159.1 L251.85 158.65 251.75 159.25 251.5 159.1" fill="#a08955" fill-rule="evenodd" stroke="none"/>
    <path d="M264.7 144.85 L267.55 142.25 270.2 139.95 270.2 139.65 270.35 139.65 Q315.2 100.85 378.9 100.85 441.5 100.85 486.1 138.25 L487.55 139.65 Q501.4 151.65 511.05 165.15 516.85 173.2 521.1 181.8 L523.3 186.65 525.1 191.15 Q526.75 195.45 528.05 200.05 529.35 204.3 530.25 208.85 L530.95 212.3 Q532.7 222.4 532.9 232.9 L532.9 234.25 Q532.9 247.95 530.05 260.65 526.35 277.45 517.6 292.65 506.55 311.8 487.55 328.2 L487.35 328.6 486.8 328.7 476.65 336.9 472.85 339.65 467.95 342.85 463.65 345.45 Q454.2 350.95 444.3 355.15 L437.55 357.9 Q431.65 359.9 425.55 361.5 L422.3 362.3 422.0 362.3 Q403.95 366.8 383.9 367.45 L379.05 367.45 377.55 367.45 362.8 366.8 Q310.4 362.3 271.85 329.5 L270.35 328.2 270.35 328.35 270.3 328.3 263.25 321.85 258.25 316.65 Q242.0 299.25 233.55 278.95 229.3 268.75 227.25 257.9 L226.55 254.15 226.1 251.25 Q225.3 245.45 225.2 239.65 225.05 238.75 225.2 237.85 L225.1 235.9 225.05 233.85 Q225.05 229.8 225.3 225.8 L225.5 223.25 Q227.0 204.9 233.85 188.4 237.75 179.05 243.35 170.35 247.0 164.55 251.5 159.1 L251.85 158.65 255.85 153.95 Q260.0 149.3 264.7 144.85" fill="none" stroke="#210d00" stroke-linecap="round" stroke-linejoin="round" stroke-width="4.0"/>
    <path d="M478.9 143.4 L481.5 145.5 Q488.85 151.85 494.85 158.6 L500.05 164.5 501.8 166.75 503.15 168.55 504.6 170.55 Q508.7 176.75 512.05 183.2 516.95 192.6 519.7 202.65 L519.8 202.9 Q522.7 212.85 523.7 223.55 524.15 228.85 524.15 234.4 L523.9 241.6 523.55 246.2 523.4 247.9 Q522.6 255.05 520.95 261.95 L520.8 262.4 Q519.1 269.15 516.5 275.65 L514.35 280.65 Q512.25 285.2 509.75 289.6 L507.15 293.9 501.95 301.3 Q497.15 307.75 491.25 313.8 L484.8 320.05 481.5 322.95 475.0 328.3 469.6 332.35 463.7 336.45 462.8 337.05 459.6 338.85 Q445.75 347.1 430.45 352.2 407.0 359.65 380.05 359.8 L379.05 359.8 Q326.2 359.8 286.9 331.25 L280.65 326.5 276.45 322.95 276.3 322.85 Q271.8 318.9 267.85 314.95 259.65 306.65 253.45 297.65 239.55 277.55 235.6 253.85 L235.1 250.8 234.6 248.15 234.3 244.1 Q234.15 242.25 234.15 240.3 L234.0 237.55 234.0 234.4 234.0 234.0 Q234.0 232.55 234.15 231.15 234.15 228.6 234.3 226.4 L234.3 225.8 Q234.65 217.35 236.55 209.8 238.9 198.4 243.75 188.1 L244.2 187.1 244.7 186.0 245.1 185.15 246.35 182.6 Q248.2 178.85 250.6 175.15 L253.45 170.7 Q253.55 170.55 253.65 170.55 L254.3 169.75 254.3 169.7 255.0 168.85 255.0 168.7 256.55 166.6 Q260.0 162.1 264.05 157.75 L267.6 153.95 274.8 147.25 275.95 146.25 276.0 146.1 276.45 145.5 Q281.25 141.45 286.35 137.8 L291.9 133.95 Q329.55 109.0 379.05 109.0 430.1 109.0 468.55 135.6 L478.05 142.7 478.9 143.4 Z" fill="none" stroke="#210d00" stroke-linecap="round" stroke-linejoin="round" stroke-width="1.5"/>
  </g>
  <defs>
    <radialGradient cx="0" cy="0" gradientTransform="matrix(0.1089, 0.0, 0.0, 0.0916, 373.55, 210.85)" gradientUnits="userSpaceOnUse" id="gradient0" r="819.2" spreadMethod="pad">
      <stop offset="0.0" stop-color="#5d423b"/>
      <stop offset="0.6862745098039216" stop-color="#563f39"/>
      <stop offset="1.0" stop-color="#4a3731"/>
    </radialGradient>
  </defs>
</svg>
