<?xml version="1.0" encoding="UTF-8" standalone="no"?>
<svg xmlns:ffdec="https://www.free-decompiler.com/flash" xmlns:xlink="http://www.w3.org/1999/xlink" ffdec:objectType="shape" height="88.7px" width="88.55px" xmlns="http://www.w3.org/2000/svg">
  <g transform="matrix(1.0, 0.0, 0.0, 1.0, -337.65, -41.95)">
    <path d="M406.7 53.7 L402.5 53.95 396.7 54.4 395.85 54.85 395.6 55.05 395.2 55.15 376.4 55.95 385.3 56.75 385.8 57.1 386.35 57.45 386.4 57.5 396.25 57.05 396.75 56.7 397.45 56.8 397.85 56.6 Q399.25 56.0 400.75 55.85 L403.3 55.55 403.3 55.6 Q406.5 55.65 409.45 56.5 L409.85 56.6 Q412.15 59.05 414.0 61.75 L415.9 64.8 416.55 66.1 416.9 66.8 416.9 68.0 Q417.85 68.95 418.4 71.0 418.95 73.15 418.95 75.6 L418.75 77.3 Q419.35 78.65 419.35 79.15 419.35 79.85 418.25 80.25 417.35 80.65 416.15 80.65 L415.85 80.6 415.85 80.5 416.05 80.35 414.25 80.4 410.6 80.5 Q409.45 81.2 408.05 81.55 L405.85 82.05 408.15 82.1 408.8 82.35 415.7 81.85 416.6 81.7 416.75 81.95 417.0 81.7 Q418.25 80.9 418.95 81.15 L419.05 81.45 418.55 82.55 Q417.9 83.3 416.8 83.3 L416.35 83.25 Q412.15 85.5 406.5 84.35 L405.95 84.1 392.5 84.75 392.4 84.8 392.5 84.85 392.55 85.25 Q397.0 86.65 401.95 86.45 L403.55 87.7 404.3 88.5 404.6 88.8 404.7 89.0 404.8 89.0 406.5 89.4 407.05 89.7 415.05 88.55 Q415.45 88.15 416.4 87.6 418.1 86.65 419.05 87.1 419.55 87.55 419.75 89.15 419.75 89.7 418.7 90.65 418.3 91.55 417.65 91.55 L416.8 91.9 416.1 92.4 410.7 93.5 410.5 94.0 410.55 94.0 412.15 94.6 413.45 95.2 413.7 95.4 413.8 95.55 416.5 95.0 416.5 95.5 416.6 95.4 Q417.5 95.0 417.5 96.0 L417.15 97.05 416.5 97.75 416.5 98.0 416.4 98.45 416.1 99.0 416.05 99.4 415.4 99.45 415.0 99.75 414.9 99.85 414.75 99.9 414.7 100.0 413.75 100.2 412.9 100.5 412.75 100.7 414.75 100.7 415.05 100.8 415.05 100.85 415.2 100.8 416.0 100.75 416.0 101.0 414.9 102.95 414.75 103.0 414.4 102.9 414.3 102.85 412.65 102.95 397.5 103.6 397.45 103.6 396.95 103.3 395.7 103.45 394.15 103.0 392.8 103.0 392.55 102.8 392.5 102.6 389.25 103.3 Q383.7 103.3 378.4 104.6 L378.1 104.6 380.1 105.1 383.9 104.4 Q388.5 102.75 392.3 105.65 L397.8 105.75 398.15 105.95 399.5 106.1 399.85 106.3 399.85 106.25 401.45 106.95 403.15 107.3 403.7 107.65 406.5 107.9 407.05 108.35 410.5 108.6 410.55 108.65 409.05 110.15 404.5 114.2 404.0 114.6 402.0 115.9 Q399.3 117.55 396.45 118.8 390.0 121.35 382.65 121.45 L381.95 121.45 Q367.6 121.45 357.1 112.25 L358.45 111.75 Q361.35 110.5 364.35 110.05 L370.35 109.3 360.5 108.65 354.0 109.35 Q349.4 104.45 346.8 98.75 L346.8 96.7 346.8 96.6 346.35 95.0 Q345.4 94.25 344.85 89.25 344.85 88.9 346.15 88.2 347.2 87.7 347.85 87.65 L347.95 87.55 348.5 87.2 Q348.85 86.95 349.2 86.85 L349.65 86.5 350.25 86.15 351.3 85.95 357.05 85.85 360.1 86.35 359.6 86.2 357.3 85.75 353.45 84.45 347.7 84.3 347.55 84.2 346.75 83.6 346.0 82.85 343.55 83.05 343.6 81.55 343.6 81.3 343.85 78.5 344.15 76.1 345.15 71.85 345.65 70.3 346.0 69.4 347.15 69.35 348.85 69.2 349.25 68.65 350.75 67.75 351.55 67.05 351.05 67.2 350.7 67.3 349.35 67.25 348.35 67.7 348.15 67.7 347.1 67.7 346.7 67.7 346.65 67.7 348.65 63.85 349.0 64.0 351.25 64.35 351.8 64.7 354.05 65.0 354.6 65.3 356.1 64.95 356.25 64.95 355.5 64.7 352.5 63.8 352.25 63.45 350.1 62.8 349.45 62.5 350.5 61.0 Q351.25 59.85 352.1 58.85 L352.9 57.9 353.4 57.45 353.4 57.4 354.45 57.25 357.05 57.15 357.05 57.2 358.2 57.4 358.95 57.7 Q359.75 58.15 360.5 58.4 L361.85 58.85 Q368.25 58.4 374.6 58.7 L372.85 58.45 371.05 57.95 369.2 57.5 Q366.35 56.8 363.8 55.55 L358.5 52.65 Q368.55 44.65 381.95 44.65 396.25 44.65 406.7 53.7 M416.95 70.6 L416.9 70.45 416.9 72.05 417.3 72.55 Q417.3 73.05 417.45 73.3 L417.55 72.65 416.95 70.6 M417.4 76.45 L417.35 76.25 416.9 75.25 416.9 77.75 417.1 77.35 417.4 76.45 M418.45 88.35 L418.45 88.2 418.45 88.1 418.15 88.15 Q418.3 88.2 418.45 88.35 M417.05 88.25 L416.6 88.45 416.9 88.75 416.9 89.05 416.95 89.05 417.05 88.25 M346.8 92.15 L346.8 89.1 Q346.3 89.5 346.3 89.75 L346.8 92.15" fill="url(#gradient0)" fill-rule="evenodd" stroke="none"/>
    <path d="M409.85 56.6 L409.45 56.5 Q406.5 55.65 403.3 55.6 L403.3 55.55 400.75 55.85 Q399.25 56.0 397.85 56.6 L397.45 56.8 396.75 56.7 396.25 57.05 386.4 57.5 386.35 57.45 385.8 57.1 385.3 56.75 376.4 55.95 395.2 55.15 395.6 55.05 395.85 54.85 396.7 54.4 402.5 53.95 406.7 53.7 409.05 55.85 409.85 56.6 M358.5 52.65 L363.8 55.55 Q366.35 56.8 369.2 57.5 L371.05 57.95 372.85 58.45 374.6 58.7 Q368.25 58.4 361.85 58.85 L360.5 58.4 Q359.75 58.15 358.95 57.7 L358.2 57.4 357.05 57.2 357.05 57.15 354.45 57.25 353.4 57.4 354.8 55.85 Q356.6 54.05 358.5 52.65 M349.45 62.5 L350.1 62.8 352.25 63.45 352.5 63.8 355.5 64.7 356.25 64.95 356.1 64.95 354.6 65.3 354.05 65.0 351.8 64.7 351.25 64.35 349.0 64.0 348.65 63.85 349.45 62.5 M346.65 67.7 L346.7 67.7 347.1 67.7 348.15 67.7 348.35 67.7 349.35 67.25 350.7 67.3 351.05 67.2 351.55 67.05 350.75 67.75 349.25 68.65 348.85 69.2 347.15 69.35 346.0 69.4 346.65 67.7 M343.55 83.05 L346.0 82.85 346.75 83.6 347.55 84.2 347.7 84.3 353.45 84.45 357.3 85.75 359.6 86.2 360.1 86.35 357.05 85.85 351.3 85.95 350.25 86.15 349.65 86.5 349.2 86.85 Q348.85 86.95 348.5 87.2 L347.95 87.55 347.85 87.65 Q347.2 87.7 346.15 88.2 344.85 88.9 344.85 89.25 345.4 94.25 346.35 95.0 L346.8 96.6 346.8 96.7 346.8 98.75 345.3 94.8 Q344.5 92.4 344.1 89.8 343.55 86.55 343.55 83.05 M354.0 109.35 L360.5 108.65 370.35 109.3 364.35 110.05 Q361.35 110.5 358.45 111.75 L357.1 112.25 354.8 110.15 354.0 109.35 M410.55 108.65 L410.5 108.6 407.05 108.35 406.5 107.9 403.7 107.65 403.15 107.3 401.45 106.95 399.85 106.25 399.85 106.3 399.5 106.1 398.15 105.95 397.8 105.75 392.3 105.65 Q388.5 102.75 383.9 104.4 L380.1 105.1 378.1 104.6 378.4 104.6 Q383.7 103.3 389.25 103.3 L392.5 102.6 392.55 102.8 392.8 103.0 394.15 103.0 395.7 103.45 396.95 103.3 397.45 103.6 397.5 103.6 412.65 102.95 414.3 102.85 414.4 102.9 414.75 103.0 414.9 102.95 Q413.05 105.95 410.55 108.65 M416.0 101.0 L416.0 100.75 415.2 100.8 415.05 100.85 415.05 100.8 414.75 100.7 412.75 100.7 412.9 100.5 413.75 100.2 414.7 100.0 414.75 99.9 414.9 99.85 415.0 99.75 415.4 99.45 416.05 99.4 416.1 99.0 416.4 98.45 416.5 98.0 416.5 97.75 417.15 97.05 417.5 96.0 Q417.5 95.0 416.6 95.4 L416.5 95.5 416.5 95.0 413.8 95.55 413.7 95.4 413.45 95.2 412.15 94.6 410.55 94.0 410.5 94.0 410.7 93.5 416.1 92.4 416.8 91.9 417.65 91.55 Q418.3 91.55 418.7 90.65 419.75 89.7 419.75 89.15 419.55 87.55 419.05 87.1 418.1 86.65 416.4 87.6 415.45 88.15 415.05 88.55 L407.05 89.7 406.5 89.4 404.8 89.0 404.7 89.0 404.6 88.8 404.3 88.5 403.55 87.7 401.95 86.45 Q397.0 86.65 392.55 85.25 L392.5 84.85 392.4 84.8 392.5 84.75 405.95 84.1 406.5 84.35 Q412.15 85.5 416.35 83.25 L416.8 83.3 Q417.9 83.3 418.55 82.55 L419.05 81.45 418.95 81.15 Q418.25 80.9 417.0 81.7 L416.75 81.95 416.6 81.7 415.7 81.85 408.8 82.35 408.15 82.1 405.85 82.05 408.05 81.55 Q409.45 81.2 410.6 80.5 L414.25 80.4 416.05 80.35 415.85 80.5 415.85 80.6 416.15 80.65 Q417.35 80.65 418.25 80.25 419.35 79.85 419.35 79.15 419.35 78.65 418.75 77.3 L418.95 75.6 Q418.95 73.15 418.4 71.0 417.85 68.95 416.9 68.0 L416.9 66.8 416.95 66.9 Q418.05 69.3 418.8 71.85 420.35 77.15 420.35 83.05 420.35 86.1 420.0 89.0 419.05 95.4 416.0 101.0 M417.05 88.25 L416.95 89.05 416.9 89.05 416.9 88.75 416.6 88.45 417.05 88.25 M418.45 88.35 Q418.3 88.2 418.15 88.15 L418.45 88.1 418.45 88.2 418.45 88.35 M417.4 76.45 L417.1 77.35 416.9 77.75 416.9 75.25 417.35 76.25 417.4 76.45 M416.95 70.6 L417.55 72.65 417.45 73.3 Q417.3 73.05 417.3 72.55 L416.9 72.05 416.9 70.45 416.95 70.6 M346.8 92.15 L346.3 89.75 Q346.3 89.5 346.8 89.1 L346.8 92.15 M417.0 118.05 L417.05 118.05 417.0 118.1 417.0 118.05" fill="#3b2c27" fill-rule="evenodd" stroke="none"/>
    <path d="M404.3 116.7 L406.1 115.25 406.9 114.6 407.5 114.0 408.5 113.0 408.55 112.95 412.3 108.75 Q419.25 99.6 419.65 87.7 L420.55 86.65 421.75 85.1 421.6 82.7 421.4 80.9 Q421.15 78.5 420.55 76.25 L419.25 72.05 418.7 70.65 Q415.95 64.4 410.95 59.1 L410.05 58.15 Q398.45 46.5 381.95 46.5 365.45 46.5 353.85 58.15 L353.75 58.2 352.45 59.55 Q347.55 64.8 345.0 71.2 344.5 72.3 344.15 73.5 342.7 77.75 342.3 82.4 L342.75 83.0 Q343.5 83.8 344.25 84.1 L344.2 86.35 344.2 86.45 344.2 86.95 344.25 87.45 343.4 87.15 342.65 86.8 342.1 86.8 342.25 90.2 342.4 91.2 344.15 91.4 344.55 91.4 Q345.6 100.2 350.6 107.4 L351.25 108.35 Q353.05 110.75 355.3 113.0 L355.3 112.95 356.0 113.6 Q366.8 124.1 381.95 124.1 L382.2 124.1 382.5 124.1 382.2 124.3 Q381.55 124.95 381.55 125.85 L381.6 126.2 381.95 126.2 382.15 126.2 384.35 126.1 Q389.2 125.85 393.65 124.5 399.65 122.7 404.9 118.9 L406.3 117.8 406.4 117.75 406.3 117.7 406.1 117.55 Q405.4 117.1 404.3 116.7 M411.75 56.45 L412.7 57.5 Q418.05 63.1 420.95 69.7 L421.55 71.25 422.9 75.65 Q423.55 78.05 423.8 80.6 L424.05 82.5 424.2 85.05 424.2 86.4 Q424.2 103.65 412.1 115.85 L411.75 116.2 411.6 116.35 407.9 119.7 407.8 119.8 406.3 120.9 Q400.7 124.95 394.4 126.85 389.65 128.3 384.5 128.55 L382.2 128.65 381.95 128.65 381.6 128.65 Q364.5 128.55 352.4 116.5 L352.05 116.2 350.55 114.6 348.15 111.75 Q342.9 105.0 340.9 97.0 L340.0 92.1 340.0 91.55 339.85 90.45 339.7 86.85 339.7 86.8 339.7 86.4 339.9 82.2 Q340.3 77.3 341.85 72.75 L342.75 70.3 Q345.45 63.55 350.65 57.95 L352.05 56.5 352.15 56.45 Q364.45 44.1 381.95 44.1 399.45 44.1 411.75 56.45" fill="#ffdf00" fill-rule="evenodd" stroke="none"/>
    <path d="M344.15 73.5 Q344.5 72.3 345.0 71.2 347.55 64.8 352.45 59.55 L353.75 58.2 353.85 58.15 Q365.45 46.5 381.95 46.5 398.45 46.5 410.05 58.15 L410.95 59.1 Q415.95 64.4 418.7 70.65 L419.25 72.05 420.55 76.25 Q421.15 78.5 421.4 80.9 L421.6 82.7 421.75 85.1 420.55 86.65 419.65 87.7 Q419.25 99.6 412.3 108.75 L408.55 112.95 408.5 113.0 407.5 114.0 406.9 114.6 406.1 115.25 404.3 116.7 402.45 116.1 401.75 116.1 402.55 115.6 404.25 114.25 405.55 113.1 407.15 111.6 409.55 109.0 Q416.6 100.6 417.55 89.75 L417.65 86.35 Q417.65 81.6 416.55 77.3 417.8 77.3 418.45 76.6 419.15 75.8 419.15 74.15 419.15 72.65 418.45 70.6 L417.95 69.15 Q416.35 65.65 414.4 65.65 L413.65 65.85 413.3 66.25 Q412.9 66.9 412.85 68.2 L412.5 67.65 411.7 66.45 410.45 64.8 407.15 61.05 406.3 60.25 Q396.1 50.65 381.95 50.65 368.85 50.65 359.1 58.85 L356.65 61.05 356.55 61.25 356.05 60.65 355.0 60.0 353.85 59.8 Q352.4 59.8 350.9 61.35 349.6 62.8 349.5 64.2 L349.45 64.45 Q349.45 65.7 349.75 66.55 L350.05 67.2 350.5 67.8 350.75 67.85 351.25 67.95 351.05 68.25 350.3 69.5 348.85 72.6 348.6 72.35 Q348.1 71.85 347.55 71.85 L347.0 71.85 Q345.85 72.05 344.4 73.25 L344.15 73.5" fill="#ff9900" fill-rule="evenodd" stroke="none"/>
    <path d="M344.15 73.5 L344.4 73.25 Q345.85 72.05 347.0 71.85 L347.55 71.85 Q348.1 71.85 348.6 72.35 L348.85 72.6 348.75 72.9 Q347.45 75.95 346.85 79.35 346.4 81.6 346.3 84.1 L346.25 85.45 346.2 86.35 346.25 88.05 346.3 89.15 346.4 90.3 346.5 91.05 Q347.4 98.3 351.05 104.4 352.55 106.95 354.55 109.3 L356.65 111.6 357.7 112.6 Q367.9 122.1 381.95 122.1 L382.2 122.1 Q388.8 122.05 394.6 119.9 398.35 118.5 401.75 116.1 L402.45 116.1 404.3 116.7 Q405.4 117.1 406.1 117.55 L406.3 117.7 406.4 117.75 406.3 117.8 404.9 118.9 Q399.65 122.7 393.65 124.5 389.2 125.85 384.35 126.1 L382.15 126.2 381.95 126.2 381.6 126.2 381.55 125.85 Q381.55 124.95 382.2 124.3 L382.5 124.1 382.2 124.1 381.95 124.1 Q366.8 124.1 356.0 113.6 L355.3 112.95 355.3 113.0 Q353.05 110.75 351.25 108.35 L350.6 107.4 Q345.6 100.2 344.55 91.4 L344.15 91.4 342.4 91.2 342.25 90.2 342.1 86.8 342.65 86.8 343.4 87.15 344.25 87.45 344.2 86.95 344.2 86.45 344.2 86.35 344.25 84.1 Q343.5 83.8 342.75 83.0 L342.3 82.4 Q342.7 77.75 344.15 73.5 M351.25 67.95 L350.75 67.85 350.5 67.8 350.05 67.2 349.75 66.55 Q349.45 65.7 349.45 64.45 L349.5 64.2 Q349.6 62.8 350.9 61.35 352.4 59.8 353.85 59.8 L355.0 60.0 356.05 60.65 356.55 61.25 Q354.95 62.8 353.65 64.55 L351.4 67.65 351.4 67.7 351.25 67.95 M412.85 68.2 Q412.9 66.9 413.3 66.25 L413.65 65.85 414.4 65.65 Q416.35 65.65 417.95 69.15 L418.45 70.6 Q419.15 72.65 419.15 74.15 419.15 75.8 418.45 76.6 417.8 77.3 416.55 77.3 415.9 74.45 414.7 71.8 L412.85 68.2" fill="#ff6600" fill-rule="evenodd" stroke="none"/>
    <path d="M413.15 54.9 Q419.5 61.25 422.8 68.9 L423.45 70.5 424.8 75.0 425.45 77.9 425.65 79.1 Q426.2 82.6 426.2 86.4 426.2 104.65 413.15 117.65 L413.1 117.75 412.9 117.8 410.05 120.5 407.5 122.5 406.3 123.35 400.7 126.6 398.75 127.5 395.3 128.7 394.4 129.0 394.35 129.0 Q389.1 130.45 383.35 130.65 L381.95 130.65 377.3 130.45 Q362.2 129.0 351.1 118.05 L350.65 117.65 350.65 117.7 348.65 115.55 347.2 113.8 Q342.55 107.95 340.05 101.25 338.85 97.85 338.3 94.2 L338.05 92.95 337.65 88.1 337.65 87.55 337.65 86.2 Q337.65 74.6 342.9 65.05 345.7 60.1 349.9 55.7 L350.65 55.0 350.65 54.9 Q363.6 41.95 381.9 41.95 399.9 41.95 412.7 54.4 L413.15 54.9 M411.75 56.45 Q399.45 44.1 381.95 44.1 364.45 44.1 352.15 56.45 L352.05 56.5 350.65 57.95 Q345.45 63.55 342.75 70.3 L341.85 72.75 Q340.3 77.3 339.9 82.2 L339.7 86.4 339.7 86.8 339.7 86.85 339.85 90.45 340.0 91.55 340.0 92.1 340.9 97.0 Q342.9 105.0 348.15 111.75 L350.55 114.6 352.05 116.2 352.4 116.5 Q364.5 128.55 381.6 128.65 L381.95 128.65 382.2 128.65 384.5 128.55 Q389.65 128.3 394.4 126.85 400.7 124.95 406.3 120.9 L407.8 119.8 407.9 119.7 411.6 116.35 411.75 116.2 412.1 115.85 Q424.2 103.65 424.2 86.4 L424.2 85.05 424.05 82.5 423.8 80.6 Q423.55 78.05 422.9 75.65 L421.55 71.25 420.95 69.7 Q418.05 63.1 412.7 57.5 L411.75 56.45" fill="#210d00" fill-rule="evenodd" stroke="none"/>
    <path d="M407.15 61.05 L410.45 64.8 411.7 66.45 412.5 67.65 412.85 68.2 414.7 71.8 Q415.9 74.45 416.55 77.3 417.65 81.6 417.65 86.35 L417.55 89.75 Q416.6 100.6 409.55 109.0 L407.15 111.6 405.55 113.1 404.25 114.25 402.55 115.6 401.75 116.1 Q398.35 118.5 394.6 119.9 388.8 122.05 382.2 122.1 L381.95 122.1 Q367.9 122.1 357.7 112.6 L356.65 111.6 354.55 109.3 Q352.55 106.95 351.05 104.4 347.4 98.3 346.5 91.05 L346.4 90.3 346.3 89.15 346.25 88.05 346.2 86.35 346.25 85.45 346.3 84.1 Q346.4 81.6 346.85 79.35 347.45 75.95 348.75 72.9 L348.85 72.6 350.3 69.5 351.05 68.25 351.25 67.95 351.4 67.7 351.4 67.65 353.65 64.55 Q354.95 62.8 356.55 61.25 L356.65 61.05 359.1 58.85 Q368.85 50.65 381.95 50.65 396.1 50.65 406.3 60.25 L407.15 61.05 Z" fill="none" stroke="#210d00" stroke-linecap="round" stroke-linejoin="round" stroke-width="1.5"/>
  </g>
  <defs>
    <radialGradient cx="0" cy="0" gradientTransform="matrix(0.0609, 0.0, 0.0, 0.0512, 368.55, 84.95)" gradientUnits="userSpaceOnUse" id="gradient0" r="819.2" spreadMethod="pad">
      <stop offset="0.0" stop-color="#5d423b"/>
      <stop offset="0.6862745098039216" stop-color="#563f39"/>
      <stop offset="1.0" stop-color="#4a3731"/>
    </radialGradient>
  </defs>
</svg>
