<?xml version="1.0" encoding="UTF-8" standalone="no"?>
<svg xmlns:ffdec="https://www.free-decompiler.com/flash" xmlns:xlink="http://www.w3.org/1999/xlink" ffdec:objectType="shape" height="25.2px" width="120.1px" xmlns="http://www.w3.org/2000/svg">
  <g transform="matrix(1.0, 0.0, 0.0, 1.0, -320.05, -85.55)">
    <path d="M438.95 100.5 L437.35 100.9 Q431.35 102.35 427.45 102.35 424.15 102.35 421.55 101.1 L421.0 100.9 419.95 100.3 Q418.8 99.65 417.35 98.35 L416.1 97.15 Q416.35 93.1 419.15 90.1 L419.15 90.75 Q419.15 94.4 421.35 96.95 423.2 99.2 425.4 99.2 427.8 99.2 430.0 96.55 431.35 94.85 431.8 93.1 L432.1 90.95 Q432.1 88.95 431.45 87.2 432.9 87.75 434.15 88.6 L435.75 89.9 Q439.15 93.35 439.15 98.15 L438.95 100.5" fill="#ffdf00" fill-rule="evenodd" stroke="none"/>
    <path d="M416.1 97.15 L417.35 98.35 Q418.8 99.65 419.95 100.3 L421.0 100.9 421.55 101.1 Q424.15 102.35 427.45 102.35 431.35 102.35 437.35 100.9 L438.95 100.5 438.95 100.55 438.45 102.35 Q437.7 104.1 436.4 105.65 L435.75 106.3 434.2 107.6 Q431.35 109.75 427.55 109.75 422.75 109.75 419.35 106.3 416.8 103.75 416.2 100.3 L416.0 98.15 416.1 97.15" fill="#f09100" fill-rule="evenodd" stroke="none"/>
    <path d="M431.45 87.2 Q432.1 88.95 432.1 90.95 L431.8 93.1 Q431.35 94.85 430.0 96.55 427.8 99.2 425.4 99.2 423.2 99.2 421.35 96.95 419.15 94.4 419.15 90.75 L419.15 90.1 419.35 89.9 Q422.6 86.65 427.1 86.55 L427.55 86.55 Q429.6 86.55 431.45 87.2" fill="#f6ffaa" fill-rule="evenodd" stroke="none"/>
    <path d="M438.95 100.5 L439.15 98.15 Q439.15 93.35 435.75 89.9 L434.15 88.6 Q432.9 87.75 431.45 87.2 429.6 86.55 427.55 86.55 L427.1 86.55 Q422.6 86.65 419.35 89.9 L419.15 90.1 Q416.35 93.1 416.1 97.15 L416.0 98.15 416.2 100.3 Q416.8 103.75 419.35 106.3 422.75 109.75 427.55 109.75 431.35 109.75 434.2 107.6 L435.75 106.3 436.4 105.65 Q437.7 104.1 438.45 102.35 L438.95 100.55" fill="none" stroke="#35000a" stroke-linecap="round" stroke-linejoin="round" stroke-width="2.0"/>
    <path d="M426.2 102.3 L425.7 102.35 425.35 102.35 424.95 102.35 423.95 102.2 423.3 101.85 423.1 101.75 Q422.2 101.1 421.85 101.1 L421.2 101.15 420.35 102.0 420.35 101.35 Q420.35 100.35 420.75 99.8 421.15 99.35 421.7 99.3 L422.3 99.15 Q422.6 99.15 422.95 99.5 L423.5 99.95 424.3 100.9 424.8 101.25 425.45 101.55 426.75 102.15 426.75 102.2 426.2 102.3 M432.85 99.35 L433.4 99.4 Q433.95 99.55 434.4 99.95 434.9 100.4 434.9 101.05 L434.7 102.0 Q434.6 101.5 434.05 101.15 L433.8 101.1 433.4 101.1 432.1 101.6 430.15 102.15 429.9 102.15 429.25 102.25 428.9 102.2 428.6 102.2 428.6 102.15 428.7 102.15 428.8 102.15 429.25 101.95 430.05 101.75 431.15 100.65 431.35 100.5 431.95 99.85 Q432.45 99.35 432.85 99.35 M424.75 96.35 L424.9 97.0 425.0 97.1 426.15 97.65 426.3 97.15 426.55 96.6 426.65 96.25 426.7 96.15 426.55 95.9 426.55 95.75 Q426.2 95.4 426.2 94.85 426.2 94.45 426.7 94.15 L427.6 93.95 427.7 93.95 Q428.15 93.95 428.4 94.25 428.75 94.65 428.75 95.2 L428.55 95.7 428.4 95.85 428.35 95.95 428.35 96.1 428.5 96.55 428.8 97.15 429.15 97.75 430.15 97.1 430.15 96.65 430.45 96.2 431.1 96.0 Q431.55 96.05 431.75 96.25 L431.95 96.55 432.15 97.1 432.15 97.3 431.7 97.85 431.65 97.85 431.45 97.95 431.35 98.05 430.75 99.5 430.45 100.25 430.2 101.0 429.7 101.0 425.8 101.05 425.2 101.0 425.1 101.0 424.8 101.0 423.9 98.15 423.75 98.15 Q423.45 98.15 423.15 97.85 L423.05 97.65 422.9 97.4 422.75 96.95 422.8 96.75 422.95 96.5 423.25 96.15 423.85 95.9 Q424.5 95.9 424.75 96.35" fill="url(#gradient0)" fill-rule="evenodd" stroke="none"/>
    <path d="M324.2 90.1 L324.4 89.9 Q327.65 86.65 332.15 86.55 L332.6 86.55 Q334.65 86.55 336.5 87.2 337.15 88.95 337.15 90.95 L336.85 93.1 Q336.4 94.85 335.05 96.55 332.85 99.2 330.45 99.2 328.25 99.2 326.4 96.95 324.2 94.4 324.2 90.75 L324.2 90.1" fill="#f6ffaa" fill-rule="evenodd" stroke="none"/>
    <path d="M336.5 87.2 Q337.95 87.75 339.2 88.6 L340.8 89.9 Q344.2 93.35 344.2 98.15 L344.0 100.5 342.4 100.9 Q336.4 102.35 332.5 102.35 329.2 102.35 326.6 101.1 L326.05 100.9 325.0 100.3 Q323.85 99.65 322.4 98.35 L321.15 97.15 Q321.4 93.1 324.2 90.1 L324.2 90.75 Q324.2 94.4 326.4 96.95 328.25 99.2 330.45 99.2 332.85 99.2 335.05 96.55 336.4 94.85 336.85 93.1 L337.15 90.95 Q337.15 88.95 336.5 87.2" fill="#ffdf00" fill-rule="evenodd" stroke="none"/>
    <path d="M344.0 100.5 L344.0 100.55 343.5 102.35 Q342.75 104.1 341.45 105.65 L340.8 106.3 339.25 107.6 Q336.4 109.75 332.6 109.75 327.8 109.75 324.4 106.3 321.85 103.75 321.25 100.3 L321.05 98.15 321.15 97.15 322.4 98.35 Q323.85 99.65 325.0 100.3 L326.05 100.9 326.6 101.1 Q329.2 102.35 332.5 102.35 336.4 102.35 342.4 100.9 L344.0 100.5" fill="#f09100" fill-rule="evenodd" stroke="none"/>
    <path d="M324.2 90.1 L324.4 89.9 Q327.65 86.65 332.15 86.55 L332.6 86.55 Q334.65 86.55 336.5 87.2 337.95 87.75 339.2 88.6 L340.8 89.9 Q344.2 93.35 344.2 98.15 L344.0 100.5 M344.0 100.55 L343.5 102.35 Q342.75 104.1 341.45 105.65 L340.8 106.3 339.25 107.6 Q336.4 109.75 332.6 109.75 327.8 109.75 324.4 106.3 321.85 103.75 321.25 100.3 L321.05 98.15 321.15 97.15 Q321.4 93.1 324.2 90.1" fill="none" stroke="#35000a" stroke-linecap="round" stroke-linejoin="round" stroke-width="2.0"/>
    <path d="M329.85 101.25 L330.5 101.55 331.8 102.15 331.8 102.2 331.25 102.3 330.75 102.35 330.4 102.35 330.0 102.35 329.0 102.2 328.35 101.85 328.15 101.75 Q327.25 101.1 326.9 101.1 L326.25 101.15 325.4 102.0 325.4 101.35 Q325.4 100.35 325.8 99.8 326.2 99.35 326.75 99.3 L327.35 99.15 Q327.65 99.15 328.0 99.5 L328.55 99.95 329.35 100.9 329.85 101.25 M339.45 99.95 Q339.95 100.4 339.95 101.05 L339.75 102.0 Q339.65 101.5 339.1 101.15 L338.85 101.1 338.45 101.1 337.15 101.6 Q336.15 102.15 335.2 102.15 L334.95 102.15 334.3 102.25 333.95 102.2 333.65 102.2 333.65 102.15 333.75 102.15 333.85 102.15 334.3 101.95 335.1 101.75 336.2 100.65 336.4 100.5 337.0 99.85 Q337.5 99.35 337.9 99.35 L338.45 99.4 339.45 99.95 M328.0 96.5 L328.3 96.15 Q328.65 95.9 328.9 95.9 329.55 95.9 329.8 96.35 L329.95 97.0 330.05 97.1 331.2 97.65 331.35 97.15 331.6 96.6 331.7 96.25 331.75 96.15 331.6 95.9 331.6 95.75 Q331.25 95.4 331.25 94.85 331.25 94.45 331.75 94.15 L332.65 93.95 332.75 93.95 Q333.2 93.95 333.45 94.25 333.8 94.65 333.8 95.2 L333.6 95.7 333.45 95.85 333.4 95.95 333.4 96.1 333.55 96.55 333.85 97.15 334.2 97.75 Q334.6 97.3 335.2 97.1 L335.2 96.65 335.5 96.2 Q335.7 96.0 336.15 96.0 L336.8 96.25 337.0 96.55 337.2 97.1 337.2 97.3 336.75 97.85 336.7 97.85 336.5 97.95 336.4 98.05 335.8 99.5 335.5 100.25 335.25 101.0 334.75 101.0 330.85 101.05 330.25 101.0 330.15 101.0 329.85 101.0 328.95 98.15 328.8 98.15 328.2 97.85 328.1 97.65 327.95 97.4 327.8 96.95 327.85 96.75 328.0 96.5" fill="url(#gradient1)" fill-rule="evenodd" stroke="none"/>
  </g>
  <defs>
    <linearGradient gradientTransform="matrix(0.0, -0.0048, 0.0038, 0.0, 427.5, 98.15)" gradientUnits="userSpaceOnUse" id="gradient0" spreadMethod="pad" x1="-819.2" x2="819.2">
      <stop offset="0.0" stop-color="#de7200"/>
      <stop offset="1.0" stop-color="#fca600"/>
      <stop offset="1.0" stop-color="#cb9044"/>
      <stop offset="1.0" stop-color="#3c961b"/>
    </linearGradient>
    <linearGradient gradientTransform="matrix(0.0, -0.0048, 0.0038, 0.0, 332.55, 98.15)" gradientUnits="userSpaceOnUse" id="gradient1" spreadMethod="pad" x1="-819.2" x2="819.2">
      <stop offset="0.0" stop-color="#de7200"/>
      <stop offset="1.0" stop-color="#fca600"/>
      <stop offset="1.0" stop-color="#cb9044"/>
      <stop offset="1.0" stop-color="#3c961b"/>
    </linearGradient>
  </defs>
</svg>
