<?xml version="1.0" encoding="UTF-8" standalone="no"?>
<svg xmlns:ffdec="https://www.free-decompiler.com/flash" xmlns:xlink="http://www.w3.org/1999/xlink" ffdec:objectType="shape" height="88.7px" width="88.55px" xmlns="http://www.w3.org/2000/svg">
  <g transform="matrix(1.0, 0.0, 0.0, 1.0, -333.35, -144.55)">
    <path d="M354.15 159.65 L359.45 162.55 Q362.0 163.8 364.85 164.5 L366.7 164.95 368.5 165.45 370.25 165.7 Q363.9 165.4 357.5 165.85 L356.15 165.4 Q355.4 165.15 354.6 164.7 L353.85 164.4 352.7 164.2 352.7 164.15 350.1 164.25 349.05 164.4 350.45 162.85 Q352.25 161.05 354.15 159.65 M345.1 169.5 Q345.4 169.6 345.75 169.8 L347.9 170.45 348.15 170.8 351.15 171.7 351.9 171.95 351.75 171.95 350.25 172.3 349.7 172.0 347.45 171.7 346.9 171.35 344.65 171.0 344.3 170.85 345.1 169.5 M342.3 174.7 L342.35 174.7 342.75 174.7 343.8 174.7 344.0 174.7 345.0 174.25 346.35 174.3 346.7 174.2 347.2 174.05 346.4 174.75 344.9 175.65 344.5 176.2 342.8 176.35 341.65 176.4 342.3 174.7 M339.2 190.05 L341.65 189.85 342.4 190.6 343.2 191.2 343.35 191.3 349.1 191.45 352.95 192.75 355.25 193.2 355.75 193.35 352.7 192.85 346.95 192.95 345.9 193.15 345.3 193.5 344.85 193.85 344.15 194.2 Q343.8 194.4 343.6 194.55 L343.5 194.65 Q342.85 194.7 341.8 195.2 340.5 195.9 340.5 196.25 341.05 201.25 342.0 202.0 L342.45 203.6 342.45 203.7 342.45 205.75 340.95 201.8 Q340.15 199.4 339.75 196.8 339.2 193.55 339.2 190.05 M349.65 216.35 L356.15 215.65 366.0 216.3 360.0 217.05 Q357.0 217.5 354.1 218.75 L352.75 219.25 350.45 217.15 349.65 216.35 M406.2 215.65 L406.15 215.6 402.7 215.35 402.15 214.9 399.35 214.65 398.8 214.3 397.1 213.95 395.5 213.25 395.5 213.3 395.15 213.1 393.8 212.95 393.45 212.75 387.95 212.65 Q384.15 209.75 379.55 211.4 377.75 211.95 375.75 212.1 L373.75 211.6 374.05 211.6 Q379.35 210.3 384.9 210.3 L388.15 209.6 388.2 209.8 388.45 210.0 389.8 210.0 391.35 210.45 392.6 210.3 393.1 210.6 393.15 210.6 408.3 209.95 409.95 209.85 410.05 209.9 410.4 210.0 410.55 209.95 Q408.7 212.95 406.2 215.65 M411.65 208.0 L411.65 207.75 410.85 207.8 410.7 207.85 410.7 207.8 410.4 207.7 408.4 207.7 408.55 207.5 409.4 207.2 410.35 207.0 410.4 206.9 410.55 206.85 410.65 206.75 411.05 206.45 411.7 206.4 411.75 206.0 412.05 205.45 412.15 205.0 412.15 204.75 412.8 204.05 413.15 203.0 Q413.15 202.0 412.25 202.4 L412.15 202.5 412.15 202.0 409.45 202.55 409.35 202.4 409.1 202.2 407.8 201.6 406.2 201.0 406.15 201.0 406.35 200.5 411.75 199.4 412.45 198.9 413.3 198.55 Q413.95 198.55 414.35 197.65 415.4 196.7 415.4 196.15 415.2 194.55 414.7 194.1 413.75 193.65 412.05 194.6 L410.7 195.55 Q406.75 196.5 402.7 196.7 L402.15 196.4 400.45 196.0 400.35 196.0 400.25 195.8 399.95 195.5 399.2 194.7 397.6 193.45 Q392.65 193.65 388.2 192.25 L388.15 191.85 388.05 191.8 388.15 191.75 401.6 191.1 402.15 191.35 Q407.8 192.5 412.0 190.25 L412.45 190.3 Q413.55 190.3 414.2 189.55 L414.7 188.45 414.6 188.15 Q413.9 187.9 412.65 188.7 L412.4 188.95 412.25 188.7 411.35 188.85 404.45 189.35 403.8 189.1 401.5 189.05 403.7 188.55 Q405.1 188.2 406.25 187.5 L409.9 187.4 411.7 187.35 411.5 187.5 411.5 187.6 411.8 187.65 413.9 187.25 Q415.0 186.85 415.0 186.15 415.0 185.65 414.4 184.3 L414.6 182.6 Q414.6 180.15 414.05 178.0 413.5 175.95 412.55 175.0 L412.55 173.8 412.6 173.9 Q413.7 176.3 414.45 178.85 416.0 184.15 416.0 190.05 416.0 193.1 415.65 196.0 414.7 202.4 411.65 208.0 M405.5 163.6 L405.1 163.5 Q402.15 162.65 398.95 162.6 L398.95 162.55 396.4 162.85 Q394.9 163.0 393.5 163.6 L393.1 163.8 392.4 163.7 391.9 164.05 382.05 164.5 382.0 164.45 381.45 164.1 380.95 163.75 372.05 162.95 390.85 162.15 391.25 162.05 391.5 161.85 392.35 161.4 398.15 160.95 402.35 160.7 404.7 162.85 405.5 163.6 M341.95 196.75 Q341.95 196.5 342.45 196.1 L342.45 199.15 341.95 196.75 M414.1 195.2 L414.1 195.35 413.8 195.15 414.1 195.1 414.1 195.2 M412.55 195.75 L412.25 195.45 412.7 195.25 412.6 196.05 412.55 196.05 412.55 195.75 M412.55 184.75 L412.55 182.25 413.0 183.25 413.05 183.45 412.75 184.35 412.55 184.75 M412.55 179.05 L412.55 177.45 412.6 177.6 413.2 179.65 413.1 180.3 Q412.95 180.05 412.95 179.55 L412.55 179.05 M412.7 225.05 L412.65 225.1 412.65 225.05 412.7 225.05" fill="#3b2c27" fill-rule="evenodd" stroke="none"/>
    <path d="M349.05 164.4 L350.1 164.25 352.7 164.15 352.7 164.2 353.85 164.4 354.6 164.7 Q355.4 165.15 356.15 165.4 L357.5 165.85 Q363.9 165.4 370.25 165.7 L368.5 165.45 366.7 164.95 364.85 164.5 Q362.0 163.8 359.45 162.55 L354.15 159.65 Q364.2 151.65 377.6 151.65 391.9 151.65 402.35 160.7 L398.15 160.95 392.35 161.4 391.5 161.85 391.25 162.05 390.85 162.15 372.05 162.95 380.95 163.75 381.45 164.1 382.0 164.45 382.05 164.5 391.9 164.05 392.4 163.7 393.1 163.8 393.5 163.6 Q394.9 163.0 396.4 162.85 L398.95 162.55 398.95 162.6 Q402.15 162.65 405.1 163.5 L405.5 163.6 Q407.8 166.05 409.65 168.75 L411.55 171.8 412.2 173.1 412.55 173.8 412.55 175.0 Q413.5 175.95 414.05 178.0 414.6 180.15 414.6 182.6 L414.4 184.3 Q415.0 185.65 415.0 186.15 415.0 186.85 413.9 187.25 L411.8 187.65 411.5 187.6 411.5 187.5 411.7 187.35 409.9 187.4 406.25 187.5 Q405.1 188.2 403.7 188.55 L401.5 189.05 403.8 189.1 404.45 189.35 411.35 188.85 412.25 188.7 412.4 188.95 412.65 188.7 Q413.9 187.9 414.6 188.15 L414.7 188.45 414.2 189.55 Q413.55 190.3 412.45 190.3 L412.0 190.25 Q407.8 192.5 402.15 191.35 L401.6 191.1 388.15 191.75 388.05 191.8 388.15 191.85 388.2 192.25 Q392.65 193.65 397.6 193.45 L399.2 194.7 399.95 195.5 400.25 195.8 400.35 196.0 400.45 196.0 402.15 196.4 402.7 196.7 Q406.75 196.5 410.7 195.55 L412.05 194.6 Q413.75 193.65 414.7 194.1 415.2 194.55 415.4 196.15 415.4 196.7 414.35 197.65 413.95 198.55 413.3 198.55 L412.45 198.9 411.75 199.4 406.35 200.5 406.15 201.0 406.2 201.0 407.8 201.6 409.1 202.2 409.35 202.4 409.45 202.55 412.15 202.0 412.15 202.5 412.25 202.4 Q413.15 202.0 413.15 203.0 L412.8 204.05 412.15 204.75 412.15 205.0 412.05 205.45 411.75 206.0 411.7 206.4 411.05 206.45 410.65 206.75 410.55 206.85 410.4 206.9 410.35 207.0 409.4 207.2 408.55 207.5 408.4 207.7 410.4 207.7 410.7 207.8 410.7 207.85 410.85 207.8 411.65 207.75 411.65 208.0 410.55 209.95 410.4 210.0 410.05 209.9 409.95 209.85 408.3 209.95 393.15 210.6 393.1 210.6 392.6 210.3 391.35 210.45 389.8 210.0 388.45 210.0 388.2 209.8 388.15 209.6 384.9 210.3 Q379.35 210.3 374.05 211.6 L373.75 211.6 375.75 212.1 Q377.75 211.95 379.55 211.4 384.15 209.75 387.95 212.65 L393.45 212.75 393.8 212.95 395.15 213.1 395.5 213.3 395.5 213.25 397.1 213.95 398.8 214.3 399.35 214.65 402.15 214.9 402.7 215.35 406.15 215.6 406.2 215.65 404.7 217.15 400.15 221.2 Q399.85 221.35 399.65 221.6 L397.65 222.9 Q394.95 224.55 392.1 225.8 385.65 228.35 378.3 228.45 L377.6 228.45 Q363.25 228.45 352.75 219.25 L354.1 218.75 Q357.0 217.5 360.0 217.05 L366.0 216.3 356.15 215.65 349.65 216.35 Q345.05 211.45 342.45 205.75 L342.45 203.7 342.45 203.6 342.0 202.0 Q341.05 201.25 340.5 196.25 340.5 195.9 341.8 195.2 342.85 194.7 343.5 194.65 L343.6 194.55 Q343.8 194.4 344.15 194.2 L344.85 193.85 345.3 193.5 345.9 193.15 346.95 192.95 352.7 192.85 355.75 193.35 355.25 193.2 352.95 192.75 349.1 191.45 343.35 191.3 343.2 191.2 342.4 190.6 341.65 189.85 339.2 190.05 339.25 188.55 339.25 188.3 Q339.25 186.9 339.5 185.5 L339.8 183.1 340.8 178.85 341.3 177.3 341.65 176.4 342.8 176.35 344.5 176.2 344.9 175.65 346.4 174.75 347.2 174.05 346.7 174.2 346.35 174.3 345.0 174.25 344.0 174.7 343.8 174.7 342.75 174.7 342.35 174.7 342.3 174.7 344.3 170.85 344.65 171.0 346.9 171.35 347.45 171.7 349.7 172.0 350.25 172.3 351.75 171.95 351.9 171.95 351.15 171.7 348.15 170.8 347.9 170.45 345.75 169.8 Q345.4 169.6 345.1 169.5 L346.15 168.0 347.75 165.85 348.55 164.9 349.05 164.45 349.05 164.4 M341.95 196.75 L342.45 199.15 342.45 196.1 Q341.95 196.5 341.95 196.75 M412.55 179.05 L412.95 179.55 Q412.95 180.05 413.1 180.3 L413.2 179.65 412.6 177.6 412.55 177.45 412.55 179.05 M412.55 184.75 L412.75 184.35 413.05 183.45 413.0 183.25 412.55 182.25 412.55 184.75 M412.55 195.75 L412.55 196.05 412.6 196.05 412.7 195.25 412.25 195.45 412.55 195.75 M414.1 195.2 L414.1 195.1 413.8 195.15 414.1 195.35 414.1 195.2" fill="url(#gradient0)" fill-rule="evenodd" stroke="none"/>
    <path d="M339.85 176.1 Q340.2 174.9 340.7 173.8 343.25 167.4 348.15 162.15 L349.45 160.8 349.55 160.75 Q361.15 149.1 377.65 149.1 394.15 149.1 405.75 160.75 L406.65 161.7 Q411.65 167.0 414.4 173.25 L414.95 174.65 416.25 178.85 Q416.85 181.1 417.1 183.5 L417.3 185.3 417.45 187.7 416.25 189.25 415.35 190.3 Q414.95 202.2 408.0 211.35 L404.25 215.55 404.2 215.6 403.2 216.6 402.6 217.2 401.8 217.85 400.0 219.3 398.15 218.7 397.45 218.7 398.25 218.2 399.95 216.85 401.25 215.7 402.85 214.2 405.25 211.6 Q412.3 203.2 413.25 192.35 L413.35 188.95 Q413.35 184.2 412.25 179.9 413.5 179.9 414.15 179.2 414.85 178.4 414.85 176.75 414.85 175.25 414.15 173.2 L413.65 171.75 Q412.05 168.25 410.1 168.25 L409.35 168.45 409.0 168.85 Q408.6 169.5 408.55 170.8 L408.2 170.25 407.4 169.05 406.15 167.4 402.85 163.65 402.0 162.85 Q391.8 153.25 377.65 153.25 364.55 153.25 354.8 161.45 L352.35 163.65 352.25 163.85 351.75 163.25 350.7 162.6 349.55 162.4 Q348.1 162.4 346.6 163.95 345.3 165.4 345.2 166.8 L345.15 167.05 Q345.15 168.3 345.45 169.15 L345.75 169.8 346.2 170.4 346.45 170.45 346.95 170.55 346.75 170.85 346.0 172.1 344.55 175.2 344.3 174.95 Q343.8 174.45 343.25 174.45 L342.7 174.45 Q341.55 174.65 340.1 175.85 L339.85 176.1" fill="#ff9900" fill-rule="evenodd" stroke="none"/>
    <path d="M346.35 160.55 L347.75 159.1 347.85 159.05 Q360.15 146.7 377.65 146.7 395.15 146.7 407.45 159.05 L408.4 160.1 Q413.75 165.7 416.65 172.3 L417.25 173.85 418.6 178.25 Q419.25 180.65 419.5 183.2 L419.75 185.1 419.9 187.65 419.9 189.0 Q419.9 206.25 407.8 218.45 L407.45 218.8 407.3 218.95 403.6 222.3 403.5 222.4 402.0 223.5 Q396.4 227.55 390.1 229.45 385.35 230.9 380.2 231.15 L377.9 231.25 377.65 231.25 377.3 231.25 Q360.2 231.15 348.1 219.1 L347.75 218.8 346.25 217.2 343.85 214.35 Q338.6 207.6 336.6 199.6 L335.7 194.7 335.7 194.15 335.55 193.05 Q335.4 191.3 335.4 189.45 L335.4 189.4 335.4 189.0 335.6 184.8 Q336.0 179.9 337.55 175.35 L338.45 172.9 Q341.15 166.15 346.35 160.55 M400.0 219.3 L401.8 217.85 402.6 217.2 403.2 216.6 404.2 215.6 404.25 215.55 408.0 211.35 Q414.95 202.2 415.35 190.3 L416.25 189.25 417.45 187.7 417.3 185.3 417.1 183.5 Q416.85 181.1 416.25 178.85 L414.95 174.65 414.4 173.25 Q411.65 167.0 406.65 161.7 L405.75 160.75 Q394.15 149.1 377.65 149.1 361.15 149.1 349.55 160.75 L349.45 160.8 348.15 162.15 Q343.25 167.4 340.7 173.8 340.2 174.9 339.85 176.1 338.4 180.35 338.0 185.0 L338.45 185.6 339.95 186.7 339.9 188.95 339.9 189.05 339.9 189.55 339.95 190.05 339.1 189.75 338.35 189.4 337.8 189.4 337.95 192.8 338.1 193.8 339.85 194.0 340.25 194.0 Q341.3 202.8 346.3 210.0 L346.95 210.95 Q348.75 213.35 351.0 215.6 L351.0 215.55 351.7 216.2 Q362.5 226.7 377.65 226.7 L377.9 226.7 378.2 226.7 377.9 226.9 Q377.25 227.55 377.25 228.45 L377.3 228.8 377.65 228.8 377.85 228.8 380.05 228.7 Q384.9 228.45 389.35 227.1 395.35 225.3 400.6 221.5 L402.0 220.4 402.1 220.35 402.0 220.3 401.8 220.15 400.0 219.3" fill="#ffdf00" fill-rule="evenodd" stroke="none"/>
    <path d="M339.85 176.1 L340.1 175.85 Q341.55 174.65 342.7 174.45 L343.25 174.45 Q343.8 174.45 344.3 174.95 L344.55 175.2 344.45 175.5 Q343.15 178.55 342.55 181.95 342.1 184.2 342.0 186.7 L341.95 188.05 341.9 188.95 341.95 190.65 342.0 191.75 342.1 192.9 342.2 193.65 Q343.1 200.9 346.75 207.0 348.25 209.55 350.25 211.9 L352.35 214.2 353.4 215.2 Q363.6 224.7 377.65 224.7 L377.9 224.7 Q384.5 224.65 390.3 222.5 394.05 221.1 397.45 218.7 L398.15 218.7 400.0 219.3 401.8 220.15 402.0 220.3 402.1 220.35 402.0 220.4 400.6 221.5 Q395.35 225.3 389.35 227.1 384.9 228.45 380.05 228.7 L377.85 228.8 377.65 228.8 377.3 228.8 377.25 228.45 Q377.25 227.55 377.9 226.9 L378.2 226.7 377.9 226.7 377.65 226.7 Q362.5 226.7 351.7 216.2 L351.0 215.55 351.0 215.6 Q348.75 213.35 346.95 210.95 L346.3 210.0 Q341.3 202.8 340.25 194.0 L339.85 194.0 338.1 193.8 337.95 192.8 337.8 189.4 338.35 189.4 339.1 189.75 339.95 190.05 339.9 189.55 339.9 189.05 339.9 188.95 339.95 186.7 338.45 185.6 338.0 185.0 Q338.4 180.35 339.85 176.1 M346.95 170.55 L346.45 170.45 346.2 170.4 345.75 169.8 345.45 169.15 Q345.15 168.3 345.15 167.05 L345.2 166.8 Q345.3 165.4 346.6 163.95 348.1 162.4 349.55 162.4 L350.7 162.6 351.75 163.25 352.25 163.85 Q350.65 165.4 349.35 167.15 348.1 168.65 347.1 170.25 L347.1 170.3 346.95 170.55 M408.55 170.8 Q408.6 169.5 409.0 168.85 L409.35 168.45 410.1 168.25 Q412.05 168.25 413.65 171.75 L414.15 173.2 Q414.85 175.25 414.85 176.75 414.85 178.4 414.15 179.2 413.5 179.9 412.25 179.9 411.6 177.05 410.4 174.4 L408.55 170.8" fill="#ff6600" fill-rule="evenodd" stroke="none"/>
    <path d="M346.35 157.6 L346.35 157.5 Q359.3 144.55 377.6 144.55 395.6 144.55 408.4 157.0 L408.85 157.5 Q415.2 163.85 418.5 171.5 L419.15 173.1 420.5 177.6 421.15 180.5 421.35 181.7 Q421.9 185.2 421.9 189.0 421.9 207.25 408.85 220.25 L408.8 220.35 408.6 220.4 405.75 223.1 403.2 225.1 402.0 225.95 Q399.25 227.75 396.4 229.2 L394.45 230.1 391.0 231.3 390.1 231.6 390.05 231.6 Q384.8 233.05 379.05 233.25 L377.65 233.25 373.0 233.05 Q357.9 231.6 346.8 220.65 L346.35 220.25 346.35 220.3 344.35 218.15 342.9 216.4 Q338.25 210.55 335.75 203.85 334.55 200.45 334.0 196.8 L333.75 195.55 333.35 190.7 333.35 190.15 333.35 188.8 Q333.35 177.2 338.6 167.65 341.4 162.7 345.6 158.3 L346.35 157.6 M346.35 160.55 Q341.15 166.15 338.45 172.9 L337.55 175.35 Q336.0 179.9 335.6 184.8 L335.4 189.0 335.4 189.4 335.4 189.45 Q335.4 191.3 335.55 193.05 L335.7 194.15 335.7 194.7 336.6 199.6 Q338.6 207.6 343.85 214.35 L346.25 217.2 347.75 218.8 348.1 219.1 Q360.2 231.15 377.3 231.25 L377.65 231.25 377.9 231.25 380.2 231.15 Q385.35 230.9 390.1 229.45 396.4 227.55 402.0 223.5 L403.5 222.4 403.6 222.3 407.3 218.95 407.45 218.8 407.8 218.45 Q419.9 206.25 419.9 189.0 L419.9 187.65 419.75 185.1 419.5 183.2 Q419.25 180.65 418.6 178.25 L417.25 173.85 416.65 172.3 Q413.75 165.7 408.4 160.1 L407.45 159.05 Q395.15 146.7 377.65 146.7 360.15 146.7 347.85 159.05 L347.75 159.1 346.35 160.55" fill="#210d00" fill-rule="evenodd" stroke="none"/>
    <path d="M347.1 170.25 Q348.1 168.65 349.35 167.15 350.65 165.4 352.25 163.85 L352.35 163.65 354.8 161.45 Q364.55 153.25 377.65 153.25 391.8 153.25 402.0 162.85 L402.85 163.65 406.15 167.4 407.4 169.05 408.2 170.25 408.55 170.8 410.4 174.4 Q411.6 177.05 412.25 179.9 413.35 184.2 413.35 188.95 L413.25 192.35 Q412.3 203.2 405.25 211.6 L402.85 214.2 401.25 215.7 399.95 216.85 398.25 218.2 397.45 218.7 Q394.05 221.1 390.3 222.5 384.5 224.65 377.9 224.7 L377.65 224.7 Q363.6 224.7 353.4 215.2 L352.35 214.2 350.25 211.9 Q348.25 209.55 346.75 207.0 343.1 200.9 342.2 193.65 L342.1 192.9 342.0 191.75 341.95 190.65 341.9 188.95 341.95 188.05 342.0 186.7 Q342.1 184.2 342.55 181.95 343.15 178.55 344.45 175.5 L344.55 175.2 346.0 172.1 346.75 170.85 346.95 170.55 347.1 170.3 347.1 170.25 Z" fill="none" stroke="#210d00" stroke-linecap="round" stroke-linejoin="round" stroke-width="1.5"/>
  </g>
  <defs>
    <radialGradient cx="0" cy="0" gradientTransform="matrix(0.0609, 0.0, 0.0, 0.0512, 364.2, 191.95)" gradientUnits="userSpaceOnUse" id="gradient0" r="819.2" spreadMethod="pad">
      <stop offset="0.0" stop-color="#5d423b"/>
      <stop offset="0.6862745098039216" stop-color="#563f39"/>
      <stop offset="1.0" stop-color="#4a3731"/>
    </radialGradient>
  </defs>
</svg>
