<?xml version="1.0" encoding="UTF-8" standalone="no"?>
<svg xmlns:ffdec="https://www.free-decompiler.com/flash" xmlns:xlink="http://www.w3.org/1999/xlink" ffdec:objectType="shape" height="80.6px" width="131.2px" xmlns="http://www.w3.org/2000/svg">
  <g transform="matrix(1.0, 0.0, 0.0, 1.0, 58.85, 49.5)">
    <path d="M21.3 -46.05 L21.8 -46.05 22.25 -46.05 22.3 -45.6 Q22.65 -42.5 21.8 -40.65 L21.8 -41.15 Q21.85 -43.95 21.3 -46.05" fill="#5b482d" fill-opacity="0.9019608" fill-rule="evenodd" stroke="none"/>
    <path d="M22.25 -46.05 L22.25 -46.55 22.25 -47.05 Q23.15 -41.25 22.8 -34.25 L22.75 -33.75 22.25 -33.75 22.25 -24.9 22.25 -24.45 22.25 -23.95 Q22.05 -17.5 19.3 -13.6 L18.9 -13.5 Q13.6 -10.2 6.05 -9.2 L5.55 -9.2 2.1 -9.2 1.6 -9.2 0.65 -9.2 0.65 -9.45 -11.15 -9.7 -11.65 -9.7 Q-14.6 -9.95 -16.55 -11.15 L-16.7 -11.55 Q-18.2 -13.95 -18.05 -18.05 L-18.05 -18.55 -18.05 -25.4 Q-17.2 -30.45 -17.55 -36.7 L-17.55 -37.2 -17.55 -37.7 -17.55 -39.2 -16.15 -45.6 -16.1 -46.05 Q-3.25 -48.75 11.45 -49.5 L11.95 -49.5 Q13.25 -48.35 15.35 -47.8 L15.4 -47.55 Q17.1 -45.8 20.8 -46.05 L21.3 -46.05 Q21.85 -43.95 21.8 -41.15 L21.8 -40.65 Q22.65 -42.5 22.3 -45.6 L22.25 -46.05 M15.4 -44.6 L14.9 -44.65 12.45 -45.1 12.35 -45.35 Q9.6 -46.45 5.55 -46.05 L5.05 -46.1 Q2.45 -46.25 0.65 -45.55 L0.15 -45.6 -12.15 -45.1 -12.15 -44.6 -12.15 -44.35 Q-13.5 -44.2 -14.1 -43.6 L-14.1 -43.1 -14.6 -43.1 -15.1 -43.1 -14.85 -21.95 -14.6 -21.95 -13.6 -21.95 -13.15 -21.95 -13.25 -21.7 -14.1 -21.5 Q-13.65 -17.8 -11.95 -15.2 L-11.65 -15.1 -2.8 -14.6 -2.3 -14.6 Q9.3 -12.75 16.45 -17.45 L16.85 -17.55 Q18.95 -22.1 18.35 -29.35 L18.35 -29.85 18.6 -29.9 Q19.2 -32.15 18.35 -33.3 L18.35 -33.75 Q18.6 -33.75 18.7 -33.9 L18.85 -34.25 19.1 -34.35 Q22.5 -43.35 15.4 -44.6" fill="#483315" fill-opacity="0.9019608" fill-rule="evenodd" stroke="none"/>
    <path d="M18.85 -47.55 Q19.45 -46.45 21.25 -46.3 L21.3 -46.05 20.8 -46.05 Q17.1 -45.8 15.4 -47.55 L18.35 -47.55 18.85 -47.55" fill="#574429" fill-opacity="0.9019608" fill-rule="evenodd" stroke="none"/>
    <path d="M21.3 -46.05 L21.25 -46.3 Q19.45 -46.45 18.85 -47.55 L22.25 -47.3 22.25 -47.05 22.25 -46.55 22.25 -46.05 21.8 -46.05 21.3 -46.05" fill="#847d75" fill-opacity="0.7058824" fill-rule="evenodd" stroke="none"/>
    <path d="M22.25 -24.45 L22.25 -24.9 22.25 -33.75 22.75 -33.75 22.8 -33.3 Q23.15 -28.25 22.25 -24.45" fill="#1a1207" fill-opacity="0.29803923" fill-rule="evenodd" stroke="none"/>
    <path d="M16.85 -43.6 L16.85 -43.85 Q15.55 -43.75 15.4 -44.6 22.5 -43.35 19.1 -34.35 L18.85 -34.25 19.05 -37.2 Q19.85 -42.15 17.35 -43.6 L16.85 -43.6" fill="#604c2f" fill-opacity="0.99607843" fill-rule="evenodd" stroke="none"/>
    <path d="M16.85 -43.6 L16.35 -43.6 Q13.8 -43.75 12.45 -45.1 L14.9 -44.65 15.4 -44.6 Q15.55 -43.75 16.85 -43.85 L16.85 -43.6" fill="#a49887" fill-rule="evenodd" stroke="none"/>
    <path d="M12.45 -45.1 Q13.8 -43.75 16.35 -43.6 L16.85 -43.6 17.35 -43.6 Q19.0 -40.1 18.35 -34.25 L18.35 -33.75 17.95 -33.65 Q16.2 -32.45 13.9 -31.8 L13.9 -31.3 13.5 -31.2 Q12.55 -30.5 11.0 -30.35 L10.95 -30.35 10.9 -30.65 0.2 -27.3 -0.35 -27.15 -1.8 -26.7 -1.8 -26.4 -2.3 -26.35 -3.35 -26.05 -6.25 -24.9 -6.55 -24.8 Q-6.9 -24.1 -8.2 -24.45 L-8.2 -23.95 -8.6 -23.8 Q-9.7 -22.95 -11.65 -22.95 L-12.65 -22.95 -13.6 -22.95 Q-14.1 -32.8 -14.1 -43.1 L-14.1 -43.6 Q-13.5 -44.2 -12.15 -44.35 L-12.15 -44.6 -9.2 -44.6 -8.7 -44.6 Q-3.55 -44.6 1.6 -44.85 L1.6 -45.1 2.1 -45.1 7.5 -45.3 7.5 -45.55 Q10.3 -45.85 12.0 -45.15 L12.45 -45.1 M-54.45 -4.75 L-46.05 -4.75 -45.6 -4.75 Q-44.45 -3.9 -42.15 -4.25 L-41.65 -4.25 -32.3 -3.3 -31.8 -3.3 -29.35 -2.8 -28.85 -2.8 Q-25.85 0.2 -27.8 6.55 L-27.9 7.05 -28.0 7.4 -28.35 7.55 -28.75 7.65 Q-31.05 9.95 -32.55 9.2 L-33.1 9.65 -33.3 9.85 -34.3 10.6 Q-34.6 10.75 -34.9 11.0 L-36.65 12.0 -38.05 12.65 -38.45 12.85 -38.65 12.95 -39.7 13.4 -43.35 15.0 -44.2 15.4 -44.6 15.55 -44.55 15.7 -44.55 15.85 -44.5 16.35 Q-44.6 17.7 -47.55 17.85 L-47.55 18.3 -47.55 18.35 -48.0 18.45 Q-50.4 19.4 -53.45 19.8 L-53.45 20.3 -53.7 20.3 Q-54.8 8.4 -54.45 -4.75" fill="#fafaf9" fill-opacity="0.99607843" fill-rule="evenodd" stroke="none"/>
    <path d="M5.55 -46.05 Q9.6 -46.45 12.35 -45.35 L12.45 -45.1 12.0 -45.15 Q10.3 -45.85 7.5 -45.55 L7.05 -45.55 5.55 -45.55 5.55 -46.05 M-54.9 -4.75 L-54.9 -5.25 -46.55 -5.25 -46.05 -5.25 -45.6 -5.25 -45.1 -5.25 -45.1 -4.75 -45.6 -4.75 -46.05 -4.75 -54.45 -4.75 -54.9 -4.75" fill="#8f816d" fill-rule="evenodd" stroke="none"/>
    <path d="M17.35 -43.6 Q19.85 -42.15 19.05 -37.2 L18.85 -34.25 18.7 -33.9 Q18.6 -33.75 18.35 -33.75 L18.35 -34.25 Q19.0 -40.1 17.35 -43.6" fill="#beb6ab" fill-opacity="0.9882353" fill-rule="evenodd" stroke="none"/>
    <path d="M5.55 -45.55 L7.05 -45.55 7.5 -45.55 7.5 -45.3 2.1 -45.1 2.1 -45.55 5.05 -45.55 5.55 -45.55" fill="#b3a99b" fill-rule="evenodd" stroke="none"/>
    <path d="M5.55 -46.05 L5.55 -45.55 5.05 -45.55 2.1 -45.55 2.1 -45.1 1.6 -45.1 1.15 -45.1 0.65 -45.1 0.65 -45.55 Q2.45 -46.25 5.05 -46.1 L5.55 -46.05" fill="#6a563c" fill-rule="evenodd" stroke="none"/>
    <path d="M-12.15 -44.6 L-12.15 -45.1 0.15 -45.6 0.65 -45.55 0.65 -45.1 0.15 -45.1 -8.7 -45.1 -8.7 -44.6 -9.2 -44.6 -12.15 -44.6" fill="#5f4a2e" fill-opacity="0.99607843" fill-rule="evenodd" stroke="none"/>
    <path d="M-8.7 -44.6 L-8.7 -45.1 0.15 -45.1 0.65 -45.1 1.15 -45.1 1.6 -45.1 1.6 -44.85 Q-3.55 -44.6 -8.7 -44.6" fill="#a79c8c" fill-rule="evenodd" stroke="none"/>
    <path d="M5.05 -28.25 L5.05 -28.35 5.4 -28.35 5.55 -28.35 6.05 -28.35 5.9 -28.0 Q5.8 -27.85 5.55 -27.85 6.65 -27.0 6.3 -24.95 L6.05 -24.9 6.05 -25.4 Q6.15 -26.75 5.05 -26.9 L5.05 -27.4 5.05 -28.25" fill="#464441" fill-opacity="0.29803923" fill-rule="evenodd" stroke="none"/>
    <path d="M5.05 -26.9 Q6.15 -26.75 6.05 -25.4 L6.05 -24.9 5.9 -24.55 5.55 -24.45 5.05 -24.45 4.55 -24.45 4.55 -24.9 4.55 -25.4 Q5.35 -25.35 5.1 -26.4 L5.05 -26.9" fill="#aba69e" fill-opacity="0.83137256" fill-rule="evenodd" stroke="none"/>
    <path d="M18.35 -33.3 L17.85 -33.3 17.85 -32.8 17.45 -32.65 Q16.3 -31.65 14.4 -31.3 L13.9 -31.3 13.9 -31.8 Q16.2 -32.45 17.95 -33.65 L18.35 -33.75 18.35 -33.3" fill="#828282" fill-opacity="0.49803922" fill-rule="evenodd" stroke="none"/>
    <path d="M17.85 -32.8 L17.85 -33.3 18.35 -33.3 Q19.2 -32.15 18.6 -29.9 L18.35 -29.85 18.4 -30.3 Q18.7 -32.15 17.85 -32.8" fill="#241c10" fill-opacity="0.4117647" fill-rule="evenodd" stroke="none"/>
    <path d="M10.95 -30.3 L10.95 -30.35 11.0 -30.35 Q12.55 -30.5 13.5 -31.2 L13.9 -31.3 14.4 -31.3 14.3 -31.0 Q13.0 -30.0 10.95 -29.85 L10.95 -30.3" fill="#494948" fill-opacity="0.29803923" fill-rule="evenodd" stroke="none"/>
    <path d="M6.05 -9.2 L6.0 -8.95 Q3.45 -8.35 2.1 -9.2 L5.55 -9.2 6.05 -9.2" fill="#140e05" fill-opacity="0.2784314" fill-rule="evenodd" stroke="none"/>
    <path d="M0.65 -9.2 L0.15 -9.15 -11.15 -9.7 0.65 -9.45 0.65 -9.2" fill="#191106" fill-opacity="0.29803923" fill-rule="evenodd" stroke="none"/>
    <path d="M2.1 -4.75 L1.6 -4.75 Q-2.2 -4.4 -4.75 -5.25 L2.1 -5.0 2.1 -4.75" fill="#1c1407" fill-opacity="0.29803923" fill-rule="evenodd" stroke="none"/>
    <path d="M-4.75 -5.25 Q-2.2 -4.4 1.6 -4.75 L2.1 -4.75 Q14.55 -5.15 22.9 -1.1 23.5 -0.85 23.75 0.15 L24.0 9.5 24.25 9.5 Q24.8 12.4 24.75 15.9 L24.75 16.4 24.25 16.4 24.25 21.3 24.25 21.8 24.2 22.3 Q23.8 27.0 19.8 28.2 L19.3 28.2 -1.35 28.2 -1.8 28.15 Q-9.6 27.85 -15.6 25.7 L-15.65 25.25 Q-16.65 19.4 -18.05 13.9 L-18.05 13.45 -18.05 9.0 Q-17.2 5.95 -17.55 1.65 L-17.55 1.15 -17.55 0.65 -17.55 -1.8 Q-17.0 -3.75 -15.95 -5.15 L-15.6 -5.25 -6.75 -5.25 -6.25 -5.25 -5.25 -5.25 -4.75 -5.25 M19.8 6.05 L19.8 5.55 20.2 5.45 20.3 5.05 20.55 5.0 Q21.15 2.5 20.3 1.15 L20.2 0.75 19.8 0.65 19.7 0.3 Q18.8 -0.55 16.85 -0.35 L16.75 -0.7 16.35 -0.85 16.35 -1.05 6.55 -1.3 6.05 -1.3 3.6 -1.3 3.55 -1.55 -4.75 -1.8 -5.25 -1.8 -7.25 -1.8 -7.25 -2.3 -7.25 -2.55 -15.1 -2.8 -15.1 -2.3 -15.1 -1.8 -15.35 -1.8 Q-15.25 -0.25 -16.1 0.15 L-16.1 2.1 -16.1 2.6 Q-16.3 9.0 -15.35 14.35 L-15.1 14.4 Q-15.4 15.45 -14.65 15.65 L-14.6 15.9 -13.4 20.25 -13.15 20.3 Q-12.05 23.65 -7.25 23.85 5.9 24.4 18.85 23.25 19.5 19.5 19.8 15.4 L19.8 14.9 20.05 14.9 Q20.65 9.85 19.8 6.05" fill="#4a3416" fill-opacity="0.9019608" fill-rule="evenodd" stroke="none"/>
    <path d="M-4.3 -1.3 L-4.75 -1.3 -4.75 -1.8 3.55 -1.55 3.6 -1.3 3.1 -1.3 2.1 -1.3 1.6 -1.3 -4.3 -1.3" fill="#84745e" fill-rule="evenodd" stroke="none"/>
    <path d="M2.1 -0.85 L1.6 -0.8 Q-1.95 -0.45 -4.3 -1.3 L1.6 -1.3 2.1 -1.3 2.1 -0.85" fill="#d1cbc2" fill-rule="evenodd" stroke="none"/>
    <path d="M5.55 -0.85 L5.05 -0.85 2.1 -0.85 2.1 -1.3 3.1 -1.3 3.6 -1.3 6.05 -1.3 6.55 -1.3 6.55 -0.85 6.05 -0.85 5.55 -0.85" fill="#a39787" fill-rule="evenodd" stroke="none"/>
    <path d="M-4.3 -1.3 Q-1.95 -0.45 1.6 -0.8 L2.1 -0.85 5.05 -0.85 5.55 -0.85 15.9 -0.3 16.35 -0.35 19.35 0.6 19.8 0.65 19.8 5.05 19.8 5.55 19.8 6.05 19.4 6.15 Q18.8 6.55 17.85 6.55 L17.85 7.05 17.4 7.15 13.9 8.5 13.9 9.0 13.45 9.1 10.0 10.0 10.0 10.2 10.25 10.2 10.2 10.2 10.2 10.25 10.15 10.25 10.15 10.3 10.05 10.3 10.05 10.35 9.95 10.35 9.95 10.4 9.8 10.4 9.8 10.45 9.75 10.45 9.75 10.5 9.7 10.5 9.7 10.9 9.8 10.9 9.75 10.95 9.7 11.0 9.6 11.0 9.55 11.1 9.45 11.1 9.35 11.15 9.3 11.2 9.25 11.25 9.1 11.25 9.05 11.3 8.7 11.55 8.55 11.6 8.35 11.7 7.35 11.85 6.65 12.0 4.2 12.9 3.65 12.85 3.5 12.95 3.25 13.25 2.35 13.55 2.35 13.5 1.15 13.45 1.15 13.5 1.1 13.5 1.1 13.55 1.0 13.55 1.0 13.6 0.85 13.6 0.85 13.65 0.7 13.65 0.7 13.7 0.45 13.75 0.35 13.85 -0.15 13.9 -0.6 13.95 -2.0 14.05 -2.0 14.15 -2.3 14.15 -2.3 14.55 -2.35 14.6 Q-3.3 15.25 -4.75 15.4 L-4.75 15.9 -5.25 15.9 -8.7 16.4 -9.2 16.4 -13.6 15.9 -14.1 15.9 -14.15 15.4 Q-15.15 10.05 -15.1 3.6 -14.25 1.75 -14.6 -1.3 L-14.6 -1.8 -11.65 -1.8 -11.15 -1.8 Q-8.8 -0.95 -5.25 -1.3 L-4.75 -1.3 -4.3 -1.3" fill="#fcfcfc" fill-opacity="0.99607843" fill-rule="evenodd" stroke="none"/>
    <path d="M16.35 -0.35 L15.9 -0.3 5.55 -0.85 6.05 -0.85 6.55 -0.85 15.9 -0.85 16.35 -0.85 16.75 -0.7 16.85 -0.35 16.35 -0.35" fill="#b6ada0" fill-rule="evenodd" stroke="none"/>
    <path d="M6.55 -0.85 L6.55 -1.3 16.35 -1.05 16.35 -0.85 15.9 -0.85 6.55 -0.85" fill="#6d5a40" fill-rule="evenodd" stroke="none"/>
    <path d="M19.8 0.65 L19.35 0.6 16.35 -0.35 16.85 -0.35 Q18.8 -0.55 19.7 0.3 L19.8 0.65" fill="#bbb2a6" fill-rule="evenodd" stroke="none"/>
    <path d="M29.15 0.65 L29.15 0.15 29.15 -1.8 29.65 -1.8 Q29.45 14.05 30.15 26.7 L30.15 27.2 Q35.6 27.4 39.4 29.35 L39.5 29.65 39.0 29.6 30.15 27.7 29.85 27.6 Q28.85 24.55 29.15 20.3 L29.15 19.8 29.15 0.65" fill="#3b2910" fill-opacity="0.78039217" fill-rule="evenodd" stroke="none"/>
    <path d="M29.65 -1.8 L29.65 -2.3 Q31.5 -5.1 35.1 -6.15 L35.55 -6.25 39.5 -6.25 39.95 -6.25 43.4 -6.25 43.9 -6.25 49.8 -6.25 50.3 -6.25 Q51.65 -5.4 54.25 -5.7 L54.75 -5.75 55.2 -5.75 66.55 -5.25 67.0 -5.25 68.9 -4.55 69.0 -4.25 Q70.85 -0.7 70.7 3.1 L70.95 3.1 70.95 3.6 70.45 3.6 70.45 7.05 70.45 7.55 70.45 8.0 70.7 11.45 70.95 11.45 70.85 11.85 70.45 11.95 70.45 16.85 70.45 17.35 69.95 17.35 69.95 21.8 69.95 22.3 69.7 22.3 Q70.2 29.9 63.1 29.65 L62.6 29.7 Q50.9 30.7 39.5 29.65 L39.4 29.35 Q35.6 27.4 30.15 27.2 L30.15 26.7 Q29.45 14.05 29.65 -1.8 M34.05 -2.3 L33.6 -2.3 33.1 -2.3 32.8 -2.2 Q32.45 -1.45 31.6 -1.3 L31.6 2.1 31.6 2.6 31.6 10.0 31.6 10.5 Q31.6 13.2 31.85 15.85 L32.1 15.9 32.1 16.4 32.35 20.3 32.6 20.3 Q32.25 22.4 33.2 23.15 L33.6 23.25 Q34.15 24.9 36.95 24.0 L37.0 23.75 37.5 23.75 Q38.8 24.95 40.95 25.2 L41.45 25.25 Q42.8 26.1 45.4 25.75 L45.85 25.7 47.35 25.7 47.85 25.7 64.55 25.0 64.55 24.75 Q66.1 20.85 66.05 15.4 L66.05 14.9 66.1 14.45 Q67.2 11.45 66.05 8.5 L66.15 8.2 Q66.85 7.9 66.05 7.05 L66.3 7.0 Q66.9 2.5 66.05 -0.85 L66.0 -1.05 54.75 -1.3 54.65 -1.6 50.8 -2.3 50.3 -2.3 48.85 -2.3 48.8 -2.55 40.95 -2.8 40.45 -2.8 39.5 -2.8 39.45 -3.05 35.55 -3.3 35.55 -2.8 35.05 -2.8 34.05 -2.8 34.05 -2.3" fill="#4c3617" fill-opacity="0.9019608" fill-rule="evenodd" stroke="none"/>
    <path d="M35.55 -6.25 L35.55 -6.75 39.5 -6.75 39.95 -6.75 39.95 -6.25 39.5 -6.25 35.55 -6.25" fill="#5b5349" fill-opacity="0.59607846" fill-rule="evenodd" stroke="none"/>
    <path d="M39.95 -6.75 L43.4 -6.75 43.9 -6.75 43.9 -6.25 43.4 -6.25 39.95 -6.25 39.95 -6.75" fill="#2c2419" fill-opacity="0.41960785" fill-rule="evenodd" stroke="none"/>
    <path d="M33.1 -2.3 L33.05 -1.8 Q32.95 -0.95 32.1 -0.85 L32.1 2.1 32.1 2.6 31.6 2.6 31.6 2.1 31.6 -1.3 Q32.45 -1.45 32.8 -2.2 L33.1 -2.3 M54.75 -1.3 L54.25 -1.3 50.8 -1.8 50.8 -2.3 54.65 -1.6 54.75 -1.3" fill="#998c7a" fill-rule="evenodd" stroke="none"/>
    <path d="M32.1 2.6 L32.1 2.1 32.1 -0.85 Q32.95 -0.95 33.05 -1.8 L33.1 -2.3 33.6 -2.3 34.05 -2.3 40.45 -2.3 40.95 -2.3 44.4 -2.3 44.9 -2.3 Q47.0 -1.45 50.3 -1.8 L50.8 -1.8 54.25 -1.3 54.75 -1.3 65.55 -0.8 66.05 -0.85 66.05 6.55 66.05 7.05 65.7 7.15 Q64.9 8.4 63.1 8.5 62.85 8.5 62.75 8.65 62.15 9.4 60.9 9.5 L61.0 10.85 60.95 12.4 60.3 12.4 60.2 13.3 59.45 13.35 Q59.65 13.75 59.2 13.95 L58.45 14.0 58.15 13.8 57.9 13.8 57.8 14.8 56.9 14.8 56.5 18.55 55.9 18.55 55.4 18.45 55.25 18.1 55.25 17.7 54.45 17.65 54.25 17.35 Q54.15 16.0 53.75 15.5 53.5 15.4 53.4 15.6 L53.2 15.95 52.5 18.6 52.4 18.8 51.65 18.8 51.05 18.25 50.5 17.6 50.5 18.85 49.45 18.85 49.2 17.35 48.4 17.35 48.4 16.5 47.85 16.4 47.7 16.15 Q46.0 17.2 43.9 17.85 L43.9 18.35 43.4 18.35 42.9 18.35 42.45 18.45 Q40.95 19.1 39.5 19.8 L39.5 20.3 39.0 20.35 Q37.55 20.6 36.55 21.3 L36.55 21.8 36.1 21.9 Q33.0 23.8 32.6 20.3 L32.6 19.8 32.6 16.4 32.6 15.9 Q32.95 11.6 32.1 8.5 L32.1 8.0 32.1 2.6" fill="#fbfbfb" fill-opacity="0.99607843" fill-rule="evenodd" stroke="none"/>
    <path d="M40.95 -2.3 L40.45 -2.3 34.05 -2.3 34.05 -2.8 35.05 -2.8 35.55 -2.8 39.0 -2.8 39.5 -2.8 40.45 -2.8 40.95 -2.8 40.95 -2.3" fill="#aea495" fill-rule="evenodd" stroke="none"/>
    <path d="M39.5 -2.8 L39.0 -2.8 35.55 -2.8 35.55 -3.3 39.45 -3.05 39.5 -2.8" fill="#6b593e" fill-rule="evenodd" stroke="none"/>
    <path d="M43.9 -6.75 L50.3 -6.5 50.3 -6.25 49.8 -6.25 43.9 -6.25 43.9 -6.75" fill="#171007" fill-opacity="0.29803923" fill-rule="evenodd" stroke="none"/>
    <path d="M44.9 -2.3 L44.4 -2.3 40.95 -2.3 40.95 -2.8 48.8 -2.55 48.85 -2.3 48.35 -2.3 44.9 -2.3" fill="#7d6c55" fill-rule="evenodd" stroke="none"/>
    <path d="M50.8 -1.8 L50.3 -1.8 Q47.0 -1.45 44.9 -2.3 L48.35 -2.3 48.85 -2.3 50.3 -2.3 50.8 -2.3 50.8 -1.8" fill="#aba091" fill-rule="evenodd" stroke="none"/>
    <path d="M50.3 -6.25 L54.7 -6.0 54.75 -5.75 54.25 -5.7 Q51.65 -5.4 50.3 -6.25" fill="#271b0a" fill-opacity="0.49803922" fill-rule="evenodd" stroke="none"/>
    <path d="M55.2 -5.75 L67.0 -5.5 67.0 -5.25 66.55 -5.25 55.2 -5.75" fill="#241a0c" fill-opacity="0.45490196" fill-rule="evenodd" stroke="none"/>
    <path d="M66.05 -0.85 L65.55 -0.8 54.75 -1.3 66.0 -1.05 66.05 -0.85" fill="#a49888" fill-rule="evenodd" stroke="none"/>
    <path d="M70.95 -1.3 L71.3 -1.2 71.45 -0.85 71.45 2.6 71.45 3.1 70.95 3.1 70.95 2.6 70.95 -1.3" fill="#50483d" fill-opacity="0.49803922" fill-rule="evenodd" stroke="none"/>
    <path d="M69.0 -4.25 Q71.7 -4.75 71.0 -1.8 L70.95 -1.3 70.95 2.6 70.95 3.1 70.7 3.1 Q70.85 -0.7 69.0 -4.25" fill="#867c6e" fill-opacity="0.83137256" fill-rule="evenodd" stroke="none"/>
    <path d="M-57.85 -3.3 L-57.9 -3.75 Q-58.15 -5.45 -58.85 -6.75 L-58.3 -7.1 -57.85 -7.2 Q-57.4 -5.45 -57.65 -3.3 L-57.85 -3.3" fill="#231809" fill-opacity="0.4627451" fill-rule="evenodd" stroke="none"/>
    <path d="M-57.85 -7.2 Q-55.2 -8.45 -51.0 -8.2 L-50.5 -8.2 -50.55 -7.95 -51.95 -7.7 Q-47.8 -6.5 -44.1 -7.7 L-44.5 -7.9 -44.6 -8.2 Q-32.7 -8.05 -24.4 -4.35 L-23.95 -4.25 Q-22.6 1.0 -23.9 8.05 L-23.95 8.5 -24.45 8.5 -24.45 11.95 -24.45 12.45 -24.45 17.85 -24.45 18.35 -24.95 18.35 -24.95 21.8 -24.95 22.3 -24.95 22.75 Q-25.45 25.2 -26.4 27.2 L-26.8 27.3 Q-29.05 28.75 -32.8 28.65 L-33.3 28.65 -37.7 28.65 -38.2 28.7 -55.9 27.7 -56.25 27.55 -58.35 24.75 -58.35 24.25 -58.35 17.35 Q-57.5 12.55 -57.85 6.55 L-57.85 6.05 -57.85 5.55 -57.85 -2.3 -57.85 -2.8 -57.85 -3.3 -57.65 -3.3 Q-57.4 -5.45 -57.85 -7.2 M-46.05 -5.25 L-46.1 -5.5 -55.4 -5.75 -55.4 -5.25 -55.4 -4.75 -55.9 -4.75 Q-55.9 8.5 -55.4 21.75 L-55.0 21.6 -54.9 21.3 -54.45 21.3 -54.55 21.75 -54.9 22.3 -54.55 22.85 -54.2 22.9 -49.0 23.1 -41.6 23.65 -36.65 23.9 -35.85 23.95 -35.35 24.0 -35.15 23.95 -34.05 24.15 -33.05 24.15 -32.6 24.25 -31.75 24.3 -31.35 24.4 -31.15 24.3 -31.05 24.3 -30.3 24.3 -30.05 24.2 -29.9 24.2 Q-29.55 24.05 -29.45 23.5 L-28.5 19.15 -28.5 17.25 -28.45 17.0 -28.4 16.95 -28.4 16.7 -28.3 16.7 -28.25 16.65 -28.15 16.55 -28.1 16.5 -28.1 16.4 -28.05 16.4 -28.05 13.6 -28.1 13.55 -28.1 13.5 -27.85 12.4 -27.85 8.55 -27.9 8.2 Q-28.05 8.0 -28.35 7.9 L-28.35 7.55 -28.0 7.4 -27.9 7.05 -27.6 6.95 Q-24.5 0.8 -27.9 -2.8 L-28.0 -3.1 Q-30.1 -4.25 -33.3 -4.25 L-33.8 -4.25 -37.2 -4.25 -37.3 -4.55 Q-40.55 -5.6 -45.1 -5.25 L-45.6 -5.25 -46.05 -5.25" fill="#473214" fill-opacity="0.9019608" fill-rule="evenodd" stroke="none"/>
    <path d="M-58.35 6.05 L-58.35 5.55 -58.35 -2.3 -57.85 -2.3 -57.85 5.55 -57.85 6.05 -58.35 6.05" fill="#1d1408" fill-opacity="0.39215687" fill-rule="evenodd" stroke="none"/>
    <path d="M-54.9 -4.75 L-54.45 -4.75 Q-54.8 8.4 -53.7 20.3 L-53.45 20.3 -53.5 20.35 -53.5 20.55 -53.5 20.45 -53.55 20.45 -53.6 20.6 -53.75 20.6 -53.9 20.8 -53.95 20.8 -54.45 20.8 -54.45 21.3 -54.9 21.3 -54.9 20.8 -54.9 5.05 -54.9 4.6 -54.9 -4.75" fill="#b2a89c" fill-opacity="0.9764706" fill-rule="evenodd" stroke="none"/>
    <path d="M-46.05 -5.25 L-46.55 -5.25 -54.9 -5.25 -54.9 -4.75 -55.4 -4.75 -55.4 -5.25 -55.4 -5.75 -46.1 -5.5 -46.05 -5.25" fill="#5b4629" fill-rule="evenodd" stroke="none"/>
    <path d="M-55.4 -4.75 L-54.9 -4.75 -54.9 4.6 -54.9 5.05 -55.15 5.05 -55.4 -4.75" fill="#7a6951" fill-rule="evenodd" stroke="none"/>
    <path d="M-54.9 21.3 L-55.0 21.6 -55.4 21.75 Q-55.9 8.5 -55.9 -4.75 L-55.4 -4.75 -55.15 5.05 -54.9 5.05 -54.9 20.8 -54.9 21.3" fill="#564122" fill-opacity="0.99607843" fill-rule="evenodd" stroke="none"/>
    <path d="M-50.5 -8.2 L-50.5 -8.7 -50.0 -8.7 -49.5 -8.7 Q-49.6 -7.9 -48.5 -8.15 L-48.05 -8.2 Q-47.15 -7.35 -45.15 -7.95 L-45.1 -8.2 -44.6 -8.2 -44.5 -7.9 -44.1 -7.7 Q-47.8 -6.5 -51.95 -7.7 L-50.55 -7.95 -50.5 -8.2" fill="#554024" fill-opacity="0.9019608" fill-rule="evenodd" stroke="none"/>
    <path d="M-46.55 -8.7 L-45.15 -8.45 -45.1 -8.2 -45.15 -7.95 Q-47.15 -7.35 -48.05 -8.2 L-46.65 -8.4 -46.55 -8.7" fill="#665847" fill-opacity="0.79607844" fill-rule="evenodd" stroke="none"/>
    <path d="M-49.5 -8.7 L-46.6 -8.95 -46.55 -8.7 -46.65 -8.4 -48.05 -8.2 -48.5 -8.15 Q-49.6 -7.9 -49.5 -8.7" fill="#87827b" fill-opacity="0.69411767" fill-rule="evenodd" stroke="none"/>
    <path d="M-45.6 -4.75 L-45.1 -4.75 -41.7 -4.5 -41.65 -4.25 -42.15 -4.25 Q-44.45 -3.9 -45.6 -4.75" fill="#9f9382" fill-rule="evenodd" stroke="none"/>
    <path d="M-45.1 -4.75 L-45.1 -5.25 Q-40.55 -5.6 -37.3 -4.55 L-37.2 -4.25 -37.7 -4.25 -41.65 -4.25 -41.7 -4.5 -45.1 -4.75" fill="#594326" fill-rule="evenodd" stroke="none"/>
    <path d="M-18.05 -26.9 L-18.05 -27.4 -18.05 -37.2 -17.55 -37.2 -17.55 -36.7 Q-17.2 -30.45 -18.05 -25.4 L-18.05 -25.9 -18.05 -26.9" fill="#291d0b" fill-opacity="0.49803922" fill-rule="evenodd" stroke="none"/>
    <path d="M-14.6 -21.95 L-14.85 -21.95 -15.1 -43.1 -14.6 -43.1 -14.6 -22.45 -14.6 -21.95" fill="#69563b" fill-opacity="0.99215686" fill-rule="evenodd" stroke="none"/>
    <path d="M-13.15 -21.95 L-13.6 -21.95 -14.6 -21.95 -14.6 -22.45 -14.6 -43.1 -14.1 -43.1 Q-14.1 -32.8 -13.6 -22.95 L-12.65 -22.95 -11.65 -22.95 -11.65 -22.45 -12.15 -22.45 -13.15 -22.45 -13.15 -21.95" fill="#afa69a" fill-opacity="0.9019608" fill-rule="evenodd" stroke="none"/>
    <path d="M-18.05 -18.05 L-18.3 -18.05 -18.55 -26.9 -18.05 -26.9 -18.05 -25.9 -18.05 -25.4 -18.05 -18.55 -18.05 -18.05" fill="#1c1307" fill-opacity="0.29803923" fill-rule="evenodd" stroke="none"/>
    <path d="M-8.2 -23.95 L-8.2 -24.45 Q-6.9 -24.1 -6.55 -24.8 L-6.25 -24.9 Q-6.3 -24.1 -5.25 -24.35 L-4.75 -24.45 -4.85 -24.15 -7.25 -23.45 -7.35 -23.75 -8.2 -23.95" fill="#ababab" fill-opacity="0.6784314" fill-rule="evenodd" stroke="none"/>
    <path d="M0.2 -27.3 L-0.2 -26.75 -0.35 -26.4 -0.85 -26.4 -1.8 -26.4 -1.8 -26.7 -0.35 -27.15 0.2 -27.3" fill="#b1aaa1" fill-opacity="0.9019608" fill-rule="evenodd" stroke="none"/>
    <path d="M-0.35 -26.4 L-0.35 -26.1 -0.35 -25.9 -0.35 -25.4 -0.8 -25.35 -4.75 -24.45 -5.25 -24.35 Q-6.3 -24.1 -6.25 -24.9 L-3.35 -26.05 -2.3 -26.35 -1.8 -26.4 -0.85 -26.4 -0.35 -26.4" fill="#9f9e9e" fill-opacity="0.6392157" fill-rule="evenodd" stroke="none"/>
    <path d="M-0.35 -25.4 L-0.35 -25.9 Q0.5 -24.55 -0.1 -22.05 -0.1 -21.95 -0.35 -21.95 L-0.35 -22.45 -0.35 -25.4" fill="#958878" fill-opacity="0.9019608" fill-rule="evenodd" stroke="none"/>
    <path d="M-7.25 -23.45 L-4.85 -24.15 -4.75 -24.45 -0.8 -25.35 -0.35 -25.4 -0.35 -22.45 -0.35 -21.95 -0.85 -21.95 -1.25 -21.85 Q-4.35 -19.7 -8.2 -20.5 L-8.2 -21.0 -8.2 -22.95 -7.65 -23.35 -7.25 -23.45" fill="#f5f5f5" fill-opacity="0.972549" fill-rule="evenodd" stroke="none"/>
    <path d="M-41.65 -4.25 L-37.7 -4.25 -37.2 -4.25 -33.8 -4.25 -33.3 -4.25 Q-33.15 -3.45 -31.8 -3.55 L-31.8 -3.3 -32.3 -3.3 -41.65 -4.25" fill="#9e9180" fill-opacity="0.99607843" fill-rule="evenodd" stroke="none"/>
    <path d="M-33.3 -4.25 Q-30.1 -4.25 -28.0 -3.1 L-27.9 -2.8 -28.35 -2.8 -28.85 -2.8 -29.35 -2.8 -31.8 -3.3 -31.8 -3.55 Q-33.15 -3.45 -33.3 -4.25" fill="#6c593f" fill-opacity="0.99607843" fill-rule="evenodd" stroke="none"/>
    <path d="M-27.9 -2.8 Q-24.5 0.8 -27.6 6.95 L-27.9 7.05 -27.8 6.55 Q-25.85 0.2 -28.85 -2.8 L-28.35 -2.8 -27.9 -2.8" fill="#75634b" fill-opacity="0.99607843" fill-rule="evenodd" stroke="none"/>
    <path d="M39.5 22.75 L39.5 22.3 39.5 21.8 Q40.75 21.55 41.55 20.95 41.7 20.8 41.95 20.8 L41.8 21.15 Q40.85 22.15 39.5 22.75 M-0.85 -21.95 L-0.85 -21.5 -0.95 -21.15 Q-5.0 -18.9 -8.2 -20.5 -4.35 -19.7 -1.25 -21.85 L-0.85 -21.95" fill="#737373" fill-opacity="0.45882353" fill-rule="evenodd" stroke="none"/>
    <path d="M5.4 -28.35 L5.05 -28.35 5.05 -28.25 1.85 -27.1 0.1 -26.35 -0.35 -26.1 -0.35 -26.4 -0.2 -26.75 0.2 -27.3 10.9 -30.65 10.95 -30.35 10.95 -30.3 10.4 -30.05 7.75 -29.05 5.4 -28.35 M-8.2 -23.95 L-7.35 -23.75 -7.25 -23.45 -7.65 -23.35 -8.2 -22.95 -8.2 -21.0 -8.2 -20.5 -8.45 -20.5 Q-8.15 -23.95 -11.65 -22.45 L-11.65 -22.95 Q-9.7 -22.95 -8.6 -23.8 L-8.2 -23.95" fill="#6c6c6c" fill-opacity="0.43137255" fill-rule="evenodd" stroke="none"/>
    <path d="M-2.3 -14.6 L-2.8 -14.6 -11.65 -15.1 -2.3 -14.85 -2.3 -14.6 M24.25 21.8 L24.25 21.3 24.25 16.4 24.75 16.4 24.75 16.85 Q25.1 19.95 24.25 21.8" fill="#191107" fill-opacity="0.29803923" fill-rule="evenodd" stroke="none"/>
    <path d="M-6.25 -5.25 L-6.75 -5.25 -15.6 -5.25 -15.6 -5.75 -6.25 -5.5 -6.25 -5.25" fill="#211709" fill-opacity="0.44705883" fill-rule="evenodd" stroke="none"/>
    <path d="M-15.1 -1.8 L-15.1 -2.3 -15.1 -2.8 -7.25 -2.55 -7.25 -2.3 -7.7 -2.3 -14.6 -2.3 -14.6 -1.8 -15.1 -1.8" fill="#5d482b" fill-rule="evenodd" stroke="none"/>
    <path d="M-15.1 -1.8 L-15.05 -1.35 Q-14.75 0.75 -15.6 1.65 L-15.6 2.1 -15.6 2.6 -16.1 2.6 -16.1 2.1 -16.1 0.15 Q-15.25 -0.25 -15.35 -1.8 L-15.1 -1.8" fill="#74634a" fill-rule="evenodd" stroke="none"/>
    <path d="M-14.6 -1.8 L-14.6 -1.3 Q-14.25 1.75 -15.1 3.6 -15.15 10.05 -14.15 15.4 L-14.1 15.9 -14.6 15.9 -14.65 15.65 Q-15.4 15.45 -15.1 14.4 L-15.15 13.95 Q-15.8 8.7 -15.6 2.6 L-15.6 2.1 -15.6 1.65 Q-14.75 0.75 -15.05 -1.35 L-15.1 -1.8 -14.6 -1.8" fill="#dbd7d2" fill-opacity="0.9019608" fill-rule="evenodd" stroke="none"/>
    <path d="M-11.15 -1.8 L-11.65 -1.8 -14.6 -1.8 -14.6 -2.3 -7.7 -2.3 -7.25 -2.3 -7.25 -1.8 -7.7 -1.8 -11.15 -1.8" fill="#918370" fill-rule="evenodd" stroke="none"/>
    <path d="M-4.75 -1.3 L-5.25 -1.3 Q-8.8 -0.95 -11.15 -1.8 L-7.7 -1.8 -7.25 -1.8 -5.25 -1.8 -4.75 -1.8 -4.75 -1.3" fill="#cbc5bb" fill-rule="evenodd" stroke="none"/>
    <path d="M-15.6 2.6 Q-15.8 8.7 -15.15 13.95 L-15.1 14.4 -15.35 14.35 Q-16.3 9.0 -16.1 2.6 L-15.6 2.6" fill="#897b67" fill-opacity="0.98039216" fill-rule="evenodd" stroke="none"/>
    <path d="M-17.55 1.15 L-17.55 1.65 Q-17.2 5.95 -18.05 9.0 L-18.05 8.5 -18.05 6.05 -18.05 5.55 -18.05 1.15 -17.55 1.15" fill="#30210d" fill-opacity="0.6392157" fill-rule="evenodd" stroke="none"/>
    <path d="M-18.05 9.0 L-18.05 13.45 -18.05 13.9 -18.3 13.9 -18.55 6.05 -18.05 6.05 -18.05 8.5 -18.05 9.0" fill="#1b1207" fill-opacity="0.29803923" fill-rule="evenodd" stroke="none"/>
    <path d="M-14.1 15.9 L-13.6 15.9 Q-13.7 16.7 -12.65 16.65 L-12.65 16.85 -12.65 17.35 -13.15 17.35 -13.6 17.35 Q-13.2 18.45 -13.15 19.8 L-13.15 20.3 -13.4 20.25 -14.6 15.9 -14.1 15.9" fill="#2e2922" fill-opacity="0.29803923" fill-rule="evenodd" stroke="none"/>
    <path d="M3.45 14.0 L4.6 13.6 5.35 13.55 5.7 13.5 6.0 13.4 6.45 13.4 6.5 13.35 6.7 13.35 6.8 13.25 8.5 12.6 8.8 12.4 9.2 12.3 10.4 11.75 10.7 11.55 10.85 11.45 11.2 11.25 11.25 11.25 12.25 10.65 12.65 10.5 12.85 10.4 12.85 10.05 12.6 10.05 13.8 9.35 13.9 9.0 Q16.2 8.55 17.75 7.4 L17.85 7.05 Q20.95 6.45 20.05 12.0 19.8 13.45 19.8 14.9 L19.8 15.4 Q19.5 19.5 18.85 23.25 5.9 24.4 -7.25 23.85 -12.05 23.65 -13.15 20.3 L-13.15 19.8 Q-13.2 18.45 -13.6 17.35 L-13.15 17.35 -12.65 17.35 -8.75 17.1 -8.7 16.85 Q-6.55 16.85 -4.85 16.15 L-4.75 15.9 -2.85 15.6 -2.85 15.65 -1.65 15.6 -0.5 15.35 0.0 15.1 0.9 14.8 1.05 14.75 1.1 14.75 1.6 14.55 1.9 14.55 2.5 14.45 3.05 14.25 3.1 14.2 3.25 14.15 3.35 14.1 3.45 14.1 3.45 14.0 M12.8 15.8 L12.65 15.8 12.5 15.95 12.4 15.95 12.4 16.0 12.55 16.0 12.8 15.8" fill="#030201" fill-opacity="0.02745098" fill-rule="evenodd" stroke="none"/>
    <path d="M-8.7 16.85 L-8.75 17.1 -12.65 17.35 -12.65 16.85 -9.2 16.85 -8.7 16.85" fill="#646464" fill-opacity="0.4" fill-rule="evenodd" stroke="none"/>
    <path d="M-13.6 15.9 L-9.2 16.4 -8.7 16.4 -8.7 16.85 -9.2 16.85 -12.65 16.85 -12.65 16.65 Q-13.7 16.7 -13.6 15.9" fill="#c3c3c3" fill-opacity="0.7058824" fill-rule="evenodd" stroke="none"/>
    <path d="M-4.75 15.9 L-4.75 15.4 Q-3.3 15.25 -2.35 14.6 L-2.3 14.55 -2.3 14.15 -2.0 14.15 -0.1 14.2 -0.05 14.15 0.1 14.15 0.2 14.05 0.3 14.05 0.4 14.0 0.5 14.0 0.6 13.95 0.65 13.85 0.8 13.85 0.9 13.8 1.95 13.85 1.95 13.9 2.05 13.9 2.1 13.8 2.25 13.8 2.3 13.75 2.35 13.7 3.45 13.75 3.45 14.0 3.45 14.1 3.35 14.1 3.25 14.15 3.1 14.2 3.05 14.25 2.5 14.45 1.9 14.55 1.6 14.55 1.4 14.55 1.0 14.6 0.9 14.6 0.0 15.1 -0.5 15.35 -1.65 15.6 -2.85 15.65 -2.85 15.6 -4.75 15.9 M-2.05 14.9 L-2.1 15.0 -1.65 14.8 -1.55 14.75 -1.9 14.75 -1.95 14.7 -1.95 14.9 -2.05 14.9" fill="#86837f" fill-opacity="0.62352943" fill-rule="evenodd" stroke="none"/>
    <path d="M-8.7 16.4 L-5.25 15.9 -4.75 15.9 -4.85 16.15 Q-6.55 16.85 -8.7 16.85 L-8.7 16.4" fill="#7f7f7f" fill-opacity="0.49803922" fill-rule="evenodd" stroke="none"/>
    <path d="M-28.35 7.55 L-28.35 7.9 -28.8 8.1 Q-29.05 8.1 -29.1 8.3 L-29.15 8.5 -29.45 8.85 -30.5 9.55 -31.4 10.0 -32.25 10.3 -32.8 10.45 -32.85 10.5 -33.15 10.35 -33.3 10.0 -33.3 9.85 -33.1 9.65 -32.55 9.2 Q-31.05 9.95 -28.75 7.65 L-28.35 7.55" fill="#94928f" fill-opacity="0.64705884" fill-rule="evenodd" stroke="none"/>
    <path d="M-23.95 8.5 L-23.9 9.0 Q-23.6 11.35 -24.45 12.45 L-24.45 11.95 -24.45 8.5 -23.95 8.5" fill="#1c1307" fill-opacity="0.29803923" fill-rule="evenodd" stroke="none"/>
    <path d="M-36.65 12.0 Q-35.65 12.6 -39.15 13.75 L-39.3 13.8 -39.7 13.9 -39.7 13.45 -39.7 13.4 -38.65 12.95 -38.45 12.85 -38.05 12.65 -36.65 12.0" fill="#ebeae8" fill-opacity="0.9019608" fill-rule="evenodd" stroke="none"/>
    <path d="M-34.45 11.05 Q-35.2 11.25 -35.85 11.9 L-37.05 13.55 Q-37.8 13.65 -38.3 14.0 L-38.5 14.05 -39.15 14.25 -39.35 14.35 -39.5 14.35 -39.55 14.3 -39.65 14.15 -39.95 14.3 Q-41.0 14.2 -41.9 14.8 L-42.45 15.3 -43.4 15.7 -43.4 15.75 -43.6 15.6 Q-43.85 15.4 -44.2 15.4 L-43.35 15.0 -39.7 13.4 -39.7 13.45 -39.7 13.9 -39.3 13.8 -39.15 13.75 Q-35.65 12.6 -36.65 12.0 L-34.9 11.0 -34.45 11.05" fill="#95928d" fill-opacity="0.7058824" fill-rule="evenodd" stroke="none"/>
    <path d="M-34.3 10.6 L-33.6 10.1 -33.3 10.0 -33.15 10.35 -32.85 10.5 -33.1 10.95 -33.1 11.05 -33.0 11.05 -33.3 11.0 -34.4 11.05 -34.45 11.05 -34.9 11.0 Q-34.6 10.75 -34.3 10.6" fill="#6f675c" fill-opacity="0.68235296" fill-rule="evenodd" stroke="none"/>
    <path d="M-24.45 18.35 L-24.4 18.85 Q-24.1 21.15 -24.95 22.3 L-24.95 21.8 -24.95 18.35 -24.45 18.35" fill="#1d1407" fill-opacity="0.29803923" fill-rule="evenodd" stroke="none"/>
    <path d="M-32.8 28.65 L-32.85 28.95 -37.7 28.65 -33.3 28.65 -32.8 28.65" fill="#1a1206" fill-opacity="0.29803923" fill-rule="evenodd" stroke="none"/>
    <path d="M-58.35 7.05 L-58.35 6.55 -58.35 6.05 -57.85 6.05 -57.85 6.55 Q-57.5 12.55 -58.35 17.35 L-58.35 16.85 -58.35 7.05" fill="#2f210d" fill-opacity="0.627451" fill-rule="evenodd" stroke="none"/>
    <path d="M-58.35 24.75 L-58.6 24.75 -58.85 7.05 -58.35 7.05 -58.35 16.85 -58.35 17.35 -58.35 24.25 -58.35 24.75" fill="#1d1408" fill-opacity="0.39607844" fill-rule="evenodd" stroke="none"/>
    <path d="M-54.2 22.9 L-54.55 22.85 -54.9 22.3 -54.55 21.75 -54.45 21.3 -54.45 20.8 -53.95 20.8 -54.0 21.85 -54.0 22.4 -54.1 22.5 -54.2 22.9" fill="#1a140c" fill-opacity="0.2784314" fill-rule="evenodd" stroke="none"/>
    <path d="M-47.55 18.35 L-47.65 18.7 -47.85 18.85 -48.0 18.8 -48.05 18.85 -48.9 19.15 -50.6 19.95 Q-50.7 19.8 -51.05 19.75 L-51.85 20.0 -52.5 20.15 -53.2 20.1 -53.45 20.3 -53.45 19.8 Q-50.4 19.4 -48.0 18.45 L-47.55 18.35" fill="#808080" fill-opacity="0.49803922" fill-rule="evenodd" stroke="none"/>
    <path d="M-43.4 15.75 Q-43.2 15.95 -43.15 16.4 L-43.1 16.5 -43.15 16.6 -44.1 17.55 -44.2 17.6 -44.55 17.6 -45.65 18.15 -46.85 18.1 -47.4 18.2 -47.55 18.3 -47.55 17.85 Q-44.6 17.7 -44.5 16.35 L-44.55 15.85 -44.55 15.7 -44.6 15.55 -44.2 15.4 Q-43.85 15.4 -43.6 15.6 L-43.4 15.75" fill="#83807c" fill-opacity="0.60784316" fill-rule="evenodd" stroke="none"/>
    <path d="M71.45 -0.85 Q72.3 0.55 71.7 3.05 L71.45 3.1 71.45 2.6 71.45 -0.85" fill="#1e180f" fill-opacity="0.29803923" fill-rule="evenodd" stroke="none"/>
    <path d="M71.45 3.1 L71.45 6.55 71.45 7.05 71.2 7.0 70.95 3.6 70.95 3.1 71.45 3.1" fill="#181108" fill-opacity="0.29411766" fill-rule="evenodd" stroke="none"/>
    <path d="M71.45 7.05 L71.8 7.15 71.95 7.55 71.45 7.55 70.45 7.55 70.45 7.05 70.45 3.6 70.95 3.6 71.2 7.0 71.45 7.05" fill="#2c2214" fill-opacity="0.49803922" fill-rule="evenodd" stroke="none"/>
    <path d="M71.95 7.55 Q72.6 8.35 72.2 9.95 L71.95 10.0 71.95 9.5 Q72.05 8.15 70.95 8.0 L70.45 8.0 70.45 7.55 71.45 7.55 71.95 7.55" fill="#84807c" fill-opacity="0.627451" fill-rule="evenodd" stroke="none"/>
    <path d="M70.95 8.0 Q72.05 8.15 71.95 9.5 L71.95 10.0 71.55 10.1 Q70.7 10.7 70.95 8.0" fill="#c8c2ba" fill-opacity="0.9019608" fill-rule="evenodd" stroke="none"/>
    <path d="M71.45 10.95 L71.45 11.45 Q71.55 15.25 70.45 17.85 L70.45 17.35 70.45 16.85 70.45 11.95 70.85 11.85 70.95 11.45 70.95 10.95 71.45 10.95" fill="#1f170b" fill-opacity="0.29803923" fill-rule="evenodd" stroke="none"/>
    <path d="M71.95 10.0 L71.85 10.45 71.45 10.95 70.95 10.95 70.95 11.45 70.7 11.45 70.45 8.0 70.95 8.0 Q70.7 10.7 71.55 10.1 L71.95 10.0" fill="#8f8679" fill-opacity="0.85882354" fill-rule="evenodd" stroke="none"/>
    <path d="M63.1 8.5 Q64.9 8.4 65.7 7.15 L66.05 7.05 Q66.85 7.9 66.15 8.2 L66.05 8.5 65.55 8.5 65.55 9.0 65.1 9.1 64.05 9.5 63.6 9.5 Q62.8 9.55 63.1 8.5" fill="#666563" fill-opacity="0.45490196" fill-rule="evenodd" stroke="none"/>
    <path d="M48.4 17.35 L49.2 17.35 49.45 18.85 50.5 18.85 50.5 17.6 51.05 18.25 51.65 18.8 52.4 18.8 52.5 18.6 53.2 15.95 53.4 15.6 Q53.5 15.4 53.75 15.5 54.15 16.0 54.25 17.35 L54.45 17.65 55.25 17.7 55.25 18.1 55.4 18.45 55.9 18.55 56.5 18.55 56.9 14.8 57.8 14.8 57.9 13.8 58.15 13.8 58.45 14.0 59.2 13.95 Q59.65 13.75 59.45 13.35 L60.2 13.3 60.3 12.4 60.95 12.4 61.0 10.85 64.0 9.8 64.05 9.5 65.1 9.1 65.55 9.0 65.8 9.05 Q66.8 13.2 64.55 14.4 L64.55 14.9 64.55 15.4 64.1 15.45 61.6 15.9 61.6 16.4 61.6 16.85 61.1 16.85 60.7 16.95 Q58.9 17.85 57.2 18.85 L57.2 19.35 56.75 19.45 Q56.2 19.8 55.2 19.8 L55.2 20.3 54.75 20.4 Q53.1 20.9 51.8 21.8 L51.8 22.3 51.35 22.4 48.35 23.75 48.35 24.25 47.95 24.35 Q47.15 25.0 45.85 25.25 L45.4 25.25 41.45 25.25 41.4 25.0 Q39.45 24.8 39.0 23.25 L39.0 22.75 39.5 22.75 Q40.85 22.15 41.8 21.15 L41.95 20.8 Q43.4 20.55 44.3 19.7 L44.4 19.35 Q46.55 18.45 48.4 17.35" fill="#f9f9f9" fill-opacity="0.9843137" fill-rule="evenodd" stroke="none"/>
    <path d="M66.05 8.5 Q67.2 11.45 66.1 14.45 L66.05 14.9 65.55 14.9 64.55 14.9 64.55 14.4 Q66.8 13.2 65.8 9.05 L65.55 9.0 65.55 8.5 66.05 8.5" fill="#9c9286" fill-opacity="0.8862745" fill-rule="evenodd" stroke="none"/>
    <path d="M61.0 10.85 L60.9 9.5 Q62.15 9.4 62.75 8.65 62.85 8.5 63.1 8.5 62.8 9.55 63.6 9.5 L64.05 9.5 64.0 9.8 61.0 10.85" fill="#afadab" fill-opacity="0.7058824" fill-rule="evenodd" stroke="none"/>
    <path d="M66.05 7.05 L66.05 6.55 66.05 -0.85 Q66.9 2.5 66.3 7.0 L66.05 7.05" fill="#a39888" fill-opacity="0.9882353" fill-rule="evenodd" stroke="none"/>
    <path d="M70.45 17.85 L70.5 18.35 Q70.8 20.9 69.95 22.3 L69.95 21.8 69.95 17.35 70.45 17.35 70.45 17.85" fill="#271b0a" fill-opacity="0.49803922" fill-rule="evenodd" stroke="none"/>
    <path d="M66.05 14.9 L66.05 15.4 Q66.1 20.85 64.55 24.75 L64.05 24.75 Q55.75 25.55 48.35 24.75 L48.35 24.25 Q50.4 23.9 51.65 22.65 L51.8 22.3 Q53.6 21.65 55.1 20.65 L55.2 20.3 55.2 19.8 Q56.2 19.8 56.75 19.45 L57.2 19.35 Q59.4 18.6 61.0 17.2 L61.1 16.85 61.6 16.85 Q62.9 16.2 64.5 15.65 L64.55 15.4 64.55 14.9 65.55 14.9 66.05 14.9" fill="#050404" fill-opacity="0.02745098" fill-rule="evenodd" stroke="none"/>
    <path d="M-2.0 14.15 L-2.0 14.05 -0.6 13.95 -0.15 13.9 0.35 13.85 0.45 13.75 0.7 13.7 0.7 13.65 0.85 13.65 0.85 13.6 1.0 13.6 1.0 13.55 1.1 13.55 1.1 13.5 1.15 13.5 1.15 13.45 2.35 13.5 2.35 13.55 3.25 13.25 3.5 12.95 3.65 12.85 4.2 12.9 6.65 12.0 7.35 11.85 8.35 11.7 8.55 11.6 8.7 11.55 9.05 11.3 9.1 11.25 9.25 11.25 9.3 11.2 9.35 11.15 9.45 11.1 9.55 11.1 9.6 11.0 9.7 11.0 9.75 10.95 9.8 10.9 9.7 10.9 9.7 10.5 9.75 10.5 9.75 10.45 9.8 10.45 9.8 10.4 9.95 10.4 9.95 10.35 10.05 10.35 10.05 10.3 10.15 10.3 10.15 10.25 10.2 10.25 10.2 10.2 10.25 10.2 10.0 10.2 10.0 10.0 13.45 9.1 13.9 9.0 13.8 9.35 12.6 10.05 12.85 10.05 12.85 10.4 12.65 10.5 12.25 10.65 11.25 11.25 11.2 11.25 10.85 11.45 10.7 11.55 10.4 11.75 9.2 12.3 8.8 12.4 8.5 12.6 6.8 13.25 6.7 13.35 6.5 13.35 6.45 13.4 6.0 13.4 5.7 13.5 5.35 13.55 4.6 13.6 3.45 14.0 3.45 13.75 2.35 13.7 2.3 13.75 2.25 13.8 2.1 13.8 2.05 13.9 1.95 13.9 1.95 13.85 0.9 13.8 0.8 13.85 0.65 13.85 0.6 13.95 0.5 14.0 0.4 14.0 0.3 14.05 0.2 14.05 0.1 14.15 -0.05 14.15 -0.1 14.2 -2.0 14.15 M61.6 16.85 L61.6 16.4 61.6 15.9 64.1 15.45 64.55 15.4 64.5 15.65 Q62.9 16.2 61.6 16.85 M1.6 14.55 L1.1 14.75 1.05 14.75 0.9 14.8 0.0 15.1 0.9 14.6 1.0 14.6 1.4 14.55 1.6 14.55 M-2.05 14.9 L-1.95 14.9 -1.95 14.7 -1.9 14.75 -1.55 14.75 -1.65 14.8 -2.1 15.0 -2.05 14.9" fill="#858585" fill-opacity="0.49803922" fill-rule="evenodd" stroke="none"/>
    <path d="M61.1 16.85 L61.0 17.2 Q59.4 18.6 57.2 19.35 L57.2 18.85 Q58.9 17.85 60.7 16.95 L61.1 16.85" fill="#828282" fill-opacity="0.49803922" fill-rule="evenodd" stroke="none"/>
    <path d="M43.9 18.35 L43.9 17.85 Q46.0 17.2 47.7 16.15 L47.85 16.4 48.4 16.5 48.4 17.35 Q46.55 18.45 44.4 19.35 L44.5 19.0 Q45.55 18.35 43.9 18.35" fill="#797877" fill-opacity="0.49803922" fill-rule="evenodd" stroke="none"/>
    <path d="M42.9 18.35 L43.4 18.35 43.9 18.35 Q45.55 18.35 44.5 19.0 L44.4 19.35 44.3 19.7 Q43.4 20.55 41.95 20.8 41.7 20.8 41.55 20.95 40.75 21.55 39.5 21.8 L39.5 22.3 39.5 22.75 39.0 22.75 39.0 23.25 38.75 23.3 Q38.55 24.05 37.5 23.75 L37.0 23.75 36.55 23.8 Q34.7 24.1 34.05 23.25 35.1 22.55 36.45 22.05 L36.55 21.8 39.4 20.6 39.5 20.3 Q41.4 19.8 42.8 18.7 L42.9 18.35" fill="#252524" fill-opacity="0.08627451" fill-rule="evenodd" stroke="none"/>
    <path d="M39.5 20.3 L39.5 19.8 Q40.95 19.1 42.45 18.45 L42.9 18.35 42.8 18.7 Q41.4 19.8 39.5 20.3" fill="#a0a0a0" fill-opacity="0.63529414" fill-rule="evenodd" stroke="none"/>
    <path d="M47.85 25.7 L47.35 25.7 45.85 25.7 45.85 25.25 Q47.15 25.0 47.95 24.35 L48.35 24.25 48.35 24.75 47.85 24.75 47.85 25.25 47.85 25.7" fill="#69645e" fill-opacity="0.49803922" fill-rule="evenodd" stroke="none"/>
    <path d="M51.8 22.3 L51.65 22.65 Q50.4 23.9 48.35 24.25 L48.35 23.75 51.35 22.4 51.8 22.3" fill="#686868" fill-opacity="0.41568628" fill-rule="evenodd" stroke="none"/>
    <path d="M55.2 20.3 L55.1 20.65 Q53.6 21.65 51.8 22.3 L51.8 21.8 Q53.1 20.9 54.75 20.4 L55.2 20.3" fill="#838383" fill-opacity="0.49803922" fill-rule="evenodd" stroke="none"/>
    <path d="M64.55 24.75 L64.55 25.0 47.85 25.7 47.85 25.25 47.85 24.75 48.35 24.75 Q55.75 25.55 64.05 24.75 L64.55 24.75" fill="#191107" fill-opacity="0.29803923" fill-rule="evenodd" stroke="none"/>
    <path d="M45.85 25.7 L45.4 25.75 Q42.8 26.1 41.45 25.25 L45.4 25.25 45.85 25.25 45.85 25.7" fill="#b9b0a4" fill-opacity="0.99215686" fill-rule="evenodd" stroke="none"/>
    <path d="M41.45 25.25 L40.95 25.2 Q38.8 24.95 37.5 23.75 38.55 24.05 38.75 23.3 L39.0 23.25 Q39.45 24.8 41.4 25.0 L41.45 25.25" fill="#b7afa4" fill-opacity="0.9019608" fill-rule="evenodd" stroke="none"/>
    <path d="M63.1 29.65 L57.55 30.45 Q46.85 32.1 39.5 29.65 50.9 30.7 62.6 29.7 L63.1 29.65" fill="#221709" fill-opacity="0.4509804" fill-rule="evenodd" stroke="none"/>
    <path d="M32.1 2.6 L32.1 8.0 32.1 8.5 32.1 10.0 32.1 10.5 31.6 10.5 31.6 10.0 31.6 2.6 32.1 2.6" fill="#7e6d56" fill-rule="evenodd" stroke="none"/>
    <path d="M32.1 8.5 Q32.95 11.6 32.6 15.9 L32.6 16.4 32.1 16.4 32.1 15.9 32.1 15.4 32.1 10.5 32.1 10.0 32.1 8.5" fill="#c5bdb2" fill-rule="evenodd" stroke="none"/>
    <path d="M32.1 15.9 L31.85 15.85 Q31.6 13.2 31.6 10.5 L32.1 10.5 32.1 15.4 32.1 15.9" fill="#6b583d" fill-rule="evenodd" stroke="none"/>
    <path d="M29.15 20.3 L28.9 20.3 28.65 0.65 29.15 0.65 29.15 19.8 29.15 20.3" fill="#1e1508" fill-opacity="0.40784314" fill-rule="evenodd" stroke="none"/>
    <path d="M20.3 1.15 Q21.15 2.5 20.55 5.0 L20.3 5.05 20.3 4.6 20.3 1.15" fill="#624f33" fill-opacity="0.99215686" fill-rule="evenodd" stroke="none"/>
    <path d="M19.8 5.55 L19.8 5.05 19.8 0.65 20.2 0.75 20.3 1.15 20.3 4.6 20.3 5.05 20.2 5.45 19.8 5.55" fill="#aba194" fill-opacity="0.9019608" fill-rule="evenodd" stroke="none"/>
    <path d="M24.25 9.5 L24.0 9.5 23.75 0.15 Q24.6 3.95 24.25 9.0 L24.25 9.5" fill="#261b0b" fill-opacity="0.49803922" fill-rule="evenodd" stroke="none"/>
    <path d="M32.6 16.4 L32.6 19.8 32.6 20.3 32.35 20.3 32.1 16.4 32.6 16.4" fill="#8b7d68" fill-rule="evenodd" stroke="none"/>
    <path d="M32.6 20.3 Q33.0 23.8 36.1 21.9 L36.55 21.8 36.45 22.05 Q35.1 22.55 34.05 23.25 L33.6 23.25 33.2 23.15 Q32.25 22.4 32.6 20.3" fill="#908a81" fill-opacity="0.7058824" fill-rule="evenodd" stroke="none"/>
    <path d="M37.0 23.75 L36.95 24.0 Q34.15 24.9 33.6 23.25 L34.05 23.25 Q34.7 24.1 36.55 23.8 L37.0 23.75" fill="#2f2211" fill-opacity="0.49803922" fill-rule="evenodd" stroke="none"/>
    <path d="M36.55 21.8 L36.55 21.3 Q37.55 20.6 39.0 20.35 L39.5 20.3 39.4 20.6 36.55 21.8" fill="#9a9a9a" fill-opacity="0.6117647" fill-rule="evenodd" stroke="none"/>
    <path d="M17.85 7.05 L17.85 6.55 Q18.8 6.55 19.4 6.15 L19.8 6.05 Q20.65 9.85 20.05 14.9 L19.8 14.9 Q19.8 13.45 20.05 12.0 20.95 6.45 17.85 7.05" fill="#241d13" fill-opacity="0.29803923" fill-rule="evenodd" stroke="none"/>
    <path d="M13.9 9.0 L13.9 8.5 17.4 7.15 17.85 7.05 17.75 7.4 Q16.2 8.55 13.9 9.0" fill="#6d6d6d" fill-opacity="0.43529412" fill-rule="evenodd" stroke="none"/>
    <path d="M-1.35 28.2 L19.3 28.2 19.8 28.2 19.8 28.45 Q8.65 29.05 -1.35 28.2" fill="#271b0a" fill-opacity="0.49803922" fill-rule="evenodd" stroke="none"/>
    <path d="M-30.2 12.1 L-30.25 12.0 -30.15 12.0 -30.2 12.1 M-44.1 17.55 L-44.15 17.6 -44.2 17.6 -44.1 17.55 M-47.65 18.7 L-47.65 18.85 -47.7 18.9 -47.85 18.85 -47.65 18.7 M-53.9 20.8 L-54.0 21.3 -54.0 21.85 -53.95 20.8 -53.9 20.8 M-30.4 20.55 L-30.45 20.55 -30.4 20.5 -30.4 20.55" fill="#009966" fill-rule="evenodd" stroke="none"/>
  </g>
</svg>
