<?xml version="1.0" encoding="UTF-8" standalone="no"?>
<svg xmlns:ffdec="https://www.free-decompiler.com/flash" xmlns:xlink="http://www.w3.org/1999/xlink" ffdec:objectType="shape" height="26.15px" width="29.5px" xmlns="http://www.w3.org/2000/svg">
  <g transform="matrix(1.0, 0.0, 0.0, 1.0, 12.75, 18.55)">
    <path d="M4.75 -11.7 Q8.0 -15.2 12.0 -17.55 L15.75 -13.5 Q8.8 -8.05 4.35 -0.15 2.1 3.75 1.25 6.6 -1.2 3.75 -5.45 1.25 -8.95 -0.9 -11.75 -1.75 L-10.75 -4.9 Q-10.1 -6.4 -8.7 -7.9 L-4.75 -6.15 Q-3.05 -5.2 -1.35 -3.65 2.0 -8.75 4.75 -11.7" fill="#00e700" fill-rule="evenodd" stroke="none"/>
    <path d="M4.75 -11.7 Q2.0 -8.75 -1.35 -3.65 -3.05 -5.2 -4.75 -6.15 L-8.7 -7.9 Q-10.1 -6.4 -10.75 -4.9 L-11.75 -1.75 Q-8.95 -0.9 -5.45 1.25 -1.2 3.75 1.25 6.6 2.1 3.75 4.35 -0.15 8.8 -8.05 15.75 -13.5 L12.0 -17.55 Q8.0 -15.2 4.75 -11.7 Z" fill="none" stroke="#006600" stroke-linecap="round" stroke-linejoin="round" stroke-width="2.0"/>
  </g>
</svg>
