<?xml version="1.0" encoding="UTF-8" standalone="no"?>
<svg xmlns:ffdec="https://www.free-decompiler.com/flash" xmlns:xlink="http://www.w3.org/1999/xlink" ffdec:objectType="shape" height="25.0px" width="48.65px" xmlns="http://www.w3.org/2000/svg">
  <g transform="matrix(1.0, 0.0, 0.0, 1.0, 24.15, 9.85)">
    <path d="M16.1 -7.45 L21.45 -7.45 Q13.7 4.55 0.55 12.35 L0.35 12.35 Q9.05 4.2 16.1 -7.45" fill="#ffff99" fill-rule="evenodd" stroke="none"/>
    <path d="M24.45 -8.2 Q16.3 5.7 1.65 14.4 L0.55 14.95 Q0.35 15.15 0.0 15.15 L-0.4 14.95 -1.5 14.55 -1.5 14.4 Q-15.55 7.0 -23.9 -8.2 -24.25 -8.6 -24.1 -8.95 L-23.7 -9.5 -22.95 -9.85 23.5 -9.85 Q23.9 -9.85 24.25 -9.5 L24.45 -8.95 24.45 -8.2 M0.35 12.35 L0.55 12.35 Q13.7 4.55 21.45 -7.45 L16.1 -7.45 -0.95 -7.45 -19.65 -7.45 -20.95 -7.45 Q-13.15 5.7 -0.4 12.55 -0.2 12.55 0.0 12.7 L0.2 12.55 0.35 12.35" fill="#000000" fill-rule="evenodd" stroke="none"/>
    <path d="M16.1 -7.45 Q9.05 4.2 0.35 12.35 L0.2 12.55 0.0 12.7 Q-0.2 12.55 -0.4 12.55 -13.15 5.7 -20.95 -7.45 L-19.65 -7.45 Q-10.55 4.2 0.0 12.55 -1.85 2.55 -0.95 -7.45 L16.1 -7.45" fill="#ffcc00" fill-rule="evenodd" stroke="none"/>
    <path d="M-19.65 -7.45 L-0.95 -7.45 Q-1.85 2.55 0.0 12.55 -10.55 4.2 -19.65 -7.45" fill="#ff9900" fill-rule="evenodd" stroke="none"/>
  </g>
</svg>
