<?xml version="1.0" encoding="UTF-8" standalone="no"?>
<svg xmlns:ffdec="https://www.free-decompiler.com/flash" xmlns:xlink="http://www.w3.org/1999/xlink" ffdec:objectType="shape" height="79.05px" width="205.7px" xmlns="http://www.w3.org/2000/svg">
  <g transform="matrix(1.0, 0.0, 0.0, 1.0, 103.25, 32.6)">
    <path d="M84.2 3.7 L84.2 -16.4 Q48.25 -20.3 10.7 -20.75 L0.5 -13.95 -9.75 -20.75 Q-46.7 -20.2 -85.15 -16.15 L-85.15 0.8 -101.5 0.55 -101.5 -23.05 -90.4 -24.7 -83.95 -25.55 -76.3 -26.45 -64.0 -27.75 -57.95 -28.3 -50.3 -28.9 Q1.35 -32.85 50.45 -28.75 L57.8 -28.1 64.35 -27.4 76.2 -26.0 85.2 -24.8 100.7 -22.2 100.7 4.0 84.2 3.7" fill="#ffcc00" fill-rule="evenodd" stroke="none"/>
    <path d="M-85.15 0.8 L-85.15 -16.15 Q-46.7 -20.2 -9.75 -20.75 L0.5 -13.95 10.7 -20.75 Q48.25 -20.3 84.2 -16.4 L84.2 3.7 84.2 14.9 Q50.0 25.45 15.65 29.95 L-0.55 19.0 -16.65 29.95 Q-51.0 25.45 -85.15 14.9 L-85.15 0.8" fill="url(#gradient0)" fill-rule="evenodd" stroke="none"/>
    <path d="M-85.15 0.8 L-85.15 14.9 Q-51.0 25.45 -16.65 29.95 L-0.55 19.0 15.65 29.95 Q50.0 25.45 84.2 14.9 L84.2 3.7 100.7 4.0 100.15 17.85 Q54.05 36.8 6.05 43.75 L-0.85 44.7 -7.7 43.75 Q-55.45 36.9 -101.5 19.05 L-101.5 0.55 -85.15 0.8" fill="url(#gradient1)" fill-rule="evenodd" stroke="none"/>
    <path d="M84.2 3.7 L84.2 -16.4 Q48.25 -20.3 10.7 -20.75 L0.5 -13.95 -9.75 -20.75 Q-46.7 -20.2 -85.15 -16.15 L-85.15 0.8 -85.15 14.9 Q-51.0 25.45 -16.65 29.95 L-0.55 19.0 15.65 29.95 Q50.0 25.45 84.2 14.9 L84.2 3.7" fill="none" stroke="#210d00" stroke-linecap="round" stroke-linejoin="round" stroke-width="1.75"/>
    <path d="M100.7 4.0 L100.7 -22.2 85.2 -24.8 76.2 -26.0 64.35 -27.4 57.8 -28.1 50.45 -28.75 Q1.35 -32.85 -50.3 -28.9 L-57.95 -28.3 -64.0 -27.75 -76.3 -26.45 -83.95 -25.55 -90.4 -24.7 -101.5 -23.05 -101.5 0.55 -101.5 19.05 Q-55.45 36.9 -7.7 43.75 L-0.85 44.7 6.05 43.75 Q54.05 36.8 100.15 17.85 L100.7 4.0 Z" fill="none" stroke="#210d00" stroke-linecap="round" stroke-linejoin="round" stroke-width="3.5"/>
  </g>
  <defs>
    <radialGradient cx="0" cy="0" gradientTransform="matrix(0.2742, 0.0, 0.0, 0.0687, -0.1, 10.25)" gradientUnits="userSpaceOnUse" id="gradient0" r="819.2" spreadMethod="pad">
      <stop offset="0.37254901960784315" stop-color="#09ff12"/>
      <stop offset="0.5764705882352941" stop-color="#11980a"/>
    </radialGradient>
    <linearGradient gradientTransform="matrix(0.0, 0.0184, -0.055, 0.0, 178.25, 18.8)" gradientUnits="userSpaceOnUse" id="gradient1" spreadMethod="pad" x1="-819.2" x2="819.2">
      <stop offset="0.0" stop-color="#ffffff"/>
      <stop offset="0.2" stop-color="#ffcc00"/>
      <stop offset="1.0" stop-color="#ff6600"/>
    </linearGradient>
  </defs>
</svg>
