<?xml version="1.0" encoding="UTF-8" standalone="no"?>
<svg xmlns:ffdec="https://www.free-decompiler.com/flash" xmlns:xlink="http://www.w3.org/1999/xlink" ffdec:objectType="shape" height="51.25px" width="250.15px" xmlns="http://www.w3.org/2000/svg">
  <g transform="matrix(1.0, 0.0, 0.0, 1.0, 132.4, -96.1)">
    <path d="M70.05 114.3 L69.7 103.9 73.35 101.8 74.95 101.0 Q79.15 98.9 81.15 98.5 L82.25 101.0 82.55 102.2 Q82.6 103.15 81.85 104.05 83.65 102.2 86.0 101.0 L86.95 100.55 Q89.2 99.6 90.7 99.6 94.5 99.6 96.1 100.8 L96.35 101.0 Q97.75 102.25 98.7 105.45 97.3 108.0 91.05 114.2 L90.7 114.6 96.65 110.2 104.5 104.25 Q107.25 102.45 109.95 101.1 L111.1 107.9 111.35 109.0 Q110.4 109.6 109.4 110.3 L94.1 121.8 Q85.55 128.3 81.1 130.95 74.85 134.7 70.95 134.7 L70.85 134.7 70.05 114.3 M6.05 99.2 Q4.5 101.15 1.5 102.15 2.4 102.7 3.65 102.85 4.4 103.15 4.4 105.45 4.4 107.05 -3.6 115.0 L-12.05 123.0 -12.45 124.1 17.9 101.9 18.6 101.4 19.5 107.05 19.85 109.05 Q-9.95 130.95 -23.4 139.05 -25.25 136.45 -25.35 134.7 -25.45 133.4 -24.5 131.75 L-24.1 129.95 -31.25 134.75 -31.75 135.15 -32.65 121.0 -32.2 120.4 -32.65 120.2 -32.9 109.0 -32.9 99.4 -18.6 97.35 -16.4 97.0 -13.25 98.75 -13.55 99.6 -12.6 99.0 Q-8.9 100.35 -4.0 100.35 L6.05 99.2 M70.85 146.05 L70.95 139.85 Q77.15 134.2 90.1 125.6 98.5 120.05 107.65 114.55 L112.0 112.05 112.5 114.5 Q106.4 120.8 94.0 129.8 L70.85 146.05 M85.55 118.25 L81.95 121.9 Q82.45 121.9 83.75 120.6 85.05 119.35 85.55 118.25 M-96.2 97.2 L-94.85 97.4 -94.9 97.6 -94.15 98.7 Q-95.05 100.1 -98.05 103.0 L-101.75 106.45 -111.55 115.5 -111.55 115.7 Q-105.45 110.35 -100.95 106.85 -98.0 104.5 -95.7 103.0 -91.45 100.15 -89.6 100.15 L-88.25 100.35 -88.3 100.5 -87.55 101.6 Q-89.9 104.85 -95.0 110.5 L-100.05 115.85 Q-109.9 126.25 -112.95 130.1 -104.85 122.85 -95.0 115.65 L-85.85 109.15 -85.8 109.6 -85.35 114.25 -95.0 121.35 -113.65 135.0 -119.55 139.25 Q-121.4 139.25 -121.4 138.9 L-121.55 137.25 Q-121.55 136.6 -120.5 135.0 -118.55 131.8 -112.6 124.8 -105.45 116.35 -102.75 113.65 L-102.75 113.3 Q-103.95 114.2 -114.2 124.4 -124.55 134.15 -127.6 134.15 L-129.05 133.95 -129.1 133.8 -129.45 133.6 -129.6 132.4 Q-129.6 131.05 -128.55 129.5 L-126.5 127.2 -127.85 125.15 -128.7 122.9 Q-128.7 121.7 -128.2 121.15 L-126.9 119.9 Q-127.85 119.3 -129.15 118.8 L-130.9 117.7 Q-130.9 116.55 -129.7 115.1 -128.5 113.5 -128.5 112.75 -128.5 111.95 -129.6 109.1 L-130.7 106.15 Q-130.7 104.35 -129.85 103.0 -128.3 100.45 -123.75 99.45 L-115.55 98.85 Q-114.65 98.85 -112.7 99.6 -110.8 100.35 -109.85 100.35 L-107.2 99.85 -104.6 99.4 -101.9 99.15 -99.3 98.85 Q-98.4 98.85 -97.7 98.05 -97.1 97.2 -96.2 97.2" fill="#ffffff" fill-rule="evenodd" stroke="none"/>
    <path d="M71.75 117.55 Q72.2 127.95 73.0 134.9 L73.0 140.6 73.65 141.25 Q91.3 141.05 98.7 140.65 L107.4 139.85 Q109.05 139.2 112.2 138.65 L112.2 127.75 111.7 120.25 111.05 110.9 Q110.7 103.25 99.4 101.85 89.9 100.6 71.2 103.65 L71.75 117.55 M66.75 101.45 Q66.75 100.45 69.1 99.25 71.95 97.8 76.7 97.2 89.65 95.4 110.2 100.2 L113.25 101.0 Q117.25 102.55 117.45 105.85 L117.05 109.85 Q116.55 112.6 116.75 114.1 117.65 119.95 117.7 130.65 L117.6 142.25 Q117.6 144.1 116.7 144.5 L114.8 145.05 Q102.8 146.65 101.15 147.35 L71.6 147.35 Q69.25 147.35 68.0 146.45 67.25 145.9 66.85 145.05 L66.55 142.5 Q66.55 141.05 67.9 139.55 L68.0 139.45 68.7 138.9 68.3 138.1 68.0 137.4 Q66.75 134.3 66.75 133.15 66.75 116.2 68.0 108.0 68.35 105.65 68.8 104.05 L68.0 104.2 67.7 104.25 67.25 103.75 Q66.75 103.2 66.75 101.45 M23.75 121.9 L24.55 133.25 Q24.35 144.7 18.9 147.35 L-29.9 147.35 -31.95 146.65 Q-32.75 146.1 -32.75 144.15 -32.75 142.3 -31.7 141.9 L-31.4 141.85 Q-32.65 138.95 -33.95 131.05 L-35.6 118.25 -35.6 107.55 Q-35.35 104.0 -34.8 101.55 L-36.1 101.35 Q-36.7 101.15 -36.7 99.3 L-36.6 97.7 -35.85 97.0 -33.0 97.0 -32.2 96.1 -32.15 97.0 -24.2 96.7 16.65 96.7 Q21.65 95.65 23.15 106.95 23.75 111.5 23.75 121.9 M18.45 112.4 Q18.0 106.1 16.1 102.55 1.7 102.9 -10.85 102.65 L-31.8 101.85 -30.65 118.3 Q-29.45 132.15 -27.3 141.0 L-27.4 141.55 18.35 141.0 18.6 121.9 18.45 112.4 M-126.5 96.9 L-121.35 96.6 -118.0 96.6 Q-109.85 95.9 -84.75 97.0 -79.9 110.9 -79.9 138.8 -79.9 140.7 -81.25 141.8 -82.55 142.8 -85.85 143.6 L-124.45 143.6 -124.7 143.4 -125.05 143.35 -125.6 143.6 Q-127.25 142.05 -128.15 139.9 -129.25 138.5 -130.35 135.25 L-130.4 135.0 -131.0 132.65 -132.05 129.65 Q-132.4 127.95 -132.4 119.3 L-132.25 107.55 Q-132.05 105.05 -131.5 103.0 -130.7 99.45 -129.0 97.3 L-128.6 97.5 -126.5 96.9 M-86.95 102.55 L-87.3 101.65 Q-92.65 101.3 -103.95 101.25 -112.25 101.15 -116.9 101.45 L-120.2 101.45 Q-124.75 101.8 -126.7 103.0 L-127.05 103.2 -127.25 103.15 Q-127.85 104.45 -128.1 106.45 L-128.05 106.55 -128.15 108.3 Q-128.15 113.1 -126.75 122.35 -125.4 130.95 -123.65 135.0 L-122.2 137.5 -122.25 137.8 -86.45 137.8 Q-85.2 135.0 -84.95 131.25 L-84.75 125.2 Q-84.75 122.8 -85.4 115.2 L-86.8 102.8 -86.95 102.55" fill="#543d1e" fill-rule="evenodd" stroke="none"/>
  </g>
</svg>
