<?xml version="1.0" encoding="UTF-8" standalone="no"?>
<svg xmlns:ffdec="https://www.free-decompiler.com/flash" xmlns:xlink="http://www.w3.org/1999/xlink" ffdec:objectType="shape" height="139.85px" width="192.5px" xmlns="http://www.w3.org/2000/svg">
  <g transform="matrix(1.0, 0.0, 0.0, 1.0, 54.8, 80.75)">
    <path d="M62.65 -79.8 L62.4 -79.8 62.3 -79.95 61.75 -80.35 61.3 -80.35 62.2 -80.6 62.65 -79.8 M31.6 -80.45 L30.75 -80.6 31.3 -80.75 31.6 -80.45 M29.55 -55.75 L29.7 -55.4 30.3 -55.1 31.8 -55.35 Q32.6 -55.55 33.15 -56.15 L32.8 -55.35 32.8 -54.95 32.35 -54.45 Q32.3 -53.85 32.55 -53.7 L32.65 -53.6 32.6 -53.25 Q32.55 -53.1 35.0 -50.35 L35.15 -50.1 Q35.35 -48.5 36.15 -48.5 L36.25 -48.5 36.6 -48.0 36.75 -46.5 36.9 -46.35 37.65 -46.25 37.9 -46.25 Q39.7 -44.0 41.5 -42.4 L41.5 -42.05 40.25 -43.2 Q37.15 -45.95 36.3 -46.15 L36.1 -45.3 37.25 -43.6 Q36.4 -44.2 35.4 -43.85 L35.35 -43.65 35.15 -44.25 35.1 -44.95 35.25 -46.0 35.25 -46.85 34.7 -47.1 34.9 -47.75 35.0 -48.6 Q33.75 -49.3 33.2 -48.35 L32.9 -46.95 33.1 -45.5 Q32.9 -44.85 32.85 -44.05 L32.45 -45.45 32.75 -48.25 32.4 -48.65 Q31.65 -50.7 30.7 -52.05 L29.65 -53.1 29.75 -53.3 Q29.75 -54.2 29.35 -55.35 L29.55 -55.75 M33.95 -57.3 L34.8 -58.85 35.85 -60.55 Q36.15 -60.65 36.05 -60.85 L38.55 -64.25 42.5 -69.0 42.45 -68.5 42.45 -68.1 42.0 -67.5 39.2 -63.5 Q35.5 -59.45 33.95 -57.3 M44.3 -70.3 L44.1 -70.95 46.05 -73.55 45.9 -72.6 Q45.85 -72.1 46.6 -70.95 L45.2 -71.1 44.3 -70.3 M48.45 -74.3 Q47.4 -75.35 46.8 -74.9 L46.85 -75.2 46.85 -75.6 50.45 -76.05 49.2 -75.2 49.25 -75.0 49.15 -74.7 49.0 -74.85 48.65 -74.4 48.45 -74.3 M23.75 -29.25 L23.45 -28.8 Q22.3 -27.95 22.3 -27.55 L22.4 -26.95 22.65 -26.8 22.65 -26.75 23.35 -26.7 23.5 -26.75 22.9 -24.3 20.85 -20.75 20.8 -20.8 20.15 -21.25 19.75 -21.25 21.0 -25.2 Q21.7 -27.25 22.5 -28.8 L23.75 -29.25 M13.65 -20.5 L13.65 -20.4 13.75 -20.05 13.65 -19.4 13.9 -18.85 13.8 -18.4 14.45 -17.0 15.0 -16.05 13.7 -15.95 13.5 -15.35 12.85 -14.2 12.9 -13.85 13.05 -13.7 13.5 -13.55 14.15 -13.45 13.9 -13.2 12.9 -12.1 11.45 -10.05 8.35 -5.9 5.65 -4.8 Q-0.15 -2.35 -0.15 -1.5 L0.6 -0.6 3.4 -1.7 1.7 -0.4 Q4.95 0.35 9.55 3.65 L9.9 3.9 7.0 2.85 6.5 3.15 Q4.15 2.1 -0.45 0.2 L-0.45 -0.15 Q-0.45 -1.05 -2.2 -1.75 L-1.5 -1.55 Q-0.7 -2.5 1.65 -3.8 L4.25 -5.15 5.3 -6.05 7.1 -8.95 Q9.75 -12.8 12.55 -15.4 L14.45 -17.0 13.9 -17.65 13.35 -20.2 13.3 -20.35 13.65 -20.5 M57.7 -4.25 L58.85 -5.4 58.9 -5.1 58.3 -4.6 57.7 -4.25 M55.35 23.05 L55.4 23.25 53.8 24.75 54.4 24.1 55.35 23.05 M51.0 26.7 L50.9 26.75 50.9 26.7 51.0 26.7 M38.45 27.45 L38.4 27.5 38.25 27.4 38.45 27.45 M34.65 24.2 L33.3 22.95 32.3 21.85 32.25 21.8 32.85 22.0 33.25 22.55 33.45 22.8 34.65 24.2 M24.7 8.75 L23.35 6.3 23.1 4.65 24.5 8.2 24.7 8.75 M22.8 2.5 L22.3 1.8 Q21.85 1.35 21.45 1.8 L20.25 1.7 18.75 1.9 20.5 1.05 20.7 0.95 22.1 1.1 22.6 1.2 23.9 1.7 22.8 2.5 M-2.75 -1.95 L-3.25 -2.15 -3.2 -2.2 -2.75 -1.95 M51.1 46.7 L51.05 47.5 51.05 47.8 50.9 47.95 50.9 46.65 50.9 45.75 51.1 46.7 M48.6 54.0 L48.55 54.5 48.55 55.75 Q48.8 56.95 49.9 56.95 L50.3 56.95 51.35 57.7 52.75 58.1 53.4 58.4 50.2 57.9 49.75 57.75 49.7 57.35 48.6 57.3 48.25 57.05 48.2 55.9 Q48.2 55.05 48.6 54.0 M58.8 58.35 L58.85 58.3 59.05 58.3 58.8 58.35 M71.85 -69.05 L71.05 -69.9 71.25 -70.15 71.85 -69.05 M69.65 -73.55 L70.75 -74.85 70.8 -75.1 71.85 -75.9 71.7 -75.4 71.8 -75.2 69.65 -73.55 M34.45 -69.0 L33.9 -71.15 33.9 -71.1 34.45 -69.0 M26.2 -27.65 L26.25 -27.85 28.8 -29.1 29.2 -29.25 27.85 -28.35 26.55 -27.6 26.2 -27.65 M30.5 -29.85 L31.25 -30.05 32.35 -28.25 32.0 -28.4 31.55 -29.0 30.7 -29.45 30.5 -29.85 M39.6 -21.45 L39.4 -21.9 40.15 -22.05 40.15 -22.0 39.9 -21.5 39.6 -21.45 M59.95 -27.7 L60.05 -27.75 60.2 -27.7 60.6 -26.95 59.95 -27.7 M58.45 -16.35 Q56.45 -17.45 55.9 -17.0 55.1 -17.65 53.85 -18.15 L53.9 -18.4 52.45 -20.2 55.35 -18.9 57.45 -17.15 58.45 -16.35 M57.15 -8.0 L57.25 -6.9 Q57.25 -6.65 56.75 -6.15 L56.95 -6.8 56.85 -7.4 57.0 -7.7 57.15 -8.0 M47.7 9.55 L47.6 9.6 47.65 9.5 47.7 9.55 M47.4 8.25 L46.7 8.0 45.55 6.5 45.25 6.15 45.7 6.05 45.95 6.3 46.4 6.9 47.45 8.2 47.4 8.25 M43.9 5.7 L43.25 5.65 43.85 5.5 43.9 5.7 M38.95 8.45 L38.85 9.55 38.9 10.05 39.1 10.5 38.7 10.15 37.6 9.55 37.2 9.35 37.0 9.25 37.35 9.25 37.6 9.55 38.2 9.1 38.3 9.05 38.45 8.9 38.95 8.45 M31.1 7.05 L30.65 6.9 30.1 6.8 30.1 5.75 30.45 6.45 30.65 6.65 30.7 6.75 31.1 7.05 M39.85 -9.3 L39.2 -8.9 39.15 -8.85 38.3 -9.6 Q36.4 -10.4 35.35 -11.1 L33.7 -12.6 33.35 -12.85 33.4 -13.4 33.4 -13.5 35.8 -11.7 39.85 -9.3 M29.3 -15.9 L28.55 -15.25 27.1 -13.7 Q26.5 -13.75 26.15 -13.15 L25.9 -13.05 25.7 -13.05 25.55 -13.0 25.05 -13.2 Q26.55 -13.65 27.35 -14.25 L29.15 -15.95 29.3 -15.9 M16.65 -18.25 L16.25 -18.85 16.7 -18.7 16.65 -18.25 M19.1 -18.55 L19.4 -18.55 19.0 -17.8 19.1 -18.55 M19.7 -16.55 L19.8 -16.55 20.55 -17.3 20.05 -16.15 19.95 -16.15 19.7 -16.55 M33.3 -6.5 L33.0 -6.65 33.0 -6.7 33.3 -6.5 M39.6 -3.6 L39.45 -3.7 39.55 -3.7 39.6 -3.6 M65.05 -47.25 L65.3 -47.65 65.3 -47.5 65.35 -47.2 65.05 -47.25 M73.9 -26.7 L74.35 -27.3 Q74.5 -27.45 75.0 -27.6 L75.2 -27.6 75.1 -27.5 73.9 -26.7 M72.05 -22.05 L71.85 -22.05 Q71.65 -22.15 71.55 -22.2 L71.35 -22.1 71.1 -22.05 70.9 -22.25 71.25 -22.6 71.35 -22.5 71.95 -22.25 72.15 -22.25 72.05 -22.05 M59.5 -25.0 L59.25 -25.4 59.25 -25.45 59.5 -25.0 M48.55 -7.65 L48.6 -7.4 48.4 -7.3 48.25 -7.45 48.55 -7.65 M67.8 -11.65 Q67.45 -12.05 66.9 -12.1 L67.3 -12.25 Q68.3 -12.55 68.55 -12.8 L68.3 -13.15 68.3 -13.2 68.4 -13.1 68.5 -13.0 68.75 -12.8 68.6 -12.7 67.8 -11.65 M86.35 -3.05 L86.55 -3.25 Q87.4 -3.5 88.1 -4.4 L88.35 -3.0 88.95 -0.15 89.35 0.95 Q89.6 2.35 90.3 3.45 L89.95 3.45 Q89.75 3.45 89.25 3.9 L89.15 3.4 89.0 2.25 Q88.55 1.7 88.2 1.6 88.1 0.65 87.8 0.6 L87.6 0.35 87.3 0.25 87.0 0.15 86.75 0.2 86.55 -0.65 86.9 -1.0 86.35 -3.05 M86.2 1.5 L86.2 1.6 85.75 2.25 84.85 3.85 84.5 3.85 85.6 2.4 86.2 1.5 M75.2 1.35 Q74.15 0.85 73.85 0.6 L73.45 0.45 73.5 0.4 73.65 0.15 74.9 0.75 75.2 1.35 M68.8 -3.45 L68.6 -3.2 68.3 -3.55 68.3 -4.15 68.65 -3.6 68.8 -3.45 M68.85 -15.4 L68.85 -15.35 68.65 -15.4 69.05 -15.95 68.85 -15.4 M75.25 3.7 L76.2 4.1 75.7 4.45 75.25 4.6 73.95 4.95 68.9 4.9 69.45 3.1 69.55 2.85 69.7 2.8 Q69.7 3.4 69.85 3.65 L70.55 4.2 74.55 4.2 75.25 3.7 M41.3 7.85 L40.8 8.65 40.7 8.55 41.3 7.85 M40.55 9.1 L40.6 9.15 Q40.45 9.75 40.45 10.5 L40.45 10.75 40.45 11.05 40.65 11.8 39.95 11.1 40.4 10.9 40.5 9.15 40.55 9.1 M14.85 6.15 L15.05 6.05 15.0 6.25 15.0 6.55 14.6 6.3 14.85 6.15 M-5.1 0.2 L-5.5 0.4 -5.45 0.1 -5.4 0.0 -5.1 0.2 M-13.25 15.0 L-14.55 18.45 -14.35 19.0 -15.0 18.35 -14.65 17.65 -13.25 15.0 M10.95 27.6 L11.5 27.45 11.7 27.45 Q12.75 27.45 13.4 26.7 L13.6 26.5 13.7 26.9 14.05 27.25 13.0 27.4 10.95 27.6 M15.95 16.55 L16.6 12.85 16.6 12.6 17.15 13.1 16.9 13.7 15.95 16.55 M1.95 17.15 Q1.0 16.35 -0.5 16.05 L-1.0 16.0 -1.0 15.95 -1.05 15.95 -1.85 15.95 -1.9 15.85 -3.25 15.95 -3.95 16.75 -3.9 16.1 -4.25 15.75 -3.95 15.35 -2.05 15.1 Q0.35 15.1 1.95 17.15 M3.0 21.3 L3.15 20.5 2.95 18.9 Q3.4 19.9 3.4 20.8 L3.0 21.3 M0.5 27.0 Q-0.1 27.45 -0.1 27.8 L-0.1 27.95 -2.2 27.95 -2.0 27.8 2.5 24.4 2.55 24.35 2.6 24.3 2.7 24.45 2.0 25.1 1.6 25.2 Q1.05 25.45 0.9 26.0 L-0.45 27.0 0.5 27.0 M-8.9 21.45 L-9.1 21.95 -9.2 21.85 -8.9 21.45 M10.5 35.95 L10.9 35.9 11.05 35.85 Q13.55 32.1 13.55 30.0 L13.55 29.9 13.95 29.85 13.9 30.05 Q12.4 34.55 11.5 36.0 L11.3 36.0 10.5 35.95 M3.8 30.05 L4.0 32.45 4.25 34.25 4.3 34.6 3.1 34.3 Q2.7 34.35 2.7 35.2 L3.1 35.55 2.95 35.6 2.8 35.85 2.8 36.4 Q2.8 36.85 2.95 37.1 L2.9 37.1 Q2.3 35.85 1.8 34.05 L1.7 33.55 1.55 33.0 Q1.15 31.2 1.1 29.9 L1.5 29.9 3.8 30.05 M-3.3 29.1 L-6.05 31.1 -8.6 33.0 -10.55 32.65 -10.9 31.25 -10.9 31.0 -10.85 30.8 -10.85 30.6 -10.7 29.45 -10.55 28.5 -10.2 26.15 -10.15 26.95 -9.35 27.7 -9.0 27.6 -9.55 29.85 -9.65 30.25 -9.2 30.7 -10.2 31.5 -10.15 32.0 -9.9 32.3 -9.2 32.45 -6.65 30.9 -3.45 28.8 -3.3 29.1 M-12.75 32.85 L-12.4 34.7 Q-12.1 36.05 -11.45 36.65 L-11.35 36.8 -11.4 36.8 -11.55 36.8 Q-13.0 35.75 -13.0 34.95 L-12.75 32.85 M5.85 37.8 L5.7 37.7 5.85 37.75 5.85 37.8 M34.95 46.5 L34.95 46.6 34.7 46.85 34.55 46.85 34.5 46.5 34.95 46.5 M52.55 50.3 L51.95 50.5 52.0 50.15 52.4 50.3 52.55 50.3 M60.3 52.8 L59.95 52.8 59.95 52.35 60.3 52.8 M50.95 55.6 L50.95 55.5 51.1 55.6 50.95 55.6" fill="#574429" fill-rule="evenodd" stroke="none"/>
    <path d="M62.65 -79.8 L66.75 -79.95 75.75 -79.65 Q77.25 -79.45 77.75 -78.9 L77.7 -78.8 76.95 -77.3 76.05 -76.35 75.75 -76.05 Q74.95 -74.55 72.2 -71.25 L71.25 -70.15 71.05 -69.9 71.85 -69.05 72.3 -68.5 Q76.0 -63.7 75.75 -61.45 L75.55 -60.85 Q75.75 -60.7 75.8 -60.7 L75.9 -60.55 75.95 -60.15 75.9 -60.0 75.3 -58.9 72.3 -53.9 Q68.85 -48.55 66.65 -46.7 L67.15 -45.4 69.05 -42.85 70.2 -41.1 71.4 -39.65 71.8 -39.15 75.45 -34.65 76.8 -33.05 77.3 -32.4 78.85 -35.0 79.45 -35.9 81.75 -38.8 82.2 -39.25 83.65 -39.6 84.1 -38.65 84.8 -36.55 85.05 -35.55 85.15 -35.3 85.45 -34.7 85.55 -34.35 Q87.5 -29.55 87.5 -29.0 L87.45 -28.35 88.0 -28.2 88.1 -28.15 89.45 -26.85 90.95 -24.3 92.65 -21.65 94.9 -16.3 95.0 -16.1 95.1 -16.05 95.25 -15.45 95.25 -15.4 96.2 -12.95 95.9 -12.45 96.05 -12.45 96.15 -12.35 96.25 -11.65 96.25 -11.55 96.25 -11.2 Q96.25 -10.45 98.3 -9.3 100.05 -8.35 101.55 -7.9 L104.7 -6.5 104.7 -6.25 104.8 -6.25 105.15 -5.7 104.95 -4.4 104.85 -4.05 106.35 -3.4 Q109.35 -1.9 110.8 -0.2 L110.85 -0.15 111.0 0.05 111.4 0.4 112.4 1.85 112.7 2.75 Q113.55 5.0 113.55 7.1 113.55 8.45 112.7 11.85 L112.65 11.9 111.3 14.45 110.65 15.4 110.25 16.1 109.7 16.55 109.55 16.6 108.15 17.3 106.95 17.85 106.25 18.05 104.75 18.05 Q101.25 18.05 98.05 16.1 95.7 14.65 94.95 13.35 L93.7 11.65 Q92.85 10.65 92.7 10.1 L92.5 8.4 Q92.4 7.5 91.5 7.4 L91.5 7.65 90.0 7.65 87.75 5.8 87.55 5.55 86.15 6.65 Q83.8 8.25 81.7 8.25 80.3 8.25 78.45 7.05 L76.9 5.9 75.3 6.65 73.9 6.65 71.05 6.95 68.3 6.7 67.95 7.7 67.95 7.8 66.35 12.5 66.0 13.2 66.0 13.75 64.85 18.35 65.45 20.7 66.25 24.0 66.9 26.85 66.9 27.15 67.1 27.15 67.2 27.9 67.25 28.65 66.45 30.6 65.45 32.9 65.0 34.05 64.85 35.1 64.5 36.95 Q64.0 39.1 63.05 39.4 L62.95 39.9 62.85 40.15 Q62.45 40.6 61.7 40.65 L61.05 44.4 60.15 47.35 60.85 48.35 Q63.7 52.85 63.7 54.0 L63.7 54.35 63.7 55.05 Q63.7 56.55 62.9 57.2 61.85 58.1 59.05 58.3 L58.85 58.3 58.8 58.35 57.65 58.65 56.4 59.1 55.8 59.05 55.8 58.95 55.55 58.8 53.4 58.4 52.75 58.1 51.35 57.7 50.3 56.95 49.9 56.95 Q48.8 56.95 48.55 55.75 L48.55 54.5 48.6 54.0 Q48.7 52.4 49.4 50.4 50.05 48.7 50.9 47.95 L51.05 47.8 51.05 47.5 51.1 46.7 51.2 45.95 51.2 43.95 51.3 40.45 51.2 40.45 50.85 40.5 50.7 40.4 Q50.3 40.1 50.1 39.4 L49.5 39.3 49.55 36.65 49.6 35.55 49.8 32.9 49.45 31.65 49.35 31.35 49.1 30.95 49.05 30.95 48.4 30.7 47.75 30.2 46.35 29.95 45.55 29.4 Q45.35 29.05 44.85 29.05 L44.8 29.05 Q44.65 29.05 42.85 29.85 L40.8 30.85 39.5 31.45 39.2 31.55 38.55 34.6 38.45 34.85 38.3 35.8 38.3 38.35 38.55 39.35 37.95 39.9 37.6 40.1 37.0 40.1 36.8 40.2 36.75 40.8 37.1 43.65 37.45 45.05 37.45 46.0 37.45 46.5 Q38.7 46.3 40.3 48.8 41.55 50.8 42.5 53.4 L42.4 54.25 42.15 54.55 Q42.15 55.55 41.55 56.05 L41.1 56.6 40.3 57.35 39.4 57.65 Q37.9 58.2 35.7 58.35 L35.6 58.35 34.6 58.35 Q30.5 58.35 28.6 57.25 27.0 56.9 26.35 56.25 26.0 55.85 26.0 54.55 26.0 52.65 27.35 50.15 L27.95 47.8 Q28.2 47.0 28.9 46.8 28.45 45.8 28.05 44.0 L27.4 40.5 26.25 40.5 Q25.6 40.25 25.4 39.7 L25.1 39.75 24.9 38.5 24.8 38.05 Q24.25 37.1 23.85 35.3 23.05 33.95 22.7 30.6 L22.55 29.35 22.2 28.65 21.8 27.25 21.75 26.7 21.8 26.25 21.75 25.2 Q21.75 23.45 22.45 20.9 L22.65 19.65 22.8 19.05 23.1 16.55 23.3 15.65 23.75 15.55 23.75 15.5 Q23.75 14.75 23.9 14.25 L23.75 13.8 23.85 13.65 23.7 13.6 23.4 13.1 23.4 12.45 22.55 11.55 22.7 11.35 21.35 8.65 20.25 5.95 19.4 5.95 19.1 5.9 17.4 6.85 17.05 7.25 16.75 7.55 18.9 9.1 Q19.6 9.75 19.6 10.15 L19.35 10.95 19.05 11.2 19.25 11.9 19.25 12.5 19.25 12.75 19.25 13.15 Q19.25 14.4 17.9 19.25 L17.8 19.55 17.8 19.65 17.8 19.7 17.25 23.2 17.05 24.35 16.5 27.45 16.4 27.6 16.25 27.7 Q16.05 29.7 14.6 33.45 L13.3 36.45 Q12.4 38.1 11.7 38.45 L11.3 38.4 11.05 38.45 9.55 38.45 7.3 41.4 4.0 44.85 3.6 44.75 3.15 45.15 -5.7 42.5 -7.65 41.9 -8.05 41.75 -10.4 40.75 Q-15.05 38.8 -15.05 37.55 L-14.85 34.35 -14.9 33.45 -14.6 27.95 -14.5 26.95 -14.75 24.25 Q-14.75 23.35 -14.4 22.85 L-15.65 21.75 Q-18.2 19.45 -18.2 19.0 L-18.15 18.8 -18.2 18.6 -17.9 18.0 -17.95 17.55 Q-17.95 16.4 -16.75 15.0 L-16.65 14.95 -16.6 14.85 Q-16.5 13.85 -11.2 4.2 L-8.2 -1.0 Q-6.9 -3.25 -3.6 -2.25 L-3.25 -2.15 -2.75 -1.95 -2.7 -1.95 -2.3 -1.8 -2.2 -1.75 Q-0.45 -1.05 -0.45 -0.15 L-0.45 0.2 Q4.15 2.1 6.5 3.15 L7.0 2.85 9.9 3.9 13.15 5.55 13.05 5.1 Q13.05 3.9 16.0 2.75 17.55 2.15 18.75 1.9 L20.25 1.7 21.45 1.8 Q21.85 1.35 22.3 1.8 L22.8 2.5 23.0 2.95 23.1 4.65 23.35 6.3 24.7 8.75 26.25 11.85 26.35 12.0 27.2 12.35 31.45 13.9 31.8 14.05 Q34.1 15.0 34.75 15.85 L34.65 16.25 33.7 15.95 31.15 15.4 30.9 15.3 29.95 15.15 29.85 15.15 28.9 14.95 28.05 14.75 27.65 14.65 27.95 15.3 Q27.15 15.2 26.9 15.75 L27.0 15.75 27.1 15.85 27.15 16.4 27.1 17.2 28.4 18.4 30.65 20.2 31.15 20.55 32.15 21.7 32.25 21.8 32.3 21.85 33.3 22.95 34.65 24.2 35.55 25.05 36.0 25.4 38.25 27.4 38.4 27.5 38.45 27.45 38.5 27.4 Q39.2 26.85 39.75 26.7 L42.15 26.1 45.75 25.5 Q46.25 25.5 47.75 26.6 L48.65 27.35 49.55 27.65 50.9 26.75 51.0 26.7 52.15 26.05 52.2 26.0 53.8 24.75 55.4 23.25 55.35 23.05 55.9 22.45 Q56.5 21.4 58.9 19.35 L61.65 17.15 Q61.7 16.2 62.0 15.45 L62.2 15.05 60.8 15.65 60.65 15.6 60.35 15.5 Q59.45 15.65 57.9 16.35 L56.55 16.95 56.4 16.95 55.65 16.85 55.4 16.6 58.8 14.6 61.4 12.8 62.45 12.5 63.4 11.9 64.4 11.45 65.9 5.05 66.25 3.85 67.35 -0.65 67.35 -0.7 Q66.6 -1.3 66.4 -1.85 L66.35 -1.9 Q66.0 -2.05 65.95 -3.45 L65.95 -4.05 65.2 -10.25 65.25 -10.85 62.65 -11.05 62.55 -11.1 61.95 -11.1 61.7 -11.4 Q61.2 -11.5 60.1 -12.25 L58.45 -13.0 58.6 -10.85 58.65 -10.45 58.85 -8.95 Q58.95 -8.2 59.2 -7.75 L59.35 -7.35 59.55 -6.35 59.15 -5.7 58.85 -5.4 57.7 -4.25 57.15 -3.9 57.15 -2.85 56.95 -1.8 57.25 0.65 57.3 1.15 57.3 1.7 57.4 1.75 57.55 2.7 57.35 3.55 57.5 5.65 57.5 5.7 57.25 6.9 57.0 7.1 56.65 7.6 Q56.2 9.0 52.1 10.85 L49.3 12.45 47.25 13.7 47.45 14.35 47.5 14.5 47.5 14.7 49.0 16.85 49.5 17.5 49.65 17.5 49.65 18.15 49.75 18.6 48.75 18.75 43.8 18.45 42.2 17.4 39.6 15.0 38.9 13.85 38.45 13.4 38.25 12.95 36.35 12.35 33.3 10.95 29.85 9.8 28.7 8.9 28.5 8.8 28.5 8.7 27.9 8.45 27.9 8.5 Q27.8 8.6 27.8 8.3 L27.8 8.15 27.75 8.15 27.6 7.8 27.65 5.65 27.7 4.95 27.7 3.85 27.55 1.2 27.15 -1.9 27.4 -2.55 27.4 -3.0 27.4 -3.15 Q26.85 -3.35 26.5 -3.55 L26.25 -3.45 25.75 -3.9 25.35 -4.2 25.35 -4.5 25.1 -5.5 25.35 -5.95 25.35 -6.55 25.35 -6.75 25.45 -10.5 23.2 -9.95 19.85 -9.35 Q17.9 -10.5 17.25 -12.2 L17.15 -12.45 16.35 -13.65 14.45 -13.45 14.15 -13.45 13.5 -13.55 13.05 -13.7 12.9 -13.85 12.85 -14.2 13.5 -15.35 13.7 -15.95 15.0 -16.05 14.45 -17.0 13.8 -18.4 13.9 -18.85 13.65 -19.4 13.75 -20.05 13.65 -20.4 13.65 -20.5 13.95 -20.9 14.65 -20.9 16.5 -21.1 17.5 -21.2 19.75 -21.25 20.15 -21.25 20.8 -20.8 20.85 -20.75 22.9 -24.3 23.5 -26.75 23.35 -26.7 22.65 -26.75 22.65 -26.8 22.4 -26.95 22.3 -27.55 Q22.3 -27.95 23.45 -28.8 L23.75 -29.25 Q24.45 -30.0 26.8 -30.95 L28.0 -31.4 28.85 -31.95 Q29.75 -32.5 30.6 -32.55 31.0 -33.6 32.75 -31.2 L33.1 -31.1 33.3 -30.75 34.15 -29.9 36.45 -26.7 37.95 -24.35 38.35 -24.6 40.0 -24.45 41.65 -24.35 47.25 -24.6 48.0 -24.6 48.15 -24.5 49.45 -26.7 50.15 -27.55 50.25 -27.85 50.6 -28.4 Q51.9 -31.25 53.05 -32.0 L53.7 -31.85 54.0 -32.05 54.9 -32.1 Q55.55 -32.45 56.65 -32.1 58.0 -31.7 58.85 -30.95 L61.65 -29.8 Q63.15 -29.15 63.75 -28.25 L65.6 -24.2 66.65 -21.5 67.6 -21.95 68.15 -22.15 68.45 -22.75 68.6 -23.45 68.4 -23.55 68.95 -24.25 69.1 -24.55 Q67.95 -25.75 66.25 -28.55 L65.15 -30.5 62.45 -33.95 60.9 -35.25 60.1 -36.2 59.05 -37.5 Q58.65 -37.55 57.6 -38.85 L57.6 -38.4 57.55 -38.95 Q57.2 -39.05 56.95 -39.25 L56.85 -39.35 56.6 -39.25 53.15 -38.55 43.05 -37.8 42.45 -37.9 42.2 -38.2 41.4 -38.35 40.4 -37.05 36.9 -32.7 Q35.25 -32.7 34.35 -37.45 L34.2 -38.4 34.15 -38.55 33.3 -41.25 Q32.85 -42.35 32.85 -43.75 L32.85 -44.05 Q32.9 -44.85 33.1 -45.5 L32.9 -46.95 33.2 -48.35 Q33.75 -49.3 35.0 -48.6 L34.9 -47.75 34.7 -47.1 35.25 -46.85 35.25 -46.0 35.1 -44.95 35.15 -44.25 35.35 -43.65 35.3 -43.55 Q35.6 -42.4 36.35 -40.8 L37.1 -38.7 37.15 -38.55 37.3 -38.15 37.55 -38.65 37.6 -38.75 38.2 -40.1 38.3 -40.2 38.75 -40.9 38.75 -41.0 39.0 -41.3 38.65 -41.8 37.9 -43.05 37.25 -43.6 36.1 -45.3 36.3 -46.15 Q37.15 -45.95 40.25 -43.2 L41.5 -42.05 42.35 -41.25 45.0 -44.55 45.5 -45.3 Q48.05 -49.1 49.35 -49.85 L49.4 -49.85 51.25 -52.05 56.05 -57.0 56.05 -57.2 56.55 -57.85 56.75 -58.2 56.9 -58.3 57.1 -58.0 Q57.3 -59.15 58.3 -58.6 L58.75 -58.3 58.5 -58.8 58.55 -58.8 59.2 -58.9 59.25 -58.95 59.35 -58.7 62.4 -59.15 62.45 -59.15 62.45 -59.25 62.45 -59.35 65.65 -59.35 69.35 -60.45 70.85 -60.6 72.05 -60.65 72.9 -61.45 70.25 -66.2 69.25 -68.0 67.2 -66.5 Q66.7 -65.95 65.65 -65.45 63.75 -64.6 61.6 -64.85 58.1 -65.2 56.5 -67.75 55.05 -69.8 55.35 -72.45 55.65 -75.35 58.0 -76.95 L58.25 -77.3 56.0 -76.9 50.45 -76.05 46.85 -75.6 46.85 -75.2 46.8 -74.9 Q47.4 -75.35 48.45 -74.3 48.05 -74.05 48.05 -72.85 48.05 -72.15 49.5 -70.4 L51.5 -68.0 53.05 -65.65 53.25 -65.15 Q55.2 -61.05 56.55 -58.85 L55.15 -60.4 51.4 -64.75 48.5 -68.25 47.45 -69.55 46.6 -70.95 Q45.85 -72.1 45.9 -72.6 L46.05 -73.55 44.1 -70.95 44.3 -70.3 44.3 -69.75 44.0 -67.65 44.1 -65.45 44.3 -63.55 44.3 -58.95 Q44.15 -55.25 43.35 -55.25 42.75 -55.25 41.85 -56.05 L40.5 -57.3 40.8 -53.2 40.8 -51.75 Q40.6 -50.75 39.4 -50.75 L38.55 -50.95 38.0 -51.3 37.95 -50.65 38.25 -48.9 38.55 -47.15 38.55 -46.8 38.3 -46.4 37.9 -46.25 37.65 -46.25 36.9 -46.35 36.75 -46.5 36.6 -48.0 36.5 -48.5 Q36.9 -48.55 36.9 -48.75 L36.95 -49.85 36.7 -53.65 37.1 -53.7 37.8 -53.4 38.4 -53.0 38.5 -53.0 39.15 -52.8 39.15 -53.35 39.2 -53.4 39.5 -57.75 39.45 -59.6 39.45 -59.65 39.9 -59.75 Q40.5 -59.75 41.45 -58.9 L42.65 -57.8 42.6 -64.7 42.45 -68.1 42.45 -68.5 42.5 -69.0 38.55 -64.25 36.05 -60.85 Q36.15 -60.65 35.85 -60.55 L34.8 -58.85 33.95 -57.3 33.25 -56.25 33.15 -56.15 Q32.6 -55.55 31.8 -55.35 L30.3 -55.1 29.7 -55.4 29.55 -55.75 31.7 -59.2 32.1 -59.9 33.65 -61.75 34.2 -62.35 Q33.3 -64.65 32.05 -69.7 L29.95 -78.7 30.2 -80.25 30.25 -80.5 30.7 -80.6 30.75 -80.6 31.6 -80.45 Q33.7 -79.95 38.15 -77.75 42.1 -75.9 43.6 -74.65 L45.9 -77.4 46.05 -77.25 Q47.25 -78.25 52.7 -79.25 L61.3 -80.35 61.75 -80.35 62.3 -79.95 62.4 -79.8 62.65 -79.8 M69.65 -73.55 L71.8 -75.2 71.7 -75.4 71.85 -75.9 72.4 -76.9 Q72.0 -77.0 71.95 -77.15 L61.05 -75.8 Q59.6 -75.5 58.8 -74.85 L58.7 -74.4 Q58.2 -73.8 58.1 -72.9 57.95 -71.3 58.4 -70.05 L58.6 -69.5 58.6 -69.2 59.5 -68.45 59.55 -68.45 Q60.3 -67.95 61.4 -67.9 L62.0 -67.85 62.15 -67.5 62.35 -67.3 63.2 -67.1 67.05 -70.85 69.65 -73.55 M72.2 -29.25 L73.1 -30.05 75.95 -30.45 76.0 -30.4 76.05 -30.4 76.05 -30.5 72.65 -34.6 71.7 -35.75 69.15 -38.9 69.1 -38.95 68.8 -39.25 67.9 -40.6 67.55 -41.25 66.05 -42.95 63.3 -46.3 61.25 -49.2 61.25 -49.25 61.1 -49.4 60.8 -49.4 60.7 -49.5 60.4 -50.0 59.9 -50.4 59.5 -50.4 58.95 -50.4 58.25 -50.2 57.85 -49.55 57.75 -49.5 Q56.85 -49.4 56.25 -48.6 55.65 -47.9 55.35 -46.95 L55.45 -46.95 55.7 -47.0 55.6 -46.45 57.05 -44.15 Q58.3 -42.5 59.3 -42.05 L61.5 -39.3 63.15 -37.3 64.35 -35.85 65.25 -35.0 65.3 -34.95 66.2 -33.7 68.35 -31.25 Q70.05 -28.8 71.15 -27.85 L72.15 -28.05 72.3 -29.1 72.2 -29.25 M55.85 -55.05 Q53.95 -53.65 51.95 -50.2 L48.8 -46.1 47.5 -44.3 45.1 -41.15 47.65 -41.55 54.3 -41.9 53.75 -42.6 53.35 -43.2 Q53.2 -43.7 53.35 -44.3 53.35 -44.85 53.5 -45.25 L53.45 -45.65 Q53.45 -46.6 56.4 -51.3 L60.8 -52.4 62.85 -51.35 Q64.85 -50.4 65.45 -50.4 L65.5 -50.4 68.15 -54.3 70.65 -57.5 69.85 -58.2 63.4 -58.2 62.95 -58.3 Q58.9 -58.5 57.75 -57.4 56.9 -55.85 55.85 -55.05 M34.05 -75.65 L35.0 -72.3 35.95 -69.25 36.65 -66.5 37.05 -67.15 41.45 -72.2 33.6 -76.65 34.05 -75.65 M34.45 -69.0 L33.9 -71.1 33.9 -71.15 34.45 -69.0 M29.2 -29.25 L28.8 -29.1 26.25 -27.85 26.2 -27.65 25.8 -27.55 Q24.65 -27.1 24.35 -26.0 L23.1 -22.5 21.45 -18.9 21.15 -18.1 20.55 -17.3 19.8 -16.55 19.7 -16.55 Q19.3 -16.7 19.2 -16.8 18.95 -17.05 18.95 -17.6 L19.0 -17.8 19.4 -18.55 19.1 -18.55 17.15 -18.55 16.7 -18.7 16.25 -18.85 16.65 -18.25 16.6 -17.7 16.65 -17.6 17.45 -16.35 Q18.85 -14.1 19.95 -12.85 L20.3 -12.85 20.45 -12.85 23.5 -12.85 25.05 -13.2 25.55 -13.0 25.7 -13.05 25.9 -13.05 26.15 -13.15 Q26.5 -13.75 27.1 -13.7 L28.55 -15.25 29.3 -15.9 29.75 -15.9 32.45 -17.7 34.6 -19.55 34.75 -19.55 34.75 -19.15 Q34.75 -18.5 32.6 -16.25 L34.0 -16.95 35.75 -18.85 36.55 -19.6 37.0 -19.15 37.1 -19.05 37.1 -18.9 36.65 -17.45 36.0 -16.45 35.9 -16.25 37.4 -15.4 Q37.95 -14.8 38.95 -14.1 L40.1 -12.95 41.8 -11.45 41.3 -11.4 Q40.3 -11.4 36.15 -14.3 L34.35 -14.75 34.1 -15.05 32.8 -14.35 32.6 -14.25 32.65 -14.2 33.4 -13.5 33.4 -13.4 33.35 -12.85 33.7 -12.6 35.35 -11.1 Q36.4 -10.4 38.3 -9.6 L39.15 -8.85 39.2 -8.9 39.85 -9.3 Q40.85 -9.9 41.65 -9.65 41.8 -9.9 41.8 -9.15 L39.8 -7.6 39.2 -7.0 38.5 -6.1 38.35 -5.9 Q38.1 -6.0 38.05 -6.05 L38.0 -6.15 Q33.6 -7.3 31.5 -8.85 30.35 -9.45 29.4 -10.15 L29.8 -10.9 29.9 -11.4 30.55 -12.95 30.8 -13.3 30.05 -12.8 28.0 -11.5 27.9 -10.55 27.75 -9.2 27.7 -7.55 27.4 -6.0 28.05 -5.85 28.05 -5.65 Q28.05 -5.35 29.45 -4.1 30.35 -3.3 31.05 -2.95 L31.05 -2.9 30.95 -2.1 30.2 -1.75 29.8 -1.95 Q29.4 -1.3 29.4 -0.25 L29.75 4.2 Q29.75 4.95 30.1 5.75 L30.1 6.8 30.65 6.9 31.1 7.05 31.3 7.1 Q33.4 7.65 34.95 8.4 L36.35 9.1 36.4 9.15 36.9 9.25 37.0 9.25 37.2 9.35 37.6 9.55 38.7 10.15 39.1 10.5 38.9 10.05 38.85 9.55 38.95 8.45 Q39.5 5.5 43.25 5.65 L43.9 5.7 43.9 5.85 44.05 6.1 44.65 6.2 45.25 6.15 45.55 6.5 46.7 8.0 47.4 8.25 47.65 8.85 47.65 9.5 47.6 9.6 47.7 9.55 48.35 9.55 54.5 5.9 54.6 5.8 55.05 5.4 55.3 4.9 55.3 4.75 55.3 4.7 55.3 4.6 55.3 4.5 55.05 3.65 54.95 1.75 54.95 1.6 55.0 1.1 54.95 1.1 54.95 -0.35 55.05 -2.45 54.9 -2.35 54.15 -2.45 54.0 -2.55 56.75 -6.15 Q57.25 -6.65 57.25 -6.9 L57.15 -8.0 57.25 -9.2 56.75 -12.85 56.6 -13.75 54.25 -14.6 53.6 -15.7 53.6 -15.85 53.35 -16.0 50.1 -13.65 Q46.7 -11.5 45.75 -11.1 L45.5 -11.4 45.9 -11.9 46.8 -13.35 48.4 -14.65 48.95 -15.1 Q50.65 -16.3 51.85 -16.8 L51.6 -16.95 50.8 -17.45 50.05 -19.25 49.9 -19.55 50.85 -18.8 Q52.35 -17.6 53.05 -17.6 53.6 -17.6 53.75 -17.9 L53.85 -18.15 Q55.1 -17.65 55.9 -17.0 56.45 -17.45 58.45 -16.35 L59.3 -15.9 61.0 -14.8 60.95 -14.8 61.05 -14.3 61.35 -14.0 62.1 -13.85 63.6 -14.0 63.8 -13.85 64.75 -13.85 65.1 -14.0 66.55 -14.5 67.05 -14.95 Q67.2 -15.55 67.85 -16.4 L69.35 -18.5 69.95 -19.85 67.55 -18.9 67.4 -18.9 67.7 -17.85 67.6 -17.05 67.5 -16.9 66.85 -16.8 Q66.55 -16.8 66.25 -17.1 L66.0 -17.1 Q65.65 -17.1 64.1 -20.1 L61.65 -24.9 60.6 -26.95 60.2 -27.7 60.05 -27.75 59.95 -27.7 Q59.35 -28.25 59.05 -28.1 L58.95 -28.15 58.55 -28.35 56.35 -29.25 54.9 -29.65 54.4 -29.55 54.25 -29.6 53.1 -28.4 52.95 -28.2 52.85 -28.05 52.55 -27.85 51.5 -26.45 50.55 -24.7 49.55 -21.95 48.75 -20.65 47.9 -20.0 47.35 -18.55 46.8 -18.8 Q46.55 -18.95 46.55 -19.5 46.55 -19.9 46.9 -20.8 L46.9 -21.0 47.2 -22.25 46.55 -22.25 46.0 -22.6 41.55 -22.4 41.35 -22.4 40.15 -22.05 39.4 -21.9 39.6 -21.45 39.8 -20.6 39.45 -20.25 39.35 -19.5 38.6 -19.25 38.4 -19.45 38.5 -19.75 38.0 -20.55 36.45 -22.95 35.0 -24.95 32.8 -28.0 32.5 -28.1 32.35 -28.25 31.25 -30.05 30.5 -29.85 30.3 -29.8 29.2 -29.25 M8.35 -5.9 Q11.55 -7.15 12.35 -7.1 L12.5 -6.55 11.4 -5.5 Q10.05 -4.65 6.95 -3.25 L3.4 -1.7 0.6 -0.6 -0.15 -1.5 Q-0.15 -2.35 5.65 -4.8 L8.35 -5.9 M32.05 -11.35 L32.35 -10.7 32.1 -10.45 32.3 -10.35 33.55 -9.9 35.95 -8.7 34.55 -9.9 32.85 -11.5 32.05 -11.35 M33.55 -1.2 L33.6 -1.15 33.8 -1.2 34.15 -1.65 35.45 -2.8 35.7 -3.1 36.5 -3.2 36.85 -2.6 Q37.55 -1.5 38.2 -1.2 L38.7 -0.2 39.5 -0.1 40.3 -0.8 40.55 -0.7 40.95 -1.15 41.4 -0.5 41.15 -0.35 42.25 0.8 43.3 1.6 43.95 1.45 44.05 1.2 45.85 -0.05 46.55 -0.6 46.8 -0.4 47.35 0.25 Q47.95 0.0 49.0 -1.8 L49.2 -2.1 49.7 -2.1 50.65 -2.2 50.85 -2.0 Q51.7 -1.15 52.45 -1.15 L52.8 -1.15 52.9 -1.05 53.75 -1.25 53.9 -0.5 53.7 -0.1 53.9 0.1 53.9 0.3 Q53.4 0.45 51.9 1.6 L51.5 1.95 51.4 2.0 49.1 2.8 Q46.05 4.0 44.55 4.85 L44.2 4.85 43.95 4.85 43.55 4.8 43.5 4.7 43.25 4.55 43.2 4.45 43.05 4.5 37.0 2.85 36.9 2.85 35.3 2.1 34.65 1.65 34.4 1.55 34.1 1.6 33.45 1.55 33.4 1.45 33.15 1.25 33.1 0.95 32.2 0.45 31.05 -0.45 Q31.7 -1.75 33.55 -1.2 M39.6 -3.6 L39.55 -3.7 41.0 -3.7 41.3 -3.4 42.35 -2.75 43.3 -2.75 44.95 -4.0 45.3 -4.1 45.6 -4.1 46.4 -4.25 46.55 -3.65 Q46.55 -3.2 45.2 -1.8 L43.95 -0.5 Q43.75 0.0 43.05 0.0 42.5 0.0 41.3 -1.15 L40.2 -2.35 40.2 -2.8 40.25 -2.8 39.6 -3.6 M65.05 -47.25 L65.35 -47.2 65.3 -47.5 65.3 -47.65 65.05 -47.25 M75.2 -27.6 L75.0 -27.6 Q74.5 -27.45 74.35 -27.3 L73.9 -26.7 72.05 -24.5 72.1 -24.3 71.9 -23.85 71.7 -23.65 71.4 -22.75 71.25 -22.6 70.9 -22.25 71.1 -22.05 71.35 -22.1 71.55 -22.2 Q71.65 -22.15 71.85 -22.05 L72.05 -22.05 72.2 -22.0 72.35 -21.95 72.45 -21.4 72.45 -21.35 72.45 -21.25 72.0 -19.75 72.0 -19.25 Q71.2 -17.9 71.2 -15.4 71.2 -13.5 71.5 -13.15 L72.45 -12.5 72.45 -12.75 Q72.45 -15.75 74.2 -18.65 L75.1 -19.9 75.1 -19.95 Q75.1 -20.5 77.7 -22.15 78.3 -22.7 80.1 -23.65 L81.1 -24.15 83.25 -24.8 83.45 -24.7 83.45 -24.15 Q83.45 -23.8 83.05 -23.35 L81.15 -21.95 80.7 -21.65 79.3 -20.9 76.8 -19.3 76.6 -18.55 76.6 -18.45 75.85 -17.6 75.85 -17.55 75.85 -17.05 75.45 -10.45 75.55 -10.4 78.55 -8.25 78.5 -8.6 Q78.5 -11.5 81.05 -15.4 L81.75 -16.35 86.95 -18.1 87.15 -17.6 86.45 -16.65 83.8 -14.95 83.6 -14.95 82.5 -13.45 Q81.4 -11.5 81.1 -10.45 80.8 -9.5 80.8 -7.9 L80.7 -7.15 82.1 -6.7 Q83.05 -7.3 84.4 -7.55 L85.95 -7.7 90.05 -11.85 91.7 -12.65 Q92.8 -13.15 93.0 -13.85 L93.15 -14.65 93.0 -14.95 91.55 -18.5 88.8 -23.0 87.8 -25.3 87.65 -25.6 87.6 -25.6 86.45 -25.45 84.1 -26.0 78.8 -27.05 78.5 -27.0 Q78.35 -27.0 78.15 -27.15 L75.2 -27.6 M80.05 -29.45 L85.0 -28.8 Q84.45 -29.65 84.0 -31.2 L83.75 -32.1 82.35 -35.75 Q80.45 -32.5 78.9 -30.75 L80.05 -29.45 M54.25 -13.5 L54.75 -14.2 55.65 -13.5 55.65 -9.25 Q55.55 -8.5 52.65 -7.1 L49.1 -5.45 48.75 -5.6 47.85 -5.45 Q47.55 -5.45 46.2 -6.8 L44.85 -8.3 44.85 -8.8 45.0 -9.0 45.9 -8.95 46.0 -8.45 46.15 -8.35 48.9 -10.3 50.6 -11.35 52.6 -12.55 53.45 -13.3 54.25 -13.5 M48.6 -7.4 L50.5 -8.5 Q52.3 -9.4 53.55 -9.7 L53.55 -11.3 48.55 -7.65 48.25 -7.45 48.4 -7.3 48.6 -7.4 M49.85 -1.25 L49.6 -0.55 49.5 -0.45 48.85 0.85 48.9 1.3 49.1 1.2 51.1 0.05 50.25 -0.7 49.85 -1.25 M68.75 -12.8 L68.5 -13.0 68.4 -13.1 68.3 -13.2 68.3 -13.15 68.55 -12.8 Q68.3 -12.55 67.3 -12.25 L66.9 -12.1 Q67.45 -12.05 67.8 -11.65 68.4 -11.0 68.35 -9.4 L68.3 -4.5 68.3 -4.3 68.3 -4.15 68.3 -3.55 68.6 -3.2 68.8 -3.45 Q70.15 -1.6 73.65 0.15 L73.5 0.4 73.45 0.45 73.85 0.6 Q74.15 0.85 75.2 1.35 L77.45 2.35 78.0 2.6 78.5 3.3 Q79.5 4.4 81.4 4.4 L82.0 4.4 83.9 4.4 84.5 3.85 84.85 3.85 85.75 2.25 86.2 1.6 86.2 1.5 86.75 0.25 86.75 0.2 87.0 0.15 87.3 0.25 87.6 0.35 87.8 0.6 Q88.1 0.65 88.2 1.6 88.55 1.7 89.0 2.25 L89.15 3.4 89.25 3.9 Q89.75 3.45 89.95 3.45 L90.3 3.45 90.8 3.5 90.9 4.1 Q91.1 4.65 92.55 4.85 L97.55 5.0 100.8 4.85 101.1 4.65 101.15 4.6 101.4 4.55 101.4 4.4 101.55 3.55 101.5 2.95 98.9 2.75 97.7 3.0 96.55 1.9 96.55 1.15 96.45 0.95 Q96.1 0.1 96.1 -0.45 96.1 -1.75 97.1 -2.85 L97.9 -3.45 98.0 -4.15 98.2 -4.2 Q98.25 -4.65 98.65 -4.95 L97.65 -6.05 97.65 -6.1 Q96.7 -6.55 96.25 -6.75 93.3 -7.95 92.25 -8.85 L89.7 -7.35 88.4 -4.85 88.1 -4.4 Q87.4 -3.5 86.55 -3.25 L86.35 -3.05 Q86.15 -2.9 85.95 -2.85 L83.6 -3.0 81.25 -4.25 Q78.05 -4.95 74.3 -7.45 69.85 -10.45 69.35 -12.4 L69.05 -12.6 68.75 -12.8 M68.85 -15.4 L69.05 -15.95 68.65 -15.4 68.85 -15.35 68.85 -15.4 M101.65 12.7 L101.75 12.6 101.85 12.45 Q100.15 12.05 99.05 10.8 L98.35 10.85 98.25 11.95 Q98.25 13.0 98.95 13.8 L100.1 14.9 100.1 14.95 100.25 15.15 100.25 15.25 100.7 15.5 102.35 15.75 104.0 15.9 105.4 15.7 107.35 15.2 108.1 14.6 108.15 14.6 108.9 13.85 109.1 13.6 109.8 12.6 109.75 12.55 110.25 11.7 110.4 11.4 110.5 11.25 111.0 9.7 111.3 6.9 111.1 5.6 110.85 4.3 Q110.45 3.2 109.1 1.25 108.5 0.4 105.9 -1.2 104.45 -2.1 102.35 -2.4 L100.75 -2.45 99.8 -2.2 98.95 -2.1 Q98.8 -1.8 98.8 -1.2 L98.9 -0.45 Q98.95 -0.05 99.15 0.2 L99.8 1.0 100.75 1.0 Q100.95 1.3 101.7 1.45 103.5 1.7 104.3 2.1 L105.55 3.1 106.55 4.25 107.45 5.45 Q107.9 6.9 107.9 8.6 L107.9 9.45 107.55 10.1 Q107.25 11.4 105.75 12.85 L104.25 14.05 102.85 14.05 Q102.0 14.05 100.9 13.5 L101.7 13.3 102.6 12.9 101.65 12.7 M104.55 4.8 L104.3 5.7 103.85 6.35 103.9 6.45 103.85 7.05 Q103.3 7.45 102.05 7.65 L101.85 7.65 101.25 7.5 100.6 7.65 100.5 7.65 100.55 7.7 100.4 7.8 Q100.5 9.1 101.85 9.75 L103.8 9.75 104.75 9.1 105.6 7.2 105.6 7.1 105.6 7.05 Q105.6 6.1 104.75 5.0 L104.6 4.8 104.55 4.8 M69.55 2.85 L69.45 3.1 68.9 4.9 73.95 4.95 75.25 4.6 75.7 4.45 76.2 4.1 75.25 3.7 75.0 3.6 Q74.3 3.25 73.95 2.7 L72.45 1.95 70.15 0.9 69.55 2.85 M62.0 20.3 L61.75 19.6 57.95 22.85 57.4 23.5 54.3 26.65 53.95 27.0 52.6 28.05 Q52.95 29.65 52.95 33.8 L52.9 36.8 54.3 37.45 55.75 38.1 56.7 38.1 57.5 38.1 Q58.6 37.75 59.95 36.8 L61.05 36.05 61.1 35.95 62.3 32.8 62.75 31.5 63.45 28.5 63.45 28.2 63.9 28.0 63.75 27.45 63.6 25.25 63.2 23.95 62.8 23.0 62.8 22.9 62.75 22.75 62.55 22.2 Q62.2 21.3 62.15 20.6 L62.0 20.3 M46.5 1.55 L46.05 0.8 45.15 2.5 Q45.7 2.25 46.8 1.95 L46.5 1.55 M41.15 2.3 L40.3 0.65 39.25 1.5 41.2 2.35 41.15 2.3 M40.65 11.8 L40.85 12.0 44.25 15.7 Q44.8 15.5 45.95 15.7 L46.1 15.75 45.5 14.6 45.55 14.3 45.5 14.1 45.5 12.35 45.8 10.4 44.95 9.3 Q44.2 7.9 43.65 7.5 L43.5 7.4 42.05 7.4 41.3 7.85 40.7 8.55 40.55 9.0 40.55 9.1 40.5 9.15 40.4 10.9 39.95 11.1 40.65 11.8 M56.25 42.4 Q55.2 42.4 53.95 41.55 L53.3 45.55 53.35 46.65 53.35 47.9 53.75 47.85 Q54.45 47.85 54.85 48.45 L56.4 49.95 57.1 48.65 57.6 48.0 57.6 47.3 57.55 46.95 57.7 46.4 58.6 41.7 Q58.25 41.85 58.05 41.95 L56.25 42.4 M36.7 0.15 Q36.35 -0.65 36.15 -1.35 L35.2 0.05 36.85 0.5 36.7 0.15 M27.4 18.0 L27.05 17.4 26.0 22.0 24.8 26.7 24.6 26.8 25.45 28.35 26.0 29.5 Q26.5 30.7 26.6 31.45 L27.4 34.5 28.15 35.0 30.4 37.1 31.05 37.2 Q32.55 37.2 34.15 35.8 L35.1 35.05 35.1 33.45 35.2 27.7 32.2 24.55 32.1 24.4 Q29.4 21.25 28.1 18.75 L27.85 18.6 27.4 18.0 M14.85 6.15 L14.6 6.3 15.0 6.55 15.0 6.25 15.05 6.05 14.85 6.15 M16.6 12.6 L16.45 12.05 16.25 11.9 Q16.2 11.1 15.65 10.25 L11.7 8.2 9.45 6.95 Q1.05 2.35 -4.95 0.25 L-5.1 0.2 -5.4 0.0 -5.45 0.1 -5.5 0.4 -5.5 0.85 -5.5 0.95 -6.25 1.85 -6.35 1.95 Q-7.4 2.75 -8.25 4.15 L-8.35 4.25 -10.55 9.0 -12.9 14.1 -13.25 15.0 -14.65 17.65 -15.0 18.35 -14.35 19.0 -14.15 19.2 -12.65 20.75 -12.5 20.9 -11.25 21.8 -10.75 22.3 -10.2 22.35 Q-9.7 22.35 -9.3 21.95 L-9.2 21.85 -9.1 21.95 -8.9 21.45 -8.9 21.4 -8.2 19.2 -7.4 16.65 -7.5 16.0 Q-7.5 13.25 -5.3 12.3 -3.35 11.45 -0.5 12.3 2.35 13.15 4.3 15.25 6.5 17.55 6.5 20.4 6.5 24.75 3.5 24.75 L2.8 24.6 2.7 24.45 2.6 24.3 2.55 24.35 2.5 24.4 -2.0 27.8 -2.2 27.95 -0.1 27.95 -0.1 27.8 Q-0.1 27.45 0.5 27.0 L0.95 26.7 4.55 27.2 8.1 27.55 8.2 27.55 10.75 27.6 10.95 27.6 13.0 27.4 14.05 27.25 13.7 26.9 13.6 26.5 13.9 25.95 14.05 25.85 14.25 25.6 14.3 25.2 14.65 22.8 15.45 18.8 15.95 16.55 16.9 13.7 17.15 13.1 16.6 12.6 M2.95 18.9 L2.2 17.55 1.95 17.15 Q0.35 15.1 -2.05 15.1 L-3.95 15.35 -4.25 15.75 -3.9 16.1 -3.95 16.75 Q-4.15 17.85 -4.9 20.1 L-6.15 23.75 -6.95 27.45 -7.65 29.5 -3.4 26.3 3.0 21.3 3.4 20.8 Q3.4 19.9 2.95 18.9 M10.5 35.95 L11.3 36.0 11.5 36.0 Q12.4 34.55 13.9 30.05 L13.95 29.85 13.55 29.9 5.7 30.15 3.8 30.05 1.5 29.9 1.1 29.9 -2.85 29.55 -3.3 29.1 -3.45 28.8 -6.65 30.9 -9.2 32.45 -9.9 32.3 -10.15 32.0 -10.2 31.5 -9.2 30.7 -9.65 30.25 -9.55 29.85 -9.0 27.6 -9.35 27.7 -10.15 26.95 -10.2 26.15 -11.75 26.7 -12.1 28.9 -12.25 29.9 -12.75 32.85 -13.0 34.95 Q-13.0 35.75 -11.55 36.8 L-11.4 36.8 -11.35 36.8 Q-6.65 39.1 -5.35 39.45 L-5.25 39.5 Q-4.2 39.85 -2.2 40.75 -0.25 41.55 1.6 41.55 2.4 41.55 3.7 40.25 L5.15 38.65 5.85 37.8 5.85 37.75 5.7 37.7 3.65 37.45 3.05 37.25 2.95 37.1 Q2.8 36.85 2.8 36.4 L2.8 35.85 2.95 35.6 3.1 35.55 2.7 35.2 Q2.7 34.35 3.1 34.3 L4.3 34.6 4.65 34.7 Q7.5 35.7 10.5 35.95 M34.95 46.5 Q34.7 45.85 34.6 45.05 L34.4 41.7 33.85 41.95 33.3 41.85 32.7 41.95 31.65 41.6 30.45 41.45 30.6 43.05 30.65 43.35 31.7 47.65 33.1 48.2 Q34.15 48.2 34.35 46.9 L34.55 46.85 34.7 46.85 34.95 46.6 34.95 46.5 M31.1 49.05 L30.45 49.05 30.25 50.3 29.9 51.1 29.7 51.55 29.2 53.1 30.6 53.55 Q33.1 54.45 34.35 55.55 L34.4 54.85 34.3 54.15 34.1 54.15 34.1 53.85 34.35 53.25 35.25 52.3 Q36.2 52.9 36.4 54.25 L36.45 55.1 37.15 55.05 37.2 55.1 37.85 54.85 Q39.3 54.3 40.1 54.2 L40.15 53.6 40.15 53.5 38.85 51.85 36.65 48.65 36.25 48.9 36.05 48.65 35.45 48.7 33.95 49.95 Q32.2 49.85 31.35 49.25 L31.1 49.05 M51.95 50.5 L51.6 52.15 51.2 54.15 52.6 54.65 56.4 56.1 56.25 54.6 Q56.25 52.25 57.45 53.15 58.45 53.95 58.6 55.95 L59.2 55.9 Q60.1 55.35 61.35 54.7 L61.35 54.65 61.7 54.2 59.6 51.15 58.9 49.85 58.85 49.9 Q58.3 51.55 57.45 51.9 55.9 51.85 54.7 51.05 L54.5 51.15 53.0 50.2 52.6 49.85 52.55 50.3 52.4 50.3 52.0 50.15 51.95 50.5 M50.95 55.6 L51.1 55.6 50.95 55.5 50.95 55.6" fill="#58411e" fill-rule="evenodd" stroke="none"/>
    <path d="M114.0 -53.7 L117.35 -51.9 121.7 -48.95 105.9 -39.45 104.9 -40.3 Q104.1 -40.45 103.45 -40.75 L102.2 -41.55 102.4 -41.9 102.2 -41.95 101.25 -42.15 101.25 -42.35 101.3 -42.4 101.35 -42.5 101.75 -43.05 102.2 -43.4 102.3 -43.65 106.4 -47.0 114.0 -53.7 M103.95 -42.8 L104.4 -43.15 103.9 -42.8 103.95 -42.8 M115.5 -14.05 L115.7 -14.55 116.55 -15.85 116.85 -16.35 Q117.05 -16.85 117.55 -17.05 L117.55 -17.1 118.5 -17.25 120.55 -17.0 133.75 -16.7 133.35 -14.55 132.9 -14.55 133.25 -14.1 132.95 -13.65 131.95 -8.55 131.85 -8.55 131.75 -8.6 129.25 -9.2 128.3 -9.45 126.5 -9.95 125.2 -10.35 121.0 -11.65 120.55 -11.8 119.0 -12.2 118.1 -12.4 118.0 -12.35 115.75 -13.1 115.7 -13.3 Q115.7 -13.65 116.05 -14.1 L115.5 -14.05 M102.1 24.1 L102.3 23.8 102.35 23.75 102.45 23.65 Q102.65 23.35 102.95 23.25 L102.75 23.45 102.15 24.1 102.1 24.1 M103.8 23.1 L104.5 23.2 119.55 30.5 117.3 33.75 115.55 35.4 112.65 33.75 112.05 33.4 109.85 32.1 107.15 30.45 103.35 28.05 103.25 27.75 102.15 27.0 102.85 25.9 103.55 25.0 103.55 24.95 103.7 24.6 103.7 24.35 103.9 23.7 103.8 23.1 M-8.85 -46.5 L-9.05 -46.4 -8.9 -46.25 Q-9.1 -45.75 -10.45 -44.7 L-10.9 -44.35 -11.1 -44.0 -13.25 -42.3 -27.75 -51.55 -26.2 -53.35 -24.5 -56.1 -24.25 -56.45 -24.05 -56.3 -24.35 -56.8 -23.5 -57.75 -24.55 -59.35 -18.1 -53.95 -17.05 -53.2 -16.95 -53.15 -16.9 -53.1 -14.55 -51.25 -14.45 -51.1 -9.0 -46.75 -8.85 -46.5 M-51.1 -32.6 L-50.95 -32.55 -51.0 -32.5 -51.1 -32.6 M-49.1 -31.9 L-48.3 -31.6 -39.9 -28.45 -36.85 -27.35 -36.75 -27.35 -31.55 -25.7 -31.5 -25.7 -29.3 -24.95 -28.35 -24.6 -28.2 -24.55 -20.1 -21.65 -19.6 -21.4 -19.0 -20.9 -19.35 -20.3 -19.8 -19.25 -19.95 -19.3 -21.2 -16.35 -50.5 -24.45 -49.35 -27.7 -48.75 -28.6 Q-47.65 -30.35 -47.65 -30.8 -47.65 -31.3 -48.15 -31.5 L-48.7 -31.55 -49.1 -31.9 M-18.2 -19.05 L-18.2 -18.95 -18.3 -18.7 -18.3 -18.65 -18.4 -18.7 -18.2 -19.05 M-52.25 -31.6 L-52.2 -31.9 -52.0 -31.5 -52.25 -31.6 M-34.15 14.1 L-34.2 14.6 -33.95 15.25 -33.5 15.8 -33.55 15.9 -33.55 16.05 -33.25 15.95 -31.85 17.85 -42.65 26.7 -44.55 23.7 -45.2 22.7 -45.45 22.75 -45.95 21.75 Q-46.45 20.95 -47.05 21.1 L-47.1 21.15 -46.6 20.6 -46.55 20.6 -46.45 20.55 -44.05 19.15 -43.95 19.1 -39.05 16.55 -38.2 16.1 -37.35 15.65 -34.75 14.25 -34.15 14.1 M-48.2 22.0 L-48.3 22.05 -48.35 22.1 -48.2 22.0 M-49.15 22.5 L-49.35 22.75 -49.35 22.8 -49.45 22.65 -49.15 22.5" fill="#bdbdbd" fill-rule="evenodd" stroke="none"/>
    <path d="M106.25 18.05 L106.95 17.85 106.6 18.0 106.25 18.05 M101.25 -42.15 L102.2 -41.95 102.4 -41.9 102.2 -41.55 103.45 -40.75 Q104.1 -40.45 104.9 -40.3 L105.9 -39.45 121.7 -48.95 117.35 -51.9 114.0 -53.7 116.8 -56.2 125.6 -49.95 123.4 -48.55 123.35 -48.45 123.35 -48.35 122.65 -47.65 106.85 -38.15 106.9 -38.15 Q106.4 -37.8 105.85 -37.85 L105.75 -37.85 Q105.15 -37.9 104.7 -38.3 L104.65 -38.3 102.95 -39.8 102.0 -39.75 101.05 -40.45 Q100.4 -41.0 100.4 -41.3 L100.45 -41.95 100.65 -42.2 101.25 -42.15 M103.95 -42.8 L103.9 -42.8 104.4 -43.15 103.95 -42.8 M115.5 -14.05 L116.05 -14.1 Q115.7 -13.65 115.7 -13.3 L115.75 -13.1 118.0 -12.35 118.1 -12.4 119.0 -12.2 120.55 -11.8 121.0 -11.65 125.2 -10.35 126.5 -9.95 128.3 -9.45 129.25 -9.2 131.75 -8.6 131.85 -8.55 131.95 -8.55 132.95 -13.65 133.25 -14.1 132.9 -14.55 133.35 -14.55 133.75 -16.7 137.7 -16.65 134.15 -5.9 130.95 -7.1 128.85 -7.55 128.25 -7.7 126.1 -8.3 126.0 -8.35 125.2 -8.6 122.5 -9.45 121.0 -9.9 120.15 -10.2 116.8 -11.0 116.1 -11.35 116.05 -11.4 115.65 -11.95 115.6 -12.05 115.55 -12.2 115.5 -12.3 115.45 -12.6 115.45 -12.65 115.35 -13.1 115.4 -13.15 115.4 -13.2 Q115.35 -13.45 115.45 -13.7 L115.5 -14.05 M102.1 24.1 L102.15 24.1 102.75 23.45 102.95 23.25 Q103.6 22.7 103.8 23.1 L103.9 23.7 103.7 24.35 103.7 24.6 103.55 24.95 103.55 25.0 102.85 25.9 102.15 27.0 103.25 27.75 103.35 28.05 107.15 30.45 109.85 32.1 112.05 33.4 112.65 33.75 115.55 35.4 117.3 33.75 119.55 30.5 119.85 30.65 120.6 31.35 120.6 31.4 120.8 32.3 120.75 32.4 120.8 32.35 120.7 32.65 120.45 33.1 120.3 33.25 120.25 33.25 120.15 33.35 115.3 39.45 99.35 28.05 100.35 26.65 100.7 25.95 102.1 24.1 M-8.85 -46.5 L-8.2 -45.7 -7.55 -45.0 -8.3 -44.15 -8.6 -43.8 -8.65 -43.8 -12.15 -41.0 Q-12.6 -40.65 -13.1 -40.6 L-13.65 -40.65 -14.15 -40.85 -32.4 -52.1 -26.2 -59.05 -25.1 -60.0 -24.55 -59.35 -23.5 -57.75 -24.35 -56.8 -24.05 -56.3 -24.25 -56.45 -24.5 -56.1 -26.2 -53.35 -27.75 -51.55 -13.25 -42.3 -11.1 -44.0 -10.9 -44.35 -10.45 -44.7 Q-9.1 -45.75 -8.9 -46.25 L-9.05 -46.4 -8.85 -46.5 M-51.1 -32.6 L-51.0 -32.5 -50.95 -32.55 -50.3 -32.35 -49.1 -31.9 -48.7 -31.55 -48.15 -31.5 Q-47.65 -31.3 -47.65 -30.8 -47.65 -30.35 -48.75 -28.6 L-49.35 -27.7 -50.5 -24.45 -21.2 -16.35 -19.95 -19.3 -19.8 -19.25 -19.35 -20.3 -19.0 -20.9 Q-18.6 -21.45 -18.25 -21.3 -17.75 -21.1 -17.75 -20.2 L-18.2 -19.05 -18.4 -18.7 -18.3 -18.65 -19.6 -15.75 Q-19.65 -15.45 -19.85 -15.25 L-20.45 -14.8 Q-21.05 -14.55 -21.7 -14.8 L-54.8 -22.35 -52.25 -31.6 -52.0 -31.5 -52.2 -31.9 -52.2 -32.05 -52.15 -32.25 -51.9 -32.8 -51.1 -32.6 M-47.1 21.15 L-47.05 21.1 Q-46.45 20.95 -45.95 21.75 L-45.45 22.75 -45.2 22.7 -44.55 23.7 -42.65 26.7 -31.85 17.85 -33.25 15.95 -33.55 16.05 -33.55 15.9 -33.5 15.8 -33.95 15.25 -34.2 14.6 -34.15 14.1 Q-34.05 13.1 -33.25 13.7 L-32.05 15.6 -30.25 18.2 -30.25 18.3 -29.55 19.25 -42.3 29.65 -43.5 31.0 -49.1 23.1 -49.3 23.05 -49.35 22.8 -49.35 22.75 -49.15 22.5 -48.35 22.1 -48.3 22.05 -48.2 22.0 -47.7 21.55 -47.1 21.15" fill="#868686" fill-rule="evenodd" stroke="none"/>
    <path d="M32.05 -11.35 L32.85 -11.5 34.55 -9.9 35.95 -8.7 33.55 -9.9 32.3 -10.35 32.1 -10.45 32.35 -10.7 32.05 -11.35 M48.55 -7.65 L53.55 -11.3 53.55 -9.7 Q52.3 -9.4 50.5 -8.5 L48.6 -7.4 48.55 -7.65" fill="#6d532b" fill-rule="evenodd" stroke="none"/>
    <path d="M33.15 -56.15 L33.25 -56.25 33.95 -57.3 Q35.5 -59.45 39.2 -63.5 L42.0 -67.5 42.45 -68.1 42.6 -64.7 42.65 -57.8 41.45 -58.9 Q40.5 -59.75 39.9 -59.75 L39.45 -59.65 Q39.3 -60.65 38.7 -61.05 37.9 -60.4 37.7 -58.0 L37.65 -54.4 37.7 -53.7 37.8 -53.4 37.1 -53.7 36.7 -53.65 Q36.45 -55.3 35.85 -55.95 35.3 -55.7 35.15 -54.6 L35.1 -52.9 35.1 -50.6 35.15 -50.1 35.0 -50.35 Q32.55 -53.1 32.6 -53.25 L32.65 -53.6 32.55 -53.7 Q32.3 -53.85 32.35 -54.45 L32.8 -54.95 32.8 -55.35 33.15 -56.15 M39.15 -53.35 L39.15 -52.8 38.5 -53.0 39.15 -53.35 M36.5 -48.5 L36.6 -48.0 36.25 -48.5 36.5 -48.5 M37.9 -46.25 L38.3 -46.4 38.55 -46.8 38.55 -47.15 38.25 -48.9 37.95 -50.65 38.0 -51.3 38.55 -50.95 39.4 -50.75 Q40.6 -50.75 40.8 -51.75 L40.8 -53.2 40.5 -57.3 41.85 -56.05 Q42.75 -55.25 43.35 -55.25 44.15 -55.25 44.3 -58.95 L44.3 -63.55 44.1 -65.45 44.0 -67.65 44.3 -69.75 44.3 -70.3 45.2 -71.1 46.6 -70.95 47.45 -69.55 48.5 -68.25 51.4 -64.75 55.15 -60.4 56.55 -58.85 56.9 -58.3 56.75 -58.2 56.55 -57.85 56.05 -57.2 56.05 -57.0 51.25 -52.05 49.4 -49.85 49.35 -49.85 Q48.05 -49.1 45.5 -45.3 L45.0 -44.55 42.35 -41.25 41.5 -42.05 41.5 -42.4 Q39.7 -44.0 37.9 -46.25 M50.45 -76.05 L56.0 -76.9 58.25 -77.3 58.0 -76.95 Q55.65 -75.35 55.35 -72.45 55.05 -69.8 56.5 -67.75 58.1 -65.2 61.6 -64.85 63.75 -64.6 65.65 -65.45 66.7 -65.95 67.2 -66.5 L69.25 -68.0 70.25 -66.2 72.9 -61.45 72.05 -60.65 70.85 -60.6 69.35 -60.45 70.25 -60.7 Q71.55 -60.95 71.55 -61.5 L71.45 -62.1 71.35 -62.2 69.1 -62.4 69.1 -62.3 64.7 -61.85 Q60.85 -61.4 59.5 -60.7 L59.5 -60.75 Q52.3 -76.75 51.95 -72.55 L51.95 -72.45 Q50.85 -73.75 50.55 -73.0 49.25 -74.5 48.65 -74.4 L49.0 -74.85 49.15 -74.7 49.25 -75.0 49.2 -75.2 50.45 -76.05 M62.45 -59.35 L62.45 -59.25 62.45 -59.15 62.4 -59.15 59.35 -58.7 59.25 -58.95 59.35 -59.05 59.45 -59.7 Q59.7 -59.45 60.0 -59.35 L62.45 -59.35 M37.25 -43.6 L37.9 -43.05 38.65 -41.8 39.0 -41.3 38.75 -41.0 38.75 -40.9 38.3 -40.2 38.2 -40.1 37.6 -38.75 37.55 -38.65 37.3 -38.15 37.15 -38.55 37.1 -38.7 36.35 -40.8 Q35.6 -42.4 35.3 -43.55 L35.35 -43.65 35.4 -43.85 Q36.4 -44.2 37.25 -43.6 M71.85 -75.9 L70.8 -75.1 70.75 -74.85 69.65 -73.55 67.05 -70.85 63.2 -67.1 62.35 -67.3 62.15 -67.5 62.0 -67.85 61.4 -67.9 Q60.3 -67.95 59.55 -68.45 L59.5 -68.45 58.6 -69.2 58.6 -69.5 58.4 -70.05 Q57.95 -71.3 58.1 -72.9 58.2 -73.8 58.7 -74.4 L58.8 -74.85 Q59.6 -75.5 61.05 -75.8 L71.95 -77.15 Q72.0 -77.0 72.4 -76.9 L71.85 -75.9 M55.7 -47.0 L55.45 -46.95 55.35 -46.95 Q55.65 -47.9 56.25 -48.6 56.85 -49.4 57.75 -49.5 L57.85 -49.55 58.25 -50.2 58.95 -50.4 59.5 -50.4 59.9 -50.4 60.4 -50.0 60.7 -49.5 60.8 -49.4 61.1 -49.4 61.25 -49.25 61.25 -49.2 63.3 -46.3 66.05 -42.95 67.55 -41.25 67.9 -40.6 68.8 -39.25 69.1 -38.95 69.15 -38.9 71.7 -35.75 72.65 -34.6 76.05 -30.5 76.05 -30.4 76.0 -30.4 75.95 -30.45 73.1 -30.05 72.2 -29.25 70.15 -32.55 68.8 -34.7 68.15 -35.9 66.25 -39.3 66.15 -39.4 Q64.6 -41.5 63.4 -41.3 L63.25 -41.15 63.2 -40.55 Q63.2 -40.3 63.55 -39.6 L60.9 -42.7 60.95 -43.15 59.9 -44.7 58.25 -46.65 Q57.35 -48.1 56.4 -47.75 L55.7 -47.0 M34.05 -75.65 L33.6 -76.65 41.45 -72.2 37.05 -67.15 36.65 -66.5 35.95 -69.25 35.0 -72.3 34.05 -75.65 M29.2 -29.25 L30.3 -29.8 30.5 -29.85 30.7 -29.45 31.55 -29.0 32.0 -28.4 32.35 -28.25 32.5 -28.1 32.8 -28.0 35.0 -24.95 36.45 -22.95 38.0 -20.55 37.75 -20.2 37.0 -19.15 36.55 -19.6 35.75 -18.85 34.0 -16.95 32.6 -16.25 Q34.75 -18.5 34.75 -19.15 L34.75 -19.55 34.6 -19.55 32.45 -17.7 29.75 -15.9 29.3 -15.9 29.15 -15.95 27.35 -14.25 Q26.55 -13.65 25.05 -13.2 L23.5 -12.85 20.45 -12.85 20.3 -12.85 19.95 -12.85 Q18.85 -14.1 17.45 -16.35 L16.65 -17.6 16.6 -17.7 16.65 -18.25 16.7 -18.7 17.15 -18.55 19.1 -18.55 19.0 -17.8 18.95 -17.6 Q18.95 -17.05 19.2 -16.8 19.3 -16.7 19.7 -16.55 L19.95 -16.15 20.05 -16.15 20.55 -17.3 21.15 -18.1 21.45 -18.9 23.1 -22.5 24.35 -26.0 Q24.65 -27.1 25.8 -27.55 L26.2 -27.65 26.55 -27.6 27.85 -28.35 29.2 -29.25 M48.75 -20.65 L49.55 -21.95 50.55 -24.7 51.5 -26.45 52.55 -27.85 52.85 -28.05 52.95 -28.2 53.1 -28.4 54.25 -29.6 54.4 -29.55 54.9 -29.65 56.35 -29.25 58.55 -28.35 58.95 -28.15 59.05 -28.1 Q59.35 -28.25 59.95 -27.7 L60.6 -26.95 61.65 -24.9 64.1 -20.1 Q65.65 -17.1 66.0 -17.1 L66.25 -17.1 Q66.55 -16.8 66.85 -16.8 L67.5 -16.9 67.6 -17.05 67.7 -17.85 67.4 -18.9 67.55 -18.9 69.95 -19.85 69.35 -18.5 67.85 -16.4 Q67.2 -15.55 67.05 -14.95 L66.55 -14.5 65.1 -14.0 64.75 -13.85 63.8 -13.85 63.6 -14.0 62.1 -13.85 61.35 -14.0 61.05 -14.3 60.95 -14.8 61.0 -14.8 59.3 -15.9 58.45 -16.35 57.45 -17.15 55.35 -18.9 52.45 -20.2 53.9 -18.4 53.85 -18.15 53.75 -17.9 Q53.6 -17.6 53.05 -17.6 52.35 -17.6 50.85 -18.8 L49.9 -19.55 50.05 -19.25 48.75 -20.65 M76.6 -18.45 L76.6 -18.55 76.8 -19.3 79.3 -20.9 80.7 -21.65 82.5 -21.95 82.6 -21.85 82.7 -21.25 Q82.7 -20.9 80.9 -19.8 L79.85 -18.7 Q78.95 -17.5 78.8 -15.35 L77.95 -14.95 Q77.3 -15.6 76.9 -16.85 76.6 -17.8 76.6 -18.45 M59.5 -25.0 L59.25 -25.45 59.25 -25.4 59.5 -25.0 M88.1 -4.4 L88.4 -4.85 89.7 -7.35 92.25 -8.85 Q93.3 -7.95 96.25 -6.75 96.7 -6.55 97.65 -6.1 L97.65 -6.05 94.8 -4.95 Q93.05 -4.15 92.35 -3.35 91.8 -2.7 91.8 -1.8 L91.85 -1.1 Q91.95 -0.75 92.55 -0.45 L93.05 -0.85 93.35 -0.2 93.35 0.5 Q93.5 1.1 94.05 1.3 L94.05 1.4 94.0 2.6 91.45 2.9 91.1 2.45 Q90.75 2.75 90.75 3.2 L90.8 3.5 90.3 3.45 Q89.6 2.35 89.35 0.95 L88.95 -0.15 88.35 -3.0 88.1 -4.4 M101.4 4.4 L101.4 4.55 101.15 4.6 101.3 4.5 101.4 4.4 M98.9 -0.45 L98.8 -1.2 Q98.8 -1.8 98.95 -2.1 L99.8 -2.2 Q99.45 -1.95 99.45 -1.35 99.45 -1.1 99.8 -0.65 L99.45 -0.6 98.9 -0.45 M41.3 7.85 L42.05 7.4 43.5 7.4 43.65 7.5 Q44.2 7.9 44.95 9.3 L45.8 10.4 45.5 12.35 45.5 14.1 45.55 14.3 45.5 14.6 46.1 15.75 45.95 15.7 Q44.8 15.5 44.25 15.7 L40.85 12.0 40.65 11.8 40.45 11.05 40.45 10.75 40.45 10.5 Q40.45 9.75 40.6 9.15 L40.55 9.1 40.55 9.0 40.7 8.55 40.8 8.65 41.3 7.85 M1.95 17.15 L2.2 17.55 2.95 18.9 3.15 20.5 3.0 21.3 -3.4 26.3 -7.65 29.5 -6.95 27.45 -6.15 23.75 -4.9 20.1 Q-4.15 17.85 -3.95 16.75 L-3.25 15.95 -1.9 15.85 -1.85 15.95 -1.05 15.95 -1.0 15.95 -1.0 16.0 -0.5 16.05 Q1.0 16.35 1.95 17.15" fill="#f4d8a2" fill-rule="evenodd" stroke="none"/>
    <path d="M55.85 -55.05 Q56.9 -55.85 57.75 -57.4 58.9 -58.5 62.95 -58.3 L63.4 -58.2 69.85 -58.2 70.65 -57.5 68.15 -54.3 65.5 -50.4 65.45 -50.4 Q64.85 -50.4 62.85 -51.35 L60.8 -52.4 56.4 -51.3 Q53.45 -46.6 53.45 -45.65 L53.5 -45.25 Q53.35 -44.85 53.35 -44.3 53.2 -43.7 53.35 -43.2 L53.75 -42.6 54.3 -41.9 47.65 -41.55 45.1 -41.15 47.5 -44.3 48.8 -46.1 51.95 -50.2 Q53.95 -53.65 55.85 -55.05" fill="#f3d499" fill-rule="evenodd" stroke="none"/>
    <path d="M67.8 -11.65 L68.6 -12.7 68.75 -12.8 69.05 -12.6 69.35 -12.4 Q69.85 -10.45 74.3 -7.45 78.05 -4.95 81.25 -4.25 L83.6 -3.0 85.95 -2.85 Q86.15 -2.9 86.35 -3.05 L86.9 -1.0 86.55 -0.65 86.75 0.2 86.75 0.25 86.2 1.5 85.6 2.4 84.5 3.85 83.9 4.4 82.0 4.4 81.4 4.4 Q79.5 4.4 78.5 3.3 L78.0 2.6 77.45 2.35 75.2 1.35 74.9 0.75 73.65 0.15 Q70.15 -1.6 68.8 -3.45 L68.65 -3.6 68.3 -4.15 68.3 -4.3 68.3 -4.5 68.35 -9.4 Q68.4 -11.0 67.8 -11.65 M-12.5 20.9 L-12.5 19.85 Q-8.85 9.8 -5.9 6.2 -4.35 4.25 -2.95 4.25 0.45 4.25 6.6 8.55 12.45 12.7 12.45 14.2 12.45 17.85 11.75 20.75 11.1 23.5 9.8 25.6 L8.2 27.55 8.1 27.55 4.55 27.2 0.95 26.7 0.5 27.0 -0.45 27.0 0.9 26.0 Q1.05 25.45 1.6 25.2 L2.0 25.1 2.7 24.45 2.8 24.6 3.5 24.75 Q6.5 24.75 6.5 20.4 6.5 17.55 4.3 15.25 2.35 13.15 -0.5 12.3 -3.35 11.45 -5.3 12.3 -7.5 13.25 -7.5 16.0 L-7.4 16.65 -8.2 19.2 -8.9 21.4 -8.9 21.45 -9.2 21.85 -9.3 21.95 Q-9.7 22.35 -10.2 22.35 L-10.75 22.3 -11.25 21.8 -12.5 20.9" fill="#5b4422" fill-rule="evenodd" stroke="none"/>
    <path d="M86.45 -16.65 L87.15 -17.6 86.95 -18.1 81.75 -16.35 80.4 -15.9 80.1 -16.0 80.25 -16.5 80.9 -16.9 80.8 -16.95 80.8 -17.05 80.5 -17.2 80.4 -17.9 Q80.4 -18.15 82.3 -20.05 L82.5 -20.15 80.0 -18.85 79.85 -18.7 80.9 -19.8 Q82.7 -20.9 82.7 -21.25 L82.6 -21.85 82.5 -21.95 80.7 -21.65 81.15 -21.95 83.05 -23.35 83.45 -22.6 86.15 -21.85 Q87.4 -21.2 88.55 -21.0 89.05 -20.75 89.2 -20.65 L89.5 -19.7 Q89.5 -19.05 89.3 -18.85 L88.9 -18.55 88.3 -17.7 Q88.3 -17.1 87.95 -17.1 L87.85 -17.1 87.8 -17.05 Q86.3 -15.1 85.9 -15.1 L85.65 -15.15 85.55 -15.35 86.45 -16.65 M83.45 -24.7 L83.25 -24.8 81.1 -24.15 80.8 -24.1 80.4 -24.15 80.35 -24.4 Q80.35 -24.9 81.95 -25.05 L82.35 -25.15 81.6 -25.45 81.6 -25.8 82.9 -25.55 83.05 -25.7 83.25 -25.85 83.75 -25.5 84.1 -25.55 84.35 -25.15 84.1 -25.05 84.4 -24.35 Q84.45 -24.25 84.2 -24.25 84.0 -24.25 83.6 -24.55 L83.45 -24.7" fill="#f4d7a1" fill-rule="evenodd" stroke="none"/>
    <path d="M101.65 12.7 L102.6 12.9 101.7 13.3 Q100.4 13.05 99.65 12.4 99.7 12.25 100.0 12.25 L101.4 12.75 101.65 12.7" fill="#f3d59a" fill-rule="evenodd" stroke="none"/>
  </g>
</svg>
