<?xml version="1.0" encoding="UTF-8" standalone="no"?>
<svg xmlns:ffdec="https://www.free-decompiler.com/flash" xmlns:xlink="http://www.w3.org/1999/xlink" ffdec:objectType="shape" height="81.35px" width="81.15px" xmlns="http://www.w3.org/2000/svg">
  <g transform="matrix(1.0, 0.0, 0.0, 1.0, 40.6, 40.7)">
    <path d="M1.6 -21.25 L5.9 -14.1 Q7.85 -10.25 9.45 -7.8 L9.5 -7.6 9.65 -7.4 9.8 -7.1 9.9 -7.2 10.1 -6.85 11.0 -5.6 11.8 -4.65 Q11.65 -4.5 11.5 -4.5 L11.55 -4.35 11.85 -3.8 12.35 -2.85 13.05 -1.85 13.45 -2.35 Q14.65 -3.9 16.75 -4.45 19.3 -5.15 21.2 -3.05 L22.5 -1.15 23.15 -1.35 Q27.2 -2.45 27.35 -2.7 27.15 -3.3 27.6 -4.5 L28.1 -6.0 Q28.85 -7.25 30.6 -7.75 35.0 -8.95 37.55 -6.8 L38.2 -6.2 38.35 -6.05 39.1 -4.75 39.5 -3.75 Q39.9 -2.25 39.3 -0.4 38.35 2.6 34.85 3.55 L32.9 3.75 31.45 5.95 29.6 8.65 27.15 11.85 26.3 13.0 27.15 14.35 28.55 16.15 30.2 16.05 Q32.55 16.05 34.95 17.6 38.95 20.05 40.25 24.95 40.65 26.45 40.55 27.6 L39.8 30.9 Q39.55 31.75 38.75 32.85 L37.15 34.75 Q34.5 37.5 31.95 38.2 29.05 38.95 25.1 37.35 23.3 36.65 22.4 36.05 21.7 36.5 21.45 37.5 L20.45 38.8 Q19.3 40.15 18.35 40.4 14.55 41.4 13.0 38.4 9.75 39.25 3.8 34.2 L2.9 35.65 Q1.2 37.95 -1.15 38.6 -3.35 39.2 -5.8 38.0 -8.65 36.6 -9.5 33.35 -10.0 31.55 -9.3 29.8 -8.15 27.25 -4.65 26.2 L-2.2 25.95 -1.5 24.05 -0.25 20.85 -2.55 19.15 Q-3.15 18.55 -3.45 17.5 L-3.5 15.85 -2.55 13.85 0.5 11.75 -1.05 10.6 Q-1.6 10.15 -2.1 9.85 L-4.05 8.4 -4.1 8.4 -4.15 8.35 -4.2 8.25 -4.2 8.35 -4.7 7.9 -4.9 7.7 Q-5.4 7.35 -5.8 7.35 L-7.35 6.45 Q-8.7 5.4 -11.85 3.9 -14.75 2.3 -15.95 1.3 L-25.55 -4.4 -32.2 -8.65 Q-32.15 -8.5 -32.25 -8.45 L-33.3 -9.2 -33.4 -9.3 -33.6 -10.2 -34.3 -13.15 -38.15 -29.35 -39.2 -34.6 Q-39.7 -37.2 -40.35 -39.2 L-40.6 -40.15 -40.35 -40.65 -39.85 -40.6 -36.2 -40.0 -31.85 -39.2 -22.95 -37.9 -18.55 -37.25 -15.0 -36.7 -8.2 -35.65 -6.85 -33.5 -5.05 -30.45 -4.1 -29.0 -4.25 -28.95 -1.7 -25.9 -1.65 -25.75 -0.7 -24.6 1.6 -21.25 M10.15 9.35 L11.65 8.15 12.6 7.15 13.05 6.35 13.5 5.45 Q13.75 5.25 14.0 5.3 L14.1 5.15 14.15 5.15 11.05 0.5 10.15 -0.65 7.65 -4.45 4.45 -9.15 4.2 -9.55 1.65 -13.3 -1.1 -17.0 -3.9 -21.45 -8.9 -29.2 -9.25 -29.9 -9.95 -30.65 -10.05 -30.65 -10.0 -31.05 -10.35 -31.25 Q-11.25 -31.85 -14.75 -32.75 L-16.65 -33.15 -20.65 -33.95 -34.3 -35.5 -34.35 -35.4 -35.6 -35.55 -35.65 -35.4 -30.3 -12.1 -29.75 -11.8 -29.35 -11.55 -19.0 -4.7 -11.9 0.1 -10.4 1.2 -4.3 5.65 -1.05 7.9 -1.0 8.1 0.25 9.2 2.2 10.45 4.1 11.85 4.65 12.25 4.85 12.35 6.95 11.55 Q8.2 10.7 9.2 10.0 9.3 9.9 9.35 9.9 L10.15 9.35 M16.8 -0.85 L16.55 -0.5 Q16.05 -0.6 15.8 0.05 15.2 1.2 16.2 2.1 L16.5 2.45 16.95 3.7 Q17.4 4.15 18.0 3.35 L18.45 2.95 Q19.05 3.15 19.6 2.6 20.4 1.85 20.0 0.35 L19.25 -1.0 Q18.75 -1.6 17.8 -1.55 17.05 -1.55 16.8 -0.85 M34.3 0.65 Q35.35 0.4 35.95 -0.25 37.15 -1.4 36.55 -3.15 L35.45 -4.8 Q34.6 -5.65 34.1 -5.65 L33.2 -5.65 32.65 -5.55 32.25 -5.4 31.6 -4.8 31.0 -4.4 30.9 -4.25 30.45 -3.9 Q28.9 -2.45 30.35 -0.6 L28.25 0.3 26.8 1.1 26.55 1.0 25.05 0.8 Q24.3 1.0 23.45 1.7 19.9 3.8 19.85 4.2 L19.75 4.5 Q19.3 4.7 19.4 5.0 19.2 5.25 19.35 5.65 L19.2 6.85 19.05 7.85 19.3 8.05 19.25 8.1 19.15 8.25 16.9 11.55 16.8 11.65 16.6 12.05 15.45 11.95 15.1 12.05 15.35 13.35 13.9 14.45 12.85 15.25 12.15 15.9 12.1 15.95 Q10.8 17.0 9.85 17.2 L9.65 17.3 Q9.55 17.3 9.5 17.4 L9.5 17.3 9.4 17.5 9.2 17.55 7.55 18.0 7.2 18.1 6.75 17.7 6.7 17.8 6.55 17.65 6.75 17.45 6.7 17.45 6.55 17.35 5.55 16.7 5.3 17.15 5.2 17.3 4.55 17.35 Q3.7 17.6 2.4 21.6 L2.25 22.35 1.95 22.9 1.9 24.15 1.85 24.25 1.65 25.3 1.55 25.15 1.35 25.8 1.2 26.3 1.15 26.55 Q1.1 26.95 1.2 27.15 L0.8 27.05 0.5 27.95 Q-0.05 29.4 -0.75 30.15 L-0.8 30.15 Q-2.35 28.9 -4.7 30.5 L-5.1 30.85 Q-5.8 30.95 -6.2 31.85 -7.25 33.8 -5.4 35.65 -3.85 37.25 -2.7 36.0 L-2.5 35.8 Q-1.3 35.75 -0.35 34.8 0.45 34.0 0.5 32.55 L0.45 32.0 1.05 31.55 2.65 29.7 2.8 29.65 3.85 31.05 5.35 32.65 6.9 34.05 9.3 35.1 9.85 35.2 11.8 35.55 13.45 35.75 14.25 35.65 14.3 35.9 14.4 36.35 15.15 37.45 Q15.4 37.75 16.25 38.05 17.2 38.35 17.7 37.85 L18.05 37.1 18.45 36.85 Q19.0 36.25 18.9 35.65 L18.7 35.3 19.1 35.15 20.35 34.55 21.95 33.7 22.5 33.5 Q22.8 33.25 22.55 32.55 L22.05 31.9 21.55 31.65 21.3 31.55 19.65 31.7 18.95 31.75 17.05 31.95 13.5 31.6 12.05 31.05 10.6 30.15 8.1 28.35 7.1 26.7 6.5 25.45 6.8 25.15 7.1 25.0 9.95 23.15 9.95 23.05 10.3 23.0 12.55 21.8 12.6 21.7 12.55 21.5 13.65 20.75 Q14.25 20.3 14.8 19.95 15.1 19.65 15.5 19.4 L17.4 18.0 18.15 17.2 Q19.55 16.8 20.05 15.75 L20.3 14.9 21.65 13.15 25.45 8.4 25.65 8.05 25.9 7.6 Q26.7 7.5 28.1 6.05 L32.15 1.4 32.45 1.0 33.35 0.9 33.95 0.8 34.3 0.65 M-0.05 16.35 L-0.35 16.45 Q-0.85 17.0 -0.05 18.2 L0.8 18.55 1.9 18.45 2.2 18.45 Q2.75 18.45 3.05 18.1 L3.3 17.9 3.35 17.75 3.65 17.25 4.2 17.0 Q4.8 16.4 4.6 15.8 L4.5 15.6 4.4 15.5 4.3 15.25 Q3.85 14.8 3.0 15.0 L1.25 15.25 Q0.0 15.6 -0.05 16.35 M28.6 2.15 L28.5 2.25 28.5 2.1 28.6 2.15 M28.65 19.3 L27.2 19.7 27.15 19.45 27.05 19.45 26.7 18.7 26.1 18.2 26.1 18.15 25.2 17.4 24.75 16.85 23.25 15.15 23.05 15.0 22.95 15.1 22.85 15.3 21.55 16.55 20.6 17.5 20.5 17.6 17.7 20.3 Q16.5 20.25 16.8 21.3 L18.6 24.1 19.9 25.05 19.95 25.0 20.1 25.2 20.2 25.3 20.3 25.4 20.95 25.85 21.0 26.0 21.55 29.15 21.75 29.55 22.05 29.75 22.15 30.0 22.65 31.0 22.65 30.95 22.7 31.0 22.65 31.1 23.2 31.85 23.9 32.65 24.05 32.75 24.1 32.85 24.05 32.9 Q23.9 33.15 24.15 33.35 L24.2 33.45 Q25.0 34.15 27.25 35.05 L29.0 35.45 31.1 35.55 31.25 35.4 Q32.95 35.1 34.5 33.95 L34.65 33.9 35.6 32.95 36.2 32.35 36.6 31.8 Q38.05 29.55 37.5 26.35 36.85 23.45 35.65 22.15 34.25 20.65 31.25 19.55 L31.15 19.6 Q29.8 19.15 28.7 19.15 L28.65 19.15 28.65 19.3 M12.25 13.2 L14.4 11.35 Q16.6 9.05 16.8 8.1 L16.75 8.1 16.8 8.05 16.75 7.8 15.45 6.6 15.1 6.1 14.95 6.25 13.8 7.8 13.05 8.7 12.9 8.85 12.35 9.35 11.05 10.7 Q9.85 11.9 7.45 13.1 L6.0 13.6 Q7.85 15.45 8.4 15.35 L8.65 15.2 9.6 15.05 11.95 13.35 12.25 13.2 M19.0 28.2 L18.9 27.1 Q18.75 26.6 16.9 25.4 L14.85 24.05 12.4 25.35 Q10.4 26.3 10.5 26.7 10.85 27.9 13.55 28.75 16.4 29.7 19.2 29.35 L19.0 28.2" fill="#000000" fill-rule="evenodd" stroke="none"/>
    <path d="M-8.9 -29.2 L-3.9 -21.45 -1.1 -17.0 1.65 -13.3 4.2 -9.55 4.45 -9.15 7.65 -4.45 10.15 -0.65 11.05 0.5 14.15 5.15 14.1 5.15 14.0 5.3 Q13.75 5.25 13.5 5.45 L13.05 6.35 12.6 7.15 11.65 8.15 10.15 9.35 Q10.0 9.05 9.65 8.95 L-11.75 -14.6 -8.9 -29.2 M9.2 10.0 Q8.2 10.7 6.95 11.55 L4.85 12.35 4.65 12.25 4.1 11.85 2.2 10.45 0.25 9.2 -1.0 8.1 -1.05 7.9 0.1 7.95 0.9 8.65 2.45 9.7 4.0 10.75 4.45 10.9 4.9 11.35 5.45 11.75 5.6 11.8 5.85 11.5 6.15 11.0 Q6.55 10.95 6.7 11.35 L8.8 9.95 9.2 10.0" fill="#4d4d4f" fill-rule="evenodd" stroke="none"/>
    <path d="M16.6 -0.5 L16.55 -0.5 16.8 -0.85 16.6 -0.5 M16.5 2.45 L17.6 2.4 17.75 2.2 17.95 2.6 18.45 2.95 18.0 3.35 Q17.4 4.15 16.95 3.7 L16.5 2.45 M31.6 -4.8 L31.85 -4.85 Q32.8 -5.6 34.45 -3.95 L35.2 -2.45 Q35.65 -1.05 35.0 -0.25 L34.75 0.25 34.3 0.65 33.95 0.8 33.35 0.9 33.75 0.6 Q34.4 -0.15 34.35 -1.2 L34.0 -2.25 33.35 -3.15 32.95 -3.55 32.8 -4.2 31.85 -4.45 30.9 -4.25 31.0 -4.4 31.6 -4.8 M25.65 8.05 L25.45 8.4 21.65 13.15 16.9 11.55 19.15 8.25 19.3 8.3 23.95 8.05 25.65 8.05 M13.65 20.75 L12.55 21.5 12.6 21.7 12.55 21.8 10.3 23.0 9.95 23.05 9.45 17.55 9.5 17.4 Q9.55 17.3 9.65 17.3 L9.85 17.2 Q10.8 17.0 12.1 15.95 L12.15 16.3 13.65 20.75 M18.9 35.65 Q19.0 36.25 18.45 36.85 L18.05 37.1 17.95 36.7 17.5 36.2 16.2 35.45 15.65 35.25 15.55 35.2 15.5 35.05 15.2 34.8 15.05 34.5 13.8 34.35 12.15 34.45 9.8 34.0 7.65 33.0 6.15 31.85 3.75 29.0 3.4 28.8 Q3.15 28.75 2.85 29.05 2.65 29.25 2.8 29.65 L2.65 29.7 1.05 31.55 0.45 32.0 0.5 32.55 Q0.45 34.0 -0.35 34.8 -1.3 35.75 -2.5 35.8 -1.85 34.85 -2.45 33.4 -2.85 32.25 -3.3 31.75 -4.35 30.7 -5.1 30.85 L-4.7 30.5 Q-2.35 28.9 -0.8 30.15 L-0.75 30.15 Q-0.05 29.4 0.5 27.95 L0.8 27.05 1.2 27.15 Q1.55 27.3 1.95 27.6 L2.05 27.45 2.45 27.3 2.9 26.45 3.65 25.75 4.65 25.6 4.85 25.55 5.4 25.85 Q5.8 26.8 5.85 27.95 5.85 28.95 7.1 30.05 9.3 32.3 11.9 33.05 L17.2 33.45 17.05 34.3 Q16.9 34.7 17.4 35.2 17.85 35.7 18.9 35.65 M1.9 18.45 L2.15 18.2 2.3 17.5 3.05 17.3 3.65 17.25 3.35 17.75 3.3 17.9 3.05 18.1 Q2.75 18.45 2.2 18.45 L1.9 18.45 M21.15 18.3 L21.3 18.4 23.6 20.85 24.0 21.2 23.75 21.5 23.75 21.45 21.25 18.45 21.15 18.3 M12.25 13.2 L11.95 13.35 9.6 15.05 8.65 15.2 8.8 14.95 8.9 14.4 8.2 13.5 7.45 13.1 Q9.85 11.9 11.05 10.7 L12.35 9.35 12.9 8.85 Q13.0 10.3 12.6 11.9 L12.25 13.2 M12.5 34.2 L12.65 34.2 12.6 34.1 12.5 34.2" fill="#ffcc00" fill-rule="evenodd" stroke="none"/>
    <path d="M16.55 -0.5 L16.6 -0.5 Q17.05 -0.4 17.55 0.1 L18.0 0.85 Q18.2 1.55 17.75 2.2 L17.6 2.4 16.5 2.45 16.2 2.1 Q15.2 1.2 15.8 0.05 16.05 -0.6 16.55 -0.5 M33.35 0.9 L32.45 1.0 30.9 0.05 30.35 -0.6 Q28.9 -2.45 30.45 -3.9 L30.9 -4.25 31.85 -4.45 32.8 -4.2 32.95 -3.55 33.35 -3.15 34.0 -2.25 34.35 -1.2 Q34.4 -0.15 33.75 0.6 L33.35 0.9 M18.15 17.2 L17.4 18.0 15.5 19.4 14.55 17.7 13.1 15.6 12.85 15.25 13.9 14.45 15.35 13.35 15.55 14.6 15.8 15.65 16.0 15.95 Q16.8 17.6 18.1 17.2 L18.15 17.2 M18.05 37.1 L17.7 37.85 Q17.2 38.35 16.25 38.05 15.4 37.75 15.15 37.45 L14.4 36.35 14.3 35.9 14.25 35.65 13.45 35.75 11.8 35.55 9.85 35.2 9.3 35.1 6.9 34.05 5.35 32.65 3.85 31.05 2.8 29.65 Q2.65 29.25 2.85 29.05 3.15 28.75 3.4 28.8 L3.75 29.0 6.15 31.85 7.65 33.0 9.8 34.0 12.15 34.45 13.8 34.35 15.05 34.5 15.2 34.8 15.5 35.05 15.55 35.2 15.65 35.25 16.2 35.45 17.5 36.2 17.95 36.7 18.05 37.1 M-2.5 35.8 L-2.7 36.0 Q-3.85 37.25 -5.4 35.65 -7.25 33.8 -6.2 31.85 -5.8 30.95 -5.1 30.85 -4.35 30.7 -3.3 31.75 -2.85 32.25 -2.45 33.4 -1.85 34.85 -2.5 35.8 M1.65 25.3 L1.85 24.25 1.9 24.15 1.95 24.5 Q2.1 25.15 2.6 25.4 L3.15 25.65 2.75 26.1 2.5 26.1 1.65 25.3 M2.25 22.35 L2.4 21.6 Q3.7 17.6 4.55 17.35 L5.2 17.3 5.4 17.35 Q5.7 17.4 5.75 17.8 L5.85 18.05 Q5.55 18.2 4.6 19.3 L3.0 21.4 2.25 22.35 M-16.65 -15.7 L-29.8 -13.4 -34.0 -34.2 -16.65 -15.7 M1.9 18.45 L0.8 18.55 -0.05 18.2 Q-0.85 17.0 -0.35 16.45 L-0.05 16.35 1.05 16.4 2.0 16.85 2.25 17.35 2.3 17.5 2.15 18.2 1.9 18.45 M21.55 4.05 L22.0 4.1 22.05 4.1 22.1 4.1 Q22.7 4.25 22.8 4.5 L22.9 4.9 22.8 4.95 22.45 5.15 21.15 5.0 20.55 4.65 Q20.4 4.25 20.9 4.1 L21.55 4.05 M17.7 20.3 L17.95 20.25 Q19.5 20.35 20.05 21.65 L21.05 23.0 21.45 23.5 21.6 23.7 22.2 24.8 22.25 25.25 22.15 25.5 22.05 25.45 21.7 25.35 22.15 25.65 22.3 26.3 22.3 26.45 Q22.25 27.35 22.35 27.65 L22.45 28.3 Q22.65 29.35 22.4 29.6 L22.05 29.75 21.75 29.55 21.55 29.15 21.0 26.0 20.95 25.85 20.3 25.4 20.2 25.3 20.1 25.2 19.95 25.0 19.9 25.05 18.6 24.1 16.8 21.3 Q16.5 20.25 17.7 20.3 M24.1 32.85 L24.15 32.85 Q24.6 32.4 25.45 33.05 26.75 33.95 27.4 34.05 L31.05 34.9 31.25 35.4 31.1 35.55 29.0 35.45 27.25 35.05 Q25.0 34.15 24.2 33.45 L24.15 33.35 Q23.9 33.15 24.05 32.9 L24.1 32.85 M8.65 15.2 L8.4 15.35 Q7.85 15.45 6.0 13.6 L7.45 13.1 8.2 13.5 8.9 14.4 8.8 14.95 8.65 15.2 M3.75 22.05 L3.45 21.75 Q3.9 20.05 4.5 19.85 L5.05 19.85 5.2 20.05 5.2 20.1 5.15 20.15 5.2 20.55 5.15 20.6 4.75 21.0 4.55 21.5 4.0 22.05 3.75 22.05 M16.05 12.95 L16.1 12.85 Q16.45 12.8 16.6 13.15 L16.6 13.35 16.7 13.6 16.75 13.85 16.85 14.1 Q16.9 14.45 16.55 14.55 L16.35 14.6 Q15.9 14.55 15.7 13.85 L15.75 13.45 15.8 13.35 Q15.9 13.0 16.05 12.95 M28.2 29.6 L27.45 29.05 Q26.55 27.05 27.0 26.6 L27.45 26.1 27.7 26.1 28.0 26.35 Q28.3 26.65 28.6 27.8 29.0 29.05 28.55 29.5 L28.2 29.6" fill="#ffffff" fill-rule="evenodd" stroke="none"/>
    <path d="M16.6 -0.5 L16.8 -0.85 Q17.05 -1.55 17.8 -1.55 18.75 -1.6 19.25 -1.0 L20.0 0.35 Q20.4 1.85 19.6 2.6 19.05 3.15 18.45 2.95 L17.95 2.6 17.75 2.2 Q18.2 1.55 18.0 0.85 L17.55 0.1 Q17.05 -0.4 16.6 -0.5 M31.6 -4.8 L32.25 -5.4 32.65 -5.55 33.2 -5.65 34.1 -5.65 Q34.6 -5.65 35.45 -4.8 L36.55 -3.15 Q37.15 -1.4 35.95 -0.25 35.35 0.4 34.3 0.65 L34.75 0.25 35.0 -0.25 Q35.65 -1.05 35.2 -2.45 L34.45 -3.95 Q32.8 -5.6 31.85 -4.85 L31.6 -4.8 M32.45 1.0 L32.15 1.4 28.1 6.05 Q26.7 7.5 25.9 7.6 L25.65 8.05 23.95 8.05 19.3 8.3 19.15 8.25 19.25 8.1 19.3 8.05 19.05 7.85 19.2 6.85 19.35 5.65 Q19.2 5.25 19.4 5.0 19.3 4.7 19.75 4.5 19.55 4.95 19.65 5.1 L20.25 5.3 23.6 6.1 Q26.15 6.65 27.25 4.2 L27.35 3.75 Q27.8 2.5 27.45 1.7 L26.8 1.1 28.25 0.3 30.35 -0.6 30.9 0.05 32.45 1.0 M2.3 17.5 L2.25 17.35 2.0 16.85 1.05 16.4 -0.05 16.35 Q0.0 15.6 1.25 15.25 L3.0 15.0 Q3.85 14.8 4.3 15.25 L4.4 15.5 4.5 15.6 4.6 15.8 Q4.8 16.4 4.2 17.0 L3.65 17.25 3.05 17.3 2.3 17.5 M28.6 2.15 L28.5 2.1 28.5 2.25 28.6 2.15 M20.5 17.6 L20.6 17.5 21.55 16.55 22.85 15.3 22.95 15.1 23.05 15.0 23.25 15.15 24.75 16.85 25.2 17.4 26.1 18.15 26.1 18.2 26.7 18.7 27.05 19.45 27.15 19.45 27.2 19.7 28.65 19.3 28.7 19.15 Q29.8 19.15 31.15 19.6 L31.25 19.55 Q34.25 20.65 35.65 22.15 36.85 23.45 37.5 26.35 38.05 29.55 36.6 31.8 L36.55 31.65 36.05 30.0 36.1 29.95 35.95 29.5 36.0 29.35 Q35.35 24.7 33.35 22.65 31.85 21.15 29.8 20.9 L29.6 20.9 28.3 20.9 28.05 20.95 26.35 21.2 24.6 21.85 24.45 22.1 23.75 21.5 24.0 21.2 23.6 20.85 21.3 18.4 21.15 18.3 20.65 17.75 20.5 17.6 M12.9 8.85 L13.05 8.7 13.8 7.8 14.95 6.25 15.1 6.1 15.45 6.6 16.75 7.8 16.8 8.05 16.75 8.1 16.8 8.1 Q16.6 9.05 14.4 11.35 L12.25 13.2 12.6 11.9 Q13.0 10.3 12.9 8.85" fill="#d36f00" fill-rule="evenodd" stroke="none"/>
    <path d="M21.65 13.15 L20.3 14.9 20.3 14.35 19.75 13.35 Q19.55 12.95 18.65 12.65 L17.4 12.2 16.6 12.05 16.8 11.65 16.9 11.55 21.65 13.15 M15.5 19.4 Q15.1 19.65 14.8 19.95 14.25 20.3 13.65 20.75 L12.15 16.3 12.1 15.95 12.15 15.9 12.85 15.25 13.1 15.6 14.55 17.7 15.5 19.4 M20.5 17.6 L20.65 17.75 21.15 18.3 21.25 18.45 23.75 21.45 23.75 21.5 Q23.25 22.05 23.05 22.7 22.85 23.1 22.8 23.6 L22.75 24.4 22.45 25.15 22.4 25.15 22.4 25.25 Q22.6 26.6 23.1 27.65 L23.2 27.95 Q23.9 29.7 25.7 31.4 27.4 33.15 31.0 33.85 33.0 34.15 34.65 33.9 L34.5 33.95 Q32.95 35.1 31.25 35.4 L31.05 34.9 27.4 34.05 Q26.75 33.95 25.45 33.05 24.6 32.4 24.15 32.85 L24.1 32.85 24.05 32.75 23.9 32.65 23.2 31.85 22.65 31.1 22.7 31.0 22.65 30.95 22.35 30.35 22.15 30.0 22.05 29.75 22.4 29.6 Q22.65 29.35 22.45 28.3 L22.35 27.65 Q22.25 27.35 22.3 26.45 L22.3 26.3 22.15 25.65 21.7 25.35 22.05 25.45 22.15 25.5 22.25 25.25 22.2 24.8 21.6 23.7 21.45 23.5 21.05 23.0 20.05 21.65 Q19.5 20.35 17.95 20.25 L17.7 20.3 20.5 17.6" fill="#fbea51" fill-rule="evenodd" stroke="none"/>
    <path d="M23.75 21.5 L24.45 22.1 24.6 21.85 26.35 21.2 28.05 20.95 26.75 21.2 Q26.5 21.2 26.2 21.35 24.8 22.85 24.95 25.3 L24.95 25.75 Q25.3 27.25 26.0 28.45 L26.05 28.45 26.15 28.7 27.25 30.45 Q28.2 31.3 29.5 31.65 L31.4 31.75 32.75 31.7 Q34.65 31.45 35.7 30.4 L36.05 30.0 36.55 31.65 36.6 31.8 36.2 32.35 35.6 32.95 34.65 33.9 Q33.0 34.15 31.0 33.85 27.4 33.15 25.7 31.4 23.9 29.7 23.2 27.95 L23.1 27.65 Q22.6 26.6 22.4 25.25 L22.4 25.15 22.45 25.15 22.75 24.4 22.8 23.6 Q22.85 23.1 23.05 22.7 23.25 22.05 23.75 21.5" fill="#e8d006" fill-rule="evenodd" stroke="none"/>
    <path d="M28.05 20.95 L28.3 20.9 29.6 20.9 29.8 20.9 Q31.85 21.15 33.35 22.65 35.35 24.7 36.0 29.35 L35.95 29.5 36.1 29.95 36.05 30.0 35.7 30.4 Q34.65 31.45 32.75 31.7 L31.4 31.75 Q32.5 31.5 33.45 30.5 34.6 29.4 34.55 27.95 L34.2 26.55 33.1 24.55 Q32.35 23.75 31.0 23.35 28.8 22.65 27.1 24.35 25.25 26.15 26.0 28.45 25.3 27.25 24.95 25.75 L24.95 25.3 Q24.8 22.85 26.2 21.35 26.5 21.2 26.75 21.2 L28.05 20.95" fill="#fae414" fill-rule="evenodd" stroke="none"/>
    <path d="M20.3 14.9 L20.05 15.75 Q19.55 16.8 18.15 17.2 L18.1 17.2 Q16.8 17.6 16.0 15.95 L15.8 15.65 15.55 14.6 15.35 13.35 15.1 12.05 15.45 11.95 16.6 12.05 17.4 12.2 18.65 12.65 Q19.55 12.95 19.75 13.35 L20.3 14.35 20.3 14.9 M1.9 24.15 L1.95 22.9 2.25 22.35 3.0 21.4 4.6 19.3 Q5.55 18.2 5.85 18.05 L6.75 18.1 7.0 18.6 7.35 21.95 Q7.7 24.7 4.85 25.55 L4.65 25.6 3.65 25.75 3.15 25.65 2.6 25.4 Q2.1 25.15 1.95 24.5 L1.9 24.15 M19.75 4.5 L19.85 4.2 Q19.9 3.8 23.45 1.7 24.3 1.0 25.05 0.8 L26.55 1.0 26.8 1.1 27.45 1.7 Q27.8 2.5 27.35 3.75 L27.25 4.2 Q26.15 6.65 23.6 6.1 L20.25 5.3 19.65 5.1 Q19.55 4.95 19.75 4.5 M26.45 3.65 L26.5 3.6 26.75 2.4 26.35 1.95 25.35 2.0 24.75 2.2 24.45 2.35 23.55 2.75 21.55 4.05 20.9 4.1 Q20.4 4.25 20.55 4.65 L21.15 5.0 22.45 5.15 22.8 4.95 24.1 5.1 Q26.0 5.0 26.45 3.65 M26.0 28.45 Q25.25 26.15 27.1 24.35 28.8 22.65 31.0 23.35 32.35 23.75 33.1 24.55 L34.2 26.55 34.55 27.95 Q34.6 29.4 33.45 30.5 32.5 31.5 31.4 31.75 L29.5 31.65 Q28.2 31.3 27.25 30.45 L26.15 28.7 26.05 28.45 26.0 28.45 M5.2 20.1 L5.2 20.05 5.05 19.85 4.5 19.85 Q3.9 20.05 3.45 21.75 L3.75 22.05 3.35 22.8 Q2.8 23.8 2.9 24.35 L3.1 24.6 3.45 24.75 3.55 24.85 3.65 24.85 4.6 24.75 Q6.05 24.35 6.25 22.5 L6.2 19.05 5.65 19.6 5.2 20.1 M18.35 16.2 L18.9 15.25 19.0 15.05 Q19.25 14.45 19.1 14.15 19.05 13.7 17.75 13.2 L16.05 12.8 16.05 12.95 Q15.9 13.0 15.8 13.35 L15.75 13.45 15.7 13.85 Q15.9 14.55 16.35 14.6 17.0 16.65 17.95 16.3 L18.35 16.2 M29.45 30.35 Q30.95 30.85 32.25 29.5 33.45 28.3 33.0 26.9 32.8 26.1 32.1 25.45 L31.7 24.95 Q31.35 24.6 30.9 24.65 L29.8 24.75 29.05 24.9 28.7 25.2 Q28.05 25.55 27.7 26.1 L27.45 26.1 27.0 26.6 Q26.55 27.05 27.45 29.05 L28.2 29.6 29.25 30.3 29.45 30.35" fill="#0f0f79" fill-rule="evenodd" stroke="none"/>
    <path d="M9.35 9.9 Q9.3 9.9 9.2 10.0 L8.8 9.95 6.7 11.35 Q6.55 10.95 6.15 11.0 L5.85 11.5 5.6 11.8 5.45 11.75 4.9 11.35 4.45 10.9 4.0 10.75 2.45 9.7 0.9 8.65 0.1 7.95 -1.05 7.9 -4.3 5.65 2.05 3.3 3.1 3.05 9.35 9.9 M-10.4 1.2 L-11.9 0.1 -11.1 0.6 -10.4 1.2" fill="#4f4f4f" fill-rule="evenodd" stroke="none"/>
    <path d="M-4.3 5.65 L-10.4 1.2 -11.1 0.6 -2.15 -2.5 3.1 3.05 2.05 3.3 -4.3 5.65" fill="#9a9a9a" fill-rule="evenodd" stroke="none"/>
    <path d="M-8.9 -29.2 L-11.75 -14.6 9.65 8.95 Q10.0 9.05 10.15 9.35 L9.35 9.9 3.1 3.05 -2.15 -2.5 -7.35 -8.15 -7.5 -8.1 -7.9 -8.65 -12.15 -13.1 -13.85 -14.5 -13.85 -14.55 -23.6 -12.65 -23.7 -12.7 -25.3 -12.4 -29.05 -11.6 -29.2 -11.6 -29.3 -11.65 -29.35 -11.55 -29.75 -11.8 -28.7 -12.05 -28.4 -12.2 -14.05 -15.1 -20.65 -22.95 Q-26.05 -29.0 -33.6 -35.0 L-34.3 -35.5 -20.65 -33.95 -16.65 -33.15 -13.75 -32.45 -10.35 -31.25 -10.0 -31.05 -10.05 -30.65 -9.95 -30.65 -9.25 -29.9 -8.9 -29.2" fill="#9f9f9f" fill-rule="evenodd" stroke="none"/>
    <path d="M9.95 23.05 L9.95 23.15 7.1 25.0 6.8 25.15 6.5 25.45 7.1 26.7 8.1 28.35 10.6 30.15 12.05 31.05 13.5 31.6 17.05 31.95 18.95 31.75 19.65 31.7 21.3 31.55 21.55 31.65 22.05 31.9 22.55 32.55 Q22.8 33.25 22.5 33.5 L21.95 33.7 20.35 34.55 19.1 35.15 18.7 35.3 18.9 35.65 Q17.85 35.7 17.4 35.2 16.9 34.7 17.05 34.3 L17.2 33.45 11.9 33.05 Q9.3 32.3 7.1 30.05 5.85 28.95 5.85 27.95 5.8 26.8 5.4 25.85 L4.85 25.55 Q7.7 24.7 7.35 21.95 L7.0 18.6 6.75 18.1 5.85 18.05 5.75 17.8 Q5.7 17.4 5.4 17.35 L5.2 17.3 5.3 17.15 5.55 16.7 6.55 17.35 6.7 17.45 6.75 17.45 6.55 17.65 6.7 17.8 6.75 17.7 7.2 18.1 7.55 18.0 9.2 17.55 9.4 17.5 9.45 17.55 9.95 23.05 M1.2 27.15 Q1.1 26.95 1.15 26.55 L1.2 26.3 1.35 25.8 1.55 25.15 1.65 25.3 2.5 26.1 2.75 26.1 3.15 25.65 3.65 25.75 2.9 26.45 2.45 27.3 2.05 27.45 1.95 27.6 Q1.55 27.3 1.2 27.15 M17.45 32.85 L17.3 32.85 17.45 32.95 17.45 32.85" fill="#fd8002" fill-rule="evenodd" stroke="none"/>
    <path d="M9.4 17.5 L9.5 17.3 9.5 17.4 9.4 17.5" fill="#00a66a" fill-rule="evenodd" stroke="none"/>
    <path d="M9.4 17.5 L9.5 17.4 9.45 17.55 9.4 17.5" fill="#017647" fill-rule="evenodd" stroke="none"/>
    <path d="M12.5 34.2 L12.6 34.1 12.65 34.2 12.5 34.2" fill="#ded2cb" fill-rule="evenodd" stroke="none"/>
    <path d="M22.15 30.0 L22.35 30.35 22.65 30.95 22.65 31.0 22.15 30.0 M17.45 32.85 L17.45 32.95 17.3 32.85 17.45 32.85" fill="#725949" fill-rule="evenodd" stroke="none"/>
    <path d="M21.55 4.05 L23.55 2.75 24.45 2.35 24.75 2.2 25.35 2.0 26.35 1.95 26.75 2.4 26.5 3.6 26.45 3.65 25.7 3.35 Q24.65 3.1 23.5 3.35 22.7 3.6 22.05 4.1 L22.0 4.1 21.55 4.05 M5.15 20.6 L5.2 20.55 5.15 20.15 5.2 20.1 5.65 19.6 6.2 19.05 6.25 22.5 Q6.05 24.35 4.6 24.75 L3.65 24.85 4.7 23.4 Q5.25 22.15 5.2 20.8 L5.15 20.6 M16.05 12.95 L16.05 12.8 17.75 13.2 Q19.05 13.7 19.1 14.15 19.25 14.45 19.0 15.05 L18.9 15.25 18.35 16.2 18.25 15.65 17.45 14.2 16.85 13.6 16.6 13.35 16.6 13.15 Q16.45 12.8 16.1 12.85 L16.05 12.95 M29.05 24.9 L29.8 24.75 30.9 24.65 Q31.35 24.6 31.7 24.95 L32.1 25.45 Q32.8 26.1 33.0 26.9 33.45 28.3 32.25 29.5 30.95 30.85 29.45 30.35 L31.5 28.45 31.3 26.3 29.05 24.9" fill="#74100b" fill-rule="evenodd" stroke="none"/>
    <path d="M22.05 4.1 Q22.7 3.6 23.5 3.35 24.65 3.1 25.7 3.35 L26.45 3.65 Q26.0 5.0 24.1 5.1 L22.8 4.95 22.9 4.9 22.8 4.5 Q22.7 4.25 22.1 4.1 L22.05 4.1 M3.75 22.05 L4.0 22.05 4.55 21.5 4.75 21.0 5.15 20.6 5.2 20.8 Q5.25 22.15 4.7 23.4 L3.65 24.85 3.55 24.85 3.45 24.75 3.1 24.6 2.9 24.35 Q2.8 23.8 3.35 22.8 L3.75 22.05 M16.6 13.35 L16.85 13.6 17.45 14.2 18.25 15.65 18.35 16.2 17.95 16.3 Q17.0 16.65 16.35 14.6 L16.55 14.55 Q16.9 14.45 16.85 14.1 L16.75 13.85 16.7 13.6 16.6 13.35 M29.05 24.9 L31.3 26.3 31.5 28.45 29.45 30.35 29.25 30.3 28.2 29.6 28.55 29.5 Q29.0 29.05 28.6 27.8 28.3 26.65 28.0 26.35 L27.7 26.1 Q28.05 25.55 28.7 25.2 L29.05 24.9" fill="#e71717" fill-rule="evenodd" stroke="none"/>
    <path d="M-29.75 -11.8 L-30.3 -12.1 -35.65 -35.4 -35.6 -35.55 -34.35 -35.4 -34.3 -35.5 -33.6 -35.0 Q-26.05 -29.0 -20.65 -22.95 L-14.05 -15.1 -28.4 -12.2 -28.7 -12.05 -29.75 -11.8 M-29.2 -11.6 L-29.35 -11.55 -29.3 -11.65 -29.2 -11.6 M-16.65 -15.7 L-34.0 -34.2 -29.8 -13.4 -16.65 -15.7" fill="#838383" fill-rule="evenodd" stroke="none"/>
    <path d="M-19.0 -4.7 L-29.35 -11.55 -29.2 -11.6 -29.05 -11.6 -25.3 -12.4 -23.6 -12.65 -13.85 -14.55 -13.85 -14.5 -12.15 -13.1 -7.9 -8.65 -9.3 -8.4 -19.0 -4.7" fill="#696969" fill-rule="evenodd" stroke="none"/>
    <path d="M-11.9 0.1 L-19.0 -4.7 -9.3 -8.4 -7.9 -8.65 -7.5 -8.1 -7.35 -8.15 -2.15 -2.5 -11.1 0.6 -11.9 0.1" fill="#878586" fill-rule="evenodd" stroke="none"/>
  </g>
</svg>
