<?xml version="1.0" encoding="UTF-8" standalone="no"?>
<svg xmlns:ffdec="https://www.free-decompiler.com/flash" xmlns:xlink="http://www.w3.org/1999/xlink" ffdec:objectType="shape" height="71.4px" width="73.75px" xmlns="http://www.w3.org/2000/svg">
  <g transform="matrix(1.0, 0.0, 0.0, 1.0, 36.9, 35.7)">
    <path d="M3.05 -19.65 L5.35 -16.25 9.65 -9.1 Q11.65 -5.25 13.2 -2.8 L13.3 -2.7 13.4 -2.45 13.6 -2.15 16.05 -3.75 18.4 -5.0 Q21.35 -6.45 23.35 -6.5 L27.5 -6.6 28.9 -6.05 30.05 -5.4 Q30.95 -4.45 31.55 -2.85 32.25 -0.9 31.55 0.55 30.3 3.05 29.45 5.6 L28.65 8.05 27.25 10.1 27.55 10.4 28.4 11.05 29.4 12.3 29.5 12.2 29.6 12.4 30.05 12.9 31.1 12.75 Q33.75 12.55 35.15 13.95 L36.05 15.3 36.2 15.9 36.35 16.1 36.35 17.05 Q36.55 18.6 35.8 20.6 L35.7 21.45 35.15 22.85 Q36.5 24.45 36.7 25.8 37.2 27.75 35.85 30.9 34.3 34.6 31.1 35.4 L30.95 35.45 Q26.0 36.45 23.05 33.55 L22.7 33.7 21.85 34.05 21.1 34.4 19.95 34.8 Q16.65 35.6 14.7 34.05 13.4 33.0 13.1 31.6 L13.0 30.3 13.1 30.15 13.1 29.5 13.2 29.0 13.3 28.6 13.2 28.25 13.45 28.15 11.6 25.95 9.1 27.5 Q7.0 28.65 6.6 28.95 5.8 29.7 4.05 30.35 L1.75 31.15 Q0.25 31.8 -0.85 31.55 L-2.1 31.25 Q-3.2 31.1 -4.0 30.6 L-5.45 29.8 Q-6.1 29.15 -6.35 27.0 L-6.1 24.95 -5.7 22.85 Q-5.7 21.9 -4.9 20.35 L-3.55 18.15 -2.0 15.65 -0.3 13.35 -0.4 13.25 -1.2 12.7 Q-1.65 12.35 -2.05 12.3 L-3.65 11.45 -8.05 8.85 -12.3 6.3 Q-13.4 5.5 -21.75 0.6 -27.3 -2.7 -28.45 -3.65 L-28.5 -3.45 -29.5 -4.25 -29.65 -4.3 -29.85 -5.25 -30.5 -8.15 -34.45 -24.3 -35.5 -29.65 Q-35.95 -32.2 -36.65 -34.25 L-36.9 -35.15 -36.55 -35.7 -36.05 -35.6 -32.5 -35.05 -28.1 -34.2 Q-21.7 -33.05 -19.15 -32.95 L-14.85 -32.25 -11.3 -31.75 -4.4 -30.7 -3.15 -28.5 -1.3 -25.5 -0.35 -24.0 -0.5 -23.95 2.0 -20.9 2.05 -20.75 3.05 -19.65 M19.15 15.05 L21.25 12.8 24.55 8.15 26.8 4.0 Q27.9 2.05 27.65 0.1 27.5 -1.55 26.5 -2.6 24.85 -4.25 21.3 -2.5 L19.5 -1.95 17.8 -0.85 15.8 0.25 15.15 0.45 15.3 0.6 15.6 1.15 16.9 3.2 17.05 3.35 Q18.25 5.2 18.3 5.65 L18.6 6.15 15.15 13.75 15.05 13.85 14.25 14.55 14.2 14.65 14.1 14.75 13.8 14.9 9.2 16.35 6.6 17.15 4.5 15.95 3.4 15.3 3.15 15.15 1.75 14.3 1.55 14.45 0.05 16.5 -0.15 16.75 -1.45 19.75 -1.8 20.3 -3.45 24.6 Q-3.5 25.2 -3.05 25.8 L-2.55 26.4 Q-1.6 27.35 0.1 27.5 2.05 27.65 4.15 26.5 L10.9 22.55 Q13.6 20.65 16.85 17.4 L19.15 15.05 M20.65 7.5 L20.7 7.6 20.65 7.55 20.65 7.5 M16.95 27.05 L17.35 27.5 19.75 26.5 21.65 25.45 Q23.55 24.25 25.15 22.65 L25.9 21.85 Q27.25 20.15 27.95 17.95 L28.35 16.3 26.85 14.9 26.85 14.85 24.85 12.65 24.1 11.85 22.05 14.15 21.3 14.95 20.6 15.75 18.45 17.85 15.35 20.95 14.65 21.55 14.6 21.6 14.55 21.55 14.25 21.65 14.1 21.85 13.2 22.5 Q12.7 23.3 13.45 24.2 L13.75 24.45 Q14.05 24.8 14.75 24.85 L15.1 24.8 15.95 25.95 16.5 26.6 16.95 27.05 M27.95 26.85 L29.05 25.75 29.95 24.4 30.3 23.8 30.65 23.55 31.55 21.55 32.1 20.4 Q32.9 18.4 32.45 16.9 32.2 15.75 30.65 15.8 L29.8 15.75 29.85 16.25 30.0 16.4 29.9 16.55 29.85 16.55 29.65 17.95 29.7 18.35 29.65 18.6 29.25 19.45 28.05 21.6 27.65 22.1 27.25 22.6 27.05 22.95 27.0 23.0 26.65 23.25 26.15 23.75 26.15 23.8 26.05 23.85 26.05 23.9 25.15 24.75 24.75 25.3 23.75 26.2 21.05 28.0 20.35 28.3 20.35 28.35 20.2 28.4 19.5 28.55 19.15 28.9 19.05 28.65 18.95 28.6 18.35 28.75 17.15 28.95 16.8 29.0 16.3 29.0 15.9 29.35 15.85 29.55 15.6 30.1 15.2 31.05 Q15.15 31.8 15.75 32.4 16.05 32.8 16.8 32.8 17.9 32.9 18.9 31.9 L18.95 31.8 18.95 31.85 19.45 31.55 20.1 31.5 21.25 31.1 22.9 30.45 Q23.6 30.0 24.5 29.65 L24.75 29.4 25.9 28.65 Q25.9 28.5 26.05 28.5 L27.4 27.4 27.8 27.05 27.9 26.9 27.95 26.85 M13.7 11.9 L13.75 11.7 14.65 10.25 15.75 7.0 15.3 6.3 15.25 6.3 -3.85 -22.65 -5.45 -24.75 -6.25 -25.7 -6.3 -25.75 -6.3 -26.05 Q-6.35 -26.55 -10.95 -27.75 L-16.9 -28.95 -30.6 -30.45 -30.65 -30.4 -31.8 -30.55 -31.9 -30.3 -26.55 -7.15 5.7 14.05 6.55 14.6 6.8 14.7 7.1 14.9 8.4 14.4 8.5 14.4 10.5 13.8 12.8 13.1 13.3 13.0 13.35 13.0 13.35 12.95 13.4 12.75 13.7 11.9 M15.9 11.1 L16.05 11.0 16.05 10.9 15.9 11.1 M32.85 25.95 Q32.5 25.0 31.75 25.25 31.35 25.4 30.5 26.55 L30.35 26.8 30.3 26.8 28.7 28.35 27.75 29.2 26.9 29.75 26.45 30.15 Q25.95 30.75 26.05 31.15 L26.05 31.3 26.2 31.4 25.95 31.8 Q25.85 32.3 26.15 32.55 26.55 32.95 27.25 32.85 28.2 32.7 28.9 32.05 L28.95 32.0 29.2 31.95 29.45 31.95 30.8 31.45 32.1 30.1 Q33.3 28.65 33.0 26.8 L32.8 25.95 32.9 26.05 32.85 25.95" fill="#000000" fill-rule="evenodd" stroke="none"/>
    <path d="M9.2 16.35 L13.8 14.9 14.1 14.75 14.2 14.65 14.25 14.55 15.05 13.85 15.15 13.75 18.6 6.15 18.3 5.65 Q18.25 5.2 17.05 3.35 L16.9 3.2 15.6 1.15 15.3 0.6 15.15 0.45 15.8 0.25 17.8 -0.85 19.5 -1.95 21.3 -2.5 Q24.85 -4.25 26.5 -2.6 27.5 -1.55 27.65 0.1 27.9 2.05 26.8 4.0 L24.55 8.15 21.25 12.8 19.15 15.05 16.8 15.25 9.2 16.35 M20.65 7.5 L20.65 7.55 20.7 7.6 20.65 7.5 M20.6 15.75 L21.3 14.95 22.05 14.15 24.1 11.85 24.85 12.65 26.85 14.85 26.85 14.9 28.35 16.3 27.95 17.95 Q27.25 20.15 25.9 21.85 L25.15 22.65 Q23.55 24.25 21.65 25.45 L19.75 26.5 17.35 27.5 16.95 27.05 20.55 23.9 Q22.1 22.35 22.65 20.25 23.3 18.0 22.2 16.8 L21.7 16.45 20.6 15.75 M27.65 22.1 L28.05 21.6 29.25 19.45 29.65 18.6 29.7 18.35 29.65 17.95 29.85 16.55 29.9 16.55 30.0 16.4 29.85 16.25 29.8 15.75 30.65 15.8 Q32.2 15.75 32.45 16.9 32.9 18.4 32.1 20.4 L31.55 21.55 30.65 23.55 30.3 23.8 29.95 24.4 29.05 25.75 27.95 26.85 Q29.85 24.0 28.4 22.6 L27.65 22.1 M30.3 26.8 L30.35 26.8 30.5 26.55 Q31.35 25.4 31.75 25.25 32.5 25.0 32.85 25.95 L32.8 25.95 33.0 26.8 Q33.3 28.65 32.1 30.1 L30.8 31.45 31.35 29.55 Q31.4 28.0 30.3 26.8" fill="#d36f00" fill-rule="evenodd" stroke="none"/>
    <path d="M19.15 15.05 L16.85 17.4 Q13.6 20.65 10.9 22.55 L4.15 26.5 Q2.05 27.65 0.1 27.5 -1.6 27.35 -2.55 26.4 L-3.05 25.8 Q-2.5 25.9 -1.8 25.25 L-0.6 23.5 Q0.25 22.0 1.15 21.05 1.85 20.45 2.45 20.1 L3.45 19.4 Q5.5 17.35 4.65 16.55 L2.15 16.6 Q0.85 17.25 -1.05 19.2 L-1.2 19.4 -1.45 19.75 -0.15 16.75 0.05 16.5 1.55 14.45 1.75 14.3 3.15 15.15 3.4 15.3 4.5 15.95 6.6 17.15 9.2 16.35 16.8 15.25 19.15 15.05 M16.95 27.05 L16.5 26.6 15.95 25.95 15.1 24.8 Q15.85 24.75 16.6 24.05 17.65 23.2 16.7 22.3 L16.55 22.1 16.15 21.85 Q15.35 21.35 14.6 21.6 L14.65 21.55 15.35 20.95 18.45 17.85 20.6 15.75 21.7 16.45 22.2 16.8 Q23.3 18.0 22.65 20.25 22.1 22.35 20.55 23.9 L16.95 27.05 M27.65 22.1 L28.4 22.6 Q29.85 24.0 27.95 26.85 L27.9 26.9 27.8 27.05 27.4 27.4 26.05 28.5 Q25.9 28.5 25.9 28.65 L24.75 29.4 24.5 29.65 Q23.6 30.0 22.9 30.45 L21.25 31.1 20.1 31.5 19.45 31.55 18.95 31.85 18.95 31.8 Q20.0 30.8 19.4 30.15 19.05 29.8 18.05 29.5 L17.8 29.5 17.1 29.35 16.8 29.45 Q16.0 29.7 15.75 29.95 L15.6 30.1 15.85 29.55 15.9 29.35 16.3 29.0 16.8 29.0 17.15 28.95 18.35 28.75 18.95 28.6 19.05 28.65 19.15 28.9 19.5 28.55 20.2 28.4 20.35 28.35 20.35 28.3 21.05 28.0 23.75 26.2 24.75 25.3 25.15 24.75 26.05 23.9 26.05 23.85 26.15 23.8 26.15 23.75 26.65 23.25 27.0 23.0 27.05 22.95 27.25 22.6 27.65 22.1 M30.3 26.8 Q31.4 28.0 31.35 29.55 L30.8 31.45 29.45 31.95 29.2 31.95 28.95 32.0 Q29.6 31.35 29.15 30.9 28.85 30.6 28.35 30.55 L28.25 30.5 28.2 30.55 27.85 30.55 27.25 30.7 26.95 30.8 26.2 31.2 26.2 31.4 26.05 31.3 26.05 31.15 Q25.95 30.75 26.45 30.15 L26.9 29.75 27.75 29.2 28.7 28.35 30.3 26.8" fill="#fae414" fill-rule="evenodd" stroke="none"/>
    <path d="M-6.25 -25.7 L-5.45 -24.75 -3.85 -22.65 15.25 6.3 15.3 6.3 15.75 7.0 14.65 10.25 13.75 11.7 13.7 11.9 -8.6 -11.05 -6.25 -25.7" fill="#4d4d4f" fill-rule="evenodd" stroke="none"/>
    <path d="M-6.25 -25.7 L-8.6 -11.05 13.7 11.9 13.4 12.75 6.0 5.3 0.8 0.1 -4.25 -5.0 -4.35 -4.9 -4.9 -5.5 -8.9 -9.55 -10.65 -10.85 -10.6 -10.9 -16.1 -9.65 -16.15 -9.75 -17.5 -9.4 -19.65 -8.75 -19.8 -8.85 -21.25 -8.55 -24.9 -7.45 -25.0 -7.55 -25.8 -7.35 -25.8 -7.6 -24.1 -8.15 -10.8 -11.35 -17.25 -18.6 Q-22.5 -24.05 -29.85 -29.6 L-30.85 -30.05 -31.9 -30.3 -31.8 -30.55 -30.65 -30.4 -30.6 -30.45 -16.9 -28.95 -10.95 -27.75 Q-6.35 -26.55 -6.3 -26.05 L-6.3 -25.75 -6.25 -25.7 M15.9 11.1 L16.05 10.9 16.05 11.0 15.9 11.1" fill="#9f9f9f" fill-rule="evenodd" stroke="none"/>
    <path d="M0.8 0.1 L6.0 5.3 5.0 5.45 -1.55 7.95 -8.15 3.65 0.8 0.1" fill="#9a9a9a" fill-rule="evenodd" stroke="none"/>
    <path d="M13.4 12.75 L13.35 12.95 13.3 13.0 12.8 13.1 10.5 13.8 8.5 14.4 8.4 14.4 -1.55 7.95 5.0 5.45 6.0 5.3 13.4 12.75" fill="#4f4f4f" fill-rule="evenodd" stroke="none"/>
    <path d="M13.35 12.95 L13.35 13.0 13.3 13.0 13.35 12.95 M8.4 14.4 L7.1 14.9 6.8 14.7 6.55 14.6 5.7 14.05 -26.55 -7.15 -31.9 -30.3 -30.85 -30.05 -29.85 -29.6 Q-22.5 -24.05 -17.25 -18.6 L-10.8 -11.35 -24.1 -8.15 -25.8 -7.6 -25.8 -7.35 -25.0 -7.55 -25.3 -7.35 -15.8 -1.25 -8.15 3.65 -1.55 7.95 8.4 14.4 M-16.1 -9.65 L-17.5 -9.4 -16.15 -9.75 -16.1 -9.65 M-19.65 -8.75 L-21.25 -8.55 -19.8 -8.85 -19.65 -8.75 M-25.5 -9.3 L-13.25 -11.85 -30.15 -28.8 -25.5 -9.3" fill="#838383" fill-rule="evenodd" stroke="none"/>
    <path d="M-3.05 25.8 Q-3.5 25.2 -3.45 24.6 L-1.8 20.3 -1.45 19.75 -1.2 19.4 -1.05 19.2 Q0.85 17.25 2.15 16.6 L4.65 16.55 Q5.5 17.35 3.45 19.4 L2.45 20.1 Q1.85 20.45 1.15 21.05 0.25 22.0 -0.6 23.5 L-1.8 25.25 Q-2.5 25.9 -3.05 25.8 M15.1 24.8 L14.75 24.85 Q14.05 24.8 13.75 24.45 L13.45 24.2 Q12.7 23.3 13.2 22.5 L14.1 21.85 14.25 21.65 14.55 21.55 14.6 21.6 Q15.35 21.35 16.15 21.85 L16.55 22.1 16.7 22.3 Q17.65 23.2 16.6 24.05 15.85 24.75 15.1 24.8 M18.95 31.8 L18.9 31.9 Q17.9 32.9 16.8 32.8 16.05 32.8 15.75 32.4 15.15 31.8 15.2 31.05 L15.6 30.1 15.75 29.95 Q16.0 29.7 16.8 29.45 L17.1 29.35 17.8 29.5 18.05 29.5 Q19.05 29.8 19.4 30.15 20.0 30.8 18.95 31.8 M26.2 31.4 L26.2 31.2 26.95 30.8 27.25 30.7 27.85 30.55 28.2 30.55 28.25 30.5 28.35 30.55 Q28.85 30.6 29.15 30.9 29.6 31.35 28.95 32.0 L28.9 32.05 Q28.2 32.7 27.25 32.85 26.55 32.95 26.15 32.55 25.85 32.3 25.95 31.8 L26.2 31.4 M-25.5 -9.3 L-30.15 -28.8 -13.25 -11.85 -25.5 -9.3" fill="#ffffff" fill-rule="evenodd" stroke="none"/>
    <path d="M-25.0 -7.55 L-24.9 -7.45 -21.25 -8.55 -19.65 -8.75 -17.5 -9.4 -16.1 -9.65 -10.6 -10.9 -10.65 -10.85 -8.9 -9.55 -4.9 -5.5 -6.15 -5.15 -15.8 -1.25 -25.3 -7.35 -25.0 -7.55" fill="#696969" fill-rule="evenodd" stroke="none"/>
    <path d="M-15.8 -1.25 L-6.15 -5.15 -4.9 -5.5 -4.35 -4.9 -4.25 -5.0 0.8 0.1 -8.15 3.65 -15.8 -1.25" fill="#878586" fill-rule="evenodd" stroke="none"/>
  </g>
</svg>
