<?xml version="1.0" encoding="UTF-8" standalone="no"?>
<svg xmlns:ffdec="https://www.free-decompiler.com/flash" xmlns:xlink="http://www.w3.org/1999/xlink" ffdec:objectType="shape" height="62.0px" width="62.0px" xmlns="http://www.w3.org/2000/svg">
  <g transform="matrix(1.0, 0.0, 0.0, 1.0, 31.0, 31.0)">
    <path d="M21.15 -21.15 Q29.9 -12.4 29.9 0.0 29.9 12.4 21.15 21.15 12.4 29.9 0.0 29.9 -12.4 29.9 -21.15 21.15 -29.9 12.4 -29.9 0.0 -29.9 -12.4 -21.15 -21.15 -12.4 -29.9 0.0 -29.9 12.4 -29.9 21.15 -21.15" fill="#cd8821" fill-rule="evenodd" stroke="none"/>
    <path d="M21.15 -21.15 Q29.9 -12.4 29.9 0.0 29.9 12.4 21.15 21.15 12.4 29.9 0.0 29.9 -12.4 29.9 -21.15 21.15 -29.9 12.4 -29.9 0.0 -29.9 -12.4 -21.15 -21.15 -12.4 -29.9 0.0 -29.9 12.4 -29.9 21.15 -21.15 Z" fill="none" stroke="#663300" stroke-linecap="square" stroke-linejoin="round" stroke-width="1.75"/>
  </g>
</svg>
