<?xml version="1.0" encoding="UTF-8" standalone="no"?>
<svg xmlns:ffdec="https://www.free-decompiler.com/flash" xmlns:xlink="http://www.w3.org/1999/xlink" ffdec:objectType="shape" height="10.25px" width="54.6px" xmlns="http://www.w3.org/2000/svg">
  <g transform="matrix(1.0, 0.0, 0.0, 1.0, -0.05, 5.05)">
    <path d="M1.55 -3.55 Q2.45 -4.4 3.7 -4.4 L51.0 -4.4 Q52.25 -4.4 53.1 -3.55 54.0 -2.65 54.0 -1.4 L54.0 1.55 Q54.0 2.8 53.1 3.65 52.25 4.55 51.0 4.55 L3.7 4.55 Q2.45 4.55 1.55 3.65 0.7 2.8 0.7 1.55 L0.7 -1.4 Q0.7 -2.65 1.55 -3.55" fill="#333333" fill-rule="evenodd" stroke="none"/>
    <path d="M1.55 -3.55 Q0.7 -2.65 0.7 -1.4 L0.7 1.55 Q0.7 2.8 1.55 3.65 2.45 4.55 3.7 4.55 L51.0 4.55 Q52.25 4.55 53.1 3.65 54.0 2.8 54.0 1.55 L54.0 -1.4 Q54.0 -2.65 53.1 -3.55 52.25 -4.4 51.0 -4.4 L3.7 -4.4 Q2.45 -4.4 1.55 -3.55 Z" fill="none" stroke="#330000" stroke-linecap="square" stroke-linejoin="round" stroke-width="1.0"/>
  </g>
</svg>
