<?xml version="1.0" encoding="UTF-8" standalone="no"?>
<svg xmlns:ffdec="https://www.free-decompiler.com/flash" xmlns:xlink="http://www.w3.org/1999/xlink" ffdec:objectType="shape" height="74.9px" width="69.25px" xmlns="http://www.w3.org/2000/svg">
  <g transform="matrix(1.0, 0.0, 0.0, 1.0, 34.7, 37.45)">
    <path d="M0.1 -21.45 L-1.9 -19.3 -1.8 -19.15 -0.7 -17.75 -0.05 -17.05 0.2 -16.55 1.95 -17.7 2.7 -18.15 3.3 -18.55 4.45 -18.75 8.25 -13.6 10.5 -10.15 11.8 -7.95 10.0 -7.0 7.65 -5.45 9.0 -5.65 12.0 -3.45 18.65 0.55 25.85 5.3 30.85 8.65 30.9 8.95 31.6 13.6 32.45 18.65 33.9 29.55 34.05 29.9 34.1 32.1 Q34.15 34.35 34.5 36.7 L34.55 37.45 28.85 35.55 20.95 33.35 16.5 31.95 13.65 31.25 Q9.25 29.9 8.05 29.1 7.7 29.0 7.55 28.75 L5.4 23.6 1.4 14.55 Q0.3 12.25 -1.5 7.25 L-2.0 5.3 -2.25 4.3 -4.4 6.75 -4.45 7.0 -5.0 7.6 -6.3 6.3 -9.6 3.0 -11.25 1.3 -13.05 -0.25 -14.5 -1.65 -13.7 -2.85 -12.95 -4.0 -12.9 -4.0 -12.1 -4.9 -12.6 -5.55 -15.45 -7.95 -21.0 -12.6 -24.05 -14.75 -27.45 -16.75 -31.45 -18.9 -34.35 -20.45 Q-35.85 -22.35 -30.55 -29.8 -27.2 -34.55 -25.45 -35.65 -22.95 -38.1 -22.15 -37.2 L-22.1 -36.75 -21.25 -36.35 -18.55 -34.75 Q-17.55 -37.25 -15.95 -36.9 -13.6 -35.8 -10.25 -32.45 L-5.0 -27.6 0.0 -22.65 Q0.4 -22.25 0.1 -21.45 M-4.0 1.6 L0.2 -1.9 4.7 -6.1 7.25 -8.2 6.7 -8.8 Q6.05 -9.4 5.2 -11.15 L3.85 -13.45 3.8 -13.6 3.65 -13.85 3.7 -13.55 -0.25 -10.0 -2.8 -7.65 -5.8 -5.0 -9.2 -1.45 Q-8.35 -0.05 -6.85 1.25 -6.2 2.0 -5.75 3.0 L-5.6 3.35 -4.7 2.3 -4.0 1.6 M4.8 -1.85 L3.65 -0.7 2.55 0.3 1.65 1.0 0.8 1.55 2.7 5.55 4.05 8.85 5.35 12.25 Q5.55 13.0 8.9 19.9 L10.45 23.5 11.1 25.35 12.3 25.65 14.75 26.6 20.15 28.3 25.5 30.15 28.4 31.25 29.0 31.7 29.75 31.9 Q30.05 31.95 30.35 32.15 L30.55 32.25 30.45 31.7 Q30.25 31.5 30.35 30.95 L29.45 26.55 28.45 20.9 27.8 15.25 27.2 12.75 27.15 11.5 25.5 10.5 22.25 8.35 15.3 3.55 12.45 1.8 12.2 1.7 9.15 -0.25 5.55 -2.8 4.8 -1.85 M-14.6 -32.0 L-15.75 -33.1 Q-16.2 -32.5 -16.9 -30.3 -17.6 -28.15 -18.15 -27.65 L-18.3 -27.5 -19.05 -25.7 -17.45 -24.25 -15.5 -22.75 Q-14.1 -21.95 -11.8 -19.8 L-8.3 -16.75 -7.7 -17.45 -7.75 -17.5 -8.1 -17.85 -8.9 -18.65 -11.5 -21.25 -11.55 -21.3 -11.65 -21.45 -13.0 -22.75 -14.3 -24.0 -15.5 -25.2 -15.9 -25.8 -16.35 -26.55 Q-16.5 -27.2 -15.9 -28.95 L-15.7 -29.5 -15.65 -29.65 -15.6 -29.8 -15.05 -31.25 -14.6 -32.0 M-13.9 -24.8 L-10.8 -21.7 -10.6 -21.55 -9.2 -20.15 -8.95 -19.85 -8.2 -19.15 -6.95 -18.05 -5.6 -19.7 -4.6 -20.35 -3.6 -21.65 -14.0 -31.45 -14.65 -29.8 Q-15.55 -27.4 -15.45 -26.85 L-14.7 -25.7 -13.9 -24.8 M-22.6 -34.5 L-22.65 -34.6 -22.7 -34.5 -22.6 -34.5 M-3.6 -13.3 L-3.1 -13.75 -2.45 -14.3 -2.75 -14.65 -4.1 -16.35 -4.4 -16.7 -6.85 -14.1 -7.85 -12.75 -8.0 -13.0 -12.05 -16.45 -16.15 -19.9 -20.55 -23.0 -22.3 -24.3 Q-22.5 -25.75 -20.7 -30.05 L-20.0 -31.45 -20.55 -31.8 -22.7 -32.9 -23.3 -33.25 -24.4 -31.75 -28.2 -27.0 -31.1 -22.6 Q-26.25 -20.45 -19.55 -15.65 L-15.1 -12.3 -15.0 -12.2 Q-12.95 -10.8 -10.4 -8.25 L-9.55 -7.55 -7.15 -9.9 -3.6 -13.3" fill="#000000" fill-rule="evenodd" stroke="none"/>
    <path d="M3.8 -13.6 L3.85 -13.45 5.2 -11.15 Q6.05 -9.4 6.7 -8.8 L7.25 -8.2 4.7 -6.1 0.2 -1.9 -4.0 1.6 Q-5.15 0.2 -5.35 -0.7 -5.65 -2.45 -3.95 -4.5 -2.3 -6.65 -2.35 -6.8 -2.4 -7.3 -2.75 -7.65 L-2.8 -7.65 -0.25 -10.0 3.7 -13.55 3.8 -13.6" fill="#444444" fill-rule="evenodd" stroke="none"/>
    <path d="M2.55 0.3 L3.65 -0.7 4.8 -1.85 11.6 3.1 8.6 7.3 2.55 0.3" fill="#9a9a9a" fill-rule="evenodd" stroke="none"/>
    <path d="M11.6 3.1 L4.8 -1.85 5.55 -2.8 9.15 -0.25 12.2 1.7 12.45 1.8 15.3 3.55 22.25 8.35 25.5 10.5 27.15 11.5 27.2 12.75 27.8 15.25 28.45 20.9 29.45 26.55 30.35 30.95 Q30.25 31.5 30.45 31.7 L30.55 32.25 30.35 32.15 Q30.05 31.95 29.75 31.9 L29.0 31.7 28.4 31.25 25.5 30.15 20.15 28.3 14.75 26.6 12.3 25.65 11.1 25.35 10.45 23.5 8.9 19.9 Q5.55 13.0 5.35 12.25 L4.05 8.85 2.7 5.55 0.8 1.55 1.65 1.0 12.45 24.45 12.5 24.6 27.8 29.75 27.85 29.75 28.6 29.9 25.65 13.0 25.5 13.25 18.65 8.25 11.6 3.1" fill="#838383" fill-rule="evenodd" stroke="none"/>
    <path d="M-14.6 -32.0 L-15.05 -31.25 -15.6 -29.8 -15.65 -29.65 -15.7 -29.5 -15.9 -28.95 Q-16.5 -27.2 -16.35 -26.55 L-15.9 -25.8 -15.5 -25.2 -14.3 -24.0 -13.0 -22.75 -11.65 -21.45 -11.55 -21.3 -11.5 -21.25 -8.9 -18.65 -8.1 -17.85 -7.75 -17.5 -7.7 -17.45 -8.3 -16.75 -11.8 -19.8 Q-14.1 -21.95 -15.5 -22.75 L-17.45 -24.25 -19.05 -25.7 -18.3 -27.5 -18.15 -27.65 Q-17.6 -28.15 -16.9 -30.3 -16.2 -32.5 -15.75 -33.1 L-14.6 -32.0" fill="#595959" fill-rule="evenodd" stroke="none"/>
    <path d="M-13.9 -24.8 L-14.7 -25.7 -15.45 -26.85 Q-15.55 -27.4 -14.65 -29.8 L-14.0 -31.45 -3.6 -21.65 -4.6 -20.35 -5.6 -19.7 -6.95 -18.05 -8.2 -19.15 -8.95 -19.85 -9.2 -20.15 -10.6 -21.55 -10.8 -21.7 -13.9 -24.8" fill="#919191" fill-rule="evenodd" stroke="none"/>
    <path d="M-2.8 -7.65 L-2.75 -7.65 Q-2.4 -7.3 -2.35 -6.8 -2.3 -6.65 -3.95 -4.5 -5.65 -2.45 -5.35 -0.7 -5.15 0.2 -4.0 1.6 L-4.7 2.3 -5.6 3.35 -5.75 3.0 Q-6.2 2.0 -6.85 1.25 -8.35 -0.05 -9.2 -1.45 L-5.8 -5.0 -2.8 -7.65 M-3.6 -13.3 L-7.15 -9.9 -9.55 -7.55 -10.4 -8.25 Q-12.95 -10.8 -15.0 -12.2 L-15.1 -12.3 -19.55 -15.65 Q-26.25 -20.45 -31.1 -22.6 L-28.2 -27.0 -24.4 -31.75 -23.3 -33.25 -22.7 -32.9 Q-23.45 -31.25 -25.55 -27.95 -26.8 -26.0 -26.55 -24.65 -26.1 -22.1 -17.05 -15.55 -8.5 -9.35 -7.9 -9.45 L-4.1 -12.85 -3.6 -13.3" fill="#2f2f2f" fill-rule="evenodd" stroke="none"/>
    <path d="M-22.7 -32.9 L-20.55 -31.8 -20.0 -31.45 -20.7 -30.05 Q-22.5 -25.75 -22.3 -24.3 L-20.55 -23.0 -16.15 -19.9 -12.05 -16.45 -8.0 -13.0 -7.85 -12.75 -6.85 -14.1 -4.4 -16.7 -4.1 -16.35 -2.75 -14.65 -2.45 -14.3 -3.1 -13.75 -3.6 -13.3 -4.1 -12.85 -7.9 -9.45 Q-8.5 -9.35 -17.05 -15.55 -26.1 -22.1 -26.55 -24.65 -26.8 -26.0 -25.55 -27.95 -23.45 -31.25 -22.7 -32.9" fill="#4d4d4d" fill-rule="evenodd" stroke="none"/>
    <path d="M25.5 13.25 L25.65 13.0 28.6 29.9 27.85 29.75 20.2 20.9 25.5 13.25" fill="#ffffff" fill-rule="evenodd" stroke="none"/>
    <path d="M8.6 7.3 L11.6 3.1 18.65 8.25 14.25 13.9 8.6 7.3" fill="#878586" fill-rule="evenodd" stroke="none"/>
    <path d="M2.55 0.3 L8.6 7.3 14.25 13.9 16.6 16.65 12.45 24.45 1.65 1.0 2.55 0.3" fill="#4d4d4f" fill-rule="evenodd" stroke="none"/>
    <path d="M18.65 8.25 L25.5 13.25 20.2 20.9 16.6 16.65 14.25 13.9 18.65 8.25" fill="#696969" fill-rule="evenodd" stroke="none"/>
    <path d="M27.85 29.75 L27.8 29.75 12.5 24.6 12.45 24.45 16.6 16.65 20.2 20.9 27.85 29.75" fill="#9f9f9f" fill-rule="evenodd" stroke="none"/>
    <path d="M3.8 0.2 L24.3 25.35 17.0 20.0 16.0 19.1 2.7 1.15 3.8 0.2" fill="#ffffff" fill-rule="evenodd" stroke="none"/>
    <path d="M24.3 25.35 L3.8 0.2 4.85 -0.65 20.45 17.3 24.55 25.7 24.3 25.35" fill="#777777" fill-rule="evenodd" stroke="none"/>
  </g>
</svg>
