<?xml version="1.0" encoding="UTF-8" standalone="no"?>
<svg xmlns:ffdec="https://www.free-decompiler.com/flash" xmlns:xlink="http://www.w3.org/1999/xlink" ffdec:objectType="shape" height="23.0px" width="62.5px" xmlns="http://www.w3.org/2000/svg">
  <g transform="matrix(1.0, 0.0, 0.0, 1.0, 81.65, -46.25)">
    <path d="M-71.15 47.95 L-69.05 47.8 Q-67.5 47.7 -66.5 48.5 L-66.8 48.8 -67.45 49.3 -67.65 49.5 -70.45 50.2 Q-73.05 50.85 -74.25 49.0 L-74.1 48.65 -73.7 48.3 -73.05 48.05 -73.0 48.0 -72.75 48.0 -72.5 47.8 -72.0 47.6 Q-71.55 47.7 -71.15 47.95 M-60.0 46.25 L-57.5 46.25 Q-56.3 46.2 -55.65 47.1 L-55.6 47.5 -55.65 47.85 -55.75 48.25 -55.9 48.6 -56.25 48.85 -56.5 48.95 -57.0 49.1 -57.5 49.15 -59.0 48.75 -59.75 48.5 -60.1 48.1 -60.55 47.35 Q-61.0 46.4 -60.0 46.3 L-60.0 46.25 M-59.5 49.1 L-58.5 49.5 -57.9 50.1 -58.25 50.5 -58.55 50.7 -59.0 50.85 -60.0 50.4 -60.4 49.85 -60.25 49.5 -60.0 49.3 -59.55 49.15 -59.5 49.1 M-44.0 51.5 L-39.55 51.75 Q-38.3 51.85 -37.25 52.6 L-36.95 53.0 -36.75 53.35 -36.5 53.75 -36.55 54.1 -36.6 54.85 -36.7 55.2 -36.9 55.6 Q-44.5 56.95 -52.4 55.6 L-52.6 55.2 -52.75 54.5 -52.75 54.1 -52.65 53.75 -52.35 53.45 Q-49.1 52.15 -45.4 52.25 L-45.0 51.9 -44.6 51.7 -44.05 51.55 -44.0 51.5 M-50.5 61.0 L-49.9 61.2 Q-49.15 61.4 -48.5 61.8 L-47.9 62.35 -48.0 62.75 -48.15 63.1 -48.25 63.35 -48.5 63.45 -51.55 63.55 -51.9 63.75 -52.5 63.85 -53.4 63.6 -53.9 63.35 -54.5 63.6 -55.2 63.3 -55.5 63.0 -55.6 62.6 -55.6 62.5 -55.9 62.25 -56.0 62.0 -55.95 61.65 -55.6 61.3 -55.05 61.05 -55.0 61.0 -54.25 61.0 -53.0 60.6 -52.5 60.65 -51.65 60.9 -51.45 61.0 -50.5 61.0 M-69.0 55.3 L-68.55 55.15 -68.5 55.1 -66.5 55.25 Q-65.45 55.3 -65.45 56.0 L-64.75 56.25 -64.45 56.65 -64.35 57.0 -64.4 57.35 -64.9 57.7 -65.5 58.0 -67.0 58.0 -68.0 57.5 -68.55 57.15 -68.9 56.7 -69.1 56.55 -69.35 56.2 -69.4 55.85 -69.25 55.5 -69.0 55.3 M-79.5 50.85 L-78.6 51.35 Q-77.7 51.7 -77.65 52.6 L-77.9 53.0 -78.05 53.15 -78.5 53.35 -79.0 53.5 -80.25 53.3 Q-81.3 53.05 -81.65 52.1 L-81.55 51.75 -81.2 51.25 -80.55 50.95 -80.5 50.85 -79.5 50.85 M-71.5 63.85 L-68.55 64.05 Q-67.3 64.25 -66.25 65.0 L-66.05 65.4 -65.95 66.1 -66.05 66.85 -66.15 67.25 -66.4 67.55 Q-67.3 68.45 -68.5 68.75 L-70.0 69.25 -72.0 69.05 -74.75 68.35 -75.15 68.0 -75.4 67.75 -75.5 67.65 -76.15 67.25 -76.65 66.6 -76.6 66.25 -76.45 65.9 -76.25 65.6 -76.0 65.5 -75.55 65.2 -75.15 64.85 -74.9 64.6 -74.65 64.5 -72.4 64.1 -71.5 63.85 M-19.15 58.1 L-19.6 58.6 -20.5 59.0 -21.5 58.55 -22.0 58.0 -21.55 57.35 -21.05 57.05 -21.0 57.0 -20.0 57.1 Q-19.05 57.25 -19.15 58.1 M-28.65 55.1 L-28.5 55.5 -28.65 55.85 -28.95 56.15 -29.5 56.5 -31.0 56.5 -31.6 56.2 -31.95 55.8 -32.0 55.5 -31.95 55.15 -31.6 54.8 -31.0 54.5 -29.5 54.5 -28.95 54.8 -28.65 55.1 M-29.35 60.1 L-29.55 60.45 -30.0 60.75 -31.0 60.8 -33.0 60.85 -33.6 60.55 -33.85 60.2 -33.9 59.85 -33.75 59.5 -33.5 59.3 -33.05 59.15 -33.0 59.1 -31.05 59.3 -29.4 59.75 -29.35 60.1" fill="#993333" fill-rule="evenodd" stroke="none"/>
  </g>
</svg>
