<?xml version="1.0" encoding="UTF-8" standalone="no"?>
<svg xmlns:ffdec="https://www.free-decompiler.com/flash" xmlns:xlink="http://www.w3.org/1999/xlink" ffdec:objectType="shape" height="61.75px" width="166.45px" xmlns="http://www.w3.org/2000/svg">
  <g transform="matrix(1.0, 0.0, 0.0, 1.0, 81.65, -7.5)">
    <path d="M84.75 30.75 Q85.0 31.45 84.25 31.9 L83.5 32.5 83.0 32.65 82.25 32.85 81.8 33.2 81.0 33.6 Q80.4 33.45 79.95 33.1 L79.5 32.5 Q80.65 30.5 83.2 30.2 L84.0 30.1 84.55 30.45 84.75 30.75 M83.0 36.5 L83.6 36.8 84.1 37.1 84.15 37.5 84.05 37.8 83.6 38.25 82.95 38.45 81.5 39.0 81.0 38.95 80.4 38.7 80.0 38.35 80.0 38.0 Q80.0 37.3 80.7 36.85 L81.5 36.5 83.0 36.5 M82.5 42.85 L80.0 42.9 Q78.5 42.9 78.35 41.75 78.5 41.6 78.65 41.55 L79.5 41.25 80.0 41.1 82.5 41.1 83.05 41.45 83.25 41.75 83.35 42.1 83.1 42.5 82.95 42.65 82.5 42.85 M60.9 16.55 L60.85 16.75 60.7 17.1 60.65 17.2 61.0 17.75 60.7 18.5 Q60.6 19.05 60.85 19.6 L60.65 20.0 60.5 20.35 60.5 20.4 60.25 20.1 60.25 19.75 60.2 19.45 60.15 18.45 60.15 18.25 60.1 17.85 60.1 17.75 59.65 17.8 59.5 17.75 59.15 17.9 58.75 18.25 58.4 15.6 58.35 12.25 58.4 12.25 57.8 12.45 57.65 12.6 58.0 12.85 58.05 13.6 58.1 14.75 57.95 15.1 57.75 15.5 57.6 15.85 57.6 16.25 57.55 16.6 57.5 17.0 56.95 17.7 56.25 18.5 55.9 20.7 Q55.85 21.75 55.15 22.5 L55.2 22.25 Q55.8 21.5 55.75 20.75 L55.55 20.45 55.0 20.1 54.5 20.15 54.0 20.25 53.85 20.35 Q53.3 20.75 53.25 21.35 53.25 22.1 52.6 22.1 L52.45 20.6 52.5 19.9 52.5 19.85 52.85 19.1 52.85 18.75 52.85 18.6 52.85 18.35 53.35 17.25 53.65 16.35 54.85 15.0 55.05 14.6 55.25 13.85 55.05 13.5 55.1 13.35 55.3 13.1 55.0 13.2 54.85 13.3 54.75 13.2 54.6 12.75 54.2 12.4 53.55 12.1 55.6 11.6 56.25 11.6 Q56.4 12.2 56.0 12.65 L56.3 12.5 56.25 12.35 56.4 11.6 Q56.6 10.85 57.1 10.35 57.25 10.15 57.5 10.1 L58.2 10.4 58.75 10.75 59.05 11.15 59.1 11.25 59.5 10.75 Q59.3 10.05 58.7 9.65 58.0 9.2 58.0 8.5 L58.05 8.15 Q58.15 7.9 58.4 7.8 58.65 7.6 59.0 7.5 L59.45 7.55 60.1 7.75 60.5 8.45 61.35 9.6 61.45 10.3 61.4 10.3 61.0 10.6 61.0 11.35 61.0 12.5 61.0 14.0 60.75 14.35 60.5 14.75 60.5 15.1 60.5 15.85 60.6 16.25 60.9 16.55 M60.25 26.75 L60.1 27.1 60.15 26.95 60.15 26.9 60.25 26.75 M59.8 27.6 L59.65 27.85 59.35 28.25 58.5 28.35 57.5 28.0 57.4 27.6 57.4 27.55 59.8 27.6 M57.3 22.25 L57.5 22.0 57.75 21.6 57.75 21.25 57.75 20.85 58.0 20.5 58.35 20.15 58.4 20.25 58.65 20.6 58.6 22.35 58.95 22.75 59.1 23.1 59.1 23.5 59.1 23.85 59.1 24.25 58.9 24.6 58.75 25.0 58.7 25.75 58.65 26.1 57.75 26.05 57.75 25.35 57.75 25.0 57.55 24.65 57.25 24.25 57.25 23.85 57.25 23.35 57.25 23.25 57.25 23.1 57.3 22.6 57.3 22.25 M53.3 12.25 L53.5 12.15 53.45 12.2 53.3 12.25 M49.85 25.45 Q50.65 25.65 50.75 26.5 L50.6 26.85 50.45 27.25 50.2 27.6 50.0 27.85 Q47.4 27.95 45.1 28.95 L44.0 29.35 43.15 29.05 42.7 28.8 42.25 28.6 42.4 28.25 42.55 27.85 42.6 27.5 Q43.5 26.45 44.85 25.95 46.25 25.45 47.5 25.1 L49.85 25.45 M46.0 29.75 L49.0 29.95 Q49.95 30.1 50.35 31.0 L50.45 31.35 50.4 31.7 50.25 32.15 50.05 32.45 49.85 32.75 47.0 33.3 Q46.05 33.4 45.2 33.85 L46.1 34.5 46.5 34.6 47.2 34.95 47.6 35.25 47.65 35.55 48.7 35.95 49.1 36.25 49.15 36.6 48.95 36.95 48.5 37.25 48.0 37.1 47.5 37.0 47.0 36.85 43.95 37.2 41.85 37.6 40.7 38.35 39.9 38.8 40.25 39.1 41.55 39.45 41.75 39.6 41.45 39.7 40.1 40.0 39.95 40.15 39.5 40.35 33.5 40.8 Q31.1 41.1 30.6 39.35 L30.75 39.0 Q30.85 38.85 31.0 38.8 L31.5 38.6 33.5 38.55 33.5 38.5 37.45 38.25 37.95 38.25 41.5 35.75 42.6 35.6 38.8 34.4 Q36.65 33.7 35.85 32.0 L36.2 31.3 36.5 31.05 36.95 30.95 37.0 30.85 41.9 32.45 42.5 31.5 43.6 30.75 Q44.7 30.0 45.95 29.8 L46.0 29.75 M41.35 41.95 Q37.85 42.85 34.85 44.85 33.85 45.0 32.95 45.4 L32.25 45.6 Q34.8 43.5 37.75 41.7 41.05 39.7 44.75 38.85 45.05 41.0 41.35 41.95 M43.35 47.85 L43.0 48.1 39.0 48.85 37.15 48.15 36.75 47.85 36.55 47.1 36.55 46.0 36.75 45.6 Q42.6 43.35 49.0 43.5 L49.2 43.55 52.25 41.15 Q52.9 40.65 53.5 40.6 L54.35 40.9 54.85 41.25 55.1 41.65 55.25 42.0 55.35 42.35 55.3 42.75 55.3 42.9 57.45 43.15 Q58.3 43.25 58.35 44.1 L58.1 44.5 57.95 44.65 57.5 44.85 Q54.05 45.2 51.35 47.6 L48.85 49.85 47.75 50.4 47.1 50.7 45.85 51.35 45.4 51.2 45.45 50.95 45.6 50.6 45.5 50.25 45.5 49.85 48.55 46.75 43.75 47.5 43.35 47.85 M59.25 46.0 Q60.3 45.15 61.5 44.5 L63.1 44.4 63.75 44.35 64.35 44.75 64.3 45.1 64.1 45.5 63.85 45.85 63.65 46.0 63.6 46.1 63.5 46.5 63.7 46.9 63.85 47.25 63.8 49.5 64.0 51.35 Q63.6 52.3 63.55 53.25 L63.0 54.75 62.95 57.0 Q62.95 57.95 62.5 58.75 L60.9 58.55 60.5 58.25 Q60.1 57.15 60.05 56.0 L60.0 54.1 60.15 53.75 60.35 53.35 60.5 53.0 Q60.4 52.2 60.6 51.5 60.75 50.85 61.1 50.35 L61.1 50.0 61.1 49.6 61.1 49.25 61.35 48.7 61.25 48.7 60.5 49.0 59.95 49.7 59.35 50.35 55.85 52.15 53.85 53.5 53.6 53.6 52.6 53.85 51.75 54.6 51.35 55.0 49.85 55.35 49.0 55.6 47.65 55.25 47.25 55.0 Q46.7 54.35 46.8 53.5 L46.95 52.0 47.1 51.6 Q49.15 50.2 51.5 49.65 L53.6 49.35 Q55.3 48.4 57.05 47.7 L59.25 46.0 M70.45 41.2 L70.5 41.1 71.1 41.35 71.45 42.85 71.25 44.35 70.4 44.95 69.5 45.1 69.6 43.6 69.6 41.75 69.9 41.45 70.45 41.2 M75.0 47.1 L77.45 47.7 79.1 48.25 79.15 48.6 78.95 48.95 78.5 49.25 76.0 49.2 Q74.5 49.15 73.85 48.0 L74.05 47.65 74.35 47.35 74.5 47.25 75.0 47.1 M30.25 37.6 Q30.8 38.5 29.5 38.75 28.9 38.85 28.35 39.1 L23.0 39.6 Q20.9 40.3 20.85 38.75 24.35 37.4 28.25 37.65 L30.0 37.6 30.25 37.6 M25.5 42.75 Q29.8 42.95 34.0 42.75 L34.1 42.75 Q34.4 43.45 33.5 43.65 L32.25 44.1 24.75 43.75 25.1 43.05 25.5 42.75 M73.0 56.0 L72.85 56.35 72.55 56.65 72.0 57.0 Q70.95 57.05 70.1 56.35 L69.75 56.0 69.25 55.25 68.75 54.5 68.7 53.35 68.55 51.85 68.6 51.5 68.95 51.1 69.1 50.85 69.25 50.75 69.5 50.75 69.6 50.75 70.35 51.5 71.0 52.25 71.4 53.3 71.75 54.5 72.55 55.3 73.0 56.0" fill="#dcb8b4" fill-rule="evenodd" stroke="none"/>
    <path d="M61.45 10.3 L61.95 10.05 62.0 10.0 62.55 10.3 62.85 10.6 63.0 13.6 62.8 14.9 62.25 16.25 62.05 16.55 61.5 16.85 60.9 16.55 60.6 16.25 60.5 15.85 60.5 15.1 60.5 14.75 60.75 14.35 61.0 14.0 61.0 12.5 61.0 11.35 61.0 10.6 61.4 10.3 61.45 10.3 M60.5 20.4 L60.6 20.5 60.85 20.85 60.9 23.5 60.75 26.1 60.25 26.75 60.15 26.9 60.15 26.95 59.85 27.5 57.3 27.5 57.1 27.5 56.5 27.1 55.85 26.75 55.85 24.1 56.0 21.85 56.4 21.75 56.75 21.95 57.0 22.25 57.1 23.65 57.05 24.1 Q57.0 25.05 57.25 26.0 L57.75 26.05 58.65 26.1 58.85 26.1 Q59.3 24.9 59.2 23.5 L59.1 21.25 58.65 20.6 58.4 20.25 58.35 20.15 Q58.05 19.6 58.25 19.0 L58.75 18.25 59.15 17.9 59.5 17.75 59.65 17.8 60.1 17.85 60.15 18.25 60.15 18.45 60.0 19.0 60.15 19.4 60.2 19.45 60.25 19.75 60.25 20.1 60.5 20.4 M53.3 24.1 L53.25 24.1 52.5 24.25 51.6 24.0 Q51.15 22.35 51.35 20.6 L51.5 18.0 51.75 17.6 52.0 17.25 52.05 16.9 52.05 16.85 52.1 16.5 52.55 15.7 52.6 15.7 52.1 15.75 51.7 16.05 51.05 16.35 51.0 16.35 50.45 16.0 50.0 15.35 50.0 15.0 50.05 14.65 50.35 14.25 51.1 13.85 51.25 13.5 51.6 13.1 52.2 12.7 52.6 12.35 53.3 12.25 53.45 12.2 53.5 12.15 53.5 12.1 53.55 12.1 54.2 12.4 54.6 12.75 54.75 13.2 54.75 13.5 54.55 14.6 54.35 15.0 53.45 15.45 53.15 15.55 53.25 15.75 53.3 16.1 53.35 16.5 53.0 17.25 53.0 18.0 52.75 18.35 52.5 18.75 52.5 19.9 52.45 20.6 52.6 22.1 Q53.25 22.1 53.25 21.35 53.3 20.75 53.85 20.35 L54.0 20.25 54.5 20.15 55.0 20.1 55.55 20.45 55.75 20.75 Q55.8 21.5 55.2 22.25 L55.05 22.35 54.6 23.0 53.7 23.7 53.3 24.1 M-71.15 47.95 L-69.05 47.8 Q-67.5 47.7 -66.5 48.5 L-66.8 48.8 -67.45 49.3 -67.65 49.5 -70.45 50.2 Q-73.05 50.85 -74.25 49.0 L-74.1 48.65 -73.7 48.3 -73.05 48.05 -73.0 48.0 -72.75 48.0 -72.5 47.8 -72.0 47.6 Q-71.55 47.7 -71.15 47.95 M-60.0 46.25 L-57.5 46.25 Q-56.3 46.2 -55.65 47.1 L-55.6 47.5 -55.65 47.85 -55.75 48.25 -55.9 48.6 -56.25 48.85 -56.5 48.95 -57.0 49.1 -57.5 49.15 -59.0 48.75 -59.75 48.5 -60.1 48.1 -60.55 47.35 Q-61.0 46.4 -60.0 46.3 L-60.0 46.25 M-59.5 49.1 L-58.5 49.5 -57.9 50.1 -58.25 50.5 -58.55 50.7 -59.0 50.85 -60.0 50.4 -60.4 49.85 -60.25 49.5 -60.0 49.3 -59.55 49.15 -59.5 49.1 M-44.0 51.5 L-39.55 51.75 Q-38.3 51.85 -37.25 52.6 L-36.95 53.0 -36.75 53.35 -36.5 53.75 -36.55 54.1 -36.6 54.85 -36.7 55.2 -36.9 55.6 Q-44.5 56.95 -52.4 55.6 L-52.6 55.2 -52.75 54.5 -52.75 54.1 -52.65 53.75 -52.35 53.45 Q-49.1 52.15 -45.4 52.25 L-45.0 51.9 -44.6 51.7 -44.05 51.55 -44.0 51.5 M-50.5 61.0 L-49.9 61.2 Q-49.15 61.4 -48.5 61.8 L-47.9 62.35 -48.0 62.75 -48.15 63.1 -48.25 63.35 -48.5 63.45 -51.55 63.55 -51.9 63.75 -52.5 63.85 -53.4 63.6 -53.9 63.35 -54.5 63.6 -55.2 63.3 -55.5 63.0 -55.6 62.6 -55.6 62.5 -55.9 62.25 -56.0 62.0 -55.95 61.65 -55.6 61.3 -55.05 61.05 -55.0 61.0 -54.25 61.0 -53.0 60.6 -52.5 60.65 -51.65 60.9 -51.45 61.0 -50.5 61.0 M-69.0 55.3 L-68.55 55.15 -68.5 55.1 -66.5 55.25 Q-65.45 55.3 -65.45 56.0 L-64.75 56.25 -64.45 56.65 -64.35 57.0 -64.4 57.35 -64.9 57.7 -65.5 58.0 -67.0 58.0 -68.0 57.5 -68.55 57.15 -68.9 56.7 -69.1 56.55 -69.35 56.2 -69.4 55.85 -69.25 55.5 -69.0 55.3 M-79.5 50.85 L-78.6 51.35 Q-77.7 51.7 -77.65 52.6 L-77.9 53.0 -78.05 53.15 -78.5 53.35 -79.0 53.5 -80.25 53.3 Q-81.3 53.05 -81.65 52.1 L-81.55 51.75 -81.2 51.25 -80.55 50.95 -80.5 50.85 -79.5 50.85 M-71.5 63.85 L-68.55 64.05 Q-67.3 64.25 -66.25 65.0 L-66.05 65.4 -65.95 66.1 -66.05 66.85 -66.15 67.25 -66.4 67.55 Q-67.3 68.45 -68.5 68.75 L-70.0 69.25 -72.0 69.05 -74.75 68.35 -75.15 68.0 -75.4 67.75 -75.5 67.65 -76.15 67.25 -76.65 66.6 -76.6 66.25 -76.45 65.9 -76.25 65.6 -76.0 65.5 -75.55 65.2 -75.15 64.85 -74.9 64.6 -74.65 64.5 -72.4 64.1 -71.5 63.85 M-19.15 58.1 L-19.6 58.6 -20.5 59.0 -21.5 58.55 -22.0 58.0 -21.55 57.35 -21.05 57.05 -21.0 57.0 -20.0 57.1 Q-19.05 57.25 -19.15 58.1 M-28.65 55.1 L-28.5 55.5 -28.65 55.85 -28.95 56.15 -29.5 56.5 -31.0 56.5 -31.6 56.2 -31.95 55.8 -32.0 55.5 -31.95 55.15 -31.6 54.8 -31.0 54.5 -29.5 54.5 -28.95 54.8 -28.65 55.1 M-29.35 60.1 L-29.55 60.45 -30.0 60.75 -31.0 60.8 -33.0 60.85 -33.6 60.55 -33.85 60.2 -33.9 59.85 -33.75 59.5 -33.5 59.3 -33.05 59.15 -33.0 59.1 -31.05 59.3 -29.4 59.75 -29.35 60.1" fill="#993333" fill-rule="evenodd" stroke="none"/>
    <path d="M62.8 14.9 L62.6 15.85 62.25 16.25 62.8 14.9 M60.1 27.1 L60.0 27.5 59.8 27.6 57.4 27.55 57.3 27.5 59.85 27.5 60.15 26.95 60.1 27.1 M56.75 21.95 L56.75 21.85 Q57.25 21.8 57.3 22.25 L57.3 22.6 57.25 23.1 57.25 23.25 57.25 23.35 57.1 23.65 57.0 22.25 56.75 21.95 M55.15 22.5 L55.1 22.6 54.0 23.75 53.5 24.1 53.3 24.1 53.7 23.7 54.6 23.0 55.05 22.35 55.2 22.25 55.15 22.5 M52.05 16.9 L51.35 16.75 51.05 16.35 51.7 16.05 52.1 15.75 52.6 15.7 52.55 15.7 52.1 16.5 52.05 16.85 52.05 16.9 M59.65 17.8 L60.1 17.75 60.1 17.85 59.65 17.8 M60.15 18.45 L60.2 19.45 60.15 19.4 60.0 19.0 60.15 18.45 M54.85 13.3 L55.05 13.5 55.25 13.85 55.05 14.6 54.85 15.0 53.65 16.35 53.35 17.25 52.85 18.35 52.85 18.6 52.85 18.75 52.85 19.1 52.5 19.85 52.5 19.9 52.5 18.75 52.75 18.35 53.0 18.0 53.0 17.25 53.35 16.5 53.3 16.1 53.25 15.75 53.15 15.55 53.45 15.45 54.35 15.0 54.55 14.6 54.75 13.5 54.75 13.2 54.85 13.3 M58.65 20.6 L59.1 21.25 59.2 23.5 Q59.3 24.9 58.85 26.1 L58.65 26.1 58.7 25.75 58.75 25.0 58.9 24.6 59.1 24.25 59.1 23.85 59.1 23.5 59.1 23.1 58.95 22.75 58.6 22.35 58.65 20.6" fill="#cc3300" fill-rule="evenodd" stroke="none"/>
  </g>
</svg>
