<?xml version="1.0" encoding="UTF-8" standalone="no"?>
<svg xmlns:ffdec="https://www.free-decompiler.com/flash" xmlns:xlink="http://www.w3.org/1999/xlink" ffdec:objectType="shape" height="140.5px" width="165.15px" xmlns="http://www.w3.org/2000/svg">
  <g transform="matrix(1.0, 0.0, 0.0, 1.0, 81.65, 71.25)">
    <path d="M81.95 -33.0 L82.0 -33.1 82.1 -33.15 82.15 -33.0 81.95 -33.0" fill="#00ff99" fill-rule="evenodd" stroke="none"/>
    <path d="M57.0 -66.45 L61.1 -63.65 62.95 -62.95 65.5 -61.5 65.8 -61.1 66.0 -60.75 68.35 -59.1 Q69.85 -57.95 71.6 -57.25 L71.85 -56.85 72.0 -56.5 72.25 -56.15 72.6 -55.75 72.8 -55.35 72.85 -55.0 72.85 -54.65 73.3 -53.85 73.85 -52.75 Q74.3 -51.85 75.1 -51.25 L75.25 -50.9 75.35 -50.5 76.1 -50.15 76.7 -48.9 78.05 -47.1 79.0 -45.4 78.5 -45.65 78.1 -46.0 77.75 -46.4 77.65 -46.75 77.5 -47.15 77.1 -47.5 76.75 -47.9 76.65 -48.25 76.5 -48.65 76.1 -49.0 75.75 -49.4 75.05 -50.2 74.6 -50.9 74.45 -51.05 73.75 -51.25 73.3 -52.5 72.35 -54.3 71.3 -56.1 71.0 -56.5 70.55 -56.85 69.7 -57.25 68.6 -57.65 65.15 -60.45 Q63.15 -62.15 60.6 -62.65 58.0 -64.2 55.4 -65.85 L50.55 -68.65 50.85 -68.65 52.0 -68.55 53.25 -68.5 Q55.25 -67.7 57.0 -66.45 M50.6 -69.0 L50.75 -68.9 43.0 -69.55 Q37.6 -70.0 32.1 -69.75 L31.45 -69.55 30.75 -69.3 32.45 -69.2 35.25 -68.9 26.45 -68.35 21.4 -67.55 25.2 -67.35 27.75 -66.9 27.5 -66.85 20.8 -67.45 17.05 -66.5 15.75 -66.35 Q15.45 -66.45 15.25 -66.65 L15.75 -66.8 16.95 -67.15 18.7 -67.55 15.75 -67.7 15.35 -67.7 15.5 -67.75 15.75 -67.75 19.1 -67.65 26.55 -69.3 26.7 -69.3 Q28.1 -70.3 29.85 -70.5 L32.5 -71.0 36.1 -71.1 36.45 -71.2 36.5 -71.25 40.25 -71.15 43.9 -70.3 50.6 -69.0 M17.05 -70.6 L17.5 -70.25 17.5 -69.9 17.2 -69.6 16.6 -69.5 16.1 -69.65 15.75 -69.65 9.0 -69.4 9.1 -69.65 Q10.3 -70.8 11.95 -71.05 L12.0 -71.15 15.75 -71.0 16.25 -71.0 17.05 -70.6 M0.0 -65.05 L-4.5 -64.5 -5.9 -64.5 -6.3 -64.05 -6.4 -63.75 -6.4 -63.4 Q-8.1 -62.45 -10.05 -62.0 L-14.95 -60.4 Q-16.55 -59.75 -17.9 -60.0 L-16.25 -61.3 Q-14.05 -62.45 -11.65 -62.9 -9.55 -63.25 -8.85 -64.3 L-8.75 -64.65 -8.5 -65.0 -8.15 -65.4 -7.9 -65.65 -7.5 -65.75 -5.55 -66.2 -5.5 -66.25 -4.5 -66.2 -1.0 -66.2 Q0.75 -66.25 1.75 -65.4 L0.0 -65.05 M2.9 -63.1 Q4.1 -63.8 5.45 -64.05 L5.5 -64.15 6.5 -64.1 8.7 -63.75 9.0 -63.5 Q7.3 -62.75 5.15 -62.5 L3.65 -62.05 3.1 -61.75 2.8 -61.35 2.6 -61.0 2.5 -60.65 1.65 -60.65 1.4 -60.9 1.35 -61.25 1.7 -61.95 2.9 -63.1 M9.0 -59.35 L5.45 -58.85 2.1 -58.1 1.0 -57.9 Q1.1 -58.6 2.85 -58.95 L4.0 -59.15 6.95 -59.7 7.0 -59.75 9.0 -59.55 9.6 -59.5 9.75 -59.4 9.0 -59.35 M79.3 -43.05 L79.6 -43.15 79.9 -42.05 80.25 -41.25 80.2 -40.15 80.1 -39.4 Q79.5 -39.35 79.65 -40.15 L79.75 -41.25 79.5 -41.65 79.25 -42.0 79.25 -42.75 79.3 -43.05 M80.05 -20.65 L80.1 -23.5 81.0 -23.5 81.0 -29.65 Q82.2 -27.2 81.95 -24.35 L81.5 -18.4 81.1 -17.25 Q80.05 -18.45 80.05 -20.65 M78.4 -23.15 L78.25 -22.0 77.8 -22.0 Q77.65 -22.05 77.65 -22.25 L77.6 -22.65 77.55 -23.0 77.45 -23.5 78.45 -23.5 78.4 -23.15 M82.15 -33.0 L82.2 -32.75 82.25 -32.4 82.35 -32.0 82.75 -31.2 82.85 -30.5 83.2 -30.1 83.35 -29.75 83.5 -27.9 83.5 -26.0 83.25 -25.65 83.0 -25.25 Q82.8 -20.5 83.2 -15.85 L83.25 -9.5 Q82.2 -10.9 82.45 -13.9 L82.6 -17.25 82.2 -18.0 82.0 -18.4 82.0 -22.15 82.0 -25.5 82.35 -26.25 82.5 -26.65 82.5 -27.75 82.5 -28.9 82.5 -29.25 82.35 -29.6 82.1 -30.0 82.1 -30.4 82.1 -30.75 82.1 -31.15 81.95 -31.5 81.75 -31.9 81.8 -32.6 81.95 -33.0 82.15 -33.0 M-40.3 -59.0 L-40.25 -58.65 -40.4 -58.5 -40.75 -59.0 -40.9 -59.75 -41.75 -59.1 -42.65 -58.4 -47.5 -53.4 -49.0 -51.65 -49.0 -51.25 -48.9 -50.9 -49.9 -49.8 -51.0 -49.0 -56.1 -43.0 -58.5 -40.15 Q-58.4 -43.3 -54.95 -46.35 -53.25 -47.85 -52.15 -49.75 L-51.65 -50.1 -51.0 -50.5 -50.7 -50.9 -50.65 -51.25 -50.65 -51.65 Q-48.65 -54.5 -46.05 -56.95 L-43.9 -58.75 -43.3 -59.4 -42.25 -60.0 -41.85 -60.35 -41.05 -60.9 -41.0 -61.0 -40.25 -60.9 -40.25 -60.15 -40.3 -59.0 M-30.5 -51.1 L-29.9 -51.15 -29.9 -51.0 -29.5 -50.75 -31.65 -50.0 -33.0 -49.05 -35.95 -46.8 Q-36.95 -46.0 -38.1 -45.9 L-38.2 -45.85 Q-39.5 -44.9 -41.0 -44.4 -39.3 -46.4 -36.3 -47.95 L-36.3 -48.1 -36.0 -48.5 -35.65 -48.9 -34.9 -49.65 -34.65 -50.0 -34.4 -50.4 -33.0 -51.15 -32.9 -51.2 -31.85 -51.8 -29.65 -53.05 -28.5 -53.75 -27.1 -54.4 -24.65 -55.3 -24.0 -55.5 -15.0 -55.1 -9.25 -54.4 -17.4 -54.05 -24.4 -54.25 Q-25.8 -53.95 -27.05 -53.25 L-27.35 -53.05 Q-27.9 -52.65 -28.6 -52.4 L-29.1 -52.15 -29.35 -52.05 -29.4 -52.05 -29.65 -51.9 -30.65 -51.05 -30.5 -51.1 M-42.9 -47.15 Q-44.5 -44.7 -46.55 -42.35 -47.9 -40.75 -49.75 -39.65 L-50.0 -39.25 -50.15 -38.9 Q-50.5 -39.0 -50.75 -39.25 L-50.75 -39.5 Q-50.4 -40.35 -49.55 -40.7 -49.25 -40.8 -49.0 -41.0 L-45.5 -45.25 -42.9 -47.15 M-41.95 -37.7 L-43.0 -36.9 Q-44.5 -34.4 -46.35 -32.15 L-48.75 -29.0 Q-49.25 -30.5 -46.9 -32.9 -45.2 -34.65 -44.15 -36.75 L-41.9 -38.75 Q-41.45 -39.15 -40.9 -39.15 -41.15 -38.3 -41.95 -37.7 M-53.9 -32.65 Q-54.5 -31.75 -55.5 -31.15 L-56.75 -30.4 -57.4 -29.6 -57.65 -29.25 -57.9 -28.9 -58.5 -28.5 -59.7 -27.05 -60.9 -25.9 Q-61.55 -26.15 -60.45 -27.05 -59.85 -27.5 -59.55 -28.15 L-59.4 -28.5 -58.75 -28.9 -58.25 -29.25 -58.05 -29.65 -57.9 -30.0 -55.45 -32.0 Q-54.75 -32.55 -53.9 -32.65 M-51.25 -30.25 L-50.1 -30.95 -49.5 -31.25 -49.4 -31.25 -49.75 -30.6 -50.25 -30.15 -50.6 -29.75 -50.85 -29.35 -51.0 -29.0 -51.3 -28.7 -51.9 -28.25 -52.45 -27.5 -52.85 -26.75 -53.0 -26.4 -53.9 -25.8 -54.75 -25.4 -54.6 -25.75 -54.3 -26.15 -54.0 -26.5 -53.75 -27.25 -53.4 -28.0 -53.0 -28.75 -51.75 -29.5 -51.5 -29.9 -51.25 -30.25 M-40.9 -31.65 Q-40.95 -30.95 -41.6 -30.45 L-42.4 -29.75 -42.65 -29.0 -42.75 -28.65 -42.9 -28.25 -43.95 -27.1 -44.75 -26.0 Q-45.75 -25.9 -44.8 -27.05 L-43.4 -28.5 -43.15 -29.25 -43.0 -29.65 -42.9 -30.0 -41.85 -31.2 Q-41.45 -31.65 -40.9 -31.65 M-64.65 -6.65 L-64.8 -6.3 -65.15 -5.9 -65.15 -5.5 -65.15 -5.15 -65.15 -4.75 -66.45 -2.2 -67.4 0.1 -67.7 -0.3 -67.8 -0.65 -67.9 -1.0 -66.95 -2.9 -65.9 -4.75 -65.9 -5.15 -65.9 -5.5 -65.9 -5.9 Q-65.45 -7.2 -64.5 -8.25 -63.8 -9.05 -62.9 -9.25 -62.65 -8.55 -63.3 -8.05 L-64.5 -7.0 -64.65 -6.65 M-34.65 -48.8 Q-33.75 -49.3 -33.0 -49.95 L-33.7 -49.5 -34.65 -48.8 M-71.15 47.95 L-69.05 47.8 Q-67.5 47.7 -66.5 48.5 L-66.8 48.8 -67.45 49.3 -67.65 49.5 -70.45 50.2 Q-73.05 50.85 -74.25 49.0 L-74.1 48.65 -73.7 48.3 -73.05 48.05 -73.0 48.0 -72.75 48.0 -72.5 47.8 -72.0 47.6 Q-71.55 47.7 -71.15 47.95 M-60.0 46.25 L-57.5 46.25 Q-56.3 46.2 -55.65 47.1 L-55.6 47.5 -55.65 47.85 -55.75 48.25 -55.9 48.6 -56.25 48.85 -56.5 48.95 -57.0 49.1 -57.5 49.15 -59.0 48.75 -59.75 48.5 -60.1 48.1 -60.55 47.35 Q-61.0 46.4 -60.0 46.3 L-60.0 46.25 M-59.55 49.15 L-59.5 49.1 -58.5 49.5 -57.9 50.1 -58.25 50.5 -58.55 50.7 -59.0 50.85 -60.0 50.4 -60.4 49.85 -60.25 49.5 -60.0 49.3 -59.55 49.15 M-44.0 51.5 L-39.55 51.75 Q-38.3 51.85 -37.25 52.6 L-36.95 53.0 -36.75 53.35 -36.5 53.75 -36.55 54.1 -36.6 54.85 -36.7 55.2 -36.9 55.6 Q-44.5 56.95 -52.4 55.6 L-52.6 55.2 -52.75 54.5 -52.75 54.1 -52.65 53.75 -52.35 53.45 Q-49.1 52.15 -45.4 52.25 L-45.0 51.9 -44.6 51.7 -44.05 51.55 -44.0 51.5 M-49.9 61.2 Q-49.15 61.4 -48.5 61.8 L-47.9 62.35 -48.0 62.75 -48.15 63.1 -48.25 63.35 -48.5 63.45 -51.55 63.55 -51.9 63.75 -52.5 63.85 -53.4 63.6 -53.9 63.35 -54.5 63.6 -55.2 63.3 -55.5 63.0 -55.6 62.6 -55.6 62.5 -55.9 62.25 -56.0 62.0 -55.95 61.65 -55.6 61.3 -55.05 61.05 -55.0 61.0 -54.25 61.0 -53.0 60.6 -52.5 60.65 -51.65 60.9 -51.45 61.0 -50.5 61.0 -49.9 61.2 M-69.0 55.3 L-68.55 55.15 -68.5 55.1 -66.5 55.25 Q-65.45 55.3 -65.45 56.0 L-64.75 56.25 -64.45 56.65 -64.35 57.0 -64.4 57.35 -64.9 57.7 -65.5 58.0 -67.0 58.0 -68.0 57.5 -68.55 57.15 -68.9 56.7 -69.1 56.55 -69.35 56.2 -69.4 55.85 -69.25 55.5 -69.0 55.3 M-79.5 50.85 L-78.6 51.35 Q-77.7 51.7 -77.65 52.6 L-77.9 53.0 -78.05 53.15 -78.5 53.35 -79.0 53.5 -80.25 53.3 Q-81.3 53.05 -81.65 52.1 L-81.55 51.75 -81.2 51.25 -80.55 50.95 -80.5 50.85 -79.5 50.85 M-72.4 64.1 L-71.5 63.85 -68.55 64.05 Q-67.3 64.25 -66.25 65.0 L-66.05 65.4 -65.95 66.1 -66.05 66.85 -66.15 67.25 -66.4 67.55 Q-67.3 68.45 -68.5 68.75 L-70.0 69.25 -72.0 69.05 -74.75 68.35 -75.15 68.0 -75.4 67.75 -75.5 67.65 -76.15 67.25 -76.65 66.6 -76.6 66.25 -76.45 65.9 -76.25 65.6 -76.0 65.5 -75.55 65.2 -75.15 64.85 -74.9 64.6 -74.65 64.5 -72.4 64.1 M-19.15 58.1 L-19.6 58.6 -20.5 59.0 -21.5 58.55 -22.0 58.0 -21.55 57.35 -21.05 57.05 -21.0 57.0 -20.0 57.1 Q-19.05 57.25 -19.15 58.1 M-28.65 55.1 L-28.5 55.5 -28.65 55.85 -28.95 56.15 -29.5 56.5 -31.0 56.5 -31.6 56.2 -31.95 55.8 -32.0 55.5 -31.95 55.15 -31.6 54.8 -31.0 54.5 -29.5 54.5 -28.95 54.8 -28.65 55.1 M-29.35 60.1 L-29.55 60.45 -30.0 60.75 -31.0 60.8 -33.0 60.85 -33.6 60.55 -33.85 60.2 -33.9 59.85 -33.75 59.5 -33.5 59.3 -33.05 59.15 -33.0 59.1 -31.05 59.3 -29.4 59.75 -29.35 60.1" fill="#993333" fill-rule="evenodd" stroke="none"/>
  </g>
</svg>
