<?xml version="1.0" encoding="UTF-8" standalone="no"?>
<svg xmlns:ffdec="https://www.free-decompiler.com/flash" xmlns:xlink="http://www.w3.org/1999/xlink" ffdec:objectType="shape" height="137.75px" width="165.75px" xmlns="http://www.w3.org/2000/svg">
  <g transform="matrix(1.0, 0.0, 0.0, 1.0, 81.65, 68.5)">
    <path d="M48.75 -63.9 L52.55 -61.85 55.6 -59.9 55.85 -59.5 56.0 -59.15 57.15 -58.4 58.6 -57.25 59.0 -56.9 59.1 -56.5 59.25 -56.15 59.4 -55.75 59.35 -55.0 59.4 -54.65 59.55 -54.25 59.5 -54.0 59.25 -53.9 58.8 -54.3 58.6 -54.65 58.5 -55.0 58.2 -55.35 57.95 -55.8 57.85 -56.15 Q57.25 -56.95 56.25 -57.35 55.3 -57.7 54.6 -58.4 53.25 -60.05 51.15 -61.1 49.4 -61.95 48.0 -63.25 L48.0 -63.6 48.15 -63.8 48.5 -63.9 48.75 -63.9 M20.0 -68.5 L22.0 -68.5 22.6 -68.25 23.0 -67.9 23.7 -67.1 24.35 -66.4 24.5 -66.0 24.6 -65.65 24.95 -65.25 25.35 -64.5 25.75 -63.4 26.0 -63.0 27.45 -61.8 27.85 -61.5 Q26.65 -61.05 25.55 -62.1 L22.75 -64.9 22.5 -65.25 22.35 -65.6 22.1 -66.0 21.85 -66.25 20.0 -66.55 Q18.55 -66.85 17.75 -67.65 L18.0 -67.75 19.35 -68.25 20.0 -68.5 M15.75 -63.75 L22.25 -62.9 Q19.0 -62.8 15.75 -63.0 L9.0 -63.65 3.1 -64.7 -3.75 -65.65 1.0 -65.8 1.0 -65.9 9.0 -64.8 14.2 -64.0 15.75 -63.75 M38.35 -63.45 Q40.25 -62.3 41.75 -60.65 39.65 -61.2 36.75 -63.25 34.35 -64.9 33.0 -66.25 L33.25 -66.25 Q35.9 -65.0 38.35 -63.45 M63.8 -45.0 L63.85 -44.25 64.1 -43.9 64.35 -43.5 64.35 -43.15 64.35 -42.75 65.85 -40.15 Q66.3 -39.45 66.35 -38.65 67.2 -37.85 67.4 -36.75 67.5 -36.15 67.85 -35.65 L67.85 -35.25 67.85 -34.9 67.85 -34.5 68.2 -33.75 68.35 -33.4 68.35 -33.0 68.35 -31.9 68.35 -30.4 68.5 -30.0 68.85 -29.25 68.8 -27.4 68.75 -25.5 Q67.95 -25.65 68.05 -27.25 L68.1 -29.15 67.95 -29.5 67.6 -29.9 67.6 -31.75 67.6 -33.0 67.6 -33.25 67.35 -33.65 67.1 -34.0 Q67.1 -36.25 66.05 -38.25 L64.6 -40.4 63.8 -42.7 63.1 -44.15 63.05 -45.25 Q62.95 -45.85 63.6 -45.75 L63.8 -45.0 M72.7 -31.0 L72.75 -30.65 72.75 -30.25 73.0 -29.9 73.35 -29.5 73.35 -29.15 73.35 -28.75 73.7 -28.35 74.0 -28.0 73.95 -23.5 73.85 -21.25 Q73.8 -18.7 74.1 -16.4 L74.15 -16.2 73.5 -16.25 Q72.65 -19.55 72.85 -23.0 L72.9 -23.5 73.0 -27.9 72.75 -28.25 72.6 -28.65 72.6 -29.0 72.6 -29.4 72.4 -29.75 72.25 -30.15 72.25 -30.5 72.25 -30.9 71.95 -31.65 72.05 -32.1 72.1 -32.15 72.35 -31.75 72.6 -31.4 72.7 -31.0 M59.0 -2.75 Q57.85 -5.25 57.35 -8.2 57.0 -10.35 57.6 -11.25 L58.95 -6.05 Q59.25 -4.1 59.0 -2.75 M66.35 -0.4 L66.55 0.4 66.6 1.1 Q66.0 1.15 65.95 0.35 L65.85 -0.4 Q64.4 -4.1 63.8 -8.25 63.4 -11.15 64.75 -12.4 64.85 -8.6 65.75 -4.85 66.35 -2.6 66.35 -0.4 M76.5 -11.6 L76.6 -11.65 76.75 -9.75 76.75 -8.65 77.25 -7.45 77.5 -6.9 Q76.65 -7.1 76.4 -7.85 L76.25 -8.25 76.1 -10.5 Q76.0 -11.4 76.5 -11.6 M73.6 -10.15 L74.35 -2.25 74.75 2.6 74.5 3.0 74.25 3.35 74.2 4.1 74.1 4.85 73.6 5.6 73.35 6.0 73.0 6.35 72.6 6.75 Q72.15 6.7 71.8 6.45 L71.75 6.25 72.4 4.75 72.75 4.0 72.75 3.6 72.75 3.25 72.75 2.85 73.0 2.5 73.25 2.1 73.35 -2.4 Q73.3 -3.9 73.6 -5.4 73.05 -6.85 73.0 -8.35 72.95 -9.75 73.6 -10.15 M78.2 -1.0 L78.6 -1.4 78.7 -1.75 78.75 -2.0 78.75 -2.1 79.0 -2.15 79.1 -2.15 79.3 -1.4 79.5 -1.0 78.95 -0.3 78.6 0.1 78.3 1.2 77.65 2.3 77.75 2.5 78.1 3.25 78.1 4.35 78.1 5.5 79.1 8.1 79.35 8.8 79.5 8.5 Q80.35 7.0 80.6 5.25 L82.6 1.75 Q83.1 0.65 84.1 0.25 84.05 1.95 82.7 3.7 L81.35 5.5 Q81.1 7.65 80.15 9.65 L79.8 10.4 80.25 11.65 80.5 11.6 80.75 11.6 Q81.25 12.5 80.75 13.35 81.15 15.15 81.1 17.1 L81.1 17.75 Q81.0 19.15 80.5 20.4 L80.95 20.2 81.0 20.1 81.45 20.15 82.05 20.45 82.25 20.75 Q82.4 21.25 82.05 21.75 L81.9 21.9 80.75 23.0 79.6 23.4 78.75 23.75 78.7 23.4 78.9 23.0 79.05 22.6 79.1 22.25 79.35 21.85 79.45 21.75 79.85 21.1 79.95 21.05 Q78.95 19.7 79.0 17.75 L79.05 16.7 79.2 15.4 79.0 15.6 78.9 15.0 78.95 14.25 79.0 13.85 79.2 13.25 78.9 12.6 78.85 12.4 78.75 12.6 Q78.4 12.1 78.45 11.4 L78.25 11.1 78.25 10.75 78.25 10.35 78.25 10.0 78.05 9.65 77.75 9.25 77.55 8.5 77.25 7.75 77.25 7.35 77.3 7.0 77.25 6.6 76.9 5.85 76.75 6.1 76.8 12.1 Q76.85 14.75 75.1 16.6 74.4 16.6 74.9 15.75 L75.5 14.75 75.3 9.85 75.25 5.75 75.9 3.9 76.35 2.0 76.55 1.7 76.55 1.0 Q76.55 0.1 77.0 -0.1 L77.1 -0.15 77.25 0.55 77.35 -0.25 78.2 -1.0 M68.75 -0.75 Q69.3 -5.55 71.15 -10.2 72.45 -13.4 74.1 -15.75 73.1 -10.9 71.2 -5.95 70.05 -2.95 68.75 -0.75 M-22.9 -49.65 L-23.4 -49.25 Q-28.05 -47.8 -31.4 -44.2 L-33.0 -42.85 Q-33.45 -42.6 -33.9 -42.5 L-33.0 -43.75 Q-30.7 -46.6 -27.25 -48.5 -24.25 -50.15 -21.0 -51.0 L-20.55 -51.4 -20.25 -51.75 -19.0 -52.15 -17.05 -53.7 -16.25 -54.25 Q-15.1 -54.45 -14.0 -54.95 L-13.4 -55.15 -13.6 -54.85 -14.25 -54.4 -14.6 -54.0 -14.75 -53.75 Q-17.3 -52.85 -19.65 -51.35 -21.0 -50.5 -22.5 -50.0 L-22.9 -49.65 M-10.35 -54.05 L-9.0 -55.25 -7.25 -56.0 -6.9 -56.4 -6.5 -56.75 -4.65 -57.4 -4.5 -57.5 -3.9 -58.0 -3.75 -58.1 -3.5 -58.15 -3.4 -58.15 Q-3.45 -57.45 -4.15 -57.0 L-4.5 -56.8 -5.5 -56.25 -6.3 -55.55 -6.75 -55.15 Q-12.55 -51.05 -18.9 -47.7 L-23.9 -44.75 -24.5 -44.0 -24.75 -43.65 Q-25.6 -43.2 -26.25 -42.5 L-26.65 -42.15 -27.8 -41.85 -28.0 -42.0 Q-27.6 -42.9 -26.75 -43.5 L-25.25 -44.65 Q-21.8 -48.05 -17.2 -50.35 -15.0 -51.5 -12.65 -52.25 L-10.35 -54.05 M-50.9 -31.15 L-51.55 -30.45 -52.15 -30.0 Q-52.8 -28.7 -53.9 -27.75 L-55.4 -25.9 -56.0 -25.5 -57.5 -23.6 -58.5 -22.15 -58.0 -21.55 -57.9 -21.25 -58.4 -20.9 -59.15 -20.5 -59.4 -20.15 -59.65 -19.75 -59.9 -19.4 Q-64.0 -16.75 -67.0 -12.95 L-67.25 -12.65 Q-68.75 -10.9 -70.5 -9.4 -70.35 -10.45 -68.9 -11.55 L-67.25 -12.65 Q-65.65 -15.0 -63.6 -16.95 L-60.25 -19.75 -59.85 -20.5 -59.55 -20.9 -59.25 -21.25 -59.25 -21.65 -59.25 -22.0 -57.95 -23.8 Q-57.3 -24.5 -56.9 -25.4 L-56.5 -25.75 -55.9 -26.15 -54.0 -28.4 Q-53.3 -29.0 -52.9 -29.9 L-52.0 -30.55 -51.0 -31.1 -50.9 -31.15 M-63.7 -28.95 L-65.65 -26.9 -68.2 -21.55 Q-69.5 -18.95 -71.25 -16.75 L-71.95 -14.85 Q-72.4 -13.8 -72.35 -12.65 L-72.4 -11.9 Q-73.05 -12.35 -72.8 -13.75 L-72.15 -16.4 -71.9 -17.15 -71.5 -17.5 -71.15 -17.9 -70.9 -18.25 -68.85 -22.3 Q-67.55 -24.55 -66.5 -26.9 L-64.2 -29.9 Q-63.05 -31.4 -61.4 -31.75 L-63.7 -28.95 M-72.5 -10.25 L-73.15 -10.0 -77.55 -5.45 -79.75 -2.5 Q-80.25 -3.6 -78.15 -5.8 L-73.05 -10.65 -73.0 -10.75 -72.45 -10.55 -72.25 -10.4 -72.5 -10.25 M-50.0 -24.4 Q-48.15 -27.3 -44.85 -29.95 L-39.9 -33.65 Q-42.65 -30.65 -45.95 -27.8 -47.95 -26.0 -50.0 -24.4 M-76.0 10.6 Q-74.3 5.2 -70.8 0.0 -68.3 -3.7 -64.9 -6.15 -68.9 -1.45 -72.2 4.05 L-76.0 10.6 M-71.15 47.95 L-69.05 47.8 Q-67.5 47.7 -66.5 48.5 L-66.8 48.8 -67.45 49.3 -67.65 49.5 -70.45 50.2 Q-73.05 50.85 -74.25 49.0 L-74.1 48.65 -73.7 48.3 -73.05 48.05 -73.0 48.0 -72.75 48.0 -72.5 47.8 -72.0 47.6 Q-71.55 47.7 -71.15 47.95 M-60.0 46.25 L-57.5 46.25 Q-56.3 46.2 -55.65 47.1 L-55.6 47.5 -55.65 47.85 -55.75 48.25 -55.9 48.6 -56.25 48.85 -56.5 48.95 -57.0 49.1 -57.5 49.15 -59.0 48.75 -59.75 48.5 -60.1 48.1 -60.55 47.35 Q-61.0 46.4 -60.0 46.3 L-60.0 46.25 M-59.5 49.1 L-58.5 49.5 -57.9 50.1 -58.25 50.5 -58.55 50.7 -59.0 50.85 -60.0 50.4 -60.4 49.85 -60.25 49.5 -60.0 49.3 -59.55 49.15 -59.5 49.1 M-44.0 51.5 L-39.55 51.75 Q-38.3 51.85 -37.25 52.6 L-36.95 53.0 -36.75 53.35 -36.5 53.75 -36.55 54.1 -36.6 54.85 -36.7 55.2 -36.9 55.6 Q-44.5 56.95 -52.4 55.6 L-52.6 55.2 -52.75 54.5 -52.75 54.1 -52.65 53.75 -52.35 53.45 Q-49.1 52.15 -45.4 52.25 L-45.0 51.9 -44.6 51.7 -44.05 51.55 -44.0 51.5 M-50.5 61.0 L-49.9 61.2 Q-49.15 61.4 -48.5 61.8 L-47.9 62.35 -48.0 62.75 -48.15 63.1 -48.25 63.35 -48.5 63.45 -51.55 63.55 -51.9 63.75 -52.5 63.85 -53.4 63.6 -53.9 63.35 -54.5 63.6 -55.2 63.3 -55.5 63.0 -55.6 62.6 -55.6 62.5 -55.9 62.25 -56.0 62.0 -55.95 61.65 -55.6 61.3 -55.05 61.05 -55.0 61.0 -54.25 61.0 -53.0 60.6 -52.5 60.65 -51.65 60.9 -51.45 61.0 -50.5 61.0 M-69.0 55.3 L-68.55 55.15 -68.5 55.1 -66.5 55.25 Q-65.45 55.3 -65.45 56.0 L-64.75 56.25 -64.45 56.65 -64.35 57.0 -64.4 57.35 -64.9 57.7 -65.5 58.0 -67.0 58.0 -68.0 57.5 -68.55 57.15 -68.9 56.7 -69.1 56.55 -69.35 56.2 -69.4 55.85 -69.25 55.5 -69.0 55.3 M-79.5 50.85 L-78.6 51.35 Q-77.7 51.7 -77.65 52.6 L-77.9 53.0 -78.05 53.15 -78.5 53.35 -79.0 53.5 -80.25 53.3 Q-81.3 53.05 -81.65 52.1 L-81.55 51.75 -81.2 51.25 -80.55 50.95 -80.5 50.85 -79.5 50.85 M-71.5 63.85 L-68.55 64.05 Q-67.3 64.25 -66.25 65.0 L-66.05 65.4 -65.95 66.1 -66.05 66.85 -66.15 67.25 -66.4 67.55 Q-67.3 68.45 -68.5 68.75 L-70.0 69.25 -72.0 69.05 -74.75 68.35 -75.15 68.0 -75.4 67.75 -75.5 67.65 -76.15 67.25 -76.65 66.6 -76.6 66.25 -76.45 65.9 -76.25 65.6 -76.0 65.5 -75.55 65.2 -75.15 64.85 -74.9 64.6 -74.65 64.5 -72.4 64.1 -71.5 63.85 M-19.15 58.1 L-19.6 58.6 -20.5 59.0 -21.5 58.55 -22.0 58.0 -21.55 57.35 -21.05 57.05 -21.0 57.0 -20.0 57.1 Q-19.05 57.25 -19.15 58.1 M-28.65 55.1 L-28.5 55.5 -28.65 55.85 -28.95 56.15 -29.5 56.5 -31.0 56.5 -31.6 56.2 -31.95 55.8 -32.0 55.5 -31.95 55.15 -31.6 54.8 -31.0 54.5 -29.5 54.5 -28.95 54.8 -28.65 55.1 M-29.35 60.1 L-29.55 60.45 -30.0 60.75 -31.0 60.8 -33.0 60.85 -33.6 60.55 -33.85 60.2 -33.9 59.85 -33.75 59.5 -33.5 59.3 -33.05 59.15 -33.0 59.1 -31.05 59.3 -29.4 59.75 -29.35 60.1" fill="#993333" fill-rule="evenodd" stroke="none"/>
  </g>
</svg>
