<?xml version="1.0" encoding="UTF-8" standalone="no"?>
<svg xmlns:ffdec="https://www.free-decompiler.com/flash" xmlns:xlink="http://www.w3.org/1999/xlink" ffdec:objectType="shape" height="48.7px" width="29.25px" xmlns="http://www.w3.org/2000/svg">
  <g transform="matrix(1.0, 0.0, 0.0, 1.0, 13.85, 43.75)">
    <path d="M2.9 -23.1 Q5.0 -21.4 6.15 -18.45 L7.75 -12.95 8.65 -7.65 9.1 -3.15 8.8 -2.3 Q8.7 -0.85 7.15 0.45 L4.45 2.5 3.85 2.6 1.35 3.0 1.25 3.0 Q-1.45 2.95 -3.0 1.35 L-3.8 0.2 -3.9 0.2 -4.15 -0.55 -4.15 -0.6 Q-4.5 -1.45 -4.55 -3.6 L-4.55 -5.05 Q-4.55 -9.5 -3.05 -12.75 -2.35 -14.2 -0.4 -16.5 0.6 -17.6 1.7 -19.55 L2.05 -20.85 2.2 -20.25 2.2 -19.1 2.2 -17.85 Q2.3 -16.9 3.1 -16.9 3.75 -16.9 4.05 -17.7 L4.25 -18.75 Q4.25 -21.0 2.9 -23.1" fill="#ffffff" fill-rule="evenodd" stroke="none"/>
    <path d="M1.1 -37.7 L0.05 -41.35 -0.65 -43.75 -0.6 -43.75 -0.45 -43.75 -0.4 -43.7 Q7.8 -41.6 12.2 -28.95 15.4 -19.65 15.4 -10.45 L15.35 -8.45 15.0 -7.05 15.0 -6.9 13.75 -2.95 Q12.85 -0.15 11.6 1.05 L8.65 3.35 Q5.3 4.7 1.05 4.9 L-0.6 4.95 Q-5.85 4.95 -8.6 2.85 -9.85 1.9 -10.9 0.2 L-11.25 0.2 -11.95 -1.1 -12.6 -2.9 -12.5 -2.9 -12.4 -2.95 -13.0 -4.35 -13.45 -6.3 Q-13.9 -8.0 -13.85 -9.95 L-13.85 -10.15 -13.85 -10.2 -13.8 -11.05 -13.7 -10.8 Q-13.05 -9.75 -11.95 -9.4 -11.6 -9.1 -11.3 -9.1 L-10.55 -9.2 Q-7.85 -9.25 -7.85 -12.8 -7.85 -15.2 -9.15 -16.6 -10.95 -18.1 -12.45 -17.1 -12.15 -19.95 -11.5 -21.65 L-11.55 -21.65 -7.4 -31.8 -7.25 -31.45 -7.3 -30.5 Q-7.25 -29.3 -6.85 -28.15 L-6.85 -28.1 Q-6.35 -25.25 -3.8 -25.25 -2.9 -25.25 -2.1 -25.85 -0.6 -26.5 0.35 -28.6 1.5 -31.1 1.5 -34.55 1.5 -36.25 1.1 -37.7 M2.9 -23.1 Q4.25 -21.0 4.25 -18.75 L4.05 -17.7 Q3.75 -16.9 3.1 -16.9 2.3 -16.9 2.2 -17.85 L2.2 -19.1 2.2 -20.25 2.05 -20.85 1.7 -19.55 Q0.6 -17.6 -0.4 -16.5 -2.35 -14.2 -3.05 -12.75 -4.55 -9.5 -4.55 -5.05 L-4.55 -3.6 Q-4.5 -1.45 -4.15 -0.6 L-4.15 -0.55 -3.9 0.2 -3.8 0.2 -3.0 1.35 Q-1.45 2.95 1.25 3.0 L1.35 3.0 3.85 2.6 4.45 2.5 7.15 0.45 Q8.7 -0.85 8.8 -2.3 L9.1 -3.15 8.65 -7.65 7.75 -12.95 6.15 -18.45 Q5.0 -21.4 2.9 -23.1" fill="url(#gradient0)" fill-rule="evenodd" stroke="none"/>
  </g>
  <defs>
    <radialGradient cx="0" cy="0" gradientTransform="matrix(4.0E-4, -0.0475, 0.0309, 3.0E-4, 1.5, 4.0)" gradientUnits="userSpaceOnUse" id="gradient0" r="819.2" spreadMethod="pad">
      <stop offset="0.23921568627450981" stop-color="#ffff00"/>
      <stop offset="0.5490196078431373" stop-color="#ffffcc"/>
      <stop offset="1.0" stop-color="#ffff66"/>
    </radialGradient>
  </defs>
</svg>
