<?xml version="1.0" encoding="UTF-8" standalone="no"?>
<svg xmlns:ffdec="https://www.free-decompiler.com/flash" xmlns:xlink="http://www.w3.org/1999/xlink" ffdec:objectType="shape" height="59.65px" width="29.75px" xmlns="http://www.w3.org/2000/svg">
  <g transform="matrix(1.0, 0.0, 0.0, 1.0, 14.7, 54.7)">
    <path d="M2.35 -54.25 L2.15 -53.25 Q2.15 -49.85 4.35 -46.2 6.5 -42.6 6.5 -40.2 5.9 -36.65 3.85 -36.65 3.15 -36.65 2.55 -37.1 L2.25 -37.35 Q1.5 -37.5 0.8 -39.05 0.25 -40.3 0.05 -41.7 -0.45 -44.1 -0.45 -46.0 -0.45 -50.1 2.2 -54.7 L2.1 -54.4 2.2 -54.6 2.35 -54.25 M6.7 -29.5 L6.65 -29.55 6.65 -29.45 6.7 -29.5 M5.65 -28.65 L6.65 -30.1 Q9.7 -28.55 10.8 -24.9 11.15 -23.85 12.0 -21.95 L13.25 -19.0 Q14.45 -15.7 14.8 -12.9 L15.05 -7.15 15.05 -6.9 15.0 -6.2 14.95 -6.1 14.7 -4.35 14.2 -2.55 13.35 -0.8 11.9 0.8 9.7 2.7 9.1 3.15 Q5.6 4.7 1.05 4.9 L-0.6 4.95 -3.7 4.75 -3.8 4.75 Q-6.15 4.75 -9.05 2.65 -11.0 1.2 -11.5 0.2 L-11.8 0.2 Q-12.65 -1.85 -13.4 -5.1 L-13.4 -5.15 Q-14.7 -10.95 -14.7 -14.65 -14.7 -18.8 -12.3 -25.8 L-12.15 -26.45 Q-10.65 -31.75 -8.7 -34.75 L-7.55 -36.35 -7.5 -36.4 -7.15 -36.8 -7.3 -36.55 -6.15 -37.7 -6.35 -36.9 -6.35 -34.9 -6.35 -34.85 -6.4 -34.5 -6.3 -32.05 -6.0 -29.55 Q-5.7 -28.25 -4.8 -27.05 -3.05 -24.55 0.0 -24.55 2.4 -24.55 4.2 -26.5 5.1 -27.5 5.65 -28.65 M7.95 -14.6 Q6.7 -17.35 4.15 -20.2 L3.4 -21.0 3.6 -20.2 4.2 -16.8 Q4.2 -15.25 3.45 -13.6 L2.9 -12.5 2.2 -11.6 Q1.35 -10.75 0.1 -10.3 L-3.0 -9.85 Q-3.9 -9.85 -4.8 -10.8 L-5.6 -11.75 -5.7 -11.75 Q-6.6 -8.05 -6.6 -6.3 L-6.05 -2.65 -6.05 -2.15 -6.1 -2.1 -6.05 -1.9 -5.0 -0.15 -4.75 0.2 -4.65 0.2 -4.65 0.25 -4.3 0.85 -4.0 1.2 Q-3.5 1.75 -2.8 1.75 L-2.4 1.95 -2.1 2.1 Q-0.75 3.0 1.25 3.0 L1.35 3.0 3.85 2.6 6.6 1.95 Q7.95 1.45 8.45 0.2 L9.0 0.2 9.7 -2.3 Q10.1 -4.4 10.1 -6.25 10.1 -10.9 7.95 -14.6" fill="url(#gradient0)" fill-rule="evenodd" stroke="none"/>
    <path d="M7.95 -14.6 Q10.1 -10.9 10.1 -6.25 10.1 -4.4 9.7 -2.3 L9.0 0.2 8.45 0.2 Q7.95 1.45 6.6 1.95 L3.85 2.6 1.35 3.0 1.25 3.0 Q-0.75 3.0 -2.1 2.1 L-2.4 1.95 -2.8 1.75 Q-3.5 1.75 -4.0 1.2 L-4.3 0.85 -4.65 0.25 -4.65 0.2 -4.75 0.2 -5.0 -0.15 -6.05 -1.9 -6.1 -2.1 -6.05 -2.15 -6.05 -2.65 -6.6 -6.3 Q-6.6 -8.05 -5.7 -11.75 L-5.6 -11.75 -4.8 -10.8 Q-3.9 -9.85 -3.0 -9.85 L0.1 -10.3 Q1.35 -10.75 2.2 -11.6 L2.9 -12.5 3.45 -13.6 Q4.2 -15.25 4.2 -16.8 L3.6 -20.2 3.4 -21.0 4.15 -20.2 Q6.7 -17.35 7.95 -14.6" fill="#ffffff" fill-rule="evenodd" stroke="none"/>
  </g>
  <defs>
    <radialGradient cx="0" cy="0" gradientTransform="matrix(4.0E-4, -0.0475, 0.0309, 3.0E-4, 1.5, 4.0)" gradientUnits="userSpaceOnUse" id="gradient0" r="819.2" spreadMethod="pad">
      <stop offset="0.23921568627450981" stop-color="#ffff00"/>
      <stop offset="0.5490196078431373" stop-color="#ffffcc"/>
      <stop offset="1.0" stop-color="#ffff66"/>
    </radialGradient>
  </defs>
</svg>
