<?xml version="1.0" encoding="UTF-8" standalone="no"?>
<svg xmlns:ffdec="https://www.free-decompiler.com/flash" xmlns:xlink="http://www.w3.org/1999/xlink" ffdec:objectType="shape" height="51.45px" width="27.5px" xmlns="http://www.w3.org/2000/svg">
  <g transform="matrix(1.0, 0.0, 0.0, 1.0, 13.25, 46.5)">
    <path d="M6.55 -30.4 Q7.05 -31.65 7.5 -31.85 7.35 -30.45 8.05 -27.85 L8.75 -24.6 8.25 -22.75 Q7.65 -21.35 7.05 -21.35 5.85 -21.35 5.3 -22.6 L5.0 -23.95 Q5.0 -26.3 5.75 -28.3 L6.55 -30.4 M0.1 -27.1 L0.15 -25.65 0.0 -25.05 Q0.0 -22.15 2.3 -20.35 4.15 -18.9 6.1 -18.9 8.15 -18.9 9.2 -19.95 L9.85 -21.05 10.0 -20.9 10.1 -21.1 Q10.5 -21.1 10.5 -20.55 L10.45 -20.3 Q12.2 -17.95 13.2 -13.95 14.25 -9.95 14.25 -5.95 14.25 -4.15 13.7 -2.4 L13.25 -1.25 12.9 -0.55 12.9 -0.5 12.9 -0.35 11.75 1.05 11.75 1.15 11.05 2.15 10.5 2.45 Q6.55 4.65 1.05 4.9 L-0.6 4.95 Q-4.1 4.95 -6.45 4.05 -8.25 3.85 -10.0 1.95 L-11.35 0.2 -11.5 0.2 -12.75 -3.3 -12.9 -3.9 Q-13.25 -5.65 -13.25 -8.2 -13.25 -12.9 -11.55 -17.0 -9.75 -21.3 -6.45 -22.9 L-3.6 -25.1 Q-0.65 -27.6 -0.1 -27.05 L-0.05 -27.1 0.1 -27.25 0.1 -27.1 M6.35 -17.65 L6.2 -15.85 Q5.75 -11.75 1.4 -11.75 -1.7 -11.75 -2.35 -12.95 L-3.0 -14.45 Q-6.6 -10.55 -6.6 -5.4 -6.6 -3.75 -6.1 -1.95 -5.75 -0.6 -5.15 0.2 L-4.5 0.2 Q-3.65 1.75 -2.55 1.75 -1.05 3.0 1.25 3.0 L1.35 3.0 3.85 2.6 6.6 1.95 Q7.95 1.45 8.45 0.2 L9.0 0.2 10.25 -3.3 Q10.85 -5.7 10.85 -7.95 10.85 -11.9 7.7 -16.4 6.6 -17.95 6.35 -17.65 M-5.25 -43.4 L-5.15 -43.3 -5.25 -43.45 -5.25 -43.4 M-3.9 -46.1 L-4.8 -41.45 Q-4.8 -40.55 -3.4 -37.0 L-2.2 -33.35 -2.2 -33.15 Q-2.2 -30.75 -3.9 -28.3 -4.65 -27.1 -6.35 -25.95 -7.0 -25.5 -8.1 -25.15 L-8.15 -25.1 Q-8.8 -25.3 -9.45 -26.45 L-10.2 -28.1 Q-10.55 -29.45 -10.55 -31.3 -10.55 -35.3 -9.25 -38.55 -8.1 -41.45 -5.2 -45.25 -4.6 -46.3 -4.05 -46.45 -3.9 -46.7 -3.9 -46.1" fill="url(#gradient0)" fill-rule="evenodd" stroke="none"/>
    <path d="M6.35 -17.65 Q6.6 -17.95 7.7 -16.4 10.85 -11.9 10.85 -7.95 10.85 -5.7 10.25 -3.3 L9.0 0.2 8.45 0.2 Q7.95 1.45 6.6 1.95 L3.85 2.6 1.35 3.0 1.25 3.0 Q-1.05 3.0 -2.55 1.75 -3.65 1.75 -4.5 0.2 L-5.15 0.2 Q-5.75 -0.6 -6.1 -1.95 -6.6 -3.75 -6.6 -5.4 -6.6 -10.55 -3.0 -14.45 L-2.35 -12.95 Q-1.7 -11.75 1.4 -11.75 5.75 -11.75 6.2 -15.85 L6.35 -17.65" fill="#ffffff" fill-rule="evenodd" stroke="none"/>
  </g>
  <defs>
    <radialGradient cx="0" cy="0" gradientTransform="matrix(4.0E-4, -0.0475, 0.0309, 3.0E-4, 1.5, 4.0)" gradientUnits="userSpaceOnUse" id="gradient0" r="819.2" spreadMethod="pad">
      <stop offset="0.23921568627450981" stop-color="#ffff00"/>
      <stop offset="0.5490196078431373" stop-color="#ffffcc"/>
      <stop offset="1.0" stop-color="#ffff66"/>
    </radialGradient>
  </defs>
</svg>
