<?xml version="1.0" encoding="UTF-8" standalone="no"?>
<svg xmlns:ffdec="https://www.free-decompiler.com/flash" xmlns:xlink="http://www.w3.org/1999/xlink" ffdec:objectType="shape" height="121.6px" width="160.8px" xmlns="http://www.w3.org/2000/svg">
  <g transform="matrix(1.0, 0.0, 0.0, 1.0, 77.35, 167.15)">
    <path d="M32.6 -161.45 Q31.55 -161.45 30.8 -162.25 30.05 -163.1 30.05 -164.3 30.05 -165.5 30.8 -166.3 31.55 -167.15 32.6 -167.15 33.65 -167.15 34.4 -166.3 35.15 -165.5 35.15 -164.3 35.15 -163.1 34.4 -162.25 33.65 -161.45 32.6 -161.45 M26.15 -103.1 L29.15 -104.55 29.15 -102.4 28.7 -101.9 26.35 -102.0 26.15 -103.1 M66.35 -106.85 L65.4 -107.1 Q65.0 -107.35 65.0 -107.7 L65.4 -108.3 66.35 -108.55 67.3 -108.3 Q67.7 -108.05 67.7 -107.7 67.7 -107.35 67.3 -107.1 L66.35 -106.85 M46.35 -74.55 L46.85 -74.35 47.05 -73.85 46.85 -73.35 46.35 -73.15 Q46.05 -73.15 45.85 -73.35 45.65 -73.55 45.65 -73.85 L45.85 -74.35 46.35 -74.55 M19.05 -87.05 Q18.65 -87.05 18.4 -87.35 18.1 -87.65 18.1 -88.05 18.1 -88.45 18.4 -88.75 18.65 -89.05 19.05 -89.05 19.45 -89.05 19.75 -88.75 L20.0 -88.05 19.75 -87.35 Q19.45 -87.05 19.05 -87.05 M26.6 -58.8 L26.15 -58.9 25.95 -59.25 26.15 -59.55 26.6 -59.7 27.05 -59.55 27.25 -59.25 27.05 -58.9 26.6 -58.8 M82.35 -78.5 Q81.9 -78.5 81.6 -78.8 81.25 -79.15 81.25 -79.6 81.25 -80.05 81.6 -80.35 81.9 -80.7 82.35 -80.7 L83.15 -80.35 83.45 -79.6 83.15 -78.8 Q82.8 -78.5 82.35 -78.5 M-50.75 -129.65 Q-50.1 -129.65 -49.65 -128.95 -49.2 -128.25 -49.2 -127.25 -49.2 -126.25 -49.65 -125.55 -50.1 -124.85 -50.75 -124.85 -51.4 -124.85 -51.85 -125.55 -52.3 -126.25 -52.3 -127.25 -52.3 -128.25 -51.85 -128.95 -51.4 -129.65 -50.75 -129.65 M-67.55 -106.2 Q-67.05 -106.2 -66.65 -105.8 -66.3 -105.45 -66.3 -104.95 -66.3 -104.45 -66.65 -104.05 -67.05 -103.7 -67.55 -103.7 -68.05 -103.7 -68.4 -104.05 -68.8 -104.45 -68.8 -104.95 -68.8 -105.45 -68.4 -105.8 -68.05 -106.2 -67.55 -106.2 M-46.15 -103.85 L-46.7 -104.0 -46.95 -104.4 -46.7 -104.8 -46.15 -104.95 -45.55 -104.8 -45.35 -104.4 -45.55 -104.0 -46.15 -103.85 M-17.35 -147.2 Q-16.75 -146.6 -16.75 -145.75 -16.75 -144.9 -17.35 -144.25 -17.95 -143.65 -18.8 -143.65 -19.65 -143.65 -20.25 -144.25 -20.85 -144.9 -20.85 -145.75 -20.85 -146.6 -20.25 -147.2 -19.65 -147.85 -18.8 -147.85 -17.95 -147.85 -17.35 -147.2 M-34.25 -106.25 L-34.8 -106.4 -35.05 -106.8 -34.8 -107.2 -34.25 -107.35 -33.65 -107.2 -33.45 -106.8 -33.65 -106.4 -34.25 -106.25 M-5.85 -100.35 Q-5.5 -100.1 -5.5 -99.75 -5.5 -99.4 -5.85 -99.15 -6.2 -98.9 -6.7 -98.9 -7.2 -98.9 -7.55 -99.15 L-7.9 -99.75 -7.55 -100.35 -6.7 -100.6 -5.85 -100.35 M-32.85 -78.0 L-33.35 -78.3 -33.55 -79.1 -33.35 -79.85 Q-33.15 -80.2 -32.85 -80.2 L-32.35 -79.85 -32.15 -79.1 -32.35 -78.3 Q-32.55 -78.0 -32.85 -78.0 M-21.6 -82.25 Q-22.0 -82.25 -22.3 -82.55 L-22.6 -83.3 -22.3 -84.05 Q-22.0 -84.35 -21.6 -84.35 L-20.9 -84.05 Q-20.6 -83.75 -20.6 -83.3 -20.6 -82.85 -20.9 -82.55 -21.2 -82.25 -21.6 -82.25 M-4.4 -66.95 L-3.8 -68.65 -2.55 -68.9 -2.15 -68.3 -4.4 -66.95 M-58.7 -74.4 Q-58.4 -74.1 -58.4 -73.7 -58.4 -73.3 -58.7 -73.0 -59.0 -72.7 -59.45 -72.7 -59.9 -72.7 -60.2 -73.0 L-60.5 -73.7 -60.2 -74.4 -59.45 -74.7 Q-59.0 -74.7 -58.7 -74.4 M-70.45 -90.65 Q-70.75 -90.35 -71.15 -90.35 -71.55 -90.35 -71.85 -90.65 -72.15 -90.95 -72.15 -91.4 L-71.85 -92.15 -71.15 -92.45 Q-70.75 -92.45 -70.45 -92.15 -70.15 -91.85 -70.15 -91.4 -70.15 -90.95 -70.45 -90.65 M-76.8 -74.35 L-77.2 -74.5 -77.35 -74.9 -77.2 -75.3 -76.8 -75.45 -76.4 -75.3 -76.25 -74.9 Q-76.25 -74.65 -76.4 -74.5 -76.55 -74.35 -76.8 -74.35 M-54.45 -57.0 L-55.05 -57.2 -55.35 -57.65 -55.05 -58.1 -54.45 -58.3 -53.8 -58.1 -53.55 -57.65 Q-53.55 -57.4 -53.8 -57.2 L-54.45 -57.0 M-12.65 -45.55 L-12.85 -46.2 -11.3 -47.1 -10.9 -46.5 -12.65 -45.55" fill="#2f2f2f" fill-rule="evenodd" stroke="none"/>
  </g>
</svg>
