<?xml version="1.0" encoding="UTF-8" standalone="no"?>
<svg xmlns:ffdec="https://www.free-decompiler.com/flash" xmlns:xlink="http://www.w3.org/1999/xlink" ffdec:objectType="shape" height="165.45px" width="153.8px" xmlns="http://www.w3.org/2000/svg">
  <g transform="matrix(1.0, 0.0, 0.0, 1.0, 69.55, 131.75)">
    <path d="M30.2 -18.6 L30.1 -18.7 31.3 -19.0 Q37.65 -20.65 39.3 -22.4 40.3 -23.4 40.3 -26.2 L39.9 -26.55 40.3 -26.4 Q40.35 -27.65 41.5 -27.3 L42.05 -27.0 42.15 -27.0 42.35 -27.15 44.3 -27.4 47.9 -27.8 Q50.15 -28.65 51.25 -30.15 52.25 -31.5 52.25 -34.05 L52.25 -35.15 Q51.95 -35.9 51.3 -36.15 50.0 -36.6 50.0 -37.15 L50.2 -37.65 49.9 -37.95 49.8 -38.55 51.05 -39.95 Q52.4 -41.65 53.15 -43.45 L53.8 -45.75 54.35 -48.4 Q54.35 -50.4 53.6 -52.05 52.25 -55.3 48.8 -55.3 44.2 -55.3 43.2 -54.45 L43.15 -54.35 Q42.5 -54.9 41.3 -54.8 L40.85 -54.7 40.85 -54.8 40.95 -54.9 41.0 -55.05 40.8 -55.1 40.75 -55.2 40.65 -55.55 Q40.65 -56.1 41.85 -56.55 L42.55 -57.7 Q44.3 -60.8 44.6 -62.05 L45.45 -66.0 45.6 -69.1 Q45.6 -71.65 44.65 -74.3 42.95 -78.9 39.15 -78.9 L36.65 -78.5 35.85 -78.15 Q34.9 -78.15 34.9 -79.2 34.9 -79.75 35.3 -80.1 L35.3 -80.15 35.3 -80.45 35.85 -82.3 36.4 -85.0 36.25 -87.0 Q35.95 -88.5 35.3 -90.0 L35.3 -90.1 35.2 -90.15 34.6 -91.0 Q34.1 -91.65 32.8 -92.4 L30.25 -93.6 27.55 -94.6 23.0 -94.4 22.25 -94.4 22.0 -94.2 21.5 -94.75 21.55 -95.1 21.5 -95.3 21.75 -95.6 22.15 -96.6 Q22.8 -97.9 22.8 -98.7 22.8 -101.3 21.3 -103.8 18.8 -107.85 13.35 -107.85 L10.95 -107.75 8.55 -106.7 Q5.6 -104.75 5.4 -104.75 L4.85 -104.9 3.8 -104.45 3.55 -104.45 3.4 -104.45 3.0 -104.5 2.8 -104.7 Q2.85 -105.4 3.6 -106.95 L4.35 -108.75 4.65 -112.4 4.65 -115.3 Q4.5 -118.6 3.95 -121.2 3.15 -125.2 1.6 -127.3 -0.15 -129.45 -2.85 -129.5 L-3.05 -129.5 Q-5.75 -129.5 -7.85 -128.35 L-9.75 -127.0 -11.25 -124.85 -12.25 -123.55 Q-13.65 -121.35 -14.15 -119.65 L-15.0 -116.3 -15.05 -115.75 -14.4 -110.75 -13.65 -107.75 Q-13.05 -105.75 -13.05 -104.9 -13.05 -104.45 -13.3 -104.25 L-13.25 -104.0 -13.5 -103.35 Q-13.75 -102.95 -14.2 -102.95 -14.6 -102.95 -15.25 -103.5 L-20.45 -104.0 -21.55 -103.95 Q-24.55 -103.25 -26.2 -100.85 -27.35 -99.3 -27.55 -97.9 L-27.6 -97.45 -27.6 -97.25 -26.85 -94.35 -27.05 -93.85 -27.05 -93.75 -26.75 -93.6 -27.1 -93.35 Q-27.2 -92.9 -27.5 -92.8 L-29.85 -92.75 Q-33.95 -92.75 -38.05 -89.75 -40.8 -87.8 -41.9 -86.05 -43.5 -83.6 -44.05 -81.75 -44.55 -80.1 -44.55 -77.7 -44.55 -75.05 -43.1 -72.4 -41.65 -70.25 -41.65 -69.85 L-41.85 -69.25 -41.95 -69.1 Q-42.2 -68.75 -42.55 -68.75 L-45.25 -65.85 Q-48.6 -61.9 -48.6 -58.15 L-48.35 -55.25 -47.9 -52.85 Q-46.95 -50.0 -45.1 -48.9 L-44.55 -48.55 -44.1 -48.25 -43.6 -47.8 -43.7 -47.25 Q-43.7 -46.75 -44.35 -46.65 -44.65 -46.45 -45.1 -46.35 L-45.35 -46.25 -45.75 -46.1 -45.9 -46.0 Q-46.75 -45.5 -47.2 -44.6 L-49.15 -41.35 Q-49.75 -40.65 -50.1 -38.4 L-50.35 -35.0 Q-50.35 -32.1 -48.5 -28.55 -46.5 -24.7 -43.25 -22.45 -41.15 -21.0 -37.8 -19.25 -34.65 -17.65 -32.7 -16.9 L-32.65 -16.55 Q-31.15 -17.75 -31.15 -15.8 -33.2 -12.1 -33.2 -11.35 -33.2 -7.3 -29.65 -5.65 L-27.25 -4.7 -26.9 -4.55 Q-26.15 -5.1 -25.8 -3.15 -26.0 -1.5 -24.55 0.4 -22.85 2.45 -20.95 3.55 -16.9 5.8 -10.0 5.8 -5.35 5.8 -3.55 4.65 -2.2 3.85 -1.5 3.6 L-1.6 3.1 Q-1.6 1.95 -0.6 1.95 -0.05 1.95 1.45 3.25 2.95 4.55 4.05 4.55 9.05 4.55 11.25 3.6 L13.55 2.1 15.75 0.85 16.95 -0.6 17.65 -2.05 18.2 -3.55 Q18.4 -4.75 19.45 -4.9 20.5 -5.5 23.2 -5.95 27.95 -6.65 28.75 -8.7 L30.2 -11.85 Q30.5 -12.55 30.5 -14.25 30.5 -14.75 29.6 -15.95 28.75 -17.05 28.75 -17.4 28.75 -18.6 30.05 -18.45 L30.25 -18.45 30.2 -18.6 M6.65 -112.25 L6.45 -108.85 6.35 -108.0 Q8.0 -109.15 10.25 -109.9 16.7 -111.85 20.85 -108.35 23.5 -106.0 24.65 -103.8 25.75 -101.8 25.75 -99.4 L25.7 -97.45 28.3 -97.45 Q34.6 -96.9 35.9 -92.45 36.75 -91.6 37.4 -90.4 L37.95 -88.35 38.4 -84.45 38.2 -82.0 38.05 -81.3 38.4 -81.3 40.8 -80.6 41.3 -80.25 42.15 -79.9 Q44.1 -79.2 45.0 -78.15 L46.0 -76.25 47.45 -71.95 47.5 -70.35 47.7 -67.55 47.35 -64.2 Q47.1 -61.65 46.85 -61.3 L46.1 -59.8 44.85 -57.2 48.9 -57.45 49.75 -57.35 Q53.3 -57.05 54.95 -53.9 L55.7 -52.15 56.3 -50.25 Q56.85 -48.2 56.85 -46.3 56.85 -43.4 56.05 -41.75 55.35 -40.4 53.2 -38.15 53.8 -37.7 54.0 -36.95 L54.1 -36.45 54.15 -36.2 54.2 -35.95 54.5 -34.9 54.55 -34.25 54.65 -32.75 Q54.65 -30.7 52.9 -28.5 50.15 -25.1 44.55 -25.1 L44.2 -25.1 42.6 -25.05 Q42.35 -23.4 41.8 -22.15 L41.7 -21.8 41.8 -21.25 41.8 -21.1 39.9 -20.3 Q37.85 -18.65 34.55 -17.9 L31.9 -17.15 31.95 -17.1 Q32.6 -15.8 32.6 -14.25 32.6 -10.75 30.75 -7.9 27.7 -3.2 20.55 -2.95 19.95 1.2 14.45 4.1 9.6 6.7 6.1 6.7 4.0 6.7 1.5 5.8 L-0.15 5.05 Q-0.65 6.15 -3.3 6.95 -6.3 7.95 -10.05 7.95 -16.5 7.95 -21.8 5.4 -27.9 2.4 -27.9 -2.35 L-27.9 -2.65 -28.0 -2.65 Q-32.3 -2.65 -34.25 -6.85 -35.25 -9.0 -35.4 -11.35 -35.4 -13.55 -33.95 -15.2 L-35.25 -15.8 Q-40.2 -17.55 -45.2 -21.5 L-45.55 -21.75 Q-48.6 -23.9 -50.45 -27.9 -51.5 -29.95 -51.9 -31.95 -52.65 -34.15 -52.65 -35.95 -52.65 -37.9 -51.4 -40.8 L-50.7 -42.55 -49.7 -44.45 -48.25 -46.35 -46.95 -47.5 -48.0 -48.4 Q-49.4 -49.8 -49.85 -51.05 -50.5 -52.55 -50.5 -55.75 L-50.45 -56.85 -50.6 -58.1 Q-50.6 -63.6 -46.2 -68.2 -45.25 -69.25 -44.3 -69.8 L-44.85 -70.8 Q-45.95 -72.2 -46.25 -73.4 L-46.95 -76.05 -46.95 -77.95 Q-46.95 -82.5 -44.3 -86.25 -42.75 -88.85 -40.15 -90.9 -35.1 -94.8 -29.15 -94.8 L-29.35 -95.35 -29.55 -97.3 Q-29.55 -104.35 -21.4 -105.75 -18.45 -106.25 -15.85 -105.65 L-15.65 -105.65 -15.85 -106.4 -16.35 -110.45 -17.15 -116.95 Q-17.15 -124.4 -9.8 -129.3 -6.7 -131.4 -3.65 -131.7 -0.4 -131.95 1.5 -130.0 4.95 -126.55 6.05 -121.3 6.65 -118.4 6.65 -112.25" fill="#2f2f2f" fill-rule="evenodd" stroke="none"/>
    <path d="M30.05 -18.45 Q28.75 -18.6 28.75 -17.4 28.75 -17.05 29.6 -15.95 30.5 -14.75 30.5 -14.25 30.5 -12.55 30.2 -11.85 L28.75 -8.7 Q27.95 -6.65 23.2 -5.95 20.5 -5.5 19.45 -4.9 18.4 -4.75 18.2 -3.55 L17.65 -2.05 16.95 -0.6 15.75 0.85 13.55 2.1 11.25 3.6 Q9.05 4.55 4.05 4.55 2.95 4.55 1.45 3.25 -0.05 1.95 -0.6 1.95 -1.6 1.95 -1.6 3.1 L-1.5 3.6 Q-2.2 3.85 -3.55 4.65 -5.35 5.8 -10.0 5.8 -16.9 5.8 -20.95 3.55 -22.85 2.45 -24.55 0.4 -26.0 -1.5 -25.8 -3.15 -26.15 -5.1 -26.9 -4.55 L-27.25 -4.7 -29.65 -5.65 Q-33.2 -7.3 -33.2 -11.35 -33.2 -12.1 -31.15 -15.8 -31.15 -17.75 -32.65 -16.55 L-32.7 -16.9 Q-34.65 -17.65 -37.8 -19.25 -41.15 -21.0 -43.25 -22.45 -46.5 -24.7 -48.5 -28.55 -50.35 -32.1 -50.35 -35.0 L-50.1 -38.4 Q-49.75 -40.65 -49.15 -41.35 L-47.2 -44.6 Q-46.75 -45.5 -45.9 -46.0 L-45.75 -46.1 -45.35 -46.25 -45.1 -46.35 Q-44.65 -46.45 -44.35 -46.65 -43.7 -46.75 -43.7 -47.25 L-43.6 -47.8 -44.1 -48.25 -44.55 -48.55 -45.1 -48.9 Q-46.95 -50.0 -47.9 -52.85 L-48.35 -55.25 -48.6 -58.15 Q-48.6 -61.9 -45.25 -65.85 L-42.55 -68.75 Q-42.2 -68.75 -41.95 -69.1 L-41.85 -69.25 -41.65 -69.85 Q-41.65 -70.25 -43.1 -72.4 -44.55 -75.05 -44.55 -77.7 -44.55 -80.1 -44.05 -81.75 -43.5 -83.6 -41.9 -86.05 -40.8 -87.8 -38.05 -89.75 -33.95 -92.75 -29.85 -92.75 L-27.5 -92.8 Q-27.2 -92.9 -27.1 -93.35 L-26.75 -93.6 -27.05 -93.75 -27.05 -93.85 -26.85 -94.35 -27.6 -97.25 -27.6 -97.45 -27.55 -97.9 Q-27.35 -99.3 -26.2 -100.85 -24.55 -103.25 -21.55 -103.95 L-20.45 -104.0 -15.25 -103.5 Q-14.6 -102.95 -14.2 -102.95 -13.75 -102.95 -13.5 -103.35 L-13.25 -104.0 -13.3 -104.25 Q-13.05 -104.45 -13.05 -104.9 -13.05 -105.75 -13.65 -107.75 L-14.4 -110.75 -15.05 -115.75 -15.0 -116.3 -14.15 -119.65 Q-13.65 -121.35 -12.25 -123.55 L-11.25 -124.85 -9.75 -127.0 -7.85 -128.35 Q-5.75 -129.5 -3.05 -129.5 L-2.85 -129.5 Q-0.15 -129.45 1.6 -127.3 3.15 -125.2 3.95 -121.2 4.5 -118.6 4.65 -115.3 L4.65 -112.4 4.35 -108.75 3.6 -106.95 Q2.85 -105.4 2.8 -104.7 L3.0 -104.5 3.4 -104.45 3.55 -104.45 3.8 -104.45 4.85 -104.9 5.4 -104.75 Q5.6 -104.75 8.55 -106.7 L10.95 -107.75 13.35 -107.85 Q18.8 -107.85 21.3 -103.8 22.8 -101.3 22.8 -98.7 22.8 -97.9 22.15 -96.6 L21.75 -95.6 21.5 -95.3 21.55 -95.1 21.5 -94.75 22.0 -94.2 22.25 -94.4 23.0 -94.4 27.55 -94.6 30.25 -93.6 32.8 -92.4 Q34.1 -91.65 34.6 -91.0 L35.2 -90.15 35.3 -90.1 35.3 -90.0 Q35.95 -88.5 36.25 -87.0 L36.4 -85.0 35.85 -82.3 35.3 -80.45 35.3 -80.15 35.3 -80.1 Q34.9 -79.75 34.9 -79.2 34.9 -78.15 35.85 -78.15 L36.65 -78.5 39.15 -78.9 Q42.95 -78.9 44.65 -74.3 45.6 -71.65 45.6 -69.1 L45.45 -66.0 44.6 -62.05 Q44.3 -60.8 42.55 -57.7 L41.85 -56.55 Q40.65 -56.1 40.65 -55.55 L40.75 -55.2 40.8 -55.1 41.0 -55.05 40.95 -54.9 40.85 -54.8 40.85 -54.7 41.3 -54.8 Q42.5 -54.9 43.15 -54.35 L43.2 -54.45 Q44.2 -55.3 48.8 -55.3 52.25 -55.3 53.6 -52.05 54.35 -50.4 54.35 -48.4 L53.8 -45.75 53.15 -43.45 Q52.4 -41.65 51.05 -39.95 L49.8 -38.55 49.9 -37.95 50.2 -37.65 50.0 -37.15 Q50.0 -36.6 51.3 -36.15 51.95 -35.9 52.25 -35.15 L52.25 -34.05 Q52.25 -31.5 51.25 -30.15 50.15 -28.65 47.9 -27.8 L44.3 -27.4 42.35 -27.15 42.15 -27.0 42.05 -27.0 41.5 -27.3 Q40.35 -27.65 40.3 -26.4 L39.9 -26.55 40.3 -26.2 Q40.3 -23.4 39.3 -22.4 37.65 -20.65 31.3 -19.0 L30.1 -18.7 30.2 -18.6 30.05 -18.45" fill="#444444" fill-rule="evenodd" stroke="none"/>
    <path d="M-25.4 -3.7 L-25.15 -3.35 -24.7 -2.85 -23.8 -2.1 -23.65 -1.5 Q-18.95 2.65 -15.7 3.7 -12.5 4.8 -6.95 4.9 -1.4 5.0 4.1 3.55 9.55 2.1 11.05 1.2 12.55 0.35 14.65 -0.75 L18.25 -2.5 19.65 -3.35 19.75 -3.3 20.9 -4.5 23.0 -6.6 24.0 -7.55 24.0 -7.95 Q24.0 -8.3 24.3 -8.4 L24.5 -8.4 26.35 -6.4 Q28.3 -4.4 28.3 -1.75 28.3 -0.45 27.95 0.6 L26.85 3.15 Q26.35 4.15 24.55 5.6 24.0 5.95 24.05 6.8 L24.1 7.6 24.05 7.6 24.1 7.75 24.1 8.1 23.7 9.75 Q23.0 11.2 21.05 12.8 17.35 15.9 12.55 15.9 L12.2 15.9 11.65 15.9 9.25 15.7 8.9 15.55 Q8.75 15.15 8.4 15.15 L8.35 15.3 8.25 15.2 7.4 15.95 6.3 16.85 7.3 16.55 6.9 16.95 Q6.25 17.7 5.15 18.1 L0.05 18.45 -3.95 17.8 Q-6.2 17.45 -8.05 16.7 L-10.55 15.0 Q-11.4 14.35 -11.5 13.6 L-11.85 13.35 Q-12.35 13.0 -12.5 13.35 L-14.1 12.1 Q-15.75 12.05 -17.2 11.3 L-18.15 10.7 Q-21.85 8.75 -23.75 5.8 -25.7 2.75 -25.7 -1.1 L-25.45 -3.3 -25.4 -3.7 M24.15 -0.45 L24.1 0.0 24.2 -0.45 24.15 -0.45 M22.65 4.6 L22.7 4.3 22.55 4.5 22.65 4.6" fill="#444444" fill-rule="evenodd" stroke="none"/>
    <path d="M-25.4 -3.7 L-25.45 -3.3 -25.7 -1.1 Q-25.7 2.75 -23.75 5.8 -21.85 8.75 -18.15 10.7 L-17.2 11.3 Q-15.75 12.05 -14.1 12.1 L-12.5 13.35 Q-12.35 13.0 -11.85 13.35 L-11.5 13.6 Q-11.4 14.35 -10.55 15.0 L-8.05 16.7 Q-6.2 17.45 -3.95 17.8 L0.05 18.45 5.15 18.1 Q6.25 17.7 6.9 16.95 L7.3 16.55 6.3 16.85 7.4 15.95 8.25 15.2 8.35 15.3 8.4 15.15 Q8.75 15.15 8.9 15.55 L9.25 15.7 11.65 15.9 12.2 15.9 12.55 15.9 Q17.35 15.9 21.05 12.8 23.0 11.2 23.7 9.75 L24.1 8.1 24.1 7.75 24.05 7.6 24.1 7.6 24.05 6.8 Q24.0 5.95 24.55 5.6 26.35 4.15 26.85 3.15 L27.95 0.6 Q28.3 -0.45 28.3 -1.75 28.3 -4.4 26.35 -6.4 L24.5 -8.4 24.4 -8.6 Q24.4 -9.35 25.05 -9.35 L25.6 -9.05 27.3 -7.95 28.75 -5.8 Q29.45 -4.1 29.45 -1.55 29.45 -0.6 29.05 1.0 L28.3 3.1 27.95 3.7 27.55 4.4 27.1 4.9 25.85 6.45 25.5 6.65 Q25.2 6.85 25.2 7.15 L25.15 9.0 Q24.95 10.7 22.25 14.5 21.5 15.4 20.0 16.25 17.1 17.85 13.2 17.85 L10.2 17.45 8.75 16.95 8.6 17.1 6.95 18.85 5.25 19.75 4.3 20.15 0.85 20.35 -3.1 20.2 -3.75 19.85 -5.6 19.25 -8.65 18.25 Q-9.65 17.8 -11.15 16.5 -12.65 15.2 -12.8 14.4 L-13.3 14.4 Q-15.15 14.4 -17.85 13.25 L-20.25 12.05 -24.1 8.35 Q-25.85 6.35 -26.45 4.45 -26.9 3.05 -26.9 0.45 L-26.6 -3.05 -26.1 -5.8 -26.05 -5.65 -26.1 -5.3 Q-25.85 -5.65 -25.75 -4.25 L-25.4 -3.7 M21.95 -8.2 Q21.95 -8.8 22.45 -8.6 L22.4 -8.6 21.95 -8.2 M24.15 -0.45 L24.2 -0.45 24.1 0.0 24.15 -0.45 M22.65 4.6 L22.55 4.5 22.7 4.3 22.65 4.6" fill="#2f2f2f" fill-rule="evenodd" stroke="none"/>
    <path d="M79.5 -64.3 Q74.25 -58.85 61.4 -44.3 49.95 -31.4 43.0 -24.5 L42.9 -24.4 42.8 -25.1 Q42.8 -26.65 50.55 -35.7 56.75 -42.95 59.6 -45.8 L70.5 -57.4 Q77.3 -64.65 79.3 -64.9 L79.5 -64.3 M51.6 -32.0 L50.55 -30.6 49.6 -29.7 49.0 -29.9 49.75 -31.4 Q50.4 -32.3 51.6 -32.0 M49.25 11.1 Q42.4 8.85 32.7 4.5 32.5 5.05 32.5 4.05 32.5 3.5 33.25 3.25 L34.0 2.75 41.7 5.15 51.7 8.3 Q54.95 8.85 59.0 11.25 62.25 13.15 64.9 15.5 54.3 12.8 49.25 11.1 M-69.55 -66.8 L-69.45 -67.1 Q-61.5 -56.4 -50.1 -39.85 -39.15 -24.0 -36.6 -19.7 L-36.7 -19.4 Q-41.2 -23.35 -46.0 -30.6 L-53.95 -42.8 Q-56.55 -46.55 -62.8 -54.6 -68.0 -61.85 -69.55 -66.8 M-46.3 -13.55 L-46.0 -14.2 Q-44.45 -13.8 -39.35 -10.7 -34.2 -7.55 -33.3 -6.4 L-33.4 -5.95 Q-33.55 -5.7 -34.2 -5.7 -35.75 -5.7 -46.65 -12.65 -46.65 -13.2 -46.3 -13.55 M-36.35 12.7 Q-45.95 18.3 -49.15 19.9 L-49.7 19.9 -49.85 19.25 Q-49.85 17.9 -39.65 12.2 L-26.8 5.2 -26.2 5.3 Q-26.0 5.4 -26.0 6.0 -26.0 6.6 -36.35 12.7 M-36.2 32.9 Q-31.05 27.95 -24.7 22.8 -17.6 17.05 -11.9 13.4 L-23.6 23.4 -35.6 33.7 -36.1 33.5 -36.2 32.9" fill="#d40101" fill-rule="evenodd" stroke="none"/>
    <path d="M2.15 -83.8 L15.5 -79.05 Q19.1 -77.45 24.85 -72.4 26.8 -70.7 29.95 -66.6 33.1 -62.25 33.6 -60.6 35.15 -54.65 36.4 -52.0 38.4 -47.6 39.35 -43.6 39.65 -42.1 39.65 -37.65 39.65 -32.6 39.8 -31.45 L39.85 -31.25 39.2 -26.3 38.4 -24.25 Q36.1 -19.35 35.9 -17.75 35.5 -15.7 33.75 -11.95 L31.2 -6.75 Q28.3 -3.15 22.1 0.5 17.75 3.05 13.9 4.55 10.55 6.05 6.35 6.35 L-0.6 6.05 -6.65 4.95 Q-10.5 3.05 -14.2 1.55 -17.3 0.25 -21.0 -3.0 -23.6 -5.35 -29.35 -12.75 -34.35 -19.2 -35.25 -20.85 -39.75 -28.55 -40.55 -39.4 L-41.05 -46.1 -41.4 -48.15 -38.85 -56.1 Q-35.55 -66.65 -32.85 -70.7 -31.5 -72.75 -27.8 -75.6 L-23.2 -78.85 Q-21.8 -79.9 -18.5 -81.2 L-13.45 -83.0 -9.9 -84.3 -6.2 -84.7 -3.55 -85.15 Q-0.75 -84.9 2.15 -83.8 M9.35 -79.6 Q5.7 -80.3 0.55 -79.75 -6.45 -80.45 -10.3 -79.85 -23.25 -78.15 -30.25 -67.3 L-32.3 -64.2 -33.0 -62.95 -32.95 -62.95 -33.0 -62.8 -33.1 -62.65 -33.25 -62.3 Q-38.6 -53.75 -37.8 -40.4 -37.15 -28.1 -33.0 -23.1 L-26.95 -14.35 Q-23.35 -8.9 -19.65 -5.55 L-19.25 -5.65 Q-18.35 -5.2 -17.8 -5.1 -15.2 -4.6 -13.3 -8.7 -12.1 -11.3 -11.9 -13.4 -11.65 -15.2 -12.25 -19.1 L-12.7 -24.0 Q-12.0 -29.95 -7.05 -34.7 -0.4 -40.95 10.95 -39.8 19.85 -37.9 24.0 -35.85 27.55 -34.05 29.0 -31.6 L31.2 -27.75 32.7 -24.75 34.2 -24.85 Q35.15 -25.15 35.85 -26.05 L36.25 -28.1 Q37.1 -32.85 36.25 -40.05 L36.25 -40.3 36.0 -42.7 Q34.65 -52.35 31.55 -59.5 27.75 -67.8 21.0 -73.6 15.4 -78.5 9.35 -79.6 M-15.45 -12.15 L-15.4 -12.35 -15.35 -12.3 -15.45 -12.15 M28.75 -13.75 L28.7 -13.65 28.8 -13.75 28.75 -13.75" fill="#fd0202" fill-rule="evenodd" stroke="none"/>
    <path d="M9.35 -79.6 Q15.4 -78.5 21.0 -73.6 27.75 -67.8 31.55 -59.5 34.65 -52.35 36.0 -42.7 L36.25 -40.3 36.25 -40.05 Q37.1 -32.85 36.25 -28.1 L35.85 -26.05 Q35.15 -25.15 34.2 -24.85 L32.7 -24.75 31.2 -27.75 29.0 -31.6 Q27.55 -34.05 24.0 -35.85 19.85 -37.9 10.95 -39.8 -0.4 -40.95 -7.05 -34.7 -12.0 -29.95 -12.7 -24.0 L-12.25 -19.1 Q-11.65 -15.2 -11.9 -13.4 -12.1 -11.3 -13.3 -8.7 -15.2 -4.6 -17.8 -5.1 -18.35 -5.2 -19.25 -5.65 L-19.65 -5.55 Q-23.35 -8.9 -26.95 -14.35 L-33.0 -23.1 Q-37.15 -28.1 -37.8 -40.4 -38.6 -53.75 -33.25 -62.3 L-33.1 -62.65 -33.0 -62.8 -32.95 -62.95 -33.0 -62.95 -32.3 -64.2 -30.25 -67.3 Q-23.25 -78.15 -10.3 -79.85 -6.45 -80.45 0.55 -79.75 5.7 -80.3 9.35 -79.6 M-15.4 -12.35 L-16.65 -12.45 -18.5 -13.55 Q-19.85 -14.75 -21.5 -18.65 -22.95 -22.1 -23.5 -24.4 -24.55 -29.55 -19.2 -36.8 -20.05 -38.8 -20.0 -42.0 -19.9 -46.65 -17.7 -50.0 -16.05 -52.6 -13.75 -52.05 -11.1 -50.85 -9.45 -50.7 -7.15 -49.55 -4.05 -49.7 1.45 -49.95 4.55 -54.7 8.05 -60.1 6.2 -65.3 5.05 -68.6 2.0 -71.25 -6.3 -78.45 -16.8 -73.3 -24.7 -69.45 -29.6 -61.9 -35.7 -52.45 -35.55 -44.9 -35.45 -38.55 -31.25 -34.95 L-32.0 -34.85 -32.55 -34.35 Q-33.0 -33.8 -32.5 -30.85 -31.9 -27.75 -30.7 -24.25 -29.85 -22.2 -27.25 -18.85 -24.9 -15.95 -22.85 -14.15 -19.95 -11.6 -18.3 -11.45 -17.1 -11.25 -15.45 -12.15 L-15.35 -12.3 -15.4 -12.35 M28.75 -13.75 L28.8 -13.75 28.7 -13.65 28.75 -13.75" fill="#ffff00" fill-rule="evenodd" stroke="none"/>
    <path d="M-15.45 -12.15 Q-17.1 -11.25 -18.3 -11.45 -19.95 -11.6 -22.85 -14.15 -24.9 -15.95 -27.25 -18.85 -29.85 -22.2 -30.7 -24.25 -31.9 -27.75 -32.5 -30.85 -33.0 -33.8 -32.55 -34.35 L-32.0 -34.85 -31.25 -34.95 Q-35.45 -38.55 -35.55 -44.9 -35.7 -52.45 -29.6 -61.9 -24.7 -69.45 -16.8 -73.3 -6.3 -78.45 2.0 -71.25 5.05 -68.6 6.2 -65.3 8.05 -60.1 4.55 -54.7 1.45 -49.95 -4.05 -49.7 -7.15 -49.55 -9.45 -50.7 -11.1 -50.85 -13.75 -52.05 -16.05 -52.6 -17.7 -50.0 -19.9 -46.65 -20.0 -42.0 -20.05 -38.8 -19.2 -36.8 -24.55 -29.55 -23.5 -24.4 -22.95 -22.1 -21.5 -18.65 -19.85 -14.75 -18.5 -13.55 L-16.65 -12.45 -15.4 -12.35 -15.45 -12.15" fill="#ffff99" fill-rule="evenodd" stroke="none"/>
    <path d="M73.8 -29.3 Q85.75 -28.85 84.05 -22.9 82.95 -18.95 73.7 -15.4 71.3 -13.85 69.65 -14.05 66.35 -13.05 63.25 -12.4 L60.5 -11.65 Q53.5 -8.9 48.0 -7.0 40.45 -4.55 36.25 -4.35 L43.9 -6.85 57.3 -11.45 Q64.15 -14.35 67.65 -16.15 75.45 -20.15 76.15 -22.65 77.15 -26.2 73.4 -27.35 L62.35 -28.1 57.4 -27.6 51.6 -26.65 47.2 -26.5 47.25 -27.3 52.5 -28.45 63.7 -30.0 Q70.3 -30.4 73.8 -29.3 M-67.15 -24.05 Q-67.15 -26.85 -63.25 -26.75 -59.35 -26.7 -50.05 -23.8 -45.05 -22.5 -42.0 -21.15 -38.7 -19.65 -36.65 -17.6 L-36.85 -17.05 Q-37.1 -16.7 -37.75 -16.7 L-41.25 -18.15 Q-44.75 -19.6 -45.35 -19.7 L-51.8 -20.95 -59.75 -22.5 -61.95 -22.5 Q-60.8 -19.15 -50.1 -11.7 -37.2 -2.65 -35.7 -1.2 L-35.7 -0.95 -36.35 -0.9 Q-36.85 -0.9 -45.9 -5.45 -55.4 -10.25 -57.55 -11.9 -60.65 -14.3 -63.55 -17.65 -67.15 -21.8 -67.15 -24.05 M-57.35 -24.2 L-59.55 -24.4 -59.35 -24.3 -57.35 -24.2 M-62.55 -25.0 L-62.55 -24.6 -59.75 -24.6 -62.55 -25.0" fill="#d40101" fill-rule="evenodd" stroke="none"/>
  </g>
</svg>
