<?xml version="1.0" encoding="UTF-8" standalone="no"?>
<svg xmlns:ffdec="https://www.free-decompiler.com/flash" xmlns:xlink="http://www.w3.org/1999/xlink" ffdec:objectType="shape" height="88.65px" width="83.2px" xmlns="http://www.w3.org/2000/svg">
  <g transform="matrix(1.0, 0.0, 0.0, 1.0, 40.15, 64.9)">
    <path d="M8.2 -62.35 Q10.55 -59.25 10.55 -53.45 L10.5 -51.6 9.8 -49.45 Q12.55 -50.2 15.5 -47.4 18.35 -44.65 18.5 -41.35 L18.55 -40.05 18.45 -38.95 18.35 -38.2 18.05 -37.5 17.0 -35.75 16.45 -34.95 Q21.75 -33.2 24.3 -29.05 26.2 -25.95 26.2 -22.55 26.0 -20.3 25.15 -18.1 L24.4 -16.5 Q25.8 -15.9 26.8 -14.95 28.7 -12.95 28.7 -10.4 28.7 -5.3 25.9 -1.8 20.45 5.05 5.7 5.05 -2.9 5.05 -11.95 2.2 L-13.85 1.6 Q-19.65 -0.45 -22.6 -2.65 -25.85 -5.05 -27.85 -8.2 -29.8 -11.4 -29.8 -14.05 -29.8 -16.45 -28.75 -17.75 L-28.35 -18.2 -27.9 -18.8 Q-26.65 -20.5 -22.95 -21.05 L-22.2 -21.05 -23.15 -22.35 -23.8 -24.45 -24.25 -26.7 Q-24.25 -28.9 -23.4 -30.7 L-23.35 -30.8 Q-22.75 -38.05 -13.9 -38.55 L-12.5 -38.55 -13.1 -40.65 Q-13.6 -42.05 -13.6 -43.3 -13.6 -48.85 -7.3 -49.2 L-4.05 -48.9 -4.15 -49.6 Q-4.55 -51.9 -4.45 -54.65 -4.45 -59.1 -2.1 -62.05 0.05 -64.75 3.05 -64.9 6.15 -65.15 8.2 -62.35 M7.85 -57.8 Q6.7 -62.05 2.45 -62.05 -0.45 -62.05 -1.5 -58.65 -2.05 -57.0 -2.05 -54.65 -2.05 -52.45 -1.1 -49.45 L-0.25 -46.8 0.25 -45.6 0.05 -45.45 Q0.15 -44.75 -0.6 -44.75 L-0.95 -44.9 -1.3 -44.9 Q-1.9 -44.9 -2.4 -45.3 L-2.55 -45.3 Q-3.15 -45.3 -3.95 -45.9 -4.8 -46.65 -7.15 -46.65 -9.2 -46.65 -10.2 -45.35 -10.95 -44.45 -10.95 -43.25 -10.95 -40.65 -7.85 -37.8 L-7.8 -37.8 -7.35 -37.65 Q-4.35 -36.65 -4.35 -35.3 L-4.45 -34.8 -3.4 -34.2 -3.35 -34.1 -3.35 -34.05 Q-4.5 -34.8 -6.8 -35.25 L-9.55 -35.45 -9.6 -35.55 -12.3 -35.6 Q-17.55 -35.6 -19.7 -33.15 -20.95 -31.7 -20.95 -29.75 L-20.65 -27.55 -20.35 -24.8 Q-20.3 -23.6 -18.65 -21.9 -16.95 -20.15 -16.95 -19.4 L-17.1 -18.35 -17.5 -18.05 -18.15 -17.95 -23.4 -17.8 Q-27.4 -17.15 -27.4 -13.95 -27.4 -11.7 -25.1 -8.6 -23.0 -5.8 -20.25 -4.0 L-19.05 -3.15 -15.95 -1.9 -11.75 -0.3 -3.15 1.35 Q-0.55 1.65 0.25 2.05 L5.65 2.35 Q18.4 2.35 23.4 -3.1 26.2 -6.1 26.2 -10.35 L26.1 -11.1 25.45 -12.3 24.1 -13.65 22.55 -14.35 Q21.6 -13.75 20.45 -13.75 19.05 -13.75 18.85 -14.65 L19.45 -15.55 20.35 -17.5 21.2 -17.45 21.3 -17.5 Q23.75 -20.3 23.75 -22.5 23.75 -24.8 22.15 -27.85 21.05 -29.9 19.5 -30.95 17.95 -31.85 15.95 -32.15 L15.35 -32.2 Q13.4 -31.1 12.4 -31.1 11.7 -31.1 11.25 -31.55 L11.0 -31.9 11.15 -32.2 11.95 -34.35 12.45 -34.4 13.45 -35.4 Q16.0 -37.75 16.0 -40.8 L15.1 -43.75 Q14.2 -45.5 12.8 -46.2 L10.55 -46.5 8.7 -45.95 Q8.5 -45.8 8.25 -45.75 7.75 -44.9 6.95 -44.9 6.3 -44.9 5.9 -45.6 L5.65 -46.25 6.9 -49.35 Q8.15 -52.45 8.15 -53.45 L7.85 -57.8" fill="#2f2f2f" fill-rule="evenodd" stroke="none"/>
    <path d="M7.85 -57.8 L8.15 -53.45 Q8.15 -52.45 6.9 -49.35 L5.65 -46.25 5.9 -45.6 Q6.3 -44.9 6.95 -44.9 7.75 -44.9 8.25 -45.75 8.5 -45.8 8.7 -45.95 L10.55 -46.5 12.8 -46.2 Q14.2 -45.5 15.1 -43.75 L16.0 -40.8 Q16.0 -37.75 13.45 -35.4 L12.45 -34.4 11.95 -34.35 11.15 -32.2 11.0 -31.9 11.25 -31.55 Q11.7 -31.1 12.4 -31.1 13.4 -31.1 15.35 -32.2 L15.95 -32.15 Q17.95 -31.85 19.5 -30.95 21.05 -29.9 22.15 -27.85 23.75 -24.8 23.75 -22.5 23.75 -20.3 21.3 -17.5 L21.2 -17.45 20.35 -17.5 19.45 -15.55 18.85 -14.65 Q19.05 -13.75 20.45 -13.75 21.6 -13.75 22.55 -14.35 L24.1 -13.65 25.45 -12.3 26.1 -11.1 26.2 -10.35 Q26.2 -6.1 23.4 -3.1 18.4 2.35 5.65 2.35 L0.25 2.05 Q-0.55 1.65 -3.15 1.35 L-11.75 -0.3 -15.95 -1.9 -19.05 -3.15 -20.25 -4.0 Q-23.0 -5.8 -25.1 -8.6 -27.4 -11.7 -27.4 -13.95 -27.4 -17.15 -23.4 -17.8 L-18.15 -17.95 -17.5 -18.05 -17.1 -18.35 -16.95 -19.4 Q-16.95 -20.15 -18.65 -21.9 -20.3 -23.6 -20.35 -24.8 L-20.65 -27.55 -20.95 -29.75 Q-20.95 -31.7 -19.7 -33.15 -17.55 -35.6 -12.3 -35.6 L-9.6 -35.55 -9.55 -35.45 -6.8 -35.25 Q-4.5 -34.8 -3.35 -34.05 L-3.35 -34.1 -3.4 -34.2 -4.45 -34.8 -4.35 -35.3 Q-4.35 -36.65 -7.35 -37.65 L-7.8 -37.8 -7.85 -37.8 Q-10.95 -40.65 -10.95 -43.25 -10.95 -44.45 -10.2 -45.35 -9.2 -46.65 -7.15 -46.65 -4.8 -46.65 -3.95 -45.9 -3.15 -45.3 -2.55 -45.3 L-2.4 -45.3 Q-1.9 -44.9 -1.3 -44.9 L-0.95 -44.9 -0.6 -44.75 Q0.15 -44.75 0.05 -45.45 L0.25 -45.6 -0.25 -46.8 -1.1 -49.45 Q-2.05 -52.45 -2.05 -54.65 -2.05 -57.0 -1.5 -58.65 -0.45 -62.05 2.45 -62.05 6.7 -62.05 7.85 -57.8" fill="#444444" fill-rule="evenodd" stroke="none"/>
    <path d="M8.9 -26.25 Q6.3 -28.65 0.8 -28.65 L-4.4 -27.85 Q-6.05 -27.25 -7.2 -26.35 L-8.1 -25.2 -8.75 -24.2 -9.1 -22.95 Q-9.1 -19.25 -5.5 -18.5 -1.35 -18.25 -0.15 -17.65 1.9 -16.6 3.75 -12.5 5.35 -8.95 6.95 -8.95 12.1 -8.95 12.1 -15.85 12.1 -23.25 8.9 -26.25 M20.3 -3.2 L20.0 -3.55 Q25.75 -9.35 31.55 -13.95 43.05 -23.1 43.05 -17.75 43.05 -14.9 33.1 -8.8 L21.3 -2.15 20.3 -3.2 M33.05 -3.35 Q32.75 -2.9 31.4 -2.5 L29.15 -2.1 Q27.65 -2.1 27.25 -2.75 28.05 -3.6 29.0 -3.9 L32.8 -4.1 33.05 -3.35 M27.15 12.25 Q25.7 12.25 23.7 10.65 21.85 9.15 21.75 8.35 23.15 7.6 24.75 8.8 L27.9 10.9 27.9 11.65 Q28.4 12.25 27.15 12.25 M17.25 12.45 Q20.0 14.55 21.6 17.05 21.3 18.3 20.05 18.3 17.1 18.3 15.3 16.5 13.8 15.0 13.8 13.4 13.8 9.85 17.25 12.45 M-26.85 -15.2 Q-21.8 -11.35 -19.6 -8.6 L-20.15 -7.8 Q-20.8 -7.05 -21.25 -7.05 -22.05 -7.05 -24.35 -8.5 -27.35 -9.3 -32.85 -12.95 -40.15 -17.85 -40.15 -19.85 L-40.15 -20.55 -40.0 -20.65 -37.75 -20.5 -37.75 -20.55 Q-37.75 -23.95 -31.1 -18.6 L-28.65 -16.55 -26.85 -15.2 M-34.1 -3.35 L-34.3 -3.9 -34.5 -5.1 Q-34.5 -6.35 -34.25 -5.65 L-25.65 -5.4 Q-24.75 -5.05 -24.5 -4.4 -26.05 -3.1 -32.25 -3.1 L-34.1 -3.35 M-11.8 -23.1 Q-10.6 -25.5 -8.8 -27.55 16.75 -37.65 13.75 -9.65 12.35 3.35 -0.75 2.2 -15.7 1.35 -13.9 -15.85 -13.6 -18.5 -12.75 -20.9 L-11.8 -23.1 M-19.95 6.6 Q-19.85 6.65 -19.85 7.4 -19.85 8.5 -25.1 10.85 L-32.75 14.15 -33.6 13.9 -33.85 12.9 Q-33.85 11.3 -28.0 8.8 -22.35 6.35 -20.1 6.5 L-19.95 6.6 M-1.75 17.05 Q-1.75 18.3 -2.9 20.85 -4.15 23.75 -5.25 23.75 -6.5 23.75 -6.25 23.5 L-6.55 23.05 -6.65 22.0 Q-6.65 21.5 -5.05 18.3 -3.45 15.05 -3.0 14.9 -2.25 15.45 -2.05 15.75 -1.75 16.2 -1.75 17.05" fill="#d40101" fill-rule="evenodd" stroke="none"/>
    <path d="M8.9 -26.25 Q12.1 -23.25 12.1 -15.85 12.1 -8.95 6.95 -8.95 5.35 -8.95 3.75 -12.5 1.9 -16.6 -0.15 -17.65 -1.35 -18.25 -5.5 -18.5 -9.1 -19.25 -9.1 -22.95 L-8.75 -24.2 -8.1 -25.2 -7.2 -26.35 Q-6.05 -27.25 -4.4 -27.85 L0.8 -28.65 Q6.3 -28.65 8.9 -26.25" fill="#e00101" fill-rule="evenodd" stroke="none"/>
  </g>
</svg>
