<?xml version="1.0" encoding="UTF-8" standalone="no"?>
<svg xmlns:ffdec="https://www.free-decompiler.com/flash" xmlns:xlink="http://www.w3.org/1999/xlink" ffdec:objectType="shape" height="278.4px" width="138.85px" xmlns="http://www.w3.org/2000/svg">
  <g transform="matrix(1.0, 0.0, 0.0, 1.0, 67.15, 157.25)">
    <path d="M-35.7 -24.45 Q-34.15 -24.6 -34.15 -23.25 -34.15 -22.8 -35.2 -21.5 -36.25 -20.15 -36.25 -19.55 -36.25 -17.5 -35.9 -16.65 -35.05 -15.25 -34.15 -12.95 -33.2 -10.65 -27.65 -9.8 -24.5 -9.3 -23.3 -8.6 -22.05 -8.35 -21.85 -6.95 L-21.15 -5.2 -20.35 -3.55 Q-20.15 -2.8 -18.9 -1.8 -17.75 -0.95 -16.35 -0.35 L-13.65 1.35 Q-11.1 2.5 -5.2 2.5 -3.95 2.5 -2.15 1.0 -0.4 -0.5 0.2 -0.5 1.4 -0.5 1.4 0.85 L1.3 1.35 3.65 2.65 Q5.8 4.0 11.25 4.0 19.35 4.0 24.1 1.35 26.35 0.1 28.3 -2.35 30.0 -4.6 29.8 -6.5 30.2 -8.75 31.05 -8.15 L31.5 -8.3 34.35 -9.45 Q38.5 -11.4 38.5 -16.15 38.5 -16.95 36.05 -21.35 36.05 -23.6 37.8 -22.2 L37.85 -22.65 Q40.2 -23.45 43.9 -25.35 47.75 -27.4 50.25 -29.2 54.0 -31.75 56.4 -36.3 58.6 -40.45 58.6 -43.85 L58.25 -47.85 Q57.85 -50.5 57.2 -51.3 L54.9 -55.1 Q54.35 -56.15 53.35 -56.75 L53.2 -56.85 Q52.95 -56.9 52.7 -57.05 52.55 -57.05 52.45 -57.15 L51.55 -57.5 Q50.75 -57.6 50.75 -58.2 L50.8 -58.2 Q50.65 -58.5 50.65 -58.85 L51.25 -59.4 51.8 -59.75 52.45 -60.15 Q54.55 -61.45 55.65 -64.75 L56.2 -67.6 56.5 -70.95 Q56.5 -75.4 52.55 -80.0 L49.4 -83.45 Q49.0 -83.45 48.7 -83.85 L48.6 -84.0 Q48.35 -84.35 48.35 -84.75 48.35 -85.2 50.05 -87.7 51.75 -90.8 51.75 -93.9 51.75 -96.75 51.2 -98.65 50.55 -100.85 48.65 -103.7 47.35 -105.75 44.1 -108.05 39.3 -111.55 34.5 -111.55 L31.8 -111.6 Q31.4 -111.75 31.3 -112.3 L30.95 -112.55 31.25 -112.75 31.25 -112.85 Q31.0 -113.0 31.0 -113.45 L31.9 -116.85 31.9 -117.15 31.85 -117.6 Q31.6 -119.25 30.3 -121.05 28.35 -123.85 24.8 -124.7 L23.55 -124.75 17.4 -124.15 Q16.65 -123.55 16.2 -123.55 15.7 -123.55 15.35 -124.0 L15.1 -124.75 15.15 -125.0 Q14.85 -125.3 14.85 -125.8 14.85 -126.8 15.55 -129.15 L16.45 -132.7 17.2 -138.5 17.1 -139.15 16.15 -143.1 Q15.5 -145.15 13.9 -147.7 13.45 -148.1 12.75 -149.2 L10.95 -151.7 8.7 -153.3 Q6.3 -154.65 3.1 -154.65 L2.9 -154.65 Q-0.25 -154.55 -2.35 -152.1 -4.15 -149.6 -5.1 -144.9 -5.75 -141.9 -5.9 -138.05 L-5.95 -134.55 -5.55 -130.35 -4.7 -128.25 Q-3.8 -126.35 -3.75 -125.6 L-4.0 -125.35 -4.45 -125.3 -4.65 -125.3 -4.95 -125.3 Q-5.35 -125.3 -6.1 -125.8 L-6.75 -125.65 Q-7.05 -125.65 -10.5 -127.9 -11.9 -128.7 -13.3 -129.15 L-16.15 -129.3 Q-22.5 -129.3 -25.4 -124.55 -27.2 -121.6 -27.2 -118.55 -27.2 -117.6 -26.45 -116.05 L-25.95 -114.95 Q-25.65 -114.8 -25.65 -114.5 L-25.75 -114.35 -25.65 -113.9 -26.3 -113.3 -26.55 -113.5 -27.45 -113.5 -32.75 -113.75 -35.95 -112.55 -38.9 -111.15 Q-40.45 -110.25 -41.05 -109.5 L-41.75 -108.55 -41.8 -108.45 -41.85 -108.3 Q-42.6 -106.55 -42.95 -104.85 L-43.15 -102.5 -42.5 -99.3 -41.8 -97.15 -41.85 -96.85 -41.8 -96.75 Q-41.4 -96.3 -41.4 -95.7 -41.4 -94.4 -42.5 -94.4 L-43.45 -94.85 Q-44.3 -95.3 -46.4 -95.3 -50.8 -95.3 -52.8 -89.9 -53.9 -86.8 -53.9 -83.85 L-53.75 -80.2 -52.75 -75.55 Q-52.4 -74.05 -50.35 -70.5 L-49.55 -69.15 Q-48.15 -68.6 -48.15 -68.0 -48.15 -67.55 -48.25 -67.55 L-48.3 -67.4 -48.55 -67.4 -48.45 -67.15 -48.4 -67.1 -48.4 -66.95 -48.85 -67.0 Q-50.3 -67.15 -51.05 -66.55 L-51.1 -66.65 Q-52.3 -67.7 -57.7 -67.7 -61.75 -67.7 -63.35 -63.85 -64.15 -61.9 -64.15 -59.55 L-63.55 -56.45 -62.8 -53.75 Q-61.9 -51.6 -60.3 -49.65 L-58.9 -48.0 -59.0 -47.3 -59.3 -46.95 Q-59.15 -46.8 -59.15 -46.4 -59.15 -45.75 -60.6 -45.2 -61.35 -44.9 -61.75 -44.0 L-61.75 -42.7 Q-61.75 -39.75 -60.55 -38.2 -59.25 -36.35 -56.65 -35.4 L-52.4 -34.95 -50.15 -34.65 -49.9 -34.5 -49.75 -34.5 -49.1 -34.8 Q-47.75 -35.25 -47.7 -33.75 L-47.25 -33.95 -47.7 -33.5 Q-47.7 -30.25 -46.55 -29.05 -44.6 -27.0 -37.15 -25.05 L-35.75 -24.75 -35.9 -24.6 -35.95 -24.45 -35.7 -24.45 M3.8 -157.2 Q7.35 -156.85 11.0 -154.4 19.65 -148.7 19.65 -139.9 L18.7 -132.3 18.15 -127.55 17.9 -126.65 18.1 -126.7 Q21.15 -127.4 24.65 -126.8 34.2 -125.15 34.2 -116.9 L33.95 -114.65 33.75 -113.95 Q40.65 -113.95 46.6 -109.35 49.65 -107.0 51.45 -103.9 54.6 -99.55 54.6 -94.2 L54.55 -92.0 53.75 -88.9 Q53.4 -87.45 52.15 -85.8 L51.5 -84.7 53.7 -82.8 Q58.85 -77.35 58.85 -70.95 L58.7 -69.45 58.75 -68.15 Q58.75 -64.45 58.0 -62.65 57.4 -61.2 55.8 -59.55 L54.55 -58.5 56.15 -57.2 57.8 -54.95 59.0 -52.75 59.8 -50.65 Q61.25 -47.25 61.25 -45.0 61.25 -42.85 60.4 -40.3 59.9 -37.95 58.7 -35.55 56.5 -30.85 52.95 -28.3 L52.5 -28.0 Q46.65 -23.4 40.9 -21.35 L39.35 -20.65 Q41.0 -18.65 41.0 -16.15 40.85 -13.35 39.7 -10.85 37.45 -5.95 32.35 -5.95 L32.25 -5.95 32.3 -5.6 Q32.3 0.0 25.1 3.55 18.85 6.5 11.3 6.5 6.95 6.5 3.35 5.35 0.3 4.4 -0.3 3.1 -1.05 3.55 -2.25 4.0 -5.15 5.05 -7.6 5.05 -11.75 5.05 -17.4 2.05 -23.85 -1.45 -24.6 -6.25 -32.95 -6.55 -36.55 -12.05 -38.7 -15.4 -38.7 -19.55 -38.7 -21.35 -37.95 -22.85 L-37.9 -22.95 -41.0 -23.85 Q-44.85 -24.65 -47.25 -26.65 L-49.5 -27.55 -49.5 -27.7 -49.35 -28.35 -49.5 -28.75 Q-50.15 -30.2 -50.45 -32.15 L-52.35 -32.2 -52.7 -32.2 Q-59.25 -32.2 -62.45 -36.2 -64.55 -38.8 -64.55 -41.2 L-64.4 -42.95 -64.35 -43.7 -64.05 -45.0 -63.95 -45.3 -63.85 -45.5 -63.8 -46.2 Q-63.55 -47.0 -62.85 -47.55 -65.35 -50.2 -66.15 -51.75 -67.15 -53.65 -67.15 -57.05 -67.15 -59.3 -66.5 -61.75 L-65.8 -64.0 -64.9 -66.05 Q-62.95 -69.75 -58.85 -70.05 L-57.8 -70.2 -53.05 -69.9 -54.5 -72.9 -55.45 -74.7 -56.0 -78.05 -56.4 -82.05 -56.15 -85.3 -56.1 -87.15 Q-55.85 -88.45 -54.4 -92.2 L-53.25 -94.4 Q-52.15 -95.7 -49.9 -96.55 L-48.85 -96.9 -48.3 -97.3 -45.55 -98.2 -45.1 -98.2 -45.25 -98.95 -45.5 -101.8 -45.0 -106.4 -44.3 -108.85 Q-43.6 -110.2 -42.55 -111.25 -41.05 -116.45 -33.65 -117.05 L-30.6 -117.05 -30.65 -119.4 Q-30.65 -122.2 -29.4 -124.55 -28.05 -127.1 -24.9 -129.8 -20.0 -133.95 -12.5 -131.7 -9.85 -130.8 -7.95 -129.45 L-8.05 -130.5 -8.25 -134.4 Q-8.25 -141.6 -7.55 -145.0 -6.3 -151.15 -2.25 -155.25 0.0 -157.5 3.8 -157.2" fill="#2f2f2f" fill-rule="evenodd" stroke="none"/>
    <path d="M-35.9 -24.6 L-35.75 -24.75 -37.15 -25.05 Q-44.6 -27.0 -46.55 -29.05 -47.7 -30.25 -47.7 -33.5 L-47.25 -33.95 -47.7 -33.75 Q-47.75 -35.25 -49.1 -34.8 L-49.75 -34.5 -49.9 -34.5 -50.15 -34.65 -52.4 -34.95 -56.65 -35.4 Q-59.25 -36.35 -60.55 -38.2 -61.75 -39.75 -61.75 -42.7 L-61.75 -44.0 Q-61.35 -44.9 -60.6 -45.2 -59.15 -45.75 -59.15 -46.4 -59.15 -46.8 -59.3 -46.95 L-59.0 -47.3 -58.9 -48.0 -60.3 -49.65 Q-61.9 -51.6 -62.8 -53.75 L-63.55 -56.45 -64.15 -59.55 Q-64.15 -61.9 -63.35 -63.85 -61.75 -67.7 -57.7 -67.7 -52.3 -67.7 -51.1 -66.65 L-51.05 -66.55 Q-50.3 -67.15 -48.85 -67.0 L-48.4 -66.95 -48.4 -67.1 -48.45 -67.15 -48.55 -67.4 -48.3 -67.4 -48.25 -67.55 Q-48.15 -67.55 -48.15 -68.0 -48.15 -68.6 -49.55 -69.15 L-50.35 -70.5 Q-52.4 -74.05 -52.75 -75.55 L-53.75 -80.2 -53.9 -83.85 Q-53.9 -86.8 -52.8 -89.9 -50.8 -95.3 -46.4 -95.3 -44.3 -95.3 -43.45 -94.85 L-42.5 -94.4 Q-41.4 -94.4 -41.4 -95.7 -41.4 -96.3 -41.8 -96.75 L-41.85 -96.85 -41.8 -97.15 -42.5 -99.3 -43.15 -102.5 -42.95 -104.85 Q-42.6 -106.55 -41.85 -108.3 L-41.8 -108.45 -41.75 -108.55 -41.05 -109.5 Q-40.45 -110.25 -38.9 -111.15 L-35.95 -112.55 -32.75 -113.75 -27.45 -113.5 -26.55 -113.5 -26.3 -113.3 -25.65 -113.9 -25.75 -114.35 -25.65 -114.5 Q-25.65 -114.8 -25.95 -114.95 L-26.45 -116.05 Q-27.2 -117.6 -27.2 -118.55 -27.2 -121.6 -25.4 -124.55 -22.5 -129.3 -16.15 -129.3 L-13.3 -129.15 Q-11.9 -128.7 -10.5 -127.9 -7.05 -125.65 -6.75 -125.65 L-6.1 -125.8 Q-5.35 -125.3 -4.95 -125.3 L-4.65 -125.3 -4.45 -125.3 -4.0 -125.35 -3.75 -125.6 Q-3.8 -126.35 -4.7 -128.25 L-5.55 -130.35 -5.95 -134.55 -5.9 -138.05 Q-5.75 -141.9 -5.1 -144.9 -4.15 -149.6 -2.35 -152.1 -0.25 -154.55 2.9 -154.65 L3.1 -154.65 Q6.3 -154.65 8.7 -153.3 L10.95 -151.7 12.75 -149.2 Q13.45 -148.1 13.9 -147.7 15.5 -145.15 16.15 -143.1 L17.1 -139.15 17.2 -138.5 16.45 -132.7 15.55 -129.15 Q14.85 -126.8 14.85 -125.8 14.85 -125.3 15.15 -125.0 L15.1 -124.75 15.35 -124.0 Q15.7 -123.55 16.2 -123.55 16.65 -123.55 17.4 -124.15 L23.55 -124.75 24.8 -124.7 Q28.35 -123.85 30.3 -121.05 31.6 -119.25 31.85 -117.6 L31.9 -117.15 31.9 -116.85 31.0 -113.45 Q31.0 -113.0 31.25 -112.85 L31.25 -112.75 30.95 -112.55 31.3 -112.3 Q31.4 -111.75 31.8 -111.6 L34.5 -111.55 Q39.3 -111.55 44.1 -108.05 47.35 -105.75 48.65 -103.7 50.55 -100.85 51.2 -98.65 51.75 -96.75 51.75 -93.9 51.75 -90.8 50.05 -87.7 48.35 -85.2 48.35 -84.75 48.35 -84.35 48.6 -84.0 L48.7 -83.85 Q49.0 -83.45 49.4 -83.45 L52.55 -80.0 Q56.5 -75.4 56.5 -70.95 L56.2 -67.6 55.65 -64.75 Q54.55 -61.45 52.45 -60.15 L51.8 -59.75 51.25 -59.4 50.65 -58.85 Q50.65 -58.5 50.8 -58.2 L50.75 -58.2 Q50.75 -57.6 51.55 -57.5 L52.45 -57.15 Q52.55 -57.05 52.7 -57.05 52.95 -56.9 53.2 -56.85 L53.35 -56.75 Q54.35 -56.15 54.9 -55.1 L57.2 -51.3 Q57.85 -50.5 58.25 -47.85 L58.6 -43.85 Q58.6 -40.45 56.4 -36.3 54.0 -31.75 50.25 -29.2 47.75 -27.4 43.9 -25.35 40.2 -23.45 37.85 -22.65 L37.8 -22.2 Q36.05 -23.6 36.05 -21.35 38.5 -16.95 38.5 -16.15 38.5 -11.4 34.35 -9.45 L31.5 -8.3 31.05 -8.15 Q30.2 -8.75 29.8 -6.5 30.0 -4.6 28.3 -2.35 26.35 0.1 24.1 1.35 19.35 4.0 11.25 4.0 5.8 4.0 3.65 2.65 L1.3 1.35 1.4 0.85 Q1.4 -0.5 0.2 -0.5 -0.4 -0.5 -2.15 1.0 -3.95 2.5 -5.2 2.5 -11.1 2.5 -13.65 1.35 L-16.35 -0.35 Q-17.75 -0.95 -18.9 -1.8 -20.15 -2.8 -20.35 -3.55 L-21.15 -5.2 -21.85 -6.95 Q-22.05 -8.35 -23.3 -8.6 -24.5 -9.3 -27.65 -9.8 -33.2 -10.65 -34.15 -12.95 -35.05 -15.25 -35.9 -16.65 -36.25 -17.5 -36.25 -19.55 -36.25 -20.15 -35.2 -21.5 -34.15 -22.8 -34.15 -23.25 -34.15 -24.6 -35.7 -24.45 L-35.9 -24.6" fill="#444444" fill-rule="evenodd" stroke="none"/>
    <path d="M-25.4 -3.7 L-25.15 -3.35 -24.7 -2.85 -23.8 -2.1 -23.65 -1.5 Q-18.95 2.65 -15.7 3.7 -12.5 4.8 -6.95 4.9 -1.4 5.0 4.1 3.55 9.55 2.1 11.05 1.2 12.55 0.35 14.65 -0.75 L18.25 -2.5 19.65 -3.35 19.75 -3.3 20.9 -4.5 23.0 -6.6 24.0 -7.55 24.0 -7.95 Q24.0 -8.3 24.3 -8.4 L24.5 -8.4 26.35 -6.4 Q28.3 -4.4 28.3 -1.75 28.3 -0.45 27.95 0.6 L26.85 3.15 Q26.35 4.15 24.55 5.6 24.0 5.95 24.05 6.8 L24.1 7.6 24.05 7.6 24.1 7.75 24.1 8.1 23.7 9.75 Q23.0 11.2 21.05 12.8 17.35 15.9 12.55 15.9 L12.2 15.9 11.65 15.9 9.25 15.7 8.9 15.55 Q8.75 15.15 8.4 15.15 L8.35 15.3 8.25 15.2 7.4 15.95 6.3 16.85 7.3 16.55 6.9 16.95 Q6.25 17.7 5.15 18.1 L0.05 18.45 -3.95 17.8 Q-6.2 17.45 -8.05 16.7 L-10.55 15.0 Q-11.4 14.35 -11.5 13.6 L-11.85 13.35 Q-12.35 13.0 -12.5 13.35 L-14.1 12.1 Q-15.75 12.05 -17.2 11.3 L-18.15 10.7 Q-21.85 8.75 -23.75 5.8 -25.7 2.75 -25.7 -1.1 L-25.45 -3.3 -25.4 -3.7 M24.15 -0.45 L24.1 0.0 24.2 -0.45 24.15 -0.45 M22.55 4.5 L22.65 4.6 22.7 4.3 22.55 4.5" fill="#444444" fill-rule="evenodd" stroke="none"/>
    <path d="M-25.4 -3.7 L-25.45 -3.3 -25.7 -1.1 Q-25.7 2.75 -23.75 5.8 -21.85 8.75 -18.15 10.7 L-17.2 11.3 Q-15.75 12.05 -14.1 12.1 L-12.5 13.35 Q-12.35 13.0 -11.85 13.35 L-11.5 13.6 Q-11.4 14.35 -10.55 15.0 L-8.05 16.7 Q-6.2 17.45 -3.95 17.8 L0.05 18.45 5.15 18.1 Q6.25 17.7 6.9 16.95 L7.3 16.55 6.3 16.85 7.4 15.95 8.25 15.2 8.35 15.3 8.4 15.15 Q8.75 15.15 8.9 15.55 L9.25 15.7 11.65 15.9 12.2 15.9 12.55 15.9 Q17.35 15.9 21.05 12.8 23.0 11.2 23.7 9.75 L24.1 8.1 24.1 7.75 24.05 7.6 24.1 7.6 24.05 6.8 Q24.0 5.95 24.55 5.6 26.35 4.15 26.85 3.15 L27.95 0.6 Q28.3 -0.45 28.3 -1.75 28.3 -4.4 26.35 -6.4 L24.5 -8.4 24.4 -8.6 Q24.4 -9.35 25.05 -9.35 L25.6 -9.05 27.3 -7.95 28.75 -5.8 Q29.45 -4.1 29.45 -1.55 29.45 -0.6 29.05 1.0 L28.3 3.1 27.95 3.7 27.55 4.4 27.1 4.9 25.85 6.45 25.5 6.65 Q25.2 6.85 25.2 7.15 L25.15 9.0 Q24.95 10.7 22.25 14.5 21.5 15.4 20.0 16.25 17.1 17.85 13.2 17.85 L10.2 17.45 8.75 16.95 8.6 17.1 6.95 18.85 5.25 19.75 4.3 20.15 0.85 20.35 -3.1 20.2 -3.75 19.85 -5.6 19.25 -8.65 18.25 Q-9.65 17.8 -11.15 16.5 -12.65 15.2 -12.8 14.4 L-13.3 14.4 Q-15.15 14.4 -17.85 13.25 L-20.25 12.05 -24.1 8.35 Q-25.85 6.35 -26.45 4.45 -26.9 3.05 -26.9 0.45 L-26.6 -3.05 -26.1 -5.8 -26.05 -5.65 -26.1 -5.3 Q-25.85 -5.65 -25.75 -4.25 L-25.4 -3.7 M22.45 -8.6 L22.4 -8.6 21.95 -8.2 Q21.95 -8.8 22.45 -8.6 M24.15 -0.45 L24.2 -0.45 24.1 0.0 24.15 -0.45 M22.55 4.5 L22.7 4.3 22.65 4.6 22.55 4.5" fill="#2f2f2f" fill-rule="evenodd" stroke="none"/>
    <path d="M71.6 120.9 L71.65 120.85 71.7 121.15 71.6 120.9" fill="#fd0202" fill-rule="evenodd" stroke="none"/>
    <path d="M38.4 -58.2 Q39.55 -52.3 39.55 -47.35 39.55 -42.85 36.25 -36.45 34.75 -33.5 32.85 -31.4 29.75 -28.05 25.65 -26.9 L21.25 -26.35 21.1 -26.35 Q12.9 -26.45 5.05 -33.85 L-0.8 -39.05 Q-4.1 -41.4 -7.6 -41.4 -15.45 -41.4 -22.35 -33.7 L-26.85 -28.8 -27.35 -28.4 Q-30.25 -26.0 -33.4 -26.0 -36.2 -26.0 -38.35 -27.3 -41.75 -29.4 -43.55 -34.65 -45.05 -39.0 -45.15 -43.5 -45.15 -55.65 -39.45 -63.75 -31.4 -75.1 -10.8 -82.3 -0.6 -85.85 15.5 -80.35 31.0 -75.0 34.25 -68.0 36.9 -65.95 38.4 -58.2 M5.05 -55.75 Q7.8 -53.75 8.25 -50.05 L8.4 -46.65 Q8.65 -43.7 9.45 -41.55 11.95 -34.85 20.05 -34.85 28.3 -34.85 31.85 -43.75 33.9 -48.85 33.9 -54.3 33.9 -62.5 27.3 -69.15 21.3 -75.15 12.7 -77.4 4.05 -79.7 -1.85 -76.75 -8.5 -73.5 -8.5 -64.85 -8.5 -61.85 -6.05 -60.3 -4.75 -59.45 -0.65 -58.2 3.3 -57.05 5.05 -55.75 M19.85 119.25 L19.9 119.25 19.95 119.4 19.85 119.25" fill="#ffff00" fill-rule="evenodd" stroke="none"/>
    <path d="M5.05 -55.75 Q3.3 -57.05 -0.65 -58.2 -4.75 -59.45 -6.05 -60.3 -8.5 -61.85 -8.5 -64.85 -8.5 -73.5 -1.85 -76.75 4.05 -79.7 12.7 -77.4 21.3 -75.15 27.3 -69.15 33.9 -62.5 33.9 -54.3 33.9 -48.85 31.85 -43.75 28.3 -34.85 20.05 -34.85 11.95 -34.85 9.45 -41.55 8.65 -43.7 8.4 -46.65 L8.25 -50.05 Q7.8 -53.75 5.05 -55.75" fill="#ffff99" fill-rule="evenodd" stroke="none"/>
    <path d="M36.55 -68.4 Q40.05 -62.6 40.55 -51.85 41.1 -48.2 41.1 -44.15 41.1 -35.15 36.45 -25.2 L34.15 -20.9 Q29.2 -10.8 22.8 -9.3 L21.35 -5.8 Q13.8 10.85 -3.8 10.85 -18.1 10.85 -23.7 -8.05 L-24.05 -8.15 Q-24.9 -7.75 -25.75 -7.75 -29.65 -7.75 -35.2 -13.75 -40.15 -19.1 -42.15 -24.1 -43.75 -28.1 -46.3 -33.1 -48.0 -36.95 -48.0 -40.6 -48.0 -49.15 -46.6 -55.45 -45.9 -58.6 -44.9 -60.55 L-44.9 -60.75 Q-44.9 -66.35 -32.25 -75.85 -18.85 -85.9 -7.6 -86.75 L-7.6 -87.0 7.6 -87.0 Q29.5 -79.95 36.55 -68.4 M38.4 -58.2 Q36.9 -65.95 34.25 -68.0 31.0 -75.0 15.5 -80.35 -0.6 -85.85 -10.8 -82.3 -31.4 -75.1 -39.45 -63.75 -45.15 -55.65 -45.15 -43.5 -45.05 -39.0 -43.55 -34.65 -41.75 -29.4 -38.35 -27.3 -36.2 -26.0 -33.4 -26.0 -30.25 -26.0 -27.35 -28.4 L-26.85 -28.8 -22.35 -33.7 Q-15.45 -41.4 -7.6 -41.4 -4.1 -41.4 -0.8 -39.05 L5.05 -33.85 Q12.9 -26.45 21.1 -26.35 L21.25 -26.35 25.65 -26.9 Q29.75 -28.05 32.85 -31.4 34.75 -33.5 36.25 -36.45 39.55 -42.85 39.55 -47.35 39.55 -52.3 38.4 -58.2" fill="#e00101" fill-rule="evenodd" stroke="none"/>
    <path d="M40.0 -3.35 L40.75 -4.0 44.55 -3.7 47.0 -3.25 59.35 -3.0 60.8 -1.8 62.15 0.05 61.9 0.4 60.85 0.55 Q56.65 0.95 52.5 0.7 44.45 0.3 39.75 -2.6 L40.0 -3.35 M65.65 -30.4 Q65.65 -28.5 59.05 -25.65 54.2 -23.6 50.15 -22.5 L49.25 -22.6 Q49.0 -22.7 49.0 -23.5 49.0 -25.1 56.15 -28.55 63.2 -31.95 65.55 -31.75 L65.65 -30.4 M-52.1 -31.85 L-48.8 -28.4 -49.05 -27.6 -49.3 -27.25 -50.35 -27.1 Q-52.95 -27.1 -56.5 -30.35 -59.55 -33.2 -59.55 -33.8 -59.55 -34.85 -58.95 -35.1 L-57.6 -35.25 Q-55.75 -35.25 -52.1 -31.85 M-62.9 -0.65 L-63.3 -1.1 -51.2 -3.95 -35.1 -5.25 -34.9 -5.35 Q-34.75 -5.3 -34.75 -4.5 -34.75 -3.9 -44.85 -2.0 -55.3 0.0 -59.9 0.0 L-62.5 -0.25 -62.9 -0.65 M-12.7 46.8 Q-15.35 52.95 -18.6 57.1 L-19.5 56.7 Q-19.85 56.4 -19.85 55.55 -19.85 54.9 -17.4 49.85 L-14.75 44.4 Q-13.85 40.6 -13.05 38.7 -11.55 35.35 -8.05 36.25 L-12.7 46.8 M-38.75 18.05 Q-39.95 20.1 -44.45 23.75 -50.1 28.4 -53.85 28.4 L-55.0 28.25 -55.5 27.75 Q-55.65 28.25 -55.65 27.0 -44.1 17.3 -39.15 17.3 L-38.75 18.05 M49.35 33.25 Q49.1 33.55 48.3 33.55 47.2 33.55 43.8 29.6 L39.85 25.0 35.65 20.85 31.65 16.3 31.8 15.65 Q37.4 18.35 42.25 23.5 45.1 26.5 49.55 32.65 L49.35 33.25 M38.75 46.5 L31.4 36.45 Q26.85 29.95 24.6 25.6 L24.75 25.25 Q33.35 32.95 39.1 46.0 L38.75 46.5" fill="#d40101" fill-rule="evenodd" stroke="none"/>
  </g>
</svg>
