<?xml version="1.0" encoding="UTF-8" standalone="no"?>
<svg xmlns:ffdec="https://www.free-decompiler.com/flash" xmlns:xlink="http://www.w3.org/1999/xlink" ffdec:objectType="shape" height="222.75px" width="145.95px" xmlns="http://www.w3.org/2000/svg">
  <g transform="matrix(1.0, 0.0, 0.0, 1.0, 71.85, 159.1)">
    <path d="M14.85 -153.3 Q18.0 -150.8 20.25 -146.7 20.9 -145.6 20.9 -140.85 20.85 -138.2 21.25 -137.3 L20.85 -136.6 Q20.85 -135.4 22.3 -135.4 22.95 -135.4 24.0 -135.9 L26.95 -136.45 Q29.3 -136.45 32.9 -133.45 35.9 -130.95 36.6 -129.6 37.5 -127.85 38.1 -124.6 L38.35 -123.7 Q37.95 -123.25 37.95 -122.55 37.95 -121.75 39.05 -121.65 L43.35 -121.0 46.15 -119.85 48.7 -118.5 Q53.6 -115.25 54.85 -113.15 56.8 -109.8 57.1 -107.45 L57.15 -102.55 56.8 -100.0 56.5 -98.05 Q56.2 -97.75 56.2 -97.15 56.2 -96.4 57.25 -96.0 58.95 -95.4 60.15 -94.2 L61.35 -92.75 62.25 -91.4 Q63.0 -89.95 63.2 -88.55 L63.25 -85.8 Q63.25 -82.1 62.4 -81.05 L59.85 -78.8 59.8 -78.7 Q58.35 -78.7 58.35 -77.5 L58.6 -77.2 58.6 -77.0 Q58.6 -76.6 58.95 -76.15 59.3 -75.75 59.7 -75.75 L60.3 -76.0 Q61.65 -74.8 62.1 -72.45 62.6 -69.95 62.6 -67.6 62.6 -62.25 59.05 -59.55 55.5 -57.9 55.5 -57.35 55.5 -56.15 57.4 -56.15 L58.2 -56.2 58.55 -56.0 Q60.05 -55.4 61.0 -54.4 L63.0 -51.55 63.9 -49.05 64.5 -46.05 Q64.5 -44.3 63.6 -41.95 62.75 -39.7 61.35 -37.8 L60.15 -36.0 Q59.15 -34.65 57.45 -33.75 56.05 -33.05 52.55 -32.65 L51.7 -32.5 51.55 -32.65 Q50.35 -33.6 50.25 -31.75 L50.1 -31.25 50.2 -30.7 49.8 -29.6 48.65 -27.7 Q47.95 -26.55 45.25 -24.65 41.15 -21.8 37.05 -21.8 34.5 -21.8 31.75 -24.15 L28.95 -26.5 Q28.25 -26.5 27.95 -25.9 L27.75 -25.35 27.75 -25.05 27.1 -24.3 Q26.2 -22.85 25.35 -22.1 21.9 -18.95 14.0 -18.95 10.35 -18.95 7.45 -21.15 5.95 -22.2 4.85 -23.7 L3.1 -25.8 Q3.0 -26.8 2.15 -26.85 0.25 -28.6 0.25 -26.2 L0.35 -25.6 -1.3 -23.55 Q-4.6 -20.15 -9.9 -20.15 -15.25 -20.15 -17.75 -22.1 -19.15 -23.25 -20.3 -25.35 -21.45 -26.8 -22.25 -28.45 -23.05 -29.95 -23.95 -29.75 -24.8 -29.5 -24.8 -28.45 L-24.45 -26.8 -25.2 -26.25 Q-27.45 -24.65 -29.9 -24.65 -36.7 -24.65 -41.5 -27.55 -45.05 -29.65 -45.4 -31.4 L-45.15 -32.45 -45.2 -33.05 -47.35 -32.65 -49.0 -32.9 Q-59.1 -33.35 -63.45 -39.25 -66.0 -42.65 -66.0 -46.1 -66.0 -47.55 -65.4 -49.05 -64.95 -50.2 -63.65 -50.5 -62.5 -50.65 -62.5 -51.4 L-62.55 -51.7 -62.5 -52.05 -64.15 -55.25 Q-65.8 -58.5 -65.8 -61.35 -65.8 -64.05 -64.95 -66.5 -63.35 -71.15 -59.4 -71.15 -57.1 -71.15 -56.5 -70.65 -55.9 -70.05 -55.15 -70.05 -54.3 -70.05 -54.05 -70.7 L-53.95 -71.25 -54.0 -71.45 -53.95 -71.75 -55.45 -74.5 -57.2 -77.45 -57.95 -83.1 Q-57.95 -86.65 -56.75 -90.8 L-56.2 -92.7 Q-55.8 -93.65 -54.65 -94.5 -50.3 -97.9 -48.7 -97.9 L-47.65 -97.65 -46.9 -97.45 Q-46.5 -96.7 -45.9 -96.7 -45.1 -96.7 -44.8 -97.35 L-44.7 -98.2 -45.1 -100.75 Q-45.45 -102.65 -45.45 -104.6 -45.45 -109.15 -44.05 -112.7 -41.4 -119.55 -34.4 -119.55 L-32.55 -119.1 Q-32.2 -117.8 -31.2 -117.8 -29.95 -117.8 -30.0 -119.6 L-30.05 -120.0 -30.0 -120.15 -30.15 -120.75 -30.3 -121.5 Q-30.3 -125.35 -28.15 -129.3 -24.6 -135.9 -16.85 -135.9 -12.55 -135.9 -11.6 -135.0 L-10.4 -134.2 Q-9.6 -134.2 -9.3 -134.7 L-9.2 -135.3 -9.0 -135.6 -8.9 -136.3 -10.2 -137.65 Q-11.6 -139.1 -11.8 -141.05 L-12.3 -143.15 -12.75 -145.65 Q-12.75 -148.7 -11.4 -150.95 L-9.65 -153.3 Q-8.45 -154.65 -7.6 -154.55 -6.25 -155.7 -3.75 -155.85 L-2.95 -155.15 Q-2.5 -154.25 -1.8 -154.25 -0.7 -154.25 -0.65 -155.15 L-0.6 -155.1 0.0 -155.55 Q1.4 -156.55 5.65 -156.55 10.75 -156.55 14.85 -153.3" fill="#444444" fill-rule="evenodd" stroke="none"/>
    <path d="M14.85 -153.3 Q10.75 -156.55 5.65 -156.55 1.4 -156.55 0.0 -155.55 L-0.6 -155.1 -0.65 -155.15 Q-0.7 -154.25 -1.8 -154.25 -2.5 -154.25 -2.95 -155.15 L-3.75 -155.85 Q-6.25 -155.7 -7.6 -154.55 -8.45 -154.65 -9.65 -153.3 L-11.4 -150.95 Q-12.75 -148.7 -12.75 -145.65 L-12.3 -143.15 -11.8 -141.05 Q-11.6 -139.1 -10.2 -137.65 L-8.9 -136.3 -9.0 -135.6 -9.2 -135.3 -9.3 -134.7 Q-9.6 -134.2 -10.4 -134.2 L-11.6 -135.0 Q-12.55 -135.9 -16.85 -135.9 -24.6 -135.9 -28.15 -129.3 -30.3 -125.35 -30.3 -121.5 L-30.15 -120.75 -30.0 -120.15 -30.05 -120.0 -30.0 -119.6 Q-29.95 -117.8 -31.2 -117.8 -32.2 -117.8 -32.55 -119.1 L-34.4 -119.55 Q-41.4 -119.55 -44.05 -112.7 -45.45 -109.15 -45.45 -104.6 -45.45 -102.65 -45.1 -100.75 L-44.7 -98.2 -44.8 -97.35 Q-45.1 -96.7 -45.9 -96.7 -46.5 -96.7 -46.9 -97.45 L-47.65 -97.65 -48.7 -97.9 Q-50.3 -97.9 -54.65 -94.5 -55.8 -93.65 -56.2 -92.7 L-56.75 -90.8 Q-57.95 -86.65 -57.95 -83.1 L-57.2 -77.45 -55.45 -74.5 -53.95 -71.75 -54.0 -71.45 -53.95 -71.25 -54.05 -70.7 Q-54.3 -70.05 -55.15 -70.05 -55.9 -70.05 -56.5 -70.65 -57.1 -71.15 -59.4 -71.15 -63.35 -71.15 -64.95 -66.5 -65.8 -64.05 -65.8 -61.35 -65.8 -58.5 -64.15 -55.25 L-62.5 -52.05 -62.55 -51.7 -62.5 -51.4 Q-62.5 -50.65 -63.65 -50.5 -64.95 -50.2 -65.4 -49.05 -66.0 -47.55 -66.0 -46.1 -66.0 -42.65 -63.45 -39.25 -59.1 -33.35 -49.0 -32.9 L-47.35 -32.65 -45.2 -33.05 -45.15 -32.45 -45.4 -31.4 Q-45.05 -29.65 -41.5 -27.55 -36.7 -24.65 -29.9 -24.65 -27.45 -24.65 -25.2 -26.25 L-24.45 -26.8 -24.8 -28.45 Q-24.8 -29.5 -23.95 -29.75 -23.05 -29.95 -22.25 -28.45 -21.45 -26.8 -20.3 -25.35 -19.15 -23.25 -17.75 -22.1 -15.25 -20.15 -9.9 -20.15 -4.6 -20.15 -1.3 -23.55 L0.35 -25.6 0.25 -26.2 Q0.25 -28.6 2.15 -26.85 3.0 -26.8 3.1 -25.8 L4.85 -23.7 Q5.95 -22.2 7.45 -21.15 10.35 -18.95 14.0 -18.95 21.9 -18.95 25.35 -22.1 26.2 -22.85 27.1 -24.3 L27.75 -25.05 27.75 -25.35 27.95 -25.9 Q28.25 -26.5 28.95 -26.5 L31.75 -24.15 Q34.5 -21.8 37.05 -21.8 41.15 -21.8 45.25 -24.65 47.95 -26.55 48.65 -27.7 L49.8 -29.6 50.2 -30.7 50.1 -31.25 50.25 -31.75 Q50.35 -33.6 51.55 -32.65 L51.7 -32.5 52.55 -32.65 Q56.05 -33.05 57.45 -33.75 59.15 -34.65 60.15 -36.0 L61.35 -37.8 Q62.75 -39.7 63.6 -41.95 64.5 -44.3 64.5 -46.05 L63.9 -49.05 63.0 -51.55 61.0 -54.4 Q60.05 -55.4 58.55 -56.0 L58.2 -56.2 57.4 -56.15 Q55.5 -56.15 55.5 -57.35 55.5 -57.9 59.05 -59.55 62.6 -62.25 62.6 -67.6 62.6 -69.95 62.1 -72.45 61.65 -74.8 60.3 -76.0 L59.7 -75.75 Q59.3 -75.75 58.95 -76.15 58.6 -76.6 58.6 -77.0 L58.6 -77.2 58.35 -77.5 Q58.35 -78.7 59.8 -78.7 L59.85 -78.8 62.4 -81.05 Q63.25 -82.1 63.25 -85.8 L63.2 -88.55 Q63.0 -89.95 62.25 -91.4 L61.35 -92.75 60.15 -94.2 Q58.95 -95.4 57.25 -96.0 56.2 -96.4 56.2 -97.15 56.2 -97.75 56.5 -98.05 L56.8 -100.0 57.15 -102.55 57.1 -107.45 Q56.8 -109.8 54.85 -113.15 53.6 -115.25 48.7 -118.5 L46.15 -119.85 43.35 -121.0 39.05 -121.65 Q37.95 -121.75 37.95 -122.55 37.95 -123.25 38.35 -123.7 L38.1 -124.6 Q37.5 -127.85 36.6 -129.6 35.9 -130.95 32.9 -133.45 29.3 -136.45 26.95 -136.45 L24.0 -135.9 Q22.95 -135.4 22.3 -135.4 20.85 -135.4 20.85 -136.6 L21.25 -137.3 Q20.85 -138.2 20.9 -140.85 20.9 -145.6 20.25 -146.7 18.0 -150.8 14.85 -153.3 M1.65 -158.5 Q7.15 -159.85 11.2 -158.05 13.3 -157.15 15.7 -155.3 L18.7 -152.7 Q22.2 -148.7 22.85 -146.7 23.2 -145.65 23.2 -141.6 L23.2 -139.1 23.0 -138.1 24.1 -138.4 Q27.65 -139.4 30.2 -137.9 32.15 -136.85 36.35 -133.65 37.85 -132.55 39.3 -129.45 40.75 -126.55 40.75 -124.85 L40.8 -124.15 43.5 -123.45 Q47.15 -122.25 49.85 -120.7 L53.9 -117.5 56.85 -114.55 Q58.35 -113.0 59.1 -108.75 59.6 -105.75 59.6 -102.5 L59.6 -99.4 59.3 -98.05 60.9 -97.0 Q65.65 -93.15 65.65 -85.8 L65.7 -83.4 Q65.6 -81.75 65.15 -80.9 64.6 -79.85 62.65 -77.9 L62.25 -77.45 62.45 -77.2 Q63.95 -75.15 64.15 -74.05 L65.0 -70.25 65.0 -67.55 Q65.0 -64.2 63.65 -61.05 62.7 -58.65 61.2 -57.45 L62.25 -56.5 Q66.9 -51.85 66.9 -46.05 66.9 -40.6 63.1 -35.7 59.0 -30.5 52.85 -30.05 52.45 -28.0 49.45 -24.65 44.6 -19.3 37.15 -19.3 33.3 -19.3 30.2 -22.05 L29.25 -22.95 Q28.55 -20.0 23.5 -18.2 18.9 -16.5 13.9 -16.5 8.4 -16.5 3.85 -21.05 L1.9 -23.1 -0.05 -21.2 Q-4.3 -17.65 -10.55 -17.65 -16.65 -17.65 -21.2 -22.35 L-23.15 -24.6 -23.8 -24.15 Q-26.7 -22.2 -31.25 -22.2 -35.15 -22.2 -40.65 -24.65 -44.95 -26.65 -46.4 -28.05 -46.95 -28.6 -47.5 -30.5 L-47.9 -30.5 Q-59.5 -30.5 -65.0 -37.5 -68.4 -41.9 -68.4 -46.1 -68.4 -47.7 -67.65 -50.05 -67.25 -51.55 -65.85 -52.15 -66.6 -53.2 -67.15 -54.95 -68.15 -58.05 -68.15 -61.2 L-67.7 -65.35 Q-67.15 -68.35 -66.4 -69.3 L-64.75 -71.4 Q-63.45 -72.75 -61.75 -73.3 L-58.15 -73.35 Q-59.1 -75.1 -59.45 -76.7 L-60.25 -80.05 -60.4 -83.1 Q-60.4 -85.05 -59.75 -88.15 L-58.65 -93.15 Q-58.45 -94.1 -56.95 -95.6 -55.5 -97.0 -53.7 -98.05 -51.15 -100.75 -48.15 -100.45 L-47.6 -100.45 -47.8 -104.6 Q-47.8 -108.15 -47.5 -109.5 L-45.45 -115.0 Q-44.5 -117.3 -40.4 -120.15 -37.1 -122.4 -33.4 -122.05 L-32.7 -121.95 Q-32.55 -127.1 -29.85 -131.7 -25.35 -139.15 -15.9 -138.25 L-13.55 -138.25 -14.2 -140.3 Q-15.15 -143.7 -15.15 -145.8 -15.15 -149.9 -13.45 -152.0 L-12.35 -153.6 -11.7 -154.55 Q-11.15 -157.3 -6.2 -158.35 -2.5 -159.0 -1.3 -157.6 L1.65 -158.5" fill="#2f2f2f" fill-rule="evenodd" stroke="none"/>
    <path d="M41.6 -2.75 Q44.1 -4.25 44.1 -6.35 43.95 -10.45 41.55 -10.45 L39.25 -10.1 37.95 -9.85 Q37.4 -9.85 37.25 -10.15 L37.2 -10.55 38.5 -12.4 Q39.8 -14.1 39.8 -15.55 39.8 -17.2 38.7 -17.85 L37.35 -18.5 37.9 -19.6 38.7 -19.4 Q39.85 -18.85 40.35 -17.9 L40.75 -16.15 40.95 -14.4 40.5 -13.15 40.05 -12.05 Q43.25 -12.65 44.55 -9.85 45.3 -8.2 45.3 -6.2 L45.2 -5.25 Q44.9 -3.85 43.7 -2.35 L42.9 -1.5 Q41.4 -0.2 39.3 0.2 39.75 0.65 39.75 1.55 39.75 2.55 39.25 3.35 L38.3 4.3 Q38.85 5.1 38.85 6.4 38.85 8.9 36.9 10.7 35.3 12.25 32.55 12.95 L32.25 13.0 29.4 13.35 27.6 13.4 27.5 13.4 27.55 13.45 Q28.1 14.5 28.1 15.6 28.1 17.85 26.4 20.2 23.8 23.9 18.5 23.9 16.4 23.9 14.35 22.7 L13.65 22.2 Q13.4 23.1 12.75 24.0 10.95 26.4 7.05 26.4 4.7 26.4 3.25 25.45 L2.75 25.1 2.65 25.0 1.6 23.9 Q1.3 25.3 0.05 26.8 -2.05 29.35 -5.65 29.65 L-6.45 29.65 Q-9.1 29.65 -11.3 27.15 -12.85 25.4 -13.3 23.45 L-13.4 23.5 Q-14.95 24.7 -16.25 24.7 -19.25 24.7 -21.75 22.9 L-23.15 21.7 -23.9 20.9 -25.6 18.25 -25.9 17.8 -26.65 16.65 -27.8 17.6 Q-29.85 18.9 -32.0 18.9 -37.95 18.9 -40.1 14.2 -41.15 12.0 -41.15 8.9 L-41.1 8.5 -41.1 8.4 -41.15 8.5 -41.35 8.55 Q-42.6 9.35 -44.4 9.35 L-44.5 9.35 Q-47.1 9.35 -48.1 6.6 -48.65 5.1 -48.65 3.5 -48.65 0.8 -47.75 -0.65 L-46.6 -1.95 Q-45.4 -2.9 -43.5 -3.25 -45.0 -4.7 -45.45 -10.05 -45.45 -16.3 -42.05 -19.0 -41.15 -19.75 -40.35 -19.8 L-39.75 -19.8 Q-38.7 -19.65 -38.7 -18.4 L-38.7 -18.3 -39.5 -18.05 Q-40.65 -17.85 -41.7 -16.7 L-43.35 -14.5 Q-43.95 -13.65 -44.1 -12.55 L-44.1 -10.45 Q-44.1 -8.35 -43.5 -6.35 L-42.75 -4.5 -41.8 -2.9 Q-42.0 -2.75 -42.3 -2.75 L-42.35 -2.75 Q-42.9 -2.35 -44.8 -1.3 -47.4 0.65 -47.4 3.35 -47.4 4.3 -47.0 5.65 -46.45 7.75 -45.3 7.75 -43.2 7.75 -41.95 7.2 L-41.85 7.15 -40.9 6.65 -40.65 6.55 -40.2 7.15 -40.3 7.6 -40.2 8.15 -39.75 11.6 Q-39.35 13.2 -37.95 14.75 -35.65 17.25 -32.0 17.25 -29.6 17.25 -27.95 15.95 L-26.55 14.6 -26.1 14.8 -26.0 15.35 -26.0 15.6 -25.15 16.7 -24.2 18.2 -23.6 19.15 -21.55 21.15 Q-18.95 23.1 -16.35 23.1 -15.1 23.1 -13.9 21.95 L-12.6 20.75 Q-12.3 20.75 -12.15 21.15 L-12.0 21.6 Q-12.0 22.0 -12.55 22.7 L-11.3 24.85 Q-9.3 27.95 -7.65 27.95 -1.95 27.95 -0.2 25.0 0.35 24.05 0.45 22.85 L0.45 21.7 Q1.35 21.35 1.6 21.95 L1.65 22.1 2.75 23.25 Q4.15 24.7 5.85 24.7 12.0 24.7 12.35 21.75 L12.45 20.05 Q13.6 19.65 13.8 20.7 L14.75 21.3 Q16.65 22.3 18.1 22.3 21.3 22.3 23.75 20.9 26.9 19.05 26.9 15.6 26.9 14.7 26.1 13.6 L25.45 12.65 25.35 12.65 25.35 12.6 25.25 12.3 Q25.25 10.65 26.6 12.1 L31.45 11.2 Q37.55 10.1 37.55 6.35 37.55 5.25 36.35 4.85 L36.05 4.7 34.65 4.4 34.65 3.95 Q34.65 3.65 35.15 3.45 35.35 2.55 36.6 3.05 L36.7 2.95 Q38.7 2.55 38.7 1.55 38.7 0.8 38.05 0.6 L36.65 0.05 36.6 -0.15 36.75 -0.55 36.75 -0.6 40.45 -2.2 41.05 -2.5 41.6 -2.75 M41.85 -31.1 L41.5 -31.1 41.45 -31.1 41.65 -32.2 41.8 -32.35 44.05 -32.6 Q47.75 -32.55 50.45 -30.15 51.9 -28.9 53.8 -26.45 L55.05 -24.8 56.0 -22.9 56.9 -19.4 56.9 -18.95 57.3 -18.65 58.45 -17.25 59.2 -16.1 60.15 -13.45 60.35 -11.0 60.1 -8.7 59.95 -7.95 60.35 -7.55 Q63.05 -4.7 63.05 -1.9 63.05 3.95 58.05 10.3 54.85 14.35 52.75 15.5 L52.8 17.05 Q52.8 22.35 49.1 26.2 46.05 29.35 43.55 29.35 L43.3 29.35 43.4 30.1 Q43.4 31.45 42.4 33.9 L40.6 37.45 Q39.55 39.0 36.5 40.35 32.9 41.95 28.95 41.95 L25.6 41.55 24.75 41.15 Q24.25 41.7 23.25 44.4 21.4 46.75 16.0 46.75 12.45 46.75 9.25 45.45 5.95 44.2 5.3 42.1 4.7 43.15 2.45 44.1 -1.1 45.45 -7.35 45.45 -12.9 45.45 -17.75 43.85 -20.2 43.05 -22.05 42.1 -23.85 41.6 -25.75 39.45 -27.4 37.6 -27.55 36.55 L-27.8 36.65 -31.95 37.1 Q-37.65 37.1 -43.55 33.75 -48.1 31.1 -49.85 28.7 L-50.45 27.8 -52.0 26.45 -53.45 25.1 -54.25 23.55 -54.95 21.95 -55.7 19.15 -56.1 16.65 Q-56.9 16.55 -58.5 15.15 L-60.6 13.0 -62.95 8.9 Q-63.85 6.45 -64.0 4.5 L-64.0 0.75 -63.9 -2.7 -63.05 -7.05 Q-62.65 -8.7 -61.2 -10.9 L-59.7 -12.8 -59.0 -13.4 -59.0 -13.45 -59.35 -15.15 Q-59.35 -17.65 -57.95 -20.9 -56.55 -24.2 -54.5 -26.25 -50.95 -29.7 -48.05 -30.6 L-44.1 -31.65 Q-40.7 -32.4 -40.7 -31.1 L-40.75 -30.9 Q-41.65 -31.1 -41.8 -30.3 L-42.05 -30.25 -43.8 -29.7 -48.7 -28.2 Q-52.4 -26.4 -54.45 -23.65 -56.3 -21.0 -57.2 -18.3 L-57.8 -15.2 -58.1 -14.0 -57.9 -13.55 -58.15 -12.85 -58.15 -12.4 -58.35 -12.25 -59.3 -10.5 -61.25 -5.8 -62.15 -2.3 -62.35 1.0 -62.2 4.7 Q-61.95 6.65 -61.15 8.5 L-60.6 9.9 -59.05 12.2 -58.85 12.45 -58.8 12.45 -58.7 12.6 -56.4 14.0 Q-54.85 14.9 -54.85 15.55 L-55.0 16.25 -54.5 18.25 Q-54.1 20.0 -53.3 21.15 L-51.5 24.1 -50.85 25.1 Q-49.65 26.0 -49.2 26.55 -46.55 29.45 -42.9 31.65 L-38.7 33.4 Q-34.8 34.7 -32.05 34.7 L-28.95 34.4 Q-28.45 34.4 -28.25 34.8 L-27.85 34.6 Q-27.8 35.35 -27.4 35.7 -27.2 35.5 -26.7 36.05 L-26.55 36.1 -26.6 36.1 -25.3 37.9 -23.8 39.2 -21.35 40.7 -17.7 42.15 Q-13.35 43.55 -7.6 43.55 -1.05 43.55 2.25 42.05 3.9 41.3 4.85 40.5 L5.1 40.55 5.1 40.5 Q5.15 40.05 5.5 40.05 5.85 40.05 7.4 42.45 10.05 44.7 16.05 44.7 21.7 44.7 22.95 41.7 L23.5 39.55 Q23.8 38.6 24.45 38.6 L25.25 39.25 Q26.0 39.95 31.0 39.95 33.85 39.95 36.85 38.2 39.75 36.5 40.45 34.6 L41.65 30.9 Q42.0 29.5 42.35 29.05 42.05 28.8 42.05 28.35 42.05 27.9 42.4 27.8 L44.2 27.5 Q45.4 27.05 46.8 26.05 48.5 24.8 49.55 23.05 51.5 19.2 51.5 17.05 L51.4 15.9 51.2 15.9 Q50.6 15.9 50.4 15.5 L50.3 15.0 Q50.3 14.75 52.05 13.65 L55.3 11.1 58.7 6.75 Q59.75 5.3 60.7 2.55 61.65 -0.2 61.65 -1.9 L61.05 -3.65 60.3 -5.2 58.95 -6.55 58.6 -6.45 58.1 -6.8 57.9 -7.4 57.9 -7.5 Q57.65 -7.9 57.65 -8.3 57.65 -9.45 58.45 -9.1 58.85 -10.3 58.85 -11.4 L58.5 -13.35 57.85 -15.2 Q56.9 -16.9 55.55 -18.0 L54.45 -18.85 Q54.45 -19.6 55.1 -19.55 L54.85 -21.9 53.9 -23.8 52.55 -25.65 Q51.55 -27.35 48.6 -29.5 47.25 -30.4 46.0 -30.7 L41.95 -31.1 41.85 -31.1" fill="#2f2f2f" fill-rule="evenodd" stroke="none"/>
    <path d="M41.6 -2.75 L41.05 -2.5 40.35 -2.55 41.6 -2.75 M-24.2 18.2 L-25.15 16.7 -24.65 16.05 -24.2 18.2 M-40.9 6.65 L-41.85 7.15 -41.95 7.2 Q-41.1 6.25 -40.8 5.5 L-40.9 6.65 M-40.35 -19.8 Q-41.15 -19.75 -42.05 -19.0 -45.45 -16.3 -45.45 -10.05 -45.0 -4.7 -43.5 -3.25 -45.4 -2.9 -46.6 -1.95 L-47.75 -0.65 Q-48.65 0.8 -48.65 3.5 -48.65 5.1 -48.1 6.6 -47.1 9.35 -44.5 9.35 L-44.5 9.45 -44.4 9.35 Q-42.6 9.35 -41.35 8.55 L-41.15 8.5 -41.1 8.5 -41.15 8.9 Q-41.15 12.0 -40.1 14.2 -37.95 18.9 -32.0 18.9 -29.85 18.9 -27.8 17.6 L-26.65 16.65 -25.9 17.8 -25.6 18.25 -23.9 20.9 -23.15 21.7 -21.75 22.9 Q-19.25 24.7 -16.25 24.7 -14.95 24.7 -13.4 23.5 L-13.3 23.45 Q-12.85 25.4 -11.3 27.15 -9.1 29.65 -6.45 29.65 L-6.4 29.75 -5.65 29.65 Q-2.05 29.35 0.05 26.8 1.3 25.3 1.6 23.9 L2.65 25.0 2.7 25.2 2.75 25.1 3.25 25.45 Q4.7 26.4 7.05 26.4 10.95 26.4 12.75 24.0 13.4 23.1 13.65 22.2 L14.35 22.7 Q16.4 23.9 18.5 23.9 23.8 23.9 26.4 20.2 28.1 17.85 28.1 15.6 28.1 14.5 27.55 13.45 L27.6 13.4 29.4 13.35 32.25 13.0 32.55 13.0 32.55 12.95 Q35.3 12.25 36.9 10.7 38.85 8.9 38.85 6.4 38.85 5.1 38.3 4.3 L39.25 3.35 Q39.75 2.55 39.75 1.55 39.75 0.65 39.3 0.2 41.4 -0.2 42.9 -1.5 L43.7 -2.35 Q44.9 -3.85 45.2 -5.25 L45.3 -6.2 Q45.3 -8.2 44.55 -9.85 43.25 -12.65 40.05 -12.05 L40.5 -13.15 40.95 -14.4 40.75 -16.15 40.35 -17.9 Q39.85 -18.85 38.7 -19.4 L37.9 -19.6 39.65 -24.4 39.8 -24.85 41.85 -31.1 41.95 -31.1 46.0 -30.7 Q47.25 -30.4 48.6 -29.5 51.55 -27.35 52.55 -25.65 L53.9 -23.8 54.85 -21.9 55.1 -19.55 Q54.45 -19.6 54.45 -18.85 L55.55 -18.0 Q56.9 -16.9 57.85 -15.2 L58.5 -13.35 58.85 -11.4 Q58.85 -10.3 58.45 -9.1 57.65 -9.45 57.65 -8.3 57.65 -7.9 57.9 -7.5 L57.9 -7.4 58.1 -6.8 58.6 -6.45 58.95 -6.55 60.3 -5.2 61.05 -3.65 61.65 -1.9 Q61.65 -0.2 60.7 2.55 59.75 5.3 58.7 6.75 L55.3 11.1 52.05 13.65 Q50.3 14.75 50.3 15.0 L50.4 15.5 Q50.6 15.9 51.2 15.9 L51.4 15.9 51.5 17.05 Q51.5 19.2 49.55 23.05 48.5 24.8 46.8 26.05 45.4 27.05 44.2 27.5 L42.4 27.8 Q42.05 27.9 42.05 28.35 42.05 28.8 42.35 29.05 42.0 29.5 41.65 30.9 L40.45 34.6 Q39.75 36.5 36.85 38.2 33.85 39.95 31.0 39.95 26.0 39.95 25.25 39.25 L24.45 38.6 Q23.8 38.6 23.5 39.55 L22.95 41.7 Q21.7 44.7 16.05 44.7 10.05 44.7 7.4 42.45 5.85 40.05 5.5 40.05 5.15 40.05 5.1 40.5 L5.1 40.55 4.85 40.5 Q3.9 41.3 2.25 42.05 -1.05 43.55 -7.6 43.55 -13.35 43.55 -17.7 42.15 L-21.35 40.7 -23.8 39.2 -25.3 37.9 -26.6 36.1 -26.55 36.1 -26.7 36.05 Q-27.2 35.5 -27.4 35.7 -27.8 35.35 -27.85 34.6 L-28.25 34.8 Q-28.45 34.4 -28.95 34.4 L-32.05 34.7 Q-34.8 34.7 -38.7 33.4 L-42.9 31.65 Q-46.55 29.45 -49.2 26.55 -49.65 26.0 -50.85 25.1 L-51.5 24.1 -53.3 21.15 Q-54.1 20.0 -54.5 18.25 L-55.0 16.25 -54.85 15.55 Q-54.85 14.9 -56.4 14.0 L-58.7 12.6 -58.8 12.45 -58.85 12.45 -59.05 12.2 -60.6 9.9 -61.15 8.5 Q-61.95 6.65 -62.2 4.7 L-62.35 1.0 -62.15 -2.3 -61.25 -5.8 -59.3 -10.5 -58.35 -12.25 -58.15 -12.4 -58.15 -12.85 -57.9 -13.55 -58.1 -14.0 -57.8 -15.2 -57.2 -18.3 Q-56.3 -21.0 -54.45 -23.65 -52.4 -26.4 -48.7 -28.2 L-43.8 -29.7 -42.05 -30.25 -41.8 -30.3 Q-41.65 -31.1 -40.75 -30.9 L-40.55 -30.85 Q-39.3 -30.4 -39.3 -29.3 -39.3 -28.2 -39.7 -27.95 L-40.1 -26.55 Q-40.65 -24.6 -40.65 -22.65 L-40.35 -19.8" fill="#444444" fill-rule="evenodd" stroke="none"/>
    <path d="M39.8 -24.85 L41.85 -31.1 41.95 -31.1 M31.35 -9.85 Q34.25 -13.35 36.45 -17.2 M-11.65 6.45 L-5.0 5.2" ffdec:has-small-stroke="true" ffdec:original-stroke-width="0.25" fill="none" stroke="#010101" stroke-linecap="round" stroke-linejoin="round" stroke-opacity="0.0" stroke-width="1.0"/>
    <path d="M16.8 -105.3 Q25.05 -102.9 27.25 -102.4 31.5 -101.5 35.0 -98.65 36.95 -97.05 39.3 -94.15 41.75 -91.25 43.35 -85.7 44.8 -80.6 44.8 -76.25 44.8 -71.75 41.75 -66.2 37.05 -57.8 28.15 -57.8 23.85 -57.8 20.75 -59.2 18.85 -60.1 17.4 -60.4 L16.5 -59.85 11.15 -60.05 11.0 -60.0 8.05 -59.35 7.05 -59.45 7.0 -59.6 6.9 -59.4 Q6.8 -59.35 6.8 -59.6 2.95 -58.65 -0.75 -55.75 -4.35 -52.9 -9.8 -46.25 -15.75 -39.0 -18.15 -36.8 -22.9 -32.5 -27.4 -32.5 -38.2 -32.5 -41.9 -47.2 -43.8 -54.55 -43.5 -62.25 -43.5 -77.4 -38.0 -87.0 -31.75 -98.0 -17.9 -103.4 -17.35 -104.65 -15.85 -105.5 L-8.55 -108.35 4.75 -108.35 Q9.45 -107.45 16.8 -105.3 M34.05 -78.1 Q37.25 -82.5 37.25 -86.75 37.25 -88.1 35.7 -91.1 33.75 -94.85 30.7 -97.9 21.75 -106.85 8.1 -105.15 L-5.25 -105.15 Q-9.7 -104.75 -14.3 -101.55 -17.65 -99.2 -19.3 -96.9 -21.35 -94.05 -25.2 -91.7 -28.9 -89.5 -30.0 -87.75 -32.0 -84.55 -33.8 -78.1 -35.5 -71.95 -35.5 -68.55 -35.6 -66.3 -34.75 -64.0 -33.1 -59.5 -28.4 -59.5 -24.95 -59.5 -13.85 -66.95 -2.75 -74.4 2.55 -74.4 4.1 -74.4 8.9 -72.85 13.65 -71.3 18.85 -71.3 29.05 -71.3 34.05 -78.1" fill="#ffff00" fill-rule="evenodd" stroke="none"/>
    <path d="M34.05 -78.1 Q29.05 -71.3 18.85 -71.3 13.65 -71.3 8.9 -72.85 4.1 -74.4 2.55 -74.4 -2.75 -74.4 -13.85 -66.95 -24.95 -59.5 -28.4 -59.5 -33.1 -59.5 -34.75 -64.0 -35.6 -66.3 -35.5 -68.55 -35.5 -71.95 -33.8 -78.1 -32.0 -84.55 -30.0 -87.75 -28.9 -89.5 -25.2 -91.7 -21.35 -94.05 -19.3 -96.9 -17.65 -99.2 -14.3 -101.55 -9.7 -104.75 -5.25 -105.15 L8.1 -105.15 Q21.75 -106.85 30.7 -97.9 33.75 -94.85 35.7 -91.1 37.25 -88.1 37.25 -86.75 37.25 -82.5 34.05 -78.1" fill="#ffff99" fill-rule="evenodd" stroke="none"/>
    <path d="M16.8 -105.3 Q9.45 -107.45 4.75 -108.35 L-8.55 -108.35 -15.85 -105.5 Q-17.35 -104.65 -17.9 -103.4 -31.75 -98.0 -38.0 -87.0 -43.5 -77.4 -43.5 -62.25 -43.8 -54.55 -41.9 -47.2 -38.2 -32.5 -27.4 -32.5 -22.9 -32.5 -18.15 -36.8 -15.75 -39.0 -9.8 -46.25 -4.35 -52.9 -0.75 -55.75 2.95 -58.65 6.8 -59.6 6.8 -59.35 6.9 -59.4 L7.0 -59.6 7.05 -59.45 8.05 -59.35 11.0 -60.0 11.15 -60.05 16.5 -59.85 17.4 -60.4 Q18.85 -60.1 20.75 -59.2 23.85 -57.8 28.15 -57.8 37.05 -57.8 41.75 -66.2 44.8 -71.75 44.8 -76.25 44.8 -80.6 43.35 -85.7 41.75 -91.25 39.3 -94.15 36.95 -97.05 35.0 -98.65 31.5 -101.5 27.25 -102.4 25.05 -102.9 16.8 -105.3 M47.55 -99.45 Q54.0 -89.2 54.0 -73.35 54.0 -67.15 51.55 -56.45 49.25 -46.5 46.8 -40.75 43.2 -32.1 35.75 -22.15 27.35 -10.8 21.2 -9.45 20.9 -3.75 18.65 0.95 13.55 11.55 0.25 11.55 -11.0 11.55 -16.1 4.2 -18.95 0.05 -19.05 -3.75 L-21.45 -5.5 -23.15 -6.95 Q-29.15 -7.85 -37.8 -19.7 -44.0 -28.15 -48.5 -37.25 -50.2 -40.65 -51.6 -44.8 -53.15 -49.45 -53.5 -52.65 -54.0 -57.2 -54.0 -67.6 -54.0 -73.25 -51.25 -80.8 -47.8 -90.15 -41.45 -97.9 -24.1 -119.05 8.1 -120.8 36.7 -116.7 47.55 -99.45" fill="#e00101" fill-rule="evenodd" stroke="none"/>
    <path d="M70.75 -35.0 L70.9 -34.65 71.0 -33.65 Q71.0 -32.45 69.55 -31.1 68.1 -29.8 66.75 -29.8 65.65 -29.8 65.0 -30.85 64.5 -31.6 64.5 -32.05 64.5 -35.1 70.75 -35.0 M74.0 -0.15 L74.1 0.65 Q74.1 1.55 73.6 2.25 73.05 3.0 72.25 3.0 L71.15 2.9 71.0 2.75 70.8 1.0 Q70.8 0.2 71.75 -0.25 L73.85 -0.35 74.0 -0.15 M56.9 36.25 L57.0 37.1 56.85 38.6 56.55 38.95 55.35 39.25 54.1 39.15 53.8 39.0 53.8 36.3 54.65 36.2 56.75 36.3 56.9 36.25 M41.75 49.15 L41.65 49.9 Q41.55 50.3 40.75 50.3 L39.7 50.2 39.1 49.9 38.85 49.7 38.75 48.8 Q38.75 48.05 39.55 47.85 L41.25 48.05 Q41.25 48.45 41.75 49.15 M-57.5 -33.85 L-57.8 -33.7 -58.9 -33.55 Q-60.3 -33.55 -61.5 -35.1 -62.5 -36.4 -62.5 -37.1 -62.5 -39.2 -59.9 -38.55 -57.35 -37.95 -57.35 -35.15 L-57.4 -34.05 -57.5 -33.85 M-68.85 -0.1 L-68.6 0.75 Q-68.65 2.1 -69.1 2.5 -69.5 2.85 -70.5 2.85 -71.75 2.85 -71.6 2.55 L-71.8 2.4 -71.85 1.5 Q-71.85 0.3 -71.25 -0.05 L-68.85 -0.1 M-56.6 28.9 Q-56.25 29.2 -56.25 30.05 -56.25 31.3 -57.4 32.8 L-58.6 31.95 -59.55 30.8 -58.35 29.4 -57.4 28.5 Q-56.75 28.75 -56.6 28.9 M-19.35 59.5 Q-19.1 59.55 -19.1 60.35 -19.1 61.5 -19.55 61.95 -20.15 62.55 -22.65 63.65 -23.5 63.5 -23.9 63.15 L-21.95 60.9 -20.1 59.35 -19.35 59.5" fill="#d40101" fill-rule="evenodd" stroke="none"/>
  </g>
</svg>
