<?xml version="1.0" encoding="UTF-8" standalone="no"?>
<svg xmlns:ffdec="https://www.free-decompiler.com/flash" xmlns:xlink="http://www.w3.org/1999/xlink" ffdec:objectType="shape" height="146.2px" width="129.55px" xmlns="http://www.w3.org/2000/svg">
  <g transform="matrix(1.0, 0.0, 0.0, 1.0, 67.3, 198.15)">
    <path d="M11.85 -170.75 L11.8 -171.3 Q11.8 -172.05 13.1 -172.6 14.4 -173.15 14.4 -171.65 14.4 -170.25 12.75 -170.25 12.05 -170.25 11.85 -170.75 M13.2 -165.45 Q14.1 -165.55 14.1 -164.65 L13.85 -164.0 Q13.55 -163.65 13.15 -163.65 12.25 -163.65 12.25 -164.65 12.25 -165.4 13.2 -165.45 M2.3 -150.9 Q2.3 -151.9 3.3 -151.8 4.25 -151.7 4.25 -150.9 L4.0 -150.25 Q3.7 -149.9 3.25 -149.9 2.3 -149.9 2.3 -150.9 M24.6 -152.15 Q24.6 -151.0 23.45 -151.0 22.35 -151.0 21.75 -151.6 21.3 -152.0 21.3 -152.5 21.3 -153.75 22.95 -153.65 24.6 -153.6 24.6 -152.15 M20.35 -144.25 Q19.4 -144.25 19.4 -145.25 19.4 -146.2 20.35 -146.15 21.3 -146.1 21.3 -145.2 L21.05 -144.55 Q20.8 -144.25 20.35 -144.25 M40.0 -136.55 Q40.0 -138.2 41.4 -138.25 42.8 -138.25 42.8 -137.25 L42.5 -136.0 Q42.05 -135.1 41.2 -135.1 40.15 -135.1 40.0 -135.8 L40.0 -136.55 M1.35 -126.65 Q1.35 -127.6 2.25 -127.6 3.15 -127.6 3.15 -126.65 L2.95 -126.0 Q2.7 -125.6 2.25 -125.6 1.15 -125.6 1.35 -126.65 M0.0 -128.0 L-0.5 -128.05 -0.8 -128.25 -0.9 -129.35 Q-0.9 -130.5 0.1 -130.55 1.1 -130.65 1.1 -129.65 L0.85 -128.75 Q0.5 -128.0 0.0 -128.0 M12.25 -130.4 Q12.25 -130.0 11.85 -129.55 L11.1 -129.15 Q10.45 -129.15 10.25 -129.65 L10.15 -130.25 Q10.15 -131.45 11.2 -131.35 12.25 -131.25 12.25 -130.4 M13.55 -128.6 L13.5 -129.15 Q13.5 -130.5 14.55 -130.3 15.6 -130.1 15.6 -128.9 15.6 -128.0 14.55 -128.0 13.75 -128.0 13.55 -128.6 M29.3 -119.5 Q28.2 -119.5 27.85 -120.1 L27.75 -120.65 Q27.75 -121.7 29.25 -121.55 30.75 -121.35 30.75 -120.4 30.75 -119.8 30.35 -119.6 L29.3 -119.5 M39.75 -101.9 Q40.9 -101.8 40.9 -101.0 40.9 -100.0 39.75 -100.0 39.0 -100.0 38.75 -100.5 38.6 -100.7 38.6 -101.0 38.6 -101.95 39.75 -101.9 M38.5 -105.7 Q39.55 -105.75 39.55 -104.4 39.55 -102.85 38.35 -102.85 37.85 -102.85 37.6 -103.3 L37.4 -103.85 Q37.4 -105.6 38.5 -105.7 M51.9 -121.6 Q53.05 -121.0 53.05 -119.65 L52.75 -119.0 52.0 -118.75 Q51.0 -118.75 50.8 -119.6 L50.75 -120.4 Q50.75 -122.25 51.9 -121.6 M49.9 -112.75 Q51.0 -112.5 51.0 -111.6 51.0 -111.2 50.6 -110.9 50.3 -110.65 49.9 -110.65 49.05 -110.65 48.85 -111.3 L48.8 -111.75 Q48.8 -113.0 49.9 -112.75 M46.95 -119.65 Q48.1 -119.55 48.1 -118.75 48.1 -117.75 46.9 -117.75 46.15 -117.75 45.9 -118.25 45.75 -118.5 45.75 -118.75 45.75 -119.7 46.95 -119.65 M44.9 -99.05 Q44.3 -99.05 44.1 -99.55 L44.0 -100.1 Q44.0 -101.05 45.15 -101.25 46.25 -101.4 46.25 -100.45 L45.85 -99.7 Q45.4 -99.05 44.9 -99.05 M56.25 -98.1 Q55.95 -97.85 55.55 -97.85 54.8 -97.85 54.55 -98.5 L54.5 -99.0 Q54.5 -100.25 55.55 -100.0 56.6 -99.7 56.6 -98.8 56.6 -98.4 56.25 -98.1 M43.45 -96.15 Q42.75 -96.15 42.55 -96.75 L42.5 -97.2 Q42.5 -98.25 43.5 -98.1 44.45 -97.9 44.45 -97.05 44.45 -96.15 43.45 -96.15 M43.4 -81.75 Q42.5 -81.75 42.5 -82.7 42.5 -83.45 43.4 -83.5 44.3 -83.55 44.3 -82.65 L44.1 -82.1 Q43.85 -81.75 43.4 -81.75 M53.5 -69.65 Q53.5 -70.55 54.55 -70.5 55.55 -70.45 55.55 -69.6 55.55 -68.7 54.5 -68.7 53.5 -68.7 53.5 -69.65 M41.95 -70.2 Q42.95 -70.35 42.95 -69.4 L42.65 -68.65 Q42.25 -68.05 41.85 -68.05 L41.05 -68.3 40.95 -69.05 Q40.95 -70.0 41.95 -70.2 M43.85 -56.55 Q42.95 -56.55 42.95 -57.5 42.95 -58.4 43.85 -58.35 44.75 -58.3 44.75 -57.45 L44.55 -56.9 Q44.3 -56.55 43.85 -56.55 M38.7 -96.55 Q40.0 -96.8 40.0 -95.75 L39.5 -94.75 Q38.9 -94.05 38.35 -94.05 37.7 -94.05 37.5 -94.55 L37.4 -95.15 Q37.4 -96.3 38.7 -96.55 M16.3 -92.95 L16.05 -93.75 Q16.05 -95.1 17.4 -94.65 18.75 -94.2 18.75 -93.25 L18.5 -92.5 Q18.2 -92.15 17.75 -92.15 16.8 -92.15 16.3 -92.95 M13.7 -88.2 Q14.9 -88.1 14.9 -87.25 14.9 -86.25 13.75 -86.25 12.5 -86.25 12.5 -87.25 12.5 -88.3 13.7 -88.2 M17.8 -84.0 Q17.5 -83.6 17.0 -83.6 L16.5 -83.7 16.25 -83.9 16.15 -84.1 16.05 -84.65 Q16.05 -85.4 17.05 -85.45 18.0 -85.55 18.0 -84.65 L17.8 -84.0 M5.85 -56.8 L5.55 -56.05 Q5.2 -55.45 4.7 -55.45 3.65 -55.45 3.8 -56.45 3.8 -57.4 4.85 -57.55 5.85 -57.7 5.85 -56.8 M12.05 -61.05 Q13.05 -61.05 13.05 -60.1 13.05 -59.05 12.15 -59.05 11.55 -59.05 11.2 -59.65 L11.0 -60.15 Q11.0 -61.05 12.05 -61.05 M30.7 -60.1 Q31.7 -60.2 31.7 -59.2 31.7 -58.15 30.7 -58.15 30.05 -58.15 29.8 -58.6 L29.7 -59.05 Q29.7 -59.95 30.7 -60.1 M-10.65 -182.4 Q-9.5 -182.2 -9.5 -181.15 -9.5 -179.9 -10.55 -179.9 -11.35 -179.9 -11.65 -180.55 L-11.8 -181.2 Q-11.8 -182.65 -10.65 -182.4 M-29.6 -158.85 Q-29.6 -158.35 -30.0 -158.05 L-30.7 -157.85 Q-31.75 -157.85 -31.75 -158.9 -31.75 -159.85 -30.65 -159.8 -29.6 -159.75 -29.6 -158.85 M-35.05 -151.25 Q-33.4 -151.5 -33.4 -149.9 -33.4 -149.1 -33.75 -148.45 -34.2 -147.65 -35.15 -147.65 -36.0 -147.65 -36.75 -150.1 -36.75 -151.0 -35.05 -151.25 M-6.25 -149.6 Q-6.25 -148.5 -7.15 -148.5 -7.9 -148.5 -8.05 -149.1 L-8.1 -149.6 Q-8.1 -150.65 -7.15 -150.65 -6.25 -150.65 -6.25 -149.6 M-52.2 -135.85 L-53.1 -135.25 Q-54.0 -135.25 -54.05 -136.3 -54.05 -137.85 -52.75 -137.9 -51.5 -138.0 -51.5 -137.05 -51.5 -136.55 -52.2 -135.85 M-61.85 -112.3 Q-61.85 -111.15 -62.95 -111.15 -64.0 -111.15 -64.0 -112.15 -64.0 -113.1 -62.9 -113.2 -61.85 -113.35 -61.85 -112.3 M-55.6 -108.3 Q-56.65 -108.3 -56.65 -109.3 -56.65 -110.35 -55.55 -110.35 -54.5 -110.4 -54.5 -109.4 -54.5 -108.3 -55.6 -108.3 M-55.0 -118.3 Q-55.0 -117.3 -56.2 -117.3 -57.35 -117.3 -57.35 -118.35 -57.35 -119.3 -56.15 -119.25 -55.0 -119.2 -55.0 -118.3 M-18.35 -137.5 Q-18.35 -136.35 -19.45 -136.35 -20.3 -136.35 -20.5 -137.0 L-20.5 -137.5 Q-20.5 -138.65 -19.4 -138.55 -18.35 -138.5 -18.35 -137.5 M-0.9 -134.1 Q-0.9 -133.0 -2.0 -133.0 -3.3 -133.0 -3.05 -134.05 -3.05 -135.25 -1.95 -135.15 -0.9 -135.05 -0.9 -134.1 M-3.4 -131.45 Q-3.4 -132.55 -2.5 -132.55 -1.6 -132.55 -1.6 -131.45 -1.6 -130.3 -2.5 -130.3 -3.1 -130.3 -3.3 -130.95 L-3.4 -131.45 M-2.35 -126.0 Q-3.0 -126.0 -3.2 -126.65 L-3.3 -127.15 Q-3.3 -128.25 -2.35 -128.25 -1.4 -128.25 -1.4 -127.15 L-1.55 -126.5 Q-1.85 -126.0 -2.35 -126.0 M-24.05 -130.25 Q-23.1 -130.2 -23.1 -129.3 L-23.35 -128.65 Q-23.65 -128.3 -24.05 -128.3 L-24.6 -128.35 -24.9 -128.6 -25.0 -129.35 Q-25.0 -130.3 -24.05 -130.25 M-18.25 -109.0 Q-19.55 -109.0 -19.4 -110.05 -19.4 -110.9 -18.1 -111.05 -16.8 -111.2 -16.8 -110.25 -16.8 -109.65 -17.4 -109.25 L-18.25 -109.0 M-29.0 -85.2 L-29.15 -85.8 Q-29.15 -86.7 -28.05 -86.85 -27.0 -87.05 -27.0 -85.75 L-27.25 -85.05 Q-27.55 -84.55 -28.0 -84.55 -28.7 -84.55 -29.0 -85.2 M-50.5 -95.9 L-50.75 -95.3 Q-50.75 -94.95 -51.0 -94.65 L-51.65 -94.3 Q-52.6 -94.3 -52.8 -95.25 L-52.85 -96.25 Q-52.85 -97.9 -51.55 -97.6 -50.25 -97.3 -50.25 -96.5 -50.25 -96.15 -50.5 -95.9 M-42.65 -93.8 Q-42.65 -92.85 -44.25 -92.85 -45.75 -92.85 -45.75 -94.0 -45.75 -95.3 -44.2 -95.15 -42.65 -95.0 -42.65 -93.8 M-52.9 -90.7 Q-53.25 -90.05 -53.75 -90.05 -54.8 -90.05 -54.65 -91.2 -54.65 -92.35 -53.65 -92.3 -52.65 -92.3 -52.65 -91.45 L-52.9 -90.7 M-53.7 -78.75 Q-52.4 -79.0 -52.4 -78.0 -52.4 -77.75 -53.1 -77.0 L-54.05 -76.25 Q-55.25 -76.25 -55.0 -77.5 -55.0 -78.5 -53.7 -78.75 M-59.5 -71.2 Q-59.8 -70.95 -60.15 -70.95 -61.2 -70.95 -61.2 -71.9 -61.2 -72.8 -60.15 -72.9 -59.15 -73.0 -59.15 -72.0 -59.15 -71.5 -59.5 -71.2 M-53.45 -69.1 Q-52.4 -69.3 -52.4 -68.15 -52.4 -67.0 -53.5 -67.0 -54.6 -67.0 -54.5 -68.05 -54.5 -68.95 -53.45 -69.1" fill="#2f2f2f" fill-opacity="0.49803922" fill-rule="evenodd" stroke="none"/>
    <path d="M56.7 -175.9 L56.25 -174.9 55.2 -174.3 54.55 -174.4 54.15 -174.65 54.05 -175.65 Q54.05 -177.05 55.4 -177.05 56.7 -177.0 56.7 -175.9 M52.55 -161.15 Q52.2 -160.65 51.65 -160.65 50.95 -160.65 50.7 -161.25 50.55 -161.55 50.55 -161.95 50.55 -163.1 51.7 -163.05 52.85 -163.0 52.85 -161.95 L52.55 -161.15 M59.55 -161.55 Q59.55 -163.05 60.9 -162.75 62.25 -162.4 62.25 -161.4 62.25 -160.85 61.8 -160.5 61.4 -160.2 60.9 -160.2 60.0 -160.2 59.65 -161.0 L59.55 -161.55 M43.95 -171.2 Q43.95 -172.4 45.15 -172.3 46.35 -172.15 46.35 -171.15 L46.05 -170.4 Q45.75 -169.95 45.15 -169.95 L44.5 -170.05 44.1 -170.25 43.95 -171.2 M59.55 -155.45 Q59.55 -156.75 60.9 -156.45 62.25 -156.1 62.25 -155.2 L61.95 -154.4 Q61.6 -153.95 61.05 -153.95 60.05 -153.95 59.7 -154.75 L59.55 -155.45 M8.75 -174.75 Q9.2 -174.45 9.7 -174.3 L10.35 -174.15 Q11.15 -173.65 11.15 -172.95 11.15 -172.65 10.4 -171.95 9.6 -171.2 8.85 -171.2 7.95 -171.2 7.75 -171.95 L7.65 -172.8 Q7.65 -174.95 8.1 -174.95 L8.75 -174.75 M11.8 -169.4 Q12.45 -169.4 12.45 -168.8 12.45 -168.3 11.95 -168.3 11.15 -168.3 11.15 -168.85 11.15 -169.4 11.8 -169.4 M7.35 -118.4 L7.05 -118.2 Q6.4 -118.2 6.3 -118.65 L6.3 -119.05 Q6.3 -119.95 6.9 -119.65 7.5 -119.4 7.5 -118.85 L7.35 -118.4 M5.35 -100.15 Q6.0 -100.05 6.0 -99.45 L5.8 -99.05 Q5.55 -98.9 5.4 -98.9 L4.8 -99.3 4.7 -99.65 Q4.7 -100.25 5.35 -100.15 M0.05 -99.45 Q-0.55 -99.45 -0.5 -100.1 -0.5 -100.65 0.1 -100.6 0.65 -100.55 0.65 -100.1 0.65 -99.45 0.05 -99.45 M34.35 -115.85 Q34.35 -116.8 35.4 -116.25 L35.45 -115.85 35.3 -115.45 34.95 -115.25 34.4 -115.4 34.35 -115.85 M28.6 -123.4 Q29.15 -123.4 29.15 -122.85 29.15 -122.25 28.7 -122.25 L28.1 -122.4 28.05 -122.85 Q28.05 -123.4 28.6 -123.4 M48.65 -128.1 Q48.3 -128.1 48.1 -128.4 L48.0 -128.75 Q48.0 -129.35 48.65 -129.25 49.25 -129.2 49.25 -128.7 49.25 -128.1 48.65 -128.1 M57.45 -119.4 L57.45 -119.75 Q57.45 -120.45 58.15 -120.45 58.8 -120.45 58.8 -119.9 58.8 -119.1 58.05 -119.1 57.55 -119.1 57.45 -119.4 M59.4 -108.65 L59.2 -108.15 58.75 -107.85 58.2 -108.0 58.1 -108.5 Q58.1 -109.25 58.75 -109.25 59.4 -109.3 59.4 -108.65 M5.65 -94.3 Q6.2 -94.3 6.2 -93.65 6.15 -93.05 5.7 -93.05 L5.35 -93.1 5.15 -93.3 5.1 -93.65 Q5.1 -94.3 5.65 -94.3 M2.3 -88.85 Q2.3 -89.45 2.95 -89.4 3.6 -89.35 3.6 -88.85 3.6 -88.25 2.95 -88.25 2.3 -88.25 2.3 -88.85 M9.05 -88.5 L8.6 -88.25 Q8.1 -88.25 8.1 -88.95 8.1 -89.55 8.7 -89.55 9.3 -89.55 9.3 -89.0 L9.05 -88.5 M4.7 -84.9 L4.2 -85.05 4.2 -85.55 Q4.2 -86.5 5.3 -86.15 L5.4 -85.85 Q5.4 -84.9 4.7 -84.9 M-33.75 -195.0 L-34.2 -195.15 -34.25 -195.6 Q-34.25 -196.25 -33.6 -196.25 -33.0 -196.25 -33.0 -195.75 L-33.2 -195.2 -33.75 -195.0 M-36.75 -196.2 Q-37.65 -196.2 -37.65 -197.0 -37.65 -197.55 -36.8 -198.0 -36.0 -198.45 -36.0 -197.4 -36.0 -196.2 -36.75 -196.2 M-38.9 -191.0 Q-38.9 -191.6 -38.2 -191.55 -37.5 -191.5 -37.5 -191.0 -37.5 -190.4 -38.25 -190.4 -38.9 -190.4 -38.9 -191.0 M-30.85 -183.15 L-31.25 -182.85 Q-31.95 -182.85 -31.85 -183.6 -31.85 -184.25 -31.2 -184.25 -30.6 -184.25 -30.6 -183.75 L-30.85 -183.15 M-38.2 -179.1 Q-37.55 -179.25 -37.55 -178.4 -37.55 -177.65 -38.25 -177.65 -39.0 -177.65 -38.9 -178.25 -38.9 -178.95 -38.2 -179.1 M-23.55 -176.35 L-23.9 -176.15 Q-24.6 -176.15 -24.6 -176.75 -24.6 -177.2 -24.0 -177.25 -23.4 -177.3 -23.4 -176.75 L-23.55 -176.35 M-29.1 -160.9 Q-29.1 -161.5 -28.5 -161.5 -27.9 -161.5 -27.9 -160.95 -27.9 -160.25 -28.4 -160.25 -29.15 -160.25 -29.1 -160.9 M-53.75 -169.95 L-53.9 -169.6 -54.35 -169.35 Q-55.05 -169.35 -55.05 -170.0 -55.05 -170.7 -54.4 -170.5 -53.75 -170.35 -53.75 -169.95 M-53.0 -160.0 Q-52.35 -160.0 -52.35 -159.45 L-52.5 -159.05 -52.9 -158.85 Q-53.7 -158.85 -53.7 -159.5 -53.7 -159.95 -53.0 -160.0 M-53.55 -142.6 Q-53.55 -141.25 -54.9 -141.25 -55.9 -141.25 -56.05 -142.15 -56.05 -143.2 -54.8 -143.35 -53.55 -143.5 -53.55 -142.6 M-56.85 -141.25 Q-56.85 -140.9 -57.3 -140.5 -57.8 -139.95 -58.2 -139.95 -59.1 -139.95 -59.05 -140.9 -59.05 -142.05 -57.9 -142.05 -57.2 -141.95 -57.0 -141.7 -56.85 -141.55 -56.85 -141.25 M-59.25 -126.0 Q-59.25 -126.7 -58.25 -126.7 -57.35 -126.7 -57.35 -126.0 -57.35 -125.6 -57.8 -125.3 L-58.35 -125.05 Q-59.25 -125.05 -59.25 -126.0 M-66.5 -130.55 Q-66.7 -130.55 -67.15 -130.9 L-67.3 -131.6 -66.9 -132.9 -66.05 -134.25 -64.2 -135.05 Q-63.55 -135.05 -63.55 -134.15 L-64.8 -132.35 Q-66.05 -130.55 -66.5 -130.55 M-66.05 -114.75 L-66.05 -115.8 Q-66.05 -117.05 -65.0 -116.95 -64.05 -116.85 -64.05 -115.95 L-64.45 -115.1 Q-64.9 -114.55 -65.1 -114.55 L-66.05 -114.75 M-66.05 -107.15 Q-67.15 -107.15 -66.9 -108.35 -66.9 -109.6 -65.9 -109.65 -65.0 -109.75 -65.0 -108.95 -65.0 -108.5 -65.3 -107.85 -65.55 -107.15 -66.05 -107.15 M-37.75 -138.3 Q-37.25 -138.3 -37.0 -138.0 L-36.9 -137.75 -37.25 -137.25 Q-37.65 -136.95 -38.1 -136.95 -38.7 -136.95 -38.7 -137.55 -38.7 -138.3 -37.75 -138.3 M-40.35 -140.4 Q-41.2 -140.4 -41.15 -141.45 -41.15 -142.4 -40.3 -142.5 -39.45 -142.65 -39.45 -141.65 -39.45 -141.35 -39.8 -140.85 L-40.35 -140.4 M-39.05 -100.65 Q-39.75 -100.65 -39.75 -101.4 -39.75 -102.0 -39.15 -102.0 -38.55 -102.0 -38.55 -101.3 L-38.65 -100.95 Q-38.75 -100.65 -39.05 -100.65 M-38.1 -99.35 Q-38.1 -99.0 -38.5 -98.65 -38.85 -98.3 -39.1 -98.3 -40.6 -98.3 -40.4 -99.45 -40.4 -100.45 -39.2 -100.45 -38.1 -100.45 -38.1 -99.35 M-1.5 -106.5 Q-1.5 -106.3 -1.8 -106.05 L-2.25 -105.75 -2.7 -105.9 -2.75 -106.4 Q-2.75 -107.0 -2.1 -107.05 -1.5 -107.05 -1.5 -106.5 M-3.4 -101.95 Q-2.6 -102.05 -2.6 -101.1 -2.6 -100.5 -3.2 -100.5 -4.2 -100.5 -4.2 -101.2 -4.2 -101.9 -3.4 -101.95 M-5.55 -88.1 Q-6.05 -88.1 -6.15 -88.4 L-6.15 -88.8 Q-6.15 -89.4 -5.5 -89.4 -4.85 -89.4 -4.85 -88.85 L-5.1 -88.35 Q-5.35 -88.1 -5.55 -88.1 M-9.8 -87.9 Q-10.45 -87.9 -10.35 -88.5 -10.35 -89.15 -9.7 -89.15 -9.05 -89.15 -9.05 -88.6 L-9.3 -88.15 Q-9.55 -87.9 -9.8 -87.9 M-10.35 -94.0 Q-10.35 -93.3 -10.85 -93.3 -11.55 -93.3 -11.55 -94.05 -11.55 -94.6 -10.95 -94.6 -10.35 -94.6 -10.35 -94.0 M-16.65 -94.0 Q-15.9 -93.95 -15.9 -93.5 -15.9 -93.2 -16.2 -92.95 L-16.8 -92.75 Q-17.4 -92.75 -17.4 -93.45 -17.4 -94.1 -16.65 -94.0 M-14.25 -88.1 Q-14.95 -88.1 -15.3 -88.95 -15.3 -89.6 -14.45 -89.5 -13.65 -89.45 -13.65 -88.7 L-13.85 -88.3 Q-14.1 -88.1 -14.25 -88.1 M-11.5 -87.3 Q-10.85 -87.1 -10.85 -86.45 L-10.95 -86.1 -11.1 -86.0 -11.4 -85.95 Q-12.2 -85.95 -12.15 -86.7 -12.15 -87.45 -11.5 -87.3 M-8.7 -82.65 L-8.75 -83.2 -8.7 -83.75 Q-7.65 -84.2 -7.65 -83.15 -7.65 -82.4 -8.25 -82.4 L-8.7 -82.65 M-39.35 -92.8 Q-39.55 -92.55 -39.9 -92.55 -41.0 -92.55 -41.0 -93.45 -41.0 -94.3 -40.05 -94.3 -39.1 -94.3 -39.1 -93.45 L-39.35 -92.8 M-4.9 -64.1 Q-5.6 -64.1 -5.55 -64.7 -5.55 -65.3 -4.9 -65.25 -4.25 -65.2 -4.25 -64.7 -4.25 -64.1 -4.9 -64.1 M-3.45 -59.3 Q-3.45 -58.65 -4.05 -58.65 -4.75 -58.65 -4.55 -59.3 -4.55 -59.95 -4.0 -59.95 -3.45 -59.95 -3.45 -59.3 M-4.9 -56.0 L-4.95 -56.25 -4.6 -56.75 -3.9 -56.85 -3.85 -56.5 -4.05 -56.15 -4.4 -55.95 -4.9 -56.0 M-3.0 -52.45 Q-3.0 -52.05 -3.4 -51.95 L-3.85 -52.3 -3.55 -52.8 Q-3.2 -52.95 -3.0 -52.45 M-58.7 -98.6 Q-58.7 -99.7 -57.45 -99.8 -56.25 -99.85 -56.25 -98.6 L-56.5 -97.85 Q-56.85 -97.25 -57.45 -97.25 -58.75 -97.25 -58.7 -98.6" fill="#ffff99" fill-opacity="0.39215687" fill-rule="evenodd" stroke="none"/>
  </g>
</svg>
