<?xml version="1.0" encoding="UTF-8" standalone="no"?>
<svg xmlns:ffdec="https://www.free-decompiler.com/flash" xmlns:xlink="http://www.w3.org/1999/xlink" ffdec:objectType="shape" height="307.65px" width="253.05px" xmlns="http://www.w3.org/2000/svg">
  <g transform="matrix(1.0, 0.0, 0.0, 1.0, 130.5, 199.55)">
    <path d="M8.8 -184.6 Q9.65 -180.45 9.65 -171.7 9.7 -169.2 9.4 -166.9 L9.25 -165.65 Q11.6 -167.3 14.8 -168.35 24.0 -171.15 30.0 -166.05 33.8 -162.75 35.45 -159.6 37.0 -156.75 37.0 -153.35 L36.9 -150.5 Q38.65 -150.7 40.65 -150.5 49.7 -149.75 51.5 -143.4 52.75 -142.15 53.65 -140.45 54.4 -138.85 54.5 -137.5 L55.1 -131.9 54.8 -128.35 54.6 -127.45 55.15 -127.45 58.55 -126.35 59.2 -125.9 60.5 -125.45 Q63.25 -124.4 64.55 -122.85 L65.95 -120.2 Q67.75 -115.55 68.05 -114.0 L68.1 -111.7 68.4 -107.8 67.95 -102.9 Q67.5 -99.25 67.25 -98.8 L66.1 -96.6 64.35 -92.9 70.15 -93.3 71.4 -93.1 Q76.4 -92.75 78.8 -88.2 L79.85 -85.7 80.75 -83.0 Q81.5 -80.05 81.5 -77.25 81.5 -73.15 80.3 -70.8 79.35 -68.9 76.25 -65.65 77.15 -65.0 77.45 -64.0 L77.5 -63.2 77.6 -62.9 77.75 -62.5 78.1 -61.0 78.15 -60.0 78.35 -57.9 Q78.35 -55.0 75.8 -51.85 71.9 -46.95 63.9 -46.95 L63.45 -46.95 61.15 -46.9 Q60.75 -44.5 60.0 -42.75 L59.8 -42.25 60.0 -41.4 60.0 -41.25 57.25 -40.15 Q54.3 -37.75 49.6 -36.7 L45.85 -35.65 45.9 -35.55 Q46.8 -33.65 46.8 -31.5 46.8 -26.45 44.2 -22.35 39.8 -15.65 29.6 -15.3 28.7 -9.35 20.8 -5.15 13.9 -1.45 8.85 -1.45 5.85 -1.45 2.35 -2.75 0.85 -3.25 -0.05 -3.8 -0.8 -2.3 -4.55 -1.05 -8.9 0.3 -14.2 0.3 -23.45 0.3 -31.05 -3.3 -39.85 -7.6 -39.85 -14.45 L-39.8 -14.9 -39.9 -14.9 Q-46.1 -14.9 -48.85 -20.9 -50.3 -23.95 -50.5 -27.3 -50.5 -30.4 -48.45 -32.85 L-50.35 -33.7 Q-57.35 -36.15 -64.5 -41.8 L-65.05 -42.2 Q-69.4 -45.3 -72.05 -51.0 -73.55 -53.95 -74.15 -56.8 -75.2 -59.95 -75.2 -62.5 -75.2 -65.3 -73.45 -69.45 L-72.45 -72.0 -70.95 -74.65 Q-70.05 -76.35 -68.95 -77.4 L-67.0 -79.0 -68.55 -80.3 Q-70.5 -82.35 -71.25 -84.1 -72.15 -86.25 -72.15 -90.8 L-72.05 -92.4 -72.25 -94.2 Q-72.25 -102.05 -66.0 -108.65 L-63.3 -110.95 -64.05 -112.35 Q-65.6 -114.4 -66.0 -116.15 L-67.0 -119.9 -67.1 -122.6 Q-67.1 -129.1 -63.2 -134.45 -61.0 -138.25 -57.3 -141.1 -50.05 -146.75 -41.6 -146.75 L-41.85 -147.55 -42.15 -150.3 Q-42.15 -160.4 -30.5 -162.4 -26.25 -163.15 -22.5 -162.3 L-22.25 -162.2 -22.6 -163.3 Q-23.0 -165.25 -23.25 -169.1 L-24.4 -178.4 Q-24.4 -189.1 -13.85 -196.1 -9.4 -199.05 -5.1 -199.5 -0.4 -199.9 2.35 -197.1 7.25 -192.15 8.8 -184.6 M43.35 -37.65 L43.2 -37.85 44.9 -38.2 Q54.0 -40.6 56.35 -43.1 57.8 -44.55 57.8 -48.55 57.25 -48.9 57.25 -49.1 L57.8 -48.85 Q57.85 -50.65 59.5 -50.05 L60.3 -49.7 60.5 -49.7 60.75 -49.95 63.55 -50.25 68.7 -50.85 Q71.9 -52.0 73.45 -54.2 74.95 -56.15 74.95 -59.75 L74.95 -61.35 Q74.45 -62.4 73.55 -62.8 71.75 -63.45 71.75 -64.3 L71.95 -64.95 Q71.7 -65.1 71.55 -65.4 L71.45 -66.2 73.2 -68.25 Q75.15 -70.65 76.25 -73.2 L77.15 -76.55 77.9 -80.3 Q77.9 -83.15 76.9 -85.55 74.95 -90.25 70.0 -90.25 63.4 -90.25 61.95 -89.0 L61.9 -88.85 Q60.95 -89.6 59.2 -89.4 L58.65 -89.35 58.65 -89.5 58.7 -89.6 58.85 -89.85 58.55 -89.9 58.45 -90.05 58.35 -90.6 Q58.35 -91.35 60.05 -92.0 L61.05 -93.65 Q63.55 -98.0 63.95 -99.85 L65.2 -105.55 65.35 -110.0 Q65.35 -113.6 64.0 -117.35 61.6 -123.95 56.2 -123.95 53.65 -123.95 52.6 -123.4 L51.45 -122.85 Q50.1 -122.85 50.1 -124.45 50.1 -125.2 50.6 -125.7 L50.65 -125.8 50.6 -126.15 51.45 -128.85 Q52.2 -131.65 52.2 -132.7 L52.0 -135.55 50.65 -139.8 50.6 -140.0 50.55 -140.1 49.7 -141.3 Q48.95 -142.2 47.05 -143.3 45.3 -144.35 43.45 -144.95 L39.55 -146.45 33.05 -146.15 31.95 -146.15 31.65 -145.9 30.9 -146.65 31.0 -147.15 30.9 -147.4 Q30.9 -147.7 31.25 -147.9 L31.85 -149.3 Q32.75 -151.15 32.75 -152.35 32.75 -156.0 30.55 -159.6 27.05 -165.45 19.3 -165.45 L15.8 -165.25 12.4 -163.75 7.8 -161.0 7.05 -161.2 Q6.1 -160.55 5.6 -160.55 L5.25 -160.55 5.0 -160.55 4.45 -160.65 4.15 -160.9 Q4.2 -161.85 5.3 -164.1 L6.35 -166.7 6.85 -171.85 6.8 -176.15 Q6.6 -180.8 5.8 -184.5 4.65 -190.2 2.45 -193.25 -0.1 -196.3 -4.0 -196.4 L-4.2 -196.4 Q-8.15 -196.4 -11.05 -194.75 L-13.8 -192.8 -16.0 -189.75 Q-16.85 -188.35 -17.4 -187.85 -19.35 -184.75 -20.15 -182.25 L-21.3 -177.5 -21.4 -176.7 -20.5 -169.55 -19.4 -165.25 Q-18.55 -162.4 -18.55 -161.2 -18.55 -160.55 -18.9 -160.2 L-18.85 -159.85 -19.15 -159.0 Q-19.6 -158.4 -20.2 -158.4 -20.75 -158.4 -21.65 -159.15 -22.6 -159.9 -29.15 -159.9 L-30.7 -159.8 Q-35.05 -158.8 -37.4 -155.4 -39.0 -153.15 -39.3 -151.15 L-39.35 -150.6 -39.35 -150.2 -38.25 -146.05 Q-38.25 -145.55 -38.55 -145.35 L-38.55 -145.2 -38.2 -144.95 -38.65 -144.7 Q-38.75 -144.05 -39.25 -143.85 L-42.5 -143.8 Q-48.4 -143.8 -54.25 -139.55 -58.25 -136.65 -59.8 -134.15 -62.1 -130.7 -62.95 -128.0 -63.6 -125.75 -63.6 -122.25 -63.6 -118.4 -61.5 -114.7 -59.45 -111.65 -59.45 -111.05 -59.45 -110.6 -59.75 -110.15 L-59.9 -109.95 Q-60.25 -109.5 -60.75 -109.5 L-64.6 -105.25 Q-69.4 -99.65 -69.4 -94.25 -69.4 -92.75 -69.0 -90.15 L-68.35 -86.65 Q-67.0 -82.65 -64.45 -81.05 L-63.65 -80.6 -62.95 -80.15 -62.25 -79.5 Q-62.25 -79.0 -62.4 -78.65 -62.4 -77.95 -63.35 -77.85 -63.75 -77.55 -64.45 -77.35 L-64.75 -77.25 -65.35 -77.0 -65.55 -76.85 Q-66.75 -76.15 -67.45 -74.85 L-70.25 -70.25 Q-71.05 -69.25 -71.5 -66.05 L-71.95 -61.1 Q-71.95 -57.0 -69.3 -51.95 -66.35 -46.4 -61.75 -43.25 -58.7 -41.1 -54.0 -38.6 -49.5 -36.25 -46.65 -35.25 L-46.55 -34.75 Q-44.45 -36.45 -44.45 -33.7 -47.4 -28.35 -47.4 -27.3 -47.4 -21.55 -42.35 -19.15 L-38.9 -17.75 -38.35 -17.55 Q-37.25 -18.3 -36.8 -15.55 -37.05 -13.2 -34.95 -10.5 -32.55 -7.55 -29.85 -6.0 -24.05 -2.75 -14.15 -2.75 -7.5 -2.75 -4.9 -4.4 L-2.05 -5.95 -2.15 -6.6 Q-2.15 -8.25 -0.65 -8.25 0.05 -8.25 2.2 -6.45 4.4 -4.6 5.95 -4.6 13.15 -4.6 16.25 -5.95 17.95 -6.7 19.5 -8.1 L22.65 -9.85 Q24.2 -11.0 24.4 -11.95 L25.4 -14.0 26.25 -16.1 Q26.5 -17.85 28.0 -18.1 29.45 -18.95 33.3 -19.55 40.1 -20.6 41.25 -23.45 42.35 -26.2 43.35 -28.0 43.8 -28.95 43.8 -31.5 43.8 -32.2 42.55 -33.85 41.25 -35.45 41.25 -36.0 41.25 -37.65 43.15 -37.5 L43.45 -37.45 43.35 -37.65" fill="#2f2f2f" fill-rule="evenodd" stroke="none"/>
    <path d="M43.15 -37.5 Q41.25 -37.65 41.25 -36.0 41.25 -35.45 42.55 -33.85 43.8 -32.2 43.8 -31.5 43.8 -28.95 43.35 -28.0 42.35 -26.2 41.25 -23.45 40.1 -20.6 33.3 -19.55 29.45 -18.95 28.0 -18.1 26.5 -17.85 26.25 -16.1 L25.4 -14.0 24.4 -11.95 Q24.2 -11.0 22.65 -9.85 L19.5 -8.1 Q17.95 -6.7 16.25 -5.95 13.15 -4.6 5.95 -4.6 4.4 -4.6 2.2 -6.45 0.05 -8.25 -0.65 -8.25 -2.15 -8.25 -2.15 -6.6 L-2.05 -5.95 -4.9 -4.4 Q-7.5 -2.75 -14.15 -2.75 -24.05 -2.75 -29.85 -6.0 -32.55 -7.55 -34.95 -10.5 -37.05 -13.2 -36.8 -15.55 -37.25 -18.3 -38.35 -17.55 L-38.9 -17.75 -42.35 -19.15 Q-47.4 -21.55 -47.4 -27.3 -47.4 -28.35 -44.45 -33.7 -44.45 -36.45 -46.55 -34.75 L-46.65 -35.25 Q-49.5 -36.25 -54.0 -38.6 -58.7 -41.1 -61.75 -43.25 -66.35 -46.4 -69.3 -51.95 -71.95 -57.0 -71.95 -61.1 L-71.5 -66.05 Q-71.05 -69.25 -70.25 -70.25 L-67.45 -74.85 Q-66.75 -76.15 -65.55 -76.85 L-65.35 -77.0 -64.75 -77.25 -64.45 -77.35 Q-63.75 -77.55 -63.35 -77.85 -62.4 -77.95 -62.4 -78.65 -62.25 -79.0 -62.25 -79.5 L-62.95 -80.15 -63.65 -80.6 -64.45 -81.05 Q-67.0 -82.65 -68.35 -86.65 L-69.0 -90.15 Q-69.4 -92.75 -69.4 -94.25 -69.4 -99.65 -64.6 -105.25 L-60.75 -109.5 Q-60.25 -109.5 -59.9 -109.95 L-59.75 -110.15 Q-59.45 -110.6 -59.45 -111.05 -59.45 -111.65 -61.5 -114.7 -63.6 -118.4 -63.6 -122.25 -63.6 -125.75 -62.95 -128.0 -62.1 -130.7 -59.8 -134.15 -58.25 -136.65 -54.25 -139.55 -48.4 -143.8 -42.5 -143.8 L-39.25 -143.85 Q-38.75 -144.05 -38.65 -144.7 L-38.2 -144.95 -38.55 -145.2 -38.55 -145.35 Q-38.25 -145.55 -38.25 -146.05 L-39.35 -150.2 -39.35 -150.6 -39.3 -151.15 Q-39.0 -153.15 -37.4 -155.4 -35.05 -158.8 -30.7 -159.8 L-29.15 -159.9 Q-22.6 -159.9 -21.65 -159.15 -20.75 -158.4 -20.2 -158.4 -19.6 -158.4 -19.15 -159.0 L-18.85 -159.85 -18.9 -160.2 Q-18.55 -160.55 -18.55 -161.2 -18.55 -162.4 -19.4 -165.25 L-20.5 -169.55 -21.4 -176.7 -21.3 -177.5 -20.15 -182.25 Q-19.35 -184.75 -17.4 -187.85 -16.85 -188.35 -16.0 -189.75 L-13.8 -192.8 -11.05 -194.75 Q-8.15 -196.4 -4.2 -196.4 L-4.0 -196.4 Q-0.1 -196.3 2.45 -193.25 4.65 -190.2 5.8 -184.5 6.6 -180.8 6.8 -176.15 L6.85 -171.85 6.35 -166.7 5.3 -164.1 Q4.2 -161.85 4.15 -160.9 L4.45 -160.65 5.0 -160.55 5.25 -160.55 5.6 -160.55 Q6.1 -160.55 7.05 -161.2 L7.8 -161.0 12.4 -163.75 15.8 -165.25 19.3 -165.45 Q27.05 -165.45 30.55 -159.6 32.75 -156.0 32.75 -152.35 32.75 -151.15 31.85 -149.3 L31.25 -147.9 Q30.9 -147.7 30.9 -147.4 L31.0 -147.15 30.9 -146.65 31.65 -145.9 31.95 -146.15 33.05 -146.15 39.55 -146.45 43.45 -144.95 Q45.3 -144.35 47.05 -143.3 48.95 -142.2 49.7 -141.3 L50.55 -140.1 50.6 -140.0 50.65 -139.8 52.0 -135.55 52.2 -132.7 Q52.2 -131.65 51.45 -128.85 L50.6 -126.15 50.65 -125.8 50.6 -125.7 Q50.1 -125.2 50.1 -124.45 50.1 -122.85 51.45 -122.85 L52.6 -123.4 Q53.65 -123.95 56.2 -123.95 61.6 -123.95 64.0 -117.35 65.35 -113.6 65.35 -110.0 L65.2 -105.55 63.95 -99.85 Q63.55 -98.0 61.05 -93.65 L60.05 -92.0 Q58.35 -91.35 58.35 -90.6 L58.45 -90.05 58.55 -89.9 58.85 -89.85 58.7 -89.6 58.65 -89.5 58.65 -89.35 59.2 -89.4 Q60.95 -89.6 61.9 -88.85 L61.95 -89.0 Q63.4 -90.25 70.0 -90.25 74.95 -90.25 76.9 -85.55 77.9 -83.15 77.9 -80.3 L77.15 -76.55 76.25 -73.2 Q75.15 -70.65 73.2 -68.25 L71.45 -66.2 71.55 -65.4 Q71.7 -65.1 71.95 -64.95 L71.75 -64.3 Q71.75 -63.45 73.55 -62.8 74.45 -62.4 74.95 -61.35 L74.95 -59.75 Q74.95 -56.15 73.45 -54.2 71.9 -52.0 68.7 -50.85 L63.55 -50.25 60.75 -49.95 60.5 -49.7 60.3 -49.7 59.5 -50.05 Q57.85 -50.65 57.8 -48.85 L57.25 -49.1 Q57.25 -48.9 57.8 -48.55 57.8 -44.55 56.35 -43.1 54.0 -40.6 44.9 -38.2 L43.2 -37.85 43.35 -37.65 43.15 -37.5" fill="#444444" fill-rule="evenodd" stroke="none"/>
    <path d="M-25.4 -3.7 L-25.15 -3.35 -24.7 -2.85 -23.8 -2.1 -23.65 -1.5 Q-18.95 2.65 -15.7 3.7 -12.5 4.8 -6.95 4.9 -1.4 5.0 4.1 3.55 9.55 2.1 11.05 1.2 12.55 0.35 14.65 -0.75 L18.25 -2.5 19.65 -3.35 19.75 -3.3 20.9 -4.5 23.0 -6.6 24.0 -7.55 24.0 -7.95 Q24.0 -8.3 24.3 -8.4 L24.5 -8.4 26.35 -6.4 Q28.3 -4.4 28.3 -1.75 28.3 -0.45 27.95 0.6 L26.85 3.15 Q26.35 4.15 24.55 5.6 24.0 5.95 24.05 6.8 L24.1 7.6 24.05 7.6 24.1 7.75 24.1 8.1 23.7 9.75 Q23.0 11.2 21.05 12.8 17.35 15.9 12.55 15.9 L12.2 15.9 11.65 15.9 9.25 15.7 8.9 15.55 Q8.75 15.15 8.4 15.15 L8.35 15.3 8.25 15.2 7.4 15.95 6.3 16.85 7.3 16.55 6.9 16.95 Q6.25 17.7 5.15 18.1 L0.05 18.45 -3.95 17.8 Q-6.2 17.45 -8.05 16.7 L-10.55 15.0 Q-11.4 14.35 -11.5 13.6 L-11.85 13.35 Q-12.35 13.0 -12.5 13.35 L-14.1 12.1 Q-15.75 12.05 -17.2 11.3 L-18.15 10.7 Q-21.85 8.75 -23.75 5.8 -25.7 2.75 -25.7 -1.1 L-25.45 -3.3 -25.4 -3.7 M24.15 -0.45 L24.1 0.0 24.2 -0.45 24.15 -0.45 M22.55 4.5 L22.65 4.6 22.7 4.3 22.55 4.5" fill="#444444" fill-rule="evenodd" stroke="none"/>
    <path d="M-25.4 -3.7 L-25.45 -3.3 -25.7 -1.1 Q-25.7 2.75 -23.75 5.8 -21.85 8.75 -18.15 10.7 L-17.2 11.3 Q-15.75 12.05 -14.1 12.1 L-12.5 13.35 Q-12.35 13.0 -11.85 13.35 L-11.5 13.6 Q-11.4 14.35 -10.55 15.0 L-8.05 16.7 Q-6.2 17.45 -3.95 17.8 L0.05 18.45 5.15 18.1 Q6.25 17.7 6.9 16.95 L7.3 16.55 6.3 16.85 7.4 15.95 8.25 15.2 8.35 15.3 8.4 15.15 Q8.75 15.15 8.9 15.55 L9.25 15.7 11.65 15.9 12.2 15.9 12.55 15.9 Q17.35 15.9 21.05 12.8 23.0 11.2 23.7 9.75 L24.1 8.1 24.1 7.75 24.05 7.6 24.1 7.6 24.05 6.8 Q24.0 5.95 24.55 5.6 26.35 4.15 26.85 3.15 L27.95 0.6 Q28.3 -0.45 28.3 -1.75 28.3 -4.4 26.35 -6.4 L24.5 -8.4 24.4 -8.6 Q24.4 -9.35 25.05 -9.35 L25.6 -9.05 27.3 -7.95 28.75 -5.8 Q29.45 -4.1 29.45 -1.55 29.45 -0.6 29.05 1.0 L28.3 3.1 27.95 3.7 27.55 4.4 27.1 4.9 25.85 6.45 25.5 6.65 Q25.2 6.85 25.2 7.15 L25.15 9.0 Q24.95 10.7 22.25 14.5 21.5 15.4 20.0 16.25 17.1 17.85 13.2 17.85 L10.2 17.45 8.75 16.95 8.6 17.1 6.95 18.85 5.25 19.75 4.3 20.15 0.85 20.35 -3.1 20.2 -3.75 19.85 -5.6 19.25 -8.65 18.25 Q-9.65 17.8 -11.15 16.5 -12.65 15.2 -12.8 14.4 L-13.3 14.4 Q-15.15 14.4 -17.85 13.25 L-20.25 12.05 -24.1 8.35 Q-25.85 6.35 -26.45 4.45 -26.9 3.05 -26.9 0.45 L-26.6 -3.05 -26.1 -5.8 -26.05 -5.65 -26.1 -5.3 Q-25.85 -5.65 -25.75 -4.25 L-25.4 -3.7 M21.95 -8.2 Q21.95 -8.8 22.45 -8.6 L22.4 -8.6 21.95 -8.2 M24.15 -0.45 L24.2 -0.45 24.1 0.0 24.15 -0.45 M22.55 4.5 L22.7 4.3 22.65 4.6 22.55 4.5" fill="#2f2f2f" fill-rule="evenodd" stroke="none"/>
    <path d="M-62.25 -3.35 L-61.5 -2.9 -61.7 -2.65 -59.95 -1.85 -60.0 -1.45 -58.9 -0.9 -59.6 0.05 Q-60.0 0.55 -60.5 0.55 -61.3 0.55 -65.25 -1.45 -69.05 -2.9 -75.8 -6.2 L-82.55 -9.8 -83.2 -10.0 -88.45 -14.0 Q-90.2 -15.25 -92.1 -17.5 -107.35 -45.25 -89.3 -80.85 -107.8 -117.5 -69.15 -127.85 L-67.25 -130.3 Q-52.8 -148.1 -30.15 -142.7 -4.75 -171.5 20.55 -143.7 21.9 -145.3 23.6 -146.6 69.65 -182.4 80.25 -132.05 119.95 -130.6 111.1 -92.1 L115.3 -88.05 Q129.1 -73.2 116.55 -56.7 120.3 -34.4 110.9 -17.4 110.9 -17.0 110.35 -16.45 L110.3 -16.3 110.15 -16.2 Q109.15 -15.65 107.5 -14.85 102.75 -11.85 89.25 -7.5 87.95 -6.6 83.95 -5.8 L83.75 -5.75 Q62.8 0.55 51.0 0.55 L47.55 0.15 44.7 -0.5 44.7 -1.3 Q44.7 -2.1 45.1 -2.25 L45.8 -2.3 45.75 -2.4 45.65 -3.25 Q45.65 -3.75 52.8 -5.0 L64.55 -6.9 72.5 -8.2 99.8 -15.35 Q121.65 -28.9 110.5 -56.0 115.6 -61.4 116.7 -68.7 118.95 -83.95 104.1 -89.1 L105.2 -92.9 Q112.75 -128.1 74.4 -127.45 76.15 -131.55 76.15 -136.2 76.15 -140.7 74.55 -144.9 42.9 -169.2 20.35 -134.75 -2.7 -165.8 -27.8 -137.7 -53.25 -145.7 -65.0 -122.05 -103.5 -114.35 -82.4 -79.9 -102.8 -43.7 -83.6 -16.0 -82.9 -14.45 -76.75 -9.45 -69.3 -3.35 -65.8 -3.35 L-64.6 -3.5 -64.2 -3.75 -64.15 -4.0 Q-62.95 -3.35 -62.25 -3.35" fill="#2f2f2f" fill-rule="evenodd" stroke="none"/>
    <path d="M-62.25 -3.35 Q-62.95 -3.35 -64.15 -4.0 L-64.2 -3.75 -64.6 -3.5 -65.8 -3.35 Q-69.3 -3.35 -76.75 -9.45 -82.9 -14.45 -83.6 -16.0 -102.8 -43.7 -82.4 -79.9 -103.5 -114.35 -65.0 -122.05 -53.25 -145.7 -27.8 -137.7 -2.7 -165.8 20.35 -134.75 42.9 -169.2 74.55 -144.9 76.15 -140.7 76.15 -136.2 76.15 -131.55 74.4 -127.45 112.75 -128.1 105.2 -92.9 L104.1 -89.1 Q118.95 -83.95 116.7 -68.7 115.6 -61.4 110.5 -56.0 121.65 -28.9 99.8 -15.35 L72.5 -8.2 64.55 -6.9 52.8 -5.0 47.15 -4.8 Q31.3 -4.8 11.6 -9.7 L-1.1 -9.95 -3.0 -10.2 -41.6 -10.4 -55.75 -11.6 -73.1 -12.8 -70.35 -10.95 Q-66.9 -9.05 -60.4 -4.95 L-61.15 -3.9 Q-61.5 -3.35 -62.25 -3.35" fill="#444444" fill-rule="evenodd" stroke="none"/>
    <path d="M64.0 -43.05 Q63.8 -43.05 63.8 -43.75 63.8 -44.45 74.9 -50.9 L90.8 -60.45 Q93.7 -62.5 102.3 -68.9 110.1 -74.25 113.45 -74.3 L102.2 -64.75 Q95.15 -58.85 90.35 -55.7 85.65 -52.65 77.5 -46.05 69.95 -40.0 66.85 -38.15 L67.05 -38.35 Q66.7 -38.55 65.7 -40.3 64.6 -42.2 64.6 -42.65 L64.65 -43.05 64.0 -43.05 M97.7 -63.25 L98.8 -64.15 Q98.6 -64.15 97.8 -63.35 L97.7 -63.25 M101.7 -66.85 L101.7 -66.75 100.4 -65.5 101.45 -66.3 Q102.15 -67.05 101.7 -66.85 M102.4 69.45 L101.95 69.9 Q94.2 64.15 78.4 50.8 64.35 38.9 55.45 32.75 55.75 32.35 56.25 32.3 L56.65 31.45 56.6 30.95 Q56.6 30.55 58.4 29.1 60.2 27.65 60.75 27.55 L60.8 27.6 61.05 27.35 61.8 26.4 Q62.2 26.1 62.85 27.35 L63.45 28.25 63.8 28.95 Q65.25 32.35 65.7 32.75 L65.6 32.95 Q70.6 38.5 80.5 48.35 L94.15 62.45 102.4 69.45 M4.0 54.05 L4.2 54.2 4.25 53.9 4.65 54.4 4.65 54.65 4.7 54.9 4.65 54.95 3.85 70.9 3.85 98.9 4.5 106.1 4.4 106.5 4.55 107.75 4.2 108.1 Q2.4 105.0 2.15 96.85 1.1 90.1 -0.2 79.75 -2.8 59.1 -2.8 54.9 L-2.75 54.35 -2.9 54.25 -2.7 54.1 -2.6 53.95 -2.4 53.95 Q-1.95 53.6 -1.5 53.5 L2.7 53.1 4.05 54.0 4.0 54.05 M-130.5 -37.7 L-130.4 -38.0 -106.4 -33.45 Q-90.5 -30.2 -76.15 -25.55 L-76.2 -25.4 -75.9 -25.65 -75.3 -25.25 Q-74.9 -24.95 -74.9 -24.3 -74.9 -21.85 -76.55 -20.0 L-77.45 -19.95 -77.9 -18.4 -78.1 -19.65 Q-91.15 -22.75 -100.55 -25.75 -113.65 -29.9 -126.9 -36.1 L-126.6 -36.3 -130.5 -37.7 M-53.8 19.0 L-53.6 19.35 Q-52.65 20.15 -51.75 21.75 -50.9 23.25 -50.5 24.65 L-50.0 24.3 -49.05 24.4 -48.95 24.5 -48.65 25.2 Q-61.45 34.7 -91.4 52.7 L-95.05 57.5 -94.95 57.55 -95.7 57.6 -96.85 57.4 -96.95 56.25 -96.85 56.0 -98.1 56.7 Q-98.3 57.2 -98.3 56.05 L-94.4 52.8 -88.85 47.05 Q-81.35 39.55 -77.9 36.8 L-65.15 26.65 Q-58.95 21.8 -55.3 19.8 L-55.35 19.55 -55.2 18.8 -54.95 18.65 Q-54.45 18.75 -53.95 19.1 L-53.8 19.0" fill="#d40101" fill-rule="evenodd" stroke="none"/>
    <path d="M43.3 -81.1 Q47.45 -74.2 48.05 -61.45 48.7 -57.1 48.7 -52.3 48.7 -41.6 43.2 -29.8 L40.45 -24.7 Q34.6 -12.7 27.0 -10.9 L25.25 -6.75 Q16.3 13.05 -4.6 13.05 -21.6 13.05 -28.25 -9.4 L-28.65 -9.55 Q-29.7 -9.05 -30.7 -9.05 -35.3 -9.05 -41.9 -16.2 -47.8 -22.55 -50.15 -28.5 -52.05 -33.25 -55.1 -39.15 -57.1 -43.75 -57.1 -48.1 -57.1 -58.25 -55.45 -65.7 -54.6 -69.45 -53.45 -71.75 L-53.45 -72.0 Q-53.45 -78.65 -38.4 -89.95 -22.5 -101.9 -9.15 -102.9 L-9.15 -103.2 8.95 -103.2 Q34.95 -94.8 43.3 -81.1 M40.6 -80.6 Q36.7 -88.95 18.3 -95.3 -0.8 -101.85 -12.95 -97.6 -37.4 -89.05 -46.95 -75.6 -53.75 -65.95 -53.75 -51.5 -53.6 -46.2 -51.85 -41.0 -49.7 -34.75 -45.65 -32.3 -43.1 -30.75 -39.75 -30.75 -36.05 -30.75 -32.6 -33.6 -32.35 -33.75 -32.0 -34.05 -30.45 -35.6 -26.65 -39.9 -18.45 -49.05 -9.15 -49.05 -4.95 -49.05 -1.05 -46.25 L5.9 -40.05 Q15.2 -31.25 24.95 -31.15 L25.15 -31.15 30.35 -31.8 Q35.25 -33.15 38.9 -37.15 41.2 -39.65 42.95 -43.15 46.9 -50.75 46.9 -56.1 46.9 -61.95 45.5 -69.0 43.75 -78.2 40.6 -80.6" fill="#fd0202" fill-rule="evenodd" stroke="none"/>
    <path d="M5.9 -66.05 Q9.15 -63.7 9.7 -59.3 L9.9 -55.25 Q10.15 -51.75 11.15 -49.2 14.1 -41.25 23.7 -41.25 33.5 -41.25 37.75 -51.8 40.15 -57.9 40.15 -64.35 40.15 -74.1 32.35 -82.0 25.2 -89.1 15.0 -91.8 4.7 -94.5 -2.3 -91.0 -10.2 -87.15 -10.2 -76.9 -10.2 -73.3 -7.3 -71.5 -5.75 -70.45 -0.85 -69.0 3.8 -67.6 5.9 -66.05 M40.6 -80.6 Q43.75 -78.2 45.5 -69.0 46.9 -61.95 46.9 -56.1 46.9 -50.75 42.95 -43.15 41.2 -39.65 38.9 -37.15 35.25 -33.15 30.35 -31.8 L25.15 -31.15 24.95 -31.15 Q15.2 -31.25 5.9 -40.05 L-1.05 -46.25 Q-4.95 -49.05 -9.15 -49.05 -18.45 -49.05 -26.65 -39.9 -30.45 -35.6 -32.0 -34.05 -32.35 -33.75 -32.6 -33.6 -36.05 -30.75 -39.75 -30.75 -43.1 -30.75 -45.65 -32.3 -49.7 -34.75 -51.85 -41.0 -53.6 -46.2 -53.75 -51.5 -53.75 -65.95 -46.95 -75.6 -37.4 -89.05 -12.95 -97.6 -0.8 -101.85 18.3 -95.3 36.7 -88.95 40.6 -80.6" fill="#ffff00" fill-rule="evenodd" stroke="none"/>
    <path d="M5.9 -66.05 Q3.8 -67.6 -0.85 -69.0 -5.75 -70.45 -7.3 -71.5 -10.2 -73.3 -10.2 -76.9 -10.2 -87.15 -2.3 -91.0 4.7 -94.5 15.0 -91.8 25.2 -89.1 32.35 -82.0 40.15 -74.1 40.15 -64.35 40.15 -57.9 37.75 -51.8 33.5 -41.25 23.7 -41.25 14.1 -41.25 11.15 -49.2 10.15 -51.75 9.9 -55.25 L9.7 -59.3 Q9.15 -63.7 5.9 -66.05" fill="#ffff99" fill-rule="evenodd" stroke="none"/>
  </g>
</svg>
