<?xml version="1.0" encoding="UTF-8" standalone="no"?>
<svg xmlns:ffdec="https://www.free-decompiler.com/flash" xmlns:xlink="http://www.w3.org/1999/xlink" ffdec:objectType="shape" height="296.45px" width="244.9px" xmlns="http://www.w3.org/2000/svg">
  <g transform="matrix(1.0, 0.0, 0.0, 1.0, 122.5, 211.95)">
    <path d="M19.4 -207.5 Q24.1 -205.55 26.4 -200.85 28.15 -197.45 28.15 -193.65 28.15 -190.05 26.9 -186.7 24.75 -180.55 19.3 -180.55 10.45 -180.55 7.35 -187.7 5.8 -191.2 6.05 -194.9 L6.1 -198.4 Q6.35 -200.5 7.2 -201.8 9.35 -204.85 13.3 -206.85 17.3 -208.8 19.4 -207.5 M9.8 -200.25 Q9.2 -198.95 9.0 -197.4 L9.0 -194.9 Q9.0 -191.2 9.95 -188.95 12.25 -183.6 19.15 -183.6 23.0 -183.6 24.45 -188.6 25.2 -191.1 25.2 -193.7 25.2 -196.4 23.75 -199.35 21.95 -203.05 18.8 -204.65 17.3 -205.4 16.6 -205.15 L13.15 -202.8 11.4 -201.65 9.8 -200.25 M43.45 -163.85 L51.65 -163.5 Q58.15 -159.85 60.6 -156.25 62.6 -153.2 62.6 -148.65 62.6 -144.5 61.3 -141.65 58.55 -135.7 51.1 -135.7 47.25 -135.7 44.2 -137.6 45.85 -134.45 45.85 -132.35 45.9 -130.2 45.1 -128.2 43.45 -124.4 39.0 -124.4 34.15 -124.4 31.55 -128.35 29.55 -131.4 29.55 -134.95 29.55 -138.6 30.55 -140.15 32.75 -143.7 39.75 -141.95 36.45 -146.75 36.45 -151.85 L36.65 -155.4 Q34.3 -154.2 31.65 -154.2 24.95 -154.2 20.8 -159.5 17.3 -163.95 17.3 -168.95 17.3 -175.65 21.5 -179.55 25.3 -183.1 30.7 -183.05 36.15 -183.0 39.85 -179.25 44.0 -175.15 44.0 -168.15 44.0 -165.9 43.45 -163.85 M49.55 -161.75 Q45.1 -163.0 42.15 -160.8 L42.1 -160.75 40.15 -158.15 39.9 -157.9 Q38.8 -155.45 38.8 -151.7 38.8 -148.4 41.25 -144.25 44.75 -138.15 51.0 -138.15 57.45 -138.15 59.5 -143.4 60.5 -145.9 60.2 -148.55 60.2 -153.1 56.9 -156.95 53.75 -160.55 49.55 -161.75 M30.7 -179.85 Q26.4 -180.0 23.5 -177.3 20.25 -174.25 20.25 -169.0 20.25 -166.45 22.2 -162.85 25.3 -157.1 31.25 -157.1 35.05 -157.1 37.4 -159.25 38.15 -161.5 39.5 -162.55 L39.85 -162.75 Q40.95 -165.25 41.05 -168.15 41.05 -173.6 37.85 -176.85 34.9 -179.7 30.7 -179.85 M11.85 -148.55 Q11.85 -142.75 15.6 -142.75 18.5 -142.75 19.65 -145.35 20.25 -146.6 20.25 -148.0 20.25 -148.55 18.85 -150.85 L17.15 -153.2 Q13.3 -154.0 12.2 -151.5 L11.85 -148.55 M2.8 -168.55 Q3.45 -166.45 3.45 -164.55 3.45 -155.1 -7.25 -155.1 -16.4 -155.1 -19.35 -160.65 -20.85 -163.45 -20.45 -166.45 -20.45 -168.55 -20.1 -170.2 -19.35 -173.65 -17.35 -173.65 -16.55 -173.65 -15.85 -172.6 -12.2 -176.25 -6.4 -175.65 -1.2 -175.15 0.7 -172.3 2.0 -171.05 2.8 -168.55 M15.35 -156.25 Q19.5 -156.25 21.7 -152.25 23.1 -149.75 23.1 -147.9 23.1 -145.5 22.15 -143.5 20.3 -139.8 15.7 -139.8 11.4 -139.8 9.8 -143.4 L9.8 -143.0 Q9.8 -139.8 8.7 -137.9 6.6 -134.2 0.45 -134.2 -6.65 -134.2 -9.15 -139.95 -10.45 -142.85 -10.35 -146.05 L-10.25 -148.5 -8.8 -151.9 Q-8.7 -152.4 -8.0 -152.9 -7.0 -153.65 -5.45 -154.0 -4.2 -154.25 -3.0 -155.1 L2.35 -154.8 Q7.45 -151.05 8.85 -148.5 L9.0 -148.25 9.0 -148.55 Q9.0 -156.25 15.35 -156.25 M33.7 -139.1 Q31.85 -137.75 31.85 -134.95 31.85 -132.5 32.85 -130.5 34.6 -126.9 38.85 -126.9 42.1 -126.9 43.1 -129.6 43.55 -130.9 43.45 -132.35 43.45 -138.7 37.65 -139.8 35.35 -140.35 33.7 -139.1 M6.65 -140.1 Q7.35 -141.5 6.95 -143.0 6.95 -145.8 6.3 -147.2 5.25 -149.35 2.0 -151.6 -0.4 -153.35 -2.9 -152.05 -4.45 -151.25 -5.25 -149.9 -5.45 -149.6 -6.35 -149.2 -7.15 -148.75 -7.25 -148.1 L-7.4 -146.05 Q-7.4 -143.2 -6.6 -141.35 -4.9 -137.25 0.35 -137.25 5.4 -137.25 6.65 -140.1 M18.6 -106.45 Q23.3 -108.65 28.9 -106.45 34.95 -104.7 37.95 -99.55 40.2 -95.7 40.2 -91.55 40.2 -84.9 36.05 -80.3 32.1 -76.05 26.9 -76.05 21.4 -76.05 17.0 -79.95 13.8 -82.65 12.85 -85.15 12.3 -86.45 11.85 -90.1 11.35 -93.4 11.35 -95.05 L11.55 -99.3 Q11.85 -102.05 13.0 -102.7 L18.6 -106.45 M14.9 -100.9 Q13.9 -100.2 13.7 -97.65 L13.6 -94.2 Q13.6 -86.95 17.4 -82.7 21.0 -78.65 26.8 -78.65 32.3 -78.65 35.45 -83.7 37.9 -87.6 37.9 -91.7 37.9 -95.05 35.8 -98.35 33.25 -102.55 28.55 -104.25 23.8 -106.0 19.65 -104.05 L14.9 -100.9 M66.1 -134.4 Q67.8 -133.35 68.5 -132.5 L71.9 -128.2 Q73.05 -126.3 73.05 -124.1 73.05 -121.3 71.45 -118.4 68.85 -113.75 63.15 -113.75 60.95 -113.75 59.2 -114.3 L60.2 -112.65 61.7 -108.95 61.75 -106.35 Q61.75 -103.5 61.05 -102.05 59.45 -98.65 54.4 -98.65 48.75 -98.65 46.55 -103.7 45.55 -106.2 45.55 -108.85 45.55 -113.05 46.4 -114.45 47.35 -116.15 50.4 -116.15 51.4 -116.15 53.3 -117.2 L54.8 -117.25 54.7 -117.35 Q52.4 -120.35 52.4 -125.0 52.4 -126.75 53.3 -129.85 L54.15 -133.6 Q54.15 -134.75 56.2 -135.75 58.65 -136.95 62.0 -136.3 64.1 -135.7 66.1 -134.4 M68.25 -129.4 Q65.75 -132.2 62.7 -133.35 59.4 -134.55 57.25 -132.9 54.75 -130.8 54.75 -125.0 54.6 -122.55 55.6 -120.35 57.55 -116.15 63.15 -116.15 67.8 -116.15 69.7 -120.0 70.65 -121.95 70.7 -123.95 70.7 -126.55 68.25 -129.4 M52.55 -114.3 L51.0 -113.6 Q49.9 -112.85 48.4 -112.8 47.8 -110.15 47.8 -108.75 47.8 -107.4 48.9 -104.75 50.35 -101.0 52.55 -101.0 57.75 -101.0 59.1 -103.45 59.8 -104.7 59.45 -106.15 59.45 -107.8 58.4 -110.25 57.05 -113.35 55.05 -114.15 L52.55 -114.3 M75.85 -112.8 Q77.9 -110.95 77.9 -108.4 77.9 -106.25 76.9 -104.45 75.15 -101.3 70.9 -101.3 66.85 -101.3 65.4 -104.15 64.9 -105.35 64.9 -107.3 64.9 -115.05 71.4 -114.65 73.95 -114.5 75.85 -112.8 M69.7 -103.65 Q73.55 -103.65 74.95 -106.0 75.6 -107.1 75.55 -108.4 75.55 -111.95 71.4 -112.05 67.2 -112.1 67.2 -107.3 67.2 -106.4 67.65 -105.3 68.4 -103.65 69.7 -103.65 M71.35 -79.75 Q70.15 -81.7 68.5 -81.75 64.25 -81.95 64.25 -72.75 64.25 -70.35 64.5 -69.8 65.25 -67.5 68.15 -67.5 71.1 -67.5 72.2 -71.0 72.75 -72.7 72.65 -74.5 72.65 -77.6 71.35 -79.75 M73.0 -81.5 L74.65 -77.65 Q74.95 -76.8 74.95 -74.6 74.95 -71.5 74.3 -69.6 72.75 -65.1 68.15 -65.1 63.6 -65.1 62.35 -68.9 61.7 -70.8 62.0 -72.85 62.0 -75.6 62.45 -77.25 62.8 -78.85 62.8 -81.4 62.8 -83.5 67.4 -84.0 72.1 -84.45 73.0 -81.5 M56.2 -87.2 Q56.2 -79.85 48.6 -79.85 44.45 -79.85 43.35 -84.45 42.8 -86.75 43.15 -89.15 L43.0 -90.9 Q43.0 -92.2 43.35 -92.95 44.55 -95.2 47.3 -95.5 49.75 -95.85 52.35 -94.55 L55.15 -90.8 Q56.2 -88.95 56.2 -87.2 M45.55 -87.95 L45.75 -84.9 Q46.4 -82.3 48.6 -82.3 52.2 -82.3 53.3 -84.75 53.95 -86.0 53.85 -87.35 53.85 -91.55 49.7 -92.75 45.55 -94.05 45.55 -87.95 M57.05 -76.9 Q61.7 -75.6 61.7 -72.55 61.7 -71.3 60.75 -69.65 59.55 -67.4 57.6 -67.4 54.6 -67.4 54.2 -69.9 53.95 -71.35 54.7 -74.5 L54.55 -74.65 Q54.4 -74.35 53.7 -74.35 52.9 -74.35 52.55 -74.95 L52.35 -75.6 Q52.35 -78.2 57.05 -76.9 M59.25 -72.7 L57.45 -74.65 Q56.75 -74.15 56.55 -73.4 L56.5 -71.9 56.55 -70.55 Q56.7 -69.8 57.45 -69.8 59.0 -69.8 59.25 -72.7 M56.9 -65.1 Q62.3 -64.1 62.3 -57.45 62.3 -56.15 61.5 -54.8 60.2 -52.7 57.45 -52.7 54.85 -52.7 53.4 -54.65 52.35 -55.9 52.35 -57.0 52.3 -58.1 51.85 -59.4 51.5 -60.6 51.5 -60.95 51.5 -63.25 53.2 -64.4 54.75 -65.55 56.9 -65.1 M42.25 -54.5 L42.25 -57.4 Q42.1 -58.25 40.4 -60.45 L37.55 -60.5 Q36.0 -57.65 35.05 -57.65 34.6 -57.65 34.6 -56.3 L34.7 -54.4 Q34.4 -53.2 34.85 -52.2 35.6 -50.25 39.0 -50.25 41.45 -50.25 42.05 -52.2 42.25 -52.75 42.25 -54.5 M44.6 -54.6 Q44.6 -51.85 44.1 -50.75 42.7 -47.8 37.9 -47.8 34.0 -47.8 32.75 -51.0 32.2 -52.55 32.4 -54.25 32.4 -58.4 34.3 -61.05 36.05 -63.45 38.5 -63.75 41.05 -64.0 42.7 -61.7 44.6 -59.3 44.6 -54.6 M57.3 -55.15 Q58.4 -55.15 59.25 -56.0 59.95 -56.8 59.95 -57.45 59.95 -61.15 57.3 -62.6 54.7 -64.0 54.7 -58.6 54.7 -55.15 57.3 -55.15 M2.85 -91.8 Q2.85 -98.25 -2.8 -98.0 -5.1 -97.85 -6.75 -96.5 -8.55 -95.15 -8.55 -93.3 -8.55 -91.5 -7.5 -89.6 -5.8 -86.4 -1.95 -86.4 1.15 -86.4 2.35 -89.05 2.9 -90.4 2.85 -91.8 M4.3 -87.3 Q2.55 -83.9 -1.95 -83.9 -6.2 -83.9 -8.8 -87.35 -10.9 -90.25 -10.9 -93.45 -10.9 -96.2 -8.4 -98.15 -6.0 -100.05 -2.8 -100.2 0.55 -100.35 2.75 -98.35 5.25 -96.05 5.25 -91.65 5.25 -89.15 4.3 -87.3 M19.1 -67.1 Q19.1 -68.7 20.6 -68.7 22.0 -68.6 22.0 -67.1 22.0 -65.4 20.6 -65.4 19.5 -65.4 19.2 -66.25 L19.1 -67.1 M9.55 -60.5 Q9.55 -65.1 13.9 -65.25 18.25 -65.4 18.25 -60.7 18.25 -58.9 17.5 -57.4 16.45 -54.95 14.05 -54.95 11.2 -54.95 10.1 -57.7 9.55 -59.05 9.55 -60.5 M9.8 -57.1 Q10.75 -55.75 10.75 -53.4 10.75 -51.65 9.9 -50.25 8.35 -47.8 4.95 -47.8 0.7 -47.8 -0.55 -51.05 -1.05 -52.3 -1.05 -54.8 -1.05 -57.4 0.3 -59.95 2.25 -63.8 5.95 -61.25 L9.8 -57.1 M3.35 -58.1 Q2.9 -57.25 2.0 -57.0 1.35 -56.6 1.25 -55.6 L1.15 -54.7 Q1.15 -52.75 1.6 -51.9 2.35 -50.25 4.85 -50.25 7.05 -50.25 7.9 -51.75 8.35 -52.65 8.35 -53.5 8.35 -57.0 3.75 -59.2 L3.35 -58.1 M15.9 -60.5 Q15.9 -63.3 13.9 -62.8 11.85 -62.2 11.85 -60.5 11.85 -59.9 12.4 -58.75 13.15 -57.4 14.1 -57.4 15.15 -57.4 15.7 -59.1 L15.9 -60.5 M27.2 -65.75 L27.1 -66.5 Q27.1 -68.15 28.6 -68.3 30.1 -68.5 30.1 -66.8 30.1 -65.1 28.6 -65.1 27.5 -65.1 27.2 -65.75 M24.85 -51.3 Q23.85 -51.3 23.55 -51.95 L23.45 -52.7 Q23.45 -54.35 24.9 -54.65 26.3 -54.95 26.3 -53.1 26.3 -51.3 24.85 -51.3 M23.8 -38.85 Q22.7 -37.0 19.4 -37.0 16.55 -37.0 15.6 -39.6 15.2 -40.85 15.35 -41.8 15.35 -46.75 19.85 -46.3 24.3 -45.85 24.3 -41.4 24.3 -39.75 23.8 -38.85 M22.0 -41.45 Q22.0 -43.35 19.85 -43.85 17.65 -44.4 17.65 -41.8 17.65 -41.05 17.95 -40.35 18.4 -39.45 19.35 -39.45 21.55 -39.45 22.0 -40.4 22.25 -40.9 22.0 -41.45 M1.0 -42.35 Q-0.25 -42.35 -0.25 -43.6 -0.25 -44.75 1.0 -44.85 2.2 -44.95 2.2 -43.65 2.2 -42.35 1.0 -42.35 M3.2 -31.95 Q3.05 -32.4 3.2 -32.95 3.2 -35.05 5.0 -34.7 6.85 -34.35 6.85 -32.95 6.85 -32.05 6.15 -31.5 5.55 -31.0 4.85 -31.0 3.55 -31.0 3.2 -31.95 M48.9 -47.85 Q48.9 -49.15 47.8 -50.1 46.6 -51.1 46.6 -48.3 L46.8 -46.6 46.7 -46.5 Q46.7 -46.35 47.1 -46.35 48.95 -46.35 48.9 -47.85 M44.3 -48.35 Q44.3 -53.2 47.7 -52.55 51.1 -51.9 51.1 -47.8 51.1 -46.75 50.4 -45.65 49.3 -43.95 47.15 -43.95 44.9 -43.95 44.35 -46.3 44.1 -47.45 44.3 -48.35 M5.55 -196.9 Q5.55 -187.7 -1.2 -182.25 -7.0 -177.65 -14.65 -177.65 -25.7 -177.65 -30.35 -184.8 -32.9 -188.7 -32.9 -193.0 -32.9 -206.85 -19.95 -210.8 -8.25 -214.5 0.8 -206.15 5.55 -202.9 5.55 -196.9 M-20.15 -207.5 Q-25.9 -203.1 -27.85 -200.05 -29.95 -197.0 -29.95 -192.95 -29.95 -185.85 -24.45 -182.75 -20.7 -180.65 -14.7 -180.65 -6.0 -180.65 -1.35 -185.85 2.65 -190.3 2.65 -196.95 2.65 -201.25 -1.6 -204.85 -7.85 -210.1 -20.15 -207.5 M-29.95 -180.0 Q-34.35 -184.85 -42.95 -182.35 -45.95 -180.7 -48.2 -176.5 -50.3 -172.7 -50.3 -169.9 L-50.15 -167.9 -48.65 -165.15 Q-48.4 -163.65 -47.4 -162.75 -45.7 -161.0 -40.55 -161.0 -32.65 -161.0 -29.1 -166.75 -27.1 -170.1 -27.1 -173.5 -27.1 -176.85 -29.95 -180.0 M-25.45 -177.55 Q-24.25 -175.05 -24.25 -173.65 -24.25 -169.3 -26.6 -165.15 -30.8 -157.95 -40.55 -157.95 -46.75 -157.95 -50.1 -161.65 -53.15 -164.85 -53.15 -170.05 -53.15 -173.95 -50.7 -178.3 -47.9 -183.2 -43.45 -185.4 L-40.65 -186.25 -37.9 -186.65 Q-36.35 -186.9 -34.55 -186.25 L-32.3 -185.4 -28.0 -181.45 Q-26.65 -179.9 -25.45 -177.55 M-25.95 -153.7 Q-23.6 -149.2 -23.6 -147.15 -23.6 -144.95 -25.1 -142.15 -27.45 -137.7 -32.35 -137.7 -36.8 -137.7 -40.0 -140.75 -43.05 -143.7 -43.05 -147.3 -43.05 -149.75 -42.25 -151.9 -40.75 -155.85 -37.15 -155.85 L-34.55 -157.3 Q-32.85 -158.4 -29.95 -156.8 -26.95 -155.45 -25.95 -153.7 M-29.55 -153.15 Q-32.15 -155.5 -34.75 -153.5 -37.6 -151.25 -38.75 -151.85 L-39.6 -149.65 -40.2 -147.3 Q-40.2 -145.45 -38.8 -143.55 -36.7 -140.75 -32.45 -140.75 -28.95 -140.75 -27.4 -143.95 -26.6 -145.55 -26.55 -147.3 -26.55 -148.0 -27.75 -150.3 -29.0 -152.65 -29.55 -153.15 M-3.15 -171.6 Q-9.25 -175.1 -12.95 -171.05 L-14.2 -169.1 Q-15.15 -167.7 -16.15 -167.7 L-16.9 -167.9 -17.35 -168.35 -17.65 -166.45 Q-17.65 -163.3 -16.7 -161.75 -14.35 -158.05 -7.3 -158.05 0.55 -158.05 0.55 -164.55 0.55 -166.35 -0.4 -168.35 -1.5 -170.6 -3.15 -171.6 M-64.95 -159.85 L-61.85 -161.55 -54.65 -161.9 -51.0 -160.25 -48.05 -158.3 Q-46.0 -156.3 -45.15 -154.25 -44.5 -152.5 -44.5 -150.3 -44.5 -143.25 -50.05 -137.95 -55.2 -133.05 -60.75 -133.05 -69.2 -133.05 -71.7 -138.35 -73.0 -141.05 -72.55 -144.1 -72.55 -149.2 -71.5 -152.45 -69.75 -158.05 -64.95 -159.85 M-67.85 -153.7 Q-68.75 -152.5 -69.1 -150.45 -69.65 -148.3 -69.65 -144.25 -69.65 -140.8 -69.0 -139.6 -67.25 -136.1 -60.85 -136.1 -53.65 -136.1 -49.2 -143.15 -48.85 -143.6 -48.1 -146.45 -47.35 -149.4 -47.35 -150.2 -47.35 -151.7 -48.05 -153.5 -48.95 -155.7 -50.4 -156.6 -52.6 -157.95 -56.7 -159.3 L-61.1 -159.15 -64.4 -156.6 -66.25 -155.0 -67.85 -153.7 M-60.05 -125.75 Q-60.05 -121.4 -56.75 -121.4 -53.85 -121.4 -53.0 -123.25 -52.65 -124.15 -52.85 -125.25 -52.85 -129.85 -56.45 -129.9 -60.05 -129.9 -60.05 -125.75 M-50.6 -125.3 Q-50.6 -122.55 -51.0 -121.65 -52.25 -118.9 -56.75 -118.9 -60.65 -118.9 -61.85 -122.4 -62.5 -124.15 -62.3 -125.8 -62.3 -128.85 -60.45 -130.7 -58.8 -132.35 -56.45 -132.25 -54.1 -132.2 -52.45 -130.5 -50.6 -128.55 -50.6 -125.3 M-63.9 -128.2 Q-62.0 -124.9 -62.0 -120.8 -62.0 -116.75 -63.1 -114.45 -65.65 -109.15 -73.15 -109.15 -78.05 -109.15 -81.9 -113.95 -85.25 -118.1 -85.25 -121.75 -85.25 -123.7 -82.5 -128.5 -79.25 -134.3 -75.75 -134.3 -67.35 -134.3 -63.9 -128.2 M-79.95 -126.95 L-82.15 -124.2 Q-82.95 -123.0 -82.95 -121.85 -82.95 -120.45 -82.25 -119.1 L-80.55 -116.2 Q-80.2 -114.85 -79.25 -113.75 -77.3 -111.55 -73.15 -111.55 -66.95 -111.55 -65.0 -116.2 -64.05 -118.55 -64.3 -120.9 -64.3 -124.9 -65.45 -126.9 -67.5 -130.3 -73.65 -131.7 -76.05 -132.25 -77.85 -130.05 L-79.95 -126.95 M-68.75 -99.5 Q-68.75 -95.7 -65.55 -93.0 -62.65 -90.7 -59.8 -90.7 -54.45 -90.7 -52.85 -94.0 -52.05 -95.65 -52.3 -97.55 -52.3 -106.25 -60.55 -105.7 -63.7 -105.45 -66.2 -103.7 -68.75 -101.85 -68.75 -99.5 M-67.8 -105.45 Q-64.7 -107.85 -60.55 -108.15 -56.15 -108.5 -53.3 -106.1 -49.95 -103.35 -49.95 -97.6 -49.95 -94.5 -50.7 -92.75 -52.55 -88.4 -58.1 -88.4 -63.95 -88.4 -67.65 -91.9 -71.1 -95.1 -71.1 -99.5 -71.1 -102.85 -67.8 -105.45 M-33.1 -124.95 Q-35.75 -122.75 -35.75 -117.75 -35.75 -114.15 -35.15 -112.65 -33.4 -108.35 -27.15 -108.35 -21.95 -108.35 -19.9 -111.55 -18.85 -113.15 -18.85 -115.0 -18.85 -119.0 -21.5 -122.2 -23.9 -125.15 -27.3 -126.0 -30.75 -126.85 -33.1 -124.95 M-22.6 -126.55 Q-16.5 -121.95 -16.5 -115.0 -16.5 -112.1 -18.05 -109.85 -20.75 -105.9 -27.15 -105.9 -34.2 -105.9 -36.9 -110.95 -38.7 -114.3 -38.7 -120.45 -38.7 -123.35 -34.75 -126.65 -29.55 -131.0 -22.6 -126.55 M-40.0 -101.5 Q-42.15 -100.05 -42.15 -96.5 -41.95 -93.85 -41.15 -91.45 -39.45 -86.55 -36.05 -86.55 -32.1 -86.55 -30.65 -87.3 -28.6 -88.3 -28.6 -91.45 -28.6 -95.4 -30.75 -98.35 -32.65 -101.0 -35.4 -101.95 -38.15 -102.8 -40.0 -101.5 M-30.45 -101.95 Q-28.7 -100.05 -27.4 -96.75 -26.25 -93.65 -26.25 -91.35 -26.1 -89.3 -27.1 -87.6 -28.95 -84.2 -34.1 -84.2 -40.3 -84.2 -42.95 -89.6 -44.8 -93.3 -44.8 -98.95 -44.8 -101.85 -39.8 -104.0 -34.2 -106.4 -30.45 -101.95 M-27.05 -51.95 Q-25.45 -51.45 -25.45 -49.45 -25.45 -48.9 -25.8 -48.3 -26.3 -47.5 -27.05 -47.5 -28.3 -47.5 -28.6 -48.7 L-28.6 -49.9 Q-28.6 -52.5 -27.05 -51.95 M-14.1 -67.65 Q-14.1 -69.25 -12.3 -69.1 -10.6 -69.0 -10.6 -67.45 -10.6 -66.1 -12.2 -66.1 -13.6 -66.1 -13.95 -66.85 L-14.1 -67.65 M-14.7 -57.65 Q-12.95 -57.9 -12.95 -55.75 -12.95 -55.05 -13.35 -54.4 -13.85 -53.6 -14.75 -53.6 -16.05 -53.6 -16.35 -54.35 L-16.5 -55.2 Q-16.5 -57.4 -14.7 -57.65 M-73.85 -83.8 Q-72.9 -83.9 -71.25 -84.8 L-66.65 -84.45 Q-61.85 -82.5 -60.25 -79.05 -59.2 -77.0 -59.2 -73.3 -59.2 -70.7 -60.75 -68.6 -63.15 -65.4 -68.65 -65.4 -74.95 -65.4 -77.8 -70.9 -79.25 -73.7 -79.45 -76.7 L-79.25 -79.3 Q-78.85 -80.7 -77.6 -82.35 -77.05 -83.2 -75.9 -83.5 L-73.85 -83.8 M-77.15 -76.7 Q-76.75 -74.3 -75.8 -72.1 -73.85 -67.75 -70.55 -67.75 -64.45 -67.75 -62.4 -70.5 -61.4 -71.9 -61.55 -73.4 -61.55 -76.15 -62.25 -77.65 -63.15 -79.75 -65.85 -81.55 -69.75 -84.1 -73.8 -81.15 -77.15 -78.65 -77.15 -76.7 M-44.7 -63.05 Q-45.8 -63.05 -46.0 -64.3 L-46.0 -65.3 Q-46.0 -67.85 -44.5 -67.35 -43.05 -66.8 -43.05 -65.1 -43.05 -63.05 -44.7 -63.05 M-51.7 -55.2 Q-51.7 -58.1 -54.45 -58.4 -57.15 -58.75 -57.15 -56.05 -57.15 -54.75 -56.7 -53.7 -55.95 -52.2 -54.45 -52.2 -52.45 -52.2 -51.9 -53.65 -51.55 -54.4 -51.7 -55.2 M-54.55 -60.6 Q-49.4 -59.4 -49.4 -55.25 -49.4 -53.5 -49.95 -52.2 -51.2 -49.75 -54.45 -49.75 -58.15 -49.75 -59.35 -54.1 -59.9 -56.3 -59.8 -58.5 -59.8 -61.8 -54.55 -60.6" fill="#2f2f2f" fill-rule="evenodd" stroke="none"/>
    <path d="M9.8 -200.25 L11.4 -201.65 13.15 -202.8 16.6 -205.15 Q17.3 -205.4 18.8 -204.65 21.95 -203.05 23.75 -199.35 25.2 -196.4 25.2 -193.7 25.2 -191.1 24.45 -188.6 23.0 -183.6 19.15 -183.6 12.25 -183.6 9.95 -188.95 9.0 -191.2 9.0 -194.9 L9.0 -197.4 Q9.2 -198.95 9.8 -200.25 M11.85 -148.55 L12.2 -151.5 Q13.3 -154.0 17.15 -153.2 L18.85 -150.85 Q20.25 -148.55 20.25 -148.0 20.25 -146.6 19.65 -145.35 18.5 -142.75 15.6 -142.75 11.85 -142.75 11.85 -148.55 M30.7 -179.85 Q34.9 -179.7 37.85 -176.85 41.05 -173.6 41.05 -168.15 40.95 -165.25 39.85 -162.75 L39.5 -162.55 Q38.15 -161.5 37.4 -159.25 35.05 -157.1 31.25 -157.1 25.3 -157.1 22.2 -162.85 20.25 -166.45 20.25 -169.0 20.25 -174.25 23.5 -177.3 26.4 -180.0 30.7 -179.85 M49.55 -161.75 Q53.75 -160.55 56.9 -156.95 60.2 -153.1 60.2 -148.55 60.5 -145.9 59.5 -143.4 57.45 -138.15 51.0 -138.15 44.75 -138.15 41.25 -144.25 38.8 -148.4 38.8 -151.7 38.8 -155.45 39.9 -157.9 L40.15 -158.15 42.1 -160.75 42.15 -160.8 Q45.1 -163.0 49.55 -161.75 M6.65 -140.1 Q5.4 -137.25 0.35 -137.25 -4.9 -137.25 -6.6 -141.35 -7.4 -143.2 -7.4 -146.05 L-7.25 -148.1 Q-7.15 -148.75 -6.35 -149.2 -5.45 -149.6 -5.25 -149.9 -4.45 -151.25 -2.9 -152.05 -0.4 -153.35 2.0 -151.6 5.25 -149.35 6.3 -147.2 6.95 -145.8 6.95 -143.0 7.35 -141.5 6.65 -140.1 M33.7 -139.1 Q35.35 -140.35 37.65 -139.8 43.45 -138.7 43.45 -132.35 43.55 -130.9 43.1 -129.6 42.1 -126.9 38.85 -126.9 34.6 -126.9 32.85 -130.5 31.85 -132.5 31.85 -134.95 31.85 -137.75 33.7 -139.1 M14.9 -100.9 L19.65 -104.05 Q23.8 -106.0 28.55 -104.25 33.25 -102.55 35.8 -98.35 37.9 -95.05 37.9 -91.7 37.9 -87.6 35.45 -83.7 32.3 -78.65 26.8 -78.65 21.0 -78.65 17.4 -82.7 13.6 -86.95 13.6 -94.2 L13.7 -97.65 Q13.9 -100.2 14.9 -100.9 M52.55 -114.3 L55.05 -114.15 Q57.05 -113.35 58.4 -110.25 59.45 -107.8 59.45 -106.15 59.8 -104.7 59.1 -103.45 57.75 -101.0 52.55 -101.0 50.35 -101.0 48.9 -104.75 47.8 -107.4 47.8 -108.75 47.8 -110.15 48.4 -112.8 49.9 -112.85 51.0 -113.6 L52.55 -114.3 M68.25 -129.4 Q70.7 -126.55 70.7 -123.95 70.65 -121.95 69.7 -120.0 67.8 -116.15 63.15 -116.15 57.55 -116.15 55.6 -120.35 54.6 -122.55 54.75 -125.0 54.75 -130.8 57.25 -132.9 59.4 -134.55 62.7 -133.35 65.75 -132.2 68.25 -129.4 M71.35 -79.75 Q72.65 -77.6 72.65 -74.5 72.75 -72.7 72.2 -71.0 71.1 -67.5 68.15 -67.5 65.25 -67.5 64.5 -69.8 64.25 -70.35 64.25 -72.75 64.25 -81.95 68.5 -81.75 70.15 -81.7 71.35 -79.75 M69.7 -103.65 Q68.4 -103.65 67.65 -105.3 67.2 -106.4 67.2 -107.3 67.2 -112.1 71.4 -112.05 75.55 -111.95 75.55 -108.4 75.6 -107.1 74.95 -106.0 73.55 -103.65 69.7 -103.65 M45.55 -87.95 Q45.55 -94.05 49.7 -92.75 53.85 -91.55 53.85 -87.35 53.95 -86.0 53.3 -84.75 52.2 -82.3 48.6 -82.3 46.4 -82.3 45.75 -84.9 L45.55 -87.95 M59.25 -72.7 Q59.0 -69.8 57.45 -69.8 56.7 -69.8 56.55 -70.55 L56.5 -71.9 56.55 -73.4 Q56.75 -74.15 57.45 -74.65 L59.25 -72.7 M42.25 -54.5 Q42.25 -52.75 42.05 -52.2 41.45 -50.25 39.0 -50.25 35.6 -50.25 34.85 -52.2 34.4 -53.2 34.7 -54.4 L34.6 -56.3 Q34.6 -57.65 35.05 -57.65 36.0 -57.65 37.55 -60.5 L40.4 -60.45 Q42.1 -58.25 42.25 -57.4 L42.25 -54.5 M2.85 -91.8 Q2.9 -90.4 2.35 -89.05 1.15 -86.4 -1.95 -86.4 -5.8 -86.4 -7.5 -89.6 -8.55 -91.5 -8.55 -93.3 -8.55 -95.15 -6.75 -96.5 -5.1 -97.85 -2.8 -98.0 2.85 -98.25 2.85 -91.8 M57.3 -55.15 Q54.7 -55.15 54.7 -58.6 54.7 -64.0 57.3 -62.6 59.95 -61.15 59.95 -57.45 59.95 -56.8 59.25 -56.0 58.4 -55.15 57.3 -55.15 M15.9 -60.5 L15.7 -59.1 Q15.15 -57.4 14.1 -57.4 13.15 -57.4 12.4 -58.75 11.85 -59.9 11.85 -60.5 11.85 -62.2 13.9 -62.8 15.9 -63.3 15.9 -60.5 M3.35 -58.1 L3.75 -59.2 Q8.35 -57.0 8.35 -53.5 8.35 -52.65 7.9 -51.75 7.05 -50.25 4.85 -50.25 2.35 -50.25 1.6 -51.9 1.15 -52.75 1.15 -54.7 L1.25 -55.6 Q1.35 -56.6 2.0 -57.0 2.9 -57.25 3.35 -58.1 M22.0 -41.45 Q22.25 -40.9 22.0 -40.4 21.55 -39.45 19.35 -39.45 18.4 -39.45 17.95 -40.35 17.65 -41.05 17.65 -41.8 17.65 -44.4 19.85 -43.85 22.0 -43.35 22.0 -41.45 M48.9 -47.85 Q48.95 -46.35 47.1 -46.35 46.7 -46.35 46.7 -46.5 L46.8 -46.6 46.6 -48.3 Q46.6 -51.1 47.8 -50.1 48.9 -49.15 48.9 -47.85 M-29.95 -180.0 Q-27.1 -176.85 -27.1 -173.5 -27.1 -170.1 -29.1 -166.75 -32.65 -161.0 -40.55 -161.0 -45.7 -161.0 -47.4 -162.75 -48.4 -163.65 -48.65 -165.15 L-50.15 -167.9 -50.3 -169.9 Q-50.3 -172.7 -48.2 -176.5 -45.95 -180.7 -42.95 -182.35 -34.35 -184.85 -29.95 -180.0 M-20.15 -207.5 Q-7.85 -210.1 -1.6 -204.85 2.65 -201.25 2.65 -196.95 2.65 -190.3 -1.35 -185.85 -6.0 -180.65 -14.7 -180.65 -20.7 -180.65 -24.45 -182.75 -29.95 -185.85 -29.95 -192.95 -29.95 -197.0 -27.85 -200.05 -25.9 -203.1 -20.15 -207.5 M-3.15 -171.6 Q-1.5 -170.6 -0.4 -168.35 0.55 -166.35 0.55 -164.55 0.55 -158.05 -7.3 -158.05 -14.35 -158.05 -16.7 -161.75 -17.65 -163.3 -17.65 -166.45 L-17.35 -168.35 -16.9 -167.9 -16.15 -167.7 Q-15.15 -167.7 -14.2 -169.1 L-12.95 -171.05 Q-9.25 -175.1 -3.15 -171.6 M-29.55 -153.15 Q-29.0 -152.65 -27.75 -150.3 -26.55 -148.0 -26.55 -147.3 -26.6 -145.55 -27.4 -143.95 -28.95 -140.75 -32.45 -140.75 -36.7 -140.75 -38.8 -143.55 -40.2 -145.45 -40.2 -147.3 L-39.6 -149.65 -38.75 -151.85 Q-37.6 -151.25 -34.75 -153.5 -32.15 -155.5 -29.55 -153.15 M-60.05 -125.75 Q-60.05 -129.9 -56.45 -129.9 -52.85 -129.85 -52.85 -125.25 -52.65 -124.15 -53.0 -123.25 -53.85 -121.4 -56.75 -121.4 -60.05 -121.4 -60.05 -125.75 M-67.85 -153.7 L-66.25 -155.0 -64.4 -156.6 -61.1 -159.15 -56.7 -159.3 Q-52.6 -157.95 -50.4 -156.6 -48.95 -155.7 -48.05 -153.5 -47.35 -151.7 -47.35 -150.2 -47.35 -149.4 -48.1 -146.45 -48.85 -143.6 -49.2 -143.15 -53.65 -136.1 -60.85 -136.1 -67.25 -136.1 -69.0 -139.6 -69.65 -140.8 -69.65 -144.25 -69.65 -148.3 -69.1 -150.45 -68.75 -152.5 -67.85 -153.7 M-68.75 -99.5 Q-68.75 -101.85 -66.2 -103.7 -63.7 -105.45 -60.55 -105.7 -52.3 -106.25 -52.3 -97.55 -52.05 -95.65 -52.85 -94.0 -54.45 -90.7 -59.8 -90.7 -62.65 -90.7 -65.55 -93.0 -68.75 -95.7 -68.75 -99.5 M-79.95 -126.95 L-77.85 -130.05 Q-76.05 -132.25 -73.65 -131.7 -67.5 -130.3 -65.45 -126.9 -64.3 -124.9 -64.3 -120.9 -64.05 -118.55 -65.0 -116.2 -66.95 -111.55 -73.15 -111.55 -77.3 -111.55 -79.25 -113.75 -80.2 -114.85 -80.55 -116.2 L-82.25 -119.1 Q-82.95 -120.45 -82.95 -121.85 -82.95 -123.0 -82.15 -124.2 L-79.95 -126.95 M-33.1 -124.95 Q-30.75 -126.85 -27.3 -126.0 -23.9 -125.15 -21.5 -122.2 -18.85 -119.0 -18.85 -115.0 -18.85 -113.15 -19.9 -111.55 -21.95 -108.35 -27.15 -108.35 -33.4 -108.35 -35.15 -112.65 -35.75 -114.15 -35.75 -117.75 -35.75 -122.75 -33.1 -124.95 M-40.0 -101.5 Q-38.15 -102.8 -35.4 -101.95 -32.65 -101.0 -30.75 -98.35 -28.6 -95.4 -28.6 -91.45 -28.6 -88.3 -30.65 -87.3 -32.1 -86.55 -36.05 -86.55 -39.45 -86.55 -41.15 -91.45 -41.95 -93.85 -42.15 -96.5 -42.15 -100.05 -40.0 -101.5 M-77.15 -76.7 Q-77.15 -78.65 -73.8 -81.15 -69.75 -84.1 -65.85 -81.55 -63.15 -79.75 -62.25 -77.65 -61.55 -76.15 -61.55 -73.4 -61.4 -71.9 -62.4 -70.5 -64.45 -67.75 -70.55 -67.75 -73.85 -67.75 -75.8 -72.1 -76.75 -74.3 -77.15 -76.7 M-51.7 -55.2 Q-51.55 -54.4 -51.9 -53.65 -52.45 -52.2 -54.45 -52.2 -55.95 -52.2 -56.7 -53.7 -57.15 -54.75 -57.15 -56.05 -57.15 -58.75 -54.45 -58.4 -51.7 -58.1 -51.7 -55.2" fill="#444444" fill-rule="evenodd" stroke="none"/>
    <path d="M61.75 -70.85 Q62.45 -71.55 64.05 -71.4 66.85 -71.2 69.45 -69.05 71.8 -67.1 74.3 -63.6 76.05 -61.15 76.9 -58.1 77.7 -55.25 77.45 -52.65 L77.55 -52.55 78.8 -53.4 Q80.2 -54.1 81.7 -54.1 91.1 -54.1 95.0 -39.95 L96.8 -41.15 Q98.7 -42.25 100.1 -42.25 102.65 -42.25 104.6 -40.7 106.05 -39.6 106.35 -38.6 L106.5 -38.6 106.7 -40.5 Q106.7 -43.05 105.3 -45.65 103.0 -50.05 98.1 -50.05 L95.1 -49.45 Q94.8 -49.55 94.8 -49.95 94.8 -50.6 95.85 -51.05 L95.4 -52.0 94.7 -54.3 93.6 -56.35 91.95 -58.35 Q88.45 -61.35 87.35 -61.9 84.1 -63.45 77.5 -63.45 76.95 -63.45 76.95 -64.0 L77.05 -64.4 74.8 -69.8 Q72.1 -75.7 67.35 -75.7 L63.75 -75.25 Q62.45 -74.75 61.45 -74.75 L61.4 -74.75 Q60.6 -74.75 60.6 -75.5 60.6 -76.65 63.3 -77.25 L69.75 -76.9 Q71.2 -76.5 72.4 -75.55 L74.55 -73.5 Q75.35 -72.75 75.95 -71.45 L76.8 -69.3 77.4 -67.35 77.9 -65.25 77.9 -65.05 Q79.9 -65.75 86.0 -64.25 86.95 -64.2 88.95 -62.75 L92.0 -60.55 Q93.35 -59.75 95.55 -55.95 97.4 -52.75 97.65 -51.6 L98.5 -51.65 Q104.2 -51.65 106.7 -46.4 108.15 -43.45 108.15 -40.4 107.45 -34.55 106.7 -34.55 106.1 -34.55 105.8 -35.45 L105.3 -37.45 Q104.3 -40.35 100.2 -40.35 98.1 -40.35 96.2 -38.3 L94.25 -36.3 Q94.0 -36.3 93.55 -38.8 93.0 -42.1 91.5 -44.8 90.9 -46.65 89.35 -48.5 86.3 -52.15 81.65 -52.15 79.35 -52.15 78.0 -50.6 L76.45 -49.05 Q75.85 -49.05 75.65 -49.55 L75.6 -50.1 76.05 -53.6 Q76.05 -59.65 71.35 -64.85 67.2 -69.45 63.95 -69.45 62.95 -69.45 62.45 -68.95 L61.8 -68.5 61.4 -68.75 61.3 -69.05 61.25 -69.55 Q61.25 -70.45 61.75 -70.85 M109.25 -31.25 Q109.05 -31.0 109.0 -30.5 L108.9 -29.7 109.8 -29.25 110.55 -29.45 110.7 -30.3 Q110.7 -30.7 110.2 -31.1 109.7 -31.6 109.25 -31.25 M103.95 -32.95 Q103.95 -30.25 101.75 -30.25 100.45 -30.25 99.8 -31.25 99.45 -31.8 99.45 -32.35 99.45 -36.15 101.7 -35.85 103.95 -35.5 103.95 -32.95 M102.6 -32.85 Q102.6 -33.8 101.7 -33.8 100.8 -33.9 100.8 -32.65 100.8 -31.9 101.4 -31.9 102.45 -31.9 102.6 -32.4 L102.6 -32.85 M108.1 -28.5 Q107.7 -29.1 107.7 -29.65 107.7 -33.2 109.8 -32.85 111.9 -32.6 111.9 -30.4 111.9 -27.5 110.1 -27.5 108.7 -27.5 108.1 -28.5 M115.1 -3.15 L115.0 -3.5 114.95 -4.4 Q114.95 -5.0 115.85 -7.15 116.7 -9.25 116.7 -10.5 116.7 -12.45 116.15 -15.7 115.95 -17.4 115.1 -19.05 L114.3 -20.8 Q114.3 -22.3 115.8 -21.6 L117.75 -20.4 Q118.6 -20.4 119.7 -18.95 120.85 -17.3 121.55 -15.5 121.85 -14.8 122.15 -12.1 L122.4 -9.05 Q122.4 -6.4 120.9 -3.85 119.9 -2.1 118.85 -1.55 L120.0 0.65 120.45 3.5 120.45 5.3 120.4 7.7 Q120.2 9.15 119.65 9.5 120.4 10.5 120.9 12.0 122.0 15.5 122.0 18.65 122.0 21.0 121.4 22.85 120.75 24.9 119.1 26.95 118.2 28.75 116.35 30.45 112.7 33.65 107.5 33.65 L105.45 33.55 105.4 33.8 105.95 35.95 105.95 38.25 Q105.95 43.1 103.1 46.65 100.45 50.05 97.55 50.05 97.0 50.05 95.45 49.15 L93.9 48.0 Q93.9 47.7 96.25 46.2 L99.0 44.3 Q100.65 42.55 101.55 39.85 102.55 36.55 102.45 34.95 L102.3 33.55 102.5 33.8 102.6 31.2 Q102.6 29.15 103.8 28.8 104.75 28.55 104.95 29.3 L106.3 28.95 Q109.75 28.1 111.15 26.75 113.65 24.3 114.6 22.55 115.35 21.1 116.1 18.45 116.85 15.75 116.85 14.3 116.85 12.45 115.7 10.3 L115.0 9.0 Q114.5 9.0 114.3 8.5 L114.2 7.95 Q114.2 7.45 114.55 5.95 114.9 4.3 114.9 2.4 L114.35 -2.55 Q114.35 -3.3 114.95 -3.1 115.55 -2.85 115.55 -2.2 L116.15 3.55 115.85 6.85 115.95 6.85 Q115.8 7.35 115.8 7.95 L116.0 9.15 Q116.3 10.1 117.3 10.25 118.2 12.25 118.2 14.2 118.2 21.8 113.7 26.65 109.85 30.8 105.6 30.8 L105.25 30.8 104.9 30.25 104.7 30.3 103.65 30.6 103.7 33.4 103.6 34.3 103.65 34.3 Q103.3 39.05 102.6 40.95 101.2 44.9 96.8 47.8 L96.85 48.0 97.2 48.15 Q98.8 48.15 101.05 46.15 102.95 44.45 103.55 43.3 L104.15 40.8 104.55 38.25 104.25 35.85 103.85 34.3 104.3 34.2 Q104.3 32.8 105.3 31.9 L105.45 31.8 105.4 31.4 107.55 31.8 Q112.2 31.8 116.35 27.75 120.6 23.55 120.6 18.6 120.6 15.5 119.55 12.8 118.95 11.3 117.95 10.15 119.1 9.9 119.1 8.0 L119.0 6.75 119.1 4.9 Q119.1 2.55 118.2 0.45 L117.45 -1.4 117.1 -1.75 117.05 -2.2 119.05 -4.25 Q121.05 -6.75 121.05 -9.05 121.05 -15.95 118.05 -18.95 L116.7 -19.35 117.5 -14.6 118.05 -10.65 Q118.05 -9.35 117.1 -6.05 116.1 -2.75 115.65 -2.75 L115.1 -3.15 M89.55 45.35 Q90.15 46.05 90.65 49.85 L90.6 50.4 90.9 52.6 Q90.9 54.7 89.95 56.8 88.5 59.85 85.5 59.85 83.15 59.85 82.2 58.8 L82.05 58.6 Q81.45 58.4 81.45 57.65 81.45 57.25 83.2 56.45 L85.5 55.1 Q87.8 52.6 88.1 51.8 88.55 50.8 88.85 48.5 L89.55 45.35 M87.8 54.95 Q86.55 56.9 85.2 57.85 L85.5 57.85 Q87.8 57.85 88.75 56.3 89.25 55.5 89.4 54.4 L89.65 52.6 89.55 51.5 87.8 54.95 M33.9 71.3 Q33.9 70.0 34.95 68.95 36.3 67.75 38.1 68.75 40.15 69.55 40.9 70.65 41.4 71.45 41.4 72.8 L41.2 74.6 Q40.7 75.85 38.9 75.85 36.4 75.85 34.9 73.75 33.9 72.25 33.9 71.3 M38.2 70.05 Q35.95 68.95 34.95 71.6 L36.0 73.3 Q36.9 74.3 37.8 74.3 39.7 74.3 40.2 73.55 L40.35 72.8 Q40.35 71.1 38.2 70.05 M22.25 72.8 Q22.65 74.9 22.65 76.65 22.65 78.6 21.3 80.9 19.15 84.5 15.0 84.5 12.0 84.5 9.0 81.7 8.4 81.0 8.3 79.95 L8.25 78.0 Q8.25 75.45 8.75 75.45 L9.6 75.95 Q10.35 76.45 12.75 76.45 16.4 76.45 18.15 75.05 L19.35 73.4 Q19.7 73.0 20.05 71.25 20.35 70.0 21.0 70.2 21.75 70.4 22.25 72.8 M12.75 78.05 L9.35 77.65 9.35 79.45 Q9.8 80.7 11.35 81.85 12.9 82.9 14.0 82.9 18.45 82.9 20.4 80.1 21.5 78.45 21.5 76.65 21.5 74.4 21.0 73.2 20.4 74.9 18.7 76.15 16.3 78.05 12.75 78.05 M3.1 75.1 Q1.8 74.4 1.8 75.65 L1.65 75.95 Q1.5 76.05 1.5 76.25 1.5 78.25 3.35 78.25 4.15 78.25 4.3 77.65 L4.35 76.8 Q4.35 75.85 3.1 75.1 M0.3 75.25 Q0.3 72.8 2.95 73.5 5.55 74.15 5.55 76.9 5.55 79.9 3.4 79.9 1.1 79.9 0.45 77.6 L0.3 75.25 M73.8 58.4 Q73.8 62.3 72.4 65.35 69.55 71.45 62.0 71.45 L59.05 71.2 56.15 69.35 54.45 68.35 Q53.9 68.0 53.9 67.35 L54.45 66.75 55.05 66.35 55.4 66.75 Q55.6 67.15 56.75 67.15 60.65 67.15 64.9 64.4 67.7 62.65 68.9 61.1 L71.4 57.25 Q72.6 55.3 73.3 56.45 73.8 57.2 73.8 58.4 M69.15 67.4 Q71.45 65.0 72.45 58.2 70.9 61.75 67.9 64.45 63.95 67.95 58.35 68.95 L59.05 69.45 61.95 69.65 Q67.0 69.65 69.15 67.4 M49.25 72.2 L50.7 70.65 51.0 69.3 51.0 67.75 Q51.0 66.55 52.0 66.6 52.95 66.75 53.55 67.6 L54.25 69.35 54.3 70.8 Q54.3 72.75 53.65 74.2 52.4 77.05 49.2 77.05 47.55 77.05 46.5 75.7 L45.75 74.35 Q45.75 73.4 46.7 73.4 47.75 73.4 49.25 72.2 M51.45 71.85 Q50.05 73.9 47.4 74.9 47.65 75.05 47.55 75.3 L49.2 75.45 Q51.65 75.45 52.6 73.3 53.15 72.15 53.15 70.85 53.15 69.15 52.35 68.2 L52.35 68.35 Q52.75 70.0 51.45 71.85 M-81.4 -68.9 L-78.45 -68.5 Q-78.05 -68.35 -77.8 -68.0 -75.9 -66.7 -72.8 -63.5 L-70.95 -61.65 Q-70.95 -60.75 -71.85 -60.75 L-75.55 -61.35 -75.65 -61.35 -77.9 -61.7 -81.05 -61.85 -81.05 -61.9 Q-84.25 -61.4 -87.0 -58.45 -90.3 -54.95 -90.3 -51.05 -90.3 -49.65 -89.6 -47.55 L-88.95 -45.65 Q-88.95 -44.65 -89.7 -44.65 -92.45 -44.65 -94.65 -49.05 -96.45 -52.65 -96.45 -55.3 -96.45 -59.2 -93.15 -64.0 -90.3 -68.1 -83.75 -68.75 L-81.4 -68.9 M-93.85 -50.9 Q-92.5 -48.2 -91.1 -47.3 L-91.05 -47.2 -91.05 -47.5 -91.5 -51.0 Q-91.5 -56.9 -86.9 -60.75 -83.2 -63.85 -79.8 -63.85 L-76.95 -63.6 -74.75 -63.4 Q-78.1 -66.8 -80.3 -67.3 L-82.2 -67.4 Q-89.4 -67.4 -92.9 -61.9 -95.1 -58.4 -95.1 -55.15 -95.1 -53.55 -93.85 -50.9 M-87.25 -41.55 L-86.9 -39.2 Q-85.95 -39.2 -85.5 -39.95 -85.25 -40.4 -85.25 -40.9 -85.25 -42.5 -86.25 -42.15 -86.75 -42.05 -87.25 -41.55 M-88.9 -41.35 Q-86.6 -43.8 -85.4 -43.15 -84.45 -42.7 -84.45 -40.8 -84.45 -39.95 -84.95 -39.2 -85.65 -38.05 -87.0 -38.05 -88.05 -38.05 -88.05 -41.1 L-88.5 -41.0 -88.9 -41.35 M-97.7 -44.8 Q-98.25 -43.05 -98.25 -42.05 -98.25 -38.85 -96.3 -36.75 -94.35 -35.15 -94.35 -34.75 -94.35 -34.1 -95.95 -33.45 -97.4 -32.95 -98.6 -32.95 -102.2 -32.95 -103.8 -36.7 -104.75 -38.95 -104.75 -40.95 L-104.7 -44.0 -104.45 -45.45 Q-104.3 -46.35 -103.8 -47.0 -101.85 -49.55 -98.55 -49.55 -95.4 -49.5 -95.4 -47.7 -95.4 -46.8 -96.25 -46.45 -97.3 -46.0 -97.7 -44.8 M-99.5 -42.15 Q-99.5 -45.85 -97.1 -48.0 -101.05 -48.75 -102.6 -46.4 -103.5 -45.05 -103.5 -42.9 -103.5 -40.05 -103.05 -38.55 -102.0 -34.75 -98.65 -34.75 -97.9 -34.75 -96.9 -35.1 -98.6 -37.25 -99.1 -38.8 -99.5 -40.0 -99.5 -42.15 M-91.35 -41.4 Q-90.85 -40.55 -90.85 -40.0 -90.85 -39.4 -91.25 -38.6 -91.85 -37.4 -93.0 -37.4 -94.3 -37.4 -94.8 -38.55 L-95.0 -39.75 -94.7 -41.3 Q-94.15 -42.55 -92.95 -42.55 -92.0 -42.55 -91.35 -41.4 M-91.8 -39.95 Q-91.8 -41.3 -93.0 -41.3 -94.2 -41.3 -94.2 -39.95 -94.2 -38.6 -93.05 -38.6 -92.25 -38.6 -91.95 -39.35 L-91.8 -39.95 M-104.6 -24.9 L-104.4 -23.8 Q-104.4 -22.0 -106.25 -20.9 -108.25 -19.65 -112.75 -19.05 L-113.1 -19.25 -113.25 -19.95 Q-113.25 -21.15 -110.95 -24.05 -108.2 -27.55 -105.55 -26.15 L-104.6 -24.9 M-105.3 -23.8 Q-105.6 -24.3 -105.4 -24.7 L-108.35 -24.85 Q-110.85 -23.15 -111.75 -21.5 L-112.0 -21.1 Q-108.25 -21.15 -106.95 -21.95 L-105.3 -23.8 M-115.25 -19.4 L-115.9 -17.3 Q-116.6 -15.5 -116.6 -14.15 L-116.3 -9.5 -115.4 -7.25 Q-114.5 -5.45 -114.5 -5.1 -114.5 -4.25 -114.85 -3.9 -115.35 -3.35 -116.9 -3.35 -119.85 -3.35 -121.35 -6.4 -122.5 -8.75 -122.5 -12.2 L-121.4 -13.95 -119.4 -17.9 Q-118.65 -19.25 -116.1 -21.8 -115.25 -21.2 -115.25 -19.4 M-117.45 -18.4 Q-118.9 -17.45 -119.95 -14.55 -120.6 -12.8 -120.75 -11.3 -120.5 -7.75 -118.0 -6.0 L-117.3 -6.0 Q-117.6 -6.55 -117.9 -8.4 -118.55 -10.35 -118.55 -12.8 L-118.3 -15.3 -117.65 -17.4 -117.45 -18.4 M-112.45 -8.95 Q-112.3 -8.8 -111.9 -8.8 L-111.05 -9.05 -111.0 -9.9 -111.3 -10.5 -112.3 -11.2 -112.6 -9.3 -112.45 -8.95 M-113.5 -9.45 L-113.55 -11.45 Q-113.55 -13.75 -111.75 -12.6 -110.0 -11.45 -110.0 -9.7 -110.0 -7.4 -111.9 -7.4 -113.2 -7.4 -113.5 -9.45 M-112.8 -1.35 L-113.7 -0.05 Q-114.75 1.35 -115.25 2.9 -116.15 6.15 -116.15 7.15 -116.15 8.8 -114.6 14.0 L-114.05 15.7 Q-113.7 16.55 -112.8 17.3 L-110.9 18.65 -109.5 18.9 Q-108.5 19.05 -108.5 19.75 -108.5 20.35 -109.2 20.6 L-109.2 20.8 Q-109.2 21.6 -110.25 22.2 -111.55 22.95 -113.9 22.95 -116.75 22.95 -118.95 20.75 -120.1 19.6 -120.75 18.25 -121.4 17.1 -121.5 15.85 L-121.5 13.35 -121.5 10.35 -120.8 6.4 Q-120.5 5.0 -119.3 3.25 -119.1 1.4 -116.05 -0.65 -112.8 -2.85 -112.8 -1.35 M-64.05 -71.05 Q-65.75 -76.9 -69.45 -73.7 -70.5 -73.1 -71.5 -71.2 -72.45 -69.35 -72.45 -68.3 L-72.3 -67.3 -72.2 -67.2 -70.0 -69.7 Q-68.1 -71.05 -64.05 -71.05 M-70.6 -66.6 L-72.05 -63.85 Q-72.25 -63.85 -72.45 -64.1 -73.0 -65.0 -73.35 -68.35 -73.35 -70.45 -72.1 -72.45 -70.6 -74.85 -67.85 -75.95 -65.15 -77.1 -63.45 -73.6 -62.25 -71.1 -62.25 -69.1 L-62.4 -68.5 -62.9 -68.1 -63.8 -68.75 Q-64.4 -69.45 -65.65 -69.45 -68.75 -69.45 -70.6 -66.6 M-54.65 66.2 L-55.2 66.55 -56.6 67.4 -60.3 68.45 -60.25 68.75 -60.35 68.75 Q-61.6 68.75 -62.3 69.3 -65.3 68.95 -66.6 68.15 L-67.25 67.55 -68.0 66.25 -67.95 67.6 Q-67.7 69.05 -65.2 71.05 -62.5 73.2 -60.2 73.2 -57.95 73.2 -56.7 72.15 L-55.5 71.05 Q-55.05 71.05 -54.85 71.4 L-54.75 71.8 -54.75 71.95 -54.6 72.15 -52.65 75.5 Q-50.5 77.65 -47.65 78.55 L-45.1 79.05 -44.3 79.15 -44.35 79.05 -44.2 79.05 Q-42.35 79.05 -40.9 78.15 L-39.9 77.25 Q-39.25 76.7 -38.7 75.75 L-38.45 75.35 -38.4 75.25 -38.4 75.1 -39.45 75.5 -39.55 75.05 -41.7 75.25 Q-48.85 75.25 -52.05 70.65 L-53.9 67.8 -54.65 66.2 M-54.6 64.05 L-54.3 63.7 Q-53.55 62.95 -53.35 63.8 L-53.8 64.85 -53.45 65.45 -51.6 69.15 -49.2 71.65 Q-46.4 73.6 -41.7 73.6 -39.0 73.6 -37.5 72.55 -36.45 71.4 -36.05 71.4 L-35.8 71.5 -35.55 71.65 -35.45 71.8 -35.4 72.2 -35.4 72.35 Q-35.4 72.8 -35.9 73.9 L-37.5 76.65 -37.55 76.7 -37.5 77.1 Q-37.5 78.05 -39.15 79.25 -41.1 80.75 -43.4 80.75 -49.2 80.75 -52.9 77.1 -55.05 75.05 -55.5 73.2 L-56.3 73.75 Q-58.0 74.8 -60.2 74.8 -63.65 74.8 -67.05 71.25 -68.45 70.0 -68.8 69.05 L-69.0 66.95 -68.95 65.35 -69.0 65.35 -68.95 65.2 -68.9 65.05 -68.65 64.6 -68.0 63.15 -66.85 65.65 Q-65.85 67.55 -63.75 67.55 L-60.95 67.35 -55.95 65.55 -54.8 64.25 -54.6 64.05 M-79.35 54.0 L-79.25 53.9 -80.2 54.5 Q-81.15 55.1 -82.25 55.1 -82.75 55.1 -83.65 54.4 L-84.9 53.4 Q-84.6 55.9 -84.25 56.3 -84.0 56.65 -82.7 56.65 -80.9 56.65 -79.95 55.35 -79.35 54.55 -79.35 54.0 M-78.2 54.6 Q-79.7 58.25 -82.7 58.25 -86.1 58.25 -86.1 53.6 -86.1 53.2 -85.65 52.85 -85.25 52.55 -85.25 51.8 L-84.8 51.6 -83.95 52.6 Q-83.2 53.6 -82.2 53.6 -81.0 53.6 -79.95 52.55 L-79.1 51.4 Q-77.25 48.1 -77.25 50.45 -77.25 52.35 -78.2 54.6 M-11.25 74.0 Q-9.85 76.05 -8.7 76.05 -5.9 76.05 -4.35 74.8 L-3.3 73.6 -2.25 71.8 Q-1.35 70.6 -1.35 72.25 L-1.5 75.5 -1.55 75.9 Q-1.8 77.6 -2.6 79.05 -4.35 82.3 -8.5 82.3 -10.9 82.3 -11.55 80.15 L-11.65 78.0 -12.0 77.25 -12.45 75.55 Q-12.45 74.6 -12.0 74.35 -11.8 74.2 -11.65 74.6 L-11.6 74.2 -11.25 74.0 M-13.2 72.35 Q-12.95 72.75 -12.95 74.0 L-13.05 75.35 Q-13.35 76.85 -14.2 78.6 -16.15 82.3 -19.7 82.3 -22.45 82.3 -26.15 75.05 -26.1 74.3 -25.7 74.3 -25.25 74.3 -24.8 75.05 -24.4 75.7 -20.75 75.7 -17.6 75.7 -16.05 74.4 L-14.85 72.85 Q-13.6 71.6 -13.2 72.35 M-27.45 74.2 Q-27.45 75.3 -27.6 75.65 -28.0 76.65 -29.4 76.65 -30.6 76.65 -30.95 75.5 L-31.1 74.35 Q-31.1 71.5 -29.25 71.4 -27.45 71.2 -27.45 74.2 M-29.3 72.75 Q-30.15 72.75 -30.15 74.3 L-30.0 74.9 -29.75 75.3 Q-28.7 75.3 -28.5 74.75 L-28.5 74.2 Q-28.5 72.75 -29.3 72.75 M-21.9 79.25 Q-20.5 80.7 -19.65 80.7 -17.05 80.7 -15.35 77.7 -14.2 75.55 -14.1 74.1 -15.45 74.75 -15.65 76.1 -16.8 77.2 -23.7 77.25 L-21.9 79.25 M-38.9 74.8 L-38.0 74.6 -37.85 74.35 -38.9 74.8 M-2.75 75.05 L-4.6 76.8 Q-5.7 77.45 -7.7 77.45 -9.8 77.45 -10.95 76.25 L-11.45 75.65 -11.25 76.6 -10.5 77.0 -10.5 77.7 -10.5 78.05 -10.2 78.4 -10.2 78.85 -10.25 79.0 -10.45 79.05 -10.4 79.45 Q-10.05 80.7 -8.45 80.7 -5.15 80.7 -3.6 78.25 L-3.4 77.9 -3.45 77.85 -3.5 77.4 -3.1 76.45 -2.7 75.5 -2.75 75.25 -2.75 75.05 M-116.7 1.75 L-117.8 3.25 Q-118.95 4.9 -119.4 6.2 L-119.85 8.5 -120.2 10.8 -120.3 13.55 Q-120.3 15.3 -119.9 16.3 -119.65 17.4 -118.4 18.85 -116.45 21.1 -113.9 21.1 -111.8 21.1 -110.9 20.6 -114.15 20.0 -116.05 14.15 -117.45 9.9 -117.45 7.2 -117.45 3.65 -115.95 1.1 L-116.7 1.4 -116.7 1.75 M-103.55 28.2 Q-103.1 28.55 -102.45 30.25 -101.85 31.9 -100.65 32.6 -98.5 33.8 -98.0 34.6 -97.65 35.15 -97.65 36.55 -97.65 38.25 -98.15 39.05 -98.95 40.4 -101.15 40.4 -103.7 40.4 -104.5 38.05 L-104.75 35.55 -104.6 33.15 -104.5 30.05 Q-104.5 28.95 -103.55 28.2 M-109.65 29.75 Q-109.4 30.7 -108.5 30.85 L-108.45 30.45 -108.8 30.1 Q-109.25 29.85 -109.65 29.75 M-107.25 30.65 Q-107.25 32.45 -108.7 32.45 -109.85 32.45 -110.4 31.4 L-110.7 30.45 Q-110.7 27.8 -108.95 28.15 -107.25 28.55 -107.25 30.65 M-103.35 33.65 L-103.3 36.35 Q-102.95 38.2 -101.05 38.2 -99.05 38.2 -99.05 36.55 -99.05 35.65 -100.75 34.4 L-103.1 32.6 -103.1 32.65 -103.2 32.95 -103.35 33.65 M-90.6 42.35 L-91.75 42.3 -91.75 41.75 Q-91.75 40.05 -89.05 40.7 -86.35 41.2 -86.35 44.45 -86.35 45.65 -87.25 46.75 -88.25 47.8 -89.4 47.8 -91.3 47.8 -91.8 45.35 -91.8 43.45 -90.75 43.35 -90.4 44.05 -90.6 44.9 L-89.75 45.95 Q-88.8 45.95 -88.25 45.35 -87.8 44.8 -87.8 44.3 -87.8 42.7 -90.6 42.35 M-96.6 46.75 Q-96.1 46.75 -95.5 46.25 -95.4 46.75 -95.4 45.95 -95.4 45.6 -96.1 44.9 -97.0 44.2 -98.05 44.45 L-98.3 44.7 -97.9 46.0 Q-97.55 46.75 -96.6 46.75 M-99.75 44.3 Q-99.75 41.9 -96.75 42.7 -93.75 43.45 -93.75 46.0 -93.75 46.8 -94.65 47.75 -95.6 48.75 -96.6 48.75 -98.55 48.75 -99.35 46.6 -99.75 45.55 -99.75 44.3 M-88.8 51.4 Q-88.8 50.9 -89.25 50.8 -89.75 50.7 -89.9 51.2 L-89.85 51.6 -89.7 51.65 -88.85 51.6 -88.8 51.4 M-90.95 51.5 Q-90.95 49.85 -89.25 49.35 -87.6 48.95 -87.6 51.25 -87.6 53.2 -89.25 53.2 -90.35 53.2 -90.75 52.4 L-90.95 51.5" fill="#2f2f2f" fill-opacity="0.29803923" fill-rule="evenodd" stroke="none"/>
    <path d="M61.45 -74.75 Q62.45 -74.75 63.75 -75.25 L67.35 -75.7 Q72.1 -75.7 74.8 -69.8 L77.05 -64.4 76.95 -64.0 Q76.95 -63.45 77.5 -63.45 84.1 -63.45 87.35 -61.9 88.45 -61.35 91.95 -58.35 L93.6 -56.35 94.7 -54.3 95.4 -52.0 95.85 -51.05 Q94.8 -50.6 94.8 -49.95 94.8 -49.55 95.1 -49.45 L98.1 -50.05 Q103.0 -50.05 105.3 -45.65 106.7 -43.05 106.7 -40.5 L106.5 -38.6 106.35 -38.6 Q106.05 -39.6 104.6 -40.7 102.65 -42.25 100.1 -42.25 98.7 -42.25 96.8 -41.15 L95.0 -39.95 Q91.1 -54.1 81.7 -54.1 80.2 -54.1 78.8 -53.4 L77.55 -52.55 77.45 -52.65 Q77.7 -55.25 76.9 -58.1 76.05 -61.15 74.3 -63.6 71.8 -67.1 69.45 -69.05 66.85 -71.2 64.05 -71.4 62.45 -71.55 61.75 -70.85 L61.45 -74.75 M109.25 -31.25 Q109.7 -31.6 110.2 -31.1 110.7 -30.7 110.7 -30.3 L110.55 -29.45 109.8 -29.25 108.9 -29.7 109.0 -30.5 Q109.05 -31.0 109.25 -31.25 M102.6 -32.85 L102.6 -32.4 Q102.45 -31.9 101.4 -31.9 100.8 -31.9 100.8 -32.65 100.8 -33.9 101.7 -33.8 102.6 -33.8 102.6 -32.85 M115.1 -3.15 L115.65 -2.75 Q116.1 -2.75 117.1 -6.05 118.05 -9.35 118.05 -10.65 L117.5 -14.6 116.7 -19.35 118.05 -18.95 Q121.05 -15.95 121.05 -9.05 121.05 -6.75 119.05 -4.25 L117.05 -2.2 117.1 -1.75 117.45 -1.4 118.2 0.45 Q119.1 2.55 119.1 4.9 L119.0 6.75 119.1 8.0 Q119.1 9.9 117.95 10.15 118.95 11.3 119.55 12.8 120.6 15.5 120.6 18.6 120.6 23.55 116.35 27.75 112.2 31.8 107.55 31.8 L105.4 31.4 105.45 31.8 105.3 31.9 Q104.3 32.8 104.3 34.2 L103.85 34.3 104.25 35.85 104.55 38.25 104.15 40.8 103.55 43.3 Q102.95 44.45 101.05 46.15 98.8 48.15 97.2 48.15 L96.85 48.0 96.8 47.8 Q101.2 44.9 102.6 40.95 103.3 39.05 103.65 34.3 L103.6 34.3 103.7 33.4 103.65 30.6 104.7 30.3 104.9 30.25 105.25 30.8 105.6 30.8 Q109.85 30.8 113.7 26.65 118.2 21.8 118.2 14.2 118.2 12.25 117.3 10.25 116.3 10.1 116.0 9.15 L115.8 7.95 Q115.8 7.35 115.95 6.85 L115.85 6.85 116.15 3.55 115.55 -2.2 Q115.55 -2.85 114.95 -3.1 L115.1 -3.15 M87.8 54.95 L89.55 51.5 89.65 52.6 89.4 54.4 Q89.25 55.5 88.75 56.3 87.8 57.85 85.5 57.85 L85.2 57.85 Q86.55 56.9 87.8 54.95 M38.2 70.05 Q40.35 71.1 40.35 72.8 L40.2 73.55 Q39.7 74.3 37.8 74.3 36.9 74.3 36.0 73.3 L34.95 71.6 Q35.95 68.95 38.2 70.05 M3.1 75.1 Q4.35 75.85 4.35 76.8 L4.3 77.65 Q4.15 78.25 3.35 78.25 1.5 78.25 1.5 76.25 1.5 76.05 1.65 75.95 L1.8 75.65 Q1.8 74.4 3.1 75.1 M12.75 78.05 Q16.3 78.05 18.7 76.15 20.4 74.9 21.0 73.2 21.5 74.4 21.5 76.65 21.5 78.45 20.4 80.1 18.45 82.9 14.0 82.9 12.9 82.9 11.35 81.85 9.8 80.7 9.35 79.45 L9.35 77.65 12.75 78.05 M69.15 67.4 Q67.0 69.65 61.95 69.65 L59.05 69.45 58.35 68.95 Q63.95 67.95 67.9 64.45 70.9 61.75 72.45 58.2 71.45 65.0 69.15 67.4 M51.45 71.85 Q52.75 70.0 52.35 68.35 L52.35 68.2 Q53.15 69.15 53.15 70.85 53.15 72.15 52.6 73.3 51.65 75.45 49.2 75.45 L47.55 75.3 Q47.65 75.05 47.4 74.9 50.05 73.9 51.45 71.85 M-87.25 -41.55 Q-86.75 -42.05 -86.25 -42.15 -85.25 -42.5 -85.25 -40.9 -85.25 -40.4 -85.5 -39.95 -85.95 -39.2 -86.9 -39.2 L-87.25 -41.55 M-93.85 -50.9 Q-95.1 -53.55 -95.1 -55.15 -95.1 -58.4 -92.9 -61.9 -89.4 -67.4 -82.2 -67.4 L-80.3 -67.3 Q-78.1 -66.8 -74.75 -63.4 L-76.95 -63.6 -79.8 -63.85 Q-83.2 -63.85 -86.9 -60.75 -91.5 -56.9 -91.5 -51.0 L-91.05 -47.5 -91.05 -47.2 -91.1 -47.3 Q-92.5 -48.2 -93.85 -50.9 M-99.5 -42.15 Q-99.5 -40.0 -99.1 -38.8 -98.6 -37.25 -96.9 -35.1 -97.9 -34.75 -98.65 -34.75 -102.0 -34.75 -103.05 -38.55 -103.5 -40.05 -103.5 -42.9 -103.5 -45.05 -102.6 -46.4 -101.05 -48.75 -97.1 -48.0 -99.5 -45.85 -99.5 -42.15 M-91.8 -39.95 L-91.95 -39.35 Q-92.25 -38.6 -93.05 -38.6 -94.2 -38.6 -94.2 -39.95 -94.2 -41.3 -93.0 -41.3 -91.8 -41.3 -91.8 -39.95 M-105.3 -23.8 L-106.95 -21.95 Q-108.25 -21.15 -112.0 -21.1 L-111.75 -21.5 Q-110.85 -23.15 -108.35 -24.85 L-105.4 -24.7 Q-105.6 -24.3 -105.3 -23.8 M-112.45 -8.95 L-112.6 -9.3 -112.3 -11.2 -111.3 -10.5 -111.0 -9.9 -111.05 -9.05 -111.9 -8.8 Q-112.3 -8.8 -112.45 -8.95 M-117.45 -18.4 L-117.65 -17.4 -118.3 -15.3 -118.55 -12.8 Q-118.55 -10.35 -117.9 -8.4 -117.6 -6.55 -117.3 -6.0 L-118.0 -6.0 Q-120.5 -7.75 -120.75 -11.3 -120.6 -12.8 -119.95 -14.55 -118.9 -17.45 -117.45 -18.4 M-64.05 -71.05 Q-68.1 -71.05 -70.0 -69.7 L-72.2 -67.2 -72.3 -67.3 -72.45 -68.3 Q-72.45 -69.35 -71.5 -71.2 -70.5 -73.1 -69.45 -73.7 -65.75 -76.9 -64.05 -71.05 M-54.65 66.2 L-53.9 67.8 -52.05 70.65 Q-48.85 75.25 -41.7 75.25 L-39.55 75.05 -39.45 75.5 -38.4 75.1 -38.4 75.25 -38.45 75.35 -38.7 75.75 Q-39.25 76.7 -39.9 77.25 L-40.9 78.15 Q-42.35 79.05 -44.2 79.05 L-44.35 79.05 -44.3 79.15 -45.1 79.05 -47.65 78.55 Q-50.5 77.65 -52.65 75.5 L-54.6 72.15 -54.75 71.95 -54.75 71.8 -54.85 71.4 Q-55.05 71.05 -55.5 71.05 L-56.7 72.15 Q-57.95 73.2 -60.2 73.2 -62.5 73.2 -65.2 71.05 -67.7 69.05 -67.95 67.6 L-68.0 66.25 -67.25 67.55 -66.6 68.15 Q-65.3 68.95 -62.3 69.3 -61.6 68.75 -60.35 68.75 L-60.25 68.75 -60.3 68.45 -56.6 67.4 -55.2 66.55 -54.65 66.2 M-79.35 54.0 Q-79.35 54.55 -79.95 55.35 -80.9 56.65 -82.7 56.65 -84.0 56.65 -84.25 56.3 -84.6 55.9 -84.9 53.4 L-83.65 54.4 Q-82.75 55.1 -82.25 55.1 -81.15 55.1 -80.2 54.5 L-79.25 53.9 -79.35 54.0 M-21.9 79.25 L-23.7 77.25 Q-16.8 77.2 -15.65 76.1 -15.45 74.75 -14.1 74.1 -14.2 75.55 -15.35 77.7 -17.05 80.7 -19.65 80.7 -20.5 80.7 -21.9 79.25 M-29.3 72.75 Q-28.5 72.75 -28.5 74.2 L-28.5 74.75 Q-28.7 75.3 -29.75 75.3 L-30.0 74.9 -30.15 74.3 Q-30.15 72.75 -29.3 72.75 M-38.9 74.8 L-37.85 74.35 -38.0 74.6 -38.9 74.8 M-116.7 1.75 L-116.7 1.4 -115.95 1.1 Q-117.45 3.65 -117.45 7.2 -117.45 9.9 -116.05 14.15 -114.15 20.0 -110.9 20.6 -111.8 21.1 -113.9 21.1 -116.45 21.1 -118.4 18.85 -119.65 17.4 -119.9 16.3 -120.3 15.3 -120.3 13.55 L-120.2 10.8 -119.85 8.5 -119.4 6.2 Q-118.95 4.9 -117.8 3.25 L-116.7 1.75 M-2.75 75.05 L-2.75 75.25 -2.7 75.5 -3.1 76.45 -3.5 77.4 -3.45 77.85 -3.4 77.9 -3.6 78.25 Q-5.15 80.7 -8.45 80.7 -10.05 80.7 -10.4 79.45 L-10.45 79.05 -10.25 79.0 -10.2 78.85 -10.2 78.4 -10.5 78.05 -10.5 77.7 -10.5 77.0 -11.25 76.6 -11.45 75.65 -10.95 76.25 Q-9.8 77.45 -7.7 77.45 -5.7 77.45 -4.6 76.8 L-2.75 75.05 M-109.65 29.75 Q-109.25 29.85 -108.8 30.1 L-108.45 30.45 -108.5 30.85 Q-109.4 30.7 -109.65 29.75 M-103.35 33.65 L-103.2 32.95 -103.1 32.65 -103.1 32.6 -100.75 34.4 Q-99.05 35.65 -99.05 36.55 -99.05 38.2 -101.05 38.2 -102.95 38.2 -103.3 36.35 L-103.35 33.65 M-90.75 43.35 L-90.6 42.35 Q-87.8 42.7 -87.8 44.3 -87.8 44.8 -88.25 45.35 -88.8 45.95 -89.75 45.95 L-90.6 44.9 Q-90.4 44.05 -90.75 43.35 M-96.6 46.75 Q-97.55 46.75 -97.9 46.0 L-98.3 44.7 -98.05 44.45 Q-97.0 44.2 -96.1 44.9 -95.4 45.6 -95.4 45.95 -95.4 46.75 -95.5 46.25 -96.1 46.75 -96.6 46.75 M-88.8 51.4 L-88.85 51.6 -89.7 51.65 -89.85 51.6 -89.9 51.2 Q-89.75 50.7 -89.25 50.8 -88.8 50.9 -88.8 51.4" fill="#444444" fill-opacity="0.29803923" fill-rule="evenodd" stroke="none"/>
  </g>
</svg>
