<?xml version="1.0" encoding="UTF-8" standalone="no"?>
<svg xmlns:ffdec="https://www.free-decompiler.com/flash" xmlns:xlink="http://www.w3.org/1999/xlink" ffdec:objectType="shape" height="163.8px" width="151.65px" xmlns="http://www.w3.org/2000/svg">
  <g transform="matrix(1.0, 0.0, 0.0, 1.0, 71.05, 209.9)">
    <path d="M52.15 -181.75 L48.7 -183.6 Q46.25 -184.7 45.75 -185.25 45.0 -185.7 42.9 -186.05 41.4 -186.35 41.1 -187.4 35.55 -204.3 12.55 -204.3 7.05 -204.3 0.6 -201.5 -5.9 -198.6 -6.65 -195.85 L-6.65 -194.1 -5.7 -194.1 Q5.15 -197.1 8.95 -197.1 18.35 -197.1 26.85 -192.0 34.6 -187.4 39.75 -179.7 40.6 -178.5 44.9 -177.55 49.45 -176.5 51.5 -174.25 60.2 -164.6 60.2 -155.95 L60.2 -153.45 Q61.95 -154.05 62.5 -155.95 63.05 -157.5 63.05 -161.6 63.05 -166.5 62.2 -169.2 61.55 -171.55 58.5 -176.0 L57.65 -177.2 52.15 -181.75 M20.9 -173.85 Q22.45 -173.4 22.45 -171.75 L22.35 -171.0 21.15 -170.9 Q19.4 -170.9 19.4 -172.35 19.4 -174.25 20.9 -173.85 M38.2 -149.95 Q38.45 -150.9 39.75 -150.9 41.2 -150.9 41.2 -148.95 41.0 -146.5 39.5 -146.5 39.05 -146.5 38.6 -147.3 38.2 -148.05 38.2 -148.85 L38.2 -149.95 M24.5 -163.9 Q25.75 -164.45 25.75 -163.1 25.3 -161.05 24.3 -161.05 23.3 -161.05 23.3 -162.25 23.3 -163.3 24.5 -163.9 M28.9 -162.95 Q28.9 -164.7 30.9 -165.85 33.0 -167.0 33.0 -163.1 32.8 -158.9 31.45 -158.9 30.45 -158.9 29.6 -160.4 28.9 -161.85 28.9 -162.95 M26.85 -177.75 Q18.6 -184.25 9.15 -188.35 0.6 -192.0 -5.25 -192.0 -9.65 -192.0 -15.85 -188.65 L-21.2 -185.5 -20.45 -187.75 Q-19.5 -190.55 -19.6 -191.0 -15.5 -201.5 -9.65 -205.55 -3.15 -209.9 11.4 -209.9 32.55 -209.9 49.95 -194.8 67.55 -179.35 67.55 -160.15 67.55 -149.95 59.05 -136.1 L57.45 -133.8 Q59.55 -133.4 65.75 -130.55 L68.55 -129.35 Q73.45 -126.0 76.6 -120.7 80.6 -114.1 80.6 -105.75 80.6 -91.9 73.2 -83.75 66.9 -76.6 58.8 -76.6 L52.75 -77.1 Q47.3 -77.75 46.0 -79.0 53.35 -79.2 58.0 -88.9 62.1 -97.3 62.1 -107.0 62.1 -113.6 59.35 -120.9 57.05 -126.9 54.3 -129.35 48.9 -122.2 43.9 -120.0 L43.55 -120.2 Q46.0 -124.3 46.9 -127.15 48.15 -131.0 48.15 -137.1 48.15 -160.4 26.85 -177.75 M7.2 -160.5 Q4.3 -165.5 0.0 -167.7 -4.15 -169.65 -10.1 -169.65 -17.5 -169.65 -21.85 -164.0 -25.45 -159.15 -25.45 -152.6 L-25.4 -150.15 -24.8 -147.6 Q-23.75 -155.4 -14.7 -159.3 -8.25 -162.4 -1.8 -162.4 2.35 -162.4 5.55 -161.2 L7.2 -160.5 M13.55 -157.85 Q15.2 -154.15 15.2 -148.05 15.2 -143.1 14.4 -139.8 11.6 -145.95 7.2 -149.05 1.5 -153.25 -8.0 -153.25 -13.65 -153.25 -17.5 -150.45 -22.15 -146.95 -22.15 -141.05 -22.15 -137.95 -21.2 -135.9 -20.25 -134.1 -17.5 -131.65 L-18.5 -131.65 Q-22.75 -131.65 -26.35 -140.8 -29.5 -148.85 -29.5 -155.75 -29.5 -163.55 -24.85 -169.0 -20.05 -174.65 -12.45 -174.65 -2.5 -174.65 3.25 -170.45 6.95 -167.7 11.25 -160.85 12.65 -159.7 13.55 -157.85 M22.25 -154.15 L22.15 -154.75 22.45 -154.5 23.25 -154.15 25.4 -153.25 Q33.6 -149.4 37.55 -141.5 40.9 -134.6 40.9 -125.5 40.9 -116.5 36.3 -110.85 31.3 -104.75 22.45 -104.75 16.75 -104.75 10.4 -108.5 L2.8 -113.9 2.95 -114.25 Q4.1 -113.7 5.6 -113.7 13.8 -113.7 17.9 -124.55 19.4 -128.95 20.7 -134.45 22.45 -142.25 22.45 -148.2 L22.25 -154.15 M3.25 -141.75 L2.65 -140.3 Q1.9 -138.65 1.15 -138.65 0.65 -138.65 0.5 -138.85 L0.3 -139.25 Q0.45 -140.25 0.25 -140.6 L0.0 -141.2 Q0.0 -142.05 1.55 -142.85 3.25 -143.6 3.25 -141.75 M33.35 -137.35 Q33.35 -131.7 30.25 -124.1 26.35 -114.25 20.05 -111.05 L21.7 -110.7 23.65 -110.5 Q29.0 -110.5 33.35 -115.8 38.15 -121.8 38.15 -130.65 38.15 -136.4 36.9 -139.55 35.95 -141.5 31.7 -147.0 32.75 -145.55 33.1 -143.4 L33.35 -137.35 M51.25 -119.15 Q52.6 -119.9 52.6 -117.65 L52.5 -116.3 51.5 -116.15 Q50.85 -116.15 50.4 -116.7 49.95 -117.1 49.95 -117.55 49.95 -118.45 51.25 -119.15 M63.1 -129.35 Q65.6 -126.4 66.55 -124.55 69.7 -118.8 69.7 -111.4 69.7 -101.05 67.65 -94.15 65.85 -87.7 61.35 -81.15 L61.55 -81.05 Q67.3 -84.15 71.15 -90.15 76.0 -97.65 76.0 -107.7 76.0 -116.0 71.7 -122.15 68.45 -126.7 63.1 -129.35 M0.3 -96.95 Q6.55 -96.95 10.15 -95.25 16.75 -91.85 18.2 -82.6 L18.2 -82.4 Q18.6 -73.75 15.7 -68.7 14.15 -66.0 11.6 -64.45 L11.4 -64.25 Q10.0 -61.25 9.6 -59.35 L8.7 -55.15 Q7.4 -52.15 4.0 -51.95 L3.0 -51.95 Q-0.65 -52.1 -2.1 -55.15 L-2.5 -56.0 -3.15 -57.3 -3.9 -57.2 Q-5.25 -57.2 -5.25 -58.1 -5.25 -59.2 -3.8 -59.2 L-3.7 -59.2 -3.7 -59.85 -5.45 -62.65 -7.6 -66.35 Q-13.4 -70.75 -13.7 -77.95 -14.1 -85.4 -10.25 -91.0 -6.1 -96.95 0.3 -96.95 M39.1 -98.4 Q38.45 -98.4 37.95 -99.25 37.6 -99.85 37.6 -100.35 37.6 -101.7 39.3 -101.75 40.95 -101.9 40.95 -100.15 41.35 -98.4 39.1 -98.4 M32.45 -94.15 L33.1 -93.8 Q37.4 -91.0 40.45 -86.25 L42.35 -82.7 Q45.55 -76.3 45.55 -70.75 45.55 -62.65 38.7 -57.9 32.75 -53.7 24.8 -53.7 22.65 -53.7 18.6 -54.95 14.85 -56.2 13.8 -57.1 23.3 -55.5 27.8 -65.3 31.25 -72.9 31.25 -85.9 31.25 -88.4 30.2 -90.85 L28.05 -95.55 30.35 -94.75 30.55 -94.7 32.45 -94.15 M47.3 -108.65 Q47.1 -108.4 47.1 -106.35 L46.05 -106.15 Q45.75 -106.15 44.55 -106.8 43.2 -107.4 43.2 -108.05 43.2 -109.55 45.2 -110.85 47.3 -112.1 47.3 -108.65 M50.8 -105.65 L50.1 -105.75 50.05 -105.95 49.95 -106.45 Q52.6 -110.55 52.6 -107.9 L52.15 -106.8 Q51.65 -105.65 50.8 -105.65 M4.1 -90.35 Q2.75 -91.65 1.5 -91.65 0.0 -91.65 -1.25 -90.2 -2.4 -88.9 -2.4 -87.3 -2.4 -85.9 -1.4 -84.7 -0.1 -83.25 2.0 -83.25 5.9 -83.25 5.9 -87.15 L5.8 -88.05 5.25 -89.25 4.1 -90.35 M1.05 -100.7 L0.75 -99.65 Q0.25 -98.4 -0.85 -98.4 -2.55 -98.4 -2.55 -100.05 -2.55 -102.05 -0.8 -102.1 1.05 -102.25 1.05 -100.7 M14.15 -79.95 Q13.7 -77.3 11.2 -75.4 8.45 -73.4 5.25 -73.4 2.15 -73.4 -1.4 -75.75 -4.6 -77.95 -5.25 -80.5 -5.45 -75.85 -3.5 -72.2 -0.65 -66.9 5.55 -66.9 8.25 -66.9 11.05 -69.95 14.2 -73.55 14.2 -78.35 L14.15 -79.95 M0.2 -63.0 L0.25 -62.7 0.9 -62.8 0.2 -63.0 M40.6 -77.5 Q39.7 -71.35 35.5 -64.6 31.1 -57.4 28.9 -56.7 L31.0 -56.7 Q34.75 -56.7 38.2 -60.25 41.95 -64.3 41.95 -69.7 41.95 -72.65 40.6 -77.5 M-0.2 -188.0 Q0.0 -186.5 -1.6 -186.5 -2.9 -186.5 -2.9 -188.1 -2.9 -189.55 -1.6 -189.55 -0.2 -189.55 -0.2 -188.0 M-22.15 -181.25 Q-22.15 -179.75 -23.6 -179.75 -25.05 -179.75 -25.05 -181.05 -25.05 -182.3 -23.6 -182.35 -22.15 -182.5 -22.15 -181.25 M-47.65 -187.85 L-40.45 -188.65 -39.85 -188.65 -35.95 -187.85 Q-33.3 -187.1 -32.85 -186.7 -40.25 -177.9 -45.3 -164.9 -50.35 -151.8 -50.35 -141.15 -50.35 -130.75 -45.35 -118.65 -41.0 -107.9 -36.15 -103.85 -35.0 -108.05 -32.85 -110.85 -28.85 -115.85 -21.3 -116.5 L-21.0 -116.5 -18.85 -116.7 Q-15.8 -116.7 -11.55 -113.95 -9.25 -112.7 -8.2 -111.45 L-10.75 -111.05 -11.6 -111.05 Q-17.05 -111.2 -20.9 -106.3 -24.85 -101.15 -24.85 -94.95 -24.85 -92.55 -23.55 -85.75 -22.15 -79.2 -21.4 -77.1 L-21.7 -77.1 Q-30.35 -80.45 -33.7 -84.65 -36.85 -88.95 -36.85 -96.6 -36.85 -100.05 -36.25 -102.85 L-38.75 -102.85 -46.2 -104.4 Q-47.4 -103.0 -47.6 -101.15 L-47.45 -94.95 Q-47.45 -85.8 -41.85 -77.65 -37.2 -70.8 -30.9 -66.95 -31.35 -66.95 -31.35 -66.55 L-35.8 -66.05 Q-50.75 -66.05 -60.05 -75.15 -69.15 -84.2 -69.15 -98.45 -69.15 -103.65 -67.15 -107.15 -65.5 -110.2 -62.0 -112.5 L-64.3 -115.25 Q-71.05 -123.9 -71.05 -141.4 -71.05 -159.15 -64.55 -171.95 -58.35 -184.25 -47.65 -187.85 M1.8 -51.6 Q3.15 -52.0 3.15 -50.15 3.05 -48.45 1.55 -48.45 0.6 -48.45 0.6 -49.8 0.6 -50.95 1.8 -51.6 M-61.1 -154.4 Q-61.1 -150.45 -60.3 -146.5 L-59.55 -143.3 Q-60.6 -138.45 -60.6 -136.75 -60.6 -129.5 -56.0 -122.15 -53.4 -118.0 -46.5 -110.4 L-52.6 -123.75 Q-55.05 -131.1 -55.05 -144.45 -55.05 -157.65 -49.1 -171.55 -44.4 -182.65 -41.25 -184.25 -49.75 -182.7 -55.4 -174.05 -61.1 -165.45 -61.1 -154.4 M-4.4 -119.55 Q-4.4 -121.6 -2.9 -121.45 -1.4 -121.45 -1.4 -119.7 -1.25 -117.65 -2.65 -117.65 -4.4 -117.65 -4.4 -119.55 M-4.2 -133.4 Q-3.5 -132.7 -3.5 -132.35 -3.5 -131.8 -3.7 -131.7 L-4.3 -131.65 Q-6.35 -132.75 -6.35 -133.6 L-6.1 -134.45 -4.2 -133.4 M-37.3 -128.65 Q-38.15 -129.2 -38.45 -129.85 L-38.55 -131.3 Q-38.55 -133.8 -37.5 -132.6 -36.45 -131.45 -36.45 -130.05 -36.45 -129.5 -37.3 -128.65 M-43.15 -151.0 L-42.7 -152.2 Q-42.1 -152.95 -40.9 -153.1 -40.65 -149.95 -40.0 -148.2 L-40.0 -146.25 -40.25 -146.05 -40.9 -145.95 Q-41.75 -145.95 -41.65 -146.25 L-42.5 -148.85 -43.15 -151.0 M-32.65 -88.9 Q-30.35 -84.65 -26.45 -82.6 L-26.3 -82.6 Q-28.5 -89.6 -28.5 -94.4 -28.5 -100.35 -27.2 -103.85 L-22.1 -114.95 Q-27.55 -114.95 -31.15 -110.0 -34.8 -104.9 -34.8 -96.95 -34.8 -92.75 -32.65 -88.9 M-21.3 -75.2 L-21.65 -74.25 Q-22.15 -73.25 -23.1 -73.25 -23.55 -73.25 -23.8 -73.55 L-24.0 -73.95 Q-21.3 -78.15 -21.3 -75.2 M-26.3 -62.4 Q-26.3 -63.95 -25.1 -63.2 -24.0 -62.5 -24.0 -61.7 -24.0 -60.9 -24.8 -60.75 -26.3 -61.25 -26.3 -62.4 M-32.3 -76.75 Q-30.9 -76.4 -30.9 -75.0 L-30.9 -74.35 Q-31.15 -73.9 -32.25 -73.9 -33.3 -73.9 -33.55 -74.45 L-33.65 -75.2 Q-33.65 -77.1 -32.3 -76.75 M-59.35 -110.2 Q-61.95 -109.35 -63.75 -106.45 -66.2 -102.6 -66.2 -96.95 -66.2 -86.9 -59.6 -80.25 -55.15 -75.6 -45.75 -71.35 -52.2 -79.0 -55.7 -87.7 -59.65 -97.3 -59.65 -106.35 L-59.35 -110.2 M-38.05 -57.6 Q-37.85 -56.85 -38.05 -56.35 -38.3 -55.15 -39.65 -55.15 -40.45 -55.15 -41.55 -56.55 -42.7 -57.95 -42.7 -58.6 -42.7 -60.55 -40.35 -60.45 -38.05 -60.25 -38.05 -57.6 M-35.6 -48.1 L-35.6 -47.35 Q-35.85 -46.7 -36.9 -46.7 -37.75 -46.7 -37.95 -47.2 L-38.05 -48.25 Q-38.05 -49.7 -36.85 -49.7 -35.6 -49.7 -35.6 -48.1 M-16.15 -47.4 L-15.95 -48.45 -13.9 -48.25 -13.8 -47.55 -14.05 -46.85 Q-14.35 -46.1 -14.9 -46.1 -16.15 -46.1 -16.15 -47.4 M-21.0 -53.3 L-21.05 -54.0 Q-21.05 -55.8 -19.1 -54.95 L-19.0 -54.25 Q-19.0 -52.85 -20.25 -52.85 -21.05 -52.85 -21.0 -53.3" fill="#fd0202" fill-rule="evenodd" stroke="none"/>
    <path d="M52.15 -181.75 L57.65 -177.2 58.5 -176.0 Q61.55 -171.55 62.2 -169.2 63.05 -166.5 63.05 -161.6 63.05 -157.5 62.5 -155.95 61.95 -154.05 60.2 -153.45 L60.2 -155.95 Q60.2 -164.6 51.5 -174.25 49.45 -176.5 44.9 -177.55 40.6 -178.5 39.75 -179.7 34.6 -187.4 26.85 -192.0 18.35 -197.1 8.95 -197.1 5.15 -197.1 -5.7 -194.1 L-6.65 -194.1 -6.65 -195.85 Q-5.9 -198.6 0.6 -201.5 7.05 -204.3 12.55 -204.3 35.55 -204.3 41.1 -187.4 41.4 -186.35 42.9 -186.05 45.0 -185.7 45.75 -185.25 46.25 -184.7 48.7 -183.6 L52.15 -181.75 M7.2 -160.5 L5.55 -161.2 Q2.35 -162.4 -1.8 -162.4 -8.25 -162.4 -14.7 -159.3 -23.75 -155.4 -24.8 -147.6 L-25.4 -150.15 -25.45 -152.6 Q-25.45 -159.15 -21.85 -164.0 -17.5 -169.65 -10.1 -169.65 -4.15 -169.65 0.0 -167.7 4.3 -165.5 7.2 -160.5 M33.35 -137.35 L33.1 -143.4 Q32.75 -145.55 31.7 -147.0 35.95 -141.5 36.9 -139.55 38.15 -136.4 38.15 -130.65 38.15 -121.8 33.35 -115.8 29.0 -110.5 23.65 -110.5 L21.7 -110.7 20.05 -111.05 Q26.35 -114.25 30.25 -124.1 33.35 -131.7 33.35 -137.35 M63.1 -129.35 Q68.45 -126.7 71.7 -122.15 76.0 -116.0 76.0 -107.7 76.0 -97.65 71.15 -90.15 67.3 -84.15 61.55 -81.05 L61.35 -81.15 Q65.85 -87.7 67.65 -94.15 69.7 -101.05 69.7 -111.4 69.7 -118.8 66.55 -124.55 65.6 -126.4 63.1 -129.35 M4.1 -90.35 L5.25 -89.25 5.8 -88.05 5.9 -87.15 Q5.9 -83.25 2.0 -83.25 -0.1 -83.25 -1.4 -84.7 -2.4 -85.9 -2.4 -87.3 -2.4 -88.9 -1.25 -90.2 0.0 -91.65 1.5 -91.65 2.75 -91.65 4.1 -90.35 M14.15 -79.95 L14.2 -78.35 Q14.2 -73.55 11.05 -69.95 8.25 -66.9 5.55 -66.9 -0.65 -66.9 -3.5 -72.2 -5.45 -75.85 -5.25 -80.5 -4.6 -77.95 -1.4 -75.75 2.15 -73.4 5.25 -73.4 8.45 -73.4 11.2 -75.4 13.7 -77.3 14.15 -79.95 M40.6 -77.5 Q41.95 -72.65 41.95 -69.7 41.95 -64.3 38.2 -60.25 34.75 -56.7 31.0 -56.7 L28.9 -56.7 Q31.1 -57.4 35.5 -64.6 39.7 -71.35 40.6 -77.5 M-61.1 -154.4 Q-61.1 -165.45 -55.4 -174.05 -49.75 -182.7 -41.25 -184.25 -44.4 -182.65 -49.1 -171.55 -55.05 -157.65 -55.05 -144.45 -55.05 -131.1 -52.6 -123.75 L-46.5 -110.4 Q-53.4 -118.0 -56.0 -122.15 -60.6 -129.5 -60.6 -136.75 -60.6 -138.45 -59.55 -143.3 L-60.3 -146.5 Q-61.1 -150.45 -61.1 -154.4 M-32.65 -88.9 Q-34.8 -92.75 -34.8 -96.95 -34.8 -104.9 -31.15 -110.0 -27.55 -114.95 -22.1 -114.95 L-27.2 -103.85 Q-28.5 -100.35 -28.5 -94.4 -28.5 -89.6 -26.3 -82.6 L-26.45 -82.6 Q-30.35 -84.65 -32.65 -88.9 M-59.35 -110.2 L-59.65 -106.35 Q-59.65 -97.3 -55.7 -87.7 -52.2 -79.0 -45.75 -71.35 -55.15 -75.6 -59.6 -80.25 -66.2 -86.9 -66.2 -96.95 -66.2 -102.6 -63.75 -106.45 -61.95 -109.35 -59.35 -110.2" fill="#ffff99" fill-rule="evenodd" stroke="none"/>
  </g>
</svg>
