<?xml version="1.0" encoding="UTF-8" standalone="no"?>
<svg xmlns:ffdec="https://www.free-decompiler.com/flash" xmlns:xlink="http://www.w3.org/1999/xlink" ffdec:objectType="shape" height="211.9px" width="187.85px" xmlns="http://www.w3.org/2000/svg">
  <g transform="matrix(1.0, 0.0, 0.0, 1.0, 97.6, 298.0)">
    <path d="M15.05 -260.05 Q13.85 -258.9 12.8 -258.9 11.5 -258.9 11.25 -260.05 11.0 -260.6 11.05 -261.25 11.05 -264.4 11.7 -264.4 L12.65 -264.1 Q13.3 -263.65 14.05 -263.45 L15.0 -263.2 Q16.15 -262.55 16.15 -261.45 16.15 -261.05 15.05 -260.05 M17.05 -256.3 Q18.0 -256.3 18.0 -255.5 18.0 -254.75 17.3 -254.75 16.15 -254.75 16.15 -255.55 16.15 -256.3 17.05 -256.3 M82.15 -265.75 Q82.15 -265.05 81.5 -264.35 80.85 -263.45 79.95 -263.45 L79.05 -263.6 78.5 -263.95 78.3 -265.4 Q78.3 -267.45 80.25 -267.45 82.15 -267.35 82.15 -265.75 M63.85 -257.6 L63.7 -258.9 Q63.7 -260.7 65.4 -260.6 67.2 -260.35 67.2 -258.85 67.2 -258.25 66.7 -257.8 66.3 -257.15 65.4 -257.15 L64.5 -257.3 63.85 -257.6 M74.9 -247.1 Q76.6 -247.1 76.6 -245.55 76.6 -244.9 76.15 -244.35 75.7 -243.65 74.85 -243.65 73.85 -243.65 73.5 -244.5 73.25 -244.95 73.25 -245.55 73.25 -247.2 74.9 -247.1 M86.45 -244.2 Q86.2 -244.65 86.3 -244.95 86.3 -247.1 88.3 -246.7 90.25 -246.2 90.25 -244.75 90.25 -243.95 89.6 -243.4 89.0 -243.0 88.3 -243.0 86.95 -243.0 86.45 -244.2 M88.3 -237.6 Q90.25 -237.05 90.25 -235.75 90.25 -235.15 89.8 -234.65 89.3 -234.0 88.5 -234.0 87.05 -234.0 86.5 -235.1 L86.3 -236.1 Q86.3 -238.0 88.3 -237.6 M69.7 -196.9 L69.55 -197.45 Q69.55 -198.3 70.5 -198.1 71.4 -198.1 71.4 -197.35 71.4 -196.45 70.5 -196.45 L69.7 -196.9 M51.4 -178.75 L51.15 -178.15 50.6 -177.85 49.85 -178.1 49.8 -178.75 Q49.8 -180.05 51.25 -179.25 L51.4 -178.75 M83.25 -184.3 Q83.25 -185.4 84.25 -185.4 85.2 -185.4 85.2 -184.55 85.2 -183.45 84.1 -183.45 83.4 -183.45 83.25 -183.85 L83.25 -184.3 M9.95 -184.2 Q10.85 -183.85 10.85 -183.1 L10.6 -182.4 10.15 -182.15 Q9.3 -182.15 9.1 -182.8 L9.1 -183.3 Q9.1 -184.6 9.95 -184.2 M40.7 -188.25 L40.65 -188.9 Q40.65 -189.65 41.4 -189.65 42.25 -189.65 42.25 -188.9 42.25 -188.0 41.6 -188.0 L40.7 -188.25 M7.75 -155.95 Q8.65 -155.75 8.65 -154.9 L8.4 -154.35 7.8 -154.15 Q7.2 -154.15 6.95 -154.75 L6.8 -155.2 Q6.8 -156.1 7.75 -155.95 M0.1 -154.9 Q-0.8 -154.9 -0.75 -155.85 -0.75 -156.65 0.1 -156.6 0.9 -156.55 0.9 -155.85 0.9 -154.9 0.1 -154.9 M13.45 -139.8 L13.1 -139.05 Q12.75 -138.7 12.45 -138.7 11.7 -138.7 11.7 -139.7 11.7 -140.55 12.55 -140.55 13.45 -140.55 13.45 -139.8 M7.75 -145.7 L7.45 -146.0 7.4 -146.55 Q7.4 -147.45 8.15 -147.45 8.95 -147.45 8.95 -146.55 8.85 -145.65 8.25 -145.65 L7.75 -145.7 M4.25 -140.35 Q5.2 -140.3 5.2 -139.55 5.2 -138.7 4.25 -138.7 3.3 -138.7 3.3 -139.55 3.3 -140.45 4.25 -140.35 M6.8 -133.85 Q6.5 -133.85 6.1 -134.1 L6.1 -134.8 Q6.1 -136.15 7.6 -135.6 7.8 -135.75 7.8 -135.2 7.8 -133.85 6.8 -133.85 M85.8 -167.55 Q85.45 -167.1 85.15 -167.1 84.7 -167.1 84.35 -167.35 L84.25 -168.05 Q84.25 -169.1 85.15 -169.1 86.1 -169.25 86.1 -168.25 L85.8 -167.55 M-48.75 -295.25 Q-47.85 -295.25 -47.85 -294.5 -47.85 -294.1 -48.15 -293.7 L-49.0 -293.45 -49.65 -293.65 -49.7 -294.3 Q-49.7 -295.25 -48.75 -295.25 M-53.3 -295.15 Q-54.6 -295.15 -54.6 -296.35 -54.6 -297.15 -53.4 -297.8 -52.25 -298.5 -52.25 -296.95 -52.25 -295.15 -53.3 -295.15 M-56.4 -287.6 Q-56.4 -288.5 -55.4 -288.45 -54.4 -288.4 -54.4 -287.6 -54.4 -286.85 -55.5 -286.85 -56.4 -286.85 -56.4 -287.6 M-55.4 -270.4 Q-54.5 -270.6 -54.5 -269.45 -54.5 -268.3 -55.5 -268.3 -56.6 -268.3 -56.4 -269.2 -56.4 -270.2 -55.4 -270.4 M-78.9 -257.95 Q-77.95 -257.75 -77.95 -257.15 L-78.15 -256.65 Q-78.5 -256.3 -78.8 -256.3 -79.8 -256.3 -79.8 -257.2 -79.8 -258.25 -78.9 -257.95 M-77.85 -242.0 Q-77.85 -242.65 -76.85 -242.7 -75.95 -242.7 -75.95 -241.85 L-76.2 -241.35 -76.7 -241.05 Q-77.85 -241.05 -77.85 -242.0 M-45.25 -277.85 Q-44.35 -277.85 -44.35 -277.15 -44.35 -276.7 -44.75 -276.25 L-45.35 -275.85 Q-46.3 -275.85 -46.2 -276.9 -46.2 -277.85 -45.25 -277.85 M-34.85 -267.7 Q-33.95 -267.75 -33.95 -267.0 L-34.2 -266.4 -34.65 -266.15 Q-35.7 -266.15 -35.7 -267.0 -35.7 -267.65 -34.85 -267.7 M-41.2 -243.05 Q-42.25 -243.05 -42.2 -244.0 -42.2 -244.9 -41.4 -244.9 -40.5 -244.9 -40.5 -244.05 -40.5 -243.05 -41.2 -243.05 M-57.7 -214.95 L-58.55 -214.3 Q-59.8 -214.3 -59.65 -215.8 -59.65 -217.25 -58.5 -217.35 -57.25 -217.6 -57.25 -216.1 -57.25 -215.7 -57.7 -214.95 M-56.15 -210.15 Q-56.15 -211.25 -54.75 -211.25 -54.05 -211.25 -53.65 -210.8 L-53.55 -210.45 Q-53.55 -210.1 -54.05 -209.75 -54.6 -209.25 -55.3 -209.25 -56.15 -209.25 -56.15 -210.15 M-85.65 -215.05 Q-85.65 -216.7 -83.95 -216.7 -82.95 -216.55 -82.65 -216.15 -82.4 -216.0 -82.4 -215.5 -82.4 -215.05 -83.05 -214.45 -83.85 -213.65 -84.4 -213.65 -85.7 -213.65 -85.65 -215.05 M-79.45 -218.6 Q-77.65 -218.75 -77.65 -217.45 -77.65 -215.5 -79.65 -215.5 -81.1 -215.5 -81.3 -216.8 -81.3 -218.35 -79.45 -218.6 M-83.85 -192.4 Q-84.25 -192.05 -84.6 -192.05 -85.9 -192.05 -85.9 -193.4 -85.9 -194.5 -84.5 -194.5 -83.2 -194.5 -83.2 -193.4 -83.2 -192.8 -83.85 -192.4 M-94.0 -202.6 Q-95.8 -200.05 -96.45 -200.05 -96.75 -200.05 -97.4 -200.55 L-97.6 -201.55 -97.05 -203.45 Q-96.3 -205.15 -95.8 -205.4 L-93.1 -206.55 Q-92.15 -206.55 -92.15 -205.25 L-94.0 -202.6 M-94.4 -176.85 L-95.8 -177.1 -95.8 -178.6 Q-95.8 -180.45 -94.25 -180.3 -92.95 -180.15 -92.95 -178.85 -92.95 -178.5 -93.45 -177.6 -94.1 -176.85 -94.4 -176.85 M-57.65 -157.7 Q-57.65 -158.6 -56.8 -158.6 -55.95 -158.6 -55.95 -157.6 L-56.05 -157.05 Q-56.15 -156.65 -56.65 -156.65 -57.65 -156.65 -57.65 -157.7 M-56.8 -156.4 Q-55.3 -156.4 -55.3 -154.8 -55.3 -154.25 -55.85 -153.8 -56.35 -153.25 -56.7 -153.25 -58.9 -153.25 -58.6 -154.9 -58.6 -156.4 -56.8 -156.4 M-83.3 -155.45 Q-81.6 -155.5 -81.6 -153.7 -81.6 -153.15 -81.95 -152.6 -82.4 -151.7 -83.3 -151.7 -85.2 -151.7 -85.15 -153.7 -85.15 -155.3 -83.3 -155.45 M-94.25 -168.7 Q-94.25 -168.05 -94.7 -167.1 -95.05 -166.1 -95.8 -166.1 -97.4 -166.1 -97.05 -167.8 -97.05 -169.65 -95.55 -169.7 -94.25 -169.9 -94.25 -168.7 M-59.45 -146.25 Q-59.45 -147.45 -58.15 -147.45 -56.7 -147.45 -56.7 -146.25 -56.7 -145.8 -57.05 -145.25 -57.35 -144.95 -57.9 -144.95 -59.45 -144.95 -59.45 -146.25 M-2.25 -165.15 Q-2.25 -164.85 -2.65 -164.5 -3.0 -164.05 -3.3 -164.05 L-3.95 -164.3 -4.0 -165.0 Q-4.0 -165.9 -3.05 -165.9 -2.25 -165.9 -2.25 -165.15 M-15.9 -147.9 Q-15.0 -147.9 -15.0 -147.0 -15.0 -146.0 -15.8 -146.0 -16.8 -146.0 -16.8 -147.1 -16.8 -147.9 -15.9 -147.9 M-3.8 -157.3 Q-3.8 -156.4 -4.65 -156.4 -6.15 -156.4 -6.15 -157.5 -6.15 -158.5 -4.95 -158.55 -3.8 -158.75 -3.8 -157.3 M-25.3 -146.25 Q-25.3 -147.2 -24.2 -147.0 -23.1 -146.95 -23.1 -146.3 -23.1 -145.9 -23.55 -145.5 -23.85 -145.25 -24.4 -145.25 -25.3 -145.25 -25.3 -146.25 M-7.05 -139.55 Q-7.05 -139.25 -7.45 -138.85 L-8.1 -138.45 Q-8.75 -138.45 -8.95 -138.9 L-8.95 -139.5 Q-8.95 -140.35 -8.0 -140.35 -7.05 -140.35 -7.05 -139.55 M-20.95 -140.5 Q-19.8 -140.45 -19.8 -139.35 L-20.1 -138.75 Q-20.45 -138.45 -20.7 -138.45 -21.7 -138.45 -22.2 -139.7 -22.2 -140.65 -20.95 -140.5 M-13.5 -138.55 Q-13.9 -138.2 -14.25 -138.2 -15.2 -138.2 -15.0 -139.05 -15.0 -140.0 -14.1 -140.0 -13.15 -140.0 -13.15 -139.2 -13.15 -138.85 -13.5 -138.55 M-16.65 -137.35 Q-15.8 -137.05 -15.8 -136.1 L-15.9 -135.6 -16.15 -135.45 -16.55 -135.4 Q-17.75 -135.4 -17.6 -136.45 -17.6 -137.6 -16.65 -137.35 M-12.7 -131.35 L-12.65 -132.2 Q-11.1 -132.85 -11.1 -131.35 -11.1 -130.2 -12.0 -130.2 -12.3 -130.2 -12.65 -130.55 L-12.7 -131.35 M-8.1 -104.55 Q-8.1 -105.4 -7.1 -105.35 -6.15 -105.25 -6.15 -104.55 -6.15 -103.65 -7.1 -103.65 -8.1 -103.65 -8.1 -104.55 M-5.9 -95.75 Q-6.95 -95.75 -6.65 -96.7 -6.65 -97.65 -5.8 -97.65 -5.05 -97.65 -5.05 -96.7 -5.05 -95.75 -5.9 -95.75 M-6.7 -93.05 L-5.7 -93.15 -5.6 -92.6 -5.9 -92.15 Q-6.15 -91.85 -6.4 -91.85 L-7.1 -91.95 -7.25 -92.3 Q-7.25 -92.75 -6.7 -93.05 M-4.95 -86.1 L-5.6 -86.55 -5.15 -87.3 Q-4.65 -87.5 -4.4 -86.8 -4.4 -86.2 -4.95 -86.1" fill="#ffff99" fill-opacity="0.0627451" fill-rule="evenodd" stroke="none"/>
  </g>
</svg>
