<?xml version="1.0" encoding="UTF-8" standalone="no"?>
<svg xmlns:ffdec="https://www.free-decompiler.com/flash" xmlns:xlink="http://www.w3.org/1999/xlink" ffdec:objectType="shape" height="194.2px" width="254.2px" xmlns="http://www.w3.org/2000/svg">
  <g transform="matrix(1.0, 0.0, 0.0, 1.0, 123.6, 273.35)">
    <path d="M49.7 -269.55 Q49.05 -270.2 49.05 -271.15 49.05 -272.1 49.7 -272.75 50.35 -273.35 51.3 -273.35 52.25 -273.35 52.9 -272.75 53.5 -272.1 53.5 -271.15 53.5 -270.2 52.9 -269.55 52.25 -268.95 51.3 -268.95 50.35 -268.95 49.7 -269.55 M103.85 -177.85 Q103.55 -178.1 103.55 -178.4 103.55 -178.75 103.85 -178.9 L104.5 -179.15 105.2 -178.9 105.45 -178.4 105.2 -177.85 104.5 -177.7 103.85 -177.85 M128.6 -133.95 Q128.25 -134.25 128.25 -134.75 128.25 -135.25 128.6 -135.55 L129.4 -135.85 130.3 -135.55 130.6 -134.75 130.3 -133.95 129.4 -133.65 Q128.95 -133.65 128.6 -133.95 M40.95 -170.95 Q40.35 -171.5 40.35 -172.3 40.35 -173.1 40.95 -173.55 41.6 -174.15 42.55 -174.15 43.5 -174.15 44.15 -173.55 44.8 -173.1 44.8 -172.3 44.8 -171.5 44.15 -170.95 43.5 -170.5 42.55 -170.5 41.6 -170.5 40.95 -170.95 M29.8 -146.4 L29.05 -146.25 28.35 -146.4 Q28.05 -146.65 28.05 -147.0 28.05 -147.3 28.35 -147.45 L29.05 -147.7 29.8 -147.45 30.1 -147.0 29.8 -146.4 M74.5 -124.2 Q74.15 -123.85 73.7 -123.85 73.2 -123.85 72.9 -124.2 72.55 -124.5 72.55 -124.9 72.55 -125.3 72.9 -125.6 73.2 -125.95 73.7 -125.95 74.15 -125.95 74.5 -125.6 L74.8 -124.9 74.5 -124.2 M41.35 -101.7 L41.35 -102.9 43.05 -102.9 43.05 -101.7 41.35 -101.7 M-86.0 -208.35 L-85.65 -209.3 Q-85.35 -209.8 -84.85 -209.8 L-84.05 -209.3 Q-83.75 -208.9 -83.75 -208.35 -83.75 -207.8 -84.05 -207.3 -84.4 -206.9 -84.85 -206.9 -85.35 -206.9 -85.65 -207.3 L-86.0 -208.35 M-33.4 -241.6 Q-32.95 -242.1 -32.3 -242.1 -31.65 -242.1 -31.2 -241.6 -30.7 -241.15 -30.7 -240.4 -30.7 -239.7 -31.2 -239.25 -31.65 -238.75 -32.3 -238.75 -32.95 -238.75 -33.4 -239.25 -33.9 -239.7 -33.9 -240.4 -33.9 -241.15 -33.4 -241.6 M-12.0 -166.6 L-11.05 -167.05 Q-10.45 -167.05 -10.1 -166.6 -9.7 -166.2 -9.7 -165.65 -9.7 -165.1 -10.1 -164.6 -10.45 -164.2 -11.05 -164.2 -11.6 -164.2 -12.0 -164.6 -12.4 -165.1 -12.4 -165.65 -12.4 -166.2 -12.0 -166.6 M-54.05 -176.9 L-56.75 -178.5 -55.0 -178.65 -54.05 -176.9 M-74.8 -173.65 L-74.05 -173.35 -73.85 -172.7 -74.05 -172.0 Q-74.4 -171.75 -74.8 -171.75 -75.2 -171.75 -75.4 -172.0 -75.75 -172.3 -75.75 -172.7 L-75.4 -173.35 Q-75.2 -173.65 -74.8 -173.65 M-50.5 -134.25 Q-50.5 -133.7 -50.9 -133.3 -51.3 -133.0 -51.85 -133.0 -52.4 -133.0 -52.8 -133.3 -53.2 -133.7 -53.2 -134.25 -53.2 -134.85 -52.8 -135.15 -52.4 -135.55 -51.85 -135.55 -51.3 -135.55 -50.9 -135.15 -50.5 -134.85 -50.5 -134.25 M-34.2 -138.55 Q-34.75 -138.55 -35.1 -138.9 -35.5 -139.3 -35.5 -139.75 -35.5 -140.25 -35.1 -140.55 -34.75 -140.95 -34.2 -140.95 -33.65 -140.95 -33.25 -140.55 -32.95 -140.25 -32.95 -139.75 -32.95 -139.3 -33.25 -138.9 -33.65 -138.55 -34.2 -138.55 M-6.9 -114.45 L-7.7 -116.0 -6.1 -116.0 -6.9 -114.45 M-108.35 -176.6 Q-108.05 -177.05 -107.55 -177.05 -107.1 -177.05 -106.8 -176.6 -106.45 -176.2 -106.45 -175.65 -106.45 -175.1 -106.8 -174.6 -107.1 -174.2 -107.55 -174.2 -108.05 -174.2 -108.35 -174.6 L-108.7 -175.65 Q-108.7 -176.2 -108.35 -176.6 M-112.6 -157.05 Q-112.2 -156.65 -112.2 -156.05 -112.2 -155.4 -112.6 -154.9 -113.05 -154.5 -113.6 -154.5 -114.15 -154.5 -114.55 -154.9 -115.05 -155.4 -115.05 -156.05 -115.05 -156.65 -114.55 -157.05 -114.15 -157.55 -113.6 -157.55 -113.05 -157.55 -112.6 -157.05 M-123.2 -126.65 Q-122.9 -127.05 -122.35 -127.05 -121.8 -127.05 -121.4 -126.65 -121.05 -126.35 -121.05 -125.85 -121.05 -125.4 -121.4 -125.0 -121.8 -124.65 -122.35 -124.65 -122.9 -124.65 -123.2 -125.0 -123.6 -125.4 -123.6 -125.85 -123.6 -126.35 -123.2 -126.65 M-94.95 -124.5 Q-95.45 -124.5 -95.75 -124.85 L-96.05 -125.55 -95.75 -126.25 -94.95 -126.55 -94.15 -126.25 Q-93.85 -125.95 -93.85 -125.55 -93.85 -125.15 -94.15 -124.85 -94.45 -124.5 -94.95 -124.5 M-84.55 -99.65 Q-84.55 -99.25 -84.95 -98.95 -85.35 -98.7 -85.9 -98.7 -86.45 -98.7 -86.85 -98.95 -87.25 -99.25 -87.25 -99.65 L-86.85 -100.3 -85.9 -100.6 Q-85.35 -100.6 -84.95 -100.3 -84.55 -100.05 -84.55 -99.65 M-20.85 -79.5 Q-21.2 -79.8 -21.2 -80.2 L-20.85 -80.9 -20.1 -81.25 Q-19.6 -81.25 -19.3 -80.9 -18.95 -80.6 -18.95 -80.2 -18.95 -79.8 -19.3 -79.5 -19.6 -79.15 -20.1 -79.15 -20.55 -79.15 -20.85 -79.5" fill="#2f2f2f" fill-opacity="0.08627451" fill-rule="evenodd" stroke="none"/>
  </g>
</svg>
