<?xml version="1.0" encoding="UTF-8" standalone="no"?>
<svg xmlns:ffdec="https://www.free-decompiler.com/flash" xmlns:xlink="http://www.w3.org/1999/xlink" ffdec:objectType="shape" height="51.05px" width="29.8px" xmlns="http://www.w3.org/2000/svg">
  <g transform="matrix(1.0, 0.0, 0.0, 1.0, 15.7, 38.0)">
    <path d="M6.0 -33.3 L6.1 -32.95 6.1 -32.9 5.85 -31.4 Q5.85 -30.65 6.15 -30.05 L6.55 -29.1 7.5 -27.35 7.65 -27.0 7.7 -26.55 7.85 -25.65 7.9 -24.7 7.4 -25.15 Q6.2 -26.3 5.55 -26.5 L5.45 -26.6 5.25 -26.7 4.55 -27.4 Q4.05 -28.1 4.05 -29.25 4.05 -30.6 4.55 -31.45 L6.0 -33.3 M0.0 -35.05 L0.05 -35.0 0.05 -35.35 -0.2 -36.45 Q-0.5 -37.15 -1.55 -37.25 L-2.05 -37.1 -2.7 -37.45 Q-2.05 -38.0 -1.2 -38.0 0.75 -38.0 0.75 -34.95 L0.65 -33.65 0.6 -33.7 0.4 -33.95 0.25 -34.5 0.0 -35.05 M4.7 -29.35 Q4.7 -28.3 5.15 -27.65 L5.25 -27.5 5.8 -27.1 6.1 -26.9 7.2 -26.15 Q7.15 -27.05 6.05 -28.8 5.25 -30.0 5.3 -30.9 L5.25 -31.25 4.9 -30.5 4.7 -29.35 M0.6 -30.85 Q1.7 -29.3 1.7 -27.6 L1.6 -26.0 Q1.6 -25.5 1.9 -24.95 L2.2 -24.25 2.2 -24.2 Q2.9 -23.45 3.8 -23.45 L4.35 -23.55 4.85 -23.8 5.1 -24.15 5.0 -24.45 5.0 -24.75 4.8 -25.7 4.9 -25.7 5.35 -25.3 6.05 -24.85 6.5 -24.5 6.6 -24.4 Q7.35 -23.45 7.9 -23.25 L8.75 -22.45 11.55 -19.05 Q14.0 -15.3 14.0 -10.9 L14.0 -10.15 14.0 -9.85 Q14.0 -7.9 12.5 -5.0 11.0 -2.1 11.0 0.05 L11.25 1.3 11.6 1.95 Q11.65 2.5 12.4 2.5 13.05 2.5 13.75 1.5 L14.0 1.15 14.1 2.15 14.05 2.95 Q14.05 5.4 12.15 8.45 L11.6 9.35 11.5 9.4 11.45 9.45 Q10.5 10.6 8.35 11.5 4.7 13.05 -0.55 13.05 -5.7 13.05 -9.35 11.5 -11.5 10.6 -12.4 9.45 L-12.45 9.45 -12.55 9.25 -12.95 8.4 -13.8 6.05 -13.8 6.0 -13.8 6.05 -12.9 7.1 -12.55 7.3 -12.35 7.3 -12.05 7.4 Q-11.15 7.4 -11.15 5.9 L-11.2 5.35 -11.25 5.15 -11.65 4.1 -11.8 3.7 -12.95 1.65 -14.5 -2.3 Q-15.7 -6.25 -15.7 -9.7 L-15.35 -13.05 Q-15.05 -15.05 -14.6 -16.1 L-13.2 -19.05 -11.95 -20.5 -10.95 -21.1 -10.55 -21.3 -11.05 -19.3 -11.05 -19.1 -11.1 -18.65 -11.1 -18.5 -10.95 -18.15 -10.5 -18.0 Q-9.85 -18.0 -9.2 -18.85 L-8.9 -19.3 -8.8 -19.65 -8.7 -20.1 -8.5 -21.3 -8.45 -22.0 Q-7.75 -23.8 -6.25 -25.5 -5.6 -26.15 -5.35 -27.4 L-5.05 -29.55 -4.15 -31.55 Q-3.4 -32.85 -2.8 -33.05 L-3.1 -31.65 -2.95 -30.7 -2.95 -30.6 Q-2.95 -29.5 -1.95 -29.5 L-1.35 -29.6 -1.3 -29.6 Q-0.7 -29.6 -0.3 -30.65 L0.0 -31.55 0.6 -30.85 M1.25 -13.15 L1.65 -13.6 0.2 -13.25 Q-1.1 -12.6 -2.05 -11.8 -3.45 -10.55 -3.85 -9.35 L-4.5 -6.9 -4.85 -5.45 Q-5.2 -4.5 -5.85 -4.5 L-6.05 -4.7 -6.2 -5.4 -6.2 -5.65 -7.0 -4.6 -7.85 -3.05 -8.25 -1.6 -8.3 -0.35 -8.15 1.05 -8.0 2.3 -7.95 2.55 -7.9 3.0 -7.95 3.45 -8.05 3.6 -8.3 3.7 -8.35 3.7 -8.9 3.2 -9.05 2.5 Q-9.4 2.6 -9.55 4.25 L-9.55 4.35 -9.65 5.5 Q-9.65 7.6 -9.05 9.45 -1.4 12.45 6.65 9.45 L6.8 8.6 Q7.1 7.5 8.0 5.7 L8.5 4.35 8.5 4.2 8.6 3.2 8.5 0.8 Q8.3 -0.95 7.9 -1.35 L7.85 -1.3 7.8 -1.2 7.55 -0.95 7.5 -0.9 7.15 -0.75 7.1 -0.8 6.95 -0.8 Q6.65 -0.8 6.5 -1.1 L6.45 -1.4 6.45 -1.5 6.4 -1.35 6.35 -1.7 6.4 -2.5 6.05 -4.45 Q5.2 -7.4 3.15 -8.2 L3.05 -8.35 2.9 -8.15 2.45 -7.75 2.2 -7.7 Q1.15 -7.7 0.6 -9.2 0.2 -10.2 0.2 -10.85 L0.3 -11.55 0.5 -12.15 1.0 -12.8 1.25 -13.15 M-11.5 -30.65 L-10.8 -31.6 -10.7 -32.25 -10.8 -33.1 -11.05 -33.55 -11.1 -33.55 -11.1 -32.5 -11.1 -32.45 -11.1 -32.35 -11.5 -30.75 -11.55 -30.7 -11.55 -30.65 -11.5 -30.65 M-11.55 -35.1 Q-10.25 -33.5 -10.25 -32.0 -10.25 -31.25 -10.6 -30.85 -11.05 -30.4 -12.35 -29.8 L-12.65 -29.8 -12.65 -29.85 Q-11.5 -31.7 -11.5 -34.0 L-11.55 -35.1" fill="url(#gradient0)" fill-rule="evenodd" stroke="none"/>
    <path d="M4.7 -29.35 L4.9 -30.5 5.25 -31.25 5.3 -30.9 Q5.25 -30.0 6.05 -28.8 7.15 -27.05 7.2 -26.15 L6.1 -26.9 5.8 -27.1 5.25 -27.5 5.15 -27.65 Q4.7 -28.3 4.7 -29.35 M-11.55 -30.7 L-11.5 -30.75 -11.1 -32.35 -11.1 -32.45 -11.1 -32.5 -11.1 -33.55 -11.05 -33.55 -10.8 -33.1 -10.7 -32.25 -10.8 -31.6 -11.5 -30.65 -11.55 -30.7" fill="url(#gradient1)" fill-rule="evenodd" stroke="none"/>
    <path d="M-2.05 -37.1 L-1.55 -37.25 Q-0.5 -37.15 -0.2 -36.45 L0.05 -35.35 0.05 -35.0 0.0 -35.05 -0.45 -35.8 -1.9 -37.0 -2.05 -37.1" fill="url(#gradient2)" fill-rule="evenodd" stroke="none"/>
    <path d="M1.25 -13.15 L1.0 -12.8 0.5 -12.15 0.3 -11.55 0.2 -10.85 Q0.2 -10.2 0.6 -9.2 1.15 -7.7 2.2 -7.7 L2.45 -7.75 2.9 -8.15 3.05 -8.35 3.15 -8.2 Q5.2 -7.4 6.05 -4.45 L6.4 -2.5 6.35 -1.7 6.4 -1.35 6.45 -1.5 6.45 -1.4 6.5 -1.1 Q6.65 -0.8 6.95 -0.8 L7.1 -0.8 7.15 -0.75 7.5 -0.9 7.55 -0.95 7.8 -1.2 7.85 -1.3 7.9 -1.35 Q8.3 -0.95 8.5 0.8 L8.6 3.2 8.5 4.2 8.5 4.35 8.0 5.7 Q7.1 7.5 6.8 8.6 L6.65 9.45 Q-1.4 12.45 -9.05 9.45 -9.65 7.6 -9.65 5.5 L-9.55 4.35 -9.55 4.25 Q-9.4 2.6 -9.05 2.5 L-8.9 3.2 -8.35 3.7 -8.3 3.7 -8.05 3.6 -7.95 3.45 -7.9 3.0 -7.95 2.55 -8.0 2.3 -8.15 1.05 -8.3 -0.35 -8.25 -1.6 -7.85 -3.05 -7.0 -4.6 -6.2 -5.65 -6.2 -5.4 -6.05 -4.7 -5.85 -4.5 Q-5.2 -4.5 -4.85 -5.45 L-4.5 -6.9 -3.85 -9.35 Q-3.45 -10.55 -2.05 -11.8 -1.1 -12.6 0.2 -13.25 L1.65 -13.6 1.25 -13.15" fill="#ffffff" fill-rule="evenodd" stroke="none"/>
  </g>
  <defs>
    <radialGradient cx="0" cy="0" gradientTransform="matrix(4.0E-4, -0.0397, 0.0309, 3.0E-4, -1.1, 10.5)" gradientUnits="userSpaceOnUse" id="gradient0" r="819.2" spreadMethod="pad">
      <stop offset="0.23921568627450981" stop-color="#ffff00"/>
      <stop offset="0.5490196078431373" stop-color="#ffffcc"/>
      <stop offset="1.0" stop-color="#ffff66"/>
    </radialGradient>
    <radialGradient cx="0" cy="0" gradientTransform="matrix(4.0E-4, -0.0397, 0.0309, 3.0E-4, -0.65, 21.15)" gradientUnits="userSpaceOnUse" id="gradient1" r="819.2" spreadMethod="pad">
      <stop offset="0.23921568627450981" stop-color="#ffff00"/>
      <stop offset="0.5490196078431373" stop-color="#ffffcc"/>
      <stop offset="1.0" stop-color="#ffff66"/>
    </radialGradient>
    <radialGradient cx="0" cy="0" gradientTransform="matrix(4.0E-4, -0.0397, 0.0309, 3.0E-4, -0.65, 22.05)" gradientUnits="userSpaceOnUse" id="gradient2" r="819.2" spreadMethod="pad">
      <stop offset="0.23921568627450981" stop-color="#ffff00"/>
      <stop offset="0.5490196078431373" stop-color="#ffffcc"/>
      <stop offset="1.0" stop-color="#ffff66"/>
    </radialGradient>
  </defs>
</svg>
