<?xml version="1.0" encoding="UTF-8" standalone="no"?>
<svg xmlns:ffdec="https://www.free-decompiler.com/flash" xmlns:xlink="http://www.w3.org/1999/xlink" ffdec:objectType="shape" height="44.15px" width="30.45px" xmlns="http://www.w3.org/2000/svg">
  <g transform="matrix(1.0, 0.0, 0.0, 1.0, 15.8, 34.45)">
    <path d="M0.45 -33.0 L1.15 -30.75 1.4 -28.4 1.4 -28.2 1.75 -27.1 2.75 -26.2 2.65 -26.1 2.05 -26.6 2.35 -26.2 2.65 -26.0 Q2.95 -25.75 3.5 -25.7 L4.45 -25.6 5.15 -25.7 5.1 -25.6 5.1 -25.55 5.3 -25.75 5.35 -25.6 5.25 -25.35 Q5.25 -24.8 5.7 -23.65 6.2 -22.25 6.75 -22.25 L7.35 -22.65 7.55 -23.3 7.5 -23.6 7.5 -23.65 7.4 -23.8 7.45 -23.8 7.4 -23.9 7.45 -23.95 7.7 -23.65 9.9 -20.95 12.1 -17.85 Q13.1 -16.35 13.8 -14.45 14.65 -12.1 14.65 -10.05 L14.4 -8.35 14.25 -7.5 14.25 -7.45 13.4 -4.7 12.3 -1.95 11.3 0.45 Q10.6 2.3 10.6 3.2 10.6 4.55 11.6 4.55 L12.3 4.2 12.5 4.1 12.45 4.05 12.65 3.95 12.8 3.75 12.9 3.75 13.9 2.55 14.05 2.8 14.0 3.5 13.75 4.55 13.3 6.25 12.6 7.8 Q12.05 8.7 11.95 9.3 L11.95 9.35 11.95 9.45 12.0 9.5 11.9 9.7 -11.85 9.7 -12.0 9.6 -12.05 9.6 -12.1 9.65 -12.15 9.7 -12.3 9.65 -12.35 9.6 -12.35 9.4 -13.05 8.0 -13.0 7.95 -12.0 8.6 Q-11.65 8.6 -11.65 7.55 -11.65 6.7 -11.95 5.5 L-12.15 4.5 -12.15 4.45 -12.2 4.45 -12.5 3.6 -13.4 1.6 -14.55 -1.3 Q-15.8 -5.5 -15.8 -7.8 -15.8 -10.8 -15.4 -12.05 L-15.45 -12.1 -14.65 -15.85 Q-14.2 -16.55 -13.45 -18.2 L-13.2 -18.8 -13.1 -18.65 -13.2 -18.15 Q-13.2 -15.65 -11.95 -15.65 L-11.8 -15.65 -11.45 -16.05 -11.2 -16.8 -10.8 -18.55 -9.4 -21.6 -7.45 -24.35 -5.9 -25.95 -5.55 -26.55 -5.35 -27.1 -5.1 -28.35 -4.6 -30.75 -3.6 -32.4 -3.2 -32.7 -2.55 -33.3 -1.7 -33.8 -1.3 -34.05 -1.25 -34.05 -1.2 -34.05 -0.1 -34.45 -1.1 -33.4 Q-1.55 -32.9 -1.55 -32.0 L-0.6 -29.9 Q-0.15 -30.35 0.1 -31.15 0.45 -32.05 0.35 -32.95 L0.45 -33.0 M13.55 3.3 L13.8 3.55 13.8 3.0 13.55 3.3 M-12.0 -30.05 L-12.1 -29.55 -11.4 -27.7 Q-10.75 -26.1 -10.75 -25.15 -10.75 -24.45 -12.1 -23.0 -13.4 -21.55 -13.35 -20.55 L-13.45 -20.5 -13.65 -20.55 -13.6 -22.8 Q-13.45 -22.95 -13.4 -23.6 -13.25 -23.9 -13.25 -24.35 L-12.75 -25.85 Q-12.35 -26.75 -12.35 -27.4 L-12.55 -29.1 -12.45 -29.55 -12.35 -30.2 Q-12.0 -30.2 -12.0 -30.05 M-12.4 3.5 L-12.4 3.55 -12.4 3.5" fill="url(#gradient0)" fill-rule="evenodd" stroke="none"/>
    <path d="M0.9 -21.25 L0.65 -20.5 0.55 -19.65 Q0.55 -18.9 1.0 -17.55 1.8 -15.7 3.05 -15.7 L3.3 -15.75 Q3.65 -15.85 3.9 -16.3 L4.15 -16.55 4.25 -16.3 Q6.75 -15.3 7.8 -11.65 L8.4 -9.15 8.25 -8.2 8.25 -7.7 Q8.25 -7.9 8.4 -7.9 L8.4 -7.75 8.45 -7.45 Q8.65 -7.0 9.05 -7.0 L9.15 -7.0 9.3 -7.0 9.65 -7.2 9.75 -7.2 10.0 -7.5 10.1 -7.7 10.2 -7.75 Q10.7 -7.2 10.95 -5.0 L11.0 -2.1 Q11.0 -0.5 10.35 1.1 9.2 3.4 8.8 4.8 8.4 6.3 8.65 8.2 L8.4 9.25 -9.2 9.25 -9.5 8.85 -10.25 7.5 -10.95 6.25 Q-11.85 3.65 -11.85 0.85 -11.65 -2.75 -11.0 -2.9 L-10.9 -2.1 Q-10.6 -1.45 -10.2 -1.45 -9.75 -1.45 -9.65 -1.75 L-9.6 -2.3 -9.65 -2.8 -9.75 -3.15 -9.9 -4.7 -10.1 -6.5 -10.0 -8.05 -9.6 -9.85 -8.45 -11.8 -7.5 -13.1 -7.5 -12.85 -7.25 -12.0 -7.0 -11.75 Q-6.25 -11.75 -5.8 -12.85 -5.6 -13.15 -5.35 -14.75 L-4.5 -17.8 Q-4.05 -19.25 -2.3 -20.85 -1.1 -21.85 0.55 -22.65 L2.35 -23.1 1.85 -22.55 1.6 -22.05 0.9 -21.25 M-11.0 -11.45 L-11.2 -10.8 -11.3 -10.05 -11.3 -9.9 -11.15 -9.15 -11.0 -8.85 -10.9 -7.75 -11.2 -6.75 Q-11.6 -5.9 -11.95 -5.9 L-12.15 -5.95 -12.15 -6.05 -12.2 -6.15 -12.1 -6.5 -11.9 -6.75 -12.15 -7.65 -12.35 -8.7 -12.35 -8.9 -12.35 -9.1 -12.4 -9.1 -12.15 -10.05 -11.95 -10.15 -11.0 -11.45 M-11.65 -6.75 L-11.65 -6.6 -11.6 -6.75 -11.65 -6.75" fill="#ffcc00" fill-rule="evenodd" stroke="none"/>
  </g>
  <defs>
    <radialGradient cx="0" cy="0" gradientTransform="matrix(2.0E-4, -0.027, 0.0309, 3.0E-4, -2.1, -19.95)" gradientUnits="userSpaceOnUse" id="gradient0" r="819.2" spreadMethod="pad">
      <stop offset="0.6549019607843137" stop-color="#ffff66"/>
      <stop offset="1.0" stop-color="#ffcc00"/>
    </radialGradient>
  </defs>
</svg>
