<?xml version="1.0" encoding="UTF-8" standalone="no"?>
<svg xmlns:ffdec="https://www.free-decompiler.com/flash" xmlns:xlink="http://www.w3.org/1999/xlink" ffdec:objectType="shape" height="85.8px" width="31.95px" xmlns="http://www.w3.org/2000/svg">
  <g transform="matrix(1.0, 0.0, 0.0, 1.0, 46.4, 89.75)">
    <path d="M-40.6 -8.9 L-41.3 -14.0 Q-41.3 -17.95 -39.55 -18.9 L-35.05 -19.4 Q-32.7 -19.4 -32.05 -21.5 -31.75 -22.6 -31.9 -23.75 L-32.0 -25.15 -31.9 -25.1 -31.75 -23.95 -31.6 -24.15 Q-31.2 -24.0 -31.1 -23.1 L-31.0 -21.8 -30.1 -19.2 Q-29.9 -18.25 -28.9 -17.1 -26.4 -15.05 -19.6 -12.7 -18.1 -12.2 -17.05 -11.55 -16.3 -11.25 -16.0 -10.95 L-15.7 -10.6 Q-14.5 -9.5 -14.5 -8.15 L-14.5 -8.05 -14.45 -7.55 -14.6 -7.05 -14.7 -7.0 -15.05 -6.65 -15.65 -5.55 Q-16.75 -3.95 -21.7 -3.95 -25.5 -3.95 -28.2 -5.25 -31.45 -7.2 -33.95 -8.55 -36.85 -10.1 -40.45 -8.7 L-40.5 -8.7 -40.6 -8.9 M-37.6 -87.4 L-37.85 -89.55 -37.7 -89.7 Q-37.2 -88.95 -37.05 -87.4 -36.5 -86.2 -35.8 -83.3 -34.7 -78.9 -34.7 -76.55 -34.7 -70.0 -43.8 -63.65 L-44.9 -62.45 -45.4 -61.45 Q-45.6 -60.8 -46.0 -60.8 L-46.3 -60.85 -46.25 -60.9 -46.4 -61.2 -45.45 -62.4 -45.5 -62.55 Q-45.2 -65.2 -43.45 -68.95 L-40.2 -75.2 Q-38.7 -78.1 -38.1 -81.7 -37.75 -83.9 -37.6 -87.25 L-37.6 -87.4" fill="#fefe6a" fill-opacity="0.61960787" fill-rule="evenodd" stroke="none"/>
  </g>
</svg>
