<?xml version="1.0" encoding="UTF-8" standalone="no"?>
<svg xmlns:ffdec="https://www.free-decompiler.com/flash" xmlns:xlink="http://www.w3.org/1999/xlink" ffdec:objectType="shape" height="85.2px" width="43.5px" xmlns="http://www.w3.org/2000/svg">
  <g transform="matrix(1.0, 0.0, 0.0, 1.0, 50.45, 90.6)">
    <path d="M-37.6 -87.75 L-37.85 -85.75 -38.05 -84.35 Q-38.65 -84.35 -38.6 -83.7 L-38.6 -82.05 Q-38.5 -80.9 -39.1 -78.6 -39.8 -75.6 -40.0 -75.15 -40.7 -73.25 -42.35 -71.9 L-42.35 -71.75 -42.25 -71.7 -41.95 -71.4 -40.45 -71.85 Q-39.1 -71.85 -38.05 -70.3 L-36.85 -68.0 -35.85 -66.15 -34.7 -64.6 -33.85 -63.5 -31.6 -61.05 -28.55 -58.65 Q-26.3 -57.15 -25.05 -56.55 -23.0 -55.55 -20.2 -54.9 L-15.95 -54.05 -13.3 -53.6 -12.8 -53.35 -12.8 -53.15 -11.5 -52.3 Q-10.0 -50.9 -9.25 -48.0 L-9.05 -45.45 Q-8.95 -43.75 -8.5 -43.05 -7.7 -44.0 -7.55 -45.5 L-7.3 -48.15 Q-6.95 -51.65 -6.95 -53.15 -6.95 -58.3 -8.5 -62.55 -9.2 -64.55 -10.25 -66.2 -10.65 -67.35 -11.15 -67.9 L-13.8 -73.45 Q-17.05 -80.2 -17.9 -84.0 L-18.2 -83.6 -18.35 -83.7 -18.55 -83.55 -18.65 -83.6 -18.7 -83.4 -18.8 -83.15 Q-19.0 -82.65 -19.3 -82.35 L-19.15 -81.9 -18.95 -81.9 Q-19.5 -79.05 -20.6 -77.8 -21.9 -76.35 -24.65 -76.35 L-27.1 -76.5 Q-30.4 -78.6 -31.65 -83.15 -32.95 -87.9 -35.05 -89.55 L-35.2 -89.45 -35.2 -89.25 -34.9 -88.15 Q-36.7 -90.55 -37.9 -90.6 L-38.0 -90.35 -37.6 -87.75 M-43.25 -67.05 Q-43.8 -69.75 -44.05 -70.2 -46.55 -67.7 -48.55 -62.45 -50.45 -57.4 -50.45 -53.75 L-50.25 -51.3 -49.75 -47.9 -49.4 -47.75 Q-49.05 -48.7 -48.6 -51.65 -48.2 -54.35 -47.5 -55.8 -46.8 -57.15 -44.15 -59.55 -43.7 -59.9 -43.15 -61.4 -42.7 -62.75 -42.7 -63.35 -42.7 -64.25 -43.25 -67.05 M-32.0 -17.05 L-31.9 -15.65 Q-31.75 -14.5 -32.05 -13.4 -32.7 -11.3 -35.05 -11.3 L-39.55 -10.8 Q-40.25 -10.45 -40.65 -9.6 L-37.7 -8.15 -32.95 -6.75 Q-27.7 -5.4 -23.9 -5.4 L-22.05 -5.45 Q-26.85 -7.35 -28.9 -9.0 -29.9 -10.15 -30.1 -11.1 L-31.0 -13.7 -31.1 -15.0 Q-31.2 -15.9 -31.6 -16.05 L-31.75 -15.85 -31.9 -17.0 -32.0 -17.05" fill="#fefe6a" fill-opacity="0.61960787" fill-rule="evenodd" stroke="none"/>
  </g>
</svg>
