<?xml version="1.0" encoding="UTF-8" standalone="no"?>
<svg xmlns:ffdec="https://www.free-decompiler.com/flash" xmlns:xlink="http://www.w3.org/1999/xlink" ffdec:objectType="shape" height="56.25px" width="43.05px" xmlns="http://www.w3.org/2000/svg">
  <g transform="matrix(1.0, 0.0, 0.0, 1.0, 41.3, 55.25)">
    <path d="M-37.1 -46.4 Q-36.45 -46.6 -36.45 -45.0 L-36.9 -41.15 Q-36.9 -38.0 -35.75 -35.45 L-34.25 -32.7 Q-33.25 -30.85 -33.15 -29.85 -32.7 -26.05 -32.05 -24.3 -30.8 -21.05 -27.75 -18.9 L-27.7 -20.1 Q-27.5 -21.0 -26.6 -21.0 -25.9 -21.0 -25.8 -20.25 L-25.8 -19.35 -26.1 -17.4 Q-26.1 -16.45 -23.0 -12.95 L-19.95 -9.45 Q-19.95 -8.75 -20.7 -8.75 -21.1 -8.75 -22.8 -10.5 L-25.1 -13.05 -26.6 -15.2 Q-27.45 -16.55 -27.45 -17.4 -30.35 -18.35 -32.4 -22.6 L-34.5 -28.5 Q-35.0 -30.0 -37.3 -34.2 -39.0 -37.35 -39.0 -39.65 L-38.7 -41.6 -38.15 -43.8 Q-37.8 -46.25 -37.1 -46.4" fill="#ffffff" fill-rule="evenodd" stroke="none"/>
    <path d="M1.65 -1.35 L0.95 -1.05 0.9 -1.0 1.05 -0.95 1.65 -1.05 1.75 -0.85 1.4 -0.55 1.15 -0.4 -0.15 0.1 -5.2 0.95 -5.6 1.0 -9.25 1.0 Q-11.45 1.15 -14.45 -0.15 L-17.4 -1.75 -17.85 -2.2 -17.6 -2.35 -16.9 -2.15 -15.95 -2.0 Q-14.75 -2.0 -14.65 -2.95 -14.65 -3.45 -16.05 -3.6 L-19.9 -4.15 Q-20.95 -4.45 -21.85 -4.9 L-22.65 -5.35 Q-25.25 -7.05 -26.7 -8.5 -29.6 -11.4 -31.8 -15.6 L-31.7 -15.7 -31.6 -15.7 Q-29.65 -13.55 -28.35 -13.55 L-27.75 -13.75 -27.55 -14.0 Q-27.55 -14.9 -29.5 -15.85 L-32.25 -17.25 -32.3 -16.9 -32.25 -16.7 -32.95 -17.4 -34.35 -19.25 -35.6 -20.85 -35.85 -21.2 Q-38.1 -24.5 -39.65 -29.1 L-39.45 -29.15 -38.45 -28.3 -37.5 -27.35 -36.9 -27.35 -36.65 -27.65 -36.5 -27.95 Q-36.5 -28.7 -37.25 -29.55 L-39.1 -31.15 Q-39.9 -31.75 -40.25 -32.65 L-40.7 -34.2 -40.75 -34.3 Q-41.2 -35.95 -41.25 -37.55 L-41.25 -40.65 -41.1 -45.65 -40.85 -45.75 -40.65 -45.65 Q-40.65 -44.15 -39.55 -43.0 -39.35 -43.45 -39.3 -44.15 L-39.3 -44.75 -39.3 -45.35 -39.2 -46.6 -38.9 -47.75 -38.85 -48.15 -38.8 -48.4 -38.55 -49.1 -38.6 -49.4 -38.55 -49.55 -38.45 -49.95 -36.45 -55.25 -36.05 -53.75 -36.05 -53.7 -36.0 -53.55 Q-34.85 -49.55 -34.85 -48.3 L-35.05 -46.15 -34.45 -46.8 Q-35.9 -43.45 -36.05 -41.15 L-35.9 -39.3 -35.45 -37.95 -35.3 -38.1 -35.25 -37.9 -34.65 -37.7 -34.65 -37.75 -34.5 -37.9 -34.05 -39.2 Q-33.55 -40.45 -33.45 -41.75 -33.4 -42.4 -33.6 -42.9 L-33.7 -43.8 -33.5 -44.0 Q-32.45 -41.75 -32.1 -40.55 L-32.05 -40.9 -31.8 -40.15 -31.6 -38.3 -31.55 -36.95 -32.15 -32.45 -32.1 -31.8 -32.0 -31.0 -31.8 -30.2 -31.25 -27.8 -31.3 -27.7 -31.35 -27.7 -30.85 -26.1 -29.6 -23.45 -29.45 -23.1 -29.1 -22.75 Q-28.45 -22.25 -27.7 -22.25 -27.1 -22.25 -26.75 -23.7 -26.55 -24.45 -26.5 -25.2 -26.5 -27.05 -27.35 -28.85 L-28.2 -30.6 -28.15 -31.0 Q-26.8 -30.75 -25.75 -29.65 L-25.8 -29.75 -25.05 -28.9 Q-24.3 -27.9 -24.2 -27.25 L-23.55 -24.65 -23.8 -21.35 Q-23.8 -18.4 -22.9 -16.2 -21.85 -13.6 -19.2 -11.05 L-19.45 -12.1 -19.15 -11.9 -19.35 -14.25 -19.9 -16.05 -20.45 -18.05 -20.45 -18.1 -20.5 -18.25 -20.45 -18.45 -20.35 -18.45 Q-18.15 -16.5 -17.2 -13.45 -15.95 -9.3 -15.5 -8.55 L-13.75 -6.05 Q-12.55 -4.75 -10.65 -3.85 L-6.95 -2.15 Q-4.7 -1.35 -1.05 -0.95 L-1.15 -1.0 1.6 -1.4 1.65 -1.35 M-37.1 -46.4 Q-37.8 -46.25 -38.15 -43.8 L-38.7 -41.6 -39.0 -39.65 Q-39.0 -37.35 -37.3 -34.2 -35.0 -30.0 -34.5 -28.5 L-32.4 -22.6 Q-30.35 -18.35 -27.45 -17.4 -27.45 -16.55 -26.6 -15.2 L-25.1 -13.05 -22.8 -10.5 Q-21.1 -8.75 -20.7 -8.75 -19.95 -8.75 -19.95 -9.45 L-23.0 -12.95 Q-26.1 -16.45 -26.1 -17.4 L-25.8 -19.35 -25.8 -20.25 Q-25.9 -21.0 -26.6 -21.0 -27.5 -21.0 -27.7 -20.1 L-27.75 -18.9 Q-30.8 -21.05 -32.05 -24.3 -32.7 -26.05 -33.15 -29.85 -33.25 -30.85 -34.25 -32.7 L-35.75 -35.45 Q-36.9 -38.0 -36.9 -41.15 L-36.45 -45.0 Q-36.45 -46.6 -37.1 -46.4 M-35.0 -37.5 L-34.95 -37.45 -34.85 -37.5 -35.0 -37.5" fill="url(#gradient0)" fill-rule="evenodd" stroke="none"/>
  </g>
  <defs>
    <linearGradient gradientTransform="matrix(-0.0088, -0.0122, 0.01, -0.0072, -16.95, -10.9)" gradientUnits="userSpaceOnUse" id="gradient0" spreadMethod="pad" x1="-819.2" x2="819.2">
      <stop offset="0.0" stop-color="#fefe6a" stop-opacity="0.0"/>
      <stop offset="1.0" stop-color="#fefe6a"/>
    </linearGradient>
  </defs>
</svg>
