<?xml version="1.0" encoding="UTF-8" standalone="no"?>
<svg xmlns:ffdec="https://www.free-decompiler.com/flash" xmlns:xlink="http://www.w3.org/1999/xlink" ffdec:objectType="shape" height="56.2px" width="43.25px" xmlns="http://www.w3.org/2000/svg">
  <g transform="matrix(1.0, 0.0, 0.0, 1.0, 41.25, 54.8)">
    <path d="M-36.35 -37.35 L-36.6 -36.2 Q-36.6 -34.6 -33.6 -27.75 L-30.35 -20.7 -29.7 -18.75 Q-29.25 -17.55 -28.05 -16.8 L-25.65 -14.9 -25.45 -14.75 -25.95 -13.2 -29.4 -15.8 Q-30.35 -16.45 -30.9 -17.6 L-31.55 -19.55 -35.15 -28.25 -37.8 -34.75 -37.5 -37.2 Q-36.75 -38.3 -36.35 -37.35" fill="#ffffff" fill-rule="evenodd" stroke="none"/>
    <path d="M0.65 -0.6 L2.0 -0.3 2.0 -0.15 Q2.1 -0.05 1.7 -0.05 L0.45 -0.1 -1.6 0.65 Q-4.3 1.4 -7.7 1.4 L-9.0 1.35 Q-11.6 1.6 -15.1 -0.1 -18.3 -1.65 -18.95 -2.9 L-18.65 -3.0 -17.65 -2.5 Q-17.05 -2.0 -16.85 -2.0 -16.1 -2.0 -15.9 -2.55 L-15.9 -3.15 -16.5 -3.45 -17.1 -3.65 -18.15 -3.4 -19.6 -3.2 Q-22.15 -3.2 -26.55 -8.1 L-30.9 -13.85 -30.6 -14.15 -29.25 -12.9 Q-28.4 -12.15 -27.3 -11.75 L-25.95 -11.75 -26.3 -12.7 -27.3 -13.85 Q-28.55 -14.95 -30.0 -15.3 -32.35 -15.9 -33.15 -16.85 L-34.5 -19.05 -35.55 -21.05 -36.6 -23.15 -38.0 -25.25 -39.15 -27.3 -38.75 -27.6 -38.0 -26.75 -36.8 -25.65 -36.05 -25.65 Q-36.05 -26.4 -36.75 -27.4 -37.35 -28.35 -38.3 -29.1 -39.15 -29.8 -39.6 -30.85 L-40.35 -32.55 Q-41.25 -34.2 -41.25 -39.45 -41.25 -42.2 -40.95 -43.25 L-39.95 -41.05 Q-39.35 -39.6 -38.75 -39.6 -38.35 -39.6 -38.2 -40.1 L-38.1 -40.6 -38.35 -42.15 -38.6 -44.45 -38.4 -46.95 -37.95 -49.95 -37.1 -53.05 Q-36.6 -54.5 -36.0 -54.5 L-35.75 -54.8 -34.7 -51.75 Q-33.95 -49.3 -33.95 -48.3 -33.95 -47.05 -34.85 -44.15 L-35.75 -40.65 -35.35 -39.2 -34.65 -37.8 -33.65 -37.8 Q-33.1 -38.75 -32.85 -39.9 L-32.55 -42.0 Q-32.15 -41.65 -32.0 -40.8 L-31.95 -40.1 -31.75 -39.2 -31.55 -37.35 -32.0 -30.9 Q-32.0 -28.05 -30.35 -24.05 -28.45 -19.5 -26.35 -19.5 -25.25 -19.5 -24.75 -21.75 L-24.45 -24.15 Q-24.45 -24.95 -25.55 -29.3 L-25.5 -29.45 -25.05 -28.8 Q-23.05 -26.6 -22.25 -23.6 -22.0 -22.5 -21.5 -18.3 -21.15 -15.25 -19.65 -11.9 -17.85 -7.95 -15.95 -7.95 -15.5 -7.95 -15.35 -8.4 L-15.3 -8.85 -16.7 -14.2 -17.1 -14.55 -17.1 -14.7 -16.8 -14.5 -16.8 -14.55 -16.5 -14.7 -16.35 -14.2 Q-14.9 -13.15 -13.95 -11.55 L-12.3 -7.8 Q-10.35 -3.5 -5.4 -1.85 L-5.7 -2.0 -2.85 -1.35 0.6 -0.9 1.05 -0.75 0.65 -0.6 M-36.35 -37.35 Q-36.75 -38.3 -37.5 -37.2 L-37.8 -34.75 -35.15 -28.25 -31.55 -19.55 -30.9 -17.6 Q-30.35 -16.45 -29.4 -15.8 L-25.95 -13.2 -25.45 -14.75 -25.65 -14.9 -28.05 -16.8 Q-29.25 -17.55 -29.7 -18.75 L-30.35 -20.7 -33.6 -27.75 Q-36.6 -34.6 -36.6 -36.2 L-36.35 -37.35" fill="url(#gradient0)" fill-rule="evenodd" stroke="none"/>
  </g>
  <defs>
    <linearGradient gradientTransform="matrix(-0.0088, -0.0122, 0.01, -0.0072, -16.95, -10.9)" gradientUnits="userSpaceOnUse" id="gradient0" spreadMethod="pad" x1="-819.2" x2="819.2">
      <stop offset="0.0" stop-color="#fefe6a" stop-opacity="0.0"/>
      <stop offset="1.0" stop-color="#fefe6a"/>
    </linearGradient>
  </defs>
</svg>
