<?xml version="1.0" encoding="UTF-8" standalone="no"?>
<svg xmlns:ffdec="https://www.free-decompiler.com/flash" xmlns:xlink="http://www.w3.org/1999/xlink" ffdec:objectType="shape" height="142.3px" width="157.1px" xmlns="http://www.w3.org/2000/svg">
  <g transform="matrix(1.0, 0.0, 0.0, 1.0, 68.55, 113.2)">
    <path d="M37.95 -105.75 Q41.85 -101.65 44.45 -94.3 46.95 -87.55 46.95 -82.3 46.95 -76.9 43.55 -71.65 L41.85 -69.0 42.2 -68.8 41.1 -67.3 41.85 -69.0 42.6 -71.4 42.6 -72.0 39.2 -66.0 Q44.3 -64.5 45.45 -62.05 L47.45 -56.4 Q47.7 -56.05 47.7 -52.5 L47.1 -46.5 Q48.95 -45.15 50.45 -42.15 53.45 -36.15 53.45 -29.8 53.1 -27.0 52.35 -24.4 53.45 -24.15 54.45 -23.4 55.55 -22.65 57.2 -20.25 62.3 -22.15 64.7 -20.65 63.05 -19.5 58.7 -17.65 59.7 -14.8 59.7 -9.4 59.7 -5.4 58.7 -1.65 L60.95 -2.65 Q69.6 -6.0 69.6 -3.75 69.6 -2.8 67.2 -1.9 63.6 -0.75 61.7 0.35 L57.05 3.95 Q55.55 7.35 53.3 10.5 44.45 22.85 27.2 25.85 L15.8 26.1 Q14.1 26.25 7.35 27.75 1.7 29.1 -2.8 29.1 -5.4 29.1 -26.8 24.95 -29.55 24.6 -31.8 23.1 L-39.3 18.2 -43.65 15.6 Q-46.8 13.7 -47.95 12.35 L-52.8 6.0 Q-56.05 1.5 -56.05 -0.55 -56.05 -3.15 -53.4 -6.15 -55.3 -7.65 -57.7 -11.65 L-59.05 -15.0 -59.05 -15.15 -59.4 -15.4 -60.7 -15.55 Q-66.15 -16.5 -68.4 -17.65 L-68.55 -18.0 Q-65.2 -19.3 -59.55 -17.65 L-59.55 -18.15 Q-59.55 -21.15 -56.8 -25.5 -55.3 -27.9 -53.55 -28.5 -55.65 -30.55 -56.95 -33.0 -59.05 -36.4 -59.2 -39.55 L-64.05 -41.05 Q-63.15 -44.25 -59.05 -42.15 -58.3 -48.9 -50.8 -51.55 -48.9 -52.3 -47.2 -52.5 -48.15 -55.3 -48.15 -60.75 -48.15 -63.4 -45.15 -67.5 L-44.2 -68.4 Q-46.8 -70.5 -47.05 -77.25 -41.4 -93.15 -29.8 -89.8 L-26.4 -89.05 Q-26.95 -90.4 -26.95 -91.15 -26.95 -96.55 -25.05 -99.55 -21.55 -104.8 -11.55 -106.3 -6.55 -107.25 -0.55 -104.25 2.3 -108.0 9.95 -111.15 24.45 -117.15 37.95 -105.75 M46.05 -42.15 L45.8 -42.55 45.8 -42.4 46.05 -42.15 M80.45 -20.65 L83.85 -20.8 Q85.7 -20.8 87.2 -19.9 L88.35 -19.15 88.55 -19.15 87.2 -18.75 85.55 -18.55 Q82.35 -18.55 80.45 -19.5 L80.45 -20.65" fill="#000000" fill-opacity="0.6509804" fill-rule="evenodd" stroke="none"/>
  </g>
</svg>
