<?xml version="1.0" encoding="UTF-8" standalone="no"?>
<svg xmlns:ffdec="https://www.free-decompiler.com/flash" xmlns:xlink="http://www.w3.org/1999/xlink" ffdec:objectType="shape" height="86.25px" width="183.2px" xmlns="http://www.w3.org/2000/svg">
  <g transform="matrix(1.0, 0.0, 0.0, 1.0, 90.15, 91.9)">
    <path d="M55.35 -7.3 Q54.8 -7.9 54.8 -8.65 54.8 -10.15 60.6 -11.65 L69.6 -13.5 72.2 -14.05 Q72.6 -14.25 72.6 -12.9 72.6 -12.55 66.45 -9.9 58.95 -6.9 55.7 -5.65 L55.35 -6.4 56.45 -7.5 55.35 -7.3 M-56.95 -28.3 L-60.9 -28.9 -62.05 -30.0 Q-59.05 -31.65 -55.8 -29.25 L-55.8 -28.65 -56.95 -28.3 M-69.15 -32.05 Q-69.15 -33.15 -68.2 -33.15 -64.65 -33.0 -62.95 -33.15 L-62.55 -32.65 Q-64.45 -31.5 -66.3 -31.5 -68.55 -31.5 -69.15 -32.05 M-52.3 -22.15 L-52.3 -21.4 -53.4 -21.4 -53.4 -22.5 Q-52.8 -22.5 -52.3 -22.15" fill="#000000" fill-opacity="0.6509804" fill-rule="evenodd" stroke="none"/>
    <path d="M79.2 -68.8 L82.55 -70.9 85.35 -73.15 Q93.05 -78.0 93.05 -73.15 93.05 -71.65 92.45 -69.55 L92.45 -68.65 Q92.45 -64.9 89.7 -60.4 L84.2 -52.5 Q81.2 -48.15 76.55 -42.75 71.1 -36.55 69.8 -36.55 L68.45 -36.75 Q71.85 -39.9 76.95 -48.75 L82.7 -55.65 Q86.85 -60.9 86.85 -63.4 86.85 -65.4 85.95 -66.4 L86.3 -67.3 85.2 -66.9 Q84.05 -67.65 82.35 -67.65 80.3 -67.65 74.85 -64.5 L71.3 -62.25 74.3 -64.65 73.25 -64.1 75.45 -65.65 79.2 -68.8 M-83.2 -84.0 L-83.2 -82.15 -83.05 -81.55 -83.05 -81.0 Q-83.05 -77.8 -80.2 -72.9 L-75.3 -64.65 Q-74.4 -61.65 -73.3 -59.25 L-74.2 -60.15 Q-80.2 -66.55 -81.9 -70.65 -82.45 -72.4 -86.8 -78.9 -90.15 -84.15 -90.15 -86.8 -90.15 -89.65 -86.95 -91.9 L-85.3 -91.9 Q-83.8 -91.9 -81.15 -90.15 -80.4 -90.55 -78.55 -89.25 L-77.95 -88.5 -74.4 -85.15 -73.65 -84.15 -70.45 -80.25 -72.15 -81.9 Q-75.9 -85.3 -78.3 -85.3 -80.95 -85.3 -82.05 -84.0 L-83.2 -84.0" fill="#ffff00" fill-rule="evenodd" stroke="none"/>
  </g>
</svg>
