<?xml version="1.0" encoding="UTF-8" standalone="no"?>
<svg xmlns:ffdec="https://www.free-decompiler.com/flash" xmlns:xlink="http://www.w3.org/1999/xlink" ffdec:objectType="shape" height="372.1px" width="166.7px" xmlns="http://www.w3.org/2000/svg">
  <g transform="matrix(1.0, 0.0, 0.0, 1.0, 82.1, 339.55)">
    <path d="M57.0 -333.0 Q58.35 -338.45 59.45 -338.45 60.4 -338.45 61.7 -337.7 61.9 -337.85 61.9 -338.8 62.1 -339.55 63.0 -339.55 66.0 -339.55 67.15 -337.5 L68.1 -334.85 69.0 -331.7 72.4 -331.5 Q73.7 -331.5 75.6 -326.25 L77.65 -319.3 Q78.95 -315.55 81.95 -311.8 84.6 -308.8 84.6 -306.95 L83.65 -301.7 Q82.5 -296.6 81.75 -296.6 L80.45 -296.8 Q80.45 -298.85 81.0 -302.8 81.0 -305.45 78.6 -308.8 75.95 -312.0 73.15 -313.1 69.95 -314.25 68.25 -318.75 L65.85 -321.75 Q63.75 -323.6 63.75 -324.75 63.75 -325.5 65.1 -326.45 66.2 -327.35 66.2 -328.3 L65.1 -331.1 63.95 -333.95 59.65 -328.85 58.7 -329.45 Q58.2 -329.8 57.8 -330.45 L57.75 -330.55 Q56.85 -331.85 56.85 -332.25 L57.0 -333.0 M62.65 -336.0 L62.85 -335.05 63.95 -336.0 Q63.75 -336.35 63.4 -336.35 L62.65 -336.0 M78.0 -292.1 L78.0 -291.95 77.85 -292.1 78.0 -292.1 M80.1 -261.55 L78.4 -254.6 73.35 -234.2 Q72.2 -234.75 72.2 -236.25 72.2 -239.05 73.15 -248.45 L73.5 -252.35 73.5 -255.55 73.5 -260.25 Q75.6 -260.05 76.9 -258.75 L78.0 -260.25 Q78.75 -261.35 80.1 -261.55 M64.15 -279.95 Q64.7 -281.45 65.1 -281.8 L65.25 -281.05 64.15 -279.95 M66.75 -258.35 L65.65 -252.35 63.0 -238.3 61.7 -223.7 Q60.95 -215.05 58.7 -209.45 58.15 -209.6 57.2 -211.3 56.25 -213.2 55.5 -213.75 55.15 -213.35 54.75 -212.05 L54.75 -211.85 Q54.4 -210.75 53.65 -210.2 52.15 -211.5 51.75 -215.25 L51.6 -216.75 51.4 -219.0 Q50.1 -217.7 49.7 -216.35 49.15 -215.05 49.9 -213.55 50.45 -212.25 50.45 -210.2 50.45 -205.85 46.9 -200.6 44.45 -197.05 39.0 -191.25 L40.7 -186.95 Q40.7 -186.0 38.85 -181.7 36.95 -177.35 36.6 -177.35 35.85 -177.35 33.75 -178.7 L33.75 -178.3 Q33.95 -177.95 33.0 -177.95 L28.15 -181.85 Q24.2 -174.75 22.15 -166.1 L25.35 -166.1 Q26.25 -165.35 26.25 -164.45 26.25 -163.1 22.15 -159.55 17.85 -156.2 17.85 -151.3 17.85 -148.3 18.2 -147.2 L19.5 -141.75 Q19.7 -140.45 21.0 -137.6 L22.15 -134.05 23.65 -130.7 22.7 -125.45 Q19.9 -107.8 18.6 -92.25 18.0 -84.55 17.85 -77.45 17.85 -77.05 16.9 -77.05 L15.0 -82.1 Q12.95 -87.35 11.1 -88.7 L10.35 -75.95 10.5 -69.95 Q11.25 -51.55 17.65 -36.55 L18.6 -36.35 Q19.7 -39.0 20.1 -44.8 20.65 -50.25 21.95 -53.45 L22.15 -51.35 22.5 -53.05 22.5 -53.25 23.1 -56.25 24.0 -60.35 24.2 -56.45 24.0 -55.5 Q24.2 -52.3 24.0 -51.95 L24.0 -47.25 Q23.85 -47.05 23.85 -46.7 L24.0 -46.7 23.85 -44.8 Q23.85 -39.95 24.4 -34.85 L24.4 -34.75 24.4 -32.45 24.6 -31.7 24.4 -27.2 Q24.2 -25.5 24.4 -23.8 L24.4 -23.55 24.4 -22.3 24.6 -22.3 Q24.4 -20.25 24.6 -18.55 L24.75 -17.45 25.15 -12.2 25.5 -1.5 Q26.65 -3.2 29.1 -5.6 29.65 -6.0 32.85 -11.45 33.6 -11.25 33.6 -10.5 31.7 -1.1 30.4 3.0 L30.4 3.2 30.2 3.75 30.2 3.95 30.6 3.75 30.75 3.55 33.2 1.9 33.4 1.9 35.25 0.55 41.45 -3.2 Q42.4 -2.6 42.4 -1.85 L37.9 5.25 33.4 12.4 33.2 12.55 33.4 12.55 Q36.75 11.65 43.7 10.7 L44.1 11.45 36.0 21.2 34.35 23.25 Q35.45 22.9 36.6 22.15 L36.6 21.95 37.15 21.55 38.45 20.45 37.9 21.2 Q37.15 23.8 31.15 26.8 L30.75 27.0 30.6 27.0 27.2 28.3 25.9 28.9 31.7 20.8 31.15 20.25 Q30.95 19.7 30.0 19.7 27.6 20.8 26.1 20.8 25.9 18.55 28.15 15.55 30.4 12.55 30.4 11.45 28.5 12.2 25.9 13.9 23.65 15.4 21.95 15.75 25.15 6.4 25.5 3.95 20.25 6.95 18.6 10.15 L18.6 9.55 Q19.35 0.0 19.7 -12.2 L19.9 -22.3 21.4 -22.3 21.4 -24.0 20.85 -30.95 21.0 -35.45 Q18.95 -27.2 16.9 -27.2 13.35 -27.2 10.7 -36.95 L9.0 -47.8 Q7.5 -57.2 6.4 -73.85 L6.4 -77.6 6.95 -87.75 Q6.2 -88.3 5.65 -89.6 L8.1 -125.05 Q10.15 -153.55 12.0 -168.35 7.7 -139.1 5.65 -121.85 L3.95 -105.55 Q3.4 -117.35 3.4 -126.75 3.4 -129.35 4.5 -136.1 4.9 -140.6 3.4 -143.25 L4.35 -151.5 4.5 -153.2 6.0 -165.55 Q8.45 -182.05 10.15 -209.25 10.5 -209.25 11.25 -209.6 13.5 -209.6 15.75 -205.1 L17.65 -201.0 Q18.0 -204.0 19.5 -212.05 19.5 -213.55 26.65 -234.2 L25.35 -234.55 Q24.95 -234.75 24.4 -235.7 24.0 -236.05 24.0 -237.35 24.0 -237.95 26.85 -245.05 L29.1 -251.8 Q29.1 -252.75 28.9 -252.35 L28.5 -252.55 Q24.0 -242.05 19.9 -242.05 18.0 -242.05 15.4 -248.45 L13.7 -248.45 Q12.75 -248.8 11.85 -249.75 9.2 -242.6 7.15 -239.05 L3.6 -234.0 Q1.9 -231.95 1.35 -230.45 L1.7 -220.1 Q1.7 -212.6 1.35 -208.85 L1.35 -190.85 0.4 -183.0 0.4 -166.5 Q0.0 -162.95 0.0 -155.45 L0.4 -138.0 -1.3 -106.3 Q-2.4 -125.25 -2.8 -145.85 -3.35 -177.0 -2.4 -229.5 L-3.0 -229.5 -7.65 -201.55 -7.65 -199.1 -11.25 -140.6 Q-11.6 -136.7 -14.8 -113.45 -16.85 -97.7 -16.85 -87.55 -16.85 -83.25 -16.1 -79.1 -20.4 -89.8 -20.4 -92.45 -20.4 -95.25 -16.1 -129.75 -12.0 -164.05 -12.0 -173.8 -12.0 -180.35 -12.9 -189.2 L-13.1 -189.2 -14.4 -171.55 -14.4 -175.7 Q-14.25 -182.25 -12.55 -200.25 -11.05 -216.2 -11.05 -224.8 -11.05 -226.5 -11.6 -232.3 -12.15 -239.45 -12.9 -241.7 -13.3 -240.2 -13.65 -239.45 -14.25 -237.75 -15.15 -237.75 -16.5 -237.75 -18.15 -244.5 -20.05 -252.35 -22.1 -254.6 -23.8 -253.7 -23.8 -252.35 L-23.6 -252.2 -24.15 -252.2 Q-25.85 -252.2 -27.55 -256.3 -29.6 -261.55 -30.75 -262.7 -32.05 -252.2 -32.05 -249.0 -31.3 -245.25 -31.3 -242.25 L-31.65 -236.05 Q-31.65 -234.35 -28.1 -227.25 -24.35 -220.3 -24.35 -219.95 -23.25 -216.75 -18.9 -211.5 -15.55 -207.2 -15.55 -204.0 L-17.05 -181.3 -15.55 -160.3 -15.35 -159.0 -18.0 -135.0 -21.9 -107.45 -23.4 -94.3 Q-25.1 -106.1 -25.3 -119.25 L-24.55 -131.05 -24.55 -135.2 -24.9 -142.3 Q-25.85 -149.8 -26.4 -157.85 L-26.6 -158.05 -26.6 -157.85 Q-27.9 -154.5 -28.3 -152.05 L-29.25 -151.85 Q-32.6 -151.85 -33.35 -165.2 L-33.55 -167.6 -33.35 -168.2 -33.55 -171.0 -33.15 -180.55 -32.8 -180.55 -32.6 -176.25 -31.85 -180.75 -31.1 -184.85 -26.05 -192.95 Q-22.65 -198.2 -22.65 -201.55 -22.65 -202.1 -23.8 -203.25 -25.3 -202.5 -25.3 -199.3 L-25.3 -198.95 -26.05 -198.75 Q-28.1 -198.75 -28.1 -202.1 -33.15 -193.3 -33.9 -187.3 -35.05 -188.05 -35.05 -189.55 -36.55 -190.5 -39.15 -196.5 L-39.9 -198.0 -41.6 -201.2 Q-43.85 -205.3 -44.4 -207.0 -46.5 -208.3 -47.4 -212.45 -47.4 -216.55 -44.6 -221.6 -42.0 -226.3 -38.05 -230.25 L-37.65 -230.05 -37.65 -230.45 -37.85 -230.45 Q-39.35 -230.6 -42.15 -232.85 L-43.65 -234.35 -43.85 -234.35 Q-44.8 -235.7 -46.3 -235.85 -48.55 -239.25 -49.1 -249.55 -49.1 -253.3 -47.8 -257.45 -47.4 -258.95 -46.65 -259.85 L-44.05 -258.0 -43.65 -258.0 Q-42.75 -263.25 -38.6 -268.5 -33.55 -275.25 -27.0 -275.25 -22.3 -275.25 -16.65 -269.45 -16.1 -272.25 -13.65 -274.85 -10.65 -278.05 -6.55 -278.05 -5.05 -278.05 -0.55 -276.35 L4.5 -282.0 4.5 -282.2 6.95 -282.75 Q7.15 -282.95 7.5 -282.95 L8.1 -282.95 9.0 -282.95 Q13.35 -282.55 15.6 -278.45 17.85 -272.25 19.35 -268.85 20.65 -268.85 21.95 -270.2 23.45 -271.7 24.0 -271.7 27.2 -271.7 31.35 -263.25 33.95 -257.8 35.45 -253.1 L37.15 -254.6 Q38.25 -255.55 38.65 -255.55 42.75 -255.55 46.35 -244.7 L46.5 -244.1 46.5 -243.95 Q49.9 -244.1 51.6 -240.75 52.5 -238.5 52.5 -235.7 52.5 -233.45 50.85 -226.7 L50.25 -224.05 51.4 -222.95 Q51.6 -226.5 53.1 -230.45 54.95 -235.3 54.95 -238.5 54.95 -240.2 54.2 -241.5 L51.6 -245.45 Q50.45 -247.5 49.9 -249.95 52.15 -252.35 55.5 -252.35 58.35 -252.35 60.95 -249.35 60.2 -252.35 64.15 -256.3 L66.75 -258.35 M-48.9 -201.35 L-47.8 -197.25 -47.6 -197.05 Q-46.3 -192.75 -44.4 -189.35 L-45.15 -188.8 -57.9 -209.05 Q-62.8 -218.25 -62.8 -227.8 -62.8 -235.5 -61.1 -259.7 L-61.1 -265.1 Q-58.1 -261.0 -57.9 -258.55 L-57.75 -258.35 Q-56.6 -259.5 -55.65 -261.2 -54.75 -262.5 -52.85 -262.5 -50.8 -262.5 -48.75 -261.35 L-49.1 -260.05 Q-51.0 -253.7 -51.0 -248.05 -51.0 -241.7 -48.9 -228.55 L-48.9 -226.3 -49.85 -225.95 Q-50.8 -225.95 -51.55 -226.85 L-52.5 -226.5 -52.5 -224.6 -51.9 -221.05 Q-50.6 -211.85 -50.05 -207.0 L-48.9 -201.35 M48.6 -264.35 L48.4 -264.35 48.2 -264.75 48.6 -264.35 M24.2 -163.85 L24.4 -164.05 24.2 -164.05 24.2 -163.85 M40.15 13.7 L40.35 13.5 40.15 13.5 40.15 13.7 M37.5 1.3 L37.35 1.5 37.35 1.7 37.5 1.3 M40.7 -3.95 Q42.75 -5.6 43.35 -3.75 L42.4 -3.95 41.65 -3.95 41.45 -3.95 40.7 -3.95 M32.85 -0.75 L33.95 -3.0 32.85 0.95 32.85 -0.75 M-62.05 -323.8 L-62.6 -323.05 -64.1 -318.95 Q-64.85 -317.25 -65.05 -314.6 -64.85 -311.6 -65.05 -310.5 -65.05 -305.05 -69.55 -302.25 -71.8 -300.55 -72.35 -298.1 L-72.55 -294.0 Q-72.55 -289.85 -71.6 -284.25 L-72.35 -283.85 Q-73.85 -283.85 -78.15 -292.85 -82.1 -301.1 -82.1 -302.05 -82.1 -303.75 -78.9 -307.5 -75.35 -311.25 -75.15 -312.95 -74.8 -314.6 -74.6 -318.35 -74.05 -321.55 -72.35 -323.6 -70.3 -325.85 -66.15 -328.5 -62.25 -331.3 -59.8 -334.1 -56.8 -337.3 -55.1 -333.95 L-53.4 -329.45 -53.25 -329.6 -53.05 -329.25 -52.85 -329.05 Q-52.85 -328.7 -53.05 -328.5 L-52.5 -327.75 -53.4 -327.35 -54.15 -327.75 -54.9 -327.55 Q-55.85 -327.55 -56.25 -328.1 L-57.9 -327.35 -59.6 -326.6 -60.75 -325.1 -62.05 -323.8 M-61.85 -326.8 L-62.05 -327.0 -62.25 -326.25 -61.85 -326.8 M-1.65 -101.25 L-2.8 -70.3 -3.75 -75.0 Q-3.75 -81.95 -5.05 -97.85 L-4.85 -112.1 Q-4.85 -120.2 -6.75 -121.3 L-7.5 -131.6 -8.4 -121.3 -9.15 -120.55 -9.0 -95.6 -8.6 -92.6 -8.8 -67.3 Q-8.6 -67.3 -8.4 -66.55 L-9.15 -63.75 -9.55 -63.75 -12.35 -70.5 Q-12.75 -83.25 -11.6 -104.05 -10.1 -130.5 -8.05 -137.25 L-7.5 -137.45 Q-3.9 -128.45 -1.65 -101.25 M-63.75 -268.3 Q-64.65 -261.2 -65.25 -257.8 -67.1 -240.55 -67.1 -232.3 L-66.9 -232.1 -67.5 -232.1 Q-68.6 -232.1 -70.85 -248.05 L-72.75 -264.2 Q-72.75 -265.5 -71.25 -267.35 L-70.85 -267.75 Q-69.75 -269.45 -69.75 -270.95 L-69.55 -272.05 Q-66.9 -271.5 -63.75 -268.3 M-50.05 -199.3 L-50.05 -199.5 -50.25 -199.5 -50.05 -199.3" fill="#ffff00" fill-rule="evenodd" stroke="none"/>
    <path d="M-1.3 -106.3 L0.4 -138.0 0.0 -155.45 Q0.0 -162.95 0.4 -166.5 L0.4 -183.0 1.35 -190.85 1.35 -208.85 Q1.7 -212.6 1.7 -220.1 L1.35 -230.45 Q1.9 -231.95 3.6 -234.0 L7.15 -239.05 Q9.2 -242.6 11.85 -249.75 12.75 -248.8 13.7 -248.45 L15.4 -248.45 Q18.0 -242.05 19.9 -242.05 24.0 -242.05 28.5 -252.55 L28.9 -252.35 Q29.1 -252.75 29.1 -251.8 L26.85 -245.05 Q24.0 -237.95 24.0 -237.35 24.0 -236.05 24.4 -235.7 24.95 -234.75 25.35 -234.55 L26.65 -234.2 Q19.5 -213.55 19.5 -212.05 18.0 -204.0 17.65 -201.0 L15.75 -205.1 Q13.5 -209.6 11.25 -209.6 10.5 -209.25 10.15 -209.25 8.45 -182.05 6.0 -165.55 L4.5 -153.2 4.35 -151.5 3.4 -143.25 Q4.9 -140.6 4.5 -136.1 3.4 -129.35 3.4 -126.75 3.4 -117.35 3.95 -105.55 4.35 -96.95 5.1 -86.8 L4.5 -81.75 Q4.5 -79.7 5.45 -64.85 6.2 -49.3 6.75 -43.3 7.9 -25.5 8.65 -19.5 9.75 -10.7 11.45 -7.1 L10.7 -5.8 7.7 -10.3 6.95 -11.6 4.7 -17.05 Q1.7 -26.6 0.75 -20.8 0.2 -20.45 0.2 -19.5 L0.4 -18.75 0.2 -13.7 -2.8 -22.1 -12.35 -48.95 -20.25 -73.1 Q-22.85 -82.3 -23.8 -89.8 L-23.4 -94.3 -21.9 -107.45 -18.0 -135.0 -15.35 -159.0 -15.55 -160.3 -17.05 -181.3 -15.55 -204.0 Q-15.55 -207.2 -18.9 -211.5 -23.25 -216.75 -24.35 -219.95 -24.35 -220.3 -28.1 -227.25 -31.65 -234.35 -31.65 -236.05 L-31.3 -242.25 Q-31.3 -245.25 -32.05 -249.0 -32.05 -252.2 -30.75 -262.7 -29.6 -261.55 -27.55 -256.3 -25.85 -252.2 -24.15 -252.2 L-23.6 -252.2 -23.8 -252.35 Q-23.8 -253.7 -22.1 -254.6 -20.05 -252.35 -18.15 -244.5 -16.5 -237.75 -15.15 -237.75 -14.25 -237.75 -13.65 -239.45 -13.3 -240.2 -12.9 -241.7 -12.15 -239.45 -11.6 -232.3 -11.05 -226.5 -11.05 -224.8 -11.05 -216.2 -12.55 -200.25 -14.25 -182.25 -14.4 -175.7 L-14.4 -171.55 -13.1 -189.2 -12.9 -189.2 Q-12.0 -180.35 -12.0 -173.8 -12.0 -164.05 -16.1 -129.75 -20.4 -95.25 -20.4 -92.45 -20.4 -89.8 -16.1 -79.1 L-15.15 -76.7 -12.35 -70.5 -9.55 -63.75 -9.15 -63.75 -8.4 -66.55 -7.65 -70.3 Q-6.9 -73.85 -6.9 -76.5 -6.9 -79.85 -7.85 -85.85 L-8.6 -92.6 -9.0 -95.6 -9.15 -120.55 -8.4 -121.3 -7.5 -121.5 -6.75 -121.3 Q-4.85 -120.2 -4.85 -112.1 L-5.05 -97.85 Q-3.75 -81.95 -3.75 -75.0 L-2.8 -70.3 -1.65 -101.25 -1.3 -106.3 M-21.15 -63.55 L-21.0 -63.1 -22.5 -66.2 -23.25 -70.1 Q-22.5 -66.95 -21.15 -63.55" fill="#ffffff" fill-rule="evenodd" stroke="none"/>
    <path d="M65.1 -331.1 Q65.1 -327.95 61.9 -323.45 L60.4 -320.6 59.85 -320.05 57.75 -314.8 Q55.5 -309.0 54.75 -306.35 53.1 -296.8 51.75 -291.95 L51.2 -291.75 Q50.45 -292.1 50.45 -292.85 50.45 -306.2 52.5 -317.25 L52.5 -317.45 53.45 -324.95 53.85 -332.25 Q55.35 -340.1 57.6 -336.55 56.85 -334.85 57.0 -333.0 L56.85 -332.25 Q56.85 -331.85 57.75 -330.55 L57.8 -330.45 58.5 -329.25 58.7 -329.45 59.65 -328.85 63.95 -333.95 65.1 -331.1 M62.65 -336.0 L63.4 -336.35 Q63.75 -336.35 63.95 -336.0 L62.85 -335.05 62.65 -336.0 M78.0 -291.95 L78.4 -290.25 Q81.4 -285.95 81.4 -284.25 79.15 -276.2 79.15 -274.1 79.15 -272.6 80.45 -270.75 L81.6 -268.7 80.1 -261.55 Q78.75 -261.35 78.0 -260.25 L76.9 -258.75 Q75.6 -260.05 73.5 -260.25 L72.4 -272.45 72.2 -273.95 Q72.95 -275.05 72.95 -276.0 L72.6 -280.85 72.6 -282.0 72.0 -288.35 75.0 -291.95 74.45 -291.0 75.2 -292.1 75.2 -292.3 75.4 -292.3 75.4 -292.5 77.45 -294.95 77.45 -294.35 Q77.85 -294.0 77.85 -293.6 L77.85 -293.05 78.0 -292.1 77.85 -292.1 78.0 -291.95 M64.15 -279.95 L65.25 -281.05 65.25 -280.5 65.45 -280.5 66.4 -273.55 Q66.75 -273.0 67.5 -272.8 L67.7 -267.75 Q67.7 -264.75 66.75 -258.35 L64.15 -256.3 Q60.2 -252.35 60.95 -249.35 58.35 -252.35 55.5 -252.35 52.15 -252.35 49.9 -249.95 L49.5 -252.0 48.6 -264.35 48.2 -264.75 48.4 -265.3 48.6 -266.25 Q48.75 -267.2 49.35 -267.75 L49.7 -268.85 Q50.65 -272.25 51.6 -272.25 52.5 -272.25 53.65 -271.3 54.6 -272.8 55.5 -273.75 58.5 -277.85 59.45 -277.1 L61.15 -279.0 62.65 -277.5 64.15 -279.95 M54.75 -211.85 Q56.85 -209.45 56.85 -208.7 56.85 -206.05 53.85 -198.75 50.1 -189.55 45.6 -186.75 44.85 -181.85 43.15 -177.0 39.6 -167.25 34.5 -167.25 33.0 -167.25 31.5 -168.2 28.15 -148.7 24.95 -146.8 27.75 -146.05 28.9 -143.6 30.0 -141.2 30.0 -135.55 30.0 -128.6 28.15 -125.25 26.45 -122.05 23.85 -123.2 L23.65 -122.6 Q24.6 -114.75 21.95 -102.55 20.45 -95.45 18.6 -92.25 19.9 -107.8 22.7 -125.45 L23.65 -130.7 22.15 -134.05 21.0 -137.6 Q19.7 -140.45 19.5 -141.75 L18.2 -147.2 Q17.85 -148.3 17.85 -151.3 17.85 -156.2 22.15 -159.55 26.25 -163.1 26.25 -164.45 26.25 -165.35 25.35 -166.1 L22.15 -166.1 Q24.2 -174.75 28.15 -181.85 L33.0 -177.95 Q33.95 -177.95 33.75 -178.3 L33.75 -178.7 Q35.85 -177.35 36.6 -177.35 36.95 -177.35 38.85 -181.7 40.7 -186.0 40.7 -186.95 L39.0 -191.25 Q44.45 -197.05 46.9 -200.6 50.45 -205.85 50.45 -210.2 50.45 -212.25 49.9 -213.55 49.15 -215.05 49.7 -216.35 50.1 -217.7 51.4 -219.0 L51.6 -216.75 Q51.2 -216.75 51.2 -215.8 L51.75 -215.25 Q52.15 -211.5 53.65 -210.2 54.4 -210.75 54.75 -211.85 M24.0 -47.25 L24.0 -46.7 23.85 -46.7 Q23.85 -47.05 24.0 -47.25 M24.4 -34.75 L24.6 -33.35 24.6 -31.7 24.4 -32.45 24.4 -34.75 M24.4 -23.55 L24.6 -22.85 24.6 -22.3 24.4 -22.3 24.4 -23.55 M25.9 28.9 Q13.7 33.55 0.2 32.25 L-4.1 31.9 Q-16.1 30.75 -18.9 29.8 -20.8 29.25 -22.65 27.55 -22.85 27.2 -21.9 27.2 L-22.1 26.65 -22.5 26.65 Q-26.6 26.25 -38.8 17.25 -38.8 15.55 -36.55 15.4 L-31.65 15.2 Q-29.05 14.05 -27.55 14.05 -31.1 11.05 -39.9 -1.1 L-39.55 -1.85 -31.65 2.25 -27.35 4.9 -28.85 0.2 Q-27.35 0.0 -24.35 2.45 L-24.0 2.65 -24.0 2.45 Q-24.75 0.4 -25.3 -2.25 -26.8 -8.05 -28.85 -12.2 L-30.35 -14.6 Q-30.55 -15.2 -29.6 -15.2 L-20.4 -4.5 -20.25 -22.3 -19.3 -22.3 -18.75 -32.45 -18.35 -38.6 Q-18.0 -39.55 -16.85 -39.95 L-16.65 -41.25 Q-16.5 -41.45 -16.3 -42.0 L-16.85 -43.5 -18.15 -45.35 Q-20.25 -42.2 -21.15 -37.3 L-21.75 -38.6 -21.9 -39.95 Q-22.3 -41.45 -23.8 -41.45 L-24.55 -41.25 -24.55 -45.35 -25.3 -46.3 -25.3 -69.2 -25.85 -70.85 -25.3 -71.25 -25.3 -76.85 -25.5 -77.05 -25.5 -78.0 -27.35 -81.75 Q-31.65 -91.7 -31.65 -101.6 -31.65 -105.55 -30.35 -108.55 -29.25 -111.55 -27.55 -112.5 L-30.75 -117.75 Q-33.15 -123.0 -33.15 -130.1 -33.15 -140.25 -31.1 -143.05 -37.3 -143.05 -37.3 -150.95 -37.3 -156.95 -35.4 -161.6 -35.4 -162.95 -37.3 -168.35 -39.35 -174.0 -39.35 -179.05 -39.35 -184.3 -36.75 -187.85 -40.85 -188.05 -46.65 -197.45 L-46.65 -197.6 -46.85 -197.8 -48.9 -201.35 -50.05 -207.0 Q-50.6 -211.85 -51.9 -221.05 L-52.5 -224.6 -52.5 -226.5 -51.55 -226.85 Q-50.8 -225.95 -49.85 -225.95 L-48.9 -226.3 -48.9 -228.55 Q-51.0 -241.7 -51.0 -248.05 -51.0 -253.7 -49.1 -260.05 L-48.75 -261.35 Q-50.8 -262.5 -52.85 -262.5 -54.75 -262.5 -55.65 -261.2 -56.6 -259.5 -57.75 -258.35 L-57.9 -258.55 Q-58.1 -261.0 -61.1 -265.1 L-61.1 -274.1 Q-54.75 -280.1 -50.4 -282.95 -48.35 -284.25 -47.6 -282.35 L-46.85 -279.95 -45.35 -278.25 Q-43.85 -276.35 -43.85 -274.85 L-43.1 -274.5 Q-40.5 -279.55 -34.1 -283.3 -31.1 -285.2 -28.5 -286.1 L-27.9 -286.3 -25.3 -286.85 Q-22.65 -287.25 -20.8 -286.1 L-21.0 -287.45 Q-21.0 -290.05 -16.65 -294.0 L-14.25 -296.05 Q-7.5 -301.3 -3.75 -301.1 4.35 -304.1 9.6 -295.5 11.45 -292.1 12.4 -289.5 14.45 -293.05 23.85 -289.85 35.85 -285.55 35.85 -277.5 L35.65 -275.25 Q36.95 -275.6 38.85 -273.75 41.65 -269.8 42.6 -268.85 L44.1 -267.0 45.0 -266.05 46.9 -263.45 Q47.45 -262.3 47.45 -259.1 L47.45 -256.3 47.25 -255.35 47.1 -256.3 47.1 -256.7 47.1 -257.05 47.1 -257.25 46.15 -259.5 46.35 -256.85 46.35 -246.35 46.5 -244.7 46.5 -244.1 46.35 -244.7 Q42.75 -255.55 38.65 -255.55 38.25 -255.55 37.15 -254.6 L35.45 -253.1 Q33.95 -257.8 31.35 -263.25 27.2 -271.7 24.0 -271.7 23.45 -271.7 21.95 -270.2 20.65 -268.85 19.35 -268.85 17.85 -272.25 15.6 -278.45 13.35 -282.55 9.0 -282.95 L8.1 -282.95 7.5 -282.95 Q7.15 -282.95 6.95 -282.75 L4.5 -282.2 4.5 -282.0 -0.55 -276.35 Q-5.05 -278.05 -6.55 -278.05 -10.65 -278.05 -13.65 -274.85 -16.1 -272.25 -16.65 -269.45 -22.3 -275.25 -27.0 -275.25 -33.55 -275.25 -38.6 -268.5 -42.75 -263.25 -43.65 -258.0 L-44.05 -258.0 -46.65 -259.85 Q-47.4 -258.95 -47.8 -257.45 -49.1 -253.3 -49.1 -249.55 -48.55 -239.25 -46.3 -235.85 -44.8 -235.7 -43.85 -234.35 L-43.65 -234.35 -42.15 -232.85 Q-39.35 -230.6 -37.85 -230.45 L-38.05 -230.25 Q-42.0 -226.3 -44.6 -221.6 -47.4 -216.55 -47.4 -212.45 -46.5 -208.3 -44.4 -207.0 -43.85 -205.3 -41.6 -201.2 L-39.9 -198.0 -39.15 -196.5 Q-36.55 -190.5 -35.05 -189.55 -35.05 -188.05 -33.9 -187.3 -33.15 -193.3 -28.1 -202.1 -28.1 -198.75 -26.05 -198.75 L-25.3 -198.95 -25.3 -199.3 Q-25.3 -202.5 -23.8 -203.25 -22.65 -202.1 -22.65 -201.55 -22.65 -198.2 -26.05 -192.95 L-31.1 -184.85 -31.85 -180.75 -32.8 -180.55 -33.15 -180.55 -33.55 -171.0 -33.35 -168.2 -33.55 -167.6 -33.35 -165.2 Q-32.6 -151.85 -29.25 -151.85 L-28.3 -152.05 Q-27.9 -154.5 -26.6 -157.85 L-26.4 -157.85 Q-25.85 -149.8 -24.9 -142.3 L-24.55 -135.2 -24.55 -131.05 -25.3 -119.25 Q-25.1 -106.1 -23.4 -94.3 L-23.8 -89.8 Q-22.85 -82.3 -20.25 -73.1 L-12.35 -48.95 -2.8 -22.1 0.2 -13.7 0.4 -18.75 0.2 -19.5 Q0.2 -20.45 0.75 -20.8 1.7 -26.6 4.7 -17.05 L6.95 -11.6 7.7 -10.3 10.7 -5.8 11.45 -7.1 Q9.75 -10.7 8.65 -19.5 7.9 -25.5 6.75 -43.3 6.2 -49.3 5.45 -64.85 4.5 -79.7 4.5 -81.75 L5.1 -86.8 Q4.35 -96.95 3.95 -105.55 L5.65 -121.85 Q7.7 -139.1 12.0 -168.35 10.15 -153.55 8.1 -125.05 L5.65 -89.6 Q6.2 -88.3 6.95 -87.75 L6.4 -77.6 6.4 -73.85 Q7.5 -57.2 9.0 -47.8 L10.7 -36.95 Q13.35 -27.2 16.9 -27.2 18.95 -27.2 21.0 -35.45 L20.85 -30.95 21.4 -24.0 21.4 -22.3 19.9 -22.3 19.7 -12.2 Q19.35 0.0 18.6 9.55 L18.6 10.15 Q20.25 6.95 25.5 3.95 25.15 6.4 21.95 15.75 23.65 15.4 25.9 13.9 28.5 12.2 30.4 11.45 30.4 12.55 28.15 15.55 25.9 18.55 26.1 20.8 27.6 20.8 30.0 19.7 30.95 19.7 31.15 20.25 L31.7 20.8 25.9 28.9 M58.7 -274.7 L58.5 -274.5 58.9 -274.1 58.7 -274.7 M-53.05 -329.25 Q-52.5 -330.35 -52.1 -331.85 -51.15 -334.7 -50.25 -333.75 L-50.4 -333.0 -49.65 -329.25 -49.65 -321.75 -51.35 -312.0 -51.35 -291.95 -50.8 -285.55 -51.0 -283.3 -51.55 -283.1 Q-53.4 -283.1 -54.55 -303.0 L-54.55 -303.2 -54.55 -303.55 -55.65 -308.6 -57.35 -315.75 -57.35 -316.1 -57.75 -317.25 Q-58.3 -318.95 -59.4 -319.5 -60.9 -320.25 -60.9 -321.55 -60.9 -321.95 -61.65 -323.25 L-62.05 -323.8 -60.75 -325.1 -59.6 -326.6 -57.9 -327.35 -56.25 -328.1 Q-55.85 -327.55 -54.9 -327.55 L-54.15 -327.75 -53.4 -327.35 -52.5 -327.75 -53.05 -328.5 Q-52.85 -328.7 -52.85 -329.05 L-53.05 -329.25 M-61.85 -326.8 L-62.25 -326.25 -62.05 -327.0 -61.85 -326.8 M-16.1 -79.1 Q-16.85 -83.25 -16.85 -87.55 -16.85 -97.7 -14.8 -113.45 -11.6 -136.7 -11.25 -140.6 L-7.65 -199.1 -7.65 -201.55 -3.0 -229.5 -2.4 -229.5 Q-3.35 -177.0 -2.8 -145.85 -2.4 -125.25 -1.3 -106.3 L-1.65 -101.25 Q-3.9 -128.45 -7.5 -137.45 L-8.05 -137.25 Q-10.1 -130.5 -11.6 -104.05 -12.75 -83.25 -12.35 -70.5 L-15.15 -76.7 -16.1 -79.1 M-69.55 -272.05 L-68.8 -277.85 -66.9 -284.8 Q-66.0 -288.0 -63.0 -286.1 -60.15 -284.45 -60.15 -282.95 -60.15 -281.05 -61.65 -276.2 L-63.55 -270.2 -63.75 -268.3 Q-66.9 -271.5 -69.55 -272.05 M-7.3 -176.05 L-7.5 -176.45 -7.1 -173.05 -7.3 -176.05 M-21.15 -63.55 Q-22.5 -66.95 -23.25 -70.1 L-22.5 -66.2 -21.0 -63.1 -21.15 -63.55 M-24.35 -74.25 L-24.55 -75.2 -24.55 -74.05 -24.35 -74.05 -24.35 -74.25 M-34.65 18.55 L-34.5 17.8 -35.25 18.2 -34.65 18.55 M-34.85 2.65 L-35.25 2.65 -35.05 2.8 -34.85 2.65 M-26.6 7.3 L-26.8 6.95 -26.8 7.3 -26.6 7.3" fill="#ff3300" fill-rule="evenodd" stroke="none"/>
  </g>
</svg>
