<?xml version="1.0" encoding="UTF-8" standalone="no"?>
<svg xmlns:ffdec="https://www.free-decompiler.com/flash" xmlns:xlink="http://www.w3.org/1999/xlink" ffdec:objectType="shape" height="327.65px" width="189.2px" xmlns="http://www.w3.org/2000/svg">
  <g transform="matrix(1.0, 0.0, 0.0, 1.0, 95.8, 339.25)">
    <path d="M93.4 -298.1 Q92.45 -285.35 90.2 -279.2 89.45 -274.5 87.95 -270.2 85.5 -262.7 82.5 -259.7 L82.7 -257.6 Q82.7 -252.35 75.95 -245.25 72.0 -241.1 69.2 -239.45 69.75 -236.6 69.75 -234.75 66.6 -217.1 54.95 -217.1 L53.25 -217.3 53.85 -215.45 Q54.6 -213.0 54.6 -211.1 L54.4 -208.5 55.5 -210.75 Q58.9 -216.55 62.25 -216.55 65.65 -216.55 69.75 -212.8 73.15 -209.8 74.25 -207.55 L74.85 -206.45 Q75.4 -206.05 75.75 -204.2 L75.95 -203.8 76.7 -201.75 Q76.9 -200.6 76.9 -197.05 75.2 -179.6 71.45 -179.6 71.1 -179.6 70.15 -180.2 71.25 -188.6 67.9 -195.95 64.35 -203.45 58.7 -203.45 56.85 -203.45 55.7 -202.85 L54.4 -202.3 Q52.5 -202.3 52.5 -203.45 L49.9 -198.75 Q43.9 -189.35 34.9 -188.6 34.35 -184.3 31.5 -177.35 27.6 -168.75 21.95 -166.5 L20.1 -166.1 19.35 -165.95 18.6 -162.95 18.75 -160.1 Q18.75 -155.25 16.35 -150.55 L13.9 -146.8 Q15.0 -141.2 15.0 -139.5 15.0 -137.8 12.95 -131.25 L10.7 -124.3 Q10.5 -123.75 8.85 -116.6 8.25 -113.6 6.95 -111.35 10.9 -112.85 13.35 -118.1 15.75 -123.0 15.75 -126.55 15.75 -128.6 15.2 -129.95 L16.15 -129.0 Q17.85 -127.1 18.2 -125.8 18.4 -125.45 18.4 -123.0 18.4 -118.85 16.7 -115.7 13.5 -109.7 5.65 -109.5 L5.25 -109.1 7.7 -104.45 Q8.25 -103.5 8.25 -101.45 8.25 -99.75 6.75 -96.55 L5.25 -93.55 Q5.25 -92.8 6.0 -90.55 6.75 -88.5 6.75 -86.45 6.75 -84.35 6.4 -82.5 7.35 -83.25 9.75 -82.1 13.9 -80.45 13.9 -76.7 13.9 -75.55 13.5 -75.0 10.5 -81.2 6.0 -81.35 L4.7 -78.95 Q2.25 -75.35 1.9 -69.75 L0.95 -59.8 Q0.2 -53.45 -1.65 -53.45 -5.05 -53.45 -5.6 -67.85 L-5.25 -72.55 -4.3 -74.8 Q-3.55 -76.5 -3.55 -77.25 -3.75 -80.05 -3.15 -86.25 L-3.9 -91.7 -3.55 -93.75 -3.75 -94.3 Q-3.75 -95.6 -3.15 -96.2 L-3.0 -97.5 Q-3.0 -97.85 -4.1 -99.0 -5.4 -100.5 -6.15 -102.2 L-6.9 -105.95 Q-6.9 -109.5 -5.6 -111.2 -7.1 -111.95 -7.85 -115.85 -8.6 -118.85 -8.6 -120.55 L-8.4 -123.75 -8.6 -123.95 -8.6 -123.55 Q-8.6 -111.95 -18.0 -111.95 -27.0 -111.95 -29.25 -120.55 L-28.85 -124.5 Q-27.15 -117.95 -19.85 -117.95 -14.8 -117.95 -11.6 -122.45 -10.3 -124.1 -9.75 -125.6 -11.6 -128.8 -13.1 -134.8 -13.1 -138.35 -10.65 -141.95 L-11.4 -144.2 Q-14.8 -146.8 -14.8 -153.2 -14.8 -155.6 -13.85 -159.75 L-14.05 -160.3 Q-16.3 -168.95 -16.65 -176.6 L-16.65 -177.75 -17.05 -176.8 -17.05 -176.6 Q-19.65 -165.95 -19.85 -163.1 -20.4 -157.85 -20.6 -151.7 L-20.8 -150.75 -21.75 -142.7 Q-21.75 -139.5 -21.15 -136.5 -22.1 -137.45 -23.25 -139.3 L-22.5 -136.5 -19.5 -130.85 -19.65 -130.85 Q-21.15 -131.6 -22.85 -132.75 L-23.4 -133.1 Q-24.9 -133.85 -27.35 -133.85 L-29.25 -133.85 -30.0 -133.7 -31.65 -132.95 Q-32.4 -132.35 -35.4 -130.85 L-41.05 -126.75 Q-44.6 -123.2 -44.6 -116.8 L-44.6 -116.6 -46.65 -119.6 Q-48.0 -121.7 -48.0 -125.25 L-47.8 -126.0 -48.0 -126.2 Q-48.0 -128.45 -46.1 -131.25 -44.05 -134.25 -42.0 -135.35 L-38.6 -137.45 Q-36.75 -138.35 -31.65 -138.35 -30.55 -138.2 -29.4 -137.45 L-29.4 -138.2 -29.25 -138.35 -31.5 -140.05 -33.15 -143.6 Q-34.5 -146.45 -34.65 -147.2 -34.85 -147.95 -34.85 -150.35 -34.85 -155.8 -32.25 -159.55 L-34.65 -167.8 Q-37.1 -177.35 -37.1 -179.45 -37.1 -180.35 -36.55 -182.05 -40.5 -184.3 -42.55 -190.7 -44.4 -196.3 -44.4 -200.8 -44.4 -206.05 -43.5 -208.85 -50.4 -210.2 -54.75 -216.2 -59.25 -222.35 -59.25 -229.1 L-59.05 -233.25 Q-69.15 -234.75 -73.5 -244.5 -76.1 -250.3 -76.1 -257.25 -76.1 -258.75 -75.75 -259.85 L-77.25 -259.85 Q-85.65 -259.85 -89.4 -268.85 -90.9 -272.25 -91.5 -275.45 -93.0 -280.3 -93.35 -285.75 L-93.55 -291.2 -93.15 -293.05 Q-94.1 -294.95 -94.65 -297.55 -95.8 -301.85 -95.8 -306.2 -95.8 -318.35 -89.25 -324.75 -86.4 -329.8 -78.35 -335.25 -66.0 -343.7 -66.0 -334.3 -66.0 -332.05 -66.15 -331.5 -66.75 -330.2 -69.15 -328.7 L-69.9 -329.05 -70.3 -327.75 Q-72.0 -320.6 -72.0 -318.35 -72.0 -316.85 -70.3 -310.7 L-69.35 -307.3 Q-65.6 -307.85 -59.05 -303.95 -52.85 -300.35 -50.6 -297.35 -45.15 -300.2 -37.65 -296.8 -33.35 -294.95 -31.1 -292.85 -30.35 -295.5 -28.5 -297.75 -23.8 -303.2 -13.5 -301.7 -12.55 -303.2 -10.85 -307.85 -7.1 -311.8 6.95 -312.95 13.35 -313.5 17.45 -309.95 L19.35 -307.85 Q22.35 -308.8 23.65 -308.45 26.85 -307.7 29.25 -305.25 L32.25 -301.7 Q33.95 -300.2 37.5 -294.35 40.9 -296.6 46.9 -298.85 L49.9 -299.8 Q51.4 -305.8 63.6 -307.85 L69.75 -308.45 Q70.15 -312.0 76.35 -315.35 81.95 -318.55 82.7 -315.2 L85.9 -314.45 Q90.0 -312.55 91.35 -309.35 93.4 -305.8 93.4 -298.1 M57.6 -177.2 L56.85 -177.2 55.7 -177.0 55.15 -177.55 55.15 -178.85 Q56.1 -179.05 57.4 -178.3 60.0 -178.1 62.65 -174.2 65.1 -170.6 65.1 -168.55 65.1 -166.5 64.15 -166.5 63.75 -166.5 62.85 -168.75 62.1 -170.8 61.7 -172.3 61.35 -173.45 59.1 -175.3 L57.6 -177.2 M50.65 -149.25 Q50.65 -147.55 48.4 -145.7 45.75 -143.6 42.6 -143.6 39.0 -143.6 37.35 -146.8 36.2 -148.7 36.2 -150.35 36.2 -151.1 37.15 -151.7 38.25 -149.45 38.85 -148.5 39.95 -146.6 42.0 -145.85 45.0 -145.7 47.25 -147.75 L49.9 -150.2 50.65 -149.25 M16.15 -155.6 L13.9 -150.2 Q15.2 -151.85 15.75 -153.55 L16.5 -156.55 16.35 -156.2 16.15 -155.6 M29.25 -140.45 L28.7 -138.75 Q27.6 -138.55 27.6 -139.85 27.6 -143.45 30.75 -143.25 L30.75 -142.3 Q29.25 -140.8 29.25 -140.45 M39.75 -119.25 L39.4 -118.3 Q35.25 -121.1 35.85 -123.2 36.95 -123.55 38.45 -121.7 39.75 -120.2 39.75 -119.25 M56.1 -127.7 Q58.7 -123.0 58.7 -117.55 58.7 -113.25 56.85 -110.8 60.0 -109.5 61.15 -102.35 L61.5 -93.35 Q61.5 -87.2 56.25 -83.8 L56.1 -83.8 Q57.4 -87.95 57.95 -94.5 L56.45 -103.7 Q54.4 -110.25 50.1 -111.75 50.25 -112.1 50.85 -112.1 52.35 -112.5 53.45 -110.6 L53.85 -110.45 54.2 -110.8 Q54.95 -113.25 54.95 -115.5 54.95 -119.05 54.75 -119.8 L53.25 -125.8 Q50.45 -132.2 47.65 -134.6 53.1 -133.1 56.1 -127.7 M62.85 -78.0 L62.85 -74.25 Q62.85 -71.45 60.75 -66.55 58.15 -60.75 54.95 -59.8 L53.65 -59.45 Q54.95 -57.75 54.95 -53.6 54.95 -49.5 51.75 -45.0 47.1 -38.8 38.85 -38.6 L36.2 -38.6 Q38.25 -40.3 40.7 -43.3 46.5 -50.45 46.5 -56.8 46.5 -58.7 45.75 -60.55 45.0 -62.6 44.65 -64.7 L47.45 -64.5 Q53.65 -64.5 57.4 -69.95 60.0 -73.7 60.0 -76.7 L59.45 -80.45 Q58.9 -81.95 57.95 -82.7 58.9 -85.7 60.95 -82.5 62.65 -79.5 62.85 -78.0 M35.25 -87.95 Q37.5 -89.8 37.9 -90.55 L38.1 -90.55 40.15 -93.55 Q40.7 -93.35 40.7 -92.45 38.65 -84.35 33.0 -84.35 31.35 -84.35 30.0 -85.5 29.25 -86.05 29.1 -86.6 L30.6 -86.45 Q31.35 -85.85 32.1 -85.85 33.0 -85.85 35.25 -87.95 M35.25 -70.7 L35.25 -70.3 Q35.25 -69.35 33.4 -67.7 31.35 -65.6 29.25 -65.6 26.1 -65.6 24.6 -67.85 23.45 -69.35 23.45 -70.7 23.45 -72.95 24.0 -73.85 24.2 -72.55 24.95 -71.25 L25.5 -70.3 Q25.7 -68.6 27.95 -67.85 L28.5 -67.85 29.85 -67.7 Q31.7 -67.7 34.15 -69.75 L35.25 -70.7 M11.45 -24.55 L11.85 -24.0 11.85 -23.05 Q11.45 -22.7 10.5 -22.7 L9.75 -22.85 9.4 -23.6 9.95 -24.35 11.45 -24.55 M-88.3 -288.95 L-87.9 -289.1 -88.3 -289.1 -88.3 -288.95 M-70.85 -333.55 L-71.4 -333.35 -71.25 -332.6 -70.85 -333.55 M-82.1 -232.5 L-78.9 -235.7 Q-75.55 -238.85 -70.5 -235.5 -67.65 -233.6 -66.0 -232.3 -62.6 -229.7 -62.6 -228.35 -62.6 -226.3 -67.5 -225.75 -73.1 -225.0 -74.8 -221.25 -76.85 -216.35 -76.85 -212.25 -76.85 -201.55 -67.3 -189.35 -67.1 -189.0 -67.5 -188.6 -68.05 -188.25 -68.6 -188.25 -69.15 -188.25 -72.55 -191.05 -76.1 -194.05 -77.25 -195.75 -78.55 -197.8 -82.85 -203.05 -86.8 -211.1 -86.8 -217.85 -86.8 -227.25 -82.1 -232.5 M-33.0 -180.95 L-32.6 -181.1 -33.0 -181.1 -33.0 -180.95 M-31.85 -157.5 L-31.65 -157.5 -31.85 -157.85 -31.85 -157.5 M-53.25 -124.1 L-55.5 -119.45 -56.25 -109.7 -56.05 -105.0 Q-56.05 -103.1 -55.1 -102.0 -54.35 -101.05 -54.35 -100.7 L-54.55 -100.1 Q-52.3 -100.1 -52.3 -99.75 L-48.75 -99.75 Q-47.4 -99.35 -47.4 -97.85 -47.4 -97.5 -51.35 -93.0 -55.3 -88.5 -55.3 -84.35 -55.3 -78.35 -51.35 -73.85 L-47.6 -70.1 Q-47.6 -69.75 -48.75 -68.8 L-51.35 -68.8 Q-58.5 -71.8 -61.1 -77.25 -62.8 -81.0 -62.8 -87.0 -62.8 -94.5 -56.8 -100.3 L-56.6 -100.3 Q-57.9 -102.0 -60.35 -107.45 L-62.4 -112.1 Q-62.6 -112.5 -62.6 -115.1 -62.6 -119.25 -60.75 -123.75 -58.5 -129.95 -54.35 -130.5 L-49.1 -130.5 -48.0 -129.0 Q-48.0 -128.6 -50.05 -126.95 L-53.25 -124.1 M-46.65 -106.85 L-45.55 -105.2 Q-44.4 -103.7 -43.1 -102.95 -42.35 -102.35 -41.4 -102.0 L-39.75 -102.0 Q-37.85 -102.0 -36.15 -102.95 -36.55 -102.35 -37.5 -101.6 -39.0 -100.1 -40.3 -100.1 -43.3 -100.1 -45.35 -102.75 -46.85 -104.6 -46.85 -106.1 L-46.65 -106.85 M-23.6 -102.35 Q-21.0 -102.35 -18.55 -99.95 L-17.6 -98.8 Q-18.75 -99.55 -20.05 -99.55 -24.55 -99.55 -27.75 -97.3 L-28.65 -96.35 -28.65 -96.75 Q-28.65 -98.25 -28.1 -99.75 -28.1 -100.7 -26.6 -101.6 -25.1 -102.35 -23.6 -102.35 M-7.5 -74.45 L-7.3 -73.85 -7.5 -73.5 -8.6 -73.3 Q-9.0 -73.7 -9.0 -74.45 -8.4 -75.0 -7.5 -74.45 M-24.75 -71.25 L-24.9 -72.2 Q-24.9 -74.05 -21.55 -73.5 -18.35 -72.95 -18.35 -69.95 L-18.55 -69.0 -19.85 -68.45 -21.35 -69.75 Q-23.05 -71.25 -24.75 -71.25 M-45.55 -66.35 L-45.9 -63.0 Q-45.9 -57.0 -39.55 -51.2 L-32.25 -45.2 Q-32.8 -44.6 -33.55 -44.6 L-34.5 -44.8 Q-35.8 -43.3 -37.65 -41.8 -38.8 -40.85 -38.8 -38.8 -38.8 -32.05 -33.75 -28.85 L-33.9 -28.1 -35.05 -27.95 Q-41.25 -27.95 -43.5 -33.35 -44.6 -36.2 -44.4 -39.0 -44.4 -42.2 -42.75 -44.8 L-45.0 -46.85 Q-47.25 -49.3 -47.6 -50.8 L-48.75 -57.35 Q-48.75 -64.7 -47.05 -67.1 L-47.05 -65.45 -47.05 -64.7 -46.3 -66.55 -45.55 -66.35 M-15.75 -47.8 Q-15.75 -49.5 -13.3 -49.3 -11.05 -49.1 -11.05 -47.25 -11.05 -45.2 -12.75 -45.2 -15.15 -45.2 -15.75 -47.8 M-10.1 -11.6 L-11.6 -11.8 -11.8 -12.95 Q-11.4 -15.0 -9.0 -14.05 -8.6 -14.05 -8.6 -13.1 -8.6 -11.6 -10.1 -11.6" fill="#000000" fill-opacity="0.7882353" fill-rule="evenodd" stroke="none"/>
  </g>
</svg>
