<?xml version="1.0" encoding="UTF-8" standalone="no"?>
<svg xmlns:ffdec="https://www.free-decompiler.com/flash" xmlns:xlink="http://www.w3.org/1999/xlink" ffdec:objectType="shape" height="171.4px" width="91.55px" xmlns="http://www.w3.org/2000/svg">
  <g transform="matrix(1.0, 0.0, 0.0, 1.0, 42.05, 144.0)">
    <path d="M14.65 -118.1 Q14.25 -122.6 14.25 -131.45 L14.45 -144.0 15.0 -144.0 Q15.6 -139.85 15.6 -131.25 15.6 -122.6 15.0 -118.1 L14.65 -118.1 M14.65 -97.7 Q14.65 -98.6 15.4 -99.2 15.75 -98.8 15.75 -97.7 L15.4 -95.8 14.85 -95.8 14.65 -97.7 M15.75 -90.35 Q15.75 -88.1 14.65 -87.0 13.5 -88.1 13.5 -89.45 13.5 -90.75 15.0 -91.5 L15.75 -90.35 M14.25 -64.7 Q14.25 -62.8 14.65 -61.85 L13.9 -62.45 13.9 -64.7 14.25 -64.7 M16.7 -41.45 L16.9 -41.05 16.5 -40.7 16.15 -40.5 15.0 -41.45 Q15.0 -42.75 15.95 -43.1 L16.7 -41.45 M21.75 -28.85 Q21.75 -30.0 22.5 -30.2 23.45 -29.8 23.45 -28.85 L22.9 -27.95 21.95 -27.75 21.75 -28.85 M18.95 -27.35 L17.85 -26.05 17.65 -26.8 Q17.65 -28.3 18.6 -28.7 18.95 -28.3 18.95 -27.35 M0.2 -0.55 Q-1.5 -2.25 -1.5 -3.35 -1.5 -4.85 -0.55 -5.25 0.0 -4.7 0.75 -1.1 L0.2 -0.55 M6.95 -2.05 L6.2 -2.25 6.4 -3.2 7.5 -2.6 6.95 -2.05 M13.35 -0.55 L13.15 -0.2 Q13.7 0.0 12.75 0.0 11.45 0.0 11.1 -1.1 L11.1 -2.45 Q11.1 -4.85 12.6 -4.7 L13.35 -4.3 13.35 -0.55 M23.1 -8.6 L24.2 -8.6 Q24.2 -6.55 23.85 -5.8 23.45 -5.8 23.1 -6.35 L23.1 -8.6 M21.2 -3.2 L22.15 -2.8 22.35 -2.45 Q22.15 -1.85 21.2 -1.7 L20.45 -2.05 Q20.45 -2.8 21.2 -3.2 M21.95 9.2 L21.75 8.25 Q21.75 7.7 23.25 6.75 L23.65 7.3 21.95 9.2 M12.75 11.8 L17.45 5.05 Q16.9 8.25 12.75 13.9 7.5 21.0 2.1 21.0 L0.75 20.65 Q7.15 18.55 11.45 13.5 10.35 13.15 10.35 12.55 10.35 12.0 11.65 11.05 12.6 11.45 12.75 11.8 M5.85 3.4 Q5.85 6.55 1.35 13.7 0.6 13.15 0.6 12.4 L2.45 8.05 Q4.15 4.3 3.75 1.5 5.25 0.95 5.65 1.9 5.85 2.05 5.85 3.4 M12.75 21.95 Q11.85 21.95 11.25 21.4 11.25 21.2 12.4 20.25 L14.1 19.15 15.0 19.3 Q13.7 21.95 12.75 21.95 M-12.55 -135.95 L-12.75 -136.5 -12.0 -139.1 Q-11.05 -141.2 -10.5 -141.75 -10.3 -139.85 -10.5 -138.75 -10.65 -136.85 -12.55 -135.95 M-10.85 -111.95 L-10.5 -107.8 -10.85 -101.25 -11.4 -100.7 Q-12.35 -102.35 -12.35 -106.7 -12.35 -111.55 -10.85 -111.95 M-36.35 -62.45 L-36.0 -60.55 Q-36.75 -56.45 -36.75 -54.35 L-37.65 -54.2 -37.85 -56.05 Q-37.85 -57.35 -36.75 -62.45 L-36.35 -62.45 M-36.55 -69.2 L-36.35 -71.05 -36.0 -71.05 -35.6 -69.35 Q-35.6 -68.45 -36.0 -68.05 L-36.35 -67.85 -36.55 -69.2 M-25.5 -61.5 L-25.1 -61.5 -24.75 -58.5 -25.65 -50.05 -25.5 -45.95 Q-25.5 -44.6 -25.65 -43.5 L-27.0 -43.7 -27.15 -43.7 Q-27.55 -44.6 -27.55 -46.1 -27.55 -50.45 -27.0 -52.85 L-25.5 -61.5 M-40.65 -16.5 L-41.25 -15.95 Q-41.8 -16.7 -41.8 -18.0 L-41.6 -19.7 -41.05 -19.7 -40.65 -18.95 -40.65 -16.5 M-41.8 -11.45 L-41.4 -11.45 -40.65 -9.35 -40.85 -9.2 -41.6 -10.3 Q-42.15 -10.85 -42.0 -11.45 L-41.8 -11.45 M-38.25 -43.85 L-38.4 -45.75 -38.05 -48.75 -37.65 -48.75 -37.1 -47.45 -37.65 -44.05 -38.25 -43.85 M-33.15 -5.8 L-32.05 -0.55 -32.4 -0.35 -32.8 -0.2 -33.0 -0.2 Q-33.75 -1.5 -33.9 -2.45 L-33.9 -2.8 -33.55 -5.8 -33.15 -5.8 M-10.85 9.0 Q-8.8 11.45 -8.8 13.5 L-11.05 15.4 Q-13.65 15.4 -13.1 11.25 -13.1 6.55 -10.85 9.0 M-10.85 14.25 L-10.5 14.25 Q-11.25 13.5 -11.25 12.4 L-12.0 12.4 Q-11.6 12.55 -10.85 14.25 M-4.3 17.8 Q-3.35 17.8 -2.05 17.05 -2.4 19.5 -4.5 19.5 -5.4 19.5 -6.15 18.75 -6.75 18.0 -6.75 17.45 -7.1 17.05 -6.15 17.05 -5.05 17.8 -4.3 17.8" fill="#ff3300" fill-opacity="0.8" fill-rule="evenodd" stroke="none"/>
    <path d="M14.25 -64.7 L13.9 -64.7 13.9 -62.45 14.65 -61.85 Q14.25 -62.8 14.25 -64.7 M16.5 -40.7 L12.2 -22.85 Q12.6 -22.7 11.65 -22.7 L10.7 -22.85 Q10.15 -29.6 9.4 -31.7 5.25 -28.5 3.2 -25.1 L3.2 -25.7 3.0 -25.1 Q1.15 -28.7 1.15 -42.95 1.15 -52.3 1.9 -55.5 2.45 -54.75 2.65 -53.8 2.85 -52.7 3.2 -52.3 L3.2 -49.1 3.6 -48.0 Q5.25 -42.2 6.0 -40.5 L6.75 -40.3 10.15 -49.7 Q12.0 -54.95 12.6 -58.5 14.65 -74.6 15.2 -76.5 16.5 -72.2 16.5 -57.95 L19.15 -65.05 Q20.1 -65.05 20.45 -64.3 L20.45 -33.35 19.5 -32.8 Q18.0 -35.05 17.65 -38.05 L17.25 -43.5 16.7 -41.45 15.95 -43.1 Q15.0 -42.75 15.0 -41.45 L16.15 -40.5 16.5 -40.7 M37.5 -25.3 L36.75 -25.5 36.2 -28.3 36.4 -30.0 Q39.0 -30.95 39.0 -26.45 L38.85 -25.7 Q38.45 -25.3 37.5 -25.3 M47.45 -7.7 Q47.45 -9.35 48.6 -10.3 49.5 -8.8 49.5 -7.85 49.5 -6.2 48.2 -5.45 47.45 -6.35 47.45 -7.7 M48.75 -2.6 L47.85 3.95 Q48.2 4.15 47.25 4.15 L46.15 3.95 45.95 2.65 Q45.95 1.9 46.7 -0.95 47.65 -3.75 47.85 -3.95 48.75 -3.55 48.75 -2.6 M40.5 -1.85 Q40.5 -0.75 35.45 7.7 L33.4 10.7 Q34.5 10.15 35.45 9.2 37.15 7.7 38.25 7.7 L38.45 7.7 Q38.65 7.7 38.65 8.25 38.65 9.95 32.85 15.95 L32.85 16.15 Q35.25 16.9 37.7 15.4 L40.5 13.7 41.85 13.9 42.0 14.65 Q42.0 16.15 34.7 21.75 27.2 27.4 24.75 27.4 L23.1 27.2 23.1 25.5 Q29.45 21.2 30.75 15.75 L30.75 15.55 Q30.2 15.95 29.65 16.15 L26.85 17.65 24.4 17.65 24.2 17.45 23.85 17.25 24.0 17.25 24.0 16.7 24.75 15.75 24.4 15.4 23.45 14.8 Q24.0 13.5 27.6 10.15 L32.25 5.65 Q33.4 4.5 35.85 0.75 38.25 -2.45 40.35 -2.6 L40.5 -1.85 M36.6 17.65 L32.45 17.8 31.7 19.3 Q32.85 18.55 33.95 18.4 L34.15 19.3 34.15 19.5 37.15 17.65 36.6 17.65 M-41.6 -10.3 L-40.85 -9.2 -40.65 -9.35 -41.4 -11.45 -41.8 -11.45 -42.0 -11.8 -40.1 -12.2 Q-41.05 -9.35 -35.25 -1.1 L-35.25 -2.45 Q-35.25 -6.2 -34.85 -9.2 -34.3 -13.7 -33.15 -16.1 -32.6 -14.05 -32.25 -10.7 L-32.05 -10.3 Q-31.85 -9.95 -31.85 -6.95 L-31.85 -5.8 Q-31.5 -0.2 -30.9 2.8 -30.0 6.55 -26.25 12.2 -21.0 20.05 -20.05 21.75 -20.25 22.3 -21.0 22.3 L-29.25 15.75 Q-27.55 21.75 -24.15 24.95 -24.15 25.9 -24.75 26.05 -34.3 18.2 -37.85 7.15 -39.75 1.15 -41.6 -10.3 M-2.4 -40.85 Q-2.05 -38.45 -1.85 -32.45 -1.65 -26.8 -1.1 -23.8 -0.9 -23.45 -1.85 -23.45 -2.25 -23.45 -2.8 -28.3 L-3.35 -33.2 Q-3.35 -37.1 -2.8 -40.85 L-2.4 -40.85 M-14.8 -38.25 Q-9.15 -15.0 -9.15 -9.35 -9.15 -7.7 -10.1 -3.0 -11.25 2.45 -12.15 2.45 -13.3 2.45 -13.85 1.3 L-14.4 -0.2 Q-15.55 0.95 -16.3 3.2 -17.05 5.8 -18.0 6.95 L-20.6 4.3 Q-21.0 7.9 -20.6 12.0 L-21.0 12.4 Q-26.6 6.4 -29.6 -9.2 -32.05 -21.55 -32.05 -33.95 L-31.85 -35.45 Q-32.6 -37.3 -32.6 -38.05 L-32.4 -39.0 -31.5 -39.0 -31.5 -37.7 Q-31.1 -32.8 -29.8 -28.3 -27.55 -19.85 -23.8 -18.95 -21.0 -13.3 -17.8 -13.3 -14.25 -13.3 -13.65 -23.8 -13.65 -29.05 -15.75 -37.1 -15.75 -38.05 -14.8 -38.25 M-33.15 -5.8 L-33.55 -5.8 -33.9 -2.8 -33.9 -2.45 Q-33.75 -1.5 -33.0 -0.2 L-32.8 -0.2 -32.4 -0.35 -32.05 -0.55 -33.15 -5.8" fill="#ee481e" fill-opacity="0.6117647" fill-rule="evenodd" stroke="none"/>
  </g>
</svg>
