<?xml version="1.0" encoding="UTF-8" standalone="no"?>
<svg xmlns:ffdec="https://www.free-decompiler.com/flash" xmlns:xlink="http://www.w3.org/1999/xlink" ffdec:objectType="shape" height="204.5px" width="92.25px" xmlns="http://www.w3.org/2000/svg">
  <g transform="matrix(1.0, 0.0, 0.0, 1.0, 41.25, 178.6)">
    <path d="M13.5 -119.6 Q13.5 -126.0 14.85 -126.55 15.75 -124.5 15.75 -120.0 15.75 -117.0 14.65 -111.35 L14.25 -111.35 13.5 -119.6 M13.15 -81.55 L12.75 -81.95 Q12.4 -82.1 12.4 -82.85 12.4 -84.55 13.5 -84.55 L13.9 -84.55 Q14.1 -84.35 14.1 -83.45 L13.7 -81.75 13.15 -81.55 M14.85 -66.95 Q14.65 -66.35 14.1 -66.35 13.15 -66.35 13.15 -68.25 13.15 -69.75 13.5 -70.85 L14.25 -70.85 Q14.85 -69.2 14.85 -66.95 M9.75 -26.8 Q9.95 -26.8 10.15 -27.0 11.45 -27.0 12.0 -25.3 L11.25 -24.2 Q9.75 -24.2 9.75 -26.05 L9.75 -26.8 M12.2 -31.85 L11.25 -31.5 9.6 -32.8 Q9.6 -33.2 11.25 -34.3 L12.0 -34.1 Q12.4 -33.95 12.4 -33.2 L12.2 -31.85 M-19.3 -118.1 L-20.4 -118.1 Q-21.35 -126.2 -21.35 -142.1 -21.35 -180.35 -18.75 -178.5 L-18.0 -142.1 Q-18.0 -125.45 -19.3 -118.1 M-35.6 -97.3 Q-35.6 -100.3 -33.75 -100.85 -33.75 -92.45 -34.3 -88.3 -35.6 -95.25 -35.6 -97.3 M-34.5 -76.7 Q-34.1 -75.2 -34.85 -73.7 L-35.05 -75.0 -34.85 -76.7 -34.5 -76.7 M-35.4 -63.55 Q-36.0 -63.55 -36.0 -65.05 -36.0 -66.35 -35.6 -66.35 L-34.85 -66.35 -34.85 -64.1 -35.4 -63.55 M-6.9 -70.85 L-6.35 -70.3 -7.3 -69.35 Q-8.6 -69.95 -8.6 -70.85 L-6.9 -70.85 M-6.75 -59.8 L-6.75 -58.1 -8.05 -57.95 Q-10.65 -57.95 -11.25 -60.35 -11.25 -61.7 -10.85 -62.05 L-7.5 -61.7 Q-6.75 -61.5 -6.75 -59.8 M-8.4 -39.35 Q-8.4 -38.25 -9.55 -38.25 L-11.25 -39.35 Q-11.25 -40.1 -10.3 -40.5 -9.35 -40.85 -8.6 -40.1 L-8.4 -39.35 M-4.5 4.5 Q-5.05 4.5 -5.6 3.95 -5.8 4.7 -5.8 3.2 -5.8 2.45 -4.85 2.05 L-2.25 2.25 -4.5 4.5" fill="#ff3300" fill-opacity="0.8" fill-rule="evenodd" stroke="none"/>
    <path d="M14.65 -103.5 L15.2 -103.5 16.35 -102.75 Q16.15 -101.45 15.2 -101.45 14.45 -101.8 14.45 -102.35 L14.65 -103.5 M16.15 -94.5 L16.35 -94.1 15.4 -93.75 15.0 -94.7 16.15 -94.5 M15.0 -60.95 Q15.4 -62.6 15.95 -63.2 17.1 -61.7 17.1 -57.95 L16.9 -52.1 Q15.75 -51.75 15.75 -49.7 L15.75 -47.6 14.25 -45.95 12.75 -44.25 Q11.85 -44.8 11.85 -45.75 L13.15 -55.1 Q12.95 -56.25 13.9 -57.0 15.0 -57.95 14.85 -58.85 14.65 -59.6 15.0 -60.95 M38.45 -31.1 Q38.1 -30.95 38.1 -31.5 38.1 -32.45 38.25 -32.05 L39.2 -31.7 38.65 -31.3 38.45 -31.1 M8.25 -41.45 Q7.5 -39.55 7.5 -38.6 7.7 -38.25 6.75 -38.25 6.0 -38.25 5.45 -39.55 L5.1 -40.85 Q5.1 -42.55 7.15 -42.75 L6.6 -41.8 6.6 -41.45 7.9 -41.6 8.25 -41.45 M4.15 -0.75 L3.95 -0.35 2.65 -0.35 2.25 -0.95 Q2.65 -1.85 3.6 -1.85 4.15 -1.3 4.15 -0.75 M13.5 -3.55 L12.75 -3.0 Q12.2 -3.2 12.2 -4.1 L13.15 -4.3 13.5 -3.55 M25.15 -8.25 L24.6 -7.7 Q23.85 -7.7 23.85 -9.0 24.2 -9.2 24.95 -9.0 L25.15 -8.25 M41.25 -6.75 Q41.25 -3.95 37.5 1.5 33.75 6.95 32.45 9.2 32.65 9.4 32.45 9.95 38.45 7.5 40.15 6.2 40.9 6.4 40.9 7.5 40.9 9.0 38.65 11.8 36.0 15.4 35.65 16.15 37.5 16.15 44.1 11.8 L44.85 12.0 45.2 12.95 Q45.2 15.55 29.25 25.9 L28.15 25.5 Q28.35 24.55 29.45 23.45 L31.5 21.75 33.2 19.15 33.0 17.65 Q33.0 16.5 34.9 13.5 L35.85 12.2 33.6 12.55 29.65 12.0 29.25 11.65 Q28.7 11.45 27.95 11.65 L27.4 11.65 Q31.7 8.05 35.25 1.5 L40.7 -7.7 41.25 -6.75 M49.5 -4.85 L49.35 -3.75 48.6 -3.75 48.2 -4.1 Q48.6 -5.25 49.35 -5.25 49.5 -5.8 49.5 -4.85 M49.35 -6.95 Q48.6 -7.5 48.6 -8.25 48.6 -12.0 50.45 -13.1 L51.0 -12.2 Q50.1 -9.95 50.1 -7.5 L49.35 -6.95 M36.75 11.25 Q36.75 10.9 37.15 10.75 L36.6 11.05 36.75 11.25 M23.65 4.9 L24.0 4.7 Q24.75 5.25 24.75 6.2 L24.0 6.75 Q23.25 6.55 23.25 5.65 23.25 5.05 23.65 4.9 M19.15 7.9 L18.4 8.45 17.45 8.05 17.45 7.5 Q18.2 7.15 19.15 7.9 M-12.15 -110.8 L-12.35 -110.6 Q-12.75 -110.6 -12.75 -111.2 -12.75 -112.1 -12.55 -111.95 -12.0 -111.95 -11.6 -111.55 -11.6 -111.0 -12.15 -110.8 M-26.8 -57.35 Q-26.8 -58.5 -25.1 -62.25 -24.15 -61.3 -24.15 -60.35 -24.15 -57.75 -25.5 -56.6 L-26.25 -56.45 -26.8 -57.35 M-40.85 -15.95 L-40.1 -15.95 -40.1 -15.55 -39.9 -15.75 Q-37.5 -3.95 -35.25 1.9 L-34.85 1.9 -34.5 -9.35 Q-34.1 -12.55 -33.35 -15.0 -32.4 -18.35 -31.85 -12.55 L-31.1 -1.5 Q-30.55 5.05 -28.85 9.75 L-29.6 10.3 Q-30.55 9.2 -31.3 6.95 L-31.5 7.5 -32.25 7.7 -33.9 6.4 Q-35.25 6.2 -36.55 4.3 L-37.1 3.75 Q-35.4 8.65 -32.8 13.9 L-33.0 14.65 -33.55 14.8 Q-34.65 14.8 -36.35 10.3 L-38.8 3.75 -39.55 1.3 -40.65 -0.2 Q-40.65 -0.95 -40.3 -1.3 -41.25 -4.85 -41.25 -7.5 L-40.85 -15.95 M-8.8 -42.55 L-7.65 -42.35 -7.85 -41.45 -8.6 -41.25 -8.8 -42.55 M-12.9 -28.7 Q-12.15 -26.8 -12.15 -23.05 L-12.55 -13.3 -12.55 -12.55 -12.75 -12.2 -13.1 -4.5 -13.85 -4.1 Q-15.0 -4.1 -15.35 -5.8 -15.75 -8.05 -15.9 -8.25 L-16.65 -5.8 Q-17.05 -4.3 -18.35 -4.3 L-21.75 -6.75 Q-21.75 -5.05 -22.3 -4.1 -23.8 -4.7 -24.9 -7.7 L-25.1 -8.05 Q-24.55 -5.8 -24.55 -4.85 -24.55 -3.95 -24.75 -4.1 L-25.65 -3.75 Q-27.0 -3.75 -29.05 -9.75 -30.35 -14.05 -30.35 -15.75 -30.35 -16.85 -31.65 -25.5 L-31.85 -26.05 -31.65 -26.45 -32.05 -28.1 Q-32.05 -29.05 -31.1 -31.85 L-31.1 -32.45 Q-31.1 -37.1 -29.4 -36.95 -31.65 -33.2 -26.6 -23.45 -25.85 -21.75 -24.9 -20.45 -24.0 -19.7 -22.85 -17.45 L-22.1 -15.95 Q-20.8 -14.25 -19.65 -14.05 L-19.5 -15.2 Q-19.3 -16.7 -18.15 -16.7 -17.4 -16.7 -16.65 -15.95 -15.75 -18.0 -15.15 -21.55 -14.8 -23.05 -14.4 -31.5 L-13.85 -32.05 Q-13.1 -30.95 -12.9 -28.7 M-33.15 -0.95 L-32.8 -0.25 -33.0 -0.95 -33.15 -1.1 -33.15 -0.95 M-2.6 -4.5 L-3.15 -4.7 Q-2.8 -6.35 -1.1 -6.75 -1.1 -4.85 -2.6 -4.5 M-10.85 9.4 L-13.1 9.75 -13.3 7.9 Q-11.6 7.9 -10.85 8.65 L-10.85 9.4 M-2.4 18.4 L-3.0 18.75 Q-3.75 18.2 -3.75 17.05 L-3.15 17.05 Q-2.4 17.8 -2.4 18.4" fill="#ee481e" fill-opacity="0.6117647" fill-rule="evenodd" stroke="none"/>
  </g>
</svg>
