<?xml version="1.0" encoding="UTF-8" standalone="no"?>
<svg xmlns:ffdec="https://www.free-decompiler.com/flash" xmlns:xlink="http://www.w3.org/1999/xlink" ffdec:objectType="shape" height="318.45px" width="190.65px" xmlns="http://www.w3.org/2000/svg">
  <g transform="matrix(1.0, 0.0, 0.0, 1.0, 96.55, 348.8)">
    <path d="M-39.75 -327.75 Q-34.1 -328.85 -30.0 -324.95 -27.15 -322.1 -26.25 -318.75 -23.25 -320.6 -19.65 -320.45 L-19.1 -320.45 -17.6 -322.85 Q-14.05 -327.35 -10.5 -328.7 -3.9 -330.95 4.15 -326.45 L6.6 -324.95 Q11.45 -329.8 15.95 -328.1 20.65 -325.7 22.9 -323.8 L31.9 -324.2 Q36.95 -323.45 39.75 -321.55 40.5 -324.95 43.7 -330.35 48.4 -338.25 51.95 -339.35 67.5 -344.45 77.25 -338.25 83.65 -334.3 85.35 -328.3 88.35 -323.05 91.15 -309.55 93.95 -296.25 93.95 -288.2 94.35 -284.45 93.75 -280.85 93.2 -276.2 91.15 -274.5 L90.95 -273.95 Q91.5 -271.5 91.5 -268.7 91.5 -264.75 86.25 -258.55 80.1 -251.25 72.4 -251.05 71.1 -248.05 68.1 -244.1 64.7 -239.45 61.7 -238.1 L61.7 -236.6 Q61.7 -233.6 58.35 -228.0 55.7 -223.7 52.5 -221.8 L53.1 -221.05 52.9 -219.95 Q48.2 -219.95 46.7 -218.45 46.15 -217.85 45.75 -216.55 45.6 -215.45 44.45 -215.05 L43.9 -212.8 Q42.0 -206.45 38.1 -202.5 L35.85 -201.0 Q34.5 -199.3 33.6 -197.6 33.6 -195.0 32.25 -192.55 L28.9 -187.1 Q26.65 -184.1 25.5 -183.2 L21.6 -177.0 Q20.1 -174.55 17.1 -167.25 15.2 -162.55 12.95 -162.55 10.5 -162.55 10.7 -164.8 L11.45 -168.0 11.45 -173.45 Q11.45 -177.55 11.25 -178.7 11.1 -180.35 9.6 -184.3 6.95 -182.8 5.65 -182.8 3.0 -182.8 -0.15 -184.85 -0.75 -185.25 -1.3 -185.45 L-4.85 -181.3 Q-8.4 -177.2 -9.0 -177.2 -10.85 -177.2 -11.8 -180.0 -12.35 -181.5 -12.9 -184.5 -13.1 -185.45 -14.8 -187.85 L-15.9 -189.55 Q-19.3 -185.05 -20.05 -183.35 -24.15 -170.25 -26.25 -170.25 -29.25 -170.25 -30.75 -177.75 L-33.15 -189.75 -35.25 -198.35 Q-37.3 -207.35 -37.3 -209.45 -37.3 -210.55 -38.8 -214.7 L-38.8 -215.05 Q-45.35 -216.2 -51.0 -225.55 -54.0 -230.8 -55.1 -233.8 -62.25 -234.2 -67.1 -250.5 L-67.5 -250.5 Q-74.6 -250.5 -77.6 -262.3 -86.25 -263.45 -91.1 -275.8 -94.5 -284.45 -94.5 -290.6 L-94.3 -292.3 -95.05 -295.1 Q-96.15 -299.6 -96.55 -304.3 -96.55 -309.55 -93.35 -316.5 -90.35 -323.25 -86.05 -328.3 -79.5 -335.6 -66.75 -341.8 -59.6 -345.35 -55.65 -346.3 -59.4 -347.6 -61.1 -346.3 -61.5 -346.5 -61.5 -347.05 -61.5 -349.1 -56.6 -348.75 -52.1 -348.35 -49.65 -346.85 -43.85 -342.75 -43.1 -339.75 -41.05 -333.95 -40.3 -329.45 -41.25 -331.5 -42.75 -333.2 -47.25 -338.8 -55.5 -338.8 -77.4 -338.8 -80.05 -310.5 L-80.8 -312.55 Q-81.9 -314.6 -83.6 -314.6 -88.1 -314.6 -91.5 -307.1 -94.1 -300.95 -94.1 -295.85 -94.1 -291.75 -93.35 -288.0 -93.15 -293.25 -89.25 -298.3 -85.3 -303.75 -81.15 -303.75 -78.55 -303.75 -76.1 -301.3 -73.85 -298.85 -72.55 -294.75 L-72.15 -294.75 Q-72.15 -298.5 -67.1 -302.6 -62.05 -306.75 -57.15 -306.75 -49.85 -306.75 -46.3 -301.3 -43.85 -297.55 -42.75 -290.25 L-42.35 -290.25 Q-41.8 -295.5 -37.85 -299.25 -33.9 -303.35 -28.3 -303.35 -24.0 -303.35 -20.4 -300.2 -16.85 -297.0 -17.25 -293.6 L-16.1 -293.6 Q-15.55 -300.95 -9.9 -306.0 -3.75 -311.6 5.1 -311.6 7.7 -311.6 9.75 -309.55 12.75 -306.75 13.7 -306.35 L14.1 -306.35 Q12.4 -324.2 -6.15 -324.2 -12.0 -324.2 -16.85 -320.25 -21.15 -316.7 -22.5 -312.35 L-22.85 -312.0 Q-24.15 -314.8 -30.0 -318.0 -35.6 -321.2 -39.0 -321.2 L-39.15 -321.2 Q-38.8 -324.75 -39.75 -327.75 M32.85 -319.5 Q29.1 -319.5 24.4 -313.7 21.0 -309.55 20.1 -306.0 L23.1 -307.5 Q27.4 -309.35 29.85 -309.35 36.0 -309.35 44.45 -305.25 54.4 -300.55 55.15 -294.75 57.95 -306.2 60.0 -309.55 63.75 -315.35 71.65 -315.35 75.2 -315.35 76.9 -313.7 78.2 -312.2 79.35 -307.5 L80.45 -313.7 Q81.2 -318.0 81.2 -320.8 81.2 -323.8 79.7 -326.8 77.85 -330.2 75.0 -330.2 72.95 -330.2 71.65 -329.25 70.5 -328.5 68.85 -326.05 L65.65 -331.7 Q64.35 -332.8 59.1 -332.8 45.0 -332.8 41.25 -313.85 L40.5 -314.25 Q40.35 -316.1 37.5 -317.8 35.1 -319.5 32.85 -319.5" fill="#000000" fill-opacity="0.7882353" fill-rule="evenodd" stroke="none"/>
    <path d="M-40.3 -329.45 L-40.1 -327.75 -39.75 -327.75 Q-38.8 -324.75 -39.15 -321.2 L-39.0 -321.2 Q-35.6 -321.2 -30.0 -318.0 -24.15 -314.8 -22.85 -312.0 L-22.5 -312.35 Q-21.15 -316.7 -16.85 -320.25 -12.0 -324.2 -6.15 -324.2 12.4 -324.2 14.1 -306.35 L13.7 -306.35 Q12.75 -306.75 9.75 -309.55 7.7 -311.6 5.1 -311.6 -3.75 -311.6 -9.9 -306.0 -15.55 -300.95 -16.1 -293.6 L-17.25 -293.6 Q-16.85 -297.0 -20.4 -300.2 -24.0 -303.35 -28.3 -303.35 -33.9 -303.35 -37.85 -299.25 -41.8 -295.5 -42.35 -290.25 L-42.75 -290.25 Q-43.85 -297.55 -46.3 -301.3 -49.85 -306.75 -57.15 -306.75 -62.05 -306.75 -67.1 -302.6 -72.15 -298.5 -72.15 -294.75 L-72.55 -294.75 Q-73.85 -298.85 -76.1 -301.3 -78.55 -303.75 -81.15 -303.75 -85.3 -303.75 -89.25 -298.3 -93.15 -293.25 -93.35 -288.0 -94.1 -291.75 -94.1 -295.85 -94.1 -300.95 -91.5 -307.1 -88.1 -314.6 -83.6 -314.6 -81.9 -314.6 -80.8 -312.55 L-80.05 -310.5 Q-77.4 -338.8 -55.5 -338.8 -47.25 -338.8 -42.75 -333.2 -41.25 -331.5 -40.3 -329.45 M32.85 -319.5 Q35.1 -319.5 37.5 -317.8 40.35 -316.1 40.5 -314.25 L41.25 -313.85 Q45.0 -332.8 59.1 -332.8 64.35 -332.8 65.65 -331.7 L68.85 -326.05 Q70.5 -328.5 71.65 -329.25 72.95 -330.2 75.0 -330.2 77.85 -330.2 79.7 -326.8 81.2 -323.8 81.2 -320.8 81.2 -318.0 80.45 -313.7 L79.35 -307.5 Q78.2 -312.2 76.9 -313.7 75.2 -315.35 71.65 -315.35 63.75 -315.35 60.0 -309.55 57.95 -306.2 55.15 -294.75 54.4 -300.55 44.45 -305.25 36.0 -309.35 29.85 -309.35 27.4 -309.35 23.1 -307.5 L20.1 -306.0 Q21.0 -309.55 24.4 -313.7 29.1 -319.5 32.85 -319.5" fill="#232323" fill-opacity="0.7058824" fill-rule="evenodd" stroke="none"/>
    <path d="M72.6 -214.3 Q73.7 -212.6 74.1 -210.55 L74.25 -210.0 71.85 -212.25 Q67.7 -215.8 64.5 -215.8 L62.85 -215.6 Q63.2 -216.35 64.5 -216.2 L63.95 -216.55 Q64.7 -217.85 68.1 -216.95 71.25 -216.0 72.6 -214.3 M63.0 -92.8 Q61.7 -89.6 60.0 -89.8 L59.45 -91.1 Q59.45 -91.7 61.5 -96.0 61.7 -96.95 61.35 -98.6 61.35 -99.95 62.85 -100.7 64.35 -99.75 64.35 -97.5 64.35 -95.6 63.0 -92.8 M54.0 -54.75 L52.7 -60.0 Q56.25 -61.85 61.35 -68.05 L65.1 -72.75 Q63.95 -66.75 58.9 -61.1 58.7 -60.95 57.4 -53.8 56.1 -47.05 54.95 -47.05 53.65 -47.05 53.65 -50.8 53.65 -52.7 54.0 -54.75 M-84.9 -231.95 Q-81.0 -236.8 -77.25 -236.8 -75.55 -236.8 -74.8 -236.25 L-76.85 -234.75 Q-86.4 -226.5 -86.4 -218.05 -86.6 -214.85 -86.05 -212.05 L-85.5 -210.0 Q-88.1 -211.3 -89.05 -221.05 -89.05 -226.7 -84.9 -231.95 M-86.25 -226.3 L-85.5 -227.6 -85.65 -227.45 -86.25 -226.3 M-74.8 -228.0 L-75.0 -228.2 -75.55 -227.8 -75.55 -227.6 -74.8 -228.0 M-71.8 -228.75 Q-73.65 -227.25 -75.15 -224.45 L-76.1 -223.5 Q-76.65 -222.75 -76.85 -221.05 -78.0 -218.6 -78.15 -216.55 L-78.35 -216.55 Q-79.3 -217.5 -79.3 -221.8 -79.3 -229.3 -73.1 -231.2 -68.05 -232.85 -67.1 -230.8 -69.15 -230.6 -70.85 -229.3 L-71.8 -228.75 M-54.55 -131.8 L-56.8 -129.55 Q-57.9 -128.25 -57.75 -127.85 -57.15 -127.85 -57.15 -127.5 -57.15 -127.1 -59.4 -124.5 -61.65 -121.85 -61.85 -120.75 L-61.5 -114.35 Q-61.5 -113.25 -62.6 -113.05 -64.3 -114.2 -64.3 -118.5 -64.3 -128.6 -54.9 -132.0 L-54.55 -131.8 M-56.4 -99.2 Q-59.4 -95.6 -60.55 -93.2 -61.5 -90.95 -61.5 -87.35 -61.5 -83.8 -60.55 -82.1 L-60.55 -80.45 -61.5 -79.85 -64.1 -83.8 Q-64.3 -84.2 -64.3 -87.0 -64.3 -90.35 -62.4 -94.3 -60.15 -99.35 -56.8 -99.75 L-56.4 -99.2 M-39.55 -132.95 L-39.9 -132.95 Q-40.1 -132.95 -40.1 -133.5 -40.1 -138.55 -33.55 -141.35 -27.0 -144.0 -27.0 -140.25 -27.0 -138.95 -29.6 -138.95 -33.15 -139.1 -35.8 -137.25 L-39.55 -132.95 M-25.3 -119.25 Q-24.35 -118.1 -20.6 -116.45 L-18.55 -116.45 Q-15.75 -117.95 -12.75 -120.2 -12.55 -118.7 -14.05 -117.0 -15.9 -114.75 -19.3 -114.75 -21.9 -114.75 -24.0 -116.05 -25.85 -117.2 -26.05 -118.7 L-25.3 -119.25 M-46.85 -51.2 L-41.8 -42.95 -43.5 -43.1 Q-44.4 -43.1 -44.4 -41.25 -44.4 -38.6 -42.35 -36.55 -38.8 -32.8 -37.65 -30.75 L-38.05 -30.35 Q-45.9 -35.45 -45.9 -41.25 -45.9 -41.8 -44.4 -44.6 -44.4 -45.0 -47.25 -49.1 -50.05 -53.25 -50.05 -56.6 -50.05 -58.3 -48.9 -59.05 -49.85 -55.85 -46.85 -51.2" fill="#000000" fill-opacity="0.30588236" fill-rule="evenodd" stroke="none"/>
  </g>
</svg>
