<?xml version="1.0" encoding="UTF-8" standalone="no"?>
<svg xmlns:ffdec="https://www.free-decompiler.com/flash" xmlns:xlink="http://www.w3.org/1999/xlink" ffdec:objectType="shape" height="224.25px" width="186.0px" xmlns="http://www.w3.org/2000/svg">
  <g transform="matrix(1.0, 0.0, 0.0, 1.0, 93.75, 357.35)">
    <path d="M89.45 -289.7 L89.65 -289.85 89.45 -288.0 89.25 -287.8 89.1 -289.5 89.45 -289.7 M88.5 -300.2 L87.75 -300.2 88.5 -300.35 88.5 -300.2 88.7 -300.2 88.9 -299.45 88.7 -299.6 88.5 -300.2 M79.7 -263.8 L79.7 -263.6 79.35 -263.8 79.7 -263.8 M78.6 -259.5 L78.6 -259.7 78.75 -259.7 78.75 -259.3 78.6 -259.5 M62.85 -284.6 L62.45 -284.45 62.65 -284.8 62.85 -284.6 M69.95 -262.85 L70.15 -262.5 70.15 -262.3 69.95 -262.3 69.95 -262.85 M16.7 -148.7 L16.7 -149.25 17.1 -149.05 16.7 -148.7 M-77.6 -294.0 L-77.8 -294.0 -77.8 -294.35 -77.6 -294.0 M-83.6 -271.1 L-84.15 -270.35 -83.8 -271.3 -83.6 -271.1 M-27.15 -240.75 L-27.0 -240.35 -27.75 -240.35 -27.15 -240.75 M-23.6 -240.95 L-25.65 -240.55 -25.3 -240.95 -25.1 -240.95 -24.55 -240.95 -24.0 -241.1 -23.6 -240.95 M-27.75 -153.95 L-28.1 -155.05 -27.75 -155.45 -27.75 -153.95" fill="#ffff00" fill-rule="evenodd" stroke="none"/>
    <path d="M75.4 -317.45 Q75.2 -317.8 75.4 -318.0 75.2 -319.5 75.75 -320.8 L75.75 -322.85 75.4 -323.45 75.4 -322.5 74.25 -322.1 Q71.45 -324.95 71.45 -329.05 71.45 -330.0 73.15 -332.8 73.35 -333.55 72.75 -336.0 72.75 -341.05 78.2 -330.35 83.65 -319.85 83.65 -315.75 L83.45 -306.55 83.85 -306.2 85.5 -304.3 Q87.0 -299.8 87.0 -297.35 87.0 -295.1 85.7 -292.7 L85.5 -292.3 81.95 -294.95 81.2 -295.5 Q80.1 -296.05 79.35 -296.6 78.4 -298.7 78.75 -300.95 L78.0 -301.1 76.35 -300.95 76.35 -304.1 Q76.7 -306.2 73.9 -310.85 L75.75 -315.2 75.6 -316.1 75.4 -317.45 M73.7 -287.6 Q74.65 -288.35 76.9 -289.3 77.65 -289.7 78.4 -291.0 L79.5 -292.85 80.1 -293.25 83.25 -291.75 84.6 -290.45 84.2 -289.1 Q84.2 -288.35 84.75 -287.45 L85.35 -286.1 Q85.35 -284.8 82.7 -281.25 L80.85 -278.8 80.65 -280.5 80.1 -280.5 75.2 -286.1 73.7 -287.6 M71.45 -285.55 L74.45 -279.75 77.65 -273.75 76.15 -270.95 Q75.4 -269.6 73.5 -269.25 L71.45 -272.8 Q67.5 -279.95 66.4 -281.25 L64.9 -282.75 68.65 -284.05 71.45 -285.55 M56.85 -279.95 L59.1 -277.85 60.4 -276.55 Q65.1 -271.7 67.9 -267.2 61.5 -263.6 59.85 -263.05 58.35 -262.5 55.5 -259.85 52.9 -257.8 51.75 -257.8 50.65 -257.8 49.15 -258.75 L48.75 -259.5 Q47.25 -261.95 45.75 -263.6 L42.95 -266.8 Q43.35 -269.05 46.35 -271.5 L54.2 -278.05 Q55.35 -279.2 56.85 -279.95 M27.95 -263.05 L28.5 -258.0 27.0 -255.75 Q26.1 -253.85 26.1 -253.1 L26.85 -250.5 Q23.65 -245.45 22.5 -243.2 L21.75 -241.5 Q20.85 -240.35 19.9 -238.3 L18.2 -235.3 Q17.45 -234.0 17.45 -232.3 L18.75 -226.5 Q18.75 -225.75 18.2 -225.35 L16.9 -224.45 Q16.5 -224.05 16.35 -223.1 16.35 -222.2 16.15 -222.0 L15.95 -220.5 15.95 -217.85 15.6 -216.35 15.4 -216.2 15.0 -216.2 14.45 -218.6 14.45 -219.55 14.85 -219.35 14.65 -222.35 Q14.65 -224.6 14.85 -225.0 15.2 -225.95 15.75 -226.1 15.95 -226.3 15.95 -227.25 L15.4 -231.0 15.4 -231.2 15.6 -231.75 15.4 -232.3 15.0 -233.6 Q13.7 -237.55 11.45 -239.8 L12.95 -241.5 12.95 -241.7 14.25 -243.55 17.45 -247.5 20.45 -250.1 Q23.25 -251.8 23.25 -253.3 L22.9 -255.75 Q22.9 -257.25 23.65 -257.6 24.75 -258.55 25.5 -260.25 L26.65 -262.5 27.0 -263.25 27.2 -263.6 27.95 -263.05 M6.4 -225.0 Q6.6 -226.5 7.7 -230.25 L7.7 -225.35 Q7.5 -222.55 8.25 -220.7 L8.25 -212.45 Q8.1 -208.3 8.85 -206.8 L9.4 -207.0 9.75 -208.7 Q10.35 -210.2 11.45 -210.75 L11.65 -210.0 Q11.65 -209.05 10.9 -207.75 10.35 -206.45 10.35 -205.85 9.6 -202.5 9.4 -200.45 8.85 -194.6 7.5 -189.75 L6.75 -199.7 6.95 -201.35 Q7.15 -201.75 7.9 -201.95 8.25 -202.1 8.25 -202.7 L7.5 -205.7 Q6.6 -209.25 6.6 -210.95 L6.4 -220.3 6.4 -225.0 M0.95 -244.3 L2.65 -247.1 Q3.95 -247.3 5.45 -248.05 3.4 -244.85 2.85 -243.2 L0.75 -237.35 0.6 -237.75 Q0.6 -239.6 -0.15 -241.5 -0.15 -242.05 0.95 -244.3 M1.15 -224.8 L1.15 -214.1 0.95 -212.45 Q-0.15 -204.95 -0.15 -203.6 L-0.35 -203.8 -0.55 -206.8 Q-0.55 -210.95 0.0 -213.0 -1.85 -214.3 -2.25 -215.25 -2.8 -216.2 -2.8 -218.05 -2.4 -222.95 -1.3 -222.95 0.6 -222.95 0.95 -224.6 L0.95 -224.8 1.15 -224.8 M-81.35 -293.05 L-81.55 -292.85 Q-82.5 -293.45 -83.6 -296.25 -84.75 -299.25 -85.3 -299.25 L-86.6 -298.85 -86.8 -301.3 Q-86.8 -306.35 -82.1 -313.3 -80.8 -315.2 -79.3 -316.7 -75.0 -325.7 -70.3 -326.25 L-70.1 -325.3 Q-70.1 -323.05 -72.35 -316.1 -74.25 -309.75 -75.9 -308.45 L-75.75 -307.7 -76.3 -306.75 Q-77.05 -305.45 -79.1 -303.55 -81.15 -301.85 -81.55 -300.55 L-81.35 -293.05 M-84.75 -288.0 Q-83.4 -288.95 -81.55 -289.7 L-80.8 -289.85 -75.75 -285.55 -78.0 -281.25 Q-78.55 -281.45 -78.75 -281.6 L-78.9 -281.45 -78.9 -280.1 -78.75 -279.95 -79.3 -279.2 -79.85 -279.2 Q-81.55 -280.5 -83.25 -283.3 -84.0 -284.8 -84.35 -286.1 -84.75 -287.25 -84.75 -288.0 M-76.65 -280.3 L-76.3 -281.25 -74.4 -284.6 -73.65 -284.05 Q-70.1 -282.55 -68.6 -282.0 -66.9 -281.25 -65.05 -279.95 -67.3 -277.7 -69.0 -274.7 L-69.15 -274.3 -76.65 -280.3 M-27.15 -240.75 L-30.35 -245.8 Q-32.8 -249.95 -34.5 -251.45 L-35.05 -256.3 -35.8 -258.95 Q-33.0 -262.85 -31.85 -264.95 L-30.9 -265.5 Q-29.8 -262.1 -26.4 -254.05 -23.05 -247.7 -22.5 -247.1 L-21.15 -245.05 -20.6 -244.1 -20.4 -243.75 -21.35 -243.2 -22.1 -242.6 -22.5 -242.45 Q-22.5 -242.25 -23.25 -241.7 L-24.0 -241.1 -24.55 -240.95 -25.1 -240.95 -25.3 -240.95 -25.65 -240.55 -23.6 -240.95 -23.4 -240.95 -23.25 -240.75 -23.05 -240.2 Q-23.05 -238.7 -24.75 -237.35 L-24.75 -233.25 -24.9 -233.25 Q-24.75 -234.55 -26.4 -236.8 L-27.0 -239.05 Q-27.35 -240.0 -27.75 -240.35 L-27.0 -240.35 -27.15 -240.75 M-61.3 -277.1 L-51.15 -269.05 -47.25 -265.5 -48.9 -263.45 -50.05 -261.35 -51.15 -261.95 Q-56.8 -264.2 -61.1 -267.75 L-66.15 -271.85 -62.05 -276.55 -61.3 -277.1 M-7.85 -244.7 Q-5.05 -241.85 -5.05 -241.1 -5.8 -240.0 -5.8 -239.05 -5.8 -238.3 -5.05 -236.8 -4.5 -235.1 -4.5 -234.55 L-5.6 -228.35 -5.8 -228.35 Q-5.4 -231.0 -7.3 -237.55 -7.65 -240.35 -8.4 -242.25 -8.8 -243.35 -10.85 -245.8 L-10.5 -247.3 -10.5 -247.7 -7.85 -244.7" fill="#ffffff" fill-rule="evenodd" stroke="none"/>
    <path d="M75.4 -318.0 L68.45 -330.2 69.6 -332.45 Q70.7 -334.5 70.7 -335.25 70.7 -336.35 69.6 -336.95 L67.7 -337.1 Q66.4 -339.2 65.45 -343.1 L63.6 -349.5 72.6 -341.6 75.4 -338.25 75.95 -339.2 84.0 -324.0 Q84.95 -323.25 85.9 -321.75 L88.35 -317.6 Q90.0 -314.45 90.0 -313.1 90.0 -309.0 86.85 -308.45 L87.6 -307.5 87.6 -307.1 Q87.75 -306.55 88.35 -306.2 L88.5 -305.05 Q89.1 -302.25 89.85 -301.3 90.4 -300.75 90.4 -298.85 90.4 -297.35 89.1 -294.55 L89.25 -294.35 89.45 -290.8 89.45 -289.7 89.1 -289.5 88.7 -289.1 Q88.9 -288.0 89.1 -287.8 L89.25 -287.8 89.45 -288.0 89.25 -286.7 Q88.9 -285.75 88.9 -284.6 L89.25 -280.7 89.25 -280.1 88.5 -282.75 88.5 -283.1 Q87.6 -285.55 86.65 -289.5 L85.5 -292.3 85.7 -292.7 Q87.0 -295.1 87.0 -297.35 87.0 -299.8 85.5 -304.3 L83.85 -306.2 83.45 -306.55 83.65 -315.75 Q83.65 -319.85 78.2 -330.35 72.75 -341.05 72.75 -336.0 73.35 -333.55 73.15 -332.8 71.45 -330.0 71.45 -329.05 71.45 -324.95 74.25 -322.1 L75.4 -322.5 75.4 -323.45 75.75 -322.85 75.75 -320.8 Q75.2 -319.5 75.4 -318.0 M76.5 -298.1 Q76.15 -299.45 75.6 -300.0 74.25 -301.1 74.25 -302.05 L74.65 -304.5 Q74.65 -306.0 73.7 -307.7 L73.7 -308.45 73.7 -310.5 73.7 -311.6 75.4 -317.45 75.6 -316.1 75.75 -315.2 73.9 -310.85 Q76.7 -306.2 76.35 -304.1 L76.35 -300.95 78.0 -301.1 78.75 -300.95 Q78.4 -298.7 79.35 -296.6 L76.7 -298.1 76.5 -298.1 M88.5 -300.2 L88.7 -299.6 88.9 -299.45 88.7 -300.2 88.5 -300.2 88.5 -300.35 87.75 -300.2 88.5 -300.2 M-0.75 -189.35 L-0.75 -189.75 -2.25 -197.05 -2.6 -197.25 Q-3.35 -197.25 -5.6 -186.35 L-5.8 -186.35 -8.8 -210.0 Q-10.5 -224.6 -13.85 -224.6 -16.1 -224.6 -16.5 -208.85 L-18.35 -214.5 Q-18.75 -216.0 -22.1 -222.95 L-24.0 -227.05 -25.5 -231.2 -26.8 -234.2 -27.9 -237.75 Q-30.55 -244.3 -33.35 -244.3 -34.85 -244.3 -36.0 -242.8 L-37.85 -244.3 Q-38.6 -244.7 -40.3 -244.7 -42.75 -244.7 -45.35 -242.6 -47.4 -240.95 -48.35 -238.85 -48.9 -239.45 -48.9 -240.0 -48.9 -243.75 -43.65 -248.8 -38.4 -253.85 -38.6 -258.35 -38.6 -261.55 -36.75 -265.7 L-36.9 -265.7 -36.9 -266.6 -36.0 -268.3 -35.05 -269.6 -35.4 -269.6 -35.25 -270.35 Q-32.8 -271.5 -31.3 -271.5 -26.25 -271.5 -22.65 -265.5 -20.4 -261.35 -19.85 -257.45 -19.5 -255.2 -18.0 -251.25 L-16.3 -245.25 Q-15.75 -246.0 -14.25 -249.35 -13.3 -251.8 -12.35 -251.8 L-9.15 -247.3 Q-8.4 -247.7 -8.05 -248.8 -7.65 -249.55 -6.75 -249.55 -5.25 -249.55 -3.55 -246.2 -2.25 -243.55 -2.05 -241.85 L-1.85 -241.7 0.95 -247.3 Q2.45 -251.05 5.85 -251.05 8.1 -251.05 8.65 -249.95 9.75 -247.7 10.35 -247.1 L14.25 -254.8 Q19.15 -262.85 24.0 -264.95 L32.85 -268.5 34.7 -268.7 34.7 -268.5 Q33.6 -264.0 33.6 -261.95 33.6 -257.8 38.65 -254.45 43.7 -251.25 43.7 -240.95 43.7 -237.35 40.9 -236.25 39.6 -235.7 36.4 -235.7 L27.6 -234.95 Q26.1 -235.1 24.2 -233.05 L21.6 -230.25 21.4 -230.25 21.4 -231.2 Q21.75 -238.3 28.5 -243.2 30.0 -244.1 30.95 -247.1 L32.25 -251.8 32.25 -252.0 23.25 -241.7 Q19.7 -237.0 19.7 -232.3 19.7 -230.05 20.25 -226.3 20.85 -222.55 20.85 -220.5 20.85 -215.8 16.35 -202.3 12.95 -192.75 12.2 -189.0 9.95 -179.05 7.7 -179.05 6.75 -179.05 6.75 -180.2 L6.95 -182.6 3.4 -171.95 3.4 -171.75 Q2.85 -173.05 1.35 -178.5 -0.35 -184.85 -0.35 -186.75 L-0.75 -189.35 M80.1 -293.25 L79.5 -292.85 78.4 -291.0 Q77.65 -289.7 76.9 -289.3 74.65 -288.35 73.7 -287.6 L72.4 -288.95 70.7 -291.0 70.5 -291.2 70.9 -291.75 Q72.2 -293.25 73.35 -293.8 L75.95 -294.55 76.5 -294.95 80.1 -293.25 M80.85 -278.8 L82.7 -281.25 Q85.35 -284.8 85.35 -286.1 L84.75 -287.45 Q84.2 -288.35 84.2 -289.1 L84.6 -290.45 Q85.5 -289.1 86.1 -286.85 L86.65 -281.45 88.35 -267.95 Q87.2 -265.1 84.2 -264.35 L84.75 -264.2 Q84.6 -263.8 83.85 -263.6 L83.65 -265.85 83.1 -268.5 82.5 -273.35 Q81.2 -276.75 80.85 -278.8 M67.15 -289.85 L68.65 -288.75 71.1 -286.5 71.45 -285.55 68.65 -284.05 64.9 -282.75 62.85 -284.6 62.65 -284.8 62.45 -284.45 60.6 -284.45 57.0 -285.2 Q59.1 -286.5 60.75 -286.7 62.1 -286.7 62.85 -287.45 L64.7 -289.1 Q65.45 -289.7 67.15 -289.85 M77.65 -273.75 Q80.65 -267.55 80.65 -266.25 80.65 -265.5 79.9 -263.8 78.0 -264.35 78.2 -265.85 77.25 -263.6 76.15 -262.7 L74.85 -260.8 74.25 -264.55 73.7 -268.7 73.5 -269.25 Q75.4 -269.6 76.15 -270.95 L77.65 -273.75 M40.5 -273.0 Q41.65 -274.85 44.1 -276.95 48.0 -280.3 50.25 -280.85 50.65 -280.85 53.1 -282.35 L56.65 -280.1 56.85 -279.95 Q55.35 -279.2 54.2 -278.05 L46.35 -271.5 Q43.35 -269.05 42.95 -266.8 L42.6 -267.2 41.1 -268.85 40.5 -269.8 40.15 -270.35 39.75 -271.3 40.5 -273.0 M67.9 -267.2 L69.4 -264.35 69.95 -262.85 69.95 -262.3 70.15 -262.3 Q70.7 -262.1 70.7 -260.8 L70.7 -260.45 70.35 -256.7 Q67.15 -252.95 66.0 -252.75 66.4 -252.0 66.4 -251.25 66.4 -249.35 63.2 -245.8 L59.85 -242.6 60.4 -240.75 Q60.4 -238.5 57.95 -235.5 L54.95 -231.55 Q54.6 -229.85 51.6 -226.85 L48.75 -224.05 48.95 -225.0 52.15 -232.5 Q52.9 -234.2 53.1 -237.0 52.7 -237.35 52.7 -237.95 L52.9 -238.3 53.25 -241.7 Q53.25 -244.85 52.5 -251.6 L51.0 -255.35 49.15 -258.75 Q50.65 -257.8 51.75 -257.8 52.9 -257.8 55.5 -259.85 58.35 -262.5 59.85 -263.05 61.5 -263.6 67.9 -267.2 M26.65 -276.95 Q21.0 -276.95 16.35 -273.0 12.6 -269.05 12.0 -269.05 6.4 -272.05 3.0 -272.05 -0.55 -272.05 -8.05 -265.85 L-14.8 -276.35 Q-18.55 -280.5 -24.9 -280.5 -26.8 -280.5 -29.05 -279.35 L-28.1 -280.3 -27.55 -281.05 Q-27.15 -281.6 -27.15 -282.2 -25.85 -285.55 -24.75 -286.85 -23.05 -288.95 -20.05 -288.95 -18.35 -288.95 -16.85 -287.25 L-15.35 -285.0 Q-14.6 -290.25 -8.25 -294.95 -2.25 -299.25 2.85 -299.25 6.4 -299.25 9.4 -294.95 11.85 -291.35 12.75 -286.5 L12.75 -286.3 Q11.25 -287.45 6.75 -287.45 L6.6 -287.45 Q6.6 -288.75 2.85 -287.45 -1.3 -286.3 -4.3 -283.1 -5.6 -281.6 -7.1 -278.05 L-8.25 -274.7 -8.25 -273.55 Q-7.65 -275.25 -4.1 -278.05 0.0 -281.45 3.0 -281.45 5.45 -281.45 6.75 -279.35 7.5 -278.25 8.65 -274.85 L9.0 -274.85 8.65 -276.0 Q8.65 -276.95 10.15 -279.75 11.45 -282.35 12.75 -283.7 15.75 -286.7 19.5 -286.7 22.9 -286.7 25.35 -282.0 26.65 -279.55 27.2 -276.95 L26.65 -276.95 M27.2 -263.6 L27.0 -263.25 26.65 -262.5 25.5 -260.25 Q24.75 -258.55 23.65 -257.6 22.9 -257.25 22.9 -255.75 L23.25 -253.3 Q23.25 -251.8 20.45 -250.1 L17.45 -247.5 14.25 -243.55 12.95 -241.7 12.95 -241.5 11.45 -239.8 Q13.7 -237.55 15.0 -233.6 L15.4 -232.3 15.6 -231.75 15.4 -231.2 15.4 -231.0 15.95 -227.25 Q15.95 -226.3 15.75 -226.1 15.2 -225.95 14.85 -225.0 14.65 -224.6 14.65 -222.35 L14.85 -219.35 14.45 -219.55 14.45 -218.6 15.0 -216.2 15.4 -216.2 15.6 -216.35 15.95 -217.85 15.95 -220.5 16.15 -222.0 Q16.35 -222.2 16.35 -223.1 16.5 -224.05 16.9 -224.45 L18.2 -225.35 Q18.75 -225.75 18.75 -226.5 L17.45 -232.3 Q17.45 -234.0 18.2 -235.3 L19.9 -238.3 Q20.85 -240.35 21.75 -241.5 L22.5 -243.2 Q23.65 -245.45 26.85 -250.5 L26.1 -253.1 Q26.1 -253.85 27.0 -255.75 L28.5 -258.0 27.95 -263.05 27.6 -264.55 27.2 -263.6 M38.25 -223.5 Q41.1 -223.5 41.1 -220.3 41.1 -216.0 40.35 -212.6 38.65 -206.25 38.25 -203.8 L39.6 -206.45 40.15 -206.45 40.7 -203.25 Q40.7 -198.0 28.7 -183.55 29.45 -190.3 30.75 -196.5 L30.95 -198.0 30.2 -201.0 29.85 -202.5 Q28.9 -207.2 28.9 -211.3 28.9 -219.35 31.15 -219.35 32.25 -219.35 32.85 -216.2 L32.65 -218.45 Q32.85 -220.1 34.15 -221.05 L36.6 -222.95 Q37.35 -223.5 38.25 -223.5 M0.95 -244.3 Q-0.15 -242.05 -0.15 -241.5 0.6 -239.6 0.6 -237.75 L0.75 -237.35 2.85 -243.2 Q3.4 -244.85 5.45 -248.05 3.95 -247.3 2.65 -247.1 L0.95 -244.3 M6.4 -225.0 L6.4 -220.3 6.6 -210.95 Q6.6 -209.25 7.5 -205.7 L8.25 -202.7 Q8.25 -202.1 7.9 -201.95 7.15 -201.75 6.95 -201.35 L6.75 -199.7 7.5 -189.75 Q8.85 -194.6 9.4 -200.45 9.6 -202.5 10.35 -205.85 10.35 -206.45 10.9 -207.75 11.65 -209.05 11.65 -210.0 L11.45 -210.75 Q10.35 -210.2 9.75 -208.7 L9.4 -207.0 8.85 -206.8 Q8.1 -208.3 8.25 -212.45 L8.25 -220.7 Q7.5 -222.55 7.7 -225.35 L7.7 -230.25 Q6.6 -226.5 6.4 -225.0 M0.95 -224.8 L0.95 -224.6 Q0.6 -222.95 -1.3 -222.95 -2.4 -222.95 -2.8 -218.05 -2.8 -216.2 -2.25 -215.25 -1.85 -214.3 0.0 -213.0 -0.55 -210.95 -0.55 -206.8 L-0.35 -203.8 -0.15 -203.6 Q-0.15 -204.95 0.95 -212.45 L1.15 -214.1 1.15 -224.8 1.35 -227.25 0.95 -224.8 M54.95 -243.7 L54.95 -242.8 55.15 -243.2 54.95 -243.7 M-78.75 -293.8 L-80.25 -293.45 -81.35 -293.05 -81.55 -300.55 Q-81.15 -301.85 -79.1 -303.55 -77.05 -305.45 -76.3 -306.75 L-75.75 -307.7 -75.9 -308.45 Q-74.25 -309.75 -72.35 -316.1 -70.1 -323.05 -70.1 -325.3 L-70.3 -326.25 Q-75.0 -325.7 -79.3 -316.7 -80.8 -315.2 -82.1 -313.3 -86.8 -306.35 -86.8 -301.3 L-86.6 -298.85 -85.3 -299.25 Q-84.75 -299.25 -83.6 -296.25 -82.5 -293.45 -81.55 -292.85 -86.25 -291.2 -87.9 -290.25 L-88.85 -289.5 Q-90.35 -292.85 -90.35 -295.85 -90.35 -303.95 -86.05 -312.2 -83.8 -316.5 -81.0 -320.25 L-79.85 -320.05 -78.75 -320.8 -76.85 -322.85 Q-75.35 -324.35 -74.6 -325.3 L-71.6 -329.05 -71.4 -329.05 -71.25 -328.3 -70.3 -328.85 -70.1 -329.45 -70.3 -330.75 Q-68.05 -333.95 -68.05 -334.3 -68.05 -336.95 -69.35 -342.55 -69.35 -344.8 -65.6 -348.95 L-64.1 -344.05 Q-62.8 -339.75 -62.8 -338.6 -62.8 -337.85 -66.75 -330.55 -70.65 -323.25 -70.65 -321.2 -70.65 -320.25 -69.75 -318.0 -69.0 -315.95 -69.0 -314.8 -69.0 -313.1 -69.75 -311.6 L-71.05 -308.05 Q-71.05 -307.5 -73.3 -304.5 L-75.0 -302.05 -75.15 -303.2 -75.35 -300.95 -75.55 -300.75 -75.9 -299.05 Q-76.3 -297.0 -78.75 -293.8 M-80.8 -289.85 Q-80.4 -290.25 -79.85 -290.25 L-78.35 -291.0 Q-78.15 -291.2 -78.0 -291.2 L-77.05 -291.55 -75.0 -291.55 -73.3 -290.05 -74.05 -288.95 -75.75 -285.55 -80.8 -289.85 M-78.0 -281.25 Q-78.55 -280.7 -78.75 -279.95 L-78.9 -280.1 -78.9 -281.45 -78.75 -281.6 Q-78.55 -281.45 -78.0 -281.25 M-79.3 -279.2 L-79.65 -278.45 -83.6 -271.1 -83.8 -271.3 -84.15 -270.35 -86.05 -273.95 Q-89.05 -280.1 -89.8 -285.2 L-85.65 -287.6 -84.75 -288.0 Q-84.75 -287.25 -84.35 -286.1 -84.0 -284.8 -83.25 -283.3 -81.55 -280.5 -79.85 -279.2 L-79.3 -279.2 M-82.85 -267.35 L-82.85 -267.75 -79.5 -275.05 -76.65 -280.3 -69.15 -274.3 Q-70.85 -271.3 -72.9 -265.1 L-73.85 -262.5 -74.6 -261.75 -74.8 -261.55 -75.0 -261.75 Q-76.1 -261.75 -79.3 -264.0 -82.3 -266.05 -82.85 -267.35 M-74.4 -284.6 L-72.75 -288.0 -72.15 -288.75 -71.8 -288.35 Q-70.65 -287.05 -69.9 -287.05 L-67.85 -287.45 Q-66.15 -287.45 -61.5 -284.25 L-60.75 -283.7 -61.1 -283.3 -61.85 -282.75 -61.85 -282.55 -65.05 -279.95 Q-66.9 -281.25 -68.6 -282.0 -70.1 -282.55 -73.65 -284.05 L-74.4 -284.6 M-24.0 -241.1 L-23.25 -241.7 Q-22.5 -242.25 -22.5 -242.45 L-22.1 -242.6 -21.35 -243.2 -20.4 -243.75 -20.6 -244.1 -21.15 -245.05 -22.5 -247.1 Q-23.05 -247.7 -26.4 -254.05 -29.8 -262.1 -30.9 -265.5 L-31.85 -264.95 Q-33.0 -262.85 -35.8 -258.95 L-35.05 -256.3 -34.5 -251.45 Q-32.8 -249.95 -30.35 -245.8 L-27.15 -240.75 -27.75 -240.35 Q-27.35 -240.0 -27.0 -239.05 L-26.4 -236.8 Q-24.75 -234.55 -24.9 -233.25 L-24.75 -233.25 -24.75 -237.35 Q-23.05 -238.7 -23.05 -240.2 L-23.25 -240.75 -23.4 -240.95 -23.6 -240.95 -24.0 -241.1 M-61.3 -277.1 Q-58.85 -279.75 -56.6 -281.25 L-55.1 -282.2 -55.1 -281.8 Q-54.0 -281.8 -50.05 -279.2 L-45.75 -276.35 Q-44.25 -275.6 -42.55 -272.45 L-42.15 -272.25 -42.35 -272.05 -44.6 -268.7 -47.25 -265.5 -51.15 -269.05 -61.3 -277.1 M-66.15 -271.85 L-61.1 -267.75 Q-56.8 -264.2 -51.15 -261.95 L-50.05 -261.35 -51.15 -259.5 -51.0 -259.1 -51.75 -258.2 -53.05 -255.55 -54.55 -251.25 -57.0 -243.0 -56.8 -241.1 Q-58.3 -241.7 -59.4 -242.8 -60.75 -244.3 -61.3 -246.0 -61.65 -247.5 -62.8 -248.45 L-65.25 -250.5 Q-66.15 -251.45 -69.75 -257.25 L-71.6 -260.05 -71.8 -259.85 -71.8 -260.45 -71.8 -260.8 -71.4 -261.55 Q-71.4 -262.1 -71.8 -262.3 L-71.8 -262.5 -71.4 -263.25 Q-69.9 -267.35 -66.15 -271.85 M-26.4 -185.25 Q-27.15 -187.3 -28.3 -192.0 -29.8 -197.45 -31.1 -197.6 -32.4 -194.6 -32.4 -190.5 -32.4 -188.6 -30.9 -181.85 L-30.9 -181.7 Q-32.8 -189.35 -36.35 -197.05 -38.25 -200.6 -38.25 -202.1 -38.25 -203.8 -36.9 -204.35 -39.75 -206.05 -42.0 -210.2 -44.05 -214.1 -44.05 -217.5 -44.05 -218.8 -43.5 -220.1 -42.75 -219.95 -41.8 -219.0 L-40.65 -217.85 -40.3 -217.85 -40.65 -219.2 Q-40.65 -221.6 -37.85 -221.6 -34.65 -221.6 -32.05 -212.8 L-30.15 -204.95 -30.0 -205.3 -28.3 -206.25 Q-26.25 -206.25 -26.25 -187.7 L-26.25 -185.25 -26.4 -185.25 M-7.85 -244.7 L-10.5 -247.7 -10.5 -247.3 -10.85 -245.8 Q-8.8 -243.35 -8.4 -242.25 -7.65 -240.35 -7.3 -237.55 -5.4 -231.0 -5.8 -228.35 L-5.6 -228.35 -4.5 -234.55 Q-4.5 -235.1 -5.05 -236.8 -5.8 -238.3 -5.8 -239.05 -5.8 -240.0 -5.05 -241.1 -5.05 -241.85 -7.85 -244.7" fill="#f8e800" fill-rule="evenodd" stroke="none"/>
    <path d="M89.45 -289.7 L89.45 -290.8 89.25 -294.35 89.1 -294.55 Q90.4 -297.35 90.4 -298.85 90.4 -300.75 89.85 -301.3 89.1 -302.25 88.5 -305.05 L88.35 -306.2 Q87.75 -306.55 87.6 -307.1 L87.6 -307.5 86.85 -308.45 Q90.0 -309.0 90.0 -313.1 90.0 -314.45 88.35 -317.6 L85.9 -321.75 Q84.95 -323.25 84.0 -324.0 L75.95 -339.2 75.4 -338.25 72.6 -341.6 63.6 -349.5 65.45 -343.1 Q66.4 -339.2 67.7 -337.1 L69.6 -336.95 Q70.7 -336.35 70.7 -335.25 70.7 -334.5 69.6 -332.45 L68.45 -330.2 75.4 -318.0 Q75.2 -317.8 75.4 -317.45 L73.7 -311.6 73.7 -310.5 73.7 -308.45 73.7 -307.7 Q74.65 -306.0 74.65 -304.5 L74.25 -302.05 Q74.25 -301.1 75.6 -300.0 76.15 -299.45 76.5 -298.1 74.85 -299.25 73.9 -299.6 L73.35 -300.0 72.75 -300.0 72.4 -300.0 72.6 -301.7 72.75 -302.6 72.95 -303.55 72.75 -304.1 71.65 -306.35 71.45 -306.35 Q70.9 -306.95 70.9 -307.1 L70.9 -307.7 70.7 -308.05 Q70.9 -308.25 71.1 -308.05 71.25 -310.85 72.75 -317.6 L69.6 -323.25 Q66.2 -328.7 66.2 -330.2 66.2 -331.7 67.9 -334.5 64.5 -336.0 63.6 -338.6 63.0 -340.3 62.65 -343.5 60.6 -349.7 60.6 -352.5 L60.75 -353.6 Q62.25 -353.6 63.75 -352.1 L67.9 -349.1 73.5 -344.05 74.25 -343.1 74.25 -343.3 Q77.25 -342.2 79.9 -337.3 82.5 -331.5 83.85 -329.25 90.6 -317.05 90.6 -313.7 90.2 -310.85 90.2 -307.3 L90.2 -306.75 91.7 -303.95 91.9 -301.85 Q92.25 -301.7 92.25 -300.75 L91.7 -298.85 91.7 -298.7 Q90.95 -296.45 90.95 -295.7 L90.95 -290.8 90.95 -280.85 Q90.95 -278.45 90.2 -278.45 89.85 -278.45 89.25 -280.1 L89.25 -280.7 88.9 -284.6 Q88.9 -285.75 89.25 -286.7 L89.45 -288.0 89.65 -289.85 89.45 -289.7 M-0.75 -189.75 L-3.35 -176.05 Q-6.9 -155.8 -7.3 -147.75 L-9.0 -147.55 -10.1 -154.1 -9.55 -179.25 Q-9.55 -183.55 -11.05 -197.25 -12.35 -207.35 -12.55 -214.7 L-13.5 -207.75 Q-14.6 -200.05 -14.6 -196.3 L-14.6 -173.45 -16.3 -173.25 -19.85 -199.3 Q-21.15 -206.8 -23.05 -213.2 -27.55 -222.55 -27.9 -225.75 L-27.9 -226.1 -28.3 -225.55 -29.05 -226.1 Q-30.55 -227.45 -32.25 -228.2 -35.6 -230.05 -39.9 -230.05 L-43.3 -229.7 -46.65 -228.55 -49.1 -227.25 -49.85 -227.45 -50.05 -227.8 -49.85 -228.2 -50.4 -229.7 Q-51.0 -231.2 -51.0 -232.3 -51.0 -233.05 -50.8 -233.05 L-50.4 -233.05 -52.65 -237.0 Q-52.85 -237.75 -52.85 -241.7 L-52.85 -242.45 -52.85 -243.95 Q-52.65 -247.85 -51.55 -253.3 L-50.25 -256.3 -50.25 -256.5 Q-50.25 -256.85 -49.65 -257.25 L-49.5 -258.0 Q-48.0 -259.5 -47.4 -260.6 L-47.4 -261.0 -46.3 -261.75 -45.0 -262.85 -43.85 -264.0 -42.55 -265.1 -41.05 -266.8 -40.85 -267.35 -40.1 -268.85 -39.55 -270.35 -39.15 -272.8 -39.0 -274.3 -38.8 -275.05 -38.6 -275.05 Q-38.6 -276.35 -38.25 -277.1 L-36.15 -279.55 Q-32.4 -283.1 -29.6 -283.5 -29.6 -284.8 -29.05 -286.7 L-27.15 -289.5 Q-23.05 -293.6 -20.8 -293.6 -19.65 -293.6 -18.35 -292.7 -17.05 -291.95 -16.65 -291.35 L-12.0 -296.8 Q-8.8 -299.8 -5.25 -300.95 -2.6 -302.8 -1.65 -302.05 -0.15 -303.0 1.35 -303.0 4.35 -303.0 6.6 -300.55 L7.35 -299.6 9.0 -297.35 Q10.15 -296.8 12.6 -290.8 L15.0 -292.5 Q17.85 -294.0 20.1 -294.0 28.15 -294.0 28.9 -280.85 29.25 -281.45 30.2 -281.45 L30.6 -281.6 31.15 -281.6 Q32.65 -281.6 34.35 -278.8 L34.7 -278.25 34.7 -278.05 35.45 -276.35 35.65 -275.45 35.45 -274.5 35.25 -274.3 35.45 -272.05 Q35.45 -271.1 35.85 -270.35 35.85 -269.6 36.2 -268.85 L36.4 -268.3 Q37.5 -265.3 40.15 -263.25 L42.75 -261.0 Q43.5 -260.8 44.65 -259.1 46.7 -256.3 47.85 -252.95 49.15 -246.2 49.15 -241.7 L49.15 -239.6 Q49.15 -236.8 48.95 -236.25 L46.9 -232.5 46.7 -232.3 47.1 -232.3 47.25 -231.55 Q47.25 -230.45 46.7 -228.95 46.5 -228.0 46.15 -227.6 L46.35 -227.05 46.15 -226.7 45.4 -226.5 42.95 -228.0 Q39.95 -229.3 36.2 -229.3 32.1 -229.3 28.5 -227.6 26.85 -226.7 25.35 -225.55 L25.15 -225.2 24.75 -224.8 24.4 -225.2 24.4 -224.45 Q24.4 -221.8 19.5 -199.7 16.15 -184.7 13.7 -175.5 L11.85 -167.25 11.85 -167.05 11.65 -165.95 Q12.0 -165.55 11.45 -165.55 L10.9 -164.8 9.75 -165.0 Q8.85 -169.5 8.65 -174.75 L7.5 -169.7 1.9 -143.05 Q0.6 -143.6 0.6 -145.7 0.75 -148.5 0.4 -149.05 L0.4 -165.35 -0.35 -178.3 Q-0.75 -185.05 -0.75 -189.35 L-0.35 -186.75 Q-0.35 -184.85 1.35 -178.5 2.85 -173.05 3.4 -171.75 L3.4 -171.95 6.95 -182.6 6.75 -180.2 Q6.75 -179.05 7.7 -179.05 9.95 -179.05 12.2 -189.0 12.95 -192.75 16.35 -202.3 20.85 -215.8 20.85 -220.5 20.85 -222.55 20.25 -226.3 19.7 -230.05 19.7 -232.3 19.7 -237.0 23.25 -241.7 L32.25 -252.0 32.25 -251.8 30.95 -247.1 Q30.0 -244.1 28.5 -243.2 21.75 -238.3 21.4 -231.2 L21.4 -230.25 21.6 -230.25 24.2 -233.05 Q26.1 -235.1 27.6 -234.95 L36.4 -235.7 Q39.6 -235.7 40.9 -236.25 43.7 -237.35 43.7 -240.95 43.7 -251.25 38.65 -254.45 33.6 -257.8 33.6 -261.95 33.6 -264.0 34.7 -268.5 L34.7 -268.7 32.85 -268.5 24.0 -264.95 Q19.15 -262.85 14.25 -254.8 L10.35 -247.1 Q9.75 -247.7 8.65 -249.95 8.1 -251.05 5.85 -251.05 2.45 -251.05 0.95 -247.3 L-1.85 -241.7 -2.05 -241.85 Q-2.25 -243.55 -3.55 -246.2 -5.25 -249.55 -6.75 -249.55 -7.65 -249.55 -8.05 -248.8 -8.4 -247.7 -9.15 -247.3 L-12.35 -251.8 Q-13.3 -251.8 -14.25 -249.35 -15.75 -246.0 -16.3 -245.25 L-18.0 -251.25 Q-19.5 -255.2 -19.85 -257.45 -20.4 -261.35 -22.65 -265.5 -26.25 -271.5 -31.3 -271.5 -32.8 -271.5 -35.25 -270.35 L-35.4 -269.6 -35.05 -269.6 -36.0 -268.3 -36.9 -266.6 -36.9 -265.7 -36.75 -265.7 Q-38.6 -261.55 -38.6 -258.35 -38.4 -253.85 -43.65 -248.8 -48.9 -243.75 -48.9 -240.0 -48.9 -239.45 -48.35 -238.85 -47.4 -240.95 -45.35 -242.6 -42.75 -244.7 -40.3 -244.7 -38.6 -244.7 -37.85 -244.3 L-36.0 -242.8 Q-34.85 -244.3 -33.35 -244.3 -30.55 -244.3 -27.9 -237.75 L-26.8 -234.2 -25.5 -231.2 -24.0 -227.05 -22.1 -222.95 Q-18.75 -216.0 -18.35 -214.5 L-16.5 -208.85 Q-16.1 -224.6 -13.85 -224.6 -10.5 -224.6 -8.8 -210.0 L-5.8 -186.35 -5.6 -186.35 Q-3.35 -197.25 -2.6 -197.25 L-2.25 -197.05 -0.75 -189.75 M76.5 -294.95 L75.95 -294.55 73.35 -293.8 Q72.2 -293.25 70.9 -291.75 L70.5 -291.2 70.15 -291.75 70.15 -291.95 69.95 -292.3 68.65 -292.3 68.45 -292.85 69.0 -293.25 68.85 -293.45 68.85 -294.0 69.4 -293.8 70.7 -295.1 Q71.65 -295.85 72.95 -296.05 L74.65 -295.85 76.5 -294.95 M79.9 -263.8 L79.7 -263.8 79.35 -263.8 79.7 -263.6 Q78.75 -262.1 78.75 -261.35 L78.4 -259.7 78.6 -259.5 78.75 -259.3 Q77.1 -254.25 75.75 -254.05 L75.2 -254.6 75.4 -257.8 75.6 -258.2 75.4 -258.0 75.2 -258.0 75.0 -257.8 Q74.85 -259.1 74.85 -260.8 L76.15 -262.7 Q77.25 -263.6 78.2 -265.85 78.0 -264.35 79.9 -263.8 M57.0 -285.2 L56.25 -285.35 Q54.2 -285.55 54.2 -286.3 54.2 -288.2 64.15 -291.95 L65.85 -290.8 66.4 -290.25 66.4 -290.45 67.15 -289.85 Q65.45 -289.7 64.7 -289.1 L62.85 -287.45 Q62.1 -286.7 60.75 -286.7 59.1 -286.5 57.0 -285.2 M40.5 -273.0 L40.5 -273.55 Q40.15 -275.25 39.95 -277.5 L42.4 -279.75 46.5 -282.55 48.2 -283.7 48.6 -283.3 Q50.65 -283.7 53.1 -282.35 50.65 -280.85 50.25 -280.85 48.0 -280.3 44.1 -276.95 41.65 -274.85 40.5 -273.0 M70.35 -256.7 L69.75 -249.75 Q69.4 -248.25 66.0 -244.1 62.85 -240.55 63.2 -238.7 63.4 -236.25 61.35 -233.05 L57.2 -227.6 Q53.65 -223.85 52.7 -222.2 49.5 -216.95 48.75 -216.95 48.0 -216.95 48.0 -218.45 48.0 -221.45 48.75 -224.05 L51.6 -226.85 Q54.6 -229.85 54.95 -231.55 L57.95 -235.5 Q60.4 -238.5 60.4 -240.75 L59.85 -242.6 63.2 -245.8 Q66.4 -249.35 66.4 -251.25 66.4 -252.0 66.0 -252.75 67.15 -252.95 70.35 -256.7 M76.15 -258.2 L76.15 -257.8 76.5 -258.35 76.15 -258.2 M26.65 -276.95 L27.2 -276.95 Q26.65 -279.55 25.35 -282.0 22.9 -286.7 19.5 -286.7 15.75 -286.7 12.75 -283.7 11.45 -282.35 10.15 -279.75 8.65 -276.95 8.65 -276.0 L9.0 -274.85 8.65 -274.85 Q7.5 -278.25 6.75 -279.35 5.45 -281.45 3.0 -281.45 0.0 -281.45 -4.1 -278.05 -7.65 -275.25 -8.25 -273.55 L-8.25 -274.7 -7.1 -278.05 Q-5.6 -281.6 -4.3 -283.1 -1.3 -286.3 2.85 -287.45 6.6 -288.75 6.6 -287.45 L6.75 -287.45 Q11.25 -287.45 12.75 -286.3 L12.75 -286.5 Q11.85 -291.35 9.4 -294.95 6.4 -299.25 2.85 -299.25 -2.25 -299.25 -8.25 -294.95 -14.6 -290.25 -15.35 -285.0 L-16.85 -287.25 Q-18.35 -288.95 -20.05 -288.95 -23.05 -288.95 -24.75 -286.85 -25.85 -285.55 -27.15 -282.2 -27.15 -281.6 -27.55 -281.05 L-28.1 -280.3 -29.05 -279.35 Q-26.8 -280.5 -24.9 -280.5 -18.55 -280.5 -14.8 -276.35 L-8.05 -265.85 Q-0.55 -272.05 3.0 -272.05 6.4 -272.05 12.0 -269.05 12.6 -269.05 16.35 -273.0 21.0 -276.95 26.65 -276.95 M29.25 -223.7 L29.25 -223.85 Q32.45 -225.2 39.4 -225.95 L39.75 -225.95 40.35 -225.75 Q41.85 -225.75 43.35 -225.0 44.85 -224.8 45.0 -224.45 L45.2 -223.7 45.6 -223.5 Q45.6 -223.1 45.4 -223.1 L45.4 -222.95 45.0 -220.3 44.85 -219.2 44.65 -218.45 44.45 -218.05 Q42.75 -210.0 42.75 -206.25 42.75 -204.95 43.5 -203.45 L44.1 -201.35 Q44.1 -198.55 42.0 -196.1 40.7 -194.25 37.15 -191.25 L30.2 -182.8 30.6 -182.6 Q29.45 -176.8 27.95 -176.8 L27.0 -177.0 26.1 -181.5 25.35 -183.75 25.35 -185.45 25.15 -184.7 24.6 -184.7 24.4 -186.75 26.1 -205.1 Q26.1 -210.75 27.75 -217.7 27.95 -220.5 28.7 -222.95 28.7 -223.3 29.25 -223.7 M38.25 -223.5 Q37.35 -223.5 36.6 -222.95 L34.15 -221.05 Q32.85 -220.1 32.65 -218.45 L32.85 -216.2 Q32.25 -219.35 31.15 -219.35 28.9 -219.35 28.9 -211.3 28.9 -207.2 29.85 -202.5 L30.2 -201.0 30.95 -198.0 30.75 -196.5 Q29.45 -190.3 28.7 -183.55 40.7 -198.0 40.7 -203.25 L40.15 -206.45 39.6 -206.45 38.25 -203.8 Q38.65 -206.25 40.35 -212.6 41.1 -216.0 41.1 -220.3 41.1 -223.5 38.25 -223.5 M44.85 -229.7 L44.1 -231.0 43.9 -230.6 44.85 -229.7 M50.1 -222.2 L50.45 -222.75 49.9 -223.1 50.1 -222.2 M88.35 -267.95 L88.7 -264.55 Q89.1 -263.6 88.35 -262.1 L87.2 -259.7 84.4 -255.2 Q83.45 -255.2 83.45 -256.1 L83.45 -256.5 83.45 -257.6 84.4 -258.95 83.85 -263.6 Q84.6 -263.8 84.75 -264.2 L84.2 -264.35 Q87.2 -265.1 88.35 -267.95 M27.95 -180.2 L27.95 -180.0 28.15 -180.0 27.95 -180.2 M86.65 -262.1 L86.1 -261.95 Q85.9 -261.75 86.1 -261.55 L86.65 -262.1 M16.7 -149.25 L20.1 -165.35 18.0 -167.8 Q17.45 -168.55 17.45 -169.7 17.45 -171.95 18.6 -173.8 L21.4 -178.1 21.95 -177.75 Q22.5 -178.7 23.85 -179.8 L24.4 -179.05 24.6 -177.75 24.6 -175.7 Q24.75 -174.55 26.25 -174.2 L26.45 -174.2 Q27.0 -174.0 27.4 -173.45 L27.6 -173.45 27.75 -173.05 28.15 -172.1 28.15 -171.75 28.35 -170.8 Q23.25 -158.25 21.2 -152.05 18.75 -145.3 17.1 -133.5 L16.35 -133.1 Q15.6 -133.3 15.6 -134.05 15.6 -141.75 16.7 -148.7 L17.1 -149.05 16.7 -149.25 M21.6 -176.25 L21.6 -176.05 21.75 -176.05 21.6 -176.25 M10.7 -173.25 L10.9 -172.85 11.1 -173.45 10.7 -173.25 M-88.85 -289.5 L-90.0 -288.2 -90.75 -287.05 -91.5 -285.35 Q-92.05 -283.5 -92.05 -279.75 L-91.65 -276.95 Q-91.65 -276.35 -92.8 -276.35 -93.75 -281.45 -93.75 -285.2 -93.75 -288.75 -93.55 -289.5 -93.35 -289.85 -93.0 -291.55 L-92.4 -293.25 -93.35 -292.3 -93.15 -294.55 -93.15 -297.55 -93.15 -297.95 Q-93.55 -303.35 -93.15 -303.95 -92.05 -306.95 -86.05 -315.2 L-81.55 -321.0 -81.55 -321.2 -80.05 -322.85 -79.5 -323.6 -76.1 -327.0 -73.85 -330.2 Q-70.65 -334.85 -70.65 -336.35 L-71.6 -342.75 -67.65 -350.25 Q-68.05 -354.35 -66.0 -357.35 -60.55 -341.6 -60.55 -338.25 -60.55 -336.75 -64.5 -329.45 -68.4 -322.3 -68.4 -321.2 -66.75 -315.95 -66.75 -315.0 -66.75 -312.0 -66.9 -311.6 -66.9 -311.25 -68.8 -307.1 -69.35 -305.8 -71.05 -303.35 -73.1 -300.75 -73.65 -299.25 L-73.3 -298.7 -72.9 -296.6 Q-72.9 -295.5 -73.5 -295.3 L-75.75 -294.75 Q-76.3 -294.35 -77.6 -294.0 L-77.8 -294.35 -77.8 -294.0 -78.75 -293.8 Q-76.3 -297.0 -75.9 -299.05 L-75.55 -300.75 -75.35 -300.95 -75.15 -303.2 -75.0 -302.05 -73.3 -304.5 Q-71.05 -307.5 -71.05 -308.05 L-69.75 -311.6 Q-69.0 -313.1 -69.0 -314.8 -69.0 -315.95 -69.75 -318.0 -70.65 -320.25 -70.65 -321.2 -70.65 -323.25 -66.75 -330.55 -62.8 -337.85 -62.8 -338.6 -62.8 -339.75 -64.1 -344.05 L-65.6 -348.95 Q-69.35 -344.8 -69.35 -342.55 -68.05 -336.95 -68.05 -334.3 -68.05 -333.95 -70.3 -330.75 L-70.1 -329.45 -70.3 -328.85 -71.25 -328.3 -71.4 -329.05 -71.6 -329.05 -74.6 -325.3 Q-75.35 -324.35 -76.85 -322.85 L-78.75 -320.8 -79.85 -320.05 -81.0 -320.25 Q-83.8 -316.5 -86.05 -312.2 -90.35 -303.95 -90.35 -295.85 -90.35 -292.85 -88.85 -289.5 M-77.05 -291.55 L-75.15 -292.3 -74.4 -292.3 Q-73.5 -292.3 -72.15 -292.85 L-72.55 -292.1 -73.3 -290.05 -75.0 -291.55 -77.05 -291.55 M-84.15 -270.35 L-86.4 -266.45 Q-86.4 -266.25 -87.15 -266.45 -88.1 -266.8 -89.6 -274.7 L-90.15 -278.05 Q-90.9 -282.95 -90.55 -284.25 L-89.8 -285.2 Q-89.05 -280.1 -86.05 -273.95 L-84.15 -270.35 M-72.15 -288.75 Q-70.1 -291.0 -65.05 -289.1 -59.4 -286.7 -60.15 -284.45 L-60.75 -283.7 -61.5 -284.25 Q-66.15 -287.45 -67.85 -287.45 L-69.9 -287.05 Q-70.65 -287.05 -71.8 -288.35 L-72.15 -288.75 M-74.8 -261.55 Q-75.9 -260.6 -76.85 -258.55 L-77.8 -259.5 -80.8 -261.55 -81.75 -262.7 Q-83.4 -263.6 -83.4 -265.3 L-83.05 -267.2 -82.85 -267.35 Q-82.3 -266.05 -79.3 -264.0 -76.1 -261.75 -75.0 -261.75 L-74.8 -261.55 M-86.4 -270.95 L-86.6 -270.75 -86.6 -270.55 -86.4 -270.95 M-42.15 -272.25 L-42.55 -272.45 Q-44.25 -275.6 -45.75 -276.35 L-50.05 -279.2 Q-54.0 -281.8 -55.1 -281.8 L-55.1 -282.2 Q-52.3 -283.7 -50.05 -283.3 L-49.85 -283.7 -48.0 -282.55 -44.05 -279.75 -41.25 -277.1 Q-41.25 -273.95 -41.4 -273.55 L-41.8 -272.8 -42.15 -272.25 M-71.8 -259.85 L-71.6 -260.05 -69.75 -257.25 Q-66.15 -251.45 -65.25 -250.5 L-62.8 -248.45 Q-61.65 -247.5 -61.3 -246.0 -60.75 -244.3 -59.4 -242.8 -58.3 -241.7 -56.8 -241.1 -56.8 -239.05 -56.25 -238.3 L-56.25 -237.2 -58.5 -238.7 -59.05 -238.7 Q-60.15 -238.7 -62.8 -242.6 -65.05 -244.7 -68.6 -250.3 -71.25 -254.8 -71.8 -256.5 -71.4 -257.45 -71.4 -258.2 L-71.8 -259.85 M-27.75 -153.95 Q-27.75 -146.6 -28.1 -142.7 -28.5 -135.0 -29.8 -135.0 -30.35 -135.0 -32.6 -156.0 L-33.9 -166.3 Q-33.75 -171.0 -37.1 -176.6 L-36.55 -182.6 -36.0 -187.5 -36.15 -187.85 Q-36.15 -186.75 -38.05 -186.75 -42.9 -186.75 -42.9 -191.6 -42.9 -192.95 -39.9 -199.5 L-39.9 -199.85 -39.9 -200.25 -40.3 -199.85 -40.5 -199.85 -43.3 -205.5 -48.55 -215.45 -48.75 -215.45 -49.1 -216.55 Q-49.1 -217.3 -48.9 -217.3 L-48.35 -217.5 Q-47.25 -221.8 -44.25 -223.7 -42.75 -225.0 -40.65 -225.35 L-37.1 -225.55 Q-33.55 -225.35 -30.9 -223.7 -28.3 -222.0 -28.65 -220.3 L-29.05 -219.55 -28.85 -219.0 Q-27.9 -218.05 -27.75 -216.55 L-27.75 -213.95 -26.25 -206.25 Q-24.35 -195.55 -24.35 -194.25 L-24.55 -193.5 Q-23.05 -192.0 -23.05 -190.5 -23.05 -186.55 -26.25 -185.25 L-26.25 -187.7 Q-26.25 -206.25 -28.3 -206.25 L-30.0 -205.3 -30.15 -204.95 -32.05 -212.8 Q-34.65 -221.6 -37.85 -221.6 -40.65 -221.6 -40.65 -219.2 L-40.3 -217.85 -40.65 -217.85 -41.8 -219.0 Q-42.75 -219.95 -43.5 -220.1 -44.05 -218.8 -44.05 -217.5 -44.05 -214.1 -42.0 -210.2 -39.75 -206.05 -36.9 -204.35 -38.25 -203.8 -38.25 -202.1 -38.25 -200.6 -36.35 -197.05 -32.8 -189.35 -30.9 -181.7 L-30.9 -181.85 Q-32.4 -188.6 -32.4 -190.5 -32.4 -194.6 -31.1 -197.6 -29.8 -197.45 -28.3 -192.0 -27.15 -187.3 -26.4 -185.25 L-27.15 -185.05 Q-26.8 -181.85 -26.8 -176.25 L-27.75 -155.45 -28.1 -155.05 -27.75 -153.95 M-48.35 -230.25 L-48.55 -230.45 -48.55 -230.25 -48.35 -230.25 M-12.55 -220.5 L-12.55 -220.7 -12.9 -220.85 -12.55 -220.5" fill="#ff3300" fill-rule="evenodd" stroke="none"/>
  </g>
</svg>
