<?xml version="1.0" encoding="UTF-8" standalone="no"?>
<svg xmlns:ffdec="https://www.free-decompiler.com/flash" xmlns:xlink="http://www.w3.org/1999/xlink" ffdec:objectType="shape" height="106.8px" width="63.65px" xmlns="http://www.w3.org/2000/svg">
  <g transform="matrix(1.0, 0.0, 0.0, 1.0, 31.5, 48.0)">
    <path d="M-23.9 -41.2 L-19.55 -46.3 Q-18.7 -47.0 -16.95 -47.5 L-14.4 -48.0 Q-13.35 -48.0 -12.1 -47.5 -10.8 -47.0 -10.4 -46.35 L-9.35 -46.85 Q-8.8 -46.85 -8.25 -46.2 -7.7 -45.6 -7.6 -44.95 L-6.9 -45.2 Q-6.5 -45.2 -5.75 -44.35 -5.05 -43.6 -4.95 -43.1 -4.4 -43.25 -3.75 -44.05 L-2.55 -44.45 -1.7 -44.05 Q-1.25 -44.85 0.1 -44.85 1.2 -44.85 2.25 -43.2 L3.25 -43.5 Q3.85 -43.85 4.3 -43.85 5.0 -43.85 5.15 -43.3 L5.65 -43.5 6.65 -43.7 7.65 -43.5 7.85 -43.4 9.0 -44.0 Q10.45 -44.65 11.55 -44.65 L13.1 -44.2 14.0 -43.5 14.1 -43.5 13.85 -43.8 13.65 -44.3 Q13.65 -45.15 14.95 -45.8 16.0 -46.3 16.9 -46.3 L17.85 -46.1 18.5 -45.7 19.15 -46.35 Q19.9 -46.95 20.6 -46.95 22.5 -46.95 23.75 -45.3 24.6 -44.15 24.75 -43.2 L24.6 -43.2 24.35 -43.15 22.3 -43.7 Q21.5 -43.7 20.65 -43.25 19.75 -42.8 19.7 -42.15 19.05 -43.0 18.2 -43.0 L15.35 -42.6 Q13.4 -42.05 13.25 -41.0 L12.5 -42.35 Q12.1 -42.7 10.85 -42.7 9.15 -42.7 7.65 -41.75 L6.2 -40.4 5.05 -40.7 3.0 -41.0 Q2.0 -41.0 1.4 -40.25 0.75 -39.55 0.15 -39.55 L-1.25 -40.0 Q-3.1 -40.0 -4.15 -38.65 L-5.05 -37.05 -5.6 -38.1 Q-6.15 -38.95 -7.2 -39.15 L-11.2 -39.65 -12.25 -39.5 Q-13.1 -41.15 -14.1 -41.8 -15.25 -42.55 -17.55 -42.55 L-21.7 -42.05 -23.9 -41.2 M27.25 -24.8 Q28.75 -24.35 29.85 -23.1 31.25 -21.5 31.25 -19.5 L31.05 -18.5 30.95 -17.65 31.45 -17.8 32.0 -17.35 32.15 -16.65 Q32.15 -15.7 30.2 -12.7 L27.95 -9.15 28.65 -9.25 Q29.55 -9.25 30.1 -7.7 30.5 -6.55 30.5 -5.4 30.5 -3.4 29.2 -0.6 27.75 2.25 27.4 3.25 28.75 3.2 29.25 4.5 L29.55 7.05 Q29.55 9.05 28.55 11.9 27.65 14.5 26.35 16.4 26.95 16.5 27.6 17.4 28.35 18.5 28.35 19.7 28.35 22.65 25.3 26.9 22.3 31.05 17.95 34.1 L18.05 34.95 Q18.05 38.75 15.65 42.85 14.25 45.25 13.1 46.15 L13.15 47.0 Q13.15 48.8 10.55 51.75 8.75 53.75 7.45 54.45 6.85 56.15 4.45 57.45 1.95 58.8 -0.4 58.8 -3.0 58.8 -4.95 57.05 -6.25 55.9 -8.15 52.95 L-8.25 53.0 -9.1 53.2 Q-10.65 53.2 -11.9 51.75 -13.2 50.2 -13.2 48.0 L-13.25 47.0 -12.65 46.4 -14.95 44.15 Q-16.45 42.3 -16.45 39.25 -16.45 37.85 -16.0 37.45 L-18.2 35.85 Q-19.6 34.45 -19.6 31.8 -19.6 30.7 -19.25 30.5 -18.3 30.4 -18.1 30.0 -19.8 28.95 -21.55 26.3 -24.2 22.3 -24.2 17.6 -24.2 15.3 -22.45 13.85 -26.95 7.95 -26.95 4.0 -26.95 2.2 -25.35 1.05 -23.75 0.25 -23.75 0.0 L-24.95 -2.2 Q-26.2 -4.0 -26.2 -5.6 -26.2 -6.65 -25.65 -7.25 L-24.8 -8.35 -26.75 -10.65 Q-27.8 -12.25 -27.8 -14.15 -27.8 -16.45 -26.65 -16.65 L-26.75 -16.75 -29.7 -19.0 Q-31.5 -20.85 -31.5 -23.75 -31.5 -25.05 -30.5 -26.8 -29.5 -28.6 -28.4 -29.1 L-28.25 -28.7 Q-27.55 -27.05 -26.65 -26.25 L-26.95 -27.3 -27.3 -29.0 Q-27.3 -32.35 -24.9 -34.85 -22.65 -37.15 -20.05 -37.15 -17.35 -37.15 -15.9 -34.45 -14.7 -32.2 -14.7 -29.1 L-14.8 -27.15 -16.4 -28.6 Q-17.0 -29.25 -18.25 -29.25 -19.75 -29.25 -20.75 -28.5 -21.7 -27.75 -21.7 -26.8 L-21.5 -26.1 -21.25 -25.6 -21.25 -25.5 -21.85 -25.65 -22.5 -25.8 Q-23.9 -25.8 -25.15 -24.25 -26.3 -22.85 -26.3 -21.65 L-25.65 -19.65 -25.0 -18.3 Q-24.8 -19.6 -23.85 -20.7 -22.65 -22.05 -21.25 -22.05 L-20.4 -21.8 -19.45 -21.0 -19.55 -21.55 Q-19.55 -22.0 -19.0 -22.3 L-18.0 -22.5 Q-16.7 -22.5 -16.0 -21.45 -15.7 -23.55 -15.0 -24.25 -14.3 -24.9 -12.65 -24.9 -11.1 -24.9 -8.8 -22.9 -8.0 -22.15 -7.45 -20.3 L-6.05 -20.6 Q-4.3 -20.6 -3.45 -19.05 -2.8 -17.9 -2.8 -16.3 L-3.0 -15.55 -1.95 -15.6 Q0.85 -15.6 1.75 -13.95 2.25 -13.0 2.25 -10.5 L1.95 -8.75 1.95 -8.7 Q4.35 -11.35 7.25 -11.35 9.05 -11.35 10.2 -9.45 L10.2 -8.75 9.4 -9.2 7.95 -9.5 Q5.7 -9.5 4.65 -7.9 3.9 -6.75 3.9 -5.2 L4.2 -1.7 3.3 -0.35 Q3.0 0.25 3.0 2.05 3.0 3.15 3.3 4.15 2.6 4.0 1.8 5.5 L0.5 7.8 Q0.5 7.2 0.85 6.05 L1.15 4.3 Q1.15 0.4 -0.4 0.4 L-1.3 0.8 Q-1.75 -2.45 -2.3 -3.7 -3.35 -5.9 -5.5 -5.35 L-5.5 -6.55 -5.2 -7.15 -5.05 -7.95 Q-5.05 -9.6 -5.95 -11.05 -7.0 -12.7 -8.6 -12.7 L-8.9 -12.65 Q-8.2 -14.45 -8.2 -14.75 L-9.05 -18.65 Q-10.35 -22.4 -12.75 -22.4 -14.35 -22.4 -16.25 -20.5 -18.2 -18.5 -18.2 -16.5 L-18.2 -16.1 -18.75 -15.65 -19.9 -14.05 -20.55 -12.4 -20.65 -10.9 Q-20.65 -9.35 -20.1 -8.6 -19.35 -7.6 -19.15 -6.75 -19.6 -6.9 -20.0 -6.0 L-20.35 -4.55 -20.1 -3.7 -20.0 -3.5 Q-21.6 -2.4 -21.6 1.05 -21.6 2.8 -21.1 3.65 L-19.45 5.3 -19.95 5.85 -20.0 6.6 Q-20.0 8.65 -18.45 10.65 L-16.9 12.45 -17.25 13.3 Q-17.65 14.0 -17.65 15.3 -17.65 17.2 -16.05 20.1 L-13.55 22.9 -13.85 23.6 Q-14.2 24.15 -14.2 25.2 -14.2 27.35 -12.6 28.75 -11.15 30.0 -9.45 30.0 L-8.7 30.0 Q-8.65 32.3 -6.7 33.9 -5.0 35.25 -3.55 35.25 L-2.6 35.05 -2.05 34.75 -1.2 36.05 Q-0.8 36.5 0.05 36.5 0.75 36.5 1.5 36.05 L2.35 35.15 Q2.85 36.1 4.1 36.1 7.4 36.1 9.2 32.6 L9.95 30.4 Q11.8 29.7 13.0 28.05 14.15 26.5 14.15 25.1 L13.85 23.95 Q15.2 23.5 16.6 21.45 18.15 19.2 18.15 17.2 L18.0 16.05 19.65 14.3 Q21.05 12.25 21.05 10.4 21.05 9.4 20.65 8.5 L20.05 7.2 Q21.6 6.1 22.7 4.4 24.05 2.35 24.05 0.35 24.05 -0.5 23.3 -2.7 L24.5 -4.65 Q25.7 -6.9 25.7 -8.6 25.7 -10.55 24.2 -11.55 L24.75 -13.1 25.25 -15.25 Q25.25 -16.2 24.6 -16.85 23.85 -17.6 22.8 -17.45 L22.8 -17.65 23.95 -18.35 24.9 -18.6 26.25 -18.35 27.2 -17.75 27.2 -18.65 Q27.2 -21.5 25.7 -23.9 23.9 -26.75 20.95 -26.75 18.05 -26.75 17.95 -24.85 L17.85 -24.85 Q17.8 -25.6 16.75 -26.15 L15.2 -26.6 13.6 -26.15 Q12.6 -25.7 12.35 -25.35 L12.7 -26.15 12.7 -27.4 Q12.7 -29.05 12.05 -30.05 11.2 -31.3 9.5 -31.3 7.35 -31.3 6.45 -30.5 6.5 -33.0 8.8 -34.35 10.8 -35.55 13.7 -35.55 15.45 -35.55 16.25 -35.05 16.95 -34.65 17.6 -33.3 18.15 -33.7 18.4 -33.7 19.65 -33.7 20.2 -32.05 L20.5 -29.85 20.3 -28.8 22.6 -29.45 Q24.75 -29.45 25.85 -27.85 26.55 -26.85 26.8 -24.9 L26.85 -23.5 27.25 -24.8 M-19.45 -21.0 L-19.45 -20.95 -19.35 -20.95 -19.45 -21.0" fill="#232323" fill-opacity="0.7058824" fill-rule="evenodd" stroke="none"/>
    <path d="M24.75 -43.2 Q26.3 -43.15 27.3 -41.9 28.15 -40.85 28.15 -39.8 28.15 -38.95 27.5 -37.95 L26.65 -36.7 Q27.65 -37.2 28.25 -36.45 28.7 -35.9 28.7 -34.9 L28.15 -32.95 Q29.65 -32.3 29.65 -30.15 29.65 -28.75 28.35 -26.8 27.65 -25.9 27.25 -24.8 L26.8 -24.9 Q26.55 -26.85 25.85 -27.85 24.75 -29.45 22.6 -29.45 L20.3 -28.8 20.5 -29.85 20.2 -32.05 Q19.65 -33.7 18.4 -33.7 18.15 -33.7 17.6 -33.3 16.95 -34.65 16.25 -35.05 15.45 -35.55 13.7 -35.55 10.8 -35.55 8.8 -34.35 6.5 -33.0 6.45 -30.5 7.35 -31.3 9.5 -31.3 11.2 -31.3 12.05 -30.05 12.7 -29.05 12.7 -27.4 L12.7 -26.15 12.35 -25.35 Q12.6 -25.7 13.6 -26.15 L15.2 -26.6 16.75 -26.15 Q17.8 -25.6 17.85 -24.85 L17.95 -24.85 Q18.05 -26.75 20.95 -26.75 23.9 -26.75 25.7 -23.9 27.2 -21.5 27.2 -18.65 L27.2 -17.75 26.25 -18.35 24.9 -18.6 23.95 -18.35 22.8 -17.65 22.8 -17.45 Q23.85 -17.6 24.6 -16.85 25.25 -16.2 25.25 -15.25 L24.75 -13.1 24.2 -11.55 Q25.7 -10.55 25.7 -8.6 25.7 -6.9 24.5 -4.65 L23.3 -2.7 Q24.05 -0.5 24.05 0.35 24.05 2.35 22.7 4.4 21.6 6.1 20.05 7.2 L20.65 8.5 Q21.05 9.4 21.05 10.4 21.05 12.25 19.65 14.3 L18.0 16.05 18.15 17.2 Q18.15 19.2 16.6 21.45 15.2 23.5 13.85 23.95 L14.15 25.1 Q14.15 26.5 13.0 28.05 11.8 29.7 9.95 30.4 L9.2 32.6 Q7.4 36.1 4.1 36.1 2.85 36.1 2.35 35.15 L1.5 36.05 Q0.75 36.5 0.05 36.5 -0.8 36.5 -1.2 36.05 L-2.05 34.75 -2.6 35.05 -3.55 35.25 Q-5.0 35.25 -6.7 33.9 -8.65 32.3 -8.7 30.0 L-9.45 30.0 Q-11.15 30.0 -12.6 28.75 -14.2 27.35 -14.2 25.2 -14.2 24.15 -13.85 23.6 L-13.55 22.9 -16.05 20.1 Q-17.65 17.2 -17.65 15.3 -17.65 14.0 -17.25 13.3 L-16.9 12.45 -18.45 10.65 Q-20.0 8.65 -20.0 6.6 L-19.95 5.85 -19.45 5.3 -21.1 3.65 Q-21.6 2.8 -21.6 1.05 -21.6 -2.4 -20.0 -3.5 L-20.1 -3.7 -20.35 -4.55 -20.0 -6.0 Q-19.6 -6.9 -19.15 -6.75 -19.35 -7.6 -20.1 -8.6 -20.65 -9.35 -20.65 -10.9 L-20.55 -12.4 -19.9 -14.05 -18.75 -15.65 -18.2 -16.1 -18.2 -16.5 Q-18.2 -18.5 -16.25 -20.5 -14.35 -22.4 -12.75 -22.4 -10.35 -22.4 -9.05 -18.65 L-8.2 -14.75 Q-8.2 -14.45 -8.9 -12.65 L-8.6 -12.7 Q-7.0 -12.7 -5.95 -11.05 -5.05 -9.6 -5.05 -7.95 L-5.2 -7.15 -5.5 -6.55 -5.5 -5.35 Q-3.35 -5.9 -2.3 -3.7 -1.75 -2.45 -1.3 0.8 L-0.4 0.4 Q1.15 0.4 1.15 4.3 L0.85 6.05 Q0.5 7.2 0.5 7.8 L1.8 5.5 Q2.6 4.0 3.3 4.15 3.0 3.15 3.0 2.05 3.0 0.25 3.3 -0.35 L4.2 -1.7 3.9 -5.2 Q3.9 -6.75 4.65 -7.9 5.7 -9.5 7.95 -9.5 L9.4 -9.2 10.2 -8.75 10.2 -9.45 Q9.05 -11.35 7.25 -11.35 4.35 -11.35 1.95 -8.7 L1.95 -8.75 2.25 -10.5 Q2.25 -13.0 1.75 -13.95 0.85 -15.6 -1.95 -15.6 L-3.0 -15.55 -2.8 -16.3 Q-2.8 -17.9 -3.45 -19.05 -4.3 -20.6 -6.05 -20.6 L-7.45 -20.3 Q-8.0 -22.15 -8.8 -22.9 -11.1 -24.9 -12.65 -24.9 -14.3 -24.9 -15.0 -24.25 -15.7 -23.55 -16.0 -21.45 -16.7 -22.5 -18.0 -22.5 L-19.0 -22.3 Q-19.55 -22.0 -19.55 -21.55 L-19.45 -21.0 -20.4 -21.8 -21.25 -22.05 Q-22.65 -22.05 -23.85 -20.7 -24.8 -19.6 -25.0 -18.3 L-25.65 -19.65 -26.3 -21.65 Q-26.3 -22.85 -25.15 -24.25 -23.9 -25.8 -22.5 -25.8 L-21.85 -25.65 -21.25 -25.5 -21.25 -25.6 -21.5 -26.1 -21.7 -26.8 Q-21.7 -27.75 -20.75 -28.5 -19.75 -29.25 -18.25 -29.25 -17.0 -29.25 -16.4 -28.6 L-14.8 -27.15 -14.7 -29.1 Q-14.7 -32.2 -15.9 -34.45 -17.35 -37.15 -20.05 -37.15 -22.65 -37.15 -24.9 -34.85 -27.3 -32.35 -27.3 -29.0 L-26.95 -27.3 -26.65 -26.25 Q-27.55 -27.05 -28.25 -28.7 L-28.4 -29.1 Q-29.1 -30.75 -29.1 -32.25 -29.1 -35.0 -27.5 -37.35 L-25.35 -39.95 -25.05 -40.3 -23.9 -41.2 -21.7 -42.05 -17.55 -42.55 Q-15.25 -42.55 -14.1 -41.8 -13.1 -41.15 -12.25 -39.5 L-11.2 -39.65 -7.2 -39.15 Q-6.15 -38.95 -5.6 -38.1 L-5.05 -37.05 -4.15 -38.65 Q-3.1 -40.0 -1.25 -40.0 L0.15 -39.55 Q0.75 -39.55 1.4 -40.25 2.0 -41.0 3.0 -41.0 L5.05 -40.7 6.2 -40.4 7.65 -41.75 Q9.15 -42.7 10.85 -42.7 12.1 -42.7 12.5 -42.35 L13.25 -41.0 Q13.4 -42.05 15.35 -42.6 L18.2 -43.0 Q19.05 -43.0 19.7 -42.15 19.75 -42.8 20.65 -43.25 21.5 -43.7 22.3 -43.7 L24.35 -43.15 24.75 -42.9 24.75 -43.2" fill="#000000" fill-opacity="0.7058824" fill-rule="evenodd" stroke="none"/>
  </g>
</svg>
