<?xml version="1.0" encoding="UTF-8" standalone="no"?>
<svg xmlns:ffdec="https://www.free-decompiler.com/flash" xmlns:xlink="http://www.w3.org/1999/xlink" ffdec:objectType="shape" height="133.7px" width="164.65px" xmlns="http://www.w3.org/2000/svg">
  <g transform="matrix(1.0, 0.0, 0.0, 1.0, 77.0, 123.8)">
    <path d="M-61.85 -94.1 Q-81.2 -79.4 -70.5 -57.6 -79.45 -41.55 -69.3 -26.35 L-67.3 -27.5 -67.25 -25.25 -65.85 -24.85 -66.05 -23.7 -67.7 -23.1 Q-68.45 -20.05 -68.05 -17.05 -67.25 -10.4 -61.5 -6.7 L-60.1 -7.4 -57.1 -3.45 Q-49.45 5.4 -39.35 0.9 L-40.6 -0.9 Q-24.45 5.7 -8.15 -0.15 L-7.45 -1.3 Q10.8 13.05 29.4 0.7 L27.45 -1.4 28.7 -2.7 Q48.0 4.4 59.4 -12.0 63.9 -13.15 67.95 -16.0 72.5 -19.2 73.05 -24.65 75.85 -25.95 78.05 -28.1 83.95 -33.9 82.5 -41.7 L81.5 -42.45 81.4 -43.0 Q83.05 -45.35 83.9 -48.1 86.95 -57.75 80.5 -65.45 L79.4 -64.3 78.1 -64.55 Q82.5 -87.45 61.8 -96.75 60.2 -103.8 56.25 -109.7 43.25 -129.35 21.95 -116.85 L23.05 -114.6 22.3 -113.75 21.45 -113.65 20.25 -114.4 19.55 -114.2 18.9 -115.3 Q16.95 -115.3 15.25 -114.6 7.15 -111.3 4.45 -102.5 L3.85 -102.4 Q-14.05 -113.95 -29.1 -98.4 L-27.5 -95.4 -29.1 -94.75 -31.85 -96.05 -32.1 -97.15 Q-47.55 -107.2 -60.1 -92.75 L-61.0 -94.35 -58.05 -97.65 Q-46.0 -109.4 -31.35 -100.25 -15.9 -115.85 3.55 -106.05 12.55 -119.9 30.2 -123.0 58.65 -128.3 63.65 -97.85 85.15 -90.55 81.45 -68.25 L82.55 -66.9 Q91.55 -55.6 84.65 -42.65 86.45 -36.6 84.2 -30.85 81.75 -24.6 75.25 -23.1 74.7 -20.15 73.2 -17.55 69.15 -10.6 61.25 -10.15 59.9 -7.85 57.9 -5.95 46.95 5.05 31.5 1.65 12.2 18.05 -7.6 1.85 -22.2 9.7 -37.3 2.45 L-39.4 3.1 Q-70.0 8.2 -70.55 -24.0 L-72.85 -27.55 Q-81.1 -41.7 -72.95 -56.2 L-74.05 -58.5 Q-83.25 -81.35 -61.85 -94.1" fill="#2f2f2f" fill-rule="evenodd" stroke="none"/>
    <path d="M-61.0 -94.35 L-60.1 -92.75 Q-47.55 -107.2 -32.1 -97.15 L-31.85 -96.05 -29.1 -94.75 -27.5 -95.4 -29.1 -98.4 Q-14.05 -113.95 3.85 -102.4 L4.45 -102.5 Q7.15 -111.3 15.25 -114.6 16.95 -115.3 18.9 -115.3 L19.55 -114.2 20.25 -114.4 21.45 -113.65 22.3 -113.75 23.05 -114.6 21.95 -116.85 Q43.25 -129.35 56.25 -109.7 60.2 -103.8 61.8 -96.75 82.5 -87.45 78.1 -64.55 L79.4 -64.3 80.5 -65.45 Q86.95 -57.75 83.9 -48.1 83.05 -45.35 81.4 -43.0 L81.5 -42.45 82.5 -41.7 Q83.95 -33.9 78.05 -28.1 75.85 -25.95 73.05 -24.65 72.5 -19.2 67.95 -16.0 63.9 -13.15 59.4 -12.0 48.0 4.4 28.7 -2.7 L27.45 -1.4 29.4 0.7 Q10.8 13.05 -7.45 -1.3 L-8.15 -0.15 Q-24.45 5.7 -40.6 -0.9 L-39.35 0.9 Q-49.45 5.4 -57.1 -3.45 L-60.1 -7.4 -61.5 -6.7 Q-67.25 -10.4 -68.05 -17.05 -68.45 -20.05 -67.7 -23.1 L-66.05 -23.7 -65.85 -24.85 -67.25 -25.25 -67.3 -27.5 -69.3 -26.35 Q-79.45 -41.55 -70.5 -57.6 -81.2 -79.4 -61.85 -94.1 L-61.0 -94.35" fill="#444444" fill-rule="evenodd" stroke="none"/>
  </g>
</svg>
