<?xml version="1.0" encoding="UTF-8" standalone="no"?>
<svg xmlns:ffdec="https://www.free-decompiler.com/flash" xmlns:xlink="http://www.w3.org/1999/xlink" ffdec:objectType="shape" height="233.55px" width="97.4px" xmlns="http://www.w3.org/2000/svg">
  <g transform="matrix(1.0, 0.0, 0.0, 1.0, 52.0, 216.35)">
    <path d="M41.75 -74.8 Q52.1 -47.45 33.0 -30.15 43.15 -2.6 16.15 8.7 1.25 15.0 -12.85 7.8 -55.2 -13.95 -37.45 -50.65 L-40.75 -55.0 Q-44.65 -60.2 -41.25 -64.3 -7.3 -104.75 39.8 -81.95 40.45 -78.25 41.75 -74.8" fill="#1a1a1a" fill-opacity="0.47058824" fill-rule="evenodd" stroke="none"/>
    <path d="M4.0 -186.15 Q40.35 -171.1 44.15 -134.85 47.65 -101.35 23.6 -76.65 30.15 -54.3 38.05 -32.45 42.65 -19.55 37.5 -7.15 29.5 12.05 12.1 16.1 5.2 17.7 -3.15 16.95 -51.95 13.7 -52.0 -32.3 L-52.0 -33.1 Q-51.75 -68.9 -20.85 -84.0 -11.45 -88.6 -6.45 -97.15 0.8 -109.75 -14.6 -111.45 -53.0 -116.2 -47.95 -155.7 -42.85 -195.1 -8.1 -216.35 L-8.15 -211.0 Q-8.0 -197.45 1.5 -188.2 L4.0 -186.15" fill="url(#gradient0)" fill-rule="evenodd" stroke="none"/>
  </g>
  <defs>
    <radialGradient cx="0" cy="0" fx="19.200000000000003" fy="0" gradientTransform="matrix(0.0025, -0.2494, 0.0786, 8.0E-4, -1.45, -21.6)" gradientUnits="userSpaceOnUse" id="gradient0" r="819.2" spreadMethod="pad">
      <stop offset="0.42745098039215684" stop-color="#ffffcc"/>
      <stop offset="0.8431372549019608" stop-color="#ffff00"/>
      <stop offset="1.0" stop-color="#fdd23c"/>
    </radialGradient>
  </defs>
</svg>
