<?xml version="1.0" encoding="UTF-8" standalone="no"?>
<svg xmlns:ffdec="https://www.free-decompiler.com/flash" xmlns:xlink="http://www.w3.org/1999/xlink" ffdec:objectType="shape" height="237.6px" width="101.15px" xmlns="http://www.w3.org/2000/svg">
  <g transform="matrix(1.0, 0.0, 0.0, 1.0, 52.65, 220.6)">
    <path d="M24.9 -11.0 Q24.1 -6.35 20.85 -3.05 -8.65 27.6 -31.4 -8.25 -54.9 -23.45 -45.85 -48.3 -54.9 -63.4 -42.45 -75.75 -46.05 -78.8 -46.75 -83.35 -50.75 -110.5 -22.0 -107.75 -23.3 -132.35 -1.95 -135.0 L-1.35 -133.5 -7.8 -125.1 Q5.65 -131.45 20.0 -128.4 61.65 -119.8 42.45 -90.85 56.25 -70.2 34.85 -53.75 48.65 -27.95 24.9 -11.0" fill="#1a1a1a" fill-opacity="0.47058824" fill-rule="evenodd" stroke="none"/>
    <path d="M32.75 -168.15 Q54.6 -145.3 43.15 -115.25 L41.85 -112.75 Q41.65 -128.65 29.45 -137.75 L24.45 -141.4 Q34.75 -125.0 38.65 -106.15 39.4 -102.5 37.7 -99.3 30.55 -85.4 22.3 -72.0 L21.7 -72.75 19.7 -68.7 21.95 -69.75 Q45.95 -42.4 37.55 -8.8 34.05 5.25 21.85 13.2 17.1 16.3 12.1 16.9 8.1 17.35 3.95 16.15 9.25 7.8 12.1 -1.2 16.8 -16.1 14.85 -32.8 14.55 -35.15 12.4 -36.25 9.35 -35.25 10.5 -32.3 L10.55 -32.15 Q12.4 -27.5 11.55 -22.45 L10.75 -18.6 Q15.9 4.4 -5.75 10.5 -10.9 11.8 -13.75 6.7 -19.75 -3.9 -10.65 -13.6 -15.2 -14.3 -17.35 -18.55 -19.55 -23.1 -18.75 -28.15 -18.4 -30.3 -17.6 -32.3 L-16.9 -33.95 -18.3 -32.3 Q-34.4 -12.65 -22.3 9.35 L-20.25 12.35 Q-52.9 2.8 -52.65 -32.3 L-52.6 -35.3 Q-51.15 -66.7 -25.95 -83.1 -30.3 -74.3 -23.5 -68.2 -21.2 -66.2 -18.7 -68.7 -10.25 -77.45 -18.1 -86.6 L-16.05 -86.75 -16.25 -86.9 -16.35 -87.1 Q-1.55 -93.0 -5.5 -107.75 -7.0 -113.45 -9.45 -119.0 -15.45 -132.55 -5.85 -144.45 -19.15 -134.9 -20.2 -119.4 -20.35 -117.2 -20.05 -114.9 L-19.2 -114.5 -20.05 -111.9 Q-55.55 -124.85 -47.15 -162.9 -42.75 -182.55 -30.1 -198.65 -19.35 -212.35 -5.5 -220.6 L-5.65 -220.45 -6.0 -219.95 -5.95 -219.9 -5.8 -219.8 -5.45 -219.3 Q-4.8 -189.0 24.45 -174.45 29.1 -172.1 32.75 -168.15" fill="url(#gradient0)" fill-rule="evenodd" stroke="none"/>
  </g>
  <defs>
    <radialGradient cx="0" cy="0" fx="19.200000000000003" fy="0" gradientTransform="matrix(3.0E-4, -0.2454, 0.082, 1.0E-4, -3.1, -28.4)" gradientUnits="userSpaceOnUse" id="gradient0" r="819.2" spreadMethod="pad">
      <stop offset="0.42745098039215684" stop-color="#ffffcc"/>
      <stop offset="0.9411764705882353" stop-color="#ffff00"/>
      <stop offset="1.0" stop-color="#fdd23c"/>
    </radialGradient>
  </defs>
</svg>
