<?xml version="1.0" encoding="UTF-8" standalone="no"?>
<svg xmlns:ffdec="https://www.free-decompiler.com/flash" xmlns:xlink="http://www.w3.org/1999/xlink" ffdec:objectType="shape" height="156.45px" width="143.15px" xmlns="http://www.w3.org/2000/svg">
  <g transform="matrix(1.0, 0.0, 0.0, 1.0, 71.0, 154.35)">
    <path d="M16.1 -104.55 Q17.95 -116.1 7.3 -119.05 -19.3 -126.75 -10.95 -91.2 L-13.55 -90.5 -16.85 -95.2 Q-21.2 -100.75 -27.8 -101.55 -33.4 -102.35 -35.35 -96.7 L-31.15 -86.1 -31.6 -84.35 -33.0 -83.8 Q-35.0 -86.1 -37.9 -87.65 -42.8 -90.6 -48.45 -89.45 -51.8 -88.9 -52.75 -85.5 -51.85 -80.6 -48.45 -76.9 -45.45 -73.45 -43.25 -69.5 L-43.6 -68.1 Q-50.7 -67.45 -56.85 -70.8 -76.25 -81.5 -69.05 -103.3 -60.55 -128.9 -36.1 -117.45 -36.35 -119.4 -35.95 -121.25 -26.85 -163.5 18.05 -151.85 26.05 -149.5 31.4 -143.3 36.65 -137.1 37.45 -128.95 59.05 -133.75 67.75 -114.1 80.9 -84.55 54.6 -68.1 63.75 -57.8 59.7 -44.65 57.45 -37.6 50.9 -35.1 55.35 -26.25 50.1 -18.35 37.05 1.75 16.65 -9.35 10.1 0.65 -1.5 1.85 -21.1 3.95 -30.1 -13.2 -50.0 -10.5 -59.55 -27.0 -75.5 -54.4 -48.8 -65.2 L-47.5 -66.65 -46.3 -66.4 Q-45.15 -62.0 -42.05 -58.8 -37.35 -54.05 -30.55 -54.55 -22.0 -54.8 -15.35 -59.75 L-13.65 -59.2 -13.15 -57.4 Q-15.45 -54.9 -16.15 -51.6 -16.6 -49.55 -16.3 -47.8 -15.85 -45.4 -14.6 -43.6 -10.25 -42.0 -6.0 -43.75 -0.55 -46.25 1.5 -51.8 2.95 -55.6 5.7 -58.7 10.4 -41.85 26.35 -45.8 42.2 -49.55 43.95 -65.5 L36.3 -65.9 Q35.2 -66.0 34.2 -66.65 L34.05 -68.35 Q37.8 -71.8 40.2 -76.6 46.85 -89.9 35.25 -99.0 25.45 -106.65 15.2 -95.85 L14.0 -96.6 Q15.4 -100.4 16.1 -104.55" fill="#1a1a1a" fill-opacity="0.47058824" fill-rule="evenodd" stroke="none"/>
  </g>
</svg>
