<?xml version="1.0" encoding="UTF-8" standalone="no"?>
<svg xmlns:ffdec="https://www.free-decompiler.com/flash" xmlns:xlink="http://www.w3.org/1999/xlink" ffdec:objectType="shape" height="235.3px" width="102.75px" xmlns="http://www.w3.org/2000/svg">
  <g transform="matrix(1.0, 0.0, 0.0, 1.0, 57.8, 234.15)">
    <path d="M7.3 -25.5 Q-4.95 -38.6 -13.55 -21.05 -16.15 -27.75 -15.9 -32.3 -15.35 -43.9 3.65 -41.7 10.0 -38.2 9.65 -32.3 9.5 -29.85 8.2 -27.0 L7.3 -25.5 M7.8 -3.5 L5.5 0.1 Q5.45 -5.5 0.0 -7.7 -4.35 -9.65 -8.75 -7.55 -4.95 -17.65 5.75 -18.3 L6.8 -17.4 Q12.55 -10.7 7.8 -3.5" fill="url(#gradient0)" fill-rule="evenodd" stroke="none"/>
    <path d="M12.35 -234.0 L14.4 -233.05 Q16.7 -231.7 17.5 -229.2 18.9 -224.45 15.7 -220.75 -6.0 -224.75 -20.65 -207.2 L-19.15 -211.95 Q-10.95 -235.95 12.35 -234.0 M24.5 -159.35 Q-12.9 -178.3 -31.0 -141.65 -33.45 -136.6 -35.3 -131.3 -48.15 -153.65 -34.6 -174.65 -22.7 -193.25 -1.2 -197.1 29.3 -202.85 38.85 -173.0 42.0 -163.15 41.4 -152.55 41.15 -147.0 41.65 -141.4 38.85 -146.65 33.7 -148.8 23.0 -153.25 13.1 -146.65 L16.65 -151.75 24.5 -159.35 M4.25 -129.4 Q17.35 -148.5 37.35 -135.7 41.85 -132.75 43.7 -127.45 49.25 -105.1 29.95 -91.25 L26.6 -89.1 Q39.0 -116.85 10.7 -127.9 7.6 -129.1 4.25 -129.4 M8.7 -94.7 Q7.15 -97.35 4.1 -97.9 -6.45 -100.35 -7.3 -89.25 -14.1 -98.95 -10.6 -110.45 -9.9 -112.7 -8.5 -112.95 10.25 -117.2 8.7 -94.7 M25.6 -72.05 Q55.7 -44.7 36.25 -8.0 33.2 -2.1 27.45 1.15 40.15 -25.2 17.2 -42.8 14.7 -44.85 11.95 -46.35 22.5 -54.35 24.15 -67.35 L24.5 -71.15 25.6 -72.05 M-36.95 -82.1 Q-37.7 -78.15 -37.9 -74.2 -38.6 -58.8 -24.2 -54.3 -29.65 -51.05 -33.8 -46.05 -39.35 -39.4 -41.8 -32.3 -46.4 -18.8 -39.7 -3.5 -47.65 -10.65 -51.95 -20.1 -54.8 -26.4 -56.25 -32.3 -63.45 -61.5 -36.95 -82.1" fill="url(#gradient1)" fill-rule="evenodd" stroke="none"/>
  </g>
  <defs>
    <radialGradient cx="0" cy="0" gradientTransform="matrix(0.1142, 0.0, 0.0, 0.1142, -0.55, -12.65)" gradientUnits="userSpaceOnUse" id="gradient0" r="819.2" spreadMethod="pad">
      <stop offset="0.0" stop-color="#ffff02"/>
      <stop offset="0.6901960784313725" stop-color="#ff9900"/>
      <stop offset="1.0" stop-color="#ff3300"/>
    </radialGradient>
    <radialGradient cx="0" cy="0" fx="73.60000000000001" fy="0" gradientTransform="matrix(0.0029, -0.198, 0.0769, 0.0011, -1.45, -57.7)" gradientUnits="userSpaceOnUse" id="gradient1" r="819.2" spreadMethod="pad">
      <stop offset="0.42745098039215684" stop-color="#ffffcc"/>
      <stop offset="0.8588235294117647" stop-color="#ffff00"/>
      <stop offset="1.0" stop-color="#fdd23c"/>
    </radialGradient>
  </defs>
</svg>
