<?xml version="1.0" encoding="UTF-8" standalone="no"?>
<svg xmlns:ffdec="https://www.free-decompiler.com/flash" xmlns:xlink="http://www.w3.org/1999/xlink" ffdec:objectType="shape" height="77.3px" width="78.9px" xmlns="http://www.w3.org/2000/svg">
  <g transform="matrix(1.0, 0.0, 0.0, 1.0, 39.45, 38.65)">
    <path d="M34.7 -32.45 L34.7 -32.6 34.75 -32.6 34.85 -32.75 33.45 -32.75 33.3 -32.75 33.2 -32.85 33.2 -32.75 32.85 -32.85 20.55 -34.5 20.5 -34.25 20.0 -33.75 19.75 -32.75 Q19.05 -31.7 19.05 -30.95 19.05 -30.35 22.45 -30.15 L25.7 -29.75 25.9 -29.45 27.45 -26.4 27.45 -26.3 27.55 -25.8 25.3 -22.25 27.05 -22.45 29.75 -22.25 Q30.1 -20.0 30.5 -20.0 31.25 -20.0 35.0 -27.2 L34.85 -30.3 34.7 -32.45 M-23.8 13.35 L-23.15 13.25 -21.75 13.15 -21.7 13.15 -21.05 13.35 -20.85 13.35 -20.45 13.4 -20.0 13.5 -19.85 13.55 -19.05 13.6 -7.15 14.6 -4.1 15.0 -3.4 15.05 -3.3 15.05 -2.85 15.05 -2.45 15.1 -2.45 14.25 -1.85 12.8 -0.9 10.75 -0.6 10.35 -0.6 10.2 Q-0.6 10.0 -0.15 9.95 L0.05 9.75 0.05 9.7 0.1 9.7 0.7 9.85 1.55 9.75 4.0 9.85 5.05 10.0 Q5.7 9.45 6.95 8.8 L8.15 8.3 8.9 6.65 Q9.4 5.5 10.05 4.5 L9.95 4.25 Q9.95 3.95 10.55 3.8 L11.1 3.7 13.9 3.55 16.05 3.7 17.25 0.65 17.65 -0.2 18.15 -0.9 17.3 -1.2 17.1 -1.1 Q16.65 -1.1 16.5 -1.5 L16.45 -1.85 Q16.45 -2.6 18.05 -5.95 L19.7 -9.3 21.35 -12.35 22.25 -13.9 22.8 -14.9 23.45 -15.85 Q23.6 -16.15 24.05 -16.25 L24.4 -16.25 24.95 -16.2 25.0 -16.35 25.9 -18.2 25.9 -18.25 26.3 -19.25 27.05 -20.85 24.2 -20.9 Q23.7 -20.95 23.6 -21.35 L23.45 -21.75 23.35 -22.25 23.6 -22.75 24.5 -24.65 25.65 -26.7 25.8 -26.95 Q25.4 -27.3 25.1 -28.0 L24.65 -28.85 24.5 -28.85 23.25 -29.2 20.7 -29.45 17.25 -30.1 17.65 -31.05 Q18.75 -33.05 18.75 -33.55 L18.75 -33.6 18.85 -33.85 Q18.85 -34.35 15.35 -34.55 L9.95 -34.85 8.05 -34.95 6.2 -34.9 1.5 -35.05 -3.35 -34.85 -3.95 -34.75 -4.65 -34.65 -4.9 -34.7 -4.95 -34.55 -5.0 -34.55 -5.0 -34.45 -5.05 -34.4 -5.1 -34.2 -5.4 -33.75 -6.4 -31.7 -8.55 -27.65 -10.3 -24.1 -10.0 -24.95 -9.1 -27.0 -10.1 -27.45 Q-11.65 -28.15 -13.55 -28.15 L-14.2 -28.1 -15.75 -28.0 -17.85 -27.45 Q-18.45 -27.3 -19.1 -26.6 L-19.4 -26.35 -19.6 -26.25 Q-23.8 -17.2 -26.1 -11.05 L-28.75 -4.1 -28.7 -4.15 -28.1 -4.35 -25.0 -4.9 -23.25 -4.95 Q-20.95 -4.9 -19.3 -4.25 L-18.95 -4.05 -18.25 -3.7 -17.4 -6.05 -17.8 -4.25 -18.05 -3.75 -19.75 0.9 Q-21.05 3.8 -21.45 5.6 L-21.45 5.65 -21.7 6.2 -23.3 10.65 -23.8 11.95 -24.45 13.05 -24.6 13.0 -24.75 12.75 -24.65 12.4 -24.5 11.85 -24.45 11.75 -24.15 10.85 -24.0 10.35 -20.65 2.2 -20.7 2.2 Q-24.5 0.75 -25.8 0.75 L-25.85 0.75 -29.35 1.35 -31.2 1.9 -31.25 1.9 -34.55 9.65 -34.4 9.55 -35.2 10.55 -35.3 10.55 -35.4 10.7 -36.0 11.9 -36.4 12.85 -36.35 12.85 -36.45 13.15 -36.5 13.35 -36.6 14.05 Q-37.0 15.05 -37.0 16.0 L-37.0 16.4 -36.75 18.15 -37.0 18.15 Q-36.7 20.7 -35.25 23.15 -34.45 24.45 -32.05 25.85 -29.35 27.4 -27.15 27.4 L-26.75 27.1 -26.75 25.95 -27.95 25.7 Q-31.6 25.7 -33.3 22.65 -34.35 20.85 -34.35 19.15 L-34.25 18.2 -34.3 18.2 Q-34.3 15.25 -32.3 13.65 -31.05 12.65 -29.75 12.75 L-29.3 12.8 -29.15 12.8 -29.2 12.7 -29.25 12.65 -29.0 12.7 -28.75 12.8 -27.95 12.9 -27.65 13.2 Q-27.4 13.2 -27.3 12.9 L-25.45 13.1 -25.35 13.1 -25.05 13.05 -24.6 13.3 -24.5 13.35 -23.8 13.35 M-7.25 -38.35 L-7.1 -38.25 -7.05 -38.25 -6.95 -38.2 Q-6.5 -37.55 -5.75 -37.5 L-5.5 -37.1 -5.35 -36.8 Q-5.1 -36.3 -4.45 -36.25 L-4.05 -36.25 Q-4.0 -36.5 -3.2 -36.55 L-1.7 -36.6 4.55 -36.65 6.1 -36.65 9.5 -36.55 9.5 -36.65 12.25 -36.65 17.8 -36.4 17.8 -36.45 18.0 -36.8 18.35 -37.05 19.75 -37.05 Q19.9 -36.95 20.0 -36.95 L22.35 -36.45 35.75 -34.5 36.65 -28.55 36.9 -26.95 Q36.8 -26.05 35.75 -25.0 34.5 -23.8 34.5 -22.9 34.5 -21.85 35.25 -18.95 L35.6 -17.0 35.75 -16.1 37.15 -15.95 38.85 -15.55 39.35 -12.75 39.45 -12.4 39.05 -11.2 37.8 -7.85 36.5 -4.1 Q35.45 -1.55 34.7 -1.55 L32.8 -1.8 Q32.55 -1.55 32.4 -0.7 L32.4 1.15 Q32.4 4.9 29.2 9.45 27.1 12.35 25.5 13.25 L24.65 15.5 Q23.75 17.8 23.6 18.65 L23.6 18.95 Q23.6 19.5 24.65 21.2 L24.75 21.25 23.75 24.2 21.9 29.3 19.1 34.85 18.9 35.3 17.6 35.3 13.55 35.05 10.3 35.05 5.45 34.55 1.6 34.3 1.25 34.15 1.1 33.35 0.8 32.45 0.5 32.45 -0.9 32.15 -1.85 32.15 -9.25 31.5 -14.6 30.75 -15.3 30.75 Q-15.5 32.9 -17.7 35.95 -19.1 38.0 -19.85 38.5 L-20.0 38.6 -20.25 38.65 -21.15 37.3 -23.55 33.9 -23.6 33.8 -23.6 33.75 -23.7 33.65 -27.5 35.05 Q-28.95 35.6 -31.85 37.1 L-32.15 37.1 -32.25 36.85 -32.15 36.8 -32.25 36.7 -30.1 32.6 -29.0 30.4 -28.4 29.45 -30.25 29.05 -30.25 29.0 Q-34.3 28.65 -37.0 24.5 -39.2 21.1 -39.3 18.15 L-39.35 18.15 -39.4 17.2 -39.35 16.4 -39.4 16.3 -39.45 15.9 -39.35 15.35 -39.35 15.25 -39.4 14.85 -39.25 14.2 -38.9 12.45 -38.6 11.8 -37.1 7.65 -35.55 4.5 -28.8 -12.3 -22.7 -25.85 -19.55 -32.6 -19.4 -32.85 -19.5 -33.2 -18.95 -34.4 -18.1 -35.75 Q-17.4 -36.6 -14.8 -38.1 -14.0 -38.65 -10.8 -38.65 L-7.4 -38.4 -7.25 -38.35 M28.75 4.65 L29.0 4.1 29.2 3.45 Q29.75 1.8 29.75 0.4 L29.6 -0.2 29.35 -0.75 29.5 -0.7 29.35 -1.25 Q28.75 -3.3 27.7 -4.1 L27.95 -4.3 Q27.2 -5.2 26.3 -5.2 L26.2 -5.1 26.0 -5.1 Q25.5 -5.1 25.3 -4.8 L24.4 -7.65 23.25 -10.7 23.35 -10.85 23.1 -11.45 23.5 -12.65 Q24.65 -14.4 24.65 -15.15 L24.6 -15.45 24.6 -15.5 24.5 -15.5 24.25 -15.5 23.85 -15.1 23.35 -14.2 22.35 -12.4 22.25 -12.15 20.45 -8.9 18.75 -5.35 18.0 -3.55 17.55 -2.45 17.4 -2.0 17.85 -1.8 18.2 -1.65 18.4 -1.6 18.6 -1.9 18.6 -2.0 19.75 -4.1 19.9 -4.3 20.55 -4.25 20.55 -4.2 20.8 -3.3 21.6 -1.3 Q22.1 -0.2 22.25 2.55 22.3 4.85 23.0 7.15 23.9 10.2 25.4 10.2 26.8 10.2 29.0 5.25 L28.75 4.65 M13.7 24.3 L15.2 20.95 17.8 15.5 19.9 10.1 Q21.05 7.05 21.8 6.3 L21.3 3.6 20.85 4.45 19.55 6.9 Q19.25 6.75 19.25 6.4 19.25 6.1 20.0 4.35 L21.0 2.45 Q21.0 1.25 21.3 0.65 L20.55 -1.0 20.25 -2.05 20.1 -2.65 19.4 -1.05 19.4 -1.15 19.25 -0.9 17.5 3.95 17.65 4.0 18.4 6.9 18.9 8.25 18.75 8.55 18.65 9.0 18.5 9.2 Q15.2 17.25 13.75 19.65 L13.55 19.95 12.65 20.6 12.25 20.6 6.35 20.45 -1.3 20.45 Q-2.0 20.05 -2.0 19.55 L-2.25 19.65 -2.55 18.95 -2.7 18.45 -2.45 18.45 -2.45 16.4 -3.35 16.4 -3.4 16.4 -13.9 15.3 -16.85 15.0 -19.55 14.7 -23.9 14.15 -24.15 14.2 -24.95 14.1 -27.6 13.75 -27.85 13.7 -27.9 13.75 -28.0 13.85 -28.3 13.75 -28.3 13.7 -28.9 13.65 -28.9 13.6 -28.95 13.4 -29.4 13.55 -29.8 13.7 -29.95 13.7 Q-31.35 14.15 -32.15 15.25 -33.05 16.5 -33.05 18.2 L-33.1 19.15 Q-33.1 21.9 -30.6 23.45 -29.35 24.3 -26.9 25.3 L-26.65 25.3 -26.5 23.45 -29.45 23.15 -29.2 22.7 -27.65 22.7 -26.35 22.7 -25.5 20.7 -25.05 19.85 -25.25 19.85 Q-29.35 19.5 -29.35 18.95 L-17.7 19.35 Q-6.05 20.6 -6.05 21.35 -6.05 21.75 -7.2 21.75 L-13.8 20.95 -14.5 21.9 -15.5 23.45 -15.5 23.75 -12.95 23.9 -8.3 24.3 -0.15 24.8 12.6 25.05 13.55 25.1 13.5 24.95 13.7 24.3 M32.05 -20.35 Q30.4 -18.25 30.1 -18.25 29.6 -18.25 29.25 -19.4 L29.0 -20.85 28.55 -20.85 28.45 -20.85 27.65 -19.25 27.2 -18.2 27.05 -18.0 24.25 -12.1 24.5 -11.45 25.15 -9.6 25.9 -6.65 27.2 -6.5 28.0 -8.3 29.25 -10.75 30.35 -13.05 Q30.75 -13.9 31.2 -14.15 31.7 -14.55 31.7 -13.5 31.7 -13.05 29.75 -9.35 L27.95 -6.1 28.5 -5.7 29.45 -4.6 Q29.65 -5.9 31.4 -9.3 33.35 -13.2 33.35 -11.4 33.35 -9.8 29.9 -3.7 L30.15 -2.95 30.3 -2.7 31.3 -4.95 33.95 -11.25 34.05 -11.35 Q33.35 -12.8 32.55 -17.35 L32.4 -18.2 32.25 -19.25 32.05 -20.35 M35.25 -13.4 Q35.0 -13.55 34.85 -13.65 L34.95 -11.9 35.35 -11.4 Q34.75 -10.5 34.1 -8.55 L33.15 -6.0 32.85 -5.5 32.95 -5.5 32.65 -4.85 33.05 -4.45 33.7 -4.2 Q34.35 -4.2 37.55 -12.65 37.55 -13.0 36.35 -13.4 35.5 -13.65 35.25 -13.4 M28.35 -12.75 L26.05 -8.2 Q25.65 -8.3 25.65 -8.55 25.65 -9.2 27.45 -13.0 L29.85 -17.75 30.3 -17.25 Q30.3 -16.6 28.35 -12.75 M16.2 30.55 L16.3 30.4 16.3 30.3 16.35 30.3 16.85 29.05 17.25 28.3 17.35 28.05 17.65 27.4 19.25 23.4 20.65 19.45 23.2 12.4 23.7 11.3 23.15 10.4 Q17.5 26.6 15.7 28.65 L15.45 28.5 15.4 28.5 13.25 28.6 12.85 28.6 12.8 28.65 3.0 28.0 -2.2 27.65 -2.25 27.65 -3.6 27.75 -16.0 27.0 -16.0 28.1 -13.7 28.3 -12.2 28.5 -8.2 28.8 16.15 30.95 16.4 30.95 16.7 30.95 16.6 30.8 16.05 30.8 16.2 30.55 M15.05 27.55 L15.05 27.5 19.0 18.6 20.8 13.7 Q21.2 12.3 21.9 11.0 L22.55 8.85 21.95 7.0 21.9 6.5 Q16.6 21.65 14.0 24.95 L13.75 25.2 13.85 25.4 13.5 25.85 8.5 25.95 -15.8 24.5 -16.0 25.7 -12.55 25.85 -4.5 26.75 4.25 27.0 13.15 27.75 13.25 27.75 14.5 27.85 14.4 27.55 14.8 27.55 15.05 27.55 M21.45 21.1 L19.25 26.45 18.85 27.4 18.5 28.05 18.35 28.3 18.5 28.3 16.7 31.7 12.35 31.7 11.45 31.7 11.05 31.7 10.95 31.7 10.85 31.7 10.2 31.7 6.55 31.5 2.45 31.2 2.65 31.5 2.6 31.7 Q2.6 32.1 2.9 32.2 L5.35 32.6 16.35 33.25 17.3 33.25 17.8 33.25 17.95 33.25 Q18.5 33.25 20.5 28.5 22.45 23.8 22.45 23.0 L22.6 22.75 21.9 21.8 21.45 21.1 M16.75 5.9 L16.55 5.2 16.55 5.1 14.9 5.15 11.05 5.0 9.75 8.6 9.8 9.0 9.4 9.45 Q8.65 9.7 7.65 10.2 6.0 11.0 4.9 11.75 L4.3 11.45 0.7 11.0 0.6 11.0 0.35 11.4 -1.35 15.7 -1.95 16.75 -1.6 17.35 -1.15 18.8 -1.05 18.95 -0.9 18.95 7.65 19.15 7.85 19.15 11.6 19.1 11.85 19.1 12.45 19.15 13.4 16.8 14.9 13.8 14.65 13.7 17.3 8.05 17.05 7.3 16.75 5.9 M3.55 22.15 L-3.15 21.8 Q-4.0 21.75 -4.55 21.35 L-4.35 21.0 -3.25 20.95 5.7 21.35 Q11.35 21.65 11.35 22.25 L11.05 22.55 9.75 22.65 3.55 22.15 M-14.65 -31.55 L-14.95 -31.5 -15.05 -31.5 -16.15 -31.25 -16.7 -31.05 Q-17.55 -30.65 -17.65 -30.3 L-17.85 -30.05 -18.1 -29.4 -18.2 -29.2 -18.3 -28.95 -18.4 -28.95 -18.9 -27.7 -18.75 -27.8 -18.2 -28.05 Q-17.5 -28.2 -16.5 -28.7 L-13.7 -29.05 -13.6 -29.05 -10.85 -28.75 -9.85 -28.3 -9.0 -27.75 -8.8 -27.65 -8.6 -28.2 Q-8.3 -29.0 -8.3 -29.35 L-8.05 -29.85 -7.8 -30.35 -7.7 -30.5 -7.5 -30.95 -7.85 -31.05 Q-8.2 -31.4 -9.2 -31.45 L-10.3 -31.7 Q-10.85 -31.9 -11.0 -31.7 L-12.25 -31.7 -12.4 -31.7 -14.65 -31.55 M-9.7 -36.25 L-9.8 -36.25 Q-13.9 -36.3 -15.9 -34.45 L-15.95 -34.25 -16.85 -32.15 -16.4 -32.35 -12.6 -32.75 -11.7 -32.7 -8.45 -32.25 -7.05 -31.8 -6.5 -32.9 -6.15 -33.55 -5.7 -34.65 -5.65 -34.75 -6.4 -35.35 Q-7.35 -36.25 -9.7 -36.25 M-22.9 -4.05 L-23.25 -4.05 -25.5 -3.95 -27.25 -3.7 -27.5 -3.65 -28.1 -3.45 -29.3 -2.9 -29.4 -2.7 -29.9 -1.55 -30.2 -0.6 -30.7 0.6 -29.75 0.2 -26.2 -0.3 -25.45 -0.3 -22.0 0.3 Q-20.65 0.75 -20.25 1.25 L-19.85 0.2 -19.3 -1.05 -19.15 -1.35 -19.05 -1.75 -18.95 -1.9 -18.7 -2.05 -18.55 -2.45 Q-18.55 -2.85 -19.55 -3.4 -20.8 -4.15 -22.15 -4.15 L-22.9 -4.05 M-16.0 22.15 L-15.65 21.35 -15.75 21.25 -15.6 21.0 -15.4 20.75 -17.8 20.45 -23.55 20.0 -24.5 22.0 -24.75 22.9 Q-25.35 23.8 -25.5 25.05 L-25.95 27.9 -26.1 28.5 -26.15 28.65 -28.15 32.0 -28.4 32.35 -29.2 33.9 -26.75 32.85 -24.95 32.0 -24.75 31.8 -22.65 30.7 -22.4 31.1 -22.3 31.25 -19.7 35.45 Q-19.35 35.45 -18.7 34.25 L-18.05 32.75 -17.75 32.1 -17.3 30.45 -17.3 30.4 -17.2 29.8 -17.2 28.75 -16.85 24.95 -16.25 22.65 -16.0 22.15 M-29.3 18.0 L-19.4 18.3 -29.05 18.2 -29.3 18.0" fill="#000000" fill-rule="evenodd" stroke="none"/>
    <path d="M29.75 -22.25 L27.05 -22.45 25.3 -22.25 27.55 -25.8 27.45 -26.3 27.45 -26.4 25.9 -29.45 25.7 -29.75 22.45 -30.15 Q19.05 -30.35 19.05 -30.95 19.05 -31.7 19.75 -32.75 L20.0 -33.75 20.5 -34.25 20.55 -34.5 32.85 -32.85 33.2 -32.75 33.2 -32.85 33.3 -32.75 33.45 -32.75 34.85 -32.75 34.75 -32.6 34.7 -32.6 34.7 -32.45 29.75 -22.25 M-1.35 15.7 L0.35 11.4 0.6 11.0 0.7 11.0 4.3 11.45 4.9 11.75 Q6.0 11.0 7.65 10.2 8.65 9.7 9.4 9.45 L9.8 9.0 9.75 8.6 11.05 5.0 14.9 5.15 16.55 5.1 16.55 5.2 16.75 5.9 10.85 17.25 -1.35 15.7" fill="#884444" fill-rule="evenodd" stroke="none"/>
    <path d="M-4.65 -34.65 L-3.95 -34.75 -3.35 -34.85 1.5 -35.05 6.2 -34.9 8.05 -34.95 9.95 -34.85 15.35 -34.55 Q18.85 -34.35 18.85 -33.85 L18.75 -33.6 18.75 -33.55 Q18.75 -33.05 17.65 -31.05 L17.25 -30.1 20.7 -29.45 23.25 -29.2 24.5 -28.85 24.65 -28.85 25.1 -28.0 Q25.4 -27.3 25.8 -26.95 L25.65 -26.7 24.5 -24.65 23.6 -22.75 23.35 -22.25 23.45 -21.75 23.6 -21.35 Q23.7 -20.95 24.2 -20.9 L27.05 -20.85 26.3 -19.25 25.9 -18.25 25.9 -18.2 25.0 -16.35 24.95 -16.2 24.4 -16.25 24.05 -16.25 Q23.6 -16.15 23.45 -15.85 L22.8 -14.9 22.25 -13.9 21.35 -12.35 19.7 -9.3 18.05 -5.95 Q16.45 -2.6 16.45 -1.85 L16.5 -1.5 Q16.65 -1.1 17.1 -1.1 L17.3 -1.2 18.15 -0.9 17.65 -0.2 17.25 0.65 16.05 3.7 13.9 3.55 11.1 3.7 10.55 3.8 Q9.95 3.95 9.95 4.25 L10.05 4.5 Q9.4 5.5 8.9 6.65 L8.15 8.3 6.95 8.8 Q5.7 9.45 5.05 10.0 L4.0 9.85 1.55 9.75 0.7 9.85 0.1 9.7 0.05 9.7 0.05 9.75 -0.15 9.95 Q-0.6 10.0 -0.6 10.2 L-0.6 10.35 -0.9 10.75 -1.85 12.8 -2.45 14.25 -2.45 15.1 -2.85 15.05 -3.3 15.05 -3.4 15.05 -4.1 15.0 -7.15 14.6 -19.05 13.6 -19.85 13.55 -20.0 13.5 -20.45 13.4 -20.85 13.35 -21.05 13.35 -21.7 13.15 -21.75 13.15 -23.15 13.25 -23.8 13.35 -24.0 13.2 -24.15 13.25 -24.6 13.0 -24.45 13.05 -23.8 11.95 -23.3 10.65 -21.7 6.2 -21.45 5.65 -21.45 5.6 Q-21.05 3.8 -19.75 0.9 L-18.05 -3.75 -17.8 -4.25 -17.4 -6.05 -16.0 -10.05 -16.0 -10.15 -15.3 -11.4 Q-15.65 -11.6 -15.65 -12.1 -15.65 -13.4 -13.9 -17.15 L-11.75 -21.5 -10.55 -23.65 -10.3 -24.1 -8.55 -27.65 -6.4 -31.7 -5.4 -33.75 -5.1 -34.2 -5.05 -34.4 -5.0 -34.45 -5.0 -34.55 -4.95 -34.55 -4.65 -34.65 M-9.05 -15.5 L-9.35 -15.45 -9.1 -15.35 -9.05 -15.5" fill="url(#gradient0)" fill-rule="evenodd" stroke="none"/>
    <path d="M34.7 -32.45 L34.85 -30.3 35.0 -27.2 Q31.25 -20.0 30.5 -20.0 30.1 -20.0 29.75 -22.25 L34.7 -32.45 M35.25 -13.4 Q35.5 -13.65 36.35 -13.4 37.55 -13.0 37.55 -12.65 34.35 -4.2 33.7 -4.2 L33.05 -4.45 32.65 -4.85 32.95 -5.5 32.85 -5.5 33.15 -6.0 34.1 -8.55 Q34.75 -10.5 35.35 -11.4 L34.95 -11.9 34.85 -13.65 Q35.0 -13.55 35.25 -13.4 M21.45 21.1 L21.9 21.8 22.6 22.75 22.45 23.0 Q22.45 23.8 20.5 28.5 18.5 33.25 17.95 33.25 L17.8 33.25 17.3 33.25 16.35 33.25 5.35 32.6 2.9 32.2 Q2.6 32.1 2.6 31.7 L2.65 31.5 2.45 31.2 6.55 31.5 10.2 31.7 10.85 31.7 10.95 31.7 11.05 31.7 11.45 31.7 12.35 31.7 16.7 31.7 18.5 28.3 18.35 28.3 18.5 28.05 18.85 27.4 19.25 26.45 21.45 21.1 M-1.35 15.7 L10.85 17.25 16.75 5.9 17.05 7.3 17.3 8.05 14.65 13.7 14.9 13.8 13.4 16.8 12.45 19.15 11.85 19.1 11.6 19.1 7.85 19.15 7.65 19.15 -0.9 18.95 -1.05 18.95 -1.15 18.8 -1.6 17.35 -1.95 16.75 -1.35 15.7" fill="#663333" fill-rule="evenodd" stroke="none"/>
    <path d="M23.45 -0.85 L23.25 -1.5 Q22.7 -2.3 21.4 -5.2 21.05 -6.0 20.5 -5.9 L19.6 -4.7 18.35 -3.2 17.55 -2.45 18.0 -3.55 18.75 -5.35 20.45 -8.9 22.25 -12.15 21.6 -10.75 21.7 -10.55 Q21.8 -10.45 21.95 -10.45 L22.2 -10.45 22.6 -10.7 Q22.6 -10.1 23.6 -7.4 L24.0 -5.5 Q24.35 -4.2 25.0 -4.2 L25.3 -4.5 25.3 -4.8 Q25.5 -5.1 26.0 -5.1 L26.2 -5.1 26.3 -5.2 Q27.2 -5.2 27.95 -4.3 L27.7 -4.1 Q28.75 -3.3 29.35 -1.25 L29.5 -0.7 29.35 -0.75 29.6 -0.2 29.75 0.4 Q29.75 1.8 29.2 3.45 L29.0 4.1 28.75 4.65 28.45 4.5 28.2 5.35 Q28.1 5.1 27.8 5.1 27.6 5.1 26.9 6.3 26.2 7.5 25.7 7.5 24.75 7.5 24.2 4.65 L23.85 1.65 24.0 0.5 24.1 2.0 24.35 2.65 Q25.0 4.45 25.9 4.45 26.55 4.45 27.05 3.05 L27.4 1.25 Q27.4 -1.3 25.55 -1.65 24.5 -1.9 24.1 -1.1 L24.05 -0.35 23.9 -0.85 23.6 -1.25 23.45 -0.85 M24.5 -15.5 L24.6 -15.5 24.6 -15.45 24.5 -15.5 M23.1 -11.45 L23.35 -10.85 23.25 -10.7 23.0 -11.35 23.1 -11.45 M26.55 -1.65 Q27.65 -0.7 27.65 0.05 L27.45 1.8 Q27.45 2.45 27.85 2.45 L28.35 2.15 28.5 0.95 Q28.5 -0.55 27.95 -1.6 27.1 -3.05 25.5 -2.95 L25.4 -2.55 26.55 -1.65 M27.55 6.8 Q26.9 8.1 26.3 8.45 L26.0 8.6 27.2 7.2 27.55 6.8 M-14.65 -31.55 L-12.4 -31.7 -12.25 -31.7 -11.0 -31.7 -11.0 -31.5 Q-11.0 -30.85 -10.1 -30.75 L-9.1 -30.55 -8.4 -30.5 -8.0 -30.3 -7.8 -30.35 -8.05 -29.85 -8.3 -29.35 Q-8.3 -29.0 -8.6 -28.2 L-9.55 -28.75 Q-10.5 -29.3 -11.9 -29.3 L-15.1 -29.2 -16.3 -29.25 Q-16.75 -29.35 -16.75 -29.85 L-16.55 -30.55 -16.15 -31.25 -15.05 -31.5 -14.95 -31.5 -14.9 -31.45 -14.65 -31.55 M-7.85 -31.05 L-7.5 -30.95 -7.7 -30.5 -7.7 -30.65 Q-7.7 -30.85 -7.85 -31.05 M-27.5 -3.65 L-27.25 -3.7 -25.5 -3.95 -23.25 -4.05 -22.9 -4.05 -23.15 -3.75 Q-23.15 -3.4 -22.5 -3.2 L-21.4 -2.85 Q-19.3 -1.9 -19.1 -1.9 L-18.95 -1.9 -19.05 -1.75 -19.15 -1.35 -19.3 -1.05 -19.85 0.2 -21.35 -0.55 -24.85 -1.05 -28.6 -0.85 Q-28.95 -0.95 -28.95 -1.3 L-28.15 -2.75 -27.5 -3.65" fill="#fae414" fill-rule="evenodd" stroke="none"/>
    <path d="M17.55 -2.45 L18.35 -3.2 19.6 -4.7 20.5 -5.9 Q21.05 -6.0 21.4 -5.2 22.7 -2.3 23.25 -1.5 L23.45 -0.85 Q23.1 0.0 23.1 1.9 23.1 3.35 23.6 5.55 24.4 8.7 25.7 8.7 L26.0 8.6 26.3 8.45 Q26.9 8.1 27.55 6.8 L28.2 5.5 28.2 5.35 28.45 4.5 28.75 4.65 29.0 5.25 Q26.8 10.2 25.4 10.2 23.9 10.2 23.0 7.15 22.3 4.85 22.25 2.55 22.1 -0.2 21.6 -1.3 L20.8 -3.3 20.55 -4.2 20.55 -4.25 19.9 -4.3 19.75 -4.1 18.6 -2.0 18.6 -1.9 18.4 -1.6 18.2 -1.65 17.85 -1.8 17.4 -2.0 17.55 -2.45 M24.05 -0.35 L24.1 -1.1 Q24.5 -1.9 25.55 -1.65 27.4 -1.3 27.4 1.25 L27.05 3.05 Q26.55 4.45 25.9 4.45 25.0 4.45 24.35 2.65 L24.1 2.0 24.0 0.5 24.05 -0.2 24.05 -0.35 M26.55 2.8 L26.65 2.65 26.9 1.55 26.55 0.35 26.3 -0.15 25.85 -0.35 25.15 -0.35 25.1 -0.4 25.1 -0.25 24.95 -0.1 Q24.65 0.05 24.65 0.95 L24.9 2.05 24.95 2.35 24.95 2.45 Q25.1 3.25 25.65 3.35 L26.05 3.35 Q26.55 3.35 26.55 2.8 M-8.6 -28.2 L-8.8 -27.65 -9.0 -27.75 -9.85 -28.3 -10.85 -28.75 -13.6 -29.05 -13.7 -29.05 -16.5 -28.7 Q-17.5 -28.2 -18.2 -28.05 L-18.75 -27.8 -18.3 -28.95 -18.1 -29.1 -18.2 -29.2 -18.1 -29.4 -17.85 -30.05 -17.65 -30.3 Q-17.55 -30.65 -16.7 -31.05 L-16.15 -31.25 -16.55 -30.55 -16.75 -29.85 Q-16.75 -29.35 -16.3 -29.25 L-15.1 -29.2 -11.9 -29.3 Q-10.5 -29.3 -9.55 -28.75 L-8.6 -28.2 M-19.85 0.2 L-20.25 1.25 Q-20.65 0.75 -22.0 0.3 L-25.45 -0.3 -26.2 -0.3 -29.75 0.2 -30.7 0.6 -30.2 -0.6 -29.9 -1.55 -29.4 -2.7 -29.3 -2.9 -28.1 -3.45 -27.5 -3.65 -28.15 -2.75 -28.95 -1.3 Q-28.95 -0.95 -28.6 -0.85 L-24.85 -1.05 -21.35 -0.55 -19.85 0.2" fill="#d36f00" fill-rule="evenodd" stroke="none"/>
    <path d="M12.25 20.6 L12.65 20.6 13.55 19.95 13.75 19.65 Q15.2 17.25 18.5 9.2 L18.65 9.0 18.75 8.55 18.9 8.25 18.4 6.9 17.65 4.0 17.5 3.95 19.25 -0.9 19.4 -1.15 19.4 -1.05 20.1 -2.65 20.25 -2.05 20.55 -1.0 21.3 0.65 Q21.0 1.25 21.0 2.45 L20.0 4.35 Q19.25 6.1 19.25 6.4 19.25 6.75 19.55 6.9 L20.85 4.45 21.3 3.6 21.8 6.3 Q21.05 7.05 19.9 10.1 L17.8 15.5 15.2 20.95 13.7 24.3 12.25 20.6 M32.05 -20.35 L32.25 -19.25 32.4 -18.2 32.55 -17.35 Q33.35 -12.8 34.05 -11.35 L33.95 -11.25 31.3 -4.95 30.3 -2.7 30.15 -2.95 29.9 -3.7 Q33.35 -9.8 33.35 -11.4 33.35 -13.2 31.4 -9.3 29.65 -5.9 29.45 -4.6 L28.5 -5.7 27.95 -6.1 29.75 -9.35 Q31.7 -13.05 31.7 -13.5 31.7 -14.55 31.2 -14.15 30.75 -13.9 30.35 -13.05 L29.25 -10.75 28.0 -8.3 27.2 -6.5 25.9 -6.65 25.15 -9.6 24.5 -11.45 24.25 -12.1 27.05 -18.0 27.2 -18.2 27.65 -19.25 28.45 -20.85 28.55 -20.85 29.0 -20.85 29.25 -19.4 Q29.6 -18.25 30.1 -18.25 30.4 -18.25 32.05 -20.35 M28.35 -12.75 Q30.3 -16.6 30.3 -17.25 L29.85 -17.75 27.45 -13.0 Q25.65 -9.2 25.65 -8.55 25.65 -8.3 26.05 -8.2 L28.35 -12.75 M24.95 -0.1 L25.1 -0.15 25.3 -0.15 25.85 0.2 26.2 1.1 26.55 2.8 Q26.55 3.35 26.05 3.35 L25.65 3.35 25.4 3.05 24.95 2.35 24.9 2.05 24.65 0.95 Q24.65 0.05 24.95 -0.1 M15.45 28.5 L15.7 28.65 Q17.5 26.6 23.15 10.4 L23.7 11.3 23.2 12.4 20.65 19.45 19.25 23.4 17.65 27.4 17.35 28.05 17.25 28.3 16.85 29.05 16.35 30.3 16.3 30.3 16.3 30.4 16.2 30.55 15.45 28.5 M14.0 24.95 Q16.6 21.65 21.9 6.5 L21.95 7.0 22.55 8.85 21.9 11.0 Q21.2 12.3 20.8 13.7 L19.0 18.6 15.05 27.5 15.05 27.55 14.0 24.95" fill="#fbfbfb" fill-rule="evenodd" stroke="none"/>
    <path d="M23.45 -0.85 L23.6 -1.25 23.9 -0.85 24.05 -0.35 24.05 -0.2 24.0 0.5 23.85 1.65 24.2 4.65 Q24.75 7.5 25.7 7.5 26.2 7.5 26.9 6.3 27.6 5.1 27.8 5.1 28.1 5.1 28.2 5.35 L28.2 5.5 27.55 6.8 27.2 7.2 26.0 8.6 25.7 8.7 Q24.4 8.7 23.6 5.55 23.1 3.35 23.1 1.9 23.1 0.0 23.45 -0.85 M25.3 -4.8 L25.3 -4.5 25.0 -4.2 Q24.35 -4.2 24.0 -5.5 L23.6 -7.4 Q22.6 -10.1 22.6 -10.7 L22.2 -10.45 21.95 -10.45 Q21.8 -10.45 21.7 -10.55 L21.6 -10.75 22.25 -12.15 22.35 -12.4 23.35 -14.2 23.85 -15.1 24.25 -15.5 24.5 -15.5 24.6 -15.45 24.65 -15.15 Q24.65 -14.4 23.5 -12.65 L23.1 -11.45 23.0 -11.35 23.25 -10.7 24.4 -7.65 25.3 -4.8 M26.55 -1.65 L25.4 -2.55 25.5 -2.95 Q27.1 -3.05 27.95 -1.6 28.5 -0.55 28.5 0.95 L28.35 2.15 27.85 2.45 Q27.45 2.45 27.45 1.8 L27.65 0.05 Q27.65 -0.7 26.55 -1.65 M-11.0 -31.7 Q-10.85 -31.9 -10.3 -31.7 L-9.2 -31.45 Q-8.2 -31.4 -7.85 -31.05 -7.7 -30.85 -7.7 -30.65 L-7.7 -30.5 -7.8 -30.35 -8.0 -30.3 -8.4 -30.5 -9.1 -30.55 -10.1 -30.75 Q-11.0 -30.85 -11.0 -31.5 L-11.0 -31.7 M-22.9 -4.05 L-22.15 -4.15 Q-20.8 -4.15 -19.55 -3.4 -18.55 -2.85 -18.55 -2.45 L-18.7 -2.05 -18.95 -1.9 -19.1 -1.9 Q-19.3 -1.9 -21.4 -2.85 L-22.5 -3.2 Q-23.15 -3.4 -23.15 -3.75 L-22.9 -4.05" fill="#ffffff" fill-rule="evenodd" stroke="none"/>
    <path d="M12.25 20.6 L13.7 24.3 13.5 24.95 13.55 25.1 12.6 25.05 -0.15 24.8 -8.3 24.3 -12.95 23.9 -15.5 23.75 -15.5 23.45 -14.5 21.9 -13.8 20.95 -7.2 21.75 Q-6.05 21.75 -6.05 21.35 -6.05 20.6 -17.7 19.35 L-29.35 18.95 Q-29.35 19.5 -25.25 19.85 L-25.05 19.85 -25.5 20.7 -26.35 22.7 -27.65 22.7 -29.2 22.7 -29.45 23.15 -26.5 23.45 -26.65 25.3 -26.9 25.3 Q-29.35 24.3 -30.6 23.45 -33.1 21.9 -33.1 19.15 L-33.05 18.2 Q-33.05 16.5 -32.15 15.25 -31.35 14.15 -29.95 13.7 L-29.8 13.7 -29.4 13.55 -28.95 13.4 -28.9 13.6 -28.9 13.65 -28.3 13.7 -28.3 13.75 -28.0 13.85 -27.9 13.75 -27.85 13.7 -27.6 13.75 -24.95 14.1 -24.15 14.2 -23.9 14.15 -19.55 14.7 -16.85 15.0 -13.9 15.3 -3.4 16.4 -3.35 16.4 -2.45 16.4 -2.45 18.45 -2.7 18.45 -2.55 18.95 -2.25 19.65 -2.0 19.55 Q-2.0 20.05 -1.3 20.45 L6.35 20.45 12.25 20.6 M26.55 2.8 L26.2 1.1 25.85 0.2 25.3 -0.15 25.1 -0.15 24.95 -0.1 25.1 -0.25 25.1 -0.4 25.15 -0.35 25.85 -0.35 26.3 -0.15 26.55 0.35 26.9 1.55 26.65 2.65 26.55 2.8 M24.95 2.35 L25.4 3.05 25.65 3.35 Q25.1 3.25 24.95 2.45 L24.95 2.35 M15.45 28.5 L16.2 30.55 16.05 30.8 16.15 30.95 -8.2 28.8 -12.2 28.5 -13.7 28.3 -16.0 28.1 -16.0 27.0 -3.6 27.75 -2.25 27.65 -2.2 27.65 3.0 28.0 12.8 28.65 12.85 28.6 13.25 28.6 15.4 28.5 15.45 28.5 M14.0 24.95 L15.05 27.55 14.8 27.55 14.4 27.55 14.5 27.85 13.25 27.75 13.15 27.75 4.25 27.0 -4.5 26.75 -12.55 25.85 -16.0 25.7 -15.8 24.5 8.5 25.95 13.5 25.85 13.85 25.4 13.75 25.2 14.0 24.95 M3.55 22.15 L9.75 22.65 11.05 22.55 11.35 22.25 Q11.35 21.65 5.7 21.35 L-3.25 20.95 -4.35 21.0 -4.55 21.35 Q-4.0 21.75 -3.15 21.8 L3.55 22.15 M-29.3 18.0 L-29.05 18.2 -19.4 18.3 -29.3 18.0" fill="#cccccc" fill-rule="evenodd" stroke="none"/>
    <path d="M-25.85 0.75 L-25.8 0.75 Q-24.5 0.75 -20.7 2.2 L-20.65 2.2 -24.0 10.35 -24.15 10.85 -25.35 10.0 -25.5 9.9 -25.7 9.7 -26.75 9.3 -26.55 8.8 -28.2 8.7 -28.4 8.7 -27.15 4.15 -25.85 0.75 M-4.95 -34.55 L-4.9 -34.7 -4.65 -34.65 -4.95 -34.55 M-7.4 -38.4 L-7.35 -38.4 -7.25 -38.35 -7.4 -38.4 M-9.7 -36.25 Q-7.35 -36.25 -6.4 -35.35 L-5.65 -34.75 -5.7 -34.65 -6.15 -33.55 -6.5 -32.9 -7.05 -31.8 -8.45 -32.25 -11.7 -32.7 -9.7 -36.25 M-16.0 22.15 L-16.25 22.65 -16.85 24.95 -17.2 28.75 -17.2 29.8 -17.3 30.4 -17.3 30.45 -17.75 32.1 -18.05 32.75 -18.7 34.25 Q-19.35 35.45 -19.7 35.45 L-22.3 31.25 -22.4 31.1 -22.65 30.7 -24.75 31.8 -24.95 32.0 -26.75 32.85 -29.2 33.9 -28.4 32.35 -28.15 32.0 -26.15 28.65 -26.1 28.5 -25.95 27.9 Q-25.2 26.5 -24.35 25.95 -22.55 24.55 -21.5 24.45 -20.0 24.2 -17.9 23.25 L-16.0 22.15" fill="#cc3333" fill-rule="evenodd" stroke="none"/>
    <path d="M-34.4 9.55 L-34.55 9.65 -31.25 1.9 -31.2 1.9 -29.35 1.35 -25.85 0.75 -27.15 4.15 -28.4 8.7 -30.1 8.7 -31.75 8.75 Q-33.05 8.95 -34.05 9.4 L-34.4 9.55 M-14.95 -31.5 L-14.65 -31.55 -14.9 -31.45 -14.95 -31.5 M-11.7 -32.7 L-12.6 -32.75 -16.4 -32.35 -16.85 -32.15 -15.95 -34.25 -15.9 -34.45 Q-13.9 -36.3 -9.8 -36.25 L-9.7 -36.25 -11.7 -32.7" fill="#b02d2d" fill-rule="evenodd" stroke="none"/>
    <path d="M-28.7 -4.15 L-28.75 -4.1 -26.1 -11.05 Q-23.8 -17.2 -19.6 -26.25 L-19.4 -26.35 -21.4 -21.45 -25.6 -11.5 -28.7 -4.15 M-18.75 -27.8 L-18.9 -27.7 -18.4 -28.95 -18.3 -28.95 -18.75 -27.8" fill="#a42828" fill-rule="evenodd" stroke="none"/>
    <path d="M-36.6 14.05 L-36.5 13.35 -36.45 13.15 -36.35 12.85 -36.4 12.85 -36.0 11.9 -35.4 10.7 -35.3 10.55 -35.2 10.55 -34.4 9.55 -34.05 9.4 Q-33.05 8.95 -31.75 8.75 L-30.1 8.7 -28.4 8.7 -28.45 8.9 -28.6 9.65 -28.75 10.05 -29.15 10.0 -28.85 10.2 -29.3 10.15 -30.8 10.35 -31.35 10.45 -31.6 10.5 -33.05 10.95 -34.6 11.7 -35.3 12.35 -36.05 12.85 -36.1 12.85 -36.2 12.9 -36.2 13.0 -36.25 13.15 -36.4 13.45 -36.6 14.05 M-18.3 -28.95 L-18.2 -29.2 -18.1 -29.1 -18.3 -28.95" fill="#8b1f2b" fill-rule="evenodd" stroke="none"/>
    <path d="M-25.0 -4.9 L-28.1 -4.35 -28.7 -4.15 -25.6 -11.5 -21.4 -21.45 -19.4 -26.35 -19.1 -26.6 Q-18.45 -27.3 -17.85 -27.45 L-15.75 -28.0 -14.2 -28.1 -15.2 -26.3 -15.5 -26.15 -15.35 -26.15 -15.2 -26.3 -14.5 -26.85 -13.9 -27.4 -13.25 -27.4 -13.65 -26.6 -18.95 -16.6 -25.0 -4.9" fill="#9c2727" fill-rule="evenodd" stroke="none"/>
    <path d="M-18.95 -4.05 L-19.3 -4.25 Q-20.95 -4.9 -23.25 -4.95 L-25.0 -4.9 -18.95 -16.6 -13.65 -26.6 -13.25 -27.4 -13.9 -27.4 -14.5 -26.85 -15.2 -26.3 -15.35 -26.15 -15.5 -26.15 -15.2 -26.3 -14.2 -28.1 -13.55 -28.15 Q-11.65 -28.15 -10.1 -27.45 L-9.1 -27.0 -10.0 -24.95 -10.3 -24.1 -10.55 -23.65 -11.75 -21.5 -13.9 -17.15 Q-15.65 -13.4 -15.65 -12.1 -15.65 -11.6 -15.3 -11.4 L-16.0 -10.15 -16.0 -10.05 -16.2 -10.0 -17.15 -7.8 -17.65 -6.6 Q-17.75 -5.65 -18.3 -5.65 L-18.4 -5.4 Q-18.65 -4.4 -18.95 -4.05" fill="#b82e2e" fill-rule="evenodd" stroke="none"/>
    <path d="M-9.05 -15.5 L-9.1 -15.35 -9.35 -15.45 -9.05 -15.5" fill="#ff6600" fill-rule="evenodd" stroke="none"/>
    <path d="M-17.4 -6.05 L-18.25 -3.7 -18.95 -4.05 Q-18.65 -4.4 -18.4 -5.4 L-18.3 -5.65 Q-17.75 -5.65 -17.65 -6.6 L-17.15 -7.8 -16.2 -10.0 -16.0 -10.05 -17.4 -6.05" fill="url(#gradient1)" fill-rule="evenodd" stroke="none"/>
    <path d="M-25.95 27.9 L-25.5 25.05 Q-25.35 23.8 -24.75 22.9 L-24.5 22.0 -23.55 20.0 -17.8 20.45 -15.4 20.75 -15.6 21.0 -15.75 21.25 -15.65 21.35 -16.0 22.15 -17.9 23.25 Q-20.0 24.2 -21.5 24.45 -22.55 24.55 -24.35 25.95 -25.2 26.5 -25.95 27.9" fill="#aa2b2b" fill-rule="evenodd" stroke="none"/>
    <path d="M-27.3 12.9 Q-27.4 13.2 -27.65 13.2 L-27.95 12.9 -27.7 12.9 -27.3 12.9 M-24.15 10.85 L-24.45 11.75 -24.5 11.85 -24.65 12.4 -26.45 11.45 -26.95 11.15 -28.0 10.7 -28.7 10.55 -30.2 10.4 -31.35 10.45 -30.8 10.35 -29.3 10.15 -28.85 10.2 -29.15 10.0 -28.75 10.05 -28.6 9.65 -28.45 8.9 -28.4 8.7 -28.2 8.7 -26.55 8.8 -26.75 9.3 -25.7 9.7 -25.5 9.9 -25.35 10.0 -24.15 10.85" fill="#a72533" fill-rule="evenodd" stroke="none"/>
    <path d="M-23.8 13.35 L-24.5 13.35 -24.6 13.3 -25.05 13.05 -25.35 13.1 -25.45 13.1 -27.3 12.9 -27.7 12.9 -27.95 12.9 -28.75 12.8 -29.0 12.7 -29.25 12.65 -29.2 12.7 -29.15 12.8 -29.3 12.8 -29.75 12.75 Q-31.05 12.65 -32.3 13.65 -34.3 15.25 -34.3 18.2 L-34.25 18.2 -34.35 19.15 Q-34.35 20.85 -33.3 22.65 -31.6 25.7 -27.95 25.7 L-26.75 25.95 -26.75 27.1 -27.15 27.4 Q-29.35 27.4 -32.05 25.85 -34.45 24.45 -35.25 23.15 -36.7 20.7 -37.0 18.15 L-36.75 18.15 -37.0 16.4 -37.0 16.0 Q-37.0 15.05 -36.6 14.05 L-36.4 13.45 -36.25 13.15 -36.2 13.0 -36.2 12.9 -36.1 12.85 -36.05 12.85 -35.3 12.35 -34.6 11.7 -33.05 10.95 -31.6 10.5 -31.35 10.45 -30.2 10.4 -28.7 10.55 -28.0 10.7 -26.95 11.15 -26.45 11.45 -24.65 12.4 -24.75 12.75 -24.6 13.0 -24.15 13.25 -24.0 13.2 -23.8 13.35" fill="#943838" fill-rule="evenodd" stroke="none"/>
    <path d="M11.3 -18.95 L10.7 -18.8 Q10.05 -18.45 9.55 -18.25 L7.15 -17.15 6.25 -16.75 5.95 -15.0 5.6 -13.45 5.3 -12.3 6.9 -13.2 8.1 -14.0 Q9.15 -14.7 9.45 -14.65 L9.55 -14.65 9.65 -14.6 9.85 -14.55 10.0 -14.35 9.8 -12.45 9.65 -11.45 9.65 -11.4 9.75 -11.5 9.85 -11.5 9.95 -11.55 10.1 -11.55 11.5 -12.05 14.35 -13.1 17.0 -14.25 17.1 -14.3 17.15 -14.3 18.2 -14.5 18.75 -14.9 19.05 -15.0 19.0 -15.0 18.75 -15.05 Q18.7 -15.6 17.8 -15.6 L16.9 -15.4 16.7 -15.3 14.75 -15.55 13.5 -15.75 13.1 -15.9 12.9 -15.85 Q12.65 -15.85 12.7 -16.3 L12.6 -16.55 12.7 -16.75 12.9 -18.1 13.0 -18.35 13.05 -18.4 Q13.55 -18.75 13.55 -19.05 13.65 -19.65 12.8 -19.65 L12.4 -19.65 12.2 -19.6 11.7 -19.3 11.3 -18.95 M15.05 -20.7 L15.05 -20.55 14.4 -18.45 14.15 -17.3 17.85 -16.5 19.9 -16.0 20.9 -15.7 21.3 -15.65 21.45 -15.65 Q21.9 -15.45 21.85 -15.1 21.8 -14.75 21.25 -14.55 L20.5 -14.3 20.2 -14.15 19.75 -13.95 18.7 -13.5 15.3 -12.1 12.35 -11.0 10.95 -10.5 9.45 -10.0 9.15 -10.2 9.1 -10.3 Q8.65 -10.55 8.85 -12.9 L8.85 -13.05 6.8 -12.0 5.85 -11.35 5.25 -11.15 5.0 -10.95 4.75 -10.85 4.45 -10.65 4.05 -10.55 4.5 -13.2 4.8 -15.05 4.9 -15.75 5.4 -17.4 5.35 -17.7 5.4 -17.85 6.3 -18.2 7.15 -18.6 9.0 -19.35 10.55 -19.95 13.45 -20.75 13.7 -20.8 14.2 -20.9 14.8 -20.75 15.05 -20.7 M2.85 -18.65 L2.4 -16.1 2.1 -14.3 2.05 -13.8 2.0 -13.65 1.5 -12.1 1.55 -11.8 1.5 -11.65 0.6 -11.5 -0.25 -11.25 -2.1 -10.9 -3.65 -10.65 -6.55 -10.45 -6.8 -10.45 -7.3 -10.45 -7.9 -10.75 -8.15 -10.85 -8.15 -11.0 -7.5 -12.95 -7.25 -14.05 -10.95 -15.65 Q-12.05 -16.05 -13.0 -16.6 L-14.0 -17.1 -14.55 -17.25 Q-15.0 -17.55 -14.95 -17.9 L-14.35 -18.35 -13.6 -18.4 -13.3 -18.5 -12.85 -18.6 -11.8 -18.85 -8.4 -19.5 -5.45 -20.0 -4.05 -20.2 -2.55 -20.35 -2.25 -20.1 -2.2 -20.0 Q-1.75 -19.65 -1.95 -17.35 L-1.95 -17.2 0.1 -17.8 1.05 -18.25 1.65 -18.3 1.9 -18.45 2.15 -18.5 Q2.4 -18.5 2.45 -18.65 L2.85 -18.65 M1.3 -16.0 L1.6 -16.15 2.2 -16.75 Q2.2 -17.35 1.3 -17.35 0.5 -17.35 0.1 -16.95 L-0.15 -16.5 -1.2 -16.05 Q-2.25 -15.6 -2.55 -15.7 L-2.65 -15.75 -2.75 -15.8 -2.95 -15.9 -3.1 -16.15 -2.9 -18.0 -2.85 -18.25 -2.8 -18.3 -2.55 -18.85 Q-2.55 -19.45 -3.55 -19.45 -4.8 -19.45 -5.0 -18.7 L-7.45 -18.3 -10.1 -17.7 -10.25 -17.65 -12.15 -17.4 -11.8 -17.3 -10.3 -16.75 -7.85 -15.95 -6.6 -15.5 -6.2 -15.25 -6.0 -15.25 Q-5.75 -15.2 -5.8 -14.75 L-5.7 -14.5 -5.8 -14.3 -6.0 -13.0 -6.4 -11.75 -5.4 -11.6 -3.8 -11.85 -2.65 -12.15 -0.25 -12.7 0.65 -12.95 0.75 -13.55 1.3 -16.0 M3.9 -9.65 L3.65 -9.35 3.55 -9.15 3.3 -8.9 3.05 -8.35 2.25 -7.45 0.95 -5.55 1.15 -5.5 Q3.5 -5.45 3.65 -5.0 L3.75 -4.9 3.9 -4.6 3.25 -3.15 2.6 -1.85 1.15 1.0 -0.45 3.75 -0.7 4.15 -1.3 5.15 -1.55 5.6 -1.7 5.85 -2.05 6.55 Q-2.3 7.1 -2.65 7.1 -3.0 7.1 -3.15 6.65 L-3.15 6.1 -3.35 5.05 -3.55 2.95 -3.9 -0.85 -5.05 -0.75 -7.25 -0.35 -7.4 -0.35 -7.4 -0.6 -7.5 -1.2 -7.3 -1.7 -7.25 -1.95 -6.05 -4.7 -5.3 -6.2 -4.35 -7.9 -3.85 -8.75 -3.35 -9.55 -3.2 -9.6 -2.95 -9.5 -1.25 -9.8 -0.55 -9.85 1.35 -9.95 4.05 -10.0 3.9 -9.65 M0.55 -6.95 Q0.95 -6.95 1.6 -7.55 2.25 -8.2 2.25 -8.7 2.25 -9.25 1.8 -9.25 1.35 -9.25 0.9 -8.85 L-1.55 -8.55 -1.75 -8.55 -2.4 -8.55 -2.9 -7.75 -4.25 -5.5 -4.95 -4.4 -5.7 -2.9 -5.95 -1.95 -4.6 -2.1 -3.15 -2.2 -2.95 -2.25 -2.75 -2.15 Q-2.3 -2.1 -2.3 -1.9 L-2.4 -1.7 -2.3 -1.3 -2.25 -0.05 -2.25 2.45 -2.25 4.0 -2.2 4.3 -1.25 2.4 -0.85 1.75 0.25 -0.1 1.6 -2.7 Q2.05 -2.8 2.35 -3.25 L2.6 -4.1 Q2.75 -4.9 2.1 -4.9 L1.55 -4.55 1.45 -4.55 -0.5 -4.55 -0.6 -4.75 -0.7 -5.0 -0.7 -5.05 -0.7 -5.15 Q-0.7 -5.5 0.1 -6.45 L0.55 -6.95" fill="#2b1100" fill-rule="evenodd" stroke="none"/>
    <path d="M11.3 -18.95 L11.7 -19.3 12.2 -19.6 12.4 -19.65 12.8 -19.65 Q13.65 -19.65 13.55 -19.05 13.55 -18.75 13.05 -18.4 L13.0 -18.35 11.8 -18.05 Q11.15 -18.05 11.15 -18.55 11.15 -18.8 11.3 -18.95 M16.7 -15.3 L16.9 -15.4 17.8 -15.6 Q18.7 -15.6 18.75 -15.05 L18.75 -14.95 18.75 -14.9 18.2 -14.5 17.15 -14.3 17.1 -14.3 16.6 -14.4 16.4 -14.55 16.35 -14.8 Q16.35 -15.1 16.7 -15.3 M-0.15 -16.5 L0.1 -16.95 Q0.5 -17.35 1.3 -17.35 2.2 -17.35 2.2 -16.75 L1.6 -16.15 1.3 -16.0 0.25 -15.85 Q-0.05 -15.85 -0.15 -16.1 L-0.2 -16.35 -0.15 -16.5 M-5.0 -18.7 Q-4.8 -19.45 -3.55 -19.45 -2.55 -19.45 -2.55 -18.85 L-2.8 -18.3 -2.85 -18.25 Q-3.3 -17.9 -4.2 -17.9 -5.05 -17.9 -5.05 -18.4 L-5.0 -18.7 M0.9 -8.85 Q1.35 -9.25 1.8 -9.25 2.25 -9.25 2.25 -8.7 2.25 -8.2 1.6 -7.55 0.95 -6.95 0.55 -6.95 0.1 -6.95 0.05 -7.2 L0.05 -7.5 Q0.05 -7.8 0.55 -8.45 L0.9 -8.85 M1.55 -4.55 L2.1 -4.9 Q2.75 -4.9 2.6 -4.1 L2.35 -3.25 Q2.05 -2.8 1.6 -2.7 L1.45 -2.7 Q0.95 -2.7 0.95 -3.2 0.95 -3.6 1.3 -4.2 L1.55 -4.55" fill="#ffffff" fill-rule="evenodd" stroke="none"/>
    <path d="M5.95 -15.0 L6.25 -16.75 7.15 -17.15 9.55 -18.25 Q10.05 -18.45 10.7 -18.8 L11.3 -18.95 Q11.15 -18.8 11.15 -18.55 11.15 -18.05 11.8 -18.05 L13.0 -18.35 12.9 -18.1 12.7 -16.75 12.6 -16.55 12.7 -16.3 Q12.65 -15.85 12.9 -15.85 L13.1 -15.9 13.5 -15.75 14.75 -15.55 16.7 -15.3 Q16.35 -15.1 16.35 -14.8 L16.4 -14.55 16.6 -14.4 10.9 -12.95 11.1 -15.95 5.95 -15.0 M18.75 -15.05 L19.0 -15.0 18.75 -14.95 18.75 -15.05 M1.3 -16.0 L0.75 -13.55 -5.0 -12.6 -4.05 -15.25 -10.25 -17.65 -10.1 -17.7 -7.45 -18.3 -5.0 -18.7 -5.05 -18.4 Q-5.05 -17.9 -4.2 -17.9 -3.3 -17.9 -2.85 -18.25 L-2.9 -18.0 -3.1 -16.15 -2.95 -15.9 -2.75 -15.8 -2.65 -15.75 -2.55 -15.7 Q-2.25 -15.6 -1.2 -16.05 L-0.15 -16.5 -0.2 -16.35 -0.15 -16.1 Q-0.05 -15.85 0.25 -15.85 L1.3 -16.0 M0.55 -6.95 L0.1 -6.45 Q-0.7 -5.5 -0.7 -5.15 L-0.7 -5.05 -0.7 -5.0 -0.6 -4.75 -0.5 -4.55 1.45 -4.55 1.55 -4.55 1.3 -4.2 Q0.95 -3.6 0.95 -3.2 0.95 -2.7 1.45 -2.7 L1.6 -2.7 0.25 -0.1 -0.85 1.75 -1.05 -2.6 -4.6 -2.8 -1.75 -8.55 -1.55 -8.55 0.9 -8.85 0.55 -8.45 Q0.05 -7.8 0.05 -7.5 L0.05 -7.2 Q0.1 -6.95 0.55 -6.95" fill="#ffcc00" fill-rule="evenodd" stroke="none"/>
    <path d="M19.0 -15.0 L19.05 -15.0 18.75 -14.9 18.75 -14.95 19.0 -15.0 M17.1 -14.3 L17.0 -14.25 14.35 -13.1 11.5 -12.05 10.1 -11.55 9.95 -11.55 9.85 -11.5 9.75 -11.5 9.65 -11.45 9.8 -12.45 10.0 -14.35 9.85 -14.55 9.65 -14.6 9.55 -14.65 9.45 -14.65 Q9.15 -14.7 8.1 -14.0 L6.9 -13.2 5.3 -12.3 5.6 -13.45 5.95 -15.0 11.1 -15.95 10.9 -12.95 16.6 -14.4 17.1 -14.3 M0.75 -13.55 L0.65 -12.95 -0.25 -12.7 -2.65 -12.15 -3.8 -11.85 -5.4 -11.6 -6.4 -11.75 -6.0 -13.0 -5.8 -14.3 -5.7 -14.5 -5.8 -14.75 Q-5.75 -15.2 -6.0 -15.25 L-6.2 -15.25 -6.6 -15.5 -7.85 -15.95 -10.3 -16.75 -11.8 -17.3 -12.15 -17.4 -10.25 -17.65 -4.05 -15.25 -5.0 -12.6 0.75 -13.55 M-0.85 1.75 L-1.25 2.4 -2.2 4.3 -2.25 4.0 -2.25 2.45 -2.25 -0.05 -2.3 -1.3 -2.4 -1.7 -2.3 -1.9 Q-2.3 -2.1 -2.75 -2.15 L-2.95 -2.25 -3.15 -2.2 -4.6 -2.1 -5.95 -1.95 -5.7 -2.9 -4.95 -4.4 -4.25 -5.5 -2.9 -7.75 -2.4 -8.55 -1.75 -8.55 -4.6 -2.8 -1.05 -2.6 -0.85 1.75" fill="#ff6600" fill-rule="evenodd" stroke="none"/>
    <path d="M9.75 -11.5 L9.65 -11.4 9.65 -11.45 9.75 -11.5" fill="url(#gradient2)" fill-rule="evenodd" stroke="none"/>
  </g>
  <defs>
    <linearGradient gradientTransform="matrix(0.0213, 0.0057, -0.0078, 0.0291, 7.5, -8.3)" gradientUnits="userSpaceOnUse" id="gradient0" spreadMethod="pad" x1="-819.2" x2="819.2">
      <stop offset="0.0" stop-color="#be3030"/>
      <stop offset="1.0" stop-color="#cc3333"/>
    </linearGradient>
    <linearGradient gradientTransform="matrix(0.0213, 0.0059, -0.0078, 0.029, 7.55, -8.95)" gradientUnits="userSpaceOnUse" id="gradient1" spreadMethod="pad" x1="-819.2" x2="819.2">
      <stop offset="0.0" stop-color="#be3030"/>
      <stop offset="1.0" stop-color="#cc3333"/>
    </linearGradient>
    <linearGradient gradientTransform="matrix(0.0237, 0.0064, -0.0087, 0.0323, 5.1, -7.1)" gradientUnits="userSpaceOnUse" id="gradient2" spreadMethod="pad" x1="-819.2" x2="819.2">
      <stop offset="0.0" stop-color="#be3030"/>
      <stop offset="1.0" stop-color="#cc3333"/>
    </linearGradient>
  </defs>
</svg>
