<?xml version="1.0" encoding="UTF-8" standalone="no"?>
<svg xmlns:ffdec="https://www.free-decompiler.com/flash" xmlns:xlink="http://www.w3.org/1999/xlink" ffdec:objectType="shape" height="72.65px" width="71.45px" xmlns="http://www.w3.org/2000/svg">
  <g transform="matrix(1.0, 0.0, 0.0, 1.0, 36.75, 37.7)">
    <path d="M7.15 -34.05 L6.8 -34.4 4.45 -35.2 Q3.4 -35.55 3.05 -35.9 L-2.4 -36.8 -8.25 -36.8 Q-16.4 -35.8 -21.5 -32.6 L-22.15 -30.65 -22.8 -28.7 -22.7 -28.7 -22.65 -28.5 Q-22.65 -28.15 -23.05 -28.0 L-23.15 -27.8 -23.4 -27.75 Q-23.6 -27.75 -23.7 -27.9 L-24.15 -27.9 -24.35 -27.15 -25.1 -24.2 -25.95 -20.95 -25.5 -20.55 Q-25.2 -20.5 -25.2 -20.1 L-25.45 -18.5 -25.8 -16.95 -26.3 -8.0 -26.35 -7.25 -26.1 -7.35 -25.65 -7.35 -25.2 -6.95 Q-25.35 -6.6 -26.3 -6.1 L-26.3 -6.0 -25.8 -3.95 Q-25.8 -3.35 -26.4 -3.35 -27.05 -3.35 -27.15 -5.7 L-27.35 -5.65 Q-29.2 -4.8 -30.95 -4.4 L-31.25 -2.15 -31.5 0.65 -30.95 4.9 -30.75 5.0 -28.45 5.3 -27.3 4.95 -27.2 4.95 -26.95 4.5 -26.7 4.05 -26.3 2.1 -26.2 0.8 Q-26.1 0.0 -25.05 0.0 -24.95 0.0 -24.95 0.35 L-25.15 1.8 -24.85 2.6 -24.75 2.6 -24.65 2.95 -24.65 3.2 -24.0 5.5 -24.0 5.95 -24.3 6.0 Q-25.0 6.0 -25.2 5.25 L-25.2 5.3 -25.35 6.7 -25.3 7.35 -25.2 7.5 -25.3 7.6 -24.95 9.45 -25.05 9.75 Q-25.15 9.9 -25.35 9.9 -26.15 9.9 -26.15 7.95 L-27.8 7.8 Q-31.6 7.8 -33.95 9.45 L-35.1 10.55 -35.1 10.7 -35.5 11.3 -35.45 11.4 -35.75 12.8 -35.75 12.9 -35.65 12.95 -35.45 13.3 -35.2 14.05 -34.8 16.05 -34.75 16.6 -33.85 19.55 -33.6 20.25 -33.5 20.5 -33.3 21.15 -33.15 21.5 -33.15 21.65 -33.0 22.25 -33.0 22.65 -32.55 23.1 -32.05 23.2 -31.1 23.55 -27.45 24.15 -25.85 24.15 Q-25.2 23.6 -24.85 23.7 L-23.6 23.7 -22.65 23.25 -22.35 22.5 -21.95 22.4 -21.15 18.95 -20.75 16.7 Q-20.45 15.35 -19.95 14.7 -19.5 15.1 -19.5 15.25 L-19.7 16.3 -19.6 16.45 -19.2 17.0 -16.4 18.8 Q-15.05 19.55 -11.7 20.1 L-11.6 19.7 -9.75 20.15 -3.45 20.85 -3.3 21.0 0.45 21.0 3.85 20.3 Q5.9 19.9 6.3 19.5 L6.65 20.0 Q6.65 20.55 5.15 20.9 L5.7 20.9 5.8 20.95 5.85 21.2 Q5.85 21.85 4.25 22.5 L2.6 22.9 1.5 22.8 Q1.15 22.8 0.8 23.15 L0.05 23.45 -0.2 23.3 Q-0.25 23.15 -0.45 23.15 -0.95 23.15 -2.1 24.3 L-2.1 24.35 -1.65 24.9 -1.05 27.9 -0.5 30.9 Q-0.35 31.4 0.55 32.2 1.35 32.9 1.35 33.35 L1.25 33.55 2.4 33.65 5.2 33.35 6.2 33.05 6.65 31.2 6.95 29.55 7.4 28.65 7.95 27.75 8.05 26.8 Q8.15 26.3 8.85 26.55 L8.95 26.65 9.0 26.85 8.7 29.0 11.4 30.15 14.45 31.05 14.5 31.05 15.05 30.8 15.5 31.0 15.6 31.25 21.55 30.8 24.2 30.35 26.5 29.85 28.2 29.55 28.25 29.85 29.9 28.2 Q30.6 27.1 30.8 25.8 L30.85 25.6 30.6 25.2 30.9 25.1 31.0 24.5 Q31.25 23.7 32.1 23.85 L32.2 23.95 32.25 24.2 32.2 24.75 32.7 24.0 33.05 22.65 Q33.75 20.8 33.75 19.85 L33.5 19.55 33.2 19.45 33.15 19.5 Q32.55 19.15 32.55 18.95 L32.55 18.75 32.7 18.45 33.3 14.9 33.35 11.1 33.5 7.2 33.4 5.0 32.9 5.1 32.4 4.95 32.4 4.5 33.1 3.75 33.3 3.55 33.3 3.4 Q33.3 3.05 33.6 2.8 L33.55 1.65 33.3 0.15 33.3 0.05 33.2 -0.3 32.85 -0.95 32.8 -1.55 32.5 -1.8 33.05 0.15 33.0 0.6 32.7 0.75 31.9 -0.2 31.85 -0.3 31.8 -0.3 Q31.55 -0.3 30.85 -2.8 L30.65 -3.35 30.05 -4.6 29.4 -6.05 29.4 -6.15 27.9 -7.05 26.65 -7.6 24.95 -8.0 22.1 -8.75 22.25 -8.5 21.75 -8.0 20.7 -8.0 18.75 -8.1 18.3 -8.55 17.65 -8.8 17.75 -6.2 17.7 -5.1 17.4 -4.95 Q16.85 -5.1 16.85 -5.75 L16.95 -6.6 Q16.8 -7.25 16.8 -8.15 L16.8 -8.85 16.55 -8.95 16.4 -9.15 16.8 -9.55 16.65 -11.4 16.2 -14.55 15.85 -17.3 15.6 -17.1 15.15 -17.55 15.5 -18.0 15.45 -18.4 15.75 -18.75 15.75 -19.05 16.0 -19.15 16.15 -19.35 Q15.75 -19.8 15.75 -21.05 L15.95 -22.65 Q16.1 -23.15 16.4 -23.05 L16.1 -24.15 15.65 -25.95 14.45 -26.85 13.9 -27.1 14.6 -25.2 14.55 -24.8 14.1 -24.75 Q13.5 -24.75 13.1 -26.15 L12.65 -28.2 11.75 -31.2 11.55 -31.35 11.25 -31.35 8.4 -33.4 8.4 -33.35 8.15 -33.3 7.15 -34.05 M7.5 -35.15 L8.4 -34.8 9.95 -33.8 11.45 -32.8 Q12.4 -32.15 12.45 -31.65 L12.8 -31.05 13.4 -29.0 13.65 -27.9 15.55 -27.4 16.6 -22.65 17.2 -18.85 16.75 -18.3 16.65 -18.15 16.65 -18.05 16.95 -16.35 17.25 -12.95 17.6 -9.9 Q19.5 -10.35 24.05 -9.25 29.8 -7.8 30.5 -6.55 L30.8 -6.3 31.2 -5.3 31.8 -3.45 32.15 -2.7 33.2 -2.45 33.75 -1.5 34.4 0.2 34.7 3.15 34.45 4.25 34.2 4.6 34.35 7.9 34.35 10.25 34.2 13.8 34.0 16.65 33.6 18.45 34.35 18.75 34.55 19.8 33.9 23.1 33.55 24.75 Q33.15 25.7 31.85 25.8 L31.4 27.05 30.35 29.55 Q29.35 30.65 27.3 31.2 L24.05 31.85 23.45 31.95 18.05 31.95 15.95 31.8 15.15 31.8 15.05 31.8 14.9 31.65 14.3 31.6 13.95 31.5 13.65 31.5 13.2 31.4 13.1 31.4 12.8 31.3 12.0 31.25 11.4 31.1 11.05 31.0 10.95 30.95 9.05 30.35 8.55 30.1 Q7.85 33.9 7.2 33.9 L6.3 34.4 Q4.95 34.95 2.9 34.95 1.15 34.95 0.5 34.55 L0.45 34.5 -0.65 34.15 -1.05 33.9 -1.1 33.9 -1.95 33.35 -3.15 29.45 -4.05 25.95 -4.3 24.65 Q-4.05 23.6 -2.3 22.5 L-1.3 21.9 -4.95 21.9 -5.3 21.65 -7.05 21.65 -7.5 21.5 -7.8 21.45 -7.9 21.45 -9.7 21.25 -10.65 21.15 -10.7 21.1 Q-13.5 20.9 -16.8 19.65 -19.2 18.75 -20.1 18.0 L-20.25 18.6 -20.85 21.3 -21.0 21.65 -21.55 23.35 -21.6 23.55 -22.1 23.8 -23.4 24.6 -26.6 25.05 -30.75 24.65 -31.75 24.25 -32.05 24.15 -32.6 24.0 -32.7 24.0 -33.35 23.45 -33.65 23.25 -33.7 23.15 -35.0 19.25 -36.6 12.6 -36.75 11.65 -36.4 10.7 -36.35 10.65 Q-36.0 9.35 -33.55 8.1 -30.3 6.4 -26.1 7.0 L-26.1 6.7 -26.05 5.55 -26.3 5.55 -26.4 5.55 -26.65 5.7 Q-27.25 6.2 -27.95 6.2 L-29.4 6.45 -30.35 6.15 -30.9 6.1 -31.65 5.7 -31.8 5.35 -31.95 5.3 -32.25 0.7 Q-31.9 -2.4 -31.95 -3.95 -32.0 -5.15 -30.2 -5.9 L-27.15 -6.9 -27.15 -8.05 -26.85 -14.5 -26.2 -19.7 Q-26.85 -19.85 -27.0 -20.5 L-27.0 -21.35 -26.7 -23.2 -26.3 -24.95 -25.7 -27.0 -25.1 -27.9 -24.8 -28.4 Q-24.4 -28.8 -23.7 -28.8 L-22.95 -30.9 Q-22.5 -32.95 -21.9 -33.2 -21.75 -33.7 -19.45 -34.7 L-16.55 -35.85 Q-13.9 -36.95 -8.25 -37.7 L-2.4 -37.7 3.15 -36.7 3.85 -36.55 4.65 -36.3 7.15 -35.3 7.5 -35.15 M-31.35 22.95 L-31.8 22.55 Q-31.8 22.2 -31.35 22.2 L-30.95 22.5 -30.95 22.85 -31.35 22.95" fill="#0a0514" fill-rule="evenodd" stroke="none"/>
  </g>
</svg>
