<?xml version="1.0" encoding="UTF-8" standalone="no"?>
<svg xmlns:ffdec="https://www.free-decompiler.com/flash" xmlns:xlink="http://www.w3.org/1999/xlink" ffdec:objectType="shape" height="13.6px" width="19.9px" xmlns="http://www.w3.org/2000/svg">
  <g transform="matrix(1.0, 0.0, 0.0, 1.0, 19.0, -22.25)">
    <path d="M0.65 28.8 Q-0.05 28.05 -0.4 26.15 L-1.0 23.9 -5.35 23.9 -5.55 23.75 -6.7 23.75 -6.7 24.05 Q-6.7 29.05 -7.8 31.05 -10.15 35.45 -18.1 35.85 L-18.7 35.85 -19.0 35.45 -13.35 34.45 -12.1 34.0 -10.75 33.35 Q-8.5 31.85 -7.95 30.05 -7.45 28.6 -7.4 26.65 L-7.35 23.65 -7.55 23.35 -7.35 23.25 -7.35 22.25 Q-6.65 22.25 -6.7 22.8 L-6.4 22.6 -5.3 23.3 -0.95 23.25 -0.8 23.05 -0.7 23.25 -0.55 23.25 0.55 23.15 0.55 23.05 0.8 23.05 0.9 23.35 0.85 23.55 0.25 23.7 -0.45 23.9 0.9 28.6 0.65 28.8" fill="#000000" fill-rule="evenodd" stroke="none"/>
  </g>
</svg>
