<?xml version="1.0" encoding="UTF-8" standalone="no"?>
<svg xmlns:ffdec="https://www.free-decompiler.com/flash" xmlns:xlink="http://www.w3.org/1999/xlink" ffdec:objectType="shape" height="79.5px" width="84.1px" xmlns="http://www.w3.org/2000/svg">
  <g transform="matrix(1.0, 0.0, 0.0, 1.0, 36.4, 41.8)">
    <path d="M20.35 -26.65 Q19.9 -27.0 19.9 -27.85 L19.9 -28.15 18.55 -27.7 18.25 -27.8 Q18.1 -27.9 18.1 -28.25 18.1 -28.9 19.95 -29.3 L19.9 -31.8 19.7 -34.35 17.85 -35.15 Q16.65 -35.65 16.65 -36.1 16.65 -36.8 18.35 -36.25 20.0 -35.75 20.5 -35.0 20.6 -33.0 20.8 -31.95 L20.8 -29.45 21.45 -29.55 Q25.25 -30.0 28.65 -28.65 29.35 -28.15 31.0 -27.3 32.4 -26.45 32.9 -25.65 L33.4 -24.8 33.8 -24.4 34.65 -22.75 35.2 -21.8 35.45 -20.75 35.45 -19.8 35.55 -19.35 35.55 -18.65 Q35.55 -15.95 35.05 -13.75 L34.15 -11.15 33.25 -9.45 33.55 -9.3 Q35.05 -8.4 35.05 -7.75 L34.8 -6.95 36.35 -6.3 Q36.8 -5.8 36.8 -4.55 L36.7 -3.05 36.75 -3.05 Q41.95 -3.05 45.0 -0.2 47.7 2.35 47.7 5.95 L47.65 6.7 47.7 7.0 47.3 9.0 Q47.25 9.9 46.45 11.35 L46.05 12.05 44.6 14.65 42.85 16.6 Q42.85 20.0 42.3 24.3 L41.35 29.1 41.25 29.45 40.3 31.25 39.55 32.65 39.45 32.7 Q38.65 33.7 36.95 34.65 32.55 37.15 24.45 37.15 15.9 37.15 11.95 35.55 10.7 35.4 9.5 34.55 8.4 34.15 7.15 32.35 6.05 30.8 5.85 29.95 L5.75 29.7 5.75 29.55 5.3 27.7 5.15 27.3 5.2 26.95 Q4.85 25.4 4.8 23.95 L-0.1 23.95 -1.85 23.8 -1.85 23.85 -2.05 25.55 Q-2.1 27.25 -2.3 28.4 -2.65 30.1 -3.75 32.35 -4.55 34.05 -7.1 35.4 -11.3 37.7 -18.5 37.7 -23.9 37.7 -28.2 36.45 -32.8 35.1 -34.0 32.8 L-34.1 32.7 -34.5 32.3 -34.65 32.0 -34.75 31.8 Q-35.8 31.25 -36.2 26.85 L-36.4 21.75 -36.3 19.45 -36.3 19.3 -36.3 19.2 -36.35 16.2 Q-36.3 14.45 -35.9 12.95 -35.5 11.2 -33.9 9.75 L-31.95 8.65 Q-31.15 8.15 -31.0 7.35 L-31.6 6.7 Q-32.5 5.45 -32.55 3.95 L-32.85 0.1 -32.75 -1.7 Q-32.4 -2.7 -30.9 -3.3 L-30.75 -3.3 -30.75 -3.8 Q-30.75 -5.0 -28.5 -5.65 L-24.6 -6.35 -24.1 -6.5 -21.8 -6.95 Q-21.45 -9.3 -21.45 -9.95 L-20.85 -12.7 Q-20.45 -14.25 -19.35 -15.45 L-16.1 -17.6 Q-13.9 -18.7 -13.1 -19.95 -12.8 -20.4 -12.85 -21.3 L-12.85 -21.7 Q-13.0 -22.3 -13.5 -22.65 L-14.4 -23.25 -15.0 -23.85 -15.45 -25.2 Q-16.05 -28.5 -16.05 -30.95 L-15.95 -32.4 -15.85 -32.65 -15.95 -33.15 Q-15.95 -34.5 -15.25 -35.1 -14.55 -35.75 -12.95 -36.0 L-12.8 -36.45 -13.1 -37.6 -13.1 -37.65 -13.1 -37.7 -12.95 -38.0 -12.1 -38.65 Q-11.3 -39.4 -7.65 -40.4 L-6.4 -40.7 -2.5 -41.45 -1.6 -41.55 0.95 -41.75 1.95 -41.75 1.95 -41.8 2.25 -41.75 6.3 -41.7 8.65 -41.3 8.95 -41.3 8.95 -41.35 Q16.85 -40.0 17.55 -38.05 L17.5 -37.8 17.2 -37.7 17.15 -37.65 16.7 -37.5 Q14.9 -38.5 10.75 -39.6 6.85 -40.65 4.35 -40.75 L4.35 -40.7 4.35 -40.5 3.95 -40.35 3.0 -40.55 2.05 -40.75 -4.6 -40.05 -8.0 -38.95 -10.05 -38.3 -11.7 -37.4 Q-10.85 -36.35 -10.95 -34.9 L-11.0 -34.75 -11.4 -34.65 -11.7 -34.85 -11.8 -34.85 -12.15 -35.25 -12.3 -35.2 Q-12.6 -35.0 -13.25 -34.8 -14.6 -34.4 -14.75 -33.3 L-14.85 -33.25 -15.0 -32.55 -14.85 -31.95 -14.5 -30.7 -14.55 -30.45 -14.95 -30.35 -15.3 -30.6 -15.0 -27.3 -14.7 -25.5 Q-14.45 -24.4 -14.0 -23.7 L-12.75 -23.1 Q-12.3 -23.8 -12.2 -22.25 L-12.15 -21.0 -12.2 -19.8 -12.3 -19.75 -12.45 -19.35 Q-13.05 -18.45 -15.6 -17.25 -17.0 -16.6 -18.2 -15.45 -19.45 -14.25 -19.85 -13.1 -20.7 -10.95 -20.85 -8.45 L-21.05 -7.05 -20.3 -7.15 -20.0 -6.85 -20.05 -6.7 -19.75 -6.55 -19.65 -6.15 -19.65 -6.1 -19.05 -6.15 -18.75 -6.05 -18.6 -5.7 Q-18.6 -5.4 -18.75 -5.3 L-19.05 -5.25 -21.35 -5.1 -21.5 -3.9 -21.9 -3.75 -22.2 -4.4 -22.1 -5.0 -24.45 -4.5 -27.45 -3.6 Q-28.6 -3.35 -28.75 -2.85 L-28.2 -2.6 Q-28.35 -2.25 -28.75 -2.05 -28.7 -1.2 -28.8 -1.05 L-29.2 -0.95 -29.55 -1.5 -30.15 -1.3 Q-30.9 -1.1 -31.1 -0.7 L-31.25 0.8 -30.9 3.85 Q-30.8 4.85 -29.75 5.3 -28.6 5.75 -28.4 6.25 L-28.5 6.6 -28.95 6.7 -29.05 6.95 -29.15 7.0 -29.05 8.25 Q-29.05 9.0 -30.65 10.2 -32.2 11.35 -33.3 11.5 L-33.65 11.45 -33.75 11.45 -33.75 11.55 -34.25 13.05 Q-34.7 14.35 -34.75 15.25 L-34.8 16.85 -34.95 19.75 -34.7 25.8 -34.7 25.85 -34.8 25.9 -34.65 28.45 Q-34.6 29.5 -34.15 30.5 L-34.0 30.25 -33.2 31.0 Q-32.65 31.7 -32.65 32.0 L-32.75 32.5 -30.55 34.4 -30.6 34.55 -27.45 35.6 Q-23.35 36.7 -18.4 36.7 -11.1 36.7 -7.3 34.45 -5.15 33.2 -4.55 31.65 L-4.35 31.2 -4.55 31.1 -4.65 30.65 Q-4.65 29.85 -4.1 28.35 L-3.6 26.85 -3.4 24.55 -3.3 22.8 -3.1 22.7 -3.75 21.55 Q-2.5 21.0 -2.15 22.55 L-2.15 22.6 -2.0 22.75 -0.1 23.0 5.35 23.0 Q5.6 22.8 6.25 23.0 L7.05 23.0 Q7.4 22.85 7.85 23.0 L7.95 23.35 7.85 23.9 7.5 23.95 6.15 23.95 6.2 24.35 6.25 24.3 Q6.75 24.45 6.7 24.9 L6.9 25.0 7.05 25.45 6.7 27.15 6.7 27.5 7.4 29.6 8.2 31.35 9.2 32.55 9.45 32.5 10.65 33.55 10.95 33.8 11.25 33.9 12.3 33.75 12.6 33.8 12.75 34.15 12.75 34.25 16.75 34.1 Q17.3 34.1 17.15 34.9 L18.0 35.0 18.45 35.35 18.3 35.75 18.15 35.9 24.45 36.2 Q30.5 36.2 33.75 35.15 38.0 33.8 39.75 30.2 L40.05 30.45 40.2 29.75 Q40.15 29.35 40.45 28.45 L40.5 28.35 40.3 28.3 40.25 27.8 40.7 26.5 40.85 26.2 41.15 22.15 41.5 17.05 41.5 16.9 41.25 16.45 41.4 16.3 41.35 15.7 Q41.35 14.9 42.1 15.1 L43.4 13.6 44.75 12.2 45.2 11.25 45.8 9.8 Q46.55 7.25 46.6 5.85 L46.6 5.75 Q46.6 5.0 45.85 3.55 L44.45 1.45 42.15 -0.35 40.7 -1.15 35.05 -1.05 35.05 -1.0 34.7 -0.95 34.35 -1.0 34.2 -1.05 34.2 -1.35 Q34.2 -1.9 34.85 -2.0 L35.05 -2.05 35.05 -2.3 Q35.05 -2.8 35.85 -2.95 L35.85 -3.5 Q36.0 -5.05 35.55 -5.7 L34.4 -5.95 34.0 -5.1 33.75 -5.05 Q33.3 -5.15 33.3 -5.7 L33.5 -6.45 33.4 -6.7 33.45 -7.15 33.75 -7.1 33.9 -7.65 Q33.9 -8.1 33.0 -8.5 32.05 -8.85 32.05 -9.35 L32.25 -9.7 33.05 -11.45 Q34.0 -13.1 34.2 -14.2 L34.65 -18.55 34.45 -20.25 34.2 -20.2 Q33.75 -20.65 33.75 -21.4 L33.7 -22.5 33.3 -23.2 32.2 -24.8 32.2 -24.9 Q29.25 -28.7 23.8 -28.7 L20.8 -28.4 20.8 -26.85 20.35 -26.65" fill="#000000" fill-rule="evenodd" stroke="none"/>
  </g>
</svg>
