<?xml version="1.0" encoding="UTF-8" standalone="no"?>
<svg xmlns:ffdec="https://www.free-decompiler.com/flash" xmlns:xlink="http://www.w3.org/1999/xlink" ffdec:objectType="shape" height="63.3px" width="61.9px" xmlns="http://www.w3.org/2000/svg">
  <g transform="matrix(1.0, 0.0, 0.0, 1.0, 31.4, 31.15)">
    <path d="M3.3 -25.75 Q4.45 -25.8 5.55 -25.05 L5.6 -25.05 6.2 -24.55 6.25 -24.5 6.4 -24.2 6.95 -23.5 6.95 -23.45 6.9 -23.4 7.1 -23.0 7.3 -22.8 Q7.5 -22.55 7.9 -22.35 L8.0 -22.3 Q8.85 -21.8 9.9 -21.6 L11.05 -21.55 Q12.65 -21.55 14.35 -22.45 L14.8 -22.65 14.85 -22.7 15.0 -22.85 Q15.75 -23.85 15.75 -24.9 L15.5 -26.25 15.45 -26.35 15.45 -26.5 15.3 -26.8 14.5 -27.85 14.35 -27.85 14.15 -27.8 Q13.45 -27.75 12.7 -27.2 11.85 -26.55 11.85 -26.2 L11.85 -26.1 12.35 -26.45 13.45 -26.85 13.95 -26.95 14.05 -26.95 14.1 -26.95 14.35 -26.9 14.35 -26.55 Q14.1 -25.7 13.35 -24.9 L13.05 -24.65 Q12.1 -23.8 11.15 -23.8 9.95 -23.8 9.25 -24.75 L8.85 -25.5 Q8.6 -26.0 8.6 -26.6 L8.7 -27.15 8.9 -27.9 Q9.2 -29.4 10.85 -30.4 L11.65 -30.75 Q12.55 -31.15 13.65 -31.15 L14.7 -31.05 15.0 -31.0 Q15.95 -30.8 16.75 -30.2 18.1 -29.3 18.9 -27.35 19.9 -25.1 19.9 -22.9 L19.9 -22.8 19.7 -21.3 19.35 -19.5 Q19.2 -18.75 17.75 -17.45 L16.75 -16.6 16.55 -16.45 Q12.95 -16.9 10.4 -16.5 L9.65 -16.4 9.45 -16.35 Q7.45 -15.95 6.2 -14.95 L5.9 -14.7 5.8 -14.6 Q4.75 -12.75 4.45 -11.5 4.3 -10.65 4.3 -8.8 L4.35 -7.8 Q4.45 -6.2 5.1 -4.6 L6.05 -2.55 6.2 -2.35 6.35 -2.05 6.4 -2.05 6.55 -1.8 6.6 -1.7 7.6 0.15 Q9.95 4.2 13.4 4.2 L14.4 4.2 14.85 4.15 14.9 4.2 15.4 4.25 Q17.05 4.25 18.4 2.9 L18.85 2.4 19.25 1.75 19.45 1.4 20.45 -0.75 Q21.3 -3.25 23.0 -4.9 L23.25 -5.0 23.25 -4.9 Q23.35 -4.9 23.45 -5.0 L23.7 -5.0 23.75 -5.05 24.35 -5.2 25.75 -5.4 27.0 -5.25 Q28.95 -4.75 29.9 -2.7 L29.9 -2.65 Q30.5 -1.25 30.5 0.35 L30.3 1.75 30.1 2.85 29.75 3.65 Q29.1 4.8 28.0 5.1 L27.85 5.15 27.05 5.25 27.0 5.25 26.35 5.15 25.5 4.65 25.45 4.6 Q25.1 4.15 25.05 3.55 L25.0 3.2 25.0 3.15 Q25.05 1.2 27.0 0.45 L26.5 1.2 Q26.05 1.8 26.05 2.2 L26.15 2.8 Q26.3 3.55 27.0 3.55 L27.1 3.55 27.1 3.5 27.4 3.5 28.15 3.1 28.55 2.45 28.9 1.3 28.7 -0.1 Q28.15 -1.15 27.0 -1.3 L26.5 -1.35 Q24.4 -1.35 23.05 1.1 L22.85 1.55 Q22.25 3.0 22.1 4.6 L22.1 4.7 21.75 5.6 Q21.35 6.65 21.2 8.35 L21.2 8.4 20.85 10.1 20.7 11.4 20.0 12.4 18.7 13.9 18.05 14.6 17.9 14.7 17.75 14.75 16.35 14.3 16.35 14.25 17.4 13.85 17.45 12.95 Q17.45 10.85 15.9 10.85 L14.8 10.95 14.1 10.85 13.9 10.95 13.05 10.9 10.3 10.85 Q7.7 10.5 6.2 9.75 L5.55 9.35 3.6 7.0 1.35 4.15 0.45 3.15 Q1.1 2.75 1.8 2.3 L1.85 2.3 3.2 1.35 4.15 0.65 4.2 0.5 4.5 -1.15 4.4 -2.35 4.4 -2.4 Q3.95 -4.1 2.5 -5.6 L2.2 -5.85 2.1 -5.95 1.2 -6.25 0.4 -6.1 0.4 -6.05 -0.95 -5.35 -1.15 -5.25 -1.85 -4.9 -2.15 -6.0 Q-2.65 -8.3 -2.65 -9.95 L-2.5 -11.45 -2.25 -12.55 -2.15 -13.05 -1.25 -15.75 Q-0.55 -17.05 1.5 -19.4 L2.15 -20.1 2.45 -20.5 2.5 -20.5 Q3.45 -21.65 3.45 -22.5 3.45 -24.4 2.45 -25.75 L3.3 -25.75 M14.4 -15.65 L15.65 -15.65 15.95 -15.6 18.05 -15.7 18.1 -15.7 18.15 -15.65 18.6 -15.3 18.7 -15.3 18.95 -15.2 19.0 -15.2 18.95 -15.1 18.1 -14.2 16.85 -13.1 16.6 -12.9 16.05 -12.35 11.75 -15.6 14.4 -15.65 M20.0 -14.6 L20.1 -14.6 27.35 -15.5 24.2 -10.55 24.2 -10.5 24.0 -10.2 23.8 -10.15 19.5 -9.0 18.1 -8.55 17.5 -8.3 16.85 -7.95 16.55 -8.55 15.75 -9.75 15.45 -10.15 15.4 -10.25 17.0 -11.65 20.0 -14.6 M1.3 -4.9 L2.2 -3.95 Q3.4 -2.4 3.4 -1.05 L3.35 -0.5 3.3 -0.5 2.35 0.25 1.8 0.6 1.15 1.0 -1.25 2.45 -1.45 2.55 -1.9 2.85 -3.7 3.95 -3.7 3.7 -3.7 3.55 -3.7 3.1 Q-3.7 1.8 -5.0 0.25 L-5.15 0.15 -5.3 -0.1 -6.0 -0.55 -4.2 -1.6 -2.0 -3.05 -1.65 -3.25 -0.75 -3.75 -0.25 -3.95 0.2 -4.2 1.3 -4.9 M16.55 -7.05 L16.55 -6.95 16.5 -6.95 16.55 -7.05 M19.0 -7.7 L19.1 -7.8 22.8 -8.8 22.8 -8.7 23.3 -8.9 23.4 -8.95 23.4 -8.9 23.6 -6.75 23.6 -6.55 23.35 -6.15 23.0 -5.95 23.0 -5.85 22.7 -5.6 21.9 -4.85 Q20.45 -3.45 19.75 -1.25 L19.35 -0.15 19.0 -7.7 M12.65 -3.6 L12.6 -3.65 12.65 -3.65 12.65 -3.6 M2.65 17.35 Q1.7 17.7 -0.35 19.05 L-2.6 20.5 Q-3.1 19.4 -4.5 17.7 L-5.8 16.35 Q-5.15 15.85 -4.75 15.0 -4.2 13.95 -4.2 13.1 -4.2 10.1 -7.45 10.5 -10.7 10.9 -10.7 13.85 -10.7 14.65 -10.1 15.4 -9.4 16.4 -8.1 16.6 L-8.55 17.75 -8.85 19.05 -13.0 16.15 -13.3 22.2 -13.45 22.1 -16.3 21.1 -16.4 21.1 -16.4 20.8 Q-16.4 18.25 -19.35 17.75 -22.35 17.25 -22.35 21.1 -22.35 23.2 -20.4 23.6 L-19.2 23.9 -18.55 23.8 -15.35 27.7 -19.9 31.8 -20.05 31.8 -22.5 32.0 -22.65 32.05 -22.95 32.15 -23.25 32.05 -27.05 20.1 -26.0 19.4 -25.85 19.2 -25.75 19.2 -25.75 19.15 -25.55 18.95 -25.2 18.7 -24.55 18.6 -23.25 17.65 -22.75 17.2 -21.2 16.25 -20.85 16.0 -11.2 9.85 -6.95 7.4 -6.85 7.4 -6.7 7.3 -6.35 7.25 -5.95 7.7 -5.9 7.75 -5.8 7.9 -4.95 8.7 -4.7 8.85 -4.05 9.7 -4.0 9.75 -1.65 12.55 0.85 15.65 2.65 17.35 M-8.2 5.15 L-8.4 6.1 -8.5 6.5 -8.55 6.55 -12.2 8.7 -21.25 14.05 -21.75 14.35 -21.8 14.35 -21.75 13.95 Q-21.75 12.55 -22.65 11.3 L-23.25 10.65 Q-23.95 10.15 -24.75 10.15 L-25.2 10.2 -25.1 10.1 -24.95 10.05 -24.8 9.95 -19.45 7.15 -15.15 4.6 -12.4 3.1 -11.9 2.8 -11.8 2.85 -11.65 2.85 Q-9.8 2.55 -8.9 3.5 -8.2 4.2 -8.2 5.15 M-31.4 16.2 L-31.3 15.5 -31.1 15.15 -30.75 14.95 -30.4 14.55 -30.3 14.5 -30.0 14.3 -29.75 14.25 -29.75 14.2 -29.0 13.75 -28.95 13.65 -28.95 13.6 -28.1 13.55 -26.3 13.9 -25.95 14.2 Q-25.5 14.7 -25.5 15.35 -25.5 16.1 -25.95 17.0 L-26.0 17.1 -26.2 17.25 -26.4 17.6 -26.45 17.6 -26.7 17.9 -27.05 18.3 -27.4 18.6 -28.55 18.85 Q-30.3 18.85 -31.0 17.7 -31.4 17.0 -31.4 16.2" fill="#00ff00" fill-rule="evenodd" stroke="none"/>
  </g>
</svg>
