<?xml version="1.0" encoding="UTF-8" standalone="no"?>
<svg xmlns:ffdec="https://www.free-decompiler.com/flash" xmlns:xlink="http://www.w3.org/1999/xlink" ffdec:objectType="shape" height="63.3px" width="77.35px" xmlns="http://www.w3.org/2000/svg">
  <g transform="matrix(1.0, 0.0, 0.0, 1.0, 38.65, 31.15)">
    <path d="M7.65 -23.3 L7.65 -23.35 14.25 -27.05 17.05 -28.6 18.15 -28.5 19.3 -28.45 22.65 -28.35 24.0 -28.25 26.85 -23.4 28.65 -20.4 33.4 -11.35 33.65 -10.95 34.15 -9.8 34.1 -9.8 34.1 -9.75 Q34.1 -9.35 34.65 -8.6 L35.1 -8.1 35.55 -7.25 34.85 -4.95 34.2 -1.1 34.1 -0.9 34.05 -0.95 34.05 -0.75 31.1 1.0 26.85 3.5 26.6 3.65 25.95 3.9 25.35 4.2 16.1 2.05 16.05 2.05 5.85 -17.3 7.65 -23.3 M25.0 0.5 L25.55 0.6 25.75 0.35 26.3 0.0 28.1 -1.25 28.8 -1.55 28.95 -1.65 30.05 -2.4 30.9 -2.9 32.35 -7.8 32.4 -7.9 30.75 -10.7 28.05 -15.95 27.95 -16.1 27.6 -16.7 27.5 -17.0 27.3 -17.25 27.2 -17.45 25.3 -20.95 23.4 -24.7 20.15 -25.2 19.0 -25.45 17.55 -24.4 15.05 -22.85 12.1 -20.9 11.75 -20.65 11.75 -20.6 11.15 -20.25 10.7 -16.5 19.4 -0.5 24.5 0.9 24.75 0.65 25.0 0.5 M3.85 -6.25 L6.4 -7.5 7.0 -7.4 7.8 -7.0 7.85 -6.95 8.05 -6.8 8.35 -6.25 Q8.8 -5.5 8.7 -4.85 L8.35 -3.75 8.25 -3.5 8.15 -3.3 1.0 0.0 1.0 0.1 -7.8 4.25 Q-14.1 7.2 -17.4 9.4 L-18.7 10.3 Q-18.55 9.5 -19.35 7.8 -20.0 6.3 -20.9 5.9 L-5.7 -1.6 Q-5.0 -1.7 -0.95 -3.9 L-0.25 -4.3 3.85 -6.25 M7.2 -6.35 L7.2 -6.45 Q7.3 -6.9 6.8 -6.9 L-0.25 -3.65 -4.1 -1.65 -3.95 -1.65 -6.6 -0.2 Q-10.6 1.7 -13.5 3.15 L-17.15 5.05 -19.05 6.35 Q-19.1 6.8 -18.6 6.85 L-12.2 3.65 -5.35 0.25 -1.85 -1.65 -2.0 -1.65 0.85 -3.15 1.2 -3.3 1.6 -3.5 4.5 -4.75 4.55 -4.75 Q6.95 -6.0 7.2 -6.35 M-3.4 4.7 L-3.3 4.65 -0.1 14.5 0.8 14.4 0.9 14.4 0.85 14.7 0.75 14.95 Q0.75 15.45 1.1 16.3 1.6 17.35 2.25 17.4 L3.05 17.15 2.95 17.5 2.9 17.65 2.5 18.05 1.5 18.35 Q0.55 18.35 -0.05 17.45 L-1.15 15.0 -1.15 15.1 -7.35 10.35 -8.35 10.6 -8.6 19.4 -8.2 19.35 -8.1 19.35 -8.05 19.4 -7.7 19.55 -7.75 20.05 -7.6 21.4 Q-7.3 22.45 -6.55 22.5 L-6.3 22.4 -6.55 22.9 -6.7 23.1 -7.0 23.4 Q-7.65 23.3 -8.4 22.8 -9.8 21.95 -9.8 20.25 L-9.7 19.65 -9.45 19.35 -15.55 15.2 -16.75 15.8 -16.9 15.7 -17.9 24.3 -17.6 24.35 Q-18.0 24.5 -18.05 25.35 L-17.85 26.3 Q-17.5 27.25 -16.55 27.3 L-16.15 27.25 -16.4 27.65 -17.25 28.4 Q-18.25 28.25 -18.85 27.6 -19.4 26.85 -19.3 25.8 L-19.05 24.7 Q-19.0 24.15 -20.0 22.1 L-20.75 20.4 -22.1 17.45 -20.7 16.7 -20.65 16.7 -20.3 16.45 -20.25 16.45 -20.15 16.3 -19.3 15.7 -18.5 14.85 -18.65 14.3 -18.9 13.5 -19.1 13.25 -19.0 13.15 -18.8 12.95 -17.65 12.3 -17.6 12.3 -7.55 6.65 -3.4 4.7 M-1.95 9.6 L-2.0 9.65 -1.95 9.65 -1.95 9.6 M-6.35 20.7 L-6.15 21.1 -6.3 21.15 -6.35 20.7" fill="#c1dfff" fill-rule="evenodd" stroke="none"/>
    <path d="M34.2 -1.1 L34.85 -4.95 35.55 -7.25 35.1 -8.1 34.65 -8.6 Q34.1 -9.35 34.1 -9.75 L34.1 -9.8 34.15 -9.8 33.65 -10.95 33.4 -11.35 28.65 -20.4 26.85 -23.4 24.0 -28.25 22.65 -28.35 19.3 -28.45 18.15 -28.5 17.05 -28.6 14.25 -27.05 7.65 -23.35 7.65 -23.3 6.05 -22.4 6.05 -22.45 1.0 -19.55 -0.5 -14.7 -0.45 -14.7 -0.65 -14.0 -0.25 -13.2 -0.4 -13.15 -0.25 -12.85 -0.2 -12.75 0.25 -12.1 1.2 -10.45 2.15 -8.8 2.75 -8.05 3.15 -7.55 3.25 -7.6 3.85 -6.25 -0.25 -4.3 -0.95 -3.9 Q-5.0 -1.7 -5.7 -1.6 L-20.9 5.9 -22.75 6.85 -22.75 7.0 -23.4 7.35 -25.3 4.45 -26.6 5.2 -26.65 5.2 -27.45 5.65 -27.5 5.6 -32.35 8.25 -35.0 9.75 -35.05 9.9 -34.0 11.65 -32.05 14.7 -28.85 19.85 -27.4 18.95 -26.85 18.65 -24.4 17.35 -23.85 18.4 -23.95 18.45 -23.85 18.45 -22.5 21.25 -21.85 22.65 -20.8 24.65 -20.55 25.4 -20.3 25.8 -20.35 25.85 -20.65 26.75 -20.35 27.75 Q-19.85 28.65 -18.75 28.7 L-17.6 28.5 -17.25 28.4 -16.4 27.65 -16.15 27.25 Q-15.6 27.1 -15.55 26.3 -15.45 25.2 -16.7 24.5 -17.3 24.15 -17.6 24.35 L-17.9 24.3 -16.9 15.7 -16.75 15.8 -10.0 19.9 -10.2 20.1 -10.4 20.55 -10.55 21.35 -10.55 21.55 Q-10.55 22.45 -10.2 23.0 L-10.1 23.2 -10.0 23.35 -9.45 23.5 -8.45 23.75 -7.65 23.7 -7.0 23.4 -6.7 23.1 -6.55 22.9 -6.3 22.4 -5.75 21.95 -5.45 21.15 Q-5.35 19.8 -6.5 19.15 -7.45 18.6 -7.7 19.55 L-8.05 19.4 -8.1 19.35 -8.2 19.35 -8.6 19.4 -8.35 10.6 -1.35 15.7 -1.45 16.25 -1.45 16.4 -1.4 16.85 -1.1 17.65 Q-0.95 18.25 -0.2 18.6 L0.85 18.85 Q1.9 18.9 2.5 18.3 L2.9 17.65 2.95 17.5 3.05 17.15 3.2 16.9 3.5 16.2 Q3.55 15.5 2.85 14.85 L2.2 14.35 0.9 14.4 0.8 14.4 -0.1 14.5 -3.3 4.65 -3.4 4.7 -3.65 3.7 -3.6 3.7 -3.15 3.35 5.45 -1.0 5.9 -1.2 6.3 -0.45 6.2 -0.4 9.05 5.05 9.05 5.1 9.1 5.15 9.1 5.1 9.65 5.55 11.15 5.85 17.6 8.05 18.25 7.75 18.75 7.5 20.8 6.4 22.7 5.55 23.7 5.05 Q23.7 4.95 24.15 4.85 L24.1 4.85 25.35 4.2 25.95 3.9 26.6 3.65 26.85 3.5 31.1 1.0 34.05 -0.75 34.05 -0.95 34.1 -0.9 34.15 -0.9 34.2 -1.1 M25.9 -30.6 L38.7 -8.3 37.7 0.6 19.2 11.45 6.15 7.35 3.85 3.25 0.45 4.9 1.7 11.65 1.85 11.75 1.9 11.75 Q2.6 11.85 3.25 12.25 4.15 12.8 4.6 13.65 L5.35 15.1 Q5.7 15.85 5.7 16.65 5.7 18.6 3.75 20.2 1.9 21.7 -0.2 21.7 -1.5 21.7 -2.45 20.7 -3.75 19.35 -3.75 16.8 L-3.75 16.7 -6.25 15.2 -6.3 17.2 Q-4.85 17.6 -4.15 18.55 -3.5 19.45 -3.5 21.15 -3.5 23.15 -4.85 24.7 -6.35 26.4 -8.7 26.4 -10.4 26.4 -11.6 25.3 -13.1 23.9 -13.1 21.25 L-13.05 20.75 -14.95 19.8 -15.7 22.7 Q-12.9 24.2 -12.9 27.15 -12.9 28.9 -14.2 30.35 -15.8 32.15 -18.55 32.15 -20.3 32.15 -21.6 30.5 -22.65 29.1 -22.75 27.7 L-22.75 27.45 -22.65 26.65 -25.35 21.3 -29.6 23.3 -38.65 8.75 -24.4 1.0 -22.55 3.55 -1.25 -7.4 -3.95 -12.55 -2.4 -20.9 16.95 -31.15 25.9 -30.6 M-25.65 2.9 L-25.6 2.95 -25.6 2.85 -25.65 2.9" fill="#000000" fill-rule="evenodd" stroke="none"/>
    <path d="M11.75 -20.6 L11.75 -20.65 12.1 -20.9 15.05 -22.85 17.55 -24.4 19.0 -25.45 20.15 -25.2 23.4 -24.7 25.3 -20.95 27.2 -17.45 27.3 -17.25 27.5 -17.0 27.6 -16.7 27.95 -16.1 28.05 -15.95 30.75 -10.7 32.4 -7.9 32.35 -7.8 30.9 -2.9 30.05 -2.4 28.95 -1.65 28.8 -1.55 28.1 -1.25 26.3 0.0 25.75 0.35 25.55 0.6 25.0 0.5 23.6 0.25 21.85 -0.5 19.9 -1.2 19.45 -1.3 19.3 -1.65 18.3 -3.4 Q15.8 -7.8 15.4 -8.85 L11.3 -17.0 11.2 -17.05 11.2 -17.85 11.75 -20.6 M16.35 -10.4 L17.25 -10.0 18.4 -9.4 19.4 -8.75 20.45 -11.8 20.95 -13.3 21.5 -14.25 Q22.55 -14.1 24.7 -12.7 L25.35 -12.4 25.65 -13.7 26.05 -15.05 26.45 -16.45 26.75 -16.9 22.9 -23.85 18.9 -24.1 12.7 -20.2 12.3 -17.0 15.65 -10.65 16.35 -10.4 M-22.5 21.25 L-23.85 18.45 -22.85 20.35 -22.8 20.4 -22.8 20.45 -22.5 21.25 M-23.85 18.4 L-24.4 17.35 -21.45 15.75 -21.05 15.6 -19.45 14.7 -19.25 14.6 -19.9 13.45 -20.15 13.0 -21.0 11.35 -22.4 8.85 -23.4 7.35 -22.75 7.0 -22.65 7.25 -22.15 8.05 -21.9 8.55 -21.45 9.15 -19.8 11.75 -19.8 11.8 -19.75 11.8 -19.0 13.15 -19.1 13.25 -18.9 13.5 -18.65 14.3 -18.5 14.85 -19.3 15.7 -20.15 16.3 -20.25 16.45 -20.3 16.45 -20.65 16.7 -20.7 16.7 -22.1 17.45 Q-22.85 17.8 -23.65 18.25 L-23.85 18.4 M17.5 -8.3 L17.25 -8.45 16.85 -8.6 16.6 -8.7 20.05 -2.05 25.0 -0.45 29.95 -3.8 31.55 -8.15 27.7 -15.1 27.3 -14.05 27.1 -13.6 Q26.4 -11.15 26.1 -11.15 L26.0 -11.15 25.75 -11.15 Q25.35 -11.15 24.3 -11.75 L23.05 -12.45 21.95 -12.9 20.7 -8.45 20.35 -7.6 19.9 -7.15 19.75 -7.15 Q19.45 -7.2 18.5 -7.75 L18.3 -7.8 17.5 -8.3 M-26.7 10.15 L-26.9 10.15 -27.6 10.1 -29.0 10.95 -29.0 11.05 -29.2 12.7 -28.55 13.75 -27.9 14.85 -27.2 14.9 -26.85 14.95 -25.95 14.45 -25.2 14.1 -25.1 13.1 -24.9 12.55 -26.4 10.2 -26.7 10.15 M-26.6 8.0 L-23.05 14.05 -25.0 15.05 Q-27.2 16.1 -27.95 16.75 L-31.5 10.7 Q-30.15 10.15 -26.6 8.0" fill="#57355b" fill-rule="evenodd" stroke="none"/>
    <path d="M16.35 -10.4 Q15.3 -12.2 15.0 -13.05 14.5 -14.7 14.7 -16.55 15.0 -18.9 16.3 -20.1 17.45 -21.25 19.25 -21.15 L21.45 -20.65 Q23.0 -20.15 23.55 -19.2 L23.95 -18.35 23.35 -18.95 21.75 -19.35 Q19.85 -19.45 18.55 -18.7 16.75 -17.6 16.45 -15.2 16.15 -12.8 17.25 -10.0 L16.35 -10.4 M29.6 -7.9 L29.4 -7.25 Q29.0 -5.9 28.05 -5.0 25.3 -2.6 23.15 -2.7 21.3 -2.85 19.35 -5.5 L17.5 -8.3 18.3 -7.8 Q20.2 -4.75 23.35 -4.6 25.0 -4.45 27.15 -5.65 28.9 -6.6 29.6 -7.9" fill="#a873ae" fill-rule="evenodd" stroke="none"/>
    <path d="M23.95 -18.35 L23.55 -19.2 Q23.0 -20.15 21.45 -20.65 L19.25 -21.15 Q17.45 -21.25 16.3 -20.1 15.0 -18.9 14.7 -16.55 14.5 -14.7 15.0 -13.05 15.3 -12.2 16.35 -10.4 L15.65 -10.65 12.3 -17.0 12.7 -20.2 18.9 -24.1 22.9 -23.85 26.75 -16.9 26.45 -16.45 26.05 -15.05 25.0 -16.8 23.95 -18.35 M-26.85 18.65 L-27.4 18.95 -28.85 19.85 -32.05 14.7 -34.0 11.65 -35.05 9.9 -35.0 9.75 -32.35 8.25 -33.05 11.5 -28.85 18.5 -26.85 18.65 M27.1 -13.6 L27.3 -14.05 27.7 -15.1 31.55 -8.15 29.95 -3.8 25.0 -0.45 20.05 -2.05 16.6 -8.7 16.85 -8.6 17.25 -8.45 17.5 -8.3 19.35 -5.5 Q21.3 -2.85 23.15 -2.7 25.3 -2.6 28.05 -5.0 29.0 -5.9 29.4 -7.25 L29.6 -7.9 29.7 -8.35 Q29.6 -9.8 29.0 -10.7 L28.15 -11.9 27.1 -13.6 M-26.6 8.0 L-26.55 7.9 -25.85 7.5 -22.5 12.5 -22.4 12.7 -22.35 12.7 -21.95 13.3 -22.8 13.85 -23.05 14.05 -26.6 8.0" fill="#814e87" fill-rule="evenodd" stroke="none"/>
    <path d="M11.75 -20.6 L11.2 -17.85 11.2 -17.05 11.3 -17.0 15.4 -8.85 Q15.8 -7.8 18.3 -3.4 L19.3 -1.65 19.45 -1.3 19.9 -1.2 21.85 -0.5 23.6 0.25 25.0 0.5 24.75 0.65 24.5 0.9 19.4 -0.5 10.7 -16.5 11.15 -20.25 11.75 -20.6 M-0.65 -14.0 L5.3 -16.5 5.4 -16.6 Q5.65 -15.9 7.65 -12.4 L8.15 -11.3 9.7 -7.75 11.3 -4.8 13.15 -1.65 14.6 0.85 14.85 1.4 9.65 5.55 9.1 5.1 9.1 5.15 9.05 5.05 6.2 -0.4 6.3 -0.45 7.45 -1.05 8.45 -1.65 8.6 -1.75 9.3 -2.4 9.7 -2.7 9.95 -3.5 10.1 -4.0 10.15 -4.25 Q10.5 -7.75 7.95 -8.6 L6.6 -8.85 5.8 -8.8 5.75 -8.75 5.35 -8.55 Q3.9 -7.9 3.25 -7.6 L3.15 -7.55 2.75 -8.05 2.15 -8.8 1.2 -10.45 0.25 -12.1 -0.2 -12.75 -0.25 -12.85 -0.4 -13.15 -0.25 -13.2 -0.65 -14.0 M8.15 -3.3 L8.15 -3.25 8.15 -3.15 7.55 -2.3 6.65 -1.65 6.05 -1.3 5.9 -1.2 5.45 -1.0 -3.15 3.35 -3.6 3.7 -3.65 3.7 -19.75 11.8 -19.8 11.75 -21.45 9.15 -21.9 8.55 -22.15 8.05 -22.65 7.25 -22.75 7.0 -22.75 6.85 -20.9 5.9 Q-20.0 6.3 -19.35 7.8 -18.55 9.5 -18.7 10.3 L-17.4 9.4 Q-14.1 7.2 -7.8 4.25 L1.0 0.1 1.0 0.0 8.15 -3.3 M-26.7 10.15 L-26.4 10.2 -24.9 12.55 -25.1 13.1 -25.2 14.1 -25.95 14.45 -26.85 14.95 -27.2 14.9 -27.9 14.85 -28.55 13.75 -29.2 12.7 -29.0 11.05 -29.0 10.95 -27.6 10.1 -26.9 10.15 -26.7 10.15" fill="#70b7fe" fill-rule="evenodd" stroke="none"/>
    <path d="M17.25 -10.0 Q16.15 -12.8 16.45 -15.2 16.75 -17.6 18.55 -18.7 19.85 -19.45 21.75 -19.35 L23.35 -18.95 23.95 -18.35 25.0 -16.8 26.05 -15.05 25.65 -13.7 25.35 -12.4 24.7 -12.7 Q22.55 -14.1 21.5 -14.25 L20.95 -13.3 20.45 -11.8 19.4 -8.75 18.4 -9.4 17.25 -10.0 M27.1 -13.6 L28.15 -11.9 29.0 -10.7 Q29.6 -9.8 29.7 -8.35 L29.6 -7.9 Q28.9 -6.6 27.15 -5.65 25.0 -4.45 23.35 -4.6 20.2 -4.75 18.3 -7.8 L18.5 -7.75 Q19.45 -7.2 19.75 -7.15 L19.9 -7.15 20.35 -7.6 20.7 -8.45 21.95 -12.9 23.05 -12.45 24.3 -11.75 Q25.35 -11.15 25.75 -11.15 L26.0 -11.15 26.1 -11.15 Q26.4 -11.15 27.1 -13.6" fill="#be99c4" fill-rule="evenodd" stroke="none"/>
    <path d="M7.65 -23.3 L5.85 -17.3 16.05 2.05 16.05 2.2 16.1 2.15 16.1 2.05 25.35 4.2 24.1 4.85 15.7 2.6 15.55 2.5 15.3 2.7 9.65 5.55 14.85 1.4 14.6 0.85 13.15 -1.65 11.3 -4.8 9.7 -7.75 8.15 -11.3 7.65 -12.4 Q5.65 -15.9 5.4 -16.6 L5.3 -16.5 -0.65 -14.0 5.3 -17.95 6.05 -22.4 7.65 -23.3 M3.25 -7.6 Q3.9 -7.9 5.35 -8.55 L5.75 -8.75 5.8 -8.8 6.6 -8.85 7.95 -8.6 Q10.5 -7.75 10.15 -4.25 L10.1 -4.0 9.95 -3.5 9.7 -2.7 9.3 -2.4 8.6 -1.75 8.45 -1.65 7.45 -1.05 6.3 -0.45 5.9 -1.2 6.05 -1.3 6.65 -1.65 7.55 -2.3 8.15 -3.15 8.15 -3.25 8.15 -3.3 8.25 -3.5 8.35 -3.75 8.7 -4.85 Q8.8 -5.5 8.35 -6.25 L8.05 -6.8 7.85 -6.95 7.8 -7.0 7.0 -7.4 6.4 -7.5 3.85 -6.25 3.25 -7.6 M-3.65 3.7 L-3.4 4.7 -7.55 6.65 -17.6 12.3 -17.65 12.3 -18.8 12.95 -19.0 13.15 -19.75 11.8 -3.65 3.7 M2.9 17.65 L2.5 18.3 Q1.9 18.9 0.85 18.85 L-0.2 18.6 Q-0.95 18.25 -1.1 17.65 L-1.4 16.85 -1.45 16.4 -1.45 16.25 -1.35 15.7 -8.35 10.6 -7.35 10.35 -1.15 15.1 -1.15 15.0 -0.05 17.45 Q0.55 18.35 1.5 18.35 L2.5 18.05 2.9 17.65 M-7.0 23.4 L-7.65 23.7 -8.45 23.75 -9.45 23.5 -10.0 23.35 -10.1 23.2 -10.2 23.0 Q-10.55 22.45 -10.55 21.55 L-10.55 21.35 -10.4 20.55 -10.2 20.1 -10.0 19.9 -16.75 15.8 -15.55 15.2 -9.45 19.35 -9.7 19.65 -9.8 20.25 Q-9.8 21.95 -8.4 22.8 -7.65 23.3 -7.0 23.4 M-17.25 28.4 L-17.6 28.5 -18.75 28.7 Q-19.85 28.65 -20.35 27.75 L-20.65 26.75 -20.35 25.85 -20.3 25.8 -20.55 25.4 -20.8 24.65 -21.85 22.65 -22.5 21.25 -22.8 20.45 -22.8 20.4 -22.85 20.35 -23.85 18.45 -23.95 18.45 -23.85 18.4 -23.65 18.25 Q-22.85 17.8 -22.1 17.45 L-20.75 20.4 -20.0 22.1 Q-19.0 24.15 -19.05 24.7 L-19.3 25.8 Q-19.4 26.85 -18.85 27.6 -18.25 28.25 -17.25 28.4" fill="#0477ea" fill-rule="evenodd" stroke="none"/>
    <path d="M6.05 -22.4 L5.3 -17.95 -0.65 -14.0 -0.45 -14.7 -0.5 -14.7 1.0 -19.55 6.05 -22.45 6.05 -22.4" fill="#3e9dfd" fill-rule="evenodd" stroke="none"/>
    <path d="M7.2 -6.35 Q6.95 -6.0 4.55 -4.75 L4.5 -4.75 1.6 -3.5 1.2 -3.3 0.85 -3.15 -2.0 -1.65 -1.85 -1.65 -5.35 0.25 -12.2 3.65 -18.6 6.85 Q-19.1 6.8 -19.05 6.35 L-17.15 5.05 -13.5 3.15 Q-10.6 1.7 -6.6 -0.2 L-3.95 -1.65 -4.1 -1.65 -0.25 -3.65 6.8 -6.9 Q7.3 -6.9 7.2 -6.45 L7.2 -6.35 M0.9 14.4 L2.2 14.35 2.85 14.85 Q3.55 15.5 3.5 16.2 L3.2 16.9 3.05 17.15 2.25 17.4 Q1.6 17.35 1.1 16.3 0.75 15.45 0.75 14.95 L0.85 14.7 0.9 14.4 M-7.7 19.55 Q-7.45 18.6 -6.5 19.15 -5.35 19.8 -5.45 21.15 L-5.75 21.95 -6.3 22.4 -6.55 22.5 Q-7.3 22.45 -7.6 21.4 L-7.75 20.05 -7.7 19.55 M-17.6 24.35 Q-17.3 24.15 -16.7 24.5 -15.45 25.2 -15.55 26.3 -15.6 27.1 -16.15 27.25 L-16.55 27.3 Q-17.5 27.25 -17.85 26.3 L-18.05 25.35 Q-18.0 24.5 -17.6 24.35 M-27.45 5.65 L-26.65 5.2 -26.6 5.2 -25.3 4.45 -23.4 7.35 -22.4 8.85 -21.0 11.35 -20.15 13.0 -19.9 13.45 -19.25 14.6 -19.45 14.7 -21.05 15.6 -20.65 14.2 -20.45 13.45 -20.5 13.4 Q-21.15 13.0 -22.75 9.85 L-24.8 6.35 -25.55 6.15 -26.25 6.0 -26.45 5.95 -27.45 5.65 M-6.35 20.7 L-6.3 21.15 -6.15 21.1 -6.35 20.7" fill="#ffffff" fill-rule="evenodd" stroke="none"/>
    <path d="M9.65 5.55 L15.3 2.7 15.55 2.5 15.65 2.6 15.7 2.6 24.1 4.85 24.15 4.85 Q23.7 4.95 23.7 5.05 L22.7 5.55 20.8 6.4 18.75 7.5 18.25 7.75 17.6 8.05 11.15 5.85 9.65 5.55" fill="#89c5fe" fill-rule="evenodd" stroke="none"/>
    <path d="M16.05 2.05 L16.1 2.05 16.1 2.15 16.05 2.05 M15.55 2.5 L15.7 2.6 15.65 2.6 15.55 2.5" fill="#9f7eef" fill-rule="evenodd" stroke="none"/>
    <path d="M-24.4 17.35 L-26.85 18.65 -28.85 18.5 -33.05 11.5 -32.35 8.25 -27.5 5.6 -27.45 5.65 -26.45 5.95 -26.25 6.0 -25.55 6.15 -24.8 6.35 -22.75 9.85 Q-21.15 13.0 -20.5 13.4 L-20.45 13.45 -20.65 14.2 -21.05 15.6 -21.45 15.75 -24.4 17.35 M-23.05 14.05 L-22.8 13.85 -21.95 13.3 -22.35 12.7 -22.4 12.7 -22.5 12.5 -25.85 7.5 -26.55 7.9 -26.6 8.0 Q-30.15 10.15 -31.5 10.7 L-27.95 16.75 Q-27.2 16.1 -25.0 15.05 L-23.05 14.05" fill="#a166a8" fill-rule="evenodd" stroke="none"/>
    <path d="M29.7 -4.75 L25.3 -1.65 20.6 -2.45 19.7 -4.35 20.45 -4.2 Q20.75 -3.9 21.25 -3.85 22.65 -3.75 26.9 -6.35 28.7 -7.15 29.35 -8.9 L29.65 -10.2 30.7 -8.3 29.7 -4.75" fill="url(#gradient0)" fill-rule="evenodd" stroke="none"/>
    <path d="M27.9 -13.2 L28.4 -12.4 Q29.75 -9.6 29.55 -8.05 29.4 -6.95 28.35 -5.5 27.4 -4.7 26.05 -4.75 L25.95 -4.8 24.6 -7.4 24.05 -8.6 Q25.6 -9.0 26.7 -10.65 27.6 -12.0 27.9 -13.2" fill="#ffffff" fill-rule="evenodd" stroke="none"/>
  </g>
  <defs>
    <radialGradient cx="0" cy="0" gradientTransform="matrix(0.0238, 0.0015, -0.0031, 0.0239, 25.9, -6.3)" gradientUnits="userSpaceOnUse" id="gradient0" r="819.2" spreadMethod="pad">
      <stop offset="0.0" stop-color="#ffffff"/>
      <stop offset="0.00392156862745098" stop-color="#ffffff" stop-opacity="0.29803923"/>
      <stop offset="1.0" stop-color="#ffffff" stop-opacity="0.0"/>
    </radialGradient>
  </defs>
</svg>
