<?xml version="1.0" encoding="UTF-8" standalone="no"?>
<svg xmlns:ffdec="https://www.free-decompiler.com/flash" xmlns:xlink="http://www.w3.org/1999/xlink" ffdec:objectType="shape" height="46.1px" width="51.15px" xmlns="http://www.w3.org/2000/svg">
  <g transform="matrix(1.0, 0.0, 0.0, 1.0, 34.15, 7.7)">
    <path d="M0.65 -2.5 L0.8 -2.6 0.3 -2.05 -0.35 -1.45 -3.85 0.5 -4.65 0.05 Q-6.55 -0.95 -8.2 -1.55 L-9.1 -1.05 -9.15 -0.4 -9.15 0.2 -9.15 3.35 -9.05 5.45 -8.65 8.1 -8.65 8.15 -8.7 8.1 -11.05 6.6 -12.95 5.6 Q-14.5 4.85 -16.1 4.3 L-17.05 4.0 -17.65 4.35 -17.65 5.25 -17.55 8.4 -17.3 10.2 -16.9 12.1 -16.6 13.25 -18.55 15.0 -19.45 15.55 -22.05 17.65 -22.0 17.75 -22.05 17.75 Q-22.75 17.85 -22.85 19.5 L-22.9 20.15 -22.7 21.1 -22.75 21.4 -22.45 22.55 -22.1 23.45 -22.0 23.6 -21.9 23.65 -21.45 24.45 -20.75 25.25 -20.6 25.4 Q-19.95 26.0 -19.2 26.25 L-19.1 26.25 -19.0 26.2 -17.5 26.7 -17.35 26.8 -17.25 26.75 -16.6 26.75 -16.1 26.7 -15.85 27.65 -20.8 30.2 -23.55 30.45 -26.5 13.75 -28.75 14.95 -29.1 15.3 Q-29.75 15.95 -30.1 15.95 L-30.6 15.95 -31.0 16.15 Q-31.8 15.85 -32.35 15.4 L-32.45 15.3 Q-33.4 14.5 -33.8 13.35 -34.2 12.2 -34.15 10.7 L-30.5 7.65 -30.35 7.65 -29.55 7.0 -28.6 6.35 -28.5 6.35 -27.85 5.85 -27.75 5.75 -27.8 5.65 -27.7 5.6 Q-29.45 1.85 -29.8 -2.2 L-29.35 -2.45 Q-24.85 -0.25 -22.1 2.6 L-22.0 2.65 -22.05 2.55 -21.7 2.35 -21.5 2.35 -21.5 2.45 -20.4 1.8 -20.3 1.55 -20.2 1.6 -20.25 1.55 -20.05 1.4 -19.8 1.35 -19.85 1.3 -20.5 -0.7 Q-21.4 -3.95 -21.2 -7.05 L-21.2 -7.25 -21.1 -7.7 -21.05 -7.65 Q-17.0 -5.4 -14.15 -2.65 L-13.7 -2.3 -13.35 -2.45 -13.25 -2.3 -5.55 -6.75 -5.95 -5.6 -6.05 -5.45 -6.05 -5.4 -5.05 -5.45 -4.35 -5.45 -2.65 -5.75 -2.4 -5.8 -1.5 -5.85 -2.3 -4.7 -3.25 -3.7 -4.0 -2.3 -4.15 -2.15 -3.85 -2.15 -3.65 -2.05 -3.6 -2.1 -2.2 -2.2 -0.85 -2.2 0.65 -2.5 M-2.5 -6.2 L-2.7 -6.2 -2.55 -6.25 -2.5 -6.2 M-0.55 5.65 L7.15 1.2 6.75 2.35 6.65 2.5 6.65 2.55 7.65 2.5 8.35 2.5 10.05 2.2 10.3 2.15 11.05 2.1 11.1 2.1 11.2 2.05 11.25 2.1 11.2 2.1 11.2 2.15 10.4 3.25 9.45 4.25 Q8.7 5.25 8.7 5.65 L8.55 5.8 8.85 5.8 9.05 5.9 9.1 5.85 10.5 5.75 11.85 5.75 13.35 5.45 13.5 5.35 13.0 5.9 12.35 6.5 8.7 8.5 8.15 8.75 3.6 11.25 17.0 24.2 11.95 27.1 9.05 27.15 2.2 19.55 4.3 30.45 1.5 30.8 -5.85 24.2 -6.15 24.35 -6.15 24.4 -3.15 35.6 -8.1 38.15 -10.85 38.4 -13.8 21.7 -16.05 22.9 -16.05 22.95 -16.4 23.25 -17.4 23.9 -17.8 23.9 -17.9 23.9 -18.3 24.1 -19.65 23.35 -19.75 23.25 -20.25 22.75 -21.1 21.3 Q-21.5 20.15 -21.45 18.65 L-18.9 16.55 -18.85 16.55 -17.8 15.6 -17.65 15.6 -16.85 14.95 -16.7 14.9 -15.9 14.3 -15.8 14.3 -15.15 13.8 -15.05 13.7 -15.1 13.6 -15.0 13.55 -16.1 10.7 -16.6 8.85 -16.95 7.05 -17.1 5.75 -16.65 5.5 -15.4 6.15 -13.65 7.15 -11.65 8.55 -9.75 10.2 -9.4 10.55 -9.3 10.6 -9.35 10.5 -9.0 10.3 -8.8 10.3 -8.8 10.4 -7.7 9.75 -7.6 9.5 -7.5 9.55 -7.55 9.5 -7.35 9.35 -7.1 9.3 -7.15 9.25 -7.8 7.25 -8.35 4.7 -8.5 2.1 -8.5 2.05 -8.5 0.9 -8.5 0.7 -8.4 0.25 -8.35 0.3 -6.9 1.15 -6.85 1.2 -4.55 2.7 -1.45 5.3 -1.0 5.65 -0.65 5.5 -0.55 5.65 M8.05 11.75 L8.1 11.8 8.05 11.8 8.05 11.75" fill="#fff783" fill-rule="evenodd" stroke="none"/>
  </g>
</svg>
