<?xml version="1.0" encoding="UTF-8" standalone="no"?>
<svg xmlns:ffdec="https://www.free-decompiler.com/flash" xmlns:xlink="http://www.w3.org/1999/xlink" ffdec:objectType="shape" height="79.0px" width="87.7px" xmlns="http://www.w3.org/2000/svg">
  <g transform="matrix(1.0, 0.0, 0.0, 1.0, 42.75, 34.9)">
    <path d="M4.85 -24.95 L5.4 -25.9 5.5 -26.05 6.35 -27.4 6.45 -27.65 6.45 -27.6 6.55 -27.7 9.4 -29.15 10.6 -29.15 13.55 -28.95 15.5 -28.95 15.65 -28.9 17.05 -28.55 17.25 -28.45 17.55 -28.35 17.5 -28.25 17.25 -28.1 Q16.1 -27.9 13.95 -26.75 L13.8 -26.65 13.75 -26.65 10.55 -26.3 10.35 -26.3 10.05 -26.2 8.35 -25.75 5.5 -24.85 4.9 -24.65 4.35 -24.45 -1.4 -22.15 -2.4 -21.3 Q-3.95 -19.2 -5.8 -15.75 L-5.8 -15.65 -6.2 -15.1 -6.95 -14.0 -7.7 -12.7 -8.05 -11.95 -8.1 -11.9 -8.35 -11.45 -8.4 -11.4 -8.45 -11.15 -8.55 -10.95 -9.15 -8.85 -9.3 -8.45 -9.5 -6.75 -9.5 -6.65 -9.25 -6.55 -8.8 -6.3 -8.15 -6.8 -7.65 -7.1 -7.55 -7.2 -6.2 -7.9 -5.6 -8.2 -5.05 -8.45 -4.65 -8.6 -4.45 -8.7 -4.1 -8.9 -4.0 -9.0 -3.6 -9.15 -2.4 -9.65 -1.65 -10.0 -1.25 -10.15 -2.25 -8.7 -2.4 -8.35 -2.45 -8.25 -2.6 -8.05 -2.75 -7.9 -2.85 -7.8 -3.2 -7.15 -3.3 -7.05 -3.5 -6.65 -3.75 -6.2 -4.0 -5.5 -4.2 -4.95 -4.35 -4.4 -4.25 -4.3 -4.2 -4.25 -4.05 -4.1 -3.9 -3.85 -3.2 -4.25 -1.95 -4.4 -0.85 -4.65 -0.8 -4.7 -0.7 -4.7 0.2 -4.95 0.3 -5.0 0.4 -5.0 0.45 -5.0 0.8 -5.15 0.9 -5.15 1.1 -5.15 1.25 -5.15 2.35 -5.3 2.35 -5.25 2.05 -5.1 1.8 -4.75 1.75 -4.7 1.65 -4.5 1.3 -3.85 1.2 -3.6 1.1 -3.35 0.85 -2.75 0.8 -2.6 0.55 -1.65 0.55 -1.55 0.2 -0.6 0.15 -0.3 0.1 -0.2 0.05 0.0 0.0 0.1 0.65 0.45 0.25 0.45 -0.4 0.6 -0.45 0.65 -0.9 0.85 -1.15 1.1 -1.2 1.15 -1.25 1.15 -1.3 1.2 -1.95 1.6 -2.1 1.75 -2.35 1.95 -2.35 1.9 -2.5 2.0 -2.65 2.1 -3.0 2.3 -3.35 2.3 -3.75 2.4 -4.2 2.5 -4.25 2.5 -4.95 2.65 -5.0 2.7 -6.6 2.8 -7.3 2.75 -7.5 2.7 -7.45 2.75 -7.75 2.7 -8.95 2.5 -8.05 1.9 -7.75 1.7 -5.25 -0.15 -5.15 -0.3 -5.1 -0.35 -5.25 -0.5 -7.35 0.1 -7.8 0.0 -8.3 0.15 -8.5 0.25 -8.7 0.3 -8.75 0.3 -9.1 0.45 -9.15 0.5 -9.6 0.75 -9.85 0.85 -9.9 0.9 -10.4 1.15 -10.9 1.35 Q-11.6 1.9 -11.35 2.5 L-19.3 7.1 -19.25 7.8 -19.3 8.95 -20.6 9.4 -22.35 10.45 -22.65 10.6 -22.7 10.65 -22.95 10.8 -23.0 10.8 -23.05 10.85 -23.1 10.85 -24.3 11.55 -24.4 11.55 -21.85 16.0 -16.8 13.1 -15.65 15.05 -17.05 14.5 -17.15 14.6 -19.2 15.65 -20.8 16.55 Q-21.35 16.75 -21.9 17.1 L-22.3 18.45 -22.55 19.15 -24.2 20.1 -24.75 20.55 -25.25 20.8 -25.4 21.5 -29.0 23.55 -26.25 28.35 -24.2 27.2 -22.55 29.6 -22.45 29.55 -22.4 29.65 -22.2 29.75 -21.8 30.5 -22.25 30.8 -22.25 30.85 -27.55 33.85 -33.85 22.95 -28.9 20.05 -31.4 15.7 -33.35 16.85 -33.8 16.75 -33.85 16.7 -34.6 16.5 -35.35 16.4 -35.5 16.3 -35.85 16.5 -35.9 16.55 -36.15 16.75 -36.55 17.1 -36.65 17.15 -37.0 17.3 -37.05 17.35 -37.0 17.35 -37.0 17.45 -37.3 17.6 -38.25 18.05 -38.55 18.3 -38.6 18.3 -38.65 18.25 -38.7 18.3 -38.8 18.25 -38.95 18.2 -39.0 18.2 -39.65 18.0 -41.0 17.3 -41.2 16.85 -41.25 16.75 -41.3 16.65 -42.75 13.9 -42.45 12.05 -42.45 12.0 -41.1 11.2 -40.75 11.0 -40.8 10.95 -40.45 10.75 -40.3 10.75 -39.1 10.1 -39.4 10.25 -39.35 10.1 -39.1 9.6 -39.15 9.6 -39.05 9.4 -39.05 9.25 -39.1 9.15 -39.0 8.6 -39.05 8.4 -39.05 8.3 -39.0 8.1 -38.65 7.85 -38.35 7.7 -38.25 7.6 -38.05 7.55 -37.95 7.5 -37.8 7.4 -37.55 7.35 -36.8 7.0 -36.7 7.0 -36.5 6.85 -35.65 6.55 -34.6 6.0 Q-33.8 6.0 -33.0 6.55 L-29.55 4.55 -29.35 3.3 -29.4 3.25 -29.35 2.75 -29.35 2.65 -29.25 2.55 -28.9 2.3 -28.15 1.8 -27.8 1.65 -27.6 1.5 -27.1 1.35 -25.6 0.65 -25.55 0.6 -24.65 0.15 -23.7 -0.05 Q-23.15 -0.05 -22.5 0.5 L-14.75 -4.05 -14.55 -4.0 -13.95 -4.2 -13.7 -4.2 -13.15 -4.3 -12.05 -5.15 -12.05 -5.2 -11.95 -5.25 -11.9 -5.25 -11.8 -5.3 -11.65 -5.4 -11.4 -5.7 -11.25 -5.9 -11.3 -5.8 -11.25 -5.7 -11.25 -5.55 -11.25 -5.4 -11.0 -6.0 -10.05 -8.3 -10.2 -8.3 -10.3 -8.2 -10.75 -7.7 -13.5 -6.25 -14.0 -5.95 -14.0 -6.0 -13.7 -6.8 -13.5 -7.35 -13.35 -7.7 -13.25 -7.9 -13.2 -8.1 -12.35 -9.8 -12.25 -10.0 -12.15 -10.2 -12.1 -10.2 -12.05 -10.3 -12.05 -10.5 -12.0 -10.5 -11.8 -10.75 -11.75 -10.75 -10.15 -12.2 -9.35 -12.9 -9.35 -12.95 -8.4 -14.1 -8.35 -14.25 -8.25 -14.25 -8.2 -14.3 -6.8 -15.5 -6.75 -15.45 -6.75 -15.4 -6.65 -15.4 -6.6 -15.35 -6.55 -15.4 -6.5 -15.4 -6.2 -15.75 -6.2 -15.8 -6.15 -15.75 -6.15 -18.45 -0.35 -23.8 4.0 -24.4 4.2 -24.45 4.3 -24.55 4.35 -24.55 4.75 -24.75 4.75 -24.8 4.85 -24.95 M13.3 -21.85 L12.9 -21.1 11.9 -19.45 11.55 -18.85 11.1 -18.0 10.95 -17.75 10.2 -16.3 8.95 -14.05 8.75 -13.7 8.6 -13.0 8.5 -12.75 8.5 -12.6 8.55 -11.75 8.7 -10.85 8.85 -10.25 9.55 -7.7 9.85 -6.6 10.15 -5.5 10.25 -5.15 10.3 -5.2 10.35 -4.95 10.45 -4.95 10.5 -4.75 10.6 -4.5 10.4 -4.2 9.15 -2.9 8.75 -2.55 8.7 -2.65 8.65 -2.65 8.25 -2.85 8.1 -3.0 7.95 -2.95 7.8 -3.1 7.85 -3.15 7.25 -3.45 6.55 -3.8 4.5 -3.0 2.9 -2.1 2.75 -1.95 2.6 -1.85 2.45 -1.9 3.15 -3.2 3.2 -3.3 3.3 -3.3 3.35 -3.35 3.45 -3.55 4.3 -4.65 5.2 -5.5 5.3 -5.55 5.95 -6.25 6.25 -6.45 6.15 -6.55 2.75 -7.6 2.25 -7.6 2.2 -7.6 2.1 -7.6 1.55 -7.55 1.05 -7.4 0.75 -7.3 -1.0 -6.65 -1.05 -6.75 -0.5 -7.55 Q-0.55 -8.1 1.9 -11.25 L2.65 -12.2 2.6 -12.45 2.55 -12.75 2.25 -13.65 0.6 -13.15 0.3 -13.05 -0.7 -12.75 -2.3 -12.25 -2.5 -12.15 -2.55 -12.15 -2.75 -12.0 -5.55 -10.4 -5.6 -10.4 -5.7 -10.35 -6.7 -9.75 -6.65 -9.85 -6.4 -10.35 -6.3 -10.6 -6.2 -10.8 -6.05 -11.05 -5.9 -11.25 -5.5 -12.0 -4.05 -14.15 -3.85 -14.5 -3.8 -14.7 -3.65 -14.95 -3.1 -15.9 -1.25 -18.95 -0.5 -20.05 1.3 -20.8 5.2 -22.3 5.9 -22.55 6.25 -22.7 7.9 -23.2 10.5 -23.95 14.4 -24.6 14.7 -24.65 14.9 -24.65 14.65 -24.25 13.3 -21.85 M12.35 -16.3 L14.55 -12.95 14.4 -12.25 13.55 -11.6 12.2 -10.5 11.3 -8.8 10.95 -11.1 10.85 -11.5 10.8 -12.1 Q11.25 -13.95 12.15 -15.9 L12.35 -16.3 M3.75 -0.75 L4.05 -0.85 5.05 -1.2 5.55 -1.25 5.95 -1.35 6.3 -1.4 6.1 -1.15 5.95 -0.9 5.75 -0.5 5.1 1.0 3.65 1.15 Q3.0 1.2 2.8 0.9 L2.75 0.9 Q2.25 0.35 1.5 0.35 L1.25 0.35 1.3 0.4 0.95 0.45 1.3 0.3 1.8 0.1 2.0 0.0 2.85 -0.4 3.3 -0.6 3.75 -0.75 M7.5 -0.25 L7.7 -0.5 7.75 -0.5 8.65 -1.3 9.35 -1.95 9.75 -2.3 10.15 -2.65 10.15 -2.7 10.95 -3.65 11.1 -3.85 11.15 -4.0 11.25 -4.0 11.3 -4.05 12.7 -5.25 12.75 -5.2 12.75 -5.15 12.85 -5.15 12.9 -5.1 12.95 -5.15 13.0 -5.15 13.3 -5.5 13.3 -5.55 13.35 -5.5 13.35 -8.2 19.15 -13.55 23.5 -14.15 23.7 -14.2 23.8 -14.3 23.85 -14.3 24.25 -14.5 24.25 -14.55 24.35 -14.7 24.9 -15.65 25.0 -15.8 25.3 -16.25 25.85 -17.15 25.95 -17.4 25.95 -17.35 26.05 -17.45 28.9 -18.9 30.1 -18.9 33.05 -18.7 35.0 -18.7 35.15 -18.65 36.55 -18.3 36.75 -18.2 37.05 -18.1 37.0 -18.0 36.75 -17.85 Q35.6 -17.65 33.45 -16.5 L31.15 -15.2 30.45 -14.75 30.0 -14.0 29.85 -9.45 29.8 -9.1 29.75 -9.05 30.8 -7.5 30.85 -7.45 34.05 -2.7 33.85 -1.95 37.85 0.1 37.9 0.15 38.8 0.1 39.5 -0.25 39.95 -0.5 41.8 -1.6 44.6 -3.75 44.85 -3.95 44.95 -3.9 44.9 -3.6 Q44.8 -2.25 44.4 -1.95 L44.4 -1.8 43.5 -0.2 41.6 3.55 38.9 5.3 38.8 5.3 38.8 5.35 38.3 5.35 36.95 5.35 36.75 5.4 35.9 5.4 35.65 5.4 35.5 5.4 35.0 5.7 34.95 5.7 34.8 5.8 34.8 5.85 34.75 5.85 34.8 5.95 33.8 8.55 32.35 9.15 31.0 9.6 30.3 9.9 29.05 10.25 26.9 10.8 26.5 10.85 25.45 11.0 23.15 11.4 Q22.5 11.45 22.3 11.15 L22.25 11.15 Q21.75 10.6 21.0 10.6 L20.9 10.6 20.75 10.6 20.8 10.65 19.75 10.7 19.1 10.85 19.05 10.9 Q18.75 10.95 18.6 11.1 L18.35 11.35 18.3 11.4 18.25 11.4 18.2 11.45 Q17.9 11.6 17.55 11.85 L17.4 12.0 17.15 12.2 17.15 12.15 17.0 12.25 16.85 12.35 16.85 12.4 16.5 12.55 16.15 12.55 15.75 12.65 15.3 12.75 15.25 12.75 14.55 12.9 14.5 12.95 12.9 13.05 12.4 13.0 12.2 13.0 12.0 12.95 12.05 13.0 11.75 12.95 10.55 12.75 11.45 12.15 11.75 11.95 14.25 10.1 14.35 9.95 14.4 9.9 14.25 9.75 13.45 9.9 12.15 10.35 11.7 10.25 11.2 10.4 11.0 10.5 10.8 10.55 10.75 10.55 10.4 10.7 10.35 10.75 9.9 11.0 9.65 11.1 9.6 11.15 9.1 11.4 8.6 11.6 Q7.9 12.15 8.15 12.75 L0.2 17.35 0.25 18.05 0.25 18.3 0.2 19.2 -1.1 19.65 -2.85 20.7 -3.15 20.85 -3.2 20.9 -3.45 21.05 -3.5 21.05 -3.55 21.1 -3.6 21.1 -4.8 21.8 -4.9 21.8 -2.35 26.25 2.7 23.35 9.0 34.25 2.4 38.1 0.3 34.5 1.05 34.1 1.2 34.0 2.6 33.2 2.55 33.15 -0.1 28.45 -0.15 28.4 -9.5 33.8 -6.75 38.6 -4.2 37.15 -2.3 40.75 -2.75 41.05 -2.75 41.1 -8.05 44.1 -14.35 33.2 -9.4 30.3 -11.9 25.95 -13.85 27.1 -14.3 27.0 -14.35 26.95 -15.1 26.75 -15.15 26.75 -15.85 26.65 -16.0 26.55 -16.35 26.75 -16.4 26.8 -16.5 26.95 -16.65 27.0 -17.05 27.35 -17.15 27.4 -17.5 27.55 -17.55 27.6 -17.5 27.6 -17.5 27.7 -17.8 27.85 -18.6 28.25 -18.75 28.3 -19.05 28.55 -19.1 28.55 -19.15 28.5 -19.2 28.55 -19.3 28.5 -19.45 28.45 -19.5 28.45 -20.15 28.25 -21.45 27.6 -21.5 27.55 -21.7 27.1 -21.75 27.0 -21.8 26.9 -23.25 24.15 -22.95 22.3 -22.95 22.25 -21.6 21.45 -21.25 21.25 -21.3 21.2 -20.95 21.0 -20.8 21.0 -19.6 20.35 -19.9 20.5 -19.85 20.35 -19.6 19.85 -19.65 19.85 -19.55 19.65 -19.55 19.5 -19.6 19.4 -19.5 18.85 -19.55 18.65 -19.55 18.55 -19.5 18.4 -19.5 18.35 -19.15 18.1 -18.85 17.95 -18.75 17.85 -18.6 17.8 -18.55 17.8 -18.45 17.75 -18.3 17.65 -18.05 17.6 -17.3 17.25 -17.2 17.25 -17.0 17.1 -16.15 16.8 -15.95 16.7 -15.1 16.25 -14.95 16.25 Q-14.25 16.3 -13.5 16.8 L-10.05 14.8 -9.85 13.55 -9.9 13.5 -9.85 13.0 -9.85 12.9 -9.75 12.8 -9.4 12.55 -8.65 12.05 -8.3 11.9 -8.1 11.75 -7.6 11.6 -6.1 10.9 -6.05 10.85 -5.15 10.4 -4.2 10.2 -3.65 10.35 Q-3.35 10.45 -3.0 10.75 L4.75 6.2 4.95 6.25 5.0 6.25 5.55 6.05 5.8 6.05 6.35 5.95 7.45 5.1 7.45 5.05 7.55 5.0 7.6 5.0 7.7 4.95 7.85 4.85 8.1 4.55 8.25 4.35 8.2 4.45 8.25 4.55 8.25 4.7 8.25 4.85 8.5 4.25 9.45 1.95 9.3 1.95 9.2 2.05 8.75 2.55 6.0 4.0 5.65 4.25 5.5 4.3 5.5 4.25 5.55 4.1 5.8 3.45 6.0 2.9 6.1 2.7 6.15 2.55 6.25 2.35 6.3 2.15 7.1 0.6 7.15 0.45 7.25 0.25 7.35 0.05 7.4 0.05 7.45 -0.05 7.45 -0.25 7.5 -0.25 M12.9 -5.6 L12.9 -5.65 12.95 -5.65 12.9 -5.6 M1.5 1.7 L1.65 1.65 1.9 1.7 1.85 1.85 1.95 1.95 1.9 2.1 2.95 3.6 3.45 4.25 2.25 4.85 2.25 4.8 -3.1 7.95 -3.65 7.95 -3.8 7.95 -4.65 8.0 -5.25 8.0 -5.7 8.0 -5.75 8.05 -5.9 8.0 -5.75 7.9 -5.6 7.7 -5.55 7.75 -5.45 7.6 -5.4 7.6 -5.35 7.55 -4.4 6.8 -3.95 6.55 -3.9 6.55 -3.2 5.75 -2.75 5.3 -2.25 4.85 -2.05 4.6 -1.95 4.55 -2.0 3.75 -2.1 3.6 -2.25 3.4 -2.25 3.35 -2.05 2.95 -1.65 2.65 -1.35 2.5 -0.05 1.9 0.2 1.75 1.25 1.5 1.65 1.6 1.5 1.65 1.5 1.7 M20.3 11.85 L20.75 11.75 21.15 11.85 21.0 11.9 21.0 11.95 21.15 11.9 21.4 11.95 21.35 12.1 21.45 12.2 21.4 12.35 22.45 13.85 23.95 15.8 26.0 18.25 27.35 18.65 28.6 18.9 30.3 19.15 32.85 19.3 33.3 19.3 33.65 19.3 39.5 18.65 39.4 18.9 36.0 22.95 33.55 25.2 31.35 27.0 30.3 27.85 27.8 29.7 21.6 29.9 20.05 29.9 19.3 30.0 18.2 30.05 16.7 30.0 16.65 30.0 15.35 30.0 15.3 29.9 15.65 29.65 15.85 29.55 16.55 29.3 17.65 28.95 17.75 28.9 17.85 28.9 17.9 28.85 18.65 28.3 19.3 27.75 Q19.5 27.6 19.85 27.35 L20.25 27.0 23.25 24.55 23.6 24.2 23.65 24.15 23.55 24.0 22.6 23.1 22.5 23.2 20.15 23.6 19.25 23.65 15.95 23.85 15.8 23.8 15.8 23.65 15.6 23.65 15.5 23.7 15.55 23.65 15.95 23.35 16.3 23.0 16.7 22.6 17.2 21.9 18.9 20.15 19.25 19.6 19.85 18.65 19.6 17.9 19.6 17.8 15.85 18.2 15.7 18.2 14.85 18.25 14.25 18.25 13.8 18.25 13.6 18.3 13.55 18.3 13.75 18.15 13.9 17.95 13.95 18.0 14.05 17.85 14.1 17.85 14.15 17.8 15.1 17.05 15.15 17.05 15.55 16.8 15.6 16.8 16.25 16.1 16.3 16.0 16.75 15.55 17.25 15.1 17.45 14.85 17.55 14.8 17.5 14.0 17.4 13.85 17.25 13.65 17.25 13.6 17.45 13.2 Q17.6 13.0 17.85 12.9 L18.15 12.75 Q18.7 12.5 19.45 12.15 L19.7 12.0 20.3 11.85 M9.9 14.4 L9.95 14.4 10.9 14.65 10.95 14.65 11.25 14.65 14.5 14.6 14.05 14.95 11.85 16.75 10.8 17.6 8.3 19.45 2.1 19.65 1.15 19.65 1.15 19.6 6.6 16.45 8.9 14.95 9.8 14.35 9.9 14.4 M-13.25 -32.95 Q-8.5 -34.6 -4.8 -34.9 L-4.6 -34.9 -4.85 -34.5 -6.2 -32.1 -7.6 -29.7 -7.95 -29.1 -8.55 -28.0 -10.55 -24.3 -10.75 -23.95 -10.9 -23.25 -11.0 -23.0 -11.0 -22.85 -10.95 -22.0 -10.8 -21.1 -10.65 -20.5 -9.95 -17.95 -9.35 -15.75 -9.25 -15.4 -9.2 -15.45 -9.15 -15.2 -9.05 -15.2 -9.0 -15.0 -8.9 -14.75 -10.75 -12.8 -10.8 -12.9 -11.25 -13.1 -11.4 -13.25 -11.55 -13.2 -11.7 -13.35 -11.65 -13.4 Q-12.2 -13.65 -12.95 -14.05 L-15.0 -13.25 -16.6 -12.35 -16.75 -12.2 -16.9 -12.1 -17.05 -12.15 -16.35 -13.45 -16.3 -13.55 -16.15 -13.6 -16.05 -13.8 -15.2 -14.9 -14.3 -15.75 -13.55 -16.5 -13.25 -16.7 -13.35 -16.8 -16.75 -17.85 -17.25 -17.85 -17.3 -17.85 -17.4 -17.85 -17.95 -17.8 -18.45 -17.65 -18.75 -17.55 -20.5 -16.9 -20.55 -17.0 -20.0 -17.8 Q-20.05 -18.45 -16.85 -22.45 L-16.95 -23.0 -17.25 -23.9 -20.2 -23.0 -21.8 -22.5 -22.05 -22.4 -22.25 -22.25 -25.05 -20.65 -25.1 -20.65 -25.2 -20.6 -26.2 -20.0 -26.15 -20.1 -25.9 -20.6 -25.8 -20.85 -25.7 -21.05 -25.55 -21.3 -25.4 -21.5 -25.0 -22.25 -23.55 -24.4 -23.35 -24.75 -23.3 -24.95 -20.0 -30.3 -13.25 -32.95 M-6.6 -15.9 L-6.55 -15.9 -6.6 -15.85 -6.6 -15.9" fill="#ff0000" fill-rule="evenodd" stroke="none"/>
  </g>
</svg>
