<?xml version="1.0" encoding="UTF-8" standalone="no"?>
<svg xmlns:ffdec="https://www.free-decompiler.com/flash" xmlns:xlink="http://www.w3.org/1999/xlink" ffdec:objectType="shape" height="84.0px" width="88.55px" xmlns="http://www.w3.org/2000/svg">
  <g transform="matrix(1.0, 0.0, 0.0, 1.0, 41.6, 36.85)">
    <path d="M26.75 -24.8 L28.15 -24.45 28.35 -24.35 28.65 -24.25 28.6 -24.15 28.35 -24.0 Q27.2 -23.8 25.05 -22.65 L22.75 -21.35 22.05 -20.9 21.6 -20.15 21.45 -15.6 21.4 -15.25 21.35 -15.2 22.4 -13.65 22.45 -13.6 22.75 -13.2 20.65 -12.9 20.15 -12.35 19.05 -11.4 18.7 -11.15 18.4 -10.85 17.05 -9.7 15.55 -8.55 14.2 -7.45 13.95 -7.0 13.3 -5.75 13.1 -7.15 12.95 -8.05 12.85 -8.45 12.8 -9.05 Q13.25 -10.95 14.15 -12.9 L14.55 -13.75 15.35 -15.25 16.05 -16.35 16.65 -17.4 17.15 -18.25 17.4 -18.7 19.75 -22.95 19.75 -23.35 17.85 -23.7 20.5 -25.05 21.7 -25.05 24.65 -24.85 26.6 -24.85 26.75 -24.8 M3.5 -25.6 L3.15 -25.0 2.55 -23.9 2.25 -23.25 0.55 -20.2 0.45 -20.0 0.35 -19.85 0.2 -19.15 0.1 -18.9 0.15 -18.8 -0.4 -18.25 -3.55 -13.1 -5.65 -13.75 -6.15 -13.75 -6.2 -13.75 -6.3 -13.75 -6.85 -13.7 -7.2 -13.6 -7.35 -13.55 -7.65 -13.45 -8.1 -13.3 -9.4 -12.8 -9.45 -12.9 -8.9 -13.7 -8.75 -14.1 -8.5 -14.6 -5.75 -18.35 -5.85 -18.9 -6.15 -19.8 -8.55 -19.05 -9.1 -18.9 -10.7 -18.4 Q-10.85 -18.3 -10.95 -18.3 L-11.15 -18.15 -13.95 -16.55 -14.0 -16.55 -14.1 -16.5 -15.1 -15.9 -15.05 -16.0 -14.8 -16.5 -14.7 -16.75 -14.6 -16.95 -14.45 -17.2 -14.3 -17.4 -13.9 -18.15 -13.35 -19.1 -12.45 -20.3 -12.25 -20.65 -12.2 -20.85 -9.85 -24.8 -8.9 -26.2 Q-7.7 -26.7 -6.6 -27.15 L-2.15 -28.85 Q2.15 -30.35 5.6 -30.7 L6.3 -30.8 6.5 -30.8 6.25 -30.4 4.9 -28.0 3.85 -26.15 3.5 -25.6 M8.1 -29.85 Q9.35 -30.6 10.55 -31.1 L11.75 -31.1 14.7 -30.9 16.65 -30.9 16.8 -30.85 18.2 -30.5 18.4 -30.4 18.7 -30.3 18.65 -30.2 18.4 -30.05 Q17.25 -29.85 15.1 -28.7 L12.8 -27.4 12.1 -26.95 11.65 -26.2 11.55 -23.05 9.1 -22.35 7.5 -21.8 7.45 -21.75 2.95 -20.1 Q3.7 -22.25 4.95 -24.45 L5.65 -25.55 5.75 -25.7 6.1 -26.35 7.0 -27.9 8.1 -29.85 M16.35 -21.55 L16.7 -21.6 16.9 -21.6 16.65 -21.2 16.1 -20.15 15.75 -19.55 15.3 -18.8 13.9 -16.4 13.55 -15.8 12.95 -14.7 12.5 -13.85 11.35 -11.7 10.95 -11.0 10.75 -10.65 10.6 -9.95 10.5 -9.7 10.5 -9.55 10.55 -8.7 10.7 -7.8 10.85 -7.25 10.85 -7.2 11.55 -4.65 11.95 -3.15 12.0 -2.95 12.15 -2.45 12.25 -2.1 12.3 -2.15 12.35 -1.9 12.45 -1.9 12.5 -1.7 12.6 -1.45 12.3 -1.1 11.75 -0.45 10.75 0.5 10.7 0.4 10.25 0.2 10.1 0.05 9.95 0.1 9.8 -0.05 9.85 -0.1 Q9.3 -0.35 8.55 -0.75 L6.5 0.05 5.0 0.95 4.9 0.95 4.75 1.1 4.6 1.2 4.45 1.15 4.75 0.65 5.0 0.1 5.15 -0.1 5.15 -0.15 5.2 -0.25 5.35 -0.3 5.45 -0.5 6.3 -1.6 7.2 -2.45 7.6 -2.8 7.95 -3.2 8.25 -3.4 8.15 -3.5 4.75 -4.55 4.25 -4.55 4.2 -4.55 4.1 -4.55 3.55 -4.5 3.05 -4.35 2.75 -4.25 2.35 -4.1 1.0 -3.6 0.95 -3.7 1.4 -4.3 1.5 -4.5 1.9 -5.4 2.7 -6.6 4.65 -9.15 4.55 -9.7 4.25 -10.6 2.85 -10.15 2.75 -10.15 1.4 -9.7 1.3 -9.7 -0.3 -9.2 -0.45 -9.1 -0.55 -9.1 -0.75 -8.95 -3.55 -7.35 -3.6 -7.35 -3.7 -7.3 -4.7 -6.7 -4.65 -6.8 -4.55 -6.9 -4.4 -7.3 -4.3 -7.55 -4.2 -7.75 -4.05 -8.0 -3.9 -8.2 -3.5 -8.95 -3.25 -9.4 -2.05 -11.1 -1.85 -11.45 -1.8 -11.65 0.65 -15.7 1.5 -17.0 2.5 -17.4 4.2 -18.15 5.55 -18.65 7.0 -19.2 8.25 -19.65 Q12.75 -21.2 16.35 -21.55 M0.75 -7.1 L-0.25 -5.65 -0.4 -5.3 -0.45 -5.2 -0.6 -5.0 -0.75 -4.85 -0.85 -4.75 -1.2 -4.1 -1.3 -4.0 -1.5 -3.6 -1.75 -3.15 -2.0 -2.45 -2.05 -2.35 -2.2 -2.25 -2.4 -2.15 -2.9 -1.85 -2.9 -1.9 -2.8 -2.2 -2.6 -2.7 -2.55 -2.8 -2.4 -3.25 -2.25 -3.6 -2.2 -3.7 -2.15 -3.8 -2.1 -4.0 -1.25 -5.7 -1.15 -5.9 -1.05 -6.1 -1.0 -6.1 -0.95 -6.2 -0.95 -6.4 -0.9 -6.4 -0.85 -6.45 0.35 -6.95 0.75 -7.1 M1.15 -1.6 L1.2 -1.65 1.3 -1.65 1.55 -1.7 2.2 -1.9 2.3 -1.95 2.45 -1.95 2.8 -2.1 2.9 -2.1 3.1 -2.1 3.6 -2.15 4.3 -2.25 4.35 -2.25 4.35 -2.2 4.05 -2.05 3.85 -1.75 3.8 -1.7 3.7 -1.5 3.65 -1.45 3.3 -0.8 3.1 -0.3 2.85 0.3 2.8 0.45 2.6 1.3 2.55 1.4 2.05 3.1 2.0 3.15 Q2.4 3.55 2.95 3.5 L3.3 3.35 4.0 3.05 4.85 2.65 5.3 2.45 5.45 2.45 5.75 2.3 6.75 1.95 7.05 1.85 7.55 1.8 7.95 1.7 8.3 1.65 8.1 1.9 7.95 2.15 7.85 2.35 7.8 2.45 7.4 3.25 7.2 3.85 7.1 4.05 6.8 4.75 6.75 4.95 6.65 5.25 6.45 5.8 6.3 6.5 6.15 6.8 6.1 6.8 4.5 6.9 3.8 6.85 3.6 6.8 3.65 6.85 3.35 6.8 2.15 6.6 3.05 6.0 3.35 5.8 5.85 3.95 5.95 3.8 6.0 3.75 5.85 3.6 5.65 3.65 Q4.85 3.75 3.75 4.2 L3.5 4.15 3.3 4.1 2.8 4.25 2.6 4.35 2.4 4.4 2.35 4.4 2.0 4.55 1.95 4.6 1.5 4.85 1.25 4.95 1.2 5.0 0.7 5.25 0.2 5.45 -0.15 5.85 Q-0.4 6.2 -0.25 6.6 L-8.2 11.2 -8.15 11.9 -8.2 13.05 -9.5 13.5 -11.25 14.55 -11.3 14.6 -11.55 14.7 -11.6 14.75 -11.85 14.9 -11.9 14.9 -11.95 14.95 -12.0 14.95 -13.2 15.65 -13.3 15.65 -12.25 17.45 -13.55 18.15 -15.05 17.55 -17.2 18.7 -18.8 19.6 Q-19.35 19.8 -19.9 20.15 L-19.95 20.35 -20.3 19.8 -22.25 20.95 -22.7 20.85 -22.75 20.8 -23.5 20.6 -24.25 20.5 -24.4 20.4 -24.75 20.6 -24.8 20.65 -25.05 20.85 -25.45 21.2 -25.55 21.25 -25.9 21.4 -25.95 21.45 -25.9 21.45 -25.9 21.55 -26.2 21.7 -27.15 22.15 -27.4 22.4 -27.5 22.4 -27.55 22.35 -27.6 22.4 -27.7 22.35 -27.85 22.3 -27.9 22.3 -28.55 22.1 -29.9 21.4 -30.1 20.95 -30.15 20.85 -30.2 20.75 -30.7 19.85 -31.5 18.3 -31.65 18.0 -31.55 17.0 -31.35 16.15 -31.35 16.1 -30.0 15.3 -29.65 15.1 -29.7 15.05 -29.55 15.0 -29.5 15.0 -29.35 14.85 -29.2 14.85 -28.35 14.4 -28.3 14.35 -28.25 14.2 -28.0 13.7 -28.05 13.7 -27.95 13.5 -27.95 13.35 -28.0 13.25 -27.9 12.7 -27.95 12.5 -27.95 12.4 -27.9 12.2 -27.55 11.95 -27.25 11.8 -27.15 11.7 -26.95 11.65 -26.85 11.6 -26.7 11.5 -26.45 11.45 -25.7 11.1 -25.6 11.1 -25.4 10.95 -24.55 10.65 -23.5 10.1 -22.9 10.2 Q-22.4 10.3 -21.9 10.65 L-18.45 8.65 -18.25 7.4 -18.3 7.35 -18.25 7.05 -18.25 6.85 -18.25 6.75 -18.15 6.65 -18.1 6.6 -17.8 6.4 -17.05 5.9 -16.7 5.75 -16.5 5.6 -16.0 5.45 -14.5 4.75 -14.45 4.7 -13.55 4.25 -12.6 4.05 Q-12.25 4.05 -11.8 4.3 L-11.4 4.6 -3.65 0.05 -3.45 0.1 -2.85 -0.1 -2.6 -0.1 -2.05 -0.2 -0.95 -1.05 -0.95 -1.1 -0.85 -1.15 -0.8 -1.15 -0.7 -1.2 -0.6 -1.25 -0.15 -1.3 -0.1 -1.3 0.05 -1.35 1.15 -1.6 M14.95 -2.6 L14.9 -2.55 14.9 -2.6 14.95 -2.6 M10.2 7.5 L10.25 7.6 10.25 7.75 10.25 7.9 10.5 7.35 10.5 7.3 11.05 6.05 11.05 6.0 11.45 5.0 11.3 5.0 11.2 5.1 10.75 5.6 8.0 7.05 7.5 7.35 7.5 7.3 7.8 6.5 7.85 6.4 8.0 5.95 8.15 5.6 8.25 5.4 8.3 5.2 8.75 4.3 8.95 3.9 9.15 3.5 9.25 3.3 9.35 3.15 9.35 3.1 9.4 3.1 9.45 3.0 9.45 2.8 9.5 2.8 9.7 2.55 9.75 2.55 9.95 2.35 11.35 1.1 12.15 0.4 12.15 0.35 12.2 0.3 12.9 -0.55 13.1 -0.8 13.15 -0.95 13.25 -0.95 13.3 -1.0 14.7 -2.2 14.75 -2.15 14.75 -2.1 14.85 -2.1 14.9 -2.05 14.95 -2.1 15.0 -2.1 15.3 -2.45 15.3 -2.5 15.35 -2.45 15.35 -5.15 21.15 -10.5 25.5 -11.1 25.7 -11.15 25.8 -11.25 25.85 -11.25 26.25 -11.45 26.25 -11.5 26.35 -11.65 26.9 -12.6 27.0 -12.75 27.85 -14.1 27.95 -14.35 27.95 -14.3 28.05 -14.4 28.4 -14.6 30.9 -15.85 32.1 -15.85 35.05 -15.65 37.0 -15.65 37.15 -15.6 38.55 -15.25 38.75 -15.15 39.05 -15.05 39.0 -14.95 38.75 -14.8 Q37.6 -14.6 35.45 -13.45 L33.15 -12.15 32.45 -11.7 32.0 -10.95 31.85 -6.4 31.8 -6.05 31.75 -6.0 32.8 -4.45 32.85 -4.4 36.05 0.35 35.85 1.1 39.85 3.15 39.9 3.2 40.8 3.15 41.5 2.8 41.95 2.55 43.8 1.45 46.6 -0.7 46.85 -0.9 46.95 -0.85 46.9 -0.55 Q46.8 0.8 46.4 1.1 L46.4 1.25 45.5 2.85 43.6 6.6 40.9 8.35 40.8 8.35 40.8 8.4 40.3 8.4 38.95 8.4 38.75 8.45 37.9 8.45 37.65 8.45 37.5 8.45 37.0 8.75 36.95 8.75 Q36.9 8.75 36.8 8.85 L36.8 8.9 36.75 8.9 36.8 9.0 35.8 11.6 34.35 12.2 33.0 12.65 32.3 12.95 31.05 13.3 30.5 13.45 29.25 13.8 28.9 13.85 28.5 13.9 27.45 14.05 25.15 14.45 24.35 14.25 24.3 14.2 24.25 14.2 Q23.75 13.65 23.0 13.65 L22.75 13.65 22.8 13.7 21.75 13.75 21.1 13.9 21.05 13.95 Q20.75 14.0 20.6 14.15 L20.35 14.4 20.3 14.45 20.25 14.45 20.2 14.5 Q19.9 14.65 19.55 14.9 L19.4 15.05 19.15 15.25 19.15 15.2 19.0 15.3 18.85 15.4 18.5 15.6 18.15 15.6 17.75 15.7 17.3 15.8 17.25 15.8 16.55 15.95 16.5 16.0 14.9 16.1 14.2 16.05 14.0 16.0 14.05 16.05 13.75 16.0 12.55 15.8 13.45 15.2 13.75 15.0 16.25 13.15 16.35 13.0 16.4 12.95 16.25 12.8 Q15.45 12.85 14.15 13.4 L13.7 13.3 13.2 13.45 13.0 13.55 12.8 13.6 12.75 13.6 12.4 13.75 12.35 13.8 11.9 14.05 11.65 14.15 11.6 14.2 11.1 14.45 10.6 14.65 Q9.9 15.2 10.15 15.8 L2.2 20.4 2.25 21.1 2.2 22.25 0.9 22.7 -0.85 23.75 -1.15 23.9 -1.2 23.95 -1.45 24.1 -1.5 24.1 -1.55 24.15 -1.6 24.15 -1.65 24.2 -2.8 24.85 -2.9 24.85 -0.35 29.3 4.7 26.4 11.0 37.3 4.4 41.15 2.3 37.55 3.05 37.15 3.2 37.05 4.6 36.25 4.55 36.2 1.9 31.5 1.85 31.45 -7.5 36.85 -4.75 41.65 -2.2 40.2 -0.3 43.8 -0.75 44.1 -0.75 44.15 -6.05 47.15 -12.35 36.25 -7.4 33.35 -9.9 29.0 -11.85 30.15 -12.3 30.05 -12.35 30.0 -13.1 29.8 -13.85 29.7 -14.0 29.6 -14.2 29.7 -14.35 29.8 -14.4 29.85 -14.65 30.05 -15.05 30.4 -15.15 30.45 -15.5 30.6 -15.55 30.65 -15.5 30.65 -15.5 30.75 -15.8 30.9 -16.0 31.0 -16.75 31.35 -17.05 31.6 -17.1 31.6 -17.15 31.55 -17.2 31.6 -17.3 31.55 -17.45 31.5 -17.5 31.5 -18.15 31.3 -18.6 31.1 -19.5 30.6 -19.7 30.15 -19.75 30.05 -19.8 29.95 -21.25 27.2 -21.2 26.6 -21.15 26.1 -20.95 25.35 -20.95 25.3 -19.6 24.5 -19.25 24.3 -19.3 24.25 -18.95 24.05 -18.8 24.05 -17.95 23.6 -17.9 23.55 -17.85 23.4 -17.6 22.9 -17.65 22.9 -17.55 22.7 -17.55 22.55 -17.6 22.45 -17.5 21.9 -17.55 21.7 -17.55 21.6 -17.5 21.4 -17.15 21.15 -16.85 21.0 -16.75 20.9 -16.55 20.85 -16.45 20.8 -16.3 20.7 -16.05 20.65 -15.3 20.3 -15.2 20.3 -15.0 20.15 -14.15 19.85 -13.1 19.3 Q-12.3 19.3 -11.5 19.85 L-8.05 17.85 -7.85 16.6 -7.9 16.55 -7.85 16.05 -7.85 15.95 -7.75 15.85 -7.4 15.6 -6.65 15.1 -6.3 14.95 -6.1 14.8 -5.6 14.65 -4.1 13.95 -4.05 13.9 -3.2 13.5 -3.15 13.45 -2.2 13.25 Q-1.8 13.25 -1.3 13.6 L-1.0 13.8 6.75 9.25 6.95 9.3 7.55 9.1 7.8 9.1 8.35 9.0 9.45 8.15 9.45 8.1 9.55 8.05 9.6 8.05 9.7 8.0 9.85 7.9 10.1 7.6 10.2 7.5 10.25 7.4 10.25 7.45 10.2 7.5 M41.5 21.7 L41.4 21.95 38.0 26.0 35.55 28.25 33.35 30.05 32.3 30.9 29.8 32.75 23.6 32.95 22.05 32.95 21.3 33.05 20.2 33.1 18.7 33.05 18.65 33.05 17.35 33.05 17.3 32.95 17.65 32.7 17.85 32.6 18.55 32.35 19.65 32.0 19.75 31.95 19.85 31.95 19.9 31.9 20.65 31.35 21.3 30.8 21.85 30.4 22.25 30.05 25.25 27.6 25.6 27.25 25.65 27.2 25.55 27.05 24.6 26.15 24.5 26.25 22.15 26.65 21.25 26.7 17.95 26.9 17.8 26.85 17.8 26.7 17.6 26.7 17.5 26.75 17.55 26.7 17.95 26.4 18.3 26.05 18.4 25.95 18.7 25.65 19.2 24.95 20.9 23.2 21.25 22.65 21.85 21.7 21.6 20.95 21.6 20.85 17.85 21.25 17.7 21.25 16.85 21.3 16.25 21.3 15.8 21.3 15.55 21.35 15.75 21.2 15.9 21.0 15.95 21.05 16.05 20.9 16.1 20.9 16.15 20.85 16.35 20.7 17.1 20.1 17.55 19.85 17.6 19.85 18.3 19.05 18.75 18.6 19.25 18.15 19.45 17.9 19.55 17.85 19.55 17.75 19.5 17.05 19.4 16.9 19.25 16.7 19.25 16.65 19.45 16.25 19.85 15.95 20.15 15.8 21.45 15.2 21.7 15.05 22.75 14.8 23.15 14.9 23.0 14.95 23.0 15.0 23.15 14.95 23.4 15.0 23.35 15.15 23.45 15.25 23.4 15.4 24.25 16.65 24.45 16.9 25.7 18.55 25.95 18.85 27.15 20.35 28.0 21.3 29.35 21.7 30.6 21.95 32.3 22.2 34.85 22.35 35.3 22.35 35.65 22.35 41.5 21.7 M27.4 16.1 L28.0 15.95 28.05 15.85 28.45 15.75 28.65 15.7 27.6 16.8 27.0 17.4 26.55 16.85 26.3 16.55 26.15 16.25 27.35 16.15 27.4 16.1 M3.15 8.5 L-2.05 11.5 -2.6 11.35 -2.4 11.15 -2.05 10.8 -1.65 10.4 -1.4 10.05 1.4 8.2 1.5 8.25 2.5 8.5 2.55 8.5 2.85 8.5 3.15 8.5 M6.95 23.85 L6.9 23.75 7.25 23.5 7.45 23.4 8.15 23.15 9.25 22.8 9.35 22.75 9.45 22.75 9.5 22.7 10.25 22.15 10.9 21.6 Q11.1 21.45 11.45 21.2 L11.85 20.85 14.85 18.4 15.2 18.05 15.25 18.0 15.15 17.85 14.95 17.65 17.0 17.6 17.05 17.55 16.6 18.0 16.4 18.25 Q16.05 18.55 15.75 18.8 L15.6 19.05 15.05 19.65 14.95 19.75 14.85 19.85 14.55 20.1 14.6 20.15 13.4 21.25 12.6 21.9 12.6 22.05 12.55 22.15 12.6 22.1 12.7 22.65 12.75 22.75 13.4 22.95 15.3 23.15 15.35 23.1 16.1 23.1 16.3 23.15 16.6 23.15 16.8 23.15 16.9 23.15 17.25 23.15 17.8 23.15 17.95 23.1 18.1 23.1 17.85 23.65 17.85 23.7 13.2 23.75 11.65 23.75 10.9 23.85 9.8 23.9 8.3 23.85 8.25 23.85 6.95 23.85 M11.9 17.45 L11.75 17.45 11.8 17.4 11.9 17.45 M-16.1 -25.85 L-19.05 -24.95 -20.65 -24.45 Q-20.8 -24.35 -20.9 -24.35 L-21.1 -24.2 -23.9 -22.6 -23.95 -22.6 -24.05 -22.55 -25.05 -21.95 -25.0 -22.05 -24.75 -22.55 -24.65 -22.8 -24.55 -23.0 -24.4 -23.25 -24.25 -23.45 -23.85 -24.2 -22.4 -26.35 -22.2 -26.7 -22.15 -26.9 -18.85 -32.25 -12.1 -34.9 Q-7.35 -36.55 -3.65 -36.85 L-3.45 -36.85 -3.7 -36.45 -5.05 -34.05 -6.45 -31.65 -6.8 -31.05 -7.4 -29.95 -7.8 -29.15 -9.8 -28.3 -10.8 -27.45 -14.2 -21.9 -14.2 -21.8 -15.35 -20.15 -15.55 -19.75 -15.6 -19.8 -16.1 -19.8 -16.15 -19.8 -16.25 -19.8 -16.8 -19.75 -17.3 -19.6 -17.6 -19.5 -19.35 -18.85 -19.4 -18.95 -18.85 -19.75 Q-18.9 -20.4 -15.7 -24.4 L-15.8 -24.95 -16.1 -25.85 M-24.45 -1.3 L-24.4 -1.35 -23.5 -1.8 -22.55 -2.0 Q-22.0 -2.0 -21.35 -1.45 L-13.6 -6.0 -13.4 -5.95 -12.8 -6.15 -12.55 -6.15 -12.0 -6.25 -10.9 -7.1 -10.9 -7.15 -10.8 -7.2 -10.75 -7.2 -10.65 -7.25 -10.5 -7.35 -10.25 -7.65 -10.1 -7.85 -10.15 -7.75 -10.1 -7.65 -10.1 -7.5 -10.1 -7.35 -9.85 -7.95 -8.9 -10.25 -9.05 -10.25 -9.15 -10.15 -9.6 -9.65 -12.35 -8.2 -12.85 -7.9 -12.85 -7.95 -12.55 -8.75 -12.35 -9.3 -12.2 -9.65 -12.1 -9.85 -12.05 -10.05 -11.95 -10.2 -11.6 -10.4 -10.35 -10.55 -9.25 -10.8 -9.2 -10.85 -9.1 -10.85 -8.2 -11.1 -8.15 -11.1 -8.1 -11.15 -7.95 -11.15 -7.6 -11.3 -7.5 -11.3 -7.3 -11.3 -6.75 -11.35 -6.05 -11.45 -6.05 -11.4 -6.35 -11.25 -6.6 -10.9 -6.75 -10.65 -7.1 -10.0 -7.3 -9.5 -7.55 -8.9 -7.6 -8.75 -7.85 -7.8 -8.2 -6.65 -8.4 -6.05 -7.9 -5.75 -7.15 -5.8 -7.3 -5.4 -7.4 -4.8 -7.5 -3.6 -7.25 -3.5 -6.8 -3.25 -5.75 -4.0 -5.55 -4.15 -4.45 -4.7 -3.65 -5.1 -3.6 -5.15 -3.25 -5.3 -3.3 -5.15 -3.4 -4.9 -3.6 -4.45 -3.65 -4.25 -3.75 -3.95 -3.85 -3.65 -3.85 -3.55 -3.95 -3.4 -4.1 -2.7 -4.25 -2.4 -6.2 -1.85 -6.65 -1.95 -7.15 -1.8 -7.35 -1.7 -7.55 -1.65 -7.6 -1.65 -7.95 -1.5 -8.0 -1.45 -8.45 -1.2 -8.7 -1.1 -8.75 -1.05 -9.25 -0.8 -9.75 -0.6 Q-10.45 -0.05 -10.2 0.55 L-12.95 2.15 -13.35 2.05 -14.45 1.85 -20.25 5.1 -20.3 5.2 -20.35 5.3 -20.4 5.4 -20.75 6.4 -21.1 7.3 -23.95 8.95 -24.6 8.7 -25.45 8.35 -27.6 9.5 -28.6 10.05 -29.2 10.4 -29.9 10.75 -30.3 10.95 -30.7 12.3 -30.95 13.0 -32.6 13.95 -33.15 14.4 -33.35 14.5 -33.45 14.55 -34.2 14.45 -34.35 14.35 -34.7 14.55 -34.75 14.6 -35.0 14.8 -35.4 15.15 -35.5 15.2 -35.85 15.35 -35.9 15.4 -35.85 15.4 -35.85 15.5 -36.15 15.65 -37.1 16.1 -37.4 16.35 -37.45 16.35 -37.5 16.3 -37.55 16.35 -37.65 16.3 -37.8 16.25 -37.85 16.25 -38.5 16.05 -39.85 15.35 -40.05 14.9 -40.1 14.8 -40.15 14.7 -41.6 11.95 -41.3 10.1 -41.3 10.05 -39.95 9.25 -39.6 9.05 -39.65 9.0 -39.3 8.8 -39.15 8.8 -37.95 8.15 -38.25 8.3 -38.2 8.15 -37.95 7.65 -38.0 7.65 -37.9 7.45 -37.9 7.3 -37.95 7.2 -37.85 6.65 -37.9 6.45 -37.9 6.35 -37.85 6.15 -37.5 5.9 -37.2 5.75 -37.1 5.65 -36.9 5.6 -36.8 5.55 -36.65 5.45 -36.4 5.4 -35.65 5.05 -35.55 5.05 -35.35 4.9 -34.5 4.6 -33.45 4.05 Q-32.65 4.05 -31.85 4.6 L-28.4 2.6 -28.2 1.35 -28.25 1.3 -28.2 0.8 -28.2 0.7 -28.1 0.6 -27.75 0.35 -27.0 -0.15 -26.65 -0.3 -26.45 -0.45 -25.95 -0.6 -24.45 -1.3 M-30.95 23.45 L-30.85 23.4 -30.8 23.5 -30.0 23.9 -28.75 24.65 -28.4 24.75 -28.0 24.8 -27.95 24.8 -26.5 23.95 -25.1 26.4 -24.7 26.2 -24.85 27.25 -23.2 30.1 -26.4 31.9 -32.7 21.0 -32.6 20.95 -30.95 23.45 M-17.55 34.0 L-14.5 32.2 -14.3 32.25 -13.9 32.4 -13.75 32.4 -12.95 32.7 -12.4 32.8 -11.8 32.55 -11.2 33.6 -14.3 35.35 -14.45 36.45 -14.3 36.75 -16.45 37.95 -19.05 33.5 -18.35 33.85 -18.0 33.95 -17.6 34.0 -17.55 34.0" fill="#ff0000" fill-rule="evenodd" stroke="none"/>
  </g>
</svg>
