<?xml version="1.0" encoding="UTF-8" standalone="no"?>
<svg xmlns:ffdec="https://www.free-decompiler.com/flash" xmlns:xlink="http://www.w3.org/1999/xlink" ffdec:objectType="shape" height="26.25px" width="37.05px" xmlns="http://www.w3.org/2000/svg">
  <g transform="matrix(1.0, 0.0, 0.0, 1.0, 42.95, 38.95)">
    <path d="M-36.55 -24.8 L-37.75 -24.75 -38.15 -24.75 -40.25 -25.05 -41.05 -25.15 Q-41.8 -25.2 -41.9 -25.7 -42.95 -29.05 -38.25 -27.65 L-37.5 -27.4 -39.55 -27.1 Q-39.35 -26.7 -37.85 -26.2 L-35.95 -26.2 -35.4 -25.95 -33.6 -25.55 -33.75 -25.4 -32.2 -25.15 -33.85 -25.35 -34.65 -25.2 -35.4 -25.05 -36.55 -24.8 M-31.75 -25.4 L-31.5 -25.4 -31.1 -25.2 -31.1 -25.05 -31.4 -24.95 -32.05 -25.05 -31.8 -25.2 -31.75 -25.4 M-8.9 -37.95 L-8.6 -37.95 -8.0 -38.2 -7.45 -38.05 -7.2 -37.9 -6.95 -37.45 -7.25 -37.25 Q-7.25 -37.05 -7.6 -37.0 L-7.9 -36.9 -8.8 -36.75 -8.6 -37.15 -8.75 -37.9 -8.9 -37.95 M-24.65 -26.85 L-23.7 -28.7 -22.5 -28.95 Q-21.15 -30.95 -20.35 -28.3 L-20.25 -27.05 -20.45 -25.85 -20.35 -25.75 -20.05 -26.0 -20.0 -26.25 -19.45 -26.5 -19.4 -26.6 Q-18.4 -27.3 -16.7 -27.5 L-15.55 -27.5 -15.65 -27.75 -13.75 -27.8 -13.55 -27.75 -13.25 -27.8 -13.05 -27.75 Q-12.55 -27.5 -12.45 -27.05 -12.4 -26.9 -12.65 -26.7 L-13.35 -25.65 Q-13.2 -25.4 -12.95 -25.45 L-12.4 -25.85 Q-12.4 -25.8 -12.25 -25.9 L-12.2 -26.05 -12.2 -25.85 -10.7 -25.6 -10.35 -25.45 -10.2 -25.4 -10.05 -25.2 -10.1 -25.2 -10.05 -24.9 -9.7 -23.35 Q-10.35 -21.55 -14.1 -19.45 L-13.1 -19.0 -13.05 -18.95 -12.5 -18.4 Q-11.9 -18.4 -11.75 -18.0 L-11.8 -17.95 -11.75 -17.65 -11.75 -17.55 -11.85 -17.5 -12.0 -17.55 -12.0 -17.35 -12.05 -17.4 -12.2 -17.1 Q-12.65 -16.5 -13.75 -16.3 L-15.8 -16.1 -16.3 -16.25 -17.5 -16.4 -17.6 -16.45 -18.8 -16.5 -18.9 -16.5 -18.3 -16.1 -20.0 -15.8 -20.35 -14.95 -21.5 -15.35 -21.65 -15.4 -21.75 -15.4 -21.65 -15.45 Q-21.05 -15.65 -20.6 -16.65 L-20.35 -17.75 -18.45 -17.35 -15.65 -17.1 -14.55 -17.5 Q-14.1 -17.8 -14.25 -18.05 -14.2 -18.4 -15.25 -18.9 L-15.55 -19.05 Q-13.4 -20.0 -12.2 -21.6 L-11.6 -23.65 Q-11.8 -24.7 -12.95 -24.75 L-15.5 -24.55 -17.2 -24.4 -17.0 -24.8 -16.95 -25.3 -17.35 -25.8 -17.4 -25.85 -20.25 -25.2 -20.5 -25.35 Q-20.6 -25.2 -20.7 -25.2 L-21.15 -24.6 -22.05 -27.5 Q-22.95 -27.2 -23.35 -26.7 L-23.9 -24.35 -23.8 -23.9 -23.95 -24.0 -24.35 -23.25 -24.85 -23.3 -24.65 -23.85 -24.9 -23.65 -25.15 -23.85 -25.05 -24.35 -26.15 -24.3 -27.0 -23.85 -26.85 -23.45 Q-26.7 -22.75 -25.55 -21.9 -24.25 -21.15 -24.25 -20.7 L-25.65 -19.35 -26.85 -17.4 -26.95 -17.15 -26.45 -16.4 Q-25.9 -15.95 -25.4 -15.95 L-25.25 -16.05 -23.35 -16.5 -22.95 -17.1 Q-22.6 -15.65 -22.05 -15.45 L-22.7 -15.55 -22.35 -15.2 -22.55 -15.1 -22.8 -14.4 -23.2 -13.8 -23.5 -13.85 Q-24.75 -13.5 -25.25 -14.65 L-25.4 -14.65 -25.55 -15.0 -25.9 -15.0 -26.55 -14.5 Q-27.25 -14.35 -27.75 -14.5 L-28.15 -14.5 Q-29.45 -14.8 -29.85 -15.3 L-30.15 -16.25 Q-30.45 -17.4 -29.45 -18.7 L-28.75 -19.3 -28.5 -19.55 -28.25 -19.85 -25.9 -20.7 -25.8 -20.75 Q-25.7 -20.85 -25.9 -21.25 L-25.95 -21.55 -27.1 -21.0 -27.35 -21.25 -27.45 -21.3 -27.5 -21.4 -27.65 -21.65 -28.7 -22.7 -28.9 -23.75 -28.7 -23.75 -28.9 -23.9 -28.4 -24.3 -25.4 -24.5 -25.0 -24.4 -24.8 -25.85 -24.8 -26.25 Q-24.65 -26.5 -24.65 -26.85 M-35.15 -36.3 L-34.35 -37.3 -33.95 -37.4 -33.2 -37.6 -33.05 -37.65 -32.9 -37.6 -32.85 -37.6 -32.55 -37.45 -32.45 -37.35 -32.15 -37.05 -32.05 -36.65 Q-31.9 -36.3 -32.2 -35.45 L-32.2 -35.3 Q-32.45 -34.65 -32.8 -34.4 L-33.0 -34.9 -33.45 -35.75 Q-33.75 -36.1 -34.3 -36.1 -35.2 -36.2 -35.35 -35.65 L-35.3 -36.05 -35.25 -36.0 -35.15 -36.3 M-33.05 -36.85 L-33.2 -36.85 -33.0 -36.35 -32.95 -36.4 -33.05 -36.85 M-33.6 -35.0 L-33.75 -34.8 -34.1 -35.05 -34.2 -35.35 -33.75 -35.35 Q-33.85 -35.2 -33.6 -35.0 M-37.65 -31.4 L-37.5 -31.4 -37.4 -31.3 -37.65 -31.4 M-37.95 -26.95 L-37.25 -27.0 -37.25 -26.9 -37.95 -26.95 M-32.3 -30.1 L-31.6 -29.85 -28.55 -28.8 Q-28.4 -28.55 -28.55 -29.1 L-28.7 -29.25 -28.0 -29.45 Q-27.55 -29.85 -27.6 -30.25 L-27.6 -30.8 Q-27.8 -31.45 -28.25 -31.95 -26.05 -33.15 -26.3 -34.15 L-26.5 -34.45 -26.55 -34.5 Q-26.85 -36.05 -29.15 -34.6 L-29.2 -34.65 -28.9 -35.7 -28.5 -35.7 -28.3 -35.3 -27.6 -35.55 -27.55 -35.45 -26.85 -35.75 Q-26.7 -35.7 -26.85 -35.8 L-24.95 -36.1 Q-24.65 -35.45 -25.4 -34.0 -25.95 -32.45 -26.7 -32.2 L-26.5 -31.65 -26.15 -30.55 Q-26.15 -29.9 -26.7 -29.6 L-26.75 -28.85 -26.55 -28.8 Q-26.45 -28.65 -26.95 -28.5 -29.15 -27.8 -31.0 -28.85 L-32.3 -30.1 M-32.2 -30.9 L-31.9 -31.65 -31.8 -30.9 -32.2 -30.9 M-27.0 -34.25 L-27.25 -33.9 Q-27.35 -34.25 -27.6 -34.3 L-27.35 -34.3 -26.95 -34.3 -27.0 -34.25 M-28.25 -31.15 L-28.0 -30.7 Q-27.85 -30.25 -28.25 -29.85 L-28.4 -29.8 Q-28.0 -30.1 -28.15 -30.75 L-28.4 -31.3 -28.25 -31.15 M-27.75 -32.55 L-28.25 -32.15 -27.1 -33.75 -26.85 -34.15 -26.7 -34.0 Q-26.5 -33.4 -27.75 -32.55 M-29.15 -29.7 L-29.05 -29.7 -29.2 -29.65 -29.15 -29.7 M-22.95 -28.05 L-22.85 -28.3 -23.1 -28.25 -23.2 -27.5 -22.95 -28.05 M-33.75 -19.1 Q-33.0 -18.4 -32.55 -18.55 -32.2 -18.45 -32.05 -18.7 L-32.2 -19.7 Q-32.45 -20.1 -33.2 -20.2 L-34.15 -20.25 Q-34.15 -20.15 -34.35 -20.15 L-34.25 -19.95 Q-34.25 -19.6 -33.75 -19.1 M-31.7 -18.85 L-31.95 -18.55 Q-32.2 -18.3 -32.75 -18.3 L-34.9 -18.2 -35.85 -19.05 Q-34.5 -21.15 -33.35 -21.0 -32.4 -20.65 -31.95 -19.7 L-31.7 -18.85 M-12.5 -22.3 L-13.45 -21.05 Q-13.1 -21.75 -13.25 -22.2 L-13.35 -22.45 -17.2 -19.6 Q-16.7 -20.0 -14.85 -21.75 -12.95 -23.6 -13.1 -23.75 L-13.7 -24.2 -13.55 -24.25 Q-12.25 -24.2 -12.1 -23.6 -12.05 -23.2 -12.5 -22.3" fill="#ffff0f" fill-rule="evenodd" stroke="none"/>
    <path d="M-37.75 -24.75 Q-39.85 -23.9 -41.3 -24.4 -42.35 -24.7 -42.6 -25.35 -44.3 -30.15 -37.95 -28.5 L-37.35 -28.4 Q-34.9 -27.8 -32.3 -26.45 L-31.8 -26.1 -29.85 -24.95 -29.8 -24.4 -30.25 -24.15 -31.15 -24.2 -33.6 -24.2 -34.15 -24.3 -36.55 -24.8 -35.4 -25.05 -34.65 -25.2 -33.85 -25.35 -32.2 -25.15 -32.05 -25.05 -31.4 -24.95 -31.1 -25.05 -31.1 -25.2 -31.5 -25.4 -31.75 -25.4 -31.9 -25.45 Q-31.9 -26.0 -34.8 -26.9 L-36.75 -27.3 -37.5 -27.4 -38.25 -27.65 Q-42.95 -29.05 -41.9 -25.7 -41.8 -25.2 -41.05 -25.15 L-40.25 -25.05 -38.15 -24.75 -37.75 -24.75 M-8.8 -36.75 L-7.9 -36.9 -7.6 -37.0 Q-7.25 -37.05 -7.25 -37.25 L-6.95 -37.45 -7.2 -37.9 -7.45 -38.05 -8.0 -38.2 -8.6 -37.95 -8.9 -37.95 -10.3 -37.55 -10.05 -36.35 -9.15 -36.4 Q-8.9 -36.45 -8.8 -36.75 M-6.15 -38.15 L-5.9 -37.35 Q-6.05 -36.9 -7.05 -36.4 L-8.75 -35.7 Q-9.8 -35.35 -10.2 -35.7 L-10.6 -36.4 -10.65 -37.4 -10.5 -38.3 -9.35 -38.75 -7.35 -38.9 Q-6.3 -38.7 -6.15 -38.15 M-18.3 -16.1 L-18.9 -16.5 -18.8 -16.5 -17.6 -16.45 -17.5 -16.4 -16.3 -16.25 -15.8 -16.1 -13.75 -16.3 Q-12.65 -16.5 -12.2 -17.1 L-12.05 -17.4 -12.0 -17.35 -12.0 -17.55 -11.85 -17.5 -11.75 -17.55 -11.75 -17.65 -11.8 -17.95 -11.75 -18.0 Q-11.9 -18.4 -12.5 -18.4 L-13.05 -18.95 -13.1 -19.0 -14.1 -19.45 Q-10.35 -21.55 -9.7 -23.35 L-10.05 -24.9 -10.1 -25.2 -10.05 -25.2 -10.2 -25.4 -10.35 -25.45 -10.7 -25.6 -12.2 -25.85 -12.2 -26.05 -12.25 -25.9 Q-12.4 -25.8 -12.4 -25.85 L-12.95 -25.45 Q-13.2 -25.4 -13.35 -25.65 L-12.65 -26.7 Q-12.4 -26.9 -12.45 -27.05 -12.55 -27.5 -13.05 -27.75 L-13.25 -27.8 -13.55 -27.75 -13.75 -27.8 -15.65 -27.75 -15.55 -27.5 -16.7 -27.5 Q-18.4 -27.3 -19.4 -26.6 L-19.45 -26.5 -20.0 -26.25 -20.05 -26.0 -20.35 -25.75 -20.45 -25.85 -20.25 -27.05 -20.35 -28.3 Q-21.15 -30.95 -22.5 -28.95 L-23.7 -28.7 -24.65 -26.85 Q-24.0 -30.6 -22.05 -30.8 -20.2 -30.95 -19.4 -28.45 L-19.15 -27.75 -19.3 -27.05 Q-16.1 -28.4 -13.8 -28.7 L-13.6 -28.7 -13.35 -28.8 -13.25 -28.95 -13.2 -29.05 -12.8 -28.8 -12.65 -28.85 -12.3 -28.45 Q-11.8 -27.95 -11.5 -26.75 L-11.15 -26.9 Q-10.05 -27.0 -9.45 -26.0 L-9.05 -24.75 -8.9 -24.15 -8.75 -24.1 -8.75 -23.9 -8.75 -23.65 -8.75 -23.5 -8.9 -23.05 Q-9.3 -21.3 -11.95 -19.45 L-11.0 -18.2 Q-10.85 -17.75 -11.1 -17.4 L-11.0 -17.25 -10.85 -16.75 -10.85 -16.7 -11.6 -15.95 -13.15 -15.35 -13.45 -15.55 -14.0 -15.4 -15.15 -15.7 -15.4 -15.85 -15.55 -15.95 -15.55 -15.8 -16.05 -15.85 -18.3 -16.1 M-24.8 -25.85 L-25.0 -24.4 -25.4 -24.5 -28.4 -24.3 -28.9 -23.9 -28.7 -23.75 -28.9 -23.75 -28.7 -22.7 -27.65 -21.65 -27.5 -21.4 -29.05 -22.2 -29.55 -23.2 -29.7 -23.9 -29.0 -24.9 -26.4 -25.7 -25.4 -25.65 -24.8 -25.85 M-27.35 -21.25 L-27.1 -21.0 -25.95 -21.55 -25.9 -21.25 Q-25.7 -20.85 -25.8 -20.75 L-25.9 -20.7 -28.25 -19.85 -28.5 -19.55 -28.75 -19.3 -29.45 -18.7 Q-30.45 -17.4 -30.15 -16.25 L-29.85 -15.3 Q-29.45 -14.8 -28.15 -14.5 L-27.75 -14.5 Q-27.25 -14.35 -26.55 -14.5 L-25.9 -15.0 -25.55 -15.0 -25.4 -14.65 -25.25 -14.65 Q-24.75 -13.5 -23.5 -13.85 L-23.2 -13.8 -22.8 -14.4 -22.55 -15.1 -22.35 -15.2 -22.7 -15.55 -22.05 -15.45 -21.9 -15.45 -21.8 -15.45 -21.75 -15.4 -21.65 -15.4 -21.5 -15.35 -20.35 -14.95 -20.45 -14.5 -20.5 -14.1 -20.6 -14.0 -20.75 -13.85 -21.75 -14.25 -21.9 -14.0 -22.35 -13.2 -24.35 -12.7 Q-25.4 -12.9 -25.65 -13.2 L-25.9 -14.05 -25.8 -14.2 -27.55 -13.85 Q-28.9 -13.5 -29.8 -14.3 L-30.6 -15.45 Q-30.9 -16.55 -30.6 -17.8 L-30.6 -18.1 Q-30.35 -18.2 -30.45 -18.3 L-29.3 -19.85 -27.35 -21.25 M-32.85 -37.6 L-32.9 -37.6 -33.05 -37.65 -33.2 -37.6 -33.95 -37.4 -34.35 -37.3 -35.15 -36.3 -35.6 -36.6 -35.35 -36.85 Q-34.2 -38.5 -32.95 -38.5 -32.15 -38.5 -31.65 -37.55 L-31.55 -37.3 -31.45 -35.75 Q-31.5 -34.15 -32.95 -33.6 L-34.2 -33.5 -35.05 -33.75 -35.3 -33.85 Q-35.95 -34.3 -36.05 -34.9 L-36.05 -35.45 -35.85 -36.0 -35.4 -36.05 -35.3 -36.05 -35.35 -35.65 -35.4 -35.6 -35.35 -34.95 -34.9 -34.45 -34.8 -34.3 Q-34.4 -34.0 -34.1 -34.0 L-33.35 -33.8 -32.85 -33.9 -32.85 -34.0 -32.8 -34.3 Q-32.4 -34.5 -32.2 -35.3 L-32.2 -35.45 Q-31.9 -36.3 -32.05 -36.65 L-32.15 -37.05 -32.45 -37.35 -32.55 -37.45 -32.6 -37.6 -32.85 -37.6 M-29.15 -34.6 L-30.05 -34.15 Q-33.1 -31.9 -32.8 -30.55 -32.75 -30.4 -32.3 -30.1 L-31.0 -28.85 Q-29.15 -27.8 -26.95 -28.5 -26.45 -28.65 -26.55 -28.8 L-26.75 -28.85 -26.7 -29.6 Q-26.15 -29.9 -26.15 -30.55 L-26.5 -31.65 -26.7 -32.2 Q-25.95 -32.45 -25.4 -34.0 -24.65 -35.45 -24.95 -36.1 L-26.85 -35.8 Q-26.7 -35.7 -26.85 -35.75 L-27.55 -35.45 -27.6 -35.55 -28.3 -35.3 -28.5 -35.7 -28.9 -35.7 -29.2 -34.65 -29.15 -34.6 M-32.2 -28.6 Q-33.2 -29.05 -33.5 -30.25 -34.0 -31.65 -33.2 -32.4 -32.3 -33.35 -30.35 -34.25 L-30.35 -34.65 -30.1 -35.3 Q-29.15 -35.75 -28.55 -36.15 L-27.7 -36.45 -26.4 -37.05 Q-25.15 -37.55 -24.4 -37.05 L-24.0 -36.2 -24.25 -34.0 Q-24.8 -32.2 -26.05 -31.4 L-25.7 -30.1 -25.9 -28.0 -28.55 -27.15 -32.2 -28.6 M-22.95 -28.05 L-23.2 -27.5 -23.1 -28.25 -22.85 -28.3 -22.95 -28.05 M-31.7 -18.85 L-31.95 -19.7 Q-32.4 -20.65 -33.35 -21.0 -34.5 -21.15 -35.85 -19.05 L-34.9 -18.2 -32.75 -18.3 Q-32.2 -18.3 -31.95 -18.55 L-31.7 -18.85 M-31.25 -20.0 L-31.0 -19.3 Q-30.9 -18.7 -31.3 -18.0 L-33.45 -17.25 Q-34.75 -17.15 -35.65 -17.8 -36.65 -18.25 -36.85 -19.0 L-36.2 -20.0 Q-35.5 -20.85 -34.55 -21.3 -32.2 -22.6 -31.25 -20.0" fill="#c2c205" fill-rule="evenodd" stroke="none"/>
    <path d="M-37.5 -27.4 L-36.75 -27.3 -34.8 -26.9 Q-31.9 -26.0 -31.9 -25.45 L-31.75 -25.4 -31.8 -25.2 -32.05 -25.05 -32.2 -25.15 -33.75 -25.4 -33.6 -25.55 -35.4 -25.95 -35.95 -26.2 -37.85 -26.2 Q-39.35 -26.7 -39.55 -27.1 L-37.5 -27.4 M-8.8 -36.75 Q-8.9 -36.45 -9.15 -36.4 L-10.05 -36.35 -10.3 -37.55 -8.9 -37.95 -8.75 -37.9 -8.6 -37.15 -8.8 -36.75 M-22.05 -15.45 Q-22.6 -15.65 -22.95 -17.1 L-23.35 -16.5 -25.25 -16.05 -25.4 -15.95 Q-25.9 -15.95 -26.45 -16.4 L-26.95 -17.15 -26.85 -17.4 -25.65 -19.35 -24.25 -20.7 Q-24.25 -21.15 -25.55 -21.9 -26.7 -22.75 -26.85 -23.45 L-27.0 -23.85 -26.15 -24.3 -25.05 -24.35 -25.15 -23.85 -24.9 -23.65 -24.65 -23.85 -24.85 -23.3 -24.35 -23.25 -23.95 -24.0 -23.8 -23.9 -23.9 -24.35 -23.35 -26.7 Q-22.95 -27.2 -22.05 -27.5 L-21.15 -24.6 -20.7 -25.2 Q-20.6 -25.2 -20.5 -25.35 L-20.25 -25.2 -17.4 -25.85 -17.35 -25.8 -16.95 -25.3 -17.0 -24.8 -17.2 -24.4 -15.5 -24.55 -12.95 -24.75 Q-11.8 -24.7 -11.6 -23.65 L-12.2 -21.6 Q-13.4 -20.0 -15.55 -19.05 L-15.25 -18.9 Q-14.2 -18.4 -14.25 -18.05 -14.1 -17.8 -14.55 -17.5 L-15.65 -17.1 -18.45 -17.35 -20.35 -17.75 -20.6 -16.65 Q-21.05 -15.65 -21.65 -15.45 L-21.75 -15.4 -21.8 -15.45 -21.9 -15.45 -22.05 -15.45 M-32.8 -34.3 L-32.85 -34.0 -32.85 -33.9 -33.35 -33.8 -34.1 -34.0 Q-34.4 -34.0 -34.8 -34.3 L-34.9 -34.45 -35.35 -34.95 -35.4 -35.6 -35.35 -35.65 Q-35.2 -36.2 -34.3 -36.1 -33.75 -36.1 -33.45 -35.75 L-33.0 -34.9 -32.8 -34.4 -32.8 -34.3 M-33.6 -35.0 Q-33.85 -35.2 -33.75 -35.35 L-34.2 -35.35 -34.1 -35.05 -33.75 -34.8 -33.6 -35.0 M-37.95 -26.95 L-37.25 -26.9 -37.25 -27.0 -37.95 -26.95 M-32.3 -30.1 Q-32.75 -30.4 -32.8 -30.55 -33.1 -31.9 -30.05 -34.15 L-29.15 -34.6 Q-26.85 -36.05 -26.55 -34.5 L-26.5 -34.45 -26.3 -34.15 Q-26.05 -33.15 -28.25 -31.95 -27.8 -31.45 -27.6 -30.8 L-27.6 -30.25 Q-27.55 -29.85 -28.0 -29.45 L-28.7 -29.25 -28.55 -29.1 Q-28.4 -28.55 -28.55 -28.8 L-31.6 -29.85 -32.3 -30.1 M-32.2 -30.9 L-31.8 -30.9 -31.9 -31.65 -32.2 -30.9 M-29.15 -29.7 L-29.2 -29.65 -29.05 -29.7 -29.15 -29.7 M-27.75 -32.55 Q-26.5 -33.4 -26.7 -34.0 L-26.85 -34.15 -27.1 -33.75 -28.25 -32.15 -27.75 -32.55 M-28.25 -31.15 L-28.4 -31.3 -28.15 -30.75 Q-28.0 -30.1 -28.4 -29.8 L-28.25 -29.85 Q-27.85 -30.25 -28.0 -30.7 L-28.25 -31.15 M-27.0 -34.25 L-26.95 -34.3 -27.35 -34.3 -27.6 -34.3 Q-27.35 -34.25 -27.25 -33.9 L-27.0 -34.25 M-33.75 -19.1 Q-34.25 -19.6 -34.25 -19.95 L-34.35 -20.15 Q-34.15 -20.15 -34.15 -20.25 L-33.2 -20.2 Q-32.45 -20.1 -32.2 -19.7 L-32.05 -18.7 Q-32.2 -18.45 -32.55 -18.55 -33.0 -18.4 -33.75 -19.1 M-12.5 -22.3 Q-12.05 -23.2 -12.1 -23.6 -12.25 -24.2 -13.55 -24.25 L-13.7 -24.2 -13.1 -23.75 Q-12.95 -23.6 -14.85 -21.75 -16.7 -20.0 -17.2 -19.6 L-13.35 -22.45 -13.25 -22.2 Q-13.1 -21.75 -13.45 -21.05 L-12.5 -22.3" fill="#ffffff" fill-rule="evenodd" stroke="none"/>
    <path d="M-15.55 -15.8 L-15.55 -15.95 -15.4 -15.85 -15.15 -15.7 -15.25 -15.7 -15.55 -15.8 M-20.6 -14.0 L-20.5 -14.1 -20.5 -14.0 -20.6 -14.0" fill="#000000" fill-rule="evenodd" stroke="none"/>
  </g>
</svg>
