<?xml version="1.0" encoding="UTF-8" standalone="no"?>
<svg xmlns:ffdec="https://www.free-decompiler.com/flash" xmlns:xlink="http://www.w3.org/1999/xlink" ffdec:objectType="shape" height="107.0px" width="106.2px" xmlns="http://www.w3.org/2000/svg">
  <g transform="matrix(1.0, 0.0, 0.0, 1.0, 53.2, 53.7)">
    <path d="M22.35 -2.45 Q19.95 3.65 20.95 11.7 L21.0 11.75 17.4 13.4 16.8 23.8 Q25.2 19.3 33.55 14.75 L35.7 1.7 38.6 0.05 Q41.6 -13.65 37.05 -15.45 27.5 -13.45 22.6 -2.9 L22.35 -2.45 M27.75 -26.05 L27.85 -26.0 30.45 -33.7 34.6 -26.7 Q37.9 -27.05 41.4 -24.95 L47.85 -28.2 45.8 -19.4 Q47.9 -15.95 47.7 -12.5 L53.0 -11.4 46.9 -5.2 46.35 -1.65 42.4 0.6 37.85 20.2 11.1 35.15 -4.2 28.1 -4.35 20.5 5.85 24.5 5.85 12.7 0.25 13.65 2.95 10.25 -5.65 6.3 -9.0 7.8 -20.8 3.1 -21.6 -2.05 -28.5 -5.45 -27.1 8.6 -19.15 12.95 -18.8 20.85 -32.4 14.15 -37.9 -10.1 -40.0 -11.15 -40.0 -11.2 -39.95 -13.4 -46.75 -14.9 -39.6 -19.6 Q-39.1 -24.8 -37.8 -29.2 L-36.75 -32.3 -40.75 -38.2 -33.75 -38.2 -31.25 -41.3 Q-27.2 -45.5 -21.7 -46.6 L-19.4 -53.7 -14.6 -46.85 Q-11.05 -46.45 -7.2 -45.0 L0.4 -49.0 -1.4 -40.95 -1.55 -40.8 -7.75 -41.85 -8.4 -41.85 Q-17.9 -41.6 -23.4 -35.75 -29.7 -29.0 -29.4 -15.75 L-24.05 -13.45 -24.3 -18.65 -21.0 -20.65 -17.0 -14.3 -14.25 -20.5 -11.2 -21.8 -7.8 -8.55 -4.0 -12.7 -0.2 -14.0 -2.0 -2.55 7.15 0.8 Q7.45 -5.45 10.3 -11.7 L6.8 -16.55 13.15 -15.9 Q18.65 -23.8 27.75 -26.05 M-33.3 21.05 L-30.5 24.4 -29.25 25.45 -28.45 26.25 -30.55 30.15 -30.55 30.3 -28.55 31.3 Q-23.9 32.95 -20.25 34.6 L-14.2 37.5 -13.0 35.5 -12.6 34.9 -5.7 38.4 -8.45 44.8 -8.9 45.05 -9.55 44.9 -10.2 44.45 -10.2 44.5 -10.25 44.45 -10.7 45.8 -11.7 48.0 -11.7 48.05 -12.0 48.65 -13.65 52.8 -13.8 53.3 -16.35 52.35 -18.5 51.15 -18.35 50.7 -17.4 48.65 -15.5 44.75 -15.65 44.6 Q-16.1 44.65 -17.2 43.85 L-18.6 46.2 -18.75 46.5 -19.55 47.5 -21.65 46.35 -22.35 45.8 -21.8 44.65 -20.4 42.35 -21.3 41.9 -22.1 41.3 -22.15 41.4 -25.3 46.25 Q-25.55 46.15 -26.8 47.8 L-27.7 47.45 -28.55 46.9 -30.55 45.75 Q-29.75 44.3 -29.45 43.45 L-28.95 42.85 Q-27.6 41.25 -26.95 39.95 L-26.55 39.05 -26.6 39.0 -26.6 38.9 -26.65 38.85 -27.15 38.6 -27.5 38.45 Q-29.2 37.65 -33.2 35.95 L-34.8 38.65 -34.95 38.5 -35.55 39.9 -35.7 40.15 -39.75 39.8 -48.5 38.85 -53.2 36.1 -47.7 33.5 -47.4 33.4 -47.35 33.45 Q-47.1 34.25 -46.55 34.65 L-45.45 34.9 Q-44.5 34.9 -43.95 33.9 -43.55 33.15 -43.55 32.3 -43.55 31.45 -44.1 30.95 -44.6 30.5 -45.3 30.5 L-46.3 30.75 -46.5 30.8 -46.5 30.95 -48.9 27.85 -51.45 24.25 -46.3 23.8 -43.2 23.45 -42.8 23.9 -42.45 24.3 -41.4 24.55 Q-40.5 24.55 -39.85 23.8 -39.3 23.15 -39.3 22.6 -39.3 20.45 -41.3 20.45 L-42.45 20.75 -42.85 20.95 -42.95 20.65 -43.0 20.45 -43.2 19.25 -44.25 14.1 -36.15 18.05 -35.55 18.8 -33.3 21.05 M-22.5 41.0 L-22.65 41.0 -22.4 41.25 -22.5 41.0" fill="#ffffff" fill-rule="evenodd" stroke="none"/>
  </g>
</svg>
