<?xml version="1.0" encoding="UTF-8" standalone="no"?>
<svg xmlns:ffdec="https://www.free-decompiler.com/flash" xmlns:xlink="http://www.w3.org/1999/xlink" ffdec:objectType="shape" height="79.3px" width="75.55px" xmlns="http://www.w3.org/2000/svg">
  <g transform="matrix(1.0, 0.0, 0.0, 1.0, 29.8, 42.0)">
    <path d="M23.1 -28.85 Q25.1 -28.3 26.2 -27.45 L27.5 -26.55 27.6 -26.35 Q29.45 -23.25 30.0 -21.35 30.45 -19.8 30.45 -17.1 L30.4 -15.2 30.85 -13.1 31.05 -13.1 Q32.7 -12.45 33.15 -10.8 L33.25 -8.4 33.25 -8.05 Q37.25 -8.9 40.85 -6.95 43.5 -5.65 44.8 -2.7 45.75 -0.45 45.75 2.15 45.75 6.05 44.15 9.25 L41.25 12.85 39.4 14.85 39.7 18.65 Q39.7 32.0 32.55 35.35 30.05 36.5 26.15 36.85 L20.15 37.3 18.8 37.25 16.7 37.3 13.25 36.85 Q6.7 36.45 3.0 34.35 1.55 33.55 0.65 32.55 L0.0 31.65 Q-1.0 30.65 -1.45 28.55 L-2.0 26.85 -2.55 25.2 -3.45 25.2 Q-18.6 25.2 -24.4 20.95 -27.25 18.85 -27.6 15.8 L-27.7 15.55 Q-29.1 13.9 -29.25 11.05 -29.65 6.25 -29.65 -0.4 L-29.8 -6.45 Q-29.7 -9.2 -28.45 -13.1 -27.55 -16.0 -22.0 -18.95 -20.55 -19.75 -20.15 -21.75 L-20.35 -22.2 -20.35 -22.4 Q-22.1 -22.65 -22.8 -26.55 -23.2 -28.8 -23.2 -31.55 -23.2 -34.25 -22.85 -34.8 -22.15 -36.0 -19.35 -36.5 L-19.55 -37.65 Q-19.55 -39.75 -14.55 -40.95 -10.2 -42.0 -3.6 -42.0 2.75 -42.0 7.3 -41.0 12.3 -39.95 12.3 -38.2 L12.15 -36.75 Q13.55 -36.55 14.05 -34.5 L14.3 -30.8 14.35 -29.5 20.1 -30.0 Q21.1 -29.45 23.1 -28.85 M9.7 -35.95 L9.9 -36.8 Q9.9 -37.8 7.05 -38.75 3.55 -39.95 -1.85 -39.95 -13.8 -39.95 -16.65 -37.35 -17.55 -36.5 -17.5 -35.35 L-17.25 -34.0 -18.15 -33.7 -18.75 -34.3 -19.35 -34.05 Q-21.15 -33.35 -21.15 -31.5 L-20.75 -27.55 Q-20.6 -25.25 -20.1 -24.6 L-18.95 -25.6 Q-18.35 -25.4 -18.0 -24.65 L-15.35 -24.8 -14.6 -24.6 Q-14.3 -24.5 -14.3 -23.85 -14.3 -23.65 -15.35 -22.8 L-17.55 -22.65 -17.55 -22.4 -17.65 -21.5 -17.9 -21.35 -18.0 -21.3 -18.55 -19.45 Q-19.3 -17.35 -20.65 -16.25 L-23.8 -14.6 Q-26.15 -13.3 -26.4 -11.9 L-27.6 -5.3 -27.65 -0.6 Q-27.65 5.2 -27.25 8.4 L-25.8 6.65 -25.1 6.85 Q-24.8 6.95 -24.8 7.6 L-25.4 9.4 -25.85 10.7 Q-25.3 11.45 -25.2 12.05 L-25.2 13.6 -25.2 13.65 -24.8 14.85 -24.85 15.1 Q-22.6 18.15 -18.45 18.95 L-16.75 18.95 Q-15.55 18.15 -14.9 17.95 L-14.2 18.15 Q-13.9 18.25 -13.9 18.9 -13.9 19.85 -15.25 20.55 -16.4 21.15 -17.55 21.15 L-20.45 20.6 Q-14.75 22.95 -3.3 22.95 L-2.6 22.95 -2.6 22.85 -2.45 22.6 Q-2.2 22.35 -1.6 22.35 -1.05 22.35 -0.65 22.9 1.25 22.75 1.65 22.4 1.6 21.75 2.4 21.55 L3.45 22.65 Q3.45 24.4 0.2 24.95 L0.25 25.25 0.8 27.55 2.6 30.05 3.45 30.85 Q3.95 30.95 5.0 31.4 L5.15 31.4 Q6.15 31.55 6.8 31.9 L12.5 32.45 13.2 32.65 Q13.5 32.75 13.5 33.4 L13.35 34.05 16.05 34.05 16.95 33.3 Q17.35 32.8 17.75 32.85 L18.45 33.25 18.7 33.7 Q21.9 32.85 24.6 32.65 L24.7 32.75 24.8 33.4 24.6 34.05 26.2 34.05 26.25 34.1 26.95 33.9 30.7 33.05 Q31.75 32.8 32.25 33.05 35.1 31.45 36.5 27.2 L37.35 23.0 37.7 18.75 Q37.7 17.7 36.5 10.4 36.5 6.85 37.6 8.7 L39.1 12.05 40.55 10.1 Q43.75 5.8 43.75 2.15 43.75 0.05 42.15 -2.55 40.0 -6.05 36.45 -6.05 L33.2 -5.8 33.15 -5.05 32.25 -4.65 31.65 -5.5 Q29.85 -5.0 28.7 -4.05 27.0 -1.85 26.2 -1.45 25.65 -1.6 25.5 -1.85 25.2 -2.15 25.2 -2.85 25.2 -4.9 30.25 -7.1 L31.3 -7.5 31.3 -7.8 Q31.4 -9.7 30.75 -10.55 30.4 -9.15 29.05 -8.7 28.0 -9.7 28.0 -9.95 28.0 -10.45 28.45 -11.2 L28.7 -11.65 Q28.45 -12.0 28.45 -12.5 L28.85 -12.8 28.6 -14.1 27.2 -15.15 28.15 -16.45 28.0 -17.45 27.6 -21.4 Q26.7 -25.15 23.65 -26.75 21.55 -27.85 18.7 -27.85 L14.3 -27.55 14.3 -27.45 Q14.15 -25.2 13.1 -25.2 L12.2 -25.3 12.0 -25.4 12.2 -27.0 10.1 -26.0 Q9.05 -27.0 9.05 -27.3 9.05 -28.25 11.6 -28.95 L12.3 -29.1 12.3 -30.6 12.05 -33.1 11.55 -34.0 Q10.65 -30.4 9.7 -29.65 8.65 -30.65 8.65 -30.9 8.65 -31.7 9.55 -35.2 L9.45 -35.6 9.7 -35.95" fill="#000000" fill-rule="evenodd" stroke="none"/>
  </g>
</svg>
