<?xml version="1.0" encoding="UTF-8" standalone="no"?>
<svg xmlns:ffdec="https://www.free-decompiler.com/flash" xmlns:xlink="http://www.w3.org/1999/xlink" ffdec:objectType="shape" height="66.35px" width="79.35px" xmlns="http://www.w3.org/2000/svg">
  <g transform="matrix(1.0, 0.0, 0.0, 1.0, 39.65, 33.15)">
    <path d="M5.85 -29.35 L10.5 -26.55 14.1 -23.25 Q18.3 -19.15 20.5 -14.05 21.45 -11.85 22.75 -6.75 L23.25 -4.65 23.2 -4.35 22.0 -5.55 Q19.2 -8.05 15.3 -8.25 11.3 -8.45 9.7 -6.75 L10.0 -6.25 10.25 -6.1 10.55 -5.85 10.55 -5.8 11.4 -5.0 11.6 -4.6 11.8 -4.45 12.6 -4.5 13.25 -4.55 15.85 -4.2 16.05 -3.9 16.4 -3.6 17.4 -2.8 18.2 -1.95 18.45 -1.7 19.55 -0.85 20.0 -0.25 20.0 -0.3 20.15 -0.2 20.05 -0.1 20.2 -0.05 20.25 0.05 20.3 0.25 Q20.6 0.65 20.4 0.8 L20.1 0.75 19.9 1.15 18.65 2.9 19.45 3.8 19.6 3.95 19.65 3.95 19.7 4.05 29.35 13.65 29.75 13.9 30.4 14.6 31.2 15.15 31.6 15.15 31.65 15.1 31.9 15.15 32.55 15.15 Q34.75 15.15 35.1 15.5 L35.25 15.8 35.65 16.15 36.55 16.9 37.45 17.7 37.7 17.95 38.65 18.9 39.2 19.5 39.4 19.6 39.35 19.6 39.4 19.8 39.5 19.8 39.6 19.95 Q39.8 20.35 39.6 20.5 L39.35 20.4 39.15 20.85 38.0 22.5 38.1 22.6 37.6 23.25 37.2 23.8 37.05 23.75 36.8 24.15 35.1 26.85 34.8 27.45 33.95 28.6 32.55 30.45 32.5 30.5 31.8 31.0 31.55 31.0 31.5 30.95 31.1 31.15 30.2 31.55 30.25 31.55 28.45 32.0 27.45 32.25 26.05 32.75 24.25 33.2 Q23.55 32.8 22.2 31.3 L21.95 30.95 21.4 30.4 20.9 29.75 Q20.1 28.85 20.45 28.55 L20.5 27.15 20.6 26.55 20.65 26.15 19.35 23.6 18.75 23.0 15.95 20.3 11.1 15.65 11.05 15.7 10.7 15.35 10.5 15.15 9.35 14.15 9.2 14.3 9.05 14.2 8.15 13.25 7.55 13.45 7.1 13.6 5.15 14.1 4.95 14.3 Q4.35 14.9 2.05 12.45 L1.85 12.15 1.2 11.6 0.75 10.95 Q0.05 10.0 0.35 9.75 L0.5 8.25 0.6 7.6 0.65 7.1 -1.65 5.2 -2.8 5.0 -3.35 4.95 Q-2.75 9.3 -2.75 11.0 L-1.75 11.7 0.05 13.4 Q2.1 15.2 2.7 16.35 L4.5 16.4 6.2 16.85 Q6.55 16.6 7.15 17.2 8.3 20.9 7.65 21.5 L6.95 21.75 Q0.65 27.4 -8.55 28.25 L-15.15 28.0 -15.6 27.95 -18.05 27.4 -20.8 26.45 -23.55 24.95 -26.95 22.65 -29.05 20.65 -29.7 19.95 -31.55 18.05 -33.3 16.2 -34.5 14.6 -34.65 14.25 -35.95 12.35 -37.15 9.5 -38.2 6.65 -38.65 5.25 Q-39.65 1.85 -39.65 -6.1 L-39.55 -9.5 -39.45 -9.85 -38.85 -12.0 -38.55 -12.7 -38.2 -13.4 -38.25 -13.5 -36.05 -17.5 -36.05 -17.55 -35.55 -18.4 -34.75 -19.45 -31.9 -19.55 -31.8 -19.4 -31.65 -19.1 -30.65 -16.95 Q-29.5 -14.5 -28.15 -13.1 L-26.4 -11.65 -25.85 -11.2 -25.45 -10.85 -25.35 -10.75 Q-23.75 -9.65 -22.2 -9.3 L-16.55 -9.0 -15.7 -9.1 -17.25 -10.9 -17.75 -10.5 -19.9 -10.3 -20.2 -10.25 Q-20.15 -10.05 -20.25 -10.0 -20.5 -9.7 -22.45 -11.2 L-22.5 -11.3 -23.45 -12.3 -25.45 -14.1 -28.6 -17.5 -29.55 -18.35 Q-29.2 -19.85 -27.0 -23.95 L-25.55 -26.65 Q-24.35 -29.1 -24.1 -28.75 L-24.05 -28.7 -23.1 -29.2 Q-20.5 -30.25 -20.4 -30.35 L-17.05 -31.95 -14.2 -33.15 -14.05 -32.95 -9.8 -28.9 -6.1 -24.7 -5.75 -24.35 Q-5.25 -23.5 -5.55 -23.2 L-5.8 -23.15 Q-5.65 -22.75 -5.8 -22.6 L-5.9 -22.55 -6.1 -21.9 -5.7 -21.6 Q-5.2 -21.0 -4.0 -21.95 L-3.7 -22.95 -3.1 -24.8 -3.05 -25.35 -3.1 -26.35 -3.25 -28.25 -3.25 -29.25 Q-3.65 -31.3 -3.9 -31.6 -4.25 -31.65 -4.4 -31.85 L-4.6 -32.15 -1.6 -31.7 Q2.9 -31.0 5.85 -29.35 M20.6 -8.0 L19.55 -11.3 19.5 -11.55 19.2 -11.6 19.5 -12.0 Q17.15 -18.0 14.0 -21.25 10.15 -25.1 3.4 -28.25 L-1.7 -30.45 -1.55 -29.9 -1.1 -29.5 Q-0.55 -26.85 -0.6 -25.95 -0.45 -23.2 -1.85 -21.75 L-2.0 -21.65 -3.0 -20.6 -3.1 -20.2 -3.4 -19.7 -1.15 -19.1 0.05 -18.55 1.45 -17.75 1.45 -18.2 1.65 -18.95 Q1.95 -19.75 2.35 -20.15 3.7 -21.55 6.1 -20.95 7.8 -20.55 8.55 -19.9 9.75 -18.6 10.05 -17.2 10.5 -15.25 8.95 -13.8 8.3 -13.15 7.2 -12.75 L7.1 -12.75 7.1 -12.7 7.95 -11.15 8.8 -8.4 9.4 -8.65 9.5 -8.75 10.3 -9.3 11.85 -9.5 14.2 -9.8 15.95 -9.95 17.3 -9.8 Q18.95 -9.35 20.35 -8.05 L20.65 -7.8 20.6 -8.0 M8.05 -18.75 Q7.45 -19.4 6.4 -19.7 4.65 -20.3 3.35 -19.05 2.7 -18.35 2.6 -17.6 L2.55 -17.1 3.05 -16.85 4.15 -17.5 6.3 -18.8 Q6.75 -18.95 7.2 -18.45 7.45 -18.2 6.85 -16.3 L6.0 -14.25 6.45 -13.6 Q7.45 -13.95 8.25 -14.65 9.3 -15.75 8.95 -17.2 8.7 -18.1 8.05 -18.75 M4.8 -16.25 L2.95 -15.65 2.45 -15.75 2.4 -15.85 2.45 -15.85 2.4 -16.25 Q1.65 -17.0 -0.05 -17.6 L-0.8 -17.75 -1.0 -17.85 -1.45 -17.95 -5.5 -18.5 -6.5 -19.95 -6.75 -20.1 -6.7 -20.05 -6.9 -19.65 -7.25 -18.7 -7.15 -18.3 -7.3 -18.25 -8.8 -16.55 -10.9 -14.15 Q-11.25 -13.8 -11.2 -13.4 L-11.55 -13.2 -12.05 -12.9 -12.1 -12.8 -12.55 -12.55 -12.5 -12.4 -12.15 -12.3 Q-11.8 -12.0 -12.1 -11.65 L-12.3 -11.55 -13.05 -11.3 Q-13.75 -11.45 -14.45 -11.0 L-14.85 -10.8 -14.25 -10.85 -14.15 -10.3 -13.75 -9.5 -13.2 -9.3 Q-12.5 -9.0 -10.65 -8.65 -7.35 -7.55 -4.9 -5.15 L-3.3 -3.2 -1.9 -0.55 Q-1.4 0.6 -0.7 3.9 L-0.5 4.1 -0.45 4.05 -0.4 4.1 -0.35 4.2 0.4 4.95 1.2 5.75 2.25 6.8 Q2.5 7.15 2.25 7.35 L2.05 7.45 1.9 7.45 1.8 7.95 1.8 9.1 1.75 9.9 1.7 10.05 2.3 10.5 3.25 11.35 3.25 11.4 4.35 12.5 4.4 12.5 4.95 12.15 6.3 11.75 6.5 11.65 6.25 11.4 6.55 11.45 6.65 11.45 7.05 11.5 7.1 11.45 7.8 11.15 10.4 10.4 11.1 10.45 11.15 10.0 11.55 9.3 12.65 7.7 14.55 5.3 14.6 5.2 14.8 4.9 17.0 1.55 17.7 0.6 18.15 0.05 18.1 0.0 16.3 -1.65 16.3 -1.7 15.15 -2.4 14.6 -2.85 14.5 -2.85 13.5 -3.0 12.05 -2.9 11.85 -2.75 11.65 -2.5 8.75 -4.95 8.8 -4.95 8.7 -5.05 8.45 -5.25 7.35 -7.45 Q6.25 -10.95 4.6 -13.45 L5.0 -13.8 5.4 -15.25 5.95 -16.9 Q5.5 -16.65 5.05 -16.5 L4.8 -16.25 M5.7 4.25 L6.2 5.5 6.1 5.4 5.75 4.5 5.7 4.25 M22.1 -5.55 L22.2 -5.55 22.2 -5.75 22.1 -5.55 M17.2 4.9 L16.15 6.5 15.55 7.5 15.1 8.15 14.65 8.75 14.3 9.25 13.9 9.8 12.7 11.2 12.65 11.25 12.45 11.5 Q12.15 11.35 12.0 11.65 L11.95 11.9 11.75 11.9 11.65 11.85 Q11.45 11.9 11.2 12.05 L11.0 12.15 9.1 12.5 21.95 24.1 22.05 24.55 22.1 24.65 22.05 25.55 22.05 25.7 22.05 26.3 21.95 26.2 21.75 26.9 21.8 28.05 21.8 28.8 21.8 28.95 22.35 29.4 23.25 30.25 23.35 30.35 24.45 31.4 24.5 31.4 25.1 31.05 25.45 31.0 Q26.35 30.95 28.95 29.9 L29.0 29.85 30.3 29.5 Q30.4 29.4 30.45 29.45 L30.85 29.3 30.9 29.15 31.3 28.45 32.3 26.95 34.2 24.6 34.35 24.35 36.3 21.1 37.1 20.2 37.4 19.75 37.3 19.7 35.6 18.05 35.5 18.0 34.5 17.25 34.35 17.15 34.15 16.95 Q33.75 16.55 33.4 16.45 L31.7 16.45 30.15 16.55 30.1 16.5 29.8 16.25 24.85 11.3 20.15 6.65 20.05 6.7 18.75 5.5 17.75 4.45 17.7 4.4 17.8 4.25 17.7 4.2 17.65 4.3 17.4 4.55 17.3 4.65 17.2 4.9 M2.05 18.2 L2.1 18.25 2.15 18.2 4.55 18.15 Q2.8 17.75 2.65 17.55 L2.5 17.45 Q1.55 17.3 -0.85 14.55 L-2.65 12.8 -3.15 12.1 Q-3.55 12.2 -3.9 11.9 -4.5 11.15 -4.85 6.5 L-4.8 4.05 Q-5.4 3.3 -4.7 3.1 -4.95 2.65 -3.6 2.8 L-1.8 3.2 -2.1 2.0 Q-2.5 0.0 -3.45 -1.45 -5.2 -4.0 -6.55 -5.35 L-7.9 -6.6 -9.65 -7.5 -11.15 -8.15 -12.45 -8.4 -12.95 -8.4 -12.75 -8.25 -13.05 -8.4 -13.4 -8.55 -13.7 -8.55 -13.8 -8.65 -13.75 -8.5 Q-13.65 -7.65 -14.25 -6.9 -14.6 -6.6 -15.0 -7.05 L-15.2 -7.35 -19.35 -7.0 Q-21.5 -7.2 -23.15 -7.9 -26.45 -9.05 -28.65 -11.3 -29.7 -12.35 -30.4 -13.65 L-31.95 -16.5 -32.15 -16.85 -32.4 -17.2 -32.45 -16.85 -32.1 -14.5 -31.6 -10.95 -31.3 -9.1 Q-30.15 -2.35 -30.3 -0.45 L-29.2 -0.45 -25.75 0.0 -25.1 0.85 -23.7 2.0 -22.45 3.3 -19.0 6.8 -15.55 10.25 -13.3 12.35 -12.75 12.95 -12.4 13.25 -12.35 13.35 -11.75 13.95 Q-11.15 16.75 -11.05 18.05 L-10.75 18.0 -9.55 18.05 -8.25 18.0 -6.95 18.1 -3.4 18.1 1.05 18.25 2.05 18.2 M0.25 20.5 L-0.85 20.85 0.8 20.15 0.25 20.5 M-13.3 26.7 L-12.05 26.8 Q-1.55 27.55 6.15 20.45 L6.0 19.4 Q5.85 19.5 5.65 19.7 L5.6 19.6 Q2.1 23.1 -5.7 24.55 L-11.05 25.15 -11.5 25.15 -11.2 25.2 -14.75 24.75 Q-14.85 24.6 -15.0 24.6 L-14.6 24.35 -14.55 24.25 -14.65 24.1 Q-15.0 23.8 -15.45 22.3 L-15.85 19.45 -15.95 19.2 -16.15 17.0 -17.7 15.55 -20.5 12.75 -21.65 11.5 -22.15 11.0 -23.6 9.5 -25.05 8.0 -25.25 7.75 -27.0 6.15 -27.55 5.55 -27.7 5.4 -27.75 5.45 Q-28.3 5.1 -29.9 4.85 L-30.0 4.85 -32.3 4.45 Q-33.55 3.95 -34.35 4.15 L-34.4 4.1 -34.5 4.05 -34.7 3.9 -34.75 3.9 -35.0 4.2 -35.2 3.65 -35.4 2.85 Q-36.1 0.2 -36.3 -2.45 -36.45 -4.8 -36.15 -5.55 -35.8 -9.85 -34.7 -14.1 -34.1 -16.8 -33.45 -17.95 L-34.1 -17.75 -35.25 -15.65 Q-38.3 -9.7 -38.25 -5.75 L-38.2 -0.1 Q-38.05 2.95 -37.15 5.1 L-36.9 5.85 -35.9 8.65 -34.65 11.5 -33.35 13.75 -33.35 13.85 -32.15 15.4 -30.45 17.2 -28.6 19.1 -28.0 19.7 -25.8 21.75 -22.25 24.0 -19.35 25.3 -16.5 26.1 -13.3 26.7 M-7.65 -22.3 L-7.25 -23.55 -10.7 -26.65 -14.3 -30.7 -14.95 -29.6 -20.2 -21.15 -20.25 -21.2 -20.35 -21.25 -20.4 -21.3 -20.5 -21.4 -20.7 -21.45 -20.5 -21.65 -20.35 -21.75 -20.35 -21.8 -20.2 -21.95 -19.95 -22.15 -20.15 -22.05 -15.6 -30.6 Q-16.1 -30.6 -17.2 -29.85 L-19.1 -28.55 -19.95 -28.1 -20.0 -28.05 -21.05 -27.65 Q-22.35 -27.1 -23.45 -26.15 L-23.5 -26.0 Q-23.8 -25.2 -24.65 -23.7 L-26.3 -20.05 -26.35 -19.95 -26.55 -19.65 -26.85 -19.1 Q-26.6 -19.2 -27.0 -18.75 L-27.05 -18.4 -27.0 -18.35 -26.55 -18.25 -26.55 -18.2 -26.75 -18.05 -26.75 -18.0 -20.2 -11.1 -19.6 -11.35 -19.55 -11.25 -18.35 -11.55 -18.0 -11.7 -17.55 -11.85 -17.05 -11.9 -14.0 -12.55 -12.35 -13.75 -12.05 -13.95 -12.35 -13.9 -12.15 -14.1 -12.0 -14.15 -12.0 -14.6 -12.15 -14.95 -12.3 -15.0 -11.9 -15.05 -11.2 -15.8 -8.45 -18.85 -8.35 -18.9 -7.8 -21.75 Q-7.65 -22.0 -7.65 -22.3 M-23.5 -0.3 Q-24.3 -1.15 -23.5 -0.95 L-23.2 -1.0 -21.9 -1.65 -18.15 -3.2 -16.4 -3.95 Q-12.45 -5.6 -12.1 -5.25 L-12.0 -5.2 -11.65 -5.05 Q-11.5 -4.95 -11.5 -4.7 L-11.75 -4.25 -11.7 -4.15 Q-11.6 -3.95 -12.05 -2.65 L-12.45 -0.65 -11.6 0.0 -9.75 -0.4 -7.85 -0.7 -7.1 -0.95 -6.9 -0.6 -7.4 0.9 -7.55 1.85 -7.75 2.4 Q-7.75 2.65 -7.9 2.9 L-8.8 5.85 -9.5 9.1 Q-9.95 10.8 -10.3 11.5 -10.1 11.95 -10.3 12.15 -10.6 12.4 -13.05 10.0 L-17.0 6.1 -23.5 -0.3 M-21.85 -0.15 L-21.75 -0.05 -13.25 8.45 -11.15 10.35 -11.05 10.5 -10.65 8.75 -10.15 7.1 Q-9.5 5.6 -8.65 1.75 L-8.25 0.35 -11.25 0.95 -11.4 1.1 Q-11.8 1.55 -12.9 0.45 L-13.55 -0.3 -13.5 -0.75 -13.25 -2.7 -13.25 -2.9 -13.0 -3.95 -14.9 -3.2 -17.85 -2.05 -18.8 -1.55 -21.85 -0.15 M-33.15 -15.9 L-35.45 -6.0 -34.35 2.7 -33.1 2.65 -32.6 2.65 -32.35 2.65 -28.1 3.4 -28.0 3.4 -27.5 3.85 -27.45 3.95 -27.25 4.05 -25.9 5.25 -15.85 15.3 -14.2 17.35 Q-13.9 17.8 -14.15 18.05 L-14.55 18.1 -14.55 18.35 -13.85 21.05 -13.45 23.25 -13.1 23.3 -11.4 23.6 -6.2 23.15 Q0.5 21.5 3.65 19.7 L-11.1 19.2 -11.55 19.15 -12.0 18.95 -12.45 17.2 -12.75 14.9 -12.8 13.95 Q-14.2 13.05 -19.6 7.45 L-23.05 4.0 -24.95 2.35 -26.0 0.9 -28.4 0.8 -31.05 0.5 -33.15 -15.9 M-16.55 -11.0 L-17.0 -10.95 -15.25 -9.55 -16.55 -11.0 M-15.25 -10.85 L-15.3 -10.8 -15.15 -10.75 -15.25 -10.85 M-1.45 24.0 Q1.5 23.15 3.3 22.2 2.35 23.15 -1.45 24.0" fill="#000000" fill-rule="evenodd" stroke="none"/>
    <path d="M7.2 -12.75 Q8.3 -13.15 8.95 -13.8 10.5 -15.25 10.05 -17.2 9.75 -18.6 8.55 -19.9 7.8 -20.55 6.1 -20.95 3.7 -21.55 2.35 -20.15 1.95 -19.75 1.65 -18.95 L1.45 -18.2 1.45 -17.75 0.05 -18.55 -1.15 -19.1 -3.4 -19.7 -3.1 -20.2 -3.0 -20.6 -2.0 -21.65 -1.85 -21.75 Q-0.45 -23.2 -0.6 -25.95 -0.55 -26.85 -1.1 -29.5 L-1.55 -29.9 -1.7 -30.45 3.4 -28.25 Q10.15 -25.1 14.0 -21.25 17.15 -18.0 19.5 -12.0 L19.2 -11.6 19.5 -11.55 19.55 -11.3 20.6 -8.0 20.35 -8.05 Q18.95 -9.35 17.3 -9.8 L15.95 -9.95 14.2 -9.8 11.85 -9.5 10.3 -9.3 9.5 -8.75 9.4 -8.65 8.8 -8.4 7.95 -11.15 7.1 -12.7 7.2 -12.75 M2.15 18.2 L2.05 18.2 1.05 18.25 -3.4 18.1 -6.95 18.1 -8.25 18.0 -9.55 18.05 -10.75 18.0 -11.05 18.05 Q-11.15 16.75 -11.75 13.95 L-12.35 13.35 -12.4 13.25 -12.75 12.95 -13.3 12.35 -15.55 10.25 -19.0 6.8 -22.45 3.3 -23.7 2.0 -25.1 0.85 -25.75 0.0 -29.2 -0.45 -30.3 -0.45 Q-30.15 -2.35 -31.3 -9.1 L-31.6 -10.95 -32.1 -14.5 -32.45 -16.85 -32.15 -16.85 -31.95 -16.5 -30.4 -13.65 Q-29.7 -12.35 -28.65 -11.3 -26.45 -9.05 -23.15 -7.9 -21.5 -7.2 -19.35 -7.0 L-15.2 -7.35 -15.0 -7.05 Q-14.6 -6.6 -14.25 -6.9 -13.65 -7.65 -13.75 -8.5 L-13.8 -8.65 -13.7 -8.55 -13.4 -8.55 -13.05 -8.4 -12.75 -8.25 -12.95 -8.4 -12.45 -8.4 -11.15 -8.15 -9.65 -7.5 -7.9 -6.6 -6.55 -5.35 Q-5.2 -4.0 -3.45 -1.45 -2.5 0.0 -2.1 2.0 L-1.8 3.2 -3.6 2.8 Q-4.95 2.65 -4.7 3.1 -5.4 3.3 -4.8 4.05 L-4.85 6.5 Q-4.5 11.15 -3.9 11.9 -3.55 12.2 -3.15 12.1 L-2.65 12.8 -0.85 14.55 Q1.55 17.3 2.5 17.45 L2.65 17.55 Q2.8 17.75 4.55 18.15 L2.15 18.2 M-11.2 25.2 L-11.5 25.15 -11.05 25.15 -11.2 25.2 M-23.5 -0.3 L-17.0 6.1 -13.05 10.0 Q-10.6 12.4 -10.3 12.15 -10.1 11.95 -10.3 11.5 -9.95 10.8 -9.5 9.1 L-8.8 5.85 -7.9 2.9 Q-7.75 2.65 -7.75 2.4 L-7.55 1.85 -7.4 0.9 -6.9 -0.6 -7.1 -0.95 -7.85 -0.7 -9.75 -0.4 -11.6 0.0 -12.45 -0.65 -12.05 -2.65 Q-11.6 -3.95 -11.7 -4.15 L-11.75 -4.25 -11.5 -4.7 Q-11.5 -4.95 -11.65 -5.05 L-12.0 -5.2 -12.1 -5.25 Q-12.45 -5.6 -16.4 -3.95 L-18.15 -3.2 -21.9 -1.65 -23.2 -1.0 -23.5 -0.95 Q-24.3 -1.15 -23.5 -0.3" fill="url(#gradient0)" fill-rule="evenodd" stroke="none"/>
    <path d="M2.45 -15.75 L2.35 -15.6 1.75 -16.05 -0.65 -17.1 -2.15 -17.4 -5.85 -17.65 -6.9 -19.65 -6.7 -20.05 -6.75 -20.1 -6.5 -19.95 -5.5 -18.5 -1.45 -17.95 -1.0 -17.85 -0.8 -17.75 -0.05 -17.6 Q1.65 -17.0 2.4 -16.25 L2.45 -15.85 2.4 -15.85 2.45 -15.75 M-12.3 -11.55 L-12.1 -11.5 -12.45 -11.45 -12.4 -11.3 Q-12.2 -11.1 -11.8 -11.0 L-13.2 -9.3 -13.75 -9.5 -14.15 -10.3 -14.25 -10.85 -14.85 -10.8 -14.45 -11.0 Q-13.75 -11.45 -13.05 -11.3 L-12.3 -11.55 M17.7 0.6 L14.8 -2.15 11.6 -1.95 7.35 -5.65 3.9 -13.15 4.8 -16.25 5.05 -16.5 Q5.5 -16.65 5.95 -16.9 L5.4 -15.25 5.0 -13.8 4.6 -13.45 Q6.25 -10.95 7.35 -7.45 L8.45 -5.25 8.7 -5.05 8.8 -4.95 8.75 -4.95 11.65 -2.5 11.85 -2.75 12.05 -2.9 13.5 -3.0 14.5 -2.85 14.6 -2.85 15.15 -2.4 16.3 -1.7 16.3 -1.65 18.1 0.0 18.15 0.05 17.7 0.6 M-0.35 4.1 L-0.35 4.2 -0.4 4.1 -0.35 4.1 M29.75 17.0 L29.5 16.95 17.2 4.9 17.3 4.65 17.4 4.55 17.65 4.3 17.7 4.4 17.75 4.45 18.75 5.5 20.05 6.7 20.15 6.65 24.85 11.3 29.8 16.25 30.1 16.5 30.15 16.55 31.7 16.45 33.4 16.45 Q33.75 16.55 34.15 16.95 L34.35 17.15 34.5 17.25 35.5 18.0 35.6 18.05 37.3 19.7 37.4 19.75 37.1 20.2 33.65 17.1 29.75 17.0 M22.05 24.55 L24.0 23.95 25.55 25.45 25.8 25.55 26.1 25.4 26.6 25.75 28.05 27.5 29.35 29.0 29.8 29.0 29.85 28.95 30.3 29.5 29.0 29.85 28.95 29.9 Q26.35 30.95 25.45 31.0 L25.1 31.05 24.5 31.4 24.45 31.4 23.35 30.35 23.25 30.25 22.35 29.4 21.8 28.95 21.8 28.8 21.8 28.05 21.75 26.9 21.95 26.2 22.05 26.3 22.05 25.7 22.05 25.55 22.1 24.65 22.05 24.55 M25.9 24.65 L25.75 24.6 24.4 23.2 25.6 24.25 25.9 24.65 M-36.9 5.85 L-37.15 5.1 Q-38.05 2.95 -38.2 -0.1 L-38.25 -5.75 Q-38.3 -9.7 -35.25 -15.65 L-34.1 -17.75 -33.45 -17.95 Q-34.1 -16.8 -34.7 -14.1 -35.8 -9.85 -36.15 -5.55 -36.45 -4.8 -36.3 -2.45 -36.1 0.2 -35.4 2.85 L-35.2 3.65 -35.0 4.2 -34.75 3.9 -34.7 3.9 -34.5 4.05 -34.45 4.15 -36.9 5.85 M-25.25 7.75 L-25.05 8.0 -25.1 8.05 -25.25 7.75 M-14.95 -29.6 L-14.3 -30.7 -10.7 -26.65 -7.25 -23.55 -7.65 -22.3 -14.95 -29.6 M-12.35 -13.9 L-12.05 -13.95 -12.35 -13.75 -12.35 -13.9 M-26.75 -18.0 L-26.75 -18.05 -26.55 -18.2 -26.75 -18.0" fill="#c8c8c8" fill-rule="evenodd" stroke="none"/>
    <path d="M2.45 -15.75 L2.95 -15.65 4.8 -16.25 3.9 -13.15 7.35 -5.65 11.6 -1.95 14.8 -2.15 17.7 0.6 17.0 1.55 14.8 4.9 14.6 5.2 14.55 5.3 12.65 7.7 11.55 9.3 11.15 10.0 11.05 9.85 10.9 9.7 10.6 9.5 10.55 9.4 10.15 9.0 9.45 8.35 Q8.4 7.25 8.05 7.15 L7.95 7.05 7.0 6.3 6.85 6.2 6.7 6.05 6.25 5.65 6.2 5.5 5.7 4.25 5.55 4.0 5.5 3.9 4.8 2.65 4.6 2.35 4.55 2.2 3.1 -0.4 2.7 -1.15 1.5 -2.15 -6.4 -10.0 -7.15 -10.65 -7.2 -10.85 -7.35 -11.05 -8.6 -11.3 -9.85 -11.5 -11.35 -11.55 -12.1 -11.5 -12.3 -11.55 -12.1 -11.65 Q-11.8 -12.0 -12.15 -12.3 L-12.5 -12.4 -12.55 -12.55 -12.1 -12.8 -12.05 -12.9 -11.55 -13.2 -11.2 -13.4 Q-11.25 -13.8 -10.9 -14.15 L-8.8 -16.55 -7.3 -18.25 -7.15 -18.3 -7.25 -18.7 -6.9 -19.65 -5.85 -17.65 -2.15 -17.4 -0.65 -17.1 1.75 -16.05 2.35 -15.6 2.45 -15.75 M26.6 20.65 L29.75 17.0 33.65 17.1 37.1 20.2 36.3 21.1 34.35 24.35 34.2 24.6 32.3 26.95 31.3 28.45 30.9 29.15 30.85 29.3 30.45 29.45 Q30.4 29.4 30.3 29.5 L29.85 28.95 27.5 25.85 26.65 25.1 26.4 25.0 26.45 24.9 26.3 24.65 25.9 24.65 25.6 24.25 24.4 23.2 26.2 21.1 26.6 20.65 M-7.65 -22.3 Q-7.65 -22.0 -7.8 -21.75 L-8.35 -18.9 -8.45 -18.85 -11.2 -15.8 -11.9 -15.05 -12.3 -15.0 -12.7 -15.05 -13.1 -14.9 -13.4 -14.9 -13.6 -14.8 -14.0 -14.8 -14.1 -15.05 -14.65 -15.6 -16.75 -17.45 -18.0 -18.95 -19.65 -20.5 -20.2 -21.1 -20.2 -21.15 -14.95 -29.6 -7.65 -22.3" fill="url(#gradient1)" fill-rule="evenodd" stroke="none"/>
    <path d="M-12.1 -11.5 L-11.35 -11.55 -9.85 -11.5 -8.6 -11.3 -7.35 -11.05 -7.2 -10.85 -7.15 -10.65 -6.4 -10.0 1.5 -2.15 2.7 -1.15 3.1 -0.4 4.55 2.2 4.6 2.35 4.8 2.65 5.5 3.9 5.55 4.0 5.7 4.25 5.75 4.5 6.1 5.4 6.2 5.5 6.25 5.65 6.7 6.05 6.85 6.2 7.0 6.3 7.95 7.05 8.05 7.15 Q8.4 7.25 9.45 8.35 L10.15 9.0 10.55 9.4 10.6 9.5 10.9 9.7 11.05 9.85 11.15 10.0 11.1 10.45 10.4 10.4 7.8 11.15 7.1 11.45 7.05 11.5 6.65 11.45 6.55 11.45 6.25 11.4 6.5 11.65 6.3 11.75 4.95 12.15 4.4 12.5 4.35 12.5 3.25 11.4 3.25 11.35 2.3 10.5 1.7 10.05 1.75 9.9 1.8 9.1 1.8 7.95 1.9 7.45 2.05 7.45 2.25 7.35 Q2.5 7.15 2.25 6.8 L1.2 5.75 0.4 4.95 -0.35 4.2 -0.35 4.1 3.9 2.9 3.65 2.45 3.6 2.25 3.55 2.15 2.9 0.7 2.9 0.65 2.8 0.45 2.6 -0.1 Q2.5 -0.1 2.35 -0.2 L2.35 -0.25 Q1.8 -0.55 1.0 -1.4 L-7.15 -9.7 -7.7 -10.4 -9.3 -10.65 -9.7 -10.75 -11.55 -11.0 -11.8 -11.0 Q-12.2 -11.1 -12.4 -11.3 L-12.45 -11.45 -12.1 -11.5 M24.0 23.95 L14.4 14.3 13.85 13.9 13.2 13.15 12.15 12.25 11.95 11.9 12.0 11.65 Q12.15 11.35 12.45 11.5 L12.6 11.55 13.3 12.1 17.0 15.8 24.4 23.2 25.75 24.6 25.9 24.65 26.3 24.65 26.45 24.9 26.4 25.0 26.65 25.1 27.5 25.85 29.85 28.95 29.8 29.0 29.35 29.0 28.05 27.5 26.6 25.75 26.1 25.4 25.8 25.55 25.55 25.45 24.0 23.95 M-19.35 25.3 L-22.25 24.0 -25.8 21.75 -28.0 19.7 -28.6 19.1 -30.45 17.2 -22.15 11.0 -21.65 11.5 -20.5 12.75 -17.7 15.55 -16.15 17.0 -15.95 19.2 -15.85 19.45 -15.45 22.3 -19.35 25.3 M-32.15 15.4 L-33.35 13.85 -33.35 13.75 -34.65 11.5 -27.0 6.15 -25.25 7.75 -25.1 8.05 -25.05 8.0 -23.6 9.5 -32.15 15.4 M-35.9 8.65 L-36.9 5.85 -34.45 4.15 -34.35 4.15 Q-33.55 3.95 -32.3 4.45 L-30.0 4.85 -35.9 8.65 M-12.3 -15.0 L-12.15 -14.95 -12.0 -14.6 -12.0 -14.15 -12.15 -14.1 -12.35 -13.9 -12.35 -13.75 -14.0 -12.55 -17.05 -11.9 -17.55 -11.85 -18.0 -11.7 -18.35 -11.55 -19.55 -11.25 -19.6 -11.35 -20.2 -11.1 -26.75 -18.0 -26.55 -18.2 -26.55 -18.25 -27.0 -18.35 -27.05 -18.4 -27.0 -18.75 Q-26.6 -19.2 -26.85 -19.1 L-26.55 -19.65 -26.35 -19.95 -26.3 -20.05 -24.65 -23.7 Q-23.8 -25.2 -23.5 -26.0 L-23.45 -26.15 Q-22.35 -27.1 -21.05 -27.65 L-20.0 -28.05 -19.95 -28.1 -19.1 -28.55 -17.2 -29.85 Q-16.1 -30.6 -15.6 -30.6 L-20.15 -22.05 -19.95 -22.15 -20.2 -21.95 -20.35 -21.8 -20.35 -21.75 -20.5 -21.65 -20.7 -21.45 -20.5 -21.4 -20.4 -21.3 -20.35 -21.25 -20.25 -21.2 -20.2 -21.15 -20.2 -21.1 -19.65 -20.5 -18.0 -18.95 -16.75 -17.45 -14.65 -15.6 -14.1 -15.05 -14.0 -14.8 -13.6 -14.8 -13.4 -14.9 -13.1 -14.9 -12.7 -15.05 -12.3 -15.0" fill="#ffffff" fill-rule="evenodd" stroke="none"/>
    <path d="M-11.8 -11.0 L-11.55 -11.0 -9.7 -10.75 -9.3 -10.65 -7.7 -10.4 -7.15 -9.7 1.0 -1.4 Q1.8 -0.55 2.35 -0.25 L2.35 -0.2 Q2.5 -0.1 2.6 -0.1 L2.8 0.45 2.9 0.65 2.9 0.7 3.55 2.15 3.6 2.25 3.65 2.45 3.9 2.9 -0.35 4.1 -0.45 4.05 -0.5 4.1 -0.7 3.9 Q-1.4 0.6 -1.9 -0.55 L-3.3 -3.2 -4.9 -5.15 Q-7.35 -7.55 -10.65 -8.65 -12.5 -9.0 -13.2 -9.3 L-11.8 -11.0" fill="#dbdbdb" fill-rule="evenodd" stroke="none"/>
    <path d="M-21.85 -0.15 L-18.8 -1.55 -17.85 -2.05 -14.9 -3.2 -13.0 -3.95 -13.25 -2.9 -13.25 -2.7 -13.5 -0.75 -13.55 -0.3 -12.9 0.45 Q-11.8 1.55 -11.4 1.1 L-11.25 0.95 -8.25 0.35 -8.65 1.75 Q-9.5 5.6 -10.15 7.1 L-10.65 8.75 -11.05 10.5 -11.15 10.35 -13.25 8.45 -21.75 -0.05 -21.85 -0.15" fill="url(#gradient2)" fill-rule="evenodd" stroke="none"/>
    <path d="M0.25 20.5 L0.8 20.15 -0.85 20.85 0.25 20.5 M-33.15 -15.9 L-31.05 0.5 -28.4 0.8 -26.0 0.9 -24.95 2.35 -23.05 4.0 -19.6 7.45 Q-14.2 13.05 -12.8 13.95 L-12.75 14.9 -12.45 17.2 -12.0 18.95 -11.55 19.15 -11.1 19.2 3.65 19.7 Q0.5 21.5 -6.2 23.15 L-11.4 23.6 -13.1 23.3 -13.45 23.25 -13.85 21.05 -14.55 18.35 -14.55 18.1 -14.15 18.05 Q-13.9 17.8 -14.2 17.35 L-15.85 15.3 -25.9 5.25 -27.25 4.05 -27.45 3.95 -27.5 3.85 -28.0 3.4 -28.1 3.4 -32.35 2.65 -32.6 2.65 -33.1 2.65 -34.35 2.7 -35.45 -6.0 -33.15 -15.9" fill="url(#gradient3)" fill-rule="evenodd" stroke="none"/>
    <path d="M-0.45 4.05 L-0.35 4.1 -0.4 4.1 -0.45 4.05" fill="#aaaaaa" fill-rule="evenodd" stroke="none"/>
    <path d="M-16.5 26.1 L-19.35 25.3 -15.45 22.3 Q-15.0 23.8 -14.65 24.1 L-14.6 24.35 -15.0 24.6 Q-14.85 24.6 -14.75 24.75 L-16.5 26.1" fill="#eaeaea" fill-rule="evenodd" stroke="none"/>
    <path d="M-34.65 11.5 L-35.9 8.65 -30.0 4.85 -29.9 4.85 Q-28.3 5.1 -27.75 5.45 L-27.55 5.55 -27.0 6.15 -34.65 11.5" fill="#aeaeae" fill-rule="evenodd" stroke="none"/>
    <path d="M-30.45 17.2 L-32.15 15.4 -23.6 9.5 -22.15 11.0 -30.45 17.2" fill="#e5e5e5" fill-rule="evenodd" stroke="none"/>
    <path d="M-34.5 4.05 L-34.4 4.1 -34.45 4.15 -34.5 4.05" fill="#7b7b7b" fill-rule="evenodd" stroke="none"/>
    <path d="M-34.4 4.1 L-34.35 4.15 -34.45 4.15 -34.4 4.1" fill="#919191" fill-rule="evenodd" stroke="none"/>
    <path d="M-11.05 25.15 L-5.7 24.55 Q2.1 23.1 5.6 19.6 L5.65 19.7 Q5.85 19.5 6.0 19.4 L6.15 20.45 Q-1.55 27.55 -12.05 26.8 L-13.3 26.7 -11.2 25.2 -11.05 25.15 M-1.45 24.0 Q2.35 23.15 3.3 22.2 1.5 23.15 -1.45 24.0" fill="#d5d5d5" fill-rule="evenodd" stroke="none"/>
    <path d="M-13.3 26.7 L-16.5 26.1 -14.75 24.75 -11.2 25.2 -13.3 26.7" fill="#dddddd" fill-rule="evenodd" stroke="none"/>
    <path d="M17.2 4.9 L29.5 16.95 29.75 17.0 26.6 20.65 13.9 9.8 14.3 9.25 14.65 8.75 25.3 16.9 16.15 6.5 17.2 4.9 M24.4 23.2 L17.0 15.8 26.2 21.1 24.4 23.2" fill="#444444" fill-rule="evenodd" stroke="none"/>
    <path d="M16.15 6.5 L25.3 16.9 14.65 8.75 15.1 8.15 15.55 7.5 16.15 6.5 M22.05 24.55 L21.95 24.1 9.1 12.5 11.0 12.15 11.2 12.05 Q11.45 11.9 11.65 11.85 L11.75 11.9 11.95 11.9 12.15 12.25 13.2 13.15 13.85 13.9 14.4 14.3 24.0 23.95 22.05 24.55" fill="#515151" fill-rule="evenodd" stroke="none"/>
    <path d="M13.9 9.8 L26.6 20.65 26.2 21.1 17.0 15.8 13.3 12.1 12.6 11.55 12.45 11.5 12.65 11.25 12.7 11.2 13.9 9.8" fill="#5e5e5e" fill-rule="evenodd" stroke="none"/>
  </g>
  <defs>
    <linearGradient gradientTransform="matrix(0.0199, 0.0147, 0.0099, -0.0134, -16.3, 20.2)" gradientUnits="userSpaceOnUse" id="gradient0" spreadMethod="pad" x1="-819.2" x2="819.2">
      <stop offset="0.0" stop-color="#ffffff"/>
      <stop offset="1.0" stop-color="#595959"/>
    </linearGradient>
    <radialGradient cx="0" cy="0" gradientTransform="matrix(-0.0165, 0.0165, 0.0425, 0.0425, -13.15, -7.3)" gradientUnits="userSpaceOnUse" id="gradient1" r="819.2" spreadMethod="pad">
      <stop offset="0.5333333333333333" stop-color="#999999"/>
      <stop offset="0.803921568627451" stop-color="#4d4d4d"/>
    </radialGradient>
    <linearGradient gradientTransform="matrix(0.0105, -0.017, -0.0079, -0.0048, -18.95, 12.0)" gradientUnits="userSpaceOnUse" id="gradient2" spreadMethod="pad" x1="-819.2" x2="819.2">
      <stop offset="0.0" stop-color="#ffffff"/>
      <stop offset="1.0" stop-color="#595959"/>
    </linearGradient>
    <linearGradient gradientTransform="matrix(-0.0253, -0.0201, -0.0058, 0.0073, -26.0, 4.5)" gradientUnits="userSpaceOnUse" id="gradient3" spreadMethod="pad" x1="-819.2" x2="819.2">
      <stop offset="0.0" stop-color="#ffffff"/>
      <stop offset="1.0" stop-color="#595959"/>
    </linearGradient>
  </defs>
</svg>
