<?xml version="1.0" encoding="UTF-8" standalone="no"?>
<svg xmlns:ffdec="https://www.free-decompiler.com/flash" xmlns:xlink="http://www.w3.org/1999/xlink" ffdec:objectType="shape" height="70.65px" width="71.85px" xmlns="http://www.w3.org/2000/svg">
  <g transform="matrix(1.0, 0.0, 0.0, 1.0, 35.95, 35.3)">
    <path d="M6.05 -31.4 L3.75 -31.95 0.75 -32.25 0.0 -32.3 -0.9 -32.0 -2.5 -31.75 -4.0 -31.95 -5.2 -32.05 -7.25 -31.55 -9.5 -31.1 -11.05 -30.6 -11.3 -30.6 -10.95 -30.45 -8.85 -29.4 -6.6 -27.95 -5.45 -25.9 -5.45 -25.95 -5.35 -25.55 -4.9 -24.2 -4.9 -23.5 -4.95 -23.45 Q-4.95 -22.9 -5.2 -22.45 -5.7 -20.85 -6.95 -18.7 L-7.3 -18.15 -8.15 -16.45 -8.25 -16.55 -8.55 -16.1 -6.45 -13.85 1.25 -6.3 1.65 -5.8 3.45 -4.25 3.6 -4.1 3.9 -4.4 5.2 -5.65 5.65 -6.1 5.85 -6.35 7.25 -7.65 8.25 -8.5 8.35 -8.5 8.65 -8.8 Q9.95 -9.85 11.25 -10.1 13.05 -11.05 13.9 -10.6 L14.6 -10.6 15.85 -10.35 Q16.6 -10.15 17.6 -9.15 18.55 -8.25 19.05 -6.9 L19.5 -9.45 19.6 -10.6 19.55 -12.15 Q19.55 -13.6 19.7 -14.3 L19.6 -15.7 19.45 -16.5 19.4 -18.05 17.9 -21.7 17.25 -23.0 15.15 -25.8 14.1 -27.05 Q10.95 -30.15 6.05 -31.4 M10.1 -34.2 L13.0 -32.25 16.85 -29.35 18.45 -27.0 22.15 -20.8 22.45 -19.05 23.15 -15.3 23.0 -14.25 Q22.95 -12.75 21.9 -8.4 L20.35 -2.35 20.05 -1.2 19.55 -2.1 16.75 -5.6 Q13.4 -8.95 10.5 -7.45 9.35 -6.85 9.0 -5.9 L8.55 -5.55 Q7.45 -4.45 8.65 -3.35 L9.2 -2.95 17.8 5.65 18.8 5.4 22.25 5.5 22.35 5.6 22.8 5.85 23.0 6.15 23.15 6.25 33.4 16.3 35.35 18.2 35.85 18.8 35.85 19.0 35.85 19.05 35.85 19.75 35.85 19.85 Q35.95 20.8 35.1 22.75 34.75 23.5 34.8 24.1 L34.15 24.7 32.85 26.5 29.5 30.35 28.85 31.05 Q25.95 34.2 25.3 34.4 L24.85 34.4 23.35 35.1 20.05 35.35 17.6 35.1 Q17.55 35.0 17.65 34.85 L17.7 34.6 17.25 34.1 16.45 33.85 Q14.75 32.85 10.75 28.5 L7.25 25.0 6.15 23.7 5.8 23.5 5.5 22.7 Q5.25 22.1 5.35 21.8 L5.4 21.7 5.25 19.25 5.3 18.75 2.0 15.35 -2.7 10.4 -3.9 9.1 -4.35 8.35 -5.55 9.15 -5.6 9.2 -5.5 9.25 Q-6.15 9.55 -6.55 10.45 -7.9 12.85 -7.1 14.85 -5.95 17.2 -4.1 19.0 L-3.4 19.75 -6.05 21.05 -9.4 22.9 -12.8 22.9 -20.1 22.45 -22.9 21.95 -24.4 20.45 Q-25.9 18.8 -30.05 15.3 L-30.75 14.75 -31.3 13.8 -33.0 11.25 -33.3 9.5 Q-33.7 7.25 -35.35 1.75 L-35.95 -0.25 Q-34.85 -3.95 -34.55 -6.4 L-32.15 -12.5 -30.8 -16.2 -29.95 -13.45 -28.9 -11.35 -27.25 -9.3 Q-26.75 -8.8 -26.3 -8.55 L-24.9 -8.1 -23.15 -7.95 Q-21.95 -8.0 -21.55 -8.45 -21.1 -8.8 -21.45 -9.2 L-21.4 -9.15 -21.4 -9.2 -21.65 -9.25 Q-21.95 -9.45 -22.8 -9.25 L-23.9 -9.1 -24.75 -10.0 Q-27.1 -12.3 -27.7 -15.25 -28.5 -19.95 -24.2 -24.6 -21.8 -26.8 -19.15 -27.3 L-15.3 -27.15 Q-11.65 -26.2 -9.95 -24.55 L-9.25 -23.25 -9.1 -22.35 -9.25 -21.95 -9.3 -21.45 -9.25 -21.4 -9.0 -21.05 -8.75 -20.75 -8.6 -21.1 -8.2 -21.35 Q-7.4 -22.15 -7.6 -23.45 -7.6 -24.45 -8.1 -25.1 L-9.0 -26.6 -9.95 -27.5 Q-10.9 -28.5 -11.95 -28.95 L-14.35 -30.0 -17.05 -30.6 -15.75 -31.25 -10.5 -33.6 -5.1 -35.3 -4.8 -35.3 -1.85 -35.15 5.85 -34.75 10.1 -34.2 M19.9 -19.0 L20.45 -17.0 20.5 -17.0 20.25 -18.05 20.0 -18.95 19.9 -19.0 M4.35 -15.6 L4.35 -15.65 4.3 -15.8 4.2 -15.95 3.7 -16.6 Q2.9 -17.4 1.45 -17.55 -0.75 -17.75 -3.05 -15.65 L-3.7 -15.25 Q-4.25 -14.8 -3.9 -14.35 L-3.1 -13.55 -1.95 -12.4 Q0.2 -10.05 0.7 -10.1 L0.8 -10.15 0.85 -10.2 1.75 -11.0 1.3 -10.45 2.85 -11.9 Q4.1 -13.1 4.2 -13.95 L4.35 -15.5 4.35 -15.6 M2.8 -18.55 Q3.9 -18.35 4.7 -17.5 5.6 -16.6 5.8 -15.4 6.05 -13.4 4.35 -11.3 L3.45 -10.4 Q1.85 -8.8 1.25 -8.55 L1.0 -8.45 Q0.65 -8.3 0.2 -8.8 L-0.1 -9.1 -1.55 -10.35 -3.1 -12.15 -4.6 -13.55 -5.2 -14.1 -5.45 -14.85 Q-5.4 -15.45 -3.95 -16.7 -2.85 -17.6 -2.3 -17.55 L-1.2 -18.1 Q1.05 -19.0 2.8 -18.55 M3.0 3.7 L3.9 2.75 7.05 -1.15 7.1 -1.2 5.2 -3.1 4.5 -2.45 4.5 -2.35 3.85 -1.85 Q3.25 -1.8 2.25 -2.75 L0.6 -4.55 -2.75 -7.95 -7.0 -12.35 -10.4 -16.05 -10.35 -16.25 -10.5 -16.45 -10.35 -16.9 -9.5 -17.85 -9.85 -18.1 -9.85 -18.15 -10.85 -19.15 Q-10.85 -19.1 -10.95 -19.1 L-11.5 -17.9 -12.65 -16.1 -13.05 -15.75 Q-14.4 -15.55 -14.15 -14.7 L-14.35 -14.45 -14.95 -13.75 -15.15 -13.65 -15.45 -13.45 -15.85 -13.1 -16.4 -12.7 Q-17.1 -12.15 -17.85 -11.65 L-17.95 -11.65 Q-18.45 -11.95 -18.8 -11.5 -19.55 -10.8 -18.65 -10.1 -17.7 -9.2 -17.05 -9.9 -16.75 -10.15 -16.8 -10.4 L-16.15 -11.05 -16.05 -11.15 -15.9 -11.3 -15.15 -11.4 -14.5 -10.9 -13.2 -9.4 -10.65 -6.95 -2.8 0.9 -1.1 2.45 -1.0 2.45 -0.75 2.6 -0.55 3.1 -0.8 3.8 -1.1 4.2 -1.2 4.55 -1.35 4.85 -2.6 6.55 Q-2.55 6.55 -2.45 6.65 L-1.6 7.5 0.05 6.2 0.3 5.95 3.0 3.7 M12.45 12.2 L15.25 8.95 15.95 7.55 8.7 0.45 8.25 0.0 8.15 -0.1 7.95 -0.3 6.25 2.0 4.15 4.65 2.8 6.0 1.15 7.45 -0.25 8.3 -0.6 8.45 -0.3 8.65 7.45 16.5 8.05 16.05 9.05 15.4 11.05 13.65 12.45 12.2 M27.9 28.25 L28.25 27.95 Q30.15 26.05 31.25 23.9 L31.5 23.5 31.5 23.45 33.05 20.55 33.1 20.55 33.05 20.5 32.7 20.2 32.2 19.3 32.15 19.1 31.25 18.05 28.65 15.7 26.75 14.15 25.25 12.75 Q24.0 11.4 22.95 10.75 L22.9 10.65 22.85 10.65 21.25 8.5 21.05 8.3 21.0 8.3 20.6 9.45 18.55 12.35 17.3 14.35 16.5 15.4 16.05 16.05 15.35 16.8 14.9 17.3 14.8 17.4 14.2 17.95 13.7 18.6 12.45 19.35 Q11.9 19.5 11.4 19.85 L10.8 20.2 8.15 21.45 Q8.8 21.75 9.4 22.6 L10.45 24.1 11.45 25.0 12.0 25.55 15.7 29.25 17.75 31.2 18.35 31.95 18.6 32.35 20.3 32.55 21.5 32.5 21.9 32.45 22.15 32.35 24.3 31.15 26.0 29.75 Q26.55 29.1 26.85 29.1 L27.9 28.25 M22.6 10.45 L22.3 10.2 21.4 9.65 21.6 9.45 22.6 10.45 M7.9 19.85 Q7.65 20.15 7.9 20.4 8.45 20.95 10.65 19.1 L10.8 19.1 11.85 18.6 14.0 16.7 15.05 15.6 18.2 11.4 19.6 9.15 Q19.95 8.85 19.8 8.55 L19.9 8.0 19.55 8.0 17.05 7.9 16.75 7.95 Q16.5 8.85 14.8 11.1 L13.1 13.2 11.8 14.6 9.7 16.4 8.75 17.0 8.05 17.45 7.95 19.35 7.9 19.85 M-19.9 -24.1 L-20.15 -23.65 Q-21.35 -23.2 -22.55 -22.2 L-23.2 -21.4 -23.15 -21.4 -23.35 -21.25 -23.35 -21.2 -23.4 -21.15 -24.15 -20.4 -24.45 -19.8 Q-24.95 -19.7 -25.15 -19.4 -26.45 -18.1 -26.05 -16.25 -25.8 -15.1 -25.3 -14.6 L-25.3 -14.5 -24.55 -13.05 -24.55 -13.0 -24.35 -13.1 -23.1 -13.65 -22.0 -14.15 Q-20.45 -15.1 -18.0 -17.6 L-17.1 -18.55 Q-14.1 -21.55 -13.45 -22.8 L-12.9 -23.7 -13.95 -24.2 -14.6 -24.3 Q-15.1 -24.75 -15.9 -24.9 L-18.35 -24.65 -19.7 -24.25 -19.9 -24.1 M-17.15 -17.5 L-17.5 -17.15 Q-20.0 -14.7 -22.65 -13.1 L-24.1 -12.45 -24.0 -12.45 -23.6 -12.4 -23.45 -12.0 -22.85 -12.25 -21.95 -12.05 -21.05 -11.9 -20.2 -12.3 -20.05 -12.45 -19.9 -12.45 -19.05 -12.95 Q-17.55 -13.9 -15.9 -15.5 L-15.8 -15.6 -14.85 -16.6 -11.75 -20.45 -11.4 -21.35 -11.3 -22.45 -12.35 -23.4 Q-13.15 -21.6 -17.15 -17.5 M-30.5 -11.1 L-30.95 -9.65 -31.4 -7.4 -31.9 -5.4 -31.8 -4.2 -31.6 -2.7 -31.6 -2.05 -31.8 -1.15 -32.15 -0.1 -31.75 3.55 -31.55 4.6 Q-30.65 9.25 -28.25 12.5 L-26.85 13.95 -22.8 17.1 -21.5 17.75 -19.35 18.7 -17.8 19.2 -15.5 19.35 -14.15 19.55 -12.0 19.4 -10.45 19.45 -9.3 19.3 -6.8 18.9 -9.0 17.4 -10.2 15.7 -10.4 14.4 -10.4 13.8 Q-10.8 12.95 -10.15 11.5 -9.85 10.2 -8.85 8.95 L-8.65 8.8 -8.3 8.05 -7.5 7.15 -6.85 6.4 -6.4 5.95 -6.1 5.55 -5.6 5.15 -5.6 5.1 -4.3 3.85 -3.3 2.9 -4.0 2.15 -6.85 -0.75 -12.75 -6.5 -15.15 -9.3 -15.25 -9.2 -15.55 -8.95 -15.7 -8.8 -15.8 -8.8 -16.0 -8.7 -16.05 -8.65 -16.3 -8.55 -16.2 -8.5 -18.2 -7.35 -18.65 -7.05 -19.3 -6.65 Q-21.0 -5.8 -22.3 -5.4 L-23.2 -5.2 -23.3 -5.1 Q-23.6 -4.85 -25.45 -5.45 L-25.75 -5.65 -25.85 -5.6 -27.8 -6.75 -29.25 -9.0 -30.3 -11.05 -30.4 -11.45 -30.5 -11.1 M-14.25 -5.55 Q-13.8 -5.75 -13.65 -5.55 L-13.5 -5.4 -11.8 -4.05 -7.55 0.9 -7.55 1.0 -8.15 1.95 Q-10.3 4.15 -12.35 5.0 L-14.75 5.45 Q-16.75 5.4 -18.05 4.1 -19.3 2.85 -19.35 1.6 -19.6 -0.6 -16.95 -3.5 L-14.5 -5.55 -14.25 -5.55 M-13.65 -4.15 L-13.7 -4.15 -13.8 -4.3 -13.75 -4.35 -13.7 -4.35 -13.8 -4.4 -13.85 -4.45 -13.85 -4.5 -13.9 -4.5 -14.05 -4.7 -14.2 -4.6 Q-15.1 -4.7 -17.25 -2.05 -19.8 1.2 -17.75 3.25 -16.9 4.25 -16.1 4.05 L-13.15 3.8 -13.05 3.75 -11.95 3.15 -11.75 3.1 -11.6 3.0 -8.6 1.3 -13.35 -3.95 -13.65 -4.25 -13.65 -4.15 M-18.85 19.7 L-18.75 19.75 -17.9 20.05 -18.85 19.7" fill="#000000" fill-rule="evenodd" stroke="none"/>
    <path d="M6.05 -31.4 L3.3 -25.05 0.95 -25.5 -0.8 -25.6 0.75 -32.25 3.75 -31.95 6.05 -31.4 M8.9 -21.85 L15.15 -25.8 17.25 -23.0 17.9 -21.7 19.4 -18.05 19.45 -16.5 13.1 -16.3 12.95 -16.3 Q11.4 -19.35 9.3 -21.5 L8.9 -21.85" fill="#555555" fill-rule="evenodd" stroke="none"/>
    <path d="M0.75 -32.25 L-0.8 -25.6 -3.2 -25.85 -5.45 -25.95 -5.45 -25.9 -6.6 -27.95 -8.85 -29.4 -10.95 -30.45 -11.05 -30.6 -9.5 -31.1 -7.25 -31.55 -5.2 -32.05 -4.0 -31.95 -2.5 -31.75 -0.9 -32.0 0.0 -32.3 0.75 -32.25 M19.45 -16.5 L19.6 -15.7 19.7 -14.3 Q19.55 -13.6 19.55 -12.15 L19.6 -10.6 19.5 -9.45 19.05 -6.9 Q18.55 -8.25 17.6 -9.15 16.6 -10.15 15.85 -10.35 L14.6 -10.6 Q14.7 -12.9 13.05 -16.1 L13.1 -16.3 19.45 -16.5" fill="#484848" fill-rule="evenodd" stroke="none"/>
    <path d="M-0.8 -25.6 L0.95 -25.5 3.3 -25.05 4.8 -24.55 Q7.15 -23.5 8.9 -21.85 L9.3 -21.5 Q11.4 -19.35 12.95 -16.3 L13.05 -16.1 Q14.7 -12.9 14.6 -10.6 L13.9 -10.6 Q13.05 -11.05 11.25 -10.1 9.95 -9.85 8.65 -8.8 L8.35 -8.5 8.25 -8.5 7.25 -7.65 5.85 -6.35 5.65 -6.1 5.2 -5.65 3.9 -4.4 3.6 -4.1 3.45 -4.25 1.65 -5.8 Q3.15 -8.1 3.9 -9.9 L4.35 -11.3 Q6.05 -13.4 5.8 -15.4 5.6 -16.6 4.7 -17.5 3.9 -18.35 2.8 -18.55 L1.5 -20.15 Q-0.1 -21.75 -2.75 -23.15 -4.05 -23.95 -4.9 -24.2 L-5.35 -25.55 -5.45 -25.95 -3.2 -25.85 -0.8 -25.6 M4.35 -15.6 L4.3 -15.8 4.35 -15.65 4.35 -15.6 M-31.6 -2.05 L-31.6 -2.7 -31.8 -4.2 -31.9 -5.4 -31.4 -7.4 -30.95 -9.65 -30.5 -11.1 -30.3 -11.05 -29.25 -9.0 -27.8 -6.75 -25.85 -5.6 -25.75 -5.65 -25.7 -3.3 -25.5 -0.95 -31.6 -2.05 M-16.05 -8.65 L-16.0 -8.7 -15.8 -8.8 -15.7 -8.8 -15.55 -8.95 -15.25 -9.2 -15.15 -9.3 -12.75 -6.5 -6.85 -0.75 -4.0 2.15 -3.3 2.9 -4.3 3.85 -5.6 5.1 -6.1 5.55 -6.4 5.95 -6.85 6.4 -7.5 7.15 -8.3 8.05 -8.65 8.8 -8.85 8.95 Q-9.85 10.2 -10.15 11.5 -10.8 12.95 -10.4 13.8 L-10.4 14.4 Q-12.1 14.55 -14.25 13.65 -12.4 10.05 -12.35 5.0 -10.3 4.15 -8.15 1.95 L-7.55 1.0 -7.55 0.9 -11.8 -4.05 -13.5 -5.4 -13.65 -5.55 Q-13.8 -5.75 -14.25 -5.55 -15.0 -7.45 -16.05 -8.65 M-13.8 -4.4 L-13.7 -4.35 -13.75 -4.35 -13.8 -4.4" fill="#7b7b7b" fill-rule="evenodd" stroke="none"/>
    <path d="M3.3 -25.05 L6.05 -31.4 Q10.95 -30.15 14.1 -27.05 L15.15 -25.8 8.9 -21.85 Q7.15 -23.5 4.8 -24.55 L3.3 -25.05 M12.95 -16.3 L13.1 -16.3 13.05 -16.1 12.95 -16.3" fill="#696969" fill-rule="evenodd" stroke="none"/>
    <path d="M4.3 -15.8 L4.35 -15.6 4.35 -15.5 4.2 -13.95 Q4.1 -13.1 2.85 -11.9 L1.3 -10.45 1.75 -11.0 0.85 -10.2 0.9 -10.65 1.6 -11.65 Q2.7 -13.0 2.8 -13.9 2.9 -15.5 2.3 -16.1 1.6 -16.8 0.1 -16.3 L-2.9 -14.5 -3.05 -14.7 -2.6 -15.15 -2.75 -15.5 -3.05 -15.65 Q-0.75 -17.75 1.45 -17.55 2.9 -17.4 3.7 -16.6 L4.2 -15.95 4.3 -15.8 M-13.65 -4.15 L-13.65 -4.25 -13.35 -3.95 -8.6 1.3 -11.6 3.0 -11.65 2.95 -11.95 3.15 -12.4 3.2 -12.45 2.1 -13.3 -2.75 -13.65 -4.1 -13.65 -4.15" fill="#626262" fill-rule="evenodd" stroke="none"/>
    <path d="M1.65 -5.8 L1.25 -6.3 -6.45 -13.85 -8.55 -16.1 -8.25 -16.55 -8.15 -16.45 -7.3 -18.15 -6.95 -18.7 Q-5.7 -20.85 -5.2 -22.45 -4.95 -22.9 -4.95 -23.45 L-4.9 -23.5 -4.9 -24.2 Q-4.05 -23.95 -2.75 -23.15 -0.1 -21.75 1.5 -20.15 L2.8 -18.55 Q1.05 -19.0 -1.2 -18.1 L-2.3 -17.55 Q-2.85 -17.6 -3.95 -16.7 -5.4 -15.45 -5.45 -14.85 L-5.2 -14.1 -4.6 -13.55 -3.1 -12.15 -1.55 -10.35 -0.1 -9.1 0.2 -8.8 Q0.65 -8.3 1.0 -8.45 L1.25 -8.55 Q1.85 -8.8 3.45 -10.4 L4.35 -11.3 3.9 -9.9 Q3.15 -8.1 1.65 -5.8 M-2.9 -14.5 L0.1 -16.3 Q1.6 -16.8 2.3 -16.1 2.9 -15.5 2.8 -13.9 2.7 -13.0 1.6 -11.65 L0.9 -10.65 Q0.5 -11.65 -2.9 -14.5 M-25.5 -0.95 L-25.7 -3.3 -25.75 -5.65 -25.45 -5.45 Q-23.6 -4.85 -23.3 -5.1 L-23.2 -5.2 -22.3 -5.4 Q-21.0 -5.8 -19.3 -6.65 L-18.65 -7.05 -18.2 -7.35 -16.2 -8.5 -16.3 -8.55 -16.05 -8.65 Q-15.0 -7.45 -14.25 -5.55 L-14.5 -5.55 -16.95 -3.5 Q-19.6 -0.6 -19.35 1.6 -19.3 2.85 -18.05 4.1 -16.75 5.4 -14.75 5.45 L-12.35 5.0 Q-12.4 10.05 -14.25 13.65 L-15.95 12.9 -17.5 12.05 Q-19.75 10.75 -21.35 9.1 L-22.1 8.3 Q-23.45 6.75 -24.4 4.6 L-24.8 3.35 Q-25.35 1.9 -25.35 0.8 L-25.5 -0.95 M-6.1 5.55 L-5.6 5.1 -5.6 5.15 -6.1 5.55 M-13.75 -4.35 L-13.8 -4.3 -13.7 -4.15 -13.65 -4.15 -13.65 -4.1 -13.3 -2.75 -12.45 2.1 -12.4 3.2 -11.95 3.15 -11.65 2.95 -11.6 3.0 -11.75 3.1 -11.95 3.15 -13.05 3.75 -13.75 3.75 -15.5 3.65 Q-16.45 3.5 -16.95 3.0 -17.65 2.3 -17.5 1.1 -17.4 -0.75 -15.15 -3.0 L-14.15 -3.95 -13.85 -4.3 -13.85 -4.45 -13.8 -4.4 -13.75 -4.35 M-14.2 -4.6 L-14.05 -4.7 -13.9 -4.5 -14.2 -4.6" fill="#878586" fill-rule="evenodd" stroke="none"/>
    <path d="M-3.05 -15.65 L-2.75 -15.5 -2.6 -15.15 -3.05 -14.7 -2.9 -14.5 Q0.5 -11.65 0.9 -10.65 L0.85 -10.2 0.8 -10.15 0.7 -10.1 Q0.2 -10.05 -1.95 -12.4 L-3.1 -13.55 -3.9 -14.35 Q-4.25 -14.8 -3.7 -15.25 L-3.05 -15.65 M0.05 6.2 L-1.6 7.5 -2.45 6.65 Q-2.55 6.55 -2.6 6.55 L-1.35 4.85 -1.1 5.1 0.05 6.2 M9.05 15.4 L8.05 16.05 7.45 16.5 -0.3 8.65 -0.6 8.45 -0.25 8.3 1.15 7.45 9.05 15.4 M-25.3 -14.6 Q-25.8 -15.1 -26.05 -16.25 -26.45 -18.1 -25.15 -19.4 -24.95 -19.7 -24.45 -19.8 L-24.15 -19.9 -23.35 -19.75 Q-22.85 -19.25 -22.8 -17.6 -22.55 -15.7 -23.6 -14.7 -24.05 -14.2 -24.6 -14.2 -25.05 -14.3 -25.25 -14.55 L-25.3 -14.6 M-17.8 -11.6 L-17.25 -11.1 -16.95 -10.75 -16.8 -10.4 Q-16.75 -10.15 -17.05 -9.9 -17.7 -9.2 -18.65 -10.1 -19.55 -10.8 -18.8 -11.5 -18.45 -11.95 -17.95 -11.65 L-17.8 -11.6 M-13.05 3.75 L-13.15 3.8 -16.1 4.05 Q-16.9 4.25 -17.75 3.25 -19.8 1.2 -17.25 -2.05 -15.1 -4.7 -14.2 -4.6 L-13.9 -4.5 -13.85 -4.5 -13.85 -4.45 -13.85 -4.3 -14.15 -3.95 -15.15 -3.0 Q-17.4 -0.75 -17.5 1.1 -17.65 2.3 -16.95 3.0 -16.45 3.5 -15.5 3.65 L-13.75 3.75 -13.05 3.75" fill="#ffffff" fill-rule="evenodd" stroke="none"/>
    <path d="M-14.35 -14.45 L-14.15 -14.7 Q-14.4 -15.55 -13.05 -15.75 L-12.65 -16.1 -11.5 -17.9 -10.95 -19.1 Q-10.85 -19.1 -10.85 -19.15 L-9.85 -18.15 -9.85 -18.1 -9.5 -17.85 -10.35 -16.9 -10.5 -16.45 -10.35 -16.25 -10.4 -16.05 -7.0 -12.35 -2.75 -7.95 0.6 -4.55 2.25 -2.75 Q3.25 -1.8 3.85 -1.85 L4.5 -2.35 4.5 -2.45 5.2 -3.1 7.1 -1.2 7.05 -1.15 3.9 2.75 3.0 3.7 0.7 2.2 Q0.2 2.75 -0.55 3.1 L-0.75 2.6 -1.0 2.45 -1.1 2.45 -2.8 0.9 -10.65 -6.95 -13.2 -9.4 -14.5 -10.9 -15.15 -11.4 -14.75 -11.8 Q-13.8 -12.7 -12.9 -13.1 L-13.55 -13.8 -14.35 -14.45 M4.15 4.65 L6.25 2.0 7.95 -0.3 8.15 -0.1 8.25 0.0 8.7 0.45 15.95 7.55 15.25 8.95 12.45 12.2 11.35 11.1 Q6.9 6.8 4.15 4.65 M27.65 25.95 L28.1 25.4 27.7 25.9 27.65 25.95 27.05 26.55 27.0 26.55 27.65 25.95 M-19.9 -24.1 L-19.7 -24.25 -18.35 -24.65 -15.9 -24.9 Q-15.1 -24.75 -14.6 -24.3 L-13.95 -24.2 -12.9 -23.7 -13.45 -22.8 Q-14.1 -21.55 -17.1 -18.55 -17.1 -21.4 -19.55 -23.85 L-19.9 -24.1 M-21.05 -11.9 Q-20.5 -12.1 -19.1 -13.5 -17.45 -15.2 -17.15 -17.5 -13.15 -21.6 -12.35 -23.4 L-11.3 -22.45 -11.4 -21.35 -11.75 -20.45 -14.85 -16.6 -15.8 -15.6 -15.9 -15.5 Q-17.55 -13.9 -19.05 -12.95 L-19.9 -12.45 -20.05 -12.45 -20.2 -12.3 -21.05 -11.9" fill="#6f6f6f" fill-rule="evenodd" stroke="none"/>
    <path d="M-14.35 -14.45 L-13.55 -13.8 -12.9 -13.1 Q-13.8 -12.7 -14.75 -11.8 L-15.15 -11.4 -15.9 -11.3 -16.05 -11.15 -16.15 -11.05 -16.8 -10.4 -16.95 -10.75 -17.25 -11.1 -17.8 -11.6 -17.85 -11.65 Q-17.1 -12.15 -16.4 -12.7 L-15.85 -13.1 -15.45 -13.45 -15.15 -13.65 -14.95 -13.75 -14.35 -14.45 M-0.55 3.1 Q0.2 2.75 0.7 2.2 L3.0 3.7 0.3 5.95 0.05 6.2 -1.1 5.1 -1.35 4.85 -1.2 4.55 -1.1 4.2 -0.8 3.8 -0.55 3.1 M4.15 4.65 Q6.9 6.8 11.35 11.1 L12.45 12.2 11.05 13.65 9.05 15.4 1.15 7.45 2.8 6.0 4.15 4.65 M-24.45 -19.8 L-24.15 -20.4 -23.4 -21.15 -23.35 -21.2 -23.35 -21.25 -23.15 -21.4 -23.2 -21.4 -22.55 -22.2 Q-21.35 -23.2 -20.15 -23.65 L-19.9 -24.1 -19.55 -23.85 Q-17.1 -21.4 -17.1 -18.55 L-18.0 -17.6 Q-20.45 -15.1 -22.0 -14.15 L-23.1 -13.65 -24.35 -13.1 -24.55 -13.0 -24.55 -13.05 -25.3 -14.5 -25.25 -14.55 Q-25.05 -14.3 -24.6 -14.2 -24.05 -14.2 -23.6 -14.7 -22.55 -15.7 -22.8 -17.6 -22.85 -19.25 -23.35 -19.75 L-24.15 -19.9 -24.45 -19.8 M-21.05 -11.9 L-21.95 -12.05 -22.85 -12.25 -23.45 -12.0 -23.6 -12.4 -24.0 -12.45 -24.1 -12.45 -22.65 -13.1 Q-20.0 -14.7 -17.5 -17.15 L-17.15 -17.5 Q-17.45 -15.2 -19.1 -13.5 -20.5 -12.1 -21.05 -11.9" fill="#808080" fill-rule="evenodd" stroke="none"/>
    <path d="M-25.3 -14.5 L-25.3 -14.6 -25.25 -14.55 -25.3 -14.5 M-17.85 -11.65 L-17.8 -11.6 -17.95 -11.65 -17.85 -11.65" fill="#fae414" fill-rule="evenodd" stroke="none"/>
    <path d="M-31.6 -2.05 L-25.5 -0.95 -25.35 0.8 Q-25.35 1.9 -24.8 3.35 L-31.55 4.6 -31.75 3.55 -32.15 -0.1 -31.8 -1.15 -31.6 -2.05" fill="#9f9f9f" fill-rule="evenodd" stroke="none"/>
    <path d="M-14.25 13.65 Q-12.1 14.55 -10.4 14.4 L-10.2 15.7 -9.0 17.4 -6.8 18.9 -9.3 19.3 -10.45 19.45 -12.0 19.4 -14.15 19.55 -15.5 19.35 -17.8 19.2 -19.35 18.7 -17.5 12.05 -15.95 12.9 -14.25 13.65" fill="#777777" fill-rule="evenodd" stroke="none"/>
    <path d="M-17.5 12.05 L-19.35 18.7 -21.5 17.75 -22.8 17.1 -26.85 13.95 -28.25 12.5 -22.1 8.3 -21.35 9.1 Q-19.75 10.75 -17.5 12.05" fill="#d0d0d0" fill-rule="evenodd" stroke="none"/>
    <path d="M-31.55 4.6 L-24.8 3.35 -24.4 4.6 Q-23.45 6.75 -22.1 8.3 L-28.25 12.5 Q-30.65 9.25 -31.55 4.6" fill="#f7f7f7" fill-rule="evenodd" stroke="none"/>
    <path d="M16.5 15.4 L17.3 14.35 18.55 12.35 20.6 9.45 21.0 8.3 21.05 8.3 21.25 8.5 22.85 10.65 22.9 10.65 22.95 10.75 Q24.0 11.4 25.25 12.75 L26.75 14.15 28.65 15.7 31.25 18.05 32.15 19.1 32.2 19.3 32.7 20.2 33.05 20.5 33.1 20.55 33.05 20.55 31.5 23.45 31.5 23.5 31.25 23.9 Q30.15 26.05 28.25 27.95 L27.9 28.25 27.75 26.5 27.7 25.9 28.1 25.4 27.65 25.95 Q26.75 22.5 22.95 18.65 19.9 15.6 17.7 15.35 L16.5 15.4 M12.0 25.55 L11.45 25.0 11.55 24.65 12.0 25.55 M13.1 13.2 L14.8 11.1 Q16.5 8.85 16.75 7.95 L17.05 7.9 19.55 8.0 19.9 8.0 19.8 8.55 Q19.95 8.85 19.6 9.15 L18.2 11.4 15.05 15.6 14.0 16.7 11.85 18.6 10.8 19.1 10.65 19.1 Q8.45 20.95 7.9 20.4 7.65 20.15 7.9 19.85 L10.5 18.35 10.65 18.3 11.1 18.0 12.7 16.6 13.95 15.25 14.55 14.8 13.55 13.55 13.1 13.2 M22.6 10.45 L21.6 9.45 21.4 9.65 22.3 10.2 22.6 10.45" fill="#222222" fill-rule="evenodd" stroke="none"/>
    <path d="M10.65 18.3 L10.5 18.35 7.9 19.85 7.95 19.35 8.05 17.45 8.75 17.0 9.7 16.4 10.65 18.3" fill="#595959" fill-rule="evenodd" stroke="none"/>
    <path d="M27.9 28.25 L26.85 29.1 Q26.55 29.1 26.0 29.75 L24.3 31.15 22.15 32.35 21.9 32.45 21.5 32.5 20.3 32.55 18.6 32.35 18.35 31.95 17.75 31.2 22.95 31.05 Q23.85 30.05 23.75 27.8 23.55 24.95 21.3 22.7 18.55 19.95 15.25 19.35 13.55 19.0 12.45 19.35 L13.7 18.6 14.2 17.95 14.8 17.4 14.9 17.3 15.35 16.8 16.05 16.05 16.5 15.4 17.7 15.35 Q19.9 15.6 22.95 18.65 26.75 22.5 27.65 25.95 L27.0 26.55 27.05 26.55 27.65 25.95 27.7 25.9 27.75 26.5 27.9 28.25 M11.45 25.0 L10.45 24.1 9.4 22.6 Q8.8 21.75 8.15 21.45 L10.8 20.2 11.4 19.85 Q10.1 21.2 11.05 23.7 L11.55 24.65 11.45 25.0" fill="#373737" fill-rule="evenodd" stroke="none"/>
    <path d="M13.1 13.2 L13.55 13.55 14.55 14.8 13.95 15.25 12.7 16.6 11.1 18.0 10.65 18.3 9.7 16.4 11.8 14.6 13.1 13.2" fill="#404040" fill-rule="evenodd" stroke="none"/>
    <path d="M17.75 31.2 L15.7 29.25 12.0 25.55 11.55 24.65 11.05 23.7 Q10.1 21.2 11.4 19.85 11.9 19.5 12.45 19.35 13.55 19.0 15.25 19.35 18.55 19.95 21.3 22.7 23.55 24.95 23.75 27.8 23.85 30.05 22.95 31.05 L17.75 31.2" fill="#515151" fill-rule="evenodd" stroke="none"/>
  </g>
</svg>
