<?xml version="1.0" encoding="UTF-8" standalone="no"?>
<svg xmlns:ffdec="https://www.free-decompiler.com/flash" xmlns:xlink="http://www.w3.org/1999/xlink" ffdec:objectType="shape" height="28.55px" width="34.9px" xmlns="http://www.w3.org/2000/svg">
  <g transform="matrix(1.0, 0.0, 0.0, 1.0, 20.35, 33.0)">
    <path d="M2.1 -32.05 L7.25 -33.0 9.25 -33.0 Q11.85 -32.65 14.15 -31.85 L14.4 -31.55 14.55 -31.3 11.0 -28.9 -20.25 -4.45 -20.35 -12.0 -19.7 -15.05 -19.05 -16.4 -15.7 -19.75 Q-14.05 -21.45 -13.3 -22.5 L-11.95 -23.2 -9.9 -24.3 Q-9.2 -24.3 -8.45 -23.9 L-8.6 -24.4 Q-8.1 -24.6 -7.7 -25.05 -7.15 -25.7 -7.15 -26.4 -7.15 -27.5 -6.15 -28.75 L-4.2 -30.05 -1.65 -31.65 -1.55 -31.65 2.1 -32.05" fill="#ffffff" fill-opacity="0.69411767" fill-rule="evenodd" stroke="none"/>
  </g>
</svg>
