<?xml version="1.0" encoding="UTF-8" standalone="no"?>
<svg xmlns:ffdec="https://www.free-decompiler.com/flash" xmlns:xlink="http://www.w3.org/1999/xlink" ffdec:objectType="shape" height="222.65px" width="351.05px" xmlns="http://www.w3.org/2000/svg">
  <g transform="matrix(1.0, 0.0, 0.0, 1.0, 161.05, 80.65)">
    <path d="M8.8 -21.3 L14.7 -19.05 15.1 -18.65 -4.6 32.35 Q15.5 43.7 30.25 61.2 36.85 23.35 31.1 -24.5 L52.45 -14.15 73.1 -26.1 Q62.35 18.7 65.85 50.4 94.95 17.2 128.65 13.2 123.3 -10.95 128.45 -48.05 L138.85 -58.6 162.95 -68.35 Q146.55 -23.95 144.75 8.9 157.05 11.0 154.8 27.6 163.9 37.75 167.8 49.05 175.05 49.45 177.15 57.35 L177.2 57.5 Q188.05 61.6 190.0 73.6 184.05 69.15 176.6 71.15 181.7 75.05 181.65 83.0 175.4 78.0 161.7 79.85 L161.8 87.6 Q157.2 80.45 147.55 85.95 L146.95 85.85 Q139.7 86.5 137.35 79.8 131.75 75.65 135.15 47.65 122.65 48.35 122.4 36.35 100.4 40.05 84.45 53.5 76.35 60.35 69.8 69.7 71.6 77.35 70.5 84.35 80.1 91.95 80.25 106.45 90.8 108.75 92.35 120.05 99.75 124.65 97.2 133.25 L97.15 133.25 Q93.85 130.05 88.75 130.55 L89.35 140.1 89.15 140.5 Q81.65 135.0 70.0 136.25 L68.35 142.0 Q63.05 136.75 56.55 140.35 55.6 140.85 54.65 141.6 L54.2 141.65 Q46.85 142.55 40.45 123.75 48.95 112.2 45.95 98.35 36.2 97.45 28.3 84.7 -12.85 42.8 -69.4 30.0 L-80.6 37.3 -95.85 30.7 -95.4 41.85 Q-114.8 58.85 -132.95 61.8 -143.05 61.3 -148.15 48.2 -154.3 47.65 -161.05 49.1 -160.6 42.75 -144.05 36.4 L-157.25 35.55 Q-155.3 26.45 -146.05 24.55 L-145.65 24.45 Q-137.7 13.7 -120.35 22.55 -119.25 18.05 -118.8 12.6 L-118.65 10.0 Q-118.05 -17.85 -105.6 -5.6 -107.4 -40.05 -122.55 -80.65 L-89.75 -74.1 -82.5 -69.85 Q-86.8 -25.05 -78.75 11.85 -61.8 13.0 -46.75 16.4 L-44.85 -36.15 -39.55 -38.2 -29.25 -20.85 -17.35 -35.55 -8.9 -37.55 -5.85 -11.45 8.8 -21.3" fill="#ffffff" fill-rule="evenodd" stroke="none"/>
  </g>
</svg>
