<?xml version="1.0" encoding="UTF-8" standalone="no"?>
<svg xmlns:ffdec="https://www.free-decompiler.com/flash" xmlns:xlink="http://www.w3.org/1999/xlink" ffdec:objectType="shape" height="35.9px" width="36.8px" xmlns="http://www.w3.org/2000/svg">
  <g transform="matrix(1.0, 0.0, 0.0, 1.0, 18.4, 17.95)">
    <path d="M0.75 -17.85 L2.25 -15.7 4.5 -11.4 4.65 -11.05 6.4 -7.65 6.45 -7.55 7.6 -7.45 8.65 -7.2 11.35 -6.9 12.9 -6.55 13.9 -6.45 15.05 -6.2 16.2 -5.9 Q17.4 -5.55 17.9 -5.1 L18.2 -4.85 18.2 -4.65 18.4 -3.65 18.4 -3.45 18.4 -3.35 17.9 -2.75 17.2 -1.95 16.6 -1.3 14.2 1.5 14.2 1.45 13.4 2.15 13.35 2.2 13.25 2.3 12.95 2.6 12.85 2.8 12.45 3.15 12.2 3.35 10.9 4.7 10.9 4.8 10.9 4.85 10.8 4.9 10.8 5.05 10.9 5.5 11.15 7.25 11.2 7.6 11.25 7.85 11.45 8.5 11.65 9.45 11.7 9.5 11.75 9.6 12.35 12.25 12.75 14.4 13.25 16.55 13.25 17.1 13.25 17.55 13.25 17.65 13.15 17.9 12.85 17.95 12.75 17.95 12.5 17.9 12.35 17.95 12.25 17.95 11.55 17.9 11.55 17.75 11.35 17.75 5.7 15.4 4.15 14.5 Q2.5 13.6 1.5 13.25 L1.1 13.0 0.1 12.45 -0.15 12.55 -0.75 12.65 -0.8 12.75 -2.3 13.35 -3.45 14.0 -5.25 14.85 -6.8 15.45 -7.4 15.85 -8.3 16.25 -11.25 17.25 -12.4 17.65 -13.05 17.65 -13.2 17.6 -13.3 17.6 Q-13.65 17.6 -13.7 17.4 L-13.7 17.3 Q-14.0 17.25 -13.9 16.9 L-13.9 16.6 -13.9 16.25 -13.2 13.0 -12.5 9.85 -11.75 6.95 -11.65 6.5 -11.3 4.75 -11.25 4.7 -11.35 4.75 -11.25 4.55 -11.05 4.05 -11.1 3.95 -11.4 3.75 -11.85 3.15 -14.7 0.25 -15.35 -0.3 -15.95 -1.05 -17.9 -3.25 Q-18.0 -3.7 -18.4 -4.0 L-18.4 -4.15 -18.3 -4.95 -18.2 -4.95 -17.7 -5.45 -16.7 -5.6 -16.55 -5.75 -16.15 -5.8 -14.4 -6.25 -12.75 -6.4 -11.85 -6.6 -8.2 -6.9 -7.55 -7.05 -6.6 -7.15 -6.5 -7.15 -6.05 -8.1 Q-2.35 -15.85 -0.85 -17.5 L-0.55 -17.9 -0.45 -17.9 -0.05 -17.9 0.65 -17.95 0.75 -17.85 M16.65 -4.05 L16.6 -4.05 16.65 -4.1 11.05 -5.2 10.7 -5.25 10.6 -5.25 9.5 -5.45 9.35 -5.5 9.2 -5.5 5.75 -5.9 5.6 -6.0 5.7 -6.1 5.4 -6.5 5.35 -6.5 5.15 -6.85 4.9 -7.45 3.0 -11.15 Q1.1 -15.05 0.45 -15.75 L0.15 -16.05 0.05 -16.15 -0.15 -16.15 -0.95 -14.7 -2.1 -12.95 -2.3 -12.5 -2.75 -11.7 Q-2.85 -11.25 -5.5 -5.9 L-5.7 -5.9 -5.8 -5.9 -6.8 -5.75 -7.65 -5.6 -7.75 -5.6 -9.3 -5.4 -9.8 -5.3 -10.0 -5.2 -12.55 -4.85 -15.55 -4.2 -16.0 -4.2 -16.1 -4.15 -16.55 -4.0 -16.5 -3.75 -16.45 -3.6 -16.25 -3.4 -16.0 -3.15 -15.65 -2.75 -14.8 -1.7 -13.5 -0.4 -13.35 -0.25 -12.95 0.15 -12.2 0.95 -11.5 1.55 -10.9 2.3 -10.6 2.6 -9.55 3.8 -9.5 3.75 -9.25 4.0 -9.25 4.05 -9.7 5.65 -10.55 8.75 -11.35 11.55 -12.05 14.8 -12.3 15.55 -12.1 16.1 -9.75 15.1 -6.25 13.65 -5.8 13.4 -4.15 12.6 Q-3.5 12.25 -2.85 12.05 L-1.45 11.25 Q-1.3 11.1 -1.15 11.05 L-1.0 11.0 -0.75 10.95 -0.55 10.8 -0.15 10.7 0.05 10.75 0.2 10.9 0.35 10.9 2.15 11.85 2.25 11.95 3.15 12.35 5.7 13.7 5.7 13.75 9.0 15.35 11.45 16.5 11.7 16.45 11.9 16.05 10.1 8.85 10.05 8.75 9.8 7.1 9.5 5.5 9.2 4.15 9.3 4.15 13.2 0.3 14.7 -1.3 15.95 -2.65 16.3 -3.0 16.55 -3.35 16.85 -3.75 16.85 -3.85 16.7 -4.05 16.65 -4.05 M16.7 -4.05 L16.75 -4.05 16.65 -4.1 16.7 -4.05" fill="#0c3351" fill-rule="evenodd" stroke="none"/>
    <path d="M-16.5 -3.75 L-16.55 -4.0 -16.1 -4.15 -16.0 -4.2 -15.55 -4.2 -12.55 -4.85 -10.0 -5.2 -9.8 -5.3 -9.3 -5.4 -7.75 -5.6 -7.65 -5.6 -6.8 -5.75 -5.8 -5.9 -5.7 -5.9 -5.5 -5.9 Q-2.85 -11.25 -2.75 -11.7 L-2.3 -12.5 -2.1 -12.95 -0.95 -14.7 -0.15 -16.15 0.05 -16.15 0.15 -16.05 0.45 -15.75 Q1.1 -15.05 3.0 -11.15 L4.9 -7.45 5.15 -6.85 5.35 -6.5 5.4 -6.5 5.7 -6.1 5.6 -6.0 5.75 -5.9 9.2 -5.5 9.35 -5.5 9.5 -5.45 10.6 -5.25 10.7 -5.25 11.05 -5.2 16.65 -4.1 16.6 -4.05 16.65 -4.05 16.4 -3.85 16.5 -3.8 16.25 -3.7 16.2 -3.7 13.0 -2.7 13.0 -2.65 12.85 -2.6 Q11.5 -2.3 11.5 -1.9 L11.5 -1.8 11.4 -1.8 11.55 -2.1 8.55 -2.7 4.75 -3.15 3.75 -3.05 2.4 -6.65 Q1.15 -9.8 0.05 -10.5 L-4.15 -3.35 -7.3 -2.8 -9.6 -2.55 -11.2 -2.15 -11.4 -2.15 -11.55 -1.9 -11.85 -2.2 -12.3 -2.35 -12.3 -2.4 -16.5 -3.75 M16.7 -4.05 L16.65 -4.1 16.75 -4.05 16.7 -4.05" fill="url(#gradient0)" fill-rule="evenodd" stroke="none"/>
    <path d="M-11.55 -1.9 L-11.4 -2.15 -11.2 -2.15 -9.6 -2.55 -7.3 -2.8 -4.15 -3.35 0.05 -10.5 Q1.15 -9.8 2.4 -6.65 L3.75 -3.05 4.75 -3.15 8.55 -2.7 11.55 -2.1 11.4 -1.8 11.25 -1.65 Q11.25 -1.3 10.45 -0.65 L10.4 -0.5 10.4 -0.45 7.35 2.15 7.05 2.3 6.15 3.0 6.2 3.1 7.45 6.75 8.15 9.7 8.25 9.8 8.25 9.95 8.35 10.4 8.35 10.5 8.25 10.5 7.75 10.2 6.75 10.0 3.0 7.75 0.2 5.7 -2.45 7.55 -7.35 10.4 -7.75 10.55 -7.95 10.6 -8.2 10.65 -8.3 10.65 -8.55 10.6 -8.45 9.9 -8.5 9.5 -8.35 8.85 -7.75 6.3 -7.25 4.0 -7.0 3.15 -7.1 3.1 -7.05 3.05 -11.2 -1.5 -11.5 -1.65 -11.55 -1.8 -11.55 -1.9" fill="url(#gradient1)" fill-rule="evenodd" stroke="none"/>
    <path d="M-16.5 -3.75 L-12.3 -2.4 -12.3 -2.35 -11.85 -2.2 -11.55 -1.9 -11.55 -1.8 -11.5 -1.65 -11.2 -1.5 -7.05 3.05 -7.1 3.1 -7.0 3.15 -7.25 4.0 -7.75 6.3 -8.35 8.85 -8.5 9.5 -8.45 9.9 -8.55 10.6 -8.3 10.65 -8.2 10.65 -7.95 10.6 -7.75 10.55 -7.35 10.4 -2.45 7.55 0.2 5.7 3.0 7.75 6.75 10.0 7.75 10.2 8.25 10.5 8.35 10.5 8.35 10.4 8.25 9.95 8.25 9.8 8.15 9.7 7.45 6.75 6.2 3.1 6.15 3.0 7.05 2.3 7.35 2.15 10.4 -0.45 10.4 -0.5 10.45 -0.65 Q11.25 -1.3 11.25 -1.65 L11.4 -1.8 11.5 -1.8 11.5 -1.9 Q11.5 -2.3 12.85 -2.6 L13.0 -2.65 13.0 -2.7 16.2 -3.7 16.25 -3.7 16.5 -3.8 16.4 -3.85 16.65 -4.05 16.7 -4.05 16.85 -3.85 16.85 -3.75 16.55 -3.35 16.3 -3.0 15.95 -2.65 14.7 -1.3 13.2 0.3 9.3 4.15 9.2 4.15 9.5 5.5 9.8 7.1 10.05 8.75 10.1 8.85 11.9 16.05 11.7 16.45 11.45 16.5 9.0 15.35 5.7 13.75 5.7 13.7 3.15 12.35 2.25 11.95 2.15 11.85 0.35 10.9 0.2 10.9 0.05 10.75 -0.15 10.7 -0.55 10.8 -0.75 10.95 -1.0 11.0 -1.15 11.05 Q-1.3 11.1 -1.45 11.25 L-2.85 12.05 Q-3.5 12.25 -4.15 12.6 L-5.8 13.4 -6.25 13.65 -9.75 15.1 -12.1 16.1 -12.3 15.55 -12.05 14.8 -11.35 11.55 -10.55 8.75 -9.7 5.65 -9.25 4.05 -9.25 4.0 -9.5 3.75 -9.55 3.8 -10.6 2.6 -10.9 2.3 -11.5 1.55 -12.2 0.95 -12.95 0.15 -13.35 -0.25 -13.5 -0.4 -14.8 -1.7 -15.65 -2.75 -16.0 -3.15 -16.25 -3.4 -16.45 -3.6 -16.5 -3.75" fill="url(#gradient2)" fill-rule="evenodd" stroke="none"/>
  </g>
  <defs>
    <linearGradient gradientTransform="matrix(0.0, 0.0099, -0.0083, 0.0, 1.45, -4.4)" gradientUnits="userSpaceOnUse" id="gradient0" spreadMethod="pad" x1="-819.2" x2="819.2">
      <stop offset="0.0" stop-color="#8eecff"/>
      <stop offset="1.0" stop-color="#38cfff"/>
    </linearGradient>
    <radialGradient cx="0" cy="0" gradientTransform="matrix(0.0148, 0.0, 0.0, 0.0148, 0.65, 0.55)" gradientUnits="userSpaceOnUse" id="gradient1" r="819.2" spreadMethod="pad">
      <stop offset="0.0" stop-color="#54e2ff"/>
      <stop offset="1.0" stop-color="#039ad7"/>
    </radialGradient>
    <linearGradient gradientTransform="matrix(-5.0E-4, -0.0145, 0.0125, -4.0E-4, -0.15, 7.45)" gradientUnits="userSpaceOnUse" id="gradient2" spreadMethod="pad" x1="-819.2" x2="819.2">
      <stop offset="0.0" stop-color="#006dcd"/>
      <stop offset="1.0" stop-color="#1597bf"/>
    </linearGradient>
  </defs>
</svg>
