<?xml version="1.0" encoding="UTF-8" standalone="no"?>
<svg xmlns:ffdec="https://www.free-decompiler.com/flash" xmlns:xlink="http://www.w3.org/1999/xlink" ffdec:objectType="shape" height="16.0px" width="16.05px" xmlns="http://www.w3.org/2000/svg">
  <g transform="matrix(1.0, 0.0, 0.0, 1.0, 8.05, 8.15)">
    <path d="M1.95 -6.05 Q1.6 -6.3 1.5 -6.95 1.5 -7.75 2.55 -7.75 L3.0 -7.55 3.15 -7.45 3.6 -7.25 3.7 -7.25 5.45 -5.9 5.45 -5.85 6.3 -4.8 7.6 -2.3 Q8.0 -1.25 8.0 0.0 L7.95 0.05 7.8 0.1 7.55 0.15 6.75 -0.9 6.25 -1.75 6.0 -2.1 5.9 -2.3 5.2 -3.5 4.0 -4.8 Q3.7 -4.9 3.5 -5.1 3.0 -5.3 2.65 -5.45 2.05 -5.7 2.0 -6.0 L1.95 -6.05 M-0.45 6.45 L-0.7 6.6 -1.25 6.45 -1.4 6.35 -1.55 6.35 -2.95 5.7 Q-3.95 5.25 -4.9 4.0 L-5.75 2.45 -5.75 2.4 -5.8 2.15 -5.65 1.85 -5.25 1.95 -4.1 1.35 -2.95 0.65 Q-2.15 0.2 -2.15 0.8 L-2.4 1.15 -2.35 1.15 -2.05 1.0 -2.0 1.0 -1.35 0.7 -1.3 0.7 Q-1.3 -0.05 -0.75 0.45 L-0.5 0.35 -0.15 0.4 -0.05 0.45 0.05 0.5 Q0.15 0.4 0.2 0.4 L0.5 0.7 0.1 1.65 0.1 1.7 Q0.3 1.7 0.3 2.25 L0.3 2.55 0.3 2.6 0.25 2.8 0.1 3.55 0.0 4.0 0.1 4.1 -0.05 4.4 -0.15 4.6 -0.3 5.75 -0.3 5.85 -0.3 5.95 -0.45 6.45 M-2.8 1.95 L-0.15 0.4 -2.8 1.95" fill="#ffffff" fill-rule="evenodd" stroke="none"/>
    <path d="M2.55 -7.75 Q1.5 -7.75 1.5 -6.95 1.6 -6.3 1.95 -6.05 L-0.35 -6.25 -0.9 -6.15 Q-3.45 -6.05 -5.1 -3.85 L-5.3 -3.6 -5.9 -1.8 -6.15 0.2 -5.9 2.1 -5.75 2.45 -4.9 4.0 Q-3.95 5.25 -2.95 5.7 L-1.55 6.35 -1.4 6.35 -1.25 6.45 -0.7 6.6 -0.45 6.45 -0.05 6.45 1.85 6.2 2.8 5.7 4.9 4.05 5.35 3.4 Q6.25 1.85 6.25 0.0 6.25 -1.25 5.9 -2.3 L6.0 -2.1 6.25 -1.75 6.75 -0.9 7.55 0.15 7.8 0.1 7.95 0.05 Q7.9 3.2 5.6 5.5 L4.3 6.6 Q2.4 7.85 -0.05 7.85 -3.35 7.85 -5.7 5.5 -8.05 3.15 -8.05 -0.15 -8.05 -1.65 -7.55 -2.9 -7.0 -4.5 -5.7 -5.8 -3.35 -8.15 -0.05 -8.15 L2.55 -7.75 M3.7 -7.25 L3.6 -7.25 3.15 -7.45 3.0 -7.55 3.3 -7.45 3.4 -7.4 3.7 -7.25" fill="#fff071" fill-rule="evenodd" stroke="none"/>
    <path d="M5.9 -2.3 Q6.25 -1.25 6.25 0.0 6.25 1.85 5.35 3.4 L5.35 2.9 Q5.35 0.15 3.3 -1.95 1.9 -3.35 0.15 -3.85 L-2.0 -4.15 -5.1 -3.85 Q-3.45 -6.05 -0.9 -6.15 L-0.35 -6.25 1.95 -6.05 2.0 -6.0 Q2.05 -5.7 2.65 -5.45 3.0 -5.3 3.5 -5.1 3.7 -4.9 4.0 -4.8 L5.2 -3.5 5.9 -2.3" fill="#e39e58" fill-rule="evenodd" stroke="none"/>
    <path d="M5.35 3.4 L4.9 4.05 2.8 5.7 1.85 6.2 -0.05 6.45 -0.45 6.45 -0.3 5.95 -0.3 5.85 -0.3 5.75 -0.15 4.6 -0.05 4.4 0.1 4.1 0.0 4.0 0.1 3.55 0.25 2.8 0.3 2.6 0.3 2.55 0.3 2.25 Q0.3 1.7 0.1 1.7 L0.1 1.65 0.5 0.7 0.2 0.4 Q0.15 0.4 0.05 0.5 L-0.05 0.45 -0.15 0.4 0.15 0.2 0.15 -3.85 0.15 0.2 -0.15 0.4 -0.5 0.35 -0.75 0.45 Q-1.3 -0.05 -1.3 0.7 L-1.35 0.7 -2.0 1.0 -2.05 1.0 -2.35 1.15 -2.4 1.15 -2.15 0.8 Q-2.15 0.2 -2.95 0.65 L-4.1 1.35 -5.25 1.95 -5.65 1.85 -5.8 2.15 -5.75 2.4 -5.75 2.45 -5.9 2.1 -6.15 0.2 -5.9 -1.8 -5.3 -3.6 -5.1 -3.85 -2.0 -4.15 0.15 -3.85 Q1.9 -3.35 3.3 -1.95 5.35 0.15 5.35 2.9 L5.35 3.4" fill="#fde6a1" fill-rule="evenodd" stroke="none"/>
    <path d="M-0.15 0.4 L-2.8 1.95 M0.15 -3.85 L0.15 0.2 -0.15 0.4" fill="none" stroke="#854f00" stroke-linecap="square" stroke-linejoin="round" stroke-width="2.0"/>
  </g>
</svg>
