<?xml version="1.0" encoding="UTF-8" standalone="no"?>
<svg xmlns:ffdec="https://www.free-decompiler.com/flash" xmlns:xlink="http://www.w3.org/1999/xlink" ffdec:objectType="shape" height="54.1px" width="58.65px" xmlns="http://www.w3.org/2000/svg">
  <g transform="matrix(1.0, 0.0, 0.0, 1.0, 5.7, 1.0)">
    <path d="M46.4 6.0 Q48.5 9.7 48.95 13.7 49.35 17.6 49.4 21.5 L49.4 29.3 49.2 37.2 48.8 45.0 48.2 52.85 48.15 53.1 27.6 42.1 -2.8 52.7 -3.2 6.9 Q-3.3 2.65 -2.55 3.95 L-1.0 3.65 0.8 3.5 22.05 3.5 Q25.8 2.25 29.4 1.6 L34.2 1.1 Q36.1 1.15 38.0 1.9 39.25 2.4 40.0 3.25 L43.3 3.5 Q45.4 4.3 46.4 6.0" fill="#000000" fill-opacity="0.2" fill-rule="evenodd" stroke="none"/>
    <path d="M0.35 49.2 L0.25 49.25 0.2 49.25 0.25 49.0 0.35 49.2 M0.25 49.25 L0.25 49.0 0.25 49.25" fill="#db0b12" fill-rule="evenodd" stroke="none"/>
    <path d="M0.25 49.0 L0.45 8.05 -4.7 7.9 -4.7 7.45 Q-4.9 2.75 -0.55 0.75 1.3 0.0 3.35 0.0 L3.8 0.0 3.5 2.95 3.3 8.25 Q3.3 26.2 8.15 35.8 10.0 39.5 12.7 42.55 L0.35 49.2 0.25 49.0" fill="#ba0a1c" fill-rule="evenodd" stroke="none"/>
    <path d="M3.8 0.0 L46.05 0.0 Q52.35 2.1 51.95 21.15 L51.95 49.6 26.55 37.65 0.35 49.2 12.7 42.55 Q10.0 39.5 8.15 35.8 3.3 26.2 3.3 8.25 L3.5 2.95 3.8 0.0" fill="url(#gradient0)" fill-rule="evenodd" stroke="none"/>
    <path d="M3.8 0.0 L46.05 0.0 Q52.35 2.1 51.95 21.15 L51.95 49.6 26.55 37.65 0.35 49.2 0.25 49.25 0.25 49.0 0.45 8.05 -4.7 7.9 -4.7 7.45 Q-4.9 2.75 -0.55 0.75 1.3 0.0 3.35 0.0" fill="none" stroke="#54040c" stroke-linecap="round" stroke-linejoin="round" stroke-width="2.0"/>
  </g>
  <defs>
    <radialGradient cx="0" cy="0" gradientTransform="matrix(0.0593, 0.0, 0.0, 0.0593, 44.25, 12.5)" gradientUnits="userSpaceOnUse" id="gradient0" r="819.2" spreadMethod="pad">
      <stop offset="0.0" stop-color="#ff9900"/>
      <stop offset="0.6274509803921569" stop-color="#ed0c14"/>
    </radialGradient>
  </defs>
</svg>
