<?xml version="1.0" encoding="UTF-8" standalone="no"?>
<svg xmlns:ffdec="https://www.free-decompiler.com/flash" xmlns:xlink="http://www.w3.org/1999/xlink" ffdec:objectType="shape" height="44.85px" width="46.95px" xmlns="http://www.w3.org/2000/svg">
  <g transform="matrix(1.0, 0.0, 0.0, 1.0, 23.45, 23.5)">
    <path d="M-0.55 -21.85 Q-2.15 -19.75 -6.8 -14.75 L-10.55 -10.6 -12.2 -8.45 -13.45 -6.95 Q-16.85 -1.7 -16.85 0.0 -16.85 1.75 -12.5 2.15 L-10.3 2.45 -9.8 2.5 -9.65 2.65 Q-8.2 3.05 -8.2 3.75 L-8.2 3.9 -8.8 7.15 Q-9.45 9.85 -9.45 11.55 -9.45 15.2 -6.55 16.75 -5.2 17.45 -3.15 17.75 L0.6 18.0 7.45 17.75 7.65 17.75 Q11.4 17.05 11.4 14.85 L11.4 14.4 11.25 14.25 11.35 14.25 10.2 8.85 9.05 3.9 9.0 3.65 Q9.0 2.55 10.25 2.5 L12.05 2.55 12.75 2.6 Q15.1 2.6 16.35 1.75 L16.4 1.7 17.7 0.2 19.1 3.85 16.35 3.85 16.1 3.9 15.85 3.9 15.45 3.95 15.3 3.9 15.35 3.8 15.05 3.55 11.7 3.45 11.7 3.5 11.45 3.7 Q11.2 3.75 11.2 3.9 L11.15 4.0 11.15 4.05 11.3 4.35 11.3 4.45 10.95 3.9 11.2 4.7 13.3 11.95 Q14.5 16.5 14.5 20.05 L14.5 20.45 Q14.25 20.45 14.25 20.75 L14.4 21.1 14.4 21.35 -17.75 21.35 -13.0 4.95 -12.9 4.75 -12.95 4.75 -12.7 3.9 -20.2 3.85 -20.6 3.9 -23.45 3.9 -19.4 -0.85 -17.7 -2.75 -1.0 -22.3 -0.55 -21.85 M-16.05 -3.75 L-15.8 -4.0 -15.5 -4.2 -15.5 -4.25 -15.25 -4.5 -15.1 -4.8 -14.95 -5.05 -14.8 -5.3 -14.55 -5.6 -14.45 -5.85 -16.05 -3.75 M-16.05 -3.7 L-16.1 -3.6 -16.05 -3.7" fill="#006600" fill-opacity="0.99607843" fill-rule="evenodd" stroke="none"/>
    <path d="M-0.55 -21.85 L-0.05 -21.5 1.65 -20.1 3.1 -18.85 8.8 -12.55 13.2 -7.35 15.1 -4.65 17.7 0.2 16.4 1.7 16.35 1.75 Q15.1 2.6 12.75 2.6 L12.05 2.55 10.25 2.5 Q9.0 2.55 9.0 3.65 L9.05 3.9 10.2 8.85 11.35 14.25 11.25 14.25 11.4 14.4 11.4 14.85 Q11.4 17.05 7.65 17.75 L7.45 17.75 0.6 18.0 -3.15 17.75 Q-5.2 17.45 -6.55 16.75 -9.45 15.2 -9.45 11.55 -9.45 9.85 -8.8 7.15 L-8.2 3.9 -8.2 3.75 Q-8.2 3.05 -9.65 2.65 L-9.8 2.5 -10.3 2.45 -12.5 2.15 Q-16.85 1.75 -16.85 0.0 -16.85 -1.7 -13.45 -6.95 L-12.2 -8.45 -10.55 -10.6 -6.8 -14.75 Q-2.15 -19.75 -0.55 -21.85 M19.1 3.85 L19.25 3.85 19.35 3.9 17.35 3.9 16.1 3.9 16.35 3.85 19.1 3.85 M17.1 20.8 L17.1 20.75 17.15 20.8 17.1 20.8 M-16.05 -3.7 L-16.1 -3.6 -16.05 -3.7 M-16.05 -3.75 L-14.45 -5.85 -14.55 -5.6 -14.8 -5.3 -14.95 -5.05 -15.1 -4.8 -15.25 -4.5 -15.5 -4.25 -15.5 -4.2 -15.8 -4.0 -16.05 -3.75" fill="#009900" fill-opacity="0.99607843" fill-rule="evenodd" stroke="none"/>
    <path d="M17.7 0.2 L15.1 -4.65 13.2 -7.35 8.8 -12.55 3.1 -18.85 1.65 -20.1 -0.05 -21.5 -0.55 -21.85 -1.0 -22.3 0.0 -23.5 23.5 3.9 19.35 3.9 19.25 3.85 19.1 3.85 17.7 0.2 M14.4 21.1 L14.25 20.75 Q14.25 20.45 14.5 20.45 L14.5 20.05 Q14.5 16.5 13.3 11.95 L11.2 4.7 10.95 3.9 11.3 4.45 11.3 4.35 11.15 4.05 11.15 4.0 11.2 3.9 Q11.2 3.75 11.45 3.7 L11.7 3.5 11.7 3.45 15.05 3.55 15.35 3.8 15.3 3.9 15.45 3.95 14.65 3.9 14.15 3.85 13.3 3.7 12.55 3.9 12.5 4.0 17.5 21.35 14.6 21.35 14.45 21.2 14.4 21.1 M17.1 20.8 L17.15 20.8 17.1 20.75 17.1 20.8" fill="#00ff00" fill-opacity="0.99607843" fill-rule="evenodd" stroke="none"/>
  </g>
</svg>
