<?xml version="1.0" encoding="UTF-8" standalone="no"?>
<svg xmlns:ffdec="https://www.free-decompiler.com/flash" xmlns:xlink="http://www.w3.org/1999/xlink" ffdec:objectType="shape" height="30.55px" width="32.2px" xmlns="http://www.w3.org/2000/svg">
  <g transform="matrix(1.0, 0.0, 0.0, 1.0, 16.5, 15.55)">
    <path d="M0.15 -0.05 L-0.1 -0.05 0.1 -0.15 0.15 -0.05 0.15 -0.2 0.25 -0.2 0.25 -0.15 0.15 -0.05 M-1.25 -1.7 L-0.1 -0.3 -14.95 -2.85 -15.75 -3.7 -14.2 -3.85 -1.25 -1.7" fill="#ffef12" fill-rule="evenodd" stroke="none"/>
    <path d="M-8.65 3.85 L0.1 -0.2 0.1 -0.15 -0.1 -0.05 0.15 -0.05 -9.3 13.65 -10.55 14.25 -8.65 3.85 M-5.55 -5.5 L-1.25 -1.7 -14.2 -3.85 -5.85 -5.0 -5.55 -5.5 M9.25 10.75 L3.2 1.25 7.95 3.75 9.25 10.75 M14.75 -4.15 L1.3 -1.3 0.65 -13.1 4.95 -5.5 14.75 -4.15" fill="url(#gradient0)" fill-rule="evenodd" stroke="none"/>
    <path d="M0.1 -0.15 L0.1 -0.2 -8.65 3.85 -14.95 -2.85 -0.1 -0.3 -1.25 -1.7 -5.55 -5.5 -0.4 -14.55 0.15 -0.3 0.25 -0.2 0.15 -0.2 0.15 -0.05 0.1 -0.15 M-9.3 13.65 L0.15 -0.05 0.25 -0.15 0.25 -0.2 0.35 -0.15 8.9 13.8 -0.65 9.05 -9.3 13.65 M3.2 1.25 L0.6 -0.15 14.2 -3.25 7.85 3.35 7.95 3.75 3.2 1.25" fill="#ffbb12" fill-rule="evenodd" stroke="none"/>
    <path d="M0.25 -0.2 L0.15 -0.3 -0.4 -14.55 -0.35 -14.8 0.65 -13.1 1.3 -1.3 14.75 -4.15 14.95 -4.15 14.2 -3.25 0.6 -0.15 3.2 1.25 9.25 10.75 9.75 14.25 8.9 13.8 0.35 -0.15 0.25 -0.2" fill="#fbffad" fill-rule="evenodd" stroke="none"/>
    <path d="M-8.65 3.85 L-10.55 14.25 -9.3 13.65 -0.65 9.05 8.9 13.8 9.75 14.25 9.25 10.75 7.95 3.75 7.85 3.35 14.2 -3.25 14.95 -4.15 14.75 -4.15 4.95 -5.5 0.65 -13.1 -0.35 -14.8 -0.4 -14.55 -5.55 -5.5 -5.85 -5.0 -14.2 -3.85 -15.75 -3.7 -14.95 -2.85 -8.65 3.85 Z" fill="none" stroke="#d47f00" stroke-linecap="round" stroke-linejoin="round" stroke-width="1.5"/>
  </g>
  <defs>
    <radialGradient cx="0" cy="0" gradientTransform="matrix(0.0122, 0.0, 0.0, 0.0122, -0.15, 0.45)" gradientUnits="userSpaceOnUse" id="gradient0" r="819.2" spreadMethod="pad">
      <stop offset="0.0" stop-color="#fbffad"/>
      <stop offset="1.0" stop-color="#ff9900"/>
    </radialGradient>
  </defs>
</svg>
