<?xml version="1.0" encoding="UTF-8" standalone="no"?>
<svg xmlns:ffdec="https://www.free-decompiler.com/flash" xmlns:xlink="http://www.w3.org/1999/xlink" ffdec:objectType="shape" height="92.5px" width="93.9px" xmlns="http://www.w3.org/2000/svg">
  <g transform="matrix(1.0, 0.0, 0.0, 1.0, 47.05, 46.95)">
    <path d="M39.4 31.2 L46.7 33.95 35.05 45.55 31.85 38.8 39.4 31.2 M46.5 -35.15 L39.4 -32.3 32.4 -39.3 31.25 -40.65 31.05 -40.9 31.25 -41.35 33.65 -46.95 34.45 -46.95 46.5 -35.15" fill="#441d00" fill-rule="evenodd" stroke="none"/>
    <path d="M39.4 16.9 L39.4 30.65 39.4 31.2 31.85 38.8 31.55 39.05 31.25 39.05 -31.5 39.05 -32.0 39.05 -39.3 32.05 -39.3 31.8 -40.4 30.7 -40.4 30.65 -40.4 26.55 -31.4 26.9 -29.4 26.95 Q-26.1 24.65 -21.0 25.65 L-19.75 25.7 -10.65 24.7 -10.95 24.3 -12.65 24.2 -13.55 24.1 -13.7 24.15 -15.95 24.1 -16.55 24.35 -16.8 24.4 -25.8 24.0 -31.45 23.3 -33.85 22.8 -40.4 22.4 -40.4 -15.9 -31.45 -15.1 Q-21.6 -14.45 -11.8 -14.9 L-11.25 -15.2 -5.4 -15.5 Q-5.05 -15.6 -4.75 -15.75 L-0.05 -16.05 Q0.2 -16.15 0.5 -16.35 L2.65 -16.65 2.85 -16.65 3.05 -16.75 3.85 -16.9 4.05 -17.0 5.2 -17.2 5.8 -17.5 8.55 -18.05 8.7 -18.1 31.2 -18.35 39.4 -18.4 39.4 -6.35 36.3 -6.4 Q36.0 -6.2 35.6 -6.2 L32.3 -5.85 31.3 -5.1 Q29.0 -3.5 26.35 -2.4 21.65 -0.4 16.45 -2.0 L11.35 -1.05 10.7 -0.95 Q18.4 0.4 26.35 0.4 L26.9 0.1 29.25 -0.2 29.65 -0.35 Q30.3 -0.75 31.0 -1.0 L32.75 -1.4 Q33.05 -1.5 33.35 -1.7 L39.4 -1.95 39.4 10.65 Q36.85 11.15 34.5 10.65 L33.9 10.9 31.25 11.1 29.25 11.2 28.65 11.5 26.35 11.8 25.7 12.1 22.8 12.35 22.5 12.55 16.9 12.35 16.85 12.5 16.3 12.6 1.4 12.9 -5.8 12.75 Q-9.0 14.65 -13.15 14.85 L-14.9 14.95 -14.9 15.05 -14.6 15.25 1.1 15.6 1.65 15.3 8.05 15.4 15.6 16.4 31.25 17.45 32.2 17.4 32.75 17.05 39.4 16.9 M39.4 -32.3 L39.4 -31.05 39.4 -20.05 31.25 -20.0 5.1 -19.9 2.85 -19.9 2.1 -19.6 -1.3 -19.3 -1.85 -18.95 -12.0 -18.9 -24.3 -18.8 -25.0 -19.1 -31.5 -19.35 -33.65 -19.4 -34.4 -19.7 -40.4 -19.95 -40.4 -24.45 -38.8 -25.1 -37.7 -25.5 Q-37.35 -25.55 -37.0 -25.75 L-31.5 -25.65 -25.15 -25.55 -18.25 -25.45 Q-17.95 -25.55 -17.65 -25.75 L-12.4 -26.05 -12.05 -26.2 -12.0 -26.2 -11.8 -26.45 -11.8 -26.85 -12.0 -27.2 -12.1 -27.35 -17.65 -27.45 -17.95 -27.35 -28.65 -27.9 -31.45 -28.1 -38.8 -28.7 -38.85 -28.55 -39.2 -28.45 -40.4 -28.25 -40.4 -30.4 -38.8 -30.4 -37.0 -30.7 -36.45 -31.0 -32.75 -31.5 -31.5 -31.4 -29.4 -31.3 -29.15 -31.45 -28.55 -31.45 -28.35 -31.6 -27.8 -31.7 -12.0 -31.45 -2.45 -31.3 -1.85 -31.6 -0.3 -31.7 4.05 -31.3 4.6 -31.6 4.9 -31.6 5.1 -31.75 Q7.2 -33.15 10.0 -33.2 12.05 -33.25 14.0 -33.9 L13.7 -34.35 12.85 -34.25 8.75 -33.95 Q8.45 -33.75 8.15 -33.65 L5.1 -33.4 4.05 -33.35 3.85 -33.25 2.8 -33.25 -3.3 -33.7 -12.0 -34.2 -17.05 -34.5 -20.45 -34.85 -31.45 -35.75 -37.15 -35.75 -32.0 -40.9 -31.5 -40.9 31.05 -40.9 31.25 -40.65 32.4 -39.3 39.4 -32.3" fill="#833f09" fill-rule="evenodd" stroke="none"/>
    <path d="M31.05 -40.9 L-31.5 -40.9 -32.0 -40.9 -35.25 -46.95 -31.5 -46.95 31.25 -46.95 33.65 -46.95 31.25 -41.35 31.05 -40.9" fill="#4f2100" fill-rule="evenodd" stroke="none"/>
    <path d="M39.4 -20.05 L39.4 -18.4 31.2 -18.35 8.7 -18.1 8.55 -18.05 5.8 -17.5 5.2 -17.2 4.05 -17.0 3.85 -16.9 3.05 -16.75 2.85 -16.65 2.65 -16.65 0.5 -16.35 Q0.2 -16.15 -0.05 -16.05 L-4.75 -15.75 Q-5.05 -15.6 -5.4 -15.5 L-11.25 -15.2 -11.8 -14.9 Q-21.6 -14.45 -31.45 -15.1 L-40.4 -15.9 -40.4 -19.95 -34.4 -19.7 -33.65 -19.4 -31.5 -19.35 -25.0 -19.1 -24.3 -18.8 -12.0 -18.9 -1.85 -18.95 -1.3 -19.3 2.1 -19.6 2.85 -19.9 5.1 -19.9 31.25 -20.0 39.4 -20.05 M39.4 -6.35 L39.4 -1.95 33.35 -1.7 Q33.05 -1.5 32.75 -1.4 L31.0 -1.0 Q30.3 -0.75 29.65 -0.35 L29.25 -0.2 26.9 0.1 26.35 0.4 Q18.4 0.4 10.7 -0.95 L11.35 -1.05 16.45 -2.0 Q21.65 -0.4 26.35 -2.4 29.0 -3.5 31.3 -5.1 L32.3 -5.85 35.6 -6.2 Q36.0 -6.2 36.3 -6.4 L39.4 -6.35 M39.4 10.65 L39.4 16.9 32.75 17.05 32.2 17.4 31.25 17.45 15.6 16.4 8.05 15.4 1.65 15.3 1.1 15.6 -14.6 15.25 -14.9 15.05 -14.9 14.95 -13.15 14.85 Q-9.0 14.65 -5.8 12.75 L1.4 12.9 16.3 12.6 16.85 12.5 16.9 12.35 22.5 12.55 22.8 12.35 25.7 12.1 26.35 11.8 28.65 11.5 29.25 11.2 31.25 11.1 33.9 10.9 34.5 10.65 Q36.85 11.15 39.4 10.65 M-40.4 26.55 L-40.4 22.4 -33.85 22.8 -31.45 23.3 -25.8 24.0 -16.8 24.4 -16.55 24.35 -15.95 24.1 -13.7 24.15 -13.55 24.1 -12.65 24.2 -10.95 24.3 -10.65 24.7 -19.75 25.7 -21.0 25.65 Q-26.1 24.65 -29.4 26.95 L-31.4 26.9 -40.4 26.55 M-40.4 -24.45 L-40.4 -28.25 -39.2 -28.45 -38.85 -28.55 -38.8 -28.7 -31.45 -28.1 -28.65 -27.9 -17.95 -27.35 -17.65 -27.45 -12.1 -27.35 -12.0 -27.2 -11.8 -26.85 -11.8 -26.45 -12.0 -26.2 -12.05 -26.2 -12.4 -26.05 -17.65 -25.75 Q-17.95 -25.55 -18.25 -25.45 L-25.15 -25.55 -31.5 -25.65 -37.0 -25.75 Q-37.35 -25.55 -37.7 -25.5 L-38.8 -25.1 -40.4 -24.45 M-40.4 -30.4 L-40.4 -31.05 -40.4 -32.6 -40.3 -32.65 -37.15 -35.75 -31.45 -35.75 -20.45 -34.85 -17.05 -34.5 -12.0 -34.2 -3.3 -33.7 2.8 -33.25 3.85 -33.25 4.05 -33.35 5.1 -33.4 8.15 -33.65 Q8.45 -33.75 8.75 -33.95 L12.85 -34.25 13.7 -34.35 14.0 -33.9 Q12.05 -33.25 10.0 -33.2 7.2 -33.15 5.1 -31.75 L4.9 -31.6 4.6 -31.6 4.05 -31.3 -0.3 -31.7 -1.85 -31.6 -2.45 -31.3 -12.0 -31.45 -27.8 -31.7 -28.35 -31.6 -28.55 -31.45 -29.15 -31.45 -29.4 -31.3 -31.5 -31.4 -32.75 -31.5 -36.45 -31.0 -37.0 -30.7 -38.8 -30.4 -40.4 -30.4 M34.25 12.75 L34.6 12.75 34.6 12.65 34.5 12.65 34.25 12.75" fill="#753809" fill-rule="evenodd" stroke="none"/>
    <path d="M39.4 31.2 L39.4 30.65 39.4 16.9 39.4 10.65 39.4 -1.95 39.4 -6.35 39.4 -18.4 39.4 -20.05 39.4 -31.05 39.4 -32.3 46.5 -35.15 46.55 -31.05 46.85 30.65 46.85 33.95 46.7 33.95 39.4 31.2" fill="#3a1900" fill-rule="evenodd" stroke="none"/>
    <path d="M34.25 12.75 L34.5 12.65 34.6 12.65 34.6 12.75 34.25 12.75" fill="#a5590e" fill-rule="evenodd" stroke="none"/>
    <path d="M-32.0 39.05 L-31.5 39.05 31.25 39.05 31.55 39.05 31.85 38.8 35.05 45.55 31.25 45.55 -31.5 45.15 -35.25 45.1 -32.0 39.05" fill="#642b00" fill-rule="evenodd" stroke="none"/>
    <path d="M-40.4 26.55 L-40.4 30.65 -40.4 30.7 -47.05 33.5 -47.05 30.65 -47.05 -31.05 -47.05 -35.35 -46.85 -35.35 -40.4 -32.6 -40.4 -31.05 -40.4 -30.4 -40.4 -28.25 -40.4 -24.45 -40.4 -19.95 -40.4 -15.9 -40.4 22.4 -40.4 26.55" fill="#8e4300" fill-rule="evenodd" stroke="none"/>
    <path d="M-40.4 -32.6 L-46.85 -35.35 -35.25 -46.95 -32.0 -40.9 -37.15 -35.75 -40.3 -32.65 -40.4 -32.6 M-47.05 33.5 L-40.4 30.7 -39.3 31.8 -39.3 32.05 -32.0 39.05 -35.25 45.1 -47.05 33.5" fill="#733600" fill-rule="evenodd" stroke="none"/>
  </g>
</svg>
