<?xml version="1.0" encoding="UTF-8" standalone="no"?>
<svg xmlns:ffdec="https://www.free-decompiler.com/flash" xmlns:xlink="http://www.w3.org/1999/xlink" ffdec:objectType="shape" height="252.45px" width="440.3px" xmlns="http://www.w3.org/2000/svg">
  <g transform="matrix(1.0, 0.0, 0.0, 1.0, -160.55, -121.2)">
    <path d="M600.55 132.9 L593.4 135.85 585.05 127.2 587.55 121.2 588.45 121.2 600.55 132.9 M593.4 359.3 L600.65 362.0 589.15 373.65 585.8 367.05 593.4 359.3" fill="#441d00" fill-rule="evenodd" stroke="none"/>
    <path d="M587.55 121.2 L585.05 127.2 175.55 127.2 172.55 121.2 587.55 121.2" fill="#4f2100" fill-rule="evenodd" stroke="none"/>
    <path d="M593.4 135.85 L600.55 132.9 600.65 231.3 600.75 231.3 600.85 362.0 600.65 362.0 593.4 359.3 593.4 135.85" fill="#3a1900" fill-rule="evenodd" stroke="none"/>
    <path d="M589.15 373.65 L341.1 373.55 341.1 373.3 172.55 373.15 175.55 367.2 585.45 367.2 585.8 367.05 589.15 373.65" fill="#773700" fill-rule="evenodd" stroke="none"/>
    <path d="M172.55 373.15 L160.55 361.5 167.35 358.7 168.4 359.95 168.4 360.15 175.55 367.2 172.55 373.15 M160.85 132.7 L172.55 121.2 175.55 127.2 167.35 135.55 160.85 132.7" fill="#733600" fill-rule="evenodd" stroke="none"/>
    <path d="M160.55 361.5 L160.55 132.7 160.85 132.7 167.35 135.55 167.35 358.7 160.55 361.5" fill="#8e4300" fill-rule="evenodd" stroke="none"/>
  </g>
</svg>
