<?xml version="1.0" encoding="UTF-8" standalone="no"?>
<svg xmlns:ffdec="https://www.free-decompiler.com/flash" xmlns:xlink="http://www.w3.org/1999/xlink" ffdec:objectType="shape" height="75.7px" width="76.85px" xmlns="http://www.w3.org/2000/svg">
  <g transform="matrix(1.0, 0.0, 0.0, 1.0, 38.5, 38.55)">
    <path d="M25.4 -33.6 L26.5 -32.3 32.25 -26.55 32.25 -16.55 2.35 -16.4 1.7 -16.15 -1.05 -15.9 -1.5 -15.65 -19.9 -15.5 -20.45 -15.75 -27.55 -16.0 -28.15 -16.25 -33.05 -16.45 -33.05 -20.15 -31.75 -20.65 -30.85 -21.0 -30.3 -21.2 -20.6 -21.05 -14.95 -20.95 -14.45 -21.2 -10.15 -21.45 -9.85 -21.55 -9.65 -21.75 -9.65 -22.1 -9.9 -22.5 -14.45 -22.6 -14.7 -22.5 -23.45 -22.95 -31.75 -23.6 -31.8 -23.5 -32.1 -23.4 -33.05 -23.25 -33.05 -25.0 -31.75 -25.0 -30.3 -25.25 Q-30.05 -25.35 -29.85 -25.5 L-26.8 -25.9 -24.05 -25.75 -23.85 -25.85 -23.35 -25.85 -23.2 -26.0 -22.75 -26.05 -2.0 -25.75 -1.5 -26.0 -0.25 -26.05 3.3 -25.75 3.75 -26.0 4.0 -26.0 Q5.75 -27.25 8.2 -27.3 L11.45 -27.85 11.2 -28.25 10.5 -28.15 7.15 -27.9 6.65 -27.65 3.3 -27.4 3.15 -27.35 2.3 -27.35 -2.7 -27.7 -13.95 -28.35 -16.75 -28.65 -30.4 -29.4 -30.65 -29.15 -26.2 -33.6 25.4 -33.6 M32.25 -15.2 L32.25 -5.3 29.7 -5.35 29.15 -5.2 26.45 -4.9 Q24.2 -3.2 21.55 -2.1 17.7 -0.45 13.45 -1.75 L9.3 -1.0 8.75 -0.9 Q15.05 0.2 21.55 0.2 L22.0 -0.05 23.95 -0.3 24.25 -0.4 25.35 -0.95 26.8 -1.25 27.3 -1.5 32.25 -1.7 32.25 8.6 Q30.15 9.0 28.25 8.6 L27.75 8.8 23.95 9.05 23.45 9.3 21.55 9.55 21.05 9.8 18.65 10.0 18.4 10.15 13.85 10.0 13.8 10.1 13.35 10.2 1.15 10.45 -4.75 10.3 Q-7.35 11.85 -10.75 12.05 L-12.2 12.1 -12.2 12.2 -11.95 12.35 0.9 12.65 1.35 12.4 6.6 12.5 12.75 13.3 26.35 14.1 Q26.55 14.0 26.8 13.85 L32.25 13.7 32.25 25.4 26.05 31.65 25.8 31.85 -26.2 31.85 -32.15 26.1 -32.15 25.9 -33.05 25.0 -33.05 21.6 -24.05 21.95 Q-21.35 20.05 -17.2 20.85 L-16.15 20.9 -8.7 20.1 -8.95 19.75 -10.35 19.7 -11.1 19.6 -11.2 19.65 -13.05 19.6 -13.55 19.8 -13.75 19.85 -21.1 19.5 -27.7 18.55 -33.05 18.2 -33.05 -13.15 -9.65 -12.3 -9.2 -12.55 -4.4 -12.8 -3.9 -13.0 -0.05 -13.25 0.4 -13.5 2.15 -13.75 2.35 -13.75 2.5 -13.85 3.15 -13.95 3.3 -14.05 4.25 -14.2 4.75 -14.45 7.0 -14.9 7.1 -14.95 32.25 -15.2" fill="#5b2c00" fill-rule="evenodd" stroke="none"/>
    <path d="M-30.65 -29.15 L-30.4 -29.4 -16.75 -28.65 -13.95 -28.35 -2.7 -27.7 2.3 -27.35 3.15 -27.35 3.3 -27.4 6.65 -27.65 7.15 -27.9 10.5 -28.15 11.2 -28.25 11.45 -27.85 8.2 -27.3 Q5.75 -27.25 4.0 -26.0 L3.75 -26.0 3.3 -25.75 -0.25 -26.05 -1.5 -26.0 -2.0 -25.75 -22.75 -26.05 -23.2 -26.0 -23.35 -25.85 -23.85 -25.85 -24.05 -25.75 -26.8 -25.9 -29.85 -25.5 Q-30.05 -25.35 -30.3 -25.25 L-31.75 -25.0 -33.05 -25.0 -33.05 -26.7 -33.0 -26.85 -30.65 -29.15 M-33.05 -23.25 L-32.1 -23.4 -31.8 -23.5 -31.75 -23.6 -23.45 -22.95 -14.7 -22.5 -14.45 -22.6 -9.9 -22.5 -9.65 -22.1 -9.65 -21.75 -9.85 -21.55 -10.15 -21.45 -14.45 -21.2 -14.95 -20.95 -20.6 -21.05 -30.3 -21.2 -30.85 -21.0 -31.75 -20.65 -33.05 -20.15 -33.05 -23.25 M-33.05 -16.45 L-28.15 -16.25 -27.55 -16.0 -20.45 -15.75 -19.9 -15.5 -1.5 -15.65 -1.05 -15.9 1.7 -16.15 2.35 -16.4 32.25 -16.55 32.25 -15.2 7.1 -14.95 7.0 -14.9 4.75 -14.45 4.25 -14.2 3.3 -14.05 3.15 -13.95 2.5 -13.85 2.35 -13.75 2.15 -13.75 0.4 -13.5 -0.05 -13.25 -3.9 -13.0 -4.4 -12.8 -9.2 -12.55 -9.65 -12.3 -33.05 -13.15 -33.05 -16.45 M32.25 -5.3 L32.25 -1.7 27.3 -1.5 26.8 -1.25 25.35 -0.95 24.25 -0.4 23.95 -0.3 22.0 -0.05 21.55 0.2 Q15.05 0.2 8.75 -0.9 L9.3 -1.0 13.45 -1.75 Q17.7 -0.45 21.55 -2.1 24.2 -3.2 26.45 -4.9 L29.15 -5.2 29.7 -5.35 32.25 -5.3 M32.25 8.6 L32.25 13.7 26.8 13.85 Q26.55 14.0 26.35 14.1 L12.75 13.3 6.6 12.5 1.35 12.4 0.9 12.65 -11.95 12.35 -12.2 12.2 -12.2 12.1 -10.75 12.05 Q-7.35 11.85 -4.75 10.3 L1.15 10.45 13.35 10.2 13.8 10.1 13.85 10.0 18.4 10.15 18.65 10.0 21.05 9.8 21.55 9.55 23.45 9.3 23.95 9.05 27.75 8.8 28.25 8.6 Q30.15 9.0 32.25 8.6 M28.25 10.25 L28.05 10.3 28.3 10.3 28.3 10.25 28.25 10.25 M-33.05 18.2 L-27.7 18.55 -21.1 19.5 -13.75 19.85 -13.55 19.8 -13.05 19.6 -11.2 19.65 -11.1 19.6 -10.35 19.7 -8.95 19.75 -8.7 20.1 -16.15 20.9 -17.2 20.85 Q-21.35 20.05 -24.05 21.95 L-33.05 21.6 -33.05 18.2" fill="#552800" fill-rule="evenodd" stroke="none"/>
    <path d="M28.25 10.25 L28.3 10.25 28.3 10.3 28.05 10.3 28.25 10.25" fill="#a5590e" fill-rule="evenodd" stroke="none"/>
    <path d="M-33.0 -26.85 L-33.05 -26.7 -33.05 -26.8 -33.0 -26.85" fill="#7a420a" fill-opacity="0.9882353" fill-rule="evenodd" stroke="none"/>
    <path d="M28.7 37.15 L-28.85 36.8 -26.2 31.85 25.8 31.85 26.05 31.65 28.7 37.15 M-28.85 -38.55 L27.55 -38.55 25.4 -33.6 -26.2 -33.6 -28.85 -38.55" fill="#9c7ad4" fill-rule="evenodd" stroke="none"/>
    <path d="M27.55 -38.55 L28.2 -38.55 38.05 -28.9 32.25 -26.55 26.5 -32.3 25.4 -33.6 27.55 -38.55 M38.2 27.65 L28.7 37.15 26.05 31.65 32.25 25.4 38.2 27.65" fill="#8f68cd" fill-rule="evenodd" stroke="none"/>
    <path d="M38.05 -28.9 L38.35 27.65 38.2 27.65 32.25 25.4 32.25 13.7 32.25 8.6 32.25 -1.7 32.25 -5.3 32.25 -15.2 32.25 -16.55 32.25 -26.55 38.05 -28.9" fill="#8e3ab4" fill-rule="evenodd" stroke="none"/>
    <path d="M-28.85 36.8 L-38.5 27.3 -33.05 25.0 -32.15 25.9 -32.15 26.1 -26.2 31.85 -28.85 36.8 M-38.35 -29.05 L-28.85 -38.55 -26.2 -33.6 -30.65 -29.15 -33.0 -26.85 -33.05 -26.8 -38.35 -29.05" fill="#baa2e1" fill-rule="evenodd" stroke="none"/>
    <path d="M-38.5 27.3 L-38.5 -29.05 -38.35 -29.05 -33.05 -26.8 -33.05 -26.7 -33.05 -25.0 -33.05 -23.25 -33.05 -20.15 -33.05 -16.45 -33.05 -13.15 -33.05 18.2 -33.05 21.6 -33.05 25.0 -38.5 27.3" fill="#e8e1f5" fill-rule="evenodd" stroke="none"/>
  </g>
</svg>
