<?xml version="1.0" encoding="UTF-8" standalone="no"?>
<svg xmlns:ffdec="https://www.free-decompiler.com/flash" xmlns:xlink="http://www.w3.org/1999/xlink" ffdec:objectType="shape" height="50.0px" width="49.8px" xmlns="http://www.w3.org/2000/svg">
  <g transform="matrix(1.0, 0.0, 0.0, 1.0, 24.45, 24.55)">
    <path d="M-24.45 7.8 L-24.45 -24.55 25.35 -24.55 25.35 -3.7 Q-0.75 -3.2 -24.45 7.8" fill="#fec556" fill-rule="evenodd" stroke="none"/>
    <path d="M25.35 -3.7 L25.35 25.35 -24.45 25.35 -24.45 7.8 Q-0.75 -3.2 25.35 -3.7" fill="url(#gradient0)" fill-rule="evenodd" stroke="none"/>
    <path d="M-17.05 25.45 L-19.3 25.45 -18.45 21.8 -18.2 21.35 -17.9 20.9 -18.25 20.45 -18.4 20.25 -19.05 19.2 -19.05 19.1 -19.15 19.15 -19.6 18.8 -17.8 17.4 Q-17.2 16.3 -13.15 14.25 L-12.05 13.7 -9.85 12.6 -9.85 12.55 Q-9.45 12.5 -9.45 11.95 -9.75 9.7 -10.0 9.15 L-10.3 7.9 Q-10.35 6.95 -10.55 6.9 L-11.0 6.95 -11.0 6.9 -11.1 6.9 -11.55 5.7 -12.25 3.85 -12.35 3.5 -12.4 3.4 -12.45 3.3 -12.85 2.1 -12.95 1.7 Q-12.55 1.65 -12.55 1.15 -13.75 -3.7 -14.45 -5.45 L-15.65 -8.75 -15.9 -9.5 -15.55 -10.15 -14.9 -10.9 -14.4 -11.7 -12.15 -13.25 -7.85 -16.05 -3.25 -18.75 -1.9 -19.45 -1.1 -20.0 1.65 -21.4 1.9 -21.35 1.5 -18.85 1.5 -18.8 1.35 -18.3 1.45 -18.2 4.05 -19.55 7.75 -21.3 10.75 -22.5 10.8 -22.25 Q10.8 -20.95 9.95 -19.05 L8.95 -17.15 10.65 -16.2 11.1 -16.0 13.85 -14.35 13.85 -14.3 13.8 -14.2 13.9 -13.95 14.05 -13.8 14.1 -13.85 14.1 -13.8 14.15 -12.7 14.15 -12.6 13.75 -9.9 13.6 -9.0 13.05 -5.6 Q12.7 -1.6 11.65 1.1 L12.25 1.2 12.5 1.7 12.6 1.8 12.5 1.85 12.75 2.4 Q12.75 3.55 12.0 5.7 11.8 6.2 11.75 7.35 11.6 8.0 11.1 8.3 L11.1 8.65 10.45 11.55 10.4 11.85 10.85 12.0 11.55 12.5 13.15 13.45 Q14.6 14.1 15.8 14.9 L16.15 15.1 17.55 16.1 Q17.85 16.05 18.3 16.45 L18.4 16.5 18.45 16.55 18.9 17.0 19.2 17.15 20.15 18.2 22.1 20.15 22.05 20.25 21.95 20.3 21.9 20.3 20.7 21.55 20.45 21.8 20.15 22.4 20.4 23.7 20.8 25.45 18.3 25.45 18.05 22.85 Q18.05 21.5 18.3 21.05 L18.35 21.1 Q18.65 20.45 19.9 20.0 L20.15 19.95 19.9 19.75 18.75 18.7 16.95 17.15 16.9 17.1 Q13.85 15.7 12.35 15.2 L12.25 15.15 12.2 15.15 9.55 13.7 8.65 13.05 8.4 12.7 8.6 11.65 8.85 10.1 9.55 7.0 Q10.4 6.9 10.7 4.35 L10.9 3.25 10.6 2.35 10.05 1.7 10.05 1.65 10.15 1.65 10.15 1.2 10.3 0.45 10.6 -1.45 11.3 -5.45 12.3 -13.35 12.15 -13.9 12.05 -13.9 12.05 -13.7 11.95 -13.8 Q11.45 -14.3 10.0 -15.1 L8.0 -16.35 7.9 -16.55 7.8 -16.55 Q7.45 -16.55 7.4 -16.7 L7.4 -17.0 Q7.4 -17.6 8.15 -19.4 L8.65 -20.45 5.95 -19.1 Q1.95 -17.1 -0.3 -15.4 L-0.85 -14.9 -0.95 -14.9 -1.1 -14.9 -1.35 -15.2 -1.4 -15.5 -1.3 -15.95 -1.1 -16.75 -0.45 -18.4 -2.25 -17.4 -7.7 -14.15 -11.4 -11.5 -13.8 -9.85 -13.5 -9.3 -13.15 -7.75 -12.45 -5.0 -10.9 0.55 -10.85 0.7 Q-10.7 0.8 -10.7 1.0 L-11.6 1.75 -11.6 1.8 -11.5 2.45 Q-10.6 4.45 -9.85 6.55 L-9.45 6.65 -9.05 6.6 -9.05 6.5 Q-8.7 6.75 -8.55 7.45 L-8.45 7.75 -8.05 9.2 -7.5 11.35 -7.45 11.45 -7.5 11.85 -7.75 12.6 -7.8 12.6 -8.0 12.8 -8.7 13.3 -9.4 13.95 -10.55 14.65 -11.3 15.2 Q-14.6 17.4 -15.15 17.4 L-15.3 17.4 -18.3 18.85 -17.75 19.4 -17.65 19.5 -16.55 21.05 Q-16.0 21.95 -16.0 22.2 L-16.6 23.9 -17.05 25.45" fill="#106e95" fill-rule="evenodd" stroke="none"/>
    <path d="M-17.65 19.5 L-17.75 19.4 -18.3 18.85 -15.3 17.4 -15.15 17.4 Q-14.6 17.4 -11.3 15.2 L-10.55 14.65 -9.4 13.95 -8.7 13.3 -8.0 12.8 -7.8 12.6 -7.75 12.6 -7.5 11.85 -7.45 11.45 -7.5 11.35 -8.05 9.2 -8.45 7.75 -8.55 7.45 Q-8.7 6.75 -9.05 6.5 L-9.05 6.6 -9.45 6.65 -9.85 6.55 Q-10.6 4.45 -11.5 2.45 L-11.6 1.8 -11.6 1.75 -10.7 1.0 Q-10.7 0.8 -10.85 0.7 L-10.9 0.55 -12.45 -5.0 -13.15 -7.75 -13.5 -9.3 -13.8 -9.85 -11.4 -11.5 -7.7 -14.15 -2.25 -17.4 -0.45 -18.4 -1.1 -16.75 -1.3 -15.95 -1.4 -15.5 -1.35 -15.2 -1.1 -14.9 -0.95 -14.9 -0.85 -14.9 -0.3 -15.4 Q1.95 -17.1 5.95 -19.1 L8.65 -20.45 8.15 -19.4 Q7.4 -17.6 7.4 -17.0 L7.4 -16.7 Q7.45 -16.55 7.8 -16.55 L7.9 -16.55 8.0 -16.35 10.0 -15.1 Q11.45 -14.3 11.95 -13.8 L12.05 -13.7 12.05 -13.9 12.15 -13.9 12.3 -13.35 11.3 -5.45 10.6 -1.45 10.3 0.45 10.15 1.2 10.15 1.65 10.05 1.65 10.05 1.7 10.6 2.35 10.9 3.25 10.7 4.35 Q10.4 6.9 9.55 7.0 L8.85 10.1 8.6 11.65 8.4 12.7 8.65 13.05 9.55 13.7 12.2 15.15 12.25 15.15 12.35 15.2 Q13.85 15.7 16.9 17.1 L16.95 17.15 18.75 18.7 19.9 19.75 20.15 19.95 19.9 20.0 Q18.65 20.45 18.35 21.1 L18.3 21.05 18.15 20.9 Q12.9 16.75 10.4 15.35 L7.45 14.25 Q6.7 13.9 6.7 12.2 6.7 11.15 7.65 5.85 L9.0 -2.85 10.2 -11.1 10.8 -14.1 9.9 -14.65 9.35 -15.0 4.45 -12.85 4.85 -14.25 5.6 -16.0 5.5 -16.0 -3.95 -10.7 -3.95 -11.15 -3.55 -13.4 Q-3.25 -14.75 -2.75 -15.3 L-11.0 -9.9 -8.8 -0.05 Q-6.05 12.0 -6.05 12.95 -6.05 14.0 -6.85 14.65 -7.8 15.5 -10.7 16.55 -10.85 16.6 -16.6 19.4 L-17.65 19.5" fill="#2dbcf8" fill-rule="evenodd" stroke="none"/>
    <path d="M18.3 25.45 L-17.05 25.45 -16.6 23.9 -16.0 22.2 Q-16.0 21.95 -16.55 21.05 L-17.65 19.5 -16.6 19.4 Q-10.85 16.6 -10.7 16.55 -7.8 15.5 -6.85 14.65 -6.05 14.0 -6.05 12.95 -6.05 12.0 -8.8 -0.05 L-11.0 -9.9 -2.75 -15.3 Q-3.25 -14.75 -3.55 -13.4 L-3.95 -11.15 -3.95 -10.7 5.5 -16.0 5.6 -16.0 4.85 -14.25 4.45 -12.85 9.35 -15.0 9.9 -14.65 10.8 -14.1 10.2 -11.1 9.0 -2.85 7.65 5.85 Q6.7 11.15 6.7 12.2 6.7 13.9 7.45 14.25 L10.4 15.35 Q12.9 16.75 18.15 20.9 L18.3 21.05 Q18.05 21.5 18.05 22.85 L18.3 25.45" fill="#1aa6e0" fill-rule="evenodd" stroke="none"/>
  </g>
  <defs>
    <linearGradient gradientTransform="matrix(0.0056, 0.0148, -0.0284, 0.0108, -1.25, 2.9)" gradientUnits="userSpaceOnUse" id="gradient0" spreadMethod="pad" x1="-819.2" x2="819.2">
      <stop offset="0.0" stop-color="#feca00"/>
      <stop offset="0.9921568627450981" stop-color="#ffeca0"/>
    </linearGradient>
  </defs>
</svg>
