<?xml version="1.0" encoding="UTF-8" standalone="no"?>
<svg xmlns:ffdec="https://www.free-decompiler.com/flash" xmlns:xlink="http://www.w3.org/1999/xlink" ffdec:objectType="shape" height="97.7px" width="125.8px" xmlns="http://www.w3.org/2000/svg">
  <g transform="matrix(1.0, 0.0, 0.0, 1.0, 63.6, 1.05)">
    <path d="M54.2 17.1 Q61.2 17.1 61.2 24.1 L61.2 88.65 Q61.2 95.65 54.2 95.65 L-55.6 95.65 Q-62.6 95.65 -62.6 88.65 L-62.6 24.1 Q-62.6 17.1 -55.6 17.1 L-9.75 17.1 0.1 -0.05 9.95 17.1 54.2 17.1" fill="#333333" fill-opacity="0.9019608" fill-rule="evenodd" stroke="none"/>
    <path d="M54.2 17.1 L9.95 17.1 0.1 -0.05 -9.75 17.1 -55.6 17.1 Q-62.6 17.1 -62.6 24.1 L-62.6 88.65 Q-62.6 95.65 -55.6 95.65 L54.2 95.65 Q61.2 95.65 61.2 88.65 L61.2 24.1 Q61.2 17.1 54.2 17.1 Z" fill="none" stroke="#000000" stroke-linecap="round" stroke-linejoin="round" stroke-width="2.0" vector-effect="non-scaling-stroke"/>
  </g>
</svg>
