<?xml version="1.0" encoding="UTF-8" standalone="no"?>
<svg xmlns:ffdec="https://www.free-decompiler.com/flash" xmlns:xlink="http://www.w3.org/1999/xlink" ffdec:objectType="shape" height="53.4px" width="76.45px" xmlns="http://www.w3.org/2000/svg">
  <g transform="matrix(1.0, 0.0, 0.0, 1.0, -10.35, -13.05)">
    <path d="M85.25 23.7 Q86.8 27.25 86.8 30.7 86.8 34.55 84.75 38.35 82.35 42.85 77.8 44.05 L76.4 44.4 73.95 44.55 69.75 44.05 69.35 43.85 68.3 43.4 64.4 46.55 62.65 48.0 59.7 49.6 Q59.3 49.7 59.1 49.9 59.0 50.9 57.35 51.1 L57.05 52.3 Q57.05 53.7 61.5 58.4 64.8 61.8 65.8 63.35 L66.1 64.0 66.1 64.25 66.0 64.55 65.65 65.35 59.75 65.85 47.65 66.45 40.6 66.45 32.1 66.1 27.8 65.45 25.0 65.45 24.1 65.25 26.4 62.9 29.8 60.3 Q35.95 55.45 37.9 54.45 L38.0 54.4 38.0 54.25 37.7 50.35 33.55 47.75 30.65 45.6 29.35 44.6 28.3 43.8 26.85 44.2 22.95 44.55 22.0 44.55 Q14.7 44.15 11.8 38.25 L10.35 31.45 Q10.35 28.05 11.8 25.3 13.35 22.2 17.45 18.45 18.35 17.65 18.45 16.0 L18.4 15.5 18.4 15.1 19.0 14.4 19.5 14.35 23.25 13.85 31.45 14.35 35.6 14.05 39.0 13.6 44.75 13.6 47.3 13.8 60.3 13.8 68.55 13.35 75.75 13.05 78.65 13.3 78.85 13.4 79.25 13.85 79.3 13.85 78.95 17.5 Q83.1 19.0 85.25 23.7 M56.9 46.25 L57.3 46.05 59.25 45.25 Q61.25 44.4 61.9 43.8 62.0 43.65 62.25 43.6 L65.05 41.45 65.85 40.7 67.75 38.7 Q68.55 38.7 70.2 39.7 71.75 40.65 72.25 40.65 78.8 40.65 81.5 35.95 82.9 33.6 82.9 31.0 82.9 27.85 82.1 25.75 80.9 24.35 79.0 23.15 77.5 22.2 76.4 21.95 75.4 22.2 74.45 22.95 L74.45 22.75 74.65 22.15 74.6 22.15 74.65 21.0 74.9 21.0 74.85 20.55 75.05 20.1 74.85 19.2 74.85 17.3 72.7 17.25 66.8 17.0 53.0 16.55 46.3 17.05 38.55 17.7 30.65 17.7 25.65 17.7 22.95 18.45 22.7 18.45 22.8 19.0 22.95 19.4 23.45 21.95 Q23.0 21.95 22.95 22.15 L22.7 22.2 Q22.2 21.65 21.25 21.75 L21.05 21.95 20.05 22.6 Q17.95 23.6 17.2 23.95 16.0 25.1 15.05 27.55 14.25 30.0 14.25 31.6 14.25 33.85 15.5 36.55 17.45 40.65 21.5 40.65 23.6 40.65 26.85 39.75 L28.05 39.4 28.8 39.15 29.65 39.35 29.7 39.25 29.8 39.15 30.05 39.55 30.4 39.95 30.4 40.05 30.45 40.05 30.45 40.1 Q31.2 40.3 32.0 40.9 32.5 41.1 33.05 41.45 L36.45 44.05 Q37.15 44.25 37.85 44.55 L38.05 44.65 39.5 45.35 42.25 46.75 Q42.65 46.45 43.0 46.95 L43.45 48.4 43.45 48.9 43.65 49.5 43.65 50.1 43.75 50.45 43.85 51.9 43.85 52.05 Q44.85 55.4 45.05 57.0 L45.15 57.9 43.75 57.45 43.35 57.55 38.6 59.65 Q32.95 62.25 32.1 62.8 L32.1 62.95 32.05 63.05 35.9 63.2 35.7 63.35 40.3 63.35 47.85 63.3 48.1 63.2 48.5 63.1 59.3 63.05 59.7 63.05 59.45 62.8 59.3 62.75 59.1 62.55 58.65 62.3 55.45 60.3 53.75 59.15 52.5 58.35 Q52.0 57.85 52.0 56.65 L52.0 52.3 Q52.05 50.7 52.5 49.9 L52.7 49.6 Q53.0 48.7 53.4 48.2 L54.0 47.75 Q55.2 47.05 56.9 46.25 M80.4 29.9 L80.15 31.65 Q80.0 33.55 79.4 35.0 L79.0 35.95 Q77.8 37.95 75.65 37.95 L72.45 37.5 72.15 37.4 Q71.2 37.0 69.35 36.55 L69.75 35.95 70.2 35.2 Q72.45 30.1 72.65 28.7 L73.25 25.3 73.95 25.55 Q73.95 25.15 74.35 25.1 77.8 24.6 79.4 26.75 80.4 28.05 80.4 29.9 M74.2 34.6 L74.9 34.75 75.6 34.75 Q77.35 33.6 77.75 32.85 L77.8 31.4 Q77.1 28.75 76.1 28.75 L74.2 34.0 74.2 34.6 M21.35 24.85 L22.7 23.95 23.0 24.1 23.9 25.3 23.9 25.55 25.65 29.7 27.55 35.35 27.4 35.8 27.4 35.95 27.8 36.55 26.85 36.8 26.35 36.95 24.95 37.4 24.75 37.5 21.5 37.95 Q18.85 37.95 17.7 35.0 17.0 33.05 17.0 30.85 L17.1 30.0 Q17.2 28.3 18.1 27.3 18.75 26.5 21.35 24.85 M19.05 32.6 Q19.35 33.55 19.85 34.0 20.6 34.6 22.8 35.35 L22.95 35.35 Q23.2 35.0 23.7 35.0 L22.95 33.15 22.1 31.2 Q21.8 30.4 21.75 28.75 L21.0 28.75 Q19.85 28.75 19.05 32.2 L19.05 32.6" fill="#311708" fill-rule="evenodd" stroke="none"/>
    <path d="M72.7 17.25 L74.85 17.3 74.85 19.2 75.05 20.1 74.85 20.55 74.9 21.0 74.65 21.0 74.6 22.15 74.65 22.15 74.45 22.75 74.45 22.95 Q75.4 22.2 76.4 21.95 77.5 22.2 79.0 23.15 80.9 24.35 82.1 25.75 82.9 27.85 82.9 31.0 82.9 33.6 81.5 35.95 78.8 40.65 72.25 40.65 71.75 40.65 70.2 39.7 68.55 38.7 67.75 38.7 L65.85 40.7 65.05 41.45 62.25 43.6 Q62.0 43.65 61.9 43.8 61.25 44.4 59.25 45.25 L57.3 46.05 56.9 46.25 Q59.2 41.8 63.75 36.3 L70.1 27.9 Q73.0 23.3 73.0 19.7 L72.7 17.25 M48.1 63.2 L47.85 63.3 48.05 63.1 48.1 63.2 M40.3 63.35 L35.7 63.35 35.9 63.2 40.3 63.35 M45.15 57.9 L45.05 57.0 Q44.85 55.4 43.85 52.05 L43.85 51.9 43.75 50.45 43.65 50.1 43.65 49.5 43.45 48.9 43.45 48.4 43.0 46.95 Q42.65 46.45 42.25 46.75 L39.5 45.35 38.05 44.65 41.4 45.0 Q46.55 45.0 49.6 42.9 52.15 41.05 52.95 37.9 L51.25 39.75 47.35 40.2 Q40.7 40.2 35.85 34.6 30.65 28.5 30.65 19.1 L30.65 17.7 38.55 17.7 46.3 17.05 53.0 16.55 66.8 17.0 Q62.35 33.05 54.3 39.45 49.55 43.25 49.05 43.85 46.95 46.5 46.95 51.6 46.95 55.15 47.35 58.65 L45.25 57.9 45.15 57.95 45.15 57.9 M30.45 40.05 L30.4 40.05 30.4 39.95 30.45 40.05 M28.05 39.4 L26.85 39.75 Q23.6 40.65 21.5 40.65 17.45 40.65 15.5 36.55 14.25 33.85 14.25 31.6 14.25 30.0 15.05 27.55 16.0 25.1 17.2 23.95 17.95 23.6 20.05 22.6 L21.05 21.95 21.35 24.85 Q18.75 26.5 18.1 27.3 17.2 28.3 17.1 30.0 L17.0 30.85 Q17.0 33.05 17.7 35.0 18.85 37.95 21.5 37.95 L24.75 37.5 24.95 37.4 26.35 36.95 28.05 39.4 M80.4 29.9 Q80.4 28.05 79.4 26.75 77.8 24.6 74.35 25.1 73.95 25.15 73.95 25.55 L73.25 25.3 72.65 28.7 Q72.45 30.1 70.2 35.2 L69.75 35.95 69.35 36.55 Q71.2 37.0 72.15 37.4 L72.45 37.5 75.65 37.95 Q77.8 37.95 79.0 35.95 L79.4 35.0 Q80.0 33.55 80.15 31.65 L80.4 29.9" fill="#ffef00" fill-rule="evenodd" stroke="none"/>
    <path d="M72.7 17.25 L73.0 19.7 Q73.0 23.3 70.1 27.9 L63.75 36.3 Q59.2 41.8 56.9 46.25 55.2 47.05 54.0 47.75 L53.4 48.2 Q53.0 48.7 52.7 49.6 L52.5 49.9 Q52.05 50.7 52.0 52.3 L52.0 56.65 Q52.0 57.85 52.5 58.35 L53.75 59.15 55.45 60.3 58.65 62.3 59.1 62.55 59.3 62.75 59.3 63.05 48.5 63.1 48.1 63.2 48.05 63.1 47.35 58.65 Q46.95 55.15 46.95 51.6 46.95 46.5 49.05 43.85 49.55 43.25 54.3 39.45 62.35 33.05 66.8 17.0 L72.7 17.25" fill="#ffffff" fill-rule="evenodd" stroke="none"/>
    <path d="M47.85 63.3 L40.3 63.35 35.9 63.2 32.05 63.05 32.1 62.95 32.1 62.8 Q32.95 62.25 38.6 59.65 L43.35 57.55 43.75 57.45 45.15 57.9 45.15 57.95 45.25 57.9 47.35 58.65 48.05 63.1 47.85 63.3 M38.05 44.65 L37.85 44.55 Q37.15 44.25 36.45 44.05 L33.05 41.45 Q32.5 41.1 32.0 40.9 31.2 40.3 30.45 40.1 L30.45 40.05 30.4 39.95 30.05 39.55 29.8 39.15 29.7 39.25 29.65 39.35 28.8 39.15 28.05 39.4 26.35 36.95 26.85 36.8 27.8 36.55 27.4 35.95 27.4 35.8 27.55 35.35 25.65 29.7 23.9 25.55 23.9 25.3 23.0 24.1 22.7 23.95 21.35 24.85 21.05 21.95 21.25 21.75 Q22.2 21.65 22.7 22.2 L22.95 22.15 Q23.0 21.95 23.45 21.95 L22.95 19.4 22.8 19.0 22.7 18.45 22.95 18.45 25.65 17.7 30.65 17.7 30.65 19.1 Q30.65 28.5 35.85 34.6 40.7 40.2 47.35 40.2 L51.25 39.75 52.95 37.9 Q52.15 41.05 49.6 42.9 46.55 45.0 41.4 45.0 L38.05 44.65" fill="#ff9900" fill-rule="evenodd" stroke="none"/>
    <path d="M59.3 62.75 L59.45 62.8 59.7 63.05 59.3 63.05 59.3 62.75" fill="#bea27b" fill-rule="evenodd" stroke="none"/>
  </g>
</svg>
