<?xml version="1.0" encoding="UTF-8" standalone="no"?>
<svg xmlns:ffdec="https://www.free-decompiler.com/flash" xmlns:xlink="http://www.w3.org/1999/xlink" ffdec:objectType="shape" height="186.3px" width="132.1px" xmlns="http://www.w3.org/2000/svg">
  <g transform="matrix(1.0, 0.0, 0.0, 1.0, 66.05, 185.05)">
    <path d="M57.9 -184.05 Q65.05 -184.05 65.05 -176.95 L65.05 -32.9 Q65.05 -25.8 57.9 -25.8 L9.5 -25.8 0.0 0.25 -9.5 -25.8 -57.85 -25.8 Q-65.05 -25.8 -65.05 -32.9 L-65.05 -176.95 Q-65.05 -184.05 -57.85 -184.05 L57.9 -184.05" fill="#333333" fill-opacity="0.9019608" fill-rule="evenodd" stroke="none"/>
    <path d="M57.9 -184.05 L-57.85 -184.05 Q-65.05 -184.05 -65.05 -176.95 L-65.05 -32.9 Q-65.05 -25.8 -57.85 -25.8 L-9.5 -25.8 0.0 0.25 9.5 -25.8 57.9 -25.8 Q65.05 -25.8 65.05 -32.9 L65.05 -176.95 Q65.05 -184.05 57.9 -184.05 Z" fill="none" stroke="#000000" stroke-linecap="round" stroke-linejoin="round" stroke-width="2.0" vector-effect="non-scaling-stroke"/>
  </g>
</svg>
