<?xml version="1.0" encoding="UTF-8" standalone="no"?>
<svg xmlns:ffdec="https://www.free-decompiler.com/flash" xmlns:xlink="http://www.w3.org/1999/xlink" ffdec:objectType="shape" height="63.05px" width="54.45px" xmlns="http://www.w3.org/2000/svg">
  <g transform="matrix(1.0, 0.0, 0.0, 1.0, 27.2, 31.5)">
    <path d="M20.4 -26.85 L20.45 -24.95 Q20.45 -22.65 19.35 -18.65 18.65 -16.2 18.0 -15.15 18.3 -13.85 18.05 -13.15 L17.3 -8.9 17.2 -8.8 16.75 -8.0 15.3 -5.0 14.8 -4.0 Q13.55 -2.35 12.9 -1.85 L11.4 -1.05 10.85 -0.9 8.3 -0.95 7.25 -1.55 7.15 -1.65 Q5.7 -2.2 5.05 -4.25 4.4 -5.85 4.5 -6.9 L4.65 -9.15 5.35 -11.1 7.45 -14.75 9.25 -16.5 9.75 -16.8 9.65 -17.0 10.75 -17.45 Q11.75 -18.05 13.45 -18.35 L13.5 -18.35 14.4 -19.55 15.75 -21.05 16.15 -21.75 16.95 -22.65 17.35 -23.2 19.35 -26.25 20.05 -27.7 20.4 -26.85 M6.1 -31.4 L6.1 -31.3 5.25 -28.55 4.85 -27.15 4.55 -25.7 4.5 -24.8 4.4 -24.7 3.95 -22.65 3.65 -21.6 4.25 -20.7 Q4.7 -18.4 4.3 -15.15 3.8 -12.05 2.65 -10.4 1.45 -8.75 -0.1 -7.45 L-0.45 -7.15 Q-3.8 -4.65 -6.45 -6.15 -10.05 -8.25 -8.6 -14.15 L-6.35 -19.8 Q-4.4 -22.65 -2.4 -23.6 L-1.05 -25.7 -1.0 -25.8 0.35 -27.2 1.45 -28.2 3.35 -29.65 5.35 -31.3 5.5 -31.4 5.65 -31.5 6.1 -31.4 M0.95 -11.7 Q2.0 -13.45 2.25 -16.0 2.55 -18.5 1.55 -20.1 L2.4 -23.3 2.35 -23.6 3.65 -28.25 3.65 -28.3 2.0 -26.7 1.6 -26.3 0.45 -24.95 0.0 -24.05 0.05 -24.05 -0.05 -23.75 -1.3 -21.25 -2.55 -20.65 -4.5 -19.1 Q-5.6 -17.45 -6.45 -14.4 -7.65 -9.95 -5.5 -8.75 -3.5 -7.6 -1.45 -8.95 -0.3 -9.65 0.45 -11.05 L0.95 -11.7 M12.45 -4.3 L12.7 -4.55 Q13.75 -5.7 14.35 -7.0 L15.0 -9.25 15.45 -11.15 16.0 -12.9 16.0 -13.1 15.8 -14.05 15.85 -14.15 16.65 -15.75 17.0 -17.0 17.2 -17.5 17.7 -18.9 18.75 -22.7 18.7 -22.75 16.6 -19.7 15.95 -18.95 15.5 -18.4 15.3 -18.05 13.85 -16.8 13.1 -15.85 12.75 -15.75 Q10.45 -15.0 9.65 -13.4 L8.9 -12.15 6.85 -7.8 6.9 -6.95 7.45 -4.85 Q8.0 -3.8 8.5 -3.55 10.55 -2.75 12.45 -4.3 M14.75 -0.25 L14.75 -0.3 Q15.75 -1.0 16.8 -2.85 17.95 -4.3 19.05 -5.05 L19.55 -5.25 19.95 -5.45 21.3 -5.6 21.4 -5.55 21.65 -5.95 23.95 -8.8 24.85 -10.25 26.25 -13.0 Q26.6 -12.15 27.0 -11.85 L27.25 -9.4 Q27.25 -6.95 26.8 -4.8 L26.35 -3.25 25.0 -0.65 24.65 2.9 22.1 8.5 20.4 10.6 Q18.75 12.2 16.95 12.5 L15.2 12.2 Q13.75 11.75 12.4 10.3 11.1 8.9 10.9 8.15 10.4 5.8 11.05 3.85 L11.9 2.0 12.4 1.55 12.7 1.05 13.25 0.85 14.35 0.05 14.5 -0.05 14.75 -0.25 M24.2 -6.85 L23.65 -5.95 23.4 -5.5 22.05 -3.8 21.4 -2.95 21.35 -3.0 19.8 -2.95 19.7 -2.95 19.1 -2.55 18.45 -1.55 Q17.85 0.3 17.3 0.95 L14.15 3.25 Q13.55 4.05 13.35 4.9 13.2 5.85 13.4 6.7 13.8 9.2 16.0 9.95 L16.6 10.05 Q17.15 9.8 17.35 9.85 L17.45 9.85 Q19.0 9.45 20.7 6.7 22.35 3.85 22.75 2.0 23.0 1.1 22.65 -0.25 L23.9 -2.4 24.35 -3.05 24.5 -3.25 Q25.85 -5.95 25.85 -8.65 L25.8 -9.75 24.2 -6.85 M6.5 4.85 L6.35 7.6 Q6.35 8.25 6.7 8.9 L6.7 8.95 6.95 9.1 7.65 10.3 Q8.3 11.05 10.85 12.8 L11.05 12.9 Q13.8 13.75 14.1 16.6 L13.85 19.25 13.85 19.3 13.7 19.6 13.05 21.05 12.6 22.1 Q11.25 24.9 9.6 27.0 L8.0 28.95 6.45 29.55 6.45 29.6 Q4.2 31.2 1.4 31.45 -1.95 31.8 -8.2 30.55 L-12.15 29.25 Q-15.7 27.7 -17.15 26.8 L-17.6 26.35 -20.95 24.2 Q-22.35 23.05 -24.4 20.0 -25.9 17.95 -26.5 16.2 L-26.85 15.05 -27.15 14.45 -27.1 14.2 -27.1 12.5 -26.35 8.95 -26.25 8.75 -26.2 8.25 -26.05 8.0 Q-24.9 4.9 -23.5 3.5 L-23.1 3.35 Q-22.05 2.3 -21.05 2.3 L-13.2 1.25 Q-11.9 1.05 -10.75 0.1 L-10.45 -0.4 -8.45 -2.4 -6.85 -2.85 Q-4.5 -4.05 -1.25 -3.7 2.1 -2.7 4.05 -1.25 5.6 0.0 5.5 1.35 L6.1 2.05 6.5 4.85 M6.95 25.7 L7.25 25.35 Q9.75 22.75 10.5 20.15 11.45 16.6 9.95 15.7 L6.15 12.6 Q3.55 10.9 3.4 9.75 3.05 7.75 3.4 6.8 3.8 6.1 3.3 3.85 L3.25 3.65 2.25 2.3 0.7 0.9 0.4 0.6 Q-0.45 0.0 -1.9 -0.3 L-2.3 -0.3 -6.1 -0.05 Q-6.6 0.0 -7.3 0.6 L-7.25 0.65 Q-8.45 1.1 -8.85 1.95 L-10.2 3.65 -11.15 4.6 -11.1 4.55 -12.75 4.85 -18.35 4.35 Q-21.1 4.6 -22.25 6.15 L-23.2 8.6 -23.35 9.15 -23.55 9.55 -24.0 13.0 -23.6 15.05 Q-22.85 18.05 -21.7 19.45 L-18.15 22.85 Q-14.5 25.4 -9.45 27.3 -4.5 28.45 -0.3 28.25 L3.65 27.7 4.3 27.65 Q4.4 27.55 4.6 27.55 L4.95 27.5 5.05 27.25 6.95 25.7 M-10.2 -28.65 L-9.6 -28.85 -9.8 -28.35 -10.9 -24.4 -11.8 -22.35 -12.45 -19.35 -12.75 -18.25 Q-11.45 -17.7 -11.15 -17.05 -10.8 -16.4 -10.7 -15.1 L-10.6 -13.7 -10.55 -13.5 Q-10.5 -12.2 -10.75 -11.55 L-10.8 -10.95 -10.85 -10.5 -11.2 -7.65 -11.2 -6.65 -11.25 -5.6 Q-11.15 -5.2 -11.55 -4.15 L-11.55 -4.05 Q-12.05 -2.2 -13.8 -0.9 L-15.2 0.05 Q-16.75 0.75 -18.5 0.45 L-20.1 0.25 Q-24.2 -1.0 -24.05 -7.15 L-23.2 -12.45 -23.1 -12.55 -23.05 -13.05 -23.05 -13.1 -22.85 -14.2 -22.1 -15.8 Q-20.65 -17.65 -20.0 -17.95 L-19.0 -18.35 -19.0 -18.65 Q-19.0 -19.4 -17.65 -21.85 L-15.95 -24.5 -14.75 -25.6 -12.4 -27.3 -10.2 -28.65 M-15.1 -22.9 L-16.1 -21.45 -17.2 -19.35 -17.3 -19.15 -17.85 -17.65 -18.25 -16.4 -18.75 -16.05 Q-20.0 -15.0 -20.3 -13.9 L-20.3 -13.85 -21.0 -12.9 Q-21.75 -11.05 -21.95 -7.8 -22.2 -3.8 -20.25 -2.7 L-17.8 -2.2 -16.3 -2.4 Q-15.55 -2.55 -15.35 -2.9 L-14.0 -4.65 -13.65 -5.65 Q-13.45 -5.9 -13.45 -6.85 -13.25 -7.5 -13.2 -9.1 L-12.8 -11.25 Q-12.4 -12.6 -12.5 -13.7 -12.75 -15.4 -13.9 -16.15 L-14.55 -16.65 -14.65 -16.65 -14.45 -17.35 Q-14.15 -18.8 -14.15 -19.9 L-13.65 -21.95 Q-13.0 -24.0 -12.15 -25.55 -13.85 -24.6 -15.1 -22.9" fill="#000000" fill-rule="evenodd" stroke="none"/>
    <path d="M1.6 -26.3 L2.0 -26.7 3.65 -28.3 3.65 -28.25 2.35 -23.6 2.4 -23.3 1.55 -20.1 Q2.55 -18.5 2.25 -16.0 2.0 -13.45 0.95 -11.7 L1.0 -13.35 Q1.0 -15.0 0.4 -16.2 L-0.3 -17.2 Q1.6 -22.1 1.6 -26.3 M16.6 -19.7 L18.7 -22.75 18.75 -22.7 17.7 -18.9 17.2 -17.5 17.0 -17.0 16.65 -15.75 15.85 -14.15 15.8 -14.05 16.0 -13.1 16.0 -12.9 15.45 -11.15 15.0 -9.25 14.35 -7.0 Q13.75 -5.7 12.7 -4.55 L12.45 -4.3 13.35 -7.65 Q13.8 -9.65 13.75 -11.5 13.65 -12.8 13.9 -13.05 15.2 -14.3 16.05 -17.45 L16.6 -19.7 M20.7 6.7 L20.7 5.85 Q20.7 1.0 21.1 0.05 L22.7 -2.2 Q24.2 -4.4 24.2 -6.85 L25.8 -9.75 25.85 -8.65 Q25.85 -5.95 24.5 -3.25 L24.35 -3.05 23.9 -2.4 22.65 -0.25 Q23.0 1.1 22.75 2.0 22.35 3.85 20.7 6.7 M6.95 25.7 Q7.35 24.3 7.35 23.05 7.35 18.3 4.9 14.9 L1.1 9.4 0.75 3.65 0.4 0.6 0.7 0.9 2.25 2.3 3.25 3.65 3.3 3.85 Q3.8 6.1 3.4 6.8 3.05 7.75 3.4 9.75 3.55 10.9 6.15 12.6 L9.95 15.7 Q11.45 16.6 10.5 20.15 9.75 22.75 7.25 25.35 L6.95 25.7 M-14.0 -4.65 Q-13.65 -6.6 -13.65 -8.0 -13.65 -11.45 -15.1 -13.65 -15.4 -14.1 -16.15 -14.2 -16.6 -14.35 -16.6 -15.4 -16.6 -17.4 -15.7 -20.55 L-15.1 -22.9 Q-13.85 -24.6 -12.15 -25.55 -13.0 -24.0 -13.65 -21.95 L-14.15 -19.9 Q-14.15 -18.8 -14.45 -17.35 L-14.65 -16.65 -14.55 -16.65 -13.9 -16.15 Q-12.75 -15.4 -12.5 -13.7 -12.4 -12.6 -12.8 -11.25 L-13.2 -9.1 Q-13.25 -7.5 -13.45 -6.85 -13.45 -5.9 -13.65 -5.65 L-14.0 -4.65" fill="#001b1e" fill-rule="evenodd" stroke="none"/>
    <path d="M0.95 -11.7 L0.45 -11.05 Q-0.3 -9.65 -1.45 -8.95 -3.5 -7.6 -5.5 -8.75 -7.65 -9.95 -6.45 -14.4 -5.6 -17.45 -4.5 -19.1 L-2.55 -20.65 -1.3 -21.25 -0.05 -23.75 0.05 -24.05 0.0 -24.05 0.45 -24.95 1.6 -26.3 Q1.6 -22.1 -0.3 -17.2 L0.4 -16.2 Q1.0 -15.0 1.0 -13.35 L0.95 -11.7 M16.6 -19.7 L16.05 -17.45 Q15.2 -14.3 13.9 -13.05 13.65 -12.8 13.75 -11.5 13.8 -9.65 13.35 -7.65 L12.45 -4.3 Q10.55 -2.75 8.5 -3.55 8.0 -3.8 7.45 -4.85 L6.9 -6.95 6.85 -7.8 8.9 -12.15 9.65 -13.4 Q10.45 -15.0 12.75 -15.75 L13.1 -15.85 13.85 -16.8 15.3 -18.05 15.5 -18.4 15.95 -18.95 16.6 -19.7 M20.7 6.7 Q19.0 9.45 17.45 9.85 L17.35 9.85 Q17.15 9.8 16.6 10.05 L16.0 9.95 Q13.8 9.2 13.4 6.7 13.2 5.85 13.35 4.9 13.55 4.05 14.15 3.25 L17.3 0.95 Q17.85 0.3 18.45 -1.55 L19.1 -2.55 19.7 -2.95 19.8 -2.95 21.35 -3.0 21.4 -2.95 22.05 -3.8 23.4 -5.5 23.65 -5.95 24.2 -6.85 Q24.2 -4.4 22.7 -2.2 L21.1 0.05 Q20.7 1.0 20.7 5.85 L20.7 6.7 M0.4 0.6 L0.75 3.65 1.1 9.4 4.9 14.9 Q7.35 18.3 7.35 23.05 7.35 24.3 6.95 25.7 L5.05 27.25 4.95 27.5 4.6 27.55 Q4.4 27.55 4.3 27.65 L3.65 27.7 -0.3 28.25 Q-4.5 28.45 -9.45 27.3 -14.5 25.4 -18.15 22.85 L-21.7 19.45 Q-22.85 18.05 -23.6 15.05 L-24.0 13.0 -23.55 9.55 -23.35 9.15 -23.2 8.6 -22.25 6.15 Q-21.1 4.6 -18.35 4.35 L-12.75 4.85 -11.1 4.55 -11.15 4.6 -10.2 3.65 -8.85 1.95 Q-8.45 1.1 -7.25 0.65 L-7.3 0.6 Q-6.6 0.0 -6.1 -0.05 L-2.3 -0.3 -1.9 -0.3 Q-0.45 0.0 0.4 0.6 M-14.0 -4.65 L-15.35 -2.9 Q-15.55 -2.55 -16.3 -2.4 L-17.8 -2.2 -20.25 -2.7 Q-22.2 -3.8 -21.95 -7.8 -21.75 -11.05 -21.0 -12.9 L-20.3 -13.85 -20.3 -13.9 Q-20.0 -15.0 -18.75 -16.05 L-18.25 -16.4 -17.85 -17.65 -17.3 -19.15 -17.2 -19.35 -16.1 -21.45 -15.1 -22.9 -15.7 -20.55 Q-16.6 -17.4 -16.6 -15.4 -16.6 -14.35 -16.15 -14.2 -15.4 -14.1 -15.1 -13.65 -13.65 -11.45 -13.65 -8.0 -13.65 -6.6 -14.0 -4.65" fill="#013036" fill-rule="evenodd" stroke="none"/>
  </g>
</svg>
