<?xml version="1.0" encoding="UTF-8" standalone="no"?>
<svg xmlns:ffdec="https://www.free-decompiler.com/flash" xmlns:xlink="http://www.w3.org/1999/xlink" ffdec:objectType="shape" height="47.7px" width="45.9px" xmlns="http://www.w3.org/2000/svg">
  <g transform="matrix(1.0, 0.0, 0.0, 1.0, 0.0, 0.5)">
    <path d="M13.45 -0.5 L15.25 -0.25 17.6 0.25 19.35 0.6 20.15 0.95 Q20.6 1.15 23.6 3.65 L23.6 3.85 24.45 5.0 36.75 9.4 40.3 10.05 Q41.75 10.5 42.85 11.5 44.0 12.5 44.55 14.15 L44.65 14.5 44.95 15.15 44.95 15.2 Q45.9 17.8 45.9 21.75 L45.7 24.1 45.5 24.65 45.5 24.7 45.1 25.15 45.05 25.15 44.4 25.65 Q44.15 25.75 43.95 26.0 L43.65 26.5 44.0 28.05 44.45 32.75 44.5 36.25 44.55 36.55 42.95 38.0 40.95 39.45 40.15 40.3 40.05 40.3 39.7 40.25 39.65 40.2 39.55 40.1 39.5 40.05 38.7 39.6 38.65 39.55 38.45 39.45 Q37.85 39.65 37.3 40.0 L34.3 41.85 34.05 41.8 Q33.55 41.9 33.55 42.7 L33.85 43.7 33.95 43.85 33.8 43.95 28.95 47.2 28.4 46.95 28.4 46.85 28.3 46.8 27.55 46.35 26.05 45.55 24.9 45.0 Q24.25 44.65 24.1 44.4 L23.3 43.75 22.8 43.6 22.75 43.2 22.75 43.05 20.3 42.0 18.0 40.9 18.0 40.6 18.0 40.5 14.5 38.5 Q13.85 38.15 11.3 36.95 L9.25 36.2 8.6 35.85 8.35 36.25 8.15 36.1 7.55 36.35 7.1 36.45 6.9 36.4 Q6.2 36.4 6.0 36.1 L6.0 36.0 5.6 35.8 4.3 35.2 4.15 35.2 Q3.95 35.2 3.2 34.8 L2.2 34.2 2.0 34.05 2.0 33.65 1.9 31.65 2.4 28.0 2.3 27.45 2.3 27.1 2.3 24.9 2.4 23.55 2.15 23.4 1.25 22.7 1.1 22.55 1.05 22.55 0.6 22.25 0.4 22.15 0.0 21.55 0.05 21.25 0.0 20.85 0.15 15.35 0.2 13.5 Q0.25 12.3 0.45 11.15 L0.45 10.75 0.5 10.45 0.5 9.55 0.7 9.2 Q2.05 6.9 3.1 5.8 L5.6 2.9 Q6.9 2.1 9.1 0.85 9.9 0.45 10.75 0.2 L11.45 0.0 13.3 -0.5 13.45 -0.5 M42.3 25.6 L42.35 25.55 42.8 25.2 44.2 24.05 44.35 21.75 Q44.35 18.5 43.7 16.3 L43.4 15.55 43.25 15.2 43.15 14.85 43.0 14.7 43.1 14.75 43.05 14.6 Q42.35 13.15 41.6 12.55 40.55 11.65 39.0 11.3 L36.45 10.95 34.9 11.0 34.85 11.0 34.75 11.0 34.65 11.0 34.4 11.05 33.65 11.25 Q31.95 11.75 30.0 13.1 L29.15 13.75 28.75 14.2 28.05 14.95 Q27.05 16.25 26.4 17.65 L26.15 18.15 26.1 18.25 25.95 18.55 25.6 19.65 25.55 19.75 25.35 20.5 Q25.05 21.7 25.0 22.9 L25.0 24.3 24.95 24.85 24.95 24.95 24.95 25.05 24.95 25.15 20.4 23.15 20.45 23.05 20.45 22.9 20.4 22.9 20.4 22.8 20.5 21.55 20.5 21.4 13.4 18.35 11.0 19.65 10.9 26.1 10.9 26.6 10.9 26.7 10.9 26.75 10.95 26.85 10.9 26.85 11.0 26.95 17.45 29.8 17.5 29.8 17.65 29.9 18.0 29.65 18.1 29.65 18.5 29.3 18.95 28.9 19.0 28.9 19.0 28.75 28.9 33.6 29.1 33.65 31.15 32.3 31.15 32.1 31.2 31.2 31.2 31.0 31.2 30.15 31.25 29.6 31.3 28.9 31.3 28.85 31.3 28.8 31.4 26.6 Q31.6 24.4 32.05 22.9 L32.85 20.7 33.35 19.85 Q33.7 19.15 34.2 18.55 L34.6 18.2 34.8 17.95 35.05 17.65 Q35.55 17.2 36.1 16.9 L36.4 16.75 36.5 16.65 36.6 16.65 37.55 16.45 38.9 16.75 39.95 17.7 40.4 18.7 40.55 19.55 40.55 19.65 40.55 19.75 40.65 21.4 40.6 23.65 40.55 24.35 40.55 24.55 40.5 24.85 40.5 25.05 40.7 25.1 40.8 25.15 40.85 25.15 41.3 25.3 41.6 25.4 42.2 25.7 42.3 25.7 42.3 25.6 M42.85 27.65 L42.85 26.4 42.65 26.25 Q42.05 26.0 41.9 26.05 L40.4 25.35 40.3 25.3 39.3 26.05 39.2 26.15 38.9 26.25 38.85 26.3 38.6 26.45 38.6 26.6 38.55 26.7 38.55 26.95 38.5 27.5 38.55 27.75 38.5 28.25 38.5 28.5 38.55 28.5 38.5 28.55 38.5 28.7 38.55 28.8 38.55 28.9 38.55 29.05 38.5 29.05 38.5 29.2 38.55 29.15 38.65 37.6 38.85 37.65 Q38.85 38.2 39.85 38.2 39.95 38.6 40.2 38.6 L40.45 38.55 40.55 38.55 40.6 38.55 40.7 38.5 42.05 37.55 43.1 36.6 43.15 36.6 Q43.5 36.6 43.5 35.95 L43.1 31.5 43.05 29.25 42.95 28.15 42.9 28.05 42.85 27.65 M29.2 12.75 L29.3 12.7 29.35 12.65 Q32.1 10.65 34.45 10.55 L35.1 10.55 35.7 10.65 23.5 6.3 23.45 6.3 22.2 5.85 22.1 5.8 21.3 5.55 19.45 5.3 19.15 5.25 17.4 5.25 17.1 5.3 Q15.8 5.4 14.55 6.0 14.15 5.9 14.1 6.25 L13.95 6.3 13.1 6.95 13.0 7.0 12.95 7.1 Q11.8 8.0 10.7 9.5 L10.0 10.55 9.95 10.65 9.9 10.75 9.65 11.35 9.6 11.45 9.55 11.55 8.85 13.5 Q8.6 14.8 8.45 17.05 L10.1 17.75 10.2 17.85 11.75 18.5 13.35 17.7 21.15 20.9 21.1 22.7 24.25 23.95 24.35 24.0 24.35 23.9 Q24.35 20.55 25.4 17.95 L25.45 17.85 25.5 17.75 25.65 17.4 25.7 17.35 27.0 15.3 28.0 13.9 28.35 13.55 28.5 13.5 28.55 13.4 29.15 12.8 29.2 12.75 M7.9 17.4 L7.9 17.3 7.9 17.2 7.9 17.15 7.85 16.75 7.9 15.9 Q8.0 13.4 9.05 11.2 L9.25 10.65 10.15 9.15 Q11.0 7.85 13.0 6.2 14.95 4.6 17.8 4.65 L21.45 4.9 22.0 5.05 22.7 5.25 22.8 5.25 22.8 5.15 22.75 5.15 22.6 5.05 22.35 4.75 21.85 4.3 21.45 4.0 21.35 3.95 21.3 3.9 21.0 3.75 20.85 3.55 19.05 2.55 Q17.0 1.45 14.35 1.25 L14.2 1.25 14.1 1.25 12.8 1.3 12.7 1.3 12.6 1.3 Q7.95 1.6 4.95 5.45 3.2 7.6 2.45 9.9 L2.35 10.2 2.25 10.45 Q2.05 11.05 2.0 11.6 L1.95 11.7 1.9 12.05 1.75 13.55 1.75 13.95 1.7 15.8 1.7 15.75 1.75 15.85 1.75 16.2 1.7 17.35 1.7 19.3 1.8 20.95 7.8 23.75 7.9 23.8 9.1 24.3 9.25 24.45 9.95 24.8 9.95 20.05 9.95 19.6 10.35 19.45 11.05 19.1 11.15 19.0 9.5 18.25 9.0 18.0 8.95 18.0 8.05 17.5 8.0 17.45 7.9 17.45 7.9 17.4 M39.95 19.65 L39.95 19.6 Q39.6 16.85 37.95 16.85 L37.6 16.85 36.65 17.2 36.05 17.45 35.9 17.65 35.0 18.35 34.1 19.4 33.1 21.8 Q31.85 25.45 31.85 27.1 L31.85 27.4 31.8 28.35 31.85 29.1 31.85 29.35 31.7 29.5 31.75 29.65 31.8 29.7 31.8 29.75 31.85 29.75 32.05 29.8 36.25 27.35 39.65 25.0 40.0 24.75 40.1 22.7 40.0 20.05 39.95 19.95 39.95 19.9 39.95 19.8 39.95 19.65 M6.8 24.55 L6.75 24.5 3.9 23.2 3.9 23.35 3.8 24.1 3.8 24.65 3.65 29.5 3.55 33.05 6.8 34.65 6.9 34.7 7.1 34.75 8.2 34.1 8.0 25.6 8.0 25.1 6.8 24.55 M13.25 22.15 L13.85 21.95 14.3 22.0 Q14.85 22.15 15.3 22.75 L15.55 23.2 15.7 23.85 Q15.7 24.4 15.3 24.75 L14.7 24.95 15.3 27.5 15.3 27.6 15.25 27.6 15.2 27.55 12.55 26.3 13.45 24.45 13.25 24.15 Q12.85 23.65 12.85 23.05 12.85 22.5 13.25 22.15 M17.45 31.1 L17.4 31.05 17.25 31.0 16.65 30.7 15.5 30.15 13.4 29.2 13.05 29.05 13.0 29.0 Q12.5 28.8 12.1 28.6 L12.0 28.55 11.9 28.55 10.6 27.95 10.55 27.95 10.35 27.85 10.35 27.8 10.3 27.8 10.15 27.75 10.1 27.75 10.1 27.7 10.05 27.7 9.95 27.6 9.95 26.05 8.5 25.35 8.55 26.9 8.55 27.55 8.75 34.25 12.0 35.85 13.05 36.4 18.45 39.0 19.6 39.55 23.75 41.6 23.8 35.0 23.8 33.4 23.8 32.45 19.35 30.3 19.35 30.15 19.15 30.05 19.0 30.15 18.4 30.55 18.0 30.7 17.45 31.1 M10.95 26.85 L10.95 26.8 11.0 26.85 10.95 26.85 M38.2 28.7 L38.2 26.9 38.15 26.95 38.1 27.0 37.9 27.1 37.85 27.1 37.8 27.15 37.75 27.15 37.75 27.05 37.65 27.1 32.15 30.45 32.2 32.4 32.3 41.4 32.4 41.35 34.2 40.0 35.4 39.3 37.15 38.3 37.4 38.15 37.45 38.1 37.75 37.95 37.75 37.85 38.2 37.55 38.2 28.7 M31.45 34.25 L31.4 33.35 29.0 34.9 28.3 34.55 24.35 32.7 24.35 34.4 24.35 39.85 24.3 43.15 24.85 43.5 28.3 45.15 28.35 45.2 28.45 45.2 28.75 45.0 31.75 43.05 31.45 34.25" fill="#000000" fill-rule="evenodd" stroke="none"/>
    <path d="M43.0 14.7 L42.85 14.5 41.95 13.8 40.5 13.35 39.05 13.0 38.9 13.0 38.95 12.6 Q38.95 11.8 38.0 11.45 L36.45 11.05 34.8 11.05 34.75 11.0 34.85 11.0 34.9 11.0 36.45 10.95 39.0 11.3 Q40.55 11.65 41.6 12.55 42.35 13.15 43.05 14.6 L43.1 14.75 43.0 14.7 M30.1 21.0 Q28.7 24.55 28.7 26.9 L28.75 28.4 24.9 26.7 24.9 26.3 24.9 26.25 24.95 25.25 24.95 25.15 24.95 25.05 24.95 24.95 24.95 24.85 25.0 24.3 25.0 22.9 Q25.05 21.7 25.35 20.5 L25.55 19.75 26.0 20.7 Q26.35 21.4 27.45 21.5 L29.15 21.35 30.1 21.0 M21.35 3.95 L20.9 3.75 20.7 3.65 20.35 3.55 20.05 3.5 17.9 3.2 16.9 3.2 15.9 3.3 15.35 3.4 15.5 2.9 Q15.5 2.2 14.6 1.55 L14.35 1.35 14.2 1.25 14.35 1.25 Q17.0 1.45 19.05 2.55 L20.85 3.55 21.0 3.75 21.35 3.95 M6.3 12.7 L6.25 12.85 6.25 12.9 Q5.95 14.05 5.9 15.3 L5.8 17.5 5.8 17.95 5.8 18.05 5.75 18.05 1.75 16.2 1.75 15.85 1.7 15.75 1.7 15.8 1.75 13.95 1.75 13.55 1.9 12.05 1.95 11.7 2.0 12.05 Q2.15 12.65 2.85 13.0 L4.45 13.3 5.7 13.0 6.15 12.8 6.2 12.75 6.3 12.7 M9.5 18.25 L11.15 19.0 11.05 19.1 10.35 19.45 9.95 19.6 9.95 20.05 7.9 19.15 7.85 19.15 9.5 18.25 M3.8 24.65 L6.8 26.15 6.8 31.1 3.65 29.5 3.8 24.65 M24.35 39.85 L24.35 34.4 28.2 36.35 28.25 36.35 28.3 36.3 28.3 36.35 Q28.2 36.4 28.2 36.6 L28.05 41.85 24.35 39.85" fill="#c4c4c4" fill-rule="evenodd" stroke="none"/>
    <path d="M43.0 14.7 L43.15 14.85 43.25 15.2 43.4 15.55 43.7 16.3 Q44.35 18.5 44.35 21.75 L44.2 24.05 42.8 25.2 42.35 25.55 42.3 25.6 42.25 25.6 42.25 25.4 42.3 25.1 42.45 22.1 42.2 19.1 41.95 18.1 Q41.65 17.2 41.15 16.65 L40.7 16.3 40.25 16.0 39.35 15.95 Q37.95 15.95 36.7 16.55 L36.6 16.6 36.6 16.65 36.5 16.65 36.4 16.75 36.1 16.9 Q35.55 17.2 35.05 17.65 L34.8 17.95 34.6 18.2 34.2 18.55 Q33.7 19.15 33.35 19.85 L32.85 20.7 32.05 22.9 Q31.6 24.4 31.4 26.6 L31.3 28.8 31.3 28.85 31.3 28.9 31.25 29.6 31.2 30.15 31.2 31.0 31.2 31.2 31.15 32.1 31.15 32.3 29.1 33.65 28.9 33.6 28.9 33.5 28.85 31.6 28.8 31.5 28.85 31.35 28.8 30.9 28.75 28.4 28.7 26.9 Q28.7 24.55 30.1 21.0 L30.85 19.2 Q31.95 16.55 33.3 15.45 36.0 13.05 38.9 13.0 L39.05 13.0 40.5 13.35 41.95 13.8 42.85 14.5 43.0 14.7" fill="#747272" fill-rule="evenodd" stroke="none"/>
    <path d="M28.75 28.4 L28.8 30.9 28.85 31.35 28.8 31.5 28.85 31.6 28.9 33.5 28.9 33.6 19.0 28.75 18.9 24.75 24.9 27.4 24.9 27.3 24.85 26.9 24.85 26.8 24.9 26.8 24.9 26.75 24.9 26.7 28.75 28.4 M36.6 16.65 L36.6 16.6 36.7 16.55 Q37.95 15.95 39.35 15.95 L40.25 16.0 40.7 16.3 41.15 16.65 Q41.65 17.2 41.95 18.1 L42.2 19.1 42.45 22.1 42.3 25.1 42.25 25.4 42.25 25.6 42.3 25.6 42.3 25.7 42.2 25.7 41.6 25.4 41.3 25.3 40.85 25.15 40.8 25.15 40.7 25.1 40.5 25.05 40.5 24.85 40.55 24.55 40.55 24.35 40.6 23.65 40.65 21.4 40.55 19.75 40.55 19.65 40.55 19.55 40.4 18.7 39.95 17.7 38.9 16.75 37.55 16.45 36.6 16.65 M40.05 29.5 L40.1 29.55 40.15 29.75 40.15 29.8 40.05 30.1 40.05 30.65 40.15 35.05 40.3 36.2 40.3 38.1 40.2 38.25 40.25 38.4 40.45 38.55 40.2 38.6 Q39.95 38.6 39.85 38.2 38.85 38.2 38.85 37.65 L38.65 37.6 38.55 29.15 38.5 29.2 38.5 29.05 38.55 29.05 38.55 28.9 38.75 29.0 38.7 29.05 38.8 29.0 38.95 29.0 39.75 29.4 39.85 29.4 40.05 29.5 M7.8 23.75 L1.8 20.95 1.7 19.3 1.7 17.35 1.75 16.2 5.75 18.05 5.75 18.75 7.8 19.7 7.8 23.75 M17.95 22.8 L17.95 22.95 17.95 23.05 17.95 23.95 17.95 24.05 17.8 24.9 17.75 27.25 17.8 28.2 17.75 29.25 17.8 29.45 18.0 29.65 17.65 29.9 17.5 29.8 17.45 29.8 11.0 26.95 10.9 26.85 10.95 26.85 10.9 26.75 10.9 26.7 10.9 26.6 10.9 26.1 11.0 19.65 11.1 19.7 11.15 19.7 11.25 19.75 11.45 19.7 14.95 21.25 16.55 21.8 Q17.95 22.35 17.95 22.75 L17.95 22.8 M6.8 34.65 L3.55 33.05 3.65 29.5 6.8 31.1 6.8 34.65 M13.25 22.15 Q12.85 22.5 12.85 23.05 12.85 23.65 13.25 24.15 L13.45 24.45 12.55 26.3 15.2 27.55 15.25 27.6 15.3 27.6 15.3 27.5 14.7 24.95 15.3 24.75 Q15.7 24.4 15.7 23.85 L15.55 23.2 15.3 22.75 Q14.85 22.15 14.3 22.0 L13.85 21.95 13.25 22.15 M10.95 26.85 L11.0 26.85 10.95 26.8 10.95 26.85 M28.3 45.15 L24.85 43.5 24.3 43.15 24.35 39.85 28.05 41.85 28.05 42.5 28.05 43.95 Q28.1 44.9 28.3 45.15" fill="#aaaaaa" fill-rule="evenodd" stroke="none"/>
    <path d="M40.4 25.35 L41.9 26.05 Q42.05 26.0 42.65 26.25 L42.85 26.4 42.85 27.65 42.75 27.75 42.7 27.8 42.5 27.75 42.3 28.05 40.15 29.5 40.1 29.55 40.05 29.5 40.05 28.95 39.95 29.0 39.85 26.45 39.95 26.4 39.95 25.65 40.3 25.45 40.4 25.35 M17.95 22.8 L20.4 21.5 20.5 21.4 20.5 21.55 20.4 22.8 20.4 22.9 20.45 22.9 20.45 23.05 20.4 23.15 20.3 23.2 19.0 24.05 18.9 24.1 18.9 24.75 19.0 28.75 19.0 28.9 18.95 28.9 18.5 29.3 18.1 29.65 18.0 29.65 17.8 29.45 17.75 29.25 17.8 28.2 17.75 27.25 17.8 24.9 17.95 24.05 17.95 23.95 17.95 23.05 17.95 22.95 17.95 22.8 M6.8 26.15 L6.8 24.55 8.0 25.1 8.0 25.6 6.9 26.15 6.8 26.15 M28.3 34.55 L29.0 34.9 31.4 33.35 31.45 34.25 31.35 34.35 28.3 36.3 28.3 34.55" fill="#434141" fill-rule="evenodd" stroke="none"/>
    <path d="M40.4 25.35 L40.3 25.45 39.95 25.65 39.95 26.4 39.85 26.45 39.95 29.0 40.05 28.95 40.05 29.5 39.85 29.4 39.75 29.4 38.95 29.0 38.8 29.0 38.7 29.05 38.75 29.0 38.55 28.9 38.55 28.8 38.5 28.7 38.5 28.55 38.55 28.5 38.5 28.5 38.5 28.25 38.55 27.75 38.5 27.5 38.55 26.95 38.55 26.7 38.6 26.6 38.6 26.45 38.85 26.3 38.9 26.25 39.2 26.15 39.3 26.05 40.3 25.3 40.4 25.35 M40.1 29.55 L40.15 29.5 42.3 28.05 42.5 27.75 42.7 27.8 42.75 27.75 42.85 27.65 42.9 28.05 42.95 28.15 43.05 29.25 43.1 31.5 43.5 35.95 Q43.5 36.6 43.15 36.6 L43.1 36.6 42.05 37.55 40.7 38.5 40.6 38.55 40.55 38.55 40.45 38.55 40.25 38.4 40.2 38.25 40.3 38.1 40.3 36.2 40.15 35.05 40.05 30.65 40.05 30.1 40.15 29.8 40.15 29.75 40.1 29.55 M28.3 36.3 L31.35 34.35 31.45 34.25 31.75 43.05 28.75 45.0 28.45 45.2 28.35 45.2 28.3 45.15 Q28.1 44.9 28.05 43.95 L28.05 42.5 28.05 41.85 28.2 36.6 Q28.2 36.4 28.3 36.35 L28.3 36.3" fill="#514f4f" fill-rule="evenodd" stroke="none"/>
    <path d="M38.9 13.0 Q36.0 13.05 33.3 15.45 31.95 16.55 30.85 19.2 L30.1 21.0 29.15 21.35 27.45 21.5 Q26.35 21.4 26.0 20.7 L25.55 19.75 25.6 19.65 25.95 18.55 26.1 18.25 26.15 18.15 26.4 17.65 Q27.05 16.25 28.05 14.95 L28.75 14.2 29.15 13.75 30.0 13.1 Q31.95 11.75 33.65 11.25 L34.4 11.05 34.65 11.0 34.75 11.0 34.8 11.05 36.45 11.05 38.0 11.45 Q38.95 11.8 38.95 12.6 L38.9 13.0 M15.35 3.4 L14.9 3.5 Q14.45 3.55 13.5 3.95 11.9 4.6 10.95 5.35 8.35 7.25 7.8 8.85 L7.45 9.8 7.4 9.85 Q6.65 11.2 6.35 12.6 L6.3 12.7 6.2 12.75 6.15 12.8 5.7 13.0 4.45 13.3 2.85 13.0 Q2.15 12.65 2.0 12.05 L1.95 11.7 2.0 11.6 Q2.05 11.05 2.25 10.45 L2.35 10.2 2.45 9.9 Q3.2 7.6 4.95 5.45 7.95 1.6 12.6 1.3 L12.7 1.3 12.8 1.3 14.1 1.25 14.2 1.25 14.35 1.35 14.6 1.55 Q15.5 2.2 15.5 2.9 L15.35 3.4 M5.95 18.25 L6.05 18.2 6.1 18.2 7.8 17.5 7.9 17.4 7.9 17.45 8.0 17.45 8.05 17.5 8.95 18.0 9.0 18.0 9.5 18.25 7.85 19.15 5.95 18.25 M20.5 21.4 L20.4 21.5 17.95 22.8 17.95 22.75 Q17.95 22.35 16.55 21.8 L14.95 21.25 11.45 19.7 11.25 19.75 11.15 19.7 11.1 19.7 11.0 19.65 13.4 18.35 20.5 21.4 M18.9 24.1 L19.0 24.05 20.3 23.2 20.4 23.15 24.95 25.15 24.95 25.25 24.9 26.25 24.9 26.3 24.9 26.7 24.9 26.75 24.85 26.7 23.65 26.2 23.6 26.2 18.9 24.1" fill="#fffbd4" fill-rule="evenodd" stroke="none"/>
    <path d="M22.1 5.8 L22.2 5.85 23.45 6.3 23.5 6.3 35.7 10.65 35.1 10.55 34.45 10.55 Q32.1 10.65 29.35 12.65 L29.3 12.7 29.2 12.75 29.0 12.8 28.85 12.65 28.75 12.65 26.95 12.05 26.0 11.7 22.05 10.05 18.8 8.55 17.1 7.85 16.4 7.5 15.8 7.3 15.9 7.2 Q16.4 6.9 16.75 6.75 L16.7 6.7 17.1 6.55 17.4 6.45 18.4 6.2 19.05 6.1 21.8 5.8 22.1 5.8" fill="#bf7b0f" fill-rule="evenodd" stroke="none"/>
    <path d="M21.35 3.95 L21.45 4.0 21.85 4.3 22.35 4.75 22.6 5.05 22.75 5.15 22.8 5.15 22.8 5.25 22.7 5.25 22.0 5.05 21.45 4.9 17.8 4.65 Q14.95 4.6 13.0 6.2 11.0 7.85 10.15 9.15 L9.25 10.65 9.05 11.2 Q8.0 13.4 7.9 15.9 L7.85 16.75 7.9 17.15 7.9 17.2 7.9 17.3 7.9 17.4 7.8 17.5 6.1 18.2 6.05 18.2 5.95 18.25 5.85 18.25 5.8 18.2 5.8 18.15 5.8 18.05 5.8 17.95 5.8 17.5 5.9 15.3 Q5.95 14.05 6.25 12.9 L6.25 12.85 6.3 12.7 6.35 12.6 Q6.65 11.2 7.4 9.85 L7.45 9.8 7.8 8.85 Q8.35 7.25 10.95 5.35 11.9 4.6 13.5 3.95 14.45 3.55 14.9 3.5 L15.35 3.4 15.9 3.3 16.9 3.2 17.9 3.2 20.05 3.5 20.35 3.55 20.7 3.65 20.9 3.75 21.35 3.95 21.0 3.75 21.3 3.9 21.35 3.95" fill="#515151" fill-rule="evenodd" stroke="none"/>
    <path d="M25.45 17.85 L25.4 17.95 Q24.35 20.55 24.35 23.9 L24.35 24.0 24.25 23.95 21.1 22.7 21.15 20.9 13.35 17.7 11.75 18.5 10.2 17.85 10.1 17.75 10.1 17.65 9.9 16.45 Q9.9 14.15 10.95 12.1 L11.0 12.0 11.1 12.05 21.8 16.35 21.9 16.4 22.0 16.45 25.35 17.8 25.45 17.85 M9.95 10.65 L10.0 10.55 10.7 9.5 Q11.8 8.0 12.95 7.1 L13.0 7.0 14.6 7.7 14.5 7.8 14.3 8.0 12.8 9.35 11.4 11.3 9.95 10.65 M13.95 6.3 L14.1 6.25 Q14.15 5.9 14.55 6.0 15.8 5.4 17.1 5.3 L17.4 5.25 19.15 5.25 19.45 5.3 21.3 5.55 22.1 5.8 21.8 5.8 19.05 6.1 18.4 6.2 17.4 6.45 17.1 6.55 16.7 6.7 16.75 6.75 Q16.4 6.9 15.9 7.2 L15.8 7.3 15.55 7.2 15.35 7.1 Q14.3 6.65 14.15 6.4 L14.05 6.35 13.95 6.3 M23.8 35.0 L23.75 41.6 19.6 39.55 19.4 32.95 23.8 35.0 M18.45 39.0 L13.05 36.4 13.05 29.8 18.3 32.35 18.35 32.4 18.45 39.0 M12.0 35.85 L8.75 34.25 8.55 27.55 11.95 29.25 12.0 29.3 12.0 35.85" fill="#855100" fill-rule="evenodd" stroke="none"/>
    <path d="M15.8 7.3 L16.4 7.5 17.1 7.85 18.8 8.55 22.05 10.05 26.0 11.7 26.95 12.05 26.5 12.55 26.4 12.6 26.3 12.55 14.9 7.85 14.8 7.8 14.9 7.75 15.1 7.5 15.55 7.2 15.8 7.3" fill="#643b00" fill-rule="evenodd" stroke="none"/>
    <path d="M29.2 12.75 L29.15 12.8 28.55 13.4 28.5 13.5 28.35 13.45 26.4 12.6 26.5 12.55 26.95 12.05 28.75 12.65 28.85 12.65 29.0 12.8 29.2 12.75 M10.1 17.75 L8.45 17.05 Q8.6 14.8 8.85 13.5 L9.55 11.55 9.6 11.45 9.7 11.5 10.9 12.0 11.0 12.0 11.05 11.9 11.4 11.3 11.85 11.5 12.05 11.6 13.05 12.0 14.95 12.85 Q16.55 13.45 18.2 14.3 L22.4 16.0 22.35 16.05 22.0 16.35 21.9 16.4 21.8 16.35 11.1 12.05 11.0 12.0 10.95 12.1 Q9.9 14.15 9.9 16.45 L10.1 17.65 10.1 17.75 M13.05 29.05 L13.4 29.2 15.5 30.15 16.65 30.7 17.25 31.0 17.4 31.05 17.45 31.1 17.55 31.15 17.75 31.2 18.25 31.45 18.3 31.5 18.3 31.55 18.35 32.4 18.3 32.35 13.05 29.8 13.05 29.05 M23.8 33.4 L23.8 35.0 19.4 32.95 19.35 31.2 19.45 31.25 21.05 32.1 22.6 32.85 23.7 33.35 23.8 33.4 M8.55 27.55 L8.55 26.9 8.65 26.95 9.15 27.2 9.85 27.55 9.95 27.6 10.05 27.7 10.1 27.7 10.1 27.75 10.15 27.75 10.3 27.8 10.35 27.8 10.35 27.85 10.55 27.95 10.6 27.95 11.9 28.55 12.0 28.55 12.0 29.3 11.95 29.25 8.55 27.55" fill="#5b3600" fill-rule="evenodd" stroke="none"/>
    <path d="M28.5 13.5 L28.35 13.55 28.0 13.9 27.0 15.3 25.7 17.35 23.4 16.4 22.4 16.0 18.2 14.3 Q16.55 13.45 14.95 12.85 L13.05 12.0 12.05 11.6 11.85 11.5 11.4 11.3 12.8 9.35 14.3 8.0 14.5 7.8 14.6 7.7 14.8 7.8 14.9 7.85 26.3 12.55 26.4 12.6 28.35 13.45 28.5 13.5" fill="#aa6c0a" fill-rule="evenodd" stroke="none"/>
    <path d="M25.7 17.35 L25.65 17.4 25.5 17.75 25.45 17.85 25.35 17.8 22.0 16.45 21.9 16.4 22.0 16.35 22.35 16.05 22.4 16.0 23.4 16.4 25.7 17.35 M9.6 11.45 L9.65 11.35 9.9 10.75 9.95 10.65 11.4 11.3 11.05 11.9 11.0 12.0 10.9 12.0 9.7 11.5 9.6 11.45 M13.0 7.0 L13.1 6.95 13.95 6.3 14.05 6.35 14.15 6.4 Q14.3 6.65 15.35 7.1 L15.55 7.2 15.1 7.5 14.9 7.75 14.8 7.8 14.6 7.7 13.0 7.0 M19.35 30.3 L23.8 32.45 23.8 33.4 23.7 33.35 22.6 32.85 21.05 32.1 19.45 31.25 19.35 31.2 19.35 30.3 M19.6 39.55 L18.45 39.0 18.35 32.4 19.35 32.9 19.4 32.95 19.6 39.55 M13.05 36.4 L12.0 35.85 12.0 29.3 13.0 29.75 13.05 29.8 13.05 36.4 M8.55 26.9 L8.5 25.35 9.95 26.05 9.95 27.6 9.85 27.55 9.15 27.2 8.65 26.95 8.55 26.9" fill="#412700" fill-rule="evenodd" stroke="none"/>
    <path d="M39.95 19.65 L39.95 19.8 39.95 19.9 39.95 19.65 M37.05 17.75 L37.85 17.5 Q39.0 17.5 39.35 19.6 L39.35 20.2 36.75 21.65 Q34.2 23.15 32.75 24.8 L33.4 22.75 34.45 20.15 Q34.8 19.3 35.4 18.8 35.7 18.4 36.2 18.2 L36.75 18.05 37.05 17.75 M32.2 32.4 L32.15 30.45 37.65 27.1 37.75 27.05 37.75 27.15 37.8 27.15 37.85 27.1 37.9 27.1 38.1 27.0 38.15 26.95 38.2 26.9 38.2 28.7 37.75 28.95 37.75 29.0 37.7 29.0 37.1 29.45 37.0 29.5 37.0 29.4 36.9 29.45 32.3 32.35 32.2 32.4" fill="#3c2300" fill-rule="evenodd" stroke="none"/>
    <path d="M39.95 19.9 L39.95 19.95 40.0 20.05 40.1 22.7 40.0 24.75 39.65 25.0 36.25 27.35 32.05 29.8 31.85 29.75 31.8 29.75 31.8 29.7 31.75 29.65 31.7 29.5 31.85 29.35 31.85 29.1 31.8 28.35 31.85 27.4 31.85 27.1 Q31.85 25.45 33.1 21.8 L34.1 19.4 35.0 18.35 35.9 17.65 36.05 17.45 36.65 17.2 37.6 16.85 37.95 16.85 Q39.6 16.85 39.95 19.6 L39.95 19.65 39.95 19.9 M37.05 17.75 L36.75 18.05 36.2 18.2 Q35.7 18.4 35.4 18.8 34.8 19.3 34.45 20.15 L33.4 22.75 32.75 24.8 Q34.2 23.15 36.75 21.65 L39.35 20.2 39.35 19.6 Q39.0 17.5 37.85 17.5 L37.05 17.75" fill="#482b00" fill-rule="evenodd" stroke="none"/>
    <path d="M5.8 18.05 L5.8 18.15 5.8 18.2 5.85 18.25 5.95 18.25 7.85 19.15 7.9 19.15 9.95 20.05 9.95 24.8 9.25 24.45 9.1 24.3 7.9 23.8 7.8 23.75 7.8 19.7 5.75 18.75 5.75 18.05 5.8 18.05 M18.9 24.75 L18.9 24.1 23.6 26.2 23.65 26.2 24.85 26.7 24.9 26.75 24.9 26.8 24.85 26.8 24.85 26.9 24.9 27.3 24.9 27.4 18.9 24.75 M3.8 24.65 L3.8 24.1 3.9 23.35 3.9 23.2 6.75 24.5 6.8 24.55 6.8 26.15 3.8 24.65 M28.3 34.55 L28.3 36.3 28.25 36.35 28.2 36.35 24.35 34.4 24.35 32.7 28.3 34.55" fill="#878787" fill-rule="evenodd" stroke="none"/>
    <path d="M17.45 31.1 L18.0 30.7 18.4 30.55 19.0 30.15 19.15 30.05 19.35 30.15 19.35 30.3 19.35 31.2 19.4 32.95 19.35 32.9 18.35 32.4 18.3 31.55 18.3 31.5 18.25 31.45 17.75 31.2 17.55 31.15 17.45 31.1 M12.0 28.55 L12.1 28.6 Q12.5 28.8 13.0 29.0 L13.05 29.05 13.05 29.8 13.0 29.75 12.0 29.3 12.0 28.55" fill="#331e00" fill-rule="evenodd" stroke="none"/>
    <path d="M8.0 25.6 L8.2 34.1 7.1 34.75 6.9 34.7 6.8 34.65 6.8 31.1 6.8 26.15 6.9 26.15 8.0 25.6" fill="#696767" fill-rule="evenodd" stroke="none"/>
    <path d="M32.2 32.4 L32.3 32.35 36.9 29.45 37.0 29.4 37.0 29.5 37.1 29.45 37.7 29.0 37.75 29.0 37.75 28.95 38.2 28.7 38.2 37.55 37.75 37.85 37.75 37.95 37.45 38.1 37.4 38.15 37.15 38.3 35.4 39.3 34.2 40.0 32.4 41.35 32.3 41.4 32.2 32.4" fill="#4d2e00" fill-rule="evenodd" stroke="none"/>
  </g>
</svg>
