<?xml version="1.0" encoding="UTF-8" standalone="no"?>
<svg xmlns:ffdec="https://www.free-decompiler.com/flash" xmlns:xlink="http://www.w3.org/1999/xlink" ffdec:objectType="shape" height="41.15px" width="63.0px" xmlns="http://www.w3.org/2000/svg">
  <g transform="matrix(1.0, 0.0, 0.0, 1.0, 31.25, 4.05)">
    <path d="M-7.5 -4.05 L-7.55 -4.0 -7.8 -3.75 -7.55 -4.05 -7.5 -4.05 M26.45 1.95 L26.2 1.5 Q26.2 1.1 26.6 0.95 L27.4 1.05 28.75 1.95 Q31.25 2.6 31.4 3.2 L31.5 3.2 Q31.75 3.2 31.75 3.5 L31.5 4.15 31.5 4.35 Q31.5 5.05 28.8 7.85 L28.65 8.0 27.6 9.4 27.55 9.4 27.5 9.55 27.4 9.65 26.8 10.5 26.8 10.95 26.75 11.1 26.75 21.5 26.95 21.8 Q26.65 24.5 25.7 24.9 25.5 25.25 21.1 27.9 L16.0 30.8 10.95 33.75 9.85 34.35 7.5 35.75 5.7 36.6 5.5 36.75 5.2 37.05 4.95 36.95 4.95 36.9 3.85 37.1 Q3.2 37.1 2.95 36.8 0.95 36.45 -4.8 33.85 L-8.35 32.2 Q-8.75 31.9 -10.65 30.95 L-11.1 30.75 -14.15 29.65 Q-16.2 28.9 -20.6 26.5 L-23.4 25.05 -25.5 24.15 -25.6 24.15 -25.9 24.05 -26.2 23.7 -27.05 21.2 Q-27.05 20.65 -27.2 20.45 L-27.2 10.0 -27.45 7.65 -28.05 6.75 -29.05 4.95 Q-29.45 4.15 -31.25 1.85 -31.25 1.4 -30.75 1.55 L-30.45 1.2 Q-30.3 0.95 -29.75 0.75 L-28.75 0.3 -28.2 -0.15 -27.45 -0.45 -27.35 -0.6 Q-26.6 -0.95 -26.6 -0.2 L-26.6 -0.05 -26.6 0.0 -26.35 0.6 -26.75 1.25 -26.8 1.2 Q-27.35 1.05 -27.35 1.4 L-27.25 1.55 -27.4 1.55 -27.4 1.65 -27.6 1.65 -27.85 1.55 Q-28.2 1.65 -28.2 2.0 L-28.15 2.15 -28.2 2.15 -28.2 2.25 -28.9 2.45 -28.95 2.5 -29.85 2.15 -29.85 2.3 -29.2 2.65 -28.65 2.95 -28.45 3.25 -28.35 3.35 Q-26.35 7.05 -25.35 8.2 L-25.2 10.65 -25.2 11.2 -25.2 12.5 -25.1 14.1 -25.1 14.35 -25.2 14.75 -24.95 18.05 -24.95 18.8 -25.05 20.0 -24.95 20.2 -24.95 20.45 -24.9 20.9 -24.5 21.65 -23.2 23.05 -23.1 23.1 -22.65 23.5 -22.05 23.85 -21.55 24.05 -21.2 24.45 -20.8 24.35 -20.0 24.75 -19.2 25.25 -17.75 26.05 -16.35 26.8 Q-16.15 26.35 -14.95 27.35 L-13.05 28.2 -13.1 28.05 -9.5 29.9 -9.35 29.7 -9.1 29.8 -8.65 30.0 -7.7 30.45 -7.55 30.5 -7.35 30.6 -7.25 30.65 Q-4.35 31.9 -2.2 32.9 L-2.05 33.05 0.2 34.0 0.2 33.9 0.8 34.2 1.35 34.45 1.35 34.5 2.0 34.8 2.5 35.05 4.45 34.65 5.25 34.45 5.65 34.3 5.85 34.15 7.05 33.4 Q7.4 33.05 7.7 33.2 L7.85 33.25 10.15 31.9 10.35 31.8 10.2 31.85 10.0 27.65 9.9 26.5 9.9 26.45 9.7 22.9 9.55 20.15 9.5 18.15 9.55 18.05 10.75 31.55 12.3 30.5 13.7 29.7 13.9 29.55 15.25 28.65 15.65 28.5 15.8 28.45 15.85 28.45 Q16.05 28.2 16.45 28.05 L16.5 28.05 18.75 26.75 Q18.8 26.65 18.9 26.65 L18.95 26.65 19.05 26.6 Q19.5 26.3 19.9 26.05 L20.05 26.0 20.05 26.05 Q20.5 26.0 22.95 24.45 L23.35 24.15 24.05 23.5 24.45 23.2 24.5 23.05 24.9 22.3 24.8 22.15 24.65 22.35 24.65 22.05 24.65 21.85 24.65 21.8 24.75 20.45 24.65 18.8 24.65 11.1 25.25 10.35 26.0 9.4 27.85 6.45 29.6 4.15 29.9 3.85 30.0 3.7 29.85 3.65 Q29.7 3.2 28.65 2.9 L26.6 1.95 26.45 1.95 M24.05 4.35 L23.7 4.15 23.7 4.1 24.2 4.3 24.05 4.35 M-7.7 12.35 L-7.7 12.0 -7.7 11.35 Q-7.8 10.75 -8.3 10.75 -8.6 10.75 -8.75 10.9 -9.4 10.3 -11.55 9.35 L-11.7 9.3 -8.3 10.6 -7.55 10.9 -7.55 10.95 -7.8 10.95 -7.65 11.05 -7.55 11.2 -7.7 12.35 M-7.85 21.2 L-7.8 20.5 -7.8 20.8 -7.85 21.2 M-7.8 20.35 L-7.7 19.5 -7.7 19.85 -7.8 20.35 M-14.8 13.5 L-14.8 16.15 -14.95 16.3 -14.8 13.5 M-10.75 17.2 L-10.8 17.2 -10.75 17.1 -10.75 17.2 M20.95 8.75 L20.95 9.2 20.95 9.35 20.95 25.1 20.3 25.4 20.95 8.75" fill="#000000" fill-rule="evenodd" stroke="none"/>
    <path d="M-26.75 1.25 L-26.5 1.35 -26.2 1.35 -26.15 1.55 -25.25 2.35 Q-23.55 4.0 -21.55 4.0 L-20.8 4.0 -20.75 4.0 -18.8 3.65 -11.9 6.3 -9.55 7.35 Q-8.65 7.7 -7.9 8.1 L-7.5 8.3 Q-7.25 8.35 -6.95 8.6 L-6.8 8.6 1.4 12.2 4.2 13.4 4.35 13.35 9.2 10.9 Q10.2 10.3 11.55 9.55 12.5 8.95 15.2 7.7 L17.05 6.8 17.1 6.8 18.5 6.45 20.5 5.85 21.75 5.35 21.9 5.4 22.15 5.55 23.4 4.8 24.05 4.35 24.2 4.3 Q25.85 3.1 25.85 2.45 L26.05 2.25 26.15 2.25 Q26.15 2.0 26.45 1.95 L26.6 1.95 28.65 2.9 Q29.7 3.2 29.85 3.65 L29.85 3.7 29.25 3.95 28.95 4.0 28.8 4.0 28.8 4.1 28.8 4.15 Q28.8 4.45 24.35 6.5 L23.5 7.05 22.0 7.7 18.6 9.5 13.55 11.7 Q13.05 12.0 12.45 12.45 L11.85 12.95 9.5 14.1 9.2 14.3 9.05 14.35 7.35 14.95 5.2 16.0 5.25 16.15 5.2 16.15 5.2 16.3 5.05 16.35 4.95 16.3 4.9 16.05 4.75 16.05 Q3.7 15.55 1.7 14.95 L0.0 14.35 -3.1 12.95 -3.2 12.95 -3.35 12.9 -6.35 11.4 -6.35 11.35 -6.45 11.35 -6.65 11.25 -6.8 11.2 -6.9 11.2 -7.05 11.2 -7.4 10.95 -7.55 10.9 -8.3 10.6 -11.7 9.3 -11.9 9.2 -12.05 9.1 -12.35 9.05 -12.65 8.9 -15.2 7.85 -15.85 7.65 -21.35 5.35 -21.75 5.2 -22.6 4.75 Q-22.6 5.1 -22.9 5.1 L-23.85 4.75 -24.8 4.35 -25.1 4.25 -25.35 4.15 -26.2 3.7 -26.1 3.8 -26.6 3.55 Q-27.7 2.95 -28.65 2.6 -28.75 2.5 -28.8 2.5 L-28.9 2.45 -28.2 2.25 -28.2 2.15 -28.15 2.15 -28.2 2.0 Q-28.2 1.65 -27.85 1.55 L-27.6 1.65 -27.4 1.65 -27.25 1.55 -27.35 1.4 Q-27.35 1.05 -26.8 1.2 L-26.75 1.25 M5.25 34.45 L4.45 34.65 2.5 35.05 2.0 34.8 1.35 34.5 1.35 34.45 1.25 33.9 1.25 33.55 1.25 33.4 1.05 31.35 0.95 28.05 0.8 26.75 0.75 24.9 0.6 19.1 0.35 18.5 0.35 18.45 0.1 17.5 -0.6 16.05 -1.05 15.4 -1.05 14.95 -0.3 14.95 0.8 15.65 0.8 15.4 5.2 17.1 5.2 17.25 5.25 19.5 5.5 25.65 5.5 26.95 5.55 28.15 5.65 32.0 5.65 32.2 5.65 33.35 5.65 34.2 5.25 34.45 M-21.55 24.05 L-22.05 23.85 -22.65 23.5 -23.1 23.1 -23.2 23.05 -24.5 21.65 -24.9 20.9 -24.95 20.45 -24.95 20.2 -25.05 20.0 -24.95 18.8 -24.95 18.05 -25.2 14.75 -25.1 14.35 -25.1 14.1 -25.2 12.5 -25.2 11.2 -25.2 10.65 -25.35 8.2 Q-26.35 7.05 -28.35 3.35 L-28.5 3.1 -28.5 3.05 Q-22.8 6.0 -22.2 6.0 L-22.05 5.95 -22.05 6.3 -22.05 7.4 -22.05 7.5 -22.05 9.85 -22.0 12.1 -21.9 14.45 -21.7 20.05 -21.6 21.55 -21.85 22.75 -21.6 22.8 -21.7 22.95 -21.55 24.05 M-22.05 5.95 L-22.3 5.85 -22.6 5.65 -22.35 5.8 -22.05 5.95" fill="#a36630" fill-rule="evenodd" stroke="none"/>
    <path d="M15.65 28.5 L15.25 28.65 13.9 29.55 12.3 30.5 10.75 31.55 9.55 18.05 9.7 17.8 9.85 17.55 11.35 14.75 11.35 14.1 10.95 14.1 9.7 14.5 Q8.8 14.9 8.8 15.2 L8.9 15.35 7.8 15.8 6.95 16.15 6.8 16.3 6.3 16.45 5.7 16.75 5.25 16.8 5.2 16.8 5.2 16.9 5.05 16.9 4.95 16.9 4.9 16.8 5.05 16.6 5.2 16.5 5.2 16.3 5.2 16.15 5.25 16.15 5.35 16.15 5.95 16.05 7.1 15.35 7.35 15.25 7.4 15.25 7.8 14.95 9.05 14.35 9.2 14.3 9.5 14.1 11.85 12.95 11.55 13.2 11.8 13.35 Q13.2 12.35 14.5 11.8 L14.5 12.45 14.65 11.7 14.9 11.55 14.95 11.55 15.25 18.8 15.55 24.35 15.65 26.15 15.65 28.5 M-7.25 30.65 L-7.35 30.6 -7.55 30.5 -7.7 30.45 -7.7 26.45 -7.7 26.0 -7.8 25.85 -7.85 21.85 -7.85 21.2 -7.8 20.8 -7.8 20.5 -7.8 20.35 -7.7 19.85 -7.7 19.5 -7.7 19.25 -7.7 19.2 -7.7 17.2 -7.8 15.95 -7.9 15.4 -7.85 13.05 Q-7.7 12.9 -7.7 12.35 L-7.55 11.2 -7.65 11.05 -7.8 10.95 -7.55 10.95 -7.4 10.95 -7.05 11.2 Q-6.8 11.25 -6.65 11.55 -7.05 11.7 -7.05 12.9 L-6.95 14.8 -7.05 15.85 -7.25 20.95 -7.25 21.55 -7.4 21.65 -7.4 22.05 Q-7.25 22.75 -7.25 23.85 L-7.1 26.45 -6.9 29.35 -7.05 30.3 -7.05 30.5 -7.1 30.65 -7.25 30.65 M-12.65 8.9 L-13.7 8.65 Q-13.9 8.35 -14.2 8.35 -14.65 8.45 -14.65 8.95 L-14.65 9.35 -14.45 12.75 Q-14.45 14.3 -14.6 14.75 L-14.65 19.95 Q-14.75 20.95 -14.45 21.25 L-14.45 24.35 -14.3 26.3 -14.35 27.2 -15.1 26.75 Q-14.95 25.55 -15.05 24.05 L-15.05 23.55 -15.05 23.05 -15.05 20.95 -14.95 19.35 -15.05 19.25 -15.1 19.05 -15.1 18.65 -15.05 16.95 -14.95 16.3 -14.8 16.15 -14.8 13.5 -14.9 11.1 -14.9 10.5 -15.05 8.6 Q-15.05 7.95 -15.65 7.85 L-15.85 7.85 -15.85 7.65 -15.2 7.85 -12.65 8.9 M-7.4 20.8 L-7.35 20.8 -7.25 20.75 -7.4 20.75 -7.4 20.8 M15.8 11.2 L16.3 10.95 Q17.85 10.1 18.9 9.8 L20.95 8.75 20.3 25.4 18.05 26.75 18.15 26.75 16.35 28.0 16.35 27.65 15.85 12.6 15.8 11.2" fill="#351e01" fill-rule="evenodd" stroke="none"/>
    <path d="M29.9 3.85 L29.6 4.15 25.75 6.45 23.55 7.55 21.05 8.65 20.95 8.75 18.9 9.8 Q17.85 10.1 16.3 10.95 L15.8 11.2 14.9 11.55 14.65 11.7 14.5 11.8 Q13.2 12.35 11.8 13.35 L11.55 13.2 11.85 12.95 12.45 12.45 Q13.05 12.0 13.55 11.7 L18.6 9.5 22.0 7.7 23.5 7.05 24.35 6.5 Q28.8 4.45 28.8 4.15 L28.8 4.1 29.25 3.95 29.85 3.7 29.9 3.85 M-28.65 2.95 L-29.2 2.65 -29.85 2.3 -29.85 2.15 -28.95 2.5 -28.8 2.5 Q-28.75 2.5 -28.65 2.6 -27.7 2.95 -26.6 3.55 L-26.1 3.8 -26.0 3.85 Q-25.7 3.95 -25.35 4.15 L-25.1 4.25 -24.8 4.35 -23.85 4.75 -22.9 5.1 Q-22.6 5.1 -22.6 4.75 L-21.75 5.2 -21.35 5.35 -15.85 7.65 -15.85 7.85 -15.65 7.85 Q-15.05 7.95 -15.05 8.6 L-14.9 10.5 -14.9 11.1 -14.8 13.5 -14.95 16.3 -15.05 16.95 -15.1 18.65 -15.1 19.05 -15.05 19.25 -14.95 19.35 -15.05 20.95 -15.05 23.05 -15.05 23.55 -15.05 24.05 -17.35 22.75 -21.05 20.45 -21.9 6.0 -22.05 5.95 -22.2 6.0 Q-22.8 6.0 -28.5 3.05 L-28.65 2.95 M-11.7 9.3 L-11.55 9.35 Q-9.4 10.3 -8.75 10.9 -8.6 10.75 -8.3 10.75 -7.8 10.75 -7.7 11.35 L-7.7 12.0 -7.7 12.35 Q-7.7 12.9 -7.85 13.05 L-7.9 15.4 -7.8 15.95 -7.7 17.2 -7.7 19.2 -7.7 19.25 -7.7 19.5 -7.8 20.35 -7.8 20.5 -7.85 21.2 -7.85 21.85 -7.8 25.85 -7.7 26.0 -7.7 26.45 Q-10.9 26.05 -14.45 24.35 L-14.45 21.25 Q-14.75 20.95 -14.65 19.95 L-14.6 14.75 Q-14.45 14.3 -14.45 12.75 L-14.65 9.35 -14.65 8.95 Q-14.65 8.45 -14.2 8.35 -13.9 8.35 -13.7 8.65 L-12.65 8.9 -12.35 9.05 -12.05 9.1 -11.9 9.2 -11.7 9.3 M-6.35 11.4 L-3.35 12.9 -3.2 12.95 -3.1 12.95 0.0 14.35 1.7 14.95 Q3.7 15.55 4.75 16.05 L4.9 16.05 4.95 16.3 5.05 16.35 5.2 16.3 5.2 16.5 5.05 16.6 4.9 16.8 4.95 16.9 5.05 16.9 5.2 16.9 5.2 17.1 0.8 15.4 0.8 15.65 -0.3 14.95 -1.05 14.95 -1.05 15.4 -0.6 16.05 -0.05 17.25 0.35 18.45 0.35 18.5 0.6 19.1 0.75 24.9 0.6 25.05 Q-1.05 26.45 -6.35 26.45 L-7.1 26.45 -7.25 23.85 Q-7.25 22.75 -7.4 22.05 L-7.4 21.65 -7.25 21.55 -7.25 20.95 -7.05 15.85 -6.95 14.8 -7.05 12.9 Q-7.05 11.7 -6.65 11.55 L-6.5 11.5 -6.35 11.55 -6.35 11.4 M-10.75 17.2 L-10.75 17.1 -10.8 17.2 -10.75 17.2 M-22.05 5.95 L-22.35 5.8 -22.6 5.65 -22.3 5.85 -22.05 5.95" fill="#623500" fill-rule="evenodd" stroke="none"/>
    <path d="M15.85 28.45 L15.8 28.45 15.65 28.5 15.65 26.15 15.55 24.35 15.25 18.8 14.95 11.55 14.9 11.55 15.8 11.2 15.85 12.6 16.35 27.65 16.35 28.0 15.85 28.45 M-7.55 10.95 L-7.55 10.9 -7.4 10.95 -7.55 10.95 M-7.05 11.2 L-6.9 11.2 -6.8 11.2 -6.65 11.25 -6.45 11.35 -6.65 11.35 -6.65 11.55 Q-6.8 11.25 -7.05 11.2 M-7.4 20.8 L-7.4 20.75 -7.25 20.75 -7.35 20.8 -7.4 20.8 M14.65 11.7 L14.5 12.45 14.5 11.8 14.65 11.7 M7.35 15.25 L7.1 15.35 5.95 16.05 5.35 16.15 6.95 15.35 7.35 15.25 M7.8 15.8 L8.9 15.35 8.0 15.8 7.8 15.8" fill="#512c00" fill-rule="evenodd" stroke="none"/>
    <path d="M1.35 34.45 L0.8 34.2 0.8 26.75 0.95 28.05 1.05 31.35 1.25 33.4 1.25 33.55 1.25 33.9 1.35 34.45 M-20.8 24.35 L-21.2 24.45 -21.55 24.05 -21.7 22.95 -21.6 22.8 -21.85 22.75 -21.6 21.55 -21.7 20.05 -21.9 14.45 -22.0 12.1 -22.05 9.85 -22.05 7.5 -22.05 7.4 -22.05 6.3 -22.05 5.95 -21.9 6.0 -21.05 20.45 -20.8 23.2 -20.75 23.25 -20.75 23.95 -20.75 24.35 -20.8 24.35 M-6.65 11.55 L-6.65 11.35 -6.45 11.35 -6.35 11.35 -6.35 11.4 -6.35 11.55 -6.5 11.5 -6.65 11.55" fill="#271601" fill-rule="evenodd" stroke="none"/>
    <path d="M24.65 18.8 L24.75 20.45 24.65 21.8 24.65 21.85 24.6 22.2 24.65 22.35 24.8 22.15 24.9 22.3 24.5 23.05 24.05 23.5 23.35 24.15 22.95 24.45 Q20.5 26.0 20.05 26.05 L20.05 26.0 19.9 26.05 19.65 26.2 18.95 26.65 18.9 26.65 Q18.8 26.65 18.75 26.75 L16.5 28.05 16.45 28.05 16.35 28.0 18.15 26.75 18.05 26.75 20.3 25.4 20.95 25.1 21.25 24.95 21.75 24.65 23.75 23.1 24.05 22.8 24.45 20.9 24.5 18.8 24.65 18.8 M0.8 34.2 L0.2 33.9 0.2 34.0 -2.05 33.05 -2.2 32.9 Q-4.35 31.9 -7.25 30.65 L-7.1 30.65 -7.05 30.5 -7.05 30.3 -6.9 29.35 -7.1 26.45 -6.35 26.45 Q-1.05 26.45 0.6 25.05 L0.75 24.9 0.8 26.75 0.8 34.2 M-7.7 30.45 L-8.65 30.0 -9.1 29.8 -9.35 29.7 -9.5 29.9 -13.1 28.05 -13.05 28.2 -14.95 27.35 Q-16.15 26.35 -16.35 26.8 L-17.75 26.05 -19.2 25.25 -20.0 24.75 -20.8 24.35 -20.75 24.35 -20.75 23.95 -20.75 23.25 -20.8 23.2 -21.05 20.45 -17.35 22.75 -15.05 24.05 Q-14.95 25.55 -15.1 26.75 L-14.35 27.2 -14.3 26.3 -14.45 24.35 Q-10.9 26.05 -7.7 26.45 L-7.7 30.45" fill="#482700" fill-rule="evenodd" stroke="none"/>
    <path d="M29.6 4.15 L27.85 6.45 26.0 9.4 25.25 10.35 24.65 11.1 24.65 18.8 24.5 18.8 24.45 20.9 24.05 22.8 23.75 23.1 21.75 24.65 21.25 24.95 20.95 25.1 20.95 9.35 20.95 9.2 20.95 8.75 21.05 8.65 23.55 7.55 25.75 6.45 29.6 4.15 M24.65 21.85 L24.65 22.05 24.65 22.35 24.6 22.2 24.65 21.85 M24.5 23.05 L24.45 23.2 24.05 23.5 24.5 23.05 M9.55 18.05 L9.5 18.15 9.55 20.15 9.7 22.9 9.9 26.45 9.9 26.5 10.0 27.65 10.2 31.85 7.7 33.2 Q7.4 33.05 7.05 33.4 L5.85 34.15 5.65 34.2 5.65 33.35 5.65 32.2 5.65 32.0 5.55 28.15 5.5 26.95 5.5 25.65 5.25 19.5 5.2 17.25 5.2 17.1 5.2 16.9 5.2 16.8 5.25 16.8 5.7 16.75 6.3 16.45 6.8 16.3 6.95 16.15 7.8 15.8 8.0 15.8 8.9 15.35 8.8 15.2 Q8.8 14.9 9.7 14.5 L10.95 14.1 11.35 14.1 11.35 14.75 9.85 17.55 9.7 17.8 9.55 18.05 M0.35 18.45 L-0.05 17.25 -0.6 16.05 0.1 17.5 0.35 18.45" fill="#5f3511" fill-rule="evenodd" stroke="none"/>
    <path d="M5.25 16.15 L5.2 16.0 7.35 14.95 9.05 14.35 7.8 14.95 7.4 15.25 7.35 15.25 6.95 15.35 5.35 16.15 5.25 16.15" fill="#693c15" fill-rule="evenodd" stroke="none"/>
  </g>
</svg>
