<?xml version="1.0" encoding="UTF-8" standalone="no"?>
<svg xmlns:ffdec="https://www.free-decompiler.com/flash" xmlns:xlink="http://www.w3.org/1999/xlink" ffdec:objectType="shape" height="43.85px" width="42.35px" xmlns="http://www.w3.org/2000/svg">
  <g transform="matrix(1.0, 0.0, 0.0, 1.0, 21.5, 23.55)">
    <path d="M1.65 -21.45 L2.55 -19.8 2.75 -19.5 Q3.85 -18.0 4.95 -15.65 L6.85 -11.65 7.65 -9.4 7.75 -9.1 9.0 -8.9 13.85 -8.1 17.85 -7.3 19.65 -6.65 19.95 -6.45 20.4 -6.0 Q20.8 -5.75 20.85 -4.65 20.85 -3.1 19.4 -1.75 L17.0 0.2 13.95 2.6 12.25 3.85 12.75 5.45 13.5 9.05 14.1 12.65 14.5 15.65 14.6 16.9 Q14.1 18.4 13.4 19.25 L13.3 19.2 12.9 19.25 Q11.8 19.25 7.45 17.4 L6.1 16.8 5.0 16.3 0.2 13.95 -4.35 16.3 Q-10.4 19.6 -11.1 19.6 L-11.25 19.6 -12.2 19.9 -13.5 20.3 -14.4 19.95 -14.45 19.95 Q-15.5 19.95 -15.7 18.85 L-15.7 17.7 -15.7 17.45 -15.7 17.35 Q-15.65 15.9 -15.1 14.2 L-15.1 14.05 -14.55 11.2 -13.95 8.8 -13.4 6.85 -13.5 6.85 -12.95 4.7 -12.8 3.55 -17.4 -0.3 -17.95 -0.8 Q-19.45 -1.8 -20.0 -2.95 L-21.45 -4.55 -21.5 -4.85 Q-21.55 -5.7 -20.7 -6.4 L-20.4 -6.6 -18.6 -7.25 -14.6 -8.05 -9.75 -8.85 -8.5 -9.05 -8.4 -9.35 -7.85 -10.85 Q-6.9 -12.4 -5.55 -16.35 L-1.4 -23.4 -1.2 -23.55 -0.8 -23.55 0.2 -23.35 1.65 -21.45 M5.05 -8.7 L4.75 -9.3 3.75 -11.35 2.25 -14.2 2.1 -14.5 2.05 -14.6 0.55 -17.75 -0.05 -18.75 -0.75 -19.4 Q-1.7 -19.4 -3.05 -15.95 L-4.45 -12.05 -5.9 -8.65 Q-6.4 -7.6 -7.1 -6.9 L-11.9 -6.1 Q-18.3 -4.95 -18.3 -4.1 -18.3 -3.45 -14.0 -0.75 -9.75 1.9 -9.75 3.45 -9.75 3.95 -11.05 9.45 L-12.4 15.85 Q-12.4 16.35 -11.6 16.55 -11.05 16.55 -5.8 14.0 -0.55 11.4 0.65 11.4 L11.1 16.7 12.1 16.7 12.15 16.25 10.45 9.8 8.85 3.55 8.75 3.15 9.15 2.55 Q9.95 1.7 12.3 -0.15 L16.15 -3.25 16.2 -3.7 15.95 -4.5 15.55 -4.75 12.35 -5.7 7.35 -6.55 Q6.1 -6.85 5.2 -8.35 L5.05 -8.7" fill="#003366" fill-rule="evenodd" stroke="none"/>
    <path d="M8.85 3.55 L10.45 9.8 12.15 16.25 12.1 16.7 11.1 16.7 0.65 11.4 Q-0.55 11.4 -5.8 14.0 -11.05 16.55 -11.6 16.55 -12.4 16.35 -12.4 15.85 L-11.05 9.45 Q-9.75 3.95 -9.75 3.45 -9.75 1.9 -14.0 -0.75 -18.3 -3.45 -18.3 -4.1 -18.3 -4.95 -11.9 -6.1 L-7.1 -6.9 Q-6.4 -7.6 -5.9 -8.65 L-4.45 -12.05 -3.05 -15.95 Q-1.7 -19.4 -0.75 -19.4 L-0.05 -18.75 0.55 -17.75 2.05 -14.6 2.1 -14.5 2.25 -14.2 3.75 -11.35 4.75 -9.3 5.05 -8.7 4.3 -9.25 2.5 -11.25 Q1.5 -12.35 0.5 -12.35 -0.9 -12.35 -2.25 -9.05 L-4.2 -4.45 -6.45 -4.2 Q-9.6 -4.05 -9.6 -1.7 -9.6 -0.7 -8.15 0.45 -7.1 1.35 -6.8 2.6 L-6.75 3.45 -7.05 5.4 -7.4 7.65 Q-7.4 8.7 -7.1 9.15 L-6.15 9.7 -5.6 9.3 -4.7 8.65 Q-2.15 6.85 -1.15 6.85 L-0.1 7.05 -0.05 7.05 -0.05 7.1 0.2 7.15 0.8 7.4 3.05 8.75 Q5.75 10.6 6.8 10.6 7.65 10.6 8.0 9.85 L8.4 8.1 8.4 7.75 8.35 6.35 Q8.35 5.75 8.6 5.1 L8.65 4.95 8.6 4.85 8.85 3.55 M-17.6 -4.4 L-17.7 -4.4 -17.65 -4.35 -17.6 -4.4" fill="#b6e104" fill-rule="evenodd" stroke="none"/>
    <path d="M5.05 -8.7 L5.2 -8.35 Q6.1 -6.85 7.35 -6.55 L12.35 -5.7 15.55 -4.75 15.95 -4.5 16.2 -3.7 16.15 -3.25 12.3 -0.15 Q9.95 1.7 9.15 2.55 L8.75 3.15 8.85 3.55 8.6 4.85 8.65 4.95 8.6 5.1 Q8.35 5.75 8.35 6.35 L8.4 7.75 8.4 8.1 8.0 9.85 Q7.65 10.6 6.8 10.6 5.75 10.6 3.05 8.75 L0.8 7.4 0.2 7.15 -0.05 7.1 -0.05 7.05 -0.1 7.05 -1.15 6.85 Q-2.15 6.85 -4.7 8.65 L-5.6 9.3 -6.15 9.7 -7.1 9.15 Q-7.4 8.7 -7.4 7.65 L-7.05 5.4 -6.75 3.45 -6.8 2.6 Q-7.1 1.35 -8.15 0.45 -9.6 -0.7 -9.6 -1.7 -9.6 -4.05 -6.45 -4.2 L-4.2 -4.45 -2.25 -9.05 Q-0.9 -12.35 0.5 -12.35 1.5 -12.35 2.5 -11.25 L4.3 -9.25 5.05 -8.7" fill="#e3e302" fill-rule="evenodd" stroke="none"/>
  </g>
</svg>
