<?xml version="1.0" encoding="UTF-8" standalone="no"?>
<svg xmlns:ffdec="https://www.free-decompiler.com/flash" xmlns:xlink="http://www.w3.org/1999/xlink" ffdec:objectType="shape" height="115.55px" width="118.1px" xmlns="http://www.w3.org/2000/svg">
  <g transform="matrix(1.0, 0.0, 0.0, 1.0, 59.05, 57.75)">
    <path d="M40.6 -51.65 L43.15 -57.75 58.7 -43.15 51.45 -40.4 40.6 -51.65 M41.6 52.45 L51.45 42.4 54.75 43.65 54.95 43.7 59.05 45.25 44.75 57.8 41.6 52.45" fill="#441d00" fill-rule="evenodd" stroke="none"/>
    <path d="M43.15 -57.75 L40.6 -51.65 -41.8 -51.65 -44.7 -57.5 43.15 -57.75" fill="#4f2100" fill-rule="evenodd" stroke="none"/>
    <path d="M-46.05 -47.3 L-28.65 -46.0 -23.95 -45.5 -5.2 -44.45 3.15 -43.9 4.5 -43.9 4.75 -43.95 10.35 -44.35 11.15 -44.75 16.75 -45.2 17.9 -45.35 18.4 -44.7 Q15.7 -43.9 12.95 -43.8 8.8 -43.7 5.9 -41.6 L5.5 -41.6 4.75 -41.2 -1.15 -41.7 -3.25 -41.6 Q-3.7 -41.35 -4.1 -41.2 L-38.65 -41.7 -39.35 -41.6 -39.6 -41.35 -40.5 -41.35 -40.8 -41.2 -45.35 -41.45 -50.45 -40.8 -51.2 -40.4 -52.4 -40.15 -52.4 -40.8 -46.05 -47.3 M-52.4 -37.55 L-39.85 -36.5 -25.25 -35.75 -24.85 -35.95 -17.2 -35.75 -16.8 -35.1 -16.8 -34.55 -17.15 -34.25 -17.65 -34.05 -24.85 -33.6 Q-25.25 -33.35 -25.65 -33.2 L-35.05 -33.35 -51.2 -33.6 -52.2 -33.25 -52.4 -33.1 -52.4 -37.55 M-52.4 -25.65 L-47.65 -25.4 -46.65 -25.0 -34.8 -24.5 -33.95 -24.1 -3.25 -24.35 Q-2.8 -24.5 -2.45 -24.75 L2.1 -25.25 3.2 -25.65 51.45 -25.95 51.45 -23.6 11.1 -23.2 10.9 -23.1 7.2 -22.4 6.4 -22.0 4.75 -21.65 4.5 -21.5 3.45 -21.35 3.2 -21.15 2.8 -21.15 -0.05 -20.75 Q-0.5 -20.5 -0.85 -20.35 L-7.25 -19.95 -8.05 -19.65 -16.1 -19.25 -16.8 -18.8 Q-35.25 -17.95 -52.4 -20.3 L-52.4 -25.65 M-52.4 32.05 L-46.9 32.6 Q-41.45 33.9 -35.9 34.2 L-23.65 34.8 -23.3 34.7 Q-22.8 34.65 -22.5 34.4 L-19.4 34.45 -19.25 34.4 -17.95 34.55 -15.7 34.65 -15.2 35.2 -27.7 36.55 -29.4 36.5 Q-36.3 35.1 -40.8 38.3 L-52.4 37.45 -52.4 32.05 M51.45 24.5 L43.95 24.8 43.2 25.2 Q31.5 25.45 20.5 23.85 L10.25 22.55 Q5.8 22.3 1.5 22.4 L0.8 22.8 -20.65 22.3 -21.05 22.05 -21.05 21.9 -18.7 21.8 Q-13.0 21.5 -8.6 18.9 L1.2 19.15 21.55 18.75 22.3 18.55 22.35 18.4 29.9 18.65 30.4 18.4 34.35 18.1 35.15 17.6 38.35 17.2 39.15 16.8 45.45 16.4 46.35 16.05 Q49.3 16.6 51.45 16.15 L51.45 24.5 M51.45 -1.15 L44.75 -0.8 43.95 -0.35 41.5 0.15 39.7 1.05 39.15 1.2 35.9 1.6 35.15 2.0 Q24.4 2.0 13.85 0.25 L14.75 0.1 21.7 -1.2 Q28.75 0.95 35.15 -1.8 39.65 -3.65 43.35 -6.4 L47.8 -7.0 48.8 -7.2 51.45 -7.05 51.45 -1.15 M46.05 18.9 L46.45 18.9 46.45 18.8 46.35 18.8 46.05 18.9" fill="#592b06" fill-rule="evenodd" stroke="none"/>
    <path d="M40.6 -51.65 L51.45 -40.4 51.45 -25.95 3.2 -25.65 2.1 -25.25 -2.45 -24.75 Q-2.8 -24.5 -3.25 -24.35 L-33.95 -24.1 -34.8 -24.5 -46.65 -25.0 -47.65 -25.4 -52.4 -25.65 -52.4 -33.1 -52.2 -33.25 -51.2 -33.6 -35.05 -33.35 -25.65 -33.2 Q-25.25 -33.35 -24.85 -33.6 L-17.65 -34.05 -17.15 -34.25 -16.8 -34.55 -16.8 -35.1 -17.2 -35.75 -24.85 -35.95 -25.25 -35.75 -39.85 -36.5 -52.4 -37.55 -52.4 -40.15 -51.2 -40.4 -50.45 -40.8 -45.35 -41.45 -40.8 -41.2 -40.5 -41.35 -39.6 -41.35 -39.35 -41.6 -38.65 -41.7 -4.1 -41.2 Q-3.7 -41.35 -3.25 -41.6 L-1.15 -41.7 4.75 -41.2 5.5 -41.6 5.9 -41.6 Q8.8 -43.7 12.95 -43.8 15.7 -43.9 18.4 -44.7 L17.9 -45.35 16.75 -45.2 11.15 -44.75 10.35 -44.35 4.75 -43.95 4.5 -43.9 3.15 -43.9 -5.2 -44.45 -23.95 -45.5 -28.65 -46.0 -46.05 -47.3 -41.8 -51.65 40.6 -51.65 M-52.4 -20.3 Q-35.25 -17.95 -16.8 -18.8 L-16.1 -19.25 -8.05 -19.65 -7.25 -19.95 -0.85 -20.35 Q-0.5 -20.5 -0.05 -20.75 L2.8 -21.15 3.2 -21.15 3.45 -21.35 4.5 -21.5 4.75 -21.65 6.4 -22.0 7.2 -22.4 10.9 -23.1 11.1 -23.2 51.45 -23.6 51.45 -7.05 48.8 -7.2 47.8 -7.0 43.35 -6.4 Q39.65 -3.65 35.15 -1.8 28.75 0.95 21.7 -1.2 L14.75 0.1 13.85 0.25 Q24.4 2.0 35.15 2.0 L35.9 1.6 39.15 1.2 39.7 1.05 41.5 0.15 43.95 -0.35 44.75 -0.8 51.45 -1.15 51.45 16.15 Q49.3 16.6 46.35 16.05 L45.45 16.4 39.15 16.8 38.35 17.2 35.15 17.6 34.35 18.1 30.4 18.4 29.9 18.65 22.35 18.4 22.3 18.55 21.55 18.75 1.2 19.15 -8.6 18.9 Q-13.0 21.5 -18.7 21.8 L-21.05 21.9 -21.05 22.05 -20.65 22.3 0.8 22.8 1.5 22.4 Q5.8 22.3 10.25 22.55 L20.5 23.85 Q31.5 25.45 43.2 25.2 L43.95 24.8 51.45 24.5 51.45 42.4 41.6 52.45 41.15 52.65 -41.8 52.65 -52.4 41.6 -52.4 37.45 -40.8 38.3 Q-36.3 35.1 -29.4 36.5 L-27.7 36.55 -15.2 35.2 -15.7 34.65 -17.95 34.55 -19.25 34.4 -19.4 34.45 -22.5 34.4 Q-22.8 34.65 -23.3 34.7 L-23.65 34.8 -35.9 34.2 Q-41.45 33.9 -46.9 32.6 L-52.4 32.05 -52.4 -20.3" fill="#643007" fill-rule="evenodd" stroke="none"/>
    <path d="M51.45 -40.4 L58.7 -43.15 59.05 45.25 54.95 43.7 54.75 43.65 51.45 42.4 51.45 24.5 51.45 16.15 51.45 -1.15 51.45 -7.05 51.45 -23.6 51.45 -25.95 51.45 -40.4" fill="#3a1900" fill-rule="evenodd" stroke="none"/>
    <path d="M46.05 18.9 L46.35 18.8 46.45 18.8 46.45 18.9 46.05 18.9" fill="#a5590e" fill-rule="evenodd" stroke="none"/>
    <path d="M-41.8 52.65 L41.15 52.65 41.6 52.45 44.75 57.8 -44.4 57.8 -41.8 52.65" fill="#642b00" fill-rule="evenodd" stroke="none"/>
    <path d="M-44.7 -57.5 L-41.8 -51.65 -46.05 -47.3 -52.4 -40.8 -59.05 -43.55 -44.7 -57.5 M-52.4 41.6 L-41.8 52.65 -44.4 57.8 -58.2 44.0 -52.4 41.6" fill="#733600" fill-rule="evenodd" stroke="none"/>
    <path d="M-52.4 -40.8 L-52.4 -40.15 -52.4 -37.55 -52.4 -33.1 -52.4 -25.65 -52.4 -20.3 -52.4 32.05 -52.4 37.45 -52.4 41.6 -58.2 44.0 -58.5 43.7 -59.05 -43.55 -52.4 -40.8" fill="#8e4300" fill-rule="evenodd" stroke="none"/>
  </g>
</svg>
