<?xml version="1.0" encoding="UTF-8" standalone="no"?>
<svg xmlns:ffdec="https://www.free-decompiler.com/flash" xmlns:xlink="http://www.w3.org/1999/xlink" ffdec:objectType="shape" height="94.0px" width="192.0px" xmlns="http://www.w3.org/2000/svg">
  <g transform="matrix(1.0, 0.0, 0.0, 1.0, 98.5, 1.0)">
    <path d="M86.95 23.6 Q92.5 23.6 92.5 28.6 L92.5 87.0 Q92.5 92.0 86.95 92.0 L-91.95 92.0 Q-97.5 92.0 -97.5 87.0 L-97.5 28.6 Q-97.5 23.6 -91.95 23.6 L-16.1 23.6 0.2 0.0 14.95 23.6 86.95 23.6" fill="#333333" fill-opacity="0.9019608" fill-rule="evenodd" stroke="none"/>
    <path d="M86.95 23.6 L14.95 23.6 0.2 0.0 -16.1 23.6 -91.95 23.6 Q-97.5 23.6 -97.5 28.6 L-97.5 87.0 Q-97.5 92.0 -91.95 92.0 L86.95 92.0 Q92.5 92.0 92.5 87.0 L92.5 28.6 Q92.5 23.6 86.95 23.6 Z" fill="none" stroke="#000000" stroke-linecap="round" stroke-linejoin="round" stroke-width="2.0" vector-effect="non-scaling-stroke"/>
  </g>
</svg>
