<?xml version="1.0" encoding="UTF-8" standalone="no"?>
<svg xmlns:ffdec="https://www.free-decompiler.com/flash" xmlns:xlink="http://www.w3.org/1999/xlink" ffdec:objectType="shape" height="68.15px" width="77.85px" xmlns="http://www.w3.org/2000/svg">
  <g transform="matrix(1.0, 0.0, 0.0, 1.0, 36.0, 36.0)">
    <path d="M21.2 -35.8 L21.95 -35.8 22.15 -35.65 22.25 -35.6 22.25 -25.2 22.05 -25.05 21.3 -24.2 21.2 -24.1 21.2 -24.05 21.1 -23.95 20.95 -23.8 20.0 -22.8 18.2 -22.8 Q16.85 -22.2 16.85 -21.4 16.85 -20.15 18.0 -19.7 L19.5 -19.8 Q19.95 -20.25 20.15 -21.25 L20.1 -21.4 20.25 -21.5 20.15 -21.6 20.95 -22.5 21.15 -22.65 36.5 -23.1 37.0 -22.1 29.45 -8.45 29.15 -8.25 28.7 -7.85 28.25 -7.8 28.2 -7.95 28.05 -7.95 28.05 -7.9 27.9 -7.85 27.0 -8.05 Q25.7 -8.05 25.35 -7.2 25.15 -6.75 25.25 -6.3 L25.3 -5.85 Q25.5 -4.8 26.8 -4.8 27.65 -4.8 28.35 -5.5 L28.35 -5.55 28.8 -6.05 28.85 -6.1 29.1 -6.6 29.5 -7.1 29.6 -7.1 29.6 -7.15 31.0 -7.2 31.3 -7.4 32.35 -7.1 41.6 -4.3 41.75 -3.25 41.85 -2.85 41.65 -2.6 31.4 3.45 30.85 3.7 13.25 8.25 12.55 8.35 11.3 8.4 8.05 3.1 3.05 6.15 1.6 7.05 2.75 8.65 2.95 8.75 7.9 14.65 9.25 16.35 9.05 16.65 3.05 21.0 2.4 21.2 2.05 21.2 1.45 21.15 1.05 21.2 0.6 21.15 -2.1 21.05 -2.35 20.85 -2.65 20.3 -3.85 18.75 Q-4.05 19.6 -4.85 20.05 L-9.05 22.6 -10.05 22.95 -10.55 23.0 -8.65 26.1 -7.9 27.5 -14.95 31.8 -17.35 32.15 -19.0 32.15 -20.1 30.6 -20.2 30.4 -25.35 20.15 -26.45 20.8 -26.75 21.0 -27.1 21.1 -28.6 22.0 -36.0 9.7 -34.1 8.55 -34.0 8.45 -22.9 1.7 -21.95 3.2 -20.35 5.75 1.55 -7.6 -2.3 -13.9 10.7 -29.35 11.2 -29.75 20.7 -36.0 21.0 -35.9 21.2 -35.8 M19.75 -32.25 L19.6 -32.7 12.65 -27.7 0.8 -13.6 0.9 -13.4 3.85 -8.55 3.9 -8.5 5.0 -6.7 3.0 -5.45 2.95 -5.45 1.1 -4.3 -20.2 8.7 -20.3 8.8 -21.15 9.25 -23.65 5.15 -30.6 9.4 -32.65 10.65 -27.75 18.75 -25.7 17.5 -24.35 16.65 -18.4 29.2 -15.8 29.4 -11.15 26.6 -11.95 25.4 -17.2 17.75 -15.65 16.7 -15.6 16.75 -14.9 16.35 -14.8 16.45 -12.4 20.45 -10.35 20.55 -6.15 18.0 -9.2 13.0 -7.2 11.8 -0.75 19.15 1.85 18.85 6.05 16.3 5.75 16.1 4.0 14.0 3.95 13.95 3.75 13.65 0.75 10.25 -1.1 8.0 -1.6 7.35 -1.65 7.35 -2.2 6.5 -2.25 6.45 -1.7 6.2 0.05 5.35 0.1 5.35 1.55 4.3 1.5 4.25 4.75 2.3 8.9 -0.25 10.05 1.65 10.1 1.7 12.45 5.6 12.65 5.85 13.45 5.7 30.2 1.3 38.2 -2.85 38.0 -2.9 32.2 -4.8 30.05 -5.3 Q29.9 -4.7 29.35 -4.05 28.3 -2.75 26.5 -2.75 24.55 -2.75 23.75 -4.1 L23.55 -4.5 23.3 -5.0 23.2 -5.4 Q23.05 -5.85 23.05 -6.4 L23.25 -7.65 23.95 -8.65 24.2 -8.85 Q25.4 -9.85 27.1 -9.7 L27.75 -9.6 Q27.9 -10.45 30.45 -14.6 L31.2 -15.9 32.55 -17.95 32.9 -18.55 33.7 -19.55 34.3 -20.75 30.4 -20.7 26.7 -20.45 21.75 -20.15 21.35 -19.5 21.2 -19.3 Q20.15 -17.95 18.35 -17.8 L18.25 -17.9 Q16.7 -17.95 15.85 -18.7 L15.3 -19.4 15.15 -19.45 14.9 -20.7 14.95 -21.2 14.9 -21.35 15.05 -22.15 Q15.45 -24.9 18.8 -24.9 L19.85 -24.75 19.75 -31.85 19.75 -32.25 M6.75 -16.95 L6.85 -17.1 6.9 -17.05 6.75 -16.95 M19.85 -23.35 L19.75 -23.35 19.7 -23.35 19.75 -23.3 19.85 -23.35" fill="#000000" fill-rule="evenodd" stroke="none"/>
    <path d="M19.75 -32.25 L19.75 -31.85 7.6 -15.85 11.35 -9.65 13.1 -6.8 14.8 -4.05 18.55 2.1 38.0 -2.9 38.2 -2.85 30.2 1.3 13.45 5.7 14.55 4.3 12.45 5.6 10.1 1.7 10.75 1.15 11.75 0.55 11.95 -1.15 11.95 -1.35 15.0 -0.9 14.8 -1.25 13.55 -3.3 12.95 -4.25 12.8 -4.55 12.0 -6.1 11.65 -6.75 11.45 -7.15 11.2 -7.55 11.15 -7.65 10.65 -8.45 9.45 -10.35 7.55 -12.95 6.25 -14.1 Q4.9 -15.0 3.45 -14.95 L6.75 -16.95 6.9 -17.05 6.85 -17.1 19.75 -32.25 M-25.7 17.5 L-27.75 18.75 -32.65 10.65 -30.6 9.4 -25.7 17.5 M3.9 -8.5 L3.85 -8.55 4.0 -8.55 3.9 -8.5 M19.55 -10.9 L18.25 -11.0 19.3 -13.35 21.05 -17.3 27.2 -17.0 28.1 -16.95 27.6 -15.85 22.15 -16.2 19.55 -10.9" fill="#704600" fill-rule="evenodd" stroke="none"/>
    <path d="M0.9 -13.4 L0.8 -13.6 12.65 -27.7 19.6 -32.7 19.75 -32.25 6.85 -17.1 6.75 -16.95 3.45 -14.95 0.9 -13.4 M21.35 -19.5 L21.75 -20.15 26.7 -20.45 30.4 -20.7 34.3 -20.75 33.7 -19.55 32.9 -18.55 32.55 -17.95 31.2 -15.9 30.45 -14.6 Q27.9 -10.45 27.75 -9.6 L27.1 -9.7 Q25.4 -9.85 24.2 -8.85 L23.95 -8.65 23.25 -7.65 14.8 -4.05 13.1 -6.8 19.65 -10.9 24.9 -10.65 27.6 -15.85 32.0 -18.6 30.9 -18.7 21.35 -19.5 M-30.6 9.4 L-23.65 5.15 -21.15 9.25 -19.4 12.5 -22.0 11.8 -24.25 8.05 -27.75 10.2 -30.6 9.4" fill="#e7d552" fill-rule="evenodd" stroke="none"/>
    <path d="M19.75 -31.85 L19.85 -24.75 18.8 -24.9 Q15.45 -24.9 15.05 -22.15 L14.9 -21.35 14.95 -21.2 14.9 -20.7 15.15 -19.45 15.3 -19.4 15.85 -18.7 Q16.7 -17.95 18.25 -17.9 L18.35 -17.8 Q20.15 -17.95 21.2 -19.3 L21.35 -19.5 30.9 -18.7 27.2 -17.0 21.05 -17.3 19.3 -13.35 11.35 -9.65 7.6 -15.85 19.75 -31.85 M23.25 -7.65 L23.05 -6.4 Q23.05 -5.85 23.2 -5.4 L23.3 -5.0 23.55 -4.5 23.75 -4.1 Q24.55 -2.75 26.5 -2.75 28.3 -2.75 29.35 -4.05 29.9 -4.7 30.05 -5.3 L32.2 -4.8 38.0 -2.9 18.55 2.1 14.8 -4.05 23.25 -7.65 M-24.35 16.65 L-25.7 17.5 -30.6 9.4 -27.75 10.2 -27.9 10.25 -27.45 11.0 -27.4 11.0 -27.4 11.05 -25.3 14.55 -21.65 12.35 -22.0 11.8 -19.4 12.5 -18.95 13.35 -22.4 15.5 -24.35 16.65" fill="#e6ae37" fill-rule="evenodd" stroke="none"/>
    <path d="M3.85 -8.55 L0.9 -13.4 3.45 -14.95 Q4.9 -15.0 6.25 -14.1 L7.55 -12.95 9.45 -10.35 10.65 -8.45 11.15 -7.65 11.2 -7.55 11.45 -7.15 11.65 -6.75 12.0 -6.1 12.8 -4.55 12.95 -4.25 13.55 -3.3 14.8 -1.25 15.0 -0.9 11.95 -1.35 11.8 -2.9 11.4 -4.4 11.4 -4.5 Q10.65 -6.4 9.6 -7.35 L9.15 -7.95 8.8 -8.25 8.1 -8.7 6.7 -9.4 6.6 -9.45 5.75 -9.7 5.7 -9.65 5.7 -9.6 5.5 -9.5 4.7 -9.0 4.15 -8.65 4.0 -8.55 3.85 -8.55" fill="#8f5e0a" fill-rule="evenodd" stroke="none"/>
    <path d="M10.1 1.7 L10.05 1.65 8.9 -0.25 10.15 -1.0 10.2 -1.45 10.2 -1.6 10.1 -2.55 9.15 -5.0 9.1 -5.05 7.9 -6.45 6.6 -7.2 6.05 -7.35 5.0 -6.7 3.9 -8.5 4.0 -8.55 4.15 -8.65 4.7 -9.0 5.5 -9.5 5.7 -9.6 5.7 -9.65 5.75 -9.7 6.6 -9.45 6.7 -9.4 8.1 -8.7 8.8 -8.25 9.15 -7.95 9.6 -7.35 Q10.65 -6.4 11.4 -4.5 L11.4 -4.4 11.8 -2.9 11.95 -1.35 11.95 -1.15 11.75 0.55 10.75 1.15 10.1 1.7" fill="#0c182e" fill-rule="evenodd" stroke="none"/>
    <path d="M8.9 -0.25 L4.75 2.3 4.75 1.65 Q4.75 -0.65 4.15 -1.65 L4.0 -1.85 3.7 -2.2 3.15 -2.75 2.45 -3.35 1.15 -4.25 1.1 -4.3 2.95 -5.45 3.0 -5.45 5.0 -6.7 6.05 -7.35 6.6 -7.2 7.9 -6.45 9.1 -5.05 9.15 -5.0 10.1 -2.55 10.2 -1.6 10.2 -1.45 10.15 -1.0 8.9 -0.25" fill="#385fa6" fill-rule="evenodd" stroke="none"/>
    <path d="M-1.1 8.0 L0.75 10.25 3.75 13.65 0.0 16.65 -5.15 10.45 -1.1 8.0 M-17.2 17.75 L-11.95 25.4 -16.25 28.45 -20.65 19.75 -18.45 18.5 -18.0 18.25 -17.2 17.75 M1.15 -4.25 L2.45 -3.35 3.15 -2.75 3.7 -2.2 3.0 -1.4 Q-0.55 2.35 -7.85 7.0 L-17.15 12.95 -17.65 11.75 Q-18.2 10.55 -18.85 9.85 L-17.35 8.8 -17.1 8.95 -16.85 8.65 -17.05 8.6 1.15 -4.25" fill="#488bff" fill-rule="evenodd" stroke="none"/>
    <path d="M-21.15 9.25 L-20.3 8.8 -20.2 8.7 1.1 -4.3 1.15 -4.25 -17.05 8.6 -16.85 8.65 -17.1 8.95 -17.35 8.8 -18.85 9.85 Q-18.2 10.55 -17.65 11.75 L-17.15 12.95 -16.95 13.6 -16.75 15.25 -21.35 18.05 -21.5 17.8 -21.55 17.5 Q-21.8 16.35 -22.4 15.5 L-18.95 13.35 -19.4 12.5 -21.15 9.25" fill="#2965cd" fill-rule="evenodd" stroke="none"/>
    <path d="M4.75 2.3 L1.5 4.25 -1.7 6.2 -2.25 6.45 -2.2 6.5 -14.55 13.85 -14.5 13.9 -16.75 15.25 -16.95 13.6 -17.15 12.95 -7.85 7.0 Q-0.55 2.35 3.0 -1.4 L3.7 -2.2 4.0 -1.85 4.15 -1.65 Q4.75 -0.65 4.75 1.65 L4.75 2.3 M3.75 13.65 L3.95 13.95 4.0 14.0 5.75 16.1 6.05 16.3 1.85 18.85 0.0 16.65 3.75 13.65 M-11.95 25.4 L-11.15 26.6 -15.8 29.4 -16.25 28.45 -11.95 25.4" fill="#70b7fe" fill-rule="evenodd" stroke="none"/>
    <path d="M19.55 -10.9 L19.65 -10.9 13.1 -6.8 11.35 -9.65 19.3 -13.35 18.25 -11.0 19.55 -10.9 M30.9 -18.7 L32.0 -18.6 27.6 -15.85 28.1 -16.95 27.2 -17.0 30.9 -18.7" fill="#aa6f0a" fill-rule="evenodd" stroke="none"/>
    <path d="M1.5 4.25 L1.55 4.3 0.1 5.35 0.05 5.35 -1.7 6.2 1.5 4.25 M-2.2 6.5 L-1.65 7.35 -1.6 7.35 -1.1 8.0 -5.15 10.45 0.0 16.65 1.85 18.85 -0.75 19.15 -7.2 11.8 -9.2 13.0 -12.6 14.95 -13.45 15.45 -13.4 15.55 -14.8 16.45 -14.9 16.35 -15.6 16.75 -15.65 16.7 -17.2 17.75 -18.0 18.25 -18.45 18.5 -20.65 19.75 -16.25 28.45 -15.8 29.4 -18.4 29.2 -24.35 16.65 -22.4 15.5 Q-21.8 16.35 -21.55 17.5 L-21.5 17.8 -21.35 18.05 -16.75 15.25 -14.5 13.9 -14.55 13.85 -2.2 6.5 M19.65 -10.9 L19.55 -10.9 22.15 -16.2 27.6 -15.85 24.9 -10.65 19.65 -10.9 M-22.0 11.8 L-21.65 12.35 -25.3 14.55 -27.4 11.05 -27.4 11.0 -27.45 11.0 -27.9 10.25 -27.75 10.2 -24.25 8.05 -22.0 11.8" fill="#15346b" fill-rule="evenodd" stroke="none"/>
    <path d="M13.45 5.7 L12.65 5.85 12.45 5.6 14.55 4.3 13.45 5.7" fill="#815101" fill-rule="evenodd" stroke="none"/>
    <path d="M-10.35 20.55 L-12.4 20.45 -14.8 16.45 -13.4 15.55 -10.35 20.55" fill="#0d2654" fill-rule="evenodd" stroke="none"/>
    <path d="M-9.2 13.0 L-6.15 18.0 -10.35 20.55 -13.4 15.55 -13.45 15.45 -12.6 14.95 -9.2 13.0" fill="#1654bf" fill-rule="evenodd" stroke="none"/>
  </g>
</svg>
