<?xml version="1.0" encoding="UTF-8" standalone="no"?>
<svg xmlns:ffdec="https://www.free-decompiler.com/flash" xmlns:xlink="http://www.w3.org/1999/xlink" ffdec:objectType="shape" height="87.65px" width="181.8px" xmlns="http://www.w3.org/2000/svg">
  <g transform="matrix(1.0, 0.0, 0.0, 1.0, 91.05, 31.7)">
    <path d="M41.8 -27.15 L43.5 -26.95 Q44.45 -26.9 44.45 -26.2 44.45 -25.5 43.65 -25.5 L38.95 -25.6 38.65 -25.55 29.35 -25.45 Q28.95 -25.15 28.0 -25.15 L28.0 -21.7 12.4 -21.05 Q8.45 -20.75 8.35 -20.05 L5.75 -19.25 0.5 -17.9 -0.75 -17.9 -1.35 -18.0 -1.2 -18.15 Q-0.85 -18.45 -1.05 -18.5 L-2.35 -19.75 -4.55 -21.2 -5.2 -21.55 -5.05 -21.8 -5.3 -22.05 6.25 -22.05 6.65 -22.2 6.7 -22.25 13.5 -22.3 13.75 -22.35 23.5 -23.25 Q26.75 -23.9 26.75 -25.05 L26.65 -25.85 26.5 -26.0 25.2 -26.0 25.1 -26.3 25.25 -26.3 25.65 -26.45 25.85 -27.0 25.75 -27.45 31.5 -27.45 31.6 -27.4 34.3 -27.4 34.65 -27.25 37.95 -27.25 38.85 -27.15 38.95 -27.05 38.95 -27.15 41.8 -27.15" fill="url(#gradient0)" fill-rule="evenodd" stroke="none"/>
    <path d="M25.75 -27.45 L25.85 -27.0 25.65 -26.45 25.25 -26.3 25.1 -26.3 25.2 -26.0 26.5 -26.0 26.65 -25.85 26.75 -25.05 Q26.75 -23.9 23.5 -23.25 L13.75 -22.35 13.5 -22.3 6.7 -22.25 6.65 -22.2 6.25 -22.05 -5.3 -22.05 -5.05 -21.8 -5.2 -21.55 -4.55 -21.2 -2.35 -19.75 -1.05 -18.5 Q-0.85 -18.45 -1.2 -18.15 L-1.35 -18.0 -0.75 -17.9 0.5 -17.9 5.75 -19.25 8.35 -20.05 Q8.45 -20.75 12.4 -21.05 L28.0 -21.7 28.0 -25.15 Q28.95 -25.15 29.35 -25.45 L38.65 -25.55 38.95 -25.6 43.65 -25.5 Q44.45 -25.5 44.45 -26.2 44.45 -26.9 43.5 -26.95 L41.8 -27.15 71.05 -27.15 71.25 -20.45 Q71.05 -15.7 71.25 -6.65 L71.25 -2.85 58.8 -1.7 58.8 -3.95 Q58.5 -5.45 58.4 -9.75 58.25 -12.95 58.25 -16.25 L58.25 -17.65 57.7 -18.8 57.6 -18.8 48.25 -19.45 Q45.6 -19.95 45.15 -20.4 L45.15 -20.35 45.1 -20.55 42.9 -20.6 42.75 -20.55 34.75 -20.5 34.0 -20.3 28.5 -20.25 28.0 -20.2 27.55 -20.2 27.25 -20.05 25.35 -20.05 23.1 -19.9 9.9 -19.3 8.3 -18.45 7.15 -17.9 2.75 -15.8 2.05 -15.8 1.6 -15.55 1.6 -15.25 1.5 -14.75 Q1.5 -14.55 0.85 -14.55 L0.35 -14.65 0.15 -14.9 0.15 -14.85 0.1 -15.3 0.2 -15.55 -1.9 -15.8 -2.0 -15.8 -2.05 -15.8 Q-3.2 -16.05 -4.05 -16.45 L-4.85 -16.95 Q-6.45 -17.35 -7.15 -17.9 L-7.55 -18.3 -7.2 -19.05 -4.75 -18.55 -2.75 -18.25 -3.25 -18.65 -4.0 -19.25 -5.85 -20.35 -7.55 -21.05 -7.45 -21.25 -7.5 -21.25 -7.65 -21.05 Q-7.9 -20.8 -8.25 -20.8 L-9.55 -21.05 -9.65 -21.05 -9.7 -21.05 -13.75 -21.85 -13.9 -21.9 -14.5 -21.3 -17.75 -21.75 -21.5 -22.25 -22.5 -22.3 Q-23.05 -22.65 -23.05 -23.25 L-25.0 -23.25 Q-25.55 -23.45 -25.9 -23.95 L-25.95 -24.05 -27.0 -24.05 -27.0 -20.55 -52.8 -20.55 -55.25 -19.8 -56.7 -19.8 -57.25 -19.55 -57.55 -19.7 -57.6 -19.75 -57.65 -19.75 -57.9 -19.75 -58.05 -19.75 Q-58.7 -19.45 -59.0 -19.05 L-59.15 -18.8 -59.2 -18.7 Q-59.45 -18.0 -59.15 -16.8 L-59.05 -16.4 -59.05 -15.95 -59.25 -14.0 -59.5 -12.85 -60.0 -11.4 -60.2 -9.85 -60.35 -8.7 -60.4 -1.3 -60.4 8.25 -60.35 8.9 -71.15 9.85 -71.15 -0.85 -71.15 -4.15 -71.15 -6.55 -74.35 -8.1 Q-77.75 -9.9 -78.9 -11.7 L-80.35 -12.65 -80.85 -13.0 -81.35 -13.4 Q-80.85 -15.35 -79.75 -16.8 -78.55 -18.4 -75.4 -20.8 L-75.3 -20.75 -74.2 -19.8 Q-73.05 -18.4 -73.05 -16.55 -73.05 -14.55 -73.95 -12.15 -74.65 -10.3 -75.55 -9.05 L-75.15 -9.05 Q-75.15 -8.2 -73.5 -9.4 -72.0 -10.55 -71.15 -12.85 L-70.95 -13.4 Q-70.05 -16.5 -70.05 -19.1 -70.05 -21.55 -70.95 -23.7 L-71.05 -23.85 Q-68.4 -24.8 -60.0 -25.35 L-42.6 -25.95 -32.55 -25.5 -32.45 -25.15 -32.3 -24.55 -31.65 -24.35 -31.1 -24.2 -28.75 -24.2 Q-29.05 -24.45 -29.05 -25.0 L-29.0 -25.25 -29.0 -25.5 -25.9 -25.4 -25.95 -25.5 -24.2 -25.6 -23.7 -25.3 -20.45 -25.55 -17.75 -26.0 -11.35 -26.2 -7.4 -25.65 -4.3 -25.75 7.95 -26.65 15.5 -27.5 15.5 -27.55 19.75 -27.55 20.75 -27.55 25.25 -27.55 25.65 -27.5 25.75 -27.45 M38.95 -27.15 L38.95 -27.05 38.85 -27.15 38.95 -27.15 M75.3 -19.8 L75.6 -19.8 79.85 -18.35 81.1 -17.95 83.15 -16.95 81.55 -15.95 79.45 -14.5 79.35 -14.2 Q77.7 -13.45 77.55 -13.45 L75.35 -12.25 75.3 -12.3 74.85 -12.65 Q74.35 -13.9 74.35 -15.7 74.35 -17.3 75.15 -19.5 L75.3 -19.8" fill="url(#gradient1)" fill-rule="evenodd" stroke="none"/>
    <path d="M41.8 -27.15 L38.95 -27.15 38.85 -27.15 37.95 -27.25 34.65 -27.25 34.3 -27.4 31.6 -27.4 31.5 -27.45 25.75 -27.45 25.65 -27.5 25.25 -27.55 20.75 -27.55 20.7 -27.8 20.7 -27.85 20.65 -27.85 20.6 -27.8 20.5 -27.6 20.2 -27.75 20.15 -27.7 19.75 -27.55 15.5 -27.55 14.75 -27.55 14.25 -27.75 13.1 -27.75 13.0 -27.75 11.65 -27.75 1.8 -27.75 -5.5 -27.8 -5.55 -27.8 -5.75 -27.8 -10.0 -28.0 Q-10.3 -27.75 -10.9 -27.75 L-11.0 -27.75 -13.95 -28.0 -12.95 -27.75 -20.5 -27.75 -20.5 -27.7 -24.0 -27.6 -24.55 -27.25 -25.95 -27.25 -27.0 -27.2 -27.0 -27.25 -29.75 -27.25 -29.75 -27.15 -30.65 -27.15 -31.9 -27.0 -32.5 -27.15 -71.35 -27.15 -71.15 -24.8 -71.15 -24.1 -71.05 -23.85 -70.95 -23.7 Q-70.05 -21.55 -70.05 -19.1 -70.05 -16.5 -70.95 -13.4 L-71.15 -12.85 Q-72.0 -10.55 -73.5 -9.4 -75.15 -8.2 -75.15 -9.05 L-75.55 -9.05 Q-74.65 -10.3 -73.95 -12.15 -73.05 -14.55 -73.05 -16.55 -73.05 -18.4 -74.2 -19.8 L-75.3 -20.75 -75.35 -20.85 -75.35 -20.95 Q-76.15 -21.8 -77.1 -21.5 L-77.8 -21.0 -77.8 -21.1 Q-79.35 -19.85 -82.8 -17.85 -84.2 -17.0 -85.35 -16.4 L-81.35 -13.4 -80.85 -13.0 -80.35 -12.65 -78.9 -11.7 Q-77.75 -9.9 -74.35 -8.1 L-71.15 -6.55 -71.15 -4.15 -71.15 -0.85 -71.15 9.85 -71.3 17.1 Q-70.85 18.75 -70.85 19.85 L-70.85 20.35 -70.85 20.4 -70.9 20.35 -71.35 19.65 -72.8 17.85 -73.8 16.9 Q-74.7 16.15 -75.55 15.8 -76.6 15.2 -77.5 15.1 L-77.5 14.9 -79.6 17.35 -80.85 18.8 -81.55 19.85 -81.6 19.85 -82.0 20.35 -82.55 20.95 -82.75 21.15 -83.05 21.45 -83.65 22.3 -80.45 22.0 -80.4 22.1 -78.8 21.85 -78.25 21.85 -76.55 21.8 -76.25 21.8 -75.7 21.9 -75.55 21.65 -70.95 20.45 -70.65 20.4 Q-66.6 21.55 -60.0 24.15 L-55.2 26.1 -55.15 26.35 -51.35 24.75 -46.4 24.45 Q-40.0 24.45 -35.3 26.75 -31.1 28.75 -30.4 31.4 -33.4 28.45 -41.65 28.45 L-42.05 28.45 Q-47.1 28.5 -49.75 29.9 L-49.25 31.85 Q-48.65 33.8 -48.3 36.05 L-47.35 39.95 -47.35 40.15 -47.1 41.05 -47.05 41.4 -47.0 41.55 -46.85 42.05 Q-40.45 39.45 -37.0 37.85 -32.6 35.85 -30.3 34.2 L-22.8 36.15 -13.2 39.2 Q-9.85 40.15 -4.6 40.9 L-2.35 38.05 -0.35 36.1 0.15 35.85 0.75 35.7 0.8 35.65 Q1.35 35.85 1.9 36.15 L2.4 36.65 4.4 39.0 5.6 40.45 20.6 35.9 24.6 34.65 25.4 33.35 26.8 32.0 28.4 30.5 Q29.3 29.6 30.15 29.05 L34.65 26.2 Q37.5 24.85 42.0 24.25 L45.3 24.25 46.45 24.4 46.75 24.5 46.8 24.7 44.15 25.35 Q40.75 26.05 38.2 27.1 36.7 27.75 35.35 28.8 L35.15 28.95 33.0 30.8 Q31.45 32.0 30.1 34.95 L29.4 36.65 34.45 39.0 35.95 39.65 37.65 40.4 44.85 43.7 45.55 43.75 45.8 43.55 47.15 40.95 47.95 38.95 49.1 36.4 49.1 36.35 49.65 35.0 50.05 34.2 50.95 32.0 50.95 31.2 51.55 29.05 52.75 25.1 52.9 25.1 54.6 24.5 71.6 18.7 Q71.1 16.65 71.1 13.9 L71.25 6.8 Q71.1 3.35 71.25 -2.85 L71.25 -6.65 Q71.05 -15.7 71.25 -20.45 L71.05 -27.15 41.8 -27.15 M-60.2 -9.85 L-60.0 -11.4 -59.5 -12.85 -59.25 -14.0 -59.05 -13.8 -59.05 -12.45 -58.8 -11.25 -58.9 -10.55 -59.05 -10.45 -59.05 -9.15 -59.75 -8.8 -60.2 -9.85 M-59.05 -15.95 L-59.05 -16.4 -59.15 -16.8 Q-59.45 -18.0 -59.2 -18.7 L-59.15 -18.8 -59.0 -19.05 Q-58.7 -19.45 -58.05 -19.75 L-57.9 -19.75 -57.65 -19.75 -57.6 -19.75 -57.55 -19.7 Q-57.55 -19.1 -58.05 -18.4 -58.7 -17.55 -58.9 -16.05 L-59.05 -15.95 M32.5 -31.0 L35.15 -31.15 43.4 -31.25 43.5 -31.15 52.1 -31.1 52.45 -31.25 53.9 -31.1 58.5 -31.05 58.7 -31.0 58.9 -31.0 60.25 -31.0 66.5 -31.35 72.7 -31.3 75.0 -29.6 75.1 -23.7 88.95 -17.25 88.95 -16.95 88.95 -16.5 87.95 -15.85 Q87.9 -15.45 87.25 -15.0 L85.4 -13.9 Q82.9 -12.45 81.95 -11.8 L80.4 -10.8 78.6 -9.75 Q76.5 -8.0 75.4 -7.75 L75.8 10.2 77.75 11.6 79.1 12.35 80.15 13.2 82.45 14.75 84.55 16.35 Q86.1 17.6 87.95 19.6 L89.75 21.15 90.55 21.8 90.75 22.0 89.55 22.4 87.3 23.05 81.35 24.95 75.1 27.05 73.35 27.55 72.55 26.55 Q71.6 25.0 71.6 24.65 71.5 24.65 71.45 24.75 L70.85 24.15 63.1 25.65 59.55 26.55 56.9 27.55 56.25 29.2 52.95 37.6 52.85 37.85 50.15 46.15 49.7 47.7 49.3 48.65 49.2 48.8 Q49.05 49.5 48.6 49.5 L47.15 48.9 41.5 46.75 35.15 44.2 26.55 39.9 26.2 39.95 24.15 40.2 21.3 40.7 16.45 41.6 15.05 41.9 8.9 43.3 8.4 43.55 9.4 45.55 12.0 49.3 11.95 49.5 11.6 50.25 11.5 50.4 11.45 50.4 11.0 51.1 9.85 52.35 8.95 53.5 1.55 55.95 1.0 55.85 -2.35 55.4 -4.05 55.0 -7.0 52.5 -9.95 49.9 -11.35 48.5 -11.5 48.35 -10.9 47.55 -9.65 45.95 -8.4 44.75 -8.4 44.65 -8.2 44.3 -8.7 44.05 -10.15 43.75 -12.95 43.05 -19.15 41.15 -26.05 39.25 -28.15 38.65 -29.35 38.25 -31.5 39.05 -34.4 40.1 Q-36.15 40.7 -39.1 42.0 L-44.7 44.05 -47.7 45.25 -48.75 45.7 -49.5 43.0 Q-49.65 41.85 -50.65 39.0 L-51.75 34.9 -52.2 33.5 -52.25 33.35 -52.75 32.25 -52.95 31.1 -53.0 30.95 -55.85 29.65 -60.95 27.05 Q-63.75 25.2 -67.0 24.45 L-69.25 23.65 -69.6 23.45 -69.95 23.45 -70.3 23.35 -75.2 23.75 -80.85 24.15 -86.75 24.5 -86.9 24.6 -87.35 23.65 -87.6 23.2 -87.2 22.35 -85.7 19.95 -82.55 16.05 -80.85 13.95 -79.35 11.8 -76.4 8.55 -76.35 8.45 -75.65 7.8 -75.45 7.7 -75.3 7.5 -75.05 6.2 Q-74.75 4.85 -74.75 3.3 -74.75 1.8 -75.05 -0.75 L-75.35 -4.05 -79.6 -7.4 -83.3 -10.8 -87.5 -14.1 -90.8 -16.55 -91.05 -16.8 -89.4 -18.0 Q-86.65 -19.65 -85.6 -20.45 L-83.8 -21.65 Q-83.0 -22.0 -82.75 -22.2 L-82.35 -22.6 -76.15 -26.05 -76.25 -26.45 -76.05 -27.65 -75.45 -28.0 -73.8 -29.15 -71.8 -30.5 -71.85 -30.7 -71.75 -30.95 -71.15 -30.95 -69.6 -31.05 -66.9 -31.05 -63.7 -31.4 -60.1 -31.7 -59.7 -31.55 -56.15 -31.55 Q-55.5 -30.9 -54.5 -31.0 L-31.5 -31.0 -24.5 -31.65 20.95 -31.6 32.5 -31.0 M74.85 -12.65 L75.3 -12.3 75.35 -12.25 77.55 -13.45 Q77.7 -13.45 79.35 -14.2 L79.45 -14.5 81.55 -15.95 83.15 -16.95 81.1 -17.95 79.85 -18.35 75.6 -19.8 75.3 -19.8 75.15 -19.8 Q74.05 -19.6 73.5 -18.55 L73.35 -16.05 73.35 -15.6 73.8 -14.3 Q74.2 -13.2 74.85 -12.65 M76.1 23.0 L78.2 22.55 78.65 21.9 78.7 21.8 78.85 22.0 78.9 22.15 81.3 21.6 82.15 21.4 84.6 20.85 84.9 20.85 Q80.25 18.0 78.85 16.6 L78.2 15.95 78.2 16.3 Q77.65 15.65 76.95 15.65 L76.55 15.7 Q75.05 15.95 74.35 18.1 73.95 19.4 73.95 21.1 L74.1 22.3 Q74.4 23.1 75.25 23.45 L75.4 23.25 76.1 23.0 M74.65 26.9 L74.35 27.0 74.4 27.05 74.65 26.9 M0.95 38.9 L0.75 38.55 0.6 38.25 Q0.4 38.0 0.25 38.45 L0.1 38.8 -0.3 39.05 -5.6 46.45 -5.9 48.95 -1.8 51.55 -0.4 52.4 1.35 52.4 1.9 51.9 5.25 50.35 6.7 48.55 6.35 46.45 0.95 38.9" fill="#333333" fill-rule="evenodd" stroke="none"/>
    <path d="M20.75 -27.55 L19.75 -27.55 20.15 -27.7 20.2 -27.75 20.5 -27.6 20.6 -27.8 20.65 -27.85 20.7 -27.85 20.7 -27.8 20.75 -27.55 M15.5 -27.55 L15.5 -27.5 7.95 -26.65 -4.3 -25.75 -7.4 -25.65 -11.35 -26.2 -17.75 -26.0 -20.45 -25.55 -23.7 -25.3 -24.2 -25.6 -25.95 -25.5 -25.9 -25.4 -29.0 -25.5 -29.0 -25.25 -32.55 -25.5 -42.6 -25.95 -60.0 -25.35 Q-68.4 -24.8 -71.05 -23.85 L-71.15 -24.1 -71.15 -24.8 -71.35 -27.15 -32.5 -27.15 -31.9 -27.0 -30.65 -27.15 -29.75 -27.15 -29.75 -27.25 -27.0 -27.25 -27.0 -27.2 -25.95 -27.25 -24.55 -27.25 -24.0 -27.6 -20.5 -27.7 -20.5 -27.75 -12.95 -27.75 -12.0 -27.75 -11.0 -27.75 -10.9 -27.75 1.8 -27.75 11.65 -27.75 11.65 -27.65 11.7 -27.65 12.6 -27.7 13.0 -27.75 13.1 -27.75 14.25 -27.75 14.75 -27.55 15.5 -27.55 M-75.3 -20.75 L-75.4 -20.8 -75.35 -20.85 -75.3 -20.75 M-70.65 20.4 L-70.95 20.45 -75.55 21.65 -75.7 21.9 -76.25 21.8 -76.55 21.8 -78.25 21.85 Q-79.95 21.1 -79.95 19.2 -79.95 18.3 -79.6 17.35 L-77.5 14.9 -77.5 15.1 Q-76.6 15.2 -75.55 15.8 -74.7 16.15 -73.8 16.9 L-72.8 17.85 -71.35 19.65 -71.35 20.2 Q-71.15 20.2 -70.9 20.35 L-70.85 20.4 -70.85 20.35 -70.65 20.4 M-1.8 51.55 L-1.3 48.95 -1.05 47.85 -0.4 45.2 0.5 41.55 0.8 39.85 0.85 40.45 0.95 41.6 1.25 45.95 1.45 47.95 Q1.6 50.45 1.9 51.9 L1.35 52.4 -0.4 52.4 -1.8 51.55" fill="#919191" fill-rule="evenodd" stroke="none"/>
    <path d="M-27.0 -20.55 L-27.0 -24.05 -25.95 -24.05 -25.9 -23.95 Q-25.55 -23.45 -25.0 -23.25 L-23.05 -23.25 Q-23.05 -22.65 -22.5 -22.3 L-21.5 -22.25 -17.75 -21.75 -14.5 -21.3 -13.9 -21.9 -13.75 -21.85 -9.7 -21.05 -9.65 -21.05 -9.55 -21.05 -8.25 -20.8 Q-7.9 -20.8 -7.65 -21.05 L-7.5 -21.25 -7.45 -21.25 -7.55 -21.05 -5.85 -20.35 -4.0 -19.25 -3.25 -18.65 -2.75 -18.25 -4.75 -18.55 -7.2 -19.05 -7.55 -18.3 -7.15 -17.9 -27.0 -17.9 -27.0 -20.55 M7.15 -17.9 L8.3 -18.45 9.9 -19.3 23.1 -19.9 25.35 -20.05 27.25 -20.05 27.55 -20.2 28.0 -20.2 28.0 -17.9 7.15 -17.9" fill="url(#gradient2)" fill-rule="evenodd" stroke="none"/>
    <path d="M-75.4 -20.8 Q-78.55 -18.4 -79.75 -16.8 -80.85 -15.35 -81.35 -13.4 L-85.35 -16.4 Q-84.2 -17.0 -82.8 -17.85 -79.35 -19.85 -77.8 -21.1 L-77.8 -21.0 -77.1 -21.5 Q-76.15 -21.8 -75.35 -20.95 L-75.35 -20.85 -75.4 -20.8 M74.85 -12.65 Q74.2 -13.2 73.8 -14.3 L73.35 -15.6 73.35 -16.05 73.5 -18.55 Q74.05 -19.6 75.15 -19.8 L75.3 -19.8 75.15 -19.5 Q74.35 -17.3 74.35 -15.7 74.35 -13.9 74.85 -12.65 M76.1 23.0 L75.4 23.25 75.25 23.45 Q74.4 23.1 74.1 22.3 L73.95 21.1 Q73.95 19.4 74.35 18.1 75.05 15.95 76.55 15.7 75.8 17.95 75.8 20.65 75.8 22.0 76.1 23.0 M45.8 43.55 L45.55 43.75 44.85 43.7 37.65 40.4 35.95 39.65 34.45 39.0 29.4 36.65 30.1 34.95 Q31.45 32.0 33.0 30.8 L35.15 28.95 35.35 28.8 Q37.0 31.75 41.7 38.05 L45.8 43.55 M-47.35 39.95 L-48.3 36.05 Q-48.65 33.8 -49.25 31.85 L-49.75 29.9 Q-47.1 28.5 -42.05 28.45 L-45.7 36.1 -47.35 39.95 M-78.25 21.85 L-78.8 21.85 -80.4 22.1 -80.45 22.0 -83.65 22.3 -83.05 21.45 -82.75 21.15 -82.55 20.95 -82.0 20.35 -81.6 19.85 -81.55 19.85 -80.85 18.8 -79.6 17.35 Q-79.95 18.3 -79.95 19.2 -79.95 21.1 -78.25 21.85 M0.75 38.55 L0.8 39.85 0.5 41.55 -0.4 45.2 -1.05 47.85 -1.3 48.95 -1.8 51.55 -5.9 48.95 -5.6 46.45 -0.3 39.05 0.1 38.8 0.25 38.45 Q0.4 38.0 0.6 38.25 L0.75 38.55" fill="#5f6160" fill-rule="evenodd" stroke="none"/>
    <path d="M58.8 -1.7 L71.25 -2.85 Q71.1 3.35 71.25 6.8 L71.1 13.9 Q71.1 16.65 71.6 18.7 L54.6 24.5 52.9 25.1 52.75 25.1 51.55 29.05 50.95 31.2 50.95 32.0 50.05 34.2 49.65 35.0 49.1 36.35 49.1 36.4 47.95 38.95 47.15 40.95 45.8 43.55 41.7 38.05 Q37.0 31.75 35.35 28.8 36.7 27.75 38.2 27.1 40.75 26.05 44.15 25.35 L46.8 24.7 46.75 24.5 46.45 24.4 45.3 24.25 42.0 24.25 Q37.5 24.85 34.65 26.2 L30.15 29.05 Q29.3 29.6 28.4 30.5 L26.8 32.0 25.4 33.35 24.6 34.65 20.6 35.9 5.6 40.45 4.4 39.0 2.4 36.65 1.9 36.15 Q1.35 35.85 0.8 35.65 L0.75 35.7 0.8 33.65 2.3 33.7 5.05 33.5 5.25 33.7 36.1 24.4 Q58.8 17.35 58.8 15.65 L58.7 15.2 58.8 -1.7 M76.55 15.7 L76.95 15.65 Q77.65 15.65 78.2 16.3 L78.2 15.95 78.85 16.6 Q80.25 18.0 84.9 20.85 L84.6 20.85 82.15 21.4 81.3 21.6 78.9 22.15 78.85 22.0 78.7 21.8 78.65 21.9 78.2 22.55 76.1 23.0 Q75.8 22.0 75.8 20.65 75.8 17.95 76.55 15.7" fill="url(#gradient3)" fill-rule="evenodd" stroke="none"/>
    <path d="M-71.15 9.85 L-60.35 8.9 -60.45 13.2 -60.35 15.2 Q-59.1 15.85 -58.9 17.6 L-58.75 17.55 -58.75 16.45 Q-57.45 17.6 -54.45 18.45 L-47.5 20.15 -43.9 21.1 Q-40.95 21.85 -39.9 22.5 L-36.9 23.9 -32.75 25.35 -22.5 27.7 Q-17.55 28.75 -15.55 29.45 L-7.25 32.0 0.15 33.55 0.8 33.65 0.75 35.7 0.15 35.85 -0.35 36.1 -2.35 38.05 -4.6 40.9 Q-9.85 40.15 -13.2 39.2 L-22.8 36.15 -30.3 34.2 Q-32.6 35.85 -37.0 37.85 -40.45 39.45 -46.85 42.05 L-47.0 41.55 -47.05 41.4 -47.1 41.05 -47.35 40.15 -47.35 39.95 -45.7 36.1 -42.05 28.45 -41.65 28.45 Q-33.4 28.45 -30.4 31.4 -31.1 28.75 -35.3 26.75 -40.0 24.45 -46.4 24.45 L-51.35 24.75 -55.15 26.35 -55.2 26.1 -60.0 24.15 Q-66.6 21.55 -70.65 20.4 L-70.85 20.35 -70.85 19.85 Q-70.85 18.75 -71.3 17.1 L-71.15 9.85 M-71.35 19.65 L-70.9 20.35 Q-71.15 20.2 -71.35 20.2 L-71.35 19.65" fill="url(#gradient4)" fill-rule="evenodd" stroke="none"/>
    <path d="M0.8 39.85 L0.75 38.55 0.95 38.9 0.8 39.85" fill="#fff9f9" fill-rule="evenodd" stroke="none"/>
    <path d="M0.8 39.85 L0.95 38.9 6.35 46.45 6.7 48.55 5.25 50.35 1.9 51.9 Q1.6 50.45 1.45 47.95 L1.25 45.95 0.95 41.6 0.85 40.45 0.8 39.85" fill="#a3a3a3" fill-rule="evenodd" stroke="none"/>
    <path d="M-29.0 -25.25 L-29.05 -25.0 Q-29.05 -24.45 -28.75 -24.2 L-31.1 -24.2 -31.65 -24.35 -32.3 -24.55 -32.45 -25.15 -32.55 -25.5 -29.0 -25.25" fill="url(#gradient5)" fill-rule="evenodd" stroke="none"/>
    <path d="M46.25 16.35 L2.55 30.25 -57.45 14.45 -57.45 1.1 Q-0.1 14.7 55.25 1.1 L55.25 14.5 46.25 16.35" fill="url(#gradient6)" fill-rule="evenodd" stroke="none"/>
    <path d="M6.3 -17.45 L8.55 -18.5 11.5 -19.15 47.55 -19.3 48.15 -18.65 56.8 -18.45 Q57.2 -17.65 57.1 -4.1 56.95 10.8 57.55 15.5 L32.05 24.05 Q8.8 31.75 6.35 31.75 -5.55 31.75 -29.85 24.4 L-58.75 15.25 -58.75 -18.95 -38.2 -18.95 Q-17.65 -19.0 -17.6 -19.15 L-10.5 -19.25 -5.45 -16.6 Q-2.35 -14.85 1.5 -14.3 1.7 -14.3 2.7 -14.85 L6.3 -17.45" fill="url(#gradient7)" fill-rule="evenodd" stroke="none"/>
    <path d="M6.3 -17.45 L8.55 -18.5 11.5 -19.15 47.55 -19.3 48.15 -18.65 56.8 -18.45 Q57.2 -17.65 57.1 -4.1 56.95 10.8 57.55 15.5 L32.05 24.05 Q8.8 31.75 6.35 31.75 -5.55 31.75 -29.85 24.4 L-58.75 15.25 -58.75 -18.95 -38.2 -18.95 Q-17.65 -19.0 -17.6 -19.15 L-10.5 -19.25 -5.45 -16.6 Q-2.35 -14.85 1.5 -14.3 1.7 -14.3 2.7 -14.85 L6.3 -17.45 Z" fill="none" stroke="#333333" stroke-linecap="round" stroke-linejoin="round" stroke-width="2.5"/>
  </g>
  <defs>
    <linearGradient gradientTransform="matrix(0.0232, 0.0867, -0.0511, 0.0137, 26.0, 45.95)" gradientUnits="userSpaceOnUse" id="gradient0" spreadMethod="pad" x1="-819.2" x2="819.2">
      <stop offset="0.0" stop-color="#ffffff"/>
      <stop offset="1.0" stop-color="#626262"/>
    </linearGradient>
    <linearGradient gradientTransform="matrix(0.0182, 0.0715, -0.0513, 0.013, 32.45, 28.2)" gradientUnits="userSpaceOnUse" id="gradient1" spreadMethod="pad" x1="-819.2" x2="819.2">
      <stop offset="0.0" stop-color="#ffffff"/>
      <stop offset="1.0" stop-color="#626262"/>
    </linearGradient>
    <linearGradient gradientTransform="matrix(0.0232, 0.0867, -0.0511, 0.0137, 26.0, 45.95)" gradientUnits="userSpaceOnUse" id="gradient2" spreadMethod="pad" x1="-819.2" x2="819.2">
      <stop offset="0.0" stop-color="#ffffff"/>
      <stop offset="1.0" stop-color="#434343"/>
    </linearGradient>
    <linearGradient gradientTransform="matrix(0.0182, 0.0715, -0.0513, 0.013, 32.45, 28.2)" gradientUnits="userSpaceOnUse" id="gradient3" spreadMethod="pad" x1="-819.2" x2="819.2">
      <stop offset="0.0" stop-color="#ffffff"/>
      <stop offset="1.0" stop-color="#434343"/>
    </linearGradient>
    <linearGradient gradientTransform="matrix(0.0073, 0.0286, -0.0394, 0.01, -35.6, 25.7)" gradientUnits="userSpaceOnUse" id="gradient4" spreadMethod="pad" x1="-819.2" x2="819.2">
      <stop offset="0.0" stop-color="#ffffff"/>
      <stop offset="1.0" stop-color="#434343"/>
    </linearGradient>
    <linearGradient gradientTransform="matrix(0.0108, 0.0424, -0.0284, 0.0072, -24.95, 53.95)" gradientUnits="userSpaceOnUse" id="gradient5" spreadMethod="pad" x1="-819.2" x2="819.2">
      <stop offset="0.0" stop-color="#ffffff"/>
      <stop offset="1.0" stop-color="#434343"/>
    </linearGradient>
    <radialGradient cx="0" cy="0" fx="6.4" fy="0" gradientTransform="matrix(0.1848, 0.0, 0.0, 0.0476, -19.85, -16.95)" gradientUnits="userSpaceOnUse" id="gradient6" r="819.2" spreadMethod="pad">
      <stop offset="0.4745098039215686" stop-color="#ffffff" stop-opacity="0.0"/>
      <stop offset="1.0" stop-color="#11980a" stop-opacity="0.47843137"/>
    </radialGradient>
    <radialGradient cx="0" cy="0" gradientTransform="matrix(0.2923, 0.0, 0.0, 0.0865, -4.0, 17.5)" gradientUnits="userSpaceOnUse" id="gradient7" r="819.2" spreadMethod="pad">
      <stop offset="0.37254901960784315" stop-color="#09ff12"/>
      <stop offset="0.5764705882352941" stop-color="#11980a"/>
    </radialGradient>
  </defs>
</svg>
