<?xml version="1.0" encoding="UTF-8" standalone="no"?>
<svg xmlns:ffdec="https://www.free-decompiler.com/flash" xmlns:xlink="http://www.w3.org/1999/xlink" ffdec:objectType="shape" height="30.65px" width="25.5px" xmlns="http://www.w3.org/2000/svg">
  <g transform="matrix(1.0, 0.0, 0.0, 1.0, 1.25, 1.65)">
    <path d="M20.15 12.95 L19.5 12.85 15.95 15.2 16.05 15.3 16.8 15.35 16.65 15.5 16.45 15.7 16.5 15.75 16.65 16.1 16.85 16.5 17.2 16.85 17.5 17.2 17.95 17.65 18.1 18.0 18.1 18.35 18.1 18.4 18.2 18.7 18.4 19.0 20.45 21.05 19.4 21.95 19.35 21.95 18.0 23.1 17.1 23.3 16.95 23.1 16.1 23.0 15.75 22.6 15.35 22.25 15.0 21.85 14.6 21.5 14.4 21.1 14.2 20.75 14.0 20.35 13.25 19.6 12.15 18.45 11.85 18.1 11.85 17.75 11.9 17.55 11.5 17.35 9.05 19.55 Q5.15 11.3 2.35 2.8 2.0 1.7 1.15 1.2 0.55 0.9 0.4 1.45 L0.45 1.15 Q0.65 0.0 1.7 0.6 2.2 0.85 2.35 1.5 L2.45 1.45 3.7 1.65 Q5.5 2.35 7.2 3.2 10.05 4.75 12.5 6.6 L20.15 12.95 M19.3 16.45 L19.1 16.25 19.7 16.0 19.3 16.45 M10.95 22.3 L11.05 22.1 11.25 21.75 11.95 21.4 11.85 21.75 11.85 21.9 10.95 22.3 M12.7 21.05 L12.75 21.0 12.9 20.85 13.1 21.05 13.05 21.2 12.7 21.05 M18.65 25.0 L18.7 24.95 19.1 24.6 19.2 24.55 19.05 24.75 18.65 25.0 M19.8 24.0 L19.95 23.85 20.25 23.5 20.7 23.25 20.55 23.5 19.8 24.0 M21.05 22.0 L21.05 21.95 21.05 22.0" fill="#ffffff" fill-rule="evenodd" stroke="none"/>
    <path d="M20.15 12.95 Q20.8 12.95 21.25 13.4 21.7 13.8 21.65 14.35 21.6 14.85 21.15 15.25 L20.2 15.6 20.0 15.85 19.7 16.0 19.1 16.25 19.3 16.45 19.45 16.65 19.6 17.0 19.5 17.25 19.45 17.3 19.3 17.5 19.6 18.0 19.45 18.25 18.6 18.5 18.4 18.3 18.1 18.4 18.1 18.35 18.1 18.0 17.95 17.65 17.5 17.2 17.2 16.85 16.85 16.5 16.65 16.1 16.5 15.75 16.45 15.7 16.65 15.5 16.8 15.35 16.05 15.3 15.95 15.2 19.5 12.85 20.15 12.95 M20.45 21.05 L20.9 21.35 21.05 21.95 21.05 22.0 21.25 22.0 21.6 22.35 21.45 22.7 20.95 23.1 20.7 23.25 20.25 23.5 19.95 23.85 19.8 24.0 19.2 24.55 19.1 24.6 18.7 24.95 18.65 25.0 18.6 25.05 17.75 26.5 16.7 26.0 16.45 25.75 15.6 25.0 14.0 22.85 13.25 21.35 13.1 21.05 12.9 20.85 12.75 21.0 12.7 21.05 Q12.3 21.15 12.0 21.35 L11.95 21.4 11.25 21.75 11.05 22.1 10.95 22.3 10.7 22.45 10.5 22.6 10.1 22.6 9.75 23.0 9.0 24.1 7.9 23.6 6.35 20.25 -0.1 3.0 0.4 1.6 0.4 1.45 Q0.55 0.9 1.15 1.2 2.0 1.7 2.35 2.8 5.15 11.3 9.05 19.55 L11.5 17.35 11.9 17.55 11.85 17.75 11.85 18.1 12.15 18.45 13.25 19.6 14.0 20.35 14.2 20.75 14.4 21.1 14.6 21.5 15.0 21.85 15.35 22.25 15.75 22.6 16.1 23.0 16.95 23.1 17.1 23.3 18.0 23.1 19.35 21.95 19.4 21.95 20.45 21.05" fill="#ffcc99" fill-rule="evenodd" stroke="none"/>
    <path d="M18.1 18.4 L18.4 18.3 18.6 18.5 19.45 18.25 19.6 18.0 19.3 17.5 19.45 17.3 19.5 17.25 23.6 21.5 23.5 21.8 23.2 22.1 20.55 20.3 18.4 18.65 18.1 18.4 M11.95 21.4 L12.0 21.35 Q12.3 21.15 12.7 21.05 L13.05 21.2 13.25 21.35 14.0 22.85 16.45 26.65 16.4 27.75 Q15.8 28.15 15.4 27.75 L14.2 26.4 Q12.55 24.4 11.85 21.9 L11.85 21.75 11.95 21.4" fill="#330000" fill-rule="evenodd" stroke="none"/>
    <path d="M0.75 -1.5 L1.1 -1.15 1.2 -1.05 3.55 -0.2 Q12.15 4.25 19.8 10.15 L24.1 13.85 24.25 14.6 19.4 18.15 23.3 20.9 24.2 22.2 Q23.3 24.2 21.45 25.35 L19.9 26.65 18.55 27.7 18.5 27.85 17.95 28.2 16.75 29.0 15.15 28.85 14.85 28.6 14.85 28.5 14.6 28.5 14.25 28.1 13.85 27.75 13.8 27.4 13.6 27.0 13.25 26.6 12.85 26.25 12.6 25.5 12.2 24.75 12.0 24.35 11.65 23.95 11.35 23.6 11.35 23.5 11.25 23.5 6.9 27.55 6.4 26.5 4.7 23.95 1.25 14.0 1.25 13.85 1.25 13.5 1.1 13.1 1.0 12.75 0.85 12.35 0.75 12.0 0.75 11.6 0.75 11.25 0.7 10.85 0.6 10.5 0.45 10.1 0.3 9.7 0.25 9.35 0.2 8.6 Q0.15 7.45 -0.25 6.35 L-0.75 4.85 -0.75 3.75 -0.75 2.6 -0.75 1.85 -0.9 1.5 -1.0 1.1 -1.15 0.75 -1.25 0.35 -1.25 -0.65 -1.0 -0.7 -0.95 -0.85 -0.65 -1.25 -0.35 -1.45 -0.05 -1.55 0.0 -1.65 0.75 -1.5 M17.45 11.75 L15.45 10.25 9.9 6.05 8.2 4.9 Q4.5 2.5 0.55 1.15 L1.05 1.65 1.05 2.3 1.1 2.35 1.2 2.7 1.5 3.1 1.6 3.85 1.6 4.6 1.6 5.0 1.7 5.3 2.0 5.75 2.1 6.1 2.1 6.5 2.1 6.85 2.2 7.2 2.5 7.6 2.6 8.0 2.6 8.35 2.6 8.75 2.65 9.1 2.85 9.5 3.1 9.85 3.1 10.25 3.1 10.6 3.3 10.95 3.55 11.4 3.6 11.75 3.65 12.1 3.8 12.45 4.1 12.85 4.1 13.25 4.1 13.6 4.1 14.0 4.25 14.35 4.45 14.75 4.6 15.1 4.75 15.5 5.05 15.9 5.1 16.25 5.15 16.6 5.3 16.95 5.6 17.35 5.6 17.75 5.6 18.1 5.85 18.5 6.05 18.9 6.1 19.25 6.5 19.6 6.6 20.0 6.6 20.3 6.7 20.45 7.0 20.75 7.1 21.1 7.25 21.5 7.25 21.75 7.4 22.1 7.75 22.5 7.9 22.55 7.95 22.65 8.1 23.0 8.05 23.15 8.1 23.3 8.55 22.7 9.0 22.75 9.6 22.5 10.1 22.1 10.5 21.75 10.85 21.35 11.5 21.1 11.75 21.0 12.0 20.75 12.35 20.35 12.45 20.3 12.85 20.7 Q14.8 22.75 16.15 25.85 L19.9 23.55 20.6 21.55 19.75 21.0 19.45 20.25 18.7 18.75 17.85 17.6 17.8 17.45 18.75 16.5 19.85 15.35 20.1 14.95 20.2 14.6 20.25 14.5 20.55 14.4 Q19.65 13.15 17.45 11.75" fill="#330000" fill-rule="evenodd" stroke="none"/>
  </g>
</svg>
