<?xml version="1.0" encoding="UTF-8" standalone="no"?>
<svg xmlns:ffdec="https://www.free-decompiler.com/flash" xmlns:xlink="http://www.w3.org/1999/xlink" ffdec:objectType="shape" height="3.6px" width="3.9px" xmlns="http://www.w3.org/2000/svg">
  <g transform="matrix(1.0, 0.0, 0.0, 1.0, 1.95, 1.8)">
    <path d="M1.25 -1.55 L1.6 -1.4 1.8 -1.15 1.95 -0.95 1.95 -0.8 1.95 -0.35 1.95 -0.15 1.95 0.05 1.8 0.7 1.65 0.8 1.55 0.9 1.5 0.95 1.3 1.15 1.3 1.2 1.15 1.4 0.9 1.6 0.7 1.65 0.5 1.75 0.4 1.75 0.15 1.8 -0.15 1.75 -0.65 1.8 -1.1 1.65 -1.3 1.45 -1.55 1.25 -1.65 1.0 -1.65 0.85 -1.95 0.55 -1.95 0.35 -1.95 0.15 -1.95 -0.05 -1.95 -0.25 -1.9 -0.5 -1.8 -0.65 -1.7 -0.9 -1.65 -1.1 -1.45 -1.3 -1.25 -1.4 -0.9 -1.55 -0.45 -1.75 -0.4 -1.8 -0.15 -1.8 0.4 -1.8 0.7 -1.8 1.0 -1.65 1.25 -1.55" fill="#4a4a4a" fill-rule="evenodd" stroke="none"/>
  </g>
</svg>
