<?xml version="1.0" encoding="UTF-8" standalone="no"?>
<svg xmlns:ffdec="https://www.free-decompiler.com/flash" xmlns:xlink="http://www.w3.org/1999/xlink" ffdec:objectType="shape" height="73.3px" width="84.4px" xmlns="http://www.w3.org/2000/svg">
  <g transform="matrix(1.0, 0.0, 0.0, 1.0, 87.55, -4.05)">
    <path d="M-5.55 4.4 L-5.2 4.05 -6.45 6.2 -8.4 9.3 -10.8 12.35 -11.35 13.0 -11.35 13.2 -11.15 13.0 -8.95 10.85 Q-5.1 6.6 -5.1 7.95 L-5.85 9.3 -6.95 10.85 -9.2 13.75 -10.75 15.75 -10.3 15.4 -4.35 10.15 Q-3.15 9.15 -3.15 10.0 L-5.35 12.6 -8.75 16.35 -10.2 17.95 -11.5 19.45 -11.55 22.45 -13.4 23.5 -16.5 26.25 Q-17.85 27.35 -17.85 27.75 -17.85 28.4 -19.65 29.9 L-23.6 33.15 -23.9 33.45 -32.6 38.25 -35.2 38.45 -42.7 39.1 -46.35 39.45 -49.65 39.8 -51.5 40.15 -50.9 39.65 -49.55 38.9 -47.25 37.45 -47.2 37.4 -50.05 38.1 -52.6 38.7 Q-53.25 38.7 -53.1 38.3 -53.1 37.8 -49.15 35.75 L-49.05 35.65 -55.95 37.25 -59.05 37.95 -61.85 38.75 -61.95 38.75 -61.35 38.45 -58.45 37.35 -52.8 35.2 -49.25 33.65 -47.3 33.15 -45.05 32.35 Q-43.75 31.7 -43.3 31.8 L-20.8 19.85 -20.8 19.75 -21.4 13.7 -17.65 8.25 -17.5 8.25 Q-13.2 8.25 -11.25 7.45 L-11.3 9.35 -10.95 9.05 -8.7 7.25 -7.95 6.6 -5.55 4.4 M-7.6 6.95 L-7.6 6.9 -7.6 6.95 M-6.85 9.55 L-6.85 9.5 -6.85 9.55 M-30.5 41.95 Q-28.8 44.95 -28.65 45.95 -28.0 46.85 -28.0 48.35 -28.0 50.2 -30.2 53.15 -32.35 56.05 -34.65 57.35 L-36.05 58.4 -37.75 59.65 -41.4 61.8 -49.2 65.45 -57.95 69.05 Q-62.7 70.9 -68.25 72.5 -69.2 72.75 -72.1 73.75 L-75.95 74.9 Q-77.2 75.15 -80.1 76.35 -82.7 77.35 -83.35 77.35 -84.05 77.35 -84.05 76.65 -84.05 76.1 -82.85 75.0 L-81.2 73.65 -80.9 73.4 -81.05 73.4 Q-85.55 75.2 -86.7 75.2 -87.55 75.2 -87.55 74.7 L-85.9 73.2 -84.05 72.0 -83.05 71.3 Q-82.25 70.15 -79.05 67.95 -76.85 66.4 -74.2 64.8 -67.15 60.6 -58.8 59.2 L-55.6 58.5 -52.1 57.6 -49.0 56.6 -46.1 55.35 Q-43.95 54.5 -40.45 51.9 L-38.2 49.6 -38.1 49.5 -37.45 48.15 -36.7 46.25 -36.4 44.55 -34.45 46.9 -33.75 43.35 -31.9 46.55 Q-31.05 42.85 -31.8 40.15 -31.35 40.5 -30.5 41.95 M-49.3 39.7 L-49.35 39.65 -49.45 39.7 -49.3 39.7" fill="#ffffff" fill-opacity="0.29803923" fill-rule="evenodd" stroke="none"/>
  </g>
</svg>
