<?xml version="1.0" encoding="UTF-8" standalone="no"?>
<svg xmlns:ffdec="https://www.free-decompiler.com/flash" xmlns:xlink="http://www.w3.org/1999/xlink" ffdec:objectType="shape" height="73.6px" width="84.85px" xmlns="http://www.w3.org/2000/svg">
  <g transform="matrix(1.0, 0.0, 0.0, 1.0, 86.55, -1.55)">
    <path d="M-2.75 1.85 L-4.4 4.3 Q-5.1 5.6 -6.05 6.7 L-9.8 11.5 Q-7.9 10.2 -7.6 10.2 -7.15 10.2 -7.15 10.65 -7.15 11.05 -9.35 14.0 L-9.35 14.05 -6.0 11.25 Q-2.45 8.6 -2.1 8.6 -1.85 8.6 -1.75 8.8 L-1.7 9.0 -5.05 12.7 -6.7 14.55 -8.25 16.35 -11.4 20.05 -11.75 20.95 -11.7 21.9 Q-11.65 22.3 -12.1 22.8 L-13.0 23.7 -13.7 24.65 Q-14.15 25.2 -14.7 25.55 L-15.75 26.5 -16.4 26.95 -16.9 27.35 -18.15 29.15 -19.85 31.0 -25.25 35.35 Q-28.55 37.9 -29.75 37.9 L-30.1 37.75 -30.2 37.65 -31.15 37.8 -34.5 38.3 -38.05 38.75 -40.0 39.0 -42.65 39.2 -45.7 39.05 -45.65 38.95 -47.3 39.35 -49.3 39.7 Q-50.3 39.7 -51.4 40.25 L-51.7 39.95 Q-51.7 39.5 -48.05 37.8 L-52.15 38.8 -54.6 39.3 -56.4 40.0 -56.7 39.7 Q-56.7 39.45 -53.6 37.9 L-50.4 36.05 Q-59.3 38.6 -61.4 38.6 -62.05 38.6 -61.9 38.3 -61.9 37.95 -61.1 37.7 L-59.6 37.4 -56.25 36.5 -50.5 34.3 -39.95 29.85 -39.15 29.4 Q-38.0 28.6 -36.15 27.85 L-33.4 26.45 -30.8 25.0 Q-27.05 22.85 -25.6 22.05 L-23.0 20.55 -21.55 19.8 Q-20.85 19.35 -20.85 19.0 L-21.1 17.55 -21.15 16.15 Q-21.55 14.6 -21.55 13.3 -21.55 12.55 -20.9 12.0 L-19.35 10.4 -18.2 8.95 -18.15 8.9 -17.0 8.65 -16.9 8.65 -16.95 8.7 -16.65 8.65 -15.1 8.4 -11.15 8.2 Q-10.65 8.2 -10.55 8.6 L-9.25 7.25 -6.95 5.25 -5.9 4.2 -4.95 3.2 -3.9 2.15 Q-3.55 1.65 -3.15 1.55 -2.75 1.45 -2.75 1.85 M-49.45 39.2 L-49.45 39.15 -49.55 39.2 -49.45 39.2 M-36.3 46.35 L-36.3 46.05 -36.3 45.45 -36.0 45.5 Q-34.95 45.75 -34.35 47.3 L-34.35 47.35 -34.3 47.5 -34.05 45.9 -34.05 45.85 -33.6 43.8 -31.9 46.35 -31.75 46.9 -31.65 46.8 -31.6 46.75 -31.3 45.7 -30.35 42.85 -28.95 46.1 Q-28.2 48.05 -28.2 49.0 -28.2 52.3 -34.75 57.35 L-40.25 60.75 -43.25 62.5 Q-45.15 63.5 -47.7 64.5 L-62.45 69.8 -70.5 72.55 -73.25 73.2 -76.95 73.8 -82.1 75.15 Q-82.9 75.15 -82.8 74.55 -82.8 74.05 -81.1 73.0 L-81.05 72.9 -85.85 74.55 Q-86.6 74.55 -86.55 74.0 -86.55 73.75 -83.4 71.45 -79.7 68.8 -75.6 66.35 -71.9 63.8 -69.65 62.65 -65.85 60.7 -60.15 60.05 L-53.85 58.8 -50.0 57.05 -43.25 54.05 Q-41.2 53.0 -38.85 50.1 L-37.85 48.85 -37.3 48.6 -37.05 48.35 -36.65 47.6 -36.3 46.35 M-81.6 71.85 L-81.65 71.9 -81.55 71.9 -81.6 71.85" fill="#ffffff" fill-opacity="0.29803923" fill-rule="evenodd" stroke="none"/>
  </g>
</svg>
