<?xml version="1.0" encoding="UTF-8" standalone="no"?>
<svg xmlns:ffdec="https://www.free-decompiler.com/flash" xmlns:xlink="http://www.w3.org/1999/xlink" ffdec:objectType="shape" height="51.0px" width="22.4px" xmlns="http://www.w3.org/2000/svg">
  <g transform="matrix(1.0, 0.0, 0.0, 1.0, 7.3, 20.55)">
    <path d="M4.2 -14.25 L4.05 -14.3 4.25 -14.55 4.2 -14.25 M14.8 17.15 L14.95 17.1 15.1 17.6 14.8 17.15 M1.3 26.7 L1.4 26.65 1.4 26.9 1.3 26.7" fill="url(#gradient0)" fill-rule="evenodd" stroke="none"/>
    <path d="M1.3 26.7 L1.4 26.65 1.3 26.7" fill="url(#gradient1)" fill-rule="evenodd" stroke="none"/>
    <path d="M4.2 -14.25 L4.3 -11.8 7.2 -20.55 7.3 -14.95 7.0 -10.6 7.0 -10.3 7.05 -10.3 9.55 -16.45 9.85 -11.85 9.85 -11.8 12.25 -19.8 12.35 -18.3 11.2 -13.15 10.5 -8.0 Q9.95 -4.45 9.95 -3.3 L10.1 -1.6 10.45 0.75 10.85 2.8 10.9 2.95 13.4 11.7 14.95 17.1 14.8 17.15 Q10.9 11.0 9.9 7.4 L10.25 9.4 10.75 12.95 10.75 13.75 10.65 13.75 Q7.55 5.75 6.35 4.95 L6.35 5.7 9.25 20.75 9.25 21.65 9.05 21.6 Q8.25 20.0 6.45 14.2 L4.4 7.5 4.4 8.5 Q4.4 10.4 5.1 14.05 L5.0 14.05 3.5 10.5 Q2.2 7.7 1.85 7.45 L1.8 7.4 1.8 7.5 3.95 17.25 Q5.4 23.0 7.9 30.45 L7.8 30.45 3.45 18.95 0.9 11.7 2.25 16.35 2.15 16.35 -0.75 9.85 -3.25 3.65 -3.35 3.45 -3.35 3.7 Q-2.5 12.3 -0.8 16.1 L-2.3 13.6 -3.9 10.65 -3.95 10.45 -4.05 10.45 -3.9 10.65 Q-3.75 12.8 -1.6 18.75 L1.4 26.65 1.3 26.7 -3.05 17.1 Q-5.8 10.75 -6.3 7.2 L-7.0 4.0 -7.3 0.05 -7.2 -1.9 -7.15 -2.1 -7.15 -2.4 -6.65 -4.25 -6.3 -5.2 -6.05 -6.2 -5.8 -7.5 -5.25 -9.45 -5.1 -9.95 -4.15 -12.85 -4.0 -13.25 -3.9 -13.25 -3.85 -12.8 -3.7 -12.5 -3.7 -12.3 -2.1 -15.1 0.65 -19.5 Q0.35 -18.95 -0.2 -16.3 L-1.15 -11.6 -1.15 -10.9 -1.1 -10.9 -0.4 -13.2 0.8 -15.9 Q0.45 -12.6 0.45 -10.6 L0.75 -6.9 0.8 -6.8 0.85 -6.8 Q1.4 -10.4 4.05 -14.3 L4.2 -14.25" fill="url(#gradient2)" fill-rule="evenodd" stroke="none"/>
  </g>
  <defs>
    <linearGradient gradientTransform="matrix(1.0, 0.0, 0.0, 1.0, 0.9, 6.75)" gradientUnits="userSpaceOnUse" id="gradient0" spreadMethod="pad" x1="-819.2" x2="819.2">
      <stop offset="0.0" stop-color="#d4dfd9" stop-opacity="0.39215687"/>
      <stop offset="0.47843137254901963" stop-color="#ffffff"/>
      <stop offset="1.0" stop-color="#e7ece8" stop-opacity="0.43137255"/>
    </linearGradient>
    <linearGradient gradientTransform="matrix(0.0, 0.0335, -0.0138, 0.0, 1.5, 5.6)" gradientUnits="userSpaceOnUse" id="gradient1" spreadMethod="pad" x1="-819.2" x2="819.2">
      <stop offset="0.0" stop-color="#d4dfd9" stop-opacity="0.39215687"/>
      <stop offset="0.47843137254901963" stop-color="#ffffff"/>
      <stop offset="1.0" stop-color="#e7ece8" stop-opacity="0.43137255"/>
    </linearGradient>
    <linearGradient gradientTransform="matrix(0.0, 0.0247, -0.0138, 0.0, 1.25, 9.5)" gradientUnits="userSpaceOnUse" id="gradient2" spreadMethod="pad" x1="-819.2" x2="819.2">
      <stop offset="0.0" stop-color="#d4dfd9" stop-opacity="0.39215687"/>
      <stop offset="0.47843137254901963" stop-color="#ffffff"/>
      <stop offset="1.0" stop-color="#e7ece8" stop-opacity="0.43137255"/>
    </linearGradient>
  </defs>
</svg>
