<?xml version="1.0" encoding="UTF-8" standalone="no"?>
<svg xmlns:ffdec="https://www.free-decompiler.com/flash" xmlns:xlink="http://www.w3.org/1999/xlink" ffdec:objectType="shape" height="25.4px" width="8.45px" xmlns="http://www.w3.org/2000/svg">
  <g transform="matrix(1.0, 0.0, 0.0, 1.0, 0.3, -41.1)">
    <path d="M3.05 41.1 Q3.85 41.1 4.5 42.4 L5.1 44.0 Q5.35 44.8 5.95 45.55 L6.95 46.95 7.7 49.7 8.1 52.8 Q8.3 55.4 7.25 55.4 6.6 55.4 6.25 54.65 L5.85 53.55 5.6 55.45 5.75 55.85 5.9 56.25 5.65 57.0 Q5.4 57.55 5.4 58.05 L5.15 58.6 4.85 58.95 5.1 59.75 4.5 61.3 3.6 63.3 3.55 64.9 Q3.25 66.5 2.3 66.5 0.75 66.5 0.05 65.4 L-0.3 64.25 Q-0.3 63.65 0.75 61.4 1.7 59.4 1.95 59.1 L0.65 57.65 Q0.0 56.75 0.0 56.25 L0.2 55.0 Q0.4 54.55 1.35 53.55 L1.9 52.15 2.3 51.65 1.25 50.55 Q1.1 50.25 1.1 49.05 1.1 46.5 2.5 46.45 L2.65 46.45 2.45 45.95 1.95 42.3 Q1.95 41.1 3.05 41.1" fill="#ffffff" fill-opacity="0.29803923" fill-rule="evenodd" stroke="none"/>
  </g>
</svg>
