<?xml version="1.0" encoding="UTF-8" standalone="no"?>
<svg xmlns:ffdec="https://www.free-decompiler.com/flash" xmlns:xlink="http://www.w3.org/1999/xlink" ffdec:objectType="shape" height="49.2px" width="21.1px" xmlns="http://www.w3.org/2000/svg">
  <g transform="matrix(1.0, 0.0, 0.0, 1.0, 6.95, 20.85)">
    <path d="M11.55 -14.3 Q12.8 -16.65 13.45 -16.85 L11.25 -10.65 Q9.4 -5.15 9.4 -2.9 9.4 -0.45 14.15 17.95 L10.6 10.65 Q10.6 12.4 11.05 15.85 11.6 20.2 12.0 21.45 L11.95 21.45 Q10.85 19.05 7.05 7.3 L7.45 10.9 8.45 17.6 9.0 21.15 5.2 10.6 6.3 16.55 8.2 24.7 4.8 17.15 Q2.85 12.5 2.15 10.15 L2.65 14.15 Q3.15 17.75 6.4 26.55 L6.75 27.45 -1.65 9.0 -0.15 15.65 1.2 20.95 -0.8 18.4 1.75 28.35 Q-1.05 23.45 -3.8 15.1 -6.95 5.35 -6.95 -0.85 L-6.85 -2.4 -6.8 -3.25 -6.8 -3.4 Q-6.7 -5.7 -3.8 -11.5 -1.15 -16.8 1.6 -20.85 L0.0 -15.7 Q-1.5 -10.45 -1.15 -9.2 L3.55 -18.9 3.65 -18.9 1.9 -11.25 1.95 -11.3 4.3 -15.8 4.45 -11.4 4.55 -11.4 7.8 -19.15 7.9 -19.15 7.9 -18.4 7.5 -12.25 7.5 -10.65 7.6 -10.65 Q7.55 -10.85 8.45 -12.45 L9.5 -14.45 9.65 -10.65 11.55 -14.3" fill="url(#gradient0)" fill-rule="evenodd" stroke="none"/>
  </g>
  <defs>
    <linearGradient gradientTransform="matrix(0.0, 0.0247, -0.0138, 0.0, 1.25, 9.5)" gradientUnits="userSpaceOnUse" id="gradient0" spreadMethod="pad" x1="-819.2" x2="819.2">
      <stop offset="0.0" stop-color="#d4dfd9" stop-opacity="0.39215687"/>
      <stop offset="0.47843137254901963" stop-color="#ffffff"/>
      <stop offset="1.0" stop-color="#e7ece8" stop-opacity="0.43137255"/>
    </linearGradient>
  </defs>
</svg>
