<?xml version="1.0" encoding="UTF-8" standalone="no"?>
<svg xmlns:ffdec="https://www.free-decompiler.com/flash" xmlns:xlink="http://www.w3.org/1999/xlink" ffdec:objectType="shape" height="10.85px" width="26.2px" xmlns="http://www.w3.org/2000/svg">
  <g transform="matrix(1.0, 0.0, 0.0, 1.0, 9.95, -40.05)">
    <path d="M5.8 41.85 Q7.1 41.3 8.1 42.45 L8.35 42.4 Q8.4 41.95 8.75 41.5 9.35 40.8 9.6 41.6 L9.5 42.05 9.2 42.4 9.35 42.4 9.95 41.85 10.4 41.85 10.4 41.75 10.45 41.25 10.45 41.2 Q10.2 40.4 11.05 40.1 11.95 39.9 12.2 40.75 L12.15 41.2 11.95 41.55 12.0 41.6 11.85 41.95 11.4 42.3 11.25 42.35 11.65 42.6 11.8 42.1 Q12.25 41.45 12.9 41.6 13.4 41.7 13.5 42.05 13.6 42.3 13.3 42.55 L12.75 43.25 12.7 43.7 13.1 43.4 Q13.75 43.0 13.95 43.5 L13.95 44.05 13.75 44.55 14.1 45.1 14.15 45.45 Q14.1 45.95 13.55 46.15 L13.9 46.4 14.25 46.4 14.25 46.0 Q14.3 45.45 14.55 45.25 L14.95 45.65 15.05 46.25 15.0 46.5 15.45 46.4 15.55 46.65 15.55 46.85 15.2 47.1 14.7 47.1 Q15.7 47.45 15.9 48.1 L15.85 48.9 16.2 49.2 16.25 49.45 16.1 49.6 16.2 49.8 Q16.5 50.55 15.5 50.8 L14.0 50.35 13.8 50.25 13.75 50.25 13.75 50.3 13.45 50.9 Q12.25 50.55 12.15 50.1 L12.2 49.95 11.2 50.35 Q10.5 50.55 9.65 49.95 L8.3 49.55 7.3 49.6 5.75 49.15 5.55 48.8 5.3 48.75 5.15 48.7 4.5 48.85 2.8 49.05 1.55 48.75 1.0 48.4 -1.6 49.05 -5.55 49.7 -8.75 49.2 Q-9.55 48.7 -9.55 47.9 L-9.5 47.4 -9.05 46.85 -9.05 46.8 -9.9 46.2 -9.95 45.55 Q-9.95 43.9 -9.65 43.65 L-9.4 43.5 Q-9.3 43.4 -9.35 43.3 L-9.25 42.85 Q-9.05 42.15 -8.55 42.15 L-8.05 42.35 -7.7 42.65 -6.75 43.1 -5.15 44.15 Q-4.65 43.85 -4.05 43.85 L-3.6 43.9 -2.75 43.55 Q-2.05 43.55 -1.6 43.95 L-0.6 44.15 1.3 44.0 3.35 43.3 3.55 42.95 4.1 42.5 4.75 42.15 Q5.3 41.75 5.7 41.8 L5.8 41.85 M2.3 48.15 Q2.9 48.15 2.9 47.95 L2.95 47.75 2.1 48.0 2.3 48.15 M12.35 49.75 L12.65 49.65 12.5 49.5 12.35 49.75 M14.55 48.05 L14.1 48.05 14.05 48.4 Q14.25 48.25 14.65 48.2 L14.55 48.05 M13.9 48.85 L13.9 48.75 13.8 48.9 14.15 49.6 15.05 49.5 15.0 49.45 14.4 49.25 13.9 48.85 M6.65 46.4 L6.65 46.3 6.1 46.45 6.65 46.4 M-6.2 44.55 L-7.15 43.9 -7.25 43.85 -7.2 43.9 -6.95 44.15 -6.55 44.5 Q-6.1 44.65 -5.9 44.85 L-5.85 44.75 -6.2 44.55 M-7.2 45.3 L-7.6 45.55 -7.75 46.0 -7.8 46.05 -7.4 45.7 -7.15 45.35 -7.2 45.3 M-6.15 48.65 L-5.9 48.65 -5.95 48.6 -6.15 48.65" fill="#ffffff" fill-rule="evenodd" stroke="none"/>
  </g>
</svg>
