<?xml version="1.0" encoding="UTF-8" standalone="no"?>
<svg xmlns:ffdec="https://www.free-decompiler.com/flash" xmlns:xlink="http://www.w3.org/1999/xlink" ffdec:objectType="shape" height="19.35px" width="26.2px" xmlns="http://www.w3.org/2000/svg">
  <g transform="matrix(1.0, 0.0, 0.0, 1.0, 10.8, -31.35)">
    <path d="M7.95 38.8 Q7.9 38.55 8.15 38.45 L8.25 38.6 8.2 38.75 7.95 38.8 M8.05 37.05 L7.85 36.8 7.8 36.55 8.0 36.4 Q8.3 36.35 8.4 36.65 L8.45 36.95 8.05 37.05 M8.5 31.5 L8.5 31.75 8.2 32.1 7.9 32.05 7.85 31.5 Q8.3 31.2 8.5 31.5 M9.15 39.3 Q9.3 39.05 9.6 39.2 10.45 38.95 10.7 39.75 L10.75 40.2 Q11.15 40.0 11.35 40.65 L11.4 41.05 11.2 41.4 11.4 41.75 11.35 42.45 11.55 42.75 11.85 42.55 12.05 42.3 12.65 43.0 12.75 43.4 Q12.75 43.85 12.4 43.95 L12.15 43.95 12.05 43.85 12.0 43.75 12.0 43.8 12.65 45.05 12.8 45.35 Q13.7 45.25 13.95 46.2 L14.15 46.8 14.1 46.9 14.4 46.95 14.8 47.45 15.4 48.55 15.25 49.15 14.7 49.85 13.6 49.9 12.85 49.55 Q13.1 50.4 12.15 50.65 L10.8 50.45 9.45 50.15 8.3 50.1 8.15 49.25 6.65 49.4 Q6.1 49.4 5.65 48.85 L5.25 48.15 5.15 48.75 Q5.15 49.8 3.75 49.8 L1.05 49.4 Q0.85 49.4 0.25 49.9 L-0.7 50.4 -1.55 50.1 -1.95 49.8 -3.2 49.55 -3.8 49.35 Q-5.3 50.1 -6.3 50.1 -7.5 50.1 -7.95 49.4 L-8.25 48.5 Q-10.05 48.6 -10.05 47.45 -10.05 46.85 -9.55 46.6 L-9.35 46.55 -9.3 46.1 Q-9.3 45.95 -10.05 45.4 L-10.8 44.45 Q-10.8 43.75 -10.5 43.55 L-8.9 43.4 -7.7 43.1 Q-6.8 43.1 -6.45 43.95 L-6.3 44.8 -6.3 44.95 -4.55 44.4 -3.45 44.65 -2.9 45.15 -2.7 44.2 Q-2.45 43.5 -1.5 43.5 -0.55 43.5 -0.45 44.55 -0.3 45.6 0.75 45.6 1.7 45.6 1.75 45.15 L1.65 44.4 Q1.95 43.65 3.5 42.9 L4.55 42.1 Q4.8 41.85 5.25 41.75 L5.6 41.6 Q6.1 41.45 6.4 41.75 6.4 41.25 6.95 41.1 L6.9 40.95 7.35 40.45 7.65 40.8 7.7 40.9 7.9 40.95 8.0 40.9 8.5 40.85 9.1 41.0 9.35 40.85 9.3 40.8 9.1 40.55 9.05 40.45 9.0 40.25 Q8.85 39.8 9.1 39.5 L9.15 39.3 M7.25 38.55 L7.3 38.85 Q7.3 39.3 6.85 39.4 6.45 39.5 6.35 39.2 6.4 38.75 7.25 38.55 M5.7 39.45 L5.75 39.75 5.3 39.85 5.05 39.9 4.95 39.65 4.9 39.35 5.5 39.25 5.7 39.45 M9.75 47.95 L9.55 48.1 9.7 48.2 10.0 48.45 9.75 47.95 M12.9 49.2 L14.0 49.2 13.6 48.7 12.9 49.2" fill="#ffffff" fill-rule="evenodd" stroke="none"/>
  </g>
</svg>
