<?xml version="1.0" encoding="UTF-8" standalone="no"?>
<svg xmlns:ffdec="https://www.free-decompiler.com/flash" xmlns:xlink="http://www.w3.org/1999/xlink" ffdec:objectType="shape" height="23.45px" width="44.75px" xmlns="http://www.w3.org/2000/svg">
  <g transform="matrix(1.0, 0.0, 0.0, 1.0, 22.55, 10.7)">
    <path d="M8.05 -6.65 Q10.05 -5.0 11.7 -4.05 13.35 -3.05 18.3 -2.6 22.2 -2.2 22.2 -0.8 22.2 0.1 19.45 1.8 L16.65 3.55 Q16.65 4.15 18.2 7.5 19.7 10.85 19.7 11.55 L19.4 12.3 Q19.05 12.75 18.35 12.75 L14.15 12.15 9.5 10.85 Q8.5 10.4 6.85 9.35 L4.65 7.8 Q3.25 6.1 1.65 4.7 -1.45 1.95 -3.9 1.95 -5.45 1.95 -8.85 4.3 -12.3 6.6 -17.15 6.6 -19.0 6.6 -20.35 6.05 L-20.9 5.8 -21.35 5.85 Q-22.3 5.85 -22.5 4.2 L-22.5 2.55 -22.35 -1.8 Q-22.35 -3.45 -22.05 -3.95 -21.35 -5.2 -20.6 -4.5 L-20.55 -4.45 -19.45 -4.55 Q-16.25 -4.5 -14.25 -6.0 L-13.5 -6.65 -11.55 -8.0 Q-9.15 -9.35 -7.1 -9.9 -5.55 -10.3 -5.3 -10.7 L0.5 -10.4 2.8 -9.9 5.1 -9.05 8.05 -6.65 M-0.45 0.4 L0.65 1.1 Q1.1 1.15 1.95 1.6 L2.15 1.7 Q2.5 2.35 3.8 3.6 L6.05 5.45 7.4 6.5 Q8.25 7.2 9.15 7.55 L11.05 8.5 Q12.65 9.2 13.8 9.25 L14.45 9.15 14.7 9.25 15.25 9.15 15.35 9.45 15.8 9.55 16.25 9.5 16.2 9.4 15.85 8.25 15.25 7.2 Q13.15 3.65 13.15 2.8 L13.35 2.1 Q13.6 1.75 14.0 2.1 L15.95 0.75 17.0 -0.05 16.15 -0.15 15.75 -0.1 15.5 -0.15 14.95 -0.35 14.6 -0.4 Q12.5 -0.6 11.85 -0.95 10.65 -1.15 9.6 -1.75 L8.95 -2.15 8.75 -2.2 8.75 -2.25 7.5 -3.05 Q6.6 -3.55 4.85 -5.05 L3.2 -5.85 2.85 -6.4 2.65 -6.6 2.1 -6.85 0.35 -7.35 -0.95 -7.5 -1.1 -7.5 Q-4.05 -7.5 -7.2 -6.2 L-11.1 -4.25 Q-11.25 -4.1 -12.1 -3.65 L-14.25 -2.65 Q-16.15 -1.75 -17.4 -1.4 L-17.75 -1.3 -19.0 -1.1 -19.9 -1.15 -19.95 -1.15 -20.1 -0.6 -20.1 -0.5 -20.25 1.5 -20.2 1.8 -20.15 2.8 -19.9 2.95 -19.9 3.35 -17.8 3.75 -17.75 3.75 -16.6 3.65 -13.55 3.3 Q-11.1 2.75 -10.05 2.1 L-7.4 0.4 -6.75 0.05 -6.25 -0.15 -5.65 -0.4 -4.85 -0.55 -4.75 -0.6 -2.8 -0.4 -1.15 0.05 -0.45 0.4" fill="#322c12" fill-rule="evenodd" stroke="none"/>
    <path d="M2.1 -6.85 L2.25 -5.3 2.0 -3.65 Q1.65 -2.35 1.15 -2.35 0.35 -2.35 0.35 -7.15 L0.35 -7.35 2.1 -6.85 M-0.95 -7.5 L-0.65 -2.75 -0.6 -2.45 -0.5 0.0 -0.45 0.4 -1.15 0.05 -2.8 -0.4 -4.75 -0.6 -4.85 -0.55 -5.65 -0.4 -6.25 -0.15 -6.75 0.05 -7.4 0.4 -10.05 2.1 Q-11.1 2.75 -13.55 3.3 L-16.6 3.65 -17.75 3.75 -17.8 3.75 -19.9 3.35 -19.9 2.95 -20.15 2.8 -20.2 1.8 -20.25 1.5 -20.1 -0.5 -20.1 -0.6 -19.95 -1.15 -19.9 -1.15 -19.0 -1.1 -17.75 -1.3 -17.4 -1.4 Q-16.15 -1.75 -14.25 -2.65 L-12.1 -3.65 Q-11.25 -4.1 -11.1 -4.25 L-7.2 -6.2 Q-4.05 -7.5 -1.1 -7.5 L-0.95 -7.5" fill="#e8ede6" fill-rule="evenodd" stroke="none"/>
    <path d="M2.1 -6.85 L2.65 -6.6 2.85 -6.4 3.2 -5.85 4.85 -5.05 Q6.6 -3.55 7.5 -3.05 L8.75 -2.25 8.75 -2.2 8.95 -2.15 9.6 -1.75 Q10.65 -1.15 11.85 -0.95 12.5 -0.6 14.6 -0.4 L14.95 -0.35 15.5 -0.15 15.75 -0.1 16.15 -0.15 17.0 -0.05 15.95 0.75 14.0 2.1 Q13.6 1.75 13.35 2.1 L13.15 2.8 Q13.15 3.65 15.25 7.2 L15.85 8.25 16.2 9.4 16.25 9.5 15.8 9.55 15.35 9.45 15.25 9.15 14.7 9.25 14.45 9.15 13.8 9.25 Q12.65 9.2 11.05 8.5 L9.15 7.55 Q8.25 7.2 7.4 6.5 L6.05 5.45 3.8 3.6 Q2.5 2.35 2.15 1.7 L1.95 1.6 Q1.1 1.15 0.65 1.1 L-0.45 0.4 -0.5 0.0 -0.6 -2.45 -0.65 -2.75 -0.95 -7.5 0.35 -7.35 0.35 -7.15 Q0.35 -2.35 1.15 -2.35 1.65 -2.35 2.0 -3.65 L2.25 -5.3 2.1 -6.85" fill="#a963b3" fill-rule="evenodd" stroke="none"/>
  </g>
</svg>
