<?xml version="1.0" encoding="UTF-8" standalone="no"?>
<svg xmlns:ffdec="https://www.free-decompiler.com/flash" xmlns:xlink="http://www.w3.org/1999/xlink" ffdec:objectType="shape" height="21.05px" width="44.55px" xmlns="http://www.w3.org/2000/svg">
  <g transform="matrix(1.0, 0.0, 0.0, 1.0, 23.1, 10.95)">
    <path d="M11.3 -8.25 L10.8 -8.2 9.0 -7.6 8.8 -7.5 8.15 -7.15 7.7 -6.8 6.15 -5.2 5.0 -4.1 4.75 -3.9 2.7 -2.15 1.9 -1.65 Q0.65 -0.9 -0.7 -0.45 -2.65 0.15 -4.85 0.15 L-9.05 -0.25 -13.25 -0.5 -14.35 -0.7 -15.6 -0.95 -16.4 -1.15 -18.55 -1.5 -19.1 -1.65 -19.35 -1.6 -19.55 -1.5 -19.65 -1.25 -20.25 0.8 -20.25 1.1 -20.25 2.5 -20.25 2.75 -19.9 2.95 -19.9 3.1 Q-16.85 4.65 -14.4 5.55 L-12.1 6.35 -10.4 6.65 -9.35 6.95 -7.85 7.25 -6.05 7.25 -3.3 6.95 -0.95 6.6 -0.35 6.4 1.85 5.7 Q4.2 4.65 6.75 2.9 7.75 2.1 9.15 1.35 9.55 1.05 9.9 0.95 10.15 0.8 10.35 0.8 L10.45 0.75 11.75 0.35 Q13.3 0.2 14.85 1.2 L14.65 0.5 14.65 -0.05 14.5 -0.55 14.2 -1.35 Q13.65 -2.65 13.65 -3.15 L13.85 -3.6 13.9 -3.6 Q13.9 -3.9 14.25 -4.05 L14.4 -4.2 15.2 -5.05 17.65 -6.85 17.65 -6.9 17.45 -6.8 17.25 -6.65 17.4 -6.8 17.05 -7.15 15.75 -7.75 11.45 -8.3 11.3 -8.25 M16.95 -2.3 Q18.45 3.15 18.45 4.05 L18.45 4.4 18.6 4.85 Q18.6 6.0 17.4 6.0 L15.15 4.85 Q13.05 3.65 12.55 3.65 11.4 3.65 9.75 4.65 L6.3 6.9 Q0.9 10.1 -5.9 10.1 -10.3 10.1 -15.9 7.95 L-19.85 6.0 -21.7 4.85 -21.95 4.85 Q-23.0 4.85 -23.1 3.7 L-22.35 -0.45 Q-21.3 -4.5 -19.95 -4.5 -18.85 -4.5 -18.4 -4.05 L-16.25 -3.45 Q-12.75 -2.55 -7.75 -2.55 -1.4 -2.55 3.3 -6.75 8.0 -10.95 13.1 -10.95 16.1 -10.95 18.95 -9.1 21.45 -7.55 21.45 -6.65 21.45 -5.9 20.95 -5.65 L19.15 -4.15 16.95 -2.3" fill="#322c12" fill-rule="evenodd" stroke="none"/>
    <path d="M7.7 -6.8 L8.15 -7.15 8.8 -7.5 9.0 -7.6 10.8 -8.2 11.3 -8.25 11.35 -7.35 Q11.35 -4.65 10.95 -1.85 10.65 0.1 10.35 0.8 10.15 0.8 9.9 0.95 7.65 -1.4 7.65 -6.3 L7.7 -6.8 M-0.7 -0.45 L-0.65 0.4 -0.35 6.4 -0.95 6.6 -3.3 6.95 -6.05 7.25 -7.85 7.25 -9.35 6.95 -10.4 6.65 -12.1 6.35 -14.4 5.55 Q-16.85 4.65 -19.9 3.1 L-19.9 2.95 -20.25 2.75 -20.25 2.5 -20.25 1.1 -20.25 0.8 -19.65 -1.25 -19.55 -1.5 -19.35 -1.6 -19.1 -1.65 -18.55 -1.5 -16.4 -1.15 -15.6 -0.95 -14.35 -0.7 -13.25 -0.5 -9.05 -0.25 -4.85 0.15 Q-2.65 0.15 -0.7 -0.45" fill="#e8ede6" fill-rule="evenodd" stroke="none"/>
    <path d="M7.7 -6.8 L7.65 -6.3 Q7.65 -1.4 9.9 0.95 9.55 1.05 9.15 1.35 7.75 2.1 6.75 2.9 4.2 4.65 1.85 5.7 L-0.35 6.4 -0.65 0.4 -0.7 -0.45 Q0.65 -0.9 1.9 -1.65 L2.7 -2.15 4.75 -3.9 5.0 -4.1 6.15 -5.2 7.7 -6.8 M10.35 0.8 Q10.65 0.1 10.95 -1.85 11.35 -4.65 11.35 -7.35 L11.3 -8.25 11.45 -8.3 15.75 -7.75 17.05 -7.15 17.4 -6.8 17.25 -6.65 17.45 -6.8 17.65 -6.9 17.65 -6.85 15.2 -5.05 14.4 -4.2 14.25 -4.05 Q13.9 -3.9 13.9 -3.6 L13.85 -3.6 13.65 -3.15 Q13.65 -2.65 14.2 -1.35 L14.5 -0.55 14.65 -0.05 14.65 0.5 14.85 1.2 Q13.3 0.2 11.75 0.35 L10.45 0.75 10.35 0.8" fill="#a963b3" fill-rule="evenodd" stroke="none"/>
  </g>
</svg>
