<?xml version="1.0" encoding="UTF-8" standalone="no"?>
<svg xmlns:ffdec="https://www.free-decompiler.com/flash" xmlns:xlink="http://www.w3.org/1999/xlink" ffdec:objectType="shape" height="66.0px" width="67.85px" xmlns="http://www.w3.org/2000/svg">
  <g transform="matrix(1.0, 0.0, 0.0, 1.0, 34.15, 32.5)">
    <path d="M28.35 -31.0 Q32.2 -31.0 32.2 -27.15 L32.2 28.1 Q32.2 32.0 28.35 32.0 L-29.05 32.0 Q-32.65 31.85 -32.65 28.1 L-32.65 -27.15 Q-32.65 -30.85 -29.05 -31.0 L28.35 -31.0" fill="#d59c55" fill-rule="evenodd" stroke="none"/>
    <path d="M28.35 -31.0 L-29.05 -31.0 Q-32.65 -30.85 -32.65 -27.15 L-32.65 28.1 Q-32.65 31.85 -29.05 32.0 L28.35 32.0 Q32.2 32.0 32.2 28.1 L32.2 -27.15 Q32.2 -31.0 28.35 -31.0 Z" fill="none" stroke="#663300" stroke-linecap="round" stroke-linejoin="round" stroke-width="3.0"/>
  </g>
</svg>
