<?xml version="1.0" encoding="UTF-8" standalone="no"?>
<svg xmlns:ffdec="https://www.free-decompiler.com/flash" xmlns:xlink="http://www.w3.org/1999/xlink" ffdec:objectType="shape" height="8.1px" width="16.25px" xmlns="http://www.w3.org/2000/svg">
  <g transform="matrix(1.0, 0.0, 0.0, 1.0, 0.0, 5.65)">
    <path d="M4.5 -3.65 L5.45 -4.3 7.65 -5.25 Q8.4 -5.45 8.55 -5.65 L11.4 -5.5 12.55 -5.25 13.65 -4.8 15.15 -3.65 16.25 -2.75 Q14.65 -0.55 12.8 -0.55 L9.9 -0.95 Q9.15 -0.95 6.55 0.75 3.9 2.45 1.45 2.45 L0.25 2.35 0.15 2.1 0.05 1.7 0.05 0.9 0.1 -1.25 Q0.1 -2.05 0.25 -2.3 0.6 -2.9 1.0 -2.55 L1.55 -2.6 Q3.1 -2.55 4.1 -3.3 L4.5 -3.65" fill="#f9f6f3" fill-rule="evenodd" stroke="none"/>
  </g>
</svg>
