<?xml version="1.0" encoding="UTF-8" standalone="no"?>
<svg xmlns:ffdec="https://www.free-decompiler.com/flash" xmlns:xlink="http://www.w3.org/1999/xlink" ffdec:objectType="shape" height="8.65px" width="17.1px" xmlns="http://www.w3.org/2000/svg">
  <g transform="matrix(1.0, 0.0, 0.0, 1.0, 0.15, 5.75)">
    <path d="M1.25 -2.4 L4.4 -2.5 5.65 -3.05 6.9 -3.7 9.1 -4.95 Q10.6 -5.75 13.0 -5.75 14.65 -5.75 15.65 -4.95 L16.95 -3.9 16.55 -3.9 Q14.55 -3.7 12.65 -2.8 10.5 -1.85 9.85 -0.5 9.65 0.15 7.9 1.25 5.6 2.7 2.75 2.9 L2.1 2.8 Q-0.15 2.55 -0.15 1.95 L-0.05 1.65 -0.05 1.5 0.05 -0.75 0.25 -1.9 Q0.5 -2.55 0.85 -2.35 L1.25 -2.4" fill="#f9f6f3" fill-rule="evenodd" stroke="none"/>
  </g>
</svg>
