<?xml version="1.0" encoding="UTF-8" standalone="no"?>
<svg xmlns:ffdec="https://www.free-decompiler.com/flash" xmlns:xlink="http://www.w3.org/1999/xlink" ffdec:objectType="shape" height="23.8px" width="13.4px" xmlns="http://www.w3.org/2000/svg">
  <g transform="matrix(1.0, 0.0, 0.0, 1.0, 6.0, 14.4)">
    <path d="M-0.15 3.9 L0.1 5.1 0.1 5.25 0.55 6.6 Q1.3 7.95 2.8 7.95 L4.2 7.75 4.4 7.85 Q4.8 7.85 5.45 7.05 L6.1 6.1 6.3 5.65 6.9 5.0 6.85 5.4 6.4 6.55 5.65 7.6 Q4.75 8.45 3.45 8.45 L1.7 8.35 0.55 7.3 -0.2 6.0 Q-0.75 4.9 -0.75 3.3 L-0.75 2.95 -0.15 3.9" fill="#34240a" fill-rule="evenodd" stroke="none"/>
    <path d="M6.3 5.65 L6.1 6.1 5.45 7.05 Q4.8 7.85 4.4 7.85 L4.2 7.75 2.8 7.95 Q1.3 7.95 0.55 6.6 L0.1 5.25 0.1 5.1 -0.15 3.9 0.75 5.3 Q1.85 6.65 3.25 6.65 L5.5 6.2 6.3 5.65" fill="#a36f31" fill-rule="evenodd" stroke="none"/>
    <path d="M4.4 -14.0 L3.55 -14.0 4.05 -14.4 4.4 -14.0 M-4.7 -3.35 L-4.75 -3.25 -5.05 0.15 Q-5.2 2.75 -5.65 2.75 -6.0 2.75 -6.0 2.3 L-5.8 0.6 -5.7 -1.05 -5.15 -4.4 -4.3 -5.95 -2.95 -7.55 -2.2 -9.15 -2.05 -10.0 -2.0 -10.4 -1.55 -10.7 -0.95 -10.15 -0.8 -9.85 -0.7 -9.75 -0.6 -9.5 0.0 -9.2 0.2 -9.05 0.2 -7.2 Q-0.45 -7.3 -0.7 -7.65 L-0.8 -7.95 -1.35 -9.1 -1.4 -9.1 Q-1.8 -7.4 -3.05 -6.15 -4.25 -5.05 -4.7 -3.35 M3.2 -6.75 L4.6 -6.75 4.7 -6.3 4.8 -5.95 5.65 -3.5 6.75 -0.2 7.2 1.95 7.4 2.45 7.25 2.45 7.3 2.8 7.4 4.0 7.35 5.4 7.0 6.45 6.95 6.65 6.85 6.9 6.75 7.05 Q6.4 7.85 5.6 8.4 L4.95 9.0 Q4.35 9.4 3.1 9.4 1.55 9.4 0.4 8.35 L-0.55 7.15 -0.95 5.85 -1.15 4.4 Q-1.25 3.7 -2.1 2.75 L-3.25 1.55 -4.15 -0.15 -4.4 -0.4 -4.6 -1.0 -4.5 -1.3 -4.65 -1.65 -4.5 -2.05 -4.3 -1.45 -4.15 -1.5 -3.8 -1.2 -3.8 -0.85 -3.4 -0.3 -2.9 0.2 -1.2 1.65 -0.7 2.15 -0.6 2.25 -0.55 2.3 -0.1 3.15 -0.15 3.6 -0.15 3.9 -0.3 3.6 0.25 6.15 1.05 7.3 Q1.95 8.3 2.95 8.3 4.7 8.3 6.25 6.45 L6.5 5.4 6.3 5.65 6.5 3.95 6.35 3.45 6.25 2.45 5.95 0.75 5.95 0.65 5.85 0.35 5.7 -0.2 5.55 -0.55 5.1 -1.65 4.95 -1.9 4.55 -2.65 4.5 -2.75 4.25 -3.3 3.65 -4.7 3.25 -6.1 3.2 -6.75 M5.45 4.1 L5.75 4.05 5.85 4.45 5.7 5.3 5.65 5.3 3.2 5.75 2.45 5.3 2.2 4.8 Q2.2 4.6 2.35 4.5 2.45 4.15 2.95 4.25 L3.15 4.3 3.2 4.3 3.7 4.45 4.2 4.55 4.7 4.45 5.15 4.25 5.45 4.1 M-0.2 -8.45 L-0.2 -8.4 -0.15 -8.4 -0.2 -8.45" fill="#34240a" fill-rule="evenodd" stroke="none"/>
    <path d="M0.2 -7.2 L0.2 -6.75 3.2 -6.75 3.25 -6.1 3.65 -4.7 4.25 -3.3 4.5 -2.75 4.55 -2.65 4.95 -1.9 5.1 -1.65 5.55 -0.55 5.7 -0.2 5.85 0.35 5.95 0.65 5.95 0.75 6.25 2.45 6.35 3.45 6.5 3.95 6.3 5.65 5.5 6.2 3.25 6.65 Q1.85 6.65 0.75 5.3 L-0.15 3.9 -0.15 3.6 -0.1 3.15 -0.55 2.3 -0.6 2.25 -0.7 2.15 -1.2 1.65 -2.9 0.2 -3.4 -0.3 -3.8 -0.85 -3.8 -1.2 -4.15 -1.5 -4.3 -1.45 -4.5 -2.05 -4.65 -2.85 -4.6 -3.1 -4.7 -3.35 Q-4.25 -5.05 -3.05 -6.15 -1.8 -7.4 -1.4 -9.1 L-1.35 -9.1 -0.8 -7.95 -0.7 -7.65 Q-0.45 -7.3 0.2 -7.2 M5.45 4.1 L5.15 4.25 4.7 4.45 4.2 4.55 3.7 4.45 3.2 4.3 3.15 4.3 2.95 4.25 Q2.45 4.15 2.35 4.5 2.2 4.6 2.2 4.8 L2.45 5.3 3.2 5.75 5.65 5.3 5.7 5.3 5.85 4.45 5.75 4.05 5.45 4.1" fill="#a36f31" fill-rule="evenodd" stroke="none"/>
    <path d="M0.2 -7.2 L0.2 -9.05 0.65 -8.9 Q1.15 -8.9 1.75 -10.0 L2.25 -11.05 2.45 -11.65 Q3.05 -13.35 3.55 -14.0 L4.4 -14.0 4.4 -13.9 4.1 -11.25 4.15 -11.05 4.1 -10.9 4.15 -10.6 4.2 -10.35 4.15 -10.1 4.05 -9.5 Q4.1 -8.45 4.6 -6.75 L3.2 -6.75 3.15 -7.15 3.35 -10.1 Q3.35 -11.25 2.8 -10.3 L1.6 -8.25 1.15 -7.6 Q0.9 -7.25 0.55 -7.25 L0.55 -7.2 0.2 -7.2" fill="#34240a" fill-rule="evenodd" stroke="none"/>
    <path d="M3.2 -6.75 L0.2 -6.75 0.2 -7.2 0.55 -7.2 0.55 -7.25 Q0.9 -7.25 1.15 -7.6 L1.6 -8.25 2.8 -10.3 Q3.35 -11.25 3.35 -10.1 L3.15 -7.15 3.2 -6.75" fill="#a36f31" fill-rule="evenodd" stroke="none"/>
  </g>
</svg>
