<?xml version="1.0" encoding="UTF-8" standalone="no"?>
<svg xmlns:ffdec="https://www.free-decompiler.com/flash" xmlns:xlink="http://www.w3.org/1999/xlink" ffdec:objectType="shape" height="23.9px" width="13.55px" xmlns="http://www.w3.org/2000/svg">
  <g transform="matrix(1.0, 0.0, 0.0, 1.0, 6.0, 14.4)">
    <path d="M-3.55 3.9 L-3.3 4.45 -3.3 4.65 -3.25 4.85 -3.1 5.4 -3.1 5.55 -2.65 6.9 Q-1.9 8.25 -0.4 8.25 L1.0 8.05 1.2 8.15 Q1.6 8.15 2.25 7.35 L2.9 6.4 3.1 5.95 3.7 5.3 3.65 5.7 3.2 6.85 2.45 7.9 Q1.55 8.75 0.25 8.75 L-1.5 8.65 -2.65 7.6 -3.4 6.3 Q-3.95 5.2 -3.95 3.6 L-3.95 3.25 -3.55 3.9" fill="#34240a" fill-rule="evenodd" stroke="none"/>
    <path d="M2.85 6.15 L3.1 5.95 2.9 6.4 2.25 7.35 Q1.6 8.15 1.2 8.15 L1.0 8.05 -0.4 8.25 Q-1.9 8.25 -2.65 6.9 L-3.1 5.55 -3.1 5.4 -3.25 4.85 -3.3 4.65 -3.3 4.45 -3.55 3.9 -3.65 3.6 -3.5 3.55 -3.5 3.5 -3.35 3.25 -3.05 3.65 -3.05 3.7 -3.0 3.65 Q-2.55 3.65 -0.95 6.8 L-0.5 6.9 Q0.0 7.25 0.75 7.2 L1.3 7.25 Q2.15 7.25 2.55 6.85 L2.85 6.15" fill="#a36f31" fill-rule="evenodd" stroke="none"/>
    <path d="M2.85 6.15 L2.55 6.85 Q2.15 7.25 1.3 7.25 L0.75 7.2 Q0.0 7.25 -0.5 6.9 L-1.15 6.2 Q-1.65 5.4 -1.65 4.15 L-1.7 2.4 Q-1.7 1.85 -2.2 0.8 -2.2 0.45 -1.8 0.5 -1.4 0.55 -1.3 0.9 -0.85 1.45 -0.95 1.85 L-0.5 1.5 Q-0.25 1.5 0.75 3.5 L1.2 4.6 1.8 5.55 2.2 5.35 Q2.65 5.35 2.85 6.15" fill="#a33d32" fill-rule="evenodd" stroke="none"/>
    <path d="M-4.85 -2.25 L-5.05 0.15 Q-5.2 2.75 -5.65 2.75 -6.0 2.75 -6.0 2.3 L-5.8 0.6 -5.7 -1.05 -5.15 -4.4 -4.3 -5.95 -2.95 -7.55 -2.2 -9.15 -2.05 -10.0 -2.0 -10.4 -1.55 -10.7 -0.95 -10.15 -0.8 -9.85 -0.7 -9.75 -0.6 -9.5 0.0 -9.2 0.2 -9.05 Q0.45 -8.9 0.6 -8.9 L0.65 -8.9 Q1.15 -8.9 1.75 -10.0 L2.25 -11.05 2.45 -11.65 Q3.05 -13.35 3.55 -14.0 L4.05 -14.4 4.4 -14.0 4.4 -13.9 4.1 -11.25 4.15 -11.05 4.1 -10.9 4.15 -10.6 4.2 -10.35 4.15 -10.1 4.1 -9.7 4.1 -9.65 4.1 -9.15 4.1 -8.9 4.2 -8.3 4.4 -7.35 4.6 -6.75 4.7 -6.3 4.8 -5.95 5.65 -3.5 6.75 -0.2 7.2 1.95 7.4 2.45 7.35 2.45 7.55 3.85 Q7.55 4.95 7.2 5.65 L6.3 6.75 6.25 6.75 4.9 6.9 4.7 6.95 4.45 6.95 3.75 6.8 3.8 7.0 Q3.8 7.65 2.55 8.55 1.2 9.55 0.05 9.5 L-0.85 9.5 Q-1.6 9.4 -2.45 8.55 L-3.45 7.5 -3.9 6.3 -4.15 4.95 -4.35 2.25 Q-4.35 1.4 -4.5 0.85 L-4.6 0.15 -4.8 -0.5 -4.65 -0.65 Q-4.45 -0.85 -4.2 -0.65 L-3.8 0.0 Q-3.55 0.4 -3.45 1.2 -3.2 3.1 -3.3 3.85 L-3.3 4.2 Q-3.35 5.85 -2.3 7.05 -1.25 8.25 0.3 8.25 1.05 8.25 2.4 7.55 L2.7 7.0 Q2.85 6.8 3.0 6.75 L2.9 6.75 2.15 6.45 2.1 6.4 2.0 6.3 2.0 6.35 0.75 5.3 0.55 5.0 0.45 4.8 0.3 4.55 -0.15 3.6 -0.75 2.85 -0.95 2.65 -1.2 2.35 -1.55 1.9 -1.6 1.85 -1.8 1.65 Q-1.9 0.9 -2.75 0.55 -3.2 -0.1 -3.5 -0.05 L-3.7 -0.85 -3.75 -1.05 -3.65 -0.85 -3.4 -0.3 -3.1 0.05 -1.2 1.65 -0.7 2.15 -0.6 2.25 -0.55 2.3 -0.1 3.15 -0.15 3.25 -0.1 3.3 -0.1 3.25 1.1 4.95 2.35 6.25 3.8 6.5 4.4 6.5 4.55 6.35 Q4.75 6.2 5.05 6.2 L5.15 6.25 5.2 6.2 5.7 6.0 6.35 5.4 6.5 3.95 6.35 3.45 6.25 2.45 5.95 0.75 5.8 0.1 5.7 -0.2 5.6 -0.4 5.4 -1.0 5.3 -1.15 4.95 -1.9 4.55 -2.65 4.5 -2.75 4.25 -3.3 3.65 -4.7 Q3.35 -5.55 3.2 -6.3 L3.15 -6.75 3.2 -6.75 3.15 -7.15 3.35 -10.1 Q3.35 -11.25 2.8 -10.3 L1.6 -8.25 1.15 -7.6 Q0.9 -7.25 0.55 -7.25 L0.55 -7.2 0.2 -7.2 Q-0.45 -7.3 -0.7 -7.65 L-0.8 -7.95 -1.35 -9.1 -1.4 -9.1 Q-1.8 -7.4 -3.05 -6.15 -4.05 -5.25 -4.5 -3.9 L-4.75 -3.3 -4.75 -3.25 -4.8 -2.75 -4.85 -2.25 M-0.2 -8.45 L-0.2 -8.4 -0.15 -8.4 -0.2 -8.45 M5.45 4.1 L5.75 4.05 5.85 4.45 5.7 5.3 5.65 5.3 3.2 5.75 2.45 5.3 2.2 4.8 Q2.2 4.6 2.35 4.5 2.45 4.15 2.95 4.25 L3.15 4.3 3.2 4.3 3.7 4.45 4.2 4.55 4.7 4.45 5.15 4.25 5.45 4.1" fill="#34240a" fill-rule="evenodd" stroke="none"/>
    <path d="M-4.65 -0.65 L-4.8 -1.45 -4.75 -1.65 -4.85 -2.25 -4.8 -2.75 -4.7 -3.0 -4.75 -3.25 -4.75 -3.3 -4.5 -3.9 Q-4.05 -5.25 -3.05 -6.15 -1.8 -7.4 -1.4 -9.1 L-1.35 -9.1 -0.8 -7.95 -0.7 -7.65 Q-0.45 -7.3 0.2 -7.2 L0.55 -7.2 0.55 -7.25 Q0.9 -7.25 1.15 -7.6 L1.6 -8.25 2.8 -10.3 Q3.35 -11.25 3.35 -10.1 L3.15 -7.15 3.2 -6.75 3.15 -6.75 3.2 -6.3 Q3.35 -5.55 3.65 -4.7 L4.25 -3.3 4.5 -2.75 4.55 -2.65 4.95 -1.9 5.3 -1.15 5.4 -1.0 5.6 -0.4 5.7 -0.2 5.8 0.1 5.95 0.75 6.25 2.45 6.35 3.45 6.5 3.95 6.35 5.4 5.7 6.0 5.2 6.2 5.15 6.25 5.05 6.2 Q4.75 6.2 4.55 6.35 L4.4 6.5 3.8 6.5 2.35 6.25 1.1 4.95 -0.1 3.25 -0.1 3.3 -0.15 3.25 -0.1 3.15 -0.55 2.3 -0.6 2.25 -0.7 2.15 -1.2 1.65 -3.1 0.05 -3.4 -0.3 -3.65 -0.85 -3.75 -1.05 -3.7 -0.85 -3.5 -0.05 Q-3.2 -0.1 -2.75 0.55 -1.9 0.9 -1.8 1.65 L-1.8 1.75 Q-1.5 1.95 -1.5 2.9 L-1.3 4.25 -1.0 5.65 -0.45 6.9 -0.6 7.15 -0.85 7.3 -1.45 6.7 -1.85 5.8 Q-1.9 5.55 -2.1 5.4 L-2.45 5.1 -2.55 4.6 -2.95 4.35 -3.3 4.2 -3.3 3.85 Q-3.2 3.1 -3.45 1.2 -3.55 0.4 -3.8 0.0 L-4.2 -0.65 Q-4.45 -0.85 -4.65 -0.65 M-1.6 1.85 L-1.55 1.9 -1.2 2.35 -1.45 2.05 -1.6 1.85 M-0.95 2.65 L-0.75 2.85 -0.15 3.6 0.3 4.55 -0.4 3.4 -0.95 2.65 M0.45 4.8 L0.55 5.0 0.75 5.3 1.15 5.9 1.1 6.0 1.0 6.05 0.3 5.3 0.45 4.9 0.45 4.8 M2.0 6.35 L2.0 6.3 2.1 6.4 2.0 6.35 M5.45 4.1 L5.15 4.25 4.7 4.45 4.2 4.55 3.7 4.45 3.2 4.3 3.15 4.3 2.95 4.25 Q2.45 4.15 2.35 4.5 2.2 4.6 2.2 4.8 L2.45 5.3 3.2 5.75 5.65 5.3 5.7 5.3 5.85 4.45 5.75 4.05 5.45 4.1" fill="#a36f31" fill-rule="evenodd" stroke="none"/>
  </g>
</svg>
