<?xml version="1.0" encoding="UTF-8" standalone="no"?>
<svg xmlns:ffdec="https://www.free-decompiler.com/flash" xmlns:xlink="http://www.w3.org/1999/xlink" ffdec:objectType="shape" height="15.1px" width="7.1px" xmlns="http://www.w3.org/2000/svg">
  <g transform="matrix(1.0, 0.0, 0.0, 1.0, 3.5, 14.8)">
    <path d="M0.25 -4.2 L-0.1 -4.8 -0.05 -4.8 0.5 -4.2 0.25 -4.2" fill="#ffffff" fill-rule="evenodd" stroke="none"/>
    <path d="M0.25 -4.2 Q1.3 -2.25 0.4 0.0 L-0.4 0.0 Q-2.0 -2.4 0.1 -4.15 L0.1 -4.2 0.25 -4.2" fill="#ffffe0" fill-rule="evenodd" stroke="none"/>
    <path d="M0.35 -7.15 Q0.1 -6.55 0.4 -6.0 4.1 -6.85 3.55 -3.3 3.3 -1.75 2.65 -0.85 L2.3 -0.45 2.25 -0.45 2.2 -0.4 Q1.25 0.4 -0.35 0.3 L-0.55 0.25 -1.7 0.0 Q-2.75 -0.3 -3.05 -1.25 -4.7 -6.75 -0.25 -9.7 L0.0 -9.9 0.35 -10.25 Q1.05 -11.1 0.2 -12.25 L-0.2 -12.25 -0.3 -12.25 Q-1.2 -12.35 -1.2 -11.35 L-1.15 -10.95 Q-2.15 -11.15 -2.0 -12.7 -1.75 -14.2 -0.35 -14.8 2.45 -13.75 1.4 -10.6 L0.35 -7.15 M0.25 -4.2 L0.1 -4.2 0.1 -4.15 Q-2.0 -2.4 -0.4 0.0 L0.4 0.0 Q1.3 -2.25 0.25 -4.2 L0.5 -4.2 -0.05 -4.8 -0.1 -4.8 0.25 -4.2 M-1.3 -11.6 L-1.25 -11.6 -1.3 -11.65 -1.3 -11.6" fill="#ffcc00" fill-rule="evenodd" stroke="none"/>
  </g>
</svg>
