<?xml version="1.0" encoding="UTF-8" standalone="no"?>
<svg xmlns:ffdec="https://www.free-decompiler.com/flash" xmlns:xlink="http://www.w3.org/1999/xlink" ffdec:objectType="shape" height="46.1px" width="162.1px" xmlns="http://www.w3.org/2000/svg">
  <g transform="matrix(1.0, 0.0, 0.0, 1.0, 81.05, 23.05)">
    <path d="M18.85 -20.9 L22.3 -20.9 22.5 -20.85 30.25 -20.8 33.35 -20.1 Q34.55 -19.7 34.55 -18.95 L34.65 -18.65 34.8 -17.65 35.05 -15.75 35.75 -11.95 35.75 -11.75 35.8 -11.6 34.55 -2.0 37.3 -2.0 37.4 -1.95 38.1 -10.3 38.35 -14.55 38.55 -15.05 38.7 -15.55 38.7 -16.6 38.65 -17.7 38.7 -18.0 38.65 -18.0 38.6 -18.2 Q38.6 -18.6 39.25 -19.2 40.0 -19.95 40.8 -19.8 L59.35 -19.8 59.5 -20.8 59.85 -22.05 Q59.95 -22.8 60.5 -23.0 L61.75 -23.05 70.25 -22.8 74.55 -22.6 75.3 -22.55 75.45 -22.55 75.45 -22.5 76.9 -22.1 77.95 -20.9 77.95 -20.8 77.9 -20.75 79.5 -17.3 81.05 -13.5 81.05 -13.0 80.9 -12.9 80.9 -12.85 78.3 -4.85 73.95 7.95 74.1 8.05 74.4 8.3 74.65 8.55 74.9 9.45 Q75.25 9.8 75.5 10.9 L75.75 13.85 Q75.75 16.05 74.15 18.6 72.4 21.35 69.85 22.25 L69.7 22.4 69.35 22.45 69.2 22.55 67.1 22.55 66.9 22.45 66.2 22.45 66.05 22.35 Q63.95 22.15 62.7 21.3 61.1 20.0 60.5 20.0 L54.75 21.1 54.6 21.2 50.35 21.65 47.45 21.8 44.45 22.05 40.85 22.05 39.6 21.65 39.15 21.1 34.25 21.75 27.25 22.3 20.6 22.25 19.0 22.05 Q17.85 21.75 17.45 21.1 L17.0 19.95 Q16.55 18.75 16.4 17.75 16.1 16.25 16.1 13.25 L16.0 4.25 Q16.15 4.2 15.9 4.2 15.45 4.2 15.4 4.9 L15.4 5.6 15.55 12.45 15.5 12.55 15.5 17.9 15.75 20.0 Q15.75 21.2 15.25 21.65 14.1 22.55 10.1 22.5 L5.35 22.5 5.15 22.45 1.35 22.4 0.9 22.25 Q-0.5 22.2 -0.8 21.2 L-0.85 19.9 -0.8 7.95 -0.7 6.5 -0.5 5.1 -0.85 4.2 -7.6 4.75 Q-8.5 5.0 -8.5 5.7 L-7.9 16.0 -7.7 18.25 -7.2 20.45 Q-7.2 20.95 -7.5 21.3 -8.1 21.95 -9.5 21.8 L-19.85 22.5 Q-22.35 22.5 -23.2 21.6 L-23.75 20.45 -23.75 20.15 -27.05 20.9 -34.8 21.8 -36.35 21.8 -36.5 21.8 -36.55 21.6 -36.6 21.6 Q-37.1 21.6 -37.55 21.05 L-38.1 20.4 -38.55 20.4 -39.2 21.25 Q-39.6 21.75 -40.6 21.8 L-43.15 21.8 -43.3 21.85 -51.05 21.95 -54.6 20.7 -56.65 21.9 Q-59.15 23.05 -63.0 23.05 L-72.15 22.8 Q-76.4 22.55 -76.4 21.4 L-76.4 21.35 Q-77.0 20.65 -77.8 15.7 L-79.35 5.6 Q-80.2 0.65 -80.45 -2.3 L-81.05 -10.25 Q-81.05 -11.1 -78.95 -14.35 L-77.85 -16.45 -77.35 -17.55 -77.05 -18.0 Q-77.1 -18.4 -76.65 -18.6 L-73.4 -19.1 -61.8 -18.9 -61.8 -18.85 Q-59.1 -18.95 -55.6 -17.55 -52.55 -16.35 -52.15 -15.3 L-51.7 -14.9 -50.5 -13.45 Q-49.9 -12.55 -49.55 -10.95 L-47.9 -15.9 -47.25 -17.1 Q-46.55 -17.65 -44.35 -17.85 L-38.25 -18.45 -35.35 -18.75 -31.95 -18.75 -31.5 -18.4 -31.5 -18.35 -31.1 -17.85 -30.5 -16.75 Q-30.2 -17.1 -30.0 -18.15 -29.55 -19.05 -28.1 -19.1 L-19.9 -19.1 -17.55 -19.2 -15.05 -19.25 -14.85 -19.3 -4.55 -19.3 Q-3.95 -19.3 -3.6 -18.9 L-3.25 -18.4 -2.6 -18.4 4.4 -19.3 8.05 -19.3 13.1 -19.1 17.35 -19.05 Q17.35 -19.5 17.65 -20.05 18.1 -21.0 18.85 -20.9" fill="#401f05" fill-rule="evenodd" stroke="none"/>
    <path d="M20.4 13.1 L20.1 18.1 19.45 13.15 20.55 -17.85 31.35 -17.75 32.7 -11.7 21.5 -11.7 20.4 13.1 21.5 -11.7 32.7 -11.7 32.7 -11.6 31.3 1.9 38.7 2.0 39.8 6.7 41.85 -16.15 60.3 -15.95 60.35 -16.0 62.15 -11.85 62.85 -19.75 74.3 -19.3 77.25 -13.3 74.85 -13.35 77.3 -13.25 70.5 7.95 63.55 7.15 63.6 7.0 61.1 0.35 61.4 -3.6 56.2 -3.65 57.95 0.8 58.05 0.8 57.05 7.4 59.75 10.8 59.75 10.85 58.9 17.35 41.0 18.65 39.95 11.4 40.05 10.5 39.0 17.6 20.2 18.2 20.4 13.1 M-3.75 -8.85 L-3.85 -15.05 19.1 -15.35 19.95 -9.15 -3.75 -8.85 19.95 -9.15 19.3 0.6 11.9 0.6 12.3 19.6 2.6 19.65 3.1 0.65 -3.75 0.7 -3.85 -8.85 -3.75 -8.85 M74.85 -13.35 L65.45 -13.75 63.6 6.65 63.6 7.0 63.6 6.65 65.45 -13.75 74.85 -13.35 M61.4 -3.6 L62.0 -3.6 63.05 -9.9 43.6 -10.0 41.0 18.65 43.6 -10.0 63.05 -9.9 62.0 -3.6 61.4 -3.6 M63.55 9.9 L64.3 9.6 66.2 9.2 Q67.25 9.15 68.15 9.6 68.95 9.85 69.65 10.5 L69.7 10.6 Q71.25 11.95 71.5 14.05 71.65 16.0 70.4 17.45 69.05 18.85 67.1 18.85 65.0 18.85 63.4 17.45 61.85 16.0 61.7 14.05 61.6 12.35 62.35 11.2 L62.85 10.6 63.55 9.95 63.55 9.9 M40.05 10.5 L40.3 8.95 30.6 8.65 31.3 1.9 30.6 8.65 40.3 8.95 40.05 10.5 M-66.1 -15.8 L-61.9 -15.15 Q-59.95 -14.9 -57.95 -13.85 -56.4 -12.95 -54.95 -11.5 -54.05 -10.45 -53.65 -8.75 L-53.5 -8.05 -53.5 -7.9 -53.6 -5.7 -53.7 -5.2 -53.75 -5.1 -54.75 -1.6 -54.4 -1.45 -54.3 -1.4 Q-53.35 -0.85 -52.5 0.7 -51.65 1.9 -51.4 4.0 -51.35 5.2 -51.45 6.25 L-51.4 6.4 -51.45 6.5 -51.5 6.75 -51.6 7.2 -51.7 7.65 -51.7 7.85 -51.75 7.95 -53.2 13.45 -53.25 13.55 -53.3 13.8 -53.4 14.25 -53.65 15.05 Q-54.45 16.55 -55.75 17.7 L-58.75 19.35 -62.3 20.15 -65.55 20.45 -67.9 20.25 -70.6 20.1 -72.85 19.95 -73.75 19.95 -77.8 -9.7 -77.7 -9.6 -75.0 -15.85 -75.05 -15.9 -75.0 -15.95 -75.05 -15.95 -74.05 -16.0 -72.95 -16.0 -70.05 -16.0 -66.1 -15.8 M-24.9 17.9 L-24.95 18.05 -34.35 -9.25 -45.65 -7.65 -45.7 -7.65 -50.75 10.95 -45.7 -7.65 -45.65 -7.65 -34.35 -9.25 -24.95 18.05 -24.9 17.9 -24.85 18.15 -35.5 19.05 -36.9 13.05 -40.75 13.5 -41.45 18.95 -52.75 18.15 -50.75 10.95 -50.95 10.9 -44.1 -13.9 -33.2 -15.45 -28.05 -0.4 -28.0 -0.15 -27.95 0.9 -27.55 0.9 -27.95 0.9 -28.0 -0.15 -28.2 -3.6 -28.3 -4.15 -28.5 -8.4 -28.45 -8.45 -27.6 -14.4 -27.6 -14.65 -4.55 -15.55 -4.55 -9.25 -4.6 -9.35 -4.6 -9.25 -28.45 -8.45 -4.6 -9.25 -4.85 0.45 -12.3 0.6 -10.85 19.6 -20.55 19.65 -21.1 0.8 -27.55 0.9 -24.1 10.9 -24.9 17.9" fill="#de6224" fill-rule="evenodd" stroke="none"/>
    <path d="M32.7 -11.7 L31.35 -17.75 20.55 -17.85 19.45 13.15 20.1 18.1 20.4 13.1 21.5 -11.7 32.7 -11.7 32.7 -11.6 31.3 1.9 38.7 2.0 39.8 6.7 41.85 -16.15 60.3 -15.95 60.35 -16.0 62.15 -11.85 62.85 -19.75 74.3 -19.3 77.25 -13.3 74.85 -13.35 77.3 -13.25 70.5 7.95 63.55 7.15 63.6 7.0 61.1 0.35 61.4 -3.6 56.2 -3.65 57.95 0.8 58.05 0.8 57.05 7.4 59.75 10.8 59.75 10.85 58.9 17.35 41.0 18.65 39.95 11.4 40.05 10.5 39.0 17.6 20.2 18.2 20.4 13.1 M19.95 -9.15 L19.1 -15.35 -3.85 -15.05 -3.75 -8.85 19.95 -9.15 19.3 0.6 11.9 0.6 12.3 19.6 2.6 19.65 3.1 0.65 -3.75 0.7 -3.85 -8.85 -3.75 -8.85 M41.0 18.65 L43.6 -10.0 63.05 -9.9 62.0 -3.6 61.4 -3.6 M63.6 7.0 L63.6 6.65 65.45 -13.75 74.85 -13.35 M63.55 9.9 L64.3 9.6 66.2 9.2 Q67.25 9.15 68.15 9.6 68.95 9.85 69.65 10.5 L69.7 10.6 Q71.25 11.95 71.5 14.05 71.65 16.0 70.4 17.45 69.05 18.85 67.1 18.85 65.0 18.85 63.4 17.45 61.85 16.0 61.7 14.05 61.6 12.35 62.35 11.2 L62.85 10.6 63.55 9.95 63.55 9.9 M31.3 1.9 L30.6 8.65 40.3 8.95 40.05 10.5 M-66.1 -15.8 L-70.05 -16.0 -72.95 -16.0 -74.05 -16.0 -75.05 -15.95 -75.0 -15.95 -75.05 -15.9 -75.0 -15.85 -77.7 -9.6 -77.8 -9.7 -73.75 19.95 -72.85 19.95 -70.6 20.1 -67.9 20.25 -65.55 20.45 -62.3 20.15 -58.75 19.35 -55.75 17.7 Q-54.45 16.55 -53.65 15.05 L-53.4 14.25 -53.3 13.8 -53.25 13.55 -53.2 13.45 -51.75 7.95 -51.7 7.85 -51.7 7.65 -51.6 7.2 -51.5 6.75 -51.45 6.5 -51.4 6.4 -51.45 6.25 Q-51.35 5.2 -51.4 4.0 -51.65 1.9 -52.5 0.7 -53.35 -0.85 -54.3 -1.4 L-54.4 -1.45 -54.75 -1.6 -53.75 -5.1 -53.7 -5.2 -53.6 -5.7 -53.5 -7.9 -53.5 -8.05 -53.65 -8.75 Q-54.05 -10.45 -54.95 -11.5 -56.4 -12.95 -57.95 -13.85 -59.95 -14.9 -61.9 -15.15 L-66.1 -15.8 M-50.75 10.95 L-45.7 -7.65 -45.65 -7.65 -34.35 -9.25 -24.95 18.05 -24.9 17.9 -24.1 10.9 -27.55 0.9 -27.95 0.9 -28.0 -0.15 -28.05 -0.4 -33.2 -15.45 -44.1 -13.9 -50.95 10.9 -50.75 10.95 -52.75 18.15 -41.45 18.95 -40.75 13.5 -36.9 13.05 -35.5 19.05 -24.85 18.15 -24.9 17.9 M-4.6 -9.25 L-4.6 -9.35 -4.55 -9.25 -4.55 -15.55 -27.6 -14.65 -27.6 -14.4 -28.45 -8.45 -4.6 -9.25 -4.85 0.45 -12.3 0.6 -10.85 19.6 -20.55 19.65 -21.1 0.8 -27.55 0.9" fill="none" stroke="#de6224" stroke-linecap="round" stroke-linejoin="round" stroke-width="1.0"/>
    <path d="M62.0 -3.6 L53.3 -3.7 52.7 0.85 58.05 0.8 57.05 7.45 52.0 7.6 51.4 10.9 59.75 10.8 58.9 17.35 41.05 18.65 43.6 -10.0 63.05 -9.9 62.0 -3.6 M65.45 -13.75 L77.3 -13.25 70.5 7.95 63.55 7.15 65.45 -13.75 M21.5 -11.7 L32.7 -11.6 30.6 8.65 40.3 8.9 39.0 17.6 20.2 18.2 21.5 -11.7 M63.55 9.9 L64.3 9.6 66.2 9.2 Q68.1 9.15 69.65 10.5 L69.7 10.6 Q71.25 11.95 71.5 14.05 71.65 16.0 70.4 17.45 69.05 18.85 67.1 18.85 65.0 18.85 63.4 17.45 61.85 16.0 61.7 14.05 61.55 11.95 62.85 10.6 L63.55 9.95 63.55 9.9 M-3.85 -8.8 L-3.85 -8.85 19.95 -9.15 19.3 0.6 11.9 0.6 12.3 19.6 2.6 19.65 3.1 0.65 -3.75 0.7 -3.85 -8.8 M-53.3 13.8 L-53.4 14.25 -53.65 15.05 Q-54.45 16.55 -55.75 17.7 L-58.75 19.35 -62.3 20.15 -65.55 20.45 -67.9 20.25 -70.6 20.1 -72.85 19.95 -73.75 19.95 -77.8 -9.7 -76.8 -9.85 -75.65 -9.85 -72.6 -9.85 -68.5 -9.6 -64.15 -8.95 Q-62.1 -8.7 -60.05 -7.6 L-56.95 -5.15 Q-56.0 -4.05 -55.55 -2.3 L-55.4 -1.5 -55.4 -1.4 -55.5 0.85 -55.6 1.4 -56.9 3.35 Q-57.75 4.1 -58.65 4.35 -57.75 4.5 -56.35 5.3 L-56.25 5.35 Q-55.25 5.9 -54.35 7.5 -53.55 8.7 -53.2 10.9 -53.15 12.15 -53.25 13.25 L-53.2 13.45 -53.25 13.55 -53.3 13.8 M-65.0 -4.0 L-66.9 -4.45 -68.6 -4.5 -67.3 3.0 -67.0 3.0 -65.45 2.85 -63.8 2.3 -62.6 1.1 Q-62.25 0.3 -62.25 -0.95 -62.65 -2.25 -63.25 -2.95 -64.25 -3.75 -65.0 -4.0 M-28.3 -4.15 L-28.5 -8.4 -4.6 -9.35 -4.85 0.45 -12.3 0.6 -10.85 19.6 -20.55 19.65 -21.1 0.8 -27.95 0.9 -28.2 -3.6 -28.3 -4.15 M-45.7 -7.65 L-45.65 -7.65 -34.35 -9.25 -24.85 18.15 -35.5 19.05 -36.9 13.05 -40.75 13.5 -41.45 18.95 -52.75 18.15 -45.7 -7.65 M-39.45 -0.95 L-39.5 -1.1 -41.7 8.4 -36.15 7.55 -39.45 -0.95 M-61.75 8.45 Q-62.45 7.9 -62.85 7.8 L-64.15 7.55 -65.2 7.55 -65.65 7.6 -66.3 7.65 -65.55 12.45 -64.25 12.3 -62.75 11.8 -61.55 10.95 Q-61.1 10.25 -61.25 9.45 -61.35 8.8 -61.75 8.45" fill="url(#gradient0)" fill-rule="evenodd" stroke="none"/>
    <path d="M-65.0 -4.0 Q-64.25 -3.75 -63.25 -2.95 -62.65 -2.25 -62.25 -0.95 -62.25 0.3 -62.6 1.1 L-63.8 2.3 -65.45 2.85 -67.0 3.0 -67.3 3.0 -68.6 -4.5 -66.9 -4.45 -65.0 -4.0 M-39.45 -0.95 L-36.15 7.55 -41.7 8.4 -39.5 -1.1 -39.5 -0.95 -39.45 -0.95 M-61.75 8.45 Q-61.35 8.8 -61.25 9.45 -61.1 10.25 -61.55 10.95 L-62.75 11.8 -64.25 12.3 -65.55 12.45 -66.3 7.65 -65.65 7.6 -65.2 7.55 -64.15 7.55 -62.85 7.8 Q-62.45 7.9 -61.75 8.45" fill="#de6224" fill-rule="evenodd" stroke="none"/>
    <path d="M21.5 -11.7 L20.2 18.2 39.0 17.6 40.3 8.9 30.6 8.65 32.7 -11.6 21.5 -11.7 M65.45 -13.75 L63.55 7.15 70.5 7.95 77.3 -13.25 65.45 -13.75 M62.0 -3.6 L63.05 -9.9 43.6 -10.0 41.05 18.65 58.9 17.35 59.75 10.8 51.4 10.9 52.0 7.6 57.05 7.45 58.05 0.8 52.7 0.85 53.3 -3.7 62.0 -3.6 M63.55 9.9 L64.3 9.6 66.2 9.2 Q68.1 9.15 69.65 10.5 L69.7 10.6 Q71.25 11.95 71.5 14.05 71.65 16.0 70.4 17.45 69.05 18.85 67.1 18.85 65.0 18.85 63.4 17.45 61.85 16.0 61.7 14.05 61.55 11.95 62.85 10.6 L63.55 9.95 63.55 9.9 M-3.75 0.7 L3.1 0.65 2.6 19.65 12.3 19.6 11.9 0.6 19.3 0.6 19.95 -9.15 -3.85 -8.85 -3.85 -8.8 M-53.2 13.45 L-53.25 13.25 Q-53.15 12.15 -53.2 10.9 -53.55 8.7 -54.35 7.5 -55.25 5.9 -56.25 5.35 L-56.35 5.3 Q-57.75 4.5 -58.65 4.35 -57.75 4.1 -56.9 3.35 L-55.6 1.4 -55.5 0.85 -55.4 -1.4 -55.4 -1.5 -55.55 -2.3 Q-56.0 -4.05 -56.95 -5.15 L-60.05 -7.6 Q-62.1 -8.7 -64.15 -8.95 L-68.5 -9.6 -72.6 -9.85 -75.65 -9.85 -76.8 -9.85 -77.8 -9.7 -73.75 19.95 -72.85 19.95 -70.6 20.1 -67.9 20.25 -65.55 20.45 -62.3 20.15 -58.75 19.35 -55.75 17.7 Q-54.45 16.55 -53.65 15.05 L-53.4 14.25 -53.3 13.8 M-65.0 -4.0 Q-64.25 -3.75 -63.25 -2.95 -62.65 -2.25 -62.25 -0.95 -62.25 0.3 -62.6 1.1 L-63.8 2.3 -65.45 2.85 -67.0 3.0 -67.3 3.0 -68.6 -4.5 -66.9 -4.45 -65.0 -4.0 M-45.7 -7.65 L-52.75 18.15 -41.45 18.95 -40.75 13.5 -36.9 13.05 -35.5 19.05 -24.85 18.15 -34.35 -9.25 -45.65 -7.65 -45.7 -7.65 M-28.2 -3.6 L-27.95 0.9 -21.1 0.8 -20.55 19.65 -10.85 19.6 -12.3 0.6 -4.85 0.45 -4.6 -9.35 -28.5 -8.4 -28.3 -4.15 M-39.5 -1.1 L-39.45 -0.95 -36.15 7.55 -41.7 8.4 -39.5 -1.1 M-61.75 8.45 Q-61.35 8.8 -61.25 9.45 -61.1 10.25 -61.55 10.95 L-62.75 11.8 -64.25 12.3 -65.55 12.45 -66.3 7.65 -65.65 7.6 -65.2 7.55 -64.15 7.55 -62.85 7.8 Q-62.45 7.9 -61.75 8.45" fill="none" stroke="url(#gradient1)" stroke-linecap="round" stroke-linejoin="round" stroke-width="1.0"/>
    <path d="M-3.85 -8.8 L-3.75 0.7" fill="none" stroke="#de6423" stroke-linecap="round" stroke-linejoin="round" stroke-width="1.0"/>
  </g>
  <defs>
    <linearGradient gradientTransform="matrix(7.0E-4, -0.0364, 0.0101, 2.0E-4, 262.5, 16.4)" gradientUnits="userSpaceOnUse" id="gradient0" spreadMethod="pad" x1="-819.2" x2="819.2">
      <stop offset="0.0" stop-color="#de520d"/>
      <stop offset="1.0" stop-color="#ffff00"/>
    </linearGradient>
    <linearGradient gradientTransform="matrix(0.0, 0.027, -0.0212, 0.0, -0.65, 10.45)" gradientUnits="userSpaceOnUse" id="gradient1" spreadMethod="pad" x1="-819.2" x2="819.2">
      <stop offset="0.00392156862745098" stop-color="#bf3703"/>
      <stop offset="1.0" stop-color="#ffae00"/>
    </linearGradient>
  </defs>
</svg>
