<?xml version="1.0" encoding="UTF-8" standalone="no"?>
<svg xmlns:ffdec="https://www.free-decompiler.com/flash" xmlns:xlink="http://www.w3.org/1999/xlink" ffdec:objectType="shape" height="24.65px" width="20.55px" xmlns="http://www.w3.org/2000/svg">
  <g transform="matrix(1.0, 0.0, 0.0, 1.0, 14.75, 15.45)">
    <path d="M5.8 -10.0 L4.8 -8.35 4.85 -8.05 Q4.3 -6.15 3.65 -6.15 2.95 -6.15 2.4 -6.75 1.9 -7.25 1.9 -7.5 L2.2 -7.8 3.05 -8.45 3.35 -8.6 3.75 -9.25 2.85 -8.9 0.65 -7.85 1.45 -6.65 1.45 -6.7 Q1.65 -5.8 2.0 -5.3 L2.55 -3.45 3.2 0.1 3.25 2.75 Q3.35 8.75 2.15 8.75 1.45 8.75 1.65 8.0 L1.9 6.55 2.1 5.45 1.9 4.5 1.75 3.95 1.7 3.95 1.65 4.05 Q1.25 3.6 0.55 3.55 L-0.7 3.9 -1.35 4.3 -2.0 4.85 -2.15 5.25 -2.2 5.7 Q-2.75 9.2 -3.45 9.2 -4.1 9.2 -3.95 8.5 L-3.45 5.75 -3.2 3.15 -3.3 1.9 Q-3.95 0.8 -4.1 -0.6 L-4.65 -3.9 -5.1 -5.1 -5.05 -5.45 -5.05 -5.55 -5.15 -5.45 -5.15 -5.6 -5.6 -5.35 -7.15 -4.2 -7.75 -3.8 Q-8.35 -3.3 -8.7 -3.3 -9.5 -3.3 -9.55 -3.7 L-9.75 -3.9 -9.9 -4.25 -10.1 -4.55 -10.5 -5.6 -10.7 -6.05 -11.35 -7.25 -11.8 -8.35 -11.65 -8.5 -12.05 -9.8 Q-11.45 -10.65 -11.2 -10.3 L-11.0 -9.95 Q-10.2 -9.35 -8.7 -5.25 L-7.5 -6.2 -5.5 -7.35 -4.65 -7.8 -4.3 -8.05 Q-2.95 -8.9 -2.85 -8.2 L-2.2 -8.25 -1.25 -8.6 -1.5 -8.95 Q-1.5 -10.25 -0.35 -9.05 L1.85 -10.1 Q4.95 -11.4 5.35 -10.85 L5.7 -10.45 5.7 -10.3 5.8 -10.0" fill="#35250a" fill-rule="evenodd" stroke="none"/>
    <path d="M1.25 -11.1 L1.1 -9.3 1.1 -9.2 1.0 -8.85 Q0.95 -8.2 0.15 -7.85 L0.25 -7.75 -4.2 -7.2 -4.15 -7.25 -4.05 -7.4 -4.85 -7.7 -5.15 -8.35 -5.4 -9.7 -5.4 -9.75 -5.6 -11.0 -5.75 -13.0 Q-5.7 -14.0 -5.1 -14.45 L-4.35 -14.9 -3.45 -15.3 -3.3 -15.3 -2.55 -15.4 -0.45 -15.3 Q1.2 -14.8 1.3 -13.35 L1.25 -13.1 1.25 -11.95 1.25 -11.1" fill="#35250a" fill-rule="evenodd" stroke="none"/>
    <path d="M-10.7 -13.25 L-10.7 -12.65 -10.6 -11.95 -10.9 -10.4 -12.15 -7.45 -12.25 -6.95 -14.75 -7.95 -14.6 -8.4 -13.45 -11.4 -12.65 -12.75 -12.1 -13.2 -11.65 -13.65 -11.25 -14.7 -11.15 -14.9 -10.95 -15.45 -10.0 -15.05 -10.2 -14.5 -10.25 -14.3 -10.7 -13.25" fill="#35250a" fill-rule="evenodd" stroke="none"/>
  </g>
</svg>
