<?xml version="1.0" encoding="UTF-8" standalone="no"?>
<svg xmlns:ffdec="https://www.free-decompiler.com/flash" xmlns:xlink="http://www.w3.org/1999/xlink" ffdec:objectType="shape" height="22.8px" width="15.95px" xmlns="http://www.w3.org/2000/svg">
  <g transform="matrix(1.0, 0.0, 0.0, 1.0, 8.3, 14.15)">
    <path d="M4.65 -4.45 L5.7 -5.25 6.7 -5.85 Q6.85 -6.0 6.95 -5.95 7.4 -5.95 7.5 -5.35 L7.65 -5.05 7.6 -4.9 7.6 -4.75 5.95 -3.0 Q4.2 -1.45 3.5 -1.45 L3.4 -1.45 3.35 -1.45 Q2.8 -1.5 2.5 -1.85 L1.9 -2.6 1.55 -2.85 1.75 -2.15 1.95 -0.75 1.6 1.6 1.6 1.65 1.6 1.75 1.55 2.0 Q1.1 3.5 0.75 3.5 L0.7 3.5 0.0 5.0 1.0 6.55 1.95 7.9 1.45 8.45 Q0.95 8.45 0.05 6.9 L-0.75 5.95 -1.1 5.1 -0.8 3.95 -0.35 3.2 -2.1 2.5 Q-2.45 2.25 -2.75 2.25 -3.75 2.25 -4.6 3.0 L-5.0 3.45 -5.05 3.35 -5.5 3.8 -5.55 4.0 -5.6 4.3 -5.5 4.8 -5.0 5.9 -4.5 6.9 Q-4.15 7.8 -4.15 8.15 -4.15 8.65 -4.5 8.65 -5.0 8.65 -5.2 8.3 L-5.4 7.8 -5.8 6.7 -6.4 5.05 -6.5 5.1 -6.6 4.95 -6.7 4.75 -6.75 4.35 Q-6.75 3.3 -6.05 2.15 L-5.6 1.1 -5.5 1.0 -5.5 0.95 -5.3 -0.1 -5.4 -1.0 -5.4 -1.1 -5.45 -3.1 -5.5 -3.6 -5.95 -2.35 -6.6 -0.8 Q-7.4 0.75 -7.85 0.75 -8.3 0.75 -8.3 0.35 L-8.25 0.25 -8.3 0.0 -7.35 -1.8 -6.85 -3.6 -6.15 -5.45 -5.55 -6.25 -5.0 -6.7 -4.7 -6.6 Q-3.5 -7.55 -2.35 -7.55 -1.5 -7.55 -0.8 -7.1 L-0.7 -7.05 Q-0.3 -7.4 1.45 -5.5 L1.65 -5.3 3.25 -3.5 3.4 -3.65 4.65 -4.45" fill="#35250a" fill-rule="evenodd" stroke="none"/>
    <path d="M0.1 -9.8 L-0.1 -8.0 -0.1 -7.9 -0.2 -7.55 Q-0.2 -6.9 -1.05 -6.5 L-0.9 -6.45 -5.35 -5.9 -5.3 -5.95 -5.25 -6.1 -6.05 -6.45 -6.35 -7.05 -6.6 -8.4 -6.6 -8.45 -6.75 -9.7 -6.9 -11.7 Q-6.85 -12.7 -6.25 -13.15 L-5.5 -13.6 -4.6 -14.0 -4.45 -14.0 -3.7 -14.1 -1.6 -13.95 Q0.05 -13.5 0.1 -12.05 L0.1 -11.8 0.1 -10.65 0.1 -9.8" fill="#35250a" fill-rule="evenodd" stroke="none"/>
  </g>
</svg>
