<?xml version="1.0" encoding="UTF-8" standalone="no"?>
<svg xmlns:ffdec="https://www.free-decompiler.com/flash" xmlns:xlink="http://www.w3.org/1999/xlink" ffdec:objectType="shape" height="24.4px" width="13.35px" xmlns="http://www.w3.org/2000/svg">
  <g transform="matrix(1.0, 0.0, 0.0, 1.0, 6.05, 15.4)">
    <path d="M1.8 -7.75 Q2.15 -7.8 2.65 -7.25 L3.25 -6.2 4.55 -4.1 5.55 -5.3 6.65 -6.1 Q7.2 -6.1 7.3 -5.25 7.3 -4.65 6.45 -3.3 L5.75 -2.0 Q5.5 -1.55 5.05 -1.5 L4.75 -1.4 Q4.25 -1.4 2.7 -4.3 L2.6 -4.4 2.8 -3.65 2.9 -1.55 2.95 -0.4 3.05 -0.15 3.15 1.75 3.1 5.0 3.05 7.35 Q2.85 9.1 2.15 9.0 L1.95 9.0 Q1.75 9.0 1.6 7.45 L1.55 5.0 1.55 4.3 Q0.95 3.7 0.2 3.6 -1.9 3.4 -2.55 4.4 L-2.7 4.65 -2.65 7.55 -2.7 8.3 Q-2.9 8.7 -3.7 8.6 -3.95 8.6 -4.1 7.2 L-4.25 5.05 -4.35 0.35 -4.4 0.5 Q-4.9 2.75 -5.45 2.75 -6.1 2.75 -6.05 1.95 L-5.6 -0.65 -5.0 -3.1 -4.35 -5.6 Q-4.15 -6.45 -3.6 -6.9 L-3.55 -7.1 -3.4 -7.65 -2.9 -8.0 -2.6 -7.9 1.65 -7.9 1.8 -7.75" fill="#35250a" fill-rule="evenodd" stroke="none"/>
    <path d="M2.15 -13.05 L2.15 -11.9 2.15 -11.05 1.95 -9.25 1.95 -9.15 1.85 -8.8 Q1.85 -8.15 1.0 -7.75 L1.15 -7.7 -3.3 -7.15 -3.25 -7.2 -3.2 -7.35 -4.0 -7.7 -4.3 -8.3 -4.55 -9.65 -4.55 -9.7 -4.7 -10.95 -4.85 -12.95 Q-4.8 -13.95 -4.2 -14.4 L-3.45 -14.85 -2.55 -15.25 -2.4 -15.25 -1.65 -15.35 0.45 -15.2 Q2.1 -14.75 2.15 -13.3 L2.15 -13.05" fill="#35250a" fill-rule="evenodd" stroke="none"/>
  </g>
</svg>
