<?xml version="1.0" encoding="UTF-8" standalone="no"?>
<svg xmlns:ffdec="https://www.free-decompiler.com/flash" xmlns:xlink="http://www.w3.org/1999/xlink" ffdec:objectType="shape" height="22.45px" width="17.05px" xmlns="http://www.w3.org/2000/svg">
  <g transform="matrix(1.0, 0.0, 0.0, 1.0, 5.85, 13.5)">
    <path d="M1.4 -8.45 L1.9 -8.55 2.35 -8.1 0.95 -6.95 0.0 -6.3 -1.0 -5.85 Q-2.0 -5.85 -1.75 -7.5 L-1.6 -9.25 -1.35 -10.15 -0.75 -10.5 -0.5 -10.05 -0.75 -9.25 -0.9 -8.4 -0.9 -6.75 0.6 -7.75 1.4 -8.45" fill="#342409" fill-rule="evenodd" stroke="none"/>
    <path d="M1.5 -8.0 L1.7 -8.15 1.7 -8.3 1.8 -8.3 1.95 -8.45 2.2 -8.6 3.25 -8.65 Q4.9 -8.65 4.8 -8.0 4.8 -7.55 4.5 -7.6 L3.9 -7.65 4.3 -7.3 Q4.6 -7.1 5.05 -6.85 L6.8 -5.45 Q7.05 -5.6 7.5 -5.0 L7.75 -4.6 8.1 -4.3 8.2 -4.2 8.1 -4.15 8.75 -3.45 9.55 -2.45 10.0 -1.35 9.85 -1.0 9.5 0.2 9.1 1.45 Q8.35 3.75 7.75 3.7 L7.35 3.35 7.35 3.0 Q7.4 2.65 8.0 1.25 L8.6 -0.7 8.55 -1.8 7.85 -2.55 7.5 -3.05 7.4 -2.5 7.45 -2.15 7.15 -1.55 Q5.75 0.9 4.9 1.45 L4.8 1.75 3.65 2.9 3.6 2.95 3.7 3.15 3.7 3.25 3.65 3.2 3.05 6.05 2.8 7.6 Q2.65 9.05 2.1 8.95 1.4 8.9 1.7 8.1 L1.5 7.4 1.6 4.9 1.5 3.55 Q1.4 2.95 1.55 2.65 0.35 2.35 -0.4 1.75 L-1.75 0.6 -1.85 0.45 -1.7 0.3 -3.75 -3.0 -5.85 -6.7 Q-5.55 -8.0 -4.9 -7.35 L-4.55 -6.8 -4.3 -6.25 -3.5 -5.2 -3.0 -4.15 -2.2 -3.0 -1.7 -3.85 -0.45 -5.55 0.75 -7.2 1.5 -8.0" fill="#35250a" fill-opacity="0.9019608" fill-rule="evenodd" stroke="none"/>
    <path d="M5.85 -13.45 L6.7 -13.5 7.7 -13.35 7.8 -13.35 8.55 -13.05 Q8.85 -13.1 10.4 -11.95 11.55 -10.75 11.0 -9.5 L10.85 -9.25 10.3 -8.2 9.9 -7.55 8.95 -6.05 8.9 -5.95 8.6 -5.6 8.5 -5.45 Q8.1 -5.05 7.35 -5.15 L7.45 -5.0 3.25 -6.6 3.35 -6.6 3.45 -6.7 3.1 -7.2 3.0 -7.4 2.95 -8.1 3.35 -9.35 3.4 -9.45 3.8 -10.55 4.65 -12.4 Q5.15 -13.35 5.85 -13.45" fill="#35250a" fill-rule="evenodd" stroke="none"/>
  </g>
</svg>
