<?xml version="1.0" encoding="UTF-8" standalone="no"?>
<svg xmlns:ffdec="https://www.free-decompiler.com/flash" xmlns:xlink="http://www.w3.org/1999/xlink" ffdec:objectType="shape" height="22.15px" width="16.2px" xmlns="http://www.w3.org/2000/svg">
  <g transform="matrix(1.0, 0.0, 0.0, 1.0, 13.25, 14.05)">
    <path d="M1.15 -5.0 L1.75 -4.25 2.0 -3.55 2.3 -0.6 Q2.3 0.1 1.9 0.1 L1.45 -0.15 Q1.0 -0.15 0.9 -1.1 L0.8 -2.6 0.45 -4.35 0.15 -4.65 -0.8 -5.15 -1.9 -5.3 Q-2.35 -5.35 -2.35 -5.7 L-2.25 -6.0 -2.05 -6.1 -2.0 -6.1 -1.45 -6.3 Q-1.05 -6.3 -0.3 -5.9 L0.85 -5.75 1.15 -5.35 1.1 -5.05 1.15 -5.0 M-10.65 -0.8 Q-10.65 -1.4 -10.25 -2.25 L-9.45 -3.7 -8.65 -5.15 -8.2 -5.9 -7.5 -6.0 -7.35 -5.6 -7.55 -5.2 -7.8 -4.8 -8.05 -4.05 -8.4 -3.3 -8.8 -2.5 -9.4 -0.95 -9.7 -0.15 Q-9.7 0.45 -10.15 0.45 L-10.55 0.15 -10.55 -0.2 -10.65 -0.8" fill="#342409" fill-rule="evenodd" stroke="none"/>
    <path d="M-4.2 -6.2 L-3.15 -6.15 Q-3.1 -6.55 -2.5 -6.55 -1.15 -6.55 -0.7 -3.3 -0.65 -2.85 -0.9 -2.75 L-0.75 -1.1 Q-0.75 1.05 -1.3 2.15 L-1.25 2.3 -0.85 2.75 -0.8 2.75 -0.75 2.75 -0.05 3.95 0.05 4.1 1.5 5.9 2.25 6.6 2.95 7.5 2.55 7.85 2.45 8.0 2.25 8.1 Q1.7 8.1 1.45 7.65 L-0.35 5.55 -1.85 4.05 -2.45 3.4 -2.55 3.3 -3.2 3.4 -4.8 3.1 Q-6.1 2.8 -6.6 2.35 L-6.65 2.3 -6.8 2.25 -7.4 2.3 -8.05 2.45 -8.6 2.7 -9.8 3.35 -10.85 4.35 -11.15 5.0 -11.5 5.7 -11.95 6.3 -12.0 6.45 -12.3 7.2 -12.35 7.2 Q-13.25 7.2 -13.25 6.6 L-13.0 6.15 -13.0 6.1 -12.35 4.4 -11.5 3.15 -11.5 3.2 -11.5 3.0 -10.65 2.35 -10.0 1.75 -8.05 0.7 -8.1 0.45 -8.3 -1.05 -8.3 -2.5 -8.15 -4.75 Q-8.05 -5.5 -7.75 -5.85 L-6.65 -6.45 Q-6.25 -6.5 -6.25 -6.05 L-6.25 -6.0 -4.85 -6.2 -4.2 -6.2" fill="#35250a" fill-opacity="0.9019608" fill-rule="evenodd" stroke="none"/>
    <path d="M-3.05 -13.8 Q-1.4 -13.25 -1.4 -11.8 L-1.4 -11.55 -1.5 -10.4 -1.5 -9.6 -1.75 -7.8 -1.75 -7.7 -1.9 -7.35 Q-1.9 -6.6 -2.8 -6.35 L-2.65 -6.25 -7.1 -5.9 -7.05 -5.95 -7.05 -6.1 -7.75 -6.4 Q-8.05 -6.7 -8.0 -7.05 L-8.25 -8.4 -8.25 -8.45 -8.35 -9.7 -8.45 -11.7 Q-8.3 -12.7 -7.75 -13.15 L-7.0 -13.55 -6.05 -13.95 -5.9 -13.95 -5.15 -14.0 -3.05 -13.8" fill="#35250a" fill-rule="evenodd" stroke="none"/>
  </g>
</svg>
