<?xml version="1.0" encoding="UTF-8" standalone="no"?>
<svg xmlns:ffdec="https://www.free-decompiler.com/flash" xmlns:xlink="http://www.w3.org/1999/xlink" ffdec:objectType="shape" height="22.85px" width="17.55px" xmlns="http://www.w3.org/2000/svg">
  <g transform="matrix(1.0, 0.0, 0.0, 1.0, 22.05, 15.75)">
    <path d="M-16.4 -13.65 L-16.2 -13.25 -16.2 -12.95 -15.45 -11.55 -14.1 -10.15 -13.0 -9.45 Q-12.55 -9.1 -12.55 -8.75 -12.55 -8.25 -13.0 -8.25 -13.5 -8.25 -14.75 -9.2 L-16.4 -10.7 Q-16.7 -11.05 -17.0 -11.95 L-17.05 -13.5 -16.4 -13.65" fill="#342409" fill-rule="evenodd" stroke="none"/>
    <path d="M-22.05 -3.05 Q-22.15 -3.7 -21.5 -3.85 L-21.4 -4.0 -20.55 -4.1 -20.55 -4.15 -20.05 -4.15 -18.25 -3.7 -18.15 -3.7 -17.5 -3.55 -17.55 -4.4 -16.05 -7.1 -15.2 -8.75 -14.9 -8.9 -15.15 -8.9 -15.05 -9.05 -14.55 -9.5 -14.0 -9.8 -13.9 -9.75 -13.25 -9.8 Q-12.35 -9.65 -12.1 -9.3 L-11.3 -8.95 Q-9.95 -8.25 -9.35 -7.75 -9.15 -7.95 -8.6 -7.4 L-8.3 -7.05 -7.95 -6.8 -7.85 -6.7 -7.9 -6.65 -7.2 -6.0 -6.3 -5.1 -5.7 -4.05 Q-5.7 -3.8 -5.85 -3.7 L-6.05 -2.45 -6.3 -1.2 Q-6.75 1.2 -7.35 1.2 L-7.8 0.9 -7.8 0.55 -7.4 -1.25 -7.0 -3.25 -7.2 -4.3 -8.0 -5.0 -8.4 -5.5 -8.4 -4.9 -8.35 -4.55 -8.55 -3.9 Q-9.65 -1.35 -10.4 -0.7 L-10.5 -0.4 -11.55 0.9 -11.55 0.95 -11.45 1.15 -11.45 1.25 -11.5 1.2 -11.75 4.1 -11.8 5.65 Q-11.8 7.1 -12.35 7.1 -13.05 7.1 -12.85 6.3 L-13.1 5.65 -13.3 3.15 -13.55 1.85 -13.65 0.9 -15.65 0.25 -17.15 -0.75 -17.5 -1.25 -18.05 -1.75 -19.0 -2.15 -19.9 -2.4 -20.2 -2.35 -20.1 -1.95 -19.85 -1.35 -19.9 -0.8 -19.8 -0.55 -19.6 0.0 -19.15 1.1 -19.15 1.3 -19.0 1.6 -19.15 1.6 -19.2 1.65 -19.4 1.8 -19.75 1.65 -20.55 0.55 -21.4 -1.6 -21.6 -1.9 -22.05 -3.05" fill="#35250a" fill-opacity="0.9019608" fill-rule="evenodd" stroke="none"/>
    <path d="M-6.5 -14.9 L-4.95 -13.45 Q-4.05 -12.05 -4.95 -10.85 L-5.1 -10.65 -5.85 -9.75 -6.4 -9.15 -7.65 -7.9 -7.7 -7.85 -8.05 -7.6 Q-8.5 -7.05 -9.4 -7.35 L-9.35 -7.2 -13.05 -9.6 -13.05 -9.65 -12.85 -9.75 -13.25 -10.5 -13.05 -11.15 -12.4 -12.35 -11.7 -13.4 -10.5 -15.05 Q-9.8 -15.85 -9.05 -15.75 L-8.2 -15.65 -7.25 -15.35 -7.15 -15.3 -6.5 -14.9" fill="#35250a" fill-rule="evenodd" stroke="none"/>
  </g>
</svg>
