<?xml version="1.0" encoding="UTF-8" standalone="no"?>
<svg xmlns:ffdec="https://www.free-decompiler.com/flash" xmlns:xlink="http://www.w3.org/1999/xlink" ffdec:objectType="shape" height="22.35px" width="20.5px" xmlns="http://www.w3.org/2000/svg">
  <g transform="matrix(1.0, 0.0, 0.0, 1.0, 22.3, 14.8)">
    <path d="M-6.8 -3.95 L-8.05 -2.2 -8.8 -1.3 -9.0 -0.9 -9.8 -0.3 -10.0 -0.05 -10.95 1.15 -11.5 2.25 -11.75 3.75 -11.95 7.0 Q-12.0 7.6 -12.5 7.55 -13.6 7.45 -12.95 1.65 L-12.65 0.45 Q-13.45 0.2 -14.25 -0.5 L-15.5 -1.8 Q-16.15 -2.35 -16.25 -3.4 L-16.5 -3.55 Q-17.05 -3.7 -18.15 -5.05 L-18.55 -5.5 -22.3 -9.85 -22.1 -10.35 -22.1 -10.4 Q-22.0 -11.45 -20.8 -10.1 L-18.85 -7.75 -17.35 -6.05 -17.0 -5.65 -16.05 -4.7 -15.7 -4.95 -15.5 -4.9 -15.05 -5.1 Q-14.6 -5.95 -13.45 -6.8 L-11.1 -8.2 -9.95 -8.2 Q-9.5 -8.2 -9.5 -8.5 L-9.75 -8.75 -9.9 -8.8 -8.45 -9.15 Q-8.1 -9.15 -7.75 -8.45 L-6.75 -7.65 -6.25 -6.8 -6.25 -6.6 -6.6 -6.35 -6.65 -5.8 -6.8 -5.2 -6.8 -3.95" fill="#35250a" fill-opacity="0.9019608" fill-rule="evenodd" stroke="none"/>
    <path d="M-11.1 -8.2 L-13.55 -8.55 -13.85 -8.3 Q-14.15 -8.3 -14.25 -8.5 L-14.35 -8.8 -14.65 -9.35 -14.95 -10.35 -14.85 -10.65 -14.75 -10.95 Q-14.75 -11.35 -14.3 -11.35 -13.9 -11.35 -13.7 -10.25 L-13.55 -9.15 -12.75 -9.2 -11.05 -9.1 -10.65 -8.95 -9.9 -8.8 -9.75 -8.75 -9.5 -8.5 Q-9.5 -8.2 -9.95 -8.2 L-11.1 -8.2 M-6.25 -6.6 L-6.05 -6.4 -5.95 -5.75 -5.95 -0.85 -6.2 0.1 -6.2 0.65 Q-6.3 1.15 -6.55 1.15 -7.05 1.15 -6.95 0.1 L-6.8 -3.95 -6.8 -5.2 -6.65 -5.8 -6.6 -6.35 -6.25 -6.6" fill="#342409" fill-rule="evenodd" stroke="none"/>
    <path d="M-4.15 -14.1 L-3.55 -13.65 -2.2 -12.05 Q-1.35 -10.55 -2.4 -9.5 L-2.6 -9.3 -3.45 -8.5 -4.05 -7.9 -5.4 -6.8 -5.5 -6.75 -5.8 -6.55 -7.2 -6.45 -7.15 -6.35 -10.6 -9.1 -10.6 -9.15 -10.4 -9.15 -10.7 -10.0 -10.45 -10.6 -9.65 -11.75 -9.6 -11.8 -8.85 -12.75 -7.55 -14.2 Q-6.8 -14.95 -6.0 -14.8 L-5.2 -14.6 -4.25 -14.2 -4.15 -14.1" fill="#35250a" fill-rule="evenodd" stroke="none"/>
  </g>
</svg>
