<?xml version="1.0" encoding="UTF-8" standalone="no"?>
<svg xmlns:ffdec="https://www.free-decompiler.com/flash" xmlns:xlink="http://www.w3.org/1999/xlink" ffdec:objectType="shape" height="23.85px" width="11.15px" xmlns="http://www.w3.org/2000/svg">
  <g transform="matrix(1.0, 0.0, 0.0, 1.0, 30.5, 8.7)">
    <path d="M-22.25 -0.4 L-21.3 0.25 -21.0 0.95 Q-20.15 2.25 -19.8 3.65 L-19.6 4.55 -19.5 4.8 -19.5 5.3 -19.35 6.3 Q-19.35 6.8 -19.75 6.8 L-19.8 6.8 -19.8 6.9 -19.85 7.45 Q-19.8 8.05 -20.15 8.15 -20.5 8.3 -20.65 7.85 L-20.7 7.75 -20.75 7.6 -20.8 6.25 -20.75 5.25 -21.3 3.2 -21.4 2.85 -21.65 2.6 -21.5 5.6 -21.6 6.95 Q-21.6 7.7 -22.0 8.5 L-22.2 9.0 -22.2 9.25 Q-22.0 9.75 -22.15 10.35 L-22.25 12.15 -22.2 13.5 -22.15 14.4 -22.2 14.6 Q-22.15 15.0 -22.55 15.15 -22.85 15.25 -23.1 14.85 L-23.05 14.75 -23.25 14.55 -23.3 14.4 -23.45 13.9 -23.65 12.65 Q-23.5 12.45 -23.5 12.0 -23.5 11.35 -23.8 10.75 L-23.8 10.6 -23.85 10.6 -23.95 10.5 Q-24.2 9.95 -24.65 9.95 L-25.65 9.3 -27.2 8.9 -28.05 8.8 -28.1 8.7 Q-28.55 8.65 -29.45 8.0 L-29.5 8.2 -28.65 9.45 Q-27.85 10.5 -27.85 10.85 -27.85 11.35 -28.25 11.35 -29.35 11.35 -30.5 7.8 L-30.15 7.0 -29.7 6.4 -29.0 6.35 -28.9 6.4 -28.9 6.1 -29.05 5.75 -29.15 4.45 -29.0 2.2 -28.8 1.35 -28.9 1.05 Q-28.9 0.4 -27.55 -0.3 -26.15 -1.1 -24.85 -1.05 L-22.25 -0.4" fill="#35250a" fill-opacity="0.9019608" fill-rule="evenodd" stroke="none"/>
    <path d="M-24.8 -8.5 L-23.9 -8.2 Q-23.2 -7.95 -23.0 -6.9 L-22.7 -4.9 -22.55 -3.7 -22.6 -3.65 -22.55 -2.3 Q-22.4 -2.0 -22.7 -1.65 L-23.4 -1.1 -23.25 -0.95 -27.65 -0.5 -27.5 -0.65 Q-28.45 -0.8 -28.65 -1.5 L-28.8 -1.8 -28.85 -1.9 -29.4 -3.65 -29.55 -4.4 -29.85 -5.5 -29.9 -5.8 Q-30.15 -7.25 -28.7 -8.05 L-26.6 -8.55 -25.85 -8.65 -25.75 -8.7 -24.8 -8.5" fill="#35250a" fill-rule="evenodd" stroke="none"/>
  </g>
</svg>
