<?xml version="1.0" encoding="UTF-8" standalone="no"?>
<svg xmlns:ffdec="https://www.free-decompiler.com/flash" xmlns:xlink="http://www.w3.org/1999/xlink" ffdec:objectType="shape" height="22.85px" width="17.55px" xmlns="http://www.w3.org/2000/svg">
  <g transform="matrix(1.0, 0.0, 0.0, 1.0, 46.75, 7.95)">
    <path d="M-46.75 4.75 Q-46.85 4.1 -46.2 3.95 L-46.1 3.8 -45.25 3.7 -45.25 3.65 -44.75 3.65 Q-44.05 3.65 -42.95 4.1 L-42.85 4.1 -42.2 4.25 -42.25 3.4 -40.75 0.7 -39.9 -0.95 -39.6 -1.1 -39.85 -1.1 -39.75 -1.25 -39.25 -1.7 -38.7 -2.0 -38.6 -1.95 -37.95 -2.0 Q-37.05 -1.85 -36.8 -1.5 L-36.0 -1.15 Q-34.65 -0.45 -34.05 0.05 -33.85 -0.15 -33.3 0.4 -33.0 0.5 -33.0 0.75 L-32.65 1.0 -32.55 1.1 -32.6 1.15 -31.9 1.8 -31.0 2.7 Q-30.4 3.4 -30.4 3.75 -30.4 4.0 -30.55 4.1 L-30.75 5.35 -31.0 6.6 Q-31.45 9.0 -32.05 9.0 L-32.5 8.7 -32.5 8.35 -32.1 6.55 -31.7 4.55 -31.9 3.5 -32.7 2.8 -33.1 2.3 -33.1 2.9 -33.05 3.25 -33.25 3.9 Q-34.35 6.45 -35.1 7.1 L-35.2 7.4 Q-35.85 8.4 -36.25 8.7 L-36.25 8.75 -36.15 8.95 -36.15 9.05 -36.2 9.0 -36.45 11.9 -36.5 13.45 Q-36.5 14.9 -37.05 14.9 -37.75 14.9 -37.55 14.1 L-37.8 13.45 -38.0 10.95 -38.25 9.65 -38.35 8.7 Q-39.55 8.55 -40.35 8.05 L-41.85 7.05 -42.2 6.55 -42.75 6.05 -43.7 5.65 -44.6 5.4 -44.9 5.45 -44.8 5.85 -44.55 6.45 -44.6 7.0 -44.5 7.25 -44.3 7.8 Q-43.9 8.6 -43.85 8.9 L-43.85 9.1 -43.7 9.4 -43.85 9.4 -43.9 9.45 -44.1 9.6 -44.45 9.45 -45.25 8.35 -46.1 6.2 -46.3 5.9 -46.75 4.75" fill="#35250a" fill-opacity="0.9019608" fill-rule="evenodd" stroke="none"/>
    <path d="M-31.2 -7.1 L-29.65 -5.65 Q-28.75 -4.25 -29.65 -3.05 L-29.8 -2.85 -30.55 -1.95 -31.1 -1.35 -32.35 -0.1 -32.4 -0.05 -32.75 0.2 Q-33.2 0.75 -34.1 0.45 L-34.05 0.6 -37.75 -1.8 -37.75 -1.85 -37.55 -1.95 -37.95 -2.7 -37.75 -3.35 -37.1 -4.55 -36.4 -5.6 -35.2 -7.25 Q-34.5 -8.05 -33.75 -7.95 L-32.9 -7.85 -31.95 -7.55 -31.85 -7.5 -31.2 -7.1" fill="#35250a" fill-rule="evenodd" stroke="none"/>
  </g>
</svg>
