<?xml version="1.0" encoding="UTF-8" standalone="no"?>
<svg xmlns:ffdec="https://www.free-decompiler.com/flash" xmlns:xlink="http://www.w3.org/1999/xlink" ffdec:objectType="shape" height="16.45px" width="339.95px" xmlns="http://www.w3.org/2000/svg">
  <g transform="matrix(1.0, 0.0, 0.0, 1.0, -0.85, 0.3)">
    <path d="M326.55 2.15 L326.55 13.75 Q326.6 15.4 329.4 15.4 L337.3 15.4 Q340.05 15.4 340.05 13.7 L340.05 2.2 Q340.05 0.45 337.3 0.45 L329.4 0.45 Q326.6 0.45 326.55 2.15 326.5 0.45 323.75 0.45 L315.85 0.45 Q313.05 0.45 313.05 2.0 L313.05 13.9 Q313.05 15.4 315.85 15.4 L323.75 15.4 Q326.5 15.4 326.55 13.75 M313.05 2.0 Q312.95 0.45 310.35 0.45 L302.3 0.45 Q299.55 0.45 299.55 2.2 L299.55 13.7 Q299.55 15.4 302.3 15.4 L310.35 15.4 Q312.95 15.4 313.05 13.9 M245.35 2.15 Q245.35 0.45 248.1 0.45 L256.1 0.45 Q258.8 0.45 258.85 2.15 258.9 0.45 261.65 0.45 L269.6 0.45 Q272.35 0.45 272.45 2.15 272.5 0.45 275.1 0.45 L283.15 0.45 284.7 0.65 285.4 1.05 Q285.9 1.45 285.9 2.15 285.95 0.45 288.65 0.45 L296.6 0.45 Q299.4 0.45 299.4 2.2 L299.4 13.7 Q299.4 15.4 296.6 15.4 L288.65 15.4 Q285.95 15.4 285.9 13.75 285.9 14.45 285.4 14.85 L284.8 15.15 284.7 15.2 283.15 15.4 275.1 15.4 Q272.5 15.4 272.45 13.75 272.35 15.4 269.6 15.4 L261.65 15.4 Q258.9 15.4 258.85 13.75 258.8 15.4 256.1 15.4 L248.1 15.4 Q245.35 15.4 245.35 13.75 M285.9 13.75 L285.9 2.15 M272.45 13.75 L272.45 2.15 M258.85 13.75 L258.85 2.15 M231.6 1.55 Q232.0 0.5 234.15 0.45 L242.2 0.45 Q244.9 0.45 244.95 2.15 L244.95 13.75 Q244.9 15.4 242.2 15.4 L234.15 15.4 Q232.0 15.4 231.6 14.35 231.15 15.4 228.95 15.4 L220.95 15.4 Q218.25 15.4 218.2 13.75 218.15 15.4 215.4 15.4 L207.45 15.4 Q204.75 15.4 204.7 13.75 204.65 15.4 201.9 15.4 L193.95 15.4 Q191.25 15.4 191.15 13.75 191.1 15.4 188.35 15.4 L180.45 15.4 Q177.75 15.4 177.7 14.0 177.6 15.4 174.9 15.4 L166.95 15.4 Q164.1 15.4 164.1 13.7 L164.1 2.2 Q164.1 0.45 166.95 0.45 L174.9 0.45 Q177.6 0.45 177.7 1.9 177.75 0.45 180.45 0.45 L188.35 0.45 Q191.1 0.45 191.15 2.15 191.25 0.45 193.95 0.45 L201.9 0.45 Q204.65 0.45 204.7 2.15 204.75 0.45 207.45 0.45 L215.4 0.45 Q218.15 0.45 218.2 2.15 218.25 0.45 220.95 0.45 L228.95 0.45 Q231.15 0.45 231.6 1.55 L231.5 2.2 231.5 13.7 231.6 14.35 M204.7 13.75 L204.7 2.15 M218.2 13.75 L218.2 2.15 M191.15 2.15 L191.15 13.75 M177.7 14.0 L177.7 1.9 M150.5 2.15 Q150.55 0.45 153.2 0.45 L161.25 0.45 Q164.0 0.45 164.0 2.2 L164.0 13.7 Q164.0 15.4 161.25 15.4 L153.2 15.4 Q150.55 15.4 150.5 13.75 150.45 15.4 147.7 15.4 L139.8 15.4 Q137.05 15.4 137.05 13.8 136.95 15.4 134.2 15.4 L126.25 15.4 Q123.55 15.4 123.5 13.85 123.4 15.4 120.65 15.4 L112.75 15.4 Q110.0 15.4 109.95 14.0 109.85 15.4 107.15 15.4 L99.2 15.4 Q96.45 15.4 96.45 13.7 L96.45 2.2 Q96.45 0.45 99.2 0.45 L107.15 0.45 Q109.85 0.45 109.95 1.9 110.0 0.45 112.75 0.45 L120.65 0.45 Q123.4 0.45 123.5 2.05 123.55 0.45 126.25 0.45 L134.2 0.45 Q136.95 0.45 137.05 2.1 137.05 0.45 139.8 0.45 L147.7 0.45 Q150.45 0.45 150.5 2.15 L150.5 13.75 M123.5 13.85 L123.5 2.05 M137.05 13.8 L137.05 2.1 M109.95 14.0 L109.95 1.9 M82.8 2.05 Q82.9 0.45 85.55 0.45 L93.5 0.45 Q96.25 0.45 96.25 2.2 L96.25 13.7 Q96.25 15.4 93.5 15.4 L85.55 15.4 Q82.9 15.4 82.8 13.85 82.75 15.4 80.05 15.4 L72.05 15.4 Q69.3 15.4 69.25 13.75 69.2 15.4 66.5 15.4 L58.55 15.4 Q55.75 15.4 55.7 13.75 55.65 15.4 52.95 15.4 L45.05 15.4 Q42.35 15.4 42.25 14.0 42.2 15.4 39.5 15.4 L31.5 15.4 Q28.75 15.4 28.75 13.7 L28.75 2.2 Q28.75 0.45 31.5 0.45 L39.5 0.45 Q42.2 0.45 42.25 1.9 42.35 0.45 45.05 0.45 L52.95 0.45 Q55.65 0.45 55.7 2.15 55.75 0.45 58.55 0.45 L66.5 0.45 Q69.2 0.45 69.25 2.15 69.3 0.45 72.05 0.45 L80.05 0.45 Q82.75 0.45 82.8 2.05 L82.8 13.85 M69.25 13.75 L69.25 2.15 M42.25 14.0 L42.25 1.9 M55.7 13.75 L55.7 2.15 M15.1 13.75 Q15.2 15.1 17.0 15.35 L17.85 15.4 25.75 15.4 Q28.6 15.4 28.6 13.7 L28.6 2.2 Q28.6 0.45 25.75 0.45 L17.85 0.45 17.0 0.5 Q15.2 0.75 15.1 2.15 L15.1 13.75 Q15.05 15.4 12.35 15.4 L4.35 15.4 Q1.6 15.4 1.6 13.7 L1.6 2.2 Q1.6 0.45 4.35 0.45 L12.35 0.45 Q15.05 0.45 15.1 2.15" fill="none" stroke="#100200" stroke-linecap="round" stroke-linejoin="round" stroke-width="1.5"/>
  </g>
</svg>
