<?xml version="1.0" encoding="UTF-8" standalone="no"?>
<svg xmlns:ffdec="https://www.free-decompiler.com/flash" xmlns:xlink="http://www.w3.org/1999/xlink" ffdec:objectType="shape" height="21.95px" width="17.35px" xmlns="http://www.w3.org/2000/svg">
  <g transform="matrix(1.0, 0.0, 0.0, 1.0, 43.35, 7.3)">
    <path d="M-42.05 -1.7 L-41.85 -1.1 -41.15 0.0 -40.75 1.1 -40.05 2.35 -39.5 1.55 -38.05 -0.05 -36.7 -1.55 -35.9 -2.3 -35.65 -2.45 -35.65 -2.6 -35.55 -2.55 -35.4 -2.7 -35.1 -2.85 -34.05 -2.8 Q-32.45 -2.6 -32.65 -2.0 -32.65 -1.55 -32.95 -1.6 L-33.55 -1.7 -33.2 -1.35 -32.5 -0.8 -30.85 0.75 Q-30.6 0.65 -30.2 1.3 -29.95 1.45 -30.0 1.7 L-29.7 2.05 -29.6 2.15 -29.7 2.2 -29.1 2.95 -28.4 4.0 Q-28.0 4.8 -28.05 5.15 L-28.25 5.5 -28.7 6.6 -29.25 7.85 Q-30.2 10.05 -30.8 9.95 -31.2 9.85 -31.15 9.55 L-31.15 9.2 -30.3 7.55 -29.55 5.7 -29.45 4.6 -30.1 3.75 -30.4 3.25 -30.55 3.75 -30.55 4.1 -30.9 4.7 Q-32.55 6.95 -33.45 7.45 L-33.55 7.7 -34.85 8.75 -34.9 8.8 -34.8 9.0 -34.8 9.1 -34.85 9.05 -35.7 11.85 -36.1 13.4 Q-36.35 14.8 -36.9 14.65 -37.6 14.55 -37.2 13.75 L-37.35 13.05 -37.0 10.55 -37.0 9.2 -36.85 8.3 Q-38.0 7.9 -38.7 7.2 L-39.95 5.95 -40.05 5.8 -39.9 5.65 -41.6 2.2 -43.35 -1.7 Q-42.95 -2.95 -42.35 -2.25 L-42.05 -1.7" fill="#35250a" fill-opacity="0.9019608" fill-rule="evenodd" stroke="none"/>
    <path d="M-31.05 -7.3 L-30.15 -7.25 -29.15 -7.05 -29.05 -7.0 -28.35 -6.65 -26.65 -5.4 Q-25.55 -4.1 -26.3 -2.9 L-26.45 -2.65 -27.1 -1.7 -27.5 -1.05 -28.6 0.35 -28.7 0.45 -29.0 0.75 -29.15 0.9 -30.35 1.1 -30.25 1.2 -34.3 -0.75 -34.2 -0.75 -34.05 -0.85 -34.4 -1.4 -34.5 -1.6 -34.4 -2.2 -33.9 -3.5 -33.85 -3.55 -33.3 -4.65 -32.3 -6.35 Q-31.75 -7.25 -31.05 -7.3" fill="#35250a" fill-rule="evenodd" stroke="none"/>
  </g>
</svg>
