<?xml version="1.0" encoding="UTF-8" standalone="no"?>
<svg xmlns:ffdec="https://www.free-decompiler.com/flash" xmlns:xlink="http://www.w3.org/1999/xlink" ffdec:objectType="shape" height="20.6px" width="18.05px" xmlns="http://www.w3.org/2000/svg">
  <g transform="matrix(1.0, 0.0, 0.0, 1.0, 71.0, 0.35)">
    <path d="M-58.45 11.1 L-58.3 11.9 -58.45 12.8 -58.35 12.9 -57.3 14.15 -55.05 15.8 Q-54.35 16.0 -53.8 16.4 -53.0 16.7 -52.95 16.95 -52.9 17.35 -53.4 17.4 -53.95 17.5 -55.45 16.6 L-57.4 15.4 -58.8 14.2 -58.95 13.9 -59.05 13.75 -59.3 13.95 -59.95 14.35 -62.3 14.95 -64.55 14.9 -64.75 14.85 -65.3 15.45 -65.65 15.85 -65.9 16.5 -65.9 17.1 -65.4 18.5 -65.1 19.1 -64.9 19.65 Q-64.8 20.15 -65.2 20.2 L-65.3 20.2 -65.4 20.25 Q-65.65 20.3 -65.9 20.05 L-65.6 20.1 -65.75 19.95 Q-66.5 19.45 -67.6 17.55 -67.7 17.0 -67.45 16.5 L-66.95 15.6 -66.35 14.5 -65.9 13.9 -65.9 13.8 -65.5 12.35 Q-65.1 10.95 -65.25 10.25 L-65.45 9.45 -65.95 8.75 -66.25 8.4 -66.1 8.0 Q-66.2 7.4 -65.75 6.65 -65.0 5.45 -63.2 5.2 L-63.15 5.15 Q-63.1 4.9 -62.65 4.85 -62.2 4.75 -60.7 6.2 L-59.55 7.8 Q-58.65 9.65 -58.45 11.1" fill="#35250a" fill-opacity="0.9019608" fill-rule="evenodd" stroke="none"/>
    <path d="M-64.95 0.65 L-64.3 1.55 -63.8 2.15 -62.9 3.7 -62.8 3.8 -62.65 4.15 Q-62.25 4.7 -62.8 5.5 L-62.65 5.5 -65.9 8.6 -65.85 8.45 -65.9 8.3 -66.65 8.6 -67.3 8.25 -68.25 7.25 -68.3 7.25 -69.2 6.45 -70.55 4.85 Q-71.1 4.0 -70.95 3.3 L-70.6 2.5 -70.1 1.6 -70.0 1.5 -69.45 1.0 -67.7 -0.15 Q-66.05 -0.75 -65.1 0.4 L-64.95 0.65" fill="#35250a" fill-rule="evenodd" stroke="none"/>
  </g>
</svg>
