<?xml version="1.0" encoding="UTF-8" standalone="no"?>
<svg xmlns:ffdec="https://www.free-decompiler.com/flash" xmlns:xlink="http://www.w3.org/1999/xlink" ffdec:objectType="shape" height="22.7px" width="15.55px" xmlns="http://www.w3.org/2000/svg">
  <g transform="matrix(1.0, 0.0, 0.0, 1.0, 78.3, 2.3)">
    <path d="M-66.75 5.85 L-66.8 5.9 -65.85 6.25 -64.65 6.65 Q-63.8 7.05 -63.65 7.35 L-63.65 7.8 -63.35 9.0 -63.05 10.2 Q-62.5 12.6 -63.0 12.85 L-63.6 12.8 -63.7 12.45 -64.05 10.6 -64.55 8.65 -65.15 7.8 -66.15 7.45 -66.75 7.15 -66.5 7.7 -66.3 8.0 -66.2 8.7 Q-66.15 11.5 -66.6 12.35 L-66.55 12.7 -67.0 14.3 -66.95 14.35 -66.8 14.45 -66.75 14.55 -66.8 14.55 -65.85 17.3 -65.3 18.7 Q-64.7 20.05 -65.2 20.3 -65.8 20.6 -65.95 19.75 L-66.45 19.25 -67.65 17.1 -68.45 16.0 -68.9 15.15 -71.0 15.4 -72.75 15.1 -73.3 14.75 -74.0 14.55 -75.05 14.55 -75.95 14.7 -76.2 14.85 -75.95 15.2 -75.45 15.65 -75.3 16.2 -75.15 16.35 -74.7 16.75 -73.85 17.6 -73.75 17.8 -73.5 17.95 -73.65 18.05 -73.65 18.1 -73.75 18.35 -74.15 18.3 -75.3 17.65 -77.0 16.05 -77.3 15.9 -78.2 15.0 Q-78.5 14.45 -78.05 14.05 L-78.0 13.85 -77.25 13.4 -76.8 13.2 -74.95 12.85 -74.85 12.8 -74.25 12.65 -74.65 11.9 -74.35 8.85 -74.3 7.0 -74.05 6.75 -74.3 6.85 -74.25 6.65 -74.0 6.05 -73.6 5.5 -73.5 5.55 -72.9 5.2 -71.65 5.25 -70.8 5.2 -68.55 5.5 Q-68.4 5.25 -67.7 5.5 -67.4 5.5 -67.3 5.75 L-66.85 5.8 -66.75 5.85" fill="#35250a" fill-opacity="0.9019608" fill-rule="evenodd" stroke="none"/>
    <path d="M-66.85 -1.5 Q-65.45 -0.6 -65.8 0.85 L-65.8 1.1 -66.15 2.25 -66.4 3.0 -67.05 4.65 -67.05 4.75 -67.25 5.15 Q-67.45 5.8 -68.4 5.9 L-68.3 6.0 -72.65 5.35 -72.65 5.3 -72.55 5.1 -73.2 4.6 -73.25 3.95 -73.2 2.55 -73.0 1.3 -72.55 -0.65 Q-72.25 -1.7 -71.5 -1.9 L-70.7 -2.15 -69.75 -2.3 -69.6 -2.3 -68.85 -2.2 -66.85 -1.5" fill="#35250a" fill-rule="evenodd" stroke="none"/>
  </g>
</svg>
