<?xml version="1.0" encoding="UTF-8" standalone="no"?>
<svg xmlns:ffdec="https://www.free-decompiler.com/flash" xmlns:xlink="http://www.w3.org/1999/xlink" ffdec:objectType="shape" height="17.35px" width="9.25px" xmlns="http://www.w3.org/2000/svg">
  <g transform="matrix(1.0, 0.0, 0.0, 1.0, 89.6, -5.65)">
    <path d="M-80.7 23.0 L-80.85 23.0 -82.5 21.95 -83.4 21.1 -83.7 20.65 -85.15 18.3 -87.45 13.85 -88.5 11.65 -89.5 9.35 -89.6 8.95 -88.9 7.0 -88.35 5.65 Q-87.4 5.7 -86.95 6.55 L-86.9 6.75 -86.55 7.65 -86.3 8.25 -85.8 9.75 -85.75 9.8 -85.75 10.15 Q-85.6 10.45 -85.75 10.8 L-84.55 12.25 -83.95 13.75 Q-83.6 15.45 -83.75 16.75 L-83.85 17.45 -84.15 18.2 -84.1 18.3 -83.45 19.6 -82.35 20.9 -81.9 21.3 -81.0 22.0 -80.7 22.2 Q-80.35 22.4 -80.35 22.6 -80.4 22.95 -80.7 23.0" fill="#35250a" fill-opacity="0.29803923" fill-rule="evenodd" stroke="none"/>
  </g>
</svg>
