<?xml version="1.0" encoding="UTF-8" standalone="no"?>
<svg xmlns:ffdec="https://www.free-decompiler.com/flash" xmlns:xlink="http://www.w3.org/1999/xlink" ffdec:objectType="shape" height="24.7px" width="11.8px" xmlns="http://www.w3.org/2000/svg">
  <g transform="matrix(1.0, 0.0, 0.0, 1.0, 7.1, 24.4)">
    <path d="M3.15 -13.05 L2.9 -10.1 Q2.6 -8.4 2.05 -7.8 L1.9 -7.65 1.8 -7.6 1.75 -7.5 1.7 -7.25 1.05 -7.0 1.05 -6.8 1.1 -5.85 Q1.5 -4.45 3.2 -3.85 4.7 -3.35 4.7 -2.8 4.7 -2.0 3.7 -2.0 1.35 -2.0 0.15 -4.25 L-0.35 -5.5 -0.35 -5.45 -0.8 -6.15 -1.35 -6.25 -1.25 -5.1 -0.75 -2.8 -0.2 -1.7 0.25 -0.55 Q0.25 0.3 -0.6 0.3 -1.7 0.3 -2.4 -2.3 L-2.95 -4.0 Q-3.25 -5.05 -3.25 -7.2 L-3.35 -7.65 -3.35 -7.8 -3.35 -8.25 -3.1 -11.5 Q-3.1 -12.8 -3.45 -13.8 -3.8 -14.85 -3.8 -15.85 L-3.8 -16.55 -3.9 -16.95 Q-3.9 -18.2 -0.5 -18.2 1.9 -18.2 2.75 -15.7 3.2 -14.45 3.15 -13.05" fill="#35250a" fill-rule="evenodd" stroke="none"/>
    <path d="M1.0 -19.8 L1.05 -19.45 Q1.45 -18.85 0.85 -18.1 L1.0 -18.05 -2.55 -15.4 -2.55 -15.45 -2.55 -15.6 -3.45 -15.5 Q-3.85 -15.6 -4.0 -15.95 L-4.85 -16.95 -4.9 -17.0 -5.65 -18.0 -6.8 -19.65 Q-7.25 -20.6 -7.0 -21.25 L-6.55 -22.0 -5.95 -22.85 -5.85 -22.9 -5.25 -23.35 -3.35 -24.3 Q-1.75 -24.7 -0.9 -23.45 L-0.8 -23.25 -0.2 -22.25 0.2 -21.55 0.95 -19.9 1.0 -19.8" fill="#35250a" fill-rule="evenodd" stroke="none"/>
  </g>
</svg>
