<?xml version="1.0" encoding="UTF-8" standalone="no"?>
<svg xmlns:ffdec="https://www.free-decompiler.com/flash" xmlns:xlink="http://www.w3.org/1999/xlink" ffdec:objectType="shape" height="24.7px" width="10.25px" xmlns="http://www.w3.org/2000/svg">
  <g transform="matrix(1.0, 0.0, 0.0, 1.0, 7.1, 24.4)">
    <path d="M3.15 -12.7 L2.9 -9.85 2.45 -8.2 2.05 -7.55 1.5 -7.05 0.8 -6.1 0.3 -6.2 0.25 -6.05 0.25 -4.9 0.65 -3.3 1.55 -3.45 Q2.65 -3.45 2.6 -2.65 2.6 -1.75 1.2 -1.6 L1.55 -0.55 1.35 0.0 0.65 0.3 Q-0.25 0.3 -0.8 -1.8 -2.1 -2.25 -2.95 -3.5 -3.9 -4.85 -3.9 -5.9 -3.9 -7.35 -3.35 -8.0 L-3.35 -8.05 -3.1 -11.2 Q-3.1 -12.45 -3.45 -13.45 L-3.8 -15.45 -3.8 -16.1 -3.9 -16.5 Q-3.9 -17.7 -0.5 -17.7 1.9 -17.7 2.75 -15.3 3.2 -14.05 3.15 -12.7 M1.45 -3.9 L1.2 -3.95 1.3 -3.95 1.4 -3.95 1.45 -3.9 M-1.85 -6.7 L-2.0 -6.9 -2.25 -5.9 -1.4 -4.2 -1.1 -4.0 -1.1 -4.25 -1.4 -5.5 -1.45 -5.85 -1.45 -5.9 -1.5 -5.85 -1.6 -6.0 -1.6 -6.1 -1.85 -6.7" fill="#35250a" fill-rule="evenodd" stroke="none"/>
    <path d="M1.0 -19.8 L1.05 -19.45 Q1.45 -18.85 0.85 -18.1 L1.0 -18.05 -2.55 -15.4 -2.55 -15.45 -2.55 -15.6 -3.45 -15.5 Q-3.85 -15.6 -4.0 -15.95 L-4.85 -16.95 -4.9 -17.0 -5.65 -18.0 -6.8 -19.65 Q-7.25 -20.6 -7.0 -21.25 L-6.55 -22.0 -5.95 -22.85 -5.85 -22.9 -5.25 -23.35 -3.35 -24.3 Q-1.75 -24.7 -0.9 -23.45 L-0.8 -23.25 -0.2 -22.25 0.2 -21.55 0.95 -19.9 1.0 -19.8" fill="#35250a" fill-rule="evenodd" stroke="none"/>
  </g>
</svg>
