<?xml version="1.0" encoding="UTF-8" standalone="no"?>
<svg xmlns:ffdec="https://www.free-decompiler.com/flash" xmlns:xlink="http://www.w3.org/1999/xlink" ffdec:objectType="shape" height="20.45px" width="13.4px" xmlns="http://www.w3.org/2000/svg">
  <g transform="matrix(1.0, 0.0, 0.0, 1.0, 6.35, 9.7)">
    <path d="M-3.6 -0.5 L-4.0 -0.15 -4.45 0.35 -4.55 0.0 -4.6 -0.5 -4.65 -1.25 Q-4.65 -1.85 -4.15 -1.95 -3.8 -2.0 -3.65 -1.3 L-3.65 -1.0 -3.6 -0.5 M-2.1 -1.55 L-2.2 -1.6 -2.65 -1.45 -2.1 -1.65 -2.0 -1.65 -2.1 -1.55" fill="#35250a" fill-rule="evenodd" stroke="none"/>
    <path d="M2.95 -3.35 L3.05 -3.35 Q3.5 -3.35 4.85 -2.0 L5.8 -0.45 Q6.6 1.35 6.6 3.15 L6.45 4.4 6.3 5.2 Q6.1 5.55 5.5 5.45 L4.5 5.5 3.05 5.45 1.35 5.35 0.45 4.75 0.3 4.75 0.2 4.55 -0.2 4.05 -0.65 3.5 -1.1 2.7 -2.1 0.4 -2.2 -0.15 Q-2.2 -1.55 -1.3 -2.3 L-1.2 -2.4 -1.05 -2.35 -1.05 -2.5 -0.85 -2.7 -0.5 -2.75 -0.4 -2.75 -0.15 -2.9 Q0.65 -3.4 1.7 -3.4 L2.75 -3.3 2.9 -3.35 2.95 -3.35" fill="#35250a" fill-rule="evenodd" stroke="none"/>
    <path d="M2.95 -7.2 L2.9 -6.05 2.85 -5.25 2.65 -3.45 2.65 -3.35 2.55 -3.0 Q2.5 -2.4 1.95 -2.05 L1.6 -1.95 0.75 -1.65 -2.65 -1.65 -3.3 -2.0 -3.6 -2.6 -3.8 -4.0 -3.8 -4.05 -3.95 -5.25 -4.0 -7.25 Q-3.95 -8.3 -3.35 -8.75 L-2.6 -9.15 -1.7 -9.55 -1.55 -9.55 -0.8 -9.65 1.3 -9.45 Q2.9 -8.95 2.95 -7.45 L2.95 -7.2" fill="#35250a" fill-rule="evenodd" stroke="none"/>
    <path d="M-5.9 -2.9 L-5.2 -3.4 Q-4.6 -3.4 -4.75 -2.75 L-4.75 -2.65 -4.75 -2.5 -4.85 -2.1 -4.85 -2.05 -5.05 -1.7 -5.1 -1.5 -5.15 -1.05 -4.95 0.3 -4.85 1.05 -4.7 1.0 Q-4.35 1.0 -4.25 1.7 L-4.2 2.4 Q-4.2 3.55 -4.75 3.55 L-4.8 3.55 -4.85 3.65 -5.05 3.55 -5.75 2.85 -6.0 2.1 -6.35 0.7 -6.35 -0.4 -6.2 -2.15 -6.15 -2.15 -6.1 -2.55 -5.95 -2.75 -5.9 -2.9" fill="#35250a" fill-rule="evenodd" stroke="none"/>
    <path d="M-2.55 -2.05 L-1.95 -2.5 Q-1.25 -2.5 -1.25 -1.55 -1.25 0.1 -2.05 0.35 L-2.0 0.4 -2.45 0.9 -2.55 1.05 -3.35 2.2 -3.8 2.9 -4.15 3.25 -4.4 3.35 -4.45 3.35 -4.6 2.95 -5.05 1.05 -4.45 0.1 -4.45 0.0 -4.15 -0.6 -3.9 -1.05 -3.75 -0.8 -3.55 -1.15 -2.55 -2.05" fill="#35250a" fill-rule="evenodd" stroke="none"/>
    <path d="M0.1 4.5 L0.15 4.65 2.55 4.85 3.9 5.0 Q3.6 5.8 2.85 6.05 L2.7 6.15 2.7 5.95 Q0.15 7.05 -1.15 7.05 L-1.2 7.05 -1.15 7.25 -2.65 6.1 -2.55 5.9 -2.4 5.7 -2.25 5.6 -2.0 5.45 -1.65 5.25 -0.35 4.65 0.1 4.5" fill="#35250a" fill-rule="evenodd" stroke="none"/>
    <path d="M-0.35 8.6 L0.1 10.05 Q0.1 10.75 -0.55 10.75 -1.35 10.75 -1.95 8.65 L-2.45 6.5 -2.4 5.9 -0.8 7.1 -0.35 8.6" fill="#35250a" fill-rule="evenodd" stroke="none"/>
    <path d="M3.25 6.5 L3.3 6.0 Q4.15 4.8 5.6 5.55 L4.9 6.75 5.05 6.9 5.2 6.85 5.1 6.95 5.7 7.5 6.25 8.05 Q7.05 8.7 7.05 9.1 7.05 9.8 6.2 9.8 5.65 9.8 5.0 9.15 L4.25 8.35 Q3.4 7.85 3.35 7.05 L3.25 6.5" fill="#35250a" fill-rule="evenodd" stroke="none"/>
  </g>
</svg>
