<?xml version="1.0" encoding="UTF-8" standalone="no"?>
<svg xmlns:ffdec="https://www.free-decompiler.com/flash" xmlns:xlink="http://www.w3.org/1999/xlink" ffdec:objectType="shape" height="19.35px" width="22.9px" xmlns="http://www.w3.org/2000/svg">
  <g transform="matrix(1.0, 0.0, 0.0, 1.0, 11.45, 9.65)">
    <path d="M4.95 -6.6 L5.25 -6.0 4.8 -5.1 3.75 -4.15 2.55 -3.25 2.15 -2.8 Q1.8 -2.45 1.6 -2.45 1.0 -2.45 0.95 -3.0 L1.35 -3.7 2.25 -4.4 3.75 -5.7 1.95 -5.85 Q0.3 -6.15 0.3 -6.65 0.3 -7.6 2.05 -7.05 L4.95 -6.6 M-11.45 -0.95 Q-11.45 -1.7 -10.8 -1.7 L-7.95 -1.8 -5.25 -1.9 -1.25 -2.25 Q-1.0 -2.25 -0.7 -1.95 L-0.45 -1.55 -0.6 -1.0 -0.85 -0.7 -1.2 -0.6 -1.2 -0.55 Q-1.2 0.0 -2.55 -0.2 L-6.9 -0.3 -7.45 -0.3 -7.7 -0.3 -8.25 -0.35 -8.55 -0.35 -10.95 -0.5 Q-11.45 -0.55 -11.45 -0.95 M1.2 4.1 L1.95 4.3 Q2.35 4.3 3.0 5.5 L3.3 5.9 3.9 6.75 4.3 7.65 4.25 7.85 4.55 8.7 Q4.55 9.25 4.05 9.25 L3.3 8.7 Q3.05 8.65 3.05 8.3 L3.05 8.25 2.5 6.95 2.4 6.75 2.15 6.35 1.4 5.4 0.85 4.55 0.85 4.5 Q0.85 4.1 1.2 4.1 M5.4 4.4 Q5.4 3.1 7.7 5.25 9.8 6.55 9.8 7.0 L9.95 7.5 Q9.95 7.9 9.5 7.9 L7.3 6.2 Q5.4 5.1 5.4 4.4 M-1.95 -2.65 L-2.4 -2.5 -1.85 -2.7 -1.75 -2.7 -1.85 -2.6 -1.95 -2.65" fill="#35250a" fill-rule="evenodd" stroke="none"/>
    <path d="M2.9 -3.4 L3.7 -2.9 3.7 -2.85 3.85 -2.7 4.7 -1.85 5.4 -1.05 5.9 -0.15 6.05 0.3 6.1 0.45 6.5 1.35 6.65 2.0 6.65 2.1 6.65 2.2 6.4 3.95 6.4 4.05 6.2 4.45 6.15 4.55 3.2 4.7 0.65 4.4 0.5 4.1 -0.35 3.15 -0.85 2.4 -2.1 -0.05 -2.3 0.1 -2.45 -0.1 -2.35 -1.25 -1.5 -2.5 -1.1 -2.45 -1.1 -2.6 -0.55 -2.8 -0.45 -2.8 -0.2 -3.0 Q0.55 -3.5 1.6 -3.5 L2.65 -3.4 2.8 -3.45 2.85 -3.45 2.85 -3.4 2.9 -3.4" fill="#35250a" fill-rule="evenodd" stroke="none"/>
    <path d="M2.3 -7.15 L2.25 -6.0 2.2 -5.2 2.0 -3.4 2.0 -3.3 1.9 -2.95 Q1.85 -2.35 1.3 -2.0 L0.95 -1.9 0.1 -1.6 -3.3 -1.6 -3.95 -1.95 -4.25 -2.55 -4.45 -3.95 -4.45 -4.0 -4.6 -5.2 -4.65 -7.2 Q-4.6 -8.25 -4.0 -8.7 L-3.25 -9.1 -2.35 -9.5 -2.2 -9.5 -1.45 -9.6 0.65 -9.4 Q2.25 -8.9 2.3 -7.4 L2.3 -7.15" fill="#35250a" fill-rule="evenodd" stroke="none"/>
    <path d="M11.45 8.1 Q11.55 8.7 10.7 8.7 10.15 8.7 9.4 8.15 L8.55 7.5 Q7.65 7.05 7.55 6.4 L7.45 6.1 9.1 6.1 9.05 6.15 9.2 6.25 9.35 6.2 9.25 6.3 9.95 6.75 10.55 7.25 Q11.4 7.8 11.45 8.1" fill="#35250a" fill-rule="evenodd" stroke="none"/>
    <path d="M3.9 7.55 L4.55 9.0 Q4.65 9.7 4.0 9.7 3.2 9.7 2.3 7.6 L1.6 5.45 Q1.55 5.1 1.65 4.85 L3.35 6.05 3.9 7.55" fill="#35250a" fill-rule="evenodd" stroke="none"/>
  </g>
</svg>
