<?xml version="1.0" encoding="UTF-8" standalone="no"?>
<svg xmlns:ffdec="https://www.free-decompiler.com/flash" xmlns:xlink="http://www.w3.org/1999/xlink" ffdec:objectType="shape" height="16.45px" width="339.95px" xmlns="http://www.w3.org/2000/svg">
  <g transform="matrix(1.0, 0.0, 0.0, 1.0, -0.85, 0.3)">
    <path d="M340.05 2.2 L340.05 13.7 Q340.05 15.4 337.3 15.4 L4.35 15.4 Q1.6 15.4 1.6 13.7 L1.6 2.2 Q1.6 0.45 4.35 0.45 L337.3 0.45 Q340.05 0.45 340.05 2.2" fill="url(#gradient0)" fill-rule="evenodd" stroke="none"/>
    <path d="M340.05 2.2 L340.05 13.7 Q340.05 15.4 337.3 15.4 L4.35 15.4 Q1.6 15.4 1.6 13.7 L1.6 2.2 Q1.6 0.45 4.35 0.45 L337.3 0.45 Q340.05 0.45 340.05 2.2 Z" fill="none" stroke="#170235" stroke-linecap="round" stroke-linejoin="round" stroke-width="1.5"/>
  </g>
  <defs>
    <linearGradient gradientTransform="matrix(0.0, 0.0018, -0.0107, 0.0, -3.45, 8.0)" gradientUnits="userSpaceOnUse" id="gradient0" spreadMethod="pad" x1="-819.2" x2="819.2">
      <stop offset="0.0" stop-color="#825df5"/>
      <stop offset="1.0" stop-color="#5b11d4"/>
    </linearGradient>
  </defs>
</svg>
