<?xml version="1.0" encoding="UTF-8" standalone="no"?>
<svg xmlns:ffdec="https://www.free-decompiler.com/flash" xmlns:xlink="http://www.w3.org/1999/xlink" ffdec:objectType="shape" height="4.4px" width="8.55px" xmlns="http://www.w3.org/2000/svg">
  <g transform="matrix(1.0, 0.0, 0.0, 1.0, 3.65, 21.7)">
    <path d="M4.65 -21.65 L4.6 -21.2 4.35 -19.85 4.35 -19.7 4.4 -19.65 4.75 -19.4 4.85 -19.3 4.9 -19.25 4.65 -18.85 4.65 -18.75 4.45 -18.55 3.9 -18.05 Q2.9 -17.3 1.4 -17.3 L0.1 -17.5 -0.7 -17.75 -1.8 -18.2 -2.55 -18.35 -3.15 -18.25 Q-3.3 -18.15 -3.35 -18.15 L-3.55 -18.4 -3.55 -18.5 -3.65 -19.2 -3.65 -19.75 -3.65 -20.0 -3.55 -20.25 -3.3 -20.35 -2.95 -20.5 -1.65 -20.7 -0.1 -20.25 1.5 -19.9 Q2.5 -19.9 3.3 -20.65 L3.75 -21.1 4.05 -21.4 4.1 -21.4 4.3 -21.65 4.35 -21.65 4.5 -21.7 4.6 -21.65 4.65 -21.65" fill="#35250a" fill-rule="evenodd" stroke="none"/>
  </g>
</svg>
