<?xml version="1.0" encoding="UTF-8" standalone="no"?>
<svg xmlns:ffdec="https://www.free-decompiler.com/flash" xmlns:xlink="http://www.w3.org/1999/xlink" ffdec:objectType="shape" height="4.15px" width="8.8px" xmlns="http://www.w3.org/2000/svg">
  <g transform="matrix(1.0, 0.0, 0.0, 1.0, 12.5, 21.15)">
    <path d="M-5.05 -19.7 L-4.6 -19.8 -4.3 -19.9 Q-4.05 -19.9 -3.85 -19.1 L-3.7 -18.25 -3.9 -18.05 -3.95 -18.05 -4.3 -17.8 -5.1 -17.45 Q-6.2 -17.0 -7.1 -17.0 -8.45 -17.0 -9.5 -17.65 L-10.2 -18.1 -10.75 -18.3 -11.25 -18.05 -11.7 -17.8 -11.95 -18.05 -11.9 -18.15 -11.9 -18.2 -11.6 -19.45 -12.05 -19.8 -12.4 -20.1 -12.5 -20.3 -12.0 -20.8 -10.85 -21.15 Q-9.85 -21.15 -8.9 -20.35 -7.95 -19.5 -6.7 -19.5 L-5.05 -19.7" fill="#35250a" fill-rule="evenodd" stroke="none"/>
  </g>
</svg>
