<?xml version="1.0" encoding="UTF-8" standalone="no"?>
<svg xmlns:ffdec="https://www.free-decompiler.com/flash" xmlns:xlink="http://www.w3.org/1999/xlink" ffdec:objectType="shape" height="4.4px" width="8.55px" xmlns="http://www.w3.org/2000/svg">
  <g transform="matrix(1.0, 0.0, 0.0, 1.0, 12.3, 21.3)">
    <path d="M-4.45 -20.1 L-4.1 -19.95 -3.85 -19.85 -3.75 -19.6 -3.75 -19.35 -3.75 -18.8 -3.85 -18.1 -3.85 -18.0 Q-3.8 -17.75 -4.05 -17.75 L-4.25 -17.85 -4.85 -17.95 -5.6 -17.8 -6.7 -17.35 -7.5 -17.1 -8.8 -16.9 Q-10.3 -16.9 -11.3 -17.65 L-11.85 -18.15 -12.05 -18.35 -12.05 -18.45 -12.3 -18.85 -12.25 -18.9 -12.15 -19.0 -11.8 -19.25 -11.75 -19.3 -11.75 -19.45 -12.0 -20.8 -12.05 -21.25 -12.0 -21.25 -11.9 -21.3 -11.75 -21.25 -11.7 -21.25 -11.5 -21.0 -11.45 -21.0 -11.15 -20.7 -10.7 -20.25 Q-9.9 -19.5 -8.9 -19.5 -8.35 -19.5 -7.3 -19.85 L-5.75 -20.3 -4.45 -20.1" fill="#35250a" fill-rule="evenodd" stroke="none"/>
  </g>
</svg>
