<?xml version="1.0" encoding="UTF-8" standalone="no"?>
<svg xmlns:ffdec="https://www.free-decompiler.com/flash" xmlns:xlink="http://www.w3.org/1999/xlink" ffdec:objectType="shape" height="4.35px" width="8.55px" xmlns="http://www.w3.org/2000/svg">
  <g transform="matrix(1.0, 0.0, 0.0, 1.0, 12.3, 21.0)">
    <path d="M-5.0 -20.45 L-4.4 -20.1 -4.0 -19.8 -3.85 -19.45 -3.75 -18.7 -3.85 -18.3 Q-3.9 -17.95 -4.05 -17.9 L-4.05 -17.8 -4.3 -17.6 -4.9 -18.0 Q-5.6 -18.4 -6.1 -18.4 -6.6 -18.4 -7.2 -18.0 L-8.05 -17.45 -9.2 -16.9 -10.5 -16.65 -11.85 -16.9 -12.3 -17.45 -12.2 -17.55 -12.1 -17.7 -12.05 -17.7 -12.0 -17.65 -11.85 -17.8 -11.35 -18.25 -11.85 -18.95 -12.2 -19.75 -12.2 -19.8 -11.95 -20.05 -11.4 -19.85 -10.35 -19.6 Q-9.5 -19.6 -8.5 -20.35 -7.55 -21.05 -6.45 -21.0 -5.75 -20.9 -5.0 -20.45" fill="#35250a" fill-rule="evenodd" stroke="none"/>
  </g>
</svg>
