<?xml version="1.0" encoding="UTF-8" standalone="no"?>
<svg xmlns:ffdec="https://www.free-decompiler.com/flash" xmlns:xlink="http://www.w3.org/1999/xlink" ffdec:objectType="shape" height="23.9px" width="12.85px" xmlns="http://www.w3.org/2000/svg">
  <g transform="matrix(1.0, 0.0, 0.0, 1.0, 10.55, 12.25)">
    <path d="M1.65 -3.6 L1.7 -3.15 1.7 -3.1 1.75 -2.7 1.9 0.2 Q1.9 2.3 1.25 5.9 L0.7 8.65 0.65 9.9 Q0.5 11.05 -0.3 11.05 -0.7 11.55 -1.1 11.55 L-0.9 10.8 -1.05 10.05 Q-0.75 8.95 -0.8 8.7 L-0.75 7.45 Q-1.2 6.75 -2.5 6.75 -5.0 6.75 -5.25 8.7 L-5.35 10.65 -5.45 11.2 Q-5.95 11.7 -6.35 11.65 -7.05 11.55 -6.8 9.75 L-6.5 8.0 -5.05 1.1 -4.0 -2.7 -7.75 -2.1 Q-8.35 -2.1 -8.9 -3.15 -9.8 -3.6 -10.1 -5.7 L-10.2 -6.7 -10.55 -8.2 -10.5 -8.6 -10.1 -8.9 -9.9 -9.4 Q-9.5 -10.0 -9.0 -9.1 L-8.8 -8.2 -8.7 -7.25 -8.6 -6.7 -8.55 -6.65 -8.1 -5.35 Q-7.75 -4.4 -7.35 -4.4 L-6.55 -4.55 -6.8 -4.8 -7.2 -5.7 -7.75 -6.9 -8.4 -9.4 Q-8.4 -10.45 -7.95 -10.55 -7.35 -10.6 -6.9 -9.5 L-6.6 -8.9 -6.4 -8.3 -6.1 -7.7 -6.0 -7.35 -6.05 -7.1 -5.75 -6.55 -5.25 -6.15 -3.9 -6.3 Q-2.75 -6.3 -2.75 -5.8 -2.75 -5.4 -3.0 -5.35 L-4.05 -5.05 -4.15 -5.0 -3.75 -5.0 -2.85 -4.95 -2.5 -4.7 -2.25 -4.8 -1.8 -4.8 -0.9 -4.55 -0.85 -4.5 0.4 -4.75 1.5 -4.9 1.45 -4.7 1.65 -3.6" fill="#35250a" fill-rule="evenodd" stroke="none"/>
    <path d="M2.25 -10.0 L2.25 -9.75 2.3 -8.7 2.25 -7.85 2.05 -6.1 2.05 -6.0 2.0 -5.6 Q1.95 -4.8 1.0 -4.45 L1.15 -4.4 0.7 -4.3 -1.0 -4.1 -2.05 -4.1 -3.2 -4.25 -3.4 -4.25 -3.9 -4.5 -4.2 -5.1 -4.45 -6.55 -4.45 -6.6 -4.6 -7.75 Q-4.8 -8.3 -4.65 -9.75 -4.65 -10.75 -4.05 -11.25 L-3.25 -11.65 -2.45 -12.1 -2.25 -12.1 -1.45 -12.2 0.6 -12.05 Q2.2 -11.6 2.25 -10.0" fill="#35250a" fill-rule="evenodd" stroke="none"/>
  </g>
</svg>
