<?xml version="1.0" encoding="UTF-8" standalone="no"?>
<svg xmlns:ffdec="https://www.free-decompiler.com/flash" xmlns:xlink="http://www.w3.org/1999/xlink" ffdec:objectType="shape" height="336.55px" width="116.35px" xmlns="http://www.w3.org/2000/svg">
  <g transform="matrix(1.0, 0.0, 0.0, 1.0, 57.35, 326.4)">
    <path d="M59.0 -326.4 Q55.6 -299.7 48.8 -273.45 19.8 -161.65 47.3 -49.4 53.45 -24.25 32.65 0.3 L32.45 0.3 Q31.75 4.25 19.3 7.1 6.2 10.15 -12.4 10.15 -30.9 10.15 -44.05 7.1 -56.45 4.25 -57.1 0.3 L-57.35 0.3 -57.15 0.05 -57.15 -0.15 Q-57.15 -2.3 -53.8 -4.1 -37.1 -26.5 -42.7 -49.4 -70.2 -161.65 -41.2 -273.45 -34.4 -299.7 -31.0 -326.4 L59.0 -326.4" fill="url(#gradient0)" fill-rule="evenodd" stroke="none"/>
  </g>
  <defs>
    <linearGradient gradientTransform="matrix(0.0, 0.1994, -0.0723, 0.0, 3.15, -163.05)" gradientUnits="userSpaceOnUse" id="gradient0" spreadMethod="pad" x1="-819.2" x2="819.2">
      <stop offset="0.0" stop-color="#ffffff" stop-opacity="0.0"/>
      <stop offset="0.5725490196078431" stop-color="#ffffff"/>
    </linearGradient>
  </defs>
</svg>
