<?xml version="1.0" encoding="UTF-8" standalone="no"?>
<svg xmlns:ffdec="https://www.free-decompiler.com/flash" xmlns:xlink="http://www.w3.org/1999/xlink" ffdec:objectType="shape" height="366.95px" width="366.35px" xmlns="http://www.w3.org/2000/svg">
  <g transform="matrix(1.0, 0.0, 0.0, 1.0, 187.8, 172.75)">
    <path d="M109.35 -123.95 Q114.7 -119.45 120.1 -113.9 L123.8 -110.4 121.9 -110.95 Q108.35 -114.8 93.7 -115.05 L93.7 -115.25 81.95 -113.9 Q74.95 -113.3 68.6 -110.4 L66.7 -109.6 63.4 -110.05 Q62.05 -109.25 61.05 -108.45 L15.9 -106.35 15.75 -106.55 13.25 -108.25 Q12.05 -108.9 10.95 -109.85 L-29.95 -113.5 Q13.85 -112.9 56.5 -117.15 L58.2 -117.75 59.35 -118.5 Q61.05 -119.65 63.2 -120.65 L89.8 -122.75 109.35 -123.95 M156.2 -63.55 L156.4 -63.2 Q161.4 -52.15 164.9 -40.35 172.0 -16.1 172.0 11.1 172.0 25.0 170.25 38.3 166.05 67.8 151.95 93.7 L151.95 92.5 148.25 92.7 147.7 92.9 147.7 92.7 146.15 92.15 137.1 92.15 Q137.3 91.35 137.65 91.35 139.6 90.4 141.5 89.85 143.85 89.05 146.0 88.85 146.0 88.5 146.15 88.5 L146.9 88.3 147.35 87.85 149.25 86.35 152.15 86.15 152.55 84.45 Q153.7 83.3 153.9 81.95 L154.25 79.8 154.25 78.65 Q156.2 77.45 157.35 75.35 158.9 72.65 158.9 70.55 158.9 65.9 154.85 67.8 L154.25 68.25 154.25 66.1 Q148.7 68.05 141.9 68.4 L141.35 67.8 140.35 66.9 Q137.1 65.9 134.2 64.2 130.35 62.4 126.85 61.45 L126.65 61.45 127.65 59.15 Q140.15 55.85 152.55 53.9 L155.6 51.65 159.45 50.05 159.7 50.05 Q162.55 50.05 164.45 46.05 169.1 41.6 169.1 39.1 168.3 31.75 166.05 29.65 161.6 27.5 153.9 31.95 149.4 34.45 147.7 36.35 129.6 40.65 110.85 41.6 109.9 40.8 108.35 40.25 L100.45 38.5 Q100.25 38.5 100.05 38.3 L99.65 37.5 98.15 36.0 94.65 32.5 Q91.15 29.25 87.3 26.75 64.75 27.5 44.3 21.15 43.95 20.2 43.95 19.4 L43.5 19.05 43.95 18.85 105.85 15.95 Q107.2 16.35 108.35 17.1 134.2 22.3 153.7 11.9 L155.6 12.25 Q160.6 12.25 163.75 8.8 166.05 6.1 166.05 3.8 L165.65 2.2 Q162.4 1.3 156.55 4.95 L155.4 5.9 154.65 4.95 150.6 5.5 118.95 7.85 Q117.4 7.05 115.9 6.7 L105.25 6.5 115.45 4.2 Q121.9 2.65 127.1 -0.65 135.55 -0.65 144.05 -1.05 L152.15 -1.45 151.35 -0.65 151.35 -0.3 Q151.55 -0.05 152.7 -0.05 158.1 -0.05 162.4 -1.8 167.4 -3.55 167.4 -6.85 167.4 -9.15 164.65 -15.35 165.45 -19.2 165.45 -23.25 165.45 -34.4 162.95 -44.2 160.45 -53.7 156.2 -58.15 L156.2 -63.55 M146.9 102.55 Q138.45 116.25 126.85 128.8 L126.65 128.6 110.85 127.25 108.35 125.3 95.45 124.15 92.95 122.45 85.2 120.9 77.65 117.8 77.65 117.95 Q76.75 117.25 76.1 117.0 L69.95 116.25 Q68.8 115.65 68.25 115.45 L42.95 114.9 Q25.6 101.6 4.35 109.1 -3.9 111.8 -12.95 112.4 L-22.25 110.1 -20.9 110.1 Q3.6 104.1 29.05 104.1 L43.95 101.0 Q43.95 101.6 44.1 101.75 L45.3 102.75 51.65 102.75 Q55.3 103.55 58.55 104.9 L64.35 104.1 66.7 105.45 66.9 105.45 136.5 102.55 144.2 102.2 144.65 102.35 Q145.4 102.35 146.15 102.75 L146.9 102.55 M-118.7 145.4 Q-124.3 140.9 -129.3 135.55 L-133.0 131.85 Q-117.75 131.85 -103.1 128.8 -80.3 129.35 -57.75 131.7 -71.65 132.85 -85.5 135.15 -99.2 137.3 -112.5 142.85 -115.6 144.4 -118.7 145.4 M-166.15 83.3 Q-170.0 74.15 -172.9 65.1 -176.55 53.9 -178.5 42.15 -181.0 27.1 -181.0 11.1 L-169.8 10.15 -166.35 13.6 -162.65 16.35 Q-162.3 16.7 -161.95 16.7 -147.6 21.15 -135.5 17.45 L-117.95 23.45 Q-112.5 24.25 -107.3 25.6 L-105.0 26.15 Q-112.75 25.75 -119.1 24.05 -132.4 24.05 -145.55 24.45 -147.8 24.45 -150.3 25.2 L-153.05 26.95 Q-154.15 27.5 -154.95 28.45 -156.7 29.05 -158.25 30.25 -159.8 31.0 -160.75 31.75 L-161.3 32.15 Q-164.2 32.3 -169.05 34.65 -175.0 37.95 -175.0 39.65 -172.5 62.6 -168.05 65.9 -167.3 70.3 -166.15 73.25 L-166.15 73.8 -166.15 83.3 M-169.8 -51.55 Q-168.5 -55.85 -166.7 -59.5 L-166.5 -59.5 -164.6 -59.5 -159.95 -59.5 -159.0 -59.5 Q-156.3 -60.6 -154.4 -61.6 L-148.2 -61.2 Q-147.45 -61.8 -146.45 -61.8 -145.55 -62.4 -144.35 -62.55 -143.95 -63.2 -143.2 -63.2 L-144.2 -62.4 -148.05 -59.25 -154.75 -55.05 -156.7 -52.55 -164.45 -52.0 -169.8 -51.55 M-157.65 -77.25 L-153.8 -83.45 -150.9 -82.1 Q-146.1 -80.15 -141.05 -78.95 L-139.9 -77.45 -126.2 -73.4 -122.75 -72.25 -123.35 -72.05 Q-126.8 -70.9 -130.3 -70.45 L-132.75 -71.8 -143.2 -73.4 Q-144.35 -73.95 -145.7 -74.95 L-155.95 -76.45 -157.65 -77.25 M-135.85 -106.75 L-129.3 -113.9 Q-121.0 -122.15 -112.3 -128.75 L-88.05 -115.45 Q-76.3 -109.6 -63.15 -106.35 -58.7 -105.6 -54.7 -104.25 -50.2 -103.25 -46.35 -101.9 L-38.3 -100.75 Q-67.6 -102.35 -96.9 -100.2 -100.2 -101.15 -103.1 -102.35 -106.55 -103.45 -110.25 -105.4 -112.15 -105.95 -113.65 -106.75 L-118.85 -107.7 -119.1 -107.9 -131.05 -107.55 Q-133.55 -107.55 -135.85 -106.75 M156.2 37.35 L154.85 35.8 156.75 35.0 156.4 38.7 156.2 38.7 156.2 37.35 M163.3 34.85 L163.3 35.45 Q162.55 34.65 161.75 34.45 L163.3 34.25 163.3 34.85 M158.5 -19.2 L156.95 -15.1 156.2 -13.2 156.2 -24.75 158.1 -20.1 158.5 -19.2 M156.2 -39.45 L156.2 -46.7 156.4 -46.15 159.1 -36.75 158.7 -33.8 Q157.9 -35.0 157.9 -37.1 L156.2 -39.45 M-168.5 41.8 Q-168.5 40.65 -166.15 38.85 L-166.15 53.0 Q-168.5 43.35 -168.5 41.8" fill="#4f2400" fill-rule="evenodd" stroke="none"/>
    <path d="M123.8 -110.4 Q134.35 -99.2 142.7 -86.85 147.35 -80.15 151.55 -72.8 L154.45 -66.8 156.2 -63.55 156.2 -58.15 Q160.45 -53.7 162.95 -44.2 165.45 -34.4 165.45 -23.25 165.45 -19.2 164.65 -15.35 167.4 -9.15 167.4 -6.85 167.4 -3.55 162.4 -1.8 158.1 -0.05 152.7 -0.05 151.55 -0.05 151.35 -0.3 L151.35 -0.65 152.15 -1.45 144.05 -1.05 Q135.55 -0.65 127.1 -0.65 121.9 2.65 115.45 4.2 L105.25 6.5 115.9 6.7 Q117.4 7.05 118.95 7.85 L150.6 5.5 154.65 4.95 155.4 5.9 156.55 4.95 Q162.4 1.3 165.65 2.2 L166.05 3.8 Q166.05 6.1 163.75 8.8 160.6 12.25 155.6 12.25 L153.7 11.9 Q134.2 22.3 108.35 17.1 107.2 16.35 105.85 15.95 L43.95 18.85 43.5 19.05 43.95 19.4 Q43.95 20.2 44.3 21.15 64.75 27.5 87.3 26.75 91.15 29.25 94.65 32.5 L98.15 36.0 99.65 37.5 100.05 38.3 Q100.25 38.5 100.45 38.5 L108.35 40.25 Q109.9 40.8 110.85 41.6 129.6 40.65 147.7 36.35 149.4 34.45 153.9 31.95 161.6 27.5 166.05 29.65 168.3 31.75 169.1 39.1 169.1 41.6 164.45 46.05 162.55 50.05 159.7 50.05 L159.45 50.05 155.6 51.65 152.55 53.9 Q140.15 55.85 127.65 59.15 L126.65 61.45 126.85 61.45 Q130.35 62.4 134.2 64.2 137.1 65.9 140.35 66.9 L141.35 67.8 141.9 68.4 Q148.7 68.05 154.25 66.1 L154.25 68.25 154.85 67.8 Q158.9 65.9 158.9 70.55 158.9 72.65 157.35 75.35 156.2 77.45 154.25 78.65 L154.25 79.8 153.9 81.95 Q153.7 83.3 152.55 84.45 L152.15 86.15 149.25 86.35 147.35 87.85 146.9 88.3 146.15 88.5 Q146.0 88.5 146.0 88.85 143.85 89.05 141.5 89.85 139.6 90.4 137.65 91.35 137.3 91.35 137.1 92.15 L146.15 92.15 147.7 92.7 147.7 92.9 148.25 92.7 151.95 92.5 151.95 93.7 146.9 102.55 146.15 102.75 Q145.4 102.35 144.65 102.35 L144.2 102.2 136.5 102.55 66.9 105.45 66.7 105.45 64.35 104.1 58.55 104.9 Q55.3 103.55 51.65 102.75 L45.3 102.75 44.1 101.75 Q43.95 101.6 43.95 101.0 L29.05 104.1 Q3.6 104.1 -20.9 110.1 L-22.25 110.1 -12.95 112.4 Q-3.9 111.8 4.35 109.1 25.6 101.6 42.95 114.9 L68.25 115.45 Q68.8 115.65 69.95 116.25 L76.1 117.0 Q76.75 117.25 77.65 117.95 L77.65 117.8 85.2 120.9 92.95 122.45 95.45 124.15 108.35 125.3 110.85 127.25 126.65 128.6 126.85 128.8 120.1 135.55 Q109.9 145.95 99.05 154.25 97.7 155.05 96.8 155.95 L87.5 161.95 Q75.15 169.65 62.05 175.3 32.55 187.05 -1.4 187.6 L-4.5 187.6 Q-70.45 187.6 -118.7 145.4 -115.6 144.4 -112.5 142.85 -99.2 137.3 -85.5 135.15 -71.65 132.85 -57.75 131.7 -80.3 129.35 -103.1 128.8 -117.75 131.85 -133.0 131.85 -154.15 109.45 -166.15 83.3 L-166.15 73.8 -166.15 73.25 Q-167.3 70.3 -168.05 65.9 -172.5 62.6 -175.0 39.65 -175.0 37.95 -169.05 34.65 -164.2 32.3 -161.3 32.15 L-160.75 31.75 Q-159.8 31.0 -158.25 30.25 -156.7 29.05 -154.95 28.45 -154.15 27.5 -153.05 26.95 L-150.3 25.2 Q-147.8 24.45 -145.55 24.45 -132.4 24.05 -119.1 24.05 -112.75 25.75 -105.0 26.15 L-107.3 25.6 Q-112.5 24.25 -117.95 23.45 L-135.5 17.45 Q-147.6 21.15 -161.95 16.7 -162.3 16.7 -162.65 16.35 L-166.35 13.6 -169.8 10.15 -181.0 11.1 -180.85 4.2 -180.85 3.0 Q-180.85 -3.35 -179.65 -9.9 L-178.3 -20.9 Q-176.35 -31.1 -173.7 -40.35 L-171.35 -47.5 -169.8 -51.55 -164.45 -52.0 -156.7 -52.55 -154.75 -55.05 -148.05 -59.25 -144.2 -62.4 -143.2 -63.2 Q-143.95 -63.2 -144.35 -62.55 -145.55 -62.4 -146.45 -61.8 -147.45 -61.8 -148.2 -61.2 L-154.4 -61.6 Q-156.3 -60.6 -159.0 -59.5 L-159.95 -59.5 -164.6 -59.5 -166.5 -59.5 -166.7 -59.5 Q-162.65 -68.75 -157.65 -77.25 L-155.95 -76.45 -145.7 -74.95 Q-144.35 -73.95 -143.2 -73.4 L-132.75 -71.8 -130.3 -70.45 Q-126.8 -70.9 -123.35 -72.05 L-122.75 -72.25 -126.2 -73.4 -139.9 -77.45 -141.05 -78.95 Q-146.1 -80.15 -150.9 -82.1 L-153.8 -83.45 -149.2 -90.35 Q-145.7 -95.55 -141.7 -100.2 L-138.0 -104.6 -135.85 -106.55 -135.85 -106.75 Q-133.55 -107.55 -131.05 -107.55 L-119.1 -107.9 -118.85 -107.7 -113.65 -106.75 Q-112.15 -105.95 -110.25 -105.4 -106.55 -103.45 -103.1 -102.35 -100.2 -101.15 -96.9 -100.2 -67.6 -102.35 -38.3 -100.75 L-46.35 -101.9 Q-50.2 -103.25 -54.7 -104.25 -58.7 -105.6 -63.15 -106.35 -76.3 -109.6 -88.05 -115.45 L-112.3 -128.75 Q-66.05 -165.4 -4.5 -165.4 61.05 -165.4 109.35 -123.95 L89.8 -122.75 63.2 -120.65 Q61.05 -119.65 59.35 -118.5 L58.2 -117.75 56.5 -117.15 Q13.85 -112.9 -29.95 -113.5 L10.95 -109.85 Q12.05 -108.9 13.25 -108.25 L15.75 -106.55 15.9 -106.35 61.05 -108.45 Q62.05 -109.25 63.4 -110.05 L66.7 -109.6 68.6 -110.4 Q74.95 -113.3 81.95 -113.9 L93.7 -115.25 93.7 -115.05 Q108.35 -114.8 121.9 -110.95 L123.8 -110.4 M156.2 -39.45 L157.9 -37.1 Q157.9 -35.0 158.7 -33.8 L159.1 -36.75 156.4 -46.15 156.2 -46.7 156.2 -39.45 M158.5 -19.2 L158.1 -20.1 156.2 -24.75 156.2 -13.2 156.95 -15.1 158.5 -19.2 M163.3 34.85 L163.3 34.25 161.75 34.45 Q162.55 34.65 163.3 35.45 L163.3 34.85 M156.2 37.35 L156.2 38.7 156.4 38.7 156.75 35.0 154.85 35.8 156.2 37.35 M-168.5 41.8 Q-168.5 43.35 -166.15 53.0 L-166.15 38.85 Q-168.5 40.65 -168.5 41.8" fill="url(#gradient0)" fill-rule="evenodd" stroke="none"/>
    <path d="M156.55 172.0 L156.75 172.0 156.55 172.2 156.55 172.0" fill="#2a2a2a" fill-rule="evenodd" stroke="none"/>
    <path d="M140.15 -81.1 L138.1 -84.15 132.0 -92.25 Q124.9 -101.45 116.25 -110.1 L112.2 -113.9 Q63.3 -159.9 -4.5 -159.9 -67.2 -159.9 -113.8 -120.6 -119.75 -115.65 -125.45 -110.1 L-126.0 -109.25 Q-127.55 -110.4 -129.2 -111.0 L-127.7 -112.45 -122.9 -117.1 Q-73.45 -163.4 -4.5 -163.4 67.75 -163.4 118.7 -112.45 L119.25 -111.9 Q132.4 -98.55 142.2 -83.75 141.1 -83.2 140.55 -81.9 L140.15 -81.1 M-151.55 -77.05 L-152.55 -75.75 -155.95 -69.65 Q-159.7 -62.9 -162.45 -56.0 L-163.65 -56.15 -166.25 -55.95 Q-162.9 -63.4 -159.0 -70.8 L-156.4 -75.4 -154.0 -79.3 -153.45 -80.6 Q-152.9 -78.95 -151.95 -77.65 L-151.55 -77.05 M-175.45 15.4 L-175.3 19.15 -175.15 24.35 -174.75 29.85 -174.15 33.5 Q-169.95 68.2 -152.55 97.35 -145.25 109.6 -135.6 120.95 -130.85 126.45 -125.45 131.85 L-120.5 136.65 Q-71.8 182.1 -4.5 182.1 L-3.35 182.1 Q28.45 181.9 56.1 171.75 74.1 164.8 90.4 153.5 L94.2 151.05 95.25 150.25 99.05 151.5 Q103.05 153.0 106.05 154.6 L100.25 159.0 Q97.8 160.95 95.2 162.5 84.05 170.0 72.4 175.75 68.4 177.5 64.4 179.45 57.45 182.2 50.3 184.4 L46.45 185.5 46.1 185.5 Q24.85 191.6 1.2 192.45 L-4.5 192.45 -6.25 192.45 Q-5.85 189.2 -3.2 186.7 -2.65 185.95 -1.9 185.6 L-3.4 185.6 -4.5 185.6 Q-74.55 185.6 -124.55 137.05 L-127.7 134.1 -127.7 134.3 Q-138.1 123.9 -146.4 112.8 L-149.55 108.35 Q-172.55 75.0 -177.55 34.45 L-179.4 34.45 -184.8 34.05 Q-185.75 26.15 -185.85 18.25 -186.05 17.0 -185.85 15.8 L-186.0 13.2 Q-185.0 13.45 -182.7 14.6 -181.25 15.0 -178.85 16.1 L-179.0 13.85 Q-177.1 14.6 -175.45 15.4 M166.25 20.9 L166.5 11.1 Q166.5 -11.55 161.4 -31.85 163.15 -32.65 164.45 -34.1 170.0 -12.6 170.0 11.1 L170.0 17.2 166.25 20.9" fill="#838383" fill-rule="evenodd" stroke="none"/>
    <path d="M142.2 -83.75 Q132.4 -98.55 119.25 -111.9 L118.7 -112.45 Q67.75 -163.4 -4.5 -163.4 -73.45 -163.4 -122.9 -117.1 L-127.7 -112.45 -129.2 -111.0 Q-131.6 -111.9 -134.35 -111.9 -136.85 -111.9 -139.3 -110.95 L-135.95 -114.55 -132.8 -117.7 -132.8 -118.05 -132.65 -118.05 Q-79.75 -171.0 -4.7 -171.0 69.1 -171.0 121.65 -120.0 L123.4 -118.05 Q139.7 -101.7 151.1 -83.35 148.5 -84.85 145.75 -84.85 143.7 -84.85 142.2 -83.75 M167.65 -47.9 Q169.6 -42.0 171.1 -35.7 172.65 -29.95 173.7 -23.7 L174.55 -19.0 Q176.65 -5.25 176.8 9.1 L174.05 12.4 170.0 17.2 170.0 11.1 Q170.0 -12.6 164.45 -34.1 167.75 -37.8 167.75 -45.4 L167.65 -47.9 M-175.65 -51.6 Q-171.1 -64.35 -164.5 -76.25 -159.95 -84.4 -154.45 -92.15 L-154.55 -91.35 -154.75 -90.25 Q-154.75 -84.5 -153.45 -80.6 L-154.0 -79.3 -156.4 -75.4 -159.0 -70.8 Q-162.9 -63.4 -166.25 -55.95 -170.4 -55.25 -175.65 -51.6" fill="#cdced0" fill-rule="evenodd" stroke="none"/>
    <path d="M140.15 -81.1 L140.55 -81.9 Q141.1 -83.2 142.2 -83.75 143.7 -84.85 145.75 -84.85 148.5 -84.85 151.1 -83.35 157.9 -72.35 162.9 -60.65 L165.5 -54.0 167.65 -47.9 167.75 -45.4 Q167.75 -37.8 164.45 -34.1 163.15 -32.65 161.4 -31.85 L161.3 -32.2 Q158.05 -45.85 152.25 -58.7 148.3 -67.5 143.45 -75.95 142.5 -77.1 141.75 -78.65 L140.15 -81.1 M-129.2 -111.0 Q-127.55 -110.4 -126.0 -109.25 L-126.05 -109.1 Q-133.7 -101.65 -140.05 -93.4 -146.0 -86.15 -150.75 -78.45 L-150.75 -78.25 -151.55 -77.1 -151.55 -77.05 -151.95 -77.65 Q-152.9 -78.95 -153.45 -80.6 -154.75 -84.5 -154.75 -90.25 L-154.55 -91.35 -154.45 -92.15 Q-147.6 -101.85 -139.3 -110.95 -136.85 -111.9 -134.35 -111.9 -131.6 -111.9 -129.2 -111.0 M-162.45 -56.0 L-162.9 -54.9 -163.45 -53.35 Q-169.55 -38.75 -172.45 -22.45 -174.75 -11.75 -175.15 0.15 L-175.3 6.7 -175.5 11.1 -175.45 15.4 Q-177.1 14.6 -179.0 13.85 L-179.0 11.45 -179.0 11.1 -178.85 0.55 Q-182.2 -0.7 -185.5 -4.1 -183.75 -29.1 -175.65 -51.6 -170.4 -55.25 -166.25 -55.95 L-163.65 -56.15 -162.45 -56.0 M95.25 150.25 L102.25 144.7 108.6 139.15 116.25 131.85 Q122.35 125.7 127.75 119.35 145.4 98.4 155.0 74.15 159.75 62.1 162.6 49.25 164.95 38.5 165.85 27.2 L166.25 20.9 170.0 17.2 Q169.45 33.15 166.4 48.0 161.45 71.85 149.95 93.0 143.85 104.2 135.9 114.65 128.15 124.65 118.7 134.1 L118.5 134.3 113.85 138.9 110.9 141.7 107.4 144.85 99.05 151.5 95.25 150.25" fill="#8f918e" fill-rule="evenodd" stroke="none"/>
    <path d="M176.8 9.1 L176.8 10.9 Q176.8 29.6 173.5 46.9 169.1 69.85 158.8 90.5 145.75 116.65 123.4 139.0 123.2 139.2 123.1 139.55 L122.5 139.7 110.55 150.85 106.05 154.6 Q103.05 153.0 99.05 151.5 L107.4 144.85 110.9 141.7 113.85 138.9 118.5 134.3 118.7 134.1 Q128.15 124.65 135.9 114.65 143.85 104.2 149.95 93.0 161.45 71.85 166.4 48.0 169.45 33.15 170.0 17.2 L174.05 12.4 176.8 9.1 M-6.25 192.45 L-23.7 191.6 Q-85.45 185.5 -130.9 140.75 L-132.65 139.0 -132.65 139.2 -141.0 130.3 -146.9 123.2 Q-166.05 99.55 -176.0 71.85 -181.05 57.95 -183.45 43.15 L-184.3 38.05 -184.8 34.05 -179.4 34.45 -177.55 34.45 Q-172.55 75.0 -149.55 108.35 L-146.4 112.8 Q-138.1 123.9 -127.7 134.3 L-127.7 134.1 -124.55 137.05 Q-74.55 185.6 -4.5 185.6 L-3.4 185.6 -1.9 185.6 Q-2.65 185.95 -3.2 186.7 -5.85 189.2 -6.25 192.45 M-186.0 13.2 L-186.05 10.4 Q-186.05 3.05 -185.5 -4.1 -182.2 -0.7 -178.85 0.55 L-179.0 11.1 -179.0 11.45 -179.0 13.85 -178.85 16.1 Q-181.25 15.0 -182.7 14.6 -185.0 13.45 -186.0 13.2" fill="#b4b4b4" fill-rule="evenodd" stroke="none"/>
    <path d="M-126.0 -109.25 L-125.45 -110.1 Q-119.75 -115.65 -113.8 -120.6 -67.2 -159.9 -4.5 -159.9 63.3 -159.9 112.2 -113.9 L116.25 -110.1 Q124.9 -101.45 132.0 -92.25 L138.1 -84.15 140.15 -81.1 141.75 -78.65 Q142.5 -77.1 143.45 -75.95 148.3 -67.5 152.25 -58.7 158.05 -45.85 161.3 -32.2 L161.4 -31.85 Q166.5 -11.55 166.5 11.1 L166.25 20.9 165.85 27.2 Q164.95 38.5 162.6 49.25 159.75 62.1 155.0 74.15 145.4 98.4 127.75 119.35 122.35 125.7 116.25 131.85 L108.6 139.15 102.25 144.7 95.25 150.25 94.2 151.05 90.4 153.5 Q74.1 164.8 56.1 171.75 28.45 181.9 -3.35 182.1 L-4.5 182.1 Q-71.8 182.1 -120.5 136.65 L-125.45 131.85 Q-130.85 126.45 -135.6 120.95 -145.25 109.6 -152.55 97.35 -169.95 68.2 -174.15 33.5 L-174.75 29.85 -175.15 24.35 -175.3 19.15 -175.45 15.4 -175.5 11.1 -175.3 6.7 -175.15 0.15 Q-174.75 -11.75 -172.45 -22.45 -169.55 -38.75 -163.45 -53.35 L-162.9 -54.9 -162.45 -56.0 Q-159.7 -62.9 -155.95 -69.65 L-152.55 -75.75 -151.55 -77.05 -151.55 -77.1 -150.75 -78.25 -150.75 -78.45 Q-146.0 -86.15 -140.05 -93.4 -133.7 -101.65 -126.05 -109.1 L-126.0 -109.25" fill="none" stroke="#333333" stroke-linecap="round" stroke-linejoin="round" stroke-width="1.5"/>
    <path d="M-139.3 -110.95 L-135.95 -114.55 -132.8 -117.7 -132.8 -118.05 -132.65 -118.05 Q-79.75 -171.0 -4.7 -171.0 69.1 -171.0 121.65 -120.0 L123.4 -118.05 Q139.7 -101.7 151.1 -83.35 157.9 -72.35 162.9 -60.65 L165.5 -54.0 167.65 -47.9 Q169.6 -42.0 171.1 -35.7 172.65 -29.95 173.7 -23.7 L174.55 -19.0 Q176.65 -5.25 176.8 9.1 L176.8 10.9 Q176.8 29.6 173.5 46.9 169.1 69.85 158.8 90.5 145.75 116.65 123.4 139.0 123.2 139.2 123.1 139.55 L122.5 139.7 110.55 150.85 106.05 154.6 100.25 159.0 Q97.8 160.95 95.2 162.5 84.05 170.0 72.4 175.75 68.4 177.5 64.4 179.45 57.45 182.2 50.3 184.4 L46.45 185.5 46.1 185.5 Q24.85 191.6 1.2 192.45 L-4.5 192.45 -6.25 192.45 -23.7 191.6 Q-85.45 185.5 -130.9 140.75 L-132.65 139.0 -132.65 139.2 -141.0 130.3 -146.9 123.2 Q-166.05 99.55 -176.0 71.85 -181.05 57.95 -183.45 43.15 L-184.3 38.05 -184.8 34.05 Q-185.75 26.15 -185.85 18.25 -186.05 17.0 -185.85 15.8 L-186.0 13.2 -186.05 10.4 Q-186.05 3.05 -185.5 -4.1 -183.75 -29.1 -175.65 -51.6 -171.1 -64.35 -164.5 -76.25 -159.95 -84.4 -154.45 -92.15 -147.6 -101.85 -139.3 -110.95 Z" fill="none" stroke="#333333" stroke-linecap="round" stroke-linejoin="round" stroke-width="3.5"/>
  </g>
  <defs>
    <radialGradient cx="0" cy="0" gradientTransform="matrix(0.1284, 0.0, 0.0, 0.1248, -11.0, -21.0)" gradientUnits="userSpaceOnUse" id="gradient0" r="819.2" spreadMethod="pad">
      <stop offset="0.0" stop-color="#883700"/>
      <stop offset="0.7019607843137254" stop-color="#743200"/>
      <stop offset="1.0" stop-color="#642f00"/>
    </radialGradient>
  </defs>
</svg>
