<?xml version="1.0" encoding="UTF-8" standalone="no"?>
<svg xmlns:ffdec="https://www.free-decompiler.com/flash" xmlns:xlink="http://www.w3.org/1999/xlink" ffdec:objectType="shape" height="32.05px" width="15.1px" xmlns="http://www.w3.org/2000/svg">
  <g transform="matrix(1.0, 0.0, 0.0, 1.0, 8.5, 16.05)">
    <path d="M3.05 -15.3 Q5.8 -15.3 5.85 -11.9 L5.85 11.85 Q5.8 15.25 3.05 15.25 L-5.0 15.25 Q-7.75 15.25 -7.75 11.75 L-7.75 -11.8 Q-7.75 -15.3 -5.0 -15.3 L3.05 -15.3" fill="url(#gradient0)" fill-rule="evenodd" stroke="none"/>
    <path d="M3.05 -15.3 L-5.0 -15.3 Q-7.75 -15.3 -7.75 -11.8 L-7.75 11.75 Q-7.75 15.25 -5.0 15.25 L3.05 15.25 Q5.8 15.25 5.85 11.85 L5.85 -11.9 Q5.8 -15.3 3.05 -15.3 Z" fill="none" stroke="#330000" stroke-linecap="round" stroke-linejoin="round" stroke-width="1.5"/>
  </g>
  <defs>
    <linearGradient gradientTransform="matrix(0.0, 0.0168, -0.2077, 0.0, 162.4, 0.2)" gradientUnits="userSpaceOnUse" id="gradient0" spreadMethod="pad" x1="-819.2" x2="819.2">
      <stop offset="0.0" stop-color="#ffcc00"/>
      <stop offset="1.0" stop-color="#ff6d12"/>
    </linearGradient>
  </defs>
</svg>
