<?xml version="1.0" encoding="UTF-8" standalone="no"?>
<svg xmlns:ffdec="https://www.free-decompiler.com/flash" xmlns:xlink="http://www.w3.org/1999/xlink" ffdec:objectType="shape" height="27.7px" width="28.4px" xmlns="http://www.w3.org/2000/svg">
  <g transform="matrix(1.0, 0.0, 0.0, 1.0, 13.9, 13.85)">
    <path d="M0.8 -13.85 L1.0 -13.75 1.1 -13.55 2.3 -12.0 4.0 -8.7 4.05 -8.55 4.1 -8.45 5.35 -6.05 5.5 -6.05 6.6 -5.8 7.75 -5.65 10.2 -5.15 10.2 -5.2 11.9 -4.9 11.95 -4.9 12.4 -4.8 12.45 -4.8 12.45 -4.75 12.9 -4.7 12.85 -4.7 14.2 -4.05 14.5 -3.25 14.2 -2.55 14.15 -2.45 14.1 -2.4 13.85 -1.95 13.2 -1.15 12.55 -0.25 11.2 1.2 11.1 1.35 10.55 1.9 10.25 2.2 10.25 2.25 10.2 2.35 10.1 2.45 Q10.0 2.45 9.95 2.55 L9.75 2.75 8.85 3.75 8.75 3.75 8.75 3.8 8.85 4.05 8.95 5.45 9.0 5.6 9.05 5.8 9.25 6.3 9.4 7.05 9.4 7.1 9.95 9.1 10.2 10.75 10.6 12.4 10.6 12.7 10.6 13.15 10.6 13.25 10.6 13.3 10.55 13.3 10.45 13.6 10.0 13.85 9.85 13.85 9.75 13.85 9.6 13.85 9.4 13.85 9.25 13.85 8.9 13.7 8.75 13.65 3.5 11.4 3.2 11.25 1.8 10.65 0.6 10.15 0.2 10.05 -0.5 10.35 -3.4 11.55 -5.8 12.55 -8.1 13.3 -8.9 13.55 -9.05 13.55 -9.45 13.55 -9.65 13.55 -10.3 13.25 -10.4 13.05 -10.45 12.6 -10.4 12.35 -10.4 12.2 -10.0 9.65 -9.95 9.65 -9.4 7.35 -8.8 5.1 -8.8 4.85 -8.8 4.8 -8.55 3.5 -8.5 3.5 -8.45 3.3 -8.3 3.2 -8.35 3.2 -8.3 3.1 -8.35 3.0 -8.4 3.1 -8.55 3.0 -8.85 2.55 -11.0 0.4 -11.35 0.05 -11.5 -0.05 -11.95 -0.55 -13.35 -2.1 -13.4 -2.2 -13.6 -2.45 -13.6 -2.6 -13.7 -2.85 -13.75 -2.95 -13.9 -3.45 Q-13.9 -4.2 -13.1 -4.45 L-13.1 -4.55 -12.3 -4.85 -11.0 -5.1 -10.7 -5.1 -8.9 -5.3 -8.45 -5.35 -7.95 -5.4 -7.75 -5.4 -6.95 -5.45 -6.9 -5.45 -6.75 -5.45 -6.65 -5.45 -6.6 -5.5 -6.1 -5.65 -5.65 -5.65 -5.45 -5.65 -5.45 -5.7 -4.85 -5.8 -4.55 -6.3 -3.25 -8.9 Q-1.45 -12.45 -0.65 -13.4 L-0.55 -13.4 -0.35 -13.75 0.0 -13.8 0.2 -13.85 0.8 -13.85 M-8.3 3.0 L-8.3 3.05 -8.25 3.05 -8.25 2.9 -8.3 3.0" fill="#0000ff" fill-rule="evenodd" stroke="none"/>
  </g>
</svg>
