<?xml version="1.0" encoding="UTF-8" standalone="no"?>
<svg xmlns:ffdec="https://www.free-decompiler.com/flash" xmlns:xlink="http://www.w3.org/1999/xlink" ffdec:objectType="shape" height="22.75px" width="22.75px" xmlns="http://www.w3.org/2000/svg">
  <g transform="matrix(1.0, 0.0, 0.0, 1.0, 11.4, 11.4)">
    <path d="M5.6 -10.9 Q10.85 -10.9 10.85 -5.65 L10.85 5.6 Q10.85 10.85 5.6 10.85 L-5.65 10.85 Q-7.35 10.85 -8.5 10.3 -10.9 9.15 -10.9 5.6 L-10.9 -5.65 Q-10.9 -9.2 -8.5 -10.35 -7.35 -10.9 -5.65 -10.9 L5.6 -10.9" fill="url(#gradient0)" fill-rule="evenodd" stroke="none"/>
    <path d="M5.6 -10.9 L-5.65 -10.9 Q-7.35 -10.9 -8.5 -10.35 -10.9 -9.2 -10.9 -5.65 L-10.9 5.6 Q-10.9 9.15 -8.5 10.3 -7.35 10.85 -5.65 10.85 L5.6 10.85 Q10.85 10.85 10.85 5.6 L10.85 -5.65 Q10.85 -10.9 5.6 -10.9 Z" fill="none" stroke="#000000" stroke-linecap="round" stroke-linejoin="round" stroke-width="1.0"/>
  </g>
  <defs>
    <linearGradient gradientTransform="matrix(0.0, 0.0131, -0.0131, 0.0, -0.15, 0.1)" gradientUnits="userSpaceOnUse" id="gradient0" spreadMethod="pad" x1="-819.2" x2="819.2">
      <stop offset="0.0" stop-color="#70ff51"/>
      <stop offset="1.0" stop-color="#298c00"/>
    </linearGradient>
  </defs>
</svg>
