<?xml version="1.0" encoding="UTF-8" standalone="no"?>
<svg xmlns:ffdec="https://www.free-decompiler.com/flash" xmlns:xlink="http://www.w3.org/1999/xlink" ffdec:objectType="shape" height="34.35px" width="30.3px" xmlns="http://www.w3.org/2000/svg">
  <g transform="matrix(1.0, 0.0, 0.0, 1.0, -32.0, -6.25)">
    <path d="M34.0 20.35 L32.65 19.8 32.65 16.05 32.6 15.9 32.7 13.7 32.75 13.75 32.7 13.25 32.7 12.5 32.9 12.1 33.05 11.9 33.35 11.45 33.7 11.0 43.45 6.5 43.7 6.3 44.6 6.25 46.1 6.8 47.15 7.4 47.3 7.5 47.4 7.65 47.85 7.85 48.4 8.35 48.4 8.4 48.5 8.45 49.0 8.7 49.05 8.75 49.75 9.25 49.8 9.2 50.25 9.5 50.95 9.85 52.7 10.85 53.6 11.35 55.0 12.15 55.05 12.2 56.65 13.05 56.95 13.25 58.05 13.85 58.1 13.85 58.15 13.9 61.95 15.95 62.2 16.25 62.25 16.2 62.3 16.35 62.3 32.25 61.75 33.4 61.65 33.5 61.6 33.6 61.0 34.1 60.8 34.2 52.0 40.4 51.15 40.55 50.9 40.55 50.85 40.55 50.5 40.6 50.35 40.5 49.65 40.2 49.5 40.15 49.05 39.95 48.75 37.75 48.75 37.7 48.8 37.7 49.05 37.85 49.1 37.9 49.35 38.0 50.5 38.55 50.75 38.55 50.85 38.6 50.9 38.65 51.05 38.75 51.15 38.75 51.2 38.7 51.3 38.7 51.45 38.6 51.55 38.6 51.5 38.7 51.6 38.65 51.65 38.55 51.9 38.35 52.0 38.3 52.05 38.25 52.5 37.9 52.7 37.8 53.05 37.55 53.2 37.45 53.3 37.35 53.35 37.35 53.45 37.15 53.5 37.15 53.6 37.05 53.6 36.95 53.55 37.0 53.6 36.9 53.45 37.0 53.6 36.85 53.8 36.7 53.8 36.9 55.85 35.5 56.05 35.35 56.1 35.3 56.1 35.35 56.15 35.35 56.15 35.25 56.35 35.2 56.4 35.15 56.5 35.1 56.5 35.0 56.55 35.05 56.55 34.95 56.85 34.85 57.15 34.55 57.35 34.45 58.4 33.7 58.55 33.7 58.55 33.55 58.9 33.2 59.0 33.3 59.0 33.35 59.05 33.3 59.2 33.1 59.4 33.05 60.45 32.35 60.5 32.3 60.55 32.15 60.6 32.1 60.7 32.0 60.7 31.9 61.0 31.6 60.95 19.45 60.95 19.25 61.05 18.6 61.05 18.4 61.05 17.95 61.05 17.85 61.05 17.7 61.05 17.65 61.0 17.4 60.95 17.15 60.7 16.7 60.7 16.65 59.5 16.0 Q59.3 15.8 59.0 15.75 L59.0 15.7 58.85 15.65 58.7 15.55 58.25 15.65 55.2 13.9 55.15 13.9 54.8 13.7 54.35 13.45 53.75 13.1 53.65 13.05 50.5 11.15 49.8 10.85 49.6 10.75 48.15 9.9 48.25 9.9 47.4 9.4 47.35 9.4 46.5 8.9 46.45 8.8 46.3 8.8 45.8 8.5 45.7 8.45 45.7 8.35 44.95 7.9 44.7 7.7 44.05 7.7 43.6 7.85 43.55 7.95 42.7 8.25 Q42.0 8.55 41.65 8.75 L40.5 9.25 Q39.25 9.75 38.55 10.15 L37.7 10.45 37.0 10.8 Q33.9 12.15 33.9 13.25 L33.95 13.45 33.9 13.65 33.9 13.7 33.8 13.6 33.8 14.85 33.95 15.0 34.0 15.35 34.0 15.45 34.0 15.5 34.0 15.6 34.0 20.35 M47.65 37.1 L47.85 38.5 47.95 39.35 47.7 39.2 47.25 38.95 47.15 38.85 46.85 38.8 46.2 38.45 40.95 35.8 40.35 36.25 39.2 35.7 38.75 33.65 39.3 33.85 39.4 33.95 39.6 34.15 39.75 34.1 39.8 34.2 39.85 34.3 39.9 34.25 40.3 34.45 40.45 34.5 40.9 34.7 41.3 34.85 41.35 34.9 41.6 35.0 42.2 34.55 42.55 34.75 43.05 35.0 43.5 35.2 43.55 35.3 43.65 35.35 46.1 36.45 46.15 36.45 46.3 36.55 46.9 36.8 47.35 37.0 47.4 37.0 47.65 37.1 M37.95 33.15 L38.4 35.2 34.8 33.35 34.05 32.95 33.45 32.7 33.35 32.6 33.3 32.55 32.95 32.5 32.45 31.9 32.45 31.85 32.2 31.35 32.0 30.7 32.05 26.2 Q32.75 26.4 33.4 26.75 L33.4 30.15 34.05 30.95 34.2 31.05 34.35 31.1 34.4 31.1 34.55 31.15 34.75 31.35 34.85 31.4 35.0 31.45 35.1 31.55 35.2 31.5 35.2 31.55 35.5 31.75 35.7 31.85 35.8 31.9 35.9 32.0 36.0 32.1 36.0 32.2 36.15 32.25 36.2 32.2 36.35 32.35 36.6 32.45 Q37.2 32.8 37.95 33.15 M46.05 18.35 L46.2 18.45 46.35 18.55 46.35 18.6 46.15 18.85 45.55 19.4 44.9 19.85 44.9 19.95 44.9 20.05 44.9 20.1 44.8 20.1 44.8 22.2 44.75 23.7 44.7 24.7 44.65 25.55 44.45 25.4 44.25 25.45 44.2 25.45 44.15 25.4 44.05 25.35 44.0 25.3 43.65 25.15 43.55 25.05 40.5 23.5 40.35 23.35 40.2 23.35 40.15 23.35 40.1 23.3 39.75 23.1 39.75 19.95 39.75 19.25 39.75 18.9 39.7 18.2 39.7 17.35 39.7 16.75 40.1 16.4 40.15 16.35 41.6 15.7 41.7 15.65 42.25 15.9 42.6 16.1 44.65 17.45 44.85 17.6 45.3 17.95 45.35 17.9 45.7 18.1 46.0 18.35 46.05 18.35 M45.15 18.35 L44.9 18.2 44.9 18.25 44.4 17.9 44.15 17.7 42.65 16.7 41.8 16.2 41.6 16.3 41.4 16.4 40.1 16.95 40.1 17.05 40.15 18.45 40.15 19.1 40.2 18.8 40.2 22.7 43.4 24.35 43.4 24.45 43.9 24.7 43.9 24.65 44.35 24.9 44.35 20.4 44.35 19.75 45.5 18.7 45.4 18.6 45.15 18.35 M44.9 20.15 L44.85 20.15 44.8 20.1 44.9 20.15 M59.05 22.3 L59.05 23.55 59.0 23.6 59.05 22.3 M42.75 40.4 L42.5 40.6 42.45 40.35 42.65 40.3 42.75 40.4" fill="#000000" fill-rule="evenodd" stroke="none"/>
    <path d="M33.4 26.75 L34.4 27.35 34.7 27.55 35.3 28.05 35.3 28.55 35.3 28.85 35.35 29.9 35.35 29.95 35.35 30.75 35.35 31.5 35.4 31.65 35.2 31.55 35.2 31.5 35.1 31.55 35.0 31.45 34.85 31.4 34.75 31.35 34.55 31.15 34.4 31.1 34.35 31.1 34.2 31.05 34.05 30.95 33.4 30.15 33.4 26.75 M60.95 17.15 L61.0 17.4 61.05 17.65 61.05 17.7 61.05 17.85 61.05 17.95 61.05 18.4 61.05 18.6 50.65 23.75 50.65 23.7 50.55 23.65 50.55 23.3 50.55 23.2 50.55 23.05 50.85 22.4 Q51.45 21.4 52.55 20.75 53.5 20.2 56.2 18.9 57.55 18.25 58.25 17.95 59.55 17.35 60.95 17.15 M60.95 19.45 L61.0 31.6 60.7 31.9 60.7 32.0 60.6 32.1 60.55 32.15 60.5 32.3 60.45 32.35 59.4 33.05 59.2 33.1 59.05 33.3 59.0 33.35 59.0 33.3 58.9 33.2 58.9 29.25 59.05 29.1 59.05 23.55 59.05 22.3 59.15 20.35 60.95 19.45 M53.45 37.0 L53.6 36.9 53.55 37.0 53.6 36.95 53.6 37.05 53.5 37.15 53.45 37.15 53.35 37.35 53.3 37.35 53.2 37.45 53.05 37.55 52.7 37.8 52.5 37.9 52.05 38.25 52.0 38.3 51.9 38.35 51.65 38.55 51.6 38.65 51.5 38.7 51.55 38.6 51.45 38.6 51.3 38.7 51.2 38.7 51.15 38.75 51.05 38.75 50.9 38.65 50.85 38.6 50.65 24.35 53.35 23.1 53.35 37.15 53.45 37.0 M49.1 22.55 L49.1 22.5 49.15 22.55 49.1 22.55" fill="#a36630" fill-rule="evenodd" stroke="none"/>
    <path d="M61.05 18.6 L60.95 19.25 60.95 19.45 59.15 20.35 59.05 22.3 59.0 23.6 59.05 23.55 59.05 29.1 58.9 29.25 58.9 33.2 58.55 33.55 58.55 33.7 58.4 33.7 57.35 34.45 57.15 34.55 56.85 34.85 56.55 34.95 56.65 25.8 56.75 25.65 56.65 23.8 56.65 22.9 56.65 22.25 56.65 21.5 56.65 21.35 59.15 20.2 59.15 19.6 54.95 21.75 53.35 22.55 53.35 22.95 56.2 21.55 56.15 31.7 56.1 31.75 56.15 32.1 56.15 32.5 56.15 32.6 56.15 32.7 56.15 33.55 56.15 35.1 56.35 35.2 56.15 35.25 56.15 35.35 56.1 35.35 56.1 35.3 56.05 35.35 55.85 35.5 53.8 36.9 53.8 36.7 53.6 36.85 53.45 37.0 53.35 37.15 53.35 23.1 50.65 24.35 50.65 23.75 61.05 18.6 M45.7 9.0 L45.3 9.2 44.55 9.5 45.25 9.05 45.7 9.0 M38.4 12.8 L38.3 12.85 38.35 12.8 38.4 12.8 M37.5 13.4 L37.7 13.7 37.6 13.75 37.3 13.5 37.5 13.4 M39.3 14.6 L40.15 15.1 40.1 15.1 39.7 15.35 38.85 14.85 38.9 14.85 39.3 14.6" fill="#623500" fill-rule="evenodd" stroke="none"/>
    <path d="M37.0 10.8 L37.7 10.45 38.55 10.15 Q39.25 9.75 40.5 9.25 L41.65 8.75 Q42.0 8.55 42.7 8.25 L43.55 7.95 43.6 7.85 44.05 7.7 44.7 7.7 44.95 7.9 45.7 8.35 45.7 8.45 45.8 8.5 46.3 8.8 46.2 8.8 45.05 8.95 38.8 12.0 38.7 12.0 38.15 12.3 37.85 12.4 Q37.15 11.6 37.0 10.8 M58.85 15.65 L59.0 15.7 59.0 15.75 Q59.3 15.8 59.5 16.0 L60.7 16.65 60.7 16.7 60.95 17.15 Q59.55 17.35 58.25 17.95 57.55 18.25 56.2 18.9 53.5 20.2 52.55 20.75 51.45 21.4 50.85 22.4 L50.55 23.05 50.55 22.95 50.65 22.05 50.7 22.0 50.4 21.55 49.05 20.65 49.25 20.7 49.45 20.7 49.35 20.5 Q49.35 20.25 49.7 20.15 L49.8 20.1 49.9 20.1 51.5 19.3 58.85 15.65" fill="#de883b" fill-rule="evenodd" stroke="none"/>
    <path d="M44.55 9.5 Q43.55 9.9 41.85 10.8 40.25 11.65 39.3 12.2 L36.75 13.35 36.7 13.35 36.6 13.05 Q36.95 12.7 37.75 12.4 L37.85 12.4 38.15 12.3 38.7 12.0 38.8 12.0 45.05 8.95 46.2 8.8 45.75 8.95 45.7 9.0 45.25 9.05 44.55 9.5" fill="#412504" fill-rule="evenodd" stroke="none"/>
    <path d="M46.3 8.8 L46.45 8.8 46.5 8.9 47.35 9.4 47.4 9.4 48.25 9.9 48.15 9.9 49.6 10.75 46.7 12.35 40.9 15.55 40.1 15.1 40.15 15.1 39.3 14.6 38.15 14.0 38.1 14.05 37.6 13.75 37.7 13.7 37.5 13.4 Q37.5 13.05 38.3 12.9 L38.3 12.85 38.4 12.8 39.3 12.2 Q40.25 11.65 41.85 10.8 43.55 9.9 44.55 9.5 L45.3 9.2 45.7 9.0 45.75 8.95 46.2 8.8 46.3 8.8 M50.5 11.15 L53.65 13.05 53.75 13.1 47.85 16.7 47.75 16.75 47.45 16.9 47.2 17.0 46.7 17.25 46.05 17.7 45.95 17.7 45.55 18.0 45.7 18.1 45.35 17.9 45.3 17.95 44.85 17.6 44.65 17.45 42.6 16.1 42.25 15.9 41.7 15.65 47.4 12.75 50.5 11.15 M54.8 13.7 L55.15 13.9 55.2 13.9 58.25 15.65 57.8 15.8 57.3 16.15 57.15 16.25 56.35 16.6 56.05 16.8 Q55.8 16.9 55.6 17.05 L54.6 17.55 53.45 18.15 52.8 18.55 53.3 18.3 51.5 19.3 49.9 20.1 49.8 20.1 49.7 20.15 49.65 20.1 49.3 20.1 49.0 20.0 48.95 20.05 48.9 19.95 48.85 19.95 46.35 18.55 46.2 18.45 46.05 18.35 51.95 15.25 54.8 13.7" fill="#a5590e" fill-rule="evenodd" stroke="none"/>
    <path d="M49.8 10.85 L50.5 11.15 47.4 12.75 47.1 12.55 47.55 12.25 48.45 11.7 Q49.1 11.3 49.5 11.05 L49.8 10.85 M54.35 13.45 L54.8 13.7 51.95 15.25 51.55 15.05 54.35 13.45" fill="#955100" fill-rule="evenodd" stroke="none"/>
    <path d="M49.6 10.75 L49.8 10.85 49.5 11.05 Q49.1 11.3 48.45 11.7 L47.55 12.25 47.1 12.55 47.4 12.75 41.7 15.65 41.6 15.7 41.2 15.8 40.9 15.55 47.1 12.55 46.7 12.35 49.6 10.75 M53.75 13.1 L54.35 13.45 51.55 15.05 47.45 17.35 47.35 17.45 47.3 17.5 47.1 17.6 46.4 18.05 46.05 18.3 46.05 18.35 46.0 18.35 45.7 18.1 45.55 18.0 45.95 17.7 46.05 17.7 46.7 17.25 47.2 17.0 47.45 16.9 47.75 16.75 47.85 16.7 53.75 13.1" fill="#794201" fill-rule="evenodd" stroke="none"/>
    <path d="M35.9 21.65 Q35.1 20.95 34.25 20.5 L34.0 20.35 34.0 15.6 34.0 15.5 34.0 15.45 34.0 15.35 33.95 15.0 33.8 14.85 33.8 13.6 33.9 13.7 33.9 13.65 34.4 14.0 36.25 15.3 37.2 15.95 37.35 16.0 38.2 16.5 38.15 16.5 39.7 17.35 39.7 18.2 39.75 18.9 35.85 16.5 35.8 16.3 35.8 16.4 35.75 16.45 35.8 16.5 35.8 16.6 35.8 16.65 35.8 17.0 35.8 17.1 35.75 17.75 35.75 18.3 35.75 18.45 35.8 19.5 35.8 19.8 35.85 20.6 35.9 21.65 M58.25 15.65 L58.7 15.55 58.85 15.65 51.5 19.3 53.3 18.3 52.8 18.55 53.45 18.15 54.6 17.55 55.6 17.05 Q55.8 16.9 56.05 16.8 L56.35 16.6 57.15 16.25 57.3 16.15 57.8 15.8 58.25 15.65 M50.85 38.6 L50.75 38.55 50.5 38.55 49.35 38.0 49.1 37.9 49.05 37.85 49.05 37.75 48.9 37.65 48.8 37.55 48.8 34.0 49.1 34.15 49.05 24.5 44.85 21.95 44.9 20.15 44.8 20.1 44.9 20.1 44.95 20.1 45.15 20.2 45.0 20.1 44.9 20.05 44.9 19.95 50.55 22.95 50.55 23.05 50.55 23.2 50.55 23.3 50.55 23.65 50.65 23.7 50.65 23.75 50.65 24.35 50.85 38.6 M39.3 12.2 L38.4 12.8 38.35 12.8 38.3 12.85 38.3 12.9 Q37.5 13.05 37.5 13.4 L37.3 13.5 37.6 13.75 38.1 14.05 38.15 14.0 39.3 14.6 38.9 14.85 38.8 14.8 37.7 14.0 36.75 13.35 39.3 12.2 M40.1 15.1 L40.9 15.55 46.7 12.35 47.1 12.55 40.9 15.55 41.2 15.8 40.8 15.9 39.7 15.35 40.1 15.1 M46.15 18.85 L46.35 18.6 46.35 18.55 48.85 19.95 48.9 19.95 48.95 20.05 49.0 20.0 49.3 20.1 49.65 20.1 49.7 20.15 Q49.35 20.25 49.35 20.5 L49.45 20.7 49.25 20.7 49.05 20.65 49.0 20.65 48.95 20.55 46.15 18.85 M46.05 18.35 L46.05 18.3 46.4 18.05 47.1 17.6 47.3 17.5 47.35 17.45 47.45 17.35 51.55 15.05 51.95 15.25 46.05 18.35 M49.1 22.55 L49.15 22.55 49.1 22.5 49.1 22.55" fill="#5f3511" fill-rule="evenodd" stroke="none"/>
    <path d="M40.1 17.05 L40.1 16.95 41.4 16.4 41.6 16.3 41.8 16.2 42.65 16.7 44.15 17.7 44.4 17.9 44.9 18.25 44.9 18.2 45.15 18.35 45.15 18.4 45.25 18.5 45.4 18.6 45.5 18.7 44.35 19.75 43.95 19.45 43.95 19.4 43.8 19.3 43.75 19.25 43.65 19.2 43.65 19.3 43.15 18.95 43.15 18.9 42.75 18.65 42.35 18.4 40.1 17.05" fill="#ffc223" fill-rule="evenodd" stroke="none"/>
    <path d="M33.9 13.65 L33.95 13.45 33.9 13.25 Q33.9 12.15 37.0 10.8 37.15 11.6 37.85 12.4 L37.75 12.4 Q36.95 12.7 36.6 13.05 L36.7 13.35 36.75 13.35 37.7 14.0 38.8 14.8 38.9 14.85 38.85 14.85 39.7 15.35 40.8 15.9 41.2 15.8 41.6 15.7 40.15 16.35 40.1 16.4 39.7 16.75 39.7 17.35 38.15 16.5 38.2 16.5 37.35 16.0 37.2 15.95 36.25 15.3 34.4 14.0 33.9 13.65 M44.9 19.95 L44.9 19.85 45.55 19.4 46.15 18.85 48.95 20.55 49.0 20.65 49.05 20.65 50.4 21.55 50.7 22.0 50.65 22.05 50.55 22.95 44.9 19.95" fill="#c67934" fill-rule="evenodd" stroke="none"/>
    <path d="M35.3 28.05 L35.55 28.3 35.75 31.8 35.8 31.9 35.7 31.85 35.5 31.75 35.2 31.55 35.4 31.65 35.35 31.5 35.35 30.75 35.35 29.95 35.35 29.9 35.3 28.85 35.3 28.55 35.3 28.05 M36.0 21.75 L35.9 21.65 35.85 20.6 35.8 19.8 35.8 19.5 35.75 18.45 35.75 18.3 35.75 17.75 35.8 17.1 35.8 17.0 35.8 16.65 35.8 16.6 35.8 16.5 35.75 16.45 35.8 16.4 35.8 16.3 35.85 16.5 36.15 21.9 36.0 21.75 M49.05 37.85 L48.8 37.7 48.8 37.55 48.9 37.65 49.05 37.75 49.05 37.85 M44.8 22.2 L44.8 20.1 44.85 20.15 44.9 20.15 44.85 21.95 44.8 22.2 M45.4 18.6 L45.25 18.5 45.15 18.4 45.15 18.35 45.4 18.6" fill="#271601" fill-rule="evenodd" stroke="none"/>
    <path d="M40.1 17.05 L42.35 18.4 42.75 18.65 43.15 18.9 43.15 18.95 43.65 19.3 43.65 19.2 43.75 19.25 43.8 19.3 43.95 19.4 43.95 19.45 44.35 19.75 44.35 20.4 44.3 20.45 44.2 20.6 44.1 20.45 44.1 20.35 43.85 20.3 43.8 20.3 43.75 20.25 43.8 20.15 43.65 20.05 43.65 20.2 43.15 19.8 43.15 19.75 43.0 19.7 42.85 19.6 42.85 19.55 42.75 19.55 42.65 19.5 41.35 18.95 40.4 18.5 40.35 18.55 40.25 18.55 40.25 18.65 40.2 18.8 40.15 19.1 40.15 18.45 40.1 17.05" fill="#745400" fill-rule="evenodd" stroke="none"/>
    <path d="M40.2 18.8 L40.25 18.65 40.25 18.55 40.35 18.55 40.4 18.5 41.35 18.95 42.65 19.5 42.75 19.55 42.85 19.55 42.85 19.6 43.0 19.7 43.15 19.75 43.15 19.8 43.65 20.2 43.65 20.05 43.8 20.15 43.75 20.25 43.8 20.3 43.85 20.3 44.1 20.35 44.1 20.45 44.2 20.6 44.3 20.45 44.35 20.4 44.35 24.9 43.9 24.65 43.9 24.7 43.4 24.45 43.4 24.35 40.2 22.7 40.2 18.8 M41.15 19.45 L41.15 21.65 42.85 22.4 42.85 20.3 41.15 19.45" fill="#7b5a02" fill-rule="evenodd" stroke="none"/>
    <path d="M41.15 19.45 L42.85 20.3 42.85 22.4 41.15 21.65 41.15 19.45" fill="#381f00" fill-rule="evenodd" stroke="none"/>
    <path d="M48.75 37.7 L48.3 33.85 48.15 32.5 47.0 31.8 47.4 34.9 47.65 37.1 47.4 37.0 47.35 37.0 46.9 36.8 46.3 36.55 46.15 36.45 46.1 36.45 43.65 35.35 43.55 35.3 43.5 35.2 43.05 35.0 42.55 34.75 42.2 34.55 41.6 35.0 41.35 34.9 41.3 34.85 40.9 34.7 40.45 34.5 40.3 34.45 39.9 34.25 39.85 34.3 39.8 34.2 39.75 34.1 39.6 34.15 39.4 33.95 39.3 33.85 38.75 33.65 Q38.45 31.7 38.55 29.65 L38.6 29.1 38.6 28.9 38.4 28.9 37.8 28.75 37.75 29.15 37.75 29.45 Q37.65 31.35 37.95 33.15 37.2 32.8 36.6 32.45 L36.35 32.35 36.2 32.2 36.15 32.25 36.0 32.2 36.0 32.1 35.9 32.0 35.8 31.9 35.75 31.8 35.55 28.3 35.65 28.4 36.0 28.75 36.1 28.8 36.0 21.75 36.15 21.9 35.85 16.5 39.75 18.9 39.75 19.25 39.75 19.95 39.75 23.1 40.1 23.3 40.15 23.35 40.15 28.85 40.5 28.75 40.5 23.5 43.55 25.05 43.65 25.15 44.0 25.3 44.05 25.35 44.15 25.4 44.2 25.45 44.25 25.45 44.15 25.6 44.25 25.9 44.25 26.4 44.25 26.45 44.25 27.35 44.25 27.85 44.25 29.3 44.3 29.8 44.7 30.45 44.7 24.7 44.75 24.45 44.75 24.35 44.75 23.7 44.8 22.2 44.85 21.95 49.05 24.5 49.1 34.15 48.8 34.0 48.8 37.55 48.8 37.7 48.75 37.7 M56.55 34.95 L56.55 35.05 56.5 35.0 56.5 35.1 56.4 35.15 56.35 35.2 56.15 35.1 56.15 33.55 56.15 32.7 56.15 32.6 56.15 32.5 56.15 32.1 56.1 31.75 56.15 31.7 56.2 21.55 53.35 22.95 53.35 22.55 54.95 21.75 59.15 19.6 59.15 20.2 56.65 21.35 56.65 21.5 56.65 22.25 56.65 22.9 56.65 23.8 56.75 25.65 56.65 25.8 56.55 34.95 M45.15 32.7 L44.3 32.85 43.95 32.9 44.3 33.0 44.6 33.05 45.15 32.7" fill="#351e01" fill-rule="evenodd" stroke="none"/>
    <path d="M40.15 23.35 L40.2 23.35 40.35 23.35 40.5 23.5 40.5 28.75 40.15 28.85 40.15 23.35 M44.25 25.45 L44.45 25.4 44.65 25.55 44.7 24.7 44.75 23.7 44.75 24.35 44.75 24.45 44.7 24.7 44.7 30.45 44.3 29.8 44.25 29.3 44.25 27.85 44.25 27.35 44.25 26.45 44.25 26.4 44.25 25.9 44.15 25.6 44.25 25.45" fill="#512c00" fill-rule="evenodd" stroke="none"/>
  </g>
</svg>
