<?xml version="1.0" encoding="UTF-8" standalone="no"?>
<svg xmlns:ffdec="https://www.free-decompiler.com/flash" xmlns:xlink="http://www.w3.org/1999/xlink" ffdec:objectType="shape" height="33.1px" width="26.65px" xmlns="http://www.w3.org/2000/svg">
  <g transform="matrix(1.0, 0.0, 0.0, 1.0, -24.0, -19.05)">
    <path d="M50.65 35.6 L50.65 35.75 50.65 43.45 50.5 44.05 50.25 44.5 50.25 44.55 49.7 45.1 49.45 45.15 49.4 45.2 49.3 45.3 48.7 45.55 48.0 45.9 38.1 50.75 Q38.0 50.75 37.45 51.05 L37.2 51.15 36.95 51.3 36.65 51.45 35.95 51.8 35.0 52.15 34.6 52.15 34.35 52.15 33.6 52.0 25.2 46.15 24.35 45.6 24.3 45.55 24.25 45.5 24.05 45.0 24.0 44.9 24.0 35.05 24.25 34.15 24.8 33.85 Q25.75 33.4 26.25 33.1 L35.95 29.15 35.75 28.75 35.75 28.7 Q35.75 28.5 36.5 28.1 L36.3 25.0 36.35 22.3 37.05 19.05 37.3 19.65 37.0 27.85 37.25 27.75 37.35 27.7 38.45 27.2 40.2 26.8 40.2 26.75 40.6 26.9 40.75 26.95 41.0 27.15 49.85 32.3 50.2 32.75 50.55 33.5 50.65 35.6 M43.45 35.8 L43.7 35.95 43.8 36.0 44.4 36.45 44.5 36.65 44.5 41.85 44.2 42.0 44.05 42.1 43.55 42.4 43.45 42.45 43.4 42.45 43.0 42.6 42.05 43.1 41.95 43.15 41.8 43.2 41.55 43.3 41.3 43.35 40.95 43.55 40.85 43.55 40.8 43.6 40.65 43.3 40.75 42.85 40.7 42.6 40.7 42.35 40.7 42.3 40.7 40.0 40.65 39.6 40.65 39.55 40.65 39.05 40.7 39.05 40.65 38.6 40.65 38.45 40.75 38.45 40.75 38.4 40.65 38.4 40.55 38.45 40.55 38.4 39.7 38.0 39.7 37.95 38.85 37.4 38.65 37.45 38.65 37.4 38.65 37.3 38.7 37.2 38.9 37.05 39.0 37.0 39.05 37.0 39.2 36.9 40.55 36.25 Q42.2 35.45 42.65 35.45 L42.75 35.45 42.85 35.45 42.95 35.55 43.05 35.6 43.15 35.7 43.15 35.65 43.45 35.8 M49.35 35.3 Q49.5 34.35 49.1 33.75 L49.0 33.6 Q48.7 33.25 47.65 32.75 L47.5 32.7 46.75 32.25 46.35 32.05 46.3 32.0 43.15 30.15 42.75 29.9 42.45 29.8 40.8 28.85 40.55 28.65 40.05 28.4 Q39.35 28.35 38.6 28.85 L38.05 29.1 35.35 30.2 34.65 30.5 32.05 31.6 31.4 31.9 28.35 33.2 27.6 33.55 27.7 33.6 27.65 33.65 27.65 33.6 26.9 33.9 26.05 34.2 Q25.55 34.45 25.35 34.9 L25.35 35.05 25.35 35.4 25.45 35.45 25.4 35.45 25.45 35.5 Q25.3 35.7 25.3 35.95 L25.3 36.0 25.25 36.0 25.25 43.65 25.3 44.2 25.4 44.3 25.5 44.5 26.5 45.15 26.7 45.2 26.85 45.4 27.05 45.5 26.9 45.4 27.0 45.3 27.0 37.65 27.0 37.55 27.0 37.0 27.35 45.7 27.5 45.75 28.45 46.45 28.65 46.55 28.95 46.8 29.2 46.9 29.2 47.0 29.25 46.95 29.3 47.05 29.4 47.05 29.45 47.1 29.6 47.2 29.6 47.3 29.65 47.3 29.65 47.25 29.7 47.3 29.9 47.4 31.9 48.75 32.55 41.35 32.55 41.2 32.55 40.9 32.55 40.6 32.6 40.45 32.25 49.05 32.4 49.15 32.4 49.2 32.95 49.6 33.15 49.7 33.5 50.0 33.6 50.05 33.7 50.05 33.95 50.3 34.1 50.4 34.05 50.3 34.15 50.3 34.25 50.45 34.35 50.45 34.4 50.45 34.5 50.45 34.65 50.4 34.8 50.3 35.05 50.3 36.1 49.8 36.2 49.8 36.4 49.65 36.65 49.5 36.85 49.45 36.95 49.4 38.0 48.95 38.1 48.85 Q39.0 48.45 40.15 48.0 L40.55 47.8 40.65 47.8 40.7 47.7 42.5 46.85 43.45 46.45 43.9 46.25 43.9 46.3 44.0 46.25 44.0 46.15 44.15 46.15 44.3 46.0 44.4 45.95 46.2 45.1 46.5 44.95 46.65 44.85 46.8 44.8 46.8 44.7 47.0 44.6 47.1 44.55 47.6 44.25 47.65 44.2 47.75 44.2 47.85 44.15 47.95 44.1 48.05 44.05 48.25 43.9 48.4 43.85 48.7 43.7 49.35 42.9 49.35 35.3 M44.1 37.0 L44.05 36.8 44.0 36.8 Q43.5 36.35 43.15 36.25 42.95 36.05 42.8 36.0 L42.65 35.9 42.6 35.9 42.5 35.95 42.45 35.95 42.4 36.0 42.2 36.05 Q40.4 36.75 39.6 37.15 L39.55 37.2 39.6 37.25 39.65 37.25 39.8 37.35 39.85 37.4 39.95 37.45 40.2 37.55 40.45 37.65 40.85 37.95 41.15 38.15 41.05 38.15 41.05 38.65 41.1 41.95 41.15 42.7 41.15 43.1 44.15 41.7 44.2 41.65 44.2 41.55 44.25 41.55 44.2 41.5 44.15 37.85 44.2 37.85 44.2 37.65 44.1 37.0" fill="#000000" fill-rule="evenodd" stroke="none"/>
    <path d="M42.1 31.05 L42.95 30.3 42.95 30.25 43.0 30.25 43.95 30.8 44.15 30.85 45.1 31.35 46.3 32.0 46.35 32.05 46.75 32.25 47.5 32.7 47.65 32.75 Q48.7 33.25 49.0 33.6 L49.1 33.75 Q49.5 34.35 49.35 35.3 L49.35 35.2 49.35 34.95 49.15 34.95 48.8 35.05 48.7 35.05 47.55 35.55 47.45 35.6 47.4 35.65 47.3 35.7 47.25 35.7 46.6 36.0 46.4 36.05 46.2 36.15 44.6 36.75 44.6 36.8 44.55 36.7 44.5 36.65 44.4 36.45 43.8 36.0 43.7 35.95 43.45 35.8 46.8 34.4 46.9 34.2 46.95 34.1 47.0 34.1 46.9 33.85 45.85 33.2 45.55 33.05 45.0 32.75 44.9 32.75 42.1 31.05 M26.9 33.9 L27.65 33.6 27.65 33.65 28.4 34.0 28.55 34.05 Q28.8 34.1 29.3 34.4 L31.7 35.8 31.95 35.9 Q33.85 37.1 32.4 36.3 L36.3 38.8 38.55 37.9 38.6 37.8 38.75 37.75 39.5 38.15 40.2 38.65 40.15 38.75 40.05 38.75 34.85 41.0 34.8 41.05 34.75 41.0 34.7 41.05 34.7 40.9 34.7 40.8 34.7 40.6 34.65 40.5 34.5 39.95 34.35 39.6 33.8 38.95 28.05 35.4 28.05 35.35 26.15 34.25 26.1 34.2 26.9 33.9" fill="#c67934" fill-rule="evenodd" stroke="none"/>
    <path d="M46.3 32.0 L45.1 31.35 44.15 30.85 43.95 30.8 43.0 30.25 42.95 30.25 42.95 30.3 42.1 31.05 38.6 28.85 Q39.35 28.35 40.05 28.4 L40.55 28.65 40.8 28.85 42.45 29.8 42.75 29.9 43.15 30.15 46.3 32.0" fill="#de883b" fill-rule="evenodd" stroke="none"/>
    <path d="M42.1 31.05 L44.9 32.75 45.0 32.75 45.55 33.05 45.85 33.2 46.9 33.85 47.0 34.1 46.95 34.1 46.9 34.2 42.2 31.55 41.75 31.25 41.05 30.95 40.25 30.6 38.6 29.5 38.65 29.5 38.25 29.2 38.05 29.1 38.6 28.85 42.1 31.05 M25.3 36.0 L25.3 35.95 Q25.3 35.7 25.45 35.5 L25.4 35.45 25.45 35.45 27.05 36.65 27.1 37.0 26.55 36.75 26.15 36.5 25.5 36.0 25.35 36.0 25.3 36.0" fill="#412504" fill-rule="evenodd" stroke="none"/>
    <path d="M46.9 34.2 L46.8 34.4 43.45 35.8 43.15 35.65 43.15 35.7 43.05 35.6 43.4 35.45 45.35 34.65 45.4 34.65 45.85 34.4 46.2 34.3 45.55 33.75 45.45 33.65 45.25 33.55 44.45 33.05 44.35 33.0 43.35 32.3 Q43.15 32.15 43.0 32.1 L42.2 31.55 46.9 34.2 M38.65 37.4 L38.65 37.45 38.6 37.6 38.6 37.8 38.55 37.9 36.3 38.8 32.4 36.3 Q33.85 37.1 31.95 35.9 L30.1 34.4 Q33.45 36.0 36.5 38.3 L38.25 37.6 38.3 37.65 38.65 37.4 M34.35 50.45 L34.25 50.45 34.15 50.3 34.05 50.3 34.1 50.4 33.95 50.3 33.7 50.05 33.6 50.05 33.5 50.0 33.15 49.7 32.95 49.6 32.4 49.2 32.4 49.15 32.25 49.05 32.6 40.45 32.6 40.35 33.2 40.65 33.35 40.7 33.7 40.9 33.8 40.9 34.0 41.0 34.35 41.2 34.55 41.2 34.6 41.35 34.6 41.7 34.55 41.95 34.55 42.45 34.35 45.45 34.35 46.0 34.35 46.15 34.35 46.6 34.35 48.45 34.35 48.55 34.35 49.1 34.35 49.55 34.35 49.7 34.35 49.9 34.35 49.95 34.35 50.45 M27.0 37.0 L27.0 37.55 27.0 37.65 27.0 45.3 26.9 45.4 27.05 45.5 26.85 45.4 26.7 45.2 26.5 45.15 25.5 44.5 25.4 44.3 25.3 44.2 25.25 43.65 25.25 36.0 25.3 36.0 25.35 36.0 25.5 36.0 26.15 36.5 26.55 36.75 27.1 37.0 27.0 37.0 M25.45 35.45 L25.35 35.4 25.35 35.05 25.35 34.9 Q25.55 34.45 26.05 34.2 L26.1 34.2 26.15 34.25 28.05 35.35 28.05 35.4 33.8 38.95 34.35 39.6 34.5 39.95 34.65 40.5 34.7 40.6 34.7 40.8 34.7 40.9 34.6 40.9 34.45 40.9 34.4 40.85 34.35 40.85 34.3 40.85 Q32.95 40.4 32.55 39.95 L32.45 39.9 31.05 39.1 28.15 37.35 27.05 36.65 25.45 35.45" fill="#5f3511" fill-rule="evenodd" stroke="none"/>
    <path d="M44.5 36.65 L44.55 36.7 44.6 36.8 44.6 36.75 46.2 36.15 46.4 36.05 46.6 36.0 47.25 35.7 47.3 35.7 47.4 35.65 47.45 35.6 47.55 35.55 48.7 35.05 48.8 35.05 49.15 34.95 49.35 34.95 49.35 35.2 49.25 35.25 49.15 35.2 49.05 35.25 48.95 35.35 48.6 35.4 48.2 35.7 47.95 35.8 47.6 35.95 47.55 36.0 47.05 44.5 47.0 44.6 46.8 44.7 46.8 44.8 46.65 44.85 46.5 44.95 46.2 45.1 44.4 45.95 44.3 46.0 44.2 44.45 44.2 44.15 44.25 43.2 44.25 42.75 44.25 42.45 44.2 42.0 44.05 42.3 43.95 42.65 43.9 42.65 43.9 46.25 43.45 46.45 42.5 46.85 40.7 47.7 40.7 45.55 40.75 45.5 40.8 43.75 40.75 43.7 40.8 43.65 40.8 43.6 40.85 43.6 40.85 43.55 40.95 43.55 41.3 43.35 41.55 43.3 41.8 43.2 41.95 43.15 42.05 43.1 43.0 42.6 43.4 42.45 43.45 42.45 43.55 42.4 44.05 42.1 44.2 42.0 44.5 41.85 44.5 36.65 M42.2 31.55 L43.0 32.1 Q43.15 32.15 43.35 32.3 L44.35 33.0 44.45 33.05 45.25 33.55 45.45 33.65 45.55 33.75 46.2 34.3 45.85 34.4 40.25 30.6 41.05 30.95 41.75 31.25 42.2 31.55 M43.4 35.45 L43.05 35.6 42.95 35.55 42.85 35.45 42.75 35.45 42.65 35.45 34.65 30.5 35.35 30.2 35.65 30.45 37.35 31.75 37.75 32.05 43.4 35.45 M39.2 36.9 L39.05 37.0 39.0 37.0 38.9 37.05 31.4 31.9 32.05 31.6 39.2 36.9 M40.55 47.8 L40.15 48.0 Q39.0 48.45 38.1 48.85 L38.0 48.95 36.95 49.4 36.85 49.45 36.7 42.65 36.7 41.9 36.65 41.9 36.65 40.5 34.7 41.3 34.6 41.3 34.6 41.2 34.7 41.2 34.7 41.15 34.65 41.05 34.6 41.0 34.6 40.9 34.7 40.9 34.7 41.05 34.75 41.0 34.8 41.05 34.85 41.0 40.05 38.75 40.15 38.75 40.15 40.3 40.15 40.4 40.15 42.65 40.2 43.0 40.2 43.65 40.6 43.6 40.6 43.65 40.6 43.75 40.55 44.55 40.3 47.15 40.4 47.65 40.4 47.8 40.55 47.8" fill="#623500" fill-rule="evenodd" stroke="none"/>
    <path d="M41.15 38.15 L40.85 37.95 40.45 37.65 40.2 37.55 39.95 37.45 39.85 37.4 39.8 37.35 39.65 37.25 39.6 37.25 39.55 37.2 39.6 37.15 Q40.4 36.75 42.2 36.05 L42.4 36.0 42.45 35.95 42.5 35.95 42.6 35.9 42.65 35.9 42.8 36.0 Q42.95 36.05 43.15 36.25 43.5 36.35 44.0 36.8 L44.05 36.8 44.1 37.0 43.75 37.1 43.7 37.1 43.55 37.15 43.5 37.25 43.4 37.25 41.15 38.15" fill="#ffc223" fill-rule="evenodd" stroke="none"/>
    <path d="M45.85 34.4 L45.4 34.65 45.35 34.65 43.4 35.45 37.75 32.05 37.35 31.75 35.65 30.45 35.35 30.2 38.05 29.1 38.25 29.2 38.65 29.5 38.6 29.5 40.25 30.6 45.85 34.4 M42.65 35.45 Q42.2 35.45 40.55 36.25 L39.2 36.9 32.05 31.6 34.65 30.5 42.65 35.45 M38.9 37.05 L38.7 37.2 38.65 37.3 38.65 37.4 38.3 37.65 38.25 37.6 36.5 38.3 Q33.45 36.0 30.1 34.4 L29.8 34.15 29.4 33.8 29.05 33.6 28.55 33.25 28.45 33.3 28.35 33.2 31.4 31.9 38.9 37.05" fill="#934f00" fill-rule="evenodd" stroke="none"/>
    <path d="M44.1 37.0 L44.2 37.65 44.2 37.85 44.15 37.85 44.1 37.75 44.1 37.65 44.0 37.65 44.0 37.6 41.6 38.55 41.3 38.65 41.3 38.75 41.2 38.85 41.05 38.65 41.05 38.15 41.15 38.15 43.4 37.25 43.5 37.25 43.55 37.15 43.7 37.1 43.75 37.1 44.1 37.0" fill="#b68300" fill-rule="evenodd" stroke="none"/>
    <path d="M38.65 37.45 L38.85 37.4 39.7 37.95 39.7 38.0 40.55 38.4 40.55 38.45 40.65 38.4 40.75 38.4 40.75 38.45 40.65 38.45 40.65 38.6 40.7 39.05 40.65 39.05 40.65 39.55 40.65 39.6 40.7 40.0 40.7 42.3 40.7 42.35 40.7 42.6 40.75 42.85 40.65 43.3 40.6 43.55 40.6 43.6 40.2 43.65 40.2 43.0 40.15 42.65 40.15 40.4 40.15 40.3 40.15 38.75 40.2 38.65 39.5 38.15 38.75 37.75 38.6 37.8 38.6 37.6 38.65 37.45 M47.6 35.95 L47.6 36.15 47.6 36.3 47.6 36.65 47.6 36.75 47.6 37.85 47.55 38.95 47.55 40.0 47.4 43.5 47.5 44.2 47.4 44.35 47.6 44.25 47.1 44.55 47.0 44.6 47.05 44.5 47.55 36.0 47.6 35.95 M42.1 39.55 L43.35 39.0 43.35 40.7 42.1 41.3 42.1 39.55 M36.85 49.45 L36.65 49.5 36.4 49.65 36.4 49.6 36.65 49.5 36.7 42.65 36.85 49.45 M34.4 50.45 L34.35 50.45 34.35 49.95 34.35 49.9 34.35 49.7 34.35 49.55 34.35 49.1 34.35 48.55 34.35 48.45 34.35 46.6 34.35 46.15 34.35 46.0 34.35 45.45 34.55 42.45 34.55 41.95 34.6 41.7 34.4 50.45" fill="#271601" fill-rule="evenodd" stroke="none"/>
    <path d="M49.35 35.2 L49.35 35.3 49.35 42.9 48.7 43.7 48.4 43.85 48.25 43.9 48.05 44.05 47.95 44.1 47.85 44.15 47.75 44.2 47.65 44.2 47.6 44.25 47.4 44.35 47.5 44.2 47.4 43.5 47.55 40.0 47.55 38.95 47.6 37.85 47.6 36.75 47.6 36.65 47.6 36.3 47.6 36.15 47.6 35.95 47.95 35.8 48.2 35.7 48.6 35.4 48.95 35.35 49.05 35.25 49.15 35.2 49.25 35.25 49.35 35.2 M36.4 49.65 L36.2 49.8 36.1 49.8 35.05 50.3 34.8 50.3 34.65 50.4 34.5 50.45 34.4 50.45 34.6 41.7 34.6 41.35 34.6 41.3 34.7 41.3 36.65 40.5 36.65 41.9 36.7 41.9 36.7 42.65 36.65 49.5 36.4 49.6 36.4 49.65" fill="#a36630" fill-rule="evenodd" stroke="none"/>
    <path d="M44.15 37.85 L44.2 41.5 44.25 41.55 44.2 41.55 44.2 41.65 44.15 41.7 41.15 43.1 41.15 42.7 41.1 41.95 41.05 38.65 41.2 38.85 41.3 38.75 41.3 38.65 41.6 38.55 44.0 37.6 44.0 37.65 44.1 37.65 44.1 37.75 44.15 37.85 M42.1 39.55 L42.1 41.3 43.35 40.7 43.35 39.0 42.1 39.55" fill="#d89f0a" fill-rule="evenodd" stroke="none"/>
    <path d="M40.65 43.3 L40.8 43.6 40.85 43.55 40.85 43.6 40.8 43.6 40.8 43.65 40.75 43.7 40.8 43.75 40.75 45.5 40.7 45.55 40.7 47.7 40.65 47.8 40.55 47.8 40.4 47.8 40.4 47.65 40.3 47.15 40.55 44.55 40.6 43.75 40.6 43.65 40.6 43.6 40.6 43.55 40.65 43.3 M44.2 42.0 L44.25 42.45 44.25 42.75 44.25 43.2 44.2 44.15 44.2 44.45 44.3 46.0 44.15 46.15 44.0 46.15 44.0 46.25 43.9 46.3 43.9 46.25 43.9 42.65 43.95 42.65 44.05 42.3 44.2 42.0 M32.6 40.45 L32.55 40.6 32.55 40.9 32.55 41.2 32.55 41.35 31.9 48.75 29.9 47.4 29.7 47.3 29.65 47.25 29.65 47.3 29.6 47.3 29.6 47.2 29.45 47.1 29.6 47.05 29.6 45.6 29.6 44.8 29.75 42.15 29.75 41.95 29.85 38.65 30.05 38.65 30.1 38.7 30.1 38.65 29.55 38.3 29.45 39.15 29.4 41.95 29.2 46.4 29.2 46.9 28.95 46.8 28.65 46.55 28.45 46.45 27.5 45.75 27.35 45.7 27.0 37.0 27.1 37.0 27.05 36.65 28.15 37.35 31.05 39.1 32.45 39.9 32.55 39.95 Q32.95 40.4 34.3 40.85 L34.35 40.85 34.45 40.9 34.6 40.9 34.6 41.0 34.65 41.05 34.7 41.15 34.7 41.2 34.6 41.2 34.6 41.3 34.6 41.35 34.55 41.2 34.35 41.2 34.0 41.0 33.8 40.9 33.7 40.9 33.35 40.7 32.6 40.35 32.6 40.45 M26.05 34.2 L26.9 33.9 26.1 34.2 26.05 34.2 M27.65 33.65 L27.7 33.6 27.6 33.55 28.35 33.2 28.45 33.3 28.55 33.25 29.05 33.6 29.4 33.8 29.8 34.15 30.1 34.4 31.95 35.9 31.7 35.8 29.3 34.4 Q28.8 34.1 28.55 34.05 L28.4 34.0 27.65 33.65" fill="#351e01" fill-rule="evenodd" stroke="none"/>
    <path d="M29.45 47.1 L29.4 47.05 29.3 47.05 29.25 46.95 29.2 47.0 29.2 46.9 29.2 46.4 29.4 41.95 29.45 39.15 29.55 38.3 30.1 38.65 30.1 38.7 30.05 38.65 29.85 38.65 29.75 41.95 29.75 42.15 29.6 44.8 29.6 45.6 29.6 47.05 29.45 47.1 M32.6 40.35 L33.35 40.7 33.2 40.65 32.6 40.35 M34.45 40.9 L34.35 40.85 34.4 40.85 34.45 40.9" fill="#512c00" fill-rule="evenodd" stroke="none"/>
  </g>
</svg>
