<?xml version="1.0" encoding="UTF-8" standalone="no"?>
<svg xmlns:ffdec="https://www.free-decompiler.com/flash" xmlns:xlink="http://www.w3.org/1999/xlink" ffdec:objectType="shape" height="176.7px" width="219.95px" xmlns="http://www.w3.org/2000/svg">
  <g transform="matrix(1.0, 0.0, 0.0, 1.0, 110.05, 87.8)">
    <path d="M102.7 75.75 L102.7 74.15 102.7 -72.35 102.7 -72.45 108.4 -76.25 108.65 -76.45 108.65 -72.35 108.3 74.15 108.3 78.55 102.7 76.15 102.7 75.75" fill="#959595" fill-rule="evenodd" stroke="none"/>
    <path d="M102.7 -72.45 L94.85 -81.0 98.6 -86.15 99.1 -86.15 108.4 -76.25 102.7 -72.45 M-92.55 -81.0 L-92.9 -81.0 -93.55 -81.0 -101.4 -72.45 -101.4 -72.9 -108.8 -75.55 -108.8 -75.65 -108.85 -75.55 -108.9 -75.6 -108.8 -75.7 -108.8 -75.65 -99.8 -84.75 -98.35 -86.55 -92.9 -81.3 -92.55 -81.0" fill="#b1b1b1" fill-rule="evenodd" stroke="none"/>
    <path d="M94.85 -81.0 L94.65 -81.0 -92.55 -81.0 -92.9 -81.3 -98.35 -86.55 -92.9 -86.55 94.65 -86.15 98.6 -86.15 94.85 -81.0 M98.8 -86.45 L98.75 -86.5 98.85 -86.45 98.8 -86.45" fill="#c4c4c4" fill-rule="evenodd" stroke="none"/>
    <path d="M-101.25 76.3 L-101.4 76.15 -101.4 74.15 -101.4 -72.35 -101.4 -72.45 -93.55 -81.0 -92.9 -81.0 -92.55 -81.0 94.65 -81.0 94.85 -81.0 102.7 -72.45 102.7 -72.35 102.7 74.15 102.7 75.75 96.5 82.4 96.4 82.2 94.65 82.2 2.5 82.4 1.25 82.4 -92.9 82.2 -95.1 82.2 -95.6 81.95 -100.3 77.25 -101.25 76.3 M-56.4 -32.85 L-57.25 -32.8 -57.4 -32.65 -57.25 -32.6 -56.4 -32.85" fill="url(#gradient0)" fill-rule="evenodd" stroke="none"/>
    <path d="M96.5 82.4 L102.7 75.75 102.7 76.15 108.3 78.55 99.05 87.6 96.5 82.4" fill="#8e8e8e" fill-rule="evenodd" stroke="none"/>
    <path d="M-95.6 81.95 L-95.1 82.2 -92.9 82.2 1.25 82.4 2.5 82.4 94.65 82.2 96.4 82.2 96.5 82.4 99.05 87.6 99.1 87.65 94.65 87.65 -92.9 87.65 -99.9 87.65 -99.95 87.6 -95.6 81.95" fill="#707070" fill-rule="evenodd" stroke="none"/>
    <path d="M-101.4 -72.45 L-101.4 -72.35 -101.4 74.15 -101.4 76.15 -101.25 76.3 -108.7 78.9 -108.8 78.8 -108.8 74.15 -108.8 -72.35 -108.8 -75.55 -101.4 -72.9 -101.4 -72.45" fill="#7b7b7b" fill-rule="evenodd" stroke="none"/>
    <path d="M-101.25 76.3 L-100.3 77.25 -95.6 81.95 -99.95 87.6 -100.0 87.6 -108.7 78.9 -101.25 76.3" fill="#626262" fill-rule="evenodd" stroke="none"/>
    <path d="M-108.8 -75.55 L-108.8 -72.35 -108.8 74.15 -108.8 78.8 -108.7 78.9 -100.0 87.6 -99.95 87.6 -99.9 87.65 -92.9 87.65 94.65 87.65 99.1 87.65 99.05 87.6 108.3 78.55 108.3 74.15 108.65 -72.35 108.65 -76.45 M-98.35 -86.55 L-92.9 -86.55 94.65 -86.15 98.6 -86.15 99.1 -86.15 108.4 -76.25 M-108.8 -75.65 L-99.8 -84.75 -98.35 -86.55" fill="none" stroke="#333333" stroke-linecap="round" stroke-linejoin="round" stroke-width="2.5"/>
    <path d="M-94.65 77.05 Q-94.65 77.35 -94.95 77.7 -95.3 78.1 -95.9 78.1 -97.0 78.1 -97.0 76.95 L-96.85 76.25 -95.9 75.95 Q-95.4 75.95 -95.0 76.4 -94.65 76.75 -94.65 77.05 M-96.9 -74.3 Q-96.9 -75.65 -95.65 -75.5 -94.4 -75.4 -94.4 -74.35 -94.4 -74.0 -94.65 -73.7 -95.0 -73.2 -95.7 -73.2 -96.9 -73.2 -96.9 -74.3 M96.2 76.05 Q96.55 75.55 97.3 75.55 97.85 75.55 98.2 76.2 L98.45 77.05 98.1 77.7 97.05 78.15 96.15 77.6 95.9 76.9 Q95.9 76.4 96.2 76.05 M97.75 -75.35 Q97.65 -74.1 96.45 -74.1 95.35 -74.1 95.35 -75.3 95.35 -76.9 96.55 -76.65 97.75 -76.45 97.75 -75.35" fill="#4a4a4a" fill-rule="evenodd" stroke="none"/>
  </g>
  <defs>
    <linearGradient gradientTransform="matrix(0.0, 0.1709, -0.1211, 0.0, -17.6, 59.0)" gradientUnits="userSpaceOnUse" id="gradient0" spreadMethod="pad" x1="-819.2" x2="819.2">
      <stop offset="0.0" stop-color="#a1a1a1"/>
      <stop offset="0.4117647058823529" stop-color="#7e7e7e"/>
      <stop offset="0.592156862745098" stop-color="#7e7e7e"/>
      <stop offset="1.0" stop-color="#8a8a8a"/>
    </linearGradient>
  </defs>
</svg>
