<?xml version="1.0" encoding="UTF-8" standalone="no"?>
<svg xmlns:ffdec="https://www.free-decompiler.com/flash" xmlns:xlink="http://www.w3.org/1999/xlink" ffdec:objectType="shape" height="31.25px" width="179.35px" xmlns="http://www.w3.org/2000/svg">
  <g transform="matrix(1.0, 0.0, 0.0, 1.0, 85.9, 14.1)">
    <path d="M76.5 -14.1 L87.45 -13.7 88.0 -13.6 88.2 -13.3 88.5 -13.05 89.8 -11.3 Q91.95 -8.4 91.95 -7.95 L91.95 -7.6 91.95 -7.5 92.05 -6.85 92.4 -6.25 92.5 -6.1 92.95 -4.95 92.95 -4.7 92.95 -4.35 93.25 -1.95 93.4 2.6 93.3 3.2 93.4 3.45 93.45 3.75 Q92.75 8.9 92.05 10.55 L91.95 10.7 91.4 11.75 89.1 15.95 Q89.0 16.5 88.5 16.65 L88.4 16.65 88.3 16.65 76.9 17.1 75.0 17.1 74.35 17.15 Q69.5 17.15 67.45 9.45 66.45 5.6 66.4 1.5 66.4 -2.0 67.45 -6.35 67.95 -8.2 68.95 -10.35 L70.05 -11.65 Q70.05 -12.75 71.65 -13.4 71.9 -14.1 73.5 -14.1 L75.7 -14.0 76.5 -14.1 M89.8 -8.05 L89.8 -8.1 88.3 -9.95 87.05 -11.5 86.75 -12.0 86.7 -12.0 86.1 -12.0 81.5 -12.2 79.6 -12.35 77.75 -12.45 77.95 -12.25 75.1 -12.05 74.55 -12.2 74.2 -12.15 73.85 -12.15 73.7 -12.15 Q72.7 -12.05 72.05 -11.55 69.75 -9.25 68.95 -5.25 68.05 -0.5 68.05 1.5 68.2 5.15 69.05 8.6 70.65 15.2 74.0 15.45 L74.25 15.45 74.8 15.4 78.65 15.3 78.7 15.3 80.15 15.25 81.75 15.2 83.4 15.05 85.0 14.8 87.95 14.7 88.25 14.2 89.35 12.45 89.65 11.65 90.0 10.95 90.05 10.95 90.0 10.55 90.0 10.35 90.2 9.05 90.75 9.15 91.35 6.0 91.75 3.95 91.9 3.5 91.9 3.45 Q91.45 3.1 91.4 2.1 L91.55 0.1 91.6 -0.3 91.3 -4.4 91.3 -4.55 90.5 -6.1 90.5 -6.15 90.35 -6.1 90.35 -6.2 90.35 -6.5 89.8 -8.0 89.8 -8.05" fill="#2b1710" fill-rule="evenodd" stroke="none"/>
    <path d="M78.4 -8.15 L77.75 -9.3 Q76.4 -11.55 75.1 -12.05 L77.95 -12.25 77.75 -12.45 79.6 -12.35 81.5 -12.2 86.1 -12.0 86.7 -12.0 86.75 -12.0 87.05 -11.5 88.3 -9.95 89.8 -8.1 89.8 -8.05 78.4 -8.15" fill="#b76f40" fill-rule="evenodd" stroke="none"/>
    <path d="M75.1 -12.05 Q76.4 -11.55 77.75 -9.3 L78.4 -8.15 79.15 -6.35 79.2 -6.15 79.45 -4.35 79.7 0.1 79.95 3.75 79.95 3.9 79.95 4.0 79.0 9.75 78.7 10.65 78.65 10.8 78.0 12.8 77.25 14.15 76.7 14.5 74.8 15.4 74.25 15.45 74.0 15.45 Q70.65 15.2 69.05 8.6 68.2 5.15 68.05 1.5 68.05 -0.5 68.95 -5.25 69.75 -9.25 72.05 -11.55 72.7 -12.05 73.7 -12.15 L73.85 -12.15 74.2 -12.15 74.55 -12.2 75.1 -12.05" fill="#7a4a2a" fill-rule="evenodd" stroke="none"/>
    <path d="M78.4 -8.15 L89.8 -8.05 89.8 -8.0 90.35 -6.5 90.35 -6.2 90.35 -6.1 90.5 -6.15 90.5 -6.1 91.3 -4.55 91.3 -4.4 91.6 -0.3 91.55 0.1 79.7 0.1 79.45 -4.35 79.2 -6.15 79.15 -6.35 78.4 -8.15" fill="#a46439" fill-rule="evenodd" stroke="none"/>
    <path d="M78.7 10.65 L79.0 9.75 79.95 4.0 79.95 3.9 79.95 3.75 79.7 0.1 91.55 0.1 91.4 2.1 Q91.45 3.1 91.9 3.45 L91.9 3.5 91.75 3.95 91.35 6.0 90.75 9.15 90.2 9.05 90.0 10.35 90.0 10.55 78.7 10.65" fill="#8b5430" fill-rule="evenodd" stroke="none"/>
    <path d="M74.8 15.4 L76.7 14.5 77.25 14.15 78.0 12.8 78.65 10.8 78.7 10.65 90.0 10.55 90.05 10.95 90.0 10.95 89.65 11.65 89.35 12.45 88.25 14.2 87.95 14.7 85.0 14.8 83.4 15.05 81.75 15.2 80.15 15.25 78.7 15.3 78.7 15.2 78.65 15.3 74.8 15.4" fill="#7e4d2c" fill-rule="evenodd" stroke="none"/>
    <path d="M-84.4 -7.6 L-84.4 -7.95 Q-84.4 -8.4 -82.25 -11.3 L-80.95 -13.05 -80.65 -13.3 -80.45 -13.6 -79.9 -13.7 -68.95 -14.1 -68.15 -14.0 -65.95 -14.1 Q-64.35 -14.1 -64.1 -13.4 -62.5 -12.75 -62.5 -11.65 L-61.4 -10.35 Q-60.4 -8.2 -59.9 -6.35 -58.85 -2.0 -58.85 1.5 -58.9 5.6 -59.9 9.45 -61.95 17.15 -66.8 17.15 L-67.45 17.1 -69.35 17.1 -80.75 16.65 -80.85 16.65 -80.95 16.65 Q-81.45 16.5 -81.55 15.95 L-83.85 11.75 -84.4 10.7 -84.5 10.55 Q-85.2 8.9 -85.9 3.75 L-85.85 3.45 -85.75 3.2 -85.85 2.6 -85.7 -1.95 -85.4 -4.35 -85.4 -4.7 -85.4 -4.95 -84.95 -6.1 -84.85 -6.25 -84.5 -6.85 -84.4 -7.5 -84.4 -7.6 M-82.25 -8.05 L-82.25 -8.0 -82.8 -6.5 -82.8 -6.2 -82.8 -6.1 -82.95 -6.15 -82.95 -6.1 -83.75 -4.55 -83.75 -4.4 -84.05 -0.3 -84.0 0.1 -83.85 2.1 Q-83.9 3.1 -84.35 3.45 L-84.35 3.5 -84.2 3.95 -83.8 6.0 -83.2 9.15 -82.65 9.05 -82.45 10.35 -82.45 10.55 -82.5 10.95 -82.45 10.95 -82.1 11.65 -81.8 12.45 -80.7 14.2 -80.4 14.7 -77.45 14.8 -75.85 15.05 -74.2 15.2 -72.6 15.25 -71.15 15.3 -71.1 15.3 -67.25 15.4 -66.7 15.45 -66.45 15.45 Q-63.1 15.2 -61.5 8.6 -60.65 5.15 -60.5 1.5 -60.5 -0.5 -61.4 -5.25 -62.2 -9.25 -64.5 -11.55 -65.15 -12.05 -66.15 -12.15 L-66.3 -12.15 -66.65 -12.15 -67.0 -12.2 -67.55 -12.05 -70.4 -12.25 -70.2 -12.45 -72.05 -12.35 -73.95 -12.2 -78.55 -12.0 -79.15 -12.0 -79.2 -12.0 -79.5 -11.5 -80.75 -9.95 -82.25 -8.1 -82.25 -8.05" fill="#2b1710" fill-rule="evenodd" stroke="none"/>
    <path d="M-82.25 -8.05 L-82.25 -8.1 -80.75 -9.95 -79.5 -11.5 -79.2 -12.0 -79.15 -12.0 -78.55 -12.0 -73.95 -12.2 -72.05 -12.35 -70.2 -12.45 -70.4 -12.25 -67.55 -12.05 Q-68.85 -11.55 -70.2 -9.3 L-70.85 -8.15 -82.25 -8.05" fill="#b76f40" fill-rule="evenodd" stroke="none"/>
    <path d="M-84.0 0.1 L-84.05 -0.3 -83.75 -4.4 -83.75 -4.55 -82.95 -6.1 -82.95 -6.15 -82.8 -6.1 -82.8 -6.2 -82.8 -6.5 -82.25 -8.0 -82.25 -8.05 -70.85 -8.15 -71.6 -6.35 -71.65 -6.15 -71.9 -4.35 -72.15 0.1 -84.0 0.1" fill="#a46439" fill-rule="evenodd" stroke="none"/>
    <path d="M-67.55 -12.05 L-67.0 -12.2 -66.65 -12.15 -66.3 -12.15 -66.15 -12.15 Q-65.15 -12.05 -64.5 -11.55 -62.2 -9.25 -61.4 -5.25 -60.5 -0.5 -60.5 1.5 -60.65 5.15 -61.5 8.6 -63.1 15.2 -66.45 15.45 L-66.7 15.45 -67.25 15.4 Q-68.05 15.2 -69.15 14.5 L-69.7 14.15 -70.45 12.8 -71.1 10.8 -71.15 10.65 -71.45 9.75 -72.4 4.0 -72.4 3.9 -72.4 3.75 -72.15 0.1 -71.9 -4.35 -71.65 -6.15 -71.6 -6.35 -70.85 -8.15 -70.2 -9.3 Q-68.85 -11.55 -67.55 -12.05" fill="#7a4a2a" fill-rule="evenodd" stroke="none"/>
    <path d="M-67.25 15.4 L-71.1 15.3 -71.15 15.2 -71.15 15.3 -72.6 15.25 -74.2 15.2 -75.85 15.05 -77.45 14.8 -80.4 14.7 -80.7 14.2 -81.8 12.45 -82.1 11.65 -82.45 10.95 -82.5 10.95 -82.45 10.55 -71.15 10.65 -71.1 10.8 -70.45 12.8 -69.7 14.15 -69.15 14.5 Q-68.05 15.2 -67.25 15.4" fill="#7e4d2c" fill-rule="evenodd" stroke="none"/>
    <path d="M-82.45 10.55 L-82.45 10.35 -82.65 9.05 -83.2 9.15 -83.8 6.0 -84.2 3.95 -84.35 3.5 -84.35 3.45 Q-83.9 3.1 -83.85 2.1 L-84.0 0.1 -72.15 0.1 -72.4 3.75 -72.4 3.9 -72.4 4.0 -71.45 9.75 -71.15 10.65 -82.45 10.55" fill="#8b5430" fill-rule="evenodd" stroke="none"/>
    <path d="M75.3 3.65 L75.3 3.4 75.15 1.7 75.0 0.0 74.5 -4.8 74.45 -4.8 74.45 -5.0 74.35 -6.1 73.35 -6.15 55.1 -6.0 55.1 -5.8 Q41.1 -5.4 16.6 -5.4 L9.05 -5.7 -0.7 -5.4 -5.05 -5.5 -12.75 -5.8 -30.7 -5.75 -36.1 -5.9 -39.35 -6.1 -44.05 -6.55 -47.45 -6.55 -66.55 -6.7 -67.55 -6.65 -67.65 -5.55 -67.65 -5.3 -67.7 -5.3 -68.2 -0.35 -68.35 1.45 -68.5 3.2 -68.5 3.55 -68.55 3.6 -68.65 4.1 -68.3 4.85 -67.9 5.4 -67.25 6.1 -66.2 6.65 -65.75 6.6 -62.15 6.55 -58.75 6.2 -51.65 6.5 -47.45 6.65 -37.3 6.9 -35.15 6.95 -9.25 6.95 -0.2 6.6 20.0 6.3 27.6 6.1 47.5 5.55 48.55 5.55 54.8 5.45 54.8 5.3 54.85 5.25 55.3 5.25 64.6 5.5 67.45 5.7 73.0 5.8 74.2 6.05 74.7 5.5 75.45 4.25 75.35 3.75 75.3 3.7 75.3 3.65 M55.2 5.6 L55.1 5.55 55.1 5.6 55.2 5.6 M45.8 -7.45 L55.1 -7.65 55.1 -7.45 62.5 -7.6 73.25 -7.45 74.3 -7.45 75.7 -7.35 75.9 -7.05 75.75 -7.0 75.8 -5.75 75.9 -5.05 76.15 -3.3 76.75 0.2 76.65 0.8 76.7 3.45 76.65 3.65 76.6 3.85 76.65 4.45 76.6 5.7 75.55 6.55 74.8 7.15 74.5 7.2 71.7 7.35 70.65 7.4 70.25 7.3 69.8 7.2 67.3 7.15 59.0 7.1 56.6 7.15 54.25 7.4 54.25 7.3 36.9 7.85 36.75 7.5 31.3 7.7 21.8 7.7 10.45 7.85 10.1 7.85 7.9 7.85 -5.2 8.0 -8.85 8.15 -25.5 8.5 -35.1 8.25 -46.25 8.3 -47.45 8.25 -49.25 8.25 -49.3 8.3 -50.55 8.2 -53.4 8.05 -53.45 8.0 -57.85 7.8 -58.3 7.7 -59.4 7.7 -61.95 7.8 -65.8 8.0 -66.55 7.85 -67.0 7.9 -67.05 7.9 -68.75 6.5 -69.8 5.6 -69.85 4.3 -69.8 3.7 -69.9 3.25 -69.85 0.5 -69.95 -0.1 -69.35 -3.75 -69.1 -5.6 -69.0 -6.3 -68.95 -7.6 -69.1 -7.65 -68.9 -8.0 -67.5 -8.1 -66.45 -8.1 -55.7 -8.25 -47.45 -8.05 -47.15 -8.0 45.8 -7.45" fill="#3c3c3c" fill-rule="evenodd" stroke="none"/>
    <path d="M75.3 3.65 L75.3 3.7 75.35 3.75 75.45 4.25 74.7 5.5 74.2 6.05 73.0 5.8 67.45 5.7 64.6 5.5 55.3 5.25 54.85 5.25 54.8 5.3 54.8 5.45 48.55 5.55 47.5 5.55 27.6 6.1 20.0 6.3 -0.2 6.6 -9.25 6.95 -35.15 6.95 -37.3 6.9 -47.45 6.65 -51.65 6.5 -58.75 6.2 -62.15 6.55 -65.75 6.6 -66.2 6.65 -67.25 6.1 -67.9 5.4 -68.3 4.85 75.3 3.65" fill="#666666" fill-rule="evenodd" stroke="none"/>
    <path d="M-68.3 4.85 L-68.65 4.1 -68.55 3.6 -68.5 3.55 -68.5 3.2 -68.35 1.45 -68.2 -0.35 -67.7 -5.3 -67.65 -5.3 -67.65 -5.55 -67.55 -6.65 -66.55 -6.7 -47.45 -6.55 -44.05 -6.55 -39.35 -6.1 -36.1 -5.9 -30.7 -5.75 -12.75 -5.8 -5.05 -5.5 -0.7 -5.4 9.05 -5.7 16.6 -5.4 Q41.1 -5.4 55.1 -5.8 L55.1 -6.0 73.35 -6.15 74.35 -6.1 74.45 -5.0 74.45 -4.8 74.5 -4.8 75.0 0.0 75.15 1.7 75.3 3.4 75.3 3.65 -68.3 4.85" fill="#737373" fill-rule="evenodd" stroke="none"/>
  </g>
</svg>
