<?xml version="1.0" encoding="UTF-8" standalone="no"?>
<svg xmlns:ffdec="https://www.free-decompiler.com/flash" xmlns:xlink="http://www.w3.org/1999/xlink" ffdec:objectType="shape" height="36.15px" width="66.45px" xmlns="http://www.w3.org/2000/svg">
  <g transform="matrix(1.0, 0.0, 0.0, 1.0, 33.7, 7.65)">
    <path d="M27.45 -1.55 Q27.45 0.15 21.3 3.0 L15.15 5.75 15.45 6.45 15.75 7.35 Q15.75 8.15 14.85 8.6 13.85 9.15 11.25 9.4 L8.9 9.75 Q6.9 9.95 3.05 9.75 L2.0 9.85 2.0 10.2 Q2.0 11.35 0.6 11.35 L-1.85 11.1 -3.05 10.9 Q-3.7 10.9 -4.15 11.3 -4.6 11.7 -5.35 11.7 -6.5 11.7 -9.05 10.75 L-11.4 9.85 Q-12.1 9.85 -15.25 11.4 -18.4 13.0 -19.9 13.0 -21.5 13.0 -22.0 11.45 L-22.6 8.65 -22.95 7.45 -23.45 7.0 Q-24.7 6.45 -26.0 6.6 L-28.35 6.9 Q-31.7 6.95 -32.9 6.4 -33.7 6.0 -33.7 5.25 -33.7 3.6 -30.35 2.25 L-23.1 -0.05 -22.6 -0.05 -22.45 0.05 -23.4 0.55 -14.2 -1.25 -2.75 -3.3 18.1 -7.3 Q24.9 -8.3 24.9 -6.5 24.9 -5.75 24.15 -4.5 L22.9 -2.65 24.4 -2.4 25.8 -2.55 Q27.45 -2.55 27.45 -1.55 M20.35 22.8 L20.4 23.1 Q20.4 23.55 19.65 23.75 L19.2 23.15 19.3 22.8 20.25 22.7 20.35 22.8 M29.9 20.75 L31.0 21.65 31.85 21.7 Q32.7 22.25 32.75 22.65 L32.4 23.0 Q32.05 23.0 31.45 22.55 L30.95 21.95 30.95 21.85 30.55 22.15 29.95 22.2 Q29.25 22.2 28.95 21.6 L28.8 21.15 Q28.8 20.15 29.9 20.75 M17.15 21.6 L17.3 21.4 17.6 21.3 Q18.15 21.3 18.15 21.95 L18.0 22.4 17.4 22.5 Q16.9 22.5 16.6 22.2 L16.35 21.7 16.6 21.3 16.8 21.0 17.15 21.6 M-30.65 23.7 L-30.6 24.0 -30.6 24.3 -31.05 24.5 -31.35 24.1 -31.25 23.7 -30.65 23.7 M-22.15 22.8 L-21.7 23.55 Q-21.15 24.15 -21.15 24.6 L-21.0 26.55 -21.15 27.0 -21.6 27.05 -21.95 26.65 -21.75 26.15 -21.6 25.6 Q-21.6 24.75 -22.3 24.05 -23.0 23.4 -23.0 22.6 -23.0 21.95 -22.65 21.6 -22.2 21.05 -21.5 22.1 L-21.6 22.2 -21.45 22.5 -21.6 22.8 -22.15 22.8 M-31.4 25.05 L-31.5 24.8 Q-31.5 24.6 -30.65 24.5 L-30.6 25.2 -30.95 25.25 -31.4 25.05 M-32.15 26.7 Q-31.65 26.75 -31.65 27.3 L-31.8 28.35 -31.8 28.4 -32.1 28.5 Q-32.7 27.9 -32.7 27.0 -32.7 26.6 -32.15 26.7" fill="#000000" fill-opacity="0.43137255" fill-rule="evenodd" stroke="none"/>
  </g>
</svg>
