<?xml version="1.0" encoding="UTF-8" standalone="no"?>
<svg xmlns:ffdec="https://www.free-decompiler.com/flash" xmlns:xlink="http://www.w3.org/1999/xlink" ffdec:objectType="shape" height="28.6px" width="29.6px" xmlns="http://www.w3.org/2000/svg">
  <g transform="matrix(1.0, 0.0, 0.0, 1.0, 15.2, 1.1)">
    <path d="M5.65 0.1 L5.5 -0.45 Q5.5 -0.8 5.85 -1.0 6.3 -1.3 6.95 -0.65 L7.45 0.55 8.9 3.1 11.4 8.1 13.0 12.35 Q14.4 16.5 14.4 18.05 L13.95 20.4 Q13.7 21.3 12.45 22.0 L11.25 22.75 11.4 23.3 11.55 24.0 Q11.55 25.05 10.8 25.45 L7.6 26.3 4.4 27.1 -0.25 27.5 Q-1.25 27.5 -1.95 26.5 L-2.65 26.7 -4.75 26.95 -7.75 26.65 Q-10.15 26.65 -10.15 25.95 L-9.9 24.35 -11.95 23.5 -13.1 22.7 -14.1 21.85 Q-14.95 21.1 -15.1 20.25 L-15.2 18.75 Q-15.2 17.6 -14.0 13.05 L-12.75 8.5 Q-11.8 6.15 -10.05 3.4 L-8.45 0.85 -7.35 -0.5 Q-6.65 -1.2 -6.5 -0.5 L-6.25 -0.5 -6.3 -0.4 -6.35 -0.3 -6.45 -0.05 Q-6.5 0.7 -8.8 4.0 L-9.0 4.3 -10.15 6.85 -11.25 9.35 Q-12.4 12.7 -12.8 14.75 -13.15 16.95 -13.15 19.4 L-13.1 20.0 -12.15 21.3 -11.05 21.75 Q-10.3 21.9 -10.0 22.15 L-9.85 22.25 -9.75 22.35 -9.35 22.7 -8.65 22.9 -8.45 23.3 -8.5 23.5 -8.6 24.65 -8.6 24.85 -8.75 25.05 -7.7 25.45 -6.35 25.55 -2.35 25.05 -1.8 24.8 -1.6 24.8 -1.55 24.8 Q-0.8 24.8 -0.5 25.3 L-0.3 25.55 Q-0.2 25.6 -0.05 25.7 L0.65 25.75 2.0 25.65 4.1 25.3 5.85 24.85 8.0 24.3 9.65 23.8 9.7 23.8 9.75 23.75 9.7 23.7 9.6 23.65 9.55 23.6 9.15 22.95 9.15 22.9 9.15 22.8 9.1 22.45 9.1 22.4 Q9.1 21.95 9.45 21.75 L9.55 21.65 11.05 20.7 11.85 20.0 12.55 19.15 12.55 19.1 12.7 17.9 12.7 17.85 12.5 16.2 12.4 15.7 11.5 12.95 9.95 8.8 Q6.2 2.05 5.65 0.1 M7.05 5.1 L7.0 5.15 7.0 5.1 7.05 5.1" fill="#000000" fill-rule="evenodd" stroke="none"/>
    <path d="M9.55 21.65 L9.45 21.75 9.45 21.7 9.55 21.65 M9.6 23.65 L9.7 23.7 9.75 23.75 9.7 23.8 9.6 23.65" fill="#003399" fill-rule="evenodd" stroke="none"/>
    <path d="M-8.65 22.75 L-8.65 22.9 -8.65 22.75" fill="#012354" fill-rule="evenodd" stroke="none"/>
    <path d="M-6.35 -0.3 Q-5.25 0.25 -3.15 0.55 L1.1 0.9 Q4.35 0.9 5.65 0.1 6.2 2.05 9.95 8.8 L11.5 12.95 12.4 15.7 12.5 16.2 12.7 17.85 12.7 17.9 12.55 19.1 12.5 19.2 11.85 20.0 11.05 20.7 9.55 21.65 9.45 21.7 7.1 13.45 5.1 6.65 5.0 6.65 5.0 7.25 Q6.1 10.85 7.3 18.45 7.8 21.5 9.15 22.8 L9.15 22.9 9.15 22.95 9.55 23.6 9.6 23.65 9.65 23.8 8.0 24.3 5.85 24.85 4.1 25.3 2.0 25.65 0.65 25.75 -0.05 25.7 Q-0.2 25.6 -0.3 25.55 L-0.05 20.1 0.8 10.25 0.8 8.55 0.7 8.55 -0.25 17.95 Q-0.9 23.9 -1.55 24.8 L-1.6 24.8 -1.8 24.8 -2.35 25.05 -6.35 25.55 -7.7 25.45 -8.75 25.05 -8.6 24.85 -8.6 24.65 -8.5 23.5 -8.45 23.3 -8.65 22.9 -8.65 22.75 -8.6 21.5 -8.8 18.45 Q-8.8 15.35 -6.3 7.2 L-7.4 10.05 -8.9 14.45 -9.65 19.4 -9.85 22.15 -10.0 22.15 Q-10.3 21.9 -11.05 21.75 L-12.15 21.3 -13.1 20.0 -13.15 19.4 Q-13.15 16.95 -12.8 14.75 -12.4 12.7 -11.25 9.35 L-10.15 6.85 -9.0 4.3 -8.8 4.0 Q-6.5 0.7 -6.45 -0.05 L-6.35 -0.3 M7.05 5.1 L7.0 5.1 7.0 5.15 7.05 5.1" fill="#2e9696" fill-rule="evenodd" stroke="none"/>
    <path d="M9.45 21.75 Q9.1 21.95 9.1 22.4 L9.1 22.45 9.15 22.8 Q7.8 21.5 7.3 18.45 6.1 10.85 5.0 7.25 L5.0 6.65 5.1 6.65 7.1 13.45 9.45 21.7 9.55 21.65 9.45 21.7 9.45 21.75 M9.7 23.8 L9.65 23.8 9.6 23.65 9.7 23.8 M-0.3 25.55 L-0.5 25.3 Q-0.8 24.8 -1.55 24.8 -0.9 23.9 -0.25 17.95 L0.7 8.55 0.8 8.55 0.8 10.25 -0.05 20.1 -0.3 25.55 M-8.65 22.9 L-9.35 22.7 -9.75 22.35 -9.85 22.25 -10.0 22.15 -9.85 22.15 -9.65 19.4 -8.9 14.45 -7.4 10.05 -6.3 7.2 Q-8.8 15.35 -8.8 18.45 L-8.6 21.5 -8.65 22.75 -8.65 22.9" fill="#1e6262" fill-rule="evenodd" stroke="none"/>
  </g>
</svg>
