<?xml version="1.0" encoding="UTF-8" standalone="no"?>
<svg xmlns:ffdec="https://www.free-decompiler.com/flash" xmlns:xlink="http://www.w3.org/1999/xlink" ffdec:objectType="shape" height="55.7px" width="47.15px" xmlns="http://www.w3.org/2000/svg">
  <g transform="matrix(1.0, 0.0, 0.0, 1.0, 26.35, 44.1)">
    <path d="M-21.5 -34.15 L-21.45 -34.05 -21.55 -34.05 -21.5 -34.15 M-24.9 -26.4 L-24.9 -26.3 -25.0 -26.4 -24.9 -26.4" fill="#9c462b" fill-rule="evenodd" stroke="none"/>
    <path d="M-24.9 -26.3 L-24.95 -25.75 Q-24.95 -24.0 -24.35 -22.55 L-23.35 -20.95 -21.85 -19.3 Q-20.75 -17.9 -20.75 -16.65 -20.75 -14.55 -22.3 -12.5 L-22.5 -12.25 Q-24.25 -10.05 -24.25 -9.4 -24.25 -8.15 -21.15 -5.95 L-19.9 -4.95 Q-18.05 -3.25 -18.05 -1.3 -18.05 -0.15 -18.55 0.95 L-19.45 1.8 -19.75 2.15 -21.2 3.0 -22.75 4.05 -23.2 4.1 -23.05 4.25 -23.2 4.5 Q-21.75 5.95 -20.9 6.2 L-19.6 7.2 -17.75 8.35 -14.75 9.65 -11.8 10.1 Q-9.55 10.1 -8.75 9.2 L-8.45 8.3 Q-8.45 7.75 -9.65 6.3 -10.85 4.8 -10.85 3.35 -10.85 2.45 -10.05 0.75 -9.25 -0.95 -9.25 -1.75 -9.25 -2.3 -10.2 -4.4 -11.15 -6.45 -11.15 -8.55 L-10.7 -11.65 Q-10.3 -13.1 -10.25 -15.25 L-10.35 -15.45 -10.35 -15.85 -10.5 -15.85 Q-11.85 -15.85 -11.85 -16.55 -11.85 -17.05 -10.95 -17.1 L-9.6 -17.15 -9.1 -17.3 -7.1 -17.9 -6.2 -18.25 -1.95 -20.15 -1.2 -20.55 -0.55 -20.85 3.45 -23.55 5.65 -25.3 6.45 -25.95 6.5 -25.95 6.55 -25.9 6.65 -25.75 6.65 -25.65 6.35 -24.95 6.35 -24.9 6.0 -24.45 5.55 -24.0 5.4 -23.85 4.15 -22.55 3.1 -21.55 4.2 -20.55 5.35 -19.75 6.9 -18.85 Q7.55 -18.4 10.15 -17.3 12.25 -16.4 12.25 -16.1 L12.25 -16.0 12.45 -15.95 12.15 -15.7 11.5 -15.55 10.85 -15.7 Q8.65 -16.05 5.5 -18.2 2.8 -20.05 2.25 -20.95 L1.7 -20.6 1.25 -20.35 0.25 -19.9 -0.75 -19.45 -1.95 -18.85 -5.5 -17.35 -8.5 -16.25 -8.75 -15.25 Q-8.6 -14.1 -8.75 -13.0 L-9.25 -10.8 -9.5 -9.8 Q-9.4 -7.3 -9.1 -6.0 L-8.75 -5.1 Q-7.85 -2.7 -7.85 -1.75 L-8.05 -0.2 -8.05 -0.1 -8.4 0.3 -8.5 0.45 -9.05 2.25 -9.35 3.6 -8.5 5.25 -7.55 6.6 -7.15 7.15 -7.15 7.3 -6.95 8.4 Q-6.95 9.45 -7.55 10.15 -8.7 11.6 -11.8 11.6 L-12.4 11.6 -13.0 11.6 Q-17.95 11.6 -22.45 7.1 -26.15 4.2 -26.15 3.05 L-26.1 2.75 -24.5 2.85 Q-22.4 2.85 -21.25 1.4 L-20.4 0.5 Q-19.85 -0.4 -19.85 -1.2 -19.85 -2.7 -21.4 -4.25 L-22.55 -5.05 Q-25.7 -7.05 -25.7 -9.4 L-25.7 -9.6 -25.7 -9.85 Q-25.7 -11.55 -24.05 -13.9 L-23.2 -15.15 Q-22.4 -16.45 -22.4 -17.05 L-22.55 -17.85 -22.95 -18.4 -23.9 -18.95 -24.65 -19.7 -24.9 -20.0 -25.2 -20.65 -25.85 -21.85 -25.9 -22.05 -26.3 -24.05 -26.35 -25.8 Q-26.35 -31.3 -21.85 -36.25 -16.2 -42.45 -5.75 -44.05 10.15 -44.8 16.85 -36.3 18.9 -33.75 19.9 -30.8 20.8 -28.0 20.8 -24.9 20.8 -22.3 19.65 -20.5 18.45 -18.7 18.45 -17.8 18.45 -17.45 18.75 -16.85 L19.6 -15.55 19.3 -15.25 18.65 -15.15 Q18.15 -15.15 17.7 -15.9 L17.55 -16.15 17.45 -16.15 17.25 -16.65 17.05 -17.9 Q17.05 -19.2 17.85 -20.6 L18.2 -21.2 Q19.35 -22.9 19.35 -25.0 19.35 -27.15 18.45 -29.8 L18.1 -30.8 Q17.3 -32.8 16.15 -34.45 14.3 -37.2 12.1 -38.75 6.5 -42.6 -2.8 -42.6 L-10.2 -41.7 -14.3 -40.2 Q-18.15 -38.3 -20.9 -34.9 L-21.5 -34.15 -21.55 -34.05 Q-24.65 -29.95 -24.9 -26.4 L-25.0 -26.4 -24.9 -26.3" fill="#036358" fill-rule="evenodd" stroke="none"/>
    <path d="M12.45 -15.95 L12.25 -16.0 12.25 -16.1 Q12.25 -16.4 10.15 -17.3 7.55 -18.4 6.9 -18.85 L5.35 -19.75 4.2 -20.55 3.1 -21.55 4.15 -22.55 5.4 -23.85 5.55 -24.0 6.0 -24.45 6.35 -24.9 6.35 -24.95 6.65 -25.65 6.65 -25.75 6.55 -25.9 6.5 -25.95 6.45 -25.95 5.65 -25.3 3.45 -23.55 -0.55 -20.85 -1.2 -20.55 -1.95 -20.15 -6.2 -18.25 -7.1 -17.9 -9.1 -17.3 -9.6 -17.15 -10.95 -17.1 Q-11.85 -17.05 -11.85 -16.55 -11.85 -15.85 -10.5 -15.85 L-10.35 -15.85 -10.35 -15.45 -10.25 -15.25 Q-10.3 -13.1 -10.7 -11.65 L-11.15 -8.55 Q-11.15 -6.45 -10.2 -4.4 -9.25 -2.3 -9.25 -1.75 -9.25 -0.95 -10.05 0.75 -10.85 2.45 -10.85 3.35 -10.85 4.8 -9.65 6.3 -8.45 7.75 -8.45 8.3 L-8.75 9.2 Q-9.55 10.1 -11.8 10.1 L-14.75 9.65 -17.75 8.35 -19.6 7.2 -20.9 6.2 Q-21.75 5.95 -23.2 4.5 L-23.05 4.25 -23.2 4.1 -22.75 4.05 -21.2 3.0 -19.75 2.15 -19.45 1.8 -18.55 0.95 Q-18.05 -0.15 -18.05 -1.3 -18.05 -3.25 -19.9 -4.95 L-21.15 -5.95 Q-24.25 -8.15 -24.25 -9.4 -24.25 -10.05 -22.5 -12.25 L-22.3 -12.5 Q-20.75 -14.55 -20.75 -16.65 -20.75 -17.9 -21.85 -19.3 L-23.35 -20.95 -24.35 -22.55 Q-24.95 -24.0 -24.95 -25.75 L-24.9 -26.3 -24.9 -26.4 Q-24.65 -29.95 -21.55 -34.05 L-21.45 -34.05 -21.5 -34.15 -20.9 -34.9 Q-18.15 -38.3 -14.3 -40.2 L-10.2 -41.7 -2.8 -42.6 Q6.5 -42.6 12.1 -38.75 14.3 -37.2 16.15 -34.45 17.3 -32.8 18.1 -30.8 L18.45 -29.8 Q19.35 -27.15 19.35 -25.0 19.35 -22.9 18.2 -21.2 L17.85 -20.6 Q17.05 -19.2 17.05 -17.9 L17.25 -16.65 17.1 -15.95 12.45 -15.95" fill="url(#gradient0)" fill-rule="evenodd" stroke="none"/>
  </g>
  <defs>
    <radialGradient cx="0" cy="0" gradientTransform="matrix(0.0398, 0.0, 0.0, 0.0398, 5.9, -23.75)" gradientUnits="userSpaceOnUse" id="gradient0" r="819.2" spreadMethod="pad">
      <stop offset="0.6784313725490196" stop-color="#059a95"/>
      <stop offset="1.0" stop-color="#035249"/>
    </radialGradient>
  </defs>
</svg>
