<?xml version="1.0" encoding="UTF-8" standalone="no"?>
<svg xmlns:ffdec="https://www.free-decompiler.com/flash" xmlns:xlink="http://www.w3.org/1999/xlink" ffdec:objectType="shape" height="27.55px" width="31.8px" xmlns="http://www.w3.org/2000/svg">
  <g transform="matrix(1.0, 0.0, 0.0, 1.0, 14.45, 25.35)">
    <path d="M15.15 -17.6 L15.35 -17.65 Q16.2 -17.5 16.25 -16.4 L16.05 -15.7 16.05 -15.25 15.95 -14.55 14.95 -14.15 15.55 -14.9 15.8 -15.55 15.75 -15.5 15.3 -15.45 Q14.4 -15.45 14.15 -16.0 L14.05 -16.55 Q14.05 -17.5 14.85 -17.6 L15.15 -17.6 M12.45 -11.6 L12.35 -10.6 12.45 -10.3 12.4 -10.05 12.1 -8.2 11.55 -4.85 Q11.15 -1.7 10.5 -1.7 L10.45 -1.7 10.05 -2.0 10.05 -2.4 Q10.05 -3.6 10.9 -7.3 11.15 -8.65 11.55 -9.75 11.5 -10.35 11.75 -11.0 L11.85 -11.15 12.1 -11.1 12.45 -11.6 M-9.8 -16.75 L-9.65 -16.8 -9.1 -16.55 -9.8 -16.75 M3.35 -15.2 L3.45 -15.25 4.0 -15.4 4.5 -15.1 Q5.2 -14.85 5.5 -13.45 L5.25 -12.75 5.15 -12.6 5.1 -12.45 5.05 -12.4 5.05 -12.5 4.2 -12.25 Q3.45 -12.25 3.15 -12.85 L2.95 -13.55 Q2.95 -14.4 3.3 -14.8 L3.8 -15.1 3.35 -15.2 M-1.2 -20.6 L-1.15 -20.7 -1.15 -20.95 -1.4 -20.9 Q-2.35 -20.9 -2.75 -21.65 L-2.95 -22.4 Q-2.95 -23.15 -2.4 -23.4 L-2.0 -23.5 -2.4 -23.65 -1.85 -23.8 -1.7 -23.8 Q-1.15 -23.75 -0.8 -23.25 L-0.4 -22.1 -0.35 -21.8 Q-0.35 -20.8 -1.2 -20.6 M-8.85 -13.75 L-9.1 -13.75 Q-10.4 -13.75 -10.7 -15.55 L-10.6 -16.05 Q-8.75 -16.05 -8.75 -14.2 L-8.85 -13.75" fill="#ffffff" fill-rule="evenodd" stroke="none"/>
    <path d="M14.9 -14.05 L14.85 -14.05 14.5 -13.95 14.9 -14.05" fill="#ff3366" fill-rule="evenodd" stroke="none"/>
    <path d="M15.15 -17.6 L15.1 -17.65 14.85 -17.95 14.55 -18.3 13.95 -18.65 13.7 -18.7 12.95 -18.5 Q12.05 -18.5 11.5 -18.0 L11.3 -17.85 11.3 -17.95 10.95 -17.25 Q10.55 -16.5 10.55 -15.65 10.55 -15.05 11.05 -14.2 L11.5 -13.3 11.15 -12.45 11.2 -12.3 10.95 -11.9 10.45 -10.8 10.05 -10.55 9.7 -9.9 9.4 -9.45 8.95 -8.8 8.5 -8.05 8.15 -7.45 7.45 -6.25 6.4 -4.9 5.8 -4.7 5.55 -4.55 4.65 -6.4 4.0 -7.7 3.35 -8.75 3.35 -9.75 Q3.5 -10.05 3.7 -9.95 L3.75 -10.05 3.85 -10.1 3.75 -10.2 3.85 -10.3 3.85 -10.35 3.95 -10.35 4.1 -10.4 4.65 -10.6 4.95 -10.8 4.9 -10.8 4.8 -11.0 4.75 -11.35 4.75 -11.4 4.95 -11.95 5.1 -12.4 5.1 -12.45 5.15 -12.6 5.25 -12.75 5.5 -13.45 Q5.2 -14.85 4.5 -15.1 L4.0 -15.4 3.45 -15.25 3.35 -15.2 2.35 -14.9 2.3 -15.05 1.95 -14.9 1.35 -14.7 Q0.85 -14.4 0.65 -13.5 L0.45 -12.9 0.45 -12.8 Q0.3 -12.65 0.3 -12.3 0.85 -9.75 2.2 -9.65 L2.15 -9.4 1.95 -8.8 1.75 -7.85 1.0 -6.2 0.9 -5.6 0.55 -4.35 0.05 -3.65 -0.4 -3.8 -1.1 -3.9 -1.1 -4.1 -2.3 -5.1 -5.55 -7.85 -6.85 -9.35 Q-7.8 -10.45 -7.8 -10.85 L-7.95 -10.75 -8.2 -11.3 -8.25 -11.6 -8.3 -12.0 -8.05 -12.9 -7.95 -14.2 Q-7.95 -15.95 -9.1 -16.55 L-9.65 -16.8 -9.8 -16.75 -10.55 -16.85 -11.4 -16.65 -11.75 -16.35 -11.95 -16.2 -12.05 -16.2 -12.45 -15.55 -12.6 -15.05 -12.65 -14.85 -12.65 -14.8 Q-13.0 -14.35 -13.0 -13.7 L-13.0 -13.6 -12.95 -13.45 -12.8 -13.05 Q-12.0 -11.35 -11.0 -11.2 L-10.55 -10.1 -9.55 -6.15 -9.5 -5.9 -9.5 -5.85 -9.3 -5.5 -9.3 -5.2 -9.05 -3.7 -9.0 -3.6 -8.95 -3.4 -7.45 -2.55 -7.15 -2.4 -4.25 -1.45 -1.4 -1.05 2.1 -1.05 2.45 -1.0 2.75 -1.05 5.05 -1.15 6.85 -1.6 8.45 -2.1 8.5 -2.05 Q8.5 -1.45 5.65 -0.8 L-0.35 -0.4 -2.65 -0.5 -2.65 -0.65 -4.1 -0.8 -6.05 -1.3 -7.8 -2.2 -8.9 -2.8 -8.95 -2.75 -8.95 -2.5 -9.0 -1.9 -8.75 -1.7 -6.1 0.05 -6.15 0.1 -5.65 0.4 -3.0 1.0 Q0.45 1.65 3.5 1.15 L6.9 0.35 Q9.2 -0.25 10.25 -1.35 L10.25 -1.45 10.45 -1.7 10.5 -1.7 Q11.15 -1.7 11.55 -4.85 L12.1 -8.2 12.4 -10.05 12.45 -10.3 12.35 -10.6 12.45 -11.6 12.5 -11.95 Q12.45 -12.45 12.65 -12.65 L12.4 -12.65 13.25 -13.3 13.2 -13.2 13.25 -13.05 13.65 -12.95 14.7 -13.2 14.6 -13.5 14.85 -14.05 14.9 -14.05 14.95 -14.15 15.95 -14.55 16.05 -15.25 16.05 -15.7 16.25 -16.4 Q16.2 -17.5 15.35 -17.65 L15.15 -17.6 M13.7 -20.2 Q15.75 -20.05 16.7 -18.25 17.35 -16.95 17.35 -15.15 L16.85 -12.9 Q16.0 -11.35 13.65 -11.4 L13.65 -11.35 12.65 -4.3 12.6 -3.25 12.45 -2.75 12.4 -2.5 12.3 -1.7 12.3 -1.55 12.2 -1.0 9.85 0.25 6.95 1.3 Q4.35 2.2 1.9 2.2 L-2.75 1.8 -6.15 1.35 -6.6 1.1 -7.4 0.75 -9.35 -0.2 -10.15 -1.1 -11.1 -4.95 -11.55 -6.95 -12.1 -10.4 Q-13.0 -10.7 -13.45 -11.45 -13.9 -11.7 -14.15 -12.25 L-14.2 -12.3 Q-14.5 -13.7 -14.4 -14.55 -13.75 -18.75 -9.6 -18.0 -7.6 -17.6 -7.0 -15.3 L-6.85 -14.45 -6.75 -13.9 -6.8 -13.5 -6.85 -12.95 Q-6.95 -12.25 -7.35 -11.65 L-6.9 -11.45 -5.35 -15.15 -4.45 -17.4 -4.25 -17.6 Q-5.3 -18.0 -5.75 -18.9 L-5.85 -19.15 -5.9 -19.25 -6.0 -19.4 -6.4 -19.6 Q-6.8 -20.9 -6.65 -21.9 -6.05 -26.05 -1.85 -25.2 L-1.7 -25.15 -0.9 -24.95 0.4 -23.8 1.0 -22.5 1.05 -21.45 0.95 -20.15 Q0.8 -19.4 0.25 -18.7 L0.9 -17.5 1.55 -16.45 2.4 -16.4 1.55 -16.35 1.6 -16.35 3.4 -16.4 3.6 -16.4 Q5.6 -15.95 6.2 -13.75 L6.45 -11.7 6.4 -11.35 6.5 -11.25 6.45 -9.95 6.35 -10.1 6.15 -10.35 6.0 -10.05 5.95 -9.8 6.95 -8.75 7.7 -10.0 7.75 -9.9 7.9 -10.05 8.6 -11.05 9.4 -12.5 9.6 -13.2 9.8 -13.45 Q9.45 -13.8 9.25 -14.65 L9.05 -16.15 Q9.05 -17.95 9.8 -18.65 L11.1 -19.6 13.7 -20.2 M0.2 -16.3 L0.2 -16.35 0.1 -16.55 0.1 -16.6 -0.75 -18.5 -0.55 -18.7 -0.55 -18.75 -0.75 -19.2 Q-0.45 -19.45 -0.25 -20.25 -0.1 -20.95 -0.1 -21.6 L-0.15 -22.15 -0.7 -23.25 -0.75 -23.3 -0.8 -23.35 Q-1.6 -24.25 -2.8 -24.25 L-3.75 -24.15 -4.1 -23.8 -4.2 -23.8 Q-4.8 -23.8 -5.15 -22.9 L-5.35 -22.0 -5.4 -21.95 -5.4 -21.7 -5.4 -21.5 -5.35 -20.95 -4.9 -19.65 -4.2 -18.85 -3.4 -18.45 -3.5 -17.9 -3.45 -17.1 -3.65 -15.35 -3.55 -15.35 -3.55 -15.25 -4.45 -13.25 -5.6 -10.6 -4.95 -10.0 -5.05 -9.9 -4.9 -9.9 -5.0 -9.85 -3.05 -7.8 -0.75 -5.25 -0.65 -5.6 0.15 -7.8 0.35 -8.6 0.55 -9.0 0.55 -9.05 0.5 -9.1 -0.3 -9.95 -0.4 -10.3 -0.45 -10.35 -0.5 -10.45 -0.95 -10.8 Q-1.35 -12.0 -1.2 -13.0 -0.85 -15.15 0.45 -15.95 L0.25 -16.2 0.25 -16.25 0.2 -16.3 M6.95 -8.75 L6.2 -7.5 6.95 -8.65 6.95 -8.7 6.95 -8.75 M5.9 -6.95 L6.15 -7.4 Q5.65 -7.8 5.05 -8.75 L4.95 -8.9 4.75 -8.6 4.9 -8.25 5.75 -6.7 5.9 -6.95" fill="#036358" fill-rule="evenodd" stroke="none"/>
    <path d="M10.95 -17.25 L11.3 -17.95 11.3 -17.85 11.5 -18.0 Q12.05 -18.5 12.95 -18.5 L13.7 -18.7 13.95 -18.65 14.55 -18.3 14.85 -17.95 15.1 -17.65 15.15 -17.6 14.85 -17.6 Q14.2 -17.9 13.85 -18.1 L13.8 -18.1 13.25 -18.1 Q12.6 -18.1 12.25 -17.75 L12.1 -17.7 Q11.45 -17.45 11.7 -16.35 L11.7 -14.95 Q11.2 -15.65 11.15 -16.6 L11.05 -17.25 10.95 -17.25 M14.95 -14.15 L14.9 -14.05 14.5 -13.95 14.85 -14.05 14.6 -13.5 14.7 -13.2 13.65 -12.95 13.25 -13.05 13.2 -13.2 13.25 -13.3 13.35 -13.4 13.4 -13.45 13.5 -13.5 13.75 -13.7 13.55 -13.75 Q12.85 -13.9 12.35 -14.3 L12.1 -14.5 12.4 -14.4 13.3 -14.0 13.95 -13.95 14.2 -13.95 14.45 -14.0 14.9 -14.15 14.95 -14.15 M12.4 -12.65 L12.65 -12.65 Q12.45 -12.45 12.5 -11.95 L12.45 -11.6 12.1 -11.1 11.85 -11.15 11.75 -11.0 Q11.5 -10.35 11.55 -9.75 11.15 -8.65 10.9 -7.3 10.05 -3.6 10.05 -2.4 L10.05 -2.0 10.45 -1.7 10.25 -1.45 10.2 -1.45 6.6 -0.25 0.9 0.25 -2.6 -0.45 -4.1 -0.8 -2.65 -0.65 -2.65 -0.5 -0.35 -0.4 5.65 -0.8 Q8.5 -1.45 8.5 -2.05 L8.45 -2.1 6.85 -1.6 5.05 -1.15 2.75 -1.05 2.45 -1.0 2.1 -1.05 -1.4 -1.05 -4.25 -1.45 -7.15 -2.4 -7.2 -2.55 -7.7 -4.05 -8.65 -7.35 -8.9 -8.15 -9.1 -8.9 -9.25 -9.4 -9.5 -9.85 -9.5 -10.05 -9.5 -10.1 -9.95 -11.6 -9.85 -11.9 -10.0 -11.95 -10.0 -12.0 -9.9 -12.05 -9.8 -12.2 -9.75 -12.2 -9.75 -12.3 -9.55 -12.5 -9.0 -13.05 -8.95 -13.05 -8.85 -13.75 -8.75 -14.2 Q-8.75 -16.05 -10.6 -16.05 L-11.3 -15.8 -11.8 -16.1 -12.0 -15.9 -12.1 -15.85 -12.45 -15.55 -12.05 -16.2 -11.95 -16.2 -11.75 -16.35 -11.4 -16.65 -10.55 -16.85 -9.8 -16.75 -9.1 -16.55 Q-7.95 -15.95 -7.95 -14.2 L-8.05 -12.9 -8.3 -12.0 -8.25 -11.6 -8.2 -11.3 -7.95 -10.75 -7.8 -10.85 Q-7.8 -10.45 -6.85 -9.35 L-5.55 -7.85 -2.3 -5.1 -1.1 -4.1 -1.1 -3.9 -0.4 -3.8 0.05 -3.65 0.55 -4.35 0.9 -5.6 1.35 -5.65 1.95 -6.9 2.55 -8.5 2.55 -8.6 2.9 -9.4 2.8 -9.55 2.75 -9.5 2.8 -9.75 3.0 -9.75 3.2 -10.35 3.1 -10.35 3.0 -10.4 Q2.6 -10.45 2.3 -10.65 1.9 -10.9 1.65 -11.3 L1.5 -11.55 2.4 -10.8 4.4 -11.2 4.7 -11.5 4.75 -11.65 4.9 -11.95 5.05 -12.4 5.1 -12.45 5.1 -12.4 4.95 -11.95 4.75 -11.4 4.75 -11.35 4.8 -11.0 4.9 -10.8 4.95 -10.8 4.65 -10.6 4.1 -10.4 3.95 -10.35 3.85 -10.35 3.85 -10.3 3.75 -10.2 3.85 -10.1 3.75 -10.05 3.7 -9.95 Q3.5 -10.05 3.35 -9.75 L3.35 -8.75 4.0 -7.7 4.65 -6.4 5.55 -4.55 5.8 -4.7 6.4 -4.9 7.45 -6.25 8.15 -7.45 8.5 -8.05 8.95 -8.8 9.4 -9.45 9.7 -9.9 10.05 -10.55 10.45 -10.8 10.75 -11.0 10.8 -11.1 11.9 -12.15 12.1 -12.3 12.4 -12.65 M-12.8 -13.05 L-12.95 -13.45 -13.0 -13.6 -13.0 -13.7 -12.9 -13.5 -12.7 -13.2 -12.8 -13.05 M0.65 -13.5 Q0.85 -14.4 1.35 -14.7 L1.95 -14.9 2.3 -15.05 2.35 -14.9 1.4 -14.65 1.05 -12.45 0.65 -13.5 M-0.15 -16.5 L-0.35 -16.55 -0.5 -16.75 -0.75 -16.7 -1.25 -17.05 Q-1.35 -16.95 -1.5 -16.95 -2.15 -16.95 -2.15 -18.3 L-1.9 -19.65 -2.45 -19.65 -2.4 -19.7 -2.1 -19.7 -2.0 -19.8 -1.7 -19.95 Q-1.4 -20.15 -1.25 -20.5 L-1.2 -20.6 Q-0.35 -20.8 -0.35 -21.8 L-0.4 -22.1 -0.8 -23.25 Q-1.15 -23.75 -1.7 -23.8 L-1.85 -23.8 -2.4 -23.65 -2.5 -23.7 -2.65 -23.7 -3.8 -23.4 -3.95 -23.35 -4.15 -23.7 -4.1 -23.75 -4.2 -23.8 -4.1 -23.8 -3.75 -24.15 -2.8 -24.25 Q-1.6 -24.25 -0.8 -23.35 L-0.75 -23.3 -0.7 -23.25 -0.15 -22.15 -0.1 -21.6 Q-0.1 -20.95 -0.25 -20.25 -0.45 -19.45 -0.75 -19.2 L-0.55 -18.75 -0.55 -18.7 -0.75 -18.5 0.1 -16.6 0.1 -16.55 -0.15 -16.5 M6.95 -8.75 L6.95 -8.7 6.95 -8.65 6.2 -7.5 6.95 -8.75" fill="#5afae9" fill-rule="evenodd" stroke="none"/>
    <path d="M13.25 -13.3 L12.4 -12.65 12.1 -12.3 11.9 -12.15 10.8 -11.1 10.75 -11.0 10.45 -10.8 10.95 -11.9 11.2 -12.3 11.15 -12.45 11.5 -13.3 11.05 -14.2 Q10.55 -15.05 10.55 -15.65 10.55 -16.5 10.95 -17.25 L11.05 -17.25 11.15 -16.6 Q11.2 -15.65 11.7 -14.95 L11.7 -14.65 12.1 -14.5 12.35 -14.3 Q12.85 -13.9 13.55 -13.75 L13.75 -13.7 13.5 -13.5 13.4 -13.45 13.35 -13.4 13.25 -13.3 M10.25 -1.35 Q9.2 -0.25 6.9 0.35 L3.5 1.15 Q0.45 1.65 -3.0 1.0 L-5.65 0.4 -6.15 0.1 -6.1 0.05 -8.75 -1.7 -9.0 -1.9 -8.95 -2.5 -8.95 -2.75 -8.9 -2.8 -7.8 -2.2 -6.05 -1.3 -4.1 -0.8 -2.6 -0.45 0.9 0.25 6.6 -0.25 10.2 -1.45 10.25 -1.35 M-7.15 -2.4 L-7.45 -2.55 -8.95 -3.4 -9.0 -3.6 -9.05 -3.7 -9.3 -5.2 -9.3 -5.5 -9.5 -5.85 -9.5 -5.9 -9.55 -6.15 -10.55 -10.1 -11.0 -11.2 Q-12.0 -11.35 -12.8 -13.05 L-12.7 -13.2 -12.45 -12.85 -12.05 -12.5 -11.45 -12.0 -10.0 -11.95 -9.85 -11.9 -9.95 -11.6 -9.5 -10.1 -9.5 -10.05 -9.5 -9.85 -9.25 -9.4 -9.1 -8.9 -8.9 -8.15 -8.65 -7.35 -7.7 -4.05 -7.2 -2.55 -7.15 -2.4 M0.9 -5.6 L1.0 -6.2 1.75 -7.85 1.95 -8.8 2.15 -9.4 2.2 -9.65 Q0.85 -9.75 0.3 -12.3 0.3 -12.65 0.45 -12.8 L0.45 -12.9 0.65 -13.5 1.05 -12.45 1.0 -12.0 1.5 -11.55 1.65 -11.3 Q1.9 -10.9 2.3 -10.65 2.6 -10.45 3.0 -10.4 L3.1 -10.35 3.2 -10.35 3.0 -9.75 2.8 -9.75 2.75 -9.5 2.8 -9.55 2.9 -9.4 2.55 -8.6 2.55 -8.5 1.95 -6.9 1.35 -5.65 0.9 -5.6 M0.2 -16.3 L-0.05 -16.25 0.0 -16.25 0.25 -16.2 0.45 -15.95 Q-0.85 -15.15 -1.2 -13.0 -1.35 -12.0 -0.95 -10.8 L-0.5 -10.45 -0.45 -10.35 -0.4 -10.3 -0.3 -9.95 0.5 -9.1 0.55 -9.0 0.35 -8.6 0.15 -7.8 -0.65 -5.6 -0.75 -5.25 -3.05 -7.8 -5.0 -9.85 -4.9 -9.9 -5.05 -9.9 -4.95 -10.0 -5.6 -10.6 -4.45 -13.25 -3.55 -15.25 -3.55 -15.35 -3.65 -15.35 -3.45 -17.1 -3.5 -17.9 -3.4 -18.45 -4.2 -18.85 -4.9 -19.65 -5.35 -20.95 -5.4 -21.5 -5.4 -21.7 -5.35 -22.0 -5.15 -22.9 Q-4.8 -23.8 -4.2 -23.8 L-4.1 -23.75 -4.15 -23.7 -3.95 -23.35 -4.05 -23.3 -4.15 -23.2 -4.25 -23.1 -5.05 -22.0 -5.05 -21.75 -5.1 -21.9 -5.3 -21.55 -4.75 -20.45 -4.65 -20.2 -4.2 -19.7 -3.8 -19.7 -3.75 -19.65 -2.45 -19.65 -1.9 -19.65 -2.15 -18.3 Q-2.15 -16.95 -1.5 -16.95 -1.35 -16.95 -1.25 -17.05 L-0.75 -16.7 -0.5 -16.75 -0.35 -16.55 -0.15 -16.5 0.2 -16.35 0.2 -16.3 M5.9 -6.95 L5.75 -6.7 4.9 -8.25 4.75 -8.6 4.95 -8.9 5.05 -8.75 Q5.65 -7.8 6.15 -7.4 L5.9 -6.95" fill="#09eed7" fill-rule="evenodd" stroke="none"/>
    <path d="M-13.0 -13.7 Q-13.0 -14.35 -12.65 -14.8 L-12.65 -14.85 -12.6 -15.05 -12.45 -15.55 -12.1 -15.85 -12.0 -15.9 -11.8 -16.1 -11.3 -15.8 -10.6 -16.05 -10.7 -15.55 Q-10.4 -13.75 -9.1 -13.75 L-8.85 -13.75 -8.95 -13.05 -9.0 -13.05 -9.55 -12.5 -9.75 -12.3 -9.75 -12.2 -9.8 -12.2 -9.9 -12.05 -10.0 -12.0 -10.0 -11.95 -11.45 -12.0 -12.05 -12.5 -12.45 -12.85 -12.7 -13.2 -12.9 -13.5 -13.0 -13.7 M2.35 -14.9 L3.35 -15.2 3.8 -15.1 3.3 -14.8 Q2.95 -14.4 2.95 -13.55 L3.15 -12.85 Q3.45 -12.25 4.2 -12.25 L5.05 -12.5 5.05 -12.4 4.9 -11.95 4.75 -11.65 4.7 -11.5 4.4 -11.2 2.4 -10.8 1.5 -11.55 1.0 -12.0 1.05 -12.45 1.4 -14.65 2.35 -14.9 M11.7 -14.95 L11.7 -16.35 Q11.45 -17.45 12.1 -17.7 L12.25 -17.75 Q12.6 -18.1 13.25 -18.1 L13.8 -18.1 13.85 -18.1 Q14.2 -17.9 14.85 -17.6 14.05 -17.5 14.05 -16.55 L14.15 -16.0 Q14.4 -15.45 15.3 -15.45 L15.75 -15.5 15.8 -15.55 15.55 -14.9 14.95 -14.15 14.9 -14.15 14.45 -14.0 14.2 -13.95 13.95 -13.95 13.3 -14.0 12.4 -14.4 12.1 -14.5 11.7 -14.65 11.7 -14.95 M-3.8 -19.7 L-4.2 -19.7 -4.65 -20.2 -4.75 -20.45 -5.3 -21.55 -5.1 -21.9 -5.05 -21.75 -5.05 -22.0 -4.25 -23.1 -4.15 -23.2 -4.05 -23.3 -3.95 -23.35 -3.8 -23.4 -2.65 -23.7 -2.5 -23.7 -2.4 -23.65 -2.0 -23.5 -2.4 -23.4 Q-2.95 -23.15 -2.95 -22.4 L-2.75 -21.65 Q-2.35 -20.9 -1.4 -20.9 L-1.15 -20.95 -1.15 -20.7 -1.2 -20.6 -1.25 -20.5 Q-1.4 -20.15 -1.7 -19.95 L-2.0 -19.8 -2.1 -19.7 -2.4 -19.7 -3.8 -19.7" fill="#06b5a3" fill-rule="evenodd" stroke="none"/>
  </g>
</svg>
