<?xml version="1.0" encoding="UTF-8" standalone="no"?>
<svg xmlns:ffdec="https://www.free-decompiler.com/flash" xmlns:xlink="http://www.w3.org/1999/xlink" ffdec:objectType="shape" height="56.65px" width="47.25px" xmlns="http://www.w3.org/2000/svg">
  <g transform="matrix(1.0, 0.0, 0.0, 1.0, 27.0, 23.85)">
    <path d="M10.35 -0.25 Q8.0 -0.4 4.5 -2.8 3.45 -3.5 2.75 -4.1 L1.4 -5.35 1.25 -5.55 0.95 -5.35 Q0.2 -4.95 -0.75 -4.5 L-2.1 -3.9 -3.65 -3.3 -6.1 -2.5 -8.65 -1.6 -8.8 -1.65 -9.5 -1.4 -9.6 -1.3 -9.8 -0.7 -9.8 -0.65 -9.95 -0.15 Q-10.45 1.4 -10.5 5.15 L-10.35 7.65 -10.35 7.7 -9.9 10.1 -9.75 11.45 -9.3 14.35 Q-8.85 16.4 -8.45 19.8 L-8.1 23.15 -8.0 22.7 -7.55 24.85 -7.1 27.35 Q-7.1 28.8 -7.45 29.8 L-8.2 31.2 -7.6 31.25 -7.7 31.45 -8.2 31.9 -8.85 32.35 -9.35 32.6 -10.85 32.8 -11.3 32.75 Q-15.8 31.75 -19.35 29.9 -25.35 26.7 -25.35 23.65 L-25.3 23.4 Q-24.85 23.9 -24.0 23.9 L-22.9 23.75 Q-21.8 23.65 -21.3 22.65 L-21.15 22.45 Q-20.6 21.75 -20.6 21.05 -20.6 20.4 -20.9 19.9 L-21.05 19.35 Q-21.25 17.5 -22.15 14.4 L-24.3 8.65 -24.95 6.9 -23.85 6.95 -24.95 6.9 Q-25.7 4.7 -26.05 2.6 -27.0 -0.8 -27.0 -2.7 L-26.7 -6.65 -26.55 -7.1 -26.45 -8.15 -26.3 -8.7 -26.1 -9.35 -25.55 -11.0 -22.9 -15.75 -22.8 -16.0 Q-21.3 -17.8 -19.35 -19.2 L-16.2 -20.95 -14.9 -21.55 Q-10.35 -23.35 -4.05 -23.7 L-3.2 -23.85 Q1.4 -23.7 5.55 -22.4 12.75 -20.2 16.95 -15.0 L17.9 -13.3 18.6 -11.95 19.1 -10.4 20.2 -5.9 20.25 -4.75 Q20.25 -3.0 19.85 -1.25 L18.95 2.7 18.9 2.9 18.8 3.1 18.7 3.65 16.7 3.65 16.75 3.4 18.15 -6.45 18.05 -7.25 Q17.45 -13.8 10.65 -17.9 8.35 -19.25 6.3 -20.05 L5.35 -20.5 Q1.8 -22.1 -2.9 -22.1 -10.6 -22.1 -16.5 -18.25 L-17.05 -18.0 -17.4 -17.85 -17.95 -17.45 -20.1 -15.55 -20.45 -15.25 -20.55 -15.2 -20.95 -14.9 -21.4 -14.25 -23.5 -10.4 -24.0 -8.35 -24.35 -5.95 -24.8 -2.3 Q-24.8 -1.2 -24.2 1.2 -23.65 3.6 -23.65 4.35 L-22.75 7.0 -22.4 8.0 Q-20.6 13.05 -19.9 16.7 L-19.85 16.85 -19.75 17.55 -19.75 16.65 -19.5 17.6 -19.15 19.1 -19.2 20.8 -19.1 21.1 -19.7 22.55 -19.85 23.1 -20.65 24.4 -20.85 24.5 -22.25 25.15 -22.45 25.25 -22.15 25.85 -21.75 26.8 -19.1 28.2 -14.35 30.3 -9.85 31.55 -9.6 31.6 -9.55 31.55 -8.9 30.05 Q-8.35 29.0 -8.3 26.85 L-8.35 26.6 -8.55 24.8 -8.55 24.5 -8.95 23.3 Q-9.2 19.95 -9.95 15.05 L-10.95 7.65 -11.05 6.7 -11.1 5.8 -10.75 1.4 -10.3 -1.05 -10.3 -1.15 -12.4 -0.75 -12.65 -1.0 -10.75 -1.75 -10.1 -1.9 -6.9 -2.85 -4.3 -3.85 -1.95 -4.75 Q-1.0 -5.05 -0.15 -5.5 L0.9 -6.1 2.6 -7.4 3.6 -8.45 4.7 -9.65 5.5 -10.55 5.65 -10.25 Q5.65 -9.75 4.55 -8.6 L3.15 -7.15 1.7 -5.85 2.4 -5.3 3.15 -4.65 3.7 -4.15 3.95 -3.95 Q4.85 -3.3 5.45 -3.0 L8.0 -1.75 9.85 -1.1 11.45 -0.55 Q11.15 -0.25 10.6 -0.25 L10.35 -0.25" fill="#000000" fill-rule="evenodd" stroke="none"/>
    <path d="M10.35 -0.25 L10.6 -0.25 Q11.15 -0.25 11.45 -0.55 L9.85 -1.1 8.0 -1.75 5.45 -3.0 Q4.85 -3.3 3.95 -3.95 L3.7 -4.15 3.15 -4.65 2.4 -5.3 1.7 -5.85 3.15 -7.15 4.55 -8.6 Q5.65 -9.75 5.65 -10.25 L5.5 -10.55 4.7 -9.65 3.6 -8.45 2.6 -7.4 0.9 -6.1 -0.15 -5.5 Q-4.1 -6.0 -9.2 -7.7 -17.1 -10.35 -21.4 -14.25 L-20.95 -14.9 -20.55 -15.2 -20.45 -15.25 -20.1 -15.55 -17.95 -17.45 -17.4 -17.85 -17.05 -18.0 -16.5 -18.25 Q-10.6 -22.1 -2.9 -22.1 1.8 -22.1 5.35 -20.5 L6.3 -20.05 Q8.35 -19.25 10.65 -17.9 17.45 -13.8 18.05 -7.25 L18.15 -6.45 16.75 3.4 Q14.05 3.15 13.2 2.6 12.45 2.2 11.4 0.95 L10.35 -0.25 M-4.3 -3.85 L-6.9 -2.85 -10.1 -1.9 -10.75 -1.75 -12.65 -1.0 -12.4 -0.75 -10.3 -1.15 -10.3 -1.05 -10.75 1.4 -11.1 5.8 -11.05 6.7 -10.95 7.65 -9.95 15.05 Q-9.2 19.95 -8.95 23.3 L-8.55 24.5 -8.55 24.8 -8.35 26.6 -8.3 26.85 Q-8.35 29.0 -8.9 30.05 L-9.55 31.55 -9.6 31.6 -9.85 31.55 -14.35 30.3 -19.1 28.2 -21.75 26.8 -22.15 25.85 -22.45 25.25 -22.25 25.15 -20.85 24.5 -20.65 24.4 -19.85 23.1 -19.7 22.55 -19.1 21.1 -19.2 20.8 -19.15 19.1 -19.5 17.6 -19.75 16.65 -19.9 16.7 Q-20.6 13.05 -22.4 8.0 L-22.75 7.0 -23.65 4.35 Q-23.65 3.6 -24.2 1.2 -24.8 -1.2 -24.8 -2.3 L-24.35 -5.95 -24.0 -8.35 Q-20.85 -7.1 -15.2 -5.75 -8.25 -4.1 -4.3 -3.85" fill="#b10148" fill-rule="evenodd" stroke="none"/>
    <path d="M-0.15 -5.5 Q-1.0 -5.05 -1.95 -4.75 L-4.3 -3.85 Q-8.25 -4.1 -15.2 -5.75 -20.85 -7.1 -24.0 -8.35 L-23.5 -10.4 -21.4 -14.25 Q-17.1 -10.35 -9.2 -7.7 -4.1 -6.0 -0.15 -5.5" fill="#fd0267" fill-rule="evenodd" stroke="none"/>
    <path d="M-19.85 16.85 L-19.9 16.7 -19.75 16.65 -19.85 16.85 M-9.65 3.05 L-9.7 3.15 -9.7 3.05 -9.65 3.05" fill="#01013a" fill-rule="evenodd" stroke="none"/>
  </g>
</svg>
