<?xml version="1.0" encoding="UTF-8" standalone="no"?>
<svg xmlns:ffdec="https://www.free-decompiler.com/flash" xmlns:xlink="http://www.w3.org/1999/xlink" ffdec:objectType="shape" height="29.95px" width="33.7px" xmlns="http://www.w3.org/2000/svg">
  <g transform="matrix(1.0, 0.0, 0.0, 1.0, 15.2, 2.45)">
    <path d="M4.35 -1.65 L4.3 -1.75 4.35 -1.9 4.3 -2.0 Q4.3 -2.35 4.6 -2.45 L5.05 -2.3 5.1 -2.2 5.2 -2.05 5.95 -1.2 7.8 0.5 9.75 1.6 Q10.7 2.15 11.2 2.6 L11.3 2.45 11.4 2.4 11.7 2.7 12.2 3.25 12.6 4.35 13.6 7.15 14.3 9.85 14.5 10.65 15.05 12.3 14.9 12.7 14.95 12.95 14.55 13.7 13.95 14.35 13.4 14.9 13.65 15.65 Q13.3 16.5 13.45 17.2 L13.35 18.4 12.8 19.8 Q11.8 22.1 11.0 22.5 L11.3 23.0 11.4 23.3 11.55 24.0 Q11.55 25.05 10.8 25.45 L7.6 26.3 4.4 27.1 -0.25 27.5 Q-1.25 27.5 -1.95 26.5 L-2.65 26.7 -4.75 26.95 -7.75 26.65 Q-10.15 26.65 -10.15 25.95 L-9.9 24.35 -11.95 23.5 -13.1 22.7 -14.1 21.85 Q-14.95 21.1 -15.1 20.25 L-15.2 18.75 Q-15.2 17.6 -14.0 13.05 L-12.75 8.5 Q-11.8 6.15 -10.05 3.4 L-8.45 0.85 -7.35 -0.5 -7.15 -0.65 Q-6.6 -1.1 -6.5 -0.5 L-6.25 -0.5 -6.3 -0.4 -6.35 -0.3 -6.45 -0.05 Q-6.5 0.7 -8.8 4.0 L-9.0 4.3 -10.15 6.85 -11.25 9.35 Q-12.4 12.7 -12.8 14.75 -13.15 16.95 -13.15 19.4 L-13.1 20.0 -12.15 21.3 -11.05 21.75 Q-10.3 21.9 -10.0 22.15 L-9.85 22.25 -9.75 22.35 -9.35 22.7 -8.65 22.9 -8.45 23.3 -8.5 23.5 -8.6 24.65 -8.6 24.85 -8.75 25.05 -7.7 25.45 -6.35 25.55 -2.35 25.05 -1.8 24.8 -1.6 24.8 -1.55 24.8 Q-0.8 24.8 -0.5 25.3 L-0.3 25.55 Q-0.2 25.6 -0.05 25.7 L0.65 25.75 2.0 25.65 4.1 25.3 5.85 24.85 8.0 24.3 9.65 23.8 9.7 23.8 9.75 23.75 9.7 23.7 9.6 23.65 9.55 23.6 9.15 22.95 9.15 22.9 9.15 22.8 9.15 22.65 9.25 22.65 Q9.25 22.45 9.6 22.0 L10.25 21.25 11.4 19.9 11.4 19.85 11.4 19.8 11.45 19.85 11.65 19.5 Q12.15 18.45 12.15 16.55 L11.95 14.85 11.95 14.7 11.9 14.45 Q11.9 14.0 13.2 12.7 L13.7 12.0 13.6 11.6 13.3 10.55 12.9 9.1 12.65 8.35 12.45 7.85 11.35 5.4 10.55 3.95 10.05 3.35 8.3 2.15 Q6.65 1.05 6.3 0.65 L5.55 -0.15 Q5.3 -0.25 5.05 -0.5 L4.7 -0.95 4.7 -1.05 4.35 -1.65" fill="#000000" fill-rule="evenodd" stroke="none"/>
    <path d="M9.6 23.65 L9.7 23.7 9.75 23.75 9.7 23.8 9.6 23.65" fill="#003399" fill-rule="evenodd" stroke="none"/>
    <path d="M-8.65 22.75 L-8.65 22.9 -8.65 22.75" fill="#012354" fill-rule="evenodd" stroke="none"/>
    <path d="M-6.35 -0.3 L-5.4 -0.15 -2.85 0.05 Q-0.25 0.05 2.3 -0.8 L4.35 -1.65 4.7 -1.05 4.7 -0.95 5.05 -0.5 Q5.3 -0.25 5.55 -0.15 L6.3 0.65 Q6.65 1.05 8.3 2.15 L10.05 3.35 10.55 3.95 11.35 5.4 12.45 7.85 12.65 8.35 12.9 9.1 13.3 10.55 13.6 11.6 13.7 12.0 13.2 12.7 Q11.9 14.0 11.9 14.45 L11.95 14.7 11.95 14.85 12.15 16.55 Q12.15 18.45 11.65 19.5 L11.45 19.85 11.4 19.8 11.4 19.85 11.4 19.9 10.25 21.25 9.6 22.0 9.5 21.75 9.25 21.15 9.3 21.15 9.05 20.25 7.1 13.45 5.1 6.65 5.0 6.65 5.0 7.25 Q6.1 10.85 7.3 18.45 L7.9 20.7 8.45 21.9 8.75 22.55 9.65 23.8 8.0 24.3 5.85 24.85 4.1 25.3 2.0 25.65 0.65 25.75 -0.05 25.7 Q-0.2 25.6 -0.3 25.55 L-0.05 20.1 0.8 10.25 0.8 8.55 0.7 8.55 -0.25 17.95 Q-0.9 23.9 -1.55 24.8 L-1.6 24.8 -1.8 24.8 -2.35 25.05 -6.35 25.55 -7.7 25.45 -8.75 25.05 -8.6 24.85 -8.6 24.65 -8.5 23.5 -8.45 23.3 -8.65 22.9 -8.65 22.75 -8.6 21.5 -8.8 18.45 Q-8.8 15.35 -6.3 7.2 L-7.4 10.05 -8.9 14.45 -9.65 19.4 -9.85 22.15 -10.0 22.15 Q-10.3 21.9 -11.05 21.75 L-12.15 21.3 -13.1 20.0 -13.15 19.4 Q-13.15 16.95 -12.8 14.75 -12.4 12.7 -11.25 9.35 L-10.15 6.85 -9.0 4.3 -8.8 4.0 Q-6.5 0.7 -6.45 -0.05 L-6.35 -0.3" fill="#f1fd82" fill-rule="evenodd" stroke="none"/>
    <path d="M9.6 22.0 Q9.25 22.45 9.25 22.65 L9.15 22.65 9.15 22.8 9.15 22.9 9.15 22.95 9.55 23.6 9.6 23.65 9.7 23.8 9.65 23.8 8.75 22.55 8.45 21.9 7.9 20.7 7.3 18.45 Q6.1 10.85 5.0 7.25 L5.0 6.65 5.1 6.65 7.1 13.45 9.05 20.25 9.3 21.15 9.25 21.15 9.5 21.75 9.6 22.0 M-0.3 25.55 L-0.5 25.3 Q-0.8 24.8 -1.55 24.8 -0.9 23.9 -0.25 17.95 L0.7 8.55 0.8 8.55 0.8 10.25 -0.05 20.1 -0.3 25.55 M-8.65 22.9 L-9.35 22.7 -9.75 22.35 -9.85 22.25 -10.0 22.15 -9.85 22.15 -9.65 19.4 -8.9 14.45 -7.4 10.05 -6.3 7.2 Q-8.8 15.35 -8.8 18.45 L-8.6 21.5 -8.65 22.75 -8.65 22.9" fill="#f7c655" fill-rule="evenodd" stroke="none"/>
    <path d="M15.4 16.65 L15.4 16.75 15.85 17.1 16.4 18.2 16.75 19.1 16.95 19.7 16.85 19.65 14.9 18.65 14.9 17.9 14.85 17.4 14.8 17.1 15.05 16.85 15.4 16.65" fill="#390ba8" fill-rule="evenodd" stroke="none"/>
    <path d="M14.8 17.1 L14.85 17.4 14.9 17.9 14.9 18.65 16.85 19.65 16.95 19.7 16.75 19.1 16.4 18.2 15.85 17.1 15.4 16.75 15.4 16.65 15.35 16.25 14.95 15.35 14.2 13.75 14.15 13.5 Q14.2 13.1 14.65 13.15 L14.7 13.15 16.2 16.1 16.25 16.2 16.35 16.3 16.4 16.35 16.65 16.55 17.0 17.55 17.4 18.3 17.95 19.7 18.25 20.25 18.5 21.0 18.15 21.35 17.95 21.4 17.6 21.2 15.85 20.05 14.6 19.5 14.35 19.35 Q14.0 19.25 14.0 18.5 L14.0 17.8 14.0 17.55 14.0 17.45 13.3 16.35 12.9 15.8 12.9 15.7 12.8 15.55 12.6 15.1 Q12.65 14.85 12.85 14.75 L13.1 14.75 13.35 14.75 13.55 15.0 13.95 15.65 14.35 16.3 14.7 17.05 14.8 17.1" fill="#000000" fill-rule="evenodd" stroke="none"/>
    <path d="M15.4 16.65 L15.05 16.85 14.8 17.1 14.7 17.05 14.35 16.3 13.95 15.65 13.55 15.0 13.35 14.75 13.75 14.25 14.2 13.75 14.95 15.35 15.35 16.25 15.4 16.65" fill="#fec9b4" fill-rule="evenodd" stroke="none"/>
  </g>
</svg>
