<?xml version="1.0" encoding="UTF-8" standalone="no"?>
<svg xmlns:ffdec="https://www.free-decompiler.com/flash" xmlns:xlink="http://www.w3.org/1999/xlink" ffdec:objectType="shape" height="8.5px" width="10.4px" xmlns="http://www.w3.org/2000/svg">
  <g transform="matrix(1.0, 0.0, 0.0, 1.0, 5.2, 4.3)">
    <path d="M1.5 -1.15 L1.6 -1.15 2.0 -0.25 2.1 0.3 2.1 0.35 1.85 0.3 2.1 1.0 1.7 2.1 Q0.7 3.9 -1.55 3.8 -3.6 3.65 -4.4 1.9 L-4.75 -0.2 -4.6 -0.65 -4.6 -0.8 -3.9 -2.0 Q-2.9 -3.05 -1.2 -3.0 0.6 -2.95 1.5 -1.45 L1.5 -1.15" fill="#ffffff" fill-rule="evenodd" stroke="none"/>
    <path d="M1.45 -2.75 Q2.15 -2.0 2.15 -0.8 2.1 0.4 1.25 1.3 0.35 2.1 -0.85 2.1 -2.05 2.1 -2.8 1.3 -3.65 0.4 -3.6 -0.8 -3.6 -2.0 -2.65 -2.75 -1.8 -3.65 -0.6 -3.65 0.6 -3.65 1.45 -2.75" fill="#66cc66" fill-rule="evenodd" stroke="none"/>
    <path d="M0.0 -1.6 Q0.35 -1.25 0.3 -0.7 0.3 -0.15 -0.1 0.25 -0.55 0.6 -1.1 0.6 L-2.0 0.25 Q-2.35 -0.15 -2.35 -0.7 -2.3 -1.25 -1.9 -1.6 -1.5 -2.0 -1.0 -2.0 -0.45 -2.0 0.0 -1.6" fill="#354b01" fill-rule="evenodd" stroke="none"/>
    <path d="M1.75 -3.3 L1.85 -3.1 1.85 -2.9 2.1 -2.45 2.25 -2.05 2.25 -2.0 2.45 -1.15 2.5 -1.15 2.85 -1.25 2.7 -1.25 2.85 -1.35 2.9 -1.3 2.9 -1.25 3.05 -1.3 3.15 -1.3 3.9 -1.4 5.15 -1.55 5.2 -1.55 5.05 -1.3 5.0 -1.25 4.7 -1.1 Q4.3 -0.6 2.6 0.55 L2.6 0.65 2.6 1.2 2.15 2.4 2.15 2.35 2.2 2.15 2.1 2.35 2.0 2.5 Q0.9 4.3 -1.55 4.2 -3.9 4.1 -4.8 2.05 -5.3 0.95 -5.2 -0.2 -5.1 -2.15 -3.8 -3.35 L-2.25 -4.2 -2.3 -4.3 -2.2 -4.3 -1.85 -4.3 -0.25 -4.25 1.5 -3.45 1.75 -3.3 M0.9 -2.15 L0.85 -2.2 0.55 -2.5 0.3 -2.7 -0.95 -3.15 -2.0 -3.0 -2.35 -2.85 -3.35 -2.45 -3.9 -2.0 -4.2 -1.6 -4.1 -1.55 -4.1 -1.5 -3.9 -1.4 -2.6 -1.3 -1.9 -1.35 -1.25 -1.4 -1.2 -1.45 -1.15 -1.45 0.15 -1.85 0.45 -1.95 0.5 -1.95 0.8 -2.15 0.9 -2.15 M0.45 -1.1 Q-0.8 -0.55 -1.9 -0.55 L-3.95 -0.75 -4.35 -0.9 -4.55 -0.95 -4.6 -0.8 -4.6 -0.65 -4.75 -0.2 -4.4 1.9 Q-3.6 3.65 -1.55 3.8 0.7 3.9 1.7 2.1 L1.9 1.55 2.0 1.25 2.1 1.0 2.1 0.9 2.1 0.35 2.1 0.3 2.05 -0.2 1.7 -0.85 1.65 -1.05 1.45 -1.55 1.35 -1.5 1.3 -1.45 1.0 -1.35 0.45 -1.1" fill="#000000" fill-rule="evenodd" stroke="none"/>
    <path d="M0.9 -2.15 L0.8 -2.15 0.5 -1.95 0.45 -1.95 0.15 -1.85 -1.15 -1.45 -1.2 -1.45 -1.25 -1.4 -1.9 -1.35 -2.6 -1.3 -3.9 -1.4 -4.1 -1.5 -4.1 -1.55 -4.2 -1.6 -3.9 -2.0 -3.35 -2.45 -2.35 -2.85 -2.0 -3.0 -0.95 -3.15 0.3 -2.7 0.55 -2.5 0.85 -2.2 0.9 -2.15" fill="#e6d8bb" fill-rule="evenodd" stroke="none"/>
  </g>
</svg>
