<?xml version="1.0" encoding="UTF-8" standalone="no"?>
<svg xmlns:ffdec="https://www.free-decompiler.com/flash" xmlns:xlink="http://www.w3.org/1999/xlink" ffdec:objectType="shape" height="8.7px" width="10.4px" xmlns="http://www.w3.org/2000/svg">
  <g transform="matrix(1.0, 0.0, 0.0, 1.0, 5.2, 4.5)">
    <path d="M1.5 -1.8 L1.5 -1.45 1.6 -1.45 2.0 -0.5 2.1 0.05 2.1 0.1 1.85 0.05 2.1 0.8 1.7 1.95 Q0.7 3.9 -1.55 3.75 -3.6 3.6 -4.4 1.75 L-4.75 -0.45 -4.6 -0.95 -4.6 -1.1 -3.9 -2.35 Q-2.9 -3.5 -1.2 -3.45 0.6 -3.35 1.5 -1.8" fill="#ffffff" fill-rule="evenodd" stroke="none"/>
    <path d="M1.35 -2.75 Q2.05 -2.0 2.05 -0.8 2.0 0.4 1.15 1.3 0.25 2.1 -0.95 2.1 -2.15 2.1 -2.9 1.3 -3.75 0.4 -3.7 -0.8 -3.7 -2.0 -2.75 -2.75 -1.9 -3.65 -0.7 -3.65 0.5 -3.65 1.35 -2.75" fill="#66cc66" fill-rule="evenodd" stroke="none"/>
    <path d="M-2.0 -1.6 Q-1.6 -2.0 -1.1 -2.0 -0.55 -2.0 -0.1 -1.6 0.25 -1.25 0.2 -0.7 0.2 -0.15 -0.2 0.25 L-1.2 0.6 Q-1.7 0.6 -2.1 0.25 -2.45 -0.15 -2.45 -0.7 -2.4 -1.25 -2.0 -1.6" fill="#354b01" fill-rule="evenodd" stroke="none"/>
    <path d="M1.75 -3.5 L1.85 -3.25 1.85 -3.05 2.1 -2.6 2.25 -2.2 2.25 -2.15 2.45 -1.3 2.5 -1.3 2.85 -1.4 2.7 -1.4 2.85 -1.5 2.9 -1.45 2.9 -1.4 3.05 -1.45 3.15 -1.45 3.9 -1.55 5.15 -1.7 5.2 -1.7 5.05 -1.45 5.0 -1.4 4.7 -1.25 Q4.3 -0.7 2.6 0.45 L2.6 0.55 2.6 1.15 2.15 2.35 2.15 2.3 2.2 2.1 2.1 2.3 2.0 2.45 Q0.9 4.3 -1.55 4.2 -3.9 4.1 -4.8 2.0 -5.3 0.85 -5.2 -0.3 -5.1 -2.3 -3.8 -3.55 L-2.25 -4.4 -2.3 -4.5 -2.2 -4.5 -1.85 -4.5 -0.25 -4.45 1.5 -3.65 1.75 -3.5 M0.9 -2.3 L0.85 -2.35 0.55 -2.65 0.3 -2.85 -0.95 -3.3 -2.0 -3.15 -2.35 -3.0 -3.35 -2.6 -3.9 -2.15 -4.2 -1.75 -4.1 -1.7 -4.1 -1.65 -3.9 -1.55 -2.6 -1.45 -1.9 -1.5 -1.25 -1.55 -1.2 -1.6 -1.15 -1.6 0.15 -2.0 0.45 -2.1 0.5 -2.1 0.8 -2.3 0.9 -2.3 M0.45 -1.25 Q-0.8 -0.65 -1.9 -0.65 L-3.95 -0.85 -4.35 -1.0 -4.55 -1.05 -4.6 -0.9 -4.6 -0.75 -4.75 -0.3 -4.4 1.85 Q-3.6 3.65 -1.55 3.8 0.7 3.9 1.7 2.05 L1.9 1.5 2.0 1.2 2.1 0.9 2.1 0.8 2.1 0.25 2.1 0.2 2.05 -0.3 1.7 -0.95 1.65 -1.15 1.45 -1.7 1.35 -1.65 1.3 -1.6 1.0 -1.5 0.45 -1.25" fill="#000000" fill-rule="evenodd" stroke="none"/>
    <path d="M0.9 -2.3 L0.8 -2.3 0.5 -2.1 0.45 -2.1 0.15 -2.0 -1.15 -1.6 -1.2 -1.6 -1.25 -1.55 -1.9 -1.5 -2.6 -1.45 -3.9 -1.55 -4.1 -1.65 -4.1 -1.7 -4.2 -1.75 -3.9 -2.15 -3.35 -2.6 -2.35 -3.0 -2.0 -3.15 -0.95 -3.3 0.3 -2.85 0.55 -2.65 0.85 -2.35 0.9 -2.3" fill="#e6d8bb" fill-rule="evenodd" stroke="none"/>
  </g>
</svg>
