<?xml version="1.0" encoding="UTF-8" standalone="no"?>
<svg xmlns:ffdec="https://www.free-decompiler.com/flash" xmlns:xlink="http://www.w3.org/1999/xlink" ffdec:objectType="shape" height="10.1px" width="22.4px" xmlns="http://www.w3.org/2000/svg">
  <g transform="matrix(1.0, 0.0, 0.0, 1.0, 11.3, 4.2)">
    <path d="M1.05 -1.95 L2.2 -1.95 3.25 -1.95 3.5 -1.4 3.7 -0.75 3.4 -0.05 1.1 -0.05 1.05 -0.05 1.25 -0.3 1.45 -0.95 1.25 -1.65 1.05 -1.95 M3.6 -1.95 L5.35 -2.0 5.4 -1.9 Q5.75 -1.95 5.95 -1.5 L6.1 -0.9 6.0 -0.25 6.05 -0.2 3.8 -0.05 3.8 -0.1 4.0 -0.7 3.8 -1.55 3.6 -1.95 M6.0 -2.05 L7.45 -2.2 7.45 -2.15 7.5 -2.0 Q7.7 -2.1 8.05 -1.6 L8.35 -0.9 8.25 -0.5 6.3 -0.2 6.4 -0.95 6.25 -1.75 6.0 -2.05 M7.8 -2.25 L9.3 -2.6 Q9.85 -2.6 9.85 -1.7 9.85 -1.0 8.8 -0.65 L8.6 -0.55 8.65 -0.9 Q8.65 -1.5 8.05 -2.05 L7.8 -2.25 M0.8 -0.05 L-1.4 -0.1 -1.25 -0.4 Q-1.1 -0.85 -1.1 -1.3 L-1.1 -2.1 -0.45 -2.05 0.65 -1.95 0.9 -1.55 1.15 -0.95 0.75 -0.1 0.8 -0.05 M-1.75 -0.15 L-3.3 -0.25 -3.25 -0.35 -3.1 -0.8 Q-2.85 -1.15 -2.85 -1.75 L-2.9 -2.35 -1.5 -2.15 -1.4 -1.35 Q-1.4 -0.9 -1.75 -0.15 M-3.7 -0.3 L-5.0 -0.45 -6.35 -0.7 -6.4 -0.75 -6.0 -1.9 -5.65 -2.45 -5.4 -2.6 -5.15 -2.8 -3.25 -2.45 -3.15 -2.4 -3.2 -2.35 -3.2 -1.3 -3.45 -0.7 -3.7 -0.3 M-6.7 -0.75 L-7.65 -0.9 -8.6 -1.1 -8.4 -2.15 -8.05 -2.75 -7.4 -3.1 -7.35 -3.1 -5.6 -2.85 -6.15 -2.2 -6.7 -0.75 M-8.95 -1.15 L-9.4 -1.25 -9.85 -1.5 Q-10.25 -1.65 -10.25 -1.95 -10.25 -2.6 -9.65 -3.05 L-9.25 -3.35 -9.05 -3.3 -8.65 -3.25 -7.95 -3.2 -8.5 -2.55 -8.95 -1.2 -8.95 -1.15 M7.65 0.1 L9.05 -0.2 9.2 -0.15 9.15 0.0 9.6 0.4 10.0 0.9 9.85 1.25 8.25 1.6 8.3 1.2 8.05 0.45 7.65 0.1 M7.85 1.65 L5.7 1.9 5.85 1.45 5.6 0.55 5.45 0.3 7.45 0.15 7.75 0.65 8.0 1.2 7.85 1.65 M5.4 1.95 L2.65 2.15 2.75 1.55 2.6 0.7 2.45 0.4 5.0 0.35 Q5.55 1.0 5.55 1.4 L5.35 1.85 5.4 1.95 M2.35 2.2 L0.35 2.25 0.35 2.15 0.45 1.55 0.25 0.6 0.15 0.4 0.95 0.4 1.4 0.4 1.85 0.4 1.85 0.5 Q2.15 0.45 2.3 0.9 L2.45 1.5 2.35 2.2 M-0.05 2.25 L-0.55 2.25 -1.85 2.25 Q-1.6 2.0 -1.6 1.55 L-2.05 0.3 -0.25 0.4 0.05 0.8 0.15 1.55 -0.05 2.25 M-2.15 2.25 L-4.4 2.2 -4.25 1.3 -4.3 0.55 Q-4.4 0.15 -4.8 0.25 L-4.55 1.3 -4.7 1.95 -4.8 2.15 -6.45 2.05 -6.35 1.4 -6.45 0.5 -6.6 0.1 Q-6.6 -0.2 -6.95 -0.1 L-6.65 1.35 -6.75 2.05 -8.2 1.85 -8.3 1.65 -8.5 1.1 Q-8.5 0.3 -7.95 -0.35 L-6.6 -0.15 -2.4 0.3 -2.15 0.85 -1.9 1.6 -2.15 2.25 M-8.9 1.65 L-8.95 1.65 Q-9.95 1.3 -9.95 0.35 L-9.8 -0.3 -9.5 -0.5 -9.1 -0.5 -9.05 -0.6 -8.3 -0.45 -8.6 0.1 -8.8 1.15 -8.7 1.7 -8.9 1.65 M7.6 2.2 L7.6 2.25 7.85 2.15 8.25 2.05 8.9 1.95 8.9 2.05 9.3 2.8 Q9.3 3.2 8.7 3.6 L8.2 4.1 Q7.95 4.2 7.65 4.35 L7.65 4.3 7.75 3.7 7.5 2.75 7.1 2.25 7.6 2.2 M7.0 2.25 L6.95 2.3 7.25 2.95 7.45 3.7 7.25 4.5 5.15 4.95 5.35 4.05 5.15 2.95 4.95 2.55 6.5 2.35 7.0 2.25 M2.2 2.7 L4.5 2.55 4.55 2.55 Q5.05 2.9 5.05 4.05 L4.75 5.0 1.85 5.15 -0.25 5.05 -0.05 4.3 -0.45 2.75 1.75 2.75 1.8 2.75 Q2.3 3.0 2.3 4.0 L2.1 4.95 2.15 5.1 2.3 5.1 2.6 4.0 2.4 3.0 2.2 2.7 M-0.8 2.75 L-0.55 3.3 -0.35 4.3 -0.55 5.05 -2.25 4.95 -2.9 4.9 -2.8 4.1 Q-2.8 3.3 -3.35 2.7 L-0.8 2.75 M-3.6 2.7 L-3.6 2.75 -3.3 3.35 -3.1 4.1 -3.3 4.9 -5.05 4.85 Q-5.7 4.35 -5.7 3.25 L-5.55 2.7 -5.5 2.6 -3.6 2.7 M-7.9 4.45 L-7.95 4.45 -9.25 4.25 -9.65 3.85 -9.85 3.3 Q-9.85 2.55 -9.55 2.4 L-9.35 2.35 -8.85 2.4 -8.8 2.2 -8.8 2.15 -7.75 2.35 Q-8.15 2.35 -8.15 3.4 L-7.95 4.2 -7.7 4.55 -7.9 4.45 M-7.7 2.35 L-5.85 2.6 -6.0 3.25 Q-5.95 4.35 -5.55 4.8 L-7.0 4.75 -7.15 4.7 -7.55 4.25 -7.85 3.45 -7.65 2.45 -7.7 2.35" fill="#fdf4f0" fill-rule="evenodd" stroke="none"/>
    <path d="M0.65 -1.95 L0.65 -2.0 1.05 -1.95 1.25 -1.65 1.45 -0.95 1.25 -0.3 1.05 -0.05 0.8 -0.05 0.75 -0.1 1.15 -0.95 0.9 -1.55 0.65 -1.95 M3.25 -1.95 L3.6 -1.95 3.8 -1.55 4.0 -0.7 3.8 -0.1 3.8 -0.05 3.4 -0.05 3.7 -0.75 3.5 -1.4 3.25 -1.95 M5.35 -2.0 L6.0 -2.05 6.25 -1.75 6.4 -0.95 6.3 -0.2 6.05 -0.2 6.0 -0.25 6.1 -0.9 5.95 -1.5 Q5.75 -1.95 5.4 -1.9 L5.35 -2.0 M7.45 -2.2 L7.8 -2.25 8.05 -2.05 Q8.65 -1.5 8.65 -0.9 L8.6 -0.55 8.25 -0.5 8.35 -0.9 8.05 -1.6 Q7.7 -2.1 7.5 -2.0 L7.45 -2.15 7.45 -2.2 M-1.4 -0.1 L-1.75 -0.15 Q-1.4 -0.9 -1.4 -1.35 L-1.5 -2.15 -1.1 -2.1 -1.1 -1.3 Q-1.1 -0.85 -1.25 -0.4 L-1.4 -0.1 M-3.3 -0.25 L-3.7 -0.3 -3.45 -0.7 -3.2 -1.3 -3.2 -2.35 -3.15 -2.4 -2.9 -2.35 -2.85 -1.75 Q-2.85 -1.15 -3.1 -0.8 L-3.25 -0.35 -3.3 -0.25 M-6.35 -0.7 L-6.7 -0.75 -6.15 -2.2 -5.6 -2.85 -5.15 -2.8 -5.4 -2.6 -5.65 -2.45 -6.0 -1.9 -6.4 -0.75 -6.35 -0.7 M-8.6 -1.1 L-8.95 -1.15 -8.95 -1.2 -8.5 -2.55 -7.95 -3.2 -7.35 -3.1 -7.4 -3.1 -8.05 -2.75 -8.4 -2.15 -8.6 -1.1 M8.25 1.6 L7.85 1.65 8.0 1.2 7.75 0.65 7.45 0.15 7.65 0.1 8.05 0.45 8.3 1.2 8.25 1.6 M5.7 1.9 L5.4 1.95 5.35 1.85 5.55 1.4 Q5.55 1.0 5.0 0.35 L5.45 0.3 5.6 0.55 5.85 1.45 5.7 1.9 M2.65 2.15 L2.35 2.2 2.45 1.5 2.3 0.9 Q2.15 0.45 1.85 0.5 L1.85 0.4 2.45 0.4 2.6 0.7 2.75 1.55 2.65 2.15 M0.35 2.25 L-0.05 2.25 0.15 1.55 0.05 0.8 -0.25 0.4 0.15 0.4 0.25 0.6 0.45 1.55 0.35 2.15 0.35 2.25 M-1.85 2.25 L-2.15 2.25 -1.9 1.6 -2.15 0.85 -2.4 0.3 -2.05 0.3 -1.6 1.55 Q-1.6 2.0 -1.85 2.25 M-4.4 2.2 L-4.8 2.15 -4.7 1.95 -4.55 1.3 -4.8 0.25 Q-4.4 0.15 -4.3 0.55 L-4.25 1.3 -4.4 2.2 M-6.45 2.05 L-6.75 2.05 -6.65 1.35 -6.95 -0.1 Q-6.6 -0.2 -6.6 0.1 L-6.45 0.5 -6.35 1.4 -6.45 2.05 M-8.2 1.85 L-8.7 1.75 -8.7 1.7 -8.8 1.15 -8.6 0.1 -8.3 -0.45 -7.95 -0.35 Q-8.5 0.3 -8.5 1.1 L-8.3 1.65 -8.2 1.85 M7.85 2.15 L7.6 2.25 7.6 2.2 7.85 2.15 M7.1 2.25 L7.5 2.75 7.75 3.7 7.65 4.3 7.65 4.35 7.25 4.5 7.45 3.7 7.25 2.95 6.95 2.3 7.0 2.25 7.1 2.25 M4.95 2.55 L5.15 2.95 5.35 4.05 5.15 4.95 4.75 5.0 5.05 4.05 Q5.05 2.9 4.55 2.55 L4.95 2.5 4.95 2.55 M2.2 2.7 L2.4 3.0 2.6 4.0 2.3 5.1 2.15 5.1 2.1 4.95 2.3 4.0 Q2.3 3.0 1.8 2.75 L2.2 2.7 M-0.45 2.75 L-0.05 4.3 -0.25 5.05 -0.55 5.05 -0.35 4.3 -0.55 3.3 -0.8 2.75 -0.6 2.75 -0.45 2.75 M-3.3 4.9 L-3.1 4.1 -3.3 3.35 -3.6 2.75 -3.6 2.7 -3.35 2.7 Q-2.8 3.3 -2.8 4.1 L-2.9 4.9 -3.3 4.9 M-5.5 2.6 L-5.55 2.7 -5.7 3.25 Q-5.7 4.35 -5.05 4.85 L-5.55 4.8 Q-5.95 4.35 -6.0 3.25 L-5.85 2.6 -5.5 2.6 M-7.75 2.35 L-7.7 2.35 -7.65 2.45 -7.85 3.45 -7.55 4.25 -7.15 4.7 -7.7 4.55 -7.95 4.2 -8.15 3.4 Q-8.15 2.35 -7.75 2.35" fill="#e69866" fill-rule="evenodd" stroke="none"/>
    <path d="M1.05 -1.95 L0.65 -2.0 0.65 -1.95 -0.45 -2.05 -1.1 -2.1 -1.5 -2.15 -2.9 -2.35 -3.15 -2.4 -3.25 -2.45 -5.15 -2.8 -5.6 -2.85 -7.35 -3.1 -7.95 -3.2 -8.65 -3.25 -9.05 -3.3 -9.25 -3.35 -9.65 -3.05 Q-10.25 -2.6 -10.25 -1.95 -10.25 -1.65 -9.85 -1.5 L-9.4 -1.25 -8.95 -1.15 -8.6 -1.1 -7.65 -0.9 -6.7 -0.75 -6.35 -0.7 -5.0 -0.45 -3.7 -0.3 -3.3 -0.25 -1.75 -0.15 -1.4 -0.1 0.8 -0.05 1.05 -0.05 1.1 -0.05 3.4 -0.05 3.8 -0.05 6.05 -0.2 6.3 -0.2 8.25 -0.5 8.6 -0.55 8.8 -0.65 Q9.85 -1.0 9.85 -1.7 9.85 -2.6 9.3 -2.6 L7.8 -2.25 7.45 -2.2 6.0 -2.05 5.35 -2.0 3.6 -1.95 3.25 -1.95 2.2 -1.95 1.05 -1.95 M9.3 -3.55 L9.8 -3.6 10.4 -3.35 10.65 -3.15 10.9 -2.0 Q10.9 -0.85 10.4 -0.5 L10.6 -0.25 11.1 1.1 10.75 1.9 10.0 2.45 10.05 3.1 9.9 3.95 8.95 4.85 Q7.65 5.9 -1.1 5.9 L-8.3 5.5 -9.9 5.15 Q-10.7 4.8 -10.7 3.75 L-10.5 2.7 -10.15 2.05 -10.7 1.55 -11.0 0.35 -10.8 -0.7 -10.7 -0.85 -11.1 -1.2 -11.3 -2.1 Q-11.3 -3.05 -10.8 -3.7 -10.25 -4.3 -9.1 -4.2 L-6.15 -3.95 Q-5.8 -3.9 -5.8 -3.6 L-5.8 -3.55 -5.3 -3.45 1.05 -2.95 7.95 -3.25 9.2 -3.55 9.3 -3.55 M8.25 1.6 L9.85 1.25 10.0 0.9 9.6 0.4 9.15 0.0 9.2 -0.15 9.05 -0.2 7.65 0.1 7.45 0.15 5.45 0.3 5.0 0.35 2.45 0.4 1.85 0.4 1.4 0.4 0.95 0.4 0.15 0.4 -0.25 0.4 -2.05 0.3 -2.4 0.3 -6.6 -0.15 -7.95 -0.35 -8.3 -0.45 -9.05 -0.6 -9.1 -0.5 -9.5 -0.5 -9.8 -0.3 -9.95 0.35 Q-9.95 1.3 -8.95 1.65 L-8.9 1.65 -8.7 1.75 -8.2 1.85 -6.75 2.05 -6.45 2.05 -4.8 2.15 -4.4 2.2 -2.15 2.25 -1.85 2.25 -0.55 2.25 -0.05 2.25 0.35 2.25 2.35 2.2 2.65 2.15 5.4 1.95 5.7 1.9 7.85 1.65 8.25 1.6 M7.6 2.2 L7.1 2.25 7.0 2.25 6.5 2.35 4.95 2.5 4.55 2.55 4.5 2.55 2.2 2.7 1.8 2.75 1.75 2.75 -0.45 2.75 -0.6 2.75 -0.8 2.75 -3.35 2.7 -3.6 2.7 -5.5 2.6 -5.85 2.6 -7.7 2.35 -7.75 2.35 -8.8 2.15 -8.8 2.2 -8.85 2.4 -9.35 2.35 -9.55 2.4 Q-9.85 2.55 -9.85 3.3 L-9.65 3.85 -9.25 4.25 -7.95 4.45 -7.9 4.45 -7.7 4.55 -7.15 4.7 -7.0 4.75 -5.55 4.8 -5.05 4.85 -3.3 4.9 -2.9 4.9 -2.25 4.95 -0.55 5.05 -0.25 5.05 1.85 5.15 4.75 5.0 5.15 4.95 7.25 4.5 7.65 4.35 Q7.95 4.2 8.2 4.1 L8.7 3.6 Q9.3 3.2 9.3 2.8 L8.9 2.05 8.9 1.95 8.25 2.05 7.85 2.15 7.6 2.2 M9.2 1.9 L9.5 1.85 9.45 1.8 9.2 1.85 9.2 1.9" fill="#b76138" fill-rule="evenodd" stroke="none"/>
  </g>
</svg>
