<?xml version="1.0" encoding="UTF-8" standalone="no"?>
<svg xmlns:ffdec="https://www.free-decompiler.com/flash" xmlns:xlink="http://www.w3.org/1999/xlink" ffdec:objectType="shape" height="3.25px" width="5.2px" xmlns="http://www.w3.org/2000/svg">
  <g transform="matrix(1.0, 0.0, 0.0, 1.0, 1.95, 2.3)">
    <path d="M1.95 0.55 L2.4 0.5 2.7 0.5 2.8 0.6 2.2 0.85 2.1 0.85 0.6 0.95 -1.25 0.8 -1.7 0.55 -1.8 0.55 -1.95 0.45 -1.85 0.05 -1.7 -0.2 -1.0 -1.05 -0.3 -1.45 0.25 -2.05 0.7 -2.2 0.7 -2.25 0.8 -2.2 1.1 -2.25 1.7 -2.2 2.2 -2.3 Q2.7 -2.3 2.9 -1.85 L2.9 -1.45 2.9 -1.4 3.25 -0.75 3.1 -0.7 2.8 -1.1 2.7 -1.2 Q2.3 -1.7 1.5 -1.7 0.35 -1.7 -0.6 -1.05 L-1.55 0.0 -1.55 0.05 -1.6 0.4 -1.55 0.4 0.55 0.65 1.85 0.55 1.95 0.55" fill="#cc3300" fill-rule="evenodd" stroke="none"/>
    <path d="M2.8 -1.1 L2.6 -0.25 1.9 -0.35 1.05 -0.4 -1.55 0.0 -0.6 -1.05 Q0.35 -1.7 1.5 -1.7 2.3 -1.7 2.7 -1.2 L2.8 -1.1" fill="#ffffff" fill-rule="evenodd" stroke="none"/>
    <path d="M1.9 -0.35 L1.85 -0.05 1.95 0.55 1.85 0.55 0.55 0.65 -1.55 0.4 -1.6 0.4 -1.55 0.05 -1.55 0.0 1.05 -0.4 1.9 -0.35" fill="#3c0c00" fill-rule="evenodd" stroke="none"/>
  </g>
</svg>
