<?xml version="1.0" encoding="UTF-8" standalone="no"?>
<svg xmlns:ffdec="https://www.free-decompiler.com/flash" xmlns:xlink="http://www.w3.org/1999/xlink" ffdec:objectType="shape" height="56.6px" width="47.25px" xmlns="http://www.w3.org/2000/svg">
  <g transform="matrix(1.0, 0.0, 0.0, 1.0, 27.0, 23.85)">
    <path d="M16.95 -15.0 L17.9 -13.3 18.6 -11.95 19.1 -10.4 20.2 -5.9 20.25 -4.75 Q20.25 -3.0 19.85 -1.25 L18.95 2.7 18.9 2.9 18.8 3.1 18.7 3.65 18.45 3.65 18.25 4.65 16.9 9.7 16.9 9.75 16.1 12.25 15.95 12.4 15.85 12.95 15.45 13.65 15.35 13.9 15.05 15.55 14.85 17.6 14.85 18.9 15.0 21.7 15.0 21.8 Q15.95 24.25 18.2 24.95 L18.5 25.05 19.35 25.2 19.1 25.4 19.15 25.95 16.65 28.3 16.2 28.75 15.95 28.85 14.55 29.35 Q11.7 30.9 8.35 31.55 L1.85 32.5 1.8 32.3 0.15 32.3 -5.85 32.75 -7.4 32.75 -11.15 32.05 -11.2 31.95 -11.3 31.95 Q-15.8 30.95 -19.35 29.15 -25.35 26.05 -25.35 23.1 L-25.3 22.85 Q-24.85 23.35 -24.0 23.35 L-22.9 23.2 Q-21.8 23.1 -21.3 22.15 L-21.15 21.95 Q-20.6 21.25 -20.6 20.6 -20.6 19.95 -20.9 19.5 L-21.05 18.95 Q-21.25 17.15 -22.15 14.15 L-24.3 8.6 Q-25.55 5.5 -26.05 2.6 -27.0 -0.8 -27.0 -2.7 L-26.7 -6.65 -26.55 -7.1 -26.45 -8.15 -26.3 -8.7 -26.1 -9.35 -25.55 -11.0 -22.9 -15.75 -22.8 -16.0 Q-21.3 -17.8 -19.35 -19.2 L-16.2 -20.95 -14.9 -21.55 Q-10.35 -23.35 -4.05 -23.7 L-3.2 -23.85 Q1.4 -23.7 5.55 -22.4 12.75 -20.2 16.95 -15.0 M-19.75 16.35 L-19.5 17.25 Q-19.15 18.35 -19.15 18.7 L-19.2 20.35 -19.1 20.65 -19.7 22.05 -19.85 22.6 -20.65 23.85 -20.85 23.95 -22.25 24.55 -22.45 24.65 -22.15 25.25 -21.75 26.15 -19.1 27.5 -14.35 29.55 -11.5 30.4 -11.25 30.3 -8.6 30.6 -4.65 30.9 -2.0 31.05 6.85 30.35 9.25 29.9 10.15 29.45 10.75 29.15 11.95 28.95 13.4 28.15 16.15 25.95 Q15.55 25.8 15.1 25.45 L14.6 25.0 Q14.15 24.5 13.85 23.75 L13.35 22.0 13.4 21.7 13.45 21.2 Q13.15 20.05 13.15 18.7 13.15 16.05 14.35 11.75 L16.2 5.0 16.45 3.65 17.0 0.3 17.1 -0.3 Q17.85 -2.1 17.85 -3.35 L17.85 -3.95 18.15 -6.45 18.05 -7.25 Q17.45 -13.8 10.65 -17.9 8.35 -19.25 6.3 -20.05 L5.35 -20.5 Q1.8 -22.1 -2.9 -22.1 -10.6 -22.1 -16.5 -18.25 L-17.05 -18.0 -17.4 -17.85 -17.95 -17.45 -20.1 -15.55 -20.45 -15.25 -20.55 -15.2 -20.95 -14.9 -21.4 -14.25 -23.5 -10.4 -24.0 -8.35 -24.35 -5.95 -24.8 -2.3 Q-24.8 -1.2 -24.2 1.2 -23.65 3.6 -23.65 4.35 L-22.4 7.95 Q-20.6 12.85 -19.9 16.4 L-19.85 16.5 -19.75 17.2 -19.75 16.35 M-8.25 29.5 L-8.25 29.45 -8.25 29.5" fill="#000000" fill-rule="evenodd" stroke="none"/>
    <path d="M-19.9 16.4 Q-20.6 12.85 -22.4 7.95 L-23.65 4.35 Q-23.65 3.6 -24.2 1.2 -24.8 -1.2 -24.8 -2.3 L-24.35 -5.95 -24.0 -8.35 -23.5 -10.4 -21.4 -14.25 -20.95 -14.9 -20.55 -15.2 -20.45 -15.25 -20.1 -15.55 -17.95 -17.45 -17.4 -17.85 -17.05 -18.0 -16.5 -18.25 Q-10.6 -22.1 -2.9 -22.1 1.8 -22.1 5.35 -20.5 L6.3 -20.05 Q8.35 -19.25 10.65 -17.9 17.45 -13.8 18.05 -7.25 L18.15 -6.45 17.85 -3.95 17.85 -3.35 Q17.85 -2.1 17.1 -0.3 L17.0 0.3 16.45 3.65 16.2 5.0 14.35 11.75 Q13.15 16.05 13.15 18.7 13.15 20.05 13.45 21.2 L13.4 21.7 13.35 22.0 13.85 23.75 Q14.15 24.5 14.6 25.0 L15.1 25.45 Q15.55 25.8 16.15 25.95 L13.4 28.15 11.95 28.95 10.75 29.15 10.15 29.45 9.25 29.9 6.85 30.35 -2.0 31.05 -4.65 30.9 -8.6 30.6 -11.25 30.3 -11.5 30.4 -14.35 29.55 -19.1 27.5 -21.75 26.15 -22.15 25.25 -22.45 24.65 -22.25 24.55 -20.85 23.95 -20.65 23.85 -19.85 22.6 -19.7 22.05 -19.1 20.65 -19.2 20.35 -19.15 18.7 Q-19.15 18.35 -19.5 17.25 L-19.75 16.35 -19.9 16.4 M-15.3 -11.4 Q-10.4 -17.65 -8.1 -19.35 -14.85 -17.65 -18.85 -13.45 -23.35 -8.75 -23.35 -1.9 L-23.2 0.3 Q-23.2 2.85 -20.9 7.7 L-18.95 11.5 -19.7 9.6 Q-20.5 7.25 -20.5 5.45 -20.5 1.25 -19.2 -3.25 -17.75 -8.15 -15.3 -11.4 M-9.65 3.05 L-9.7 3.05 -9.7 3.15 -9.65 3.05 M-8.25 29.5 L-8.25 29.45 -8.25 29.5" fill="#b10148" fill-rule="evenodd" stroke="none"/>
    <path d="M-15.3 -11.4 Q-17.75 -8.15 -19.2 -3.25 -20.5 1.25 -20.5 5.45 -20.5 7.25 -19.7 9.6 L-18.95 11.5 -20.9 7.7 Q-23.2 2.85 -23.2 0.3 L-23.35 -1.9 Q-23.35 -8.75 -18.85 -13.45 -14.85 -17.65 -8.1 -19.35 -10.4 -17.65 -15.3 -11.4" fill="#fd0267" fill-rule="evenodd" stroke="none"/>
    <path d="M-19.85 16.5 L-19.9 16.4 -19.75 16.35 -19.85 16.5 M-9.65 3.05 L-9.7 3.15 -9.7 3.05 -9.65 3.05" fill="#01013a" fill-rule="evenodd" stroke="none"/>
  </g>
</svg>
