<?xml version="1.0" encoding="UTF-8" standalone="no"?>
<svg xmlns:ffdec="https://www.free-decompiler.com/flash" xmlns:xlink="http://www.w3.org/1999/xlink" ffdec:objectType="shape" height="55.85px" width="47.25px" xmlns="http://www.w3.org/2000/svg">
  <g transform="matrix(1.0, 0.0, 0.0, 1.0, 27.0, 23.85)">
    <path d="M10.65 0.4 Q8.75 -0.2 6.3 -1.9 4.3 -3.3 3.45 -4.15 L3.05 -4.65 2.05 -4.05 1.05 -3.6 -1.85 -2.4 -4.3 -1.6 -6.85 -0.7 -7.0 -0.75 -7.7 -0.5 -7.8 -0.4 -8.0 0.2 -8.0 0.25 -8.15 0.75 Q-8.65 2.3 -8.7 6.05 -8.65 9.7 -8.1 10.9 L-7.95 12.2 -7.5 15.0 Q-7.05 17.0 -6.65 20.3 -6.3 23.4 -6.25 25.45 L-6.25 25.95 -6.35 26.85 -6.3 26.95 -6.35 27.1 -6.55 28.2 -7.55 30.4 -7.55 30.45 Q-8.55 31.9 -9.35 31.9 L-9.6 31.9 -10.85 32.0 -11.3 31.95 Q-15.8 30.95 -19.35 29.15 -25.35 26.05 -25.35 23.1 L-25.3 22.85 Q-24.85 23.35 -24.0 23.35 L-22.9 23.2 Q-21.8 23.1 -21.3 22.15 L-21.15 21.95 Q-20.6 21.25 -20.6 20.6 -20.6 19.95 -20.9 19.5 L-21.05 18.95 Q-21.25 17.15 -22.15 14.15 L-24.3 8.6 Q-25.55 5.5 -26.05 2.6 -27.0 -0.8 -27.0 -2.7 L-26.7 -6.65 -26.55 -7.1 -26.45 -8.15 -26.3 -8.7 -26.1 -9.35 -25.55 -11.0 -22.9 -15.75 -22.8 -16.0 Q-21.3 -17.8 -19.35 -19.2 L-16.2 -20.95 -14.9 -21.55 Q-10.35 -23.35 -4.05 -23.7 L-3.2 -23.85 Q1.4 -23.7 5.55 -22.4 12.75 -20.2 16.95 -15.0 L17.9 -13.3 18.6 -11.95 19.1 -10.4 20.2 -5.9 20.25 -4.75 Q20.25 -3.0 19.85 -1.25 L18.95 2.7 18.9 2.9 18.8 3.1 18.7 3.65 16.7 3.65 18.15 -6.45 18.05 -7.25 Q17.45 -13.8 10.65 -17.9 8.35 -19.25 6.3 -20.05 L5.35 -20.5 Q1.8 -22.1 -2.9 -22.1 -10.6 -22.1 -16.5 -18.25 L-17.05 -18.0 -17.4 -17.85 -17.95 -17.45 -20.1 -15.55 -20.45 -15.25 -20.55 -15.2 -20.95 -14.9 -21.4 -14.25 -23.5 -10.4 -24.0 -8.35 -24.35 -5.95 -24.8 -2.3 Q-24.8 -1.2 -24.2 1.2 -23.65 3.6 -23.65 4.35 L-22.4 7.95 Q-20.6 12.85 -19.9 16.4 L-19.85 16.5 -19.75 17.2 -19.75 16.35 -19.5 17.25 Q-19.15 18.35 -19.15 18.7 L-19.2 20.35 -19.1 20.65 -19.7 22.05 -19.85 22.6 -20.65 23.85 -20.85 23.95 -22.25 24.55 -22.45 24.65 -22.15 25.25 -21.75 26.15 -19.1 27.5 -14.35 29.55 -9.85 30.75 -9.85 30.9 -9.55 30.9 -9.35 30.7 Q-8.35 29.75 -7.65 28.15 L-7.25 26.85 -7.25 26.7 -7.25 26.45 -7.15 26.3 -7.15 26.25 -7.05 25.75 -7.05 25.45 Q-7.15 21.95 -8.15 15.7 -9.3 8.75 -9.3 6.7 L-8.95 2.3 -8.5 -0.15 -8.5 -0.25 -10.6 0.15 -10.85 -0.1 -8.95 -0.85 -8.3 -1.0 -5.1 -1.95 -0.15 -3.85 0.45 -4.05 2.7 -5.2 2.85 -5.3 4.4 -6.5 5.4 -7.55 6.5 -8.75 7.3 -9.65 7.45 -9.35 Q7.45 -8.85 6.35 -7.7 L4.95 -6.25 4.05 -5.3 3.5 -4.95 4.3 -4.35 4.95 -3.75 Q6.35 -2.5 7.25 -2.1 8.5 -1.35 9.8 -0.85 L13.25 0.35 12.4 0.65 10.65 0.4" fill="#000000" fill-rule="evenodd" stroke="none"/>
    <path d="M10.65 0.4 L12.4 0.65 13.25 0.35 9.8 -0.85 Q8.5 -1.35 7.25 -2.1 6.35 -2.5 4.95 -3.75 L4.3 -4.35 3.5 -4.95 4.05 -5.3 4.95 -6.25 6.35 -7.7 Q7.45 -8.85 7.45 -9.35 L7.3 -9.65 6.5 -8.75 5.4 -7.55 4.4 -6.5 2.85 -5.3 Q-2.0 -5.3 -9.2 -7.7 -17.1 -10.35 -21.4 -14.25 L-20.95 -14.9 -20.55 -15.2 -20.45 -15.25 -20.1 -15.55 -17.95 -17.45 -17.4 -17.85 -17.05 -18.0 -16.5 -18.25 Q-10.6 -22.1 -2.9 -22.1 1.8 -22.1 5.35 -20.5 L6.3 -20.05 Q8.35 -19.25 10.65 -17.9 17.45 -13.8 18.05 -7.25 L18.15 -6.45 16.7 3.65 10.65 0.4 M0.45 -4.05 L-0.15 -3.85 -5.1 -1.95 -8.3 -1.0 -8.95 -0.85 -10.85 -0.1 -10.6 0.15 -8.5 -0.25 -8.5 -0.15 -8.95 2.3 -9.3 6.7 Q-9.3 8.75 -8.15 15.7 -7.15 21.95 -7.05 25.45 L-7.05 25.75 -7.15 26.25 -7.15 26.3 -7.25 26.45 -7.25 26.7 -7.25 26.85 -7.65 28.15 Q-8.35 29.75 -9.35 30.7 L-9.55 30.9 -9.85 30.9 -9.85 30.75 -14.35 29.55 -19.1 27.5 -21.75 26.15 -22.15 25.25 -22.45 24.65 -22.25 24.55 -20.85 23.95 -20.65 23.85 -19.85 22.6 -19.7 22.05 -19.1 20.65 -19.2 20.35 -19.15 18.7 Q-19.15 18.35 -19.5 17.25 L-19.75 16.35 -19.9 16.4 Q-20.6 12.85 -22.4 7.95 L-23.65 4.35 Q-23.65 3.6 -24.2 1.2 -24.8 -1.2 -24.8 -2.3 L-24.35 -5.95 -24.0 -8.35 Q-20.85 -7.1 -15.2 -5.75 -6.5 -3.7 -2.55 -3.85 L-1.15 -4.05 0.45 -4.05 M-9.65 3.05 L-9.7 3.05 -9.7 3.15 -9.65 3.05" fill="#b10148" fill-rule="evenodd" stroke="none"/>
    <path d="M2.85 -5.3 L2.7 -5.2 0.45 -4.05 -1.15 -4.05 -2.55 -3.85 Q-6.5 -3.7 -15.2 -5.75 -20.85 -7.1 -24.0 -8.35 L-23.5 -10.4 -21.4 -14.25 Q-17.1 -10.35 -9.2 -7.7 -2.0 -5.3 2.85 -5.3" fill="#fd0267" fill-rule="evenodd" stroke="none"/>
    <path d="M-19.85 16.5 L-19.9 16.4 -19.75 16.35 -19.85 16.5 M-9.65 3.05 L-9.7 3.15 -9.7 3.05 -9.65 3.05" fill="#01013a" fill-rule="evenodd" stroke="none"/>
  </g>
</svg>
