<?xml version="1.0" encoding="UTF-8" standalone="no"?>
<svg xmlns:ffdec="https://www.free-decompiler.com/flash" xmlns:xlink="http://www.w3.org/1999/xlink" ffdec:objectType="shape" height="29.5px" width="60.8px" xmlns="http://www.w3.org/2000/svg">
  <g transform="matrix(1.0, 0.0, 0.0, 1.0, 31.05, 6.55)">
    <path d="M13.75 -1.85 L16.95 -2.15 Q18.7 -2.15 19.2 -1.5 19.5 -1.2 19.4 -0.9 19.4 0.3 16.95 1.1 14.5 1.9 9.1 2.45 L8.7 2.65 9.7 3.75 9.95 4.7 Q9.95 5.65 9.3 5.95 8.05 6.55 3.85 6.55 L0.25 6.2 -1.4 5.9 Q-3.15 5.9 -3.6 6.65 -4.0 7.35 -5.8 7.35 -7.75 7.35 -9.55 6.55 L-11.15 5.75 Q-12.85 5.75 -14.2 6.85 -15.6 7.9 -17.05 7.9 -19.0 7.9 -19.35 6.9 L-19.4 5.8 Q-19.4 4.35 -21.5 4.2 L-23.75 4.35 Q-27.35 4.35 -27.35 2.7 -27.35 1.35 -20.25 0.0 L-1.2 -2.65 Q-0.1 -2.75 10.9 -5.7 18.0 -7.6 18.0 -5.3 18.0 -4.3 16.75 -3.5 L13.9 -2.0 13.75 -1.85 M17.15 -0.7 L17.2 -0.65 17.5 -0.75 17.15 -0.7 M28.5 21.05 Q27.15 21.05 24.35 18.75 L21.9 16.65 Q21.9 14.3 25.85 16.5 29.75 18.7 29.75 20.1 29.75 21.05 28.5 21.05 M-19.8 17.15 L-19.85 19.85 Q-20.2 22.1 -21.45 22.1 -22.3 22.1 -22.45 21.3 L-22.4 20.4 -22.3 17.65 Q-21.85 15.05 -20.25 14.9 -19.8 15.95 -19.8 17.15 M-31.05 22.0 Q-31.05 20.95 -29.4 21.3 L-29.3 21.4 -29.25 21.95 -29.4 22.8 -29.55 22.9 -30.15 22.95 -30.95 22.8 -31.05 22.0" fill="#000000" fill-opacity="0.43137255" fill-rule="evenodd" stroke="none"/>
  </g>
</svg>
