<?xml version="1.0" encoding="UTF-8" standalone="no"?>
<svg xmlns:ffdec="https://www.free-decompiler.com/flash" xmlns:xlink="http://www.w3.org/1999/xlink" ffdec:objectType="shape" height="8.25px" width="6.7px" xmlns="http://www.w3.org/2000/svg">
  <g transform="matrix(1.0, 0.0, 0.0, 1.0, 4.85, 4.2)">
    <path d="M1.3 -0.85 L1.85 -0.35 Q1.85 0.1 1.45 0.1 0.75 0.1 -0.5 -0.7 L-1.75 -1.65 -2.55 -2.7 -3.15 -3.75 Q-3.15 -4.75 -2.1 -3.45 L-1.15 -2.3 0.35 -1.25 Q0.45 -1.2 1.3 -0.85 M1.0 1.5 Q0.85 1.65 0.85 1.95 1.1 3.05 1.6 3.3 L1.2 3.35 0.6 3.25 0.45 2.8 0.2 2.4 -0.3 2.55 -0.3 2.65 0.1 3.6 Q0.1 4.0 -0.25 4.0 -0.65 4.0 -0.95 2.65 L-1.15 2.65 -1.9 2.6 -1.9 3.1 Q-1.9 3.95 -2.15 3.95 -2.6 3.95 -2.5 3.4 L-2.4 2.8 -2.3 2.5 -3.15 2.25 -3.35 3.1 Q-3.55 4.05 -3.75 4.05 -4.1 4.05 -4.1 3.6 L-3.95 2.95 -3.8 2.45 -3.55 2.0 Q-4.55 1.45 -4.55 0.7 L-4.5 0.5 -3.65 1.1 -1.55 1.75 -0.4 1.55 -0.2 1.4 0.2 1.05 Q0.3 0.95 0.45 0.95 1.0 0.95 1.0 1.45 L1.0 1.5 M-4.85 0.25 L-4.75 0.15 -4.75 0.4 -4.85 0.25" fill="#036358" fill-rule="evenodd" stroke="none"/>
  </g>
</svg>
