<?xml version="1.0" encoding="UTF-8" standalone="no"?>
<svg xmlns:ffdec="https://www.free-decompiler.com/flash" xmlns:xlink="http://www.w3.org/1999/xlink" ffdec:objectType="shape" height="8.5px" width="10.4px" xmlns="http://www.w3.org/2000/svg">
  <g transform="matrix(1.0, 0.0, 0.0, 1.0, 5.2, 4.3)">
    <path d="M1.1 -3.65 L1.45 -3.2 1.55 -3.0 1.15 -3.55 1.1 -3.65" fill="#ebb852" fill-rule="evenodd" stroke="none"/>
    <path d="M1.5 -1.45 L1.5 -1.15 1.6 -1.15 2.0 -0.25 2.1 0.3 2.1 0.35 1.85 0.3 2.1 1.0 1.7 2.1 Q0.7 3.9 -1.55 3.8 -3.6 3.65 -4.4 1.9 L-4.75 -0.2 -4.6 -0.65 -4.6 -0.8 -3.9 -2.0 Q-2.9 -3.05 -1.2 -3.0 0.6 -2.95 1.5 -1.45" fill="#ffffff" fill-rule="evenodd" stroke="none"/>
    <path d="M-3.25 -2.75 L-2.15 -3.2 Q-1.2 -3.15 -0.4 -2.35 0.4 -1.55 0.4 -0.35 0.4 0.85 -0.4 1.75 -1.3 2.5 -2.5 2.5 -3.7 2.5 -4.45 1.75 L-4.9 1.2 -4.95 0.95 -4.7 -1.25 -4.55 -1.75 -3.25 -2.75" fill="#0099cc" fill-rule="evenodd" stroke="none"/>
    <path d="M-2.2 -1.6 Q-1.65 -1.6 -1.2 -1.2 -0.85 -0.85 -0.85 -0.3 -0.85 0.25 -1.2 0.65 L-2.2 1.0 Q-2.7 1.0 -3.1 0.65 -3.5 0.25 -3.5 -0.3 -3.5 -0.85 -3.1 -1.2 -2.7 -1.6 -2.2 -1.6" fill="#033fc9" fill-rule="evenodd" stroke="none"/>
    <path d="M0.05 -4.15 L1.15 -3.55 1.55 -3.0 2.05 -2.45 2.5 -1.3 2.5 -1.15 3.7 -1.4 5.15 -1.55 5.2 -1.55 5.05 -1.3 5.0 -1.25 4.7 -1.1 Q4.3 -0.6 2.6 0.55 L2.6 0.65 2.6 1.2 2.15 2.4 2.15 2.35 2.2 2.15 2.1 2.35 2.0 2.5 Q0.9 4.3 -1.55 4.2 -3.9 4.1 -4.8 2.05 -5.3 0.95 -5.2 -0.2 -5.1 -2.15 -3.8 -3.35 -3.0 -4.0 -2.15 -4.25 L-1.1 -4.3 0.05 -4.15 M1.5 -1.45 Q0.6 -2.95 -1.2 -3.0 -2.9 -3.05 -3.9 -2.0 L-4.6 -0.8 -4.6 -0.65 -4.75 -0.2 -4.4 1.9 Q-3.6 3.65 -1.55 3.8 0.7 3.9 1.7 2.1 L2.1 1.0 1.85 0.3 2.1 0.35 2.1 0.3 2.0 -0.25 1.6 -1.15 1.5 -1.15 1.5 -1.45" fill="#000000" fill-rule="evenodd" stroke="none"/>
  </g>
</svg>
