<?xml version="1.0" encoding="UTF-8" standalone="no"?>
<svg xmlns:ffdec="https://www.free-decompiler.com/flash" xmlns:xlink="http://www.w3.org/1999/xlink" ffdec:objectType="shape" height="32.6px" width="180.1px" xmlns="http://www.w3.org/2000/svg">
  <g transform="matrix(1.0, 0.0, 0.0, 1.0, 87.05, 15.05)">
    <path d="M75.3 -13.6 L76.1 -13.7 87.05 -13.3 87.6 -13.2 87.8 -12.9 88.1 -12.65 89.4 -10.9 Q91.55 -8.0 91.55 -7.55 L91.55 -7.2 91.55 -7.1 91.65 -6.45 92.0 -5.85 92.1 -5.7 92.55 -4.55 92.55 -4.3 92.55 -3.95 92.85 -1.55 93.0 3.0 92.9 3.6 93.0 3.85 93.05 4.15 Q92.3 9.6 91.55 11.1 L91.0 12.15 88.7 16.35 Q88.6 16.9 88.1 17.05 L88.0 17.05 87.9 17.05 76.5 17.5 74.6 17.5 73.95 17.55 Q69.1 17.55 67.05 9.85 66.05 6.0 66.0 1.9 66.0 -1.6 67.05 -5.95 67.55 -7.8 68.55 -9.95 L69.65 -11.25 Q69.65 -12.35 71.25 -13.0 71.5 -13.7 73.1 -13.7 L75.3 -13.6 M89.95 -5.8 L89.95 -6.1 89.4 -7.6 89.4 -7.7 87.9 -9.55 86.65 -11.1 86.35 -11.6 86.3 -11.6 85.7 -11.6 81.1 -11.8 79.2 -11.95 77.35 -12.05 77.55 -11.85 74.7 -11.65 74.15 -11.8 73.8 -11.75 73.45 -11.75 73.3 -11.75 Q72.3 -11.65 71.65 -11.15 69.35 -8.85 68.55 -4.85 67.65 -0.1 67.65 1.9 67.8 5.55 68.65 9.0 70.25 15.6 73.6 15.85 L73.85 15.85 74.4 15.8 78.25 15.7 78.3 15.7 79.75 15.65 81.35 15.6 83.0 15.45 84.6 15.2 87.55 15.1 87.85 14.6 88.95 12.85 89.25 12.05 89.6 11.35 89.65 11.35 89.6 10.75 89.8 9.45 90.35 9.55 90.95 6.4 91.35 4.35 91.5 3.9 91.5 3.85 Q91.05 3.5 91.0 2.5 L91.2 0.1 90.9 -4.0 90.9 -4.15 90.1 -5.7 90.1 -5.75 89.95 -5.7 89.95 -5.8" fill="#2b1710" fill-rule="evenodd" stroke="none"/>
    <path d="M74.7 -11.65 L77.55 -11.85 77.35 -12.05 79.2 -11.95 81.1 -11.8 85.7 -11.6 86.3 -11.6 86.35 -11.6 86.65 -11.1 87.9 -9.55 89.4 -7.7 89.4 -7.6 89.95 -6.1 89.95 -5.8 80.45 -5.95 78.8 -5.75 78.75 -5.95 77.35 -8.9 Q76.0 -11.15 74.7 -11.65" fill="#b76f40" fill-rule="evenodd" stroke="none"/>
    <path d="M74.7 -11.65 Q76.0 -11.15 77.35 -8.9 L78.75 -5.95 78.8 -5.75 79.05 -3.95 Q79.05 -2.1 79.55 4.15 L79.55 4.3 79.55 4.4 78.6 10.15 77.6 13.2 76.85 14.55 76.3 14.9 74.4 15.8 73.85 15.85 73.6 15.85 Q70.25 15.6 68.65 9.0 67.8 5.55 67.65 1.9 67.65 -0.1 68.55 -4.85 69.35 -8.85 71.65 -11.15 72.3 -11.65 73.3 -11.75 L73.45 -11.75 73.8 -11.75 74.15 -11.8 74.7 -11.65" fill="#7a4a2a" fill-rule="evenodd" stroke="none"/>
    <path d="M78.8 -5.75 L80.45 -5.95 89.95 -5.8 89.95 -5.7 90.1 -5.75 90.1 -5.7 90.9 -4.15 90.9 -4.0 91.2 0.1 91.0 2.5 Q91.05 3.5 91.5 3.85 L91.5 3.9 79.55 4.4 79.55 4.3 79.55 4.15 Q79.05 -2.1 79.05 -3.95 L78.8 -5.75" fill="#a46439" fill-rule="evenodd" stroke="none"/>
    <path d="M91.5 3.9 L91.35 4.35 90.95 6.4 90.35 9.55 89.8 9.45 89.6 10.75 89.65 11.35 89.6 11.35 89.25 12.05 88.95 12.85 87.85 14.6 87.55 15.1 84.6 15.2 83.0 15.45 81.35 15.6 79.75 15.65 78.3 15.7 78.3 15.6 78.25 15.7 74.4 15.8 76.3 14.9 76.85 14.55 77.6 13.2 78.6 10.15 79.55 4.4 91.5 3.9" fill="#8b5430" fill-rule="evenodd" stroke="none"/>
    <path d="M-81.8 -14.25 L-81.6 -14.55 -81.05 -14.65 -70.1 -15.05 -69.3 -14.95 -67.1 -15.05 Q-65.5 -15.05 -65.25 -14.35 -63.65 -13.7 -63.65 -12.6 L-62.55 -11.3 Q-61.55 -9.15 -61.05 -7.3 -60.0 -2.95 -60.0 0.55 -60.05 4.65 -61.05 8.5 -63.1 16.2 -67.95 16.2 L-68.6 16.15 -70.5 16.15 -81.9 15.7 -82.0 15.7 -82.1 15.7 Q-82.6 15.55 -82.7 15.0 L-85.0 10.8 -85.55 9.75 Q-86.3 8.25 -87.05 2.8 L-87.0 2.5 -86.9 2.25 -87.0 1.65 -86.85 -2.9 -86.55 -5.3 -86.55 -5.65 -86.55 -5.9 -86.1 -7.05 -86.0 -7.2 -85.65 -7.8 -85.55 -8.45 -85.55 -8.55 -85.55 -8.9 Q-85.55 -9.35 -83.4 -12.25 L-82.1 -14.0 -81.8 -14.25 M-68.7 -13.0 L-71.55 -13.2 -71.35 -13.4 -73.2 -13.3 -75.1 -13.15 -79.7 -12.95 -80.3 -12.95 -80.35 -12.95 -80.65 -12.45 -81.9 -10.9 -83.4 -9.05 -83.4 -8.95 -83.95 -7.45 -83.95 -7.15 -83.95 -7.05 -84.1 -7.1 -84.1 -7.05 -84.9 -5.5 -84.9 -5.35 -85.2 -1.25 -85.0 1.15 Q-85.05 2.15 -85.5 2.5 L-85.5 2.55 -85.35 3.0 -84.95 5.05 -84.35 8.2 -83.8 8.1 -83.6 9.4 -83.65 10.0 -83.6 10.0 -83.25 10.7 -82.95 11.5 -81.85 13.25 -81.55 13.75 -78.6 13.85 -77.0 14.1 -75.35 14.25 -73.75 14.3 -72.3 14.35 -72.25 14.35 -68.4 14.45 -67.85 14.5 -67.6 14.5 Q-64.25 14.25 -62.65 7.65 -61.8 4.2 -61.65 0.55 -61.65 -1.45 -62.55 -6.2 -63.35 -10.2 -65.65 -12.5 -66.3 -13.0 -67.3 -13.1 L-67.45 -13.1 -67.8 -13.1 -68.15 -13.15 -68.7 -13.0" fill="#2b1710" fill-rule="evenodd" stroke="none"/>
    <path d="M-85.5 2.55 L-85.5 2.5 Q-85.05 2.15 -85.0 1.15 L-85.2 -1.25 -84.9 -5.35 -84.9 -5.5 -84.1 -7.05 -84.1 -7.1 -83.95 -7.05 -83.95 -7.15 -74.45 -7.3 -72.8 -7.1 -73.05 -5.3 Q-73.05 -3.45 -73.55 2.8 L-73.55 2.95 -73.55 3.05 -85.5 2.55" fill="#a46439" fill-rule="evenodd" stroke="none"/>
    <path d="M-83.95 -7.15 L-83.95 -7.45 -83.4 -8.95 -83.4 -9.05 -81.9 -10.9 -80.65 -12.45 -80.35 -12.95 -80.3 -12.95 -79.7 -12.95 -75.1 -13.15 -73.2 -13.3 -71.35 -13.4 -71.55 -13.2 -68.7 -13.0 Q-70.0 -12.5 -71.35 -10.25 L-72.75 -7.3 -72.8 -7.1 -74.45 -7.3 -83.95 -7.15" fill="#b76f40" fill-rule="evenodd" stroke="none"/>
    <path d="M-68.7 -13.0 L-68.15 -13.15 -67.8 -13.1 -67.45 -13.1 -67.3 -13.1 Q-66.3 -13.0 -65.65 -12.5 -63.35 -10.2 -62.55 -6.2 -61.65 -1.45 -61.65 0.55 -61.8 4.2 -62.65 7.65 -64.25 14.25 -67.6 14.5 L-67.85 14.5 -68.4 14.45 -70.3 13.55 -70.85 13.2 -71.6 11.85 -72.6 8.8 -73.55 3.05 -73.55 2.95 -73.55 2.8 Q-73.05 -3.45 -73.05 -5.3 L-72.8 -7.1 -72.75 -7.3 -71.35 -10.25 Q-70.0 -12.5 -68.7 -13.0" fill="#7a4a2a" fill-rule="evenodd" stroke="none"/>
    <path d="M-68.4 14.45 L-72.25 14.35 -72.3 14.25 -72.3 14.35 -73.75 14.3 -75.35 14.25 -77.0 14.1 -78.6 13.85 -81.55 13.75 -81.85 13.25 -82.95 11.5 -83.25 10.7 -83.6 10.0 -83.65 10.0 -83.6 9.4 -83.8 8.1 -84.35 8.2 -84.95 5.05 -85.35 3.0 -85.5 2.55 -73.55 3.05 -72.6 8.8 -71.6 11.85 -70.85 13.2 -70.3 13.55 -68.4 14.45" fill="#8b5430" fill-rule="evenodd" stroke="none"/>
    <path d="M-69.05 3.35 L-68.95 3.45 -69.0 3.45 -69.05 3.35" fill="#793e17" fill-rule="evenodd" stroke="none"/>
    <path d="M-47.55 -6.05 L-47.7 -6.0 -47.65 -6.1 -47.55 -6.05" fill="#b76138" fill-rule="evenodd" stroke="none"/>
    <path d="M75.75 0.3 L75.8 0.35 76.15 0.95 76.15 1.0 71.85 7.15 44.45 7.3 44.45 7.25 -9.25 7.5 -9.4 7.5 -41.1 7.55 -42.25 7.6 -66.4 7.6 -66.6 7.35 -67.45 5.85 -68.6 4.0 -68.65 3.9 -68.7 3.85 -68.7 3.8 -68.7 3.75 -68.95 3.45 -69.05 3.35 -69.1 3.25 -69.6 2.35 -70.45 0.55 -70.5 0.35 -70.1 -1.3 -70.0 -1.65 75.75 0.3" fill="#666666" fill-rule="evenodd" stroke="none"/>
    <path d="M75.75 0.3 L-70.0 -1.65 -69.95 -2.45 -69.95 -2.5 -67.0 -6.3 -47.65 -6.1 -47.7 -6.0 -47.55 -6.05 -43.4 -6.0 -43.3 -6.0 72.25 -4.85 75.75 0.3" fill="#808080" fill-rule="evenodd" stroke="none"/>
    <path d="M9.4 -6.85 L20.55 -6.9 20.9 -6.9 21.0 -6.9 Q25.5 -6.65 28.55 -6.8 L30.35 -6.85 47.8 -6.5 Q56.85 -6.15 69.1 -6.4 L73.6 -6.45 73.85 -6.15 76.7 -2.4 Q78.25 -0.1 78.7 1.4 L79.15 3.1 76.9 5.95 Q74.5 7.65 73.4 9.4 L64.35 9.15 Q49.75 8.85 41.45 8.95 L29.85 9.3 28.7 9.35 Q28.0 10.9 -7.65 9.3 -18.0 8.75 -24.15 9.05 L-38.35 9.4 -40.7 9.5 Q-45.4 9.8 -50.95 9.6 L-66.85 9.4 Q-68.35 9.2 -67.95 8.5 L-68.05 8.35 -68.9 6.8 Q-69.65 5.1 -71.5 2.15 L-72.05 1.2 -71.95 -1.7 -71.7 -2.45 -71.65 -2.55 -69.6 -5.25 -68.35 -6.6 -67.45 -7.65 -63.25 -7.55 -57.4 -7.6 -53.05 -7.7 -34.3 -7.0 -22.85 -7.75 -19.3 -7.8 -16.8 -7.6 Q-13.9 -7.4 -9.45 -7.45 L-7.25 -7.5 -5.8 -7.2 2.85 -7.5 9.4 -6.85 M-68.7 3.75 L-68.7 3.8 -68.7 3.85 -68.65 3.9 -68.6 4.0 -67.45 5.85 -66.6 7.35 -66.4 7.6 -42.25 7.6 -41.1 7.55 -9.4 7.5 -9.25 7.5 44.45 7.25 44.45 7.3 71.85 7.15 76.15 1.0 76.15 0.95 75.8 0.35 75.75 0.3 72.25 -4.85 -43.3 -6.0 -43.4 -6.0 -47.55 -6.05 -47.65 -6.1 -67.0 -6.3 -69.95 -2.5 -69.95 -2.45 -70.0 -1.65 -70.1 -1.3 -70.5 0.35 -70.45 0.55 -69.6 2.35 -69.1 3.25 -69.05 3.35 -69.0 3.45 -68.7 3.75" fill="#3c3c3c" fill-rule="evenodd" stroke="none"/>
  </g>
</svg>
