<?xml version="1.0" encoding="UTF-8" standalone="no"?>
<svg xmlns:ffdec="https://www.free-decompiler.com/flash" xmlns:xlink="http://www.w3.org/1999/xlink" ffdec:objectType="shape" height="8.5px" width="10.4px" xmlns="http://www.w3.org/2000/svg">
  <g transform="matrix(1.0, 0.0, 0.0, 1.0, 5.2, 4.3)">
    <path d="M0.05 -4.15 L1.15 -3.55 1.55 -3.0 2.05 -2.45 2.5 -1.3 2.5 -1.15 3.7 -1.4 5.15 -1.55 5.2 -1.55 5.05 -1.3 5.0 -1.25 4.7 -1.1 Q4.3 -0.6 2.6 0.55 L2.6 0.65 2.6 1.2 2.15 2.4 2.15 2.35 2.2 2.15 2.1 2.35 2.0 2.5 Q0.9 4.3 -1.55 4.2 -3.9 4.1 -4.8 2.05 -5.3 0.95 -5.2 -0.2 -5.1 -2.15 -3.8 -3.35 -3.0 -4.0 -2.15 -4.25 L-1.1 -4.3 0.05 -4.15 M0.45 -1.95 L0.5 -1.9 0.6 -1.95 0.65 -1.8 0.55 -1.6 0.75 -1.4 -0.45 0.05 0.1 1.15 0.55 2.35 Q0.55 3.05 0.15 3.05 L0.1 3.05 0.0 3.05 -0.05 3.0 -0.45 2.45 Q-0.4 2.2 -0.65 1.8 L-1.1 1.0 Q-2.3 2.75 -2.85 2.75 -3.15 2.75 -3.1 2.6 L-3.2 2.35 -2.55 1.3 -1.7 0.1 -1.65 0.05 -2.05 -0.55 -2.2 -0.75 -2.45 -1.0 -2.45 -1.1 -2.95 -1.7 -2.95 -1.75 -2.95 -1.85 Q-2.95 -2.4 -2.3 -2.25 L-2.35 -2.25 -1.5 -1.8 -1.15 -1.2 -0.85 -0.8 -0.7 -1.0 0.3 -1.85 0.45 -1.95 M1.6 -1.15 L1.5 -1.15 1.5 -1.45 Q0.6 -2.95 -1.2 -3.0 -2.9 -3.05 -3.9 -2.0 L-4.6 -0.8 -4.6 -0.65 -4.75 -0.2 -4.4 1.9 Q-3.6 3.65 -1.55 3.8 0.7 3.9 1.7 2.1 L2.1 1.0 1.85 0.3 2.1 0.35 2.1 0.3 2.0 -0.25 1.6 -1.15" fill="#000000" fill-rule="evenodd" stroke="none"/>
    <path d="M1.6 -1.15 L2.0 -0.25 2.1 0.3 2.1 0.35 1.85 0.3 2.1 1.0 1.7 2.1 Q0.7 3.9 -1.55 3.8 -3.6 3.65 -4.4 1.9 L-4.75 -0.2 -4.6 -0.65 -4.6 -0.8 -3.9 -2.0 Q-2.9 -3.05 -1.2 -3.0 0.6 -2.95 1.5 -1.45 L1.5 -1.15 1.6 -1.15 M0.45 -1.95 L0.3 -1.85 -0.7 -1.0 -0.85 -0.8 -1.15 -1.2 -1.5 -1.8 -2.35 -2.25 -2.3 -2.25 Q-2.95 -2.4 -2.95 -1.85 L-2.95 -1.75 -2.95 -1.7 -2.45 -1.1 -2.45 -1.0 -2.2 -0.75 -2.05 -0.55 -1.65 0.05 -1.7 0.1 -2.55 1.3 -3.2 2.35 -3.1 2.6 Q-3.15 2.75 -2.85 2.75 -2.3 2.75 -1.1 1.0 L-0.65 1.8 Q-0.4 2.2 -0.45 2.45 L-0.05 3.0 0.0 3.05 0.1 3.05 0.15 3.05 Q0.55 3.05 0.55 2.35 L0.1 1.15 -0.45 0.05 0.75 -1.4 0.55 -1.6 0.65 -1.8 0.6 -1.95 0.5 -1.9 0.45 -1.95" fill="#dbccac" fill-rule="evenodd" stroke="none"/>
  </g>
</svg>
