<?xml version="1.0" encoding="UTF-8" standalone="no"?>
<svg xmlns:ffdec="https://www.free-decompiler.com/flash" xmlns:xlink="http://www.w3.org/1999/xlink" ffdec:objectType="shape" height="8.1px" width="10.35px" xmlns="http://www.w3.org/2000/svg">
  <g transform="matrix(1.0, 0.0, 0.0, 1.0, 5.15, 4.3)">
    <path d="M1.45 -3.2 L1.55 -3.0 1.15 -3.55 1.1 -3.65 1.45 -3.2" fill="#ebb852" fill-rule="evenodd" stroke="none"/>
    <path d="M1.6 -1.15 L2.0 -0.25 2.1 0.3 2.1 0.35 1.85 0.3 2.1 1.0 1.7 2.1 Q0.7 3.9 -1.55 3.8 -3.6 3.65 -4.4 1.9 L-4.75 -0.2 -4.6 -0.65 -4.6 -0.8 -3.9 -2.0 Q-2.9 -3.05 -1.2 -3.0 0.6 -2.95 1.5 -1.45 L1.5 -1.15 1.6 -1.15" fill="#fec9b4" fill-rule="evenodd" stroke="none"/>
    <path d="M1.1 -0.2 L1.1 0.2 1.05 0.25 0.4 -0.7 Q-0.15 -1.55 -1.15 -1.55 -2.3 -1.55 -3.05 -0.4 L-3.5 0.6 -3.25 0.4 -1.85 0.1 Q-1.05 0.1 -0.35 0.5 L0.3 1.1 0.25 1.3 -0.15 1.3 -0.75 0.85 Q-1.35 0.55 -1.95 0.55 -2.6 0.55 -3.1 0.85 L-3.45 1.15 -3.45 1.2 -3.5 1.3 -3.6 1.35 -3.6 1.3 -3.9 1.3 -4.1 0.85 -3.8 0.05 -3.4 -0.75 -2.8 -1.5 -2.05 -1.85 -1.8 -2.0 -1.1 -2.0 Q-0.2 -2.0 0.3 -1.55 L1.1 -0.2" fill="#000000" fill-rule="evenodd" stroke="none"/>
    <path d="M0.05 -4.15 L1.15 -3.55 1.55 -3.0 2.05 -2.45 2.5 -1.3 2.5 -1.15 3.7 -1.4 5.15 -1.55 5.2 -1.55 5.05 -1.3 5.0 -1.25 4.7 -1.1 Q4.3 -0.6 2.6 0.55 L2.6 0.65 2.6 0.8 2.05 0.9 1.85 0.3 2.1 0.35 2.1 0.3 2.0 -0.25 1.6 -1.15 1.5 -1.15 1.5 -1.45 Q0.6 -2.95 -1.2 -3.0 -2.9 -3.05 -3.9 -2.0 L-4.6 -0.8 -4.6 -0.65 -4.65 -0.5 -5.15 -0.8 Q-4.9 -2.35 -3.8 -3.35 -3.0 -4.0 -2.15 -4.25 L-1.1 -4.3 0.05 -4.15" fill="#000000" fill-rule="evenodd" stroke="none"/>
  </g>
</svg>
