<?xml version="1.0" encoding="UTF-8" standalone="no"?>
<svg xmlns:ffdec="https://www.free-decompiler.com/flash" xmlns:xlink="http://www.w3.org/1999/xlink" ffdec:objectType="shape" height="55.85px" width="47.15px" xmlns="http://www.w3.org/2000/svg">
  <g transform="matrix(1.0, 0.0, 0.0, 1.0, 26.75, 24.5)">
    <path d="M-9.65 3.05 L-9.7 3.15 -9.7 3.05 -9.65 3.05" fill="#01013a" fill-rule="evenodd" stroke="none"/>
    <path d="M-21.85 -14.6 L-21.3 -15.3 Q-18.55 -18.7 -14.7 -20.6 L-10.6 -22.1 Q-7.25 -23.0 -3.2 -23.0 6.1 -23.0 11.7 -19.15 13.9 -17.6 15.75 -14.85 L17.7 -11.2 18.05 -10.2 Q18.95 -7.55 18.95 -5.4 18.95 -3.3 17.8 -1.6 L17.45 -1.0 Q16.65 0.4 16.65 1.7 L16.9 3.3 Q16.8 3.15 16.75 3.4 L12.2 3.25 Q10.4 3.5 10.4 2.1 L10.35 -0.25 10.6 -0.25 Q11.15 -0.25 11.45 -0.55 L9.85 -1.1 8.0 -1.75 5.45 -3.0 Q4.85 -3.3 3.95 -3.95 L3.7 -4.15 3.15 -4.65 2.4 -5.3 1.7 -5.85 3.1 -7.05 3.15 -7.15 4.55 -8.6 Q5.65 -9.75 5.65 -10.25 L5.5 -10.55 4.7 -9.65 3.6 -8.45 2.6 -7.4 2.4 -7.2 2.3 -7.1 2.25 -7.2 -0.35 -6.5 -2.6 -5.9 -5.6 -6.6 Q-7.0 -7.55 -7.95 -9.55 -9.8 -13.25 -13.15 -13.25 -14.7 -13.25 -16.5 -12.3 L-17.9 -11.65 -17.95 -11.65 -18.95 -11.4 -19.85 -11.6 -20.45 -11.95 -20.9 -12.45 Q-21.45 -13.15 -21.6 -13.8 L-21.5 -13.85 -21.85 -14.6 M-10.5 -1.8 L-10.75 -1.75 -12.65 -1.0 -12.4 -0.75 -10.3 -1.15 -10.3 -1.05 -10.75 1.4 -11.1 5.8 -11.05 6.7 -10.95 7.65 -9.95 15.05 Q-9.2 19.95 -8.95 23.3 L-8.55 24.5 -8.55 24.8 -8.35 26.6 -8.3 26.85 Q-8.35 28.8 -8.8 29.85 L-14.3 29.85 -14.3 29.5 -15.15 29.25 -18.15 27.95 -20.0 26.8 -21.3 25.8 -22.35 25.2 -23.6 24.1 -23.45 23.85 -23.6 23.7 -23.15 23.65 -21.6 22.6 -20.15 21.75 -19.85 21.4 -19.2 20.75 -19.2 20.8 -19.2 20.75 -18.95 20.55 Q-18.45 19.45 -18.45 18.3 -18.45 16.35 -20.3 14.65 L-20.35 14.6 -21.55 13.65 Q-24.65 11.45 -24.65 10.2 -24.65 9.55 -22.9 7.35 L-22.7 7.15 -22.7 7.1 Q-21.15 5.05 -21.15 2.95 -21.15 1.7 -22.25 0.3 L-23.75 -1.35 -24.75 -2.95 Q-25.35 -4.4 -25.35 -6.15 L-25.35 -6.35 -24.75 -5.9 -24.0 -5.35 -23.7 -5.05 Q-21.7 -3.25 -19.0 -3.25 L-16.4 -3.8 -13.9 -4.4 Q-12.25 -4.4 -10.8 -2.2 L-10.5 -1.8 M-21.95 -14.45 L-21.9 -14.55 -21.95 -14.45" fill="#71250e" fill-rule="evenodd" stroke="none"/>
    <path d="M-21.85 -14.6 L-21.5 -13.85 -21.6 -13.8 Q-21.45 -13.15 -20.9 -12.45 L-20.45 -11.95 -19.85 -11.6 -18.95 -11.4 -17.95 -11.65 -17.9 -11.65 -16.5 -12.3 Q-14.7 -13.25 -13.15 -13.25 -9.8 -13.25 -7.95 -9.55 -7.0 -7.55 -5.6 -6.6 L-2.6 -5.9 -0.35 -6.5 2.25 -7.2 2.3 -7.1 0.9 -6.1 -0.15 -5.5 Q-1.0 -5.05 -1.95 -4.75 L-4.3 -3.85 -6.9 -2.85 -10.1 -1.9 -10.5 -1.8 -10.8 -2.2 Q-12.25 -4.4 -13.9 -4.4 L-16.4 -3.8 -19.0 -3.25 Q-21.7 -3.25 -23.7 -5.05 L-24.0 -5.35 -24.75 -5.9 -25.35 -6.35 -25.3 -6.7 -25.35 -6.75 -25.3 -6.8 Q-25.05 -10.35 -21.95 -14.45 L-21.9 -14.55 -21.85 -14.6" fill="#9c462b" fill-rule="evenodd" stroke="none"/>
    <path d="M11.7 -19.15 Q6.1 -23.0 -3.2 -23.0 -7.25 -23.0 -10.6 -22.1 L-14.7 -20.6 Q-18.55 -18.7 -21.3 -15.3 L-21.85 -14.6 -21.9 -14.55 -21.9 -14.6 -21.9 -14.55 -21.95 -14.45 Q-25.05 -10.35 -25.3 -6.8 L-25.4 -6.8 -25.35 -6.75 -25.3 -6.7 -25.35 -6.35 -25.35 -6.15 Q-25.35 -4.4 -24.75 -2.95 L-23.75 -1.35 -22.25 0.3 Q-21.15 1.7 -21.15 2.95 -21.15 5.05 -22.7 7.1 L-22.7 7.15 -22.9 7.35 Q-24.65 9.55 -24.65 10.2 -24.65 11.45 -21.55 13.65 L-20.35 14.6 -20.3 14.65 Q-18.45 16.35 -18.45 18.3 -18.45 19.45 -18.95 20.55 L-19.2 20.75 -19.85 21.4 -20.15 21.75 -21.6 22.6 -23.15 23.65 -23.6 23.7 -23.45 23.85 -23.6 24.1 -22.35 25.2 -21.3 25.8 -20.0 26.8 -18.15 27.95 -15.15 29.25 -14.3 29.5 -14.3 29.85 -8.8 29.85 Q-8.35 28.8 -8.3 26.85 L-8.35 26.6 -8.55 24.8 -8.55 24.5 -8.95 23.3 Q-9.2 19.95 -9.95 15.05 L-10.95 7.65 -11.05 6.7 -11.1 5.8 -10.75 1.4 -10.3 -1.05 -10.3 -1.15 -12.4 -0.75 -12.65 -1.0 -10.75 -1.75 -10.5 -1.8 -10.1 -1.9 -6.9 -2.85 -4.3 -3.85 -1.95 -4.75 Q-1.0 -5.05 -0.15 -5.5 L0.9 -6.1 2.3 -7.1 2.4 -7.2 2.6 -7.4 3.6 -8.45 4.7 -9.65 5.5 -10.55 5.65 -10.25 Q5.65 -9.75 4.55 -8.6 L3.15 -7.15 3.1 -7.05 1.7 -5.85 2.4 -5.3 3.15 -4.65 3.7 -4.15 3.95 -3.95 Q4.85 -3.3 5.45 -3.0 L8.0 -1.75 9.85 -1.1 11.45 -0.55 Q11.15 -0.25 10.6 -0.25 L10.35 -0.25 Q8.0 -0.4 4.5 -2.8 3.45 -3.5 2.75 -4.1 L1.4 -5.35 1.25 -5.55 0.95 -5.35 Q0.2 -4.95 -0.75 -4.5 L-2.1 -3.9 -3.65 -3.3 -6.1 -2.5 -8.65 -1.6 -8.8 -1.65 -9.5 -1.4 -9.6 -1.3 -9.75 -1.0 -9.8 -0.7 -9.8 -0.65 -9.95 -0.15 Q-10.45 1.4 -10.5 5.15 L-10.35 7.65 -10.35 7.7 -9.9 10.1 -9.75 11.45 -9.3 14.35 Q-8.85 16.4 -8.45 19.8 L-8.1 23.15 -8.0 22.7 -7.55 24.85 -7.1 27.35 Q-7.1 28.8 -7.45 29.8 L-11.0 31.0 -11.9 31.25 -12.45 31.35 -12.45 31.2 -12.8 31.2 -13.4 31.2 Q-18.35 31.2 -22.85 26.7 -26.55 23.8 -26.55 22.65 L-26.5 22.35 -24.9 22.45 Q-22.8 22.45 -21.65 21.0 L-20.8 20.1 Q-20.25 19.2 -20.25 18.4 -20.25 16.9 -21.8 15.35 L-22.95 14.55 Q-26.1 12.55 -26.1 10.2 L-26.1 10.0 -26.1 9.75 Q-26.1 8.05 -24.45 5.7 L-23.6 4.45 Q-22.8 3.15 -22.8 2.55 L-22.95 1.75 -23.35 1.2 -24.3 0.65 -25.05 -0.1 -25.3 -0.4 -25.6 -1.05 -26.25 -2.25 -26.3 -2.45 -26.7 -4.45 -26.75 -6.2 -26.65 -7.75 Q-26.15 -12.25 -22.45 -16.4 L-22.25 -16.65 Q-16.6 -22.85 -6.15 -24.45 9.75 -25.2 16.45 -16.7 18.5 -14.15 19.5 -11.2 20.4 -8.4 20.4 -5.3 20.4 -2.7 19.25 -0.9 18.05 0.9 18.05 1.8 18.05 2.35 18.7 3.35 L18.8 3.45 17.05 3.45 16.9 3.3 16.65 1.7 Q16.65 0.4 17.45 -1.0 L17.8 -1.6 Q18.95 -3.3 18.95 -5.4 18.95 -7.55 18.05 -10.2 L17.7 -11.2 15.75 -14.85 Q13.9 -17.6 11.7 -19.15" fill="#441409" fill-rule="evenodd" stroke="none"/>
  </g>
</svg>
