<?xml version="1.0" encoding="UTF-8" standalone="no"?>
<svg xmlns:ffdec="https://www.free-decompiler.com/flash" xmlns:xlink="http://www.w3.org/1999/xlink" ffdec:objectType="shape" height="28.9px" width="27.15px" xmlns="http://www.w3.org/2000/svg">
  <g transform="matrix(1.0, 0.0, 0.0, 1.0, 15.65, 28.65)">
    <path d="M10.7 -18.6 L10.65 -19.35 10.65 -19.45 10.45 -21.05 Q10.3 -22.0 9.8 -22.65 L8.5 -24.25 6.8 -25.85 Q6.35 -26.35 5.2 -26.8 2.85 -27.8 -0.85 -27.8 -4.15 -27.8 -6.35 -26.75 L-7.35 -26.2 -8.75 -25.25 -10.9 -23.45 -12.45 -21.6 Q-13.55 -19.85 -13.95 -17.9 L-13.95 -17.8 -14.05 -17.45 -14.4 -15.45 -14.55 -14.3 Q-14.75 -14.3 -14.8 -14.4 L-14.8 -14.25 Q-14.7 -11.75 -13.7 -9.1 L-13.55 -8.85 -12.8 -7.85 -9.75 -4.7 -9.15 -4.3 -8.45 -3.8 -8.85 -4.3 -8.45 -4.15 -7.45 -3.7 -6.75 -3.3 -4.75 -2.4 Q-3.6 -1.8 -3.25 -1.7 -1.85 -1.15 -0.1 -1.15 L0.7 -1.2 0.75 -1.2 1.3 -1.2 1.6 -1.35 3.5 -2.3 4.35 -2.75 5.8 -3.5 7.1 -4.4 7.45 -4.7 7.7 -4.9 7.7 -5.0 Q8.9 -6.0 8.9 -6.3 L9.35 -6.8 9.4 -6.9 9.7 -7.75 Q10.25 -9.0 10.4 -10.25 L10.4 -10.3 10.45 -10.85 Q10.3 -11.55 10.3 -12.9 L10.15 -15.2 10.2 -15.8 10.2 -15.85 10.2 -16.15 10.45 -16.75 10.45 -16.8 10.5 -16.9 10.5 -16.95 10.5 -17.15 10.55 -17.35 10.65 -18.45 10.7 -18.45 10.7 -18.6 M8.75 -25.35 L11.1 -22.15 11.5 -19.05 11.45 -17.4 11.45 -17.05 11.25 -14.4 11.5 -11.65 Q11.5 -8.55 9.9 -5.8 9.0 -4.25 6.75 -2.85 L6.55 -2.7 6.4 -2.6 5.6 -2.1 4.6 -1.55 2.15 -0.3 -0.1 0.25 -3.3 -0.4 -4.85 -1.1 -5.1 -1.2 -5.25 -1.2 -6.85 -2.05 -6.65 -1.7 -7.0 -1.85 -7.3 -2.3 -8.25 -2.8 -8.65 -3.05 -10.5 -4.2 -11.65 -5.15 -12.4 -5.85 -12.65 -6.15 -12.75 -6.4 -12.7 -6.55 -13.3 -7.25 -13.75 -7.7 -14.2 -8.6 -15.2 -11.05 -15.65 -13.5 -15.4 -15.8 -15.0 -18.15 -15.0 -18.2 -14.9 -18.55 -14.3 -20.25 -14.25 -20.45 -14.1 -20.65 -13.5 -21.55 -13.2 -22.1 Q-12.15 -23.75 -10.2 -25.3 -8.5 -26.65 -6.65 -27.5 L-5.55 -27.95 Q-3.4 -28.7 -0.3 -28.65 L4.35 -28.05 Q6.75 -27.45 8.75 -25.35" fill="#000000" fill-rule="evenodd" stroke="none"/>
    <path d="M-14.55 -14.3 L-14.8 -14.25 -14.8 -14.4 Q-14.75 -14.3 -14.55 -14.3 M-9.15 -4.3 L-8.85 -4.3 -8.45 -3.8 -9.15 -4.3" fill="#958459" fill-rule="evenodd" stroke="none"/>
    <path d="M-7.35 -26.2 L-6.35 -26.75 Q-4.15 -27.8 -0.85 -27.8 2.85 -27.8 5.2 -26.8 6.35 -26.35 6.8 -25.85 L8.5 -24.25 9.8 -22.65 Q10.3 -22.0 10.45 -21.05 L10.65 -19.45 10.65 -19.35 10.7 -18.6 10.65 -18.5 10.65 -18.45 10.55 -17.35 10.5 -17.15 10.5 -16.95 10.5 -16.9 10.45 -16.8 10.45 -16.75 10.2 -16.15 10.2 -15.85 10.2 -15.8 10.15 -15.2 10.3 -12.9 Q10.3 -11.55 10.45 -10.85 L10.4 -10.3 10.4 -10.25 Q10.25 -9.0 9.7 -7.75 L9.4 -6.9 9.35 -6.8 8.9 -6.3 Q8.9 -6.0 7.7 -5.0 L7.7 -4.9 7.45 -4.7 7.1 -4.4 5.8 -3.5 4.35 -2.75 3.5 -2.3 1.6 -1.35 1.3 -1.2 0.75 -1.2 0.7 -1.2 Q0.25 -1.45 -0.25 -1.8 -3.8 -4.15 -4.9 -5.8 -6.0 -7.3 -7.3 -10.0 -9.5 -14.55 -9.5 -17.55 -9.5 -20.05 -8.5 -23.25 L-7.35 -26.2" fill="#cfbb8a" fill-rule="evenodd" stroke="none"/>
    <path d="M-7.35 -26.2 L-8.5 -23.25 Q-9.5 -20.05 -9.5 -17.55 -9.5 -14.55 -7.3 -10.0 -6.0 -7.3 -4.9 -5.8 -3.8 -4.15 -0.25 -1.8 0.25 -1.45 0.7 -1.2 L-0.1 -1.15 Q-1.85 -1.15 -3.25 -1.7 -3.6 -1.8 -4.75 -2.4 L-6.75 -3.3 -7.45 -3.7 -8.45 -4.15 -8.85 -4.3 -9.15 -4.3 -9.75 -4.7 -12.8 -7.85 -13.55 -8.85 -13.7 -9.1 Q-14.7 -11.75 -14.8 -14.25 L-14.55 -14.3 -14.4 -15.45 -14.05 -17.45 -13.95 -17.8 -13.95 -17.9 Q-13.55 -19.85 -12.45 -21.6 L-10.9 -23.45 -8.75 -25.25 -7.35 -26.2" fill="#94845d" fill-rule="evenodd" stroke="none"/>
  </g>
</svg>
