<?xml version="1.0" encoding="UTF-8" standalone="no"?>
<svg xmlns:ffdec="https://www.free-decompiler.com/flash" xmlns:xlink="http://www.w3.org/1999/xlink" ffdec:objectType="shape" height="9.0px" width="10.4px" xmlns="http://www.w3.org/2000/svg">
  <g transform="matrix(1.0, 0.0, 0.0, 1.0, 5.2, 4.8)">
    <path d="M1.5 -1.15 L1.6 -1.15 2.0 -0.25 2.1 0.3 2.1 0.35 1.85 0.3 2.1 1.0 1.7 2.1 Q0.7 3.9 -1.55 3.8 -3.6 3.65 -4.4 1.9 L-4.75 -0.2 -4.6 -0.65 -4.6 -0.8 -3.9 -2.0 Q-2.9 -3.05 -1.2 -3.0 0.6 -2.95 1.5 -1.45 L1.5 -1.15" fill="#ffffff" fill-rule="evenodd" stroke="none"/>
    <path d="M-4.4 -2.45 Q-3.65 -3.25 -2.6 -3.25 -1.4 -3.25 -0.5 -2.35 0.3 -1.55 0.3 -0.35 0.3 0.85 -0.5 1.75 -1.4 2.5 -2.6 2.5 -3.8 2.5 -4.55 1.75 L-5.0 1.2 -5.05 0.95 -4.8 -1.25 -4.5 -2.35 -4.4 -2.45" fill="#0099cc" fill-rule="evenodd" stroke="none"/>
    <path d="M-2.3 -1.6 Q-1.75 -1.6 -1.3 -1.2 -0.95 -0.85 -0.95 -0.3 -0.95 0.25 -1.3 0.65 -1.75 1.0 -2.3 1.0 -2.8 1.0 -3.2 0.65 -3.6 0.25 -3.6 -0.3 -3.6 -0.85 -3.2 -1.2 -2.8 -1.6 -2.3 -1.6" fill="#033fc9" fill-rule="evenodd" stroke="none"/>
    <path d="M2.15 -2.3 L2.3 -2.2 2.6 -2.2 2.75 -2.2 Q3.85 -2.1 3.8 -1.85 L3.7 -1.7 3.6 -1.7 3.55 -1.6 2.9 -1.45 2.9 -1.25 3.7 -1.4 5.15 -1.55 5.2 -1.55 5.05 -1.3 5.0 -1.25 4.7 -1.1 Q4.3 -0.6 2.6 0.55 L2.6 0.65 2.6 1.2 2.15 2.4 2.15 2.35 2.2 2.15 2.1 2.35 2.0 2.5 Q0.9 4.3 -1.55 4.2 -3.9 4.1 -4.8 2.05 -5.3 0.95 -5.2 -0.2 -5.1 -2.15 -3.8 -3.35 L-2.25 -4.2 -2.3 -4.3 -2.35 -4.5 -2.25 -4.7 -2.2 -4.65 -2.05 -4.8 -1.8 -4.75 -1.35 -4.3 -1.2 -4.3 -1.05 -4.0 -0.55 -3.5 -0.35 -3.35 -0.1 -3.2 Q0.2 -2.95 1.0 -2.65 L1.2 -2.55 1.6 -2.45 1.8 -2.4 2.1 -2.35 2.1 -2.3 2.15 -2.3 M1.6 -1.15 L1.5 -1.15 1.5 -1.45 1.2 -1.85 -0.55 -2.7 -0.95 -2.95 -1.0 -3.0 -1.2 -3.0 Q-2.9 -3.05 -3.9 -2.0 L-4.6 -0.8 -4.6 -0.65 -4.75 -0.2 -4.4 1.9 Q-3.6 3.65 -1.55 3.8 0.7 3.9 1.7 2.1 L2.1 1.0 1.85 0.3 2.1 0.35 2.1 0.3 2.0 -0.25 1.6 -1.15 M2.5 -1.3 L2.5 -1.15 2.85 -1.25 2.5 -1.3 M1.6 0.3 L1.4 0.85 0.85 1.45 0.35 1.85 -1.25 2.15 Q-2.5 2.15 -3.45 1.45 L-4.2 0.65 -4.05 0.55 -3.15 1.15 Q-2.2 1.75 -1.25 1.75 -0.2 1.75 0.35 1.35 L0.8 0.9 1.4 0.0 1.6 0.3" fill="#000000" fill-rule="evenodd" stroke="none"/>
    <path d="M1.6 -1.15 L2.0 -0.25 2.1 0.3 2.1 0.35 1.85 0.3 2.1 1.0 1.7 2.1 Q0.7 3.9 -1.55 3.8 -3.6 3.65 -4.4 1.9 L-4.75 -0.2 -4.6 -0.65 -4.6 -0.8 -3.9 -2.0 Q-2.9 -3.05 -1.2 -3.0 L-1.0 -3.0 -0.95 -2.95 -0.55 -2.7 1.2 -1.85 1.5 -1.45 1.5 -1.15 1.6 -1.15 M1.6 0.3 L1.4 0.0 0.8 0.9 0.35 1.35 Q-0.2 1.75 -1.25 1.75 -2.2 1.75 -3.15 1.15 L-4.05 0.55 -4.2 0.65 -3.45 1.45 Q-2.5 2.15 -1.25 2.15 L0.35 1.85 0.85 1.45 1.4 0.85 1.6 0.3" fill="#e6d8bb" fill-rule="evenodd" stroke="none"/>
  </g>
</svg>
