<?xml version="1.0" encoding="UTF-8" standalone="no"?>
<svg xmlns:ffdec="https://www.free-decompiler.com/flash" xmlns:xlink="http://www.w3.org/1999/xlink" ffdec:objectType="shape" height="48.25px" width="48.7px" xmlns="http://www.w3.org/2000/svg">
  <g transform="matrix(1.0, 0.0, 0.0, 1.0, 30.45, 24.75)">
    <path d="M0.1 4.05 L0.05 4.05 0.05 3.95 0.1 4.05 M-15.95 17.5 L-15.8 17.5 -15.6 17.8 -15.95 17.5" fill="#ebb852" fill-rule="evenodd" stroke="none"/>
    <path d="M16.3 -4.85 L16.25 -5.9 Q16.1 -9.55 14.85 -12.1 L13.1 -15.1 11.2 -17.3 7.9 -19.75 6.3 -20.75 Q5.85 -20.9 5.5 -21.15 L4.6 -21.65 0.4 -22.4 -2.15 -22.65 -2.25 -22.75 -3.3 -23.0 -6.0 -23.45 Q-8.1 -23.45 -12.65 -21.55 -15.65 -20.35 -17.3 -18.9 -20.1 -16.6 -21.7 -12.8 L-23.5 -6.65 Q-23.75 -5.85 -25.15 -3.6 -25.5 -2.85 -26.6 -2.05 L-28.45 -1.05 -28.6 -1.0 -28.55 -0.95 -27.15 0.45 -27.2 0.65 -27.3 0.7 -27.25 1.0 Q-27.25 1.7 -27.8 1.75 L-28.15 2.85 -28.8 6.15 -28.85 6.9 -28.85 7.05 Q-28.8 8.65 -28.1 10.35 -27.2 12.55 -25.7 13.4 L-25.65 12.1 -25.6 11.8 -25.35 11.25 -25.15 10.95 -24.95 10.95 -24.9 11.15 -24.8 11.15 -24.7 11.05 -24.5 11.55 -24.15 12.3 -23.1 14.6 -21.6 16.85 -21.15 16.4 -20.2 15.7 -20.05 15.75 Q-19.3 15.1 -19.3 16.15 L-19.4 16.55 -19.1 17.35 -18.3 19.1 -17.45 17.95 -17.2 17.7 -17.25 17.4 Q-17.25 16.35 -16.55 17.05 L-16.5 17.1 -16.2 17.0 -16.05 17.05 -16.05 17.0 -16.0 17.15 -16.1 17.2 -16.05 17.25 -16.1 17.35 -15.95 17.5 -15.6 17.8 -15.8 17.5 -15.7 17.45 -14.15 18.6 Q-13.65 18.9 -12.1 19.75 L-10.35 20.6 -9.8 20.8 -9.5 20.95 -8.45 21.3 -8.4 21.3 -7.45 21.55 -7.3 21.55 -7.35 21.5 -8.1 20.75 -8.0 20.35 -8.15 20.15 -8.2 19.95 -8.4 19.5 -9.5 17.95 -11.4 15.05 -11.65 14.85 -11.8 14.6 -11.6 14.35 -11.45 14.3 -13.15 12.45 -13.1 12.45 -12.8 12.4 -12.75 12.3 -12.3 12.15 -12.3 11.5 -12.6 10.6 -12.75 10.3 -12.6 9.6 Q-12.4 8.9 -12.0 8.9 -11.6 8.9 -11.15 9.35 L-10.5 9.9 -12.85 3.1 -12.8 2.5 -12.75 0.4 -12.65 -0.55 -9.6 -2.75 -9.35 -2.75 -9.3 -2.45 -9.9 -1.95 -9.9 -1.8 -10.2 -0.05 -10.2 0.0 -10.15 0.0 -6.15 -3.8 -5.95 -3.8 -5.85 -3.65 Q-5.25 -3.25 -5.1 -2.2 L-5.0 -0.65 -5.0 -0.6 -4.95 -0.6 Q-3.5 -1.15 -0.8 -2.6 L2.6 -4.35 2.6 -4.75 2.85 -4.8 Q3.3 -4.8 3.35 -3.5 L3.5 -1.4 7.0 -3.25 10.5 -5.1 10.6 -5.0 10.65 -5.1 10.85 -4.5 10.2 -1.05 10.2 -0.85 10.35 -0.95 10.35 -0.9 12.45 -0.6 12.75 -0.45 13.25 -0.15 12.2 -0.05 11.75 -0.05 Q10.1 -0.05 9.7 -0.45 L9.6 -0.95 Q9.6 -1.7 10.05 -3.3 L10.4 -4.5 7.15 -2.5 Q3.9 -0.6 3.3 -0.6 L2.7 -0.65 2.6 -0.8 2.6 -3.75 Q1.8 -3.0 -0.65 -1.7 -4.2 0.2 -5.35 0.2 L-5.6 0.15 -5.55 -1.5 Q-5.55 -2.65 -5.85 -3.4 L-7.95 -1.25 -10.5 1.65 -10.95 1.2 -10.6 -1.4 -12.2 -0.05 -12.6 1.85 Q-12.6 3.95 -9.2 10.85 -9.45 11.25 -9.8 11.25 -10.3 11.25 -11.0 10.65 L-11.85 9.9 -12.0 10.5 Q-12.0 11.7 -11.15 13.2 L-10.5 14.55 -10.4 14.8 -10.45 14.8 -10.4 15.0 -10.0 15.8 -9.2 16.6 -7.75 18.5 -6.7 19.85 -5.95 21.2 -5.05 22.95 Q-5.05 23.5 -5.55 23.5 L-6.05 23.25 -6.65 23.35 Q-7.4 23.35 -10.15 22.1 L-13.35 20.7 Q-15.15 20.1 -16.25 19.1 L-16.6 18.8 -18.3 20.8 Q-18.75 20.8 -19.2 19.85 L-19.55 18.7 -20.1 17.5 -20.25 17.7 -20.55 18.45 -20.5 18.5 Q-21.0 18.7 -21.5 19.45 -22.55 18.25 -24.55 14.3 L-24.45 15.25 -24.35 15.4 -24.55 15.85 Q-24.75 16.05 -25.05 16.05 -25.8 16.05 -27.3 14.25 L-29.25 11.55 -29.9 9.4 -30.15 7.05 -29.75 3.35 Q-29.55 2.15 -29.15 1.45 L-28.85 1.0 -29.55 0.3 -30.3 -0.5 -30.45 -1.15 Q-30.45 -1.65 -30.05 -1.9 L-28.15 -2.65 Q-26.85 -3.2 -26.25 -4.4 -25.15 -6.3 -24.55 -8.0 L-23.55 -11.55 Q-22.9 -13.7 -22.0 -15.15 L-19.45 -18.8 Q-17.6 -20.9 -15.05 -22.05 -12.35 -23.3 -8.6 -24.4 -6.35 -25.05 -3.4 -24.5 L-3.3 -24.45 -1.4 -24.5 3.9 -23.65 6.3 -22.55 8.7 -21.15 Q13.85 -17.5 15.25 -15.1 17.0 -12.0 18.1 -8.95 L18.25 -7.55 16.3 -4.85 M-14.7 1.65 L-14.55 1.3 -14.65 1.7 -14.7 1.65" fill="#000000" fill-rule="evenodd" stroke="none"/>
    <path d="M-28.55 -0.95 L-28.6 -1.0 -28.45 -1.05 -28.55 -0.95 M-7.45 21.55 L-7.35 21.5 -7.45 21.55" fill="#af8000" fill-rule="evenodd" stroke="none"/>
    <path d="M-10.2 -0.05 L-10.15 0.0 -10.2 0.0 -10.2 -0.05 M-5.0 -0.65 L-4.95 -0.6 -5.0 -0.6 -5.0 -0.65 M10.5 -5.1 L10.6 -5.0 10.5 -5.1 M10.2 -1.05 L10.35 -0.95 10.2 -0.85 10.2 -1.05" fill="#85511f" fill-rule="evenodd" stroke="none"/>
    <path d="M0.4 -22.4 L4.6 -21.65 5.5 -21.15 Q5.85 -20.9 6.3 -20.75 L7.9 -19.75 11.2 -17.3 13.1 -15.1 14.85 -12.1 Q16.1 -9.55 16.25 -5.9 L16.3 -4.85 16.1 -4.55 16.1 -4.35 Q16.1 -3.7 13.95 -1.55 L13.2 -0.9 12.75 -0.45 12.45 -0.6 10.35 -0.9 10.35 -0.95 10.2 -1.05 10.85 -4.5 10.65 -5.1 10.6 -5.0 10.5 -5.1 7.0 -3.25 3.5 -1.4 3.35 -3.5 Q3.3 -4.8 2.85 -4.8 L2.6 -4.75 2.6 -4.35 -0.8 -2.6 Q-3.5 -1.15 -4.95 -0.6 L-5.0 -0.65 -5.1 -2.2 Q-5.25 -3.25 -5.85 -3.65 L-5.95 -3.8 -6.15 -3.8 -10.15 0.0 -10.2 -0.05 -9.9 -1.8 -9.9 -1.95 -9.3 -2.45 -9.35 -2.75 -9.6 -2.75 -12.65 -0.55 -12.75 0.4 -12.8 2.5 -12.85 3.1 -10.5 9.9 -11.15 9.35 Q-11.6 8.9 -12.0 8.9 -12.4 8.9 -12.6 9.6 L-12.75 10.3 -12.6 10.6 -12.3 11.5 -12.3 12.15 -12.75 12.3 -12.8 12.4 -13.1 12.45 -13.15 12.45 -13.85 11.85 -15.15 10.75 Q-17.15 8.7 -18.8 4.4 L-20.85 9.2 -21.05 9.2 -22.7 6.7 Q-23.7 4.6 -23.7 1.7 -23.7 -8.5 -17.95 -13.05 -15.3 -15.1 -11.15 -16.35 -6.95 -17.6 -2.7 -17.6 1.05 -17.6 5.55 -15.85 L9.35 -14.15 Q9.6 -14.15 9.7 -14.25 L9.7 -14.3 Q8.9 -16.4 5.85 -18.95 3.35 -21.05 0.4 -22.4 M-14.7 1.65 L-14.65 1.7 -14.55 1.3 -14.7 1.65" fill="#6f5089" fill-rule="evenodd" stroke="none"/>
    <path d="M0.4 -22.4 Q3.35 -21.05 5.85 -18.95 8.9 -16.4 9.7 -14.3 L9.7 -14.25 Q9.6 -14.15 9.35 -14.15 L5.55 -15.85 Q1.05 -17.6 -2.7 -17.6 -6.95 -17.6 -11.15 -16.35 -15.3 -15.1 -17.95 -13.05 -23.7 -8.5 -23.7 1.7 -23.7 4.6 -22.7 6.7 L-21.05 9.2 -20.85 9.2 -18.8 4.4 Q-17.15 8.7 -15.15 10.75 L-13.85 11.85 -13.15 12.45 -11.45 14.3 -11.6 14.35 -11.8 14.6 -11.65 14.85 -11.4 15.05 -9.5 17.95 -8.4 19.5 -8.2 19.95 -8.15 20.15 -8.0 20.35 -8.1 20.75 -7.35 21.5 -7.45 21.55 -8.4 21.3 -8.45 21.3 -9.5 20.95 -9.8 20.8 -10.35 20.6 -12.1 19.75 Q-13.65 18.9 -14.15 18.6 L-15.7 17.45 -15.8 17.5 -15.95 17.5 -16.1 17.35 -16.05 17.25 -16.1 17.2 -16.0 17.15 -16.05 17.0 -16.05 17.05 -16.2 17.0 -16.5 17.1 -16.55 17.05 Q-17.25 16.35 -17.25 17.4 L-17.2 17.7 -17.45 17.95 -18.3 19.1 -19.1 17.35 -19.4 16.55 -19.3 16.15 Q-19.3 15.1 -20.05 15.75 L-20.2 15.7 -21.15 16.4 -21.6 16.85 -23.1 14.6 -24.15 12.3 -24.5 11.55 -24.7 11.05 -24.8 11.15 -24.9 11.15 -24.95 10.95 -25.15 10.95 -25.35 11.25 -25.6 11.8 -25.65 12.1 -25.7 13.4 Q-27.2 12.55 -28.1 10.35 -28.8 8.65 -28.85 7.05 L-28.85 6.9 -28.8 6.15 -28.15 2.85 -27.8 1.75 Q-27.25 1.7 -27.25 1.0 L-27.3 0.7 -27.2 0.65 -27.15 0.45 -28.55 -0.95 -28.45 -1.05 -26.6 -2.05 Q-25.5 -2.85 -25.15 -3.6 -23.75 -5.85 -23.5 -6.65 L-21.7 -12.8 Q-20.1 -16.6 -17.3 -18.9 -15.65 -20.35 -12.65 -21.55 -8.1 -23.45 -6.0 -23.45 L-3.3 -23.0 -2.25 -22.75 -2.15 -22.65 0.4 -22.4" fill="#4b3861" fill-rule="evenodd" stroke="none"/>
  </g>
</svg>
