<?xml version="1.0" encoding="UTF-8" standalone="no"?>
<svg xmlns:ffdec="https://www.free-decompiler.com/flash" xmlns:xlink="http://www.w3.org/1999/xlink" ffdec:objectType="shape" height="3.25px" width="17.05px" xmlns="http://www.w3.org/2000/svg">
  <g transform="matrix(1.0, 0.0, 0.0, 1.0, 7.4, 13.8)">
    <path d="M5.0 -13.7 L6.75 -13.4 7.85 -13.0 8.85 -12.4 9.5 -11.7 9.65 -11.4 Q9.65 -10.95 9.05 -10.95 6.95 -10.95 5.35 -11.75 L4.2 -12.2 3.95 -12.3 3.1 -12.4 Q2.7 -12.5 2.7 -12.85 2.7 -13.05 3.35 -13.3 L3.55 -13.5 4.05 -13.55 5.0 -13.7 M-2.55 -13.8 L-1.2 -13.45 -0.7 -12.95 -0.7 -12.9 -0.65 -12.75 Q-0.65 -12.35 -1.65 -12.05 L-3.15 -11.5 -4.05 -11.25 -4.8 -11.0 -5.5 -10.75 Q-5.7 -10.55 -6.1 -10.55 L-6.75 -10.95 -6.95 -10.95 Q-7.4 -10.95 -7.4 -11.45 L-7.25 -11.7 -7.0 -11.85 -6.9 -11.95 -6.8 -12.1 -6.25 -12.55 -5.35 -13.1 Q-4.45 -13.7 -3.3 -13.7 L-2.55 -13.8" fill="#fec9b4" fill-rule="evenodd" stroke="none"/>
  </g>
</svg>
