<?xml version="1.0" encoding="UTF-8" standalone="no"?>
<svg xmlns:ffdec="https://www.free-decompiler.com/flash" xmlns:xlink="http://www.w3.org/1999/xlink" ffdec:objectType="shape" height="85.65px" width="128.1px" xmlns="http://www.w3.org/2000/svg">
  <g transform="matrix(1.0, 0.0, 0.0, 1.0, 0.3, 38.05)">
    <path d="M18.3 -11.85 L18.3 -33.3 Q18.45 -37.05 22.3 -37.05 L122.8 -37.05 Q126.7 -37.05 126.8 -33.3 L126.8 42.6 Q126.8 45.4 124.85 46.25 L122.8 46.6 22.3 46.6 20.15 46.2 Q18.3 45.3 18.3 42.6 L18.3 12.35 0.7 0.25 18.3 -11.85" fill="#333333" fill-opacity="0.9019608" fill-rule="evenodd" stroke="none"/>
    <path d="M18.3 -11.85 L0.7 0.25 18.3 12.35 18.3 42.6 Q18.3 45.3 20.15 46.2 L22.3 46.6 122.8 46.6 124.85 46.25 Q126.8 45.4 126.8 42.6 L126.8 -33.3 Q126.7 -37.05 122.8 -37.05 L22.3 -37.05 Q18.45 -37.05 18.3 -33.3 L18.3 -11.85 Z" fill="none" stroke="#000000" stroke-linecap="round" stroke-linejoin="round" stroke-width="2.0" vector-effect="non-scaling-stroke"/>
  </g>
</svg>
