<?xml version="1.0" encoding="UTF-8" standalone="no"?>
<svg xmlns:ffdec="https://www.free-decompiler.com/flash" xmlns:xlink="http://www.w3.org/1999/xlink" ffdec:objectType="shape" height="108.75px" width="110.5px" xmlns="http://www.w3.org/2000/svg">
  <g transform="matrix(1.0, 0.0, 0.0, 1.0, 55.25, 107.7)">
    <path d="M50.25 -106.7 Q54.25 -106.7 54.25 -102.7 L54.25 -27.05 Q54.25 -24.25 52.3 -23.4 L50.25 -23.05 15.9 -23.05 0.05 0.05 -14.85 -23.05 -50.25 -23.05 -52.4 -23.45 Q-54.25 -24.35 -54.25 -27.05 L-54.25 -102.7 Q-54.25 -106.7 -50.25 -106.7 L50.25 -106.7" fill="#333333" fill-opacity="0.9019608" fill-rule="evenodd" stroke="none"/>
    <path d="M50.25 -106.7 L-50.25 -106.7 Q-54.25 -106.7 -54.25 -102.7 L-54.25 -27.05 Q-54.25 -24.35 -52.4 -23.45 L-50.25 -23.05 -14.85 -23.05 0.05 0.05 15.9 -23.05 50.25 -23.05 52.3 -23.4 Q54.25 -24.25 54.25 -27.05 L54.25 -102.7 Q54.25 -106.7 50.25 -106.7 Z" fill="none" stroke="#000000" stroke-linecap="round" stroke-linejoin="round" stroke-width="2.0" vector-effect="non-scaling-stroke"/>
  </g>
</svg>
