<?xml version="1.0" encoding="UTF-8" standalone="no"?>
<svg xmlns:ffdec="https://www.free-decompiler.com/flash" xmlns:xlink="http://www.w3.org/1999/xlink" ffdec:objectType="shape" height="103.25px" width="110.5px" xmlns="http://www.w3.org/2000/svg">
  <g transform="matrix(1.0, 0.0, 0.0, 1.0, 28.5, 102.65)">
    <path d="M12.15 -18.0 L0.05 -0.4 -12.05 -18.0 -23.5 -18.0 -25.65 -18.4 Q-27.5 -19.3 -27.5 -22.0 L-27.5 -97.9 Q-27.35 -101.65 -23.5 -101.65 L77.0 -101.65 Q80.9 -101.65 81.0 -97.9 L81.0 -22.0 Q81.0 -19.2 79.05 -18.35 L77.0 -18.0 12.15 -18.0" fill="#333333" fill-opacity="0.9019608" fill-rule="evenodd" stroke="none"/>
    <path d="M12.15 -18.0 L77.0 -18.0 79.05 -18.35 Q81.0 -19.2 81.0 -22.0 L81.0 -97.9 Q80.9 -101.65 77.0 -101.65 L-23.5 -101.65 Q-27.35 -101.65 -27.5 -97.9 L-27.5 -22.0 Q-27.5 -19.3 -25.65 -18.4 L-23.5 -18.0 -12.05 -18.0 0.05 -0.4 12.15 -18.0 Z" fill="none" stroke="#000000" stroke-linecap="round" stroke-linejoin="round" stroke-width="2.0" vector-effect="non-scaling-stroke"/>
  </g>
</svg>
