<?xml version="1.0" encoding="UTF-8" standalone="no"?>
<svg xmlns:ffdec="https://www.free-decompiler.com/flash" xmlns:xlink="http://www.w3.org/1999/xlink" ffdec:objectType="shape" height="29.95px" width="65.35px" xmlns="http://www.w3.org/2000/svg">
  <g transform="matrix(1.0, 0.0, 0.0, 1.0, 16.35, 31.4)">
    <path d="M32.3 -23.5 Q32.05 -22.7 32.15 -22.05 L32.75 -20.3 32.95 -19.9 33.3 -19.1 33.65 -17.35 33.5 -16.5 33.45 -16.2 33.35 -16.05 32.85 -15.8 32.45 -15.75 31.4 -15.55 Q31.55 -16.85 30.75 -18.7 L30.55 -19.0 30.25 -19.75 Q29.6 -21.25 29.7 -22.35 L29.7 -22.4 30.3 -23.45 31.4 -24.5 33.05 -25.25 33.4 -25.3 33.1 -25.0 32.8 -24.4 32.3 -23.5 M27.95 -11.35 L28.0 -11.2 27.85 -10.7 28.1 -9.8 29.8 -6.9 29.75 -6.85 30.05 -6.8 Q29.7 -6.35 28.7 -6.25 L27.85 -6.15 26.85 -5.95 25.85 -5.8 25.85 -6.05 25.7 -6.05 Q25.3 -6.25 25.15 -7.6 L25.15 -8.9 25.2 -9.8 25.2 -9.95 25.65 -10.75 26.55 -12.3 27.0 -13.2 27.75 -14.15 27.85 -14.2 28.35 -14.6 28.4 -14.6 28.45 -14.6 28.8 -14.75 Q28.4 -14.55 28.15 -13.95 L28.05 -13.55 28.1 -13.55 27.8 -12.95 27.9 -12.85 Q27.6 -12.1 27.8 -11.75 L27.85 -11.4 27.95 -11.35 M44.4 -25.8 L44.25 -26.35 44.3 -26.95 44.15 -28.45 45.9 -29.5 46.75 -30.0 47.25 -29.75 Q47.7 -27.5 47.45 -25.65 47.2 -23.95 46.2 -21.4 L46.2 -21.35 46.15 -21.4 46.1 -21.3 46.1 -21.25 45.7 -21.1 44.85 -20.75 43.65 -20.65 43.6 -20.65 43.65 -20.7 43.95 -21.4 44.1 -21.65 44.25 -22.7 44.35 -23.0 Q44.75 -24.05 44.4 -25.8" fill="#95ff3c" fill-rule="evenodd" stroke="none"/>
    <path d="M32.8 -24.4 L33.1 -25.0 33.4 -25.3 33.05 -25.25 31.4 -24.5 30.3 -23.45 29.7 -22.4 29.7 -22.35 Q29.6 -21.25 30.25 -19.75 L30.55 -19.0 30.75 -18.7 Q31.55 -16.85 31.4 -15.55 L32.45 -15.75 32.85 -15.8 33.35 -16.05 33.45 -16.2 33.5 -16.5 33.65 -17.35 33.3 -19.1 32.95 -19.9 32.75 -20.3 32.15 -22.05 Q32.05 -22.7 32.3 -23.5 L32.45 -23.45 32.65 -23.9 32.8 -24.4 M34.5 -26.4 L35.45 -25.95 Q36.5 -25.6 37.55 -24.85 L38.65 -24.15 38.65 -24.1 39.9 -22.95 41.35 -21.6 Q42.5 -21.3 43.35 -22.3 L43.4 -22.5 43.4 -22.6 43.3 -22.85 43.55 -24.25 43.5 -24.3 43.45 -25.2 Q43.6 -26.55 42.85 -28.1 L42.6 -28.5 43.1 -28.8 44.2 -29.55 45.4 -30.2 45.9 -30.4 46.3 -30.65 46.7 -30.75 46.75 -30.75 48.5 -31.4 Q49.75 -27.75 47.95 -22.7 L46.25 -19.2 Q44.85 -17.1 43.2 -16.9 L42.75 -16.8 Q41.9 -16.65 41.45 -16.8 L40.75 -17.05 40.6 -17.1 Q37.6 -18.2 36.2 -19.9 L34.75 -21.55 34.5 -21.65 33.95 -21.85 33.5 -21.55 33.8 -19.9 34.0 -19.25 34.0 -19.4 34.4 -17.45 34.4 -17.4 34.3 -16.3 34.25 -16.25 34.2 -16.1 34.15 -15.95 34.15 -15.9 34.0 -15.4 33.55 -14.45 33.5 -14.45 32.5 -13.3 31.3 -12.4 31.15 -12.35 30.65 -12.2 29.25 -11.35 Q29.15 -11.0 29.35 -10.65 L29.35 -9.6 29.0 -9.5 29.15 -9.25 29.25 -8.85 29.95 -8.0 31.0 -6.55 31.0 -6.5 30.7 -6.25 Q30.65 -6.2 30.45 -6.1 L28.15 -4.8 24.9 -4.4 24.8 -5.2 Q24.35 -5.7 24.3 -7.0 L24.05 -7.1 24.05 -9.4 24.55 -10.9 Q24.95 -12.15 26.2 -13.35 L26.4 -13.6 27.25 -14.7 27.2 -14.6 28.15 -15.35 Q28.7 -15.65 29.1 -15.55 L30.55 -16.55 30.0 -18.4 29.85 -18.6 29.5 -19.55 Q29.0 -20.75 29.0 -21.8 28.8 -22.65 28.9 -23.05 L30.7 -25.1 Q32.85 -27.0 34.5 -26.4 M39.4 -22.4 L38.45 -23.15 36.65 -24.55 Q35.55 -25.3 34.35 -25.4 33.5 -25.2 33.1 -24.3 L32.8 -23.35 32.95 -23.25 33.35 -23.05 34.2 -22.6 34.3 -22.7 34.6 -22.35 35.25 -21.95 36.15 -21.3 37.05 -20.55 37.7 -20.1 38.0 -19.85 38.75 -19.25 39.4 -18.8 39.65 -18.5 39.95 -18.5 Q40.15 -18.35 40.45 -18.3 L40.4 -18.25 42.45 -17.85 43.65 -18.5 Q45.15 -19.25 45.25 -19.6 L45.25 -19.95 45.2 -19.9 44.9 -19.9 45.15 -20.1 Q44.05 -19.65 42.8 -20.1 L42.6 -20.2 42.2 -20.3 41.25 -20.8 39.4 -22.4 M33.3 -15.7 L32.55 -15.35 Q31.25 -14.85 30.65 -15.05 L30.5 -15.1 29.9 -15.0 30.05 -14.95 29.1 -14.35 28.8 -14.15 28.5 -13.4 Q28.15 -12.5 28.3 -12.1 L28.35 -12.0 Q28.45 -12.55 29.25 -12.7 L30.8 -12.95 30.95 -13.1 31.4 -13.3 32.0 -13.9 32.9 -14.8 33.25 -15.6 33.3 -15.7 M30.65 -15.9 L30.65 -15.95 30.55 -15.85 30.65 -15.9 M28.1 -13.55 L28.05 -13.55 28.15 -13.95 Q28.4 -14.55 28.8 -14.75 L28.45 -14.6 28.4 -14.6 28.35 -14.6 27.85 -14.2 27.75 -14.15 27.0 -13.2 26.55 -12.3 25.65 -10.75 25.2 -9.95 25.2 -9.8 25.15 -8.9 25.15 -7.6 Q25.3 -6.25 25.7 -6.05 L25.85 -6.05 25.85 -5.8 26.85 -5.95 27.85 -6.15 28.7 -6.25 Q29.7 -6.35 30.05 -6.8 L29.75 -6.85 29.8 -6.9 28.1 -9.8 27.85 -10.7 28.0 -11.2 27.95 -11.35 27.9 -11.95 Q27.8 -12.55 28.1 -13.5 L28.15 -13.55 28.1 -13.55 M28.1 -10.8 L28.1 -10.85 28.05 -10.8 28.1 -10.8 M25.6 -5.1 L25.5 -5.1 25.5 -5.05 25.6 -5.1 M44.4 -25.8 Q44.75 -24.05 44.35 -23.0 L44.25 -22.7 44.1 -21.65 43.95 -21.4 43.65 -20.7 43.6 -20.65 43.65 -20.65 44.85 -20.75 45.7 -21.1 46.1 -21.25 46.1 -21.3 46.15 -21.4 46.2 -21.35 46.2 -21.4 Q47.2 -23.95 47.45 -25.65 47.7 -27.5 47.25 -29.75 L46.75 -30.0 45.9 -29.5 44.15 -28.45 44.3 -26.95 44.25 -26.35 44.4 -25.8 M46.65 -21.0 L46.7 -20.95 46.75 -21.05 46.65 -21.0" fill="#0c380b" fill-rule="evenodd" stroke="none"/>
    <path d="M32.3 -23.5 L32.8 -24.4 32.65 -23.9 32.45 -23.45 32.3 -23.5 M39.4 -22.4 L41.25 -20.8 42.2 -20.3 42.6 -20.2 42.8 -20.1 Q44.05 -19.65 45.15 -20.1 L44.9 -19.9 45.2 -19.9 45.25 -19.95 45.25 -19.6 Q45.15 -19.25 43.65 -18.5 L42.45 -17.85 40.4 -18.25 40.45 -18.3 Q40.15 -18.35 39.95 -18.5 L39.65 -18.5 39.4 -18.8 38.75 -19.25 38.0 -19.85 37.7 -20.1 37.05 -20.55 36.15 -21.3 35.25 -21.95 34.6 -22.35 34.3 -22.7 34.2 -22.6 33.35 -23.05 32.95 -23.25 32.8 -23.35 33.1 -24.3 Q33.5 -25.2 34.35 -25.4 35.55 -25.3 36.65 -24.55 L38.45 -23.15 39.4 -22.4 M33.3 -15.7 L33.25 -15.6 32.9 -14.8 32.0 -13.9 31.4 -13.3 30.95 -13.1 30.8 -12.95 29.25 -12.7 Q28.45 -12.55 28.35 -12.0 L28.3 -12.1 Q28.15 -12.5 28.5 -13.4 L28.8 -14.15 29.1 -14.35 30.05 -14.95 29.9 -15.0 30.5 -15.1 30.65 -15.05 Q31.25 -14.85 32.55 -15.35 L33.3 -15.7 M27.95 -11.35 L27.85 -11.4 27.8 -11.75 Q27.6 -12.1 27.9 -12.85 L27.8 -12.95 28.1 -13.55 28.15 -13.55 28.1 -13.5 Q27.8 -12.55 27.9 -11.95 L27.95 -11.35" fill="#56ad0e" fill-rule="evenodd" stroke="none"/>
    <path d="M-7.55 -14.85 L-5.7 -12.9 Q-6.65 -12.2 -7.15 -11.1 L-7.4 -9.8 -7.5 -8.75 -7.5 -8.5 -7.55 -8.25 Q-7.55 -7.35 -7.8 -6.55 -8.2 -5.2 -9.0 -4.0 L-9.6 -3.15 -9.75 -3.15 -10.5 -2.5 -11.15 -1.45 -13.5 -3.35 -14.35 -4.2 -14.5 -4.35 -14.65 -4.55 -14.65 -4.5 -15.15 -4.8 -15.55 -5.1 -16.35 -5.6 -16.1 -6.0 -14.65 -6.25 -14.35 -6.35 -14.15 -6.45 -13.1 -7.05 Q-12.55 -7.7 -12.5 -9.5 L-12.35 -11.75 -12.35 -11.8 Q-12.25 -13.5 -11.75 -14.5 L-10.6 -16.45 -10.3 -16.7 -9.95 -16.7 -9.7 -16.55 -9.25 -16.15 -7.55 -14.85 M-8.3 -7.8 L-8.05 -9.05 -8.0 -9.9 -7.7 -11.5 -7.55 -11.75 -7.0 -12.95 -8.8 -14.8 -10.1 -16.05 -11.1 -14.25 Q-11.55 -13.35 -11.7 -11.8 L-11.75 -9.55 Q-11.9 -7.35 -12.55 -6.65 -12.8 -6.4 -13.05 -6.4 -13.4 -6.1 -13.9 -5.85 L-14.9 -5.45 -14.15 -5.0 -14.0 -4.9 -14.0 -4.85 -13.4 -4.4 -13.0 -4.05 -11.35 -2.65 -10.15 -3.6 -9.5 -4.45 -9.5 -4.5 -9.0 -5.4 -8.9 -5.3 -8.45 -6.75 -8.2 -7.4 -8.3 -7.55 -8.3 -7.8" fill="#091935" fill-rule="evenodd" stroke="none"/>
    <path d="M-13.05 -6.4 Q-12.8 -6.4 -12.55 -6.65 -11.9 -7.35 -11.75 -9.55 L-11.7 -11.8 Q-11.55 -13.35 -11.1 -14.25 L-10.1 -16.05 -8.8 -14.8 -7.0 -12.95 -7.55 -11.75 -7.7 -11.5 -8.0 -9.9 -8.05 -9.05 -8.3 -7.8 Q-10.65 -6.65 -13.0 -6.35 L-13.05 -6.4" fill="#5ba9ff" fill-rule="evenodd" stroke="none"/>
    <path d="M-8.3 -7.8 L-8.3 -7.55 -8.2 -7.4 -8.45 -6.75 -8.9 -5.3 -9.0 -5.4 -9.5 -4.5 -9.5 -4.45 -10.15 -3.6 -11.35 -2.65 -13.0 -4.05 -13.4 -4.4 -14.0 -4.85 -14.0 -4.9 -14.15 -5.0 -14.9 -5.45 -13.9 -5.85 Q-13.4 -6.1 -13.05 -6.4 L-13.0 -6.35 Q-10.65 -6.65 -8.3 -7.8" fill="#257ad7" fill-rule="evenodd" stroke="none"/>
  </g>
</svg>
