<?xml version="1.0" encoding="UTF-8" standalone="no"?>
<svg xmlns:ffdec="https://www.free-decompiler.com/flash" xmlns:xlink="http://www.w3.org/1999/xlink" ffdec:objectType="shape" height="68.9px" width="72.95px" xmlns="http://www.w3.org/2000/svg">
  <g transform="matrix(1.0, 0.0, 0.0, 1.0, 38.75, 29.4)">
    <path d="M24.8 -26.4 L24.75 -24.1 Q24.55 -22.55 23.95 -21.7 24.6 -21.35 24.75 -21.3 L26.25 -21.1 Q26.45 -21.1 26.9 -22.9 L27.6 -25.35 27.6 -26.4 24.8 -26.4 M26.9 -19.15 L26.7 -19.15 Q25.2 -19.15 23.55 -20.05 22.0 -20.9 22.0 -21.4 L22.65 -23.2 23.25 -25.0 Q22.95 -27.7 23.35 -27.9 L28.35 -28.05 Q29.05 -27.5 29.15 -26.1 28.8 -22.4 28.15 -20.65 27.6 -19.3 26.9 -19.15 M-3.5 -8.15 L-6.3 -4.35 Q-7.05 -4.35 -7.05 -5.2 L-7.05 -5.3 Q-6.9 -6.1 -5.15 -8.95 L-5.35 -8.95 Q-5.95 -8.95 -6.75 -9.85 L-7.35 -10.55 -7.3 -10.15 Q-7.3 -9.65 -8.1 -9.15 L-8.35 -9.25 -8.55 -9.05 -8.75 -7.75 Q-8.85 -6.55 -9.1 -6.05 -9.3 -5.6 -9.55 -5.6 L-10.3 -5.85 -10.3 -6.35 -10.35 -8.0 Q-10.35 -9.95 -9.95 -11.1 -9.6 -15.3 -6.55 -12.2 -4.65 -11.25 -2.75 -9.4 -2.75 -9.25 -3.5 -8.15 M-33.2 -27.75 L-31.35 -29.0 Q-29.0 -30.2 -28.8 -27.8 L-28.35 -26.8 -28.25 -23.9 -28.55 -23.25 -28.5 -23.1 -28.55 -22.75 -26.95 -20.35 -26.3 -19.45 -27.4 -18.35 Q-29.3 -16.5 -29.8 -16.5 -32.4 -16.5 -33.35 -18.5 -33.8 -19.45 -33.8 -20.7 -33.8 -23.05 -34.5 -24.0 -35.2 -24.9 -35.2 -25.4 -35.2 -26.7 -33.2 -27.75 M-33.05 -25.3 Q-32.45 -24.6 -32.2 -21.05 -32.0 -18.2 -30.3 -18.2 -29.9 -18.2 -29.0 -19.1 L-28.05 -20.15 -28.35 -20.45 Q-28.55 -20.05 -29.15 -20.05 -29.85 -20.05 -30.8 -26.45 -31.65 -26.25 -33.05 -25.3" fill="#091935" fill-rule="evenodd" stroke="none"/>
    <path d="M21.8 -9.25 L23.1 -9.55 25.95 -9.85 25.9 -9.65 26.15 -9.2 Q26.6 -8.7 27.6 -8.7 28.0 -8.7 28.2 -9.0 L28.25 -8.65 28.35 -8.5 Q28.25 -7.85 27.85 -7.95 L26.55 -8.25 Q22.7 -8.25 20.8 -7.35 L18.8 -6.45 Q18.05 -6.45 17.85 -6.75 L17.8 -7.15 Q17.8 -8.05 20.05 -8.8 L20.5 -8.7 Q21.15 -8.7 21.8 -9.25 M17.8 -9.9 L16.75 -8.15 Q16.05 -8.15 15.95 -8.6 L15.95 -9.1 Q15.95 -10.25 16.75 -11.65 17.55 -13.0 17.55 -13.45 L16.9 -14.15 Q16.45 -13.3 15.85 -13.1 L15.1 -13.35 15.05 -13.85 15.7 -15.7 Q16.3 -17.4 16.3 -18.9 16.3 -22.15 12.7 -25.35 9.1 -28.5 9.05 -27.75 9.05 -28.4 9.3 -28.75 L9.6 -28.75 11.0 -29.0 11.75 -28.65 Q14.1 -27.35 16.2 -24.7 17.9 -21.7 17.9 -18.8 L17.7 -16.75 17.55 -16.2 17.6 -16.05 17.5 -15.7 17.55 -15.65 18.05 -15.25 18.4 -14.85 19.05 -14.1 19.25 -13.75 19.05 -13.0 18.8 -12.25 Q17.8 -11.25 17.8 -10.35 L17.8 -9.9 M-3.5 -8.15 L-2.0 -9.5 Q2.75 -13.5 7.3 -12.5 L7.6 -13.2 8.55 -15.6 Q9.1 -17.65 11.55 -17.35 L12.25 -17.25 12.35 -17.6 Q12.75 -18.55 12.75 -19.3 12.75 -21.2 10.35 -23.4 L10.0 -23.75 Q10.1 -25.75 9.15 -25.75 8.55 -25.75 8.35 -25.05 L7.95 -25.3 Q7.95 -25.95 8.2 -26.2 8.35 -28.25 11.45 -25.7 14.75 -23.05 14.75 -19.8 14.75 -17.3 13.95 -16.35 L13.95 -16.3 Q13.95 -15.45 13.25 -15.45 13.0 -15.2 12.7 -15.2 12.1 -15.2 12.0 -15.6 L10.6 -15.7 10.2 -15.6 10.15 -15.55 Q9.65 -13.0 9.05 -11.8 L9.15 -11.4 8.7 -11.25 Q8.25 -10.8 7.8 -10.8 L7.35 -10.85 7.3 -10.85 6.9 -10.8 4.4 -10.15 Q-0.6 -8.75 -1.6 -7.65 L-3.65 -4.55 -4.45 -3.3 -4.45 -3.05 Q-4.45 -2.1 -5.25 -2.1 L-5.8 -2.3 -6.2 -2.5 -8.9 -4.1 Q-9.1 -3.9 -9.35 -3.9 -10.55 -3.9 -11.6 -4.55 -12.45 -5.05 -12.45 -5.3 L-12.4 -5.6 -12.45 -7.5 -12.4 -8.55 -13.8 -8.7 -14.0 -8.7 Q-14.8 -8.7 -14.8 -9.45 L-14.45 -10.45 Q-14.15 -11.2 -14.15 -11.6 -14.15 -14.65 -15.9 -16.8 L-17.7 -18.45 -17.65 -19.0 -17.55 -19.0 -16.85 -19.25 -15.85 -19.1 -15.6 -18.9 -15.55 -18.85 -15.65 -18.75 -15.85 -18.2 Q-15.85 -17.5 -14.95 -17.5 -14.85 -17.5 -14.35 -17.8 -13.5 -17.0 -13.15 -16.25 -13.0 -15.75 -12.8 -13.7 L-12.6 -11.6 -12.75 -10.3 -11.5 -10.3 Q-10.7 -10.15 -10.7 -9.4 L-10.8 -8.95 -10.9 -8.75 -10.85 -7.55 -10.9 -6.45 -10.3 -6.35 -10.3 -5.85 -9.55 -5.6 Q-9.3 -5.6 -9.1 -6.05 L-8.35 -5.8 -7.05 -5.3 -7.05 -5.2 Q-7.05 -4.35 -6.3 -4.35 L-3.5 -8.15 M-17.85 28.75 Q-17.15 27.75 -8.55 30.15 L-2.5 32.05 Q-1.55 31.05 -1.5 32.4 0.8 33.35 0.8 33.9 L0.6 34.5 Q2.35 35.15 2.75 35.75 L3.2 36.0 3.25 36.0 5.15 34.05 Q6.85 32.55 6.85 34.5 L6.75 34.65 7.7 34.95 Q9.55 35.6 10.35 36.1 L13.5 33.75 Q15.55 32.35 17.85 30.9 L22.1 27.15 22.85 26.6 22.8 26.45 24.65 25.05 Q26.7 23.25 27.4 20.95 L28.15 18.15 28.2 18.0 Q27.6 17.9 27.45 17.65 L27.4 17.25 29.0 15.55 Q30.6 13.55 30.6 11.85 L30.45 11.55 29.9 12.1 29.15 11.85 29.1 11.35 30.1 8.95 Q31.1 6.7 31.4 6.35 L30.9 6.1 Q29.1 5.65 25.3 4.1 L24.75 3.85 21.75 2.85 Q21.35 4.45 20.85 4.45 20.2 4.45 20.05 3.8 L20.05 3.05 Q20.05 2.65 20.4 1.35 L20.75 -0.5 20.2 -3.5 19.6 -3.1 18.85 -3.35 18.8 -3.95 Q18.8 -4.65 19.85 -5.45 19.95 -6.7 20.6 -5.9 L21.05 -6.15 Q23.55 -7.45 26.55 -7.4 27.35 -6.95 27.35 -6.5 27.35 -5.85 26.95 -5.75 L26.0 -5.8 25.9 -5.8 25.35 -6.05 Q24.35 -6.3 24.05 -5.5 22.9 -5.25 21.8 -4.6 L21.4 -4.3 Q22.3 -2.3 22.3 -0.6 L22.0 1.55 23.65 1.9 23.45 2.25 23.5 2.55 Q23.7 2.95 24.3 2.95 L25.9 2.45 27.0 2.75 27.35 3.5 Q28.0 4.65 28.65 4.65 29.4 4.65 29.4 3.65 L29.4 3.55 Q33.4 4.9 33.4 5.9 L31.35 10.1 Q32.3 10.7 32.3 11.65 31.35 16.1 30.0 17.45 L29.55 20.2 Q28.4 21.1 28.4 22.05 L28.45 22.45 Q27.95 22.8 27.2 24.35 L26.45 26.0 25.6 26.7 25.6 26.6 Q25.6 25.2 24.4 25.9 23.6 26.4 23.25 27.0 L23.0 27.15 22.95 27.2 Q22.45 27.4 22.3 28.0 22.0 28.45 22.0 28.95 L22.0 29.6 18.45 32.4 18.4 32.5 15.55 35.0 14.95 34.85 Q14.45 34.75 14.45 35.65 L14.55 35.8 Q11.4 38.4 10.9 38.4 L10.15 38.15 10.15 38.05 Q9.65 38.0 9.5 37.7 L9.5 37.55 Q8.35 37.35 6.45 36.35 L5.75 35.95 Q4.05 37.85 3.35 37.85 2.65 37.85 1.75 37.25 0.6 37.0 -1.2 36.25 L-3.5 35.05 Q-4.15 34.9 -3.95 34.15 L-3.8 33.7 -4.75 33.35 -8.95 31.65 -13.95 30.55 -15.95 30.0 Q-16.6 28.75 -17.7 28.75 L-17.85 28.75 M-25.6 27.95 L-26.15 27.6 -26.8 27.4 -26.6 27.25 Q-27.5 26.6 -27.5 26.25 L-27.45 26.0 -27.65 25.8 -27.85 25.9 Q-28.55 26.25 -28.95 26.55 L-30.6 25.6 Q-30.6 24.8 -27.6 25.35 L-24.75 25.55 Q-22.85 26.2 -22.15 26.85 -20.95 27.3 -20.95 27.65 -20.95 28.25 -21.55 28.4 L-21.55 28.5 -21.7 28.9 -21.85 29.05 -22.35 29.25 Q-23.6 29.25 -25.6 27.95 M-35.7 17.65 Q-36.2 16.55 -36.45 14.05 -36.45 12.95 -35.1 12.7 L-37.55 5.8 Q-37.55 4.6 -37.1 4.75 -36.65 4.1 -35.0 3.7 L-34.5 3.75 -34.4 3.75 Q-33.8 3.75 -33.6 3.45 -32.6 3.45 -32.6 4.2 L-34.05 5.35 -36.0 6.2 -35.5 7.2 Q-33.45 11.35 -33.45 13.25 L-33.45 13.4 -33.45 13.45 -33.45 13.7 -34.05 14.25 -34.7 14.5 Q-34.1 16.4 -34.1 17.45 -34.1 18.4 -34.85 18.4 -35.05 17.9 -35.4 17.7 L-35.7 17.65 M-28.9 1.45 L-28.4 1.0 Q-27.85 -1.5 -24.4 -3.85 -22.85 -4.9 -21.85 -5.2 L-21.9 -6.55 -21.8 -8.1 -21.85 -8.2 -21.9 -8.6 Q-21.9 -9.95 -19.45 -9.75 L-19.05 -10.55 Q-18.35 -11.9 -18.35 -12.55 L-18.5 -13.75 Q-18.2 -14.8 -18.2 -15.3 L-18.25 -15.85 Q-18.4 -16.35 -18.95 -16.35 L-19.55 -16.1 -19.75 -16.55 Q-19.75 -18.8 -18.25 -16.55 -16.75 -14.25 -16.75 -12.65 -16.75 -11.35 -17.05 -10.25 -17.4 -8.95 -18.1 -8.5 -18.55 -7.95 -20.35 -7.9 L-20.3 -6.55 -20.4 -5.55 -20.45 -5.1 Q-20.3 -4.9 -20.3 -4.45 -20.3 -4.35 -22.4 -3.15 -24.75 -1.85 -25.55 -0.8 L-26.3 1.15 -26.4 1.4 -26.35 1.7 Q-26.35 2.15 -26.9 2.45 L-27.2 2.6 -27.65 2.75 -27.85 2.75 -28.2 2.75 Q-28.8 2.75 -28.95 2.2 L-28.8 1.65 -28.9 1.45" fill="#000000" fill-rule="evenodd" stroke="none"/>
    <path d="M28.15 -20.65 L29.9 -22.2 Q32.95 -23.9 32.95 -18.6 32.95 -16.4 32.2 -14.15 31.6 -12.4 30.65 -11.45 L30.3 -12.0 29.85 -11.5 28.9 -10.7 29.05 -10.5 28.1 -10.4 28.05 -10.4 27.15 -10.6 26.55 -10.45 Q25.15 -10.6 24.2 -11.05 L23.3 -11.75 Q23.15 -10.95 22.4 -9.95 L21.8 -9.25 Q21.15 -8.7 20.5 -8.7 L20.05 -8.8 19.75 -9.15 Q19.65 -9.35 19.7 -9.6 19.7 -10.15 20.55 -10.7 21.45 -11.25 21.6 -11.95 L21.3 -14.05 21.4 -15.25 Q21.6 -15.75 22.3 -15.75 22.85 -15.75 24.2 -13.85 25.55 -12.0 27.8 -12.0 L28.05 -12.15 29.0 -12.7 29.6 -13.4 30.1 -13.75 30.7 -15.3 Q31.25 -16.95 31.4 -18.65 L31.1 -20.6 Q29.5 -20.4 29.1 -18.8 28.95 -18.3 28.95 -16.8 L28.95 -16.1 29.6 -15.5 Q29.6 -14.9 28.75 -14.65 L28.65 -14.5 28.45 -14.7 28.1 -14.45 28.1 -14.3 Q28.1 -13.5 27.2 -13.5 L27.15 -13.5 Q26.45 -13.55 26.25 -14.1 L25.4 -14.95 24.8 -15.35 Q24.3 -15.8 24.3 -16.3 L24.35 -16.45 24.05 -16.8 24.0 -16.8 21.3 -16.75 20.0 -16.45 19.85 -16.0 20.1 -15.55 20.75 -14.65 20.8 -14.55 21.05 -13.75 Q21.05 -13.1 20.75 -12.8 L20.55 -12.0 20.05 -11.1 19.7 -10.55 Q18.95 -9.4 18.55 -9.4 17.9 -9.4 17.8 -9.85 L17.8 -9.9 17.8 -10.35 Q17.8 -11.25 18.8 -12.25 L19.05 -13.0 19.25 -13.75 19.05 -14.1 18.4 -14.85 18.05 -15.25 Q17.65 -15.8 17.6 -16.05 L17.55 -16.2 17.7 -16.75 18.3 -17.35 18.85 -18.2 Q20.0 -19.7 21.85 -19.7 24.25 -19.7 25.75 -17.8 L26.4 -16.8 26.95 -16.7 27.4 -16.6 27.4 -16.75 27.1 -18.4 26.9 -19.15 Q27.6 -19.3 28.15 -20.65 M-15.95 30.0 L-15.6 31.05 Q-15.3 32.2 -15.3 33.4 L-15.3 34.65 Q-15.5 35.55 -16.6 35.55 -19.85 35.55 -21.75 34.7 -23.15 34.05 -23.15 33.5 -23.15 32.9 -22.75 32.3 -22.15 31.45 -21.9 30.6 -25.6 29.9 -25.6 27.95 -23.6 29.25 -22.35 29.25 L-21.85 29.05 -21.7 28.9 Q-20.1 29.95 -20.1 30.35 -20.1 31.4 -21.2 33.0 L-16.85 33.75 Q-16.85 32.6 -17.65 31.35 L-18.5 29.7 -18.45 29.0 -17.85 28.75 -17.7 28.75 Q-16.6 28.75 -15.95 30.0 M-26.8 27.4 L-27.05 27.55 -28.4 28.0 -28.45 28.0 Q-29.8 28.0 -29.55 27.35 L-29.55 27.3 Q-29.55 27.0 -28.95 26.55 -28.55 26.25 -27.85 25.9 L-27.65 25.8 -27.45 26.0 -27.5 26.25 Q-27.5 26.6 -26.6 27.25 L-26.8 27.4 M-32.7 26.75 L-32.8 26.75 Q-34.65 26.75 -35.65 23.05 L-36.3 19.5 Q-36.3 17.7 -35.7 17.65 L-35.4 17.7 Q-35.05 17.9 -34.85 18.4 -34.55 19.2 -34.55 20.7 -34.05 22.25 -32.95 24.05 -32.0 25.55 -32.0 25.85 L-32.0 26.2 -32.7 26.75" fill="#0c380b" fill-rule="evenodd" stroke="none"/>
    <path d="M1.85 -20.25 Q1.65 -19.7 1.6 -19.05 L1.6 -18.75 0.15 -17.2 -2.45 -14.75 -3.2 -15.05 Q-5.0 -15.65 -8.3 -21.75 -8.3 -23.8 -7.35 -23.4 L-5.45 -24.55 Q-2.7 -25.85 -2.0 -24.05 -0.7 -21.65 0.65 -20.6 L1.1 -20.2 1.85 -20.25 M29.55 20.2 L30.15 19.7 Q31.95 18.45 32.9 19.85 L34.0 22.45 34.2 24.15 Q33.55 30.5 30.45 30.5 L30.05 30.5 29.5 30.15 29.45 29.8 30.2 29.05 31.05 28.0 Q32.65 25.9 32.65 24.1 L32.4 22.75 31.65 21.25 Q31.15 21.3 30.45 21.85 L29.45 22.65 29.55 22.9 29.8 23.95 30.7 24.9 31.25 25.75 Q31.25 26.55 30.55 27.25 30.05 27.75 29.55 27.9 L29.15 28.0 28.9 28.0 Q27.95 28.0 27.1 27.4 26.35 26.85 26.35 26.5 L26.45 26.0 27.2 24.35 Q27.95 22.8 28.45 22.45 L28.4 22.05 Q28.4 21.1 29.55 20.2 M24.0 31.1 L23.95 31.85 23.95 32.05 Q23.95 33.5 23.05 34.7 21.45 36.8 17.65 36.8 15.65 36.8 14.85 36.25 L14.55 35.8 14.45 35.65 Q14.45 34.75 14.95 34.85 L15.55 35.0 16.35 35.15 20.55 34.65 20.5 34.35 Q20.5 33.9 22.25 31.85 L22.7 31.4 22.65 31.2 22.4 30.25 22.0 29.65 22.0 29.6 22.0 28.95 Q22.0 28.45 22.3 28.0 22.45 27.4 22.95 27.2 L23.0 27.15 23.25 27.0 Q23.6 26.4 24.4 25.9 25.6 25.2 25.6 26.6 L25.6 26.7 25.3 27.65 24.8 28.5 Q24.15 29.45 24.0 31.1 M-28.4 28.0 Q-27.2 28.85 -27.2 29.9 -27.2 30.8 -29.05 33.6 -31.15 36.8 -32.85 36.8 -33.9 36.8 -37.55 32.45 L-36.05 30.7 -33.6 28.2 -33.3 27.65 -32.7 26.75 -32.0 26.2 Q-31.65 26.1 -31.55 27.0 L-29.55 27.35 Q-29.8 28.0 -28.45 28.0 L-28.4 28.0 M-4.55 -22.7 L-5.8 -22.0 -5.1 -21.05 -2.55 -16.8 -0.6 -18.9 -0.45 -19.0 Q-1.45 -19.45 -2.25 -20.65 L-3.45 -23.1 -4.35 -22.8 -4.55 -22.7 M-29.35 29.95 Q-31.0 29.2 -32.0 29.3 L-32.4 30.05 Q-33.35 31.9 -34.25 32.2 L-34.75 32.05 -35.25 32.6 -32.85 35.0 Q-32.15 34.55 -30.9 32.95 L-29.35 30.9 -29.35 29.95" fill="#410303" fill-rule="evenodd" stroke="none"/>
    <path d="M23.65 1.9 Q23.85 1.6 24.4 1.25 25.4 0.6 26.45 0.4 L26.7 0.45 27.25 0.35 Q29.35 0.35 29.4 3.55 L29.4 3.65 Q29.4 4.65 28.65 4.65 28.0 4.65 27.35 3.5 L27.0 2.75 26.75 2.05 25.9 2.45 24.3 2.95 Q23.7 2.95 23.5 2.55 L23.45 2.25 23.65 1.9 M-28.75 -12.6 L-29.0 -12.1 Q-29.0 -11.25 -28.2 -11.25 L-28.15 -11.25 -27.5 -11.0 Q-27.4 -11.0 -26.8 -11.35 L-26.4 -10.9 -26.35 -10.85 -26.35 -10.65 -26.35 -10.15 Q-26.35 -9.85 -27.65 -7.9 L-28.45 -6.75 Q-28.45 -6.1 -29.1 -6.0 L-29.45 -5.85 Q-29.95 -5.85 -30.15 -6.05 -31.2 -6.3 -32.25 -7.05 -34.1 -8.0 -36.65 -11.05 -36.65 -12.05 -33.9 -14.2 -32.8 -15.05 -32.1 -15.25 L-31.55 -15.6 Q-31.3 -14.9 -29.65 -13.35 L-28.75 -12.6 M-31.65 -13.15 L-34.15 -11.15 -30.55 -8.3 -29.65 -7.7 -28.15 -10.05 Q-29.75 -10.55 -31.2 -12.5 L-31.65 -13.15" fill="#230b2c" fill-rule="evenodd" stroke="none"/>
    <path d="M30.05 30.5 L30.25 31.1 Q31.45 32.3 31.45 33.95 31.45 35.05 30.85 36.85 30.4 38.2 29.85 38.75 29.45 39.5 28.85 39.5 28.2 39.5 28.05 39.05 L27.5 38.85 25.3 37.95 25.2 37.9 22.35 36.5 Q22.35 36.0 22.95 35.6 23.1 35.25 23.5 35.25 24.5 34.6 24.5 33.45 L24.2 31.8 24.0 31.1 Q24.15 29.45 24.8 28.5 L25.3 27.65 25.4 29.4 Q25.4 30.1 25.75 31.35 L26.05 33.4 26.0 34.6 25.5 35.85 25.8 36.0 27.2 36.9 27.8 37.1 28.6 35.35 29.0 34.0 28.7 31.65 Q28.4 30.85 28.4 30.2 L28.65 28.9 Q28.85 28.2 29.15 28.0 L29.55 27.9 Q30.2 28.0 30.2 29.0 L30.2 29.05 29.45 29.8 29.5 30.15 30.05 30.5 M-35.0 3.7 L-35.35 3.55 Q-36.4 3.1 -37.5 1.55 L-38.75 -0.7 Q-38.75 -1.9 -35.25 -2.8 L-32.05 -2.9 -32.0 -2.9 -31.35 -1.75 Q-30.3 0.05 -29.45 0.35 L-28.9 1.45 -28.8 1.65 -28.95 2.2 -29.1 2.45 Q-29.4 2.95 -29.8 2.95 -30.95 2.95 -32.5 -1.25 L-33.0 -1.05 Q-34.4 -0.4 -35.75 -0.2 L-33.8 2.65 -33.45 2.95 -33.6 3.45 Q-33.8 3.75 -34.4 3.75 L-34.5 3.75 -35.0 3.7" fill="#413d00" fill-rule="evenodd" stroke="none"/>
    <path d="M19.85 -17.0 Q21.25 -18.3 22.4 -17.9 L23.0 -17.6 24.45 -16.85 25.15 -16.4 25.15 -16.35 26.0 -15.55 27.0 -14.65 Q27.75 -14.45 28.35 -15.15 L28.35 -15.25 28.35 -15.35 28.3 -15.5 28.45 -16.45 28.45 -16.5 28.4 -17.1 Q28.5 -18.0 28.0 -19.05 L27.8 -19.3 28.15 -19.5 Q28.35 -19.75 28.9 -20.0 L29.7 -20.45 30.05 -20.6 30.3 -20.75 30.6 -20.8 31.8 -21.25 Q32.65 -18.8 31.4 -15.4 L30.3 -13.05 Q29.35 -11.65 28.25 -11.5 L27.95 -11.45 27.05 -11.45 26.6 -11.6 26.5 -11.65 Q24.45 -12.4 23.5 -13.5 L22.55 -14.65 22.4 -14.7 22.0 -14.85 21.7 -14.65 21.9 -13.5 22.05 -13.1 22.05 -13.2 22.3 -11.9 22.3 -11.85 22.25 -11.1 22.2 -11.05 22.2 -10.95 22.15 -10.85 22.05 -10.5 21.75 -9.85 21.7 -9.85 21.05 -9.1 20.25 -8.5 20.15 -8.45 19.8 -8.35 18.85 -7.8 Q18.8 -7.55 18.9 -7.3 L18.9 -6.6 18.7 -6.55 18.8 -6.35 18.85 -6.1 19.3 -5.55 20.05 -4.55 20.05 -4.5 19.85 -4.35 19.65 -4.25 18.1 -3.4 15.95 -3.1 15.85 -3.65 Q15.55 -4.0 15.55 -4.85 L15.35 -4.9 15.35 -6.45 15.7 -7.45 Q15.95 -8.3 16.8 -9.1 L16.95 -9.3 17.5 -10.05 17.5 -9.95 18.1 -10.45 18.75 -10.6 19.75 -11.25 19.35 -12.5 19.25 -12.65 19.0 -13.3 Q18.7 -14.1 18.7 -14.8 L18.6 -15.65 19.85 -17.0 M21.2 -16.45 L21.25 -16.55 21.45 -16.95 21.55 -17.1 21.4 -17.1 Q20.45 -16.75 20.3 -16.6 L19.55 -15.9 19.15 -15.2 19.15 -15.15 Q19.1 -14.45 19.55 -13.4 L19.75 -12.9 19.85 -12.7 Q20.4 -11.45 20.3 -10.6 L21.0 -10.75 21.25 -10.75 21.6 -10.95 21.7 -11.05 21.7 -11.25 21.8 -11.8 21.6 -13.0 21.35 -13.5 21.2 -13.8 20.8 -14.95 20.9 -15.95 21.0 -15.9 21.15 -16.2 21.2 -16.45 M18.1 -9.25 L18.05 -9.25 18.1 -9.5 18.55 -10.05 18.3 -9.95 18.25 -9.95 17.9 -9.7 17.85 -9.65 17.35 -9.0 17.05 -8.4 16.45 -7.35 16.15 -6.85 16.15 -6.75 16.1 -6.15 16.1 -5.25 Q16.2 -4.35 16.45 -4.2 L16.55 -4.2 16.55 -4.05 17.25 -4.15 17.9 -4.3 18.5 -4.35 Q19.15 -4.4 19.4 -4.7 L19.2 -4.75 19.2 -4.8 18.1 -6.75 17.9 -7.35 18.0 -7.7 18.0 -7.8 Q17.9 -8.0 17.95 -8.2 L18.1 -9.2 18.1 -9.25 M18.55 -9.65 L18.35 -9.15 Q18.1 -8.55 18.2 -8.3 L18.25 -8.2 Q18.3 -8.6 18.85 -8.7 L19.9 -8.85 20.0 -8.95 20.3 -9.1 20.7 -9.5 21.3 -10.1 21.55 -10.65 21.6 -10.7 21.05 -10.45 19.8 -10.25 19.7 -10.3 19.3 -10.25 19.4 -10.2 18.75 -9.8 18.55 -9.65 M18.1 -7.4 L18.1 -7.45 18.05 -7.4 18.1 -7.4 M16.4 -3.6 L16.35 -3.6 16.35 -3.55 16.4 -3.6 M30.6 -20.3 L30.05 -19.95 28.85 -19.25 28.95 -18.25 28.95 -17.85 29.05 -17.5 Q29.25 -16.3 29.0 -15.6 L28.95 -15.4 28.85 -14.7 28.75 -14.55 28.55 -14.05 29.35 -14.1 29.9 -14.35 30.2 -14.45 30.2 -14.55 30.25 -14.5 30.25 -14.55 31.1 -17.4 30.95 -20.15 30.6 -20.3 M30.6 -14.25 L30.6 -14.3 30.55 -14.25 30.6 -14.25 M25.05 -15.7 L23.85 -16.65 Q23.1 -17.15 22.3 -17.2 21.7 -17.1 21.45 -16.5 L21.25 -15.85 21.35 -15.75 21.6 -15.65 22.2 -15.35 22.25 -15.4 22.45 -15.15 22.9 -14.9 23.5 -14.45 24.1 -13.95 24.55 -13.65 24.75 -13.5 25.25 -13.1 25.65 -12.8 25.85 -12.6 26.05 -12.6 26.4 -12.45 26.35 -12.4 27.7 -12.15 28.55 -12.6 29.6 -13.3 29.6 -13.55 29.55 -13.5 29.35 -13.5 29.55 -13.65 Q28.8 -13.35 27.95 -13.65 L27.8 -13.7 27.55 -13.8 Q27.2 -13.9 26.9 -14.15 L25.65 -15.2 25.05 -15.7" fill="#0c380b" fill-rule="evenodd" stroke="none"/>
    <path d="M20.9 -15.95 L20.8 -14.95 21.2 -13.8 21.35 -13.5 21.6 -13.0 21.8 -11.8 21.7 -11.25 21.7 -11.05 21.6 -10.95 21.25 -10.75 21.0 -10.75 20.3 -10.6 Q20.4 -11.45 19.85 -12.7 L19.75 -12.9 19.55 -13.4 Q19.1 -14.45 19.15 -15.15 L19.15 -15.2 19.55 -15.9 20.3 -16.6 Q20.45 -16.75 21.4 -17.1 L21.55 -17.1 21.45 -16.95 21.25 -16.55 21.2 -16.45 20.9 -15.95 M18.0 -7.8 L18.0 -7.7 17.9 -7.35 18.1 -6.75 19.2 -4.8 19.2 -4.75 19.4 -4.7 Q19.15 -4.4 18.5 -4.35 L17.9 -4.3 17.25 -4.15 16.55 -4.05 16.55 -4.2 16.45 -4.2 Q16.2 -4.35 16.1 -5.25 L16.1 -6.15 16.15 -6.75 16.15 -6.85 16.45 -7.35 17.05 -8.4 17.35 -9.0 17.85 -9.65 17.9 -9.7 18.25 -9.95 18.3 -9.95 18.55 -10.05 18.1 -9.5 18.05 -9.25 18.1 -9.25 17.9 -8.85 17.95 -8.8 Q17.75 -8.3 17.9 -8.05 L17.9 -7.8 18.0 -7.8 M30.6 -20.3 L30.95 -20.15 31.1 -17.4 30.25 -14.55 30.25 -14.5 30.2 -14.55 30.2 -14.45 29.9 -14.35 29.35 -14.1 28.55 -14.05 28.75 -14.55 28.85 -14.7 28.95 -15.4 29.0 -15.6 Q29.25 -16.3 29.05 -17.5 L28.95 -17.85 28.95 -18.25 28.85 -19.25 30.05 -19.95 30.6 -20.3" fill="#95ff3c" fill-rule="evenodd" stroke="none"/>
    <path d="M20.9 -15.95 L21.2 -16.45 21.15 -16.2 21.0 -15.9 20.9 -15.95 M18.0 -7.8 L17.9 -7.8 17.9 -8.05 Q17.75 -8.3 17.95 -8.8 L17.9 -8.85 18.1 -9.25 18.1 -9.2 17.95 -8.2 Q17.9 -8.0 18.0 -7.8 M18.55 -9.65 L18.75 -9.8 19.4 -10.2 19.3 -10.25 19.7 -10.3 19.8 -10.25 21.05 -10.45 21.6 -10.7 21.55 -10.65 21.3 -10.1 20.7 -9.5 20.3 -9.1 20.0 -8.95 19.9 -8.85 18.85 -8.7 Q18.3 -8.6 18.25 -8.2 L18.2 -8.3 Q18.1 -8.55 18.35 -9.15 L18.55 -9.65 M25.05 -15.7 L25.65 -15.2 26.9 -14.15 Q27.2 -13.9 27.55 -13.8 L27.8 -13.7 27.95 -13.65 Q28.8 -13.35 29.55 -13.65 L29.35 -13.5 29.55 -13.5 29.6 -13.55 29.6 -13.3 28.55 -12.6 27.7 -12.15 26.35 -12.4 26.4 -12.45 26.05 -12.6 25.85 -12.6 25.65 -12.8 25.25 -13.1 24.75 -13.5 24.55 -13.65 24.1 -13.95 23.5 -14.45 22.9 -14.9 22.45 -15.15 22.25 -15.4 22.2 -15.35 21.6 -15.65 21.35 -15.75 21.25 -15.85 21.45 -16.5 Q21.7 -17.1 22.3 -17.2 23.1 -17.15 23.85 -16.65 L25.05 -15.7" fill="#56ad0e" fill-rule="evenodd" stroke="none"/>
    <path d="M-11.8 -3.9 L-11.6 -4.2 -10.65 -4.35 -10.45 -4.4 -10.3 -4.5 -9.6 -4.9 Q-9.25 -5.3 -9.2 -6.55 L-9.1 -8.05 -9.1 -8.1 -8.7 -9.9 -7.9 -11.2 -7.7 -11.35 -7.5 -11.35 -7.3 -11.25 -7.0 -11.0 Q-6.45 -10.75 -5.85 -10.15 L-4.65 -8.8 -5.6 -7.6 -5.75 -6.75 -5.85 -6.05 -5.85 -5.85 -5.85 -5.7 -6.05 -4.55 Q-6.3 -3.65 -6.85 -2.85 L-7.25 -2.25 -7.35 -2.25 -7.85 -1.85 -8.3 -1.1 -9.85 -2.4 -10.45 -2.95 -10.55 -3.05 -10.65 -3.2 -10.65 -3.15 -11.0 -3.4 -11.25 -3.6 -11.8 -3.9 M-9.55 -4.45 L-10.15 -4.1 Q-10.4 -4.0 -10.8 -3.8 L-10.3 -3.5 -10.2 -3.45 -10.2 -3.4 -9.8 -3.1 -9.55 -2.85 -8.45 -1.95 -7.6 -2.55 -7.2 -3.15 -6.85 -3.8 -6.8 -3.7 -6.5 -4.7 -6.3 -5.1 -6.4 -5.2 -6.4 -5.4 -6.2 -6.25 -6.2 -6.8 -5.95 -7.9 -5.85 -8.05 -5.5 -8.85 -6.7 -10.1 -7.6 -10.95 -8.25 -9.75 -8.65 -8.1 -8.7 -6.55 Q-8.8 -5.1 -9.25 -4.6 -9.4 -4.45 -9.55 -4.45" fill="#091935" fill-rule="evenodd" stroke="none"/>
    <path d="M-6.4 -5.4 L-6.4 -5.2 -6.3 -5.1 -6.5 -4.7 -6.8 -3.7 -6.85 -3.8 -7.2 -3.15 -7.6 -2.55 -8.45 -1.95 -9.55 -2.85 -9.8 -3.1 -10.2 -3.4 -10.2 -3.45 -10.3 -3.5 -10.8 -3.8 Q-10.4 -4.0 -10.15 -4.1 L-9.55 -4.45 -9.55 -4.4 Q-7.95 -4.6 -6.4 -5.4" fill="#257ad7" fill-rule="evenodd" stroke="none"/>
    <path d="M-9.55 -4.45 Q-9.4 -4.45 -9.25 -4.6 -8.8 -5.1 -8.7 -6.55 L-8.65 -8.1 -8.25 -9.75 -7.6 -10.95 -6.7 -10.1 -5.5 -8.85 -5.85 -8.05 -5.95 -7.9 -6.2 -6.8 -6.2 -6.25 -6.4 -5.4 Q-7.95 -4.6 -9.55 -4.4 L-9.55 -4.45" fill="#5ba9ff" fill-rule="evenodd" stroke="none"/>
  </g>
</svg>
