<?xml version="1.0" encoding="UTF-8" standalone="no"?>
<svg xmlns:ffdec="https://www.free-decompiler.com/flash" xmlns:xlink="http://www.w3.org/1999/xlink" ffdec:objectType="shape" height="66.85px" width="70.4px" xmlns="http://www.w3.org/2000/svg">
  <g transform="matrix(1.0, 0.0, 0.0, 1.0, 37.2, 28.65)">
    <path d="M24.25 -26.35 L24.4 -26.6 24.65 -26.65 25.15 -26.65 25.25 -26.7 26.8 -26.85 27.6 -26.85 27.85 -26.85 28.35 -26.9 28.45 -26.0 28.45 -25.7 28.35 -24.35 28.2 -23.75 27.95 -22.75 27.0 -20.3 26.7 -20.05 26.3 -20.05 24.7 -20.75 24.55 -20.8 24.35 -20.8 23.6 -21.0 Q23.1 -21.25 22.9 -21.4 L24.0 -23.1 24.2 -23.35 24.25 -23.6 24.25 -23.65 24.2 -26.1 24.25 -26.35 M27.8 -25.55 L27.6 -26.35 26.8 -26.3 25.35 -26.2 25.3 -26.2 24.65 -26.2 24.7 -23.55 24.7 -23.45 24.65 -23.45 Q24.45 -22.2 23.75 -21.55 L24.85 -21.2 26.5 -20.55 27.5 -22.9 27.8 -24.35 27.8 -25.55 M-32.7 -26.35 L-31.55 -27.25 -31.25 -27.5 -31.1 -27.6 -30.85 -27.6 -30.65 -27.45 -29.9 -26.1 Q-29.55 -25.45 -29.5 -24.3 L-29.5 -24.25 -29.4 -22.75 Q-29.35 -21.55 -29.0 -21.1 L-28.3 -20.7 -28.15 -20.65 -27.95 -20.6 -26.95 -20.4 -26.8 -20.15 -27.35 -19.8 -27.6 -19.6 -27.95 -19.4 -27.95 -19.45 -28.05 -19.3 -28.15 -19.2 -28.7 -18.65 -30.3 -17.35 -30.75 -18.05 -31.25 -18.5 -31.35 -18.5 -31.75 -19.05 Q-32.3 -19.85 -32.55 -20.8 L-32.7 -21.9 -32.75 -22.1 -32.75 -22.25 -32.8 -22.95 -33.0 -23.85 Q-33.3 -24.55 -33.95 -25.05 L-32.7 -26.35 M-29.0 -20.7 L-29.35 -20.85 Q-29.8 -21.3 -29.9 -22.8 L-29.95 -24.3 -30.35 -25.95 Q-30.55 -26.55 -31.0 -27.15 L-31.9 -26.3 -33.1 -25.1 -32.7 -24.25 -32.6 -24.1 -32.4 -23.05 -32.4 -22.45 -32.2 -21.6 -32.2 -21.45 -32.3 -21.35 -32.1 -20.9 -31.8 -19.95 -31.75 -20.0 -31.4 -19.4 -31.4 -19.35 -30.95 -18.8 -30.15 -18.15 -29.05 -19.1 -28.8 -19.35 -28.4 -19.65 -28.3 -19.75 -27.8 -20.05 -28.45 -20.3 -29.0 -20.7" fill="#091935" fill-rule="evenodd" stroke="none"/>
    <path d="M24.7 -23.45 L24.7 -23.55 24.65 -26.2 25.3 -26.2 25.35 -26.2 26.8 -26.3 27.6 -26.35 27.8 -25.55 25.8 -24.05 Q25.25 -23.7 24.7 -23.45 M-32.2 -21.6 L-32.4 -22.45 -32.4 -23.05 -32.6 -24.1 -32.7 -24.25 -33.1 -25.1 -31.9 -26.3 -31.0 -27.15 Q-30.55 -26.55 -30.35 -25.95 L-29.95 -24.3 -29.9 -22.8 Q-29.8 -21.3 -29.35 -20.85 L-29.0 -20.7 -29.05 -20.65 Q-30.65 -20.85 -32.2 -21.6" fill="#5ba9ff" fill-rule="evenodd" stroke="none"/>
    <path d="M27.8 -25.55 L27.8 -24.35 27.5 -22.9 26.5 -20.55 24.85 -21.2 23.75 -21.55 Q24.45 -22.2 24.65 -23.45 L24.7 -23.45 Q25.25 -23.7 25.8 -24.05 L27.8 -25.55 M-32.2 -21.6 Q-30.65 -20.85 -29.05 -20.65 L-29.0 -20.7 -28.45 -20.3 -27.8 -20.05 -28.3 -19.75 -28.4 -19.65 -28.8 -19.35 -29.05 -19.1 -30.15 -18.15 -30.95 -18.8 -31.4 -19.35 -31.4 -19.4 -31.75 -20.0 -31.8 -19.95 -32.1 -20.9 -32.3 -21.35 -32.2 -21.45 -32.2 -21.6" fill="#257ad7" fill-rule="evenodd" stroke="none"/>
    <path d="M26.6 2.05 L27.0 2.75 27.65 4.1 27.95 4.6 25.7 6.05 Q24.7 6.85 24.5 7.8 L23.6 7.05 22.2 5.95 Q22.75 4.95 23.75 4.0 L24.8 2.9 Q25.7 2.25 26.6 2.05 M-32.35 -12.65 L-31.9 -13.0 Q-31.15 -11.75 -30.2 -10.95 -29.2 -10.15 -28.2 -10.0 L-28.9 -9.0 -29.75 -7.45 Q-30.8 -7.9 -31.9 -8.7 L-33.1 -9.6 Q-33.95 -10.45 -34.25 -11.3 -34.0 -11.45 -33.65 -11.75 L-32.35 -12.7 -32.35 -12.65" fill="#8220e0" fill-rule="evenodd" stroke="none"/>
    <path d="M26.85 1.55 L27.05 1.85 27.45 2.55 28.15 3.9 28.15 4.0 28.45 4.4 28.45 4.65 28.35 5.0 28.25 5.0 28.55 5.05 27.7 5.45 26.8 5.8 26.3 6.15 25.55 7.2 Q24.95 8.0 25.2 8.7 L25.05 8.7 24.35 8.3 24.15 8.15 23.3 7.45 21.9 6.35 21.75 6.05 Q21.7 5.85 21.8 5.7 22.4 4.65 23.35 3.6 L24.5 2.55 Q25.55 1.75 26.5 1.55 L26.85 1.55 M26.6 2.05 Q25.7 2.25 24.8 2.9 L23.75 4.0 Q22.75 4.95 22.2 5.95 L23.6 7.05 24.5 7.8 Q24.7 6.85 25.7 6.05 L27.95 4.6 27.65 4.1 27.0 2.75 26.6 2.05 M-32.5 -13.1 L-32.5 -13.2 -31.65 -13.95 -30.85 -12.8 -30.6 -12.25 -30.35 -11.8 -29.85 -11.35 Q-29.0 -10.65 -28.15 -10.5 L-27.85 -10.35 Q-27.7 -10.25 -27.7 -9.95 L-27.85 -9.65 -28.45 -8.8 -29.3 -7.25 -29.6 -6.95 -29.95 -7.0 Q-31.05 -7.45 -32.2 -8.3 L-33.4 -9.3 Q-34.4 -10.2 -34.7 -11.15 L-34.7 -11.45 -34.5 -11.75 -33.95 -12.15 -33.9 -12.2 -32.6 -13.05 -32.5 -13.1 M-32.35 -12.65 L-32.35 -12.7 -33.65 -11.75 Q-34.0 -11.45 -34.25 -11.3 -33.95 -10.45 -33.1 -9.6 L-31.9 -8.7 Q-30.8 -7.9 -29.75 -7.45 L-28.9 -9.0 -28.2 -10.0 Q-29.2 -10.15 -30.2 -10.95 -31.15 -11.75 -31.9 -13.0 L-32.35 -12.65" fill="#230b2c" fill-rule="evenodd" stroke="none"/>
    <path d="M24.9 28.45 L23.75 27.6 22.55 27.2 22.65 27.5 22.6 27.6 22.5 27.65 22.55 29.0 22.5 29.05 22.6 29.35 22.6 29.4 22.65 29.6 22.75 30.25 22.85 30.3 22.8 30.55 22.85 31.85 22.9 31.8 22.7 32.5 22.7 32.8 22.65 33.0 22.4 33.5 21.35 34.6 21.15 34.7 21.15 34.8 20.55 35.15 Q18.4 36.35 17.4 35.75 L16.95 35.7 16.85 35.65 14.2 34.15 13.5 33.85 12.95 33.75 12.85 33.75 12.65 33.7 11.35 33.65 11.25 33.5 11.35 33.3 12.25 32.45 13.1 31.7 14.05 30.9 Q14.6 30.45 14.85 30.6 L15.1 30.6 15.15 30.55 15.75 30.65 Q16.6 30.85 18.2 32.0 L18.25 32.0 19.1 32.6 Q19.55 31.85 19.45 30.35 19.25 28.95 19.4 28.1 L19.45 28.15 19.75 27.4 19.85 27.25 19.95 27.05 20.15 26.75 20.6 26.25 20.65 26.2 Q21.05 25.75 21.7 25.25 L21.75 25.25 22.0 25.1 22.1 25.0 22.75 24.65 22.8 24.7 23.1 24.5 23.4 24.45 23.85 24.5 24.35 24.5 24.4 24.5 Q24.95 24.55 25.75 25.05 L26.2 25.45 26.3 25.5 26.3 25.6 26.4 25.6 27.2 26.2 28.8 27.15 29.05 27.1 Q29.6 27.05 29.75 26.8 L29.95 26.2 29.65 24.9 28.6 23.25 28.6 23.2 28.15 22.9 Q27.95 23.0 28.15 22.75 L29.5 21.85 30.7 21.2 31.3 20.8 31.55 20.65 31.8 20.7 32.05 20.95 32.95 23.65 33.15 24.7 33.1 25.2 33.15 25.5 33.15 25.6 33.15 26.0 32.95 26.25 32.95 26.45 32.85 26.7 32.85 26.75 32.5 27.3 31.0 29.1 29.65 29.95 29.5 30.0 29.95 29.25 29.95 29.2 30.6 28.75 31.4 27.95 30.6 27.95 30.55 27.95 29.35 27.75 29.25 27.85 29.25 27.8 29.15 27.75 Q28.35 27.6 26.95 26.6 L26.05 26.0 26.0 25.9 25.45 25.45 25.25 25.3 25.0 25.3 23.95 25.7 22.55 26.5 22.55 26.7 23.95 27.15 24.9 27.8 24.9 28.45 M22.5 26.0 L22.5 25.95 22.6 25.8 Q23.05 25.1 23.45 24.95 L23.25 25.0 22.95 25.05 22.3 25.45 22.05 25.6 20.95 26.55 20.55 27.0 20.35 27.3 20.3 27.5 20.15 27.7 19.9 28.25 Q19.75 29.0 19.9 30.3 20.05 32.05 19.45 32.95 L21.2 33.3 21.75 32.75 22.2 31.55 22.4 30.95 22.15 29.7 22.1 29.45 22.1 29.1 Q21.9 27.9 22.1 27.1 L22.2 26.55 22.35 26.4 22.5 26.0 M29.05 22.95 L29.85 24.2 30.3 25.25 Q30.7 26.45 30.2 27.15 L30.2 27.2 31.65 26.8 32.45 26.45 32.45 26.35 32.45 26.2 32.5 26.1 32.7 25.7 32.55 25.65 32.65 25.2 32.55 24.8 32.5 23.85 31.55 21.15 29.05 22.95 M14.85 31.15 L13.2 32.4 12.45 33.0 12.85 33.3 Q13.5 33.2 14.4 33.75 L17.05 35.2 17.55 35.25 17.6 35.3 Q18.45 35.75 20.3 34.7 L20.8 34.4 20.85 34.35 20.95 34.25 21.05 34.2 21.75 33.6 21.3 33.7 20.45 33.8 20.35 33.8 19.25 33.35 18.7 33.0 Q18.5 33.05 18.6 32.9 L17.95 32.45 15.65 31.15 15.1 31.05 14.85 31.15 M-4.3 -23.15 L-4.15 -23.15 -3.75 -23.35 -3.5 -23.4 -3.2 -23.3 -3.05 -23.05 -2.0 -21.0 -1.95 -21.05 Q-0.55 -20.05 0.45 -19.55 L-1.35 -17.6 -2.8 -16.35 Q-3.8 -16.35 -5.25 -18.85 L-5.85 -19.55 -5.85 -19.6 -6.7 -21.65 -6.65 -21.95 -6.4 -22.2 Q-6.1 -22.3 -5.7 -22.55 L-4.3 -23.15 M-4.1 -22.65 L-5.45 -22.05 Q-5.9 -21.85 -6.2 -21.75 -6.05 -20.85 -5.4 -19.85 L-4.45 -18.75 Q-3.5 -17.7 -2.55 -17.1 L-1.4 -18.45 -0.55 -19.25 Q-1.5 -19.55 -2.3 -20.6 -3.05 -21.55 -3.5 -22.95 L-4.05 -22.65 -4.1 -22.65 M-29.3 29.8 Q-29.1 29.85 -29.0 30.0 L-29.0 30.35 Q-29.15 31.35 -29.85 32.4 L-29.85 32.45 -30.45 33.15 Q-31.9 35.65 -32.9 35.65 L-34.15 34.6 -34.35 34.4 -36.15 32.45 -33.75 30.95 -33.65 30.95 -32.65 28.95 -32.5 28.75 -32.5 28.7 -32.2 28.6 -31.95 28.65 -31.55 28.85 -31.4 28.9 -30.85 29.1 -30.0 29.5 -29.3 29.8 M-30.2 29.9 L-31.6 29.3 -31.65 29.35 Q-31.95 29.2 -32.2 29.1 -32.65 30.45 -33.4 31.45 L-33.85 31.95 -35.15 32.75 -34.3 33.6 -34.05 33.85 -33.1 34.95 -31.25 33.3 -30.3 32.15 Q-29.65 31.15 -29.5 30.25 L-30.2 29.9" fill="#410303" fill-rule="evenodd" stroke="none"/>
    <path d="M25.0 25.3 L25.25 25.3 25.45 25.45 26.0 25.9 25.95 25.9 25.0 25.3 M29.15 27.75 L29.25 27.8 29.25 27.85 29.35 27.75 30.55 27.95 30.5 28.05 30.15 28.05 29.55 28.1 29.4 28.1 29.25 27.95 29.3 27.95 29.25 27.9 28.8 27.8 29.15 27.75 M29.05 22.95 L31.55 21.15 32.5 23.85 32.55 24.8 32.65 25.2 32.55 25.65 32.7 25.7 32.5 26.1 32.45 26.2 32.45 26.35 32.45 26.45 31.65 26.8 30.2 27.2 30.2 27.15 Q30.7 26.45 30.3 25.25 L29.85 24.2 29.05 22.95 M22.35 26.4 L22.2 26.55 22.1 27.1 Q21.9 27.9 22.1 29.1 L22.1 29.45 22.15 29.7 22.4 30.95 22.2 31.55 21.75 32.75 21.2 33.3 19.45 32.95 Q20.05 32.05 19.9 30.3 19.75 29.0 19.9 28.25 L20.15 27.7 20.3 27.5 20.35 27.3 20.55 27.0 20.95 26.55 22.05 25.6 22.3 25.45 22.95 25.05 23.25 25.0 23.45 24.95 Q23.05 25.1 22.6 25.8 L22.5 25.95 22.5 26.0 22.3 26.3 22.35 26.4" fill="#8c0d02" fill-rule="evenodd" stroke="none"/>
    <path d="M24.9 27.8 L23.95 27.15 22.55 26.7 22.55 26.5 23.95 25.7 25.0 25.3 25.95 25.9 26.0 25.9 26.05 26.0 26.95 26.6 Q28.35 27.6 29.15 27.75 L28.8 27.8 29.25 27.9 29.3 27.95 29.25 27.95 29.4 28.1 29.55 28.1 30.15 28.05 30.5 28.05 30.55 27.95 30.6 27.95 31.4 27.95 30.6 28.75 29.95 29.2 29.0 28.7 28.95 28.7 27.3 27.8 25.25 26.85 25.05 27.0 25.0 27.25 24.9 27.8 M22.5 26.0 L22.35 26.4 22.3 26.3 22.5 26.0 M14.85 31.15 L15.1 31.05 15.65 31.15 17.95 32.45 18.6 32.9 Q18.5 33.05 18.7 33.0 L19.25 33.35 20.35 33.8 20.45 33.8 21.3 33.7 21.75 33.6 21.05 34.2 20.95 34.25 20.85 34.35 20.8 34.4 20.3 34.7 Q18.45 35.75 17.6 35.3 L17.55 35.25 17.05 35.2 14.4 33.75 Q13.5 33.2 12.85 33.3 L12.45 33.0 13.2 32.4 14.85 31.15 M-4.1 -22.65 L-4.05 -22.65 -3.5 -22.95 Q-3.05 -21.55 -2.3 -20.6 -1.5 -19.55 -0.55 -19.25 L-1.4 -18.45 -2.55 -17.1 Q-3.5 -17.7 -4.45 -18.75 L-5.4 -19.85 Q-6.05 -20.85 -6.2 -21.75 -5.9 -21.85 -5.45 -22.05 L-4.1 -22.65 M-30.2 29.9 L-29.5 30.25 Q-29.65 31.15 -30.3 32.15 L-31.25 33.3 -33.1 34.95 -34.05 33.85 -34.3 33.6 -35.15 32.75 -33.85 31.95 -33.4 31.45 Q-32.65 30.45 -32.2 29.1 -31.95 29.2 -31.65 29.35 L-31.6 29.3 -30.2 29.9" fill="#da3527" fill-rule="evenodd" stroke="none"/>
    <path d="M29.5 30.0 L29.15 31.15 29.2 31.55 29.4 32.35 29.45 32.45 29.55 32.7 29.65 33.15 29.75 34.1 29.45 36.15 29.2 36.95 29.15 37.0 28.45 38.05 28.35 38.1 28.25 38.2 28.15 38.2 27.85 38.2 26.4 37.65 25.35 37.3 25.25 37.2 24.7 37.15 24.45 36.95 24.4 36.95 23.75 36.8 23.65 36.75 23.7 36.55 24.65 35.75 25.3 35.35 25.35 35.35 25.8 34.8 25.8 33.95 25.3 32.15 25.2 31.65 25.1 31.35 25.05 31.1 24.9 29.3 24.9 28.45 24.9 27.8 25.0 27.25 25.05 27.0 25.25 26.85 27.3 27.8 28.95 28.7 29.0 28.7 29.95 29.2 29.95 29.25 29.5 30.0 M29.0 32.9 L29.0 32.75 28.95 32.65 28.9 32.5 28.75 31.65 28.6 30.4 28.55 30.2 28.65 29.65 28.75 29.15 26.95 28.3 25.75 27.7 25.7 27.7 25.55 28.25 25.45 28.85 25.4 29.2 Q25.25 30.0 25.55 31.15 L25.55 31.2 26.05 32.8 26.3 33.75 26.2 35.15 25.4 36.05 25.2 36.25 25.35 36.3 24.9 36.65 25.55 36.75 25.55 36.8 26.6 37.15 28.05 37.7 28.75 36.8 28.95 36.05 29.25 34.1 29.0 32.9 M-37.2 -0.45 L-34.95 -1.0 -33.1 -1.45 -32.0 -1.65 Q-31.95 -0.7 -31.35 0.3 L-31.05 0.6 -30.35 1.1 -30.3 1.15 -30.1 1.3 -29.75 1.55 -29.05 2.15 Q-28.3 2.95 -27.9 3.9 L-27.6 4.8 -27.5 6.05 -27.5 6.15 -27.5 6.25 -27.6 6.35 -27.8 6.55 -29.25 7.05 -30.3 7.5 -30.45 7.5 -30.85 7.8 -31.2 7.8 -31.25 7.8 -31.85 8.15 -31.95 8.15 -32.0 8.0 Q-32.2 7.7 -31.85 6.75 L-31.5 5.85 Q-31.45 5.65 -31.55 5.45 L-31.6 5.45 -34.95 2.85 Q-36.7 1.5 -36.9 0.4 L-37.05 0.1 -37.2 -0.2 -37.2 -0.45 M-30.35 1.7 L-30.45 1.65 -30.55 1.6 -30.65 1.55 -31.35 0.95 -32.3 0.1 -32.4 0.0 -33.0 -0.9 -34.9 -0.4 -36.2 -0.1 -36.25 -0.05 -36.2 -0.05 -35.85 0.8 -34.15 2.4 -33.3 3.15 -32.6 3.6 -31.9 4.2 Q-31.2 4.8 -31.05 5.35 L-31.05 6.5 -31.05 6.8 -30.95 6.75 -31.05 7.25 -30.45 6.9 -30.45 6.95 -29.4 6.6 -27.95 6.05 -28.05 4.9 -28.35 4.15 Q-28.7 3.3 -29.4 2.55 L-30.35 1.7" fill="#413d00" fill-rule="evenodd" stroke="none"/>
    <path d="M26.3 33.75 L26.05 32.8 25.55 31.2 25.55 31.15 Q25.25 30.0 25.4 29.2 L25.45 28.85 25.55 28.25 25.7 27.7 25.75 27.7 26.95 28.3 28.75 29.15 28.65 29.65 28.55 30.2 28.6 30.4 28.75 31.65 28.9 32.5 28.95 32.65 29.0 32.75 29.0 32.9 27.1 33.5 26.3 33.75 M-31.9 4.2 L-32.6 3.6 -33.3 3.15 -34.15 2.4 -35.85 0.8 -36.2 -0.05 -36.25 -0.05 -36.2 -0.1 -34.9 -0.4 -33.0 -0.9 -32.4 0.0 -32.3 0.1 -31.35 0.95 -30.65 1.55 -30.55 1.6 -30.45 1.65 -30.35 1.7 -31.45 3.45 -31.9 4.2" fill="#ffff0f" fill-rule="evenodd" stroke="none"/>
    <path d="M29.0 32.9 L29.25 34.1 28.95 36.05 28.75 36.8 28.05 37.7 26.6 37.15 25.55 36.8 25.55 36.75 24.9 36.65 25.35 36.3 25.2 36.25 25.4 36.05 26.2 35.15 26.3 33.75 27.1 33.5 29.0 32.9 M-30.35 1.7 L-29.4 2.55 Q-28.7 3.3 -28.35 4.15 L-28.05 4.9 -27.95 6.05 -29.4 6.6 -30.45 6.95 -30.45 6.9 -31.05 7.25 -30.95 6.75 -31.05 6.8 -31.05 6.5 -31.05 5.35 Q-31.2 4.8 -31.9 4.2 L-31.45 3.45 -30.35 1.7" fill="#c6a401" fill-rule="evenodd" stroke="none"/>
    <path d="M-15.15 -28.65 L-14.7 -27.85 -14.8 -27.95 -15.15 -28.65" fill="#deb700" fill-rule="evenodd" stroke="none"/>
    <path d="M-31.35 20.6 L-31.75 20.4 -31.95 20.35 -34.15 19.35 Q-34.2 21.15 -33.85 22.5 L-32.9 24.7 -32.9 24.65 -32.8 24.75 -32.45 25.1 -32.1 25.2 -31.5 25.5 -31.35 25.45 -31.35 25.5 -31.15 25.45 -30.75 25.4 -30.5 25.4 -30.45 25.3 -30.4 25.35 -30.05 25.1 -30.0 25.0 -30.6 24.85 -30.95 24.6 -31.05 24.55 -31.15 24.4 Q-31.9 22.85 -31.35 20.6 M-34.9 18.8 L-34.7 18.3 Q-34.1 18.55 -33.0 19.15 L-30.75 20.25 Q-31.1 22.1 -31.05 23.05 L-30.9 23.85 -30.95 23.85 -30.45 24.5 -29.3 24.4 -29.25 24.4 -28.6 23.55 -27.9 22.75 -27.85 22.75 -27.25 22.15 Q-26.3 21.3 -25.25 20.95 L-25.1 20.95 -24.7 20.9 -24.6 20.9 -24.1 21.0 -24.1 21.05 -22.75 21.4 -21.95 22.1 -21.85 22.25 -21.35 22.75 -21.25 22.85 -21.15 23.0 Q-20.95 23.5 -21.45 27.2 -19.8 27.3 -18.45 29.0 L-18.3 29.1 -17.55 30.1 -17.35 30.55 -17.25 30.6 -17.25 30.9 -17.2 31.0 -17.15 31.15 -16.8 32.25 -16.6 34.55 -16.8 34.65 -16.85 34.55 -17.35 34.5 -17.95 34.45 -18.15 34.35 -19.75 34.2 -20.9 33.9 -21.15 33.9 Q-21.55 33.9 -21.6 33.7 L-21.15 32.3 -20.6 30.65 -20.55 30.45 -20.6 30.25 Q-20.7 30.1 -21.05 30.0 L-21.3 30.0 -21.8 29.9 -21.9 29.85 -22.15 29.8 -22.25 29.75 -22.35 29.7 Q-23.65 29.1 -24.05 28.25 -24.5 27.4 -24.5 26.1 -24.5 24.75 -24.0 23.6 -24.2 23.55 -24.4 23.8 L-24.65 23.95 -24.65 23.85 -25.0 24.25 -25.1 24.25 -25.6 24.75 -26.15 25.3 -26.3 25.45 -26.35 25.5 -26.95 26.1 -27.35 26.25 -27.7 26.55 -27.8 26.55 -27.9 26.65 -28.55 27.05 -28.6 27.05 -29.0 27.2 -29.25 27.25 -29.4 27.25 -29.7 27.35 -30.2 27.3 -30.2 27.25 -30.95 26.95 -31.0 26.95 -31.15 26.9 -31.3 26.85 -31.65 26.65 -31.7 26.65 -31.9 26.5 -32.7 25.9 -32.7 25.8 -32.85 25.75 -32.9 25.6 -33.0 25.6 -33.0 25.45 -33.0 25.4 -33.2 25.2 -33.5 24.8 -34.05 24.0 -34.25 23.4 -34.45 23.15 -34.75 20.7 -34.9 18.8 M-34.3 18.85 L-34.3 18.9 -34.25 18.9 -34.3 18.85 M-32.0 25.65 L-32.05 25.7 -32.25 25.6 -31.45 26.2 -31.45 26.15 -31.4 26.25 -31.1 26.35 -31.05 26.45 -30.75 26.55 -30.05 26.75 -29.85 26.85 -29.4 26.75 -28.8 26.6 -28.0 26.15 -27.85 26.0 -27.05 25.55 -26.9 25.45 -26.75 25.3 -26.55 25.0 -25.95 24.4 -25.4 23.85 -24.25 22.95 -24.0 22.8 -24.0 22.75 -24.0 22.45 -24.1 22.1 -24.15 22.05 -24.2 21.9 Q-24.3 21.65 -24.8 21.5 -25.2 21.3 -25.35 21.6 L-25.4 21.6 -26.95 22.55 -27.5 23.05 -27.95 23.6 -28.8 24.55 -29.45 25.0 -30.35 25.5 -30.45 25.5 -31.05 25.65 -31.05 25.6 -31.3 25.75 -31.35 25.8 -31.4 25.8 -31.55 25.75 -31.55 25.7 -32.0 25.65 M-23.5 22.75 L-23.4 23.0 -23.45 23.0 -23.4 23.1 -23.55 24.15 -23.65 24.65 -23.9 25.85 -23.95 26.2 -23.9 26.3 -23.8 26.95 -23.7 27.05 -23.7 27.2 -23.6 27.25 -23.2 27.55 -22.95 27.65 -22.4 27.65 Q-22.35 27.65 -22.25 27.75 -22.45 26.9 -22.05 25.65 L-22.05 25.4 -21.95 24.95 Q-21.65 23.85 -21.75 23.05 L-21.8 23.05 -22.25 22.5 -23.0 21.8 -24.2 21.6 -23.7 22.25 -23.5 22.75 M-23.5 27.95 L-23.2 28.4 -22.55 29.0 Q-21.95 29.4 -21.75 29.4 L-20.6 29.5 -20.5 29.55 -19.85 29.95 -19.9 30.0 -19.8 30.0 Q-19.8 29.35 -20.1 28.7 L-20.1 28.65 -20.2 28.5 Q-20.55 27.85 -21.4 27.85 L-22.45 27.8 -22.5 27.85 -22.5 27.95 -23.4 27.9 -23.6 27.75 -23.5 27.95 M-19.75 30.1 L-19.8 30.6 -20.4 32.25 -20.65 33.3 -20.75 33.35 -20.7 33.4 -19.95 33.5 -19.95 33.6 -18.45 33.8 -17.7 33.8 -17.45 33.85 -17.05 33.85 -17.2 32.9 -17.35 32.25 -17.45 31.85 -17.65 30.95 -17.65 30.9 -18.0 30.25 -18.05 30.2 -18.05 30.05 -18.2 29.95 -18.6 29.4 -18.85 29.2 -19.1 28.9 -19.25 28.85 -19.5 28.65 -19.8 28.35 -19.9 28.35 -20.1 28.35 -20.05 28.5 -20.0 28.55 Q-19.7 29.1 -19.75 29.9 L-19.75 30.0 -19.75 30.1" fill="#0c380b" fill-rule="evenodd" stroke="none"/>
    <path d="M-31.35 20.6 Q-31.9 22.85 -31.15 24.4 L-31.05 24.55 -30.95 24.6 -30.6 24.85 -30.0 25.0 -30.05 25.1 -30.4 25.35 -30.45 25.3 -30.5 25.4 -30.75 25.4 -31.15 25.45 -31.35 25.5 -31.35 25.45 -31.5 25.5 -32.1 25.2 -32.45 25.1 -32.8 24.75 -32.9 24.65 -32.9 24.7 -33.85 22.5 Q-34.2 21.15 -34.15 19.35 L-31.95 20.35 -31.75 20.4 -31.35 20.6 M-32.0 25.65 L-31.55 25.7 -31.55 25.75 -31.4 25.8 -31.45 25.85 -32.0 25.65 M-23.5 22.75 L-23.7 22.25 -24.2 21.6 -23.0 21.8 -22.25 22.5 -21.8 23.05 -21.75 23.05 Q-21.65 23.85 -21.95 24.95 L-22.05 25.4 -22.05 25.65 Q-22.45 26.9 -22.25 27.75 -22.35 27.65 -22.4 27.65 L-22.95 27.65 -23.2 27.55 -23.6 27.25 -23.7 27.2 -23.7 27.05 -23.8 26.95 -23.9 26.3 -23.95 26.2 -23.9 25.85 -23.65 24.65 -23.55 24.15 -23.4 23.1 -23.45 23.0 -23.4 23.0 -23.5 22.75 M-19.75 29.9 Q-19.7 29.1 -20.0 28.55 L-20.05 28.5 -20.1 28.35 -19.9 28.35 -19.8 28.35 -19.5 28.65 -19.25 28.85 -19.1 28.9 -18.85 29.2 -18.6 29.4 -18.2 29.95 -18.05 30.05 -18.05 30.2 -18.0 30.25 -17.65 30.9 -17.65 30.95 -17.45 31.85 -17.35 32.25 -17.2 32.9 -17.05 33.85 -17.45 33.85 -17.7 33.8 -18.45 33.8 -19.95 33.6 -19.95 33.5 -20.7 33.4 -20.75 33.35 -20.65 33.3 -20.4 32.25 -19.8 30.6 -19.75 30.1 -19.7 30.0 -19.75 29.9" fill="#95ff3c" fill-rule="evenodd" stroke="none"/>
    <path d="M-31.4 25.8 L-31.35 25.8 -31.3 25.75 -31.05 25.6 -31.05 25.65 -30.45 25.5 -30.35 25.5 -29.45 25.0 -28.8 24.55 -27.95 23.6 -27.5 23.05 -26.95 22.55 -25.4 21.6 -25.35 21.6 Q-25.2 21.3 -24.8 21.5 -24.3 21.65 -24.2 21.9 L-24.15 22.05 -24.1 22.1 -24.0 22.45 -24.0 22.75 -24.0 22.8 -24.25 22.95 -25.4 23.85 -25.95 24.4 -26.55 25.0 -26.75 25.3 -26.9 25.45 -27.05 25.55 -27.85 26.0 -28.0 26.15 -28.8 26.6 -29.4 26.75 -29.85 26.85 -30.05 26.75 -30.75 26.55 -31.05 26.45 -31.1 26.35 -31.4 26.25 -31.45 26.15 -31.45 26.2 -32.25 25.6 -32.05 25.7 -32.0 25.65 -31.45 25.85 -31.4 25.8 M-23.5 27.95 L-23.6 27.75 -23.4 27.9 -22.5 27.95 -22.5 27.85 -22.45 27.8 -21.4 27.85 Q-20.55 27.85 -20.2 28.5 L-20.1 28.65 -20.1 28.7 Q-19.8 29.35 -19.8 30.0 L-19.9 30.0 -19.85 29.95 -20.5 29.55 -20.6 29.5 -21.75 29.4 Q-21.95 29.4 -22.55 29.0 L-23.2 28.4 -23.5 27.95 M-19.75 30.1 L-19.75 30.0 -19.75 29.9 -19.7 30.0 -19.75 30.1" fill="#56ad0e" fill-rule="evenodd" stroke="none"/>
    <path d="M31.15 5.9 L28.7 8.2 25.7 10.55 25.35 10.45 Q25.2 10.35 25.2 10.05 25.2 9.8 27.45 7.9 29.85 5.8 31.05 5.55 L31.15 5.9 M19.6 15.5 Q18.35 16.85 11.2 22.55 L11.15 22.55 11.05 22.65 10.95 22.6 10.75 22.65 Q4.05 20.55 4.05 19.95 4.05 19.2 7.7 20.35 L10.85 21.55 Q11.45 20.65 13.95 18.5 17.6 15.4 19.75 14.8 L19.8 14.8 19.85 15.1 19.85 15.15 19.75 15.1 19.6 15.5 M-8.1 15.45 L-4.7 16.55 -4.8 16.7 -5.25 17.6 Q-5.25 18.1 -4.85 18.3 L-5.65 17.8 -5.9 17.65 -6.7 17.55 Q-8.05 16.85 -13.3 15.2 L-17.4 14.0 -18.25 13.7 -21.05 12.15 Q-20.65 11.25 -18.65 12.15 L-16.6 13.05 -10.05 15.0 -9.15 15.2 -9.15 15.55 -8.6 15.65 -8.15 15.55 -8.1 15.45 M-4.0 17.6 Q-3.8 17.9 -3.85 18.25 L-3.95 18.4 -4.15 18.5 -4.3 18.0 -4.0 17.6 M-28.2 9.05 Q-28.65 7.9 -28.7 9.35 -29.55 8.95 -32.25 8.3 -34.5 7.75 -34.5 7.15 L-31.35 7.35 Q-28.2 8.1 -28.2 8.75 L-28.2 9.05" fill="#4a3900" fill-rule="evenodd" stroke="none"/>
    <path d="M29.55 11.6 Q29.55 12.05 27.9 13.35 L25.4 15.2 24.1 19.95 25.35 19.0 Q27.5 17.55 28.3 17.6 L28.4 17.95 23.55 22.05 23.5 22.05 22.85 24.15 22.3 24.05 22.25 23.45 23.05 19.85 24.0 16.5 25.3 12.0 Q26.2 9.45 26.2 11.85 L25.85 13.5 Q26.25 13.15 26.85 12.75 28.85 11.3 29.45 11.25 L29.55 11.6 M19.85 15.15 L20.15 15.4 20.25 15.85 Q20.25 17.35 19.15 23.45 18.0 29.7 17.4 30.95 16.9 30.8 16.9 30.1 16.9 29.2 17.2 27.25 L10.85 31.9 10.8 32.4 10.8 33.6 10.75 34.8 Q10.55 35.95 10.1 36.3 9.6 36.15 9.6 35.65 9.6 34.3 10.0 32.7 L9.85 32.3 9.5 32.35 Q7.95 32.35 4.05 30.15 L4.05 30.85 4.0 31.6 3.55 31.75 Q3.2 31.25 2.9 28.7 L2.65 25.75 2.65 25.65 2.5 25.55 2.45 25.25 2.65 25.1 Q2.7 22.8 3.3 25.0 L6.3 25.45 Q8.65 26.05 10.2 26.75 L10.15 24.45 Q10.3 22.95 11.45 22.75 L11.55 23.2 11.5 24.7 14.05 22.95 18.45 20.2 Q19.1 16.8 19.6 15.5 L19.75 15.1 19.85 15.15 M18.15 21.7 L12.55 25.45 Q12.55 25.95 11.4 26.65 L11.05 30.25 13.3 28.65 Q16.0 26.85 17.35 26.25 L18.0 22.45 18.15 21.7 M6.1 26.7 L3.55 25.95 4.05 29.55 6.0 30.0 9.65 31.5 9.85 31.25 10.15 27.6 10.1 27.6 6.1 26.7 M-4.7 16.55 L-3.95 15.7 -3.6 15.85 Q-3.45 15.95 -3.45 16.25 L-3.85 17.3 -4.0 17.6 -4.3 18.0 -4.15 18.5 -4.1 18.7 Q-3.65 20.4 -3.15 23.0 L-2.65 23.4 Q-2.65 23.85 -3.0 24.0 L-2.45 27.15 -2.3 27.3 -2.35 27.6 -2.35 27.65 -1.95 31.6 -1.95 31.85 -1.75 33.9 -1.8 34.35 Q-1.75 34.5 -2.25 34.5 -2.9 34.5 -3.05 31.65 L-3.05 31.55 -3.65 27.6 -4.2 27.4 -4.35 27.4 Q-6.8 27.4 -13.05 25.0 -14.45 24.45 -15.75 24.0 L-16.1 23.9 Q-18.3 23.4 -19.25 22.8 L-18.9 23.75 -19.05 23.9 -19.5 24.0 Q-19.95 24.0 -21.05 18.5 L-20.8 17.75 -20.85 17.7 -20.45 17.4 -20.35 17.3 -20.3 17.35 Q-19.5 17.15 -17.75 17.8 L-12.65 19.65 Q-11.65 19.85 -7.4 21.35 L-4.45 22.45 -4.85 18.8 -4.85 18.3 Q-5.25 18.1 -5.25 17.6 L-4.8 16.7 -4.7 16.55 M-4.5 26.0 Q-4.15 26.1 -3.85 26.3 L-3.95 25.65 -4.25 23.8 -8.15 22.45 -12.75 20.75 -17.35 19.4 -20.0 18.2 -20.05 18.5 Q-20.05 20.35 -19.35 22.45 L-14.9 23.0 -13.95 23.45 -11.25 24.05 Q-6.4 25.2 -4.7 26.0 L-4.5 26.0 M-28.7 9.35 Q-28.65 7.9 -28.2 9.05 -27.4 11.05 -25.4 21.45 -25.9 21.4 -26.25 21.75 L-26.55 20.85 -26.8 20.85 Q-29.75 20.85 -33.9 18.65 -33.9 17.8 -26.8 20.0 L-27.55 16.5 Q-28.95 16.25 -33.55 14.05 L-30.75 14.2 -27.8 15.25 -28.75 10.1 -28.7 9.35 M-24.25 24.2 L-24.25 25.7 -24.7 26.0 Q-25.2 25.55 -25.2 24.85 -25.2 24.1 -24.7 23.8 L-24.25 24.2" fill="#4d2d00" fill-rule="evenodd" stroke="none"/>
    <path d="M-26.25 21.75 Q-25.9 21.4 -25.4 21.45 L-24.9 21.55 -24.8 21.9 Q-24.8 22.25 -25.25 22.75 L-26.3 23.45 Q-26.8 23.3 -26.8 22.75 L-26.35 21.8 -26.25 21.75" fill="#56ad0e" fill-rule="evenodd" stroke="none"/>
    <path d="M-6.7 17.55 Q-6.45 17.65 -6.35 17.75 -8.65 16.75 -12.7 15.45 L-19.4 13.45 -19.5 13.85 Q-10.15 18.35 -6.4 18.85 L-6.7 18.9 Q-8.6 18.9 -14.65 16.3 L-19.35 14.15 -20.3 13.7 -20.25 13.65 -20.45 13.45 -20.35 13.05 -18.25 13.7 -17.4 14.0 -13.3 15.2 Q-8.05 16.85 -6.7 17.55" fill="#d7ad21" fill-rule="evenodd" stroke="none"/>
    <path d="M-6.35 17.75 L-5.05 18.4 -5.15 18.7 Q-5.35 18.9 -5.65 18.9 L-6.4 18.85 Q-10.15 18.35 -19.5 13.85 L-19.4 13.45 -12.7 15.45 Q-8.65 16.75 -6.35 17.75 M-29.85 10.55 Q-31.65 10.55 -34.1 8.55 -34.1 7.35 -29.15 10.1 -29.3 10.55 -29.85 10.55" fill="#ecdb65" fill-rule="evenodd" stroke="none"/>
    <path d="M13.45 -1.2 L13.15 -1.1 12.75 -1.2 12.6 -1.3 12.55 -1.55 9.6 -2.6 8.8 -0.95 7.7 0.7 Q7.35 0.6 7.25 0.35 L7.5 0.3 8.0 -0.1 Q8.75 -0.75 9.75 -2.95 L9.6 -3.35 9.3 -3.45 8.6 -2.85 Q9.2 -3.65 9.7 -3.65 L11.45 -3.2 12.45 -2.9 12.35 -2.55 Q12.35 -2.2 12.5 -2.1 L12.85 -1.95 Q16.25 -5.15 19.0 -6.85 L19.65 -7.2 19.65 -7.0 18.1 -5.8 17.65 -5.35 16.75 -4.85 16.05 -4.3 14.6 -2.5 13.45 -1.2 M16.45 5.65 L15.6 6.2 15.25 6.05 15.15 5.6 17.05 2.3 16.4 1.25 15.7 0.2 15.75 -0.05 15.7 -0.3 Q15.7 -1.15 17.5 -2.85 19.4 -4.65 20.35 -4.35 L20.45 -3.95 19.05 -2.3 18.2 -1.4 18.3 -1.75 18.15 -2.15 Q17.95 -2.25 17.8 -2.3 L16.7 -1.15 15.9 0.25 Q15.9 0.75 16.4 0.9 L16.7 1.4 17.3 2.55 16.6 3.75 16.35 4.1 16.05 4.4 Q15.3 5.25 15.3 5.5 L15.35 5.85 15.5 5.95 15.9 6.05 16.4 5.65 16.45 5.65" fill="#0d0d0d" fill-rule="evenodd" stroke="none"/>
    <path d="M13.85 -24.05 Q14.45 -23.55 14.85 -22.4 L15.5 -20.65 15.5 -17.55 15.05 -17.3 Q14.45 -17.85 14.35 -18.75 L14.35 -20.35 13.8 -21.9 13.35 -23.35 Q13.35 -23.9 13.85 -24.05 M17.65 -5.35 L18.35 -5.75 Q22.9 -8.1 25.9 -7.9 L26.0 -7.5 23.1 -6.5 Q19.85 -5.35 18.35 -4.2 L16.05 -2.05 13.85 0.1 13.5 -0.05 Q13.35 -0.15 13.35 -0.5 L13.45 -1.2 14.6 -2.5 16.05 -4.3 16.75 -4.85 17.65 -5.35 M-16.85 -10.35 L-16.75 -10.7 Q-16.3 -11.85 -16.3 -12.85 L-16.3 -13.3 -15.8 -13.95 Q-15.35 -13.35 -15.35 -12.45 L-15.45 -10.8 -15.95 -8.35 -16.35 -8.2 Q-16.7 -7.55 -17.0 -7.4 L-17.35 -7.55 -17.5 -8.0 -16.9 -9.45 -16.85 -10.35" fill="#ffffff" fill-rule="evenodd" stroke="none"/>
    <path d="M9.0 -26.5 Q9.0 -27.85 11.0 -26.5 L13.35 -24.4 13.25 -24.1 12.75 -23.9 10.8 -25.3 9.0 -26.5" fill="#cdcdcd" fill-rule="evenodd" stroke="none"/>
    <path d="M-16.85 -10.35 Q-17.25 -9.4 -17.8 -8.8 L-18.15 -8.95 -18.3 -9.4 -17.9 -10.9 -17.5 -12.45 Q-17.35 -13.95 -16.8 -13.95 -16.4 -14.0 -16.3 -13.3 L-16.3 -12.85 Q-16.3 -11.85 -16.75 -10.7 L-16.85 -10.35" fill="#050505" fill-rule="evenodd" stroke="none"/>
    <path d="M-14.9 23.0 L-15.5 22.65 -12.35 22.75 -8.55 23.15 Q-5.05 24.1 -5.05 24.75 L-5.1 25.05 -4.05 25.4 -4.3 25.85 -4.5 26.0 -4.7 26.0 Q-6.4 25.2 -11.25 24.05 L-13.95 23.45 -14.9 23.0" fill="#bf7e1c" fill-rule="evenodd" stroke="none"/>
    <path d="M7.25 0.35 Q1.9 0.85 -0.35 1.5 -2.3 2.0 -3.6 3.05 -4.1 2.9 -4.1 2.4 -4.1 1.55 -0.75 0.5 2.95 -0.65 7.3 -0.7 L7.9 -1.9 8.6 -2.85 9.3 -3.45 9.6 -3.35 9.75 -2.95 Q8.75 -0.75 8.0 -0.1 L7.5 0.3 7.25 0.35 M12.45 -2.9 Q12.8 -4.1 15.7 -6.25 19.15 -8.9 20.95 -8.3 L21.05 -7.9 19.65 -7.2 19.0 -6.85 Q16.25 -5.15 12.85 -1.95 L12.5 -2.1 Q12.35 -2.2 12.35 -2.55 L12.45 -2.9 M18.2 -1.4 L17.05 0.2 17.75 1.05 Q18.45 2.2 18.45 2.9 L17.9 3.85 17.9 3.7 17.8 3.35 Q17.1 3.35 16.35 4.1 L16.6 3.75 17.3 2.55 16.7 1.4 16.4 0.9 Q15.9 0.75 15.9 0.25 L16.7 -1.15 17.8 -2.3 Q17.95 -2.25 18.15 -2.15 L18.3 -1.75 18.2 -1.4 M17.05 5.05 L16.45 5.65 16.4 5.65 17.05 5.05 M21.75 -3.1 Q22.4 -2.6 22.6 -1.3 L22.65 0.45 22.2 3.0 Q21.7 4.8 20.95 5.25 L20.6 5.15 20.45 4.7 Q21.65 1.05 21.65 0.4 L21.25 -2.4 Q21.25 -2.95 21.75 -3.1 M-9.15 15.2 L-9.2 14.0 Q-9.2 11.45 -8.3 8.85 -7.2 5.7 -5.35 4.45 L-5.0 4.55 Q-4.85 4.6 -4.85 4.9 -4.85 5.6 -6.7 8.4 -8.45 11.75 -8.05 15.35 L-8.1 15.45 -8.15 15.55 -8.6 15.65 -9.15 15.55 -9.15 15.2" fill="#0c0c0c" fill-rule="evenodd" stroke="none"/>
    <path d="M17.9 3.85 L19.2 5.15 Q20.85 7.4 20.85 9.5 L20.8 10.6 20.35 10.75 Q19.55 10.75 19.45 9.5 L19.3 7.55 17.5 4.5 17.05 5.05 16.4 5.65 15.9 6.05 15.5 5.95 15.35 5.85 15.3 5.5 Q15.3 5.25 16.05 4.4 L16.35 4.1 Q17.1 3.35 17.8 3.35 L17.9 3.7 17.9 3.85" fill="#414141" fill-rule="evenodd" stroke="none"/>
    <path d="M-7.0 -3.05 Q-8.05 -3.05 -11.2 -5.55 -11.2 -6.4 -8.95 -5.4 -6.75 -4.4 -6.3 -3.55 L-6.4 -3.15 -7.0 -3.05" fill="#555555" fill-rule="evenodd" stroke="none"/>
  </g>
</svg>
