<?xml version="1.0" encoding="UTF-8" standalone="no"?>
<svg xmlns:ffdec="https://www.free-decompiler.com/flash" xmlns:xlink="http://www.w3.org/1999/xlink" ffdec:objectType="shape" height="63.65px" width="122.0px" xmlns="http://www.w3.org/2000/svg">
  <g transform="matrix(1.0, 0.0, 0.0, 1.0, 60.4, 62.85)">
    <path d="M48.65 -61.85 Q60.6 -61.85 60.6 -54.85 L60.6 -18.05 Q60.6 -11.05 48.65 -11.05 L8.75 -11.05 0.15 -0.2 -8.6 -11.05 -47.55 -11.05 -48.3 -11.05 Q-59.4 -11.3 -59.4 -18.05 L-59.4 -54.85 Q-59.4 -61.6 -48.3 -61.85 L-47.55 -61.85 48.65 -61.85" fill="#383838" fill-opacity="0.9019608" fill-rule="evenodd" stroke="none"/>
    <path d="M48.65 -61.85 L-47.55 -61.85 -48.3 -61.85 Q-59.4 -61.6 -59.4 -54.85 L-59.4 -18.05 Q-59.4 -11.3 -48.3 -11.05 L-47.55 -11.05 -8.6 -11.05 0.15 -0.2 8.75 -11.05 48.65 -11.05 Q60.6 -11.05 60.6 -18.05 L60.6 -54.85 Q60.6 -61.85 48.65 -61.85 Z" fill="none" stroke="#000000" stroke-linecap="round" stroke-linejoin="round" stroke-width="2.0" vector-effect="non-scaling-stroke"/>
  </g>
</svg>
