<?xml version="1.0" encoding="UTF-8" standalone="no"?>
<svg xmlns:ffdec="https://www.free-decompiler.com/flash" xmlns:xlink="http://www.w3.org/1999/xlink" ffdec:objectType="shape" height="59.95px" width="59.3px" xmlns="http://www.w3.org/2000/svg">
  <g transform="matrix(1.0, 0.0, 0.0, 1.0, 29.6, 29.9)">
    <path d="M-29.6 -20.5 L-26.6 -23.75 -26.6 26.25 -26.5 26.45 -28.15 24.8 -29.6 23.55 -29.6 -20.5 M23.55 -29.9 L24.75 -28.45 27.6 -25.55 Q28.6 -24.05 29.7 -22.8 L29.7 24.5 26.9 27.2 24.05 30.05 -22.65 30.05 -25.5 27.6 -26.05 26.95 -25.45 27.05 25.75 27.05 26.55 26.75 26.7 26.1 26.7 -25.45 26.65 -25.9 26.55 -26.3 25.85 -26.9 -23.9 -26.9 -21.45 -29.9 23.55 -29.9" fill="#003db8" fill-rule="evenodd" stroke="none"/>
  </g>
</svg>
