<?xml version="1.0" encoding="UTF-8" standalone="no"?>
<svg xmlns:ffdec="https://www.free-decompiler.com/flash" xmlns:xlink="http://www.w3.org/1999/xlink" ffdec:objectType="shape" height="56.95px" width="56.3px" xmlns="http://www.w3.org/2000/svg">
  <g transform="matrix(1.0, 0.0, 0.0, 1.0, 27.15, 28.45)">
    <path d="M27.75 -26.45 L28.3 -25.9 28.3 -1.1 29.15 -1.1 29.15 25.65 29.15 25.75 27.6 27.7 27.0 28.45 26.3 28.5 0.25 28.5 0.25 27.75 -0.15 27.75 -0.15 27.5 -22.9 27.5 -22.9 27.75 -23.05 27.75 -23.05 28.5 -23.5 28.5 -23.7 28.3 -25.0 27.0 -25.6 26.2 Q-26.0 25.65 -26.35 25.55 L-27.15 24.95 -27.15 -25.6 -27.15 -25.8 -24.35 -28.25 -24.0 -28.45 26.15 -28.45 Q26.2 -28.05 26.4 -27.8 L27.75 -26.45 M27.25 4.2 L27.1 4.3 27.2 4.35 27.25 4.55 27.25 4.2 M26.05 26.4 L26.05 26.5 26.2 26.4 26.05 26.4" fill="url(#gradient0)" fill-rule="evenodd" stroke="none"/>
    <path d="M1.3 -10.5 Q1.25 -9.95 0.8 -9.55 0.45 -9.15 -0.15 -9.15 L-4.8 -9.15 -5.1 -9.05 -5.15 -9.0 -5.25 -8.7 -5.25 27.35 -5.25 27.5 -18.35 27.5 -18.35 27.35 -18.35 -8.7 -18.4 -8.95 -18.45 -9.0 -18.8 -9.15 -23.4 -9.15 Q-24.0 -9.15 -24.35 -9.55 -24.8 -9.95 -24.85 -10.45 L-24.85 -10.5 -24.5 -11.45 -24.5 -11.5 -12.9 -26.0 -12.25 -26.4 -11.4 -26.45 -10.75 -26.0 -10.75 -25.95 0.95 -11.45 1.3 -10.5 M-0.15 -10.6 L-11.8 -25.1 -23.4 -10.6 -16.9 -10.6 -16.9 27.35 -6.7 27.35 -6.7 -10.6 -0.15 -10.6" fill="#ffffff" fill-opacity="0.29803923" fill-rule="evenodd" stroke="none"/>
    <path d="M-0.15 -10.6 L-6.7 -10.6 -6.7 27.35 -16.9 27.35 -16.9 -10.6 -23.4 -10.6 -11.8 -25.1 -0.15 -10.6" fill="url(#gradient1)" fill-rule="evenodd" stroke="none"/>
    <path d="M1.65 -6.9 L2.65 -6.7 3.3 -6.55 5.55 -5.25 5.5 -5.25 7.15 -4.1 8.2 -4.95 8.25 -4.95 Q9.35 -5.75 10.9 -6.25 L13.7 -7.05 14.0 -7.1 16.5 -7.1 16.95 -7.0 Q20.55 -5.8 21.4 -4.75 L21.55 -4.5 21.85 -4.25 22.8 -3.35 22.9 -3.2 23.55 -1.95 23.6 -1.85 23.9 -1.25 24.25 -0.7 24.25 -0.5 24.45 0.2 24.5 0.4 24.6 2.1 24.4 5.35 24.4 5.45 23.95 6.8 23.15 9.25 22.9 9.75 22.35 10.75 22.35 10.85 20.65 13.05 20.65 13.1 16.85 16.6 12.75 20.2 12.7 20.25 10.2 22.05 10.0 22.25 9.85 22.35 8.9 23.0 8.95 23.0 8.05 23.6 7.65 23.85 7.0 24.0 6.6 24.0 5.95 23.85 5.6 23.6 4.9 23.2 Q3.35 22.5 -1.35 18.85 L-3.4 17.05 -4.95 15.9 -5.0 15.85 Q-7.05 13.95 -8.45 12.05 L-8.55 11.9 -8.6 11.75 -8.7 11.7 Q-9.65 10.6 -10.0 9.6 L-10.05 9.35 -10.15 9.15 -10.85 7.35 -11.2 5.65 -11.3 4.45 -11.3 4.25 -11.2 2.3 -11.15 2.1 -11.05 1.4 -11.05 1.35 -11.0 1.15 -10.75 -0.2 -10.75 -0.25 Q-10.4 -1.4 -9.25 -2.85 L-8.35 -4.05 Q-7.95 -4.6 -7.35 -4.95 L-6.2 -5.8 -6.1 -5.8 -5.55 -6.15 -4.7 -6.45 -4.75 -6.45 Q-2.6 -7.25 0.3 -7.05 L1.6 -6.95 1.65 -6.9 M2.65 -5.25 L1.25 -5.6 0.45 -5.65 -4.25 -5.1 -5.15 -4.85 -5.45 -4.6 -6.5 -3.9 -7.3 -3.1 -8.0 -2.15 -9.4 0.15 -9.65 1.35 -9.65 1.5 -9.8 2.35 -9.9 4.3 -9.8 5.55 -9.5 6.8 -8.85 8.6 -8.7 9.1 -7.5 10.85 -7.35 11.1 -7.3 11.2 -4.05 14.8 -2.5 16.0 -0.5 17.7 Q4.25 21.4 5.6 21.95 L6.5 22.45 6.6 22.6 7.0 22.6 7.15 22.45 8.1 21.8 8.8 21.35 9.15 21.05 9.3 20.95 11.75 19.15 15.85 15.55 19.7 12.0 21.1 10.1 21.6 9.1 21.75 8.75 22.55 6.4 23.0 5.1 23.2 2.1 23.1 0.55 22.9 -0.15 22.6 -0.55 22.35 -1.2 21.65 -2.5 20.95 -3.15 20.35 -3.8 Q19.55 -4.65 16.5 -5.7 L14.0 -5.7 11.35 -4.9 Q10.0 -4.45 9.05 -3.8 L7.2 -2.15 7.15 -2.15 6.5 -2.8 4.65 -4.1 Q4.05 -4.6 2.65 -5.25" fill="#ffffff" fill-opacity="0.49803922" fill-rule="evenodd" stroke="none"/>
    <path d="M2.65 -5.25 Q4.05 -4.6 4.65 -4.1 L6.5 -2.8 7.15 -2.15 7.2 -2.15 9.05 -3.8 Q10.0 -4.45 11.35 -4.9 L14.0 -5.7 16.5 -5.7 Q19.55 -4.65 20.35 -3.8 L20.95 -3.15 21.65 -2.5 22.35 -1.2 22.6 -0.55 22.9 -0.15 23.1 0.55 23.2 2.1 23.0 5.1 22.55 6.4 21.75 8.75 21.6 9.1 21.1 10.1 19.7 12.0 15.85 15.55 11.75 19.15 9.3 20.95 9.15 21.05 8.8 21.35 8.1 21.8 7.15 22.45 7.0 22.6 6.6 22.6 6.5 22.45 5.6 21.95 Q4.25 21.4 -0.5 17.7 L-2.5 16.0 -4.05 14.8 -7.3 11.2 -7.35 11.1 -7.5 10.85 -8.7 9.1 -8.85 8.6 -9.5 6.8 -9.8 5.55 -9.9 4.3 -9.8 2.35 -9.65 1.5 -9.65 1.35 -9.4 0.15 -8.0 -2.15 -7.3 -3.1 -6.5 -3.9 -5.45 -4.6 -5.15 -4.85 -4.25 -5.1 0.45 -5.65 1.25 -5.6 2.65 -5.25 M0.1 -3.95 L-0.2 -3.95 -1.2 -3.9 -1.35 -3.9 -3.0 -3.55 -4.55 -2.95 -6.0 -1.65 -6.45 -1.1 -4.5 -2.55 -5.2 -2.05 Q-6.45 -1.1 -6.95 -0.15 L-6.45 -1.1 Q-8.15 0.8 -8.15 3.9 -8.15 8.95 -1.4 14.65 2.4 17.85 6.8 20.3 L6.95 20.4 7.15 20.2 7.25 20.2 Q7.4 20.05 7.6 19.95 11.65 17.4 16.85 12.55 18.85 10.6 20.25 8.2 L21.4 5.55 Q21.75 4.3 21.75 2.75 21.75 1.75 21.05 0.0 20.4 -1.65 19.8 -2.0 18.55 -2.95 17.5 -3.2 L17.1 -3.3 16.65 -3.5 15.85 -3.55 15.0 -3.5 14.85 -3.5 Q12.25 -3.5 10.6 -2.6 9.3 -1.9 7.2 0.2 6.35 -0.75 4.3 -2.1 1.9 -3.65 0.1 -3.95" fill="#4f0500" fill-rule="evenodd" stroke="none"/>
    <path d="M0.1 -3.95 Q1.9 -3.65 4.3 -2.1 6.35 -0.75 7.2 0.2 9.3 -1.9 10.6 -2.6 12.25 -3.5 14.85 -3.5 L15.0 -3.5 15.85 -3.55 16.65 -3.5 17.1 -3.3 17.5 -3.2 Q18.55 -2.95 19.8 -2.0 20.4 -1.65 21.05 0.0 21.75 1.75 21.75 2.75 21.75 4.3 21.4 5.55 L20.25 8.2 Q18.85 10.6 16.85 12.55 11.65 17.4 7.6 19.95 7.4 20.05 7.25 20.2 L7.15 20.2 6.95 20.4 6.8 20.3 Q2.4 17.85 -1.4 14.65 -8.15 8.95 -8.15 3.9 -8.15 0.8 -6.45 -1.1 L-6.95 -0.15 Q-6.45 -1.1 -5.2 -2.05 L-4.5 -2.55 -6.45 -1.1 -6.0 -1.65 -4.55 -2.95 -3.0 -3.55 -1.35 -3.9 -1.2 -3.9 -0.2 -3.95 0.1 -3.95 M19.2 6.9 Q20.3 5.55 20.7 4.0 L20.9 2.7 20.9 2.25 20.9 2.0 Q20.85 0.65 20.2 -0.3 L19.05 -1.4 Q18.35 -1.9 16.3 -2.45 L16.2 -2.55 14.15 -2.85 Q12.0 -2.85 10.15 -1.35 L8.9 -0.05 8.35 0.85 7.05 1.85 6.85 2.05 6.8 2.1 6.75 2.1 6.7 2.0 Q5.1 0.25 2.75 -1.4 0.7 -2.25 -0.4 -2.3 L-1.3 -2.3 Q-3.1 -2.2 -4.6 -0.65 L-4.95 -0.3 Q-6.55 1.5 -6.55 3.45 -6.55 5.05 -5.75 6.85 L-5.75 6.9 Q-4.95 8.65 -3.65 10.1 L-1.8 11.95 -0.75 12.85 -0.65 12.95 Q4.15 16.65 6.7 18.2 L7.0 18.4 7.05 18.4 Q7.65 18.4 9.0 17.65 L9.7 16.95 Q12.85 14.7 15.4 12.0 L17.85 8.9 19.2 6.9" fill="#ff3800" fill-rule="evenodd" stroke="none"/>
    <path d="M8.35 0.85 L8.9 -0.05 10.15 -1.35 Q12.0 -2.85 14.15 -2.85 L16.2 -2.55 16.3 -2.45 Q18.35 -1.9 19.05 -1.4 L20.2 -0.3 Q20.85 0.65 20.9 2.0 L20.9 2.25 20.9 2.7 20.7 4.0 Q20.3 5.55 19.2 6.9 L19.15 6.95 Q16.95 9.55 13.15 9.55 10.6 9.55 9.05 7.8 7.75 6.2 7.75 3.65 7.75 2.05 8.35 0.85 M16.45 -1.15 Q14.3 -2.4 11.9 -1.1 L10.15 0.4 Q9.7 1.1 9.7 2.65 9.7 4.45 10.55 5.55 11.6 7.05 14.0 7.05 16.65 7.05 17.45 5.45 L18.1 4.15 18.35 3.0 18.25 2.15 17.95 1.15 18.25 0.8 Q18.25 -0.15 16.45 -1.15" fill="#ff5400" fill-rule="evenodd" stroke="none"/>
    <path d="M16.45 -1.15 Q18.25 -0.15 18.25 0.8 L17.95 1.15 18.25 2.15 18.35 3.0 18.1 4.15 17.45 5.45 Q16.65 7.05 14.0 7.05 11.6 7.05 10.55 5.55 9.7 4.45 9.7 2.65 9.7 1.1 10.15 0.4 L11.9 -1.1 Q14.3 -2.4 16.45 -1.15 M16.3 4.55 Q16.95 3.7 16.95 2.9 16.95 2.0 16.25 1.2 15.2 -0.05 13.05 -0.1 12.2 0.15 11.8 0.75 L11.35 1.65 11.0 2.7 10.95 3.65 Q10.95 4.45 11.2 4.8 11.8 5.75 13.55 5.75 15.4 5.75 16.3 4.55" fill="#ff8438" fill-rule="evenodd" stroke="none"/>
    <path d="M16.3 4.55 Q15.4 5.75 13.55 5.75 11.8 5.75 11.2 4.8 10.95 4.45 10.95 3.65 L11.0 2.7 11.35 1.65 11.8 0.75 Q12.2 0.15 13.05 -0.1 15.2 -0.05 16.25 1.2 16.95 2.0 16.95 2.9 16.95 3.7 16.3 4.55" fill="#fffadb" fill-rule="evenodd" stroke="none"/>
    <path d="M8.35 0.85 Q7.75 2.05 7.75 3.65 7.75 6.2 9.05 7.8 10.6 9.55 13.15 9.55 16.95 9.55 19.15 6.95 L19.2 6.9 17.85 8.9 15.4 12.0 Q12.85 14.7 9.7 16.95 L9.0 17.65 Q7.65 18.4 7.05 18.4 L7.0 18.4 6.7 18.2 Q4.15 16.65 -0.65 12.95 L-0.75 12.85 -1.8 11.95 -3.65 10.1 Q-4.95 8.65 -5.75 6.9 L-5.75 6.85 Q-6.55 5.05 -6.55 3.45 -6.55 1.5 -4.95 -0.3 L-4.6 -0.65 Q-3.1 -2.2 -1.3 -2.3 L-0.4 -2.3 Q0.7 -2.25 2.75 -1.4 5.1 0.25 6.7 2.0 L6.75 2.1 6.8 2.1 6.85 2.05 7.05 1.85 8.35 0.85" fill="url(#gradient2)" fill-rule="evenodd" stroke="none"/>
  </g>
  <defs>
    <linearGradient gradientTransform="matrix(-3.0E-4, -0.0322, 0.0169, -2.0E-4, 3.5, 0.95)" gradientUnits="userSpaceOnUse" id="gradient0" spreadMethod="pad" x1="-819.2" x2="819.2">
      <stop offset="0.0" stop-color="#000000"/>
      <stop offset="1.0" stop-color="#ff3800"/>
    </linearGradient>
    <linearGradient gradientTransform="matrix(-0.0015, -0.022, 0.7985, -0.053, 5.6, 2.55)" gradientUnits="userSpaceOnUse" id="gradient1" spreadMethod="pad" x1="-819.2" x2="819.2">
      <stop offset="0.0" stop-color="#ff4600"/>
      <stop offset="1.0" stop-color="#000000"/>
    </linearGradient>
    <linearGradient gradientTransform="matrix(-0.0105, 0.0043, -0.0055, -0.0135, 2.65, 11.55)" gradientUnits="userSpaceOnUse" id="gradient2" spreadMethod="pad" x1="-819.2" x2="819.2">
      <stop offset="0.0" stop-color="#ff3800"/>
      <stop offset="1.0" stop-color="#9c0200"/>
    </linearGradient>
  </defs>
</svg>
