<?xml version="1.0" encoding="UTF-8" standalone="no"?>
<svg xmlns:ffdec="https://www.free-decompiler.com/flash" xmlns:xlink="http://www.w3.org/1999/xlink" ffdec:objectType="shape" height="63.45px" width="64.15px" xmlns="http://www.w3.org/2000/svg">
  <g transform="matrix(1.0, 0.0, 0.0, 1.0, 32.2, 31.75)">
    <path d="M28.4 -14.3 Q31.3 -8.65 31.65 -1.9 L31.65 -1.75 31.65 -0.8 31.7 -0.6 31.7 -0.05 Q31.7 7.8 28.4 14.25 26.15 18.6 22.35 22.35 18.05 26.7 12.9 29.05 7.0 31.7 -0.05 31.7 -7.05 31.7 -12.95 29.05 -18.2 26.7 -22.55 22.35 -26.0 18.9 -28.15 14.9 -31.75 8.2 -31.75 -0.05 -31.75 -8.3 -28.15 -15.0 -26.0 -19.0 -22.55 -22.5 -18.8 -26.2 -14.4 -28.45 -7.9 -31.75 -0.05 -31.75 7.85 -31.75 14.3 -28.45 18.65 -26.2 22.35 -22.5 26.15 -18.7 28.4 -14.3" fill="#de9200" fill-rule="evenodd" stroke="none"/>
    <path d="M12.0 -16.5 Q12.0 -12.95 12.8 -11.5 13.3 -10.6 14.6 -9.65 L15.25 -9.4 Q16.85 -8.85 18.45 -8.85 20.65 -8.85 24.05 -10.9 27.3 -12.85 27.9 -14.25 L29.2 -11.45 29.25 -11.25 Q26.5 -9.4 25.2 -8.1 23.1 -6.05 23.1 -4.15 23.1 -2.0 24.65 -1.35 L28.0 -0.95 29.5 -1.1 30.45 -1.2 31.1 -1.35 31.65 -1.7 31.65 -1.5 31.65 -0.8 31.95 -0.2 31.7 3.15 29.75 3.15 29.9 3.15 29.25 3.2 28.1 3.4 Q25.85 3.9 24.05 5.35 L23.15 6.2 22.85 6.5 Q19.95 9.6 19.95 14.0 L19.95 14.1 Q20.65 16.7 22.7 18.55 L24.1 19.65 22.75 21.2 22.55 21.5 Q21.3 21.05 19.45 20.55 15.25 19.4 14.1 19.4 L13.25 19.45 12.15 19.85 11.1 20.4 Q9.15 22.2 8.65 24.6 8.35 26.0 8.5 30.45 L5.0 30.95 4.2 30.95 Q3.75 28.15 3.15 27.0 1.8 26.15 0.15 26.15 L-0.4 26.2 -1.5 26.6 -2.2 27.35 -2.85 28.3 -4.1 31.35 -5.15 31.15 -7.1 31.05 -7.2 31.0 -7.2 30.7 Q-5.7 26.6 -5.7 25.4 -5.7 23.3 -6.3 21.35 L-7.0 20.5 Q-7.4 20.15 -8.9 19.45 -10.55 18.7 -11.15 18.7 -13.45 18.7 -16.45 19.7 -19.75 20.8 -22.45 22.65 -22.65 22.15 -23.2 21.7 L-24.0 20.95 -22.2 19.55 -19.3 16.8 Q-18.35 16.05 -15.75 11.4 L-14.05 8.3 -14.05 8.15 Q-14.3 6.6 -15.3 5.1 -16.2 3.7 -17.3 3.15 L-17.05 3.15 -19.05 1.6 Q-19.65 1.25 -20.4 0.9 L-19.1 0.9 Q-17.3 0.55 -16.7 0.0 -16.1 -0.45 -15.95 -1.4 -16.1 -3.4 -17.6 -5.25 L-17.6 -5.4 Q-16.5 -4.85 -14.95 -4.35 L-11.9 -3.75 Q-9.5 -3.75 -8.85 -4.5 L-8.8 -4.55 -8.4 -5.45 -6.25 -2.3 -11.0 -2.3 Q-14.95 -2.3 -14.95 -1.8 -14.95 -1.15 -13.45 0.15 L-13.1 0.5 -7.5 4.8 -7.4 6.3 -11.65 11.95 -11.85 12.35 -11.95 12.45 -12.85 14.35 -11.6 14.55 -9.5 14.25 -5.0 13.45 -4.65 13.4 -4.25 13.3 -3.55 13.2 -1.4 14.5 1.0 21.85 1.35 22.5 1.5 22.8 1.75 23.7 2.05 23.95 2.3 24.25 2.35 24.2 2.4 24.25 2.55 24.3 Q3.85 22.35 4.0 21.65 L6.85 15.3 8.75 14.45 15.55 17.3 16.0 17.4 16.5 17.5 17.15 17.65 18.55 17.95 18.65 17.85 18.85 17.9 18.75 17.6 18.5 17.0 18.35 16.75 17.7 15.85 17.6 15.7 17.45 15.25 14.3 8.8 15.0 6.7 21.35 2.25 21.8 1.8 23.85 0.25 23.8 0.2 20.5 -0.5 12.9 -1.8 12.55 -2.35 12.45 -2.45 11.85 -3.15 11.6 -3.4 10.7 -4.0 10.75 -4.0 10.4 -4.2 9.7 -4.65 9.55 -10.35 9.6 -11.3 9.6 -12.45 9.25 -14.0 7.55 -12.5 6.3 -11.15 5.55 -10.4 4.6 -9.35 4.55 -9.3 2.5 -6.7 2.3 -6.45 -1.3 -12.1 Q-1.0 -12.95 -1.0 -14.05 L-1.2 -17.75 -0.45 -16.15 Q0.05 -15.15 0.65 -14.5 L0.8 -14.4 Q1.9 -13.8 2.7 -13.8 5.85 -13.8 9.3 -17.95 L13.2 -23.15 Q12.25 -20.75 12.05 -18.05 L12.0 -16.5" fill="#f2ff00" fill-opacity="0.9019608" fill-rule="evenodd" stroke="none"/>
    <path d="M-23.05 29.3 L-22.7 29.6 -23.05 29.3" fill="url(#gradient0)" fill-rule="evenodd" stroke="none"/>
    <path d="M-31.65 1.15 L-32.2 1.1 -32.2 0.05 -31.8 0.1 -31.65 1.15" fill="url(#gradient1)" fill-rule="evenodd" stroke="none"/>
    <path d="M-31.65 1.15 L-30.25 1.2 Q-23.8 1.3 -16.1 -1.4 -8.45 -4.15 -3.85 -8.25 L2.1 -13.9 4.4 -16.55 Q7.5 -20.6 9.65 -25.35 L11.5 -30.15 13.6 -29.0 15.15 -28.15 17.1 -26.95 Q16.05 -21.65 13.15 -14.75 10.25 -7.9 3.2 -1.45 -3.85 4.95 -12.75 7.85 -21.7 10.7 -30.4 9.45 L-30.75 7.5 -31.65 1.15" fill="url(#gradient2)" fill-rule="evenodd" stroke="none"/>
    <path d="M21.0 -25.35 L23.9 -21.1 25.25 -19.0 24.15 -13.7 Q23.15 -10.05 20.75 -3.35 18.3 3.35 11.1 9.3 3.9 15.25 -3.25 17.4 -10.45 19.55 -15.4 19.9 L-16.65 19.95 -24.4 19.3 -26.65 18.85 Q-28.7 16.6 -30.05 14.35 L-31.5 11.5 -29.75 11.85 -22.0 12.5 Q-16.4 12.3 -8.8 10.05 -1.25 7.75 5.75 1.3 12.75 -5.15 15.3 -11.3 17.8 -17.5 18.8 -21.15 L19.95 -26.65 20.45 -26.05 21.0 -25.35" fill="url(#gradient3)" fill-rule="evenodd" stroke="none"/>
    <path d="M-31.5 -4.25 L-31.25 -7.25 Q-25.9 -6.4 -19.2 -8.3 -12.55 -10.25 -8.3 -14.05 -4.1 -17.85 -2.9 -19.45 L-0.85 -17.4 Q-2.4 -15.2 -6.3 -11.65 -10.5 -7.8 -17.2 -5.3 -23.95 -2.8 -31.5 -4.25" fill="url(#gradient4)" fill-rule="evenodd" stroke="none"/>
    <path d="M8.2 -3.75 L8.9 -3.55 9.35 -3.35 9.6 -3.2 9.95 -2.95 11.15 -1.85 11.55 -1.3 11.85 -0.8 12.05 -0.45 12.3 -0.4 11.35 0.5 Q11.15 0.9 11.1 1.55 L11.05 2.2 Q11.05 3.65 11.8 4.6 L11.85 4.65 Q12.55 5.55 13.65 5.55 L13.7 5.55 13.7 5.75 13.6 5.75 13.6 6.0 13.6 6.35 13.55 6.7 13.3 7.4 13.1 8.0 12.8 8.65 12.7 8.9 13.0 9.5 12.3 9.15 12.4 9.0 11.7 8.85 11.5 8.85 11.3 8.85 Q10.15 9.0 9.45 10.3 L9.35 10.45 Q8.9 11.3 8.75 12.2 L8.65 12.85 8.35 13.1 8.25 13.2 8.2 13.2 8.2 13.25 Q8.05 13.3 7.85 13.45 L6.75 13.9 5.75 14.2 5.7 14.15 5.35 15.0 Q5.0 13.85 4.3 13.35 4.0 13.1 3.65 13.0 L2.9 12.9 Q0.45 12.9 0.05 14.25 L-0.15 13.5 -1.45 12.9 -1.95 12.6 -2.45 12.25 -3.0 11.75 -2.95 10.55 Q-2.95 9.8 -3.2 9.2 -3.45 8.55 -4.0 8.1 -4.8 7.45 -6.15 7.15 L-5.85 6.8 -5.85 6.75 -6.15 5.4 -6.15 5.3 -6.0 4.6 -5.25 1.8 -4.7 -0.05 -4.3 -1.5 -4.25 -1.6 -4.2 -1.6 -4.25 -1.65 Q-3.8 -1.85 -2.85 -2.5 L-1.2 -3.65 0.6 -4.2 Q1.75 -4.55 1.95 -4.95 L2.05 -5.2 3.25 -5.35 3.3 -5.3 3.15 -5.2 3.35 -5.2 2.6 -4.25 2.55 -4.05 2.55 -4.0 2.6 -3.7 Q2.85 -3.2 3.7 -2.8 4.75 -2.3 5.8 -2.15 L7.45 -2.25 8.25 -2.8 8.2 -3.75 M1.6 5.0 Q1.25 5.55 1.25 6.1 1.25 6.8 4.3 9.5 L5.55 10.55 5.7 8.65 5.7 8.3 5.55 5.1 Q5.25 3.9 3.7 3.9 3.4 3.9 2.95 4.2 L2.8 4.2 Q2.0 4.3 1.6 5.0" fill="#484747" fill-rule="evenodd" stroke="none"/>
    <path d="M3.35 -5.2 L7.95 -10.85 8.05 -10.8 8.2 -3.75 8.25 -2.8 7.45 -2.25 5.8 -2.15 Q4.75 -2.3 3.7 -2.8 2.85 -3.2 2.6 -3.7 L2.55 -4.0 2.55 -4.05 2.6 -4.25 3.35 -5.2 M12.3 -0.4 L13.1 -0.25 17.9 0.45 18.35 0.55 20.1 0.85 20.45 1.0 20.45 1.05 20.5 1.0 20.4 1.2 13.7 5.4 13.7 5.55 13.65 5.55 Q12.55 5.55 11.85 4.65 L11.8 4.6 Q11.05 3.65 11.05 2.2 L11.1 1.55 Q11.15 0.9 11.35 0.5 L12.3 -0.4 M13.0 9.5 L16.2 15.9 16.1 15.9 10.65 13.6 10.2 13.45 9.95 13.35 9.1 13.05 9.1 13.1 8.7 12.8 8.65 12.85 8.75 12.2 Q8.9 11.3 9.35 10.45 L9.45 10.3 Q10.15 9.0 11.3 8.85 L11.5 8.85 11.7 8.85 12.4 9.0 12.3 9.15 13.0 9.5 M5.35 15.0 L2.55 21.5 2.45 21.45 2.0 20.6 1.7 19.6 1.5 19.0 1.3 18.55 1.05 17.75 1.0 17.6 0.65 16.4 0.55 15.95 0.35 15.3 0.3 15.05 0.05 14.35 0.05 14.25 Q0.45 12.9 2.9 12.9 L3.65 13.0 Q4.0 13.1 4.3 13.35 5.0 13.85 5.35 15.0 M-3.0 11.75 L-3.2 11.55 -3.25 11.6 -3.6 11.7 -3.6 11.65 -4.95 11.85 -5.1 11.9 -10.45 12.9 -10.45 12.85 -9.95 12.3 -9.75 11.95 -6.15 7.15 Q-4.8 7.45 -4.0 8.1 -3.45 8.55 -3.2 9.2 -2.95 9.8 -2.95 10.55 L-3.0 11.75 M-6.15 5.3 L-6.15 5.0 -6.05 4.0 -6.55 3.65 -7.15 3.2 -7.25 3.15 -7.6 2.85 -9.05 1.85 -9.65 1.4 -10.8 0.6 -11.75 -0.05 -12.3 -0.5 -12.2 -0.7 -12.15 -0.7 -11.95 -0.7 -5.55 -0.85 -5.25 -0.85 -4.75 -0.85 -4.7 -0.85 -4.65 -0.9 -4.3 -1.5 -4.7 -0.05 -5.25 1.8 -6.0 4.6 -6.15 5.3 M-4.25 -1.65 L-4.35 -1.75 -4.4 -1.8 -5.05 -2.55 -5.15 -2.75 -5.25 -3.0 -6.35 -4.55 -6.3 -4.6 -6.35 -4.65 Q-6.35 -5.1 -5.35 -5.8 L-4.9 -6.1 -4.6 -6.35 -4.3 -6.5 -4.65 -7.2 -4.85 -7.3 Q-5.4 -6.95 -5.75 -6.85 L-5.9 -6.75 -6.45 -6.45 -7.05 -6.45 -8.15 -7.7 -9.15 -8.95 Q-10.95 -11.25 -10.95 -11.75 L-10.05 -12.45 Q-9.9 -12.9 -9.0 -13.3 L-9.35 -13.9 -9.7 -14.6 -10.1 -14.3 -10.4 -14.1 -11.0 -13.8 -11.7 -13.8 -14.0 -16.4 -15.45 -18.35 -15.55 -18.55 -15.65 -18.8 -15.6 -18.95 -15.6 -19.0 Q-15.6 -19.35 -14.45 -20.1 L-14.0 -20.6 -14.65 -21.65 -16.0 -21.0 -16.35 -20.85 -17.0 -20.85 -18.15 -22.4 -19.05 -23.85 -18.7 -24.3 -18.0 -24.5 -18.05 -24.4 -17.05 -23.45 -16.3 -22.5 -15.2 -23.2 -15.3 -23.3 -15.6 -23.85 -15.3 -24.25 -14.9 -24.45 -14.35 -24.3 -13.95 -23.85 -13.5 -23.85 Q-12.9 -24.2 -12.9 -24.45 -12.9 -24.85 -13.55 -25.65 L-14.15 -26.35 Q-13.5 -27.15 -12.75 -26.35 L-12.65 -26.2 -12.5 -26.0 -11.75 -25.0 -11.7 -24.95 -11.55 -24.75 -11.55 -24.5 -11.45 -24.1 -11.4 -24.15 -11.4 -24.05 -11.4 -24.0 -11.4 -23.95 -11.45 -23.9 -12.45 -23.1 -13.15 -22.5 -13.2 -22.45 -13.15 -22.3 -13.25 -22.25 -12.45 -21.15 -12.35 -21.15 -12.3 -21.3 -11.95 -21.45 -11.65 -21.5 -10.35 -22.1 -9.75 -22.05 -8.1 -19.45 Q-6.75 -17.25 -6.75 -16.85 L-7.75 -16.05 -7.7 -16.0 -7.7 -15.95 -7.8 -16.0 -8.7 -15.35 -8.75 -15.3 -8.65 -15.2 -8.6 -15.1 -7.8 -13.8 -7.5 -13.95 -7.45 -13.95 -6.0 -14.7 -5.15 -14.65 -4.8 -14.15 Q-1.95 -10.25 -1.95 -9.5 -1.95 -9.25 -3.0 -8.65 L-3.4 -8.4 -3.6 -8.25 -3.55 -8.1 -2.95 -7.2 -2.45 -7.45 -1.3 -8.2 -0.8 -8.55 -0.45 -8.55 1.1 -6.1 1.65 -5.15 1.8 -5.2 2.05 -5.2 1.95 -4.95 Q1.75 -4.55 0.6 -4.2 L-1.2 -3.65 -2.85 -2.5 Q-3.8 -1.85 -4.25 -1.65 M-9.85 -19.25 L-10.25 -19.95 -10.55 -20.4 -11.4 -20.15 -11.35 -20.05 -11.4 -20.05 -11.5 -20.05 -11.45 -20.0 -11.5 -20.0 -11.25 -19.65 -10.85 -18.95 Q-10.85 -18.55 -11.85 -18.2 L-11.9 -18.2 -12.3 -18.65 Q-12.6 -19.2 -12.85 -19.2 L-13.05 -19.2 -13.0 -19.1 -13.1 -19.2 -13.4 -18.95 -13.4 -18.9 -13.5 -18.85 -13.65 -18.75 -13.5 -18.5 -12.25 -16.65 -11.8 -16.05 -11.35 -15.55 -11.3 -15.45 -11.15 -15.45 Q-10.85 -15.45 -10.65 -15.65 L-10.55 -15.85 -10.85 -16.3 -10.85 -16.4 -10.9 -16.55 -11.0 -16.7 -11.15 -17.0 -11.1 -17.1 -10.6 -17.4 -10.25 -17.65 -9.95 -17.65 -9.65 -17.1 -9.65 -17.05 -9.5 -16.75 -9.3 -16.55 -9.25 -16.5 -8.6 -17.1 -8.75 -17.35 -9.0 -17.9 -9.5 -18.6 -9.85 -19.25 M-7.2 -17.1 L-7.25 -17.15 -7.25 -17.1 -7.2 -17.1 M-6.5 -12.95 L-6.85 -12.7 -6.25 -11.65 -6.55 -11.3 -6.8 -11.1 -7.35 -10.95 -7.75 -11.3 -8.15 -11.85 -8.85 -11.45 -7.95 -10.0 -7.0 -8.25 -7.0 -8.3 -6.95 -8.25 Q-6.05 -8.5 -6.05 -8.8 L-6.05 -8.9 -6.05 -8.95 -6.15 -9.0 -6.3 -9.55 -6.5 -9.75 Q-6.5 -10.15 -5.25 -10.4 L-4.5 -9.25 -4.25 -9.5 -4.1 -9.5 -3.75 -9.65 -3.75 -9.7 -3.8 -9.75 -4.1 -10.1 -4.5 -10.6 -4.85 -11.25 -4.9 -11.3 -5.35 -11.9 -6.1 -13.1 -6.15 -13.05 -6.15 -13.1 -6.35 -13.1 -6.3 -13.05 -6.45 -12.85 -6.5 -12.95 M-4.85 -9.6 L-4.9 -9.7 -5.0 -9.9 -4.85 -9.6 M-1.3 -6.7 L-1.85 -6.3 -2.15 -6.15 -1.4 -4.95 Q-1.4 -4.7 -1.6 -4.6 L-2.1 -4.3 -2.3 -4.3 -2.4 -4.25 -2.65 -4.35 -2.7 -4.45 -2.75 -4.45 -3.1 -4.95 -3.15 -5.05 -3.3 -5.25 -3.75 -5.25 -4.55 -4.65 -4.35 -4.25 -3.8 -3.5 -3.35 -2.7 -3.3 -2.6 -2.6 -3.1 -2.55 -3.15 -1.15 -3.85 0.1 -4.55 -0.3 -5.25 -0.85 -6.0 -1.2 -6.35 -1.3 -6.7 M-7.2 -11.1 L-7.25 -11.1 -7.2 -11.1 M1.6 5.0 Q2.0 4.3 2.8 4.2 L2.95 4.2 Q3.4 3.9 3.7 3.9 5.25 3.9 5.55 5.1 L5.7 8.3 5.7 8.65 5.55 10.55 4.3 9.5 Q1.25 6.8 1.25 6.1 1.25 5.55 1.6 5.0" fill="#000000" fill-rule="evenodd" stroke="none"/>
    <path d="M-6.5 -12.95 L-6.45 -12.85 -6.3 -13.05 -6.35 -13.1 -6.15 -13.1 -6.15 -13.05 -6.1 -13.1 -5.35 -11.9 -4.9 -11.3 -4.85 -11.25 -4.5 -10.6 -4.1 -10.1 -3.8 -9.75 -3.75 -9.7 -3.75 -9.65 -4.1 -9.5 -4.25 -9.5 -4.5 -9.25 -5.25 -10.4 Q-6.5 -10.15 -6.5 -9.75 L-6.3 -9.55 -6.15 -9.0 -6.05 -8.95 -6.05 -8.9 -6.05 -8.8 Q-6.05 -8.5 -6.95 -8.25 L-7.0 -8.3 -7.0 -8.25 -7.95 -10.0 -8.85 -11.45 -8.15 -11.85 -7.75 -11.3 -7.35 -10.95 -6.8 -11.1 -6.55 -11.3 -6.25 -11.65 -6.85 -12.7 -6.5 -12.95 M-7.2 -17.1 L-7.25 -17.1 -7.25 -17.15 -7.2 -17.1 M-9.85 -19.25 L-9.5 -18.6 -9.0 -17.9 -8.75 -17.35 -8.6 -17.1 -9.25 -16.5 -9.3 -16.55 -9.5 -16.75 -9.65 -17.05 -9.65 -17.1 -9.95 -17.65 -10.25 -17.65 -10.6 -17.4 -11.1 -17.1 -11.15 -17.0 -11.0 -16.7 -10.9 -16.55 -10.85 -16.4 -10.85 -16.3 -10.55 -15.85 -10.65 -15.65 Q-10.85 -15.45 -11.15 -15.45 L-11.3 -15.45 -11.35 -15.55 -11.8 -16.05 -12.25 -16.65 -13.5 -18.5 -13.65 -18.75 -13.5 -18.85 -13.4 -18.9 -13.4 -18.95 -13.1 -19.2 -13.0 -19.1 -13.05 -19.2 -12.85 -19.2 Q-12.6 -19.2 -12.3 -18.65 L-11.9 -18.2 -11.85 -18.2 Q-10.85 -18.55 -10.85 -18.95 L-11.25 -19.65 -11.5 -20.0 -11.45 -20.0 -11.5 -20.05 -11.4 -20.05 -11.35 -20.05 -11.4 -20.15 -10.55 -20.4 -10.25 -19.95 -9.85 -19.25 M-7.2 -11.1 L-7.25 -11.1 -7.2 -11.1 M-1.3 -6.7 L-1.2 -6.35 -0.85 -6.0 -0.3 -5.25 0.1 -4.55 -1.15 -3.85 -2.55 -3.15 -2.6 -3.1 -3.3 -2.6 -3.35 -2.7 -3.8 -3.5 -4.35 -4.25 -4.55 -4.65 -3.75 -5.25 -3.3 -5.25 -3.15 -5.05 -3.1 -4.95 -2.75 -4.45 -2.7 -4.45 -2.65 -4.35 -2.4 -4.25 -2.3 -4.3 -2.1 -4.3 -1.6 -4.6 Q-1.4 -4.7 -1.4 -4.95 L-2.15 -6.15 -1.85 -6.3 -1.3 -6.7 M-4.85 -9.6 L-5.0 -9.9 -4.9 -9.7 -4.85 -9.6" fill="#ffffff" fill-rule="evenodd" stroke="none"/>
    <path d="M-1.3 -12.1 Q-1.0 -12.95 -1.0 -14.05 L-1.2 -17.75 -0.45 -16.15 Q0.05 -15.15 0.65 -14.5 L0.8 -14.4 Q1.9 -13.8 2.7 -13.8 4.7 -13.8 6.85 -15.45 L9.3 -17.95 11.2 -20.3 13.2 -23.15 12.65 -21.45 Q12.2 -19.8 12.05 -18.05 L12.0 -16.5 Q12.0 -12.95 12.8 -11.5 13.3 -10.6 14.6 -9.65 L15.25 -9.4 Q16.85 -8.85 18.45 -8.85 20.65 -8.85 24.05 -10.9 27.3 -12.85 27.9 -14.25 L29.2 -11.45 29.25 -11.25 Q26.5 -9.4 25.2 -8.1 23.1 -6.05 23.1 -4.15 23.1 -2.0 24.65 -1.35 L28.0 -0.95 29.5 -1.1 30.45 -1.2 31.1 -1.35 31.65 -1.7 31.65 -1.5 31.65 -0.8 31.95 -0.2 31.7 3.15 29.75 3.15 29.9 3.15 29.25 3.2 28.1 3.4 Q25.85 3.9 24.05 5.35 L23.15 6.2 22.85 6.5 Q19.95 9.6 19.95 14.0 L19.95 14.1 Q20.65 16.7 22.7 18.55 L24.1 19.65 22.75 21.2 22.55 21.5 Q21.3 21.05 19.45 20.55 15.25 19.4 14.1 19.4 L13.25 19.45 12.15 19.85 11.1 20.4 Q9.15 22.2 8.65 24.6 8.35 26.0 8.5 30.45 L5.0 30.95 4.2 30.95 Q3.75 28.15 3.15 27.0 1.8 26.15 0.15 26.15 L-0.4 26.2 -1.5 26.6 -2.2 27.35 -2.85 28.3 -4.1 31.35 -5.15 31.15 -7.1 31.05 -7.2 31.0 -7.2 30.7 Q-5.7 26.6 -5.7 25.4 -5.7 23.3 -6.3 21.35 L-7.0 20.5 Q-7.4 20.15 -8.9 19.45 -10.55 18.7 -11.15 18.7 -13.45 18.7 -16.45 19.7 -19.75 20.8 -22.45 22.65 -22.65 22.15 -23.2 21.7 L-24.0 20.95 -22.2 19.55 -19.3 16.8 Q-18.35 16.05 -15.75 11.4 L-14.05 8.3 -14.05 8.15 Q-14.3 6.6 -15.3 5.1 -16.2 3.7 -17.3 3.15 L-17.05 3.15 -19.05 1.6 Q-19.65 1.25 -20.4 0.9 L-19.1 0.9 Q-17.3 0.55 -16.7 0.0 -16.1 -0.45 -15.95 -1.4 -16.1 -3.4 -17.6 -5.25 L-17.6 -5.4 Q-16.5 -4.85 -14.95 -4.35 L-11.9 -3.75 Q-9.5 -3.75 -8.85 -4.5 L-8.8 -4.55 -8.4 -5.45 -6.25 -2.3 -11.0 -2.3 Q-14.95 -2.3 -14.95 -1.8 -14.95 -1.15 -13.45 0.15 L-13.1 0.5 -7.5 4.8 -7.4 6.3 -11.65 11.95 -11.85 12.35 -11.95 12.45 -12.85 14.35 -11.6 14.55 -9.5 14.25 -5.0 13.45 -4.65 13.4 -4.25 13.3 -3.55 13.2 -1.4 14.5 1.0 21.85 1.35 22.5 1.5 22.8 1.75 23.7 2.05 23.95 2.3 24.25 2.35 24.2 2.4 24.25 2.55 24.3 Q3.85 22.35 4.0 21.65 L6.85 15.3 8.75 14.45 15.55 17.3 16.0 17.4 16.5 17.5 17.15 17.65 18.55 17.95 18.65 17.85 18.85 17.9 18.75 17.6 18.5 17.0 18.35 16.75 17.7 15.85 17.6 15.7 17.45 15.25 14.3 8.8 15.0 6.7 21.35 2.25 21.8 1.8 23.85 0.25 23.8 0.2 20.5 -0.5 12.9 -1.8 12.55 -2.35 12.45 -2.45 11.85 -3.15 11.6 -3.4 10.7 -4.0 10.75 -4.0 10.4 -4.2 9.7 -4.65 9.55 -10.35 9.6 -11.3 9.6 -12.45 9.45 -13.25 9.25 -14.0 7.95 -12.85 7.55 -12.5 6.3 -11.15 5.55 -10.4 4.6 -9.35 4.55 -9.3 3.6 -8.1 2.65 -6.85 2.5 -6.7 2.4 -6.55 2.3 -6.45 -1.3 -12.1" fill="#ffe000" fill-opacity="0.4392157" fill-rule="evenodd" stroke="none"/>
    <path d="M-8.4 -5.45 L-21.2 -23.85 -12.4 -29.5 -1.3 -12.1 2.3 -6.45 2.4 -6.55 2.5 -6.7 2.65 -6.85 3.6 -8.1 4.55 -9.3 4.6 -9.35 5.55 -10.4 6.3 -11.15 7.55 -12.5 7.95 -12.85 9.25 -14.0 9.45 -13.25 9.6 -12.45 9.6 -11.3 9.55 -10.35 9.7 -4.65 10.4 -4.2 10.75 -4.0 10.7 -4.0 11.6 -3.4 11.85 -3.15 12.45 -2.45 12.55 -2.35 12.9 -1.8 20.5 -0.5 23.8 0.2 23.85 0.25 21.8 1.8 21.35 2.25 15.0 6.7 14.3 8.8 17.45 15.25 17.6 15.7 17.7 15.85 18.35 16.75 18.5 17.0 18.75 17.6 18.85 17.9 18.65 17.85 18.55 17.95 17.15 17.65 16.5 17.5 16.0 17.4 15.55 17.3 8.75 14.45 6.85 15.3 4.0 21.65 Q3.85 22.35 2.55 24.3 L2.4 24.25 2.35 24.2 2.3 24.25 2.05 23.95 1.75 23.7 1.5 22.8 1.35 22.5 1.0 21.85 -1.4 14.5 -3.55 13.2 -4.25 13.3 -4.65 13.4 -5.0 13.45 -9.5 14.25 -11.6 14.55 -12.85 14.35 -11.95 12.45 -11.85 12.35 -11.65 11.95 -7.4 6.3 -7.5 4.8 -13.1 0.5 -13.45 0.15 Q-14.95 -1.15 -14.95 -1.8 -14.95 -2.3 -11.0 -2.3 L-6.25 -2.3 -8.4 -5.45 M8.2 -3.75 L8.05 -10.8 7.95 -10.85 3.35 -5.2 3.15 -5.2 3.3 -5.3 3.25 -5.35 2.05 -5.2 1.8 -5.2 1.65 -5.15 1.1 -6.1 -0.45 -8.55 -0.8 -8.55 -1.3 -8.2 -2.45 -7.45 -2.95 -7.2 -3.55 -8.1 -3.6 -8.25 -3.4 -8.4 -3.0 -8.65 Q-1.95 -9.25 -1.95 -9.5 -1.95 -10.25 -4.8 -14.15 L-5.15 -14.65 -6.0 -14.7 -7.45 -13.95 -7.5 -13.95 -7.8 -13.8 -8.6 -15.1 -8.65 -15.2 -8.75 -15.3 -8.7 -15.35 -7.8 -16.0 -7.7 -15.95 -7.7 -16.0 -7.75 -16.05 -6.75 -16.85 Q-6.75 -17.25 -8.1 -19.45 L-9.75 -22.05 -10.35 -22.1 -11.65 -21.5 -11.95 -21.45 -12.3 -21.3 -12.35 -21.15 -12.45 -21.15 -13.25 -22.25 -13.15 -22.3 -13.2 -22.45 -13.15 -22.5 -12.45 -23.1 -11.45 -23.9 -11.4 -23.95 -11.4 -24.0 -11.4 -24.05 -11.4 -24.15 -11.45 -24.1 -11.55 -24.5 -11.55 -24.75 -11.7 -24.95 -11.75 -25.0 -12.5 -26.0 -12.65 -26.2 -12.75 -26.35 Q-13.5 -27.15 -14.15 -26.35 L-13.55 -25.65 Q-12.9 -24.85 -12.9 -24.45 -12.9 -24.2 -13.5 -23.85 L-13.95 -23.85 -14.35 -24.3 -14.9 -24.45 -15.3 -24.25 -15.6 -23.85 -15.3 -23.3 -15.2 -23.2 -16.3 -22.5 -17.05 -23.45 -18.05 -24.4 -18.0 -24.5 -18.7 -24.3 -19.05 -23.85 -18.15 -22.4 -17.0 -20.85 -16.35 -20.85 -16.0 -21.0 -14.65 -21.65 -14.0 -20.6 -14.45 -20.1 Q-15.6 -19.35 -15.6 -19.0 L-15.6 -18.95 -15.65 -18.8 -15.55 -18.55 -15.45 -18.35 -14.0 -16.4 -11.7 -13.8 -11.0 -13.8 -10.4 -14.1 -10.1 -14.3 -9.7 -14.6 -9.35 -13.9 -9.0 -13.3 Q-9.9 -12.9 -10.05 -12.45 L-10.95 -11.75 Q-10.95 -11.25 -9.15 -8.95 L-8.15 -7.7 -7.05 -6.45 -6.45 -6.45 -5.9 -6.75 -5.75 -6.85 Q-5.4 -6.95 -4.85 -7.3 L-4.65 -7.2 -4.3 -6.5 -4.6 -6.35 -4.9 -6.1 -5.35 -5.8 Q-6.35 -5.1 -6.35 -4.65 L-6.3 -4.6 -6.35 -4.55 -5.25 -3.0 -5.15 -2.75 -5.05 -2.55 -4.4 -1.8 -4.35 -1.75 -4.25 -1.65 -4.2 -1.6 -4.25 -1.6 -4.3 -1.5 -4.65 -0.9 -4.7 -0.85 -4.75 -0.85 -5.25 -0.85 -5.55 -0.85 -11.95 -0.7 -12.15 -0.7 -12.2 -0.7 -12.3 -0.5 -11.75 -0.05 -10.8 0.6 -9.65 1.4 -9.05 1.85 -7.6 2.85 -7.25 3.15 -7.15 3.2 -6.55 3.65 -6.05 4.0 -6.15 5.0 -6.15 5.3 -6.15 5.4 -5.85 6.75 -5.85 6.8 -6.15 7.15 -9.75 11.95 -9.95 12.3 -10.45 12.85 -10.45 12.9 -5.1 11.9 -4.95 11.85 -3.6 11.65 -3.6 11.7 -3.25 11.6 -3.2 11.55 -3.0 11.75 -2.45 12.25 -1.95 12.6 -1.45 12.9 -0.15 13.5 0.05 14.25 0.05 14.35 0.3 15.05 0.35 15.3 0.55 15.95 0.65 16.4 1.0 17.6 1.05 17.75 1.3 18.55 1.5 19.0 1.7 19.6 2.0 20.6 2.45 21.45 2.55 21.5 5.35 15.0 5.7 14.15 5.75 14.2 6.75 13.9 7.85 13.45 Q8.05 13.3 8.2 13.25 L8.2 13.2 8.25 13.2 8.35 13.1 8.65 12.85 8.7 12.8 9.1 13.1 9.1 13.05 9.95 13.35 10.2 13.45 10.65 13.6 16.1 15.9 16.2 15.9 13.0 9.5 12.7 8.9 12.8 8.65 13.1 8.0 13.3 7.4 13.55 6.7 13.6 6.35 13.6 6.0 13.6 5.75 13.7 5.75 13.7 5.55 13.7 5.4 20.4 1.2 20.5 1.0 20.45 1.05 20.45 1.0 20.1 0.85 18.35 0.55 17.9 0.45 13.1 -0.25 12.3 -0.4 12.05 -0.45 11.85 -0.8 11.55 -1.3 11.15 -1.85 9.95 -2.95 9.6 -3.2 9.35 -3.35 8.9 -3.55 8.2 -3.75 M-16.3 -19.8 L-16.2 -19.65 -16.2 -19.7 -16.2 -19.8 -16.3 -19.8" fill="#ffffff" fill-opacity="0.83137256" fill-rule="evenodd" stroke="none"/>
  </g>
  <defs>
    <linearGradient gradientTransform="matrix(-0.0346, 0.0188, 0.016, 0.0294, 4.35, 8.05)" gradientUnits="userSpaceOnUse" id="gradient0" spreadMethod="pad" x1="-819.2" x2="819.2">
      <stop offset="0.0" stop-color="#ffffff" stop-opacity="0.2"/>
      <stop offset="1.0" stop-color="#ffffff" stop-opacity="0.6"/>
    </linearGradient>
    <linearGradient gradientTransform="matrix(-0.0314, 0.0202, 0.0148, 0.0224, -4.85, -5.85)" gradientUnits="userSpaceOnUse" id="gradient1" spreadMethod="pad" x1="-819.2" x2="819.2">
      <stop offset="0.00392156862745098" stop-color="#ffffff" stop-opacity="0.2"/>
      <stop offset="1.0" stop-color="#ffffff" stop-opacity="0.6"/>
    </linearGradient>
    <linearGradient gradientTransform="matrix(-0.0361, 0.0168, 0.0145, 0.0303, 0.35, 4.95)" gradientUnits="userSpaceOnUse" id="gradient2" spreadMethod="pad" x1="-819.2" x2="819.2">
      <stop offset="0.0" stop-color="#000000" stop-opacity="0.2"/>
      <stop offset="1.0" stop-color="#000000" stop-opacity="0.7254902"/>
    </linearGradient>
    <linearGradient gradientTransform="matrix(-0.0361, 0.0168, 0.0145, 0.0303, -2.6, 0.75)" gradientUnits="userSpaceOnUse" id="gradient3" spreadMethod="pad" x1="-819.2" x2="819.2">
      <stop offset="0.0" stop-color="#000000" stop-opacity="0.2"/>
      <stop offset="1.0" stop-color="#000000" stop-opacity="0.7254902"/>
    </linearGradient>
    <linearGradient gradientTransform="matrix(-0.0247, 0.0115, 0.0145, 0.0303, -12.0, 10.5)" gradientUnits="userSpaceOnUse" id="gradient4" spreadMethod="pad" x1="-819.2" x2="819.2">
      <stop offset="0.0" stop-color="#000000" stop-opacity="0.2"/>
      <stop offset="1.0" stop-color="#000000" stop-opacity="0.7254902"/>
    </linearGradient>
  </defs>
</svg>
