<?xml version="1.0" encoding="UTF-8" standalone="no"?>
<svg xmlns:ffdec="https://www.free-decompiler.com/flash" xmlns:xlink="http://www.w3.org/1999/xlink" ffdec:objectType="shape" height="59.95px" width="59.3px" xmlns="http://www.w3.org/2000/svg">
  <g transform="matrix(1.0, 0.0, 0.0, 1.0, 29.55, 29.9)">
    <path d="M17.3 -28.0 L25.15 -27.8 27.05 -25.25 28.05 -23.95 28.05 -14.95 10.65 -1.65 Q10.5 -3.35 9.8 -4.8 L9.3 -5.75 9.25 -5.8 6.45 -6.8 17.3 -28.0 M27.8 16.05 L27.95 23.7 Q27.5 24.45 27.15 25.35 L24.85 28.75 12.9 28.75 4.15 7.45 8.4 7.0 Q8.85 6.0 9.7 5.2 L11.7 3.95 27.8 16.05 M-10.65 28.75 L-20.9 28.75 -21.5 27.95 Q-24.05 24.75 -27.1 22.25 L-27.45 21.95 -27.55 18.7 -8.2 4.25 Q-7.25 6.4 -4.95 7.65 L-3.75 8.25 -2.0 8.8 -10.65 28.75 M-27.55 -14.45 L-27.35 -24.3 -23.45 -27.75 -14.95 -27.75 -3.65 -7.4 -5.2 -6.55 -7.15 -4.75 -7.6 -4.15 -8.55 -2.1 -11.0 -3.3 -10.8 -2.15 -27.55 -14.45" fill="#ecb400" fill-rule="evenodd" stroke="none"/>
    <path d="M17.3 -28.0 L6.45 -6.8 9.25 -5.8 9.3 -5.75 9.8 -4.8 Q10.5 -3.35 10.65 -1.65 L28.05 -14.95 27.8 16.05 11.7 3.95 9.7 5.2 Q8.85 6.0 8.4 7.0 L4.15 7.45 12.9 28.75 -10.65 28.75 -2.0 8.8 -3.75 8.25 -4.95 7.65 Q-7.25 6.4 -8.2 4.25 L-27.55 18.7 -27.55 -14.45 -10.8 -2.15 -11.0 -3.3 -8.55 -2.1 -7.6 -4.15 -7.15 -4.75 -5.2 -6.55 -3.65 -7.4 -14.95 -27.75 17.3 -28.0" fill="#ffe948" fill-rule="evenodd" stroke="none"/>
    <path d="M5.4 -15.95 Q4.15 -18.6 1.7 -20.25 1.25 -20.6 0.8 -20.55 0.35 -20.5 -0.05 -20.15 -2.65 -17.8 -4.45 -14.75 L-6.05 -11.55 -6.05 -11.5 -6.9 -9.0 -11.25 -8.85 Q-14.8 -8.8 -17.85 -7.25 L-18.45 -6.7 -18.65 -5.9 -18.35 -5.2 -14.3 -0.1 -14.35 -0.1 Q-12.8 1.65 -10.8 2.9 -11.9 5.9 -12.35 8.95 -12.8 12.0 -12.75 13.8 -12.75 15.6 -12.45 15.95 L-11.65 16.4 -10.7 16.3 Q-5.65 14.25 0.15 10.9 L1.3 11.5 1.2 11.4 Q5.65 14.35 10.55 15.9 L10.65 15.9 12.2 16.3 13.0 16.3 13.65 15.8 13.9 15.05 14.05 12.25 Q14.05 8.35 13.0 4.85 L12.4 3.2 Q14.7 1.5 16.6 -0.75 18.4 -2.95 19.6 -5.25 L20.0 -6.05 20.1 -6.85 19.8 -7.55 19.2 -7.95 14.0 -9.4 13.95 -9.4 11.45 -9.8 11.2 -9.85 8.7 -9.65 7.7 -9.6 7.1 -11.7 5.4 -15.95 M6.65 -17.5 L8.55 -12.9 8.6 -12.7 8.8 -12.05 9.15 -11.5 9.2 -11.5 9.9 -11.35 12.05 -11.5 12.15 -11.5 12.4 -11.45 12.55 -11.45 15.1 -11.0 15.15 -11.0 15.3 -10.95 20.9 -9.4 21.0 -9.4 22.15 -8.55 22.6 -7.6 22.65 -7.4 22.65 -7.35 22.5 -6.1 22.55 -6.1 22.45 -5.95 Q21.05 -2.9 18.7 -0.1 L18.6 0.05 15.05 3.55 14.75 4.05 14.75 4.0 14.75 4.6 14.75 4.65 14.9 5.1 14.95 5.25 Q16.1 9.1 16.1 13.4 L15.95 16.55 15.95 16.6 15.5 17.8 15.4 17.9 15.35 18.0 14.45 18.65 14.35 18.65 14.3 18.7 14.15 18.75 12.9 18.75 12.75 18.7 11.4 18.4 11.35 18.35 11.3 18.35 11.2 18.35 11.1 18.3 11.0 18.3 Q5.8 16.6 1.15 13.6 L1.0 13.55 0.95 13.5 0.9 13.5 0.55 13.3 0.05 13.2 -0.4 13.35 Q-5.6 16.55 -11.1 18.6 L-11.1 18.65 -11.2 18.65 -12.85 18.9 -12.95 18.85 -12.9 18.85 Q-13.65 18.65 -14.15 18.15 L-14.3 18.0 Q-14.85 17.4 -14.85 16.6 L-14.85 16.5 Q-14.85 13.3 -14.45 10.25 -14.1 7.2 -13.3 4.25 L-13.3 4.3 -13.3 3.7 -13.6 3.2 -13.65 3.2 -16.3 0.7 -16.4 0.55 -16.4 0.6 -16.6 0.3 -16.6 0.25 -20.7 -4.85 -20.75 -4.9 -21.2 -6.05 -21.2 -6.1 -21.2 -6.2 -21.2 -6.25 -20.95 -7.45 -20.85 -7.55 -20.85 -7.6 -20.8 -7.65 Q-20.4 -8.3 -19.8 -8.6 -16.3 -10.35 -12.2 -10.4 L-8.95 -10.5 -8.4 -10.7 -8.05 -11.2 -7.65 -12.4 -7.6 -12.5 -7.5 -12.7 -5.8 -16.2 -5.7 -16.4 Q-3.7 -19.8 -0.75 -22.4 -0.1 -22.95 0.7 -23.05 1.5 -23.15 2.25 -22.65 L2.35 -22.55 Q5.2 -20.6 6.65 -17.5" fill="#ffec62" fill-rule="evenodd" stroke="none"/>
    <path d="M5.4 -15.95 L7.1 -11.7 7.7 -9.6 8.7 -9.65 11.2 -9.85 11.45 -9.8 13.95 -9.4 14.0 -9.4 19.2 -7.95 19.8 -7.55 20.1 -6.85 20.0 -6.05 19.6 -5.25 Q18.4 -2.95 16.6 -0.75 14.7 1.5 12.4 3.2 L13.0 4.85 Q14.05 8.35 14.05 12.25 L13.9 15.05 13.65 15.8 13.0 16.3 12.2 16.3 10.65 15.9 10.55 15.9 Q5.65 14.35 1.2 11.4 L1.3 11.5 0.15 10.9 Q-5.65 14.25 -10.7 16.3 L-11.65 16.4 -12.45 15.95 Q-12.75 15.6 -12.75 13.8 -12.8 12.0 -12.35 8.95 -11.9 5.9 -10.8 2.9 -12.8 1.65 -14.35 -0.1 L-14.3 -0.1 -18.35 -5.2 -18.65 -5.9 -18.45 -6.7 -17.85 -7.25 Q-14.8 -8.8 -11.25 -8.85 L-6.9 -9.0 -6.05 -11.5 -6.05 -11.55 -4.45 -14.75 Q-2.65 -17.8 -0.05 -20.15 0.35 -20.5 0.8 -20.55 1.25 -20.6 1.7 -20.25 4.15 -18.6 5.4 -15.95 M18.4 -5.9 L18.5 -6.2 18.7 -6.65 13.65 -8.05 11.2 -8.45 8.75 -8.25 7.05 -8.2 6.45 -7.95 6.55 -8.2 5.75 -11.3 4.1 -15.35 Q3.0 -17.65 0.85 -19.15 -1.6 -16.9 -3.3 -14.05 L-4.75 -11.05 -5.85 -7.6 -11.25 -7.45 Q-14.5 -7.4 -17.25 -6.0 L-16.7 -5.25 -16.35 -4.75 -13.3 -1.0 Q-11.5 1.1 -9.0 2.4 -10.5 5.8 -10.95 8.95 L-11.65 14.9 Q-5.9 12.8 0.1 9.35 L1.95 10.25 Q6.25 13.1 10.95 14.6 L12.5 14.95 12.65 12.25 Q12.65 8.6 11.6 5.3 L10.85 3.25 10.45 2.8 Q13.3 0.95 15.5 -1.65 17.25 -3.7 18.4 -5.9" fill="#543200" fill-rule="evenodd" stroke="none"/>
    <path d="M-16.35 -4.75 L-16.7 -5.25 -17.25 -6.0 Q-14.5 -7.4 -11.25 -7.45 L-5.85 -7.6 -4.75 -11.05 -3.3 -14.05 Q-1.6 -16.9 0.85 -19.15 3.0 -17.65 4.1 -15.35 L5.75 -11.3 6.55 -8.2 6.45 -7.95 7.05 -8.2 8.75 -8.25 11.2 -8.45 13.65 -8.05 18.7 -6.65 18.5 -6.2 18.4 -5.9 18.2 -5.9 13.7 -6.25 5.55 -5.9 Q5.4 -8.4 4.2 -11.25 2.75 -14.6 1.45 -15.6 0.05 -15.95 -0.7 -15.0 L-1.45 -13.85 Q-2.65 -12.35 -4.35 -5.65 L-9.6 -6.0 -11.75 -6.1 -13.0 -5.9 Q-15.35 -5.45 -16.35 -4.75" fill="#ecb400" fill-rule="evenodd" stroke="none"/>
    <path d="M-16.35 -4.75 Q-15.35 -5.45 -13.0 -5.9 L-11.75 -6.1 -9.6 -6.0 -4.35 -5.65 Q-2.65 -12.35 -1.45 -13.85 L-0.7 -15.0 Q0.05 -15.95 1.45 -15.6 2.75 -14.6 4.2 -11.25 5.4 -8.4 5.55 -5.9 L13.7 -6.25 18.2 -5.9 18.4 -5.9 Q17.25 -3.7 15.5 -1.65 13.3 0.95 10.45 2.8 L10.85 3.25 11.6 5.3 Q12.65 8.6 12.65 12.25 L12.5 14.95 10.95 14.6 Q6.25 13.1 1.95 10.25 L0.1 9.35 Q-5.9 12.8 -11.65 14.9 L-10.95 8.95 Q-10.5 5.8 -9.0 2.4 -11.5 1.1 -13.3 -1.0 L-16.35 -4.75" fill="url(#gradient0)" fill-rule="evenodd" stroke="none"/>
    <path d="M-20.0 30.05 L-21.5 27.95 -22.25 27.05 25.8 27.05 26.1 27.0 24.0 30.05 -20.0 30.05 M-29.55 -22.55 L-26.55 -25.0 -26.55 22.7 -27.1 22.25 -29.55 20.45 -29.55 -22.55 M23.65 -29.9 L25.8 -26.9 -24.4 -26.9 -22.95 -28.2 -21.05 -29.9 23.65 -29.9 M26.75 -25.45 L26.75 -25.65 27.05 -25.25 29.75 -22.0 29.75 21.45 Q28.15 22.85 27.15 25.35 L26.75 26.0 26.75 -25.45" fill="#ecb400" fill-rule="evenodd" stroke="none"/>
  </g>
  <defs>
    <linearGradient gradientTransform="matrix(5.0E-4, -0.0263, 0.9253, 0.0176, -25.35, -1.9)" gradientUnits="userSpaceOnUse" id="gradient0" spreadMethod="pad" x1="-819.2" x2="819.2">
      <stop offset="0.0" stop-color="#ffba43"/>
      <stop offset="1.0" stop-color="#dc5700"/>
    </linearGradient>
  </defs>
</svg>
