<?xml version="1.0" encoding="UTF-8" standalone="no"?>
<svg xmlns:ffdec="https://www.free-decompiler.com/flash" xmlns:xlink="http://www.w3.org/1999/xlink" ffdec:objectType="shape" height="59.95px" width="59.3px" xmlns="http://www.w3.org/2000/svg">
  <g transform="matrix(1.0, 0.0, 0.0, 1.0, 29.6, 29.95)">
    <path d="M14.95 -28.6 L19.1 -28.6 18.85 -28.4 18.6 -28.4 14.95 -28.6" fill="#ffffff" fill-rule="evenodd" stroke="none"/>
    <path d="M-1.15 -22.25 L-1.2 -22.05 -1.4 -22.05 -1.15 -22.25" fill="#f8facc" fill-rule="evenodd" stroke="none"/>
    <path d="M27.8 -5.75 L28.1 -5.85 27.9 26.15 25.9 27.85 25.8 27.95 24.45 27.95 9.4 19.2 Q11.65 18.55 11.9 17.0 L9.15 14.95 11.2 14.3 12.4 13.85 Q17.75 11.9 19.35 10.6 L17.45 9.45 14.85 7.9 27.55 1.35 27.8 -5.75 M-27.85 -6.2 L-27.9 -8.45 -27.95 -8.75 -27.9 -9.75 -27.9 -11.9 -28.1 -12.15 -27.9 -12.55 -27.9 -25.5 -25.2 -28.6 -5.65 -28.6 Q-6.85 -25.45 -10.05 -19.7 -14.6 -11.6 -14.6 -7.65 -14.6 -5.1 -13.75 -1.65 -12.85 2.05 -11.75 3.45 L-10.05 4.85 Q-9.65 7.05 -7.6 9.35 L-2.3 12.45 -2.25 12.4 -1.9 12.7 -0.85 13.3 -0.8 13.3 0.9 14.3 -5.25 15.0 -5.35 15.15 -16.25 8.2 -27.7 -12.55 -27.8 -12.8 -27.85 -6.2 M-3.1 -28.6 L2.9 -28.6 3.1 -28.7 Q-0.05 -23.4 -1.15 -22.25 L-1.0 -23.35 Q-1.0 -24.75 -2.5 -27.55 L-3.1 -28.6 M6.1 -28.6 L13.7 -28.6 8.15 -23.95 6.4 -22.45 6.4 -22.55 6.45 -24.2 Q6.45 -26.5 6.1 -28.6" fill="#320900" fill-rule="evenodd" stroke="none"/>
    <path d="M24.45 -27.5 L25.45 -27.25 15.7 -17.1 23.7 -6.75 27.45 -11.1 27.4 -6.55 26.9 -6.05 22.8 -3.0 Q19.4 -0.35 18.55 1.0 19.1 0.7 19.6 0.65 L20.5 0.6 21.35 0.6 24.5 0.95 Q22.8 1.65 20.4 3.3 L16.45 6.05 15.55 6.6 Q15.3 6.75 15.1 6.85 L12.15 9.05 9.5 8.05 3.35 9.1 Q3.2 9.05 3.3 9.25 L2.95 8.55 Q2.45 7.55 1.5 6.75 L-4.3 6.15 -5.7 3.8 -8.6 3.4 -9.15 2.25 -9.65 1.55 -9.85 1.15 -10.45 -0.05 -10.7 -0.75 -11.95 -3.25 -6.15 -18.0 -4.4 -25.1 -4.4 -25.3 Q-3.6 -24.8 -3.2 -22.1 -2.85 -19.45 -3.25 -18.15 L-3.65 -16.9 -1.35 -19.55 3.6 -24.95 3.8 -24.95 3.95 -23.05 3.9 -21.9 3.5 -20.0 Q3.1 -18.9 2.35 -18.15 L2.35 -17.95 Q3.75 -19.4 6.95 -21.8 L11.55 -25.15 11.7 -25.15 Q11.35 -23.75 11.35 -22.7 L11.7 -19.15 11.7 -19.0 12.85 -19.75 13.05 -19.9 13.35 -20.15 15.7 -22.35 20.8 -27.5 24.45 -27.5 M4.35 -17.0 Q2.15 -16.45 0.95 -15.25 -0.4 -14.0 -1.05 -11.55 -1.25 -10.85 -2.1 -10.15 -3.15 -9.25 -3.9 -7.95 -5.25 -5.6 -5.25 -2.9 -5.25 -0.85 -4.05 0.65 L-1.5 3.1 -0.7 3.4 0.35 3.4 2.4 3.7 Q3.1 4.1 3.85 4.65 L5.75 5.0 Q8.2 5.0 10.8 3.4 14.75 0.9 15.1 -4.1 L15.1 -5.0 Q15.1 -8.75 12.4 -11.4 L8.7 -14.15 8.5 -14.2 6.4 -15.7 5.9 -16.05 4.8 -16.75 4.35 -17.0" fill="#f05c00" fill-rule="evenodd" stroke="none"/>
    <path d="M25.45 -27.25 L26.45 -27.0 27.4 -26.25 27.55 -26.1 27.45 -11.1 23.7 -6.75 15.7 -17.1 25.45 -27.25 M24.45 27.95 L7.35 27.95 Q7.2 28.55 6.9 28.55 6.1 28.55 5.8 27.95 L-6.55 27.95 -7.35 28.7 -8.0 28.5 -8.1 27.95 -24.7 27.95 -26.1 26.75 -27.9 25.2 -27.85 -6.2 -27.8 -12.8 -27.7 -12.55 -16.25 8.2 -5.35 15.15 -5.25 15.0 0.9 14.3 7.15 13.45 9.15 14.95 11.9 17.0 Q11.65 18.55 9.4 19.2 L24.45 27.95" fill="#fff46b" fill-rule="evenodd" stroke="none"/>
    <path d="M24.45 -27.5 L25.85 -27.5 26.45 -27.0 25.45 -27.25 24.45 -27.5 M27.55 -26.1 L27.7 -25.9 27.7 -5.7 27.8 -5.75 27.55 1.35 14.85 7.9 17.45 9.45 19.35 10.6 Q17.75 11.9 12.4 13.85 L11.2 14.3 9.15 14.95 7.15 13.45 0.9 14.3 -0.8 13.3 -0.85 13.3 -1.9 12.7 -2.25 12.4 -2.3 12.45 -7.6 9.35 Q-9.65 7.05 -10.05 4.85 L-11.75 3.45 Q-12.85 2.05 -13.75 -1.65 -14.6 -5.1 -14.6 -7.65 -14.6 -11.6 -10.05 -19.7 -6.85 -25.45 -5.65 -28.6 L-3.1 -28.6 -2.5 -27.55 Q-1.0 -24.75 -1.0 -23.35 L-1.15 -22.25 -1.4 -22.05 -1.2 -22.05 -1.15 -22.25 Q-0.05 -23.4 3.1 -28.7 4.4 -29.25 4.4 -28.7 L4.4 -28.6 6.1 -28.6 Q6.45 -26.5 6.45 -24.2 L6.4 -22.55 6.4 -22.45 8.15 -23.95 13.7 -28.6 14.95 -28.6 18.6 -28.4 18.85 -28.4 17.95 -27.5 20.8 -27.5 15.7 -22.35 13.35 -20.15 13.05 -19.9 12.85 -19.75 11.7 -19.0 11.7 -19.15 11.35 -22.7 Q11.35 -23.75 11.7 -25.15 L11.55 -25.15 6.95 -21.8 Q3.75 -19.4 2.35 -17.95 L2.35 -18.15 Q3.1 -18.9 3.5 -20.0 L3.9 -21.9 3.95 -23.05 3.8 -24.95 3.6 -24.95 -1.35 -19.55 -3.65 -16.9 -3.25 -18.15 Q-2.85 -19.45 -3.2 -22.1 -3.6 -24.8 -4.4 -25.3 L-4.4 -25.1 -6.15 -18.0 -11.95 -3.25 -10.7 -0.75 -10.45 -0.05 -9.85 1.15 -9.65 1.55 -9.15 2.25 -8.6 3.4 -5.7 3.8 -4.3 6.15 1.5 6.75 Q2.45 7.55 2.95 8.55 L3.3 9.25 Q3.2 9.05 3.35 9.1 L9.5 8.05 12.15 9.05 15.1 6.85 Q15.3 6.75 15.55 6.6 L16.45 6.05 20.4 3.3 Q22.8 1.65 24.5 0.95 L21.35 0.6 20.5 0.6 19.6 0.65 Q19.1 0.7 18.55 1.0 19.4 -0.35 22.8 -3.0 L26.9 -6.05 27.4 -6.55 27.45 -11.1 27.55 -26.1" fill="#5f2e00" fill-rule="evenodd" stroke="none"/>
    <path d="M4.35 -17.0 L4.8 -16.75 5.9 -16.05 6.4 -15.7 8.5 -14.2 8.7 -14.15 12.4 -11.4 Q15.1 -8.75 15.1 -5.0 L15.1 -4.1 Q14.75 0.9 10.8 3.4 8.2 5.0 5.75 5.0 L3.85 4.65 Q3.1 4.1 2.4 3.7 L0.35 3.4 -0.7 3.4 -1.5 3.1 -4.05 0.65 Q-5.25 -0.85 -5.25 -2.9 -5.25 -5.6 -3.9 -7.95 -3.15 -9.25 -2.1 -10.15 -1.25 -10.85 -1.05 -11.55 -0.4 -14.0 0.95 -15.25 2.15 -16.45 4.35 -17.0" fill="#bb4700" fill-rule="evenodd" stroke="none"/>
    <path d="M5.65 20.15 L5.55 20.3 10.95 17.1 19.5 16.4 23.35 20.95 3.9 21.2 4.8 20.7 5.65 20.15 M28.35 25.8 L26.4 27.45 20.3 27.6 13.55 22.95 28.35 25.8" fill="#fff46b" fill-rule="evenodd" stroke="none"/>
    <path d="M-21.4 -7.85 L-21.65 -8.1 -21.4 -14.75 -16.55 -11.2 -16.5 -11.2 -15.45 -10.4 -14.35 1.5 -15.9 2.05 -21.4 -7.85 M-27.1 -26.4 L-25.95 -27.7 -25.5 -25.95 -22.65 -18.3 -23.15 -12.0 Q-23.15 -12.55 -23.45 -12.2 L-24.35 -13.3 -27.05 -15.25 -27.0 -15.9 Q-27.9 -16.85 -27.9 -19.05 -27.9 -23.9 -27.35 -25.15 L-27.1 -26.4 M-23.55 -28.05 L-23.2 -29.9 -15.05 -28.4 -16.45 -14.25 -23.55 -28.05 M27.15 13.5 L26.9 10.95 16.75 12.95 16.1 12.55 14.3 12.0 23.9 5.7 27.25 2.85 27.15 13.5" fill="#fec22b" fill-rule="evenodd" stroke="none"/>
    <path d="M-5.15 -28.15 L-8.3 -18.45 -9.75 -18.15 -10.8 -29.1 -5.15 -28.15" fill="#f05c00" fill-rule="evenodd" stroke="none"/>
    <path d="M7.6 6.5 L7.55 6.5 7.6 6.35 7.6 6.5" fill="#000000" fill-rule="evenodd" stroke="none"/>
    <path d="M13.85 -15.9 L13.95 -15.95 14.5 -15.8 15.6 -16.95 15.7 -16.95 Q15.95 -16.95 18.15 -19.45 L20.25 -21.2 20.6 -21.9 Q21.55 -23.3 22.8 -23.35 L22.9 -22.8 22.8 -22.35 24.4 -22.15 24.55 -22.3 25.0 -21.25 24.95 -13.95 25.0 -9.3 25.0 -9.05 24.55 -8.45 24.4 -8.2 24.45 -8.2 Q25.4 -8.95 25.75 -8.95 26.1 -8.95 21.1 -3.6 L15.95 1.9 15.8 2.05 15.7 2.15 14.1 3.6 12.85 4.95 11.65 5.6 11.5 5.75 Q9.55 5.05 8.9 5.25 L8.7 4.75 8.95 4.05 8.75 3.4 9.05 2.8 Q9.45 0.7 11.35 -0.75 L11.55 -1.15 11.9 -2.25 11.35 -3.15 10.55 -3.85 Q9.15 -4.5 8.7 -4.85 L8.1 -4.95 Q6.75 -5.1 6.75 -5.55 L7.4 -7.4 7.95 -9.0 5.5 -12.25 3.8 -14.95 3.25 -15.55 3.0 -15.85 3.05 -16.45 3.7 -16.45 3.9 -16.5 Q4.35 -17.4 6.4 -17.35 L6.95 -17.05 7.45 -16.9 11.35 -16.35 13.85 -15.9 M3.15 -13.6 L6.4 -9.2 6.5 -8.9 6.7 -8.7 6.7 -8.65 Q6.7 -7.7 6.1 -6.75 L6.05 -6.75 Q5.6 -6.1 4.75 -6.1 3.15 -6.1 2.75 -7.1 L2.75 -7.15 Q2.1 -7.1 1.45 -7.45 L1.3 -7.7 1.25 -7.9 Q0.45 -8.35 -3.15 -12.25 -3.45 -13.0 -3.0 -13.7 L-2.8 -14.4 Q-2.35 -15.2 -0.7 -15.9 -0.45 -16.4 1.25 -15.2 L3.15 -13.6 M0.05 -6.65 L-2.4 -3.8 -3.45 -2.7 -3.9 -0.9 -3.9 0.4 Q-4.0 1.3 -5.0 1.3 L-5.25 1.25 -5.3 1.3 -5.3 1.35 Q-6.5 0.85 -7.8 0.3 L-8.4 0.05 -8.6 -0.25 -8.8 -2.55 Q-8.8 -3.7 -8.1 -5.1 L-8.05 -5.15 -7.9 -5.3 -7.95 -5.4 -7.7 -5.9 -7.45 -6.2 Q-6.45 -7.15 -3.55 -9.0 L-3.1 -9.3 -2.4 -9.3 -2.05 -9.0 Q-0.9 -7.95 0.1 -7.5 L0.05 -7.25 0.05 -6.65 M3.25 -5.9 L3.3 -5.85 4.85 -4.6 5.1 -4.4 5.1 -4.35 5.15 -4.05 4.85 -3.45 3.65 -2.2 2.75 -0.9 2.55 -0.65 2.1 0.05 1.55 0.9 1.5 1.5 1.95 2.85 1.9 3.05 2.0 3.4 1.8 3.95 1.75 4.05 1.7 4.2 0.95 4.35 -0.25 4.2 -1.2 4.35 Q-2.85 4.35 -3.2 2.95 L-3.2 2.7 -3.35 2.4 -3.4 1.55 -3.3 1.05 Q-2.95 -0.45 -2.95 -1.0 L-2.95 -1.15 Q-2.1 -3.05 0.4 -4.85 L0.95 -5.1 1.0 -5.2 1.8 -5.75 2.2 -5.55 Q2.5 -5.8 3.25 -5.9 M7.9 -3.85 L10.45 -2.6 10.4 -2.45 10.4 -2.25 Q10.4 -1.75 10.0 -1.1 L9.25 -0.2 8.4 0.85 8.2 1.15 7.9 2.45 7.7 3.9 7.7 4.1 7.7 4.85 7.2 5.25 6.9 5.5 6.8 5.55 5.15 5.75 4.75 5.8 Q3.45 5.8 3.0 4.95 L3.0 3.4 2.95 2.15 3.05 1.85 3.05 1.65 3.85 0.05 5.0 -1.5 5.6 -2.0 Q6.2 -2.95 7.65 -3.75 L7.9 -3.85" fill="#fff46b" fill-rule="evenodd" stroke="none"/>
    <path d="M-8.05 17.25 L-5.5 17.4 -5.15 25.7 -8.0 25.55 -8.05 17.25 M-12.15 20.45 Q-12.2 20.1 -12.4 19.85 L-12.9 19.5 -13.45 19.3 -13.95 19.3 -14.05 19.3 -13.9 22.0 -13.35 21.85 -12.8 21.55 -12.35 21.1 -12.15 20.45 M-17.85 22.45 L-18.8 24.2 -20.3 25.3 -22.0 25.65 -23.4 25.45 -24.7 24.7 -25.75 23.45 Q-26.15 22.65 -26.15 21.65 -26.2 20.2 -25.7 19.2 -25.2 18.2 -24.35 17.65 -23.5 17.15 -22.4 17.1 L-21.1 17.25 -19.8 17.75 Q-19.15 18.1 -18.7 18.75 L-20.6 20.55 -21.35 20.1 -22.05 19.95 -22.65 20.1 -23.1 20.6 -23.3 21.35 -23.1 21.95 -22.6 22.3 -22.05 22.4 -21.35 22.2 -20.8 21.65 -17.85 22.45 M-14.3 17.3 L-13.35 17.35 -12.2 17.6 Q-11.65 17.8 -11.1 18.15 L-10.3 18.95 Q-10.0 19.45 -10.0 20.1 -9.95 21.0 -10.3 21.6 L-11.25 22.65 -9.8 25.05 -12.1 26.1 -13.2 23.55 -13.5 23.6 -13.85 23.75 -13.65 25.75 -16.35 25.8 -16.8 17.45 -14.3 17.3 M4.0 23.4 L3.95 21.5 5.55 21.45 5.4 19.65 7.95 19.35 8.0 21.35 9.3 21.35 9.2 23.1 8.05 23.15 8.1 25.1 5.8 25.15 5.65 23.35 4.0 23.4 M2.8 19.95 L0.65 20.0 1.1 25.65 -1.8 25.7 -1.9 20.1 -3.85 20.1 -3.9 17.45 2.85 17.3 2.8 19.95" fill="#320900" fill-rule="evenodd" stroke="none"/>
    <path d="M22.85 -29.95 L23.0 -29.8 27.4 -26.25 29.7 -23.85 29.7 24.6 29.55 24.7 25.9 27.85 23.25 30.0 -22.6 30.0 -25.85 26.95 -25.45 27.0 25.75 27.0 26.55 26.7 26.7 26.05 26.7 -25.5 26.65 -25.95 26.55 -26.35 25.85 -26.95 -26.1 -26.95 -26.1 -26.9 -26.55 -26.45 -26.6 -26.3 -26.6 26.2 -26.5 26.4 -29.6 23.65 -29.6 -23.6 -28.8 -24.5 -24.65 -29.2 -23.7 -29.95 22.85 -29.95" fill="#320900" fill-rule="evenodd" stroke="none"/>
  </g>
</svg>
