<?xml version="1.0" encoding="UTF-8" standalone="no"?>
<svg xmlns:ffdec="https://www.free-decompiler.com/flash" xmlns:xlink="http://www.w3.org/1999/xlink" ffdec:objectType="shape" height="61.6px" width="60.25px" xmlns="http://www.w3.org/2000/svg">
  <g transform="matrix(1.0, 0.0, 0.0, 1.0, 30.0, 31.6)">
    <path d="M17.3 -28.45 L14.65 -26.6 Q13.1 -25.75 9.7 -23.55 L9.4 -23.45 9.4 -23.75 Q9.6 -24.65 10.45 -25.2 L11.95 -26.25 9.4 -25.05 8.8 -25.1 8.7 -25.35 9.0 -25.8 10.15 -26.4 10.45 -26.45 8.75 -26.05 6.7 -25.25 6.15 -25.4 Q5.95 -25.35 6.3 -25.65 L6.9 -25.95 7.0 -26.0 4.15 -25.95 4.15 -25.8 4.0 -25.8 3.4 -26.25 3.4 -26.1 3.55 -25.95 3.4 -25.8 Q3.35 -25.25 2.95 -24.8 2.65 -24.95 2.65 -25.5 L2.7 -26.5 2.7 -26.65 2.95 -28.2 3.05 -28.45 Q3.4 -29.4 4.0 -29.45 L3.65 -28.45 3.5 -28.05 3.3 -27.3 4.05 -27.45 9.6 -27.15 10.25 -27.15 10.6 -27.25 11.7 -27.6 11.9 -27.6 13.2 -28.0 13.55 -28.45 14.05 -29.1 Q14.2 -29.25 14.2 -28.85 L14.1 -28.45 14.0 -28.25 14.35 -28.4 14.85 -28.35 14.5 -27.8 13.5 -27.5 13.2 -27.3 Q15.35 -27.75 16.45 -28.35 L16.65 -28.45 17.6 -29.1 Q18.45 -29.7 18.7 -29.7 L18.85 -29.6 17.3 -28.45" fill="#e2e2e2" fill-rule="evenodd" stroke="none"/>
    <path d="M-20.95 27.75 L-21.25 27.65 -21.35 27.45 -20.3 26.15 -19.1 25.8 -19.05 25.8 -19.0 26.05 Q-19.0 26.4 -20.6 27.75 L-20.95 27.75" fill="#b7b7b7" fill-rule="evenodd" stroke="none"/>
    <path d="M-20.95 27.75 L-22.35 27.75 -22.7 27.3 -24.75 25.0 -26.9 22.35 -27.75 21.7 -27.75 -23.25 -26.8 -24.1 -24.55 -25.5 -22.45 -27.05 -20.9 -28.45 3.05 -28.45 2.95 -28.2 2.7 -26.65 2.7 -26.5 2.65 -25.5 Q2.65 -24.95 2.95 -24.8 3.35 -25.25 3.4 -25.8 L3.55 -25.95 3.4 -26.1 3.4 -26.25 4.0 -25.8 4.15 -25.8 4.15 -25.95 7.0 -26.0 6.9 -25.95 6.3 -25.65 Q5.95 -25.35 6.15 -25.4 L6.7 -25.25 8.75 -26.05 10.45 -26.45 10.15 -26.4 9.0 -25.8 8.7 -25.35 8.8 -25.1 9.4 -25.05 11.95 -26.25 10.45 -25.2 Q9.6 -24.65 9.4 -23.75 L9.4 -23.45 9.7 -23.55 Q13.1 -25.75 14.65 -26.6 L17.3 -28.45 23.4 -28.45 23.85 -27.2 Q24.55 -25.95 25.4 -25.1 26.55 -23.6 27.45 -22.65 L27.7 -22.3 27.7 -1.1 28.55 -1.1 28.55 23.1 27.8 23.65 24.8 26.1 23.05 27.7 2.75 27.7 2.75 28.5 -0.35 28.5 -0.35 27.75 -20.6 27.75 Q-19.0 26.4 -19.0 26.05 L-19.05 25.8 -19.1 25.8 -20.3 26.15 -21.35 27.45 -21.25 27.65 -20.95 27.75 M3.65 -28.45 L13.55 -28.45 13.2 -28.0 11.9 -27.6 11.7 -27.6 10.6 -27.25 10.25 -27.15 9.6 -27.15 4.05 -27.45 3.3 -27.3 3.5 -28.05 3.65 -28.45 M14.1 -28.45 L16.65 -28.45 16.45 -28.35 Q15.35 -27.75 13.2 -27.3 L13.5 -27.5 14.5 -27.8 14.85 -28.35 14.35 -28.4 14.0 -28.25 14.1 -28.45 M26.65 4.2 L26.55 4.25 26.5 4.3 26.6 4.35 26.65 4.5 26.65 4.2" fill="url(#gradient0)" fill-rule="evenodd" stroke="none"/>
    <path d="M-0.85 -5.25 L-1.05 -4.5 -1.15 -4.45 -1.25 -4.7 -0.9 -6.3 -0.8 -6.6 -0.45 -7.55 Q-0.1 -8.15 0.6 -8.15 L1.85 -8.0 2.2 -7.9 3.0 -7.55 3.7 -7.3 4.1 -7.1 4.55 -6.9 4.65 -6.85 4.75 -6.75 4.9 -6.6 3.2 -5.7 3.15 -5.6 3.0 -5.7 3.0 -6.05 3.3 -6.5 3.6 -6.9 3.45 -6.9 3.35 -6.95 2.75 -7.3 1.5 -7.55 1.15 -7.65 1.05 -7.65 0.6 -7.5 0.05 -7.35 -0.15 -7.55 -0.75 -6.05 -0.85 -5.25 M3.95 -1.5 L3.8 -1.1 3.75 -1.0 3.0 -0.4 2.95 -0.95 2.95 -1.0 2.95 -1.1 3.95 -1.5 M3.2 -0.95 L3.15 -0.9 3.15 -0.85 3.3 -0.9 3.2 -0.95" fill="#e7eafc" fill-rule="evenodd" stroke="none"/>
    <path d="M3.8 -1.1 L3.8 -1.0 3.75 -1.0 3.8 -1.1 M2.95 -1.0 L2.8 -1.0 2.8 0.8 1.7 0.8 1.3 0.65 Q1.15 0.55 1.15 0.15 L1.15 0.1 0.9 0.4 0.6 -0.05 0.15 0.7 -0.55 1.45 -0.65 1.45 -0.4 0.2 0.2 -0.05 1.1 -0.45 2.2 -0.9 2.95 -1.1 2.95 -1.0 M-1.3 -3.1 L-1.05 -3.65 -1.3 -2.95 -1.3 -3.1" fill="#dbe2ff" fill-rule="evenodd" stroke="none"/>
    <path d="M-25.15 9.3 L-22.15 8.55 Q-19.45 7.4 -17.75 5.4 L-17.9 7.9 -17.9 7.95 Q-17.9 9.7 -17.45 10.3 -18.6 10.85 -22.45 14.35 -25.6 17.25 -27.05 19.3 L-27.05 19.25 -26.75 18.25 -26.65 18.1 -26.8 18.05 -26.8 17.0 -26.8 16.9 -27.0 16.4 -27.0 16.3 -26.85 15.1 -26.85 15.05 -26.95 14.5 -27.8 14.65 -27.05 10.05 -26.35 9.75 -25.85 9.55 -25.15 9.3 M-26.35 9.75 L-26.35 9.85 -26.35 9.75 M-11.5 16.25 Q-12.0 20.05 -12.05 23.75 -12.0 26.95 -11.65 28.7 L-13.4 28.5 -14.4 28.4 -14.6 28.35 -20.6 26.9 Q-19.3 25.05 -17.2 20.65 -14.85 15.5 -14.55 13.25 -14.25 14.4 -12.5 15.75 L-12.25 15.85 -11.5 16.25" fill="#b7b7b7" fill-rule="evenodd" stroke="none"/>
    <path d="M4.2 -28.25 L8.3 -28.4 Q8.95 -28.9 10.9 -28.9 L17.0 -29.15 17.0 -29.25 Q17.75 -29.25 17.9 -29.0 L17.5 -28.65 17.65 -28.8 17.5 -29.0 14.45 -26.7 Q12.3 -24.85 12.05 -23.95 L10.55 -22.55 8.95 -20.95 Q5.45 -17.3 2.5 -13.3 L-2.25 -7.15 -3.5 -7.3 Q-4.2 -7.3 -4.55 -6.65 L-4.9 -5.75 -5.0 -5.45 -5.2 -6.95 -5.2 -7.1 -4.9 -7.5 -4.9 -7.75 -4.65 -12.45 Q-4.65 -12.9 -4.05 -13.25 -3.1 -13.85 -2.5 -14.75 -0.25 -18.0 0.55 -19.6 L2.35 -23.75 2.65 -24.95 2.75 -25.4 3.15 -26.25 3.65 -27.3 4.2 -28.25 M14.9 -25.95 L15.15 -25.95 14.75 -25.8 14.9 -25.95 M4.9 -6.6 Q9.75 -9.1 18.8 -14.6 22.8 -17.05 26.9 -20.5 L26.85 -20.25 28.0 -21.25 29.45 -21.0 Q30.0 -20.4 30.1 -19.3 L30.05 -17.55 30.25 -14.3 Q30.25 -12.25 30.05 -11.6 29.55 -10.1 27.65 -9.7 L27.45 -9.7 27.45 -9.45 26.1 -9.55 Q26.1 -9.85 22.9 -8.95 19.55 -8.05 17.9 -7.2 14.55 -5.55 9.25 -3.5 L3.95 -1.5 2.95 -1.1 2.2 -0.9 1.1 -0.45 0.2 -0.05 -0.4 0.2 -2.25 1.1 -2.25 0.7 -2.05 0.0 -1.6 -2.25 -1.5 -2.25 -0.8 -3.0 -0.35 -3.75 -0.05 -3.3 0.2 -3.6 0.2 -3.55 Q0.2 -3.15 0.35 -3.05 0.45 -3.0 0.75 -2.9 L1.85 -2.9 1.85 -4.7 2.0 -4.7 2.05 -4.1 2.8 -4.7 2.85 -4.7 2.85 -4.8 3.0 -5.25 3.15 -5.6 3.2 -5.7 4.9 -6.6 M-0.85 -5.25 L-0.75 -6.05 -0.15 -7.55 0.05 -7.35 0.6 -7.5 1.05 -7.65 1.15 -7.65 1.5 -7.55 Q-0.45 -5.0 -1.05 -3.65 L-0.85 -4.35 -0.85 -4.45 -0.85 -5.25 M3.2 -0.95 L3.3 -0.9 3.15 -0.85 3.15 -0.9 3.2 -0.95" fill="#e2e2e2" fill-rule="evenodd" stroke="none"/>
    <path d="M2.75 -25.4 L1.25 -22.5 0.45 -23.2 0.4 -23.9 1.1 -27.35 1.55 -27.4 2.0 -27.25 2.35 -28.2 Q2.45 -28.7 3.15 -28.9 L3.25 -29.7 Q3.4 -30.25 4.0 -30.4 4.25 -30.8 4.25 -30.15 L4.25 -29.8 5.65 -31.5 Q5.85 -31.8 5.85 -31.2 L4.7 -29.05 4.2 -28.25 3.65 -27.3 3.15 -26.25 2.75 -25.4 M17.5 -28.65 L14.9 -25.95 14.75 -25.8 12.6 -23.35 12.1 -23.3 12.0 -23.7 12.05 -23.95 Q12.3 -24.85 14.45 -26.7 L17.5 -29.0 17.65 -28.8 17.5 -28.65 M-25.15 9.3 L-25.85 9.55 -26.35 9.75 -27.05 10.05 -29.1 11.05 Q-29.4 11.45 -29.4 10.8 L-28.95 10.1 -29.85 10.1 -30.0 9.35 -27.55 9.2 -24.35 8.05 -23.0 7.1 -22.9 7.05 -22.8 7.5 -22.8 7.65 -22.75 7.65 -22.6 7.85 Q-22.85 8.3 -24.6 9.05 L-25.0 9.2 -25.15 9.3" fill="url(#gradient1)" fill-rule="evenodd" stroke="none"/>
    <path d="M-2.05 0.0 L-11.5 6.45 -11.9 6.65" ffdec:has-small-stroke="true" ffdec:original-stroke-width="0.1" fill="none" stroke="#6d6d6d" stroke-linecap="round" stroke-linejoin="round" stroke-width="1.0"/>
    <path d="M2.0 -7.6 L3.55 -7.2 3.5 -7.2 3.85 -7.1 3.0 -6.0 Q3.0 -5.8 3.15 -5.75 L3.3 -5.6 3.15 -5.05 Q3.15 -4.75 3.5 -4.65 L3.15 -4.0 Q2.3 -2.05 2.4 -0.1 L2.5 -0.3 Q2.6 -1.15 3.5 -3.2 L3.75 -4.6 3.8 -6.25 4.25 -6.35 4.25 -6.5 Q5.65 -6.75 5.65 -5.65 L4.85 -1.8 4.65 -0.95 4.55 -0.65 3.95 1.65 2.95 6.2 Q2.4 7.65 1.95 9.45 L1.9 9.6 1.65 10.15 -1.1 14.75 -1.65 15.2 -3.1 15.8 -5.0 16.4 -6.8 16.95 -7.15 17.0 -12.7 17.0 -13.1 17.05 -15.05 16.75 -15.5 16.55 Q-16.35 16.0 -18.3 14.8 L-18.65 14.5 -20.9 11.55 -20.95 11.5 -20.95 11.45 -21.35 10.75 -22.25 3.55 -22.4 1.15 -22.5 -1.05 -22.5 -1.1 -22.5 -1.75 -22.45 -17.9 -22.1 -18.8 -21.25 -19.3 -18.8 -19.5 -17.9 -19.2 -17.85 -21.85 -17.55 -22.75 Q-17.2 -23.15 -16.7 -23.2 L-16.35 -23.3 -16.25 -23.3 -14.95 -23.7 -14.7 -23.7 -13.95 -23.7 Q-13.35 -23.7 -12.95 -23.3 L-12.6 -22.85 -12.6 -22.9 -12.35 -23.7 -11.7 -24.2 -11.2 -24.4 -8.3 -24.75 -7.4 -24.6 -6.75 -24.05 -6.5 -23.3 -6.45 -20.65 -6.25 -20.8 -5.9 -20.9 -5.75 -20.95 -4.9 -21.15 -4.85 -21.15 -3.6 -21.2 -3.5 -21.2 Q-2.3 -21.1 -1.4 -20.2 L-1.05 -19.75 -0.95 -19.15 -1.2 -10.25 -1.2 -10.05 -1.25 -9.75 -1.25 -9.65 -1.45 -4.8 -0.9 -6.6 -0.4 -7.4 0.45 -7.65 1.6 -7.65 2.0 -7.6" fill="#e7eafc" fill-rule="evenodd" stroke="none"/>
    <path d="M3.8 -5.35 L3.9 -5.05 -0.4 10.9 -0.45 11.0 -6.05 15.15 -14.9 15.15 -19.95 10.4 Q-20.55 7.2 -20.8 3.4 L-20.95 1.05 -21.05 -1.15 -21.05 -1.8 -21.0 -17.6 -18.8 -17.6 -18.8 -17.55 -18.55 -17.55 -18.45 -3.35 -18.3 -3.4 -18.3 -3.35 -18.05 -3.45 -17.8 -3.55 -17.2 -3.75 -16.75 -3.85 -16.6 -3.9 -16.25 -21.45 -13.75 -21.45 -13.5 -5.0 -13.6 -4.9 -13.55 -4.8 -13.5 -4.7 -11.4 -5.15 -11.0 -5.15 -11.0 -22.75 -7.95 -22.75 -7.9 -5.3 -6.15 -4.95 -5.45 -19.3 -2.5 -19.3 -2.4 -19.2 -2.65 -10.3 -2.65 -9.75 -2.85 -3.35 -2.8 1.7 -2.35 1.3 -1.6 0.8 -1.2 -0.4 -1.0 -1.0 0.45 -6.2 3.8 -5.35" fill="#000000" fill-rule="evenodd" stroke="none"/>
    <path d="M21.15 -1.0 Q25.75 3.6 25.75 10.05 25.75 16.5 21.15 21.1 16.55 25.65 10.1 25.65 3.65 25.65 -0.95 21.1 -2.4 19.65 -3.35 18.05 -5.5 14.5 -5.5 10.05 -5.5 3.6 -0.95 -1.0 3.2 -5.15 8.9 -5.55 L10.1 -5.6 Q16.55 -5.6 21.15 -1.0" fill="url(#gradient2)" fill-rule="evenodd" stroke="none"/>
    <path d="M9.2 -3.15 L9.15 -3.15 8.9 -3.25 9.1 -3.75 11.1 -3.9 14.5 -3.75 14.75 -3.55 15.3 -3.4 15.95 -3.2 16.05 -3.05 19.7 -0.6 19.85 -0.4 20.15 -0.1 21.35 1.35 22.95 4.7 23.3 5.7 23.8 8.0 24.05 11.1 23.8 13.5 23.4 14.9 22.95 16.2 22.5 17.1 22.15 17.6 Q21.5 18.95 19.9 20.45 L18.6 21.55 17.75 22.1 16.65 22.65 12.9 23.65 11.6 23.8 10.7 23.9 9.7 23.95 8.75 23.85 8.4 23.85 8.0 23.8 7.9 23.9 7.55 23.9 7.5 23.85 6.75 23.75 6.35 23.75 4.9 23.35 Q3.65 22.85 2.25 21.95 L2.0 21.8 Q0.6 20.8 -0.65 19.25 L-1.65 17.45 -1.7 17.45 -1.75 17.25 -1.8 17.15 -2.0 17.1 -2.5 15.85 -2.95 14.2 -3.15 13.3 -3.2 12.7 -3.15 12.65 -3.3 11.1 Q-3.3 8.25 -2.3 5.0 -2.0 4.15 -1.35 3.4 -1.2 2.2 0.55 1.05 2.5 -0.2 5.35 -0.15 L6.1 -0.15 6.65 -0.1 6.65 -0.15 7.45 -0.05 7.5 -0.05 8.15 0.1 Q8.45 -0.05 9.2 0.45 10.5 1.35 10.5 2.2 L10.5 2.5 10.55 2.1 10.6 2.1 11.05 2.75 11.1 2.7 11.6 4.0 11.85 5.15 12.15 6.2 12.0 7.25 11.8 8.3 11.65 8.9 11.35 9.45 9.7 11.25 Q8.75 12.1 8.75 12.85 8.75 14.5 9.55 15.3 10.2 15.75 11.1 15.85 L11.5 15.85 13.2 15.5 Q15.35 14.55 17.25 11.25 L18.2 7.85 18.2 7.65 18.2 6.65 18.2 6.55 18.2 6.5 Q18.15 5.4 17.25 3.15 L16.95 2.8 16.6 2.25 16.0 1.3 15.4 0.45 14.5 -0.35 12.15 -1.85 10.9 -2.45 9.3 -3.1 9.2 -3.15 M17.8 -0.65 L17.6 -0.8 17.5 -0.9 17.4 -0.95 16.8 -1.35 Q15.65 -1.9 15.45 -2.3 L15.25 -2.4 14.65 -2.45 13.15 -2.8 11.95 -3.0 11.85 -2.95 11.3 -2.95 Q11.85 -2.65 13.0 -2.3 L13.95 -1.8 14.65 -1.25 16.6 0.6 17.35 1.6 17.95 2.45 18.0 2.6 18.05 2.7 18.15 2.75 18.8 4.15 18.9 4.75 18.95 5.2 19.15 7.65 19.0 9.2 19.0 9.45 18.95 9.75 18.9 9.9 18.55 10.7 17.85 11.9 17.2 13.2 16.75 13.9 15.8 14.9 15.25 15.45 14.0 16.2 12.0 16.8 11.55 16.85 11.45 16.85 11.3 16.85 10.9 16.85 9.7 16.75 9.65 16.7 9.15 16.45 8.2 15.55 8.0 15.25 7.5 12.95 7.75 11.95 8.15 10.95 8.45 10.45 9.05 10.0 10.2 8.85 10.65 8.05 11.1 6.35 11.1 5.6 11.1 5.5 11.05 5.3 10.9 4.35 10.75 4.0 Q10.4 3.45 10.35 3.0 L10.3 2.9 10.25 2.9 10.15 2.95 9.9 2.45 9.45 1.8 Q9.0 0.95 7.3 1.05 L7.25 1.1 6.9 1.0 6.3 1.0 6.3 1.05 3.8 1.05 Q0.3 2.5 -0.05 4.05 L-0.3 4.35 -0.75 4.95 -0.85 5.1 -1.05 5.5 -1.25 5.85 -1.3 5.95 -2.05 8.15 -2.1 8.45 -2.15 10.45 -1.75 14.05 -1.75 14.4 -1.75 14.45 -1.55 15.2 -1.3 16.0 -1.3 16.05 -1.3 16.15 -1.25 16.15 -1.15 16.2 -1.0 16.5 -0.8 16.85 -0.8 16.9 -0.85 16.9 -0.7 17.15 Q0.25 18.8 1.9 20.25 L2.55 20.85 2.7 20.9 3.0 21.1 3.3 21.25 Q4.05 21.7 4.9 21.95 L5.65 22.25 5.9 22.35 6.0 22.35 7.45 22.6 10.15 22.75 10.55 22.75 10.6 22.75 11.55 22.7 12.75 22.5 13.1 22.4 14.25 22.15 16.0 21.35 17.6 20.4 Q17.8 20.25 18.05 20.15 L18.8 19.7 20.65 17.8 21.2 17.15 21.2 17.1 21.3 17.05 21.7 16.2 22.05 15.45 Q22.75 13.2 22.85 11.4 L22.9 10.55 22.8 8.85 22.75 8.05 22.75 7.95 22.6 7.4 22.55 7.15 21.55 4.35 21.1 3.35 21.05 3.35 20.9 2.9 20.45 2.15 20.1 1.7 20.15 1.7 19.4 0.75 18.4 -0.1 17.8 -0.65 M19.4 -0.95 L19.35 -1.0 19.25 -1.1 19.4 -0.95 M11.55 6.95 L11.5 6.85 11.3 6.9 11.4 7.15 11.5 7.1 11.55 6.95 M8.05 13.1 L8.15 13.35 8.1 13.0 8.05 13.05 8.05 13.1" fill="#ffffff" fill-rule="evenodd" stroke="none"/>
    <path d="M18.8 4.15 L19.15 4.95 19.2 5.3 19.4 8.25 Q19.4 9.55 18.5 11.75 17.7 13.8 16.9 14.7 L16.15 15.5 Q15.05 16.5 14.15 17.0 12.95 17.6 11.4 17.6 L8.7 17.05 8.45 16.8 8.4 16.75 Q7.7 16.15 7.0 14.6 L6.85 14.3 6.6 12.7 6.65 12.15 Q6.85 10.85 8.0 9.6 L9.45 7.6 Q9.65 7.1 9.65 5.5 9.65 3.75 8.7 2.5 L8.6 2.35 8.4 2.1 8.05 1.8 7.8 1.75 6.8 1.55 6.5 1.55 Q4.95 1.6 3.6 2.3 L1.3 3.85 Q-0.15 5.45 -0.75 7.2 -1.25 8.4 -1.25 9.75 -1.25 13.7 0.2 17.35 0.75 18.8 1.9 20.25 0.25 18.8 -0.7 17.15 L-0.8 16.9 -0.8 16.85 -1.0 16.5 -1.15 16.15 -1.25 16.15 -1.3 16.05 -1.3 16.0 -1.55 15.15 -1.75 14.4 -1.75 14.05 -2.15 10.45 -2.1 8.45 -2.05 8.15 -1.3 5.95 -1.25 5.85 -1.05 5.5 -0.85 5.1 -0.75 4.95 -0.3 4.35 -0.05 4.05 Q0.3 2.5 3.8 1.05 L6.3 1.05 6.3 1.0 6.9 1.0 7.25 1.1 7.3 1.05 Q9.0 0.95 9.45 1.8 L9.9 2.45 10.15 2.95 10.25 2.9 10.35 3.0 Q10.4 3.45 10.75 4.0 L10.9 4.35 11.05 5.3 11.1 5.5 11.1 5.6 11.1 6.35 10.65 8.05 10.2 8.85 9.05 10.0 8.45 10.45 8.15 10.95 7.75 11.95 7.5 12.95 8.0 15.25 8.2 15.55 9.15 16.45 9.65 16.7 9.7 16.75 10.9 16.85 11.3 16.85 11.45 16.85 11.55 16.85 12.0 16.8 14.0 16.2 15.25 15.45 15.8 14.9 16.75 13.9 18.2 11.7 18.55 10.7 18.9 9.9 18.95 9.75 19.0 9.45 19.0 9.2 19.15 7.65 18.95 5.2 18.9 4.75 18.8 4.15" fill="#6b34ec" fill-rule="evenodd" stroke="none"/>
    <path d="M18.8 4.15 L18.15 2.75 18.05 2.7 18.0 2.6 17.95 2.45 17.35 1.6 16.6 0.6 14.65 -1.25 13.95 -1.8 13.0 -2.3 Q11.85 -2.65 11.3 -2.95 L11.85 -2.95 11.95 -3.0 13.15 -2.8 14.65 -2.45 15.25 -2.4 15.45 -2.3 Q15.65 -1.9 16.8 -1.35 L17.4 -0.95 17.5 -0.9 17.6 -0.8 17.8 -0.65 18.1 -0.35 18.4 -0.1 19.4 0.75 20.15 1.7 20.1 1.7 20.45 2.15 20.9 2.9 21.05 3.35 21.1 3.35 21.55 4.35 22.55 7.15 22.6 7.4 22.75 7.95 22.75 8.05 22.8 8.85 22.9 10.55 22.85 11.4 Q22.75 13.2 22.05 15.45 L21.7 16.2 21.3 17.05 21.2 17.1 21.2 17.15 20.65 17.8 18.8 19.7 18.05 20.15 Q17.8 20.25 17.6 20.4 L16.0 21.35 14.25 22.15 13.1 22.4 12.75 22.5 10.6 22.75 10.55 22.75 10.15 22.75 7.45 22.6 6.0 22.35 5.9 22.35 5.65 22.25 4.9 21.95 Q4.05 21.7 3.3 21.25 L3.0 21.1 2.7 20.9 2.55 20.85 1.9 20.25 Q0.75 18.8 0.2 17.35 -1.25 13.7 -1.25 9.75 -1.25 8.4 -0.75 7.2 -0.15 5.45 1.3 3.85 L3.6 2.3 Q4.95 1.6 6.5 1.55 L6.8 1.55 7.8 1.75 8.05 1.8 8.4 2.1 8.6 2.35 8.7 2.5 Q9.65 3.75 9.65 5.5 9.65 7.1 9.45 7.6 L8.0 9.6 Q6.85 10.85 6.65 12.15 L6.6 12.7 6.85 14.3 7.0 14.6 Q7.7 16.15 8.4 16.75 L8.45 16.8 8.7 17.05 11.4 17.6 Q12.95 17.6 14.15 17.0 15.05 16.5 16.15 15.5 L16.9 14.7 Q17.7 13.8 18.5 11.75 19.4 9.55 19.4 8.25 L19.2 5.3 19.15 4.95 18.8 4.15" fill="url(#gradient3)" fill-rule="evenodd" stroke="none"/>
    <path d="M-23.3 30.0 L-24.3 28.75 -24.9 28.0 25.1 28.0 23.15 29.8 22.95 30.0 -23.3 30.0 M-28.65 -25.35 L-27.65 -25.95 -27.65 25.1 -28.75 23.55 -29.65 22.85 -29.65 -24.45 -28.65 -25.35 M24.2 -29.95 L24.7 -28.65 25.1 -27.95 -24.65 -27.95 -24.05 -28.5 -22.4 -29.95 24.2 -29.95 M28.45 -23.85 L29.65 -22.55 29.65 24.3 28.85 24.9 Q28.2 25.4 27.65 25.85 L27.65 -24.75 28.45 -23.85" fill="url(#gradient4)" fill-rule="evenodd" stroke="none"/>
  </g>
  <defs>
    <linearGradient gradientTransform="matrix(0.0291, -0.001, 0.0012, 0.0347, 3.6, 1.55)" gradientUnits="userSpaceOnUse" id="gradient0" spreadMethod="pad" x1="-819.2" x2="819.2">
      <stop offset="0.00392156862745098" stop-color="#747474"/>
      <stop offset="1.0" stop-color="#e7e7e7"/>
    </linearGradient>
    <linearGradient gradientTransform="matrix(0.0291, -0.001, 0.0012, 0.0347, 3.6, 1.55)" gradientUnits="userSpaceOnUse" id="gradient1" spreadMethod="pad" x1="-819.2" x2="819.2">
      <stop offset="0.00392156862745098" stop-color="#747474"/>
      <stop offset="1.0" stop-color="#e7e7e7"/>
    </linearGradient>
    <radialGradient cx="0" cy="0" gradientTransform="matrix(0.0178, 0.0, 0.0, 0.0178, 10.05, 10.0)" gradientUnits="userSpaceOnUse" id="gradient2" r="819.2" spreadMethod="pad">
      <stop offset="0.2" stop-color="#ffffff" stop-opacity="0.8392157"/>
      <stop offset="1.0" stop-color="#ffffff" stop-opacity="0.3137255"/>
    </radialGradient>
    <linearGradient gradientTransform="matrix(-0.025, -2.0E-4, 1.0E-4, -0.0149, 8.6, 9.8)" gradientUnits="userSpaceOnUse" id="gradient3" spreadMethod="pad" x1="-819.2" x2="819.2">
      <stop offset="0.00392156862745098" stop-color="#591fe7"/>
      <stop offset="1.0" stop-color="#b087ff"/>
    </linearGradient>
    <linearGradient gradientTransform="matrix(-8.0E-4, 0.0325, -0.8423, -0.0216, -33.4, -0.5)" gradientUnits="userSpaceOnUse" id="gradient4" spreadMethod="pad" x1="-819.2" x2="819.2">
      <stop offset="0.0" stop-color="#252525"/>
      <stop offset="1.0" stop-color="#9162f6"/>
    </linearGradient>
  </defs>
</svg>
