<?xml version="1.0" encoding="UTF-8" standalone="no"?>
<svg xmlns:ffdec="https://www.free-decompiler.com/flash" xmlns:xlink="http://www.w3.org/1999/xlink" ffdec:objectType="shape" height="17.8px" width="7.4px" xmlns="http://www.w3.org/2000/svg">
  <g transform="matrix(1.0, 0.0, 0.0, 1.0, 0.95, 0.95)">
    <path d="M2.7 -0.6 L4.45 -0.9 Q5.4 -0.75 5.95 0.05 L5.9 0.0 Q6.6 0.95 6.4 1.9 L3.8 14.9 Q3.6 15.9 2.7 16.35 1.85 16.95 0.95 16.8 -0.1 16.6 -0.6 15.65 -1.1 14.9 -0.9 14.0 L-0.9 13.95 1.7 1.0 Q1.85 0.05 2.6 -0.55 L2.7 -0.6" fill="#2523af" fill-rule="evenodd" stroke="none"/>
    <path d="M2.65 1.15 Q2.75 0.6 3.2 0.25 L4.25 0.05 5.1 0.6 Q5.5 1.15 5.4 1.7 L2.8 14.7 Q2.7 15.25 2.15 15.5 1.65 15.9 1.1 15.8 0.55 15.7 0.25 15.15 -0.05 14.7 0.05 14.15 L2.65 1.15" fill="url(#gradient0)" fill-rule="evenodd" stroke="none"/>
  </g>
  <defs>
    <linearGradient gradientTransform="matrix(0.0023, -0.0182, 0.0097, 0.0012, 4.6, -0.5)" gradientUnits="userSpaceOnUse" id="gradient0" spreadMethod="pad" x1="-819.2" x2="819.2">
      <stop offset="0.0" stop-color="#bfbfbf"/>
      <stop offset="1.0" stop-color="#353535"/>
    </linearGradient>
  </defs>
</svg>
