<?xml version="1.0" encoding="UTF-8" standalone="no"?>
<svg xmlns:ffdec="https://www.free-decompiler.com/flash" xmlns:xlink="http://www.w3.org/1999/xlink" ffdec:objectType="shape" height="59.95px" width="59.3px" xmlns="http://www.w3.org/2000/svg">
  <g transform="matrix(1.0, 0.0, 0.0, 1.0, 29.65, 29.95)">
    <path d="M-24.1 -27.45 L-22.6 -28.65 23.25 -28.65 23.4 -28.1 23.8 -27.45 -24.1 -27.45 M27.05 -24.45 Q27.15 -24.4 27.3 -24.3 L27.3 -1.3 28.15 -1.3 28.15 23.5 27.05 24.5 27.05 -1.45 27.05 -24.45 M24.2 26.95 L23.35 27.7 22.75 28.3 -0.75 28.3 -0.75 27.55 -1.15 27.55 -1.15 27.3 -23.85 27.3 -24.2 26.95 -14.9 26.95 12.8 26.95 13.2 26.95 16.65 26.95 24.2 26.95 M-27.1 24.0 L-28.0 22.85 -28.15 22.65 -28.15 -23.6 -27.95 -23.85 -27.1 -24.55 -27.1 -2.75 -27.1 24.0" fill="url(#gradient0)" fill-rule="evenodd" stroke="none"/>
    <path d="M-24.1 -27.45 L23.8 -27.45 24.7 -26.55 26.15 -25.3 27.05 -24.45 27.05 -1.45 16.65 26.95 13.2 26.95 13.0 26.6 12.8 26.95 -14.9 26.95 -27.1 -2.75 -27.1 -24.55 -25.55 -26.2 -24.1 -27.45" fill="url(#gradient1)" fill-rule="evenodd" stroke="none"/>
    <path d="M13.2 26.95 L12.8 26.95 13.0 26.6 13.2 26.95" fill="url(#gradient2)" fill-rule="evenodd" stroke="none"/>
    <path d="M27.05 24.5 L26.6 24.95 24.2 26.95 16.65 26.95 27.05 -1.45 27.05 24.5 M-24.2 26.95 L-25.3 25.95 -27.1 24.0 -27.1 -2.75 -14.9 26.95 -24.2 26.95" fill="url(#gradient3)" fill-rule="evenodd" stroke="none"/>
    <path d="M17.3 -20.3 L17.35 -20.25 19.45 -16.0 23.75 -15.15 23.75 -15.1 24.3 -14.75 24.35 -14.7 24.6 -13.95 24.3 -13.25 24.2 -13.15 21.4 -10.15 22.3 -5.5 22.3 -5.45 22.25 -4.75 22.2 -4.6 21.45 -4.15 21.35 -4.15 20.75 -4.3 16.4 -6.35 12.3 -4.25 Q11.9 -3.9 11.45 -4.1 10.95 -4.2 10.85 -4.55 L10.8 -4.6 Q10.6 -4.9 10.65 -5.3 L10.6 -5.35 11.35 -10.05 9.4 -12.15 9.35 -12.2 8.5 -13.1 8.45 -13.15 Q8.25 -13.4 8.2 -13.75 8.05 -14.15 8.35 -14.45 8.6 -14.9 9.1 -14.95 L13.15 -15.9 15.25 -20.3 15.8 -20.85 15.95 -20.9 16.6 -20.9 16.75 -20.75 16.75 -20.7 17.3 -20.3 M23.4 -14.1 L18.65 -15.05 16.2 -19.8 13.95 -14.95 9.3 -13.9 12.4 -10.7 12.4 -10.65 12.55 -10.5 12.55 -10.45 11.75 -5.1 16.4 -7.7 21.2 -5.25 20.2 -10.45 23.4 -14.1" fill="#95400c" fill-rule="evenodd" stroke="none"/>
    <path d="M11.55 -13.2 L11.15 -13.3 11.05 -13.4 9.3 -13.9 13.95 -14.95 16.2 -19.8 18.65 -15.05 23.4 -14.1 21.7 -13.4 21.5 -13.25 21.15 -13.2 21.2 -13.3 17.8 -13.65 16.25 -16.85 14.75 -13.55 11.5 -13.25 11.55 -13.2 M-13.75 3.25 L-3.5 0.9 1.4 -9.5 6.65 0.85 16.9 3.1 16.9 3.15 13.15 4.4 5.15 3.35 1.55 -4.15 -2.05 3.5 -9.85 4.4 -9.95 4.4 -9.95 4.35 -13.75 3.25 M-21.25 -15.9 L-21.35 -15.9 -21.35 -15.95 -23.7 -16.7 -17.3 -18.15 -14.15 -24.7 -10.9 -18.15 -4.25 -16.75 -4.3 -16.75 -6.75 -15.9 -11.8 -16.65 -14.1 -21.35 -16.35 -16.45 -21.25 -15.9" fill="#ffcb4d" fill-rule="evenodd" stroke="none"/>
    <path d="M9.3 -13.9 L11.05 -13.4 11.15 -13.3 11.55 -13.2 13.8 -10.75 13.15 -7.35 16.35 -9.25 19.6 -7.35 18.8 -10.95 21.15 -13.2 21.5 -13.25 21.7 -13.4 23.4 -14.1 20.2 -10.45 21.2 -5.25 16.4 -7.7 11.75 -5.1 12.55 -10.45 12.55 -10.5 12.4 -10.65 12.4 -10.7 9.3 -13.9 M16.9 3.15 L9.9 10.6 11.85 22.0 1.6 16.75 -8.5 22.1 -6.75 10.75 -6.75 10.7 -13.75 3.25 -9.95 4.35 -9.95 4.4 -9.85 4.4 -4.4 10.1 -5.85 18.35 1.65 13.85 9.3 18.4 7.45 9.95 13.15 4.4 16.9 3.15 M-23.7 -16.7 L-21.35 -15.95 -21.35 -15.9 -21.25 -15.9 -17.8 -12.35 -18.8 -7.1 -14.0 -9.95 -9.2 -7.1 -10.35 -12.45 -6.75 -15.9 -4.3 -16.75 -8.85 -11.95 -7.55 -4.85 -14.05 -8.15 -20.45 -4.75 -19.35 -11.9 -19.35 -11.95 -19.45 -12.2 -19.45 -12.25 -23.7 -16.7" fill="#ffbb17" fill-rule="evenodd" stroke="none"/>
    <path d="M-14.45 -25.75 L-14.4 -25.75 -13.65 -25.75 -13.55 -25.75 -13.5 -25.7 -12.9 -25.15 -9.95 -19.1 -3.95 -17.85 Q-3.55 -17.8 -3.3 -17.35 L-3.25 -17.25 Q-3.1 -17.05 -3.1 -16.65 -3.1 -16.25 -3.35 -15.95 L-7.45 -11.55 -6.25 -4.95 -6.25 -4.9 -6.4 -4.2 -6.45 -4.15 Q-6.7 -3.8 -7.1 -3.65 L-7.15 -3.65 Q-7.6 -3.6 -7.9 -3.85 L-7.9 -3.8 -13.9 -6.75 -19.8 -3.65 -19.85 -3.65 -20.55 -3.65 -20.5 -3.65 -21.25 -4.05 Q-21.55 -4.5 -21.5 -4.9 L-20.4 -11.5 -23.2 -14.55 -24.3 -15.8 Q-24.7 -16.25 -24.7 -16.6 L-24.7 -16.65 -24.4 -17.25 -23.8 -17.85 -17.95 -19.0 -14.95 -25.15 -14.45 -25.75 M-4.3 -16.75 L-4.25 -16.75 -10.9 -18.15 -14.15 -24.7 -17.3 -18.15 -23.7 -16.7 -19.45 -12.25 -19.45 -12.2 -19.35 -11.95 -19.35 -11.9 -20.45 -4.75 -14.05 -8.15 -7.55 -4.85 -8.85 -11.95 -4.3 -16.75" fill="#803000" fill-rule="evenodd" stroke="none"/>
    <path d="M2.85 -10.1 L7.6 -0.4 17.4 1.7 18.2 2.2 18.2 2.25 18.5 3.3 18.1 4.2 18.05 4.2 11.45 11.2 13.35 21.8 Q13.45 22.35 13.2 22.75 L12.2 23.5 11.25 23.35 1.6 18.45 -7.85 23.5 -8.85 23.6 Q-9.55 23.4 -9.8 22.95 L-10.05 21.8 -8.3 11.25 -12.85 6.3 -14.7 4.35 -15.15 3.35 -15.15 3.3 Q-15.2 2.7 -14.8 2.25 L-14.8 2.4 Q-14.65 1.85 -13.95 1.75 L-4.65 -0.25 0.15 -10.1 0.9 -10.9 2.05 -10.9 2.05 -10.85 2.85 -10.1 M16.9 3.15 L16.9 3.1 6.65 0.85 1.4 -9.5 -3.5 0.9 -13.75 3.25 -6.75 10.7 -6.75 10.75 -8.5 22.1 1.6 16.75 11.85 22.0 9.9 10.6 16.9 3.15" fill="#5b2200" fill-rule="evenodd" stroke="none"/>
    <path d="M2.85 -10.1 L2.05 -10.85 2.05 -10.9 0.9 -10.9 0.15 -10.1 -4.65 -0.25 -13.95 1.75 Q-14.65 1.85 -14.8 2.4 L-14.8 2.25 Q-15.2 2.7 -15.15 3.3 L-15.15 3.35 -14.7 4.35 -12.85 6.3 -8.3 11.25 -10.05 21.8 -9.8 22.95 Q-9.55 23.4 -8.85 23.6 L-7.85 23.5 1.6 18.45 11.25 23.35 12.2 23.5 13.2 22.75 Q13.45 22.35 13.35 21.8 L11.45 11.2 18.05 4.2 18.1 4.2 18.5 3.3 18.2 2.25 18.2 2.2 17.4 1.7 7.6 -0.4 2.85 -10.1 M3.85 -11.15 L4.2 -10.75 4.25 -10.65 8.65 -1.75 8.7 -1.65 8.8 -1.6 Q13.7 -0.5 18.5 0.95 19.15 1.1 19.6 1.85 20.2 2.95 19.8 4.25 L19.55 4.65 19.45 4.9 19.2 5.15 19.15 5.25 13.2 11.65 13.1 11.75 13.1 11.85 14.6 22.6 14.4 23.6 Q13.75 24.55 12.7 24.8 L12.6 24.8 11.6 24.95 11.45 24.95 10.6 24.6 10.55 24.55 1.65 20.2 1.55 20.15 1.45 20.2 Q-3.1 22.5 -7.9 24.6 L-8.0 24.7 Q-9.85 25.4 -10.95 23.85 L-11.4 22.65 -11.4 22.6 -11.5 21.7 -9.85 11.9 -9.85 11.8 -9.9 11.7 -11.2 10.3 -11.9 9.5 -11.9 9.55 -12.65 8.45 Q-12.9 8.0 -13.5 7.4 L-13.55 7.35 -14.55 6.5 Q-14.65 6.2 -14.9 6.0 L-15.35 5.45 -15.45 5.3 Q-16.5 3.65 -16.5 2.6 L-16.45 1.75 -16.4 1.7 Q-16.35 1.55 -16.1 1.55 L-15.95 1.55 -15.9 1.45 -15.15 0.8 -15.05 0.8 Q-14.7 0.55 -14.3 0.45 L-14.25 0.45 -14.15 0.45 -12.75 0.1 -12.7 0.1 -5.75 -1.55 -5.65 -1.6 -5.55 -1.7 -1.15 -10.65 -1.15 -10.7 -0.45 -11.5 -0.35 -11.5 0.5 -12.1 Q2.45 -12.9 3.85 -11.15" fill="#e2a000" fill-opacity="0.49803922" fill-rule="evenodd" stroke="none"/>
    <path d="M-15.5 -26.25 Q-15.25 -26.6 -14.8 -26.7 L-14.85 -26.65 Q-13.4 -27.3 -12.35 -25.95 L-12.1 -25.75 -12.05 -25.6 -9.3 -20.0 -3.25 -18.4 -3.3 -18.4 -2.4 -17.7 -2.35 -17.7 Q-1.9 -16.85 -2.25 -15.85 L-2.25 -15.8 -2.4 -15.5 -2.5 -15.45 -2.5 -15.4 -2.6 -15.2 -6.35 -11.15 -5.45 -4.5 Q-5.4 -4.05 -5.65 -3.65 L-5.65 -3.6 Q-6.1 -2.9 -7.0 -2.65 L-7.05 -2.65 -7.65 -2.55 -7.7 -2.55 -7.8 -2.55 -7.85 -2.55 -8.5 -2.9 -14.05 -5.65 Q-16.85 -4.15 -19.8 -2.9 L-19.9 -2.9 Q-21.35 -2.2 -22.25 -3.45 L-22.6 -4.3 -22.6 -4.35 -22.65 -4.95 -22.65 -5.0 -21.55 -11.15 -22.35 -11.95 -22.75 -12.45 -22.8 -12.45 -23.25 -13.15 -23.8 -13.8 -24.4 -14.35 -24.45 -14.35 -24.7 -14.7 -25.0 -15.1 -25.15 -15.2 Q-25.8 -16.25 -25.8 -17.1 L-25.75 -17.8 -25.75 -17.85 -25.25 -18.05 -24.8 -18.4 -24.75 -18.45 -24.7 -18.5 -24.2 -18.75 -24.15 -18.75 -23.15 -19.0 -18.8 -19.95 -16.1 -25.55 -16.0 -25.75 -15.55 -26.25 -15.5 -26.25 M-14.45 -25.75 L-14.95 -25.15 -17.95 -19.0 -23.8 -17.85 -24.4 -17.25 -24.7 -16.65 -24.7 -16.6 Q-24.7 -16.25 -24.3 -15.8 L-23.2 -14.55 -20.4 -11.5 -21.5 -4.9 Q-21.55 -4.5 -21.25 -4.05 L-20.5 -3.65 -20.55 -3.65 -19.85 -3.65 -19.8 -3.65 -13.9 -6.75 -7.9 -3.8 -7.9 -3.85 Q-7.6 -3.6 -7.15 -3.65 L-7.1 -3.65 Q-6.7 -3.8 -6.45 -4.15 L-6.4 -4.2 -6.25 -4.9 -6.25 -4.95 -7.45 -11.55 -3.35 -15.95 Q-3.1 -16.25 -3.1 -16.65 -3.1 -17.05 -3.25 -17.25 L-3.3 -17.35 Q-3.55 -17.8 -3.95 -17.85 L-9.95 -19.1 -12.9 -25.15 -13.5 -25.7 -13.55 -25.75 -13.65 -25.75 -14.4 -25.75 -14.45 -25.75" fill="#ffbd17" fill-opacity="0.4" fill-rule="evenodd" stroke="none"/>
    <path d="M17.3 -20.3 L16.75 -20.7 16.75 -20.75 16.6 -20.9 15.95 -20.9 15.8 -20.85 15.25 -20.3 13.15 -15.9 9.1 -14.95 Q8.6 -14.9 8.35 -14.45 8.05 -14.15 8.2 -13.75 8.25 -13.4 8.45 -13.15 L8.5 -13.1 9.35 -12.2 9.4 -12.15 11.35 -10.05 10.6 -5.35 10.65 -5.3 Q10.6 -4.9 10.8 -4.6 L10.85 -4.55 Q10.95 -4.2 11.45 -4.1 11.9 -3.9 12.3 -4.25 L16.4 -6.35 20.75 -4.3 21.35 -4.15 21.45 -4.15 22.2 -4.6 22.25 -4.75 22.3 -5.45 22.3 -5.5 21.4 -10.15 24.2 -13.15 24.3 -13.25 24.6 -13.95 24.35 -14.7 24.3 -14.75 23.75 -15.1 23.75 -15.15 19.45 -16.0 17.35 -20.25 17.3 -20.3 M18.2 -20.7 L20.15 -16.85 24.35 -15.8 24.45 -15.7 25.2 -15.15 25.35 -14.95 Q25.8 -14.15 25.5 -13.35 L25.2 -12.85 25.2 -12.8 25.1 -12.5 25.1 -12.45 22.5 -9.75 23.15 -5.15 23.2 -5.1 23.2 -4.95 23.0 -4.2 23.0 -4.15 Q22.6 -3.55 21.9 -3.25 L21.85 -3.2 21.75 -3.2 21.7 -3.15 21.65 -3.15 21.2 -3.15 20.85 -3.15 20.2 -3.45 16.45 -5.2 12.55 -3.4 12.4 -3.3 Q10.9 -2.65 9.95 -3.95 L9.75 -4.6 9.7 -4.85 9.65 -5.3 9.65 -5.45 9.7 -5.55 10.35 -9.65 10.0 -10.1 9.95 -10.1 9.9 -10.15 9.7 -10.35 9.55 -10.45 9.5 -10.5 9.15 -10.9 9.15 -10.95 9.1 -11.0 9.05 -11.15 8.95 -11.4 8.5 -11.7 8.45 -11.75 8.3 -11.9 8.3 -11.95 8.25 -12.0 8.0 -12.35 Q7.75 -12.45 7.75 -12.75 7.25 -13.55 7.25 -14.15 L7.25 -14.2 7.35 -14.85 7.95 -15.35 8.05 -15.55 Q8.15 -15.8 8.4 -15.8 L8.75 -15.85 8.95 -15.95 9.55 -16.0 9.6 -16.0 12.6 -16.7 14.4 -20.7 14.4 -20.75 14.9 -21.25 14.9 -21.3 15.0 -21.35 Q15.25 -21.65 15.6 -21.7 16.85 -22.3 17.9 -21.1 L18.0 -21.0 18.1 -20.9 18.15 -20.7 18.2 -20.7" fill="#ffbb17" fill-opacity="0.4" fill-rule="evenodd" stroke="none"/>
    <path d="M11.55 -13.2 L11.5 -13.25 14.75 -13.55 16.25 -16.85 17.8 -13.65 21.2 -13.3 21.15 -13.2 18.8 -10.95 19.6 -7.35 16.35 -9.25 13.15 -7.35 13.8 -10.75 11.55 -13.2" fill="url(#gradient4)" fill-rule="evenodd" stroke="none"/>
    <path d="M-9.85 4.4 L-2.05 3.5 1.55 -4.15 5.15 3.35 13.15 4.4 7.45 9.95 9.3 18.4 1.65 13.85 -5.85 18.35 -4.4 10.1 -9.85 4.4" fill="url(#gradient5)" fill-rule="evenodd" stroke="none"/>
    <path d="M-21.25 -15.9 L-16.35 -16.45 -14.1 -21.35 -11.8 -16.65 -6.75 -15.9 -10.35 -12.45 -9.2 -7.1 -14.0 -9.95 -18.8 -7.1 -17.8 -12.35 -21.25 -15.9" fill="url(#gradient6)" fill-rule="evenodd" stroke="none"/>
    <path d="M24.5 -29.95 L24.65 -29.35 Q24.8 -28.85 25.8 -27.95 L-26.15 -27.95 -26.25 -27.95 -23.8 -29.95 24.5 -29.95 M27.55 -26.4 L29.35 -24.9 29.65 -24.5 29.65 24.95 28.0 26.45 27.55 26.85 27.65 26.15 27.65 26.05 27.65 -25.5 27.6 -26.2 27.6 -26.15 27.55 -26.4 M-27.65 -26.3 L-27.65 26.2 -27.6 26.55 -27.55 26.65 -29.5 24.25 -29.65 24.05 -29.65 -24.65 -29.4 -24.9 -27.6 -26.55 -27.65 -26.3 M-25.5 28.0 L25.7 28.0 25.95 28.0 26.35 27.9 24.6 29.35 23.95 30.0 -23.95 30.0 -26.25 27.9 -25.6 28.0 -25.5 28.0" fill="url(#gradient7)" fill-rule="evenodd" stroke="none"/>
  </g>
  <defs>
    <linearGradient gradientTransform="matrix(-3.0E-4, -0.0322, 0.0169, -2.0E-4, 1.55, -8.75)" gradientUnits="userSpaceOnUse" id="gradient0" spreadMethod="pad" x1="-819.2" x2="819.2">
      <stop offset="0.0" stop-color="#ffffff"/>
      <stop offset="1.0" stop-color="#ffb500"/>
    </linearGradient>
    <linearGradient gradientTransform="matrix(-2.0E-4, 0.0188, -0.0332, -3.0E-4, 0.45, -15.6)" gradientUnits="userSpaceOnUse" id="gradient1" spreadMethod="pad" x1="-819.2" x2="819.2">
      <stop offset="0.0" stop-color="#ffa800"/>
      <stop offset="1.0" stop-color="#000000"/>
      <stop offset="1.0" stop-color="#ffbe41"/>
    </linearGradient>
    <linearGradient gradientTransform="matrix(-6.0E-4, 0.0277, -0.019, -4.0E-4, 19.4, 15.55)" gradientUnits="userSpaceOnUse" id="gradient2" spreadMethod="pad" x1="-819.2" x2="819.2">
      <stop offset="0.0" stop-color="#e2721b"/>
      <stop offset="1.0" stop-color="#ffe948"/>
      <stop offset="1.0" stop-color="#ffbe41"/>
    </linearGradient>
    <linearGradient gradientTransform="matrix(1.0E-4, 0.0224, -0.0178, 1.0E-4, -20.95, 17.05)" gradientUnits="userSpaceOnUse" id="gradient3" spreadMethod="pad" x1="-819.2" x2="819.2">
      <stop offset="0.0" stop-color="#e26402"/>
      <stop offset="1.0" stop-color="#ffe948"/>
      <stop offset="1.0" stop-color="#ffbe41"/>
    </linearGradient>
    <linearGradient gradientTransform="matrix(-1.0E-4, -0.0061, 0.0068, 0.0, 16.15, -11.9)" gradientUnits="userSpaceOnUse" id="gradient4" spreadMethod="pad" x1="-819.2" x2="819.2">
      <stop offset="0.0" stop-color="#ffa500"/>
      <stop offset="1.0" stop-color="#ff7000"/>
    </linearGradient>
    <linearGradient gradientTransform="matrix(0.0, -0.0146, 0.0161, 0.0, 0.7, 11.5)" gradientUnits="userSpaceOnUse" id="gradient5" spreadMethod="pad" x1="-819.2" x2="819.2">
      <stop offset="0.0" stop-color="#ffa500"/>
      <stop offset="1.0" stop-color="#ff7000"/>
    </linearGradient>
    <linearGradient gradientTransform="matrix(0.0, -0.0092, 0.0101, 0.0, -14.6, -11.4)" gradientUnits="userSpaceOnUse" id="gradient6" spreadMethod="pad" x1="-819.2" x2="819.2">
      <stop offset="0.0" stop-color="#ffa500"/>
      <stop offset="1.0" stop-color="#ff7000"/>
    </linearGradient>
    <linearGradient gradientTransform="matrix(-8.0E-4, 0.0325, -0.8423, -0.0216, -33.4, -0.5)" gradientUnits="userSpaceOnUse" id="gradient7" spreadMethod="pad" x1="-819.2" x2="819.2">
      <stop offset="0.0" stop-color="#873700"/>
      <stop offset="1.0" stop-color="#b46200"/>
      <stop offset="1.0" stop-color="#ffbe41"/>
    </linearGradient>
  </defs>
</svg>
