<?xml version="1.0" encoding="UTF-8" standalone="no"?>
<svg xmlns:ffdec="https://www.free-decompiler.com/flash" xmlns:xlink="http://www.w3.org/1999/xlink" ffdec:objectType="shape" height="59.95px" width="59.3px" xmlns="http://www.w3.org/2000/svg">
  <g transform="matrix(1.0, 0.0, 0.0, 1.0, 29.65, 29.95)">
    <path d="M26.55 -25.05 L27.3 -24.3 27.3 -1.1 28.15 -1.1 28.15 22.95 Q25.8 24.7 24.35 26.7 L22.95 28.5 5.25 28.5 5.25 27.75 -23.05 27.75 -25.5 25.1 Q-26.75 22.85 -28.15 22.3 L-28.15 -23.35 -28.1 -23.4 -25.8 -26.1 -22.3 -28.45 23.45 -28.45 26.55 -25.05 M26.1 4.3 L26.2 4.35 26.25 4.6 26.25 4.2 26.1 4.3" fill="url(#gradient0)" fill-rule="evenodd" stroke="none"/>
    <path d="M0.3 -10.5 Q0.25 -9.95 -0.15 -9.55 -0.55 -9.15 -1.15 -9.15 L-6.25 -9.15 -6.25 27.35 Q-6.25 27.95 -6.7 28.35 -7.1 28.8 -7.7 28.8 L-17.9 28.8 Q-18.5 28.8 -18.9 28.35 -19.35 27.95 -19.35 27.35 L-19.35 -9.15 -24.4 -9.15 Q-25.0 -9.15 -25.35 -9.55 -25.8 -9.95 -25.85 -10.5 L-25.5 -11.45 -13.9 -25.95 Q-13.7 -26.3 -13.25 -26.4 L-12.4 -26.4 Q-11.95 -26.3 -11.7 -26.0 L0.0 -11.5 Q0.35 -11.05 0.3 -10.5 M-1.15 -10.6 L-12.8 -25.1 -24.4 -10.6 -17.9 -10.6 -17.9 27.35 -7.7 27.35 -7.7 -10.6 -1.15 -10.6" fill="#ffffff" fill-opacity="0.29803923" fill-rule="evenodd" stroke="none"/>
    <path d="M-1.15 -10.6 L-7.7 -10.6 -7.7 27.35 -17.9 27.35 -17.9 -10.6 -24.4 -10.6 -12.8 -25.1 -1.15 -10.6" fill="url(#gradient1)" fill-rule="evenodd" stroke="none"/>
    <path d="M10.1 -11.45 L10.2 -11.3 14.6 -2.65 24.05 -0.15 Q24.75 0.0 25.25 0.75 25.95 1.85 25.6 3.1 L25.5 3.3 25.2 3.85 25.15 3.9 24.9 4.25 24.9 4.3 19.1 10.6 20.6 21.1 20.4 22.2 Q19.8 23.25 18.55 23.6 L18.5 23.6 17.55 23.7 17.35 23.7 16.45 23.25 16.4 23.25 7.7 19.1 Q3.25 21.4 -1.4 23.4 L-1.35 23.4 Q-3.4 24.4 -4.7 22.6 L-5.2 21.45 -5.2 21.4 -5.2 20.45 -5.2 20.4 -3.7 10.85 -5.05 9.45 -5.7 8.75 -6.4 7.7 -7.2 6.65 -7.5 6.4 -8.25 5.8 -8.7 5.3 -9.05 4.8 -9.2 4.6 Q-10.25 3.0 -10.25 1.8 L-10.15 0.9 Q-10.05 0.6 -9.7 0.6 L-8.9 -0.1 -8.85 -0.15 -8.0 -0.45 -7.95 -0.45 -6.4 -0.85 0.35 -2.4 4.55 -11.25 4.6 -11.3 5.3 -12.15 5.35 -12.15 Q5.75 -12.6 6.3 -12.75 8.35 -13.65 9.85 -11.85 L10.1 -11.45 M8.55 -10.55 L7.85 -11.2 6.85 -11.2 6.15 -10.55 1.55 -0.9 -7.55 1.2 Q-8.05 1.3 -8.3 1.7 -8.65 2.1 -8.6 2.55 -8.6 3.05 -8.2 3.4 L-6.4 5.35 -6.2 5.55 -1.85 10.15 -3.45 20.6 -3.3 21.55 -2.45 22.1 -1.55 22.0 7.7 17.0 17.15 21.75 18.05 21.85 18.85 21.3 Q19.15 20.85 19.05 20.4 L17.15 9.95 23.5 3.1 23.6 3.0 23.85 2.3 23.6 1.4 22.8 0.9 13.35 -1.1 8.55 -10.55" fill="#ffffff" fill-opacity="0.49803922" fill-rule="evenodd" stroke="none"/>
    <path d="M8.55 -10.55 L13.35 -1.1 22.8 0.9 23.6 1.4 23.85 2.3 23.6 3.0 23.5 3.1 17.15 9.95 19.05 20.4 Q19.15 20.85 18.85 21.3 L18.05 21.85 17.15 21.75 7.7 17.0 -1.55 22.0 -2.45 22.1 -3.3 21.55 -3.45 20.6 -1.85 10.15 -6.2 5.55 -6.4 5.35 -8.2 3.4 Q-8.6 3.05 -8.6 2.55 -8.65 2.1 -8.3 1.7 -8.05 1.3 -7.55 1.2 L1.55 -0.9 6.15 -10.55 6.85 -11.2 7.85 -11.2 8.55 -10.55 M22.5 2.2 L22.55 2.15 12.45 0.05 7.35 -9.95 2.5 0.2 -7.3 2.45 -7.4 2.4 -0.8 9.3 -0.8 9.35 -0.45 9.75 -0.45 9.8 -2.2 20.8 7.7 15.5 17.7 20.55 15.65 9.55 15.65 9.5 22.5 2.2" fill="#001962" fill-rule="evenodd" stroke="none"/>
    <path d="M-7.3 2.45 L2.5 0.2 7.35 -9.95 12.45 0.05 22.55 2.15 22.5 2.2 18.85 3.45 11.05 2.4 7.45 -4.85 4.1 2.65 -3.55 3.6 -3.6 3.6 -3.6 3.55 -7.3 2.45" fill="#6dd9ff" fill-rule="evenodd" stroke="none"/>
    <path d="M-7.3 2.45 L-3.6 3.55 -3.6 3.6 -3.55 3.6 1.8 9.1 0.4 17.15 7.75 12.75 15.15 17.05 13.35 8.85 18.85 3.45 22.5 2.2 15.65 9.5 15.65 9.55 17.7 20.55 7.7 15.5 -2.2 20.8 -0.45 9.8 -0.45 9.75 -0.8 9.35 -0.8 9.3 -7.4 2.4 -7.3 2.45" fill="#54cffa" fill-rule="evenodd" stroke="none"/>
    <path d="M-3.55 3.6 L4.1 2.65 7.45 -4.85 11.05 2.4 18.85 3.45 13.35 8.85 15.15 17.05 7.75 12.75 0.4 17.15 1.8 9.1 -3.55 3.6" fill="url(#gradient2)" fill-rule="evenodd" stroke="none"/>
    <path d="M27.35 -26.9 L26.35 -27.8 25.8 -27.95 -26.15 -27.95 -26.85 -27.65 -26.95 -27.55 -27.45 -26.95 -27.55 -26.75 -27.65 -26.3 -27.65 25.15 Q-28.6 23.9 -29.65 23.5 L-29.65 -24.6 -29.6 -24.65 -27.15 -27.45 -23.5 -29.95 24.7 -29.95 27.95 -26.35 29.65 -24.85 29.65 24.15 27.65 25.8 27.65 -25.5 27.6 -26.2 27.6 -26.15 27.45 -26.65 27.35 -26.9 M25.75 28.0 L25.65 28.1 24.15 30.0 -23.6 30.0 -25.35 28.0 25.75 28.0" fill="url(#gradient3)" fill-rule="evenodd" stroke="none"/>
  </g>
  <defs>
    <linearGradient gradientTransform="matrix(0.0011, -0.0322, 0.0168, 6.0E-4, 2.7, 4.6)" gradientUnits="userSpaceOnUse" id="gradient0" spreadMethod="pad" x1="-819.2" x2="819.2">
      <stop offset="0.0" stop-color="#000000"/>
      <stop offset="1.0" stop-color="#5fb7ff"/>
    </linearGradient>
    <linearGradient gradientTransform="matrix(3.0E-4, -0.0229, 0.032, 4.0E-4, -13.05, 0.35)" gradientUnits="userSpaceOnUse" id="gradient1" spreadMethod="pad" x1="-819.2" x2="819.2">
      <stop offset="0.0" stop-color="#18a8d9"/>
      <stop offset="1.0" stop-color="#000000"/>
    </linearGradient>
    <linearGradient gradientTransform="matrix(4.0E-4, -0.0164, 0.0157, 4.0E-4, 6.7, 8.85)" gradientUnits="userSpaceOnUse" id="gradient2" spreadMethod="pad" x1="-819.2" x2="819.2">
      <stop offset="0.0" stop-color="#22c2fa"/>
      <stop offset="1.0" stop-color="#008ebf"/>
    </linearGradient>
    <linearGradient gradientTransform="matrix(-8.0E-4, 0.0325, -0.8423, -0.0216, -33.4, -0.5)" gradientUnits="userSpaceOnUse" id="gradient3" spreadMethod="pad" x1="-819.2" x2="819.2">
      <stop offset="0.0" stop-color="#284e6d"/>
      <stop offset="1.0" stop-color="#000000"/>
    </linearGradient>
  </defs>
</svg>
