<?xml version="1.0" encoding="UTF-8" standalone="no"?>
<svg xmlns:ffdec="https://www.free-decompiler.com/flash" xmlns:xlink="http://www.w3.org/1999/xlink" ffdec:objectType="shape" height="63.45px" width="63.45px" xmlns="http://www.w3.org/2000/svg">
  <g transform="matrix(1.0, 0.0, 0.0, 1.0, 31.75, 31.75)">
    <path d="M31.7 -0.05 Q31.7 7.8 28.4 14.25 26.15 18.6 22.35 22.35 18.05 26.7 12.9 29.05 7.0 31.7 -0.05 31.7 -7.05 31.7 -12.95 29.05 -18.2 26.7 -22.55 22.35 -26.0 18.9 -28.15 14.9 -31.75 8.2 -31.75 -0.05 -31.75 -8.3 -28.15 -15.0 -26.0 -19.0 -22.55 -22.5 -18.8 -26.2 -14.4 -28.45 -7.9 -31.75 -0.05 -31.75 7.85 -31.75 14.3 -28.45 18.65 -26.2 22.35 -22.5 26.15 -18.7 28.4 -14.3 31.7 -7.85 31.7 -0.05" fill="#000000" fill-rule="evenodd" stroke="none"/>
    <path d="M-8.4 -8.1 L-8.55 -8.2 -8.4 -8.15 -8.4 -8.1 M-24.6 18.4 L-24.75 18.65 -24.75 18.6 -24.7 18.35 -24.6 18.4 M-25.9 19.15 L-26.5 19.5 -27.8 19.0 -27.55 18.6 -25.9 19.15" fill="#383838" fill-rule="evenodd" stroke="none"/>
    <path d="M18.55 -20.8 L18.55 -20.9 18.8 -20.9 19.35 -19.35 19.1 -19.85 19.0 -20.05 19.0 -20.15 18.85 -20.4 18.65 -20.65 18.6 -20.85 18.55 -20.8 M14.6 5.95 L14.15 7.15 13.9 7.9 13.0 9.55 14.0 7.3 14.6 5.95 M-2.9 20.25 L-4.4 20.55 -8.55 20.8 -10.45 20.75 -11.55 20.9 -11.7 20.9 -12.25 20.85 Q-12.35 20.7 -12.6 20.65 L-13.5 20.45 -13.0 20.4 -13.6 20.35 -15.3 19.8 -15.1 19.85 -11.2 20.55 -10.6 20.55 -10.35 20.65 -5.3 20.6 -2.9 20.25 M-21.9 15.5 L-22.2 15.2 -23.0 14.1 Q-23.15 13.7 -23.4 13.65 L-24.9 10.25 -24.85 10.15 -24.9 9.8 -24.8 9.3 -24.65 9.45 -24.6 9.5 -24.6 9.7 -24.5 10.4 -24.55 10.35 -24.45 10.55 Q-23.85 13.15 -21.9 15.5 M-13.2 -16.8 L-13.2 -17.15 -13.2 -17.7 -13.1 -18.0 -13.2 -16.8 M-11.3 -22.85 L-10.85 -20.25 -10.95 -20.5 -11.05 -20.9 -11.15 -21.3 -11.3 -22.4 -11.3 -22.85 M-10.55 -19.55 Q-9.55 -17.55 -5.95 -16.0 L-5.65 -15.6 -5.9 -15.55 Q-8.0 -16.2 -9.3 -17.15 L-10.35 -19.0 -10.55 -19.55 M-5.05 -15.65 L-4.75 -16.05 -3.1 -17.6 Q-0.1 -20.1 2.05 -20.2 L4.5 -20.15 Q1.65 -20.1 -0.2 -19.2 -2.35 -18.2 -4.6 -15.5 L-5.05 -15.65 M6.2 -20.15 L8.0 -20.15 Q11.4 -19.5 12.8 -17.95 L13.75 -16.35 14.25 -15.95 14.4 -15.9 14.7 -15.2 14.65 -15.2 14.7 -15.1 Q16.65 -15.75 17.65 -16.9 L18.1 -18.5 18.5 -20.5 Q18.5 -18.9 18.15 -17.85 L17.7 -16.5 17.6 -16.4 17.35 -16.0 16.65 -15.35 Q16.2 -15.05 15.75 -14.9 L15.05 -14.8 14.9 -14.8 14.8 -14.8 14.8 -14.75 14.35 -14.75 14.25 -14.75 14.2 -14.75 14.25 -14.75 Q13.95 -15.95 12.9 -17.05 L12.65 -17.35 11.25 -18.4 Q8.95 -19.95 6.2 -20.15 M18.7 -20.2 L18.75 -20.15 18.7 -20.15 18.7 -20.2 M12.45 -4.95 L12.4 -4.9 12.45 -4.95" fill="#000000" fill-rule="evenodd" stroke="none"/>
    <path d="M19.35 -19.35 Q20.2 -17.45 20.2 -15.05 L20.2 -14.95 20.05 -12.9 20.0 -12.75 19.65 -11.4 19.1 -10.05 Q18.6 -9.1 17.75 -8.3 L16.05 -6.85 16.2 -3.85 15.9 -0.55 15.85 0.4 15.8 0.55 15.55 2.25 15.25 3.8 15.0 4.65 14.65 5.7 14.6 5.95 14.0 7.3 13.0 9.55 12.05 11.2 Q10.75 13.15 8.6 15.05 L5.1 17.65 Q4.2 18.15 3.65 18.5 L3.05 18.75 Q1.1 19.6 -2.9 20.25 L-5.3 20.6 -10.35 20.65 -10.6 20.55 -11.2 20.55 -15.1 19.85 -15.3 19.8 -16.35 19.4 -18.15 18.45 -19.75 17.4 -21.9 15.5 Q-23.85 13.15 -24.45 10.55 L-24.55 10.35 -24.5 10.4 -24.6 9.7 -24.6 9.5 -24.65 9.45 -24.8 9.0 -21.45 12.45 Q-19.65 13.75 -17.25 13.75 -12.4 13.75 -9.7 10.05 -8.3 8.15 -7.6 5.55 L-7.45 4.8 -7.45 4.45 -7.4 4.25 Q-7.4 -1.9 -7.55 -6.05 -13.2 -8.4 -13.2 -15.7 L-13.15 -16.35 -13.2 -16.6 -13.2 -16.8 -13.1 -18.0 -12.9 -19.6 -12.5 -21.1 -12.1 -21.95 -11.7 -23.0 -11.15 -23.8 -11.3 -23.2 -11.3 -22.85 -11.3 -22.4 -11.15 -21.3 -11.05 -20.9 -10.95 -20.5 -10.85 -20.25 -10.55 -19.55 -10.35 -19.0 -9.3 -17.15 Q-8.0 -16.2 -5.9 -15.55 L-5.65 -15.6 -5.55 -15.6 -5.25 -15.6 -5.05 -15.65 -4.6 -15.5 Q-2.35 -18.2 -0.2 -19.2 1.65 -20.1 4.5 -20.15 L6.2 -20.15 Q8.95 -19.95 11.25 -18.4 L12.65 -17.35 12.9 -17.05 Q13.95 -15.95 14.25 -14.75 L14.2 -14.75 14.25 -14.75 14.35 -14.75 14.8 -14.75 14.8 -14.8 14.9 -14.8 15.05 -14.8 15.75 -14.9 Q16.2 -15.05 16.65 -15.35 L17.35 -16.0 17.6 -16.4 17.7 -16.5 18.15 -17.85 Q18.5 -18.9 18.5 -20.5 L18.45 -20.8 18.55 -20.8 18.6 -20.85 18.65 -20.65 18.85 -20.4 19.0 -20.15 19.0 -20.05 19.1 -19.85 19.35 -19.35 M18.7 -20.2 L18.7 -20.15 18.75 -20.15 18.7 -20.2 M12.45 -4.95 L12.4 -4.9 12.45 -4.95 M-8.4 -8.1 L-8.4 -8.15 -8.55 -8.2 -8.4 -8.1 M-7.55 -6.05 L-7.45 -6.0 -7.5 -6.15 -7.55 -6.05" fill="url(#gradient0)" fill-rule="evenodd" stroke="none"/>
    <path d="M1.65 -9.1 L1.8 -9.0 2.0 -8.85 2.35 -8.15 3.5 -6.05 3.9 -4.95 3.75 -4.05 3.6 -4.0 Q1.25 -4.45 -0.8 -5.45 -3.0 -6.45 -3.6 -7.5 L-6.0 -11.6 -5.95 -11.9 -5.8 -11.85 0.0 -9.85 1.65 -9.1 M3.5 -5.7 L3.4 -5.75 3.5 -5.5 3.5 -5.65 3.5 -5.7 M0.9 -1.3 L1.05 -1.3 1.1 -1.15 1.1 -1.1 1.15 -0.95 1.2 -0.95 1.95 1.65 3.5 -1.8 3.75 -1.85 3.75 -1.8 3.9 -1.55 4.0 -1.4 4.45 -0.45 5.3 1.3 5.35 1.45 5.5 1.15 6.0 -0.05 7.0 -1.9 7.1 -1.7 7.15 -1.8 7.35 -1.25 7.65 -0.6 8.5 1.25 8.6 1.5 8.7 1.5 8.65 1.45 8.7 1.4 9.6 -0.45 9.8 -0.8 10.0 0.15 10.35 1.8 10.65 3.0 10.6 3.35 10.65 3.2 10.65 3.45 10.6 3.95 10.7 3.85 10.75 3.75 11.2 3.15 Q11.55 2.55 12.0 2.35 L12.1 3.1 12.15 3.35 12.15 4.15 11.8 6.15 11.75 6.4 10.6 9.6 10.4 7.85 10.0 6.4 9.25 4.95 9.0 4.75 8.6 4.0 7.9 3.15 Q6.9 5.25 5.7 6.2 L5.55 6.1 Q5.05 5.7 4.5 4.5 L3.9 3.05 3.85 2.95 3.4 3.65 2.35 5.45 1.9 6.35 1.9 6.55 1.85 6.6 1.7 6.4 1.35 6.05 0.95 5.2 0.55 4.25 0.3 4.65 Q-0.4 4.95 -1.7 6.95 L-1.85 7.35 -2.15 7.8 Q-2.8 8.8 -2.9 9.5 L-3.1 8.65 -3.1 8.3 -2.75 4.7 Q-2.35 2.65 -1.9 2.15 L-1.65 1.55 -1.6 1.35 -1.15 0.3 -1.15 0.45 -1.15 0.5 -1.2 1.25 -1.15 2.1 -1.0 2.65 -0.8 3.25 -0.65 2.75 -0.5 2.2 -0.25 1.45 -0.3 1.35 Q-0.35 1.0 0.9 -1.1 L0.9 -1.3 M8.35 -4.75 L8.45 -5.05 Q8.45 -6.65 10.55 -8.7 12.4 -10.5 15.05 -11.9 L15.15 -11.15 15.15 -10.7 15.2 -10.25 15.2 -9.7 14.65 -8.05 14.15 -6.95 Q12.9 -6.3 11.4 -5.25 L8.85 -3.95 7.9 -3.8 7.9 -3.9 8.35 -4.75 M1.9 4.8 L1.9 4.95 1.95 4.85 1.9 4.75 1.9 4.8 M1.45 5.2 L1.45 5.1 1.4 5.05 1.45 5.2" fill="#000000" fill-rule="evenodd" stroke="none"/>
  </g>
  <defs>
    <linearGradient gradientTransform="matrix(0.0189, -0.0203, 0.0198, 0.0184, -5.5, 5.0)" gradientUnits="userSpaceOnUse" id="gradient0" spreadMethod="pad" x1="-819.2" x2="819.2">
      <stop offset="0.0" stop-color="#ffffff" stop-opacity="0.0"/>
      <stop offset="1.0" stop-color="#ffffff"/>
    </linearGradient>
  </defs>
</svg>
