<?xml version="1.0" encoding="UTF-8" standalone="no"?>
<svg xmlns:ffdec="https://www.free-decompiler.com/flash" xmlns:xlink="http://www.w3.org/1999/xlink" ffdec:objectType="shape" height="66.0px" width="66.0px" xmlns="http://www.w3.org/2000/svg">
  <g transform="matrix(1.0, 0.0, 0.0, 1.0, 33.8, 32.05)">
    <path d="M-2.6 -5.65 L-2.05 -5.8 -2.1 -5.65 -2.6 -5.65" fill="#aa7a4e" fill-rule="evenodd" stroke="none"/>
    <path d="M25.6 -17.75 L25.65 -17.9 26.0 -18.1 25.6 -17.75" fill="#694626" fill-rule="evenodd" stroke="none"/>
    <path d="M19.5 27.0 Q14.15 31.25 7.75 32.9 L6.25 25.0 6.3 25.0 4.5 13.45 5.65 13.45 9.0 16.7 9.5 17.0 10.15 17.1 11.85 17.05 12.0 17.15 14.75 17.45 18.65 25.0 18.45 25.0 19.5 27.0 M-9.5 32.85 Q-17.2 30.8 -23.35 25.0 L-22.3 25.0 -15.55 17.55 -10.55 17.3 Q-10.05 17.3 -9.55 16.9 L-6.0 13.5 -4.65 13.5 -7.25 25.0 -7.5 25.0 -9.5 32.85" fill="#7b7b7b" fill-rule="evenodd" stroke="none"/>
    <path d="M-5.65 -12.1 L-5.05 -12.25 -5.1 -12.25 -2.4 -13.0 1.95 -14.35 2.35 -14.5 2.45 -14.5 4.35 -15.15 4.45 -15.25 7.75 -16.0 8.45 -16.2 11.65 -16.5 11.85 -16.5 Q12.4 -16.45 12.75 -16.05 L13.25 -15.15 13.3 -14.7 13.3 -14.65 13.6 -13.35 13.6 -13.2 13.45 -11.6 13.45 -11.5 13.4 -11.2 13.55 -11.3 Q16.95 -12.45 23.25 -15.55 25.3 -16.55 26.75 -17.3 L27.7 -15.8 27.75 -15.7 29.85 -11.5 27.75 -10.4 27.75 -10.1 13.8 -3.35 27.75 4.55 27.75 4.8 31.7 7.0 Q31.0 10.8 29.5 14.25 L27.75 13.15 27.55 13.05 27.55 13.0 26.0 12.15 24.35 11.25 24.3 11.2 19.6 8.5 19.55 8.5 17.2 7.1 15.75 6.2 15.85 6.2 14.05 5.05 13.9 4.95 12.05 3.6 11.9 3.5 11.65 3.25 11.15 2.85 10.6 1.65 10.55 1.5 8.15 1.75 1.4 2.5 -3.95 2.2 -5.75 1.45 Q-7.1 1.3 -8.2 1.8 L-8.2 1.85 -11.75 2.1 -12.05 2.05 -12.85 1.75 -13.1 1.55 -13.1 1.65 -13.7 2.35 Q-15.9 4.05 -18.55 5.2 L-21.7 6.15 -22.65 6.5 -25.0 7.35 -25.25 7.4 -28.1 8.45 -28.15 8.5 -28.15 8.45 -32.55 10.2 Q-33.6 6.6 -33.75 2.65 L-28.15 0.25 -28.15 0.2 -15.85 -4.8 -15.05 -4.9 -15.1 -6.9 -15.05 -7.25 -15.25 -7.3 -20.15 -9.75 -24.4 -11.75 -26.5 -12.65 -26.9 -12.85 -27.2 -12.95 -28.15 -13.35 -30.25 -14.15 -28.3 -17.4 -28.15 -17.6 -25.8 -20.6 -20.3 -17.6 -20.25 -17.6 -13.25 -13.8 -13.15 -13.75 -11.85 -13.1 -11.35 -12.75 -11.15 -12.5 -11.1 -12.5 -10.9 -12.5 -10.3 -11.8 -10.45 -11.85 -10.35 -11.55 -10.25 -10.85 -9.65 -11.05 -8.9 -11.25 -8.85 -11.3 -8.8 -11.3 -5.65 -12.1 M9.5 -8.5 L9.85 -9.1 1.95 -6.9 2.15 -5.85 2.15 -5.8 9.15 -6.0 Q8.95 -6.55 9.1 -7.0 L9.5 -8.4 9.5 -8.5 M-2.6 -5.65 L-2.1 -5.65 -2.05 -5.8 -2.6 -5.65" fill="#727272" fill-rule="evenodd" stroke="none"/>
    <path d="M-2.3 -32.0 L-2.5 -28.75 -2.55 -25.8 Q-2.55 -23.85 -2.15 -21.9 L-1.85 -19.85 -2.2 -16.05 -1.85 -14.55 -2.05 -14.25 -2.2 -13.95 -2.15 -13.6 Q-2.0 -13.35 -1.55 -13.35 1.9 -14.1 1.9 -15.1 L1.65 -15.65 2.45 -18.4 Q2.45 -19.7 1.55 -18.5 L1.55 -18.55 1.9 -21.45 1.5 -22.4 1.1 -23.2 2.0 -28.75 2.05 -29.45 2.05 -29.7 2.55 -31.9 Q6.9 -31.5 10.8 -30.05 L10.2 -30.05 7.75 -16.0 4.45 -15.25 4.35 -15.15 2.45 -14.5 2.35 -14.5 1.95 -14.35 -2.4 -13.0 -5.1 -12.25 -5.05 -12.25 -5.65 -12.1 -7.7 -31.35 -2.7 -32.0 -2.5 -32.0 -2.3 -32.0 M9.5 -8.5 L9.5 -8.4 9.1 -7.0 Q8.95 -6.55 9.15 -6.0 L2.15 -5.8 2.15 -5.85 1.95 -6.9 9.85 -9.1 9.5 -8.5 M-10.3 -11.8 L-8.8 -11.3 -8.85 -11.3 -8.9 -11.25 -9.65 -11.05 -10.25 -10.85 -10.35 -11.55 -10.45 -11.85 -10.3 -11.8" fill="#8b8b8b" fill-rule="evenodd" stroke="none"/>
    <path d="M20.4 -24.3 L20.95 -23.85 21.85 -23.0 22.5 -22.4 22.7 -22.2 22.85 -22.05 23.1 -21.8 Q25.0 -19.8 26.55 -17.6 L26.75 -17.3 Q25.3 -16.55 23.25 -15.55 16.95 -12.45 13.55 -11.3 L13.4 -11.2 13.45 -11.5 13.45 -11.6 13.6 -13.2 13.6 -13.35 13.3 -14.65 13.3 -14.7 20.4 -24.3 M29.85 -11.5 Q32.2 -5.75 32.2 0.95 L32.2 1.25 32.2 1.8 Q32.15 4.45 31.7 7.0 L27.75 4.8 27.75 4.55 13.8 -3.35 27.75 -10.1 27.75 -10.4 29.85 -11.5 M29.5 14.25 L28.2 16.85 27.7 17.7 27.2 18.5 25.6 20.75 24.45 22.2 24.35 22.3 23.1 23.65 22.5 24.25 21.75 25.0 19.5 27.0 18.45 25.0 18.65 25.0 14.75 17.45 Q22.05 17.45 23.0 16.4 L23.3 16.2 23.85 15.45 23.9 14.55 23.25 12.1 Q23.15 11.6 22.7 11.3 L22.45 11.05 22.4 11.05 17.9 7.65 17.2 7.1 19.55 8.5 19.6 8.5 24.3 11.2 24.35 11.25 26.0 12.15 27.55 13.0 27.55 13.05 27.75 13.15 29.5 14.25 M7.75 32.9 Q3.7 33.95 -0.8 33.95 -5.4 33.95 -9.5 32.85 L-7.5 25.0 -7.25 25.0 -4.65 13.5 4.5 13.45 6.3 25.0 6.25 25.0 7.75 32.9 M-23.35 25.0 L-24.15 24.25 Q-26.5 21.9 -28.3 19.3 -31.2 15.05 -32.55 10.2 L-28.15 8.45 -28.15 8.5 -28.1 8.45 -25.25 7.4 -25.0 7.35 -22.65 6.5 -21.7 6.15 -18.55 5.2 Q-15.9 4.05 -13.7 2.35 L-13.1 1.65 -13.1 1.55 -12.85 1.75 -14.35 3.9 -14.65 4.5 -14.85 4.8 -14.85 4.85 -15.4 5.45 Q-16.6 7.05 -17.15 7.45 L-21.7 10.95 -23.9 12.5 -24.55 14.7 -24.4 15.95 -23.5 16.7 -19.8 17.7 -19.25 17.75 -15.55 17.55 -22.3 25.0 -23.35 25.0 M-33.75 2.65 L-33.8 0.95 Q-33.8 -7.35 -30.25 -14.15 L-28.15 -13.35 -27.2 -12.95 -26.9 -12.85 -26.5 -12.65 -24.4 -11.75 -20.15 -9.75 -15.25 -7.3 -15.05 -7.25 -15.1 -6.9 -15.05 -4.9 -15.85 -4.8 -28.15 0.2 -28.15 0.25 -33.75 2.65 M-25.8 -20.6 L-24.15 -22.4 -21.3 -24.95 -11.6 -13.35 -11.35 -12.75 -11.85 -13.1 -13.15 -13.75 -13.25 -13.8 -20.25 -17.6 -20.3 -17.6 -25.8 -20.6 M25.6 -17.75 L26.0 -18.1 25.65 -17.9 25.6 -17.75" fill="url(#gradient0)" fill-rule="evenodd" stroke="none"/>
    <path d="M2.55 -31.9 L2.05 -29.7 2.05 -29.45 2.0 -28.75 1.1 -23.2 1.5 -22.4 1.9 -21.45 1.55 -18.55 1.55 -18.5 Q2.45 -19.7 2.45 -18.4 L1.65 -15.65 1.9 -15.1 Q1.9 -14.1 -1.55 -13.35 -2.0 -13.35 -2.15 -13.6 L-2.2 -13.95 -2.05 -14.25 -1.85 -14.55 -2.2 -16.05 -1.85 -19.85 -2.15 -21.9 Q-2.55 -23.85 -2.55 -25.8 L-2.5 -28.75 -2.3 -32.0 -0.8 -32.05 2.55 -31.9 M-7.7 -31.35 L-5.65 -12.1 -8.8 -11.3 -10.3 -11.8 -10.9 -12.5 -11.1 -12.5 -11.15 -12.5 -11.35 -12.75 -11.6 -13.35 -21.3 -24.95 -17.75 -27.45 -15.5 -28.7 -15.4 -28.75 -13.5 -29.6 -12.75 -29.9 -12.3 -30.05 Q-10.1 -30.9 -7.7 -31.35 M7.75 -16.0 L10.2 -30.05 10.8 -30.05 13.1 -29.1 14.2 -28.55 14.5 -28.4 14.75 -28.25 14.95 -28.15 15.3 -27.95 20.4 -24.3 13.3 -14.7 13.25 -15.15 12.75 -16.05 Q12.4 -16.45 11.85 -16.5 L11.65 -16.5 8.45 -16.2 7.75 -16.0" fill="url(#gradient1)" fill-rule="evenodd" stroke="none"/>
    <path d="M17.2 7.1 L17.9 7.65 22.4 11.05 22.45 11.05 22.7 11.3 Q23.15 11.6 23.25 12.1 L23.9 14.55 23.85 15.45 23.3 16.2 23.0 16.4 Q22.05 17.45 14.75 17.45 L12.0 17.15 11.85 17.05 10.15 17.1 9.5 17.0 9.0 16.7 5.65 13.45 4.5 13.45 -4.65 13.5 -6.0 13.5 -9.55 16.9 Q-10.05 17.3 -10.55 17.3 L-15.55 17.55 -19.25 17.75 -19.8 17.7 -23.5 16.7 -24.4 15.95 -24.55 14.7 -23.9 12.5 -21.7 10.95 -17.15 7.45 Q-16.6 7.05 -15.4 5.45 L-14.85 4.85 -14.85 4.8 -14.65 4.5 -14.35 3.9 -12.85 1.75 -12.05 2.05 -11.75 2.1 -8.2 1.85 -8.2 1.8 Q-7.1 1.3 -5.75 1.45 L-3.95 2.2 1.4 2.5 8.15 1.75 10.55 1.5 10.6 1.65 11.15 2.85 11.65 3.25 11.9 3.5 12.05 3.6 13.9 4.95 14.05 5.05 15.85 6.2 15.75 6.2 17.2 7.1" fill="#b8b8b8" fill-rule="evenodd" stroke="none"/>
    <path d="M2.55 -31.9 Q6.9 -31.5 10.8 -30.05 L10.95 -30.0 11.1 -29.95 13.8 -29.95 13.5 -28.9 Q11.4 -22.4 10.35 -15.0 L9.85 -10.05 9.75 -9.05 Q9.4 -4.7 9.5 -1.2 L11.9 3.6 13.75 7.0 21.75 12.5 22.4 14.95 18.75 16.0 10.05 15.5 6.8 12.45 0.9 12.45 0.4 12.35 0.15 5.6 0.7 3.2 1.3 -0.35 1.1 -29.9 2.1 -29.9 2.55 -31.9 M-12.75 -29.9 L-12.3 -30.05 Q-10.1 -30.9 -7.7 -31.35 L-2.7 -32.0 -2.5 -32.0 -2.3 -32.0 -2.45 -29.7 -1.75 -29.7 -2.0 -0.1 -1.25 3.8 -0.85 5.45 -1.15 12.45 -7.2 12.45 -10.65 15.7 -19.35 16.2 -23.0 15.15 -22.4 12.7 -14.4 7.2 -12.55 3.8 -10.15 -1.0 Q-10.05 -4.3 -10.35 -8.4 L-10.7 -12.3 -11.05 -14.8 Q-12.05 -22.55 -14.3 -29.25 L-14.45 -29.75 -13.15 -29.75 -12.75 -29.9" fill="#000000" fill-rule="evenodd" stroke="none"/>
    <path d="M18.85 1.5 L19.5 1.9 21.7 3.1 27.75 6.45 27.75 11.25 25.1 9.85 Q20.9 7.55 19.45 6.55 L18.0 5.75 17.1 5.25 16.7 5.05 16.8 4.9 16.5 4.3 16.5 3.55 Q16.5 1.45 18.3 1.45 L18.85 1.5 M10.6 -0.05 L10.15 0.15 10.05 0.15 10.1 0.0 9.0 0.25 6.4 0.55 6.3 0.55 0.95 1.05 0.65 1.05 0.6 1.0 -4.35 1.0 -6.95 0.7 -9.75 0.2 -10.45 -0.05 -11.1 -0.6 -11.3 -0.7 -11.3 -1.05 -11.4 -1.5 -11.45 -2.4 -11.4 -2.6 -11.45 -2.75 -11.25 -3.5 -11.0 -3.8 -10.7 -3.9 -10.3 -3.55 -9.2 -3.05 -7.0 -2.7 -6.95 -2.7 -5.8 -2.75 -4.45 -2.75 -2.9 -2.7 -0.85 -2.55 0.45 -2.75 0.7 -2.75 0.85 -2.75 1.65 -2.9 4.3 -2.9 4.4 -3.0 6.7 -3.25 7.9 -3.3 9.0 -3.75 9.15 -3.75 9.65 -4.15 9.95 -4.2 9.95 -4.25 10.0 -4.2 Q10.95 -4.25 10.95 -2.2 L10.6 -0.05 M-23.75 -0.25 L-23.4 -0.25 -21.8 -0.85 -21.6 -0.95 -21.6 -0.85 Q-20.45 -0.7 -20.05 -0.35 -19.4 0.15 -19.4 1.45 L-19.5 2.25 -20.0 3.45 -20.55 4.1 -20.55 4.15 -20.65 4.2 -22.05 4.9 -22.7 5.15 -26.3 6.2 -27.45 6.45 -28.15 6.7 -30.15 7.0 -31.35 6.85 -31.4 6.3 -30.8 5.0 -30.05 3.85 -31.4 3.8 -31.6 3.65 -31.65 3.2 -31.2 2.75 -31.35 2.55 -31.4 2.2 -31.1 1.8 Q-30.35 1.1 -27.2 0.45 L-25.1 0.05 -24.8 -0.05 -23.75 -0.25" fill="#ffffff" fill-rule="evenodd" stroke="none"/>
    <path d="M10.75 -14.2 Q11.4 -13.95 11.55 -13.15 11.2 -11.55 11.2 -10.55 L11.2 -10.5 10.95 -10.25 10.95 -10.1 10.35 -9.55 10.2 -9.35 10.15 -9.4 Q9.0 -8.75 6.35 -7.65 L4.45 -7.15 3.35 -6.75 Q0.6 -5.7 -1.2 -5.5 L-1.65 -5.25 -4.9 -4.9 -5.1 -4.9 -5.8 -4.8 -9.5 -4.8 Q-10.15 -4.9 -10.55 -5.1 L-10.65 -5.1 -10.85 -5.55 -11.3 -6.1 -11.45 -6.75 -11.4 -7.05 -11.55 -8.05 -11.55 -8.55 -11.45 -8.75 -11.35 -8.75 -11.1 -8.95 -7.5 -8.75 -4.35 -9.1 -2.0 -9.5 Q2.9 -10.5 5.95 -11.9 7.75 -12.7 10.65 -14.25 L10.75 -14.2 M27.75 -16.75 L27.75 -11.45 27.55 -11.3 26.05 -10.7 21.15 -8.05 16.3 -6.45 Q12.95 -5.25 12.9 -4.6 L12.75 -4.45 11.95 -5.5 11.85 -5.9 12.15 -7.55 12.4 -8.35 12.1 -8.6 12.4 -9.15 12.7 -9.3 12.95 -9.3 Q13.95 -9.3 22.55 -13.5 L26.35 -15.85 27.3 -16.45 27.75 -16.75 M12.1 -2.6 L12.65 -2.4 13.55 -1.75 13.55 -1.6 Q15.5 -0.4 18.85 1.5 L18.3 1.45 Q16.5 1.45 16.5 3.55 L16.5 4.3 16.8 4.9 16.7 5.05 15.7 4.5 14.35 3.2 Q13.5 2.55 12.85 2.2 L12.6 2.05 12.5 2.0 12.35 1.9 12.3 1.65 12.2 1.5 12.15 1.65 12.1 1.65 Q11.85 1.15 11.75 0.45 L12.1 -2.6 M-21.0 -16.3 L-19.75 -15.55 -12.55 -11.65 -12.3 -11.45 -12.05 -11.3 -12.0 -11.45 -11.4 -10.55 Q-13.1 -8.15 -13.6 -8.15 L-14.55 -8.7 -15.95 -9.4 -16.7 -9.65 -20.45 -11.2 -21.95 -11.9 Q-25.55 -13.5 -27.05 -14.55 L-28.15 -15.0 -28.15 -17.6 -26.7 -19.55 -24.7 -18.15 Q-23.45 -17.4 -21.0 -16.3 M-21.6 -0.95 L-17.6 -2.3 -16.85 -2.75 Q-15.85 -3.3 -15.3 -3.35 L-15.25 -3.4 -14.15 -3.85 Q-13.75 -3.85 -13.55 -1.75 L-13.35 -0.1 -13.35 0.25 Q-13.35 0.6 -13.85 0.95 L-14.75 1.45 -14.85 1.45 -20.55 4.15 -20.55 4.1 -20.0 3.45 -19.5 2.25 -19.4 1.45 Q-19.4 0.15 -20.05 -0.35 -20.45 -0.7 -21.6 -0.85 L-21.6 -0.95" fill="#cdccca" fill-rule="evenodd" stroke="none"/>
    <path d="M10.95 -2.2 L11.0 -2.6 11.05 -3.3 10.95 -3.45 10.75 -4.05 Q10.75 -4.6 11.05 -4.7 L10.75 -5.25 10.7 -5.5 10.4 -5.0 10.15 -5.55 10.05 -6.15 10.0 -6.25 10.0 -6.3 10.05 -6.5 10.05 -8.25 10.4 -8.45 10.5 -8.15 10.6 -8.25 Q10.65 -9.2 11.55 -10.05 12.3 -10.65 12.5 -10.25 L12.55 -10.2 16.8 -12.35 21.6 -14.6 26.1 -17.7 26.4 -17.85 27.75 -18.65 27.75 -16.75 27.3 -16.45 26.35 -15.85 22.55 -13.5 Q13.95 -9.3 12.95 -9.3 L12.7 -9.3 12.55 -9.35 12.4 -9.15 12.1 -8.6 12.4 -8.35 12.15 -7.55 11.85 -5.9 11.95 -5.5 12.75 -4.45 12.95 -4.15 12.9 -4.6 Q12.95 -5.25 16.3 -6.45 L21.15 -8.05 26.05 -10.7 27.55 -11.3 27.75 -11.35 27.75 -10.05 25.8 -8.85 21.55 -6.8 Q14.8 -3.85 13.5 -3.85 L13.0 -4.05 Q13.0 -3.35 12.5 -3.35 L12.1 -2.95 12.1 -2.85 12.1 -2.6 11.75 0.45 Q11.45 1.45 11.0 1.45 10.6 1.45 10.5 1.1 L10.4 0.65 10.6 -0.05 10.95 -2.2 M11.15 -7.15 L11.15 -7.1 11.4 -7.25 11.4 -7.35 11.2 -7.15 11.15 -7.15 M-26.7 -19.55 L-25.9 -20.5 Q-24.4 -19.45 -23.35 -18.95 L-18.2 -16.5 Q-14.35 -14.65 -14.35 -14.35 -14.35 -13.7 -15.05 -13.7 -15.6 -13.7 -19.45 -15.55 L-21.0 -16.3 Q-23.45 -17.4 -24.7 -18.15 L-26.7 -19.55 M-16.7 -9.65 L-15.85 -8.9 -16.0 -8.5 Q-16.25 -8.25 -16.5 -8.25 -17.55 -8.25 -23.55 -10.95 -26.65 -12.4 -28.15 -13.25 L-28.15 -14.7 -26.65 -13.75 -22.8 -12.1 -20.45 -11.2 -16.7 -9.65 M-31.1 1.8 L-31.25 1.8 -31.9 1.0 Q-31.9 0.3 -28.15 -0.25 L-28.15 -0.4 -27.2 -0.65 -24.95 -1.05 Q-23.7 -1.15 -23.7 -0.65 L-23.75 -0.45 -23.75 -0.25 -24.8 -0.05 -25.1 0.05 -27.2 0.45 Q-30.35 1.1 -31.1 1.8 M-22.05 4.9 Q-20.15 4.1 -20.15 5.05 -20.15 5.4 -22.7 6.45 L-23.3 6.65 -23.8 6.85 -24.0 6.95 -24.5 7.15 -24.6 7.15 -24.7 7.25 -24.75 7.25 -24.85 7.25 -25.2 7.4 -25.25 7.4 -28.15 8.3 -28.15 6.7 -27.45 6.45 -26.3 6.2 -22.7 5.15 -22.05 4.9" fill="#727272" fill-rule="evenodd" stroke="none"/>
  </g>
  <defs>
    <linearGradient gradientTransform="matrix(5.0E-4, -0.0424, 0.0349, 4.0E-4, -1.3, 12.65)" gradientUnits="userSpaceOnUse" id="gradient0" spreadMethod="pad" x1="-819.2" x2="819.2">
      <stop offset="0.0" stop-color="#e5e5e5"/>
      <stop offset="1.0" stop-color="#4f4f4f"/>
    </linearGradient>
    <linearGradient gradientTransform="matrix(6.0E-4, 0.0147, -0.9794, 0.0428, 23.45, -29.65)" gradientUnits="userSpaceOnUse" id="gradient1" spreadMethod="pad" x1="-819.2" x2="819.2">
      <stop offset="0.0" stop-color="#eeeeee"/>
      <stop offset="1.0" stop-color="#919191"/>
    </linearGradient>
  </defs>
</svg>
