<?xml version="1.0" encoding="UTF-8" standalone="no"?>
<svg xmlns:ffdec="https://www.free-decompiler.com/flash" xmlns:xlink="http://www.w3.org/1999/xlink" ffdec:objectType="shape" height="69.95px" width="63.55px" xmlns="http://www.w3.org/2000/svg">
  <g transform="matrix(1.0, 0.0, 0.0, 1.0, 31.8, 31.8)">
    <path d="M22.35 -22.5 Q26.15 -18.7 28.4 -14.3 31.7 -7.85 31.7 -0.05 31.7 7.8 28.4 14.25 26.15 18.6 22.35 22.35 18.05 26.7 12.9 29.05 7.0 31.7 -0.05 31.7 -7.05 31.7 -12.95 29.05 -18.2 26.7 -22.55 22.35 -26.0 18.9 -28.15 14.9 -31.75 8.2 -31.75 -0.05 -31.75 -8.3 -28.15 -15.0 -26.0 -19.0 -22.55 -22.5 -18.8 -26.2 -14.4 -28.45 -7.9 -31.75 -0.05 -31.75 7.85 -31.75 14.3 -28.45 18.65 -26.2 22.35 -22.5" fill="url(#gradient0)" fill-rule="evenodd" stroke="none"/>
    <path d="M22.35 -22.5 Q26.15 -18.7 28.4 -14.3 31.7 -7.85 31.7 -0.05 31.7 7.8 28.4 14.25 26.15 18.6 22.35 22.35 18.05 26.7 12.9 29.05 7.0 31.7 -0.05 31.7 -7.05 31.7 -12.95 29.05 -18.2 26.7 -22.55 22.35 -26.0 18.9 -28.15 14.9 -31.75 8.2 -31.75 -0.05 -31.75 -8.3 -28.15 -15.0 -26.0 -19.0 -22.55 -22.5 -18.8 -26.2 -14.4 -28.45 -7.9 -31.75 -0.05 -31.75 7.85 -31.75 14.3 -28.45 18.65 -26.2 22.35 -22.5 Z" ffdec:has-small-stroke="true" ffdec:original-stroke-width="0.1" fill="none" stroke="#a60000" stroke-linecap="round" stroke-linejoin="round" stroke-width="1.0"/>
    <path d="M-15.95 26.8 L-15.95 -1.25 -28.85 -1.25 -1.45 -28.4 Q-0.55 -29.65 0.95 -28.4 L28.5 -1.25 16.8 -1.25 16.8 0.25 16.85 0.25 16.85 29.15 18.55 29.15 18.55 25.5 19.15 26.4 20.85 29.15 Q20.85 31.3 15.15 34.75 9.55 38.15 6.4 38.15 2.0 38.15 -5.05 35.9 -9.9 34.35 -12.65 33.0 -14.45 32.15 -15.05 31.15 L-15.5 29.75 -15.95 26.8" fill="url(#gradient1)" fill-rule="evenodd" stroke="none"/>
    <path d="M-15.95 26.8 L-15.95 28.15 -17.45 28.15 -17.45 0.25 -30.25 0.25 Q-31.35 -0.65 -30.45 -0.9 L-29.2 -1.25 -30.45 -1.25 -29.15 -1.85 -29.2 -1.85 -29.6 -2.5 -1.7 -30.4 -2.7 -30.35 -2.15 -30.8 1.1 -30.8 29.85 -1.95 29.6 -1.65 29.6 0.3 18.45 0.25 18.55 0.4 18.55 25.5 18.55 29.15 16.85 29.15 16.85 0.25 16.8 0.25 16.8 -1.25 28.5 -1.25 0.95 -28.4 Q-0.55 -29.65 -1.45 -28.4 L-28.85 -1.25 -15.95 -1.25 -15.95 26.8" fill="#310900" fill-opacity="0.6117647" fill-rule="evenodd" stroke="none"/>
    <path d="M-2.9 24.25 L-2.35 24.3 -2.35 24.4 -2.9 24.25" fill="#333333" fill-rule="evenodd" stroke="none"/>
    <path d="M7.9 15.35 L8.0 15.25 7.95 15.3 7.75 15.5 7.9 15.35 M-2.1 11.6 L-2.15 11.6 -2.25 11.45 -2.1 11.6" fill="#373737" fill-rule="evenodd" stroke="none"/>
    <path d="M-21.2 4.35 L-20.9 2.7 -20.4 0.55 -20.2 -0.05 -20.05 -0.65 -19.6 -1.7 -19.0 -2.75 -18.8 -2.9 -18.35 -3.6 Q-16.85 -5.3 -15.1 -5.75 L-14.95 -5.75 -14.85 -5.8 -14.3 -5.85 -11.8 -6.15 -10.2 -5.95 -9.9 -5.85 -9.8 -5.85 -9.1 -5.6 -8.45 -5.35 -6.6 -4.1 -5.25 -2.65 -5.0 -2.2 -4.65 -1.25 -4.5 -0.9 -4.45 -0.75 -4.45 -0.7 -4.35 -0.25 -4.25 0.1 -3.95 1.5 -3.95 2.0 -4.0 2.1 -4.0 2.15 -4.35 2.35 -4.45 2.45 -4.7 2.55 -4.7 2.45 -4.8 2.35 -5.2 1.2 -5.55 1.05 -5.9 1.15 -5.9 0.6 -6.4 0.5 -8.0 0.65 -8.05 0.6 -8.15 0.6 -8.95 0.9 Q-9.7 1.25 -10.7 1.6 L-10.75 1.95 -12.3 2.15 -13.15 2.0 -13.15 1.5 -13.2 1.15 -13.25 1.0 -14.2 0.65 -15.25 0.15 -15.4 0.6 Q-16.7 -0.3 -17.25 -0.3 -17.9 -0.3 -18.05 0.2 L-18.15 0.2 -18.5 0.3 -18.55 0.25 -18.7 0.55 -18.75 0.6 -18.95 1.1 -19.05 1.45 -19.3 1.9 -19.3 2.05 -19.45 3.1 -19.45 3.25 -19.5 3.3 -19.5 3.4 -19.4 3.4 -19.35 4.2 Q-19.15 4.75 -18.6 4.9 L-17.9 5.2 -15.1 5.65 -14.1 5.55 -14.0 5.5 -13.95 5.45 -13.0 5.7 Q-11.7 5.7 -10.35 5.1 L-10.0 5.4 -8.4 5.5 -7.95 5.5 -7.6 5.5 -7.95 6.15 -8.65 7.75 -8.9 8.3 -9.45 10.35 -9.5 10.45 -9.5 10.3 -9.8 10.0 -9.95 10.15 -10.1 10.3 -10.05 11.8 -10.0 12.7 -9.85 12.9 -9.8 12.95 -9.85 13.6 -9.85 13.95 -12.4 13.95 -12.55 13.95 -12.75 13.95 -12.75 13.9 -13.0 13.9 -13.1 13.85 -13.2 13.45 -13.15 13.15 -13.1 10.35 -13.25 10.2 Q-13.55 10.5 -13.55 11.15 L-13.9 12.05 -14.05 12.5 -14.05 12.55 -14.15 13.0 -14.45 13.9 -14.5 13.9 -14.75 13.9 -17.45 12.7 -17.1 11.05 -17.1 10.9 -16.95 10.35 -16.9 9.65 -16.8 8.95 -16.7 8.8 -19.65 6.3 -19.7 6.35 -19.9 6.2 -20.45 5.7 -20.45 5.65 -20.5 5.65 -20.7 5.45 -20.9 5.35 -21.25 5.1 -21.3 5.0 -21.2 4.35 M8.7 -5.7 L9.3 -5.95 9.45 -6.0 9.55 -6.05 10.9 -6.1 11.25 -6.1 11.6 -6.1 12.2 -6.25 15.0 -6.0 16.15 -5.55 17.4 -4.85 17.45 -4.75 17.6 -4.75 Q17.6 -4.65 17.95 -4.65 L18.8 -3.55 19.4 -2.4 20.2 -0.05 20.35 0.25 20.6 1.05 20.9 2.2 21.0 3.4 21.15 3.7 21.2 4.6 20.95 5.35 20.6 5.55 20.2 5.95 19.65 6.45 18.95 7.1 17.95 7.65 Q17.5 8.0 17.0 8.3 L16.9 8.35 16.9 8.6 17.1 9.1 17.15 9.2 17.15 9.6 17.25 9.9 17.75 11.6 17.8 12.0 17.8 12.05 Q17.5 12.5 16.4 12.7 L14.35 13.05 14.25 12.1 14.25 12.05 13.95 9.65 13.85 9.6 Q13.6 9.95 13.5 10.5 L13.45 11.5 13.45 12.05 13.25 13.25 12.35 13.25 12.35 13.3 11.25 13.25 11.25 13.2 11.0 13.2 10.95 11.25 10.95 10.8 11.1 10.15 11.1 9.95 10.9 9.75 Q10.7 9.85 10.65 10.55 L10.4 11.4 10.35 12.2 10.35 10.75 9.85 8.0 9.7 7.4 9.65 7.1 8.8 5.5 9.15 5.5 9.25 5.5 10.3 5.45 Q10.95 5.25 11.05 4.7 L12.5 4.8 12.65 4.8 13.55 4.6 Q13.55 5.2 15.6 5.25 L16.1 5.25 Q19.25 5.25 19.6 3.85 L19.65 3.5 19.05 1.6 18.4 0.75 17.85 0.85 17.9 0.4 17.75 -0.1 17.05 -0.45 15.75 -0.15 15.65 -0.15 15.4 -0.25 14.35 0.1 14.15 0.25 Q13.65 0.45 13.3 0.75 L12.15 0.9 11.0 0.6 10.3 0.05 10.2 0.0 9.0 -0.3 7.05 -0.9 Q6.35 -0.9 6.35 -0.1 L6.6 0.9 6.3 0.95 5.8 1.35 5.8 1.4 5.55 1.75 5.5 1.85 5.5 1.9 5.45 1.85 5.45 1.95 5.45 2.05 5.45 2.15 5.15 2.05 4.95 2.0 4.85 1.95 4.75 1.95 4.55 1.85 4.5 1.75 4.5 1.65 4.2 1.6 4.7 0.35 5.0 -0.6 5.05 -0.8 5.15 -0.95 5.75 -2.2 5.8 -2.25 5.85 -2.3 5.95 -2.5 6.0 -2.75 6.3 -3.45 7.4 -4.85 7.45 -4.85 8.15 -5.25 8.5 -5.45 8.7 -5.7 M10.35 8.05 L10.25 8.6 10.3 8.85 Q10.5 9.2 11.3 9.2 11.95 9.2 12.15 8.45 12.2 9.15 13.05 9.15 L13.55 9.0 13.65 8.95 13.95 8.35 13.75 7.6 13.1 6.85 12.55 6.5 12.45 6.3 12.3 6.25 12.3 6.3 12.3 6.4 12.0 6.3 11.75 6.3 11.65 6.35 11.6 6.35 11.5 6.3 10.5 7.4 10.25 7.75 10.3 7.95 10.35 8.0 10.35 8.05 M4.0 10.45 Q5.4 9.4 6.65 9.4 L7.75 9.55 7.9 10.4 7.9 10.65 7.8 10.75 7.75 10.7 7.55 10.6 7.2 10.85 6.85 11.05 5.65 12.3 5.35 12.55 5.05 12.85 3.05 14.65 2.5 15.15 2.4 15.2 2.4 15.3 2.4 15.4 2.4 15.5 2.15 16.0 2.3 16.1 1.2 16.1 -1.65 15.8 -1.55 15.75 -1.45 15.8 -1.3 15.5 -1.35 15.45 -1.5 15.15 -1.75 14.55 -1.8 14.55 -2.65 13.65 -3.45 12.7 -3.5 12.7 -4.8 11.4 -4.95 11.2 -5.15 11.0 -6.1 10.1 -6.25 10.05 -6.4 10.2 -6.65 10.0 -6.7 10.35 -7.05 11.6 -7.1 11.85 -7.3 13.0 -7.45 14.2 -7.45 14.35 -7.5 14.2 -7.6 13.35 -7.6 13.0 -7.35 11.45 -7.0 10.3 Q-6.35 8.75 -5.45 8.75 -4.6 8.75 -2.95 9.9 L-2.95 10.05 -2.3 11.0 Q-1.65 11.8 -1.0 12.0 L-0.85 12.35 -0.75 12.4 -0.65 12.4 -0.35 12.25 -0.4 12.05 -0.2 11.95 0.4 12.4 0.75 12.6 1.4 12.4 1.9 12.1 1.9 12.4 1.95 12.4 2.0 12.45 2.1 12.4 2.25 12.35 2.5 12.4 3.2 11.55 4.0 10.45 M-0.9 18.6 L-0.85 18.85 -0.85 18.9 -0.55 19.45 -0.05 19.45 0.1 19.35 0.2 19.1 0.15 18.95 0.35 18.0 0.45 17.45 Q0.45 16.55 -0.05 17.2 L0.0 17.0 0.3 16.75 Q0.8 16.75 1.65 17.55 2.4 18.3 2.4 18.75 L1.95 19.7 0.85 20.3 -0.4 20.0 Q-1.0 19.65 -1.0 19.05 L-0.9 18.6 M1.55 17.85 L1.2 17.3 1.0 19.2 1.05 19.2 1.1 19.5 1.35 19.55 1.8 19.55 2.2 19.0 2.15 18.8 2.15 18.6 1.55 17.85 M-12.85 7.7 L-12.9 7.75 -12.95 7.85 -12.95 7.95 -13.25 8.55 -13.4 8.95 -12.95 9.35 -12.3 9.55 Q-11.9 9.55 -11.65 8.95 L-11.5 8.1 -11.3 8.95 -10.75 9.5 -10.65 9.5 Q-9.7 9.45 -9.7 8.65 L-9.9 7.75 -10.3 7.3 -10.75 6.9 -10.9 6.65 -11.05 6.8 -11.15 6.9 -11.15 7.0 -11.2 6.95 -11.45 6.8 -11.5 6.8 -11.7 6.8 Q-12.3 6.8 -12.8 7.65 L-12.85 7.65 -12.85 7.7 M-2.1 11.6 L-2.25 11.45 -2.15 11.6 -2.1 11.6" fill="#b8b8b8" fill-rule="evenodd" stroke="none"/>
    <path d="M-22.85 5.8 L-21.2 4.35 -21.3 5.0 -21.25 5.1 -20.9 5.35 -20.7 5.45 -20.5 5.65 -20.45 5.65 -20.45 5.7 -19.9 6.2 -19.7 6.35 -19.65 6.3 -16.7 8.8 -16.8 8.95 -16.9 9.65 -16.95 10.35 -17.1 10.9 -17.1 11.05 -17.45 12.7 -14.75 13.9 -14.5 13.9 -14.45 13.9 -14.15 13.0 -14.05 12.55 -14.05 12.5 -13.9 12.05 -13.55 11.15 Q-13.55 10.5 -13.25 10.2 L-13.1 10.35 -13.15 13.15 -13.2 13.45 -13.1 13.85 -13.0 13.9 -12.75 13.9 -12.75 13.95 -12.55 13.95 -12.4 13.95 -9.85 13.95 -9.85 13.6 -9.8 12.95 -9.85 12.9 -10.0 12.7 -10.05 11.8 -10.1 10.3 -9.95 10.15 -9.8 10.0 -9.5 10.3 -9.5 10.45 -9.45 10.35 -8.9 8.3 -8.65 7.75 -7.95 6.15 -7.6 5.5 -7.95 5.5 -7.65 5.25 -6.9 4.6 -6.5 4.1 -5.5 3.2 Q-5.1 2.95 -4.8 2.35 L-4.7 2.45 -4.7 2.55 -4.45 2.45 -4.35 2.35 -4.0 2.15 -4.0 2.1 -3.95 2.0 -3.95 1.5 -4.25 0.1 -4.35 -0.25 -4.45 -0.7 -4.45 -0.75 -4.5 -0.9 -4.65 -1.25 -5.0 -2.2 -5.25 -2.65 -6.6 -4.1 -8.45 -5.35 -9.1 -5.6 -9.8 -5.85 -9.9 -5.85 -10.2 -5.95 -10.15 -6.0 -9.75 -5.85 -9.0 -5.7 -8.45 -5.4 Q-8.15 -5.7 -8.15 -6.0 L-7.95 -6.3 -7.8 -6.55 -7.95 -6.75 -7.6 -7.35 Q-6.5 -9.05 -5.35 -9.05 L-4.95 -8.8 -4.65 -8.6 -4.6 -8.55 -4.6 -8.5 -4.55 -8.45 -3.9 -7.85 -2.9 -6.65 -2.85 -6.6 -2.7 -6.4 -1.85 -4.8 -1.8 -4.65 -1.8 -4.45 -1.8 -4.35 -1.85 -4.1 -2.05 -3.65 -3.15 -3.75 -5.6 -4.55 -5.65 -4.55 -4.35 -3.15 -3.7 -2.4 -3.15 -1.15 -3.2 -1.15 -3.15 -0.95 -3.0 -0.35 -2.7 1.35 -2.7 1.55 -1.75 1.3 -1.5 1.35 -0.7 1.2 -0.35 1.15 -0.4 1.15 -0.2 1.15 0.45 1.1 1.15 1.25 1.45 1.1 2.4 1.2 2.65 1.2 2.75 1.2 3.4 -1.15 3.4 -1.2 3.5 -1.35 3.5 -1.4 4.05 -2.45 4.5 -3.1 5.9 -4.9 4.1 -4.3 3.4 -4.1 1.9 -3.9 1.85 -3.9 1.8 -4.1 1.85 -4.35 1.9 -4.5 1.95 -4.8 2.0 -4.85 2.85 -6.2 4.05 -7.6 5.05 -8.65 5.45 -8.85 5.55 -8.8 Q5.95 -8.8 7.25 -7.2 L7.3 -7.25 7.65 -6.9 7.75 -6.85 8.0 -6.35 8.1 -5.75 8.35 -5.55 8.7 -5.7 8.5 -5.45 8.15 -5.25 7.45 -4.85 7.4 -4.85 6.3 -3.45 6.0 -2.75 5.95 -2.5 5.85 -2.3 5.8 -2.25 5.75 -2.2 5.15 -0.95 5.05 -0.8 5.0 -0.6 4.7 0.35 4.2 1.6 4.5 1.65 4.5 1.75 4.55 1.85 4.75 1.95 4.85 1.95 4.95 2.0 5.15 2.05 Q5.25 2.35 5.5 2.45 L6.2 2.75 7.25 3.85 7.55 4.15 8.9 5.3 9.1 5.25 9.15 5.5 8.8 5.5 9.65 7.1 9.7 7.4 9.85 8.0 10.35 10.75 10.35 12.2 10.4 11.4 10.65 10.55 Q10.7 9.85 10.9 9.75 L11.1 9.95 11.1 10.15 10.95 10.8 10.95 11.25 11.0 13.2 11.25 13.2 11.25 13.25 12.35 13.3 12.35 13.25 13.25 13.25 13.45 12.05 13.45 11.5 13.5 10.5 Q13.6 9.95 13.85 9.6 L13.95 9.65 14.25 12.05 14.25 12.1 14.35 13.05 16.4 12.7 Q17.5 12.5 17.8 12.05 L17.8 12.0 17.75 11.6 17.25 9.9 17.15 9.6 17.15 9.2 17.1 9.1 16.9 8.6 16.9 8.35 17.0 8.3 Q17.5 8.0 17.95 7.65 L18.95 7.1 19.65 6.45 20.2 5.95 20.6 5.55 20.95 5.35 21.05 5.4 22.3 6.35 21.25 7.4 20.75 7.9 19.95 8.5 19.3 9.05 19.6 10.9 19.7 12.05 19.75 12.5 19.8 12.95 Q19.55 13.05 19.25 13.25 18.05 13.95 17.15 14.25 L13.75 15.0 11.8 14.95 10.55 14.7 10.45 15.0 10.45 17.75 Q10.45 18.25 9.9 18.6 9.45 19.4 7.0 20.55 L7.05 20.6 7.55 21.95 8.2 23.55 8.2 23.9 8.0 23.95 7.85 23.9 Q7.3 24.4 6.0 24.8 L3.2 25.4 2.85 25.4 -0.05 25.7 -3.6 25.3 -4.45 25.1 -4.85 25.1 -7.3 24.4 -7.3 24.0 -7.0 23.0 -7.0 22.95 -6.75 22.1 -6.75 22.05 -6.55 21.1 -6.45 20.65 -6.3 20.35 -6.3 20.3 -6.8 20.0 -8.6 18.9 -9.85 18.25 -10.0 18.1 -10.4 18.0 -10.45 17.6 -10.15 15.7 -12.65 15.6 -12.85 15.6 -13.15 15.6 -13.55 15.55 -15.2 15.0 Q-18.2 14.05 -19.1 13.05 L-18.8 11.95 -18.7 11.6 Q-18.55 11.3 -18.35 9.9 L-18.2 9.3 -20.6 7.6 -21.0 7.35 -22.2 6.5 -22.6 5.95 -22.85 5.8 M9.3 -5.95 L9.5 -6.05 9.55 -6.05 9.45 -6.0 9.3 -5.95 M1.45 -7.85 Q1.45 -8.25 2.35 -8.8 L3.0 -9.15 Q3.45 -9.35 3.85 -9.15 L3.9 -8.8 Q3.9 -8.5 2.9 -7.9 L1.95 -7.25 1.8 -7.3 1.5 -7.35 1.45 -7.85 M1.35 -1.8 L1.45 -1.8 1.45 -1.75 1.55 -1.3 Q1.55 -0.7 1.05 -0.7 0.5 -0.7 0.5 -1.55 L0.55 -1.75 0.45 -1.8 0.45 -1.9 0.5 -2.25 0.55 -2.3 0.6 -2.4 Q0.7 -2.6 0.9 -2.6 L1.1 -2.55 1.35 -1.9 1.35 -1.8 M-2.35 24.3 L-2.0 23.15 -2.0 23.1 -1.7 22.05 -1.35 21.1 -1.3 20.9 -1.25 20.9 -1.15 20.75 -1.0 21.0 -1.05 21.35 -1.0 21.35 -1.0 21.85 -0.85 22.9 -0.85 23.15 -0.85 23.2 -0.95 23.55 -1.05 24.15 -1.05 24.3 0.85 24.35 1.9 24.3 1.85 23.95 1.95 23.25 1.95 23.2 1.95 23.1 1.8 21.0 1.8 20.75 2.05 20.75 2.25 20.65 2.3 20.85 2.3 21.05 3.0 22.95 3.05 23.05 3.3 23.95 3.55 23.9 4.15 23.9 Q4.45 23.7 5.15 23.65 L5.45 23.65 6.35 23.15 6.45 22.85 6.25 22.1 5.75 21.1 5.65 21.0 5.35 20.25 5.3 20.0 6.05 19.65 8.1 18.65 8.85 18.1 9.0 17.95 9.3 17.65 9.35 17.5 9.45 17.05 9.65 16.55 9.5 16.5 9.5 12.45 9.4 12.05 9.4 11.7 9.35 11.15 9.35 11.05 9.15 9.0 9.1 8.7 8.85 8.15 8.8 8.05 7.95 6.3 7.0 5.1 6.15 4.3 6.1 4.3 Q3.9 2.4 2.0 2.4 L1.9 2.4 1.85 2.4 0.95 2.35 Q-2.35 2.35 -4.1 3.6 L-4.3 3.7 -4.55 3.9 -4.75 4.05 -5.15 4.55 Q-6.5 5.75 -7.3 7.6 L-7.35 7.75 -7.4 7.8 Q-8.0 9.25 -8.25 10.95 L-8.35 11.5 -8.5 12.7 -8.6 12.95 -8.6 13.05 -8.75 14.15 -8.75 14.35 -8.9 15.1 -8.9 15.35 -8.9 15.95 -8.9 16.7 -8.85 16.7 -8.7 17.05 -7.35 17.65 Q-5.4 18.9 -5.15 19.45 L-5.0 19.55 -5.25 20.7 -5.65 22.15 -5.8 22.7 -5.85 22.9 -5.85 23.0 -5.45 23.6 -4.7 23.75 -3.3 24.15 -2.9 24.25 -2.35 24.4 -2.35 24.3 M1.9 12.1 L1.85 11.55 1.9 11.2 1.9 11.1 1.95 11.05 2.6 10.45 3.85 9.75 4.6 9.3 4.6 9.45 4.45 9.85 4.0 10.35 4.0 10.45 3.2 11.55 2.5 12.4 2.25 12.35 2.1 12.4 2.0 12.45 1.95 12.4 1.9 12.4 1.9 12.1 M7.9 10.65 L8.0 10.55 8.25 11.6 8.25 11.7 8.45 12.5 8.5 13.3 Q8.5 14.55 7.9 15.35 L7.75 15.5 7.2 15.9 Q6.1 16.5 3.85 16.5 L3.15 16.4 2.3 16.1 2.15 16.0 2.4 15.5 2.4 15.4 2.4 15.3 2.4 15.2 2.5 15.15 3.05 14.65 5.05 12.85 5.35 12.55 5.65 12.3 6.85 11.05 7.2 10.85 7.55 10.6 7.75 10.7 7.8 10.75 7.9 10.65 M-1.65 15.8 L-1.9 16.05 -5.2 15.95 Q-6.5 15.75 -7.05 15.35 L-7.4 14.8 -7.45 14.6 -7.45 14.35 -7.45 14.2 -7.3 13.0 -7.1 11.85 -7.05 11.6 -6.7 10.35 -6.65 10.0 -6.4 10.2 -6.25 10.05 -6.1 10.1 -5.15 11.0 -4.95 11.2 -4.8 11.4 -3.5 12.7 -3.45 12.7 -2.65 13.65 -1.8 14.55 -1.75 14.55 -1.5 15.15 -1.35 15.45 -1.3 15.5 -1.45 15.8 -1.55 15.75 -1.65 15.8 M-2.95 9.9 L-2.7 9.4 Q-1.65 9.85 -1.5 10.0 L-0.5 10.7 -0.15 11.1 -0.2 11.9 -0.2 11.95 -0.4 12.05 -0.35 12.25 -0.65 12.4 -0.75 12.4 -0.85 12.35 -1.0 12.0 Q-1.65 11.8 -2.3 11.0 L-2.95 10.05 -2.95 9.9 M-0.05 17.2 Q0.45 16.55 0.45 17.45 L0.35 18.0 0.15 18.95 0.2 19.1 0.1 19.35 -0.05 19.45 -0.55 19.45 -0.85 18.9 -0.85 18.85 -0.9 18.6 -0.5 17.7 -0.2 17.35 -0.05 17.2 M1.55 17.85 L2.15 18.6 2.15 18.8 2.2 19.0 1.8 19.55 1.35 19.55 1.1 19.5 1.05 19.2 1.0 19.2 1.2 17.3 1.55 17.85 M-1.3 -7.4 L-2.35 -8.25 Q-3.05 -8.65 -3.05 -9.1 L-3.0 -9.4 -0.75 -8.6 -0.75 -8.25 -0.85 -8.05 -0.85 -7.95 -0.75 -7.8 Q-0.85 -7.4 -1.3 -7.4 M-1.0 -2.3 L-1.0 -2.35 -0.75 -2.85 -0.35 -2.95 -0.2 -3.05 -0.15 -3.05 -0.05 -2.95 -0.1 -2.55 -0.1 -2.5 -0.1 -2.4 -0.2 -2.15 Q-0.1 -0.5 -0.9 -0.5 -1.25 -0.5 -1.3 -0.85 L-1.35 -1.05 -1.35 -1.15 -1.15 -1.7 -1.0 -2.3 M-7.0 24.15 L-7.0 24.1 -7.05 24.15 -7.0 24.15" fill="#202020" fill-rule="evenodd" stroke="none"/>
    <path d="M-2.9 24.25 L-3.3 24.15 -4.7 23.75 -5.45 23.6 -5.85 23.0 -5.85 22.9 -5.8 22.7 -5.65 22.15 -5.25 20.7 -5.0 19.55 -5.15 19.45 Q-5.4 18.9 -7.35 17.65 L-8.7 17.05 -8.85 16.7 -8.9 16.7 -8.9 15.95 -8.9 15.35 -8.9 15.1 -8.75 14.35 -8.75 14.15 -8.6 13.05 -8.6 12.95 -8.5 12.7 -8.35 11.5 -8.25 10.95 Q-8.0 9.25 -7.4 7.8 L-7.35 7.75 -7.3 7.6 Q-6.5 5.75 -5.15 4.55 L-4.75 4.05 -4.55 3.9 -4.3 3.7 -4.1 3.6 Q-2.35 2.35 0.95 2.35 L1.85 2.4 1.9 2.4 2.0 2.4 Q3.9 2.4 6.1 4.3 L6.15 4.3 7.0 5.1 7.95 6.3 8.8 8.05 8.85 8.15 9.1 8.7 9.15 9.0 9.35 11.05 9.35 11.15 9.4 11.7 9.4 12.05 9.5 12.45 9.5 16.5 9.65 16.55 9.45 17.05 9.35 17.5 9.3 17.65 9.0 17.95 8.85 18.1 8.1 18.65 6.05 19.65 5.3 20.0 5.35 20.25 5.65 21.0 5.75 21.1 6.25 22.1 6.45 22.85 6.35 23.15 5.45 23.65 5.15 23.65 Q4.45 23.7 4.15 23.9 L3.55 23.9 3.3 23.95 3.05 23.05 3.0 22.95 2.3 21.05 2.3 20.85 2.25 20.65 2.05 20.75 1.8 20.75 1.8 21.0 1.95 23.1 1.95 23.2 1.95 23.25 1.85 23.95 1.9 24.3 0.85 24.35 -1.05 24.3 -1.05 24.15 -0.95 23.55 -0.85 23.2 -0.85 23.15 -0.85 22.9 -1.0 21.85 -1.0 21.35 -1.05 21.35 -1.0 21.0 -1.15 20.75 -1.25 20.9 -1.3 20.9 -1.35 21.1 -1.7 22.05 -2.0 23.1 -2.0 23.15 -2.35 24.3 -2.9 24.25 M4.0 10.45 L4.0 10.35 4.45 9.85 4.6 9.45 4.6 9.3 3.85 9.75 2.6 10.45 1.95 11.05 1.9 11.1 1.9 11.2 1.85 11.55 1.9 12.1 1.4 12.4 0.75 12.6 0.4 12.4 -0.2 11.95 -0.2 11.9 -0.15 11.1 -0.5 10.7 -1.5 10.0 Q-1.65 9.85 -2.7 9.4 L-2.95 9.9 Q-4.6 8.75 -5.45 8.75 -6.35 8.75 -7.0 10.3 L-7.35 11.45 -7.6 13.0 -7.6 13.35 -7.5 14.2 -7.45 14.35 -7.45 14.6 -7.4 14.8 -7.05 15.35 Q-6.5 15.75 -5.2 15.95 L-1.9 16.05 -1.65 15.8 1.2 16.1 2.3 16.1 3.15 16.4 3.85 16.5 Q6.1 16.5 7.2 15.9 L7.75 15.5 7.95 15.3 8.0 15.25 7.9 15.35 Q8.5 14.55 8.5 13.3 L8.45 12.5 8.25 11.7 8.25 11.6 8.0 10.55 7.9 10.65 7.9 10.4 7.75 9.55 6.65 9.4 Q5.4 9.4 4.0 10.45 M-0.9 18.6 L-1.0 19.05 Q-1.0 19.65 -0.4 20.0 L0.85 20.3 1.95 19.7 2.4 18.75 Q2.4 18.3 1.65 17.55 0.8 16.75 0.3 16.75 L0.0 17.0 -0.05 17.2 -0.2 17.35 -0.5 17.7 -0.9 18.6" fill="#eeeeee" fill-rule="evenodd" stroke="none"/>
    <path d="M-7.95 -6.75 L-8.15 -6.9 -8.8 -7.2 -9.3 -7.45 -8.4 -10.5 -8.4 -10.55 -8.4 -10.65 -8.35 -10.7 -8.25 -10.95 -7.8 -11.7 -7.55 -12.1 -6.55 -13.35 -5.1 -14.7 -4.05 -15.2 -3.6 -15.45 -3.0 -15.65 -2.6 -15.7 -2.3 -15.75 0.4 -15.7 0.5 -15.65 1.75 -15.65 3.1 -15.45 3.6 -15.35 4.35 -15.0 4.4 -15.0 4.45 -14.95 4.7 -14.8 5.7 -14.1 6.6 -13.05 7.05 -12.5 7.45 -11.75 7.6 -11.45 8.2 -10.1 8.65 -8.8 9.0 -7.55 8.2 -7.2 7.9 -7.0 7.8 -7.0 7.7 -6.95 7.7 -6.9 7.65 -6.9 7.3 -7.25 7.25 -7.2 Q5.95 -8.8 5.55 -8.8 L5.45 -8.85 5.05 -8.65 4.05 -7.6 2.85 -6.2 2.0 -4.85 1.95 -4.8 1.9 -4.5 1.85 -4.35 1.8 -4.1 1.85 -3.9 1.9 -3.9 3.4 -4.1 4.1 -4.3 5.9 -4.9 4.5 -3.1 4.05 -2.45 3.5 -1.4 3.5 -1.35 3.4 -1.2 3.4 -1.15 2.75 1.2 2.65 1.2 2.4 1.2 1.45 1.1 1.15 1.25 0.45 1.1 -0.2 1.15 -0.4 1.15 -0.35 1.15 -0.7 1.2 -1.5 1.35 -1.75 1.3 -2.7 1.55 -2.7 1.35 -3.0 -0.35 -3.15 -0.95 -3.2 -1.15 -3.15 -1.15 -3.7 -2.4 -4.35 -3.15 -5.65 -4.55 -5.6 -4.55 -3.15 -3.75 -2.05 -3.65 -1.85 -4.1 -1.8 -4.35 -1.8 -4.45 -1.8 -4.65 -1.85 -4.8 -2.7 -6.4 -2.85 -6.6 -2.9 -6.65 -3.9 -7.85 -4.55 -8.45 -4.6 -8.5 -4.6 -8.55 -4.65 -8.6 -4.95 -8.8 -5.35 -9.05 Q-6.5 -9.05 -7.6 -7.35 L-7.95 -6.75 M1.45 -7.85 L1.5 -7.35 1.8 -7.3 1.95 -7.25 2.9 -7.9 Q3.9 -8.5 3.9 -8.8 L3.85 -9.15 Q3.45 -9.35 3.0 -9.15 L2.35 -8.8 Q1.45 -8.25 1.45 -7.85 M1.35 -1.8 L1.35 -1.9 1.1 -2.55 0.9 -2.6 Q0.7 -2.6 0.6 -2.4 L0.55 -2.3 0.5 -2.25 0.45 -1.9 0.45 -1.8 0.55 -1.75 0.5 -1.55 Q0.5 -0.7 1.05 -0.7 1.55 -0.7 1.55 -1.3 L1.45 -1.75 1.45 -1.8 1.35 -1.8 M6.6 0.9 L6.35 -0.1 Q6.35 -0.9 7.05 -0.9 L9.0 -0.3 8.9 -0.3 8.9 -0.2 8.7 -0.25 8.4 -0.3 8.3 0.1 8.35 0.25 8.45 0.35 Q8.95 0.4 9.4 1.05 L9.7 1.25 10.35 1.65 10.35 1.5 10.55 1.6 10.7 1.75 11.1 1.6 11.15 1.0 11.0 0.6 12.15 0.9 13.3 0.75 13.15 0.85 12.8 1.05 12.85 1.45 12.95 1.85 13.25 1.6 13.8 1.35 14.5 1.25 14.7 1.15 15.35 0.4 15.75 0.1 15.75 -0.15 17.05 -0.45 17.75 -0.1 17.9 0.4 17.85 0.85 17.75 0.9 17.4 1.2 16.25 2.05 15.8 2.45 15.4 2.65 15.25 2.75 14.7 3.4 14.35 3.7 14.1 3.95 13.85 4.2 13.75 4.25 13.55 4.6 12.65 4.8 12.5 4.8 11.05 4.7 11.05 4.6 11.15 4.55 11.2 4.5 10.65 4.0 10.6 3.9 10.15 3.4 10.05 3.35 9.8 3.1 9.65 2.95 8.95 2.4 8.0 1.7 7.6 1.35 7.35 1.15 7.1 0.9 6.95 0.9 6.6 0.9 M12.55 6.5 L13.1 6.85 13.75 7.6 13.95 8.35 13.65 8.95 13.55 9.0 13.05 9.15 Q12.2 9.15 12.15 8.45 11.95 9.2 11.3 9.2 10.5 9.2 10.3 8.85 L10.25 8.6 10.35 8.05 10.4 8.1 10.45 8.25 10.7 8.4 10.75 8.45 11.0 8.65 11.05 8.65 11.2 8.3 11.3 7.9 11.35 7.7 11.45 7.4 Q11.45 6.95 11.6 6.7 L11.6 6.65 11.7 6.45 11.7 6.4 11.65 6.35 11.75 6.3 12.0 6.3 12.3 6.4 12.25 6.6 12.3 7.2 12.45 7.6 12.5 7.75 12.65 8.1 12.85 8.35 13.1 8.5 Q13.45 8.5 13.45 8.35 L13.45 8.3 13.5 7.95 13.5 7.9 13.5 7.7 13.45 7.65 13.3 7.5 13.05 7.25 12.9 7.1 12.55 6.5 M-1.3 -7.4 Q-0.85 -7.4 -0.75 -7.8 L-0.85 -7.95 -0.85 -8.05 -0.75 -8.25 -0.75 -8.6 -3.0 -9.4 -3.05 -9.1 Q-3.05 -8.65 -2.35 -8.25 L-1.3 -7.4 M-1.15 -1.7 L-1.35 -1.15 -1.35 -1.05 -1.3 -0.85 Q-1.25 -0.5 -0.9 -0.5 -0.1 -0.5 -0.2 -2.15 L-0.1 -2.4 -0.1 -2.5 -0.1 -2.55 -0.05 -2.95 -0.15 -3.05 -0.2 -3.05 -0.35 -2.95 -0.75 -2.85 -1.0 -2.35 -1.0 -2.3 -1.15 -2.0 -1.15 -1.7 M-5.9 1.15 L-6.25 1.15 Q-6.4 1.2 -6.55 1.35 L-6.55 1.4 -6.65 1.45 -6.95 1.65 -7.65 2.25 -7.9 2.45 -9.3 3.45 -10.35 4.6 -10.45 4.7 -10.35 4.75 -10.4 4.9 -10.35 5.1 Q-11.7 5.7 -13.0 5.7 L-13.95 5.45 -13.95 5.15 -14.0 5.05 -13.75 5.05 -15.85 2.8 -17.1 0.9 Q-17.6 0.2 -18.05 0.2 -17.9 -0.3 -17.25 -0.3 -16.7 -0.3 -15.4 0.6 L-15.4 0.65 -14.75 1.6 -13.95 2.6 -13.85 2.65 -13.75 2.65 -13.55 2.65 -13.2 2.55 -13.15 2.45 -13.15 2.0 -12.3 2.15 -10.75 1.95 -10.8 2.15 -10.75 2.25 -10.8 2.3 -10.7 2.7 -10.4 2.85 -10.25 2.8 -10.2 2.85 Q-10.05 2.8 -9.85 2.55 L-9.05 1.9 -8.65 1.65 -8.4 1.2 -7.95 0.7 -8.0 0.65 -6.4 0.5 -5.9 0.6 -5.9 1.15 M-10.75 6.9 L-10.3 7.3 -9.9 7.75 -9.7 8.65 Q-9.7 9.45 -10.65 9.5 L-10.75 9.5 -11.3 8.95 -11.5 8.1 -11.65 8.95 Q-11.9 9.55 -12.3 9.55 L-12.95 9.35 -13.4 8.95 -13.25 8.55 -12.95 7.95 -12.95 7.85 -12.9 7.75 -12.85 7.7 -12.9 7.85 -12.9 7.95 -13.15 8.35 -12.9 8.65 -12.75 8.8 -12.5 8.95 -12.45 8.95 -12.0 8.75 -12.0 8.65 -11.9 8.15 -11.85 7.85 -11.85 7.8 -11.7 7.1 -11.65 6.85 -11.7 6.85 -12.0 6.9 -12.15 6.95 -12.8 7.65 Q-12.3 6.8 -11.7 6.8 L-11.5 6.8 -11.45 6.8 -11.2 6.95 -11.15 7.0 -11.15 7.15 -11.0 7.4 -11.0 8.7 -10.55 8.8 -10.5 8.8 -10.2 8.65 -10.1 8.45 -10.1 7.95 -10.15 7.75 -10.6 7.15 -10.75 6.9" fill="#8c8989" fill-rule="evenodd" stroke="none"/>
    <path d="M9.0 -0.3 L10.2 0.0 10.3 0.05 11.0 0.6 11.15 1.0 11.1 1.6 10.7 1.75 10.55 1.6 10.35 1.5 10.35 1.65 9.7 1.25 9.4 1.05 Q8.95 0.4 8.45 0.35 L8.35 0.25 8.3 0.1 8.4 -0.3 8.7 -0.25 8.9 -0.2 8.9 -0.3 9.0 -0.3 M13.3 0.75 Q13.65 0.45 14.15 0.25 L14.35 0.1 15.4 -0.25 15.65 -0.15 15.75 -0.15 15.75 0.1 15.35 0.4 14.7 1.15 14.5 1.25 13.8 1.35 13.25 1.6 12.95 1.85 12.85 1.45 12.8 1.05 13.15 0.85 13.3 0.75 M17.85 0.85 L18.4 0.75 19.05 1.6 19.65 3.5 19.6 3.85 Q19.25 5.25 16.1 5.25 L15.6 5.25 Q13.55 5.2 13.55 4.6 L13.75 4.25 13.85 4.2 14.1 3.95 14.35 3.7 14.7 3.4 15.25 2.75 15.4 2.65 15.8 2.45 16.25 2.05 17.4 1.2 17.75 0.9 17.85 0.85 M11.05 4.7 Q10.95 5.25 10.3 5.45 L9.25 5.5 9.15 5.5 9.1 5.25 8.9 5.3 7.55 4.15 7.25 3.85 6.2 2.75 5.5 2.45 Q5.25 2.35 5.15 2.05 L5.45 2.15 5.45 2.05 5.45 1.95 5.45 1.85 5.5 1.9 5.5 1.85 5.55 1.75 5.8 1.4 5.8 1.35 6.3 0.95 6.6 0.9 6.95 0.9 7.1 0.9 7.35 1.15 7.6 1.35 8.0 1.7 8.95 2.4 9.65 2.95 9.8 3.1 10.05 3.35 10.15 3.4 10.6 3.9 10.65 4.0 11.2 4.5 11.15 4.55 11.05 4.6 11.05 4.7 M12.55 6.5 L12.9 7.1 13.05 7.25 13.3 7.5 13.45 7.65 13.5 7.7 13.5 7.9 13.5 7.95 13.45 8.3 13.45 8.35 Q13.45 8.5 13.1 8.5 L12.85 8.35 12.65 8.1 12.5 7.75 12.45 7.6 12.3 7.2 12.25 6.6 12.3 6.4 12.3 6.3 12.3 6.25 12.45 6.3 12.55 6.5 M11.65 6.35 L11.7 6.4 11.7 6.45 11.6 6.65 11.6 6.7 Q11.45 6.95 11.45 7.4 L11.35 7.7 11.3 7.9 11.2 8.3 11.05 8.65 11.0 8.65 10.75 8.45 10.7 8.4 10.45 8.25 10.4 8.1 10.35 8.05 10.35 8.0 10.3 7.95 10.25 7.75 10.5 7.4 11.5 6.3 11.6 6.35 11.65 6.35 M-4.8 2.35 Q-5.1 2.95 -5.5 3.2 L-6.5 4.1 -6.9 4.6 -7.65 5.25 -7.95 5.5 -8.4 5.5 -10.0 5.4 -10.35 5.1 -10.4 4.9 -10.35 4.75 -10.45 4.7 -10.35 4.6 -9.3 3.45 -7.9 2.45 -7.65 2.25 -6.95 1.65 -6.65 1.45 -6.55 1.4 -6.55 1.35 Q-6.4 1.2 -6.25 1.15 L-5.9 1.15 -5.55 1.05 -5.2 1.2 -4.8 2.35 M-8.0 0.65 L-7.95 0.7 -8.4 1.2 -8.65 1.65 -9.05 1.9 -9.85 2.55 Q-10.05 2.8 -10.2 2.85 L-10.25 2.8 -10.4 2.85 -10.7 2.7 -10.8 2.3 -10.75 2.25 -10.8 2.15 -10.75 1.95 -10.7 1.6 Q-9.7 1.25 -8.95 0.9 L-8.15 0.6 -8.05 0.6 -8.0 0.65 M-13.15 2.0 L-13.15 2.45 -13.2 2.55 -13.55 2.65 -13.75 2.65 -13.85 2.65 -13.95 2.6 -14.75 1.6 -15.4 0.65 -15.4 0.6 -15.25 0.15 -14.2 0.65 -13.25 1.0 -13.2 1.15 -13.15 1.5 -13.15 2.0 M-18.05 0.2 Q-17.6 0.2 -17.1 0.9 L-15.85 2.8 -13.75 5.05 -14.0 5.05 -13.95 5.15 -13.95 5.45 -14.0 5.5 -14.1 5.55 -15.1 5.65 -17.9 5.2 -18.6 4.9 Q-19.15 4.75 -19.35 4.2 L-19.4 3.4 -19.5 3.4 -19.5 3.3 -19.45 3.25 -19.45 3.1 -19.3 2.05 -19.3 1.9 -19.05 1.45 -18.95 1.1 -18.75 0.6 -18.7 0.55 -18.55 0.25 -18.5 0.3 -18.15 0.2 -18.05 0.2 M-10.75 6.9 L-10.6 7.15 -10.15 7.75 -10.1 7.95 -10.1 8.45 -10.2 8.65 -10.5 8.8 -10.55 8.8 -11.0 8.7 -11.0 7.4 -11.15 7.15 -11.15 7.0 -11.15 6.9 -11.05 6.8 -10.9 6.65 -10.75 6.9 M-12.8 7.65 L-12.15 6.95 -12.0 6.9 -11.7 6.85 -11.65 6.85 -11.7 7.1 -11.85 7.8 -11.85 7.85 -11.9 8.15 -12.0 8.65 -12.0 8.75 -12.45 8.95 -12.5 8.95 -12.75 8.8 -12.9 8.65 -13.15 8.35 -12.9 7.95 -12.9 7.85 -12.85 7.7 -12.85 7.65 -12.8 7.65" fill="#333232" fill-rule="evenodd" stroke="none"/>
    <path d="M-22.85 5.8 L-22.9 5.75 -22.9 5.65 -23.15 5.3 -22.8 2.75 Q-22.55 2.15 -22.25 0.35 L-20.65 -3.3 -20.35 -3.75 -19.95 -4.4 -19.95 -4.55 -19.75 -4.85 -19.75 -5.0 -19.1 -5.65 -18.5 -6.25 -16.7 -7.2 -15.9 -7.55 -14.9 -7.85 -13.3 -8.15 -12.95 -8.2 -12.2 -8.3 -11.15 -8.3 -11.4 -8.5 -11.05 -10.05 -10.7 -10.9 -9.9 -12.3 -9.85 -12.4 -9.75 -12.5 -8.15 -14.55 -7.25 -15.4 -6.3 -16.25 -4.55 -17.0 -0.15 -17.5 0.05 -17.4 3.05 -17.0 4.15 -16.65 5.35 -16.15 5.65 -15.95 6.0 -15.65 6.15 -15.65 8.15 -13.95 9.4 -11.9 9.7 -10.95 9.8 -10.95 9.85 -10.85 10.35 -8.95 10.5 -8.3 10.05 -8.05 10.55 -8.1 10.9 -8.15 13.2 -8.15 14.15 -8.0 14.7 -7.85 16.55 -7.45 17.65 -6.75 18.45 -6.05 18.9 -5.75 19.45 -5.2 20.15 -4.0 21.5 -1.5 22.3 2.35 22.4 3.15 22.4 3.2 22.55 3.6 22.55 3.85 22.6 4.1 22.6 4.2 22.65 5.15 22.45 6.2 22.3 6.35 21.05 5.4 20.95 5.35 21.2 4.6 21.15 3.7 21.0 3.4 20.9 2.2 20.6 1.05 20.35 0.25 20.2 -0.05 19.4 -2.4 18.8 -3.55 17.95 -4.65 Q17.6 -4.65 17.6 -4.75 L17.45 -4.75 17.4 -4.85 16.15 -5.55 15.0 -6.0 12.2 -6.25 11.6 -6.1 11.25 -6.1 10.9 -6.1 9.55 -6.05 9.5 -6.05 9.3 -5.95 8.7 -5.7 8.35 -5.55 8.1 -5.75 8.0 -6.35 7.75 -6.85 7.65 -6.9 7.7 -6.9 7.7 -6.95 7.8 -7.0 7.9 -7.0 8.2 -7.2 9.0 -7.55 8.65 -8.8 8.2 -10.1 7.6 -11.45 7.45 -11.75 7.05 -12.5 6.6 -13.05 5.7 -14.1 4.7 -14.8 4.45 -14.95 4.4 -15.0 4.35 -15.0 3.6 -15.35 3.1 -15.45 1.75 -15.65 0.5 -15.65 0.4 -15.7 -2.3 -15.75 -2.6 -15.7 -3.0 -15.65 -3.6 -15.45 -4.05 -15.2 -5.1 -14.7 -6.55 -13.35 -7.55 -12.1 -7.8 -11.7 -8.25 -10.95 -8.35 -10.7 -8.4 -10.65 -8.4 -10.55 -8.4 -10.5 -9.3 -7.45 -8.8 -7.2 -8.15 -6.9 -7.95 -6.75 -7.8 -6.55 -7.95 -6.3 -8.15 -6.0 Q-8.15 -5.7 -8.45 -5.4 L-9.0 -5.7 -9.75 -5.85 -10.15 -6.0 -10.2 -5.95 -11.8 -6.15 -14.3 -5.85 -14.85 -5.8 -14.95 -5.75 -15.1 -5.75 Q-16.85 -5.3 -18.35 -3.6 L-18.8 -2.9 -19.0 -2.75 -19.6 -1.7 -20.05 -0.65 -20.2 -0.05 -20.4 0.55 -20.9 2.7 -21.2 4.35 -22.85 5.8 M-9.1 -10.95 L-9.05 -10.95 -9.05 -11.0 -9.1 -10.95" fill="#121212" fill-rule="evenodd" stroke="none"/>
  </g>
  <defs>
    <radialGradient cx="0" cy="0" gradientTransform="matrix(0.0395, 0.0, 0.0, 0.0395, 0.0, 0.0)" gradientUnits="userSpaceOnUse" id="gradient0" r="819.2" spreadMethod="pad">
      <stop offset="0.47058823529411764" stop-color="#000000"/>
      <stop offset="1.0" stop-color="#790000"/>
    </radialGradient>
    <linearGradient gradientTransform="matrix(-5.0E-4, 0.0139, -0.0351, -0.0014, -1.2, 23.45)" gradientUnits="userSpaceOnUse" id="gradient1" spreadMethod="pad" x1="-819.2" x2="819.2">
      <stop offset="0.0" stop-color="#ffffff" stop-opacity="0.49803922"/>
      <stop offset="1.0" stop-color="#ffffff" stop-opacity="0.29803923"/>
    </linearGradient>
  </defs>
</svg>
