<?xml version="1.0" encoding="UTF-8" standalone="no"?>
<svg xmlns:ffdec="https://www.free-decompiler.com/flash" xmlns:xlink="http://www.w3.org/1999/xlink" ffdec:objectType="shape" height="51.95px" width="51.9px" xmlns="http://www.w3.org/2000/svg">
  <g transform="matrix(1.0, 0.0, 0.0, 1.0, 25.8, 26.15)">
    <path d="M18.0 -10.6 L17.95 -10.65 17.4 -10.75 16.8 -10.5 -11.75 15.4 -12.0 15.8 -12.0 15.85 -12.05 15.9 -12.05 16.4 -12.0 16.5 -11.55 17.0 Q-6.45 20.6 0.05 20.6 8.7 20.6 14.85 14.55 20.85 8.4 20.85 -0.3 20.85 -4.25 19.55 -7.65 L19.55 -7.75 19.55 -7.85 18.45 -10.1 18.45 -10.05 18.0 -10.6 M13.7 -15.75 L13.6 -15.85 13.35 -16.15 13.3 -16.2 Q7.65 -20.85 0.25 -20.85 -8.4 -20.85 -14.4 -14.7 -20.65 -8.6 -20.65 0.0 -20.65 2.95 -19.95 5.45 L-19.8 5.9 Q-19.0 8.6 -17.35 11.3 L-17.0 11.6 -16.9 11.65 -16.25 11.8 -16.1 11.75 -15.75 11.5 11.55 -13.05 11.65 -13.15 11.7 -13.2 12.55 -14.05 12.85 -14.15 12.85 -14.2 13.15 -14.4 13.35 -14.6 13.7 -15.05 13.7 -15.15 13.7 -15.75 M26.1 -0.15 Q26.1 10.6 18.5 18.25 10.9 25.8 0.15 25.8 -10.6 25.8 -18.2 18.25 -23.15 13.25 -24.85 6.95 L-24.85 7.0 Q-25.8 3.65 -25.8 -0.15 -25.8 -10.85 -18.2 -18.5 -10.6 -26.1 0.15 -26.1 10.9 -26.1 18.5 -18.5 L21.45 -15.1 Q23.3 -12.55 24.45 -9.7 26.1 -5.25 26.1 -0.15" fill="url(#gradient0)" fill-rule="evenodd" stroke="none"/>
    <path d="M13.8 -15.8 L13.65 -15.9 13.4 -16.15 13.4 -16.25 Q7.8 -20.9 0.35 -20.95 -8.3 -20.95 -14.3 -14.9 -20.6 -8.8 -20.65 -0.15 -20.6 2.8 -20.0 5.3 L-19.8 5.75 Q-19.0 8.45 -17.4 11.15 L-17.05 11.45 -16.95 11.5 -16.3 11.65 -16.1 11.6 -15.8 11.35 11.65 -13.05 11.75 -13.15 11.8 -13.2 Q11.95 -13.6 12.65 -14.1 L12.95 -14.15 12.95 -14.2 13.25 -14.45 13.45 -14.6 13.8 -15.1 13.8 -15.2 13.8 -15.8 M14.9 -14.3 L14.6 -14.25 13.7 -13.25 13.6 -13.2 13.55 -13.15 -16.2 13.3 -16.55 13.6 -16.75 13.65 -17.5 13.45 Q-17.55 13.35 -17.6 13.4 L-17.95 13.05 Q-19.85 10.0 -20.75 6.95 L-21.05 6.45 Q-21.8 3.6 -21.9 0.35 -22.1 -9.25 -15.3 -15.9 -8.8 -22.5 0.75 -22.25 8.95 -21.95 15.35 -16.6 L15.4 -16.45 15.7 -16.15 15.8 -16.1 15.85 -15.45 15.8 -15.3 15.4 -14.75 15.25 -14.6 14.9 -14.35 14.9 -14.3 M18.55 -12.65 L18.6 -12.6 19.1 -11.85 19.1 -12.0 20.4 -9.45 20.45 -9.3 20.4 -9.2 Q21.95 -5.35 22.1 -0.9 22.3 8.85 15.8 15.5 9.1 22.0 -0.5 21.75 -7.8 21.45 -13.5 17.2 L-14.05 16.55 -14.05 16.5 Q-14.3 16.2 -14.15 15.95 L-14.05 15.9 -14.1 15.8 -13.8 15.5 17.25 -12.5 17.95 -12.8 18.55 -12.65 M18.55 -10.1 L18.5 -10.0 18.05 -10.6 18.05 -10.65 17.5 -10.8 16.85 -10.5 -11.8 15.3 -12.05 15.65 -12.05 15.7 -12.1 15.8 -12.1 16.3 -11.65 16.85 Q-6.55 20.5 -0.05 20.55 8.6 20.55 14.8 14.55 20.85 8.4 20.9 -0.25 20.9 -4.25 19.6 -7.65 L19.65 -7.75 19.6 -7.85 18.55 -10.1" fill="#9c1201" fill-rule="evenodd" stroke="none"/>
    <path d="M18.55 -12.65 L17.95 -12.8 17.25 -12.5 -13.8 15.5 -14.1 15.8 -14.05 15.9 -14.15 15.95 Q-14.3 16.2 -14.05 16.5 L-14.05 16.55 -13.5 17.2 Q-7.8 21.45 -0.5 21.75 9.1 22.0 15.8 15.5 22.3 8.85 22.1 -0.9 21.95 -5.35 20.4 -9.2 L20.45 -9.3 20.4 -9.45 19.1 -12.0 19.1 -11.85 18.6 -12.6 18.55 -12.65 M14.9 -14.3 L14.9 -14.35 15.25 -14.6 15.4 -14.75 15.8 -15.3 15.85 -15.45 15.8 -16.1 15.7 -16.15 15.4 -16.45 15.35 -16.6 Q8.95 -21.95 0.75 -22.25 -8.8 -22.5 -15.3 -15.9 -22.1 -9.25 -21.9 0.35 -21.8 3.6 -21.05 6.45 L-20.75 6.95 Q-19.85 10.0 -17.95 13.05 L-17.6 13.4 Q-17.55 13.35 -17.5 13.45 L-16.75 13.65 -16.55 13.6 -16.2 13.3 13.55 -13.15 13.6 -13.2 13.7 -13.25 14.6 -14.25 14.9 -14.3 M24.5 -9.65 Q26.1 -5.2 26.1 -0.1 26.05 10.65 18.4 18.25 10.85 25.75 0.05 25.75 -10.7 25.65 -18.3 18.05 -23.2 13.0 -24.9 6.7 L-24.85 6.8 Q-25.85 3.5 -25.8 -0.3 -25.75 -11.0 -18.1 -18.7 -10.5 -26.2 0.25 -26.15 11.05 -26.1 18.65 -18.45 L21.55 -15.05 Q23.35 -12.5 24.5 -9.65" fill="url(#gradient1)" fill-rule="evenodd" stroke="none"/>
  </g>
  <defs>
    <linearGradient gradientTransform="matrix(-2.0E-4, -0.031, 0.0305, -1.0E-4, 0.15, 14.95)" gradientUnits="userSpaceOnUse" id="gradient0" spreadMethod="pad" x1="-819.2" x2="819.2">
      <stop offset="0.0" stop-color="#6b0000"/>
      <stop offset="1.0" stop-color="#ff1c00"/>
    </linearGradient>
    <linearGradient gradientTransform="matrix(0.0, -0.031, 0.0305, 0.0, 0.05, 14.85)" gradientUnits="userSpaceOnUse" id="gradient1" spreadMethod="pad" x1="-819.2" x2="819.2">
      <stop offset="0.0" stop-color="#6b0000"/>
      <stop offset="1.0" stop-color="#ff1c00"/>
    </linearGradient>
  </defs>
</svg>
