<?xml version="1.0" encoding="UTF-8" standalone="no"?>
<svg xmlns:ffdec="https://www.free-decompiler.com/flash" xmlns:xlink="http://www.w3.org/1999/xlink" ffdec:objectType="shape" height="63.55px" width="63.55px" xmlns="http://www.w3.org/2000/svg">
  <g transform="matrix(1.0, 0.0, 0.0, 1.0, 31.8, 31.8)">
    <path d="M31.7 -0.05 Q31.7 7.8 28.4 14.25 26.15 18.6 22.35 22.35 18.05 26.7 12.9 29.05 7.0 31.7 -0.05 31.7 -7.05 31.7 -12.95 29.05 -18.2 26.7 -22.55 22.35 -26.0 18.9 -28.15 14.9 -31.75 8.2 -31.75 -0.05 -31.75 -8.3 -28.15 -15.0 -26.0 -19.0 -22.55 -22.5 -18.8 -26.2 -14.4 -28.45 -7.9 -31.75 -0.05 -31.75 7.85 -31.75 14.3 -28.45 18.65 -26.2 22.35 -22.5 26.15 -18.7 28.4 -14.3 31.7 -7.85 31.7 -0.05 M16.15 -15.1 Q9.55 -21.7 0.2 -21.7 -9.15 -21.7 -15.8 -15.1 -22.4 -8.45 -22.4 0.9 -22.4 10.25 -15.8 16.85 -9.15 23.5 0.2 23.5 9.55 23.5 16.15 16.85 22.8 10.25 22.8 0.9 22.8 -8.45 16.15 -15.1" fill="#000000" fill-rule="evenodd" stroke="none"/>
    <path d="M16.15 -15.1 Q22.8 -8.45 22.8 0.9 22.8 10.25 16.15 16.85 9.55 23.5 0.2 23.5 -9.15 23.5 -15.8 16.85 -22.4 10.25 -22.4 0.9 -22.4 -8.45 -15.8 -15.1 -9.15 -21.7 0.2 -21.7 9.55 -21.7 16.15 -15.1" fill="#faefbe" fill-rule="evenodd" stroke="none"/>
    <path d="M31.7 -0.05 Q31.7 7.8 28.4 14.25 26.15 18.6 22.35 22.35 18.05 26.7 12.9 29.05 7.0 31.7 -0.05 31.7 -7.05 31.7 -12.95 29.05 -18.2 26.7 -22.55 22.35 -26.0 18.9 -28.15 14.9 -31.75 8.2 -31.75 -0.05 -31.75 -8.3 -28.15 -15.0 -26.0 -19.0 -22.55 -22.5 -18.8 -26.2 -14.4 -28.45 -7.9 -31.75 -0.05 -31.75 7.85 -31.75 14.3 -28.45 18.65 -26.2 22.35 -22.5 26.15 -18.7 28.4 -14.3 31.7 -7.85 31.7 -0.05 Z" ffdec:has-small-stroke="true" ffdec:original-stroke-width="0.1" fill="none" stroke="#a60000" stroke-linecap="round" stroke-linejoin="round" stroke-width="1.0"/>
    <path d="M0.5 4.75 Q0.55 3.2 0.9 1.55 1.45 -1.0 2.4 -2.55 L2.85 -3.65 3.5 -4.7 Q4.35 -6.1 5.1 -6.75 L5.95 -7.8 6.5 -8.25 7.0 -8.8 8.3 -9.75 8.85 -10.0 7.4 -10.3 5.15 -10.45 2.95 -10.3 2.3 -10.15 1.9 -10.1 Q-0.8 -9.7 -3.35 -8.6 L-7.3 -6.25 -7.6 -6.05 -8.05 -5.65 -8.65 -5.05 -8.7 -5.05 -8.85 -4.85 -9.0 -4.35 -9.3 -3.4 -9.65 -2.0 -9.75 -1.5 -9.75 -1.0 -9.75 -0.95 -9.75 -0.5 -9.85 -0.45 -9.95 -0.3 -9.95 0.4 -9.75 0.5 -9.7 0.65 -9.25 2.0 -8.65 2.9 -8.1 3.85 -6.55 5.7 -6.2 6.05 -6.15 6.25 -5.85 6.55 -5.5 6.9 -4.75 7.7 -3.5 8.95 -3.45 9.1 -3.05 9.45 -2.3 10.15 -2.05 10.4 -1.8 10.6 -0.7 11.4 Q1.05 12.3 2.55 12.55 L2.7 12.65 2.95 12.7 2.2 11.95 2.65 12.15 2.75 12.2 Q3.35 12.7 4.1 12.7 L4.35 12.7 4.75 12.8 7.45 12.9 7.95 12.9 8.5 12.9 9.6 12.75 9.6 12.7 12.1 12.0 13.0 11.4 13.7 10.8 13.9 10.55 Q15.2 9.3 15.55 7.25 L15.65 6.7 15.9 4.0 16.05 2.65 15.95 2.05 15.8 -0.6 15.45 -2.7 15.45 -2.75 14.8 -5.1 13.7 -7.15 13.6 -7.25 13.5 -7.45 12.7 -8.25 12.0 -8.95 11.15 -9.45 9.4 -9.95 8.9 -9.7 8.1 -9.2 7.3 -8.55 6.55 -7.9 6.45 -7.7 6.15 -7.55 5.35 -6.55 4.5 -5.6 4.35 -5.25 4.0 -4.8 3.7 -4.4 2.4 -1.85 1.5 0.7 Q1.2 1.45 1.2 2.0 L1.1 2.75 Q0.7 3.05 0.7 3.5 L0.5 4.75 M-9.85 -5.7 L-9.4 -6.3 -9.3 -6.4 -8.95 -6.85 -8.75 -6.9 -8.6 -7.0 -8.0 -7.35 -5.65 -8.9 -2.1 -10.25 2.35 -11.35 4.5 -11.6 10.1 -11.1 Q11.8 -10.6 12.0 -10.1 L12.1 -10.05 12.5 -9.6 12.55 -9.8 Q12.95 -9.95 13.45 -9.4 L13.95 -8.8 14.3 -8.9 14.85 -8.45 15.3 -7.75 15.3 -7.7 15.45 -7.5 15.55 -7.3 16.2 -6.1 16.9 -3.45 17.0 -2.65 17.05 -2.45 17.3 -0.5 17.45 3.05 17.4 3.65 17.3 3.8 17.25 4.35 17.25 4.4 Q17.25 6.4 16.75 8.45 L16.7 8.55 15.85 10.5 15.85 10.55 14.8 11.95 Q12.8 14.0 9.35 14.05 L9.0 14.1 8.8 14.1 8.7 14.1 6.7 14.25 3.5 14.05 Q1.05 13.85 -1.95 12.05 -4.3 10.65 -4.85 9.6 L-6.55 8.0 -9.0 4.65 Q-11.0 1.65 -11.0 0.75 L-11.0 0.65 -11.0 0.55 -10.8 0.45 -10.95 0.25 -10.85 -0.6 -10.75 -1.4 -10.75 -1.45 -10.6 -2.4 -10.6 -2.65 -10.4 -3.85 -10.35 -4.2 -10.05 -5.55 -9.85 -5.7 M10.4 -10.05 L10.8 -9.95 12.3 -9.2 11.85 -9.75 11.7 -9.75 10.9 -10.15 10.6 -10.15 10.55 -10.15 10.4 -10.05 M-15.05 1.2 L-15.0 1.2 -14.85 1.2 -14.85 1.25 -15.05 1.2 M-11.45 -0.5 L-11.45 -0.45 -11.5 -0.5 -11.45 -0.5" fill="#5b1b1b" fill-rule="evenodd" stroke="none"/>
    <path d="M-8.65 -5.05 Q-8.8 -4.1 -8.05 -2.85 L-6.5 -0.65 -4.5 1.55 -1.75 3.65 -1.65 3.85 Q-1.35 3.85 -1.35 4.1 L-0.15 4.75 0.4 5.1 0.3 5.45 -0.05 5.25 -0.55 4.9 -2.5 3.65 -4.25 2.3 Q-4.55 1.85 -5.6 0.95 L-7.75 -1.8 -8.65 -3.15 Q-9.0 -3.7 -9.0 -4.35 L-8.85 -4.85 -8.7 -5.05 -8.65 -5.05" fill="#6e1a1a" fill-rule="evenodd" stroke="none"/>
    <path d="M-10.35 -4.2 L-10.4 -3.85 -10.6 -2.65 -10.6 -2.4 -10.75 -1.45 -10.75 -1.4 -10.85 -0.6 -12.05 -0.9 -13.7 -0.15 -14.65 0.45 -15.0 0.5 -15.15 0.5 Q-15.7 0.4 -16.5 -0.3 L-16.7 -0.5 Q-17.1 -0.95 -17.1 -1.7 L-16.95 -1.9 -16.35 -2.6 -15.55 -3.3 -15.35 -3.85 -15.65 -4.5 -16.15 -5.35 -16.25 -5.4 -16.25 -5.8 -15.6 -6.95 -14.55 -7.95 -14.4 -7.95 -13.6 -7.7 -12.7 -6.25 -11.75 -4.95 -11.55 -4.7 Q-11.05 -4.3 -10.65 -4.3 L-10.5 -4.3 -10.35 -4.2 M11.2 1.0 L11.3 1.05 11.45 1.65 11.7 2.25 11.85 3.35 11.75 4.05 11.6 4.7 10.8 5.6 9.9 5.75 8.4 5.5 7.65 4.9 Q7.4 4.3 7.4 3.6 7.4 2.2 8.05 0.9 8.3 0.35 9.5 -0.15 9.95 -0.3 10.9 0.3 L11.2 1.0" fill="#ffffff" fill-rule="evenodd" stroke="none"/>
    <path d="M-11.0 0.55 L-12.0 0.55 -12.2 0.65 -12.45 0.75 -12.65 0.85 -13.3 1.55 Q-13.95 2.05 -14.8 2.05 -15.8 2.05 -17.65 0.25 L-18.3 -0.75 -18.45 -1.6 Q-18.45 -2.5 -17.65 -3.7 L-17.1 -4.35 -17.15 -4.45 -17.3 -4.7 -17.8 -5.95 -16.45 -8.25 -15.25 -9.3 -13.4 -9.85 -12.45 -8.85 -11.9 -7.85 -10.35 -5.85 -10.0 -5.85 -9.85 -5.7 -10.05 -5.55 -10.35 -4.2 -10.5 -4.3 -10.65 -4.3 Q-11.05 -4.3 -11.55 -4.7 L-11.75 -4.95 -12.7 -6.25 -13.6 -7.7 -14.4 -7.95 -14.55 -7.95 -15.6 -6.95 -16.25 -5.8 -16.25 -5.4 -16.15 -5.35 -15.65 -4.5 -15.35 -3.85 -15.55 -3.3 -16.35 -2.6 -16.95 -1.9 -17.1 -1.7 Q-17.1 -0.95 -16.7 -0.5 L-16.5 -0.3 Q-15.7 0.4 -15.15 0.5 L-15.0 0.5 -14.65 0.45 -13.7 -0.15 -12.05 -0.9 -10.85 -0.6 -10.95 0.25 -10.8 0.45 -11.0 0.55 M-11.45 -0.5 L-11.5 -0.5 -11.45 -0.45 -11.45 -0.5 M-15.05 1.2 L-14.85 1.25 -14.85 1.2 -15.0 1.2 -15.05 1.2" fill="#373737" fill-rule="evenodd" stroke="none"/>
    <path d="M2.2 11.95 L2.95 12.7 2.7 12.65 2.55 12.55 Q1.05 12.3 -0.7 11.4 L-1.8 10.6 -2.05 10.4 -2.3 10.15 -3.05 9.45 -3.45 9.1 -3.5 8.95 -4.75 7.7 -5.5 6.9 -5.85 6.55 -6.15 6.25 -6.2 6.05 -6.55 5.7 -8.1 3.85 -8.65 2.9 -9.25 2.0 -9.7 0.65 -9.75 0.5 -9.95 0.4 -9.95 -0.3 -9.85 -0.45 -9.75 -0.5 -9.75 -0.95 -9.75 -1.0 -9.75 -1.5 -9.65 -2.0 -9.3 -3.4 -9.0 -4.35 Q-9.0 -3.7 -8.65 -3.15 L-7.75 -1.8 -5.6 0.95 Q-4.55 1.85 -4.25 2.3 L-2.5 3.65 -0.55 4.9 -0.05 5.25 0.3 5.45 Q0.15 6.25 0.15 7.15 0.15 8.55 0.75 9.95 L1.55 11.35 2.2 11.95" fill="#6f1a1a" fill-rule="evenodd" stroke="none"/>
    <path d="M-8.65 -5.05 L-8.05 -5.65 -7.6 -6.05 -7.3 -6.25 -3.35 -8.6 Q-0.8 -9.7 1.9 -10.1 L2.3 -10.15 2.95 -10.3 5.15 -10.45 7.4 -10.3 8.85 -10.0 8.3 -9.75 7.0 -8.8 6.5 -8.25 5.95 -7.8 5.1 -6.75 Q4.35 -6.1 3.5 -4.7 L2.85 -3.65 2.4 -2.55 Q1.45 -1.0 0.9 1.55 0.55 3.2 0.5 4.75 L0.5 4.8 0.4 5.1 -0.15 4.75 -1.35 4.1 Q-1.35 3.85 -1.65 3.85 L-1.75 3.65 -4.5 1.55 -6.5 -0.65 -8.05 -2.85 Q-8.8 -4.1 -8.65 -5.05" fill="#a02726" fill-rule="evenodd" stroke="none"/>
    <path d="M0.4 5.1 L0.5 4.8 0.5 4.75 0.7 3.5 Q0.7 3.05 1.1 2.75 L1.2 2.0 Q1.2 1.45 1.5 0.7 L2.4 -1.85 3.7 -4.4 4.0 -4.8 4.35 -5.25 4.5 -5.6 5.35 -6.55 6.15 -7.55 6.45 -7.7 6.55 -7.9 7.3 -8.55 8.1 -9.2 8.9 -9.7 9.4 -9.95 11.15 -9.45 12.0 -8.95 12.7 -8.25 13.5 -7.45 13.6 -7.25 13.7 -7.15 14.8 -5.1 15.45 -2.75 15.45 -2.7 15.8 -0.6 15.95 2.05 16.05 2.65 15.9 4.0 15.65 6.7 15.55 7.25 Q15.2 9.3 13.9 10.55 L13.7 10.8 13.0 11.4 12.1 12.0 9.6 12.7 9.6 12.75 8.5 12.9 7.95 12.9 7.45 12.9 4.75 12.8 4.35 12.7 4.1 12.7 Q3.35 12.7 2.75 12.2 L2.65 12.15 2.2 11.95 1.55 11.35 0.75 9.95 Q0.15 8.55 0.15 7.15 0.15 6.25 0.3 5.45 L0.4 5.1 M9.6 -4.6 L9.2 -4.25 8.7 -4.05 7.8 -3.3 7.35 -2.85 6.95 -2.5 6.3 -1.5 5.6 -0.5 4.65 1.6 Q4.4 2.0 4.4 2.6 L4.1 3.65 Q3.9 4.2 3.9 5.7 L3.9 6.7 4.3 7.75 5.35 8.8 5.55 8.8 6.25 9.2 7.05 9.45 8.35 9.45 10.45 9.05 11.95 8.6 13.5 7.1 13.7 6.45 13.95 5.45 14.0 3.85 Q14.0 1.4 13.55 -0.8 12.95 -3.9 11.65 -4.6 L11.6 -4.7 10.95 -4.8 10.65 -4.8 9.6 -4.6" fill="#f28180" fill-rule="evenodd" stroke="none"/>
    <path d="M9.6 -4.6 L10.65 -4.8 10.95 -4.8 11.6 -4.7 11.65 -4.6 Q12.95 -3.9 13.55 -0.8 14.0 1.4 14.0 3.85 L13.95 5.45 13.7 6.45 13.5 7.1 11.95 8.6 10.45 9.05 8.35 9.45 7.05 9.45 6.25 9.2 5.55 8.8 5.35 8.8 4.3 7.75 3.9 6.7 3.9 5.7 Q3.9 4.2 4.1 3.65 L4.4 2.6 Q4.4 2.0 4.65 1.6 L5.6 -0.5 6.3 -1.5 6.95 -2.5 7.35 -2.85 7.8 -3.3 8.7 -4.05 9.2 -4.25 9.6 -4.6 M11.2 1.0 L10.9 0.3 Q9.95 -0.3 9.5 -0.15 8.3 0.35 8.05 0.9 7.4 2.2 7.4 3.6 7.4 4.3 7.65 4.9 L8.4 5.5 9.9 5.75 10.8 5.6 11.6 4.7 11.75 4.05 11.85 3.35 11.7 2.25 11.45 1.65 11.3 1.05 11.2 1.0" fill="#d63d3c" fill-rule="evenodd" stroke="none"/>
  </g>
</svg>
