<?xml version="1.0" encoding="UTF-8" standalone="no"?>
<svg xmlns:ffdec="https://www.free-decompiler.com/flash" xmlns:xlink="http://www.w3.org/1999/xlink" ffdec:objectType="shape" height="69.95px" width="63.55px" xmlns="http://www.w3.org/2000/svg">
  <g transform="matrix(1.0, 0.0, 0.0, 1.0, 31.8, 31.8)">
    <path d="M0.05 29.75 L-1.3 29.75 -1.35 29.7 -2.75 29.55 -3.1 29.55 Q-3.45 29.5 -3.45 28.8 L-3.4 28.1 -3.3 28.1 Q-3.1 28.25 -3.15 28.65 L-3.15 29.25 -1.3 29.45 0.1 29.45 1.2 28.85 1.6 28.1 1.8 28.1 1.85 28.2 1.3 29.1 Q0.65 29.8 0.05 29.75 M-3.8 25.3 L-3.65 25.4 -3.65 27.35 -3.6 28.15 -3.5 28.95 -3.75 29.1 -3.85 28.3 -3.9 27.45 -3.9 25.3 -3.8 25.3" fill="#272926" fill-rule="evenodd" stroke="none"/>
    <path d="M11.45 -21.45 L11.25 -21.6 Q10.65 -21.25 10.55 -20.7 L10.5 -19.65 10.2 -17.75 Q10.2 -17.1 10.65 -17.0 L10.95 -17.25 11.55 -21.15 11.45 -21.45 M28.4 -14.3 Q31.7 -7.85 31.7 -0.05 31.7 7.8 28.4 14.25 26.15 18.6 22.35 22.35 18.05 26.7 12.9 29.05 7.0 31.7 -0.05 31.7 -7.05 31.7 -12.95 29.05 -18.2 26.7 -22.55 22.35 -26.0 18.9 -28.15 14.9 -31.75 8.2 -31.75 -0.05 -31.75 -8.3 -28.15 -15.0 -26.0 -19.0 -22.55 -22.5 -18.8 -26.2 -14.4 -28.45 -7.9 -31.75 -0.05 -31.75 7.85 -31.75 14.3 -28.45 18.65 -26.2 22.35 -22.5 26.15 -18.7 28.4 -14.3 M-3.8 25.3 L-3.9 25.3 -3.9 27.45 -3.85 28.3 -3.75 29.1 -3.5 28.95 -3.6 28.15 -3.65 27.35 -3.65 25.4 -3.8 25.3 M0.05 29.75 Q0.65 29.8 1.3 29.1 L1.85 28.2 1.8 28.1 1.6 28.1 1.2 28.85 0.1 29.45 -1.3 29.45 -3.15 29.25 -3.15 28.65 Q-3.1 28.25 -3.3 28.1 L-3.4 28.1 -3.45 28.8 Q-3.45 29.5 -3.1 29.55 L-2.75 29.55 -1.35 29.7 -1.3 29.75 0.05 29.75" fill="url(#gradient0)" fill-rule="evenodd" stroke="none"/>
    <path d="M28.4 -14.3 Q31.7 -7.85 31.7 -0.05 31.7 7.8 28.4 14.25 26.15 18.6 22.35 22.35 18.05 26.7 12.9 29.05 7.0 31.7 -0.05 31.7 -7.05 31.7 -12.95 29.05 -18.2 26.7 -22.55 22.35 -26.0 18.9 -28.15 14.9 -31.75 8.2 -31.75 -0.05 -31.75 -8.3 -28.15 -15.0 -26.0 -19.0 -22.55 -22.5 -18.8 -26.2 -14.4 -28.45 -7.9 -31.75 -0.05 -31.75 7.85 -31.75 14.3 -28.45 18.65 -26.2 22.35 -22.5 26.15 -18.7 28.4 -14.3 Z" ffdec:has-small-stroke="true" ffdec:original-stroke-width="0.1" fill="none" stroke="#a60000" stroke-linecap="round" stroke-linejoin="round" stroke-width="1.0"/>
    <path d="M13.75 -27.5 Q15.2 -28.65 16.2 -28.7 L16.2 -28.5 16.0 -27.45 16.0 -27.35 18.5 -28.9 Q16.5 -27.5 14.85 -24.4 14.3 -23.1 14.0 -21.45 L13.6 -18.75 13.55 -17.7 13.8 -16.65 13.85 -16.5 14.55 -15.75 Q14.7 -15.45 16.0 -14.9 17.75 -14.1 19.8 -14.1 22.35 -14.1 28.0 -16.5 L28.35 -16.4 28.5 -16.3 29.0 -16.4 29.1 -16.0 Q29.1 -15.5 28.0 -14.85 26.2 -14.65 23.55 -13.35 L23.4 -13.3 21.75 -12.35 21.7 -12.35 21.6 -12.3 19.85 -11.1 19.65 -10.95 19.5 -10.8 18.65 -9.3 18.4 -8.0 Q19.4 -6.55 23.25 -5.9 L25.0 -5.65 29.55 -5.75 29.35 -4.45 29.1 -3.3 27.05 -3.35 26.8 -3.3 26.35 -3.15 24.8 -3.0 24.6 -2.95 Q22.55 -2.55 20.35 -1.2 16.25 1.4 16.25 5.4 16.25 8.25 20.25 12.45 24.2 16.6 23.0 16.45 21.75 16.3 14.85 12.85 7.95 9.35 6.15 11.55 4.75 13.3 9.4 23.7 L3.8 16.05 Q1.5 14.2 -1.3 13.9 L-2.05 14.15 -4.35 14.9 Q-6.25 15.8 -7.7 17.1 L-9.7 19.5 -10.65 20.9 -11.5 22.35 -13.05 25.5 Q-14.0 27.3 -15.25 27.9 -15.75 27.75 -15.75 27.25 L-15.35 26.15 -14.9 25.35 -13.95 23.7 -13.8 23.5 -13.55 23.15 -12.95 21.2 -13.4 22.2 -13.3 21.75 Q-12.5 19.85 -12.2 18.3 L-12.2 18.2 -12.2 18.15 -12.05 16.55 -12.1 15.65 Q-12.35 12.65 -14.5 10.8 -16.55 9.05 -19.65 8.9 -21.9 9.05 -26.0 10.25 -29.9 11.35 -31.25 12.05 L-31.1 11.9 Q-30.7 11.55 -28.85 10.35 L-25.05 8.0 -21.8 5.45 -20.9 3.0 Q-20.45 1.05 -20.45 -2.15 -20.45 -8.85 -23.7 -13.9 -24.85 -15.65 -26.65 -17.5 L-29.2 -19.8 -25.25 -18.05 -23.9 -17.5 Q-19.2 -15.5 -17.5 -15.5 L-17.45 -15.5 Q-15.95 -15.75 -15.2 -17.15 -14.75 -18.0 -14.7 -18.95 -14.7 -20.5 -17.55 -24.55 L-20.4 -28.4 Q-20.4 -29.2 -19.5 -28.5 -19.4 -29.95 -17.85 -27.95 L-15.1 -24.3 -13.65 -22.55 -13.45 -22.5 Q-12.35 -22.05 -11.3 -22.05 L-11.2 -22.05 -10.9 -22.25 -10.45 -22.45 -10.2 -22.95 -9.8 -24.7 -9.45 -29.1 Q-9.2 -27.85 -8.0 -26.55 L-5.2 -24.35 -4.6 -23.9 -3.65 -23.25 Q-2.8 -22.65 -0.8 -22.1 L-0.6 -22.05 1.85 -21.55 Q4.45 -21.95 8.6 -23.7 L11.45 -25.55 Q12.2 -26.05 13.75 -27.5 M-5.9 14.95 L-5.75 14.85 -5.9 14.95" fill="#ff572a" fill-opacity="0.4" fill-rule="evenodd" stroke="none"/>
    <path d="M18.55 25.5 L19.15 26.4 20.85 29.15 Q20.85 31.3 15.15 34.75 9.55 38.15 6.4 38.15 2.0 38.15 -5.05 35.9 -9.9 34.35 -12.65 33.0 -14.45 32.15 -15.05 31.15 L-15.5 29.75 -15.95 26.8 -15.95 -1.25 -28.85 -1.25 -1.45 -28.4 Q-0.55 -29.65 0.95 -28.4 L28.5 -1.25 16.8 -1.25 16.8 0.25 16.85 0.25 16.85 29.15 18.55 29.15 18.55 25.5" fill="url(#gradient1)" fill-rule="evenodd" stroke="none"/>
    <path d="M-15.95 26.8 L-15.95 28.15 -17.45 28.15 -17.45 0.25 -30.25 0.25 Q-31.35 -0.65 -30.45 -0.9 L-29.2 -1.25 -30.45 -1.25 -29.15 -1.85 -29.2 -1.85 -29.6 -2.5 -1.7 -30.4 -2.7 -30.35 -2.15 -30.8 1.1 -30.8 29.85 -1.95 29.6 -1.65 29.6 0.3 18.45 0.25 18.55 0.4 18.55 25.5 18.55 29.15 16.85 29.15 16.85 0.25 16.8 0.25 16.8 -1.25 28.5 -1.25 0.95 -28.4 Q-0.55 -29.65 -1.45 -28.4 L-28.85 -1.25 -15.95 -1.25 -15.95 26.8" fill="#5c0000" fill-rule="evenodd" stroke="none"/>
    <path d="M1.95 -14.6 L2.15 -14.55 2.1 -14.45 1.95 -14.6" fill="#a8a8a8" fill-rule="evenodd" stroke="none"/>
    <path d="M4.95 -2.05 L4.85 -2.0 4.4 -1.75 4.5 -1.85 4.85 -2.05 4.95 -2.05 M5.2 -2.15 L5.35 -2.2 5.25 -2.15 5.2 -2.15 M-7.7 -1.85 L-7.55 -1.85 -7.35 -1.8 -7.6 -1.85 -7.7 -1.85" fill="#808080" fill-rule="evenodd" stroke="none"/>
    <path d="M-6.75 3.6 L-6.8 3.6 -8.75 4.4 -12.6 5.9 -12.7 5.95 -12.75 5.9 -12.95 5.95 -13.15 5.9 -13.2 5.75 -13.1 5.7 -10.9 2.25 -10.9 2.2 -10.65 1.85 -9.6 0.1 -9.6 0.05 -8.85 -0.95 -8.8 -1.05 -8.45 -1.4 -7.7 -1.6 -7.45 -1.6 -7.3 -1.55 Q-6.45 -1.45 -5.85 -0.75 L-5.5 -0.3 Q-5.0 0.45 -4.85 1.4 L-4.8 2.2 -4.8 2.85 -5.0 2.95 -5.05 2.9 -5.1 2.9 -5.6 3.1 -6.75 3.6 M-12.7 -7.1 L-12.85 -7.25 -13.0 -7.5 -13.1 -7.5 -13.9 -8.25 -14.85 -9.25 -15.7 -9.95 -16.45 -10.8 -16.4 -11.0 -16.3 -11.0 -16.25 -10.95 -16.15 -11.0 -15.4 -11.05 -14.65 -11.05 -14.05 -11.1 -13.9 -11.1 -12.0 -11.15 -11.85 -11.2 -11.75 -11.2 -11.65 -11.2 -11.6 -11.15 -10.7 -11.15 -11.85 -9.35 -12.4 -8.05 -12.55 -7.55 -12.7 -7.1 M-9.0 -11.45 Q-8.1 -12.65 -6.5 -13.55 L-5.3 -14.1 -2.65 -14.75 -2.5 -14.85 -2.4 -14.85 1.95 -14.6 1.45 -13.95 1.4 -13.7 1.4 -13.6 Q1.4 -13.25 1.55 -12.9 L0.4 -13.25 -0.35 -13.4 -0.95 -13.5 -2.3 -13.6 Q-4.3 -13.6 -6.1 -12.45 L-6.8 -11.95 -6.9 -11.9 -7.0 -11.95 -7.05 -11.95 -7.55 -11.5 -7.65 -11.45 -7.95 -11.2 -7.9 -11.05 -8.2 -10.75 Q-10.4 -8.45 -11.3 -4.9 L-11.35 -5.8 Q-11.35 -7.15 -10.95 -8.15 L-10.4 -9.4 -10.25 -9.65 -9.55 -10.85 -9.25 -11.15 -9.0 -11.45 M-6.4 -14.75 L-6.45 -14.75 -6.55 -14.8 -6.55 -17.2 -6.5 -17.3 -6.5 -19.5 -6.45 -19.55 -6.5 -19.6 -6.5 -19.85 -6.45 -19.85 -6.5 -20.1 -6.4 -20.1 -6.4 -20.15 -6.25 -20.15 -6.2 -20.0 -6.15 -20.05 -6.15 -19.95 -5.8 -19.55 -3.3 -16.55 -3.15 -16.55 -2.8 -16.05 -3.05 -15.8 -3.45 -15.75 -5.1 -15.4 -5.9 -15.1 -6.3 -14.75 -6.4 -14.75 M2.2 -14.4 L2.6 -14.25 2.7 -14.15 2.75 -14.15 3.0 -14.45 Q3.95 -14.85 5.65 -16.1 L6.2 -16.4 6.5 -16.4 7.25 -17.0 7.45 -17.2 7.9 -17.6 7.95 -17.6 8.0 -17.65 8.1 -17.75 8.25 -17.75 9.15 -18.35 9.5 -18.55 9.5 -18.45 9.45 -18.3 9.45 -18.2 9.5 -18.1 8.85 -15.1 8.6 -14.3 8.4 -13.55 8.15 -12.85 7.95 -12.1 7.85 -12.05 7.7 -11.35 7.5 -10.75 7.35 -10.65 7.3 -10.65 7.25 -10.6 7.2 -10.55 5.55 -10.55 5.5 -10.6 5.1 -10.7 4.95 -10.7 4.2 -11.0 4.0 -11.1 3.7 -11.3 2.6 -12.45 2.45 -13.1 2.4 -13.5 2.4 -13.55 2.4 -13.65 2.5 -13.9 2.45 -14.0 2.4 -14.3 2.25 -14.3 2.2 -14.4 M7.4 -9.65 L7.65 -9.7 7.8 -9.5 8.25 -9.05 8.35 -8.75 Q8.85 -8.25 8.95 -7.65 L9.2 -5.35 9.2 -4.65 9.2 -4.05 9.2 -3.55 9.15 -2.8 8.7 -0.8 8.4 -1.4 8.2 -1.65 8.0 -1.9 8.0 -2.0 Q7.9 -2.3 7.45 -2.4 L7.5 -3.25 7.5 -3.35 Q7.45 -6.9 5.55 -9.6 L7.35 -9.6 7.4 -9.65 M7.35 -0.35 L7.4 -0.3 9.3 3.15 9.3 3.2 11.1 6.45 11.05 6.55 10.1 5.9 8.6 5.25 8.55 5.25 7.5 4.6 7.0 4.35 6.6 4.2 6.55 4.15 6.25 3.95 5.7 3.75 5.55 3.7 5.5 3.65 5.15 3.4 5.1 3.4 4.75 3.15 4.65 3.15 4.5 3.0 3.95 2.75 3.25 2.5 3.2 2.4 3.15 2.35 3.0 2.35 2.85 2.2 2.7 2.2 2.55 2.05 2.5 2.05 2.4 2.05 2.2 1.65 2.2 1.05 2.4 0.65 2.5 0.25 2.6 0.1 3.2 -0.9 3.3 -1.05 3.45 -1.2 3.55 -1.25 3.75 -1.4 Q4.15 -1.6 4.4 -1.75 L4.85 -2.0 4.95 -2.05 5.2 -2.15 5.25 -2.15 5.55 -2.1 5.7 -2.15 6.35 -2.15 6.45 -2.05 6.45 -1.95 6.9 -1.05 7.15 -0.65 7.35 -0.45 7.35 -0.35 M0.6 -6.5 L0.55 -6.45 0.3 -6.05 -1.1 -4.5 -1.65 -4.25 -2.05 -4.1 -2.95 -3.95 -3.95 -3.95 -4.0 -4.05 -4.05 -4.15 -4.1 -4.35 -4.15 -4.5 -4.3 -4.7 -5.25 -7.45 -5.4 -8.1 -5.85 -9.5 -5.9 -9.65 -6.1 -10.15 -6.05 -10.15 -5.95 -10.1 -5.7 -10.05 -1.5 -8.75 -1.45 -8.7 0.55 -8.1 0.55 -8.15 0.65 -8.15 0.75 -7.85 0.75 -7.5 0.6 -6.65 0.6 -6.5 M14.4 -4.25 L15.85 -3.95 15.9 -3.9 16.1 -3.85 16.1 -3.75 15.85 -3.75 15.75 -3.75 15.65 -3.6 15.55 -3.65 15.3 -3.55 14.05 -3.2 12.6 -2.8 11.0 -2.35 10.85 -2.4 10.8 -2.55 11.05 -5.0 11.3 -5.0 11.25 -5.05 11.35 -5.15 12.4 -4.7 13.1 -4.65 14.3 -4.3 14.4 -4.25" fill="#dbdbdb" fill-rule="evenodd" stroke="none"/>
    <path d="M1.85 -6.25 L2.25 -8.1 3.4 -6.95 Q4.8 -5.25 5.35 -3.45 L4.85 -3.35 4.05 -3.05 3.75 -2.9 2.8 -2.2 1.2 0.0 0.85 1.05 0.75 2.05 0.8 2.65 0.8 3.55 -0.6 3.7 -0.7 3.7 -2.4 3.65 -3.35 3.55 -3.75 3.5 -3.65 2.8 Q-3.65 0.15 -5.0 -1.35 -6.1 -2.55 -7.85 -2.8 L-7.85 -2.85 -8.1 -2.85 -8.25 -2.85 -8.55 -3.0 -9.9 -3.0 -9.9 -3.1 -10.0 -3.05 -10.3 -2.85 -10.3 -2.9 -10.35 -3.4 -10.25 -4.3 -10.05 -4.7 -10.05 -4.8 Q-9.25 -6.6 -7.5 -7.8 L-7.1 -8.0 -7.0 -8.0 -6.85 -7.55 -6.8 -7.45 -6.8 -7.25 -6.75 -7.25 -6.7 -7.05 -6.5 -6.4 -6.2 -5.65 -5.55 -3.3 -5.55 -3.2 -5.45 -2.8 -4.65 -2.7 -4.6 -2.65 -2.75 -2.65 -1.15 -3.1 -0.4 -3.45 Q-0.25 -3.5 0.25 -3.9 L0.6 -4.35 Q1.1 -4.65 1.4 -5.25 L1.85 -6.25" fill="#b1b1b1" fill-rule="evenodd" stroke="none"/>
    <path d="M-2.95 5.5 L-3.3 5.4 -3.8 5.25 -4.05 5.2 -4.1 5.15 -4.25 5.15 -4.5 5.05 -4.6 5.0 -4.7 4.95 -4.95 4.85 -4.65 4.5 -4.6 3.45 -4.65 2.75 -4.7 2.8 -4.75 2.8 -4.8 2.85 -4.8 2.2 -4.85 1.4 Q-5.0 0.45 -5.5 -0.3 L-5.85 -0.75 Q-6.45 -1.45 -7.3 -1.55 L-7.3 -1.7 -7.45 -1.7 -8.4 -1.95 -8.5 -2.0 -8.8 -2.0 -8.95 -2.05 -9.5 -2.1 -9.85 -1.45 -9.95 -1.3 -9.95 -1.2 -10.5 -0.6 -10.55 -0.4 -10.8 -1.25 -11.1 -3.3 -11.1 -3.55 -11.2 -4.05 -11.2 -4.15 -11.3 -4.9 Q-10.4 -8.45 -8.2 -10.75 L-7.9 -11.05 -7.95 -11.2 -7.65 -11.45 -7.7 -11.25 -7.65 -11.15 -7.45 -10.6 -7.4 -10.5 -7.1 -9.35 -7.1 -9.3 -6.9 -8.65 -6.9 -8.6 -6.6 -7.8 -6.6 -7.65 -6.65 -7.65 -6.65 -7.55 -6.55 -7.55 -6.4 -7.1 -6.3 -6.85 -6.25 -6.6 -6.05 -5.95 -5.55 -4.45 -5.45 -4.35 -5.45 -4.2 -5.4 -4.15 -5.25 -3.65 -5.15 -3.6 -3.15 -3.6 -2.6 -3.8 -2.1 -3.95 -1.4 -4.25 -1.1 -4.5 0.3 -6.05 0.55 -6.45 0.6 -6.5 0.65 -6.5 0.95 -6.95 1.2 -8.35 1.0 -9.2 -7.2 -11.6 -7.5 -11.55 -7.55 -11.5 -7.05 -11.95 -7.0 -11.95 -6.9 -11.9 -6.8 -11.95 -6.1 -12.45 Q-4.3 -13.6 -2.3 -13.6 L-0.95 -13.5 -0.35 -13.4 0.4 -13.25 1.55 -12.9 Q1.4 -13.25 1.4 -13.6 L1.4 -13.7 1.45 -13.95 1.95 -14.6 2.1 -14.45 2.2 -14.4 2.25 -14.3 2.4 -14.3 2.45 -14.0 2.5 -13.9 2.4 -13.65 2.4 -13.55 2.4 -13.5 2.45 -13.1 2.6 -12.45 3.7 -11.3 4.0 -11.1 4.6 -10.2 Q5.85 -9.65 6.9 -9.65 L7.4 -9.65 7.35 -9.6 5.55 -9.6 Q7.45 -6.9 7.5 -3.35 L7.5 -3.25 7.45 -2.4 7.0 -2.45 6.45 -2.45 6.35 -2.45 5.9 -2.35 5.8 -2.35 5.35 -2.2 5.2 -2.15 4.95 -2.05 4.85 -2.05 4.5 -1.85 4.4 -1.75 Q4.15 -1.6 3.75 -1.4 L3.55 -1.25 3.45 -1.2 3.3 -1.05 3.2 -0.9 2.6 0.1 2.5 0.25 2.3 0.7 1.7 3.3 1.7 3.45 1.75 3.55 2.9 4.05 3.3 4.2 4.1 4.6 3.65 4.75 2.15 5.25 2.1 5.25 1.6 5.35 1.35 5.4 1.1 5.45 0.5 5.55 0.2 5.55 -0.8 5.7 -1.05 5.7 -1.15 5.7 -2.6 5.6 -2.6 5.55 -2.7 5.55 -2.7 5.6 -2.9 5.55 -2.95 5.5 M1.85 -6.25 L1.4 -5.25 Q1.1 -4.65 0.6 -4.35 L0.25 -3.9 Q-0.25 -3.5 -0.4 -3.45 L-1.15 -3.1 -2.75 -2.65 -4.6 -2.65 -4.65 -2.7 -5.45 -2.8 -5.55 -3.2 -5.55 -3.3 -6.2 -5.65 -6.5 -6.4 -6.7 -7.05 -6.75 -7.25 -6.8 -7.25 -6.8 -7.45 -6.85 -7.55 -7.0 -8.0 -7.1 -8.0 -7.5 -7.8 Q-9.25 -6.6 -10.05 -4.8 L-10.05 -4.7 -10.25 -4.3 -10.35 -3.4 -10.3 -2.9 -10.3 -2.85 -10.0 -3.05 -9.9 -3.1 -9.9 -3.0 -8.55 -3.0 -8.25 -2.85 -8.1 -2.85 -7.85 -2.85 -7.85 -2.8 Q-6.1 -2.55 -5.0 -1.35 -3.65 0.15 -3.65 2.8 L-3.75 3.5 -3.35 3.55 -2.4 3.65 -0.7 3.7 -0.6 3.7 0.8 3.55 0.8 2.65 0.75 2.05 0.85 1.05 1.2 0.0 2.8 -2.2 3.75 -2.9 4.05 -3.05 4.85 -3.35 5.35 -3.45 Q4.8 -5.25 3.4 -6.95 L2.25 -8.1 1.85 -6.25 M-7.7 -1.85 L-7.6 -1.85 -7.35 -1.8 -7.55 -1.85 -7.7 -1.85" fill="#797979" fill-rule="evenodd" stroke="none"/>
    <path d="M-2.95 10.1 L-2.95 5.5 -2.9 5.55 -2.7 5.6 -2.7 5.55 -2.6 5.55 -2.6 5.6 -1.15 5.7 -1.05 5.7 -0.8 5.7 0.2 5.55 0.5 5.55 1.1 5.45 1.35 5.4 1.4 5.65 1.4 7.8 1.35 7.85 1.35 8.8 1.3 9.35 1.3 9.8 1.25 10.2 1.25 10.3 1.1 10.3 1.1 10.35 1.05 10.35 0.25 10.5 -0.3 10.5 -1.9 10.4 -2.3 10.35 -2.35 10.3 -2.35 10.25 -2.5 10.25 -2.6 10.2 -2.95 10.1 M-4.95 4.85 Q-6.05 4.65 -6.75 3.6 L-5.6 3.1 -5.1 2.9 -5.05 2.9 -5.0 2.95 -4.8 2.85 -4.75 2.8 -4.7 2.8 -4.65 2.75 -4.6 3.45 -4.65 4.5 -4.95 4.85 M-11.2 -4.15 L-11.25 -4.15 -12.1 -5.8 -12.7 -7.1 -12.55 -7.55 -12.4 -8.05 -11.85 -9.35 -10.7 -11.15 -10.2 -11.15 -10.1 -11.2 -10.05 -11.3 -9.0 -11.45 -9.25 -11.15 -9.55 -10.85 -10.25 -9.65 -10.4 -9.4 -10.95 -8.15 Q-11.35 -7.15 -11.35 -5.8 L-11.3 -4.9 -11.2 -4.15 M-6.5 -13.55 L-6.65 -13.95 -6.4 -14.75 -6.3 -14.75 -5.9 -15.1 -5.1 -15.4 -3.45 -15.75 -2.4 -14.85 -2.5 -14.85 -2.65 -14.75 -5.3 -14.1 -6.5 -13.55 M7.3 -10.65 L7.35 -10.1 7.4 -9.65 6.9 -9.65 Q5.85 -9.65 4.6 -10.2 L4.0 -11.1 4.2 -11.0 4.95 -10.7 5.1 -10.7 5.5 -10.6 5.55 -10.55 7.2 -10.55 7.25 -10.6 7.3 -10.65 M8.4 -1.4 Q8.05 -0.7 7.35 -0.35 L7.35 -0.45 7.15 -0.65 6.9 -1.05 6.45 -1.95 6.45 -2.05 6.35 -2.15 5.7 -2.15 5.55 -2.1 5.25 -2.15 5.35 -2.2 5.8 -2.35 5.9 -2.35 6.35 -2.45 6.45 -2.45 7.0 -2.45 7.45 -2.4 Q7.9 -2.3 8.0 -2.0 L8.0 -1.9 8.2 -1.65 8.4 -1.4 M4.5 3.0 L4.5 3.1 Q4.5 3.6 3.3 4.2 L2.9 4.05 1.75 3.55 1.7 3.45 1.7 3.3 2.3 0.7 2.5 0.25 2.4 0.65 2.2 1.05 2.2 1.65 2.4 2.05 2.5 2.05 2.55 2.05 2.7 2.2 2.85 2.2 3.0 2.35 3.15 2.35 3.2 2.4 3.25 2.5 3.95 2.75 4.5 3.0 M1.6 5.35 L1.6 5.45 1.5 5.45 1.5 5.5 1.45 5.4 1.35 5.4 1.6 5.35 M1.1 12.0 L1.1 11.9 1.15 11.9 1.1 12.0" fill="#383838" fill-rule="evenodd" stroke="none"/>
    <path d="M3.1 14.95 L3.1 12.65 3.3 12.5 3.35 12.6 3.25 13.05 3.4 14.25 3.3 14.45 3.35 14.85 3.3 15.0 3.2 15.05 3.1 14.95" fill="#9a2100" fill-rule="evenodd" stroke="none"/>
    <path d="M-2.6 30.0 L-2.8 29.95 -2.95 29.9 -3.05 29.85 -3.5 29.95 -3.7 29.95 -3.8 29.95 -4.45 29.85 -4.4 29.7 -4.35 29.55 -4.3 29.2 -4.45 28.55 -4.65 28.35 -4.65 7.15 -5.0 7.0 -5.45 6.85 -5.8 6.7 -7.25 5.95 -10.0 6.85 -14.5 8.05 -14.95 8.05 -15.2 8.15 -15.65 8.15 -15.85 8.05 -15.7 7.95 -15.85 7.9 Q-14.3 4.4 -12.75 2.15 L-12.6 1.7 -12.35 1.05 -12.1 0.6 -12.6 -0.8 -13.0 -2.4 -13.2 -3.8 -13.25 -5.05 -13.9 -5.7 -14.25 -6.05 -20.0 -12.05 -19.55 -12.5 -18.15 -12.5 -15.1 -12.45 -14.95 -12.45 -11.3 -12.45 -9.75 -14.0 -8.35 -15.15 -8.25 -18.65 -8.05 -22.95 -7.9 -23.0 -7.9 -23.05 -7.55 -23.2 -5.75 -21.7 -3.95 -20.05 -3.6 -19.75 -0.35 -16.55 1.7 -16.6 1.75 -16.55 2.05 -16.5 Q4.25 -17.5 7.25 -19.3 L11.9 -22.05 12.0 -21.9 12.25 -21.9 9.4 -11.55 9.75 -10.8 10.45 -9.3 10.75 -8.6 10.85 -7.85 11.0 -6.95 11.5 -6.7 11.95 -6.6 Q12.05 -6.5 12.75 -6.25 L12.8 -6.2 12.9 -6.2 13.1 -6.1 13.9 -5.85 14.85 -5.55 16.1 -5.05 16.45 -4.9 16.6 -4.85 18.8 -4.2 18.85 -3.4 16.3 -2.5 10.9 -0.5 10.65 0.2 9.9 1.25 9.85 1.5 10.0 1.85 10.35 2.5 11.0 3.65 12.3 6.6 12.5 6.85 13.2 8.1 12.9 8.35 12.7 8.3 12.5 8.35 11.3 7.9 11.25 7.9 9.85 7.3 7.2 6.4 5.8 5.9 5.5 5.75 3.1 6.9 3.1 12.65 3.1 14.95 3.1 29.6 2.8 29.65 2.8 29.7 2.75 29.75 2.3 29.95 2.15 29.7 1.95 29.3 1.75 29.7 1.7 29.75 1.45 30.0 1.35 29.95 1.4 30.35 1.35 30.4 1.4 30.8 1.35 31.0 1.25 31.05 0.95 30.05 1.05 30.05 1.05 29.7 1.25 29.7 1.25 10.3 1.25 10.2 1.3 9.8 1.3 9.35 1.35 8.8 1.35 7.85 1.4 7.8 1.4 5.65 1.35 5.4 1.45 5.4 1.5 5.5 1.5 5.45 1.6 5.45 1.6 5.35 2.1 5.25 2.15 5.25 3.65 4.75 4.1 4.6 3.3 4.2 Q4.5 3.6 4.5 3.1 L4.5 3.0 4.65 3.15 4.75 3.15 5.1 3.4 5.15 3.4 5.5 3.65 5.55 3.7 5.7 3.75 6.25 3.95 6.55 4.15 6.6 4.2 7.0 4.35 7.5 4.6 8.55 5.25 8.6 5.25 10.1 5.9 11.05 6.55 11.1 6.45 9.3 3.2 9.3 3.15 7.4 -0.3 7.35 -0.35 Q8.05 -0.7 8.4 -1.4 L8.7 -0.8 9.15 -2.8 9.2 -3.55 9.2 -4.05 9.2 -4.65 9.2 -5.35 8.95 -7.65 Q8.85 -8.25 8.35 -8.75 L8.25 -9.05 7.8 -9.5 7.65 -9.7 7.4 -9.65 7.35 -10.1 7.3 -10.65 7.35 -10.65 7.5 -10.75 7.7 -11.35 7.85 -12.05 7.95 -12.1 8.15 -12.85 8.4 -13.55 8.6 -14.3 8.85 -15.1 9.5 -18.1 9.45 -18.2 9.45 -18.3 9.5 -18.45 9.5 -18.55 9.15 -18.35 8.25 -17.75 8.1 -17.75 8.0 -17.65 7.95 -17.6 7.9 -17.6 7.45 -17.2 7.25 -17.0 6.5 -16.4 6.2 -16.4 5.65 -16.1 Q3.95 -14.85 3.0 -14.45 L2.75 -14.15 2.7 -14.15 2.6 -14.25 2.2 -14.4 2.1 -14.45 2.15 -14.55 1.95 -14.6 -2.4 -14.85 -3.45 -15.75 -3.05 -15.8 -2.8 -16.05 -3.15 -16.55 -3.3 -16.55 -5.8 -19.55 -6.15 -19.95 -6.15 -20.05 -6.2 -20.0 -6.25 -20.15 -6.4 -20.15 -6.4 -20.1 -6.5 -20.1 -6.45 -19.85 -6.5 -19.85 -6.5 -19.6 -6.45 -19.55 -6.5 -19.5 -6.5 -17.3 -6.55 -17.2 -6.55 -14.8 -6.45 -14.75 -6.4 -14.75 -6.65 -13.95 -6.5 -13.55 Q-8.1 -12.65 -9.0 -11.45 L-10.05 -11.3 -10.1 -11.2 -10.2 -11.15 -10.7 -11.15 -11.6 -11.15 -11.65 -11.2 -11.75 -11.2 -11.85 -11.2 -12.0 -11.15 -13.9 -11.1 -14.05 -11.1 -14.65 -11.05 -15.4 -11.05 -16.15 -11.0 -16.25 -10.95 -16.3 -11.0 -16.4 -11.0 -16.45 -10.8 -15.7 -9.95 -14.85 -9.25 -13.9 -8.25 -13.1 -7.5 -13.0 -7.5 -12.85 -7.25 -12.7 -7.1 -12.1 -5.8 -11.25 -4.15 -11.2 -4.15 -11.2 -4.05 -11.1 -3.55 -11.1 -3.3 -10.8 -1.25 -10.55 -0.4 -10.5 -0.6 -9.95 -1.2 -9.95 -1.3 -9.85 -1.45 -9.5 -2.1 -8.95 -2.05 -8.8 -2.0 -8.5 -2.0 -8.4 -1.95 -7.45 -1.7 -7.3 -1.7 -7.3 -1.55 -7.45 -1.6 -7.7 -1.6 -8.45 -1.4 -8.8 -1.05 -8.85 -0.95 -9.6 0.05 -9.6 0.1 -10.65 1.85 -10.9 2.2 -10.9 2.25 -13.1 5.7 -13.2 5.75 -13.15 5.9 -12.95 5.95 -12.75 5.9 -12.7 5.95 -12.6 5.9 -8.75 4.4 -6.8 3.6 -6.75 3.6 Q-6.05 4.65 -4.95 4.85 L-4.7 4.95 -4.6 5.0 -4.5 5.05 -4.25 5.15 -4.1 5.15 -4.05 5.2 -3.8 5.25 -3.3 5.4 -2.95 5.5 -2.95 10.1 -2.95 29.65 -2.85 29.9 -2.8 29.9 -2.65 29.65 -2.65 29.7 -2.6 29.95 -2.6 30.0 M-7.55 -11.5 L-7.5 -11.55 -7.2 -11.6 1.0 -9.2 1.2 -8.35 0.95 -6.95 0.65 -6.5 0.6 -6.5 0.6 -6.65 0.75 -7.5 0.75 -7.85 0.65 -8.15 0.55 -8.15 0.55 -8.1 -1.45 -8.7 -1.5 -8.75 -5.7 -10.05 -5.95 -10.1 -6.05 -10.15 -6.1 -10.15 -5.9 -9.65 -5.85 -9.5 -5.4 -8.1 -5.25 -7.45 -4.3 -4.7 -4.15 -4.5 -4.1 -4.35 -4.05 -4.15 -4.0 -4.05 -3.95 -3.95 -2.95 -3.95 -2.05 -4.1 -1.65 -4.25 -1.1 -4.5 -1.4 -4.25 -2.1 -3.95 -2.6 -3.8 -3.15 -3.6 -5.15 -3.6 -5.25 -3.65 -5.4 -4.15 -5.45 -4.2 -5.45 -4.35 -5.55 -4.45 -6.05 -5.95 -6.25 -6.6 -6.3 -6.85 -6.4 -7.1 -6.55 -7.55 -6.65 -7.55 -6.65 -7.65 -6.6 -7.65 -6.6 -7.8 -6.9 -8.6 -6.9 -8.65 -7.1 -9.3 -7.1 -9.35 -7.4 -10.5 -7.45 -10.6 -7.65 -11.15 -7.7 -11.25 -7.65 -11.45 -7.55 -11.5 M14.4 -4.25 L14.3 -4.3 13.1 -4.65 12.4 -4.7 11.35 -5.15 11.25 -5.05 11.3 -5.0 11.05 -5.0 10.8 -2.55 10.85 -2.4 11.0 -2.35 12.6 -2.8 14.05 -3.2 15.3 -3.55 15.55 -3.65 15.65 -3.6 15.75 -3.75 15.85 -3.75 16.1 -3.75 16.1 -3.85 15.9 -3.9 15.85 -3.95 14.4 -4.25 M0.9 29.75 L0.85 29.7 0.8 29.55 0.9 29.5 0.9 29.75 0.9 29.85 0.8 29.85 -1.15 30.1 -1.7 30.1 -1.6 29.7 -1.6 29.5 -1.4 29.55 -0.55 29.7 -0.25 29.7 0.55 29.6 0.6 29.7 0.7 29.85 0.9 29.75 M-2.0 30.1 L-2.15 30.05 -2.15 30.1 -2.1 30.35 -2.25 30.45 -2.35 30.05 -2.4 30.05 -2.4 29.6 -2.35 29.7 -2.2 29.9 -2.1 29.85 -2.0 30.1" fill="#000000" fill-rule="evenodd" stroke="none"/>
    <path d="M-2.6 30.0 L-2.6 29.95 -2.65 29.7 -2.65 29.65 -2.8 29.9 -2.85 29.9 -2.95 29.65 -2.95 10.1 -2.6 10.2 -2.5 10.25 -2.35 10.25 -2.35 10.3 -2.3 10.35 -1.9 10.4 -0.3 10.5 0.25 10.5 1.05 10.35 1.1 10.35 1.1 10.3 1.25 10.3 1.25 29.7 1.05 29.7 1.05 30.05 0.95 30.05 0.9 30.0 0.9 29.85 0.9 29.75 0.7 29.85 0.6 29.7 0.55 29.6 -0.25 29.7 -0.55 29.7 -1.4 29.55 -1.6 29.5 -1.6 29.7 -1.7 30.1 -1.7 30.15 -1.9 30.25 -2.0 30.1 -2.1 29.85 -2.2 29.9 -2.35 29.7 -2.4 29.6 -2.4 30.05 -2.4 30.6 -2.5 30.65 -2.6 30.0 M1.1 12.0 L1.15 11.9 1.1 11.9 1.1 12.0 M0.9 29.75 L0.9 29.5 0.8 29.55 0.85 29.7 0.9 29.75" fill="#939090" fill-rule="evenodd" stroke="none"/>
  </g>
  <defs>
    <linearGradient gradientTransform="matrix(-7.0E-4, -0.0536, 0.0387, -5.0E-4, -0.2, 2.45)" gradientUnits="userSpaceOnUse" id="gradient0" spreadMethod="pad" x1="-819.2" x2="819.2">
      <stop offset="0.0" stop-color="#000000"/>
      <stop offset="1.0" stop-color="#7e0000"/>
    </linearGradient>
    <linearGradient gradientTransform="matrix(-5.0E-4, 0.0139, -0.0351, -0.0014, -1.2, 23.45)" gradientUnits="userSpaceOnUse" id="gradient1" spreadMethod="pad" x1="-819.2" x2="819.2">
      <stop offset="0.0" stop-color="#ffffff" stop-opacity="0.49803922"/>
      <stop offset="1.0" stop-color="#ffffff" stop-opacity="0.29803923"/>
    </linearGradient>
  </defs>
</svg>
