<?xml version="1.0" encoding="UTF-8" standalone="no"?>
<svg xmlns:ffdec="https://www.free-decompiler.com/flash" xmlns:xlink="http://www.w3.org/1999/xlink" ffdec:objectType="shape" height="63.55px" width="63.55px" xmlns="http://www.w3.org/2000/svg">
  <g transform="matrix(1.0, 0.0, 0.0, 1.0, 31.8, 31.8)">
    <path d="M14.3 -28.45 Q18.65 -26.2 22.35 -22.5 26.15 -18.7 28.4 -14.3 L28.4 14.25 Q26.15 18.6 22.35 22.35 18.05 26.7 12.9 29.05 L-12.95 29.05 Q-18.2 26.7 -22.55 22.35 -26.0 18.9 -28.15 14.9 L-28.15 -15.0 Q-26.0 -19.0 -22.55 -22.5 -18.8 -26.2 -14.4 -28.45 L14.3 -28.45" fill="#7b7b7b" fill-rule="evenodd" stroke="none"/>
    <path d="M28.4 -14.3 Q31.7 -7.85 31.7 -0.05 31.7 7.8 28.4 14.25 L28.4 -14.3 M12.9 29.05 Q7.0 31.7 -0.05 31.7 -7.05 31.7 -12.95 29.05 L12.9 29.05 M-28.15 14.9 Q-31.75 8.2 -31.75 -0.05 -31.75 -8.3 -28.15 -15.0 L-28.15 14.9 M-14.4 -28.45 Q-7.9 -31.75 -0.05 -31.75 7.85 -31.75 14.3 -28.45 L-14.4 -28.45" fill="#838373" fill-rule="evenodd" stroke="none"/>
    <path d="M14.3 -28.45 Q18.65 -26.2 22.35 -22.5 26.15 -18.7 28.4 -14.3 31.7 -7.85 31.7 -0.05 31.7 7.8 28.4 14.25 26.15 18.6 22.35 22.35 18.05 26.7 12.9 29.05 7.0 31.7 -0.05 31.7 -7.05 31.7 -12.95 29.05 -18.2 26.7 -22.55 22.35 -26.0 18.9 -28.15 14.9 -31.75 8.2 -31.75 -0.05 -31.75 -8.3 -28.15 -15.0 -26.0 -19.0 -22.55 -22.5 -18.8 -26.2 -14.4 -28.45 -7.9 -31.75 -0.05 -31.75 7.85 -31.75 14.3 -28.45 Z" ffdec:has-small-stroke="true" ffdec:original-stroke-width="0.1" fill="none" stroke="#a60000" stroke-linecap="round" stroke-linejoin="round" stroke-width="1.0"/>
    <path d="M22.6 -20.65 Q31.55 -11.7 31.55 0.95 31.55 13.6 22.6 22.5 13.7 31.45 1.05 31.45 -11.6 31.45 -20.55 22.5 -29.45 13.6 -29.45 0.95 -29.45 -11.7 -20.55 -20.65 -11.6 -29.55 1.05 -29.55 13.7 -29.55 22.6 -20.65" fill="url(#gradient0)" fill-rule="evenodd" stroke="none"/>
    <path d="M24.9 -3.8 Q24.9 -0.75 22.6 -0.75 21.15 -0.75 20.8 -1.75 L20.7 -2.95 Q20.7 -6.05 22.8 -6.15 24.9 -6.35 24.9 -3.8 M23.45 -5.15 L22.9 -5.15 Q22.25 -5.2 21.95 -4.55 L21.75 -3.55 Q21.75 -2.75 22.45 -2.2 L23.05 -2.2 Q24.15 -2.3 24.15 -4.15 24.15 -5.0 23.45 -5.15 M4.6 15.55 L4.15 15.85 4.0 15.8 4.6 15.55 M-20.4 -9.95 L-20.35 -8.8 Q-20.35 -7.0 -21.6 -7.0 -23.85 -7.0 -23.85 -8.95 -23.85 -9.55 -23.45 -10.4 -22.8 -11.45 -21.85 -11.1 L-20.4 -9.95 M-21.25 -8.45 Q-20.8 -8.7 -20.8 -9.0 -20.8 -9.45 -21.75 -10.05 -23.15 -10.3 -22.9 -9.3 -23.0 -8.2 -22.0 -8.2 -21.65 -8.2 -21.25 -8.45 M-13.5 6.7 L-13.45 6.45 -13.45 6.65 -13.5 6.7" fill="#2f2f2f" fill-rule="evenodd" stroke="none"/>
    <path d="M4.3 17.0 L2.25 18.25 -1.2 20.15 -1.65 20.15 -1.7 20.1 -1.9 19.9 -4.65 16.25 -4.7 16.2 -6.35 14.4 -6.55 14.35 -7.3 14.25 -7.85 14.2 -9.35 14.0 -9.65 14.0 -13.2 13.45 Q-14.45 13.05 -15.7 12.8 L-16.25 12.35 -16.35 11.95 Q-16.35 11.25 -15.95 11.25 L-16.0 11.0 -15.7 9.1 -15.3 7.4 -15.2 7.05 -14.95 6.0 -14.8 5.55 -14.1 2.55 -13.15 -1.55 -12.95 -2.1 -12.8 -2.6 -12.5 -3.8 -12.5 -3.95 -12.4 -4.4 -12.1 -4.85 -11.95 -5.05 -11.9 -5.1 -11.65 -5.2 -11.25 -5.15 -10.85 -5.05 -7.5 -4.45 -7.55 -3.1 -7.6 -3.0 -7.6 -2.95 -7.6 -1.75 -7.7 -0.75 -7.65 -0.7 -7.3 -1.45 -6.75 -2.8 -6.55 -3.1 -6.1 -4.15 -3.55 -3.75 -2.6 -3.5 -2.45 -3.5 -1.95 -3.4 Q-1.4 -3.45 -1.4 -2.7 L-1.4 -2.65 -2.05 0.8 -2.55 3.2 -2.65 3.8 -3.05 5.35 -3.1 5.75 -3.05 6.0 -3.1 6.05 -3.1 6.25 -3.5 8.1 -1.95 7.15 1.65 5.45 1.8 5.4 2.4 5.05 2.6 4.95 2.85 4.8 2.9 4.8 5.9 3.15 7.15 2.35 Q7.85 2.0 8.3 2.0 9.5 2.05 9.95 4.0 L10.5 5.25 11.1 6.55 13.35 11.4 13.1 11.7 13.0 11.8 12.7 12.3 11.35 13.25 7.15 15.55 6.0 16.15 5.45 16.4 4.3 17.0 M10.8 9.55 L10.85 9.5 9.95 7.2 8.25 3.45 Q7.5 3.85 6.2 4.6 L2.8 6.25 -1.1 8.35 -3.7 10.2 -4.0 10.45 -4.1 11.7 -4.1 11.75 -4.5 13.75 -4.55 13.95 -4.65 14.2 -4.65 14.25 -4.5 14.4 -3.95 15.05 -3.75 15.25 Q-3.7 15.7 -3.25 15.95 L-3.3 15.95 -2.5 17.15 -1.85 17.9 -1.25 18.8 3.8 16.05 4.15 15.85 4.6 15.55 4.7 15.5 8.7 13.2 9.65 12.75 10.55 12.15 11.0 11.95 11.65 11.6 11.0 10.0 10.95 10.05 10.8 9.55 M-9.15 -1.75 L-9.0 -3.1 -9.0 -3.15 -10.3 -3.4 -11.15 -3.55 -12.5 2.1 -13.2 4.9 -13.25 5.1 -13.4 5.9 -13.4 6.1 -13.45 6.15 -13.45 6.2 -13.45 6.45 -13.5 6.7 -13.95 8.45 -14.0 9.15 -14.6 11.2 Q-14.65 11.65 -14.2 11.65 L-12.85 11.95 -10.95 12.25 -10.55 12.35 -10.15 12.25 -10.15 12.4 -6.75 12.9 -5.9 13.0 -5.8 12.55 -5.5 11.65 -5.4 10.9 -5.2 9.65 -5.1 9.35 -4.45 6.4 -4.3 5.75 -4.3 5.45 -4.1 5.15 -4.05 4.85 -3.7 3.35 -3.2 0.25 -2.7 -2.05 -2.65 -2.3 -3.7 -2.45 -4.85 -2.45 -5.85 -2.5 -6.7 -0.55 -6.75 -0.45 -7.2 0.5 -7.5 1.35 -7.65 1.9 -8.0 2.35 -8.2 2.35 -8.4 0.95 -8.35 0.7 -8.35 0.65 -8.4 0.6 -8.45 0.05 -8.5 -1.45 -8.8 1.15 -9.15 -1.75" fill="#441d00" fill-rule="evenodd" stroke="none"/>
    <path d="M3.05 -18.15 L3.15 -18.2 3.25 -18.2 3.35 -18.2 3.55 -18.0 5.2 -18.15 Q5.7 -18.15 7.0 -17.4 L8.6 -16.45 Q9.25 -16.05 9.2 -15.45 L9.1 -14.4 9.65 -14.2 11.7 -14.6 Q13.95 -14.6 15.0 -13.3 15.75 -12.5 15.75 -11.6 15.75 -10.25 14.0 -8.75 L13.4 -8.1 11.9 -7.05 11.95 -6.9 Q12.5 -7.45 13.05 -7.55 15.0 -8.0 16.0 -7.1 L16.2 -7.0 16.45 -6.55 16.8 -5.8 16.8 -5.75 16.85 -5.05 16.6 -4.1 16.0 -3.3 15.55 -2.65 Q14.6 -2.05 13.4 -2.05 L13.25 -1.95 13.5 -1.9 13.55 -1.9 Q15.5 -1.7 16.55 -0.25 L16.65 0.0 16.7 0.0 17.85 1.5 18.55 2.95 Q18.95 4.0 18.95 4.6 L18.5 6.85 17.65 9.0 17.05 9.85 15.4 11.4 12.7 12.3 13.0 11.8 13.1 11.7 13.35 11.4 11.1 6.55 10.5 5.25 9.95 4.0 Q9.5 2.05 8.3 2.0 7.85 2.0 7.15 2.35 L5.9 3.15 2.9 4.8 2.85 4.8 2.6 4.95 2.4 5.05 1.8 5.4 1.65 5.45 -1.95 7.15 -3.5 8.1 -3.1 6.25 -3.1 6.05 -3.05 6.0 -3.1 5.75 -3.05 5.35 -2.65 3.8 -2.55 3.2 -2.05 0.8 -1.4 -2.65 -1.4 -2.7 Q-1.4 -3.45 -1.95 -3.4 L-2.45 -3.5 -2.6 -3.5 -3.55 -3.75 -6.1 -4.15 -6.55 -3.1 -6.75 -2.8 -7.3 -1.45 -7.65 -0.7 -7.7 -0.75 -7.6 -1.75 -7.6 -2.95 -7.6 -3.0 -7.55 -3.1 -7.5 -4.45 -10.85 -5.05 -11.25 -5.15 -11.65 -5.2 -11.9 -5.1 -11.95 -5.05 -12.1 -4.85 -12.4 -4.4 -12.5 -3.95 -12.5 -3.8 -12.8 -2.6 -12.95 -2.1 -13.15 -1.55 -14.1 2.55 -14.8 5.55 -14.95 6.0 -15.4 5.5 -16.55 2.35 -16.25 1.9 -15.95 1.2 Q-15.95 0.85 -16.75 0.1 -17.55 -0.55 -17.55 -2.15 L-17.25 -3.6 -16.95 -4.1 Q-16.6 -4.85 -15.6 -5.05 L-15.1 -5.15 Q-13.9 -5.25 -13.9 -5.8 L-14.1 -6.05 Q-15.75 -8.25 -15.75 -9.8 -15.75 -10.85 -15.35 -11.4 -14.5 -12.4 -12.3 -12.6 L-11.95 -12.65 Q-10.45 -12.9 -7.95 -11.65 L-7.2 -10.75 Q-6.7 -10.9 -6.7 -11.4 L-6.7 -11.5 -6.45 -11.9 -6.2 -12.5 -2.2 -8.05 1.45 -3.95 Q3.6 -1.4 4.3 -1.4 L4.45 -1.4 4.55 -1.4 4.95 -1.55 5.0 -1.7 8.3 -4.05 10.1 -5.25 Q11.5 -6.35 11.5 -6.8 11.5 -7.3 9.05 -10.2 L6.15 -13.75 3.6 -17.2 3.05 -18.15 M11.35 13.25 L11.55 14.1 11.5 15.05 10.85 16.2 9.25 17.35 8.25 17.4 Q6.4 17.4 5.45 16.4 L6.0 16.15 7.15 15.55 11.35 13.25 M23.45 -5.15 Q24.15 -5.0 24.15 -4.15 24.15 -2.3 23.05 -2.2 L22.45 -2.2 Q21.75 -2.75 21.75 -3.55 L21.95 -4.55 Q22.25 -5.2 22.9 -5.15 L23.45 -5.15 M-21.25 -8.45 Q-21.65 -8.2 -22.0 -8.2 -23.0 -8.2 -22.9 -9.3 -23.15 -10.3 -21.75 -10.05 -20.8 -9.45 -20.8 -9.0 -20.8 -8.7 -21.25 -8.45 M-13.4 6.1 L-13.4 5.9 -13.35 5.95 -13.4 6.1 M-19.85 8.0 Q-20.05 8.55 -20.6 8.55 -21.55 8.55 -22.25 7.75 L-22.7 6.75 -22.5 6.05 -20.25 5.9 Q-19.85 6.6 -19.85 7.25 L-19.85 8.0" fill="#444444" fill-rule="evenodd" stroke="none"/>
    <path d="M-3.7 10.2 L-1.1 8.35 2.8 6.25 6.2 4.6 Q7.5 3.85 8.25 3.45 L9.95 7.2 Q8.45 8.55 6.1 9.65 3.3 10.95 1.0 10.95 -1.5 10.95 -3.7 10.2" fill="#d77d11" fill-rule="evenodd" stroke="none"/>
    <path d="M2.15 -19.4 L3.7 -19.6 4.05 -19.4 6.75 -18.9 Q10.1 -16.95 10.45 -15.75 14.45 -16.25 16.05 -14.2 16.9 -13.05 16.9 -11.55 16.9 -10.05 15.6 -8.45 L16.3 -8.25 17.15 -7.9 Q17.85 -7.4 17.95 -6.35 L18.15 -5.1 Q17.65 -2.3 16.5 -1.55 L17.65 -0.8 Q18.85 -0.05 19.0 0.8 L19.6 2.5 20.05 4.6 Q20.05 7.4 19.1 9.2 17.75 11.5 14.85 12.9 L13.65 13.5 Q13.15 13.75 13.15 14.35 L13.05 15.35 11.95 17.25 Q11.3 18.0 10.35 18.35 L8.85 18.6 8.65 18.6 8.25 18.6 Q5.4 18.6 4.3 17.0 L5.45 16.4 Q6.4 17.4 8.25 17.4 L9.25 17.35 10.85 16.2 11.5 15.05 11.55 14.1 11.35 13.25 12.7 12.3 15.4 11.4 17.05 9.85 17.65 9.0 18.5 6.85 18.95 4.6 Q18.95 4.0 18.55 2.95 L17.85 1.5 16.7 0.0 16.65 0.0 16.55 -0.25 Q15.5 -1.7 13.55 -1.9 L13.5 -1.9 13.25 -1.95 13.4 -2.05 Q14.6 -2.05 15.55 -2.65 L16.0 -3.3 16.6 -4.1 16.85 -5.05 16.8 -5.75 16.8 -5.8 16.45 -6.55 16.2 -7.0 16.0 -7.1 Q15.0 -8.0 13.05 -7.55 12.5 -7.45 11.95 -6.9 L11.9 -7.05 13.4 -8.1 14.0 -8.75 Q15.75 -10.25 15.75 -11.6 15.75 -12.5 15.0 -13.3 13.95 -14.6 11.7 -14.6 L9.65 -14.2 9.1 -14.4 9.2 -15.45 Q9.25 -16.05 8.6 -16.45 L7.0 -17.4 Q5.7 -18.15 5.2 -18.15 L3.55 -18.0 3.35 -18.2 3.25 -18.2 3.15 -18.2 3.05 -18.15 2.5 -19.0 2.15 -19.4 M-15.3 7.4 L-16.45 6.1 -17.75 3.0 -17.75 1.65 Q-17.7 1.15 -17.9 0.85 L-18.25 0.35 Q-18.65 -0.45 -18.7 -1.95 L-18.7 -2.2 Q-18.7 -3.85 -18.5 -4.2 -18.05 -5.15 -15.95 -6.35 -16.95 -8.25 -16.95 -9.75 -16.95 -14.1 -11.85 -13.85 -9.9 -13.8 -8.35 -12.95 L-7.55 -12.6 -6.9 -13.3 Q-6.1 -13.75 -6.1 -12.8 L-6.2 -12.5 -6.45 -11.9 -6.7 -11.5 -6.7 -11.4 Q-6.7 -10.9 -7.2 -10.75 L-7.95 -11.65 Q-10.45 -12.9 -11.95 -12.65 L-12.3 -12.6 Q-14.5 -12.4 -15.35 -11.4 -15.75 -10.85 -15.75 -9.8 -15.75 -8.25 -14.1 -6.05 L-13.9 -5.8 Q-13.9 -5.25 -15.1 -5.15 L-15.6 -5.05 Q-16.6 -4.85 -16.95 -4.1 L-17.25 -3.6 -17.55 -2.15 Q-17.55 -0.55 -16.75 0.1 -15.95 0.85 -15.95 1.2 L-16.25 1.9 -16.55 2.35 -15.4 5.5 -14.95 6.0 -15.2 7.05 -15.3 7.4 M-19.4 8.0 L-19.35 8.25 Q-19.75 8.25 -19.75 8.95 L-19.65 9.4 -20.65 9.65 Q-22.8 9.65 -23.6 8.2 L-23.9 6.55 Q-23.9 4.4 -21.4 4.65 -19.55 4.8 -19.1 6.1 L-19.4 8.0 M-19.85 8.0 L-19.85 7.25 Q-19.85 6.6 -20.25 5.9 L-22.5 6.05 -22.7 6.75 -22.25 7.75 Q-21.55 8.55 -20.6 8.55 -20.05 8.55 -19.85 8.0" fill="#1e1e1e" fill-rule="evenodd" stroke="none"/>
    <path d="M-6.9 -13.3 L-7.65 -14.65 -7.6 -14.85 -7.65 -15.05 Q-7.65 -15.35 -5.6 -16.6 L-3.5 -17.95 -1.4 -19.5 0.9 -20.75 2.15 -19.4 2.5 -19.0 3.05 -18.15 3.6 -17.2 6.15 -13.75 9.05 -10.2 Q11.5 -7.3 11.5 -6.8 11.5 -6.35 10.1 -5.25 L8.3 -4.05 5.0 -1.7 4.95 -1.55 4.55 -1.4 4.45 -1.4 4.3 -1.4 Q3.6 -1.4 1.45 -3.95 L-2.2 -8.05 -6.2 -12.5 -6.1 -12.8 Q-6.1 -13.75 -6.9 -13.3 M7.65 -5.15 L7.7 -5.1 10.0 -7.0 5.15 -13.1 1.95 -17.5 1.5 -18.45 1.0 -18.8 0.7 -19.35 -0.15 -18.75 -0.55 -18.5 -0.65 -18.45 -1.2 -18.1 -0.75 -17.6 -0.75 -17.55 -1.1 -17.6 -1.5 -17.5 -1.7 -17.8 -3.7 -16.35 -6.3 -14.65 -6.1 -14.35 -4.8 -12.6 -1.4 -9.0 1.9 -5.5 4.35 -2.9 4.8 -3.3 6.85 -4.45 7.25 -4.8 7.1 -4.9 Q7.55 -4.95 7.65 -5.15 M-10.1 6.2 L-9.15 -1.75 -8.8 1.15 -9.35 5.5 -9.45 6.85 -9.5 7.4 -9.85 9.65 -10.1 11.85 -10.15 12.25 -10.55 12.35 -10.95 12.25 -10.3 7.4 -10.1 6.2" fill="#622900" fill-rule="evenodd" stroke="none"/>
    <path d="M-0.75 -17.55 L0.85 -15.3 7.65 -5.15 Q7.55 -4.95 7.1 -4.9 L3.0 -10.9 -1.5 -17.5 -1.1 -17.6 -0.75 -17.55" fill="#913d01" fill-rule="evenodd" stroke="none"/>
    <path d="M10.8 9.55 L10.95 10.05 Q10.35 10.5 8.55 11.1 L3.95 12.8 -3.25 15.95 Q-3.7 15.7 -3.75 15.25 L-3.65 15.45 Q-2.55 14.8 2.1 12.85 7.6 10.55 10.8 9.55" fill="#6b2d00" fill-rule="evenodd" stroke="none"/>
    <path d="M-0.75 -17.55 L-0.75 -17.6 -1.2 -18.1 -0.65 -18.45 -0.55 -18.5 -0.15 -18.75 0.7 -19.35 1.0 -18.8 1.5 -18.45 1.95 -17.5 5.15 -13.1 10.0 -7.0 7.7 -5.1 7.65 -5.15 0.85 -15.3 -0.75 -17.55 M7.1 -4.9 L7.25 -4.8 6.85 -4.45 4.8 -3.3 4.35 -2.9 1.9 -5.5 -1.4 -9.0 -4.8 -12.6 -6.1 -14.35 -6.3 -14.65 -3.7 -16.35 -1.7 -17.8 -1.5 -17.5 3.0 -10.9 7.1 -4.9 M-12.5 2.1 L-11.15 -3.55 -10.3 -3.4 -9.0 -3.15 -9.0 -3.1 -9.15 -1.75 -10.1 6.2 Q-11.15 5.1 -11.8 3.85 L-12.5 2.1 M-8.8 1.15 L-8.5 -1.45 -8.45 0.05 -8.4 0.6 -8.35 0.65 -8.35 0.7 -8.4 0.95 -8.2 2.35 -8.0 2.35 -7.65 1.9 -7.5 1.35 -7.2 0.5 -6.75 -0.45 -6.7 -0.55 -5.85 -2.5 -4.85 -2.45 -3.7 -2.45 -2.65 -2.3 -2.7 -2.05 -3.2 0.25 -3.7 3.35 -4.05 4.85 -4.1 5.15 -4.3 5.45 -4.3 5.75 -4.45 6.4 -5.1 9.35 -5.2 9.65 Q-7.0 8.9 -8.65 7.65 L-8.95 7.4 -9.35 7.4 -9.5 7.4 -9.45 6.85 -9.35 5.5 -8.8 1.15" fill="#f59b12" fill-rule="evenodd" stroke="none"/>
    <path d="M9.95 7.2 L10.85 9.5 10.8 9.55 Q7.6 10.55 2.1 12.85 -2.55 14.8 -3.65 15.45 L-3.75 15.25 -3.95 15.05 -4.5 14.4 -4.65 14.25 -4.65 14.2 -4.55 13.95 -4.5 13.75 -4.1 11.75 -4.1 11.7 -4.0 10.45 -3.7 10.2 Q-1.5 10.95 1.0 10.95 3.3 10.95 6.1 9.65 8.45 8.55 9.95 7.2 M10.95 10.05 L11.0 10.0 11.65 11.6 11.0 11.95 10.55 12.15 9.65 12.75 8.7 13.2 4.7 15.5 4.6 15.55 4.0 15.8 4.15 15.85 3.8 16.05 -1.25 18.8 -1.85 17.9 -2.5 17.15 -3.3 15.95 -3.25 15.95 3.95 12.8 8.55 11.1 Q10.35 10.5 10.95 10.05 M-12.5 2.1 L-11.8 3.85 Q-11.15 5.1 -10.1 6.2 L-10.3 7.4 -10.95 12.25 -12.85 11.95 -14.2 11.65 Q-14.65 11.65 -14.6 11.2 L-14.0 9.15 -13.95 8.45 -13.5 6.7 -13.45 6.65 -13.45 6.45 -13.45 6.2 -13.45 6.15 -13.4 6.1 -13.35 5.95 -13.4 5.9 -13.25 5.1 -13.2 4.9 -12.5 2.1 M-5.2 9.65 L-5.4 10.9 -5.5 11.65 -5.8 12.55 -5.9 13.0 -6.75 12.9 -10.15 12.4 -10.15 12.25 -10.1 11.85 -9.85 9.65 -9.5 7.4 -9.35 7.4 -8.95 7.4 -8.65 7.65 Q-7.0 8.9 -5.2 9.65" fill="#d27301" fill-rule="evenodd" stroke="none"/>
    <path d="M16.65 -18.75 L17.85 -18.8 Q20.2 -18.5 21.2 -17.7 22.1 -17.0 22.15 -15.55 22.1 -14.15 21.3 -13.1 L19.9 -11.9 Q18.95 -11.25 18.2 -11.05 L18.15 -11.1 Q19.05 -11.85 19.0 -12.95 L18.85 -13.8 18.55 -14.4 17.95 -15.35 17.6 -15.8 16.65 -16.6 Q15.9 -17.2 15.7 -17.35 L14.85 -17.35 14.25 -17.4 14.0 -17.5 15.0 -18.4 16.0 -18.7 16.65 -18.75 M18.0 -17.15 L18.55 -16.75 19.6 -15.15 19.8 -14.6 20.05 -13.15 19.75 -12.45 20.3 -12.85 21.0 -13.55 Q21.65 -14.35 21.7 -15.3 21.7 -16.4 20.75 -17.1 19.65 -18.0 18.2 -18.25 L17.4 -18.25 16.4 -18.2 16.6 -18.05 17.45 -17.55 18.0 -17.15 M9.75 21.5 L9.45 21.5 Q9.7 21.8 10.7 22.1 L12.9 22.2 Q13.8 22.35 15.25 21.45 16.65 20.5 16.9 19.7 L17.0 19.4 16.95 19.35 16.85 18.5 16.85 18.2 14.5 20.1 Q11.7 22.05 9.9 21.5 L9.75 21.5 M9.0 21.9 L8.5 20.9 8.9 20.9 9.35 20.95 9.55 21.0 Q9.5 20.8 9.6 20.75 L12.35 20.35 Q13.25 20.0 14.3 19.25 L14.4 19.1 15.15 18.35 15.4 18.05 16.3 16.4 16.4 16.1 16.25 15.0 16.4 15.05 16.75 15.5 17.75 16.65 18.0 17.1 Q18.25 18.1 17.95 19.15 L17.85 20.15 Q17.3 21.85 15.15 22.9 13.15 23.9 12.05 23.55 L11.8 23.45 11.15 23.2 Q10.0 22.85 9.0 21.9 M-4.1 -25.3 Q-2.5 -24.55 -1.55 -23.8 L-1.15 -23.35 -0.6 -22.6 -0.8 -22.35 -0.8 -22.3 -0.5 -21.35 -0.95 -21.65 -1.45 -21.95 -2.35 -22.1 -6.15 -21.9 -8.5 -21.25 Q-12.25 -20.0 -13.45 -17.8 L-13.95 -17.1 -14.65 -15.7 -14.8 -15.95 -14.9 -16.1 -15.2 -17.0 -15.4 -17.25 -15.4 -17.7 -15.45 -17.8 -15.5 -17.9 -15.55 -18.2 -15.2 -20.2 -14.85 -21.2 -14.6 -21.65 Q-13.9 -23.0 -12.45 -23.95 L-11.75 -24.35 -10.75 -24.9 -9.35 -25.4 -8.4 -25.65 -7.9 -25.75 -6.6 -25.85 -4.1 -25.3 M-1.5 -22.5 L-2.15 -23.2 Q-3.25 -24.05 -4.45 -24.3 L-6.75 -24.8 -8.05 -24.75 -8.65 -24.55 -9.1 -24.3 -9.65 -23.9 -10.6 -23.0 -11.45 -22.7 -11.9 -22.65 -12.35 -22.5 -12.85 -22.4 -13.45 -22.1 -14.25 -19.95 -14.35 -18.55 -12.7 -20.2 Q-10.3 -22.25 -8.55 -22.2 L-8.05 -22.35 -7.45 -22.45 -6.65 -22.6 -4.45 -22.7 -3.2 -22.55 -1.55 -22.35 -1.5 -22.5 M-20.2 11.5 L-20.0 11.3 -18.8 10.1 -19.25 11.35 -19.35 11.75 -19.35 12.5 -19.25 13.25 Q-18.8 15.4 -17.15 16.8 -15.45 18.25 -14.35 17.85 L-15.25 18.55 -15.6 18.7 -15.85 18.85 -17.9 19.3 Q-20.0 19.1 -20.75 18.0 L-21.35 16.15 -21.65 14.0 Q-21.6 12.75 -20.5 12.05 L-20.35 11.85 -20.2 11.5 M-19.0 18.15 L-17.0 18.25 -16.85 18.05 -16.7 17.75 -16.65 17.6 -16.95 17.7 Q-17.3 17.7 -18.05 17.0 L-19.35 15.45 Q-20.2 14.3 -20.4 13.35 L-20.4 13.25 -20.6 13.7 -20.45 15.2 Q-20.1 16.9 -19.3 17.8 L-19.0 18.15 M-11.7 21.25 L-11.1 19.9 -10.85 19.35 Q-10.4 18.5 -9.55 18.35 L-9.55 18.45 Q-9.8 19.5 -9.35 20.45 -8.85 21.35 -7.8 21.6 L-6.15 21.4 Q-5.45 20.9 -5.25 19.95 L-5.25 20.0 -5.15 20.1 -5.3 20.8 Q-5.45 22.0 -6.05 22.85 -6.25 23.65 -7.1 24.25 -8.15 25.05 -9.75 24.7 -11.75 24.3 -11.95 22.75 L-11.7 21.25 M-10.2 22.1 L-10.4 20.5 Q-10.85 20.95 -11.0 21.75 -11.25 22.9 -10.6 23.5 L-10.5 23.55 -10.35 23.7 -8.9 24.0 -8.65 23.95 -8.05 23.8 -7.45 23.5 -7.4 23.5 -7.05 23.1 -7.0 22.9 -6.75 22.25 -6.8 22.2 Q-8.35 22.85 -8.95 22.75 -9.9 22.55 -10.2 22.1" fill="#cd1e1e" fill-rule="evenodd" stroke="none"/>
    <path d="M18.0 -17.15 L17.45 -17.55 16.6 -18.05 16.4 -18.2 17.4 -18.25 18.2 -18.25 Q19.65 -18.0 20.75 -17.1 21.7 -16.4 21.7 -15.3 21.65 -14.35 21.0 -13.55 L20.3 -12.85 19.75 -12.45 20.05 -13.15 19.8 -14.6 19.6 -15.15 18.55 -16.75 18.0 -17.15 M9.75 21.5 L9.9 21.5 Q11.7 22.05 14.5 20.1 L16.85 18.2 16.85 18.5 16.95 19.35 17.0 19.4 16.9 19.7 Q16.65 20.5 15.25 21.45 13.8 22.35 12.9 22.2 L10.7 22.1 Q9.7 21.8 9.45 21.5 L9.75 21.5 M-1.5 -22.5 L-1.55 -22.35 -3.2 -22.55 -4.45 -22.7 -6.65 -22.6 -7.45 -22.45 -8.05 -22.35 -8.55 -22.2 Q-10.3 -22.25 -12.7 -20.2 L-14.35 -18.55 -14.25 -19.95 -13.45 -22.1 -12.85 -22.4 -12.35 -22.5 -11.9 -22.65 -11.45 -22.7 -10.6 -23.0 -9.65 -23.9 -9.1 -24.3 -8.65 -24.55 -8.05 -24.75 -6.75 -24.8 -4.45 -24.3 Q-3.25 -24.05 -2.15 -23.2 L-1.5 -22.5 M-19.0 18.15 L-19.3 17.8 Q-20.1 16.9 -20.45 15.2 L-20.6 13.7 -20.4 13.25 -20.4 13.35 Q-20.2 14.3 -19.35 15.45 L-18.05 17.0 Q-17.3 17.7 -16.95 17.7 L-16.65 17.6 -16.7 17.75 -16.85 18.05 -17.0 18.25 -19.0 18.15 M-10.2 22.1 Q-9.9 22.55 -8.95 22.75 -8.35 22.85 -6.8 22.2 L-6.75 22.25 -7.0 22.9 -7.05 23.1 -7.4 23.5 -7.45 23.5 -8.05 23.8 -8.65 23.95 -8.9 24.0 -10.35 23.7 -10.5 23.55 -10.6 23.5 Q-11.25 22.9 -11.0 21.75 -10.85 20.95 -10.4 20.5 L-10.2 22.1" fill="#e7e743" fill-rule="evenodd" stroke="none"/>
  </g>
  <defs>
    <radialGradient cx="0" cy="0" gradientTransform="matrix(0.0376, 0.0, 0.0, 0.0376, 1.05, 0.95)" gradientUnits="userSpaceOnUse" id="gradient0" r="819.2" spreadMethod="pad">
      <stop offset="0.3607843137254902" stop-color="#ffff00"/>
      <stop offset="1.0" stop-color="#ffff00" stop-opacity="0.0"/>
    </radialGradient>
  </defs>
</svg>
