<?xml version="1.0" encoding="UTF-8" standalone="no"?>
<svg xmlns:ffdec="https://www.free-decompiler.com/flash" xmlns:xlink="http://www.w3.org/1999/xlink" ffdec:objectType="shape" height="60.95px" width="61.3px" xmlns="http://www.w3.org/2000/svg">
  <g transform="matrix(1.0, 0.0, 0.0, 1.0, 31.0, 30.6)">
    <path d="M12.55 -27.75 L8.15 -24.0 6.5 -22.65 6.5 -22.75 6.55 -24.25 6.25 -28.3 6.15 -28.3 6.15 -28.4 6.05 -29.65 5.9 -29.95 Q8.7 -29.4 11.35 -28.3 L12.55 -27.75 M4.4 -30.2 Q4.0 -29.8 3.5 -28.4 L3.45 -28.4 Q0.55 -23.5 -0.45 -22.45 L-0.35 -23.45 Q-0.35 -24.75 -1.7 -27.35 L-2.3 -28.3 -2.35 -28.3 -2.45 -28.45 Q-2.5 -28.85 -2.9 -29.65 -2.95 -30.05 -3.35 -30.2 -3.7 -30.35 -3.85 -30.45 L-0.55 -30.6 4.4 -30.2 M-3.95 -30.4 Q-4.35 -29.8 -4.6 -28.3 L-4.65 -28.3 Q-5.75 -25.4 -8.7 -20.1 -12.9 -12.6 -12.9 -8.95 -12.9 -6.6 -12.15 -3.4 -11.3 0.05 -10.3 1.3 L-8.7 2.6 Q-8.35 4.65 -6.45 6.8 L-1.55 9.65 -1.5 9.6 -1.15 9.9 -0.2 10.45 -0.15 10.45 1.4 11.35 -4.25 12.0 -4.35 12.15 -14.45 5.7 -25.05 -13.5 -25.05 -13.55 -26.45 -16.2 -26.2 -16.65 -25.2 -18.05 -22.1 -21.7 Q-19.05 -24.75 -15.6 -26.7 L-12.35 -28.3 Q-8.4 -29.95 -3.95 -30.4 M9.05 11.95 L10.95 11.35 12.05 10.95 Q17.0 9.15 18.5 7.95 18.15 7.8 16.75 6.85 L14.3 5.45 26.05 -0.6 26.05 -0.8 27.5 -1.4 29.15 -2.1 Q29.6 -2.3 29.85 -2.45 L29.9 -0.15 Q29.9 7.75 26.5 14.2 L26.5 14.3 26.05 15.0 22.5 19.7 20.15 22.1 9.3 15.9 Q11.35 15.3 11.6 13.85 L9.05 11.95" fill="#ffffff" fill-rule="evenodd" stroke="none"/>
    <path d="M26.55 -14.25 L26.7 -13.25 26.0 -12.3 26.0 -12.15 22.5 -8.1 15.1 -17.7 19.9 -22.7 20.2 -22.4 21.0 -21.7 Q23.3 -19.35 25.0 -16.85 L25.2 -16.55 25.95 -15.35 26.05 -15.3 26.2 -15.1 26.55 -14.3 26.55 -14.25" fill="#000000" fill-rule="evenodd" stroke="none"/>
    <path d="M-0.45 -22.45 L-0.5 -22.25 -0.7 -22.25 -0.45 -22.45" fill="#f8facc" fill-rule="evenodd" stroke="none"/>
    <path d="M23.2 -27.3 L23.45 -27.3 23.55 -27.2 23.2 -27.3" fill="#ffe25d" fill-rule="evenodd" stroke="none"/>
    <path d="M1.4 11.35 L7.2 10.55 9.05 11.95 11.6 13.85 Q11.35 15.3 9.3 15.9 L20.15 22.1 22.5 19.7 26.05 15.0 25.5 15.9 Q23.6 18.85 21.0 21.4 L18.7 23.55 15.9 25.6 Q8.65 30.35 -0.55 30.35 -9.75 30.35 -17.0 25.6 -19.7 23.8 -22.1 21.4 -24.45 19.05 -26.2 16.4 -31.0 9.15 -31.0 -0.15 -31.0 -9.15 -26.45 -16.2 L-25.05 -13.55 -25.05 -13.5 -14.45 5.7 -4.35 12.15 -4.25 12.0 1.4 11.35" fill="#1e1e1e" fill-rule="evenodd" stroke="none"/>
    <path d="M1.45 -15.95 Q2.6 -17.1 4.6 -17.6 L5.05 -17.35 6.05 -16.7 6.5 -16.4 8.45 -15.0 8.65 -14.95 12.05 -12.4 Q14.55 -9.95 14.55 -6.5 L14.55 -5.65 Q14.25 -1.05 10.6 1.25 8.15 2.75 5.9 2.75 L4.15 2.45 2.8 1.55 0.9 1.25 -0.05 1.25 -0.8 1.0 -3.15 -1.25 Q-4.25 -2.65 -4.25 -4.55 -4.25 -7.05 -3.0 -9.2 L-1.35 -11.25 Q-0.55 -11.9 -0.4 -12.55 0.2 -14.8 1.45 -15.95" fill="#747474" fill-rule="evenodd" stroke="none"/>
    <path d="M17.35 -24.8 L15.1 -22.55 12.95 -20.5 12.65 -20.3 12.45 -20.15 11.4 -19.45 11.4 -19.6 11.1 -22.85 Q11.1 -23.85 11.4 -25.15 L11.25 -25.15 7.0 -22.05 2.75 -18.45 2.75 -18.65 Q3.45 -19.35 3.85 -20.35 L4.2 -22.1 4.25 -23.2 4.1 -24.95 3.9 -24.95 -0.65 -19.95 -2.8 -17.5 -2.4 -18.65 Q-2.05 -19.85 -2.35 -22.3 -2.75 -24.8 -3.5 -25.25 L-3.5 -25.1 -5.1 -18.5 -10.45 -4.9 -9.3 -2.55 -9.1 -1.9 -8.5 -0.8 -8.35 -0.45 -7.85 0.2 -7.35 1.25 -4.7 1.65 -3.4 3.8 2.0 4.35 Q2.85 5.1 3.3 6.05 L3.65 6.7 Q3.55 6.5 3.7 6.55 L9.4 5.6 11.85 6.5 14.55 4.45 14.95 4.25 15.8 3.75 19.45 1.2 23.25 -1.0 20.35 -1.3 19.55 -1.3 18.7 -1.25 17.75 -0.95 Q18.55 -2.2 21.7 -4.65 L25.45 -7.45 25.85 -7.85 26.7 -8.5 27.7 -9.25 28.35 -9.85 28.3 -10.1 Q27.95 -10.05 26.1 -9.0 L25.95 -8.95 26.0 -12.15 26.0 -12.3 26.7 -13.25 26.55 -14.25 Q29.1 -9.4 29.75 -3.7 L29.9 -3.45 30.05 -2.85 29.85 -2.45 Q29.6 -2.3 29.15 -2.1 L27.5 -1.4 26.05 -0.8 26.05 -0.6 14.3 5.45 16.75 6.85 Q18.15 7.8 18.5 7.95 17.0 9.15 12.05 10.95 L10.95 11.35 9.05 11.95 7.2 10.55 1.4 11.35 -0.15 10.45 -0.2 10.45 -1.15 9.9 -1.5 9.6 -1.55 9.65 -6.45 6.8 Q-8.35 4.65 -8.7 2.6 L-10.3 1.3 Q-11.3 0.05 -12.15 -3.4 -12.9 -6.6 -12.9 -8.95 -12.9 -12.6 -8.7 -20.1 -5.75 -25.4 -4.65 -28.3 L-4.6 -28.3 Q-4.35 -29.8 -3.95 -30.4 L-3.95 -30.5 -3.85 -30.45 Q-3.7 -30.35 -3.35 -30.2 -2.95 -30.05 -2.9 -29.65 -2.5 -28.85 -2.45 -28.45 L-2.35 -28.3 -2.3 -28.3 -1.7 -27.35 Q-0.35 -24.75 -0.35 -23.45 L-0.45 -22.45 Q0.55 -23.5 3.45 -28.4 L3.5 -28.4 Q4.0 -29.8 4.4 -30.2 L4.75 -30.4 Q5.55 -30.4 5.9 -29.95 L6.05 -29.65 6.15 -28.4 6.15 -28.3 6.25 -28.3 6.55 -24.25 6.5 -22.75 6.5 -22.65 8.15 -24.0 12.55 -27.75 14.55 -26.7 14.6 -26.65 17.35 -24.8 M-0.45 -22.45 L-0.7 -22.25 -0.5 -22.25 -0.45 -22.45 M26.05 -15.3 L26.05 -24.6 26.2 -24.4 26.2 -15.1 26.05 -15.3" fill="#d7d6d3" fill-rule="evenodd" stroke="none"/>
    <path d="M26.0 -12.15 L25.95 -8.95 26.1 -9.0 Q27.95 -10.05 28.3 -10.1 L28.35 -9.85 27.7 -9.25 26.7 -8.5 25.85 -7.85 25.45 -7.45 21.7 -4.65 Q18.55 -2.2 17.75 -0.95 L18.7 -1.25 19.55 -1.3 20.35 -1.3 23.25 -1.0 19.45 1.2 15.8 3.75 14.95 4.25 14.55 4.45 11.85 6.5 9.4 5.6 3.7 6.55 Q3.55 6.5 3.65 6.7 L3.3 6.05 Q2.85 5.1 2.0 4.35 L-3.4 3.8 -4.7 1.65 -7.35 1.25 -7.85 0.2 -8.35 -0.45 -8.5 -0.8 -9.1 -1.9 -9.3 -2.55 -10.45 -4.9 -5.1 -18.5 -3.5 -25.1 -3.5 -25.25 Q-2.75 -24.8 -2.35 -22.3 -2.05 -19.85 -2.4 -18.65 L-2.8 -17.5 -0.65 -19.95 3.9 -24.95 4.1 -24.95 4.25 -23.2 4.2 -22.1 3.85 -20.35 Q3.45 -19.35 2.75 -18.65 L2.75 -18.45 7.0 -22.05 11.25 -25.15 11.4 -25.15 Q11.1 -23.85 11.1 -22.85 L11.4 -19.6 11.4 -19.45 12.45 -20.15 12.65 -20.3 12.95 -20.5 15.1 -22.55 17.35 -24.8 17.7 -24.55 19.9 -22.7 15.1 -17.7 22.5 -8.1 26.0 -12.15 M1.45 -15.95 Q0.2 -14.8 -0.4 -12.55 -0.55 -11.9 -1.35 -11.25 L-3.0 -9.2 Q-4.25 -7.05 -4.25 -4.55 -4.25 -2.65 -3.15 -1.25 L-0.8 1.0 -0.05 1.25 0.9 1.25 2.8 1.55 4.15 2.45 5.9 2.75 Q8.15 2.75 10.6 1.25 14.25 -1.05 14.55 -5.65 L14.55 -6.5 Q14.55 -9.95 12.05 -12.4 L8.65 -14.95 8.45 -15.0 6.5 -16.4 6.05 -16.7 5.05 -17.35 4.6 -17.6 Q2.6 -17.1 1.45 -15.95" fill="#9c9c9c" fill-rule="evenodd" stroke="none"/>
    <path d="M20.8 21.05 L21.8 21.2 21.4 21.6 20.35 22.7 19.25 23.65 13.1 19.35 20.95 20.9 20.8 21.05 M5.7 16.9 L10.7 13.95 18.6 13.3 22.2 17.5 4.2 17.75 5.05 17.3 5.8 16.75 5.7 16.9" fill="#1e1e1e" fill-rule="evenodd" stroke="none"/>
    <path d="M-13.4 -27.45 L-14.65 -15.05 -19.1 -23.75 Q-17.2 -25.35 -15.15 -26.55 L-13.4 -27.45 M-4.25 -27.9 L-4.15 -27.9 -7.1 -18.95 -8.45 -18.65 -9.4 -28.8 -9.3 -28.8 -9.35 -29.05 -3.25 -30.25 -4.25 -27.9 M-14.65 -12.25 L-13.7 -11.5 -12.7 -0.5 -14.1 0.05 -19.2 -9.15 -19.45 -9.35 -19.2 -15.5 -14.7 -12.25 -14.65 -12.25 M-21.45 -21.7 L-20.35 -18.8 -20.8 -12.95 Q-20.8 -13.5 -21.1 -13.15 L-21.95 -14.15 -24.45 -15.95 -24.4 -16.6 -24.95 -17.65 -22.35 -20.8 -21.7 -21.5 -21.45 -21.7 M25.8 1.05 L30.25 -2.2 30.3 0.05 Q30.3 4.15 29.4 7.85 L16.1 10.1 15.5 9.75 13.8 9.25 22.7 3.4 25.8 0.75 25.8 1.05" fill="#464646" fill-rule="evenodd" stroke="none"/>
    <path d="M19.65 -22.1 L20.05 -22.6 21.25 -21.45 21.95 -20.7 22.95 -19.6 23.7 -18.7 Q25.85 -16.0 27.3 -13.0 L24.25 -10.1 24.4 -10.15 Q24.75 -10.15 20.1 -5.2 L15.35 -0.1 15.2 0.05 15.1 0.1 13.65 1.45 12.45 2.7 11.35 3.3 11.2 3.45 Q9.4 2.8 8.8 3.0 L8.65 2.5 8.85 1.9 8.7 1.25 8.95 0.7 Q9.35 -1.2 11.1 -2.55 L11.25 -2.95 11.6 -3.95 11.1 -4.8 10.35 -5.45 Q9.05 -6.05 8.65 -6.35 L8.1 -6.45 Q6.85 -6.6 6.85 -7.0 L7.45 -8.7 7.95 -10.2 Q6.95 -11.3 5.7 -13.2 4.35 -15.1 4.1 -15.7 L3.6 -16.25 3.35 -16.55 3.4 -17.1 4.0 -17.1 4.2 -17.15 Q4.6 -17.95 6.5 -17.9 L7.0 -17.65 7.5 -17.5 11.1 -17.0 13.4 -16.6 13.5 -16.6 14.0 -16.5 15.0 -17.55 15.1 -17.55 17.4 -19.85 19.3 -21.5 19.65 -22.1 M3.5 -14.45 L6.5 -10.4 6.6 -10.1 6.8 -9.9 6.8 -9.85 Q6.8 -9.0 6.25 -8.1 L6.2 -8.1 Q5.75 -7.5 5.0 -7.5 3.5 -7.5 3.15 -8.45 L3.15 -8.5 Q2.55 -8.45 1.95 -8.75 L1.8 -9.0 1.75 -9.2 Q1.0 -9.6 -2.3 -13.2 -2.6 -13.9 -2.2 -14.55 L-2.0 -15.2 Q-1.6 -15.95 -0.05 -16.6 0.15 -17.05 1.75 -15.95 L3.5 -14.45 M0.95 -6.35 L1.45 -6.6 1.5 -6.7 2.25 -7.2 Q2.45 -7.05 2.6 -7.0 L3.6 -7.35 3.65 -7.3 Q4.25 -6.6 5.05 -6.1 L5.3 -5.95 5.3 -5.9 5.35 -5.6 5.05 -5.05 3.95 -3.9 3.15 -2.7 2.95 -2.45 2.55 -1.8 2.0 -1.05 2.0 -0.5 2.4 0.75 2.35 0.95 2.45 1.25 2.25 1.8 2.2 1.9 2.15 2.0 1.45 2.15 0.35 2.0 -0.5 2.15 Q-2.05 2.15 -2.35 0.85 L-2.35 0.65 -2.5 0.35 -2.55 -0.45 -2.45 -0.9 -2.15 -2.8 -2.15 -2.95 Q-1.35 -4.7 0.95 -6.35 M0.65 -8.6 L0.65 -8.0 -1.65 -5.4 -2.6 -4.35 -3.0 -2.7 -3.0 -1.5 Q-3.1 -0.65 -4.05 -0.65 L-4.25 -0.7 -4.3 -0.65 -4.3 -0.6 -6.65 -1.6 Q-6.95 -1.65 -7.2 -1.8 L-7.35 -2.1 -7.55 -4.25 Q-7.55 -5.3 -6.9 -6.6 L-6.85 -6.65 -6.7 -6.75 -6.75 -6.85 -6.55 -7.35 -6.3 -7.6 -2.7 -10.2 -2.3 -10.45 -1.65 -10.45 -1.3 -10.2 0.7 -8.8 0.65 -8.6 M4.15 -1.8 L5.2 -3.25 5.75 -3.7 Q6.3 -4.6 7.65 -5.35 L7.9 -5.45 10.25 -4.25 10.2 -4.15 10.2 -3.95 9.85 -2.9 9.15 -2.05 8.35 -1.1 8.15 -0.8 7.9 0.4 7.7 1.75 7.7 1.9 7.7 2.6 7.25 3.0 6.95 3.2 6.9 3.25 5.35 3.45 5.0 3.5 Q3.8 3.5 3.35 2.7 L3.35 1.25 3.3 0.1 3.4 -0.15 3.4 -0.35 4.15 -1.8 M7.6 4.0 L7.6 4.15 7.55 4.15 7.6 4.0" fill="#000000" fill-rule="evenodd" stroke="none"/>
    <path d="M-4.5 14.2 L-4.15 21.9 -6.8 21.75 -6.85 14.1 -4.5 14.2 M-17.7 14.55 Q-17.1 14.85 -16.7 15.45 L-18.45 17.15 -19.15 16.7 -19.8 16.6 -20.35 16.7 -20.8 17.2 -20.95 17.9 -20.8 18.45 -20.3 18.75 -19.8 18.85 -19.15 18.65 -18.65 18.15 -15.9 18.9 -16.8 20.5 -18.2 21.55 -19.75 21.85 -21.05 21.65 -22.25 20.95 -23.25 19.8 Q-23.6 19.1 -23.6 18.15 -23.65 16.8 -23.2 15.9 L-21.95 14.45 Q-21.15 14.0 -20.15 13.95 L-18.95 14.1 Q-18.3 14.2 -17.7 14.55 M-10.9 16.5 L-11.35 16.15 -11.85 16.0 -12.3 16.0 -12.4 16.0 -12.25 18.5 -11.75 18.35 -11.25 18.05 -10.85 17.65 -10.65 17.05 Q-10.7 16.7 -10.9 16.5 M-11.75 14.2 L-10.7 14.4 -9.7 14.9 -8.95 15.65 Q-8.65 16.1 -8.65 16.7 -8.6 17.55 -8.95 18.1 -9.25 18.7 -9.8 19.1 L-8.5 21.3 -10.6 22.25 -11.6 19.9 -11.9 19.95 -12.2 20.1 -12.05 21.95 -14.55 22.0 -14.95 14.25 -12.65 14.15 -11.75 14.2 M3.2 16.6 L1.2 16.65 1.6 21.85 -1.1 21.9 -1.15 16.7 -2.95 16.7 -3.0 14.25 3.2 14.15 3.2 16.6 M5.7 17.95 L5.6 16.3 7.95 16.05 8.0 17.9 9.2 17.9 9.1 19.5 8.05 19.55 8.1 21.35 5.95 21.4 5.8 19.75 4.3 19.75 4.25 18.0 5.7 17.95" fill="#dedede" fill-rule="evenodd" stroke="none"/>
  </g>
</svg>
