<?xml version="1.0" encoding="UTF-8" standalone="no"?>
<svg xmlns:ffdec="https://www.free-decompiler.com/flash" xmlns:xlink="http://www.w3.org/1999/xlink" ffdec:objectType="shape" height="38.3px" width="56.1px" xmlns="http://www.w3.org/2000/svg">
  <g transform="matrix(1.0, 0.0, 0.0, 1.0, 22.65, 38.45)">
    <path d="M25.05 -33.05 L27.0 -31.15 Q28.0 -31.0 29.3 -28.95 L30.65 -27.7 33.3 -23.8 33.45 -23.0 33.2 -21.95 33.2 -21.1 Q33.2 -20.7 32.6 -20.3 32.0 -19.8 31.25 -19.8 28.95 -19.8 27.3 -20.35 L27.15 -20.1 27.05 -19.8 27.05 -19.6 26.2 -17.9 24.45 -14.7 22.15 -10.75 20.4 -6.85 19.85 -5.85 19.5 -4.9 Q19.4 -3.6 19.1 -3.15 L18.8 -2.7 Q18.6 -2.45 18.1 -2.45 L17.75 -2.1 17.0 -1.9 Q14.65 -1.0 13.75 -1.0 L13.4 -1.05 Q9.85 -0.15 4.15 -0.15 L-8.15 -0.75 Q-12.45 -1.3 -14.8 -2.25 -15.1 -3.65 -15.75 -4.75 L-15.75 -4.8 -15.85 -5.3 -15.9 -5.95 -15.9 -6.7 -16.45 -10.6 -16.45 -16.25 -16.15 -23.45 -16.0 -25.2 -21.3 -28.85 -20.95 -29.65 -21.05 -29.85 -21.45 -30.0 -21.5 -30.15 -21.7 -30.15 -22.65 -30.3 Q-22.65 -31.35 -21.05 -32.55 L-21.05 -32.7 -20.8 -32.75 Q-19.0 -34.05 -15.55 -35.45 L-9.6 -37.7 -6.75 -37.7 -5.35 -38.15 -2.9 -38.35 -0.65 -38.35 1.45 -38.2 1.6 -38.0 Q2.75 -37.6 2.75 -36.7 L2.55 -35.9 3.6 -28.2 4.4 -19.55 5.8 -22.75 9.35 -30.35 9.35 -30.85 Q9.35 -32.55 10.75 -33.55 10.9 -33.4 11.2 -33.2 L11.45 -33.7 12.05 -34.45 Q12.75 -36.3 13.8 -37.05 L13.85 -37.0 15.2 -37.45 Q17.15 -37.6 19.65 -36.05 21.0 -35.45 23.2 -34.6 L23.8 -34.35 25.05 -33.05 M23.9 -20.95 L24.2 -21.5 24.0 -22.25 24.05 -22.45 24.15 -22.45 24.4 -22.45 24.3 -22.7 25.1 -22.45 26.9 -22.1 28.8 -21.55 29.35 -21.7 29.7 -21.9 29.9 -21.85 30.45 -22.1 30.65 -22.6 Q30.65 -23.25 29.7 -24.75 L28.45 -26.5 26.95 -28.45 Q26.75 -28.75 25.65 -29.3 L25.5 -29.3 24.85 -30.3 20.85 -32.25 18.35 -33.5 15.25 -34.9 14.75 -34.35 14.25 -33.5 Q12.8 -30.9 12.55 -29.9 L11.25 -26.8 10.5 -25.35 10.5 -25.25 8.95 -21.95 Q5.45 -14.7 3.8 -12.35 3.1 -13.2 2.9 -14.0 L2.45 -14.55 Q2.0 -15.3 1.9 -16.4 2.05 -19.2 1.7 -20.5 L1.45 -22.75 1.45 -22.8 1.4 -24.85 1.35 -28.1 1.45 -32.1 1.6 -32.75 1.55 -33.25 1.85 -35.15 1.35 -35.0 Q0.8 -35.15 0.7 -35.5 L-4.25 -34.55 -9.95 -33.8 -11.75 -33.3 -14.05 -32.65 -14.2 -32.6 -14.3 -32.6 -17.85 -31.85 -18.15 -31.25 -15.2 -28.45 Q-14.4 -27.8 -14.35 -26.75 L-13.8 -26.7 -13.8 -26.05 -13.8 -25.55 -13.85 -25.5 -13.95 -25.05 Q-13.8 -24.9 -14.15 -24.85 L-13.85 -22.8 -13.75 -24.75 -13.6 -21.55 -13.2 -14.9 -13.25 -9.05 Q-13.05 -6.6 -12.35 -5.3 L-12.0 -4.75 -12.05 -4.05 -11.15 -3.7 Q-5.4 -2.0 1.05 -2.0 10.05 -2.0 13.9 -3.15 15.3 -3.55 16.2 -4.15 L16.1 -4.15 Q16.55 -4.6 16.8 -5.65 L17.25 -8.4 17.35 -8.65 17.45 -8.95 17.75 -9.8 18.1 -10.9 18.4 -11.75 19.3 -13.55 22.1 -18.3 22.3 -18.85 22.65 -18.8 23.9 -20.95 M15.25 -34.9 L15.1 -35.0 15.05 -34.9 15.25 -34.9" fill="#46320c" fill-rule="evenodd" stroke="none"/>
    <path d="M18.35 -33.5 L18.9 -32.4 Q18.9 -30.75 16.0 -29.3 13.1 -27.85 13.1 -26.85 13.1 -26.2 16.15 -25.25 L19.5 -24.35 Q21.35 -24.0 22.9 -22.35 L23.9 -20.95 22.65 -18.8 22.3 -18.85 22.1 -18.3 18.55 -19.95 Q14.5 -21.9 12.45 -21.9 11.0 -21.9 9.55 -16.3 8.4 -11.75 8.4 -10.45 8.4 -8.75 11.35 -7.9 L13.05 -6.75 14.2 -5.65 14.15 -5.15 14.2 -4.45 Q14.4 -3.8 15.25 -3.8 15.75 -3.8 16.1 -4.15 L16.2 -4.15 Q15.3 -3.55 13.9 -3.15 10.05 -2.0 1.05 -2.0 -5.4 -2.0 -11.15 -3.7 L-12.05 -4.05 -12.0 -4.75 -12.35 -5.3 Q-13.05 -6.6 -13.25 -9.05 L-13.2 -14.9 -13.6 -21.55 -13.75 -24.75 -13.85 -22.8 -14.15 -24.85 Q-13.8 -24.9 -13.95 -25.05 L-13.85 -25.5 -13.8 -25.55 -13.8 -26.05 -13.8 -26.7 -14.35 -26.75 Q-14.4 -27.8 -15.2 -28.45 L-18.15 -31.25 -17.85 -31.85 -14.3 -32.6 -14.2 -32.6 -14.05 -32.65 -11.75 -33.3 Q-12.75 -32.65 -12.75 -31.65 -12.75 -30.7 -11.1 -29.75 -9.45 -28.75 -9.45 -27.15 -9.45 -25.95 -10.05 -24.95 L-10.7 -23.85 Q-10.7 -23.25 -9.95 -23.1 L-8.85 -23.1 -4.75 -23.55 1.4 -24.85 1.45 -22.8 1.45 -22.75 -4.05 -21.55 Q-7.7 -20.7 -7.7 -19.25 -7.7 -17.5 -6.15 -14.25 -4.5 -10.8 -3.3 -10.8 -2.35 -10.8 0.0 -12.55 L2.45 -14.55 2.9 -14.0 Q3.1 -13.2 3.8 -12.35 5.45 -14.7 8.95 -21.95 L10.5 -25.25 10.5 -25.35 11.25 -26.8 12.55 -29.9 Q12.8 -30.9 14.25 -33.5 L14.75 -34.35 15.25 -34.9 18.35 -33.5" fill="#ccbaa1" fill-rule="evenodd" stroke="none"/>
    <path d="M18.35 -33.5 L20.85 -32.25 24.85 -30.3 25.5 -29.3 25.65 -29.3 Q26.75 -28.75 26.95 -28.45 L28.45 -26.5 29.7 -24.75 Q30.65 -23.25 30.65 -22.6 L30.45 -22.1 29.9 -21.85 29.7 -21.9 29.35 -21.7 28.8 -21.55 26.9 -22.1 25.1 -22.45 24.3 -22.7 24.4 -22.45 24.15 -22.45 24.05 -22.45 24.0 -22.25 24.2 -21.5 23.9 -20.95 22.9 -22.35 Q21.35 -24.0 19.5 -24.35 L16.15 -25.25 Q13.1 -26.2 13.1 -26.85 13.1 -27.85 16.0 -29.3 18.9 -30.75 18.9 -32.4 L18.35 -33.5 M22.1 -18.3 L19.3 -13.55 18.4 -11.75 18.1 -10.9 17.75 -9.8 17.45 -8.95 17.35 -8.65 17.25 -8.4 16.8 -5.65 Q16.55 -4.6 16.1 -4.15 15.75 -3.8 15.25 -3.8 14.4 -3.8 14.2 -4.45 L14.15 -5.15 14.2 -5.65 13.05 -6.75 11.35 -7.9 Q8.4 -8.75 8.4 -10.45 8.4 -11.75 9.55 -16.3 11.0 -21.9 12.45 -21.9 14.5 -21.9 18.55 -19.95 L22.1 -18.3 M-11.75 -33.3 L-9.95 -33.8 -4.25 -34.55 0.7 -35.5 Q0.8 -35.15 1.35 -35.0 L1.85 -35.15 1.55 -33.25 1.6 -32.75 1.45 -32.1 1.35 -28.1 1.4 -24.85 -4.75 -23.55 -8.85 -23.1 -9.95 -23.1 Q-10.7 -23.25 -10.7 -23.85 L-10.05 -24.95 Q-9.45 -25.95 -9.45 -27.15 -9.45 -28.75 -11.1 -29.75 -12.75 -30.7 -12.75 -31.65 -12.75 -32.65 -11.75 -33.3 M1.45 -22.75 L1.7 -20.5 Q2.05 -19.2 1.9 -16.4 2.0 -15.3 2.45 -14.55 L0.0 -12.55 Q-2.35 -10.8 -3.3 -10.8 -4.5 -10.8 -6.15 -14.25 -7.7 -17.5 -7.7 -19.25 -7.7 -20.7 -4.05 -21.55 L1.45 -22.75" fill="#f2e5da" fill-rule="evenodd" stroke="none"/>
  </g>
</svg>
