<?xml version="1.0" encoding="UTF-8" standalone="no"?>
<svg xmlns:ffdec="https://www.free-decompiler.com/flash" xmlns:xlink="http://www.w3.org/1999/xlink" ffdec:objectType="shape" height="38.3px" width="56.1px" xmlns="http://www.w3.org/2000/svg">
  <g transform="matrix(1.0, 0.0, 0.0, 1.0, 29.9, 38.45)">
    <path d="M17.5 -24.9 L17.5 -25.05 17.4 -25.5 17.35 -25.55 17.35 -26.05 17.35 -26.7 17.9 -26.75 Q17.95 -27.8 18.75 -28.45 L21.7 -31.25 21.4 -31.85 17.85 -32.6 17.75 -32.6 17.6 -32.65 13.5 -33.8 7.8 -34.55 4.0 -35.2 2.85 -35.5 Q2.75 -35.15 2.2 -35.0 L1.7 -35.15 2.0 -33.25 1.95 -32.75 Q1.95 -32.45 2.1 -32.1 L2.2 -28.1 Q2.2 -21.9 1.85 -20.5 1.5 -19.2 1.65 -16.4 1.5 -14.85 0.65 -14.0 0.45 -13.2 -0.25 -12.35 L-2.3 -15.8 -5.25 -21.65 -5.35 -21.85 -5.4 -21.95 -6.55 -24.4 -6.95 -25.25 -6.95 -25.35 -7.25 -26.0 -7.7 -26.8 -9.0 -29.9 Q-9.25 -30.9 -10.7 -33.5 L-11.2 -34.35 -11.7 -34.9 -17.3 -32.25 -21.3 -30.3 -21.95 -29.3 -22.1 -29.3 -22.2 -29.25 Q-23.2 -28.75 -23.4 -28.45 L-24.9 -26.5 -26.15 -24.75 Q-27.1 -23.25 -27.1 -22.6 L-26.9 -22.1 -26.35 -21.85 -26.15 -21.9 -25.8 -21.7 -25.25 -21.55 -23.35 -22.1 -21.55 -22.45 -20.75 -22.7 -20.85 -22.45 -20.6 -22.45 -20.5 -22.45 -20.45 -22.25 -20.65 -21.5 -19.1 -18.8 -18.75 -18.85 Q-18.2 -17.25 -14.9 -12.25 L-13.25 -9.45 -12.45 -8.85 -12.8 -8.5 Q-12.0 -6.75 -11.85 -5.45 L-11.85 -5.3 -12.35 -5.3 -12.3 -5.2 -12.0 -4.75 -12.05 -4.05 -11.15 -3.7 Q-5.4 -2.0 1.05 -2.0 10.05 -2.0 13.9 -3.15 L14.55 -3.35 16.2 -4.1 16.2 -4.15 15.95 -4.15 Q16.35 -4.35 16.5 -4.9 L16.5 -6.05 16.4 -6.6 16.8 -9.05 16.75 -14.9 17.15 -21.55 17.25 -22.95 17.3 -24.75 17.4 -22.95 17.4 -22.8 17.45 -22.95 17.7 -24.8 17.7 -24.85 17.6 -24.85 17.5 -24.9 M-11.7 -34.9 L-11.5 -34.9 -11.55 -35.0 -11.7 -34.9 M24.6 -32.7 L24.6 -32.55 Q26.2 -31.35 26.2 -30.3 L25.25 -30.15 25.05 -30.15 25.0 -30.0 24.6 -29.85 24.5 -29.65 24.85 -28.85 19.55 -25.2 19.65 -24.05 19.7 -23.45 20.0 -16.25 20.0 -10.6 19.45 -6.7 19.45 -5.95 19.4 -5.2 19.3 -5.2 18.95 -4.95 18.85 -4.65 18.7 -4.35 18.3 -3.5 17.5 -3.15 14.75 -1.5 Q11.0 -0.15 4.15 -0.15 L-8.15 -0.75 Q-12.45 -1.3 -14.8 -2.25 -15.1 -3.65 -15.75 -4.75 L-15.75 -4.8 -15.85 -5.3 -15.8 -5.3 -16.85 -6.85 -18.6 -10.75 -20.9 -14.7 -22.65 -17.9 -23.5 -19.6 -23.5 -19.8 -23.6 -20.1 -23.75 -20.35 Q-25.4 -19.8 -27.7 -19.8 -28.45 -19.8 -29.05 -20.3 -29.65 -20.7 -29.65 -21.1 L-29.65 -21.95 -29.9 -23.0 -29.75 -23.8 -27.1 -27.7 -25.75 -28.95 Q-24.45 -31.0 -23.45 -31.15 L-21.5 -33.05 -20.25 -34.35 -19.65 -34.6 Q-17.45 -35.45 -16.1 -36.05 -13.6 -37.6 -11.65 -37.45 -10.75 -37.35 -10.3 -37.0 L-10.25 -37.05 Q-9.2 -36.3 -8.5 -34.45 L-7.9 -33.7 -7.65 -33.2 -7.2 -33.55 Q-5.8 -32.55 -5.8 -30.85 L-5.8 -30.35 -2.25 -22.75 -0.85 -19.55 Q-0.75 -22.4 -0.05 -28.2 L1.0 -35.9 0.8 -36.7 Q0.8 -37.6 1.95 -38.0 L2.1 -38.2 4.2 -38.35 6.45 -38.35 8.9 -38.15 10.3 -37.7 13.15 -37.7 Q13.65 -37.65 19.1 -35.45 22.55 -34.05 24.35 -32.75 L24.6 -32.7" fill="#46320c" fill-rule="evenodd" stroke="none"/>
    <path d="M17.5 -24.9 L17.6 -24.85 17.7 -24.85 17.7 -24.8 17.45 -22.95 17.4 -22.8 17.4 -22.95 17.3 -24.75 17.25 -22.95 7.35 -23.85 Q5.9 -23.85 4.7 -23.1 3.45 -22.4 3.35 -21.5 L2.9 -17.85 2.6 -14.75 5.05 -13.6 Q7.7 -12.2 8.8 -10.85 L12.95 -6.2 13.25 -5.85 13.25 -5.75 13.65 -4.9 Q14.3 -4.05 15.4 -4.05 L15.95 -4.15 16.2 -4.15 16.2 -4.1 14.55 -3.35 13.9 -3.15 Q10.05 -2.0 1.05 -2.0 -5.4 -2.0 -11.15 -3.7 L-12.05 -4.05 -12.0 -4.75 -12.3 -5.2 -12.35 -5.3 -11.85 -5.3 -11.85 -5.45 Q-12.0 -6.75 -12.8 -8.5 L-12.45 -8.85 -13.25 -9.45 -14.9 -12.25 Q-18.2 -17.25 -18.75 -18.85 L-19.1 -18.8 -20.65 -21.5 -20.45 -22.25 -20.5 -22.45 -20.6 -22.45 -20.85 -22.45 -20.75 -22.7 -21.55 -22.45 -23.35 -22.1 -25.25 -21.55 -25.8 -21.7 -26.15 -21.9 -26.35 -21.85 -26.9 -22.1 -27.1 -22.6 Q-27.1 -23.25 -26.15 -24.75 L-24.9 -26.5 -23.4 -28.45 Q-23.2 -28.75 -22.2 -29.25 L-22.45 -28.05 Q-22.45 -26.3 -21.2 -25.65 -19.2 -24.65 -18.7 -24.05 -18.3 -23.55 -17.6 -21.5 -17.1 -20.05 -16.1 -20.05 -15.35 -20.05 -14.6 -20.85 L-12.2 -23.05 -7.25 -26.0 -6.95 -25.35 -6.95 -25.25 -6.55 -24.4 Q-10.8 -21.25 -12.2 -19.7 -13.85 -17.8 -13.85 -15.6 -13.85 -14.6 -13.3 -12.95 -12.75 -11.4 -12.2 -10.55 L-11.75 -9.55 -9.25 -12.4 Q-5.85 -15.45 -2.3 -15.8 L-0.25 -12.35 Q0.45 -13.2 0.65 -14.0 1.5 -14.85 1.65 -16.4 1.5 -19.2 1.85 -20.5 2.2 -21.9 2.2 -28.1 L2.1 -32.1 Q1.95 -32.45 1.95 -32.75 L2.0 -33.25 1.7 -35.15 2.2 -35.0 Q2.75 -35.15 2.85 -35.5 L4.0 -35.2 3.95 -33.45 3.85 -30.9 Q3.85 -27.15 4.8 -26.05 5.6 -25.1 8.2 -25.1 L10.8 -25.4 14.15 -25.75 16.9 -25.2 17.5 -24.9" fill="#ccbaa1" fill-rule="evenodd" stroke="none"/>
    <path d="M4.0 -35.2 L7.8 -34.55 13.5 -33.8 17.6 -32.65 17.75 -32.6 17.85 -32.6 21.4 -31.85 21.7 -31.25 18.75 -28.45 Q17.95 -27.8 17.9 -26.75 L17.35 -26.7 17.35 -26.05 17.35 -25.55 17.4 -25.5 17.5 -25.05 17.5 -24.9 16.9 -25.2 14.15 -25.75 10.8 -25.4 8.2 -25.1 Q5.6 -25.1 4.8 -26.05 3.85 -27.15 3.85 -30.9 L3.95 -33.45 4.0 -35.2 M17.25 -22.95 L17.15 -21.55 16.75 -14.9 16.8 -9.05 16.4 -6.6 16.5 -6.05 16.5 -4.9 Q16.35 -4.35 15.95 -4.15 L15.4 -4.05 Q14.3 -4.05 13.65 -4.9 L13.25 -5.75 13.25 -5.85 12.95 -6.2 8.8 -10.85 Q7.7 -12.2 5.05 -13.6 L2.6 -14.75 2.9 -17.85 3.35 -21.5 Q3.45 -22.4 4.7 -23.1 5.9 -23.85 7.35 -23.85 L17.25 -22.95 M-22.2 -29.25 L-22.1 -29.3 -21.95 -29.3 -21.3 -30.3 -17.3 -32.25 -11.7 -34.9 -11.2 -34.35 -10.7 -33.5 Q-9.25 -30.9 -9.0 -29.9 L-7.7 -26.8 -7.25 -26.0 -12.2 -23.05 -14.6 -20.85 Q-15.35 -20.05 -16.1 -20.05 -17.1 -20.05 -17.6 -21.5 -18.3 -23.55 -18.7 -24.05 -19.2 -24.65 -21.2 -25.65 -22.45 -26.3 -22.45 -28.05 L-22.2 -29.25 M-6.55 -24.4 L-5.4 -21.95 -5.35 -21.85 -5.25 -21.65 -2.3 -15.8 Q-5.85 -15.45 -9.25 -12.4 L-11.75 -9.55 -12.2 -10.55 Q-12.75 -11.4 -13.3 -12.95 -13.85 -14.6 -13.85 -15.6 -13.85 -17.8 -12.2 -19.7 -10.8 -21.25 -6.55 -24.4" fill="#f2e5da" fill-rule="evenodd" stroke="none"/>
  </g>
</svg>
