<?xml version="1.0" encoding="UTF-8" standalone="no"?>
<svg xmlns:ffdec="https://www.free-decompiler.com/flash" xmlns:xlink="http://www.w3.org/1999/xlink" ffdec:objectType="shape" height="77.0px" width="102.0px" xmlns="http://www.w3.org/2000/svg">
  <g transform="matrix(1.0, 0.0, 0.0, 1.0, 53.5, 48.0)">
    <path d="M-43.15 4.15 L-43.2 4.05 -43.0 3.35 -42.65 3.2 -41.1 3.2 Q-40.8 3.35 -40.85 3.55 L-40.9 3.95 -41.6 4.35 -42.9 4.25 -43.15 4.15 M-14.6 15.25 L-15.95 16.05 -16.7 15.6 -16.6 14.25 -14.15 14.1 -14.6 15.25 M-20.0 7.75 L-19.5 8.65 Q-20.15 9.15 -20.75 9.45 -23.75 10.95 -26.75 12.55 L-27.4 13.05 -29.3 14.9 Q-30.45 15.9 -31.95 16.3 -34.8 17.0 -37.0 15.7 -38.55 14.75 -39.2 13.35 L-39.85 12.05 Q-39.4 9.6 -36.0 8.65 -31.5 7.35 -26.65 7.25 L-21.45 7.55 -20.0 7.75 M-22.25 -29.65 Q-21.8 -29.4 -21.8 -28.95 -21.8 -28.55 -22.25 -28.25 -22.75 -27.95 -23.4 -27.95 L-24.5 -28.25 Q-25.0 -28.55 -25.0 -28.95 -25.0 -29.4 -24.5 -29.65 L-23.4 -29.95 -22.25 -29.65 M-36.1 -40.8 L-35.75 -41.45 -34.1 -41.35 Q-32.65 -40.75 -33.6 -39.75 L-35.3 -39.75 -36.1 -40.8 M-38.6 -48.0 L-37.95 -47.85 -37.7 -47.4 -37.95 -47.0 -38.6 -46.8 -39.2 -47.0 -39.5 -47.4 -39.2 -47.85 -38.6 -48.0 M-51.45 -6.3 Q-51.9 -6.55 -51.9 -6.95 L-51.45 -7.55 -50.4 -7.85 -49.35 -7.55 Q-48.9 -7.3 -48.9 -6.95 -48.9 -6.55 -49.35 -6.3 L-50.4 -6.05 -51.45 -6.3 M-40.85 -16.25 L-41.1 -16.95 Q-41.15 -17.75 -40.1 -18.1 L-34.35 -18.4 Q-32.95 -18.1 -32.7 -17.15 -32.45 -16.2 -33.25 -15.55 -33.6 -15.3 -34.05 -15.15 -37.35 -14.4 -40.2 -15.65 L-40.85 -16.25 M-50.1 -21.35 Q-50.1 -20.85 -50.6 -20.5 -51.1 -20.15 -51.8 -20.15 -52.5 -20.15 -53.0 -20.5 -53.5 -20.85 -53.5 -21.35 L-53.0 -22.15 -51.8 -22.5 -50.6 -22.15 Q-50.1 -21.8 -50.1 -21.35 M47.75 21.55 L47.5 22.45 Q47.05 23.2 45.9 23.4 40.85 24.05 35.65 23.55 33.55 23.4 31.75 22.5 29.3 21.15 27.1 19.6 L25.7 18.05 Q25.15 17.05 23.65 16.6 L22.4 16.25 Q21.45 15.95 21.7 15.3 L21.95 15.1 Q22.55 14.8 23.3 14.65 L25.7 14.3 34.75 15.0 40.5 16.25 Q43.7 17.1 46.0 18.65 47.75 19.85 47.75 21.55 M45.25 4.95 L43.6 5.05 43.35 4.7 42.0 4.95 40.35 5.15 Q37.95 5.3 36.2 4.3 L35.9 3.8 Q35.4 2.75 36.45 1.9 38.75 0.2 42.25 0.45 L43.55 0.85 44.3 1.55 Q45.05 2.65 44.35 3.9 L45.2 4.0 45.25 4.95 M30.9 -14.85 Q32.55 -16.15 34.45 -17.15 39.9 -20.2 46.6 -21.15 L48.45 -20.0 48.4 -18.1 Q48.1 -16.45 46.2 -15.4 L44.15 -14.2 Q42.25 -13.0 39.85 -12.5 L35.35 -11.75 29.95 -11.05 Q28.85 -10.95 28.45 -11.55 28.35 -12.75 29.4 -13.65 L30.9 -14.85 M5.55 -10.8 L7.1 -10.95 Q12.05 -11.25 16.95 -10.75 21.05 -10.45 24.65 -9.05 26.5 -8.3 27.7 -6.95 30.2 -4.0 30.0 -0.65 30.0 1.5 29.0 3.4 27.6 6.15 24.65 8.05 22.5 9.4 20.0 10.6 19.05 11.15 18.2 11.75 17.25 12.4 16.65 13.2 16.15 13.85 16.25 14.55 16.35 15.7 17.05 16.85 17.55 17.8 17.05 18.75 16.0 20.55 13.35 21.65 L14.05 22.45 Q14.7 23.2 14.5 24.05 14.15 25.25 13.0 26.15 11.55 27.25 9.5 27.85 L4.05 28.85 Q0.05 29.2 -3.75 28.7 L-7.3 27.8 -9.05 26.85 -10.4 25.6 -10.9 24.4 -10.7 23.6 Q-9.0 20.65 -4.6 19.3 L-0.3 18.15 -2.25 17.6 -2.3 16.8 -6.25 16.8 Q-8.1 16.7 -9.15 15.75 L-9.6 15.2 Q-10.5 13.4 -9.3 11.85 L-9.0 11.25 Q-8.5 10.0 -8.7 8.65 -8.85 7.55 -9.6 6.45 -11.4 3.9 -15.35 3.1 -20.75 2.0 -26.25 1.45 L-29.25 0.8 Q-30.2 0.5 -30.75 -0.15 -31.7 -1.3 -30.9 -2.45 -29.7 -4.25 -27.3 -5.4 -24.3 -6.8 -21.6 -8.25 -21.2 -8.45 -20.95 -8.8 L-21.95 -10.65 -22.4 -11.85 Q-22.6 -13.2 -22.45 -14.55 -22.1 -17.5 -18.85 -19.5 -16.8 -20.75 -14.25 -21.35 L-9.8 -21.9 -7.1 -21.35 -4.45 -20.55 Q-1.2 -19.45 -0.3 -16.95 1.1 -13.1 5.55 -10.8 M2.35 -5.4 Q0.6 -4.85 0.35 -4.5 0.85 -3.75 1.85 -3.1 2.9 -2.5 3.8 -2.5 L8.2 -3.1 13.15 -3.7 17.25 -3.25 21.3 -2.8 Q22.2 -2.8 22.95 -3.2 23.85 -3.75 23.85 -4.55 23.85 -8.1 17.35 -8.1 15.5 -8.1 11.7 -6.95 L7.2 -5.75 6.65 -5.85 4.7 -6.0 2.35 -5.4 M16.2 -15.8 L16.15 -15.2 14.65 -14.35 13.45 -14.65 13.35 -15.4 Q13.25 -16.0 14.2 -16.3 15.5 -16.6 16.2 -15.8 M25.3 -27.6 Q27.75 -27.65 29.3 -26.2 30.2 -25.4 29.95 -24.35 29.45 -22.35 26.5 -22.45 L25.3 -22.6 Q24.3 -22.8 23.5 -23.2 22.85 -23.6 22.6 -24.15 22.35 -24.85 22.4 -25.5 22.55 -27.4 25.3 -27.6" fill="#cb1024" fill-rule="evenodd" stroke="none"/>
  </g>
</svg>
