<?xml version="1.0" encoding="UTF-8" standalone="no"?>
<svg xmlns:ffdec="https://www.free-decompiler.com/flash" xmlns:xlink="http://www.w3.org/1999/xlink" ffdec:objectType="shape" height="17.15px" width="5.8px" xmlns="http://www.w3.org/2000/svg">
  <g transform="matrix(1.0, 0.0, 0.0, 1.0, 2.8, 16.65)">
    <path d="M0.7 -4.35 Q1.65 -2.0 0.45 -0.25 L0.3 -0.25 -0.2 -0.25 -0.25 -0.3 -0.5 -0.45 Q-1.3 -2.7 0.4 -4.45 L0.6 -4.35 0.7 -4.35" fill="#ffffe0" fill-rule="evenodd" stroke="none"/>
    <path d="M1.75 -14.35 L1.35 -13.05 Q1.1 -12.7 0.9 -13.15 L0.6 -13.8 Q-0.25 -12.75 -1.65 -12.4 L-1.85 -12.35 -2.25 -12.7 Q-2.8 -13.05 -2.8 -13.9 L-2.75 -14.55 -2.7 -14.75 -2.7 -14.8 -2.65 -14.8 -2.6 -14.85 -2.45 -14.85 -2.35 -14.7 -2.35 -14.6 -2.35 -14.4 -2.1 -14.0 -1.6 -14.4 -1.35 -14.85 -1.35 -15.4 -1.15 -16.15 Q-0.8 -16.65 0.05 -16.65 1.55 -16.65 1.8 -14.75 L1.75 -14.35 M0.45 -7.8 Q4.95 -4.65 1.5 -0.4 0.9 0.4 0.0 0.4 L-0.1 0.45 -0.45 0.5 -0.5 0.5 -0.55 0.5 Q-1.75 0.35 -2.3 -0.85 L-2.5 -1.8 -2.55 -2.6 -2.25 -4.65 -1.75 -5.55 -1.2 -6.2 -1.05 -6.45 -1.05 -6.8 -1.8 -8.25 Q-2.25 -9.3 -1.5 -10.15 -0.6 -11.1 0.65 -11.65 L0.8 -11.7 2.0 -11.85 Q1.1 -10.5 0.15 -8.55 0.0 -8.15 0.45 -7.8 M0.7 -4.35 L0.6 -4.35 0.4 -4.45 Q-1.3 -2.7 -0.5 -0.45 L-0.25 -0.3 -0.2 -0.25 0.3 -0.25 0.45 -0.25 Q1.65 -2.0 0.7 -4.35" fill="#ffcc00" fill-rule="evenodd" stroke="none"/>
  </g>
</svg>
