<?xml version="1.0" encoding="UTF-8" standalone="no"?>
<svg xmlns:ffdec="https://www.free-decompiler.com/flash" xmlns:xlink="http://www.w3.org/1999/xlink" ffdec:objectType="shape" height="36.05px" width="26.45px" xmlns="http://www.w3.org/2000/svg">
  <g transform="matrix(1.0, 0.0, 0.0, 1.0, 15.4, 17.9)">
    <path d="M7.75 -2.8 L7.05 -0.25 5.95 2.0 4.35 3.3 Q3.9 3.6 3.7 3.85 L3.25 4.15 Q1.05 5.65 -2.55 5.65 -8.25 5.65 -11.4 0.95 -13.55 -2.35 -13.55 -4.95 -13.55 -8.15 -12.8 -9.8 -12.2 -11.3 -10.6 -12.9 L-9.3 -13.85 -7.75 -14.85 -5.95 -15.55 -2.35 -16.05 Q4.25 -16.05 6.65 -11.0 7.85 -8.5 7.85 -4.75 L7.75 -2.8" fill="url(#gradient0)" fill-rule="evenodd" stroke="none"/>
    <path d="M7.3 15.6 L7.5 16.0 6.75 16.9 6.75 16.95 5.8 18.15 2.65 11.2 2.15 10.3 1.85 10.3 Q-0.2 10.3 -1.9 9.05 L-3.15 7.75 Q-7.05 7.55 -10.35 5.05 L-13.45 1.85 Q-15.4 -0.75 -15.4 -5.2 L-15.25 -7.35 -14.95 -9.45 -14.25 -11.5 -13.85 -12.15 Q-13.3 -13.5 -11.0 -15.2 -7.25 -17.9 -2.05 -17.9 5.4 -17.9 8.35 -12.45 9.95 -9.6 9.95 -6.0 L9.5 -1.9 Q9.2 0.25 8.75 1.25 L9.4 2.5 9.65 4.15 Q9.65 5.25 8.65 6.85 L8.2 7.5 8.3 7.65 8.6 8.15 9.4 9.6 11.05 12.55 9.55 13.9 9.25 13.4 8.65 12.35 8.65 12.25 8.05 11.0 7.4 9.95 6.9 8.85 6.35 8.35 6.25 8.2 6.2 8.25 5.8 8.45 5.6 8.55 5.25 8.75 5.1 8.8 4.1 9.15 7.0 15.05 7.3 15.6 M7.75 -2.8 L7.85 -4.75 Q7.85 -8.5 6.65 -11.0 4.25 -16.05 -2.35 -16.05 L-5.95 -15.55 -7.75 -14.85 -9.3 -13.85 -10.6 -12.9 Q-12.2 -11.3 -12.8 -9.8 -13.55 -8.15 -13.55 -4.95 -13.55 -2.35 -11.4 0.95 -8.25 5.65 -2.55 5.65 1.05 5.65 3.25 4.15 L3.7 3.85 Q3.9 3.6 4.35 3.3 L5.95 2.0 7.05 -0.25 7.75 -2.8 M2.25 6.25 L-1.1 7.0 -0.6 7.6 Q0.05 8.25 1.15 8.25 2.35 8.25 4.1 7.5 L4.8 7.2 6.1 6.55 6.2 6.5 7.3 5.15 7.35 5.05 Q7.95 4.9 7.95 3.9 7.75 2.85 7.25 2.8 L7.1 2.7 7.0 2.85 Q6.25 2.9 6.15 3.8 5.65 4.8 3.35 5.8 L2.25 6.25" fill="#000000" fill-rule="evenodd" stroke="none"/>
    <path d="M9.25 13.4 L8.3 14.5 7.45 13.45 Q6.15 11.5 5.1 8.8 L5.25 8.75 5.6 8.55 5.8 8.45 Q5.8 8.85 6.3 9.6 L6.95 10.8 7.6 12.1 Q8.1 13.1 8.35 13.1 L8.6 12.8 8.65 12.35 9.25 13.4 M4.8 7.2 Q3.75 7.1 2.9 6.65 L2.25 6.25 3.35 5.8 Q5.65 4.8 6.15 3.8 L6.1 4.2 Q6.1 4.55 6.4 4.8 L7.15 5.05 7.35 5.05 7.3 5.15 6.2 6.5 6.1 6.55 4.8 7.2 M7.0 2.85 L7.1 2.7 7.25 2.8 7.2 2.8 7.0 2.85" fill="#fae414" fill-rule="evenodd" stroke="none"/>
    <path d="M5.8 8.45 L6.2 8.25 6.35 8.35 6.9 8.85 7.4 9.95 8.05 11.0 8.65 12.25 8.65 12.35 8.6 12.8 8.35 13.1 Q8.1 13.1 7.6 12.1 L6.95 10.8 6.3 9.6 Q5.8 8.85 5.8 8.45 M6.15 3.8 Q6.25 2.9 7.0 2.85 L7.2 2.8 7.25 2.8 Q7.75 2.85 7.95 3.9 7.95 4.9 7.35 5.05 L7.15 5.05 6.4 4.8 Q6.1 4.55 6.1 4.2 L6.15 3.8" fill="#ffffff" fill-rule="evenodd" stroke="none"/>
    <path d="M8.3 14.5 L7.3 15.6 7.0 15.05 4.1 9.15 5.1 8.8 Q6.15 11.5 7.45 13.45 L8.3 14.5 M6.2 8.25 L6.25 8.2 6.35 8.35 6.2 8.25 M4.8 7.2 L4.1 7.5 Q2.35 8.25 1.15 8.25 0.05 8.25 -0.6 7.6 L-1.1 7.0 2.25 6.25 2.9 6.65 Q3.75 7.1 4.8 7.2" fill="#d36f00" fill-rule="evenodd" stroke="none"/>
    <path d="M7.05 -0.25 L5.95 2.0 4.35 3.3 Q3.9 3.6 3.7 3.85 L3.25 4.15 Q1.05 5.65 -2.55 5.65 -8.25 5.65 -11.4 0.95 -13.55 -2.35 -13.55 -4.95 L-13.5 -5.95 Q-12.9 -3.75 -10.75 -1.35 -7.05 2.7 -2.15 2.7 1.2 2.7 4.2 1.0 5.75 0.1 7.4 -1.35 L7.05 -0.25" fill="#000000" fill-opacity="0.11764706" fill-rule="evenodd" stroke="none"/>
  </g>
  <defs>
    <radialGradient cx="0" cy="0" gradientTransform="matrix(0.0201, 0.0, 0.0, 0.0201, -3.95, -10.5)" gradientUnits="userSpaceOnUse" id="gradient0" r="819.2" spreadMethod="pad">
      <stop offset="0.0" stop-color="#0000ff"/>
      <stop offset="1.0" stop-color="#520b64"/>
    </radialGradient>
  </defs>
</svg>
