<?xml version="1.0" encoding="UTF-8" standalone="no"?>
<svg xmlns:ffdec="https://www.free-decompiler.com/flash" xmlns:xlink="http://www.w3.org/1999/xlink" ffdec:objectType="shape" height="164.95px" width="163.0px" xmlns="http://www.w3.org/2000/svg">
  <g transform="matrix(1.0, 0.0, 0.0, 1.0, 81.05, 84.75)">
    <path d="M40.55 -69.25 L41.2 -68.8 Q42.35 -71.95 48.55 -68.7 51.4 -67.2 53.75 -65.1 56.1 -62.95 56.1 -61.8 56.1 -60.85 55.3 -59.8 54.45 -58.75 53.2 -58.45 L53.45 -57.9 53.4 -57.7 Q45.55 -59.05 42.85 -64.7 L41.25 -66.5 Q39.9 -66.4 38.5 -67.85 L38.45 -68.05 Q38.5 -68.7 39.15 -68.95 L40.55 -69.25 M54.9 -54.65 Q54.9 -65.75 66.7 -48.6 66.7 -47.5 66.15 -46.3 65.2 -44.3 63.2 -44.3 60.15 -44.3 57.2 -49.5 L56.15 -51.55 54.9 -54.65 M31.6 -76.85 Q38.35 -76.3 38.35 -72.3 38.35 -71.4 37.65 -70.35 36.65 -68.95 34.85 -68.95 29.45 -68.95 26.85 -70.6 24.8 -71.9 24.8 -73.7 24.8 -75.4 26.9 -76.3 28.85 -77.05 31.6 -76.85 M8.9 -79.35 Q10.85 -78.35 12.5 -76.65 L12.5 -76.45 Q-2.2 -76.65 -17.25 -73.6 -16.9 -72.8 -16.7 -71.8 L-14.1 -61.3 -10.95 -51.05 Q-8.85 -44.45 -7.9 -40.7 L-2.6 -17.65 Q1.05 -1.15 1.05 0.45 L0.75 2.55 4.05 6.4 Q9.05 12.65 21.35 30.15 L33.45 45.55 Q40.6 55.0 43.15 59.8 L49.2 55.75 Q55.35 50.05 60.4 43.2 65.2 36.8 70.2 30.95 L72.15 27.1 Q74.1 23.1 76.95 23.2 79.65 23.3 79.65 26.2 79.65 30.9 72.1 41.85 65.45 51.45 60.8 55.65 55.55 60.45 42.25 68.5 22.9 80.2 12.2 80.2 9.25 80.2 7.7 79.2 L1.8 79.4 Q3.75 77.55 6.05 76.1 6.15 73.75 9.25 73.5 L11.75 73.3 Q15.35 71.9 19.55 71.25 L21.45 70.9 Q31.0 67.45 33.85 65.7 L36.9 63.8 Q30.4 57.0 16.05 36.5 0.0 13.6 -3.65 7.65 L-6.75 10.55 -12.45 15.15 -13.55 16.75 Q-25.85 34.9 -38.75 51.95 L-38.85 52.1 Q-41.15 57.55 -44.4 59.3 L-45.75 61.0 -45.4 61.55 -39.35 64.9 Q-32.7 68.05 -39.25 68.05 L-43.35 67.6 -43.6 67.95 Q-44.35 68.95 -45.7 68.95 -51.5 68.95 -61.35 55.05 -70.0 42.9 -73.65 33.0 -79.15 18.25 -80.1 13.5 -81.05 8.85 -81.05 -3.25 -81.05 -44.75 -50.2 -67.05 -37.8 -76.0 -21.8 -80.65 -7.7 -84.75 6.3 -84.75 10.2 -84.75 10.2 -81.8 10.2 -80.3 8.5 -79.35 L8.9 -79.35 M76.15 -28.35 L77.6 -21.75 78.9 -14.9 Q80.1 -9.25 80.95 -2.05 81.95 6.0 81.95 11.35 L81.9 15.1 Q81.3 18.05 78.45 18.05 L78.15 19.5 Q78.0 20.25 77.35 19.8 L77.3 17.65 Q75.15 16.0 74.4 7.9 73.85 -4.15 73.1 -8.0 72.05 -13.6 68.65 -24.3 L65.6 -34.35 Q65.6 -36.35 67.5 -37.25 69.85 -38.3 72.9 -34.85 74.8 -32.65 76.15 -28.35 M67.65 -39.2 L67.7 -39.2 Q68.05 -37.75 67.65 -39.2 M-35.15 -67.5 Q-42.55 -63.7 -48.3 -59.45 -48.85 -56.85 -52.95 -53.65 -60.85 -47.55 -65.5 -38.9 -74.05 -21.8 -74.05 -3.2 -74.05 15.2 -64.8 33.25 -60.9 30.2 -52.9 25.15 L-34.5 13.95 Q-21.25 5.0 -14.15 0.55 L-7.55 -3.25 -10.5 -10.85 -18.35 -33.95 -25.5 -53.9 Q-29.45 -65.2 -30.65 -69.7 L-35.15 -67.5 M-45.45 35.25 L-36.0 27.4 Q-40.6 30.6 -44.65 34.45 L-45.45 35.25 M-46.2 59.95 L-46.5 60.0 -46.35 60.2 -46.2 59.95" fill="#ffffff" fill-rule="evenodd" stroke="none"/>
  </g>
</svg>
