<?xml version="1.0" encoding="UTF-8" standalone="no"?>
<svg xmlns:ffdec="https://www.free-decompiler.com/flash" xmlns:xlink="http://www.w3.org/1999/xlink" ffdec:objectType="shape" height="336.55px" width="118.75px" xmlns="http://www.w3.org/2000/svg">
  <g transform="matrix(1.0, 0.0, 0.0, 1.0, 57.35, 326.4)">
    <path d="M-57.35 0.25 L-57.1 0.3 -57.35 0.3 -57.35 0.25" fill="url(#gradient0)" fill-rule="evenodd" stroke="none"/>
    <path d="M-57.35 0.25 Q-51.25 -34.9 -41.3 -73.15 -15.2 -173.75 -42.7 -285.95 -47.65 -306.2 -50.8 -326.4 L39.2 -326.4 Q42.35 -306.2 47.3 -285.95 74.8 -173.75 48.7 -73.15 38.75 -34.85 32.65 0.3 L32.45 0.3 Q31.75 4.25 19.3 7.1 6.2 10.15 -12.4 10.15 -30.9 10.15 -44.05 7.1 -56.45 4.25 -57.1 0.3 L-57.35 0.25" fill="url(#gradient1)" fill-rule="evenodd" stroke="none"/>
  </g>
  <defs>
    <linearGradient gradientTransform="matrix(0.0, 0.1994, -0.0723, 0.0, 3.15, -163.05)" gradientUnits="userSpaceOnUse" id="gradient0" spreadMethod="pad" x1="-819.2" x2="819.2">
      <stop offset="0.0" stop-color="#ffffff" stop-opacity="0.0"/>
      <stop offset="1.0" stop-color="#000000" stop-opacity="0.4627451"/>
    </linearGradient>
    <linearGradient gradientTransform="matrix(0.0, 0.1994, -0.0723, 0.0, 3.15, -163.05)" gradientUnits="userSpaceOnUse" id="gradient1" spreadMethod="pad" x1="-819.2" x2="819.2">
      <stop offset="0.0" stop-color="#ffffff" stop-opacity="0.0"/>
      <stop offset="1.0" stop-color="#5af339" stop-opacity="0.67058825"/>
    </linearGradient>
  </defs>
</svg>
