<?xml version="1.0" encoding="UTF-8" standalone="no"?>
<svg xmlns:ffdec="https://www.free-decompiler.com/flash" xmlns:xlink="http://www.w3.org/1999/xlink" ffdec:objectType="shape" height="336.55px" width="118.75px" xmlns="http://www.w3.org/2000/svg">
  <g transform="matrix(1.0, 0.0, 0.0, 1.0, 57.35, 326.4)">
    <path d="M-57.1 0.3 L-57.35 0.3 -57.3 0.2 -57.1 0.3" fill="url(#gradient0)" fill-rule="evenodd" stroke="none"/>
    <path d="M-57.3 0.2 L-57.15 -0.1 -56.0 -2.55 Q-46.75 -22.6 -41.3 -43.6 -15.2 -144.2 -42.7 -256.4 -51.3 -291.4 -54.35 -326.4 L35.65 -326.4 Q38.7 -291.4 47.3 -256.4 74.8 -144.2 48.7 -43.6 42.85 -21.1 32.45 0.3 L32.4 0.3 32.45 0.3 Q31.75 4.25 19.3 7.1 6.2 10.15 -12.4 10.15 -30.9 10.15 -44.05 7.1 -56.45 4.25 -57.1 0.3 L-57.3 0.2" fill="url(#gradient1)" fill-rule="evenodd" stroke="none"/>
  </g>
  <defs>
    <linearGradient gradientTransform="matrix(0.0, 0.1994, -0.0723, 0.0, 3.15, -163.05)" gradientUnits="userSpaceOnUse" id="gradient0" spreadMethod="pad" x1="-819.2" x2="819.2">
      <stop offset="0.0" stop-color="#ffffff" stop-opacity="0.0"/>
      <stop offset="1.0" stop-color="#000000" stop-opacity="0.4627451"/>
    </linearGradient>
    <linearGradient gradientTransform="matrix(0.0, 0.1994, -0.0723, 0.0, 3.15, -163.05)" gradientUnits="userSpaceOnUse" id="gradient1" spreadMethod="pad" x1="-819.2" x2="819.2">
      <stop offset="0.0" stop-color="#ffffff" stop-opacity="0.0"/>
      <stop offset="1.0" stop-color="#5af339" stop-opacity="0.67058825"/>
    </linearGradient>
  </defs>
</svg>
