<?xml version="1.0" encoding="UTF-8" standalone="no"?>
<svg xmlns:ffdec="https://www.free-decompiler.com/flash" xmlns:xlink="http://www.w3.org/1999/xlink" ffdec:objectType="shape" height="336.55px" width="120.1px" xmlns="http://www.w3.org/2000/svg">
  <g transform="matrix(1.0, 0.0, 0.0, 1.0, 57.2, 326.4)">
    <path d="M-57.1 0.3 L-57.2 0.3 -57.15 0.3 -57.1 0.3" fill="url(#gradient0)" fill-rule="evenodd" stroke="none"/>
    <path d="M-57.15 0.3 L-57.1 0.25 -57.15 -0.15 Q-57.15 -3.25 -50.25 -5.65 -49.15 -7.2 -48.35 -9.0 -47.55 -10.75 -45.6 -18.35 -31.95 -71.0 -30.75 -119.7 -29.45 -172.8 -42.7 -226.85 -54.9 -276.65 -56.0 -326.4 L34.0 -326.4 Q35.1 -276.65 53.05 -195.95 71.0 -115.3 56.3 -61.45 41.6 -7.65 32.65 0.3 L32.45 0.3 Q31.75 4.25 19.3 7.1 6.2 10.15 -12.4 10.15 -30.9 10.15 -44.05 7.1 -56.45 4.25 -57.1 0.3 L-57.15 0.3" fill="url(#gradient1)" fill-rule="evenodd" stroke="none"/>
  </g>
  <defs>
    <linearGradient gradientTransform="matrix(0.0, 0.1994, -0.0723, 0.0, 3.15, -163.05)" gradientUnits="userSpaceOnUse" id="gradient0" spreadMethod="pad" x1="-819.2" x2="819.2">
      <stop offset="0.0" stop-color="#ffffff" stop-opacity="0.0"/>
      <stop offset="1.0" stop-color="#000000" stop-opacity="0.4627451"/>
    </linearGradient>
    <linearGradient gradientTransform="matrix(0.0, 0.1994, -0.0723, 0.0, 3.15, -163.05)" gradientUnits="userSpaceOnUse" id="gradient1" spreadMethod="pad" x1="-819.2" x2="819.2">
      <stop offset="0.0" stop-color="#ffffff" stop-opacity="0.0"/>
      <stop offset="1.0" stop-color="#5af339" stop-opacity="0.67058825"/>
    </linearGradient>
  </defs>
</svg>
