<?xml version="1.0" encoding="UTF-8" standalone="no"?>
<svg xmlns:ffdec="https://www.free-decompiler.com/flash" xmlns:xlink="http://www.w3.org/1999/xlink" ffdec:objectType="shape" height="336.55px" width="124.5px" xmlns="http://www.w3.org/2000/svg">
  <g transform="matrix(1.0, 0.0, 0.0, 1.0, 62.2, 326.4)">
    <path d="M-57.1 0.3 L-57.35 0.3 -57.1 0.25 -57.1 0.3" fill="url(#gradient0)" fill-rule="evenodd" stroke="none"/>
    <path d="M-57.1 0.25 L-57.15 -0.15 Q-57.15 -2.2 -54.0 -4.0 -55.8 -11.6 -58.75 -31.75 -64.4 -69.95 -60.85 -118.35 -57.35 -166.8 -41.2 -229.1 -28.75 -277.0 -27.7 -326.4 L62.3 -326.4 Q61.25 -277.0 38.8 -197.65 16.3 -118.35 29.95 -61.0 43.55 -3.7 32.65 0.3 L32.45 0.3 Q31.75 4.25 19.3 7.1 6.2 10.15 -12.4 10.15 -30.9 10.15 -44.05 7.1 -56.45 4.25 -57.1 0.3 L-57.1 0.25" fill="url(#gradient1)" fill-rule="evenodd" stroke="none"/>
  </g>
  <defs>
    <linearGradient gradientTransform="matrix(0.0, 0.1994, -0.0723, 0.0, 3.15, -163.05)" gradientUnits="userSpaceOnUse" id="gradient0" spreadMethod="pad" x1="-819.2" x2="819.2">
      <stop offset="0.0" stop-color="#ffffff" stop-opacity="0.0"/>
      <stop offset="1.0" stop-color="#000000" stop-opacity="0.4627451"/>
      <stop offset="1.0" stop-color="#070707" stop-opacity="0.7411765"/>
    </linearGradient>
    <linearGradient gradientTransform="matrix(0.0, 0.1994, -0.0723, 0.0, 3.15, -163.05)" gradientUnits="userSpaceOnUse" id="gradient1" spreadMethod="pad" x1="-819.2" x2="819.2">
      <stop offset="0.0" stop-color="#ffffff" stop-opacity="0.0"/>
      <stop offset="1.0" stop-color="#5af339" stop-opacity="0.67058825"/>
    </linearGradient>
  </defs>
</svg>
