<?xml version="1.0" encoding="UTF-8" standalone="no"?>
<svg xmlns:ffdec="https://www.free-decompiler.com/flash" xmlns:xlink="http://www.w3.org/1999/xlink" ffdec:objectType="shape" height="46.4px" width="46.05px" xmlns="http://www.w3.org/2000/svg">
  <g transform="matrix(1.0, 0.0, 0.0, 1.0, 22.95, 23.3)">
    <path d="M5.8 -17.15 L6.2 -17.15 10.15 -13.15 -6.25 -13.25 -6.25 -11.25 -12.15 -11.35 -8.75 -14.7 1.3 -14.7 1.2 -17.0 5.8 -17.15 M-21.0 -2.35 L-18.1 -5.65 -1.6 -5.85 -1.6 -2.15 -21.0 -2.35" fill="#9aebfe" fill-rule="evenodd" stroke="none"/>
    <path d="M10.15 -13.15 L13.1 -10.15 -6.25 -9.15 -6.25 -11.25 -6.25 -13.25 10.15 -13.15 M22.05 -1.05 L23.1 0.0 16.4 6.7 -10.2 6.55 -16.3 6.5 -18.3 4.5 -1.55 4.2 -1.6 1.2 -21.45 1.3 -22.95 -0.2 -21.0 -2.35 -1.6 -2.15 -1.6 -0.8 22.05 -1.05 M10.5 12.6 L6.5 16.65 -5.95 16.95 -9.25 13.65 4.75 13.45 4.7 12.4 10.5 12.6 M-8.75 -14.7 L-6.15 -17.1 -6.05 -17.1 -0.8 -17.0 1.2 -17.0 1.3 -14.7 -8.75 -14.7" fill="#81e6fe" fill-rule="evenodd" stroke="none"/>
    <path d="M2.05 -21.35 L6.1 -17.2 5.8 -17.15 1.2 -17.0 -0.8 -17.0 -0.8 -21.1 2.05 -21.35 M20.2 -2.95 L22.05 -1.05 -1.6 -0.8 -1.6 -2.15 -1.6 -5.85 1.75 -5.9 1.9 -2.85 20.2 -2.95 M16.4 6.7 L11.9 11.2 -10.15 11.05 -10.2 6.55 16.4 6.7 M6.5 16.65 L2.6 20.5 -2.4 20.5 -5.95 16.95 6.5 16.65" fill="#e6fbff" fill-rule="evenodd" stroke="none"/>
    <path d="M-2.05 -21.05 L0.1 -23.3 2.05 -21.35 -0.8 -21.1 -2.05 -21.05" fill="#c4f3ff" fill-rule="evenodd" stroke="none"/>
    <path d="M13.1 -10.15 L20.2 -2.95 1.9 -2.85 1.75 -5.9 -1.6 -5.85 -18.1 -5.65 -12.15 -11.35 -6.25 -11.25 -6.25 -9.15 13.1 -10.15 M11.9 11.2 L10.5 12.6 4.7 12.4 4.75 13.45 -9.25 13.65 -16.3 6.5 -10.2 6.55 -10.15 11.05 11.9 11.2 M2.6 20.5 L0.05 23.1 -2.4 20.5 2.6 20.5 M-18.3 4.5 L-21.45 1.3 -1.6 1.2 -1.55 4.2 -18.3 4.5 M-6.05 -17.1 L-6.05 -17.15 -2.05 -21.05 -0.8 -21.1 -0.8 -17.0 -6.05 -17.1" fill="#56ddfe" fill-rule="evenodd" stroke="none"/>
  </g>
</svg>
