<?xml version="1.0" encoding="UTF-8" standalone="no"?>
<svg xmlns:ffdec="https://www.free-decompiler.com/flash" xmlns:xlink="http://www.w3.org/1999/xlink" ffdec:objectType="shape" height="17.45px" width="23.1px" xmlns="http://www.w3.org/2000/svg">
  <g transform="matrix(1.0, 0.0, 0.0, 1.0, 11.55, 4.95)">
    <path d="M0.8 -4.95 L2.5 -4.85 4.45 -4.7 5.15 -4.65 6.2 -3.95 7.85 -3.1 9.0 -2.4 10.1 -1.35 10.95 0.15 11.25 1.0 Q11.65 2.05 11.55 2.95 L11.35 4.45 11.05 5.85 10.5 7.15 9.55 8.8 8.95 9.6 8.2 10.25 7.45 10.9 6.6 11.4 5.65 11.75 4.65 12.2 2.95 12.5 1.4 12.5 -0.55 12.5 -1.5 12.5 -3.35 12.45 -4.35 12.2 -5.3 11.95 -7.0 11.1 -8.5 10.05 -9.75 8.65 -10.3 7.75 -10.85 6.5 -11.25 5.15 -11.5 3.7 -11.45 2.15 -11.05 0.45 -10.55 -1.0 -9.5 -2.25 -8.0 -3.4 -7.2 -3.95 Q-6.5 -4.45 -5.6 -4.4 L-3.75 -4.7 -2.25 -4.8 -0.05 -4.95 0.8 -4.95" fill="#48246c" fill-rule="evenodd" stroke="none"/>
  </g>
</svg>
