<?xml version="1.0" encoding="UTF-8" standalone="no"?>
<svg xmlns:ffdec="https://www.free-decompiler.com/flash" xmlns:xlink="http://www.w3.org/1999/xlink" ffdec:objectType="shape" height="29.7px" width="25.5px" xmlns="http://www.w3.org/2000/svg">
  <g transform="matrix(1.0, 0.0, 0.0, 1.0, 16.1, 20.4)">
    <path d="M-12.25 -20.35 L4.9 -16.75 4.95 -16.2 Q4.6 -4.95 9.4 6.45 L9.25 6.7 9.1 7.0 9.0 7.2 8.4 7.85 7.8 8.65 7.65 8.8 7.1 9.3 -2.05 -9.65 -2.15 -9.8 -10.8 -2.9 -11.65 -3.7 -16.1 -3.6 -12.45 -20.4 -12.25 -20.35 -12.2 -19.8 -2.6 -11.55 -2.5 -11.5 -2.05 -9.65 -2.5 -11.5 -2.6 -11.55 -12.2 -19.8 -12.25 -20.35" fill="#00ff00" fill-rule="evenodd" stroke="none"/>
  </g>
</svg>
