<?xml version="1.0" encoding="UTF-8" standalone="no"?>
<svg xmlns:ffdec="https://www.free-decompiler.com/flash" xmlns:xlink="http://www.w3.org/1999/xlink" ffdec:objectType="shape" height="156.65px" width="153.6px" xmlns="http://www.w3.org/2000/svg">
  <g transform="matrix(1.0, 0.0, 0.0, 1.0, 79.95, 84.75)">
    <path d="M49.35 -57.95 Q55.9 -51.4 61.45 -45.15 72.35 -32.8 72.35 -28.85 72.35 -27.5 71.6 -26.55 L70.65 -25.7 71.35 -24.15 Q68.05 -24.25 64.45 -28.1 L42.15 -43.1 Q42.6 -37.3 42.35 -33.6 41.9 -26.65 38.35 -26.65 34.2 -26.65 34.35 -31.15 L34.35 -31.35 Q32.65 -31.7 31.35 -30.8 35.25 -24.2 27.15 -20.1 24.35 -18.7 23.05 -16.25 22.2 -14.7 20.15 -14.55 L18.55 -14.1 Q21.55 -10.95 17.3 -11.25 L16.3 -11.4 13.6 -11.75 Q16.6 -10.25 19.2 -4.95 L20.4 -1.95 32.8 0.2 Q42.8 2.45 46.35 4.1 48.05 0.85 49.55 -5.55 51.55 -13.95 52.1 -15.55 L52.7 -19.9 Q53.25 -24.0 54.05 -26.15 56.6 -33.1 62.2 -22.95 69.5 -14.4 72.0 -3.2 73.65 4.15 73.65 16.7 73.65 22.7 70.95 30.25 67.75 39.2 63.65 39.2 61.2 39.2 60.45 37.3 L60.3 36.25 Q56.85 38.5 53.1 40.15 51.15 40.95 52.2 39.2 L60.95 24.1 62.8 20.65 62.85 18.95 Q62.85 12.85 61.2 3.5 59.55 -5.95 57.65 -10.4 55.75 -1.75 54.3 3.2 51.65 12.4 47.05 12.4 46.3 12.4 44.5 11.3 L42.45 10.05 Q41.75 9.85 41.05 9.25 L40.4 8.9 Q33.55 5.4 24.8 5.4 L21.2 10.05 Q17.3 14.7 13.95 14.7 9.0 14.7 8.0 9.95 7.5 7.55 7.95 5.05 L8.0 0.65 Q8.75 -2.45 12.8 -2.45 L17.15 -2.25 Q15.3 -7.5 11.15 -8.0 8.45 -3.85 5.6 -0.15 L4.45 0.75 Q5.4 3.05 4.25 5.75 L4.55 10.6 4.55 11.95 Q9.3 25.3 -2.65 33.45 -5.1 37.25 -8.0 39.75 L-8.0 39.95 5.3 42.4 Q13.5 44.6 13.5 48.0 13.5 49.45 12.55 50.4 11.5 51.4 9.75 51.4 8.85 51.4 1.95 49.45 L1.4 49.3 2.25 52.85 Q20.1 56.95 33.75 46.5 34.05 46.3 33.65 47.15 19.8 75.65 -13.65 71.35 -23.05 70.15 -30.5 65.65 -30.35 64.5 -29.1 64.15 L-28.75 64.05 Q3.2 79.45 27.65 53.65 14.25 59.45 -2.0 56.1 -4.35 55.6 -3.2 53.35 -1.45 50.0 -2.9 48.15 L-7.25 47.25 -17.0 45.7 Q-19.35 44.9 -19.35 42.65 L-18.75 42.1 -20.3 40.55 Q-21.5 39.2 -19.45 38.4 -14.65 36.45 -10.85 33.75 -4.85 26.5 -2.1 18.5 L-0.75 13.5 Q-4.45 7.9 0.35 4.05 -0.7 2.5 -0.95 1.15 L-1.1 1.15 -1.4 1.7 Q-2.4 3.35 -4.05 3.7 -1.2 12.35 -6.65 15.4 -8.0 16.15 -9.55 14.75 -19.3 6.05 -29.5 10.7 -31.65 11.65 -32.8 13.9 -36.7 21.4 -42.6 26.45 -40.55 35.1 -47.5 30.0 L-44.55 44.65 -42.65 48.05 Q-42.65 49.25 -43.25 50.2 -44.1 51.4 -45.7 51.4 -47.4 51.4 -52.05 44.05 L-58.25 33.45 Q-63.75 23.6 -65.55 15.45 -67.1 8.8 -68.25 -1.8 -69.5 -12.7 -69.5 -20.3 L-69.45 -22.9 Q-73.4 -3.55 -70.7 15.35 -69.6 19.8 -67.9 24.8 L-64.45 34.8 Q-62.85 39.45 -62.85 41.1 -62.85 42.55 -63.7 43.6 -64.65 44.75 -66.2 44.75 -69.25 44.75 -72.6 36.8 -74.1 33.25 -76.5 25.2 L-79.85 13.55 -79.95 5.2 -79.4 -7.25 Q-78.8 -18.9 -78.3 -21.85 -76.95 -29.75 -75.15 -35.25 -73.3 -40.85 -72.65 -42.15 -71.1 -45.3 -68.05 -44.65 -65.4 -44.05 -65.15 -42.2 -63.45 -42.35 -63.45 -40.5 L-63.9 -38.15 -64.35 -35.9 Q-63.65 -32.05 -64.0 -27.25 L-61.55 6.4 Q-59.5 17.55 -50.8 33.4 -51.95 27.55 -48.0 24.65 -47.25 24.05 -46.55 25.4 L-46.1 26.2 Q-38.45 15.4 -27.65 6.15 -24.45 3.4 -20.45 5.25 -13.6 8.5 -7.1 12.2 -11.0 0.7 -1.9 0.4 -2.15 -0.1 -2.05 -0.75 L-1.95 -1.3 Q-1.35 -2.1 -0.35 -2.05 L-0.35 -2.1 -0.25 -2.1 0.25 -2.95 Q-0.6 -4.55 -0.9 -6.1 -2.25 -4.2 -3.25 -2.0 L-3.6 -1.65 -3.75 -2.25 -4.65 -1.65 Q-7.75 -8.6 -8.75 -14.8 -8.85 -15.55 -7.6 -16.4 -5.75 -17.65 -4.4 -19.35 -19.4 -31.5 -13.15 -47.2 -12.8 -48.05 -11.2 -48.9 -7.75 -50.75 -5.0 -53.05 -3.65 -45.95 -13.15 -44.35 L-13.15 -44.2 Q-12.9 -28.65 -0.4 -19.15 0.05 -18.8 -0.85 -17.9 -3.5 -15.2 -6.6 -12.95 -4.6 -10.2 -3.75 -7.05 -3.05 -9.3 -0.65 -10.15 0.65 -14.25 6.4 -18.0 L7.35 -18.8 Q-4.3 -27.6 6.7 -37.8 8.7 -39.65 10.5 -42.0 16.05 -49.3 22.05 -55.45 23.4 -47.95 15.0 -40.8 11.05 -37.45 7.85 -33.1 L3.55 -27.4 Q16.15 -17.4 1.7 -10.6 L4.0 -10.65 Q4.75 -10.6 5.3 -9.25 7.9 -11.8 10.3 -12.25 12.2 -14.35 15.15 -14.9 21.05 -18.45 26.7 -24.15 L29.85 -27.05 Q24.95 -32.8 31.2 -34.05 L34.7 -34.35 35.4 -38.1 Q35.4 -41.2 34.8 -47.3 L33.35 -53.1 Q33.2 -53.7 34.15 -53.3 L35.6 -52.65 Q36.5 -53.45 38.1 -53.45 39.6 -53.45 42.7 -51.5 L46.2 -49.05 46.35 -49.1 Q39.6 -58.1 28.0 -65.35 L21.05 -69.5 Q18.6 -71.05 18.35 -71.75 L17.95 -71.85 18.35 -72.15 Q18.4 -72.7 18.75 -73.35 19.35 -74.5 20.55 -75.15 21.85 -75.85 22.2 -76.9 22.5 -77.8 23.85 -78.2 26.1 -78.9 29.05 -76.4 32.05 -73.35 33.0 -72.65 L41.8 -65.3 Q46.55 -61.15 49.35 -57.95 M9.7 -79.3 L11.15 -79.15 Q1.95 -76.7 -9.2 -75.0 -38.6 -70.4 -53.65 -46.6 -26.05 -74.7 14.15 -67.1 L14.45 -66.85 Q10.65 -62.95 2.35 -63.05 -0.85 -63.05 -3.95 -61.95 -38.7 -49.1 -48.75 -14.7 -48.2 -33.0 -33.45 -47.35 -25.15 -55.45 -14.8 -60.9 -9.45 -63.7 -3.6 -65.5 -25.65 -65.2 -43.9 -49.15 -48.35 -45.25 -53.65 -43.7 -57.05 -42.75 -56.9 -44.95 -57.6 -44.4 -57.95 -44.4 -60.45 -44.4 -61.15 -46.65 -61.55 -47.8 -61.4 -49.05 -61.4 -52.85 -58.85 -56.85 -57.15 -59.45 -51.95 -65.35 -35.15 -80.2 -31.75 -80.2 -30.05 -80.2 -29.35 -79.25 L-28.6 -77.85 Q-20.35 -83.15 -4.9 -84.45 10.65 -85.8 10.65 -80.9 10.65 -80.0 9.7 -79.3 M6.95 -7.15 Q3.4 -4.85 2.25 -9.55 L0.9 -8.25 Q0.95 -6.3 1.45 -4.4 2.7 -5.65 2.85 -3.7 2.9 -2.9 2.5 -2.2 5.6 -3.2 7.65 -7.55 L6.95 -7.15 M31.7 34.5 L32.0 34.45 Q44.5 42.65 49.65 55.65 49.8 56.1 49.15 55.4 39.4 45.45 31.15 35.2 31.2 34.7 31.7 34.5 M20.75 25.9 Q19.6 26.15 19.0 24.8 17.85 22.35 20.15 21.45 26.15 24.7 20.75 25.9 M-59.1 -38.5 Q-60.05 -38.8 -59.8 -39.8 L-59.45 -40.1 Q-59.05 -40.45 -58.7 -40.5 -54.65 -37.1 -59.1 -38.5 M-57.15 -30.35 L-56.6 -30.65 Q-51.15 -27.6 -56.15 -28.1 -59.1 -28.45 -57.15 -30.35 M-60.2 -15.05 Q-45.65 -11.9 -32.1 -7.0 L-31.9 -6.8 Q-37.1 -5.25 -43.85 -7.6 -50.4 -9.9 -57.15 -11.8 -59.8 -12.55 -61.5 -14.15 -61.4 -14.85 -60.7 -14.9 L-60.2 -15.05 M-42.0 -19.4 L-40.8 -19.75 Q-32.35 -18.5 -29.3 -12.15 -29.15 -11.85 -29.8 -12.15 -36.55 -15.25 -42.6 -18.55 -42.65 -19.2 -42.0 -19.4 M-40.85 -0.8 L-40.8 -0.6 Q-47.05 3.6 -54.35 1.45 -48.85 -1.2 -41.8 -1.5 -41.15 -1.4 -40.85 -0.8 M-40.05 -31.15 Q-40.15 -31.95 -39.25 -32.05 -34.15 -28.45 -27.35 -28.25 -26.55 -28.25 -26.15 -27.0 -24.2 -20.7 -15.7 -21.8 -13.75 -22.05 -12.75 -19.95 L-8.8 -10.75 Q-13.05 -8.85 -14.85 -14.35 L-16.6 -18.9 Q-27.45 -17.15 -30.05 -26.25 -39.05 -23.2 -40.05 -31.15 M-25.1 -4.9 Q-25.9 -4.5 -26.6 -5.05 -29.9 -7.35 -26.2 -9.35 -19.95 -7.45 -25.1 -4.9 M-26.85 33.15 Q-28.65 32.7 -27.2 31.3 -26.75 30.8 -26.2 30.8 -21.75 34.4 -26.85 33.15 M-30.0 46.95 Q-34.3 52.15 -37.4 58.0 -38.85 60.7 -41.25 60.75 -36.5 49.05 -28.95 37.95 -28.55 37.4 -27.95 37.4 -25.65 41.6 -30.0 46.95" fill="#ffffff" fill-rule="evenodd" stroke="none"/>
  </g>
</svg>
