<?xml version="1.0" encoding="UTF-8" standalone="no"?>
<svg xmlns:ffdec="https://www.free-decompiler.com/flash" xmlns:xlink="http://www.w3.org/1999/xlink" ffdec:objectType="shape" height="48.3px" width="48.15px" xmlns="http://www.w3.org/2000/svg">
  <g transform="matrix(1.0, 0.0, 0.0, 1.0, 24.05, 24.15)">
    <path d="M0.35 -23.85 L1.1 -23.2 3.05 -21.15 18.2 -6.0 22.0 -2.4 22.35 -2.0 23.5 -0.65 Q23.65 -0.1 24.1 0.35 L1.8 22.7 0.85 23.35 0.25 24.15 Q-0.55 23.9 -2.2 22.25 L-5.6 18.75 -5.9 18.4 -18.25 6.05 -19.75 4.55 -20.4 3.9 -21.3 3.0 -23.3 1.4 Q-24.45 0.35 -23.8 -0.45 L-23.7 -0.55 -23.75 -0.65 -23.4 -1.3 -22.6 -2.1 -9.5 -15.1 -5.45 -19.1 -0.2 -24.1 0.3 -23.95 0.35 -23.85 M1.4 -20.15 Q0.05 -21.3 -0.3 -22.4 L-22.45 -0.25 -22.2 0.05 -20.4 2.0 -4.85 17.55 -3.8 18.6 -1.1 21.15 0.1 22.45 4.55 18.05 8.55 14.05 10.8 11.85 16.55 6.15 17.7 5.0 20.85 1.95 22.65 0.2 20.9 -1.3 20.55 -1.65 17.15 -5.15 11.15 -11.15 9.75 -12.55 7.9 -14.35 6.5 -15.7 5.1 -17.2 2.7 -19.1 1.4 -20.15" fill="#254463" fill-rule="evenodd" stroke="none"/>
  </g>
</svg>
