<?xml version="1.0" encoding="UTF-8" standalone="no"?>
<svg xmlns:ffdec="https://www.free-decompiler.com/flash" xmlns:xlink="http://www.w3.org/1999/xlink" ffdec:objectType="shape" height="74.6px" width="75.75px" xmlns="http://www.w3.org/2000/svg">
  <g transform="matrix(1.0, 0.0, 0.0, 1.0, 37.4, 37.45)">
    <path d="M27.7 -37.45 L28.35 -37.45 38.05 -27.95 32.35 -25.6 26.65 -31.3 25.6 -32.55 27.7 -37.45 M38.2 27.8 L28.85 37.15 26.2 31.75 32.35 25.6 38.2 27.8" fill="#441d00" fill-rule="evenodd" stroke="none"/>
    <path d="M25.6 -32.55 L26.65 -31.3 32.35 -25.6 32.35 -15.75 2.85 -15.6 2.25 -15.35 -0.5 -15.1 -0.95 -14.85 -19.05 -14.7 -19.6 -14.95 -26.6 -15.2 -27.2 -15.45 -32.0 -15.65 -32.0 -19.3 -30.75 -19.8 -29.85 -20.15 -29.3 -20.35 -19.75 -20.2 -14.2 -20.1 -13.7 -20.35 -9.45 -20.6 -9.15 -20.7 -8.95 -20.9 -8.95 -21.25 -9.2 -21.6 -13.7 -21.7 -13.95 -21.6 -22.55 -22.05 -30.75 -22.7 -30.8 -22.6 -31.1 -22.5 -32.0 -22.35 -32.0 -24.1 -30.75 -24.1 -29.3 -24.35 Q-29.05 -24.45 -28.85 -24.6 L-25.85 -24.95 -23.15 -24.85 -22.95 -24.9 -22.45 -24.9 -22.3 -25.05 -21.85 -25.1 -1.4 -24.85 -0.95 -25.05 0.3 -25.1 3.8 -24.85 4.25 -25.05 4.5 -25.05 Q6.2 -26.3 8.65 -26.35 L11.85 -26.9 11.6 -27.3 10.9 -27.2 7.6 -26.95 7.1 -26.7 3.8 -26.45 3.65 -26.4 2.8 -26.4 -2.1 -26.75 -13.2 -27.4 -15.95 -27.7 -29.4 -28.4 -29.65 -28.2 -25.25 -32.55 25.6 -32.55 M-32.0 -12.4 L-8.95 -11.55 -8.5 -11.8 -3.8 -12.05 -3.3 -12.25 0.5 -12.5 0.95 -12.75 2.65 -13.0 2.85 -13.0 3.0 -13.1 3.65 -13.2 3.8 -13.3 4.75 -13.45 5.25 -13.7 7.45 -14.15 7.55 -14.2 32.35 -14.45 32.35 -4.65 29.8 -4.7 29.3 -4.55 26.6 -4.3 Q24.4 -2.6 21.8 -1.5 18.0 0.1 13.8 -1.15 L9.7 -0.45 9.15 -0.35 21.8 0.75 22.25 0.5 24.15 0.25 24.45 0.15 25.55 -0.4 26.95 -0.7 27.45 -0.95 32.35 -1.15 32.35 9.05 Q30.25 9.4 28.4 9.05 L27.9 9.2 24.15 9.45 23.65 9.7 21.8 9.95 21.3 10.2 18.95 10.4 18.7 10.55 14.2 10.4 14.15 10.5 13.7 10.6 1.7 10.85 -4.15 10.7 Q-6.7 12.25 -10.05 12.4 L-11.45 12.45 -11.45 12.55 -11.25 12.7 1.45 13.0 1.9 12.75 7.05 12.85 13.1 13.65 26.5 14.45 26.95 14.2 32.35 14.05 32.35 25.6 26.2 31.75 26.0 31.95 -25.25 31.95 -31.15 26.25 -31.15 26.05 -32.0 25.2 -32.0 21.85 -23.15 22.2 Q-20.5 20.3 -16.4 21.1 L-15.35 21.15 -8.0 20.35 -8.25 20.0 -9.65 19.95 -10.4 19.85 -10.5 19.9 -12.3 19.85 -12.8 20.05 -13.0 20.1 -20.25 19.75 -26.75 18.85 -32.0 18.5 -32.0 -12.4" fill="#5b2c00" fill-rule="evenodd" stroke="none"/>
    <path d="M32.35 -25.6 L38.05 -27.95 38.35 27.8 38.2 27.8 32.35 25.6 32.35 14.05 32.35 9.05 32.35 -1.15 32.35 -4.65 32.35 -14.45 32.35 -15.75 32.35 -25.6" fill="#3a1900" fill-rule="evenodd" stroke="none"/>
    <path d="M27.7 -37.45 L25.6 -32.55 -25.25 -32.55 -27.9 -37.45 27.7 -37.45" fill="#4f2100" fill-rule="evenodd" stroke="none"/>
    <path d="M-29.65 -28.2 L-29.4 -28.4 -15.95 -27.7 -13.2 -27.4 -2.1 -26.75 2.8 -26.4 3.65 -26.4 3.8 -26.45 7.1 -26.7 7.6 -26.95 10.9 -27.2 11.6 -27.3 11.85 -26.9 8.65 -26.35 Q6.2 -26.3 4.5 -25.05 L4.25 -25.05 3.8 -24.85 0.3 -25.1 -0.95 -25.05 -1.4 -24.85 -21.85 -25.1 -22.3 -25.05 -22.45 -24.9 -22.95 -24.9 -23.15 -24.85 -25.85 -24.95 -28.85 -24.6 Q-29.05 -24.45 -29.3 -24.35 L-30.75 -24.1 -32.0 -24.1 -32.0 -25.85 -29.65 -28.2 M-32.0 -22.35 L-31.1 -22.5 -30.8 -22.6 -30.75 -22.7 -22.55 -22.05 -13.95 -21.6 -13.7 -21.7 -9.2 -21.6 -8.95 -21.25 -8.95 -20.9 -9.15 -20.7 -9.45 -20.6 -13.7 -20.35 -14.2 -20.1 -19.75 -20.2 -29.3 -20.35 -29.85 -20.15 -30.75 -19.8 -32.0 -19.3 -32.0 -22.35 M-32.0 -15.65 L-27.2 -15.45 -26.6 -15.2 -19.6 -14.95 -19.05 -14.7 -0.95 -14.85 -0.5 -15.1 2.25 -15.35 2.85 -15.6 32.35 -15.75 32.35 -14.45 7.55 -14.2 7.45 -14.15 5.25 -13.7 4.75 -13.45 3.8 -13.3 3.65 -13.2 3.0 -13.1 2.85 -13.0 2.65 -13.0 0.95 -12.75 0.5 -12.5 -3.3 -12.25 -3.8 -12.05 -8.5 -11.8 -8.95 -11.55 -32.0 -12.4 -32.0 -15.65 M32.35 -1.15 L27.45 -0.95 26.95 -0.7 25.55 -0.4 24.45 0.15 24.15 0.25 22.25 0.5 21.8 0.75 9.15 -0.35 9.7 -0.45 13.8 -1.15 Q18.0 0.1 21.8 -1.5 24.4 -2.6 26.6 -4.3 L29.3 -4.55 29.8 -4.7 32.35 -4.65 32.35 -1.15 M32.35 9.05 L32.35 14.05 26.95 14.2 26.5 14.45 13.1 13.65 7.05 12.85 1.9 12.75 1.45 13.0 -11.25 12.7 -11.45 12.55 -11.45 12.45 -10.05 12.4 Q-6.7 12.25 -4.15 10.7 L1.7 10.85 13.7 10.6 14.15 10.5 14.2 10.4 18.7 10.55 18.95 10.4 21.3 10.2 21.8 9.95 23.65 9.7 24.15 9.45 27.9 9.2 28.4 9.05 Q30.25 9.4 32.35 9.05 M28.4 10.65 L28.2 10.7 28.45 10.7 28.45 10.65 28.4 10.65 M-32.0 18.5 L-26.75 18.85 -20.25 19.75 -13.0 20.1 -12.8 20.05 -12.3 19.85 -10.5 19.9 -10.4 19.85 -9.65 19.95 -8.25 20.0 -8.0 20.35 -15.35 21.15 -16.4 21.1 Q-20.5 20.3 -23.15 22.2 L-32.0 21.85 -32.0 18.5" fill="#552800" fill-rule="evenodd" stroke="none"/>
    <path d="M28.4 10.65 L28.45 10.65 28.45 10.7 28.2 10.7 28.4 10.65" fill="#a5590e" fill-rule="evenodd" stroke="none"/>
    <path d="M28.85 37.15 L-27.9 36.8 -25.25 31.95 26.0 31.95 26.2 31.75 28.85 37.15" fill="#642b00" fill-rule="evenodd" stroke="none"/>
    <path d="M-37.4 27.45 L-37.4 -28.1 -37.25 -28.1 -32.0 -25.85 -32.0 -24.1 -32.0 -22.35 -32.0 -19.3 -32.0 -15.65 -32.0 -12.4 -32.0 18.5 -32.0 21.85 -32.0 25.2 -37.4 27.45" fill="#8e4300" fill-rule="evenodd" stroke="none"/>
    <path d="M-27.9 36.8 L-37.4 27.45 -32.0 25.2 -31.15 26.05 -31.15 26.25 -25.25 31.95 -27.9 36.8 M-37.25 -28.1 L-27.9 -37.45 -25.25 -32.55 -29.65 -28.2 -32.0 -25.85 -37.25 -28.1" fill="#733600" fill-rule="evenodd" stroke="none"/>
  </g>
</svg>
