<?xml version="1.0" encoding="UTF-8" standalone="no"?>
<svg xmlns:ffdec="https://www.free-decompiler.com/flash" xmlns:xlink="http://www.w3.org/1999/xlink" ffdec:objectType="shape" height="80.5px" width="187.65px" xmlns="http://www.w3.org/2000/svg">
  <g transform="matrix(1.0, 0.0, 0.0, 1.0, 92.5, 23.8)">
    <path d="M-25.95 41.05 Q-26.05 42.15 -24.6 42.85 L-23.75 43.0 Q-23.15 43.05 -22.5 41.85 L-22.4 41.7 -21.85 42.35 -20.8 42.65 -20.65 42.7 -20.6 42.7 -20.4 42.7 -20.8 44.25 -21.4 44.35 -22.5 44.55 -22.5 44.5 -22.95 44.55 -24.15 44.5 -24.5 44.6 -26.55 44.25 -26.75 44.05 -26.9 44.0 -27.3 43.75 -27.3 43.5 -27.3 43.15 -27.25 42.95 Q-27.3 42.35 -27.0 41.75 -26.55 41.3 -25.95 41.05" fill="#ffcc00" fill-rule="evenodd" stroke="none"/>
    <path d="M-22.4 41.7 L-22.5 41.85 Q-23.15 43.05 -23.75 43.0 L-24.6 42.85 Q-26.05 42.15 -25.95 41.05 L-25.7 40.2 Q-25.05 39.1 -23.0 39.85 -21.85 40.45 -22.4 41.7" fill="#ffffff" fill-rule="evenodd" stroke="none"/>
    <path d="M-25.95 41.05 Q-26.55 41.3 -27.0 41.75 -27.3 42.35 -27.25 42.95 L-27.3 43.15 -27.3 43.5 Q-27.45 44.0 -26.8 44.75 L-25.85 45.7 Q-24.85 46.15 -23.45 45.7 L-22.0 45.45 -21.45 45.55 -23.25 47.75 -23.45 47.75 -23.7 47.65 -23.75 47.65 -24.0 47.75 Q-24.3 47.85 -24.4 48.05 -25.95 47.8 -26.85 47.1 -30.75 44.45 -27.75 40.6 -26.5 38.75 -23.85 39.3 -22.4 39.55 -21.4 40.25 L-20.95 40.6 -20.75 40.75 -20.55 41.4 Q-20.4 42.0 -20.4 42.7 L-20.6 42.7 -20.65 42.7 -20.8 42.65 -21.85 42.35 -22.4 41.7 Q-21.85 40.45 -23.0 39.85 -25.05 39.1 -25.7 40.2 L-25.95 41.05" fill="#935801" fill-rule="evenodd" stroke="none"/>
    <path d="M-27.3 43.5 L-27.3 43.75 -26.9 44.0 -26.75 44.05 -26.55 44.25 -24.5 44.6 -24.15 44.5 -22.95 44.55 -22.5 44.5 -22.5 44.55 -21.4 44.35 -20.8 44.25 -21.0 44.65 -21.45 45.55 -22.0 45.45 -23.45 45.7 Q-24.85 46.15 -25.85 45.7 L-26.8 44.75 Q-27.45 44.0 -27.3 43.5" fill="#ff9900" fill-rule="evenodd" stroke="none"/>
    <path d="M-62.75 23.85 Q-63.65 25.25 -64.55 26.05 L-64.75 26.05 -65.0 25.95 -65.05 25.95 Q-65.2 25.85 -65.3 26.05 L-65.7 26.35 Q-67.25 26.1 -68.15 25.4 -72.05 22.75 -69.05 18.9 -67.8 17.05 -65.15 17.6 -63.7 17.85 -62.7 18.55 L-62.25 18.9 -62.05 19.05 -61.85 19.7 Q-61.7 20.3 -61.7 21.0 L-61.9 21.0 -61.95 21.0 -62.1 20.95 -63.15 20.65 -63.7 20.0 Q-63.15 18.75 -64.3 18.15 -66.35 17.4 -67.0 18.5 L-67.25 19.35 -68.3 20.05 -68.55 21.25 -68.6 21.45 -68.6 21.8 Q-68.75 22.3 -68.1 23.05 L-67.15 24.0 Q-66.15 24.45 -64.75 24.0 L-63.3 23.75 -62.75 23.85" fill="#935801" fill-rule="evenodd" stroke="none"/>
    <path d="M-68.6 21.8 L-68.6 21.45 -68.55 21.25 -68.3 20.05 -67.25 19.35 Q-67.35 20.45 -65.9 21.15 L-65.05 21.3 Q-64.45 21.35 -63.8 20.15 L-63.7 20.0 -63.15 20.65 -62.1 20.95 -61.95 21.0 -61.9 21.0 -61.7 21.0 -62.1 22.55 -62.7 22.65 -63.8 22.85 -63.8 22.8 -64.25 22.85 -65.45 22.8 -65.8 22.9 -67.85 22.55 -68.05 22.35 -68.2 22.3 -68.6 22.05 -68.6 21.8" fill="#ffcc00" fill-rule="evenodd" stroke="none"/>
    <path d="M-67.25 19.35 L-67.0 18.5 Q-66.35 17.4 -64.3 18.15 -63.15 18.75 -63.7 20.0 L-63.8 20.15 Q-64.45 21.35 -65.05 21.3 L-65.9 21.15 Q-67.35 20.45 -67.25 19.35" fill="#ffffff" fill-rule="evenodd" stroke="none"/>
    <path d="M-62.75 23.85 L-63.3 23.75 -64.75 24.0 Q-66.15 24.45 -67.15 24.0 L-68.1 23.05 Q-68.75 22.3 -68.6 21.8 L-68.6 22.05 -68.2 22.3 -68.05 22.35 -67.85 22.55 -65.8 22.9 -65.45 22.8 -64.25 22.85 -63.8 22.8 -63.8 22.85 -62.7 22.65 -62.1 22.55 -62.3 22.95 -62.75 23.85" fill="#ff9900" fill-rule="evenodd" stroke="none"/>
    <path d="M-44.7 29.7 Q-44.3 30.0 -44.15 30.35 L-43.1 30.65 -42.95 30.7 -42.9 30.7 -42.7 30.7 -43.1 32.25 -43.7 32.35 -44.8 32.55 -44.8 32.5 -45.25 32.55 -46.45 32.5 -46.8 32.6 -48.85 32.25 -49.05 32.05 -49.2 32.0 -49.6 31.75 -49.6 31.5 -49.6 31.15 -49.55 30.95 -49.3 29.75 Q-48.85 29.3 -48.25 29.05 -48.35 30.15 -46.9 30.85 L-46.05 31.0 Q-45.45 31.05 -44.8 29.85 L-44.7 29.7" fill="#ffcc00" fill-rule="evenodd" stroke="none"/>
    <path d="M-48.25 29.05 L-48.0 28.2 Q-47.35 27.1 -45.3 27.85 -44.15 28.45 -44.7 29.7 L-44.8 29.85 Q-45.45 31.05 -46.05 31.0 L-46.9 30.85 Q-48.35 30.15 -48.25 29.05" fill="#ffffff" fill-rule="evenodd" stroke="none"/>
    <path d="M-42.7 30.7 L-42.9 30.7 -42.95 30.7 -43.1 30.65 -44.15 30.35 Q-44.3 30.0 -44.7 29.7 -44.15 28.45 -45.3 27.85 -47.35 27.1 -48.0 28.2 L-48.25 29.05 Q-48.85 29.3 -49.3 29.75 L-49.55 30.95 -49.6 31.15 -49.6 31.5 Q-49.75 32.0 -49.1 32.75 L-48.15 33.7 Q-47.15 34.15 -45.75 33.7 L-44.3 33.45 -43.75 33.55 -45.55 35.75 -45.75 35.75 -46.0 35.65 -46.05 35.65 Q-46.2 35.55 -46.3 35.75 L-46.7 36.05 Q-48.25 35.8 -49.15 35.1 -53.05 32.45 -50.05 28.6 -48.8 26.75 -46.15 27.3 -44.7 27.55 -43.7 28.25 L-43.25 28.6 -43.05 28.75 -42.85 29.4 Q-42.7 30.0 -42.7 30.7" fill="#935801" fill-rule="evenodd" stroke="none"/>
    <path d="M-43.75 33.55 L-44.3 33.45 -45.75 33.7 Q-47.15 34.15 -48.15 33.7 L-49.1 32.75 Q-49.75 32.0 -49.6 31.5 L-49.6 31.75 -49.2 32.0 -49.05 32.05 -48.85 32.25 -46.8 32.6 -46.45 32.5 -45.25 32.55 -44.8 32.5 -44.8 32.55 -43.7 32.35 -43.1 32.25 -43.3 32.65 -43.75 33.55" fill="#ff9900" fill-rule="evenodd" stroke="none"/>
    <path d="M-85.85 -1.9 Q-85.3 -3.15 -86.45 -3.75 -88.5 -4.5 -89.15 -3.4 L-89.4 -2.55 -90.45 -1.85 -90.7 -0.65 -90.75 -0.45 -90.75 -0.1 Q-90.9 0.4 -90.25 1.15 L-89.3 2.1 Q-88.3 2.55 -86.9 2.1 L-85.45 1.85 -84.9 1.95 -86.7 4.15 -86.9 4.15 -87.15 4.05 -87.2 4.05 -87.45 4.15 Q-87.75 4.25 -87.85 4.45 -89.4 4.2 -90.3 3.5 -94.2 0.85 -91.2 -3.0 -89.95 -4.85 -87.3 -4.3 -85.85 -4.05 -84.85 -3.35 L-84.4 -3.0 -84.2 -2.85 -84.0 -2.2 Q-83.85 -1.6 -83.85 -0.9 L-84.05 -0.9 -84.1 -0.9 -84.25 -0.95 -85.3 -1.25 -85.85 -1.9" fill="#935801" fill-rule="evenodd" stroke="none"/>
    <path d="M-89.4 -2.55 L-89.15 -3.4 Q-88.5 -4.5 -86.45 -3.75 -85.3 -3.15 -85.85 -1.9 L-85.95 -1.75 Q-86.6 -0.55 -87.2 -0.6 L-88.05 -0.75 Q-89.5 -1.45 -89.4 -2.55" fill="#ffffff" fill-rule="evenodd" stroke="none"/>
    <path d="M-85.85 -1.9 L-85.3 -1.25 -84.25 -0.95 -84.1 -0.9 -84.05 -0.9 -83.85 -0.9 -84.25 0.65 -84.85 0.75 -85.95 0.95 -85.95 0.9 -86.4 0.95 -87.6 0.9 -87.95 1.0 -90.0 0.65 -90.2 0.45 -90.35 0.4 -90.75 0.15 -90.75 -0.1 -90.75 -0.45 -90.7 -0.65 -90.45 -1.85 -89.4 -2.55 Q-89.5 -1.45 -88.05 -0.75 L-87.2 -0.6 Q-86.6 -0.55 -85.95 -1.75 L-85.85 -1.9" fill="#ffcc00" fill-rule="evenodd" stroke="none"/>
    <path d="M-84.9 1.95 L-85.45 1.85 -86.9 2.1 Q-88.3 2.55 -89.3 2.1 L-90.25 1.15 Q-90.9 0.4 -90.75 -0.1 L-90.75 0.15 -90.35 0.4 -90.2 0.45 -90.0 0.65 -87.95 1.0 -87.6 0.9 -86.4 0.95 -85.95 0.9 -85.95 0.95 -84.85 0.75 -84.25 0.65 -84.45 1.05 -84.9 1.95" fill="#ff9900" fill-rule="evenodd" stroke="none"/>
    <path d="M5.3 49.05 Q5.85 47.8 4.7 47.2 2.65 46.45 2.0 47.55 1.75 47.95 1.75 48.4 1.15 48.65 0.7 49.1 0.4 49.7 0.45 50.3 L0.4 50.5 0.4 50.85 Q0.25 51.35 0.9 52.1 L1.85 53.05 Q2.85 53.5 4.25 53.05 L5.7 52.8 6.25 52.9 4.45 55.1 4.25 55.1 4.0 55.0 3.95 55.0 Q3.8 54.9 3.7 55.1 L3.3 55.4 Q1.75 55.15 0.85 54.45 -3.05 51.8 -0.05 47.95 1.2 46.1 3.85 46.65 5.3 46.9 6.3 47.6 L6.75 47.95 6.95 48.1 7.15 48.75 7.3 50.05 7.1 50.05 7.05 50.05 6.9 50.0 5.85 49.7 5.3 49.05" fill="#935801" fill-rule="evenodd" stroke="none"/>
    <path d="M1.75 48.4 Q1.75 47.95 2.0 47.55 2.65 46.45 4.7 47.2 5.85 47.8 5.3 49.05 L5.2 49.2 Q4.55 50.4 3.95 50.35 L3.1 50.2 Q1.65 49.5 1.75 48.4" fill="#ffffff" fill-rule="evenodd" stroke="none"/>
    <path d="M5.3 49.05 L5.85 49.7 6.9 50.0 7.05 50.05 7.1 50.05 7.3 50.05 6.9 51.6 6.3 51.7 5.2 51.9 5.2 51.85 4.75 51.9 3.55 51.85 3.2 51.95 1.15 51.6 0.95 51.4 0.8 51.35 0.4 51.1 0.4 50.85 0.4 50.5 0.45 50.3 Q0.4 49.7 0.7 49.1 1.15 48.65 1.75 48.4 1.65 49.5 3.1 50.2 L3.95 50.35 Q4.55 50.4 5.2 49.2 L5.3 49.05" fill="#ffcc00" fill-rule="evenodd" stroke="none"/>
    <path d="M6.25 52.9 L5.7 52.8 4.25 53.05 Q2.85 53.5 1.85 53.05 L0.9 52.1 Q0.25 51.35 0.4 50.85 L0.4 51.1 0.8 51.35 0.95 51.4 1.15 51.6 3.2 51.95 3.55 51.85 4.75 51.9 5.2 51.85 5.2 51.9 6.3 51.7 6.9 51.6 6.7 52.0 6.25 52.9" fill="#ff9900" fill-rule="evenodd" stroke="none"/>
    <path d="M22.5 49.7 L22.25 48.85 Q21.6 47.75 19.55 48.5 18.4 49.1 18.95 50.35 L18.4 51.0 17.35 51.3 17.2 51.35 17.15 51.35 16.95 51.35 Q16.95 50.65 17.1 50.05 L17.3 49.4 17.5 49.25 17.95 48.9 Q18.95 48.2 20.4 47.95 23.05 47.4 24.3 49.25 27.3 53.1 23.4 55.75 22.5 56.45 20.95 56.7 20.85 56.5 20.55 56.4 20.45 56.2 20.3 56.3 L20.25 56.3 20.0 56.4 19.8 56.4 18.0 54.2 18.55 54.1 20.0 54.35 Q21.4 54.8 22.4 54.35 L23.35 53.4 Q24.0 52.65 23.85 52.15 L23.85 51.8 23.8 51.6 23.55 50.4 22.5 49.7" fill="#935801" fill-rule="evenodd" stroke="none"/>
    <path d="M18.95 50.35 Q18.4 49.1 19.55 48.5 21.6 47.75 22.25 48.85 L22.5 49.7 Q22.6 50.8 21.15 51.5 L20.3 51.65 Q19.7 51.7 19.05 50.5 L18.95 50.35" fill="#ffffff" fill-rule="evenodd" stroke="none"/>
    <path d="M18.95 50.35 L19.05 50.5 Q19.7 51.7 20.3 51.65 L21.15 51.5 Q22.6 50.8 22.5 49.7 L23.55 50.4 23.8 51.6 23.85 51.8 23.85 52.15 23.85 52.4 23.45 52.65 23.3 52.7 23.1 52.9 21.05 53.25 20.7 53.15 19.5 53.2 19.05 53.15 19.05 53.2 17.95 53.0 17.35 52.9 16.95 51.35 17.15 51.35 17.2 51.35 17.35 51.3 18.4 51.0 18.95 50.35" fill="#ffcc00" fill-rule="evenodd" stroke="none"/>
    <path d="M23.85 52.15 Q24.0 52.65 23.35 53.4 L22.4 54.35 Q21.4 54.8 20.0 54.35 L18.55 54.1 18.0 54.2 17.55 53.3 17.35 52.9 17.95 53.0 19.05 53.2 19.05 53.15 19.5 53.2 20.7 53.15 21.05 53.25 23.1 52.9 23.3 52.7 23.45 52.65 23.85 52.4 23.85 52.15" fill="#ff9900" fill-rule="evenodd" stroke="none"/>
    <path d="M86.5 17.55 Q86.5 16.85 86.65 16.25 L86.85 15.6 87.05 15.45 87.5 15.1 Q88.5 14.4 89.95 14.15 92.6 13.6 93.85 15.45 96.85 19.3 92.95 21.95 92.05 22.65 90.5 22.9 L90.1 22.6 89.85 22.5 89.8 22.5 89.55 22.6 89.35 22.6 87.55 20.4 88.1 20.3 89.55 20.55 Q90.95 21.0 91.95 20.55 L92.9 19.6 Q93.55 18.85 93.4 18.35 L93.4 18.0 93.35 17.8 93.1 16.6 Q92.65 16.15 92.05 15.9 L91.8 15.05 Q91.15 13.95 89.1 14.7 87.95 15.3 88.5 16.55 L87.95 17.2 86.9 17.5 86.75 17.55 86.7 17.55 86.5 17.55" fill="#935801" fill-rule="evenodd" stroke="none"/>
    <path d="M86.9 19.1 L86.5 17.55 86.7 17.55 86.75 17.55 86.9 17.5 87.95 17.2 88.5 16.55 88.6 16.7 Q89.25 17.9 89.85 17.85 L90.7 17.7 Q92.15 17.0 92.05 15.9 92.65 16.15 93.1 16.6 L93.35 17.8 93.4 18.0 93.4 18.35 93.4 18.6 93.0 18.85 92.85 18.9 92.65 19.1 Q91.55 19.6 90.6 19.45 L90.25 19.35 89.05 19.4 88.6 19.35 88.6 19.4 87.5 19.2 86.9 19.1" fill="#ffcc00" fill-rule="evenodd" stroke="none"/>
    <path d="M88.5 16.55 Q87.95 15.3 89.1 14.7 91.15 13.95 91.8 15.05 L92.05 15.9 Q92.15 17.0 90.7 17.7 L89.85 17.85 Q89.25 17.9 88.6 16.7 L88.5 16.55" fill="#ffffff" fill-rule="evenodd" stroke="none"/>
    <path d="M87.55 20.4 L87.1 19.5 86.9 19.1 87.5 19.2 88.6 19.4 88.6 19.35 89.05 19.4 90.25 19.35 90.6 19.45 Q91.55 19.6 92.65 19.1 L92.85 18.9 93.0 18.85 93.4 18.6 93.4 18.35 Q93.55 18.85 92.9 19.6 L91.95 20.55 Q90.95 21.0 89.55 20.55 L88.1 20.3 87.55 20.4" fill="#ff9900" fill-rule="evenodd" stroke="none"/>
    <path d="M-82.95 -17.4 Q-83.85 -16.0 -84.75 -15.2 L-84.95 -15.2 -85.2 -15.3 -85.25 -15.3 -85.5 -15.2 -85.9 -14.9 Q-87.45 -15.15 -88.35 -15.85 -92.25 -18.5 -89.25 -22.35 -88.0 -24.2 -85.35 -23.65 -83.9 -23.4 -82.9 -22.7 L-82.45 -22.35 -82.25 -22.2 -82.05 -21.55 -81.9 -20.25 -82.1 -20.25 -82.15 -20.25 -82.3 -20.3 -83.35 -20.6 -83.9 -21.25 Q-83.35 -22.5 -84.5 -23.1 -86.55 -23.85 -87.2 -22.75 L-87.45 -21.9 Q-88.05 -21.65 -88.5 -21.2 L-88.75 -20.0 -88.8 -19.8 -88.8 -19.45 Q-88.95 -18.95 -88.3 -18.2 L-87.35 -17.25 Q-86.35 -16.8 -84.95 -17.25 L-83.5 -17.5 -82.95 -17.4" fill="#935801" fill-rule="evenodd" stroke="none"/>
    <path d="M-88.8 -19.45 L-88.8 -19.8 -88.75 -20.0 -88.5 -21.2 Q-88.05 -21.65 -87.45 -21.9 -87.55 -20.8 -86.1 -20.1 L-85.25 -19.95 Q-84.65 -19.9 -84.0 -21.1 L-83.9 -21.25 -83.35 -20.6 -82.3 -20.3 -82.15 -20.25 -82.1 -20.25 -81.9 -20.25 -82.3 -18.7 -82.9 -18.6 -84.0 -18.4 -84.0 -18.45 -84.45 -18.4 -85.65 -18.45 -86.0 -18.35 -88.05 -18.7 -88.25 -18.9 -88.4 -18.95 -88.8 -19.2 -88.8 -19.45" fill="#ffcc00" fill-rule="evenodd" stroke="none"/>
    <path d="M-87.45 -21.9 L-87.2 -22.75 Q-86.55 -23.85 -84.5 -23.1 -83.35 -22.5 -83.9 -21.25 L-84.0 -21.1 Q-84.65 -19.9 -85.25 -19.95 L-86.1 -20.1 Q-87.55 -20.8 -87.45 -21.9" fill="#ffffff" fill-rule="evenodd" stroke="none"/>
    <path d="M-82.95 -17.4 L-83.5 -17.5 -84.95 -17.25 Q-86.35 -16.8 -87.35 -17.25 L-88.3 -18.2 Q-88.95 -18.95 -88.8 -19.45 L-88.8 -19.2 -88.4 -18.95 -88.25 -18.9 -88.05 -18.7 -86.0 -18.35 -85.65 -18.45 -84.45 -18.4 -84.0 -18.45 -84.0 -18.4 -82.9 -18.6 -82.3 -18.7 -82.5 -18.3 -82.95 -17.4" fill="#ff9900" fill-rule="evenodd" stroke="none"/>
    <path d="M7.25 29.75 L7.8 30.4 Q8.05 30.55 8.85 30.7 L9.0 30.75 9.05 30.75 9.25 30.75 8.85 32.3 8.25 32.4 7.15 32.6 7.15 32.55 6.7 32.6 5.5 32.55 5.15 32.65 3.1 32.3 2.9 32.1 2.75 32.05 2.35 31.8 2.35 31.55 2.35 31.2 2.4 31.0 Q2.35 30.4 2.65 29.8 3.1 29.35 3.7 29.1 3.6 30.2 5.05 30.9 L5.9 31.05 Q6.5 31.1 7.15 29.9 L7.25 29.75" fill="#ffcc00" fill-rule="evenodd" stroke="none"/>
    <path d="M3.7 29.1 Q3.7 28.65 3.95 28.25 4.6 27.15 6.65 27.9 7.8 28.5 7.25 29.75 L7.15 29.9 Q6.5 31.1 5.9 31.05 L5.05 30.9 Q3.6 30.2 3.7 29.1" fill="#ffffff" fill-rule="evenodd" stroke="none"/>
    <path d="M7.25 29.75 Q7.8 28.5 6.65 27.9 4.6 27.15 3.95 28.25 3.7 28.65 3.7 29.1 3.1 29.35 2.65 29.8 2.35 30.4 2.4 31.0 L2.35 31.2 2.35 31.55 Q2.2 32.05 2.85 32.8 L3.8 33.75 Q4.8 34.2 6.2 33.75 L7.65 33.5 8.2 33.6 Q7.3 35.0 6.4 35.8 L6.2 35.8 5.95 35.7 5.9 35.7 Q5.75 35.6 5.65 35.8 L5.25 36.1 Q3.7 35.85 2.8 35.15 -1.1 32.5 1.9 28.65 3.15 26.8 5.8 27.35 7.25 27.6 8.25 28.3 L8.7 28.65 8.9 28.8 9.1 29.45 9.25 30.75 9.05 30.75 9.0 30.75 8.85 30.7 Q8.05 30.55 7.8 30.4 L7.25 29.75" fill="#935801" fill-rule="evenodd" stroke="none"/>
    <path d="M8.2 33.6 L7.65 33.5 6.2 33.75 Q4.8 34.2 3.8 33.75 L2.85 32.8 Q2.2 32.05 2.35 31.55 L2.35 31.8 2.75 32.05 2.9 32.1 3.1 32.3 5.15 32.65 5.5 32.55 6.7 32.6 7.15 32.55 7.15 32.6 8.25 32.4 8.85 32.3 8.65 32.7 8.2 33.6" fill="#ff9900" fill-rule="evenodd" stroke="none"/>
    <path d="M17.35 32.05 Q17.35 31.35 17.5 30.75 L17.7 30.1 17.9 29.95 18.35 29.6 Q19.35 28.9 20.8 28.65 23.45 28.1 24.7 29.95 27.7 33.8 23.8 36.45 22.9 37.15 21.35 37.4 L20.95 37.1 20.7 37.0 20.65 37.0 20.4 37.1 20.2 37.1 Q19.3 36.3 18.4 34.9 L18.95 34.8 20.4 35.05 Q21.8 35.5 22.8 35.05 L23.75 34.1 Q24.4 33.35 24.25 32.85 L24.25 32.5 24.2 32.3 23.95 31.1 Q23.5 30.65 22.9 30.4 L22.65 29.55 Q22.0 28.45 19.95 29.2 18.8 29.8 19.35 31.05 L18.8 31.7 17.75 32.0 17.6 32.05 17.55 32.05 17.35 32.05" fill="#935801" fill-rule="evenodd" stroke="none"/>
    <path d="M19.35 31.05 Q18.8 29.8 19.95 29.2 22.0 28.45 22.65 29.55 L22.9 30.4 Q23.0 31.5 21.55 32.2 L20.7 32.35 Q20.1 32.4 19.45 31.2 L19.35 31.05" fill="#ffffff" fill-rule="evenodd" stroke="none"/>
    <path d="M17.75 33.6 L17.35 32.05 17.55 32.05 17.6 32.05 17.75 32.0 18.8 31.7 19.35 31.05 19.45 31.2 Q20.1 32.4 20.7 32.35 L21.55 32.2 Q23.0 31.5 22.9 30.4 23.5 30.65 23.95 31.1 L24.2 32.3 24.25 32.5 24.25 32.85 24.25 33.1 23.85 33.35 23.7 33.4 23.5 33.6 21.45 33.95 21.1 33.85 19.9 33.9 19.45 33.85 19.45 33.9 18.35 33.7 17.75 33.6" fill="#ffcc00" fill-rule="evenodd" stroke="none"/>
    <path d="M18.4 34.9 L17.95 34.0 17.75 33.6 18.35 33.7 19.45 33.9 19.45 33.85 19.9 33.9 21.1 33.85 21.45 33.95 23.5 33.6 23.7 33.4 23.85 33.35 24.25 33.1 24.25 32.85 Q24.4 33.35 23.75 34.1 L22.8 35.05 Q21.8 35.5 20.4 35.05 L18.95 34.8 18.4 34.9" fill="#ff9900" fill-rule="evenodd" stroke="none"/>
    <path d="M86.2 -1.7 L86.35 -3.0 86.55 -3.65 86.75 -3.8 87.2 -4.15 Q88.2 -4.85 89.65 -5.1 92.3 -5.65 93.55 -3.8 96.55 0.05 92.65 2.7 91.75 3.4 90.2 3.65 L89.8 3.35 Q89.7 3.15 89.55 3.25 L89.5 3.25 89.25 3.35 89.05 3.35 87.25 1.15 87.8 1.05 89.25 1.3 Q90.65 1.75 91.65 1.3 L92.6 0.35 Q93.25 -0.4 93.1 -0.9 L93.1 -1.25 93.05 -1.45 92.8 -2.65 Q92.35 -3.1 91.75 -3.35 L91.5 -4.2 Q90.85 -5.3 88.8 -4.55 87.65 -3.95 88.2 -2.7 L87.65 -2.05 86.6 -1.75 86.45 -1.7 86.4 -1.7 86.2 -1.7" fill="#935801" fill-rule="evenodd" stroke="none"/>
    <path d="M86.6 -0.15 L86.2 -1.7 86.4 -1.7 86.45 -1.7 86.6 -1.75 87.65 -2.05 88.2 -2.7 88.3 -2.55 Q88.95 -1.35 89.55 -1.4 L90.4 -1.55 Q91.85 -2.25 91.75 -3.35 92.35 -3.1 92.8 -2.65 L93.05 -1.45 93.1 -1.25 93.1 -0.9 93.1 -0.65 92.7 -0.4 92.55 -0.35 92.35 -0.15 90.3 0.2 89.95 0.1 88.75 0.15 88.3 0.1 88.3 0.15 87.2 -0.05 86.6 -0.15" fill="#ffcc00" fill-rule="evenodd" stroke="none"/>
    <path d="M88.2 -2.7 Q87.65 -3.95 88.8 -4.55 90.85 -5.3 91.5 -4.2 L91.75 -3.35 Q91.85 -2.25 90.4 -1.55 L89.55 -1.4 Q88.95 -1.35 88.3 -2.55 L88.2 -2.7" fill="#ffffff" fill-rule="evenodd" stroke="none"/>
    <path d="M87.25 1.15 L86.8 0.25 86.6 -0.15 87.2 -0.05 88.3 0.15 88.3 0.1 88.75 0.15 89.95 0.1 90.3 0.2 92.35 -0.15 92.55 -0.35 92.7 -0.4 93.1 -0.65 93.1 -0.9 Q93.25 -0.4 92.6 0.35 L91.65 1.3 Q90.65 1.75 89.25 1.3 L87.8 1.05 87.25 1.15" fill="#ff9900" fill-rule="evenodd" stroke="none"/>
  </g>
</svg>
