<?xml version="1.0" encoding="UTF-8" standalone="no"?>
<svg xmlns:ffdec="https://www.free-decompiler.com/flash" xmlns:xlink="http://www.w3.org/1999/xlink" ffdec:objectType="shape" height="51.1px" width="93.15px" xmlns="http://www.w3.org/2000/svg">
  <g transform="matrix(1.0, 0.0, 0.0, 1.0, 17.6, 161.3)">
    <path d="M13.4 -150.9 L16.85 -151.95 Q14.2 -152.95 11.45 -154.1 10.1 -154.55 6.2 -156.35 L6.05 -156.35 6.2 -156.15 4.15 -156.75 3.95 -156.9 Q0.5 -159.15 -3.9 -158.8 L-4.8 -158.5 Q-9.15 -157.15 -11.5 -154.85 L-13.0 -153.0 -13.8 -151.0 -14.55 -149.1 Q-15.05 -147.5 -15.0 -145.95 -14.95 -143.9 -13.9 -142.25 L-13.6 -141.8 -13.3 -140.95 -10.5 -138.95 -4.1 -135.85 -1.7 -134.65 2.4 -132.95 5.4 -131.8 5.6 -131.75 5.8 -131.65 5.85 -131.65 6.0 -131.6 5.95 -131.55 6.15 -131.4 Q6.75 -131.05 7.0 -131.05 7.5 -131.05 7.95 -131.35 L8.2 -131.5 8.3 -131.3 8.65 -131.6 10.05 -132.55 9.85 -133.5 9.35 -136.05 9.4 -136.75 9.55 -138.15 9.9 -140.3 Q9.95 -141.2 10.5 -142.15 L10.6 -142.45 Q10.95 -143.45 11.7 -144.2 L13.05 -145.35 Q13.9 -146.15 14.5 -146.55 15.4 -147.25 16.4 -147.6 L16.5 -147.65 17.75 -148.05 20.2 -148.25 Q22.3 -147.9 24.05 -146.55 L25.8 -145.25 26.35 -144.75 Q26.75 -144.8 27.0 -145.1 L27.35 -145.05 27.15 -145.35 27.3 -145.95 26.95 -146.8 26.2 -147.65 Q25.5 -148.75 23.7 -149.8 20.95 -151.45 18.2 -151.45 L13.4 -150.9 M18.25 -153.85 Q20.4 -153.4 23.2 -152.2 26.7 -150.8 27.6 -149.65 L29.1 -147.2 Q30.15 -145.2 30.2 -144.35 30.2 -143.6 28.7 -143.25 L25.65 -142.55 Q25.1 -142.55 25.05 -143.05 L25.15 -143.35 24.85 -143.7 Q23.05 -145.75 19.65 -145.8 L17.95 -145.75 Q16.25 -145.55 15.05 -144.85 L14.55 -144.5 Q13.05 -143.5 12.05 -141.45 11.5 -140.25 11.5 -138.95 L11.65 -137.15 11.65 -136.6 11.7 -134.2 12.05 -133.05 12.25 -132.0 12.25 -131.5 11.15 -130.9 8.55 -129.25 7.6 -128.5 Q4.1 -129.05 -5.35 -133.65 -7.6 -134.95 -12.45 -137.15 -15.95 -139.0 -16.25 -140.75 L-17.05 -142.85 -17.6 -146.05 Q-17.75 -151.6 -13.2 -156.65 L-10.55 -159.15 -9.35 -160.0 Q-7.0 -161.4 -4.75 -161.25 0.2 -161.75 8.0 -158.4 L18.25 -153.85 M35.95 -141.7 Q38.3 -143.15 40.55 -142.95 45.55 -143.45 53.4 -140.1 L63.6 -135.6 68.6 -133.95 Q72.1 -132.55 72.95 -131.35 L74.5 -128.9 Q75.55 -126.9 75.55 -126.05 75.6 -125.3 74.1 -124.95 L71.0 -124.25 Q70.45 -124.25 70.45 -124.75 L70.55 -125.05 70.25 -125.4 Q68.45 -127.5 65.05 -127.5 L63.35 -127.45 Q61.65 -127.25 60.45 -126.6 L59.9 -126.25 Q58.45 -125.2 57.45 -123.15 56.9 -121.95 56.85 -120.65 L57.0 -118.85 57.05 -118.3 57.1 -115.9 57.4 -114.75 57.65 -113.7 57.6 -113.2 56.55 -112.65 Q55.45 -112.1 53.95 -110.95 L53.0 -110.2 Q49.5 -110.75 39.95 -115.35 37.75 -116.65 32.85 -118.85 29.35 -120.7 29.05 -122.45 28.6 -123.15 28.25 -124.55 L27.75 -127.75 Q27.6 -133.3 32.15 -138.35 L34.8 -140.9 35.95 -141.7 M33.85 -136.55 L32.35 -134.7 31.55 -132.7 30.8 -130.85 Q30.3 -129.25 30.35 -127.7 30.4 -125.65 31.45 -123.95 L31.75 -123.5 32.0 -122.65 34.8 -120.7 Q39.1 -118.5 41.25 -117.55 L43.7 -116.4 47.8 -114.7 50.75 -113.5 50.95 -113.45 51.15 -113.35 51.2 -113.35 51.35 -113.35 51.3 -113.25 51.5 -113.15 Q52.15 -112.8 52.4 -112.8 52.9 -112.75 53.3 -113.05 L53.55 -113.2 53.65 -113.0 54.0 -113.3 55.45 -114.25 Q55.25 -114.7 55.2 -115.2 54.9 -116.5 54.75 -117.75 L54.75 -118.45 54.95 -119.85 55.3 -122.0 Q55.35 -122.95 55.9 -123.9 L55.95 -124.2 Q56.35 -125.2 57.05 -125.9 L58.45 -127.05 59.85 -128.3 61.8 -129.3 61.9 -129.35 63.1 -129.75 65.55 -129.95 Q67.65 -129.65 69.4 -128.25 70.3 -127.75 71.2 -126.95 L71.75 -126.45 72.4 -126.85 72.75 -126.8 72.55 -127.1 72.65 -127.7 72.35 -128.55 71.55 -129.35 Q70.9 -130.45 69.05 -131.5 66.3 -133.15 63.55 -133.2 60.6 -133.2 58.8 -132.6 L62.2 -133.65 56.8 -135.8 51.6 -138.1 51.45 -138.1 51.6 -137.9 49.55 -138.45 49.35 -138.6 Q45.85 -140.85 41.45 -140.5 L40.55 -140.2 Q36.2 -138.85 33.85 -136.55 M-3.95 -159.1 L-0.9 -159.1 -3.15 -159.3 -3.85 -159.15 -3.95 -159.1" fill="#775f0c" fill-rule="evenodd" stroke="none"/>
    <path d="M-4.8 -158.5 L-3.9 -158.8 Q0.5 -159.15 3.95 -156.9 L4.15 -156.75 6.2 -156.15 6.05 -156.35 6.2 -156.35 Q10.1 -154.55 11.45 -154.1 14.2 -152.95 16.85 -151.95 L13.4 -150.9 13.05 -150.75 13.0 -150.75 Q8.8 -154.1 2.7 -156.35 -1.65 -157.95 -4.8 -158.5 M-14.55 -149.1 L-13.8 -151.0 -13.0 -153.0 -11.5 -154.85 Q-11.0 -149.85 -5.85 -147.1 -1.35 -144.75 6.05 -144.25 4.0 -140.95 4.05 -137.7 L4.1 -137.5 Q1.15 -138.5 -2.2 -140.7 -3.65 -141.7 -4.9 -142.0 L-8.2 -142.25 Q-10.85 -142.15 -12.75 -144.85 -14.05 -146.65 -14.55 -149.1 M51.4 -126.0 Q49.35 -122.65 49.45 -119.4 L49.45 -119.2 Q46.55 -120.2 43.15 -122.45 L40.45 -123.7 37.15 -123.95 Q34.5 -123.9 32.55 -126.55 31.25 -128.35 30.8 -130.85 L31.55 -132.7 32.35 -134.7 33.85 -136.55 Q34.35 -131.6 39.5 -128.85 44.0 -126.45 51.4 -126.0 M58.8 -132.6 L58.45 -132.45 58.4 -132.45 Q54.15 -135.8 48.1 -138.05 43.7 -139.65 40.55 -140.2 L41.45 -140.5 Q45.85 -140.85 49.35 -138.6 L49.55 -138.45 51.6 -137.9 51.45 -138.1 51.6 -138.1 56.8 -135.8 62.2 -133.65 58.8 -132.6" fill="#ffcc00" fill-rule="evenodd" stroke="none"/>
    <path d="M-11.5 -154.85 Q-9.15 -157.15 -4.8 -158.5 -1.65 -157.95 2.7 -156.35 8.8 -154.1 13.0 -150.75 L13.05 -150.75 11.8 -150.05 11.5 -149.9 Q8.95 -148.4 7.1 -145.9 L6.05 -144.25 Q-1.35 -144.75 -5.85 -147.1 -11.0 -149.85 -11.5 -154.85 M51.4 -126.0 Q44.0 -126.45 39.5 -128.85 34.35 -131.6 33.85 -136.55 36.2 -138.85 40.55 -140.2 43.7 -139.65 48.1 -138.05 54.15 -135.8 58.4 -132.45 L58.45 -132.45 57.15 -131.75 56.85 -131.6 Q54.3 -130.1 52.5 -127.6 L51.4 -126.0" fill="#ffff99" fill-rule="evenodd" stroke="none"/>
    <path d="M13.4 -150.9 L18.2 -151.45 Q20.95 -151.45 23.7 -149.8 25.5 -148.75 26.2 -147.65 L24.7 -148.75 Q21.8 -150.65 18.65 -150.65 16.0 -150.7 13.95 -149.95 9.75 -148.65 7.6 -144.6 L7.4 -144.2 Q5.55 -140.7 5.6 -137.05 L5.6 -136.95 6.05 -134.2 Q6.8 -131.6 8.1 -131.6 L8.15 -131.6 8.2 -131.5 7.95 -131.35 Q7.5 -131.05 7.0 -131.05 6.75 -131.05 6.15 -131.4 L5.95 -131.55 6.0 -131.6 5.85 -131.65 5.8 -131.65 5.6 -131.75 5.4 -131.8 2.4 -132.95 -1.7 -134.65 -4.1 -135.85 -10.5 -138.95 -13.3 -140.95 -13.6 -141.8 -13.9 -142.25 Q-14.95 -143.9 -15.0 -145.95 -15.05 -147.5 -14.55 -149.1 -14.05 -146.65 -12.75 -144.85 -10.85 -142.15 -8.2 -142.25 L-4.9 -142.0 Q-3.65 -141.7 -2.2 -140.7 1.15 -138.5 4.1 -137.5 L4.05 -137.7 Q4.0 -140.95 6.05 -144.25 L7.1 -145.9 Q8.95 -148.4 11.5 -149.9 L11.8 -150.05 13.05 -150.75 13.4 -150.9 M30.8 -130.85 Q31.25 -128.35 32.55 -126.55 34.5 -123.9 37.15 -123.95 L40.45 -123.7 43.15 -122.45 Q46.55 -120.2 49.45 -119.2 L49.45 -119.4 Q49.35 -122.65 51.4 -126.0 L52.5 -127.6 Q54.3 -130.1 56.85 -131.6 L57.15 -131.75 58.45 -132.45 58.8 -132.6 Q60.6 -133.2 63.55 -133.2 66.3 -133.15 69.05 -131.5 70.9 -130.45 71.55 -129.35 L70.1 -130.45 Q67.2 -132.35 64.05 -132.4 L59.3 -131.7 Q55.15 -130.4 52.95 -126.3 L52.75 -125.9 Q50.9 -122.4 50.95 -118.75 L50.95 -118.65 51.45 -115.95 Q52.15 -113.35 53.45 -113.3 L53.5 -113.3 53.55 -113.2 53.3 -113.05 Q52.9 -112.75 52.4 -112.8 52.15 -112.8 51.5 -113.15 L51.3 -113.25 51.35 -113.35 51.2 -113.35 51.15 -113.35 50.95 -113.45 50.75 -113.5 47.8 -114.7 43.7 -116.4 41.25 -117.55 Q39.1 -118.5 34.8 -120.7 L32.0 -122.65 31.75 -123.5 31.45 -123.95 Q30.4 -125.65 30.35 -127.7 30.3 -129.25 30.8 -130.85" fill="#ff9900" fill-rule="evenodd" stroke="none"/>
    <path d="M26.2 -147.65 L26.95 -146.8 27.3 -145.95 27.15 -145.35 27.35 -145.05 27.0 -145.1 Q26.75 -144.8 26.35 -144.75 L25.8 -145.25 24.05 -146.55 Q22.3 -147.9 20.2 -148.25 L17.75 -148.05 16.5 -147.65 16.4 -147.6 Q15.4 -147.25 14.5 -146.55 13.9 -146.15 13.05 -145.35 L11.7 -144.2 Q10.95 -143.45 10.6 -142.45 L10.5 -142.15 Q9.95 -141.2 9.9 -140.3 L9.55 -138.15 9.4 -136.75 9.35 -136.05 9.85 -133.5 10.05 -132.55 8.65 -131.6 8.3 -131.3 8.2 -131.5 8.15 -131.6 8.1 -131.6 Q6.8 -131.6 6.05 -134.2 L5.6 -136.95 5.6 -137.05 Q5.55 -140.7 7.4 -144.2 L7.6 -144.6 Q9.75 -148.65 13.95 -149.95 16.0 -150.7 18.65 -150.65 21.8 -150.65 24.7 -148.75 L26.2 -147.65 M53.55 -113.2 L53.5 -113.3 53.45 -113.3 Q52.15 -113.35 51.45 -115.95 L50.95 -118.65 50.95 -118.75 Q50.9 -122.4 52.75 -125.9 L52.95 -126.3 Q55.15 -130.4 59.3 -131.7 L64.05 -132.4 Q67.2 -132.35 70.1 -130.45 L71.55 -129.35 72.35 -128.55 72.65 -127.7 72.55 -127.1 72.75 -126.8 72.4 -126.85 71.75 -126.45 71.2 -126.95 Q70.3 -127.75 69.4 -128.25 67.65 -129.65 65.55 -129.95 L63.1 -129.75 61.9 -129.35 61.8 -129.3 59.85 -128.3 58.45 -127.05 57.05 -125.9 Q56.35 -125.2 55.95 -124.2 L55.9 -123.9 Q55.35 -122.95 55.3 -122.0 L54.95 -119.85 54.75 -118.45 54.75 -117.75 Q54.9 -116.5 55.2 -115.2 55.25 -114.7 55.45 -114.25 L54.0 -113.3 53.65 -113.0 53.55 -113.2" fill="#d27e02" fill-rule="evenodd" stroke="none"/>
  </g>
</svg>
