<?xml version="1.0" encoding="UTF-8" standalone="no"?>
<svg xmlns:ffdec="https://www.free-decompiler.com/flash" xmlns:xlink="http://www.w3.org/1999/xlink" ffdec:objectType="shape" height="400.35px" width="414.85px" xmlns="http://www.w3.org/2000/svg">
  <g transform="matrix(1.0, 0.0, 0.0, 1.0, 207.85, 397.55)">
    <path d="M207.0 -288.45 L203.75 -282.0 Q195.3 -273.6 189.15 -263.65 187.75 -261.4 187.55 -258.9 186.85 -248.9 179.7 -242.05 172.45 -235.2 163.75 -229.9 156.2 -225.2 151.25 -217.75 145.0 -208.4 144.7 -196.9 144.25 -181.65 133.4 -170.9 118.35 -156.0 100.5 -144.15 L96.4 -141.35 93.85 -139.3 Q89.05 -135.35 85.25 -130.4 82.35 -126.7 81.5 -122.2 80.85 -119.0 80.5 -115.85 L79.35 -103.9 Q78.9 -97.8 77.25 -91.8 75.85 -86.6 72.9 -82.2 68.95 -76.3 63.4 -71.55 56.1 -65.2 48.35 -59.2 42.45 -54.65 37.2 -49.5 34.0 -46.4 32.75 -42.0 31.7 -38.5 32.05 -34.7 33.0 -24.3 31.15 -14.6 L27.15 -14.25 -0.9 2.8 -75.15 -30.2 Q-76.6 -29.8 -77.55 -30.5 -83.2 -34.55 -82.75 -42.4 -82.3 -49.35 -85.5 -55.4 -87.65 -59.5 -91.9 -61.4 -101.1 -65.55 -107.3 -73.4 -109.3 -75.85 -109.75 -79.1 -111.95 -94.65 -110.25 -110.55 -108.8 -123.85 -109.6 -137.25 -110.0 -143.75 -112.85 -149.4 -120.0 -163.8 -134.3 -171.9 -144.0 -177.35 -152.35 -184.3 -169.3 -198.35 -166.3 -220.25 -164.75 -231.3 -165.8 -242.3 -166.45 -249.0 -170.35 -254.7 -179.1 -267.4 -190.7 -277.8 -203.5 -289.3 -206.3 -306.1 L-207.35 -312.0 Q-208.9 -320.4 -205.4 -327.9 -204.8 -329.15 -203.55 -330.15 -195.25 -336.65 -185.95 -342.5 -171.35 -351.7 -156.1 -359.65 -135.85 -370.35 -114.5 -378.5 -94.2 -386.3 -72.9 -390.9 -61.2 -393.55 -49.15 -395.1 -27.6 -398.0 -6.05 -397.45 12.3 -397.0 30.45 -393.8 48.55 -390.75 65.85 -385.2 83.5 -379.45 100.05 -371.6 117.25 -363.25 133.2 -352.8 146.5 -344.15 158.8 -334.1 184.65 -312.95 207.0 -288.45" fill="url(#gradient0)" fill-rule="evenodd" stroke="none"/>
  </g>
  <defs>
    <radialGradient cx="0" cy="0" gradientTransform="matrix(0.3116, 0.0, 0.0, 0.4846, -23.0, 27.8)" gradientUnits="userSpaceOnUse" id="gradient0" r="819.2" spreadMethod="pad">
      <stop offset="0.0" stop-color="#ffcc00" stop-opacity="0.5764706"/>
      <stop offset="1.0" stop-color="#ffcc00" stop-opacity="0.0"/>
    </radialGradient>
  </defs>
</svg>
