<?xml version="1.0" encoding="UTF-8" standalone="no"?>
<svg xmlns:ffdec="https://www.free-decompiler.com/flash" xmlns:xlink="http://www.w3.org/1999/xlink" ffdec:objectType="shape" height="394.75px" width="417.65px" xmlns="http://www.w3.org/2000/svg">
  <g transform="matrix(1.0, 0.0, 0.0, 1.0, 212.6, 397.5)">
    <path d="M174.75 -320.55 Q187.35 -309.0 199.0 -297.3 L205.05 -290.35 Q203.7 -287.4 203.55 -284.15 203.25 -279.1 200.55 -275.05 194.0 -265.3 183.35 -259.6 167.6 -251.15 162.9 -234.05 162.35 -232.05 162.35 -229.95 162.25 -208.55 146.3 -194.7 130.5 -181.05 113.5 -169.2 106.0 -163.85 100.85 -156.2 98.95 -153.3 98.25 -150.2 L98.05 -149.15 Q97.45 -145.2 97.15 -141.35 L96.0 -129.15 Q95.5 -124.3 94.3 -119.75 92.95 -114.6 89.95 -110.15 85.95 -104.15 80.45 -99.45 72.95 -93.15 65.3 -87.2 59.45 -82.65 54.25 -77.4 50.2 -73.4 49.25 -67.6 48.15 -60.75 48.85 -53.8 49.4 -48.5 48.75 -43.2 L47.35 -42.1 47.05 -41.95 Q46.4 -34.7 46.05 -27.45 L6.7 -2.75 -80.85 -26.65 Q-86.05 -47.35 -91.7 -67.85 -91.75 -68.05 -92.25 -68.05 L-91.5 -72.0 -95.8 -72.4 Q-97.65 -75.45 -97.5 -79.0 -97.25 -86.65 -100.6 -93.3 -102.3 -96.75 -105.55 -98.65 -111.7 -102.35 -117.65 -106.55 -121.05 -108.95 -122.9 -112.5 -127.15 -120.5 -126.5 -129.8 -125.7 -141.95 -124.4 -154.1 -122.9 -168.45 -126.05 -182.5 -127.4 -188.55 -131.2 -193.45 -139.3 -204.1 -151.15 -210.75 -162.1 -216.95 -171.3 -225.55 -174.65 -228.65 -176.7 -232.75 -178.3 -235.8 -179.45 -239.0 -182.0 -246.05 -181.8 -253.6 L-181.6 -256.8 -180.9 -264.25 -180.1 -272.85 Q-179.75 -276.6 -180.35 -280.35 -181.45 -286.95 -185.0 -292.9 -187.3 -296.75 -190.25 -300.1 L-197.2 -307.25 -206.05 -316.1 -212.6 -323.5 Q-199.5 -335.05 -184.15 -343.95 -169.2 -352.7 -153.8 -360.4 -142.0 -366.3 -129.95 -371.7 -112.6 -379.5 -94.55 -384.9 -77.3 -390.15 -59.55 -393.4 -42.4 -396.35 -24.95 -397.2 -8.25 -398.05 8.35 -396.6 26.2 -395.15 43.8 -391.25 61.35 -387.35 78.3 -381.05 95.35 -374.5 111.55 -365.75 128.3 -356.7 143.75 -345.65 159.95 -334.05 174.75 -320.55" fill="url(#gradient0)" fill-rule="evenodd" stroke="none"/>
  </g>
  <defs>
    <radialGradient cx="0" cy="0" gradientTransform="matrix(0.3116, 0.0, 0.0, 0.4846, -23.0, 27.8)" gradientUnits="userSpaceOnUse" id="gradient0" r="819.2" spreadMethod="pad">
      <stop offset="0.0" stop-color="#ffcc00" stop-opacity="0.5764706"/>
      <stop offset="1.0" stop-color="#ffcc00" stop-opacity="0.0"/>
    </radialGradient>
  </defs>
</svg>
