<?xml version="1.0" encoding="UTF-8" standalone="no"?>
<svg xmlns:ffdec="https://www.free-decompiler.com/flash" xmlns:xlink="http://www.w3.org/1999/xlink" ffdec:objectType="shape" height="369.6px" width="408.95px" xmlns="http://www.w3.org/2000/svg">
  <g transform="matrix(1.0, 0.0, 0.0, 1.0, 205.25, 371.05)">
    <path d="M198.55 -297.35 L203.7 -291.8 Q202.15 -280.8 194.8 -273.2 L193.15 -272.15 Q185.5 -269.15 180.85 -262.65 179.55 -260.85 179.25 -258.75 177.4 -247.05 175.95 -235.15 175.6 -232.45 174.5 -229.9 169.25 -217.55 157.65 -210.55 149.85 -205.8 143.45 -199.55 136.95 -193.15 135.05 -184.15 L128.3 -152.65 Q124.35 -134.7 114.7 -119.1 108.3 -108.7 96.65 -106.25 88.65 -104.5 84.7 -97.15 77.65 -84.15 74.5 -69.75 71.25 -54.9 63.5 -42.15 62.45 -40.35 60.8 -39.35 48.9 -32.65 36.7 -26.55 L35.45 -27.05 Q24.0 -16.35 11.2 -7.65 5.1 -3.55 -2.4 -1.45 L-75.0 -34.15 -77.4 -31.75 Q-83.65 -34.85 -87.1 -41.95 -89.1 -46.0 -91.35 -49.75 -95.0 -55.8 -95.15 -62.7 -95.2 -64.3 -94.65 -65.8 -90.05 -77.9 -95.3 -89.25 -97.0 -92.95 -99.95 -95.8 -106.05 -101.7 -112.8 -107.15 -125.3 -117.2 -135.65 -129.2 -145.2 -140.4 -145.1 -154.95 -145.0 -167.35 -141.55 -179.3 -137.8 -192.35 -140.1 -205.55 -141.6 -213.9 -147.45 -219.8 -155.9 -228.35 -165.5 -235.95 -170.7 -240.05 -173.65 -245.9 -180.7 -259.7 -179.85 -275.3 -179.0 -290.75 -183.0 -305.5 -184.4 -310.7 -187.65 -315.0 L-189.3 -317.05 -191.15 -319.1 -191.45 -319.35 Q-198.7 -323.75 -205.25 -328.75 L-201.6 -332.85 -198.75 -332.85 Q-166.3 -358.3 -125.2 -364.7 -13.4 -382.2 95.4 -351.35 L145.35 -337.25 Q152.75 -335.25 159.55 -331.8 165.05 -328.95 169.9 -324.75 184.9 -311.9 198.55 -297.35" fill="url(#gradient0)" fill-rule="evenodd" stroke="none"/>
  </g>
  <defs>
    <radialGradient cx="0" cy="0" gradientTransform="matrix(0.3116, 0.0, 0.0, 0.4846, -23.0, 27.8)" gradientUnits="userSpaceOnUse" id="gradient0" r="819.2" spreadMethod="pad">
      <stop offset="0.0" stop-color="#ffcc00" stop-opacity="0.5764706"/>
      <stop offset="1.0" stop-color="#ffcc00" stop-opacity="0.0"/>
    </radialGradient>
  </defs>
</svg>
