<?xml version="1.0" encoding="UTF-8" standalone="no"?>
<svg xmlns:ffdec="https://www.free-decompiler.com/flash" xmlns:xlink="http://www.w3.org/1999/xlink" ffdec:objectType="shape" height="48.85px" width="93.85px" xmlns="http://www.w3.org/2000/svg">
  <g transform="matrix(1.0, 0.0, 0.0, 1.0, 14.8, 159.4)">
    <path d="M16.05 -149.6 L19.45 -150.8 13.95 -152.75 Q12.6 -153.15 8.65 -154.8 L8.5 -154.8 8.65 -154.6 6.55 -155.1 6.35 -155.25 Q2.8 -157.35 -1.55 -156.8 L-2.45 -156.5 Q-6.75 -155.0 -9.0 -152.55 -9.9 -151.7 -10.4 -150.65 L-11.15 -148.65 -11.8 -146.75 Q-12.25 -145.15 -12.15 -143.6 -12.0 -141.55 -10.9 -139.95 L-10.6 -139.5 -10.3 -138.65 -7.4 -136.8 -0.85 -133.9 1.6 -132.8 5.75 -131.25 8.75 -130.25 8.95 -130.2 9.15 -130.1 9.2 -130.1 9.35 -130.1 9.35 -130.0 9.55 -129.9 10.4 -129.6 11.35 -129.9 11.6 -130.1 11.7 -129.9 12.0 -130.2 13.4 -131.15 13.15 -132.05 12.6 -134.6 12.6 -135.3 12.7 -136.7 12.95 -138.9 Q13.0 -139.85 13.45 -140.8 L13.55 -141.1 Q13.9 -142.1 14.6 -142.9 L15.9 -144.05 17.3 -145.35 Q18.2 -146.1 19.15 -146.45 L19.25 -146.5 20.5 -146.9 22.9 -147.2 Q25.05 -146.95 26.8 -145.7 27.75 -145.25 28.65 -144.45 L29.25 -144.0 29.85 -144.4 30.2 -144.35 30.0 -144.65 30.1 -145.25 29.75 -146.1 28.95 -146.9 Q28.25 -147.9 26.35 -148.9 23.55 -150.45 20.8 -150.35 17.85 -150.3 16.05 -149.6 M25.8 -151.3 Q29.35 -150.05 30.25 -148.9 L31.9 -146.55 Q33.0 -144.6 33.05 -143.75 33.1 -143.0 31.65 -142.6 L28.6 -141.75 Q28.05 -141.75 28.0 -142.25 L28.1 -142.55 27.75 -142.9 Q25.9 -144.9 22.5 -144.8 L20.8 -144.65 Q19.1 -144.4 17.95 -143.65 L17.4 -143.3 Q16.0 -142.2 15.05 -140.15 14.55 -138.9 14.6 -137.6 L14.8 -135.85 14.85 -135.3 15.0 -132.9 15.35 -131.75 15.65 -130.75 15.6 -130.25 14.55 -129.6 Q13.5 -129.05 12.0 -127.85 L11.1 -127.05 Q7.6 -127.45 -2.05 -131.65 L-9.3 -134.9 Q-12.85 -136.6 -13.2 -138.35 -13.7 -139.0 -14.1 -140.4 L-14.75 -143.6 Q-15.1 -149.1 -10.75 -154.3 L-8.25 -156.95 -7.1 -157.85 Q-4.8 -159.35 -2.5 -159.25 2.4 -159.95 10.35 -156.9 L20.75 -152.75 25.8 -151.3 M38.9 -141.35 Q41.2 -142.85 43.45 -142.75 48.35 -143.45 56.35 -140.4 L66.7 -136.25 Q68.9 -135.9 71.75 -134.8 75.3 -133.55 76.25 -132.45 L77.85 -130.05 Q79.0 -128.1 79.05 -127.25 79.1 -126.5 77.6 -126.1 L74.55 -125.25 Q74.0 -125.25 73.95 -125.75 L74.05 -126.05 73.75 -126.4 Q71.85 -128.4 68.45 -128.3 L66.75 -128.15 Q65.05 -127.9 63.9 -127.2 L63.4 -126.8 Q61.95 -125.75 61.05 -123.65 60.5 -122.45 60.55 -121.15 L60.75 -119.35 60.8 -118.8 60.95 -116.45 61.35 -115.3 61.6 -114.25 61.6 -113.75 60.55 -113.1 58.0 -111.35 57.1 -110.55 Q53.55 -111.0 43.9 -115.2 41.65 -116.4 36.75 -118.4 33.15 -120.1 32.8 -121.85 32.3 -122.5 31.9 -123.9 31.45 -125.45 31.25 -127.1 30.9 -132.6 35.25 -137.85 L37.8 -140.45 38.9 -141.35 M37.0 -136.05 Q36.15 -135.2 35.6 -134.2 L34.9 -132.15 34.2 -130.3 Q33.75 -128.65 33.85 -127.1 34.0 -125.05 35.1 -123.45 L35.45 -123.0 35.75 -122.15 38.6 -120.3 45.1 -117.4 Q46.35 -116.85 47.55 -116.35 L51.7 -114.85 54.75 -113.75 54.95 -113.7 55.15 -113.6 55.2 -113.6 55.35 -113.65 55.3 -113.55 55.5 -113.45 Q56.1 -113.1 56.35 -113.1 56.85 -113.1 57.3 -113.45 L57.55 -113.6 57.65 -113.4 58.0 -113.7 59.35 -114.7 59.1 -115.65 Q58.75 -116.9 58.55 -118.1 L58.55 -118.8 58.65 -120.25 58.9 -122.4 Q58.95 -123.35 59.45 -124.3 L59.5 -124.6 Q59.85 -125.6 60.55 -126.4 L61.9 -127.6 63.25 -128.85 Q64.15 -129.6 65.15 -129.95 L65.2 -130.0 66.45 -130.45 68.9 -130.75 Q71.0 -130.55 72.8 -129.2 L74.65 -127.95 75.2 -127.5 75.85 -127.9 76.2 -127.85 75.95 -128.15 76.1 -128.75 75.7 -129.6 74.9 -130.4 Q74.2 -131.45 72.35 -132.45 69.5 -133.95 66.75 -133.85 63.8 -133.8 62.0 -133.1 63.55 -133.85 65.4 -134.3 L59.9 -136.25 54.6 -138.3 54.45 -138.3 54.6 -138.1 52.55 -138.6 52.35 -138.75 Q48.8 -140.85 44.4 -140.35 L43.55 -140.0 Q39.2 -138.5 37.0 -136.05 M-1.6 -157.1 L1.4 -157.25 -0.85 -157.35 -1.55 -157.15 -1.6 -157.1" fill="#775f0c" fill-rule="evenodd" stroke="none"/>
    <path d="M-2.45 -156.5 L-1.55 -156.8 Q2.8 -157.35 6.35 -155.25 L6.55 -155.1 8.65 -154.6 8.5 -154.8 8.65 -154.8 Q12.6 -153.15 13.95 -152.75 L19.45 -150.8 16.05 -149.6 15.7 -149.4 15.65 -149.4 Q11.3 -152.6 5.15 -154.65 0.7 -156.1 -2.45 -156.5 M-11.8 -146.75 L-11.15 -148.65 -10.4 -150.65 Q-9.9 -151.7 -9.0 -152.55 -8.3 -147.65 -3.05 -145.1 1.5 -142.95 8.95 -142.75 7.0 -139.3 7.2 -136.05 L7.25 -135.85 Q4.25 -136.75 0.85 -138.85 -0.65 -139.75 -1.9 -140.05 L-5.2 -140.15 Q-7.85 -139.95 -9.9 -142.55 -11.25 -144.35 -11.8 -146.75 M54.9 -126.25 Q52.95 -122.85 53.2 -119.6 L53.2 -119.4 Q50.25 -120.25 46.8 -122.35 45.35 -123.3 44.05 -123.55 L40.75 -123.65 Q38.15 -123.5 36.15 -126.1 34.75 -127.85 34.2 -130.3 L34.9 -132.15 35.6 -134.2 Q36.15 -135.2 37.0 -136.05 37.7 -131.2 42.95 -128.6 47.5 -126.45 54.9 -126.25 M62.0 -133.1 L61.65 -132.95 61.6 -132.95 Q57.25 -136.1 51.1 -138.15 46.65 -139.6 43.55 -140.0 L44.4 -140.35 Q48.8 -140.85 52.35 -138.75 L52.55 -138.6 54.6 -138.1 54.45 -138.3 54.6 -138.3 59.9 -136.25 65.4 -134.3 Q63.55 -133.85 62.0 -133.1" fill="#ffcc00" fill-rule="evenodd" stroke="none"/>
    <path d="M16.05 -149.6 Q17.85 -150.3 20.8 -150.35 23.55 -150.45 26.35 -148.9 28.25 -147.9 28.95 -146.9 L27.45 -147.9 Q24.45 -149.65 21.3 -149.6 18.65 -149.5 16.6 -148.7 12.5 -147.25 10.45 -143.1 L10.3 -142.7 Q8.6 -139.1 8.75 -135.45 L8.75 -135.35 9.35 -132.65 Q10.15 -130.15 11.45 -130.2 L11.5 -130.2 11.6 -130.1 11.35 -129.9 10.4 -129.6 9.55 -129.9 9.35 -130.0 9.35 -130.1 9.2 -130.1 9.15 -130.1 8.95 -130.2 8.75 -130.25 5.75 -131.25 1.6 -132.8 -0.85 -133.9 -7.4 -136.8 -10.3 -138.65 -10.6 -139.5 -10.9 -139.95 Q-12.0 -141.55 -12.15 -143.6 -12.25 -145.15 -11.8 -146.75 -11.25 -144.35 -9.9 -142.55 -7.85 -139.95 -5.2 -140.15 L-1.9 -140.05 Q-0.65 -139.75 0.85 -138.85 4.25 -136.75 7.25 -135.85 L7.2 -136.05 Q7.0 -139.3 8.95 -142.75 L9.95 -144.4 Q11.65 -146.9 14.15 -148.55 L14.45 -148.7 15.7 -149.4 16.05 -149.6 M34.2 -130.3 Q34.75 -127.85 36.15 -126.1 38.15 -123.5 40.75 -123.65 L44.05 -123.55 Q45.35 -123.3 46.8 -122.35 50.25 -120.25 53.2 -119.4 L53.2 -119.6 Q52.95 -122.85 54.9 -126.25 L55.9 -127.9 Q57.65 -130.45 60.15 -132.1 L60.4 -132.25 61.65 -132.95 62.0 -133.1 Q63.8 -133.8 66.75 -133.85 69.5 -133.95 72.35 -132.45 74.2 -131.45 74.9 -130.4 L73.4 -131.45 Q70.4 -133.15 67.25 -133.1 64.6 -133.0 62.55 -132.25 58.45 -130.8 56.45 -126.65 L56.25 -126.2 Q54.55 -122.6 54.75 -118.95 L54.75 -118.85 55.3 -116.25 Q56.15 -113.65 57.45 -113.7 L57.5 -113.7 57.55 -113.6 57.3 -113.45 Q56.85 -113.1 56.35 -113.1 56.1 -113.1 55.5 -113.45 L55.3 -113.55 55.35 -113.65 55.2 -113.6 55.15 -113.6 54.95 -113.7 54.75 -113.75 51.7 -114.85 47.55 -116.35 Q46.35 -116.85 45.1 -117.4 L38.6 -120.3 35.75 -122.15 35.45 -123.0 35.1 -123.45 Q34.0 -125.05 33.85 -127.1 33.75 -128.65 34.2 -130.3" fill="#ff9900" fill-rule="evenodd" stroke="none"/>
    <path d="M-9.0 -152.55 Q-6.75 -155.0 -2.45 -156.5 0.7 -156.1 5.15 -154.65 11.3 -152.6 15.65 -149.4 L15.7 -149.4 14.45 -148.7 14.15 -148.55 Q11.65 -146.9 9.95 -144.4 L8.95 -142.75 Q1.5 -142.95 -3.05 -145.1 -8.3 -147.65 -9.0 -152.55 M54.9 -126.25 Q47.5 -126.45 42.95 -128.6 37.7 -131.2 37.0 -136.05 39.2 -138.5 43.55 -140.0 46.65 -139.6 51.1 -138.15 57.25 -136.1 61.6 -132.95 L61.65 -132.95 60.4 -132.25 60.15 -132.1 Q57.65 -130.45 55.9 -127.9 L54.9 -126.25" fill="#ffff99" fill-rule="evenodd" stroke="none"/>
    <path d="M28.95 -146.9 L29.75 -146.1 30.1 -145.25 30.0 -144.65 30.2 -144.35 29.85 -144.4 29.25 -144.0 28.65 -144.45 Q27.75 -145.25 26.8 -145.7 25.05 -146.95 22.9 -147.2 L20.5 -146.9 19.25 -146.5 19.15 -146.45 Q18.2 -146.1 17.3 -145.35 L15.9 -144.05 14.6 -142.9 Q13.9 -142.1 13.55 -141.1 L13.45 -140.8 Q13.0 -139.85 12.95 -138.9 L12.7 -136.7 12.6 -135.3 12.6 -134.6 13.15 -132.05 13.4 -131.15 12.0 -130.2 11.7 -129.9 11.6 -130.1 11.5 -130.2 11.45 -130.2 Q10.15 -130.15 9.35 -132.65 L8.75 -135.35 8.75 -135.45 Q8.6 -139.1 10.3 -142.7 L10.45 -143.1 Q12.5 -147.25 16.6 -148.7 18.65 -149.5 21.3 -149.6 24.45 -149.65 27.45 -147.9 L28.95 -146.9 M57.55 -113.6 L57.5 -113.7 57.45 -113.7 Q56.15 -113.65 55.3 -116.25 L54.75 -118.85 54.75 -118.95 Q54.55 -122.6 56.25 -126.2 L56.45 -126.65 Q58.45 -130.8 62.55 -132.25 64.6 -133.0 67.25 -133.1 70.4 -133.15 73.4 -131.45 L74.9 -130.4 75.7 -129.6 76.1 -128.75 75.95 -128.15 76.2 -127.85 75.85 -127.9 75.2 -127.5 74.65 -127.95 72.8 -129.2 Q71.0 -130.55 68.9 -130.75 L66.45 -130.45 65.2 -130.0 65.15 -129.95 Q64.15 -129.6 63.25 -128.85 L61.9 -127.6 60.55 -126.4 Q59.85 -125.6 59.5 -124.6 L59.45 -124.3 Q58.95 -123.35 58.9 -122.4 L58.65 -120.25 58.55 -118.8 58.55 -118.1 Q58.75 -116.9 59.1 -115.65 L59.35 -114.7 58.0 -113.7 57.65 -113.4 57.55 -113.6" fill="#d27e02" fill-rule="evenodd" stroke="none"/>
  </g>
</svg>
