<?xml version="1.0" encoding="UTF-8" standalone="no"?>
<svg xmlns:ffdec="https://www.free-decompiler.com/flash" xmlns:xlink="http://www.w3.org/1999/xlink" ffdec:objectType="shape" height="31.65px" width="29.9px" xmlns="http://www.w3.org/2000/svg">
  <g transform="matrix(1.0, 0.0, 0.0, 1.0, 13.6, 13.9)">
    <path d="M8.8 -2.9 Q4.05 5.7 15.35 2.05 7.85 6.0 16.3 7.7 5.0 5.85 9.35 11.55 -1.55 2.85 -4.25 14.05 L-4.9 17.75 Q-5.05 15.0 -6.05 14.3 -7.0 13.65 -8.65 16.4 L-7.65 14.05 Q-2.85 2.1 -12.75 11.4 -9.35 8.0 -13.6 4.0 -8.0 5.0 -8.25 3.0 -8.5 0.95 -10.1 -0.7 -6.1 -1.6 -6.2 -3.55 -6.3 -5.55 -7.05 -6.65 -3.15 -2.55 -5.85 -9.55 -0.45 -5.05 -0.3 -9.25 L0.0 -13.9 Q-0.35 0.35 3.75 -0.4 7.75 -1.1 8.8 -2.9" fill="#ffffff" fill-rule="evenodd" stroke="none"/>
  </g>
</svg>
