<?xml version="1.0" encoding="UTF-8" standalone="no"?>
<svg xmlns:ffdec="https://www.free-decompiler.com/flash" xmlns:xlink="http://www.w3.org/1999/xlink" ffdec:objectType="shape" height="85.15px" width="82.5px" xmlns="http://www.w3.org/2000/svg">
  <g transform="matrix(1.0, 0.0, 0.0, 1.0, 70.6, 147.4)">
    <path d="M-29.0 -137.0 Q-28.0 -132.4 -28.1 -125.25 -28.15 -116.15 -27.8 -112.7 L-16.5 -114.25 0.5 -115.45 0.5 -115.65 Q0.5 -117.5 2.3 -118.95 3.95 -120.3 6.2 -120.5 11.9 -121.1 11.9 -115.3 11.9 -113.15 10.75 -111.45 9.85 -110.1 8.4 -109.5 7.25 -108.6 5.4 -108.6 L5.3 -108.6 3.95 -108.6 3.85 -108.8 3.3 -109.0 Q0.8 -107.15 -10.1 -101.05 -22.85 -93.85 -28.15 -91.3 L-28.95 -91.8 -28.55 -92.1 -28.95 -92.0 -29.95 -91.7 Q-32.85 -90.9 -35.25 -90.9 L-36.8 -91.1 -36.8 -95.8 Q-36.4 -96.95 -36.45 -100.25 -36.5 -101.8 -36.2 -102.7 L-41.15 -102.7 -45.15 -102.85 -48.6 -103.2 -48.9 -103.25 -49.0 -103.9 -47.7 -109.05 -47.3 -111.4 -46.95 -112.45 Q-48.8 -111.6 -54.95 -109.7 L-62.75 -107.4 -63.95 -107.6 -64.2 -111.55 -64.7 -111.35 Q-65.6 -113.55 -66.6 -123.3 -67.45 -132.1 -67.45 -136.3 L-67.45 -136.6 Q-68.8 -137.1 -69.8 -139.9 L-70.6 -143.05 Q-70.6 -146.8 -66.45 -146.45 -62.35 -146.15 -62.35 -142.75 L-62.55 -141.25 -62.75 -139.65 -63.55 -139.25 Q-64.9 -139.8 -64.55 -140.9 L-63.9 -142.55 Q-63.9 -143.25 -64.8 -144.15 -65.7 -145.05 -66.3 -145.05 -68.45 -145.05 -68.95 -143.95 L-69.05 -142.75 Q-69.05 -141.75 -67.7 -139.85 L-65.9 -137.25 -66.05 -136.8 -66.25 -136.6 Q-65.35 -132.45 -64.6 -123.6 L-63.9 -113.55 -63.55 -113.7 Q-62.35 -112.9 -62.3 -111.55 -62.45 -110.1 -62.25 -109.55 L-56.0 -111.85 Q-50.75 -113.7 -48.05 -113.7 L-46.55 -113.5 -46.4 -113.2 -46.25 -113.3 -45.65 -113.0 -45.45 -112.1 Q-45.45 -110.75 -46.05 -108.0 L-47.05 -104.35 -38.8 -104.65 -33.65 -104.5 Q-34.05 -104.05 -33.7 -103.55 -33.55 -102.85 -33.95 -102.75 L-35.2 -102.7 Q-34.75 -101.25 -34.75 -99.5 -34.75 -97.9 -35.25 -95.1 L-35.25 -92.55 -30.5 -93.4 -26.6 -94.45 -26.05 -94.05 -14.1 -101.45 Q-4.5 -106.9 2.0 -109.8 L1.3 -110.65 1.3 -111.55 1.55 -111.65 2.3 -111.75 3.35 -111.2 Q4.2 -110.65 4.25 -110.65 6.65 -110.65 8.15 -111.45 L8.75 -112.2 Q9.55 -113.4 9.55 -114.6 9.55 -117.8 7.3 -118.55 L6.8 -118.6 Q3.9 -118.6 2.7 -117.0 1.7 -115.65 2.5 -114.85 L2.35 -114.4 Q2.15 -114.1 1.5 -114.1 L0.8 -114.3 0.65 -114.5 Q-1.7 -113.85 -12.25 -112.7 L-28.2 -111.35 -28.5 -111.35 -28.75 -111.35 -29.75 -111.55 -29.75 -111.85 -30.15 -136.3 Q-30.15 -138.0 -29.35 -138.45 L-29.0 -137.0 M-62.75 -139.55 Q-59.6 -137.1 -54.65 -130.45 -50.25 -124.45 -47.9 -121.95 -46.8 -124.3 -41.95 -130.1 -37.15 -135.8 -34.55 -138.35 L-35.55 -139.65 -35.65 -141.55 Q-35.65 -144.3 -34.0 -145.9 -32.5 -147.35 -30.3 -147.4 -28.2 -147.5 -26.65 -146.25 -25.0 -144.9 -25.0 -142.65 -25.0 -139.5 -28.15 -136.5 L-28.95 -137.0 -27.4 -139.95 Q-26.6 -141.5 -26.6 -142.6 L-27.0 -144.05 Q-27.55 -145.4 -28.35 -145.4 -32.45 -145.4 -33.65 -143.55 L-34.05 -141.65 Q-34.05 -140.25 -32.9 -138.55 -33.1 -137.9 -33.45 -137.7 L-38.65 -131.2 Q-44.8 -123.7 -46.95 -120.2 L-47.4 -120.0 -48.1 -120.15 -48.15 -120.35 -48.2 -120.35 Q-49.55 -120.35 -56.45 -129.4 -63.15 -138.15 -63.15 -138.6 L-63.0 -139.35 -62.75 -139.55 M10.35 -115.1 Q10.35 -116.2 9.75 -117.15 L9.05 -117.9 Q10.05 -116.6 10.3 -114.35 L10.35 -115.1 M-61.8 -100.85 L-60.4 -101.15 -59.7 -101.25 -56.5 -101.8 -54.05 -101.9 Q-53.8 -102.7 -53.15 -102.25 -51.95 -101.35 -52.0 -97.75 -52.0 -96.4 -51.1 -93.35 L-50.7 -92.0 -47.0 -93.65 -44.05 -94.65 Q-43.95 -95.2 -43.5 -94.8 -41.85 -95.15 -41.85 -94.35 -41.85 -93.9 -42.7 -93.5 L-41.3 -90.65 -39.9 -88.0 -38.65 -85.5 -28.8 -88.65 -28.4 -88.55 -28.95 -86.95 Q-29.95 -82.65 -29.95 -80.9 L-29.95 -79.7 Q-30.65 -76.5 -30.65 -73.7 L-30.2 -69.9 -29.75 -67.7 -29.8 -67.1 -29.8 -67.05 -30.1 -67.0 -30.4 -67.0 -33.8 -64.85 Q-36.75 -63.1 -37.55 -62.65 L-37.35 -62.25 Q-40.35 -62.85 -50.15 -67.35 L-65.5 -74.5 -65.5 -75.4 -65.45 -75.4 Q-66.05 -76.8 -66.4 -79.7 -66.75 -82.6 -66.7 -85.55 -66.7 -90.7 -65.95 -94.0 -65.3 -96.75 -63.85 -99.4 L-64.35 -99.35 -64.5 -99.55 -63.4 -100.3 -61.8 -100.85 M-37.85 -64.65 L-35.0 -66.45 Q-32.8 -67.55 -31.45 -67.8 L-31.75 -68.85 -31.75 -71.15 -31.55 -78.7 -30.95 -81.45 -31.3 -81.6 -31.35 -82.6 -31.1 -84.25 -30.5 -86.0 -30.35 -86.45 -33.05 -85.75 -37.05 -84.5 Q-37.85 -84.25 -38.35 -83.8 L-39.0 -83.45 Q-39.45 -83.45 -41.85 -88.75 L-43.8 -93.1 -46.3 -92.3 -48.9 -90.95 -50.25 -90.35 -50.45 -90.0 Q-50.65 -89.75 -50.95 -89.75 L-51.5 -90.1 -51.85 -90.15 -52.1 -90.3 -52.2 -90.85 -52.05 -91.1 Q-52.65 -92.45 -53.3 -95.15 L-54.3 -99.9 -54.25 -101.15 -56.0 -100.7 -59.0 -100.2 Q-60.45 -99.9 -62.45 -98.8 L-62.4 -98.45 -63.3 -95.45 Q-65.1 -89.45 -65.1 -85.5 L-65.0 -80.5 Q-64.7 -78.45 -63.15 -74.9 L-63.15 -74.8 Q-57.9 -73.25 -50.95 -69.75 -44.1 -66.3 -37.9 -64.75 L-37.95 -64.55 -37.85 -64.65 M-33.6 -83.2 L-33.3 -83.05 -33.45 -82.55 -33.65 -82.35 -33.6 -83.2 M-56.2 -83.95 Q-56.2 -86.65 -53.35 -86.8 -50.5 -86.95 -50.5 -83.25 -50.5 -82.55 -50.85 -81.3 -51.1 -80.3 -51.45 -79.9 -51.5 -78.4 -51.85 -77.9 L-51.15 -75.8 -50.35 -72.9 Q-50.35 -72.1 -51.25 -72.1 -53.65 -72.1 -56.95 -75.3 -56.95 -75.95 -55.35 -78.55 L-54.6 -79.6 Q-55.35 -80.15 -55.8 -81.6 L-56.2 -83.95 M-53.05 -80.05 L-53.05 -79.9 -53.0 -79.8 -52.95 -80.05 -53.05 -80.05" fill="#392c12" fill-rule="evenodd" stroke="none"/>
    <path d="M-62.75 -139.65 L-62.75 -139.55 -63.0 -139.35 -63.15 -138.6 Q-63.15 -138.15 -56.45 -129.4 -49.55 -120.35 -48.2 -120.35 L-48.15 -120.35 -48.1 -120.15 -47.4 -120.0 -46.95 -120.2 Q-44.8 -123.7 -38.65 -131.2 L-33.45 -137.7 Q-33.1 -137.9 -32.9 -138.55 -34.05 -140.25 -34.05 -141.65 L-33.65 -143.55 Q-32.45 -145.4 -28.35 -145.4 -27.55 -145.4 -27.0 -144.05 L-26.6 -142.6 Q-26.6 -141.5 -27.4 -139.95 L-28.95 -137.0 -29.0 -137.0 -29.35 -138.45 Q-30.15 -138.0 -30.15 -136.3 L-29.75 -111.85 -29.75 -111.55 -28.75 -111.35 -28.5 -111.35 -28.2 -111.35 -12.25 -112.7 Q-1.7 -113.85 0.65 -114.5 L0.8 -114.3 1.5 -114.1 Q2.15 -114.1 2.35 -114.4 L2.5 -114.85 Q1.7 -115.65 2.7 -117.0 3.9 -118.6 6.8 -118.6 L7.3 -118.55 Q9.55 -117.8 9.55 -114.6 9.55 -113.4 8.75 -112.2 L8.15 -111.45 Q6.65 -110.65 4.25 -110.65 4.2 -110.65 3.35 -111.2 L2.3 -111.75 1.55 -111.65 1.3 -111.55 1.3 -110.65 2.0 -109.8 Q-4.5 -106.9 -14.1 -101.45 L-26.05 -94.05 -26.6 -94.45 -30.5 -93.4 -35.25 -92.55 -35.25 -95.1 Q-34.75 -97.9 -34.75 -99.5 -34.75 -101.25 -35.2 -102.7 L-33.95 -102.75 Q-33.55 -102.85 -33.7 -103.55 -34.05 -104.05 -33.65 -104.5 L-38.8 -104.65 -47.05 -104.35 -46.05 -108.0 Q-45.45 -110.75 -45.45 -112.1 L-45.65 -113.0 -46.25 -113.3 -46.4 -113.2 -46.55 -113.5 -48.05 -113.7 Q-50.75 -113.7 -56.0 -111.85 L-62.25 -109.55 Q-62.45 -110.1 -62.3 -111.55 -62.35 -112.9 -63.55 -113.7 L-63.9 -113.55 -64.6 -123.6 Q-65.35 -132.45 -66.25 -136.6 L-66.05 -136.8 -65.9 -137.25 -67.7 -139.85 Q-69.05 -141.75 -69.05 -142.75 L-68.95 -143.95 Q-68.45 -145.05 -66.3 -145.05 -65.7 -145.05 -64.8 -144.15 -63.9 -143.25 -63.9 -142.55 L-64.55 -140.9 Q-64.9 -139.8 -63.55 -139.25 L-62.75 -139.65 M-37.9 -64.75 Q-44.1 -66.3 -50.95 -69.75 -57.9 -73.25 -63.15 -74.8 L-63.15 -74.9 Q-64.7 -78.45 -65.0 -80.5 L-65.1 -85.5 Q-65.1 -89.45 -63.3 -95.45 L-62.4 -98.45 -62.45 -98.8 Q-60.45 -99.9 -59.0 -100.2 L-56.0 -100.7 -54.25 -101.15 -54.3 -99.9 -53.3 -95.15 Q-52.65 -92.45 -52.05 -91.1 L-52.2 -90.85 -52.1 -90.3 -51.85 -90.15 -51.5 -90.1 -50.95 -89.75 Q-50.65 -89.75 -50.45 -90.0 L-50.25 -90.35 -48.9 -90.95 -46.3 -92.3 -43.8 -93.1 -41.85 -88.75 Q-39.45 -83.45 -39.0 -83.45 L-38.35 -83.8 Q-37.85 -84.25 -37.05 -84.5 L-33.05 -85.75 -30.35 -86.45 -30.5 -86.0 -31.1 -84.25 -31.35 -82.6 -31.3 -81.6 -30.95 -81.45 -31.55 -78.7 -31.75 -71.15 -31.75 -68.85 -31.45 -67.8 Q-32.8 -67.55 -35.0 -66.45 L-37.85 -64.65 -37.9 -64.75 M-56.2 -83.95 L-55.8 -81.6 Q-55.35 -80.15 -54.6 -79.6 L-55.35 -78.55 Q-56.95 -75.95 -56.95 -75.3 -53.65 -72.1 -51.25 -72.1 -50.35 -72.1 -50.35 -72.9 L-51.15 -75.8 -51.85 -77.9 Q-51.5 -78.4 -51.45 -79.9 -51.1 -80.3 -50.85 -81.3 -50.5 -82.55 -50.5 -83.25 -50.5 -86.95 -53.35 -86.8 -56.2 -86.65 -56.2 -83.95 M-33.6 -83.2 L-33.65 -82.35 -33.45 -82.55 -33.3 -83.05 -33.6 -83.2" fill="#61461f" fill-rule="evenodd" stroke="none"/>
  </g>
</svg>
