<?xml version="1.0" encoding="UTF-8" standalone="no"?>
<svg xmlns:ffdec="https://www.free-decompiler.com/flash" xmlns:xlink="http://www.w3.org/1999/xlink" ffdec:objectType="shape" height="114.85px" width="201.1px" xmlns="http://www.w3.org/2000/svg">
  <g transform="matrix(1.0, 0.0, 0.0, 1.0, 96.2, 84.0)">
    <path d="M-42.6 -78.25 Q-41.1 -78.3 -41.1 -79.7 -41.4 -82.0 -42.75 -82.1 L-43.65 -81.95 -44.8 -82.55 -46.1 -82.25 -46.3 -82.25 -46.65 -82.05 Q-47.15 -81.95 -47.6 -81.0 L-48.0 -79.6 Q-48.0 -78.45 -46.85 -77.35 L-45.95 -76.1 -45.8 -75.55 -48.7 -76.15 -48.8 -76.35 -48.9 -76.65 -48.9 -76.7 -49.1 -76.9 -49.55 -77.1 Q-50.05 -78.7 -49.85 -79.9 -49.2 -84.85 -44.1 -83.85 -41.7 -83.5 -41.0 -80.75 -40.55 -79.25 -40.75 -77.95 L-40.85 -77.45 -40.95 -77.15 -41.45 -76.65 Q-41.95 -76.2 -42.6 -75.9 L-42.65 -76.05 -42.7 -76.1 -42.75 -76.3 -42.95 -77.45 Q-42.65 -77.7 -42.6 -78.25" fill="#935801" fill-rule="evenodd" stroke="none"/>
    <path d="M-43.65 -81.95 L-42.75 -82.1 Q-41.4 -82.0 -41.1 -79.7 -41.1 -78.3 -42.6 -78.25 L-42.75 -78.3 Q-44.2 -78.3 -44.5 -78.9 L-44.75 -79.8 Q-44.75 -81.5 -43.65 -81.95" fill="#ffffff" fill-rule="evenodd" stroke="none"/>
    <path d="M-42.6 -78.25 Q-42.65 -77.7 -42.95 -77.45 L-42.75 -76.3 -42.7 -76.1 -42.65 -76.05 -42.6 -75.9 -44.25 -75.55 -44.6 -76.05 -45.3 -77.0 -45.25 -77.0 -45.55 -77.45 -46.1 -78.55 -46.35 -78.85 Q-46.95 -79.7 -47.0 -80.95 L-46.85 -81.25 -46.95 -81.4 -46.85 -81.95 -46.65 -82.05 -46.3 -82.25 -46.1 -82.25 -44.8 -82.55 -43.65 -81.95 Q-44.75 -81.5 -44.75 -79.8 L-44.5 -78.9 Q-44.2 -78.3 -42.75 -78.3 L-42.6 -78.25" fill="#ffcc00" fill-rule="evenodd" stroke="none"/>
    <path d="M-45.8 -75.55 L-45.95 -76.1 -46.85 -77.35 Q-48.0 -78.45 -48.0 -79.6 L-47.6 -81.0 Q-47.15 -81.95 -46.65 -82.05 L-46.85 -81.95 -46.95 -81.4 -46.85 -81.25 -47.0 -80.95 Q-46.95 -79.7 -46.35 -78.85 L-46.1 -78.55 -45.55 -77.45 -45.25 -77.0 -45.3 -77.0 -44.6 -76.05 -44.25 -75.55 -44.7 -75.55 -45.8 -75.55" fill="#ff9900" fill-rule="evenodd" stroke="none"/>
    <path d="M-66.9 -69.05 L-68.2 -69.15 -69.3 -68.35 -69.5 -68.25 -69.7 -68.0 Q-70.1 -67.7 -70.15 -66.65 L-70.0 -65.2 Q-69.55 -64.15 -68.05 -63.6 L-66.7 -62.8 -66.35 -62.35 Q-68.05 -61.75 -69.25 -61.8 L-69.4 -61.9 -69.6 -62.15 -69.65 -62.2 -69.9 -62.25 -70.4 -62.3 Q-71.5 -63.55 -71.8 -64.7 -73.15 -69.55 -68.05 -70.65 -65.7 -71.25 -64.0 -69.0 -63.0 -67.8 -62.7 -66.55 L-62.6 -66.05 -62.5 -65.75 -62.8 -65.1 Q-63.1 -64.45 -63.55 -63.95 L-63.7 -64.05 -63.7 -64.1 -63.85 -64.25 -64.5 -65.2 Q-64.35 -65.55 -64.5 -66.1 -63.1 -66.75 -63.65 -68.05 -64.9 -70.0 -66.1 -69.6 L-66.9 -69.05" fill="#935801" fill-rule="evenodd" stroke="none"/>
    <path d="M-69.7 -68.0 L-69.5 -68.25 -69.3 -68.35 -68.2 -69.15 -66.9 -69.05 Q-67.75 -68.25 -67.05 -66.7 L-66.45 -65.95 -64.6 -66.1 -64.5 -66.1 Q-64.35 -65.55 -64.5 -65.2 L-63.85 -64.25 -63.7 -64.1 -63.7 -64.05 -63.55 -63.95 -64.95 -63.0 -65.45 -63.3 -66.45 -63.85 -66.4 -63.9 -66.9 -64.15 -67.8 -65.0 -68.15 -65.15 Q-69.0 -65.7 -69.55 -66.85 L-69.6 -67.15 -69.7 -67.25 -69.85 -67.8 -69.7 -68.0" fill="#ffcc00" fill-rule="evenodd" stroke="none"/>
    <path d="M-66.9 -69.05 L-66.1 -69.6 Q-64.9 -70.0 -63.65 -68.05 -63.1 -66.75 -64.5 -66.1 L-64.6 -66.1 -66.45 -65.95 -67.05 -66.7 Q-67.75 -68.25 -66.9 -69.05" fill="#ffffff" fill-rule="evenodd" stroke="none"/>
    <path d="M-66.35 -62.35 L-66.7 -62.8 -68.05 -63.6 Q-69.55 -64.15 -70.0 -65.2 L-70.15 -66.65 Q-70.1 -67.7 -69.7 -68.0 L-69.85 -67.8 -69.7 -67.25 -69.6 -67.15 -69.55 -66.85 Q-69.0 -65.7 -68.15 -65.15 L-67.8 -65.0 -66.9 -64.15 -66.4 -63.9 -66.45 -63.85 -65.45 -63.3 -64.95 -63.0 -65.35 -62.8 -66.35 -62.35" fill="#ff9900" fill-rule="evenodd" stroke="none"/>
    <path d="M-82.65 -51.3 L-83.95 -51.0 -84.75 -50.0 -84.9 -49.85 -85.0 -49.45 Q-85.35 -49.05 -85.1 -48.05 L-84.5 -46.7 Q-83.75 -45.85 -82.15 -45.75 L-80.65 -45.35 -80.15 -45.0 Q-81.65 -44.0 -82.75 -43.65 L-83.0 -43.75 Q-83.05 -43.65 -83.25 -43.85 L-83.25 -43.9 -83.6 -43.95 -84.0 -43.8 Q-85.45 -44.75 -86.05 -45.75 -88.75 -49.95 -84.2 -52.45 -82.2 -53.75 -79.85 -52.1 -78.55 -51.25 -77.85 -50.1 L-77.65 -49.65 -77.5 -49.4 -77.6 -48.65 Q-77.65 -48.0 -77.95 -47.4 L-78.1 -47.45 -78.2 -47.45 -78.35 -47.6 -79.25 -48.3 Q-79.15 -48.7 -79.45 -49.2 -78.35 -50.15 -79.25 -51.25 -80.95 -52.8 -82.1 -52.0 L-82.65 -51.3" fill="#935801" fill-rule="evenodd" stroke="none"/>
    <path d="M-79.45 -49.2 L-79.65 -49.1 Q-80.75 -48.15 -81.35 -48.45 L-82.1 -48.95 Q-83.2 -50.25 -82.65 -51.3 L-82.1 -52.0 Q-80.95 -52.8 -79.25 -51.25 -78.35 -50.15 -79.45 -49.2" fill="#ffffff" fill-rule="evenodd" stroke="none"/>
    <path d="M-85.0 -49.45 L-84.9 -49.85 -84.75 -50.0 -83.95 -51.0 -82.65 -51.3 Q-83.2 -50.25 -82.1 -48.95 L-81.35 -48.45 Q-80.75 -48.15 -79.65 -49.1 L-79.45 -49.2 Q-79.15 -48.7 -79.25 -48.3 L-78.35 -47.6 -78.2 -47.45 -78.1 -47.45 -77.95 -47.4 -78.95 -46.0 -79.6 -46.2 -80.7 -46.5 -81.2 -46.65 -82.35 -47.15 -82.75 -47.2 Q-83.75 -47.5 -84.55 -48.4 L-84.65 -48.7 -84.85 -48.8 -85.1 -49.25 -85.0 -49.45" fill="#ffcc00" fill-rule="evenodd" stroke="none"/>
    <path d="M-85.0 -49.45 L-85.1 -49.25 -84.85 -48.8 -84.65 -48.7 -84.55 -48.4 Q-83.75 -47.5 -82.75 -47.2 L-82.35 -47.15 -81.2 -46.65 -80.7 -46.5 -79.6 -46.2 -78.95 -46.0 -79.3 -45.75 -80.15 -45.0 -80.65 -45.35 -82.15 -45.75 Q-83.75 -45.85 -84.5 -46.7 L-85.1 -48.05 Q-85.35 -49.05 -85.0 -49.45" fill="#ff9900" fill-rule="evenodd" stroke="none"/>
    <path d="M-92.95 -30.85 Q-93.0 -29.65 -91.45 -28.9 L-90.55 -28.75 Q-89.9 -28.7 -89.3 -30.0 L-89.15 -30.15 -88.55 -29.5 -87.5 -29.1 -87.25 -29.1 -87.05 -29.1 Q-87.1 -28.25 -87.45 -27.45 L-88.05 -27.35 -89.2 -27.2 -89.2 -27.25 -89.7 -27.15 -90.95 -27.15 -91.35 -27.05 Q-92.4 -26.9 -93.5 -27.4 L-93.7 -27.7 -93.9 -27.65 -94.35 -28.0 -94.3 -28.25 -94.35 -28.65 -94.25 -28.8 -93.95 -30.1 -92.95 -30.85" fill="#ffcc00" fill-rule="evenodd" stroke="none"/>
    <path d="M-89.15 -30.15 L-89.3 -30.0 Q-89.9 -28.7 -90.55 -28.75 L-91.45 -28.9 Q-93.0 -29.65 -92.95 -30.85 L-92.65 -31.7 Q-91.95 -32.85 -89.8 -32.15 -88.55 -31.5 -89.15 -30.15" fill="#ffffff" fill-rule="evenodd" stroke="none"/>
    <path d="M-92.95 -30.85 L-93.95 -30.1 -94.25 -28.8 -94.35 -28.65 -94.3 -28.25 -94.35 -28.0 Q-94.35 -27.55 -93.85 -26.9 L-92.75 -25.95 Q-91.7 -25.45 -90.25 -25.95 L-88.7 -26.2 -88.15 -26.1 Q-89.1 -24.55 -90.0 -23.75 L-90.2 -23.75 -90.5 -23.8 -90.55 -23.8 -90.85 -23.75 -91.2 -23.45 Q-92.9 -23.7 -93.85 -24.45 -97.95 -27.2 -94.85 -31.3 -93.4 -33.3 -90.65 -32.65 -89.1 -32.4 -88.05 -31.65 L-87.65 -31.35 -87.4 -31.1 -87.2 -30.45 -87.05 -29.1 -87.25 -29.1 -87.5 -29.1 -88.55 -29.5 -89.15 -30.15 Q-88.55 -31.5 -89.8 -32.15 -91.95 -32.85 -92.65 -31.7 L-92.95 -30.85" fill="#935801" fill-rule="evenodd" stroke="none"/>
    <path d="M-94.35 -28.0 L-93.9 -27.65 -93.7 -27.7 -93.5 -27.4 Q-92.4 -26.9 -91.35 -27.05 L-90.95 -27.15 -89.7 -27.15 -89.2 -27.25 -89.2 -27.2 -88.05 -27.35 -87.45 -27.45 -87.65 -27.05 -88.15 -26.1 -88.7 -26.2 -90.25 -25.95 Q-91.7 -25.45 -92.75 -25.95 L-93.85 -26.9 Q-94.35 -27.55 -94.35 -28.0" fill="#ff9900" fill-rule="evenodd" stroke="none"/>
    <path d="M77.65 21.65 Q77.05 20.3 78.3 19.65 80.45 18.95 81.15 20.1 L81.45 20.95 Q81.5 22.15 79.95 22.9 L79.05 23.05 Q78.4 23.1 77.8 21.8 L77.65 21.65" fill="#ffffff" fill-rule="evenodd" stroke="none"/>
    <path d="M81.45 20.95 L81.15 20.1 Q80.45 18.95 78.3 19.65 77.05 20.3 77.65 21.65 L77.05 22.3 76.0 22.7 75.75 22.7 75.55 22.7 Q75.5 22.0 75.7 21.35 L75.9 20.7 76.15 20.45 76.55 20.15 Q77.6 19.4 79.15 19.15 81.9 18.5 83.35 20.5 86.45 24.6 82.35 27.35 81.4 28.1 79.7 28.35 L79.35 28.05 79.05 28.0 79.0 28.0 78.7 28.05 78.5 28.05 Q77.6 27.25 76.65 25.7 L77.2 25.6 78.75 25.85 Q80.2 26.35 81.25 25.85 L82.35 24.9 82.85 23.8 82.8 23.55 82.85 23.15 82.75 23.0 82.45 21.7 81.45 20.95" fill="#935801" fill-rule="evenodd" stroke="none"/>
    <path d="M77.65 21.65 L77.8 21.8 Q78.4 23.1 79.05 23.05 L79.95 22.9 Q81.5 22.15 81.45 20.95 L82.45 21.7 82.75 23.0 82.85 23.15 82.8 23.55 82.85 23.8 82.4 24.15 82.2 24.1 82.0 24.4 79.85 24.75 79.45 24.65 78.2 24.65 77.7 24.55 77.7 24.6 76.55 24.45 75.95 24.35 Q75.6 23.55 75.55 22.7 L75.75 22.7 76.0 22.7 77.05 22.3 77.65 21.65" fill="#ffcc00" fill-rule="evenodd" stroke="none"/>
    <path d="M82.85 23.8 L82.35 24.9 81.25 25.85 Q80.2 26.35 78.75 25.85 L77.2 25.6 76.65 25.7 76.15 24.75 75.95 24.35 76.55 24.45 77.7 24.6 77.7 24.55 78.2 24.65 79.45 24.65 79.85 24.75 82.0 24.4 82.2 24.1 82.4 24.15 82.85 23.8" fill="#ff9900" fill-rule="evenodd" stroke="none"/>
    <path d="M63.85 21.65 Q63.25 20.3 64.5 19.65 66.65 18.95 67.35 20.1 L67.65 20.95 Q67.7 22.15 66.15 22.9 L65.25 23.05 Q64.6 23.1 64.0 21.8 L63.85 21.65" fill="#ffffff" fill-rule="evenodd" stroke="none"/>
    <path d="M67.65 20.95 L67.35 20.1 Q66.65 18.95 64.5 19.65 63.25 20.3 63.85 21.65 L63.25 22.3 62.2 22.7 61.95 22.7 61.75 22.7 Q61.7 22.0 61.9 21.35 L62.1 20.7 62.35 20.45 62.75 20.15 Q63.8 19.4 65.35 19.15 68.1 18.5 69.55 20.5 72.65 24.6 68.55 27.35 67.6 28.1 65.9 28.35 L65.55 28.05 65.25 28.0 65.2 28.0 64.9 28.05 64.7 28.05 Q63.8 27.25 62.85 25.7 L63.4 25.6 64.95 25.85 Q66.4 26.35 67.45 25.85 L68.55 24.9 69.05 23.8 69.0 23.55 69.05 23.15 68.95 23.0 68.65 21.7 67.65 20.95" fill="#935801" fill-rule="evenodd" stroke="none"/>
    <path d="M69.05 23.8 L68.55 24.9 67.45 25.85 Q66.4 26.35 64.95 25.85 L63.4 25.6 62.85 25.7 62.35 24.75 62.15 24.35 62.75 24.45 63.9 24.6 63.9 24.55 64.4 24.65 65.65 24.65 66.05 24.75 68.2 24.4 68.4 24.1 68.6 24.15 69.05 23.8" fill="#ff9900" fill-rule="evenodd" stroke="none"/>
    <path d="M63.85 21.65 L64.0 21.8 Q64.6 23.1 65.25 23.05 L66.15 22.9 Q67.7 22.15 67.65 20.95 L68.65 21.7 68.95 23.0 69.05 23.15 69.0 23.55 69.05 23.8 68.6 24.15 68.4 24.1 68.2 24.4 66.05 24.75 65.65 24.65 64.4 24.65 63.9 24.55 63.9 24.6 62.75 24.45 62.15 24.35 Q61.8 23.55 61.75 22.7 L61.95 22.7 62.2 22.7 63.25 22.3 63.85 21.65" fill="#ffcc00" fill-rule="evenodd" stroke="none"/>
    <path d="M46.7 21.15 L46.9 21.15 47.15 21.15 48.2 20.75 48.8 20.1 48.95 20.25 Q49.55 21.55 50.2 21.5 L51.1 21.35 Q52.65 20.6 52.6 19.4 L53.6 20.15 53.9 21.45 54.0 21.6 53.95 22.0 54.0 22.25 53.55 22.6 53.35 22.55 53.15 22.85 51.0 23.2 50.6 23.1 49.35 23.1 48.85 23.0 48.85 23.05 47.7 22.9 47.1 22.8 Q46.75 22.0 46.7 21.15" fill="#ffcc00" fill-rule="evenodd" stroke="none"/>
    <path d="M52.6 19.4 Q52.65 20.6 51.1 21.35 L50.2 21.5 Q49.55 21.55 48.95 20.25 L48.8 20.1 Q48.2 18.75 49.45 18.1 51.6 17.4 52.3 18.55 L52.6 19.4" fill="#ffffff" fill-rule="evenodd" stroke="none"/>
    <path d="M48.8 20.1 L48.2 20.75 47.15 21.15 46.9 21.15 46.7 21.15 Q46.65 20.45 46.85 19.8 L47.05 19.15 47.3 18.9 47.7 18.6 Q48.75 17.85 50.3 17.6 53.05 16.95 54.5 18.95 57.6 23.05 53.5 25.8 52.55 26.55 50.85 26.8 L50.5 26.5 50.2 26.45 50.15 26.45 49.85 26.5 49.65 26.5 Q48.75 25.7 47.8 24.15 L48.35 24.05 49.9 24.3 Q51.35 24.8 52.4 24.3 L53.5 23.35 54.0 22.25 53.95 22.0 54.0 21.6 53.9 21.45 53.6 20.15 52.6 19.4 52.3 18.55 Q51.6 17.4 49.45 18.1 48.2 18.75 48.8 20.1" fill="#935801" fill-rule="evenodd" stroke="none"/>
    <path d="M47.1 22.8 L47.7 22.9 48.85 23.05 48.85 23.0 49.35 23.1 50.6 23.1 51.0 23.2 53.15 22.85 53.35 22.55 53.55 22.6 54.0 22.25 53.5 23.35 52.4 24.3 Q51.35 24.8 49.9 24.3 L48.35 24.05 47.8 24.15 47.3 23.2 47.1 22.8" fill="#ff9900" fill-rule="evenodd" stroke="none"/>
    <path d="M57.45 -27.5 Q55.65 -27.65 54.55 -28.1 L54.45 -28.3 54.35 -28.6 54.35 -28.65 54.15 -28.85 53.7 -29.05 Q53.2 -30.65 53.4 -31.85 54.05 -36.8 59.15 -35.8 61.55 -35.45 62.25 -32.7 62.7 -31.2 62.5 -29.9 L62.4 -29.4 62.3 -29.1 61.8 -28.6 60.65 -27.85 60.6 -28.0 60.55 -28.05 60.5 -28.25 60.3 -29.4 60.65 -30.2 Q62.15 -30.25 62.15 -31.65 61.85 -33.95 60.5 -34.05 L59.6 -33.9 58.45 -34.5 57.15 -34.2 56.95 -34.2 56.6 -34.0 Q56.1 -33.9 55.65 -32.95 L55.25 -31.55 Q55.25 -30.4 56.4 -29.3 L57.3 -28.05 57.45 -27.5" fill="#935801" fill-rule="evenodd" stroke="none"/>
    <path d="M56.6 -34.0 L56.95 -34.2 57.15 -34.2 58.45 -34.5 59.6 -33.9 Q58.5 -33.45 58.5 -31.75 58.5 -31.1 58.75 -30.85 59.05 -30.25 60.5 -30.25 L60.65 -30.2 60.3 -29.4 60.5 -28.25 60.55 -28.05 60.6 -28.0 60.65 -27.85 59.0 -27.5 58.65 -28.0 57.95 -28.95 58.0 -28.95 57.7 -29.4 57.15 -30.5 56.9 -30.8 Q56.3 -31.65 56.25 -32.9 L56.4 -33.2 56.3 -33.35 56.4 -33.9 56.6 -34.0" fill="#ffcc00" fill-rule="evenodd" stroke="none"/>
    <path d="M57.45 -27.5 L57.3 -28.05 56.4 -29.3 Q55.25 -30.4 55.25 -31.55 L55.65 -32.95 Q56.1 -33.9 56.6 -34.0 L56.4 -33.9 56.3 -33.35 56.4 -33.2 56.25 -32.9 Q56.3 -31.65 56.9 -30.8 L57.15 -30.5 57.7 -29.4 58.0 -28.95 57.95 -28.95 58.65 -28.0 59.0 -27.5 58.55 -27.5 57.45 -27.5" fill="#ff9900" fill-rule="evenodd" stroke="none"/>
    <path d="M59.6 -33.9 L60.5 -34.05 Q61.85 -33.95 62.15 -31.65 62.15 -30.25 60.65 -30.2 L60.5 -30.25 Q59.05 -30.25 58.75 -30.85 58.5 -31.1 58.5 -31.75 58.5 -33.45 59.6 -33.9" fill="#ffffff" fill-rule="evenodd" stroke="none"/>
    <path d="M36.35 -21.0 Q35.5 -20.2 36.2 -18.65 36.45 -18.05 36.8 -17.9 L38.65 -18.05 38.75 -18.05 38.75 -17.15 39.4 -16.2 39.55 -16.05 39.55 -16.0 39.7 -15.9 Q39.15 -15.3 38.3 -14.95 L37.8 -15.25 36.8 -15.8 36.85 -15.85 Q36.55 -16.0 36.35 -16.1 L35.45 -16.95 Q35.2 -17.0 35.1 -17.1 34.25 -17.65 33.7 -18.8 L33.65 -19.1 33.55 -19.2 33.4 -19.75 33.55 -19.95 33.75 -20.2 33.95 -20.3 Q34.4 -20.85 35.05 -21.1 L36.35 -21.0" fill="#ffcc00" fill-rule="evenodd" stroke="none"/>
    <path d="M38.75 -18.05 L38.65 -18.05 36.8 -17.9 Q36.45 -18.05 36.2 -18.65 35.5 -20.2 36.35 -21.0 L37.15 -21.55 Q38.35 -21.95 39.6 -20.0 40.15 -18.7 38.75 -18.05" fill="#ffffff" fill-rule="evenodd" stroke="none"/>
    <path d="M36.35 -21.0 L35.05 -21.1 Q34.4 -20.85 33.95 -20.3 L33.75 -20.2 33.55 -19.95 Q33.15 -19.65 33.1 -18.6 33.05 -17.65 33.25 -17.15 33.7 -16.1 35.2 -15.55 L36.55 -14.75 36.9 -14.3 34.0 -13.75 33.85 -13.85 33.65 -14.1 33.6 -14.15 33.35 -14.2 32.85 -14.25 Q31.75 -15.5 31.45 -16.65 30.1 -21.5 35.2 -22.6 37.55 -23.2 39.25 -20.95 40.25 -19.75 40.55 -18.5 L40.65 -18.0 40.75 -17.7 40.45 -17.05 39.7 -15.9 39.55 -16.0 39.55 -16.05 39.4 -16.2 38.75 -17.15 38.75 -18.05 Q40.15 -18.7 39.6 -20.0 38.35 -21.95 37.15 -21.55 L36.35 -21.0" fill="#935801" fill-rule="evenodd" stroke="none"/>
    <path d="M33.55 -19.95 L33.4 -19.75 33.55 -19.2 33.65 -19.1 33.7 -18.8 Q34.25 -17.65 35.1 -17.1 35.2 -17.0 35.45 -16.95 L36.35 -16.1 Q36.55 -16.0 36.85 -15.85 L36.8 -15.8 37.8 -15.25 38.3 -14.95 37.9 -14.75 36.9 -14.3 36.55 -14.75 35.2 -15.55 Q33.7 -16.1 33.25 -17.15 33.05 -17.65 33.1 -18.6 33.15 -19.65 33.55 -19.95" fill="#ff9900" fill-rule="evenodd" stroke="none"/>
    <path d="M18.25 -1.4 L18.35 -1.8 18.5 -1.95 19.3 -2.95 20.6 -3.25 Q20.05 -2.2 21.15 -0.9 21.55 -0.4 21.9 -0.4 22.5 -0.1 23.6 -1.05 L23.8 -1.15 Q24.1 -0.65 24.0 -0.25 L24.9 0.45 25.05 0.6 25.15 0.6 25.3 0.65 24.3 2.05 23.65 1.85 22.55 1.55 22.05 1.4 20.9 0.9 20.5 0.85 Q19.5 0.55 18.7 -0.35 L18.6 -0.65 18.4 -0.75 18.15 -1.2 18.25 -1.4" fill="#ffcc00" fill-rule="evenodd" stroke="none"/>
    <path d="M20.6 -3.25 L19.3 -2.95 18.5 -1.95 18.35 -1.8 18.25 -1.4 Q17.9 -1.0 18.15 0.0 18.4 0.9 18.75 1.35 19.5 2.2 21.1 2.3 L22.6 2.7 23.1 3.05 20.5 4.4 20.25 4.3 20.0 4.2 20.0 4.15 19.65 4.1 Q19.4 4.1 19.25 4.25 17.8 3.3 17.2 2.3 14.5 -1.9 19.05 -4.4 21.05 -5.7 23.4 -4.05 24.7 -3.2 25.4 -2.05 L25.6 -1.6 25.75 -1.35 25.65 -0.6 25.3 0.65 25.15 0.6 25.05 0.6 24.9 0.45 24.0 -0.25 Q24.1 -0.65 23.8 -1.15 24.9 -2.1 24.0 -3.2 22.3 -4.75 21.15 -3.95 L20.6 -3.25" fill="#935801" fill-rule="evenodd" stroke="none"/>
    <path d="M18.25 -1.4 L18.15 -1.2 18.4 -0.75 18.6 -0.65 18.7 -0.35 Q19.5 0.55 20.5 0.85 L20.9 0.9 22.05 1.4 22.55 1.55 23.65 1.85 24.3 2.05 23.95 2.3 23.1 3.05 22.6 2.7 21.1 2.3 Q19.5 2.2 18.75 1.35 18.4 0.9 18.15 0.0 17.9 -1.0 18.25 -1.4" fill="#ff9900" fill-rule="evenodd" stroke="none"/>
    <path d="M23.8 -1.15 L23.6 -1.05 Q22.5 -0.1 21.9 -0.4 21.55 -0.4 21.15 -0.9 20.05 -2.2 20.6 -3.25 L21.15 -3.95 Q22.3 -4.75 24.0 -3.2 24.9 -2.1 23.8 -1.15" fill="#ffffff" fill-rule="evenodd" stroke="none"/>
    <path d="M8.9 20.05 L8.95 19.8 8.9 19.4 9.0 19.25 Q9.0 18.6 9.3 17.95 L10.3 17.2 Q10.25 18.4 11.8 19.15 L12.7 19.3 Q13.35 19.35 13.95 18.05 L14.1 17.9 14.7 18.55 15.75 18.95 16.0 18.95 16.2 18.95 15.8 20.6 15.2 20.7 14.05 20.85 14.05 20.8 13.55 20.9 12.3 20.9 11.9 21.0 9.75 20.65 9.55 20.35 9.35 20.4 8.9 20.05" fill="#ffcc00" fill-rule="evenodd" stroke="none"/>
    <path d="M10.3 17.2 L9.3 17.95 Q9.0 18.6 9.0 19.25 L8.9 19.4 8.95 19.8 8.9 20.05 Q8.9 20.5 9.4 21.15 L10.5 22.1 Q11.55 22.6 13.0 22.1 L14.55 21.85 15.1 21.95 13.25 24.3 13.05 24.3 12.75 24.25 12.7 24.25 12.4 24.3 Q12.15 24.4 12.05 24.6 10.35 24.35 9.4 23.6 5.3 20.85 8.4 16.75 9.85 14.75 12.6 15.4 14.15 15.65 15.2 16.4 L15.6 16.7 15.85 16.95 16.05 17.6 16.2 18.95 16.0 18.95 15.75 18.95 14.7 18.55 14.1 17.9 Q14.7 16.55 13.45 15.9 11.3 15.2 10.6 16.35 L10.3 17.2" fill="#935801" fill-rule="evenodd" stroke="none"/>
    <path d="M8.9 20.05 L9.35 20.4 9.55 20.35 9.75 20.65 11.9 21.0 12.3 20.9 13.55 20.9 14.05 20.8 14.05 20.85 15.2 20.7 15.8 20.6 15.6 21.0 15.1 21.95 14.55 21.85 13.0 22.1 Q11.55 22.6 10.5 22.1 L9.4 21.15 Q8.9 20.5 8.9 20.05" fill="#ff9900" fill-rule="evenodd" stroke="none"/>
    <path d="M14.1 17.9 L13.95 18.05 Q13.35 19.35 12.7 19.3 L11.8 19.15 Q10.25 18.4 10.3 17.2 L10.6 16.35 Q11.3 15.2 13.45 15.9 14.7 16.55 14.1 17.9" fill="#ffffff" fill-rule="evenodd" stroke="none"/>
    <path d="M31.15 24.85 Q31.1 24.15 31.3 23.5 L31.5 22.85 31.75 22.6 32.15 22.3 Q33.2 21.55 34.75 21.3 37.5 20.65 38.95 22.65 42.05 26.75 37.95 29.5 37.0 30.25 35.3 30.5 L34.95 30.2 34.65 30.15 34.6 30.15 34.3 30.2 34.1 30.2 Q33.2 29.4 32.25 27.85 L32.8 27.75 34.35 28.0 Q35.8 28.5 36.85 28.0 L37.95 27.05 38.45 25.95 38.4 25.7 38.45 25.3 38.35 25.15 38.05 23.85 37.05 23.1 36.75 22.25 Q36.05 21.1 33.9 21.8 32.65 22.45 33.25 23.8 L32.65 24.45 31.6 24.85 31.35 24.85 31.15 24.85" fill="#935801" fill-rule="evenodd" stroke="none"/>
    <path d="M31.55 26.5 Q31.2 25.7 31.15 24.85 L31.35 24.85 31.6 24.85 32.65 24.45 33.25 23.8 33.4 23.95 Q34.0 25.25 34.65 25.2 L35.55 25.05 Q37.1 24.3 37.05 23.1 L38.05 23.85 38.35 25.15 38.45 25.3 38.4 25.7 38.45 25.95 38.0 26.3 37.8 26.25 37.6 26.55 35.45 26.9 35.05 26.8 33.8 26.8 33.3 26.7 33.3 26.75 32.15 26.6 31.55 26.5" fill="#ffcc00" fill-rule="evenodd" stroke="none"/>
    <path d="M33.25 23.8 Q32.65 22.45 33.9 21.8 36.05 21.1 36.75 22.25 L37.05 23.1 Q37.1 24.3 35.55 25.05 L34.65 25.2 Q34.0 25.25 33.4 23.95 L33.25 23.8" fill="#ffffff" fill-rule="evenodd" stroke="none"/>
    <path d="M32.25 27.85 L31.75 26.9 31.55 26.5 32.15 26.6 33.3 26.75 33.3 26.7 33.8 26.8 35.05 26.8 35.45 26.9 37.6 26.55 37.8 26.25 38.0 26.3 38.45 25.95 37.95 27.05 36.85 28.0 Q35.8 28.5 34.35 28.0 L32.8 27.75 32.25 27.85" fill="#ff9900" fill-rule="evenodd" stroke="none"/>
    <path d="M97.85 24.15 Q97.25 22.8 98.5 22.15 100.65 21.45 101.35 22.6 L101.65 23.45 Q101.7 24.65 100.15 25.4 L99.25 25.55 Q98.6 25.6 98.0 24.3 L97.85 24.15" fill="#ffffff" fill-rule="evenodd" stroke="none"/>
    <path d="M101.65 23.45 L101.35 22.6 Q100.65 21.45 98.5 22.15 97.25 22.8 97.85 24.15 L97.25 24.8 96.2 25.2 95.95 25.2 95.75 25.2 Q95.7 24.5 95.9 23.85 L96.1 23.2 96.35 22.95 96.75 22.65 Q97.8 21.9 99.35 21.65 102.1 21.0 103.55 23.0 106.65 27.1 102.55 29.85 101.6 30.6 99.9 30.85 L99.55 30.55 99.25 30.5 99.2 30.5 98.9 30.55 98.7 30.55 Q97.8 29.75 96.85 28.2 L97.4 28.1 98.95 28.35 Q100.4 28.85 101.45 28.35 L102.55 27.4 Q103.05 26.75 103.05 26.3 L103.0 26.05 103.05 25.65 102.95 25.5 102.65 24.2 101.65 23.45" fill="#935801" fill-rule="evenodd" stroke="none"/>
    <path d="M97.85 24.15 L98.0 24.3 Q98.6 25.6 99.25 25.55 L100.15 25.4 Q101.7 24.65 101.65 23.45 L102.65 24.2 102.95 25.5 103.05 25.65 103.0 26.05 103.05 26.3 102.6 26.65 102.4 26.6 102.2 26.9 100.05 27.25 99.65 27.15 98.4 27.15 97.9 27.05 97.9 27.1 96.75 26.95 96.15 26.85 Q95.8 26.05 95.75 25.2 L95.95 25.2 96.2 25.2 97.25 24.8 97.85 24.15" fill="#ffcc00" fill-rule="evenodd" stroke="none"/>
    <path d="M103.05 26.3 Q103.05 26.75 102.55 27.4 L101.45 28.35 Q100.4 28.85 98.95 28.35 L97.4 28.1 96.85 28.2 96.35 27.25 96.15 26.85 96.75 26.95 97.9 27.1 97.9 27.05 98.4 27.15 99.65 27.15 100.05 27.25 102.2 26.9 102.4 26.6 102.6 26.65 103.05 26.3" fill="#ff9900" fill-rule="evenodd" stroke="none"/>
    <path d="M-58.9 -18.3 Q-58.3 -19.65 -59.55 -20.3 -61.7 -21.0 -62.4 -19.85 L-62.7 -19.0 -63.7 -18.25 -64.0 -16.95 -64.1 -16.8 -64.05 -16.4 -64.1 -16.15 Q-64.1 -15.7 -63.6 -15.05 L-62.5 -14.1 Q-61.45 -13.6 -60.0 -14.1 L-58.45 -14.35 -57.9 -14.25 Q-58.85 -12.7 -59.75 -11.9 L-59.95 -11.9 -60.25 -11.95 -60.3 -11.95 -60.6 -11.9 -60.95 -11.6 Q-62.65 -11.85 -63.6 -12.6 -67.7 -15.35 -64.6 -19.45 -63.15 -21.45 -60.4 -20.8 -58.85 -20.55 -57.8 -19.8 L-57.4 -19.5 -57.15 -19.25 -56.95 -18.6 -56.8 -17.25 -57.0 -17.25 -57.25 -17.25 -58.3 -17.65 -58.9 -18.3" fill="#935801" fill-rule="evenodd" stroke="none"/>
    <path d="M-62.7 -19.0 L-62.4 -19.85 Q-61.7 -21.0 -59.55 -20.3 -58.3 -19.65 -58.9 -18.3 L-59.05 -18.15 Q-59.65 -16.85 -60.3 -16.9 L-61.2 -17.05 Q-62.75 -17.8 -62.7 -19.0" fill="#ffffff" fill-rule="evenodd" stroke="none"/>
    <path d="M-58.9 -18.3 L-58.3 -17.65 -57.25 -17.25 -57.0 -17.25 -56.8 -17.25 Q-56.85 -16.4 -57.2 -15.6 L-57.8 -15.5 -58.95 -15.35 -58.95 -15.4 -59.45 -15.3 -60.7 -15.3 -61.1 -15.2 -63.25 -15.55 -63.45 -15.85 -63.65 -15.8 -64.1 -16.15 -64.05 -16.4 -64.1 -16.8 -64.0 -16.95 -63.7 -18.25 -62.7 -19.0 Q-62.75 -17.8 -61.2 -17.05 L-60.3 -16.9 Q-59.65 -16.85 -59.05 -18.15 L-58.9 -18.3" fill="#ffcc00" fill-rule="evenodd" stroke="none"/>
    <path d="M-57.9 -14.25 L-58.45 -14.35 -60.0 -14.1 Q-61.45 -13.6 -62.5 -14.1 L-63.6 -15.05 Q-64.1 -15.7 -64.1 -16.15 L-63.65 -15.8 -63.45 -15.85 -63.25 -15.55 -61.1 -15.2 -60.7 -15.3 -59.45 -15.3 -58.95 -15.4 -58.95 -15.35 -57.8 -15.5 -57.2 -15.6 -57.4 -15.2 -57.9 -14.25" fill="#ff9900" fill-rule="evenodd" stroke="none"/>
    <path d="M-6.3 7.55 Q-7.25 9.1 -8.15 9.9 L-8.35 9.9 -8.65 9.85 -8.7 9.85 -9.0 9.9 -9.35 10.2 Q-11.05 9.95 -12.0 9.2 -16.1 6.45 -13.0 2.35 -11.55 0.35 -8.8 1.0 -7.25 1.25 -6.2 2.0 L-5.8 2.3 -5.55 2.55 -5.35 3.2 Q-5.15 3.85 -5.2 4.55 L-5.4 4.55 -5.65 4.55 -6.7 4.15 -7.3 3.5 Q-6.7 2.15 -7.95 1.5 -10.1 0.8 -10.8 1.95 L-11.1 2.8 -12.1 3.55 -12.4 4.85 -12.5 5.0 -12.45 5.4 -12.5 5.65 -12.0 6.75 -10.9 7.7 Q-9.85 8.2 -8.4 7.7 L-6.85 7.45 -6.3 7.55" fill="#935801" fill-rule="evenodd" stroke="none"/>
    <path d="M-12.5 5.65 L-12.45 5.4 -12.5 5.0 -12.4 4.85 -12.1 3.55 -11.1 2.8 Q-11.15 4.0 -9.6 4.75 L-8.7 4.9 Q-8.05 4.95 -7.45 3.65 L-7.3 3.5 -6.7 4.15 -5.65 4.55 -5.4 4.55 -5.2 4.55 Q-5.25 5.4 -5.6 6.2 L-6.2 6.3 -7.35 6.45 -7.35 6.4 -7.85 6.5 -9.1 6.5 -9.5 6.6 -11.65 6.25 -11.85 5.95 -12.05 6.0 -12.5 5.65" fill="#ffcc00" fill-rule="evenodd" stroke="none"/>
    <path d="M-11.1 2.8 L-10.8 1.95 Q-10.1 0.8 -7.95 1.5 -6.7 2.15 -7.3 3.5 L-7.45 3.65 Q-8.05 4.95 -8.7 4.9 L-9.6 4.75 Q-11.15 4.0 -11.1 2.8" fill="#ffffff" fill-rule="evenodd" stroke="none"/>
    <path d="M-6.3 7.55 L-6.85 7.45 -8.4 7.7 Q-9.85 8.2 -10.9 7.7 L-12.0 6.75 -12.5 5.65 -12.05 6.0 -11.85 5.95 -11.65 6.25 -9.5 6.6 -9.1 6.5 -7.85 6.5 -7.35 6.4 -7.35 6.45 -6.2 6.3 -5.6 6.2 -5.8 6.6 -6.3 7.55" fill="#ff9900" fill-rule="evenodd" stroke="none"/>
    <path d="M-6.2 -67.85 Q-6.75 -68.25 -7.35 -68.45 L-8.65 -68.15 -8.85 -68.15 -9.2 -67.95 -10.15 -66.9 -10.55 -65.5 Q-10.55 -64.35 -9.4 -63.25 L-8.5 -62.0 -8.35 -61.45 -11.25 -62.05 -11.35 -62.25 -11.45 -62.55 -11.45 -62.6 -11.65 -62.8 Q-11.85 -63.0 -12.1 -63.0 -12.6 -64.6 -12.4 -65.8 -11.75 -70.75 -6.65 -69.75 -4.25 -69.4 -3.55 -66.65 -3.1 -65.15 -3.3 -63.85 L-3.4 -63.35 -3.5 -63.05 -4.0 -62.55 Q-4.5 -62.1 -5.15 -61.8 L-5.2 -61.95 -5.25 -62.0 -5.3 -62.2 -5.5 -63.35 Q-5.2 -63.6 -5.15 -64.15 -3.65 -64.2 -3.65 -65.6 -3.95 -67.9 -5.3 -68.0 L-6.2 -67.85" fill="#935801" fill-rule="evenodd" stroke="none"/>
    <path d="M-9.2 -67.95 L-8.85 -68.15 -8.65 -68.15 -7.35 -68.45 Q-6.75 -68.25 -6.2 -67.85 -7.3 -67.4 -7.3 -65.7 L-7.05 -64.8 Q-6.75 -64.2 -5.3 -64.2 L-5.15 -64.15 Q-5.2 -63.6 -5.5 -63.35 L-5.3 -62.2 -5.25 -62.0 -5.2 -61.95 -5.15 -61.8 -6.8 -61.45 -7.15 -61.95 -7.85 -62.9 -7.8 -62.9 -8.1 -63.35 -8.65 -64.45 -8.9 -64.75 Q-9.5 -65.6 -9.55 -66.85 L-9.4 -67.15 -9.5 -67.3 -9.4 -67.85 -9.2 -67.95" fill="#ffcc00" fill-rule="evenodd" stroke="none"/>
    <path d="M-6.2 -67.85 L-5.3 -68.0 Q-3.95 -67.9 -3.65 -65.6 -3.65 -64.2 -5.15 -64.15 L-5.3 -64.2 Q-6.75 -64.2 -7.05 -64.8 L-7.3 -65.7 Q-7.3 -67.4 -6.2 -67.85" fill="#ffffff" fill-rule="evenodd" stroke="none"/>
    <path d="M-8.35 -61.45 L-8.5 -62.0 -9.4 -63.25 Q-10.55 -64.35 -10.55 -65.5 L-10.15 -66.9 -9.2 -67.95 -9.4 -67.85 -9.5 -67.3 -9.4 -67.15 -9.55 -66.85 Q-9.5 -65.6 -8.9 -64.75 L-8.65 -64.45 -8.1 -63.35 -7.8 -62.9 -7.85 -62.9 -7.15 -61.95 -6.8 -61.45 -7.25 -61.45 -8.35 -61.45" fill="#ff9900" fill-rule="evenodd" stroke="none"/>
    <path d="M13.6 -55.05 L13.95 -55.25 14.15 -55.25 15.45 -55.55 Q16.05 -55.35 16.6 -54.95 15.5 -54.5 15.5 -52.8 15.5 -52.15 15.75 -51.9 16.05 -51.3 17.5 -51.3 L17.65 -51.25 17.3 -50.45 17.5 -49.3 17.55 -49.1 17.6 -49.05 17.65 -48.9 16.0 -48.55 15.65 -49.05 14.95 -50.0 15.0 -50.0 14.7 -50.45 14.15 -51.55 13.9 -51.85 Q13.3 -52.7 13.25 -53.95 L13.4 -54.25 13.3 -54.4 13.4 -54.95 13.6 -55.05" fill="#ffcc00" fill-rule="evenodd" stroke="none"/>
    <path d="M13.6 -55.05 L13.4 -54.95 13.3 -54.4 13.4 -54.25 13.25 -53.95 Q13.3 -52.7 13.9 -51.85 L14.15 -51.55 14.7 -50.45 15.0 -50.0 14.95 -50.0 15.65 -49.05 16.0 -48.55 15.55 -48.55 14.45 -48.55 14.3 -49.1 13.4 -50.35 Q12.25 -51.45 12.25 -52.6 L12.65 -54.0 Q13.1 -54.95 13.6 -55.05" fill="#ff9900" fill-rule="evenodd" stroke="none"/>
    <path d="M16.6 -54.95 Q16.05 -55.35 15.45 -55.55 L14.15 -55.25 13.95 -55.25 13.6 -55.05 Q13.1 -54.95 12.65 -54.0 L12.25 -52.6 Q12.25 -51.45 13.4 -50.35 L14.3 -49.1 14.45 -48.55 Q12.65 -48.7 11.55 -49.15 L11.45 -49.35 11.35 -49.65 11.35 -49.7 11.15 -49.9 10.7 -50.1 Q10.2 -51.7 10.4 -52.9 11.05 -57.85 16.15 -56.85 18.55 -56.5 19.25 -53.75 19.7 -52.25 19.5 -50.95 L19.4 -50.45 19.3 -50.15 18.8 -49.65 Q18.3 -49.2 17.65 -48.9 L17.6 -49.05 17.55 -49.1 17.5 -49.3 17.3 -50.45 17.65 -51.25 Q19.15 -51.3 19.15 -52.7 18.85 -55.0 17.5 -55.1 L16.6 -54.95" fill="#935801" fill-rule="evenodd" stroke="none"/>
    <path d="M17.65 -51.25 L17.5 -51.3 Q16.05 -51.3 15.75 -51.9 15.5 -52.15 15.5 -52.8 15.5 -54.5 16.6 -54.95 L17.5 -55.1 Q18.85 -55.0 19.15 -52.7 19.15 -51.3 17.65 -51.25" fill="#ffffff" fill-rule="evenodd" stroke="none"/>
    <path d="M38.8 -36.2 Q37.0 -36.35 35.9 -36.8 L35.8 -37.0 35.7 -37.3 35.7 -37.35 35.5 -37.55 35.05 -37.75 Q34.55 -39.35 34.75 -40.55 35.4 -45.5 40.5 -44.5 42.9 -44.15 43.6 -41.4 44.05 -39.9 43.85 -38.6 L43.75 -38.1 43.65 -37.8 43.15 -37.3 42.0 -36.55 41.95 -36.7 41.9 -36.75 41.85 -36.95 41.65 -38.1 42.0 -38.9 Q43.5 -38.95 43.5 -40.35 43.2 -42.65 41.85 -42.75 L40.95 -42.6 39.8 -43.2 38.5 -42.9 38.3 -42.9 Q38.05 -42.8 37.95 -42.7 37.45 -42.6 37.0 -41.65 L36.6 -40.25 Q36.6 -39.1 37.75 -38.0 L38.65 -36.75 38.8 -36.2" fill="#935801" fill-rule="evenodd" stroke="none"/>
    <path d="M37.95 -42.7 Q38.05 -42.8 38.3 -42.9 L38.5 -42.9 39.8 -43.2 40.95 -42.6 Q39.85 -42.15 39.85 -40.45 39.85 -39.8 40.1 -39.55 40.4 -38.95 41.85 -38.95 L42.0 -38.9 41.65 -38.1 41.85 -36.95 41.9 -36.75 41.95 -36.7 42.0 -36.55 40.35 -36.2 40.0 -36.7 39.3 -37.65 39.35 -37.65 39.05 -38.1 38.5 -39.2 38.25 -39.5 Q37.65 -40.35 37.6 -41.6 L37.75 -41.9 37.65 -42.05 37.75 -42.6 37.95 -42.7" fill="#ffcc00" fill-rule="evenodd" stroke="none"/>
    <path d="M38.8 -36.2 L38.65 -36.75 37.75 -38.0 Q36.6 -39.1 36.6 -40.25 L37.0 -41.65 Q37.45 -42.6 37.95 -42.7 L37.75 -42.6 37.65 -42.05 37.75 -41.9 37.6 -41.6 Q37.65 -40.35 38.25 -39.5 L38.5 -39.2 39.05 -38.1 39.35 -37.65 39.3 -37.65 40.0 -36.7 40.35 -36.2 39.9 -36.2 38.8 -36.2" fill="#ff9900" fill-rule="evenodd" stroke="none"/>
    <path d="M40.95 -42.6 L41.85 -42.75 Q43.2 -42.65 43.5 -40.35 43.5 -38.95 42.0 -38.9 L41.85 -38.95 Q40.4 -38.95 40.1 -39.55 39.85 -39.8 39.85 -40.45 39.85 -42.15 40.95 -42.6" fill="#ffffff" fill-rule="evenodd" stroke="none"/>
  </g>
</svg>
