<?xml version="1.0" encoding="UTF-8" standalone="no"?>
<svg xmlns:ffdec="https://www.free-decompiler.com/flash" xmlns:xlink="http://www.w3.org/1999/xlink" ffdec:objectType="shape" height="109.9px" width="102.65px" xmlns="http://www.w3.org/2000/svg">
  <g transform="matrix(1.0, 0.0, 0.0, 1.0, 51.4, 92.65)">
    <path d="M23.25 -5.45 L22.95 -5.3 23.15 -5.65 23.25 -5.45" fill="#2f2f2f" fill-rule="evenodd" stroke="none"/>
    <path d="M11.2 -65.75 L11.2 -65.65 10.95 -65.65 11.2 -65.75" fill="#444444" fill-rule="evenodd" stroke="none"/>
    <path d="M22.95 -5.3 Q15.25 7.45 -0.4 3.4 -5.85 2.0 -8.35 -3.05 -12.25 3.5 -20.45 3.1 -33.6 2.3 -40.55 -7.75 -41.3 -8.85 -41.6 -10.15 L-41.8 -11.15 -41.6 -12.6 Q-41.6 -14.9 -43.35 -16.4 -45.0 -17.8 -47.15 -17.75 -49.9 -21.0 -50.45 -25.3 -51.7 -33.6 -47.15 -40.8 -43.55 -46.5 -37.0 -48.1 L-34.25 -47.95 -34.25 -48.0 Q-35.45 -53.35 -35.35 -58.8 -35.15 -66.15 -29.65 -70.65 -24.7 -74.8 -18.3 -73.55 L-18.65 -75.0 Q-19.45 -77.05 -19.75 -79.3 L-19.8 -81.5 -19.35 -81.5 -19.35 -82.6 Q-19.2 -84.15 -18.7 -85.55 -17.9 -88.05 -15.55 -89.55 -11.85 -91.95 -7.6 -92.65 L-6.95 -92.65 -6.2 -92.55 -5.55 -92.3 -5.25 -92.1 -4.55 -92.3 Q-1.4 -91.5 1.15 -88.95 5.3 -84.7 7.15 -79.0 7.95 -76.5 8.15 -74.05 L9.35 -73.85 10.25 -73.85 Q13.1 -73.75 15.6 -72.65 18.1 -71.7 20.35 -70.25 L23.7 -67.9 24.5 -68.0 26.2 -67.9 Q29.0 -67.8 31.4 -66.6 34.55 -65.2 37.05 -62.15 41.65 -56.45 41.15 -48.85 40.75 -41.5 35.65 -36.2 33.55 -34.0 30.65 -32.65 35.1 -32.75 36.85 -28.7 38.55 -24.65 37.2 -20.45 36.35 -17.8 34.85 -15.8 32.25 -10.5 26.8 -7.5 L23.65 -5.65 Q23.45 -5.5 23.25 -5.45 L23.15 -5.65 22.95 -5.3 M11.2 -65.75 Q14.05 -65.5 16.15 -64.3 L16.15 -63.6 18.3 -62.3 Q20.45 -60.7 21.45 -58.25 22.4 -55.7 21.25 -53.25 L21.2 -53.0 Q21.6 -52.7 22.05 -52.55 22.05 -50.75 21.65 -48.9 20.95 -45.8 19.35 -43.35 24.0 -43.05 25.5 -38.25 L26.9 -33.65 Q27.7 -34.15 28.85 -34.55 31.9 -35.6 34.1 -37.9 38.15 -42.4 38.5 -48.4 38.9 -56.4 33.6 -62.45 30.4 -66.05 25.8 -65.85 L25.65 -65.75 25.6 -65.5 25.45 -65.4 25.3 -65.2 25.1 -65.05 24.9 -64.85 24.5 -64.7 22.2 -66.6 20.7 -66.5 19.8 -67.5 20.9 -67.65 Q17.8 -70.1 14.2 -71.1 L14.8 -70.45 10.95 -71.4 10.25 -71.75 9.7 -71.85 8.05 -71.85 Q7.95 -69.65 7.25 -67.45 L6.6 -65.65 8.35 -66.0 9.8 -66.0 10.55 -65.95 10.95 -65.65 11.2 -65.65 11.2 -65.75 M10.25 -64.2 L4.55 -63.55 2.5 -62.9 1.8 -62.7 Q0.35 -62.2 -0.45 -61.0 L-0.7 -60.65 -1.6 -60.6 -1.7 -60.7 -1.75 -60.85 -1.75 -61.25 -1.55 -61.9 -1.0 -62.2 -0.8 -62.35 -0.8 -62.5 -0.8 -62.65 -0.8 -62.75 -0.8 -62.9 -0.05 -63.6 Q1.45 -64.65 3.25 -65.2 L3.45 -65.2 4.15 -65.25 Q3.95 -68.25 5.1 -71.65 L5.75 -74.1 Q6.4 -78.35 4.1 -82.35 -0.8 -90.8 -7.95 -90.05 L-10.05 -89.6 -10.9 -89.0 Q-12.95 -88.2 -14.65 -86.95 -15.7 -86.2 -16.15 -85.15 L-17.0 -84.15 -17.35 -82.35 -17.75 -82.05 -17.6 -79.2 Q-17.25 -75.55 -15.7 -72.25 L-14.95 -71.85 Q-13.45 -70.95 -11.85 -70.45 -10.9 -70.1 -10.6 -69.3 L-10.6 -69.1 -10.75 -68.95 -10.9 -68.8 -11.15 -68.7 -12.4 -69.25 -15.9 -70.25 Q-19.25 -71.2 -22.65 -70.25 -24.15 -69.8 -24.75 -70.75 -30.3 -70.0 -32.1 -64.4 -33.9 -58.8 -33.6 -52.9 -33.5 -50.05 -32.3 -47.75 L-30.65 -47.4 Q-29.2 -46.9 -28.25 -45.95 -27.9 -45.6 -28.0 -45.1 L-28.55 -45.1 -28.65 -44.8 -28.8 -44.6 -29.0 -44.35 -29.15 -44.3 Q-31.5 -44.1 -32.8 -45.25 L-37.3 -45.4 Q-39.4 -45.4 -41.05 -44.15 -45.2 -40.95 -47.35 -36.0 -50.8 -28.1 -46.4 -20.55 -44.35 -17.05 -41.5 -14.9 L-41.05 -16.2 Q-40.85 -16.2 -40.7 -16.3 L-40.2 -16.3 -39.8 -16.15 -39.45 -15.95 -39.3 -15.65 -39.65 -13.75 Q-37.0 -12.3 -33.7 -11.9 L-33.6 -12.1 -33.15 -12.65 -32.6 -12.8 -32.05 -12.65 -31.75 -12.45 -31.55 -12.15 -31.5 -11.9 -31.5 -11.6 -31.5 -11.35 -31.55 -11.05 -31.75 -10.8 Q-36.0 -10.45 -39.6 -11.95 -39.45 -10.1 -38.5 -8.3 -35.0 -1.8 -27.35 0.25 -17.5 2.95 -11.15 -3.65 -10.5 -4.35 -10.55 -5.35 -10.7 -6.4 -10.15 -7.35 -6.3 -5.9 -3.7 -1.2 -2.6 0.8 -0.4 1.35 13.2 4.85 20.15 -4.75 L21.65 -7.15 Q22.35 -8.4 22.2 -9.55 L21.65 -11.2 21.5 -11.35 20.1 -11.8 17.15 -12.5 Q15.95 -12.65 16.05 -13.8 21.8 -15.2 24.55 -20.4 26.65 -24.3 26.1 -29.0 L26.05 -29.6 25.45 -32.65 Q24.2 -36.75 21.5 -40.1 20.95 -40.85 19.9 -40.85 L17.2 -40.8 15.75 -39.65 Q12.8 -37.5 11.15 -40.05 L13.3 -40.95 13.5 -41.5 14.05 -42.05 Q14.65 -42.65 15.6 -42.85 L15.9 -42.95 Q17.4 -44.5 18.5 -46.75 19.65 -49.25 19.9 -51.7 L19.75 -54.55 19.55 -54.8 Q20.2 -56.5 19.25 -58.15 L19.1 -58.45 Q18.1 -60.15 16.5 -61.25 L16.5 -61.1 16.1 -61.55 Q14.85 -62.75 13.3 -63.45 11.9 -64.1 10.25 -64.2 M28.05 -27.9 Q29.1 -22.05 26.1 -17.4 24.7 -15.05 22.2 -13.8 23.45 -12.7 24.0 -11.4 27.75 -12.9 31.5 -15.2 L32.85 -16.15 Q34.3 -18.35 35.0 -20.95 36.4 -26.95 31.2 -29.2 29.55 -29.9 27.7 -29.75 L28.05 -27.9" fill="#ff9900" fill-rule="evenodd" stroke="none"/>
    <path d="M10.95 -65.65 L10.55 -65.95 9.8 -66.0 8.35 -66.0 6.6 -65.65 7.25 -67.45 Q7.95 -69.65 8.05 -71.85 L9.7 -71.85 10.25 -71.75 10.95 -71.4 14.8 -70.45 14.2 -71.1 Q17.8 -70.1 20.9 -67.65 L19.8 -67.5 20.7 -66.5 22.2 -66.6 24.5 -64.7 24.9 -64.85 25.1 -65.05 25.3 -65.2 25.45 -65.4 25.6 -65.5 25.65 -65.75 25.8 -65.85 Q30.4 -66.05 33.6 -62.45 38.9 -56.4 38.5 -48.4 38.15 -42.4 34.1 -37.9 31.9 -35.6 28.85 -34.55 27.7 -34.15 26.9 -33.65 L25.5 -38.25 Q24.0 -43.05 19.35 -43.35 20.95 -45.8 21.65 -48.9 22.05 -50.75 22.05 -52.55 21.6 -52.7 21.2 -53.0 L21.25 -53.25 Q22.4 -55.7 21.45 -58.25 20.45 -60.7 18.3 -62.3 L16.15 -63.6 16.15 -64.3 Q14.05 -65.5 11.2 -65.75 L10.95 -65.65 M28.05 -27.9 L27.7 -29.75 Q29.55 -29.9 31.2 -29.2 36.4 -26.95 35.0 -20.95 34.3 -18.35 32.85 -16.15 L31.5 -15.2 Q27.75 -12.9 24.0 -11.4 23.45 -12.7 22.2 -13.8 24.7 -15.05 26.1 -17.4 29.1 -22.05 28.05 -27.9 M10.25 -64.2 Q11.9 -64.1 13.3 -63.45 14.85 -62.75 16.1 -61.55 L16.5 -61.1 16.5 -61.25 Q18.1 -60.15 19.1 -58.45 L19.25 -58.15 Q20.2 -56.5 19.55 -54.8 L19.75 -54.55 19.9 -51.7 Q19.65 -49.25 18.5 -46.75 17.4 -44.5 15.9 -42.95 L15.6 -42.85 Q14.65 -42.65 14.05 -42.05 L13.5 -41.5 13.3 -40.95 11.15 -40.05 Q12.8 -37.5 15.75 -39.65 L17.2 -40.8 19.9 -40.85 Q20.95 -40.85 21.5 -40.1 24.2 -36.75 25.45 -32.65 L26.05 -29.6 26.1 -29.0 Q26.65 -24.3 24.55 -20.4 21.8 -15.2 16.05 -13.8 15.95 -12.65 17.15 -12.5 L20.1 -11.8 21.5 -11.35 21.65 -11.2 22.2 -9.55 Q22.35 -8.4 21.65 -7.15 L20.15 -4.75 Q13.2 4.85 -0.4 1.35 -2.6 0.8 -3.7 -1.2 -6.3 -5.9 -10.15 -7.35 -10.7 -6.4 -10.55 -5.35 -10.5 -4.35 -11.15 -3.65 -17.5 2.95 -27.35 0.25 -35.0 -1.8 -38.5 -8.3 -39.45 -10.1 -39.6 -11.95 -36.0 -10.45 -31.75 -10.8 L-31.55 -11.05 -31.5 -11.35 -31.5 -11.6 -31.5 -11.9 -31.55 -12.15 -31.75 -12.45 -32.05 -12.65 -32.6 -12.8 -33.15 -12.65 -33.6 -12.1 -33.7 -11.9 Q-37.0 -12.3 -39.65 -13.75 L-39.3 -15.65 -39.45 -15.95 -39.8 -16.15 -40.2 -16.3 -40.7 -16.3 Q-40.85 -16.2 -41.05 -16.2 L-41.5 -14.9 Q-44.35 -17.05 -46.4 -20.55 -50.8 -28.1 -47.35 -36.0 -45.2 -40.95 -41.05 -44.15 -39.4 -45.4 -37.3 -45.4 L-32.8 -45.25 Q-31.5 -44.1 -29.15 -44.3 L-29.0 -44.35 -28.8 -44.6 -28.65 -44.8 -28.55 -45.1 -28.0 -45.1 Q-27.9 -45.6 -28.25 -45.95 -29.2 -46.9 -30.65 -47.4 L-32.3 -47.75 Q-33.5 -50.05 -33.6 -52.9 -33.9 -58.8 -32.1 -64.4 -30.3 -70.0 -24.75 -70.75 -24.15 -69.8 -22.65 -70.25 -19.25 -71.2 -15.9 -70.25 L-12.4 -69.25 -11.15 -68.7 -10.9 -68.8 -10.75 -68.95 -10.6 -69.1 -10.6 -69.3 Q-10.9 -70.1 -11.85 -70.45 -13.45 -70.95 -14.95 -71.85 L-15.7 -72.25 Q-17.25 -75.55 -17.6 -79.2 L-17.75 -82.05 -17.35 -82.35 -17.0 -84.15 -16.15 -85.15 Q-15.7 -86.2 -14.65 -86.95 -12.95 -88.2 -10.9 -89.0 L-10.05 -89.6 -7.95 -90.05 Q-0.8 -90.8 4.1 -82.35 6.4 -78.35 5.75 -74.1 L5.1 -71.65 Q3.95 -68.25 4.15 -65.25 L3.45 -65.2 3.25 -65.2 Q1.45 -64.65 -0.05 -63.6 L-0.8 -62.9 -0.8 -62.75 -0.8 -62.65 -0.8 -62.5 -0.8 -62.35 -1.0 -62.2 -1.55 -61.9 -1.75 -61.25 -1.75 -60.85 -1.7 -60.7 -1.6 -60.6 -0.7 -60.65 -0.45 -61.0 Q0.35 -62.2 1.8 -62.7 L2.5 -62.9 4.55 -63.55 10.25 -64.2" fill="#ffcc00" fill-rule="evenodd" stroke="none"/>
    <path d="M50.4 -57.5 Q51.25 -45.85 43.05 -38.7 L41.95 -37.75 Q47.85 -36.85 49.9 -31.2 52.25 -24.85 50.5 -18.2 48.7 -11.4 42.65 -8.05 41.25 -7.3 39.95 -7.1 41.2 -4.05 40.0 -0.1 38.3 5.65 32.2 7.95 26.6 10.1 20.65 9.15 18.9 8.9 17.65 8.1 16.4 11.15 12.9 13.6 6.6 18.2 -1.0 17.0 -6.35 16.2 -10.5 12.6 -13.1 10.4 -14.65 7.8 -22.1 14.15 -34.0 8.2 -38.4 5.95 -41.85 2.3 -46.75 -2.85 -40.9 -4.5 -26.7 -8.65 -35.25 -20.5 L-35.95 -21.4 Q-46.15 -18.3 -38.85 -10.4 -36.7 -8.05 -39.95 -7.75 -49.05 -6.7 -50.8 -14.9 -52.7 -23.7 -48.55 -31.45 -46.1 -35.95 -41.85 -37.85 L-42.8 -39.65 Q-45.05 -44.95 -45.0 -50.9 -44.85 -56.85 -43.85 -62.6 -42.2 -71.7 -35.7 -76.75 -28.4 -81.35 -19.5 -83.2 -15.95 -83.95 -12.85 -82.4 L-10.2 -81.4 -9.1 -80.4 Q-5.85 -77.0 -3.6 -72.9 -1.35 -68.55 -1.1 -63.9 -0.95 -62.65 -1.4 -61.5 L-1.25 -60.95 -0.95 -60.5 -0.9 -60.4 Q-1.6 -60.15 -2.1 -59.7 -2.1 -58.7 -3.55 -57.25 L-4.6 -55.8 Q-5.1 -54.3 -5.1 -52.65 L-5.05 -51.7 -5.05 -51.65 Q-4.65 -50.35 -3.45 -49.4 -2.2 -48.5 -2.45 -47.15 L-2.8 -46.9 -2.65 -46.8 Q-1.65 -46.1 -0.7 -46.0 0.4 -46.25 1.95 -46.9 L2.85 -47.9 8.15 -54.8 8.8 -53.7 9.45 -53.9 9.45 -53.6 21.9 -53.1 Q27.75 -53.3 28.95 -58.8 29.65 -62.2 29.4 -65.55 L29.45 -66.65 Q29.7 -75.6 24.55 -80.85 L23.2 -83.95 22.9 -84.2 22.95 -84.45 23.15 -85.0 23.35 -85.25 23.9 -85.75 24.4 -86.0 24.85 -86.05 24.9 -86.15 Q35.85 -85.0 42.9 -76.6 49.65 -68.35 50.4 -57.5 M-41.2 -34.7 L-41.3 -34.65 Q-46.85 -30.85 -49.55 -24.65 -51.75 -19.55 -49.0 -14.8 -45.9 -9.25 -40.9 -10.35 -46.1 -16.65 -40.2 -22.45 -37.4 -25.15 -34.05 -23.2 -27.25 -19.2 -29.55 -10.9 -32.0 -1.95 -41.4 -2.6 -41.4 -1.95 -41.0 -1.55 L-39.45 1.0 -38.25 2.55 -37.3 3.45 -37.65 3.5 Q-33.15 9.95 -24.25 8.7 -19.4 8.0 -15.65 5.9 L-15.15 5.55 -13.6 4.5 -13.5 4.8 -13.2 5.25 -13.2 5.9 -13.15 6.4 Q-12.7 8.45 -9.95 10.8 -4.2 15.5 3.7 14.55 9.55 13.85 13.25 9.5 14.8 7.7 15.7 5.9 L16.05 5.0 16.25 4.55 16.75 4.85 18.25 5.7 19.35 6.0 Q24.4 7.5 29.7 6.0 34.65 4.55 37.35 0.3 40.1 -4.05 37.3 -7.5 L37.0 -7.9 36.45 -8.4 37.15 -8.4 39.1 -8.7 41.1 -9.45 Q47.0 -12.15 48.95 -18.75 50.8 -25.1 47.7 -31.1 45.35 -35.95 40.0 -36.6 L37.55 -36.65 37.15 -36.65 37.15 -36.6 36.4 -36.6 37.6 -37.4 Q41.95 -40.85 44.45 -45.6 46.0 -48.75 46.85 -52.45 49.1 -63.2 43.3 -72.35 38.1 -80.75 29.15 -83.5 L27.1 -84.05 26.35 -83.95 25.9 -83.85 25.75 -83.8 25.6 -83.6 25.55 -83.7 25.25 -83.6 25.35 -83.55 25.0 -83.3 24.6 -83.0 24.55 -83.0 24.35 -82.8 24.9 -82.8 26.35 -82.85 27.85 -81.4 Q29.05 -80.1 30.05 -78.2 33.4 -71.7 33.25 -64.45 33.2 -60.25 31.15 -56.8 24.4 -45.45 12.8 -51.45 12.85 -52.15 11.85 -52.3 L11.65 -52.1 11.6 -52.15 11.6 -52.1 11.4 -52.05 10.4 -51.35 10.35 -51.25 9.6 -50.5 9.15 -50.2 8.35 -49.4 8.3 -48.8 8.2 -48.4 6.65 -47.05 6.35 -46.7 Q5.05 -44.6 3.2 -43.65 1.05 -42.6 -1.75 -42.85 -6.25 -43.35 -6.9 -46.8 L-7.1 -47.95 -7.1 -48.25 -7.1 -49.2 -7.0 -55.0 -6.85 -56.1 -6.75 -55.85 -6.6 -55.75 Q-6.3 -57.25 -5.5 -58.5 L-3.95 -60.25 -3.35 -60.75 -3.35 -60.8 -3.35 -61.0 -3.35 -63.85 Q-3.6 -66.7 -4.55 -69.4 -5.85 -73.15 -8.6 -75.65 -9.95 -76.85 -11.5 -77.75 -13.5 -78.9 -15.65 -79.55 -18.55 -80.4 -21.6 -80.35 -25.45 -80.15 -28.7 -78.05 L-32.5 -75.15 Q-35.2 -72.8 -37.4 -70.05 L-37.8 -69.5 Q-43.75 -61.75 -43.35 -51.95 -43.15 -47.2 -40.75 -43.1 L-38.0 -39.15 Q-36.8 -37.75 -35.45 -36.7 L-35.7 -36.65 -36.05 -36.65 -36.15 -36.85 -38.15 -36.5 -38.85 -36.35 -38.95 -36.25 -39.75 -36.0 -38.85 -35.95 -39.6 -35.65 -40.4 -35.2 -40.7 -35.15 -41.2 -34.7 M9.3 -52.6 L9.35 -52.4 9.4 -52.45 9.3 -52.6" fill="#ffcc00" fill-rule="evenodd" stroke="none"/>
    <path d="M-38.85 -35.95 L-39.75 -36.0 -38.95 -36.25 -38.85 -35.95" fill="#ffffff" fill-rule="evenodd" stroke="none"/>
    <path d="M-38.95 -36.25 L-38.85 -36.35 -38.15 -36.5 -36.15 -36.85 -36.05 -36.65 -35.7 -36.65 -35.45 -36.7 Q-36.8 -37.75 -38.0 -39.15 L-40.75 -43.1 Q-43.15 -47.2 -43.35 -51.95 -43.75 -61.75 -37.8 -69.5 L-37.4 -70.05 Q-35.2 -72.8 -32.5 -75.15 L-28.7 -78.05 Q-25.45 -80.15 -21.6 -80.35 -18.55 -80.4 -15.65 -79.55 -13.5 -78.9 -11.5 -77.75 -9.95 -76.85 -8.6 -75.65 -5.85 -73.15 -4.55 -69.4 -3.6 -66.7 -3.35 -63.85 L-3.35 -61.0 -3.35 -60.8 -3.35 -60.75 -3.95 -60.25 -5.5 -58.5 Q-6.3 -57.25 -6.6 -55.75 L-6.75 -55.85 -6.85 -56.1 -7.0 -55.0 -7.1 -49.2 -7.1 -48.25 -7.1 -47.95 -6.9 -46.8 Q-6.25 -43.35 -1.75 -42.85 1.05 -42.6 3.2 -43.65 5.05 -44.6 6.35 -46.7 L6.65 -47.05 8.2 -48.4 8.3 -48.8 8.35 -49.4 9.15 -50.2 9.6 -50.5 10.35 -51.25 10.4 -51.35 11.4 -52.05 11.6 -52.1 11.6 -52.15 11.65 -52.1 11.85 -52.3 Q12.85 -52.15 12.8 -51.45 24.4 -45.45 31.15 -56.8 33.2 -60.25 33.25 -64.45 33.4 -71.7 30.05 -78.2 29.05 -80.1 27.85 -81.4 L26.35 -82.85 24.9 -82.8 24.35 -82.8 24.55 -83.0 24.6 -83.0 25.0 -83.3 25.35 -83.55 25.25 -83.6 25.55 -83.7 25.6 -83.6 25.75 -83.8 25.9 -83.85 26.35 -83.95 27.1 -84.05 29.15 -83.5 Q38.1 -80.75 43.3 -72.35 49.1 -63.2 46.85 -52.45 46.0 -48.75 44.45 -45.6 41.95 -40.85 37.6 -37.4 L36.4 -36.6 37.15 -36.6 37.15 -36.65 37.55 -36.65 40.0 -36.6 Q45.35 -35.95 47.7 -31.1 50.8 -25.1 48.95 -18.75 47.0 -12.15 41.1 -9.45 L39.1 -8.7 37.15 -8.4 36.45 -8.4 37.0 -7.9 37.3 -7.5 Q40.1 -4.05 37.35 0.3 34.65 4.55 29.7 6.0 24.4 7.5 19.35 6.0 L18.25 5.7 16.75 4.85 16.25 4.55 16.05 5.0 15.7 5.9 Q14.8 7.7 13.25 9.5 9.55 13.85 3.7 14.55 -4.2 15.5 -9.95 10.8 -12.7 8.45 -13.15 6.4 L-13.2 5.9 -13.2 5.25 -13.5 4.8 -13.6 4.5 -15.15 5.55 -15.65 5.9 Q-19.4 8.0 -24.25 8.7 -33.15 9.95 -37.65 3.5 L-37.3 3.45 -38.25 2.55 -39.45 1.0 -41.0 -1.55 Q-41.4 -1.95 -41.4 -2.6 -32.0 -1.95 -29.55 -10.9 -27.25 -19.2 -34.05 -23.2 -37.4 -25.15 -40.2 -22.45 -46.1 -16.65 -40.9 -10.35 -45.9 -9.25 -49.0 -14.8 -51.75 -19.55 -49.55 -24.65 -46.85 -30.85 -41.3 -34.65 L-41.2 -34.7 -40.85 -34.95 -40.4 -35.2 -39.6 -35.65 -38.85 -35.95 -38.95 -36.25 M11.3 -49.2 L11.3 -49.25 11.1 -49.15 11.3 -49.2" fill="#ffff99" fill-rule="evenodd" stroke="none"/>
  </g>
</svg>
