<?xml version="1.0" encoding="UTF-8" standalone="no"?>
<svg xmlns:ffdec="https://www.free-decompiler.com/flash" xmlns:xlink="http://www.w3.org/1999/xlink" ffdec:objectType="shape" height="95.4px" width="94.1px" xmlns="http://www.w3.org/2000/svg">
  <g transform="matrix(1.0, 0.0, 0.0, 1.0, 47.7, 53.0)">
    <path d="M26.45 29.95 Q26.3 30.4 25.7 30.4 L25.25 30.3 25.1 30.2 25.05 29.8 Q25.4 29.2 26.45 29.2 L26.5 29.6 26.45 29.95 Q27.3 29.6 28.25 30.4 29.1 31.15 29.1 31.55 L29.0 31.95 28.55 32.05 Q28.2 31.95 27.3 31.3 26.35 30.65 26.35 30.4 L26.45 29.95 M12.5 41.7 Q12.5 42.05 11.7 42.4 8.4 37.95 8.4 37.65 8.4 35.6 10.45 38.4 12.5 41.25 12.5 41.7 M6.9 35.2 L6.95 35.1 Q7.65 34.7 8.1 35.3 L8.45 36.2 8.35 36.45 7.9 36.85 7.2 36.35 6.8 35.55 6.9 35.2 M2.65 28.4 L2.7 28.3 Q3.7 28.35 5.2 30.4 6.6 32.3 6.6 32.85 L6.45 33.25 6.05 33.35 Q5.5 33.05 5.1 32.3 L4.55 31.2 3.35 29.75 2.55 28.75 2.65 28.4 M15.75 23.05 L15.8 22.95 Q16.75 22.95 20.1 25.2 23.4 27.4 23.4 27.9 L23.3 28.35 22.75 28.45 19.15 26.15 Q15.65 23.8 15.65 23.4 L15.75 23.05 M12.6 21.55 L12.65 21.45 Q13.6 21.1 13.6 21.95 L13.5 22.4 12.95 22.45 12.6 22.4 12.6 22.3 12.5 21.9 12.6 21.55 M21.0 0.4 L20.75 0.8 19.85 1.1 Q19.4 1.1 19.15 0.65 19.6 -0.15 20.3 -0.2 21.0 -0.25 21.0 0.4 M42.6 -15.35 L42.55 -15.55 Q44.75 -18.9 46.35 -18.5 L46.4 -18.05 43.1 -15.0 42.7 -15.1 42.6 -15.35 M33.95 -8.75 L33.9 -9.1 37.3 -12.2 Q39.95 -14.35 39.95 -12.85 L37.35 -10.85 34.45 -8.55 Q34.05 -8.55 33.95 -8.75 M29.4 -5.65 L29.3 -6.05 Q29.3 -6.4 30.3 -6.75 L31.65 -7.05 31.7 -6.65 Q31.3 -5.55 30.1 -5.55 L29.4 -5.65 M23.05 -1.45 L23.0 -1.85 Q27.05 -5.45 27.05 -3.45 27.05 -3.0 23.55 -1.3 L23.15 -1.35 23.05 -1.45 M17.85 -14.85 Q19.35 -16.4 19.35 -14.85 17.0 -11.6 16.45 -11.6 L16.05 -11.7 15.9 -11.85 15.85 -12.15 Q16.55 -13.5 17.85 -14.85 M19.55 -16.35 L19.5 -16.95 Q19.5 -17.6 20.05 -17.7 20.6 -17.75 20.6 -16.95 20.6 -16.2 20.05 -16.2 L19.65 -16.25 19.55 -16.35 M3.95 -25.7 L3.85 -26.2 Q6.05 -33.25 6.05 -29.6 L5.5 -27.6 5.25 -26.4 Q5.0 -25.6 4.4 -25.6 L3.95 -25.7 M5.75 -32.25 L5.7 -32.9 Q5.7 -33.55 6.35 -33.85 7.0 -34.1 7.0 -33.3 6.7 -32.05 6.25 -32.05 L5.85 -32.15 5.75 -32.25 M8.1 -36.5 L8.05 -36.15 Q7.85 -35.65 7.35 -35.65 6.8 -35.65 6.8 -36.35 6.8 -36.9 7.45 -37.1 8.1 -37.35 8.1 -36.5 M8.35 -38.85 L7.95 -38.9 7.85 -39.0 7.75 -39.4 8.2 -40.9 8.7 -42.7 9.55 -44.7 Q10.15 -45.7 10.15 -43.85 L9.55 -41.4 Q8.85 -38.85 8.35 -38.85 M30.05 -27.0 Q29.4 -27.0 29.4 -27.55 L34.8 -34.25 Q40.15 -40.45 40.15 -38.3 L35.5 -32.7 Q30.7 -27.0 30.05 -27.0 M27.8 -24.8 L27.8 -24.75 26.55 -23.05 Q25.0 -20.85 24.5 -20.85 L22.85 -19.05 22.75 -18.7 22.45 -18.6 Q21.65 -17.9 21.35 -17.9 L21.0 -17.95 20.9 -18.05 20.8 -18.55 Q20.8 -18.85 24.7 -22.75 24.7 -23.2 24.8 -23.1 L25.0 -23.1 26.8 -25.6 Q28.2 -27.2 28.2 -25.3 L27.95 -24.95 27.8 -24.8 M-7.55 33.65 L-7.6 34.65 Q-7.7 35.2 -8.3 35.65 L-8.8 35.45 -8.95 32.75 -8.85 32.25 Q-7.85 32.3 -7.6 32.8 L-7.55 33.65 M-8.55 36.95 L-8.5 36.85 Q-7.55 36.5 -7.55 37.35 L-8.1 37.9 -8.55 37.7 -8.65 37.35 -8.55 36.95 M-34.95 38.65 L-35.0 38.45 Q-34.3 37.25 -33.15 36.8 -32.05 36.3 -32.05 37.2 L-33.15 38.2 -34.45 39.05 -34.85 38.9 -34.95 38.65 M-28.05 33.85 L-28.15 33.45 Q-28.15 33.0 -25.25 31.15 -22.4 29.3 -22.4 30.55 -22.4 31.2 -23.15 31.6 L-24.7 32.15 -26.05 33.15 -27.5 34.0 -28.05 33.85 M-29.3 35.15 L-29.5 35.6 Q-29.85 36.1 -30.5 36.1 -31.1 36.1 -31.1 35.45 -31.1 34.55 -30.2 34.55 -29.3 34.5 -29.3 35.15 M-34.05 12.35 L-34.0 12.25 -30.35 12.4 Q-29.65 12.5 -29.65 13.05 -29.65 13.55 -29.75 13.5 L-30.5 13.55 Q-34.15 13.55 -34.15 12.7 L-34.05 12.35 M-40.35 11.25 Q-38.3 11.4 -38.3 12.2 -38.3 12.7 -38.4 12.6 L-39.05 12.7 -44.95 11.95 Q-47.35 11.35 -47.35 11.05 L-47.25 10.7 -47.2 10.6 -40.35 11.25 M-29.8 -5.85 L-29.65 -6.35 -28.7 -6.4 Q-28.35 -6.3 -28.35 -5.85 L-28.45 -5.45 -29.05 -5.35 Q-29.8 -5.35 -29.8 -5.85 M-35.4 -10.85 Q-34.7 -10.9 -33.1 -9.8 L-31.6 -8.45 -31.7 -8.05 -32.25 -8.0 Q-35.55 -10.15 -35.55 -10.35 L-35.4 -10.85 M-40.3 -13.85 L-40.15 -14.35 Q-39.35 -14.4 -37.8 -13.4 -36.2 -12.45 -36.2 -11.75 L-36.3 -11.35 -36.8 -11.25 Q-40.3 -13.35 -40.3 -13.85 M-21.45 -28.1 L-21.65 -28.95 Q-21.65 -29.7 -21.05 -29.65 -20.45 -29.55 -20.45 -28.4 -20.45 -27.95 -21.0 -27.45 L-21.45 -28.1 M-20.55 -25.75 L-20.45 -26.25 Q-19.7 -26.1 -19.25 -25.05 -18.9 -24.25 -18.9 -23.75 L-19.0 -23.35 -19.55 -23.25 Q-20.05 -23.25 -20.2 -23.5 L-20.55 -25.75 M-21.65 -31.5 L-22.35 -32.15 -22.8 -33.0 -22.65 -33.5 Q-21.95 -33.5 -21.45 -32.85 -21.1 -32.35 -21.1 -32.0 L-21.65 -31.5 M-22.2 -34.3 L-22.4 -34.15 -22.8 -34.1 Q-23.0 -34.1 -23.25 -34.35 L-23.5 -34.85 -23.35 -35.35 Q-22.65 -35.7 -22.3 -35.15 -22.05 -34.7 -22.2 -34.3 M-45.15 -17.85 Q-44.55 -18.0 -42.75 -16.8 -41.0 -15.65 -41.0 -15.05 L-41.55 -14.55 -43.6 -15.9 Q-45.3 -17.1 -45.3 -17.35 L-45.15 -17.85 M-46.4 -19.35 L-46.15 -18.7 -46.15 -18.35 -46.7 -18.05 Q-46.9 -18.05 -47.3 -18.4 L-47.7 -19.0 -47.55 -19.5 Q-46.8 -19.8 -46.4 -19.35 M-28.65 -52.45 L-28.55 -52.95 Q-27.3 -53.4 -26.3 -50.9 L-25.0 -46.35 Q-23.2 -40.25 -23.2 -39.2 -23.2 -38.7 -23.75 -38.5 -24.45 -39.7 -24.95 -41.8 L-25.85 -45.4 Q-27.1 -49.25 -28.65 -52.45 M28.75 32.6 L28.85 32.15 Q29.85 31.8 29.85 32.65 L29.3 33.15 28.8 33.0 28.75 32.6" fill="#ffffff" fill-rule="evenodd" stroke="none"/>
  </g>
</svg>
