<?xml version="1.0" encoding="UTF-8" standalone="no"?>
<svg xmlns:ffdec="https://www.free-decompiler.com/flash" xmlns:xlink="http://www.w3.org/1999/xlink" ffdec:objectType="shape" height="137.95px" width="173.2px" xmlns="http://www.w3.org/2000/svg">
  <g transform="matrix(1.0, 0.0, 0.0, 1.0, 85.4, 75.6)">
    <path d="M17.25 -75.6 Q14.3 -36.8 26.5 -49.25 23.3 -35.2 39.65 -54.5 33.5 -38.5 51.2 -50.95 12.8 -4.15 55.5 -23.15 28.45 -3.15 87.8 -5.8 23.75 9.45 63.7 16.15 38.7 18.7 60.0 26.0 39.25 27.0 61.95 41.9 20.6 24.15 27.95 60.2 16.8 37.85 16.25 56.6 5.0 34.65 -2.0 62.35 -1.65 28.1 -19.5 54.45 -16.25 33.75 -44.15 50.5 -14.3 19.05 -85.4 49.85 -27.35 12.85 -76.7 14.2 -37.25 4.5 -66.55 -4.6 -27.85 -1.75 -50.1 -26.75 -25.7 -18.85 -49.65 -39.75 -29.85 -28.95 -51.95 -58.85 -7.0 -23.2 -18.55 -66.05 -3.6 -52.2 -0.15 -61.55 5.15 -52.1 5.05 -64.35 11.45 -58.95 17.25 -75.6 M28.8 -9.4 Q5.3 0.95 35.75 -39.05 18.15 -21.65 24.25 -35.8 12.0 -19.45 15.55 -31.75 6.85 -27.85 8.95 -56.55 5.7 -40.45 1.85 -45.95 1.0 -34.75 -2.5 -44.5 -4.0 -30.55 -13.1 -49.25 -2.5 -12.05 -32.25 -27.25 -20.0 -15.2 -29.25 -18.4 -17.65 -8.6 -27.75 -12.15 -14.5 5.4 -54.6 -2.05 -23.7 6.25 -42.65 10.8 -19.0 12.25 -51.3 25.5 -11.2 16.3 -33.6 39.05 -12.55 25.95 -17.5 41.0 -3.7 22.2 -3.25 45.7 0.2 26.5 8.9 42.55 7.25 28.6 18.65 45.05 9.7 19.55 43.05 34.45 20.85 21.4 36.6 20.8 20.6 15.95 43.4 15.45 3.55 11.55 42.5 -2.25 14.7 1.6 28.8 -9.4" fill="#ffffff" fill-rule="evenodd" stroke="none"/>
    <path d="M7.65 -15.5 Q3.45 -13.2 4.9 -29.1 3.1 -20.15 1.35 -23.1 0.8 -16.9 -0.7 -22.2 -1.65 -14.5 -5.65 -24.65 -1.25 -4.25 -15.05 -12.1 -9.5 -5.7 -13.8 -7.3 -8.45 -2.1 -13.2 -3.85 -7.2 5.6 -26.05 2.25 -11.6 6.25 -20.6 9.1 -9.45 9.5 -24.95 17.4 -5.85 11.6 -16.8 24.6 -6.6 16.95 -9.2 25.4 -2.35 14.7 -2.55 27.7 -0.6 17.0 3.25 25.7 2.7 18.05 7.85 26.9 4.0 13.0 18.3 21.7 9.25 13.8 16.75 13.15 9.25 10.8 20.05 10.1 5.15 7.6 19.9 0.3 6.7 2.95 13.5 -3.4 2.25 2.8 17.3 -19.9 8.7 -10.0 11.8 -17.9 5.75 -8.65 7.65 -15.5 M28.8 -9.4 Q14.7 1.6 42.5 -2.25 3.55 11.55 43.4 15.45 20.6 15.95 36.6 20.8 20.85 21.4 43.05 34.45 9.7 19.55 18.65 45.05 7.25 28.6 8.9 42.55 0.2 26.5 -3.25 45.7 -3.7 22.2 -17.5 41.0 -12.55 25.95 -33.6 39.05 -11.2 16.3 -51.3 25.5 -19.0 12.25 -42.65 10.8 -23.7 6.25 -54.6 -2.05 -14.5 5.4 -27.75 -12.15 -17.65 -8.6 -29.25 -18.4 -20.0 -15.2 -32.25 -27.25 -2.5 -12.05 -13.1 -49.25 -4.0 -30.55 -2.5 -44.5 1.0 -34.75 1.85 -45.95 5.7 -40.45 8.95 -56.55 6.85 -27.85 15.55 -31.75 12.0 -19.45 24.25 -35.8 18.15 -21.65 35.75 -39.05 5.3 0.95 28.8 -9.4" fill="#ffcc00" fill-rule="evenodd" stroke="none"/>
  </g>
</svg>
