<?xml version="1.0" encoding="UTF-8" standalone="no"?>
<svg xmlns:ffdec="https://www.free-decompiler.com/flash" xmlns:xlink="http://www.w3.org/1999/xlink" ffdec:objectType="shape" height="131.35px" width="131.5px" xmlns="http://www.w3.org/2000/svg">
  <g transform="matrix(1.0, 0.0, 0.0, 1.0, 60.3, 107.65)">
    <path d="M12.0 -80.7 L12.0 -80.65 11.7 -80.65 11.5 -80.75 11.65 -80.85 11.85 -81.05 12.0 -80.7 M-33.05 -26.85 L-32.95 -26.95 -32.95 -26.85 -33.05 -26.85" fill="#444444" fill-rule="evenodd" stroke="none"/>
    <path d="M17.7 -6.1 L17.75 -6.35 17.8 -6.25 17.7 -6.1" fill="#2f2f2f" fill-rule="evenodd" stroke="none"/>
    <path d="M44.95 -78.45 Q48.1 -77.0 50.55 -73.95 55.15 -68.25 54.7 -60.65 54.3 -53.3 49.2 -48.0 47.05 -45.8 44.2 -44.45 48.65 -44.6 50.35 -40.5 52.1 -36.45 50.7 -32.3 L50.1 -30.55 50.15 -30.35 Q49.9 -29.8 49.35 -29.95 47.2 -30.3 45.35 -31.3 37.4 -35.65 28.25 -33.4 L28.3 -33.4 26.65 -30.65 25.9 -31.05 23.95 -29.35 Q24.6 -28.85 24.55 -27.9 L24.5 -27.75 24.35 -27.55 24.2 -27.4 24.0 -27.2 23.6 -27.05 22.05 -27.6 Q19.45 -28.9 16.35 -28.65 12.95 -28.35 10.1 -26.4 9.65 -25.95 9.05 -26.25 L8.9 -26.45 8.75 -26.6 8.75 -26.65 8.55 -26.8 Q2.3 -30.85 -4.85 -27.95 L-10.55 -25.5 -10.55 -25.4 Q-11.25 -24.4 -12.4 -25.05 L-14.3 -26.15 Q-16.8 -27.7 -19.6 -27.8 L-23.85 -27.4 Q-24.75 -27.25 -24.7 -28.15 L-26.15 -28.1 -28.9 -26.85 Q-30.95 -25.9 -32.65 -24.5 -34.3 -23.15 -35.4 -21.35 -36.1 -20.2 -37.4 -20.25 L-37.45 -20.35 -37.6 -19.9 -39.8 -22.75 Q-41.05 -24.5 -41.1 -27.0 L-41.05 -28.05 Q-43.7 -29.6 -46.0 -32.2 -49.05 -35.65 -49.7 -40.25 -50.9 -48.55 -46.4 -55.75 -42.8 -61.45 -36.25 -63.05 L-33.5 -62.9 -33.5 -63.0 Q-34.7 -68.35 -34.6 -73.75 -34.35 -81.1 -28.9 -85.65 -23.95 -89.75 -17.55 -88.5 L-17.9 -89.95 Q-18.7 -92.0 -19.0 -94.3 -19.25 -97.25 -18.65 -100.05 -17.55 -104.8 -13.0 -106.4 L-8.9 -107.55 Q-2.5 -108.35 1.9 -103.9 6.05 -99.65 7.95 -93.95 L8.55 -91.7 8.6 -91.2 8.7 -85.5 8.0 -82.4 7.65 -81.3 Q12.0 -84.7 17.55 -85.5 L19.45 -86.0 22.9 -85.65 23.8 -85.65 Q26.6 -85.55 29.15 -84.45 31.6 -83.5 33.9 -82.05 L37.25 -79.75 38.0 -79.8 39.7 -79.75 Q42.55 -79.6 44.95 -78.45 M12.0 -80.7 Q18.1 -80.3 20.9 -74.95 23.65 -69.8 22.4 -63.85 21.75 -60.8 20.1 -58.3 24.75 -58.05 26.25 -53.25 27.9 -48.15 28.8 -42.85 29.5 -38.9 28.4 -35.45 L31.0 -35.8 Q41.45 -37.35 48.3 -31.85 L48.5 -32.75 48.6 -32.85 Q49.9 -38.75 44.75 -41.0 42.65 -41.9 40.25 -41.5 L37.1 -41.7 Q38.0 -44.85 42.4 -46.35 45.4 -47.4 47.6 -49.75 51.65 -54.2 52.0 -60.25 52.4 -68.2 47.15 -74.25 43.9 -77.9 39.3 -77.65 L39.15 -77.55 39.1 -77.35 38.95 -77.2 38.85 -77.0 38.6 -76.85 38.4 -76.65 38.0 -76.5 35.75 -78.45 34.25 -78.3 33.35 -79.3 34.45 -79.45 Q31.35 -81.95 27.7 -82.9 L28.3 -82.25 Q26.4 -82.95 24.5 -83.25 L23.8 -83.6 23.25 -83.65 Q17.0 -84.0 11.85 -81.05 L11.65 -80.85 11.5 -80.75 11.7 -80.65 12.0 -80.65 12.0 -80.7 M-32.95 -26.95 L-32.85 -27.05 -32.4 -27.6 -31.85 -27.75 -31.65 -27.75 -31.3 -27.6 -31.15 -27.5 Q-28.75 -28.8 -25.65 -29.4 L-21.2 -30.15 Q-15.15 -30.15 -11.8 -27.25 L-11.5 -27.0 -11.45 -27.05 -11.15 -27.2 Q-6.65 -30.35 -1.05 -31.1 L3.1 -30.9 6.35 -30.15 9.15 -28.5 10.05 -27.75 10.4 -27.95 Q15.05 -30.7 20.35 -30.1 L20.65 -30.3 23.15 -32.3 23.5 -32.7 24.35 -33.8 25.05 -34.9 25.3 -35.35 Q27.45 -39.3 26.9 -43.95 26.1 -50.25 22.3 -55.1 21.75 -55.85 20.65 -55.85 L18.85 -55.75 17.95 -55.75 16.5 -54.6 Q13.55 -52.45 11.9 -55.0 L14.05 -55.9 14.25 -56.45 14.8 -57.0 Q15.4 -57.6 16.35 -57.85 L16.65 -57.9 18.3 -59.95 19.25 -61.75 Q22.2 -67.9 18.85 -73.85 16.1 -78.75 11.0 -79.2 L9.05 -79.05 5.3 -78.5 4.65 -78.3 3.25 -77.9 2.55 -77.65 Q1.15 -77.2 0.3 -75.95 L0.05 -75.6 -0.85 -75.55 -0.95 -75.7 -1.0 -75.8 -1.0 -76.25 -0.8 -76.85 -0.25 -77.2 -0.05 -77.35 -0.05 -77.45 -0.05 -77.6 -0.05 -77.75 -0.05 -77.9 0.7 -78.55 Q2.25 -79.6 4.0 -80.15 L4.2 -80.15 4.9 -80.2 Q4.7 -83.25 5.85 -86.6 7.8 -92.25 4.85 -97.3 -2.45 -109.95 -14.85 -102.0 -16.7 -100.8 -16.95 -98.35 -17.35 -92.35 -14.95 -87.2 L-14.2 -86.8 Q-12.65 -85.9 -11.1 -85.45 -10.15 -85.1 -9.85 -84.25 L-9.85 -84.05 -10.0 -83.9 -10.15 -83.8 -10.4 -83.65 -11.65 -84.2 -15.15 -85.25 Q-18.5 -86.2 -21.85 -85.25 -23.4 -84.75 -24.0 -85.7 -29.55 -84.95 -31.35 -79.4 -33.15 -73.75 -32.85 -67.85 -32.7 -65.05 -31.55 -62.7 L-29.9 -62.35 Q-28.45 -61.9 -27.5 -60.9 -27.15 -60.6 -27.25 -60.1 L-27.8 -60.1 -27.9 -59.75 -28.05 -59.55 -28.25 -59.35 -28.4 -59.25 Q-30.75 -59.05 -32.05 -60.25 L-36.55 -60.35 Q-38.65 -60.35 -40.3 -59.15 -44.45 -55.9 -46.6 -50.95 -50.05 -43.05 -45.65 -35.5 -43.55 -32.0 -40.75 -29.9 L-40.3 -31.2 -39.95 -31.25 -39.45 -31.25 -39.05 -31.1 -38.7 -30.9 -38.55 -30.65 -38.9 -28.7 Q-36.3 -27.25 -33.05 -26.85 L-32.95 -26.85 -32.95 -26.95 M5.6 -21.7 L4.95 -22.75 4.7 -22.9 2.7 -22.95 2.45 -22.9 2.25 -22.8 1.8 -22.75 1.75 -22.55 1.7 -22.35 1.6 -22.1 1.45 -21.9 1.7 -20.45 Q1.8 -19.45 2.45 -18.75 3.25 -18.0 4.3 -18.2 L5.05 -18.35 5.8 -19.45 Q6.15 -19.9 5.95 -20.45 L5.6 -21.7 M0.05 -20.8 L-0.2 -21.0 -0.3 -21.25 -0.3 -21.45 -0.3 -22.05 -0.1 -23.1 Q0.1 -24.0 0.9 -24.4 L2.45 -24.95 Q6.0 -25.4 7.3 -22.4 8.7 -19.3 5.95 -17.25 3.25 -15.3 1.05 -18.15 0.15 -19.25 0.35 -20.6 L0.05 -20.8 M3.65 -13.9 L4.7 -14.1 Q8.4 -13.35 6.95 -9.95 5.45 -6.45 2.7 -8.65 -0.1 -10.95 2.1 -13.05 2.7 -13.7 3.65 -13.9 M5.45 -11.7 L4.65 -12.05 4.45 -12.05 4.15 -11.6 3.9 -11.0 3.6 -10.6 3.45 -10.15 3.45 -9.95 Q3.95 -9.4 4.7 -9.75 L5.6 -10.25 Q6.0 -10.5 5.85 -10.95 L5.75 -11.35 5.45 -11.7 M14.75 -8.4 L16.15 -8.75 Q16.5 -8.3 16.45 -7.85 L16.45 -7.0 16.7 -6.2 17.0 -5.85 17.45 -6.0 17.7 -6.1 17.8 -6.25 19.2 -5.15 18.45 -4.6 Q15.9 -3.1 14.95 -5.7 14.45 -7.0 14.75 -8.4 M25.15 -2.05 L25.45 -2.3 25.8 -2.5 26.05 -2.6 26.35 -2.7 26.4 -2.75 Q29.95 -3.1 31.05 0.25 32.25 3.65 29.0 5.0 25.05 6.8 24.6 3.1 24.5 1.45 25.25 0.0 L25.3 -0.2 25.3 -0.4 25.1 -0.65 25.05 -0.85 24.95 -1.05 24.9 -1.25 24.9 -1.45 24.9 -1.65 25.05 -1.85 25.15 -2.05 M28.25 -0.65 L26.65 -0.65 Q26.05 -0.3 26.05 0.4 L26.2 1.5 26.1 2.55 26.2 3.35 Q27.0 4.4 28.55 3.35 L29.35 2.75 29.65 1.9 29.5 0.9 Q29.5 0.4 29.0 0.05 L28.4 -0.55 28.25 -0.65 M11.45 9.9 Q6.7 12.15 7.15 17.3 7.4 19.2 9.45 19.55 15.5 20.5 16.7 15.5 18.25 9.65 11.9 9.8 L11.45 9.9 M1.45 5.7 Q0.45 3.1 -2.35 2.05 L-3.45 2.0 Q-4.25 2.1 -4.7 2.85 L-5.4 4.25 -5.85 5.75 Q-6.0 6.45 -5.45 6.8 L-5.6 7.0 -5.75 7.2 -6.15 7.4 Q-6.5 8.15 -6.2 8.9 -5.85 10.0 -5.65 11.2 L-5.1 12.95 Q-4.7 14.15 -3.7 14.9 1.25 15.3 2.0 10.75 2.45 8.15 1.45 5.7 M4.9 13.95 Q6.4 8.35 11.9 7.4 20.7 7.6 18.8 16.0 17.25 22.5 9.85 21.4 3.2 20.4 4.9 13.95 M-23.05 -14.65 L-22.0 -15.05 -21.05 -15.2 -21.05 -15.25 -20.85 -15.4 -20.7 -15.4 -20.35 -15.45 -20.35 -15.55 Q-14.2 -16.0 -14.2 -10.15 -14.2 -7.85 -15.1 -6.6 L-15.55 -5.8 Q-17.8 -1.95 -20.55 -5.25 -23.3 -5.8 -24.3 -8.3 -25.7 -11.8 -23.85 -13.7 L-23.8 -13.8 -23.05 -14.65 M-20.65 -12.45 Q-20.85 -12.1 -21.2 -11.9 L-22.0 -11.35 -22.1 -11.2 -22.2 -9.75 -21.75 -8.45 -21.45 -8.05 -21.3 -7.9 Q-18.1 -5.15 -16.6 -8.65 L-16.15 -10.5 -16.15 -11.2 Q-16.65 -12.25 -17.5 -13.05 L-17.75 -13.35 -18.1 -13.4 -19.55 -13.4 -19.7 -13.35 -20.1 -13.2 -20.45 -13.05 -20.45 -12.9 -20.65 -12.45 M-7.6 -14.55 Q-5.4 -14.0 -4.35 -11.95 -3.15 -9.6 -5.95 -8.8 -8.4 -8.1 -9.85 -9.95 -10.55 -10.85 -10.25 -11.95 L-9.8 -12.7 -9.25 -13.15 -8.4 -13.95 -7.6 -14.55 M-8.35 -12.65 L-8.35 -12.6 -8.5 -12.15 -8.6 -11.75 -8.7 -11.55 -8.7 -11.15 -7.75 -10.5 Q-6.4 -10.15 -5.75 -11.0 L-6.4 -11.75 Q-6.75 -12.35 -7.45 -12.5 L-8.35 -12.65 M-6.85 -5.25 L-6.65 -4.55 Q-6.4 -4.2 -6.5 -3.8 L-6.7 -3.1 -7.4 -2.5 -6.0 -2.4 -5.6 -2.5 -5.55 -2.7 -5.4 -2.95 -5.35 -3.15 -5.25 -3.6 -5.25 -4.0 -5.55 -4.4 -5.8 -4.8 Q-6.0 -5.45 -6.7 -5.3 L-6.85 -5.25 M-9.05 -5.35 Q-8.3 -6.6 -6.9 -7.0 -3.75 -6.65 -4.1 -3.35 -4.35 -0.1 -7.75 -1.5 -10.6 -2.75 -9.05 -5.35 M-6.65 14.5 Q-10.4 8.15 -6.4 1.55 -5.4 -0.1 -3.7 -0.35 4.55 1.35 4.0 9.55 3.45 18.3 -5.0 15.85 -6.0 15.5 -6.65 14.5" fill="#ff9900" fill-rule="evenodd" stroke="none"/>
    <path d="M11.85 -81.05 Q17.0 -84.0 23.25 -83.65 L23.8 -83.6 24.5 -83.25 Q26.4 -82.95 28.3 -82.25 L27.7 -82.9 Q31.35 -81.95 34.45 -79.45 L33.35 -79.3 34.25 -78.3 35.75 -78.45 38.0 -76.5 38.4 -76.65 38.6 -76.85 38.85 -77.0 38.95 -77.2 39.1 -77.35 39.15 -77.55 39.3 -77.65 Q43.9 -77.9 47.15 -74.25 52.4 -68.2 52.0 -60.25 51.65 -54.2 47.6 -49.75 45.4 -47.4 42.4 -46.35 38.0 -44.85 37.1 -41.7 L40.25 -41.5 Q42.65 -41.9 44.75 -41.0 49.9 -38.75 48.6 -32.85 L48.5 -32.75 48.3 -31.85 Q41.45 -37.35 31.0 -35.8 L28.4 -35.45 Q29.5 -38.9 28.8 -42.85 27.9 -48.15 26.25 -53.25 24.75 -58.05 20.1 -58.3 21.75 -60.8 22.4 -63.85 23.65 -69.8 20.9 -74.95 18.1 -80.3 12.0 -80.7 L11.85 -81.05 M-33.05 -26.85 Q-36.3 -27.25 -38.9 -28.7 L-38.55 -30.65 -38.7 -30.9 -39.05 -31.1 -39.45 -31.25 -39.95 -31.25 -40.3 -31.2 -40.75 -29.9 Q-43.55 -32.0 -45.65 -35.5 -50.05 -43.05 -46.6 -50.95 -44.45 -55.9 -40.3 -59.15 -38.65 -60.35 -36.55 -60.35 L-32.05 -60.25 Q-30.75 -59.05 -28.4 -59.25 L-28.25 -59.35 -28.05 -59.55 -27.9 -59.75 -27.8 -60.1 -27.25 -60.1 Q-27.15 -60.6 -27.5 -60.9 -28.45 -61.9 -29.9 -62.35 L-31.55 -62.7 Q-32.7 -65.05 -32.85 -67.85 -33.15 -73.75 -31.35 -79.4 -29.55 -84.95 -24.0 -85.7 -23.4 -84.75 -21.85 -85.25 -18.5 -86.2 -15.15 -85.25 L-11.65 -84.2 -10.4 -83.65 -10.15 -83.8 -10.0 -83.9 -9.85 -84.05 -9.85 -84.25 Q-10.15 -85.1 -11.1 -85.45 -12.65 -85.9 -14.2 -86.8 L-14.95 -87.2 Q-17.35 -92.35 -16.95 -98.35 -16.7 -100.8 -14.85 -102.0 -2.45 -109.95 4.85 -97.3 7.8 -92.25 5.85 -86.6 4.7 -83.25 4.9 -80.2 L4.2 -80.15 4.0 -80.15 Q2.25 -79.6 0.7 -78.55 L-0.05 -77.9 -0.05 -77.75 -0.05 -77.6 -0.05 -77.45 -0.05 -77.35 -0.25 -77.2 -0.8 -76.85 -1.0 -76.25 -1.0 -75.8 -0.95 -75.7 -0.85 -75.55 0.05 -75.6 0.3 -75.95 Q1.15 -77.2 2.55 -77.65 L3.25 -77.9 4.65 -78.3 5.3 -78.5 9.05 -79.05 11.0 -79.2 Q16.1 -78.75 18.85 -73.85 22.2 -67.9 19.25 -61.75 L18.3 -59.95 16.65 -57.9 16.35 -57.85 Q15.4 -57.6 14.8 -57.0 L14.25 -56.45 14.05 -55.9 11.9 -55.0 Q13.55 -52.45 16.5 -54.6 L17.95 -55.75 18.85 -55.75 20.65 -55.85 Q21.75 -55.85 22.3 -55.1 26.1 -50.25 26.9 -43.95 27.45 -39.3 25.3 -35.35 L25.05 -34.9 24.35 -33.8 23.5 -32.7 23.15 -32.3 20.65 -30.3 20.35 -30.1 Q15.05 -30.7 10.4 -27.95 L10.05 -27.75 9.15 -28.5 6.35 -30.15 3.1 -30.9 -1.05 -31.1 Q-6.65 -30.35 -11.15 -27.2 L-11.45 -27.05 -11.5 -27.0 -11.8 -27.25 Q-15.15 -30.15 -21.2 -30.15 L-25.65 -29.4 Q-28.75 -28.8 -31.15 -27.5 L-31.3 -27.6 -31.65 -27.75 -31.85 -27.75 -32.4 -27.6 -32.85 -27.05 -32.95 -26.95 -33.05 -26.85 M5.6 -21.7 L5.95 -20.45 Q6.15 -19.9 5.8 -19.45 L5.05 -18.35 4.3 -18.2 Q3.25 -18.0 2.45 -18.75 1.8 -19.45 1.7 -20.45 L1.45 -21.9 1.6 -22.1 1.7 -22.35 1.75 -22.55 1.8 -22.75 2.25 -22.8 2.45 -22.9 2.7 -22.95 4.7 -22.9 4.95 -22.75 5.6 -21.7 M5.45 -11.7 L5.75 -11.35 5.85 -10.95 Q6.0 -10.5 5.6 -10.25 L4.7 -9.75 Q3.95 -9.4 3.45 -9.95 L3.45 -10.15 3.6 -10.6 3.9 -11.0 4.15 -11.6 4.45 -12.05 4.65 -12.05 5.45 -11.7 M14.75 -8.4 L14.65 -8.55 14.5 -8.8 14.4 -9.0 14.3 -9.2 14.4 -9.4 14.45 -9.6 14.5 -9.85 14.75 -10.05 15.05 -10.4 15.75 -10.7 15.8 -10.8 Q18.5 -10.85 19.55 -8.3 20.35 -6.4 19.2 -5.15 L17.8 -6.25 17.75 -6.35 17.7 -6.1 17.45 -6.0 17.0 -5.85 16.7 -6.2 16.45 -7.0 16.45 -7.85 Q16.5 -8.3 16.15 -8.75 L14.75 -8.4 M1.45 5.7 Q2.45 8.15 2.0 10.75 1.25 15.3 -3.7 14.9 -4.7 14.15 -5.1 12.95 L-5.65 11.2 Q-5.85 10.0 -6.2 8.9 -6.5 8.15 -6.15 7.4 L-5.75 7.2 -5.6 7.0 -5.45 6.8 Q-6.0 6.45 -5.85 5.75 L-5.4 4.25 -4.7 2.85 Q-4.25 2.1 -3.45 2.0 L-2.35 2.05 Q0.45 3.1 1.45 5.7 M11.45 9.9 L11.9 9.8 Q18.25 9.65 16.7 15.5 15.5 20.5 9.45 19.55 7.4 19.2 7.15 17.3 6.7 12.15 11.45 9.9 M28.25 -0.65 L28.4 -0.55 29.0 0.05 Q29.5 0.4 29.5 0.9 L29.65 1.9 29.35 2.75 28.55 3.35 Q27.0 4.4 26.2 3.35 L26.1 2.55 26.2 1.5 26.05 0.4 Q26.05 -0.3 26.65 -0.65 L28.25 -0.65 M-20.65 -12.45 L-20.45 -12.9 -20.45 -13.05 -20.1 -13.2 -19.7 -13.35 -19.55 -13.4 -18.1 -13.4 -17.75 -13.35 -17.5 -13.05 Q-16.65 -12.25 -16.15 -11.2 L-16.15 -10.5 -16.6 -8.65 Q-18.1 -5.15 -21.3 -7.9 L-21.45 -8.05 -21.75 -8.45 -22.2 -9.75 -22.1 -11.2 -22.0 -11.35 -21.2 -11.9 Q-20.85 -12.1 -20.65 -12.45 M-6.85 -5.25 L-6.7 -5.3 Q-6.0 -5.45 -5.8 -4.8 L-5.55 -4.4 -5.25 -4.0 -5.25 -3.6 -5.35 -3.15 -5.4 -2.95 -5.55 -2.7 -5.6 -2.5 -6.0 -2.4 -7.4 -2.5 -6.7 -3.1 -6.5 -3.8 Q-6.4 -4.2 -6.65 -4.55 L-6.85 -5.25 M-8.35 -12.65 L-7.45 -12.5 Q-6.75 -12.35 -6.4 -11.75 L-5.75 -11.0 Q-6.4 -10.15 -7.75 -10.5 L-8.7 -11.15 -8.7 -11.55 -8.6 -11.75 -8.5 -12.15 -8.35 -12.6 -8.35 -12.65" fill="#ffcc00" fill-rule="evenodd" stroke="none"/>
    <path d="M54.05 -21.45 Q51.55 -18.2 46.4 -16.5 37.15 -13.45 28.35 -16.35 28.95 -18.95 31.45 -20.3 33.25 -21.3 34.55 -23.0 L36.4 -26.3 36.85 -27.1 32.45 -25.85 Q30.2 -25.1 28.35 -26.35 29.9 -28.55 31.9 -30.75 33.5 -32.45 34.7 -34.55 35.7 -36.35 36.1 -38.25 36.4 -39.35 37.4 -39.7 36.15 -40.55 35.1 -41.6 41.55 -44.35 49.65 -46.7 52.75 -47.55 54.7 -50.1 60.45 -57.5 63.75 -66.45 66.1 -73.0 63.5 -78.45 L63.8 -81.5 63.65 -83.7 Q70.9 -77.1 71.2 -66.3 71.6 -54.35 64.15 -44.75 59.95 -39.3 54.3 -37.5 60.4 -36.15 63.75 -30.1 67.25 -23.7 62.3 -17.3 57.9 -11.65 51.15 -9.2 48.45 -8.2 46.4 -8.5 47.45 -5.75 47.3 -2.3 46.85 4.8 40.25 8.25 33.4 11.8 27.85 7.0 25.35 4.8 24.9 1.55 29.0 3.05 33.35 1.35 36.45 0.15 39.35 -1.45 40.5 -2.85 41.1 -4.5 L42.25 -8.05 Q42.7 -9.9 41.8 -11.7 40.95 -13.35 42.4 -14.1 44.65 -12.2 45.9 -9.7 49.1 -12.4 52.3 -15.75 55.25 -18.8 55.7 -22.55 L55.75 -23.75 55.55 -25.7 Q54.5 -32.75 47.35 -33.5 44.2 -33.8 42.2 -34.8 44.4 -35.75 46.5 -35.7 L48.65 -36.2 50.5 -36.65 51.5 -36.6 51.25 -36.85 50.5 -36.7 44.95 -36.9 Q40.95 -37.4 37.8 -39.45 38.0 -37.65 37.05 -35.95 L35.15 -32.35 Q34.35 -30.75 33.15 -29.3 L31.85 -27.6 Q33.0 -27.4 36.05 -29.05 37.85 -30.05 39.35 -29.1 L37.55 -24.95 35.35 -21.4 Q33.9 -19.35 32.0 -17.85 31.55 -17.55 30.95 -17.4 40.75 -15.65 49.2 -20.6 51.4 -21.95 53.85 -22.75 L55.15 -23.15 54.05 -21.45 M67.75 -71.2 Q67.25 -74.15 66.35 -76.5 67.0 -69.05 63.85 -62.6 60.65 -56.0 56.9 -50.1 52.8 -43.75 45.35 -42.05 42.15 -41.3 39.15 -41.2 55.9 -34.9 64.4 -50.45 67.95 -56.8 68.25 -64.1 68.4 -67.6 67.75 -71.2 M2.05 -72.55 Q1.5 -72.95 1.25 -72.8 L2.5 -70.7 3.3 -68.15 Q3.55 -66.95 3.25 -65.7 L3.0 -64.0 Q4.25 -64.6 4.5 -66.2 4.8 -67.8 4.4 -69.4 3.9 -71.45 2.05 -72.55 M1.6 -67.75 Q1.05 -70.05 -0.35 -72.0 L-1.25 -73.15 -1.35 -73.15 -4.1 -72.95 -4.4 -72.95 -5.25 -72.95 -5.4 -73.15 -5.85 -73.3 -6.3 -73.3 -6.8 -73.05 -7.5 -72.95 -7.3 -73.2 -6.6 -73.75 -6.0 -74.4 -5.35 -74.95 -4.6 -75.4 -4.05 -75.6 Q0.1 -75.75 3.25 -73.25 6.5 -70.7 5.65 -66.35 4.9 -62.5 1.95 -59.75 0.3 -58.2 -1.45 -59.1 -1.5 -60.25 -0.65 -61.2 0.4 -62.4 1.1 -63.75 2.05 -65.7 1.6 -67.75 M24.75 -41.05 Q29.5 -37.2 29.3 -30.65 29.25 -28.3 28.3 -26.35 26.8 -23.2 23.05 -21.4 16.3 -18.05 12.55 -23.25 10.85 -25.6 10.6 -28.35 16.45 -28.4 21.45 -31.85 24.4 -33.95 23.7 -37.6 23.35 -39.45 24.4 -40.9 L24.75 -41.05 M26.75 -35.3 Q26.5 -36.2 26.0 -36.25 25.65 -33.8 24.3 -31.75 22.95 -29.65 20.65 -28.8 18.7 -27.95 16.55 -27.45 L13.15 -26.7 Q15.3 -19.45 22.9 -23.45 25.05 -24.65 26.3 -26.65 27.8 -29.15 27.45 -32.25 L26.75 -35.3 M9.7 -34.95 L10.8 -35.0 Q8.2 -26.8 -1.6 -24.5 -18.0 -20.9 -24.45 -34.5 L-24.45 -34.55 -24.5 -34.65 -24.5 -34.55 Q-25.15 -33.3 -27.0 -32.95 -28.35 -32.7 -29.45 -31.8 L-33.7 -27.95 Q-35.8 -25.65 -34.35 -22.95 -34.25 -22.55 -34.45 -22.2 -36.05 -22.05 -37.4 -24.0 -38.85 -26.15 -39.25 -28.75 -40.0 -33.0 -37.25 -35.9 -33.75 -39.65 -29.1 -40.4 L-29.05 -40.4 -29.05 -40.55 -29.05 -40.8 -28.9 -41.05 -28.6 -41.35 -27.2 -41.75 -26.0 -42.15 -25.45 -42.35 -25.05 -43.9 Q-23.5 -48.9 -19.4 -52.55 -15.9 -55.6 -12.15 -57.75 L-11.55 -57.5 -11.2 -57.3 -10.65 -56.9 -10.45 -56.75 Q-14.45 -52.1 -13.9 -45.8 -13.25 -38.7 -7.25 -34.95 -1.1 -31.1 6.7 -33.45 8.35 -33.95 9.7 -34.95 M1.75 -17.05 Q1.85 -17.75 2.2 -18.3 L2.45 -18.45 2.75 -16.5 Q2.8 -15.6 3.3 -14.85 L4.55 -13.6 Q5.0 -13.2 5.65 -13.1 L5.75 -12.75 5.75 -12.5 5.85 -12.25 6.0 -11.95 Q10.9 -8.0 16.8 -9.9 20.7 -11.15 22.4 -14.55 L23.35 -17.05 Q23.6 -18.2 24.75 -18.45 26.95 -13.9 24.5 -8.75 22.95 -5.55 20.0 -3.6 9.1 3.7 4.25 -6.8 3.15 -9.3 3.45 -11.75 L2.25 -13.7 Q1.7 -14.6 1.7 -15.65 L1.75 -17.05 M5.45 -9.95 Q6.0 -7.6 7.0 -5.25 8.7 -1.35 13.4 -2.9 17.25 -4.25 20.35 -6.95 22.3 -8.7 23.35 -11.15 23.6 -11.85 23.2 -11.7 21.45 -9.55 18.95 -8.45 16.45 -7.3 13.7 -7.25 10.9 -7.2 8.35 -8.45 L5.45 -9.95 M61.3 -29.6 L58.9 -32.85 Q57.25 -35.15 54.8 -35.55 54.5 -35.3 54.05 -35.4 L49.3 -35.25 Q51.8 -34.45 54.1 -32.05 57.75 -28.3 57.3 -23.15 56.95 -18.45 54.05 -14.55 53.1 -13.3 51.85 -12.4 54.0 -12.95 56.0 -14.2 58.7 -15.85 60.45 -18.55 61.85 -20.75 62.7 -23.25 63.35 -25.2 63.3 -27.35 L61.3 -29.6 M43.9 -9.5 Q43.5 -6.25 42.15 -3.25 40.75 -0.3 37.85 1.25 34.9 2.75 31.65 3.2 29.3 3.55 27.95 4.45 33.45 10.85 41.2 5.3 43.7 3.5 44.75 0.55 45.5 -1.65 45.5 -4.05 45.5 -6.05 44.9 -7.95 44.45 -9.15 43.9 -9.5 M-13.25 5.0 L-11.3 7.4 -11.55 7.55 -11.75 7.95 -11.95 8.45 Q-6.35 18.95 5.3 15.35 12.05 13.3 15.05 7.0 16.05 4.95 16.15 2.65 16.2 0.75 17.3 -0.1 20.5 7.9 14.6 15.85 10.1 22.0 2.2 23.4 -7.8 25.1 -13.2 17.55 -15.95 13.8 -14.75 9.85 L-14.7 9.7 -14.9 9.75 Q-14.6 8.4 -14.6 6.8 L-14.5 5.55 -14.35 5.4 Q-13.9 5.0 -13.25 5.0 M8.8 15.6 Q4.15 17.7 -0.95 17.8 -6.3 18.0 -9.75 13.75 L-12.75 9.85 Q-13.65 15.1 -8.85 18.9 -4.05 22.75 2.6 21.4 10.3 19.75 14.05 13.15 15.5 10.65 16.05 8.75 13.55 13.55 8.8 15.6 M-11.65 -81.25 Q-17.65 -85.45 -26.45 -84.0 -34.3 -82.65 -39.9 -77.15 -42.4 -74.7 -43.65 -71.5 -47.1 -62.95 -42.15 -54.85 -39.95 -51.2 -37.2 -48.15 -38.15 -50.2 -38.65 -52.4 -40.0 -57.75 -38.95 -63.15 -38.65 -64.7 -37.75 -66.15 -34.45 -71.95 -28.6 -75.75 -20.05 -81.4 -11.15 -78.8 L-11.05 -78.8 -10.15 -78.45 Q-9.25 -78.15 -9.3 -77.35 L-9.35 -77.25 -9.75 -77.35 -10.25 -77.35 -18.25 -76.9 Q-28.45 -75.05 -34.75 -67.2 -36.05 -65.6 -36.7 -63.5 -38.3 -58.0 -36.75 -52.45 -35.3 -47.4 -32.85 -42.9 -35.7 -43.15 -38.3 -46.35 -42.55 -51.45 -45.05 -57.1 -45.9 -59.1 -46.35 -61.3 -47.95 -68.35 -43.9 -74.05 -37.4 -83.2 -26.45 -85.35 L-17.45 -84.85 Q-14.45 -84.55 -12.25 -82.65 L-9.95 -80.5 -8.6 -78.8 -8.25 -78.15 -8.7 -78.65 -11.2 -80.9 -11.65 -81.25 M-46.35 -43.5 L-45.3 -43.35 -45.25 -43.35 -43.4 -43.55 -41.45 -43.1 -39.65 -42.5 -37.45 -41.85 Q-36.45 -41.75 -36.3 -40.8 L-36.55 -40.3 -36.45 -40.2 -36.65 -40.15 Q-37.3 -39.35 -38.4 -39.9 -42.2 -39.15 -45.75 -36.95 -50.3 -34.2 -51.4 -29.1 -52.85 -22.3 -47.75 -17.75 -44.75 -14.95 -40.95 -13.2 -40.6 -13.1 -40.65 -12.6 -48.75 -8.55 -54.9 -14.9 -59.85 -20.0 -60.25 -26.9 -60.5 -31.5 -58.3 -35.25 -54.7 -41.5 -47.45 -42.9 -46.75 -43.1 -46.35 -43.5 M-53.75 -39.4 Q-58.65 -35.65 -58.5 -29.35 -58.3 -21.95 -53.6 -16.25 -50.3 -12.25 -45.6 -13.55 -49.2 -14.8 -51.25 -17.85 -53.6 -21.25 -53.75 -25.4 -54.15 -32.8 -48.55 -37.7 -44.55 -41.15 -40.15 -40.95 -42.45 -42.1 -45.4 -41.65 L-51.3 -40.9 -53.75 -39.4 M-15.3 -48.55 Q-14.95 -52.4 -14.4 -55.25 -21.85 -50.0 -23.5 -41.65 -25.4 -32.3 -16.65 -28.3 -8.75 -24.65 -0.35 -27.65 3.4 -29.0 6.65 -31.25 -5.05 -28.5 -12.15 -37.75 -15.8 -42.55 -15.3 -48.55 M-28.55 -39.3 L-32.25 -38.0 Q-34.35 -37.15 -36.0 -35.55 -38.15 -33.45 -38.05 -30.5 -38.0 -27.55 -36.45 -25.2 -36.5 -26.3 -36.2 -27.15 L-35.3 -28.8 -32.15 -32.0 Q-29.35 -34.55 -25.75 -35.45 L-24.8 -35.4 Q-25.75 -37.75 -25.7 -40.2 L-26.45 -39.85 -26.6 -39.8 -26.65 -39.8 -27.95 -39.3 -28.55 -39.3 M-26.6 -16.85 L-24.75 -16.35 -23.05 -14.9 Q-22.55 -14.15 -22.95 -13.45 L-27.95 -13.15 Q-31.15 -12.5 -32.8 -9.75 L-33.5 -8.3 Q-34.3 -6.5 -35.3 -5.05 -36.25 -5.25 -36.25 -6.35 L-36.4 -9.65 -36.15 -11.1 -35.7 -11.95 -33.6 -14.2 -31.6 -16.1 -31.5 -16.1 -30.45 -16.4 -29.6 -16.75 -28.6 -16.9 -28.6 -17.0 -26.6 -16.85 M-28.55 -15.75 L-31.75 -14.4 Q-33.25 -13.6 -34.3 -12.2 -35.45 -10.75 -35.3 -8.95 L-35.3 -7.5 -34.1 -9.8 Q-33.15 -11.4 -31.8 -12.65 -28.9 -15.1 -25.05 -15.05 -25.6 -15.1 -25.95 -15.4 L-26.6 -15.75 -28.55 -15.75 M-21.75 -5.05 L-22.3 -5.2 Q-23.15 -5.25 -23.3 -5.95 -19.5 -7.1 -16.4 -3.25 -14.5 -0.9 -14.7 2.15 -15.2 11.45 -23.9 15.4 -33.0 19.55 -39.95 14.05 -42.05 12.4 -43.15 10.0 -47.2 1.75 -42.55 -6.0 -41.95 -7.95 -40.4 -9.25 -39.9 -8.3 -40.5 -6.55 -40.65 -5.25 -41.55 -3.75 -41.95 -1.85 -41.35 0.25 -39.2 7.4 -31.3 9.0 -23.0 10.7 -20.35 3.2 -18.55 -2.05 -23.3 -4.85 L-21.75 -5.0 Q-19.65 -4.75 -18.85 -1.4 -16.85 7.05 -25.3 9.85 -31.25 11.7 -36.65 8.6 -42.45 5.25 -43.05 -0.45 -45.0 9.7 -36.2 14.85 L-34.85 15.35 Q-23.7 17.5 -18.15 8.4 -14.35 2.05 -18.65 -3.15 -19.9 -4.6 -21.75 -5.05" fill="#ffcc00" fill-rule="evenodd" stroke="none"/>
    <path d="M54.05 -21.45 L55.15 -23.15 53.85 -22.75 Q51.4 -21.95 49.2 -20.6 40.75 -15.65 30.95 -17.4 31.55 -17.55 32.0 -17.85 33.9 -19.35 35.35 -21.4 L37.55 -24.95 39.35 -29.1 Q37.85 -30.05 36.05 -29.05 33.0 -27.4 31.85 -27.6 L33.15 -29.3 Q34.35 -30.75 35.15 -32.35 L37.05 -35.95 Q38.0 -37.65 37.8 -39.45 40.95 -37.4 44.95 -36.9 L50.5 -36.7 50.5 -36.65 48.65 -36.2 46.5 -35.7 Q44.4 -35.75 42.2 -34.8 44.2 -33.8 47.35 -33.5 54.5 -32.75 55.55 -25.7 L55.75 -23.75 55.7 -22.55 55.05 -22.15 54.05 -21.45 M54.6 -54.6 L54.6 -54.8 54.7 -55.0 54.85 -55.3 55.25 -55.6 Q55.65 -55.55 55.75 -55.15 L55.7 -54.5 Q55.5 -54.1 55.15 -54.15 54.6 -54.2 54.6 -54.6 M2.05 -72.55 Q3.9 -71.45 4.4 -69.4 4.8 -67.8 4.5 -66.2 4.25 -64.6 3.0 -64.0 L3.25 -65.7 Q3.55 -66.95 3.3 -68.15 L2.5 -70.7 1.25 -72.8 Q1.5 -72.95 2.05 -72.55 M67.75 -71.2 Q68.4 -67.6 68.25 -64.1 67.95 -56.8 64.4 -50.45 55.9 -34.9 39.15 -41.2 42.15 -41.3 45.35 -42.05 52.8 -43.75 56.9 -50.1 60.65 -56.0 63.85 -62.6 67.0 -69.05 66.35 -76.5 67.25 -74.15 67.75 -71.2 M33.9 -45.85 Q34.45 -45.7 34.3 -45.1 34.15 -44.7 33.7 -44.8 33.15 -44.85 33.35 -45.35 L33.9 -45.85 M25.9 -46.8 L26.3 -46.7 26.5 -46.55 26.7 -46.35 26.75 -46.2 26.8 -46.0 26.8 -45.8 26.8 -45.7 26.8 -45.5 26.75 -45.1 26.55 -45.0 Q26.35 -44.85 26.15 -44.85 L25.3 -45.0 25.15 -45.1 25.1 -45.5 25.1 -45.8 25.1 -46.35 Q25.25 -46.8 25.75 -46.8 L25.9 -46.8 M26.75 -35.3 L27.45 -32.25 Q27.8 -29.15 26.3 -26.65 25.05 -24.65 22.9 -23.45 15.3 -19.45 13.15 -26.7 L16.55 -27.45 Q18.7 -27.95 20.65 -28.8 22.95 -29.65 24.3 -31.75 25.65 -33.8 26.0 -36.25 26.5 -36.2 26.75 -35.3 M2.95 -41.9 Q3.45 -41.85 3.55 -41.4 L3.5 -40.7 2.95 -40.35 2.35 -40.4 2.25 -40.55 2.2 -40.7 2.1 -40.9 2.05 -41.1 2.1 -41.2 2.2 -41.4 2.35 -41.6 2.55 -41.75 2.95 -41.85 2.95 -41.9 M61.3 -29.6 L63.3 -27.35 Q63.35 -25.2 62.7 -23.25 61.85 -20.75 60.45 -18.55 58.7 -15.85 56.0 -14.2 54.0 -12.95 51.85 -12.4 53.1 -13.3 54.05 -14.55 56.95 -18.45 57.3 -23.15 57.75 -28.3 54.1 -32.05 51.8 -34.45 49.3 -35.25 L54.05 -35.4 Q54.5 -35.3 54.8 -35.55 57.25 -35.15 58.9 -32.85 L61.3 -29.6 M5.45 -9.95 L8.35 -8.45 Q10.9 -7.2 13.7 -7.25 16.45 -7.3 18.95 -8.45 21.45 -9.55 23.2 -11.7 23.6 -11.85 23.35 -11.15 22.3 -8.7 20.35 -6.95 17.25 -4.25 13.4 -2.9 8.7 -1.35 7.0 -5.25 6.0 -7.6 5.45 -9.95 M43.9 -9.5 Q44.45 -9.15 44.9 -7.95 45.5 -6.05 45.5 -4.05 45.5 -1.65 44.75 0.55 43.7 3.5 41.2 5.3 33.45 10.85 27.95 4.45 29.3 3.55 31.65 3.2 34.9 2.75 37.85 1.25 40.75 -0.3 42.15 -3.25 43.5 -6.25 43.9 -9.5 M53.5 -3.6 L53.85 -3.8 53.85 -3.85 Q54.3 -3.9 54.5 -3.55 54.7 -3.25 54.5 -2.85 L54.05 -2.4 Q53.7 -2.2 53.35 -2.6 L53.35 -2.8 53.35 -3.0 53.35 -3.3 53.5 -3.6 M22.35 9.95 L22.4 9.85 22.45 9.65 Q22.45 9.5 22.6 9.5 L22.9 9.35 23.15 9.25 23.65 9.45 24.0 9.95 23.9 10.65 23.6 11.1 23.15 11.1 22.6 10.85 Q22.3 10.65 22.35 10.35 L22.35 9.95 M-14.5 5.55 L-14.35 3.75 -13.25 5.0 Q-13.9 5.0 -14.35 5.4 L-14.5 5.55 M8.8 15.6 Q13.55 13.55 16.05 8.75 15.5 10.65 14.05 13.15 10.3 19.75 2.6 21.4 -4.05 22.75 -8.85 18.9 -13.65 15.1 -12.75 9.85 L-9.75 13.75 Q-6.3 18.0 -0.95 17.8 4.15 17.7 8.8 15.6 M-11.65 -81.25 L-11.75 -81.1 -11.2 -80.9 -8.7 -78.65 -8.75 -78.65 -8.95 -78.3 -9.0 -78.05 -9.2 -77.45 -9.3 -77.35 Q-9.25 -78.15 -10.15 -78.45 L-11.05 -78.8 -11.15 -79.05 -11.15 -78.8 Q-20.05 -81.4 -28.6 -75.75 -34.45 -71.95 -37.75 -66.15 -38.65 -64.7 -38.95 -63.15 -40.0 -57.75 -38.65 -52.4 -38.15 -50.2 -37.2 -48.15 -39.95 -51.2 -42.15 -54.85 -47.1 -62.95 -43.65 -71.5 -42.4 -74.7 -39.9 -77.15 -34.3 -82.65 -26.45 -84.0 -17.65 -85.45 -11.65 -81.25 M-9.95 -80.5 L-9.7 -80.35 -8.7 -79.85 -8.35 -79.45 -8.3 -79.2 -8.5 -78.95 -8.6 -78.8 -9.95 -80.5 M-12.05 -65.9 Q-11.45 -65.95 -11.2 -65.4 -11.05 -64.95 -11.3 -64.5 L-12.0 -64.0 -12.7 -63.95 -12.9 -64.35 -12.9 -64.85 -12.75 -65.4 -12.3 -65.8 -12.05 -65.9 M-5.75 -55.1 L-5.5 -55.15 Q-5.05 -55.0 -4.9 -54.5 -4.8 -54.05 -5.15 -53.7 L-5.85 -53.4 Q-6.4 -53.35 -6.8 -53.7 L-6.85 -53.9 -6.85 -54.1 -6.85 -54.3 -6.8 -54.5 -6.75 -54.6 -6.6 -54.75 -6.5 -54.8 -6.1 -54.9 -5.75 -55.1 M-15.3 -48.55 Q-15.8 -42.55 -12.15 -37.75 -5.05 -28.5 6.65 -31.25 3.4 -29.0 -0.35 -27.65 -8.75 -24.65 -16.65 -28.3 -25.4 -32.3 -23.5 -41.65 -21.85 -50.0 -14.4 -55.25 -14.95 -52.4 -15.3 -48.55 M-53.75 -39.4 L-51.3 -40.9 -45.4 -41.65 Q-42.45 -42.1 -40.15 -40.95 -44.55 -41.15 -48.55 -37.7 -54.15 -32.8 -53.75 -25.4 -53.6 -21.25 -51.25 -17.85 -49.2 -14.8 -45.6 -13.55 -50.3 -12.25 -53.6 -16.25 -58.3 -21.95 -58.5 -29.35 -58.65 -35.65 -53.75 -39.4 M-10.9 -47.2 Q-9.35 -46.95 -9.7 -45.5 -10.0 -44.1 -11.3 -44.7 -12.75 -45.25 -11.95 -46.5 -11.5 -47.2 -10.9 -47.2 M-30.05 -46.7 L-30.1 -46.55 -30.3 -46.2 -30.6 -45.8 Q-30.9 -45.5 -31.3 -45.55 L-31.9 -45.6 -32.1 -45.8 -32.15 -45.95 -32.25 -46.1 -32.25 -46.3 -32.35 -46.65 -32.55 -47.0 -32.55 -47.2 -32.55 -47.3 -32.4 -47.55 -32.25 -47.7 -32.05 -47.8 -31.75 -47.9 -31.3 -47.9 -31.0 -47.75 -30.45 -47.45 -30.1 -46.9 -30.05 -46.7 M-28.55 -39.3 L-27.95 -39.3 -26.65 -39.8 -26.6 -39.8 -26.45 -39.85 -25.7 -40.2 Q-25.75 -37.75 -24.8 -35.4 L-25.75 -35.45 Q-29.35 -34.55 -32.15 -32.0 L-35.3 -28.8 -36.2 -27.15 Q-36.5 -26.3 -36.45 -25.2 -38.0 -27.55 -38.05 -30.5 -38.15 -33.45 -36.0 -35.55 -34.35 -37.15 -32.25 -38.0 L-28.55 -39.3 M-28.55 -15.75 L-26.6 -15.75 -25.95 -15.4 Q-25.6 -15.1 -25.05 -15.05 -28.9 -15.1 -31.8 -12.65 -33.15 -11.4 -34.1 -9.8 L-35.3 -7.5 -35.3 -8.95 Q-35.45 -10.75 -34.3 -12.2 -33.25 -13.6 -31.75 -14.4 L-28.55 -15.75 M-21.75 -5.0 L-21.75 -5.05 Q-19.9 -4.6 -18.65 -3.15 -14.35 2.05 -18.15 8.4 -23.7 17.5 -34.85 15.35 L-36.2 14.85 Q-45.0 9.7 -43.05 -0.45 -42.45 5.25 -36.65 8.6 -31.25 11.7 -25.3 9.85 -16.85 7.05 -18.85 -1.4 -19.65 -4.75 -21.75 -5.0 M-31.15 -0.7 L-31.15 -0.9 -31.0 -1.2 -30.8 -1.4 -30.6 -1.55 Q-30.15 -1.55 -29.85 -1.2 -29.6 -0.85 -29.9 -0.45 -30.15 -0.15 -30.55 -0.2 L-31.1 -0.4 -31.15 -0.6 -31.15 -0.7 M-27.45 2.8 L-27.0 3.8 -27.0 5.05 Q-27.0 5.5 -27.4 5.75 -28.2 6.15 -28.85 5.55 -29.6 4.8 -29.8 3.8 -29.9 3.1 -29.3 2.65 -28.9 2.35 -28.45 2.3 -27.85 2.35 -27.45 2.8" fill="#ffff99" fill-rule="evenodd" stroke="none"/>
  </g>
</svg>
