<?xml version="1.0" encoding="UTF-8" standalone="no"?>
<svg xmlns:ffdec="https://www.free-decompiler.com/flash" xmlns:xlink="http://www.w3.org/1999/xlink" ffdec:objectType="shape" height="97.65px" width="99.65px" xmlns="http://www.w3.org/2000/svg">
  <g transform="matrix(1.0, 0.0, 0.0, 1.0, 52.7, 54.9)">
    <path d="M-42.0 11.05 Q-41.25 11.05 -41.25 11.8 -41.25 13.45 -44.95 13.45 -48.1 13.45 -48.1 11.7 -48.1 10.5 -47.1 10.3 -46.05 10.05 -45.5 11.85 L-44.65 11.9 Q-43.5 11.9 -43.1 11.5 -42.7 11.05 -42.0 11.05 M-48.65 10.8 L-48.75 11.25 -50.65 11.6 -52.35 11.45 Q-52.7 11.3 -52.7 10.8 -52.7 9.95 -50.65 10.05 -48.65 10.1 -48.65 10.8 M-8.5 39.95 Q-9.25 39.95 -9.25 39.0 -9.25 36.25 -8.3 36.1 -7.35 35.95 -7.35 38.4 -7.1 39.95 -8.5 39.95 M-8.5 35.75 Q-9.05 35.75 -9.6 34.45 -9.6 33.75 -8.55 33.7 -7.55 33.65 -7.55 34.4 L-7.8 35.1 Q-8.1 35.75 -8.5 35.75 M-32.4 37.0 L-32.9 36.85 -32.85 37.15 -32.95 37.55 Q-33.2 37.95 -34.0 37.95 L-34.7 37.9 Q-34.25 38.1 -34.25 38.7 L-34.4 39.3 Q-34.65 39.95 -35.2 39.95 L-37.1 39.65 -37.4 39.0 Q-37.4 37.95 -35.8 37.75 L-34.85 37.8 Q-35.2 37.6 -35.2 37.2 -35.2 36.1 -34.0 36.3 -33.35 36.4 -33.05 36.65 L-33.15 36.25 Q-33.15 35.15 -32.05 35.0 -30.95 34.85 -30.95 35.65 L-31.25 36.35 Q-31.7 37.0 -32.4 37.0 M-38.75 13.05 Q-39.8 13.05 -39.8 12.1 -39.8 11.45 -38.85 11.4 -37.95 11.35 -37.95 12.2 L-38.0 12.65 Q-38.15 13.05 -38.75 13.05 M-38.65 -14.4 Q-37.75 -14.45 -37.75 -13.65 L-37.9 -13.25 Q-38.2 -12.7 -38.85 -12.7 L-39.35 -12.9 -39.6 -13.45 Q-39.6 -14.35 -38.65 -14.4 M-24.5 -42.7 Q-24.65 -42.2 -25.2 -42.2 -25.9 -42.2 -25.9 -43.2 -25.9 -44.25 -25.15 -44.15 -24.45 -44.1 -24.45 -43.2 -24.4 -42.95 -24.5 -42.7 M-23.75 -40.45 Q-23.75 -39.6 -24.5 -39.6 -25.35 -39.6 -25.35 -40.9 -25.35 -41.75 -24.55 -41.75 -23.75 -41.8 -23.75 -40.45 M-24.8 -37.5 Q-24.8 -38.55 -24.0 -38.5 -23.2 -38.45 -23.2 -37.25 -23.2 -36.45 -24.0 -36.45 -24.8 -36.45 -24.8 -37.5 M-46.65 -17.7 L-48.15 -17.8 Q-48.65 -18.0 -48.65 -18.7 -47.05 -23.1 -45.05 -20.0 L-43.9 -18.05 -43.05 -17.65 Q-42.25 -17.2 -42.2 -16.35 -40.7 -16.65 -40.7 -15.7 -40.7 -14.8 -41.9 -14.8 -45.5 -16.15 -45.5 -16.8 L-45.35 -17.3 -45.95 -17.55 -46.65 -17.7 M-29.7 -51.25 L-30.2 -53.15 Q-30.2 -54.9 -28.25 -54.9 -26.35 -54.9 -26.5 -52.2 -25.3 -52.05 -24.95 -51.4 L-24.85 -50.4 -24.65 -46.8 -24.65 -45.75 Q-24.8 -44.75 -25.6 -44.75 -26.8 -44.75 -27.1 -45.45 -27.6 -46.5 -28.0 -46.75 -28.85 -47.25 -29.1 -47.75 -29.3 -48.1 -29.3 -48.8 -29.25 -50.1 -29.7 -51.25 M23.05 28.75 L22.25 27.95 Q22.25 26.95 23.65 27.3 25.05 27.6 25.05 28.5 25.05 29.3 24.2 29.3 L23.05 28.75 M21.0 26.0 Q21.0 26.9 20.25 26.9 19.5 26.9 19.5 26.0 19.5 25.2 20.25 25.2 21.0 25.2 21.0 26.0 M26.35 30.7 Q26.05 30.7 25.7 30.4 25.25 30.05 25.25 29.6 25.25 28.85 26.15 28.95 27.05 29.05 27.05 29.85 L27.0 30.5 26.75 30.65 26.35 30.7 M33.1 35.0 Q32.85 35.55 31.85 35.55 30.6 35.55 29.95 34.85 29.45 34.3 29.45 33.65 L29.55 33.3 Q28.95 33.5 28.6 33.05 L28.35 32.6 Q28.35 31.9 29.2 31.7 30.1 31.5 30.9 32.45 L32.15 32.95 Q33.15 33.4 33.15 34.4 L33.1 35.0 M6.05 35.95 Q5.7 35.6 5.7 35.3 5.7 34.65 6.75 34.6 7.75 34.55 7.75 35.35 L7.65 35.8 8.15 35.75 8.95 35.9 9.15 36.5 9.1 36.85 9.75 36.7 Q11.05 36.7 11.05 38.5 L10.9 39.3 11.6 39.45 Q12.65 40.2 12.65 41.65 12.75 42.75 11.9 42.75 11.25 42.75 10.8 41.65 L10.65 41.15 9.3 40.2 Q8.45 39.2 8.45 38.3 L8.65 37.35 8.25 37.4 7.65 37.2 Q7.2 36.9 7.2 36.4 L7.25 36.25 6.8 36.3 6.05 35.95 M32.5 -7.45 L32.25 -7.3 31.85 -7.25 31.4 -7.35 31.2 -7.5 31.15 -8.0 Q31.15 -8.65 31.9 -8.65 32.6 -8.65 32.6 -8.0 L32.5 -7.45 M35.65 -10.9 Q36.45 -10.95 36.45 -10.2 36.45 -9.4 35.65 -9.4 L35.15 -9.55 Q34.8 -9.75 34.8 -10.15 34.8 -10.85 35.65 -10.9 M38.3 -13.1 Q38.3 -13.75 39.2 -13.85 L40.25 -14.6 40.85 -15.0 41.25 -15.65 Q41.9 -16.6 42.55 -16.6 L42.95 -16.6 Q43.05 -17.45 43.7 -18.45 L46.6 -18.65 Q46.95 -18.45 46.95 -17.6 L46.85 -16.85 Q46.55 -16.35 45.35 -16.15 45.65 -15.15 44.35 -14.75 L42.95 -14.5 42.35 -14.0 41.7 -13.4 Q40.95 -12.65 39.95 -12.55 L39.2 -12.35 Q38.3 -12.35 38.3 -13.1 M7.5 -35.55 Q6.7 -35.55 6.7 -36.3 6.7 -37.0 7.5 -37.15 8.3 -37.3 8.3 -36.4 L8.25 -36.05 Q8.05 -35.55 7.5 -35.55 M6.65 -31.7 Q5.9 -31.7 5.9 -32.55 5.9 -33.35 6.65 -33.35 7.4 -33.35 7.4 -32.55 L7.35 -32.2 Q7.15 -31.7 6.65 -31.7 M11.1 -47.1 L10.35 -44.55 10.9 -42.85 Q10.9 -41.8 9.85 -40.75 L8.8 -39.55 8.95 -38.15 8.7 -38.0 8.3 -37.95 Q7.75 -37.95 7.45 -38.8 L7.25 -39.9 Q7.25 -40.5 7.65 -41.0 8.15 -41.55 8.35 -42.25 L8.45 -43.5 8.35 -44.6 Q8.35 -46.45 9.75 -47.7 11.1 -48.95 11.1 -47.1 M36.95 -36.85 L37.1 -37.0 37.0 -37.0 36.95 -36.85 M39.95 -39.3 L39.6 -37.35 Q39.25 -35.85 39.25 -34.9 39.25 -33.65 37.85 -32.35 36.3 -30.95 34.45 -30.95 34.1 -30.95 34.05 -31.15 L33.95 -31.55 Q33.4 -31.75 33.35 -32.2 L33.15 -32.7 Q33.15 -33.2 34.45 -35.1 L35.9 -37.3 Q36.4 -38.5 37.55 -39.65 39.95 -41.25 39.95 -39.3" fill="#ffffff" fill-rule="evenodd" stroke="none"/>
  </g>
</svg>
