<?xml version="1.0" encoding="UTF-8" standalone="no"?>
<svg xmlns:ffdec="https://www.free-decompiler.com/flash" xmlns:xlink="http://www.w3.org/1999/xlink" ffdec:objectType="shape" height="179.75px" width="216.1px" xmlns="http://www.w3.org/2000/svg">
  <g transform="matrix(1.0, 0.0, 0.0, 1.0, 96.6, 97.9)">
    <path d="M34.1 -74.9 Q13.9 -42.2 18.65 -72.7 5.3 -41.65 11.4 -74.25 3.2 -56.65 -1.8 -77.35 -4.35 -31.2 -17.1 -55.65 -12.45 -29.1 -24.85 -53.8 -22.1 -31.45 -44.45 -52.35 -15.15 -8.4 -45.5 -24.05 -34.25 -6.95 -43.3 -7.5 -52.35 -8.05 -66.55 -11.05 -53.65 -4.95 -50.7 0.0 -47.7 4.95 -50.0 9.5 -52.3 14.05 -70.45 15.6 -51.1 16.55 -48.85 18.0 -46.6 19.55 -48.85 21.05 -49.9 21.7 -66.3 26.35 -52.45 24.35 -51.05 27.05 -49.65 29.75 -50.95 33.8 -52.3 37.8 -72.85 49.45 -54.4 41.5 -50.05 40.9 -45.65 40.25 -40.2 43.15 -34.7 46.0 -42.65 65.5 -20.6 42.95 -29.6 65.0 -12.6 39.9 -9.95 71.35 -2.5 39.05 11.65 64.85 7.2 35.45 37.95 58.45 26.55 44.7 25.25 41.15 19.55 25.85 64.6 39.75 23.45 18.7 57.0 19.05 30.65 8.95 88.45 -2.1 14.8 3.6 46.75 -17.9 24.05 -11.4 45.05 -25.25 29.25 -19.45 59.55 -47.3 6.4 -21.7 34.1 -74.9 M19.05 -79.15 Q25.35 -71.95 43.65 -83.05 7.5 -28.25 69.7 -56.65 51.5 -37.35 62.2 -33.4 43.05 -25.15 60.25 -25.25 28.05 -2.35 119.5 -6.65 54.6 5.8 70.65 20.4 42.85 20.6 81.1 47.5 23.55 28.85 45.9 66.35 16.2 46.1 13.3 72.7 0.1 51.6 -10.15 81.85 -16.65 52.85 -33.15 73.7 -29.95 57.55 -49.45 77.45 -36.55 40.25 -96.6 64.65 -59.95 36.05 -82.7 26.25 -65.05 20.7 -92.3 15.2 -47.2 6.75 -83.8 -16.25 -36.05 -9.2 -55.6 -30.75 -22.2 -20.6 -62.05 -67.0 -27.65 -44.95 -30.5 -64.55 -18.25 -52.05 -20.4 -65.95 -4.8 -55.25 -1.95 -97.9 4.35 -74.1 13.55 -82.25 11.05 -71.15 19.05 -79.15" fill="#ffffff" fill-rule="evenodd" stroke="none"/>
  </g>
</svg>
