<?xml version="1.0" encoding="UTF-8" standalone="no"?>
<svg xmlns:ffdec="https://www.free-decompiler.com/flash" xmlns:xlink="http://www.w3.org/1999/xlink" ffdec:objectType="shape" height="110.05px" width="138.2px" xmlns="http://www.w3.org/2000/svg">
  <g transform="matrix(1.0, 0.0, 0.0, 1.0, 61.65, 85.75)">
    <path d="M72.0 -76.95 Q74.65 -77.1 75.3 -74.8 75.6 -73.5 75.2 -72.3 74.85 -70.85 73.85 -70.7 L73.9 -71.8 Q74.1 -72.8 73.8 -73.8 L72.75 -75.5 Q72.0 -76.2 71.9 -76.9 L72.0 -76.95 M71.5 -50.65 Q72.15 -50.75 72.2 -50.0 L72.15 -48.2 Q72.0 -47.05 71.25 -46.3 69.9 -44.85 68.8 -45.1 L69.4 -46.0 70.5 -47.4 71.2 -49.0 71.5 -50.65 M25.9 -25.25 L25.9 -25.1 25.8 -24.2 25.3 -23.25 Q24.15 -22.15 22.7 -22.75 23.1 -23.25 23.7 -23.4 L24.25 -23.7 25.1 -24.6 25.75 -25.5 Q26.0 -25.65 25.9 -25.25 M5.15 -6.5 L5.4 -6.25 6.15 -5.45 Q6.9 -4.65 8.0 -4.6 L6.2 -4.35 Q5.5 -4.5 5.05 -5.0 L5.0 -5.3 5.0 -5.7 5.0 -6.05 5.0 -6.45 5.0 -6.5 5.15 -6.5 M51.55 -25.2 L51.65 -24.9 51.65 -24.75 Q51.65 -24.25 52.05 -23.9 L52.15 -23.75 52.1 -23.4 52.0 -22.45 Q51.9 -21.75 52.55 -21.65 L52.85 -21.75 52.8 -21.45 52.6 -20.2 Q51.6 -19.55 50.55 -19.25 47.4 -18.25 44.75 -19.95 44.75 -20.35 46.1 -20.55 47.35 -20.75 48.4 -21.55 L50.15 -23.25 50.65 -24.0 50.85 -24.25 51.55 -25.2 M1.45 20.55 Q1.8 20.65 1.25 21.5 0.4 22.65 -0.9 23.1 L-4.55 22.95 Q-5.75 22.6 -6.25 21.65 -5.5 21.5 -4.2 22.0 -3.4 22.25 -2.6 22.0 L-0.6 21.45 1.45 20.55 M-36.9 -82.4 Q-34.55 -84.0 -31.8 -84.6 -29.45 -85.25 -27.45 -84.3 L-25.65 -83.25 -24.75 -82.25 Q-31.55 -82.8 -36.2 -78.2 -38.25 -76.2 -39.85 -73.7 L-41.0 -70.85 -41.95 -73.7 Q-42.9 -76.65 -41.0 -78.85 -39.25 -80.9 -36.9 -82.4 M-60.1 -31.1 L-60.05 -31.2 -60.0 -30.35 -60.0 -29.4 -60.0 -28.5 -60.05 -27.7 -60.45 -28.4 -60.5 -29.3 Q-60.35 -29.75 -60.35 -30.25 L-60.1 -31.1 M-25.95 -38.45 L-25.9 -38.45 Q-26.0 -37.5 -25.65 -36.6 -25.0 -35.15 -23.75 -34.0 L-20.85 -31.45 -23.55 -31.55 Q-24.45 -31.8 -25.0 -32.7 -25.7 -33.9 -25.95 -35.4 -26.15 -36.95 -25.95 -38.45 M-38.4 11.9 L-38.45 12.1 -40.85 12.15 -41.1 12.15 Q-42.15 11.9 -42.8 11.15 L-43.55 9.6 -43.4 9.5 -42.8 10.2 -41.1 11.05 -38.4 11.9" fill="#ffff99" fill-rule="evenodd" stroke="none"/>
    <path d="M70.3 -77.85 L70.65 -77.9 71.15 -77.95 71.65 -78.05 72.0 -78.15 Q74.55 -78.2 75.8 -76.2 77.05 -74.15 76.25 -71.75 75.45 -69.6 73.35 -68.55 72.1 -67.85 71.1 -68.3 L71.0 -68.5 71.0 -68.85 71.2 -69.15 71.75 -69.75 72.35 -70.45 72.75 -71.05 72.85 -71.55 Q73.15 -72.05 73.0 -72.55 72.85 -73.45 72.35 -74.2 L71.0 -76.15 Q70.65 -76.65 70.2 -75.9 L69.9 -75.95 69.75 -76.1 69.7 -76.25 69.7 -76.45 69.75 -76.65 69.8 -77.0 69.95 -77.35 70.15 -77.7 70.3 -77.85 M71.9 -76.9 Q72.0 -76.2 72.75 -75.5 L73.8 -73.8 Q74.1 -72.8 73.9 -71.8 L73.85 -70.7 Q74.85 -70.85 75.2 -72.3 75.6 -73.5 75.3 -74.8 74.65 -77.1 72.0 -76.95 L71.9 -76.95 71.9 -76.9 M71.5 -64.65 Q71.6 -64.0 71.85 -63.45 L72.35 -62.45 Q72.5 -61.95 72.0 -61.7 71.1 -61.45 70.9 -62.35 L70.5 -63.65 70.3 -64.9 Q70.3 -65.45 70.9 -65.55 71.5 -65.3 71.5 -64.65 M66.35 -60.7 L66.75 -60.9 Q67.25 -61.0 67.55 -60.55 67.8 -60.2 67.5 -59.75 67.25 -59.3 66.75 -59.45 L66.25 -59.65 66.2 -59.8 66.1 -60.0 66.2 -60.4 66.35 -60.7 M63.0 -54.05 L63.0 -53.1 62.55 -52.55 Q61.95 -52.2 61.55 -52.7 61.1 -53.15 61.05 -53.85 L61.1 -54.75 Q61.15 -55.15 61.6 -55.15 L61.85 -55.25 62.55 -54.75 63.0 -54.05 M70.75 -51.35 L70.9 -51.45 71.15 -51.6 71.35 -51.65 71.5 -51.7 72.0 -51.7 72.5 -51.45 72.95 -51.15 73.35 -50.65 73.6 -50.25 72.9 -47.4 Q72.45 -44.95 70.2 -44.05 67.25 -42.9 64.75 -43.75 L67.5 -45.7 Q69.3 -46.55 70.15 -48.3 70.65 -49.45 70.75 -50.75 L70.75 -51.35 M71.5 -50.65 L71.2 -49.0 70.5 -47.4 69.4 -46.0 68.8 -45.1 Q69.9 -44.85 71.25 -46.3 72.0 -47.05 72.15 -48.2 L72.2 -50.0 Q72.15 -50.75 71.5 -50.65 M30.65 -40.95 L30.4 -40.6 30.0 -40.3 29.7 -40.1 29.15 -40.4 Q28.7 -40.6 28.75 -40.95 L28.75 -41.55 28.75 -41.9 28.85 -42.05 29.05 -42.3 29.25 -42.4 29.4 -42.6 29.7 -42.75 30.0 -42.6 30.4 -42.25 30.55 -41.9 30.75 -41.55 30.75 -41.35 30.75 -41.15 30.65 -40.95 M36.55 -40.65 L36.8 -40.7 37.1 -40.65 37.25 -40.6 37.65 -40.45 37.85 -40.3 37.75 -39.95 37.6 -39.7 Q37.3 -39.35 36.85 -39.4 L36.2 -39.6 36.1 -39.95 36.1 -40.1 36.3 -40.45 36.4 -40.6 36.55 -40.65 M22.2 -35.0 L22.45 -34.3 Q22.45 -34.0 22.7 -33.75 L22.9 -33.2 22.6 -32.7 Q21.85 -32.1 21.0 -32.25 20.45 -32.35 20.15 -32.8 L20.1 -33.0 20.1 -33.1 20.1 -33.3 20.1 -33.7 20.1 -33.9 20.1 -34.05 20.4 -34.45 20.9 -34.95 Q21.2 -35.3 21.7 -35.3 L22.2 -35.0 M25.9 -25.25 Q26.0 -25.65 25.75 -25.5 L25.1 -24.6 24.25 -23.7 23.7 -23.4 Q23.1 -23.25 22.7 -22.75 24.15 -22.15 25.3 -23.25 L25.8 -24.2 25.9 -25.1 25.9 -25.25 M26.35 -27.55 L26.5 -27.6 Q26.85 -26.45 26.85 -25.2 26.95 -23.9 26.1 -22.9 25.55 -22.05 24.6 -21.9 L22.6 -21.65 21.95 -22.05 21.3 -22.65 Q20.95 -22.7 20.95 -23.05 20.95 -23.4 21.2 -23.6 L21.6 -24.15 Q21.6 -24.65 22.05 -24.45 L22.3 -24.35 Q22.4 -23.15 23.7 -24.45 L25.35 -26.45 Q25.8 -27.2 26.35 -27.55 M37.15 -31.7 L37.3 -31.85 37.5 -32.05 37.65 -32.25 37.75 -32.35 38.1 -32.55 38.1 -32.6 38.35 -32.45 Q38.6 -32.3 38.8 -32.1 L39.0 -31.75 39.05 -31.2 39.0 -31.0 38.8 -30.8 Q38.35 -30.55 38.1 -31.0 L37.55 -31.45 37.15 -31.7 M3.4 -15.85 L3.65 -16.0 4.15 -15.5 Q4.25 -15.1 3.95 -14.85 L3.4 -14.55 Q2.85 -14.45 2.7 -14.85 L2.75 -15.05 2.95 -15.4 3.25 -15.8 3.4 -15.85 M5.15 -6.5 L5.0 -6.5 5.0 -6.45 5.0 -6.05 5.0 -5.7 5.0 -5.3 5.05 -5.0 Q5.5 -4.5 6.2 -4.35 L8.0 -4.6 Q6.9 -4.65 6.15 -5.45 L5.4 -6.25 5.15 -6.5 M4.0 -8.65 L4.25 -8.9 6.0 -6.7 Q6.95 -5.6 8.45 -5.45 9.95 -5.3 11.35 -6.0 L12.85 -5.85 Q11.85 -4.0 9.55 -3.35 6.45 -2.55 4.55 -4.75 3.95 -5.5 3.65 -6.55 3.3 -7.7 4.0 -8.65 M19.25 -9.75 L19.4 -10.15 19.6 -10.4 19.95 -10.6 20.0 -10.6 Q20.4 -10.65 20.65 -10.25 20.85 -9.9 20.65 -9.5 20.45 -9.15 20.0 -9.2 19.7 -9.25 19.4 -9.45 L19.25 -9.65 19.25 -9.75 M61.35 -30.3 L61.35 -30.35 62.3 -29.35 62.85 -28.05 63.5 -26.9 63.55 -26.15 63.0 -25.95 62.15 -26.1 Q61.9 -26.3 61.9 -26.6 L61.95 -26.8 61.3 -27.2 60.45 -27.95 Q60.15 -28.35 60.15 -28.85 L60.15 -29.4 60.35 -29.6 60.55 -29.8 60.95 -30.1 61.35 -30.3 M48.3 -42.75 L48.55 -42.65 48.85 -42.55 49.05 -42.4 49.35 -42.25 49.55 -42.1 49.4 -41.75 48.95 -41.3 48.3 -41.05 47.9 -41.1 47.65 -41.5 47.55 -42.05 47.6 -42.35 47.85 -42.65 48.1 -42.75 48.3 -42.75 M48.3 -36.75 L48.65 -36.65 48.9 -36.45 48.95 -36.25 49.1 -35.7 48.9 -35.0 Q48.8 -34.55 48.35 -34.25 47.95 -34.0 47.6 -34.25 47.3 -34.45 47.4 -34.8 L47.55 -35.5 47.7 -36.25 Q47.8 -36.75 48.3 -36.7 L48.3 -36.75 M45.45 -27.55 L45.65 -27.65 45.85 -27.8 46.35 -27.55 46.7 -27.15 46.85 -26.55 46.7 -26.15 46.4 -25.95 46.15 -25.9 45.45 -25.95 45.15 -26.2 45.15 -26.4 45.2 -26.8 45.35 -27.15 45.45 -27.55 M50.5 -25.6 L50.6 -25.4 50.65 -25.45 51.0 -25.85 51.05 -26.05 51.05 -26.15 51.0 -26.55 51.1 -26.85 51.5 -27.15 51.5 -27.2 Q52.25 -26.85 52.55 -25.95 L53.05 -24.45 Q54.1 -23.5 54.05 -21.3 54.0 -19.8 52.8 -19.1 50.9 -18.05 48.8 -17.85 43.95 -17.4 43.0 -21.4 45.2 -21.0 47.55 -22.2 L48.8 -22.95 Q48.65 -23.35 49.05 -23.65 L50.0 -24.6 50.1 -24.7 50.25 -25.2 Q50.3 -25.5 50.5 -25.6 M55.9 -35.65 L55.9 -35.45 55.9 -35.3 55.75 -35.15 55.7 -35.0 55.4 -34.95 54.7 -35.0 54.55 -35.2 54.55 -35.45 Q54.8 -35.75 54.5 -36.15 54.3 -36.4 54.55 -36.5 L54.85 -36.6 55.15 -36.5 55.45 -36.35 55.75 -36.0 55.9 -35.65 M51.55 -25.2 L50.85 -24.25 50.65 -24.0 50.15 -23.25 48.4 -21.55 Q47.35 -20.75 46.1 -20.55 44.75 -20.35 44.75 -19.95 47.4 -18.25 50.55 -19.25 51.6 -19.55 52.6 -20.2 L52.8 -21.45 52.85 -21.75 52.55 -21.65 Q51.9 -21.75 52.0 -22.45 L52.1 -23.4 52.15 -23.75 52.05 -23.9 Q51.65 -24.25 51.65 -24.75 L51.65 -24.9 51.55 -25.2 M51.8 -13.3 L52.7 -13.65 52.95 -13.8 52.95 -13.85 53.3 -13.45 53.5 -12.95 53.5 -12.4 53.35 -12.0 Q52.95 -11.45 52.05 -11.7 51.4 -11.9 51.15 -12.4 L51.3 -12.75 51.8 -13.3 M58.15 -17.1 L58.45 -16.4 58.2 -15.65 57.75 -15.35 57.65 -15.3 57.45 -15.3 57.05 -15.4 56.9 -15.55 56.7 -15.75 56.65 -16.1 56.65 -16.5 Q56.55 -16.8 56.8 -17.05 57.05 -17.3 57.4 -17.25 L58.15 -17.1 M46.65 -11.5 Q47.0 -11.2 46.75 -10.75 L46.6 -10.05 46.35 -9.65 46.1 -9.55 45.7 -9.65 Q45.45 -9.7 45.2 -9.9 L45.15 -10.0 45.15 -10.2 45.15 -10.4 45.2 -10.75 45.25 -11.15 45.45 -11.5 45.65 -11.7 45.85 -11.75 46.1 -11.85 46.1 -11.9 46.65 -11.5 M44.3 -3.6 L44.55 -2.85 44.7 -2.15 44.4 -1.6 44.2 -1.4 43.9 -1.35 43.55 -1.45 43.4 -1.6 Q43.05 -1.8 43.05 -2.15 L43.2 -2.85 43.4 -3.6 Q43.45 -4.1 43.9 -4.05 L43.9 -4.1 Q44.3 -4.0 44.3 -3.6 M42.2 3.35 L42.4 3.55 42.45 3.75 42.5 3.95 Q42.55 4.45 42.2 4.8 L40.75 5.8 39.45 5.9 39.0 5.55 39.0 5.4 39.0 5.2 39.05 5.0 39.15 4.85 39.45 4.7 39.5 4.7 39.75 4.6 40.0 4.6 40.25 4.6 40.5 4.55 40.5 4.35 40.5 4.25 40.55 4.05 40.6 3.85 40.7 3.7 40.8 3.5 41.0 3.35 41.25 3.25 41.45 3.1 41.7 3.05 42.0 3.2 42.2 3.35 M31.45 5.2 L31.75 5.0 32.25 5.5 32.2 6.25 31.7 6.75 Q31.25 6.95 31.0 6.55 L30.9 6.2 Q30.75 5.75 31.05 5.5 L31.45 5.2 M29.45 1.1 L29.9 1.4 30.2 1.9 30.25 2.5 29.95 3.05 29.75 3.25 29.45 3.35 29.3 3.3 28.75 3.05 28.6 2.85 28.5 2.5 28.5 2.1 28.5 1.8 28.6 1.4 28.75 1.3 28.8 1.25 29.05 1.15 29.25 1.15 29.45 1.1 M11.8 5.9 L11.85 5.75 11.85 5.55 Q11.9 5.45 12.0 5.45 12.15 5.3 12.4 5.25 L12.4 5.2 Q13.1 5.2 13.15 5.9 13.15 6.45 12.65 6.75 12.15 7.15 11.6 7.15 11.0 7.2 10.85 6.55 L10.85 6.45 10.85 6.25 11.0 6.05 Q11.05 5.95 11.15 5.95 L11.65 5.95 11.8 5.9 M13.55 11.85 L13.7 11.55 13.85 11.15 14.0 11.05 14.05 10.95 14.3 10.9 14.55 10.85 14.85 10.8 15.3 10.8 15.6 10.9 15.8 11.1 15.95 11.2 15.95 11.6 Q16.0 12.2 15.45 12.55 L14.05 12.8 13.55 12.6 13.55 12.4 13.5 12.2 13.55 11.85 M8.9 14.75 L9.2 14.85 9.45 15.05 9.65 15.25 9.7 15.6 9.7 16.1 9.45 16.95 9.15 17.25 8.7 17.5 8.15 17.3 7.75 17.05 Q7.45 16.85 7.45 16.5 L7.45 16.1 7.6 15.8 Q7.75 15.55 8.1 15.5 L8.45 15.1 8.9 14.75 M1.45 20.55 L-0.6 21.45 -2.6 22.0 Q-3.4 22.25 -4.2 22.0 -5.5 21.5 -6.25 21.65 -5.75 22.6 -4.55 22.95 L-0.9 23.1 Q0.4 22.65 1.25 21.5 1.8 20.65 1.45 20.55 M1.5 22.45 Q0.05 23.85 -2.1 24.2 -4.6 24.6 -6.3 22.95 -7.35 21.95 -7.6 20.45 L-7.45 20.2 -6.75 19.8 -5.9 19.9 -5.8 20.05 Q-3.95 21.95 -0.35 20.3 1.25 19.65 2.3 18.45 3.55 20.65 1.5 22.45 M-38.2 -74.4 Q-39.9 -72.3 -39.95 -69.55 -40.0 -68.4 -40.4 -67.4 -41.1 -67.2 -41.3 -67.85 L-42.1 -70.35 -43.1 -73.15 -43.3 -73.9 Q-43.2 -74.8 -43.4 -75.7 -43.6 -77.1 -43.15 -78.3 -42.55 -80.05 -41.2 -81.25 L-40.9 -81.35 Q-39.5 -81.85 -38.2 -82.75 L-35.35 -84.45 Q-33.6 -85.3 -31.85 -85.75 L-28.35 -85.45 Q-26.85 -85.2 -25.5 -84.3 L-23.05 -82.3 Q-22.55 -81.75 -22.7 -81.1 -26.5 -81.4 -30.4 -80.15 -33.8 -79.05 -36.25 -76.5 L-38.2 -74.4 M-33.3 -74.65 L-32.85 -74.15 Q-32.75 -73.75 -32.9 -73.4 L-33.25 -72.65 -33.55 -72.55 -34.6 -72.75 -34.85 -72.95 -34.85 -73.3 Q-34.95 -73.7 -34.6 -73.8 -34.25 -74.0 -34.25 -74.45 -34.25 -74.8 -33.8 -74.75 L-33.8 -74.8 -33.3 -74.65 M-36.9 -82.4 Q-39.25 -80.9 -41.0 -78.85 -42.9 -76.65 -41.95 -73.7 L-41.0 -70.85 -39.85 -73.7 Q-38.25 -76.2 -36.2 -78.2 -31.55 -82.8 -24.75 -82.25 L-25.65 -83.25 -27.45 -84.3 Q-29.45 -85.25 -31.8 -84.6 -34.55 -84.0 -36.9 -82.4 M-22.85 -80.35 Q-22.25 -80.15 -22.45 -79.55 -22.6 -78.95 -23.15 -78.6 -23.55 -78.15 -24.3 -78.3 -24.75 -78.4 -24.8 -78.85 L-24.8 -79.05 -24.55 -79.35 -24.3 -79.55 -23.8 -79.65 -23.55 -79.7 -23.45 -79.9 -23.4 -80.1 -23.25 -80.2 -23.15 -80.3 -22.85 -80.35 M-39.0 -64.35 L-38.65 -64.15 Q-38.3 -64.0 -38.3 -63.65 L-38.4 -63.4 -38.85 -63.1 -38.95 -62.95 -39.1 -62.6 -39.2 -61.8 -39.2 -61.45 -39.2 -60.9 -39.1 -60.25 Q-38.45 -60.2 -38.45 -59.45 L-38.25 -58.35 -37.8 -57.0 Q-37.55 -56.1 -38.2 -55.6 L-38.45 -55.55 -38.85 -55.65 -39.25 -56.05 -39.35 -56.25 Q-39.35 -57.2 -39.7 -58.0 -40.35 -59.25 -40.35 -60.65 L-40.15 -63.0 Q-39.95 -64.0 -39.0 -64.35 M-33.8 -56.8 Q-33.45 -56.75 -33.3 -56.35 L-33.25 -55.75 -33.45 -55.25 Q-33.55 -54.9 -33.8 -54.75 L-34.05 -54.65 -34.35 -54.75 -34.7 -54.85 -34.8 -55.0 -34.85 -55.15 -34.85 -55.55 -34.6 -56.15 -34.2 -56.55 -33.8 -56.8 M-29.95 -50.1 L-29.7 -50.1 -29.4 -49.95 -29.15 -49.75 -28.9 -49.6 -28.85 -49.2 -28.8 -49.05 -28.8 -48.7 -29.05 -48.15 -29.35 -47.8 -29.7 -47.75 -30.3 -47.95 -30.85 -48.45 -31.05 -48.8 -31.05 -49.0 -31.0 -49.2 -30.9 -49.35 -30.6 -49.7 -30.2 -50.0 -29.95 -50.1 M-43.65 -70.6 Q-43.15 -70.75 -42.85 -70.35 -42.45 -69.9 -42.55 -69.4 -42.55 -68.85 -42.9 -68.4 -43.2 -68.1 -43.65 -68.0 L-44.25 -68.25 -44.6 -68.5 -44.85 -69.05 -44.85 -69.6 -44.8 -69.8 -44.65 -69.85 -44.35 -70.1 -44.1 -70.35 -43.9 -70.55 -43.65 -70.6 M-42.2 -63.15 Q-41.6 -62.9 -41.4 -62.25 L-41.15 -60.95 -41.1 -59.7 Q-41.1 -59.25 -41.45 -59.0 -42.2 -58.75 -42.6 -59.45 L-42.9 -60.55 -42.95 -61.8 -42.9 -62.6 -42.8 -62.75 -42.6 -62.95 -42.4 -63.0 -42.2 -63.1 -42.2 -63.15 M-42.85 -49.9 L-42.7 -49.9 Q-42.35 -49.7 -42.55 -49.4 L-42.65 -48.8 Q-42.7 -48.4 -43.1 -48.45 L-43.6 -48.65 -43.6 -49.0 -43.55 -49.35 -43.35 -49.7 -43.05 -49.9 -42.85 -49.9 M-45.8 -41.35 L-45.6 -41.15 -45.4 -40.8 -45.35 -40.4 -45.35 -40.2 -45.75 -39.9 Q-46.1 -39.55 -46.6 -39.65 L-47.1 -40.15 -47.05 -40.35 -47.0 -40.7 -46.8 -41.05 -46.35 -41.4 -46.1 -41.5 -45.8 -41.35 M-41.45 -42.05 Q-40.95 -42.05 -40.7 -41.65 -40.45 -41.3 -40.6 -40.9 -40.65 -40.55 -40.95 -40.35 L-41.45 -40.15 -41.7 -40.3 -41.95 -40.4 -42.1 -40.55 -42.15 -40.7 -42.15 -40.9 -42.1 -41.1 -42.05 -41.3 -41.9 -41.6 -41.65 -41.9 -41.45 -42.05 M-54.85 -38.0 L-54.4 -37.85 -54.0 -37.4 -53.9 -36.85 -54.0 -36.25 -54.15 -36.15 Q-54.85 -35.9 -55.2 -36.5 L-55.55 -37.4 Q-55.55 -38.0 -54.85 -38.0 M-60.1 -31.1 L-60.35 -30.25 Q-60.35 -29.75 -60.5 -29.3 L-60.45 -28.4 -60.05 -27.7 -60.0 -28.5 -60.0 -29.4 -60.0 -30.35 -60.05 -31.2 -60.1 -31.1 M-58.85 -33.55 L-58.35 -33.5 -57.9 -33.25 -57.85 -33.05 Q-58.8 -32.25 -58.9 -31.05 L-59.0 -28.5 Q-58.85 -27.1 -58.15 -25.85 -57.65 -25.1 -57.75 -24.25 -59.45 -24.4 -60.75 -26.2 -62.05 -28.05 -61.5 -30.15 -61.0 -31.95 -60.0 -33.5 -59.6 -34.0 -59.1 -34.05 L-58.9 -33.65 -58.85 -33.55 M-40.9 -32.8 Q-40.75 -33.05 -40.45 -33.1 L-40.25 -33.2 -40.0 -33.2 -39.75 -33.1 -39.45 -33.0 -39.35 -32.85 -39.35 -32.5 -39.4 -32.1 -39.7 -31.55 Q-39.9 -31.25 -40.25 -31.25 L-40.65 -31.2 -41.1 -31.55 -41.15 -32.05 -40.9 -32.8 M-49.55 -29.65 L-49.25 -29.5 -49.15 -29.35 -48.95 -29.15 Q-48.7 -29.15 -48.45 -29.3 L-48.3 -29.25 -48.35 -29.15 -48.75 -28.75 -49.2 -28.35 -49.45 -28.5 -50.2 -28.6 Q-50.7 -28.6 -50.7 -29.0 L-50.5 -29.5 -50.2 -29.65 -49.55 -29.65 M-43.35 -25.15 L-43.1 -25.0 -42.9 -24.85 -42.7 -24.65 -42.65 -24.45 -42.6 -24.25 Q-42.55 -23.85 -42.85 -23.5 -43.6 -22.75 -44.65 -22.9 -45.15 -22.95 -45.1 -23.4 L-45.1 -23.9 Q-45.1 -24.4 -44.65 -24.45 L-44.15 -24.85 Q-43.9 -25.2 -43.35 -25.1 L-43.35 -25.15 M-55.1 -21.7 L-54.8 -21.5 -54.65 -21.15 -54.6 -20.6 Q-54.6 -20.0 -54.95 -19.6 L-55.65 -19.3 -55.95 -19.3 -56.2 -19.75 -56.35 -20.25 -56.35 -21.0 -56.3 -21.5 -55.9 -21.8 -55.4 -21.8 -55.1 -21.7 M-19.25 -31.85 L-19.0 -31.85 -18.5 -31.85 Q-18.3 -31.8 -18.05 -31.6 L-17.9 -31.45 Q-21.8 -28.65 -25.45 -32.1 -27.15 -33.75 -27.2 -36.25 -27.2 -38.25 -26.35 -39.95 -26.0 -40.65 -25.3 -40.95 L-25.0 -40.65 -25.2 -40.15 -25.6 -39.6 -25.85 -39.05 -25.9 -38.85 -25.75 -38.9 -25.05 -39.55 -24.25 -39.6 -24.0 -39.45 Q-24.95 -38.45 -24.5 -37.15 -24.15 -36.05 -23.4 -35.3 L-20.7 -32.95 -19.55 -31.95 -19.25 -31.85 M-25.9 -38.45 L-25.9 -38.5 -25.95 -38.45 Q-26.15 -36.95 -25.95 -35.4 -25.7 -33.9 -25.0 -32.7 -24.45 -31.8 -23.55 -31.55 L-20.85 -31.45 -23.75 -34.0 Q-25.0 -35.15 -25.65 -36.6 -26.0 -37.5 -25.9 -38.45 M-30.8 -39.65 Q-30.55 -39.4 -30.85 -39.15 -30.9 -38.85 -31.15 -38.7 L-32.25 -38.85 Q-33.0 -39.2 -32.6 -39.95 L-32.15 -40.3 -31.55 -40.15 -31.15 -39.95 -30.8 -39.65 M-30.45 -25.25 L-30.2 -25.2 -29.95 -25.15 -29.6 -25.1 -29.4 -25.0 -29.1 -24.85 -28.85 -24.7 -28.8 -24.35 -28.8 -23.95 -28.85 -23.65 -28.85 -23.05 Q-28.9 -22.7 -29.2 -22.5 L-30.05 -22.45 Q-30.55 -22.75 -30.55 -23.35 -30.55 -24.1 -30.9 -24.65 -31.1 -24.95 -30.65 -25.15 L-30.45 -25.25 M-20.55 -14.2 L-21.0 -14.4 -20.95 -14.55 -20.85 -14.7 -20.5 -15.1 -20.1 -15.4 -19.85 -15.5 Q-19.4 -15.55 -19.15 -15.2 L-18.8 -14.45 -18.8 -13.7 -19.05 -13.2 Q-19.4 -12.95 -19.85 -13.2 L-20.3 -13.8 -20.55 -14.2 M-35.6 -14.55 L-35.25 -14.4 -35.0 -14.3 -34.85 -14.05 -34.75 -13.7 -34.75 -13.15 Q-34.75 -12.65 -35.25 -12.95 L-35.35 -12.4 -35.45 -11.5 -35.6 -10.6 -36.0 -9.55 -36.5 -9.45 Q-37.45 -9.55 -37.3 -10.65 L-37.0 -12.1 -36.5 -13.8 Q-36.25 -14.55 -35.6 -14.55 M-35.95 -0.1 L-35.75 -0.15 -35.7 -0.15 -34.85 0.3 Q-34.3 0.5 -34.05 1.0 L-33.85 1.9 Q-33.8 2.3 -34.1 2.6 L-34.85 2.85 Q-35.45 2.75 -35.85 2.35 L-36.55 1.3 -36.7 0.5 -36.65 0.35 -36.25 0.05 -36.0 -0.1 -35.95 -0.1 M-23.7 -11.0 L-23.5 -10.85 -23.45 -10.45 -23.45 -10.25 -23.5 -9.95 Q-23.7 -9.5 -24.05 -9.4 -24.8 -9.2 -25.15 -9.75 L-25.2 -9.9 -25.0 -10.05 Q-24.45 -10.2 -24.5 -10.6 L-24.4 -11.1 -24.15 -11.25 -24.05 -11.35 -23.8 -11.15 -23.7 -11.0 M-25.5 -1.85 Q-25.6 -2.35 -25.05 -2.4 -24.45 -2.5 -24.15 -1.95 L-23.8 -0.95 -23.75 0.1 -24.05 0.6 Q-24.65 0.85 -25.0 0.35 -25.4 -0.15 -25.4 -0.7 L-25.5 -1.85 M-14.7 -9.55 L-14.5 -9.75 -14.35 -9.8 -13.65 -9.65 -13.1 -9.45 -12.5 -9.15 -12.05 -8.65 -12.0 -8.45 -12.0 -8.25 -12.15 -7.9 -12.25 -7.7 -12.4 -7.55 -12.5 -7.35 -12.7 -7.25 -12.75 -7.2 Q-12.9 -7.1 -13.0 -7.1 L-13.95 -7.25 -14.15 -7.45 -14.4 -7.75 -14.5 -7.95 -14.65 -8.15 -14.75 -8.3 -14.85 -8.5 -14.85 -8.7 -14.75 -9.05 -14.75 -9.25 -14.75 -9.45 -14.7 -9.55 M-16.05 -0.2 L-15.7 -0.15 -15.45 -0.05 -15.15 0.15 -14.95 0.3 -14.75 0.5 -14.65 0.85 -14.65 1.25 -14.7 1.8 Q-14.9 2.25 -15.4 2.5 L-15.8 2.6 -16.05 2.6 -16.4 2.5 -16.85 2.3 -17.05 2.1 -17.05 1.8 -17.1 1.4 -17.1 0.85 -16.85 0.15 -16.3 -0.3 -16.05 -0.2 M-5.3 10.4 L-5.35 10.2 -5.35 10.0 -5.3 9.85 -5.1 9.5 -4.7 9.2 -4.3 9.1 -4.3 9.0 -3.45 9.1 Q-3.35 9.1 -3.2 9.2 L-3.05 9.35 -2.9 9.5 -2.9 9.7 -2.9 9.9 -2.9 10.1 -2.95 10.45 -3.1 10.65 -3.2 10.8 -3.45 10.95 -3.85 11.1 -4.05 11.2 -4.3 11.2 -4.65 11.1 -5.15 10.7 -5.3 10.4 M-13.25 11.65 L-13.35 11.3 -13.2 10.95 -12.85 10.4 -12.4 10.15 -12.05 10.25 -11.9 10.45 -11.7 10.65 -11.65 10.85 -11.55 11.05 -11.55 11.2 -11.55 11.55 -11.7 11.9 -11.75 12.05 -11.9 12.1 -12.15 12.15 -12.9 11.95 -13.25 11.65 M-21.7 7.4 L-20.85 8.1 Q-20.55 8.45 -20.55 8.95 -20.55 9.5 -20.85 9.9 L-21.3 10.6 -21.7 10.65 -22.8 10.4 -23.25 9.75 -23.3 9.6 -23.15 9.25 -22.55 9.0 -21.75 9.0 -21.75 8.95 -22.05 8.6 -22.2 8.25 -22.1 7.7 -21.7 7.4 M-36.2 11.2 Q-38.05 15.35 -43.1 12.4 -44.5 11.65 -44.6 10.1 L-44.6 6.95 -44.5 5.7 -44.5 5.3 -44.3 5.1 -44.05 5.0 -43.65 4.85 -43.65 4.8 -43.4 5.2 -43.35 5.5 -43.3 5.9 -43.05 6.25 -42.9 6.45 -42.95 6.55 -43.05 6.75 -43.1 6.95 -43.2 7.15 -43.3 7.3 -43.3 7.5 Q-42.8 8.85 -41.4 9.4 L-37.95 10.35 Q-36.8 10.45 -36.2 11.2 M-38.45 12.1 L-38.05 11.95 -38.4 11.9 -41.1 11.05 -42.8 10.2 -43.4 9.5 -43.45 9.4 Q-43.6 9.25 -43.6 9.4 L-43.55 9.6 -42.8 11.15 Q-42.15 11.9 -41.1 12.15 L-40.85 12.15 -38.45 12.1" fill="#ffcc00" fill-rule="evenodd" stroke="none"/>
  </g>
</svg>
