<?xml version="1.0" encoding="UTF-8" standalone="no"?>
<svg xmlns:ffdec="https://www.free-decompiler.com/flash" xmlns:xlink="http://www.w3.org/1999/xlink" ffdec:objectType="shape" height="274.8px" width="503.45px" xmlns="http://www.w3.org/2000/svg">
  <g transform="matrix(1.0, 0.0, 0.0, 1.0, 255.35, 125.0)">
    <path d="M-82.05 -41.85 L-84.05 -41.65 Q-85.8 -41.6 -85.8 -42.9 L-85.65 -43.35 -83.35 -43.7 -80.9 -43.5 -80.1 -42.9 Q-79.7 -43.7 -79.2 -43.7 L-78.6 -43.55 -78.45 -43.4 -78.35 -42.8 Q-78.35 -41.55 -79.5 -41.1 -80.35 -41.2 -82.05 -41.85 M-140.65 -25.05 L-140.4 -25.1 -139.75 -25.25 Q-139.25 -25.25 -135.0 -22.75 L-129.8 -19.65 Q-128.0 -18.55 -123.6 -16.7 L-116.55 -13.7 Q-112.7 -12.0 -105.65 -8.0 L-100.3 -5.0 -100.1 -4.85 -100.2 -5.25 Q-100.65 -6.8 -100.65 -8.25 -100.65 -9.35 -98.75 -10.05 -96.9 -10.75 -96.9 -11.5 -96.9 -12.85 -99.0 -15.35 L-102.05 -18.95 -104.85 -22.7 Q-106.4 -24.75 -106.95 -26.1 L-105.95 -26.25 -100.45 -21.9 Q-94.55 -17.6 -91.9 -17.6 -90.45 -17.6 -89.6 -18.3 -88.7 -19.05 -87.05 -19.05 L-86.25 -19.0 -86.4 -20.65 -85.6 -21.35 -91.65 -22.75 Q-97.5 -24.1 -97.5 -25.15 -97.5 -26.15 -91.95 -26.45 -86.4 -26.75 -86.4 -27.85 L-91.8 -37.0 -97.2 -45.85 -97.05 -46.7 -96.1 -46.85 -90.0 -43.2 Q-83.85 -39.6 -77.95 -39.6 L-73.65 -39.45 Q-71.2 -39.5 -70.35 -40.4 L-68.85 -42.15 -67.7 -43.8 Q-66.5 -45.15 -65.05 -45.15 -63.8 -45.15 -62.55 -41.2 -61.3 -37.25 -58.2 -37.25 -55.7 -37.25 -49.35 -40.15 -43.0 -43.1 -41.05 -43.1 -38.55 -43.1 -38.45 -40.9 L-38.85 -37.85 -36.2 -37.85 -24.15 -41.1 Q-14.15 -43.4 -7.45 -43.4 L-5.6 -43.05 -5.4 -42.45 -10.1 -39.35 Q-14.85 -36.35 -14.85 -34.65 L-14.3 -33.1 -13.95 -33.15 Q-13.1 -33.15 -13.1 -31.6 -13.1 -29.85 -13.95 -29.85 L-14.05 -29.85 -13.85 -29.7 -13.7 -29.2 Q-14.55 -26.4 -15.55 -25.95 -16.55 -25.5 -16.55 -27.6 L-16.4 -28.8 -15.75 -29.7 -14.7 -30.0 -14.35 -29.95 -14.6 -30.25 -15.75 -29.75 -16.65 -29.45 -17.0 -28.75 Q-17.65 -27.55 -18.75 -27.6 L-18.9 -28.5 -18.85 -28.9 -21.25 -28.45 -23.3 -28.05 -21.6 -25.25 -19.4 -21.45 -19.5 -20.85 -19.65 -20.7 Q-20.8 -20.75 -23.45 -24.65 L-25.25 -27.65 Q-28.85 -26.75 -28.85 -25.85 -28.85 -24.45 -23.7 -18.8 -18.6 -13.2 -18.6 -12.4 -18.6 -10.15 -23.75 -13.35 L-30.3 -17.85 -35.65 -22.75 -36.9 -23.7 Q-37.25 -23.55 -37.85 -24.1 L-38.0 -24.25 -39.75 -24.7 -39.85 -24.3 -39.95 -24.15 Q-40.55 -24.1 -41.4 -24.55 L-41.45 -23.3 -40.9 -21.45 -40.35 -20.1 Q-40.35 -17.7 -41.9 -20.15 -43.5 -22.65 -43.5 -24.75 L-43.5 -24.85 -43.55 -24.85 Q-45.3 -24.55 -45.35 -23.2 -45.4 -22.1 -46.45 -21.7 -42.0 -16.0 -42.0 -14.5 -42.0 -11.65 -44.1 -14.8 L-47.45 -19.95 -48.75 -21.45 -52.8 -22.05 -56.3 -22.6 -56.55 -22.55 -56.4 -22.45 Q-55.6 -21.75 -54.35 -21.2 L-52.8 -20.7 Q-51.5 -20.5 -51.3 -19.9 L-51.35 -19.1 Q-51.6 -17.55 -50.7 -16.15 L-49.8 -14.3 -50.6 -13.35 Q-52.3 -14.25 -52.8 -16.4 -53.4 -18.65 -54.3 -19.25 L-58.25 -22.4 -58.5 -22.6 -61.3 -22.1 -60.9 -21.15 -60.0 -18.6 Q-60.0 -16.1 -61.7 -18.7 -62.7 -20.2 -63.1 -21.4 -64.7 -20.7 -66.2 -19.55 L-64.95 -18.0 -65.0 -17.4 -65.1 -17.25 Q-66.55 -17.0 -67.55 -18.3 L-67.6 -18.35 Q-69.2 -16.95 -70.85 -16.05 L-68.0 -14.0 Q-61.8 -9.45 -61.8 -9.15 L-61.85 -8.55 -61.95 -8.4 Q-63.3 -8.75 -67.6 -11.8 -66.25 -10.1 -65.9 -9.15 -65.25 -7.05 -62.25 -3.3 L-59.5 0.05 -59.35 0.0 Q-54.45 2.15 -54.45 3.25 L-54.55 3.95 -54.7 4.2 Q-56.45 3.95 -58.5 2.75 -60.5 1.65 -60.55 0.9 L-61.25 0.9 -64.15 -1.7 -64.2 -1.75 -64.2 -1.7 Q-64.2 -0.3 -68.75 -0.75 -73.3 -1.25 -73.3 -3.1 L-72.3 -4.0 Q-68.9 -2.7 -65.9 -2.35 L-64.5 -2.05 -65.5 -2.95 -65.6 -3.05 Q-67.65 -4.55 -69.2 -5.3 L-72.5 -5.7 -73.35 -5.7 -73.3 -5.35 Q-73.3 -2.95 -76.3 -4.85 L-77.55 -5.7 -81.2 -5.7 Q-83.1 -5.8 -84.35 -6.3 L-86.05 -7.2 Q-86.95 -7.8 -87.8 -8.0 -87.85 -6.8 -88.95 -5.4 -90.0 -4.0 -90.0 -3.3 -90.0 -2.1 -80.75 4.65 -71.55 11.45 -71.55 12.3 L-71.6 13.25 -72.5 13.4 Q-79.6 13.4 -101.65 9.8 L-101.9 9.75 -101.7 9.95 -93.7 14.95 Q-86.25 19.9 -86.25 21.85 L-86.3 23.0 Q-86.35 23.45 -88.95 23.45 L-91.55 23.25 -99.1 22.4 -99.05 23.05 Q-99.05 24.45 -101.15 25.6 -103.3 26.8 -103.3 27.85 L-102.7 29.8 -102.2 30.55 -99.85 31.95 -96.1 33.05 Q-94.15 33.6 -94.15 34.45 L-94.2 35.0 Q-96.4 35.05 -98.7 34.3 L-101.0 33.6 Q-100.65 34.65 -100.65 35.4 -100.65 36.1 -100.95 36.6 -100.65 37.75 -100.65 38.4 -100.65 42.2 -103.85 42.8 L-104.75 43.05 -104.8 43.45 -104.95 44.6 -104.55 45.0 Q-104.55 45.5 -104.7 45.3 L-105.1 45.25 -105.4 46.0 Q-105.8 45.9 -105.8 45.2 L-107.3 45.0 Q-107.8 45.9 -108.45 45.95 L-108.55 45.6 -108.35 44.85 Q-125.9 42.65 -126.5 41.5 -125.75 40.8 -119.8 39.6 L-114.0 38.65 -116.0 37.6 Q-117.4 36.85 -118.65 36.25 L-123.45 34.45 -131.2 31.2 Q-147.15 24.9 -148.85 23.8 L-150.1 22.8 -150.0 22.45 -149.95 22.4 -148.5 22.4 -147.55 22.6 -146.5 22.5 Q-140.0 22.5 -125.45 25.0 L-108.1 28.3 -107.85 28.35 -108.05 28.1 -109.65 27.1 -116.15 23.6 -124.7 18.4 Q-124.45 18.15 -124.1 18.15 L-116.0 20.25 -119.1 18.6 -121.7 17.0 -121.9 16.85 -121.65 16.85 -115.35 18.45 -112.3 19.0 -109.4 19.25 -109.4 18.6 Q-112.05 18.05 -112.15 17.1 L-112.15 16.95 Q-112.1 15.55 -113.1 15.05 L-116.05 13.7 Q-118.15 12.8 -119.0 12.3 -125.4 8.3 -128.7 6.6 -130.65 5.65 -133.25 3.25 -135.65 1.05 -137.85 0.2 -140.3 -0.7 -143.7 -2.45 -148.2 -4.8 -148.2 -5.9 L-148.05 -6.4 -147.9 -6.5 Q-145.8 -5.85 -140.9 -3.55 L-134.85 -0.75 -136.15 -2.5 -135.25 -2.3 -135.35 -3.55 -135.0 -5.65 -134.7 -7.8 Q-134.7 -8.05 -136.1 -8.9 -137.55 -10.05 -137.55 -11.75 -137.55 -14.1 -138.15 -15.95 L-138.85 -18.05 -139.1 -20.25 Q-139.0 -21.35 -139.8 -22.65 L-140.7 -24.55 -140.65 -25.05 M57.35 3.15 Q57.35 3.9 54.2 5.45 51.05 6.95 51.05 4.95 51.05 4.75 53.15 3.5 55.4 2.15 56.4 2.15 L57.2 2.4 57.3 2.7 57.35 3.15 M74.0 8.5 L72.65 8.6 74.0 8.75 74.0 8.5 M94.3 12.3 Q94.5 11.85 95.25 11.7 96.15 12.25 96.15 12.95 96.15 14.1 95.2 14.2 94.25 14.35 94.25 12.9 L94.3 12.3 M126.3 11.85 L125.1 11.5 107.75 16.25 92.6 19.55 106.6 18.8 119.4 14.45 126.3 11.85 M153.35 18.45 L153.3 18.3 145.8 19.55 Q149.9 19.95 153.35 18.45 M191.65 -6.3 Q190.5 -6.3 190.5 -7.4 190.5 -8.15 190.65 -8.3 L191.6 -8.45 Q192.75 -8.45 192.75 -7.35 192.75 -6.3 191.65 -6.3 M130.85 -6.75 Q130.85 -7.35 131.45 -7.8 L132.45 -8.15 Q132.7 -8.15 133.05 -7.75 L133.5 -7.35 136.25 -7.9 140.45 -8.45 143.45 -8.3 Q143.85 -8.2 143.85 -7.6 143.85 -6.95 137.35 -5.7 130.85 -4.5 130.85 -6.75 M124.15 -26.15 L122.25 -26.05 123.1 -25.65 124.15 -26.15 M103.65 -13.05 L104.0 -12.9 Q103.9 -11.9 103.25 -11.85 L101.45 -12.0 Q101.55 -13.15 103.65 -13.05 M116.55 -19.75 L116.7 -20.55 Q117.05 -21.3 118.2 -21.3 119.75 -21.3 120.55 -20.6 121.05 -20.1 121.05 -19.45 121.05 -17.85 118.8 -17.9 116.55 -18.0 116.55 -19.75 M95.25 -4.65 Q94.25 -5.0 94.25 -5.4 94.25 -5.85 94.4 -5.95 L94.5 -6.15 95.85 -6.3 Q103.1 -6.3 103.1 -4.75 L103.1 -4.7 103.1 -4.55 Q120.65 -4.2 149.1 -4.2 L148.25 -5.7 Q147.6 -5.9 147.6 -6.7 L147.7 -6.9 147.6 -7.35 Q147.6 -8.2 149.4 -9.0 152.65 -10.35 160.35 -10.35 L168.15 -10.05 Q168.15 -10.65 168.3 -10.8 L178.7 -11.7 191.7 -12.6 Q192.95 -12.6 192.95 -11.5 192.95 -10.35 189.4 -9.85 L187.35 -9.65 188.1 -9.35 Q188.6 -9.05 188.6 -8.55 188.6 -7.3 186.55 -7.45 185.55 -7.5 185.05 -7.8 184.5 -8.05 184.5 -8.55 184.5 -8.9 184.95 -9.3 L185.2 -9.45 184.9 -9.4 180.5 -9.0 179.35 -8.7 185.0 -7.6 186.55 -7.25 187.2 -7.05 Q189.7 -6.4 192.55 -5.0 L194.9 -4.5 198.45 -3.85 200.55 -3.8 209.4 -4.05 Q209.6 -4.05 209.85 -3.7 211.45 -3.95 213.2 -3.75 214.6 -3.65 215.0 -3.1 L215.1 -2.35 Q215.1 -0.5 198.85 1.15 182.55 2.75 182.55 5.1 L182.6 5.45 189.0 6.0 189.95 6.1 189.9 5.9 190.0 5.35 190.05 5.15 190.95 5.0 192.65 5.3 194.3 5.55 194.65 5.0 Q195.4 4.4 197.75 4.4 L200.25 4.55 Q200.6 4.7 200.6 5.4 L200.35 6.1 199.5 7.05 197.35 7.5 198.65 8.0 Q198.85 7.75 199.35 7.55 L201.6 8.7 202.4 9.35 203.45 9.15 Q203.85 9.15 204.55 9.6 205.35 10.15 205.35 10.65 L205.25 11.25 205.1 11.55 Q201.8 11.5 199.35 12.3 196.85 13.3 195.05 13.7 L187.65 14.1 181.15 14.7 Q180.1 16.5 174.1 16.25 L169.35 15.6 164.0 16.0 160.25 16.75 157.8 17.85 154.85 18.9 Q149.6 21.2 147.55 21.55 145.05 22.0 145.05 20.15 L145.15 19.65 137.6 20.8 119.6 23.4 119.3 23.4 119.7 23.55 Q124.65 26.5 127.1 27.35 L128.6 27.65 129.4 27.65 129.45 27.6 129.45 27.65 129.6 27.8 129.6 28.1 134.85 28.25 169.65 32.8 Q169.45 33.15 168.8 33.5 L129.9 37.25 132.25 38.25 132.2 38.25 134.05 39.15 137.1 40.45 Q140.45 42.05 141.15 43.1 L133.95 43.05 121.6 43.25 Q109.5 42.8 78.75 43.2 79.8 46.9 83.3 49.8 86.45 52.45 86.45 53.0 L86.45 53.05 83.3 51.85 74.25 48.5 67.2 46.25 Q66.75 45.15 66.75 42.1 66.5 40.8 66.6 39.8 66.75 37.95 68.4 36.6 73.45 32.55 92.05 32.55 L103.05 33.3 102.75 33.0 100.35 31.15 Q98.7 29.8 98.7 28.95 98.7 28.35 98.95 28.25 L104.7 27.8 113.1 27.85 85.65 24.6 Q82.2 24.2 81.2 23.6 80.25 23.0 80.25 21.3 80.25 20.0 82.1 19.65 L92.4 18.3 99.55 16.95 105.6 15.45 Q107.6 14.7 115.35 12.8 L121.25 11.1 122.75 10.7 120.95 10.05 117.8 10.6 Q111.0 11.7 109.3 10.5 L107.95 11.65 105.35 13.35 Q104.1 14.2 103.1 14.25 L98.2 15.75 Q93.0 17.15 93.0 15.75 93.0 15.3 93.15 15.25 L93.3 15.15 Q96.9 14.75 99.8 13.95 L101.85 13.35 101.85 13.15 101.95 12.6 102.0 12.45 Q104.05 12.45 104.95 11.55 L105.8 10.05 106.95 8.7 Q107.8 8.15 108.15 8.15 L112.75 8.05 114.3 7.55 Q109.5 5.85 102.3 5.85 97.0 5.85 93.35 8.45 89.7 11.0 82.6 11.0 76.6 11.0 72.15 9.9 68.7 9.1 68.7 8.65 68.7 7.6 72.35 7.25 L80.4 6.7 Q89.9 5.85 91.7 2.1 82.5 4.3 74.7 3.6 L66.55 2.75 Q65.25 2.4 65.25 1.45 65.25 0.7 65.4 0.75 L66.7 0.6 69.25 1.15 78.35 1.7 Q84.6 1.7 92.0 -0.2 L92.05 -0.2 91.8 -1.55 91.5 -3.3 91.7 -4.05 Q92.5 -4.55 95.25 -4.65 M87.15 -12.5 L88.05 -12.6 89.05 -12.6 Q89.95 -12.45 90.05 -11.85 L88.0 -11.6 Q87.15 -11.8 87.15 -12.25 L87.15 -12.5 M85.65 -17.75 L85.45 -17.75 85.25 -17.65 85.65 -17.75 M91.25 -12.5 L94.0 -12.75 Q95.25 -12.75 95.25 -12.2 95.25 -11.75 93.1 -11.75 90.9 -11.75 90.9 -12.1 L90.95 -12.3 Q91.0 -12.5 91.25 -12.5 M92.85 -14.75 Q92.55 -14.85 92.55 -15.15 L92.6 -15.45 93.15 -15.45 93.7 -15.35 93.75 -15.0 Q93.15 -14.65 92.85 -14.75 M94.95 -16.85 Q94.95 -16.45 94.0 -16.0 93.05 -15.6 93.05 -16.35 L93.3 -16.85 Q93.7 -17.4 94.25 -17.4 L94.8 -17.3 94.95 -16.85 M97.2 -19.3 Q97.65 -20.0 99.15 -20.0 100.85 -20.0 101.9 -19.25 102.8 -18.65 102.8 -17.9 102.8 -15.8 99.95 -16.5 97.05 -17.2 97.05 -18.55 L97.2 -19.3 M119.9 -24.75 L119.9 -25.05 Q120.1 -25.65 120.65 -25.9 L117.25 -25.4 Q119.25 -25.35 119.85 -24.8 L119.9 -24.75 M80.45 -20.45 L80.9 -19.5 80.15 -18.5 84.8 -18.7 Q83.7 -19.25 83.7 -20.05 L83.8 -20.45 80.45 -20.45 M76.05 -19.1 Q76.4 -19.95 77.15 -20.45 L69.35 -20.15 70.35 -19.65 Q70.85 -19.2 70.85 -18.55 70.85 -16.95 68.0 -16.7 65.1 -16.45 65.1 -18.25 L65.45 -18.95 63.15 -17.8 63.9 -17.3 64.2 -16.4 63.85 -15.6 64.35 -15.65 Q68.95 -16.0 70.5 -16.8 L70.65 -16.85 70.7 -17.1 Q71.1 -17.9 72.05 -17.9 L73.85 -17.75 75.35 -18.0 75.9 -18.05 76.05 -19.1 M44.0 -18.15 Q44.8 -17.95 45.45 -17.15 L46.2 -16.0 46.95 -16.5 47.1 -16.6 Q45.6 -16.1 45.6 -18.2 L46.0 -18.85 44.0 -18.15 M58.7 -22.65 L56.45 -22.65 52.05 -21.05 52.05 -20.95 49.25 -18.0 51.9 -19.7 Q53.6 -20.85 58.7 -22.65 M22.05 -20.8 L20.7 -19.55 19.9 -17.35 22.95 -20.1 Q22.8 -20.55 22.8 -21.15 L22.85 -21.5 22.8 -21.5 22.05 -20.8 M22.35 -23.25 L22.65 -23.3 22.3 -23.3 22.35 -23.25 M25.2 -23.15 L25.2 -23.25 25.05 -23.25 25.2 -23.15 M0.2 -10.25 L0.6 -9.75 -0.2 -8.95 Q-0.75 -8.6 -1.35 -8.6 L-1.5 -8.85 -1.5 -9.3 -1.25 -10.2 -0.9 -10.55 -0.3 -10.65 Q-0.05 -10.65 0.2 -10.25 M15.45 -21.0 L16.65 -20.85 Q17.0 -20.65 17.0 -20.1 17.0 -19.55 16.45 -19.2 L13.8 -18.95 13.65 -19.2 13.65 -19.65 13.85 -20.3 Q14.3 -21.0 15.45 -21.0 M5.4 -62.25 L5.3 -62.15 5.4 -62.2 5.4 -62.25 M40.8 -67.5 Q41.15 -67.5 41.45 -67.1 L41.7 -66.45 39.4 -63.05 Q37.1 -59.8 37.1 -56.7 37.1 -55.05 41.55 -53.4 45.1 -52.05 50.3 -51.75 L60.45 -50.6 Q64.95 -49.65 67.65 -49.65 L70.95 -49.15 72.45 -48.15 74.25 -47.1 Q75.15 -46.45 76.75 -46.1 L100.35 -45.05 107.7 -46.05 120.75 -47.1 Q133.35 -47.1 140.9 -45.75 146.6 -44.75 146.6 -43.8 146.6 -42.75 135.35 -40.55 L127.3 -39.1 Q128.1 -38.5 128.1 -38.05 L127.8 -36.95 129.8 -36.45 129.6 -37.1 129.75 -37.75 Q130.55 -38.6 133.35 -38.6 136.15 -38.6 136.95 -37.95 137.25 -37.7 137.25 -37.1 137.25 -35.85 134.95 -35.55 L133.95 -35.5 134.9 -35.3 146.0 -32.85 Q155.15 -28.0 155.15 -26.7 L154.95 -26.05 Q154.5 -25.6 153.1 -25.5 152.45 -24.35 149.7 -23.8 L144.2 -23.55 Q141.45 -23.7 140.6 -24.45 140.25 -24.7 140.25 -25.2 L140.45 -25.85 136.8 -26.0 137.25 -25.8 Q137.55 -25.65 137.55 -24.9 137.55 -23.35 131.6 -23.35 L127.2 -23.7 126.55 -23.5 Q124.05 -22.7 122.75 -22.85 L121.7 -22.35 Q120.4 -22.0 120.0 -23.05 L120.0 -23.15 119.85 -23.0 Q118.9 -21.25 117.3 -22.8 115.7 -24.35 114.6 -22.2 L114.35 -21.1 Q114.2 -20.6 113.3 -20.1 L111.5 -19.5 Q111.0 -18.6 109.1 -18.5 108.35 -17.95 107.05 -17.45 104.0 -16.25 104.0 -18.45 L104.6 -19.2 104.1 -19.45 99.2 -20.05 90.3 -20.35 90.65 -19.45 Q90.65 -17.65 88.15 -17.85 87.15 -17.05 82.15 -15.8 L74.85 -14.25 Q71.65 -13.7 67.05 -11.7 62.15 -9.45 60.3 -8.7 L61.05 -8.6 72.9 -9.9 83.85 -11.25 85.0 -11.1 85.2 -10.65 Q85.2 -9.95 80.2 -8.3 76.3 -7.0 73.05 -6.2 L67.05 -4.95 65.0 -4.4 71.6 -5.1 87.3 -6.3 88.5 -6.15 Q88.95 -5.95 88.95 -5.35 88.95 -4.45 87.45 -4.2 L81.85 -3.65 82.65 -2.85 82.5 -2.25 82.35 -2.0 73.85 -1.85 Q72.5 -1.95 72.5 -2.85 L72.5 -2.9 67.0 -2.45 66.95 -2.45 67.0 -2.4 67.2 -1.85 Q65.45 0.05 63.95 -0.35 62.7 -0.65 62.7 -1.65 L62.75 -2.1 59.25 -1.85 50.35 -1.55 50.4 -0.95 Q50.4 0.1 48.7 0.25 46.95 0.4 46.55 -0.9 L47.35 -1.45 43.35 -1.35 44.1 -0.85 44.4 -0.3 44.25 0.45 Q39.75 1.25 39.75 -1.15 39.75 -1.85 41.0 -2.3 L35.85 -2.2 33.9 -1.95 Q32.3 -1.8 30.9 -1.1 28.7 -0.3 25.5 0.45 L21.6 0.65 27.65 -1.95 Q30.0 -2.75 33.45 -4.5 L36.4 -6.05 Q37.5 -6.6 40.1 -7.35 L42.4 -8.05 43.0 -8.9 42.95 -8.95 38.9 -8.75 Q38.0 -8.75 38.0 -9.85 38.0 -10.4 41.95 -13.15 L43.95 -14.5 Q42.0 -15.0 42.0 -16.5 L42.15 -17.4 42.25 -17.5 41.4 -17.25 41.4 -17.0 Q41.4 -15.45 39.7 -15.45 38.45 -15.45 38.15 -16.25 L33.75 -15.1 33.75 -14.9 Q33.75 -13.65 30.25 -11.95 27.8 -10.75 27.1 -11.65 L27.05 -11.65 Q25.05 -12.2 24.7 -13.35 L22.3 -12.9 Q21.75 -12.0 19.75 -11.8 L18.3 -11.8 18.0 -11.7 14.4 -9.45 11.25 -7.25 11.55 -6.4 Q11.55 -4.7 8.35 -4.25 5.15 -3.8 5.15 -5.75 L5.25 -6.25 5.15 -7.1 5.25 -8.0 Q5.55 -9.05 6.65 -9.05 7.75 -9.05 8.05 -8.0 L9.65 -9.35 Q8.15 -9.5 8.15 -10.9 L8.3 -11.6 Q8.75 -12.45 10.05 -12.45 11.7 -12.45 11.85 -11.15 L15.65 -14.05 15.9 -14.2 15.8 -15.0 15.9 -15.8 15.8 -16.45 Q15.8 -16.95 16.45 -18.05 L17.3 -19.7 17.5 -21.8 Q17.8 -22.55 18.8 -22.85 L18.8 -23.1 18.8 -23.35 16.25 -23.55 15.05 -23.7 12.5 -21.3 9.8 -19.8 Q7.85 -18.75 7.5 -18.3 7.0 -17.05 6.2 -17.05 5.45 -17.05 5.45 -18.0 5.45 -19.15 7.4 -20.3 L11.55 -22.95 12.4 -23.8 Q10.85 -23.45 2.15 -16.95 L1.55 -16.5 1.35 -16.35 1.65 -16.35 Q2.6 -16.35 3.0 -15.6 1.45 -13.55 0.55 -13.4 -0.3 -13.3 -0.3 -14.8 L-0.25 -15.15 -0.45 -15.0 -7.25 -10.05 Q-8.0 -10.05 -8.1 -10.35 L-8.15 -11.1 -4.75 -20.4 Q-6.95 -18.85 -6.95 -21.6 L-5.75 -24.0 Q-4.35 -26.4 -3.3 -26.4 L-2.9 -26.35 Q-1.75 -30.35 -1.25 -33.1 L-1.15 -33.55 -1.5 -33.15 Q-4.8 -29.1 -4.8 -34.1 L-2.9 -36.9 -1.2 -38.85 -2.7 -51.0 Q-2.7 -52.4 -0.6 -56.45 L2.0 -61.4 3.4 -64.3 Q4.2 -65.85 4.2 -66.65 L3.65 -70.0 Q3.5 -72.05 5.6 -72.05 6.75 -72.05 6.95 -70.8 L6.95 -69.0 6.7 -65.65 Q6.65 -64.55 7.65 -61.65 8.3 -59.9 11.0 -58.05 14.65 -55.5 19.3 -55.5 24.15 -55.5 28.4 -58.35 30.55 -59.8 31.8 -61.35 L36.6 -64.85 40.8 -67.5 M-94.0 -43.75 L-94.05 -43.8 -94.05 -43.7 -94.0 -43.75 M-123.35 41.4 L-123.65 41.45 -123.3 41.55 -123.35 41.4 M-106.5 42.5 L-106.6 42.45 -106.5 42.5 M-105.9 41.3 L-105.7 41.3 -105.65 41.25 -105.9 41.3 M-112.25 17.2 L-113.0 17.45 Q-113.4 17.45 -114.45 16.05 L-114.9 15.4 -114.1 16.05 -112.3 17.2 -112.25 17.2 M-48.9 1.25 Q-48.9 2.5 -50.3 2.3 -51.75 2.1 -51.75 1.05 -51.75 0.3 -51.6 0.45 L-50.35 0.3 Q-48.9 0.3 -48.9 1.25 M-13.1 -16.85 Q-12.0 -13.75 -12.0 -13.15 L-12.1 -12.55 -12.2 -12.35 Q-14.35 -12.3 -14.65 -13.65 L-14.75 -15.8 -15.5 -18.2 -15.95 -20.25 -15.15 -21.15 Q-14.3 -20.3 -13.1 -16.85 M-31.7 -10.7 Q-31.7 -11.4 -31.35 -11.55 L-28.9 -11.7 -26.85 -11.7 Q-26.0 -11.55 -26.0 -10.65 -26.0 -9.45 -28.85 -9.6 -31.7 -9.7 -31.7 -10.7 M-46.5 -3.5 L-45.75 -3.65 Q-45.1 -3.7 -44.5 -3.05 L-44.0 -2.25 Q-44.0 -1.5 -44.25 -1.5 L-46.0 -1.6 Q-46.65 -2.15 -46.65 -2.9 L-46.5 -3.5 M-52.3 -8.2 Q-52.85 -8.8 -52.85 -9.55 L-52.75 -9.95 -52.05 -10.5 Q-51.7 -10.35 -50.75 -9.4 L-49.8 -8.25 -49.85 -7.7 -49.95 -7.5 Q-51.55 -7.4 -52.3 -8.2 M-56.65 -13.5 Q-57.75 -14.45 -57.75 -14.9 L-57.6 -15.5 -56.75 -15.65 -55.35 -14.75 Q-54.3 -13.8 -54.3 -13.15 L-54.4 -12.55 -54.5 -12.35 Q-55.5 -12.45 -56.65 -13.5 M-61.55 -4.55 Q-62.9 -5.2 -62.9 -6.0 L-62.0 -6.8 Q-58.05 -5.25 -58.05 -4.2 L-58.15 -3.6 -58.25 -3.45 Q-60.7 -4.15 -61.55 -4.55 M-109.15 -27.85 Q-109.15 -28.35 -109.0 -28.25 L-108.15 -28.25 Q-107.35 -28.15 -107.35 -27.55 -107.35 -26.55 -108.25 -26.95 -109.15 -27.4 -109.15 -27.85 M-96.5 -33.35 Q-97.8 -34.4 -97.8 -34.95 L-97.65 -35.55 -96.8 -35.7 Q-94.95 -35.7 -93.05 -32.7 -91.5 -30.2 -91.5 -29.2 L-91.6 -28.6 -91.7 -28.4 Q-93.35 -28.3 -93.75 -29.35 L-94.35 -31.25 -96.5 -33.35" fill="#875722" fill-opacity="0.6" fill-rule="evenodd" stroke="none"/>
    <path d="M131.05 24.2 L138.45 27.65 141.75 32.0 145.1 36.65 145.75 37.85 144.2 38.35 135.55 41.4 126.05 43.8 120.9 44.7 120.45 44.8 121.75 42.25 127.8 29.25 130.6 24.05 131.05 24.2 M139.7 33.1 L138.65 32.05 Q137.5 33.15 135.3 34.25 L128.3 39.95 126.2 41.65 125.75 42.1 129.35 40.95 137.8 38.5 Q140.85 37.4 142.75 36.4 L142.45 35.9 139.7 33.1 M128.95 30.2 L128.55 30.65 Q124.6 38.55 123.5 40.25 L123.85 40.25 128.85 35.8 Q134.55 30.65 137.3 28.8 133.4 27.3 131.5 26.8 L131.4 26.5 Q130.85 26.8 130.45 27.5 L128.95 30.2" fill="#634019" fill-rule="evenodd" stroke="none"/>
    <path d="M139.7 33.1 L142.45 35.9 142.75 36.4 Q140.85 37.4 137.8 38.5 L129.35 40.95 125.75 42.1 126.2 41.65 128.3 39.95 135.3 34.25 Q137.5 33.15 138.65 32.05 L139.7 33.1" fill="#a08b6a" fill-rule="evenodd" stroke="none"/>
    <path d="M128.95 30.2 L130.45 27.5 Q130.85 26.8 131.4 26.5 L131.5 26.8 Q133.4 27.3 137.3 28.8 134.55 30.65 128.85 35.8 L123.85 40.25 123.5 40.25 Q124.6 38.55 128.55 30.65 L128.95 30.2" fill="#815f2d" fill-rule="evenodd" stroke="none"/>
    <path d="M-120.5 41.05 Q-120.35 41.6 -120.85 42.05 -122.5 43.45 -130.4 43.45 L-138.9 43.2 -139.0 43.35 -139.15 43.45 -141.15 43.5 -141.2 43.55 -141.35 43.8 -141.55 43.65 -143.7 41.85 -142.9 41.85 -143.05 40.95 -143.65 37.2 -142.45 37.0 -140.6 37.25 -139.05 37.6 Q-137.6 37.85 -129.95 37.7 -122.7 37.6 -121.95 37.8 -121.0 38.1 -120.8 39.0 L-120.75 40.5 -120.5 41.05 M-117.9 37.05 Q-117.5 36.2 -115.5 36.2 -113.5 36.2 -111.25 37.3 -109.05 38.4 -109.05 39.25 -109.05 40.85 -110.45 41.8 -111.7 42.65 -113.45 42.6 -117.9 42.45 -117.9 38.05 -118.1 37.5 -117.9 37.05 M-116.3 38.3 L-116.1 38.6 Q-115.15 39.95 -113.95 40.35 -112.4 40.85 -111.05 39.4 -112.45 38.0 -115.3 38.0 -116.3 38.0 -116.3 38.3 M-105.15 40.7 L-108.25 38.1 Q-107.05 36.65 -102.45 35.9 L-96.6 35.4 Q-95.2 35.4 -94.95 36.2 L-97.7 39.85 Q-99.3 42.1 -100.6 42.65 -102.65 42.85 -105.15 40.7 M-138.9 41.6 L-138.05 41.45 -122.35 41.65 Q-122.35 40.25 -122.75 39.6 L-132.85 39.7 -141.65 39.1 -141.65 39.3 -140.95 41.85 -139.15 41.85 -138.9 41.6 M-102.0 38.15 L-104.65 38.7 -104.35 39.0 Q-102.65 41.3 -100.6 40.4 -98.9 39.6 -98.3 37.6 L-99.2 37.6 -102.0 38.15" fill="#634019" fill-rule="evenodd" stroke="none"/>
    <path d="M-116.3 38.3 Q-116.3 38.0 -115.3 38.0 -112.45 38.0 -111.05 39.4 -112.4 40.85 -113.95 40.35 -115.15 39.95 -116.1 38.6 L-116.3 38.3 M-102.0 38.15 L-99.2 37.6 -98.3 37.6 Q-98.9 39.6 -100.6 40.4 -102.65 41.3 -104.35 39.0 L-104.65 38.7 -102.0 38.15 M-138.9 41.6 L-139.15 41.85 -140.95 41.85 -141.65 39.3 -141.65 39.1 -132.85 39.7 -122.75 39.6 Q-122.35 40.25 -122.35 41.65 L-138.05 41.45 -138.9 41.6" fill="#a08b6a" fill-rule="evenodd" stroke="none"/>
    <path d="M124.2 40.7 L125.15 42.9 Q126.55 46.5 129.3 51.2 L133.0 54.7 Q136.4 57.75 136.6 58.2 L136.9 59.15 136.75 59.7 131.05 59.05 124.8 57.85 Q122.3 57.55 118.2 58.95 114.4 60.3 111.55 59.65 105.7 57.9 104.15 57.8 L101.25 57.2 97.3 56.15 92.65 57.25 Q89.8 58.0 88.35 55.15 L86.3 51.0 Q85.5 48.95 83.9 48.05 L82.4 47.45 Q82.15 46.75 82.35 46.65 L82.5 46.6 85.75 44.5 Q87.6 43.45 88.55 43.1 L94.75 42.8 103.95 43.2 107.5 43.55 114.0 42.9 Q114.65 42.75 119.7 40.25 122.8 38.7 124.2 40.7 M89.4 45.15 Q88.75 45.4 87.8 46.1 L86.25 47.25 86.35 47.3 89.95 48.65 Q93.05 49.8 94.05 50.45 L95.85 49.65 97.7 48.65 97.65 48.45 97.9 48.4 98.1 48.4 98.25 48.3 98.75 48.35 98.7 48.5 101.75 49.35 105.4 50.65 109.7 51.7 113.15 52.65 Q114.4 51.45 116.25 50.75 118.35 49.95 120.5 49.95 L120.95 49.8 121.15 49.55 121.35 49.65 121.75 49.5 121.9 49.6 122.0 49.95 Q124.4 51.2 128.5 54.0 L130.2 55.15 Q128.05 53.2 126.5 50.65 124.55 47.5 123.0 42.75 111.0 46.15 107.85 46.0 105.9 45.15 103.35 45.1 L95.9 44.85 89.4 45.15 M98.2 49.05 L98.05 49.0 96.25 50.0 94.5 50.85 Q94.65 51.15 94.45 51.0 L94.05 51.0 94.0 51.0 91.6 50.6 89.4 49.55 87.15 48.6 Q88.8 51.2 89.95 53.85 90.7 55.55 91.85 54.8 93.55 53.45 94.65 53.65 L98.45 54.4 102.0 55.35 104.9 55.9 Q107.85 56.1 110.2 57.45 113.35 58.1 123.45 55.45 124.5 55.55 128.25 56.8 130.65 57.6 132.4 57.65 L130.45 56.5 Q129.95 56.1 128.6 55.6 L126.85 54.75 Q125.0 53.6 123.55 52.8 L122.3 51.6 Q122.2 51.35 121.5 51.0 L120.75 50.45 Q118.65 51.4 114.5 53.55 L114.15 53.85 114.1 54.05 113.8 53.95 113.15 54.0 112.3 53.65 112.25 53.55 110.55 53.0 106.5 51.8 Q99.9 50.55 98.45 49.15 L98.55 49.1 98.2 49.05 M40.5 44.1 L50.75 46.95 Q59.4 49.5 59.65 50.65 56.3 57.35 53.7 57.9 48.0 59.1 46.2 58.75 44.35 58.25 41.8 58.75 39.4 59.3 37.45 61.4 36.9 62.15 34.45 59.3 33.15 57.7 31.0 53.5 L28.7 47.45 Q27.25 43.7 25.45 42.0 L24.9 39.2 Q25.75 38.85 26.65 38.65 27.1 38.55 32.1 40.6 L40.5 44.1 M27.3 41.0 L27.15 40.95 27.3 41.1 31.8 45.1 37.0 49.75 39.7 51.95 Q40.3 52.65 42.2 52.7 L45.75 52.5 Q47.6 52.35 48.6 53.0 L49.9 54.05 52.15 55.3 52.6 55.6 Q54.95 54.25 56.75 51.2 46.35 48.4 39.45 45.95 33.5 43.9 27.3 41.0 M31.45 45.7 L29.0 43.5 Q30.55 45.9 32.05 49.55 35.0 56.35 36.65 58.8 L41.35 56.65 Q44.45 56.0 49.55 56.45 L51.8 55.9 51.7 55.9 49.75 54.75 48.25 53.65 Q47.3 53.05 45.65 53.15 L43.75 53.15 41.9 53.15 40.95 53.5 Q40.1 53.75 39.65 52.85 L38.45 51.65 36.85 50.5 31.45 45.7 M-64.0 47.75 Q-63.35 48.0 -63.1 48.2 L-62.9 48.35 -63.45 50.1 Q-63.85 51.2 -67.85 57.25 -72.05 63.45 -73.55 65.05 L-80.35 72.0 Q-81.9 73.05 -82.25 73.0 L-83.85 72.0 Q-85.45 71.2 -88.3 70.3 -89.3 69.95 -90.95 67.85 L-93.05 65.65 Q-93.8 64.8 -93.35 63.55 -93.05 62.8 -79.6 55.05 -65.7 47.15 -64.0 47.75 M-67.1 51.95 L-70.75 54.9 -73.05 57.45 -75.65 60.0 -78.35 62.45 Q-80.05 63.85 -81.6 64.65 L-85.1 66.9 -86.9 67.95 -86.85 68.0 Q-84.6 69.7 -81.9 70.7 -78.0 67.4 -73.5 61.2 L-66.6 51.6 -67.1 51.95 M-127.45 82.0 L-129.6 78.2 -134.55 80.7 Q-138.0 82.6 -139.85 83.35 L-139.75 83.7 -135.4 85.8 -131.55 87.3 -130.25 91.35 Q-129.45 93.95 -129.35 94.95 L-125.5 92.9 -123.6 91.7 Q-122.5 90.9 -122.05 90.15 L-119.3 92.7 -116.85 94.9 Q-111.85 91.05 -103.55 87.9 -103.15 87.3 -102.9 86.5 L-114.8 86.7 Q-123.75 86.75 -125.0 85.6 -125.95 84.7 -127.45 82.0 M-75.85 59.3 L-70.95 54.25 -68.9 52.45 Q-84.75 59.9 -91.1 63.95 L-87.45 67.5 -85.5 66.3 -81.5 63.9 Q-78.6 62.0 -75.85 59.3 M-123.65 83.9 Q-122.6 84.9 -111.75 84.7 -100.8 84.55 -100.65 84.7 -100.1 85.25 -100.55 86.55 L-100.7 86.9 -100.5 86.8 -100.85 87.55 -101.0 87.55 -101.2 87.95 -102.75 90.3 -103.45 91.0 -107.15 94.95 Q-111.45 99.4 -114.2 100.95 -115.55 101.7 -117.6 100.3 -119.6 99.0 -120.15 99.3 -120.95 99.6 -121.8 100.55 L-123.05 101.85 -126.1 104.75 Q-128.25 106.65 -129.0 107.45 -132.25 104.35 -137.45 94.5 -143.0 84.05 -141.2 82.15 -129.65 75.2 -128.35 76.45 -127.95 76.85 -126.65 79.6 -125.25 82.4 -123.65 83.9 M-122.05 91.1 Q-125.9 94.55 -129.25 95.4 L-129.2 95.5 -129.55 95.65 Q-130.9 93.4 -131.95 87.95 L-139.4 84.65 Q-138.35 87.45 -134.7 94.45 L-129.0 104.85 -126.25 102.3 -123.55 99.8 Q-121.35 97.5 -120.55 97.25 -119.65 96.9 -117.6 97.95 -115.6 99.0 -114.65 98.7 -112.0 97.6 -108.0 93.2 L-104.35 88.85 -104.8 89.0 -109.15 91.2 -113.45 93.35 -116.9 95.6 Q-117.5 95.7 -119.85 93.45 L-122.05 91.1" fill="#634019" fill-rule="evenodd" stroke="none"/>
    <path d="M98.2 49.05 L98.55 49.1 98.45 49.15 Q99.9 50.55 106.5 51.8 L110.55 53.0 112.25 53.55 112.3 53.65 113.15 54.0 113.8 53.95 114.1 54.05 114.15 53.85 114.5 53.55 Q118.65 51.4 120.75 50.45 L121.5 51.0 Q122.2 51.35 122.3 51.6 L123.55 52.8 Q125.0 53.6 126.85 54.75 L128.6 55.6 Q129.95 56.1 130.45 56.5 L132.4 57.65 Q130.65 57.6 128.25 56.8 124.5 55.55 123.45 55.45 113.35 58.1 110.2 57.45 107.85 56.1 104.9 55.9 L102.0 55.35 98.45 54.4 94.65 53.65 Q93.55 53.45 91.85 54.8 90.7 55.55 89.95 53.85 88.8 51.2 87.15 48.6 L89.4 49.55 91.6 50.6 94.0 51.0 94.05 51.0 94.45 51.0 Q94.65 51.15 94.5 50.85 L96.25 50.0 98.05 49.0 98.2 49.05 M27.3 41.0 L27.3 41.1 27.15 40.95 27.3 41.0 M31.45 45.7 L36.85 50.5 38.45 51.65 39.65 52.85 Q40.1 53.75 40.95 53.5 L41.9 53.15 43.75 53.15 45.65 53.15 Q47.3 53.05 48.25 53.65 L49.75 54.75 51.7 55.9 51.8 55.9 49.55 56.45 Q44.45 56.0 41.35 56.65 L36.65 58.8 Q35.0 56.35 32.05 49.55 30.55 45.9 29.0 43.5 L31.45 45.7 M-67.1 51.95 L-66.6 51.6 -73.5 61.2 Q-78.0 67.4 -81.9 70.7 -84.6 69.7 -86.85 68.0 L-86.9 67.95 -85.1 66.9 -81.6 64.65 Q-80.05 63.85 -78.35 62.45 L-75.65 60.0 -73.05 57.45 -70.75 54.9 -67.1 51.95 M-122.05 91.1 L-119.85 93.45 Q-117.5 95.7 -116.9 95.6 L-113.45 93.35 -109.15 91.2 -104.8 89.0 -104.35 88.85 -108.0 93.2 Q-112.0 97.6 -114.65 98.7 -115.6 99.0 -117.6 97.95 -119.65 96.9 -120.55 97.25 -121.35 97.5 -123.55 99.8 L-126.25 102.3 -129.0 104.85 -134.7 94.45 Q-138.35 87.45 -139.4 84.65 L-131.95 87.95 Q-130.9 93.4 -129.55 95.65 L-129.2 95.5 -129.25 95.4 Q-125.9 94.55 -122.05 91.1" fill="#a08b6a" fill-rule="evenodd" stroke="none"/>
    <path d="M89.4 45.15 L95.9 44.85 103.35 45.1 Q105.9 45.15 107.85 46.0 111.0 46.15 123.0 42.75 124.55 47.5 126.5 50.65 128.05 53.2 130.2 55.15 L128.5 54.0 Q124.4 51.2 122.0 49.95 L121.9 49.6 121.75 49.5 121.35 49.65 121.15 49.55 120.95 49.8 120.5 49.95 Q118.35 49.95 116.25 50.75 114.4 51.45 113.15 52.65 L109.7 51.7 105.4 50.65 101.75 49.35 98.7 48.5 98.75 48.35 98.25 48.3 98.1 48.4 97.9 48.4 97.65 48.45 97.7 48.65 95.85 49.65 94.05 50.45 Q93.05 49.8 89.95 48.65 L86.35 47.3 86.25 47.25 87.8 46.1 Q88.75 45.4 89.4 45.15 M27.3 41.1 L27.3 41.0 Q33.5 43.9 39.45 45.95 46.35 48.4 56.75 51.2 54.95 54.25 52.6 55.6 L52.15 55.3 49.9 54.05 48.6 53.0 Q47.6 52.35 45.75 52.5 L42.2 52.7 Q40.3 52.65 39.7 51.95 L37.0 49.75 31.8 45.1 27.3 41.1 M-75.85 59.3 Q-78.6 62.0 -81.5 63.9 L-85.5 66.3 -87.45 67.5 -91.1 63.95 Q-84.75 59.9 -68.9 52.45 L-70.95 54.25 -75.85 59.3 M-127.45 82.0 Q-125.95 84.7 -125.0 85.6 -123.75 86.75 -114.8 86.7 L-102.9 86.5 Q-103.15 87.3 -103.55 87.9 -111.85 91.05 -116.85 94.9 L-119.3 92.7 -122.05 90.15 Q-122.5 90.9 -123.6 91.7 L-125.5 92.9 -129.35 94.95 Q-129.45 93.95 -130.25 91.35 L-131.55 87.3 -135.4 85.8 -139.75 83.7 -139.85 83.35 Q-138.0 82.6 -134.55 80.7 L-129.6 78.2 -127.45 82.0" fill="#815f2d" fill-rule="evenodd" stroke="none"/>
    <path d="M204.25 24.8 L202.85 30.95 Q201.25 36.45 200.05 35.35 L195.05 39.7 190.15 43.25 Q190.0 43.75 188.8 43.8 L187.9 43.8 Q184.25 43.45 174.9 40.6 157.7 35.35 155.95 32.7 L155.55 32.15 155.55 31.9 155.4 31.85 155.2 31.35 155.15 31.15 155.8 30.6 176.45 28.95 175.8 27.3 Q175.45 25.9 176.25 25.35 L183.7 24.1 191.4 22.85 199.5 21.65 Q201.6 21.45 202.75 23.2 L203.3 24.0 203.4 24.0 Q204.05 24.1 204.3 24.5 L204.3 24.7 204.25 24.8 M162.5 33.75 L171.55 37.4 182.65 40.55 188.55 42.05 189.55 41.25 197.4 35.25 Q199.25 34.05 200.0 33.65 L200.85 29.75 201.65 26.65 194.45 31.6 192.9 32.85 Q192.45 33.2 191.9 33.15 L189.4 33.4 184.65 33.75 182.55 36.9 Q181.95 37.3 169.7 34.85 L159.85 32.65 162.5 33.75 M178.7 28.85 Q179.0 30.0 178.2 30.5 L166.85 31.6 159.7 32.05 163.15 32.9 169.4 34.1 176.65 35.6 182.3 36.25 184.4 33.05 187.9 32.95 Q191.7 32.7 193.1 31.8 L202.0 25.5 202.1 25.3 Q201.55 22.9 192.6 24.3 L178.0 26.9 178.7 28.85 M176.85 75.35 L176.2 74.6 Q175.85 73.8 176.55 73.2 177.3 72.55 195.25 68.25 L208.1 64.1 Q218.6 60.7 219.3 61.55 L220.8 65.25 Q222.25 68.95 223.0 70.2 L225.85 75.05 Q226.7 78.0 222.15 79.8 L212.7 82.85 Q204.4 85.65 200.75 88.0 196.95 90.5 195.8 90.05 195.1 89.0 194.4 88.45 L191.0 85.15 190.2 83.6 189.45 82.05 Q188.95 81.45 182.9 79.0 178.4 77.2 176.85 75.35 M192.7 83.0 L194.75 84.8 197.2 87.15 Q199.65 85.6 204.35 83.85 208.35 82.35 212.15 81.3 214.0 80.35 219.55 78.75 221.7 77.95 222.55 76.95 L220.15 75.85 Q216.85 74.2 215.4 74.15 213.45 74.2 206.25 77.45 199.5 80.6 198.4 80.2 L187.35 77.5 181.8 75.9 186.25 77.9 Q191.15 79.95 192.1 81.05 L192.45 82.05 Q192.4 82.6 192.7 83.0 M-45.45 57.05 L-48.5 58.45 -59.3 65.1 -56.35 71.85 -55.75 73.15 -54.15 75.95 -53.95 73.35 -54.1 70.35 Q-54.05 68.1 -53.6 67.65 -48.25 65.1 -47.8 64.6 -47.5 64.3 -45.95 58.9 L-45.45 57.05 M-43.9 56.5 Q-44.6 58.05 -45.1 60.4 -46.2 64.8 -46.65 65.3 L-52.35 68.65 Q-52.75 69.05 -52.6 77.85 -51.7 77.1 -50.7 75.75 L-48.25 72.65 Q-45.1 69.4 -40.3 71.15 L-41.75 63.75 Q-42.55 60.25 -43.45 57.3 L-43.9 56.5 M196.6 70.35 L181.85 74.4 198.45 78.5 Q200.0 78.85 207.1 75.45 214.0 72.1 215.05 72.35 L220.4 74.4 222.95 75.5 222.75 74.7 Q220.15 69.7 217.55 63.65 209.65 66.65 196.6 70.35 M-203.25 89.75 Q-203.7 87.0 -203.0 80.55 -202.1 73.45 -200.7 72.6 L-195.1 69.95 -191.0 68.25 Q-189.3 67.65 -188.9 67.6 -187.75 67.35 -187.1 67.9 L-187.2 68.35 Q-184.2 70.3 -178.0 75.2 L-177.4 75.65 -177.3 75.6 -177.1 75.55 -176.95 75.65 -176.85 75.9 -176.85 76.1 -176.8 76.15 -175.95 79.45 -176.0 79.45 -173.65 86.85 Q-173.3 87.9 -173.6 88.0 L-174.1 88.05 -174.1 88.1 -174.5 88.55 -174.8 88.55 Q-178.4 91.05 -187.45 95.0 L-188.95 95.2 -189.4 94.45 Q-189.65 93.8 -189.2 91.7 -188.65 89.35 -189.1 87.15 L-191.5 87.0 -192.5 87.05 -195.6 88.3 -198.05 89.15 -199.15 89.35 -203.3 90.3 -203.25 89.75 M-40.55 73.8 L-43.9 73.25 Q-44.9 73.05 -45.8 74.05 L-47.25 75.9 -51.6 81.6 Q-52.95 83.05 -54.1 81.5 L-57.95 74.75 -61.3 68.85 Q-63.65 64.3 -62.6 63.2 -58.05 60.2 -53.2 57.45 -43.5 51.95 -42.0 53.35 -40.7 54.55 -39.0 64.0 -37.4 73.0 -37.85 73.5 -38.4 74.1 -40.55 73.8 M-175.75 84.65 L-176.8 80.65 -177.45 78.3 -181.95 74.65 -187.5 69.55 -188.55 74.15 -189.9 78.75 -189.7 78.8 -189.75 78.9 -185.4 80.05 Q-180.35 81.25 -180.15 81.85 L-180.15 82.1 -175.9 85.6 -176.0 84.65 -175.65 84.9 -175.75 84.65 M-201.4 86.85 L-201.35 87.1 -195.5 82.2 -190.55 78.45 -190.15 77.1 -189.15 74.3 -188.2 69.95 -189.25 70.05 -190.05 70.45 -189.95 70.4 -191.9 71.05 -200.05 74.5 Q-200.05 75.3 -201.0 82.5 L-201.6 86.85 -201.65 87.1 -201.4 86.85 M-186.75 92.3 Q-184.5 91.9 -180.95 89.8 -178.45 88.25 -176.75 87.5 L-176.55 87.45 -175.6 87.0 -175.55 86.75 -176.0 86.6 -175.95 86.4 -178.65 84.2 -180.65 82.3 Q-181.8 81.75 -183.35 81.3 L-185.95 80.5 -189.2 79.6 -190.15 79.3 -190.25 79.4 -190.3 79.45 Q-191.7 80.35 -194.35 82.35 L-195.15 82.95 -197.1 84.6 -199.85 87.15 -200.5 87.8 -199.3 87.7 Q-198.9 87.55 -197.4 86.4 L-196.35 86.0 -196.55 85.65 -196.0 85.25 -193.0 84.9 -190.25 84.75 Q-186.8 84.7 -186.4 85.9 L-186.75 87.85 Q-187.25 89.85 -187.0 92.35 L-187.0 92.4 -186.75 92.3 M-245.2 110.2 L-243.05 105.4 -242.05 103.05 -241.8 102.9 -241.2 102.8 -240.2 102.35 Q-239.4 101.15 -234.25 100.8 -231.5 100.65 -225.75 100.75 L-216.45 100.1 -209.25 99.55 -208.75 99.65 -208.0 99.7 -207.05 99.8 -206.4 100.0 -206.15 100.25 -206.1 100.2 -205.7 99.75 -205.5 99.8 -192.7 106.3 -188.15 108.45 -189.8 109.35 -191.4 109.5 -195.55 109.45 -197.75 109.45 -200.2 109.4 -203.6 109.2 -203.75 109.05 -203.75 108.9 -203.2 108.55 Q-204.5 107.85 -205.65 107.45 L-206.7 107.0 -207.9 109.05 -208.3 109.6 -208.35 109.7 -208.4 109.75 -207.45 110.05 -207.85 110.05 -209.15 110.0 -210.05 110.0 -210.15 109.95 -210.35 109.9 -210.2 109.9 Q-211.7 108.8 -214.1 108.1 L-214.25 108.05 -215.3 107.7 -215.25 108.1 -215.35 108.05 Q-216.1 108.5 -219.25 110.65 L-223.25 113.65 -226.85 116.8 Q-228.1 118.0 -229.35 118.45 L-230.1 118.65 -230.3 118.8 -230.6 118.65 -231.1 118.6 -231.25 118.45 -231.3 118.3 -238.25 115.2 Q-239.6 114.05 -241.6 112.7 L-245.2 110.2 M-200.85 107.95 L-200.25 107.8 -199.1 107.55 -194.4 107.7 -197.4 106.0 -204.9 101.8 -206.05 100.9 -206.2 101.05 -208.2 101.6 -210.25 101.9 -224.5 103.15 -238.05 103.95 Q-239.05 105.5 -241.05 109.6 L-231.05 108.05 -223.35 107.15 -218.9 106.45 -216.5 106.15 -216.0 105.75 Q-215.5 105.65 -214.25 106.2 L-213.35 106.7 -212.85 106.9 -209.5 107.9 -209.15 107.9 -208.65 107.1 -208.15 106.4 -208.15 106.1 Q-208.0 105.8 -207.0 105.35 L-206.8 105.3 -206.55 105.3 -206.55 105.35 -205.95 105.5 -203.1 107.25 Q-201.85 108.0 -200.85 107.95 M-218.25 107.2 L-220.2 107.5 -227.7 108.4 -231.35 108.8 -234.5 109.15 -235.55 109.35 -235.9 109.4 -239.3 110.25 -240.7 110.5 -238.55 111.6 -229.9 117.2 -228.7 116.35 -223.0 110.85 Q-220.15 108.25 -218.25 107.2" fill="#634019" fill-rule="evenodd" stroke="none"/>
    <path d="M162.5 33.75 L159.85 32.65 169.7 34.85 Q181.95 37.3 182.55 36.9 L184.65 33.75 189.4 33.4 191.9 33.15 Q192.45 33.2 192.9 32.85 L194.45 31.6 201.65 26.65 200.85 29.75 200.0 33.65 Q199.25 34.05 197.4 35.25 L189.55 41.25 188.55 42.05 182.65 40.55 171.55 37.4 162.5 33.75 M192.7 83.0 Q192.4 82.6 192.45 82.05 L192.1 81.05 Q191.15 79.95 186.25 77.9 L181.8 75.9 187.35 77.5 198.4 80.2 Q199.5 80.6 206.25 77.45 213.45 74.2 215.4 74.15 216.85 74.2 220.15 75.85 L222.55 76.95 Q221.7 77.95 219.55 78.75 214.0 80.35 212.15 81.3 208.35 82.35 204.35 83.85 199.65 85.6 197.2 87.15 L194.75 84.8 192.7 83.0 M-201.6 86.85 L-201.0 82.5 Q-200.05 75.3 -200.05 74.5 L-191.9 71.05 -189.95 70.4 -190.05 70.45 -189.25 70.05 -188.2 69.95 -189.15 74.3 -190.15 77.1 -190.55 78.45 -195.5 82.2 -201.35 87.1 -201.4 86.85 -201.6 86.85 M-187.0 92.35 Q-187.25 89.85 -186.75 87.85 L-186.4 85.9 Q-186.8 84.7 -190.25 84.75 L-193.0 84.9 -196.0 85.25 -196.55 85.65 -196.35 86.0 -197.4 86.4 Q-198.9 87.55 -199.3 87.7 L-200.5 87.8 -199.85 87.15 -197.1 84.6 -195.15 82.95 -194.35 82.35 Q-191.7 80.35 -190.3 79.45 L-190.25 79.4 -190.15 79.3 -189.2 79.6 -185.95 80.5 -183.35 81.3 Q-181.8 81.75 -180.65 82.3 L-178.65 84.2 -175.95 86.4 -176.0 86.6 -175.55 86.75 -175.6 87.0 -176.55 87.45 -176.75 87.5 Q-178.45 88.25 -180.95 89.8 -184.5 91.9 -186.75 92.3 L-187.0 92.35 M-218.25 107.2 Q-220.15 108.25 -223.0 110.85 L-228.7 116.35 -229.9 117.2 -238.55 111.6 -240.7 110.5 -239.3 110.25 -235.9 109.4 -235.55 109.35 -234.5 109.15 -231.35 108.8 -227.7 108.4 -220.2 107.5 -218.25 107.2" fill="#a08b6a" fill-rule="evenodd" stroke="none"/>
    <path d="M178.7 28.85 L178.0 26.9 192.6 24.3 Q201.55 22.9 202.1 25.3 L202.0 25.5 193.1 31.8 Q191.7 32.7 187.9 32.95 L184.4 33.05 182.3 36.25 176.65 35.6 169.4 34.1 163.15 32.9 159.7 32.05 166.85 31.6 178.2 30.5 Q179.0 30.0 178.7 28.85 M196.6 70.35 Q209.65 66.65 217.55 63.65 220.15 69.7 222.75 74.7 L222.95 75.5 220.4 74.4 215.05 72.35 Q214.0 72.1 207.1 75.45 200.0 78.85 198.45 78.5 L181.85 74.4 196.6 70.35 M-43.9 56.5 L-43.45 57.3 Q-42.55 60.25 -41.75 63.75 L-40.3 71.15 Q-45.1 69.4 -48.25 72.65 L-50.7 75.75 Q-51.7 77.1 -52.6 77.85 -52.75 69.05 -52.35 68.65 L-46.65 65.3 Q-46.2 64.8 -45.1 60.4 -44.6 58.05 -43.9 56.5 M-45.45 57.05 L-45.95 58.9 Q-47.5 64.3 -47.8 64.6 -48.25 65.1 -53.6 67.65 -54.05 68.1 -54.1 70.35 L-53.95 73.35 -54.15 75.95 -55.75 73.15 -56.35 71.85 -59.3 65.1 -48.5 58.45 -45.45 57.05 M-176.0 84.65 L-175.9 85.6 -180.15 82.1 -180.15 81.85 Q-180.35 81.25 -185.4 80.05 L-189.75 78.9 -189.7 78.8 -189.9 78.75 -188.55 74.15 -187.5 69.55 -181.95 74.65 -177.45 78.3 -176.8 80.65 -175.75 84.65 -176.0 84.65 M-200.85 107.95 Q-201.85 108.0 -203.1 107.25 L-205.95 105.5 -206.55 105.35 -206.55 105.3 -206.8 105.3 -207.0 105.35 Q-208.0 105.8 -208.15 106.1 L-208.15 106.4 -208.65 107.1 -209.15 107.9 -209.5 107.9 -212.85 106.9 -213.35 106.7 -214.25 106.2 Q-215.5 105.65 -216.0 105.75 L-216.5 106.15 -218.9 106.45 -223.35 107.15 -231.05 108.05 -241.05 109.6 Q-239.05 105.5 -238.05 103.95 L-224.5 103.15 -210.25 101.9 -208.2 101.6 -206.2 101.05 -206.05 100.9 -204.9 101.8 -197.4 106.0 -194.4 107.7 -199.1 107.55 -200.25 107.8 -200.85 107.95" fill="#815f2d" fill-rule="evenodd" stroke="none"/>
    <path d="M50.95 -71.55 L51.65 -71.35 51.8 -70.95 Q51.2 -69.1 48.25 -66.4 L43.55 -62.2 44.45 -61.6 45.5 -60.85 Q43.9 -59.4 39.7 -57.4 34.25 -54.8 34.25 -57.5 L36.0 -63.4 Q37.95 -69.2 39.0 -69.2 L39.8 -68.3 Q40.55 -67.4 41.4 -67.4 43.25 -67.4 47.15 -69.45 L50.95 -71.55 M45.05 -65.5 Q48.5 -68.1 48.9 -69.0 L46.55 -67.3 Q44.35 -65.9 41.35 -65.9 40.65 -65.9 39.2 -66.8 L36.2 -58.35 39.65 -59.5 42.85 -60.7 Q42.15 -60.85 42.0 -61.25 L41.95 -62.0 Q41.95 -63.15 45.05 -65.5 M76.95 -50.3 Q76.95 -51.0 78.65 -52.3 81.0 -54.1 84.35 -54.1 86.0 -54.1 89.9 -51.15 93.75 -48.2 93.75 -47.15 L93.6 -46.25 93.4 -46.05 Q89.55 -45.45 83.1 -47.4 76.95 -49.25 76.95 -50.3 M89.95 -48.2 L88.25 -50.3 Q87.05 -51.45 85.7 -51.85 L85.05 -50.45 84.25 -49.2 84.65 -49.05 Q87.6 -47.95 89.95 -48.0 L90.15 -48.0 89.95 -48.2 M84.15 -52.1 L81.1 -51.65 80.0 -50.7 83.8 -49.35 84.1 -50.1 84.8 -51.2 85.1 -52.0 84.15 -52.1 M198.85 -0.9 L200.35 -1.25 Q201.8 -1.55 203.05 -2.1 L204.05 -2.4 206.5 -2.5 209.35 -2.2 215.8 -1.35 Q220.85 -0.8 222.05 -2.1 L223.6 -7.15 Q225.25 -12.25 226.0 -13.05 226.85 -13.95 231.4 -14.15 L237.65 -14.55 Q242.65 -14.6 243.05 -17.25 L235.0 -19.5 Q227.35 -21.7 226.4 -20.7 L226.3 -18.9 Q226.4 -17.25 226.0 -16.85 225.55 -16.35 222.25 -15.15 L217.8 -13.3 213.15 -10.95 210.25 -10.0 211.4 -8.35 Q212.05 -7.35 211.6 -6.75 L206.0 -4.45 198.85 -0.9 M196.6 -1.3 Q198.95 -2.4 201.95 -3.85 207.05 -6.4 210.6 -7.65 L210.6 -7.7 209.55 -8.65 Q209.0 -9.45 209.5 -10.05 L209.1 -10.1 209.25 -10.65 217.6 -14.3 Q224.55 -17.4 224.9 -17.8 225.35 -18.25 225.2 -19.9 L225.2 -21.75 Q226.25 -22.9 230.8 -21.75 L236.4 -20.05 242.05 -18.7 242.95 -18.45 Q242.65 -19.75 241.55 -21.75 239.7 -25.4 236.8 -29.35 L231.3 -36.25 Q218.0 -23.35 210.45 -18.65 204.15 -15.5 200.15 -12.25 L204.85 -7.8 204.1 -6.4 Q203.65 -5.9 201.0 -4.55 198.7 -3.4 196.6 -1.3 M50.15 110.05 L50.25 109.95 50.4 110.15 Q51.75 110.65 54.95 112.95 L56.75 114.3 56.9 113.1 57.15 113.1 57.35 113.15 57.55 114.3 57.7 113.65 59.9 116.95 60.6 117.6 60.45 117.75 63.45 122.3 68.1 127.65 71.5 131.35 71.5 131.75 71.7 131.9 71.4 132.15 71.35 132.15 71.15 132.2 70.85 132.15 70.75 132.2 69.5 132.15 Q68.65 131.7 67.9 131.55 L65.85 131.1 61.4 129.9 58.45 129.25 Q57.1 128.85 56.75 127.8 L56.15 125.65 Q49.25 114.25 49.25 110.3 L49.3 110.05 49.35 110.1 49.7 109.95 50.15 110.05 M197.05 -12.15 L198.35 -13.95 Q200.3 -16.05 211.25 -22.2 223.85 -30.5 229.45 -36.65 L231.4 -38.8 Q231.8 -39.1 232.6 -38.35 235.0 -36.1 243.8 -21.95 245.2 -20.1 245.85 -18.55 245.7 -17.6 246.15 -16.45 245.9 -13.4 240.25 -12.45 L232.4 -11.85 Q228.2 -11.6 227.6 -11.0 L227.45 -10.8 227.45 -9.35 227.0 -5.9 225.5 -1.9 Q224.75 -0.7 224.95 -0.15 L225.25 1.1 224.4 1.05 224.2 1.55 223.55 2.3 220.0 1.5 214.4 0.75 209.6 0.4 206.0 -0.15 205.5 0.0 200.4 0.8 195.15 1.65 190.5 1.95 190.65 1.25 190.95 0.65 191.85 0.25 195.6 -3.75 199.1 -5.95 201.3 -7.45 Q200.35 -9.1 197.05 -12.15 M58.35 125.7 L57.95 122.3 57.4 119.25 56.9 116.5 56.9 116.15 56.55 116.1 56.45 116.1 51.85 112.6 52.4 113.9 54.05 118.05 55.1 120.15 Q55.15 121.15 55.8 122.2 L57.15 123.9 57.25 124.1 57.25 124.0 57.6 124.4 58.25 125.7 58.4 126.0 58.35 125.7 M58.0 116.95 L58.4 119.55 59.3 126.65 60.1 126.7 63.35 128.15 Q66.35 129.55 67.05 129.75 L63.25 124.7 61.35 122.35 Q59.4 118.4 58.0 116.95 M-122.85 -50.35 Q-122.15 -53.35 -121.6 -54.1 -120.1 -53.3 -118.35 -51.5 L-115.2 -48.65 -110.55 -45.7 Q-106.7 -43.2 -106.7 -42.65 -106.7 -42.0 -105.65 -40.95 -104.65 -39.95 -104.65 -39.45 -104.65 -38.9 -104.8 -38.9 L-104.95 -38.95 Q-109.25 -39.85 -116.35 -42.7 -123.7 -45.7 -125.25 -47.3 -123.4 -48.1 -122.85 -50.35 M-8.25 -64.2 Q-5.85 -67.35 -6.05 -69.5 L-11.45 -70.0 -11.45 -69.85 -11.7 -59.4 -8.25 -64.2 M-121.9 -48.9 Q-122.25 -48.4 -122.25 -47.5 -122.25 -46.85 -118.25 -45.6 L-112.9 -43.95 -116.6 -47.3 -120.6 -50.6 -121.9 -48.9 M-6.65 -71.1 L-6.1 -71.05 -4.5 -70.95 -4.4 -70.25 Q-4.4 -68.0 -7.8 -62.25 -11.05 -56.85 -12.65 -55.65 -13.9 -56.95 -14.4 -66.1 -14.4 -66.75 -13.85 -67.55 -13.35 -68.35 -13.35 -69.1 L-13.5 -71.35 -13.45 -72.05 -11.6 -71.8 Q-10.8 -71.1 -7.7 -71.1 L-6.65 -71.1 M-62.7 -41.6 L-68.25 -41.45 Q-71.8 -41.55 -73.55 -42.75 -74.9 -43.7 -74.9 -44.95 L-74.5 -48.05 Q-73.9 -51.0 -72.5 -51.0 -70.4 -51.0 -65.4 -47.1 -60.7 -43.5 -60.7 -43.0 -60.7 -42.35 -62.7 -41.6 M-69.4 -45.05 L-67.8 -43.1 -63.35 -43.45 -71.8 -48.7 Q-70.95 -47.0 -69.4 -45.05 M-68.4 -43.15 Q-69.4 -44.1 -70.65 -45.8 L-72.45 -48.5 -72.6 -48.45 -72.95 -46.6 -73.2 -44.95 Q-73.2 -44.15 -70.3 -43.45 L-68.4 -43.15 M-19.75 119.0 L-19.1 118.8 Q-17.95 120.7 -15.0 130.55 -12.0 140.55 -12.0 142.85 -12.0 143.55 -14.9 146.55 -17.25 149.05 -19.0 149.5 L-19.05 149.75 Q-20.1 150.15 -24.55 147.0 -28.95 143.85 -28.95 142.75 -27.35 137.25 -25.35 131.8 -21.7 121.9 -19.85 121.1 L-20.0 119.85 -19.75 119.0 M-20.85 126.9 L-24.15 134.1 Q-27.15 141.1 -27.15 142.55 -27.15 143.0 -24.5 144.95 -22.45 146.45 -21.15 147.0 L-20.25 147.35 -19.9 147.45 -19.95 147.05 -20.2 144.5 -20.15 143.3 -20.3 141.8 Q-20.85 137.75 -20.85 134.6 L-20.55 129.5 -20.3 125.45 Q-20.85 125.75 -20.85 126.7 L-20.85 126.9 M-18.15 126.7 Q-18.15 125.3 -19.35 125.2 L-19.85 130.85 -19.65 139.7 -19.5 144.1 -19.5 144.55 -19.25 147.45 Q-18.55 147.3 -18.3 146.55 L-17.1 145.5 -13.8 142.55 Q-13.8 142.2 -15.15 137.45 L-16.9 131.35 -18.2 127.25 -18.15 126.7 M-74.9 127.85 L-73.8 125.3 Q-72.35 122.25 -71.55 122.25 L-71.0 122.3 -71.1 122.5 -70.9 122.55 -70.9 123.0 Q-70.9 128.35 -70.4 131.1 -69.9 133.9 -69.9 136.8 L-69.4 137.95 -68.9 139.1 Q-68.9 139.95 -71.55 142.2 -73.4 143.75 -74.65 144.25 L-74.75 144.4 -75.05 144.4 -75.7 144.5 -75.85 143.8 -78.8 140.75 -80.15 138.7 -80.55 137.15 -80.55 136.95 -80.35 136.65 -77.6 132.05 -74.9 127.9 -74.9 127.85 M-75.5 132.5 L-75.8 133.0 -77.85 136.45 -77.8 136.85 -76.2 140.3 -75.4 141.85 Q-74.8 141.0 -73.55 140.05 L-71.25 138.1 Q-71.25 136.65 -72.3 133.3 L-73.5 129.1 -75.5 132.5" fill="#634019" fill-rule="evenodd" stroke="none"/>
    <path d="M45.05 -65.5 Q41.95 -63.15 41.95 -62.0 L42.0 -61.25 Q42.15 -60.85 42.85 -60.7 L39.65 -59.5 36.2 -58.35 39.2 -66.8 Q40.65 -65.9 41.35 -65.9 44.35 -65.9 46.55 -67.3 L48.9 -69.0 Q48.5 -68.1 45.05 -65.5 M89.95 -48.0 Q87.6 -47.95 84.65 -49.05 L84.25 -49.2 85.05 -50.45 85.7 -51.85 Q87.05 -51.45 88.25 -50.3 L89.95 -48.2 89.95 -48.0 M84.15 -52.1 L85.1 -52.0 84.8 -51.2 84.1 -50.1 83.8 -49.35 80.0 -50.7 81.1 -51.65 84.15 -52.1 M196.6 -1.3 Q198.7 -3.4 201.0 -4.55 203.65 -5.9 204.1 -6.4 L204.85 -7.8 200.15 -12.25 Q204.15 -15.5 210.45 -18.65 218.0 -23.35 231.3 -36.25 L236.8 -29.35 Q239.7 -25.4 241.55 -21.75 242.65 -19.75 242.95 -18.45 L242.05 -18.7 236.4 -20.05 230.8 -21.75 Q226.25 -22.9 225.2 -21.75 L225.2 -19.9 Q225.35 -18.25 224.9 -17.8 224.55 -17.4 217.6 -14.3 L209.25 -10.65 209.1 -10.1 209.5 -10.05 Q209.0 -9.45 209.55 -8.65 L210.6 -7.7 210.6 -7.65 Q207.05 -6.4 201.95 -3.85 198.95 -2.4 196.6 -1.3 M57.15 123.9 L55.8 122.2 Q55.15 121.15 55.1 120.15 L54.05 118.05 52.4 113.9 51.85 112.6 56.45 116.1 56.55 116.1 56.9 116.15 56.9 116.5 57.4 119.25 57.95 122.3 58.35 125.7 58.25 125.7 57.6 124.4 57.25 124.0 57.15 123.9 M58.0 116.95 Q59.4 118.4 61.35 122.35 L63.25 124.7 67.05 129.75 Q66.35 129.55 63.35 128.15 L60.1 126.7 59.3 126.65 58.4 119.55 58.0 116.95 M-121.9 -48.9 L-120.6 -50.6 -116.6 -47.3 -112.9 -43.95 -118.25 -45.6 Q-122.25 -46.85 -122.25 -47.5 -122.25 -48.4 -121.9 -48.9 M-8.25 -64.2 L-11.7 -59.4 -11.45 -69.85 -11.45 -70.0 -6.05 -69.5 Q-5.85 -67.35 -8.25 -64.2 M-68.4 -43.15 L-70.3 -43.45 Q-73.2 -44.15 -73.2 -44.95 L-72.95 -46.6 -72.6 -48.45 -72.45 -48.5 -70.65 -45.8 Q-69.4 -44.1 -68.4 -43.15 M-69.4 -45.05 Q-70.95 -47.0 -71.8 -48.7 L-63.35 -43.45 -67.8 -43.1 -69.4 -45.05 M-20.85 126.9 L-20.85 126.7 Q-20.85 125.75 -20.3 125.45 L-20.55 129.5 -20.85 134.6 Q-20.85 137.75 -20.3 141.8 L-20.15 143.3 -20.2 144.5 -19.95 147.05 -19.9 147.45 -20.25 147.35 -21.15 147.0 Q-22.45 146.45 -24.5 144.95 -27.15 143.0 -27.15 142.55 -27.15 141.1 -24.15 134.1 L-20.85 126.9 M-74.9 127.85 L-74.9 127.9 -77.6 132.05 -80.35 136.65 Q-79.4 134.15 -77.0 130.65 L-74.9 127.85 M-80.55 137.15 L-80.15 138.7 -80.9 138.35 -80.55 137.15 M-75.5 132.5 L-73.5 129.1 -72.3 133.3 Q-71.25 136.65 -71.25 138.1 L-73.55 140.05 Q-74.8 141.0 -75.4 141.85 L-76.2 140.3 -77.8 136.85 -77.85 136.45 -75.8 133.0 -75.5 132.5" fill="#815f2d" fill-rule="evenodd" stroke="none"/>
    <path d="M198.85 -0.9 L206.0 -4.45 211.6 -6.75 Q212.05 -7.35 211.4 -8.35 L210.25 -10.0 213.15 -10.95 217.8 -13.3 222.25 -15.15 Q225.55 -16.35 226.0 -16.85 226.4 -17.25 226.3 -18.9 L226.4 -20.7 Q227.35 -21.7 235.0 -19.5 L243.05 -17.25 Q242.65 -14.6 237.65 -14.55 L231.4 -14.15 Q226.85 -13.95 226.0 -13.05 225.25 -12.25 223.6 -7.15 L222.05 -2.1 Q220.85 -0.8 215.8 -1.35 L209.35 -2.2 206.5 -2.5 204.05 -2.4 203.05 -2.1 Q201.8 -1.55 200.35 -1.25 L198.85 -0.9 M-18.15 126.7 L-18.2 127.25 -16.9 131.35 -15.15 137.45 Q-13.8 142.2 -13.8 142.55 L-17.1 145.5 -18.3 146.55 Q-18.55 147.3 -19.25 147.45 L-19.5 144.55 -19.5 144.1 -19.65 139.7 -19.85 130.85 -19.35 125.2 Q-18.15 125.3 -18.15 126.7" fill="#a08b6a" fill-rule="evenodd" stroke="none"/>
    <path d="M143.35 -85.25 Q148.75 -81.0 149.5 -80.9 L157.85 -85.1 Q166.4 -89.3 168.0 -89.1 169.85 -88.9 174.05 -86.7 L177.05 -85.05 177.2 -85.05 Q178.35 -84.95 177.8 -84.7 L177.85 -84.6 178.25 -84.4 Q181.7 -83.1 189.45 -80.95 192.95 -79.95 192.75 -78.35 192.65 -77.7 179.15 -70.3 164.25 -62.2 160.85 -59.55 L157.55 -56.55 154.3 -53.45 Q151.45 -49.2 146.8 -50.45 L139.5 -53.65 125.7 -58.25 Q121.55 -59.7 119.1 -60.8 117.1 -57.9 110.25 -73.85 L127.0 -85.9 129.65 -87.75 131.25 -88.85 131.5 -88.8 Q133.9 -90.0 135.1 -89.85 137.9 -89.55 143.35 -85.25 M149.95 -70.45 Q167.75 -80.6 174.0 -83.7 169.75 -85.65 167.7 -85.85 167.15 -85.95 158.45 -81.7 149.65 -77.55 149.15 -77.6 148.2 -77.7 142.7 -81.9 137.15 -86.2 134.6 -86.5 133.1 -86.65 131.4 -85.25 130.0 -84.1 128.9 -84.0 L123.2 -79.9 113.85 -73.05 Q113.75 -72.05 116.75 -67.6 L117.9 -65.85 119.85 -68.15 Q122.3 -71.15 123.05 -72.95 126.3 -80.8 128.7 -80.5 145.05 -72.9 149.85 -70.3 L149.9 -70.3 149.95 -70.45 M128.7 -78.5 Q127.95 -78.6 126.1 -75.25 L123.7 -70.35 121.15 -66.35 Q120.55 -65.4 119.0 -64.85 L118.7 -64.75 119.0 -64.25 Q121.0 -63.8 125.05 -62.2 127.95 -61.05 132.0 -59.45 L138.5 -56.7 Q144.1 -54.55 149.95 -53.85 L156.25 -59.4 Q163.1 -65.4 165.75 -67.1 168.75 -69.0 176.2 -72.85 184.0 -76.8 185.7 -77.8 L177.4 -82.05 176.55 -82.5 Q175.1 -81.45 172.4 -80.15 L164.9 -76.55 Q163.55 -75.95 156.35 -71.8 153.15 -69.9 151.25 -69.5 L151.95 -69.0 151.7 -68.25 151.6 -68.35 150.6 -68.3 Q149.45 -68.4 139.6 -73.2 L133.15 -76.5 Q129.6 -78.4 128.7 -78.5 M-203.2 -32.85 L-203.15 -33.1 -201.0 -33.35 Q-199.8 -33.45 -196.35 -32.25 L-194.7 -31.85 -194.15 -31.65 -190.15 -30.7 -174.1 -29.25 -165.75 -28.5 -159.55 -28.6 -156.3 -29.25 Q-154.3 -29.65 -153.7 -28.6 -153.4 -28.1 -153.2 -26.95 L-152.8 -25.15 -150.95 -21.95 -148.95 -18.95 -147.65 -16.85 -142.75 -10.8 -138.95 -6.1 -138.9 -6.15 -136.9 -6.1 Q-136.1 -5.95 -136.05 -4.85 -136.0 -1.2 -144.6 4.35 -148.95 7.15 -154.1 9.7 -157.75 12.7 -160.65 10.65 L-164.2 7.0 Q-166.2 5.55 -170.65 2.9 L-175.25 -0.15 Q-176.7 -1.35 -178.55 -1.7 L-180.15 -2.0 -180.7 -2.0 -186.6 -1.0 Q-195.35 1.15 -199.65 -1.25 L-199.85 -5.8 -200.15 -14.4 Q-200.15 -15.4 -201.7 -23.15 L-203.3 -31.95 -203.2 -32.85 M-166.95 -25.4 L-176.25 -25.95 -183.4 -26.1 -186.95 -26.85 -189.9 -27.45 Q-193.15 -27.9 -195.85 -28.8 L-197.05 -29.2 -195.65 -26.95 -191.75 -21.25 -185.85 -14.55 -182.7 -11.0 Q-180.05 -11.55 -174.95 -13.0 -169.1 -14.75 -168.0 -14.75 -165.65 -14.85 -160.2 -12.15 L-153.65 -8.85 -145.65 -5.7 -141.45 -4.05 -141.4 -4.2 Q-142.3 -5.85 -145.95 -10.45 L-153.15 -19.5 -155.45 -23.55 -155.5 -23.8 Q-156.1 -24.45 -156.3 -25.05 L-156.7 -25.75 -159.05 -25.8 Q-161.85 -24.6 -166.95 -25.4 M-198.6 -27.55 L-198.5 -25.4 -197.9 -21.15 -196.65 -14.5 Q-195.55 -8.3 -195.35 -4.85 L-188.1 -4.7 -181.15 -4.75 -176.75 -4.05 -175.5 -3.75 Q-166.75 -1.95 -157.7 7.05 L-156.45 7.15 -154.3 6.0 Q-150.15 3.45 -148.9 2.95 -147.75 2.6 -145.25 0.9 -143.4 -0.9 -142.2 -2.8 -146.8 -4.15 -155.4 -7.75 L-168.2 -12.85 Q-169.2 -12.8 -173.1 -11.05 -177.0 -9.35 -181.45 -9.15 -181.45 -8.55 -181.65 -8.4 L-182.3 -8.2 -183.1 -9.1 -183.3 -9.1 Q-184.05 -9.2 -184.1 -9.95 L-184.1 -10.15 -191.5 -18.55 Q-196.3 -24.2 -198.6 -27.55 M-63.15 -113.5 L-63.15 -113.55 -63.35 -113.7 -63.35 -113.3 Q-61.85 -107.95 -61.5 -102.35 -61.35 -99.85 -61.35 -91.25 L-61.35 -85.75 Q-61.35 -84.25 -62.1 -82.6 -62.85 -80.95 -62.85 -80.1 -62.85 -79.05 -58.45 -77.25 L-53.5 -75.45 Q-56.0 -81.15 -57.55 -95.55 -52.9 -103.35 -52.55 -103.35 L-52.3 -103.35 Q-51.75 -103.3 -51.6 -103.05 L-51.4 -102.55 -54.05 -98.5 Q-55.7 -95.9 -55.7 -95.25 L-52.4 -77.9 -47.7 -89.35 Q-44.75 -96.2 -44.75 -96.6 L-51.1 -102.65 -51.5 -103.0 -52.1 -103.55 -52.25 -103.7 -63.15 -113.5 M-67.25 -113.15 Q-68.9 -118.1 -68.9 -120.3 L-68.65 -121.8 -67.1 -122.05 -61.2 -116.55 -54.45 -109.75 Q-53.35 -108.5 -46.85 -102.8 L-40.75 -97.3 Q-40.75 -95.75 -43.5 -91.4 -46.7 -86.35 -48.0 -79.6 L-49.8 -74.85 Q-50.95 -71.95 -53.15 -72.05 -56.45 -72.2 -61.25 -74.75 -66.35 -77.45 -66.35 -79.45 L-65.35 -82.2 Q-64.35 -84.5 -64.35 -85.25 L-64.35 -91.3 -65.35 -105.6 Q-65.5 -107.95 -67.25 -113.15" fill="#634019" fill-rule="evenodd" stroke="none"/>
    <path d="M128.7 -78.5 Q129.6 -78.4 133.15 -76.5 L139.6 -73.2 Q149.45 -68.4 150.6 -68.3 L151.6 -68.35 151.7 -68.25 151.95 -69.0 151.25 -69.5 Q153.15 -69.9 156.35 -71.8 163.55 -75.95 164.9 -76.55 L172.4 -80.15 Q175.1 -81.45 176.55 -82.5 L177.4 -82.05 185.7 -77.8 Q184.0 -76.8 176.2 -72.85 168.75 -69.0 165.75 -67.1 163.1 -65.4 156.25 -59.4 L149.95 -53.85 Q144.1 -54.55 138.5 -56.7 L132.0 -59.45 Q127.95 -61.05 125.05 -62.2 121.0 -63.8 119.0 -64.25 L118.7 -64.75 119.0 -64.85 Q120.55 -65.4 121.15 -66.35 L123.7 -70.35 126.1 -75.25 Q127.95 -78.6 128.7 -78.5 M-198.6 -27.55 Q-196.3 -24.2 -191.5 -18.55 L-184.1 -10.15 -184.1 -9.95 Q-184.05 -9.2 -183.3 -9.1 L-183.1 -9.1 -182.3 -8.2 -181.65 -8.4 Q-181.45 -8.55 -181.45 -9.15 -177.0 -9.35 -173.1 -11.05 -169.2 -12.8 -168.2 -12.85 L-155.4 -7.75 Q-146.8 -4.15 -142.2 -2.8 -143.4 -0.9 -145.25 0.9 -147.75 2.6 -148.9 2.95 -150.15 3.45 -154.3 6.0 L-156.45 7.15 -157.7 7.05 Q-166.75 -1.95 -175.5 -3.75 L-176.75 -4.05 -181.15 -4.75 -188.1 -4.7 -195.35 -4.85 Q-195.55 -8.3 -196.65 -14.5 L-197.9 -21.15 -198.5 -25.4 -198.6 -27.55 M-51.1 -102.65 L-44.75 -96.6 Q-44.75 -96.2 -47.7 -89.35 L-52.4 -77.9 -55.7 -95.25 Q-55.7 -95.9 -54.05 -98.5 L-51.4 -102.55 -51.1 -102.65" fill="#a08b6a" fill-rule="evenodd" stroke="none"/>
    <path d="M149.85 -70.3 Q145.05 -72.9 128.7 -80.5 126.3 -80.8 123.05 -72.95 122.3 -71.15 119.85 -68.15 L117.9 -65.85 116.75 -67.6 Q113.75 -72.05 113.85 -73.05 L123.2 -79.9 128.9 -84.0 Q130.0 -84.1 131.4 -85.25 133.1 -86.65 134.6 -86.5 137.15 -86.2 142.7 -81.9 148.2 -77.7 149.15 -77.6 149.65 -77.55 158.45 -81.7 167.15 -85.95 167.7 -85.85 169.75 -85.65 174.0 -83.7 167.75 -80.6 149.95 -70.45 L149.85 -70.3 M-166.95 -25.4 Q-161.85 -24.6 -159.05 -25.8 L-156.7 -25.75 -156.3 -25.05 Q-156.1 -24.45 -155.5 -23.8 L-155.45 -23.55 -153.15 -19.5 -145.95 -10.45 Q-142.3 -5.85 -141.4 -4.2 L-141.45 -4.05 -145.65 -5.7 -153.65 -8.85 -160.2 -12.15 Q-165.65 -14.85 -168.0 -14.75 -169.1 -14.75 -174.95 -13.0 -180.05 -11.55 -182.7 -11.0 L-185.85 -14.55 -191.75 -21.25 -195.65 -26.95 -197.05 -29.2 -195.85 -28.8 Q-193.15 -27.9 -189.9 -27.45 L-186.95 -26.85 -183.4 -26.1 -176.25 -25.95 -166.95 -25.4 M-63.35 -113.3 L-63.15 -113.5 -52.25 -103.7 -52.3 -103.35 -52.55 -103.35 Q-52.9 -103.35 -57.55 -95.55 -56.0 -81.15 -53.5 -75.45 L-58.45 -77.25 Q-62.85 -79.05 -62.85 -80.1 -62.85 -80.95 -62.1 -82.6 -61.35 -84.25 -61.35 -85.75 L-61.35 -91.25 Q-61.35 -99.85 -61.5 -102.35 -61.85 -107.95 -63.35 -113.3" fill="#815f2d" fill-rule="evenodd" stroke="none"/>
    <path d="M136.9 119.55 L138.2 119.35 147.95 123.35 153.05 125.5 153.9 125.7 Q157.85 126.7 157.95 127.65 L159.3 128.35 158.9 129.2 157.4 128.9 156.45 130.2 154.65 132.4 Q152.85 133.65 150.5 132.1 148.0 130.1 147.0 129.6 142.8 127.5 139.75 124.8 137.25 122.6 136.95 121.2 L136.5 120.7 Q136.5 120.0 136.7 119.8 L136.9 119.55 M34.2 110.2 Q33.35 109.9 33.35 108.85 33.35 108.1 33.5 107.95 L33.6 107.75 35.05 107.5 Q36.8 107.5 36.8 108.85 L36.6 109.85 36.4 110.15 34.2 110.2 M37.25 102.85 Q37.5 102.05 38.75 102.05 39.5 102.05 39.8 102.4 L40.1 102.75 40.25 103.05 40.25 103.8 Q40.25 105.65 38.75 105.3 37.25 104.9 37.25 103.75 L37.25 102.85 M19.1 83.8 L19.1 82.85 Q19.35 82.0 20.6 82.0 21.45 82.0 24.7 87.95 27.55 88.5 30.75 93.7 33.85 98.8 33.85 100.85 33.85 103.85 31.95 103.75 30.25 103.7 27.7 101.35 21.7 95.85 21.55 90.55 19.1 86.2 19.1 83.8 M105.85 35.9 L105.75 35.0 105.8 34.35 Q106.1 33.5 107.1 33.5 108.05 33.5 108.7 33.95 109.4 34.4 109.4 34.95 109.4 36.5 107.6 36.85 L106.3 36.6 106.35 37.35 Q106.35 39.0 104.85 39.05 103.35 39.1 103.35 37.5 L103.4 36.7 Q103.7 35.6 105.0 35.6 105.55 35.6 105.85 35.9 M-171.8 139.4 Q-171.45 139.4 -170.95 139.75 L-170.3 140.35 Q-170.65 141.05 -171.3 141.35 -171.95 141.35 -172.75 140.0 L-171.8 139.4 M-173.9 142.05 L-174.0 142.25 -173.8 142.35 -173.75 143.1 Q-173.75 143.9 -174.0 144.1 L-174.75 144.3 -175.45 143.65 -175.75 142.5 -175.55 142.05 -174.75 141.85 -173.9 142.05 M-252.4 19.3 L-252.0 20.15 Q-251.95 21.05 -253.1 21.85 -254.1 22.55 -255.1 22.55 L-255.35 19.3 -253.7 18.9 Q-252.7 18.9 -252.4 19.3 M-228.05 8.8 Q-228.45 8.4 -228.45 7.35 -228.45 6.35 -228.1 6.1 L-227.15 5.85 -226.2 6.3 -225.95 6.55 -225.85 7.6 Q-225.85 8.65 -226.2 8.85 L-227.15 9.15 -228.05 8.8 M-210.2 22.4 Q-209.35 21.6 -207.55 21.6 L-205.85 21.75 -205.2 21.9 -204.95 22.25 -204.9 23.2 Q-204.9 26.05 -210.65 25.15 L-210.8 24.8 -210.8 23.85 Q-210.8 22.95 -210.2 22.4 M-190.45 29.35 L-190.0 29.05 -188.55 28.8 Q-188.25 28.8 -186.5 30.2 -184.6 31.65 -184.6 32.15 -184.6 33.1 -184.9 33.35 L-185.25 33.7 Q-188.7 34.3 -189.9 32.9 -190.5 32.15 -190.5 30.55 L-190.45 29.35 M-90.75 54.1 Q-90.4 54.55 -90.4 55.0 -90.4 55.95 -91.8 56.35 -93.25 56.8 -93.25 55.45 L-93.0 54.7 Q-92.6 53.6 -91.75 53.6 -91.15 53.6 -90.75 54.1 M-98.4 44.6 L-98.25 45.3 Q-98.25 46.55 -99.3 46.55 -100.35 46.55 -100.35 45.4 L-100.2 44.85 Q-99.9 44.1 -99.15 44.1 -98.65 44.1 -98.4 44.6 M-95.3 41.3 Q-94.9 41.6 -94.9 42.05 -94.9 42.95 -95.95 43.05 -97.05 43.15 -97.05 42.15 -97.05 41.1 -96.0 41.1 L-95.3 41.3 M-121.3 47.1 Q-120.8 47.6 -120.8 48.2 -120.8 49.65 -122.65 49.85 -124.55 50.05 -124.55 48.6 L-124.35 47.5 Q-123.9 46.5 -122.8 46.5 -121.9 46.5 -121.3 47.1 M-114.35 45.55 Q-114.35 46.25 -116.15 46.95 -118.0 47.7 -118.0 46.1 -118.0 44.6 -115.55 44.6 L-114.8 44.85 Q-114.35 45.1 -114.35 45.55 M-87.6 3.4 Q-85.9 3.4 -85.9 4.8 -85.9 5.55 -86.05 5.8 L-86.25 6.1 -88.6 6.15 Q-89.3 5.9 -89.3 4.75 L-89.15 3.85 -89.05 3.65 -87.6 3.4 M-28.15 -39.35 L-28.9 -39.25 Q-30.35 -40.3 -30.35 -41.5 L-30.25 -42.45 -29.4 -42.65 -28.6 -41.55 -27.9 -40.25 Q-27.9 -39.45 -28.15 -39.35 M-5.85 -24.85 L-5.65 -25.95 -5.5 -26.35 -4.85 -26.8 -3.85 -27.0 Q-3.1 -27.0 -2.8 -26.65 L-2.5 -26.35 -2.4 -25.3 Q-2.4 -24.2 -3.15 -23.75 -4.0 -23.25 -5.6 -23.75 L-5.8 -24.1 -5.85 -24.85 M-2.9 -42.25 Q-0.5 -42.25 -0.5 -39.8 -0.5 -37.4 -2.9 -36.85 -5.35 -36.3 -5.35 -39.35 L-5.25 -40.85 Q-4.75 -42.25 -2.9 -42.25 M-74.4 -2.9 Q-74.5 -4.0 -73.05 -4.0 -71.6 -4.0 -71.6 -2.9 -71.6 -1.95 -73.0 -1.85 -74.4 -1.75 -74.4 -2.9 M-76.6 -5.25 Q-76.6 -3.9 -78.2 -4.25 -79.85 -4.65 -79.85 -5.9 -79.85 -7.55 -78.25 -7.55 -76.6 -7.55 -76.6 -5.25 M-73.85 -13.15 L-72.65 -14.25 Q-70.65 -13.0 -70.65 -12.3 -70.65 -11.55 -70.85 -11.3 L-71.05 -11.0 Q-73.3 -10.4 -73.9 -11.25 -74.1 -11.5 -74.1 -12.5 L-73.85 -13.15 M-33.8 -59.9 Q-33.8 -56.6 -35.35 -57.0 -36.75 -57.4 -38.7 -60.5 -43.6 -68.3 -43.6 -76.35 -43.6 -77.7 -42.65 -79.0 -40.6 -76.75 -37.05 -68.65 -33.8 -61.1 -33.8 -59.9 M-31.35 -51.2 Q-30.85 -50.25 -30.85 -49.75 -30.85 -48.95 -31.1 -48.75 L-31.85 -48.55 Q-32.45 -48.9 -33.1 -50.1 -33.8 -51.3 -33.8 -52.0 L-33.65 -52.85 -32.8 -53.0 -32.25 -52.75 -31.35 -51.2 M-87.3 -13.65 L-84.0 -12.5 Q-81.9 -11.8 -81.75 -10.9 L-81.85 -10.0 -82.0 -9.25 -81.25 -8.15 -80.65 -7.5 Q-80.65 -4.95 -84.8 -7.55 -87.0 -8.9 -90.05 -11.3 L-95.05 -14.3 Q-98.6 -16.6 -98.6 -17.55 -98.65 -18.75 -97.4 -18.75 -96.25 -18.75 -91.95 -16.35 L-87.3 -13.65 M-118.75 -11.4 L-118.7 -12.35 Q-118.3 -13.75 -116.55 -13.75 -114.85 -13.75 -114.85 -11.75 -114.85 -9.25 -116.8 -9.25 -118.75 -9.2 -118.75 -11.4 M-114.15 -6.25 L-112.9 -7.3 Q-111.9 -7.25 -111.2 -6.65 -110.5 -6.1 -110.5 -5.4 -110.5 -4.65 -110.65 -4.45 L-110.8 -4.1 Q-113.45 -3.45 -114.15 -4.35 -114.35 -4.6 -114.35 -5.6 L-114.15 -6.25 M-124.0 -6.55 L-122.5 -6.8 Q-121.7 -6.8 -121.0 -6.1 -120.25 -5.4 -120.25 -4.4 -120.25 -3.65 -120.4 -3.45 L-120.6 -3.15 -123.75 -3.2 Q-124.15 -3.5 -124.15 -4.9 L-124.0 -6.55 M73.45 -15.75 L73.25 -15.5 Q70.65 -14.6 70.65 -16.8 L72.1 -18.15 73.35 -17.65 73.6 -16.75 73.45 -15.75 M48.55 -19.85 Q48.55 -21.1 48.8 -21.3 L50.5 -21.55 52.25 -21.25 52.5 -19.75 Q52.5 -17.6 50.55 -17.7 48.55 -17.75 48.55 -19.85 M0.25 -51.5 L0.5 -50.6 0.3 -49.6 0.1 -49.3 Q-1.25 -48.85 -1.95 -49.5 -2.4 -49.95 -2.4 -50.65 L-2.15 -51.1 -0.9 -52.0 Q-0.3 -51.9 0.25 -51.5 M155.35 128.55 L155.4 128.45 155.2 128.35 Q150.25 127.05 144.2 124.6 L143.45 124.3 142.4 124.2 148.1 128.75 Q153.0 131.6 155.35 128.55" fill="#634019" fill-rule="evenodd" stroke="none"/>
    <path d="M155.2 128.35 L155.35 128.55 Q153.0 131.6 148.1 128.75 L142.4 124.2 143.45 124.3 144.2 124.6 Q150.25 127.05 155.2 128.35" fill="#a08b6a" fill-rule="evenodd" stroke="none"/>
    <path d="M-35.95 -37.45 Q-35.95 -38.5 -35.6 -38.85 L-34.65 -39.2 -33.75 -38.8 -32.95 -38.55 -32.75 -38.1 -32.7 -37.1 Q-32.7 -36.15 -33.0 -35.95 L-33.35 -35.65 Q-35.3 -35.0 -35.8 -35.9 L-35.95 -37.45 M-42.95 -5.35 Q-43.4 -5.95 -43.75 -7.6 L-43.2 -8.25 -41.8 -8.5 Q-41.0 -8.5 -40.2 -7.85 -39.45 -7.3 -39.25 -6.45 L-39.2 -6.5 Q-38.75 -6.5 -38.05 -6.0 L-37.25 -5.2 Q-37.65 -4.25 -38.55 -3.9 -39.1 -3.9 -39.7 -4.55 -41.95 -3.9 -42.95 -5.35 M-45.05 -18.75 L-44.85 -20.0 -44.65 -20.2 -43.1 -20.15 -42.65 -19.3 -42.45 -18.6 Q-42.45 -17.55 -42.8 -17.3 -43.0 -17.15 -43.75 -16.95 L-44.85 -17.1 -45.0 -17.65 -45.05 -18.75 M-71.3 -28.9 L-71.4 -27.6 -71.5 -27.1 Q-74.1 -26.1 -75.15 -27.55 -75.6 -28.15 -75.85 -29.95 L-75.15 -30.5 -73.6 -30.75 Q-72.25 -30.75 -71.75 -30.35 -71.3 -30.0 -71.3 -28.9 M-23.1 -53.8 Q-23.25 -53.8 -23.4 -53.95 -25.5 -53.75 -25.75 -53.95 -26.05 -54.15 -26.05 -56.05 L-25.9 -57.3 -24.75 -57.5 -23.55 -56.25 Q-22.8 -55.25 -22.8 -54.9 -22.8 -53.9 -23.1 -53.8 M-31.1 -86.85 L-30.85 -87.1 -29.4 -87.1 Q-28.35 -86.5 -28.1 -85.7 -28.35 -84.8 -29.4 -84.4 L-30.6 -84.5 Q-31.35 -84.65 -31.35 -85.7 L-31.1 -86.85 M-88.1 -51.2 L-87.75 -50.9 Q-87.8 -49.55 -89.05 -49.05 L-89.95 -49.9 Q-90.35 -50.45 -90.35 -50.9 L-89.05 -51.65 Q-88.55 -51.5 -88.1 -51.2 M-5.85 -108.1 Q-5.85 -107.15 -6.85 -106.4 -7.85 -105.7 -8.9 -105.7 L-9.05 -106.3 -9.1 -107.55 Q-9.1 -108.8 -8.9 -109.0 L-7.45 -109.25 Q-5.85 -109.25 -6.5 -109.2 L-5.85 -108.1 M-31.0 -105.5 L-31.3 -106.0 -31.35 -107.05 Q-31.35 -108.1 -31.0 -108.35 L-30.05 -108.6 -29.3 -108.35 -29.05 -108.1 -28.85 -107.95 -28.75 -106.9 Q-28.75 -105.9 -29.1 -105.65 L-30.05 -105.35 -31.0 -105.5 M-32.0 -100.55 Q-32.0 -101.6 -31.65 -101.8 L-30.7 -102.1 -29.55 -100.9 -28.75 -99.5 Q-28.75 -98.5 -29.1 -98.35 L-30.05 -98.15 -31.3 -99.0 Q-32.0 -99.65 -32.0 -100.55 M-34.65 -123.05 L-33.2 -121.75 -32.65 -121.1 Q-32.65 -120.1 -32.9 -119.95 L-33.15 -120.05 Q-34.4 -120.2 -35.1 -120.9 L-35.95 -122.25 -34.65 -123.05 M-9.4 -124.75 L-8.45 -125.0 Q-7.6 -124.8 -7.3 -124.05 L-7.15 -123.3 Q-7.15 -122.25 -7.5 -122.0 L-8.45 -121.75 -9.4 -121.85 -9.7 -122.35 -9.75 -123.5 Q-9.75 -124.5 -9.4 -124.75 M248.05 -58.75 L247.95 -58.55 Q246.5 -58.0 245.3 -58.75 244.2 -59.4 244.2 -60.25 244.2 -61.25 244.45 -61.35 L244.7 -61.55 247.95 -61.1 248.1 -59.8 248.05 -58.75 M192.2 -29.7 L191.95 -29.45 188.25 -29.55 187.9 -30.6 Q187.9 -31.55 188.25 -31.95 L188.55 -32.4 190.5 -32.7 191.95 -32.4 192.3 -32.15 192.45 -31.0 192.2 -29.7 M186.25 -60.5 L185.3 -60.2 Q183.85 -60.4 183.25 -61.05 182.65 -61.7 182.65 -63.05 182.65 -64.1 183.0 -64.35 L183.95 -64.8 Q184.9 -64.6 185.75 -63.65 186.6 -62.65 186.6 -61.8 186.6 -60.75 186.25 -60.5 M141.35 -17.55 Q141.75 -15.85 139.4 -13.7 139.1 -13.75 138.75 -13.95 138.1 -14.25 138.1 -15.25 138.1 -15.95 138.45 -16.85 139.0 -18.25 140.05 -18.25 141.05 -18.25 141.3 -17.9 L141.35 -17.55 M22.5 -25.25 L22.75 -25.0 22.9 -23.8 22.8 -22.75 22.4 -22.55 20.6 -22.65 Q19.85 -23.25 19.55 -24.7 L20.0 -25.25 21.2 -25.5 22.5 -25.25 M15.7 -60.85 Q16.3 -59.85 16.3 -58.9 16.3 -57.1 14.9 -56.15 13.25 -55.0 11.1 -57.4 L11.1 -61.8 13.4 -62.2 Q14.85 -62.2 15.7 -60.85 M53.45 -51.75 L54.25 -50.35 Q54.25 -49.35 54.0 -49.25 L53.75 -49.4 51.5 -49.35 Q51.0 -49.65 51.0 -51.25 51.0 -52.3 51.35 -52.6 L52.3 -52.95 53.45 -51.75" fill="#634019" fill-rule="evenodd" stroke="none"/>
  </g>
</svg>
