<?xml version="1.0" encoding="UTF-8" standalone="no"?>
<svg xmlns:ffdec="https://www.free-decompiler.com/flash" xmlns:xlink="http://www.w3.org/1999/xlink" ffdec:objectType="shape" height="131.9px" width="374.55px" xmlns="http://www.w3.org/2000/svg">
  <g transform="matrix(1.0, 0.0, 0.0, 1.0, 154.75, 75.1)">
    <path d="M90.7 -12.8 L90.75 -12.45 Q90.15 -12.05 89.65 -12.2 89.25 -12.3 89.25 -12.6 L89.25 -12.95 89.85 -13.05 90.7 -12.8 M90.3 -20.65 L90.35 -20.55 90.35 -20.65 90.3 -20.65 M93.95 -13.05 L94.05 -13.35 95.85 -13.4 98.9 -13.8 99.3 -13.65 99.3 -13.35 Q98.5 -12.7 97.2 -12.6 L95.85 -12.6 94.45 -12.55 Q93.95 -12.7 93.95 -13.05 M94.35 -16.25 L94.95 -16.05 94.95 -15.3 Q94.5 -15.15 94.2 -15.45 L93.95 -15.85 94.35 -16.25 M95.25 -17.4 L95.45 -17.4 95.6 -17.0 95.55 -16.7 95.0 -16.75 94.85 -17.1 95.25 -17.4 M64.15 -4.25 L64.15 -4.2 64.15 -4.25 M66.6 -20.45 L66.55 -20.3 66.6 -20.45 M27.3 -1.2 L27.45 -1.2 27.35 -1.2 27.3 -1.2 M1.0 -11.8 L1.45 -11.0 Q1.45 -9.85 0.3 -9.85 -0.9 -9.9 -0.9 -10.95 -0.55 -12.3 0.2 -12.3 L1.0 -11.8 M17.7 -21.35 Q17.7 -20.3 16.55 -20.45 15.35 -20.6 15.35 -21.45 15.35 -22.4 16.5 -22.4 17.7 -22.4 17.7 -21.35 M43.25 -55.7 Q47.8 -54.35 59.5 -53.35 L62.1 -52.85 63.8 -52.4 68.45 -51.85 Q72.3 -51.35 73.0 -50.8 76.6 -47.8 77.5 -47.55 L87.9 -47.15 Q111.45 -47.15 122.3 -48.0 L133.5 -48.9 133.9 -48.9 134.1 -48.9 138.95 -48.1 144.65 -46.9 Q149.3 -45.15 149.3 -43.75 149.3 -42.75 143.5 -41.3 L135.9 -39.45 136.3 -39.35 Q138.7 -39.35 139.4 -38.65 L139.7 -37.7 139.5 -36.55 Q144.4 -36.1 147.2 -34.55 L151.85 -31.6 Q153.6 -30.7 154.85 -28.75 155.55 -27.65 156.85 -27.35 157.75 -27.1 157.75 -26.25 157.75 -25.2 155.3 -24.8 L152.1 -24.35 150.7 -23.1 Q149.5 -22.05 147.75 -22.05 146.65 -22.05 144.8 -22.6 L142.95 -23.3 Q142.6 -23.5 141.85 -24.8 141.35 -25.75 139.4 -25.75 136.75 -25.75 136.2 -24.8 135.6 -23.85 133.9 -23.85 L131.15 -24.15 129.25 -24.5 126.65 -23.8 Q124.8 -23.1 124.35 -23.1 122.95 -23.1 122.95 -24.05 122.95 -24.85 124.25 -26.5 L121.95 -25.5 120.25 -24.5 Q119.3 -23.95 118.1 -24.25 116.95 -24.6 115.65 -23.85 L115.05 -23.1 114.65 -22.35 112.7 -20.95 109.95 -19.75 Q108.25 -19.1 107.95 -18.8 L107.65 -17.95 Q107.4 -17.35 106.6 -17.35 105.6 -17.35 105.6 -18.4 L105.95 -19.75 104.4 -19.65 Q104.25 -18.5 101.95 -18.15 99.5 -17.85 99.5 -19.35 L99.5 -19.5 95.05 -19.95 94.2 -20.55 91.4 -20.85 91.3 -20.85 92.35 -19.95 92.85 -18.6 Q92.85 -17.8 88.25 -16.45 L82.5 -14.9 76.95 -12.75 Q73.9 -11.55 70.85 -10.85 L82.0 -11.2 87.35 -11.6 88.8 -11.5 88.95 -11.1 Q88.95 -10.3 83.25 -8.15 L80.55 -7.2 78.0 -6.2 74.25 -5.3 71.85 -4.55 72.45 -4.5 72.5 -4.45 72.9 -4.5 74.4 -4.9 75.9 -5.2 81.6 -5.65 85.0 -6.4 88.65 -7.05 89.55 -6.95 89.75 -6.35 Q89.75 -5.45 87.75 -4.8 L81.95 -4.35 Q81.15 -2.15 80.6 -1.85 79.85 -1.45 77.3 -2.15 76.05 -2.45 75.4 -2.85 L74.6 -3.25 73.0 -3.4 71.0 -3.35 70.8 -3.35 70.15 -3.35 68.85 -1.65 Q67.7 -0.9 66.65 -1.65 65.8 -2.25 65.8 -3.0 L65.8 -3.05 60.8 -2.8 Q60.15 -2.8 60.1 -3.3 L56.45 -3.0 56.1 -2.85 57.5 -2.4 Q57.5 -1.6 55.15 -1.75 L53.85 -1.8 Q52.65 -0.45 51.7 -0.35 50.75 -0.2 50.75 -1.35 L50.85 -1.55 49.35 -0.95 Q46.3 0.2 46.3 -1.5 L46.3 -1.55 44.1 -0.55 43.35 -0.45 43.3 -0.35 43.2 0.1 Q42.35 0.35 41.7 -0.2 41.15 -0.65 41.15 -1.2 L41.35 -2.0 33.4 -1.8 29.4 -0.9 Q27.65 -0.3 26.55 -0.05 24.45 0.45 24.45 -0.35 L28.65 -2.95 34.65 -6.45 39.35 -8.95 Q38.8 -9.6 38.8 -10.4 38.8 -11.25 43.2 -13.75 L49.5 -17.75 Q50.2 -18.4 52.2 -19.5 L54.9 -21.2 55.9 -22.1 54.2 -22.3 Q50.7 -22.3 49.8 -20.0 48.9 -17.7 47.55 -17.7 46.55 -17.7 46.3 -18.6 L46.05 -19.7 44.65 -19.05 Q43.95 -18.7 43.95 -18.3 L44.3 -17.0 Q44.35 -15.7 42.85 -15.7 42.2 -15.7 41.45 -16.45 L41.0 -16.5 Q39.9 -16.7 39.9 -17.5 L39.95 -17.8 Q38.95 -17.75 37.05 -16.75 L34.5 -15.35 31.3 -13.7 Q29.35 -12.65 28.95 -12.65 27.4 -12.65 26.8 -13.75 26.4 -14.4 26.4 -15.25 24.6 -14.9 23.0 -13.9 20.95 -12.65 19.95 -12.3 L17.75 -12.1 15.6 -11.8 13.15 -10.0 Q10.6 -7.7 10.3 -6.5 9.9 -5.05 7.75 -4.75 5.6 -4.45 5.6 -6.05 L5.7 -6.8 Q6.05 -7.3 7.4 -7.65 7.4 -8.5 8.45 -9.05 L9.9 -9.75 9.45 -10.35 9.25 -11.0 Q9.25 -11.9 10.25 -11.95 L12.7 -12.2 14.25 -13.25 Q15.1 -13.85 15.8 -14.05 L15.75 -14.45 Q15.75 -16.4 17.55 -18.0 19.35 -19.55 19.35 -20.5 L19.1 -21.15 18.85 -21.8 19.05 -22.55 19.55 -23.6 17.5 -24.25 15.9 -24.45 Q14.8 -24.45 14.2 -23.35 L12.5 -20.85 10.05 -18.65 Q8.0 -16.95 7.4 -16.95 6.5 -16.95 6.5 -17.9 6.5 -18.75 9.1 -21.1 11.75 -23.45 11.75 -23.85 8.35 -23.15 6.85 -20.3 6.15 -18.9 4.05 -18.25 L3.8 -18.15 Q4.15 -17.85 4.15 -17.2 4.15 -15.85 2.65 -15.45 1.1 -15.05 1.1 -16.35 L1.4 -17.2 0.75 -16.85 -4.8 -11.95 Q-8.3 -9.0 -8.3 -11.15 L-7.0 -13.6 -7.2 -14.7 -5.95 -17.55 -4.15 -21.55 -4.2 -21.5 Q-5.55 -20.95 -5.95 -21.75 L-6.05 -22.85 Q-6.05 -25.2 -4.85 -26.55 L-3.7 -28.85 Q-3.3 -29.7 -2.15 -29.9 L-1.65 -32.2 -1.0 -35.4 -1.05 -36.0 Q-1.75 -34.65 -2.85 -34.65 -3.95 -34.65 -3.95 -35.85 -3.95 -36.9 -3.15 -38.55 -2.35 -40.15 -2.35 -41.7 L-2.35 -43.95 -3.55 -43.25 -4.45 -42.8 Q-5.2 -41.65 -7.75 -40.05 -11.75 -37.55 -12.35 -36.2 -12.85 -35.0 -13.0 -32.4 L-13.1 -31.35 -13.0 -30.6 Q-13.0 -29.4 -13.8 -28.7 L-13.8 -28.65 Q-13.8 -27.35 -15.0 -27.0 -16.0 -26.7 -16.15 -27.7 L-20.25 -27.6 -22.5 -27.75 Q-21.9 -26.55 -21.9 -26.0 -21.9 -23.6 -23.75 -25.75 L-25.2 -27.85 -25.3 -27.85 Q-27.55 -27.65 -27.55 -26.3 -27.55 -24.7 -26.55 -23.3 L-23.65 -19.75 -20.35 -15.95 Q-18.25 -13.55 -18.25 -13.05 L-18.3 -12.1 -19.85 -13.2 Q-20.2 -12.75 -21.0 -12.75 L-26.15 -15.85 -32.5 -20.1 Q-33.8 -21.1 -37.35 -24.05 -39.2 -25.35 -41.05 -26.1 L-41.0 -25.95 -40.75 -24.8 Q-40.75 -23.4 -41.85 -23.5 -42.95 -23.6 -42.95 -25.4 L-43.1 -25.4 Q-44.45 -25.1 -44.45 -26.4 L-44.35 -26.95 -44.6 -27.0 Q-44.4 -26.05 -45.4 -24.85 L-46.65 -23.85 -45.6 -22.4 Q-45.6 -20.6 -48.0 -21.1 -49.9 -21.45 -50.3 -23.1 L-50.35 -23.1 -53.8 -23.55 -56.6 -23.95 -56.45 -23.8 Q-55.95 -23.25 -55.95 -22.9 L-55.95 -22.7 -54.95 -22.2 Q-54.3 -21.65 -54.3 -21.3 -54.3 -20.2 -55.6 -20.2 -56.95 -20.2 -56.95 -21.55 L-56.9 -21.9 -57.15 -21.9 Q-58.4 -22.05 -58.4 -23.15 L-58.2 -24.0 -60.9 -23.6 Q-60.6 -23.25 -60.6 -22.9 L-60.65 -22.5 -60.25 -22.0 -60.0 -21.1 Q-60.0 -20.0 -61.1 -20.0 -62.25 -20.0 -62.25 -21.4 L-62.25 -21.95 Q-62.8 -22.1 -63.0 -22.55 L-63.1 -22.5 -65.7 -20.35 -66.0 -20.2 -65.8 -19.95 Q-65.5 -19.5 -65.5 -19.1 -65.5 -17.95 -66.6 -18.05 -67.7 -18.15 -67.7 -19.25 L-68.95 -18.6 -69.85 -17.4 Q-70.45 -16.85 -71.65 -16.65 L-71.55 -16.2 -71.6 -15.8 -71.35 -15.3 Q-71.15 -15.6 -70.55 -15.6 -69.85 -15.6 -69.25 -14.9 L-68.75 -14.0 Q-68.75 -12.9 -69.95 -13.05 L-67.75 -10.05 -66.55 -6.9 Q-65.95 -4.9 -64.5 -3.6 L-60.25 -0.35 -59.9 -0.4 -59.1 -0.1 Q-58.8 0.15 -58.8 0.55 L-58.8 0.7 Q-56.1 2.65 -56.1 2.9 -56.1 3.4 -56.25 3.2 L-56.7 3.3 Q-57.3 3.3 -59.1 2.2 L-59.9 1.7 Q-60.8 1.8 -60.95 1.1 L-61.85 0.65 Q-63.65 -0.1 -65.55 -2.1 L-68.25 -5.35 Q-70.85 -7.7 -74.8 -7.7 -75.25 -7.7 -75.6 -7.1 -76.0 -6.55 -79.3 -6.55 -82.8 -6.55 -83.75 -7.45 -84.2 -7.9 -84.2 -8.7 L-86.8 -8.85 -89.45 -9.75 -91.25 -9.75 -90.65 -6.7 Q-90.65 -6.0 -91.1 -5.3 -91.6 -4.5 -92.3 -4.45 L-89.9 -0.55 Q-88.4 1.8 -85.9 3.3 -83.4 4.8 -78.65 7.9 L-74.2 10.9 Q-74.2 11.4 -74.35 11.2 L-75.35 11.4 -76.5 11.5 -92.7 9.9 -110.35 7.65 Q-107.95 9.15 -102.8 10.85 -98.3 12.3 -97.35 13.3 -96.3 14.35 -91.85 17.6 L-87.7 20.65 Q-87.7 21.15 -87.85 21.2 L-94.15 21.2 -100.95 20.2 Q-105.35 19.5 -106.9 18.6 L-106.85 18.75 Q-106.5 20.45 -106.4 22.8 L-106.2 26.65 Q-106.0 28.2 -104.35 31.2 -102.75 34.1 -102.75 34.55 -102.75 35.0 -103.4 36.2 -100.35 37.95 -98.1 37.95 L-93.05 37.3 -85.3 36.6 -84.95 36.7 -84.95 36.9 -84.9 37.1 Q-84.9 37.9 -86.55 38.45 L-89.6 39.5 -95.65 42.0 -99.0 41.6 -100.3 41.2 Q-101.55 41.2 -103.0 41.8 L-105.0 42.65 -112.85 43.5 -113.7 43.6 Q-115.7 44.95 -115.7 42.85 -134.15 41.9 -136.45 41.05 L-136.3 40.6 -131.7 39.85 -122.55 39.4 -123.1 38.9 Q-123.1 38.4 -122.05 38.25 L-117.3 37.65 -117.55 37.55 -117.7 37.4 Q-120.45 35.55 -126.55 32.7 -131.95 30.15 -136.4 28.4 -140.45 26.8 -146.3 24.75 -147.0 24.45 -151.05 23.15 -154.75 21.95 -154.75 21.5 L-154.65 21.15 -154.6 21.1 -153.75 21.1 -131.75 24.4 -111.6 27.1 -113.8 25.7 -119.3 22.2 Q-119.85 21.85 -125.15 18.95 -130.1 16.05 -130.1 15.4 L-130.0 15.05 -129.95 15.0 -128.8 15.0 -122.3 16.8 -109.6 18.25 -109.75 18.0 Q-110.4 17.0 -111.15 17.15 L-112.8 17.2 -113.65 16.25 -114.05 15.35 Q-114.3 13.5 -119.0 11.9 -121.25 11.1 -124.85 8.7 -128.45 6.35 -129.75 4.75 -130.85 3.35 -133.6 0.75 L-135.3 -1.25 -137.5 -3.25 Q-139.3 -4.45 -146.4 -6.6 -152.15 -8.4 -152.1 -9.55 L-151.05 -9.65 Q-148.0 -9.65 -143.7 -8.25 L-139.65 -6.9 -137.05 -7.1 Q-136.8 -7.2 -136.8 -7.45 L-137.85 -9.1 Q-138.9 -10.65 -138.9 -11.35 L-138.45 -14.15 Q-138.45 -15.4 -139.9 -17.55 -141.4 -19.7 -141.4 -21.2 L-141.25 -23.5 Q-141.5 -24.05 -144.7 -26.15 L-144.7 -27.25 -143.95 -27.35 -130.55 -21.9 -125.6 -19.95 Q-122.7 -18.8 -120.2 -17.2 L-100.1 -4.3 -100.05 -4.45 -101.15 -6.7 -101.9 -8.8 Q-101.9 -10.05 -101.3 -10.3 -99.9 -10.55 -98.45 -11.2 -98.8 -12.85 -101.1 -15.7 L-104.55 -20.15 -105.35 -21.2 -106.05 -22.3 -106.25 -23.45 Q-106.3 -24.25 -106.5 -24.65 -106.9 -25.4 -109.1 -26.5 -111.25 -27.55 -111.6 -28.35 L-110.5 -28.85 Q-109.85 -28.85 -106.25 -26.7 L-101.3 -23.8 Q-99.8 -23.1 -99.0 -22.15 L-97.8 -20.7 Q-96.25 -19.25 -89.4 -18.75 L-89.15 -19.35 Q-88.8 -19.8 -88.1 -19.8 -87.6 -19.8 -86.4 -19.1 L-86.2 -19.0 -86.25 -21.15 Q-86.65 -23.1 -89.5 -23.6 -90.95 -23.85 -91.6 -24.3 L-95.25 -24.75 -98.95 -25.55 Q-99.5 -25.8 -99.5 -26.6 -99.5 -27.5 -98.55 -27.9 -97.0 -28.55 -93.15 -28.75 L-93.25 -29.25 -93.2 -29.8 -93.55 -30.05 -94.7 -31.05 -95.95 -32.25 Q-97.35 -33.75 -98.7 -35.95 -98.8 -36.95 -97.6 -36.95 -96.45 -36.95 -94.75 -34.65 L-93.5 -32.8 -92.95 -32.15 -91.85 -30.6 -91.85 -30.3 -91.05 -29.45 -90.65 -28.85 -88.45 -28.85 -88.4 -28.8 -88.35 -29.1 Q-88.35 -29.35 -93.7 -38.45 L-95.45 -41.45 Q-98.6 -45.3 -98.85 -47.15 L-99.1 -47.55 -98.85 -48.35 Q-98.65 -49.05 -97.7 -49.05 L-88.4 -45.5 -82.75 -43.15 Q-79.4 -41.85 -76.35 -41.85 -72.1 -41.85 -69.5 -44.3 -66.85 -46.8 -65.05 -46.8 -63.7 -46.8 -61.95 -43.5 -60.2 -40.25 -57.1 -40.25 -53.6 -40.25 -47.75 -42.55 -41.95 -44.85 -39.9 -44.85 -37.25 -44.85 -37.0 -42.75 L-37.3 -40.25 -35.3 -40.25 -30.65 -41.35 -26.8 -42.65 -19.55 -44.1 -7.25 -45.2 -6.1 -45.15 Q-5.7 -46.0 -5.15 -46.0 L-4.6 -45.85 Q-4.35 -45.75 -4.1 -46.0 L-4.65 -46.9 Q-4.65 -47.85 -3.75 -47.85 L-3.3 -47.75 -3.1 -47.55 -2.9 -48.15 Q-2.8 -48.4 -2.4 -48.45 L-2.45 -49.65 Q-2.45 -54.1 -1.8 -58.35 -1.65 -59.35 1.2 -62.55 1.8 -63.2 2.05 -64.6 L2.35 -66.75 2.75 -71.8 Q3.2 -75.1 4.6 -75.1 5.6 -75.1 6.1 -71.7 L6.75 -66.85 Q7.1 -65.3 8.9 -62.65 10.35 -60.45 12.3 -59.5 14.2 -58.55 17.2 -58.55 24.15 -58.55 32.15 -64.0 L37.55 -67.8 Q40.25 -69.5 42.05 -69.5 43.4 -69.5 43.4 -68.55 43.4 -67.85 41.1 -64.6 38.8 -61.3 38.8 -59.45 38.8 -57.05 43.25 -55.7 M98.65 -6.55 L98.85 -6.45 98.95 -6.6 98.65 -6.55 M104.25 11.25 Q105.8 10.2 106.1 10.2 106.5 10.2 106.75 10.5 L107.0 11.1 Q107.0 13.2 101.7 14.55 96.4 15.9 96.4 14.05 96.4 13.65 96.65 13.5 L99.15 13.1 100.7 12.95 102.55 12.4 104.25 11.25 M137.7 14.8 L138.35 14.65 137.7 14.6 137.7 14.8 M155.4 16.85 L155.35 16.95 155.45 16.85 155.4 16.85 M207.2 9.0 L207.25 9.2 207.35 9.15 207.2 9.0 M125.85 -25.55 L125.8 -25.5 126.0 -25.45 125.85 -25.55 M105.75 -12.9 L105.65 -12.5 Q104.3 -12.35 104.3 -13.1 L104.4 -13.35 104.95 -13.4 Q105.75 -13.4 105.75 -12.9 M119.85 -21.9 Q120.1 -22.4 120.95 -22.4 122.15 -22.4 122.9 -21.85 123.55 -21.35 123.55 -20.75 123.55 -19.5 121.65 -19.55 119.75 -19.6 119.75 -21.35 L119.85 -21.9 M97.7 -7.75 L98.85 -7.8 108.4 -6.45 112.3 -5.3 130.9 -5.1 149.45 -5.3 Q150.85 -5.45 151.5 -6.0 150.05 -6.1 148.95 -7.8 147.95 -9.35 147.95 -10.5 L148.05 -11.3 152.05 -12.45 Q153.8 -12.8 154.2 -13.85 L156.45 -13.9 164.5 -13.25 178.85 -12.65 Q184.2 -12.65 186.05 -13.35 187.95 -14.1 191.7 -14.1 L196.5 -13.7 Q197.15 -13.45 197.15 -12.75 197.15 -12.0 196.3 -11.7 L193.25 -11.1 190.4 -10.35 189.8 -9.75 188.1 -8.4 Q189.9 -7.8 195.4 -6.95 L198.05 -5.75 Q199.95 -5.05 202.1 -5.05 L205.25 -5.85 Q208.05 -6.7 212.15 -6.7 215.6 -6.7 217.8 -5.95 219.8 -5.25 219.8 -4.3 219.8 -2.35 207.2 -0.55 L197.85 0.95 Q190.0 2.3 188.95 3.2 L203.7 5.85 Q210.15 7.4 210.15 9.35 210.15 10.6 206.85 11.2 200.95 12.15 198.45 13.0 194.8 14.2 188.55 15.2 L175.9 16.3 172.8 16.0 169.65 15.7 Q160.15 17.6 158.4 17.2 L157.4 17.05 156.25 17.9 Q154.45 19.1 152.0 19.4 L137.6 21.45 118.95 24.05 120.1 24.45 Q127.3 26.8 132.85 27.5 L148.8 28.9 164.25 30.05 Q174.55 31.05 174.55 32.75 174.55 34.5 154.1 35.65 L124.45 37.7 Q125.3 38.7 126.1 38.95 L134.3 40.35 144.8 42.1 Q146.9 42.5 146.9 43.4 L146.75 44.15 146.6 44.3 137.05 44.3 Q89.2 43.4 78.75 42.9 L80.45 46.0 Q82.0 48.5 83.65 49.7 L88.35 52.6 Q92.35 55.15 92.35 56.05 L92.25 56.75 92.1 56.8 Q88.6 56.15 79.6 51.8 71.75 48.05 68.5 45.9 L69.05 45.6 68.8 45.4 Q67.0 43.8 64.35 40.6 L66.8 39.65 Q67.9 39.15 68.9 38.9 68.35 36.35 79.2 35.0 L95.6 34.1 108.25 34.35 Q107.45 33.45 104.4 33.65 102.2 33.8 102.2 30.65 102.2 29.3 102.55 29.0 102.9 28.7 104.4 28.7 110.5 28.55 116.9 27.1 L98.95 25.0 Q82.15 22.9 82.15 21.35 82.15 20.3 86.45 20.05 93.15 19.6 99.35 17.35 101.95 16.4 106.75 15.45 112.7 14.25 116.9 13.05 120.95 11.95 123.3 10.15 L122.2 9.9 120.45 9.5 119.2 9.1 118.15 8.75 Q118.15 10.35 113.9 10.15 109.6 9.95 109.6 8.9 L109.7 8.5 Q110.2 8.0 111.95 8.0 L115.5 8.25 116.45 8.0 114.85 7.0 113.15 5.55 Q112.0 4.65 110.9 4.25 L107.5 3.3 105.3 3.85 Q99.9 4.75 98.5 5.2 97.15 5.6 95.7 6.45 L94.05 7.55 94.3 8.15 Q94.3 9.95 83.9 9.5 73.45 9.05 73.45 7.65 L73.55 7.2 81.8 6.25 86.15 5.35 89.9 4.2 91.0 3.8 91.9 2.95 93.6 1.35 85.0 2.05 84.55 1.95 84.45 1.85 82.8 2.15 Q82.95 2.8 82.15 3.25 81.3 3.8 79.65 3.8 L74.6 3.4 73.3 3.9 Q72.7 4.15 72.7 3.3 72.7 2.05 81.85 0.95 L92.1 0.05 92.0 -0.3 Q92.0 -1.05 93.95 -1.2 95.9 -1.4 95.9 -2.1 95.9 -2.7 93.8 -2.95 91.7 -3.2 91.7 -4.15 L91.8 -4.8 Q92.0 -5.15 92.85 -5.55 L92.95 -5.6 92.9 -6.1 Q92.9 -6.85 93.25 -7.2 93.7 -7.7 95.1 -8.05 L97.65 -8.25 97.65 -8.2 97.7 -7.75 M92.85 7.95 L93.05 7.85 92.85 7.85 92.85 7.95 M-147.65 23.1 L-148.25 23.05 -148.35 23.05 -148.25 23.1 -147.75 23.3 -147.65 23.1 M-128.1 16.25 L-128.0 16.35 -127.95 16.3 -128.1 16.25 M-120.55 40.45 L-120.6 40.45 -120.45 40.45 -120.55 40.45 M-108.6 18.3 L-108.7 18.25 -108.7 18.3 -108.6 18.3 M-76.95 10.45 L-76.95 10.6 -76.6 10.6 -76.9 10.5 -76.95 10.45 M-12.45 -23.45 L-12.35 -22.25 Q-12.35 -21.3 -12.7 -20.85 -12.0 -20.6 -12.0 -19.4 L-12.2 -18.35 -12.0 -17.25 Q-12.0 -16.1 -13.1 -16.2 -14.25 -16.25 -14.25 -17.7 L-14.25 -18.5 -14.0 -18.95 -14.05 -19.4 -14.05 -20.0 -14.7 -19.8 Q-15.8 -19.65 -15.8 -20.8 L-15.7 -21.4 -15.15 -22.0 -15.2 -22.4 -15.05 -23.3 Q-14.7 -24.1 -13.7 -24.1 -12.7 -24.1 -12.45 -23.45 M-28.35 -13.35 Q-28.0 -12.95 -28.0 -12.55 -28.0 -11.4 -29.3 -11.6 L-29.45 -11.6 -30.0 -11.55 Q-31.0 -11.6 -31.0 -12.6 -31.05 -13.8 -30.0 -13.8 L-29.75 -13.75 -29.5 -13.8 Q-28.8 -13.8 -28.35 -13.35 M-15.2 -30.45 L-15.2 -30.4 -15.15 -30.45 -15.2 -30.45 M-46.4 -6.1 Q-45.4 -6.1 -45.4 -5.05 -45.4 -4.05 -46.4 -4.05 -47.45 -4.05 -47.45 -5.05 L-47.35 -5.55 Q-47.1 -6.1 -46.4 -6.1 M-53.7 -0.05 Q-53.75 -1.2 -52.7 -1.2 -52.3 -1.2 -51.7 -0.7 L-51.1 0.2 Q-51.1 1.25 -52.4 1.15 -53.7 1.05 -53.7 -0.05 M-52.7 -9.75 Q-53.9 -9.9 -53.9 -11.0 -53.95 -12.15 -52.9 -12.15 -52.5 -12.15 -52.0 -11.65 -51.5 -11.15 -51.5 -10.75 -51.5 -9.65 -52.7 -9.75 M-57.35 -16.4 Q-56.95 -16.4 -56.45 -15.9 -55.95 -15.4 -55.95 -15.0 -55.95 -13.85 -57.15 -14.1 -58.4 -14.4 -58.4 -15.25 -58.5 -16.4 -57.35 -16.4 M-52.3 -20.4 L-52.1 -19.7 Q-52.1 -18.55 -53.1 -18.65 -54.1 -18.7 -54.1 -19.7 -54.15 -20.9 -53.1 -20.9 L-52.3 -20.4 M-65.05 -2.9 L-65.0 -2.8 Q-64.9 -2.1 -63.65 -1.25 -62.55 -0.5 -61.85 -0.4 L-61.9 -0.45 Q-62.85 -0.95 -63.85 -1.8 L-65.05 -2.9 M-66.9 -5.25 L-66.95 -5.15 -66.9 -5.15 -66.9 -5.25 M-63.7 -6.65 Q-63.9 -7.9 -62.7 -7.9 -62.05 -7.9 -61.7 -7.2 L-61.45 -6.3 Q-61.45 -5.1 -62.55 -5.4 -63.7 -5.7 -63.7 -6.65 M-72.15 -3.9 L-71.45 -4.05 Q-71.0 -4.05 -70.6 -3.7 -70.15 -3.3 -70.15 -2.7 -70.15 -1.45 -71.35 -1.75 L-72.0 -2.0 -72.95 -1.9 Q-74.4 -2.0 -74.4 -3.2 -74.6 -4.45 -73.35 -4.45 -72.75 -4.45 -72.15 -3.9 M-68.7 -12.6 Q-68.75 -13.8 -67.7 -13.8 -67.3 -13.8 -66.8 -13.3 -66.3 -12.8 -66.3 -12.35 -66.3 -11.3 -67.5 -11.35 -68.7 -11.45 -68.7 -12.6 M-80.35 -43.95 Q-80.1 -44.65 -79.25 -44.65 -78.7 -44.65 -78.45 -44.2 L-78.25 -43.5 Q-78.25 -42.3 -79.35 -42.4 -80.45 -42.45 -80.45 -43.4 L-80.35 -43.95 M-93.5 -42.65 L-93.45 -42.7 -93.55 -42.75 -93.5 -42.65 M-149.4 -8.4 L-149.35 -8.55 -149.7 -8.55 -149.4 -8.4 M75.75 48.45 L75.7 48.1 75.7 48.45 75.75 48.45 M78.9 2.55 L79.85 2.55 81.05 2.4 78.9 2.55 M78.4 7.9 L78.5 8.0 78.5 7.9 78.4 7.9" fill="#875722" fill-opacity="0.6" fill-rule="evenodd" stroke="none"/>
  </g>
</svg>
