<?xml version="1.0" encoding="UTF-8" standalone="no"?>
<svg xmlns:ffdec="https://www.free-decompiler.com/flash" xmlns:xlink="http://www.w3.org/1999/xlink" ffdec:objectType="shape" height="24.85px" width="20.45px" xmlns="http://www.w3.org/2000/svg">
  <g transform="matrix(1.0, 0.0, 0.0, 1.0, -145.9, -14.75)">
    <path d="M163.25 17.95 L162.7 17.8 158.65 17.7 157.2 17.75 Q157.2 19.3 156.45 21.65 L155.5 30.6 155.2 33.3 155.25 33.95 156.95 30.65 161.2 22.9 163.25 17.95 M166.35 16.8 L165.6 18.3 161.6 26.55 156.6 34.95 153.6 39.25 153.35 39.6 152.45 36.9 147.6 23.45 145.9 17.75 146.3 17.6 154.0 14.75 159.4 15.5 165.1 16.4 166.35 16.8 M148.5 19.1 L148.15 18.9 Q148.0 19.55 148.15 20.3 148.7 21.45 149.05 23.25 L149.15 23.9 152.35 34.25 152.55 34.05 Q152.6 31.2 152.95 27.35 153.35 19.6 153.95 16.35 150.15 18.15 148.5 19.1" fill="#634019" fill-rule="evenodd" stroke="none"/>
    <path d="M163.25 17.95 L161.2 22.9 156.95 30.65 155.25 33.95 155.2 33.3 155.5 30.6 156.45 21.65 Q157.2 19.3 157.2 17.75 L158.65 17.7 162.7 17.8 163.25 17.95" fill="#a08b6a" fill-rule="evenodd" stroke="none"/>
    <path d="M148.5 19.1 Q150.15 18.15 153.95 16.35 153.35 19.6 152.95 27.35 152.6 31.2 152.55 34.05 L152.35 34.25 149.15 23.9 149.05 23.25 Q148.7 21.45 148.15 20.3 148.0 19.55 148.15 18.9 L148.5 19.1" fill="#815f2d" fill-rule="evenodd" stroke="none"/>
  </g>
</svg>
