<?xml version="1.0" encoding="UTF-8" standalone="no"?>
<svg xmlns:ffdec="https://www.free-decompiler.com/flash" xmlns:xlink="http://www.w3.org/1999/xlink" ffdec:objectType="shape" height="7.7px" width="47.45px" xmlns="http://www.w3.org/2000/svg">
  <g transform="matrix(1.0, 0.0, 0.0, 1.0, 152.1, -28.95)">
    <path d="M-106.65 34.6 L-106.65 34.0 -114.4 33.8 -109.7 34.55 -106.65 34.6 M-151.7 29.45 L-146.45 29.1 -140.65 28.95 -130.2 29.0 -129.95 29.2 -129.6 29.65 -132.2 33.0 -133.75 34.6 -133.7 34.6 -134.1 34.85 -135.95 36.05 -137.4 36.1 -138.0 36.15 -148.45 35.8 -148.5 35.8 -149.25 35.6 -149.85 35.2 -151.15 33.25 Q-152.1 31.3 -152.1 30.2 L-152.0 29.55 -151.7 29.45 M-119.5 30.95 Q-118.7 31.0 -118.7 32.6 -118.7 33.4 -119.3 34.6 -119.65 35.0 -121.8 35.2 -123.95 35.4 -123.95 35.2 -127.5 35.6 -128.5 34.15 -129.0 33.4 -128.8 32.45 L-128.8 30.95 Q-128.55 29.75 -127.15 29.75 L-126.1 30.0 -125.45 30.35 -119.5 30.95 M-105.45 32.3 Q-104.65 32.55 -104.65 33.55 L-105.25 35.15 Q-105.9 36.45 -106.25 36.6 L-110.85 36.35 Q-115.35 35.85 -116.3 34.7 L-116.3 32.0 -115.75 31.8 -115.1 31.75 -105.45 32.3 M-127.15 32.0 L-127.15 33.2 -123.3 33.75 Q-121.05 33.9 -120.3 32.8 L-124.75 32.25 -127.15 32.0 M-149.4 30.75 L-147.95 34.0 -136.15 34.55 -132.9 31.15 -140.55 30.9 Q-144.1 30.75 -149.4 30.75" fill="#634019" fill-rule="evenodd" stroke="none"/>
    <path d="M-106.65 34.6 L-109.7 34.55 -114.4 33.8 -106.65 34.0 -106.65 34.6 M-149.4 30.75 Q-144.1 30.75 -140.55 30.9 L-132.9 31.15 -136.15 34.55 -147.95 34.0 -149.4 30.75 M-127.15 32.0 L-124.75 32.25 -120.3 32.8 Q-121.05 33.9 -123.3 33.75 L-127.15 33.2 -127.15 32.0" fill="#a08b6a" fill-rule="evenodd" stroke="none"/>
  </g>
</svg>
