<?xml version="1.0" encoding="UTF-8" standalone="no"?>
<svg xmlns:ffdec="https://www.free-decompiler.com/flash" xmlns:xlink="http://www.w3.org/1999/xlink" ffdec:objectType="shape" height="135.65px" width="422.55px" xmlns="http://www.w3.org/2000/svg">
  <g transform="matrix(1.0, 0.0, 0.0, 1.0, 216.5, 133.4)">
    <path d="M144.8 -97.15 Q147.2 -98.35 148.4 -98.2 151.2 -97.9 156.65 -93.6 162.05 -89.35 162.8 -89.25 L171.15 -93.45 Q179.7 -97.65 181.3 -97.45 183.15 -97.25 187.35 -95.05 L190.35 -93.4 190.5 -93.4 Q191.65 -93.3 191.1 -93.05 L191.15 -92.95 191.55 -92.75 Q195.0 -91.45 202.75 -89.3 206.25 -88.3 206.05 -86.7 205.95 -86.05 192.45 -78.65 177.55 -70.55 174.15 -67.9 L170.85 -64.9 167.6 -61.8 Q164.75 -57.55 160.1 -58.8 L152.8 -62.0 139.0 -66.6 Q134.85 -68.05 132.4 -69.15 130.4 -66.25 123.55 -82.2 L140.3 -94.25 142.95 -96.1 144.55 -97.2 144.8 -97.15 M163.25 -78.8 Q181.05 -88.95 187.3 -92.05 183.05 -94.0 181.0 -94.2 180.45 -94.3 171.75 -90.05 162.95 -85.9 162.45 -85.95 161.5 -86.05 156.0 -90.25 150.45 -94.55 147.9 -94.85 146.4 -95.0 144.7 -93.6 143.3 -92.45 142.2 -92.35 L136.5 -88.25 127.15 -81.4 Q127.05 -80.4 130.05 -75.95 L131.2 -74.2 133.15 -76.5 Q135.6 -79.5 136.35 -81.3 139.6 -89.15 142.0 -88.85 158.35 -81.25 163.15 -78.65 L163.2 -78.65 163.25 -78.8 M146.45 -84.85 Q142.9 -86.75 142.0 -86.85 141.25 -86.95 139.4 -83.6 L137.0 -78.7 134.45 -74.7 Q133.85 -73.75 132.3 -73.2 L132.0 -73.1 132.3 -72.6 Q134.3 -72.15 138.35 -70.55 L145.3 -67.8 151.8 -65.05 Q157.4 -62.9 163.25 -62.2 163.35 -62.2 169.55 -67.75 176.4 -73.75 179.05 -75.45 182.05 -77.35 189.5 -81.2 L199.0 -86.15 190.7 -90.4 189.85 -90.85 Q188.4 -89.8 185.7 -88.5 178.85 -85.3 178.2 -84.9 L169.65 -80.15 Q166.45 -78.25 164.55 -77.85 L165.25 -77.35 165.0 -76.6 164.9 -76.7 163.9 -76.65 Q162.75 -76.75 152.9 -81.55 L146.45 -84.85 M-209.05 -38.05 L-210.25 -38.45 -208.85 -36.2 Q-206.55 -32.45 -204.95 -30.5 L-199.05 -23.8 -195.9 -20.25 Q-193.25 -20.8 -188.15 -22.25 L-181.2 -24.0 Q-178.85 -24.1 -173.4 -21.4 L-166.85 -18.1 -158.85 -14.95 -154.65 -13.3 -154.6 -13.45 Q-155.5 -15.1 -159.15 -19.7 L-166.35 -28.75 -168.65 -32.8 -168.7 -33.05 -169.5 -34.3 -169.9 -35.0 -172.25 -35.05 Q-175.05 -33.85 -180.15 -34.65 L-189.45 -35.2 -196.6 -35.35 -200.15 -36.1 -203.1 -36.7 Q-206.35 -37.15 -209.05 -38.05 M-207.35 -40.9 Q-204.8 -40.15 -203.35 -39.95 L-187.3 -38.5 -178.95 -37.75 -172.75 -37.85 -169.5 -38.5 Q-167.5 -38.9 -166.9 -37.85 -166.6 -37.35 -166.4 -36.2 L-166.0 -34.4 -164.15 -31.2 -162.15 -28.2 -160.85 -26.1 -155.95 -20.05 -152.15 -15.35 -152.1 -15.4 -150.1 -15.35 Q-149.3 -15.2 -149.25 -14.1 -149.2 -10.45 -157.8 -4.9 -162.15 -2.1 -167.3 0.45 -170.95 3.45 -173.85 1.4 L-177.4 -2.25 Q-179.4 -3.7 -183.85 -6.35 -187.3 -8.4 -188.45 -9.4 -189.9 -10.6 -191.75 -10.95 L-193.35 -11.25 -193.9 -11.25 Q-195.85 -11.25 -199.8 -10.25 -208.55 -8.1 -212.85 -10.5 L-213.05 -15.05 -213.35 -23.65 Q-213.35 -24.65 -214.9 -32.4 L-216.5 -41.2 -216.4 -42.1 Q-216.3 -42.2 -216.35 -42.35 L-214.2 -42.6 Q-213.0 -42.7 -209.55 -41.5 L-207.9 -41.1 -207.35 -40.9 M-211.8 -36.8 L-211.7 -34.65 -211.1 -30.4 -209.85 -23.75 Q-208.75 -17.55 -208.55 -14.1 L-201.3 -13.95 -194.35 -14.0 -189.95 -13.3 -188.7 -13.0 Q-179.95 -11.2 -170.9 -2.2 L-169.65 -2.1 Q-168.8 -2.5 -167.5 -3.25 L-162.1 -6.3 Q-160.95 -6.65 -158.45 -8.35 -156.6 -10.15 -155.4 -12.05 -160.0 -13.4 -168.6 -17.0 L-181.4 -22.1 Q-182.4 -22.05 -186.3 -20.3 -190.2 -18.6 -194.65 -18.4 -194.65 -17.8 -194.85 -17.65 L-195.5 -17.45 -196.3 -18.35 -196.5 -18.35 Q-197.25 -18.45 -197.3 -19.2 L-197.3 -19.4 -204.7 -27.8 Q-209.5 -33.45 -211.8 -36.8 M-64.4 -124.85 L-64.4 -124.9 -64.6 -125.05 -64.6 -124.65 Q-63.1 -119.3 -62.75 -113.7 -62.6 -111.2 -62.6 -102.6 L-62.6 -97.1 Q-62.6 -95.6 -63.35 -93.95 -64.1 -92.3 -64.1 -91.45 -64.1 -90.4 -59.7 -88.6 -56.6 -87.3 -54.75 -86.8 -57.25 -92.5 -58.8 -106.9 -54.15 -114.7 -53.8 -114.7 L-53.55 -114.7 Q-53.0 -114.65 -52.85 -114.4 L-52.65 -113.9 -55.3 -109.85 Q-56.95 -107.25 -56.95 -106.6 L-53.65 -89.25 -48.95 -100.7 Q-46.0 -107.55 -46.0 -107.95 L-52.35 -114.0 -52.75 -114.35 -53.35 -114.9 -53.5 -115.05 -64.4 -124.85 M-68.35 -133.4 L-62.45 -127.9 -55.7 -121.1 -48.1 -114.15 -42.0 -108.65 Q-42.0 -107.1 -44.75 -102.75 -47.95 -97.7 -49.25 -90.95 L-51.05 -86.2 Q-52.2 -83.3 -54.4 -83.4 -57.7 -83.55 -62.5 -86.1 -67.6 -88.8 -67.6 -90.8 L-66.6 -93.55 Q-65.6 -95.85 -65.6 -96.6 L-65.6 -102.65 -66.6 -116.95 Q-66.75 -119.3 -68.5 -124.5 -70.15 -129.45 -70.15 -131.65 L-69.9 -133.15 -68.35 -133.4" fill="#634019" fill-rule="evenodd" stroke="none"/>
    <path d="M146.45 -84.85 L152.9 -81.55 Q162.75 -76.75 163.9 -76.65 L164.9 -76.7 165.0 -76.6 165.25 -77.35 164.55 -77.85 Q166.45 -78.25 169.65 -80.15 L178.2 -84.9 Q178.85 -85.3 185.7 -88.5 188.4 -89.8 189.85 -90.85 L190.7 -90.4 199.0 -86.15 189.5 -81.2 Q182.05 -77.35 179.05 -75.45 176.4 -73.75 169.55 -67.75 163.35 -62.2 163.25 -62.2 157.4 -62.9 151.8 -65.05 L145.3 -67.8 138.35 -70.55 Q134.3 -72.15 132.3 -72.6 L132.0 -73.1 132.3 -73.2 Q133.85 -73.75 134.45 -74.7 L137.0 -78.7 139.4 -83.6 Q141.25 -86.95 142.0 -86.85 142.9 -86.75 146.45 -84.85 M-211.8 -36.8 Q-209.5 -33.45 -204.7 -27.8 L-197.3 -19.4 -197.3 -19.2 Q-197.25 -18.45 -196.5 -18.35 L-196.3 -18.35 -195.5 -17.45 -194.85 -17.65 Q-194.65 -17.8 -194.65 -18.4 -190.2 -18.6 -186.3 -20.3 -182.4 -22.05 -181.4 -22.1 L-168.6 -17.0 Q-160.0 -13.4 -155.4 -12.05 -156.6 -10.15 -158.45 -8.35 -160.95 -6.65 -162.1 -6.3 L-167.5 -3.25 Q-168.8 -2.5 -169.65 -2.1 L-170.9 -2.2 Q-179.95 -11.2 -188.7 -13.0 L-189.95 -13.3 -194.35 -14.0 -201.3 -13.95 -208.55 -14.1 Q-208.75 -17.55 -209.85 -23.75 L-211.1 -30.4 -211.7 -34.65 -211.8 -36.8 M-52.35 -114.0 L-46.0 -107.95 Q-46.0 -107.55 -48.95 -100.7 L-53.65 -89.25 -56.95 -106.6 Q-56.95 -107.25 -55.3 -109.85 L-52.65 -113.9 -52.35 -114.0" fill="#a08b6a" fill-rule="evenodd" stroke="none"/>
    <path d="M163.15 -78.65 Q158.35 -81.25 142.0 -88.85 139.6 -89.15 136.35 -81.3 135.6 -79.5 133.15 -76.5 L131.2 -74.2 130.05 -75.95 Q127.05 -80.4 127.15 -81.4 L136.5 -88.25 142.2 -92.35 Q143.3 -92.45 144.7 -93.6 146.4 -95.0 147.9 -94.85 150.45 -94.55 156.0 -90.25 161.5 -86.05 162.45 -85.95 162.95 -85.9 171.75 -90.05 180.45 -94.3 181.0 -94.2 183.05 -94.0 187.3 -92.05 181.05 -88.95 163.25 -78.8 L163.15 -78.65 M-209.05 -38.05 Q-206.35 -37.15 -203.1 -36.7 L-200.15 -36.1 -196.6 -35.35 -189.45 -35.2 -180.15 -34.65 Q-175.05 -33.85 -172.25 -35.05 L-169.9 -35.0 -169.5 -34.3 -168.7 -33.05 -168.65 -32.8 -166.35 -28.75 -159.15 -19.7 Q-155.5 -15.1 -154.6 -13.45 L-154.65 -13.3 -158.85 -14.95 -166.85 -18.1 -173.4 -21.4 Q-178.85 -24.1 -181.2 -24.0 L-188.15 -22.25 Q-193.25 -20.8 -195.9 -20.25 L-199.05 -23.8 -204.95 -30.5 Q-206.55 -32.45 -208.85 -36.2 L-210.25 -38.45 -209.05 -38.05 M-64.6 -124.65 L-64.4 -124.85 -53.5 -115.05 -53.55 -114.7 -53.8 -114.7 Q-54.15 -114.7 -58.8 -106.9 -57.25 -92.5 -54.75 -86.8 -56.6 -87.3 -59.7 -88.6 -64.1 -90.4 -64.1 -91.45 -64.1 -92.3 -63.35 -93.95 -62.6 -95.6 -62.6 -97.1 L-62.6 -102.6 Q-62.6 -111.2 -62.75 -113.7 -63.1 -119.3 -64.6 -124.65" fill="#815f2d" fill-rule="evenodd" stroke="none"/>
  </g>
</svg>
