<?xml version="1.0" encoding="UTF-8" standalone="no"?>
<svg xmlns:ffdec="https://www.free-decompiler.com/flash" xmlns:xlink="http://www.w3.org/1999/xlink" ffdec:objectType="shape" height="342.75px" width="198.95px" xmlns="http://www.w3.org/2000/svg">
  <g transform="matrix(1.0, 0.0, 0.0, 1.0, 99.45, 318.85)">
    <path d="M55.5 -318.85 L99.5 -318.85 99.5 0.0 Q84.0 8.85 55.5 16.45 L55.5 -318.85" fill="url(#gradient0)" fill-rule="evenodd" stroke="none"/>
    <path d="M55.5 16.45 Q31.35 23.55 -2.45 23.9 L-2.45 -318.85 55.5 -318.85 55.5 16.45" fill="url(#gradient1)" fill-rule="evenodd" stroke="none"/>
    <path d="M-2.45 23.9 Q-35.85 10.3 -73.45 2.05 L-73.45 -318.85 -2.45 -318.85 -2.45 23.9" fill="url(#gradient2)" fill-rule="evenodd" stroke="none"/>
    <path d="M-73.45 2.05 Q-86.05 -0.3 -99.45 -5.05 L-99.45 -318.85 -73.45 -318.85 -73.45 2.05" fill="url(#gradient3)" fill-rule="evenodd" stroke="none"/>
  </g>
  <defs>
    <linearGradient gradientTransform="matrix(0.0, 0.1919, -0.0269, 0.0, 80.0, -141.65)" gradientUnits="userSpaceOnUse" id="gradient0" spreadMethod="pad" x1="-819.2" x2="819.2">
      <stop offset="0.0" stop-color="#ffffff" stop-opacity="0.0"/>
      <stop offset="1.0" stop-color="#ffcc00"/>
    </linearGradient>
    <linearGradient gradientTransform="matrix(0.0, 0.1658, -0.0354, 0.0, 25.0, -124.2)" gradientUnits="userSpaceOnUse" id="gradient1" spreadMethod="pad" x1="-819.2" x2="819.2">
      <stop offset="0.0" stop-color="#834141" stop-opacity="0.0"/>
      <stop offset="1.0" stop-color="#834141"/>
    </linearGradient>
    <linearGradient gradientTransform="matrix(0.0, 0.2117, -0.0433, 0.0, -39.0, -150.75)" gradientUnits="userSpaceOnUse" id="gradient2" spreadMethod="pad" x1="-819.2" x2="819.2">
      <stop offset="0.0" stop-color="#ffffff" stop-opacity="0.0"/>
      <stop offset="1.0" stop-color="#ffcc00"/>
    </linearGradient>
    <linearGradient gradientTransform="matrix(0.0, 0.1927, -0.0159, 0.0, -86.55, -116.45)" gradientUnits="userSpaceOnUse" id="gradient3" spreadMethod="pad" x1="-819.2" x2="819.2">
      <stop offset="0.0" stop-color="#ffffff" stop-opacity="0.0"/>
      <stop offset="1.0" stop-color="#ffcc00"/>
    </linearGradient>
  </defs>
</svg>
