<?xml version="1.0" encoding="UTF-8" standalone="no"?>
<svg xmlns:ffdec="https://www.free-decompiler.com/flash" xmlns:xlink="http://www.w3.org/1999/xlink" ffdec:objectType="shape" height="43.0px" width="22.05px" xmlns="http://www.w3.org/2000/svg">
  <g transform="matrix(1.0, 0.0, 0.0, 1.0, 15.15, 21.2)">
    <path d="M-12.9 0.35 L-12.8 0.2 -12.8 0.15 Q-5.9 -11.55 4.9 -18.4 L4.9 -13.75 Q-5.55 -7.6 -12.9 0.35" fill="#ffff99" fill-rule="evenodd" stroke="none"/>
    <path d="M4.9 -13.75 L4.9 1.4 -12.85 0.6 -12.95 0.5 -12.9 0.35 Q-5.55 -7.6 4.9 -13.75 M4.9 17.95 L4.9 19.1 Q-6.75 12.1 -12.85 0.85 L-12.95 0.6 -12.85 0.6 Q-5.55 9.9 4.9 17.95" fill="#ffcc00" fill-rule="evenodd" stroke="none"/>
    <path d="M4.9 1.4 L4.9 17.95 Q-5.55 9.9 -12.85 0.6 L4.9 1.4" fill="#ff9900" fill-rule="evenodd" stroke="none"/>
    <path d="M-14.5 -0.85 Q-6.85 -13.85 5.4 -21.05 L6.1 -21.15 6.7 -20.85 6.9 -20.2 6.9 20.8 6.7 21.45 6.1 21.8 5.45 21.7 Q-7.85 14.3 -14.6 1.8 L-14.65 1.75 -15.05 0.95 -15.15 0.5 -15.0 0.05 -14.5 -0.85 M4.9 -13.75 L4.9 -18.4 Q-5.9 -11.55 -12.8 0.15 L-12.8 0.2 -12.9 0.35 -12.95 0.5 -13.0 0.55 -12.95 0.6 -12.85 0.85 Q-6.75 12.1 4.9 19.1 L4.9 17.95 4.9 1.4 4.9 -13.75" fill="#000000" fill-rule="evenodd" stroke="none"/>
  </g>
</svg>
