<?xml version="1.0" encoding="UTF-8" standalone="no"?>
<svg xmlns:ffdec="https://www.free-decompiler.com/flash" xmlns:xlink="http://www.w3.org/1999/xlink" ffdec:objectType="shape" height="61.0px" width="45.25px" xmlns="http://www.w3.org/2000/svg">
  <g transform="matrix(1.0, 0.0, 0.0, 1.0, 0.75, 0.85)">
    <path d="M8.9 -0.1 L13.4 -0.55 14.65 -0.7 15.25 -0.7 15.25 -0.75 15.85 -0.85 16.75 2.65 16.9 3.05 Q17.3 4.15 17.5 5.95 L17.6 6.55 17.6 6.7 17.65 7.0 17.2 7.35 17.1 7.5 16.95 7.7 15.65 9.75 13.45 12.1 11.7 14.55 10.9 15.75 Q8.95 17.95 9.05 18.95 L9.15 19.35 9.15 19.4 9.35 19.6 9.55 19.65 10.25 20.25 10.6 20.45 10.85 20.8 11.15 21.1 10.5 22.45 9.45 24.45 8.15 24.25 7.75 24.65 7.75 24.95 7.8 24.95 8.7 26.3 9.3 27.15 9.9 27.9 11.3 29.6 11.45 29.45 Q11.7 29.8 12.45 29.85 L12.75 29.95 13.4 30.15 15.2 30.65 15.55 30.65 17.0 30.75 16.95 30.65 16.25 28.65 16.2 28.5 16.1 28.15 15.25 25.35 13.3 18.75 13.3 18.15 13.3 18.05 13.3 17.85 13.4 18.0 14.05 17.4 17.4 15.15 Q18.65 14.4 19.6 13.95 L22.55 11.85 23.65 11.3 25.2 10.25 25.8 10.0 25.95 10.2 25.9 10.2 25.85 10.5 25.9 10.5 25.8 10.65 25.3 12.0 Q27.05 11.0 31.35 9.8 L31.4 9.7 31.75 9.65 32.0 9.6 31.9 10.15 31.75 10.25 31.75 10.5 31.35 11.8 31.35 11.85 31.05 12.7 Q31.85 12.8 32.5 13.3 L32.9 13.65 33.05 13.7 34.1 14.2 34.1 14.35 34.65 14.55 33.95 17.5 33.65 19.35 33.35 20.95 33.3 21.45 32.85 25.2 32.75 27.65 32.55 27.9 32.8 28.1 33.15 28.1 33.2 27.95 35.7 28.55 37.05 28.95 37.2 28.95 37.2 29.0 37.25 29.0 Q37.45 28.9 37.8 28.75 L39.05 28.4 39.25 28.2 39.35 28.2 40.6 27.9 41.65 28.0 42.2 29.3 42.2 29.4 42.7 31.6 43.2 32.9 43.3 33.75 Q43.8 36.45 44.35 38.0 L44.3 38.05 44.3 38.1 44.15 38.7 44.15 39.15 44.0 39.3 43.05 40.75 40.9 43.6 40.75 43.8 40.3 44.15 39.55 45.0 39.2 45.55 39.1 45.6 38.8 46.05 38.3 45.95 38.75 46.6 38.8 46.7 38.8 46.8 39.7 48.2 39.8 48.4 39.8 48.35 44.45 54.4 44.45 54.5 44.25 54.65 44.4 54.85 44.45 55.1 44.45 55.2 44.45 55.85 44.5 55.85 44.45 56.45 44.45 56.55 44.3 56.7 44.3 57.1 44.15 58.4 44.25 58.4 44.2 58.5 Q43.9 58.7 43.55 59.05 L43.4 59.25 38.45 59.25 37.6 59.0 37.55 59.0 37.45 58.95 37.3 58.95 35.5 56.6 Q33.0 53.3 32.15 52.65 L31.75 52.2 30.8 52.1 29.45 51.9 26.85 51.8 24.1 51.6 22.7 51.65 23.35 52.45 23.95 53.35 24.05 53.45 24.2 53.65 24.5 54.1 24.7 54.45 24.6 54.4 24.65 54.5 24.9 54.95 25.0 54.95 24.95 55.05 24.95 55.1 25.05 55.05 25.3 55.25 25.2 55.3 25.35 55.3 25.4 55.4 25.1 55.5 25.25 55.5 25.3 55.5 25.5 55.5 Q25.15 56.45 22.9 57.4 L22.2 57.65 20.2 58.8 20.0 58.8 Q18.05 59.85 17.05 60.0 L16.35 60.05 Q16.25 60.35 16.2 59.9 L16.2 59.75 16.2 59.65 16.25 59.45 16.2 58.85 16.5 57.45 16.7 56.6 15.9 55.75 15.85 55.75 14.45 53.85 12.3 50.35 12.2 50.3 12.0 49.9 11.9 49.8 11.95 49.8 11.9 49.7 11.9 49.65 11.95 49.5 11.9 49.1 Q11.9 48.8 14.0 47.0 L15.8 45.55 15.85 45.15 15.85 45.05 15.85 45.0 15.8 44.5 16.45 43.2 16.5 41.55 16.45 40.9 16.5 40.75 16.5 40.2 16.2 39.5 16.2 39.45 15.95 39.35 14.25 38.85 14.0 38.9 13.5 38.65 12.4 38.35 12.05 38.25 Q11.45 38.2 10.1 37.55 L9.35 37.2 9.1 37.05 8.2 36.55 8.05 36.5 6.55 34.3 6.2 33.8 5.55 32.85 Q4.1 30.7 3.8 29.95 L3.6 30.25 3.65 30.3 3.55 30.25 Q2.55 30.0 1.45 29.3 L0.95 28.95 Q0.0 28.55 -0.05 27.95 L0.2 27.2 0.6 26.25 1.3 24.9 Q0.9 24.4 0.8 23.7 0.7 22.85 1.15 21.8 L2.0 20.8 1.65 20.3 1.65 20.35 -0.4 18.45 -0.4 18.25 -0.75 17.95 -0.45 17.65 -0.5 17.4 -0.35 16.7 0.15 16.1 Q0.75 14.95 1.4 14.6 L1.35 14.55 1.45 14.6 1.65 14.5 1.6 14.5 1.9 14.5 Q1.85 14.25 1.95 14.3 L1.95 14.45 2.05 14.45 2.05 14.5 Q2.5 14.65 3.25 15.15 3.4 15.0 3.6 15.0 L3.7 15.15 3.85 14.9 4.9 11.8 5.45 9.7 5.95 8.0 6.05 7.6 7.65 3.15 7.75 3.0 8.05 1.7 Q8.45 0.45 8.9 -0.1 M41.65 32.2 L41.35 31.15 41.25 31.0 40.65 29.3 34.25 31.5 34.2 31.55 Q33.4 31.9 32.55 32.35 L32.35 32.4 31.55 32.8 28.2 34.05 27.55 34.45 27.6 34.7 28.1 35.95 28.4 36.7 30.0 40.45 30.15 40.75 30.8 42.0 34.25 43.4 36.45 44.15 36.7 44.15 37.4 44.25 37.5 44.5 37.95 44.65 39.0 44.45 39.55 43.4 40.95 41.85 41.8 40.75 42.45 39.5 42.95 39.05 42.45 36.0 42.15 33.9 42.1 33.9 42.0 33.4 41.65 32.2 M37.5 42.0 L37.45 42.0 35.0 41.4 33.65 40.75 33.5 40.65 33.5 40.7 33.25 40.85 33.15 40.75 Q32.45 40.0 31.95 38.6 L31.4 36.85 31.4 36.9 31.25 36.7 31.15 36.25 31.1 36.1 31.1 36.05 31.25 35.85 31.35 36.0 34.7 34.1 36.65 33.4 38.9 32.55 39.85 32.3 40.1 32.2 40.05 32.25 40.1 32.55 40.3 33.25 40.35 33.45 40.4 33.6 40.95 37.0 41.05 36.95 41.25 37.05 41.3 37.25 41.3 37.5 41.3 38.0 41.15 38.25 40.8 38.5 40.1 39.6 39.35 40.55 39.2 40.75 38.45 41.7 38.45 41.85 38.25 42.0 37.95 42.3 37.5 42.0 M40.7 36.85 Q40.45 35.3 39.5 33.55 L39.5 33.1 39.5 33.0 39.3 32.75 38.9 33.0 Q38.5 32.55 38.35 33.25 L37.55 33.65 37.35 33.65 35.5 34.5 33.55 35.3 32.0 35.95 32.2 36.25 Q31.9 36.25 31.7 36.4 L31.65 36.45 31.7 36.55 Q33.3 39.0 33.5 40.15 L33.7 40.2 34.05 40.65 34.2 40.75 34.9 41.15 35.6 41.3 36.15 41.3 36.3 41.3 36.45 41.3 36.7 41.3 36.85 41.4 36.85 41.5 37.25 41.55 37.4 41.55 Q37.9 41.55 38.75 40.75 L39.35 40.1 40.3 38.8 40.75 38.05 40.75 37.85 40.75 37.8 40.75 37.45 40.75 37.35 40.7 36.85 M23.45 14.25 L23.75 13.9 23.9 13.25 24.25 12.15 24.4 11.85 21.4 14.05 20.55 14.65 20.4 14.75 16.55 17.55 15.45 18.35 14.9 18.5 14.75 18.65 16.3 24.9 16.45 25.5 16.5 25.6 16.7 26.3 17.0 27.2 18.2 30.85 18.65 32.3 18.6 32.5 18.2 32.55 18.1 32.3 18.0 32.3 17.85 32.15 17.85 32.1 17.8 32.05 17.75 31.95 17.75 32.0 17.7 31.95 15.95 31.95 Q15.15 32.0 14.8 31.65 L14.7 31.6 13.85 31.35 13.85 31.4 13.8 31.4 13.7 31.25 13.7 31.35 12.9 31.1 11.05 30.6 10.9 30.4 10.85 30.35 10.85 30.3 Q10.05 29.55 9.35 28.45 L8.35 26.95 7.9 26.65 7.85 26.55 7.5 25.85 7.05 25.35 7.15 25.15 6.8 24.9 6.85 24.75 6.6 24.8 6.55 25.1 5.3 26.4 5.25 26.4 5.05 26.4 5.1 26.5 5.1 26.7 4.45 28.0 4.5 28.0 4.15 29.0 4.8 29.9 4.85 30.0 5.25 30.55 6.05 31.7 6.1 31.75 6.3 32.05 8.25 34.6 8.65 35.15 8.8 35.4 Q9.4 36.25 10.65 36.45 L12.35 37.05 14.65 37.5 16.25 38.0 16.25 38.25 16.35 38.25 16.35 38.1 16.85 38.1 16.85 37.95 17.1 37.8 17.7 35.7 17.8 36.0 17.6 37.1 17.7 37.7 Q17.45 39.0 17.45 40.5 L17.45 40.75 17.55 41.75 17.5 41.75 17.5 41.9 17.5 41.95 17.45 42.25 17.4 42.55 17.3 43.4 18.1 43.8 18.6 43.9 20.8 44.1 20.8 44.15 24.0 44.4 28.2 44.25 28.65 44.25 28.4 44.4 29.35 44.25 30.95 43.95 31.0 43.95 31.15 43.95 32.25 43.7 32.15 43.65 32.15 43.25 32.1 43.2 32.0 43.35 31.55 43.15 31.5 42.9 31.4 42.8 30.9 42.85 29.95 42.0 30.2 41.85 29.5 40.75 28.5 38.85 28.45 38.75 28.4 38.65 28.3 38.45 27.4 36.45 27.25 36.05 26.75 35.1 26.6 34.55 26.95 33.95 27.25 33.5 27.3 33.3 29.8 32.4 31.85 31.45 33.8 30.75 35.5 30.25 35.4 30.05 35.0 30.05 Q34.95 29.6 33.0 29.3 L31.8 29.3 31.8 29.25 31.75 28.25 31.75 27.9 31.75 27.4 31.95 24.1 32.35 19.2 32.3 17.45 Q32.35 16.0 32.75 15.25 32.2 15.15 31.4 14.65 L30.4 13.9 30.1 13.95 29.95 13.8 29.95 13.3 29.95 13.2 29.95 13.1 29.95 12.65 29.95 12.15 30.0 11.55 30.05 11.45 30.05 11.4 30.05 11.35 Q29.05 11.75 28.3 12.1 L28.25 12.1 26.25 13.1 26.0 13.2 25.95 13.25 25.05 13.95 23.45 15.15 Q23.3 15.4 23.3 14.65 23.3 14.45 23.45 14.25 M30.75 13.5 L30.7 13.6 30.85 13.6 30.75 13.5 M12.75 4.95 L13.9 2.4 13.95 2.35 14.3 1.3 14.25 1.15 14.55 0.65 13.85 0.65 9.7 0.9 Q9.75 1.8 7.4 7.55 L7.45 7.65 6.7 10.25 6.05 12.35 4.65 16.1 5.35 16.75 5.75 17.15 7.2 14.85 7.4 14.6 7.4 14.5 8.1 13.35 8.25 13.1 8.3 13.05 8.75 12.1 9.45 10.85 9.95 9.95 10.05 9.8 10.2 9.5 10.6 8.75 11.55 7.1 12.05 6.3 12.1 6.1 12.3 5.7 12.6 5.3 12.75 4.95 M16.5 6.9 Q15.6 4.8 15.15 1.0 L14.9 1.65 14.9 1.75 14.6 2.8 14.3 2.75 13.05 4.9 11.4 7.8 Q9.8 10.6 9.25 12.3 L8.65 13.05 Q8.75 13.6 7.45 15.85 L6.4 17.6 6.5 17.75 6.65 17.85 7.15 18.15 7.4 18.3 7.6 17.95 7.6 17.85 Q8.4 16.6 10.55 13.8 13.7 9.75 15.95 7.95 L16.15 7.65 16.65 7.15 16.5 6.9 M8.65 22.05 L8.85 22.25 8.6 22.65 8.3 22.5 8.35 22.75 8.45 23.5 9.3 22.0 10.05 21.0 9.6 20.75 9.55 20.7 Q9.1 19.8 7.95 19.55 L5.1 17.35 3.7 16.6 3.05 16.35 1.95 15.4 1.3 16.45 0.85 17.45 0.65 17.85 1.3 18.5 1.5 18.75 1.5 18.9 1.6 18.95 2.55 19.5 3.4 20.25 3.5 20.35 3.55 20.4 3.6 20.45 3.65 20.55 3.65 20.7 3.7 20.85 3.85 20.85 4.25 20.75 4.25 20.7 5.2 20.8 5.75 21.2 Q5.9 21.0 6.2 20.9 L6.6 20.75 6.65 20.5 6.7 20.55 6.75 20.55 6.85 20.6 6.9 20.6 7.9 21.3 8.65 22.05 M4.05 21.35 L3.6 21.35 3.55 21.35 2.9 21.45 Q1.8 23.85 1.8 24.15 L2.0 24.65 2.2 25.0 2.2 25.1 2.25 25.2 Q2.8 26.0 3.65 25.9 L3.85 25.85 3.95 25.75 3.9 25.7 3.95 25.7 4.55 25.75 Q5.95 25.4 6.05 24.65 L4.8 24.5 4.75 24.4 4.6 23.75 Q4.5 22.75 4.95 22.05 L5.25 21.6 4.95 21.5 4.05 21.35 M7.1 21.75 L7.0 21.7 Q5.8 21.5 5.8 22.3 5.1 22.65 5.35 23.7 L5.55 23.9 5.55 24.05 5.65 24.15 6.3 24.1 6.7 24.0 7.15 23.9 7.65 23.2 7.65 23.1 7.3 22.0 7.2 22.05 7.1 21.75 M13.9 18.25 L13.9 18.15 13.8 18.15 13.9 18.25 M4.2 26.4 L3.35 26.7 3.4 26.55 2.15 26.25 2.0 26.2 1.9 26.35 1.75 26.65 1.65 26.75 1.25 27.75 2.65 28.7 3.15 28.85 Q3.65 27.2 4.35 26.45 L4.5 26.35 4.2 26.4 M15.1 47.6 L14.85 47.8 Q13.7 49.0 13.3 49.85 L14.0 50.85 15.45 52.7 16.0 53.6 16.8 54.7 16.85 54.65 17.7 55.8 17.7 55.85 17.8 55.85 18.0 56.0 18.0 56.5 17.95 56.85 Q17.8 57.05 17.8 57.2 L17.8 57.35 17.7 57.8 17.65 58.3 18.25 58.15 18.55 57.95 18.65 57.95 18.85 57.9 18.95 57.8 19.05 57.8 19.15 57.75 19.35 57.75 19.45 57.75 19.7 57.65 20.85 56.9 21.25 56.7 21.35 56.65 21.7 56.45 Q22.25 56.15 22.85 55.95 L22.95 55.95 23.5 55.8 23.55 55.75 23.85 55.55 23.1 54.75 22.75 54.05 22.6 54.1 Q20.75 52.05 20.75 51.5 L20.75 51.4 20.75 51.15 20.75 51.05 20.9 50.75 20.9 50.6 21.65 50.85 27.35 51.05 29.6 51.2 30.05 51.2 31.25 51.35 31.4 51.15 31.85 51.4 31.95 51.4 32.45 51.2 32.55 51.35 32.55 51.3 32.6 51.35 32.7 51.5 32.75 51.55 32.9 51.65 32.9 51.75 33.9 53.0 34.75 53.95 35.55 54.85 37.1 56.9 38.05 58.1 40.05 58.1 40.9 58.15 42.1 58.15 42.15 58.35 42.25 58.3 42.2 58.15 42.5 58.15 42.6 58.1 43.1 58.0 43.3 57.15 43.35 57.0 43.6 55.7 Q43.6 55.1 42.3 53.2 L41.05 51.55 40.3 50.5 39.35 49.45 39.1 49.2 37.55 46.8 37.45 46.7 37.35 46.55 37.05 46.4 36.45 46.0 33.4 46.8 29.6 47.15 28.65 47.15 28.4 47.15 25.45 47.1 25.25 47.15 24.4 47.15 24.55 47.15 24.3 47.15 22.5 47.1 22.35 47.0 22.05 47.0 21.2 46.95 21.2 47.0 20.95 46.95 20.4 46.95 20.1 46.9 16.5 45.9 16.25 46.05 16.4 46.15 15.6 46.9 15.3 47.25 15.1 47.6 M33.8 44.3 L33.75 44.35 32.85 44.4 32.8 44.45 Q32.35 44.25 31.1 44.45 L27.95 44.85 21.65 44.85 20.0 44.55 19.25 44.5 17.35 43.95 17.2 43.85 17.1 43.8 17.0 43.8 16.95 44.35 17.05 44.4 16.95 44.4 16.9 44.45 16.85 44.9 16.85 45.05 16.8 45.3 17.3 45.75 17.9 45.95 20.35 46.6 21.1 46.65 24.8 46.7 24.95 46.8 26.0 46.8 27.8 46.75 29.25 46.65 29.5 46.55 29.55 46.55 30.0 46.55 29.95 46.6 30.45 46.55 35.25 45.65 35.3 45.65 35.35 45.6 35.6 45.6 35.85 45.55 36.1 45.5 36.0 45.3 35.95 45.25 35.9 45.3 35.65 45.25 35.55 45.15 35.05 45.15 35.2 45.05 35.25 45.0 34.8 44.85 34.6 44.75 34.0 44.5 33.95 44.55 33.95 44.4 33.85 44.4 33.85 44.3 33.8 44.25 33.8 44.3" fill="#000000" fill-rule="evenodd" stroke="none"/>
    <path d="M41.65 32.2 L42.0 33.4 42.1 33.9 42.15 33.9 42.45 36.0 42.95 39.05 42.45 39.5 41.8 40.75 40.95 41.85 39.55 43.4 39.0 44.45 37.95 44.65 37.5 44.5 37.4 44.25 36.7 44.15 36.45 44.15 34.25 43.4 30.8 42.0 30.15 40.75 30.0 40.45 28.4 36.7 28.85 37.35 29.15 37.35 29.45 38.4 30.1 39.65 31.2 40.75 Q33.25 42.35 36.55 42.35 L37.5 42.0 37.95 42.3 38.25 42.0 38.45 41.85 38.45 41.7 39.2 40.75 39.35 40.55 40.1 39.6 40.8 38.5 41.15 38.25 41.3 38.0 41.3 37.5 41.3 37.25 41.25 37.05 41.05 36.95 40.95 37.0 40.4 33.6 40.35 33.45 40.3 33.25 40.1 32.55 40.15 32.45 Q40.7 31.95 41.65 32.2 M33.65 40.75 L33.55 40.7 33.5 40.7 33.5 40.65 33.65 40.75 M33.55 35.3 L33.65 35.4 Q34.25 36.35 34.65 38.45 35.35 40.2 37.45 40.75 L38.5 40.95 38.65 40.75 39.35 39.65 40.7 36.9 40.7 36.85 40.75 37.35 40.75 37.45 40.75 37.8 40.75 37.85 40.75 38.05 40.3 38.8 39.35 40.1 38.75 40.75 Q37.9 41.55 37.4 41.55 L37.25 41.55 36.85 41.5 36.85 41.4 36.7 41.3 36.45 41.3 36.3 41.3 36.15 41.3 35.6 41.3 34.9 41.15 34.2 40.75 34.05 40.65 33.7 40.2 33.5 40.15 Q33.3 39.0 31.7 36.55 L31.7 36.4 Q31.9 36.25 32.2 36.25 L32.0 35.95 33.55 35.3 M23.45 14.25 Q23.3 14.45 23.3 14.65 23.3 15.4 23.45 15.15 L25.05 13.95 24.1 16.1 24.0 16.4 24.55 16.05 Q25.65 15.45 26.5 15.15 L27.9 13.95 28.45 13.5 Q28.8 15.0 28.75 17.4 28.7 20.85 29.3 22.5 L29.25 22.6 28.8 22.15 27.95 22.25 Q27.65 22.35 27.3 22.6 L26.65 23.1 26.45 23.3 25.9 23.8 25.9 23.75 Q24.95 25.15 24.2 25.75 L24.35 26.2 24.4 26.4 27.55 26.5 27.8 26.5 Q28.8 26.35 29.2 25.35 29.9 26.45 29.9 27.6 L29.75 28.5 29.95 28.65 30.2 28.4 30.15 29.95 30.15 30.15 31.0 29.95 Q31.15 29.4 31.8 29.3 L33.0 29.3 Q34.95 29.6 35.0 30.05 L35.4 30.05 35.5 30.25 33.8 30.75 31.85 31.45 29.8 32.4 27.3 33.3 27.25 33.5 26.9 33.45 Q26.75 33.7 26.75 33.15 L20.2 33.65 18.65 33.55 18.65 34.05 18.6 34.05 Q18.25 34.35 17.9 35.65 L17.8 36.0 17.7 35.7 17.1 37.8 16.85 37.95 16.85 38.1 16.35 38.1 16.35 38.25 16.25 38.25 16.25 38.0 14.65 37.5 12.35 37.05 10.65 36.45 Q9.4 36.25 8.8 35.4 L8.65 35.15 8.25 34.6 6.3 32.05 6.1 31.75 6.05 31.7 5.25 30.55 4.85 30.0 4.8 29.9 4.15 29.0 4.5 28.0 4.45 28.0 5.1 26.7 9.1 29.75 10.9 30.4 11.05 30.6 12.9 31.1 13.7 31.35 13.8 31.4 13.85 31.4 14.1 31.5 14.7 31.6 14.8 31.65 Q15.15 32.0 15.95 31.95 L17.7 31.95 17.75 32.0 17.8 32.05 17.85 32.1 17.85 32.15 17.8 32.25 18.0 32.35 18.0 32.3 18.1 32.3 18.2 32.55 18.6 32.5 18.65 32.3 18.2 30.85 18.55 30.75 18.65 29.85 18.3 26.9 18.8 27.45 19.15 27.3 Q20.5 27.3 20.7 26.95 L20.75 26.75 20.8 26.15 20.75 25.6 20.75 25.55 20.7 25.35 20.6 25.25 20.35 24.9 20.35 24.75 19.55 24.05 18.05 24.0 17.8 24.0 17.65 23.2 16.55 17.55 20.4 14.75 20.0 15.75 19.8 16.3 20.7 16.0 Q22.25 14.6 23.45 14.25 M27.4 36.45 L28.3 38.45 28.3 38.85 28.5 38.85 29.5 40.75 30.2 41.85 29.95 42.0 30.9 42.85 31.4 42.8 31.5 42.9 31.55 43.15 32.0 43.35 32.1 43.2 32.15 43.25 32.15 43.65 32.25 43.7 31.15 43.95 31.0 43.95 30.95 43.95 29.35 44.25 28.4 44.4 28.65 44.25 28.2 44.25 24.0 44.4 20.8 44.15 20.8 44.1 18.6 43.9 18.1 43.8 17.3 43.4 17.4 42.55 17.85 42.6 17.9 42.6 21.5 42.7 25.85 42.75 28.35 42.1 27.95 41.0 27.6 40.95 27.9 40.85 27.9 40.75 27.8 40.55 Q26.9 37.9 26.9 37.2 26.9 36.6 27.05 36.45 L27.4 36.45 M8.3 13.0 L8.8 11.65 9.95 9.95 9.45 10.85 8.75 12.1 8.3 13.05 8.3 13.0 M10.6 8.75 L11.3 7.0 12.05 6.3 11.55 7.1 10.6 8.75 M12.6 5.3 L12.45 5.05 12.75 4.95 12.6 5.3 M16.5 6.9 L16.65 7.15 16.15 7.65 15.95 7.95 Q13.7 9.75 10.55 13.8 8.4 16.6 7.6 17.85 L7.6 17.95 7.45 18.1 7.15 18.15 6.65 17.85 6.5 17.75 6.4 17.6 7.45 15.85 Q8.75 13.6 8.65 13.05 L9.25 12.3 Q9.8 10.6 11.4 7.8 L13.05 4.9 Q13.7 5.0 14.75 5.7 L16.5 6.9 M16.15 7.65 L16.0 7.55 15.95 7.65 16.15 7.65 M2.55 19.5 L2.5 19.2 Q2.6 18.5 3.0 18.05 3.2 16.9 4.35 17.25 L4.65 17.2 4.6 17.35 4.75 17.3 4.85 17.2 5.0 17.5 Q6.4 18.2 8.8 20.4 L8.8 21.5 Q8.95 21.6 8.35 21.7 L7.9 21.3 6.9 20.6 6.85 20.6 6.75 20.55 6.7 20.55 6.65 20.5 6.6 20.75 6.2 20.9 Q5.9 21.0 5.75 21.2 L5.2 20.8 4.25 20.7 4.25 20.75 3.85 20.85 3.65 20.55 3.6 20.45 3.55 20.4 3.55 20.35 3.5 20.35 3.5 20.25 3.45 20.25 3.4 20.25 2.55 19.5 M3.95 25.7 L3.6 24.2 3.5 22.65 Q3.6 21.95 4.05 21.35 L4.95 21.5 Q4.85 21.6 4.9 21.85 L4.95 22.05 Q4.5 22.75 4.6 23.75 L4.75 24.4 4.8 24.5 6.05 24.65 Q5.95 25.4 4.55 25.75 L3.95 25.7 M7.1 21.75 L7.2 22.05 7.3 22.0 7.65 23.1 7.65 23.2 7.15 23.9 6.7 24.0 6.3 24.1 5.65 24.15 5.55 24.05 5.55 23.9 5.35 23.7 Q5.1 22.65 5.8 22.3 5.8 21.5 7.0 21.7 L7.1 21.75 M28.0 31.0 L28.1 30.95 28.2 31.0 29.2 30.1 29.7 29.55 29.65 28.75 29.6 28.1 29.4 28.1 29.3 28.1 28.8 28.35 27.2 28.85 25.6 29.1 24.55 29.35 24.25 29.4 24.15 29.45 24.15 29.4 23.55 29.5 22.35 29.5 22.25 29.5 19.9 29.5 19.6 29.5 19.3 29.5 18.75 29.5 18.9 29.8 19.0 29.8 19.05 29.85 19.05 30.0 19.1 30.0 19.45 30.6 19.7 31.15 19.95 31.15 20.15 31.15 20.35 31.55 20.5 31.45 21.2 31.6 22.6 31.9 22.75 31.85 27.25 31.5 27.4 31.45 27.5 31.4 28.0 31.0 M2.15 26.25 L3.4 26.55 3.35 26.7 4.2 26.4 4.35 26.45 Q3.65 27.2 3.15 28.85 L2.65 28.7 1.25 27.75 1.65 26.75 1.75 26.65 1.9 26.35 2.15 26.25 M20.1 46.9 L20.4 46.95 20.95 46.95 21.2 47.0 21.2 46.95 22.05 47.0 22.35 47.0 22.5 47.1 24.3 47.15 24.55 47.15 24.4 47.15 25.25 47.15 25.45 47.1 28.4 47.15 28.65 47.15 29.6 47.15 33.4 46.8 36.45 46.0 36.35 46.35 37.0 47.55 37.4 48.25 39.6 51.15 42.95 56.4 43.05 56.55 43.35 57.0 43.3 57.15 43.1 58.0 42.6 58.1 42.5 58.15 42.2 58.15 42.25 58.3 42.15 58.35 42.1 58.15 40.9 58.15 41.05 57.95 Q41.5 57.55 42.25 57.3 L42.0 56.9 38.95 53.7 34.45 48.9 34.2 48.85 33.6 49.65 Q32.65 50.7 32.7 51.5 L32.6 51.35 32.55 51.3 32.55 51.35 32.45 51.2 31.95 51.4 31.85 51.4 31.4 51.15 31.25 51.35 30.05 51.2 30.05 51.1 29.6 51.2 27.35 51.05 21.65 50.85 20.9 50.6 20.9 50.75 20.75 51.05 20.75 51.15 20.75 51.4 20.15 51.0 22.85 55.95 Q22.25 56.15 21.7 56.45 L21.65 56.45 18.25 53.7 14.8 50.3 19.05 47.75 19.15 47.7 19.05 47.7 19.2 47.45 19.65 47.45 19.8 47.35 20.05 46.9 20.1 46.9 M16.9 44.45 L16.95 44.4 17.05 44.4 16.95 44.35 17.0 43.8 17.1 43.8 17.2 43.85 17.35 43.95 19.25 44.5 20.0 44.55 21.65 44.85 27.95 44.85 31.1 44.45 Q32.35 44.25 32.8 44.45 L32.85 44.4 33.75 44.35 33.8 44.3 33.85 44.3 33.85 44.4 33.95 44.4 33.95 44.55 34.0 44.5 34.6 44.75 34.8 44.85 35.2 45.05 35.05 45.15 35.55 45.15 35.65 45.25 35.9 45.3 35.95 45.25 36.0 45.3 36.1 45.5 35.85 45.55 35.6 45.6 35.35 45.6 35.3 45.65 35.25 45.65 30.45 46.55 29.95 46.6 30.0 46.55 29.55 46.55 29.5 46.55 29.25 46.65 27.8 46.75 26.0 46.8 24.95 46.8 24.8 46.7 21.1 46.65 20.35 46.6 17.9 45.95 17.3 45.75 16.8 45.3 16.85 45.05 17.1 44.95 16.9 44.45" fill="#1aa6e0" fill-rule="evenodd" stroke="none"/>
    <path d="M28.4 36.7 L28.1 35.95 27.6 34.7 27.55 34.45 28.2 34.05 31.55 32.8 32.35 32.4 32.55 32.35 Q33.4 31.9 34.2 31.55 L34.25 31.5 40.65 29.3 41.25 31.0 41.35 31.15 41.65 32.2 Q40.7 31.95 40.15 32.45 L40.1 32.55 40.05 32.25 40.1 32.2 39.85 32.3 38.9 32.55 36.65 33.4 34.7 34.1 31.35 36.0 31.25 35.85 31.1 36.05 31.1 36.1 31.15 36.25 31.25 36.7 31.4 36.9 31.4 36.85 31.95 38.6 Q32.45 40.0 33.15 40.75 L33.25 40.85 33.5 40.7 33.55 40.7 33.65 40.75 35.0 41.4 37.45 42.0 37.5 42.0 36.55 42.35 Q33.25 42.35 31.2 40.75 L30.1 39.65 29.45 38.4 29.15 37.35 28.85 37.35 28.4 36.7 M40.7 36.85 L40.7 36.9 39.35 39.65 38.65 40.75 38.5 40.95 37.45 40.75 Q35.35 40.2 34.65 38.45 34.25 36.35 33.65 35.4 L33.55 35.3 35.5 34.5 37.35 33.65 37.55 33.65 38.35 33.25 Q38.5 32.55 38.9 33.0 L39.3 32.75 39.5 33.0 39.5 33.1 39.5 33.55 Q40.45 35.3 40.7 36.85 M31.7 36.4 L31.7 36.55 31.65 36.45 31.7 36.4 M20.4 14.75 L20.55 14.65 21.4 14.05 24.4 11.85 24.25 12.15 23.9 13.25 23.75 13.9 23.45 14.25 Q22.25 14.6 20.7 16.0 L19.8 16.3 20.0 15.75 20.4 14.75 M25.05 13.95 L25.95 13.25 26.0 13.2 26.25 13.1 28.25 12.1 28.3 12.1 Q29.05 11.75 30.05 11.35 L30.05 11.4 30.05 11.45 30.0 11.55 29.95 12.15 29.95 12.65 29.95 13.1 29.95 13.2 29.95 13.3 29.95 13.8 30.1 13.95 30.4 13.9 31.4 14.65 Q32.2 15.15 32.75 15.25 32.35 16.0 32.3 17.45 L32.35 19.2 31.95 24.1 31.75 27.4 31.75 27.9 31.75 28.25 31.8 29.25 31.8 29.3 Q31.15 29.4 31.0 29.95 L30.15 30.15 30.15 29.95 30.2 28.4 29.95 28.65 29.75 28.5 29.9 27.6 Q29.9 26.45 29.2 25.35 L29.4 24.9 29.35 24.6 29.4 23.8 29.25 22.6 29.3 22.5 Q28.7 20.85 28.75 17.4 28.8 15.0 28.45 13.5 L27.9 13.95 26.5 15.15 Q25.65 15.45 24.55 16.05 L24.0 16.4 24.1 16.1 25.05 13.95 M27.25 33.5 L26.95 33.95 26.6 34.55 26.75 35.1 27.25 36.05 27.4 36.45 27.05 36.45 Q26.9 36.6 26.9 37.2 26.9 37.9 27.8 40.55 L27.9 40.75 27.9 40.85 27.6 40.95 27.95 41.0 28.35 42.1 25.85 42.75 21.5 42.7 17.9 42.6 17.85 42.6 17.4 42.55 17.45 42.25 17.5 41.95 17.5 41.9 17.5 41.75 17.55 41.75 17.45 40.75 17.45 40.5 Q17.45 39.0 17.7 37.7 L17.6 37.1 17.8 36.0 17.9 35.65 Q18.25 34.35 18.6 34.05 L18.65 34.05 18.65 33.55 20.2 33.65 26.75 33.15 Q26.75 33.7 26.9 33.45 L27.25 33.5 M28.3 38.45 L28.4 38.65 28.45 38.75 28.5 38.85 28.3 38.85 28.3 38.45 M5.1 26.7 L5.1 26.5 5.05 26.4 5.25 26.4 5.3 26.4 6.55 25.1 6.6 24.8 6.85 24.75 6.8 24.9 7.15 25.15 7.05 25.35 7.5 25.85 7.85 26.55 7.9 26.65 8.35 26.95 9.35 28.45 Q10.05 29.55 10.85 30.3 L10.85 30.35 10.9 30.4 9.1 29.75 5.1 26.7 M13.7 31.35 L13.7 31.25 13.8 31.4 13.7 31.35 M13.85 31.4 L13.85 31.35 14.7 31.6 14.1 31.5 13.85 31.4 M17.75 32.0 L17.75 31.95 17.8 32.05 17.75 32.0 M17.85 32.15 L18.0 32.3 18.0 32.35 17.8 32.25 17.85 32.15 M18.2 30.85 L17.0 27.2 16.7 26.3 16.5 25.6 16.45 25.5 16.3 24.9 14.75 18.65 14.9 18.5 15.45 18.35 16.55 17.55 17.65 23.2 17.8 24.0 17.7 24.4 17.6 24.4 17.5 24.4 17.65 25.0 17.55 25.3 17.55 25.35 17.9 26.15 18.3 26.9 18.65 29.85 18.55 30.75 18.2 30.85 M20.85 15.75 L20.95 15.6 21.2 14.95 20.85 15.75 M8.25 13.1 L8.1 13.35 7.4 14.5 7.4 14.6 7.2 14.85 5.75 17.15 5.35 16.75 4.65 16.1 6.05 12.35 6.7 10.25 7.45 7.65 7.4 7.55 Q9.75 1.8 9.7 0.9 L13.85 0.65 14.55 0.65 14.25 1.15 14.3 1.3 13.95 2.35 13.9 2.4 12.75 4.95 12.45 5.05 12.6 5.3 12.3 5.7 12.1 6.1 12.05 6.3 11.3 7.0 10.6 8.75 10.2 9.5 10.05 9.8 9.95 9.95 8.8 11.65 8.3 13.0 8.25 13.1 M13.05 4.9 L14.3 2.75 14.6 2.8 14.9 1.75 14.9 1.65 15.15 1.0 Q15.6 4.8 16.5 6.9 L14.75 5.7 Q13.7 5.0 13.05 4.9 M7.6 17.95 L7.4 18.3 7.15 18.15 7.45 18.1 7.6 17.95 M16.15 7.65 L15.95 7.65 16.0 7.55 16.15 7.65 M2.55 19.5 L1.6 18.95 1.5 18.9 1.5 18.75 1.3 18.5 0.65 17.85 0.85 17.45 1.3 16.45 1.95 15.4 3.05 16.35 3.7 16.6 5.1 17.35 7.95 19.55 Q9.1 19.8 9.55 20.7 L9.6 20.75 10.05 21.0 9.3 22.0 8.45 23.5 8.35 22.75 8.3 22.5 8.6 22.65 8.85 22.25 8.65 22.05 8.35 21.7 Q8.95 21.6 8.8 21.5 L8.8 20.4 Q6.4 18.2 5.0 17.5 L4.85 17.2 4.75 17.3 4.6 17.35 4.65 17.2 4.35 17.25 Q3.2 16.9 3.0 18.05 2.6 18.5 2.5 19.2 L2.55 19.5 M3.85 20.85 L3.7 20.85 3.65 20.7 3.65 20.55 3.85 20.85 M3.45 20.25 L3.5 20.25 3.5 20.35 3.45 20.25 M3.95 25.7 L3.9 25.7 3.95 25.75 3.85 25.85 3.65 25.9 Q2.8 26.0 2.25 25.2 L2.2 25.1 2.2 25.0 2.0 24.65 1.8 24.15 Q1.8 23.85 2.9 21.45 L3.55 21.35 3.6 21.35 4.05 21.35 Q3.6 21.95 3.5 22.65 L3.6 24.2 3.95 25.7 M4.95 21.5 L5.25 21.6 4.95 22.05 4.9 21.85 Q4.85 21.6 4.95 21.5 M18.7 24.85 L18.8 24.85 18.7 24.9 18.7 24.85 M18.9 24.8 L18.95 24.8 18.9 24.85 18.9 24.8 M27.4 31.45 L27.75 31.2 28.0 30.95 28.0 31.0 27.5 31.4 27.4 31.45 M2.15 26.25 L1.9 26.35 2.0 26.2 2.15 26.25 M4.35 26.45 L4.2 26.4 4.5 26.35 4.35 26.45 M21.35 56.65 L21.25 56.7 20.85 56.9 19.7 57.65 19.45 57.75 19.35 57.75 19.15 57.75 19.05 57.8 18.95 57.8 18.85 57.9 18.65 57.95 18.55 57.95 18.25 58.15 17.65 58.3 17.7 57.8 17.8 57.35 17.8 57.2 Q17.8 57.05 17.95 56.85 L18.0 56.5 18.0 56.0 17.8 55.85 17.7 55.85 17.7 55.8 16.85 54.65 16.8 54.7 16.0 53.6 15.45 52.7 14.0 50.85 13.3 49.85 Q13.7 49.0 14.85 47.8 L15.1 47.6 15.4 47.35 15.3 47.25 15.6 46.9 16.4 46.15 16.25 46.05 16.5 45.9 20.1 46.9 20.05 46.9 19.8 47.35 19.65 47.45 19.2 47.45 19.05 47.7 19.15 47.7 19.05 47.75 14.8 50.3 18.25 53.7 21.65 56.45 21.35 56.65 M36.45 46.0 L37.05 46.4 37.35 46.55 37.45 46.7 37.55 46.8 39.1 49.2 39.35 49.45 40.3 50.5 41.05 51.55 42.3 53.2 Q43.6 55.1 43.6 55.7 L43.35 57.0 43.05 56.55 42.95 56.4 39.6 51.15 37.4 48.25 37.0 47.55 36.35 46.35 36.45 46.0 M40.9 58.15 L40.05 58.1 38.05 58.1 37.1 56.9 35.55 54.85 34.75 53.95 33.9 53.0 32.9 51.75 32.9 51.65 32.75 51.55 32.7 51.5 Q32.65 50.7 33.6 49.65 L34.2 48.85 34.45 48.9 38.95 53.7 42.0 56.9 42.25 57.3 Q41.5 57.55 41.05 57.95 L40.9 58.15 M30.05 51.2 L29.6 51.2 30.05 51.1 30.05 51.2 M20.75 51.4 L20.75 51.5 Q20.75 52.05 22.6 54.1 L22.75 54.05 23.1 54.75 23.85 55.55 23.55 55.75 23.5 55.8 22.95 55.95 22.85 55.95 20.15 51.0 20.75 51.4 M34.8 44.85 L35.25 45.0 35.2 45.05 34.8 44.85 M16.85 45.05 L16.85 44.9 16.9 44.45 17.1 44.95 16.85 45.05 M27.6 29.15 L27.65 29.2 27.25 29.2 27.75 29.0 27.6 29.15 M22.05 31.2 L24.5 31.25 24.1 31.25 22.6 31.3 22.35 31.25 22.05 31.2" fill="#2dbcf8" fill-rule="evenodd" stroke="none"/>
    <path d="M20.85 15.75 L21.2 14.95 20.95 15.6 20.85 15.75" fill="#186484" fill-rule="evenodd" stroke="none"/>
    <path d="M29.2 25.35 Q28.8 26.35 27.8 26.5 L27.55 26.5 24.4 26.4 24.35 26.2 24.2 25.75 Q24.95 25.15 25.9 23.75 L25.9 23.8 26.45 23.3 26.65 23.1 27.3 22.6 Q27.65 22.35 27.95 22.25 L28.8 22.15 29.25 22.6 29.4 23.8 29.35 24.6 29.4 24.9 29.2 25.35 M18.3 26.9 L17.9 26.15 17.55 25.35 17.55 25.3 17.65 25.0 17.5 24.4 17.6 24.4 17.7 24.4 17.8 24.0 18.05 24.0 19.55 24.05 20.35 24.75 20.35 24.9 20.6 25.25 20.7 25.35 20.75 25.55 20.75 25.6 20.8 26.15 20.75 26.75 20.7 26.95 Q20.5 27.3 19.15 27.3 L18.8 27.45 18.3 26.9 M18.9 24.8 L18.9 24.85 18.95 24.8 18.9 24.8 M18.7 24.85 L18.7 24.9 18.8 24.85 18.7 24.85 M19.05 29.85 L19.0 29.8 18.9 29.8 18.75 29.5 19.3 29.5 19.6 29.5 19.9 29.5 22.25 29.5 22.35 29.5 23.55 29.5 24.15 29.4 24.15 29.45 24.25 29.4 24.55 29.35 25.6 29.1 27.2 28.85 28.8 28.35 29.3 28.1 29.4 28.1 29.6 28.1 29.65 28.75 29.7 29.55 29.2 30.1 28.2 31.0 28.1 30.95 28.0 31.0 28.0 30.95 27.75 31.2 27.4 31.45 27.25 31.5 22.75 31.85 22.6 31.9 21.2 31.6 20.5 31.45 20.35 31.55 20.15 31.15 19.95 31.15 19.7 31.15 19.45 30.6 19.1 30.0 19.05 29.85 M27.6 29.15 L27.75 29.0 27.25 29.2 27.65 29.2 27.6 29.15 M27.9 28.95 L28.0 29.05 28.0 28.9 27.9 28.95 M22.35 31.25 L22.6 31.3 24.1 31.25 24.5 31.25 22.05 31.2 22.0 31.2 22.35 31.25" fill="#ffffff" fill-rule="evenodd" stroke="none"/>
  </g>
</svg>
