<?xml version="1.0" encoding="UTF-8" standalone="no"?>
<svg xmlns:ffdec="https://www.free-decompiler.com/flash" xmlns:xlink="http://www.w3.org/1999/xlink" ffdec:objectType="shape" height="91.7px" width="84.6px" xmlns="http://www.w3.org/2000/svg">
  <g transform="matrix(1.0, 0.0, 0.0, 1.0, 42.3, 45.85)">
    <path d="M-42.0 -21.35 L-42.2 -21.7 -42.2 -26.3 -41.9 -32.15 -41.4 -37.55 -40.95 -40.3 -40.55 -42.0 -40.3 -42.45 -40.3 -42.75 -36.85 -44.05 -31.4 -45.85 -30.9 -44.95 -30.5 -44.2 -29.75 -43.4 -28.5 -41.9 -27.45 -40.15 -24.85 -36.45 -24.35 -35.75 -23.0 -36.15 -22.45 -35.2 -22.05 -34.5 -21.3 -33.7 -20.05 -32.2 -19.05 -30.45 -17.4 -28.0 -15.25 -28.7 -14.7 -27.8 -14.2 -27.0 -13.55 -26.2 -12.3 -24.7 -11.25 -23.0 -8.6 -19.25 -7.2 -17.35 -5.8 -17.85 -5.85 -17.9 -5.65 -18.0 -4.1 -18.4 -4.1 -18.35 -3.7 -18.15 -3.65 -17.95 Q7.55 -6.3 20.7 2.65 L20.65 2.75 31.4 9.8 31.45 9.85 42.3 15.95 26.45 44.35 26.2 45.1 26.1 45.15 25.75 45.85 16.4 43.55 9.2 40.7 Q4.5 38.45 -3.15 33.95 -15.0 26.75 -22.3 18.9 L-22.45 18.9 -22.7 18.5 -22.65 18.5 Q-22.85 16.65 -19.9 5.55 L-17.7 -2.0 -21.6 -2.9 -25.0 -3.95 Q-25.4 -3.9 -25.7 -4.2 L-25.9 -4.5 -25.9 -9.1 -25.9 -9.75 -29.45 -10.45 -32.9 -11.45 Q-33.25 -11.35 -33.55 -11.7 L-33.75 -12.0 -33.75 -16.6 -33.6 -19.25 -38.0 -20.25 Q-41.7 -21.0 -41.95 -21.4 L-42.0 -21.35 M-8.35 -16.8 L-8.5 -16.95 -10.8 -19.95 -13.4 -22.8 -14.65 -24.15 -15.05 -24.4 -15.45 -25.15 -15.95 -24.95 -17.65 -24.65 -19.95 -24.1 -21.35 -23.75 -13.3 -15.3 -13.5 -15.15 -22.0 -22.55 Q-22.15 -20.0 -22.65 -15.75 -23.4 -8.95 -24.1 -5.8 L-22.5 -5.4 -20.1 -4.7 -17.95 -4.2 -17.2 -3.95 -17.05 -4.35 -16.95 -4.25 -16.45 -6.05 -15.3 -8.95 -14.1 -12.65 Q-13.4 -14.4 -13.1 -14.55 L-13.05 -14.75 -13.05 -14.85 -12.8 -14.85 -12.7 -14.95 -10.05 -15.95 -8.0 -16.6 -8.0 -16.65 Q-8.0 -16.8 -8.35 -16.8 M-18.9 -27.7 L-21.25 -30.3 -22.5 -31.7 -22.8 -31.9 -23.25 -32.65 -23.8 -32.4 -25.45 -32.15 -27.75 -31.55 -29.6 -31.1 -24.4 -25.6 -24.45 -25.45 -24.45 -25.35 -29.8 -29.65 -30.45 -23.2 Q-31.25 -16.4 -31.95 -13.3 L-30.25 -12.95 -27.85 -12.2 -25.85 -11.7 -25.85 -11.75 -25.5 -14.6 -24.9 -18.6 -24.4 -22.65 -24.25 -24.6 -24.15 -25.05 -24.15 -25.1 Q-23.95 -25.6 -22.95 -25.9 L-21.6 -26.25 -18.5 -27.55 -18.5 -27.6 -18.9 -27.7 M-39.6 -43.4 L-39.05 -43.4 -40.05 -43.15 -39.6 -43.4 M-25.7 -35.35 L-27.05 -37.1 -29.65 -40.0 -30.95 -41.35 -31.25 -41.55 -31.7 -42.35 -32.2 -42.1 -33.9 -41.85 -36.15 -41.25 -38.2 -40.8 -38.2 -40.65 -32.4 -33.4 -38.25 -39.45 -38.85 -32.9 Q-39.65 -26.1 -40.35 -23.0 L-38.7 -22.6 -36.3 -21.85 -34.15 -21.35 -33.5 -21.2 -33.45 -21.35 -33.25 -23.75 -32.7 -27.65 Q-32.45 -28.8 -32.15 -31.4 L-32.05 -32.4 -31.85 -32.85 -31.7 -33.05 -31.7 -33.1 -31.4 -33.2 -31.3 -33.3 -29.35 -34.0 -28.05 -34.25 -25.9 -34.85 Q-25.45 -35.1 -25.5 -35.3 L-25.7 -35.35 M32.15 17.6 L32.15 17.55 38.2 16.65 32.25 13.45 Q29.0 11.55 25.4 8.9 L4.2 -6.4 Q-2.2 -11.3 -4.2 -13.95 L-4.45 -14.05 -5.4 -14.95 -5.5 -15.15 -9.45 -14.1 -11.5 -14.05 10.15 5.5 10.1 5.55 Q6.85 3.4 -1.5 -3.4 -8.15 -8.8 -10.85 -11.65 L-12.15 -13.05 -12.3 -12.65 -13.25 -8.25 -13.15 -8.2 -13.5 -7.0 -13.5 -6.75 -13.6 -6.9 -14.35 -3.65 -15.65 1.55 -19.55 17.6 Q-8.5 27.15 -1.15 31.9 L5.9 35.95 Q14.5 40.45 24.4 43.45 L24.4 42.75 24.9 39.65 25.6 36.25 25.75 35.5 26.4 33.15 26.85 31.2 Q27.2 29.25 27.8 27.4 L27.95 27.05 28.15 27.15 25.15 42.95 35.85 22.55 Q37.25 19.35 38.7 17.3 L32.2 17.65 32.15 17.6 M17.35 19.45 L17.4 19.4 Q17.9 18.55 18.2 18.75 L18.55 18.55 Q20.5 17.9 21.6 18.55 L23.9 20.5 24.05 20.7 24.5 21.3 24.55 21.75 Q25.0 23.05 24.65 25.35 L24.15 26.9 Q23.55 28.5 22.25 28.95 21.0 29.4 19.95 28.6 L18.85 27.75 18.6 27.4 Q17.6 26.15 16.95 24.35 L16.6 21.4 Q16.75 20.5 17.35 19.45 M23.4 21.7 L22.45 20.5 21.0 19.75 20.8 20.35 Q20.4 21.85 20.85 23.1 21.4 24.7 22.5 26.3 23.4 25.85 23.6 24.0 23.7 22.6 23.4 21.7 M18.75 19.05 L18.2 19.5 17.25 21.2 17.2 21.5 17.2 22.65 17.6 24.05 18.35 25.6 19.9 27.65 19.9 27.7 20.4 28.15 21.8 28.05 22.25 27.75 21.45 27.25 20.5 26.2 Q19.55 24.7 19.15 23.6 L18.85 21.15 19.1 20.0 19.25 19.6 19.55 19.0 18.75 19.05" fill="#000000" fill-rule="evenodd" stroke="none"/>
    <path d="M-13.3 -15.3 L-13.15 -15.4 -11.2 -15.9 -8.7 -16.7 -8.35 -16.8 Q-8.0 -16.8 -8.0 -16.65 L-8.0 -16.6 -10.05 -15.95 -12.7 -14.95 -12.8 -14.85 -13.05 -14.85 -13.05 -14.75 -13.1 -14.55 Q-13.4 -14.4 -14.1 -12.65 L-15.3 -8.95 -16.45 -6.05 -16.95 -4.25 -17.05 -4.35 -17.1 -4.4 Q-17.25 -4.95 -15.35 -9.9 -15.0 -10.6 -14.1 -13.45 L-13.55 -15.0 -13.5 -15.15 -13.3 -15.3 M-24.4 -25.6 L-24.35 -25.6 -24.3 -25.75 -24.25 -25.7 -23.3 -26.15 -19.05 -27.65 -18.9 -27.7 -18.5 -27.6 -18.5 -27.55 -21.6 -26.25 -22.95 -25.9 Q-23.95 -25.6 -24.15 -25.1 L-24.15 -25.05 -24.25 -24.6 -24.4 -22.65 -24.9 -18.6 -25.5 -14.6 -25.85 -11.75 -26.05 -12.0 -25.9 -15.15 -25.45 -18.85 -25.05 -22.3 -24.45 -25.35 -24.45 -25.45 -24.4 -25.6 M-32.1 -33.05 L-32.1 -33.25 -32.1 -33.3 -32.0 -33.4 -31.7 -33.55 -31.1 -33.8 -27.8 -34.8 -25.75 -35.35 -25.7 -35.35 -25.5 -35.3 Q-25.45 -35.1 -25.9 -34.85 L-28.05 -34.25 -29.35 -34.0 -31.3 -33.3 -31.7 -33.25 -31.7 -33.1 -31.7 -33.05 -31.85 -32.85 -32.05 -32.4 -32.15 -31.4 Q-32.45 -28.8 -32.7 -27.65 L-33.25 -23.75 -33.45 -21.35 Q-33.65 -21.35 -33.7 -21.5 L-33.75 -21.7 -33.2 -27.8 -32.7 -30.95 -32.1 -33.05" fill="#017647" fill-rule="evenodd" stroke="none"/>
    <path d="M-13.3 -15.3 L-21.35 -23.75 -19.95 -24.1 -17.65 -24.65 -15.95 -24.95 -15.45 -25.15 -15.05 -24.4 -14.65 -24.15 -13.4 -22.8 -10.8 -19.95 -8.5 -16.95 -8.35 -16.8 -8.7 -16.7 -11.2 -15.9 -13.15 -15.4 -13.3 -15.3 M-18.9 -27.7 L-19.05 -27.65 -23.3 -26.15 -24.25 -25.7 -24.3 -25.75 -24.35 -25.6 -24.4 -25.6 -29.6 -31.1 -27.75 -31.55 -25.45 -32.15 -23.8 -32.4 -23.25 -32.65 -22.8 -31.9 -22.5 -31.7 -21.25 -30.3 -18.9 -27.7 M-32.4 -33.4 L-38.2 -40.65 -38.2 -40.8 -36.15 -41.25 -33.9 -41.85 -32.2 -42.1 -31.7 -42.35 -31.25 -41.55 -30.95 -41.35 -29.65 -40.0 -27.05 -37.1 -25.7 -35.35 -25.75 -35.35 -27.8 -34.8 -31.1 -33.8 -31.7 -33.55 -32.0 -33.4 -32.1 -33.3 -32.1 -33.25 -32.1 -33.05 -32.4 -33.4 M-12.95 -17.7 L-13.05 -17.8 -13.4 -17.7 -13.25 -17.5 -13.0 -17.6 -12.95 -17.7" fill="url(#gradient0)" fill-rule="evenodd" stroke="none"/>
    <path d="M-31.3 -33.3 L-31.4 -33.2 -31.7 -33.1 -31.7 -33.25 -31.3 -33.3" fill="url(#gradient1)" fill-rule="evenodd" stroke="none"/>
    <path d="M-17.05 -4.35 L-17.2 -3.95 -17.95 -4.2 -20.1 -4.7 -22.5 -5.4 -24.1 -5.8 Q-23.4 -8.95 -22.65 -15.75 -22.15 -20.0 -22.0 -22.55 L-13.5 -15.15 -13.55 -15.0 -14.1 -13.45 Q-15.0 -10.6 -15.35 -9.9 -17.25 -4.95 -17.1 -4.4 L-17.05 -4.35 M-24.45 -25.35 L-25.05 -22.3 -25.45 -18.85 -25.9 -15.15 -26.05 -12.0 -25.85 -11.75 -25.85 -11.7 -27.85 -12.2 -30.25 -12.95 -31.95 -13.3 Q-31.25 -16.4 -30.45 -23.2 L-29.8 -29.65 -24.45 -25.35 M-32.4 -33.4 L-32.1 -33.05 -32.7 -30.95 -33.2 -27.8 -33.75 -21.7 -33.7 -21.5 Q-33.65 -21.35 -33.45 -21.35 L-33.5 -21.2 -34.15 -21.35 -36.3 -21.85 -38.7 -22.6 -40.35 -23.0 Q-39.65 -26.1 -38.85 -32.9 L-38.25 -39.45 -32.4 -33.4" fill="url(#gradient2)" fill-rule="evenodd" stroke="none"/>
    <path d="M10.15 5.5 L-11.5 -14.05 -9.45 -14.1 -5.5 -15.15 -5.4 -14.95 -4.45 -14.05 -4.2 -13.95 Q-2.2 -11.3 4.2 -6.4 L25.4 8.9 Q29.0 11.55 32.25 13.45 L38.2 16.65 32.15 17.55 32.15 17.6 31.75 17.6 31.5 17.7 30.15 17.9 27.35 17.0 10.15 5.5" fill="url(#gradient3)" fill-rule="evenodd" stroke="none"/>
    <path d="M-12.95 -17.7 L-13.0 -17.6 -13.25 -17.5 -13.4 -17.7 -13.05 -17.8 -12.95 -17.7" fill="url(#gradient4)" fill-rule="evenodd" stroke="none"/>
    <path d="M-13.5 -7.0 L-13.15 -8.2 -13.25 -8.25 -12.3 -12.65 -12.15 -13.05 -10.85 -11.65 Q-8.15 -8.8 -1.5 -3.4 6.85 3.4 10.1 5.55 L10.15 5.5 27.35 17.0 30.15 17.9 30.0 18.15 29.55 19.7 29.45 19.9 29.3 20.9 24.05 20.7 23.9 20.5 21.6 18.55 Q20.5 17.9 18.55 18.55 L18.2 18.75 Q17.9 18.55 17.4 19.4 L17.35 19.45 15.1 18.85 4.85 14.65 Q-8.25 7.65 -12.95 -5.3 L-13.5 -7.0" fill="#848484" fill-rule="evenodd" stroke="none"/>
    <path d="M-14.35 -3.65 L-13.6 -6.9 -13.5 -6.75 -13.5 -7.0 -12.95 -5.3 Q-8.25 7.65 4.85 14.65 L15.1 18.85 17.35 19.45 Q16.75 20.5 16.6 21.4 L16.95 24.35 Q17.6 26.15 18.6 27.4 L18.85 27.75 17.1 27.85 Q10.8 27.85 4.65 25.25 L3.4 24.75 Q-8.0 19.45 -11.7 9.35 -13.05 5.5 -13.9 -0.3 L-14.35 -3.65 M24.05 20.7 L29.3 20.9 29.25 21.45 28.25 25.55 25.55 26.4 25.45 26.65 24.15 26.9 24.65 25.35 Q25.0 23.05 24.55 21.75 L24.5 21.3 24.05 20.7" fill="#5f6160" fill-rule="evenodd" stroke="none"/>
    <path d="M27.8 27.4 Q27.2 29.25 26.85 31.2 L26.4 33.15 Q21.85 33.65 17.1 33.3 10.55 32.75 5.1 30.55 L2.85 29.5 Q-4.5 25.9 -8.15 22.15 -11.7 18.45 -13.9 12.45 -15.5 7.95 -15.8 4.9 L-15.65 1.55 -14.35 -3.65 -13.9 -0.3 Q-13.05 5.5 -11.7 9.35 -8.0 19.45 3.4 24.75 L4.65 25.25 Q10.8 27.85 17.1 27.85 L18.85 27.75 19.95 28.6 Q21.0 29.4 22.25 28.95 23.55 28.5 24.15 26.9 L25.45 26.65 25.55 26.4 28.25 25.55 27.8 27.4" fill="#e9e9e9" fill-rule="evenodd" stroke="none"/>
    <path d="M32.15 17.6 L32.2 17.65 38.7 17.3 Q37.25 19.35 35.85 22.55 L25.15 42.95 28.15 27.15 27.95 27.05 27.8 27.4 28.25 25.55 29.25 21.45 29.3 20.9 29.45 19.9 29.55 19.7 30.0 18.15 30.15 17.9 31.5 17.7 31.75 17.6 32.15 17.6 M25.6 36.25 L24.9 39.65 24.4 42.75 Q24.4 41.15 25.45 36.65 L25.6 36.25" fill="url(#gradient5)" fill-rule="evenodd" stroke="none"/>
    <path d="M18.75 19.05 L19.55 19.0 19.25 19.6 19.1 20.0 18.85 21.15 19.15 23.6 Q19.55 24.7 20.5 26.2 L21.45 27.25 22.25 27.75 21.8 28.05 20.4 28.15 19.9 27.7 19.9 27.65 18.35 25.6 17.6 24.05 17.2 22.65 17.2 21.5 17.25 21.2 18.2 19.5 18.75 19.05" fill="url(#gradient6)" fill-rule="evenodd" stroke="none"/>
    <path d="M26.4 33.15 L25.75 35.5 25.6 36.25 25.45 36.65 Q24.4 41.15 24.4 42.75 L24.4 43.45 Q14.5 40.45 5.9 35.95 L-1.15 31.9 Q-8.5 27.15 -19.55 17.6 L-15.65 1.55 -15.8 4.9 Q-15.5 7.95 -13.9 12.45 -11.7 18.45 -8.15 22.15 -4.5 25.9 2.85 29.5 L5.1 30.55 Q10.55 32.75 17.1 33.3 21.85 33.65 26.4 33.15" fill="#c2c2c2" fill-rule="evenodd" stroke="none"/>
  </g>
  <defs>
    <linearGradient gradientTransform="matrix(0.0, 0.0, 0.0, 0.0, -511.95, -204.75)" gradientUnits="userSpaceOnUse" id="gradient0" spreadMethod="pad" x1="-819.2" x2="819.2">
      <stop offset="0.0" stop-color="#00a66a"/>
      <stop offset="1.0" stop-color="#ffffff"/>
    </linearGradient>
    <linearGradient gradientTransform="matrix(0.0018, 0.0014, -0.0077, 0.0099, -35.4, -32.25)" gradientUnits="userSpaceOnUse" id="gradient1" spreadMethod="pad" x1="-819.2" x2="819.2">
      <stop offset="0.0" stop-color="#9ae0fe"/>
      <stop offset="1.0" stop-color="#ffffff"/>
    </linearGradient>
    <linearGradient gradientTransform="matrix(0.0059, -0.0068, 0.0065, 0.0056, -28.25, -28.35)" gradientUnits="userSpaceOnUse" id="gradient2" spreadMethod="pad" x1="-819.2" x2="819.2">
      <stop offset="0.0" stop-color="#00a66a"/>
      <stop offset="1.0" stop-color="#ffffff"/>
    </linearGradient>
    <linearGradient gradientTransform="matrix(-0.0491, -0.049, 0.0034, -0.0034, -24.75, -26.05)" gradientUnits="userSpaceOnUse" id="gradient3" spreadMethod="pad" x1="-819.2" x2="819.2">
      <stop offset="0.0" stop-color="#666666"/>
      <stop offset="1.0" stop-color="#000000"/>
    </linearGradient>
    <linearGradient gradientTransform="matrix(0.0016, 0.0017, -0.0025, 0.0024, -23.95, -29.2)" gradientUnits="userSpaceOnUse" id="gradient4" spreadMethod="pad" x1="-819.2" x2="819.2">
      <stop offset="0.0" stop-color="#9ae0fe"/>
      <stop offset="1.0" stop-color="#ffffff"/>
    </linearGradient>
    <linearGradient color-interpolation="linearRGB" gradientTransform="matrix(-0.0162, 0.0366, -0.0044, -0.002, 34.25, 19.3)" gradientUnits="userSpaceOnUse" id="gradient5" spreadMethod="reflect" x1="-819.2" x2="819.2">
      <stop offset="0.0" stop-color="#ffffff"/>
      <stop offset="1.0" stop-color="#000000"/>
    </linearGradient>
    <linearGradient gradientTransform="matrix(-0.0081, -0.0215, 0.0021, -8.0E-4, 18.8, 24.0)" gradientUnits="userSpaceOnUse" id="gradient6" spreadMethod="pad" x1="-819.2" x2="819.2">
      <stop offset="0.0" stop-color="#ffffff"/>
      <stop offset="1.0" stop-color="#000000"/>
    </linearGradient>
  </defs>
</svg>
