<?xml version="1.0" encoding="UTF-8" standalone="no"?>
<svg xmlns:ffdec="https://www.free-decompiler.com/flash" xmlns:xlink="http://www.w3.org/1999/xlink" ffdec:objectType="shape" height="90.7px" width="83.5px" xmlns="http://www.w3.org/2000/svg">
  <g transform="matrix(1.0, 0.0, 0.0, 1.0, 41.75, 45.35)">
    <path d="M17.8 -2.6 L17.8 -2.45 29.7 5.35 29.75 5.4 41.75 12.2 24.2 43.7 23.95 44.45 23.8 44.55 23.4 45.35 13.05 42.8 5.05 39.65 Q-0.15 37.15 -8.65 32.15 -21.8 24.1 -29.9 15.4 L-30.05 15.45 -30.2 15.2 -30.2 15.15 -30.35 15.0 -30.25 14.95 Q-30.5 12.95 -27.2 0.6 L-25.85 -3.95 Q-26.7 -4.3 -27.5 -5.7 L-29.15 -9.0 -31.05 -11.9 -32.2 -14.4 -33.0 -17.3 -36.6 -18.2 Q-38.85 -18.7 -40.35 -19.4 L-41.15 -19.6 -41.4 -20.0 -41.4 -25.1 -41.3 -25.75 -41.65 -25.8 -41.75 -26.3 -41.45 -27.35 -41.3 -27.95 -41.25 -27.9 -41.25 -27.95 -41.3 -28.1 -40.7 -30.6 Q-39.1 -39.4 -38.85 -42.15 L-38.4 -42.25 Q-35.85 -42.75 -30.15 -44.85 L-28.65 -45.35 -28.4 -44.95 -27.65 -44.05 -26.25 -42.4 -25.1 -40.45 -22.2 -36.35 -21.25 -35.0 -21.2 -35.0 Q-20.05 -34.7 -18.4 -33.4 L-15.4 -30.6 -12.5 -28.2 -9.6 -25.4 -9.3 -25.45 -9.2 -25.5 -9.2 -25.45 Q3.2 -12.5 17.8 -2.6 M-19.65 -21.85 L-19.25 -21.95 Q-17.8 -22.2 -13.65 -23.65 L-13.6 -23.65 -12.8 -24.1 -12.15 -24.4 -11.9 -24.7 -11.9 -25.0 -16.4 -29.75 -18.9 -32.0 Q-20.9 -33.35 -21.7 -33.6 L-21.8 -33.75 -21.95 -33.7 -22.05 -33.8 -24.65 -37.05 -27.5 -40.25 -28.95 -41.8 -29.3 -42.05 -29.8 -42.85 -30.3 -42.65 -32.25 -42.3 -34.7 -41.7 -36.35 -41.3 -27.4 -31.95 -27.55 -31.8 -37.05 -40.0 Q-37.15 -37.2 -37.75 -32.45 -38.6 -24.85 -39.35 -21.45 L-37.55 -21.0 -34.9 -20.2 -32.55 -19.65 -32.0 -19.45 -31.85 -19.4 Q-31.45 -19.3 -31.2 -18.6 L-30.7 -16.25 Q-29.5 -13.0 -27.1 -10.25 L-24.7 -7.4 -23.7 -10.7 -23.65 -10.9 -23.4 -11.6 -23.3 -11.95 -22.65 -14.1 -22.6 -14.3 -22.55 -14.45 -22.35 -14.85 -22.15 -15.65 -22.15 -15.55 -22.1 -15.6 -21.8 -16.25 -21.75 -16.35 -21.05 -18.35 -20.0 -21.3 -19.7 -21.7 -19.65 -21.85 M-22.5 -3.7 L-26.85 14.05 Q-14.55 24.6 -6.4 29.9 L1.4 34.4 Q10.95 39.35 21.9 42.65 L21.9 41.85 22.45 38.5 23.25 34.7 23.4 33.9 24.15 31.2 24.65 29.05 Q25.0 26.95 25.7 24.9 L25.85 24.45 26.05 24.6 22.75 42.1 23.25 41.05 23.45 40.75 34.6 19.45 Q36.15 16.0 37.75 13.7 L30.55 14.1 30.5 13.95 30.5 13.9 37.2 12.95 30.65 9.35 Q27.0 7.25 23.0 4.35 L-0.5 -12.6 Q-7.6 -18.05 -9.8 -21.0 L-10.1 -21.1 -11.15 -22.1 -11.25 -22.3 -15.65 -21.15 -17.9 -21.05 6.1 0.55 6.05 0.6 Q2.45 -1.75 -6.8 -9.25 -14.15 -15.25 -17.2 -18.4 L-18.6 -19.95 -18.8 -19.5 -19.85 -14.7 -19.75 -14.65 -20.05 -13.25 -20.1 -13.0 -20.25 -13.15 -21.05 -9.6 -22.5 -3.7 M21.65 24.35 Q20.95 26.05 19.5 26.6 18.15 27.05 16.95 26.25 16.4 26.1 15.75 25.25 L15.5 24.9 Q14.4 23.5 13.65 21.5 L13.25 18.2 Q13.45 17.25 14.1 16.1 L14.15 16.0 Q14.7 15.05 15.1 15.35 L15.5 15.1 Q17.6 14.35 18.8 15.1 L21.35 17.2 21.55 17.45 22.0 18.15 22.1 18.6 Q22.6 20.05 22.2 22.6 L21.65 24.35 M20.8 18.55 L19.75 17.25 18.15 16.4 17.95 17.05 Q17.45 18.7 17.95 20.1 18.6 21.9 19.8 23.65 20.8 23.15 21.0 21.15 21.15 19.55 20.8 18.55 M16.1 16.7 L16.2 16.25 16.55 15.5 15.7 15.6 15.05 16.15 14.8 16.5 14.0 18.0 13.95 18.35 13.95 19.6 14.4 21.2 15.2 22.85 Q15.9 24.15 16.9 25.1 L16.9 25.15 17.5 25.65 19.05 25.6 19.55 25.3 18.65 24.75 17.6 23.55 Q16.55 21.9 16.15 20.7 L15.75 17.95 16.1 16.7" fill="#000000" fill-rule="evenodd" stroke="none"/>
    <path d="M-21.95 -33.7 L-21.8 -33.75 -21.7 -33.6 Q-20.9 -33.35 -18.9 -32.0 L-16.4 -29.75 -11.9 -25.0 -11.9 -24.7 -12.15 -24.4 -12.8 -24.1 -13.6 -23.65 -13.65 -23.65 Q-17.8 -22.2 -19.25 -21.95 L-19.65 -21.85 -19.8 -21.8 -20.0 -21.3 -21.05 -18.35 -21.75 -16.35 -21.8 -16.25 -22.1 -15.6 -22.15 -15.55 -22.15 -15.65 -23.2 -16.9 -24.45 -18.3 -25.25 -19.3 -25.6 -19.85 Q-26.15 -20.8 -26.4 -20.75 -26.8 -20.7 -26.95 -20.3 L-27.0 -19.9 -27.6 -18.2 -28.4 -16.1 -28.9 -14.0 Q-29.15 -14.0 -29.05 -13.65 L-28.95 -13.5 -28.95 -13.35 Q-28.85 -13.15 -28.65 -13.2 L-28.6 -13.2 -28.55 -13.1 -28.85 -13.0 -28.8 -12.85 -25.85 -11.7 Q-24.3 -11.05 -23.65 -10.9 L-23.7 -10.7 -24.7 -7.4 -27.1 -10.25 Q-29.5 -13.0 -30.7 -16.25 L-31.2 -18.6 Q-31.45 -19.3 -31.85 -19.4 L-32.0 -19.45 -32.55 -19.65 -34.9 -20.2 -37.55 -21.0 -39.35 -21.45 Q-38.6 -24.85 -37.75 -32.45 -37.15 -37.2 -37.05 -40.0 L-27.55 -31.8 -27.4 -31.95 -27.25 -32.05 -25.05 -32.65 -23.05 -33.2 -21.95 -33.7 M-36.95 -32.05 L-30.95 -29.15 -36.85 -34.5 -36.95 -32.05 M-37.0 -31.4 L-37.1 -28.9 -30.9 -27.15 -37.0 -31.4 M-37.45 -27.7 L-37.65 -25.6 -31.55 -24.9 -37.45 -27.7 M-37.8 -22.3 L-31.7 -22.75 -37.75 -24.8 -37.8 -22.3" fill="url(#gradient0)" fill-rule="evenodd" stroke="none"/>
    <path d="M-21.95 -33.7 L-23.05 -33.2 -25.05 -32.65 -27.25 -32.05 -27.4 -31.95 -36.35 -41.3 -34.7 -41.7 -32.25 -42.3 -30.3 -42.65 -29.8 -42.85 -29.3 -42.05 -28.95 -41.8 -27.5 -40.25 -24.65 -37.05 -22.05 -33.8 -21.95 -33.7" fill="url(#gradient1)" fill-rule="evenodd" stroke="none"/>
    <path d="M-23.65 -10.9 Q-24.3 -11.05 -25.85 -11.7 L-28.8 -12.85 -28.85 -13.0 -28.55 -13.1 -28.6 -13.2 -28.65 -13.2 Q-28.85 -13.15 -28.95 -13.35 L-28.95 -13.5 -29.05 -13.65 Q-29.15 -14.0 -28.9 -14.0 L-28.4 -16.1 -27.6 -18.2 -27.0 -19.9 -26.95 -20.3 Q-26.8 -20.7 -26.4 -20.75 -26.15 -20.8 -25.6 -19.85 L-25.25 -19.3 -24.45 -18.3 -23.2 -16.9 -22.15 -15.65 -22.35 -14.85 Q-23.05 -15.05 -24.5 -17.2 L-25.3 -18.15 -25.85 -18.7 -26.3 -19.65 -26.4 -19.7 -26.7 -18.85 -27.5 -16.45 -28.05 -13.55 -27.8 -13.4 -26.0 -12.55 -24.35 -12.0 -23.4 -11.6 -23.65 -10.9 M-36.95 -32.05 L-36.85 -34.5 -30.95 -29.15 -36.95 -32.05 M-37.45 -27.7 L-31.55 -24.9 -37.65 -25.6 -37.45 -27.7 M-37.0 -31.4 L-30.9 -27.15 -37.1 -28.9 -37.0 -31.4 M-23.3 -11.95 L-22.9 -13.55 -22.65 -14.1 -23.3 -11.95 M-37.8 -22.3 L-37.75 -24.8 -31.7 -22.75 -37.8 -22.3" fill="#266a4f" fill-rule="evenodd" stroke="none"/>
    <path d="M-23.4 -11.6 L-24.35 -12.0 -26.0 -12.55 -27.8 -13.4 -28.05 -13.55 -27.5 -16.45 -26.7 -18.85 -26.4 -19.7 -26.3 -19.65 -25.85 -18.7 -25.3 -18.15 -24.5 -17.2 Q-23.05 -15.05 -22.35 -14.85 L-22.55 -14.45 -22.6 -14.3 -22.7 -14.1 -22.9 -13.55 -23.3 -11.95 -23.4 -11.6" fill="url(#gradient2)" fill-rule="evenodd" stroke="none"/>
    <path d="M-20.0 -21.3 L-19.8 -21.8 -19.65 -21.85 -19.7 -21.7 -20.0 -21.3 M-22.9 -13.55 L-22.7 -14.1 -22.6 -14.3 -22.65 -14.1 -22.9 -13.55" fill="#017647" fill-rule="evenodd" stroke="none"/>
    <path d="M-22.5 -3.7 L-22.6 -0.05 Q-22.35 3.3 -20.55 8.3 -18.15 14.9 -14.2 19.1 -10.15 23.2 -2.0 27.25 L0.5 28.35 Q6.55 30.85 13.8 31.4 19.1 31.85 24.15 31.2 L23.4 33.9 23.25 34.7 23.1 35.1 Q21.9 40.1 21.9 41.85 L21.9 42.65 Q10.95 39.35 1.4 34.4 L-6.4 29.9 Q-14.55 24.6 -26.85 14.05 L-22.5 -3.7" fill="#c2c2c2" fill-rule="evenodd" stroke="none"/>
    <path d="M24.15 31.2 Q19.1 31.85 13.8 31.4 6.55 30.85 0.5 28.35 L-2.0 27.25 Q-10.15 23.2 -14.2 19.1 -18.15 14.9 -20.55 8.3 -22.35 3.3 -22.6 -0.05 L-22.5 -3.7 -21.05 -9.6 -20.55 -5.85 Q-19.65 0.6 -18.1 4.85 -14.05 16.0 -1.4 21.9 L0.05 22.5 Q6.85 25.4 13.8 25.35 L15.75 25.25 Q16.4 26.1 16.95 26.25 18.15 27.05 19.5 26.6 20.95 26.05 21.65 24.35 L23.1 24.05 23.2 23.8 26.2 22.85 25.7 24.9 Q25.0 26.95 24.65 29.05 L24.15 31.2" fill="#e9e9e9" fill-rule="evenodd" stroke="none"/>
    <path d="M26.2 22.85 L23.2 23.8 23.1 24.05 21.65 24.35 22.2 22.6 Q22.6 20.05 22.1 18.6 L22.0 18.15 21.55 17.45 23.25 17.5 23.25 17.6 27.35 17.65 27.3 18.3 26.2 22.85 M15.75 25.25 L13.8 25.35 Q6.85 25.4 0.05 22.5 L-1.4 21.9 Q-14.05 16.0 -18.1 4.85 -19.65 0.6 -20.55 -5.85 L-21.05 -9.6 -20.25 -13.15 -20.1 -13.0 -20.05 -13.25 -19.5 -11.35 Q-14.25 2.95 0.25 10.7 L11.6 15.35 14.1 16.1 Q13.45 17.25 13.25 18.2 L13.65 21.5 Q14.4 23.5 15.5 24.9 L15.75 25.25" fill="#5f6160" fill-rule="evenodd" stroke="none"/>
    <path d="M6.1 0.55 L-17.9 -21.05 -15.65 -21.15 -11.25 -22.3 -11.15 -22.1 -10.1 -21.1 -9.8 -21.0 Q-7.6 -18.05 -0.5 -12.6 L23.0 4.35 Q27.0 7.25 30.65 9.35 L37.2 12.95 30.5 13.9 30.5 13.95 30.05 14.0 29.8 14.1 28.3 14.35 25.2 13.3 16.6 7.9 16.35 7.8 6.1 0.55" fill="url(#gradient3)" fill-rule="evenodd" stroke="none"/>
    <path d="M-20.05 -13.25 L-19.75 -14.65 -19.85 -14.7 -18.8 -19.5 -18.6 -19.95 -17.2 -18.4 Q-14.15 -15.25 -6.8 -9.25 2.45 -1.75 6.05 0.6 L6.1 0.55 16.35 7.8 16.6 7.9 25.2 13.3 28.3 14.35 28.15 14.6 27.75 15.9 27.7 16.35 27.55 16.55 27.35 17.65 23.25 17.6 23.25 17.5 21.55 17.45 21.35 17.2 18.8 15.1 Q17.6 14.35 15.5 15.1 L15.1 15.35 Q14.7 15.05 14.15 16.0 L14.1 16.1 11.6 15.35 0.25 10.7 Q-14.25 2.95 -19.5 -11.35 L-20.05 -13.25" fill="#848484" fill-rule="evenodd" stroke="none"/>
    <path d="M21.9 41.85 Q21.9 40.1 23.1 35.1 L23.25 34.7 22.45 38.5 21.9 41.85 M25.7 24.9 L26.2 22.85 27.3 18.3 27.35 17.65 27.55 16.55 27.7 16.35 27.75 15.9 28.15 14.6 28.3 14.35 29.8 14.1 30.05 14.0 30.5 13.95 30.55 14.1 37.75 13.7 Q36.15 16.0 34.6 19.45 L23.45 40.75 23.25 41.05 22.75 42.1 26.05 24.6 25.85 24.45 25.7 24.9" fill="url(#gradient4)" fill-rule="evenodd" stroke="none"/>
    <path d="M16.1 16.7 L15.75 17.95 16.15 20.7 Q16.55 21.9 17.6 23.55 L18.65 24.75 19.55 25.3 19.05 25.6 17.5 25.65 16.9 25.15 16.9 25.1 Q15.9 24.15 15.2 22.85 L14.4 21.2 13.95 19.6 13.95 18.35 14.0 18.0 14.8 16.5 15.05 16.15 15.7 15.6 16.55 15.5 16.2 16.25 16.1 16.7" fill="url(#gradient5)" fill-rule="evenodd" stroke="none"/>
  </g>
  <defs>
    <linearGradient gradientTransform="matrix(0.0066, -0.0075, 0.0072, 0.0063, -44.0, -46.45)" gradientUnits="userSpaceOnUse" id="gradient0" spreadMethod="pad" x1="-819.2" x2="819.2">
      <stop offset="0.0" stop-color="#00a66a"/>
      <stop offset="1.0" stop-color="#ffffff"/>
    </linearGradient>
    <linearGradient gradientTransform="matrix(0.9397, -0.342, 0.342, 0.9397, -580.45, -242.05)" gradientUnits="userSpaceOnUse" id="gradient1" spreadMethod="pad" x1="-819.2" x2="819.2">
      <stop offset="0.0" stop-color="#00a66a"/>
      <stop offset="1.0" stop-color="#ffffff"/>
    </linearGradient>
    <linearGradient gradientTransform="matrix(0.0081, 0.0028, -0.0011, 0.0033, -21.6, -13.15)" gradientUnits="userSpaceOnUse" id="gradient2" spreadMethod="pad" x1="-819.2" x2="819.2">
      <stop offset="0.0" stop-color="#0caa71"/>
      <stop offset="1.0" stop-color="#ffffff"/>
    </linearGradient>
    <linearGradient gradientTransform="matrix(-0.0544, -0.0543, 0.0038, -0.0038, -32.6, -34.45)" gradientUnits="userSpaceOnUse" id="gradient3" spreadMethod="pad" x1="-819.2" x2="819.2">
      <stop offset="0.0" stop-color="#666666"/>
      <stop offset="1.0" stop-color="#000000"/>
    </linearGradient>
    <linearGradient color-interpolation="linearRGB" gradientTransform="matrix(-0.018, 0.0405, -0.0049, -0.0022, 32.85, 15.9)" gradientUnits="userSpaceOnUse" id="gradient4" spreadMethod="reflect" x1="-819.2" x2="819.2">
      <stop offset="0.0" stop-color="#ffffff"/>
      <stop offset="1.0" stop-color="#000000"/>
    </linearGradient>
    <linearGradient gradientTransform="matrix(-0.009, -0.0239, 0.0023, -9.0E-4, 15.7, 21.1)" gradientUnits="userSpaceOnUse" id="gradient5" spreadMethod="pad" x1="-819.2" x2="819.2">
      <stop offset="0.0" stop-color="#ffffff"/>
      <stop offset="1.0" stop-color="#000000"/>
    </linearGradient>
  </defs>
</svg>
