<?xml version="1.0" encoding="UTF-8" standalone="no"?>
<svg xmlns:ffdec="https://www.free-decompiler.com/flash" xmlns:xlink="http://www.w3.org/1999/xlink" ffdec:objectType="shape" height="89.1px" width="88.5px" xmlns="http://www.w3.org/2000/svg">
  <g transform="matrix(1.0, 0.0, 0.0, 1.0, 44.25, 44.55)">
    <path d="M-41.55 -31.65 L-41.6 -31.75 -41.5 -31.95 -41.55 -31.65 M-14.0 -14.0 L-13.95 -13.8 -14.05 -13.55 Q-15.55 -14.6 -17.15 -14.25 -20.2 -13.4 -20.25 -9.85 -20.35 -7.9 -19.45 -5.5 L-18.5 -3.75 -18.15 -3.45 -18.65 -2.1 -19.35 -2.65 -19.5 -3.0 -20.3 -4.85 -21.0 -7.1 -21.2 -7.7 -21.7 -9.35 -21.9 -9.7 -22.05 -9.6 -22.1 -9.6 -23.85 -9.7 -25.35 -10.0 -28.35 -10.45 -28.3 -10.8 -28.35 -10.95 -30.2 -16.15 -31.3 -18.5 -31.3 -18.6 -31.4 -18.85 -32.95 -19.25 -34.6 -19.7 -37.8 -20.45 -38.25 -20.65 -39.35 -20.7 -39.3 -20.95 -39.25 -20.95 Q-39.1 -21.0 -39.25 -21.7 L-39.5 -23.2 -40.25 -26.15 Q-41.0 -30.25 -41.3 -31.0 L-41.3 -31.1 -41.35 -31.15 -39.95 -35.1 Q-38.45 -38.7 -38.55 -39.0 L-38.6 -39.1 -38.3 -39.8 -14.0 -14.0 M-40.45 -29.85 Q-40.55 -27.9 -39.65 -25.5 -39.15 -24.05 -37.65 -22.5 -35.35 -20.05 -32.85 -20.95 -31.7 -21.35 -30.95 -22.55 L-30.85 -22.6 Q-30.5 -22.7 -30.3 -23.8 L-30.05 -25.1 -30.2 -27.0 -30.75 -28.45 Q-31.5 -30.55 -32.9 -32.25 -35.05 -34.7 -37.35 -34.25 -40.4 -33.4 -40.45 -29.85 M-26.8 -24.55 Q-29.85 -23.75 -29.9 -20.2 -30.0 -18.2 -29.1 -15.8 -28.6 -14.35 -27.1 -12.8 -24.8 -10.35 -22.3 -11.25 -20.9 -11.75 -20.1 -13.35 -19.5 -14.55 -19.5 -15.4 L-19.65 -17.3 -20.2 -18.75 Q-20.95 -20.9 -22.35 -22.55 -24.5 -25.05 -26.8 -24.55" fill="url(#gradient0)" fill-rule="evenodd" stroke="none"/>
    <path d="M-39.3 -20.95 L-39.55 -21.15 -39.65 -21.35 -39.7 -21.45 -40.35 -23.95 -40.5 -24.8 -40.7 -25.85 -40.85 -26.7 -41.4 -29.05 Q-41.7 -30.25 -41.6 -31.15 L-41.65 -31.15 -41.55 -31.65 -41.5 -31.95 -41.2 -33.0 -40.4 -35.15 -39.7 -37.2 -39.0 -38.65 -38.75 -39.15 -38.7 -39.2 -38.6 -39.1 -38.55 -39.0 Q-38.45 -38.7 -39.95 -35.1 L-41.35 -31.15 -41.3 -31.1 -41.3 -31.0 Q-41.0 -30.25 -40.25 -26.15 L-39.5 -23.2 -39.25 -21.7 Q-39.1 -21.0 -39.25 -20.95 L-39.3 -20.95 M-37.65 -40.75 L-37.65 -40.85 -37.7 -40.9 -37.2 -40.95 -35.85 -41.35 -33.95 -42.1 -33.5 -41.4 -33.3 -41.2 -31.95 -39.65 -22.3 -28.5 -16.85 -21.85 -13.55 -18.25 -11.2 -15.4 -11.15 -15.2 -10.9 -14.95 -12.6 -14.35 -13.85 -14.05 -32.85 -35.55 -32.9 -35.7 -32.9 -35.75 -32.95 -35.7 -36.55 -39.85 -37.25 -40.5 -37.65 -40.75 -37.2 -40.95 -37.65 -40.75 M-19.35 -2.65 L-19.45 -2.6 -20.2 -3.65 -20.75 -4.75 -21.6 -7.3 Q-22.1 -8.4 -22.05 -9.6 L-21.9 -9.7 -21.7 -9.35 -21.2 -7.7 -21.0 -7.1 -20.3 -4.85 -19.5 -3.0 -19.35 -2.65 M-28.35 -10.45 L-28.4 -10.4 Q-28.65 -10.3 -29.1 -11.45 L-29.55 -12.65 -31.55 -18.8 -31.3 -18.6 -31.3 -18.5 -30.2 -16.15 -28.35 -10.95 -28.3 -10.8 -28.35 -10.45" fill="#faa21f" fill-rule="evenodd" stroke="none"/>
    <path d="M-41.55 -31.65 L-41.65 -31.15 -41.6 -31.15 Q-41.7 -30.25 -41.4 -29.05 L-40.85 -26.7 -40.7 -25.85 -40.5 -24.8 -40.35 -23.95 -39.7 -21.45 -39.65 -21.35 -39.55 -21.15 -39.3 -20.95 -39.35 -20.7 -38.25 -20.65 -37.8 -20.45 -34.6 -19.7 -32.95 -19.25 -31.4 -18.85 -31.3 -18.6 -31.55 -18.8 -29.55 -12.65 -29.1 -11.45 Q-28.65 -10.3 -28.4 -10.4 L-28.35 -10.45 -25.35 -10.0 -23.85 -9.7 -22.1 -9.6 -22.05 -9.6 Q-22.1 -8.4 -21.6 -7.3 L-20.75 -4.75 -20.2 -3.65 -19.45 -2.6 -19.35 -2.65 -18.65 -2.1 -18.15 -3.45 -17.9 -4.05 -16.2 -8.45 -15.85 -9.3 -14.35 -12.9 -14.05 -13.55 -13.95 -13.8 -14.0 -14.0 -13.85 -14.05 -12.6 -14.35 -10.9 -14.95 -11.15 -15.2 -11.2 -15.4 -13.55 -18.25 -16.85 -21.85 -22.3 -28.5 -31.95 -39.65 -33.3 -41.2 -33.5 -41.4 -33.95 -42.1 -35.85 -41.35 -37.2 -40.95 -37.7 -40.9 -37.65 -40.85 -37.65 -40.75 -38.05 -40.6 -38.2 -40.6 -38.7 -39.2 -38.75 -39.15 -39.0 -38.65 -39.7 -37.2 -40.4 -35.15 -41.2 -33.0 -41.5 -31.95 -41.6 -31.75 -41.55 -31.65 M-41.35 -18.75 L-44.25 -31.6 -39.8 -42.25 -32.6 -44.55 -8.25 -15.9 -7.85 -16.05 -7.4 -15.6 -6.05 -14.65 -5.7 -14.3 -5.4 -14.1 44.25 29.95 44.0 30.45 44.2 30.6 42.4 33.85 42.45 33.9 41.9 34.45 40.15 36.1 39.8 36.45 39.6 36.7 39.5 36.8 39.4 36.9 38.5 37.6 38.55 37.7 32.45 41.4 20.95 44.55 8.75 43.1 -9.25 37.45 -28.25 25.25 -28.05 24.75 -28.0 24.75 -21.35 5.55 -19.25 -0.35 -21.0 -0.95 -24.05 -7.75 -30.4 -8.8 -32.85 -17.1 -41.35 -18.75 M41.9 32.15 L42.7 31.15 -7.7 -13.45 -7.9 -13.75 -8.2 -13.95 -8.4 -14.15 -9.55 -13.7 -9.9 -13.6 -12.65 -12.65 -12.7 -12.65 -12.95 -12.55 -13.7 -12.4 -13.75 -12.4 -13.65 -12.35 -12.55 -11.7 -12.45 -11.6 -11.85 -11.1 -8.9 -8.35 -5.8 -5.55 -2.5 -2.9 -1.4 -1.9 Q6.25 4.65 9.75 7.35 L10.45 7.9 10.5 8.0 10.45 8.0 15.85 12.65 38.2 29.5 37.6 29.1 37.5 29.1 22.3 18.9 18.75 16.35 17.05 15.05 11.15 10.45 Q3.65 4.45 2.85 3.25 L-3.1 -1.95 -13.6 -11.4 -16.1 -3.9 -17.7 0.75 -22.6 15.35 -23.45 18.5 -24.1 19.8 -24.35 20.2 -24.4 20.25 -24.25 20.3 -25.6 24.35 -8.75 35.35 9.7 41.15 9.75 41.2 20.75 41.85 21.4 41.8 32.1 39.55 35.05 37.8 36.8 36.8 37.2 36.6 37.75 36.2 38.85 35.45 38.9 35.4 39.25 35.2 39.3 35.15 40.05 34.35 41.5 32.85 42.05 32.25 41.9 32.15 M16.1 29.45 Q15.55 27.4 16.2 25.45 16.8 23.4 18.45 22.45 20.1 21.5 21.75 22.45 23.7 23.6 24.9 26.85 25.7 29.05 24.85 31.55 L24.75 31.85 Q23.8 34.4 22.1 35.0 20.05 35.8 17.85 33.05 L17.15 31.85 16.35 30.1 16.1 29.45 M20.25 23.15 L19.9 24.75 20.0 25.5 Q20.1 27.75 20.35 28.45 L21.4 30.6 21.5 30.7 22.35 31.75 22.65 32.05 23.1 32.35 23.25 32.4 24.0 31.4 24.35 29.55 24.0 27.15 Q23.4 25.45 22.45 24.35 21.4 23.05 20.25 23.15 M22.55 32.8 L21.7 32.05 21.1 31.5 20.65 30.8 20.35 30.4 19.7 29.0 Q19.1 27.4 19.05 25.4 19.0 24.2 19.25 23.45 L18.8 23.65 Q17.25 25.45 17.0 27.1 16.8 28.3 17.3 29.75 L17.35 29.9 Q18.2 32.2 19.4 32.95 L22.35 32.9 22.4 32.9 22.6 32.8 22.55 32.8" fill="#000000" fill-rule="evenodd" stroke="none"/>
    <path d="M-38.7 -39.2 L-38.2 -40.6 -38.05 -40.6 -37.65 -40.75 -37.25 -40.5 -36.55 -39.85 -32.95 -35.7 -32.9 -35.75 -32.9 -35.7 -32.85 -35.55 -13.85 -14.05 -14.0 -14.0 -38.3 -39.8 -38.6 -39.1 -38.7 -39.2" fill="#feeacd" fill-rule="evenodd" stroke="none"/>
    <path d="M-36.6 -33.75 L-36.95 -31.9 Q-37.0 -29.85 -36.15 -27.45 -35.6 -26.0 -34.15 -24.45 -33.05 -23.35 -32.05 -22.95 -32.75 -21.75 -33.6 -21.4 -35.6 -20.7 -37.55 -23.3 -38.8 -24.9 -39.4 -26.45 -39.95 -28.0 -39.9 -30.0 -39.9 -32.65 -38.4 -33.45 L-36.6 -33.75" fill="url(#gradient1)" fill-rule="evenodd" stroke="none"/>
    <path d="M-14.05 -13.55 L-14.35 -12.9 Q-15.15 -13.45 -15.95 -13.65 L-16.15 -11.95 Q-16.2 -10.5 -15.85 -9.3 L-16.2 -8.45 Q-16.75 -10.3 -16.7 -11.9 -16.7 -12.9 -16.35 -13.75 L-18.2 -13.45 Q-19.65 -12.7 -19.7 -10.0 -19.7 -8.0 -19.15 -6.45 L-17.9 -4.05 -18.15 -3.45 -18.5 -3.75 -19.45 -5.5 Q-20.35 -7.9 -20.25 -9.85 -20.2 -13.4 -17.15 -14.25 -15.55 -14.6 -14.05 -13.55 M-36.35 -31.95 Q-36.35 -30.0 -35.8 -28.45 -35.25 -26.9 -34.05 -25.3 -32.95 -23.75 -31.75 -23.35 L-31.65 -23.6 Q-31.15 -24.85 -30.95 -25.9 L-31.15 -27.5 -31.6 -29.3 Q-32.2 -30.95 -34.0 -32.45 -35.1 -33.4 -36.1 -33.65 L-36.35 -31.95 M-36.6 -33.75 L-38.4 -33.45 Q-39.9 -32.65 -39.9 -30.0 -39.95 -28.0 -39.4 -26.45 -38.8 -24.9 -37.55 -23.3 -35.6 -20.7 -33.6 -21.4 -32.75 -21.75 -32.05 -22.95 -33.05 -23.35 -34.15 -24.45 -35.6 -26.0 -36.15 -27.45 -37.0 -29.85 -36.95 -31.9 L-36.6 -33.75 M-40.45 -29.85 Q-40.4 -33.4 -37.35 -34.25 -35.05 -34.7 -32.9 -32.25 -31.5 -30.55 -30.75 -28.45 L-30.2 -27.0 -30.05 -25.1 -30.3 -23.8 Q-30.5 -22.7 -30.85 -22.6 L-30.95 -22.55 Q-31.7 -21.35 -32.85 -20.95 -35.35 -20.05 -37.65 -22.5 -39.15 -24.05 -39.65 -25.5 -40.55 -27.9 -40.45 -29.85 M-23.45 -22.8 Q-24.55 -23.7 -25.55 -23.95 L-25.8 -22.25 Q-25.85 -20.3 -25.25 -18.75 -24.7 -17.2 -23.5 -15.65 -22.4 -14.15 -21.25 -13.75 L-21.15 -13.95 Q-20.6 -15.15 -20.45 -16.2 L-20.65 -17.8 -21.05 -19.6 Q-21.65 -21.25 -23.45 -22.8 M-26.8 -24.55 Q-24.5 -25.05 -22.35 -22.55 -20.95 -20.9 -20.2 -18.75 L-19.65 -17.3 -19.5 -15.4 Q-19.5 -14.55 -20.1 -13.35 -20.9 -11.75 -22.3 -11.25 -24.8 -10.35 -27.1 -12.8 -28.6 -14.35 -29.1 -15.8 -30.0 -18.2 -29.9 -20.2 -29.85 -23.75 -26.8 -24.55 M-26.05 -24.05 L-27.9 -23.8 Q-29.35 -23.0 -29.35 -20.3 -29.4 -18.3 -28.85 -16.75 -28.3 -15.2 -27.05 -13.6 -25.05 -11.0 -23.05 -11.75 -22.15 -12.05 -21.45 -13.25 -22.5 -13.65 -23.6 -14.8 -25.05 -16.35 -25.6 -17.8 -26.45 -20.2 -26.4 -22.2 L-26.05 -24.05 M-31.55 -22.75 L-31.5 -22.75 -31.5 -22.8 -31.55 -22.75" fill="#952104" fill-rule="evenodd" stroke="none"/>
    <path d="M-26.05 -24.05 L-26.4 -22.2 Q-26.45 -20.2 -25.6 -17.8 -25.05 -16.35 -23.6 -14.8 -22.5 -13.65 -21.45 -13.25 -22.15 -12.05 -23.05 -11.75 -25.05 -11.0 -27.05 -13.6 -28.3 -15.2 -28.85 -16.75 -29.4 -18.3 -29.35 -20.3 -29.35 -23.0 -27.9 -23.8 L-26.05 -24.05" fill="url(#gradient2)" fill-rule="evenodd" stroke="none"/>
    <path d="M38.2 29.5 L15.85 12.65 10.45 8.0 10.5 8.0 10.45 7.9 9.75 7.35 Q6.25 4.65 -1.4 -1.9 L-2.5 -2.9 -5.8 -5.55 -8.9 -8.35 -11.85 -11.1 -12.45 -11.6 -12.55 -11.7 -13.65 -12.35 -13.75 -12.4 -13.7 -12.4 -12.95 -12.55 -12.7 -12.65 -12.65 -12.65 -9.9 -13.6 -9.55 -13.7 -8.4 -14.15 -8.2 -13.95 -7.9 -13.75 -7.7 -13.45 42.7 31.15 41.9 32.15 41.3 31.95 41.95 31.85 39.85 30.55 39.75 30.45 39.7 30.45 39.35 30.25 39.35 30.2 39.15 30.3 38.2 29.5 M40.75 29.85 L40.75 29.75 37.95 27.85 40.75 29.85 M24.25 18.5 L24.05 18.35 23.5 18.0 18.75 14.4 29.9 23.0 24.9 18.95 24.25 18.5" fill="url(#gradient3)" fill-rule="evenodd" stroke="none"/>
    <path d="M-16.2 -8.45 L-17.9 -4.05 -19.15 -6.45 Q-19.7 -8.0 -19.7 -10.0 -19.65 -12.7 -18.2 -13.45 L-16.35 -13.75 Q-16.7 -12.9 -16.7 -11.9 -16.75 -10.3 -16.2 -8.45" fill="url(#gradient4)" fill-rule="evenodd" stroke="none"/>
    <path d="M38.2 29.5 L39.15 30.3 38.85 30.4 Q32.15 32.45 24.85 31.55 25.7 29.05 24.9 26.85 23.7 23.6 21.75 22.45 20.1 21.5 18.45 22.45 16.8 23.4 16.2 25.45 15.55 27.4 16.1 29.45 6.9 26.25 0.95 20.65 -6.2 13.8 -9.9 8.85 -13.6 3.9 -15.5 -1.3 L-16.05 -3.65 -16.1 -3.9 -13.6 -11.4 -3.1 -1.95 2.85 3.25 Q3.65 4.45 11.15 10.45 L17.05 15.05 18.75 16.35 22.3 18.9 37.5 29.1 37.6 29.1 38.2 29.5 M40.75 29.85 L37.95 27.85 40.75 29.75 40.75 29.85 M24.25 18.5 L24.9 18.95 29.9 23.0 18.75 14.4 23.5 18.0 24.05 18.35 24.25 18.5" fill="#848484" fill-rule="evenodd" stroke="none"/>
    <path d="M39.15 30.3 L39.35 30.2 39.35 30.25 39.7 30.45 39.75 30.45 39.85 30.55 37.6 31.75 Q30.75 35.6 29.6 36.05 18.3 40.15 4.5 32.6 -10.35 24.55 -16.15 8.6 -17.65 4.55 -17.75 2.5 L-17.7 0.75 -16.1 -3.9 -16.05 -3.65 -15.5 -1.3 Q-13.6 3.9 -9.9 8.85 -6.2 13.8 0.95 20.65 6.9 26.25 16.1 29.45 L16.35 30.1 17.15 31.85 17.85 33.05 Q20.05 35.8 22.1 35.0 23.8 34.4 24.75 31.85 L24.85 31.55 Q32.15 32.45 38.85 30.4 L39.15 30.3" fill="#5f6160" fill-rule="evenodd" stroke="none"/>
    <path d="M39.85 30.55 L41.95 31.85 41.3 31.95 41.9 32.15 42.05 32.25 41.5 32.85 40.05 34.35 39.3 35.15 39.25 35.2 38.85 35.3 Q27.6 39.45 18.85 39.3 10.85 39.2 0.7 35.35 -9.05 31.55 -15.55 25.5 -20.7 20.7 -22.35 16.2 L-22.6 15.35 -17.7 0.75 -17.75 2.5 Q-17.65 4.55 -16.15 8.6 -10.35 24.55 4.5 32.6 18.3 40.15 29.6 36.05 30.75 35.6 37.6 31.75 L39.85 30.55" fill="#e9e9e9" fill-rule="evenodd" stroke="none"/>
    <path d="M38.85 35.45 L37.75 36.2 37.2 36.6 36.8 36.8 35.05 37.8 32.1 39.55 21.4 41.8 20.75 41.85 9.75 41.2 9.7 41.15 -8.75 35.35 -25.6 24.35 -24.25 20.3 -24.35 20.2 -24.1 19.8 -23.45 18.5 -22.6 15.35 -22.35 16.2 Q-20.7 20.7 -15.55 25.5 -9.05 31.55 0.7 35.35 10.85 39.2 18.85 39.3 27.6 39.45 38.85 35.3 L38.85 35.45" fill="#c2c2c2" fill-rule="evenodd" stroke="none"/>
    <path d="M22.4 32.9 L22.35 32.9 19.4 32.95 Q18.2 32.2 17.35 29.9 L17.3 29.75 Q16.8 28.3 17.0 27.1 17.25 25.45 18.8 23.65 L19.25 23.45 Q19.0 24.2 19.05 25.4 19.1 27.4 19.7 29.0 L20.35 30.4 20.65 30.8 21.1 31.5 21.7 32.05 22.55 32.8 22.4 32.9" fill="url(#gradient5)" fill-rule="evenodd" stroke="none"/>
    <path d="M-39.0 -38.65 L-38.75 -39.15 -38.7 -39.2 -38.2 -40.6 -38.05 -40.6 -37.65 -40.75 -37.2 -40.95" ffdec:has-small-stroke="true" ffdec:original-stroke-width="0.05" fill="none" stroke="#ff2218" stroke-linecap="round" stroke-linejoin="round" stroke-width="1.0"/>
  </g>
  <defs>
    <linearGradient gradientTransform="matrix(0.0065, -0.0146, 0.005, 0.0022, -23.75, -21.75)" gradientUnits="userSpaceOnUse" id="gradient0" spreadMethod="pad" x1="-819.2" x2="819.2">
      <stop offset="0.0" stop-color="#cf2e05"/>
      <stop offset="1.0" stop-color="#faa21f"/>
    </linearGradient>
    <linearGradient gradientTransform="matrix(0.0017, 0.0036, -0.0031, 0.0014, -36.4, -26.8)" gradientUnits="userSpaceOnUse" id="gradient1" spreadMethod="pad" x1="-819.2" x2="819.2">
      <stop offset="0.0" stop-color="#cf2e05"/>
      <stop offset="1.0" stop-color="#faa21f"/>
    </linearGradient>
    <linearGradient gradientTransform="matrix(0.0019, 0.0037, -0.0031, 0.0016, -25.15, -15.95)" gradientUnits="userSpaceOnUse" id="gradient2" spreadMethod="pad" x1="-819.2" x2="819.2">
      <stop offset="0.0" stop-color="#cf2e05"/>
      <stop offset="1.0" stop-color="#faa21f"/>
    </linearGradient>
    <linearGradient gradientTransform="matrix(-0.0544, -0.0543, 0.0038, -0.0038, -87.65, 17.05)" gradientUnits="userSpaceOnUse" id="gradient3" spreadMethod="pad" x1="-819.2" x2="819.2">
      <stop offset="0.0" stop-color="#666666"/>
      <stop offset="1.0" stop-color="#000000"/>
    </linearGradient>
    <linearGradient gradientTransform="matrix(0.0012, 0.003, -0.003, 0.0012, -16.7, -7.55)" gradientUnits="userSpaceOnUse" id="gradient4" spreadMethod="pad" x1="-819.2" x2="819.2">
      <stop offset="0.0" stop-color="#cf2e05"/>
      <stop offset="1.0" stop-color="#faa21f"/>
    </linearGradient>
    <linearGradient gradientTransform="matrix(-0.0059, -0.0157, 0.0023, -9.0E-4, 17.9, 25.25)" gradientUnits="userSpaceOnUse" id="gradient5" spreadMethod="pad" x1="-819.2" x2="819.2">
      <stop offset="0.0" stop-color="#ffffff"/>
      <stop offset="1.0" stop-color="#000000"/>
    </linearGradient>
  </defs>
</svg>
