<?xml version="1.0" encoding="UTF-8" standalone="no"?>
<svg xmlns:ffdec="https://www.free-decompiler.com/flash" xmlns:xlink="http://www.w3.org/1999/xlink" ffdec:objectType="shape" height="89.15px" width="83.95px" xmlns="http://www.w3.org/2000/svg">
  <g transform="matrix(1.0, 0.0, 0.0, 1.0, 42.0, 44.55)">
    <path d="M6.3 -0.15 L6.25 -0.1 Q2.7 -2.5 -6.55 -10.0 L-15.95 -18.15 -16.5 -18.7 -16.95 -19.15 -18.4 -20.7 -18.55 -20.25 -19.65 -15.4 -19.55 -15.4 -19.85 -14.0 -19.85 -13.75 -20.05 -13.9 -20.85 -10.35 -22.25 -4.45 -26.6 13.3 Q-14.35 23.85 -6.15 29.2 L1.65 33.65 Q11.2 38.6 22.15 41.9 L22.1 41.1 22.65 37.75 23.5 33.95 Q23.5 33.4 23.65 33.15 L24.4 30.45 24.9 28.35 Q25.25 26.2 25.9 24.15 L26.1 23.7 26.25 23.85 22.95 41.4 23.45 40.3 23.65 40.0 34.8 18.7 Q36.35 15.25 38.0 12.95 L30.75 13.35 30.7 13.2 30.7 13.15 37.4 12.2 37.2 12.05 30.85 8.65 Q27.2 6.5 23.2 3.6 L-0.3 -13.35 Q-7.35 -18.8 -9.55 -21.7 L-9.85 -21.85 -10.95 -22.85 -11.05 -23.05 -15.4 -21.9 -17.7 -21.8 6.3 -0.15 M14.35 15.35 L14.35 15.25 Q14.95 14.35 15.3 14.6 L15.75 14.35 Q17.85 13.6 19.0 14.35 L21.6 16.45 21.8 16.7 22.2 17.4 22.35 17.9 Q22.85 19.3 22.4 21.85 L21.9 23.6 Q21.2 25.35 19.75 25.9 18.4 26.35 17.2 25.5 16.65 25.35 16.0 24.55 L15.75 24.15 Q14.6 22.75 13.85 20.75 L13.45 17.5 Q13.65 16.5 14.35 15.35 M18.0 -3.2 L29.9 4.6 41.95 11.45 24.45 42.95 24.15 43.75 24.0 43.8 23.6 44.6 13.3 42.05 5.3 38.9 Q0.1 36.4 -8.4 31.4 -21.6 23.35 -29.7 14.7 L-29.85 14.7 -30.0 14.45 -30.0 14.4 -30.1 14.25 -30.0 14.2 Q-30.25 12.2 -26.95 -0.15 L-24.05 -10.3 -23.9 -10.45 -24.25 -10.55 -26.8 -11.0 -29.15 -11.4 -30.6 -11.75 -30.65 -11.85 -30.85 -12.15 -31.45 -16.25 -31.8 -19.1 -36.1 -19.3 Q-38.4 -19.55 -39.1 -20.05 L-39.55 -20.45 -39.65 -20.8 -39.7 -20.8 -39.8 -21.1 -40.4 -23.3 -40.5 -23.8 -40.85 -25.5 -41.05 -26.35 -41.1 -26.9 -41.55 -28.65 -41.65 -29.1 -41.95 -29.3 -42.0 -29.4 -41.5 -30.45 -39.75 -34.45 -36.9 -41.3 Q-36.65 -41.6 -36.35 -41.5 L-35.65 -41.9 -28.6 -44.15 -28.2 -44.2 Q-28.1 -44.65 -27.45 -44.55 -22.1 -41.9 -18.95 -40.6 L-18.05 -38.9 -15.65 -33.7 -14.4 -31.05 -13.15 -28.45 Q-12.6 -27.0 -11.7 -25.7 L-11.55 -25.45 Q-10.45 -25.95 -10.1 -26.45 L-9.5 -26.65 -9.45 -26.6 -9.0 -26.35 -9.0 -26.2 Q3.4 -13.25 18.0 -3.35 L18.0 -3.2 M21.0 17.8 L19.95 16.5 18.35 15.65 18.2 16.3 Q17.65 17.95 18.2 19.4 18.85 21.15 20.0 22.9 21.05 22.4 21.2 20.4 21.35 18.8 21.0 17.8 M15.95 14.9 L15.25 15.4 14.25 17.3 14.2 17.6 14.2 18.85 14.6 20.45 15.45 22.15 17.1 24.35 17.1 24.4 17.7 24.9 19.25 24.85 19.8 24.55 18.9 24.0 Q18.2 23.55 17.85 22.8 L16.35 19.95 16.0 17.2 16.3 15.95 16.45 15.5 16.8 14.75 15.95 14.9 M-18.25 -33.9 Q-17.95 -34.0 -17.95 -34.3 L-17.95 -34.45 -18.2 -35.15 Q-19.1 -37.55 -19.85 -38.15 L-20.25 -38.3 -20.95 -38.75 -20.8 -38.8 -20.95 -39.2 -21.4 -39.3 -23.05 -39.7 -25.15 -40.5 -27.7 -41.45 -28.8 -41.25 -28.9 -41.2 -30.75 -40.7 -32.7 -40.2 -34.95 -39.2 -35.05 -39.15 -34.95 -39.15 -35.5 -38.9 -35.6 -38.9 -35.65 -38.8 -36.75 -36.4 -37.85 -33.75 -38.0 -33.3 -37.95 -32.95 -38.3 -31.65 -38.4 -31.65 -38.6 -31.25 -38.65 -31.1 -38.85 -30.55 -38.9 -30.35 -39.05 -29.75 -39.3 -29.45 -39.15 -29.4 -39.2 -29.25 -39.25 -29.25 -39.3 -29.2 -39.3 -29.05 -38.45 -25.25 -37.8 -22.9 -37.6 -22.2 -37.5 -21.75 -37.15 -22.15 -36.55 -22.05 -36.65 -21.9 -36.2 -21.85 -34.45 -21.6 -31.6 -21.45 Q-30.75 -21.3 -30.45 -20.9 -29.7 -20.7 -29.5 -20.2 L-28.7 -15.25 -28.6 -15.8 -28.6 -14.3 -28.65 -14.15 -28.7 -14.0 -28.65 -13.9 -28.1 -13.65 -26.45 -13.05 -25.5 -12.7 -25.4 -12.65 -23.85 -12.4 -23.2 -12.3 -23.1 -12.25 -22.7 -13.4 -21.65 -16.7 -21.6 -16.6 -20.95 -18.55 -20.8 -18.8 -19.7 -20.9 -18.85 -22.9 -18.7 -22.9 -18.3 -23.05 -13.2 -24.85 -13.75 -25.4 -13.8 -25.5 -15.7 -28.75 -16.1 -29.55 -16.15 -29.4 -16.3 -29.75 -16.25 -29.85 -16.2 -30.3 -16.15 -30.35 -16.95 -31.45 -17.85 -32.95 -17.95 -33.5 -18.2 -33.55 -18.25 -33.9" fill="#000000" fill-rule="evenodd" stroke="none"/>
    <path d="M-19.85 -14.0 L-19.55 -15.4 -19.65 -15.4 -18.55 -20.25 -18.4 -20.7 -16.95 -19.15 -16.5 -18.7 -15.95 -18.15 -6.55 -10.0 Q2.7 -2.5 6.25 -0.1 L6.3 -0.15 16.6 7.05 16.85 7.15 25.45 12.55 28.55 13.6 28.35 13.9 27.95 15.15 27.9 15.6 27.75 15.8 27.6 16.9 23.5 16.85 23.45 16.75 21.8 16.7 21.6 16.45 19.0 14.35 Q17.85 13.6 15.75 14.35 L15.3 14.6 Q14.95 14.35 14.35 15.25 L14.35 15.35 11.8 14.65 0.5 10.0 Q-13.05 2.75 -18.45 -10.1 L-18.5 -10.2 -18.95 -11.3 -19.2 -12.0 -19.25 -12.1 -19.85 -14.0" fill="#848484" fill-rule="evenodd" stroke="none"/>
    <path d="M6.3 -0.15 L-17.7 -21.8 -15.4 -21.9 -11.05 -23.05 -10.95 -22.85 -9.85 -21.85 -9.55 -21.7 Q-7.35 -18.8 -0.3 -13.35 L23.2 3.6 Q27.2 6.5 30.85 8.65 L37.2 12.05 37.4 12.2 30.7 13.15 30.7 13.2 30.3 13.25 30.05 13.35 28.55 13.6 25.45 12.55 16.85 7.15 16.6 7.05 6.3 -0.15" fill="url(#gradient0)" fill-rule="evenodd" stroke="none"/>
    <path d="M30.7 13.2 L30.75 13.35 38.0 12.95 Q36.35 15.25 34.8 18.7 L23.65 40.0 23.45 40.3 22.95 41.4 26.25 23.85 26.1 23.7 25.9 24.15 26.4 22.1 27.55 17.55 27.6 16.9 27.75 15.8 27.9 15.6 27.95 15.15 28.35 13.9 28.55 13.6 30.05 13.35 30.3 13.25 30.7 13.2 M23.5 33.95 L22.65 37.75 22.1 41.1 Q22.1 39.35 23.3 34.35 L23.5 33.95" fill="url(#gradient1)" fill-rule="evenodd" stroke="none"/>
    <path d="M-20.85 -10.35 L-20.05 -13.9 -19.85 -13.75 -19.85 -14.0 -19.25 -12.1 -19.2 -12.0 -18.95 -11.3 -18.5 -10.2 -18.45 -10.1 Q-13.05 2.75 0.5 10.0 L11.8 14.65 14.35 15.35 Q13.65 16.5 13.45 17.5 L13.85 20.75 Q14.6 22.75 15.75 24.15 L16.0 24.55 14.05 24.6 Q7.1 24.65 0.25 21.75 L-1.15 21.2 Q-13.85 15.25 -17.9 4.1 -19.45 -0.15 -20.3 -6.6 L-20.85 -10.35 M21.8 16.7 L23.45 16.75 23.5 16.85 27.6 16.9 27.55 17.55 26.4 22.1 23.45 23.05 23.35 23.3 21.9 23.6 22.4 21.85 Q22.85 19.3 22.35 17.9 L22.2 17.4 21.8 16.7" fill="#5f6160" fill-rule="evenodd" stroke="none"/>
    <path d="M25.9 24.15 Q25.25 26.2 24.9 28.35 L24.4 30.45 Q19.35 31.1 14.05 30.65 6.8 30.1 0.75 27.6 L-1.75 26.5 Q-9.9 22.5 -13.95 18.35 -17.9 14.15 -20.35 7.55 -22.15 2.55 -22.4 -0.8 L-22.25 -4.45 -20.85 -10.35 -20.3 -6.6 Q-19.45 -0.15 -17.9 4.1 -13.85 15.25 -1.15 21.2 L0.25 21.75 Q7.1 24.65 14.05 24.6 L16.0 24.55 Q16.65 25.35 17.2 25.5 18.4 26.35 19.75 25.9 21.2 25.35 21.9 23.6 L23.35 23.3 23.45 23.05 26.4 22.1 25.9 24.15" fill="#e9e9e9" fill-rule="evenodd" stroke="none"/>
    <path d="M15.95 14.9 L16.8 14.75 16.45 15.5 16.3 15.95 16.0 17.2 16.35 19.95 17.85 22.8 Q18.2 23.55 18.9 24.0 L19.8 24.55 19.25 24.85 17.7 24.9 17.1 24.4 17.1 24.35 15.45 22.15 14.6 20.45 14.2 18.85 14.2 17.6 14.25 17.3 15.25 15.4 15.95 14.9" fill="url(#gradient2)" fill-rule="evenodd" stroke="none"/>
    <path d="M24.4 30.45 L23.65 33.15 Q23.5 33.4 23.5 33.95 L23.3 34.35 Q22.1 39.35 22.1 41.1 L22.15 41.9 Q11.2 38.6 1.65 33.65 L-6.15 29.2 Q-14.35 23.85 -26.6 13.3 L-22.25 -4.45 -22.4 -0.8 Q-22.15 2.55 -20.35 7.55 -17.9 14.15 -13.95 18.35 -9.9 22.5 -1.75 26.5 L0.75 27.6 Q6.8 30.1 14.05 30.65 19.35 31.1 24.4 30.45" fill="#c2c2c2" fill-rule="evenodd" stroke="none"/>
    <path d="M-20.25 -38.3 L-19.85 -38.15 Q-19.1 -37.55 -18.2 -35.15 L-17.95 -34.45 -17.95 -34.3 Q-17.95 -34.0 -18.25 -33.9 L-18.3 -33.9 -18.45 -33.9 -21.25 -33.9 -22.75 -33.85 -26.6 -33.25 Q-27.9 -33.15 -28.4 -32.7 L-29.0 -32.2 -29.05 -32.75 -29.05 -32.8 -29.35 -35.35 -29.6 -37.75 -23.95 -38.2 -20.65 -38.15 -20.35 -38.3 -20.25 -38.3" fill="url(#gradient3)" fill-rule="evenodd" stroke="none"/>
    <path d="M-18.2 -33.55 L-17.95 -33.5 -17.85 -32.95 -16.95 -31.45 -16.15 -30.35 -16.2 -30.3 -16.25 -29.85 -16.3 -29.75 -18.05 -27.75 -19.85 -25.2 -19.45 -24.9 -19.8 -24.1 -22.3 -26.05 Q-24.45 -27.7 -25.1 -27.7 L-24.9 -28.1 -22.6 -31.55 -21.25 -33.35 -20.25 -33.4 -18.45 -33.5 -18.5 -33.6 -18.35 -33.65 -18.2 -33.55" fill="url(#gradient4)" fill-rule="evenodd" stroke="none"/>
    <path d="M-20.25 -38.3 L-20.35 -38.3 -20.65 -38.15 -23.95 -38.2 -29.6 -37.75 -29.35 -35.35 -29.05 -32.8 -29.05 -32.75 -29.0 -32.2 -28.4 -32.7 Q-27.9 -33.15 -26.6 -33.25 L-22.75 -33.85 -21.25 -33.9 -18.45 -33.9 -18.3 -33.9 -18.25 -33.9 -18.2 -33.55 -18.35 -33.65 -18.5 -33.6 -18.45 -33.5 -20.25 -33.4 -21.25 -33.35 -22.6 -31.55 -24.9 -28.1 -25.1 -27.7 Q-24.45 -27.7 -22.3 -26.05 L-19.8 -24.1 -19.45 -24.9 -19.85 -25.2 -18.05 -27.75 -16.3 -29.75 -16.15 -29.4 -17.3 -27.75 -19.15 -25.2 -19.5 -24.0 -18.3 -23.05 -18.7 -22.9 -19.15 -23.3 -19.5 -23.45 -19.65 -23.5 -19.65 -23.3 -19.55 -23.25 -19.7 -22.95 -19.8 -23.05 -20.8 -18.8 -20.95 -18.55 -21.15 -18.1 -21.65 -16.7 -22.7 -13.4 -24.65 -14.9 -24.25 -16.85 -24.1 -17.3 -24.65 -17.85 Q-26.45 -19.45 -26.7 -20.1 L-26.9 -20.3 -27.3 -18.9 -28.6 -14.3 -28.6 -15.8 -28.5 -16.25 -27.95 -18.5 -27.3 -20.65 -27.45 -20.9 -27.35 -21.1 -27.2 -20.95 -26.7 -23.75 Q-26.6 -25.55 -25.4 -28.05 L-25.4 -28.15 -25.45 -28.1 Q-29.1 -29.5 -30.25 -29.6 L-32.75 -26.7 -36.55 -22.05 -37.15 -22.15 -37.15 -22.2 -37.1 -22.3 -36.1 -23.5 -33.45 -26.7 -30.3 -30.4 -29.95 -31.05 -29.4 -31.85 -29.4 -32.0 -29.85 -35.15 -30.0 -37.65 -30.55 -37.55 -34.1 -34.25 -39.05 -29.75 -38.9 -30.35 -37.45 -31.8 -38.3 -31.65 -37.95 -32.95 -37.75 -32.25 -37.7 -32.1 -37.5 -32.2 -37.0 -32.25 Q-34.65 -34.6 -30.95 -37.55 L-30.3 -37.95 -30.05 -38.05 -35.15 -38.8 -35.5 -38.9 -34.95 -39.15 -32.4 -38.9 -29.25 -38.35 -29.2 -38.3 -23.4 -38.6 -20.95 -38.75 -20.25 -38.3 M-25.25 -28.35 L-25.15 -28.6 Q-23.75 -31.3 -21.8 -33.3 L-22.35 -33.3 -27.85 -32.6 -28.0 -32.4 -28.85 -31.35 -28.8 -31.3 -28.85 -31.2 -28.95 -31.25 -29.85 -30.15 -27.75 -29.65 Q-25.5 -28.95 -25.3 -28.4 L-25.3 -28.35 -25.25 -28.35 M-26.9 -20.65 L-24.55 -18.55 -23.85 -17.9 Q-23.7 -18.05 -23.55 -17.8 L-23.5 -17.65 Q-23.45 -17.45 -23.75 -16.4 L-23.85 -16.0 -24.1 -15.0 -23.25 -14.55 -22.55 -13.95 -22.15 -15.85 -22.2 -15.85 -22.1 -16.2 -22.1 -16.15 -21.65 -18.0 -20.65 -21.95 -20.15 -23.25 -25.25 -27.35 Q-26.0 -25.7 -26.3 -23.45 L-26.9 -20.65" fill="#555555" fill-rule="evenodd" stroke="none"/>
    <path d="M-16.15 -29.4 L-16.1 -29.55 -15.7 -28.75 -13.8 -25.5 -13.75 -25.4 -13.2 -24.85 -18.3 -23.05 -19.5 -24.0 -19.15 -25.2 -17.3 -27.75 -16.15 -29.4" fill="url(#gradient5)" fill-rule="evenodd" stroke="none"/>
    <path d="M-37.95 -32.95 L-38.0 -33.3 -37.85 -33.75 -36.75 -36.4 -35.65 -38.8 -35.6 -38.9 -35.5 -38.9 -35.15 -38.8 -30.05 -38.05 -30.3 -37.95 -30.95 -37.55 Q-34.65 -34.6 -37.0 -32.25 L-37.5 -32.2 -37.7 -32.1 -37.75 -32.25 -37.95 -32.95" fill="url(#gradient6)" fill-rule="evenodd" stroke="none"/>
    <path d="M-34.95 -39.2 L-32.7 -40.2 -30.75 -40.7 -28.9 -41.2 -28.8 -41.25 -27.7 -41.45 -25.15 -40.5 -23.05 -39.7 -21.4 -39.3 -20.95 -39.2 -20.8 -38.8 -20.95 -38.75 -23.4 -38.6 -29.2 -38.3 -29.25 -38.35 -32.4 -38.9 -34.95 -39.15 -34.95 -39.2" fill="url(#gradient7)" fill-rule="evenodd" stroke="none"/>
    <path d="M-34.95 -39.15 L-35.05 -39.15 -34.95 -39.2 -34.95 -39.15" fill="#bbbbbb" fill-rule="evenodd" stroke="none"/>
    <path d="M-38.9 -30.35 L-38.85 -30.55 -38.65 -31.1 -38.6 -31.25 -38.4 -31.65 -38.3 -31.65 -37.45 -31.8 -38.9 -30.35" fill="#666666" fill-rule="evenodd" stroke="none"/>
    <path d="M-37.15 -22.15 L-37.5 -21.75 -37.6 -22.2 -37.8 -22.9 -38.45 -25.25 -39.3 -29.05 -39.3 -29.2 -39.25 -29.25 -39.2 -29.25 -39.15 -29.4 -39.3 -29.45 -39.05 -29.75 -34.1 -34.25 -30.55 -37.55 -30.0 -37.65 -29.85 -35.15 -29.4 -32.0 -29.4 -31.85 -29.95 -31.05 -30.3 -30.4 -33.45 -26.7 -36.1 -23.5 -37.1 -22.3 -37.15 -22.2 -37.15 -22.15" fill="url(#gradient8)" fill-rule="evenodd" stroke="none"/>
    <path d="M-25.3 -28.4 Q-25.5 -28.95 -27.75 -29.65 L-29.85 -30.15 -28.95 -31.25 -28.85 -31.2 -28.8 -31.3 -28.85 -31.35 -28.0 -32.4 -27.85 -32.6 -22.35 -33.3 -21.8 -33.3 Q-23.75 -31.3 -25.15 -28.6 L-25.25 -28.35 -25.3 -28.4" fill="#8c8c8c" fill-rule="evenodd" stroke="none"/>
    <path d="M-28.6 -15.8 L-28.7 -15.25 -29.5 -20.2 Q-29.7 -20.7 -30.45 -20.9 -30.75 -21.3 -31.6 -21.45 L-34.45 -21.6 -36.2 -21.85 -36.65 -21.9 -36.55 -22.05 -32.75 -26.7 -30.25 -29.6 Q-29.1 -29.5 -25.45 -28.1 L-25.4 -28.05 Q-26.6 -25.55 -26.7 -23.75 L-27.2 -20.95 -27.35 -21.1 -27.45 -20.9 -27.3 -20.65 -27.95 -18.5 -28.5 -16.25 -28.6 -15.8" fill="url(#gradient9)" fill-rule="evenodd" stroke="none"/>
    <path d="M-22.7 -13.4 L-23.1 -12.25 -23.2 -12.3 -23.85 -12.4 -25.4 -12.65 -25.5 -12.7 -26.45 -13.05 -28.1 -13.65 -28.65 -13.9 -28.7 -14.0 -28.65 -14.15 -28.6 -14.3 -27.3 -18.9 -26.9 -20.3 -26.7 -20.1 Q-26.45 -19.45 -24.65 -17.85 L-24.1 -17.3 -24.25 -16.85 -24.65 -14.9 -22.7 -13.4 M-26.9 -20.65 L-26.3 -23.45 Q-26.0 -25.7 -25.25 -27.35 L-20.15 -23.25 -20.65 -21.95 -21.65 -18.0 -22.1 -16.15 -22.1 -16.2 -22.2 -15.85 -22.15 -15.85 -22.55 -13.95 -23.25 -14.55 -24.1 -15.0 -23.85 -16.0 -23.75 -16.4 Q-23.45 -17.45 -23.5 -17.65 L-23.55 -17.8 Q-23.7 -18.05 -23.85 -17.9 L-24.55 -18.55 -26.9 -20.65" fill="#6f6f6f" fill-rule="evenodd" stroke="none"/>
    <path d="M-20.95 -18.55 L-21.6 -16.6 -21.65 -16.7 -21.15 -18.1 -20.95 -18.55" fill="#623509" fill-rule="evenodd" stroke="none"/>
    <path d="M-18.7 -22.9 L-18.85 -22.9 -19.7 -20.9 -20.8 -18.8 -19.8 -23.05 -19.7 -22.95 -19.55 -23.25 -19.65 -23.3 -19.65 -23.5 -19.5 -23.45 -19.15 -23.3 -18.7 -22.9" fill="url(#gradient10)" fill-rule="evenodd" stroke="none"/>
  </g>
  <defs>
    <linearGradient gradientTransform="matrix(-0.0544, -0.0543, 0.0038, -0.0038, -32.4, -35.2)" gradientUnits="userSpaceOnUse" id="gradient0" spreadMethod="pad" x1="-819.2" x2="819.2">
      <stop offset="0.0" stop-color="#666666"/>
      <stop offset="1.0" stop-color="#000000"/>
    </linearGradient>
    <linearGradient color-interpolation="linearRGB" gradientTransform="matrix(-0.018, 0.0405, -0.0049, -0.0022, 33.05, 15.15)" gradientUnits="userSpaceOnUse" id="gradient1" spreadMethod="reflect" x1="-819.2" x2="819.2">
      <stop offset="0.0" stop-color="#ffffff"/>
      <stop offset="1.0" stop-color="#000000"/>
    </linearGradient>
    <linearGradient gradientTransform="matrix(-0.009, -0.0239, 0.0023, -9.0E-4, 15.95, 20.35)" gradientUnits="userSpaceOnUse" id="gradient2" spreadMethod="pad" x1="-819.2" x2="819.2">
      <stop offset="0.0" stop-color="#ffffff"/>
      <stop offset="1.0" stop-color="#000000"/>
    </linearGradient>
    <linearGradient gradientTransform="matrix(-0.0013, 0.0142, -0.0041, -4.0E-4, -24.05, -29.25)" gradientUnits="userSpaceOnUse" id="gradient3" spreadMethod="pad" x1="-819.2" x2="819.2">
      <stop offset="0.0" stop-color="#a2a2a2"/>
      <stop offset="1.0" stop-color="#515151"/>
    </linearGradient>
    <linearGradient gradientTransform="matrix(0.0035, 0.0132, -0.0054, 0.0015, -20.1, -26.45)" gradientUnits="userSpaceOnUse" id="gradient4" spreadMethod="pad" x1="-819.2" x2="819.2">
      <stop offset="0.0" stop-color="#a2a2a2"/>
      <stop offset="1.0" stop-color="#515151"/>
    </linearGradient>
    <linearGradient gradientTransform="matrix(0.0032, -0.0088, 0.0043, 0.0016, -11.05, -22.2)" gradientUnits="userSpaceOnUse" id="gradient5" spreadMethod="pad" x1="-819.2" x2="819.2">
      <stop offset="0.0" stop-color="#a2a2a2"/>
      <stop offset="1.0" stop-color="#515151"/>
    </linearGradient>
    <linearGradient gradientTransform="matrix(-0.0029, 0.0106, -0.0032, -9.0E-4, -36.0, -30.65)" gradientUnits="userSpaceOnUse" id="gradient6" spreadMethod="pad" x1="-819.2" x2="819.2">
      <stop offset="0.0" stop-color="#a2a2a2"/>
      <stop offset="1.0" stop-color="#515151"/>
    </linearGradient>
    <linearGradient gradientTransform="matrix(-0.0118, -0.0049, 0.0013, -0.003, -37.15, -42.6)" gradientUnits="userSpaceOnUse" id="gradient7" spreadMethod="pad" x1="-819.2" x2="819.2">
      <stop offset="0.0" stop-color="#a2a2a2"/>
      <stop offset="1.0" stop-color="#515151"/>
    </linearGradient>
    <linearGradient gradientTransform="matrix(-0.007, 0.0099, -0.0034, -0.0024, -37.45, -26.2)" gradientUnits="userSpaceOnUse" id="gradient8" spreadMethod="pad" x1="-819.2" x2="819.2">
      <stop offset="0.0" stop-color="#a2a2a2"/>
      <stop offset="1.0" stop-color="#515151"/>
    </linearGradient>
    <linearGradient gradientTransform="matrix(0.0081, 0.0042, -0.0034, 0.0066, -32.3, -23.85)" gradientUnits="userSpaceOnUse" id="gradient9" spreadMethod="pad" x1="-819.2" x2="819.2">
      <stop offset="0.0" stop-color="#a2a2a2"/>
      <stop offset="1.0" stop-color="#515151"/>
    </linearGradient>
    <linearGradient gradientTransform="matrix(0.003, -0.0087, 0.004, 0.0014, -18.75, -17.0)" gradientUnits="userSpaceOnUse" id="gradient10" spreadMethod="pad" x1="-819.2" x2="819.2">
      <stop offset="0.0" stop-color="#a2a2a2"/>
      <stop offset="1.0" stop-color="#515151"/>
    </linearGradient>
  </defs>
</svg>
