<?xml version="1.0" encoding="UTF-8" standalone="no"?>
<svg xmlns:ffdec="https://www.free-decompiler.com/flash" xmlns:xlink="http://www.w3.org/1999/xlink" ffdec:objectType="shape" height="82.55px" width="77.45px" xmlns="http://www.w3.org/2000/svg">
  <g transform="matrix(1.0, 0.0, 0.0, 1.0, 38.7, 41.25)">
    <path d="M14.8 -6.6 L14.75 -6.45 26.7 1.35 26.75 1.4 38.75 8.15 21.2 39.7 20.95 40.45 20.8 40.55 20.4 41.3 10.05 38.8 2.05 35.6 Q-3.15 33.1 -11.65 28.15 -24.8 20.1 -32.9 11.4 L-33.05 11.4 -33.2 11.2 -33.2 11.15 -33.35 11.0 -33.25 10.95 Q-33.45 8.95 -30.35 -2.8 L-30.2 -3.4 -26.35 -16.8 -28.2 -18.7 -28.25 -18.65 -28.45 -18.65 -37.75 -16.8 -37.7 -16.75 -37.9 -16.7 -38.2 -16.75 -38.3 -17.0 Q-39.05 -19.0 -38.4 -29.05 L-37.6 -39.2 -28.8 -41.05 -27.65 -41.15 -27.55 -41.25 -21.0 -34.1 -16.3 -28.55 -15.4 -29.1 -14.4 -29.5 -12.7 -29.9 -12.7 -29.85 -12.25 -29.65 -12.2 -29.45 Q-4.75 -21.7 3.45 -15.1 8.9 -10.55 14.8 -6.6 M3.1 -3.45 L3.05 -3.4 Q-0.05 -5.45 -7.15 -11.2 L-9.8 -13.25 Q-17.15 -19.25 -20.2 -22.45 L-21.6 -23.95 -21.8 -23.55 -22.85 -18.7 -22.75 -18.65 -23.1 -17.25 -23.1 -17.05 -23.25 -17.15 -24.05 -13.6 -25.5 -7.7 -29.85 10.05 Q-17.55 20.6 -9.4 25.9 L-1.6 30.4 Q7.95 35.3 18.9 38.65 L18.9 37.85 19.45 34.45 20.25 30.65 20.4 29.85 21.15 27.2 21.65 25.05 Q22.0 22.95 22.7 20.9 L22.85 20.45 23.05 20.6 19.75 38.1 20.25 37.0 20.45 36.75 31.6 15.45 Q33.15 11.95 34.75 9.65 L27.55 10.1 27.5 9.95 27.5 9.9 34.2 8.9 33.95 8.8 27.65 5.35 Q24.0 3.25 20.0 0.35 L-3.5 -16.6 Q-10.6 -22.05 -12.8 -25.0 L-13.1 -25.15 -14.15 -26.1 -14.25 -26.35 -18.65 -25.15 -20.9 -25.05 3.1 -3.45 M11.1 12.05 L11.15 11.95 Q11.7 11.05 12.1 11.35 L12.5 11.1 Q14.6 10.35 15.8 11.1 L18.35 13.2 18.55 13.45 19.0 14.15 19.1 14.6 Q19.6 16.0 19.2 18.6 L18.65 20.35 Q17.95 22.05 16.5 22.6 15.15 23.05 13.95 22.25 13.4 22.1 12.75 21.25 L12.5 20.9 Q11.4 19.5 10.65 17.45 L10.25 14.2 Q10.45 13.2 11.1 12.05 M-33.9 -36.4 L-34.3 -35.85 -34.75 -31.15 -35.0 -29.05 Q-35.9 -22.55 -35.45 -21.25 -35.25 -20.65 -34.8 -20.7 L-31.5 -21.45 -27.0 -21.9 -25.8 -20.85 -25.6 -20.75 -25.5 -20.65 -24.8 -19.9 -24.15 -22.0 -23.9 -22.35 -23.15 -25.0 -23.1 -25.35 -23.1 -25.45 Q-22.85 -26.65 -21.4 -26.85 L-19.5 -27.1 -20.3 -27.85 -29.1 -37.55 -31.8 -37.3 -32.8 -37.0 -33.25 -36.8 -33.5 -36.75 -33.9 -36.4 M12.05 12.15 L11.8 12.5 11.0 14.0 10.95 14.35 10.95 15.55 11.35 17.15 12.2 18.85 Q12.9 20.1 13.9 21.1 L13.9 21.15 14.5 21.65 16.05 21.6 16.55 21.3 15.8 20.8 15.65 20.75 14.6 19.5 Q13.55 17.9 13.15 16.65 L12.75 13.95 13.1 12.7 13.2 12.2 13.55 11.5 12.7 11.6 12.05 12.15 M17.8 14.55 L16.75 13.25 15.15 12.35 14.95 13.05 Q14.45 14.7 14.95 16.1 15.6 17.9 16.8 19.6 17.8 19.15 18.0 17.15 18.15 15.5 17.8 14.55" fill="#000000" fill-rule="evenodd" stroke="none"/>
    <path d="M-23.1 -17.25 L-22.75 -18.65 -22.85 -18.7 -21.8 -23.55 -21.6 -23.95 -20.2 -22.45 Q-17.15 -19.25 -9.8 -13.25 L-7.15 -11.2 Q-0.05 -5.45 3.05 -3.4 L3.1 -3.45 13.35 3.8 13.6 3.9 22.2 9.3 25.3 10.3 25.15 10.6 24.65 12.3 24.55 12.5 24.35 13.65 20.25 13.6 20.25 13.5 18.55 13.45 18.35 13.2 15.8 11.1 Q14.6 10.35 12.5 11.1 L12.1 11.35 Q11.7 11.05 11.15 11.95 L11.1 12.05 8.6 11.35 -2.75 6.7 Q-12.8 1.35 -18.35 -7.15 -20.9 -10.95 -22.5 -15.4 L-23.1 -17.25" fill="#848484" fill-rule="evenodd" stroke="none"/>
    <path d="M3.1 -3.45 L-20.9 -25.05 -18.65 -25.15 -14.25 -26.35 -14.15 -26.1 -13.1 -25.15 -12.8 -25.0 Q-10.6 -22.05 -3.5 -16.6 L20.0 0.35 Q24.0 3.25 27.65 5.35 L33.95 8.8 34.2 8.9 27.5 9.9 27.5 9.95 27.05 10.0 26.8 10.1 25.3 10.3 22.2 9.3 13.6 3.9 13.35 3.8 3.1 -3.45" fill="url(#gradient0)" fill-rule="evenodd" stroke="none"/>
    <path d="M-34.75 -31.15 L-34.3 -35.85 -33.9 -36.4 -33.5 -35.8 -33.4 -35.6 -24.2 -25.7 -26.15 -23.25 -28.2 -24.35 Q-32.85 -27.25 -34.75 -31.15" fill="#854a0d" fill-rule="evenodd" stroke="none"/>
    <path d="M-33.9 -36.4 L-33.5 -36.75 -33.25 -36.8 -33.5 -36.7 -33.35 -36.7 -33.35 -36.2 Q-33.1 -35.5 -28.1 -30.15 L-23.1 -25.35 -23.15 -25.0 -24.2 -25.7 -33.4 -35.6 -33.5 -35.8 -33.9 -36.4" fill="#5d2c14" fill-rule="evenodd" stroke="none"/>
    <path d="M-33.25 -36.8 L-32.8 -37.0 -31.8 -37.3 -29.1 -37.55 -20.3 -27.85 -19.5 -27.1 -21.4 -26.85 Q-22.85 -26.65 -23.1 -25.45 L-23.1 -25.35 -28.1 -30.15 Q-33.1 -35.5 -33.35 -36.2 L-33.35 -36.7 -33.5 -36.7 -33.25 -36.8" fill="#85521d" fill-rule="evenodd" stroke="none"/>
    <path d="M-23.15 -25.0 L-23.9 -22.35 -24.15 -22.0 -24.8 -19.9 -25.5 -20.65 -25.55 -20.75 -25.6 -20.75 -25.8 -20.85 -27.0 -21.9 -31.5 -21.45 -34.8 -20.7 Q-35.25 -20.65 -35.45 -21.25 -35.9 -22.55 -35.0 -29.05 L-34.75 -31.15 Q-32.85 -27.25 -28.2 -24.35 L-26.15 -23.25 -24.2 -25.7 -23.15 -25.0" fill="#623509" fill-rule="evenodd" stroke="none"/>
    <path d="M-24.05 -13.6 L-23.25 -17.15 -23.1 -17.05 -23.1 -17.25 -22.5 -15.4 Q-20.9 -10.95 -18.35 -7.15 -12.8 1.35 -2.75 6.7 L8.6 11.35 11.1 12.05 Q10.45 13.2 10.25 14.2 L10.65 17.45 Q11.4 19.5 12.5 20.9 L12.75 21.25 10.8 21.35 Q3.85 21.4 -2.95 18.5 L-4.4 17.9 Q-17.05 12.0 -21.1 0.8 -22.1 -1.9 -22.8 -5.5 L-23.55 -9.85 -24.05 -13.6 M18.55 13.45 L20.25 13.5 20.25 13.6 24.35 13.65 24.3 14.25 23.2 18.85 20.2 19.8 20.1 20.05 18.65 20.35 19.2 18.6 Q19.6 16.0 19.1 14.6 L19.0 14.15 18.55 13.45" fill="#5f6160" fill-rule="evenodd" stroke="none"/>
    <path d="M21.15 27.2 L20.4 29.85 20.25 30.65 20.1 31.1 Q18.9 36.1 18.9 37.85 L18.9 38.65 Q7.95 35.3 -1.6 30.4 L-9.4 25.9 Q-17.55 20.6 -29.85 10.05 L-25.5 -7.7 -25.65 -4.05 Q-25.35 -0.7 -23.55 4.25 -21.15 10.9 -17.2 15.1 -13.15 19.2 -5.0 23.2 L-2.5 24.35 Q3.55 26.85 10.8 27.4 16.1 27.8 21.15 27.2" fill="#c2c2c2" fill-rule="evenodd" stroke="none"/>
    <path d="M22.7 20.9 Q22.0 22.95 21.65 25.05 L21.15 27.2 Q16.1 27.8 10.8 27.4 3.55 26.85 -2.5 24.35 L-5.0 23.2 Q-13.15 19.2 -17.2 15.1 -21.15 10.9 -23.55 4.25 -25.35 -0.7 -25.65 -4.05 L-25.5 -7.7 -24.05 -13.6 -23.55 -9.85 -22.8 -5.5 Q-22.1 -1.9 -21.1 0.8 -17.05 12.0 -4.4 17.9 L-2.95 18.5 Q3.85 21.4 10.8 21.35 L12.75 21.25 Q13.4 22.1 13.95 22.25 15.15 23.05 16.5 22.6 17.95 22.05 18.65 20.35 L20.1 20.05 20.2 19.8 23.2 18.85 22.7 20.9" fill="#e9e9e9" fill-rule="evenodd" stroke="none"/>
    <path d="M27.5 9.95 L27.55 10.1 34.75 9.65 Q33.15 11.95 31.6 15.45 L20.45 36.75 20.25 37.0 19.75 38.1 23.05 20.6 22.85 20.45 22.7 20.9 23.2 18.85 24.3 14.25 24.35 13.65 24.55 12.5 24.65 12.3 25.15 10.6 25.3 10.3 26.8 10.1 27.05 10.0 27.5 9.95 M20.25 30.65 L19.45 34.45 18.9 37.85 Q18.9 36.1 20.1 31.1 L20.25 30.65" fill="url(#gradient1)" fill-rule="evenodd" stroke="none"/>
    <path d="M12.05 12.15 L12.7 11.6 13.55 11.5 13.2 12.2 13.1 12.7 12.75 13.95 13.15 16.65 Q13.55 17.9 14.6 19.5 L15.65 20.75 15.8 20.8 16.55 21.3 16.05 21.6 14.5 21.65 13.9 21.15 13.9 21.1 Q12.9 20.1 12.2 18.85 L11.35 17.15 10.95 15.55 10.95 14.35 11.0 14.0 11.8 12.5 12.05 12.15" fill="url(#gradient2)" fill-rule="evenodd" stroke="none"/>
  </g>
  <defs>
    <linearGradient gradientTransform="matrix(-0.0544, -0.0543, 0.0038, -0.0038, -35.6, -38.45)" gradientUnits="userSpaceOnUse" id="gradient0" spreadMethod="pad" x1="-819.2" x2="819.2">
      <stop offset="0.0" stop-color="#666666"/>
      <stop offset="1.0" stop-color="#000000"/>
    </linearGradient>
    <linearGradient color-interpolation="linearRGB" gradientTransform="matrix(-0.018, 0.0405, -0.0049, -0.0022, 29.85, 11.9)" gradientUnits="userSpaceOnUse" id="gradient1" spreadMethod="reflect" x1="-819.2" x2="819.2">
      <stop offset="0.0" stop-color="#ffffff"/>
      <stop offset="1.0" stop-color="#000000"/>
    </linearGradient>
    <linearGradient gradientTransform="matrix(-0.009, -0.0239, 0.0023, -9.0E-4, 12.7, 17.1)" gradientUnits="userSpaceOnUse" id="gradient2" spreadMethod="pad" x1="-819.2" x2="819.2">
      <stop offset="0.0" stop-color="#ffffff"/>
      <stop offset="1.0" stop-color="#000000"/>
    </linearGradient>
  </defs>
</svg>
