<?xml version="1.0" encoding="UTF-8" standalone="no"?>
<svg xmlns:ffdec="https://www.free-decompiler.com/flash" xmlns:xlink="http://www.w3.org/1999/xlink" ffdec:objectType="shape" height="404.9px" width="548.75px" xmlns="http://www.w3.org/2000/svg">
  <g transform="matrix(1.0, 0.0, 0.0, 1.0, 282.0, 210.85)">
    <path d="M-181.9 124.85 L-182.5 114.9 Q-239.2 107.75 -224.75 56.35 -223.4 51.6 -219.6 48.3 -229.55 49.05 -235.1 40.75 -246.45 23.9 -229.35 12.25 L-235.35 0.9 Q-336.6 -50.4 -218.1 -68.6 -216.55 -74.15 -212.9 -78.65 -206.7 -86.15 -197.5 -89.65 -207.35 -94.15 -209.8 -104.95 -212.4 -116.25 -204.05 -124.1 -212.65 -135.85 -212.2 -149.4 -212.05 -153.15 -209.0 -155.5 -260.35 -215.65 -187.65 -210.45 -133.75 -207.1 -114.1 -158.0 L-99.45 -151.6 Q-102.2 -175.15 -81.9 -185.7 -68.5 -192.65 -54.3 -188.1 19.95 -237.05 40.2 -151.7 46.1 -151.6 50.65 -147.95 59.55 -140.65 58.1 -129.25 L67.75 -123.2 Q104.0 -179.3 165.45 -151.6 184.7 -172.55 210.35 -160.25 L215.0 -157.6 217.6 -155.75 214.55 -157.0 Q215.7 -104.8 163.65 -108.65 154.25 -92.0 135.6 -95.8 118.5 -70.65 90.55 -82.5 74.5 -66.65 53.15 -70.7 68.85 -46.4 97.05 -53.55 115.2 -34.4 139.4 -46.0 L152.05 -23.65 Q169.05 6.85 147.5 27.35 83.45 88.2 56.2 23.3 19.05 36.6 -5.3 5.55 3.95 54.35 -44.65 52.3 -83.6 119.4 -125.8 53.55 -134.35 83.35 -161.85 86.5 L-161.1 88.45 Q-151.45 118.1 -181.9 124.85 M208.25 -155.05 Q205.55 -157.95 209.25 -153.6 L208.25 -155.05 M-46.75 -115.45 L-49.45 -117.4 -49.75 -107.3 Q-76.75 -94.85 -103.05 -107.2 -50.45 -80.5 -88.8 -46.75 L-88.15 -33.95 Q-104.5 -28.1 -118.0 -38.8 L-119.25 -39.9 Q-56.45 24.05 -39.95 -54.6 -39.05 -58.9 -40.45 -63.7 -12.25 -86.9 -46.75 -115.45 M167.7 -115.35 Q164.3 -115.15 167.75 -115.0 L167.7 -115.35 M-176.4 128.9 Q-176.75 130.15 -176.5 128.8 L-176.4 128.9" fill="#ffffff" fill-rule="evenodd" stroke="none"/>
    <path d="M217.6 -155.75 Q251.5 -109.1 197.05 -91.0 193.6 -77.6 179.7 -75.95 L175.6 -59.2 Q201.15 -49.45 186.9 -25.95 204.15 -25.8 211.6 -10.1 311.45 23.95 230.6 55.4 L232.65 76.2 Q271.2 111.0 229.0 140.4 L229.25 148.8 Q180.3 159.9 164.75 112.1 150.35 138.05 127.4 126.1 L109.9 125.1 Q128.75 165.05 87.2 175.55 L86.25 179.2 Q12.6 223.05 4.4 137.4 L-12.4 130.0 Q-21.35 162.15 -51.65 149.2 -95.2 190.95 -131.9 142.9 L-133.65 143.8 Q-168.6 160.85 -181.9 124.85 -151.45 118.1 -161.1 88.45 L-161.85 86.5 Q-134.35 83.35 -125.8 53.55 -83.6 119.4 -44.65 52.3 3.95 54.35 -5.3 5.55 19.05 36.6 56.2 23.3 83.45 88.2 147.5 27.35 169.05 6.85 152.05 -23.65 L139.4 -46.0 Q115.2 -34.4 97.05 -53.55 68.85 -46.4 53.15 -70.7 74.5 -66.65 90.55 -82.5 118.5 -70.65 135.6 -95.8 154.25 -92.0 163.65 -108.65 215.7 -104.8 214.55 -157.0 L217.6 -155.75 M-46.75 -115.45 Q-12.25 -86.9 -40.45 -63.7 -39.05 -58.9 -39.95 -54.6 -56.45 24.05 -119.25 -39.9 L-118.0 -38.8 Q-104.5 -28.1 -88.15 -33.95 L-88.8 -46.75 Q-50.45 -80.5 -103.05 -107.2 -76.75 -94.85 -49.75 -107.3 L-49.45 -117.4 -46.75 -115.45 M208.25 -155.05 L209.25 -153.6 Q205.55 -157.95 208.25 -155.05 M167.7 -115.35 L167.75 -115.0 Q164.3 -115.15 167.7 -115.35 M166.75 106.8 L166.3 106.85 Q165.85 108.2 166.75 106.8 M52.55 28.65 Q52.9 27.9 52.4 28.45 L52.55 28.65 M-176.4 128.9 L-176.5 128.8 Q-176.75 130.15 -176.4 128.9" fill="#e6d8ff" fill-rule="evenodd" stroke="none"/>
  </g>
</svg>
