<?xml version="1.0" encoding="UTF-8" standalone="no"?>
<svg xmlns:ffdec="https://www.free-decompiler.com/flash" xmlns:xlink="http://www.w3.org/1999/xlink" ffdec:objectType="shape" height="994.35px" width="1001.45px" xmlns="http://www.w3.org/2000/svg">
  <g transform="matrix(1.0, 0.0, 0.0, 1.0, 386.35, 614.55)">
    <path d="M80.7 -415.85 Q90.8 -418.95 112.05 -436.65 110.25 -394.75 111.5 -371.6 112.8 -348.45 129.2 -364.05 145.55 -379.65 176.9 -419.2 L201.65 -451.65 175.4 -403.35 Q144.05 -347.35 127.8 -315.2 70.55 -202.4 70.55 -143.3 L70.1 -136.3 Q69.85 -130.25 71.25 -125.8 74.9 -113.6 102.0 -122.9 129.15 -132.25 162.65 -158.3 196.15 -184.4 333.0 -284.95 L323.3 -277.15 Q208.2 -184.85 208.2 -162.5 208.2 -151.4 225.95 -151.4 234.85 -151.4 246.35 -156.0 250.55 -157.65 260.1 -162.5 L260.4 -162.4 Q219.55 -123.95 202.4 -106.2 183.0 -86.2 181.85 -77.3 L180.8 -76.45 Q180.35 -75.65 183.8 -75.6 209.1 -75.65 251.6 -100.3 L281.55 -118.6 Q296.6 -127.85 302.3 -129.75 L303.95 -128.05 297.0 -122.75 287.55 -112.65 273.05 -97.75 Q256.25 -79.45 256.25 -69.5 256.25 -37.9 314.8 -38.45 359.25 -38.9 615.1 -70.65 L600.85 -68.6 602.3 -67.3 601.8 -67.15 558.45 -58.65 444.25 -36.05 435.75 -34.4 433.65 -34.0 Q317.3 -10.8 317.3 11.5 317.3 16.3 319.6 20.3 321.9 24.3 333.35 32.1 344.75 39.9 357.3 47.7 L300.65 41.5 287.9 42.05 Q287.6 41.5 287.35 41.6 286.75 41.9 286.75 45.4 286.75 50.75 403.6 140.7 423.15 155.75 437.4 166.45 L437.45 166.5 Q222.3 79.55 186.75 92.45 151.2 105.3 188.5 174.15 225.8 243.0 244.4 274.55 235.15 266.75 221.75 253.2 L189.35 219.35 Q170.05 199.0 159.95 190.0 146.0 177.45 140.25 177.45 120.6 177.45 111.95 204.7 107.65 218.4 107.25 232.95 108.9 275.2 110.65 294.3 L110.55 294.3 Q103.85 278.45 98.45 254.6 92.95 228.15 89.4 214.9 83.4 192.15 74.3 175.2 64.8 157.45 50.15 141.9 28.3 145.4 12.0 196.6 5.9 215.65 -0.3 244.25 L-9.05 286.55 Q-11.95 300.4 -22.2 379.8 -16.7 237.6 -30.5 212.25 -44.45 186.7 -66.9 224.1 -89.35 261.5 -108.6 303.1 -118.45 324.5 -123.75 332.55 L-123.95 333.4 -124.5 333.6 -125.55 335.1 Q-126.35 336.6 -126.6 334.5 L-126.7 334.55 Q-129.1 333.5 -129.4 333.15 -130.0 332.25 -130.0 328.4 L-121.9 299.15 Q-89.85 190.75 -132.95 247.35 -176.05 303.95 -205.3 347.7 L-207.55 351.05 -207.65 351.05 Q-208.55 350.95 -213.75 362.15 -218.9 373.3 -210.2 354.15 -201.5 335.0 -181.65 296.7 -161.85 258.4 -153.45 234.2 -145.0 210.0 -145.8 198.2 -146.65 186.4 -154.95 171.65 -163.3 156.9 -196.3 155.9 -229.3 154.95 -337.5 208.95 L-380.9 230.7 Q-367.3 219.15 -339.9 202.05 -312.5 184.9 -305.4 176.9 -298.4 168.9 -303.25 161.0 -308.1 153.1 -338.8 141.55 -207.1 111.5 -386.35 76.95 -357.35 78.7 -298.65 79.6 -211.0 80.9 -175.25 57.5 -163.15 49.6 -156.0 40.2 -150.6 33.05 -150.6 29.55 -150.6 16.15 -173.55 -4.35 -193.15 -21.8 -226.9 -42.4 -256.0 -60.1 -287.45 -75.3 -292.95 -78.0 -297.95 -80.3 -304.9 -83.2 -311.35 -86.3 -323.65 -91.55 -331.8 -93.9 -331.25 -95.05 -331.25 -95.6 L-332.45 -95.85 Q-332.7 -95.95 -332.2 -96.05 L-267.25 -78.4 Q-209.2 -62.35 -197.65 -61.8 -186.1 -61.25 -179.1 -71.35 -172.15 -81.45 -190.6 -110.65 L-209.25 -140.1 -209.2 -140.1 Q-155.25 -102.25 -137.5 -102.25 -110.8 -102.25 -101.7 -120.8 -97.3 -129.8 -97.3 -145.8 -97.3 -192.3 -150.75 -284.3 -165.4 -309.5 -225.7 -415.6 L-225.55 -415.6 Q-163.4 -347.55 -150.15 -347.55 -136.85 -347.55 -134.1 -361.0 -132.6 -368.6 -131.5 -394.4 L-131.15 -394.45 -128.8 -391.9 -116.8 -359.3 -97.45 -308.65 Q-87.4 -282.85 -70.9 -264.0 -54.4 -245.2 -53.2 -276.1 -52.4 -297.9 -53.0 -343.5 -36.0 -302.9 -25.65 -302.9 1.65 -302.9 9.1 -356.95 16.55 -410.95 26.5 -471.4 36.4 -531.9 44.3 -614.55 40.95 -487.45 52.4 -488.4 63.15 -489.3 71.55 -505.15 L67.8 -459.7 Q67.8 -440.6 68.4 -434.4 70.5 -412.75 80.7 -415.85 M211.25 -471.7 L214.35 -475.2 205.85 -465.05 Q208.85 -469.25 211.25 -471.7 M214.5 -468.65 Q211.4 -463.5 212.0 -465.3 L214.5 -468.65 M105.95 -41.3 Q66.55 -42.95 121.1 -89.35 79.05 -55.85 48.6 -48.45 16.3 -40.65 18.45 -68.65 20.6 -96.65 31.05 -123.75 -26.0 -81.5 59.4 -263.1 -2.45 -179.7 20.1 -276.6 L4.05 -247.9 Q-7.4 -227.9 -23.1 -239.65 -24.9 -241.05 -27.15 -241.1 L-26.45 -238.65 Q-2.9 -153.75 -57.85 -189.25 L-58.5 -189.7 -58.9 -187.65 Q-35.2 -125.55 -44.5 -93.1 -53.8 -60.65 -82.4 -53.0 -111.0 -45.4 -153.7 -50.1 L-108.65 -29.6 Q-76.75 -15.0 -105.35 6.6 -108.65 9.1 -110.75 13.05 L-104.25 11.55 Q-71.75 4.5 -65.8 15.55 -59.35 27.65 -82.55 52.35 -105.7 76.95 -154.0 112.5 L-154.2 112.6 -152.4 114.7 Q-43.6 50.35 -105.8 138.95 L-105.8 139.0 -105.75 139.0 Q-66.0 113.95 -70.65 143.35 -75.3 172.7 -76.45 177.9 L-73.8 179.45 -73.6 178.75 Q-48.8 92.95 -18.45 72.95 12.05 52.8 22.5 67.75 32.95 82.7 35.75 99.75 42.6 67.25 59.55 76.95 73.2 84.7 82.35 97.85 96.25 118.1 111.45 137.6 L112.75 139.25 113.95 135.65 Q72.3 65.65 88.05 47.6 103.6 29.75 168.3 55.5 L170.05 56.2 168.9 54.0 169.2 52.25 160.5 39.45 Q169.15 29.05 183.95 31.25 192.05 32.65 200.0 31.05 L184.5 28.4 Q137.35 19.1 94.05 -4.65 77.4 -13.75 90.6 -28.35 96.95 -35.3 105.85 -38.3 L107.85 -41.25 105.95 -41.3 M127.75 -92.1 Q127.95 -90.25 128.95 -91.05 L127.75 -92.1 M268.45 -163.6 Q266.3 -160.85 268.15 -163.45 L268.45 -163.6 M269.7 -103.6 L268.5 -102.8 268.7 -102.5 269.7 -103.6 M426.5 -33.6 L433.45 -34.95 429.85 -34.65 429.5 -34.5 426.5 -33.6 M-227.25 -414.8 Q-222.35 -405.45 -227.6 -414.9 L-227.25 -414.8 M-212.9 -145.65 L-213.0 -145.8 -211.5 -144.85 -212.9 -145.65 M-348.95 212.65 L-348.25 212.2 -348.4 211.95 -348.95 212.65" fill="#ffffff" fill-rule="evenodd" stroke="none"/>
    <path d="M127.75 -92.1 L128.95 -91.05 Q127.95 -90.25 127.75 -92.1" fill="#ede210" fill-rule="evenodd" stroke="none"/>
    <path d="M-23.1 -239.65 L-26.45 -238.65 -27.15 -241.1 Q-24.9 -241.05 -23.1 -239.65 M-57.85 -189.25 L-58.9 -187.65 -58.5 -189.7 -57.85 -189.25 M-105.35 6.6 L-104.25 11.55 -110.75 13.05 Q-108.65 9.1 -105.35 6.6 M-154.0 112.5 L-152.4 114.7 -154.2 112.6 -154.0 112.5 M-105.8 138.95 L-105.75 139.0 -105.8 139.0 -105.8 138.95 M-76.45 177.9 L-73.6 178.75 -73.8 179.45 -76.45 177.9 M111.45 137.6 L113.95 135.65 112.75 139.25 111.45 137.6 M168.3 55.5 L168.9 54.0 170.05 56.2 168.3 55.5 M183.95 31.25 L184.5 28.4 200.0 31.05 Q192.05 32.65 183.95 31.25 M105.85 -38.3 L105.95 -41.3 107.85 -41.25 105.85 -38.3" fill="#ff3300" fill-rule="evenodd" stroke="none"/>
    <path d="M-23.1 -239.65 Q-7.4 -227.9 4.05 -247.9 L20.1 -276.6 Q-2.45 -179.7 59.4 -263.1 -26.0 -81.5 31.05 -123.75 20.6 -96.65 18.45 -68.65 16.3 -40.65 48.6 -48.45 79.05 -55.85 121.1 -89.35 66.55 -42.95 105.95 -41.3 L105.85 -38.3 Q96.95 -35.3 90.6 -28.35 77.4 -13.75 94.05 -4.65 137.35 19.1 184.5 28.4 L183.95 31.25 Q169.15 29.05 160.5 39.45 L169.2 52.25 168.9 54.0 168.3 55.5 Q103.6 29.75 88.05 47.6 72.3 65.65 113.95 135.65 L111.45 137.6 Q96.25 118.1 82.35 97.85 73.2 84.7 59.55 76.95 42.6 67.25 35.75 99.75 32.95 82.7 22.5 67.75 12.05 52.8 -18.45 72.95 -48.8 92.95 -73.6 178.75 L-76.45 177.9 Q-75.3 172.7 -70.65 143.35 -66.0 113.95 -105.75 139.0 L-105.8 138.95 Q-43.6 50.35 -152.4 114.7 L-154.0 112.5 Q-105.7 76.95 -82.55 52.35 -59.35 27.65 -65.8 15.55 -71.75 4.5 -104.25 11.55 L-105.35 6.6 Q-76.75 -15.0 -108.65 -29.6 L-153.7 -50.1 Q-111.0 -45.4 -82.4 -53.0 -53.8 -60.65 -44.5 -93.1 -35.2 -125.55 -58.9 -187.65 L-57.85 -189.25 Q-2.9 -153.75 -26.45 -238.65 L-23.1 -239.65" fill="#1a0c3a" fill-rule="evenodd" stroke="none"/>
  </g>
</svg>
