<?xml version="1.0" encoding="UTF-8" standalone="no"?>
<svg xmlns:ffdec="https://www.free-decompiler.com/flash" xmlns:xlink="http://www.w3.org/1999/xlink" ffdec:objectType="shape" height="307.3px" width="367.55px" xmlns="http://www.w3.org/2000/svg">
  <g transform="matrix(1.0, 0.0, 0.0, 1.0, 160.0, 171.75)">
    <path d="M160.7 -104.2 Q164.15 -105.8 166.15 -105.7 L173.7 -110.0 Q180.95 -113.85 187.35 -116.5 189.3 -117.3 192.6 -119.0 L197.85 -121.65 202.55 -124.15 Q205.25 -125.55 207.3 -125.95 L207.45 -125.95 207.55 -125.5 Q207.55 -125.1 198.65 -119.35 L186.15 -111.25 174.55 -103.1 Q169.5 -99.55 165.4 -96.9 L163.95 -95.45 161.35 -93.3 Q160.2 -91.75 159.7 -88.75 159.25 -86.5 156.95 -84.35 154.65 -82.2 151.75 -81.3 L151.45 -81.2 Q150.4 -83.15 147.5 -83.1 145.7 -83.05 144.45 -81.9 143.05 -80.65 143.05 -78.6 143.05 -77.35 143.7 -76.2 L144.05 -75.7 141.55 -73.35 Q140.5 -72.45 135.15 -71.45 L129.25 -70.35 128.35 -70.0 127.95 -69.75 Q122.2 -66.05 116.25 -62.7 L115.75 -62.8 Q115.6 -62.9 115.6 -63.4 115.6 -63.85 120.05 -66.85 L125.05 -70.05 126.6 -71.25 126.55 -71.35 Q126.55 -72.45 128.6 -74.3 129.35 -75.55 130.25 -76.15 L130.15 -76.65 Q130.9 -77.85 133.05 -78.55 L137.05 -79.5 Q138.4 -80.4 139.0 -81.8 139.55 -83.05 139.3 -84.3 138.6 -87.65 139.5 -89.45 140.9 -92.35 146.2 -92.5 L146.45 -90.9 Q147.4 -88.55 150.25 -88.55 152.25 -88.55 153.95 -90.9 155.35 -92.85 155.35 -94.05 155.35 -96.15 153.9 -97.3 153.15 -97.9 152.2 -98.1 153.25 -99.8 154.45 -100.65 157.7 -102.85 160.7 -104.2 M51.55 -170.95 L50.25 -164.65 Q48.95 -159.2 48.25 -157.1 47.5 -154.9 47.0 -150.35 L46.35 -145.55 46.95 -142.6 47.65 -137.6 Q47.65 -135.3 47.0 -133.35 L46.05 -133.4 Q41.6 -133.25 41.6 -129.05 41.6 -127.95 42.5 -126.55 41.05 -124.45 40.45 -122.85 39.9 -121.45 39.85 -119.2 L39.85 -115.45 39.95 -111.95 Q39.9 -109.65 39.15 -108.45 38.4 -110.0 37.85 -112.75 L37.05 -117.25 35.4 -121.55 Q34.15 -124.2 34.15 -125.9 34.15 -127.5 37.05 -130.8 39.9 -134.1 39.9 -135.75 39.9 -137.65 39.15 -139.45 38.4 -141.25 38.4 -142.5 L38.5 -144.05 38.55 -144.1 Q38.8 -145.1 41.2 -150.3 L44.9 -158.25 46.15 -161.9 Q46.9 -164.35 47.5 -165.45 L48.85 -169.35 Q49.75 -171.65 51.5 -171.75 L51.55 -170.95 M48.25 -162.85 L48.15 -163.45 48.0 -162.95 48.25 -162.85 M38.5 -116.8 L38.4 -116.8 38.5 -116.7 38.5 -116.8 M25.6 -106.0 Q27.8 -109.0 31.25 -110.15 34.8 -111.35 34.8 -108.45 34.8 -107.75 30.7 -101.85 L30.65 -101.8 30.65 -101.75 30.5 -101.5 25.75 -94.65 24.75 -92.5 19.85 -85.0 18.25 -81.8 Q18.1 -82.25 18.1 -82.9 18.1 -84.8 20.15 -91.35 L22.45 -98.4 23.75 -102.1 Q24.6 -104.6 25.6 -106.0 M43.15 -119.55 Q43.9 -119.25 45.1 -117.45 L47.2 -114.3 Q48.2 -112.2 48.4 -110.8 L48.45 -109.7 Q44.95 -109.25 44.95 -105.5 44.95 -104.4 45.6 -103.25 46.35 -102.05 47.6 -101.55 46.9 -99.1 45.8 -96.4 44.1 -92.3 43.65 -88.25 L44.05 -87.05 Q44.05 -86.3 43.45 -85.35 L43.45 -84.3 43.0 -84.0 Q42.5 -84.55 42.2 -86.15 L42.0 -87.95 Q41.45 -89.4 41.0 -91.2 40.0 -95.0 40.0 -97.9 L40.0 -98.55 39.55 -98.5 Q39.3 -98.1 39.3 -98.85 L41.1 -103.45 Q42.9 -107.85 43.0 -109.05 L43.05 -114.0 43.0 -119.05 43.35 -119.05 43.15 -119.55 M124.3 -76.45 Q124.3 -75.95 120.15 -74.3 115.05 -72.3 112.35 -70.15 L107.2 -66.6 Q106.6 -66.15 105.6 -64.5 104.8 -63.15 104.25 -63.15 L103.5 -63.3 Q103.6 -64.85 103.35 -65.65 102.55 -67.95 100.15 -67.4 L96.7 -66.1 96.15 -66.25 Q96.0 -66.35 96.0 -66.85 96.0 -67.2 100.0 -68.7 105.65 -70.85 109.2 -72.6 L115.2 -75.6 Q119.7 -77.4 124.0 -77.05 L124.2 -76.95 124.3 -76.45 M132.55 -72.75 L132.5 -72.65 132.6 -72.65 132.55 -72.75 M133.5 -68.75 L133.6 -68.25 Q133.6 -67.85 129.95 -64.75 L124.3 -60.25 119.6 -56.05 116.05 -52.8 115.6 -52.95 115.4 -53.1 115.35 -53.7 Q115.35 -54.1 116.4 -56.55 L117.9 -59.7 117.1 -60.0 117.3 -60.7 117.25 -61.5 Q120.15 -61.8 125.7 -64.85 131.85 -68.3 133.35 -68.7 L133.5 -68.75 M127.5 -64.6 L127.3 -64.6 127.45 -64.5 127.5 -64.6 M119.05 -75.3 L120.1 -75.6 119.25 -75.4 119.05 -75.3 M127.0 27.85 L126.4 28.05 Q124.95 28.05 120.05 26.7 L114.0 25.0 107.05 23.95 Q102.3 23.2 100.5 22.2 L95.75 21.65 89.65 20.7 85.25 20.0 85.05 20.0 Q85.55 19.05 85.55 18.0 85.55 13.75 81.35 13.75 79.65 13.75 78.65 14.45 L78.4 14.4 Q76.65 14.4 75.65 14.85 L74.05 15.65 73.65 15.65 73.5 15.4 73.6 15.05 73.35 15.05 73.3 14.75 74.1 13.6 Q74.85 12.55 74.85 12.1 74.85 11.4 71.4 8.35 67.9 5.25 67.9 3.6 67.9 2.7 69.45 3.7 L72.1 5.75 74.5 7.3 Q76.95 8.7 78.55 8.7 79.3 8.7 80.9 7.8 82.55 6.9 84.3 6.9 87.5 6.9 90.5 9.55 L94.9 13.55 99.75 16.2 Q102.8 17.7 105.25 19.2 L105.35 19.25 109.5 20.25 114.05 21.75 121.6 24.6 Q125.95 26.15 127.25 27.15 L127.0 27.85 M104.5 22.05 L104.5 21.95 104.4 22.05 104.5 22.05 M84.4 89.85 Q85.1 90.7 86.05 91.05 L88.95 91.8 Q90.6 92.15 91.05 92.7 L93.55 95.45 95.7 98.0 97.15 100.55 98.4 103.35 Q100.2 106.5 101.95 108.6 103.4 110.45 106.95 113.95 L107.1 114.1 Q109.2 115.4 112.1 118.45 L117.25 124.0 Q118.35 126.2 122.7 129.6 L129.75 135.0 129.7 135.35 129.25 135.55 125.5 133.0 Q121.0 129.7 117.75 127.75 L111.55 123.4 110.1 122.25 Q107.8 121.05 105.7 119.15 L101.35 114.9 Q99.7 113.45 97.75 110.75 L94.75 106.65 90.55 101.65 Q87.85 98.65 86.65 98.55 83.2 98.35 79.85 95.8 77.4 93.9 76.65 92.15 75.8 91.55 75.75 90.8 L75.9 90.7 76.2 90.6 Q76.5 90.6 77.45 91.15 L78.55 91.65 Q80.0 91.65 80.4 90.65 L80.55 89.65 79.2 78.9 79.3 77.55 79.6 77.55 79.65 77.85 79.75 77.85 80.85 83.1 Q81.6 86.35 83.4 88.5 L84.4 89.85 M69.1 18.95 L69.0 18.95 68.7 18.9 68.95 18.85 68.95 18.75 Q68.95 18.35 75.0 17.95 L77.1 17.8 77.1 18.0 Q77.1 18.7 77.4 19.5 L69.5 18.95 69.1 18.95 M-40.4 -152.1 L-41.05 -153.4 -41.05 -153.85 -41.0 -153.85 -40.9 -153.65 -40.9 -153.8 -40.7 -153.4 Q-39.25 -150.9 -37.75 -147.35 L-35.9 -143.6 -34.15 -139.25 -30.45 -130.55 -30.4 -130.4 -27.4 -124.9 -25.45 -120.95 -23.45 -119.45 -20.95 -117.35 Q-19.8 -116.1 -19.25 -113.95 -22.65 -113.05 -22.65 -109.7 -22.65 -108.6 -22.0 -107.5 -20.9 -105.5 -18.25 -105.5 L-17.7 -105.5 -16.8 -104.25 Q-15.65 -102.9 -15.05 -99.9 -14.8 -98.45 -14.8 -95.55 L-14.9 -93.35 -15.35 -90.55 -15.5 -87.55 Q-15.55 -85.7 -15.95 -85.7 -16.65 -85.7 -16.95 -88.4 L-17.4 -92.9 Q-18.5 -99.85 -22.15 -99.85 L-23.65 -99.7 -24.3 -99.55 -26.35 -100.0 -27.5 -100.8 -27.5 -101.0 -28.0 -101.9 -28.35 -103.45 Q-28.35 -104.9 -26.7 -107.05 -25.1 -109.2 -25.1 -109.8 -25.1 -110.5 -25.4 -111.05 L-25.85 -111.6 -27.3 -111.95 -28.75 -112.05 Q-29.95 -112.35 -30.45 -113.05 L-31.0 -114.3 Q-31.5 -115.45 -31.95 -118.9 L-33.35 -128.15 Q-33.65 -129.85 -34.3 -132.2 L-35.05 -134.3 -36.55 -138.7 -38.9 -147.35 -40.3 -151.7 -40.4 -152.1 M-131.1 -151.35 L-132.1 -152.65 Q-129.7 -151.1 -125.8 -146.85 L-119.2 -139.5 Q-113.9 -134.8 -106.75 -127.2 L-106.15 -126.65 -98.45 -118.95 -96.45 -117.25 -95.2 -116.6 -95.4 -115.25 Q-95.4 -114.1 -94.75 -113.0 -93.65 -111.0 -91.0 -111.0 -88.3 -111.0 -86.85 -112.8 L-86.35 -113.45 -85.1 -112.75 Q-79.0 -108.95 -78.55 -104.45 -78.2 -101.1 -76.2 -96.95 -78.05 -96.0 -78.05 -93.25 -78.05 -92.1 -77.45 -91.0 -76.35 -89.0 -73.65 -89.0 L-71.65 -89.35 -70.65 -87.95 -58.35 -71.4 -58.35 -71.3 -55.75 -68.7 -54.4 -67.8 -54.45 -67.6 -54.8 -67.5 -54.95 -67.55 -55.0 -67.55 Q-55.1 -67.4 -55.4 -67.4 -56.1 -67.4 -57.25 -68.4 L-59.8 -69.35 -69.3 -72.3 Q-67.9 -73.55 -67.9 -75.45 -67.9 -77.55 -69.5 -78.75 -70.9 -79.9 -72.95 -79.9 -77.8 -79.9 -78.0 -75.65 L-78.8 -76.25 Q-79.65 -77.05 -80.15 -78.2 L-80.8 -80.2 Q-81.55 -82.8 -82.3 -84.25 -82.7 -85.0 -84.95 -85.85 -87.3 -86.75 -87.9 -87.5 -89.15 -88.95 -89.25 -91.45 L-89.1 -95.55 Q-89.1 -97.9 -92.55 -99.35 -97.05 -101.25 -98.7 -103.45 L-101.8 -107.9 -104.85 -112.2 Q-111.0 -120.1 -114.55 -125.35 -116.2 -127.15 -117.5 -129.35 L-122.0 -136.75 Q-125.2 -140.85 -131.2 -151.25 L-131.1 -151.35 M-111.05 -122.25 L-110.95 -122.35 -111.3 -122.6 -111.05 -122.25 M-82.25 -79.15 Q-81.4 -78.1 -80.3 -74.6 -78.3 -70.6 -75.6 -66.55 L-70.2 -58.6 -64.9 -50.7 -64.95 -50.4 Q-65.0 -50.25 -65.3 -50.25 -65.7 -50.25 -66.7 -51.45 -65.9 -49.45 -64.85 -45.3 L-64.9 -44.6 Q-64.8 -44.35 -65.3 -44.35 -65.55 -44.35 -68.85 -48.05 L-70.9 -50.4 -71.1 -50.4 -71.5 -50.5 Q-77.85 -59.15 -80.0 -63.95 -83.5 -71.75 -83.15 -76.35 L-82.8 -79.45 Q-82.6 -79.55 -82.25 -79.15 M-127.15 -10.2 L-106.0 -11.45 -105.85 -11.15 -99.6 -11.8 -93.0 -12.65 -90.25 -12.75 -90.2 -12.75 -88.35 -13.1 -85.95 -13.45 -84.4 -14.0 Q-84.35 -12.95 -83.75 -11.95 -82.6 -9.95 -80.0 -9.95 -77.55 -9.95 -76.35 -11.6 -75.5 -12.75 -75.5 -14.2 L-75.6 -15.4 -75.15 -15.15 Q-73.6 -14.3 -72.8 -14.3 -72.25 -14.3 -71.7 -14.75 L-71.15 -15.3 -69.65 -16.35 -63.65 -16.95 -61.05 -16.7 Q-61.8 -16.15 -63.45 -16.1 -64.6 -15.6 -65.9 -14.3 -67.85 -12.4 -67.85 -11.65 -67.85 -10.7 -63.45 -10.45 -59.05 -10.2 -59.05 -9.7 -59.05 -9.2 -64.1 -8.75 -69.15 -8.35 -69.15 -7.5 -69.15 -6.7 -63.2 -4.8 -57.25 -2.95 -57.25 -2.6 -57.25 -2.3 -57.65 -2.15 L-64.85 -2.2 -72.5 -2.0 Q-75.95 -2.0 -78.25 -2.8 L-79.95 -3.6 -84.25 -5.0 Q-85.1 -7.55 -88.85 -7.2 -90.65 -7.05 -91.75 -6.4 L-93.75 -6.65 -99.1 -7.1 -101.25 -7.0 -104.6 -6.9 -113.75 -7.25 -117.2 -8.0 -124.05 -8.15 -130.95 -8.45 -131.15 -8.6 -131.2 -9.1 Q-131.2 -9.85 -127.15 -10.2 M-46.55 -78.55 L-49.1 -79.85 Q-50.95 -80.8 -52.55 -81.4 L-56.2 -82.85 -59.3 -84.7 Q-60.75 -85.45 -61.85 -86.55 L-63.5 -88.25 -69.2 -93.5 Q-69.35 -97.25 -73.05 -97.45 L-73.9 -98.4 -72.05 -98.2 Q-69.55 -97.7 -65.85 -96.15 -64.55 -95.85 -62.65 -94.35 L-59.7 -92.05 Q-51.45 -84.65 -51.1 -83.25 L-50.7 -82.85 -46.5 -78.65 -46.55 -78.55 M-66.1 -46.4 L-66.2 -46.35 -66.1 -46.35 -66.1 -46.4 M-77.45 37.1 Q-80.4 37.9 -82.55 39.65 L-85.9 42.65 Q-87.4 43.7 -88.75 45.6 L-88.8 45.7 Q-90.2 47.05 -91.45 49.9 -92.75 52.85 -92.75 54.65 -92.75 56.05 -91.85 57.65 -91.4 58.5 -90.75 58.95 -89.15 60.0 -85.7 60.0 -82.95 60.0 -80.7 59.15 L-77.0 57.3 -73.25 55.7 -69.85 54.5 -69.65 54.55 -69.6 54.7 -70.2 55.2 -70.1 55.45 Q-70.1 56.1 -76.45 60.5 -78.65 61.85 -80.4 62.7 -81.45 61.1 -84.15 61.15 -88.6 61.25 -88.6 65.6 L-88.6 65.85 Q-94.4 67.9 -98.5 68.95 -104.15 70.4 -108.45 70.4 L-111.5 70.05 -115.25 69.65 -121.3 69.95 Q-124.35 70.45 -127.25 72.05 L-130.2 73.55 Q-132.55 75.5 -136.15 77.65 L-143.9 82.25 Q-146.85 84.1 -159.15 90.55 L-159.75 90.5 -159.95 90.35 -160.0 89.85 Q-160.0 88.85 -151.25 81.05 -144.6 75.15 -141.6 72.95 L-140.7 72.05 -136.75 68.5 -129.4 62.35 Q-126.9 59.95 -124.25 56.25 L-123.25 54.7 -121.65 53.25 Q-121.25 52.9 -119.3 52.0 -118.45 51.6 -116.75 51.55 -115.3 51.5 -114.75 51.9 -114.6 51.9 -113.5 52.75 -112.05 53.6 -110.4 53.6 -108.5 53.6 -107.8 51.7 L-107.05 48.7 -105.95 46.25 -105.1 45.2 -105.2 44.85 -104.2 43.8 -103.05 42.85 -100.7 42.7 -100.0 43.0 Q-102.15 45.15 -102.15 48.25 L-102.1 49.15 -102.2 50.1 -101.75 51.35 Q-102.15 52.2 -102.15 53.35 -102.15 54.6 -101.5 55.75 -100.35 57.75 -97.75 57.75 -95.4 57.75 -94.0 55.85 -92.85 54.35 -92.85 52.65 -92.85 50.5 -93.85 49.5 L-93.35 48.9 -92.25 47.15 -91.55 45.35 -90.0 41.7 Q-89.4 40.5 -88.65 39.65 L-87.75 38.75 -87.25 38.35 -87.15 38.45 Q-85.75 37.7 -83.0 36.9 -77.75 35.3 -74.7 36.4 L-77.45 37.1 M-61.25 39.8 L-54.6 36.8 -57.85 38.25 Q-60.3 39.3 -62.0 40.4 -66.2 43.1 -68.0 45.35 -69.85 47.65 -74.6 51.15 -79.55 54.75 -81.05 54.75 -82.7 54.75 -83.3 53.2 L-83.6 51.55 Q-83.6 47.05 -76.1 43.95 L-73.1 43.0 -72.6 43.05 -67.2 41.7 -61.25 39.8 M-4.85 54.65 L-4.8 54.65 -4.85 54.6 -4.85 54.65 M-3.05 57.15 Q-0.8 60.5 -0.25 62.0 0.3 63.45 0.3 66.2 0.3 70.3 -1.9 76.6 L-3.55 81.15 Q-7.45 81.65 -7.45 85.9 -7.45 87.15 -6.8 88.3 L-6.4 88.85 -9.05 97.05 -9.45 98.7 -9.45 99.0 Q-9.45 99.9 -10.1 102.7 L-10.75 105.9 -11.25 112.85 Q-11.35 115.15 -11.05 119.8 -11.0 123.9 -12.2 126.5 -13.35 124.0 -13.55 119.95 L-13.75 113.3 -14.85 100.2 -14.75 97.0 Q-16.55 84.45 -16.55 80.9 L-16.3 75.95 Q-14.1 75.8 -12.95 74.25 -12.1 73.1 -12.1 71.7 -12.1 70.2 -12.7 69.2 L-11.25 67.65 Q-8.8 65.15 -7.25 61.05 -5.75 57.35 -5.75 54.5 L-5.6 51.15 Q-5.55 49.1 -4.55 47.9 -3.85 49.25 -4.0 52.55 -4.1 55.6 -3.05 57.15" fill="url(#gradient0)" fill-rule="evenodd" stroke="none"/>
  </g>
  <defs>
    <radialGradient cx="0" cy="0" gradientTransform="matrix(0.2175, 0.0, 0.0, 0.2175, 3.7, -11.85)" gradientUnits="userSpaceOnUse" id="gradient0" r="819.2" spreadMethod="pad">
      <stop offset="0.0" stop-color="#bc5cff" stop-opacity="0.4509804"/>
      <stop offset="0.7529411764705882" stop-color="#361d74" stop-opacity="0.49803922"/>
      <stop offset="0.9019607843137255" stop-color="#0f0821" stop-opacity="0.4509804"/>
    </radialGradient>
  </defs>
</svg>
