<?xml version="1.0" encoding="UTF-8" standalone="no"?>
<svg xmlns:ffdec="https://www.free-decompiler.com/flash" xmlns:xlink="http://www.w3.org/1999/xlink" ffdec:objectType="shape" height="12.25px" width="12.2px" xmlns="http://www.w3.org/2000/svg">
  <g transform="matrix(1.0, 0.0, 0.0, 1.0, 13.1, 53.35)">
    <path d="M-10.6 -52.85 L-10.75 -51.0 Q-10.75 -48.6 -10.45 -47.55 L-9.95 -45.6 Q-9.6 -44.6 -9.1 -44.25 L-9.15 -44.15 -9.4 -43.95 -9.6 -43.9 -9.95 -43.85 -9.95 -43.8 -10.4 -43.65 -10.5 -43.65 -10.85 -43.55 -11.1 -43.35 -11.55 -43.25 -11.45 -42.35 Q-11.45 -41.1 -11.9 -41.1 -13.1 -41.1 -13.1 -43.55 L-13.1 -43.6 -12.3 -44.2 Q-11.4 -45.05 -11.4 -45.7 L-11.55 -46.45 -11.65 -46.6 -11.75 -47.3 -12.0 -50.95 -11.9 -53.35 -10.6 -52.85 M-4.05 -45.7 L-4.5 -45.6 Q-6.1 -49.2 -6.55 -51.5 L-5.25 -51.3 Q-4.75 -48.65 -4.0 -47.55 L-3.65 -47.7 Q-3.0 -46.55 -1.65 -46.55 L-1.2 -46.55 -1.15 -46.4 -0.9 -45.3 Q-0.9 -44.7 -1.4 -44.7 L-2.45 -44.9 Q-3.5 -45.2 -3.75 -45.65 L-3.8 -45.75 -4.05 -45.7" fill="#000000" fill-rule="evenodd" stroke="none"/>
    <path d="M-9.4 -43.95 L-9.15 -44.15 -9.1 -44.25 Q-9.6 -44.6 -9.95 -45.6 L-10.45 -47.55 Q-10.75 -48.6 -10.75 -51.0 L-10.6 -52.85 -9.9 -52.65 -6.55 -51.5 Q-6.1 -49.2 -4.5 -45.6 L-4.05 -45.7 -9.3 -43.95 -9.4 -43.95" fill="#d6c2c2" fill-rule="evenodd" stroke="none"/>
  </g>
</svg>
