<?xml version="1.0" encoding="UTF-8" standalone="no"?>
<svg xmlns:ffdec="https://www.free-decompiler.com/flash" xmlns:xlink="http://www.w3.org/1999/xlink" ffdec:objectType="shape" height="61.35px" width="78.15px" xmlns="http://www.w3.org/2000/svg">
  <g transform="matrix(1.0, 0.0, 0.0, 1.0, 36.4, 57.3)">
    <path d="M9.1 -53.5 L10.05 -50.1 11.75 -50.75 Q14.45 -51.75 17.45 -52.0 L18.05 -52.05 22.5 -51.8 Q29.65 -50.35 29.65 -41.3 29.65 -39.05 29.3 -38.25 L27.2 -35.9 Q27.2 -35.55 26.0 -34.15 L25.75 -33.8 Q29.2 -35.2 31.05 -34.85 33.65 -34.25 33.65 -30.25 L33.6 -29.05 Q33.4 -27.1 32.45 -25.9 L32.7 -25.8 Q37.05 -24.5 38.8 -22.15 40.35 -20.75 41.05 -18.05 41.75 -15.9 41.75 -13.8 41.75 -11.35 41.05 -8.65 40.35 -5.8 39.05 -4.9 L39.05 -4.75 39.5 -4.9 37.05 -1.1 36.6 -0.05 32.8 0.9 Q19.65 4.05 -1.25 4.05 L-25.1 3.25 Q-28.15 2.75 -28.85 2.15 -31.0 1.95 -35.1 0.05 L-34.5 -0.65 Q-35.55 -1.6 -35.9 -3.95 -36.4 -6.05 -36.4 -8.15 -36.4 -14.4 -33.45 -19.65 L-33.1 -20.25 Q-31.75 -22.55 -30.0 -23.85 -29.05 -24.55 -28.05 -24.95 L-25.45 -26.5 -25.95 -26.9 Q-27.6 -28.3 -28.65 -30.35 -30.4 -33.8 -30.4 -38.0 -30.4 -46.8 -21.45 -49.4 L-14.4 -49.65 -12.3 -48.8 -12.3 -48.95 -12.15 -50.3 Q-11.7 -52.35 -9.85 -54.1 -6.05 -57.5 1.7 -57.3 7.45 -56.55 9.1 -53.5" fill="url(#gradient0)" fill-rule="evenodd" stroke="none"/>
  </g>
  <defs>
    <radialGradient cx="0" cy="0" gradientTransform="matrix(0.0381, 0.0, 0.0, 0.0491, 0.55, 2.2)" gradientUnits="userSpaceOnUse" id="gradient0" r="819.2" spreadMethod="pad">
      <stop offset="0.0" stop-color="#ff6600"/>
      <stop offset="1.0" stop-color="#dd0000"/>
    </radialGradient>
  </defs>
</svg>
