<?xml version="1.0" encoding="UTF-8" standalone="no"?>
<svg xmlns:ffdec="https://www.free-decompiler.com/flash" xmlns:xlink="http://www.w3.org/1999/xlink" ffdec:objectType="shape" height="177.5px" width="56.75px" xmlns="http://www.w3.org/2000/svg">
  <g transform="matrix(1.0, 0.0, 0.0, 1.0, 26.9, 169.3)">
    <path d="M0.45 -169.3 L0.4 -168.45 Q0.4 -167.55 0.55 -166.75 L0.55 -166.65 0.85 -164.55 Q1.05 -163.0 1.5 -161.85 L2.5 -157.9 2.65 -156.2 2.65 -156.05 2.7 -155.85 2.7 -155.2 Q2.7 -153.55 3.0 -152.55 L3.35 -151.35 3.85 -150.3 3.65 -150.0 3.35 -149.75 1.75 -147.9 1.35 -146.95 1.25 -146.55 1.15 -146.55 Q0.6 -145.4 0.6 -144.25 0.6 -141.3 2.95 -138.25 L3.2 -137.95 Q6.45 -134.4 8.7 -131.3 9.35 -130.45 10.4 -127.55 L11.05 -125.6 11.8 -120.15 11.35 -120.8 9.15 -123.15 8.2 -124.4 Q5.15 -128.4 3.4 -128.4 L2.45 -128.2 Q2.5 -122.5 3.6 -119.7 5.1 -115.7 9.45 -112.25 L10.1 -112.0 Q10.85 -111.45 12.25 -111.45 L17.25 -112.3 Q19.25 -112.3 20.7 -110.85 L22.6 -108.1 24.35 -103.8 25.0 -101.6 25.6 -94.8 Q25.55 -94.5 25.2 -94.5 L25.05 -94.15 Q24.25 -95.7 22.25 -98.45 L19.45 -101.3 17.6 -102.45 15.9 -102.95 15.85 -102.9 15.4 -102.9 Q7.8 -102.9 5.35 -94.95 L4.35 -90.3 4.45 -89.7 3.8 -86.95 Q3.3 -84.2 2.8 -83.1 L2.75 -83.1 2.7 -81.3 Q3.15 -81.85 5.05 -82.85 7.1 -83.95 8.8 -84.55 L9.85 -84.95 16.05 -86.3 19.25 -86.3 Q21.75 -86.05 23.95 -85.0 25.7 -84.15 26.6 -83.1 L27.55 -82.15 28.0 -81.15 28.65 -78.9 28.9 -75.95 28.3 -67.8 27.45 -65.85 27.3 -65.6 26.8 -66.4 26.8 -66.8 25.55 -68.0 Q23.4 -69.5 20.35 -69.25 17.3 -69.0 15.15 -67.15 12.8 -65.1 12.8 -61.9 12.8 -60.4 13.3 -59.0 13.95 -57.25 15.3 -56.6 17.1 -54.6 19.75 -54.6 23.4 -54.6 25.85 -56.55 L28.45 -58.5 29.85 -59.85 29.15 -53.25 29.15 -53.0 Q29.15 -51.15 28.4 -48.65 L27.45 -45.4 27.5 -45.25 27.1 -44.5 26.5 -45.0 Q25.1 -45.95 23.2 -45.95 19.75 -45.95 18.2 -43.65 17.25 -42.3 17.25 -40.9 17.25 -39.55 18.05 -38.45 19.4 -36.5 22.55 -36.5 L25.6 -36.95 25.2 -34.85 24.85 -30.4 Q24.45 -27.9 24.45 -21.5 L25.4 -9.15 25.35 -9.1 25.4 -8.0 Q25.4 -5.65 24.9 -3.25 24.3 -0.35 23.25 1.2 L21.25 3.35 21.1 3.4 Q19.05 4.75 15.15 6.45 L11.95 7.5 8.35 8.2 6.55 8.2 6.35 8.05 6.25 8.15 5.85 8.1 6.65 6.9 7.15 5.75 Q7.15 5.4 7.5 5.3 L8.7 0.7 9.75 -6.2 10.5 -19.9 Q10.5 -22.65 9.9 -28.4 9.8 -30.9 7.95 -33.6 5.95 -36.6 3.8 -36.6 -2.85 -36.6 -6.05 -32.25 -7.1 -30.9 -8.15 -28.45 L-11.25 -20.5 -12.65 -14.8 -12.6 -6.3 -11.9 -1.9 -10.85 1.8 -10.2 3.25 -8.75 5.5 -8.85 5.5 -10.5 4.45 -10.8 4.1 -11.7 3.4 -11.75 3.4 -12.5 2.85 -12.55 2.7 -12.7 2.55 -12.65 2.65 -13.7 1.65 -15.45 -0.4 Q-18.2 -4.05 -20.1 -9.4 -21.65 -13.75 -22.3 -18.1 L-22.65 -19.6 -22.55 -20.05 -22.6 -20.2 -22.8 -21.45 -22.6 -22.6 -22.15 -22.05 -22.05 -22.0 -21.7 -21.75 -21.2 -21.3 -20.1 -21.4 Q-19.15 -21.45 -18.6 -21.8 L-17.9 -22.6 Q-17.75 -22.75 -17.5 -23.45 L-17.3 -24.35 Q-17.3 -25.1 -17.9 -25.85 L-19.15 -26.9 Q-19.8 -27.6 -21.3 -27.45 L-22.75 -26.95 -22.85 -28.75 -22.15 -41.05 -22.0 -42.0 -21.15 -39.35 Q-20.35 -37.55 -19.4 -36.85 -18.65 -36.2 -17.45 -36.2 -16.85 -36.2 -16.55 -37.25 L-16.55 -38.4 Q-16.55 -40.0 -17.25 -42.5 L-17.65 -43.9 -17.65 -43.95 -19.8 -48.7 -24.15 -53.8 Q-25.15 -55.7 -26.2 -58.95 L-26.9 -62.4 -26.25 -67.6 Q-25.8 -69.25 -24.65 -70.8 -23.25 -72.65 -21.75 -72.55 L-21.95 -71.0 Q-21.95 -69.0 -20.65 -67.0 L-19.15 -65.15 Q-17.8 -63.95 -16.15 -63.65 L-14.2 -63.3 -14.0 -63.3 -14.0 -63.35 Q-10.15 -64.4 -7.95 -66.3 L-7.5 -67.4 -5.05 -71.15 -4.35 -72.6 -1.45 -76.85 -0.55 -77.9 -0.45 -79.3 Q-0.45 -81.0 -0.95 -85.5 L-1.95 -90.55 Q-2.3 -91.1 -2.35 -92.45 L-2.6 -93.85 -3.5 -97.1 -3.95 -97.85 -4.75 -99.8 -5.2 -100.65 -5.25 -100.8 -5.35 -100.95 -6.85 -102.75 -7.1 -102.85 -7.6 -103.15 -10.85 -104.1 Q-12.5 -104.35 -15.05 -104.15 L-17.85 -103.85 -18.7 -103.6 -20.75 -102.55 -21.9 -101.65 -22.1 -102.2 -22.05 -102.6 -22.35 -104.2 Q-22.35 -105.3 -21.0 -111.25 L-18.9 -120.45 -18.95 -120.7 -18.3 -123.4 -17.9 -124.1 -16.15 -122.55 -15.05 -121.8 Q-13.8 -120.95 -12.85 -120.7 L-9.05 -120.15 Q-7.2 -120.15 -6.1 -121.7 L-5.1 -122.6 Q-4.4 -123.15 -4.25 -123.6 L-3.7 -125.4 -3.45 -127.35 Q-3.45 -128.15 -3.75 -129.75 -3.85 -131.15 -4.2 -132.25 L-4.25 -132.2 -4.6 -133.7 Q-5.65 -137.9 -5.75 -140.7 L-5.7 -140.8 -5.75 -142.7 -5.55 -144.85 -5.55 -145.15 -5.5 -145.35 -5.45 -145.2 -5.0 -147.2 Q-4.0 -149.85 -3.65 -151.45 L-2.95 -153.15 -3.0 -153.25 -1.35 -160.25 -0.55 -165.7 -0.5 -165.8 -0.5 -166.1 0.1 -168.6 Q0.1 -168.95 0.25 -169.15 L0.45 -169.3" fill="#ffffff" fill-rule="evenodd" stroke="none"/>
  </g>
</svg>
