<?xml version="1.0" encoding="UTF-8" standalone="no"?>
<svg xmlns:ffdec="https://www.free-decompiler.com/flash" xmlns:xlink="http://www.w3.org/1999/xlink" ffdec:objectType="shape" height="187.8px" width="228.6px" xmlns="http://www.w3.org/2000/svg">
  <g transform="matrix(1.0, 0.0, 0.0, 1.0, 111.15, 148.7)">
    <path d="M-111.15 -1.2 Q-111.15 -18.05 -87.2 -30.0 -65.4 -40.6 -35.45 -41.6 L-35.5 -41.45 -35.85 -40.7 Q-57.35 -39.4 -73.2 -29.4 -91.35 -17.7 -91.35 -1.2 -91.35 15.1 -73.2 26.75 -55.9 37.8 -31.75 38.3 L-30.8 39.1 Q-63.7 38.85 -87.2 27.3 -111.15 15.4 -111.15 -1.2 M32.85 -40.85 L32.5 -41.65 Q64.7 -41.35 87.6 -30.0 111.05 -18.05 111.05 -1.2 111.05 15.4 87.6 27.3 65.35 38.45 34.35 39.1 L35.05 38.2 Q57.5 37.3 73.85 26.75 91.55 15.1 91.55 -1.2 91.55 -17.7 73.85 -29.4 56.75 -40.35 32.85 -40.85" fill="#ffffff" fill-opacity="0.08627451" fill-rule="evenodd" stroke="none"/>
    <path d="M88.8 -103.25 Q91.95 -103.25 93.75 -99.7 L94.9 -95.6 94.8 -94.45 94.45 -93.85 94.3 -93.5 Q97.7 -92.9 99.5 -89.95 100.9 -87.6 100.9 -84.7 100.9 -82.9 99.95 -81.65 105.95 -83.15 108.75 -78.1 110.75 -74.7 110.75 -70.25 110.75 -66.6 109.0 -62.25 L107.6 -59.55 107.5 -59.3 107.7 -59.55 108.05 -59.2 107.6 -58.15 105.6 -56.35 102.65 -54.5 102.75 -54.15 103.15 -53.8 Q103.85 -52.5 103.85 -51.65 103.85 -50.5 103.25 -49.8 L103.25 -49.65 109.95 -49.2 Q111.7 -48.75 113.1 -47.45 L116.75 -42.95 Q117.45 -41.8 117.45 -39.35 117.45 -36.25 116.15 -33.2 115.0 -30.65 113.1 -29.1 115.0 -28.75 115.95 -26.05 116.85 -23.6 116.85 -20.3 116.85 -15.0 113.45 -11.35 107.45 -4.8 92.3 -4.8 L89.15 -4.75 Q89.9 -6.15 90.25 -7.65 L91.0 -11.3 91.05 -14.1 90.9 -17.4 89.65 -21.65 88.25 -23.55 86.4 -25.45 Q84.55 -27.2 82.75 -27.05 81.6 -27.0 81.25 -26.4 80.55 -26.5 80.55 -27.35 L81.5 -31.0 Q82.45 -34.3 82.45 -35.45 82.45 -37.8 81.65 -39.7 80.35 -42.25 78.55 -42.4 L78.45 -42.4 Q77.05 -42.5 77.05 -43.2 L77.65 -44.5 77.7 -44.55 79.75 -47.65 Q82.45 -52.35 82.45 -56.95 82.45 -58.6 81.65 -60.95 80.8 -63.4 79.85 -64.6 L76.45 -68.25 Q75.3 -69.65 72.45 -70.1 L69.3 -70.7 69.3 -70.8 68.95 -71.3 69.9 -73.15 Q70.8 -74.95 70.8 -76.55 70.8 -80.2 70.0 -81.85 68.0 -86.1 60.95 -86.1 L58.25 -85.95 57.55 -85.75 56.95 -85.95 Q57.05 -85.95 57.2 -86.1 L57.1 -86.2 58.2 -88.7 Q58.9 -89.8 59.05 -90.45 L59.55 -93.35 59.75 -94.35 Q59.75 -105.6 47.9 -104.9 L47.8 -104.9 Q43.7 -104.9 41.8 -104.2 39.55 -103.15 37.0 -102.05 L37.0 -101.9 36.75 -101.75 Q36.0 -104.6 33.75 -105.9 31.0 -107.45 26.55 -106.35 22.55 -105.35 19.35 -102.85 L18.0 -101.65 17.1 -101.25 16.3 -100.55 Q16.05 -100.8 16.05 -101.25 L16.2 -101.7 Q15.7 -102.4 16.05 -105.95 16.2 -107.95 14.9 -110.3 L12.75 -114.75 Q10.2 -118.5 7.15 -118.5 L1.05 -117.95 0.8 -117.6 0.3 -117.1 Q0.2 -117.1 0.2 -117.25 0.1 -117.1 -0.05 -117.1 L-0.15 -117.6 Q-1.1 -119.0 -3.65 -124.15 -7.8 -131.35 -11.55 -131.35 -17.05 -131.35 -22.0 -127.45 -26.8 -123.45 -26.95 -119.0 -27.55 -116.75 -27.3 -115.6 L-27.05 -114.15 Q-27.05 -113.65 -27.35 -113.25 -32.7 -112.45 -32.7 -106.05 -32.7 -103.5 -31.2 -100.75 L-30.75 -100.05 -30.7 -99.85 -29.65 -98.65 -30.15 -98.1 -32.15 -98.05 Q-40.05 -97.1 -40.2 -88.75 L-41.85 -89.6 Q-49.4 -92.8 -55.35 -88.65 L-56.55 -87.75 Q-59.0 -86.5 -60.75 -84.05 L-61.75 -82.7 -62.35 -81.35 Q-63.85 -78.5 -63.85 -76.35 L-63.35 -74.2 -62.7 -73.95 -62.5 -73.1 -62.65 -73.05 -62.7 -73.0 Q-64.9 -73.7 -67.45 -73.6 L-67.6 -73.65 -70.25 -73.25 Q-80.15 -71.4 -80.15 -61.65 L-79.6 -56.95 -79.05 -53.3 Q-77.7 -50.9 -75.8 -48.75 -75.8 -48.15 -77.2 -47.9 L-80.3 -47.2 -82.05 -45.45 Q-83.2 -44.05 -83.2 -41.55 -83.2 -38.25 -81.45 -34.05 -79.8 -30.15 -77.35 -27.0 L-77.45 -26.85 -77.35 -26.85 -77.2 -26.75 -77.6 -26.65 -77.6 -26.5 -77.7 -26.65 Q-83.1 -25.6 -85.9 -23.1 -87.75 -21.65 -88.35 -19.85 L-88.6 -19.35 -88.9 -16.4 Q-88.9 -13.2 -85.85 -5.8 -85.2 -4.2 -82.5 -0.45 L-81.45 0.75 Q-93.85 -0.2 -101.3 -7.5 -107.3 -13.35 -107.3 -17.95 -107.3 -22.05 -104.6 -23.7 L-105.65 -25.25 Q-106.15 -26.15 -106.25 -27.1 -106.25 -28.85 -105.8 -29.7 L-105.2 -30.5 Q-106.6 -31.35 -107.75 -33.45 -109.2 -36.15 -109.2 -37.55 -109.2 -42.5 -105.9 -45.8 -102.0 -49.8 -94.25 -50.15 L-91.8 -50.6 -90.95 -50.85 -90.85 -50.85 Q-90.85 -51.55 -90.5 -52.0 L-90.4 -52.5 -89.7 -53.2 -89.9 -53.45 Q-91.55 -54.0 -93.8 -57.75 -94.75 -59.3 -96.6 -63.4 L-99.3 -69.4 Q-99.55 -69.9 -99.55 -73.75 L-99.3 -78.1 Q-98.95 -79.5 -96.5 -83.25 -94.75 -85.75 -91.55 -87.75 -88.4 -89.75 -86.25 -89.4 -86.85 -89.75 -86.85 -91.05 -86.85 -96.3 -82.4 -99.6 -76.5 -104.05 -65.5 -102.4 -58.8 -100.65 -53.75 -97.15 L-52.2 -98.55 -50.2 -99.5 -51.85 -102.75 Q-53.6 -107.1 -53.6 -112.65 L-53.6 -117.6 Q-53.25 -119.2 -51.15 -123.45 -49.05 -127.45 -44.35 -130.95 -39.4 -134.5 -37.3 -133.55 L-30.7 -133.3 Q-29.75 -133.2 -29.4 -132.85 L-29.15 -132.65 -29.05 -132.6 -28.95 -132.4 -29.05 -132.75 Q-29.05 -136.0 -20.95 -142.35 -11.9 -149.4 -4.95 -148.6 4.1 -148.0 8.9 -144.7 11.6 -142.95 14.4 -138.75 15.25 -139.65 17.95 -140.7 21.6 -142.35 25.0 -143.05 L31.0 -143.45 Q33.8 -143.2 34.75 -142.25 L39.8 -139.8 Q44.4 -136.25 46.75 -133.45 49.5 -129.95 49.8 -126.8 L49.8 -126.75 49.9 -126.85 Q49.9 -128.85 54.7 -127.55 59.05 -126.65 61.3 -124.85 L64.1 -119.0 Q64.8 -119.45 65.4 -119.6 68.45 -120.15 78.2 -119.45 80.1 -118.75 83.05 -117.8 85.05 -117.25 85.95 -116.65 90.2 -113.7 90.2 -108.55 90.2 -106.55 88.8 -103.25 M78.8 -43.9 L78.7 -43.7 78.8 -43.7 78.8 -43.9 M102.55 -55.3 L102.05 -55.05 102.65 -54.5 102.55 -55.3 M-86.15 -89.4 L-85.9 -89.4 -85.8 -89.6 -86.15 -89.4 M-90.85 -50.75 L-91.3 -50.0 -90.95 -50.0 -90.85 -50.75" fill="url(#gradient0)" fill-rule="evenodd" stroke="none"/>
  </g>
  <defs>
    <radialGradient cx="0" cy="0" gradientTransform="matrix(0.1342, 0.0, 0.0, 0.1727, 3.0, -6.05)" gradientUnits="userSpaceOnUse" id="gradient0" r="819.2" spreadMethod="pad">
      <stop offset="0.6313725490196078" stop-color="#ff6600" stop-opacity="0.2"/>
      <stop offset="1.0" stop-color="#dd0000" stop-opacity="0.29803923"/>
    </radialGradient>
  </defs>
</svg>
