<?xml version="1.0" encoding="UTF-8" standalone="no"?>
<svg xmlns:ffdec="https://www.free-decompiler.com/flash" xmlns:xlink="http://www.w3.org/1999/xlink" ffdec:objectType="shape" height="534.5px" width="817.95px" xmlns="http://www.w3.org/2000/svg">
  <g transform="matrix(1.0, 0.0, 0.0, 1.0, 408.95, 267.25)">
    <path d="M181.4 -118.65 Q256.6 -69.35 256.6 0.0 256.6 69.35 181.4 118.35 106.2 167.65 0.05 167.65 -106.15 167.65 -181.3 118.35 -256.55 69.35 -256.55 0.0 -256.55 -69.35 -181.3 -118.65 -106.15 -167.65 0.05 -167.65 106.2 -167.65 181.4 -118.65" fill="url(#gradient0)" fill-rule="evenodd" stroke="none"/>
    <path d="M223.5 -146.2 Q130.85 -206.55 0.05 -206.55 -130.8 -206.55 -223.35 -146.2 -316.1 -85.45 -316.1 0.0 -316.1 85.45 -223.35 145.8 -130.8 206.55 0.05 206.55 130.85 206.55 223.5 145.8 316.15 85.45 316.15 0.0 316.15 -85.45 223.5 -146.2 M289.15 -189.1 Q409.0 -110.55 409.0 0.0 409.0 110.55 289.15 188.7 169.3 267.25 0.05 267.25 -169.2 267.25 -289.05 188.7 -408.95 110.55 -408.95 0.0 -408.95 -110.55 -289.05 -189.1 -169.2 -267.25 0.05 -267.25 169.3 -267.25 289.15 -189.1" fill="url(#gradient1)" fill-rule="evenodd" stroke="none"/>
    <path d="M223.5 -146.2 Q316.15 -85.45 316.15 0.0 316.15 85.45 223.5 145.8 130.85 206.55 0.05 206.55 -130.8 206.55 -223.35 145.8 -316.1 85.45 -316.1 0.0 -316.1 -85.45 -223.35 -146.2 -130.8 -206.55 0.05 -206.55 130.85 -206.55 223.5 -146.2 M212.8 -139.2 Q124.65 -196.7 0.05 -196.7 -124.55 -196.7 -212.7 -139.2 -301.0 -81.4 -301.0 0.0 -301.0 81.4 -212.7 138.8 -124.55 196.7 0.05 196.7 124.65 196.7 212.8 138.8 301.05 81.4 301.05 0.0 301.05 -81.4 212.8 -139.2" fill="#ffffff" fill-rule="evenodd" stroke="none"/>
  </g>
  <defs>
    <radialGradient cx="0" cy="0" gradientTransform="matrix(0.461, 0.0, 0.0, 0.3031, 3.7, -1.85)" gradientUnits="userSpaceOnUse" id="gradient0" r="819.2" spreadMethod="pad">
      <stop offset="0.20392156862745098" stop-color="#ffffff"/>
      <stop offset="1.0" stop-color="#ffffff" stop-opacity="0.0"/>
    </radialGradient>
    <radialGradient cx="0" cy="0" gradientTransform="matrix(0.461, 0.0, 0.0, 0.3031, 3.7, -1.85)" gradientUnits="userSpaceOnUse" id="gradient1" r="819.2" spreadMethod="pad">
      <stop offset="0.8941176470588236" stop-color="#ffffff" stop-opacity="0.0"/>
      <stop offset="1.0" stop-color="#ffffff"/>
    </radialGradient>
  </defs>
</svg>
