<?xml version="1.0" encoding="UTF-8" standalone="no"?>
<svg xmlns:ffdec="https://www.free-decompiler.com/flash" xmlns:xlink="http://www.w3.org/1999/xlink" ffdec:objectType="shape" height="185.2px" width="111.8px" xmlns="http://www.w3.org/2000/svg">
  <g transform="matrix(1.0, 0.0, 0.0, 1.0, 56.45, 177.95)">
    <path d="M17.4 -171.45 Q37.2 -158.35 30.0 -133.85 24.95 -116.8 32.65 -100.45 33.7 -98.15 33.4 -95.45 31.55 -80.35 41.05 -67.95 44.0 -64.05 44.4 -58.9 44.7 -55.05 43.75 -51.45 51.6 -44.35 51.1 -33.85 60.55 -24.0 48.9 -15.1 47.95 -14.35 47.4 -12.95 41.95 1.0 26.3 0.2 L16.1 0.0 Q6.4 11.05 -7.5 5.2 -22.35 -1.15 -38.1 -3.4 -45.6 -4.3 -48.75 -11.6 -51.8 -18.7 -55.55 -24.75 -57.0 -27.1 -56.15 -29.85 -55.3 -32.65 -52.5 -33.85 -52.6 -44.3 -45.15 -51.45 -45.05 -69.25 -36.3 -84.85 -35.25 -86.7 -35.15 -89.25 -34.65 -105.15 -29.35 -120.3 -28.05 -124.0 -29.15 -127.65 -33.8 -142.9 -29.4 -157.7 -24.9 -172.75 -9.7 -176.75 5.05 -180.7 15.9 -171.4 L17.4 -171.45" fill="url(#gradient0)" fill-rule="evenodd" stroke="none"/>
    <path d="M11.45 -114.55 L13.7 -113.85 Q21.6 -111.85 22.9 -120.15 L23.3 -118.8 Q24.55 -107.15 11.45 -114.55 M8.6 -108.05 Q15.6 -101.8 8.85 -96.55 7.8 -95.65 6.3 -95.2 14.3 -84.15 23.15 -94.95 19.1 -80.05 6.05 -87.6 4.35 -88.55 3.9 -90.85 L3.15 -94.6 Q-3.3 -94.4 -5.85 -100.3 -15.65 -91.9 -21.0 -103.2 -24.4 -100.5 -28.8 -101.3 L-30.05 -101.65 -29.55 -106.4 Q-24.2 -104.15 -19.8 -107.85 -15.55 -97.0 -6.05 -102.9 4.25 -93.55 9.1 -105.1 L8.6 -108.05 M18.4 -104.75 Q24.1 -100.4 27.8 -106.2 L29.15 -100.1 Q21.45 -96.7 18.1 -104.35 L18.4 -104.75 M29.05 -87.0 L32.7 -87.1 33.6 -82.1 Q32.35 -82.6 31.2 -83.3 28.95 -84.5 27.45 -86.45 L26.6 -87.6 29.05 -87.0 M18.0 -68.45 L18.4 -69.05 Q19.4 -68.55 20.45 -68.15 27.4 -65.75 28.35 -73.4 31.1 -59.2 18.0 -68.45 M22.9 -84.45 L25.05 -82.55 Q22.1 -70.4 11.45 -78.85 L13.95 -78.15 Q22.05 -76.05 22.9 -84.45 M10.45 -71.0 Q14.75 -65.2 9.15 -60.65 7.8 -59.6 6.3 -59.5 10.95 -50.5 20.3 -56.25 22.05 -57.3 23.0 -59.0 L21.05 -62.05 Q28.55 -58.1 32.55 -65.05 L33.05 -66.05 33.75 -66.15 Q36.35 -57.45 27.05 -56.45 24.85 -56.95 23.2 -58.7 16.05 -42.8 5.5 -54.25 3.65 -56.2 3.15 -58.9 -1.0 -58.9 -4.1 -61.85 -5.3 -63.0 -5.85 -64.6 -15.2 -55.85 -21.0 -67.5 -36.4 -63.55 -33.7 -78.15 -30.2 -66.75 -19.8 -72.15 -15.85 -61.75 -6.7 -66.85 -6.35 -66.95 -6.05 -67.2 0.3 -61.2 7.35 -66.25 9.1 -67.5 9.25 -69.65 3.65 -66.5 -0.2 -71.9 -1.4 -73.65 -1.55 -75.8 4.5 -68.75 11.75 -74.0 L10.45 -71.0 M26.6 -51.9 L27.8 -51.45 Q36.75 -49.2 38.4 -58.3 41.25 -42.15 26.6 -51.9 M29.2 -43.95 L29.55 -46.25 Q33.9 -31.35 18.9 -38.3 15.0 -40.1 13.05 -44.15 21.2 -41.2 25.8 -48.3 27.65 -42.1 22.45 -39.15 21.85 -38.75 21.15 -38.5 27.55 -37.95 29.2 -43.95 M33.05 -30.35 Q42.7 -31.1 41.05 -40.75 48.65 -29.35 34.9 -27.95 30.95 -15.65 21.05 -26.35 28.6 -21.95 32.55 -29.35 L33.05 -30.35 M16.25 -21.4 L16.3 -19.0 Q15.05 -15.9 12.15 -14.35 5.4 -10.55 0.05 -17.15 -2.3 -12.6 -7.15 -11.9 -18.85 -10.45 -18.85 -22.3 -10.8 -14.35 -1.35 -20.65 7.85 -13.65 16.25 -21.4 M11.7 -38.25 L10.8 -36.95 Q2.9 -27.75 -1.55 -40.1 4.25 -32.95 11.7 -38.25 M2.8 -3.05 L3.5 -1.85 Q10.55 0.9 16.9 -3.45 14.25 -5.4 13.05 -8.45 21.05 -5.7 25.8 -12.6 26.6 -8.8 25.05 -5.2 34.1 -5.8 38.75 -13.6 39.8 -15.45 40.35 -17.5 L41.1 -17.35 Q51.2 -21.2 52.95 -31.7 L54.25 -29.5 Q56.35 -25.25 54.35 -21.2 52.8 -18.1 48.9 -15.1 47.95 -14.35 47.4 -12.95 45.65 -8.45 42.85 -5.5 36.9 0.75 26.3 0.2 L25.1 0.15 Q22.2 0.35 19.2 0.05 L17.85 -0.15 17.65 0.0 16.1 0.0 12.35 3.55 Q7.35 7.3 1.45 7.25 -2.8 7.2 -7.5 5.2 -22.35 -1.15 -38.1 -3.4 L-38.25 -3.4 Q-43.95 -4.15 -47.05 -8.55 -48.05 -9.9 -48.75 -11.6 -51.45 -17.85 -54.65 -23.3 L-55.55 -24.75 Q-57.0 -27.1 -56.15 -29.85 -55.35 -32.55 -52.7 -33.75 L-52.55 -33.95 -52.5 -33.9 -52.05 -33.75 Q-52.65 -26.8 -46.55 -24.85 -43.75 -23.85 -40.9 -24.9 -42.15 -18.8 -36.05 -17.2 -32.7 -16.15 -31.35 -19.55 -31.05 -12.2 -39.0 -14.75 -43.25 -16.2 -42.3 -21.2 -43.2 -20.25 -44.65 -20.1 L-47.8 -19.45 Q-39.0 -6.7 -23.55 -7.95 -12.65 4.65 2.05 -3.15 L2.8 -3.05 M-27.65 -127.75 L-26.7 -127.15 Q-21.7 -124.5 -18.25 -129.1 -18.15 -125.75 -20.3 -123.45 -23.1 -120.5 -27.25 -121.55 L-27.65 -127.75 M-18.5 -120.4 Q-12.6 -114.4 -6.0 -119.55 -9.95 -107.6 -17.65 -117.05 -18.75 -118.4 -18.5 -120.4 M-6.0 -83.85 Q-6.25 -83.05 -6.65 -82.35 -13.5 -70.75 -18.5 -84.7 -12.75 -78.2 -6.0 -83.85 M-30.55 -93.0 L-29.7 -94.9 Q-24.8 -87.55 -18.25 -93.4 -23.4 -81.0 -29.75 -91.45 L-30.55 -93.0 M-35.85 -67.4 L-34.9 -67.35 Q-30.8 -58.0 -22.25 -63.85 -31.35 -52.2 -35.4 -65.55 L-35.85 -67.4 M-13.4 -53.7 Q-13.45 -53.0 -13.75 -52.4 -19.85 -41.6 -25.05 -55.75 -20.35 -48.65 -13.4 -53.7 M-31.45 -55.1 L-31.95 -53.85 Q-38.0 -43.8 -42.3 -56.9 L-45.4 -55.45 -44.95 -56.55 Q-43.65 -59.25 -40.9 -60.6 -40.55 -48.45 -31.45 -55.1 M-42.15 -41.6 Q-41.9 -44.8 -39.8 -47.1 L-38.75 -48.2 Q-36.6 -35.05 -24.75 -40.0 -24.1 -40.2 -23.5 -40.55 -10.05 -32.4 -4.25 -46.65 -5.6 -25.75 -22.15 -36.5 L-23.9 -37.95 Q-26.0 -34.25 -29.8 -32.95 L-34.35 -32.85 -34.15 -32.25 -34.85 -31.7 Q-32.9 -25.85 -26.75 -25.95 -24.15 -26.4 -22.25 -28.15 -28.1 -19.2 -33.8 -27.15 -35.65 -29.65 -35.05 -32.95 -40.0 -34.1 -41.5 -38.85 L-42.15 -41.6" fill="#980101" fill-opacity="0.27058825" fill-rule="evenodd" stroke="none"/>
  </g>
  <defs>
    <radialGradient cx="0" cy="0" gradientTransform="matrix(0.114, 0.0, 0.0, 0.114, 1.15, -87.05)" gradientUnits="userSpaceOnUse" id="gradient0" r="819.2" spreadMethod="pad">
      <stop offset="0.5254901960784314" stop-color="#ffffff"/>
      <stop offset="0.8235294117647058" stop-color="#fefd81"/>
      <stop offset="1.0" stop-color="#e272b6"/>
    </radialGradient>
  </defs>
</svg>
