<?xml version="1.0" encoding="UTF-8" standalone="no"?>
<svg xmlns:ffdec="https://www.free-decompiler.com/flash" xmlns:xlink="http://www.w3.org/1999/xlink" ffdec:objectType="shape" height="43.4px" width="102.75px" xmlns="http://www.w3.org/2000/svg">
  <g transform="matrix(1.0, 0.0, 0.0, 1.0, 50.6, 21.95)">
    <path d="M17.1 -2.45 Q26.7 3.0 31.3 -6.4 L32.2 -8.35 Q36.75 -8.2 38.35 -12.3 39.4 -15.05 37.75 -17.55 L37.9 -18.05 Q39.4 -18.25 40.55 -19.35 L41.8 -20.7 Q49.4 -18.9 49.2 -10.85 54.25 -6.5 50.6 -1.4 49.65 0.0 48.4 0.65 47.75 7.65 41.05 8.55 L38.15 8.2 Q37.6 16.3 29.35 16.85 L29.1 17.3 Q25.3 18.6 21.35 17.2 L21.9 17.05 19.45 14.85 Q10.25 26.7 -1.55 17.3 -13.3 25.7 -23.35 16.6 -24.5 15.55 -25.45 14.3 -35.8 18.55 -40.1 8.15 -50.55 7.2 -50.6 -3.65 -50.6 -7.35 -50.1 -11.05 -48.8 -20.2 -39.4 -21.95 -41.85 -13.4 -34.2 -9.35 -32.85 3.95 -20.1 0.9 L-19.35 1.4 -19.55 2.4 Q-10.05 9.75 -3.45 -0.15 5.95 7.85 13.65 -0.6 L16.35 -3.25 16.75 -3.1 17.1 -2.45" fill="url(#gradient0)" fill-rule="evenodd" stroke="none"/>
  </g>
  <defs>
    <radialGradient cx="0" cy="0" gradientTransform="matrix(0.0682, 0.0, 0.0, 0.0565, -3.3, -25.6)" gradientUnits="userSpaceOnUse" id="gradient0" r="819.2" spreadMethod="pad">
      <stop offset="0.7137254901960784" stop-color="#ffffff"/>
      <stop offset="0.8941176470588236" stop-color="#fefd81"/>
      <stop offset="1.0" stop-color="#e272b6"/>
    </radialGradient>
  </defs>
</svg>
