<?xml version="1.0" encoding="UTF-8" standalone="no"?>
<svg xmlns:ffdec="https://www.free-decompiler.com/flash" xmlns:xlink="http://www.w3.org/1999/xlink" ffdec:objectType="shape" height="44.85px" width="103.15px" xmlns="http://www.w3.org/2000/svg">
  <g transform="matrix(1.0, 0.0, 0.0, 1.0, 51.35, 22.5)">
    <path d="M35.15 -11.2 L35.4 -12.15 Q38.6 -12.4 40.55 -15.1 42.05 -17.2 42.0 -19.8 L42.45 -20.05 Q45.1 -19.65 46.95 -17.35 48.3 -15.8 48.0 -13.75 51.25 -12.25 51.75 -8.75 52.15 -6.25 50.35 -4.55 52.35 5.6 42.4 5.6 38.3 17.15 27.2 12.95 18.05 24.5 5.6 17.15 -5.45 27.15 -16.45 17.85 L-17.7 16.7 Q-29.45 21.5 -35.05 10.7 -47.15 11.95 -47.05 0.1 -56.0 -8.5 -46.4 -18.2 -43.4 -21.2 -39.6 -22.5 L-38.8 -21.8 Q-39.4 -20.2 -39.3 -18.45 -39.15 -16.05 -37.8 -14.2 L-38.4 -13.85 Q-39.8 -6.7 -33.4 -4.2 -31.9 -3.55 -30.3 -3.5 L-30.65 -2.8 Q-24.65 8.45 -13.75 2.1 -4.25 9.65 3.1 0.3 12.55 7.6 20.15 -0.45 21.4 -1.75 22.15 -3.4 33.05 1.05 35.35 -8.8 35.65 -10.05 35.15 -11.2" fill="url(#gradient0)" fill-rule="evenodd" stroke="none"/>
  </g>
  <defs>
    <radialGradient cx="0" cy="0" gradientTransform="matrix(0.0682, 0.0, 0.0, 0.0565, -3.3, -25.6)" gradientUnits="userSpaceOnUse" id="gradient0" r="819.2" spreadMethod="pad">
      <stop offset="0.7137254901960784" stop-color="#ffffff"/>
      <stop offset="0.8941176470588236" stop-color="#fefd81"/>
      <stop offset="1.0" stop-color="#e272b6"/>
    </radialGradient>
  </defs>
</svg>
