<?xml version="1.0" encoding="UTF-8" standalone="no"?>
<svg xmlns:ffdec="https://www.free-decompiler.com/flash" xmlns:xlink="http://www.w3.org/1999/xlink" ffdec:objectType="shape" height="44.4px" width="101.45px" xmlns="http://www.w3.org/2000/svg">
  <g transform="matrix(1.0, 0.0, 0.0, 1.0, 50.6, 21.65)">
    <path d="M37.35 -16.4 L38.4 -16.9 Q40.5 -18.15 40.85 -20.6 L41.55 -20.95 Q47.6 -19.6 48.55 -13.55 49.55 -12.75 50.0 -11.65 50.7 -9.85 49.85 -8.1 51.1 -5.85 50.8 -3.35 50.3 1.0 45.65 2.3 42.75 12.4 32.1 11.2 L30.55 13.25 Q23.45 21.6 13.15 16.5 L11.1 18.65 Q1.3 27.1 -8.95 18.15 -21.85 25.15 -30.25 12.6 L-31.5 12.85 Q-41.05 13.5 -43.5 4.1 -49.15 3.65 -50.15 -1.85 -52.6 -15.65 -41.55 -21.65 L-40.8 -21.3 -40.05 -21.5 -40.2 -18.0 -39.35 -18.35 -39.65 -14.5 -40.1 -14.0 Q-39.8 -12.5 -38.5 -11.8 -37.3 -11.1 -36.0 -10.85 L-35.85 -10.1 -36.25 -9.75 -35.65 -7.55 Q-33.35 -0.3 -25.75 -0.85 -24.45 1.8 -22.05 3.45 -14.15 8.8 -8.3 1.7 L-7.8 1.65 Q1.6 7.1 8.95 -1.0 10.45 0.0 12.15 0.55 22.15 3.35 27.15 -5.65 L27.75 -5.05 29.7 -5.35 Q38.95 -6.85 37.35 -16.4" fill="url(#gradient0)" fill-rule="evenodd" stroke="none"/>
  </g>
  <defs>
    <radialGradient cx="0" cy="0" gradientTransform="matrix(0.0682, 0.0, 0.0, 0.0565, -3.3, -25.6)" gradientUnits="userSpaceOnUse" id="gradient0" r="819.2" spreadMethod="pad">
      <stop offset="0.7137254901960784" stop-color="#ffffff"/>
      <stop offset="0.8941176470588236" stop-color="#fefd81"/>
      <stop offset="1.0" stop-color="#e272b6"/>
    </radialGradient>
  </defs>
</svg>
