<?xml version="1.0" encoding="UTF-8" standalone="no"?>
<svg xmlns:ffdec="https://www.free-decompiler.com/flash" xmlns:xlink="http://www.w3.org/1999/xlink" ffdec:objectType="shape" height="181.1px" width="111.3px" xmlns="http://www.w3.org/2000/svg">
  <g transform="matrix(1.0, 0.0, 0.0, 1.0, 55.25, 174.95)">
    <path d="M22.15 -166.45 L22.85 -165.35 22.95 -165.2 23.4 -165.5 Q26.4 -155.4 28.4 -144.25 30.25 -134.15 28.6 -123.9 28.2 -121.55 28.55 -118.95 31.5 -95.8 37.05 -72.55 38.2 -67.85 40.25 -63.25 L43.8 -55.15 52.3 -35.1 Q54.2 -30.6 55.6 -25.7 57.45 -19.05 51.6 -14.5 48.8 -12.45 46.3 -9.65 43.3 -6.2 39.45 -3.0 30.35 4.5 17.9 3.2 16.0 2.85 13.95 3.9 6.8 7.45 -1.6 5.45 -5.0 4.75 -8.7 5.35 -22.4 5.5 -35.5 -1.2 -37.55 -2.25 -39.4 -3.7 -45.65 -8.7 -51.05 -14.85 L-51.05 -15.5 Q-59.35 -28.1 -51.25 -42.95 L-48.75 -46.4 Q-44.05 -51.4 -46.15 -58.75 -46.45 -59.75 -45.6 -60.7 -38.95 -68.4 -37.85 -78.4 -36.7 -88.45 -33.2 -98.25 -30.5 -105.9 -30.75 -114.5 L-30.95 -121.45 Q-31.2 -133.65 -30.95 -145.75 -30.7 -160.5 -21.2 -169.6 -17.45 -173.2 -12.15 -174.2 1.6 -176.4 14.9 -172.05 19.6 -170.5 22.15 -166.45" fill="url(#gradient0)" fill-rule="evenodd" stroke="none"/>
    <path d="M41.25 -58.0 L43.85 -51.4 Q42.05 -49.4 39.55 -48.6 L34.9 -48.35 Q34.7 -45.65 32.55 -44.0 26.3 -39.3 21.05 -46.75 24.0 -44.9 27.4 -45.5 31.8 -46.4 33.35 -50.8 36.25 -50.4 38.75 -52.2 41.7 -54.35 41.25 -58.0 M23.95 -104.15 Q25.95 -102.6 25.55 -100.1 19.15 -91.45 11.45 -99.25 21.0 -94.95 22.9 -104.85 L23.95 -104.15 M28.35 -93.8 Q30.0 -80.3 19.4 -88.0 L18.1 -89.05 18.4 -89.45 Q24.25 -85.05 27.65 -91.0 28.4 -92.35 28.35 -93.8 M23.15 -79.65 Q16.55 -63.0 5.2 -74.65 3.5 -76.45 3.15 -79.3 -3.2 -79.15 -5.85 -85.0 -15.5 -76.75 -21.0 -87.9 -34.5 -83.4 -33.9 -96.2 L-33.7 -98.55 -33.4 -97.65 Q-29.9 -87.35 -19.85 -92.55 -15.65 -81.55 -6.05 -87.6 6.05 -78.2 8.6 -92.75 17.15 -84.35 6.3 -79.9 13.4 -69.5 22.2 -78.55 L23.15 -79.65 M38.2 -67.75 Q34.0 -65.7 30.15 -68.4 28.0 -69.85 26.6 -72.3 28.9 -71.4 31.35 -71.6 33.75 -71.55 35.9 -72.75 L38.2 -67.75 M20.35 -57.0 Q18.15 -58.2 16.65 -60.1 27.6 -55.65 29.55 -66.65 32.65 -50.15 20.35 -57.0 M25.8 -33.0 L26.1 -30.8 Q22.75 -19.45 15.0 -26.7 13.85 -25.25 12.1 -24.3 5.35 -20.5 0.0 -27.1 -2.35 -22.55 -7.2 -21.85 -18.9 -20.4 -18.9 -32.25 -10.85 -24.3 -1.4 -30.6 7.8 -23.6 16.2 -31.35 L16.25 -28.95 15.85 -28.0 Q22.25 -27.3 25.8 -33.0 M33.05 -30.35 Q40.95 -30.65 41.1 -38.4 L41.05 -40.75 Q48.1 -30.3 36.2 -28.2 L34.9 -27.95 Q34.5 -19.3 26.0 -21.35 24.25 -21.7 23.25 -22.9 L25.95 -24.7 Q31.0 -24.5 32.7 -29.15 L33.05 -30.35 M16.25 -41.8 L15.75 -40.05 Q11.65 -28.2 1.05 -36.6 L0.05 -37.55 Q-1.4 -35.15 -3.65 -33.95 -16.75 -26.95 -18.85 -42.7 -10.9 -34.7 -1.35 -41.05 7.9 -34.2 16.25 -41.8 M7.8 -8.4 L14.4 -5.7 13.05 -8.45 Q19.1 -6.15 24.05 -10.05 25.35 -11.0 25.8 -12.6 L26.1 -9.15 31.1 -14.9 Q46.35 -15.2 54.05 -30.55 L54.85 -28.2 55.6 -25.7 Q57.45 -19.05 51.6 -14.5 L49.55 -12.85 46.3 -9.65 Q43.8 -6.75 40.7 -4.05 L39.45 -3.0 Q31.9 3.2 22.1 3.4 L17.9 3.2 Q16.0 2.85 13.95 3.9 11.25 5.25 8.4 5.8 L2.35 6.1 -1.6 5.45 Q-5.0 4.75 -8.7 5.35 L-9.1 5.35 Q-22.6 5.4 -35.5 -1.2 -37.55 -2.25 -39.4 -3.7 -45.65 -8.7 -51.05 -14.85 L-51.05 -15.5 Q-54.9 -21.4 -55.2 -27.75 -54.55 -30.7 -52.25 -33.7 -51.1 -22.45 -40.9 -24.9 -41.55 -14.7 -32.6 -17.9 -31.55 -18.35 -31.35 -19.55 -31.1 -17.6 -31.55 -15.6 -32.15 -13.1 -34.65 -12.5 -26.5 -9.1 -17.9 -11.2 -7.4 1.55 6.2 -7.2 L7.8 -8.4 M-18.5 -105.1 Q-12.6 -98.55 -6.0 -104.25 -13.0 -91.15 -18.1 -103.5 L-18.5 -105.1 M-34.8 -84.25 Q-29.85 -77.05 -23.3 -82.75 -29.05 -69.2 -35.35 -83.4 L-34.8 -84.25 M-18.25 -113.8 Q-17.9 -111.5 -19.45 -110.2 -30.35 -101.35 -29.7 -115.3 -24.75 -107.8 -18.25 -113.8 M-38.75 -68.6 Q-36.3 -54.65 -23.5 -60.95 -10.35 -52.7 -4.25 -67.05 -5.25 -47.95 -21.05 -55.9 -22.8 -56.7 -23.9 -58.35 -27.35 -51.95 -34.35 -53.25 L-34.15 -52.65 -34.85 -52.1 Q-30.45 -42.2 -22.25 -48.55 -31.6 -38.2 -34.8 -50.35 -35.15 -51.8 -35.05 -53.35 -45.1 -57.95 -39.5 -67.4 L-38.75 -68.6 M-12.95 -71.75 L-13.95 -70.7 Q-22.45 -63.4 -25.05 -76.15 -20.3 -68.7 -13.4 -74.1 L-12.95 -71.75 M-1.55 -60.5 Q4.3 -53.35 11.75 -58.7 4.2 -47.3 -1.3 -59.35 L-1.55 -60.5 M-42.3 -41.6 L-43.3 -41.05 Q-46.75 -39.15 -50.55 -40.35 L-50.3 -42.8 -49.2 -42.4 Q-44.65 -41.35 -41.15 -44.35 -41.15 -42.75 -40.35 -41.45 -36.4 -34.65 -31.35 -39.45 -30.85 -36.0 -33.75 -35.25 -42.0 -33.4 -42.3 -41.6 M-35.1 -30.65 Q-29.5 -22.5 -22.25 -28.15 -28.55 -18.6 -33.95 -26.7 -35.6 -29.2 -35.65 -32.25 L-34.65 -31.9 -35.1 -30.65" fill="#980101" fill-opacity="0.27058825" fill-rule="evenodd" stroke="none"/>
  </g>
  <defs>
    <radialGradient cx="0" cy="0" gradientTransform="matrix(0.114, 0.0, 0.0, 0.114, 1.15, -87.05)" gradientUnits="userSpaceOnUse" id="gradient0" r="819.2" spreadMethod="pad">
      <stop offset="0.5254901960784314" stop-color="#ffffff"/>
      <stop offset="0.8235294117647058" stop-color="#fefd81"/>
      <stop offset="1.0" stop-color="#e272b6"/>
    </radialGradient>
  </defs>
</svg>
