<?xml version="1.0" encoding="UTF-8" standalone="no"?>
<svg xmlns:ffdec="https://www.free-decompiler.com/flash" xmlns:xlink="http://www.w3.org/1999/xlink" ffdec:objectType="shape" height="113.4px" width="199.1px" xmlns="http://www.w3.org/2000/svg">
  <g transform="matrix(1.0, 0.0, 0.0, 1.0, 97.5, 63.6)">
    <path d="M-57.5 36.1 L-57.55 36.3 -57.6 36.3 -57.8 36.3 -57.85 36.3 -59.9 36.35 -61.8 36.6 Q-62.7 36.6 -62.7 36.25 L-60.1 35.2 -59.3 34.95 -59.1 34.95 Q-58.65 33.5 -55.2 27.65 -52.05 22.2 -50.15 19.75 -54.9 17.4 -59.25 14.4 -60.15 19.8 -60.55 21.15 L-60.45 21.15 -60.4 21.3 -60.6 21.45 -60.7 21.65 -60.9 21.65 -62.9 22.5 -66.7 24.25 -69.85 25.9 Q-70.2 26.15 -70.2 27.45 L-70.0 28.5 -70.0 28.7 -70.0 29.0 -70.2 29.0 -70.3 29.0 -70.4 29.0 -71.35 29.1 -74.0 29.3 -74.9 29.05 Q-74.05 28.05 -71.65 27.45 L-71.95 26.05 Q-71.95 24.15 -68.6 22.7 -64.3 21.0 -62.1 19.8 L-61.4 15.9 -61.3 13.75 -61.0 13.1 -65.95 8.95 Q-66.85 8.0 -68.0 7.45 -70.65 6.0 -72.55 4.1 L-73.3 4.45 -74.45 4.85 -74.7 6.0 -75.0 8.25 -75.65 12.8 -76.6 17.35 -77.7 18.55 -78.45 19.65 -79.95 21.8 -79.7 21.8 -79.8 21.85 -80.1 22.2 -80.8 22.0 -82.3 21.65 -84.15 21.4 -84.85 21.0 Q-84.65 20.6 -83.5 20.55 L-81.85 20.45 Q-81.65 19.65 -80.4 18.15 L-78.5 15.8 -77.8 13.3 -77.5 10.9 Q-76.75 7.8 -76.65 6.0 -76.6 3.8 -75.2 3.05 L-73.85 2.75 Q-76.65 -0.75 -77.4 -5.35 L-79.7 -1.35 -79.85 -0.65 Q-80.2 0.65 -80.8 1.15 L-87.1 2.2 -94.15 3.25 -96.2 3.25 -96.55 3.2 -96.7 2.8 -96.65 2.65 -96.45 2.65 Q-95.65 2.65 -94.8 2.15 L-94.4 1.9 Q-92.7 1.35 -89.15 0.55 L-81.7 -0.9 -79.95 -5.2 Q-78.8 -7.75 -77.7 -9.0 L-77.7 -9.1 Q-77.7 -11.1 -77.85 -12.9 -78.25 -17.05 -76.5 -20.15 L-78.15 -19.85 -81.85 -19.25 -84.7 -16.85 -87.15 -14.4 -89.65 -11.55 -91.5 -9.65 -92.9 -10.55 -94.4 -11.7 Q-95.1 -11.95 -96.05 -12.55 L-96.3 -12.75 -97.5 -13.5 -97.5 -13.85 -96.2 -13.15 Q-94.5 -12.4 -93.35 -12.4 -92.7 -12.4 -92.5 -12.75 -91.2 -13.5 -86.55 -17.3 -82.7 -20.45 -80.25 -21.9 L-80.15 -22.3 -76.8 -22.85 -74.6 -23.2 -74.45 -23.45 -74.1 -23.35 -74.0 -23.35 -73.05 -24.25 Q-71.4 -25.55 -70.3 -27.3 -69.0 -29.55 -67.15 -31.4 L-67.95 -31.2 -71.05 -30.8 -71.3 -29.25 Q-71.2 -28.65 -71.8 -28.45 L-72.85 -28.2 Q-74.35 -27.6 -78.9 -26.2 L-81.75 -24.95 Q-83.95 -23.9 -84.6 -23.75 L-87.45 -22.45 -89.8 -21.15 Q-90.35 -21.15 -90.8 -21.95 L-91.35 -23.0 -92.25 -23.9 -92.85 -24.9 -92.7 -25.0 -91.95 -24.35 -90.6 -23.45 -84.65 -25.8 -77.3 -28.15 Q-75.9 -28.65 -74.85 -29.65 L-73.15 -31.45 Q-70.8 -33.45 -65.05 -33.6 L-64.85 -33.55 Q-61.75 -36.0 -57.6 -37.35 -50.95 -39.55 -44.6 -42.55 L-44.95 -42.55 -52.8 -40.5 -56.5 -39.45 Q-59.0 -38.6 -59.85 -38.55 L-60.1 -38.55 -60.3 -38.55 -60.4 -38.8 -60.2 -38.85 -62.2 -40.9 -65.5 -44.65 -65.25 -44.6 Q-65.1 -45.6 -62.7 -43.75 L-59.75 -41.4 -52.9 -43.05 -43.3 -44.7 -42.15 -43.75 -39.25 -45.35 -34.4 -47.4 -35.15 -47.75 Q-37.15 -48.55 -38.0 -48.5 L-39.9 -48.85 -40.95 -49.55 -41.7 -50.0 Q-42.15 -50.35 -42.2 -50.65 L-41.5 -51.05 -40.4 -51.35 -38.75 -51.2 Q-38.1 -51.55 -36.4 -50.65 -34.4 -49.7 -32.45 -48.15 L-32.5 -48.0 Q-25.95 -49.9 -19.2 -50.55 L-19.9 -51.6 -20.4 -53.05 -21.25 -55.7 Q-21.25 -56.55 -20.1 -55.05 L-18.8 -53.25 -17.75 -51.85 Q-17.35 -51.15 -17.3 -50.7 -11.4 -51.1 -5.35 -50.65 L-5.85 -53.25 -6.2 -56.5 -6.25 -56.5 -7.4 -57.45 -8.35 -58.4 -7.65 -59.4 -6.95 -60.3 -4.65 -63.25 -4.5 -63.6 Q-4.15 -62.9 -4.1 -61.95 L-4.1 -60.35 -4.1 -59.25 -4.0 -58.75 -4.75 -58.3 -4.2 -57.7 -3.75 -57.15 -3.8 -56.05 -3.55 -53.9 -2.85 -50.4 -1.65 -50.3 1.85 -50.1 1.85 -50.2 1.8 -51.5 1.45 -53.7 Q1.45 -54.2 2.25 -55.15 L1.05 -56.35 -0.2 -57.35 0.6 -58.7 1.6 -59.85 2.75 -61.2 3.3 -61.7 3.3 -61.75 Q3.65 -62.35 4.55 -62.25 L4.6 -61.8 Q4.6 -61.3 3.75 -59.95 L2.3 -58.15 4.55 -56.6 Q6.4 -55.45 6.4 -54.85 6.4 -54.65 5.35 -54.1 L3.95 -53.5 3.75 -50.2 10.15 -50.95 13.8 -51.45 16.55 -54.1 20.0 -56.9 19.65 -57.25 19.55 -57.85 Q19.55 -58.7 21.25 -59.0 L26.8 -59.55 Q28.15 -60.55 29.15 -59.9 24.95 -56.55 21.55 -55.55 21.65 -54.5 21.05 -53.1 L20.25 -51.55 27.4 -50.35 27.15 -51.05 26.9 -52.15 Q26.9 -52.5 29.15 -53.85 L31.7 -55.55 33.95 -57.85 Q34.95 -58.8 36.0 -59.05 L36.35 -59.25 36.85 -59.8 37.75 -60.05 37.75 -59.85 36.2 -56.95 34.85 -54.05 Q32.9 -53.9 31.3 -53.15 29.75 -52.4 29.75 -51.8 29.75 -50.7 30.25 -49.5 L31.1 -49.2 37.55 -46.65 39.7 -48.65 41.75 -50.3 42.45 -49.55 45.2 -51.25 47.0 -52.1 48.85 -52.7 50.4 -53.3 52.1 -53.25 Q52.9 -52.7 53.5 -52.55 L57.45 -52.0 57.65 -51.8 Q57.65 -51.5 57.15 -51.5 L53.15 -51.05 51.8 -51.05 Q51.25 -50.65 49.9 -50.35 L46.05 -49.4 Q44.75 -48.8 44.3 -47.75 43.9 -46.95 43.15 -46.95 L42.35 -47.2 41.5 -47.4 Q40.45 -47.4 39.8 -46.5 L39.4 -45.85 Q44.8 -43.5 50.05 -40.65 L51.7 -39.75 54.3 -41.05 55.75 -41.8 Q57.2 -42.55 57.55 -42.55 57.9 -42.55 58.55 -42.0 L59.3 -41.4 61.0 -40.3 Q62.05 -40.5 62.85 -41.05 L64.05 -41.85 66.75 -43.3 70.1 -44.9 Q72.0 -45.8 72.6 -45.65 L72.6 -45.4 71.95 -44.2 Q71.2 -43.3 70.75 -43.15 L70.55 -43.35 65.8 -40.7 60.85 -38.15 60.0 -38.4 59.6 -38.4 58.6 -39.15 56.95 -40.3 Q56.75 -40.3 54.5 -39.3 L53.5 -38.9 Q53.95 -38.55 54.5 -38.4 57.3 -37.0 60.1 -35.7 61.9 -34.75 63.05 -33.25 L63.8 -32.25 66.3 -33.25 71.45 -35.0 Q73.8 -36.0 77.3 -35.1 79.65 -34.55 81.55 -33.4 83.2 -33.4 85.25 -34.2 L88.7 -35.25 88.75 -35.0 85.45 -33.5 81.7 -32.0 81.4 -32.0 80.95 -32.3 80.65 -32.65 80.7 -32.8 Q76.15 -34.4 74.3 -34.4 L73.45 -34.3 74.15 -32.4 83.4 -30.75 Q87.4 -29.8 88.05 -28.8 L94.45 -28.8 94.6 -28.5 Q94.6 -28.1 91.85 -27.6 L87.6 -26.9 87.15 -26.9 Q86.65 -27.1 86.25 -28.35 L85.9 -28.8 84.75 -29.25 83.35 -29.5 80.3 -30.05 73.75 -30.8 Q73.0 -31.65 72.75 -32.8 72.3 -33.6 72.3 -34.1 L68.45 -32.85 Q65.45 -31.65 64.45 -31.4 L67.7 -26.55 67.75 -26.6 Q69.25 -26.95 71.9 -25.55 72.9 -25.1 73.2 -23.95 73.6 -22.7 76.05 -20.45 L77.65 -20.45 83.0 -21.1 83.2 -21.1 83.4 -21.1 91.95 -21.55 92.05 -21.55 95.65 -21.55 Q96.4 -21.1 97.0 -19.95 97.7 -18.9 98.55 -18.4 L98.3 -18.2 95.65 -19.45 94.7 -20.05 94.15 -20.55 84.3 -20.1 84.25 -20.1 Q84.9 -19.0 84.9 -18.0 L92.05 -17.3 93.6 -16.85 93.9 -16.85 95.2 -16.65 97.95 -16.35 98.25 -16.2 98.5 -16.25 98.75 -16.15 98.8 -16.0 Q98.8 -15.85 97.4 -15.6 L96.0 -15.4 95.8 -15.15 95.4 -15.2 95.0 -15.15 94.85 -15.25 94.9 -15.35 93.15 -15.75 93.15 -15.8 90.85 -16.3 84.85 -16.7 Q84.4 -16.7 83.7 -18.5 L83.1 -19.85 81.2 -19.7 76.8 -19.4 Q74.65 -19.4 73.05 -21.75 L71.6 -24.55 68.65 -24.9 Q71.25 -20.35 73.2 -15.45 L73.15 -14.65 74.95 -13.25 Q77.3 -11.35 77.7 -11.35 L79.95 -11.8 80.95 -11.8 Q82.35 -10.45 82.65 -8.05 82.65 -5.25 83.0 -3.85 L88.2 -4.25 94.9 -5.0 99.55 -5.95 99.6 -5.95 101.55 -6.2 101.6 -6.05 Q101.6 -5.65 100.0 -5.2 99.3 -4.6 95.3 -3.95 L92.0 -3.05 Q90.4 -2.45 87.15 -1.6 L84.95 -0.75 83.25 -0.1 Q82.75 -0.1 82.35 -2.05 L81.85 -5.0 80.1 -9.8 Q78.05 -8.55 77.75 -8.55 L72.9 -12.1 72.7 -9.0 Q72.45 -2.85 67.55 0.95 L67.3 1.25 69.65 3.2 72.9 6.6 76.1 9.9 79.35 13.5 80.3 13.5 92.05 11.35 92.55 11.35 91.9 11.7 89.0 12.6 86.25 13.6 82.2 14.3 Q81.25 14.55 80.95 14.75 L79.4 15.55 79.1 15.95 78.55 16.3 Q78.15 16.3 76.55 14.5 L74.95 12.75 71.55 9.15 66.55 2.9 Q65.35 6.4 62.85 8.95 L62.95 8.95 63.9 9.7 63.65 9.9 63.9 10.35 65.75 12.65 67.05 14.9 68.2 17.2 70.6 21.8 73.0 26.3 74.05 26.2 74.5 26.2 74.55 26.3 74.75 26.3 78.2 26.2 79.15 26.05 79.35 26.4 75.8 27.3 73.6 28.05 73.55 28.1 71.9 28.55 Q71.65 28.55 71.55 28.15 L71.35 27.65 71.35 27.4 Q70.7 26.7 69.0 23.3 L66.6 19.05 Q65.25 17.0 64.25 14.85 L63.25 12.75 62.8 11.7 62.55 11.1 Q62.3 10.85 61.35 10.65 L61.2 10.6 61.25 10.5 58.05 12.5 55.0 14.0 Q55.75 14.55 55.9 15.25 L56.9 16.65 58.15 17.9 60.4 17.6 Q62.55 17.35 63.4 18.15 L64.4 19.45 Q65.15 20.7 67.05 21.75 L67.05 21.8 67.8 22.0 68.15 22.35 68.05 22.55 67.75 22.7 67.75 23.15 67.85 23.9 68.0 24.75 67.9 26.15 Q68.4 26.15 68.65 26.65 L69.4 27.9 70.85 30.1 70.8 30.2 70.55 30.35 68.9 28.3 Q67.8 26.7 67.75 26.3 67.4 26.3 67.4 25.6 L67.4 24.65 67.0 22.9 65.9 22.7 65.95 22.5 65.75 22.5 64.0 20.6 62.45 18.75 59.5 18.95 58.05 19.05 Q57.2 19.05 55.45 16.7 L53.95 14.5 53.05 14.95 44.85 18.2 46.2 19.35 48.3 21.95 52.1 26.95 53.85 29.4 55.65 31.95 56.6 33.25 56.7 33.5 57.85 34.0 Q59.0 34.55 59.65 35.05 L59.75 35.15 60.45 35.25 60.6 35.35 61.6 35.9 61.65 35.9 62.65 36.15 Q63.35 36.3 63.55 36.65 L63.65 36.85 64.05 36.75 63.9 36.9 63.55 36.85 63.4 36.9 62.5 36.85 59.8 36.35 57.1 35.7 57.0 35.7 56.75 35.6 56.65 35.5 56.65 35.45 53.2 31.3 51.65 29.35 50.65 28.15 49.6 26.95 Q47.9 25.1 46.35 22.5 L44.65 20.0 43.7 18.65 42.85 18.95 42.35 19.55 41.65 20.95 41.6 21.0 Q41.3 21.4 39.9 21.85 L37.1 22.8 34.75 23.6 31.7 24.3 32.25 25.05 33.4 26.7 34.55 28.55 35.45 30.1 34.5 32.9 34.95 32.9 37.45 32.55 39.45 34.8 42.05 37.0 45.15 39.45 47.15 41.1 48.25 41.2 51.3 41.55 51.65 41.75 51.05 42.0 50.3 42.05 49.45 42.15 48.6 42.25 47.05 42.5 46.45 42.5 46.25 42.4 46.25 42.3 46.0 42.3 45.9 42.25 45.85 42.25 43.7 40.15 Q41.5 38.0 40.9 37.65 L38.4 35.7 Q37.0 34.75 32.9 34.7 32.4 34.2 32.4 33.5 L32.8 30.75 Q32.8 28.8 30.0 25.1 L29.7 25.6 Q29.2 26.3 27.15 26.4 L25.35 26.4 21.35 26.3 17.35 26.95 15.4 27.05 15.15 27.05 15.15 27.5 15.95 30.2 16.5 33.05 Q16.9 34.6 17.45 35.7 L17.75 37.05 18.0 38.5 Q18.2 39.2 18.9 39.75 L20.5 40.95 23.0 43.65 Q24.45 45.1 26.15 46.15 L26.4 46.1 30.95 46.1 31.15 46.3 Q31.15 46.5 29.15 46.9 L25.75 47.4 25.35 47.4 25.2 47.2 25.2 46.75 Q24.4 46.5 22.55 44.65 L19.8 41.9 Q17.2 40.05 16.55 36.85 L15.0 31.0 Q13.85 27.15 13.8 26.4 L13.05 25.25 12.85 25.25 12.25 25.25 12.35 24.75 Q12.35 23.7 11.45 23.2 11.3 22.9 10.85 22.8 L8.5 22.4 1.55 21.55 -1.1 21.8 Q-1.6 21.8 -1.5 21.35 L-4.0 20.05 -4.2 20.25 -4.15 20.25 Q-3.9 20.6 -3.85 21.25 L-3.6 22.2 -3.6 22.3 -3.35 24.35 -2.5 28.45 -2.1 32.3 -1.7 36.6 Q-1.7 37.25 -3.1 41.35 L-3.8 44.15 -3.85 44.3 -3.75 44.55 -4.1 45.35 -4.3 46.05 -4.4 46.05 -5.25 47.25 -5.75 48.6 -6.35 49.8 -6.4 49.8 -6.65 49.25 -6.7 48.85 -6.65 48.45 -6.6 45.55 -6.45 45.55 -5.75 42.3 -4.6 37.1 -4.85 29.25 -5.15 25.25 -5.4 22.1 -5.45 21.3 -5.45 21.2 -7.3 21.2 -8.75 21.0 -13.2 21.0 -15.3 21.3 -16.85 21.45 -17.7 21.25 -17.7 21.3 -17.8 22.6 -18.5 27.1 -19.5 34.3 Q-19.6 35.9 -21.35 37.65 L-24.4 40.85 -27.5 44.25 Q-29.85 47.45 -30.25 47.45 L-30.75 47.4 -30.75 46.85 -29.1 44.15 -26.25 40.55 -23.9 37.4 Q-22.85 36.0 -21.85 35.45 L-21.7 35.1 -22.0 35.15 -21.55 32.4 -20.3 26.4 -19.8 23.45 -19.65 22.7 -19.35 21.7 -19.7 21.8 -24.1 21.85 -31.1 21.95 -31.2 22.7 -32.15 26.4 -33.5 31.9 -35.35 41.2 -35.8 41.8 -35.95 42.4 -37.05 42.8 -40.0 43.5 -40.7 43.5 -40.9 43.15 Q-40.9 42.9 -39.05 42.25 L-37.15 41.6 -37.15 41.55 -36.1 36.35 -34.85 31.1 Q-34.0 27.55 -33.85 25.85 L-33.3 23.2 -33.2 22.6 -33.1 21.7 -33.2 21.45 -33.35 21.0 -36.3 21.0 -39.6 21.0 -39.8 21.85 -42.2 30.1 -43.3 34.8 Q-43.7 36.95 -44.2 38.5 L-44.3 38.7 -44.5 39.6 -45.85 40.0 -49.75 40.85 -50.15 40.85 -50.45 40.55 Q-50.45 40.15 -46.1 38.7 L-46.25 38.4 -45.25 34.65 -43.75 29.25 -42.3 24.5 -41.15 21.55 -40.7 20.7 -41.45 20.05 Q-42.05 19.5 -42.5 19.25 L-42.7 19.15 -46.85 19.15 -46.85 19.25 Q-48.0 19.1 -48.45 19.25 L-48.75 19.35 Q-49.2 21.0 -52.95 27.65 L-55.35 31.9 -57.5 36.0 -57.5 36.1 M30.65 -38.9 L32.5 -41.3 36.65 -45.35 33.7 -40.85 32.1 -38.55 27.95 -31.65 26.05 -28.45 29.85 -31.2 Q31.8 -31.2 33.25 -33.2 34.6 -35.15 34.6 -37.85 L35.3 -40.3 37.05 -43.05 36.2 -40.0 35.35 -37.7 33.25 -30.7 31.4 -24.15 33.8 -23.5 37.15 -30.0 40.3 -36.15 41.65 -38.4 41.65 -38.5 43.2 -40.5 42.2 -38.2 41.2 -35.9 38.25 -29.8 35.75 -22.8 40.3 -21.75 41.05 -29.3 42.8 -35.35 43.95 -37.7 44.1 -37.8 44.15 -37.65 43.35 -35.4 43.25 -35.25 41.65 -29.2 41.8 -22.25 45.15 -28.5 48.35 -33.45 49.9 -35.9 Q50.25 -36.25 50.5 -36.25 50.9 -36.15 50.75 -35.7 L49.1 -33.15 46.0 -28.35 43.2 -20.8 45.05 -20.15 50.65 -26.6 52.0 -32.1 52.6 -34.95 53.1 -35.3 Q54.0 -35.85 53.65 -34.5 L52.85 -31.85 51.95 -27.4 55.75 -30.8 57.55 -32.0 59.8 -32.85 58.1 -31.65 56.6 -30.45 51.9 -25.9 50.25 -18.45 52.5 -17.75 57.35 -21.8 57.5 -21.7 58.05 -22.15 58.0 -22.3 62.8 -25.8 64.2 -26.5 65.8 -26.9 Q64.95 -29.1 63.5 -30.95 61.8 -33.15 59.25 -34.25 54.3 -36.45 49.4 -39.1 41.1 -43.7 32.95 -47.05 L27.6 -43.8 27.3 -42.6 25.9 -39.65 22.7 -33.25 20.3 -26.05 20.25 -25.75 Q20.75 -25.3 21.55 -25.15 L26.3 -32.2 30.65 -38.9 M19.05 -43.7 L22.95 -46.65 20.95 -43.45 18.1 -39.7 14.45 -34.75 10.3 -26.95 15.0 -26.65 16.75 -33.35 17.1 -25.95 21.7 -33.55 24.6 -39.65 26.25 -42.8 26.25 -42.9 26.15 -42.8 22.1 -39.65 17.55 -34.6 20.65 -39.7 24.2 -43.1 32.9 -47.35 Q20.9 -52.2 8.45 -49.5 4.1 -48.45 -0.5 -48.55 L-9.15 -48.7 Q-21.9 -50.4 -33.9 -46.1 L-35.75 -45.35 -33.75 -40.5 -32.5 -37.15 -31.2 -31.95 -27.2 -24.35 -21.4 -24.65 -20.6 -26.3 -24.4 -33.05 -25.1 -38.85 -25.0 -39.3 -24.9 -38.9 -21.55 -32.7 -17.65 -25.35 -12.05 -26.8 -15.65 -32.75 -18.85 -39.85 -19.25 -42.9 -18.95 -48.5 -18.05 -43.05 -17.8 -39.95 -14.2 -32.95 -10.35 -26.7 -6.2 -27.0 -5.65 -34.6 -3.4 -40.7 -1.65 -44.2 -1.25 -44.6 Q0.2 -45.65 -0.3 -44.2 L-1.95 -40.7 -3.9 -34.85 -4.3 -27.05 -0.7 -27.1 1.8 -34.9 5.6 -40.3 8.0 -44.2 13.0 -48.35 9.95 -44.2 7.75 -40.15 5.35 -34.75 5.45 -27.0 7.9 -27.0 12.0 -34.7 16.05 -39.7 19.05 -43.7 M32.4 -30.8 L32.55 -32.25 30.9 -31.1 23.8 -24.8 30.6 -24.35 32.4 -30.8 M4.15 -34.75 Q4.85 -36.9 3.95 -35.75 L3.4 -34.75 2.1 -27.05 4.65 -27.0 4.15 -34.75 M53.2 5.9 Q56.55 1.25 56.55 -4.35 56.55 -11.15 51.0 -15.2 46.95 -18.2 42.1 -19.8 36.6 -21.55 30.75 -22.1 25.35 -22.0 20.2 -23.4 4.05 -27.6 -12.8 -24.3 L-12.9 -24.25 -16.55 -23.65 Q-33.05 -22.0 -48.2 -15.05 L-49.4 -13.95 Q-51.6 -10.1 -54.65 -6.3 -55.65 -4.9 -56.2 -3.3 -58.8 5.6 -53.25 13.6 -51.65 15.8 -49.55 17.4 L-48.95 17.9 -48.6 17.9 -46.85 18.2 -42.85 18.2 Q-42.1 18.25 -41.0 19.15 L-39.6 20.05 -33.1 20.05 Q-32.7 20.2 -32.5 20.6 L-32.3 21.0 -19.9 20.95 -19.2 20.6 -18.5 20.05 -17.95 20.05 Q-17.6 20.2 -17.3 20.45 L-16.8 20.6 -13.2 20.05 -5.25 20.2 Q-4.6 18.95 -4.15 18.95 -3.75 18.95 -3.05 19.4 L-1.95 20.1 -1.05 20.5 -0.55 20.65 1.35 20.65 7.5 21.35 9.65 21.45 Q11.6 21.65 11.85 21.95 L12.2 22.55 12.35 23.0 13.45 24.3 14.3 25.5 Q14.8 25.5 15.0 26.0 L15.05 26.05 16.1 26.05 21.45 25.45 28.3 25.5 29.05 24.65 29.4 24.0 29.45 23.85 29.5 23.85 Q29.9 23.15 30.3 23.3 L32.05 23.35 33.75 22.9 37.15 22.05 40.2 20.95 Q41.1 20.55 41.65 19.5 L41.75 19.35 42.75 18.2 Q43.35 17.55 43.35 17.0 L43.1 16.25 Q49.4 12.95 53.2 5.9 M64.75 -25.85 L63.25 -25.15 58.45 -21.55 Q57.7 -21.55 56.7 -20.95 54.25 -19.25 52.6 -16.65 L55.25 -14.8 60.05 -18.95 60.1 -18.95 61.9 -20.85 65.1 -21.85 67.05 -22.3 Q67.05 -23.8 66.4 -24.8 65.7 -25.85 64.75 -25.85 M73.85 -31.25 L73.9 -31.25 73.9 -31.3 73.85 -31.3 73.85 -31.25 M60.25 -18.5 L55.4 -13.8 57.65 -9.7 61.6 -12.05 66.7 -13.25 61.8 -10.9 61.6 -10.8 58.05 -8.65 62.1 -8.65 66.2 -8.55 62.15 -8.1 58.7 -7.65 58.5 -2.85 62.15 -4.45 66.4 -5.95 66.65 -6.0 66.3 -5.6 62.1 -3.85 58.1 -0.95 55.4 5.5 60.65 2.8 62.75 2.4 60.35 3.9 53.95 7.8 52.75 9.55 55.9 10.05 52.85 10.5 48.55 14.8 56.75 10.9 62.4 6.6 63.8 3.75 64.3 2.1 64.45 1.4 68.15 -2.4 Q72.2 -7.4 71.35 -14.2 L71.3 -15.0 67.3 -21.6 65.35 -21.2 60.25 -18.5 M46.15 -19.8 L48.95 -18.65 49.9 -24.35 46.15 -19.8 M91.85 -28.25 L91.75 -28.2 92.2 -28.25 91.85 -28.25 M-46.0 -36.95 L-47.7 -37.7 -44.7 -37.45 -40.95 -34.25 -37.15 -29.75 -32.35 -23.4 -29.05 -23.45 -32.55 -31.45 -34.05 -36.65 -34.6 -40.3 -36.3 -44.7 Q-43.75 -39.85 -52.95 -37.35 -56.25 -36.5 -55.45 -36.1 L-52.1 -34.0 -49.0 -30.5 -43.2 -26.65 -36.7 -21.45 -33.8 -22.7 -38.8 -29.1 -42.3 -33.75 -46.0 -36.95 M-56.7 -25.85 L-58.95 -27.65 -55.3 -26.6 -49.35 -22.7 -46.15 -17.8 -43.1 -19.05 -45.55 -25.15 -50.15 -29.75 -53.25 -33.25 Q-54.7 -34.95 -56.85 -35.25 L-57.35 -34.75 -58.1 -35.4 -64.05 -32.4 -61.3 -27.1 -59.1 -24.5 -53.2 -18.6 -50.15 -15.8 -47.3 -17.3 -50.6 -21.5 -56.7 -25.85 M-44.0 -24.8 L-41.85 -19.45 -38.0 -20.9 Q-40.5 -25.0 -44.95 -26.3 L-44.0 -24.8 M-62.0 -26.5 L-65.1 -31.65 -71.2 -23.65 -65.3 -23.2 -61.85 -22.45 -54.95 -18.9 -59.95 -23.9 Q-60.8 -23.9 -61.4 -24.65 -62.0 -25.4 -62.0 -26.5 M-69.4 -18.2 L-70.2 -18.7 Q-70.4 -19.05 -70.0 -19.3 L-69.1 -19.6 -68.35 -19.6 -65.25 -18.3 -58.7 -14.2 -54.65 -9.1 -52.15 -14.2 -55.35 -16.65 -63.6 -20.8 -66.95 -21.35 -72.35 -22.6 -73.3 -21.1 Q-78.3 -12.55 -75.25 -2.85 L-74.6 -2.05 -70.2 -3.15 -64.35 -3.55 -58.6 -2.7 -57.2 -5.85 -62.9 -7.8 -68.35 -9.65 -73.65 -10.55 -75.6 -10.85 -73.35 -11.3 -67.95 -10.65 -62.4 -8.95 -56.6 -6.75 -55.85 -7.4 -60.05 -12.85 -65.9 -16.55 -69.4 -18.2 M-64.55 -2.35 L-70.45 -0.75 -74.45 -1.0 -70.15 3.05 -67.05 5.6 -64.45 4.9 -58.8 3.9 -58.9 -1.55 -64.55 -2.35 M-62.6 9.05 L-60.7 10.55 -57.15 9.1 -58.4 5.05 -64.1 5.9 -65.8 6.6 -62.6 9.05 M-57.45 9.9 L-59.85 11.2 -53.3 16.25 -57.45 9.9 M-80.25 21.6 L-80.25 21.7 -80.15 21.7 -80.25 21.6 M53.25 30.6 L53.2 30.6 53.55 30.9 53.25 30.6" fill="#484848" fill-rule="evenodd" stroke="none"/>
    <path d="M-18.05 -43.05 L-18.95 -48.5 -19.25 -42.9 -33.75 -40.5 -35.75 -45.35 -33.9 -46.1 Q-21.9 -50.4 -9.15 -48.7 L-9.95 -43.75 -18.05 -43.05 M-44.7 -37.45 L-47.7 -37.7 -46.0 -36.95 -52.1 -34.0 -55.45 -36.1 Q-56.25 -36.5 -52.95 -37.35 -43.75 -39.85 -36.3 -44.7 L-34.6 -40.3 -44.7 -37.45 M-53.25 -33.25 L-61.3 -27.1 -64.05 -32.4 -58.1 -35.4 -57.35 -34.75 -56.85 -35.25 Q-54.7 -34.95 -53.25 -33.25 M-65.3 -23.2 L-71.2 -23.65 -65.1 -31.65 -62.0 -26.5 -65.3 -23.2 M-68.35 -19.6 L-69.1 -19.6 -70.0 -19.3 Q-70.4 -19.05 -70.2 -18.7 L-69.4 -18.2 -73.35 -11.3 -75.6 -10.85 -73.65 -10.55 -75.25 -2.85 Q-78.3 -12.55 -73.3 -21.1 L-72.35 -22.6 -66.95 -21.35 -68.35 -19.6" fill="#7b7b7b" fill-rule="evenodd" stroke="none"/>
    <path d="M27.3 -42.6 L27.6 -43.8 32.95 -47.05 Q41.1 -43.7 49.4 -39.1 54.3 -36.45 59.25 -34.25 61.8 -33.15 63.5 -30.95 64.95 -29.1 65.8 -26.9 L64.2 -26.5 58.1 -31.65 59.8 -32.85 57.55 -32.0 53.65 -34.5 Q54.0 -35.85 53.1 -35.3 L52.6 -34.95 50.75 -35.7 Q50.9 -36.15 50.5 -36.25 50.25 -36.25 49.9 -35.9 L44.35 -37.65 44.1 -37.8 43.95 -37.7 42.2 -38.2 43.2 -40.5 41.65 -38.5 41.65 -38.4 36.2 -40.0 37.05 -43.05 35.3 -40.3 33.7 -40.85 36.65 -45.35 32.5 -41.3 27.3 -42.6 M20.95 -43.45 L22.95 -46.65 19.05 -43.7 9.95 -44.2 13.0 -48.35 8.0 -44.2 -0.3 -44.2 Q0.2 -45.65 -1.25 -44.6 L-1.65 -44.2 -9.95 -43.75 -10.45 -40.6 -17.8 -39.95 -18.05 -43.05 -9.95 -43.75 -9.15 -48.7 -0.5 -48.55 Q4.1 -48.45 8.45 -49.5 20.9 -52.2 32.9 -47.35 L24.2 -43.1 20.95 -43.45 M-19.25 -42.9 L-18.85 -39.85 -24.9 -38.9 -25.0 -39.3 -25.1 -38.85 -32.5 -37.15 -33.75 -40.5 -19.25 -42.9 M64.75 -25.85 Q65.7 -25.85 66.4 -24.8 67.05 -23.8 67.05 -22.3 L64.75 -25.85 M67.3 -21.6 L71.3 -15.0 71.35 -14.2 Q72.2 -7.4 68.15 -2.4 69.65 -11.25 67.7 -20.45 L67.3 -21.6 M-46.0 -36.95 L-42.3 -33.75 -49.0 -30.5 -52.1 -34.0 -46.0 -36.95 M-34.6 -40.3 L-34.05 -36.65 -40.95 -34.25 -44.7 -37.45 -34.6 -40.3 M-55.3 -26.6 L-58.95 -27.65 -56.7 -25.85 -59.1 -24.5 -61.3 -27.1 -53.25 -33.25 -50.15 -29.75 -55.3 -26.6 M-62.0 -26.5 Q-62.0 -25.4 -61.4 -24.65 -60.8 -23.9 -59.95 -23.9 L-61.85 -22.45 -65.3 -23.2 -62.0 -26.5 M-69.4 -18.2 L-65.9 -16.55 -67.95 -10.65 -73.35 -11.3 -69.4 -18.2 M-73.65 -10.55 L-68.35 -9.65 -70.2 -3.15 -74.6 -2.05 -75.25 -2.85 -73.65 -10.55 M-66.95 -21.35 L-63.6 -20.8 -65.25 -18.3 -68.35 -19.6 -66.95 -21.35 M-70.45 -0.75 L-70.15 3.05 -74.45 -1.0 -70.45 -0.75" fill="#707070" fill-rule="evenodd" stroke="none"/>
    <path d="M30.65 -38.9 L26.3 -32.2 22.7 -33.25 25.9 -39.65 30.65 -38.9 M62.8 -25.8 L58.0 -22.3 58.05 -22.15 57.5 -21.7 57.35 -21.8 57.3 -21.9 57.55 -22.15 57.75 -22.25 51.9 -25.9 56.6 -30.45 62.8 -25.8 M55.75 -30.8 L51.95 -27.4 52.85 -31.85 55.75 -30.8 M52.0 -32.1 L50.65 -26.6 46.0 -28.35 49.1 -33.15 52.0 -32.1 M48.35 -33.45 L45.15 -28.5 41.65 -29.2 43.25 -35.25 43.3 -35.25 48.35 -33.45 M42.8 -35.35 L41.05 -29.3 38.25 -29.8 41.2 -35.9 42.8 -35.35 M40.3 -36.15 L37.15 -30.0 33.25 -30.7 35.35 -37.7 40.3 -36.15 M34.6 -37.85 Q34.6 -35.15 33.25 -33.2 31.8 -31.2 29.85 -31.2 L27.95 -31.65 32.1 -38.55 34.6 -37.85 M16.05 -39.7 L12.0 -34.7 5.35 -34.75 7.75 -40.15 16.05 -39.7 M5.6 -40.3 L1.8 -34.9 -3.9 -34.85 -1.95 -40.7 5.6 -40.3 M-3.4 -40.7 L-5.65 -34.6 -10.9 -33.55 -10.35 -26.7 -14.2 -32.95 -10.9 -33.55 -10.9 -33.6 -10.45 -40.6 -3.4 -40.7 M-15.65 -32.75 L-12.05 -26.8 -17.65 -25.35 -21.55 -32.7 -15.65 -32.75 M-24.4 -33.05 L-20.6 -26.3 -21.4 -24.65 -27.2 -24.35 -31.2 -31.95 -24.4 -33.05 M20.65 -39.7 L17.55 -34.6 22.1 -39.65 24.6 -39.65 21.7 -33.55 21.55 -33.55 14.45 -34.75 18.1 -39.7 20.65 -39.7 M30.9 -31.1 L32.55 -32.25 32.4 -30.8 30.9 -31.1 M3.4 -34.75 L3.95 -35.75 Q4.85 -36.9 4.15 -34.75 L3.4 -34.75 M65.1 -21.85 L61.9 -20.85 60.1 -18.95 60.05 -19.0 58.45 -21.55 63.25 -25.15 65.1 -21.85 M61.6 -12.05 L60.25 -18.5 65.35 -21.2 66.9 -13.3 66.7 -13.25 66.9 -13.25 66.4 -6.0 66.4 -5.95 62.15 -4.45 62.15 -8.1 66.2 -8.55 62.1 -8.65 61.9 -10.85 61.8 -10.9 66.7 -13.25 61.6 -12.05 M64.45 1.4 L64.3 2.1 63.65 3.75 62.4 6.6 56.75 10.9 60.35 3.9 62.75 2.4 60.65 2.8 62.1 -3.85 66.3 -5.6 64.45 1.4 M-38.8 -29.1 L-33.8 -22.7 -36.7 -21.45 -43.2 -26.65 -38.8 -29.1 M-32.55 -31.45 L-29.05 -23.45 -32.35 -23.4 -37.15 -29.75 -32.55 -31.45 M-50.6 -21.5 L-47.3 -17.3 -50.15 -15.8 -53.2 -18.6 -50.6 -21.5 M-44.0 -24.8 L-44.95 -26.3 Q-40.5 -25.0 -38.0 -20.9 L-41.85 -19.45 -44.0 -24.8 M-60.05 -12.85 L-55.85 -7.4 -56.6 -6.75 -62.4 -8.95 -60.05 -12.85 M-62.9 -7.8 L-57.2 -5.85 -58.6 -2.7 -64.35 -3.55 -62.9 -7.8 M-55.35 -16.65 L-52.15 -14.2 -54.65 -9.1 -58.7 -14.2 -55.35 -16.65 M-64.45 4.9 L-64.55 -2.35 -58.9 -1.55 -58.8 3.9 -64.45 4.9 M-45.55 -25.15 L-43.1 -19.05 -46.15 -17.8 -49.35 -22.7 -45.55 -25.15 M-64.1 5.9 L-58.4 5.05 -57.15 9.1 -60.7 10.55 -62.6 9.05 -64.1 5.9 M-57.45 9.9 L-53.3 16.25 -59.85 11.2 -57.45 9.9" fill="#545454" fill-rule="evenodd" stroke="none"/>
    <path d="M-14.2 -32.95 L-17.8 -39.95 -10.45 -40.6 -10.9 -33.6 -10.9 -33.55 -14.2 -32.95 M-18.85 -39.85 L-15.65 -32.75 -21.55 -32.7 -24.9 -38.9 -18.85 -39.85 M-25.1 -38.85 L-24.4 -33.05 -31.2 -31.95 -32.5 -37.15 -25.1 -38.85 M-42.3 -33.75 L-38.8 -29.1 -43.2 -26.65 -49.0 -30.5 -42.3 -33.75 M-34.05 -36.65 L-32.55 -31.45 -37.15 -29.75 -40.95 -34.25 -34.05 -36.65 M-55.3 -26.6 L-50.15 -29.75 -45.55 -25.15 -49.35 -22.7 -55.3 -26.6 M-59.1 -24.5 L-56.7 -25.85 -50.6 -21.5 -53.2 -18.6 -59.1 -24.5 M-59.95 -23.9 L-54.95 -18.9 -61.85 -22.45 -59.95 -23.9 M-65.9 -16.55 L-60.05 -12.85 -62.4 -8.95 -67.95 -10.65 -65.9 -16.55 M-68.35 -9.65 L-62.9 -7.8 -64.35 -3.55 -70.2 -3.15 -68.35 -9.65 M-63.6 -20.8 L-55.35 -16.65 -58.7 -14.2 -65.25 -18.3 -63.6 -20.8 M-70.45 -0.75 L-64.55 -2.35 -64.45 4.9 -67.05 5.6 -70.15 3.05 -70.45 -0.75 M-64.1 5.9 L-62.6 9.05 -65.8 6.6 -64.1 5.9" fill="#626262" fill-rule="evenodd" stroke="none"/>
    <path d="M70.8 30.2 L70.8 30.5 70.4 30.5 66.7 26.25 Q62.2 20.15 61.65 20.15 L60.65 20.4 58.85 20.65 Q57.0 20.65 56.4 20.05 L53.05 14.95 53.95 14.5 55.45 16.7 Q57.2 19.05 58.05 19.05 L59.5 18.95 62.45 18.75 64.0 20.6 65.75 22.5 65.95 22.5 65.9 22.7 67.0 22.9 67.4 24.65 67.4 25.6 Q67.4 26.3 67.75 26.3 67.8 26.7 68.9 28.3 L70.55 30.35 70.8 30.2 M62.5 36.85 L61.95 36.85 59.45 36.55 56.6 36.7 Q52.95 36.7 50.05 32.55 L41.65 20.95 42.35 19.55 42.85 18.95 43.7 18.65 44.65 20.0 46.35 22.5 Q47.9 25.1 49.6 26.95 L50.65 28.15 51.65 29.35 53.2 31.3 56.65 35.45 56.65 35.5 56.75 35.6 57.0 35.7 57.1 35.7 59.8 36.35 62.5 36.85 M47.05 42.5 L46.75 42.8 45.85 42.95 43.1 43.25 39.6 43.85 38.65 44.15 37.9 43.65 37.0 42.5 33.45 38.6 32.8 37.5 30.95 37.35 28.1 37.25 Q26.9 37.0 26.9 36.75 26.9 36.2 27.8 35.4 L28.7 34.55 Q28.7 34.05 27.3 30.4 L25.9 27.5 25.35 26.4 27.15 26.4 Q29.2 26.3 29.7 25.6 L30.0 25.1 Q32.8 28.8 32.8 30.75 L32.4 33.5 Q32.4 34.2 32.9 34.7 37.0 34.75 38.4 35.7 L40.9 37.65 Q41.5 38.0 43.7 40.15 L45.85 42.25 45.9 42.25 46.0 42.3 46.25 42.3 46.25 42.4 46.45 42.5 47.05 42.5 M-6.65 48.45 L-7.05 47.0 -8.25 42.0 -6.75 37.05 Q-6.75 36.4 -7.1 34.05 L-7.5 30.35 -7.25 27.7 -7.05 25.05 -7.2 22.45 -7.3 21.2 -5.45 21.2 -5.45 21.3 -5.4 22.1 -5.15 25.25 -4.85 29.25 -4.6 37.1 -5.75 42.3 -6.45 45.55 -6.6 45.55 -6.65 48.45 M-24.1 21.85 L-24.55 21.95 -30.3 23.45 Q-31.35 23.75 -31.35 25.05 L-31.55 26.75 -31.8 28.8 -31.7 30.4 -32.05 33.25 -32.45 37.05 Q-32.45 38.3 -32.1 38.6 L-31.2 39.1 -34.25 40.85 -35.8 41.8 -35.35 41.2 -33.5 31.9 -32.15 26.4 -31.2 22.7 -31.1 21.95 -24.1 21.85 M-36.3 21.0 Q-38.8 23.55 -40.2 30.0 L-40.8 33.85 -41.0 35.15 Q-41.5 36.05 -44.3 38.7 L-44.2 38.5 Q-43.7 36.95 -43.3 34.8 L-42.2 30.1 -39.8 21.85 -39.6 21.0 -36.3 21.0 M-42.5 19.25 L-45.15 27.0 -45.55 26.7 -46.4 26.55 Q-48.45 26.55 -49.95 27.55 L-54.1 31.25 Q-55.25 32.35 -56.4 34.2 L-57.5 36.1 -57.5 36.0 -55.35 31.9 -52.95 27.65 Q-49.2 21.0 -48.75 19.35 L-48.45 19.25 Q-48.0 19.1 -46.85 19.25 L-46.85 19.15 -42.7 19.15 -42.5 19.25 M-13.2 -1.2 L-14.5 -0.75 -14.5 -0.95 -19.9 0.5 -21.25 3.25 -12.7 -0.5 -12.6 -0.25 -11.05 1.05 Q-1.15 -1.9 8.7 0.4 10.2 0.9 10.85 2.15 14.2 8.0 9.15 13.3 L9.15 13.65 6.25 14.9 9.85 13.7 9.95 13.5 12.75 13.35 14.2 13.0 Q17.2 13.4 20.0 11.3 22.15 9.7 24.9 9.15 38.75 5.95 53.2 5.9 49.4 12.95 43.1 16.25 L43.35 17.0 Q43.35 17.55 42.75 18.2 L41.75 19.35 41.65 19.5 Q41.1 20.55 40.2 20.95 L37.15 22.05 33.75 22.9 32.05 23.35 30.3 23.3 Q29.9 23.15 29.5 23.85 L29.45 23.85 29.4 24.0 29.05 24.65 28.3 25.5 21.45 25.45 16.1 26.05 15.05 26.05 15.0 26.0 Q14.8 25.5 14.3 25.5 L13.45 24.3 12.35 23.0 12.2 22.55 11.85 21.95 Q11.6 21.65 9.65 21.45 L7.5 21.35 1.35 20.65 -0.55 20.65 -1.05 20.5 -1.95 20.1 -3.05 19.4 Q-3.75 18.95 -4.15 18.95 -4.6 18.95 -5.25 20.2 L-13.2 20.05 -16.8 20.6 -17.3 20.45 Q-17.6 20.2 -17.95 20.05 L-18.5 20.05 -19.2 20.6 -19.9 20.95 -32.3 21.0 -32.5 20.6 Q-32.7 20.2 -33.1 20.05 L-39.6 20.05 -41.0 19.15 Q-42.1 18.25 -42.85 18.2 L-46.85 18.2 -48.6 17.9 -48.95 17.9 -49.55 17.4 Q-51.65 15.8 -53.25 13.6 -58.8 5.6 -56.2 -3.3 -55.65 -4.9 -54.65 -6.3 -51.6 -10.1 -49.4 -13.95 L-48.2 -15.05 Q-33.05 -22.0 -16.55 -23.65 L-12.9 -24.25 -12.9 -24.15 -11.2 -8.1 -15.35 -11.5 -12.8 -5.65 -16.15 -4.75 -13.2 -1.2 M-4.9 13.7 L-4.95 14.15 -10.35 13.2 -21.4 10.1 Q-22.4 11.3 -19.65 12.25 -11.85 14.95 -3.35 15.1 L-2.45 14.55 -0.8 14.0 -4.9 13.7 M-23.9 3.4 L-25.1 6.2 Q-23.75 6.6 -23.4 4.2 -23.35 3.55 -23.9 3.4 M-22.55 8.95 Q-22.0 6.9 -23.1 8.0 L-23.35 8.35 Q-24.6 8.05 -24.25 9.35 L-22.2 10.1 -22.55 8.95 M1.2 14.95 L4.6 14.95 4.6 14.05 1.2 14.05 1.2 14.95" fill="#585858" fill-opacity="0.2" fill-rule="evenodd" stroke="none"/>
    <path d="M32.5 -41.3 L30.65 -38.9 25.9 -39.65 27.3 -42.6 32.5 -41.3 M64.2 -26.5 L62.8 -25.8 56.6 -30.45 58.1 -31.65 64.2 -26.5 M57.55 -32.0 L55.75 -30.8 52.85 -31.85 53.65 -34.5 57.55 -32.0 M52.6 -34.95 L52.0 -32.1 49.1 -33.15 50.75 -35.7 52.6 -34.95 M49.9 -35.9 L48.35 -33.45 43.3 -35.25 43.35 -35.4 44.15 -37.65 44.35 -37.65 49.9 -35.9 M43.95 -37.7 L42.8 -35.35 41.2 -35.9 42.2 -38.2 43.95 -37.7 M41.65 -38.4 L40.3 -36.15 35.35 -37.7 36.2 -40.0 41.65 -38.4 M35.3 -40.3 L34.6 -37.85 32.1 -38.55 33.7 -40.85 35.3 -40.3 M19.05 -43.7 L16.05 -39.7 7.75 -40.15 9.95 -44.2 19.05 -43.7 M8.0 -44.2 L5.6 -40.3 -1.95 -40.7 -0.3 -44.2 8.0 -44.2 M-1.65 -44.2 L-3.4 -40.7 -10.45 -40.6 -9.95 -43.75 -1.65 -44.2 M24.2 -43.1 L20.65 -39.7 18.1 -39.7 20.95 -43.45 24.2 -43.1 M22.1 -39.65 L26.15 -42.8 26.25 -42.8 24.6 -39.65 22.1 -39.65 M63.25 -25.15 L64.75 -25.85 67.05 -22.3 65.1 -21.85 63.25 -25.15 M65.35 -21.2 L67.3 -21.6 67.7 -20.45 Q69.65 -11.25 68.15 -2.4 L64.45 1.4 66.3 -5.6 66.65 -6.0 66.4 -6.0 66.9 -13.25 66.9 -13.3 65.35 -21.2 M64.3 2.1 L63.8 3.75 63.65 3.75 64.3 2.1" fill="#666666" fill-rule="evenodd" stroke="none"/>
    <path d="M26.3 -32.2 L21.55 -25.15 Q20.75 -25.3 20.25 -25.75 L20.3 -26.05 22.7 -33.25 26.3 -32.2 M57.35 -21.8 L52.5 -17.75 50.25 -18.45 51.9 -25.9 57.75 -22.25 57.55 -22.15 57.3 -21.9 57.35 -21.8 M50.65 -26.6 L45.05 -20.15 43.2 -20.8 46.0 -28.35 50.65 -26.6 M45.15 -28.5 L41.8 -22.25 41.65 -29.2 45.15 -28.5 M41.05 -29.3 L40.3 -21.75 35.75 -22.8 38.25 -29.8 41.05 -29.3 M37.15 -30.0 L33.8 -23.5 31.4 -24.15 33.25 -30.7 37.15 -30.0 M29.85 -31.2 L26.05 -28.45 27.95 -31.65 29.85 -31.2 M12.0 -34.7 L7.9 -27.0 5.45 -27.0 5.35 -34.75 12.0 -34.7 M1.8 -34.9 L-0.7 -27.1 -4.3 -27.05 -3.9 -34.85 1.8 -34.9 M-5.65 -34.6 L-6.2 -27.0 -10.35 -26.7 -10.9 -33.55 -5.65 -34.6 M21.7 -33.55 L17.1 -25.95 16.75 -33.35 15.0 -26.65 10.3 -26.95 14.45 -34.75 21.55 -33.55 21.7 -33.55 M32.4 -30.8 L30.6 -24.35 23.8 -24.8 30.9 -31.1 32.4 -30.8 M4.15 -34.75 L4.65 -27.0 2.1 -27.05 3.4 -34.75 4.15 -34.75 M60.05 -18.95 L55.25 -14.8 52.6 -16.65 Q54.25 -19.25 56.7 -20.95 57.7 -21.55 58.45 -21.55 L60.05 -19.0 60.05 -18.95 M61.6 -12.05 L57.65 -9.7 55.4 -13.8 60.25 -18.5 61.6 -12.05 M63.8 3.75 L62.4 6.6 63.65 3.75 63.8 3.75 M56.75 10.9 L48.55 14.8 52.85 10.5 55.9 10.05 52.75 9.55 53.95 7.8 60.35 3.9 56.75 10.9 M60.65 2.8 L55.4 5.5 58.1 -0.95 62.1 -3.85 60.65 2.8 M62.15 -4.45 L58.5 -2.85 58.7 -7.65 62.15 -8.1 62.15 -4.45 M62.1 -8.65 L58.05 -8.65 61.6 -10.8 61.9 -10.85 62.1 -8.65 M46.15 -19.8 L49.9 -24.35 48.95 -18.65 46.15 -19.8" fill="#4d4d4d" fill-rule="evenodd" stroke="none"/>
    <path d="M43.25 -35.25 L43.35 -35.4 43.3 -35.25 43.25 -35.25 M44.15 -37.65 L44.1 -37.8 44.35 -37.65 44.15 -37.65 M26.15 -42.8 L26.25 -42.9 26.25 -42.8 26.15 -42.8 M-12.7 -0.5 Q-2.05 -4.05 8.75 -2.4 L11.75 -2.6 Q9.15 -4.85 4.2 -4.5 L0.85 -4.1 Q-5.0 -3.95 -10.35 -2.7 L-10.35 -2.2 -10.3 -2.15 -13.2 -1.2 -16.15 -4.75 -12.8 -5.65 -15.35 -11.5 -11.2 -8.1 -12.9 -24.15 -12.8 -24.3 Q4.05 -27.6 20.2 -23.4 25.35 -22.0 30.75 -22.1 36.6 -21.55 42.1 -19.8 46.95 -18.2 51.0 -15.2 56.55 -11.15 56.55 -4.35 56.55 1.25 53.2 5.9 38.75 5.95 24.9 9.15 22.15 9.7 20.0 11.3 17.2 13.4 14.2 13.0 15.55 12.1 14.2 11.85 L13.85 12.05 12.75 13.35 9.95 13.5 9.15 13.3 Q14.2 8.0 10.85 2.15 10.2 0.9 8.7 0.4 -1.15 -1.9 -11.05 1.05 L-12.6 -0.25 -12.7 -0.5 M14.25 -2.05 L20.95 2.95 Q20.65 0.65 18.35 -0.3 L15.75 -1.9 14.25 -2.05 M60.1 -18.95 L60.05 -18.95 60.05 -19.0 60.1 -18.95 M66.65 -6.0 L66.4 -5.95 66.4 -6.0 66.65 -6.0 M61.6 -10.8 L61.8 -10.9 61.9 -10.85 61.6 -10.8 M66.9 -13.3 L66.9 -13.25 66.7 -13.25 66.9 -13.3 M20.8 4.0 L18.9 7.5 Q20.0 8.7 20.7 6.45 21.25 5.2 20.8 4.0" fill="#000000" fill-opacity="0.2" fill-rule="evenodd" stroke="none"/>
    <path d="M-10.35 -2.2 L-10.35 -2.7 Q-5.0 -3.95 0.85 -4.1 L4.2 -4.5 Q9.15 -4.85 11.75 -2.6 L8.75 -2.4 Q-2.05 -4.05 -12.7 -0.5 L-21.25 3.25 -19.9 0.5 -14.5 -0.95 -15.9 -0.25 -14.5 -0.75 -13.2 -1.2 -10.3 -2.15 -10.25 -2.15 -10.35 -2.2 M12.75 13.35 L13.85 12.05 14.2 11.85 Q15.55 12.1 14.2 13.0 L12.75 13.35 M14.25 -2.05 L15.75 -1.9 18.35 -0.3 Q20.65 0.65 20.95 2.95 L14.25 -2.05 M-4.9 13.7 L-0.8 14.0 -2.45 14.55 -3.35 15.1 Q-11.85 14.95 -19.65 12.25 -22.4 11.3 -21.4 10.1 L-10.35 13.2 -4.95 14.15 -4.75 14.1 -4.9 13.7 M-22.55 8.95 L-22.2 10.1 -24.25 9.35 Q-24.6 8.05 -23.35 8.35 L-23.1 8.0 Q-22.0 6.9 -22.55 8.95 M-23.9 3.4 Q-23.35 3.55 -23.4 4.2 -23.75 6.6 -25.1 6.2 L-23.9 3.4 M20.8 4.0 Q21.25 5.2 20.7 6.45 20.0 8.7 18.9 7.5 L20.8 4.0 M9.85 13.7 L6.25 14.9 9.15 13.65 9.85 13.7 M1.2 14.95 L1.2 14.05 4.6 14.05 4.6 14.95 1.2 14.95" fill="#000000" fill-opacity="0.29803923" fill-rule="evenodd" stroke="none"/>
  </g>
</svg>
