<?xml version="1.0" encoding="UTF-8" standalone="no"?>
<svg xmlns:ffdec="https://www.free-decompiler.com/flash" xmlns:xlink="http://www.w3.org/1999/xlink" ffdec:objectType="shape" height="61.65px" width="50.4px" xmlns="http://www.w3.org/2000/svg">
  <g transform="matrix(1.0, 0.0, 0.0, 1.0, 24.4, 48.55)">
    <path d="M11.25 -43.9 L8.25 -43.6 Q7.3 -43.5 5.05 -42.5 3.1 -41.6 1.8 -41.15 L1.9 -40.85 1.35 -40.1 1.2 -40.4 0.75 -39.15 Q0.75 -37.1 1.3 -35.5 L2.95 -31.5 5.95 -27.95 Q8.25 -25.2 8.5 -24.05 L8.55 -24.0 10.65 -23.1 11.4 -22.65 12.3 -22.05 Q13.35 -21.2 14.0 -20.85 L18.15 -19.2 20.95 -16.65 20.95 -16.55 21.25 -16.45 24.05 -11.25 25.05 -9.25 25.8 -7.65 26.0 -7.45 Q25.5 -0.35 24.75 2.0 L24.5 2.4 24.5 2.45 Q24.75 3.6 19.2 6.45 L14.85 8.9 16.8 10.7 18.0 11.75 18.35 12.05 18.85 12.4 18.9 12.45 18.65 12.75 16.0 12.05 13.95 11.75 10.45 11.0 5.85 9.95 4.5 10.1 3.6 11.35 3.1 12.05 2.7 12.95 2.8 13.1 2.25 12.7 1.8 12.4 0.4 11.45 -0.2 11.15 -0.35 11.0 -1.4 10.4 -4.8 9.95 -5.45 10.05 -7.7 10.15 -9.2 10.3 -11.9 10.75 -12.8 10.75 -13.45 10.9 -14.65 11.0 -14.8 11.1 -15.5 11.0 -15.5 10.85 -13.1 9.2 -13.0 9.2 -15.85 8.55 -16.45 8.35 Q-19.4 6.35 -20.7 4.7 L-21.1 4.15 -21.5 3.75 Q-21.95 2.55 -22.1 2.45 L-22.55 1.35 -22.8 0.35 -23.65 -3.75 -23.8 -4.75 -24.25 -5.7 -24.4 -6.7 -24.35 -8.1 -23.55 -9.7 -21.75 -13.15 -20.7 -14.95 -18.65 -18.0 -18.35 -18.35 -12.95 -21.1 -12.05 -21.9 -11.15 -22.65 -10.25 -23.25 -9.8 -23.55 -9.05 -27.3 -8.4 -31.1 -9.0 -32.65 -9.25 -34.1 -9.8 -36.3 -10.9 -40.45 -10.8 -41.4 Q-10.8 -42.1 -10.25 -42.3 L-9.8 -42.3 -9.75 -42.3 -7.35 -44.2 -3.65 -47.15 Q-2.4 -47.95 -1.2 -48.05 L-1.15 -48.1 Q-0.75 -48.55 -0.1 -48.55 0.3 -48.55 0.45 -48.25 L1.3 -48.25 3.4 -47.6 6.55 -47.0 Q8.05 -46.75 8.05 -46.1 L8.05 -46.0 10.05 -45.45 Q11.9 -44.9 11.9 -44.45 11.9 -44.0 11.25 -43.9 M18.85 -15.95 L18.1 -16.45 17.8 -16.65 17.3 -17.05 13.9 -19.2 9.15 -21.95 7.9 -22.65 Q6.3 -23.5 6.3 -23.7 L6.25 -23.75 6.0 -23.9 6.25 -24.0 5.8 -24.5 4.15 -26.6 2.7 -28.1 Q1.75 -29.15 1.3 -29.85 L0.7 -31.05 0.7 -31.2 -0.3 -34.2 -0.8 -35.75 -0.8 -36.25 -0.65 -38.55 -0.4 -40.5 -0.2 -41.3 0.25 -41.6 2.05 -42.75 5.05 -44.55 7.05 -45.05 4.9 -45.65 4.6 -45.7 2.85 -46.15 Q1.3 -46.5 0.6 -46.9 L0.7 -46.3 -0.05 -47.2 -0.6 -46.85 -3.75 -44.35 -4.05 -44.15 -4.2 -44.05 -6.6 -42.25 -6.9 -41.9 Q-8.2 -40.45 -8.25 -39.8 L-8.15 -39.7 -6.9 -33.35 -6.4 -31.8 Q-6.05 -30.75 -6.05 -30.05 L-6.0 -29.3 Q-6.05 -29.15 -6.2 -29.15 L-6.8 -26.6 -7.05 -25.7 -6.9 -25.4 -6.7 -25.35 -6.9 -24.45 -8.1 -22.7 -8.15 -22.65 -9.15 -20.9 -9.2 -20.75 -9.25 -20.65 -9.25 -20.6 -9.35 -20.45 -9.35 -20.55 -9.55 -20.45 -9.7 -20.4 -9.8 -20.35 Q-11.45 -19.4 -13.6 -18.35 -15.85 -17.2 -16.75 -16.95 L-20.7 -9.3 -21.95 -7.1 -21.85 -7.0 -20.75 0.05 -20.5 1.8 Q-19.1 2.25 -17.9 3.8 L-16.5 5.15 -16.5 4.95 -16.3 5.45 -16.1 5.65 -15.95 5.75 -15.45 5.9 -15.2 6.0 -14.7 6.2 -14.15 6.35 -11.1 7.2 -10.5 7.3 -8.45 7.75 -7.4 8.0 -7.2 8.05 -5.45 8.25 -4.5 8.35 0.25 8.65 0.7 8.65 1.5 8.8 2.4 8.85 3.45 8.6 5.1 8.3 6.0 8.15 10.55 7.3 11.4 7.1 12.3 7.0 12.4 6.95 12.85 6.8 13.45 6.65 Q13.9 6.35 14.5 6.0 L15.3 5.65 17.9 3.95 Q18.0 3.9 18.65 3.6 L20.5 2.45 20.7 2.3 Q20.95 2.1 21.05 2.05 L21.15 2.0 21.35 1.95 21.35 1.85 Q22.1 1.4 22.6 1.25 L22.65 -0.75 22.95 -4.95 23.1 -8.5 23.1 -9.1 23.05 -9.4 23.05 -9.7 22.95 -9.7 21.75 -11.85 19.7 -15.3 19.35 -15.3 19.4 -15.45 18.65 -15.65 18.6 -15.7 18.65 -15.75 18.9 -15.9 18.9 -15.95 18.85 -15.95 M8.7 -23.25 L9.7 -22.8 9.7 -22.85 8.7 -23.25" fill="#000000" fill-rule="evenodd" stroke="none"/>
    <path d="M-4.2 -44.05 L-4.05 -44.15 -3.75 -44.35 -0.6 -46.85 -0.05 -47.2 0.7 -46.3 0.6 -46.9 Q1.3 -46.5 2.85 -46.15 L4.6 -45.7 4.9 -45.65 7.05 -45.05 5.05 -44.55 2.05 -42.75 0.25 -41.6 -0.2 -41.3 -0.4 -40.5 -0.65 -38.55 -0.8 -36.25 -0.8 -35.75 -0.3 -34.2 0.7 -31.2 0.7 -31.05 1.3 -29.85 Q1.75 -29.15 2.7 -28.1 L4.15 -26.6 5.8 -24.5 6.25 -24.0 6.0 -23.9 6.25 -23.75 6.3 -23.7 Q6.3 -23.5 7.9 -22.65 L9.15 -21.95 13.9 -19.2 17.3 -17.05 17.8 -16.65 18.1 -16.45 18.85 -15.95 18.9 -15.9 18.65 -15.75 18.6 -15.7 18.65 -15.65 20.1 -13.5 21.6 -10.6 19.8 -6.25 19.05 -4.45 18.6 -2.8 16.2 -3.4 16.1 -4.3 15.85 -7.2 15.3 -9.45 Q15.6 -9.6 15.55 -10.0 15.45 -11.05 13.05 -13.3 10.95 -15.45 9.15 -16.35 L9.1 -16.2 12.55 -12.85 Q14.65 -10.9 15.15 -9.45 L15.45 -5.85 15.6 -3.55 15.5 -3.55 14.7 -0.45 Q13.75 2.4 12.75 3.45 L5.95 3.9 3.75 4.15 3.7 4.05 3.15 3.5 2.85 3.2 2.95 2.55 2.95 2.3 2.95 0.8 2.7 -2.1 2.25 -5.05 2.25 -8.05 2.05 -8.4 Q1.8 -6.3 2.05 -2.35 L2.25 3.05 1.65 3.75 0.6 5.1 0.45 5.2 -2.3 4.9 -8.4 4.35 -13.75 3.9 -13.85 3.8 -17.0 -0.6 -16.85 -0.6 -15.75 -5.7 -15.35 -8.4 Q-15.1 -10.3 -15.2 -10.75 L-15.35 -11.1 -15.45 -11.1 Q-15.7 -6.3 -17.15 -0.75 L-17.15 -0.7 -17.5 -1.15 Q-17.75 -1.0 -17.65 -0.75 L-17.5 0.2 -18.1 1.65 Q-18.55 1.1 -20.7 0.15 L-20.75 0.05 -21.85 -7.0 -21.95 -7.1 -20.7 -9.3 -16.75 -16.95 Q-15.85 -17.2 -13.6 -18.35 -11.45 -19.4 -9.8 -20.35 L-9.7 -20.4 -9.55 -20.45 -9.35 -20.55 -9.35 -20.45 -9.25 -20.6 Q-8.4 -20.95 -6.3 -22.05 L-4.2 -23.1 Q-4.05 -23.1 -4.05 -23.75 L-4.2 -26.75 -4.05 -28.4 -3.9 -30.05 -3.9 -34.45 -3.95 -34.45 -4.7 -27.9 -5.15 -24.95 Q-5.25 -24.3 -5.45 -24.05 L-9.2 -20.75 -9.15 -20.9 -8.15 -22.65 -8.1 -22.7 -6.9 -24.45 -6.7 -25.35 -6.9 -25.4 -7.05 -25.7 -6.8 -26.6 Q-6.5 -26.75 -6.15 -27.15 -5.35 -28.05 -5.35 -29.15 L-4.85 -33.0 -4.5 -34.45 -4.35 -35.0 -4.6 -35.55 -5.35 -37.1 -5.8 -38.0 -6.35 -38.7 Q-6.15 -38.9 -5.45 -41.15 L-4.2 -44.05 M0.0 -15.3 L-0.15 -14.9 Q-0.15 -14.45 0.6 -11.75 1.35 -8.7 1.75 -7.85 2.05 -7.95 1.9 -8.7 L1.0 -12.05 0.7 -13.8 Q0.45 -14.95 0.0 -15.3 M-0.15 -46.0 L-1.25 -45.35 Q-2.45 -44.6 -3.45 -44.35 L-4.85 -40.55 -3.25 -43.5 -2.1 -44.2 -0.75 -44.95 -0.45 -45.1 4.5 -45.05 -0.15 -46.0 M-11.6 -13.4 L-12.95 -12.05 Q-13.9 -11.05 -14.8 -10.6 L-14.7 -10.45 Q-13.25 -11.0 -11.25 -13.05 -9.65 -14.65 -9.25 -15.6 L-10.4 -14.85 -11.6 -13.4" fill="#ffffff" fill-rule="evenodd" stroke="none"/>
    <path d="M-4.2 -44.05 L-5.45 -41.15 Q-6.15 -38.9 -6.35 -38.7 L-5.8 -38.0 -5.35 -37.1 -4.6 -35.55 -4.35 -35.0 -4.5 -34.45 -4.85 -33.0 -5.35 -29.15 Q-5.35 -28.05 -6.15 -27.15 -6.5 -26.75 -6.8 -26.6 L-6.2 -29.15 Q-6.05 -29.15 -6.0 -29.3 L-6.05 -30.05 Q-6.05 -30.75 -6.4 -31.8 L-6.9 -33.35 -8.15 -39.7 -8.25 -39.8 Q-8.2 -40.45 -6.9 -41.9 L-6.6 -42.25 -4.2 -44.05 M-9.2 -20.75 L-5.45 -24.05 Q-5.25 -24.3 -5.15 -24.95 L-4.7 -27.9 -3.95 -34.45 -3.9 -34.45 -3.9 -30.05 -4.05 -28.4 -4.2 -26.75 -4.05 -23.75 Q-4.05 -23.1 -4.2 -23.1 L-6.3 -22.05 Q-8.4 -20.95 -9.25 -20.6 L-9.25 -20.65 -9.2 -20.75 M-20.75 0.05 L-20.7 0.15 Q-18.55 1.1 -18.1 1.65 L-17.5 0.2 -15.95 5.75 -16.1 5.65 -16.3 5.45 -16.5 4.95 -16.5 5.15 -17.9 3.8 Q-19.1 2.25 -20.5 1.8 L-20.75 0.05 M-17.0 -0.6 L-13.85 3.8 -13.75 3.9 -8.4 4.35 -2.3 4.9 0.45 5.2 0.6 5.1 1.65 3.75 2.25 3.05 2.25 3.8 2.4 3.85 Q2.75 3.85 2.85 3.2 L3.15 3.5 3.7 4.05 3.75 4.15 5.95 3.9 12.75 3.45 Q13.75 2.4 14.7 -0.45 L15.5 -3.55 15.6 -3.55 15.75 -2.05 15.9 -1.35 14.55 2.45 12.85 6.8 12.4 6.95 12.3 7.0 11.4 7.1 10.55 7.3 6.0 8.15 5.1 8.3 3.45 8.6 2.4 8.85 1.5 8.8 1.65 8.35 1.95 6.75 2.1 6.35 2.4 5.4 2.7 3.9 2.65 3.85 Q2.1 4.65 1.6 6.45 L1.5 6.55 0.7 8.65 0.25 8.65 -4.5 8.35 -5.45 8.25 -7.2 8.05 -7.4 8.0 -8.45 7.75 -10.5 7.3 -11.1 7.2 -14.15 6.35 -14.7 6.2 -15.2 6.0 -16.1 2.3 -16.6 0.5 -17.05 -0.6 -17.0 -0.6 M16.2 -3.4 L18.6 -2.8 19.05 -4.45 19.8 -6.25 21.6 -10.6 20.1 -13.5 18.65 -15.65 19.4 -15.45 19.35 -15.3 19.7 -15.3 21.75 -11.85 22.95 -9.7 23.05 -9.7 23.05 -9.4 23.1 -9.1 23.1 -8.5 22.95 -4.95 22.65 -0.75 22.6 1.25 Q22.1 1.4 21.35 1.85 L21.35 1.95 21.15 2.0 21.05 2.05 Q20.95 2.1 20.7 2.3 L20.5 2.45 18.65 3.6 Q18.0 3.9 17.9 3.95 L15.3 5.65 14.5 6.0 Q13.9 6.35 13.45 6.65 L14.25 4.95 15.0 2.6 16.2 -1.2 16.25 -1.15 16.25 -1.2 16.5 -1.95 16.35 -2.15 16.3 -2.2 16.2 -2.05 16.2 -3.4 M-0.15 -46.0 L4.5 -45.05 -0.45 -45.1 -0.75 -44.95 -2.1 -44.2 -3.25 -43.5 -4.85 -40.55 -3.45 -44.35 Q-2.45 -44.6 -1.25 -45.35 L-0.15 -46.0" fill="#ebcfcf" fill-rule="evenodd" stroke="none"/>
    <path d="M-17.5 0.2 L-17.65 -0.75 Q-17.75 -1.0 -17.5 -1.15 L-17.15 -0.7 -17.15 -0.75 Q-15.7 -6.3 -15.45 -11.1 L-15.35 -11.1 -15.2 -10.75 Q-15.1 -10.3 -15.35 -8.4 L-15.75 -5.7 -16.85 -0.6 -17.0 -0.6 -17.05 -0.6 -16.6 0.5 -16.1 2.3 -15.2 6.0 -15.45 5.9 -15.95 5.75 -17.5 0.2 M2.25 3.05 L2.05 -2.35 Q1.8 -6.3 2.05 -8.4 L2.25 -8.05 2.25 -5.05 2.7 -2.1 2.95 0.8 2.95 2.3 2.95 2.55 2.85 3.2 Q2.75 3.85 2.4 3.85 L2.25 3.8 2.25 3.05 M15.6 -3.55 L15.45 -5.85 15.15 -9.45 Q14.65 -10.9 12.55 -12.85 L9.1 -16.2 9.15 -16.35 Q10.95 -15.45 13.05 -13.3 15.45 -11.05 15.55 -10.0 15.6 -9.6 15.3 -9.45 L15.85 -7.2 16.1 -4.3 16.2 -3.4 16.2 -2.05 16.3 -2.2 16.35 -2.15 16.5 -1.95 16.25 -1.2 16.25 -1.15 16.2 -1.2 15.0 2.6 14.25 4.95 13.45 6.65 12.85 6.8 14.55 2.45 15.9 -1.35 15.75 -2.05 15.6 -3.55 M0.0 -15.3 Q0.45 -14.95 0.7 -13.8 L1.0 -12.05 1.9 -8.7 Q2.05 -7.95 1.75 -7.85 1.35 -8.7 0.6 -11.75 -0.15 -14.45 -0.15 -14.9 L0.0 -15.3 M0.7 8.65 L1.5 6.55 1.6 6.45 Q2.1 4.65 2.65 3.85 L2.7 3.9 2.4 5.4 2.1 6.35 1.95 6.75 1.65 8.35 1.5 8.8 0.7 8.65 M-11.6 -13.4 L-10.4 -14.85 -9.25 -15.6 Q-9.65 -14.65 -11.25 -13.05 -13.25 -11.0 -14.7 -10.45 L-14.8 -10.6 Q-13.9 -11.05 -12.95 -12.05 L-11.6 -13.4" fill="#d76275" fill-rule="evenodd" stroke="none"/>
    <path d="M10.8 -15.9 Q10.75 -9.75 10.05 -7.85 L10.4 -7.6 11.35 -6.5 12.45 -4.95 12.55 -4.0 12.4 -3.65 7.55 -3.15 7.6 -2.65 8.0 -0.9 8.65 2.15 8.65 3.5 8.9 3.95 Q9.0 4.6 8.05 4.75 L-1.35 5.0 -3.45 5.05 -3.6 5.05 -4.85 4.75 -5.05 4.4 -5.0 3.6 -4.95 3.3 -4.9 2.8 -4.15 -2.65 -4.15 -2.85 -3.8 -4.15 -4.6 -4.0 -7.3 -3.65 Q-8.6 -3.65 -9.05 -4.0 -9.85 -4.05 -10.05 -4.3 L-10.0 -4.75 Q-9.65 -6.2 -7.6 -8.2 L-7.25 -8.55 -7.8 -12.55 -7.8 -13.3 -7.9 -15.5 -7.75 -15.65 -5.85 -17.3 Q-4.0 -18.6 -3.5 -19.2 L-2.3 -19.55 -1.9 -19.55 -0.9 -19.8 0.55 -19.8 2.0 -19.8 3.3 -19.8 4.1 -19.55 6.4 -19.35 7.25 -18.95 7.2 -18.85 9.95 -16.7 10.05 -16.7 10.5 -15.9 10.55 -15.85 10.8 -15.9 M9.2 -12.2 L9.25 -13.4 9.4 -14.8 9.35 -14.95 9.4 -15.9 8.25 -16.75 6.3 -18.3 5.55 -18.7 2.7 -18.7 0.5 -18.7 -3.0 -18.5 Q-3.25 -18.3 -3.55 -18.2 L-5.55 -16.45 -6.3 -15.9 -6.15 -12.8 -6.4 -8.25 Q-6.3 -8.4 -6.25 -8.2 L-6.25 -7.85 Q-6.3 -7.45 -7.05 -6.5 L-7.8 -5.35 -2.9 -5.2 -2.9 -5.05 -2.8 -4.95 -3.0 -1.7 -3.05 -1.05 -1.65 -2.3 -0.15 -3.65 Q-0.05 -4.05 0.35 -3.65 0.95 -3.15 0.95 -2.25 L1.85 -0.85 2.1 -0.2 2.4 -0.35 2.35 -0.2 4.05 -2.75 4.35 -2.95 4.5 -3.2 4.6 -3.3 4.85 -2.85 5.2 -2.75 5.5 -2.2 6.45 -0.85 6.4 -1.8 6.2 -4.25 6.75 -4.4 10.3 -4.7 10.4 -4.95 9.65 -5.7 9.15 -6.35 9.3 -7.05 Q9.15 -7.15 9.3 -7.4 L9.15 -8.25 9.15 -8.9 9.15 -11.1 9.2 -12.2 M7.8 -11.15 L7.8 -11.2 8.3 -11.35 Q8.2 -11.1 8.25 -10.4 L8.15 -9.8 Q7.95 -7.45 8.05 -6.35 L3.15 -7.85 2.7 -8.2 5.8 -10.05 Q6.0 -10.3 7.5 -11.1 L7.8 -11.15 M0.4 -8.0 L-2.4 -7.15 -4.9 -6.9 -5.05 -6.75 -5.2 -9.65 Q-5.2 -10.95 -5.35 -11.5 -5.05 -11.75 -4.4 -11.5 L0.6 -8.55 0.85 -8.25 0.6 -8.0 0.4 -8.0 M4.65 -2.1 L2.35 0.7 2.05 0.75 Q1.65 0.7 0.7 -1.1 0.0 -2.25 -0.1 -2.85 L-1.5 -1.35 -3.1 0.3 -3.3 0.6 -3.15 2.15 -3.55 3.2 -2.05 3.1 -0.8 3.1 Q4.6 2.95 6.8 3.1 L6.6 2.15 6.6 0.6 5.2 -0.9 4.65 -2.1" fill="#511522" fill-rule="evenodd" stroke="none"/>
    <path d="M-6.3 -15.9 L-5.55 -16.45 -3.55 -18.2 Q-3.25 -18.3 -3.0 -18.5 L0.5 -18.7 2.7 -18.7 5.55 -18.7 6.3 -18.3 8.25 -16.75 9.4 -15.9 9.35 -14.95 9.4 -14.8 9.25 -13.4 9.2 -12.2 8.55 -13.0 7.55 -12.45 6.75 -12.05 Q5.1 -11.1 3.45 -10.5 L2.35 -11.2 2.2 -10.05 1.9 -10.05 0.95 -9.75 1.25 -11.35 -0.25 -10.5 -0.3 -10.5 -4.55 -13.0 -5.45 -14.55 -6.3 -15.9 M6.75 -4.4 L6.2 -4.25 6.4 -1.8 6.45 -0.85 5.5 -2.2 5.2 -2.75 4.85 -2.85 4.6 -3.3 4.5 -3.2 4.35 -2.95 4.05 -2.75 2.35 -0.2 2.4 -0.35 1.65 -5.85 2.55 -6.2 1.6 -8.1 6.75 -4.4" fill="#f7dde2" fill-rule="evenodd" stroke="none"/>
    <path d="M-6.3 -15.9 L-5.45 -14.55 -4.55 -13.0 -0.3 -10.5 -0.25 -10.5 1.25 -11.35 0.95 -9.75 1.9 -10.05 2.2 -10.05 2.35 -11.2 3.45 -10.5 Q5.1 -11.1 6.75 -12.05 L7.55 -12.45 8.55 -13.0 9.2 -12.2 9.15 -11.1 9.15 -8.9 9.15 -8.25 9.3 -7.4 Q9.15 -7.15 9.3 -7.05 L9.15 -6.35 9.65 -5.7 10.4 -4.95 10.3 -4.7 6.75 -4.4 1.6 -8.1 2.55 -6.2 1.65 -5.85 2.4 -0.35 2.1 -0.2 1.85 -0.85 0.95 -2.25 Q0.95 -3.15 0.35 -3.65 -0.05 -4.05 -0.15 -3.65 L-1.65 -2.3 -3.05 -1.05 -3.0 -1.7 -2.8 -4.95 -2.9 -5.05 -2.9 -5.2 -7.8 -5.35 -7.05 -6.5 Q-6.3 -7.45 -6.25 -7.85 L-6.25 -8.2 Q-6.3 -8.4 -6.4 -8.25 L-6.15 -12.8 -6.3 -15.9 M7.8 -11.15 L7.5 -11.1 Q6.0 -10.3 5.8 -10.05 L2.7 -8.2 3.15 -7.85 8.05 -6.35 Q7.95 -7.45 8.15 -9.8 L8.25 -10.4 Q8.2 -11.1 8.3 -11.35 L7.8 -11.2 7.8 -11.15 M0.4 -8.0 L0.6 -8.0 0.85 -8.25 0.6 -8.55 -4.4 -11.5 Q-5.05 -11.75 -5.35 -11.5 -5.2 -10.95 -5.2 -9.65 L-5.05 -6.75 -4.9 -6.9 -2.4 -7.15 0.4 -8.0 M4.65 -2.1 L5.2 -0.9 6.6 0.6 6.6 2.15 6.8 3.1 Q4.6 2.95 -0.8 3.1 L-2.05 3.1 -3.55 3.2 -3.15 2.15 -3.3 0.6 -3.1 0.3 -1.5 -1.35 -0.1 -2.85 Q0.0 -2.25 0.7 -1.1 1.65 0.7 2.05 0.75 L2.35 0.7 4.65 -2.1" fill="#dd8093" fill-rule="evenodd" stroke="none"/>
  </g>
</svg>
