<?xml version="1.0" encoding="UTF-8" standalone="no"?>
<svg xmlns:ffdec="https://www.free-decompiler.com/flash" xmlns:xlink="http://www.w3.org/1999/xlink" ffdec:objectType="shape" height="169.55px" width="198.7px" xmlns="http://www.w3.org/2000/svg">
  <g transform="matrix(1.0, 0.0, 0.0, 1.0, 107.7, 120.7)">
    <path d="M21.3 -101.7 Q21.3 -102.55 21.75 -103.15 22.2 -103.75 22.8 -103.75 23.4 -103.75 23.85 -103.15 L24.3 -101.7 Q24.3 -100.85 23.85 -100.25 L22.8 -99.65 Q22.2 -99.65 21.75 -100.25 21.3 -100.85 21.3 -101.7 M38.9 -107.55 Q32.15 -118.25 19.8 -120.3 -7.0 -121.0 -12.6 -95.2 L-13.3 -90.35 -28.75 -89.25 -15.0 -82.9 Q-6.6 -107.55 18.95 -106.7 24.1 -106.45 29.2 -104.75 L38.9 -107.55 M12.0 -97.8 Q12.65 -97.8 13.1 -97.35 13.55 -96.9 13.55 -96.3 13.55 -95.7 13.1 -95.25 12.65 -94.8 12.0 -94.8 11.35 -94.8 10.9 -95.25 10.45 -95.7 10.45 -96.3 10.45 -96.9 10.9 -97.35 L12.0 -97.8 M28.7 -95.35 Q29.15 -95.35 29.45 -94.9 L29.75 -93.8 29.45 -92.7 Q29.15 -92.25 28.7 -92.25 L27.95 -92.7 Q27.65 -93.15 27.65 -93.8 27.65 -94.45 27.95 -94.9 L28.7 -95.35 M28.35 -101.55 Q15.3 -108.7 2.45 -101.05 -9.65 -93.75 -12.8 -79.85 L-33.35 -88.75 -31.7 -89.7 Q-24.35 -94.1 -15.75 -93.15 -14.55 -103.05 -7.7 -110.15 6.15 -124.5 25.15 -119.35 36.35 -116.2 42.95 -106.25 35.2 -105.2 28.35 -101.55 M53.7 -89.9 L54.25 -90.65 Q70.45 -81.3 56.7 -70.9 L55.5 -72.1 Q59.7 -81.5 53.7 -89.9 M58.45 -74.55 L57.8 -72.85 Q61.65 -75.95 61.4 -80.85 61.25 -83.25 59.75 -85.4 L58.5 -87.2 Q60.5 -80.85 58.45 -74.55 M66.05 -67.9 L67.9 -67.45 Q93.9 -58.85 90.65 -31.6 88.75 -16.0 76.05 -6.65 79.15 5.15 72.15 15.15 68.9 19.8 63.9 22.4 65.8 35.0 57.6 44.0 54.8 47.1 51.05 48.85 56.1 30.85 49.75 13.25 56.25 11.2 60.95 6.3 63.7 3.55 65.45 -0.2 L63.95 -0.25 63.65 -1.5 64.25 -2.1 65.4 -1.8 65.7 -0.6 Q70.3 -10.35 65.7 -20.05 L64.55 -22.3 Q79.65 -45.0 63.3 -66.75 L66.05 -67.9 M63.25 -20.7 Q63.65 -20.4 63.65 -19.95 63.65 -19.5 63.25 -19.2 62.85 -18.9 62.3 -18.9 61.75 -18.9 61.35 -19.2 60.95 -19.5 60.95 -19.95 60.95 -20.4 61.35 -20.7 L62.3 -21.0 Q62.85 -21.0 63.25 -20.7 M53.45 47.15 Q63.1 38.0 61.35 24.75 L60.95 22.5 Q76.0 13.65 74.0 -3.15 73.75 -5.35 73.1 -7.45 97.35 -27.35 81.65 -54.6 76.6 -63.4 66.55 -65.05 80.95 -43.95 67.2 -22.1 76.55 -0.9 57.55 11.3 55.05 12.85 52.3 14.0 58.45 30.4 53.35 47.05 L53.4 47.15 53.45 47.15 M55.8 3.8 Q55.8 3.25 56.2 2.85 56.55 2.45 57.1 2.45 57.65 2.45 58.05 2.85 58.4 3.25 58.4 3.8 L58.05 4.75 Q57.65 5.15 57.1 5.15 56.55 5.15 56.2 4.75 55.8 4.35 55.8 3.8 M46.3 48.1 Q45.95 47.7 45.95 47.1 45.95 46.5 46.3 46.1 46.6 45.7 47.05 45.7 47.5 45.7 47.85 46.1 L48.15 47.1 47.85 48.1 Q47.5 48.5 47.05 48.5 L46.3 48.1 M-48.2 -93.0 Q-42.9 -93.1 -38.15 -91.05 L-35.45 -89.6 Q-60.7 -81.25 -62.3 -54.8 L-62.45 -51.25 -63.6 -51.1 Q-81.35 -56.0 -86.4 -35.35 -89.25 -23.7 -81.3 -14.25 L-81.55 -12.7 Q-98.25 -11.15 -104.45 -27.1 -114.6 -53.25 -93.0 -71.35 -85.5 -77.55 -75.7 -79.25 -65.8 -94.4 -48.2 -93.0 M-73.7 -77.95 Q-98.55 -72.4 -104.05 -47.7 -109.8 -21.7 -85.35 -14.5 -96.55 -32.6 -82.35 -48.9 -75.6 -56.7 -65.1 -56.25 -63.7 -78.6 -43.95 -89.05 L-41.3 -90.4 Q-56.2 -94.65 -67.75 -84.7 -71.2 -81.75 -73.65 -77.95 L-73.75 -78.0 -73.7 -77.95 M-29.4 -100.05 Q-28.1 -98.75 -28.1 -96.9 -28.1 -95.05 -29.4 -93.7 -30.75 -92.4 -32.65 -92.4 -34.55 -92.4 -35.85 -93.7 -37.2 -95.05 -37.2 -96.9 -37.2 -98.75 -35.85 -100.05 -34.55 -101.4 -32.65 -101.4 -30.75 -101.4 -29.4 -100.05 M-32.7 -99.55 Q-33.85 -99.55 -34.65 -98.7 -35.5 -97.9 -35.5 -96.7 -35.5 -95.5 -34.65 -94.65 -33.85 -93.85 -32.7 -93.85 -31.55 -93.85 -30.7 -94.65 -29.9 -95.5 -29.9 -96.7 -29.9 -97.9 -30.7 -98.7 -31.55 -99.55 -32.7 -99.55 M-11.3 -76.15 Q-11.3 -75.75 -11.65 -75.45 -12.05 -75.15 -12.55 -75.15 L-13.4 -75.45 Q-13.8 -75.75 -13.8 -76.15 L-13.4 -76.85 -12.55 -77.15 Q-12.05 -77.15 -11.65 -76.85 -11.3 -76.55 -11.3 -76.15 M-82.55 -35.55 Q-82.95 -35.95 -82.95 -36.55 -82.95 -37.15 -82.55 -37.55 -82.15 -37.95 -81.55 -37.95 -80.95 -37.95 -80.55 -37.55 -80.15 -37.15 -80.15 -36.55 -80.15 -35.95 -80.55 -35.55 -80.95 -35.15 -81.55 -35.15 -82.15 -35.15 -82.55 -35.55 M-82.35 -9.95 Q-81.55 -10.6 -80.35 -10.7 L-78.95 -10.2 -78.5 -8.15 Q-79.95 -6.05 -82.55 -6.2 L-82.9 -8.1 -79.7 -8.2 -79.7 -9.35 -80.15 -9.7 Q-81.15 -10.5 -82.35 -9.95 M-87.7 -1.9 Q-87.7 -3.5 -86.45 -4.65 -85.25 -5.8 -83.55 -5.8 -81.85 -5.8 -80.6 -4.65 -79.4 -3.5 -79.4 -1.9 -79.4 -0.3 -80.6 0.85 -81.85 2.0 -83.55 2.0 -85.25 2.0 -86.45 0.85 -87.7 -0.3 -87.7 -1.9 M-81.6 -2.1 Q-81.6 -2.9 -82.15 -3.45 -82.75 -4.0 -83.55 -4.0 -84.35 -4.0 -84.9 -3.45 -85.5 -2.9 -85.5 -2.1 -85.5 -1.3 -84.9 -0.75 -84.35 -0.2 -83.55 -0.2 -82.75 -0.2 -82.15 -0.75 -81.6 -1.3 -81.6 -2.1 M-81.65 6.0 Q-79.35 3.3 -76.2 1.75 L-72.45 0.2 -72.05 0.6 Q-74.3 13.65 -64.55 22.5 -63.1 38.35 -48.6 45.0 L-46.7 45.9 -46.9 46.85 Q-76.6 46.95 -83.1 18.85 -83.95 15.1 -84.4 11.25 -86.65 11.2 -88.4 9.25 -89.55 7.9 -89.15 6.05 L-88.7 4.35 Q-86.85 3.75 -84.85 3.85 -83.0 4.25 -81.65 6.0 M-87.3 4.6 L-87.45 5.65 Q-87.75 9.55 -83.85 9.75 L-83.55 8.65 Q-82.95 4.6 -87.3 4.6 M-9.75 -66.7 Q-10.25 -66.7 -10.55 -67.05 -10.9 -67.4 -10.9 -67.9 -10.9 -68.4 -10.55 -68.75 -10.25 -69.1 -9.75 -69.1 -9.25 -69.1 -8.9 -68.75 -8.6 -68.4 -8.6 -67.9 -8.6 -67.4 -8.9 -67.05 -9.25 -66.7 -9.75 -66.7 M-54.85 -55.45 Q-54.85 -54.9 -55.3 -54.5 -55.75 -54.15 -56.35 -54.15 -56.95 -54.15 -57.4 -54.5 L-57.85 -55.45 Q-57.85 -56.0 -57.4 -56.35 -56.95 -56.75 -56.35 -56.75 -55.75 -56.75 -55.3 -56.35 -54.85 -56.0 -54.85 -55.45 M-48.3 -44.65 Q-48.75 -44.65 -49.05 -44.95 -49.4 -45.3 -49.4 -45.75 -49.4 -46.2 -49.05 -46.5 -48.75 -46.85 -48.3 -46.85 -47.85 -46.85 -47.5 -46.5 -47.2 -46.2 -47.2 -45.75 -47.2 -45.3 -47.5 -44.95 -47.85 -44.65 -48.3 -44.65 M-55.1 -10.95 Q-54.55 -10.95 -54.15 -10.55 -53.75 -10.2 -53.75 -9.65 -53.75 -9.1 -54.15 -8.7 -54.55 -8.35 -55.1 -8.35 -55.65 -8.35 -56.05 -8.7 -56.45 -9.1 -56.45 -9.65 -56.45 -10.2 -56.05 -10.55 -55.65 -10.95 -55.1 -10.95 M-49.25 -2.8 Q-48.75 -2.8 -48.35 -2.4 -48.0 -2.05 -48.0 -1.5 -48.0 -0.95 -48.35 -0.55 -48.75 -0.2 -49.25 -0.2 -49.75 -0.2 -50.1 -0.55 -50.5 -0.95 -50.5 -1.5 -50.5 -2.05 -50.1 -2.4 -49.75 -2.8 -49.25 -2.8 M-72.1 -2.4 Q-71.7 -2.05 -71.7 -1.5 -71.7 -0.95 -72.1 -0.55 -72.5 -0.2 -73.05 -0.2 -73.6 -0.2 -74.0 -0.55 -74.4 -0.95 -74.4 -1.5 -74.4 -2.05 -74.0 -2.4 -73.6 -2.8 -73.05 -2.8 -72.5 -2.8 -72.1 -2.4 M-74.75 3.25 Q-88.25 19.85 -71.6 35.8 -63.75 43.25 -53.15 45.15 -71.4 29.9 -74.4 6.3 L-74.75 3.25 M-63.6 15.25 Q-63.05 15.25 -62.65 15.75 -62.25 16.2 -62.25 16.85 -62.25 17.5 -62.65 18.0 -63.05 18.45 -63.6 18.45 -64.15 18.45 -64.55 18.0 -64.95 17.5 -64.95 16.85 -64.95 16.2 -64.55 15.75 -64.15 15.25 -63.6 15.25 M-38.9 33.2 Q-39.45 33.2 -39.8 32.85 -40.2 32.45 -40.2 31.95 -40.2 31.45 -39.8 31.1 -39.45 30.7 -38.9 30.7 -38.35 30.7 -37.95 31.1 -37.6 31.45 -37.6 31.95 -37.6 32.45 -37.95 32.85 -38.35 33.2 -38.9 33.2 M-45.75 43.05 Q-45.75 43.5 -46.1 43.8 L-47.05 44.1 -47.95 43.8 Q-48.35 43.5 -48.35 43.05 -48.35 42.6 -47.95 42.3 -47.6 42.0 -47.05 42.0 -46.5 42.0 -46.1 42.3 -45.75 42.6 -45.75 43.05" fill="#d76275" fill-rule="evenodd" stroke="none"/>
    <path d="M38.9 -107.55 L29.2 -104.75 Q24.1 -106.45 18.95 -106.7 -6.6 -107.55 -15.0 -82.9 L-28.75 -89.25 -13.3 -90.35 -12.6 -95.2 Q-7.0 -121.0 19.8 -120.3 32.15 -118.25 38.9 -107.55 M58.45 -74.55 Q60.5 -80.85 58.5 -87.2 L59.75 -85.4 Q61.25 -83.25 61.4 -80.85 61.65 -75.95 57.8 -72.85 L58.45 -74.55 M53.35 47.05 Q58.45 30.4 52.3 14.0 55.05 12.85 57.55 11.3 76.55 -0.9 67.2 -22.1 80.95 -43.95 66.55 -65.05 76.6 -63.4 81.65 -54.6 97.35 -27.35 73.1 -7.45 73.75 -5.35 74.0 -3.15 76.0 13.65 60.95 22.5 L61.35 24.75 Q63.1 38.0 53.45 47.15 L53.35 47.05 M-73.65 -77.95 Q-71.2 -81.75 -67.75 -84.7 -56.2 -94.65 -41.3 -90.4 L-43.95 -89.05 Q-63.7 -78.6 -65.1 -56.25 -75.6 -56.7 -82.35 -48.9 -96.55 -32.6 -85.35 -14.5 -109.8 -21.7 -104.05 -47.7 -98.55 -72.4 -73.7 -77.95 L-73.65 -77.95 M-32.7 -99.55 Q-31.55 -99.55 -30.7 -98.7 -29.9 -97.9 -29.9 -96.7 -29.9 -95.5 -30.7 -94.65 -31.55 -93.85 -32.7 -93.85 -33.85 -93.85 -34.65 -94.65 -35.5 -95.5 -35.5 -96.7 -35.5 -97.9 -34.65 -98.7 -33.85 -99.55 -32.7 -99.55 M-82.9 -8.1 L-83.1 -8.8 -82.35 -9.95 Q-81.15 -10.5 -80.15 -9.7 L-79.7 -9.35 -79.7 -8.2 -82.9 -8.1 M-81.6 -2.1 Q-81.6 -1.3 -82.15 -0.75 -82.75 -0.2 -83.55 -0.2 -84.35 -0.2 -84.9 -0.75 -85.5 -1.3 -85.5 -2.1 -85.5 -2.9 -84.9 -3.45 -84.35 -4.0 -83.55 -4.0 -82.75 -4.0 -82.15 -3.45 -81.6 -2.9 -81.6 -2.1 M-87.3 4.6 Q-82.95 4.6 -83.55 8.65 L-83.85 9.75 Q-87.75 9.55 -87.45 5.65 L-87.3 4.6 M-74.75 3.25 L-74.4 6.3 Q-71.4 29.9 -53.15 45.15 -63.75 43.25 -71.6 35.8 -88.25 19.85 -74.75 3.25" fill="#f7e0e5" fill-rule="evenodd" stroke="none"/>
  </g>
</svg>
