<?xml version="1.0" encoding="UTF-8" standalone="no"?>
<svg xmlns:ffdec="https://www.free-decompiler.com/flash" xmlns:xlink="http://www.w3.org/1999/xlink" ffdec:objectType="shape" height="97.25px" width="97.05px" xmlns="http://www.w3.org/2000/svg">
  <g transform="matrix(1.0, 0.0, 0.0, 1.0, 52.75, 48.95)">
    <path d="M41.85 18.45 L41.2 17.6 44.1 14.9 Q44.85 17.45 42.5 18.35 L41.85 18.45 M24.4 21.95 Q33.6 23.4 38.0 15.45 L38.45 15.45 Q37.45 29.45 23.9 22.75 L24.4 21.95 M38.85 -27.1 Q37.85 -25.0 36.2 -23.5 L36.3 -22.05 35.05 -21.2 34.1 -37.2 38.25 -35.2 Q40.75 -31.15 38.85 -27.1 M2.8 -42.55 L3.0 -41.75 -7.9 -29.5 Q-7.2 -39.75 2.8 -42.55 M9.9 -44.7 Q9.6 -44.4 9.2 -44.4 8.8 -44.4 8.5 -44.7 8.2 -45.0 8.2 -45.4 8.2 -45.8 8.5 -46.1 8.8 -46.4 9.2 -46.4 L9.9 -46.1 10.2 -45.4 9.9 -44.7 M15.45 -47.85 L17.05 -48.45 Q29.75 -51.2 30.25 -39.15 L30.0 -37.8 29.2 -37.5 Q25.25 -45.95 15.85 -46.7 L15.45 -47.85 M41.7 -8.7 Q38.95 -14.55 32.45 -14.45 37.2 -19.1 41.95 -14.7 L43.05 -13.55 43.35 -8.95 41.7 -8.7 M-26.4 31.45 L-23.9 35.5 -25.0 36.25 -25.9 36.3 Q-26.85 35.05 -26.85 33.55 L-26.7 32.4 -26.4 31.45 M-2.05 43.75 Q-1.55 43.75 -1.15 44.15 -0.8 44.5 -0.8 45.0 -0.8 45.5 -1.15 45.9 -1.55 46.25 -2.05 46.25 -2.55 46.25 -2.9 45.9 -3.3 45.5 -3.3 45.0 -3.3 44.5 -2.9 44.15 -2.55 43.75 -2.05 43.75 M-12.5 45.65 L-12.5 46.2 -15.4 46.1 -15.25 43.55 -14.6 43.6 Q-12.5 43.75 -12.5 45.65 M-17.65 44.95 L-19.35 44.6 Q-23.55 43.2 -23.9 38.8 L-23.55 38.5 -22.55 38.95 Q-19.1 40.45 -17.5 43.85 L-17.35 44.35 -17.65 44.95 M-4.55 36.75 L-3.6 36.6 -3.45 37.6 Q-3.05 49.9 -12.3 44.35 L-12.55 43.45 Q-7.8 40.8 -4.55 36.75 M-29.35 24.2 L-28.4 23.3 -27.2 23.85 -28.45 27.95 -29.2 26.9 Q-29.9 25.55 -29.35 24.2 M-34.0 21.9 Q-33.65 21.55 -33.15 21.55 -32.65 21.55 -32.3 21.9 -31.95 22.2 -31.95 22.7 -31.95 23.2 -32.3 23.55 L-33.15 23.85 -34.0 23.55 Q-34.35 23.2 -34.35 22.7 -34.35 22.2 -34.0 21.9 M-39.0 -16.85 L-38.2 -17.15 -37.35 -16.85 Q-37.05 -16.6 -37.05 -16.2 -37.05 -15.8 -37.35 -15.5 -37.7 -15.25 -38.2 -15.25 L-39.0 -15.5 Q-39.35 -15.8 -39.35 -16.2 L-39.0 -16.85 M-46.2 12.9 L-43.15 12.0 -43.9 14.25 -42.3 15.95 Q-39.45 18.95 -35.55 20.05 -37.1 20.8 -38.7 20.6 -46.5 21.25 -46.2 12.9 M-45.7 -1.5 L-45.85 -0.4 -48.0 -0.4 Q-49.9 5.85 -47.55 11.85 -50.35 10.9 -51.65 8.3 -54.9 1.85 -48.55 -1.15 -48.85 -3.25 -48.25 -5.45 -45.35 -16.15 -36.95 -9.1 L-38.85 -8.7 Q-44.65 -7.2 -45.7 -1.5 M-8.8 -27.1 L-8.1 -26.8 -7.85 -26.15 Q-7.85 -25.75 -8.1 -25.45 -8.4 -25.2 -8.8 -25.2 L-9.45 -25.45 -9.75 -26.15 -9.45 -26.8 -8.8 -27.1 M-12.3 -30.8 Q-12.8 -30.8 -13.15 -31.05 -13.55 -31.3 -13.55 -31.65 L-13.15 -32.25 -12.3 -32.5 -11.4 -32.25 Q-11.05 -32.0 -11.05 -31.65 -11.05 -31.3 -11.4 -31.05 L-12.3 -30.8 M-20.8 -33.95 L-21.4 -31.65 Q-34.7 -32.15 -34.0 -19.2 L-34.7 -20.45 Q-40.0 -33.15 -25.1 -35.55 -23.35 -38.4 -20.1 -38.8 -14.15 -38.95 -14.0 -33.6 L-20.8 -33.95 M1.85 44.4 L2.9 43.65 3.45 44.4 3.4 44.9 6.65 45.05 Q13.55 44.3 16.85 38.15 L16.65 41.85 Q15.45 44.95 12.6 46.75 6.4 50.75 1.85 44.4 M20.8 36.3 L20.45 37.35 Q20.1 37.75 19.6 37.75 19.1 37.75 18.75 37.35 18.4 36.9 18.4 36.3 18.4 35.7 18.75 35.3 19.1 34.85 19.6 34.85 L20.45 35.3 20.8 36.3 M24.5 30.3 L24.75 31.05 24.5 31.85 23.9 32.15 Q23.55 32.15 23.3 31.85 L23.05 31.05 Q23.05 30.6 23.3 30.3 23.55 29.95 23.9 29.95 24.25 29.95 24.5 30.3" fill="#ebcfcf" fill-opacity="0.4" fill-rule="evenodd" stroke="none"/>
  </g>
</svg>
