<?xml version="1.0" encoding="UTF-8" standalone="no"?>
<svg xmlns:ffdec="https://www.free-decompiler.com/flash" xmlns:xlink="http://www.w3.org/1999/xlink" ffdec:objectType="shape" height="170.1px" width="200.8px" xmlns="http://www.w3.org/2000/svg">
  <g transform="matrix(1.0, 0.0, 0.0, 1.0, 108.95, 119.7)">
    <path d="M38.5 -113.1 L35.0 -113.5 Q4.6 -115.6 -12.55 -90.15 -19.6 -96.65 -28.35 -100.7 L-26.35 -100.75 Q-18.45 -100.85 -11.5 -97.15 L-10.95 -95.45 Q-8.3 -104.25 -1.15 -109.8 17.25 -124.1 38.5 -113.1 M59.55 -82.0 Q59.55 -83.0 60.2 -83.7 60.85 -84.45 61.8 -84.45 62.75 -84.45 63.4 -83.7 64.05 -83.0 64.05 -82.0 64.05 -81.0 63.4 -80.25 62.75 -79.55 61.8 -79.55 60.85 -79.55 60.2 -80.25 59.55 -81.0 59.55 -82.0 M78.4 -61.95 Q74.0 -60.35 73.8 -65.15 L74.35 -65.65 75.85 -65.5 Q77.95 -64.9 78.6 -62.85 L78.4 -61.95 M75.45 -9.8 L74.85 -9.9 74.15 -13.25 Q72.9 -18.25 70.05 -22.45 L72.25 -24.6 Q85.3 -38.35 81.8 -57.1 87.2 -52.05 89.15 -45.15 95.45 -22.6 75.45 -9.8 M-70.35 -81.6 Q-64.55 -92.45 -52.75 -96.05 -68.25 -83.65 -68.85 -63.55 -72.75 -63.95 -76.45 -62.95 -103.35 -55.85 -99.9 -26.9 -109.6 -39.25 -105.2 -54.4 -97.6 -80.45 -70.5 -78.75 L-70.0 -80.1 -70.3 -80.5 -70.35 -81.6 M69.8 17.95 L68.4 19.7 Q64.2 24.45 58.3 27.05 L58.45 28.85 Q58.75 35.0 56.35 40.6 56.05 29.75 53.9 19.05 L74.4 2.2 74.45 4.4 Q74.45 7.7 73.4 10.7 72.2 14.65 69.8 17.95 M-84.05 6.05 Q-83.25 8.7 -81.75 11.05 -79.0 15.3 -74.1 17.45 -72.7 31.4 -62.9 41.45 L-65.45 40.15 Q-85.6 29.0 -84.05 6.05" fill="#f7e0e5" fill-rule="evenodd" stroke="none"/>
    <path d="M38.5 -113.1 Q17.25 -124.1 -1.15 -109.8 -8.3 -104.25 -10.95 -95.45 L-11.5 -97.15 Q-18.45 -100.85 -26.35 -100.75 L-28.35 -100.7 Q-19.6 -96.65 -12.55 -90.15 4.6 -115.6 35.0 -113.5 L38.5 -113.1 M23.95 -104.3 Q23.55 -104.0 23.0 -104.0 22.45 -104.0 22.1 -104.3 21.7 -104.6 21.7 -105.05 21.7 -105.5 22.1 -105.8 L23.0 -106.1 Q23.55 -106.1 23.95 -105.8 24.3 -105.5 24.3 -105.05 24.3 -104.6 23.95 -104.3 M28.0 -97.75 Q28.0 -98.2 28.3 -98.5 28.6 -98.85 29.05 -98.85 29.5 -98.85 29.8 -98.5 L30.1 -97.75 29.8 -96.95 Q29.5 -96.65 29.05 -96.65 28.6 -96.65 28.3 -96.95 28.0 -97.3 28.0 -97.75 M11.9 -99.45 Q11.55 -99.1 11.1 -99.1 10.65 -99.1 10.35 -99.45 10.0 -99.85 10.0 -100.4 10.0 -100.95 10.35 -101.3 10.65 -101.7 11.1 -101.7 11.55 -101.7 11.9 -101.3 L12.2 -100.4 11.9 -99.45 M42.1 -110.15 Q17.2 -116.1 -2.35 -99.55 -8.15 -94.65 -12.4 -88.4 L-30.8 -99.35 -30.9 -99.85 -31.7 -99.55 -32.15 -99.65 -32.55 -100.45 Q-25.6 -103.3 -18.3 -101.35 -14.8 -100.35 -11.4 -99.0 -1.9 -120.2 21.5 -119.7 34.5 -119.45 44.65 -111.25 L42.1 -110.15 M45.3 -87.9 L45.8 -88.8 45.75 -87.2 45.3 -87.9 M59.7 -84.85 Q60.8 -86.05 62.4 -86.05 64.0 -86.05 65.15 -84.85 66.25 -83.65 66.25 -81.95 66.25 -80.25 65.15 -79.05 64.0 -77.85 62.4 -77.85 60.8 -77.85 59.7 -79.05 58.55 -80.25 58.55 -81.95 58.55 -83.65 59.7 -84.85 M59.55 -82.0 Q59.55 -81.0 60.2 -80.25 60.85 -79.55 61.8 -79.55 62.75 -79.55 63.4 -80.25 64.05 -81.0 64.05 -82.0 64.05 -83.0 63.4 -83.7 62.75 -84.45 61.8 -84.45 60.85 -84.45 60.2 -83.7 59.55 -83.0 59.55 -82.0 M78.6 -62.85 Q77.95 -64.9 75.85 -65.5 L74.35 -65.65 73.8 -65.15 Q74.0 -60.35 78.4 -61.95 L77.0 -59.4 Q73.75 -60.05 72.7 -62.85 72.2 -64.25 72.3 -65.7 75.9 -67.65 77.9 -64.55 L78.6 -62.85 M79.85 -58.75 L80.8 -60.55 Q100.3 -39.8 85.35 -16.45 81.55 -10.5 75.3 -7.0 L73.7 -7.1 Q72.95 -15.5 67.9 -22.25 82.95 -37.1 80.45 -58.2 L79.85 -58.75 M64.65 -21.4 Q64.95 -21.75 65.4 -21.75 65.85 -21.75 66.2 -21.4 L66.5 -20.65 66.2 -19.85 Q65.85 -19.55 65.4 -19.55 64.95 -19.55 64.65 -19.85 64.3 -20.2 64.3 -20.65 64.3 -21.1 64.65 -21.4 M67.75 1.65 Q67.2 1.65 66.8 1.25 66.4 0.85 66.4 0.25 66.4 -0.35 66.8 -0.75 67.2 -1.15 67.75 -1.15 68.3 -1.15 68.7 -0.75 69.1 -0.35 69.1 0.25 69.1 0.85 68.7 1.25 68.3 1.65 67.75 1.65 M76.4 -0.2 Q76.95 5.35 75.65 11.1 72.6 24.55 60.0 29.25 L60.2 30.45 60.4 31.6 Q61.15 37.45 58.55 42.65 57.55 44.75 55.85 46.2 L52.45 17.85 61.25 10.95 73.8 -0.1 76.4 -0.2 M75.45 -9.8 Q95.45 -22.6 89.15 -45.15 87.2 -52.05 81.8 -57.1 85.3 -38.35 72.25 -24.6 L70.05 -22.45 Q72.9 -18.25 74.15 -13.25 L74.85 -9.9 75.45 -9.8 M60.25 4.1 Q60.7 4.1 61.05 4.45 L61.35 5.25 61.05 6.1 60.25 6.4 Q59.8 6.4 59.5 6.1 59.15 5.75 59.15 5.25 59.15 4.75 59.5 4.45 59.8 4.1 60.25 4.1 M69.8 17.95 Q72.2 14.65 73.4 10.7 74.45 7.7 74.45 4.4 L74.4 2.2 53.9 19.05 Q56.05 29.75 56.35 40.6 58.75 35.0 58.45 28.85 L58.3 27.05 Q64.2 24.45 68.4 19.7 L69.8 17.95 M-70.35 -81.6 L-70.3 -80.5 -70.0 -80.1 -70.5 -78.75 Q-97.6 -80.45 -105.2 -54.4 -109.6 -39.25 -99.9 -26.9 -103.35 -55.85 -76.45 -62.95 -72.75 -63.95 -68.85 -63.55 -68.25 -83.65 -52.75 -96.05 -64.55 -92.45 -70.35 -81.6 M-56.0 -97.35 Q-51.35 -98.9 -46.5 -98.75 -64.55 -86.7 -67.0 -65.5 L-67.2 -62.95 -66.7 -62.55 -66.55 -61.75 -68.1 -60.9 Q-96.95 -61.85 -98.25 -31.95 -98.45 -27.2 -97.15 -22.75 L-98.2 -22.75 -98.1 -21.85 Q-122.2 -49.7 -92.8 -74.55 -83.85 -82.05 -71.7 -81.65 -67.6 -93.35 -56.0 -97.35 M-34.5 -104.25 L-33.75 -103.95 Q-33.45 -103.65 -33.45 -103.2 -33.45 -102.75 -33.75 -102.45 -34.05 -102.15 -34.5 -102.15 -34.95 -102.15 -35.25 -102.45 L-35.55 -103.2 -35.25 -103.95 -34.5 -104.25 M-14.25 -78.65 Q-14.6 -79.0 -14.6 -79.5 -14.6 -80.0 -14.25 -80.3 -13.95 -80.65 -13.45 -80.65 -12.95 -80.65 -12.6 -80.3 -12.3 -80.0 -12.3 -79.5 -12.3 -79.0 -12.6 -78.65 -12.95 -78.35 -13.45 -78.35 -13.95 -78.35 -14.25 -78.65 M-10.7 -72.65 Q-10.15 -72.65 -9.75 -72.35 -9.4 -72.05 -9.4 -71.6 -9.4 -71.15 -9.75 -70.85 -10.15 -70.55 -10.7 -70.55 -11.25 -70.55 -11.6 -70.85 -12.0 -71.15 -12.0 -71.6 -12.0 -72.05 -11.6 -72.35 L-10.7 -72.65 M-82.85 -39.1 Q-82.85 -38.6 -83.2 -38.25 -83.6 -37.9 -84.1 -37.9 -84.6 -37.9 -84.95 -38.25 -85.35 -38.6 -85.35 -39.1 -85.35 -39.6 -84.95 -39.95 L-84.1 -40.3 -83.2 -39.95 Q-82.85 -39.6 -82.85 -39.1 M-83.75 -10.1 L-83.2 -10.35 -82.6 -10.1 -82.4 -9.5 -82.6 -8.9 Q-82.85 -8.65 -83.2 -8.65 -83.55 -8.65 -83.75 -8.9 L-84.0 -9.5 -83.75 -10.1 M-86.45 -3.5 L-85.7 -3.8 Q-85.25 -3.8 -84.95 -3.5 -84.65 -3.2 -84.65 -2.75 -84.65 -2.3 -84.95 -2.0 -85.25 -1.7 -85.7 -1.7 -86.15 -1.7 -86.45 -2.0 -86.75 -2.3 -86.75 -2.75 L-86.45 -3.5 M-81.45 3.9 L-81.5 5.05 -82.4 5.65 -80.45 9.75 Q-77.65 14.15 -73.05 16.35 L-71.9 16.8 Q-72.25 30.25 -61.85 38.45 -57.15 42.2 -51.4 43.55 L-52.55 43.0 -49.8 41.9 -41.75 45.5 Q-62.7 47.75 -77.0 32.15 -87.8 20.3 -86.35 4.05 L-81.9 3.4 -81.45 3.9 M-88.9 6.65 Q-88.6 6.35 -88.15 6.35 -87.7 6.35 -87.4 6.65 -87.1 6.95 -87.1 7.4 -87.1 7.85 -87.4 8.15 L-88.15 8.45 Q-88.6 8.45 -88.9 8.15 L-89.2 7.4 -88.9 6.65 M-84.05 6.05 Q-85.6 29.0 -65.45 40.15 L-62.9 41.45 Q-72.7 31.4 -74.1 17.45 -79.0 15.3 -81.75 11.05 -83.25 8.7 -84.05 6.05 M-58.75 -60.25 Q-58.25 -60.25 -57.85 -59.95 -57.5 -59.65 -57.5 -59.2 -57.5 -58.75 -57.85 -58.45 -58.25 -58.15 -58.75 -58.15 L-59.6 -58.45 Q-60.0 -58.75 -60.0 -59.2 -60.0 -59.65 -59.6 -59.95 L-58.75 -60.25 M-49.75 -47.5 Q-50.25 -47.5 -50.55 -47.8 -50.9 -48.15 -50.9 -48.65 L-50.55 -49.45 Q-50.25 -49.8 -49.75 -49.8 -49.25 -49.8 -48.9 -49.45 -48.6 -49.15 -48.6 -48.65 -48.6 -48.15 -48.9 -47.8 -49.25 -47.5 -49.75 -47.5 M-57.15 -8.15 Q-57.55 -8.15 -57.85 -8.4 L-58.15 -9.1 -57.85 -9.75 -57.15 -10.05 -56.45 -9.75 Q-56.15 -9.5 -56.15 -9.1 -56.15 -8.7 -56.45 -8.4 -56.75 -8.15 -57.15 -8.15 M-51.45 -2.3 Q-50.95 -2.3 -50.55 -1.9 -50.2 -1.55 -50.2 -1.05 -50.2 -0.55 -50.55 -0.15 L-51.45 0.2 -52.3 -0.15 Q-52.7 -0.55 -52.7 -1.05 -52.7 -1.55 -52.3 -1.9 -51.95 -2.3 -51.45 -2.3 M-74.0 -0.3 Q-74.0 0.25 -74.45 0.65 L-75.65 1.0 Q-76.35 1.0 -76.8 0.65 -77.3 0.25 -77.3 -0.3 -77.3 -0.85 -76.8 -1.2 -76.35 -1.6 -75.65 -1.6 -74.95 -1.6 -74.45 -1.2 -74.0 -0.85 -74.0 -0.3 M-67.45 20.0 Q-67.85 19.6 -67.85 19.05 -67.85 18.5 -67.45 18.1 -67.05 17.7 -66.5 17.7 -65.95 17.7 -65.55 18.1 -65.15 18.5 -65.15 19.05 -65.15 19.6 -65.55 20.0 -65.95 20.4 -66.5 20.4 -67.05 20.4 -67.45 20.0 M-39.45 31.5 Q-39.1 31.85 -39.1 32.4 -39.1 32.95 -39.45 33.35 -39.85 33.7 -40.4 33.7 -40.95 33.7 -41.3 33.35 -41.7 32.95 -41.7 32.4 -41.7 31.85 -41.3 31.5 -40.95 31.1 -40.4 31.1 -39.85 31.1 -39.45 31.5 M49.55 50.05 Q49.2 49.7 49.2 49.2 49.2 48.7 49.55 48.35 49.85 48.0 50.35 48.0 50.85 48.0 51.2 48.35 L51.5 49.2 51.2 50.05 Q50.85 50.4 50.35 50.4 49.85 50.4 49.55 50.05" fill="#d76275" fill-rule="evenodd" stroke="none"/>
  </g>
</svg>
