<?xml version="1.0" encoding="UTF-8" standalone="no"?>
<svg xmlns:ffdec="https://www.free-decompiler.com/flash" xmlns:xlink="http://www.w3.org/1999/xlink" ffdec:objectType="shape" height="154.3px" width="135.8px" xmlns="http://www.w3.org/2000/svg">
  <g transform="matrix(1.0, 0.0, 0.0, 1.0, 61.35, 181.65)">
    <path d="M-35.5 -34.1 Q-35.0 -33.4 -35.0 -32.45 -35.0 -31.5 -35.5 -30.8 -36.0 -30.1 -36.7 -30.1 -37.4 -30.1 -37.9 -30.8 -38.4 -31.5 -38.4 -32.45 -38.4 -33.4 -37.9 -34.1 -37.4 -34.8 -36.7 -34.8 -36.0 -34.8 -35.5 -34.1 M-23.15 -40.35 L-23.5 -39.45 Q-26.1 -32.85 -31.95 -37.75 L-31.75 -39.05 Q-29.8 -48.6 -23.15 -40.35 M-11.2 -30.15 Q-10.6 -30.15 -10.15 -29.75 -9.75 -29.35 -9.75 -28.75 -9.75 -28.15 -10.15 -27.75 -10.6 -27.35 -11.2 -27.35 -11.8 -27.35 -12.2 -27.75 -12.65 -28.15 -12.65 -28.75 -12.65 -29.35 -12.2 -29.75 -11.8 -30.15 -11.2 -30.15 M-4.5 -47.2 Q-3.4 -46.05 -3.4 -44.45 -3.4 -42.85 -4.5 -41.7 -5.65 -40.55 -7.25 -40.55 -8.85 -40.55 -9.95 -41.7 -11.1 -42.85 -11.1 -44.45 -11.1 -46.05 -9.95 -47.2 -8.85 -48.35 -7.25 -48.35 -5.65 -48.35 -4.5 -47.2 M-40.9 -38.3 Q-48.3 -34.3 -48.7 -42.6 L-48.65 -43.85 Q-39.85 -48.55 -40.5 -38.55 L-40.9 -38.3 M-49.55 -56.65 L-50.35 -55.4 Q-57.15 -46.5 -61.35 -58.55 L-59.35 -60.05 Q-52.75 -64.45 -49.55 -56.65 M-44.55 -57.45 Q-43.15 -57.45 -42.15 -56.45 -41.2 -55.5 -41.2 -54.1 -41.2 -52.7 -42.15 -51.7 -43.15 -50.75 -44.55 -50.75 -45.95 -50.75 -46.9 -51.7 -47.9 -52.7 -47.9 -54.1 -47.9 -55.5 -46.9 -56.45 -45.95 -57.45 -44.55 -57.45 M-42.7 -81.5 Q-46.55 -88.0 -41.0 -92.65 -34.85 -93.35 -34.25 -87.15 -37.4 -82.75 -42.4 -81.3 L-42.7 -81.5 M-59.8 -91.65 Q-57.15 -91.6 -55.55 -89.35 -56.05 -85.0 -59.1 -82.85 -61.3 -86.75 -60.85 -91.3 L-60.55 -91.7 -59.8 -91.65 M-47.25 -98.85 Q-49.5 -97.05 -51.55 -98.3 -63.55 -105.85 -49.05 -111.0 -39.65 -104.8 -47.25 -98.85 M-40.1 -72.85 Q-36.75 -70.7 -36.15 -66.35 -40.05 -62.1 -43.8 -66.75 L-43.5 -68.15 Q-42.95 -71.35 -40.55 -73.0 L-40.1 -72.85 M-26.15 -78.75 Q-24.25 -78.75 -22.9 -77.1 -21.55 -75.45 -21.55 -73.1 -21.55 -70.75 -22.9 -69.1 -24.25 -67.45 -26.15 -67.45 -28.05 -67.45 -29.4 -69.1 -30.75 -70.75 -30.75 -73.1 -30.75 -75.45 -29.4 -77.1 -28.05 -78.75 -26.15 -78.75 M-7.5 -82.55 Q-5.5 -80.45 -5.5 -77.45 -5.5 -74.45 -7.5 -72.35 -9.5 -70.25 -12.3 -70.25 -15.1 -70.25 -17.1 -72.35 -19.1 -74.45 -19.1 -77.45 -19.1 -80.45 -17.1 -82.55 -15.1 -84.65 -12.3 -84.65 -9.5 -84.65 -7.5 -82.55 M-31.95 -103.25 Q-34.25 -103.3 -34.3 -104.55 -34.95 -118.65 -24.9 -113.8 -24.95 -107.5 -31.15 -106.9 L-30.95 -105.45 -31.15 -103.9 -31.95 -103.25 M-13.1 -125.75 L-10.95 -124.8 Q-8.95 -123.9 -8.45 -122.05 L-8.6 -121.75 Q-12.45 -118.3 -16.3 -120.8 L-13.1 -125.75 M-47.9 -131.3 Q-45.7 -133.3 -42.55 -133.3 -39.4 -133.3 -37.2 -131.3 -35.0 -129.3 -35.0 -126.45 -35.0 -123.6 -37.2 -121.6 -39.4 -119.6 -42.55 -119.6 -45.7 -119.6 -47.9 -121.6 -50.1 -123.6 -50.1 -126.45 -50.1 -129.3 -47.9 -131.3 M-7.9 -154.55 Q-7.55 -154.2 -7.55 -153.7 -7.55 -153.2 -7.9 -152.85 -8.25 -152.5 -8.75 -152.5 -9.25 -152.5 -9.6 -152.85 -9.95 -153.2 -9.95 -153.7 -9.95 -154.2 -9.6 -154.55 -9.25 -154.9 -8.75 -154.9 -8.25 -154.9 -7.9 -154.55 M-19.15 -155.7 L-18.4 -155.4 Q-18.1 -155.1 -18.1 -154.65 -18.1 -154.2 -18.4 -153.9 -18.7 -153.6 -19.15 -153.6 -19.6 -153.6 -19.9 -153.9 L-20.2 -154.65 -19.9 -155.4 -19.15 -155.7 M-7.95 -171.6 Q-5.65 -169.15 -5.65 -165.65 -5.65 -162.15 -7.95 -159.65 -10.3 -157.2 -13.6 -157.2 -16.9 -157.2 -19.2 -159.65 -21.55 -162.15 -21.55 -165.65 -21.55 -169.15 -19.2 -171.6 -16.9 -174.1 -13.6 -174.1 -10.3 -174.1 -7.95 -171.6 M-26.5 -149.05 L-22.55 -149.2 Q-8.55 -138.65 -25.85 -135.15 -37.25 -143.15 -26.5 -149.05 M51.0 -43.1 Q50.8 -48.25 56.4 -47.65 L57.45 -47.55 Q59.1 -45.2 57.25 -42.9 55.2 -40.45 52.05 -40.85 L51.2 -41.6 51.0 -43.1 M4.85 -43.75 Q6.3 -42.3 6.3 -40.25 6.3 -38.2 4.85 -36.75 3.4 -35.3 1.35 -35.3 -0.7 -35.3 -2.15 -36.75 -3.6 -38.2 -3.6 -40.25 -3.6 -42.3 -2.15 -43.75 -0.7 -45.2 1.35 -45.2 3.4 -45.2 4.85 -43.75 M36.0 -83.55 Q42.05 -83.0 38.3 -78.65 28.25 -67.05 31.45 -83.4 L36.0 -83.55 M74.45 -62.65 Q74.1 -61.8 73.55 -61.1 63.2 -49.3 59.4 -67.5 L60.75 -68.2 Q70.45 -72.95 74.45 -62.65 M52.85 -87.15 L54.6 -87.55 Q67.3 -89.4 61.4 -77.2 48.85 -76.05 52.85 -87.15 M63.15 -110.05 Q76.45 -115.7 73.5 -100.95 63.55 -93.9 58.15 -104.85 59.8 -108.7 63.15 -110.05 M53.55 -119.75 L53.9 -119.0 Q53.9 -118.55 53.55 -118.25 53.15 -117.95 52.6 -117.95 52.05 -117.95 51.7 -118.25 51.3 -118.55 51.3 -119.0 51.3 -119.45 51.7 -119.75 52.05 -120.05 52.6 -120.05 L53.55 -119.75 M60.3 -120.05 L60.6 -119.3 60.3 -118.5 Q59.95 -118.2 59.45 -118.2 58.95 -118.2 58.65 -118.5 58.3 -118.85 58.3 -119.3 58.3 -119.75 58.65 -120.05 58.95 -120.4 59.45 -120.4 59.95 -120.4 60.3 -120.05 M51.1 -136.05 L53.2 -136.55 Q67.3 -138.5 60.45 -124.75 58.3 -120.85 54.05 -122.85 44.8 -127.25 51.1 -136.05 M27.95 -104.15 L28.9 -102.4 Q31.55 -96.55 25.0 -94.85 L24.0 -95.7 Q16.65 -102.6 27.95 -104.15 M7.85 -118.25 Q6.15 -115.0 4.55 -117.65 -4.4 -132.25 10.05 -124.1 9.3 -121.05 7.85 -118.25 M3.45 -137.05 L3.8 -136.2 Q3.8 -135.7 3.45 -135.3 3.05 -134.95 2.5 -134.95 1.95 -134.95 1.6 -135.3 1.2 -135.7 1.2 -136.2 1.2 -136.7 1.6 -137.05 1.95 -137.45 2.5 -137.45 3.05 -137.45 3.45 -137.05 M14.55 -147.9 Q16.5 -145.7 16.5 -142.6 16.5 -139.5 14.55 -137.3 12.6 -135.1 9.8 -135.1 7.0 -135.1 5.05 -137.3 3.1 -139.5 3.1 -142.6 3.1 -145.7 5.05 -147.9 7.0 -150.1 9.8 -150.1 12.6 -150.1 14.55 -147.9 M29.2 -127.2 Q30.85 -127.2 32.05 -126.05 33.2 -124.9 33.2 -123.25 33.2 -121.6 32.05 -120.45 30.85 -119.3 29.2 -119.3 27.55 -119.3 26.4 -120.45 25.2 -121.6 25.2 -123.25 25.2 -124.9 26.4 -126.05 27.55 -127.2 29.2 -127.2 M40.0 -156.75 L40.2 -157.45 40.85 -157.7 Q52.1 -147.1 36.9 -141.7 34.25 -140.75 32.85 -142.4 20.55 -156.85 40.0 -156.75 M18.55 -155.75 L17.9 -155.9 Q14.0 -161.75 21.5 -162.5 23.3 -157.65 18.55 -155.75 M8.45 -158.3 Q8.85 -157.75 8.85 -156.95 8.85 -156.15 8.45 -155.55 8.0 -155.0 7.4 -155.0 6.8 -155.0 6.4 -155.55 5.95 -156.15 5.95 -156.95 5.95 -157.75 6.4 -158.3 6.8 -158.9 7.4 -158.9 8.0 -158.9 8.45 -158.3 M15.25 -181.55 Q17.6 -178.3 18.05 -174.65 20.1 -157.85 2.5 -166.45 -2.0 -182.7 15.25 -181.55" fill="#ffffff" fill-opacity="0.49803922" fill-rule="evenodd" stroke="none"/>
  </g>
</svg>
