<?xml version="1.0" encoding="UTF-8" standalone="no"?>
<svg xmlns:ffdec="https://www.free-decompiler.com/flash" xmlns:xlink="http://www.w3.org/1999/xlink" ffdec:objectType="shape" height="178.5px" width="212.3px" xmlns="http://www.w3.org/2000/svg">
  <g transform="matrix(1.0, 0.0, 0.0, 1.0, 113.75, 133.75)">
    <path d="M6.35 -128.2 L4.35 -128.15 Q23.05 -138.8 42.05 -129.15 31.25 -127.5 21.0 -123.65 L19.95 -124.75 20.35 -125.0 Q15.15 -127.65 9.4 -127.3 L7.7 -127.2 7.4 -126.85 6.5 -126.9 6.35 -128.2 M80.1 -2.1 Q80.05 0.8 79.5 3.95 76.65 21.0 60.95 27.8 L60.9 29.35 58.95 29.9 59.1 21.15 58.15 20.85 Q71.45 10.05 79.45 -4.95 L79.65 -2.25 80.1 -2.1 M93.5 -55.9 Q106.25 -31.6 86.65 -13.0 L84.4 -11.25 84.15 -11.75 83.6 -11.7 79.9 -17.85 Q90.75 -30.2 93.05 -46.45 93.7 -51.15 93.5 -55.9 M-78.6 -93.25 L-78.55 -92.0 Q-98.65 -80.8 -111.55 -61.75 L-112.3 -62.55 -113.75 -60.3 Q-111.85 -71.8 -104.9 -81.05 L-103.15 -83.3 Q-93.75 -91.9 -81.35 -93.55 L-78.2 -93.85 -78.6 -93.25 M-89.0 14.2 L-87.05 12.05 Q-74.8 31.7 -55.4 44.75 L-58.0 44.2 Q-82.55 38.65 -89.0 14.2" fill="#d76275" fill-opacity="0.047058824" fill-rule="evenodd" stroke="none"/>
  </g>
</svg>
