<?xml version="1.0" encoding="UTF-8" standalone="no"?>
<svg xmlns:ffdec="https://www.free-decompiler.com/flash" xmlns:xlink="http://www.w3.org/1999/xlink" ffdec:objectType="shape" height="108.5px" width="124.95px" xmlns="http://www.w3.org/2000/svg">
  <g transform="matrix(1.0, 0.0, 0.0, 1.0, 54.35, 78.1)">
    <path d="M41.4 -55.85 L44.05 -55.95 Q64.1 -55.15 61.25 -34.65 67.75 -32.8 69.7 -26.7 73.4 -14.95 61.95 -10.5 61.95 -6.45 61.3 -2.4 57.25 23.8 30.6 24.15 28.7 26.8 25.8 28.2 12.55 34.4 2.0 23.1 -16.4 31.5 -29.9 16.4 -33.35 17.95 -36.85 17.4 -45.25 16.7 -47.85 8.65 -50.05 6.9 -51.6 4.55 -58.05 -5.3 -49.35 -13.85 -51.05 -16.8 -51.55 -20.1 -53.25 -31.85 -42.5 -37.95 -45.95 -49.6 -35.6 -56.35 -34.35 -60.4 -31.5 -63.4 -26.7 -68.45 -19.5 -68.45 -2.2 -87.65 16.9 -68.7 37.05 -77.5 41.4 -55.85 M39.1 -52.05 L38.45 -54.45 Q34.0 -74.3 16.9 -64.1 -2.4 -86.85 -16.85 -63.8 -19.35 -64.55 -22.0 -64.65 -29.6 -64.25 -32.65 -57.0 L-30.8 -55.65 Q-28.5 -55.85 -26.5 -54.75 -25.1 -53.95 -24.7 -52.4 L-31.2 -52.75 -31.25 -52.0 -32.35 -51.15 -34.8 -52.2 Q-43.2 -45.5 -37.6 -36.3 -54.95 -28.9 -44.65 -13.25 -52.45 -8.7 -50.5 -0.35 -46.2 18.1 -29.5 13.65 -16.2 29.35 2.2 20.65 L4.0 22.25 Q16.95 33.4 28.45 21.5 L29.55 20.85 Q62.4 20.7 57.1 -14.4 62.15 -14.8 64.3 -18.45 70.1 -28.3 57.0 -30.6 L55.95 -32.35 Q57.5 -36.1 57.45 -40.05 57.2 -56.0 39.1 -52.05" fill="#2f2f2f" fill-rule="evenodd" stroke="none"/>
    <path d="M39.1 -52.05 Q57.2 -56.0 57.45 -40.05 57.5 -36.1 55.95 -32.35 L57.0 -30.6 Q70.1 -28.3 64.3 -18.45 62.15 -14.8 57.1 -14.4 62.4 20.7 29.55 20.85 L28.45 21.5 Q16.95 33.4 4.0 22.25 L2.2 20.65 Q-16.2 29.35 -29.5 13.65 -46.2 18.1 -50.5 -0.35 -52.45 -8.7 -44.65 -13.25 -54.95 -28.9 -37.6 -36.3 -43.2 -45.5 -34.8 -52.2 L-32.35 -51.15 -31.25 -52.0 -31.2 -52.75 -24.7 -52.4 Q-25.1 -53.95 -26.5 -54.75 -28.5 -55.85 -30.8 -55.65 L-32.65 -57.0 Q-29.6 -64.25 -22.0 -64.65 -19.35 -64.55 -16.85 -63.8 -2.4 -86.85 16.9 -64.1 34.0 -74.3 38.45 -54.45 L39.1 -52.05" fill="#444444" fill-rule="evenodd" stroke="none"/>
  </g>
</svg>
