<?xml version="1.0" encoding="UTF-8" standalone="no"?>
<svg xmlns:ffdec="https://www.free-decompiler.com/flash" xmlns:xlink="http://www.w3.org/1999/xlink" ffdec:objectType="shape" height="126.75px" width="139.55px" xmlns="http://www.w3.org/2000/svg">
  <g transform="matrix(1.0, 0.0, 0.0, 1.0, 62.05, 101.85)">
    <path d="M47.2 -80.45 Q48.3 -83.05 48.3 -85.95 48.3 -88.8 47.3 -91.45 27.35 -106.75 13.15 -85.05 -1.35 -104.6 -17.15 -86.9 -33.2 -91.95 -40.6 -77.05 -64.85 -72.2 -51.55 -50.5 -69.45 -18.75 -39.05 2.55 -39.65 7.9 -35.55 10.95 -30.4 14.85 -25.2 11.05 L-22.25 11.6 -22.9 12.3 -20.45 15.45 Q-10.3 26.6 1.4 15.45 L2.3 15.8 2.4 17.5 Q5.2 20.3 8.95 21.55 19.75 25.1 26.9 16.1 L28.1 17.25 Q46.9 21.05 53.35 3.05 L51.1 2.95 Q55.1 1.45 57.7 -1.8 59.8 -4.5 58.45 -7.4 78.05 -15.75 69.95 -35.45 73.15 -38.85 73.85 -43.45 75.25 -53.05 65.9 -56.3 L66.6 -58.7 Q71.35 -80.85 47.2 -80.45 M70.3 -58.2 L72.95 -55.65 Q81.65 -46.3 73.75 -35.9 77.95 -11.0 56.15 3.2 48.55 23.4 27.3 19.45 25.3 21.65 22.55 22.85 10.7 28.4 1.3 18.95 -0.8 21.05 -3.55 22.0 -17.65 27.25 -25.0 13.9 -28.35 15.9 -32.3 15.55 -41.1 14.25 -41.25 6.15 -73.35 -16.6 -55.9 -51.1 -67.55 -74.2 -43.2 -80.7 L-42.0 -82.25 Q-32.9 -93.45 -18.65 -90.05 -2.65 -108.2 13.3 -90.7 L15.2 -92.5 Q44.2 -115.05 50.9 -83.35 75.9 -82.45 70.3 -58.2" fill="#2f2f2f" fill-rule="evenodd" stroke="none"/>
    <path d="M47.2 -80.45 Q71.35 -80.85 66.6 -58.7 L65.9 -56.3 Q75.25 -53.05 73.85 -43.45 73.15 -38.85 69.95 -35.45 78.05 -15.75 58.45 -7.4 59.8 -4.5 57.7 -1.8 55.1 1.45 51.1 2.95 L53.35 3.05 Q46.9 21.05 28.1 17.25 L26.9 16.1 Q19.75 25.1 8.95 21.55 5.2 20.3 2.4 17.5 L2.3 15.8 1.4 15.45 Q-10.3 26.6 -20.45 15.45 L-22.9 12.3 -22.25 11.6 -25.2 11.05 Q-30.4 14.85 -35.55 10.95 -39.65 7.9 -39.05 2.55 -69.45 -18.75 -51.55 -50.5 -64.85 -72.2 -40.6 -77.05 -33.2 -91.95 -17.15 -86.9 -1.35 -104.6 13.15 -85.05 27.35 -106.75 47.3 -91.45 48.3 -88.8 48.3 -85.95 48.3 -83.05 47.2 -80.45" fill="#444444" fill-rule="evenodd" stroke="none"/>
  </g>
</svg>
