<?xml version="1.0" encoding="UTF-8" standalone="no"?>
<svg xmlns:ffdec="https://www.free-decompiler.com/flash" xmlns:xlink="http://www.w3.org/1999/xlink" ffdec:objectType="shape" height="158.8px" width="173.65px" xmlns="http://www.w3.org/2000/svg">
  <g transform="matrix(1.0, 0.0, 0.0, 1.0, 81.5, 157.9)">
    <path d="M-64.2 -99.9 Q-65.3 -106.65 -61.15 -111.5 -47.8 -127.1 -31.4 -113.7 -31.35 -121.65 -25.85 -127.05 -10.8 -141.8 4.7 -125.4 L7.25 -126.4 Q9.1 -145.4 25.0 -154.5 35.45 -160.35 46.6 -156.1 81.15 -143.15 67.05 -107.4 74.95 -106.95 80.45 -101.3 91.3 -90.3 82.9 -78.65 87.85 -76.35 90.25 -71.65 94.6 -63.25 88.95 -56.15 L87.85 -56.25 Q84.75 -60.3 79.8 -61.95 71.85 -64.45 63.95 -61.4 65.15 -65.4 64.75 -69.45 63.45 -83.35 50.2 -86.75 51.85 -92.15 52.85 -97.7 54.7 -108.15 46.55 -113.3 24.5 -126.95 13.3 -104.35 L14.05 -100.75 13.05 -100.05 10.65 -101.25 Q7.55 -106.9 1.5 -107.75 -18.4 -109.55 -22.25 -89.0 L-21.6 -87.9 -22.95 -86.25 Q-29.25 -91.0 -36.25 -87.8 -50.05 -81.6 -45.85 -67.35 -69.95 -59.75 -66.2 -34.85 -92.75 -48.75 -73.2 -73.85 L-74.35 -76.35 Q-79.75 -92.0 -64.85 -99.15 -76.5 -86.95 -70.25 -71.9 -88.95 -54.05 -69.15 -37.3 -70.65 -60.5 -49.05 -69.35 -49.95 -96.4 -23.9 -90.25 -22.8 -93.95 -21.05 -97.7 -10.25 -121.4 11.7 -106.85 18.35 -119.75 31.65 -125.8 36.0 -125.1 39.95 -123.3 62.3 -113.2 52.65 -88.75 L54.9 -88.1 Q70.5 -82.65 67.35 -66.3 79.5 -68.05 88.1 -59.45 88.75 -61.05 89.0 -62.7 90.35 -72.35 81.25 -77.15 L80.35 -76.75 79.45 -78.65 Q80.65 -80.6 81.25 -82.7 87.05 -102.65 64.3 -105.35 71.2 -119.9 66.15 -134.85 62.3 -146.35 50.9 -150.25 15.1 -162.8 9.35 -124.3 L3.9 -121.65 Q0.9 -125.9 -3.7 -127.65 -29.55 -137.15 -27.75 -106.4 L-29.2 -106.0 -31.85 -108.75 Q-52.55 -128.5 -64.2 -99.9 M43.35 -53.85 Q43.7 -54.2 44.2 -54.2 L45.05 -53.85 Q45.4 -53.55 45.4 -53.05 45.4 -52.55 45.05 -52.2 44.7 -51.9 44.2 -51.9 43.7 -51.9 43.35 -52.2 43.0 -52.55 43.0 -53.05 43.0 -53.55 43.35 -53.85 M51.7 -63.3 Q51.7 -62.7 51.3 -62.3 50.9 -61.9 50.35 -61.9 49.8 -61.9 49.4 -62.3 49.0 -62.7 49.0 -63.3 49.0 -63.9 49.4 -64.3 49.8 -64.7 50.35 -64.7 50.9 -64.7 51.3 -64.3 51.7 -63.9 51.7 -63.3 M34.7 -111.4 Q34.7 -112.1 35.2 -112.55 35.65 -113.05 36.35 -113.05 37.05 -113.05 37.55 -112.55 38.0 -112.1 38.0 -111.4 L37.55 -110.2 Q37.05 -109.75 36.35 -109.75 35.65 -109.75 35.2 -110.2 34.7 -110.7 34.7 -111.4 M0.7 -101.85 L1.0 -101.1 0.7 -100.35 Q0.35 -100.05 -0.1 -100.05 -0.55 -100.05 -0.85 -100.35 -1.2 -100.65 -1.2 -101.1 -1.2 -101.55 -0.85 -101.85 L-0.1 -102.15 0.7 -101.85 M66.4 -50.3 L69.7 -52.2 71.45 -50.8 Q76.6 -45.95 70.85 -41.2 L66.75 -42.85 71.45 -44.2 71.5 -45.5 Q71.3 -50.2 66.4 -50.3 M65.55 -43.6 L64.9 -44.25 Q62.75 -46.85 65.3 -49.35 L64.9 -47.85 Q64.5 -45.55 65.55 -43.6 M2.4 -84.7 Q4.0 -82.85 3.3 -81.65 -7.8 -62.5 -15.15 -83.4 L-11.4 -89.55 Q-12.65 -85.4 -10.8 -82.45 -3.0 -69.85 2.4 -84.7 M-11.05 -89.9 L-10.0 -90.65 Q-5.6 -92.95 -1.8 -89.25 L-2.85 -89.65 -11.05 -89.9 M17.65 -74.35 Q10.35 -90.05 27.95 -98.0 35.05 -101.25 38.7 -95.0 54.4 -67.9 25.65 -66.3 L19.55 -71.95 Q38.0 -61.45 42.4 -82.7 43.55 -88.15 38.65 -90.1 17.15 -98.75 17.65 -74.35 M5.65 -56.35 Q5.65 -52.45 2.8 -49.65 -0.05 -46.9 -4.1 -46.9 -8.15 -46.9 -11.0 -49.65 -13.85 -52.45 -13.85 -56.35 -13.85 -60.25 -11.0 -63.0 -8.15 -65.8 -4.1 -65.8 -0.05 -65.8 2.8 -63.0 5.65 -60.25 5.65 -56.35 M14.95 -63.9 Q14.45 -63.9 14.1 -64.25 13.7 -64.6 13.7 -65.1 13.7 -65.6 14.1 -65.95 14.45 -66.3 14.95 -66.3 15.45 -66.3 15.85 -65.95 L16.2 -65.1 Q16.2 -64.6 15.85 -64.25 15.45 -63.9 14.95 -63.9 M29.85 -53.55 L28.85 -53.8 Q25.1 -51.7 23.6 -48.15 27.7 -46.4 32.25 -48.2 L29.85 -53.55 M3.45 -56.45 Q3.45 -59.3 1.25 -61.3 -1.0 -63.3 -4.15 -63.3 -7.3 -63.3 -9.5 -61.3 -11.75 -59.3 -11.75 -56.45 -11.75 -53.6 -9.5 -51.6 -7.3 -49.6 -4.15 -49.6 -1.0 -49.6 1.25 -51.6 3.45 -53.6 3.45 -56.45 M37.55 -32.15 Q37.25 -32.45 37.25 -32.85 37.25 -33.25 37.55 -33.5 37.8 -33.8 38.2 -33.8 38.6 -33.8 38.9 -33.5 L39.15 -32.85 38.9 -32.15 38.2 -31.9 Q37.8 -31.9 37.55 -32.15 M21.8 -27.9 L22.65 -28.2 23.5 -27.9 23.85 -27.25 Q23.85 -26.85 23.5 -26.55 L22.65 -26.3 21.8 -26.55 Q21.45 -26.85 21.45 -27.25 21.45 -27.65 21.8 -27.9 M28.1 -56.25 L30.25 -55.2 Q37.0 -51.05 33.1 -43.95 L31.2 -43.65 Q17.15 -44.35 28.1 -56.25 M12.85 -31.55 Q12.65 -31.85 12.45 -31.75 0.4 -33.8 9.3 -25.5 3.2 -23.05 3.0 -33.15 8.3 -35.75 12.85 -33.65 L12.85 -31.55 M17.45 -17.45 Q16.95 -17.45 16.6 -17.8 16.25 -18.15 16.25 -18.65 16.25 -19.15 16.6 -19.5 16.95 -19.85 17.45 -19.85 17.95 -19.85 18.3 -19.5 L18.65 -18.65 Q18.65 -18.15 18.3 -17.8 17.95 -17.45 17.45 -17.45 M7.15 -7.9 Q8.25 -10.5 6.95 -13.15 6.05 -15.1 3.85 -15.1 L3.0 -14.5 1.65 -8.05 0.4 -8.45 Q-1.5 -13.6 3.45 -17.05 9.0 -14.45 11.2 -9.4 L10.9 -9.05 Q9.25 -7.6 7.15 -7.9 M36.35 -16.0 Q34.65 -14.25 32.3 -14.25 29.95 -14.25 28.3 -16.0 26.6 -17.75 26.6 -20.25 26.6 -22.75 28.3 -24.5 29.95 -26.25 32.3 -26.25 34.65 -26.25 36.35 -24.5 38.0 -22.75 38.0 -20.25 38.0 -17.75 36.35 -16.0 M35.55 -20.15 Q35.55 -21.55 34.55 -22.55 33.55 -23.55 32.15 -23.55 30.75 -23.55 29.75 -22.55 28.75 -21.55 28.75 -20.15 28.75 -18.75 29.75 -17.75 30.75 -16.75 32.15 -16.75 33.55 -16.75 34.55 -17.75 35.55 -18.75 35.55 -20.15 M62.1 -26.1 L62.4 -25.35 62.1 -24.55 61.3 -24.25 Q60.85 -24.25 60.55 -24.55 60.2 -24.9 60.2 -25.35 60.2 -25.8 60.55 -26.1 60.85 -26.45 61.3 -26.45 61.75 -26.45 62.1 -26.1 M64.75 -29.95 Q64.75 -30.35 65.05 -30.65 L65.8 -30.95 Q66.25 -30.95 66.55 -30.65 L66.85 -29.95 66.55 -29.25 Q66.25 -28.95 65.8 -28.95 65.35 -28.95 65.05 -29.25 64.75 -29.55 64.75 -29.95 M53.8 -43.15 Q52.5 -44.6 50.65 -44.6 48.8 -44.6 47.5 -43.15 46.2 -41.75 46.2 -39.7 46.2 -37.65 47.5 -36.2 48.8 -34.8 50.65 -34.8 52.5 -34.8 53.8 -36.2 55.1 -37.65 55.1 -39.7 55.1 -41.75 53.8 -43.15 M54.6 -15.6 Q53.35 -14.45 51.6 -14.45 49.85 -14.45 48.6 -15.6 47.35 -16.75 47.35 -18.35 47.35 -19.95 48.6 -21.1 49.85 -22.25 51.6 -22.25 53.35 -22.25 54.6 -21.1 55.85 -19.95 55.85 -18.35 55.85 -16.75 54.6 -15.6 M55.3 -44.85 Q57.2 -42.75 57.2 -39.8 57.2 -36.85 55.3 -34.75 53.35 -32.65 50.65 -32.65 47.95 -32.65 46.05 -34.75 44.1 -36.85 44.1 -39.8 44.1 -42.75 46.05 -44.85 47.95 -46.95 50.65 -46.95 53.35 -46.95 55.3 -44.85 M53.6 -17.35 L53.75 -18.9 49.35 -20.55 49.45 -17.15 52.05 -16.45 53.6 -17.35 M44.45 -21.2 L44.75 -20.7 44.45 -20.15 43.75 -19.95 43.05 -20.15 Q42.75 -20.4 42.75 -20.7 42.75 -21.0 43.05 -21.2 43.35 -21.45 43.75 -21.45 L44.45 -21.2 M-24.45 -70.5 Q-21.6 -67.5 -21.6 -63.25 -21.6 -59.0 -24.45 -56.0 -27.35 -53.0 -31.4 -53.0 -35.45 -53.0 -38.3 -56.0 -41.2 -59.0 -41.2 -63.25 -41.2 -67.5 -38.3 -70.5 -35.45 -73.5 -31.4 -73.5 -27.35 -73.5 -24.45 -70.5 M-50.7 -50.5 Q-51.75 -51.55 -53.2 -51.55 -54.65 -51.55 -55.65 -50.5 -56.7 -49.45 -56.7 -48.0 -56.7 -46.55 -55.65 -45.5 -54.65 -44.45 -53.2 -44.45 -51.75 -44.45 -50.7 -45.5 -49.7 -46.55 -49.7 -48.0 -49.7 -49.45 -50.7 -50.5 M-36.25 -68.45 L-36.45 -67.8 Q-36.8 -62.85 -33.55 -58.9 -31.4 -55.95 -28.15 -57.95 -22.65 -61.3 -25.5 -67.45 -30.9 -70.25 -36.25 -68.45 M-54.9 -29.05 L-53.45 -26.45 -54.7 -25.95 -54.9 -29.05 M-57.0 -52.1 Q-55.4 -53.8 -53.1 -53.8 -50.8 -53.8 -49.15 -52.1 -47.55 -50.4 -47.55 -48.0 -47.55 -45.6 -49.15 -43.9 -50.8 -42.2 -53.1 -42.2 -55.4 -42.2 -57.0 -43.9 -58.65 -45.6 -58.65 -48.0 -58.65 -50.4 -57.0 -52.1 M-60.7 -26.85 L-61.85 -27.3 Q-62.45 -28.45 -61.65 -29.75 L-59.7 -33.05 -56.9 -30.85 Q-58.45 -30.85 -59.55 -29.65 -60.7 -28.5 -60.7 -26.85 M-41.85 -25.1 Q-41.45 -25.6 -40.85 -25.6 -40.25 -25.6 -39.85 -25.1 -39.45 -24.6 -39.45 -23.9 -39.45 -23.2 -39.85 -22.7 -40.25 -22.2 -40.85 -22.2 -41.45 -22.2 -41.85 -22.7 -42.25 -23.2 -42.25 -23.9 -42.25 -24.6 -41.85 -25.1 M-47.55 -35.55 Q-47.55 -34.85 -48.0 -34.35 -48.5 -33.9 -49.2 -33.9 -49.9 -33.9 -50.35 -34.35 -50.85 -34.85 -50.85 -35.55 -50.85 -36.25 -50.35 -36.7 -49.9 -37.2 -49.2 -37.2 -48.5 -37.2 -48.0 -36.7 -47.55 -36.25 -47.55 -35.55 M-52.05 -10.6 L-52.45 -7.05 -50.7 -6.3 -49.45 -6.45 Q-48.95 -7.7 -49.75 -8.7 L-50.4 -9.4 -52.05 -10.6 M-40.75 -9.5 Q-41.25 -9.9 -41.25 -10.4 -41.25 -10.9 -40.75 -11.25 -40.25 -11.65 -39.55 -11.65 -38.85 -11.65 -38.35 -11.25 -37.85 -10.9 -37.85 -10.4 -37.85 -9.9 -38.35 -9.5 -38.85 -9.15 -39.55 -9.15 -40.25 -9.15 -40.75 -9.5 M-54.6 -8.6 Q-54.6 -10.35 -53.5 -11.6 -52.45 -12.85 -50.95 -12.85 -49.45 -12.85 -48.35 -11.6 -47.3 -10.35 -47.3 -8.6 -47.3 -6.85 -48.35 -5.6 -49.45 -4.35 -50.95 -4.35 -52.45 -4.35 -53.5 -5.6 -54.6 -6.85 -54.6 -8.6 M-7.05 -37.95 L-9.45 -40.2 -11.85 -38.65 -13.15 -38.65 Q-12.35 -35.2 -9.05 -34.5 L-8.1 -34.35 -7.05 -37.95 M-6.1 -41.05 Q-4.65 -39.5 -4.65 -37.3 -4.65 -35.1 -6.1 -33.55 -7.6 -32.0 -9.65 -32.0 -11.7 -32.0 -13.15 -33.55 -14.65 -35.1 -14.65 -37.3 -14.65 -39.5 -13.15 -41.05 -11.7 -42.6 -9.65 -42.6 -7.6 -42.6 -6.1 -41.05 M-19.95 -26.65 L-19.35 -26.6 -20.45 -29.7 -21.55 -28.85 -19.95 -26.65 M-6.85 -22.1 Q-6.2 -22.1 -5.7 -21.75 -5.25 -21.45 -5.25 -20.95 -5.25 -20.45 -5.7 -20.1 -6.2 -19.8 -6.85 -19.8 -7.5 -19.8 -7.95 -20.1 -8.45 -20.45 -8.45 -20.95 -8.45 -21.45 -7.95 -21.75 L-6.85 -22.1 M-22.3 -0.45 L-21.5 -0.7 -20.65 -0.45 Q-20.35 -0.25 -20.35 0.1 -20.35 0.45 -20.65 0.7 L-21.5 0.9 -22.3 0.7 -22.65 0.1 -22.3 -0.45 M-31.15 -5.95 L-31.15 -3.6 -33.45 -3.6 -33.45 -5.95 -31.15 -5.95 M-23.9 -14.5 Q-23.9 -17.1 -22.15 -18.9 -20.45 -20.75 -18.05 -20.75 -15.65 -20.75 -13.9 -18.9 -12.2 -17.1 -12.2 -14.5 -12.2 -11.9 -13.9 -10.05 -15.65 -8.25 -18.05 -8.25 -20.45 -8.25 -22.15 -10.05 -23.9 -11.9 -23.9 -14.5 M-28.95 -15.2 Q-28.4 -15.2 -28.0 -14.8 -27.65 -14.45 -27.65 -13.9 -27.65 -13.35 -28.0 -12.95 -28.4 -12.6 -28.95 -12.6 -29.5 -12.6 -29.85 -12.95 -30.25 -13.35 -30.25 -13.9 -30.25 -14.45 -29.85 -14.8 -29.5 -15.2 -28.95 -15.2 M-28.65 -25.6 Q-29.2 -25.6 -29.55 -25.95 -29.95 -26.35 -29.95 -26.85 -29.95 -27.35 -29.55 -27.7 -29.2 -28.1 -28.65 -28.1 -28.1 -28.1 -27.7 -27.7 -27.35 -27.35 -27.35 -26.85 -27.35 -26.35 -27.7 -25.95 -28.1 -25.6 -28.65 -25.6 M-36.15 -35.9 L-35.5 -35.6 -35.25 -35.0 Q-35.25 -34.65 -35.5 -34.35 -35.8 -34.1 -36.15 -34.1 L-36.75 -34.35 -37.05 -35.0 -36.75 -35.6 -36.15 -35.9 M-22.55 -46.8 Q-22.55 -46.05 -23.1 -45.5 -23.65 -45.0 -24.4 -45.0 -25.15 -45.0 -25.7 -45.5 -26.25 -46.05 -26.25 -46.8 -26.25 -47.55 -25.7 -48.05 -25.15 -48.6 -24.4 -48.6 -23.65 -48.6 -23.1 -48.05 -22.55 -47.55 -22.55 -46.8 M-17.35 -28.0 Q-17.35 -26.6 -18.2 -25.6 -19.05 -24.6 -20.25 -24.6 -21.45 -24.6 -22.3 -25.6 -23.15 -26.6 -23.15 -28.0 -23.15 -29.4 -22.3 -30.4 -21.45 -31.4 -20.25 -31.4 -19.05 -31.4 -18.2 -30.4 -17.35 -29.4 -17.35 -28.0 M-14.85 -12.95 Q-14.0 -16.75 -17.7 -18.65 L-22.15 -16.7 Q-21.25 -9.65 -15.05 -12.3 L-14.85 -12.95" fill="#2f2f2f" fill-rule="evenodd" stroke="none"/>
    <path d="M-64.2 -99.9 Q-52.55 -128.5 -31.85 -108.75 L-29.2 -106.0 -27.75 -106.4 Q-29.55 -137.15 -3.7 -127.65 0.9 -125.9 3.9 -121.65 L9.35 -124.3 Q15.1 -162.8 50.9 -150.25 62.3 -146.35 66.15 -134.85 71.2 -119.9 64.3 -105.35 87.05 -102.65 81.25 -82.7 80.65 -80.6 79.45 -78.65 L80.35 -76.75 81.25 -77.15 Q90.35 -72.35 89.0 -62.7 88.75 -61.05 88.1 -59.45 79.5 -68.05 67.35 -66.3 70.5 -82.65 54.9 -88.1 L52.65 -88.75 Q62.3 -113.2 39.95 -123.3 36.0 -125.1 31.65 -125.8 18.35 -119.75 11.7 -106.85 -10.25 -121.4 -21.05 -97.7 -22.8 -93.95 -23.9 -90.25 -49.95 -96.4 -49.05 -69.35 -70.65 -60.5 -69.15 -37.3 -88.95 -54.05 -70.25 -71.9 -76.5 -86.95 -64.85 -99.15 L-64.3 -99.5 -64.2 -99.9 M65.3 -49.35 L65.75 -50.25 66.4 -50.3 Q71.3 -50.2 71.5 -45.5 L71.45 -44.2 66.75 -42.85 66.15 -42.7 65.55 -43.6 Q64.5 -45.55 64.9 -47.85 L65.3 -49.35 M-1.8 -89.25 L1.9 -86.7 2.4 -84.7 Q-3.0 -69.85 -10.8 -82.45 -12.65 -85.4 -11.4 -89.55 L-11.15 -90.4 -11.2 -89.85 -11.05 -89.9 -2.85 -89.65 -1.8 -89.25 M19.55 -71.95 L17.8 -73.35 17.65 -74.35 Q17.15 -98.75 38.65 -90.1 43.55 -88.15 42.4 -82.7 38.0 -61.45 19.55 -71.95 M3.45 -56.45 Q3.45 -53.6 1.25 -51.6 -1.0 -49.6 -4.15 -49.6 -7.3 -49.6 -9.5 -51.6 -11.75 -53.6 -11.75 -56.45 -11.75 -59.3 -9.5 -61.3 -7.3 -63.3 -4.15 -63.3 -1.0 -63.3 1.25 -61.3 3.45 -59.3 3.45 -56.45 M29.85 -53.55 L32.25 -48.2 Q27.7 -46.4 23.6 -48.15 25.1 -51.7 28.85 -53.8 L29.85 -53.55 M9.3 -25.5 Q0.4 -33.8 12.45 -31.75 12.65 -31.85 12.85 -31.55 12.85 -29.05 11.8 -27.25 10.75 -25.5 9.3 -25.5 M1.65 -8.05 L3.0 -14.5 3.85 -15.1 Q6.05 -15.1 6.95 -13.15 8.25 -10.5 7.15 -7.9 5.35 -6.05 2.75 -7.05 L1.7 -7.4 1.65 -8.05 M35.55 -20.15 Q35.55 -18.75 34.55 -17.75 33.55 -16.75 32.15 -16.75 30.75 -16.75 29.75 -17.75 28.75 -18.75 28.75 -20.15 28.75 -21.55 29.75 -22.55 30.75 -23.55 32.15 -23.55 33.55 -23.55 34.55 -22.55 35.55 -21.55 35.55 -20.15 M53.8 -43.15 Q55.1 -41.75 55.1 -39.7 55.1 -37.65 53.8 -36.2 52.5 -34.8 50.65 -34.8 48.8 -34.8 47.5 -36.2 46.2 -37.65 46.2 -39.7 46.2 -41.75 47.5 -43.15 48.8 -44.6 50.65 -44.6 52.5 -44.6 53.8 -43.15 M53.6 -17.35 L52.05 -16.45 49.45 -17.15 49.35 -20.55 53.75 -18.9 53.6 -17.35 M-36.25 -68.45 Q-30.9 -70.25 -25.5 -67.45 -22.65 -61.3 -28.15 -57.95 -31.4 -55.95 -33.55 -58.9 -36.8 -62.85 -36.45 -67.8 L-36.25 -68.45 M-50.7 -50.5 Q-49.7 -49.45 -49.7 -48.0 -49.7 -46.55 -50.7 -45.5 -51.75 -44.45 -53.2 -44.45 -54.65 -44.45 -55.65 -45.5 -56.7 -46.55 -56.7 -48.0 -56.7 -49.45 -55.65 -50.5 -54.65 -51.55 -53.2 -51.55 -51.75 -51.55 -50.7 -50.5 M-54.9 -29.05 L-54.7 -25.95 Q-54.9 -24.55 -55.9 -23.75 -56.95 -22.95 -58.15 -23.15 -59.35 -23.35 -60.1 -24.45 -60.85 -25.55 -60.7 -26.85 -60.7 -28.5 -59.55 -29.65 -58.45 -30.85 -56.9 -30.85 L-54.9 -29.05 M-52.05 -10.6 L-50.4 -9.4 -49.75 -8.7 Q-48.95 -7.7 -49.45 -6.45 L-50.7 -6.3 -52.45 -7.05 -52.05 -10.6 M-7.05 -37.95 L-8.1 -34.35 -9.05 -34.5 Q-12.35 -35.2 -13.15 -38.65 L-11.85 -38.65 -9.45 -40.2 -7.05 -37.95 M-19.95 -26.65 L-21.55 -28.85 -20.45 -29.7 -19.35 -26.6 -19.95 -26.65 M-14.85 -12.95 L-15.05 -12.3 Q-21.25 -9.65 -22.15 -16.7 L-17.7 -18.65 Q-14.0 -16.75 -14.85 -12.95" fill="#444444" fill-rule="evenodd" stroke="none"/>
  </g>
</svg>
