<?xml version="1.0" encoding="UTF-8" standalone="no"?>
<svg xmlns:ffdec="https://www.free-decompiler.com/flash" xmlns:xlink="http://www.w3.org/1999/xlink" ffdec:objectType="shape" height="25.95px" width="121.4px" xmlns="http://www.w3.org/2000/svg">
  <g transform="matrix(1.0, 0.0, 0.0, 1.0, 58.35, 6.7)">
    <path d="M0.35 14.95 Q1.85 14.95 2.1 16.05 1.3 17.05 -0.05 17.25 -14.4 19.95 -28.7 19.0 -41.2 19.1 -52.3 14.0 -54.9 12.8 -56.95 10.6 -57.65 9.9 -57.95 9.05 -59.35 4.7 -55.9 1.5 -54.1 -0.2 -51.7 -1.0 -33.6 -6.8 -14.35 -6.7 L-13.75 -5.95 -13.8 -5.65 Q-19.7 -3.6 -26.25 -2.75 L-31.7 -1.3 Q-34.4 -0.45 -36.85 1.15 -37.75 1.8 -38.2 2.8 -39.1 4.9 -37.1 6.4 L-32.65 9.25 Q-30.1 10.6 -27.4 11.25 -13.65 13.75 0.35 14.95 M22.55 -4.65 L28.05 -4.7 Q37.8 -4.75 47.4 -3.0 54.2 -1.95 59.95 1.65 63.0 3.6 63.05 7.25 63.05 8.0 62.6 8.6 59.9 12.45 55.15 13.5 35.2 17.45 14.9 15.85 12.55 15.9 11.35 14.0 12.4 13.0 13.45 12.75 L35.35 7.3 Q38.5 6.5 40.9 4.4 L41.05 3.45 Q40.7 2.8 39.9 2.45 30.9 -1.2 21.15 -3.05 20.75 -4.55 22.55 -4.65" fill="#ff0000" fill-rule="evenodd" stroke="none"/>
  </g>
</svg>
