<?xml version="1.0" encoding="UTF-8" standalone="no"?>
<svg xmlns:ffdec="https://www.free-decompiler.com/flash" xmlns:xlink="http://www.w3.org/1999/xlink" ffdec:objectType="shape" height="217.4px" width="94.45px" xmlns="http://www.w3.org/2000/svg">
  <g transform="matrix(1.0, 0.0, 0.0, 1.0, 50.7, 193.55)">
    <path d="M42.45 -103.55 Q41.7 -99.9 39.15 -97.15 22.5 -79.65 24.15 -57.55 24.5 -52.95 27.15 -48.85 50.65 -13.3 23.7 14.2 18.05 20.05 10.05 22.1 -29.75 30.95 -46.2 -4.95 -53.6 -20.85 -48.8 -37.7 -39.35 -70.5 -6.65 -80.8 5.95 -84.7 9.7 -96.15 11.25 -101.15 5.0 -101.95 -13.3 -104.95 -30.25 -111.65 -49.95 -119.3 -49.8 -141.45 -49.5 -173.95 -23.2 -193.55 -34.1 -171.8 -10.25 -162.6 -0.9 -159.0 8.55 -155.85 50.45 -144.4 42.45 -103.55" fill="url(#gradient0)" fill-rule="evenodd" stroke="none"/>
  </g>
  <defs>
    <radialGradient cx="0" cy="0" gradientTransform="matrix(0.1142, 0.0, 0.0, 0.1142, -0.55, -6.65)" gradientUnits="userSpaceOnUse" id="gradient0" r="819.2" spreadMethod="pad">
      <stop offset="0.0" stop-color="#ffff02"/>
      <stop offset="0.6901960784313725" stop-color="#ff9900"/>
      <stop offset="1.0" stop-color="#ff3300"/>
    </radialGradient>
  </defs>
</svg>
