<?xml version="1.0" encoding="UTF-8" standalone="no"?>
<svg xmlns:ffdec="https://www.free-decompiler.com/flash" xmlns:xlink="http://www.w3.org/1999/xlink" ffdec:objectType="shape" height="224.3px" width="94.7px" xmlns="http://www.w3.org/2000/svg">
  <g transform="matrix(1.0, 0.0, 0.0, 1.0, 51.6, 201.25)">
    <path d="M22.3 -66.65 Q19.8 -61.9 23.35 -57.3 48.25 -25.55 30.05 6.1 21.8 20.45 5.5 22.45 -34.8 27.5 -48.2 -8.75 -57.05 -32.4 -42.75 -53.8 -27.95 -76.1 -3.45 -88.85 4.75 -93.0 0.6 -100.75 -4.2 -109.75 -15.25 -110.75 -35.9 -112.8 -44.7 -130.85 -54.9 -151.6 -42.65 -172.55 -32.5 -189.75 -16.4 -201.25 -15.85 -166.45 22.15 -156.4 53.95 -134.85 37.5 -97.65 30.55 -82.05 22.3 -66.65" fill="url(#gradient0)" fill-rule="evenodd" stroke="none"/>
  </g>
  <defs>
    <radialGradient cx="0" cy="0" gradientTransform="matrix(0.1142, 0.0, 0.0, 0.1142, -0.55, -6.65)" gradientUnits="userSpaceOnUse" id="gradient0" r="819.2" spreadMethod="pad">
      <stop offset="0.0" stop-color="#ffff02"/>
      <stop offset="0.6901960784313725" stop-color="#ff9900"/>
      <stop offset="1.0" stop-color="#ff3300"/>
    </radialGradient>
  </defs>
</svg>
