<?xml version="1.0" encoding="UTF-8" standalone="no"?>
<svg xmlns:ffdec="https://www.free-decompiler.com/flash" xmlns:xlink="http://www.w3.org/1999/xlink" ffdec:objectType="shape" height="164.0px" width="141.45px" xmlns="http://www.w3.org/2000/svg">
  <g transform="matrix(1.0, 0.0, 0.0, 1.0, 74.0, 151.35)">
    <path d="M33.6 -97.75 L36.5 -98.95 33.6 -99.05 33.6 -97.75 M31.2 -135.5 Q37.55 -119.1 33.6 -101.35 44.45 -108.1 54.9 -102.25 77.8 -89.45 58.9 -73.05 61.65 -69.7 61.7 -65.25 61.9 -55.8 53.5 -52.15 54.9 -46.1 54.75 -40.05 53.95 -4.5 19.55 8.0 -23.4 23.45 -42.05 -12.65 -47.2 -12.2 -51.7 -14.65 -86.4 -33.6 -56.5 -61.45 -59.95 -63.45 -63.3 -65.55 -73.65 -72.0 -73.95 -83.25 -75.15 -130.8 -30.7 -111.2 -36.6 -123.15 -28.7 -132.8 0.2 -168.45 31.2 -135.5 M29.9 -99.5 Q19.4 -114.1 5.45 -102.6 4.25 -105.5 1.8 -106.65 -18.6 -117.1 -17.6 -85.3 L-18.25 -84.9 -19.85 -85.05 Q-22.2 -91.95 -27.7 -96.6 -50.35 -116.0 -46.85 -90.8 L-48.2 -90.15 Q-50.1 -94.3 -53.55 -97.05 -57.25 -100.1 -58.35 -96.7 -65.2 -75.5 -38.9 -63.9 -46.5 -59.75 -46.8 -51.9 -48.25 -17.8 -5.85 -25.45 L-2.95 -30.95 Q-1.9 -28.35 -0.2 -26.05 14.5 -5.6 28.65 -25.45 L31.0 -26.1 31.9 -25.35 Q33.0 -25.55 33.95 -26.05 54.6 -36.6 37.0 -57.4 42.4 -57.6 46.4 -60.95 48.2 -62.5 48.45 -64.85 L37.1 -69.65 Q45.85 -71.4 50.45 -78.7 67.25 -105.55 33.5 -94.25 L31.75 -90.35 29.8 -90.35 28.9 -92.25 27.35 -92.1 29.9 -99.5" fill="#1a1a1a" fill-opacity="0.47058824" fill-rule="evenodd" stroke="none"/>
  </g>
</svg>
