<?xml version="1.0" encoding="UTF-8" standalone="no"?>
<svg xmlns:ffdec="https://www.free-decompiler.com/flash" xmlns:xlink="http://www.w3.org/1999/xlink" ffdec:objectType="shape" height="164.85px" width="152.85px" xmlns="http://www.w3.org/2000/svg">
  <g transform="matrix(1.0, 0.0, 0.0, 1.0, 76.95, 152.25)">
    <path d="M-34.7 -12.65 L-35.1 -12.65 -34.9 -12.3 -34.7 -12.65 M-58.0 -65.1 Q-56.85 -66.5 -55.1 -66.25 L-54.6 -62.5 Q-55.15 -62.05 -55.8 -61.8 -60.75 -60.6 -61.55 -65.55 L-60.3 -66.5 -58.45 -64.35 -58.0 -65.1 M26.35 -127.25 Q25.4 -130.8 23.05 -133.55 11.55 -147.0 -3.75 -133.6 L-6.7 -134.25 Q-31.75 -138.6 -31.6 -111.7 L-32.65 -109.1 -34.0 -108.75 -36.25 -112.4 -40.7 -113.45 Q-61.65 -116.1 -66.1 -99.15 -70.75 -97.6 -72.25 -93.4 -76.7 -80.6 -63.65 -72.7 L-63.75 -71.65 Q-76.55 -73.0 -76.9 -85.1 -78.15 -129.7 -35.65 -116.15 L-35.95 -118.55 Q-37.2 -131.7 -27.55 -140.35 L-25.7 -141.75 Q-17.55 -147.3 -8.1 -144.8 -6.3 -147.0 -3.85 -148.15 24.25 -162.3 27.65 -127.5 L26.35 -127.25 M36.95 -119.65 L36.65 -121.55 40.55 -122.4 Q58.2 -125.5 69.55 -112.75 72.95 -107.65 74.6 -101.7 79.65 -83.8 64.95 -72.95 L65.4 -69.1 Q65.5 -62.25 61.15 -56.75 64.65 -49.55 63.95 -41.65 60.45 -3.1 27.3 0.35 L26.55 -0.95 Q20.7 5.2 13.05 8.35 -21.65 22.15 -38.95 -8.85 -50.65 -7.8 -58.1 -16.25 -82.0 -43.25 -53.95 -56.3 L-55.55 -53.65 Q-70.2 -20.8 -30.25 -14.9 -29.75 -12.1 -28.25 -9.9 -10.35 16.65 22.0 -2.6 L22.65 -4.2 Q27.25 -3.75 31.65 -5.1 51.1 -10.35 52.05 -32.4 L53.55 -31.25 Q55.8 -33.5 56.9 -36.25 61.65 -48.65 54.35 -60.0 56.6 -61.85 58.1 -64.4 60.95 -69.3 56.9 -74.4 61.95 -77.8 63.65 -83.5 72.75 -114.85 36.95 -119.65" fill="#1a1a1a" fill-opacity="0.47058824" fill-rule="evenodd" stroke="none"/>
  </g>
</svg>
