<?xml version="1.0" encoding="UTF-8" standalone="no"?>
<svg xmlns:ffdec="https://www.free-decompiler.com/flash" xmlns:xlink="http://www.w3.org/1999/xlink" ffdec:objectType="shape" height="107.4px" width="131.55px" xmlns="http://www.w3.org/2000/svg">
  <g transform="matrix(1.0, 0.0, 0.0, 1.0, 60.0, 98.7)">
    <path d="M42.7 -95.25 L42.6 -96.3 Q42.6 -98.6 44.45 -98.7 46.25 -98.8 46.25 -96.35 46.25 -94.25 44.45 -94.25 43.1 -94.25 42.7 -95.25 M71.15 -43.85 L70.35 -43.7 Q69.3 -43.7 69.1 -44.3 L69.1 -45.05 Q69.1 -46.75 70.35 -47.05 71.55 -47.35 71.55 -45.4 L71.45 -44.05 71.15 -43.85 M59.65 5.8 Q60.9 6.15 60.9 7.05 60.9 8.7 59.55 8.7 58.65 8.7 58.45 7.95 L58.35 7.1 Q58.35 5.5 59.65 5.8 M15.15 3.85 L14.9 3.05 Q14.9 1.9 16.15 1.9 17.35 1.9 17.35 3.05 17.25 4.55 16.3 4.55 15.5 4.55 15.15 3.85 M-43.75 -50.65 Q-43.75 -48.95 -45.3 -48.95 L-46.2 -49.1 -46.3 -49.35 -46.4 -50.05 Q-46.4 -51.9 -45.05 -52.0 -43.75 -52.05 -43.75 -50.65 M-55.85 -71.75 Q-55.85 -71.1 -56.1 -70.8 -56.45 -70.4 -57.4 -70.4 -58.5 -70.4 -59.0 -71.1 L-59.25 -71.85 Q-59.25 -74.05 -57.55 -73.8 -55.85 -73.55 -55.85 -71.75 M-35.1 -11.3 L-35.0 -10.65 -35.2 -9.4 -35.3 -9.2 -36.05 -9.05 -36.75 -9.15 -37.0 -9.4 -37.1 -10.75 Q-37.1 -11.2 -36.6 -11.45 L-35.25 -11.5 -35.1 -11.3 M-57.6 6.1 Q-57.6 7.0 -57.75 7.15 L-58.0 7.4 -58.8 7.6 Q-59.75 7.6 -59.95 6.8 L-60.0 5.9 -60.0 5.4 -59.85 5.15 Q-58.9 4.7 -58.2 5.15 -57.6 5.55 -57.6 6.1" fill="#ffff99" fill-rule="evenodd" stroke="none"/>
  </g>
</svg>
