<?xml version="1.0" encoding="UTF-8" standalone="no"?>
<svg xmlns:ffdec="https://www.free-decompiler.com/flash" xmlns:xlink="http://www.w3.org/1999/xlink" ffdec:objectType="shape" height="110.1px" width="137.45px" xmlns="http://www.w3.org/2000/svg">
  <g transform="matrix(1.0, 0.0, 0.0, 1.0, 62.8, 102.0)">
    <path d="M47.95 -100.25 L47.25 -100.1 46.4 -100.65 46.1 -101.05 Q46.1 -101.8 47.95 -102.0 L48.1 -101.25 47.95 -100.25 M74.65 -47.0 L74.55 -46.35 Q74.65 -46.05 73.8 -46.05 73.25 -46.05 73.15 -46.2 L72.9 -46.5 Q73.25 -48.1 74.4 -47.65 L74.6 -47.55 74.65 -47.0 M62.3 8.1 L61.65 7.95 61.45 7.85 61.35 7.3 61.45 6.7 62.05 6.65 63.0 6.7 Q63.35 6.35 63.35 7.25 63.35 8.1 63.1 7.95 L62.3 8.1 M19.1 6.05 L19.0 6.2 17.5 6.35 17.4 6.25 Q17.25 6.15 17.25 5.65 17.25 5.15 17.85 4.95 L19.0 5.1 Q19.15 4.7 19.15 5.6 L19.1 6.05 M-60.1 -74.85 L-60.7 -74.3 -61.2 -74.35 -61.35 -74.85 -61.25 -75.4 -60.85 -75.45 -60.3 -75.35 -60.1 -74.85 M-48.55 -52.0 L-48.4 -52.25 -47.1 -52.1 -46.8 -51.3 -46.95 -50.85 Q-47.1 -50.6 -47.65 -50.6 L-48.3 -50.75 -48.5 -50.85 -48.55 -51.4 -48.55 -52.0 M-38.85 -9.95 L-38.35 -9.8 -38.15 -9.15 -38.2 -8.6 -38.3 -8.45 -38.85 -8.2 -39.35 -8.4 Q-39.55 -8.5 -39.55 -9.05 L-39.35 -9.8 -38.85 -9.95 M-61.4 6.05 L-61.5 6.45 -61.75 6.7 -62.65 6.7 Q-62.8 6.85 -62.8 6.0 -62.8 5.45 -62.6 5.4 L-62.1 5.3 Q-61.65 5.5 -61.5 5.75 -61.4 5.25 -61.4 6.05" fill="#ffff99" fill-rule="evenodd" stroke="none"/>
  </g>
</svg>
