<?xml version="1.0" encoding="UTF-8" standalone="no"?>
<svg xmlns:ffdec="https://www.free-decompiler.com/flash" xmlns:xlink="http://www.w3.org/1999/xlink" ffdec:objectType="shape" height="318.35px" width="182.35px" xmlns="http://www.w3.org/2000/svg">
  <g transform="matrix(1.0, 0.0, 0.0, 1.0, 280.1, 224.25)">
    <path d="M-210.6 -213.5 Q-210.6 -210.0 -210.85 -209.0 -211.6 -206.35 -214.6 -205.0 -219.0 -208.6 -220.4 -210.35 -222.1 -212.45 -222.1 -214.75 -222.1 -217.45 -221.55 -219.2 -220.9 -221.45 -218.85 -224.25 L-211.15 -218.3 Q-210.6 -217.65 -210.6 -213.5 M-214.45 -208.85 L-214.35 -208.75 -214.3 -208.85 -214.45 -208.85 M-171.6 -177.75 Q-170.7 -173.7 -167.25 -168.75 -164.8 -165.25 -159.85 -159.75 L-150.35 -159.0 Q-149.8 -157.95 -149.7 -157.1 L-149.6 -154.5 Q-149.6 -150.6 -153.6 -143.25 -157.8 -135.6 -158.1 -132.0 -158.6 -124.95 -158.35 -118.0 L-157.2 -110.9 -155.95 -106.05 -154.6 -107.0 Q-153.75 -108.45 -151.5 -110.4 -147.8 -113.65 -143.85 -115.25 L-137.15 -114.5 Q-132.95 -117.0 -130.65 -116.25 L-130.0 -116.8 -128.6 -118.35 -125.85 -122.65 Q-124.3 -125.05 -122.55 -124.1 -120.3 -122.9 -115.6 -116.0 -115.65 -115.8 -115.85 -115.55 L-115.95 -115.4 Q-115.6 -113.8 -115.6 -111.25 L-115.7 -109.45 -116.35 -109.0 Q-117.5 -109.5 -117.9 -110.55 L-118.1 -112.5 -119.4 -113.0 -122.6 -113.5 Q-124.0 -113.5 -137.6 -82.35 L-134.9 -76.5 -129.8 -67.0 -128.35 -67.0 Q-123.65 -58.4 -118.15 -53.65 -116.6 -52.3 -116.15 -50.9 -115.6 -49.15 -115.6 -44.5 -115.6 -40.75 -115.85 -39.25 L-116.7 -39.1 -116.55 -37.6 Q-113.75 -34.8 -109.6 -29.6 -100.75 -18.55 -100.75 -14.75 -100.75 -10.8 -104.0 -7.0 L-110.35 0.0 -111.6 0.0 -111.65 0.1 -111.7 0.15 -112.35 1.0 Q-115.6 -2.5 -117.6 -4.2 L-120.8 -6.45 -122.55 -7.25 -124.1 -7.5 Q-127.95 -7.5 -138.35 1.0 -142.6 4.45 -145.1 6.95 L-147.7 9.85 Q-148.6 11.1 -148.6 11.85 -148.6 13.4 -147.95 15.4 -145.95 19.0 -144.2 22.85 L-143.1 24.5 Q-140.65 28.1 -139.25 31.2 L-138.85 29.0 -137.35 29.0 -136.7 29.45 -136.6 31.25 Q-136.6 33.2 -137.4 36.4 L-137.6 37.25 -137.6 38.0 Q-137.6 39.6 -139.1 41.85 -140.6 44.1 -140.6 44.75 L-140.1 47.3 Q-137.0 45.95 -135.35 45.0 -134.8 45.55 -134.7 46.0 L-134.6 48.35 Q-134.6 53.95 -138.95 62.05 -141.85 67.35 -145.05 70.25 -146.3 72.1 -147.4 72.75 L-147.85 73.25 Q-149.05 74.45 -150.45 74.85 L-153.95 77.1 -154.2 77.25 -154.35 77.3 -154.7 77.5 -162.0 81.65 -167.85 85.0 Q-178.7 90.9 -184.15 92.45 -188.3 94.1 -189.85 94.1 L-207.6 93.85 -209.05 92.75 -211.0 90.95 -216.3 89.0 Q-238.95 87.7 -248.0 69.15 -250.95 66.05 -253.1 62.1 L-258.1 52.0 -258.1 47.0 -256.35 47.0 -255.6 47.9 -255.1 45.9 Q-254.1 42.15 -254.1 40.25 L-254.15 36.6 Q-254.5 34.55 -255.1 33.25 L-255.1 26.0 -253.35 26.0 -252.5 28.5 -248.6 23.55 Q-249.55 19.8 -252.05 13.25 -256.7 1.1 -261.1 -1.5 L-261.4 -1.5 -269.7 0.9 Q-273.85 2.5 -275.9 5.6 L-275.6 6.0 -275.95 6.4 -276.5 6.75 -277.35 9.0 -278.6 9.0 -279.05 8.35 -279.1 6.35 -279.1 5.7 Q-279.7 4.75 -279.95 3.25 L-280.1 -0.5 -279.65 -3.55 Q-279.95 -4.65 -279.85 -5.75 -279.85 -7.4 -278.2 -9.25 L-277.6 -11.45 Q-275.1 -19.9 -275.1 -20.75 L-275.1 -21.15 -276.1 -23.45 Q-277.35 -25.5 -278.15 -29.25 -278.9 -32.75 -279.05 -36.3 L-279.1 -36.75 -279.1 -37.3 -279.1 -37.5 -279.0 -42.8 Q-278.65 -45.1 -276.85 -47.25 L-274.6 -47.0 Q-274.85 -45.55 -274.1 -43.6 -272.7 -45.8 -270.35 -48.5 -264.45 -55.25 -264.1 -60.75 -263.0 -60.75 -261.45 -59.3 -259.2 -57.2 -257.1 -55.9 L-254.15 -55.75 -249.85 -55.75 Q-248.05 -55.9 -245.55 -57.45 L-245.25 -57.65 -243.6 -60.9 Q-242.6 -63.6 -240.7 -64.2 L-240.3 -64.6 -239.9 -64.9 Q-239.35 -66.45 -237.1 -68.15 -234.15 -70.45 -231.6 -70.25 -232.4 -68.75 -234.2 -66.8 -233.55 -66.05 -232.85 -63.8 -232.1 -61.5 -230.6 -60.25 L-231.05 -59.3 -230.85 -59.1 -229.15 -57.35 -228.85 -57.2 Q-225.9 -55.5 -225.6 -55.5 L-218.4 -55.7 -217.8 -55.85 Q-216.05 -60.0 -209.3 -71.0 -205.1 -77.85 -205.1 -84.35 -205.1 -90.95 -210.8 -97.1 -215.75 -102.45 -227.85 -110.25 L-238.85 -110.25 -244.35 -105.0 -246.05 -105.1 Q-247.8 -105.3 -248.1 -105.75 -244.9 -107.65 -241.85 -109.0 L-243.1 -109.5 -241.85 -111.45 -242.1 -111.75 -241.15 -112.1 -241.0 -112.2 -241.1 -113.5 Q-241.1 -114.25 -237.2 -117.5 L-236.05 -118.7 Q-235.85 -120.15 -232.1 -124.5 -228.25 -129.0 -227.5 -129.0 -226.25 -129.0 -224.15 -127.85 L-223.3 -127.4 Q-221.9 -126.8 -220.9 -126.75 L-220.85 -126.75 Q-213.5 -126.75 -207.55 -133.35 L-203.25 -138.1 -201.3 -139.65 -202.1 -146.1 -202.05 -147.7 -201.85 -148.0 -201.4 -148.0 Q-203.25 -150.0 -204.45 -152.05 -206.75 -153.05 -208.1 -159.35 -208.9 -163.1 -209.1 -166.85 -209.1 -168.9 -208.45 -171.75 -207.75 -174.85 -206.85 -176.1 L-204.6 -175.85 Q-204.6 -174.95 -204.95 -173.4 L-203.25 -171.45 -203.1 -171.25 -198.85 -175.7 Q-196.5 -178.5 -193.5 -180.8 -191.55 -182.3 -189.65 -183.3 L-189.4 -183.55 Q-186.1 -186.35 -186.1 -187.75 -186.1 -189.45 -188.2 -190.8 -190.55 -192.3 -191.1 -194.0 -188.7 -194.35 -187.05 -194.0 L-187.05 -194.3 -186.85 -195.0 -185.35 -195.0 Q-184.9 -194.15 -178.45 -188.1 -172.75 -182.75 -171.6 -177.75 M-185.35 -156.75 Q-191.6 -162.1 -191.6 -154.35 -188.65 -148.75 -186.6 -146.2 -188.6 -142.3 -188.6 -136.5 -188.6 -135.1 -187.2 -131.05 -185.7 -126.6 -184.35 -125.25 -191.35 -127.2 -193.1 -123.6 -193.6 -122.55 -193.6 -117.75 L-193.75 -117.1 Q-196.2 -114.85 -198.1 -112.1 L-198.25 -111.85 Q-203.1 -116.2 -210.1 -119.05 -215.45 -121.2 -218.85 -120.75 -222.6 -120.25 -222.6 -116.75 -222.6 -115.25 -214.95 -111.5 -207.8 -108.0 -205.85 -107.75 -207.65 -104.9 -207.5 -103.0 -207.25 -99.95 -201.0 -99.2 L-199.55 -94.1 -199.5 -93.6 -199.1 -92.55 -196.6 -84.6 -193.75 -76.35 Q-195.75 -75.5 -196.5 -73.8 -197.05 -72.55 -197.25 -70.1 L-197.6 -65.75 Q-197.85 -64.2 -199.5 -62.9 -200.45 -62.1 -202.6 -60.7 -206.45 -57.9 -204.35 -53.0 -210.05 -53.7 -216.35 -47.6 -220.5 -43.55 -221.35 -41.6 L-222.35 -41.5 Q-228.4 -41.5 -233.7 -44.2 L-240.4 -48.6 Q-243.05 -50.4 -244.15 -49.15 -245.5 -47.6 -246.6 -40.25 -257.45 -39.65 -258.6 -36.25 -258.9 -35.35 -258.6 -33.3 -258.35 -31.4 -258.85 -30.5 -261.2 -26.2 -264.9 -25.55 L-266.85 -24.95 Q-267.6 -24.3 -267.6 -22.25 -267.6 -19.85 -266.6 -18.5 -264.2 -15.25 -256.85 -15.25 -254.7 -15.25 -253.65 -17.25 L-252.25 -21.35 Q-250.85 -26.05 -246.55 -25.6 L-246.0 -25.35 -245.15 -24.95 Q-247.15 -23.35 -247.55 -20.75 L-247.6 -16.25 Q-248.3 -13.3 -247.65 -10.6 -246.4 -5.25 -239.85 -5.25 L-236.6 -5.65 -234.85 -5.5 Q-234.7 -1.65 -234.25 -0.1 L-234.15 0.2 Q-234.45 1.15 -236.05 3.3 -237.6 5.5 -237.6 6.75 L-230.95 16.5 -228.35 20.2 Q-230.55 21.5 -232.4 23.3 -235.6 26.35 -235.6 28.6 L-233.85 32.05 Q-231.7 35.95 -229.35 39.35 L-228.6 40.4 -229.45 41.3 Q-230.6 42.1 -230.6 43.35 -230.6 44.85 -230.05 46.2 L-229.1 48.25 -231.15 47.25 Q-233.3 46.25 -234.85 46.25 -237.35 46.25 -238.65 47.55 -239.6 48.5 -239.6 49.75 -239.6 50.05 -236.8 53.0 -233.4 56.7 -229.6 59.9 -218.85 68.95 -210.3 69.7 -209.5 71.1 -207.45 71.55 L-207.6 73.1 -207.6 75.6 Q-206.75 77.75 -202.35 77.75 -197.4 77.75 -186.3 71.15 -178.45 69.1 -166.35 60.75 -151.1 50.25 -151.1 46.1 -151.1 44.85 -151.45 44.1 -148.1 39.55 -148.1 37.1 -148.1 26.2 -156.85 36.15 L-157.55 37.0 -157.6 36.85 -157.85 36.0 -159.6 35.55 Q-157.1 31.95 -157.1 29.85 -166.55 10.95 -166.6 13.0 L-166.6 12.45 Q-164.85 10.0 -162.9 6.2 -159.2 -1.0 -158.35 -4.6 L-154.3 -5.2 Q-151.55 -6.2 -150.1 -9.5 -147.15 -16.2 -141.7 -18.65 -137.95 -20.3 -131.8 -20.1 L-128.6 -20.0 Q-126.85 -16.25 -123.85 -16.25 -122.55 -16.25 -121.35 -17.25 -120.1 -18.35 -120.1 -19.85 L-120.3 -22.8 -120.1 -24.6 Q-120.1 -26.95 -122.1 -29.5 -125.4 -33.75 -132.35 -33.75 L-132.55 -33.75 Q-133.25 -34.8 -134.75 -35.25 L-136.6 -35.65 Q-136.1 -37.15 -136.1 -38.25 L-136.2 -39.4 -136.15 -39.5 Q-133.1 -42.65 -133.1 -45.5 -133.1 -46.1 -136.75 -51.2 -140.9 -57.0 -144.85 -61.3 L-145.45 -61.95 -145.6 -62.25 Q-146.95 -65.2 -148.85 -66.25 L-150.6 -66.65 Q-152.3 -67.85 -153.5 -68.1 L-152.1 -75.0 Q-152.1 -76.25 -153.35 -77.4 -154.6 -78.6 -154.6 -79.85 -154.6 -82.95 -150.35 -88.2 -146.1 -93.45 -146.1 -94.85 -146.1 -96.8 -147.15 -97.75 L-147.25 -97.95 -147.5 -98.05 Q-148.55 -98.75 -150.35 -98.75 L-151.1 -98.6 Q-153.7 -98.45 -155.3 -96.05 L-155.65 -95.45 -156.4 -94.75 Q-160.4 -90.75 -161.85 -90.75 -162.05 -90.75 -166.45 -93.0 L-167.45 -95.1 Q-166.4 -99.3 -167.9 -101.1 -168.15 -101.4 -169.35 -102.3 -170.1 -102.85 -170.1 -103.5 L-169.1 -120.55 -168.1 -137.6 Q-168.1 -143.5 -170.5 -146.3 -172.35 -148.45 -175.1 -148.4 L-175.1 -148.75 Q-175.1 -151.7 -177.2 -152.45 -178.9 -153.05 -181.0 -151.9 L-181.05 -151.95 Q-183.05 -154.8 -185.35 -156.75 M-205.35 -168.6 L-205.55 -168.85 -205.25 -168.1 -205.15 -168.3 -205.35 -168.6 M-229.85 -118.7 L-229.4 -119.2 -230.3 -118.85 -229.85 -118.7 M-234.75 -111.75 L-235.55 -111.35 -234.15 -111.75 -234.75 -111.75 M-237.85 -110.75 L-239.1 -110.75 -241.15 -109.3 -237.25 -110.85 -237.4 -110.85 -237.85 -110.75 M-199.85 -146.45 L-199.8 -146.25 -199.8 -146.4 -199.85 -146.45 M-191.8 -104.0 L-191.8 -104.05 -191.75 -104.0 -191.8 -104.0 M-251.9 -112.65 Q-252.6 -110.9 -255.85 -108.75 L-258.1 -109.0 Q-258.1 -110.1 -258.6 -112.45 L-259.1 -116.1 Q-259.1 -117.45 -257.95 -119.25 -256.75 -121.0 -255.35 -121.75 -251.6 -123.75 -251.6 -116.35 -251.6 -113.4 -251.9 -112.65 M-251.55 -88.8 L-253.25 -91.05 Q-255.75 -94.0 -262.1 -93.0 L-262.1 -99.0 Q-258.45 -104.05 -253.15 -100.95 -249.5 -98.8 -246.6 -94.25 L-246.6 -89.0 -247.05 -88.35 Q-247.4 -87.75 -248.85 -87.75 -250.5 -87.75 -251.55 -88.8 M-259.55 -96.3 L-259.6 -95.5 -258.55 -95.4 -259.55 -96.3 M-181.8 -79.3 L-181.9 -79.2 -181.85 -80.75 -181.4 -79.55 -181.8 -79.3 M-116.4 -177.6 Q-114.6 -176.25 -114.6 -173.0 -114.6 -170.5 -117.6 -166.8 -120.0 -163.9 -122.85 -161.75 -125.4 -162.55 -125.95 -164.6 L-126.1 -168.0 Q-126.1 -171.9 -124.3 -174.75 -122.7 -177.25 -120.35 -178.05 -118.05 -178.9 -116.4 -177.6 M-121.75 -116.45 L-122.35 -115.65 -121.6 -116.35 -121.75 -116.45 M-128.85 -107.05 L-130.85 -104.35 -130.85 -103.85 -130.85 -103.75 -128.8 -107.05 -128.85 -107.05 M-97.75 -104.0 L-97.75 -98.0 Q-98.05 -96.9 -100.15 -94.9 L-103.35 -92.0 Q-105.7 -93.65 -106.3 -94.2 -107.1 -94.95 -107.1 -95.75 -107.15 -98.25 -106.0 -100.45 -103.7 -104.95 -97.75 -104.0 M-142.75 42.75 L-142.55 42.25 -142.85 42.35 -142.75 42.75" fill="#ff6600" fill-rule="evenodd" stroke="none"/>
    <path d="M-185.35 -156.75 Q-183.05 -154.8 -181.05 -151.95 L-181.0 -151.9 Q-178.9 -153.05 -177.2 -152.45 -175.1 -151.7 -175.1 -148.75 L-175.1 -148.4 Q-172.35 -148.45 -170.5 -146.3 -168.1 -143.5 -168.1 -137.6 L-169.1 -120.55 -170.1 -103.5 Q-170.1 -102.85 -169.35 -102.3 -168.15 -101.4 -167.9 -101.1 -166.4 -99.3 -167.45 -95.1 L-166.45 -93.0 Q-162.05 -90.75 -161.85 -90.75 -160.4 -90.75 -156.4 -94.75 L-155.65 -95.45 -155.3 -96.05 Q-153.7 -98.45 -151.1 -98.6 L-150.35 -98.75 Q-148.55 -98.75 -147.5 -98.05 L-147.25 -97.95 -147.15 -97.75 Q-146.1 -96.8 -146.1 -94.85 -146.1 -93.45 -150.35 -88.2 -154.6 -82.95 -154.6 -79.85 -154.6 -78.6 -153.35 -77.4 -152.1 -76.25 -152.1 -75.0 L-153.5 -68.1 Q-152.3 -67.85 -150.6 -66.65 L-148.85 -66.25 Q-146.95 -65.2 -145.6 -62.25 L-145.45 -61.95 -144.85 -61.3 Q-140.9 -57.0 -136.75 -51.2 -133.1 -46.1 -133.1 -45.5 -133.1 -42.65 -136.15 -39.5 L-136.2 -39.4 -136.1 -38.25 Q-136.1 -37.15 -136.6 -35.65 L-134.75 -35.25 Q-133.25 -34.8 -132.55 -33.75 L-132.35 -33.75 Q-125.4 -33.75 -122.1 -29.5 -120.1 -26.95 -120.1 -24.6 L-120.3 -22.8 -120.1 -19.85 Q-120.1 -18.35 -121.35 -17.25 -122.55 -16.25 -123.85 -16.25 -126.85 -16.25 -128.6 -20.0 L-131.8 -20.1 Q-137.95 -20.3 -141.7 -18.65 -147.15 -16.2 -150.1 -9.5 -151.55 -6.2 -154.3 -5.2 L-158.35 -4.6 Q-159.2 -1.0 -162.9 6.2 -164.85 10.0 -166.6 12.45 L-166.6 13.0 Q-166.55 10.95 -157.1 29.85 -157.1 31.95 -159.6 35.55 L-157.85 36.0 -157.6 36.85 -157.55 37.0 -156.85 36.15 Q-148.1 26.2 -148.1 37.1 -148.1 39.55 -151.45 44.1 -151.1 44.85 -151.1 46.1 -151.1 50.25 -166.35 60.75 -178.45 69.1 -186.3 71.15 -197.4 77.75 -202.35 77.75 -206.75 77.75 -207.6 75.6 L-207.6 73.1 -207.45 71.55 Q-209.5 71.1 -210.3 69.7 -218.85 68.95 -229.6 59.9 -233.4 56.7 -236.8 53.0 -239.6 50.05 -239.6 49.75 -239.6 48.5 -238.65 47.55 -237.35 46.25 -234.85 46.25 -233.3 46.25 -231.15 47.25 L-229.1 48.25 -230.05 46.2 Q-230.6 44.85 -230.6 43.35 -230.6 42.1 -229.45 41.3 L-228.6 40.4 -229.35 39.35 Q-231.7 35.95 -233.85 32.05 L-235.6 28.6 Q-235.6 26.35 -232.4 23.3 -230.55 21.5 -228.35 20.2 L-230.95 16.5 -237.6 6.75 Q-237.6 5.5 -236.05 3.3 -234.45 1.15 -234.15 0.2 L-234.25 -0.1 Q-234.7 -1.65 -234.85 -5.5 L-236.6 -5.65 -239.85 -5.25 Q-246.4 -5.25 -247.65 -10.6 -248.3 -13.3 -247.6 -16.25 L-247.55 -20.75 Q-247.15 -23.35 -245.15 -24.95 L-246.0 -25.35 -246.55 -25.6 Q-250.85 -26.05 -252.25 -21.35 L-253.65 -17.25 Q-254.7 -15.25 -256.85 -15.25 -264.2 -15.25 -266.6 -18.5 -267.6 -19.85 -267.6 -22.25 -267.6 -24.3 -266.85 -24.95 L-264.9 -25.55 Q-261.2 -26.2 -258.85 -30.5 -258.35 -31.4 -258.6 -33.3 -258.9 -35.35 -258.6 -36.25 -257.45 -39.65 -246.6 -40.25 -245.5 -47.6 -244.15 -49.15 -243.05 -50.4 -240.4 -48.6 L-233.7 -44.2 Q-228.4 -41.5 -222.35 -41.5 L-221.35 -41.6 Q-220.5 -43.55 -216.35 -47.6 -210.05 -53.7 -204.35 -53.0 -206.45 -57.9 -202.6 -60.7 -200.45 -62.1 -199.5 -62.9 -197.85 -64.2 -197.6 -65.75 L-197.25 -70.1 Q-197.05 -72.55 -196.5 -73.8 -195.75 -75.5 -193.75 -76.35 L-196.6 -84.6 -199.1 -92.55 -199.5 -93.6 -199.55 -94.1 -201.0 -99.2 Q-207.25 -99.95 -207.5 -103.0 -207.65 -104.9 -205.85 -107.75 -207.8 -108.0 -214.95 -111.5 -222.6 -115.25 -222.6 -116.75 -222.6 -120.25 -218.85 -120.75 -215.45 -121.2 -210.1 -119.05 -203.1 -116.2 -198.25 -111.85 L-198.1 -112.1 Q-196.2 -114.85 -193.75 -117.1 L-193.6 -117.75 Q-193.6 -122.55 -193.1 -123.6 -191.35 -127.2 -184.35 -125.25 -185.7 -126.6 -187.2 -131.05 -188.6 -135.1 -188.6 -136.5 -188.6 -142.3 -186.6 -146.2 -188.65 -148.75 -191.6 -154.35 -191.6 -162.1 -185.35 -156.75 M-191.8 -104.0 L-191.75 -104.0 -191.8 -104.05 -191.8 -104.0 M-181.8 -79.3 L-181.4 -79.55 -181.85 -80.75 -181.9 -79.2 -181.8 -79.3" fill="#ff9900" fill-rule="evenodd" stroke="none"/>
  </g>
</svg>
