<?xml version="1.0" encoding="UTF-8" standalone="no"?>
<svg xmlns:ffdec="https://www.free-decompiler.com/flash" xmlns:xlink="http://www.w3.org/1999/xlink" ffdec:objectType="shape" height="394.5px" width="204.4px" xmlns="http://www.w3.org/2000/svg">
  <g transform="matrix(1.0, 0.0, 0.0, 1.0, 291.15, 296.4)">
    <path d="M-203.0 -203.7 Q-201.55 -207.0 -199.35 -207.85 L-199.6 -200.1 -199.6 -198.1 -199.4 -195.75 Q-198.4 -194.9 -198.0 -192.85 L-195.0 -187.9 -194.8 -187.65 Q-192.4 -185.55 -188.8 -183.95 L-187.6 -183.85 -187.35 -183.85 -187.25 -183.35 -186.6 -183.1 -186.4 -182.05 Q-186.35 -181.8 -186.9 -181.65 L-186.7 -180.7 -186.35 -180.85 Q-186.0 -180.5 -186.2 -180.0 L-186.4 -179.35 -185.5 -175.35 -184.95 -174.3 -181.1 -170.4 -180.0 -172.2 -179.5 -173.15 -180.1 -176.6 Q-174.55 -175.95 -170.05 -167.25 -166.6 -160.55 -166.6 -157.75 -166.6 -153.75 -168.05 -148.35 L-170.55 -140.2 Q-169.8 -138.7 -168.85 -137.5 L-168.6 -137.25 Q-167.65 -136.45 -164.5 -135.2 L-158.8 -133.3 Q-149.85 -130.5 -148.6 -128.75 L-145.4 -122.9 Q-143.05 -118.75 -141.35 -118.75 -138.2 -118.75 -135.85 -123.7 -134.1 -127.45 -134.1 -129.0 -134.1 -133.1 -141.45 -137.65 -150.15 -143.0 -152.1 -146.5 L-152.4 -146.85 Q-152.4 -147.2 -151.3 -147.25 L-151.1 -148.75 Q-148.3 -148.75 -147.4 -146.6 L-147.15 -146.1 Q-146.0 -145.5 -144.75 -144.5 L-144.6 -144.5 Q-143.2 -144.5 -141.05 -145.15 L-138.55 -147.8 Q-134.55 -151.7 -131.85 -150.1 -129.6 -148.4 -126.5 -144.75 L-125.15 -143.1 Q-121.1 -139.7 -117.6 -133.45 -115.05 -128.9 -113.3 -123.75 L-112.4 -122.5 Q-107.6 -115.9 -107.6 -112.5 -107.6 -111.75 -113.7 -106.8 L-114.4 -105.5 Q-115.85 -103.0 -120.6 -97.7 -124.95 -92.8 -126.8 -89.05 -129.6 -83.3 -129.6 -75.75 L-129.45 -72.4 Q-129.0 -70.65 -126.6 -68.5 -123.95 -69.55 -120.1 -72.0 L-117.85 -74.55 -117.5 -76.35 Q-116.95 -78.8 -117.1 -80.0 -104.25 -82.6 -100.6 -82.25 -101.15 -81.4 -102.6 -80.05 -100.7 -79.05 -98.35 -76.3 -96.05 -73.6 -95.15 -71.45 -93.7 -69.35 -92.55 -66.75 L-91.75 -64.75 -90.05 -61.5 -89.6 -61.25 -89.75 -60.9 -88.5 -58.1 Q-86.85 -54.15 -86.75 -52.75 L-87.8 -51.65 -89.0 -50.75 -89.65 -51.05 -89.6 -49.0 -89.7 -46.85 -90.35 -46.0 -91.6 -46.0 -92.05 -46.85 -92.1 -49.0 -92.05 -51.15 -91.85 -52.0 -90.8 -52.0 -92.2 -53.85 Q-94.6 -57.6 -95.5 -58.5 -97.95 -57.05 -104.65 -48.15 L-105.4 -47.1 -104.3 -49.7 -106.15 -46.75 -108.25 -43.55 -107.4 -44.35 Q-111.6 -38.45 -111.6 -36.6 -111.6 -35.3 -110.45 -34.5 L-107.75 -33.15 Q-103.6 -31.05 -102.6 -26.25 -102.3 -24.5 -102.4 -21.0 L-102.6 -16.1 Q-102.6 -9.0 -102.85 -4.75 L-109.85 -4.25 Q-113.95 -2.65 -117.0 -0.85 -119.9 1.65 -122.4 3.4 L-122.95 4.05 -124.7 6.75 -125.65 9.65 Q-125.55 11.8 -125.85 14.1 L-125.9 16.05 -125.85 16.55 -125.75 17.5 -125.0 19.15 Q-121.6 26.8 -121.6 27.35 -121.6 29.15 -125.2 32.5 L-126.45 33.6 Q-127.6 35.75 -129.45 37.65 L-130.2 40.65 -127.7 39.05 -123.35 36.0 Q-122.8 37.05 -122.7 38.05 L-122.6 40.85 -122.7 42.7 -122.6 42.75 Q-121.7 43.4 -121.2 44.3 -120.6 45.45 -120.6 48.1 -120.6 50.3 -126.25 60.55 L-128.8 65.15 Q-129.45 70.6 -131.9 73.35 -136.4 78.4 -149.45 81.35 L-153.35 83.7 Q-159.55 87.35 -163.2 90.1 L-166.05 92.5 -166.85 93.25 -167.85 93.15 -176.8 93.65 Q-179.3 93.95 -180.45 94.5 L-180.9 94.7 -181.75 95.65 Q-182.0 96.1 -182.85 96.1 -185.8 96.1 -186.75 95.45 L-186.9 95.7 Q-188.75 98.1 -192.85 98.1 L-197.95 97.65 -210.6 96.85 Q-214.65 94.65 -218.6 91.65 L-218.6 92.25 -218.6 92.65 -220.0 93.0 Q-224.55 87.25 -229.85 82.15 L-235.8 77.7 -245.0 70.95 -248.6 70.5 -248.7 70.05 -249.6 70.0 -250.25 67.5 Q-251.7 65.9 -253.35 62.75 L-255.8 57.5 -257.1 56.0 Q-257.1 54.8 -255.3 50.65 L-255.15 50.05 -254.7 48.45 -255.05 41.75 -255.05 39.4 -256.45 33.9 -257.55 32.05 Q-259.25 28.85 -259.8 26.2 -262.15 24.15 -265.1 22.5 -263.95 20.3 -262.1 19.0 -259.75 17.4 -256.35 17.3 -254.1 16.0 -253.1 13.9 L-253.1 13.6 -253.1 13.35 Q-253.1 9.9 -255.3 5.05 L-261.45 -1.65 -269.35 -10.45 -274.9 -13.4 Q-276.2 -14.4 -276.3 -15.9 L-276.1 -20.6 -275.95 -25.75 -276.1 -27.25 -276.0 -31.1 Q-275.55 -33.35 -273.35 -34.0 -272.9 -32.7 -273.2 -30.7 L-273.6 -27.25 -273.4 -26.0 -272.35 -26.0 -270.25 -22.55 -268.1 -25.7 Q-265.1 -29.55 -265.1 -30.5 -265.1 -35.4 -268.75 -39.2 L-270.85 -41.55 -271.05 -41.6 -278.1 -43.0 -278.1 -47.8 Q-278.95 -50.05 -278.25 -52.45 -279.25 -54.3 -279.6 -56.6 L-280.1 -57.75 -280.1 -59.8 -280.3 -61.2 -281.45 -65.0 -281.6 -65.0 Q-281.85 -65.35 -282.05 -65.25 L-282.1 -66.85 -282.05 -68.1 -282.1 -68.5 -282.05 -69.85 Q-281.95 -69.6 -281.85 -69.75 -281.2 -70.1 -278.45 -69.25 L-273.7 -67.65 -265.15 -75.45 -260.0 -80.5 -259.4 -84.65 -258.3 -89.6 -259.1 -92.1 Q-255.5 -92.0 -251.85 -93.85 L-250.6 -95.5 Q-245.65 -101.75 -245.15 -103.8 L-247.8 -107.7 Q-252.75 -114.9 -251.1 -118.25 -250.0 -119.25 -249.4 -120.45 -251.1 -127.3 -251.1 -129.0 L-251.05 -132.45 -251.85 -134.3 Q-253.1 -137.4 -253.1 -139.1 -253.1 -141.6 -252.5 -142.5 L-253.1 -143.35 Q-249.95 -144.75 -245.35 -149.1 L-241.15 -154.45 -234.55 -162.6 -231.85 -167.25 Q-230.85 -169.0 -230.35 -170.9 L-232.45 -176.6 Q-233.6 -179.6 -233.95 -181.4 L-234.4 -182.2 Q-235.35 -184.15 -236.1 -187.85 -235.85 -188.6 -234.35 -188.85 -233.35 -187.85 -233.3 -186.6 L-233.3 -184.85 Q-233.15 -184.25 -232.0 -183.9 L-227.05 -184.2 -221.85 -186.3 Q-221.25 -188.65 -219.15 -190.35 -216.85 -192.25 -213.95 -192.5 -212.1 -194.8 -208.05 -197.2 -205.8 -198.5 -203.95 -199.2 L-204.1 -199.75 Q-204.1 -201.25 -203.0 -203.7 M-202.35 -176.1 Q-201.1 -177.25 -201.1 -178.75 -201.1 -184.6 -205.35 -185.4 -207.05 -185.7 -208.25 -184.55 -209.6 -183.3 -209.6 -180.85 -209.65 -179.3 -209.1 -177.9 -208.0 -175.1 -204.85 -175.1 -203.55 -175.1 -202.35 -176.1 M-170.6 -158.0 L-170.55 -158.05 -170.6 -158.1 -170.6 -158.0 M-213.85 -162.2 L-213.25 -157.1 Q-213.05 -151.15 -220.1 -148.35 -226.6 -145.75 -230.45 -141.7 -235.6 -136.3 -235.6 -128.6 L-235.6 -125.45 Q-235.4 -123.85 -234.15 -122.65 -231.4 -120.05 -219.85 -116.5 L-220.6 -114.65 Q-226.6 -111.25 -229.15 -107.6 -231.6 -104.15 -231.6 -99.35 -231.6 -97.5 -231.25 -96.95 -231.1 -96.65 -230.0 -96.1 -226.8 -94.4 -222.85 -88.5 -223.35 -87.75 -223.85 -86.25 -228.95 -86.3 -230.2 -84.15 -230.6 -83.5 -230.6 -81.1 -230.6 -77.75 -228.6 -73.25 -236.05 -70.75 -236.3 -64.6 -235.35 -57.85 -236.35 -55.5 -245.55 -57.15 -250.05 -56.65 -251.55 -58.3 -255.35 -58.1 -257.6 -58.0 -259.25 -57.05 L-259.1 -57.85 Q-259.1 -59.05 -260.9 -60.95 -262.7 -62.8 -264.85 -63.8 -270.6 -66.55 -270.6 -60.1 -270.65 -58.5 -269.85 -56.75 -268.2 -53.25 -263.85 -53.25 -262.65 -53.25 -261.55 -54.05 L-261.6 -53.75 -261.35 -51.85 Q-260.15 -50.25 -255.35 -50.25 L-253.4 -50.3 -248.05 -40.8 -244.25 -34.2 -244.35 -33.9 Q-246.6 -27.0 -246.6 -22.6 L-246.45 -20.7 Q-247.5 -20.6 -248.25 -20.1 L-249.35 -19.5 -249.6 -14.25 Q-249.9 -11.3 -249.1 -8.6 -247.95 -4.5 -244.55 -3.55 L-246.35 -1.95 Q-249.6 0.95 -249.6 1.5 L-235.8 20.9 Q-237.3 24.1 -237.95 26.85 -239.25 25.45 -241.35 24.95 -243.45 24.45 -244.95 25.6 -246.6 26.85 -246.6 29.5 -246.6 30.6 -244.85 33.25 -243.85 34.85 -242.7 35.75 -243.6 37.45 -243.6 41.35 -243.15 43.4 -241.6 45.5 -238.6 49.75 -233.35 49.75 -231.8 53.55 -229.9 57.0 -217.0 80.75 -194.85 80.75 -191.95 80.75 -184.6 79.35 -175.35 77.55 -167.4 74.8 -144.1 66.8 -144.1 55.0 L-144.15 51.75 Q-141.1 44.6 -141.1 41.0 -141.1 38.4 -141.5 37.6 -142.55 35.55 -146.6 35.25 L-146.6 34.75 -142.85 29.75 Q-141.1 27.4 -141.1 26.5 -141.1 23.8 -139.1 20.1 -137.1 16.4 -137.1 14.5 -137.1 13.05 -137.95 11.8 -139.5 9.55 -143.35 10.0 L-142.05 5.7 Q-141.1 3.0 -141.1 1.6 -140.8 0.1 -141.4 -1.2 -142.4 -3.45 -145.85 -3.7 L-141.85 -6.9 -134.45 -11.95 Q-127.1 -17.1 -127.1 -22.5 -127.1 -24.45 -127.25 -25.65 -126.45 -23.25 -123.35 -23.25 -120.95 -23.25 -119.35 -27.75 -118.1 -31.35 -118.1 -34.5 -118.1 -36.25 -119.9 -38.95 -121.65 -41.55 -123.85 -43.2 -126.3 -45.0 -127.8 -44.35 -129.6 -43.6 -129.6 -39.5 -129.6 -38.35 -128.1 -36.1 -126.6 -33.85 -126.6 -33.1 -127.55 -30.45 -127.6 -28.05 L-127.5 -26.7 -127.7 -27.1 Q-129.3 -29.85 -135.6 -30.25 L-131.15 -39.6 Q-128.1 -45.9 -128.1 -49.35 -128.1 -51.3 -128.4 -52.2 -129.2 -54.75 -131.85 -54.75 -133.9 -54.75 -136.05 -52.0 -138.25 -49.25 -139.35 -49.25 L-141.35 -50.5 Q-143.7 -51.75 -146.85 -51.75 -144.1 -59.15 -145.75 -64.05 L-147.25 -67.5 Q-148.1 -69.45 -148.1 -71.0 -148.1 -76.55 -138.1 -94.45 -133.1 -103.4 -128.1 -111.5 -128.1 -112.65 -128.6 -113.75 -129.6 -115.75 -131.85 -115.75 -140.85 -115.75 -144.9 -106.35 -147.0 -101.5 -148.1 -95.25 -149.1 -96.55 -151.45 -102.95 -154.0 -108.75 -156.85 -108.75 -160.95 -108.75 -162.55 -101.4 L-163.25 -98.0 Q-165.6 -102.5 -165.6 -103.0 -165.6 -105.5 -164.85 -110.95 -164.55 -115.7 -166.6 -118.0 -170.55 -122.95 -177.35 -126.15 L-178.15 -126.5 -178.5 -127.65 Q-185.55 -151.6 -188.85 -151.6 -194.3 -151.6 -194.3 -147.6 L-194.05 -143.85 Q-193.9 -141.5 -194.6 -140.1 -198.5 -145.8 -200.4 -149.3 -203.25 -154.45 -205.1 -160.1 -207.45 -169.05 -208.2 -170.55 -210.85 -175.85 -213.6 -167.1 -214.25 -165.25 -213.85 -162.2 M-248.1 -113.0 L-247.85 -112.65 -248.1 -113.35 -248.1 -113.0 M-254.6 -90.75 L-254.5 -90.85 -254.6 -90.75 M-288.55 -77.4 L-283.6 -74.25 -283.6 -72.75 -282.6 -72.0 Q-282.6 -70.6 -283.85 -70.0 L-286.3 -72.0 -286.5 -72.0 Q-289.9 -72.0 -290.85 -74.25 -291.3 -75.3 -291.1 -75.75 -291.1 -78.55 -288.55 -77.4 M-137.1 -136.55 L-137.3 -136.65 -136.95 -136.25 -137.1 -136.55 M-141.6 -141.75 L-141.7 -141.75 -141.75 -141.75 -141.2 -141.15 -141.45 -141.7 -141.6 -141.75 M-127.65 -7.4 Q-126.95 -5.25 -123.35 -5.25 -121.15 -5.25 -118.6 -8.0 -116.1 -10.7 -116.1 -12.85 -116.1 -18.55 -121.85 -16.15 -124.1 -15.2 -125.8 -13.4 -127.6 -11.5 -127.6 -9.85 -127.95 -8.5 -127.65 -7.4 M-114.85 -60.15 Q-117.5 -59.2 -119.5 -57.35 -121.6 -55.4 -121.6 -53.6 -121.75 -52.1 -121.1 -50.8 -119.85 -48.25 -115.85 -48.25 -115.5 -48.25 -111.9 -52.0 -108.1 -55.9 -108.1 -56.85 -108.1 -59.7 -110.2 -60.5 -112.05 -61.15 -114.85 -60.15 M-124.85 -129.3 Q-127.25 -129.2 -128.8 -127.55 -130.6 -125.7 -130.6 -122.35 -131.05 -120.65 -130.65 -119.15 -129.9 -116.25 -125.85 -116.25 -122.5 -116.25 -120.6 -119.25 -119.1 -121.55 -119.1 -124.1 -119.1 -126.5 -120.9 -127.95 -122.55 -129.35 -124.85 -129.3 M-134.95 72.0 L-134.8 71.5 -135.35 72.0 -136.0 72.55 -134.95 72.0 M-250.85 53.75 L-250.8 53.8 -251.0 53.5 -251.0 53.85 -250.85 53.75" fill="#ff6600" fill-rule="evenodd" stroke="none"/>
    <path d="M-127.7 -236.3 L-127.5 -234.7 Q-127.5 -232.3 -130.3 -228.9 -133.15 -225.5 -135.25 -225.35 L-136.45 -226.1 Q-136.95 -226.7 -136.95 -228.1 -136.95 -230.2 -134.4 -233.35 -131.4 -237.05 -127.9 -236.9 L-127.7 -236.3 M-268.9 -213.55 Q-268.9 -210.0 -270.5 -206.4 -272.3 -202.4 -274.65 -202.4 -276.45 -202.4 -277.2 -204.25 -277.6 -205.25 -277.6 -206.3 -277.6 -209.0 -275.65 -212.5 -273.05 -217.05 -269.2 -216.85 -268.9 -215.65 -268.9 -213.55 M-215.4 -291.75 Q-213.95 -288.6 -213.95 -286.85 L-214.0 -285.15 -214.3 -283.9 -214.55 -283.6 -216.0 -283.35 Q-218.55 -283.35 -220.15 -287.2 -221.3 -289.9 -221.3 -291.65 -221.3 -292.95 -220.4 -294.5 L-218.95 -296.4 Q-217.0 -295.3 -215.4 -291.75 M-228.3 -215.65 L-229.35 -215.35 Q-230.45 -215.8 -230.85 -216.35 -231.4 -217.05 -231.4 -218.55 -231.4 -219.25 -230.5 -220.75 -229.5 -222.4 -228.3 -223.4 L-227.2 -222.65 Q-226.7 -222.05 -226.7 -220.65 -226.7 -218.2 -228.3 -215.65 M-202.35 -176.1 Q-203.55 -175.1 -204.85 -175.1 -208.0 -175.1 -209.1 -177.9 -209.65 -179.3 -209.6 -180.85 -209.6 -183.3 -208.25 -184.55 -207.05 -185.7 -205.35 -185.4 -201.1 -184.6 -201.1 -178.75 -201.1 -177.25 -202.35 -176.1 M-213.85 -162.2 Q-214.25 -165.25 -213.6 -167.1 -210.85 -175.85 -208.2 -170.55 -207.45 -169.05 -205.1 -160.1 -203.25 -154.45 -200.4 -149.3 -198.5 -145.8 -194.6 -140.1 -193.9 -141.5 -194.05 -143.85 L-194.3 -147.6 Q-194.3 -151.6 -188.85 -151.6 -185.55 -151.6 -178.5 -127.65 L-178.15 -126.5 -177.35 -126.15 Q-170.55 -122.95 -166.6 -118.0 -164.55 -115.7 -164.85 -110.95 -165.6 -105.5 -165.6 -103.0 -165.6 -102.5 -163.25 -98.0 L-162.55 -101.4 Q-160.95 -108.75 -156.85 -108.75 -154.0 -108.75 -151.45 -102.95 -149.1 -96.55 -148.1 -95.25 -147.0 -101.5 -144.9 -106.35 -140.85 -115.75 -131.85 -115.75 -129.6 -115.75 -128.6 -113.75 -128.1 -112.65 -128.1 -111.5 -133.1 -103.4 -138.1 -94.45 -148.1 -76.55 -148.1 -71.0 -148.1 -69.45 -147.25 -67.5 L-145.75 -64.05 Q-144.1 -59.15 -146.85 -51.75 -143.7 -51.75 -141.35 -50.5 L-139.35 -49.25 Q-138.25 -49.25 -136.05 -52.0 -133.9 -54.75 -131.85 -54.75 -129.2 -54.75 -128.4 -52.2 -128.1 -51.3 -128.1 -49.35 -128.1 -45.9 -131.15 -39.6 L-135.6 -30.25 Q-129.3 -29.85 -127.7 -27.1 L-127.5 -26.7 -127.6 -28.05 Q-127.55 -30.45 -126.6 -33.1 -126.6 -33.85 -128.1 -36.1 -129.6 -38.35 -129.6 -39.5 -129.6 -43.6 -127.8 -44.35 -126.3 -45.0 -123.85 -43.2 -121.65 -41.55 -119.9 -38.95 -118.1 -36.25 -118.1 -34.5 -118.1 -31.35 -119.35 -27.75 -120.95 -23.25 -123.35 -23.25 -126.45 -23.25 -127.25 -25.65 -127.1 -24.45 -127.1 -22.5 -127.1 -17.1 -134.45 -11.95 L-141.85 -6.9 -145.85 -3.7 Q-142.4 -3.45 -141.4 -1.2 -140.8 0.1 -141.1 1.6 -141.1 3.0 -142.05 5.7 L-143.35 10.0 Q-139.5 9.55 -137.95 11.8 -137.1 13.05 -137.1 14.5 -137.1 16.4 -139.1 20.1 -141.1 23.8 -141.1 26.5 -141.1 27.4 -142.85 29.75 L-146.6 34.75 -146.6 35.25 Q-142.55 35.55 -141.5 37.6 -141.1 38.4 -141.1 41.0 -141.1 44.6 -144.15 51.75 L-144.1 55.0 Q-144.1 66.8 -167.4 74.8 -175.35 77.55 -184.6 79.35 -191.95 80.75 -194.85 80.75 -217.0 80.75 -229.9 57.0 -231.8 53.55 -233.35 49.75 -238.6 49.75 -241.6 45.5 -243.15 43.4 -243.6 41.35 -243.6 37.45 -242.7 35.75 -243.85 34.85 -244.85 33.25 -246.6 30.6 -246.6 29.5 -246.6 26.85 -244.95 25.6 -243.45 24.45 -241.35 24.95 -239.25 25.45 -237.95 26.85 -237.3 24.1 -235.8 20.9 L-249.6 1.5 Q-249.6 0.95 -246.35 -1.95 L-244.55 -3.55 Q-247.95 -4.5 -249.1 -8.6 -249.9 -11.3 -249.6 -14.25 L-249.35 -19.5 -248.25 -20.1 Q-247.5 -20.6 -246.45 -20.7 L-246.6 -22.6 Q-246.6 -27.0 -244.35 -33.9 L-244.25 -34.2 -248.05 -40.8 -253.4 -50.3 -255.35 -50.25 Q-260.15 -50.25 -261.35 -51.85 L-261.6 -53.75 -261.55 -54.05 Q-262.65 -53.25 -263.85 -53.25 -268.2 -53.25 -269.85 -56.75 -270.65 -58.5 -270.6 -60.1 -270.6 -66.55 -264.85 -63.8 -262.7 -62.8 -260.9 -60.95 -259.1 -59.05 -259.1 -57.85 L-259.25 -57.05 Q-257.6 -58.0 -255.35 -58.1 -251.55 -58.3 -250.05 -56.65 -245.55 -57.15 -236.35 -55.5 -235.35 -57.85 -236.3 -64.6 -236.05 -70.75 -228.6 -73.25 -230.6 -77.75 -230.6 -81.1 -230.6 -83.5 -230.2 -84.15 -228.95 -86.3 -223.85 -86.25 -223.35 -87.75 -222.85 -88.5 -226.8 -94.4 -230.0 -96.1 -231.1 -96.65 -231.25 -96.95 -231.6 -97.5 -231.6 -99.35 -231.6 -104.15 -229.15 -107.6 -226.6 -111.25 -220.6 -114.65 L-219.85 -116.5 Q-231.4 -120.05 -234.15 -122.65 -235.4 -123.85 -235.6 -125.45 L-235.6 -128.6 Q-235.6 -136.3 -230.45 -141.7 -226.6 -145.75 -220.1 -148.35 -213.05 -151.15 -213.25 -157.1 L-213.85 -162.2 M-269.05 -186.5 L-269.2 -185.9 -269.4 -185.65 -270.9 -185.4 Q-273.1 -185.4 -275.25 -188.85 -276.95 -191.6 -276.95 -192.5 L-276.9 -194.05 -276.55 -194.85 Q-274.5 -195.05 -271.9 -193.3 -268.9 -191.35 -268.9 -188.7 -268.9 -187.35 -269.05 -186.5 M-98.5 -149.15 Q-97.4 -147.2 -97.4 -145.1 L-97.5 -143.2 -97.75 -141.95 -98.05 -141.65 -99.75 -141.4 Q-102.8 -141.4 -104.1 -145.85 -104.7 -148.05 -104.75 -150.45 -104.75 -152.7 -103.05 -153.4 -99.95 -151.75 -98.5 -149.15 M-124.85 -129.3 Q-122.55 -129.35 -120.9 -127.95 -119.1 -126.5 -119.1 -124.1 -119.1 -121.55 -120.6 -119.25 -122.5 -116.25 -125.85 -116.25 -129.9 -116.25 -130.65 -119.15 -131.05 -120.65 -130.6 -122.35 -130.6 -125.7 -128.8 -127.55 -127.25 -129.2 -124.85 -129.3 M-114.85 -60.15 Q-112.05 -61.15 -110.2 -60.5 -108.1 -59.7 -108.1 -56.85 -108.1 -55.9 -111.9 -52.0 -115.5 -48.25 -115.85 -48.25 -119.85 -48.25 -121.1 -50.8 -121.75 -52.1 -121.6 -53.6 -121.6 -55.4 -119.5 -57.35 -117.5 -59.2 -114.85 -60.15 M-127.65 -7.4 Q-127.95 -8.5 -127.6 -9.85 -127.6 -11.5 -125.8 -13.4 -124.1 -15.2 -121.85 -16.15 -116.1 -18.55 -116.1 -12.85 -116.1 -10.7 -118.6 -8.0 -121.15 -5.25 -123.35 -5.25 -126.95 -5.25 -127.65 -7.4" fill="#ff9900" fill-rule="evenodd" stroke="none"/>
  </g>
</svg>
