<?xml version="1.0" encoding="UTF-8" standalone="no"?>
<svg xmlns:ffdec="https://www.free-decompiler.com/flash" xmlns:xlink="http://www.w3.org/1999/xlink" ffdec:objectType="shape" height="423.45px" width="217.5px" xmlns="http://www.w3.org/2000/svg">
  <g transform="matrix(1.0, 0.0, 0.0, 1.0, 294.1, 327.35)">
    <path d="M-153.25 -148.9 L-154.45 -150.15 Q-159.1 -154.75 -164.6 -153.0 L-164.85 -152.6 -165.05 -153.1 -165.25 -152.9 Q-166.9 -150.95 -168.6 -150.0 -168.85 -150.35 -169.05 -150.25 L-169.1 -151.85 Q-169.1 -153.85 -166.4 -159.3 -163.7 -164.8 -162.6 -165.0 -151.75 -167.35 -147.7 -161.75 L-145.15 -157.55 -144.35 -156.6 -142.85 -156.4 -140.05 -155.65 Q-139.95 -157.15 -139.35 -158.0 L-135.6 -161.85 Q-133.7 -161.35 -131.65 -159.85 L-131.05 -159.85 Q-131.0 -161.15 -130.55 -162.25 L-130.35 -162.55 -129.85 -161.4 Q-127.85 -157.6 -123.35 -156.95 L-123.0 -156.05 -122.7 -154.75 -122.2 -153.8 -115.6 -141.6 -116.35 -140.85 -116.4 -140.9 -115.85 -139.5 -114.6 -135.85 Q-114.6 -134.4 -116.1 -130.65 L-117.2 -127.45 -114.45 -121.8 Q-109.2 -116.85 -106.6 -113.75 -107.95 -112.35 -108.75 -110.1 -104.6 -101.4 -104.6 -100.25 -104.6 -97.7 -113.2 -91.75 -123.2 -84.8 -124.6 -83.0 L-124.6 -74.75 -113.4 -73.05 Q-111.55 -72.0 -109.0 -72.0 -105.8 -72.0 -100.95 -76.9 -99.95 -77.65 -98.9 -78.55 -96.65 -77.4 -94.85 -74.5 -93.7 -72.15 -90.5 -68.4 -86.95 -67.55 -82.55 -62.75 -80.15 -60.1 -78.3 -57.15 -76.6 -54.45 -76.6 -53.6 -76.6 -52.1 -78.7 -49.45 L-78.6 -49.0 -78.75 -48.4 -78.6 -47.0 Q-78.6 -46.65 -80.65 -44.95 L-80.95 -44.5 Q-81.9 -42.0 -86.95 -36.45 -91.9 -30.95 -95.55 -29.5 -96.25 -27.15 -97.35 -25.0 L-98.6 -25.0 -99.05 -26.65 -99.1 -29.1 -99.1 -29.25 -99.25 -31.0 -99.2 -31.0 -99.25 -32.1 -98.95 -33.55 -98.9 -34.15 Q-98.55 -35.65 -97.45 -36.35 -96.4 -38.05 -96.25 -38.7 -99.75 -41.35 -103.15 -48.2 L-104.3 -49.1 -109.95 -45.15 -113.9 -42.65 -113.6 -37.5 Q-113.3 -35.15 -110.35 -32.15 -107.6 -29.3 -107.6 -27.75 L-110.45 -18.6 -111.6 -13.7 -109.65 -11.4 -103.3 -6.15 Q-101.15 -8.4 -99.2 -9.5 L-99.7 -10.9 -101.1 -13.0 -100.4 -13.8 -99.85 -14.25 Q-96.6 -11.75 -96.6 -3.5 -96.6 4.75 -97.6 10.0 L-98.65 10.45 -98.75 10.55 -98.75 11.5 Q-98.75 13.5 -106.05 29.5 L-107.1 31.85 Q-109.25 39.0 -112.35 42.55 -114.95 47.45 -116.35 48.85 L-120.7 49.35 -121.25 49.8 -122.85 51.5 Q-126.65 54.85 -129.4 61.05 L-134.25 71.9 Q-135.8 74.6 -137.95 77.05 L-138.9 79.05 Q-143.7 89.0 -145.85 89.0 L-149.25 88.3 -153.65 87.55 -158.3 89.3 Q-169.05 96.1 -179.85 96.1 L-181.7 95.9 -182.1 95.1 -182.1 94.8 Q-200.95 96.85 -216.55 89.3 L-219.0 89.0 Q-221.3 89.0 -230.85 81.8 -241.45 73.75 -243.6 68.0 L-245.25 63.95 -247.25 60.75 Q-252.7 52.5 -256.7 42.95 L-258.4 38.7 -265.1 29.85 Q-265.1 26.85 -261.05 22.25 L-258.3 19.45 -258.1 17.85 Q-258.1 13.5 -263.1 8.5 L-263.1 -1.0 -262.85 -1.0 -263.1 -2.85 -262.85 -8.0 -261.35 -8.0 -260.2 -3.3 -260.15 -3.1 -259.85 -3.25 Q-258.85 -3.1 -258.3 -2.25 -257.85 -1.6 -257.85 -1.1 L-257.4 -0.9 -251.25 0.4 Q-246.15 -1.15 -242.6 -4.3 -241.1 -6.7 -241.1 -8.0 -241.1 -11.15 -242.35 -14.45 -246.7 -17.05 -247.35 -17.85 -248.15 -18.75 -248.2 -20.1 L-248.1 -23.75 -248.05 -26.35 -249.35 -29.75 Q-251.05 -29.75 -255.45 -25.75 -259.9 -21.75 -264.85 -21.75 -273.85 -21.75 -280.35 -29.9 L-282.75 -31.0 Q-289.35 -33.9 -291.6 -37.0 L-291.65 -37.5 Q-290.9 -41.9 -290.25 -48.4 -289.6 -54.85 -289.6 -57.1 -289.6 -62.5 -292.6 -71.35 L-294.1 -75.75 -294.05 -76.3 -294.0 -76.6 -293.6 -79.8 Q-293.1 -83.45 -293.1 -85.5 L-291.9 -86.2 -291.35 -85.3 -290.0 -83.5 -289.55 -82.45 -287.2 -77.35 -282.3 -72.4 -280.6 -70.5 Q-278.35 -69.5 -275.6 -69.5 -261.95 -69.5 -255.25 -93.05 L-254.5 -95.75 Q-255.15 -97.65 -256.9 -100.35 L-262.1 -108.0 Q-255.8 -112.7 -253.3 -120.65 -251.85 -125.15 -250.1 -134.0 L-250.1 -134.15 -250.55 -134.65 Q-252.1 -136.5 -252.1 -137.85 -252.1 -138.75 -248.75 -142.0 L-247.85 -143.5 Q-245.3 -147.5 -242.0 -151.45 -233.75 -161.35 -226.95 -163.45 -225.85 -165.6 -224.1 -170.0 -224.1 -173.15 -223.8 -174.1 -223.35 -175.7 -221.55 -176.7 L-213.85 -179.2 -212.85 -179.75 Q-206.65 -183.0 -199.6 -185.15 -196.05 -187.95 -189.8 -190.4 -186.65 -191.6 -184.5 -192.2 -183.0 -193.7 -181.85 -195.45 L-181.1 -196.6 -181.1 -196.85 -180.75 -201.7 Q-180.2 -203.7 -179.1 -204.55 -179.1 -206.55 -178.9 -207.05 -178.45 -208.3 -176.35 -208.85 L-175.95 -209.05 Q-175.6 -208.9 -175.6 -207.35 L-175.8 -205.15 -175.6 -205.1 -176.05 -203.55 -175.95 -203.2 Q-175.65 -203.05 -175.6 -201.9 L-175.1 -200.35 -173.6 -195.85 -173.95 -195.45 Q-174.45 -195.05 -175.35 -194.85 -175.8 -193.1 -177.1 -191.15 -178.75 -188.75 -183.15 -184.75 L-189.6 -178.4 Q-192.6 -174.8 -192.6 -171.85 -192.6 -169.65 -186.6 -162.75 L-180.6 -156.0 Q-180.6 -154.1 -182.1 -150.35 -183.6 -146.6 -183.6 -144.75 -183.6 -140.85 -178.05 -137.75 -171.15 -133.9 -157.8 -133.15 L-152.15 -140.8 Q-150.85 -143.5 -150.85 -145.0 -150.85 -146.05 -152.3 -147.8 -151.25 -147.1 -149.35 -147.1 -147.9 -147.1 -146.1 -148.4 -144.1 -149.9 -144.1 -151.75 -144.1 -153.0 -144.6 -153.8 -145.7 -155.6 -148.85 -155.6 -153.6 -155.6 -153.6 -151.35 -153.8 -150.15 -153.35 -149.15 L-153.25 -148.9 M-183.15 -155.3 L-183.1 -155.75 -183.45 -155.95 -183.15 -155.3 M-280.65 -59.5 Q-279.1 -61.55 -279.1 -62.85 -279.1 -67.25 -283.85 -66.15 -285.7 -65.75 -287.1 -64.6 -288.6 -63.45 -288.6 -62.25 -288.6 -60.65 -288.1 -59.6 -287.0 -57.25 -283.85 -57.25 -282.3 -57.25 -280.65 -59.5 M-205.85 -165.1 Q-204.25 -165.1 -202.85 -165.9 -201.1 -166.95 -201.1 -168.85 -201.1 -170.8 -202.6 -172.45 -203.95 -174.0 -205.85 -174.45 -210.6 -175.6 -210.6 -169.75 -210.95 -169.2 -210.55 -167.9 -209.7 -165.1 -205.85 -165.1 M-213.6 -160.85 Q-214.95 -156.35 -219.55 -149.5 L-228.65 -136.8 Q-240.6 -120.2 -240.6 -111.5 -240.6 -108.1 -235.7 -103.8 L-234.05 -102.35 -233.45 -101.4 Q-232.2 -99.7 -228.65 -96.55 L-228.6 -96.5 -228.6 -95.85 Q-230.2 -95.45 -232.35 -94.25 L-235.35 -94.75 Q-239.6 -94.75 -240.25 -88.8 L-245.4 -84.5 -249.85 -80.25 Q-255.85 -72.65 -259.7 -65.9 L-262.25 -60.8 -263.75 -59.25 Q-265.0 -57.25 -264.6 -55.25 -268.15 -54.4 -269.45 -56.45 -270.95 -58.75 -272.85 -58.75 -276.6 -58.75 -276.6 -53.85 -276.2 -50.25 -274.85 -46.9 L-274.65 -46.4 Q-275.6 -45.3 -275.6 -43.35 -275.65 -41.65 -274.85 -40.15 -273.25 -37.25 -268.85 -37.25 -267.25 -37.25 -256.35 -40.0 -244.1 -43.1 -244.1 -44.85 -244.1 -47.15 -244.5 -48.8 L-243.65 -50.85 -242.4 -47.4 Q-240.05 -41.25 -238.85 -40.25 -243.45 -38.75 -244.8 -36.85 -245.6 -35.8 -245.6 -33.5 -245.6 -30.6 -240.4 -27.85 -234.65 -24.85 -233.85 -22.5 -233.5 -21.4 -233.8 -19.05 L-234.15 -15.15 Q-234.05 -12.2 -231.5 -10.45 L-231.45 -10.2 Q-230.85 -6.8 -230.65 -2.25 -233.6 2.85 -233.6 5.1 -233.95 6.45 -233.65 7.6 L-233.2 8.4 -234.5 9.25 -235.35 9.5 -235.35 9.6 -236.1 9.8 Q-239.15 10.6 -239.9 11.1 -241.6 12.2 -241.6 15.0 -241.6 17.65 -237.75 27.05 -238.6 27.95 -238.6 30.35 L-237.1 33.7 Q-235.6 36.8 -235.6 37.5 -235.6 39.4 -238.6 41.55 -241.6 43.75 -241.6 46.5 -241.6 47.15 -232.1 55.4 -225.05 61.5 -221.05 63.75 L-219.2 66.1 -219.95 66.9 Q-220.6 67.85 -220.6 69.5 L-220.35 71.75 Q-219.6 73.75 -216.85 73.75 -213.6 73.75 -211.9 71.65 L-211.55 71.8 -211.6 72.75 Q-211.6 74.95 -207.85 77.75 -193.85 76.65 -188.05 80.05 L-184.55 82.55 Q-182.7 83.75 -180.35 83.75 -175.4 83.75 -170.95 78.5 L-167.9 74.9 Q-166.25 73.25 -164.75 73.25 -162.85 73.25 -161.45 75.0 -160.05 76.75 -156.85 76.75 -149.25 76.75 -144.6 63.05 -141.1 52.6 -141.1 43.0 -134.0 41.5 -130.45 39.85 -126.1 37.8 -126.1 35.1 -126.1 33.55 -127.1 32.75 -124.85 29.05 -122.15 23.75 -114.1 7.95 -114.1 4.6 -114.1 1.2 -115.75 0.2 -117.25 -0.7 -126.1 -3.0 L-122.95 -11.25 Q-120.1 -19.25 -120.1 -21.35 -120.1 -22.5 -121.35 -30.0 -122.6 -35.1 -126.55 -35.4 L-129.05 -35.6 Q-130.1 -35.95 -130.1 -37.5 L-128.35 -45.75 Q-126.95 -51.4 -128.35 -54.0 -118.45 -54.9 -112.15 -57.95 -106.1 -60.95 -106.1 -64.5 -106.1 -71.2 -112.1 -68.45 L-117.45 -65.65 Q-120.65 -64.0 -122.35 -64.0 L-130.35 -63.55 Q-130.1 -64.2 -130.1 -65.1 L-131.15 -66.8 -133.6 -70.0 -131.8 -71.65 Q-131.1 -72.5 -131.1 -74.1 -131.1 -77.05 -133.85 -78.25 L-139.85 -78.45 -141.4 -77.95 -142.6 -80.2 -143.8 -82.5 -141.85 -82.25 Q-139.55 -82.25 -137.85 -83.8 -136.1 -85.35 -136.1 -87.5 L-133.1 -96.85 Q-133.1 -101.3 -136.15 -100.85 -135.75 -103.8 -135.85 -108.5 L-133.55 -105.7 Q-132.4 -104.25 -129.35 -104.25 -125.7 -104.25 -125.05 -108.25 -124.7 -110.5 -125.1 -115.35 L-125.1 -121.2 Q-125.85 -126.75 -129.85 -126.75 L-133.1 -126.5 -133.2 -133.35 -133.4 -134.6 Q-132.05 -135.3 -131.1 -137.4 -130.1 -139.75 -130.1 -141.85 -130.1 -148.15 -136.35 -147.3 -138.75 -146.95 -140.65 -145.6 -142.6 -144.15 -142.6 -142.6 -142.6 -143.25 -139.25 -139.35 -142.1 -138.4 -142.2 -132.9 -141.6 -125.55 -142.1 -124.25 -142.6 -124.5 -143.3 -126.7 -144.45 -128.75 -147.35 -128.75 -152.05 -128.75 -153.9 -120.55 L-155.1 -111.0 -155.6 -111.0 Q-156.55 -111.9 -158.25 -116.05 -160.25 -119.75 -163.35 -119.75 -167.55 -119.75 -169.0 -114.9 L-169.6 -110.3 Q-170.25 -111.8 -171.7 -112.35 L-174.95 -119.4 Q-178.65 -126.75 -180.85 -126.75 -183.8 -126.75 -184.45 -124.35 L-184.6 -121.5 -188.2 -121.5 -188.1 -124.05 Q-188.55 -132.75 -193.85 -132.75 -195.45 -132.75 -196.65 -131.2 L-200.45 -134.6 -200.7 -134.8 -200.7 -135.1 Q-201.05 -139.6 -204.85 -139.6 L-205.15 -139.55 Q-207.1 -142.75 -207.1 -147.1 -206.6 -152.95 -208.5 -161.3 -210.65 -170.8 -213.6 -160.85 M-197.15 -149.5 L-197.1 -151.85 Q-197.1 -158.2 -201.35 -157.35 -203.05 -157.0 -204.25 -155.5 -205.6 -153.9 -205.6 -151.85 -205.7 -150.25 -205.15 -148.85 -204.1 -146.1 -200.85 -146.1 -199.35 -146.1 -198.45 -146.7 L-197.6 -147.35 -197.15 -149.5 M-292.4 -56.85 L-292.2 -56.65 -292.35 -55.65 -292.4 -56.85 M-284.9 -37.0 L-284.7 -36.8 -284.8 -37.0 -284.9 -37.0 M-261.4 -25.65 Q-261.05 -25.85 -260.65 -26.0 L-260.7 -26.0 -261.4 -25.65 M-250.35 -33.4 L-250.5 -33.25 -250.25 -33.25 -250.35 -33.4 M-261.2 -13.8 Q-260.4 -13.7 -259.6 -13.25 -259.6 -11.75 -260.35 -11.0 L-261.6 -11.0 Q-262.1 -11.75 -262.1 -13.75 L-261.2 -13.8 M-235.2 -61.1 L-235.8 -61.55 -235.4 -61.9 -235.2 -61.1 M-242.9 -68.9 L-242.4 -69.6 -243.05 -67.7 -242.9 -68.9 M-157.9 -156.5 L-158.2 -156.9 -158.45 -156.9 -157.9 -156.5 M-117.9 -50.6 L-117.9 -50.45 -117.65 -50.6 -117.9 -50.6 M-100.65 -52.75 Q-98.3 -51.25 -92.85 -51.25 -90.6 -51.25 -88.9 -53.0 -87.1 -54.85 -87.1 -57.5 -87.1 -60.0 -89.5 -61.2 -91.65 -62.25 -94.85 -61.95 -97.95 -61.65 -100.2 -60.25 -102.6 -58.65 -102.6 -56.5 -102.6 -54.0 -100.65 -52.75 M-86.55 -41.0 L-86.95 -40.4 -86.3 -41.0 -86.55 -41.0 M-91.55 -36.9 L-91.8 -36.45 -91.25 -36.9 -90.95 -37.1 -91.45 -37.0 -91.55 -36.9 M-113.1 -32.1 L-113.2 -32.35 -113.2 -32.1 -113.1 -32.1 M-146.55 84.75 L-146.35 84.75 -144.3 82.55 -144.4 82.6 -146.55 84.75 M-169.6 66.0 L-168.9 66.65 Q-171.05 67.95 -173.6 70.5 -178.95 75.75 -180.1 75.75 L-180.8 75.7 Q-179.15 75.2 -175.55 71.9 L-169.6 66.0 M-229.9 45.35 L-230.6 44.75 -230.45 43.9 -229.9 45.35 M-171.05 46.55 L-171.1 46.55 -171.1 46.5 -171.05 46.55 M-261.4 28.5 L-261.1 28.6 -261.05 27.95 -261.4 28.5" fill="#ff6600" fill-rule="evenodd" stroke="none"/>
    <path d="M-128.9 -259.15 L-129.2 -257.85 -129.45 -257.6 -130.9 -257.4 Q-134.2 -257.4 -135.5 -260.6 -136.2 -262.3 -136.2 -264.45 -136.2 -270.3 -132.5 -267.35 -128.85 -264.4 -128.85 -260.95 L-128.9 -259.15 M-212.5 -326.85 Q-211.95 -326.45 -211.95 -325.1 -211.95 -323.45 -214.6 -319.85 -217.05 -316.5 -217.6 -316.4 L-218.85 -317.4 Q-219.3 -318.1 -219.3 -319.6 -219.3 -321.15 -217.35 -323.95 -215.35 -326.8 -213.65 -327.35 L-212.5 -326.85 M-272.5 -275.1 Q-275.55 -270.6 -277.2 -270.4 -278.2 -270.9 -278.45 -271.15 -278.9 -271.7 -278.9 -273.15 -278.9 -275.75 -276.6 -279.05 -273.95 -282.85 -270.4 -283.35 L-269.95 -282.8 Q-269.55 -282.3 -269.55 -281.0 -269.55 -279.4 -272.5 -275.1 M-280.05 -257.85 Q-277.05 -257.85 -274.5 -255.55 -272.2 -253.55 -272.2 -251.8 -272.2 -250.45 -272.4 -250.05 L-273.0 -249.6 -274.65 -249.35 Q-277.15 -249.35 -278.9 -251.95 -280.25 -253.9 -280.25 -255.3 -280.25 -257.4 -280.05 -257.85 M-226.75 -241.5 Q-226.1 -240.25 -226.1 -237.75 L-226.2 -235.1 -226.6 -234.7 -228.4 -234.35 Q-231.45 -234.35 -232.05 -237.55 -232.35 -239.15 -232.05 -240.95 -232.05 -244.3 -230.35 -245.4 -227.55 -243.05 -226.75 -241.5 M-152.3 -147.8 L-153.25 -148.9 -153.35 -149.15 Q-153.8 -150.15 -153.6 -151.35 -153.6 -155.6 -148.85 -155.6 -145.7 -155.6 -144.6 -153.8 -144.1 -153.0 -144.1 -151.75 -144.1 -149.9 -146.1 -148.4 -147.9 -147.1 -149.35 -147.1 -151.25 -147.1 -152.3 -147.8 M-197.15 -149.5 L-197.6 -147.35 -198.45 -146.7 Q-199.35 -146.1 -200.85 -146.1 -204.1 -146.1 -205.15 -148.85 -205.7 -150.25 -205.6 -151.85 -205.6 -153.9 -204.25 -155.5 -203.05 -157.0 -201.35 -157.35 -197.1 -158.2 -197.1 -151.85 L-197.15 -149.5 M-213.6 -160.85 Q-210.65 -170.8 -208.5 -161.3 -206.6 -152.95 -207.1 -147.1 -207.1 -142.75 -205.15 -139.55 L-204.85 -139.6 Q-201.05 -139.6 -200.7 -135.1 L-200.7 -134.8 -200.45 -134.6 -196.65 -131.2 Q-195.45 -132.75 -193.85 -132.75 -188.55 -132.75 -188.1 -124.05 L-188.2 -121.5 -184.6 -121.5 -184.45 -124.35 Q-183.8 -126.75 -180.85 -126.75 -178.65 -126.75 -174.95 -119.4 L-171.7 -112.35 Q-170.25 -111.8 -169.6 -110.3 L-169.0 -114.9 Q-167.55 -119.75 -163.35 -119.75 -160.25 -119.75 -158.25 -116.05 -156.55 -111.9 -155.6 -111.0 L-155.1 -111.0 -153.9 -120.55 Q-152.05 -128.75 -147.35 -128.75 -144.45 -128.75 -143.3 -126.7 -142.6 -124.5 -142.1 -124.25 -141.6 -125.55 -142.2 -132.9 -142.1 -138.4 -139.25 -139.35 -142.6 -143.25 -142.6 -142.6 -142.6 -144.15 -140.65 -145.6 -138.75 -146.95 -136.35 -147.3 -130.1 -148.15 -130.1 -141.85 -130.1 -139.75 -131.1 -137.4 -132.05 -135.3 -133.4 -134.6 L-133.2 -133.35 -133.1 -126.5 -129.85 -126.75 Q-125.85 -126.75 -125.1 -121.2 L-125.1 -115.35 Q-124.7 -110.5 -125.05 -108.25 -125.7 -104.25 -129.35 -104.25 -132.4 -104.25 -133.55 -105.7 L-135.85 -108.5 Q-135.75 -103.8 -136.15 -100.85 -133.1 -101.3 -133.1 -96.85 L-136.1 -87.5 Q-136.1 -85.35 -137.85 -83.8 -139.55 -82.25 -141.85 -82.25 L-143.8 -82.5 -142.6 -80.2 -141.4 -77.95 -139.85 -78.45 -133.85 -78.25 Q-131.1 -77.05 -131.1 -74.1 -131.1 -72.5 -131.8 -71.65 L-133.6 -70.0 -131.15 -66.8 -130.1 -65.1 Q-130.1 -64.2 -130.35 -63.55 L-122.35 -64.0 Q-120.65 -64.0 -117.45 -65.65 L-112.1 -68.45 Q-106.1 -71.2 -106.1 -64.5 -106.1 -60.95 -112.15 -57.95 -118.45 -54.9 -128.35 -54.0 -126.95 -51.4 -128.35 -45.75 L-130.1 -37.5 Q-130.1 -35.95 -129.05 -35.6 L-126.55 -35.4 Q-122.6 -35.1 -121.35 -30.0 -120.1 -22.5 -120.1 -21.35 -120.1 -19.25 -122.95 -11.25 L-126.1 -3.0 Q-117.25 -0.7 -115.75 0.2 -114.1 1.2 -114.1 4.6 -114.1 7.95 -122.15 23.75 -124.85 29.05 -127.1 32.75 -126.1 33.55 -126.1 35.1 -126.1 37.8 -130.45 39.85 -134.0 41.5 -141.1 43.0 -141.1 52.6 -144.6 63.05 -149.25 76.75 -156.85 76.75 -160.05 76.75 -161.45 75.0 -162.85 73.25 -164.75 73.25 -166.25 73.25 -167.9 74.9 L-170.95 78.5 Q-175.4 83.75 -180.35 83.75 -182.7 83.75 -184.55 82.55 L-188.05 80.05 Q-193.85 76.65 -207.85 77.75 -211.6 74.95 -211.6 72.75 L-211.55 71.8 -211.9 71.65 Q-213.6 73.75 -216.85 73.75 -219.6 73.75 -220.35 71.75 L-220.6 69.5 Q-220.6 67.85 -219.95 66.9 L-219.2 66.1 -221.05 63.75 Q-225.05 61.5 -232.1 55.4 -241.6 47.15 -241.6 46.5 -241.6 43.75 -238.6 41.55 -235.6 39.4 -235.6 37.5 -235.6 36.8 -237.1 33.7 L-238.6 30.35 Q-238.6 27.95 -237.75 27.05 -241.6 17.65 -241.6 15.0 -241.6 12.2 -239.9 11.1 -239.15 10.6 -236.1 9.8 L-235.35 9.6 -235.35 9.5 -234.5 9.25 -233.2 8.4 -233.65 7.6 Q-233.95 6.45 -233.6 5.1 -233.6 2.85 -230.65 -2.25 -230.85 -6.8 -231.45 -10.2 L-231.5 -10.45 Q-234.05 -12.2 -234.15 -15.15 L-233.8 -19.05 Q-233.5 -21.4 -233.85 -22.5 -234.65 -24.85 -240.4 -27.85 -245.6 -30.6 -245.6 -33.5 -245.6 -35.8 -244.8 -36.85 -243.45 -38.75 -238.85 -40.25 -240.05 -41.25 -242.4 -47.4 L-243.65 -50.85 -244.5 -48.8 Q-244.1 -47.15 -244.1 -44.85 -244.1 -43.1 -256.35 -40.0 -267.25 -37.25 -268.85 -37.25 -273.25 -37.25 -274.85 -40.15 -275.65 -41.65 -275.6 -43.35 -275.6 -45.3 -274.65 -46.4 L-274.85 -46.9 Q-276.2 -50.25 -276.6 -53.85 -276.6 -58.75 -272.85 -58.75 -270.95 -58.75 -269.45 -56.45 -268.15 -54.4 -264.6 -55.25 -265.0 -57.25 -263.75 -59.25 L-262.25 -60.8 -259.7 -65.9 Q-255.85 -72.65 -249.85 -80.25 L-245.4 -84.5 -240.25 -88.8 Q-239.6 -94.75 -235.35 -94.75 L-232.35 -94.25 Q-230.2 -95.45 -228.6 -95.85 L-228.6 -96.5 -228.65 -96.55 Q-232.2 -99.7 -233.45 -101.4 L-234.05 -102.35 -235.7 -103.8 Q-240.6 -108.1 -240.6 -111.5 -240.6 -120.2 -228.65 -136.8 L-219.55 -149.5 Q-214.95 -156.35 -213.6 -160.85 M-205.85 -165.1 Q-209.7 -165.1 -210.55 -167.9 -210.95 -169.2 -210.6 -169.75 -210.6 -175.6 -205.85 -174.45 -203.95 -174.0 -202.6 -172.45 -201.1 -170.8 -201.1 -168.85 -201.1 -166.95 -202.85 -165.9 -204.25 -165.1 -205.85 -165.1 M-280.65 -59.5 Q-282.3 -57.25 -283.85 -57.25 -287.0 -57.25 -288.1 -59.6 -288.6 -60.65 -288.6 -62.25 -288.6 -63.45 -287.1 -64.6 -285.7 -65.75 -283.85 -66.15 -279.1 -67.25 -279.1 -62.85 -279.1 -61.55 -280.65 -59.5 M-242.9 -68.9 L-243.05 -67.7 -242.4 -69.6 -242.9 -68.9 M-235.2 -61.1 L-235.4 -61.9 -235.8 -61.55 -235.2 -61.1 M-96.75 -174.65 Q-98.85 -167.7 -102.4 -166.35 -103.3 -166.8 -103.65 -167.35 -104.1 -168.1 -104.1 -169.55 -104.1 -172.35 -102.6 -174.55 -100.65 -177.4 -97.1 -176.9 L-96.75 -174.65 M-100.65 -52.75 Q-102.6 -54.0 -102.6 -56.5 -102.6 -58.65 -100.2 -60.25 -97.95 -61.65 -94.85 -61.95 -91.65 -62.25 -89.5 -61.2 -87.1 -60.0 -87.1 -57.5 -87.1 -54.85 -88.9 -53.0 -90.6 -51.25 -92.85 -51.25 -98.3 -51.25 -100.65 -52.75 M-171.05 46.55 L-171.1 46.5 -171.1 46.55 -171.05 46.55 M-229.9 45.35 L-230.45 43.9 -230.6 44.75 -229.9 45.35 M-169.6 66.0 L-175.55 71.9 Q-179.15 75.2 -180.8 75.7 L-180.1 75.75 Q-178.95 75.75 -173.6 70.5 -171.05 67.95 -168.9 66.65 L-169.6 66.0" fill="#ff9900" fill-rule="evenodd" stroke="none"/>
  </g>
</svg>
