<?xml version="1.0" encoding="UTF-8" standalone="no"?>
<svg xmlns:ffdec="https://www.free-decompiler.com/flash" xmlns:xlink="http://www.w3.org/1999/xlink" ffdec:objectType="shape" height="155.6px" width="87.5px" xmlns="http://www.w3.org/2000/svg">
  <g transform="matrix(1.0, 0.0, 0.0, 1.0, 38.45, 137.25)">
    <path d="M8.35 -136.5 Q9.05 -135.75 9.05 -134.8 L9.05 -134.5 Q11.7 -133.3 13.95 -127.05 16.25 -120.55 16.25 -115.95 16.8 -110.1 16.65 -106.35 21.75 -105.8 24.8 -100.8 27.55 -96.3 27.55 -90.2 27.55 -87.7 26.4 -84.0 L25.6 -81.8 27.5 -81.95 Q31.9 -81.95 36.7 -75.1 41.2 -68.65 41.2 -64.05 43.15 -63.1 45.15 -61.3 49.05 -57.7 49.05 -53.2 49.05 -52.15 47.6 -47.35 46.05 -42.1 44.9 -40.6 47.55 -38.7 48.3 -36.8 48.9 -35.25 48.9 -31.65 48.9 -27.2 44.9 -20.3 L40.85 -13.3 Q40.85 -13.2 42.2 -11.05 43.5 -8.7 43.5 -7.9 43.5 -2.7 39.8 4.0 34.85 12.9 27.0 12.9 L23.15 13.7 20.0 14.45 19.7 14.45 17.8 15.4 Q13.6 17.4 11.7 17.65 L3.3 18.35 Q0.75 18.35 -10.3 14.85 -20.1 11.75 -23.4 10.35 -30.2 7.3 -33.5 4.15 -38.4 -0.55 -38.4 -7.3 -38.4 -10.65 -37.55 -13.55 -35.75 -19.75 -30.65 -23.3 L-35.8 -27.9 Q-38.45 -31.1 -38.45 -35.1 -38.45 -38.85 -37.4 -41.1 -35.55 -44.95 -30.4 -46.9 -31.65 -48.25 -34.0 -53.15 -36.7 -58.75 -36.7 -61.35 L-36.5 -64.15 Q-36.15 -67.2 -35.25 -69.8 -32.35 -77.9 -25.05 -77.9 L-25.0 -77.9 Q-25.4 -79.05 -25.4 -80.2 L-24.8 -84.85 Q-23.25 -89.4 -18.65 -89.4 L-15.6 -88.9 -14.7 -91.2 Q-13.7 -93.75 -13.7 -94.5 -13.7 -102.15 -8.75 -108.0 L-5.35 -111.5 Q-3.8 -113.0 -3.8 -113.65 -3.8 -114.25 -4.25 -115.45 L-4.75 -117.2 -4.7 -120.4 Q-4.45 -124.15 -3.6 -127.3 -0.9 -137.25 6.75 -137.25 7.65 -137.25 8.35 -136.5" fill="#675821" fill-opacity="0.42352942" fill-rule="evenodd" stroke="none"/>
  </g>
</svg>
