<?xml version="1.0" encoding="UTF-8" standalone="no"?>
<svg xmlns:ffdec="https://www.free-decompiler.com/flash" xmlns:xlink="http://www.w3.org/1999/xlink" ffdec:objectType="shape" height="55.4px" width="47.2px" xmlns="http://www.w3.org/2000/svg">
  <g transform="matrix(1.0, 0.0, 0.0, 1.0, 23.5, 54.3)">
    <path d="M-10.9 -10.8 Q-13.25 -12.05 -14.05 -12.7 -17.35 -15.35 -18.95 -17.3 -21.15 -20.1 -22.05 -22.0 -22.85 -23.55 -23.0 -25.3 -23.45 -27.3 -23.45 -29.65 L-23.4 -31.25 -23.5 -32.05 -23.4 -31.75 -22.75 -35.05 Q-22.45 -37.2 -21.5 -39.2 -20.15 -42.25 -16.9 -46.05 -16.95 -45.65 -17.3 -45.25 L-17.4 -45.05 -15.75 -46.85 -12.25 -50.15 -12.0 -50.35 Q-11.15 -50.75 -10.4 -51.1 L-10.25 -51.15 -9.65 -51.55 Q-7.6 -52.75 -6.2 -52.65 -2.25 -54.15 2.1 -54.3 L3.6 -54.2 3.75 -54.15 6.35 -53.65 6.6 -53.65 9.25 -53.2 14.55 -50.6 16.65 -49.15 17.65 -47.8 17.6 -47.8 17.95 -47.35 18.6 -46.45 19.75 -43.8 21.65 -39.3 22.85 -35.35 22.9 -35.1 22.95 -35.05 23.45 -31.55 23.7 -30.7 Q23.7 -29.85 22.85 -27.5 L22.75 -27.3 Q22.7 -26.05 22.15 -25.1 L21.4 -23.85 21.25 -23.85 19.35 -20.2 15.7 -15.15 15.65 -15.1 14.7 -13.9 12.65 -12.0 11.55 -11.15 11.45 -11.0 9.6 -9.1 8.35 -8.4 8.3 -8.35 7.9 -8.05 7.2 -7.9 7.1 -7.8 7.0 -7.75 6.8 -7.5 Q6.55 -7.1 6.7 -6.65 L6.65 -6.4 6.45 -4.75 6.4 -2.9 6.4 -1.55 6.35 -1.5 5.9 -1.05 5.65 -0.55 5.05 -0.2 4.95 0.1 4.35 -0.5 3.85 -1.1 3.6 -1.5 3.55 -1.75 3.5 -1.9 3.4 -2.55 3.35 -2.65 3.35 -2.7 3.35 -2.95 3.3 -4.35 3.2 -6.25 3.15 -6.85 2.95 -6.85 2.35 -6.85 2.4 -1.5 2.35 -1.45 2.3 -1.3 2.25 -1.1 2.25 -1.05 2.1 -0.7 1.9 -0.55 1.8 -0.15 1.1 0.1 Q0.75 0.1 0.45 -0.4 L0.2 -0.7 -0.15 -1.0 -0.3 -1.1 -0.35 -1.25 -0.45 -1.45 -0.35 -1.55 -0.35 -1.7 -0.6 -5.9 -0.7 -6.3 -0.85 -6.65 -0.9 -6.8 -1.05 -6.8 -1.4 -6.8 -1.5 -6.8 -1.55 -6.8 -1.55 -6.6 -1.55 -6.4 -1.55 -6.35 -1.6 -5.9 -1.45 -3.0 -1.45 -1.7 -1.45 -1.5 -1.35 -1.05 -1.4 -1.05 -1.55 -1.15 -2.3 0.2 -3.3 -0.5 -3.75 -0.75 -4.0 -1.15 -4.65 -5.6 -4.65 -6.65 -4.65 -6.7 -4.7 -6.7 -4.7 -6.8 -4.7 -7.15 -4.75 -7.35 -4.8 -7.25 -5.1 -7.75 -5.45 -8.2 -5.65 -8.35 -6.2 -8.4 -9.1 -9.8 -9.7 -10.1 -10.7 -10.65 -10.9 -10.8 M18.55 -44.4 L18.4 -44.7 18.35 -44.65 18.4 -44.6 18.55 -44.4 M6.35 -11.3 L7.5 -11.1 Q8.9 -11.2 9.7 -12.1 L9.7 -12.15 10.15 -13.15 10.3 -13.7 10.45 -15.4 10.65 -17.4 10.1 -18.4 9.95 -18.65 7.7 -17.2 4.3 -15.0 Q4.4 -14.5 4.85 -13.5 L5.1 -12.85 5.5 -12.15 6.25 -11.55 6.4 -11.45 6.05 -11.45 6.35 -11.3 M6.35 -6.7 L6.35 -6.6 6.45 -5.75 6.45 -6.45 6.45 -6.7 6.35 -6.7 M0.7 -12.15 L0.5 -11.45 0.2 -10.65 0.1 -10.1 -0.15 -9.3 -0.3 -8.65 0.1 -8.75 1.15 -9.05 1.3 -9.5 1.25 -10.75 0.95 -12.15 0.75 -12.25 0.7 -12.15 M3.1 -11.05 L2.65 -12.0 2.4 -11.45 2.3 -11.45 2.25 -11.0 2.25 -10.9 2.25 -9.2 3.7 -9.6 3.15 -11.0 3.1 -11.05 M4.1 -1.7 L3.95 -1.85 3.95 -1.75 4.1 -1.7 M4.95 -0.85 L5.25 -1.25 4.65 -1.1 4.95 -0.85 M-4.25 -11.45 Q-3.75 -11.5 -3.15 -11.85 L-2.75 -12.15 -1.7 -13.6 -1.0 -14.95 Q-2.0 -15.15 -5.35 -16.9 L-8.1 -18.35 -7.95 -17.8 -7.7 -15.5 Q-7.6 -14.3 -7.15 -13.3 L-6.35 -12.15 -5.5 -11.6 -5.35 -11.55 -4.6 -11.45 -4.25 -11.4 -4.15 -11.4 -3.75 -11.45 -4.25 -11.45 M-3.85 -2.1 L-3.8 -1.9 -3.8 -1.95 -3.8 -2.1 -3.85 -2.1 M-2.8 -0.65 L-2.7 -0.7 -2.95 -0.7 -2.8 -0.65 M-3.7 -1.3 L-3.75 -1.3 -3.75 -1.25 -3.7 -1.3" fill="#472205" fill-rule="evenodd" stroke="none"/>
    <path d="M6.4 -11.45 L6.25 -11.55 5.5 -12.15 5.1 -12.85 4.85 -13.5 Q4.4 -14.5 4.3 -15.0 L7.7 -17.2 9.95 -18.65 10.1 -18.4 10.65 -17.4 10.45 -15.4 10.3 -13.7 10.15 -13.15 9.7 -12.15 9.7 -12.1 Q8.9 -11.2 7.5 -11.1 L6.35 -11.3 6.4 -11.45 M3.1 -11.05 L3.15 -11.0 3.7 -9.6 2.25 -9.2 2.25 -10.9 2.25 -11.0 2.3 -11.45 2.4 -11.45 2.65 -12.0 3.1 -11.05 M0.7 -12.15 L0.75 -12.25 0.95 -12.15 1.25 -10.75 1.3 -9.5 1.15 -9.05 0.1 -8.75 -0.3 -8.65 -0.15 -9.3 0.1 -10.1 0.2 -10.65 0.5 -11.45 0.7 -12.15 M-4.25 -11.4 L-4.6 -11.45 -5.35 -11.55 -5.5 -11.6 -6.35 -12.15 -7.15 -13.3 Q-7.6 -14.3 -7.7 -15.5 L-7.95 -17.8 -8.1 -18.35 -5.35 -16.9 Q-2.0 -15.15 -1.0 -14.95 L-1.7 -13.6 -2.75 -12.15 -3.15 -11.85 Q-3.75 -11.5 -4.25 -11.45 L-4.25 -11.4" fill="#ffff00" fill-rule="evenodd" stroke="none"/>
    <path d="M15.7 -15.15 L15.7 -14.95 Q15.7 -13.95 14.15 -12.15 L12.4 -10.45 9.7 -8.2 7.4 -6.6 7.45 -5.4 7.8 -1.45 Q7.8 -1.1 6.6 -0.15 5.35 0.9 4.75 0.9 3.9 0.9 2.8 -0.55 L1.1 1.1 Q0.75 1.1 -0.2 0.4 L-1.05 -0.4 Q-1.85 0.95 -2.5 0.95 -3.35 0.95 -4.35 -0.2 -5.35 -1.25 -5.6 -2.2 L-6.0 -5.3 -5.85 -6.0 Q-5.85 -6.55 -6.9 -6.7 -7.95 -6.85 -9.55 -7.55 -11.05 -8.0 -12.1 -8.85 -13.2 -9.8 -13.2 -10.5 -13.2 -11.7 -12.0 -10.85 L-11.25 -10.35 -11.3 -10.5 -10.9 -10.8 -10.7 -10.65 -9.7 -10.1 -9.1 -9.8 -6.2 -8.4 -5.65 -8.35 -5.45 -8.2 -5.1 -7.75 -4.8 -7.25 -4.75 -7.35 -4.7 -7.15 -4.7 -6.8 -4.7 -6.7 -4.65 -6.7 -4.65 -6.65 -4.65 -5.6 -4.0 -1.15 -3.75 -0.75 -3.3 -0.5 -2.3 0.2 -1.55 -1.15 -1.4 -1.05 -1.35 -1.05 -1.45 -1.5 -1.45 -1.7 -1.45 -3.0 -1.6 -5.9 -1.55 -6.35 -1.55 -6.4 -1.5 -6.8 -1.4 -6.8 -1.05 -6.8 -0.9 -6.8 -0.85 -6.65 -0.7 -6.3 -0.6 -5.9 -0.35 -1.7 -0.35 -1.55 -0.45 -1.45 -0.35 -1.25 -0.3 -1.1 -0.15 -1.0 0.2 -0.7 0.45 -0.4 Q0.75 0.1 1.1 0.1 L1.8 -0.15 1.9 -0.55 2.1 -0.7 2.25 -1.05 2.25 -1.1 2.3 -1.3 2.35 -1.45 2.4 -1.5 2.35 -6.85 2.95 -6.85 3.15 -6.85 3.2 -6.25 3.3 -4.35 3.35 -2.95 3.35 -2.7 3.35 -2.65 3.4 -2.55 3.5 -1.9 3.55 -1.75 3.6 -1.5 3.85 -1.1 4.35 -0.5 4.95 0.1 5.05 -0.2 5.65 -0.55 5.9 -1.05 6.35 -1.5 6.4 -1.55 6.4 -2.9 6.45 -4.75 6.65 -6.4 6.7 -6.65 Q6.55 -7.1 6.8 -7.5 L7.0 -7.75 7.1 -7.8 7.2 -7.9 7.9 -8.05 8.3 -8.35 8.35 -8.4 9.6 -9.1 11.45 -11.0 11.55 -11.15 12.65 -12.0 14.7 -13.9 15.65 -15.1 15.7 -15.15 M6.35 -6.7 L6.45 -6.7 6.45 -6.45 6.45 -5.75 6.35 -6.6 6.35 -6.7 M4.95 -0.85 L4.65 -1.1 5.25 -1.25 4.95 -0.85 M4.1 -1.7 L3.95 -1.75 3.95 -1.85 4.1 -1.7 M-4.25 -11.4 L-4.25 -11.45 -3.75 -11.45 -4.15 -11.4 -4.25 -11.4 M-10.75 -10.0 L-9.9 -9.45 -10.45 -9.9 -10.75 -10.0 M-3.7 -1.3 L-3.75 -1.25 -3.75 -1.3 -3.7 -1.3 M-2.8 -0.65 L-2.95 -0.7 -2.7 -0.7 -2.8 -0.65 M-3.85 -2.1 L-3.8 -2.1 -3.8 -1.95 -3.8 -1.9 -3.85 -2.1" fill="#fd0202" fill-rule="evenodd" stroke="none"/>
  </g>
</svg>
