<?xml version="1.0" encoding="UTF-8" standalone="no"?>
<svg xmlns:ffdec="https://www.free-decompiler.com/flash" xmlns:xlink="http://www.w3.org/1999/xlink" ffdec:objectType="shape" height="268.45px" width="207.45px" xmlns="http://www.w3.org/2000/svg">
  <g transform="matrix(1.0, 0.0, 0.0, 1.0, 103.95, 224.9)">
    <path d="M48.65 -42.85 Q46.5 -43.0 46.5 -41.2 46.5 -40.55 47.95 -38.7 49.4 -36.85 49.4 -36.15 49.4 -33.25 48.9 -32.15 47.75 -30.2 46.5 -27.05 45.25 -23.85 37.6 -22.65 33.25 -22.0 31.65 -21.05 29.95 -20.75 29.65 -18.85 29.55 -17.95 28.7 -16.45 27.8 -14.85 27.6 -14.1 27.3 -13.1 25.6 -11.8 L22.15 -9.8 18.4 -7.4 Q14.9 -5.9 6.8 -5.9 5.1 -5.9 2.65 -7.95 0.25 -9.95 -0.6 -9.95 -2.25 -9.95 -2.25 -8.15 L-2.1 -7.4 Q-3.2 -6.95 -5.3 -5.7 -8.25 -3.85 -15.75 -3.85 -26.8 -3.85 -33.4 -7.45 -36.45 -9.2 -39.1 -12.55 -41.45 -15.55 -41.2 -18.2 -41.75 -21.35 -42.9 -20.45 L-43.5 -20.7 -47.4 -22.2 Q-53.1 -24.95 -53.1 -31.4 -53.1 -32.6 -49.75 -38.6 -49.75 -41.65 -52.15 -39.75 L-52.2 -40.3 Q-55.45 -41.5 -60.5 -44.05 -65.8 -46.9 -69.2 -49.3 -74.35 -52.85 -77.65 -59.1 -80.65 -64.7 -80.65 -69.4 -80.65 -72.0 -80.15 -74.95 -79.65 -78.45 -78.7 -79.7 -77.0 -82.2 -75.6 -84.8 -74.8 -86.3 -73.45 -87.05 L-73.25 -87.2 -72.6 -87.5 -72.25 -87.6 Q-71.45 -87.8 -70.95 -88.15 -69.9 -88.3 -69.9 -89.05 L-69.95 -89.1 -69.75 -90.0 -70.6 -90.75 -71.35 -91.2 -72.25 -91.75 Q-75.1 -93.55 -76.6 -98.0 L-77.35 -102.0 Q-77.75 -104.9 -77.75 -106.6 -77.75 -112.65 -72.35 -118.95 L-68.0 -123.75 Q-67.5 -123.75 -67.05 -124.25 L-66.95 -124.4 Q-66.6 -124.95 -66.6 -125.45 -66.6 -126.15 -68.9 -129.6 -71.25 -133.75 -71.25 -138.05 -71.25 -142.0 -70.5 -144.5 -69.65 -147.5 -67.0 -151.45 -65.25 -154.25 -60.8 -157.5 -54.2 -162.25 -47.65 -162.25 L-43.9 -162.35 Q-43.35 -162.55 -43.25 -163.35 -42.95 -163.4 -42.75 -163.55 L-43.2 -163.85 -43.2 -164.0 Q-42.8 -164.25 -42.8 -164.85 L-44.0 -169.45 -44.0 -169.9 -43.95 -170.5 Q-43.65 -172.8 -41.85 -175.3 -39.15 -179.15 -34.35 -180.25 L-32.6 -180.35 Q-25.25 -180.35 -24.2 -179.5 -23.15 -178.65 -22.5 -178.65 -21.85 -178.65 -21.35 -179.35 -21.0 -179.85 -21.0 -180.3 L-21.1 -180.7 Q-20.7 -181.15 -20.7 -181.8 -20.7 -183.2 -21.65 -186.45 -22.75 -190.05 -22.85 -191.2 L-23.9 -199.25 -23.75 -200.15 Q-23.15 -203.65 -22.45 -205.5 -21.6 -208.25 -19.35 -211.75 -18.75 -212.35 -17.8 -213.9 L-15.35 -217.35 Q-13.95 -218.6 -12.2 -219.5 -8.95 -221.35 -4.55 -221.35 L-4.25 -221.35 Q0.05 -221.25 2.9 -217.8 5.35 -214.45 6.7 -208.0 7.6 -203.8 7.75 -198.65 L7.9 -193.8 7.3 -188.0 6.15 -185.1 Q4.95 -182.6 4.8 -181.5 L5.15 -181.2 5.75 -181.15 6.05 -181.15 6.5 -181.15 Q7.05 -181.15 8.05 -181.8 L8.95 -181.6 Q9.4 -181.6 14.05 -184.7 L17.9 -186.35 21.85 -186.6 Q30.55 -186.6 34.5 -180.05 37.0 -175.95 37.0 -171.85 37.0 -170.55 35.95 -168.45 L35.3 -166.9 34.9 -166.35 35.0 -166.05 34.9 -165.5 35.8 -164.6 36.1 -164.95 37.35 -164.95 44.6 -165.2 49.0 -163.55 Q51.05 -162.9 53.05 -161.7 55.15 -160.5 56.0 -159.5 L56.95 -158.1 57.0 -158.05 57.05 -157.8 Q58.1 -155.4 58.6 -153.05 L58.9 -149.8 Q58.9 -148.65 58.0 -145.45 L57.0 -142.45 57.05 -142.05 57.0 -141.9 Q56.45 -141.4 56.45 -140.55 56.45 -138.75 58.0 -138.75 L59.3 -139.4 Q60.45 -140.0 63.35 -140.0 69.35 -140.0 72.1 -132.6 73.6 -128.35 73.6 -124.3 L73.35 -119.3 72.05 -112.95 Q71.55 -110.85 68.75 -105.9 L67.65 -104.1 Q65.75 -103.35 65.75 -102.45 L65.85 -101.85 65.9 -101.75 66.3 -101.7 66.15 -101.4 66.05 -101.25 66.05 -101.15 66.7 -101.2 Q68.7 -101.4 69.7 -100.55 L69.75 -100.75 Q71.4 -102.05 78.8 -102.05 84.4 -102.05 86.55 -96.8 87.65 -94.1 87.65 -91.0 87.65 -89.95 86.85 -86.7 L85.8 -82.9 Q84.55 -80.1 82.4 -77.4 L80.45 -75.05 Q80.45 -74.5 80.6 -74.2 L81.0 -73.7 Q80.75 -73.4 80.75 -72.95 80.75 -72.0 82.8 -71.2 83.85 -70.85 84.4 -69.65 L84.4 -67.9 Q84.4 -63.8 82.7 -61.65 80.95 -59.15 77.35 -57.85 L71.55 -57.2 68.45 -56.8 68.15 -56.6 67.9 -56.6 67.0 -56.95 Q65.2 -57.6 65.05 -55.6 L64.45 -55.85 65.05 -55.25 Q65.05 -50.8 63.5 -49.15 60.85 -46.35 50.65 -43.65 L48.7 -43.25 48.9 -43.0 48.65 -42.85" fill="#444444" fill-rule="evenodd" stroke="none"/>
    <path d="M48.9 -43.0 L48.7 -43.25 50.65 -43.65 Q60.85 -46.35 63.5 -49.15 65.05 -50.8 65.05 -55.25 L64.45 -55.85 65.05 -55.6 Q65.2 -57.6 67.0 -56.95 L67.9 -56.6 68.15 -56.6 68.45 -56.8 71.55 -57.2 77.35 -57.85 Q80.95 -59.15 82.7 -61.65 84.4 -63.8 84.4 -67.9 L84.4 -69.65 Q83.85 -70.85 82.8 -71.2 80.75 -72.0 80.75 -72.95 80.75 -73.4 81.0 -73.7 L80.6 -74.2 Q80.45 -74.5 80.45 -75.05 L82.4 -77.4 Q84.55 -80.1 85.8 -82.9 L86.85 -86.7 Q87.65 -89.95 87.65 -91.0 87.65 -94.1 86.55 -96.8 84.4 -102.05 78.8 -102.05 71.4 -102.05 69.75 -100.75 L69.7 -100.55 Q68.7 -101.4 66.7 -101.2 L66.05 -101.15 66.05 -101.25 66.15 -101.4 66.3 -101.7 65.9 -101.75 65.85 -101.85 65.75 -102.45 Q65.75 -103.35 67.65 -104.1 L68.75 -105.9 Q71.55 -110.85 72.05 -112.95 L73.35 -119.3 73.6 -124.3 Q73.6 -128.35 72.1 -132.6 69.35 -140.0 63.35 -140.0 60.45 -140.0 59.3 -139.4 L58.0 -138.75 Q56.45 -138.75 56.45 -140.55 56.45 -141.4 57.0 -141.9 L57.05 -142.05 57.0 -142.45 58.0 -145.45 Q58.9 -148.65 58.9 -149.8 L58.6 -153.05 Q58.1 -155.4 57.05 -157.8 L57.0 -158.05 56.95 -158.1 56.0 -159.5 Q55.15 -160.5 53.05 -161.7 51.05 -162.9 49.0 -163.55 L44.6 -165.2 37.35 -164.95 36.1 -164.95 35.8 -164.6 34.9 -165.5 35.0 -166.05 34.9 -166.35 35.3 -166.9 35.95 -168.45 Q37.0 -170.55 37.0 -171.85 37.0 -175.95 34.5 -180.05 30.55 -186.6 21.85 -186.6 L17.9 -186.35 14.05 -184.7 Q9.4 -181.6 8.95 -181.6 L8.05 -181.8 Q7.05 -181.15 6.5 -181.15 L6.05 -181.15 5.75 -181.15 5.15 -181.2 4.8 -181.5 Q4.95 -182.6 6.15 -185.1 L7.3 -188.0 7.9 -193.8 7.75 -198.65 Q7.6 -203.8 6.7 -208.0 5.35 -214.45 2.9 -217.8 0.05 -221.25 -4.25 -221.35 L-4.55 -221.35 Q-8.95 -221.35 -12.2 -219.5 -13.95 -218.6 -15.35 -217.35 L-17.8 -213.9 Q-18.75 -212.35 -19.35 -211.75 -21.6 -208.25 -22.45 -205.5 -23.15 -203.65 -23.75 -200.15 L-23.9 -199.25 -22.85 -191.2 Q-22.75 -190.05 -21.65 -186.45 -20.7 -183.2 -20.7 -181.8 -20.7 -181.15 -21.1 -180.7 L-21.0 -180.3 Q-21.0 -179.85 -21.35 -179.35 -21.85 -178.65 -22.5 -178.65 -23.15 -178.65 -24.2 -179.5 -25.25 -180.35 -32.6 -180.35 L-34.35 -180.25 Q-39.15 -179.15 -41.85 -175.3 -43.65 -172.8 -43.95 -170.5 L-44.0 -169.9 -44.0 -169.45 -42.8 -164.85 Q-42.8 -164.25 -43.2 -164.0 L-43.2 -163.85 -42.75 -163.55 Q-42.95 -163.4 -43.25 -163.35 -43.35 -162.55 -43.9 -162.35 L-47.65 -162.25 Q-54.2 -162.25 -60.8 -157.5 -65.25 -154.25 -67.0 -151.45 -69.65 -147.5 -70.5 -144.5 -71.25 -142.0 -71.25 -138.05 -71.25 -133.75 -68.9 -129.6 -66.6 -126.15 -66.6 -125.45 -66.6 -124.95 -66.95 -124.4 L-67.05 -124.25 Q-67.5 -123.75 -68.0 -123.75 L-72.35 -118.95 Q-77.75 -112.65 -77.75 -106.6 -77.75 -104.9 -77.35 -102.0 L-76.6 -98.0 Q-75.1 -93.55 -72.25 -91.75 L-71.35 -91.2 -70.6 -90.75 -69.75 -90.0 -69.95 -89.1 -69.9 -89.05 Q-69.9 -88.3 -70.95 -88.15 -71.45 -87.8 -72.25 -87.6 L-72.6 -87.5 -73.25 -87.2 -73.45 -87.05 Q-74.8 -86.3 -75.6 -84.8 -77.0 -82.2 -78.7 -79.7 -79.65 -78.45 -80.15 -74.95 -80.65 -72.0 -80.65 -69.4 -80.65 -64.7 -77.65 -59.1 -74.35 -52.85 -69.2 -49.3 -65.8 -46.9 -60.5 -44.05 -55.45 -41.5 -52.2 -40.3 L-52.15 -39.75 Q-49.75 -41.65 -49.75 -38.6 -53.1 -32.6 -53.1 -31.4 -53.1 -24.95 -47.4 -22.2 L-43.5 -20.7 -42.9 -20.45 Q-41.75 -21.35 -41.2 -18.2 -41.45 -15.55 -39.1 -12.55 -36.45 -9.2 -33.4 -7.45 -26.8 -3.85 -15.75 -3.85 -8.25 -3.85 -5.3 -5.7 -3.2 -6.95 -2.1 -7.4 L-2.25 -8.15 Q-2.25 -9.95 -0.6 -9.95 0.25 -9.95 2.65 -7.95 5.1 -5.9 6.8 -5.9 14.9 -5.9 18.4 -7.4 L22.15 -9.8 25.6 -11.8 Q27.3 -13.1 27.6 -14.1 27.8 -14.85 28.7 -16.45 29.55 -17.95 29.65 -18.85 29.95 -20.75 31.65 -21.05 33.25 -22.0 37.6 -22.65 45.25 -23.85 46.5 -27.05 47.75 -30.2 48.9 -32.15 49.4 -33.25 49.4 -36.15 49.4 -36.85 47.95 -38.7 46.5 -40.55 46.5 -41.2 46.5 -43.0 48.65 -42.85 L49.0 -42.75 48.9 -43.0 M10.05 -208.15 Q11.0 -203.5 11.0 -193.6 11.05 -190.8 10.7 -188.15 L10.6 -186.85 Q13.15 -188.65 16.85 -189.85 27.1 -193.0 33.85 -187.35 38.15 -183.6 40.0 -180.05 41.75 -176.8 41.75 -173.0 L41.7 -169.85 45.85 -169.85 Q56.0 -168.95 58.05 -161.75 59.5 -160.45 60.45 -158.5 61.3 -156.7 61.4 -155.2 L62.05 -148.9 61.75 -144.95 61.5 -143.9 62.15 -143.9 65.9 -142.65 66.7 -142.15 68.15 -141.6 Q71.2 -140.5 72.7 -138.75 73.55 -137.7 74.25 -135.75 L76.6 -128.8 76.7 -126.25 Q77.05 -124.25 77.05 -121.85 L76.5 -116.35 Q76.0 -112.2 75.7 -111.75 L74.4 -109.25 72.4 -105.1 78.95 -105.6 80.4 -105.3 Q86.0 -104.9 88.7 -99.8 L89.9 -97.0 90.85 -94.0 Q91.8 -90.6 91.8 -87.55 91.8 -82.85 90.4 -80.3 89.3 -78.15 85.9 -74.45 86.85 -73.8 87.2 -72.6 L87.25 -71.7 87.4 -71.4 87.5 -70.95 87.95 -69.2 88.0 -68.15 88.25 -65.7 Q88.25 -62.55 85.35 -58.95 80.95 -53.45 71.95 -53.45 L71.45 -53.45 68.85 -53.4 Q68.45 -50.75 67.55 -48.75 L67.35 -48.15 67.55 -47.2 67.55 -47.1 64.45 -45.9 Q61.15 -43.1 55.95 -41.95 L51.65 -40.75 51.7 -40.65 Q52.75 -38.55 52.75 -36.15 52.75 -30.4 49.8 -25.85 44.85 -18.25 33.45 -17.9 32.4 -11.25 23.6 -6.5 15.8 -2.4 10.1 -2.4 6.75 -2.4 2.75 -3.85 1.15 -4.4 0.1 -5.0 -0.7 -3.3 -4.85 -1.9 -9.85 -0.35 -15.8 -0.35 -26.15 -0.35 -34.7 -4.45 -44.6 -9.25 -44.6 -16.95 L-44.5 -17.5 -44.7 -17.5 Q-51.65 -17.5 -54.75 -24.15 -56.3 -27.6 -56.55 -31.4 -56.55 -34.85 -54.25 -37.65 -55.4 -38.1 -56.4 -38.6 -64.3 -41.3 -72.3 -47.6 L-72.9 -48.1 Q-77.75 -51.6 -80.75 -57.95 -82.45 -61.35 -83.1 -64.5 -84.3 -68.05 -84.3 -70.95 -84.3 -74.1 -82.35 -78.75 L-81.2 -81.6 -79.55 -84.6 Q-78.55 -86.55 -77.3 -87.7 L-75.1 -89.5 Q-75.95 -90.1 -76.8 -91.0 -79.05 -93.2 -79.85 -95.2 -80.9 -97.6 -80.9 -102.75 L-80.75 -104.6 -81.0 -106.55 Q-81.0 -115.4 -73.9 -122.8 -72.35 -124.5 -70.9 -125.4 L-71.8 -126.95 Q-73.55 -129.25 -74.05 -131.2 L-75.1 -135.45 -75.2 -138.5 Q-75.2 -145.75 -70.85 -151.8 -68.4 -156.05 -64.25 -159.25 -56.05 -165.55 -46.6 -165.55 L-46.85 -166.45 Q-47.2 -167.95 -47.2 -169.6 -47.2 -180.9 -34.1 -183.2 -29.3 -184.0 -25.15 -183.05 L-24.85 -183.0 -25.2 -184.2 Q-25.7 -186.45 -25.9 -190.65 L-27.25 -201.15 Q-27.25 -213.15 -15.4 -221.0 -10.4 -224.4 -5.55 -224.85 -0.3 -225.3 2.75 -222.15 8.35 -216.55 10.05 -208.15" fill="#2f2f2f" fill-rule="evenodd" stroke="none"/>
    <path d="M-20.4 -42.3 L-20.3 -42.6 -20.25 -42.5 -20.4 -42.3 M33.5 -122.85 Q36.1 -120.6 40.35 -115.0 44.55 -109.25 45.25 -107.1 47.3 -99.05 48.95 -95.55 51.65 -89.7 52.85 -84.3 L53.3 -78.6 53.65 -77.55 53.8 -75.4 Q53.8 -72.5 53.4 -69.5 L53.45 -68.05 53.55 -67.85 52.7 -61.2 51.55 -58.5 Q48.55 -51.9 48.25 -49.75 47.75 -46.95 45.35 -42.0 L42.0 -35.1 Q38.5 -30.8 31.6 -26.45 26.2 -21.45 19.9 -18.7 L18.8 -19.8 18.85 -19.9 17.95 -19.5 Q14.3 -16.85 8.9 -13.15 7.95 -13.15 7.45 -13.7 L6.6 -14.55 5.75 -13.6 Q5.25 -13.15 4.3 -13.15 L2.3 -13.6 1.6 -13.45 Q1.05 -13.45 -0.05 -14.8 L-2.0 -16.0 Q-4.2 -16.7 -5.05 -17.7 L-5.15 -17.5 Q-6.25 -14.8 -8.0 -14.8 -9.5 -14.8 -13.15 -20.4 L-14.0 -21.2 Q-14.85 -22.35 -15.25 -22.35 -15.7 -22.35 -16.1 -21.9 -16.45 -21.5 -16.95 -21.5 -18.8 -21.5 -24.55 -26.45 -29.25 -30.5 -32.1 -33.7 -36.3 -38.25 -42.0 -45.9 -42.65 -46.8 -44.3 -50.15 L-46.9 -53.9 Q-52.85 -64.25 -53.95 -78.7 L-54.6 -87.6 Q-54.8 -89.3 -55.1 -90.4 L-51.65 -101.05 Q-47.2 -115.15 -43.65 -120.6 -41.8 -123.3 -36.85 -127.1 L-30.75 -131.4 Q-28.85 -132.85 -24.4 -134.55 L-17.7 -137.0 -12.95 -138.75 -8.05 -139.25 -4.4 -139.8 Q-0.75 -139.55 3.15 -138.05 L21.05 -131.65 Q25.8 -129.55 33.5 -122.85 M28.3 -124.45 Q20.85 -131.0 12.75 -132.4 7.9 -133.4 1.0 -132.65 -8.35 -133.55 -13.5 -132.75 -30.8 -130.45 -40.15 -116.05 L-42.9 -111.9 -43.85 -110.1 -43.75 -110.1 -43.8 -110.0 -43.95 -109.8 -44.2 -109.3 Q-51.35 -97.85 -50.3 -80.0 -50.0 -74.65 -49.2 -70.4 -49.0 -66.1 -47.9 -62.55 -46.35 -57.4 -42.7 -52.3 L-39.05 -47.25 -35.2 -42.25 -30.4 -36.25 Q-26.85 -32.2 -25.45 -32.2 L-24.9 -32.3 -22.6 -30.5 -22.95 -32.15 Q-22.95 -33.5 -22.35 -34.1 L-20.5 -31.45 Q-17.3 -27.45 -15.1 -25.3 L-11.75 -21.85 Q-9.45 -19.5 -8.65 -19.5 -7.2 -19.5 -6.7 -21.65 L-6.3 -24.45 -5.75 -26.6 -5.1 -26.9 -4.95 -26.9 -4.65 -26.15 -3.55 -23.75 Q-1.05 -18.5 0.05 -18.5 0.5 -18.5 1.4 -19.8 L1.6 -19.3 3.55 -21.85 4.4 -23.25 8.1 -29.2 Q7.8 -26.8 7.6 -22.65 L7.9 -20.15 Q8.35 -17.8 9.3 -17.8 10.65 -17.8 18.85 -26.2 L22.9 -30.25 Q25.05 -32.6 25.7 -33.95 L26.55 -34.75 26.2 -33.7 26.0 -33.75 Q25.5 -33.75 25.15 -30.85 L25.0 -27.75 25.1 -26.85 Q25.4 -26.0 26.5 -26.0 27.65 -26.0 32.85 -31.65 37.7 -36.9 38.65 -38.65 L41.7 -44.15 Q44.3 -49.6 44.3 -51.65 44.3 -52.3 43.85 -52.5 L43.85 -52.55 Q47.6 -60.15 48.95 -68.85 L49.35 -71.7 48.75 -79.65 48.7 -79.9 48.35 -83.1 Q46.6 -96.0 42.45 -105.55 37.35 -116.6 28.3 -124.45 M12.1 -24.8 L12.0 -24.7 12.0 -24.9 12.1 -24.8 M-0.05 -21.9 L-0.2 -22.15 0.05 -21.9 -0.05 -21.9" fill="#fd0202" fill-rule="evenodd" stroke="none"/>
    <path d="M-20.3 -42.6 L-21.95 -42.7 Q-23.3 -43.1 -24.4 -44.1 -26.25 -45.7 -28.45 -50.95 -30.4 -55.55 -31.1 -58.65 -32.55 -65.55 -25.35 -75.25 -26.55 -77.9 -26.5 -82.15 -26.3 -88.4 -23.4 -92.9 -21.15 -96.4 -18.15 -95.6 -14.55 -94.0 -12.4 -93.8 -9.25 -92.3 -5.1 -92.45 2.2 -92.8 6.35 -99.1 11.05 -106.35 8.6 -113.3 7.05 -117.75 3.0 -121.3 -8.2 -130.95 -22.15 -124.05 -32.75 -118.85 -39.3 -108.75 -43.65 -102.1 -45.55 -96.1 -44.95 -90.8 -45.0 -81.85 L-44.95 -76.95 Q-43.65 -74.6 -41.45 -72.75 L-42.55 -72.6 -43.3 -72.0 Q-43.8 -71.2 -43.2 -67.25 -42.4 -63.1 -40.75 -58.5 -39.65 -55.75 -36.15 -51.25 -33.05 -47.35 -30.3 -44.9 -27.8 -42.75 -25.95 -41.85 L-26.2 -43.65 Q-26.2 -44.75 -25.7 -44.85 -25.15 -45.05 -24.5 -43.45 L-23.5 -41.25 Q-22.15 -41.3 -20.4 -42.3 L-20.25 -42.5 -20.3 -42.6 M28.3 -124.45 Q37.35 -116.6 42.45 -105.55 46.6 -96.0 48.35 -83.1 L48.7 -79.9 48.75 -79.65 49.35 -71.7 48.95 -68.85 Q47.6 -60.15 43.85 -52.55 L43.85 -52.5 Q44.3 -52.3 44.3 -51.65 44.3 -49.6 41.7 -44.15 L38.65 -38.65 Q37.7 -36.9 32.85 -31.65 27.65 -26.0 26.5 -26.0 25.4 -26.0 25.1 -26.85 L25.0 -27.75 25.15 -30.85 Q25.5 -33.75 26.0 -33.75 L26.2 -33.7 26.55 -34.75 25.7 -33.95 Q25.05 -32.6 22.9 -30.25 L18.85 -26.2 Q10.65 -17.8 9.3 -17.8 8.35 -17.8 7.9 -20.15 L7.6 -22.65 Q7.8 -26.8 8.1 -29.2 L4.4 -23.25 3.55 -21.85 1.6 -19.3 1.4 -19.8 Q0.5 -18.5 0.05 -18.5 -1.05 -18.5 -3.55 -23.75 L-4.65 -26.15 -4.95 -26.9 -5.1 -26.9 -5.75 -26.6 -6.3 -24.45 -6.7 -21.65 Q-7.2 -19.5 -8.65 -19.5 -9.45 -19.5 -11.75 -21.85 L-15.1 -25.3 Q-17.3 -27.45 -20.5 -31.45 L-22.35 -34.1 Q-22.95 -33.5 -22.95 -32.15 L-22.6 -30.5 -24.9 -32.3 -25.45 -32.2 Q-26.85 -32.2 -30.4 -36.25 L-35.2 -42.25 -39.05 -47.25 -42.7 -52.3 Q-46.35 -57.4 -47.9 -62.55 -49.0 -66.1 -49.2 -70.4 -50.0 -74.65 -50.3 -80.0 -51.35 -97.85 -44.2 -109.3 L-43.95 -109.8 -43.8 -110.0 -43.75 -110.1 -43.85 -110.1 -42.9 -111.9 -40.15 -116.05 Q-30.8 -130.45 -13.5 -132.75 -8.35 -133.55 1.0 -132.65 7.9 -133.4 12.75 -132.4 20.85 -131.0 28.3 -124.45 M12.1 -24.8 L12.0 -24.9 12.0 -24.7 12.1 -24.8 M-0.05 -21.9 L0.05 -21.9 -0.2 -22.15 -0.05 -21.9" fill="#ffff00" fill-rule="evenodd" stroke="none"/>
    <path d="M-20.4 -42.3 Q-22.15 -41.3 -23.5 -41.25 L-24.5 -43.45 Q-25.15 -45.05 -25.7 -44.85 -26.2 -44.75 -26.2 -43.65 L-25.95 -41.85 Q-27.8 -42.75 -30.3 -44.9 -33.05 -47.35 -36.15 -51.25 -39.65 -55.75 -40.75 -58.5 -42.4 -63.1 -43.2 -67.25 -43.8 -71.2 -43.3 -72.0 L-42.55 -72.6 -41.45 -72.75 Q-43.65 -74.6 -44.95 -76.95 L-45.0 -81.85 Q-44.95 -90.8 -45.55 -96.1 -43.65 -102.1 -39.3 -108.75 -32.75 -118.85 -22.15 -124.05 -8.2 -130.95 3.0 -121.3 7.05 -117.75 8.6 -113.3 11.05 -106.35 6.35 -99.1 2.2 -92.8 -5.1 -92.45 -9.25 -92.3 -12.4 -93.8 -14.55 -94.0 -18.15 -95.6 -21.15 -96.4 -23.4 -92.9 -26.3 -88.4 -26.5 -82.15 -26.55 -77.9 -25.35 -75.25 -32.55 -65.55 -31.1 -58.65 -30.4 -55.55 -28.45 -50.95 -26.25 -45.7 -24.4 -44.1 -23.3 -43.1 -21.95 -42.7 L-20.3 -42.6 -20.4 -42.3" fill="#ffff99" fill-rule="evenodd" stroke="none"/>
    <path d="M-34.15 16.6 L-34.3 16.6 -34.15 16.55 -34.15 16.6 M-71.1 4.35 L-71.15 4.25 -71.05 4.15 -71.1 4.35 M-86.25 -11.7 L-86.25 -11.85 -86.15 -11.85 -86.25 -11.7" fill="#444444" fill-rule="evenodd" stroke="none"/>
    <path d="M67.05 -52.35 L70.55 -51.5 Q76.45 -49.85 78.85 -47.45 81.95 -44.6 82.8 -42.6 L83.8 -39.65 84.15 -38.95 Q83.15 -38.85 83.15 -38.0 83.15 -37.65 85.95 -36.7 L89.1 -35.6 Q90.9 -34.9 92.25 -33.8 L94.25 -32.0 Q95.75 -30.8 96.8 -28.4 97.85 -26.2 97.85 -24.65 L97.55 -23.3 Q97.2 -22.5 97.2 -21.75 98.4 -21.65 98.45 -20.0 L98.7 -19.4 Q100.25 -18.0 100.6 -16.45 L101.25 -11.85 Q101.25 -8.25 100.05 -5.95 99.1 -3.95 96.35 -1.75 L94.2 -0.1 Q93.6 -1.15 92.95 0.15 L92.65 1.3 92.55 2.6 Q92.55 4.25 91.7 5.1 L87.6 9.7 Q86.2 11.2 84.65 11.65 82.05 13.15 79.05 13.15 L78.35 13.1 78.35 13.15 Q78.35 13.65 78.7 14.0 L78.7 14.35 Q79.15 16.95 77.15 18.65 L74.8 20.9 71.5 22.9 Q68.6 24.0 66.2 24.25 L60.1 24.5 59.55 24.5 Q59.1 24.0 57.9 25.2 L55.1 28.2 Q53.6 29.3 51.15 30.3 47.3 31.75 42.9 31.75 39.45 31.75 37.6 30.95 L36.1 30.35 Q36.0 29.5 35.3 29.6 34.5 29.65 34.05 30.8 33.2 32.7 32.25 33.55 30.05 35.6 25.9 36.6 22.25 37.6 17.85 37.6 16.75 37.6 14.6 36.35 L13.9 35.75 Q13.7 35.0 13.1 35.25 L12.75 35.0 Q12.5 35.0 12.35 35.3 L12.15 35.75 12.05 35.8 9.25 38.35 Q7.45 39.7 5.9 40.3 3.15 41.35 -1.0 41.35 -8.05 41.35 -12.95 38.6 L-17.75 35.9 -18.65 36.05 -18.65 36.15 Q-19.05 35.75 -19.65 35.75 L-21.3 36.65 Q-22.5 37.6 -27.0 37.6 -30.6 37.6 -33.5 35.75 -34.9 34.85 -35.7 33.8 L-37.1 31.6 -37.65 30.9 -37.65 30.8 Q-37.65 30.1 -39.45 30.1 L-41.5 30.75 -46.3 31.3 Q-51.45 31.3 -56.55 29.25 -60.4 27.8 -61.4 26.65 -63.35 24.55 -63.9 23.4 L-64.05 23.15 -65.3 22.55 -65.5 22.35 Q-66.25 21.8 -66.85 21.55 -67.0 21.35 -67.35 21.25 L-69.4 20.9 -78.3 19.85 Q-79.9 19.55 -83.95 16.9 -88.6 13.6 -90.5 9.9 L-92.35 6.45 -94.0 3.05 Q-94.55 1.8 -94.75 -0.4 L-95.15 -3.0 Q-94.75 -3.3 -94.75 -3.9 -94.75 -4.25 -98.25 -6.85 -101.7 -10.5 -101.7 -16.2 -101.7 -17.6 -101.1 -19.25 L-99.85 -22.45 Q-99.15 -24.2 -97.45 -25.5 -96.95 -25.9 -95.75 -26.3 L-94.4 -26.7 -92.3 -27.1 Q-91.5 -27.2 -91.5 -27.8 L-90.9 -28.2 Q-90.65 -28.6 -90.65 -28.95 -90.65 -30.55 -90.05 -31.4 -88.45 -33.6 -83.35 -33.6 L-81.95 -33.45 Q-81.2 -33.45 -81.0 -33.95 L-80.75 -34.5 Q-80.65 -34.95 -80.7 -35.35 L-80.8 -38.8 -78.5 -43.8 Q-77.65 -45.75 -73.9 -47.9 -70.4 -49.95 -66.7 -50.75 -65.7 -50.0 -63.75 -49.45 -61.45 -48.75 -60.0 -49.05 -59.95 -46.7 -58.05 -44.25 -59.5 -43.8 -61.35 -42.2 -65.5 -38.75 -65.45 -34.5 L-65.5 -31.6 Q-71.6 -30.05 -72.35 -29.6 -74.8 -28.0 -75.4 -26.6 L-75.65 -24.1 -75.95 -24.2 Q-79.85 -24.85 -80.8 -24.2 -81.4 -23.75 -85.8 -25.0 -88.5 -24.85 -89.95 -24.25 L-92.5 -23.0 Q-94.8 -21.75 -95.8 -20.35 L-95.2 -20.55 -93.35 -20.6 -93.7 -19.15 Q-93.7 -17.1 -92.25 -14.95 -90.2 -12.05 -86.25 -11.85 L-86.25 -11.7 -88.4 -7.95 Q-88.95 -6.65 -88.95 -4.75 -88.95 -1.85 -87.05 0.95 -83.8 5.7 -76.6 5.7 -73.25 5.7 -71.15 4.25 L-71.1 4.35 Q-71.9 8.9 -69.25 13.15 -66.15 17.9 -60.55 17.9 -57.7 17.9 -55.05 16.0 L-53.45 14.75 Q-52.9 15.6 -50.15 17.4 -46.25 19.9 -43.35 19.9 -38.85 19.9 -34.3 16.6 L-34.15 16.6 -34.15 16.9 -34.35 18.4 Q-34.4 19.45 -34.05 20.45 L-32.45 24.2 Q-31.3 26.2 -29.45 27.6 -25.35 30.75 -18.95 30.75 -16.05 30.75 -13.3 29.1 L-12.3 28.4 Q-11.95 29.2 -10.4 30.7 -8.2 32.75 -4.35 32.75 2.0 32.75 6.05 27.0 7.7 24.65 8.45 22.75 9.15 24.55 11.95 27.55 16.95 32.9 23.55 32.9 L26.8 32.35 27.75 32.55 Q29.2 32.55 29.45 31.6 29.8 30.05 30.05 29.8 L32.95 26.7 34.45 23.35 34.7 20.55 34.65 18.9 34.35 17.7 35.5 18.45 Q38.55 20.35 42.7 20.35 47.6 20.35 50.7 17.25 52.25 15.65 52.8 14.05 L53.85 14.55 56.85 15.0 Q60.85 15.0 65.0 12.3 70.3 8.8 70.3 3.4 L70.2 1.75 73.85 1.9 Q78.85 1.9 81.95 -1.7 84.05 -4.25 84.05 -5.9 92.55 -6.8 96.3 -11.15 L97.45 -12.7 Q96.45 -12.95 95.3 -14.75 94.1 -16.5 94.1 -16.95 L94.15 -17.2 Q92.5 -18.75 90.9 -19.2 L86.25 -19.65 87.1 -20.7 Q88.7 -23.0 88.7 -24.45 88.7 -26.5 87.2 -28.0 84.85 -30.35 79.7 -30.0 75.65 -30.05 71.3 -28.35 L69.1 -27.45 69.85 -29.25 Q71.05 -32.65 71.05 -34.65 71.05 -42.15 62.75 -43.35 L56.95 -43.05 Q59.7 -47.65 61.8 -49.7 62.55 -50.4 65.35 -51.55 L67.05 -52.35" fill="#bd9a0a" fill-rule="evenodd" stroke="none"/>
    <path d="M-66.7 -50.75 Q-70.4 -49.95 -73.9 -47.9 -77.65 -45.75 -78.5 -43.8 L-80.8 -38.8 -80.7 -35.35 Q-80.65 -34.95 -80.75 -34.5 L-81.0 -33.95 Q-81.2 -33.45 -81.95 -33.45 L-83.35 -33.6 Q-88.45 -33.6 -90.05 -31.4 -90.65 -30.55 -90.65 -28.95 -90.65 -28.6 -90.9 -28.2 L-91.5 -27.8 Q-91.5 -27.2 -92.3 -27.1 L-94.4 -26.7 -95.75 -26.3 Q-96.95 -25.9 -97.45 -25.5 -99.15 -24.2 -99.85 -22.45 L-101.1 -19.25 Q-101.7 -17.6 -101.7 -16.2 -101.7 -10.5 -98.25 -6.85 -94.75 -4.25 -94.75 -3.9 -94.75 -3.3 -95.15 -3.0 L-94.75 -0.4 Q-94.55 1.8 -94.0 3.05 L-92.35 6.45 -90.5 9.9 Q-88.6 13.6 -83.95 16.9 -79.9 19.55 -78.3 19.85 L-69.4 20.9 -67.35 21.25 Q-67.0 21.35 -66.85 21.55 -66.25 21.8 -65.5 22.35 L-65.3 22.55 -64.05 23.15 -63.9 23.4 Q-63.35 24.55 -61.4 26.65 -60.4 27.8 -56.55 29.25 -51.45 31.3 -46.3 31.3 L-41.5 30.75 -39.45 30.1 Q-37.65 30.1 -37.65 30.8 L-37.65 30.9 -37.1 31.6 -35.7 33.8 Q-34.9 34.85 -33.5 35.75 -30.6 37.6 -27.0 37.6 -22.5 37.6 -21.3 36.65 L-19.65 35.75 Q-19.05 35.75 -18.65 36.15 L-18.65 36.05 -17.75 35.9 -12.95 38.6 Q-8.05 41.35 -1.0 41.35 3.15 41.35 5.9 40.3 7.45 39.7 9.25 38.35 L12.05 35.8 12.15 35.75 12.35 35.3 Q12.5 35.0 12.75 35.0 L13.1 35.25 Q13.7 35.0 13.9 35.75 L14.6 36.35 Q16.75 37.6 17.85 37.6 22.25 37.6 25.9 36.6 30.05 35.6 32.25 33.55 33.2 32.7 34.05 30.8 34.5 29.65 35.3 29.6 36.0 29.5 36.1 30.35 L37.6 30.95 Q39.45 31.75 42.9 31.75 47.3 31.75 51.15 30.3 53.6 29.3 55.1 28.2 L57.9 25.2 Q59.1 24.0 59.55 24.5 L60.1 24.5 66.2 24.25 Q68.6 24.0 71.5 22.9 L74.8 20.9 77.15 18.65 Q79.15 16.95 78.7 14.35 L78.7 14.0 Q78.35 13.65 78.35 13.15 L78.35 13.1 79.05 13.15 Q82.05 13.15 84.65 11.65 86.2 11.2 87.6 9.7 L91.7 5.1 Q92.55 4.25 92.55 2.6 L92.65 1.3 92.95 0.15 Q93.6 -1.15 94.2 -0.1 L96.35 -1.75 Q99.1 -3.95 100.05 -5.95 101.25 -8.25 101.25 -11.85 L100.6 -16.45 Q100.25 -18.0 98.7 -19.4 L98.45 -20.0 Q98.4 -21.65 97.2 -21.75 97.2 -22.5 97.55 -23.3 L97.85 -24.65 Q97.85 -26.2 96.8 -28.4 95.75 -30.8 94.25 -32.0 L92.25 -33.8 Q90.9 -34.9 89.1 -35.6 L85.95 -36.7 Q83.15 -37.65 83.15 -38.0 83.15 -38.85 84.15 -38.95 L83.8 -39.65 82.8 -42.6 Q81.95 -44.6 78.85 -47.45 76.45 -49.85 70.55 -51.5 L67.05 -52.35 61.3 -54.05 Q61.95 -55.15 66.2 -54.6 L69.1 -54.05 71.7 -53.2 Q73.85 -52.75 76.6 -51.3 L80.3 -48.75 Q83.55 -46.05 84.65 -43.8 86.75 -39.7 86.75 -38.9 L86.75 -38.6 90.05 -37.55 Q91.85 -36.9 93.75 -35.45 L96.2 -33.4 Q97.8 -32.05 99.0 -29.2 100.05 -26.55 100.05 -24.6 100.05 -21.75 99.2 -20.9 100.35 -20.5 100.75 -20.1 L101.75 -18.8 102.65 -17.35 103.3 -14.4 103.5 -11.85 Q103.5 -7.4 101.1 -3.3 98.45 1.15 94.95 1.15 L94.7 1.15 94.95 3.1 Q94.95 5.2 91.0 9.45 87.85 12.95 85.7 13.85 84.2 14.5 80.9 14.5 L80.75 14.5 80.75 15.15 Q80.75 20.55 73.75 23.9 68.45 26.45 64.25 26.45 L59.65 26.0 58.05 28.1 55.5 30.55 Q54.2 31.6 50.8 32.65 46.7 33.8 42.9 33.8 39.4 33.8 36.8 32.75 L35.75 32.25 Q34.9 34.0 32.4 35.9 27.5 39.65 19.25 39.65 16.2 39.65 13.95 37.95 L13.4 37.55 Q12.5 38.95 9.7 40.65 5.0 43.55 -0.15 43.55 -7.5 43.55 -13.65 40.55 -17.85 38.5 -18.6 37.15 -19.0 37.8 -20.85 38.6 -23.3 39.65 -25.5 39.65 -32.9 39.65 -36.7 35.7 -38.5 33.8 -39.0 32.15 L-40.6 32.75 Q-43.4 33.55 -46.3 33.55 -53.05 33.55 -58.2 31.2 -61.55 29.7 -62.6 28.4 L-65.3 25.2 -65.9 24.0 -67.15 22.75 -67.5 22.9 -70.6 23.1 Q-77.9 23.1 -83.1 20.15 -87.45 17.7 -91.65 12.3 -92.75 10.8 -94.65 6.85 -96.75 2.35 -96.75 0.55 L-96.8 -1.55 -96.55 -2.75 Q-99.95 -3.15 -102.65 -9.45 -103.5 -11.45 -103.7 -13.05 L-103.95 -16.15 Q-103.95 -24.05 -97.75 -27.5 -95.45 -28.75 -93.45 -28.8 L-93.0 -28.75 -93.0 -29.55 Q-93.0 -31.35 -91.7 -33.0 -89.9 -35.25 -86.55 -35.45 -84.45 -35.65 -83.0 -35.45 L-83.1 -36.0 Q-83.1 -38.9 -82.6 -40.5 -82.0 -42.6 -80.0 -45.35 L-78.15 -47.7 Q-77.0 -48.95 -74.7 -49.95 -72.6 -50.9 -70.2 -51.4 L-67.15 -51.7 Q-66.15 -51.55 -65.7 -51.0 L-66.7 -50.75 M56.95 -43.05 L62.75 -43.35 Q71.05 -42.15 71.05 -34.65 71.05 -32.65 69.85 -29.25 L69.1 -27.45 71.3 -28.35 Q75.65 -30.05 79.7 -30.0 84.85 -30.35 87.2 -28.0 88.7 -26.5 88.7 -24.45 88.7 -23.0 87.1 -20.7 L86.25 -19.65 90.9 -19.2 Q92.5 -18.75 94.15 -17.2 L94.1 -16.95 Q94.1 -16.5 95.3 -14.75 96.45 -12.95 97.45 -12.7 L96.3 -11.15 Q92.55 -6.8 84.05 -5.9 84.05 -4.25 81.95 -1.7 78.85 1.9 73.85 1.9 L70.2 1.75 70.3 3.4 Q70.3 8.8 65.0 12.3 60.85 15.0 56.85 15.0 L53.85 14.55 52.8 14.05 Q52.25 15.65 50.7 17.25 47.6 20.35 42.7 20.35 38.55 20.35 35.5 18.45 L34.35 17.7 34.65 18.9 34.7 20.55 34.45 23.35 32.95 26.7 30.05 29.8 Q29.8 30.05 29.45 31.6 29.2 32.55 27.75 32.55 L26.8 32.35 23.55 32.9 Q16.95 32.9 11.95 27.55 9.15 24.55 8.45 22.75 7.7 24.65 6.05 27.0 2.0 32.75 -4.35 32.75 -8.2 32.75 -10.4 30.7 -11.95 29.2 -12.3 28.4 L-13.3 29.1 Q-16.05 30.75 -18.95 30.75 -25.35 30.75 -29.45 27.6 -31.3 26.2 -32.45 24.2 L-34.05 20.45 Q-34.4 19.45 -34.35 18.4 L-34.15 16.9 -34.15 16.6 -34.15 16.55 -34.3 16.6 Q-38.85 19.9 -43.35 19.9 -46.25 19.9 -50.15 17.4 -52.9 15.6 -53.45 14.75 L-55.05 16.0 Q-57.7 17.9 -60.55 17.9 -66.15 17.9 -69.25 13.15 -71.9 8.9 -71.1 4.35 L-71.05 4.15 -71.15 4.25 Q-73.25 5.7 -76.6 5.7 -83.8 5.7 -87.05 0.95 -88.95 -1.85 -88.95 -4.75 -88.95 -6.65 -88.4 -7.95 L-86.25 -11.7 -86.15 -11.85 -86.25 -11.85 Q-90.2 -12.05 -92.25 -14.95 -93.7 -17.1 -93.7 -19.15 L-93.35 -20.6 -95.2 -20.55 -95.8 -20.35 Q-94.8 -21.75 -92.5 -23.0 L-89.95 -24.25 Q-88.5 -24.85 -85.8 -25.0 -81.4 -23.75 -80.8 -24.2 -79.85 -24.85 -75.95 -24.2 L-75.65 -24.1 -75.4 -26.6 Q-74.8 -28.0 -72.35 -29.6 -71.6 -30.05 -65.5 -31.6 L-65.45 -34.5 Q-65.5 -38.75 -61.35 -42.2 -59.5 -43.8 -58.05 -44.25 -56.35 -44.85 -55.2 -43.9 L-55.3 -43.85 -55.3 -43.5 -56.7 -42.75 -57.05 -43.05 Q-59.15 -42.0 -60.85 -40.5 -63.2 -38.45 -63.6 -36.65 -63.85 -35.2 -63.75 -31.55 -63.7 -29.15 -64.5 -29.15 L-65.25 -29.45 -66.05 -29.75 Q-67.35 -29.75 -69.9 -28.6 L-73.05 -26.75 Q-74.35 -25.25 -74.15 -24.6 L-73.55 -22.95 Q-73.55 -21.65 -74.45 -21.65 -75.15 -21.65 -75.5 -22.65 L-86.45 -23.2 Q-89.5 -23.2 -92.3 -20.8 L-92.6 -20.5 Q-92.3 -19.95 -92.15 -19.05 L-91.45 -16.75 Q-90.05 -14.0 -83.0 -14.0 -82.2 -14.0 -81.95 -13.45 L-81.75 -12.85 -83.4 -11.1 -85.8 -8.55 -86.9 -6.3 -87.0 -4.6 Q-87.0 -2.05 -85.15 0.25 -82.35 3.65 -76.45 3.65 -73.45 3.65 -71.1 1.85 -69.3 0.0 -68.85 0.0 -68.1 0.0 -67.85 0.6 L-67.75 1.15 -68.45 3.2 Q-69.15 4.9 -69.15 6.65 -69.15 9.15 -67.9 11.55 -65.7 15.75 -60.55 15.75 -58.05 15.75 -56.05 14.2 -54.05 12.6 -53.55 12.6 L-53.1 12.7 -52.8 12.9 -52.7 13.4 -52.7 13.55 -52.35 13.7 -50.05 15.15 -47.5 16.6 Q-45.65 17.75 -43.4 17.75 -39.2 17.75 -36.55 15.6 -33.95 13.4 -33.25 13.4 -31.5 13.4 -31.6 15.55 -31.8 19.4 -31.2 21.35 -30.6 23.35 -27.95 25.45 -24.6 28.2 -20.6 28.2 -16.1 28.2 -14.45 26.85 -12.75 25.55 -11.7 25.55 -10.9 25.55 -10.9 26.65 L-11.15 27.25 -10.65 27.25 Q-10.1 27.7 -9.55 29.2 -8.4 30.45 -4.4 30.45 -0.65 30.45 2.4 27.45 3.7 26.2 5.2 23.7 L5.85 21.85 6.4 19.9 Q7.15 18.05 8.1 18.45 9.0 18.8 9.0 20.15 L9.0 20.25 Q10.55 24.5 15.6 27.65 19.9 30.4 22.7 30.4 24.35 30.4 26.25 29.6 L26.5 29.55 Q26.75 29.25 27.15 29.15 L27.4 29.15 28.15 28.8 28.6 28.85 28.85 28.7 30.2 27.45 31.4 25.95 32.35 23.15 32.85 20.5 Q32.85 19.5 32.3 17.7 L31.7 15.55 Q31.7 14.05 32.7 14.5 L33.15 14.85 33.2 14.75 Q33.3 14.6 33.65 14.6 L35.75 16.4 Q38.5 18.1 41.65 18.1 47.55 18.1 49.9 14.35 L51.15 11.7 Q51.75 10.5 52.4 10.5 52.85 10.5 53.8 11.55 54.7 12.55 56.85 12.55 61.6 12.55 65.1 8.9 67.5 6.45 67.9 4.85 L67.7 2.65 Q67.55 1.3 68.15 0.6 69.05 -0.45 69.65 0.2 70.0 0.0 70.75 -0.1 L75.5 -0.55 Q76.4 -0.65 77.9 -1.4 L79.9 -2.65 Q82.0 -4.65 81.95 -5.3 81.5 -6.1 81.5 -7.25 81.5 -8.55 86.2 -9.1 91.65 -9.65 93.3 -11.95 L94.15 -13.2 Q93.75 -13.35 93.45 -13.75 L92.35 -15.35 Q90.5 -17.7 85.3 -17.7 L82.1 -16.9 81.8 -16.95 Q81.7 -16.95 81.7 -17.35 L81.9 -18.0 81.8 -18.0 81.8 -18.35 Q81.8 -19.05 84.35 -21.0 86.8 -22.95 86.8 -24.35 86.8 -25.4 85.6 -26.6 84.0 -28.2 81.25 -28.2 77.0 -28.2 72.2 -26.8 L67.45 -25.15 67.15 -25.3 67.1 -25.7 Q66.8 -25.8 66.6 -26.25 L66.5 -26.9 67.75 -29.65 Q68.95 -32.2 68.95 -33.3 68.95 -35.75 67.8 -37.75 65.8 -41.25 60.95 -41.25 L57.3 -40.75 55.45 -40.2 55.2 -40.2 Q54.35 -40.35 54.35 -41.0 54.35 -42.25 56.95 -43.05" fill="#472205" fill-rule="evenodd" stroke="none"/>
  </g>
</svg>
