<?xml version="1.0" encoding="UTF-8" standalone="no"?>
<svg xmlns:ffdec="https://www.free-decompiler.com/flash" xmlns:xlink="http://www.w3.org/1999/xlink" ffdec:objectType="shape" height="317.9px" width="296.5px" xmlns="http://www.w3.org/2000/svg">
  <g transform="matrix(1.0, 0.0, 0.0, 1.0, 148.9, 255.35)">
    <path d="M19.85 -249.6 Q25.55 -244.7 27.2 -241.45 28.45 -238.9 28.45 -233.95 28.45 -230.5 26.7 -227.0 L26.2 -226.0 Q29.05 -226.35 31.75 -225.95 34.35 -225.3 36.45 -223.9 L40.45 -220.7 Q46.05 -215.85 46.05 -208.35 46.05 -205.75 45.1 -203.1 L46.6 -203.45 Q54.45 -204.7 58.05 -203.5 61.35 -202.5 64.75 -198.1 67.5 -194.75 68.7 -190.35 69.45 -187.0 69.45 -182.4 69.45 -177.55 67.8 -173.2 67.25 -171.75 66.5 -170.75 L72.35 -170.3 Q76.9 -169.3 79.1 -167.25 83.0 -163.6 84.2 -160.3 87.0 -152.8 87.0 -145.95 87.0 -140.65 84.5 -135.8 80.55 -128.1 72.05 -128.1 L71.1 -128.35 67.85 -128.1 Q60.0 -128.1 55.2 -132.55 53.0 -134.7 51.0 -138.7 48.9 -142.7 48.7 -144.35 L48.65 -149.45 48.75 -155.0 Q49.15 -157.55 50.75 -161.1 L51.05 -161.65 49.5 -162.2 48.35 -159.9 Q45.15 -154.15 38.5 -154.15 32.35 -154.15 28.7 -158.55 25.6 -162.3 25.6 -167.2 L25.6 -170.6 26.65 -174.65 Q27.2 -176.35 29.25 -178.3 L32.8 -178.85 33.5 -179.4 34.05 -179.75 Q32.95 -181.4 32.8 -182.7 L32.1 -188.8 32.35 -191.5 Q29.0 -190.55 24.85 -190.55 8.25 -190.55 2.9 -196.9 1.5 -198.6 0.85 -201.3 -3.05 -198.35 -9.7 -198.35 L-13.35 -198.6 Q-13.4 -197.25 -13.9 -195.9 -15.75 -195.65 -18.15 -194.3 L-17.45 -195.5 -20.35 -193.4 -24.85 -190.05 -24.2 -190.15 Q-26.2 -188.3 -26.9 -186.3 -28.55 -186.3 -29.75 -186.85 -30.45 -183.8 -31.85 -180.35 -36.15 -170.3 -45.1 -170.3 L-49.55 -170.8 Q-51.2 -168.8 -53.55 -167.2 -58.6 -163.7 -64.55 -163.0 -64.05 -161.95 -63.65 -160.35 L-62.85 -155.85 Q-62.85 -150.55 -65.55 -145.55 -70.35 -136.65 -81.55 -136.65 -89.75 -136.65 -93.0 -144.3 -94.65 -148.2 -94.7 -152.6 -94.7 -160.7 -89.3 -164.8 L-87.95 -165.7 Q-86.35 -167.4 -82.15 -168.75 L-80.95 -169.1 Q-84.2 -173.55 -84.2 -179.7 -84.2 -185.2 -80.25 -190.85 -75.3 -197.95 -66.6 -200.85 -61.5 -202.55 -58.1 -201.95 L-58.1 -202.0 Q-59.5 -202.75 -60.2 -206.35 -60.7 -208.5 -60.85 -210.85 -60.85 -216.05 -56.25 -220.65 -49.9 -227.1 -37.55 -227.45 L-34.2 -227.6 -34.9 -230.9 Q-34.9 -238.05 -30.45 -243.95 -23.8 -252.5 -9.15 -255.1 -2.6 -256.2 3.25 -252.05 6.0 -250.15 7.15 -248.55 12.5 -252.05 19.85 -249.6 M-29.1 -190.3 L-21.45 -197.1 -17.45 -199.9 Q-19.2 -200.65 -20.7 -201.85 -19.2 -203.05 -19.2 -204.55 L-19.2 -204.95 Q-17.55 -203.6 -15.65 -202.85 -14.45 -203.1 -13.9 -202.25 L-9.75 -201.8 Q-4.2 -201.8 -0.6 -205.1 L0.4 -206.15 Q0.4 -206.75 0.55 -206.9 L0.7 -207.35 1.2 -206.25 Q2.25 -204.0 4.1 -203.3 4.25 -201.8 4.65 -201.0 7.65 -193.95 24.8 -193.95 34.9 -193.95 39.75 -200.55 42.75 -204.7 42.75 -208.2 42.75 -211.95 40.6 -215.8 36.95 -222.65 28.2 -222.65 24.7 -222.65 21.65 -221.4 18.65 -220.1 17.9 -220.1 16.9 -220.1 16.4 -220.7 L15.9 -220.85 17.7 -224.15 Q21.85 -224.65 23.95 -229.2 25.15 -231.65 25.25 -234.2 25.25 -237.4 23.9 -240.1 22.35 -243.05 18.8 -246.0 16.35 -247.95 11.9 -246.8 8.5 -245.9 6.45 -244.25 5.7 -243.5 4.75 -241.65 3.55 -243.4 2.25 -243.75 L4.15 -246.1 2.65 -248.35 Q-0.3 -251.8 -7.15 -251.8 -20.35 -251.8 -27.2 -241.85 -31.5 -235.65 -31.5 -231.15 L-31.1 -228.9 -30.65 -226.8 -30.75 -225.55 -30.75 -225.45 -30.65 -225.05 Q-30.65 -224.25 -31.45 -223.65 -32.0 -223.35 -32.5 -223.35 -33.2 -223.35 -34.7 -224.25 -47.65 -224.25 -53.75 -218.15 -57.7 -214.3 -57.7 -210.8 -57.7 -208.8 -56.65 -206.15 L-55.65 -203.6 -55.65 -203.35 -53.35 -200.55 Q-55.65 -199.85 -56.1 -197.05 -60.15 -199.9 -65.75 -197.5 -72.65 -195.3 -77.15 -189.1 -81.0 -183.85 -81.0 -179.7 -81.0 -176.1 -78.7 -172.45 -77.75 -170.8 -76.55 -169.65 L-75.6 -168.8 -75.5 -168.75 Q-77.3 -168.0 -77.75 -166.0 L-78.25 -166.3 -82.05 -165.15 -84.9 -163.25 Q-86.95 -161.65 -87.15 -161.65 L-87.65 -161.65 Q-89.3 -160.35 -89.9 -158.7 -91.35 -154.55 -91.35 -152.7 -91.35 -149.25 -89.95 -146.05 -87.55 -140.05 -81.65 -140.05 -74.15 -140.05 -69.75 -145.25 -65.95 -149.7 -65.95 -155.9 -65.95 -156.85 -68.2 -162.85 L-69.9 -163.0 Q-69.35 -164.3 -69.35 -165.35 L-69.4 -166.4 -67.25 -166.3 Q-62.0 -166.3 -57.0 -169.0 -53.95 -170.7 -52.15 -172.55 L-52.3 -173.25 Q-52.3 -175.0 -50.65 -175.0 L-50.5 -175.0 Q-49.75 -176.4 -49.4 -177.65 -49.15 -178.9 -49.15 -181.2 L-45.85 -181.7 Q-45.9 -177.35 -47.55 -173.85 L-45.1 -173.75 Q-39.8 -173.75 -36.15 -179.3 -33.7 -183.0 -32.7 -187.75 L-32.5 -189.65 -32.55 -189.8 -32.5 -190.4 -32.5 -191.25 -32.5 -192.7 Q-31.55 -193.3 -30.45 -194.25 L-29.55 -195.0 Q-29.3 -194.1 -29.3 -191.35 L-29.3 -190.55 -29.15 -190.3 -29.1 -190.3 M83.8 -145.95 Q83.8 -151.9 81.85 -157.05 78.1 -167.25 68.5 -167.25 L66.75 -166.85 64.9 -166.4 64.25 -166.6 Q60.6 -165.75 57.85 -163.85 54.95 -161.95 53.45 -158.95 51.85 -155.55 51.85 -149.25 51.85 -141.6 57.25 -136.3 62.15 -131.55 67.95 -131.55 L73.05 -132.3 74.1 -132.0 75.3 -132.55 Q80.4 -134.85 81.5 -137.3 83.8 -142.65 83.8 -145.95 M66.2 -179.75 L66.2 -182.45 Q66.2 -187.15 64.4 -192.15 61.4 -200.7 54.6 -200.7 45.25 -200.7 42.0 -197.45 40.4 -194.2 39.2 -194.2 L38.45 -194.3 Q37.4 -193.6 36.2 -193.0 L35.85 -191.55 Q35.3 -190.35 35.3 -188.85 L35.95 -183.55 Q36.15 -182.35 37.65 -180.9 L38.05 -180.5 Q44.2 -180.55 47.65 -174.95 50.3 -170.55 50.3 -166.55 L50.3 -166.05 51.0 -165.8 53.6 -164.65 56.25 -167.0 Q57.9 -168.35 59.8 -169.2 59.65 -169.3 59.65 -169.5 L62.05 -171.7 Q64.6 -173.95 65.25 -176.05 L66.2 -179.75 M46.75 -164.65 L46.75 -164.8 Q46.75 -165.35 46.9 -165.7 L46.95 -166.6 46.05 -170.1 44.8 -173.25 Q42.3 -176.8 38.75 -177.05 38.3 -176.7 37.6 -176.7 37.3 -176.7 36.85 -176.95 L31.75 -175.7 Q29.85 -175.7 29.15 -171.55 L28.8 -167.2 Q28.8 -164.45 30.05 -162.1 32.4 -157.5 38.3 -157.5 43.4 -157.5 45.75 -161.95 L46.75 -164.65 M21.45 -179.45 Q20.7 -181.35 17.75 -184.45 16.5 -185.7 14.05 -186.55 L10.35 -188.1 Q8.7 -188.55 5.35 -187.45 4.1 -187.3 2.65 -186.4 L1.1 -185.3 1.15 -184.05 Q0.9 -183.15 -0.3 -183.15 L-1.4 -183.45 -2.15 -184.3 Q-5.25 -180.25 -5.25 -175.7 -5.25 -171.9 -3.3 -168.7 0.25 -162.75 9.5 -162.75 17.7 -162.75 20.8 -168.8 22.35 -171.95 22.3 -175.05 22.3 -177.85 21.45 -179.45 M25.6 -175.0 Q25.6 -170.55 23.35 -166.55 19.25 -159.3 9.5 -159.3 -1.55 -159.3 -6.05 -166.9 -8.5 -171.0 -8.5 -175.55 L-8.55 -179.85 Q-8.4 -180.9 -6.3 -184.45 -5.05 -186.85 -2.85 -188.85 -1.1 -190.6 4.35 -190.75 17.3 -191.15 22.5 -184.65 25.6 -180.75 25.6 -175.0 M37.6 -129.45 L35.0 -131.1 Q32.9 -132.05 30.15 -132.3 26.7 -132.5 24.6 -131.1 19.9 -129.95 17.25 -124.05 15.2 -119.55 15.2 -115.4 15.2 -111.5 17.3 -107.95 20.8 -102.2 28.5 -102.2 36.55 -102.2 40.6 -108.1 43.85 -112.75 43.85 -119.3 43.85 -120.25 42.4 -123.55 L40.35 -127.4 37.6 -129.45 M32.5 -135.8 L37.05 -133.7 40.9 -131.4 Q42.95 -130.05 43.9 -128.85 47.2 -124.5 47.2 -119.15 47.2 -113.85 44.6 -108.3 40.1 -98.95 30.45 -98.95 19.05 -98.95 14.45 -106.55 11.9 -110.7 11.9 -115.3 11.9 -120.1 14.45 -125.5 17.55 -132.25 22.85 -134.55 L25.2 -135.7 Q27.6 -136.3 32.5 -135.8 M4.8 -113.8 Q2.6 -108.5 -3.3 -108.5 -10.15 -108.5 -12.8 -113.45 -14.0 -115.85 -14.0 -119.0 -14.0 -123.95 -10.95 -126.9 -8.1 -129.45 -4.05 -129.5 -0.05 -129.5 2.85 -127.1 5.95 -124.45 5.95 -119.85 5.95 -116.4 4.8 -113.8 M2.65 -119.8 Q2.65 -122.45 1.25 -124.05 -0.85 -126.6 -5.7 -126.05 -7.45 -125.6 -8.25 -124.25 -8.9 -122.75 -9.4 -122.25 -10.85 -120.95 -10.85 -118.85 -10.85 -116.6 -9.7 -114.85 -7.9 -111.95 -3.35 -111.95 0.65 -111.95 2.05 -115.8 2.75 -117.7 2.65 -119.8 M55.1 -120.55 Q53.95 -119.15 52.5 -119.15 51.5 -119.15 51.1 -117.65 50.65 -115.25 50.65 -113.35 50.65 -110.8 51.1 -109.8 52.45 -107.1 57.05 -107.1 60.1 -107.1 61.35 -111.0 62.0 -112.95 62.0 -114.7 62.0 -116.4 60.1 -119.4 57.7 -123.1 55.1 -120.55 M50.15 -121.85 Q52.6 -124.7 56.35 -124.85 59.9 -125.0 62.45 -122.45 65.25 -119.55 65.25 -114.7 65.25 -111.75 64.35 -109.3 L65.2 -110.0 Q68.25 -112.55 73.0 -112.15 77.5 -111.75 80.7 -108.8 84.3 -105.6 84.3 -101.05 84.3 -98.2 82.7 -95.15 80.1 -89.95 74.5 -89.95 65.55 -89.95 62.75 -95.5 61.3 -98.2 61.6 -101.4 61.6 -103.8 62.25 -105.6 60.3 -103.7 57.15 -103.7 50.1 -103.7 48.05 -108.4 46.95 -110.8 47.35 -113.35 47.35 -118.7 50.15 -121.85 M64.9 -101.5 Q64.9 -98.2 65.55 -96.95 67.55 -93.4 74.55 -93.4 78.3 -93.4 80.1 -97.25 81.0 -99.2 81.15 -101.15 81.15 -104.0 78.6 -106.15 76.25 -108.25 73.05 -108.75 69.65 -109.2 67.4 -107.55 64.9 -105.6 64.9 -101.5 M67.65 -79.8 Q69.65 -79.8 70.2 -81.35 70.5 -82.1 70.35 -83.0 L70.05 -84.85 Q69.4 -86.2 67.55 -87.15 65.9 -87.95 63.65 -86.45 61.65 -85.05 61.65 -84.3 61.65 -83.1 63.2 -81.6 65.0 -79.8 67.65 -79.8 M72.9 -79.4 Q71.45 -76.4 67.95 -76.4 62.9 -76.4 60.1 -80.3 58.7 -82.3 58.35 -84.45 58.35 -87.35 60.7 -89.15 62.9 -90.75 65.95 -90.75 73.65 -90.65 73.65 -83.05 73.65 -81.05 72.9 -79.4 M47.35 -83.85 Q43.95 -84.55 40.4 -81.55 40.1 -80.6 40.1 -78.35 40.1 -75.9 40.8 -74.5 42.2 -71.5 46.35 -71.5 51.0 -71.5 52.3 -74.05 52.8 -74.95 52.8 -77.05 52.8 -78.9 51.8 -80.6 50.35 -83.05 47.35 -83.85 M55.05 -82.4 Q56.1 -80.1 56.1 -77.1 56.1 -68.2 46.95 -68.2 39.85 -68.2 37.65 -73.05 36.55 -75.6 36.95 -78.45 L36.95 -80.7 Q37.0 -82.65 37.6 -83.55 38.8 -85.45 40.05 -86.05 42.9 -87.5 49.1 -86.75 53.3 -86.0 55.05 -82.4 M35.9 -87.95 Q35.4 -87.25 34.05 -87.25 32.7 -87.25 32.4 -87.95 L32.35 -88.75 Q32.35 -90.15 34.35 -90.9 36.2 -91.65 36.2 -89.35 L35.9 -87.95 M23.75 -88.9 L23.25 -89.2 23.2 -90.6 Q23.2 -92.25 24.7 -92.2 26.15 -92.15 26.15 -90.9 26.15 -90.3 25.6 -89.5 25.1 -88.75 24.4 -88.75 L23.75 -88.9 M28.15 -77.4 Q29.7 -77.6 29.7 -76.15 29.7 -75.5 29.3 -74.6 28.75 -73.55 28.05 -73.55 26.9 -73.55 26.65 -74.6 26.4 -75.05 26.5 -75.65 26.5 -77.15 28.15 -77.4 M9.5 -84.85 Q7.15 -83.3 5.15 -83.3 3.35 -83.3 2.75 -76.7 2.75 -74.6 4.05 -72.3 6.0 -68.85 9.9 -68.85 14.5 -68.85 16.7 -72.35 18.05 -74.6 18.05 -76.45 18.05 -77.65 17.3 -79.7 16.55 -82.0 15.65 -82.65 11.9 -85.7 9.5 -84.85 M19.5 -83.35 Q21.3 -80.45 21.3 -76.4 21.3 -73.5 19.5 -70.45 L19.45 -70.3 22.45 -70.35 Q25.1 -70.05 27.05 -68.2 29.1 -66.2 29.1 -63.8 29.1 -61.75 28.15 -59.9 26.4 -56.55 22.15 -56.55 17.8 -56.55 16.35 -60.0 15.65 -61.75 15.8 -63.55 15.8 -65.7 16.3 -67.0 13.95 -65.7 10.7 -65.7 3.75 -65.7 0.9 -70.9 -0.4 -73.7 -0.4 -76.7 -0.4 -80.45 1.2 -83.7 3.75 -88.55 9.1 -88.0 L8.8 -87.95 Q16.4 -88.3 19.5 -83.35 M25.9 -63.5 Q25.9 -66.3 22.5 -67.0 19.05 -67.85 19.05 -63.55 19.05 -59.9 21.7 -59.9 23.95 -59.9 25.2 -61.7 25.8 -62.55 25.9 -63.5 M-20.35 -157.8 Q-15.9 -153.5 -15.9 -145.95 -15.9 -142.0 -17.7 -138.35 -21.0 -131.7 -29.1 -131.7 -38.5 -131.7 -42.2 -138.15 -44.2 -141.6 -44.2 -145.4 -44.2 -152.9 -39.75 -157.35 -35.7 -161.35 -30.0 -161.5 -24.25 -161.65 -20.35 -157.8 M-32.55 -157.85 Q-36.7 -155.55 -38.9 -152.1 -40.95 -149.05 -40.95 -145.55 -40.95 -143.5 -38.9 -139.9 -36.1 -135.0 -31.75 -135.0 -23.45 -135.0 -20.45 -140.3 -18.95 -143.0 -19.05 -145.85 -19.05 -149.65 -21.25 -153.2 -24.8 -159.15 -32.55 -157.85 M-60.45 -131.75 Q-63.8 -134.95 -69.35 -133.4 L-71.15 -133.1 Q-72.65 -132.8 -73.45 -131.85 L-75.2 -129.8 Q-75.55 -128.5 -76.3 -127.6 -77.0 -127.0 -77.0 -125.95 -77.0 -123.7 -75.55 -121.6 -73.35 -118.55 -69.2 -118.55 -63.35 -118.55 -60.1 -122.7 -58.05 -125.4 -58.05 -127.2 -58.05 -129.45 -60.45 -131.75 M-54.6 -127.2 Q-54.6 -123.7 -58.0 -120.0 -62.35 -115.1 -69.2 -115.1 -74.15 -115.1 -77.35 -118.65 -80.3 -121.95 -80.3 -125.95 -80.3 -131.1 -76.25 -134.35 -72.7 -137.2 -67.4 -137.35 -62.3 -137.5 -58.65 -134.95 -54.6 -132.15 -54.6 -127.2 M-48.15 -130.4 Q-44.8 -132.45 -40.35 -132.25 -35.6 -131.95 -32.55 -129.2 -29.0 -126.0 -29.0 -120.35 -29.0 -116.9 -29.75 -115.35 -32.0 -111.25 -39.25 -111.25 -46.2 -111.25 -49.25 -115.45 -51.7 -118.85 -51.7 -124.7 -51.7 -128.3 -48.15 -130.4 M-46.75 -126.05 Q-46.5 -125.7 -46.5 -125.15 L-47.8 -121.65 Q-47.8 -119.5 -46.5 -117.65 -44.3 -114.7 -39.25 -114.7 -34.0 -114.7 -32.55 -117.4 -31.85 -118.85 -32.2 -120.25 -32.2 -124.0 -35.3 -127.0 -39.65 -131.35 -47.4 -126.65 L-46.75 -126.05 M-68.75 -109.95 Q-65.0 -107.1 -65.0 -102.2 -65.0 -98.7 -66.95 -95.2 -70.0 -89.65 -76.75 -89.65 -84.7 -89.65 -87.5 -95.5 -88.9 -98.2 -88.9 -102.05 -88.9 -106.8 -85.15 -109.7 -81.75 -112.3 -77.0 -112.35 -72.1 -112.45 -68.75 -109.95 M-77.6 -109.5 Q-78.65 -109.3 -80.9 -108.0 -83.3 -106.75 -83.6 -106.1 -84.15 -104.95 -85.1 -103.8 -85.5 -103.2 -85.5 -102.05 -85.5 -99.3 -84.55 -97.2 -82.65 -92.9 -77.45 -92.9 -71.95 -92.9 -69.6 -97.45 -68.3 -99.8 -68.3 -102.2 -68.3 -105.6 -72.05 -108.0 -75.35 -110.2 -77.6 -109.5 M-21.35 -100.9 Q-16.9 -96.95 -16.9 -90.35 -16.9 -87.2 -19.05 -83.6 -22.8 -77.65 -30.95 -77.65 -41.1 -77.65 -44.3 -83.55 -45.9 -86.55 -45.6 -90.1 -45.6 -97.0 -41.1 -101.05 -37.05 -104.6 -31.2 -104.55 -25.4 -104.45 -21.35 -100.9 M-11.65 -88.75 Q-9.9 -88.95 -9.9 -86.75 -9.9 -85.6 -10.15 -85.2 -10.5 -84.6 -11.5 -84.6 -12.7 -84.6 -13.15 -85.75 L-13.45 -86.9 Q-13.45 -88.65 -11.65 -88.75 M-17.1 -76.2 Q-17.75 -75.6 -18.5 -75.6 -19.75 -75.6 -19.95 -76.45 L-19.95 -77.3 Q-19.95 -79.35 -18.3 -78.95 -16.6 -78.65 -16.6 -77.3 -16.6 -76.7 -17.1 -76.2 M-7.45 -76.85 Q-9.6 -76.85 -9.15 -78.35 -9.15 -80.05 -7.4 -80.05 -5.65 -80.05 -5.65 -78.55 -5.65 -76.85 -7.45 -76.85 M-23.2 -83.8 Q-20.2 -86.45 -20.2 -90.15 -20.2 -95.25 -23.65 -98.35 -26.75 -101.1 -31.2 -101.1 -35.65 -101.15 -38.85 -98.45 -42.3 -95.35 -42.3 -90.15 -42.3 -86.8 -41.1 -85.0 -38.6 -81.05 -31.05 -81.05 -26.35 -81.05 -23.2 -83.8 M-12.4 -69.65 L-12.5 -70.15 Q-13.15 -70.35 -13.4 -71.1 L-13.45 -71.85 Q-13.45 -74.0 -11.65 -73.7 -11.0 -74.6 -9.55 -74.5 -6.6 -74.35 -6.6 -71.7 -6.6 -70.65 -7.45 -69.7 -8.4 -68.6 -9.85 -68.6 -11.9 -68.6 -12.4 -69.65 M-53.05 -79.4 Q-53.05 -77.4 -54.45 -74.95 -56.4 -71.15 -60.1 -71.15 -64.55 -71.15 -66.4 -75.8 -67.3 -78.15 -67.35 -80.7 -67.35 -84.1 -65.05 -85.7 -63.1 -87.15 -60.15 -86.75 -57.25 -86.35 -55.25 -84.45 -53.05 -82.35 -53.05 -79.4 M-60.15 -83.5 Q-64.05 -84.4 -64.05 -80.05 -64.05 -78.65 -63.4 -77.1 -62.3 -74.6 -60.1 -74.6 -58.05 -74.6 -57.0 -77.0 -56.45 -78.2 -56.3 -79.5 -56.3 -82.65 -60.15 -83.5" fill="#2f2f2f" fill-rule="evenodd" stroke="none"/>
    <path d="M-29.3 -190.55 L-29.3 -191.35 Q-29.3 -194.1 -29.55 -195.0 L-30.45 -194.25 Q-31.55 -193.3 -32.5 -192.7 L-32.5 -191.25 -32.5 -190.4 -32.55 -189.8 -32.5 -189.65 -32.7 -187.75 Q-33.7 -183.0 -36.15 -179.3 -39.8 -173.75 -45.1 -173.75 L-47.55 -173.85 Q-45.9 -177.35 -45.85 -181.7 L-49.15 -181.2 Q-49.15 -178.9 -49.4 -177.65 -49.75 -176.4 -50.5 -175.0 L-50.65 -175.0 Q-52.3 -175.0 -52.3 -173.25 L-52.15 -172.55 Q-53.95 -170.7 -57.0 -169.0 -62.0 -166.3 -67.25 -166.3 L-69.4 -166.4 -69.35 -165.35 Q-69.35 -164.3 -69.9 -163.0 L-68.2 -162.85 Q-65.95 -156.85 -65.95 -155.9 -65.95 -149.7 -69.75 -145.25 -74.15 -140.05 -81.65 -140.05 -87.55 -140.05 -89.95 -146.05 -91.35 -149.25 -91.35 -152.7 -91.35 -154.55 -89.9 -158.7 -89.3 -160.35 -87.65 -161.65 L-87.15 -161.65 Q-86.95 -161.65 -84.9 -163.25 L-82.05 -165.15 -78.25 -166.3 -77.75 -166.0 Q-77.3 -168.0 -75.5 -168.75 L-75.6 -168.8 -76.55 -169.65 Q-77.75 -170.8 -78.7 -172.45 -81.0 -176.1 -81.0 -179.7 -81.0 -183.85 -77.15 -189.1 -72.65 -195.3 -65.75 -197.5 -60.15 -199.9 -56.1 -197.05 -55.65 -199.85 -53.35 -200.55 L-55.65 -203.35 -55.65 -203.6 -56.65 -206.15 Q-57.7 -208.8 -57.7 -210.8 -57.7 -214.3 -53.75 -218.15 -47.65 -224.25 -34.7 -224.25 -33.2 -223.35 -32.5 -223.35 -32.0 -223.35 -31.45 -223.65 -30.65 -224.25 -30.65 -225.05 L-30.75 -225.45 -30.75 -225.55 -30.65 -226.8 -31.1 -228.9 -31.5 -231.15 Q-31.5 -235.65 -27.2 -241.85 -20.35 -251.8 -7.15 -251.8 -0.3 -251.8 2.65 -248.35 L4.15 -246.1 2.25 -243.75 Q3.55 -243.4 4.75 -241.65 5.7 -243.5 6.45 -244.25 8.5 -245.9 11.9 -246.8 16.35 -247.95 18.8 -246.0 22.35 -243.05 23.9 -240.1 25.25 -237.4 25.25 -234.2 25.15 -231.65 23.95 -229.2 21.85 -224.65 17.7 -224.15 L15.9 -220.85 16.4 -220.7 Q16.9 -220.1 17.9 -220.1 18.65 -220.1 21.65 -221.4 24.7 -222.65 28.2 -222.65 36.95 -222.65 40.6 -215.8 42.75 -211.95 42.75 -208.2 42.75 -204.7 39.75 -200.55 34.9 -193.95 24.8 -193.95 7.65 -193.95 4.65 -201.0 4.25 -201.8 4.1 -203.3 2.25 -204.0 1.2 -206.25 L0.7 -207.35 0.55 -206.9 Q0.4 -206.75 0.4 -206.15 L-0.6 -205.1 Q-4.2 -201.8 -9.75 -201.8 L-13.9 -202.25 Q-14.45 -203.1 -15.65 -202.85 -17.55 -203.6 -19.2 -204.95 L-19.2 -204.55 Q-19.2 -203.05 -20.7 -201.85 -19.2 -200.65 -17.45 -199.9 L-21.45 -197.1 -29.1 -190.3 -29.3 -190.55 M21.45 -179.45 Q22.3 -177.85 22.3 -175.05 22.35 -171.95 20.8 -168.8 17.7 -162.75 9.5 -162.75 0.25 -162.75 -3.3 -168.7 -5.25 -171.9 -5.25 -175.7 -5.25 -180.25 -2.15 -184.3 L-1.4 -183.45 -0.3 -183.15 Q0.9 -183.15 1.15 -184.05 L1.1 -185.3 2.65 -186.4 Q4.1 -187.3 5.35 -187.45 8.7 -188.55 10.35 -188.1 L14.05 -186.55 Q16.5 -185.7 17.75 -184.45 20.7 -181.35 21.45 -179.45 M46.75 -164.65 L45.75 -161.95 Q43.4 -157.5 38.3 -157.5 32.4 -157.5 30.05 -162.1 28.8 -164.45 28.8 -167.2 L29.15 -171.55 Q29.85 -175.7 31.75 -175.7 L36.85 -176.95 Q37.3 -176.7 37.6 -176.7 38.3 -176.7 38.75 -177.05 42.3 -176.8 44.8 -173.25 L46.05 -170.1 46.95 -166.6 46.9 -165.7 Q46.75 -165.35 46.75 -164.8 L46.75 -164.65 M66.2 -179.75 L65.25 -176.05 Q64.6 -173.95 62.05 -171.7 L59.65 -169.5 Q59.65 -169.3 59.8 -169.2 57.9 -168.35 56.25 -167.0 L53.6 -164.65 51.0 -165.8 50.3 -166.05 50.3 -166.55 Q50.3 -170.55 47.65 -174.95 44.2 -180.55 38.05 -180.5 L37.65 -180.9 Q36.15 -182.35 35.95 -183.55 L35.3 -188.85 Q35.3 -190.35 35.85 -191.55 L36.2 -193.0 Q37.4 -193.6 38.45 -194.3 L39.2 -194.2 Q40.4 -194.2 42.0 -197.45 45.25 -200.7 54.6 -200.7 61.4 -200.7 64.4 -192.15 66.2 -187.15 66.2 -182.45 L66.2 -179.75 M83.8 -145.95 Q83.8 -142.65 81.5 -137.3 80.4 -134.85 75.3 -132.55 L74.1 -132.0 73.05 -132.3 67.95 -131.55 Q62.15 -131.55 57.25 -136.3 51.85 -141.6 51.85 -149.25 51.85 -155.55 53.45 -158.95 54.95 -161.95 57.85 -163.85 60.6 -165.75 64.25 -166.6 L64.9 -166.4 66.75 -166.85 68.5 -167.25 Q78.1 -167.25 81.85 -157.05 83.8 -151.9 83.8 -145.95 M37.6 -129.45 L40.35 -127.4 42.4 -123.55 Q43.85 -120.25 43.85 -119.3 43.85 -112.75 40.6 -108.1 36.55 -102.2 28.5 -102.2 20.8 -102.2 17.3 -107.95 15.2 -111.5 15.2 -115.4 15.2 -119.55 17.25 -124.05 19.9 -129.95 24.6 -131.1 26.7 -132.5 30.15 -132.3 32.9 -132.05 35.0 -131.1 L37.6 -129.45 M55.1 -120.55 Q57.7 -123.1 60.1 -119.4 62.0 -116.4 62.0 -114.7 62.0 -112.95 61.35 -111.0 60.1 -107.1 57.05 -107.1 52.45 -107.1 51.1 -109.8 50.65 -110.8 50.65 -113.35 50.65 -115.25 51.1 -117.65 51.5 -119.15 52.5 -119.15 53.95 -119.15 55.1 -120.55 M2.65 -119.8 Q2.75 -117.7 2.05 -115.8 0.65 -111.95 -3.35 -111.95 -7.9 -111.95 -9.7 -114.85 -10.85 -116.6 -10.85 -118.85 -10.85 -120.95 -9.4 -122.25 -8.9 -122.75 -8.25 -124.25 -7.45 -125.6 -5.7 -126.05 -0.85 -126.6 1.25 -124.05 2.65 -122.45 2.65 -119.8 M67.65 -79.8 Q65.0 -79.8 63.2 -81.6 61.65 -83.1 61.65 -84.3 61.65 -85.05 63.65 -86.45 65.9 -87.95 67.55 -87.15 69.4 -86.2 70.05 -84.85 L70.35 -83.0 Q70.5 -82.1 70.2 -81.35 69.65 -79.8 67.65 -79.8 M64.9 -101.5 Q64.9 -105.6 67.4 -107.55 69.65 -109.2 73.05 -108.75 76.25 -108.25 78.6 -106.15 81.15 -104.0 81.15 -101.15 81.0 -99.2 80.1 -97.25 78.3 -93.4 74.55 -93.4 67.55 -93.4 65.55 -96.95 64.9 -98.2 64.9 -101.5 M47.35 -83.85 Q50.35 -83.05 51.8 -80.6 52.8 -78.9 52.8 -77.05 52.8 -74.95 52.3 -74.05 51.0 -71.5 46.35 -71.5 42.2 -71.5 40.8 -74.5 40.1 -75.9 40.1 -78.35 40.1 -80.6 40.4 -81.55 43.95 -84.55 47.35 -83.85 M9.5 -84.85 Q11.9 -85.7 15.65 -82.65 16.55 -82.0 17.3 -79.7 18.05 -77.65 18.05 -76.45 18.05 -74.6 16.7 -72.35 14.5 -68.85 9.9 -68.85 6.0 -68.85 4.05 -72.3 2.75 -74.6 2.75 -76.7 3.35 -83.3 5.15 -83.3 7.15 -83.3 9.5 -84.85 M25.9 -63.5 Q25.8 -62.55 25.2 -61.7 23.95 -59.9 21.7 -59.9 19.05 -59.9 19.05 -63.55 19.05 -67.85 22.5 -67.0 25.9 -66.3 25.9 -63.5 M-60.45 -131.75 Q-58.05 -129.45 -58.05 -127.2 -58.05 -125.4 -60.1 -122.7 -63.35 -118.55 -69.2 -118.55 -73.35 -118.55 -75.55 -121.6 -77.0 -123.7 -77.0 -125.95 -77.0 -127.0 -76.3 -127.6 -75.55 -128.5 -75.2 -129.8 L-73.45 -131.85 Q-72.65 -132.8 -71.15 -133.1 L-69.35 -133.4 Q-63.8 -134.95 -60.45 -131.75 M-32.55 -157.85 Q-24.8 -159.15 -21.25 -153.2 -19.05 -149.65 -19.05 -145.85 -18.95 -143.0 -20.45 -140.3 -23.45 -135.0 -31.75 -135.0 -36.1 -135.0 -38.9 -139.9 -40.95 -143.5 -40.95 -145.55 -40.95 -149.05 -38.9 -152.1 -36.7 -155.55 -32.55 -157.85 M-46.75 -126.05 L-47.4 -126.65 Q-39.65 -131.35 -35.3 -127.0 -32.2 -124.0 -32.2 -120.25 -31.85 -118.85 -32.55 -117.4 -34.0 -114.7 -39.25 -114.7 -44.3 -114.7 -46.5 -117.65 -47.8 -119.5 -47.8 -121.65 L-46.5 -125.15 Q-46.5 -125.7 -46.75 -126.05 M-77.6 -109.5 Q-75.35 -110.2 -72.05 -108.0 -68.3 -105.6 -68.3 -102.2 -68.3 -99.8 -69.6 -97.45 -71.95 -92.9 -77.45 -92.9 -82.65 -92.9 -84.55 -97.2 -85.5 -99.3 -85.5 -102.05 -85.5 -103.2 -85.1 -103.8 -84.15 -104.95 -83.6 -106.1 -83.3 -106.75 -80.9 -108.0 -78.65 -109.3 -77.6 -109.5 M-23.2 -83.8 Q-26.35 -81.05 -31.05 -81.05 -38.6 -81.05 -41.1 -85.0 -42.3 -86.8 -42.3 -90.15 -42.3 -95.35 -38.85 -98.45 -35.65 -101.15 -31.2 -101.1 -26.75 -101.1 -23.65 -98.35 -20.2 -95.25 -20.2 -90.15 -20.2 -86.45 -23.2 -83.8 M-60.15 -83.5 Q-56.3 -82.65 -56.3 -79.5 -56.45 -78.2 -57.0 -77.0 -58.05 -74.6 -60.1 -74.6 -62.3 -74.6 -63.4 -77.1 -64.05 -78.65 -64.05 -80.05 -64.05 -84.4 -60.15 -83.5" fill="#444444" fill-rule="evenodd" stroke="none"/>
    <path d="M0.9 -199.2 L1.85 -198.75 1.5 -199.5 Q0.65 -200.9 -1.7 -201.95 -5.25 -203.25 -10.9 -203.25 -19.35 -203.25 -27.25 -198.8 -35.35 -194.3 -37.25 -188.2 -38.2 -185.25 -40.25 -185.6 -43.35 -186.0 -47.0 -182.4 L-55.45 -175.1 Q-59.0 -171.4 -59.0 -165.15 -59.0 -161.6 -58.05 -158.3 -57.9 -153.55 -55.0 -148.15 -51.95 -142.55 -49.65 -142.55 -49.3 -142.55 -46.8 -151.05 -43.8 -159.55 -40.55 -159.55 -38.35 -159.55 -35.6 -156.4 L-33.95 -154.1 -34.7 -151.2 Q-39.95 -148.25 -42.55 -145.4 -47.6 -139.7 -47.6 -131.15 -47.6 -122.3 -42.3 -117.0 -40.75 -115.35 -38.45 -114.0 L-36.2 -112.65 -36.95 -114.3 Q-37.55 -115.75 -37.55 -117.7 -37.55 -125.5 -34.05 -131.55 -32.65 -126.15 -29.25 -122.5 -24.95 -117.8 -20.0 -117.8 L-17.85 -118.15 -15.95 -118.25 -15.8 -118.4 Q-20.1 -120.9 -26.1 -132.4 L-28.75 -138.15 Q-23.4 -142.8 -16.4 -142.8 -9.75 -142.8 -6.0 -140.55 -3.7 -139.25 -0.25 -135.2 L-0.55 -137.8 Q-0.55 -143.25 3.5 -146.85 7.5 -150.4 13.6 -150.4 23.5 -150.4 28.15 -145.9 L32.25 -140.6 Q35.45 -136.1 37.5 -133.65 38.45 -134.75 38.6 -135.45 L38.75 -137.35 Q38.75 -141.45 34.7 -148.65 28.55 -159.65 16.55 -165.3 L15.65 -165.75 Q11.1 -167.85 5.5 -167.85 0.35 -167.85 -4.2 -166.0 -7.65 -164.5 -9.3 -162.3 L-3.1 -163.05 Q-7.15 -162.75 -10.3 -158.45 -13.2 -154.5 -13.2 -151.0 L-18.8 -160.2 Q-21.05 -165.15 -21.05 -172.55 -21.05 -185.7 -15.8 -190.55 -13.6 -192.65 -9.15 -194.7 L0.9 -199.2 M54.45 -161.1 Q54.45 -172.1 49.75 -178.75 46.1 -183.8 38.65 -187.25 44.65 -180.55 46.75 -168.75 48.4 -159.9 48.4 -143.45 48.4 -137.0 47.35 -130.15 46.15 -123.3 44.25 -118.8 54.85 -127.15 54.85 -141.05 L54.65 -144.8 Q54.25 -147.15 52.75 -146.9 52.75 -149.6 53.6 -154.05 54.45 -158.65 54.45 -161.1 M61.2 -169.25 Q65.25 -159.95 66.2 -151.95 66.55 -148.6 66.6 -142.05 L66.6 -135.2 66.55 -129.35 Q66.3 -126.55 65.0 -123.3 63.8 -120.2 61.45 -116.8 L62.5 -115.0 Q65.35 -110.05 65.35 -106.8 65.35 -91.55 51.8 -77.5 39.15 -64.6 29.0 -64.6 26.9 -64.6 26.3 -65.6 L26.25 -66.65 Q26.25 -67.45 29.2 -72.25 L32.25 -77.35 Q33.45 -80.15 35.45 -87.65 L35.45 -90.85 35.35 -91.1 Q33.55 -88.4 29.55 -84.75 24.3 -79.65 21.1 -79.65 19.6 -79.65 19.25 -80.7 L19.05 -81.75 20.5 -86.65 Q21.9 -91.35 21.9 -92.95 21.9 -98.7 18.85 -104.4 13.4 -114.4 1.15 -114.4 -13.1 -114.4 -19.6 -103.4 -22.9 -97.75 -23.1 -92.7 L-23.1 -92.55 -22.85 -91.55 -23.25 -90.7 Q-23.1 -87.9 -22.25 -85.45 L-22.05 -85.05 -19.6 -80.7 Q-19.6 -78.95 -21.55 -78.95 -24.5 -78.95 -26.65 -84.4 -27.5 -82.4 -27.5 -80.7 -27.5 -75.6 -24.95 -70.2 -23.1 -66.05 -21.05 -64.65 -18.25 -62.8 -12.55 -62.8 -11.5 -62.8 -10.9 -61.95 L-10.7 -61.15 Q-10.7 -59.55 -14.15 -58.5 -17.75 -57.3 -22.7 -57.3 -34.25 -57.3 -39.8 -66.65 -42.55 -71.3 -43.05 -76.5 -43.05 -79.35 -42.45 -81.95 L-45.3 -81.95 Q-55.6 -81.95 -64.6 -88.7 -76.35 -97.4 -76.35 -112.95 -76.35 -119.4 -71.85 -125.3 -67.75 -130.6 -61.15 -134.15 L-60.7 -134.15 -62.55 -138.05 Q-64.1 -141.4 -64.5 -143.3 -64.7 -144.5 -65.35 -145.2 L-64.8 -145.5 Q-65.8 -149.5 -66.05 -151.8 L-66.15 -152.4 Q-66.6 -155.1 -66.6 -158.05 -66.6 -173.6 -56.0 -187.45 -41.3 -206.45 -12.3 -209.65 3.05 -212.9 14.75 -200.65 18.4 -196.95 21.05 -192.1 L20.1 -192.9 Q14.85 -197.15 10.15 -197.15 0.35 -197.15 -6.0 -190.65 -12.3 -184.15 -12.3 -174.4 -12.3 -172.7 -11.9 -169.95 L-11.9 -168.35 Q-11.75 -167.0 -11.1 -165.4 L-10.7 -164.35 Q-9.1 -167.5 -2.5 -171.8 5.45 -177.15 12.1 -177.15 16.95 -177.15 21.1 -173.0 24.05 -170.1 24.7 -167.25 L24.75 -167.2 25.05 -167.4 Q29.0 -168.35 31.7 -171.2 35.05 -174.85 35.05 -180.5 35.05 -184.55 31.8 -194.1 31.2 -195.7 28.05 -198.3 30.8 -197.65 35.2 -195.75 46.15 -190.85 50.25 -186.55 56.8 -179.65 61.2 -169.25 M21.25 -182.25 Q20.25 -182.25 20.05 -182.95 19.85 -183.3 20.0 -183.7 20.0 -185.0 21.25 -185.15 22.5 -185.15 22.5 -183.75 22.5 -182.25 21.25 -182.25 M15.25 -190.45 Q15.25 -191.9 16.55 -191.9 17.8 -191.9 17.8 -190.5 17.8 -189.0 16.55 -189.0 15.6 -189.0 15.35 -189.7 L15.25 -190.45 M2.5 -187.8 L1.85 -187.85 1.4 -188.2 1.25 -189.2 Q1.25 -190.45 2.5 -190.3 3.8 -190.25 3.8 -189.05 L3.45 -188.25 Q3.05 -187.8 2.5 -187.8 M55.05 -112.75 Q53.15 -114.15 51.1 -114.15 47.35 -114.15 43.3 -111.6 41.15 -110.25 40.2 -109.0 L40.05 -109.05 40.15 -110.35 40.2 -115.65 40.2 -121.9 Q39.75 -124.55 36.95 -126.8 34.45 -128.8 30.4 -130.25 26.4 -131.65 23.5 -131.65 18.9 -131.65 14.7 -129.6 12.15 -128.45 10.5 -126.95 L9.65 -127.05 9.9 -126.65 9.95 -126.5 10.7 -125.25 Q13.8 -121.65 15.75 -118.55 19.3 -112.9 20.45 -108.7 L22.85 -99.95 Q23.3 -97.5 23.3 -93.3 23.3 -90.85 22.9 -88.25 L22.5 -84.05 Q25.1 -88.85 25.9 -92.3 26.55 -95.2 26.55 -100.95 26.55 -109.55 24.7 -115.2 23.75 -118.2 22.2 -120.85 L16.85 -124.15 Q13.4 -126.15 11.3 -126.75 L12.95 -126.8 Q20.9 -126.8 26.1 -118.75 30.65 -111.6 30.65 -103.3 30.65 -100.3 29.5 -96.8 28.35 -93.7 28.35 -93.25 L28.55 -93.15 Q34.0 -100.5 36.7 -100.5 38.55 -100.5 39.75 -99.45 41.25 -98.2 41.25 -95.6 41.25 -91.6 36.3 -81.75 L29.6 -69.1 30.85 -69.1 Q40.95 -72.75 49.0 -79.9 59.4 -89.25 59.5 -99.8 L59.65 -102.6 59.5 -104.25 58.25 -108.75 55.2 -116.15 55.05 -112.75 M0.15 -108.15 Q-0.25 -107.85 -0.6 -107.85 -2.25 -107.85 -2.2 -109.55 -2.2 -111.1 -0.75 -110.75 0.6 -110.5 0.6 -109.15 0.6 -108.5 0.15 -108.15 M5.6 -106.25 Q5.6 -107.75 6.85 -107.75 8.1 -107.75 8.1 -106.3 8.1 -104.8 6.85 -104.8 5.35 -104.8 5.6 -106.25 M11.3 -91.25 Q13.8 -86.05 13.8 -81.05 13.8 -74.65 8.9 -69.2 4.25 -64.2 -1.85 -63.05 -8.45 -61.9 -12.7 -66.0 -17.6 -70.85 -17.6 -81.45 -17.65 -86.6 -15.75 -90.9 -11.95 -99.75 -2.1 -99.75 7.1 -99.75 11.3 -91.25 M4.45 -87.45 L4.45 -89.85 Q4.3 -90.75 3.5 -91.5 3.4 -89.65 1.25 -87.45 -1.4 -84.65 -4.85 -84.65 -7.25 -84.65 -10.45 -86.8 -12.9 -88.45 -13.7 -89.7 L-13.75 -89.65 Q-13.5 -88.8 -13.7 -88.05 L-12.3 -85.1 Q-8.85 -78.7 -3.55 -78.7 0.05 -78.7 2.4 -81.85 4.45 -84.65 4.45 -87.45 M0.05 -96.9 Q-0.95 -98.45 -2.35 -98.45 -3.8 -98.45 -5.25 -96.95 L-5.85 -96.2 -6.45 -95.3 -6.55 -94.8 -6.45 -93.55 Q-6.0 -90.35 -2.6 -90.35 0.9 -90.35 0.9 -94.0 0.9 -95.55 0.05 -96.9 M19.0 -71.55 Q19.0 -70.4 17.45 -70.4 16.4 -70.4 16.05 -71.0 L15.95 -71.65 Q15.95 -72.95 17.45 -72.9 19.0 -72.85 19.0 -71.55 M12.15 -63.0 Q11.3 -62.2 10.7 -62.2 9.7 -62.2 9.4 -62.9 L9.25 -63.6 Q9.25 -64.5 11.2 -65.55 13.15 -66.45 13.15 -64.5 13.15 -63.7 12.15 -63.0 M-13.2 -151.0 L-12.95 -150.65 -13.2 -150.65 -13.2 -151.0 M-55.15 -88.05 L-55.1 -88.05 -50.4 -86.6 -48.4 -86.6 Q-49.2 -88.5 -52.9 -95.4 -56.25 -102.9 -56.25 -110.25 -56.25 -123.65 -48.4 -128.15 L-50.8 -130.75 Q-51.95 -131.9 -54.65 -131.9 -57.6 -131.9 -61.75 -129.35 L-62.4 -128.85 -62.4 -129.0 -62.55 -128.75 -65.85 -124.9 Q-71.05 -118.0 -71.05 -111.2 -71.05 -103.5 -65.2 -95.8 -59.8 -88.85 -54.2 -87.45 L-55.15 -88.05 M-52.0 -105.75 Q-52.0 -96.95 -47.15 -89.1 -44.5 -84.65 -42.15 -82.95 -40.35 -89.9 -34.35 -94.95 -31.95 -96.95 -29.9 -97.8 L-30.75 -104.3 Q-40.65 -105.85 -49.9 -115.25 -52.0 -111.0 -52.0 -105.75 M-11.55 -99.95 Q-13.55 -99.95 -13.55 -102.1 -13.55 -104.0 -11.7 -104.5 -9.95 -104.8 -9.95 -102.45 -9.95 -101.7 -10.35 -100.95 -10.85 -99.95 -11.55 -99.95 M-37.35 -85.6 L-37.5 -86.05 -37.75 -86.3 Q-39.4 -84.65 -39.4 -80.4 -39.4 -74.9 -34.95 -70.05 -31.0 -65.6 -27.75 -65.65 L-26.3 -65.65 Q-32.35 -68.3 -35.35 -77.0 L-37.35 -85.6" fill="#fd0202" fill-rule="evenodd" stroke="none"/>
    <path d="M-58.05 -158.3 Q-59.0 -161.6 -59.0 -165.15 -59.0 -171.4 -55.45 -175.1 L-47.0 -182.4 Q-43.35 -186.0 -40.25 -185.6 -38.2 -185.25 -37.25 -188.2 -35.35 -194.3 -27.25 -198.8 -19.35 -203.25 -10.9 -203.25 -5.25 -203.25 -1.7 -201.95 0.65 -200.9 1.5 -199.5 L1.85 -198.75 0.9 -199.2 -1.0 -200.25 Q-3.2 -201.2 -6.4 -201.2 -25.7 -201.2 -36.15 -184.2 L-36.15 -183.8 -38.5 -183.75 -41.3 -183.55 Q-43.35 -182.9 -46.1 -178.75 -49.2 -176.3 -52.25 -171.2 -56.8 -163.6 -56.8 -156.8 L-56.7 -154.8 -58.05 -158.3 M-3.1 -163.05 L-9.3 -162.3 Q-7.65 -164.5 -4.2 -166.0 0.35 -167.85 5.5 -167.85 11.1 -167.85 15.65 -165.75 L16.55 -165.3 Q19.7 -163.7 22.3 -160.9 28.15 -154.7 27.35 -148.6 L16.0 -157.25 Q7.15 -163.15 -0.35 -163.15 L-2.3 -163.05 -3.1 -163.05 M-28.75 -138.15 L-26.1 -132.4 Q-20.1 -120.9 -15.8 -118.4 L-15.95 -118.25 -17.85 -118.15 -20.0 -117.8 Q-24.95 -117.8 -29.25 -122.5 -32.65 -126.15 -34.05 -131.55 -35.2 -135.75 -35.2 -141.0 -35.2 -147.8 -34.75 -150.95 L-34.7 -151.2 -33.95 -154.1 Q-33.45 -155.5 -32.75 -156.4 L-32.75 -155.5 -32.4 -150.95 Q-31.6 -145.05 -28.75 -138.15 M54.45 -161.1 Q54.45 -158.65 53.6 -154.05 52.75 -149.6 52.75 -146.9 54.25 -147.15 54.65 -144.8 L54.85 -141.05 Q54.85 -127.15 44.25 -118.8 46.15 -123.3 47.35 -130.15 48.4 -137.0 48.4 -143.45 48.4 -159.9 46.75 -168.75 44.65 -180.55 38.65 -187.25 46.1 -183.8 49.75 -178.75 54.45 -172.1 54.45 -161.1 M55.05 -112.75 L55.2 -116.15 58.25 -108.75 59.5 -104.25 59.65 -102.6 59.5 -99.8 Q58.7 -93.55 54.3 -88.4 50.25 -83.8 41.15 -78.1 L40.1 -78.1 40.1 -78.3 Q43.5 -80.75 49.05 -92.9 54.05 -103.9 55.05 -112.75 M11.3 -126.75 Q13.4 -126.15 16.85 -124.15 L22.2 -120.85 Q23.75 -118.2 24.7 -115.2 26.55 -109.55 26.55 -100.95 26.55 -95.2 25.9 -92.3 25.1 -88.85 22.5 -84.05 L22.9 -88.25 Q23.3 -90.85 23.3 -93.3 23.3 -97.5 22.85 -99.95 L20.45 -108.7 Q19.3 -112.9 15.75 -118.55 13.8 -121.65 10.7 -125.25 L9.95 -126.5 9.9 -126.65 9.65 -127.05 10.5 -126.95 11.3 -126.75 M0.05 -96.9 Q0.9 -95.55 0.9 -94.0 0.9 -90.35 -2.6 -90.35 -6.0 -90.35 -6.45 -93.55 L-6.55 -94.8 -6.45 -95.3 -5.85 -96.2 -5.25 -96.95 Q-3.8 -98.45 -2.35 -98.45 -0.95 -98.45 0.05 -96.9 M4.45 -87.45 Q4.45 -84.65 2.4 -81.85 0.05 -78.7 -3.55 -78.7 -8.85 -78.7 -12.3 -85.1 L-13.7 -88.05 Q-13.5 -88.8 -13.75 -89.65 L-13.7 -89.7 Q-12.9 -88.45 -10.45 -86.8 -7.25 -84.65 -4.85 -84.65 -1.4 -84.65 1.25 -87.45 3.4 -89.65 3.5 -91.5 4.3 -90.75 4.45 -89.85 L4.45 -87.45 M-55.15 -88.05 L-54.2 -87.45 Q-59.8 -88.85 -65.2 -95.8 -71.05 -103.5 -71.05 -111.2 -71.05 -118.0 -65.85 -124.9 L-62.55 -128.75 -62.4 -129.0 -62.4 -128.85 -64.7 -123.05 Q-65.7 -120.1 -65.7 -114.5 -65.7 -105.05 -62.4 -97.65 L-59.95 -93.15 Q-57.9 -90.05 -55.15 -88.05 M-37.35 -85.6 L-35.35 -77.0 Q-32.35 -68.3 -26.3 -65.65 L-27.75 -65.65 Q-31.0 -65.6 -34.95 -70.05 -39.4 -74.9 -39.4 -80.4 -39.4 -84.65 -37.75 -86.3 L-37.5 -86.05 -37.35 -85.6" fill="#ffff99" fill-rule="evenodd" stroke="none"/>
    <path d="M-58.05 -158.3 L-56.7 -154.8 -56.8 -156.8 Q-56.8 -163.6 -52.25 -171.2 -49.2 -176.3 -46.1 -178.75 -43.35 -182.9 -41.3 -183.55 L-38.5 -183.75 -36.15 -183.8 -36.15 -184.2 Q-25.7 -201.2 -6.4 -201.2 -3.2 -201.2 -1.0 -200.25 L0.9 -199.2 -9.15 -194.7 Q-13.6 -192.65 -15.8 -190.55 -21.05 -185.7 -21.05 -172.55 -21.05 -165.15 -18.8 -160.2 L-13.2 -151.0 Q-13.2 -154.5 -10.3 -158.45 -7.15 -162.75 -3.1 -163.05 L-2.3 -163.05 -0.35 -163.15 Q7.15 -163.15 16.0 -157.25 L27.35 -148.6 Q28.15 -154.7 22.3 -160.9 19.7 -163.7 16.55 -165.3 28.55 -159.65 34.7 -148.65 38.75 -141.45 38.75 -137.35 L38.6 -135.45 Q38.45 -134.75 37.5 -133.65 35.45 -136.1 32.25 -140.6 L28.15 -145.9 Q23.5 -150.4 13.6 -150.4 7.5 -150.4 3.5 -146.85 -0.55 -143.25 -0.55 -137.8 L-0.25 -135.2 Q-3.7 -139.25 -6.0 -140.55 -9.75 -142.8 -16.4 -142.8 -23.4 -142.8 -28.75 -138.15 -31.6 -145.05 -32.4 -150.95 L-32.75 -155.5 -32.75 -156.4 Q-33.45 -155.5 -33.95 -154.1 L-35.6 -156.4 Q-38.35 -159.55 -40.55 -159.55 -43.8 -159.55 -46.8 -151.05 -49.3 -142.55 -49.65 -142.55 -51.95 -142.55 -55.0 -148.15 -57.9 -153.55 -58.05 -158.3 M-34.05 -131.55 Q-37.55 -125.5 -37.55 -117.7 -37.55 -115.75 -36.95 -114.3 L-36.2 -112.65 -38.45 -114.0 Q-40.75 -115.35 -42.3 -117.0 -47.6 -122.3 -47.6 -131.15 -47.6 -139.7 -42.55 -145.4 -39.95 -148.25 -34.7 -151.2 L-34.75 -150.95 Q-35.2 -147.8 -35.2 -141.0 -35.2 -135.75 -34.05 -131.55 M10.5 -126.95 Q12.15 -128.45 14.7 -129.6 18.9 -131.65 23.5 -131.65 26.4 -131.65 30.4 -130.25 34.45 -128.8 36.95 -126.8 39.75 -124.55 40.2 -121.9 L40.2 -115.65 40.15 -110.35 40.05 -109.05 40.2 -109.0 Q41.15 -110.25 43.3 -111.6 47.35 -114.15 51.1 -114.15 53.15 -114.15 55.05 -112.75 54.05 -103.9 49.05 -92.9 43.5 -80.75 40.1 -78.3 L40.1 -78.1 41.15 -78.1 Q50.25 -83.8 54.3 -88.4 58.7 -93.55 59.5 -99.8 59.4 -89.25 49.0 -79.9 40.95 -72.75 30.85 -69.1 L29.6 -69.1 36.3 -81.75 Q41.25 -91.6 41.25 -95.6 41.25 -98.2 39.75 -99.45 38.55 -100.5 36.7 -100.5 34.0 -100.5 28.55 -93.15 L28.35 -93.25 Q28.35 -93.7 29.5 -96.8 30.65 -100.3 30.65 -103.3 30.65 -111.6 26.1 -118.75 20.9 -126.8 12.95 -126.8 L11.3 -126.75 10.5 -126.95 M-13.2 -151.0 L-13.2 -150.65 -12.95 -150.65 -13.2 -151.0 M-62.4 -128.85 L-61.75 -129.35 Q-57.6 -131.9 -54.65 -131.9 -51.95 -131.9 -50.8 -130.75 L-48.4 -128.15 Q-56.25 -123.65 -56.25 -110.25 -56.25 -102.9 -52.9 -95.4 -49.2 -88.5 -48.4 -86.6 L-50.4 -86.6 -55.1 -88.05 -55.15 -88.05 Q-57.9 -90.05 -59.95 -93.15 L-62.4 -97.65 Q-65.7 -105.05 -65.7 -114.5 -65.7 -120.1 -64.7 -123.05 L-62.4 -128.85" fill="#ffff00" fill-rule="evenodd" stroke="none"/>
    <path d="M79.9 -77.45 Q79.9 -79.8 81.75 -80.05 83.65 -80.35 83.65 -77.25 83.65 -75.8 82.2 -75.8 80.7 -75.8 80.1 -76.6 L79.9 -77.45 M73.6 -75.45 Q73.6 -76.45 74.85 -77.05 76.1 -77.6 76.1 -76.35 76.1 -75.95 75.45 -75.4 74.75 -74.75 74.4 -74.75 73.6 -74.75 73.6 -75.45 M123.1 -55.0 Q121.45 -55.0 120.6 -56.7 L120.15 -58.45 Q120.15 -59.95 122.6 -59.5 125.05 -59.05 125.05 -56.8 125.05 -55.0 123.1 -55.0 M92.8 -63.95 Q92.15 -63.2 90.65 -63.2 88.95 -63.2 88.55 -64.4 88.3 -65.0 88.45 -65.65 88.45 -68.0 90.85 -67.65 93.2 -67.3 93.2 -65.0 93.2 -64.45 92.8 -63.95 M92.95 -71.45 Q92.95 -70.15 91.75 -70.15 90.95 -70.15 90.85 -70.6 L90.9 -71.05 90.6 -71.45 90.3 -71.85 Q90.3 -73.15 91.65 -73.05 92.95 -72.95 92.95 -71.45 M112.9 -62.8 Q112.9 -64.1 113.9 -63.65 114.95 -63.2 114.95 -62.4 114.95 -61.6 114.15 -61.6 113.4 -61.6 113.1 -62.15 L112.9 -62.8 M104.0 -69.65 Q104.95 -70.1 105.75 -68.9 L106.4 -67.4 Q106.4 -66.8 105.9 -66.3 105.25 -65.7 104.05 -65.7 102.75 -65.7 102.35 -66.3 L102.15 -67.0 102.4 -67.85 102.8 -68.5 Q103.5 -68.9 103.6 -69.25 L104.0 -69.65 M108.6 -54.6 Q107.85 -54.6 107.75 -55.1 L107.75 -55.6 Q107.75 -57.2 108.75 -57.0 109.7 -56.8 109.7 -55.8 L109.45 -55.1 Q109.2 -54.6 108.6 -54.6 M142.65 -29.0 Q142.65 -30.25 143.8 -30.0 144.85 -29.85 144.85 -28.5 144.85 -27.4 144.2 -27.4 142.65 -27.4 142.65 -29.0 M126.25 -45.85 Q124.75 -45.85 124.05 -46.65 L123.65 -47.45 Q123.65 -48.95 125.35 -49.5 L127.35 -49.85 127.15 -48.85 128.0 -47.3 Q128.0 -46.85 127.5 -46.35 126.95 -45.85 126.25 -45.85 M140.2 -18.45 Q141.85 -18.05 141.85 -16.55 141.85 -14.95 140.15 -14.95 139.4 -14.95 138.9 -16.05 L138.55 -16.95 Q138.55 -18.8 140.2 -18.45 M140.4 -6.25 Q140.4 -5.55 140.0 -5.05 139.4 -4.25 138.15 -4.25 137.05 -4.25 136.7 -4.9 L136.65 -5.55 Q136.65 -8.55 138.55 -8.8 140.4 -9.05 140.4 -6.25 M145.45 -16.6 Q145.45 -17.3 145.8 -17.8 L145.1 -18.5 Q145.1 -19.35 146.35 -19.2 147.6 -19.0 147.6 -18.0 147.6 -15.95 146.1 -15.95 145.65 -15.95 145.5 -16.3 L145.45 -16.6 M143.45 -5.6 L143.15 -6.15 Q143.15 -7.5 144.2 -7.55 145.2 -7.6 145.2 -6.3 145.2 -5.15 144.25 -5.15 143.8 -5.15 143.45 -5.6 M141.85 2.6 Q141.85 1.45 142.65 1.2 L142.55 0.9 Q142.55 -0.25 144.25 0.6 145.95 1.4 145.95 2.45 145.95 3.0 145.45 3.4 144.85 3.9 143.95 3.9 142.75 3.9 142.2 3.25 141.85 2.95 141.85 2.6 M143.35 8.15 Q143.35 10.1 142.05 10.1 141.45 10.1 141.35 9.85 L141.25 9.5 Q141.25 8.65 142.0 8.7 142.15 8.85 142.15 8.45 L141.5 7.5 Q141.5 6.5 142.4 6.9 143.35 7.4 143.35 8.15 M124.25 23.3 Q125.05 24.75 125.05 26.05 125.05 27.0 123.3 28.6 121.4 30.4 119.65 30.4 119.0 30.4 118.55 30.0 L118.2 29.55 Q118.3 29.2 119.85 28.2 L121.65 26.8 122.35 25.5 122.65 24.25 Q123.3 21.65 124.25 23.3 M135.05 17.6 Q134.65 17.6 134.25 17.05 L134.0 16.5 Q134.0 15.85 134.9 16.0 135.8 16.1 135.8 16.8 135.8 17.6 135.05 17.6 M85.35 41.8 Q86.45 41.25 86.95 42.7 L87.5 44.6 87.6 45.85 Q87.6 46.7 87.2 47.5 86.45 48.75 84.9 48.75 83.8 48.75 83.35 47.85 L83.15 46.95 Q83.15 46.25 83.95 45.7 84.65 45.15 84.65 44.6 L84.35 43.15 Q84.35 42.3 85.35 41.8 M99.55 40.55 Q99.55 38.95 101.6 38.6 103.65 38.2 103.65 40.15 L103.15 41.1 Q102.45 41.75 101.3 41.75 100.35 41.75 99.85 41.2 L99.55 40.55 M107.4 36.2 L106.5 36.4 Q105.8 36.4 105.6 35.95 L105.55 35.4 Q105.55 33.8 107.05 33.9 108.6 33.95 108.6 35.7 108.6 36.95 107.95 36.95 107.2 36.95 107.4 36.2 M21.25 57.65 L21.45 58.2 21.0 60.55 Q20.25 62.55 18.35 62.55 15.5 62.55 14.35 61.2 L13.7 59.7 Q13.7 58.1 14.8 58.1 L15.65 58.55 16.65 59.0 20.3 58.7 Q20.15 58.2 20.4 57.95 20.9 57.5 21.25 57.65 M4.3 57.9 Q6.0 57.8 6.0 59.3 6.0 60.75 4.0 60.75 2.5 60.75 2.6 59.55 2.6 57.95 4.3 57.9 M75.5 50.15 Q75.5 48.65 76.5 49.0 77.5 49.25 77.5 50.25 L77.25 50.7 76.45 51.0 Q75.65 51.0 75.5 50.45 L75.5 50.15 M59.2 55.05 Q57.7 55.05 57.7 54.15 57.7 53.45 58.85 53.3 59.95 53.25 59.95 54.0 L59.75 54.65 59.2 55.05 M42.25 54.35 Q42.25 54.05 42.55 53.9 L43.2 53.65 43.1 53.3 Q43.1 52.05 44.55 52.6 45.9 53.15 45.9 54.35 45.9 55.45 44.45 55.45 43.05 55.45 42.55 54.9 L42.25 54.35 M-81.9 -80.75 Q-81.75 -81.45 -80.5 -81.75 L-77.5 -81.9 Q-73.15 -81.15 -73.15 -77.15 -73.15 -75.5 -73.85 -75.5 L-74.25 -76.6 -74.75 -77.1 Q-75.25 -77.7 -76.75 -77.7 -79.05 -77.7 -79.85 -76.3 -80.25 -75.6 -80.15 -74.8 -80.15 -73.5 -78.8 -72.5 L-77.45 -71.4 Q-77.45 -71.0 -77.6 -70.9 L-79.2 -70.7 Q-82.5 -70.7 -84.0 -72.9 -84.85 -74.15 -84.85 -75.2 L-84.65 -77.15 -83.6 -79.05 -81.9 -80.75 M-118.3 -51.9 Q-118.3 -50.55 -119.85 -50.55 -121.95 -50.55 -121.95 -51.9 -121.95 -54.35 -120.15 -54.15 -118.3 -53.85 -118.3 -51.9 M-107.55 -63.55 Q-107.55 -70.55 -99.9 -73.45 -93.9 -75.75 -90.75 -73.55 -88.4 -73.45 -88.4 -68.8 L-88.55 -67.5 Q-88.8 -66.4 -89.25 -66.4 L-89.8 -66.55 -89.8 -67.5 -90.95 -68.1 Q-92.25 -68.8 -94.2 -68.8 -97.75 -68.8 -99.85 -65.95 -101.35 -63.95 -101.35 -62.7 -101.35 -61.35 -99.6 -60.45 -97.85 -59.6 -97.85 -59.25 L-98.65 -58.55 -100.5 -58.15 Q-104.2 -58.15 -106.15 -60.5 -107.55 -62.15 -107.55 -63.55 M-104.15 -56.2 L-104.4 -55.25 Q-104.8 -54.6 -105.65 -54.6 -107.55 -54.6 -107.95 -56.8 -107.95 -58.05 -106.05 -58.3 -104.15 -58.45 -104.15 -56.2 M-126.5 -56.5 L-124.15 -56.4 Q-122.45 -56.05 -121.9 -55.5 L-122.0 -55.1 Q-122.1 -54.9 -122.4 -54.9 L-122.65 -54.9 -123.9 -53.75 Q-125.15 -52.7 -125.15 -51.85 -125.15 -47.95 -121.7 -46.15 -118.3 -45.0 -118.3 -44.65 -118.3 -44.05 -120.2 -43.25 -122.05 -42.45 -123.6 -42.45 -126.8 -42.45 -129.35 -45.35 -131.65 -47.95 -131.65 -50.2 -131.65 -53.4 -129.1 -55.25 -127.75 -56.3 -126.5 -56.35 L-126.5 -56.5 M-137.95 -26.95 Q-135.9 -25.65 -135.9 -23.8 -135.9 -23.1 -136.5 -22.7 -137.05 -22.25 -138.1 -22.25 -139.45 -22.25 -139.95 -23.1 L-140.25 -24.05 -140.0 -26.35 Q-140.0 -28.25 -137.95 -26.95 M-141.0 -32.25 Q-141.6 -31.35 -142.65 -31.35 -143.4 -31.35 -143.9 -32.1 L-144.35 -33.15 Q-144.35 -35.3 -142.45 -35.5 -140.6 -35.65 -140.6 -33.45 -140.6 -32.9 -141.0 -32.25 M-127.55 -34.05 Q-125.35 -34.75 -125.35 -31.85 -125.35 -31.05 -125.7 -30.4 -126.3 -29.5 -127.5 -29.5 -128.9 -29.5 -129.45 -30.25 L-129.75 -31.15 Q-129.75 -33.4 -127.55 -34.05 M-148.8 -27.7 Q-148.65 -28.4 -148.0 -28.5 L-146.7 -28.25 Q-144.1 -26.7 -143.65 -26.15 -143.25 -25.7 -143.25 -24.35 -143.25 -21.6 -145.65 -21.6 -147.7 -21.6 -148.4 -23.7 -148.8 -24.75 -148.75 -25.85 L-148.75 -26.5 -148.8 -27.7 M-144.8 -12.8 Q-144.8 -12.55 -145.4 -11.65 -146.0 -10.8 -146.0 -10.2 -146.0 -9.25 -145.6 -8.05 L-144.8 -6.55 -144.45 -6.15 Q-142.6 -4.25 -140.85 -3.4 -139.85 -2.9 -139.85 -2.6 -139.85 -1.95 -141.45 -1.05 -143.1 -0.15 -144.1 -0.15 -146.85 -0.15 -148.1 -3.1 -148.9 -5.0 -148.9 -7.4 L-148.65 -9.55 Q-148.15 -11.4 -146.85 -12.7 -144.8 -14.7 -144.8 -12.8 M-68.95 49.15 L-68.25 48.85 Q-67.65 48.85 -67.5 49.25 L-67.5 49.75 Q-67.5 50.6 -69.0 51.8 -70.7 53.15 -72.55 53.15 -75.85 53.15 -77.3 51.65 -78.3 50.75 -78.3 49.65 -78.3 47.65 -76.8 48.2 -73.35 49.45 -70.8 49.45 L-68.95 49.15 M-50.3 56.75 Q-51.0 57.5 -53.85 57.5 -58.55 57.5 -60.6 55.6 -61.85 54.45 -61.85 53.0 -61.85 51.9 -60.75 51.45 -59.3 50.85 -57.3 52.45 -54.8 53.95 -52.05 54.9 L-50.15 55.7 Q-50.15 56.55 -50.3 56.75 M-45.5 54.35 Q-45.5 56.3 -47.55 56.3 -48.75 56.3 -49.1 55.1 L-49.2 54.0 Q-49.2 52.2 -47.35 52.4 -45.5 52.65 -45.5 54.35 M-66.65 51.4 Q-66.65 50.0 -64.95 50.5 -63.3 51.0 -63.3 52.45 -63.3 53.5 -65.05 53.5 -66.15 53.5 -66.55 52.4 L-66.65 51.4 M-7.5 59.6 Q-7.5 58.5 -6.35 58.2 -5.25 57.95 -5.25 59.15 -5.25 59.65 -5.65 60.0 -6.0 60.35 -6.6 60.35 -7.7 60.35 -7.5 59.6 M-24.1 59.55 Q-24.1 58.7 -23.3 58.45 -22.55 58.2 -22.55 59.3 -22.55 60.2 -23.4 60.2 -24.35 60.2 -24.1 59.55 M-33.9 55.35 Q-34.85 55.35 -35.15 54.85 L-35.2 54.35 Q-35.2 53.05 -33.9 53.2 -32.65 53.35 -32.65 54.35 -32.65 55.35 -33.9 55.35 M-104.8 30.7 L-104.8 30.8 -104.95 31.45 -105.55 31.85 Q-106.1 31.85 -106.35 31.15 -106.35 30.55 -105.8 30.35 L-105.55 30.2 Q-104.85 29.95 -104.8 30.7 M-106.65 36.55 Q-106.65 36.15 -105.8 35.6 -104.95 35.0 -104.95 36.6 -104.95 37.6 -105.7 37.6 -106.2 37.6 -106.5 37.0 L-106.65 36.55 M-120.7 26.3 L-120.35 26.7 Q-119.9 27.2 -119.9 27.6 -119.9 28.05 -120.35 28.5 -121.0 29.05 -122.05 29.05 -123.85 29.05 -124.1 27.4 L-124.1 26.15 -123.95 25.75 -123.0 25.6 -121.1 25.6 -120.7 26.3 M-114.3 33.3 Q-115.35 33.3 -115.4 31.7 -115.4 30.5 -114.2 30.5 -113.0 30.5 -113.0 31.7 -113.0 33.3 -114.3 33.3 M-98.1 40.65 Q-98.1 41.05 -98.45 41.45 -98.9 41.85 -99.6 41.85 -100.45 41.85 -101.2 40.9 L-101.75 40.05 Q-101.75 38.2 -99.95 38.95 -98.1 39.7 -98.1 40.65 M-130.25 7.65 Q-132.5 10.8 -136.45 10.8 -138.3 10.8 -139.45 10.0 L-139.4 9.9 -140.55 8.75 Q-141.2 7.7 -141.2 6.8 -141.2 6.2 -140.75 5.85 -140.4 6.1 -140.25 6.85 L-140.15 7.5 -139.85 8.0 -139.75 8.1 -140.0 7.3 -140.0 7.15 Q-140.0 6.0 -140.35 5.4 L-140.25 5.3 Q-139.95 5.3 -139.35 5.85 L-138.5 6.3 Q-136.9 6.3 -134.6 5.2 L-132.4 3.9 Q-130.35 2.65 -129.55 2.65 -128.75 2.6 -128.75 3.65 -128.75 5.45 -130.25 7.65 M-128.95 21.35 L-129.55 21.7 -130.2 21.25 -130.45 20.6 Q-130.45 19.9 -129.6 19.95 -128.8 19.95 -128.8 20.7 L-128.95 21.35 M-143.0 1.1 Q-141.2 1.5 -141.2 2.7 -141.2 4.6 -143.45 4.6 -144.25 4.6 -144.7 4.05 L-145.05 3.45 -144.8 1.85 Q-144.8 0.65 -143.0 1.1" fill="#bd9a0a" fill-opacity="0.08627451" fill-rule="evenodd" stroke="none"/>
  </g>
</svg>
