<?xml version="1.0" encoding="UTF-8" standalone="no"?>
<svg xmlns:ffdec="https://www.free-decompiler.com/flash" xmlns:xlink="http://www.w3.org/1999/xlink" ffdec:objectType="shape" height="635.5px" width="935.2px" xmlns="http://www.w3.org/2000/svg">
  <g transform="matrix(1.0, 0.0, 0.0, 1.0, 508.55, 295.0)">
    <path d="M-136.35 -239.7 Q-147.7 -253.15 -165.55 -253.0 -176.35 -273.8 -194.65 -259.25 L-196.25 -259.55 Q-207.15 -257.95 -215.45 -247.75 -219.6 -248.7 -223.8 -247.75 -230.7 -246.55 -234.75 -240.9 L-243.25 -243.2 -247.4 -243.45 -249.95 -242.05 Q-256.0 -256.1 -274.2 -255.85 L-266.95 -264.2 -267.25 -271.45 Q-256.6 -268.85 -250.45 -277.95 L-248.65 -280.7 Q-277.95 -293.5 -303.4 -269.25 -336.2 -276.7 -342.25 -244.15 -339.85 -239.35 -335.25 -236.3 -327.85 -231.3 -319.1 -233.25 L-309.85 -227.75 -300.35 -226.3 -289.1 -228.1 -288.75 -236.25 -277.5 -237.85 -256.95 -230.7 -254.7 -223.05 -248.25 -218.85 -243.95 -223.0 -245.35 -226.45 -236.7 -230.4 Q-234.05 -228.9 -231.3 -227.55 -223.1 -223.4 -213.9 -224.45 -209.7 -221.15 -205.1 -223.95 -200.3 -226.85 -199.75 -232.5 L-192.05 -238.3 -191.8 -244.9 -174.2 -243.25 -172.1 -241.6 Q-154.9 -229.05 -136.35 -239.7 M-102.15 -225.9 L-99.35 -226.35 Q-91.15 -231.9 -86.1 -239.75 L-83.85 -237.55 Q-83.45 -237.45 -83.15 -237.7 -77.1 -238.35 -71.8 -241.8 -56.8 -225.55 -42.8 -239.85 L-37.9 -235.3 -32.8 -238.4 Q-17.7 -208.8 5.9 -229.6 L12.35 -224.65 Q2.65 -202.95 25.0 -201.1 19.6 -190.6 24.3 -181.9 38.2 -181.1 44.95 -193.65 L46.5 -182.3 47.75 -181.5 Q48.65 -181.65 48.95 -182.4 49.75 -184.5 50.1 -186.7 L56.5 -186.95 57.85 -188.95 49.95 -190.85 Q48.5 -198.5 42.4 -202.05 40.55 -214.75 27.0 -215.25 27.8 -224.65 20.2 -226.25 L21.55 -229.3 21.95 -233.65 19.3 -234.85 16.35 -239.35 21.55 -243.8 19.7 -248.45 75.1 -249.0 76.25 -251.8 61.3 -254.25 Q62.7 -290.45 24.45 -280.25 23.5 -280.4 22.65 -280.9 12.6 -285.7 3.7 -277.2 -25.2 -312.8 -64.6 -277.2 -80.0 -281.15 -88.75 -267.65 -90.7 -267.7 -92.55 -266.65 -108.35 -257.05 -97.45 -240.95 L-98.7 -239.2 Q-103.15 -233.2 -102.15 -225.9 M-177.6 -150.1 L-178.9 -151.8 -181.0 -161.65 -171.05 -163.65 -171.2 -168.8 -160.75 -168.7 Q-131.75 -136.25 -126.8 -170.45 -114.55 -187.4 -143.5 -184.8 -174.25 -210.35 -187.4 -168.5 -200.3 -169.65 -199.35 -157.7 L-208.2 -156.65 Q-230.0 -175.95 -250.1 -159.7 -273.8 -164.95 -272.1 -144.45 L-273.4 -144.3 Q-296.35 -132.55 -268.75 -121.65 L-264.9 -120.45 -261.05 -123.55 -258.55 -121.1 -256.0 -121.4 Q-244.8 -124.25 -250.3 -136.0 L-235.9 -137.4 Q-235.95 -134.8 -234.8 -132.4 -229.75 -121.9 -217.55 -125.55 L-216.1 -131.3 -211.0 -132.9 -209.45 -145.8 Q-195.5 -143.85 -182.15 -146.45 L-181.55 -150.2 -179.55 -148.25 -177.6 -150.1 M-256.25 -103.75 L-253.3 -93.5 -255.75 -92.35 Q-281.25 -79.55 -275.25 -54.7 L-273.1 -56.1 -272.75 -57.8 -268.7 -57.95 Q-266.15 -70.85 -252.55 -71.1 -237.8 -38.0 -227.4 -63.55 -215.65 -65.4 -220.65 -77.85 -220.95 -78.5 -220.8 -79.4 -211.75 -78.6 -203.15 -80.75 -192.2 -69.1 -178.85 -71.4 L-175.65 -73.25 -181.45 -81.05 Q-172.75 -97.05 -190.2 -107.35 L-192.9 -106.25 Q-208.9 -95.35 -223.4 -111.45 -231.5 -102.35 -243.5 -105.6 -248.9 -100.4 -256.25 -103.75 M-271.6 -49.35 L-268.15 -46.4 -269.25 -48.3 Q-269.8 -49.45 -271.6 -49.35 M-18.2 -126.55 Q-6.2 -86.65 1.5 -121.35 L1.8 -124.85 1.2 -125.7 Q-7.15 -133.4 -17.6 -127.15 L-18.2 -126.55 M-110.05 -47.25 L-101.9 -49.45 Q-84.9 -39.7 -80.95 -58.5 L-78.6 -57.4 -73.25 -56.95 -70.55 -58.8 Q-55.2 -50.2 -49.7 -68.65 L-34.65 -62.95 -34.45 -61.8 Q40.35 -58.9 -62.35 -91.65 -81.65 -97.85 -100.7 -81.55 -116.35 -68.2 -110.05 -47.25 M-307.5 -101.95 L-307.25 -109.2 Q-294.8 -109.2 -286.3 -118.2 -298.2 -141.0 -323.5 -137.0 L-323.75 -134.95 Q-350.1 -131.9 -341.45 -108.4 -363.85 -113.1 -374.5 -93.0 L-376.7 -92.45 Q-399.25 -85.1 -387.15 -64.95 L-367.5 -79.25 Q-339.75 -77.4 -317.4 -93.7 -312.1 -97.55 -307.5 -101.95 M-384.9 -55.5 Q-360.9 -29.3 -380.85 -55.4 L-384.9 -55.5 M-373.0 -17.3 Q-372.0 -38.8 -395.45 -38.2 -395.0 -54.65 -411.25 -56.7 -423.9 -75.2 -445.35 -62.05 L-446.85 -63.35 Q-496.8 -92.05 -501.05 -42.65 L-502.55 -41.65 Q-509.0 -37.15 -508.5 -29.6 L-501.9 -26.3 -495.6 -31.9 Q-492.3 -26.2 -485.65 -25.65 -478.65 -24.6 -472.65 -28.65 -470.5 -24.15 -465.8 -22.35 -458.65 -19.55 -452.35 -23.95 L-438.75 -20.65 -432.3 -35.0 -423.6 -37.3 Q-404.35 -12.3 -373.0 -17.3 M-333.9 61.5 Q-350.8 74.05 -353.8 52.25 L-352.35 46.35 -341.2 48.6 -338.6 46.85 Q-324.8 54.7 -310.5 45.65 -308.6 68.05 -333.9 61.5 M-76.55 77.65 Q-97.25 66.3 -118.55 73.15 -123.45 69.65 -128.8 67.8 -145.2 62.05 -159.2 72.25 L-206.2 74.5 Q-239.85 -25.2 -328.15 19.75 -366.5 1.65 -388.6 36.0 -396.25 39.7 -400.45 47.2 -409.2 62.65 -398.5 76.85 L-401.75 93.9 Q-392.15 106.4 -381.35 91.65 L-379.8 89.65 Q-376.55 99.35 -366.8 102.0 L-364.4 111.3 -354.8 111.2 Q-340.5 120.1 -333.85 104.45 L-324.25 106.95 Q-314.45 134.6 -286.15 150.5 -268.9 143.8 -275.65 126.6 L-266.6 119.7 -252.65 124.45 -251.85 126.95 Q-230.7 129.7 -231.35 108.25 L-222.3 105.35 Q-203.85 117.45 -183.8 108.15 L-182.1 103.85 Q-180.6 104.25 -179.65 105.15 -152.15 131.7 -136.05 99.5 L-138.2 92.4 Q-133.0 86.2 -125.15 85.65 -115.6 98.35 -104.25 84.35 -91.7 90.35 -78.15 84.55 L-76.55 77.65 M-151.0 42.65 L-146.3 39.5 -133.75 41.9 -123.7 26.25 -122.0 27.55 Q-111.7 34.45 -100.95 28.25 -101.35 26.85 -102.25 25.95 -147.3 -18.0 -155.3 37.8 L-151.2 42.8 -151.0 42.65 M-56.3 29.1 L-56.05 24.3 Q-79.35 9.95 -91.65 33.1 L-92.15 34.4 Q-83.4 35.6 -76.4 28.45 L-74.15 26.8 Q-65.6 31.35 -56.3 29.1 M-35.1 145.45 Q-47.75 142.45 -55.55 153.65 -57.55 156.6 -58.45 160.0 L-53.75 165.1 Q-51.6 175.25 -39.3 177.15 -25.45 179.15 -24.1 163.95 2.9 169.15 -7.4 144.95 L2.2 137.1 Q-12.7 121.5 -27.8 138.75 -31.05 142.45 -35.1 145.45 M-98.8 223.55 L-105.2 217.25 -92.75 195.8 Q-122.65 183.25 -143.9 206.55 L-145.2 206.0 Q-160.35 207.15 -164.6 226.3 L-163.55 228.5 -159.45 229.8 -146.1 224.35 Q-143.15 228.35 -138.8 230.35 -126.95 235.95 -121.35 221.35 L-121.1 221.4 Q-110.1 233.4 -98.8 223.55 M116.2 271.8 L100.55 262.05 Q99.25 258.8 96.85 256.2 91.2 249.9 82.6 249.05 L83.1 246.8 Q61.05 219.7 30.5 242.6 26.05 238.9 20.5 239.55 17.15 240.05 14.5 241.85 9.1 235.3 1.95 230.85 -26.1 213.3 -39.75 246.5 -76.7 254.55 -54.0 277.6 L-56.45 285.3 Q-32.4 283.7 -20.95 268.9 -8.9 276.4 5.15 274.85 6.6 280.8 9.25 285.95 12.45 292.3 19.6 290.9 L21.2 288.95 26.4 292.75 Q30.65 291.95 33.9 288.95 40.85 282.4 36.35 273.35 L42.85 264.1 60.5 267.8 Q62.1 275.4 67.05 281.35 76.8 292.95 87.0 280.4 L95.45 278.35 95.9 274.75 97.95 274.05 99.95 275.1 Q109.4 280.15 116.2 271.8 M103.65 325.45 L103.7 325.45 103.65 325.4 103.65 325.45 M112.2 323.7 L112.65 323.45 Q111.65 323.05 112.1 323.55 L112.2 323.7 M405.95 -157.7 Q408.55 -170.1 394.8 -173.65 L392.6 -174.2 Q377.7 -209.9 347.35 -187.7 330.3 -191.9 323.1 -176.05 296.5 -164.25 313.0 -140.6 L314.45 -142.15 309.75 -152.95 Q319.65 -150.55 328.65 -155.5 332.9 -157.75 336.2 -161.25 368.75 -148.3 403.15 -163.85 L405.95 -157.7 M392.05 -150.05 Q398.35 -148.1 401.65 -151.45 398.4 -150.95 392.7 -152.4 L392.05 -150.05 M236.2 -168.1 L236.0 -170.85 226.25 -172.05 204.2 -189.25 Q216.4 -190.65 225.95 -198.3 223.15 -204.3 226.95 -209.0 228.65 -211.05 231.35 -211.3 247.8 -199.95 268.3 -203.9 L278.15 -223.0 Q285.95 -218.75 294.9 -220.3 L295.5 -217.8 298.2 -218.2 292.85 -226.55 Q311.9 -284.9 241.0 -248.25 208.35 -260.65 192.55 -229.55 182.0 -233.5 172.6 -227.45 148.25 -245.5 131.65 -218.65 103.2 -173.65 167.6 -179.2 168.75 -179.15 169.8 -179.65 170.65 -174.35 175.15 -171.35 177.25 -169.9 179.8 -169.65 L181.2 -164.5 Q161.85 -161.15 158.9 -141.55 149.55 -144.5 142.95 -137.05 127.05 -149.05 108.5 -142.1 61.1 -180.1 68.0 -132.2 L66.55 -123.45 89.7 -120.6 Q89.7 -117.2 90.8 -114.25 96.15 -100.35 108.2 -113.8 144.05 -94.6 151.6 -128.85 L161.0 -129.65 161.9 -129.05 Q173.3 -124.25 179.65 -124.25 L189.65 -123.7 190.05 -126.6 195.4 -131.4 Q200.85 -120.6 210.55 -125.55 217.3 -128.95 217.4 -136.25 L249.0 -131.65 249.75 -135.65 Q234.25 -138.6 227.5 -152.0 L228.4 -154.3 Q231.4 -162.25 226.45 -169.25 L226.05 -169.6 Q226.15 -169.9 226.55 -169.35 L236.2 -168.1 M271.65 -177.1 Q256.0 -175.9 265.55 -164.75 261.35 -129.55 284.25 -152.65 314.3 -155.0 285.7 -173.65 L285.25 -174.45 Q281.45 -179.2 275.55 -176.6 273.75 -177.35 271.65 -177.1 M256.25 -163.15 L256.0 -163.55 Q235.1 -147.75 256.25 -163.15 M417.15 42.65 Q407.2 40.55 399.0 46.35 L391.85 43.4 Q384.6 24.95 366.75 35.45 L360.95 30.85 Q361.95 4.95 336.55 8.9 L335.05 6.8 Q346.7 -9.65 327.1 -17.6 322.2 -30.35 308.2 -30.85 296.75 -84.5 268.1 -39.1 226.7 -13.1 267.85 4.35 274.4 18.5 288.0 15.2 L288.2 16.5 Q289.7 25.75 298.9 28.45 L298.15 30.45 Q295.15 37.9 301.2 42.95 L303.8 45.55 313.7 47.3 320.6 33.75 348.3 33.6 Q359.75 48.95 378.35 44.65 L380.05 46.2 Q385.65 51.0 392.8 49.65 L394.85 51.05 Q409.05 60.8 417.75 45.55 L417.15 42.65 M74.6 -187.95 Q85.05 -184.1 94.15 -190.2 93.25 -192.35 91.7 -193.15 44.1 -216.6 73.2 -186.3 L74.6 -187.95 M138.3 -34.75 L131.5 -36.1 Q124.55 -51.7 107.85 -47.95 95.1 -53.7 83.0 -46.75 71.65 -49.95 63.6 -41.1 L58.1 -40.55 Q45.7 -37.35 51.75 -26.6 L50.0 -12.5 Q69.25 -9.8 83.6 -22.75 L85.55 -24.55 Q87.45 -17.95 94.3 -18.7 101.35 -19.1 102.75 -26.05 L111.05 -32.65 Q123.65 -24.65 137.15 -30.35 L138.3 -34.75 M130.2 -0.6 L130.25 -0.65 130.15 -0.65 130.2 -0.6 M19.0 -17.95 L19.25 -17.65 Q58.15 -7.7 31.25 -31.55 19.6 -29.1 19.0 -17.95 M31.8 14.9 L36.85 18.85 Q40.15 18.3 42.9 16.2 48.75 11.95 49.75 4.75 L62.15 6.85 62.65 4.1 57.45 -3.35 57.15 -3.6 Q31.75 -11.05 34.25 12.6 L31.8 14.9 M55.75 107.6 Q72.9 106.05 80.35 92.05 90.5 99.2 101.4 91.7 102.9 93.55 103.3 96.05 104.0 100.55 102.25 100.9 L97.9 109.65 99.2 112.2 102.25 109.8 Q108.7 115.75 117.35 113.1 121.25 120.85 122.85 130.25 L114.2 139.05 Q131.75 145.0 139.8 128.15 L140.05 127.85 Q168.85 149.6 196.1 119.95 L191.5 110.2 195.95 104.5 190.75 93.75 197.05 83.2 Q211.4 87.75 220.1 76.1 L215.5 73.7 214.95 70.6 Q217.2 66.35 217.3 61.7 217.75 45.75 199.85 47.2 L197.15 42.9 Q161.8 33.1 150.05 67.85 L163.25 80.2 162.05 83.05 164.85 92.5 160.65 104.2 157.35 104.65 Q152.65 89.15 136.75 90.8 108.05 51.3 67.35 77.65 L69.35 84.85 66.3 90.45 64.75 91.25 Q55.2 96.65 55.75 107.6 M17.45 139.45 Q-8.9 168.85 48.6 180.45 52.4 140.7 19.2 141.95 L17.45 139.45 M319.7 180.05 L318.45 179.15 301.05 173.85 300.25 154.75 Q302.95 152.55 302.3 150.85 270.9 69.55 226.9 157.7 224.25 158.45 221.7 159.5 206.05 165.9 213.4 181.05 L210.55 185.85 210.95 187.65 Q221.6 191.2 231.65 182.0 235.05 200.85 253.2 194.35 L254.05 189.45 Q267.4 186.6 262.35 169.15 L276.2 169.4 286.05 178.8 288.5 178.95 290.75 176.6 Q300.8 191.3 312.5 180.25 L319.3 184.1 321.55 181.55 319.7 180.05 M162.1 188.3 L160.75 187.9 160.7 188.7 162.1 188.3 M152.05 225.15 L155.75 228.85 162.35 228.8 163.7 231.8 Q167.4 235.4 171.55 233.4 177.05 230.9 177.65 224.45 L180.85 224.75 176.95 214.5 181.35 208.8 198.85 210.3 200.4 205.6 Q158.4 172.8 155.65 218.6 L152.05 225.15 M303.25 210.85 L303.2 210.95 Q304.3 212.0 303.25 210.85 M369.55 50.2 L369.65 50.45 370.05 50.2 369.55 50.2 M331.8 37.85 Q333.15 39.2 332.35 37.6 L331.8 37.85" fill="#ffffff" fill-rule="evenodd" stroke="none"/>
    <path d="M-309.85 -227.75 L-309.3 -224.1 -310.35 -222.85 Q-303.2 -212.2 -290.95 -215.9 -289.1 -216.45 -287.35 -217.15 -279.95 -213.25 -274.8 -219.9 L-272.9 -222.6 -259.25 -208.45 -270.2 -197.7 Q-249.35 -162.35 -231.3 -200.35 L-222.2 -201.55 Q-218.9 -196.35 -212.65 -197.75 L-210.8 -198.2 Q-186.9 -186.8 -190.15 -214.95 -189.35 -215.6 -188.5 -216.3 -170.95 -205.25 -164.35 -225.05 -163.85 -226.55 -163.75 -228.1 -142.85 -219.85 -136.35 -239.7 -154.9 -229.05 -172.1 -241.6 L-174.2 -243.25 -191.8 -244.9 -192.05 -238.3 -199.75 -232.5 Q-200.3 -226.85 -205.1 -223.95 -209.7 -221.15 -213.9 -224.45 -223.1 -223.4 -231.3 -227.55 -234.05 -228.9 -236.7 -230.4 L-245.35 -226.45 -243.95 -223.0 -248.25 -218.85 -254.7 -223.05 -256.95 -230.7 -277.5 -237.85 -288.75 -236.25 -289.1 -228.1 -300.35 -226.3 -309.85 -227.75 M-243.25 -243.2 Q-241.15 -250.8 -246.75 -255.25 -247.35 -255.75 -248.05 -256.1 -240.25 -268.6 -248.65 -280.7 L-250.45 -277.95 Q-256.6 -268.85 -267.25 -271.45 L-266.95 -264.2 -274.2 -255.85 Q-256.0 -256.1 -249.95 -242.05 L-247.4 -243.45 -243.25 -243.2 M57.85 -188.95 L56.5 -186.95 50.1 -186.7 Q49.75 -184.5 48.95 -182.4 48.65 -181.65 47.75 -181.5 L46.5 -182.3 44.95 -193.65 Q38.2 -181.1 24.3 -181.9 19.6 -190.6 25.0 -201.1 2.65 -202.95 12.35 -224.65 L5.9 -229.6 Q-17.7 -208.8 -32.8 -238.4 L-37.9 -235.3 -42.8 -239.85 Q-56.8 -225.55 -71.8 -241.8 -77.1 -238.35 -83.15 -237.7 -83.45 -237.45 -83.85 -237.55 L-86.1 -239.75 Q-91.15 -231.9 -99.35 -226.35 L-102.15 -225.9 Q-89.85 -208.25 -69.6 -221.45 -64.1 -213.1 -54.5 -210.25 -51.15 -165.8 -17.45 -193.65 -7.4 -187.15 2.3 -193.85 L7.2 -187.35 -4.8 -175.85 Q2.9 -152.1 25.65 -162.2 28.2 -159.65 31.9 -159.6 39.95 -159.5 39.95 -167.7 L43.8 -167.0 Q70.3 -164.85 57.85 -188.95 M76.25 -251.8 L75.1 -249.0 19.7 -248.45 21.55 -243.8 16.35 -239.35 19.3 -234.85 21.95 -233.65 21.55 -229.3 22.9 -230.35 31.35 -232.8 Q80.25 -207.15 76.25 -251.8 M-268.75 -121.65 L-269.15 -120.05 Q-270.9 -105.95 -256.25 -103.75 -248.9 -100.4 -243.5 -105.6 -231.5 -102.35 -223.4 -111.45 -208.9 -95.35 -192.9 -106.25 L-190.2 -107.35 -185.8 -111.8 Q-171.25 -115.55 -177.7 -128.15 -162.35 -138.6 -177.6 -150.1 L-179.55 -148.25 -181.55 -150.2 -182.15 -146.45 Q-195.5 -143.85 -209.45 -145.8 L-211.0 -132.9 -216.1 -131.3 -217.55 -125.55 Q-229.75 -121.9 -234.8 -132.4 -235.95 -134.8 -235.9 -137.4 L-250.3 -136.0 Q-244.8 -124.25 -256.0 -121.4 L-258.55 -121.1 -261.05 -123.55 -264.9 -120.45 -268.75 -121.65 M-275.25 -54.7 L-271.6 -49.35 Q-269.8 -49.45 -269.25 -48.3 L-268.15 -46.4 -251.9 -43.05 Q-251.75 -30.25 -239.05 -24.4 -231.1 -20.8 -224.05 -26.65 -198.15 -17.05 -200.2 -41.85 -200.9 -50.35 -198.45 -59.05 -177.05 -53.15 -175.65 -73.25 L-178.85 -71.4 Q-192.2 -69.1 -203.15 -80.75 -211.75 -78.6 -220.8 -79.4 -220.95 -78.5 -220.65 -77.85 -215.65 -65.4 -227.4 -63.55 -237.8 -38.0 -252.55 -71.1 -266.15 -70.85 -268.7 -57.95 L-272.75 -57.8 -273.1 -56.1 -275.25 -54.7 M-34.45 -61.8 L-34.65 -62.95 -49.7 -68.65 Q-55.2 -50.2 -70.55 -58.8 L-73.25 -56.95 -78.6 -57.4 -80.95 -58.5 Q-84.9 -39.7 -101.9 -49.45 L-110.05 -47.25 Q-107.85 -30.3 -90.0 -31.25 -73.1 -19.4 -63.7 -37.6 L-61.8 -37.25 Q-30.5 -29.7 -34.45 -61.8 M-387.15 -64.95 Q-379.2 -58.45 -369.15 -60.05 -367.8 -60.1 -366.5 -60.5 -306.55 -36.1 -307.5 -101.95 -312.1 -97.55 -317.4 -93.7 -339.75 -77.4 -367.5 -79.25 L-387.15 -64.95 M-508.5 -29.6 L-499.55 -18.05 -500.0 -14.6 Q-493.75 -4.3 -482.6 -6.3 -480.25 -6.8 -478.0 -7.85 -449.95 26.9 -421.8 -8.1 -418.35 -4.45 -413.3 -4.6 -409.0 -5.0 -405.4 -7.15 -383.8 6.45 -373.0 -17.3 -404.35 -12.3 -423.6 -37.3 L-432.3 -35.0 -438.75 -20.65 -452.35 -23.95 Q-458.65 -19.55 -465.8 -22.35 -470.5 -24.15 -472.65 -28.65 -478.65 -24.6 -485.65 -25.65 -492.3 -26.2 -495.6 -31.9 L-501.9 -26.3 -508.5 -29.6 M-333.9 61.5 Q-308.6 68.05 -310.5 45.65 -324.8 54.7 -338.6 46.85 L-341.2 48.6 -352.35 46.35 -353.8 52.25 Q-350.8 74.05 -333.9 61.5 M-401.75 93.9 Q-392.9 137.85 -349.1 125.7 L-348.1 126.85 Q-341.35 135.3 -330.55 134.7 -331.25 135.9 -331.65 137.25 -342.4 174.85 -304.3 169.25 L-296.6 175.75 Q-295.7 180.8 -292.95 185.05 -281.75 202.55 -263.95 189.25 L-262.5 183.15 Q-232.4 186.85 -242.55 159.25 -214.1 167.1 -207.05 139.3 L-204.7 139.55 Q-170.2 141.65 -185.1 111.1 L-183.8 108.15 Q-203.85 117.45 -222.3 105.35 L-231.35 108.25 Q-230.7 129.7 -251.85 126.95 L-252.65 124.45 -266.6 119.7 -275.65 126.6 Q-268.9 143.8 -286.15 150.5 -314.45 134.6 -324.25 106.95 L-333.85 104.45 Q-340.5 120.1 -354.8 111.2 L-364.4 111.3 -366.8 102.0 Q-376.55 99.35 -379.8 89.65 L-381.35 91.65 Q-392.15 106.4 -401.75 93.9 M-136.05 99.5 L-135.75 96.45 Q-118.35 107.85 -102.0 102.05 L-101.65 102.15 Q-67.05 109.25 -76.55 77.65 L-78.15 84.55 Q-91.7 90.35 -104.25 84.35 -115.6 98.35 -125.15 85.65 -133.0 86.2 -138.2 92.4 L-136.05 99.5 M-100.95 28.25 Q-111.7 34.45 -122.0 27.55 L-123.7 26.25 -133.75 41.9 -146.3 39.5 -151.0 42.65 Q-117.35 78.4 -101.15 30.15 -100.85 29.25 -100.95 28.25 M-92.15 34.4 Q-60.8 52.55 -56.3 29.1 -65.6 31.35 -74.15 26.8 L-76.4 28.45 Q-83.4 35.6 -92.15 34.4 M-98.8 223.55 Q-110.1 233.4 -121.1 221.4 L-121.35 221.35 Q-126.95 235.95 -138.8 230.35 -143.15 228.35 -146.1 224.35 L-159.45 229.8 -163.55 228.5 -164.6 226.3 -165.9 234.25 Q-135.55 269.55 -99.15 247.35 L-98.9 246.8 Q-93.7 234.9 -98.8 223.55 M116.2 271.8 Q109.4 280.15 99.95 275.1 L97.95 274.05 95.9 274.75 95.45 278.35 87.0 280.4 Q76.8 292.95 67.05 281.35 62.1 275.4 60.5 267.8 L42.85 264.1 36.35 273.35 Q40.85 282.4 33.9 288.95 30.65 291.95 26.4 292.75 L21.2 288.95 19.6 290.9 Q12.45 292.3 9.25 285.95 6.6 280.8 5.15 274.85 -8.9 276.4 -20.95 268.9 -32.4 283.7 -56.45 285.3 -41.8 313.3 -3.8 299.8 L-1.0 299.75 Q-1.2 312.95 11.7 315.5 8.5 328.85 15.15 340.5 36.6 335.25 41.1 313.05 L51.75 311.7 Q65.0 331.75 78.15 311.85 L80.55 312.4 Q87.15 327.65 103.65 325.45 L103.65 325.4 103.7 325.45 112.2 323.7 112.1 323.55 Q111.65 323.05 112.65 323.45 128.55 307.65 111.9 292.45 L113.05 291.4 Q122.95 283.0 116.2 271.8 M313.0 -140.6 Q329.4 -126.75 343.35 -140.8 373.0 -106.8 384.0 -143.55 L386.35 -145.1 386.75 -145.6 387.15 -151.25 392.05 -150.05 392.7 -152.4 Q398.4 -150.95 401.65 -151.45 L405.95 -157.7 403.15 -163.85 Q368.75 -148.3 336.2 -161.25 332.9 -157.75 328.65 -155.5 319.65 -150.55 309.75 -152.95 L314.45 -142.15 313.0 -140.6 M298.2 -218.2 L295.5 -217.8 294.9 -220.3 Q285.95 -218.75 278.15 -223.0 L268.3 -203.9 Q247.8 -199.95 231.35 -211.3 228.65 -211.05 226.95 -209.0 223.15 -204.3 225.95 -198.3 216.4 -190.65 204.2 -189.25 L226.25 -172.05 236.0 -170.85 236.2 -168.1 Q253.95 -168.5 256.9 -185.85 L265.25 -189.65 Q297.55 -171.6 292.9 -207.05 L298.2 -218.2 M226.55 -169.35 Q226.15 -169.9 226.05 -169.6 L226.45 -169.25 226.55 -169.35 M249.75 -135.65 L249.0 -131.65 217.4 -136.25 Q217.3 -128.95 210.55 -125.55 200.85 -120.6 195.4 -131.4 L190.05 -126.6 189.65 -123.7 Q193.35 -90.0 222.45 -110.25 222.55 -110.35 222.85 -110.1 262.9 -98.95 249.75 -135.65 M179.65 -124.25 Q173.3 -124.25 161.9 -129.05 L161.0 -129.65 151.6 -128.85 Q144.05 -94.6 108.2 -113.8 96.15 -100.35 90.8 -114.25 89.7 -117.2 89.7 -120.6 L66.55 -123.45 Q112.95 -53.5 164.8 -108.65 L166.5 -109.1 Q178.3 -112.05 179.65 -124.25 M301.2 42.95 Q301.55 76.75 332.0 62.45 L332.85 62.1 Q349.7 67.85 357.25 51.4 L367.1 60.45 Q370.05 96.65 399.65 70.9 442.7 75.25 417.15 42.65 L417.75 45.55 Q409.05 60.8 394.85 51.05 L392.8 49.65 Q385.65 51.0 380.05 46.2 L378.35 44.65 Q359.75 48.95 348.3 33.6 L320.6 33.75 313.7 47.3 303.8 45.55 301.2 42.95 M130.25 -0.65 Q137.65 -6.7 138.25 -14.95 L145.1 -17.8 145.4 -18.45 Q148.6 -29.95 138.3 -34.75 L137.15 -30.35 Q123.65 -24.65 111.05 -32.65 L102.75 -26.05 Q101.35 -19.1 94.3 -18.7 87.45 -17.95 85.55 -24.55 L83.6 -22.75 Q69.25 -9.8 50.0 -12.5 71.1 12.1 94.15 -10.35 L95.5 -8.85 Q110.1 6.8 130.2 -0.6 L130.15 -0.65 130.25 -0.65 M62.65 4.1 L62.15 6.85 49.75 4.75 Q48.75 11.95 42.9 16.2 40.15 18.3 36.85 18.85 L31.8 14.9 Q34.5 39.1 53.9 24.45 L54.15 24.15 Q78.45 28.95 67.7 5.85 L62.65 4.1 M99.2 112.2 L97.9 109.65 102.25 100.9 Q104.0 100.55 103.3 96.05 102.9 93.55 101.4 91.7 90.5 99.2 80.35 92.05 72.9 106.05 55.75 107.6 L56.0 107.8 Q74.75 119.7 99.2 112.2 M220.1 76.1 Q211.4 87.75 197.05 83.2 L190.75 93.75 195.95 104.5 191.5 110.2 196.1 119.95 Q168.85 149.6 140.05 127.85 L139.8 128.15 Q131.75 145.0 114.2 139.05 110.1 171.85 137.15 161.45 L138.9 160.7 141.4 161.8 Q137.3 185.3 160.7 188.7 L160.75 187.9 162.1 188.3 Q167.15 186.5 168.25 181.2 L168.5 179.65 175.85 175.2 Q202.75 178.7 195.3 148.6 L210.5 141.3 212.75 134.8 207.2 126.7 Q227.95 118.3 216.5 99.65 231.7 88.85 220.1 76.1 M318.45 179.15 L319.7 180.05 319.7 179.65 Q319.7 179.2 318.45 179.15 M321.55 181.55 L319.3 184.1 312.5 180.25 Q300.8 191.3 290.75 176.6 L288.5 178.95 286.05 178.8 276.2 169.4 262.35 169.15 Q267.4 186.6 254.05 189.45 L253.2 194.35 Q235.05 200.85 231.65 182.0 221.6 191.2 210.95 187.65 L210.55 185.85 210.15 189.65 209.45 191.4 212.4 197.0 219.95 200.95 240.85 204.85 Q260.35 228.2 274.25 202.75 281.5 202.8 283.9 196.75 L295.1 196.45 Q293.55 204.85 301.15 208.8 298.85 211.55 297.45 214.65 289.7 232.05 311.8 232.55 342.6 260.35 332.45 220.0 L328.25 214.7 329.4 212.55 Q335.25 196.85 321.55 181.55 M200.4 205.6 L198.85 210.3 181.35 208.8 176.95 214.5 180.85 224.75 177.65 224.45 Q177.05 230.9 171.55 233.4 167.4 235.4 163.7 231.8 L162.35 228.8 155.75 228.85 152.05 225.15 152.05 231.4 Q174.5 263.2 193.35 233.55 201.45 238.0 206.8 230.7 208.85 227.85 208.75 224.25 L205.65 219.35 Q210.8 212.45 204.2 207.15 L203.3 206.3 200.4 205.6 M303.25 210.85 Q304.3 212.0 303.2 210.95 L303.25 210.85 M369.55 50.2 L370.05 50.2 369.65 50.45 369.55 50.2 M331.8 37.85 L332.35 37.6 Q333.15 39.2 331.8 37.85" fill="#a8a8a8" fill-rule="evenodd" stroke="none"/>
  </g>
</svg>
