<?xml version="1.0" encoding="UTF-8" standalone="no"?>
<svg xmlns:ffdec="https://www.free-decompiler.com/flash" xmlns:xlink="http://www.w3.org/1999/xlink" ffdec:objectType="shape" height="715.7px" width="1000.4px" xmlns="http://www.w3.org/2000/svg">
  <g transform="matrix(1.0, 0.0, 0.0, 1.0, 539.75, 328.35)">
    <path d="M-451.55 93.35 L-452.7 93.3 -455.0 93.65 -456.2 95.05 Q-471.95 108.7 -454.85 117.75 L-453.35 115.95 Q-432.0 115.15 -445.7 99.3 -445.15 93.8 -451.55 93.35 M-394.95 75.2 L-394.0 73.1 Q-384.55 69.8 -390.6 61.15 L-392.25 59.15 -387.2 57.6 Q-386.6 50.25 -394.2 46.5 L-401.6 46.5 -402.0 44.25 Q-419.05 52.25 -404.5 60.25 L-406.95 65.5 Q-405.1 75.15 -395.4 75.3 L-394.95 75.2 M-524.55 -40.25 L-524.9 -43.3 Q-528.25 -51.1 -536.65 -50.4 L-539.75 -45.1 Q-533.4 -33.0 -524.55 -40.25 M-479.0 -40.55 L-478.3 -43.7 -478.95 -45.75 Q-494.05 -50.5 -492.05 -34.25 L-491.65 -33.0 -488.3 -33.7 Q-491.6 3.3 -477.9 -26.3 -477.25 -27.65 -481.05 -27.75 L-485.0 -35.75 -481.05 -40.85 -479.0 -40.55 M-412.7 -122.45 L-418.75 -122.75 Q-426.0 -115.15 -420.6 -106.2 -419.2 -103.9 -417.0 -102.4 -420.5 -93.45 -412.65 -89.15 L-410.2 -88.1 -405.65 -91.5 -416.95 -107.9 -411.1 -112.5 -412.35 -118.1 -412.7 -122.45 M-338.85 -277.5 Q-330.6 -280.6 -334.55 -289.6 L-338.75 -290.95 Q-360.1 -290.7 -353.05 -262.2 L-342.9 -276.9 Q-340.85 -276.75 -338.85 -277.5 M-289.95 -89.15 L-289.95 -99.75 -300.6 -99.75 -300.6 -89.15 -289.95 -89.15 M-318.05 -69.05 L-318.65 -71.15 -321.75 -74.0 Q-319.25 -84.5 -331.45 -86.45 L-324.8 -94.5 -328.5 -97.0 -325.8 -105.45 -340.8 -102.85 -341.0 -102.2 Q-351.85 -90.45 -338.15 -83.5 L-341.35 -68.65 Q-341.05 -66.95 -340.1 -65.5 -337.2 -61.1 -332.0 -62.05 L-329.6 -60.45 -328.5 -60.55 Q-320.7 -61.5 -318.05 -69.05 M-266.65 -168.65 L-258.6 -171.7 -258.85 -174.6 -253.65 -174.85 Q-260.15 -194.9 -278.35 -180.4 -291.75 -179.8 -296.25 -168.15 -290.7 -159.5 -281.85 -165.0 L-281.15 -165.5 Q-268.85 -152.1 -266.65 -168.65 M-75.75 -140.4 L-76.15 -140.65 Q-82.7 -138.3 -84.85 -131.95 -63.35 -119.45 -75.75 -140.4 M-50.75 -147.95 Q-53.8 -153.15 -56.75 -150.0 -55.55 -144.9 -52.1 -145.25 L-50.75 -147.95 M-106.9 -129.75 Q-106.1 -129.5 -105.6 -130.55 L-105.95 -139.1 Q-125.35 -134.75 -106.9 -129.75 M-5.85 -321.0 L-6.75 -322.65 Q-10.4 -328.15 -16.65 -325.25 L-18.05 -327.6 Q-39.6 -331.85 -47.4 -311.65 -60.8 -313.5 -70.6 -307.85 L-68.6 -305.05 Q-62.3 -296.8 -52.1 -299.0 -38.35 -276.35 -20.55 -301.4 -9.9 -290.6 2.7 -296.2 L-1.35 -308.35 8.05 -313.1 Q2.3 -320.95 -5.85 -321.0 M-207.5 -278.9 Q-204.6 -278.9 -202.55 -280.65 -200.5 -282.45 -200.5 -284.95 -200.5 -287.45 -202.55 -289.2 -204.6 -291.0 -207.5 -291.0 -210.4 -291.0 -212.45 -289.2 -214.5 -287.45 -214.5 -284.95 -214.5 -282.45 -212.45 -280.65 -210.4 -278.9 -207.5 -278.9 M-234.3 -269.8 L-236.5 -270.85 Q-270.6 -263.7 -247.85 -244.8 L-246.05 -249.2 Q-238.35 -250.4 -238.8 -257.9 L-236.65 -258.8 Q-229.65 -262.5 -234.3 -269.8 M-174.4 61.2 L-174.35 61.25 Q-159.15 66.85 -169.1 56.3 L-172.1 57.0 -174.4 61.2 M351.8 265.95 Q361.3 268.3 352.85 258.95 323.8 259.2 351.8 265.95 M443.0 49.8 L442.5 51.25 Q436.5 73.2 460.65 65.65 458.2 47.35 443.0 49.8 M384.9 24.45 L389.55 20.4 Q355.25 9.6 380.35 38.85 L381.5 40.45 Q390.5 72.95 387.25 39.6 386.65 33.35 384.9 24.45 M88.45 328.3 L89.6 322.8 Q80.3 311.9 69.0 320.2 62.55 314.35 55.7 320.85 54.1 321.6 52.55 322.3 50.0 328.7 56.1 333.2 39.65 334.85 47.15 349.55 L45.05 348.1 36.9 357.05 Q47.3 363.5 60.8 361.25 L71.65 387.35 Q77.7 369.45 73.55 350.5 L77.35 348.7 Q84.5 362.65 97.45 366.7 105.8 345.8 90.4 335.25 L90.8 334.35 Q92.45 330.5 88.45 328.3 M319.4 208.05 Q314.05 207.4 314.05 211.5 314.05 213.25 315.35 214.95 316.85 216.85 318.8 216.85 322.6 216.85 326.1 212.9 324.7 208.7 319.4 208.05 M216.55 258.95 Q213.9 250.9 208.55 250.9 206.2 250.9 203.85 252.95 201.15 255.25 201.15 258.3 201.15 265.6 209.9 265.6 211.9 265.6 213.8 264.3 216.55 262.5 216.55 258.95 M219.15 203.55 Q230.35 191.0 209.85 193.45 L208.6 191.05 Q199.5 192.25 200.5 202.5 200.3 209.8 206.8 209.95 L207.7 209.85 Q217.6 232.25 219.15 203.55 M173.45 170.8 Q176.55 158.1 164.4 153.4 162.45 157.55 161.65 161.9 160.1 170.1 167.45 169.15 L173.45 170.8 M252.55 146.75 L255.3 143.6 254.6 141.4 234.25 140.65 227.2 130.65 229.0 128.35 Q232.35 123.85 230.2 118.95 L227.2 118.0 224.3 113.5 Q219.25 113.3 216.1 117.45 213.25 121.25 215.25 125.4 212.3 128.35 214.25 131.7 218.7 139.3 227.2 143.4 L223.9 150.75 218.2 157.4 239.25 164.7 Q236.5 172.7 240.7 180.8 242.6 184.45 245.35 186.8 L243.3 162.35 255.9 149.45 252.55 146.75 M304.2 177.9 L300.75 177.15 Q291.85 177.95 290.1 186.7 L285.5 185.85 Q274.8 185.8 275.95 196.55 L279.4 198.85 275.95 208.15 Q279.5 212.75 283.35 216.9 303.45 238.3 301.5 202.75 309.9 202.0 313.4 195.5 L310.1 190.85 Q310.9 190.75 311.35 190.3 322.8 178.75 304.2 177.9 M138.05 126.75 L126.0 121.3 Q107.85 128.9 123.4 138.85 126.65 150.6 134.7 156.8 L139.45 143.9 137.05 141.4 140.8 136.7 136.6 132.2 138.05 126.75 M149.8 -21.0 L144.4 -25.0 Q134.25 -10.9 152.75 -14.1 L149.8 -21.0 M242.9 -177.0 L241.0 -177.1 Q208.6 -164.05 237.15 -157.15 L238.05 -157.25 239.7 -163.05 Q276.15 -150.85 250.4 -171.75 248.6 -176.8 242.9 -177.0 M187.85 -166.4 Q178.55 -171.0 169.1 -165.5 L167.85 -164.8 165.5 -165.75 161.65 -162.4 Q131.7 -162.65 151.85 -149.75 152.5 -149.3 153.05 -150.95 L152.5 -153.75 Q158.3 -151.35 163.9 -153.6 L170.45 -149.65 Q174.3 -128.1 184.15 -153.8 L184.5 -155.75 194.65 -154.7 Q197.95 -163.8 187.85 -166.4 M199.2 -255.1 L201.8 -254.55 Q201.8 -253.8 201.95 -253.0 204.5 -240.2 217.15 -245.9 215.35 -266.45 199.2 -255.1 M310.2 -280.25 L296.65 -276.0 308.9 -262.95 Q305.65 -254.2 312.0 -247.65 L314.1 -245.65 Q323.9 -254.05 316.45 -268.65 L330.5 -279.25 Q323.95 -289.5 313.05 -285.15 L310.35 -283.8 310.2 -280.25 M269.1 -281.3 Q272.35 -274.2 280.0 -274.45 L281.75 -274.65 281.65 -279.2 284.35 -281.0 Q282.65 -287.9 274.85 -287.45 L269.1 -281.3 M253.65 -278.5 Q251.95 -278.1 251.45 -276.5 226.25 -271.1 242.45 -257.9 244.0 -238.55 259.95 -255.95 261.45 -257.6 259.75 -260.6 L261.8 -263.9 256.4 -271.9 258.8 -274.3 Q258.85 -279.05 253.65 -278.5 M26.75 -234.05 Q28.7 -235.5 28.7 -237.5 26.1 -242.2 20.75 -242.2 19.5 -242.2 17.45 -240.85 15.4 -239.5 15.4 -238.8 15.4 -236.65 17.45 -234.8 19.75 -232.75 23.1 -232.75 25.0 -232.75 26.75 -234.05 M37.5 -317.7 L33.3 -314.25 Q27.5 -316.5 26.85 -309.85 L26.75 -308.35 Q56.75 -292.15 38.7 -316.5 L37.5 -317.7 M349.45 -21.55 Q361.55 -12.15 363.0 -25.15 L362.8 -26.3 366.15 -29.65 Q350.35 -43.8 349.45 -21.55 M407.95 -175.8 Q430.55 -168.4 423.7 -190.9 L422.55 -191.0 Q396.05 -191.65 401.3 -165.75 L407.95 -175.8 M-299.9 190.3 Q-302.65 185.25 -308.8 188.25 L-309.75 188.85 Q-321.3 203.4 -303.6 199.25 -303.1 199.25 -302.7 198.85 L-295.3 201.5 Q-279.85 235.35 -289.2 201.55 L-287.35 198.85 Q-289.8 188.0 -299.9 190.3 M-43.15 302.45 L-42.1 304.7 Q-38.65 325.15 -26.45 312.2 -26.4 312.1 -26.7 311.75 -22.45 312.05 -22.05 308.1 -25.85 299.65 -34.0 302.1 -38.95 297.55 -43.15 302.45 M-33.35 204.9 Q-33.25 204.0 -33.4 203.15 -35.75 187.2 -46.75 196.9 -43.9 207.3 -33.35 204.9 M-258.0 180.6 L-261.05 165.9 Q-255.9 157.5 -263.2 151.35 -266.9 148.2 -271.7 147.35 L-270.65 144.65 -276.15 138.15 -281.4 139.3 Q-284.4 136.9 -288.35 136.95 -294.8 136.2 -298.65 141.4 L-303.95 142.45 Q-293.25 175.45 -258.0 180.6 M-303.5 105.05 L-304.0 102.0 -313.05 102.95 Q-309.0 127.7 -298.7 107.7 -298.4 107.15 -299.0 106.15 L-303.5 105.05 M-206.6 102.25 L-211.8 110.25 Q-206.85 121.55 -195.95 115.05 -196.35 104.55 -206.6 102.25" fill="#ffffff" fill-rule="evenodd" stroke="none"/>
  </g>
</svg>
