<?xml version="1.0" encoding="UTF-8" standalone="no"?>
<svg xmlns:ffdec="https://www.free-decompiler.com/flash" xmlns:xlink="http://www.w3.org/1999/xlink" ffdec:objectType="shape" height="751.65px" width="952.0px" xmlns="http://www.w3.org/2000/svg">
  <g transform="matrix(1.0, 0.0, 0.0, 1.0, 507.1, 345.1)">
    <path d="M-346.3 -92.9 L-350.4 -97.8 -352.95 -96.95 -350.65 -87.9 -346.3 -92.9 M-364.6 -286.25 Q-366.8 -286.1 -366.8 -281.95 -366.8 -280.5 -365.5 -278.95 -363.8 -276.9 -361.1 -276.9 -358.25 -280.6 -360.0 -283.55 -360.7 -284.65 -361.65 -285.3 -362.7 -286.05 -364.1 -286.25 L-364.6 -286.25 M-288.55 -179.65 L-291.4 -178.5 -291.9 -179.65 -294.55 -179.65 -295.2 -175.0 Q-294.75 -173.1 -293.3 -172.1 -291.25 -170.65 -288.65 -171.05 L-287.5 -175.6 -288.55 -179.65 M-43.45 -343.55 L-42.1 -329.65 -36.75 -340.85 -43.45 -343.55 M-6.55 -345.1 L-30.1 -343.25 -31.4 -340.05 -17.35 -334.2 -16.7 -326.2 -7.1 -327.75 -8.65 -334.85 2.6 -336.95 -6.55 -345.1 M-257.95 -274.3 L-257.95 -272.2 Q-257.35 -270.25 -254.2 -270.25 L-250.55 -270.9 -250.55 -274.2 Q-250.7 -275.1 -251.75 -276.2 -253.05 -277.55 -254.6 -277.55 L-256.55 -277.55 Q-257.95 -277.0 -257.95 -274.3 M-349.6 -87.15 Q-350.45 -87.55 -350.9 -86.65 L-351.45 -86.45 -351.1 -86.1 Q-353.35 -76.8 -345.1 -77.45 L-345.0 -77.8 Q-346.4 -83.1 -351.1 -86.1 L-350.9 -86.65 -349.6 -87.15 M-286.7 176.8 L-286.7 172.85 -288.0 170.8 -283.75 166.7 -290.65 160.9 -294.0 162.75 -294.85 159.65 -297.0 158.75 -308.0 167.15 -303.7 171.2 -302.7 174.45 Q-295.45 180.75 -286.7 176.8 M-422.3 61.2 L-421.65 63.9 Q-420.35 66.55 -417.25 66.55 -413.65 66.55 -412.95 65.2 L-412.95 63.15 Q-412.95 57.2 -417.9 57.2 -422.3 57.2 -422.3 61.2 M-505.7 -27.7 Q-505.7 -26.95 -506.35 -26.95 L-505.05 -26.95 -507.1 -24.7 Q-507.1 -23.95 -506.35 -22.95 -505.3 -21.6 -503.65 -21.6 -501.65 -21.6 -499.7 -24.95 -501.95 -26.9 -505.7 -27.7 M-296.8 221.5 L-300.1 218.25 Q-311.75 223.3 -299.35 227.6 L-299.35 225.6 -296.05 224.9 -296.8 221.5 M56.15 387.25 Q60.35 393.5 68.2 391.95 L68.45 387.95 76.15 379.95 Q70.9 370.95 60.55 376.55 L56.15 387.25 M413.1 55.8 Q412.0 54.55 411.35 54.55 L410.75 54.8 Q408.85 55.85 408.5 56.25 408.3 56.45 408.3 57.55 408.3 58.35 408.95 59.25 409.9 60.55 411.65 60.55 413.6 60.55 414.9 59.25 414.35 57.25 413.1 55.8 M402.25 39.25 L402.25 48.35 411.3 48.35 411.3 39.25 402.25 39.25 M85.5 363.45 Q85.1 372.85 92.15 378.4 91.65 394.35 105.5 387.6 L93.75 372.4 94.45 363.15 85.5 363.45 M310.75 216.85 L316.75 220.3 Q307.3 225.95 312.3 231.5 L316.9 232.8 Q326.35 225.15 318.15 216.45 L322.95 206.25 317.4 202.9 311.5 209.55 314.7 212.25 310.75 216.85 M254.85 193.5 Q251.9 193.5 251.9 196.9 251.9 198.65 253.25 200.2 254.85 202.15 257.6 202.15 261.9 202.15 261.9 197.55 261.9 196.85 260.6 195.6 259.2 194.2 257.95 194.2 256.3 193.5 254.85 193.5 M231.3 230.0 L232.6 226.55 226.7 217.05 Q215.1 222.45 225.85 229.25 228.45 230.95 231.3 230.0 M252.55 179.3 L258.8 178.65 Q260.6 170.4 251.25 168.75 L241.6 181.25 252.55 179.3 M149.7 168.75 Q129.55 163.0 149.65 169.15 L149.7 168.75 M199.7 -168.4 L195.55 -168.95 Q191.6 -168.5 191.9 -164.8 L192.05 -164.25 194.15 -163.65 191.1 -159.05 Q203.2 -149.55 199.05 -163.0 L206.35 -164.35 207.75 -167.1 Q204.8 -171.75 199.7 -168.4 M265.0 -272.65 L264.1 -273.45 Q255.6 -263.25 270.05 -263.55 L270.85 -270.6 265.0 -272.65 M434.2 -185.35 L440.5 -182.1 442.4 -182.8 442.1 -186.1 444.9 -187.55 Q438.5 -195.2 434.2 -185.35 M328.1 -285.8 L327.65 -282.3 328.35 -279.3 336.3 -278.6 Q337.1 -280.65 336.7 -282.6 336.35 -284.4 334.85 -285.25 333.25 -286.15 331.4 -285.9 L330.3 -285.3 328.1 -285.8 M-275.95 192.3 L-270.7 191.5 -272.85 182.3 Q-287.55 179.25 -281.15 194.9 -280.2 197.2 -277.35 196.9 L-274.65 194.85 -275.95 192.3 M72.0 405.5 Q76.6 408.2 79.45 404.05 L73.55 395.35 69.7 396.0 68.2 399.9 Q68.85 403.6 72.0 405.5" fill="#ffffff" fill-rule="evenodd" stroke="none"/>
  </g>
</svg>
