<?xml version="1.0" encoding="UTF-8" standalone="no"?>
<svg xmlns:ffdec="https://www.free-decompiler.com/flash" xmlns:xlink="http://www.w3.org/1999/xlink" ffdec:objectType="shape" height="100.2px" width="108.05px" xmlns="http://www.w3.org/2000/svg">
  <g transform="matrix(1.0, 0.0, 0.0, 1.0, 53.85, 50.1)">
    <path d="M15.9 -41.65 L13.4 -44.8 13.35 -44.45 13.35 -44.3 13.7 -43.8 13.65 -43.95 13.8 -43.95 14.15 -43.25 14.2 -43.2 14.2 -43.15 14.3 -43.0 14.45 -43.2 16.2 -40.7 17.55 -38.3 20.4 -33.5 20.7 -33.5 20.7 -35.8 20.25 -38.9 20.25 -41.15 Q21.35 -40.45 22.2 -36.45 23.1 -31.75 23.5 -31.0 24.45 -31.8 25.8 -36.4 L27.3 -41.4 Q28.0 -41.45 28.15 -41.2 28.5 -40.65 28.5 -38.15 L28.0 -32.55 27.5 -29.0 27.75 -29.95 28.15 -31.0 M28.6 -29.15 Q28.6 -29.75 31.7 -32.25 L35.7 -35.3 36.15 -35.3 35.9 -34.3 34.65 -29.3 33.6 -24.9 36.1 -23.05 39.2 -21.05 M34.0 -27.85 L34.0 -27.9 34.1 -28.3 34.0 -27.85 33.95 -27.8 33.95 -27.7 33.85 -27.25 33.8 -27.05 34.35 -28.9 34.35 -29.15 34.25 -28.85 34.2 -28.7 34.1 -28.3 34.15 -28.6 34.15 -28.65 34.2 -28.9 34.2 -28.8 34.35 -29.15 34.35 -29.2 35.3 -32.8 32.0 -24.5 32.15 -24.35 32.2 -24.4 32.6 -25.1 M34.35 -29.15 L34.25 -28.85 M34.2 -28.7 L34.2 -28.8 34.15 -28.65 M33.7 -26.75 L32.95 -24.85 32.9 -24.65 33.55 -26.2 33.6 -26.3 33.7 -26.75 33.75 -26.75 33.75 -26.85 33.85 -27.25 M33.8 -27.05 L33.75 -26.85 M34.1 -28.3 L33.15 -25.5 33.65 -26.85 33.95 -27.8 M32.15 -24.35 L32.9 -23.75 32.9 -23.85 33.25 -25.1 33.55 -26.2 M32.95 -25.0 L32.95 -24.85 33.15 -25.5 33.0 -25.2 32.95 -25.0 32.95 -25.1 33.0 -25.2 34.15 -28.6 M33.4 -24.1 L33.6 -24.9 33.25 -25.1 M35.9 -34.3 L35.3 -32.8 M0.05 -36.1 Q0.4 -37.5 2.4 -41.1 4.6 -45.0 5.55 -45.45 6.2 -45.05 7.3 -39.45 L8.45 -33.5 8.45 -36.1 Q8.1 -37.8 7.85 -40.65 13.7 -34.3 14.9 -33.5 L15.65 -34.1 15.75 -34.7 Q15.75 -35.6 14.95 -39.0 L14.85 -39.6 14.0 -42.25 14.0 -42.2 14.15 -41.3 14.15 -41.25 14.2 -41.2 14.2 -41.1 14.2 -41.05 14.25 -40.85 14.6 -40.1 14.45 -39.9 14.25 -40.85 14.2 -40.9 14.65 -38.65 15.0 -36.2 15.05 -35.95 15.1 -35.5 15.15 -34.75 14.4 -39.05 14.35 -39.45 14.25 -39.85 13.75 -42.25 13.7 -42.35 13.25 -44.05 13.2 -44.2 13.2 -44.35 13.25 -44.05 13.65 -42.65 13.75 -42.65 13.35 -44.3 13.1 -44.75 M13.1 -45.2 L13.4 -44.8 M13.7 -43.8 L14.3 -42.3 14.2 -42.95 14.0 -43.45 13.7 -43.8 M13.8 -43.95 L14.0 -43.45 14.15 -43.25 M16.2 -40.7 L14.4 -42.9 14.3 -43.0 14.2 -42.95 14.2 -43.15 M13.75 -42.65 L13.8 -42.65 13.9 -42.65 13.85 -42.9 13.8 -42.95 13.8 -43.15 13.85 -42.9 14.3 -42.2 14.3 -42.3 14.35 -42.15 14.3 -42.2 14.35 -41.9 14.9 -39.45 15.05 -38.7 15.3 -37.8 15.45 -37.3 15.45 -37.1 15.3 -37.8 M14.0 -42.2 L13.95 -42.3 13.95 -42.35 13.8 -42.65 14.0 -41.8 14.15 -41.25 M13.9 -42.65 L13.9 -42.5 13.95 -42.4 13.95 -42.35 14.0 -42.25 13.95 -42.3 M13.7 -42.35 L13.65 -42.65 M13.75 -42.65 L13.9 -42.05 14.0 -41.8 14.1 -41.15 14.2 -40.9 14.2 -41.05 M14.65 -38.65 L14.1 -41.15 13.75 -42.25 M14.35 -39.45 L14.55 -38.45 15.0 -36.2 M14.35 -41.9 L14.85 -39.6 15.05 -38.7 M-45.1 -6.3 L-45.15 -7.0 Q-45.6 -6.6 -47.55 -5.8 L-50.2 -4.5 -52.7 -4.5 -52.7 -4.6 -53.0 -3.5 Q-53.0 -2.5 -48.05 1.6 L-43.1 5.8 Q-43.1 6.45 -46.3 8.95 L-46.35 9.05 -45.75 8.7 -47.2 9.7 -51.05 12.7 -50.8 12.7 Q-46.25 11.2 -43.65 11.2 L-42.0 11.45 -40.9 11.7 Q-40.8 12.75 -44.25 16.8 -48.0 21.15 -48.2 21.9 L-45.95 21.9 Q-43.85 21.1 -39.4 18.65 L-35.35 16.3 -34.7 16.3 Q-35.45 17.55 -36.45 22.55 -37.5 27.6 -37.5 30.25 L-37.4 31.5 -33.3 30.8 -28.2 29.55 -23.95 29.55 -23.45 31.25 -23.1 32.8 -23.1 32.6 -23.05 33.05 -20.0 47.35 -19.2 47.35 -15.85 45.15 -10.1 41.35 -9.1 40.65 Q-3.35 36.65 -3.05 35.6 L-1.0 40.3 Q0.8 44.2 1.6 44.85 L1.75 44.5 2.45 42.35 2.35 42.45 2.65 42.0 3.4 39.75 Q5.0 35.15 5.55 34.6 5.95 35.25 7.05 40.3 L8.05 44.5 8.45 45.85 8.95 45.85 13.1 40.3 16.9 35.2 19.15 37.65 Q21.1 39.55 21.4 40.2 L21.6 39.75 21.8 39.25 Q28.0 22.85 28.8 21.35 L30.85 23.25 31.6 23.9 33.3 25.45 33.65 25.75 34.7 18.85 34.85 18.85 36.7 22.35 Q38.3 25.9 38.55 27.0 L38.95 24.4 39.25 21.3 38.8 16.85 38.95 16.85 Q40.4 16.7 45.5 20.05 L50.3 23.4 50.75 23.4 47.8 16.85 44.75 11.8 42.05 7.5 Q42.05 6.75 44.4 5.95 L45.65 5.55 46.75 5.2 Q51.45 4.0 51.45 3.35 L51.1 1.75 Q50.6 1.4 49.45 -0.4 L47.8 -3.05 46.85 -4.1 42.25 -8.7 Q42.25 -9.65 45.0 -12.85 L47.8 -15.95 Q47.8 -17.75 40.7 -19.95 L36.0 -21.55 36.9 -20.8 M32.9 -23.85 L33.6 -23.4 34.8 -22.5 36.0 -21.55 Q33.5 -22.55 32.95 -23.15 32.75 -23.2 32.65 -23.3 L32.0 -23.85 M32.15 -24.35 L32.1 -24.25 Q32.85 -23.2 33.4 -23.1 L33.25 -23.1 32.95 -23.15 M32.95 -25.0 L32.85 -24.6 32.9 -24.65 M31.9 -24.45 L32.0 -24.5 31.8 -24.6 31.9 -24.45 32.1 -24.25 Q31.9 -24.1 31.85 -24.35 L31.9 -24.45 M33.6 -23.4 L32.9 -23.75 M51.1 1.75 L50.75 1.0 49.75 -0.45 48.85 -1.85 48.15 -2.65 47.8 -3.05 M48.85 -1.85 L50.2 0.05 50.35 0.25 51.05 1.15 49.95 -0.95 49.55 -1.6 50.65 -0.15 50.85 0.1 50.95 0.25 51.3 0.75 53.1 2.95 52.85 2.95 53.55 3.75 53.7 4.1 M50.95 0.25 L51.05 0.45 51.2 0.65 51.3 0.75 51.4 0.9 51.75 1.4 52.2 2.05 52.35 2.3 52.4 2.35 52.7 2.7 52.85 2.95 52.7 2.8 Q52.9 3.75 53.55 3.75 M51.4 0.9 L51.4 0.95 51.45 1.0 51.45 1.05 51.75 1.4 52.0 1.85 52.2 2.25 52.4 2.65 52.7 2.8 52.4 2.35 M51.2 0.65 L51.4 0.95 M51.05 1.15 L51.65 1.85 51.75 1.9 51.7 1.8 50.85 0.6 49.95 -0.95 M45.65 5.55 L48.45 5.05 49.7 4.85 52.25 4.2 52.25 4.1 52.15 3.35 52.05 3.15 51.4 2.55 51.4 2.3 52.05 3.15 M51.05 1.15 L51.45 1.9 52.1 2.9 51.95 2.55 51.75 1.9 52.4 2.65 52.9 4.1 52.85 4.15 52.55 4.5 52.6 4.5 Q52.9 4.3 53.3 4.2 L52.9 4.4 52.6 4.5 51.4 5.0 51.1 5.0 50.9 5.0 50.3 5.1 48.85 5.4 M52.7 2.7 L52.7 2.8 M51.45 1.9 L50.75 1.0 50.35 0.25 M51.45 1.05 L51.7 1.8 Q51.95 2.2 52.2 2.25 M52.1 2.9 L52.45 3.8 52.15 3.35 M52.25 4.1 L52.9 4.1 M51.1 5.0 L51.4 4.85 51.4 5.0 M50.9 5.0 Q51.55 4.55 52.85 4.15 M46.8 5.6 L49.7 4.85 M17.1 36.65 L17.2 36.9 19.1 39.95 20.4 41.85 17.9 37.65 17.8 37.45 18.45 38.45 18.45 38.2 19.3 39.55 20.1 40.75 20.25 41.0 21.0 42.0 20.1 40.65 19.4 39.2 19.5 38.95 19.4 38.7 20.2 39.85 20.45 40.0 20.55 40.15 20.75 40.45 20.9 40.7 21.45 41.6 22.55 38.9 23.3 36.85 23.35 36.8 24.1 34.35 24.1 34.6 24.25 34.6 23.5 37.85 24.35 35.2 24.95 32.85 25.1 32.85 25.55 31.35 25.25 32.45 25.85 30.9 25.95 30.55 26.5 28.55 26.65 28.55 27.65 25.2 27.7 25.0 28.5 22.4 28.05 24.25 28.5 23.4 28.5 23.35 28.55 23.2 28.9 22.4 28.85 22.7 30.85 23.25 M28.2 24.5 L28.1 24.85 28.25 24.5 28.2 24.5 28.55 23.2 M28.05 24.25 L27.7 25.45 28.05 24.5 28.15 24.5 Q28.25 23.9 28.5 23.4 M28.2 24.5 L28.15 24.5 28.05 24.95 28.1 24.9 28.1 24.85 M28.85 22.7 L28.25 24.5 M2.65 42.0 L4.05 39.5 3.9 39.7 Q4.0 38.9 5.35 36.6 L5.2 36.65 5.15 36.85 5.15 36.65 5.2 36.65 5.45 35.6 M5.45 36.4 L5.45 36.25 5.4 36.5 5.45 36.4 M5.35 36.6 L5.4 36.5 M8.05 44.5 Q7.8 44.35 7.3 42.75 L6.9 41.55 6.9 41.5 Q6.1 40.35 5.35 37.65 L5.35 37.5 4.9 38.4 4.85 38.5 4.45 39.25 3.45 41.2 1.75 44.5 M6.9 41.5 L6.0 37.9 5.8 37.2 5.45 36.85 5.45 37.2 5.35 37.5 M7.3 42.75 L7.05 41.7 6.9 41.5 M7.05 41.7 L6.0 37.9 M5.45 36.85 L4.9 38.25 4.9 38.4 M4.9 38.25 L4.9 38.2 4.1 39.45 4.85 38.3 4.9 38.25 M4.1 39.45 L4.05 39.5 M4.45 39.25 L4.05 39.9 2.45 42.35 2.65 42.0 M18.45 38.45 L18.7 38.8 18.45 38.45 M19.3 39.55 L19.5 39.9 19.55 39.95 19.9 40.5 20.1 40.75 M19.3 39.55 L18.7 38.8 19.5 39.9 M33.65 25.75 L33.6 26.0 33.7 26.0 33.65 25.75 34.9 26.95 M28.0 25.2 L28.0 25.3 28.0 25.25 28.0 25.2 28.05 25.05 28.05 24.95 M27.7 26.25 L28.0 25.3 27.8 25.7 27.55 26.5 27.7 26.25 M26.4 29.4 L25.5 32.3 24.8 34.6 24.75 34.65 24.65 35.05 24.6 35.1 24.35 36.1 25.25 33.35 26.75 28.85 27.7 25.45 26.65 28.55 26.4 29.4 25.55 31.9 24.8 34.6 M25.95 30.55 L26.65 28.55 M26.75 28.85 L27.55 26.5 M25.2 32.65 L25.1 32.85 25.05 33.0 24.95 33.3 24.9 33.5 24.4 35.2 25.05 33.25 25.2 32.65 25.25 32.45 M24.95 33.3 L25.1 32.85 M24.75 34.65 L24.7 34.75 24.65 35.05 M24.6 35.1 L24.6 35.2 24.55 35.25 24.45 35.6 24.1 36.8 23.9 37.6 24.35 36.1 23.15 41.0 23.0 41.65 26.75 28.85 M24.7 34.75 L24.6 35.1 M23.85 37.05 L24.15 36.1 24.4 35.2 24.0 36.45 23.85 37.05 23.5 38.4 23.6 38.05 24.15 36.1 M23.35 36.8 L23.65 35.9 24.1 34.6 M24.9 33.5 L24.35 35.2 24.0 36.45 23.15 39.1 22.4 42.0 22.7 41.2 23.1 39.8 23.5 38.4 M24.75 34.65 L25.05 33.25 25.55 31.9 25.85 30.9 M23.5 37.85 L23.45 38.1 23.4 38.15 23.15 39.1 22.35 41.6 22.2 42.25 22.2 42.0 22.35 41.6 Q22.6 40.5 23.4 38.15 M24.1 36.8 L23.55 38.55 23.9 37.6 22.9 40.75 22.7 41.95 22.9 41.8 23.15 41.0 M23.1 39.8 L22.9 40.75 23.3 39.35 23.55 38.55 M22.7 41.3 L22.6 41.7 22.7 41.4 22.7 41.3 22.7 41.25 22.85 40.85 22.9 40.75 23.3 39.35 M22.6 41.7 L22.45 42.3 22.35 42.75 22.65 42.05 22.65 42.0 22.7 41.95 22.8 41.2 22.7 41.5 22.7 41.4 22.8 41.1 22.85 41.1 22.85 40.95 22.9 40.75 M20.9 40.7 L21.35 41.5 21.4 41.55 21.45 41.65 21.45 41.6 21.5 41.7 22.55 38.9 M21.45 41.65 L21.5 41.7 21.55 41.75 21.55 41.8 21.75 41.45 23.3 36.85 M21.5 41.7 L21.5 41.75 21.55 41.8 21.7 42.0 22.25 42.5 22.4 42.0 22.3 42.55 22.1 43.1 22.2 43.05 22.35 42.5 22.7 41.2 M21.45 41.65 L21.3 42.0 21.4 42.0 21.5 41.75 21.45 41.65 M20.2 39.85 L20.5 40.35 21.35 41.5 M20.4 41.85 L20.5 42.05 20.65 42.25 21.3 43.0 19.55 39.95 M19.5 38.95 L20.3 40.55 21.15 42.0 21.0 42.0 21.95 43.25 22.25 42.5 22.3 42.55 M22.65 42.05 L22.7 41.95 M22.1 43.1 L21.95 43.45 22.05 43.25 22.1 43.25 22.2 43.05 22.25 43.05 22.45 42.3 M22.35 42.75 L22.3 43.05 22.25 43.05 22.05 43.45 22.4 43.05 22.65 42.05 M22.35 42.75 L22.25 43.05 22.1 43.25 M22.35 42.5 L22.6 41.7 M21.4 42.0 L21.55 41.8 M22.8 41.2 L22.8 41.1 M23.0 41.65 L22.9 41.8 22.25 43.85 M22.85 40.85 L22.7 41.3 M22.05 43.5 L21.95 43.5 21.9 43.5 21.9 43.75 21.9 43.85 22.05 43.5 22.05 43.45 M21.95 43.45 L21.95 43.5 20.25 41.0 M21.3 43.0 L21.9 43.75 M21.95 43.45 L21.95 43.25 M28.05 24.25 L27.7 25.0 M-44.65 -21.8 L-42.6 -21.5 -42.4 -21.45 -42.25 -21.45 -44.3 -22.6 Q-46.15 -23.85 -47.0 -23.85 L-45.8 -13.25 -45.85 -13.95 -45.95 -17.65 -45.95 -17.75 -45.95 -18.2 -46.1 -18.65 -46.2 -20.9 -46.5 -23.05 -46.35 -23.05 -46.35 -23.0 -46.3 -22.75 -46.15 -22.05 -45.85 -21.95 -45.85 -22.05 -45.85 -22.25 -45.85 -22.3 -45.7 -22.05 -45.7 -21.9 -44.95 -21.75 -44.65 -21.8 M-42.25 -21.45 L-41.1 -21.05 -41.05 -21.05 -38.7 -20.75 -37.0 -20.6 -36.75 -21.7 -37.65 -29.25 -37.65 -31.45 -36.3 -29.4 -34.55 -26.9 -34.45 -26.9 -34.0 -30.45 -33.25 -34.1 Q-32.5 -33.9 -30.8 -32.25 L-28.6 -30.45 -28.35 -30.45 -26.95 -34.5 -25.75 -37.8 -23.0 -44.45 -22.55 -44.45 -21.65 -38.2 -21.65 -38.05 -21.2 -36.55 Q-20.8 -37.3 -18.4 -37.6 -15.9 -37.9 -15.9 -40.4 -15.9 -41.15 -16.9 -43.8 L-17.95 -47.0 -14.25 -43.5 -9.8 -39.35 -8.7 -39.35 Q-8.7 -39.9 -8.85 -39.9 L-8.05 -39.65 -7.15 -44.45 -6.75 -44.45 -6.15 -40.1 -5.5 -36.35 Q-4.6 -37.2 -3.55 -40.1 L-3.45 -40.45 -3.0 -41.75 -2.95 -41.95 -2.7 -42.75 -2.5 -43.4 -2.4 -43.7 -2.25 -44.05 -1.7 -45.95 -1.9 -45.05 -1.8 -45.25 -1.35 -46.6 -1.25 -47.1 -1.1 -47.75 -1.1 -47.7 -0.85 -48.5 -0.65 -49.0 -0.5 -49.6 -0.5 -46.1 Q-0.3 -45.25 -0.4 -42.9 L-0.5 -41.1 -0.5 -40.85 -0.6 -39.9 -0.65 -39.1 -0.45 -37.8 M-44.95 -21.75 L-45.7 -21.55 -45.7 -21.5 -43.2 -21.4 -44.95 -21.75 M-42.4 -21.45 L-43.2 -21.4 M-46.35 -23.0 L-46.35 -22.8 -46.3 -22.75 -46.2 -21.1 -46.2 -20.9 -46.15 -20.6 -46.1 -20.25 -46.1 -21.05 -46.0 -19.8 -45.95 -19.5 -45.95 -18.2 -45.9 -17.35 -45.9 -17.25 -45.85 -13.95 M-45.8 -21.95 L-45.8 -21.5 -45.7 -21.55 -45.7 -21.9 -45.8 -21.95 -45.85 -22.25 M-45.8 -21.95 L-45.85 -21.95 -45.8 -21.5 -45.7 -21.5 -45.65 -18.55 -45.6 -14.15 M-45.8 -21.5 L-45.8 -21.3 -45.7 -19.7 -45.7 -18.95 -45.65 -18.55 M-46.1 -20.25 L-46.1 -20.0 -46.1 -18.65 M-46.15 -22.05 L-45.95 -20.75 -45.7 -18.95 M-46.15 -20.6 L-46.1 -20.0 M-46.2 -21.1 L-46.35 -22.8 M-45.95 -17.65 L-45.9 -17.35 M-45.8 -13.25 L-45.8 -13.15 -45.8 -13.1 -45.65 -11.35 -45.15 -7.0 M-46.0 -19.8 L-45.95 -18.2 M-52.7 -4.6 L-52.65 -4.7 -52.5 -4.9 -51.95 -5.55 M-0.65 -49.0 L-0.65 -48.75 -0.6 -46.4 -0.65 -46.5 -0.95 -46.5 -1.05 -45.2 -1.0 -44.9 -1.1 -44.75 -1.1 -44.7 -1.0 -44.05 -1.0 -43.95 -1.0 -43.85 -0.95 -43.65 -0.75 -42.6 -0.7 -42.45 -0.5 -41.35 -0.55 -44.45 -0.6 -46.4 -0.5 -46.1 -0.55 -44.45 M-1.1 -47.25 L-1.1 -47.2 -1.15 -47.1 -0.95 -47.75 -1.05 -47.45 -1.1 -47.35 -1.1 -47.25 -1.1 -47.7 -1.25 -47.1 M-1.1 -47.2 L-1.35 -46.3 -1.45 -46.1 -1.5 -45.85 -0.95 -46.5 -0.85 -47.95 -1.1 -47.2 -1.15 -47.05 -1.2 -47.0 -1.3 -46.65 -1.2 -46.9 -1.15 -47.05 -1.15 -47.1 -1.2 -46.9 -1.35 -46.3 -1.3 -46.65 -1.55 -45.85 -1.55 -45.8 -1.55 -45.75 -1.55 -45.65 -1.55 -45.7 -1.7 -45.15 -1.75 -45.05 -1.9 -44.5 -2.3 -43.35 -2.65 -42.0 -3.05 -40.65 -3.2 -40.65 -2.65 -42.0 -2.5 -42.65 -2.7 -42.65 -2.05 -44.35 -1.9 -45.05 -2.25 -44.05 M-0.85 -47.95 L-0.65 -48.75 M-1.05 -47.45 L-0.85 -48.5 M-1.8 -45.25 L-1.7 -45.5 -1.5 -46.1 -1.5 -46.15 -1.45 -46.35 -1.35 -46.6 M-1.5 -45.85 L-1.55 -45.75 -1.55 -45.7 M-1.45 -46.1 L-1.55 -45.8 M-1.7 -45.5 L-1.65 -45.5 -1.55 -45.85 -1.55 -45.95 -1.5 -46.1 M-1.9 -44.5 L-1.7 -45.15 -1.55 -45.65 -1.65 -45.5 -1.75 -45.25 -1.85 -44.8 -2.3 -43.35 -2.5 -42.65 -2.05 -44.35 -1.9 -44.75 -1.85 -44.8 -1.8 -45.25 M-1.75 -45.25 L-1.7 -45.5 M-1.1 -44.75 L-1.25 -44.45 -1.3 -44.3 -2.5 -41.35 -2.7 -40.9 -2.95 -40.35 -3.0 -40.25 -3.2 -39.6 M-1.1 -44.7 L-1.1 -44.45 -1.0 -43.95 M-1.1 -43.85 L-1.1 -43.65 -1.05 -43.4 -1.1 -43.85 M-1.0 -43.85 L-1.0 -43.8 -0.95 -43.65 -0.9 -43.15 -0.75 -42.6 M-1.45 -46.35 L-1.2 -47.0 M-0.5 -41.1 L-0.5 -41.35 M-0.85 -41.8 L-1.05 -43.4 -0.85 -40.65 -0.85 -41.8 -1.0 -43.8 M-0.2 -37.1 Q-0.55 -36.55 -0.85 -36.55 L-0.85 -38.1 -0.65 -39.1 -0.85 -40.65 M-1.1 -44.75 L-2.35 -42.0 -2.7 -40.9 -2.35 -41.9 -1.25 -44.45 M-23.0 -42.6 L-22.8 -43.2 -23.0 -43.2 -23.0 -42.95 -23.0 -42.6 -22.95 -42.4 -22.8 -42.4 -21.65 -38.2 M-23.0 -42.4 L-23.15 -41.85 -23.1 -41.8 -22.9 -42.15 -22.95 -42.4 -23.0 -42.4 M-23.25 -41.95 L-23.85 -40.65 -23.5 -41.1 -23.45 -41.15 -23.4 -41.25 -23.15 -41.85 -23.25 -41.95 M-26.95 -34.5 L-26.75 -34.8 -26.1 -36.15 -26.35 -35.75 -25.05 -38.45 -24.65 -39.2 -24.5 -39.5 -24.05 -40.35 -24.05 -40.3 -23.9 -40.55 -23.85 -40.6 -23.35 -41.8 -23.1 -42.4 -23.0 -42.95 M-22.9 -42.15 L-22.8 -42.4 M-23.0 -42.6 L-23.1 -42.4 M-23.1 -41.65 L-23.1 -41.8 -23.4 -41.25 -23.1 -41.65 M-23.9 -40.55 L-24.0 -40.35 -23.85 -40.65 -23.85 -40.6 M-24.0 -40.35 L-24.1 -40.15 -24.25 -39.75 -24.1 -40.05 -24.1 -40.1 -24.0 -40.2 -24.0 -40.25 -24.0 -40.3 -24.0 -40.35 M-24.0 -40.3 L-23.5 -41.1 M-24.1 -39.9 L-24.05 -40.1 -24.1 -40.05 -24.1 -39.9 M-24.65 -39.2 L-26.05 -36.3 -25.15 -38.0 -25.3 -37.8 -25.05 -38.15 -25.0 -38.3 -25.0 -38.35 -24.9 -38.5 -24.8 -38.65 -24.7 -38.9 -24.65 -39.0 -24.5 -39.25 -24.25 -39.75 M-25.05 -38.15 L-25.15 -38.0 -25.1 -38.1 -25.0 -38.3 -24.9 -38.5 M-21.2 -36.55 L-21.3 -36.35 -21.4 -36.35 -21.55 -37.25 -21.65 -38.05 -22.25 -39.85 -22.9 -42.15 M-24.0 -40.2 L-24.05 -40.1 -23.45 -41.15 M-24.5 -39.5 L-24.05 -40.3 -24.1 -40.15 M-26.1 -36.15 L-26.05 -36.3 M-35.8 17.8 L-36.6 21.6 -36.6 21.7 -36.65 21.8 -36.65 21.85 -37.1 24.2 -37.35 25.45 -37.4 25.85 -37.5 26.3 -37.55 26.5 -38.35 30.55 -38.35 30.8 -37.65 30.8 -37.8 30.55 -37.7 30.45 -37.65 30.8 M-32.7 31.55 L-34.8 31.65 -34.85 31.65 -36.6 32.15 -37.05 32.25 -37.55 32.45 -38.0 32.5 -38.75 32.55 -38.6 31.7 -38.6 31.55 -38.6 31.45 -38.75 32.05 -38.55 30.5 -38.5 30.25 -38.35 30.25 -38.3 30.0 -38.05 28.5 -38.05 28.2 -37.95 27.9 -37.9 27.75 -37.35 24.45 -37.35 24.4 -37.25 24.2 -36.65 21.8 M-36.65 21.85 L-36.95 23.1 -37.45 25.65 -37.7 27.0 -37.55 26.55 -37.55 26.5 -37.4 25.85 M-23.1 32.8 L-23.1 32.9 -23.05 33.05 -22.5 36.85 -22.5 37.0 -21.55 43.5 -21.5 43.7 -21.5 43.75 -21.5 43.85 -21.4 44.35 -21.3 44.8 -21.35 45.1 -21.3 45.5 -21.25 45.65 -21.2 46.05 -21.1 46.6 -20.55 48.75 -21.25 44.05 -21.25 43.75 -20.75 45.95 -20.25 48.35 M-23.1 32.9 L-22.6 36.85 -22.5 36.85 M-22.6 36.85 L-22.55 37.1 -22.65 36.85 -22.6 36.85 M-37.25 24.2 L-37.4 24.95 -37.45 25.65 -37.9 27.75 -37.7 27.0 -37.75 27.5 -37.55 26.55 M-38.3 30.0 L-37.8 27.65 -37.75 27.5 M-37.95 27.9 L-38.0 28.2 -38.05 28.5 M-38.6 31.55 L-38.55 31.5 -38.5 30.9 -38.5 30.8 -38.4 30.65 -38.4 30.5 -38.35 30.4 -38.35 30.25 M-38.4 30.6 L-38.4 30.65 -38.45 30.75 -38.4 30.6 -38.4 30.5 M-38.5 30.9 L-38.45 30.75 -38.5 31.05 -38.5 30.9 M-34.85 31.65 L-35.55 31.7 -35.65 31.7 -36.2 31.75 -37.05 32.25 -37.2 32.3 -38.0 32.5 M-36.2 31.75 L-37.3 31.8 -37.2 32.3 M-37.65 31.8 L-37.3 31.8 -37.4 31.5 -38.05 31.55 M-34.8 31.65 L-34.65 31.6 -35.55 31.7 M-38.35 30.55 L-38.55 31.5 M-38.55 30.5 L-38.6 31.45 -38.5 30.25 M-23.45 31.25 L-22.45 39.1 -22.4 39.2 -22.3 39.75 -22.55 37.45 -22.55 37.1 M-22.5 38.9 L-22.35 39.85 -22.45 39.1 -22.5 38.9 M-9.1 40.65 L-10.95 42.2 -13.55 44.5 -15.1 45.75 -15.2 45.85 -17.35 47.6 -19.45 49.25 -19.8 49.25 -20.25 49.6 -20.5 49.6 -20.6 49.6 -20.4 49.45 -20.75 49.4 -20.85 49.35 -20.85 49.6 -21.15 48.05 -22.05 42.0 -22.05 41.9 -22.1 41.5 -22.1 41.7 -22.1 42.1 -22.1 41.5 -22.15 41.2 -22.2 41.0 -22.3 40.1 -22.35 39.85 M-22.3 39.75 L-22.3 39.8 -22.25 40.2 -21.2 46.6 -21.2 46.75 -21.15 47.0 -21.15 46.55 -21.2 46.25 -21.2 46.05 -21.25 45.9 -21.25 45.65 M-22.3 39.8 L-22.25 40.2 -22.25 40.4 -22.25 40.3 -22.25 40.2 -22.3 40.1 M-22.2 41.0 L-22.2 40.9 -22.2 40.65 -22.25 40.45 -22.25 40.2 M-21.35 45.1 L-21.45 44.5 -21.5 44.05 -21.7 42.85 -22.0 41.0 -22.05 40.6 -22.15 39.8 -22.55 37.45 M-22.2 40.65 L-22.25 40.4 -22.25 40.45 M-22.1 41.5 L-22.15 41.25 -22.15 41.2 -22.15 41.25 -22.1 41.5 -22.05 41.9 -21.95 42.55 -21.8 43.5 -21.2 46.6 M-21.95 42.55 L-22.05 42.0 M-21.7 42.85 L-22.05 40.6 M-21.5 43.85 L-21.45 44.5 M-21.4 44.35 L-21.4 44.5 -21.3 44.8 M-21.5 43.85 L-21.5 43.7 -21.55 43.65 -21.5 44.05 M-21.7 42.85 L-21.55 43.65 -21.55 43.6 -21.55 43.5 M-21.8 43.5 L-21.15 47.85 -20.95 48.7 -21.0 48.05 -20.95 48.35 -21.0 47.9 -21.05 47.45 -21.1 47.25 -21.15 47.05 -21.2 46.75 M-21.15 47.05 L-21.15 47.0 M-20.95 48.7 L-20.85 49.0 -20.9 48.75 -20.9 48.65 -20.9 48.45 -20.95 48.35 M-20.55 48.8 L-20.5 48.85 -20.5 49.1 -20.55 48.8 -20.55 48.75 M-20.95 48.7 L-20.85 49.35 -20.85 49.1 -20.85 49.0 M-21.05 47.45 L-20.85 48.6 -20.75 48.85 -21.15 46.55 M-21.15 47.85 L-21.15 48.05 M-22.5 37.0 L-22.15 39.8 M-10.95 42.2 L-12.15 43.1 -12.5 43.4 -13.55 44.5 M-12.5 43.4 L-15.85 46.35 -15.2 45.85 M-20.75 49.4 L-17.0 46.35 -15.85 45.15 M-15.75 45.55 L-17.0 46.35 -18.25 47.5 -19.75 48.9 -19.2 48.5 -17.75 47.25 -17.45 46.85 -17.35 46.85 -17.75 47.25 -18.85 48.2 -17.75 47.35 -19.8 49.25 M-19.2 48.5 L-19.05 48.4 -18.85 48.2 M-20.5 49.6 L-20.2 49.35 -19.4 48.7 -19.2 48.5 M-19.05 48.4 L-19.4 48.7 M-15.85 46.35 L-17.25 47.45 -17.35 47.6 M-37.4 24.95 L-37.35 24.45 M-20.4 49.45 L-19.75 48.9 M-43.85 6.4 L-51.95 12.75 -51.4 12.4 -51.2 12.25 Q-49.55 10.95 -48.6 10.5 L-48.4 10.35 -46.35 8.7 -46.1 8.7 -46.95 9.4 -46.35 9.05 -47.2 9.7 -48.65 10.7 -49.4 11.25 -50.05 11.7 -50.5 12.0 -50.65 12.1 -51.45 12.85 -51.05 12.75 -50.95 13.2 -49.75 12.8 Q-46.35 11.75 -45.25 11.7 M-48.6 10.5 L-50.35 11.7 -49.25 11.0 -48.9 10.75 -48.4 10.35 -47.65 9.85 -47.15 9.5 -46.95 9.4 M-49.4 11.25 L-49.4 11.2 -49.5 11.2 -49.6 11.35 -50.3 11.8 -50.05 11.7 M-50.5 12.0 L-50.3 11.8 -51.05 12.25 -51.2 12.35 -51.35 12.45 -51.4 12.5 -51.75 12.75 -51.8 12.75 -52.3 13.2 -51.45 12.85 M-49.5 11.2 L-48.9 10.75 -47.65 9.85 M-51.3 12.45 L-51.2 12.35 -50.35 11.7 -51.4 12.4 -51.75 12.7 -51.4 12.5 -51.3 12.45 -51.35 12.45 M-51.75 12.7 L-51.8 12.75 -51.85 12.75 -52.6 13.25 -52.45 13.25 -52.3 13.2 -53.1 13.95 -50.95 13.2 M-51.95 12.75 L-51.85 12.75 -51.75 12.7 M-51.85 12.75 L-52.65 13.2 -51.95 12.75 M-53.25 14.05 L-53.1 13.95 -53.35 14.05 -53.25 14.05 M-49.6 11.35 L-51.05 12.25" fill="none" stroke="#ffffff" stroke-linecap="round" stroke-linejoin="round" stroke-width="1.0"/>
  </g>
</svg>
