<?xml version="1.0" encoding="UTF-8" standalone="no"?>
<svg xmlns:ffdec="https://www.free-decompiler.com/flash" xmlns:xlink="http://www.w3.org/1999/xlink" ffdec:objectType="shape" height="42.05px" width="62.0px" xmlns="http://www.w3.org/2000/svg">
  <g transform="matrix(1.0, 0.0, 0.0, 1.0, 31.0, 21.05)">
    <path d="M-29.35 10.3 Q-30.0 7.75 -30.0 4.95 -30.0 -5.4 -21.25 -12.75 -12.45 -20.05 0.0 -20.05 12.45 -20.05 21.2 -12.75 30.0 -5.4 30.0 4.95 30.0 7.1 29.65 9.1 L28.7 10.3 Q26.6 13.4 21.2 15.9 12.45 20.0 0.0 20.0 -12.45 20.0 -21.25 15.9 -26.6 13.4 -28.65 10.3 L-29.35 10.3 M-29.35 9.05 L-28.65 10.3 -29.35 9.05" fill="url(#gradient0)" fill-rule="evenodd" stroke="none"/>
    <path d="M-29.35 10.3 Q-30.0 7.75 -30.0 4.95 -30.0 -5.4 -21.25 -12.75 -12.45 -20.05 0.0 -20.05 12.45 -20.05 21.2 -12.75 30.0 -5.4 30.0 4.95 30.0 7.1 29.65 9.1 L28.7 10.3 Q26.6 13.4 21.2 15.9 12.45 20.0 0.0 20.0 -12.45 20.0 -21.25 15.9 -26.6 13.4 -28.65 10.3 L-29.35 9.05" fill="none" stroke="#ffffff" stroke-linecap="round" stroke-linejoin="round" stroke-width="2.0"/>
  </g>
  <defs>
    <radialGradient cx="0" cy="0" gradientTransform="matrix(0.0384, 0.0, 0.0, 0.0384, 0.0, 0.0)" gradientUnits="userSpaceOnUse" id="gradient0" r="819.2" spreadMethod="pad">
      <stop offset="0.5176470588235295" stop-color="#ffffff"/>
      <stop offset="1.0" stop-color="#eebfff"/>
    </radialGradient>
  </defs>
</svg>
