<?xml version="1.0" encoding="UTF-8" standalone="no"?>
<svg xmlns:ffdec="https://www.free-decompiler.com/flash" xmlns:xlink="http://www.w3.org/1999/xlink" ffdec:objectType="shape" height="365.8px" width="526.3px" xmlns="http://www.w3.org/2000/svg">
  <g transform="matrix(1.0, 0.0, 0.0, 1.0, 229.15, 235.35)">
    <path d="M181.1 -6.45 L180.15 -6.95 180.1 -5.7 179.65 -5.75 179.15 -5.65 179.0 -5.0 Q178.95 -4.6 179.15 -4.15 L180.5 -4.1 180.8 -4.0 181.3 -3.8 182.1 -3.7 Q182.9 -3.6 183.65 -4.1 L184.35 -4.75 Q184.0 -5.2 181.5 -5.25 L181.35 -5.25 181.1 -6.45 M179.25 -10.65 Q180.6 -11.55 182.25 -11.9 L187.6 -12.2 Q192.15 -11.55 195.45 -8.9 198.85 -6.1 198.45 -2.55 198.35 -1.4 197.85 -0.4 L196.6 1.5 Q193.5 4.75 186.3 3.85 L183.6 3.5 181.65 3.05 Q176.75 2.6 175.15 0.15 174.45 -1.05 174.65 -2.7 175.15 -8.15 179.25 -10.65 M187.45 -1.5 L187.5 -1.2 188.7 -1.1 189.1 -1.4 188.4 -2.65 187.65 -2.8 187.25 -1.95 187.45 -1.5 M191.75 -5.7 L191.6 -5.75 191.7 -5.7 191.75 -5.7 M185.85 -3.55 L185.3 -3.35 Q184.95 -3.25 184.8 -2.4 L184.9 -1.75 184.8 -1.7 185.0 -1.55 186.0 -1.65 186.7 -2.25 187.25 -2.9 Q186.95 -3.3 185.85 -3.55 M263.95 57.15 Q262.75 54.1 258.9 53.25 254.3 52.2 246.7 54.3 242.8 54.45 236.85 57.8 234.25 59.25 232.6 60.45 228.95 62.75 228.95 64.15 228.95 65.75 229.4 65.85 L229.95 65.85 Q229.95 67.1 230.2 67.05 L230.45 66.65 234.7 66.65 235.1 66.3 Q235.25 66.8 235.65 66.85 L237.7 66.85 Q236.95 67.35 236.95 68.55 236.95 70.1 237.2 70.05 L237.45 69.65 Q239.0 69.65 240.7 68.8 242.25 68.05 242.45 67.4 L241.7 66.65 240.05 66.55 242.95 64.85 242.95 67.9 244.7 68.7 246.85 68.9 244.7 69.4 Q241.95 70.25 241.95 71.55 241.95 73.1 242.2 73.05 L242.45 72.65 Q245.5 72.5 247.5 71.2 L249.0 69.95 248.95 70.15 249.2 71.2 249.45 71.65 251.7 71.65 Q252.35 71.0 252.45 69.9 L254.2 69.9 255.55 69.7 255.05 70.9 254.95 70.9 254.95 71.55 254.95 71.8 255.0 73.4 255.1 73.45 Q255.2 74.3 255.45 74.65 256.95 74.45 258.05 73.95 L258.45 74.65 260.2 74.4 Q260.45 72.75 262.55 67.2 264.45 62.15 264.45 60.15 L264.15 57.65 264.45 57.85 263.95 57.15 M249.0 68.85 L249.0 68.95 248.9 68.85 249.0 68.85 M248.0 65.7 L245.45 66.15 245.45 65.65 245.45 64.85 247.75 65.6 248.0 65.7 M245.65 58.75 Q245.05 60.15 243.6 60.15 L241.0 59.7 246.55 55.7 246.4 56.1 245.65 58.75 M260.85 58.15 Q259.95 56.9 258.45 56.65 L258.3 54.6 Q259.35 54.8 259.95 55.15 261.95 56.2 261.95 60.05 L261.45 61.9 Q261.95 59.65 260.85 58.15 M258.0 60.35 L258.85 61.2 260.25 62.4 260.2 62.4 258.5 63.45 Q257.55 64.0 256.45 64.15 L256.45 63.9 256.5 63.8 257.2 63.15 257.05 62.7 257.85 60.85 258.0 60.35 M257.75 54.5 L254.95 54.45 Q253.6 54.25 251.7 56.15 250.05 55.0 248.9 54.7 250.65 54.15 251.95 54.15 L257.75 54.5 M261.45 61.9 L261.25 62.55 261.05 62.3 261.45 61.9 M253.9 66.85 L253.7 66.9 253.8 66.85 253.9 66.85 M259.45 66.15 L259.8 66.0 259.0 67.95 258.7 67.65 Q257.1 68.15 256.2 69.0 L256.45 67.9 256.2 67.15 255.8 66.9 Q257.8 66.9 259.45 66.15 M260.65 50.95 Q267.45 53.15 267.45 59.65 267.45 62.05 262.95 71.6 L261.4 74.75 261.25 75.8 Q260.7 77.5 258.2 79.9 L258.05 79.9 Q255.5 82.9 253.2 82.9 237.5 82.9 229.2 77.7 225.0 75.05 223.95 72.15 223.95 64.85 230.75 58.85 236.8 53.55 245.7 51.25 254.45 48.95 260.65 50.95 M180.05 0.3 L180.05 0.2 180.5 0.1 180.5 -0.1 179.8 0.2 180.05 0.3 M163.3 71.15 Q164.85 70.4 165.05 69.75 L161.65 68.45 159.55 68.25 Q159.55 71.25 160.05 72.0 161.6 72.0 163.3 71.15 M167.3 71.0 L165.8 71.0 165.55 72.5 Q165.55 73.15 165.9 73.75 L166.05 74.0 168.3 74.0 169.05 73.25 Q168.8 72.5 167.35 71.05 L172.05 73.75 Q171.8 74.45 170.7 75.15 169.4 76.0 167.7 76.0 L162.8 75.4 Q160.55 74.75 158.65 73.45 155.3 71.2 154.55 68.0 157.3 65.5 163.45 68.65 L167.3 71.0 M235.1 64.35 L235.0 64.35 235.15 64.2 235.1 64.35 M118.1 73.5 Q117.75 74.0 117.75 74.55 118.45 74.95 122.2 76.45 L123.85 77.15 123.75 77.55 Q123.75 78.3 124.25 79.05 125.05 79.05 126.05 78.3 126.8 78.0 127.2 76.95 L127.2 76.9 127.25 76.8 126.3 74.65 Q125.9 73.45 125.5 73.05 L125.45 73.05 126.25 71.8 122.1 71.05 120.75 71.05 120.75 72.3 Q121.0 72.65 122.05 72.95 L119.0 72.8 118.1 73.5 M114.95 73.65 Q115.2 72.6 116.25 71.55 L120.0 71.0 Q123.75 70.35 123.75 69.55 L125.5 69.55 Q126.35 70.4 127.35 73.25 128.25 75.9 128.25 77.05 128.25 78.2 127.0 79.3 125.25 80.8 122.0 80.8 L115.25 80.55 114.8 78.9 114.75 76.45 114.95 73.65 M132.85 85.1 L133.65 85.15 133.65 85.35 132.85 85.1 M56.2 83.25 Q56.2 85.25 56.7 86.0 61.25 85.1 61.7 83.75 57.3 82.7 56.2 83.25 M54.2 86.5 Q54.5 85.0 54.9 84.25 55.55 82.95 57.7 82.0 L66.35 81.3 68.95 81.0 69.6 82.05 69.7 84.4 Q69.7 87.55 67.45 89.25 61.1 89.3 57.65 88.2 L54.2 86.5 M64.45 82.0 L64.25 82.5 64.2 84.15 Q64.2 85.75 64.65 86.05 L66.45 86.25 67.45 85.45 67.7 85.0 Q67.1 83.15 65.95 82.0 L64.45 82.0 M157.45 124.15 L157.5 125.2 Q157.5 126.35 155.75 128.25 153.65 130.45 151.25 130.45 146.0 130.45 145.0 128.7 144.5 127.85 145.0 126.8 145.0 124.3 146.95 122.3 148.75 120.5 151.25 119.95 152.75 119.65 154.0 119.95 151.6 119.85 150.0 121.45 150.45 122.15 152.5 122.2 L152.3 122.45 152.0 122.45 152.05 123.15 152.0 124.0 150.75 122.2 148.8 122.6 Q148.0 123.05 148.0 124.7 148.0 126.3 148.6 126.4 L151.25 126.45 152.05 125.95 152.05 126.55 152.5 127.2 154.75 127.2 155.9 126.1 157.45 124.15 M154.45 120.1 L155.55 120.65 Q157.1 121.7 157.4 123.95 155.75 123.3 154.6 123.25 L154.5 123.2 154.5 122.95 Q153.7 122.5 152.95 122.4 L152.5 122.2 152.75 122.2 Q154.05 121.25 154.45 120.1 M-203.0 -25.1 L-202.3 -24.9 -200.85 -24.35 -195.0 -21.9 Q-186.6 -18.3 -187.1 -16.4 -189.05 -9.35 -198.0 -6.9 -202.5 -5.7 -206.85 -5.95 -210.65 -6.95 -212.65 -9.65 -216.0 -14.1 -212.8 -21.8 -209.4 -24.7 -207.55 -25.45 -206.15 -25.95 -204.1 -25.45 L-203.0 -25.1 M-203.75 -13.25 Q-204.25 -14.15 -205.75 -14.55 L-206.65 -12.35 Q-206.9 -11.3 -205.5 -10.9 L-204.0 -10.8 -204.3 -11.1 -203.75 -13.25 M-206.2 -14.7 L-205.1 -15.4 -205.05 -15.25 Q-204.6 -14.8 -203.0 -14.4 L-201.8 -14.2 -202.9 -12.4 -203.25 -11.35 -202.0 -11.0 Q-201.45 -11.2 -200.85 -12.05 L-200.5 -12.9 Q-200.55 -13.55 -201.1 -14.1 L-200.75 -14.25 Q-200.25 -14.45 -199.7 -15.8 L-199.9 -16.7 -199.95 -16.85 -199.65 -16.95 -199.65 -16.85 -199.3 -16.6 Q-199.55 -15.55 -198.15 -15.15 L-196.65 -15.05 -196.95 -15.35 -196.75 -16.35 -196.45 -16.55 -196.65 -15.75 Q-195.85 -15.55 -195.15 -16.05 L-194.55 -16.55 -194.85 -17.35 Q-193.5 -18.0 -192.95 -17.85 -191.65 -17.55 -190.6 -16.8 -189.85 -16.25 -189.45 -16.45 L-189.2 -18.2 -190.8 -19.4 Q-191.75 -20.15 -193.25 -20.55 L-195.5 -20.0 Q-195.15 -21.35 -195.45 -21.35 L-195.9 -21.3 -205.35 -23.75 -209.6 -22.1 Q-212.95 -16.65 -212.5 -13.2 -212.1 -10.6 -210.05 -10.05 -208.55 -9.65 -208.4 -10.3 L-208.45 -10.65 -208.35 -10.55 Q-207.25 -10.95 -206.2 -14.7 M-162.9 -36.25 L-163.35 -34.75 Q-163.35 -33.2 -163.1 -33.25 L-162.85 -33.6 -160.6 -33.6 -156.2 -35.55 -155.9 -35.2 -154.1 -35.35 -153.8 -35.45 -155.9 -34.1 Q-157.35 -33.0 -157.35 -32.75 -157.35 -31.2 -156.9 -31.2 L-155.1 -31.35 Q-153.7 -32.05 -152.85 -33.35 -152.85 -34.85 -153.6 -35.6 L-152.1 -36.75 -151.35 -37.45 -151.35 -36.25 -151.3 -34.25 -150.85 -33.6 Q-148.15 -34.35 -146.8 -35.15 L-145.85 -35.85 Q-147.1 -37.1 -148.4 -37.65 L-149.8 -38.2 -148.3 -38.85 -148.1 -38.25 -147.85 -38.6 -145.6 -38.6 -145.5 -38.7 Q-144.1 -38.05 -143.5 -36.45 L-143.45 -36.35 -144.6 -36.0 Q-146.35 -35.15 -146.35 -33.75 -146.35 -32.2 -146.1 -32.25 L-145.85 -32.6 Q-143.65 -32.9 -142.35 -33.9 -141.4 -32.2 -140.1 -31.35 -139.25 -31.65 -138.85 -32.85 -140.6 -34.05 -142.2 -38.6 -143.35 -42.1 -148.1 -42.85 -149.35 -42.25 -152.55 -41.2 -148.2 -43.1 -145.6 -44.6 -144.65 -42.7 -141.2 -38.05 -139.0 -35.05 -138.85 -32.85 L-138.85 -32.6 Q-138.85 -30.85 -139.05 -30.35 -139.65 -29.0 -142.1 -28.35 L-153.35 -29.1 -164.85 -29.6 -165.3 -30.25 -165.35 -32.25 Q-165.35 -34.35 -162.9 -36.25 M-82.6 -63.4 L-82.9 -63.4 -83.5 -63.35 Q-83.5 -62.55 -82.85 -62.0 L-82.75 -61.95 Q-80.65 -58.05 -79.25 -57.6 -77.0 -59.85 -77.0 -61.85 L-81.75 -63.2 -82.6 -63.4 M-86.2 -62.55 Q-84.4 -63.7 -82.25 -64.0 -76.5 -64.9 -76.5 -59.4 -76.5 -57.75 -76.75 -57.15 -77.45 -55.65 -79.75 -55.65 -84.55 -55.65 -86.8 -58.15 -87.85 -59.4 -88.0 -60.4 -88.0 -61.45 -86.2 -62.55 M-31.55 -75.35 L-31.55 -74.85 -31.15 -74.45 Q-29.9 -73.8 -28.3 -72.75 -27.65 -73.05 -27.3 -73.55 L-27.05 -74.0 -29.2 -76.35 Q-26.7 -76.4 -23.05 -73.25 -25.85 -71.0 -28.3 -69.75 L-29.95 -70.6 -30.1 -70.6 -30.4 -70.85 -32.15 -71.8 -32.55 -72.25 Q-32.55 -74.35 -31.55 -75.35 M-26.35 -73.55 Q-26.0 -73.75 -26.3 -73.75 L-26.95 -73.6 -26.35 -73.55 M-75.2 31.25 L-76.5 32.4 Q-75.9 31.4 -74.8 30.95 L-75.2 31.25 M-40.65 86.1 L-41.9 86.35 -41.2 85.7 Q-45.1 84.25 -48.2 86.85 -50.7 88.95 -50.7 90.8 -50.7 92.35 -50.45 92.3 L-50.2 91.95 -48.45 92.2 Q-46.75 91.35 -44.3 88.75 L-42.15 86.75 Q-42.7 87.2 -42.7 88.45 -42.7 90.05 -42.1 90.15 L-39.45 90.2 -38.45 89.4 -38.2 88.95 -38.35 88.55 -36.2 90.7 Q-36.4 91.3 -39.0 92.25 -41.65 93.2 -43.45 93.2 L-52.2 92.95 -52.45 93.15 -52.7 91.45 Q-52.7 90.35 -50.3 88.2 -47.8 85.95 -47.45 83.2 -44.85 82.15 -41.55 85.1 L-40.65 86.1 M-30.05 53.45 L-29.75 53.4 -30.2 53.95 -30.3 53.8 -30.05 53.45 M-104.15 66.05 Q-105.45 65.75 -107.6 67.1 L-107.5 68.4 -109.3 68.65 Q-110.6 69.2 -110.6 70.85 L-110.35 72.55 -110.1 72.35 -108.8 71.95 -109.5 73.05 Q-111.4 72.45 -112.4 72.4 L-113.6 72.6 Q-113.6 74.6 -113.1 75.35 L-109.45 75.35 -109.35 75.55 -109.1 75.35 -108.85 75.35 -108.8 75.3 Q-107.3 74.95 -106.6 73.6 L-106.15 72.25 -105.4 73.25 -105.6 74.2 Q-105.6 75.75 -105.35 75.7 L-105.1 75.35 -104.2 75.15 -104.1 75.35 -102.85 75.35 Q-102.3 74.8 -102.2 74.3 L-102.1 73.1 -102.1 71.95 Q-102.1 69.4 -102.35 68.2 -101.1 70.95 -101.1 76.65 -101.1 79.0 -101.65 79.75 -102.2 80.55 -103.5 80.85 L-105.35 81.0 Q-110.65 81.0 -113.5 79.8 L-113.85 79.75 -113.9 79.6 -114.85 79.05 Q-116.6 77.8 -116.6 76.0 -116.6 74.2 -114.2 71.1 -111.65 67.9 -108.85 66.45 -105.95 65.0 -104.15 66.05 M-186.95 48.75 L-186.3 49.05 Q-187.05 49.55 -187.5 50.55 L-187.55 50.65 -188.25 50.9 -189.6 51.45 -189.7 50.75 -189.4 50.0 Q-187.85 49.35 -186.95 48.75 M-107.3 70.7 L-107.05 70.35 -106.4 71.85 Q-107.2 71.1 -107.9 71.3 L-107.3 70.7 M-178.85 45.65 Q-171.6 50.5 -171.6 57.45 -171.6 59.8 -172.3 61.9 -173.0 63.95 -174.35 65.75 -179.7 72.7 -193.85 72.7 L-199.2 72.5 -203.1 71.95 Q-212.8 72.25 -216.35 67.75 -218.1 65.6 -218.1 62.45 -218.1 51.5 -210.85 45.75 -208.35 43.8 -205.3 42.65 -200.7 40.9 -194.85 41.0 -185.7 41.15 -178.85 45.65 M-208.1 55.35 L-209.05 55.35 -209.85 55.45 -210.1 56.95 Q-210.1 57.7 -209.6 58.45 L-206.95 58.25 -206.35 58.5 -205.3 58.65 -203.85 58.7 Q-202.2 58.7 -200.9 57.75 -199.85 57.0 -199.6 56.2 L-205.3 55.95 -205.6 55.95 Q-205.7 54.25 -206.25 53.5 -206.8 52.8 -208.1 52.7 L-208.1 55.35 M-178.85 47.35 Q-184.35 42.6 -195.1 42.45 L-195.1 43.15 -205.3 43.65 Q-206.35 43.9 -207.15 44.3 -209.1 45.3 -209.1 46.95 L-208.85 48.65 -208.6 48.45 -205.3 47.75 -203.7 47.35 Q-199.25 46.2 -197.85 46.2 L-195.35 46.4 Q-196.3 46.8 -196.9 47.3 L-197.35 46.45 Q-200.0 47.85 -202.1 49.3 L-203.7 50.5 -203.6 50.2 -205.2 49.05 -204.6 48.2 -205.3 48.2 -207.65 48.45 -207.85 48.45 -207.85 48.5 Q-209.4 48.8 -210.25 49.5 -211.1 50.2 -211.1 50.95 L-211.1 51.15 -212.95 50.8 Q-214.1 50.75 -214.1 52.3 -214.1 53.85 -213.85 53.8 L-213.6 53.45 -211.35 53.45 Q-211.0 53.1 -210.8 52.55 L-210.65 52.65 -208.85 52.7 -208.35 52.45 -205.3 52.45 -205.1 52.25 -205.1 52.3 Q-205.1 53.85 -204.5 53.85 L-201.85 53.7 -200.05 53.25 -199.85 53.95 Q-199.05 55.4 -195.85 55.7 L-195.05 55.2 -195.1 56.55 -195.05 58.15 Q-194.85 58.1 -194.6 58.45 -192.55 58.15 -191.6 56.7 L-191.7 56.45 -191.35 56.45 -190.2 54.75 -190.05 54.55 -189.85 54.7 Q-188.9 54.4 -188.1 53.9 L-188.05 55.15 Q-187.85 55.1 -187.6 55.45 L-187.15 55.5 Q-189.1 56.05 -189.1 57.95 L-189.1 58.5 -188.85 59.65 -188.6 59.45 -187.9 59.35 -188.1 60.3 Q-188.1 61.85 -187.85 61.8 L-187.6 61.45 -185.35 61.45 Q-184.0 60.45 -183.6 59.2 L-184.35 58.45 -185.6 58.45 -184.8 57.95 -182.6 56.2 -183.1 55.7 -182.85 55.7 Q-182.2 55.7 -181.2 54.4 L-180.2 53.05 -180.0 53.3 -180.2 53.5 Q-182.1 55.75 -182.1 56.95 L-181.85 58.65 -181.6 58.45 -180.65 58.45 Q-181.1 59.1 -181.1 59.95 L-180.85 61.65 -180.6 61.45 -180.05 61.35 -179.85 61.8 -179.6 61.45 -177.35 61.45 -176.15 59.9 -175.85 60.45 -174.85 59.95 -174.65 57.75 -173.6 56.2 -174.6 56.2 -174.6 55.8 Q-174.6 51.0 -178.85 47.35 M-214.85 57.25 L-214.75 56.75 -215.1 57.9 -214.85 57.25 M-206.1 66.5 L-206.1 66.25 -207.35 66.85 -206.9 67.05 -206.85 66.7 -206.1 66.5 M-194.45 60.7 L-193.6 59.2 Q-194.35 58.45 -196.35 58.2 L-197.4 58.55 Q-198.1 59.0 -198.1 60.55 L-198.05 61.9 -198.05 62.15 Q-197.85 62.1 -197.6 62.45 -196.6 62.35 -195.8 61.9 L-194.45 60.7 M-196.2 53.8 L-196.75 53.55 -193.75 53.7 -194.0 54.45 -194.6 54.45 Q-194.65 54.35 -196.2 53.8 M-194.0 49.5 L-194.6 49.95 -195.35 49.9 -194.0 49.5 M-192.9 51.2 L-192.95 51.3 -192.8 51.85 -193.9 51.5 -192.9 51.2 M-189.6 61.7 Q-189.85 60.95 -191.35 59.45 L-192.85 59.45 -193.1 60.95 -192.9 61.9 -192.6 62.45 -190.35 62.45 -189.6 61.7 M-181.9 51.15 L-181.85 51.2 -183.35 52.1 Q-184.55 52.8 -185.6 52.95 L-185.35 52.7 Q-184.4 51.15 -184.25 49.95 L-181.9 51.15" fill="#999999" fill-rule="evenodd" stroke="none"/>
    <path d="M181.1 -6.45 L181.35 -5.25 181.5 -5.25 Q184.0 -5.2 184.35 -4.75 L183.65 -4.1 Q182.9 -3.6 182.1 -3.7 L181.3 -3.8 180.8 -4.0 180.5 -4.1 179.15 -4.15 Q178.95 -4.6 179.0 -5.0 L179.15 -5.65 179.65 -5.75 180.1 -5.7 180.15 -6.95 181.1 -6.45 M185.85 -3.55 Q186.95 -3.3 187.25 -2.9 L186.7 -2.25 186.0 -1.65 185.0 -1.55 184.8 -1.7 184.9 -1.75 184.8 -2.4 Q184.95 -3.25 185.3 -3.35 L185.85 -3.55 M191.75 -5.7 L191.7 -5.7 191.6 -5.75 191.75 -5.7 M187.45 -1.5 L187.25 -1.95 187.65 -2.8 188.4 -2.65 189.1 -1.4 188.7 -1.1 187.5 -1.2 187.45 -1.5 M264.15 57.65 L264.45 60.15 Q264.45 62.15 262.55 67.2 260.45 72.75 260.2 74.4 L258.45 74.65 258.05 73.95 Q256.95 74.45 255.45 74.65 255.2 74.3 255.1 73.45 L255.0 73.4 254.95 71.8 254.95 71.55 254.95 70.9 255.05 70.9 255.55 69.7 254.2 69.9 252.45 69.9 Q252.35 71.0 251.7 71.65 L249.45 71.65 249.2 71.2 248.95 70.15 249.0 69.95 247.5 71.2 Q245.5 72.5 242.45 72.65 L242.2 73.05 Q241.95 73.1 241.95 71.55 241.95 70.25 244.7 69.4 L246.85 68.9 244.7 68.7 242.95 67.9 242.95 64.85 240.05 66.55 241.7 66.65 242.45 67.4 Q242.25 68.05 240.7 68.8 239.0 69.65 237.45 69.65 L237.2 70.05 Q236.95 70.1 236.95 68.55 236.95 67.35 237.7 66.85 L235.65 66.85 Q235.25 66.8 235.1 66.3 L234.7 66.65 230.45 66.65 230.2 67.05 Q229.95 67.1 229.95 65.85 L229.4 65.85 Q228.95 65.75 228.95 64.15 228.95 62.75 232.6 60.45 234.25 59.25 236.85 57.8 242.8 54.45 246.7 54.3 254.3 52.2 258.9 53.25 262.75 54.1 263.95 57.15 L264.15 57.65 M257.75 54.5 L251.95 54.15 Q250.65 54.15 248.9 54.7 250.05 55.0 251.7 56.15 253.6 54.25 254.95 54.45 L257.75 54.5 M258.0 60.35 L257.85 60.85 257.05 62.7 257.2 63.15 256.5 63.8 256.45 63.9 256.45 64.15 Q257.55 64.0 258.5 63.45 L260.2 62.4 260.25 62.4 258.85 61.2 258.0 60.35 M260.85 58.15 Q261.95 59.65 261.45 61.9 L261.95 60.05 Q261.95 56.2 259.95 55.15 259.35 54.8 258.3 54.6 L258.45 56.65 Q259.95 56.9 260.85 58.15 M245.65 58.75 L246.4 56.1 246.55 55.7 241.0 59.7 243.6 60.15 Q245.05 60.15 245.65 58.75 M248.0 65.7 L247.75 65.6 245.45 64.85 245.45 65.65 245.45 66.15 248.0 65.7 M249.0 68.85 L248.9 68.85 249.0 68.95 249.0 68.85 M261.45 61.9 L261.05 62.3 261.25 62.55 261.45 61.9 M259.45 66.15 Q257.8 66.9 255.8 66.9 L256.2 67.15 256.45 67.9 256.2 69.0 Q257.1 68.15 258.7 67.65 L259.0 67.95 259.8 66.0 259.45 66.15 M253.9 66.85 L253.8 66.85 253.7 66.9 253.9 66.85 M163.3 71.15 Q161.6 72.0 160.05 72.0 159.55 71.25 159.55 68.25 L161.65 68.45 165.05 69.75 Q164.85 70.4 163.3 71.15 M167.35 71.05 Q168.8 72.5 169.05 73.25 L168.3 74.0 166.05 74.0 165.9 73.75 Q165.55 73.15 165.55 72.5 L165.8 71.0 167.3 71.0 167.35 71.05 M235.1 64.35 L235.15 64.2 235.0 64.35 235.1 64.35 M213.55 124.25 L213.8 124.9 214.25 127.0 Q214.25 128.45 214.0 128.4 L213.8 128.35 213.55 128.3 213.55 124.25 M118.1 73.5 L119.0 72.8 122.05 72.95 Q121.0 72.65 120.75 72.3 L120.75 71.05 122.1 71.05 126.25 71.8 125.45 73.05 125.5 73.05 Q125.9 73.45 126.3 74.65 L127.25 76.8 127.2 76.9 127.2 76.95 Q126.8 78.0 126.05 78.3 125.05 79.05 124.25 79.05 123.75 78.3 123.75 77.55 L123.85 77.15 122.2 76.45 Q118.45 74.95 117.75 74.55 117.75 74.0 118.1 73.5 M56.2 83.25 Q57.3 82.7 61.7 83.75 61.25 85.1 56.7 86.0 56.2 85.25 56.2 83.25 M64.45 82.0 L65.95 82.0 Q67.1 83.15 67.7 85.0 L67.45 85.45 66.45 86.25 64.65 86.05 Q64.2 85.75 64.2 84.15 L64.25 82.5 64.45 82.0 M157.45 124.15 L155.9 126.1 154.75 127.2 152.5 127.2 152.05 126.55 152.05 125.95 151.25 126.45 148.6 126.4 Q148.0 126.3 148.0 124.7 148.0 123.05 148.8 122.6 L150.75 122.2 152.0 124.0 152.05 123.15 152.0 122.45 152.3 122.45 152.5 122.2 Q150.45 122.15 150.0 121.45 151.6 119.85 154.0 119.95 L154.5 119.95 154.45 120.1 Q154.05 121.25 152.75 122.2 L152.5 122.2 152.95 122.4 Q153.7 122.5 154.5 122.95 L154.5 123.2 154.6 123.25 Q155.75 123.3 157.4 123.95 L157.5 123.95 157.45 124.15 M-206.2 -14.7 Q-207.25 -10.95 -208.35 -10.55 L-208.45 -10.65 -208.4 -10.3 Q-208.55 -9.65 -210.05 -10.05 -212.1 -10.6 -212.5 -13.2 -212.95 -16.65 -209.6 -22.1 L-205.35 -23.75 -195.9 -21.3 -195.45 -21.35 Q-195.15 -21.35 -195.5 -20.0 L-193.25 -20.55 Q-191.75 -20.15 -190.8 -19.4 L-189.2 -18.2 -189.45 -16.45 Q-189.85 -16.25 -190.6 -16.8 -191.65 -17.55 -192.95 -17.85 -193.5 -18.0 -194.85 -17.35 L-194.55 -16.55 -195.15 -16.05 Q-195.85 -15.55 -196.65 -15.75 L-196.45 -16.55 -196.75 -16.35 -196.95 -15.35 -196.65 -15.05 -198.15 -15.15 Q-199.55 -15.55 -199.3 -16.6 L-199.65 -16.85 -199.65 -16.95 -199.95 -16.85 -199.9 -16.7 -199.7 -15.8 Q-200.25 -14.45 -200.75 -14.25 L-201.1 -14.1 Q-200.55 -13.55 -200.5 -12.9 L-200.85 -12.05 Q-201.45 -11.2 -202.0 -11.0 L-203.25 -11.35 -202.9 -12.4 -201.8 -14.2 -203.0 -14.4 Q-204.6 -14.8 -205.05 -15.25 L-205.1 -15.4 -206.2 -14.7 M-152.55 -41.2 Q-149.35 -42.25 -148.1 -42.85 -143.35 -42.1 -142.2 -38.6 -140.6 -34.05 -138.85 -32.85 -139.25 -31.65 -140.1 -31.35 -141.4 -32.2 -142.35 -33.9 -143.65 -32.9 -145.85 -32.6 L-146.1 -32.25 Q-146.35 -32.2 -146.35 -33.75 -146.35 -35.15 -144.6 -36.0 L-143.45 -36.35 -143.5 -36.45 Q-144.1 -38.05 -145.5 -38.7 L-145.6 -38.6 -147.85 -38.6 -148.1 -38.25 -148.3 -38.85 -149.8 -38.2 -148.4 -37.65 Q-147.1 -37.1 -145.85 -35.85 L-146.8 -35.15 Q-148.15 -34.35 -150.85 -33.6 L-151.3 -34.25 -151.35 -36.25 -151.35 -37.45 -152.1 -36.75 -153.6 -35.6 Q-152.85 -34.85 -152.85 -33.35 -153.7 -32.05 -155.1 -31.35 L-156.9 -31.2 Q-157.35 -31.2 -157.35 -32.75 -157.35 -33.0 -155.9 -34.1 L-153.8 -35.45 -154.1 -35.35 -155.9 -35.2 -156.2 -35.55 -160.6 -33.6 -162.85 -33.6 -163.1 -33.25 Q-163.35 -33.2 -163.35 -34.75 L-162.9 -36.25 Q-161.65 -38.25 -157.2 -39.85 L-152.55 -41.2 M-82.6 -63.4 L-81.75 -63.2 -77.0 -61.85 Q-77.0 -59.85 -79.25 -57.6 -80.65 -58.05 -82.75 -61.95 L-82.85 -62.0 Q-83.5 -62.55 -83.5 -63.35 L-82.9 -63.4 -82.6 -63.4 M-31.55 -75.35 L-31.5 -76.5 -31.3 -77.0 -29.8 -77.0 -29.2 -76.35 -27.05 -74.0 -27.3 -73.55 Q-27.65 -73.05 -28.3 -72.75 -29.9 -73.8 -31.15 -74.45 L-31.55 -74.85 -31.55 -75.35 M-38.35 88.55 L-38.2 88.95 -38.45 89.4 -39.45 90.2 -42.1 90.15 Q-42.7 90.05 -42.7 88.45 -42.7 87.2 -42.15 86.75 L-44.3 88.75 Q-46.75 91.35 -48.45 92.2 L-50.2 91.95 -50.45 92.3 Q-50.7 92.35 -50.7 90.8 -50.7 88.95 -48.2 86.85 -45.1 84.25 -41.2 85.7 L-41.9 86.35 -40.65 86.1 -39.95 85.95 Q-38.95 86.95 -38.35 88.55 M-102.35 68.2 Q-102.1 69.4 -102.1 71.95 L-102.1 73.1 -102.2 74.3 Q-102.3 74.8 -102.85 75.35 L-104.1 75.35 -104.2 75.15 -105.1 75.35 -105.35 75.7 Q-105.6 75.75 -105.6 74.2 L-105.4 73.25 -106.15 72.25 -106.6 73.6 Q-107.3 74.95 -108.8 75.3 L-108.85 75.35 -109.1 75.35 -109.35 75.55 -109.45 75.35 -113.1 75.35 Q-113.6 74.6 -113.6 72.6 L-112.4 72.4 Q-111.4 72.45 -109.5 73.05 L-108.8 71.95 -110.1 72.35 -110.35 72.55 -110.6 70.85 Q-110.6 69.2 -109.3 68.65 L-107.5 68.4 -107.6 67.1 Q-105.45 65.75 -104.15 66.05 -103.8 66.1 -103.5 66.3 -102.85 66.7 -102.5 67.65 L-102.35 68.2 M-107.3 70.7 L-107.9 71.3 Q-107.2 71.1 -106.4 71.85 L-107.05 70.35 -107.3 70.7 M-186.95 48.75 Q-187.85 49.35 -189.4 50.0 L-189.7 50.75 -189.6 51.45 -188.25 50.9 -187.55 50.65 -187.5 50.55 Q-187.05 49.55 -186.3 49.05 L-186.95 48.75 M-178.85 47.35 Q-174.6 51.0 -174.6 55.8 L-174.6 56.2 -173.6 56.2 -174.65 57.75 -174.85 59.95 -175.85 60.45 -176.15 59.9 -177.35 61.45 -179.6 61.45 -179.85 61.8 -180.05 61.35 -180.6 61.45 -180.85 61.65 -181.1 59.95 Q-181.1 59.1 -180.65 58.45 L-181.6 58.45 -181.85 58.65 -182.1 56.95 Q-182.1 55.75 -180.2 53.5 L-180.0 53.3 -180.2 53.05 -181.2 54.4 Q-182.2 55.7 -182.85 55.7 L-183.1 55.7 -182.6 56.2 -184.8 57.95 -185.6 58.45 -184.35 58.45 -183.6 59.2 Q-184.0 60.45 -185.35 61.45 L-187.6 61.45 -187.85 61.8 Q-188.1 61.85 -188.1 60.3 L-187.9 59.35 -188.6 59.45 -188.85 59.65 -189.1 58.5 -189.1 57.95 Q-189.1 56.05 -187.15 55.5 L-187.6 55.45 Q-187.85 55.1 -188.05 55.15 L-188.1 53.9 Q-188.9 54.4 -189.85 54.7 L-190.05 54.55 -190.2 54.75 -191.35 56.45 -191.7 56.45 -191.6 56.7 Q-192.55 58.15 -194.6 58.45 -194.85 58.1 -195.05 58.15 L-195.1 56.55 -195.05 55.2 -195.85 55.7 Q-199.05 55.4 -199.85 53.95 L-200.05 53.25 -201.85 53.7 -204.5 53.85 Q-205.1 53.85 -205.1 52.3 L-205.1 52.25 -205.3 52.45 -208.35 52.45 -208.85 52.7 -210.65 52.65 -210.8 52.55 Q-211.0 53.1 -211.35 53.45 L-213.6 53.45 -213.85 53.8 Q-214.1 53.85 -214.1 52.3 -214.1 50.75 -212.95 50.8 L-211.1 51.15 -211.1 50.95 Q-211.1 50.2 -210.25 49.5 -209.4 48.8 -207.85 48.5 L-207.85 48.45 -207.65 48.45 -205.3 48.2 -204.6 48.2 -205.2 49.05 -203.6 50.2 -203.7 50.5 -202.1 49.3 Q-200.0 47.85 -197.35 46.45 L-196.9 47.3 Q-196.3 46.8 -195.35 46.4 L-197.85 46.2 Q-199.25 46.2 -203.7 47.35 L-205.3 47.75 -208.6 48.45 -208.85 48.65 -209.1 46.95 Q-209.1 45.3 -207.15 44.3 -206.35 43.9 -205.3 43.65 L-195.1 43.15 -195.1 42.45 Q-184.35 42.6 -178.85 47.35 M-208.1 55.35 L-208.1 52.7 Q-206.8 52.8 -206.25 53.5 -205.7 54.25 -205.6 55.95 L-205.3 55.95 -199.6 56.2 Q-199.85 57.0 -200.9 57.75 -202.2 58.7 -203.85 58.7 L-205.3 58.65 -206.35 58.5 -206.95 58.25 -209.6 58.45 Q-210.1 57.7 -210.1 56.95 L-209.85 55.45 -209.05 55.35 -208.1 55.35 M-181.9 51.15 L-184.25 49.95 Q-184.4 51.15 -185.35 52.7 L-185.6 52.95 Q-184.55 52.8 -183.35 52.1 L-181.85 51.2 -181.9 51.15 M-189.6 61.7 L-190.35 62.45 -192.6 62.45 -192.9 61.9 -193.1 60.95 -192.85 59.45 -191.35 59.45 Q-189.85 60.95 -189.6 61.7 M-192.9 51.2 L-193.9 51.5 -192.8 51.85 -192.95 51.3 -192.9 51.2 M-194.0 49.5 L-195.35 49.9 -194.6 49.95 -194.0 49.5 M-196.2 53.8 Q-194.65 54.35 -194.6 54.45 L-194.0 54.45 -193.75 53.7 -196.75 53.55 -196.2 53.8 M-194.45 60.7 L-195.8 61.9 Q-196.6 62.35 -197.6 62.45 -197.85 62.1 -198.05 62.15 L-198.05 61.9 -198.1 60.55 Q-198.1 59.0 -197.4 58.55 L-196.35 58.2 Q-194.35 58.45 -193.6 59.2 L-194.45 60.7" fill="#cccccc" fill-rule="evenodd" stroke="none"/>
    <path d="M166.45 77.55 Q162.1 81.45 154.85 85.15 142.95 91.1 123.15 96.4 104.4 101.35 67.0 108.0 L81.65 103.2 Q88.45 100.25 93.1 95.05 L94.0 95.0 94.0 94.0 93.1 95.05 Q89.05 95.35 74.15 98.0 57.2 101.0 42.0 101.0 L7.15 99.3 -24.3 96.5 Q2.65 104.35 55.0 108.0 L55.0 109.0 31.3 110.0 14.0 111.0 Q-19.65 111.0 -55.95 102.35 -79.95 96.65 -114.2 84.6 L-122.55 81.6 -122.0 80.0 -116.4 81.2 -99.9 84.0 Q-82.45 86.65 -79.0 86.0 -85.95 84.9 -98.1 80.55 -110.6 76.1 -115.0 73.0 L-114.85 72.75 Q-120.15 70.3 -125.7 67.05 -136.7 60.6 -148.75 51.0 L-149.25 51.55 Q-164.65 37.9 -177.5 24.15 -197.65 2.4 -207.7 -15.9 L-207.25 -16.1 -209.1 -18.5 -210.1 -19.8 -212.05 -22.5 -211.05 -23.15 -209.35 -21.95 -202.9 -18.0 Q-190.0 -10.4 -184.15 -10.75 -188.8 -26.05 -206.6 -45.7 L-216.65 -56.0 -219.05 -58.0 Q-223.55 -62.0 -224.2 -63.4 L-225.35 -64.5 -224.4 -65.6 -223.9 -65.2 -223.9 -65.25 Q-223.35 -66.0 -222.3 -66.0 L-216.05 -61.45 Q-209.9 -56.95 -207.8 -56.95 -205.5 -56.95 -204.45 -59.0 L-203.85 -61.15 Q-203.85 -65.0 -206.85 -70.55 L-208.75 -76.35 -209.3 -77.7 Q-208.85 -78.1 -208.05 -78.1 -206.95 -78.1 -205.7 -76.35 -204.45 -74.65 -202.6 -74.65 -199.65 -74.65 -198.35 -77.85 L-198.1 -78.5 -198.1 -81.75 Q-198.95 -89.75 -203.25 -97.6 -206.65 -103.95 -214.05 -113.0 L-229.15 -131.1 -228.1 -132.3 -228.1 -132.25 Q-221.15 -125.9 -212.1 -119.25 -189.85 -102.75 -176.0 -98.05 -176.05 -105.95 -182.75 -116.7 -191.4 -130.5 -192.3 -132.8 -184.8 -124.75 -180.55 -120.85 -173.05 -113.9 -167.85 -113.0 L-167.85 -120.0 Q-173.4 -134.15 -186.25 -154.05 -194.35 -166.5 -202.65 -176.7 -208.95 -182.75 -215.55 -191.0 L-217.8 -193.2 -211.8 -188.35 -205.8 -183.15 -199.3 -177.8 -195.25 -175.0 Q-183.25 -165.45 -173.0 -163.65 L-173.05 -163.7 -169.7 -163.35 Q-163.0 -163.35 -158.6 -171.45 -154.65 -178.75 -154.65 -187.75 -154.65 -191.05 -155.5 -195.95 L-156.2 -201.55 Q-155.6 -201.0 -154.75 -199.85 -154.15 -199.15 -153.9 -197.55 L-143.1 -180.5 Q-136.25 -170.0 -131.1 -163.95 -118.25 -148.85 -105.0 -148.85 -98.1 -148.85 -96.55 -155.3 -96.0 -157.6 -96.0 -169.85 L-88.5 -165.25 Q-84.05 -162.55 -81.0 -161.85 -80.35 -162.5 -80.1 -164.05 L-80.0 -167.35 Q-80.0 -176.2 -83.15 -187.55 -83.8 -190.85 -85.15 -195.45 -87.35 -202.95 -89.1 -206.8 L-91.6 -213.1 -93.85 -218.95 -94.1 -219.5 Q-91.15 -213.7 -88.0 -208.55 -77.15 -191.05 -69.05 -191.05 -64.0 -191.05 -59.3 -196.4 -54.05 -202.35 -52.45 -211.95 L-50.45 -219.75 -50.35 -219.55 Q-49.55 -216.4 -47.15 -210.75 -43.4 -201.7 -40.25 -197.55 -34.7 -188.15 -30.6 -183.35 -23.2 -174.7 -13.2 -174.7 -2.85 -174.7 8.15 -186.9 13.75 -193.05 17.5 -199.65 L22.4 -207.05 Q23.4 -204.55 25.55 -201.5 31.1 -193.75 40.15 -193.75 47.1 -193.75 58.9 -202.35 67.05 -208.3 70.3 -211.95 L78.85 -220.6 76.3 -216.45 74.4 -213.7 74.2 -213.05 70.0 -196.85 70.0 -188.85 Q79.7 -195.25 96.05 -211.7 L118.65 -235.35 Q117.6 -233.9 116.65 -231.95 L112.3 -223.9 108.4 -216.6 Q103.85 -207.0 102.2 -197.25 L102.1 -195.95 101.85 -191.5 102.05 -183.05 102.45 -178.7 102.9 -177.95 105.75 -172.95 Q106.7 -171.1 110.15 -167.75 113.4 -164.7 115.6 -163.4 119.15 -162.1 123.55 -161.7 L123.4 -161.15 124.3 -160.95 125.15 -160.8 126.45 -161.5 128.0 -161.5 Q141.9 -161.5 161.7 -176.45 L158.7 -171.25 Q139.7 -138.2 138.0 -133.85 L138.0 -128.85 138.7 -128.35 Q139.05 -127.85 140.5 -127.85 141.25 -127.85 151.2 -136.05 160.9 -144.05 166.85 -146.4 163.15 -141.95 163.15 -133.2 L163.2 -131.55 163.0 -129.35 Q163.0 -126.85 164.05 -124.9 165.1 -122.85 166.5 -122.85 170.35 -122.85 202.9 -151.95 236.1 -181.7 241.0 -182.85 238.1 -178.05 229.35 -166.8 L212.5 -145.3 Q202.4 -132.15 196.4 -122.75 L195.3 -118.35 Q192.95 -108.6 192.95 -104.8 192.95 -99.0 194.8 -94.35 198.35 -85.3 207.65 -85.3 214.25 -85.3 225.1 -90.75 L226.0 -91.25 228.55 -92.6 231.7 -94.35 234.95 -96.35 241.35 -100.4 242.0 -100.85 Q247.9 -104.75 253.8 -109.45 273.55 -125.15 284.5 -132.5 L285.0 -131.75 Q277.15 -124.05 257.35 -102.9 231.9 -75.55 228.05 -68.5 L228.0 -68.4 227.75 -68.0 228.85 -68.0 Q232.15 -68.75 241.25 -73.85 251.9 -79.9 257.1 -82.15 L257.5 -81.25 Q256.25 -76.85 245.85 -67.1 L232.15 -54.8 Q237.75 -56.2 249.4 -61.75 255.6 -64.7 264.1 -69.1 L242.05 -47.75 217.8 -23.95 225.55 -23.95 245.35 -33.85 Q243.0 -30.3 233.7 -22.2 224.45 -14.1 220.45 -9.1 L220.4 -9.05 220.0 -8.55 221.1 -8.55 Q236.65 -14.3 256.05 -26.7 L296.6 -54.4 297.15 -53.7 268.3 -29.1 268.25 -29.1 247.05 -11.4 238.8 -4.5 238.7 -4.45 239.75 -3.3 214.45 19.65 Q196.4 36.1 185.65 44.75 L170.7 56.0 170.05 60.0 158.2 69.6 Q151.05 75.35 144.25 80.85 148.45 80.3 155.55 78.4 L156.35 78.2 Q163.55 76.25 166.3 76.05 L166.45 77.55 M149.0 -212.85 L148.9 -212.65 148.8 -212.65 149.0 -212.85 M176.15 11.25 Q178.95 4.4 189.05 -2.9 196.65 -8.4 210.0 -16.0 209.4 -16.0 209.0 -17.0 205.05 -15.45 193.8 -18.2 182.0 -21.1 182.0 -25.0 182.0 -28.8 190.05 -38.1 198.2 -47.5 203.0 -49.0 L200.0 -49.0 191.6 -47.5 Q184.55 -46.0 181.5 -46.0 177.2 -46.0 175.05 -46.95 172.0 -48.35 172.0 -52.0 172.0 -57.5 177.15 -63.5 184.55 -72.15 187.0 -77.0 184.75 -75.25 175.85 -71.95 165.2 -68.0 159.0 -68.0 147.8 -68.0 141.0 -75.0 135.0 -81.2 135.0 -89.35 135.0 -93.0 137.4 -101.35 L141.0 -112.85 140.0 -112.85 Q133.6 -106.25 126.05 -102.2 117.9 -97.85 111.0 -97.85 104.4 -97.85 102.1 -102.35 100.55 -105.5 100.0 -114.85 90.05 -109.3 87.05 -108.15 81.1 -105.85 73.0 -105.85 65.25 -105.85 60.0 -114.85 55.0 -123.45 55.0 -135.35 55.0 -137.35 55.65 -142.05 56.3 -147.0 57.0 -149.85 L56.0 -149.85 Q52.65 -135.4 48.7 -126.85 41.45 -110.85 28.5 -110.85 24.35 -110.85 20.75 -115.05 17.6 -118.7 16.85 -122.9 10.05 -118.9 5.85 -117.2 0.1 -114.85 -5.5 -114.85 -16.7 -114.85 -22.45 -121.85 -27.95 -128.5 -31.0 -144.85 -32.8 -120.6 -36.45 -113.4 -38.6 -109.2 -42.25 -107.45 -45.6 -105.85 -51.5 -105.85 -56.5 -105.85 -58.55 -108.2 L-60.9 -111.3 Q-62.75 -113.7 -65.0 -115.85 -63.8 -108.7 -68.15 -102.2 -72.45 -95.85 -78.0 -95.85 -88.4 -95.85 -98.55 -104.35 -104.0 -108.9 -106.85 -113.85 L-105.1 -108.55 Q-101.0 -95.7 -101.0 -89.85 -101.0 -81.55 -106.0 -77.0 -110.35 -73.0 -117.0 -73.0 -121.05 -73.0 -124.05 -75.25 -125.35 -76.2 -126.95 -78.05 -129.6 -78.5 -155.0 -97.85 L-156.0 -97.85 Q-155.4 -96.05 -147.05 -81.75 -139.3 -68.55 -139.0 -65.0 L-146.0 -65.0 Q-150.35 -66.8 -159.45 -69.3 -167.4 -71.9 -171.85 -76.0 L-172.85 -76.0 Q-169.35 -65.4 -164.35 -59.1 -162.45 -56.65 -161.9 -55.35 -161.0 -53.25 -161.0 -49.5 -161.0 -41.85 -165.3 -40.55 L-170.85 -39.95 -178.85 -40.0 Q-176.95 -38.1 -170.1 -25.05 -164.45 -14.2 -163.2 -9.9 -165.1 -4.7 -165.7 -1.0 -166.1 1.3 -166.0 3.0 L-166.0 4.0 -165.65 3.15 -164.65 0.55 -162.5 9.3 -161.75 11.9 -159.3 15.65 -160.4 16.35 Q-158.05 23.5 -155.0 30.35 -152.2 35.25 -149.75 37.95 L-147.5 38.0 -144.85 37.8 Q-142.65 37.45 -140.35 36.5 -136.75 35.05 -133.15 35.0 L-133.1 35.05 Q-131.15 41.45 -127.4 48.05 -121.75 58.0 -117.0 58.0 L-114.45 57.5 Q-113.3 57.0 -113.0 57.0 L-113.0 52.0 Q-114.5 46.8 -117.5 38.95 L-117.2 38.85 Q-113.25 47.85 -108.5 54.55 -98.15 69.0 -86.0 69.0 -79.4 69.0 -79.6 64.65 -81.1 57.9 -81.0 53.0 L-80.95 53.0 Q-80.55 57.35 -76.5 63.05 -70.85 71.0 -63.0 71.0 -54.9 71.0 -52.85 56.9 -52.15 51.95 -52.0 30.05 L-51.85 30.05 Q-48.7 57.5 -43.25 66.3 -40.0 71.55 -34.75 73.85 -29.75 76.0 -21.5 76.0 -18.2 76.0 -16.8 74.9 -15.6 73.95 -14.9 71.3 L-13.4 64.8 Q-12.15 59.8 -10.0 55.0 L-10.05 64.8 Q-10.0 69.3 -9.45 71.3 -8.2 76.0 -0.5 76.0 8.8 76.0 16.45 66.65 24.1 57.3 34.0 34.0 L31.05 51.15 Q29.0 62.4 29.0 66.0 29.0 71.8 34.05 75.05 38.65 78.0 46.0 78.0 51.65 78.0 59.0 71.8 L69.0 63.0 Q69.0 63.7 67.7 67.1 66.45 70.35 66.0 71.0 L66.0 81.0 72.0 81.0 Q87.7 76.75 107.15 53.9 117.4 41.85 129.0 25.0 L129.05 25.0 Q128.9 28.2 125.8 37.5 122.0 49.05 122.0 51.0 122.0 54.65 125.05 57.0 127.6 59.0 130.5 59.0 137.35 59.0 146.8 50.65 154.05 44.25 156.7 37.85 L157.0 38.0 157.0 45.0 Q160.0 43.9 164.5 40.65 L169.1 37.05 170.0 36.35 172.9 30.05 173.65 20.05 175.05 15.85 176.15 11.25 M32.0 -181.85 L32.0 -181.15 32.35 -181.55 32.0 -181.85 M-201.65 -55.0 L-201.2 -55.65 -202.15 -54.5 -201.65 -55.0 M-205.15 -75.3 L-205.5 -74.3 -205.1 -75.3 -205.15 -75.3 M-148.05 -179.35 L-148.4 -180.3 -148.4 -179.2 -148.05 -179.35 M-153.2 -180.95 L-152.95 -181.3 -153.05 -182.75 -153.2 -180.95" fill="#ffffff" fill-opacity="0.7058824" fill-rule="evenodd" stroke="none"/>
    <path d="M-163.2 -9.9 Q-164.45 -14.2 -170.1 -25.05 -176.95 -38.1 -178.85 -40.0 L-170.85 -39.95 -165.3 -40.55 Q-161.0 -41.85 -161.0 -49.5 -161.0 -53.25 -161.9 -55.35 -162.45 -56.65 -164.35 -59.1 -169.35 -65.4 -172.85 -76.0 L-171.85 -76.0 Q-167.4 -71.9 -159.45 -69.3 -150.35 -66.8 -146.0 -65.0 L-139.0 -65.0 Q-139.3 -68.55 -147.05 -81.75 -155.4 -96.05 -156.0 -97.85 L-155.0 -97.85 Q-129.6 -78.5 -126.95 -78.05 -125.35 -76.2 -124.05 -75.25 -121.05 -73.0 -117.0 -73.0 -110.35 -73.0 -106.0 -77.0 -101.0 -81.55 -101.0 -89.85 -101.0 -95.7 -105.1 -108.55 L-106.85 -113.85 Q-104.0 -108.9 -98.55 -104.35 -88.4 -95.85 -78.0 -95.85 -72.45 -95.85 -68.15 -102.2 -63.8 -108.7 -65.0 -115.85 -62.75 -113.7 -60.9 -111.3 L-58.55 -108.2 Q-56.5 -105.85 -51.5 -105.85 -45.6 -105.85 -42.25 -107.45 -38.6 -109.2 -36.45 -113.4 -32.8 -120.6 -31.0 -144.85 -27.95 -128.5 -22.45 -121.85 -16.7 -114.85 -5.5 -114.85 0.1 -114.85 5.85 -117.2 10.05 -118.9 16.85 -122.9 17.6 -118.7 20.75 -115.05 24.35 -110.85 28.5 -110.85 41.45 -110.85 48.7 -126.85 52.65 -135.4 56.0 -149.85 L57.0 -149.85 Q56.3 -147.0 55.65 -142.05 55.0 -137.35 55.0 -135.35 55.0 -123.45 60.0 -114.85 65.25 -105.85 73.0 -105.85 81.1 -105.85 87.05 -108.15 90.05 -109.3 100.0 -114.85 100.55 -105.5 102.1 -102.35 104.4 -97.85 111.0 -97.85 117.9 -97.85 126.05 -102.2 133.6 -106.25 140.0 -112.85 L141.0 -112.85 137.4 -101.35 Q135.0 -93.0 135.0 -89.35 135.0 -81.2 141.0 -75.0 147.8 -68.0 159.0 -68.0 165.2 -68.0 175.85 -71.95 184.75 -75.25 187.0 -77.0 184.55 -72.15 177.15 -63.5 172.0 -57.5 172.0 -52.0 172.0 -48.35 175.05 -46.95 177.2 -46.0 181.5 -46.0 184.55 -46.0 191.6 -47.5 L200.0 -49.0 203.0 -49.0 Q198.2 -47.5 190.05 -38.1 182.0 -28.8 182.0 -25.0 182.0 -21.1 193.8 -18.2 205.05 -15.45 209.0 -17.0 209.4 -16.0 210.0 -16.0 196.65 -8.4 189.05 -2.9 178.95 4.4 176.15 11.25 L176.65 7.75 Q177.1 3.45 176.95 -3.75 176.8 -11.9 177.0 -15.75 L176.0 -17.65 176.6 -17.9 Q177.15 -17.55 177.85 -17.15 L183.0 -14.0 Q178.25 -27.55 166.25 -41.9 154.55 -55.9 138.4 -67.85 121.85 -80.05 104.1 -87.55 86.85 -94.9 71.1 -96.55 77.05 -95.55 84.7 -90.65 93.05 -85.35 97.6 -79.5 L97.65 -79.5 97.0 -79.0 Q89.2 -86.85 62.15 -93.5 36.25 -99.85 15.5 -99.85 -10.0 -99.85 -28.95 -95.1 -38.8 -92.65 -50.05 -88.1 L-50.75 -89.75 Q-31.65 -99.75 -26.0 -100.85 -55.9 -97.6 -88.05 -83.25 -120.15 -68.9 -140.7 -48.7 -143.7 -46.65 -146.7 -42.45 L-147.8 -40.85 Q-152.3 -34.2 -157.4 -23.5 -161.1 -15.75 -163.2 -9.9" fill="#ffffff" fill-opacity="0.6" fill-rule="evenodd" stroke="none"/>
    <path d="M166.45 77.55 L166.3 76.05 166.4 76.05 166.85 76.0 166.45 77.55 M257.5 -81.25 L257.1 -82.15 257.15 -82.2 257.5 -81.25 M157.0 38.0 L156.7 37.85 156.85 37.45 157.2 37.6 157.0 38.0 M129.05 25.0 L129.0 25.0 129.05 24.9 129.05 25.0 M-51.85 30.05 L-52.0 30.05 -52.0 30.0 -51.95 30.0 -51.85 30.05 M-160.4 16.35 L-159.3 15.65 -155.85 20.95 Q-157.65 19.7 -159.55 17.4 L-160.4 16.35 M71.0 -82.0 Q58.75 -82.1 47.65 -84.0 36.15 -86.0 27.0 -86.0 -9.4 -86.0 -29.3 -81.2 -46.35 -77.15 -71.0 -64.0 -66.7 -68.3 -57.7 -74.05 L-50.75 -76.85 -51.3 -78.1 Q-42.55 -83.35 -37.3 -85.45 L-31.95 -86.75 Q-13.85 -90.85 9.5 -90.85 27.15 -90.85 45.15 -87.35 L71.0 -82.0 M166.95 68.0 L167.0 69.0 166.45 69.55 166.85 68.0 166.95 68.0 M110.4 -73.9 L109.55 -74.6 Q97.4 -85.2 97.0 -86.0 106.0 -81.35 117.1 -73.1 130.1 -63.5 140.75 -52.6 168.1 -24.85 169.95 -0.2 162.6 -20.25 149.0 -38.05 133.9 -57.8 113.65 -71.05 L110.4 -73.9 M-205.15 -75.3 L-205.1 -75.3 -205.5 -74.3 -205.15 -75.3 M-94.3 -60.75 Q-103.95 -55.55 -119.35 -40.9 L-120.35 -41.75 Q-114.55 -48.35 -107.95 -54.7 -85.85 -75.95 -73.0 -77.0 L-72.55 -76.5 -87.2 -65.9 -94.3 -60.75 M-96.0 -73.0 Q-109.95 -60.7 -116.5 -54.45 -131.1 -40.3 -137.0 -31.0 -146.7 -15.45 -154.0 12.0 L-155.0 12.0 -155.0 13.5 -155.85 12.95 -164.4 -0.1 Q-155.45 -22.0 -134.3 -42.9 -117.8 -59.25 -96.0 -73.0" fill="#ffffff" fill-rule="evenodd" stroke="none"/>
    <path d="M-153.2 -180.95 L-153.05 -182.75 -152.95 -181.3 -153.2 -180.95 M-148.05 -179.35 L-148.4 -179.2 -148.4 -180.3 -148.05 -179.35" fill="#ffffff" fill-opacity="0.49803922" fill-rule="evenodd" stroke="none"/>
  </g>
</svg>
