<?xml version="1.0" encoding="UTF-8" standalone="no"?>
<svg xmlns:ffdec="https://www.free-decompiler.com/flash" xmlns:xlink="http://www.w3.org/1999/xlink" ffdec:objectType="shape" height="160.15px" width="198.15px" xmlns="http://www.w3.org/2000/svg">
  <g transform="matrix(1.0, 0.0, 0.0, 1.0, 88.15, 156.05)">
    <path d="M31.7 -130.35 L30.75 -125.25 Q28.1 -113.45 22.4 -96.25 16.65 -82.35 11.9 -69.9 8.3 -60.4 6.15 -53.55 4.55 -48.8 3.7 -45.15 3.55 -45.85 3.55 -46.8 3.55 -49.6 4.2 -53.55 6.5 -68.9 18.1 -101.5 28.75 -131.5 31.7 -130.35 M99.35 -115.75 L89.35 -107.55 63.3 -83.5 Q48.9 -70.25 39.4 -59.9 L38.45 -58.75 Q46.8 -69.4 65.95 -89.25 94.95 -119.35 99.35 -115.75 M65.3 -35.2 Q66.1 -36.65 68.9 -38.8 74.45 -43.2 87.55 -50.9 107.2 -62.35 110.0 -57.6 99.0 -51.25 97.05 -50.4 78.55 -42.4 70.7 -38.3 L68.9 -37.3 65.3 -35.2 M-60.15 -149.8 Q-60.15 -155.7 -58.85 -156.05 -57.35 -148.5 -52.3 -130.8 L-44.6 -104.6 Q-37.7 -84.95 -35.25 -76.45 -33.15 -66.3 -31.15 -60.1 -30.0 -56.45 -28.7 -54.0 L-29.85 -53.85 Q-36.1 -53.85 -48.7 -102.15 -55.1 -126.25 -60.15 -149.8 M-86.05 -68.6 Q-76.2 -61.55 -72.75 -58.45 -67.7 -54.0 -57.55 -46.5 -58.7 -45.5 -60.15 -45.5 -68.35 -45.5 -87.35 -65.0 -87.35 -67.6 -86.05 -68.6 M-84.4 -9.3 Q-80.3 -9.45 -67.2 -6.2 L-54.1 -4.25 Q-48.05 -2.6 -48.05 0.7 -48.05 2.65 -49.5 3.8 L-49.85 4.1 -51.45 3.95 Q-54.9 3.8 -59.5 1.5 -66.2 -1.8 -69.65 -2.9 L-88.15 -6.2 Q-87.65 -9.15 -84.4 -9.3" fill="#ffffff" fill-rule="evenodd" stroke="none"/>
  </g>
</svg>
