<?xml version="1.0" encoding="UTF-8" standalone="no"?>
<svg xmlns:ffdec="https://www.free-decompiler.com/flash" xmlns:xlink="http://www.w3.org/1999/xlink" ffdec:objectType="shape" height="77.95px" width="37.8px" xmlns="http://www.w3.org/2000/svg">
  <g transform="matrix(1.0, 0.0, 0.0, 1.0, 4.55, 38.3)">
    <path d="M-2.15 -21.35 Q-0.65 -24.8 -0.65 -27.5 L-0.85 -30.95 Q-1.05 -34.15 -1.3 -34.75 L-1.6 -35.75 0.1 -36.8 Q4.65 -38.3 9.05 -38.3 12.65 -38.3 15.8 -37.4 L16.7 -36.75 Q18.95 -34.9 20.25 -32.05 L17.95 -32.15 Q10.8 -31.65 10.8 -25.5 10.8 -24.45 11.45 -22.9 12.05 -21.45 12.9 -20.85 14.1 -19.35 16.5 -18.65 L20.0 -17.4 Q21.65 -16.4 21.65 -14.15 21.65 -12.4 20.35 -10.65 L19.05 -9.05 Q17.8 -10.0 15.9 -10.0 11.25 -10.05 11.25 -4.2 11.25 -2.25 12.1 -0.85 13.65 1.75 17.65 1.75 21.4 1.75 24.2 -0.75 26.45 -2.75 28.65 -3.15 L30.5 -1.55 31.7 0.25 31.55 0.25 30.35 0.1 Q28.75 0.1 26.8 1.65 25.3 2.55 24.35 4.1 23.55 5.4 23.55 6.7 23.55 8.0 24.25 8.95 25.65 10.8 29.25 10.8 31.35 10.8 33.25 9.5 L31.65 14.15 Q30.8 15.9 28.45 15.9 L23.9 14.95 18.6 14.05 Q15.15 14.05 13.25 15.65 11.4 17.15 11.4 20.0 11.4 22.15 12.6 23.7 13.9 25.25 15.75 25.25 16.9 25.25 18.75 24.4 L20.35 23.6 Q20.15 24.9 18.45 28.25 16.55 32.05 15.55 33.0 L11.8 36.35 11.7 36.35 11.5 36.6 Q9.65 38.85 7.1 39.55 L6.6 39.65 3.1 38.05 Q2.35 31.35 -1.8 27.75 L-2.75 26.05 -2.95 25.7 -1.95 23.5 Q-0.65 20.15 -0.65 18.55 -0.65 16.95 -0.8 16.5 L-2.15 13.75 -3.0 12.75 -3.0 12.7 -2.95 12.7 Q-1.1 13.65 -0.35 13.65 2.7 13.65 5.25 10.2 7.35 7.5 7.95 4.35 L7.95 2.7 Q5.3 6.75 3.9 7.65 2.8 8.35 0.1 8.4 -0.2 6.45 -1.35 4.55 -2.45 2.7 -3.5 1.95 -1.15 0.7 -0.55 -0.1 0.15 -1.0 0.15 -3.15 L0.1 -4.15 Q1.8 -4.9 3.5 -4.9 L5.35 -4.85 Q6.05 -4.65 6.45 -4.05 L6.55 -4.15 Q6.05 -6.75 5.3 -8.0 4.35 -9.65 2.6 -9.65 1.4 -9.65 -1.9 -8.15 -2.95 -9.1 -4.0 -9.05 L-3.85 -9.35 Q-1.8 -10.65 -1.8 -12.25 -1.8 -14.15 -2.9 -15.6 -3.65 -16.55 -4.55 -16.85 L-3.7 -18.3 -2.3 -20.95 -2.0 -20.75 -2.15 -21.35" fill="url(#gradient0)" fill-rule="evenodd" stroke="none"/>
    <path d="M-2.15 -21.35 L-2.0 -20.75 -2.3 -20.95 -2.15 -21.35 M-1.9 -8.15 Q1.4 -9.65 2.6 -9.65 4.35 -9.65 5.3 -8.0 6.05 -6.75 6.55 -4.15 L6.45 -4.05 Q6.05 -4.65 5.35 -4.85 L3.5 -4.9 Q1.8 -4.9 0.1 -4.15 -0.15 -5.8 -1.15 -7.25 L-1.9 -8.15 M0.1 8.4 Q2.8 8.35 3.9 7.65 5.3 6.75 7.95 2.7 L7.95 4.35 Q7.35 7.5 5.25 10.2 2.7 13.65 -0.35 13.65 -1.1 13.65 -2.95 12.7 -2.4 12.85 -1.25 12.0 0.15 11.0 0.15 9.5 L0.1 8.4 M-1.8 27.75 Q2.35 31.35 3.1 38.05 L2.35 37.7 0.2 36.6 0.2 35.8 Q0.2 31.45 -1.7 28.0 L-1.8 27.75" fill="url(#gradient1)" fill-rule="evenodd" stroke="none"/>
  </g>
  <defs>
    <radialGradient cx="0" cy="0" gradientTransform="matrix(0.0941, 0.0, 0.0, 0.0962, -32.1, 3.55)" gradientUnits="userSpaceOnUse" id="gradient0" r="819.2" spreadMethod="pad">
      <stop offset="0.24705882352941178" stop-color="#00cc66"/>
      <stop offset="0.6509803921568628" stop-color="#227091"/>
      <stop offset="1.0" stop-color="#227091"/>
    </radialGradient>
    <radialGradient cx="0" cy="0" gradientTransform="matrix(0.1075, 0.0, 0.0, 0.1123, 24.2, -6.5)" gradientUnits="userSpaceOnUse" id="gradient1" r="819.2" spreadMethod="pad">
      <stop offset="0.24705882352941178" stop-color="#00cc66"/>
      <stop offset="0.6509803921568628" stop-color="#227091"/>
      <stop offset="1.0" stop-color="#227091"/>
    </radialGradient>
  </defs>
</svg>
