<?xml version="1.0" encoding="UTF-8" standalone="no"?>
<svg xmlns:ffdec="https://www.free-decompiler.com/flash" xmlns:xlink="http://www.w3.org/1999/xlink" ffdec:objectType="shape" height="77.95px" width="34.95px" xmlns="http://www.w3.org/2000/svg">
  <g transform="matrix(1.0, 0.0, 0.0, 1.0, 1.7, 38.3)">
    <path d="M-0.35 -8.8 L-0.75 -9.25 -1.7 -10.25 -1.35 -12.1 -1.05 -14.3 -1.15 -16.5 Q0.7 -19.05 2.25 -24.45 3.7 -29.55 4.35 -34.85 L4.1 -37.8 9.05 -38.3 Q12.65 -38.3 15.8 -37.4 L16.7 -36.75 Q18.95 -34.9 20.25 -32.05 L17.95 -32.15 Q10.8 -31.65 10.8 -25.5 10.8 -24.45 11.45 -22.9 12.05 -21.45 12.9 -20.85 14.1 -19.35 16.5 -18.65 L20.0 -17.4 Q21.65 -16.4 21.65 -14.15 21.65 -12.4 20.35 -10.65 L19.05 -9.05 Q17.8 -10.0 15.9 -10.0 11.25 -10.05 11.25 -4.2 11.25 -2.25 12.1 -0.85 13.65 1.75 17.65 1.75 21.4 1.75 24.2 -0.75 26.45 -2.75 28.65 -3.15 L30.5 -1.55 31.7 0.25 31.55 0.25 30.35 0.1 Q28.75 0.1 26.8 1.65 25.3 2.55 24.35 4.1 23.55 5.4 23.55 6.7 23.55 8.0 24.25 8.95 25.65 10.8 29.25 10.8 31.35 10.8 33.25 9.5 L31.65 14.15 Q30.8 15.9 28.45 15.9 L23.9 14.95 18.6 14.05 Q15.15 14.05 13.25 15.65 11.4 17.15 11.4 20.0 11.4 22.15 12.6 23.7 13.9 25.25 15.75 25.25 16.9 25.25 18.75 24.4 L20.35 23.6 Q20.15 24.9 18.45 28.25 16.55 32.05 15.55 33.0 L11.8 36.35 11.7 36.35 11.5 36.6 Q9.65 38.85 7.1 39.55 L6.6 39.65 5.2 39.05 5.2 37.95 Q5.2 35.1 4.7 33.5 L2.45 28.45 -0.2 23.55 -0.7 22.95 -0.2 21.55 0.4 18.55 0.65 16.25 0.6 14.4 0.4 13.6 Q3.0 13.25 5.25 10.2 7.35 7.5 7.95 4.35 L7.95 2.7 Q5.3 6.75 3.9 7.65 3.1 8.15 1.45 8.35 L1.45 8.15 Q1.45 6.15 0.55 3.75 L-0.35 1.45 0.5 -0.2 Q1.3 -1.9 1.3 -3.25 L1.2 -4.55 3.5 -4.9 5.35 -4.85 Q6.05 -4.65 6.45 -4.05 L6.55 -4.15 Q6.05 -6.75 5.3 -8.0 4.35 -9.65 2.6 -9.65 L-0.35 -8.8" fill="url(#gradient0)" fill-rule="evenodd" stroke="none"/>
    <path d="M-0.35 -8.8 L2.6 -9.65 Q4.35 -9.65 5.3 -8.0 6.05 -6.75 6.55 -4.15 L6.45 -4.05 Q6.05 -4.65 5.35 -4.85 L3.5 -4.9 1.2 -4.55 0.8 -6.6 Q0.45 -7.9 -0.35 -8.8 M1.45 8.35 Q3.1 8.15 3.9 7.65 5.3 6.75 7.95 2.7 L7.95 4.35 Q7.35 7.5 5.25 10.2 3.0 13.25 0.4 13.6 L-0.25 12.35 1.25 10.1 1.45 8.35" fill="url(#gradient1)" fill-rule="evenodd" stroke="none"/>
  </g>
  <defs>
    <radialGradient cx="0" cy="0" gradientTransform="matrix(0.0941, 0.0, 0.0, 0.0962, -32.1, 3.55)" gradientUnits="userSpaceOnUse" id="gradient0" r="819.2" spreadMethod="pad">
      <stop offset="0.24705882352941178" stop-color="#00cc66"/>
      <stop offset="0.6509803921568628" stop-color="#227091"/>
      <stop offset="1.0" stop-color="#227091"/>
    </radialGradient>
    <radialGradient cx="0" cy="0" gradientTransform="matrix(0.1075, 0.0, 0.0, 0.1123, 24.2, -6.5)" gradientUnits="userSpaceOnUse" id="gradient1" r="819.2" spreadMethod="pad">
      <stop offset="0.24705882352941178" stop-color="#00cc66"/>
      <stop offset="0.6509803921568628" stop-color="#227091"/>
      <stop offset="1.0" stop-color="#227091"/>
    </radialGradient>
  </defs>
</svg>
