<?xml version="1.0" encoding="UTF-8" standalone="no"?>
<svg xmlns:ffdec="https://www.free-decompiler.com/flash" xmlns:xlink="http://www.w3.org/1999/xlink" ffdec:objectType="shape" height="76.35px" width="33.85px" xmlns="http://www.w3.org/2000/svg">
  <g transform="matrix(1.0, 0.0, 0.0, 1.0, 0.6, 38.1)">
    <path d="M1.0 -9.3 L0.15 -10.55 -0.6 -11.25 0.0 -14.75 1.05 -15.65 Q3.8 -18.0 4.75 -19.3 L6.65 -22.5 8.35 -25.8 10.3 -31.55 Q11.9 -36.45 12.1 -38.1 L15.8 -37.4 16.7 -36.75 Q18.95 -34.9 20.25 -32.05 L17.95 -32.15 Q10.8 -31.65 10.8 -25.5 10.8 -24.45 11.45 -22.9 12.05 -21.45 12.9 -20.85 14.1 -19.35 16.5 -18.65 L20.0 -17.4 Q21.65 -16.4 21.65 -14.15 21.65 -12.4 20.35 -10.65 L19.05 -9.05 Q17.8 -10.0 15.9 -10.0 11.25 -10.05 11.25 -4.2 11.25 -2.25 12.1 -0.85 13.65 1.75 17.65 1.75 21.4 1.75 24.2 -0.75 26.45 -2.75 28.65 -3.15 L30.5 -1.55 31.7 0.25 31.55 0.25 30.35 0.1 Q28.75 0.1 26.8 1.65 25.3 2.55 24.35 4.1 23.55 5.4 23.55 6.7 23.55 8.0 24.25 8.95 25.65 10.8 29.25 10.8 31.35 10.8 33.25 9.5 L31.65 14.15 Q30.8 15.9 28.45 15.9 L23.9 14.95 18.6 14.05 Q15.15 14.05 13.25 15.65 11.4 17.15 11.4 20.0 11.4 22.15 12.6 23.7 13.9 25.25 15.75 25.25 16.9 25.25 18.75 24.4 L20.35 23.6 Q20.15 24.9 18.45 28.25 16.55 32.05 15.55 33.0 L11.8 36.35 11.7 36.35 11.5 36.6 9.85 38.25 9.6 36.9 Q8.75 32.0 8.35 31.15 L6.9 28.2 Q6.0 26.55 4.55 25.3 L2.8 23.95 2.15 23.35 Q1.4 22.15 0.65 21.45 L1.15 20.3 Q2.55 17.35 2.55 14.35 L2.35 12.95 Q3.9 12.05 5.25 10.2 7.35 7.5 7.95 4.35 L7.95 2.7 Q5.3 6.75 3.9 7.65 L2.45 8.2 2.75 6.25 2.45 3.25 Q2.25 2.35 1.5 1.15 L0.8 0.1 1.45 -1.5 Q2.1 -3.0 2.1 -4.6 L2.1 -4.75 3.5 -4.9 5.35 -4.85 Q6.05 -4.65 6.45 -4.05 L6.55 -4.15 Q6.05 -6.75 5.3 -8.0 4.35 -9.65 2.6 -9.65 L1.0 -9.3" fill="url(#gradient0)" fill-rule="evenodd" stroke="none"/>
    <path d="M1.0 -9.3 L2.6 -9.65 Q4.35 -9.65 5.3 -8.0 6.05 -6.75 6.55 -4.15 L6.45 -4.05 Q6.05 -4.65 5.35 -4.85 L3.5 -4.9 2.1 -4.75 Q2.05 -6.05 1.6 -7.8 L1.0 -9.3 M2.45 8.2 L3.9 7.65 Q5.3 6.75 7.95 2.7 L7.95 4.35 Q7.35 7.5 5.25 10.2 3.9 12.05 2.35 12.95 L2.1 12.1 1.6 10.7 2.2 9.0 2.45 8.2" fill="url(#gradient1)" fill-rule="evenodd" stroke="none"/>
  </g>
  <defs>
    <radialGradient cx="0" cy="0" gradientTransform="matrix(0.0941, 0.0, 0.0, 0.0962, -32.1, 3.55)" gradientUnits="userSpaceOnUse" id="gradient0" r="819.2" spreadMethod="pad">
      <stop offset="0.24705882352941178" stop-color="#00cc66"/>
      <stop offset="0.6509803921568628" stop-color="#227091"/>
      <stop offset="1.0" stop-color="#227091"/>
    </radialGradient>
    <radialGradient cx="0" cy="0" gradientTransform="matrix(0.1075, 0.0, 0.0, 0.1123, 24.2, -6.5)" gradientUnits="userSpaceOnUse" id="gradient1" r="819.2" spreadMethod="pad">
      <stop offset="0.24705882352941178" stop-color="#00cc66"/>
      <stop offset="0.6509803921568628" stop-color="#227091"/>
      <stop offset="1.0" stop-color="#227091"/>
    </radialGradient>
  </defs>
</svg>
