<?xml version="1.0" encoding="UTF-8" standalone="no"?>
<svg xmlns:ffdec="https://www.free-decompiler.com/flash" xmlns:xlink="http://www.w3.org/1999/xlink" ffdec:objectType="shape" height="83.3px" width="64.0px" xmlns="http://www.w3.org/2000/svg">
  <g transform="matrix(1.0, 0.0, 0.0, 1.0, 32.0, 41.65)">
    <path d="M6.85 -10.55 L6.3 -11.2 4.3 -13.8 2.35 -15.8 Q1.15 -17.0 0.65 -17.85 L-0.15 -19.4 -0.15 -19.5 -1.45 -23.45 -2.15 -25.35 -2.15 -26.0 -1.85 -28.95 -1.55 -31.4 -1.3 -32.45 -0.75 -32.85 1.5 -34.3 5.4 -36.7 7.95 -37.4 5.15 -38.1 4.85 -38.1 2.65 -38.65 Q0.65 -39.1 -0.35 -39.5 L-0.1 -38.85 -1.1 -39.85 -1.75 -39.45 -5.85 -36.2 -6.2 -35.9 -6.4 -35.75 -9.4 -33.45 -9.8 -33.05 Q-11.45 -31.05 -11.55 -30.25 L-11.4 -30.15 -9.85 -22.1 -9.2 -20.15 -8.7 -18.0 -8.65 -17.05 -8.9 -16.85 -9.6 -13.6 -9.95 -12.45 -9.95 -12.35 -9.8 -12.05 -9.55 -12.0 -9.85 -10.8 -11.35 -8.6 -11.4 -8.45 -12.65 -6.2 -12.7 -6.05 -12.75 -5.95 -12.8 -5.85 -12.9 -5.65 -13.0 -5.75 -13.2 -5.65 -13.3 -5.55 -13.45 -5.5 Q-15.5 -4.3 -18.25 -2.85 -21.25 -1.3 -22.35 -1.0 L-27.35 8.8 -28.85 11.65 -28.8 11.75 -27.45 20.75 -27.05 22.95 Q-25.3 23.45 -23.75 25.35 L-22.0 27.05 -22.0 26.8 -21.8 27.45 -21.45 27.65 -21.3 27.85 -20.6 28.0 -20.35 28.1 -19.75 28.3 -19.05 28.55 Q-16.95 28.95 -15.2 29.5 L-10.45 30.4 -10.25 30.45 -6.7 30.75 -0.75 31.05 -0.1 31.05 0.9 31.2 2.1 31.25 Q3.95 30.5 6.6 30.25 L13.4 28.75 14.65 28.6 14.75 28.55 15.25 28.3 16.0 28.05 Q16.55 27.7 17.4 27.3 L18.4 26.8 21.7 24.6 22.65 24.05 24.95 22.5 25.25 22.35 25.75 22.05 25.8 22.0 26.05 21.9 26.1 21.85 27.65 21.0 27.75 18.35 28.15 13.15 28.3 8.65 28.25 7.85 28.2 7.5 28.2 7.1 28.15 7.05 26.55 4.35 Q24.4 1.0 24.0 0.1 L23.55 0.0 23.6 -0.1 22.65 -0.4 22.55 -0.45 22.6 -0.5 22.95 -0.7 23.0 -0.75 22.9 -0.75 21.95 -1.3 21.55 -1.6 20.9 -2.15 16.6 -4.8 10.5 -8.15 Q9.6 -8.5 8.95 -8.9 6.95 -9.95 6.95 -10.15 L6.85 -10.3 6.6 -10.5 6.8 -10.55 6.95 -10.5 6.85 -10.55 M9.15 -38.7 L9.15 -38.6 11.7 -38.0 Q14.1 -37.35 14.1 -36.8 14.1 -36.15 13.3 -36.1 L9.45 -35.6 Q8.2 -35.4 5.4 -34.1 L1.25 -32.25 1.3 -31.85 0.7 -30.9 0.5 -31.3 -0.05 -29.65 Q-0.05 -27.1 0.6 -25.1 L2.7 -20.0 6.45 -15.6 Q9.45 -12.2 9.75 -10.7 L9.85 -10.65 12.5 -9.55 13.45 -9.0 14.55 -8.25 16.7 -6.8 22.0 -4.8 25.5 -1.65 25.55 -1.6 25.9 -1.45 29.5 5.1 30.75 7.6 31.8 9.55 32.0 9.9 Q31.35 18.85 30.3 21.85 L30.1 22.35 30.15 22.4 Q30.35 23.9 23.35 27.65 17.2 31.35 15.35 32.0 L15.2 32.0 14.85 32.3 14.7 32.35 14.4 32.35 14.8 32.65 Q14.9 33.25 20.35 38.15 L21.9 39.5 22.35 39.75 22.95 40.25 23.05 40.35 22.7 40.7 19.35 40.0 16.7 39.6 12.25 38.7 5.95 37.4 5.6 37.35 5.6 37.5 5.6 37.6 5.15 37.5 4.9 37.6 3.65 39.4 2.95 40.25 2.45 41.45 2.6 41.6 2.6 41.65 1.85 41.15 1.3 40.75 -0.5 39.6 -1.2 39.2 -1.45 39.1 -2.8 38.3 Q-2.85 38.2 -3.25 38.05 L-3.8 37.55 -3.85 37.6 -5.15 37.6 -5.4 37.75 -5.55 37.65 -7.8 38.0 -10.8 38.2 -12.65 38.45 -16.1 39.1 -17.2 39.15 -18.1 39.3 -19.5 39.5 -19.8 39.6 -20.7 39.55 -20.7 39.25 -17.6 37.1 -16.05 36.1 -14.55 35.25 -14.5 35.1 -13.7 33.7 -13.15 32.85 -21.25 31.35 -21.95 31.05 Q-25.7 28.6 -27.35 26.6 L-27.9 25.9 -28.3 25.35 -29.1 23.7 -29.7 22.4 -29.95 21.15 -31.05 15.9 -31.25 14.7 -31.85 13.4 -32.0 12.3 -31.95 10.45 -30.9 8.4 -28.65 3.95 -27.35 1.65 -24.75 -2.25 -24.3 -2.8 -17.55 -6.4 -16.35 -7.4 -15.25 -8.35 -14.1 -9.25 Q-13.75 -9.45 -13.45 -9.6 L-12.6 -14.35 -11.7 -19.25 -12.5 -21.15 -12.8 -23.05 -13.45 -25.8 -14.9 -30.95 -14.75 -32.15 Q-14.75 -33.1 -14.0 -33.4 L-13.45 -33.4 -13.4 -33.4 -10.35 -35.9 -5.65 -39.7 Q-4.05 -40.8 -2.6 -40.9 L-2.55 -41.05 Q-1.9 -41.65 -1.15 -41.65 -0.6 -41.65 -0.45 -41.25 L0.6 -41.25 3.25 -40.6 7.2 -39.8 Q9.15 -39.55 9.15 -38.7 M11.2 -9.3 L10.0 -9.75 11.2 -9.2 11.2 -9.3 M11.35 33.05 L11.25 33.05 10.45 31.95 -1.25 33.45 -9.75 32.45 -10.15 33.15 -10.6 33.7 -10.65 33.8 -12.2 35.55 -12.3 35.45 -14.15 36.75 -13.15 36.45 -9.8 35.9 -2.95 35.6 -2.45 35.55 Q-1.6 35.95 -0.25 36.9 L0.35 37.3 0.5 37.3 1.55 37.95 1.6 37.9 1.9 37.95 2.05 37.95 2.95 36.55 3.4 35.8 3.8 35.4 3.75 35.25 Q8.95 35.65 16.65 37.65 L12.0 33.65 11.35 33.05 M3.8 37.4 L3.75 37.4 3.75 37.45 3.8 37.4" fill="#000000" fill-rule="evenodd" stroke="none"/>
    <path d="M-6.4 -35.75 L-6.2 -35.9 -5.85 -36.2 -1.75 -39.45 -1.1 -39.85 -0.1 -38.85 -0.35 -39.5 Q0.65 -39.1 2.65 -38.65 L4.85 -38.1 5.15 -38.1 7.95 -37.4 5.4 -36.7 1.5 -34.3 -0.75 -32.85 -1.3 -32.45 -1.55 -31.4 -1.85 -28.95 -2.15 -26.0 -2.15 -25.35 -1.45 -23.45 -0.15 -19.5 -0.15 -19.4 0.65 -17.85 Q1.15 -17.0 2.35 -15.8 L4.3 -13.8 6.3 -11.2 6.85 -10.55 6.8 -10.55 6.6 -10.5 6.85 -10.3 6.95 -10.15 Q6.95 -9.95 8.95 -8.9 9.6 -8.5 10.5 -8.15 L16.6 -4.8 20.9 -2.15 21.55 -1.6 21.95 -1.3 22.9 -0.75 22.95 -0.7 22.6 -0.5 22.55 -0.45 22.65 -0.4 24.4 2.3 Q26.1 5.0 26.4 6.05 L24.1 11.55 23.2 13.85 22.55 16.0 19.45 15.3 19.4 14.15 19.15 10.4 18.4 7.6 Q18.75 7.35 18.7 6.85 18.55 5.55 15.5 2.75 L12.35 0.05 12.35 -0.65 12.1 -0.6 12.0 -0.65 11.45 -1.65 11.35 -1.65 7.85 -4.35 7.9 -4.5 6.85 -5.0 3.95 -5.2 2.95 -5.55 1.3 -5.55 -0.5 -5.55 -2.3 -5.55 -3.55 -5.3 -4.05 -5.2 -5.55 -4.8 -8.5 -2.4 -10.9 -0.35 -11.05 -0.15 -10.95 2.6 -10.95 3.5 -10.3 8.6 -10.7 9.0 Q-13.25 11.5 -13.7 13.3 L-13.75 13.9 Q-13.55 14.2 -12.55 14.25 -11.95 14.7 -10.35 14.7 L-6.95 14.25 -5.95 14.1 -6.4 15.75 Q-6.25 15.85 -6.4 15.95 -6.7 19.2 -7.3 22.8 L-7.35 23.45 -7.4 23.8 -7.5 24.8 -7.25 25.25 Q-6.75 25.65 -5.65 25.65 L-5.5 25.65 -2.85 25.55 0.45 25.55 -0.25 26.5 -0.5 26.65 -4.0 26.35 -11.65 25.8 -18.55 25.4 -18.65 25.25 -22.6 19.75 -22.45 19.75 -21.05 13.2 -20.55 9.85 -20.35 6.8 -20.45 6.3 -20.7 6.4 Q-20.95 12.5 -22.75 19.5 L-22.8 19.7 -23.2 19.05 -23.5 19.5 -23.25 20.8 -24.05 22.6 Q-24.7 22.0 -27.35 20.8 L-27.45 20.75 -28.8 11.75 -28.85 11.65 -27.35 8.8 -22.35 -1.0 Q-21.25 -1.3 -18.25 -2.85 -15.5 -4.3 -13.45 -5.5 L-13.3 -5.55 -13.2 -5.65 -13.0 -5.75 -12.9 -5.65 -12.8 -5.85 -9.0 -7.85 -6.3 -9.2 Q-6.15 -9.25 -6.15 -10.0 L-6.4 -13.85 -6.15 -15.9 -5.95 -18.0 -6.0 -23.6 -6.05 -23.6 -7.1 -15.3 -7.6 -11.55 Q-7.7 -10.65 -7.95 -10.35 L-12.7 -6.05 -12.65 -6.2 -11.4 -8.45 -11.35 -8.6 -9.85 -10.8 -9.55 -12.0 -9.8 -12.05 -9.95 -12.35 -9.95 -12.45 -9.6 -13.6 -8.85 -14.3 Q-7.8 -15.4 -7.8 -16.85 -7.85 -18.7 -7.2 -21.7 L-6.75 -23.6 -6.6 -24.3 -6.85 -25.0 -7.8 -26.95 -8.4 -28.0 -9.15 -28.95 Q-8.85 -29.2 -7.9 -32.05 -7.15 -34.5 -6.4 -35.75 M12.35 1.0 L14.85 3.3 Q17.55 5.75 18.2 7.6 L18.55 12.15 18.75 15.2 18.65 15.1 17.6 18.95 Q16.45 22.65 15.2 24.0 L10.0 24.5 10.0 24.25 9.7 23.65 9.7 22.0 8.85 18.15 8.35 15.95 8.3 15.35 14.4 14.7 14.55 14.25 14.45 13.1 Q14.2 12.35 13.1 11.1 L11.9 9.75 11.45 9.4 Q12.2 7.3 12.35 1.0 M-1.25 -38.4 L-2.7 -37.45 Q-4.2 -36.5 -5.4 -36.2 L-7.2 -31.4 -5.15 -35.05 -3.7 -36.1 -1.9 -37.05 -1.65 -37.25 4.65 -37.3 -1.25 -38.4 M-14.3 1.5 L-15.8 3.35 -17.5 5.1 Q-18.7 6.4 -19.85 7.1 L-19.7 7.25 Q-17.8 6.45 -15.35 3.85 -13.25 1.7 -12.8 0.55 -13.25 0.4 -14.3 1.5" fill="#ffffff" fill-rule="evenodd" stroke="none"/>
    <path d="M-23.25 20.8 L-23.5 19.5 -23.2 19.05 -22.8 19.7 -22.75 19.5 Q-20.95 12.5 -20.7 6.4 L-20.45 6.3 -20.35 6.8 -20.55 9.85 -21.05 13.2 -22.45 19.75 -22.6 19.75 -22.7 19.75 -22.1 21.1 -21.45 23.45 -20.35 28.1 -20.6 28.0 -21.3 27.85 -23.25 20.8 M12.35 0.05 L15.5 2.75 Q18.55 5.55 18.7 6.85 18.75 7.35 18.4 7.6 L19.15 10.4 19.4 14.15 19.45 15.3 19.5 17.0 19.65 16.85 19.75 16.85 19.9 17.05 19.6 18.05 19.6 18.1 19.5 18.05 18.05 22.95 17.05 25.95 16.0 28.05 15.25 28.3 Q16.4 26.25 17.5 22.7 L19.2 17.85 18.95 17.05 18.75 15.2 18.55 12.15 18.2 7.6 Q17.55 5.75 14.85 3.3 L12.35 1.0 12.35 0.05 M2.3 25.55 L2.0 26.85 1.45 28.6 1.05 30.65 0.9 31.2 -0.1 31.05 0.9 28.3 Q1.45 26.6 1.95 25.55 L2.3 25.55 M-14.3 1.5 Q-13.25 0.4 -12.8 0.55 -13.25 1.7 -15.35 3.85 -17.8 6.45 -19.7 7.25 L-19.85 7.1 Q-18.7 6.4 -17.5 5.1 L-15.8 3.35 -14.3 1.5" fill="#d76275" fill-rule="evenodd" stroke="none"/>
    <path d="M-6.4 -35.75 Q-7.15 -34.5 -7.9 -32.05 -8.85 -29.2 -9.15 -28.95 L-8.4 -28.0 -7.8 -26.95 -6.85 -25.0 -6.6 -24.3 -6.75 -23.6 -7.2 -21.7 Q-7.85 -18.7 -7.8 -16.85 -7.8 -15.4 -8.85 -14.3 L-9.6 -13.6 -8.9 -16.85 -8.65 -17.05 -8.7 -18.0 -9.2 -20.15 -9.85 -22.1 -11.4 -30.15 -11.55 -30.25 Q-11.45 -31.05 -9.8 -33.05 L-9.4 -33.45 -6.4 -35.75 M-12.7 -6.05 L-7.95 -10.35 Q-7.7 -10.65 -7.6 -11.55 L-7.1 -15.3 -6.05 -23.6 -6.0 -23.6 -5.95 -18.0 -6.15 -15.9 -6.4 -13.85 -6.15 -10.0 Q-6.15 -9.25 -6.3 -9.2 L-9.0 -7.85 -12.8 -5.85 -12.75 -5.95 -12.7 -6.05 M-27.45 20.75 L-27.35 20.8 Q-24.7 22.0 -24.05 22.6 L-23.25 20.8 -21.3 27.85 -21.45 27.65 -21.8 27.45 -22.0 26.8 -22.0 27.05 -23.75 25.35 Q-25.3 23.45 -27.05 22.95 L-27.45 20.75 M-22.6 19.75 L-18.65 25.25 -18.55 25.4 -11.65 25.8 -4.0 26.35 -0.5 26.65 -0.25 26.5 0.45 25.55 1.95 25.55 Q1.45 26.6 0.9 28.3 L-0.1 31.05 -0.75 31.05 -6.7 30.75 -10.25 30.45 -10.45 30.4 -15.2 29.5 Q-16.95 28.95 -19.05 28.55 L-19.75 28.3 -20.35 28.1 -21.45 23.45 -22.1 21.1 -22.7 19.75 -22.6 19.75 M19.45 15.3 L22.55 16.0 23.2 13.85 24.1 11.55 26.4 6.05 Q26.1 5.0 24.4 2.3 L22.65 -0.4 23.6 -0.1 23.55 0.0 24.0 0.1 Q24.4 1.0 26.55 4.35 L28.15 7.05 28.2 7.1 28.2 7.5 28.25 7.85 28.3 8.65 28.15 13.15 27.75 18.35 27.65 21.0 26.1 21.85 26.05 21.9 25.8 22.0 25.75 22.05 25.25 22.35 24.95 22.5 22.65 24.05 21.7 24.6 18.4 26.8 17.4 27.3 Q16.55 27.7 16.0 28.05 L17.05 25.95 18.05 22.95 19.5 18.05 19.6 18.1 19.6 18.05 19.9 17.05 19.75 16.85 19.65 16.85 19.5 17.0 19.45 15.3 M18.75 15.2 L18.95 17.05 19.2 17.85 17.5 22.7 Q16.4 26.25 15.25 28.3 L14.75 28.55 14.65 28.6 13.4 28.75 6.6 30.25 Q3.95 30.5 2.1 31.25 L0.9 31.2 1.05 30.65 1.45 28.6 2.0 26.85 2.3 25.55 8.9 25.25 Q9.9 25.05 10.0 24.5 L15.2 24.0 Q16.45 22.65 17.6 18.95 L18.65 15.1 18.75 15.2 M-1.25 -38.4 L4.65 -37.3 -1.65 -37.25 -1.9 -37.05 -3.7 -36.1 -5.15 -35.05 -7.2 -31.4 -5.4 -36.2 Q-4.2 -36.5 -2.7 -37.45 L-1.25 -38.4" fill="#ebcfcf" fill-rule="evenodd" stroke="none"/>
    <path d="M11.35 33.05 L12.0 33.65 16.65 37.65 Q8.95 35.65 3.75 35.25 L3.8 35.4 3.4 35.8 2.95 36.55 2.05 37.95 1.9 37.95 1.6 37.9 1.55 37.95 0.5 37.3 0.35 37.3 -0.25 36.9 Q-1.6 35.95 -2.45 35.55 L-2.95 35.6 -9.8 35.9 -13.15 36.45 -14.15 36.75 -12.3 35.45 -12.2 35.55 -10.65 33.8 -10.6 33.7 -10.15 33.15 -9.75 32.45 -1.25 33.45 10.45 31.95 11.25 33.05 11.35 33.05" fill="#d9c8b7" fill-rule="evenodd" stroke="none"/>
    <path d="M-9.05 -0.65 L-8.15 -1.35 -5.6 -3.55 -4.95 -3.9 -0.55 -4.2 2.2 -4.2 5.75 -4.2 6.7 -3.7 9.2 -1.75 10.45 -0.75 10.6 -0.65 10.6 -0.6 10.55 0.5 10.6 0.7 10.45 2.45 10.4 3.95 9.55 2.95 8.3 3.65 7.3 4.2 Q5.2 5.35 3.15 6.1 L1.75 5.2 1.6 6.65 1.2 6.65 0.8 6.85 0.25 7.05 0.0 7.05 0.4 5.05 0.35 5.1 -1.5 6.1 -1.55 6.1 -6.85 2.95 -8.05 1.05 Q-8.8 -0.55 -9.05 -0.65 M7.3 13.75 Q6.8 13.65 6.6 13.95 L6.85 17.0 6.95 18.2 5.7 16.5 5.35 15.85 4.95 15.75 Q4.95 15.0 4.6 15.1 L4.3 15.55 3.9 15.85 1.75 19.05 1.8 18.8 0.9 11.95 2.05 11.5 0.8 9.15 0.85 9.2 7.3 13.75" fill="#f7dde2" fill-rule="evenodd" stroke="none"/>
    <path d="M0.45 25.55 L-2.85 25.55 -5.5 25.65 -5.65 25.65 Q-6.75 25.65 -7.25 25.25 L-7.5 24.8 -7.4 23.8 -7.35 23.45 -7.3 22.8 Q-6.7 19.2 -6.4 15.95 -6.25 15.85 -6.4 15.75 L-5.95 14.1 -6.95 14.25 -10.35 14.7 Q-11.95 14.7 -12.55 14.25 -13.55 14.2 -13.75 13.9 L-13.7 13.3 Q-13.25 11.5 -10.7 9.0 L-10.3 8.6 -10.95 3.5 -10.95 2.6 -11.05 -0.15 -10.9 -0.35 -8.5 -2.4 -5.55 -4.8 -4.05 -5.2 -3.55 -5.3 -2.3 -5.55 -0.5 -5.55 1.3 -5.55 2.95 -5.55 3.95 -5.2 6.85 -5.0 7.9 -4.5 7.85 -4.35 11.35 -1.65 11.45 -1.65 12.0 -0.65 12.1 -0.6 12.35 -0.65 12.35 0.05 12.35 1.0 Q12.2 7.3 11.45 9.4 L11.9 9.75 13.1 11.1 Q14.2 12.35 14.45 13.1 L14.55 14.25 14.4 14.7 8.3 15.35 8.35 15.95 8.85 18.15 9.7 22.0 9.7 23.65 10.0 24.25 10.0 24.5 Q9.9 25.05 8.9 25.25 L2.3 25.55 1.95 25.55 0.45 25.55 M10.4 3.95 L10.45 2.45 10.6 0.7 10.55 0.5 10.6 -0.6 10.6 -0.65 10.45 -0.75 9.2 -1.75 6.7 -3.7 5.75 -4.2 2.2 -4.2 -0.55 -4.2 -4.95 -3.9 -5.6 -3.55 -8.15 -1.35 -9.05 -0.65 Q-9.15 0.8 -8.85 3.25 L-9.2 8.9 Q-9.05 8.75 -9.0 9.0 L-9.0 9.4 Q-9.05 9.9 -10.0 11.1 L-10.95 12.55 -4.8 12.75 -4.8 12.9 Q-4.6 12.9 -4.65 13.1 L-4.95 17.15 -5.0 18.0 -3.25 16.4 -1.35 14.7 Q-1.2 14.2 -0.7 14.7 0.0 15.35 0.05 16.45 L1.15 18.2 1.5 19.05 1.7 18.85 1.8 18.8 1.75 19.05 3.9 15.85 4.3 15.55 4.6 15.1 Q4.95 15.0 4.95 15.75 L5.35 15.85 5.7 16.5 6.95 18.2 6.85 17.0 6.6 13.95 Q6.8 13.65 7.3 13.75 L11.75 13.35 11.9 13.1 10.95 12.15 10.35 11.35 10.5 10.45 Q10.35 10.3 10.5 10.0 L10.35 8.9 10.35 8.1 10.35 5.35 10.4 3.95 M8.65 5.3 L8.65 5.2 9.25 5.05 Q9.15 5.35 9.2 6.2 L9.05 7.0 Q8.8 9.9 8.95 11.35 L4.65 10.0 2.8 9.4 2.2 9.0 Q3.4 8.25 6.1 6.65 6.4 6.3 8.25 5.35 L8.65 5.3 M1.75 20.2 L1.35 20.25 Q0.95 20.15 -0.25 17.85 -1.15 16.45 -1.25 15.75 L-3.0 17.6 -5.05 19.65 -5.3 20.0 Q-5.4 20.95 -5.1 22.0 L-5.6 23.25 -3.75 23.15 -2.2 23.15 1.8 23.1 2.7 23.1 Q5.75 23.05 7.35 23.15 L7.1 22.0 7.1 20.0 Q6.5 19.8 5.35 18.15 L4.65 16.65 2.55 19.25 1.75 20.2 M-6.7 4.85 L-0.45 8.6 -0.1 8.9 -0.45 9.25 -0.65 9.25 -4.2 10.3 -7.3 10.6 -7.55 10.8 -7.7 7.15 Q-7.7 5.55 -7.85 4.85 -7.55 4.5 -6.7 4.85" fill="#511522" fill-rule="evenodd" stroke="none"/>
    <path d="M-9.05 -0.65 Q-8.8 -0.55 -8.05 1.05 L-6.85 2.95 -1.55 6.1 -1.5 6.1 0.35 5.1 0.4 5.05 0.0 7.05 0.25 7.05 0.8 6.85 1.2 6.65 1.6 6.65 1.75 5.2 3.15 6.1 Q5.2 5.35 7.3 4.2 L8.3 3.65 9.55 2.95 10.4 3.95 10.35 5.35 10.35 8.1 10.35 8.9 10.5 10.0 Q10.35 10.3 10.5 10.45 L10.35 11.35 10.95 12.15 11.9 13.1 11.75 13.35 7.3 13.75 0.85 9.2 0.8 9.15 2.05 11.5 0.9 11.95 1.8 18.8 1.7 18.85 1.5 19.05 1.15 18.2 0.05 16.45 Q0.0 15.35 -0.7 14.7 -1.2 14.2 -1.35 14.7 L-3.25 16.4 -5.0 18.0 -4.95 17.15 -4.65 13.1 Q-4.6 12.9 -4.8 12.9 L-4.8 12.75 -10.95 12.55 -10.0 11.1 Q-9.05 9.9 -9.0 9.4 L-9.0 9.0 Q-9.05 8.75 -9.2 8.9 L-8.85 3.25 Q-9.15 0.8 -9.05 -0.65 M8.65 5.3 L8.25 5.35 Q6.4 6.3 6.1 6.65 3.4 8.25 2.2 9.0 L2.8 9.4 4.65 10.0 8.95 11.35 Q8.8 9.9 9.05 7.0 L9.2 6.2 Q9.15 5.35 9.25 5.05 L8.65 5.2 8.65 5.3 M1.75 20.2 L2.55 19.25 4.65 16.65 5.35 18.15 Q6.5 19.8 7.1 20.0 L7.1 22.0 7.35 23.15 Q5.75 23.05 2.7 23.1 L1.8 23.1 -2.2 23.15 -3.75 23.15 -5.6 23.25 -5.1 22.0 Q-5.4 20.95 -5.3 20.0 L-5.05 19.65 -3.0 17.6 -1.25 15.75 Q-1.15 16.45 -0.25 17.85 0.95 20.15 1.35 20.25 L1.75 20.2 M-6.7 4.85 Q-7.55 4.5 -7.85 4.85 -7.7 5.55 -7.7 7.15 L-7.55 10.8 -7.3 10.6 -4.2 10.3 -0.65 9.25 -0.45 9.25 -0.1 8.9 -0.45 8.6 -6.7 4.85" fill="#dd8093" fill-rule="evenodd" stroke="none"/>
  </g>
</svg>
