<?xml version="1.0" encoding="UTF-8" standalone="no"?>
<svg xmlns:ffdec="https://www.free-decompiler.com/flash" xmlns:xlink="http://www.w3.org/1999/xlink" ffdec:objectType="shape" height="99.05px" width="35.1px" xmlns="http://www.w3.org/2000/svg">
  <g transform="matrix(1.0, 0.0, 0.0, 1.0, 15.85, 51.5)">
    <path d="M6.9 -29.7 L9.05 -25.45 Q9.95 -23.45 10.1 -21.05 L10.15 -16.8 Q10.15 -12.45 8.75 -1.0 L8.55 0.7 9.0 7.4 Q9.1 12.45 8.4 16.95 L7.55 16.0 Q6.3 15.1 4.75 15.45 0.6 16.4 0.6 23.45 L0.8 25.95 Q1.45 28.2 3.9 28.2 L5.55 27.85 5.05 29.5 Q4.2 31.65 2.55 31.65 0.8 31.65 -0.4 28.45 -2.6 27.8 -3.15 25.4 L-3.25 23.05 Q-4.8 19.45 -6.15 12.55 -4.85 12.1 -4.05 10.65 -3.25 9.2 -3.25 7.75 -3.25 3.7 -7.05 3.8 L-7.65 3.85 Q-8.85 -4.25 -9.45 -12.4 -9.45 -17.75 -7.95 -21.95 -6.45 -26.25 -3.6 -28.05 -3.05 -29.9 -0.6 -31.85 1.4 -33.4 1.95 -31.55 L2.7 -31.65 3.6 -31.35 4.0 -31.45 Q5.45 -31.6 6.9 -29.7" fill="#ffcc00" fill-opacity="0.23921569" fill-rule="evenodd" stroke="none"/>
    <path d="M0.25 -51.5 L0.45 -50.95 Q0.85 -49.7 1.4 -48.7 1.95 -47.65 2.5 -47.15 L3.6 -44.95 5.05 -42.15 Q6.3 -41.35 7.3 -39.75 L8.75 -36.55 9.65 -34.8 9.9 -33.2 10.05 -31.1 Q10.95 -31.35 12.05 -30.45 L14.5 -27.7 16.05 -24.2 Q16.4 -23.15 16.4 -21.25 L16.4 -19.5 15.75 -18.2 Q17.5 -17.05 18.45 -14.6 19.25 -12.5 19.25 -9.7 19.25 -8.0 18.1 -4.65 L17.0 -1.3 Q17.0 -0.8 17.5 1.05 18.0 2.85 18.0 4.4 18.0 6.3 17.25 9.1 L16.45 11.65 Q14.95 12.85 13.45 15.15 L12.55 16.6 Q7.5 21.75 4.95 29.05 3.35 33.7 1.85 44.55 L1.7 45.15 1.45 45.25 1.6 46.15 1.45 47.5 1.3 47.55 Q0.55 46.45 0.3 44.3 L-0.7 41.15 -2.1 35.75 Q-3.95 30.35 -6.45 25.5 -7.45 23.6 -8.35 20.4 L-9.8 15.3 Q-10.2 14.15 -12.4 10.25 -14.1 7.25 -14.1 5.05 L-13.65 3.0 -13.2 1.45 -14.4 -1.95 Q-15.3 -4.2 -15.55 -6.4 L-15.85 -8.3 Q-15.85 -10.15 -15.1 -11.8 L-14.85 -12.5 Q-13.45 -15.7 -13.0 -17.45 L-13.05 -22.1 Q-13.0 -23.6 -12.5 -24.6 L-12.5 -25.05 Q-12.0 -26.35 -10.95 -27.65 L-10.75 -27.85 -7.65 -31.4 -7.5 -31.7 -7.15 -32.0 -7.05 -32.0 -7.15 -33.05 Q-7.15 -36.0 -5.1 -39.0 L-3.9 -40.45 -3.2 -41.2 Q-1.95 -42.4 -1.85 -42.9 L-0.9 -46.35 Q0.2 -48.65 0.3 -49.95 L0.25 -51.5 M2.65 -29.1 Q-1.05 -29.1 -3.55 -24.8 L-5.4 -20.25 Q-7.15 -16.1 -7.15 -10.5 -7.15 -6.2 -6.0 -2.1 -4.85 1.95 -4.85 2.7 -4.85 3.45 -5.7 5.55 -6.55 7.65 -6.55 8.65 -6.55 10.75 -5.85 12.7 L-5.85 13.05 -5.15 15.3 -4.2 17.15 -3.35 18.4 -3.25 18.5 -2.9 18.9 -3.1 18.85 -2.0 21.6 -0.85 26.35 0.2 31.25 0.3 31.9 0.4 30.45 0.7 27.95 1.0 25.3 1.35 23.75 Q2.0 21.15 4.05 17.35 7.0 11.8 7.0 9.9 L6.5 8.3 Q6.0 7.15 6.0 6.6 L7.4 0.3 Q8.85 -6.45 8.85 -12.0 L8.4 -16.8 7.85 -20.9 Q7.35 -23.05 6.25 -25.3 L4.7 -27.5 Q3.35 -29.1 2.65 -29.1 M2.05 -21.55 Q1.7 -20.85 0.6 -20.25 L-0.15 -20.25 Q-2.0 -20.9 -2.0 -23.15 L-1.95 -24.15 -0.9 -25.25 1.05 -25.25 2.25 -24.05 2.3 -23.0 2.05 -21.55 M5.0 -17.65 L5.7 -16.7 5.35 -15.6 Q4.9 -14.85 4.25 -14.75 L3.6 -14.75 Q2.25 -15.5 2.25 -16.5 L2.45 -17.6 Q2.8 -18.4 4.1 -18.45 L5.0 -17.65 M7.55 -6.95 Q7.55 -4.8 6.15 -3.8 L5.1 -3.8 Q4.1 -4.05 3.6 -5.95 3.2 -7.3 3.2 -8.55 3.2 -12.55 5.4 -11.75 7.55 -11.0 7.55 -6.95 M-6.75 -31.05 L-6.8 -31.15 -6.8 -30.95 -6.75 -31.05 M-3.15 -15.65 Q-2.5 -17.05 -1.35 -16.7 -0.85 -16.4 -0.4 -15.4 L0.0 -14.25 Q0.0 -12.65 -1.5 -11.85 L-2.3 -11.85 Q-3.6 -12.6 -3.6 -13.8 L-3.15 -15.65 M-3.45 -8.85 Q-3.45 -7.7 -3.6 -7.2 -3.95 -6.0 -5.1 -6.0 -6.15 -6.0 -6.5 -7.5 L-6.65 -8.95 Q-6.65 -10.6 -5.05 -10.45 -3.45 -10.3 -3.45 -8.85" fill="#ff3838" fill-rule="evenodd" stroke="none"/>
  </g>
</svg>
