<?xml version="1.0" encoding="UTF-8" standalone="no"?>
<svg xmlns:ffdec="https://www.free-decompiler.com/flash" xmlns:xlink="http://www.w3.org/1999/xlink" ffdec:objectType="shape" height="143.85px" width="82.4px" xmlns="http://www.w3.org/2000/svg">
  <g transform="matrix(1.0, 0.0, 0.0, 1.0, 41.25, 88.25)">
    <path d="M2.2 -51.65 Q1.6 -50.5 1.6 -49.95 L1.65 -49.65 1.85 -49.95 Q2.6 -52.6 3.4 -52.6 3.75 -52.6 4.05 -52.15 5.65 -53.4 6.95 -53.25 8.55 -53.05 8.55 -50.7 L8.05 -49.1 8.2 -49.1 Q10.85 -49.1 11.6 -44.8 L11.8 -40.4 Q11.8 -36.7 9.35 -28.6 L9.0 -25.1 8.7 -22.2 Q10.05 -16.15 10.7 -9.6 10.2 -8.85 10.15 -8.05 L9.45 1.5 8.1 11.05 6.45 20.7 6.15 22.0 Q4.9 22.85 3.9 25.0 2.8 27.5 2.35 29.45 1.9 31.4 1.9 33.75 L2.35 36.15 2.4 36.2 1.45 38.9 1.35 39.05 0.95 39.6 Q-0.05 41.0 -0.8 41.0 L-1.95 40.8 -1.9 38.75 Q-1.9 31.25 -4.65 23.1 L-4.95 22.2 Q-6.3 13.75 -6.85 11.45 L-6.85 11.35 -7.0 8.85 -8.5 -6.45 Q-9.25 -13.6 -9.45 -18.45 L-10.05 -21.3 -11.1 -26.95 Q-8.95 -27.05 -7.8 -28.7 -6.85 -30.0 -6.85 -31.6 -6.85 -33.55 -8.15 -34.9 -9.3 -36.1 -10.95 -36.2 L-11.3 -36.2 -10.6 -42.15 Q-9.9 -47.7 -5.5 -50.05 L-4.8 -50.4 Q-3.65 -52.3 -1.25 -54.5 2.75 -58.15 2.75 -53.4 2.75 -52.85 2.2 -51.65" fill="#ffcc00" fill-opacity="0.23921569" fill-rule="evenodd" stroke="none"/>
    <path d="M1.5 -81.1 L4.5 -73.9 5.45 -70.35 Q6.15 -67.85 7.75 -66.6 9.3 -65.4 9.9 -63.2 10.6 -60.75 11.25 -59.7 11.95 -59.6 12.65 -59.1 13.75 -58.3 15.4 -56.15 17.9 -52.6 18.4 -51.0 L19.25 -47.3 20.5 -46.35 21.75 -44.15 Q22.05 -43.7 24.9 -42.25 L28.45 -40.25 Q31.25 -38.0 32.15 -35.9 32.9 -34.35 32.9 -31.85 L32.8 -28.75 Q32.55 -27.75 32.0 -27.1 34.9 -26.0 38.55 -21.7 40.75 -18.5 40.75 -14.35 L40.75 -14.2 Q41.15 -12.2 41.15 -10.7 41.15 -9.4 40.35 -7.3 L40.25 -6.95 Q39.9 -5.15 38.55 -2.9 L37.85 -1.8 37.2 -0.5 Q37.2 -0.05 38.6 1.65 40.0 3.3 40.0 4.8 40.0 5.9 39.25 7.2 38.35 8.75 37.1 9.05 35.4 9.5 34.45 9.9 33.7 10.95 33.45 12.3 L33.6 13.05 Q33.6 14.6 32.6 16.0 L32.45 16.3 Q31.5 17.95 29.85 18.4 27.5 19.05 25.4 20.2 L22.15 21.8 21.75 21.7 Q19.35 22.85 16.7 25.0 13.65 27.4 12.35 29.5 L6.85 38.25 4.75 41.6 Q4.15 42.95 3.9 44.1 3.4 45.8 3.05 48.35 L2.5 52.45 2.5 52.65 2.5 53.55 2.55 55.2 2.5 55.5 2.25 55.6 Q1.8 55.6 0.45 51.55 L-1.3 47.5 -1.45 47.05 -1.45 47.25 -4.75 41.7 Q-7.0 37.95 -9.1 35.1 L-9.3 35.1 -15.95 27.25 -19.55 23.45 Q-22.0 20.9 -22.7 19.5 -23.05 18.75 -23.05 17.6 L-23.35 15.5 Q-24.0 13.35 -26.95 11.5 -29.6 9.9 -31.05 7.9 -32.45 6.0 -32.45 4.25 -32.45 2.8 -32.1 1.9 -31.9 1.2 -31.45 0.95 -33.1 -0.3 -37.95 -4.9 -40.15 -7.15 -40.75 -8.1 -41.25 -9.15 -41.25 -11.15 -41.25 -16.7 -37.55 -19.35 L-35.05 -20.85 Q-33.9 -21.6 -33.9 -22.35 L-34.6 -24.85 Q-35.35 -27.1 -35.35 -28.75 -35.35 -32.8 -32.75 -35.9 -29.35 -40.0 -21.9 -41.5 -20.85 -41.95 -20.85 -43.9 -20.85 -44.7 -21.35 -46.6 L-21.85 -49.2 Q-21.85 -52.2 -20.15 -54.8 -18.65 -57.1 -16.4 -58.0 L-15.9 -58.35 -13.0 -60.2 -11.5 -60.8 -11.5 -61.1 -10.8 -62.8 Q-9.95 -64.2 -9.75 -64.9 L-9.5 -66.6 -9.1 -68.25 -6.45 -71.7 Q-4.7 -74.0 -5.15 -75.3 -5.7 -76.75 -5.4 -78.95 -5.15 -81.05 -4.4 -82.35 L-2.45 -86.15 Q-1.05 -88.3 0.7 -88.25 0.15 -85.1 1.5 -81.1 M3.85 -44.15 Q2.5 -46.15 0.8 -46.15 -2.45 -46.15 -4.15 -43.0 -5.4 -40.75 -5.4 -38.35 L-5.05 -35.8 -4.65 -34.0 -5.0 -33.45 -5.25 -34.0 -5.25 -33.8 Q-5.1 -33.65 -5.6 -33.65 L-7.45 -37.05 Q-9.1 -40.45 -11.3 -40.45 -14.05 -40.45 -15.35 -36.7 -16.0 -34.8 -16.15 -32.75 -16.15 -30.45 -14.5 -23.7 -14.1 -22.05 -12.7 -19.35 L-10.85 -15.7 -10.25 -14.85 -10.25 -14.7 Q-10.1 -14.6 -10.6 -14.6 -11.1 -14.6 -11.9 -15.55 L-13.15 -16.9 -14.2 -17.8 -15.45 -18.55 -16.85 -18.55 Q-19.0 -16.35 -19.75 -14.65 -20.5 -13.0 -20.5 -10.75 -20.5 -8.0 -19.95 -7.6 L-19.95 -7.55 Q-18.1 -4.9 -13.7 0.0 -13.6 -2.5 -11.95 -2.2 -10.25 -1.9 -10.25 -0.2 -10.25 0.2 -10.6 0.75 -11.15 1.5 -12.05 1.5 L-12.85 1.35 Q-13.05 1.65 -13.4 1.7 L-19.0 1.95 -19.6 3.35 -20.0 4.7 Q-20.0 7.4 -14.05 15.35 L-6.85 24.65 Q-2.55 31.55 0.4 39.55 1.1 36.95 2.5 33.1 5.15 25.6 6.0 24.3 8.55 20.5 17.15 15.1 23.75 10.95 23.75 6.45 L23.65 4.75 Q23.3 3.5 21.9 3.05 L19.05 3.05 14.4 4.05 14.25 3.9 13.9 4.95 Q13.3 5.85 11.95 5.85 10.65 5.85 10.1 4.05 L9.75 2.2 Q9.75 1.65 10.2 1.1 10.85 0.3 12.05 0.45 12.95 0.8 13.65 2.0 14.25 3.05 14.25 3.75 L14.25 3.9 14.75 3.7 14.75 3.6 14.7 3.6 Q14.55 3.9 14.55 3.15 L18.15 -0.5 21.5 -3.9 22.65 -6.35 22.5 -7.05 20.85 -10.85 18.8 -10.9 Q18.15 -11.05 18.15 -11.75 21.65 -18.5 21.65 -21.25 L21.15 -23.85 Q20.55 -26.2 19.7 -26.95 16.9 -26.55 15.85 -24.85 15.15 -23.05 14.55 -22.65 14.0 -22.8 14.0 -23.5 14.0 -24.1 14.7 -26.95 L15.45 -29.9 15.5 -33.15 15.5 -34.3 14.9 -36.35 Q14.35 -38.4 12.9 -38.4 10.2 -38.4 8.95 -36.8 8.4 -36.1 7.35 -33.1 L7.3 -32.75 6.8 -32.6 Q6.05 -34.0 5.75 -35.95 L5.4 -39.45 Q5.1 -42.2 3.85 -44.15 M8.55 -26.85 Q10.4 -26.85 11.15 -24.7 L11.6 -22.35 Q11.6 -21.3 11.1 -20.25 10.25 -18.6 8.35 -18.6 6.45 -18.6 6.05 -19.6 5.85 -20.1 5.9 -20.9 L5.45 -22.15 5.25 -23.05 Q5.25 -24.15 5.75 -25.15 6.6 -26.85 8.55 -26.85 M3.9 -32.55 Q3.9 -31.55 3.3 -30.15 2.4 -28.1 0.8 -28.1 -1.55 -28.1 -2.75 -30.0 -3.45 -31.15 -3.45 -32.1 -3.45 -34.1 -3.0 -35.25 L-2.15 -37.0 Q-1.75 -37.65 -0.9 -37.65 L0.5 -37.95 Q2.6 -37.95 3.45 -35.3 L3.9 -32.55 M0.3 -18.8 L-0.3 -18.8 Q-1.5 -19.05 -1.5 -21.9 -1.5 -23.35 0.25 -23.15 1.95 -22.95 1.95 -21.15 L1.85 -20.1 0.3 -18.8 M4.95 -16.2 L5.85 -15.3 5.9 -14.55 5.55 -13.2 Q5.1 -12.15 4.4 -12.15 2.7 -12.15 2.7 -13.8 2.7 -14.8 2.95 -15.4 3.45 -16.75 4.95 -16.2 M3.0 -7.8 Q3.0 -9.85 5.4 -9.25 7.8 -8.65 7.8 -6.0 7.8 -5.25 7.4 -4.55 6.8 -3.5 5.6 -3.5 2.95 -3.5 3.6 -7.4 3.0 -7.3 3.0 -7.8 M10.7 -6.55 L10.9 -6.4 10.7 -6.45 10.7 -6.55 M12.5 -8.25 L11.75 -8.25 Q10.95 -8.2 10.4 -9.7 9.9 -10.85 9.9 -11.65 9.9 -13.65 11.9 -13.15 13.85 -12.65 13.85 -10.35 L13.8 -9.3 Q13.6 -8.85 12.5 -8.25 M11.2 15.6 Q10.7 14.75 10.7 14.3 10.7 11.55 13.0 11.55 15.3 11.55 15.3 14.1 L14.85 15.65 Q14.2 16.85 13.15 16.85 11.95 16.85 11.2 15.6 M-9.55 -59.5 L-9.6 -59.55 -9.75 -59.45 -9.55 -59.5 M-21.6 -10.5 L-21.6 -10.65 -21.55 -11.75 -21.8 -11.15 -21.6 -10.5 M-2.05 -14.6 Q-0.3 -14.3 -0.3 -12.15 L-0.35 -11.25 -1.5 -10.25 -2.45 -10.25 Q-3.4 -10.95 -3.5 -11.75 L-3.8 -13.1 Q-3.8 -14.95 -2.05 -14.6 M-7.85 -18.35 Q-9.65 -18.35 -10.2 -20.65 -10.5 -21.8 -10.4 -22.85 -10.4 -26.15 -7.4 -25.55 -4.4 -24.95 -4.4 -21.45 -4.4 -20.5 -5.05 -19.6 -6.05 -18.35 -7.85 -18.35 M-10.65 -8.6 Q-8.85 -8.15 -8.85 -6.5 -8.85 -5.5 -10.35 -4.65 L-11.3 -4.65 Q-11.9 -4.7 -12.25 -6.0 L-12.5 -7.6 Q-12.5 -9.05 -10.65 -8.6 M-3.6 -7.05 Q-3.6 -6.35 -4.0 -5.45 -4.5 -4.4 -5.15 -4.4 -6.1 -4.4 -6.45 -5.9 L-6.3 -7.2 -6.3 -7.4 -6.3 -7.45 -6.5 -7.9 Q-6.5 -8.95 -5.05 -8.55 -3.6 -8.2 -3.6 -7.05 M-9.3 10.95 Q-9.95 12.0 -11.1 12.0 -12.8 12.0 -12.9 9.75 -12.9 7.15 -10.85 7.25 -8.85 7.35 -8.85 9.5 -8.85 10.2 -9.3 10.95" fill="#ff3838" fill-rule="evenodd" stroke="none"/>
  </g>
</svg>
