<?xml version="1.0" encoding="UTF-8" standalone="no"?>
<svg xmlns:ffdec="https://www.free-decompiler.com/flash" xmlns:xlink="http://www.w3.org/1999/xlink" ffdec:objectType="shape" height="161.55px" width="136.5px" xmlns="http://www.w3.org/2000/svg">
  <g transform="matrix(1.0, 0.0, 0.0, 1.0, 63.2, 120.4)">
    <path d="M6.9 -102.6 Q10.9 -102.6 13.5 -93.75 15.3 -87.55 15.3 -84.3 15.3 -78.9 13.05 -69.1 10.8 -59.3 10.8 -49.15 L11.8 -24.2 11.6 -15.15 Q10.2 -14.45 9.15 -12.05 L9.15 4.6 5.4 17.05 Q3.7 17.4 2.55 18.95 0.95 21.1 0.95 24.75 L1.4 27.2 1.85 28.0 Q-0.1 34.95 -0.45 41.15 -2.6 39.75 -3.7 32.05 L-5.15 17.25 -6.0 5.0 -6.75 -7.1 Q-7.1 -12.15 -7.8 -19.3 L-8.65 -27.7 Q-5.6 -28.9 -5.6 -33.35 -5.6 -36.65 -7.25 -38.35 -8.55 -39.7 -10.4 -39.6 L-11.25 -43.55 Q-12.85 -50.9 -12.85 -55.65 L-13.6 -64.9 -14.4 -75.95 -13.2 -88.6 Q-11.2 -100.8 -6.9 -100.8 -5.5 -100.8 -4.6 -100.25 -3.35 -100.35 -2.0 -99.7 -0.35 -98.8 0.25 -97.1 L0.7 -94.3 1.3 -97.35 Q2.1 -99.4 3.8 -99.95 4.05 -102.6 6.9 -102.6" fill="#ffcc00" fill-opacity="0.23921569" fill-rule="evenodd" stroke="none"/>
    <path d="M0.5 -118.95 L0.5 -118.8 1.0 -118.35 1.15 -118.4 6.1 -113.3 Q9.1 -110.05 13.95 -108.15 25.85 -103.6 25.75 -97.9 L25.75 -97.8 Q28.55 -98.1 31.8 -96.15 34.1 -94.85 38.0 -91.9 40.45 -89.0 41.1 -87.6 41.85 -86.0 41.85 -83.55 L41.75 -81.25 Q41.55 -80.45 40.55 -79.0 45.15 -79.65 47.65 -76.55 49.65 -74.15 49.6 -71.45 49.6 -70.3 48.9 -68.65 L48.65 -68.1 50.8 -67.75 Q54.15 -66.8 55.65 -65.45 57.6 -63.4 57.55 -60.15 L57.35 -58.2 Q57.1 -57.25 56.15 -56.75 L56.15 -56.55 56.0 -55.85 56.4 -55.3 57.55 -56.0 61.2 -56.0 Q63.6 -56.05 65.55 -52.85 67.25 -50.1 67.2 -48.2 L67.15 -46.55 66.75 -45.6 Q69.65 -46.45 71.55 -43.95 73.25 -41.65 73.2 -39.05 73.2 -37.7 72.5 -36.0 L70.9 -32.75 Q72.75 -31.45 73.05 -30.6 L73.2 -28.35 Q73.05 -21.95 67.05 -14.85 L63.6 -9.7 Q58.35 -2.0 56.2 0.5 55.2 0.25 55.2 -0.65 L58.05 -5.65 Q60.9 -10.35 61.0 -13.5 L60.9 -15.75 Q60.7 -17.0 59.6 -18.0 L58.15 -17.95 56.5 -16.6 Q55.65 -17.25 55.65 -17.55 55.65 -18.4 56.3 -20.0 L56.9 -22.45 Q56.95 -27.15 53.75 -27.15 48.65 -27.15 46.3 -23.5 L45.95 -22.65 46.0 -22.6 Q45.15 -20.3 45.3 -18.45 L44.5 -18.25 Q44.0 -18.6 43.8 -19.1 L43.7 -19.15 43.65 -19.5 43.6 -20.3 43.7 -22.45 Q43.4 -23.8 43.45 -26.7 43.55 -31.55 45.8 -35.3 48.0 -39.1 48.05 -40.0 48.1 -42.65 46.85 -44.75 44.55 -48.65 38.8 -47.75 37.85 -48.1 37.9 -49.4 L38.5 -51.45 39.0 -53.25 Q39.05 -54.6 38.45 -55.4 L35.9 -57.7 Q30.75 -57.9 30.05 -58.5 30.25 -59.25 30.0 -59.75 L30.25 -60.35 30.4 -60.35 29.4 -67.2 Q28.7 -72.6 26.6 -76.0 24.35 -80.0 20.2 -83.8 11.9 -91.35 1.85 -91.35 -6.4 -91.35 -14.3 -87.75 L-14.05 -87.75 -13.65 -87.75 -16.85 -86.4 -18.1 -85.8 -18.45 -85.6 -18.8 -85.4 -19.2 -85.2 -22.8 -82.85 -23.1 -82.6 -23.15 -82.6 Q-26.2 -80.45 -27.6 -78.65 -28.4 -77.35 -28.65 -75.65 -29.9 -69.8 -30.45 -69.2 -31.15 -68.45 -36.05 -67.15 L-37.1 -66.4 -37.05 -66.35 -37.1 -66.35 Q-41.6 -62.85 -41.75 -57.0 L-42.2 -56.85 -42.75 -57.5 Q-42.45 -55.25 -40.5 -50.95 L-38.15 -46.0 -38.35 -45.25 Q-38.25 -45.0 -39.15 -45.0 -41.65 -46.0 -41.9 -46.0 -43.0 -46.0 -43.25 -44.45 L-43.25 -42.8 Q-43.3 -41.2 -42.65 -39.6 L-42.05 -37.75 Q-42.05 -37.15 -42.15 -37.25 -42.05 -37.1 -42.3 -37.05 L-41.5 -35.15 -40.45 -33.75 -40.5 -33.3 -40.55 -32.2 Q-40.8 -31.7 -41.7 -31.7 -42.15 -31.7 -44.2 -33.2 -46.25 -34.7 -47.25 -34.7 -50.15 -34.7 -51.0 -32.3 -51.45 -31.1 -51.25 -29.8 -51.3 -27.05 -49.4 -22.7 L-47.55 -18.55 Q-47.55 -17.9 -47.85 -17.7 -47.5 -17.5 -48.35 -17.5 L-49.9 -18.5 Q-51.5 -19.5 -52.5 -19.5 -53.3 -18.1 -53.3 -16.95 -53.35 -13.8 -49.25 -8.4 -47.3 -5.7 -45.25 -3.6 L-45.3 -3.25 -45.4 -3.0 -46.05 -2.9 Q-47.0 -2.9 -50.3 -5.85 L-54.8 -10.35 Q-58.35 -14.65 -59.4 -17.65 L-62.25 -25.65 Q-63.25 -28.6 -63.2 -32.45 -63.1 -36.65 -62.1 -39.55 L-61.5 -41.15 Q-61.3 -44.1 -58.4 -47.75 -55.4 -51.6 -55.4 -52.3 -55.4 -53.3 -56.85 -54.7 -58.4 -56.05 -58.35 -57.7 -58.3 -60.65 -55.05 -65.45 -51.6 -70.7 -47.75 -72.25 -38.6 -76.0 -37.2 -78.85 -36.6 -79.95 -36.75 -81.85 L-36.95 -85.6 Q-36.9 -88.5 -34.0 -90.55 -32.45 -91.65 -27.75 -93.65 -23.4 -95.5 -21.55 -97.0 -18.75 -99.35 -18.75 -102.75 -19.9 -104.75 -15.9 -107.3 L-8.45 -111.2 Q-5.25 -112.8 -3.05 -115.95 -1.8 -117.6 0.0 -120.4 L0.5 -118.95 M3.05 -91.1 L5.5 -90.9 3.0 -91.05 3.05 -91.1 M0.55 -64.7 Q-0.05 -63.85 -1.4 -63.85 -2.85 -63.85 -3.4 -65.1 L-3.7 -66.25 Q-3.7 -70.9 -1.35 -70.5 0.9 -70.15 0.9 -66.15 0.9 -65.3 0.55 -64.7 M4.5 -40.65 Q4.5 -44.9 7.15 -44.25 8.15 -44.0 8.9 -42.95 9.75 -41.85 9.75 -40.5 9.75 -39.4 9.35 -38.9 8.75 -37.95 6.75 -37.95 5.05 -37.95 4.6 -39.35 4.4 -40.0 4.5 -40.65 M2.65 -25.8 Q1.9 -23.95 0.15 -23.95 -1.8 -23.95 -2.6 -25.65 -3.0 -26.5 -3.0 -27.35 L-2.85 -28.4 -2.6 -29.5 -1.05 -31.0 Q-0.6 -31.4 0.05 -31.4 1.8 -31.4 2.6 -29.75 L3.05 -27.9 Q3.05 -26.8 2.65 -25.8 M10.7 -14.15 Q9.7 -12.75 7.9 -12.75 6.65 -12.75 6.05 -14.3 5.75 -15.05 5.7 -15.9 5.7 -19.6 8.55 -19.2 11.4 -18.8 11.4 -16.1 11.4 -15.15 10.7 -14.15 M0.9 -13.0 Q0.9 -11.75 -0.1 -11.75 -0.85 -11.75 -0.75 -11.9 L-0.8 -12.05 -0.9 -12.55 -0.6 -13.55 Q-0.15 -14.1 0.75 -13.7 L0.9 -13.0 M9.85 -2.6 Q9.85 -3.65 10.25 -4.45 10.7 -5.4 11.35 -5.45 13.85 -5.7 13.85 -2.8 L13.65 -1.7 Q13.2 -0.9 11.8 -0.9 10.4 -0.9 10.0 -1.75 9.8 -2.15 9.85 -2.6 M5.25 -6.75 Q5.25 -5.55 4.35 -5.55 L3.8 -5.6 3.75 -5.5 3.65 -6.0 Q3.65 -6.75 4.7 -7.35 L5.15 -7.25 5.25 -6.75 M32.65 -1.9 Q35.1 -1.35 35.1 0.85 35.1 3.1 33.15 3.75 31.15 3.45 30.45 1.5 30.1 0.55 30.15 -0.25 30.15 -2.45 32.65 -1.9 M23.9 -20.5 Q24.9 -22.95 28.2 -22.35 30.9 -20.8 30.9 -17.25 30.9 -15.9 30.3 -15.0 29.4 -13.7 27.45 -13.7 25.4 -13.7 24.2 -15.45 23.65 -16.35 23.45 -17.25 23.45 -19.5 23.9 -20.5 M66.45 -2.5 Q73.4 -3.1 73.3 1.25 73.25 4.3 70.05 6.65 66.85 8.9 60.2 10.85 61.15 11.3 61.35 11.85 L61.4 12.6 Q61.3 15.9 52.75 18.45 40.0 22.25 38.0 23.3 34.5 25.1 30.25 28.8 L36.8 20.8 Q39.85 19.1 45.3 16.5 52.05 13.3 52.1 11.1 L50.95 9.65 57.65 6.4 Q64.4 3.15 64.4 1.5 64.45 1.1 63.05 0.5 L61.4 0.0 60.35 0.25 59.65 0.6 59.45 0.5 59.4 0.05 Q59.4 -0.6 61.55 -1.45 63.9 -2.25 66.45 -2.5 M25.7 11.8 Q25.7 11.2 26.25 10.75 27.0 10.1 28.4 10.35 29.05 10.55 29.6 11.25 L30.05 12.45 29.9 14.15 Q29.55 15.15 28.2 15.9 L27.0 15.9 Q25.8 15.1 25.8 14.55 L26.1 13.65 26.4 12.75 Q26.4 12.4 26.05 12.3 25.7 12.2 25.7 11.8 M13.2 9.75 Q13.6 10.4 13.6 11.05 13.6 12.7 11.75 12.7 10.55 12.7 10.15 11.95 L10.0 11.15 Q10.0 10.55 10.35 9.85 10.75 9.0 11.35 8.85 12.6 8.65 13.2 9.75 M6.3 2.05 Q6.15 2.4 5.4 2.4 L4.9 2.35 4.95 2.25 4.75 2.2 4.7 1.7 Q4.7 1.2 5.0 0.9 5.45 0.4 6.3 0.75 L6.45 1.4 6.45 1.85 6.3 2.05 M11.0 22.9 L10.95 22.2 Q10.95 19.75 12.7 19.6 14.45 19.4 14.45 21.8 14.45 22.8 12.65 23.7 L11.75 23.7 Q11.15 23.4 11.0 22.9 M-51.05 -1.2 L-50.9 -1.15 -50.7 -1.15 Q-44.95 -1.1 -44.95 0.5 -44.95 0.85 -45.55 1.2 -46.4 1.8 -48.4 1.7 L-49.45 2.3 -44.5 6.25 Q-40.15 9.75 -40.2 10.65 L-43.75 11.65 Q-47.3 12.55 -47.35 14.45 -47.4 16.35 -42.25 20.9 -41.05 23.0 -37.5 26.6 L-33.15 30.95 -34.8 29.65 Q-40.95 24.05 -42.3 23.25 -49.5 19.35 -51.85 17.65 -55.75 14.95 -55.7 12.0 -55.7 10.9 -54.9 10.15 -53.6 9.1 -50.15 8.1 L-54.8 5.8 Q-57.2 4.65 -57.15 3.0 -57.15 1.8 -56.35 0.9 -55.75 -0.9 -52.1 -1.1 L-51.05 -1.2 M-4.75 -44.25 Q-6.8 -44.25 -7.35 -45.65 -7.65 -46.35 -7.55 -47.1 -7.55 -51.85 -4.55 -50.75 -3.4 -50.35 -2.5 -49.2 -1.55 -48.05 -1.55 -46.9 -1.55 -45.95 -2.25 -45.2 -3.1 -44.25 -4.75 -44.25 M-20.9 -26.75 Q-19.65 -26.65 -18.7 -25.55 -17.65 -24.4 -17.65 -22.7 -17.65 -21.8 -18.45 -20.45 -19.55 -18.75 -21.0 -18.75 -22.1 -18.75 -22.8 -19.2 -23.45 -19.6 -23.8 -20.35 -24.2 -21.15 -24.2 -21.95 -24.2 -25.25 -22.8 -26.25 -22.05 -26.85 -20.9 -26.75 M-29.15 -14.8 Q-29.55 -14.0 -31.5 -12.95 L-33.45 -12.95 Q-34.5 -13.6 -35.2 -15.5 -35.75 -16.95 -35.75 -17.85 -35.75 -18.7 -34.65 -19.5 -33.3 -20.45 -31.2 -20.4 -29.45 -19.1 -29.15 -18.35 -29.0 -18.05 -29.0 -16.6 -29.0 -15.1 -29.15 -14.8 M-20.55 -0.75 Q-20.55 0.45 -20.75 0.75 L-22.95 2.65 Q-25.0 2.2 -25.4 1.8 L-25.55 0.7 -25.25 -1.85 Q-24.65 -3.3 -22.65 -3.5 L-21.3 -2.1 Q-20.55 -1.1 -20.55 -0.75 M-5.5 -15.35 Q-5.5 -12.9 -7.65 -12.9 -9.25 -12.9 -9.95 -14.6 L-10.3 -16.3 Q-10.3 -18.7 -7.9 -18.65 -5.5 -18.65 -5.5 -15.35 M-1.8 -6.3 Q-1.65 -6.4 -1.65 -5.65 -1.65 -4.55 -2.55 -4.55 -3.6 -4.55 -3.6 -5.5 L-3.2 -6.25 -1.8 -6.3 M-6.65 1.65 L-6.75 1.2 Q-6.75 0.6 -5.85 0.25 L-4.65 0.15 Q-4.5 -0.1 -4.5 0.65 -4.5 1.3 -5.0 1.65 L-5.8 1.9 -6.5 1.75 Q-6.5 1.7 -6.65 1.65 M-13.7 7.8 L-13.75 7.0 Q-13.75 5.1 -12.15 5.35 -10.55 5.6 -10.55 7.25 -10.55 7.65 -10.85 8.0 -11.25 8.55 -12.1 8.55 -13.4 8.55 -13.7 7.8 M-12.35 1.15 Q-12.35 -1.1 -10.8 -0.9 -9.3 -0.7 -9.3 1.2 -9.3 3.0 -10.8 3.0 -11.85 3.0 -12.2 2.1 L-12.35 1.15 M-10.9 15.2 Q-9.3 15.05 -9.3 17.15 L-9.4 18.1 Q-9.65 18.75 -10.65 18.75 -11.9 18.75 -12.35 17.9 L-12.55 16.95 Q-12.55 15.3 -10.9 15.2 M-29.9 12.15 L-30.0 11.55 Q-28.25 9.85 -26.9 11.3 -25.8 12.45 -25.8 13.8 -25.8 15.15 -27.05 15.5 -29.9 15.45 -29.9 14.0 L-29.65 13.4 -29.15 12.75 -29.0 12.35 -29.9 12.15" fill="#ff7b3a" fill-rule="evenodd" stroke="none"/>
  </g>
</svg>
