<?xml version="1.0" encoding="UTF-8" standalone="no"?>
<svg xmlns:ffdec="https://www.free-decompiler.com/flash" xmlns:xlink="http://www.w3.org/1999/xlink" ffdec:objectType="shape" height="184.0px" width="210.5px" xmlns="http://www.w3.org/2000/svg">
  <g transform="matrix(1.0, 0.0, 0.0, 1.0, 116.25, 170.0)">
    <path d="M7.3 -112.75 Q27.15 -112.75 33.1 -119.4 34.05 -120.5 36.6 -125.0 38.45 -128.25 41.0 -129.5 42.25 -129.0 42.7 -128.5 43.5 -127.65 43.5 -126.0 43.5 -123.95 42.4 -119.75 41.0 -114.35 40.5 -111.0 39.9 -107.1 38.55 -102.9 37.5 -99.8 37.5 -97.1 37.5 -93.5 37.75 -93.0 38.75 -91.0 43.35 -91.0 49.35 -91.0 62.1 -99.75 L70.6 -105.75 Q74.55 -108.5 75.5 -108.5 78.0 -108.5 78.0 -108.0 L78.25 -107.55 78.5 -105.75 Q78.5 -104.35 72.85 -95.25 67.1 -86.05 59.8 -75.75 53.7 -67.15 49.05 -61.25 L48.15 -59.4 Q43.75 -50.35 43.75 -43.65 L44.2 -43.3 Q44.75 -42.65 44.95 -41.65 L45.05 -41.65 47.5 -41.0 57.25 -41.0 61.75 -44.0 Q64.3 -45.5 66.5 -45.5 69.65 -45.5 71.3 -44.05 72.5 -42.95 72.5 -41.75 72.5 -39.65 69.85 -37.2 L64.0 -32.6 Q55.5 -25.95 55.5 -19.25 55.5 -18.25 57.5 -17.65 L68.0 -15.0 68.25 -14.55 68.5 -12.75 Q68.5 -10.45 41.7 -0.6 L11.0 10.5 9.5 9.9 Q-0.45 14.0 -4.0 14.0 -17.4 14.0 -24.45 11.45 -29.6 9.65 -31.0 6.55 L-54.65 -1.3 Q-84.5 -11.85 -84.5 -15.6 -84.5 -16.6 -82.15 -18.25 L-77.0 -21.7 Q-69.5 -26.9 -69.5 -32.0 L-70.05 -39.0 Q-71.2 -42.85 -73.1 -46.6 L-78.2 -55.75 Q-81.9 -62.25 -84.5 -67.75 L-79.8 -67.4 Q-78.4 -66.75 -78.25 -66.75 -71.15 -66.75 -64.75 -71.8 -59.5 -75.9 -59.5 -77.75 -59.5 -90.3 -72.0 -118.75 -78.25 -133.0 -84.5 -144.5 -84.5 -149.35 -77.8 -144.6 -73.1 -141.25 -62.3 -130.75 -48.4 -117.3 -44.95 -114.25 -35.95 -106.25 -32.75 -106.25 -18.35 -106.25 -15.75 -116.95 -14.95 -120.15 -14.95 -126.3 -14.95 -132.65 -14.5 -134.75 L-13.9 -135.1 Q-13.45 -135.5 -12.0 -135.5 -9.8 -135.5 -1.4 -124.05 L-0.35 -122.8 Q4.5 -116.9 6.05 -114.25 L7.3 -112.75 M-73.45 -61.1 L-73.75 -61.0 -73.65 -60.8 -73.45 -61.1" fill="#ffffff" fill-rule="evenodd" stroke="none"/>
    <path d="M82.25 -109.75 Q82.25 -105.8 76.8 -97.65 74.15 -93.7 64.75 -81.4 56.35 -70.45 52.7 -64.45 47.25 -55.45 47.25 -50.1 47.25 -48.75 47.4 -47.8 L58.25 -53.9 Q82.85 -67.05 94.25 -68.25 L63.85 -52.05 Q55.7 -47.85 48.7 -44.55 L49.25 -43.75 54.15 -43.75 Q62.8 -48.85 67.25 -48.25 L63.05 -45.4 64.0 -45.25 69.8 -46.2 Q75.15 -47.3 78.0 -48.25 L78.85 -48.05 80.25 -47.25 78.25 -45.8 78.25 -45.75 67.75 -34.65 Q57.25 -23.8 57.25 -21.35 57.25 -19.8 57.4 -19.1 L57.5 -18.75 66.75 -19.1 77.5 -20.0 77.9 -20.2 Q78.25 -20.05 78.25 -18.5 78.25 -17.8 72.0 -15.75 L70.5 -15.25 Q73.5 -15.5 76.25 -15.25 67.6 -10.55 50.75 -3.35 35.4 3.15 27.0 6.0 L26.4 6.5 Q25.75 6.65 25.75 5.1 25.75 3.75 30.95 0.2 36.35 -3.5 43.8 -7.05 53.7 -11.75 61.9 -13.8 L54.25 -14.0 Q53.2 -15.05 52.95 -15.85 52.75 -16.5 52.75 -18.5 52.75 -24.65 60.65 -33.55 64.0 -37.35 68.05 -40.85 L65.9 -40.05 Q56.6 -36.75 52.0 -36.75 L48.7 -36.85 47.45 -36.95 47.2 -36.85 47.0 -36.6 46.9 -36.7 Q43.05 -34.95 40.25 -34.0 L39.75 -34.75 46.85 -38.95 Q43.9 -39.55 43.0 -41.9 L36.25 -39.0 36.0 -38.8 Q35.75 -38.95 35.75 -40.5 35.75 -40.8 42.35 -44.8 L42.55 -44.9 42.75 -46.5 42.75 -46.9 Q41.75 -48.65 41.75 -50.0 41.75 -54.7 59.55 -81.35 69.3 -96.0 75.3 -104.1 L70.5 -100.35 Q64.35 -95.75 58.7 -93.0 L57.85 -92.55 57.3 -92.35 Q49.8 -89.0 43.35 -89.0 41.65 -89.0 41.2 -89.85 40.75 -90.55 41.25 -91.25 L38.75 -93.5 Q38.45 -93.5 38.3 -92.35 L38.25 -91.25 Q38.0 -90.5 37.0 -90.0 35.75 -92.75 35.75 -99.5 35.75 -110.0 38.15 -121.7 L38.95 -125.1 34.7 -120.65 Q29.15 -115.25 24.05 -112.55 L18.0 -104.0 16.75 -104.5 20.5 -110.95 Q17.15 -109.75 14.0 -109.75 L12.05 -109.95 9.0 -104.75 7.25 -105.0 7.0 -104.6 Q6.75 -104.55 6.75 -106.1 6.75 -107.05 8.6 -111.1 -0.9 -115.75 -13.05 -136.0 -12.75 -133.95 -12.75 -130.85 -12.75 -119.7 -13.75 -115.5 -16.85 -102.0 -28.1 -102.0 -35.35 -102.0 -60.65 -123.9 L-84.6 -145.1 Q-78.8 -138.6 -70.85 -122.05 -66.5 -113.0 -63.7 -105.65 -56.8 -98.65 -52.0 -94.5 L-51.75 -93.75 Q-51.6 -93.55 -51.75 -93.35 -52.05 -93.0 -53.6 -93.0 -55.55 -93.0 -61.15 -98.1 -60.05 -94.5 -59.45 -91.4 -53.75 -87.0 -50.75 -85.25 L-50.75 -83.75 Q-50.45 -83.55 -50.5 -83.35 -50.55 -83.0 -52.1 -83.0 -54.45 -83.0 -58.75 -85.55 L-58.75 -84.75 Q-58.75 -76.7 -61.7 -72.0 -66.75 -64.0 -79.7 -62.9 -77.75 -59.85 -76.25 -56.25 -75.3 -54.75 -71.65 -45.6 L-68.95 -38.35 -60.75 -33.25 Q-61.15 -32.05 -62.0 -31.75 -63.1 -32.3 -68.0 -35.25 L-67.75 -33.75 Q-67.75 -32.7 -68.05 -31.7 -67.75 -30.05 -67.75 -28.6 L-67.85 -28.0 -61.75 -25.25 -61.55 -24.2 Q-61.5 -23.75 -63.0 -23.75 -64.45 -23.75 -69.45 -25.7 L-71.85 -23.35 Q-61.85 -19.9 -58.75 -18.0 -58.75 -16.6 -60.0 -16.0 -63.6 -18.05 -74.15 -21.5 -78.3 -18.3 -82.0 -16.75 L-83.75 -16.25 -56.1 -5.4 Q-43.45 -0.15 -35.75 6.0 -35.75 7.4 -37.0 8.0 -45.85 4.15 -61.65 -1.7 -81.35 -8.95 -85.25 -10.5 -85.25 -11.85 -82.75 -12.5 -84.75 -13.5 -90.75 -15.0 L-91.0 -14.6 Q-91.25 -14.55 -91.25 -16.1 -91.25 -17.65 -88.45 -19.25 L-82.25 -22.25 -80.1 -23.4 -86.0 -25.2 Q-106.75 -31.35 -116.25 -36.75 L-88.3 -28.65 -77.4 -25.2 Q-75.85 -26.5 -74.85 -27.85 L-77.0 -28.8 Q-90.0 -34.35 -91.25 -37.75 -90.1 -37.65 -77.55 -32.25 L-73.55 -30.5 Q-73.25 -31.55 -73.25 -32.6 -73.25 -35.25 -74.3 -39.1 L-82.15 -43.95 Q-96.0 -52.5 -106.25 -56.0 L-106.65 -57.5 -107.25 -59.0 Q-100.2 -58.05 -84.15 -48.2 L-75.65 -42.65 Q-78.25 -47.95 -81.4 -52.35 -83.0 -53.25 -84.75 -53.0 L-85.7 -55.25 Q-86.25 -56.6 -86.25 -57.5 L-85.4 -57.3 -89.95 -61.85 -91.1 -62.95 -91.75 -63.0 -92.15 -64.15 -92.25 -64.5 -92.25 -65.35 -92.25 -66.0 -92.2 -66.0 Q-91.75 -75.55 -85.35 -69.65 L-83.6 -67.9 Q-72.2 -67.55 -67.3 -75.85 -64.25 -80.95 -64.25 -87.6 L-64.45 -89.45 -70.25 -94.05 Q-77.4 -100.0 -88.25 -110.0 L-88.0 -110.75 Q-80.1 -108.05 -69.4 -99.3 L-66.75 -97.15 -71.1 -108.15 -75.25 -112.6 -102.25 -142.75 -102.2 -143.2 -101.75 -144.0 Q-93.15 -137.2 -77.8 -120.5 L-75.45 -117.95 Q-81.3 -130.95 -90.25 -149.25 -89.15 -149.0 -87.95 -148.15 L-93.25 -153.0 -92.55 -153.8 Q-92.0 -154.15 -92.0 -154.25 -88.2 -152.05 -78.3 -144.1 L-59.4 -128.8 Q-34.1 -108.75 -26.5 -108.75 -19.4 -108.75 -16.8 -119.85 -15.75 -124.45 -15.0 -137.75 L-14.15 -137.85 -16.25 -141.5 -16.2 -142.85 Q-16.1 -142.6 -16.0 -142.75 -11.9 -142.1 -1.7 -128.65 7.05 -117.15 10.8 -115.7 13.25 -120.75 17.25 -128.35 28.2 -149.3 35.5 -160.0 L23.3 -132.6 Q19.05 -123.15 15.1 -115.55 L19.75 -115.75 25.55 -120.05 Q31.0 -129.3 35.5 -133.0 33.9 -129.1 31.5 -124.6 L32.7 -125.6 41.5 -132.2 Q44.0 -136.8 47.25 -135.25 L42.8 -118.5 Q39.25 -104.5 39.25 -99.6 39.25 -97.2 39.5 -96.25 40.25 -93.5 42.75 -93.5 47.75 -93.5 53.85 -95.75 L62.5 -102.55 Q77.1 -113.1 86.5 -116.0 L87.25 -115.25 85.2 -113.3 85.25 -113.25 82.25 -110.3 82.25 -109.75 M-69.2 -169.2 L-68.75 -170.0 Q-64.6 -164.8 -55.05 -150.7 -44.85 -135.65 -40.75 -130.25 -41.15 -129.05 -42.0 -128.75 L-56.4 -148.4 Q-65.3 -160.65 -69.25 -168.75 L-69.2 -169.2 M-44.5 -149.0 L-39.1 -139.7 Q-36.15 -134.55 -32.75 -131.0 L-33.0 -130.55 -34.0 -129.75 Q-37.95 -132.75 -41.05 -138.15 L-46.25 -147.25 -46.0 -148.75 -44.5 -149.0 M-82.0 -11.75 Q-78.5 -11.0 -77.25 -10.5 L-76.25 -10.75 -79.25 -11.45 -82.25 -12.0 -82.0 -11.75" fill="#ffcc33" fill-rule="evenodd" stroke="none"/>
  </g>
</svg>
