<?xml version="1.0" encoding="UTF-8" standalone="no"?>
<svg xmlns:ffdec="https://www.free-decompiler.com/flash" xmlns:xlink="http://www.w3.org/1999/xlink" ffdec:objectType="shape" height="18.75px" width="2.2px" xmlns="http://www.w3.org/2000/svg">
  <g transform="matrix(1.0, 0.0, 0.0, 1.0, 1.1, 17.75)">
    <path d="M0.25 -16.65 L0.3 -15.95 0.4 -15.6 0.6 -13.8 1.05 -11.05 1.1 -10.8 0.6 -11.25 0.5 -11.35 0.55 -0.85 0.6 -0.6 0.65 -0.55 0.95 0.1 0.65 0.7 Q0.4 1.0 0.05 1.0 L-0.6 0.7 -0.85 0.1 -0.6 -0.55 -0.55 -0.55 -0.45 -0.6 -0.4 -11.35 -0.5 -11.25 -1.0 -10.8 -1.1 -10.8 -0.6 -13.6 -0.2 -15.95 -0.1 -17.15 0.0 -17.3 0.0 -17.35 0.05 -17.75 0.25 -16.65" fill="#291801" fill-rule="evenodd" stroke="none"/>
  </g>
</svg>
