<?xml version="1.0" encoding="UTF-8" standalone="no"?>
<svg xmlns:ffdec="https://www.free-decompiler.com/flash" xmlns:xlink="http://www.w3.org/1999/xlink" ffdec:objectType="shape" height="26.8px" width="28.2px" xmlns="http://www.w3.org/2000/svg">
  <g transform="matrix(1.0, 0.0, 0.0, 1.0, 14.6, 13.0)">
    <path d="M13.3 -2.75 L13.6 1.8 12.25 5.0 11.95 5.2 10.25 8.0 9.6 8.2 8.4 8.9 8.2 9.2 7.55 9.45 7.35 9.75 6.1 10.35 6.7 10.85 5.4 11.9 0.95 12.9 0.5 13.8 -8.35 11.05 -8.95 11.0 -13.8 4.0 -13.65 -1.55 -14.6 -1.5 -13.65 -3.6 -13.35 -3.8 -13.15 -4.55 -12.85 -4.75 -12.45 -5.75 -11.1 -7.4 -11.8 -7.95 -12.55 -7.45 -12.0 -8.05 -4.95 -12.9 0.45 -11.95 0.25 -12.65 0.85 -13.0 5.85 -10.3 5.25 -11.15 5.65 -11.8 6.7 -10.8 12.55 -2.8 13.3 -2.75" fill="url(#gradient0)" fill-rule="evenodd" stroke="none"/>
  </g>
  <defs>
    <radialGradient cx="0" cy="0" gradientTransform="matrix(0.0179, 0.0, 0.0, 0.0179, -1.0, 0.3)" gradientUnits="userSpaceOnUse" id="gradient0" r="819.2" spreadMethod="pad">
      <stop offset="0.24705882352941178" stop-color="#00cc66"/>
      <stop offset="0.6509803921568628" stop-color="#227091"/>
      <stop offset="0.9764705882352941" stop-color="#227091" stop-opacity="0.007843138"/>
    </radialGradient>
  </defs>
</svg>
