<?xml version="1.0" encoding="UTF-8" standalone="no"?>
<svg xmlns:ffdec="https://www.free-decompiler.com/flash" xmlns:xlink="http://www.w3.org/1999/xlink" ffdec:objectType="shape" height="132.3px" width="131.9px" xmlns="http://www.w3.org/2000/svg">
  <g transform="matrix(1.0, 0.0, 0.0, 1.0, 72.9, 73.3)">
    <path d="M28.15 -59.75 Q31.9 -57.85 32.85 -57.15 L39.45 -52.3 42.9 -49.3 43.1 -49.35 Q44.1 -49.35 47.55 -42.95 49.95 -37.9 49.95 -36.5 L49.9 -36.1 Q51.6 -31.1 51.6 -28.15 51.45 -27.7 51.45 -27.25 47.7 -24.05 40.85 -24.05 33.45 -24.05 29.0 -28.7 26.75 -31.0 22.75 -38.6 L20.35 -42.45 17.0 -46.6 Q14.7 -49.1 5.8 -50.8 L5.3 -50.9 -2.85 -51.25 -14.7 -50.2 -14.9 -50.05 -15.2 -50.1 Q-32.5 -46.75 -43.4 -33.3 -48.65 -26.85 -51.55 -19.0 -53.85 -12.8 -53.85 -8.75 L-53.45 -1.2 Q-52.65 -5.6 -47.4 -13.55 L-41.95 -21.0 -40.55 -23.15 -40.55 -22.85 -41.95 -21.0 Q-44.55 -17.05 -45.9 -13.1 -48.75 -5.25 -48.75 5.0 -48.75 24.9 -36.6 43.4 L-31.9 49.8 Q-37.05 46.35 -41.75 41.65 -50.25 33.15 -54.55 22.95 L-54.75 22.6 -55.7 21.15 -56.7 18.65 -57.9 16.3 Q-59.0 14.65 -59.5 11.95 L-59.95 7.95 -61.3 1.95 -62.3 -5.0 -62.3 -7.25 -62.65 -13.55 -62.65 -17.25 -62.55 -18.05 -62.65 -18.05 Q-64.65 -18.8 -67.4 -16.85 -70.5 -14.8 -72.65 -10.8 L-72.9 -10.3 -72.9 -12.6 Q-72.9 -32.45 -54.4 -43.7 -49.9 -46.45 -46.75 -51.2 L-41.65 -59.4 Q-34.55 -69.45 -15.55 -73.1 L-15.55 -73.3 -2.95 -73.3 Q4.85 -72.2 10.8 -69.1 L18.6 -64.3 Q23.45 -61.4 27.0 -60.05 L28.15 -59.75 M20.3 -55.7 Q17.1 -57.4 12.15 -60.15 4.25 -64.15 -8.0 -64.15 -26.85 -64.15 -39.7 -51.6 -48.35 -43.15 -56.8 -25.25 L-56.8 -24.9 Q-48.2 -42.25 -29.95 -51.9 -16.25 -59.15 -5.6 -59.15 14.65 -59.15 26.85 -45.15 32.25 -38.2 34.55 -35.55 L37.3 -32.95 Q38.35 -32.2 39.4 -31.75 L42.8 -32.0 Q42.75 -37.7 40.3 -42.45 38.45 -46.1 35.2 -49.35 33.6 -49.75 32.55 -50.15 26.1 -52.6 20.3 -55.7 M58.7 -4.4 L58.7 -4.3 Q58.45 -1.35 58.8 0.7 L59.0 1.5 Q58.45 24.95 41.65 41.65 24.45 59.0 0.0 59.0 L-11.8 57.9 -14.95 56.7 Q-22.1 53.65 -26.85 48.5 -32.9 41.85 -36.5 34.95 -39.2 29.8 -39.2 27.75 L-39.2 27.7 -39.3 27.45 Q-39.3 26.5 -37.7 25.75 -36.2 25.0 -34.7 25.0 -32.7 25.0 -30.5 26.65 L-26.4 30.35 Q-20.25 35.7 -12.25 35.7 -3.55 35.7 2.35 30.75 4.8 28.65 11.35 19.95 14.5 15.85 20.4 11.35 27.25 6.15 34.45 3.15 L35.95 3.15 Q34.55 4.45 33.3 6.45 30.65 10.75 30.65 12.75 30.65 19.05 37.95 19.05 45.2 19.05 52.0 10.55 57.55 3.5 58.7 -4.4 M15.0 -38.5 L10.35 -38.15 Q-0.4 -36.5 -11.15 -29.4 -19.85 -23.65 -22.25 -18.6 L-21.55 -22.7 Q-20.45 -27.25 -17.8 -29.5 -21.0 -27.65 -23.95 -25.4 -29.7 -21.15 -32.7 -16.55 -36.35 -11.0 -37.55 -7.15 L-38.2 -4.35 Q-38.75 -8.95 -37.25 -14.35 -35.55 -20.45 -31.85 -25.85 -23.0 -38.75 -8.4 -40.95 5.65 -43.05 15.0 -38.5 M41.9 24.0 Q39.6 27.65 35.2 29.5 31.85 30.95 28.5 30.95 25.8 30.95 24.3 27.9 23.1 25.45 23.1 22.15 23.1 20.4 23.7 19.05 24.3 17.7 24.3 15.75 L24.3 15.45 Q20.3 27.7 11.55 35.2 3.0 42.5 -6.65 42.5 L-7.0 42.45 -8.45 41.95 Q-9.7 41.35 -10.35 41.3 L-10.25 40.85 Q-13.45 39.3 -13.85 39.1 -17.4 37.65 -20.35 37.65 -22.7 37.65 -23.65 38.55 -24.6 39.4 -24.6 41.25 -24.6 48.15 -18.5 51.35 -13.85 53.75 -6.2 53.75 5.25 53.75 18.25 46.8 33.75 38.5 41.9 24.3 L41.9 24.0" fill="#ffcc00" fill-rule="evenodd" stroke="none"/>
    <path d="M20.3 -55.7 Q26.1 -52.6 32.55 -50.15 33.6 -49.75 35.2 -49.35 38.45 -46.1 40.3 -42.45 42.75 -37.7 42.8 -32.0 L39.4 -31.75 Q38.35 -32.2 37.3 -32.95 L34.55 -35.55 Q32.25 -38.2 26.85 -45.15 14.65 -59.15 -5.6 -59.15 -16.25 -59.15 -29.95 -51.9 -48.2 -42.25 -56.8 -24.9 L-56.8 -25.25 Q-48.35 -43.15 -39.7 -51.6 -26.85 -64.15 -8.0 -64.15 4.25 -64.15 12.15 -60.15 17.1 -57.4 20.3 -55.7 M41.9 24.0 L41.9 24.3 Q33.75 38.5 18.25 46.8 5.25 53.75 -6.2 53.75 -13.85 53.75 -18.5 51.35 -24.6 48.15 -24.6 41.25 -24.6 39.4 -23.65 38.55 -22.7 37.65 -20.35 37.65 -17.4 37.65 -13.85 39.1 -13.45 39.3 -10.25 40.85 L-10.35 41.3 Q-9.7 41.35 -8.45 41.95 L-7.0 42.45 -6.65 42.5 Q3.0 42.5 11.55 35.2 20.3 27.7 24.3 15.45 L24.3 15.75 Q24.3 17.7 23.7 19.05 23.1 20.4 23.1 22.15 23.1 25.45 24.3 27.9 25.8 30.95 28.5 30.95 31.85 30.95 35.2 29.5 39.6 27.65 41.9 24.0" fill="#ffff00" fill-rule="evenodd" stroke="none"/>
  </g>
</svg>
