<?xml version="1.0" encoding="UTF-8" standalone="no"?>
<svg xmlns:ffdec="https://www.free-decompiler.com/flash" xmlns:xlink="http://www.w3.org/1999/xlink" ffdec:objectType="shape" height="128.6px" width="134.05px" xmlns="http://www.w3.org/2000/svg">
  <g transform="matrix(1.0, 0.0, 0.0, 1.0, 69.45, 61.35)">
    <path d="M24.75 -52.25 Q18.75 -58.9 11.25 -61.35 L16.2 -60.6 16.95 -60.65 Q40.0 -56.15 53.6 -36.75 67.8 -16.85 63.65 7.2 62.6 13.3 60.55 18.65 L58.8 21.6 Q54.55 28.1 48.75 31.9 41.15 36.7 33.7 39.05 28.15 40.95 26.2 40.55 L26.1 40.5 25.85 40.6 Q24.9 40.4 24.45 38.7 23.95 37.15 24.15 35.65 24.55 33.6 26.55 31.8 L30.9 28.35 Q37.15 23.2 38.5 15.25 40.05 6.7 36.2 0.15 34.55 -2.7 27.1 -10.55 23.6 -14.4 20.1 -21.0 16.2 -28.6 14.45 -36.2 L14.65 -37.7 Q15.75 -36.1 17.55 -34.5 21.3 -31.2 23.25 -30.9 29.5 -29.75 30.7 -37.0 31.95 -44.1 24.75 -52.25 M36.2 -40.0 Q39.45 -37.2 40.55 -32.45 41.35 -28.95 40.8 -25.6 40.35 -23.0 37.1 -22.05 L31.2 -21.8 Q29.45 -22.1 28.3 -22.85 27.05 -23.8 25.1 -24.05 L24.8 -24.15 Q36.2 -18.1 42.15 -8.2 47.85 1.4 46.25 11.0 L46.2 11.35 45.35 12.65 44.45 14.3 44.0 14.2 41.6 17.5 Q39.65 20.75 39.1 23.65 38.75 25.95 39.45 27.1 40.15 28.05 42.0 28.4 48.8 29.65 52.95 24.15 56.15 19.95 57.4 12.45 59.4 1.1 54.7 -12.85 49.2 -29.5 36.55 -39.95 L36.2 -40.0 M49.15 37.05 Q44.85 41.6 39.45 45.4 29.6 52.4 18.75 54.85 18.65 54.85 18.5 55.0 L16.9 55.65 14.2 56.25 11.7 56.95 Q9.9 57.85 7.2 57.8 L3.15 57.6 -3.0 57.9 -10.05 57.7 -12.25 57.3 -18.45 56.65 -22.15 56.0 -22.85 55.75 -22.95 55.85 Q-24.05 57.7 -22.5 60.8 -21.1 64.1 -17.5 66.95 L-17.05 67.25 -19.35 66.85 Q-38.9 63.5 -46.8 43.35 -48.75 38.45 -52.9 34.55 L-60.15 28.1 Q-68.85 19.4 -69.15 0.1 L-69.45 0.1 -67.2 -12.3 Q-64.85 -19.9 -60.8 -25.25 L-54.75 -32.1 Q-50.95 -36.4 -49.1 -39.65 L-48.6 -40.8 -45.25 -44.95 -39.3 -50.6 -35.8 -53.5 -35.85 -53.7 Q-35.65 -54.6 -28.75 -57.0 -23.35 -58.5 -22.0 -58.25 L-21.65 -58.1 -13.55 -58.45 -12.65 -58.1 Q-10.1 -53.9 -11.25 -47.2 -12.5 -39.9 -17.85 -36.3 -20.5 -34.45 -28.7 -31.85 L-32.9 -30.05 Q-35.6 -28.75 -37.55 -27.45 -40.4 -25.65 -43.6 -17.2 L-43.75 -16.7 Q-44.8 -12.9 -45.5 -8.75 -46.6 -2.5 -46.5 3.2 L-46.35 3.4 -46.45 3.65 Q-46.1 21.3 -34.7 34.25 -29.25 40.55 -22.05 44.75 -16.3 48.15 -12.25 48.75 L-4.75 49.65 Q-9.0 48.1 -15.95 41.65 L-22.4 35.0 -24.2 33.2 -23.9 33.25 -22.4 35.0 Q-18.85 38.2 -15.25 40.25 -7.95 44.35 2.1 46.05 21.75 49.4 42.05 40.6 45.7 39.0 49.15 37.05 M-29.55 -49.75 Q-33.35 -48.6 -37.15 -45.9 -37.75 -44.4 -38.4 -43.45 -41.9 -37.5 -45.95 -32.35 L-51.75 -25.0 Q-57.0 -17.9 -59.05 -5.9 -62.25 12.75 -52.1 27.55 -45.25 37.5 -29.1 48.85 L-28.7 48.85 Q-44.35 37.5 -50.75 17.85 -55.55 3.2 -53.75 -7.35 -50.35 -27.3 -34.4 -36.95 -26.65 -41.1 -23.6 -42.9 L-20.6 -45.15 -19.1 -47.0 -18.75 -50.4 Q-24.4 -51.35 -29.55 -49.75 M-36.25 -1.5 Q-36.0 -15.75 -29.9 -24.15 L-30.35 -19.55 Q-30.6 -8.6 -25.4 3.15 -21.25 12.75 -16.65 15.95 L-20.6 14.55 Q-24.9 12.7 -26.65 9.7 -25.3 13.25 -23.65 16.4 -20.35 22.85 -16.3 26.55 -11.55 31.1 -7.95 32.95 -6.65 33.7 -5.25 34.05 -9.95 33.85 -15.05 31.4 -20.65 28.75 -25.45 24.15 -36.65 13.2 -36.25 -1.5" fill="#ffcc00" fill-rule="evenodd" stroke="none"/>
    <path d="M36.2 -40.0 L36.55 -39.95 Q49.2 -29.5 54.7 -12.85 59.4 1.1 57.4 12.45 56.15 19.95 52.95 24.15 48.8 29.65 42.0 28.4 40.15 28.05 39.45 27.1 38.75 25.95 39.1 23.65 39.65 20.75 41.6 17.5 L44.0 14.2 44.45 14.3 45.35 12.65 46.2 11.35 46.25 11.0 Q47.85 1.4 42.15 -8.2 36.2 -18.1 24.8 -24.15 L25.1 -24.05 Q27.05 -23.8 28.3 -22.85 29.45 -22.1 31.2 -21.8 L37.1 -22.05 Q40.35 -23.0 40.8 -25.6 41.35 -28.95 40.55 -32.45 39.45 -37.2 36.2 -40.0 M-29.55 -49.75 Q-24.4 -51.35 -18.75 -50.4 L-19.1 -47.0 -20.6 -45.15 -23.6 -42.9 Q-26.65 -41.1 -34.4 -36.95 -50.35 -27.3 -53.75 -7.35 -55.55 3.2 -50.75 17.85 -44.35 37.5 -28.7 48.85 L-29.1 48.85 Q-45.25 37.5 -52.1 27.55 -62.25 12.75 -59.05 -5.9 -57.0 -17.9 -51.75 -25.0 L-45.95 -32.35 Q-41.9 -37.5 -38.4 -43.45 -37.75 -44.4 -37.15 -45.9 -33.35 -48.6 -29.55 -49.75" fill="#ffff00" fill-rule="evenodd" stroke="none"/>
  </g>
</svg>
