<?xml version="1.0" encoding="UTF-8" standalone="no"?>
<svg xmlns:ffdec="https://www.free-decompiler.com/flash" xmlns:xlink="http://www.w3.org/1999/xlink" ffdec:objectType="shape" height="147.2px" width="160.2px" xmlns="http://www.w3.org/2000/svg">
  <g transform="matrix(1.0, 0.0, 0.0, 1.0, 79.75, 81.3)">
    <path d="M53.9 -4.75 Q48.45 3.85 44.55 13.25 55.0 12.65 56.75 21.15 57.2 23.2 56.1 25.15 52.7 31.05 50.8 37.55 59.4 30.35 66.85 35.7 76.15 18.25 77.4 -1.95 77.65 -5.75 79.2 -8.0 L80.1 -6.9 80.1 -5.9 80.4 -3.25 80.3 2.3 80.0 7.75 Q79.75 13.3 78.9 18.1 74.05 33.4 65.3 46.95 L61.6 51.5 Q59.15 54.35 46.95 63.9 L44.45 65.9 Q51.8 57.65 58.6 48.6 61.6 44.65 64.15 40.5 L63.5 39.55 Q62.75 38.3 63.45 37.05 55.35 38.8 47.1 41.85 46.45 42.1 46.65 41.15 49.3 29.95 53.0 19.35 53.15 19.0 52.2 18.8 45.85 17.65 41.35 14.85 40.65 14.45 41.1 13.35 45.45 2.3 50.85 -8.25 30.0 1.8 8.15 9.0 6.5 9.55 6.6 7.6 6.75 4.1 7.65 0.75 4.75 3.0 1.05 3.85 L1.5 2.9 0.25 3.1 0.0 3.05 Q-5.0 7.2 -6.75 3.75 -21.3 0.85 -35.5 -5.2 -42.3 -7.2 -49.15 -9.65 -56.45 -12.25 -63.9 -14.35 -70.1 -16.1 -73.9 -19.85 -76.35 -10.15 -76.15 0.55 -75.65 31.1 -56.7 55.25 -54.95 57.45 -54.5 59.95 L-55.25 59.55 -58.6 55.55 -62.1 51.0 -68.5 41.9 -69.8 39.7 -70.85 37.5 Q-71.75 36.9 -72.5 36.7 -79.4 20.0 -79.75 1.6 -80.35 -31.65 -57.6 -55.9 -37.55 -77.3 -8.45 -81.3 -6.9 -81.4 -6.05 -80.35 L-5.95 -80.2 Q-35.65 -74.7 -55.95 -52.6 -68.6 -38.8 -73.35 -22.05 L-72.85 -21.85 -69.3 -20.35 -58.5 -16.05 Q-37.5 -10.1 -16.6 -3.6 -11.6 -2.05 -7.55 0.6 -7.5 0.25 -6.85 0.75 -3.35 3.3 -0.25 -0.9 L3.2 0.65 Q5.25 -1.4 8.95 -2.4 12.95 -3.5 10.9 1.25 9.75 3.8 9.55 6.65 L53.4 -13.1 Q57.45 -10.45 53.9 -4.75 M-73.65 -20.9 L-73.8 -20.35 -73.15 -20.15 -73.65 -20.9 M-7.5 0.95 L-9.25 0.7 -7.4 1.75 -7.5 0.95" fill="#ffffff" fill-rule="evenodd" stroke="none"/>
  </g>
</svg>
