<?xml version="1.0" encoding="UTF-8" standalone="no"?>
<svg xmlns:ffdec="https://www.free-decompiler.com/flash" xmlns:xlink="http://www.w3.org/1999/xlink" ffdec:objectType="shape" height="565.8px" width="647.55px" xmlns="http://www.w3.org/2000/svg">
  <g transform="matrix(1.0, 0.0, 0.0, 1.0, 286.9, 333.3)">
    <path d="M27.15 -284.8 Q7.7 -215.2 48.4 -265.95 63.75 -221.3 125.0 -283.65 67.7 -200.95 61.65 -162.85 60.3 -154.55 61.4 -148.4 62.2 -144.2 64.05 -140.95 67.7 -134.65 75.7 -132.05 107.45 -121.65 208.05 -171.1 147.8 -130.8 175.6 -132.25 122.4 -83.05 172.7 -99.8 69.35 -3.45 360.65 -32.65 138.0 8.55 203.95 44.55 117.6 52.05 259.9 127.6 20.0 41.7 132.6 192.45 37.95 114.1 37.75 200.1 -4.55 63.65 -37.65 232.5 -36.3 109.45 -106.0 204.2 -87.1 118.4 -159.0 224.2 -60.4 53.7 -285.15 170.6 -180.4 90.45 -236.8 75.75 -152.1 59.05 -286.9 38.05 -48.7 36.5 -265.05 -62.1 -98.2 -20.7 -164.95 -98.65 -39.85 -3.4 -182.0 -255.35 -105.6 -161.1 -113.6 -240.65 -69.7 -149.35 -64.15 -216.45 -26.2 -155.65 -5.85 -333.3 -2.35 -271.8 27.15 -284.8 M28.6 -164.35 Q6.65 -98.5 12.6 -170.0 1.8 -125.65 -6.25 -190.25 -9.65 -69.9 -32.6 -124.8 -30.5 -66.9 -61.0 -138.85 -47.7 -72.55 -105.8 -156.6 -16.15 3.2 -90.15 -42.5 -44.15 -5.15 -127.5 -21.75 -20.4 22.35 -145.45 33.75 -70.0 33.15 -123.55 50.85 -83.6 48.25 -147.8 84.55 -26.0 30.55 -85.2 111.35 -38.85 61.6 -47.9 102.8 -14.45 57.35 -23.65 119.6 0.8 35.35 21.1 100.8 21.15 59.6 63.4 105.75 12.6 24.8 127.7 66.1 59.4 29.8 100.85 26.15 69.2 8.9 176.1 -6.9 36.25 3.15 85.9 -43.1 61.7 -35.1 87.3 -58.65 73.9 -58.0 110.1 -100.35 3.8 -28.95 58.0 -185.5 29.2 -113.85 28.6 -164.35" fill="#ffffff" fill-rule="evenodd" stroke="none"/>
    <path d="M28.6 -164.35 Q29.2 -113.85 58.0 -185.5 3.8 -28.95 110.1 -100.35 73.9 -58.0 87.3 -58.65 61.7 -35.1 85.9 -43.1 36.25 3.15 176.1 -6.9 69.2 8.9 100.85 26.15 59.4 29.8 127.7 66.1 12.6 24.8 63.4 105.75 21.15 59.6 21.1 100.8 0.8 35.35 -23.65 119.6 -14.45 57.35 -47.9 102.8 -38.85 61.6 -85.2 111.35 -26.0 30.55 -147.8 84.55 -83.6 48.25 -123.55 50.85 -70.0 33.15 -145.45 33.75 -20.4 22.35 -127.5 -21.75 -44.15 -5.15 -90.15 -42.5 -16.15 3.2 -105.8 -156.6 -47.7 -72.55 -61.0 -138.85 -30.5 -66.9 -32.6 -124.8 -9.65 -69.9 -6.25 -190.25 1.8 -125.65 12.6 -170.0 6.65 -98.5 28.6 -164.35" fill="#ede210" fill-rule="evenodd" stroke="none"/>
  </g>
</svg>
