<?xml version="1.0" encoding="UTF-8" standalone="no"?>
<svg xmlns:ffdec="https://www.free-decompiler.com/flash" xmlns:xlink="http://www.w3.org/1999/xlink" ffdec:objectType="shape" height="835.55px" width="1004.7px" xmlns="http://www.w3.org/2000/svg">
  <g transform="matrix(1.0, 0.0, 0.0, 1.0, 502.35, 417.8)">
    <path d="M-0.25 -307.95 Q-38.3 -226.1 -61.65 -322.3 -73.45 -107.8 -132.65 -221.3 -111.1 -98.05 -168.7 -212.85 -156.0 -108.9 -259.75 -206.0 -123.55 -1.85 -264.75 -74.45 -212.45 4.9 -254.5 2.45 -296.6 -0.1 -362.55 -13.95 -302.65 14.2 -288.8 37.2 -275.0 60.25 -285.65 81.4 -296.3 102.55 -380.75 109.85 -290.65 114.3 -280.35 121.05 -269.7 128.05 -280.35 135.1 -285.25 138.2 -361.4 159.9 -296.95 150.4 -290.45 163.05 -283.9 175.6 -290.1 194.3 -296.3 212.95 -391.9 267.25 -306.15 230.3 -285.8 227.4 -265.45 224.5 -240.05 237.9 -214.65 251.2 -251.5 341.7 -149.0 237.05 -190.9 339.45 -111.7 222.65 -99.55 369.0 -64.85 218.9 0.95 338.75 -19.7 202.15 123.15 308.95 70.25 245.1 64.1 228.55 37.6 157.4 247.05 222.05 55.8 124.15 211.85 125.8 89.3 78.8 358.05 27.55 15.65 54.0 164.2 -45.95 58.65 -15.65 156.2 -80.1 82.75 -53.05 223.7 -182.55 -23.35 -63.7 105.25 -310.9 11.4 -158.85 33.5 -300.75 -28.5 -156.4 -0.25 -307.95 M226.85 -79.95 Q77.2 26.5 502.35 6.45 200.5 64.25 275.35 132.1 145.95 133.1 323.8 258.0 56.2 171.4 160.15 345.75 22.2 251.7 8.65 375.35 -52.7 277.2 -100.4 417.75 -130.65 282.95 -207.2 379.85 -192.35 304.75 -283.0 397.25 -223.05 224.4 -502.35 337.75 -331.85 204.85 -437.5 159.4 -355.65 133.65 -482.2 107.85 -272.75 68.7 -442.85 -38.3 -220.75 -5.45 -311.8 -105.75 -156.35 -58.45 -341.7 -274.1 -181.7 -171.7 -194.9 -262.85 -138.0 -204.7 -148.15 -269.4 -75.55 -219.55 -62.2 -417.8 -32.95 -307.25 9.75 -345.05 -1.9 -293.45 35.4 -330.6 64.6 -297.15 149.8 -348.85 -18.3 -94.05 270.85 -226.05 186.2 -136.35 235.9 -117.85 146.95 -79.5 226.85 -79.95" fill="#ffffff" fill-rule="evenodd" stroke="none"/>
  </g>
</svg>
