<?xml version="1.0" encoding="UTF-8" standalone="no"?>
<svg xmlns:ffdec="https://www.free-decompiler.com/flash" xmlns:xlink="http://www.w3.org/1999/xlink" ffdec:objectType="shape" height="106.9px" width="93.05px" xmlns="http://www.w3.org/2000/svg">
  <g transform="matrix(1.0, 0.0, 0.0, 1.0, 53.25, 53.45)">
    <path d="M12.3 -52.1 Q1.7 -50.3 -7.7 -45.45 -20.8 -38.8 -30.7 -27.15 -38.8 -17.7 -43.6 -6.85 -45.95 -1.5 -46.75 2.4 -45.75 -4.25 -42.95 -12.75 -39.7 -22.85 -35.4 -29.15 L-36.65 -27.55 Q-41.85 -21.4 -46.1 -15.55 -50.7 -9.1 -53.25 -4.45 -51.85 -23.75 -37.8 -37.8 -22.15 -53.45 0.0 -53.45 6.45 -53.45 12.3 -52.1 M29.25 -15.3 Q27.1 -20.95 24.9 -23.85 L23.25 -25.8 Q26.85 -23.8 30.1 -19.8 33.65 -15.3 35.65 -9.7 40.45 3.6 34.3 15.55 28.35 27.0 20.05 31.5 L22.25 27.85 Q26.75 19.05 27.25 7.4 27.65 -2.15 25.25 -6.5 L27.9 -3.85 Q30.65 -0.6 30.9 2.6 31.2 -0.75 31.15 -4.1 31.05 -10.7 29.25 -15.3 M-35.05 40.4 L-34.9 40.4 Q-26.8 43.65 -14.25 43.65 -0.2 43.65 15.15 37.4 19.3 35.65 24.8 32.9 29.3 30.6 30.15 30.4 29.7 31.5 22.65 38.1 L13.75 46.0 13.75 46.8 15.85 46.8 Q17.2 46.85 24.95 43.25 32.25 39.8 39.8 35.65 L37.75 37.75 Q22.15 53.45 0.0 53.45 -5.6 53.45 -10.7 52.45 -20.55 50.6 -28.9 45.1 -32.05 43.05 -35.05 40.4" fill="#ffffff" fill-opacity="0.43137255" fill-rule="evenodd" stroke="none"/>
  </g>
</svg>
