<?xml version="1.0" encoding="UTF-8" standalone="no"?>
<svg xmlns:ffdec="https://www.free-decompiler.com/flash" xmlns:xlink="http://www.w3.org/1999/xlink" ffdec:objectType="shape" height="159.2px" width="159.5px" xmlns="http://www.w3.org/2000/svg">
  <g transform="matrix(1.0, 0.0, 0.0, 1.0, 79.85, 79.8)">
    <path d="M56.75 -52.85 L57.8 -53.35 Q63.8 -51.45 64.6 -45.5 L64.55 -45.35 Q60.75 -48.65 56.15 -51.55 56.05 -52.4 56.75 -52.85 M40.55 -69.25 L41.75 -68.45 Q46.35 -65.4 49.45 -62.5 L52.55 -59.75 53.45 -57.9 53.4 -57.7 Q44.2 -59.3 42.05 -66.75 40.35 -65.95 38.5 -67.85 L38.45 -68.05 Q38.5 -68.7 39.15 -68.95 L40.55 -69.25 M26.6 -75.25 Q31.05 -72.3 36.2 -70.6 L36.4 -70.4 Q29.3 -66.95 25.4 -73.6 L25.3 -74.25 Q25.45 -74.8 26.0 -75.0 L26.6 -75.25 M12.5 -76.65 L12.5 -76.45 Q-5.05 -76.65 -23.1 -72.3 -13.25 -46.9 -5.55 -21.05 L-3.4 -15.3 Q-1.35 -9.85 -1.0 -4.8 L0.8 2.15 0.35 2.5 -1.0 -0.5 -1.35 2.0 -1.4 2.2 Q-1.25 6.15 -6.75 10.55 L-12.45 15.15 -13.55 16.75 Q-25.85 34.9 -38.75 51.95 L-38.85 52.1 Q-41.15 57.55 -44.4 59.3 L-45.9 61.2 Q-42.8 63.25 -39.35 64.9 -32.7 68.05 -39.25 68.05 -44.25 68.0 -48.45 65.75 -57.25 58.5 -65.85 46.9 -78.1 28.55 -79.8 6.8 L-79.85 5.35 Q-79.85 -5.65 -77.05 -18.3 -73.75 -33.15 -68.3 -40.95 -64.45 -46.45 -59.05 -52.45 -53.3 -58.75 -47.0 -64.3 -43.8 -67.1 -39.05 -70.0 -34.25 -72.85 -29.95 -74.55 -25.7 -75.95 -22.6 -77.1 L-12.5 -79.05 -2.1 -79.8 8.9 -79.35 Q10.85 -78.35 12.5 -76.65 M67.65 -39.2 L67.7 -39.2 Q68.05 -37.75 67.65 -39.2 M70.4 -32.15 Q83.35 -7.85 78.15 19.5 78.0 20.25 77.35 19.8 76.8 -6.2 69.5 -30.8 69.15 -31.95 70.4 -32.15 M68.75 39.25 Q65.0 43.45 61.6 48.15 39.45 79.25 1.8 79.4 8.55 73.0 19.55 71.25 30.65 69.5 39.8 63.25 34.15 59.0 28.9 51.5 15.15 32.05 5.6 12.2 1.35 6.65 -1.05 1.0 L-1.05 0.9 2.15 4.8 1.75 3.95 2.75 5.65 Q6.0 10.05 8.45 14.9 23.7 39.35 41.0 62.4 52.15 54.3 60.4 43.2 68.1 32.9 76.35 24.05 75.45 31.7 68.75 39.25 M-24.9 -71.85 L-22.15 -64.6 -23.7 -72.15 -24.9 -71.85 M-29.4 -70.65 Q-38.35 -68.1 -45.9 -62.7 L-48.3 -60.95 Q-47.65 -57.8 -52.95 -53.65 -62.4 -46.35 -67.2 -35.5 -85.3 5.4 -62.2 43.95 L-58.05 50.0 Q-58.35 47.25 -55.05 44.8 -52.75 41.3 -48.8 38.0 L-15.7 10.8 Q-11.0 5.9 -5.4 2.45 L-2.5 0.1 -7.35 -12.9 Q-13.9 -24.45 -17.95 -38.85 L-25.8 -67.05 Q-26.4 -69.35 -24.75 -70.5 L-24.6 -70.05 -25.0 -71.8 -29.4 -70.65 M-56.25 51.95 L-56.35 52.0 -56.25 52.15 -56.25 51.95 M-47.55 60.1 L-46.6 60.75 -46.2 59.95 -47.55 60.1" fill="#ffffff" fill-rule="evenodd" stroke="none"/>
  </g>
</svg>
