<?xml version="1.0" encoding="UTF-8" standalone="no"?>
<svg xmlns:ffdec="https://www.free-decompiler.com/flash" xmlns:xlink="http://www.w3.org/1999/xlink" ffdec:objectType="shape" height="38.35px" width="41.35px" xmlns="http://www.w3.org/2000/svg">
  <g transform="matrix(1.0, 0.0, 0.0, 1.0, 24.25, 17.3)">
    <path d="M3.8 -14.7 L4.65 -11.7 5.0 -10.3 5.35 -9.4 5.3 -9.3 3.65 -9.75 3.55 -9.75 3.1 -8.35 1.8 -5.6 1.75 -5.5 Q3.85 -6.55 5.35 -8.2 L5.45 -8.3 Q5.15 -7.7 5.25 -7.25 L5.25 -6.95 5.25 -6.75 5.3 -6.65 5.8 -6.1 6.6 -5.95 6.85 -6.0 8.0 -6.5 8.0 -6.4 8.05 -6.35 7.4 -5.6 Q6.7 -4.65 7.05 -4.0 L7.2 -3.7 5.5 -1.95 5.5 -1.9 11.85 -4.45 12.7 -4.75 12.9 -4.85 12.6 -5.35 12.5 -6.2 13.15 -6.15 13.25 -6.15 13.45 -6.15 17.1 -5.05 15.95 -3.6 14.2 -1.65 13.9 -1.5 13.7 -1.35 13.15 -2.8 13.1 -2.9 7.0 -0.75 6.85 -0.7 5.95 -0.35 7.0 -0.45 Q7.4 -0.2 7.85 -0.05 8.45 0.05 7.55 0.25 L6.45 0.5 6.4 0.55 Q5.2 0.8 5.9 2.2 L8.5 4.7 8.75 4.95 8.6 4.95 7.55 4.8 8.1 4.9 6.95 4.65 6.85 4.7 5.65 4.55 12.55 8.5 13.75 6.6 13.8 6.75 14.15 7.55 14.6 8.25 15.5 10.1 15.8 10.45 15.9 10.8 16.05 10.8 15.9 11.15 11.35 11.35 Q11.45 10.55 11.8 10.15 L10.75 9.65 Q7.45 7.85 4.25 5.35 L4.25 5.3 4.3 5.2 4.2 5.15 3.9 5.1 4.0 5.15 3.85 5.1 3.9 5.15 4.3 6.55 Q4.95 9.95 5.9 13.45 L7.3 17.25 8.85 16.8 8.35 18.3 7.35 21.0 7.0 20.7 6.05 20.0 4.35 18.85 3.85 18.45 5.15 17.85 4.25 15.1 3.9 13.85 3.7 13.15 3.25 11.55 3.05 11.2 2.25 8.5 2.15 7.85 2.15 7.95 2.05 7.65 2.1 8.15 2.1 8.45 2.1 8.95 2.1 10.15 2.05 10.35 1.95 10.4 1.55 9.8 1.25 9.4 Q0.6 8.55 -0.1 8.9 L-1.15 10.3 -1.25 10.75 -1.55 12.45 -1.8 10.7 -1.85 10.6 -1.95 10.3 -2.15 9.95 -2.35 9.6 -2.55 10.25 -2.6 10.15 -3.15 11.2 -3.3 11.7 -3.55 11.8 -3.35 11.95 -3.55 12.65 -4.45 15.35 -4.6 15.4 -5.35 17.45 -5.6 18.1 -5.1 18.5 -4.75 18.7 Q-7.4 20.0 -9.05 21.05 L-9.2 16.5 -9.1 16.55 -9.1 16.35 -7.9 16.85 -7.85 16.75 -7.9 16.7 -6.15 12.5 -5.05 9.85 -6.15 10.4 -5.5 9.4 -5.85 9.7 -5.95 9.9 -5.9 9.6 -5.6 8.65 -5.4 8.15 -5.25 6.85 Q-5.05 6.5 -5.65 5.2 -6.15 3.95 -8.55 5.0 L-8.7 5.1 -9.0 5.25 -9.0 4.45 Q-9.5 3.45 -10.2 3.05 L-10.65 3.0 -10.9 2.9 -11.0 2.85 Q-11.4 2.6 -12.05 2.45 -15.8 1.45 -19.45 1.0 L-19.6 1.75 -19.65 1.85 -19.7 2.75 -19.9 2.6 -24.25 -1.3 -23.95 -1.65 -21.05 -2.45 -19.65 -2.8 -18.7 -2.85 -18.65 -2.8 -18.6 -2.8 -18.9 -1.6 -18.9 -1.5 -18.8 -0.9 Q-14.45 0.4 -9.95 0.9 L-10.45 0.6 -9.85 0.7 -8.25 1.15 -8.1 0.75 Q-7.8 0.25 -7.9 -0.35 L-8.4 -1.65 Q-9.05 -2.95 -9.8 -3.4 L-9.8 -3.5 -8.35 -3.45 -8.0 -3.7 -8.05 -3.85 -8.75 -4.75 -13.25 -12.1 -13.3 -12.2 -13.85 -11.95 -13.95 -12.0 -14.2 -11.9 -15.2 -11.5 -15.9 -17.05 -15.4 -16.9 -15.4 -16.95 -15.35 -17.1 -14.0 -16.3 -13.15 -16.0 -10.85 -14.75 -10.95 -14.65 -11.0 -14.6 -11.2 -14.4 -11.65 -13.8 -11.55 -13.6 -9.9 -10.95 -6.5 -5.15 -6.0 -3.95 -4.3 -3.85 -4.3 -4.15 -4.5 -4.65 -5.05 -7.0 -5.6 -9.1 -5.9 -10.2 -6.1 -11.2 Q-6.25 -11.5 -6.7 -11.5 L-6.75 -11.55 -7.45 -11.7 -7.95 -11.8 -7.8 -12.25 -5.7 -17.3 -3.55 -14.9 -1.6 -12.65 -3.5 -11.95 -1.7 -4.65 -1.6 -5.6 -1.55 -5.1 -1.45 -6.45 Q-1.15 -6.8 -0.9 -7.9 L-0.85 -7.9 -0.55 -8.7 -0.2 -7.75 0.3 -7.1 0.3 -7.15 0.35 -7.3 0.35 -7.2 1.4 -10.4 1.35 -10.5 -0.35 -11.1 -0.3 -11.4 -0.15 -11.55 0.3 -11.85 0.55 -12.1 1.25 -12.6 2.15 -13.35 3.8 -14.7" fill="#ffffff" fill-rule="evenodd" stroke="none"/>
  </g>
</svg>
