<?xml version="1.0" encoding="UTF-8" standalone="no"?>
<svg xmlns:ffdec="https://www.free-decompiler.com/flash" xmlns:xlink="http://www.w3.org/1999/xlink" ffdec:objectType="shape" height="154.8px" width="154.3px" xmlns="http://www.w3.org/2000/svg">
  <g transform="matrix(1.0, 0.0, 0.0, 1.0, 73.65, 86.05)">
    <path d="M21.7 -82.3 Q24.25 -84.5 25.65 -86.05 L29.2 -70.6 27.0 -71.2 25.05 -71.75 24.9 -71.85 24.65 -71.95 14.45 -38.55 Q14.35 -37.25 12.95 -32.95 L12.75 -32.3 Q12.75 -31.45 11.6 -28.3 L12.4 -28.65 15.05 -33.45 19.55 -41.45 24.0 -50.3 25.9 -54.25 23.6 -55.7 32.35 -61.4 31.05 -51.3 29.1 -52.4 28.8 -51.7 27.75 -49.9 20.05 -36.45 19.9 -36.35 18.05 -33.1 16.3 -29.9 15.75 -28.35 Q14.45 -24.85 15.25 -23.15 L15.9 -22.45 16.25 -23.0 18.55 -26.4 21.6 -31.1 20.15 -32.2 28.8 -37.1 26.8 -27.3 24.95 -28.7 24.5 -28.2 Q24.35 -27.3 22.95 -26.15 L20.45 -24.0 19.75 -23.25 18.15 -21.3 17.95 -20.95 18.05 -21.05 17.8 -20.25 17.8 -19.8 Q17.6 -18.7 17.7 -17.65 17.85 -15.75 18.75 -13.85 L18.95 -13.5 19.65 -12.6 19.7 -12.55 21.95 -13.65 23.2 -13.9 23.25 -13.85 24.45 -14.3 28.7 -16.4 28.9 -16.35 29.05 -16.45 29.35 -17.15 32.0 -18.4 32.05 -18.55 42.95 -23.95 41.85 -27.25 54.8 -26.7 46.7 -16.8 45.25 -19.25 32.25 -14.4 32.35 -14.3 28.3 -12.85 26.65 -12.1 26.35 -12.1 26.05 -12.0 22.95 -10.3 22.45 -10.2 22.25 -10.1 Q21.15 -8.95 21.5 -8.2 L21.75 -7.8 Q22.2 -7.35 23.25 -7.0 L24.85 -7.4 31.45 -9.35 38.1 -11.05 38.35 -11.35 39.1 -11.5 57.35 -16.1 56.7 -19.35 69.6 -14.9 60.15 -5.45 58.7 -9.25 39.6 -6.15 36.5 -5.75 34.65 -5.1 33.4 -4.9 33.5 -5.0 26.35 -3.6 23.4 -1.75 22.6 -0.9 Q21.65 0.2 22.15 1.2 L22.5 1.75 22.8 1.95 22.9 2.15 22.95 2.25 23.15 2.35 24.7 2.65 68.05 5.9 68.65 1.65 80.65 9.15 67.0 13.95 67.3 11.2 56.3 9.85 41.95 8.0 41.4 7.9 41.2 7.85 41.15 7.9 37.9 7.65 33.15 7.0 33.3 6.9 31.3 6.6 23.85 5.95 24.0 5.85 23.8 5.85 23.85 6.05 25.6 7.1 28.0 8.1 29.3 8.7 31.35 9.65 32.3 10.05 34.15 11.05 37.55 12.55 37.55 12.45 52.55 18.45 52.6 18.45 53.4 16.4 60.45 23.55 51.05 24.95 51.2 23.25 Q51.0 22.65 51.3 22.25 L51.25 22.1 47.8 20.65 41.75 17.8 36.8 15.55 36.7 15.45 35.8 14.9 31.1 12.75 30.05 12.25 26.6 10.7 Q25.5 11.4 25.45 12.6 L27.4 14.45 27.5 14.55 59.25 41.8 62.1 37.95 67.95 53.95 51.95 51.2 54.4 48.05 54.95 47.2 33.65 26.5 29.05 22.2 28.25 21.3 26.7 19.8 23.3 16.8 20.65 16.65 20.4 16.75 Q19.95 16.95 19.9 17.55 L41.7 41.9 41.7 41.95 43.65 40.35 46.1 50.7 35.85 46.55 38.35 44.4 29.55 33.1 Q28.65 32.45 24.35 26.65 L18.85 19.35 18.1 18.65 17.55 18.05 17.2 17.85 17.05 17.8 Q12.95 14.75 10.8 15.8 10.3 16.05 9.9 16.45 L9.8 16.5 9.25 17.6 Q9.0 18.05 9.0 18.85 L9.15 19.15 13.85 31.35 13.95 32.1 15.9 36.55 17.2 39.85 17.2 39.95 18.25 42.75 18.55 43.0 19.25 44.55 23.2 54.9 27.6 53.25 25.75 68.75 14.4 58.2 18.15 56.2 7.9 26.0 6.9 23.1 4.2 22.5 4.15 22.5 3.75 22.4 1.25 22.5 1.15 22.85 1.2 22.9 1.85 31.45 2.65 42.3 2.85 43.45 2.9 43.95 2.9 44.0 2.8 44.0 2.85 44.6 4.75 44.55 1.1 53.55 0.2 51.4 -0.1 50.6 -2.4 44.7 -2.45 44.6 -1.35 44.45 -1.25 44.45 -1.2 44.45 -0.65 44.25 Q-0.35 44.1 -0.4 42.85 L-0.4 42.0 -0.4 39.85 -0.4 33.3 Q-0.75 29.3 -0.7 26.1 L-0.8 26.15 -1.0 25.9 -0.7 22.7 -3.65 23.2 Q-5.35 24.0 -7.7 27.0 L-7.8 27.5 -9.25 31.3 -11.25 36.45 -14.65 49.0 -14.55 49.0 Q-16.05 53.6 -16.0 55.5 L-16.65 57.75 -14.1 58.95 -23.8 66.75 -26.05 53.75 -22.55 55.25 -21.4 51.65 -20.65 49.55 -19.8 46.95 -19.75 46.95 -19.45 46.0 Q-14.6 32.4 -11.25 23.95 -11.55 21.95 -12.1 20.75 -13.15 18.6 -15.2 18.6 -16.35 18.6 -18.0 19.2 L-19.1 20.8 -19.55 21.3 -22.3 24.1 -22.3 24.15 -22.5 24.45 -23.8 25.85 -29.8 32.45 -28.1 33.9 -37.7 36.9 -35.1 27.35 -33.2 29.15 -30.6 26.75 Q-30.55 26.25 -25.2 21.05 L-25.15 21.05 -24.95 21.15 -23.5 19.8 Q-22.9 18.75 -19.6 15.55 L-18.45 14.45 Q-19.0 13.7 -20.0 13.7 -25.9 18.2 -26.85 18.7 L-27.7 18.9 -45.0 30.75 -44.45 31.6 -52.65 33.7 -48.4 25.65 -47.75 26.7 -40.2 22.7 -38.85 22.0 -37.0 20.8 -32.85 18.75 -25.2 14.05 -22.95 12.95 -23.3 12.0 Q-23.35 11.3 -23.7 10.65 -24.05 9.85 -24.6 9.4 L-54.15 19.25 -54.45 19.4 -54.4 19.6 Q-53.95 20.5 -54.1 20.9 L-53.85 22.2 -64.9 17.8 -56.35 9.35 -55.65 13.1 -46.1 10.75 -44.6 10.3 -44.3 10.25 -44.0 10.15 -43.9 10.15 -43.5 10.05 -38.5 8.85 -38.1 8.65 -26.7 6.0 -23.5 4.95 -22.15 3.25 -21.15 1.25 -27.75 0.75 -40.75 -0.45 -51.5 -1.55 -61.1 -2.2 Q-61.1 -1.9 -61.25 -1.6 L-61.35 -1.4 -61.45 1.05 -73.65 -5.1 -59.75 -9.7 -60.35 -6.65 -60.35 -6.25 -55.5 -5.7 -53.85 -5.6 -48.7 -5.0 -43.3 -4.65 -38.5 -3.95 -21.25 -2.5 -21.4 -2.8 -22.05 -4.0 Q-22.8 -4.55 -25.65 -5.4 L-29.5 -6.3 -32.6 -7.3 -34.05 -7.75 -35.55 -7.95 -37.75 -8.4 -40.0 -9.25 -40.3 -8.5 -40.7 -5.65 -48.0 -14.75 -37.2 -16.7 -37.3 -16.2 -37.25 -16.05 -37.45 -15.0 -37.65 -13.95 Q-35.6 -13.3 -28.05 -10.25 L-20.2 -6.95 -18.95 -7.4 -18.55 -7.65 Q-17.3 -8.6 -17.05 -10.85 L-17.25 -12.8 Q-17.25 -13.75 -17.6 -14.7 L-17.85 -15.0 -21.8 -18.1 -28.0 -24.1 -31.8 -27.95 -46.3 -40.05 -48.45 -45.0 -42.15 -43.1 -37.7 -38.35 -37.4 -38.05 -37.2 -37.8 -35.1 -35.55 -33.3 -33.6 -27.8 -27.65 -17.3 -17.1 -14.5 -17.25 -15.2 -18.0 -16.9 -19.75 -17.45 -20.2 -23.1 -27.25 -23.55 -27.85 -25.15 -29.85 -27.1 -32.2 -27.9 -33.2 -28.9 -34.5 -29.9 -35.8 -30.0 -35.65 -30.7 -36.5 -31.35 -37.35 Q-32.35 -38.25 -34.25 -41.0 L-34.85 -41.8 -34.95 -41.85 -45.7 -55.25 -45.7 -55.3 -45.1 -55.8 -45.75 -55.4 -45.7 -55.3 -48.85 -52.7 -50.75 -66.9 -37.6 -62.1 -40.8 -58.5 -27.2 -40.0 -27.3 -39.85 -15.15 -23.2 -15.0 -22.6 -14.9 -22.3 -13.05 -19.8 -12.25 -19.35 -8.2 -19.2 Q-6.75 -19.9 -6.0 -20.85 L-6.35 -21.9 -6.4 -22.0 Q-7.2 -23.7 -8.6 -28.85 L-8.85 -29.75 -12.55 -41.55 -15.5 -41.15 -12.1 -55.5 -2.8 -43.3 -6.35 -42.65 -2.45 -21.05 -2.2 -20.4 -1.95 -20.15 -1.5 -20.0 -0.45 -19.95 Q1.0 -19.65 2.5 -20.4 4.75 -21.5 6.15 -23.65 L6.25 -23.85 6.65 -25.35 7.7 -29.9 7.9 -32.15 7.95 -32.35 8.1 -33.05 Q8.4 -34.65 9.05 -35.5 L9.9 -38.9 Q10.7 -42.6 12.15 -47.25 L18.6 -73.6 Q18.15 -74.1 14.0 -74.8 L21.7 -82.3 M14.75 -31.5 L15.55 -33.2 14.85 -32.0 14.75 -31.5 M13.95 -29.45 L14.25 -29.6 14.35 -29.75 14.1 -29.8 13.95 -29.45 M1.6 -13.45 L1.05 -14.65 0.85 -14.55 Q0.95 -8.45 -0.35 -6.2 -0.45 -6.45 -0.75 -6.3 L-2.55 -9.7 -2.65 -9.3 -2.85 -8.3 Q-3.05 -7.55 -3.4 -7.1 L-4.95 -9.3 -5.55 -10.25 -6.05 -11.1 -7.15 -13.45 -7.4 -13.35 -7.05 -11.3 -7.05 -11.05 -7.25 -11.3 -9.05 -13.8 -9.1 -13.8 -8.6 -11.75 -8.6 -11.35 Q-8.6 -9.8 -9.25 -9.45 -9.65 -9.25 -11.05 -10.15 L-11.5 -10.4 -12.3 -10.95 -12.4 -10.85 -11.9 -10.15 -11.1 -7.55 Q-10.2 -4.45 -11.5 -3.8 L-12.8 -3.55 -13.0 -3.35 -13.5 -2.8 -9.55 -1.1 -7.35 -0.1 -9.3 0.65 -12.75 1.85 -14.05 2.5 -11.2 2.55 Q-10.65 2.75 -9.95 3.1 L-9.65 3.35 -11.8 5.0 -16.05 8.4 -16.7 8.8 -16.0 8.6 -12.45 7.15 -10.1 6.15 -10.9 6.8 Q-9.0 5.85 -8.55 6.6 L-8.5 6.7 Q-8.35 7.05 -8.55 7.9 L-8.85 8.85 -10.3 11.75 -7.85 10.25 -5.2 8.5 -6.25 15.1 -6.5 16.3 -6.35 16.55 -5.65 15.25 -0.95 7.2 -0.8 10.75 -0.75 11.9 Q-0.25 10.45 0.1 10.3 0.4 10.15 0.95 10.9 L1.85 12.2 1.9 12.25 2.9 14.95 2.8 12.85 2.8 11.35 Q3.0 9.95 3.5 9.7 3.7 9.6 4.05 9.95 4.95 10.7 6.75 13.5 5.3 9.65 5.4 8.05 L5.45 7.6 5.45 6.7 5.6 6.85 Q7.05 6.55 10.65 8.65 L14.2 10.65 14.7 10.3 14.0 9.45 13.0 7.9 11.8 6.2 11.0 4.5 11.35 4.35 11.3 4.3 11.55 4.2 12.1 3.95 12.3 4.3 14.65 4.7 14.95 4.65 13.8 3.65 Q11.75 1.9 11.15 0.7 10.6 -0.5 14.2 -1.85 17.75 -3.25 16.3 -3.55 L14.0 -3.85 Q13.15 -3.85 12.7 -4.75 12.0 -6.25 12.95 -8.55 L13.6 -10.1 13.2 -9.9 Q11.8 -9.2 10.8 -11.2 10.15 -12.55 11.1 -16.4 L9.15 -12.9 Q7.75 -10.7 6.6 -9.6 L5.1 -12.85 3.85 -10.95 2.95 -9.55 2.2 -11.2 1.95 -12.25 1.6 -13.45 M-21.5 -19.0 L-21.4 -19.05 -21.9 -19.65 -22.3 -20.0 -25.1 -22.4 -21.5 -19.0 M-36.45 -13.05 L-36.55 -13.15 -36.65 -13.05 -36.45 -13.05 M-9.25 1.1 L-9.1 1.9 -9.15 2.15 -9.4 2.4 -9.95 2.35 -9.75 1.2 -9.25 1.1 M-21.75 0.45 L-27.5 0.1 -21.95 0.55 -21.75 0.45" fill="#ffffff" fill-rule="evenodd" stroke="none"/>
    <path d="M2.25 -21.25 L2.2 -21.25 2.2 -21.4 2.25 -21.25 M2.45 8.7 L2.5 8.75 2.45 8.8 2.45 8.7" fill="#dedede" fill-rule="evenodd" stroke="none"/>
  </g>
</svg>
