<?xml version="1.0" encoding="UTF-8" standalone="no"?>
<svg xmlns:ffdec="https://www.free-decompiler.com/flash" xmlns:xlink="http://www.w3.org/1999/xlink" ffdec:objectType="shape" height="32.0px" width="57.4px" xmlns="http://www.w3.org/2000/svg">
  <g transform="matrix(1.0, 0.0, 0.0, 1.0, 32.15, 15.5)">
    <path d="M14.15 -13.3 Q18.35 -13.0 18.35 -11.3 18.35 -10.95 17.75 -10.7 L16.85 -10.5 Q16.45 -10.5 12.9 -12.25 9.6 -13.9 9.6 -13.6 9.6 -15.15 11.25 -14.35 13.65 -13.2 14.15 -13.3 M5.0 -13.35 L-4.25 -13.6 Q-5.55 -13.75 -5.55 -14.45 -5.55 -15.0 -5.2 -15.2 L-2.65 -15.5 4.95 -15.25 Q6.65 -15.0 6.65 -14.3 6.65 -13.35 5.0 -13.35 M18.75 -10.2 L18.8 -10.65 20.0 -10.4 Q20.9 -10.1 21.05 -9.6 L20.9 -9.1 Q20.75 -8.8 20.25 -8.8 19.65 -8.8 19.15 -9.5 L18.75 -10.2 M25.25 8.35 L25.05 8.8 Q24.75 8.85 24.25 9.05 L23.6 8.4 Q23.6 7.4 25.05 7.85 L25.25 8.35 M21.55 11.3 L19.8 11.75 19.15 11.05 Q19.15 10.5 20.8 9.85 22.4 9.15 22.4 10.4 22.4 10.95 21.55 11.3 M8.6 14.75 L8.15 14.7 7.9 14.5 7.85 14.0 Q7.85 13.45 8.85 13.05 9.9 12.65 10.6 13.3 L10.7 13.25 10.75 13.6 Q10.75 14.05 9.9 14.4 L8.6 14.75 M3.2 16.05 L0.45 16.5 Q-3.1 16.5 -3.1 15.25 -3.1 13.9 0.85 13.7 4.75 13.5 4.75 14.95 4.75 15.5 3.2 16.05 M15.45 13.2 L13.8 13.5 13.35 13.4 13.25 12.9 Q13.25 12.1 14.15 11.8 15.2 11.45 16.1 12.5 L15.45 13.2 M-29.45 -3.2 L-29.4 -2.75 Q-29.4 -2.2 -30.05 -0.3 -30.8 1.85 -31.25 1.85 -32.3 1.85 -32.15 0.65 -32.15 -2.9 -29.6 -3.3 L-29.45 -3.2 M-16.75 -11.9 L-16.75 -12.35 Q-16.75 -13.7 -12.8 -14.4 -8.9 -15.1 -8.9 -13.85 -8.9 -13.45 -12.25 -12.45 -15.4 -11.55 -16.05 -11.55 -16.65 -11.55 -16.75 -11.9 M-19.75 11.85 L-20.3 12.1 Q-21.8 12.1 -23.6 11.0 -25.3 10.0 -25.3 9.3 -25.3 7.1 -19.5 11.3 -19.5 11.65 -19.75 11.85 M-28.3 5.6 Q-28.3 6.55 -29.5 6.55 -30.4 6.55 -30.8 4.9 -30.8 2.95 -29.55 3.9 -28.3 4.9 -28.3 5.6 M-25.75 7.75 L-26.25 8.0 -26.65 7.7 -26.85 7.1 -26.75 6.7 -26.4 6.75 -25.75 7.75" fill="#ffffff" fill-rule="evenodd" stroke="none"/>
  </g>
</svg>
