<?xml version="1.0" encoding="UTF-8" standalone="no"?>
<svg xmlns:ffdec="https://www.free-decompiler.com/flash" xmlns:xlink="http://www.w3.org/1999/xlink" ffdec:objectType="shape" height="30.1px" width="54.1px" xmlns="http://www.w3.org/2000/svg">
  <g transform="matrix(1.0, 0.0, 0.0, 1.0, 31.75, 14.85)">
    <path d="M12.0 -12.8 L11.5 -12.15 10.65 -11.9 Q10.15 -11.9 9.75 -12.35 L9.4 -12.85 Q9.4 -13.6 10.3 -13.6 11.2 -13.55 12.0 -12.8 M7.85 -12.75 Q7.6 -12.5 7.3 -12.5 5.6 -12.35 3.65 -12.45 -0.3 -12.65 -1.75 -13.9 L-1.1 -14.75 3.4 -14.75 Q6.2 -15.05 7.45 -14.3 8.15 -13.9 8.15 -13.35 L7.85 -12.75 M16.3 -10.8 Q17.05 -12.1 18.55 -11.3 20.0 -10.6 20.0 -9.75 L19.95 -9.35 19.85 -9.1 Q19.7 -8.8 19.05 -8.8 18.35 -8.8 17.45 -9.55 L16.3 -10.8 M14.6 -12.25 L14.8 -11.75 Q14.65 -11.25 13.8 -11.25 L12.9 -11.4 12.85 -12.05 Q12.85 -12.4 13.25 -12.35 L14.6 -12.25 M21.9 9.5 L21.15 9.75 Q20.4 9.75 20.4 8.9 20.4 8.05 21.4 7.95 22.35 7.85 22.35 8.8 L21.9 9.5 M19.8 9.75 L19.9 9.75 20.0 10.15 Q20.0 11.0 18.85 11.0 L18.25 10.9 18.1 10.8 18.0 10.4 18.4 9.9 19.8 9.75 M16.25 11.8 Q16.25 12.6 13.35 13.85 10.1 15.25 7.0 15.25 5.65 15.25 5.2 14.65 L5.05 14.05 Q5.05 13.1 10.65 11.75 16.25 10.4 16.25 11.8 M-22.0 -8.25 Q-25.55 -6.2 -26.75 -5.0 L-28.5 -2.1 Q-29.95 0.25 -30.6 0.25 -31.8 0.25 -31.75 -0.9 -31.75 -4.6 -25.25 -8.95 -22.65 -10.7 -20.8 -11.1 -18.75 -11.55 -18.75 -10.1 -18.75 -10.0 -22.0 -8.25 M-16.5 13.15 Q-17.75 13.15 -20.85 11.3 -23.75 9.6 -23.75 9.25 L-23.75 8.9 -23.6 8.75 Q-19.3 8.6 -15.1 12.25 -15.1 13.15 -16.5 13.15 M-28.85 3.3 L-29.05 4.75 -29.15 4.9 -29.6 5.05 Q-30.45 5.05 -30.85 3.9 L-31.1 3.0 Q-31.1 1.5 -29.95 1.9 -28.85 2.3 -28.85 3.3 M-28.4 5.75 Q-27.8 5.75 -27.0 6.55 -26.3 7.3 -26.3 7.5 -26.3 7.85 -26.65 8.1 L-27.1 8.25 Q-27.85 8.25 -28.6 7.4 L-29.25 6.4 -29.25 5.85 -28.4 5.75" fill="#ffffff" fill-rule="evenodd" stroke="none"/>
  </g>
</svg>
