<?xml version="1.0" encoding="UTF-8" standalone="no"?>
<svg xmlns:ffdec="https://www.free-decompiler.com/flash" xmlns:xlink="http://www.w3.org/1999/xlink" ffdec:objectType="shape" height="29.9px" width="60.0px" xmlns="http://www.w3.org/2000/svg">
  <g transform="matrix(1.0, 0.0, 0.0, 1.0, 31.75, 15.65)">
    <path d="M6.1 -13.25 L0.15 -13.55 Q-5.25 -13.9 -5.25 -14.45 -5.25 -15.05 -4.75 -15.25 L0.5 -15.6 5.4 -15.15 7.25 -13.8 Q6.9 -13.25 6.1 -13.25 M15.1 -11.75 Q14.7 -11.35 14.35 -11.35 13.05 -11.35 11.45 -12.0 9.85 -12.6 9.85 -13.0 9.85 -14.25 12.45 -13.6 14.85 -13.05 15.5 -12.25 L15.1 -11.75 M26.75 4.6 L26.75 3.85 28.0 3.85 28.25 4.25 28.0 4.6 27.45 4.75 26.9 4.65 26.75 4.6 M26.5 6.5 Q26.5 8.3 20.85 11.25 15.45 14.0 12.9 14.0 11.65 14.0 11.65 13.15 11.65 12.2 15.85 10.5 L20.5 8.85 Q21.25 8.6 24.05 5.7 26.5 3.65 26.5 6.5 M-27.55 -5.25 Q-27.55 -4.45 -28.65 -2.25 -29.8 -0.05 -29.8 1.5 L-29.45 2.4 -29.15 3.3 -29.4 3.9 Q-29.7 4.25 -30.05 4.25 -31.2 4.25 -31.55 2.85 L-31.75 1.4 Q-31.75 -0.65 -30.8 -2.4 L-28.1 -6.3 Q-27.55 -5.9 -27.55 -5.25 M-11.75 14.0 L-12.35 14.25 -15.85 13.4 Q-18.5 12.45 -19.0 11.8 L-14.95 11.6 Q-11.5 12.1 -11.5 13.4 L-11.75 14.0 M-24.0 10.35 Q-24.85 10.35 -27.0 7.65 -27.0 4.65 -22.75 9.65 -23.35 10.35 -24.0 10.35" fill="#ffffff" fill-rule="evenodd" stroke="none"/>
  </g>
</svg>
