<?xml version="1.0" encoding="UTF-8" standalone="no"?>
<svg xmlns:ffdec="https://www.free-decompiler.com/flash" xmlns:xlink="http://www.w3.org/1999/xlink" ffdec:objectType="shape" height="30.6px" width="59.4px" xmlns="http://www.w3.org/2000/svg">
  <g transform="matrix(1.0, 0.0, 0.0, 1.0, 31.15, 15.6)">
    <path d="M1.05 -14.15 L1.0 -14.55 Q1.0 -14.95 1.35 -15.0 L2.3 -15.0 2.55 -14.55 2.35 -14.15 1.8 -14.0 1.25 -14.1 1.05 -14.15 M23.35 -7.65 L23.1 -7.0 Q22.85 -6.65 22.5 -6.65 21.8 -6.65 20.75 -7.6 19.8 -8.45 19.8 -8.65 19.8 -9.75 21.6 -9.35 23.35 -9.0 23.35 -7.65 M24.65 -5.55 Q24.65 -6.75 25.85 -6.0 27.0 -5.25 27.0 -4.25 L26.9 -3.5 Q26.95 -3.25 26.3 -3.25 25.5 -3.25 25.0 -4.35 24.65 -5.15 24.65 -5.55 M26.5 1.15 Q26.5 0.35 27.5 -0.25 L28.25 1.4 Q28.25 2.45 27.5 2.55 26.5 2.15 26.5 1.15 M26.4 5.3 L26.5 5.75 25.85 7.25 Q25.0 8.5 23.8 8.5 L23.3 8.4 23.0 8.25 22.9 7.65 Q22.9 7.2 24.05 6.3 25.35 5.3 26.25 5.35 L26.4 5.3 M21.15 9.5 L21.25 9.9 Q21.25 10.65 16.35 12.7 11.3 14.85 9.0 14.85 7.5 14.85 7.35 13.85 7.35 13.4 12.85 11.45 18.6 9.4 21.0 9.4 L21.15 9.5 M-30.0 -1.1 L-30.1 -0.35 -30.6 -0.15 -31.1 -0.55 -31.15 -1.15 Q-31.15 -2.0 -30.55 -2.0 -30.0 -2.0 -30.0 -1.1 M-9.05 -12.6 L-17.35 -11.3 -17.7 -11.45 -17.85 -12.05 Q-17.85 -12.9 -16.05 -13.45 L-11.8 -14.3 -7.15 -15.4 Q-2.95 -16.05 -1.75 -14.5 -2.5 -13.7 -9.05 -12.6 M-9.4 14.75 L-9.9 14.9 -10.6 15.0 Q-15.0 15.0 -21.05 12.45 -26.85 10.0 -26.85 8.65 -26.85 6.25 -23.6 8.05 -20.15 10.4 -19.75 10.55 L-14.3 12.3 Q-10.1 13.55 -9.3 14.25 L-9.4 14.75 M-29.35 5.45 L-29.35 5.0 -29.3 4.7 Q-30.45 4.4 -30.9 2.0 -30.9 1.4 -30.35 1.1 -29.5 2.15 -28.65 3.95 L-28.55 3.95 Q-27.75 3.95 -27.75 5.05 L-27.8 5.75 -28.0 5.9 -28.55 6.0 Q-29.25 6.0 -29.35 5.45" fill="#ffffff" fill-rule="evenodd" stroke="none"/>
  </g>
</svg>
