<?xml version="1.0" encoding="UTF-8" standalone="no"?>
<svg xmlns:ffdec="https://www.free-decompiler.com/flash" xmlns:xlink="http://www.w3.org/1999/xlink" ffdec:objectType="shape" height="31.05px" width="59.6px" xmlns="http://www.w3.org/2000/svg">
  <g transform="matrix(1.0, 0.0, 0.0, 1.0, 30.85, 14.8)">
    <path d="M12.8 -13.1 Q15.8 -12.55 20.85 -9.85 23.9 -8.1 26.25 -5.45 28.75 -2.65 28.75 -0.55 28.75 2.35 27.65 5.0 27.05 6.5 26.1 7.8 L26.75 6.4 27.5 3.8 27.9 0.85 Q27.9 -6.1 18.0 -10.25 9.6 -13.75 -0.95 -13.75 L-2.5 -13.7 -2.25 -14.35 -2.35 -14.8 8.7 -13.95 12.8 -13.1 M1.1 15.25 L3.05 14.85 10.2 14.1 14.35 13.3 14.45 13.5 14.85 14.15 Q7.25 16.25 -2.45 16.25 L-11.25 15.45 -17.7 14.0 -19.45 13.35 -19.4 13.15 -19.15 12.9 -15.25 14.05 Q-8.95 15.55 -4.1 15.55 L1.1 15.25 M-28.95 -6.25 Q-27.0 -8.65 -23.75 -10.4 -20.9 -11.9 -16.6 -13.05 L-15.6 -13.3 -15.65 -12.55 -15.6 -11.8 Q-19.9 -11.6 -24.3 -8.3 -30.15 -3.85 -30.15 3.0 L-30.0 4.65 -30.25 3.85 Q-30.85 1.9 -30.85 -1.8 -30.85 -3.85 -28.95 -6.25 M-7.45 -13.25 L-7.45 -13.2 -7.5 -13.2 -7.45 -13.25" fill="#ffffff" fill-rule="evenodd" stroke="none"/>
  </g>
</svg>
