<?xml version="1.0" encoding="UTF-8" standalone="no"?>
<svg xmlns:ffdec="https://www.free-decompiler.com/flash" xmlns:xlink="http://www.w3.org/1999/xlink" ffdec:objectType="shape" height="154.9px" width="166.65px" xmlns="http://www.w3.org/2000/svg">
  <g transform="matrix(1.0, 0.0, 0.0, 1.0, 89.95, 72.2)">
    <path d="M2.85 -53.0 Q2.85 -51.4 1.7 -50.25 0.55 -49.1 -1.05 -49.1 -2.65 -49.1 -3.8 -50.25 -4.95 -51.4 -4.95 -53.0 -4.95 -54.6 -3.8 -55.75 -2.65 -56.9 -1.05 -56.9 0.55 -56.9 1.7 -55.75 2.85 -54.6 2.85 -53.0 M1.0 -53.0 Q1.0 -53.8 0.45 -54.35 -0.1 -54.95 -0.9 -54.95 -1.7 -54.95 -2.25 -54.35 -2.8 -53.8 -2.8 -53.0 -2.8 -52.2 -2.25 -51.6 -1.7 -51.05 -0.9 -51.05 -0.1 -51.05 0.45 -51.6 1.0 -52.2 1.0 -53.0 M30.75 -56.75 Q26.75 -59.45 22.15 -58.1 L20.1 -61.7 Q8.75 -70.75 -6.25 -68.15 -18.95 -66.05 -27.1 -56.6 -29.9 -53.4 -29.2 -49.05 -28.95 -47.3 -28.3 -45.9 -33.65 -48.15 -38.9 -46.05 -42.1 -44.7 -41.3 -42.7 -42.0 -41.6 -43.95 -42.0 -48.35 -42.85 -52.7 -42.0 -66.6 -38.8 -67.4 -24.75 -67.65 -20.9 -66.35 -17.35 L-69.25 -16.6 -69.35 -16.7 -69.6 -17.05 -70.35 -16.85 Q-76.9 -15.1 -79.0 -8.35 -80.35 -3.95 -77.0 -0.25 -81.75 3.1 -78.55 8.1 -77.6 9.6 -76.0 9.7 -71.95 10.15 -68.4 8.75 L-77.1 13.65 -78.2 13.05 Q-88.25 21.65 -83.55 34.2 -81.7 39.2 -77.5 41.7 -75.05 43.2 -72.25 44.0 -75.85 56.0 -64.75 62.5 -55.4 67.95 -46.1 63.45 L-46.2 59.9 -45.1 58.1 Q-44.7 63.1 -39.6 63.75 -37.35 63.6 -35.7 62.15 -36.95 71.3 -28.45 75.5 -17.0 81.15 -8.25 72.35 L-12.45 77.2 Q-6.5 81.8 0.65 77.7 6.85 74.05 9.2 67.2 14.2 73.75 23.05 71.9 32.1 70.15 39.15 64.15 44.8 59.45 46.25 52.0 52.3 52.15 55.05 46.6 55.85 45.0 56.2 43.3 67.15 41.1 71.65 29.5 75.4 19.8 68.85 11.8 57.25 -2.15 39.5 0.3 41.95 -5.6 37.1 -10.3 36.8 -11.45 40.25 -12.95 48.55 -16.65 52.4 -24.85 57.55 -35.75 49.0 -43.5 46.95 -45.3 44.2 -45.95 39.15 -47.25 33.85 -46.8 33.0 -47.8 33.25 -51.4 33.5 -54.95 30.75 -56.75 M56.7 -10.3 Q57.75 -9.25 57.75 -7.75 57.75 -6.25 56.7 -5.15 55.6 -4.1 54.1 -4.1 52.6 -4.1 51.55 -5.15 50.45 -6.25 50.45 -7.75 50.45 -9.25 51.55 -10.3 52.6 -11.4 54.1 -11.4 55.6 -11.4 56.7 -10.3 M24.3 -62.7 L25.55 -62.7 Q29.75 -62.7 32.55 -59.75 36.5 -55.55 36.05 -50.0 42.6 -50.8 48.55 -48.0 53.9 -45.55 55.85 -40.1 61.35 -24.7 49.1 -13.55 47.55 -12.15 45.8 -11.2 43.15 -9.8 43.75 -8.4 L44.35 -3.1 Q54.25 -4.55 62.9 0.35 65.4 1.7 67.6 3.55 77.95 11.95 76.5 25.8 74.85 41.5 59.35 47.05 L58.85 48.5 Q57.55 51.7 54.65 53.8 52.0 55.8 48.75 55.65 47.25 65.95 37.65 70.95 33.05 73.3 28.05 74.95 18.3 78.35 9.4 74.1 3.95 82.85 -6.3 82.7 -16.2 82.6 -26.15 80.25 -36.9 77.65 -40.4 66.75 L-43.45 65.4 -44.6 67.0 Q-45.6 68.35 -47.15 68.75 -62.7 72.1 -73.1 59.65 -78.3 53.45 -76.55 46.35 -84.1 45.45 -87.1 38.25 -88.6 34.65 -89.35 31.1 -92.0 19.0 -82.55 11.95 -83.9 11.0 -84.65 9.3 -85.8 6.8 -85.6 4.05 -85.35 1.2 -83.55 -0.9 -86.1 -6.25 -83.95 -11.85 -81.05 -19.3 -73.3 -21.6 -73.65 -23.7 -73.6 -25.8 -73.55 -30.9 -71.0 -35.4 -64.8 -46.35 -52.35 -47.2 -47.6 -47.1 -44.2 -47.3 L-41.5 -50.05 Q-39.95 -51.5 -38.05 -52.15 L-32.05 -52.55 Q-31.55 -58.55 -27.0 -62.5 -24.1 -65.0 -20.65 -66.85 -2.85 -76.2 16.05 -69.15 19.2 -68.05 21.85 -66.05 L23.65 -64.25 Q24.25 -63.6 24.3 -62.7 M55.1 29.55 Q54.15 30.5 52.8 30.5 51.45 30.5 50.55 29.55 49.6 28.6 49.6 27.25 49.6 25.9 50.55 24.95 51.45 24.0 52.8 24.0 54.15 24.0 55.1 24.95 56.0 25.9 56.0 27.25 56.0 28.6 55.1 29.55 M54.15 27.35 Q54.15 26.7 53.7 26.25 53.2 25.8 52.55 25.8 51.9 25.8 51.45 26.25 50.95 26.7 50.95 27.35 50.95 28.0 51.45 28.45 51.9 28.9 52.55 28.9 53.2 28.9 53.7 28.45 54.15 28.0 54.15 27.35 M-10.4 61.0 Q-11.15 61.0 -11.7 61.4 -12.25 61.8 -12.25 62.4 -12.25 63.0 -11.7 63.4 -11.15 63.8 -10.4 63.8 -9.65 63.8 -9.1 63.4 -8.55 63.0 -8.55 62.4 -8.55 61.8 -9.1 61.4 -9.65 61.0 -10.4 61.0 M-12.35 60.1 Q-11.45 59.15 -10.15 59.15 -8.85 59.15 -7.9 60.1 -7.0 61.0 -7.0 62.3 -7.0 63.6 -7.9 64.55 -8.85 65.45 -10.15 65.45 -11.45 65.45 -12.35 64.55 -13.3 63.6 -13.3 62.3 -13.3 61.0 -12.35 60.1 M-70.55 25.4 Q-69.1 25.4 -68.05 26.45 -67.05 27.5 -67.05 28.95 -67.05 30.4 -68.05 31.45 -69.1 32.5 -70.55 32.5 -72.0 32.5 -73.0 31.45 -74.05 30.4 -74.05 28.95 -74.05 27.5 -73.0 26.45 -72.0 25.4 -70.55 25.4 M-70.7 30.8 L-69.15 30.8 -71.05 27.45 -71.65 27.3 Q-72.15 27.65 -72.45 28.35 L-70.7 30.8 M-5.0 46.45 Q-10.85 42.6 -15.95 47.05 -14.15 40.25 -18.7 35.05 -27.75 24.85 -41.0 24.65 L-36.65 24.0 Q-20.1 21.7 -13.7 7.05 -4.95 13.2 6.3 10.7 16.2 8.5 20.3 -0.15 L20.7 4.6 Q21.7 4.65 22.75 4.05 27.85 1.6 32.75 4.55 29.8 4.15 24.75 5.65 23.05 6.2 21.65 7.2 9.45 16.15 13.3 31.45 11.1 31.0 9.25 32.5 5.05 35.85 5.05 41.25 -2.0 40.35 -5.0 46.45 M-6.55 12.85 Q-10.05 11.75 -11.65 12.1 -16.05 21.1 -25.55 24.75 -23.6 25.6 -21.75 26.7 -12.05 32.15 -12.3 42.6 L-5.85 42.4 2.3 37.6 Q2.3 37.0 2.45 36.4 4.15 30.15 10.85 29.65 L10.7 28.8 Q9.35 20.2 11.75 12.0 2.8 15.6 -6.55 12.85 M-48.7 -16.15 Q-48.7 -16.85 -49.2 -17.3 -49.7 -17.8 -50.4 -17.8 -51.1 -17.8 -51.6 -17.3 -52.1 -16.85 -52.1 -16.15 -52.1 -15.45 -51.6 -14.95 -51.1 -14.5 -50.4 -14.5 -49.7 -14.5 -49.2 -14.95 -48.7 -15.45 -48.7 -16.15 M-47.8 -13.95 Q-48.8 -12.95 -50.25 -12.95 -51.7 -12.95 -52.7 -13.95 -53.7 -14.95 -53.7 -16.35 -53.7 -17.75 -52.7 -18.75 -51.7 -19.75 -50.25 -19.75 -48.8 -19.75 -47.8 -18.75 -46.8 -17.75 -46.8 -16.35 -46.8 -14.95 -47.8 -13.95 M52.15 -7.9 Q52.15 -7.2 52.65 -6.7 53.1 -6.25 53.8 -6.25 54.5 -6.25 55.0 -6.7 55.45 -7.2 55.45 -7.9 L55.0 -9.05 Q54.5 -9.55 53.8 -9.55 53.1 -9.55 52.65 -9.05 52.15 -8.6 52.15 -7.9" fill="#6ba66a" fill-rule="evenodd" stroke="none"/>
    <path d="M1.0 -53.0 Q1.0 -52.2 0.45 -51.6 -0.1 -51.05 -0.9 -51.05 -1.7 -51.05 -2.25 -51.6 -2.8 -52.2 -2.8 -53.0 -2.8 -53.8 -2.25 -54.35 -1.7 -54.95 -0.9 -54.95 -0.1 -54.95 0.45 -54.35 1.0 -53.8 1.0 -53.0 M2.85 -53.0 Q2.85 -54.6 1.7 -55.75 0.55 -56.9 -1.05 -56.9 -2.65 -56.9 -3.8 -55.75 -4.95 -54.6 -4.95 -53.0 -4.95 -51.4 -3.8 -50.25 -2.65 -49.1 -1.05 -49.1 0.55 -49.1 1.7 -50.25 2.85 -51.4 2.85 -53.0 M30.75 -56.75 Q33.5 -54.95 33.25 -51.4 33.0 -47.8 33.85 -46.8 39.15 -47.25 44.2 -45.95 46.95 -45.3 49.0 -43.5 57.55 -35.75 52.4 -24.85 48.55 -16.65 40.25 -12.95 36.8 -11.45 37.1 -10.3 41.95 -5.6 39.5 0.3 57.25 -2.15 68.85 11.8 75.4 19.8 71.65 29.5 67.15 41.1 56.2 43.3 55.85 45.0 55.05 46.6 52.3 52.15 46.25 52.0 44.8 59.45 39.15 64.15 32.1 70.15 23.05 71.9 14.2 73.75 9.2 67.2 6.85 74.05 0.65 77.7 -6.5 81.8 -12.45 77.2 L-8.25 72.35 Q-17.0 81.15 -28.45 75.5 -36.95 71.3 -35.7 62.15 -37.35 63.6 -39.6 63.75 -44.7 63.1 -45.1 58.1 L-46.2 59.9 -46.1 63.45 Q-55.4 67.95 -64.75 62.5 -75.85 56.0 -72.25 44.0 -75.05 43.2 -77.5 41.7 -81.7 39.2 -83.55 34.2 -88.25 21.65 -78.2 13.05 L-77.1 13.65 -68.4 8.75 Q-71.95 10.15 -76.0 9.7 -77.6 9.6 -78.55 8.1 -81.75 3.1 -77.0 -0.25 -80.35 -3.95 -79.0 -8.35 -76.9 -15.1 -70.35 -16.85 L-69.6 -17.05 -69.35 -16.7 -69.25 -16.6 -66.35 -17.35 Q-67.65 -20.9 -67.4 -24.75 -66.6 -38.8 -52.7 -42.0 -48.35 -42.85 -43.95 -42.0 -42.0 -41.6 -41.3 -42.7 -42.1 -44.7 -38.9 -46.05 -33.65 -48.15 -28.3 -45.9 -28.95 -47.3 -29.2 -49.05 -29.9 -53.4 -27.1 -56.6 -18.95 -66.05 -6.25 -68.15 8.75 -70.75 20.1 -61.7 L22.15 -58.1 Q26.75 -59.45 30.75 -56.75 M52.15 -7.9 Q52.15 -8.6 52.65 -9.05 53.1 -9.55 53.8 -9.55 54.5 -9.55 55.0 -9.05 L55.45 -7.9 Q55.45 -7.2 55.0 -6.7 54.5 -6.25 53.8 -6.25 53.1 -6.25 52.65 -6.7 52.15 -7.2 52.15 -7.9 M-47.8 -13.95 Q-46.8 -14.95 -46.8 -16.35 -46.8 -17.75 -47.8 -18.75 -48.8 -19.75 -50.25 -19.75 -51.7 -19.75 -52.7 -18.75 -53.7 -17.75 -53.7 -16.35 -53.7 -14.95 -52.7 -13.95 -51.7 -12.95 -50.25 -12.95 -48.8 -12.95 -47.8 -13.95 M-48.7 -16.15 Q-48.7 -15.45 -49.2 -14.95 -49.7 -14.5 -50.4 -14.5 -51.1 -14.5 -51.6 -14.95 -52.1 -15.45 -52.1 -16.15 -52.1 -16.85 -51.6 -17.3 -51.1 -17.8 -50.4 -17.8 -49.7 -17.8 -49.2 -17.3 -48.7 -16.85 -48.7 -16.15 M-6.55 12.85 Q2.8 15.6 11.75 12.0 9.35 20.2 10.7 28.8 L10.85 29.65 Q4.15 30.15 2.45 36.4 2.3 37.0 2.3 37.6 L-5.85 42.4 -12.3 42.6 Q-12.05 32.15 -21.75 26.7 -23.6 25.6 -25.55 24.75 -16.05 21.1 -11.65 12.1 -10.05 11.75 -6.55 12.85 M-5.0 46.45 Q-2.0 40.35 5.05 41.25 5.05 35.85 9.25 32.5 11.1 31.0 13.3 31.45 9.45 16.15 21.65 7.2 23.05 6.2 24.75 5.65 29.8 4.15 32.75 4.55 27.85 1.6 22.75 4.05 21.7 4.65 20.7 4.6 L20.3 -0.15 Q16.2 8.5 6.3 10.7 -4.95 13.2 -13.7 7.05 -20.1 21.7 -36.65 24.0 L-41.0 24.65 Q-27.75 24.85 -18.7 35.05 -14.15 40.25 -15.95 47.05 -10.85 42.6 -5.0 46.45 M-70.7 30.8 L-72.45 28.35 Q-72.15 27.65 -71.65 27.3 L-71.05 27.45 -69.15 30.8 -70.7 30.8 M-70.55 25.4 Q-72.0 25.4 -73.0 26.45 -74.05 27.5 -74.05 28.95 -74.05 30.4 -73.0 31.45 -72.0 32.5 -70.55 32.5 -69.1 32.5 -68.05 31.45 -67.05 30.4 -67.05 28.95 -67.05 27.5 -68.05 26.45 -69.1 25.4 -70.55 25.4 M-12.35 60.1 Q-13.3 61.0 -13.3 62.3 -13.3 63.6 -12.35 64.55 -11.45 65.45 -10.15 65.45 -8.85 65.45 -7.9 64.55 -7.0 63.6 -7.0 62.3 -7.0 61.0 -7.9 60.1 -8.85 59.15 -10.15 59.15 -11.45 59.15 -12.35 60.1 M-10.4 61.0 Q-9.65 61.0 -9.1 61.4 -8.55 61.8 -8.55 62.4 -8.55 63.0 -9.1 63.4 -9.65 63.8 -10.4 63.8 -11.15 63.8 -11.7 63.4 -12.25 63.0 -12.25 62.4 -12.25 61.8 -11.7 61.4 -11.15 61.0 -10.4 61.0 M54.15 27.35 Q54.15 28.0 53.7 28.45 53.2 28.9 52.55 28.9 51.9 28.9 51.45 28.45 50.95 28.0 50.95 27.35 50.95 26.7 51.45 26.25 51.9 25.8 52.55 25.8 53.2 25.8 53.7 26.25 54.15 26.7 54.15 27.35 M55.1 29.55 Q56.0 28.6 56.0 27.25 56.0 25.9 55.1 24.95 54.15 24.0 52.8 24.0 51.45 24.0 50.55 24.95 49.6 25.9 49.6 27.25 49.6 28.6 50.55 29.55 51.45 30.5 52.8 30.5 54.15 30.5 55.1 29.55" fill="#507450" fill-rule="evenodd" stroke="none"/>
  </g>
</svg>
