<?xml version="1.0" encoding="UTF-8" standalone="no"?>
<svg xmlns:ffdec="https://www.free-decompiler.com/flash" xmlns:xlink="http://www.w3.org/1999/xlink" ffdec:objectType="shape" height="155.25px" width="158.1px" xmlns="http://www.w3.org/2000/svg">
  <g transform="matrix(1.0, 0.0, 0.0, 1.0, 89.8, 72.6)">
    <path d="M46.25 -51.5 L48.0 -45.75 48.55 -43.85 49.0 -42.75 49.5 -39.45 Q50.9 -39.35 53.3 -38.35 59.1 -35.9 59.1 -34.65 L59.05 -34.25 60.0 -32.6 61.9 -28.1 Q62.25 -27.05 62.25 -24.65 62.25 -23.15 61.65 -21.15 L61.0 -19.6 61.85 -18.6 Q62.9 -16.65 62.9 -12.45 62.9 -9.25 58.95 -5.25 L57.85 -4.15 59.45 -2.4 59.8 -2.3 Q61.55 -1.65 62.3 -0.45 L63.1 1.75 63.55 3.55 Q64.55 5.5 64.55 6.95 L64.35 8.55 64.3 10.5 Q64.3 12.45 63.65 14.6 L62.8 16.7 Q65.65 18.75 66.45 21.2 L67.55 24.25 Q68.3 26.95 68.3 29.75 68.3 33.55 67.05 36.25 L66.35 37.55 64.8 40.35 64.8 41.45 64.95 44.85 63.9 49.55 Q62.75 53.65 62.0 54.6 60.6 56.4 56.0 59.45 51.0 62.75 48.65 62.85 45.1 67.3 31.35 70.4 L31.15 70.4 31.0 70.55 Q30.35 72.45 26.0 75.15 20.7 78.45 16.4 78.45 13.2 78.45 12.3 76.55 L12.3 76.5 12.15 76.4 Q10.35 75.25 10.25 73.95 L10.15 73.95 7.4 73.7 Q10.05 75.45 10.05 78.15 10.05 79.4 9.25 80.75 8.1 82.65 5.9 82.65 3.05 82.65 1.2 80.35 L0.3 78.65 -1.3 78.8 Q-4.25 78.8 -5.75 77.6 L-5.85 77.5 -6.75 78.15 Q-9.5 80.0 -12.35 80.0 -18.45 80.0 -21.55 77.1 -23.8 75.05 -23.9 72.5 -25.3 72.25 -26.1 71.25 L-26.6 70.9 Q-28.7 71.9 -30.3 71.9 -33.85 71.9 -36.3 67.8 L-36.7 68.2 Q-39.6 71.55 -42.55 71.55 -48.0 71.55 -51.3 67.7 -53.65 65.0 -53.65 63.15 -53.65 61.55 -53.1 60.7 -55.55 60.05 -56.5 56.9 L-56.45 56.35 -57.75 56.35 Q-61.05 56.35 -63.2 54.1 -64.45 52.8 -64.7 51.95 L-66.85 52.15 Q-72.35 52.15 -75.7 48.75 -78.2 46.2 -78.3 43.95 -82.2 42.75 -85.35 37.4 -88.5 32.0 -88.5 28.4 -88.5 23.5 -88.0 21.55 -87.7 20.4 -87.2 19.55 -86.85 18.2 -86.05 17.3 -87.65 15.9 -88.65 13.0 -89.65 10.2 -89.8 7.35 -89.8 1.95 -86.05 -2.8 L-85.0 -4.0 -86.2 -6.4 Q-87.5 -9.65 -87.5 -10.85 -87.5 -17.0 -83.25 -20.65 -82.1 -21.65 -81.1 -22.0 L-81.35 -22.95 -81.9 -26.65 Q-81.9 -33.9 -73.5 -36.4 -70.45 -37.3 -67.95 -36.9 -67.2 -39.15 -64.2 -40.3 L-63.3 -40.6 -63.3 -41.1 Q-63.3 -47.35 -59.1 -49.25 L-57.9 -49.65 -57.85 -50.3 Q-57.85 -58.4 -48.35 -60.25 -44.7 -60.95 -41.8 -60.1 L-40.75 -59.7 Q-39.6 -60.65 -37.45 -61.4 -32.45 -63.1 -26.5 -61.65 -25.0 -61.15 -22.25 -57.55 L-21.15 -56.05 Q-20.2 -56.9 -18.65 -57.65 L-17.0 -58.3 Q-16.8 -64.2 -8.25 -68.5 -4.85 -70.2 -2.25 -70.35 L-1.65 -70.35 Q0.2 -71.6 4.6 -72.25 12.45 -73.35 19.75 -71.05 23.9 -70.1 29.3 -67.45 35.2 -64.6 37.05 -62.25 L42.15 -56.75 Q45.6 -53.2 46.25 -51.5 M4.9 -65.5 L4.6 -65.6 -0.95 -66.1 Q-3.4 -66.25 -5.25 -65.35 L-5.55 -65.15 -6.85 -64.9 -7.75 -64.25 Q-9.15 -63.6 -10.35 -62.65 L-11.5 -61.6 -12.7 -60.4 -12.85 -59.8 Q-13.75 -58.2 -13.75 -56.4 L-13.6 -54.6 Q-16.1 -54.2 -17.75 -51.7 -19.75 -48.6 -19.75 -44.4 L-19.7 -44.05 Q-21.3 -43.85 -23.3 -42.8 -29.4 -39.55 -29.4 -35.2 L-29.4 -35.05 -29.35 -34.7 Q-29.25 -33.05 -28.75 -31.45 L-28.5 -30.8 -29.05 -30.45 Q-33.25 -27.5 -33.25 -20.75 -33.0 -19.9 -32.35 -19.15 -31.0 -17.65 -28.9 -17.65 L-26.1 -18.1 Q-26.8 -16.5 -26.8 -14.8 -26.8 -12.35 -25.7 -9.8 -23.8 -5.4 -19.5 -5.4 -17.25 -5.4 -15.0 -6.5 L-15.05 -5.85 Q-15.05 -2.7 -11.75 1.2 -6.9 6.85 2.0 6.85 5.95 6.85 9.0 5.65 9.6 7.2 11.5 9.2 14.95 12.8 19.8 12.8 24.75 12.8 28.25 8.6 L28.45 8.35 Q29.7 9.4 31.25 9.4 36.3 9.4 38.5 6.5 39.35 5.4 39.7 4.1 41.15 4.8 43.5 4.8 47.7 4.8 49.9 1.5 51.1 -0.3 51.35 -2.05 55.1 -2.95 57.0 -6.6 58.5 -9.4 58.5 -12.25 58.5 -14.15 57.7 -15.4 L57.15 -16.65 56.95 -17.05 56.5 -17.05 55.6 -17.25 56.85 -19.25 Q58.35 -22.25 58.35 -23.9 58.35 -33.35 48.75 -35.0 L43.85 -34.7 44.5 -36.75 45.15 -39.4 Q45.15 -42.5 39.9 -53.75 L37.05 -56.7 34.75 -58.05 Q33.3 -60.35 30.05 -61.7 27.1 -63.55 23.15 -65.2 15.4 -68.55 8.9 -68.55 7.3 -68.55 3.05 -66.9 L4.8 -65.7 4.9 -65.5 M11.8 -25.4 L12.2 -25.5 Q14.0 -25.75 16.45 -24.7 18.8 -23.65 20.3 -22.3 21.7 -23.25 23.6 -23.4 L23.7 -23.15 21.35 -21.1 Q22.35 -19.7 22.6 -18.0 L23.4 -18.2 Q22.95 -19.1 23.15 -20.1 23.15 -22.35 24.95 -24.65 L25.55 -25.25 Q22.6 -25.7 21.3 -28.25 20.55 -29.75 20.6 -31.0 20.6 -31.65 20.9 -32.4 18.45 -30.9 15.75 -30.9 14.35 -30.9 13.25 -31.35 13.15 -28.65 11.75 -25.5 L11.7 -25.4 11.8 -25.4 M25.05 -37.1 L24.9 -36.95 Q23.35 -35.3 22.8 -33.8 L22.5 -33.55 22.6 -33.2 22.4 -32.0 Q22.4 -31.5 22.7 -30.9 L22.9 -29.65 Q23.55 -27.75 25.7 -27.75 L27.25 -27.8 30.05 -27.5 Q31.5 -27.5 33.0 -28.4 L33.0 -28.35 Q33.0 -27.95 32.5 -27.5 L30.25 -26.15 30.1 -26.0 29.15 -25.6 28.45 -24.9 28.7 -24.7 28.35 -24.3 28.3 -24.25 27.05 -22.5 Q25.5 -19.8 25.5 -16.45 L25.75 -15.65 Q25.1 -15.9 24.75 -16.45 L22.65 -16.15 22.65 -16.1 Q22.2 -18.75 19.7 -20.7 L18.2 -21.7 Q16.2 -23.5 13.05 -23.55 L8.9 -23.85 9.0 -24.0 Q11.05 -26.5 11.05 -28.1 11.05 -31.5 7.55 -34.6 L7.45 -34.7 Q7.95 -35.15 8.7 -34.95 L8.7 -35.45 10.0 -34.65 Q12.75 -33.25 16.2 -33.25 19.8 -33.25 23.35 -36.15 L24.95 -37.6 25.05 -37.1 M60.0 -18.5 L59.85 -18.45 60.0 -18.3 60.0 -18.45 60.05 -18.55 60.0 -18.5 M60.3 12.15 Q60.3 9.8 59.5 5.0 59.05 2.45 56.8 0.85 L55.7 -0.05 54.75 1.55 Q50.8 7.35 42.25 7.35 L41.1 8.9 45.15 9.8 46.2 10.15 Q47.0 10.5 47.65 11.0 48.75 11.65 49.85 12.6 L53.55 12.35 Q55.95 13.1 57.9 13.95 58.5 14.05 59.45 14.5 L59.8 13.55 60.3 12.2 60.3 12.15 M48.75 17.75 L47.5 15.85 Q44.45 11.85 39.1 13.25 L37.0 14.0 Q34.75 14.3 33.35 15.35 32.75 15.8 32.1 16.9 30.85 17.9 30.1 18.8 L25.35 19.0 Q20.95 19.9 18.05 22.65 15.3 25.25 14.85 28.75 13.15 28.8 11.25 29.5 2.85 32.75 2.85 42.3 L2.9 43.5 Q0.4 41.5 -3.65 41.5 -6.9 41.5 -9.2 43.9 L-9.95 44.85 -10.0 44.55 -10.65 44.7 -10.2 45.2 -10.35 45.4 -14.25 45.3 Q-20.0 45.9 -22.05 49.75 -22.6 50.75 -22.95 53.75 L-23.25 58.15 -23.2 58.95 -23.5 59.0 Q-24.3 59.25 -24.85 59.95 L-24.9 59.85 -25.15 60.4 Q-25.9 61.7 -25.9 64.0 L-25.0 67.55 Q-23.65 70.75 -21.1 71.05 L-21.15 71.3 Q-21.15 72.6 -19.9 74.1 -17.9 76.5 -13.75 76.5 -9.9 76.5 -7.25 74.4 L-6.3 73.55 -6.1 73.75 Q-4.55 75.5 -1.5 75.5 0.35 75.5 1.85 74.0 3.05 72.8 3.05 72.05 L2.95 71.3 3.0 71.3 2.95 71.25 2.35 70.45 Q1.55 69.3 1.55 68.45 L1.75 66.9 Q1.35 65.75 1.35 64.7 1.35 62.5 2.5 61.35 4.0 59.85 7.55 59.95 L6.55 60.6 Q3.8 62.85 3.8 65.65 3.8 67.75 5.25 69.55 7.7 72.6 13.35 72.8 L13.85 73.75 Q15.25 76.0 18.4 76.0 23.4 76.0 26.95 71.1 28.4 69.1 29.05 67.55 L29.25 67.4 29.25 67.3 Q29.25 67.0 29.55 66.75 L33.05 67.15 Q37.35 67.15 41.3 63.75 43.5 61.9 44.35 60.35 L47.25 60.5 Q52.25 60.5 55.3 57.6 57.1 55.9 57.6 54.1 L57.85 53.8 59.4 51.3 Q60.35 49.65 60.75 46.5 60.85 45.45 61.1 44.65 58.5 46.95 55.4 48.05 L54.95 47.95 54.75 47.4 55.5 46.65 55.1 46.6 Q58.6 44.2 62.35 37.55 63.1 36.3 63.7 32.45 64.3 28.95 64.3 26.65 64.3 18.55 56.3 17.05 53.45 16.55 50.75 17.1 49.4 17.35 48.75 17.75 M49.8 15.9 L49.85 15.8 49.75 15.7 49.75 15.9 49.8 15.9 M51.7 14.3 L51.75 14.35 51.85 14.3 51.7 14.3 M28.9 13.15 Q26.35 16.1 19.05 16.1 L14.25 15.6 11.75 15.05 Q9.0 15.05 7.25 13.4 6.0 12.2 6.0 11.45 L6.0 11.3 2.25 11.3 Q-8.25 11.3 -12.45 7.15 -14.35 6.0 -15.65 4.05 L-16.4 2.7 -16.8 2.75 -17.0 2.75 Q-16.9 3.85 -17.15 5.15 -17.15 8.4 -20.75 11.85 -22.8 14.65 -26.2 17.0 -30.25 19.75 -34.0 20.9 L-32.4 21.3 Q-31.7 21.05 -31.0 22.0 L-30.4 22.85 Q-28.45 23.9 -26.8 27.3 L-26.6 27.7 -25.45 30.45 Q-24.65 32.95 -24.65 35.05 -24.65 36.9 -25.7 39.05 L-25.85 39.35 -25.85 39.4 Q-25.3 39.2 -25.1 39.8 -24.95 40.2 -24.95 42.0 -24.95 43.95 -26.05 45.4 -26.3 46.3 -27.8 47.1 -29.6 48.1 -31.7 48.1 L-32.85 48.05 -33.05 48.7 Q-33.4 50.0 -33.95 50.6 L-35.55 52.15 Q-34.4 52.7 -33.7 54.15 L-33.35 55.0 Q-31.7 56.5 -31.7 58.35 -31.7 59.3 -32.5 60.35 L-33.05 61.65 Q-33.7 63.05 -34.6 63.65 L-34.35 64.5 -34.65 65.5 -33.7 66.55 -32.7 67.25 -31.85 67.4 -28.75 67.0 -29.5 63.55 Q-29.5 59.75 -27.85 57.65 L-26.9 56.25 -26.0 55.6 -26.25 53.65 Q-26.25 45.6 -16.75 41.95 -13.1 40.55 -10.2 40.8 L-8.95 41.05 Q-7.3 39.0 -3.15 38.9 L-0.6 39.1 -0.6 39.05 Q-0.6 29.0 6.95 25.9 9.65 24.8 12.15 25.15 13.15 19.75 21.05 17.65 24.45 16.75 27.25 17.05 L27.3 17.05 Q27.8 15.4 29.4 13.95 L29.6 13.7 29.85 13.35 28.9 13.15 M4.9 31.25 L4.1 32.15 4.35 31.85 4.9 31.25 M36.95 36.2 Q36.95 37.3 35.75 38.85 34.4 40.65 32.75 40.65 30.85 40.65 30.0 39.05 L29.5 37.4 Q29.5 31.9 33.25 31.75 34.7 31.7 35.8 32.85 36.95 34.1 36.95 36.2 M5.15 79.85 Q7.5 79.85 7.5 77.9 7.5 75.8 5.1 75.4 L3.65 75.55 3.5 75.5 3.25 75.7 3.25 75.85 Q2.65 76.5 2.65 77.9 L2.95 78.8 Q3.6 79.85 5.15 79.85 M34.9 36.35 Q34.9 34.1 32.95 34.05 31.0 33.95 31.0 36.4 L31.1 37.55 31.55 38.25 Q31.75 38.65 32.3 38.65 L32.6 38.65 32.9 38.65 Q33.95 38.65 34.5 37.85 34.9 37.2 34.9 36.35 M-81.65 -2.1 Q-83.45 -1.4 -84.1 -0.2 L-84.9 1.95 -84.95 2.2 Q-86.0 4.1 -86.0 6.2 -86.2 8.85 -85.45 11.35 -83.95 16.3 -79.0 16.3 L-77.15 16.25 -77.15 16.45 Q-77.15 18.2 -75.1 19.9 -72.7 21.9 -69.1 22.0 L-64.6 20.25 -63.75 21.6 -63.4 21.95 -63.4 22.0 -63.3 22.0 Q-61.85 23.15 -58.9 23.25 -58.9 24.0 -59.9 24.8 -61.15 25.8 -62.9 25.8 -64.75 25.8 -65.85 24.9 L-66.15 24.6 Q-67.6 25.35 -69.25 25.35 -73.1 25.35 -76.6 22.55 -78.55 20.95 -79.2 19.85 L-81.4 20.0 -83.9 19.75 -84.0 20.05 -84.75 25.05 -84.5 28.6 -84.45 28.8 Q-84.05 31.5 -82.7 34.5 -80.2 40.0 -75.35 41.25 L-75.35 41.55 Q-75.35 43.9 -73.45 46.05 -70.2 49.6 -62.85 49.6 L-60.9 49.3 -60.9 49.5 -61.0 49.95 -60.1 50.7 -60.0 50.8 Q-58.75 52.55 -55.65 52.55 -53.15 52.55 -50.9 51.15 L-43.95 49.8 -42.35 50.3 Q-41.05 50.8 -40.5 51.25 -39.0 50.95 -38.1 50.15 -36.5 48.8 -36.0 46.8 L-35.95 46.65 Q-36.5 45.95 -36.5 45.05 L-36.45 44.75 -36.55 44.55 -36.5 44.05 -36.35 43.65 -36.25 44.15 Q-35.25 46.35 -33.05 46.35 -30.7 46.35 -29.15 44.65 -27.9 43.3 -27.9 42.05 -27.9 38.8 -31.2 38.4 -30.0 36.25 -30.0 34.4 -30.0 30.65 -31.25 28.1 -32.75 25.0 -35.8 23.75 L-39.1 21.9 Q-41.4 20.8 -43.05 20.75 L-42.6 20.25 -42.65 19.7 -42.65 19.55 Q-31.25 19.45 -24.95 10.85 -20.4 4.6 -20.4 -1.4 -20.4 -3.75 -22.2 -3.45 L-22.65 -3.3 -23.25 -3.4 Q-25.1 -3.6 -26.15 -4.2 -27.45 -4.95 -28.0 -5.9 L-28.7 -7.8 -29.45 -11.55 -29.9 -14.95 -29.65 -15.85 -30.05 -15.85 -31.65 -15.3 Q-35.7 -15.3 -37.15 -17.75 -37.85 -18.9 -37.85 -20.5 -37.85 -27.45 -33.35 -30.25 L-32.3 -30.8 Q-33.2 -31.5 -33.65 -32.75 -34.15 -34.1 -34.1 -35.6 -34.1 -41.55 -30.95 -44.7 -27.95 -47.65 -23.15 -46.8 L-23.3 -48.6 -23.0 -51.0 -23.6 -52.2 -23.55 -53.15 Q-23.55 -56.4 -26.1 -58.05 -28.4 -59.55 -31.7 -59.1 -35.05 -58.7 -37.35 -56.6 L-38.9 -54.7 -39.35 -55.15 -39.2 -55.5 -38.85 -55.95 -39.35 -56.1 -40.0 -55.65 -41.65 -56.65 Q-45.85 -58.8 -49.6 -56.0 -53.4 -53.15 -54.25 -52.0 -55.0 -50.9 -55.0 -48.6 L-55.0 -48.0 -55.05 -47.95 -55.0 -47.9 -54.95 -47.3 Q-55.9 -47.35 -57.05 -46.4 -59.75 -44.15 -59.75 -40.1 L-59.45 -38.2 -61.0 -38.25 Q-65.1 -37.8 -65.45 -32.65 L-65.95 -32.95 Q-68.2 -34.2 -71.2 -33.85 -74.4 -33.45 -76.45 -31.35 -78.85 -28.9 -78.85 -24.75 -78.5 -22.25 -77.75 -19.85 L-77.45 -19.0 -79.15 -18.55 -79.15 -18.5 -79.65 -18.75 Q-81.15 -18.75 -81.95 -16.4 -83.55 -14.3 -83.55 -10.75 -83.35 -8.1 -82.3 -5.55 -81.5 -3.65 -80.4 -2.45 L-80.7 -2.25 -81.3 -2.4 -81.7 -2.25 -81.65 -2.1 M-22.85 -45.65 L-22.95 -45.95 -23.1 -45.9 -22.9 -45.65 -22.85 -45.65 M-56.55 12.2 Q-57.35 13.25 -58.7 13.25 -60.8 13.25 -61.35 11.55 L-61.5 9.4 Q-61.5 7.2 -58.7 7.35 -55.95 7.45 -55.95 10.5 -55.95 11.35 -56.55 12.2 M-59.6 11.3 L-58.75 11.7 Q-58.1 11.7 -57.65 11.15 L-57.3 10.5 Q-57.3 9.1 -58.8 9.25 -60.3 9.45 -60.3 10.1 -60.3 10.8 -59.6 11.3 M-43.55 35.75 Q-43.55 37.0 -44.1 38.15 -45.1 40.05 -47.35 40.05 -49.75 40.05 -50.65 37.85 L-51.15 35.45 Q-51.15 32.45 -47.35 32.75 -43.55 33.0 -43.55 35.75 M-47.2 34.7 Q-49.35 34.7 -49.35 36.7 -49.35 37.3 -48.8 37.95 L-47.9 38.55 Q-46.2 38.55 -45.45 37.5 -45.05 36.95 -45.05 36.3 -45.05 34.75 -47.2 34.7 M-44.25 52.95 Q-45.85 52.95 -47.1 53.65 L-48.8 53.45 Q-52.5 53.75 -52.5 57.4 L-52.25 59.0 Q-51.65 60.5 -49.5 60.5 L-48.55 60.45 Q-49.6 61.7 -49.6 63.25 -49.6 64.65 -49.0 65.4 -47.6 67.25 -43.3 67.25 -40.65 67.25 -39.4 65.65 -38.6 64.6 -38.6 63.4 L-38.55 62.6 -38.8 61.7 Q-37.3 61.4 -36.05 60.05 -34.75 58.65 -34.75 57.6 -34.75 56.2 -35.65 55.45 -36.75 53.6 -40.05 53.0 L-43.2 53.05 -44.25 52.95 M-13.5 57.6 Q-11.25 57.7 -9.7 59.05 -8.0 60.55 -8.0 63.0 -8.0 64.75 -8.7 66.05 -9.85 68.35 -12.85 68.35 -16.75 68.35 -18.25 65.4 L-19.0 62.4 Q-19.0 60.05 -17.3 58.75 -15.7 57.5 -13.5 57.6 M-13.55 60.55 Q-16.15 60.05 -16.15 62.0 -16.15 63.1 -15.65 63.85 L-14.5 64.9 -14.4 64.9 Q-11.35 64.9 -11.35 62.9 -11.35 62.05 -11.6 61.5 -12.25 60.8 -13.55 60.55" fill="#6ba66a" fill-rule="evenodd" stroke="none"/>
    <path d="M11.75 -25.5 Q13.15 -28.65 13.25 -31.35 14.35 -30.9 15.75 -30.9 18.45 -30.9 20.9 -32.4 20.6 -31.65 20.6 -31.0 20.55 -29.75 21.3 -28.25 22.6 -25.7 25.55 -25.25 L24.95 -24.65 Q23.15 -22.35 23.15 -20.1 22.95 -19.1 23.4 -18.2 L22.6 -18.0 Q22.35 -19.7 21.35 -21.1 L23.7 -23.15 23.6 -23.4 Q21.7 -23.25 20.3 -22.3 18.8 -23.65 16.45 -24.7 14.0 -25.75 12.2 -25.5 L11.8 -25.4 11.75 -25.5 M4.9 -65.5 L4.8 -65.7 3.05 -66.9 Q7.3 -68.55 8.9 -68.55 15.4 -68.55 23.15 -65.2 27.1 -63.55 30.05 -61.7 33.3 -60.35 34.75 -58.05 L37.05 -56.7 39.9 -53.75 Q45.15 -42.5 45.15 -39.4 L44.5 -36.75 43.85 -34.7 48.75 -35.0 Q58.35 -33.35 58.35 -23.9 58.35 -22.25 56.85 -19.25 L55.6 -17.25 56.5 -17.05 56.95 -17.05 57.15 -16.65 57.7 -15.4 Q58.5 -14.15 58.5 -12.25 58.5 -9.4 57.0 -6.6 55.1 -2.95 51.35 -2.05 51.1 -0.3 49.9 1.5 47.7 4.8 43.5 4.8 41.15 4.8 39.7 4.1 39.35 5.4 38.5 6.5 36.3 9.4 31.25 9.4 29.7 9.4 28.45 8.35 L28.25 8.6 Q24.75 12.8 19.8 12.8 14.95 12.8 11.5 9.2 9.6 7.2 9.0 5.65 5.95 6.85 2.0 6.85 -6.9 6.85 -11.75 1.2 -15.05 -2.7 -15.05 -5.85 L-15.0 -6.5 Q-17.25 -5.4 -19.5 -5.4 -23.8 -5.4 -25.7 -9.8 -26.8 -12.35 -26.8 -14.8 -26.8 -16.5 -26.1 -18.1 L-28.9 -17.65 Q-31.0 -17.65 -32.35 -19.15 -33.0 -19.9 -33.25 -20.75 -33.25 -27.5 -29.05 -30.45 L-28.5 -30.8 -28.75 -31.45 Q-29.25 -33.05 -29.35 -34.7 L-29.4 -35.05 -29.4 -35.2 Q-29.4 -39.55 -23.3 -42.8 -21.3 -43.85 -19.7 -44.05 L-19.75 -44.4 Q-19.75 -48.6 -17.75 -51.7 -16.1 -54.2 -13.6 -54.6 L-13.75 -56.4 Q-13.75 -58.2 -12.85 -59.8 L-12.7 -60.4 -11.5 -61.6 -10.35 -62.65 Q-9.15 -63.6 -7.75 -64.25 L-6.85 -64.9 -5.55 -65.15 -5.25 -65.35 Q-3.4 -66.25 -0.95 -66.1 L4.6 -65.6 4.9 -65.5 M25.05 -37.1 L24.95 -37.6 23.35 -36.15 Q19.8 -33.25 16.2 -33.25 12.75 -33.25 10.0 -34.65 L8.7 -35.45 8.7 -34.95 Q7.95 -35.15 7.45 -34.7 L7.55 -34.6 Q11.05 -31.5 11.05 -28.1 11.05 -26.5 9.0 -24.0 L8.9 -23.85 13.05 -23.55 Q16.2 -23.5 18.2 -21.7 L19.7 -20.7 Q22.2 -18.75 22.65 -16.1 L22.65 -16.15 24.75 -16.45 Q25.1 -15.9 25.75 -15.65 L25.5 -16.45 Q25.5 -19.8 27.05 -22.5 L28.3 -24.25 28.35 -24.3 28.7 -24.7 28.45 -24.9 29.15 -25.6 30.1 -26.0 30.25 -26.15 32.5 -27.5 Q33.0 -27.95 33.0 -28.35 L33.0 -28.4 Q31.5 -27.5 30.05 -27.5 L27.25 -27.8 25.7 -27.75 Q23.55 -27.75 22.9 -29.65 L22.7 -30.9 Q22.4 -31.5 22.4 -32.0 L22.6 -33.2 22.5 -33.55 22.8 -33.8 Q23.35 -35.3 24.9 -36.95 L25.05 -37.1 M60.0 -18.45 L60.0 -18.3 59.85 -18.45 60.0 -18.5 60.0 -18.45 M60.3 12.15 L60.3 12.2 59.8 13.55 59.45 14.5 Q58.5 14.05 57.9 13.95 55.95 13.1 53.55 12.35 L49.85 12.6 Q48.75 11.65 47.65 11.0 47.0 10.5 46.2 10.15 L45.15 9.8 41.1 8.9 42.25 7.35 Q50.8 7.35 54.75 1.55 L55.7 -0.05 56.8 0.85 Q59.05 2.45 59.5 5.0 60.3 9.8 60.3 12.15 M48.75 17.75 Q49.4 17.35 50.75 17.1 53.45 16.55 56.3 17.05 64.3 18.55 64.3 26.65 64.3 28.95 63.7 32.45 63.1 36.3 62.35 37.55 58.6 44.2 55.1 46.6 L55.5 46.65 54.75 47.4 54.95 47.95 55.4 48.05 Q58.5 46.95 61.1 44.65 60.85 45.45 60.75 46.5 60.35 49.65 59.4 51.3 L57.85 53.8 57.6 54.1 Q57.1 55.9 55.3 57.6 52.25 60.5 47.25 60.5 L44.35 60.35 Q43.5 61.9 41.3 63.75 37.35 67.15 33.05 67.15 L29.55 66.75 Q29.25 67.0 29.25 67.3 L29.25 67.4 29.05 67.55 Q28.4 69.1 26.95 71.1 23.4 76.0 18.4 76.0 15.25 76.0 13.85 73.75 L13.35 72.8 Q7.7 72.6 5.25 69.55 3.8 67.75 3.8 65.65 3.8 62.85 6.55 60.6 L7.55 59.95 Q4.0 59.85 2.5 61.35 1.35 62.5 1.35 64.7 1.35 65.75 1.75 66.9 L1.55 68.45 Q1.55 69.3 2.35 70.45 L2.95 71.25 3.0 71.3 2.95 71.3 3.05 72.05 Q3.05 72.8 1.85 74.0 0.35 75.5 -1.5 75.5 -4.55 75.5 -6.1 73.75 L-6.3 73.55 -7.25 74.4 Q-9.9 76.5 -13.75 76.5 -17.9 76.5 -19.9 74.1 -21.15 72.6 -21.15 71.3 L-21.1 71.05 Q-23.65 70.75 -25.0 67.55 L-25.9 64.0 Q-25.9 61.7 -25.15 60.4 L-24.9 59.85 -24.85 59.95 Q-24.3 59.25 -23.5 59.0 L-23.2 58.95 -23.25 58.15 -22.95 53.75 Q-22.6 50.75 -22.05 49.75 -20.0 45.9 -14.25 45.3 L-10.35 45.4 -10.2 45.2 -10.65 44.7 -10.0 44.55 -9.95 44.85 -9.2 43.9 Q-6.9 41.5 -3.65 41.5 0.4 41.5 2.9 43.5 L2.85 42.3 Q2.85 32.75 11.25 29.5 13.15 28.8 14.85 28.75 15.3 25.25 18.05 22.65 20.95 19.9 25.35 19.0 L30.1 18.8 Q30.85 17.9 32.1 16.9 32.75 15.8 33.35 15.35 34.75 14.3 37.0 14.0 L39.1 13.25 Q44.45 11.85 47.5 15.85 L48.75 17.75 M49.8 15.9 L49.75 15.9 49.75 15.7 49.85 15.8 49.8 15.9 M36.95 36.2 Q36.95 34.1 35.8 32.85 34.7 31.7 33.25 31.75 29.5 31.9 29.5 37.4 L30.0 39.05 Q30.85 40.65 32.75 40.65 34.4 40.65 35.75 38.85 36.95 37.3 36.95 36.2 M4.9 31.25 L4.35 31.85 4.1 32.15 4.9 31.25 M28.9 13.15 L29.85 13.35 29.6 13.7 29.4 13.95 Q27.8 15.4 27.3 17.05 L27.25 17.05 Q24.45 16.75 21.05 17.65 13.15 19.75 12.15 25.15 9.65 24.8 6.95 25.9 -0.6 29.0 -0.6 39.05 L-0.6 39.1 -3.15 38.9 Q-7.3 39.0 -8.95 41.05 L-10.2 40.8 Q-13.1 40.55 -16.75 41.95 -26.25 45.6 -26.25 53.65 L-26.0 55.6 -26.9 56.25 -27.85 57.65 Q-29.5 59.75 -29.5 63.55 L-28.75 67.0 -31.85 67.4 -32.7 67.25 -33.7 66.55 -34.65 65.5 -34.35 64.5 -34.6 63.65 Q-33.7 63.05 -33.05 61.65 L-32.5 60.35 Q-31.7 59.3 -31.7 58.35 -31.7 56.5 -33.35 55.0 L-33.7 54.15 Q-34.4 52.7 -35.55 52.15 L-33.95 50.6 Q-33.4 50.0 -33.05 48.7 L-32.85 48.05 -31.7 48.1 Q-29.6 48.1 -27.8 47.1 -26.3 46.3 -26.05 45.4 -24.95 43.95 -24.95 42.0 -24.95 40.2 -25.1 39.8 -25.3 39.2 -25.85 39.4 L-25.85 39.35 -25.7 39.05 Q-24.65 36.9 -24.65 35.05 -24.65 32.95 -25.45 30.45 L-26.6 27.7 -26.8 27.3 Q-28.45 23.9 -30.4 22.85 L-31.0 22.0 Q-31.7 21.05 -32.4 21.3 L-34.0 20.9 Q-30.25 19.75 -26.2 17.0 -22.8 14.65 -20.75 11.85 -17.15 8.4 -17.15 5.15 -16.9 3.85 -17.0 2.75 L-16.8 2.75 -16.4 2.7 -15.65 4.05 Q-14.35 6.0 -12.45 7.15 -8.25 11.3 2.25 11.3 L6.0 11.3 6.0 11.45 Q6.0 12.2 7.25 13.4 9.0 15.05 11.75 15.05 L14.25 15.6 19.05 16.1 Q26.35 16.1 28.9 13.15 M34.9 36.35 Q34.9 37.2 34.5 37.85 33.95 38.65 32.9 38.65 L32.6 38.65 32.3 38.65 Q31.75 38.65 31.55 38.25 L31.1 37.55 31.0 36.4 Q31.0 33.95 32.95 34.05 34.9 34.1 34.9 36.35 M5.15 79.85 Q3.6 79.85 2.95 78.8 L2.65 77.9 Q2.65 76.5 3.25 75.85 L3.25 75.7 3.5 75.5 3.65 75.55 5.1 75.4 Q7.5 75.8 7.5 77.9 7.5 79.85 5.15 79.85 M-81.65 -2.1 L-81.7 -2.25 -81.3 -2.4 -80.7 -2.25 -80.4 -2.45 Q-81.5 -3.65 -82.3 -5.55 -83.35 -8.1 -83.55 -10.75 -83.55 -14.3 -81.95 -16.4 -81.15 -18.75 -79.65 -18.75 L-79.15 -18.5 -79.15 -18.55 -77.45 -19.0 -77.75 -19.85 Q-78.5 -22.25 -78.85 -24.75 -78.85 -28.9 -76.45 -31.35 -74.4 -33.45 -71.2 -33.85 -68.2 -34.2 -65.95 -32.95 L-65.45 -32.65 Q-65.1 -37.8 -61.0 -38.25 L-59.45 -38.2 -59.75 -40.1 Q-59.75 -44.15 -57.05 -46.4 -55.9 -47.35 -54.95 -47.3 L-55.0 -47.9 -55.05 -47.95 -55.0 -48.0 -55.0 -48.6 Q-55.0 -50.9 -54.25 -52.0 -53.4 -53.15 -49.6 -56.0 -45.85 -58.8 -41.65 -56.65 L-40.0 -55.65 -39.35 -56.1 -38.85 -55.95 -39.2 -55.5 -39.35 -55.15 -38.9 -54.7 -37.35 -56.6 Q-35.05 -58.7 -31.7 -59.1 -28.4 -59.55 -26.1 -58.05 -23.55 -56.4 -23.55 -53.15 L-23.6 -52.2 -23.0 -51.0 -23.3 -48.6 -23.15 -46.8 Q-27.95 -47.65 -30.95 -44.7 -34.1 -41.55 -34.1 -35.6 -34.15 -34.1 -33.65 -32.75 -33.2 -31.5 -32.3 -30.8 L-33.35 -30.25 Q-37.85 -27.45 -37.85 -20.5 -37.85 -18.9 -37.15 -17.75 -35.7 -15.3 -31.65 -15.3 L-30.05 -15.85 -29.65 -15.85 -29.9 -14.95 -29.45 -11.55 -28.7 -7.8 -28.0 -5.9 Q-27.45 -4.95 -26.15 -4.2 -25.1 -3.6 -23.25 -3.4 L-22.65 -3.3 -22.2 -3.45 Q-20.4 -3.75 -20.4 -1.4 -20.4 4.6 -24.95 10.85 -31.25 19.45 -42.65 19.55 L-42.65 19.7 -42.6 20.25 -43.05 20.75 Q-41.4 20.8 -39.1 21.9 L-35.8 23.75 Q-32.75 25.0 -31.25 28.1 -30.0 30.65 -30.0 34.4 -30.0 36.25 -31.2 38.4 -27.9 38.8 -27.9 42.05 -27.9 43.3 -29.15 44.65 -30.7 46.35 -33.05 46.35 -35.25 46.35 -36.25 44.15 L-36.35 43.65 -36.5 44.05 -36.55 44.55 -36.45 44.75 -36.5 45.05 Q-36.5 45.95 -35.95 46.65 L-36.0 46.8 Q-36.5 48.8 -38.1 50.15 -39.0 50.95 -40.5 51.25 -41.05 50.8 -42.35 50.3 L-43.95 49.8 -50.9 51.15 Q-53.15 52.55 -55.65 52.55 -58.75 52.55 -60.0 50.8 L-60.1 50.7 -61.0 49.95 -60.9 49.5 -60.9 49.3 -62.85 49.6 Q-70.2 49.6 -73.45 46.05 -75.35 43.9 -75.35 41.55 L-75.35 41.25 Q-80.2 40.0 -82.7 34.5 -84.05 31.5 -84.45 28.8 L-84.5 28.6 -84.75 25.05 -84.0 20.05 -83.9 19.75 -81.4 20.0 -79.2 19.85 Q-78.55 20.95 -76.6 22.55 -73.1 25.35 -69.25 25.35 -67.6 25.35 -66.15 24.6 L-65.85 24.9 Q-64.75 25.8 -62.9 25.8 -61.15 25.8 -59.9 24.8 -58.9 24.0 -58.9 23.25 -61.85 23.15 -63.3 22.0 L-63.4 22.0 -63.4 21.95 -63.75 21.6 -64.6 20.25 -69.1 22.0 Q-72.7 21.9 -75.1 19.9 -77.15 18.2 -77.15 16.45 L-77.15 16.25 -79.0 16.3 Q-83.95 16.3 -85.45 11.35 -86.2 8.85 -86.0 6.2 -86.0 4.1 -84.95 2.2 L-84.9 1.95 -84.1 -0.2 Q-83.45 -1.4 -81.65 -2.1 M-13.55 60.55 Q-12.25 60.8 -11.6 61.5 -11.35 62.05 -11.35 62.9 -11.35 64.9 -14.4 64.9 L-14.5 64.9 -15.65 63.85 Q-16.15 63.1 -16.15 62.0 -16.15 60.05 -13.55 60.55 M-13.5 57.6 Q-15.7 57.5 -17.3 58.75 -19.0 60.05 -19.0 62.4 L-18.25 65.4 Q-16.75 68.35 -12.85 68.35 -9.85 68.35 -8.7 66.05 -8.0 64.75 -8.0 63.0 -8.0 60.55 -9.7 59.05 -11.25 57.7 -13.5 57.6 M-44.25 52.95 L-43.2 53.05 -40.05 53.0 Q-36.75 53.6 -35.65 55.45 -34.75 56.2 -34.75 57.6 -34.75 58.65 -36.05 60.05 -37.3 61.4 -38.8 61.7 L-38.55 62.6 -38.6 63.4 Q-38.6 64.6 -39.4 65.65 -40.65 67.25 -43.3 67.25 -47.6 67.25 -49.0 65.4 -49.6 64.65 -49.6 63.25 -49.6 61.7 -48.55 60.45 L-49.5 60.5 Q-51.65 60.5 -52.25 59.0 L-52.5 57.4 Q-52.5 53.75 -48.8 53.45 L-47.1 53.65 Q-45.85 52.95 -44.25 52.95 M-47.2 34.7 Q-45.05 34.75 -45.05 36.3 -45.05 36.95 -45.45 37.5 -46.2 38.55 -47.9 38.55 L-48.8 37.95 Q-49.35 37.3 -49.35 36.7 -49.35 34.7 -47.2 34.7 M-43.55 35.75 Q-43.55 33.0 -47.35 32.75 -51.15 32.45 -51.15 35.45 L-50.65 37.85 Q-49.75 40.05 -47.35 40.05 -45.1 40.05 -44.1 38.15 -43.55 37.0 -43.55 35.75 M-59.6 11.3 Q-60.3 10.8 -60.3 10.1 -60.3 9.45 -58.8 9.25 -57.3 9.1 -57.3 10.5 L-57.65 11.15 Q-58.1 11.7 -58.75 11.7 L-59.6 11.3 M-56.55 12.2 Q-55.95 11.35 -55.95 10.5 -55.95 7.45 -58.7 7.35 -61.5 7.2 -61.5 9.4 L-61.35 11.55 Q-60.8 13.25 -58.7 13.25 -57.35 13.25 -56.55 12.2" fill="#507450" fill-rule="evenodd" stroke="none"/>
  </g>
</svg>
