<?xml version="1.0" encoding="UTF-8" standalone="no"?>
<svg xmlns:ffdec="https://www.free-decompiler.com/flash" xmlns:xlink="http://www.w3.org/1999/xlink" ffdec:objectType="shape" height="29.9px" width="302.3px" xmlns="http://www.w3.org/2000/svg">
  <g transform="matrix(1.0, 0.0, 0.0, 1.0, 156.95, 12.6)">
    <path d="M76.95 -5.65 Q78.95 -7.45 82.75 -6.75 82.6 -7.7 84.1 -9.05 L84.2 -8.75 85.2 -9.8 Q87.55 -11.85 90.8 -12.0 L95.65 -11.4 Q96.6 -11.1 97.15 -10.5 97.5 -10.6 97.9 -10.9 L102.25 -11.1 Q106.35 -10.5 109.0 -9.05 111.35 -7.8 113.25 -7.05 L115.05 -8.0 116.55 -8.7 120.7 -8.8 Q126.8 -8.15 129.15 -7.25 130.6 -6.7 132.5 -5.5 L136.05 -4.1 Q138.5 -3.1 139.1 -2.55 L144.45 -2.35 144.45 -2.45 145.3 -2.2 145.35 -2.05 142.05 -1.45 137.9 -0.95 135.65 -0.35 136.0 -0.35 134.9 -0.15 134.6 -0.05 133.0 0.35 131.4 1.25 130.75 1.6 Q130.15 2.4 128.35 3.6 125.65 5.45 124.1 5.35 L120.15 4.95 118.65 4.4 Q116.8 5.35 116.15 6.25 L114.85 8.05 Q113.45 9.15 110.95 9.05 109.4 8.95 108.85 8.25 L108.05 8.55 Q106.15 9.2 105.15 9.15 103.45 9.05 101.4 7.55 99.35 6.05 97.75 5.95 93.8 5.75 91.15 6.7 L90.05 7.35 Q87.9 10.3 84.9 10.15 82.5 10.0 81.6 8.45 L81.15 6.85 81.2 6.3 79.4 6.35 Q77.4 6.25 76.5 4.5 L76.0 2.75 Q76.0 1.45 76.6 0.25 L77.35 -0.7 76.4 -1.6 Q75.55 -2.65 75.55 -3.1 75.55 -4.45 76.95 -5.65" fill="#1e1e1e" fill-rule="evenodd" stroke="none"/>
    <path d="M-68.85 -0.55 Q-68.85 1.35 -69.4 2.65 -69.8 3.7 -70.75 4.7 -70.25 5.2 -70.05 6.15 -69.85 7.05 -70.0 7.95 -70.0 15.7 -78.75 13.8 -79.0 15.85 -81.65 16.9 L-85.4 17.05 -85.9 17.0 Q-87.45 16.8 -89.7 14.95 -91.95 13.2 -92.2 13.15 L-92.8 14.0 Q-93.3 14.85 -93.8 15.0 L-95.05 15.75 -102.85 15.25 -105.95 14.0 Q-106.9 14.65 -109.6 14.75 -114.1 15.05 -116.55 12.75 L-117.95 11.3 -119.5 9.8 Q-120.0 9.4 -122.55 8.25 L-122.85 8.1 Q-123.7 9.15 -127.15 10.0 -131.65 11.1 -134.1 10.15 -137.05 9.2 -138.7 8.05 L-141.95 5.45 Q-143.8 4.1 -150.4 1.3 L-155.8 0.65 Q-156.95 0.45 -156.95 -0.2 -156.95 -0.45 -153.45 -1.1 L-149.1 -1.8 -146.55 -2.9 -144.0 -3.75 Q-143.25 -4.95 -140.55 -6.05 -136.75 -7.75 -133.15 -7.3 -130.25 -6.9 -129.8 -6.4 L-129.8 -6.25 -128.9 -6.95 -126.6 -8.65 Q-126.05 -9.45 -124.7 -10.05 -122.15 -11.25 -118.6 -10.75 -114.4 -10.2 -113.4 -9.1 L-112.3 -7.95 -110.75 -8.1 -108.7 -8.15 Q-107.1 -7.95 -105.75 -6.8 L-104.5 -5.65 Q-101.5 -5.25 -99.65 -6.2 L-98.4 -7.15 -98.0 -7.85 -96.65 -10.15 Q-94.05 -13.15 -89.15 -12.5 -87.25 -12.2 -86.35 -10.85 L-85.7 -9.5 -84.35 -10.45 Q-81.8 -12.0 -79.2 -11.7 -76.3 -11.25 -74.95 -8.6 -74.25 -7.15 -74.25 -5.9 L-72.85 -5.8 Q-70.7 -5.55 -69.55 -3.05 L-68.85 -0.55 M-151.0 0.25 L-151.05 0.05 -151.5 0.15 -151.0 0.25 M-107.1 13.45 L-107.15 13.35 -107.2 13.45 -107.1 13.45" fill="#1e1e1e" fill-rule="evenodd" stroke="none"/>
  </g>
</svg>
