<?xml version="1.0" encoding="UTF-8" standalone="no"?>
<svg xmlns:ffdec="https://www.free-decompiler.com/flash" xmlns:xlink="http://www.w3.org/1999/xlink" ffdec:objectType="shape" height="42.2px" width="296.05px" xmlns="http://www.w3.org/2000/svg">
  <g transform="matrix(1.0, 0.0, 0.0, 1.0, 153.0, 20.5)">
    <path d="M61.3 -12.5 Q66.45 -15.0 71.45 -14.25 77.3 -12.65 80.4 -11.05 82.65 -9.85 84.05 -8.4 84.45 -9.3 86.15 -10.3 88.65 -11.85 91.3 -11.7 94.2 -11.6 95.6 -10.95 L97.55 -11.15 99.85 -11.4 Q102.85 -12.2 106.05 -9.95 109.75 -7.35 112.1 -7.2 113.85 -7.1 115.8 -7.75 L122.35 -8.25 Q127.6 -7.95 132.85 -5.45 138.4 -2.8 142.95 -2.35 L143.05 -2.05 Q143.05 -1.65 142.55 -1.6 L142.2 -1.55 141.7 -1.55 141.45 -1.55 136.25 -1.2 133.95 -0.7 133.9 -0.85 133.4 -0.7 132.25 0.0 Q130.6 0.95 130.1 1.45 L128.15 3.55 Q127.05 4.65 125.4 5.0 L121.1 5.3 116.95 5.85 Q116.3 6.1 114.7 7.05 L113.05 8.6 Q111.2 9.7 107.3 9.5 102.15 9.25 99.6 7.5 97.0 5.75 95.2 5.7 91.75 5.5 89.95 6.7 L89.45 7.2 87.45 9.1 Q84.25 11.85 82.2 11.75 L78.05 10.85 75.35 10.0 73.3 10.35 71.8 11.75 68.4 14.25 65.95 16.05 Q62.95 17.75 60.05 17.65 55.3 17.4 52.9 14.15 51.4 12.15 51.4 10.55 L51.55 9.0 51.15 8.95 Q48.45 8.85 47.45 6.9 46.95 5.9 46.95 4.75 46.95 3.35 47.65 1.95 48.15 0.95 48.85 0.35 47.6 -0.05 46.45 -1.75 45.3 -3.5 45.3 -4.05 45.3 -6.95 47.65 -8.85 50.8 -11.5 56.6 -8.65 57.05 -10.5 61.3 -12.5" fill="#1e1e1e" fill-rule="evenodd" stroke="none"/>
    <path d="M-143.25 -5.25 Q-139.4 -7.9 -132.9 -7.1 L-131.95 -6.75 -130.1 -7.1 -126.5 -8.0 Q-125.55 -9.2 -124.45 -9.65 L-117.5 -9.9 Q-112.95 -9.3 -109.55 -7.9 -106.1 -6.35 -104.6 -6.15 -99.5 -5.5 -96.75 -9.4 -93.95 -13.25 -89.35 -12.7 -85.2 -12.1 -83.9 -10.8 L-83.25 -9.2 Q-81.95 -11.35 -79.7 -13.25 -72.95 -19.2 -61.6 -17.7 L-58.1 -17.15 Q-57.75 -18.15 -55.9 -19.3 -53.3 -20.8 -50.05 -20.4 -45.85 -19.85 -43.2 -16.2 -41.3 -13.6 -41.3 -12.25 -41.3 -10.55 -41.55 -9.35 L-41.8 -8.5 -41.4 -7.4 Q-40.8 -5.5 -40.8 -3.6 -40.8 -1.35 -41.05 -0.35 -41.2 0.7 -41.65 1.3 -41.05 2.25 -40.9 3.3 L-40.8 6.45 Q-40.8 9.4 -40.95 10.3 -41.35 12.35 -42.8 13.8 L-44.2 15.1 -46.2 16.65 -46.35 16.8 Q-47.2 17.4 -48.1 17.6 L-49.5 18.45 Q-51.8 19.35 -54.9 19.15 L-61.5 16.8 -62.3 16.3 -63.85 17.25 -67.1 19.45 Q-68.45 19.8 -70.1 21.25 -72.6 22.2 -79.7 21.15 L-84.05 19.05 -85.2 18.6 -87.4 17.25 -88.4 16.65 -92.65 14.15 -92.8 14.05 -94.4 15.0 Q-97.4 16.9 -100.7 16.4 -103.2 16.1 -104.1 15.5 -105.05 14.95 -105.7 14.85 L-106.75 15.0 Q-107.0 15.35 -107.95 15.35 L-112.4 15.15 Q-113.85 14.95 -118.2 12.1 -122.5 9.25 -123.1 8.25 -122.95 7.85 -122.4 7.75 L-122.95 7.65 -117.2 7.8 Q-115.45 7.8 -113.1 6.75 -111.65 6.15 -111.3 5.45 L-111.1 4.0 -111.15 2.9 Q-111.25 2.4 -111.85 1.35 -112.1 1.15 -111.6 1.2 L-111.05 1.35 -109.6 0.45 Q-108.75 -0.2 -108.75 -1.2 -108.75 -2.35 -109.6 -3.05 -110.95 -4.15 -114.9 -4.65 -119.85 -5.3 -122.85 -2.45 L-124.85 0.1 Q-125.45 -0.8 -127.2 -2.0 -129.95 -3.85 -132.55 -4.25 L-139.9 -4.0 -142.8 -3.05 Q-143.65 -2.85 -145.75 -1.6 -146.0 -1.45 -146.15 -1.4 -145.7 -3.5 -143.25 -5.25 M-151.95 2.3 L-153.0 1.7 -151.75 1.95 -151.95 2.3 M-89.2 14.0 L-89.25 14.05 -89.2 14.05 -89.2 14.0 M-42.35 -9.85 L-42.45 -9.7 -42.35 -9.6 -42.35 -9.85" fill="#1e1e1e" fill-rule="evenodd" stroke="none"/>
    <path d="M-151.75 1.95 L-148.7 2.15 -147.35 2.15 -145.0 1.7 -141.0 0.6 -137.2 -0.95 -134.7 -1.65 -134.4 -1.75 Q-133.0 -1.55 -130.85 -0.55 -128.35 0.65 -127.5 1.6 -126.6 2.6 -126.35 3.65 L-126.15 5.65 Q-126.15 6.75 -127.25 7.55 -128.45 8.45 -130.6 8.15 L-131.6 7.5 Q-132.3 7.8 -132.55 8.7 -133.75 9.2 -139.65 8.65 L-142.4 7.0 -144.55 5.25 -145.4 4.45 Q-146.25 3.8 -148.2 3.45 L-150.1 3.0 -151.95 2.3 -151.75 1.95" fill="#1e1e1e" fill-opacity="0.8509804" fill-rule="evenodd" stroke="none"/>
  </g>
</svg>
