<?xml version="1.0" encoding="UTF-8" standalone="no"?>
<svg xmlns:ffdec="https://www.free-decompiler.com/flash" xmlns:xlink="http://www.w3.org/1999/xlink" ffdec:objectType="shape" height="53.95px" width="289.8px" xmlns="http://www.w3.org/2000/svg">
  <g transform="matrix(1.0, 0.0, 0.0, 1.0, 149.15, 32.4)">
    <path d="M35.2 -3.25 Q35.55 -4.95 36.95 -6.2 L38.25 -7.35 40.1 -8.75 40.3 -8.9 41.9 -9.65 43.25 -10.4 Q45.4 -11.3 48.3 -11.3 L54.55 -9.75 55.25 -9.4 56.75 -10.3 59.8 -12.3 Q61.05 -12.65 62.65 -13.95 L71.65 -14.45 75.75 -12.95 76.85 -12.65 78.9 -11.7 79.85 -11.3 83.85 -9.5 84.0 -9.45 85.5 -10.3 Q88.35 -12.0 91.45 -11.8 L94.6 -11.3 Q95.5 -10.9 96.1 -10.9 L97.1 -11.05 Q97.35 -11.3 98.25 -11.35 L102.45 -11.5 Q103.8 -11.45 107.9 -9.35 111.9 -7.3 112.5 -6.55 112.35 -6.2 111.85 -6.1 L112.35 -6.05 106.95 -5.75 Q105.3 -5.7 103.1 -4.7 101.75 -4.15 101.4 -3.55 L101.2 -2.35 101.25 -1.45 101.9 -0.25 Q102.15 -0.05 101.65 -0.1 L101.15 -0.15 Q100.15 0.35 99.8 0.6 99.0 1.2 99.0 2.0 99.0 2.95 99.8 3.45 101.1 4.3 104.8 4.45 109.45 4.7 112.25 2.2 L114.15 0.0 Q114.7 0.7 116.35 1.55 118.95 2.95 121.4 3.05 L128.35 2.4 131.05 1.45 133.85 0.1 134.2 -0.1 Q133.75 1.7 131.45 3.25 127.85 5.65 121.75 5.35 L120.85 5.15 119.1 5.6 115.7 6.5 113.8 8.0 Q111.95 8.85 107.25 8.6 102.95 8.35 99.75 7.4 96.5 6.4 95.1 6.3 90.3 6.05 87.7 9.45 85.1 12.75 80.75 12.55 76.85 12.35 75.6 11.3 L75.0 10.1 Q73.8 11.9 71.7 13.55 65.3 18.9 54.6 18.35 L51.3 18.1 Q51.0 18.9 49.3 19.9 46.85 21.35 43.75 21.2 39.8 21.0 37.3 18.2 35.5 16.2 35.5 15.1 35.5 13.7 35.75 12.75 L36.0 12.05 35.6 11.15 Q35.05 9.65 35.05 8.1 L35.25 5.4 Q35.45 4.55 35.85 4.05 35.3 3.3 35.15 2.45 L35.05 -0.1 Q35.05 -2.5 35.2 -3.25 M80.6 -9.2 L80.6 -9.15 80.65 -9.2 80.6 -9.2 M139.65 -3.45 L140.65 -3.0 139.45 -3.1 139.65 -3.45 M36.5 13.05 L36.6 12.95 36.55 12.85 36.5 13.05" fill="#1e1e1e" fill-rule="evenodd" stroke="none"/>
    <path d="M139.45 -3.1 L136.6 -3.1 135.35 -3.0 133.1 -2.55 129.35 -1.35 125.75 0.1 123.4 0.8 123.1 0.95 Q121.8 0.85 119.8 0.2 117.45 -0.65 116.65 -1.4 115.8 -2.1 115.55 -3.0 115.4 -3.5 115.4 -4.6 115.4 -5.5 116.4 -6.2 117.55 -7.0 119.55 -6.9 L120.5 -6.45 Q121.15 -6.75 121.4 -7.5 L128.1 -7.85 130.65 -6.7 132.7 -5.4 133.5 -4.8 Q134.3 -4.3 136.1 -4.15 L137.9 -3.9 139.65 -3.45 139.45 -3.1" fill="#1e1e1e" fill-opacity="0.8509804" fill-rule="evenodd" stroke="none"/>
    <path d="M-121.95 -7.6 L-121.55 -7.6 -121.6 -7.85 -121.95 -7.6 M-131.7 -4.85 L-131.85 -5.45 Q-131.85 -6.0 -128.5 -6.6 -124.85 -7.4 -124.05 -8.15 L-122.15 -10.05 Q-119.95 -11.3 -116.35 -10.85 -113.0 -10.4 -109.65 -8.6 L-106.15 -6.65 Q-99.2 -5.75 -96.4 -9.65 L-94.2 -12.25 Q-92.7 -13.4 -89.9 -13.05 -86.45 -12.55 -84.25 -11.15 L-83.55 -10.6 Q-81.7 -12.8 -77.45 -15.1 -69.4 -19.4 -60.8 -18.25 L-58.1 -17.6 -57.2 -17.3 -55.3 -21.05 Q-53.25 -24.65 -51.65 -26.25 -49.5 -28.3 -43.75 -30.35 -36.7 -33.0 -31.15 -32.25 -29.75 -32.05 -28.1 -30.1 L-26.6 -27.7 Q-26.45 -27.3 -26.4 -25.25 -26.4 -23.8 -24.95 -23.1 -22.7 -22.05 -21.3 -18.4 -20.15 -15.45 -20.15 -13.35 -20.15 -11.5 -21.2 -9.05 -22.4 -6.3 -23.8 -6.65 L-23.35 -4.75 -23.15 -3.4 Q-23.15 0.6 -26.45 3.75 -29.6 6.9 -35.3 8.95 L-35.7 8.5 -35.45 8.3 -36.85 8.3 Q-39.0 8.55 -39.45 9.7 L-39.8 10.8 -40.25 12.1 Q-42.05 14.75 -44.95 16.35 L-47.85 17.95 -55.55 18.4 Q-58.2 18.05 -60.1 17.35 -62.1 16.55 -62.8 16.5 L-63.0 16.45 Q-64.0 18.55 -70.35 20.6 -75.5 22.4 -77.15 20.7 L-76.2 20.6 -74.75 20.3 -75.75 20.05 Q-71.5 19.25 -69.35 17.15 -67.45 15.3 -67.45 13.05 -67.45 11.9 -67.8 11.25 -68.8 9.25 -69.8 10.05 -71.0 10.9 -72.2 9.3 -71.9 8.75 -69.85 8.0 -67.75 7.2 -67.45 6.85 -66.2 5.35 -66.05 4.8 L-66.05 3.2 Q-66.05 -2.3 -71.65 -3.05 -74.25 -3.4 -77.2 -0.65 L-79.4 1.1 Q-79.4 1.5 -79.55 1.55 L-79.85 1.5 -80.05 1.25 -80.35 1.2 -80.25 0.95 -81.25 -2.0 Q-82.85 -5.0 -87.8 -5.65 -90.65 -6.05 -94.05 -4.25 -97.4 -2.45 -101.0 -3.0 L-105.35 -4.1 Q-109.35 -5.15 -113.65 -5.6 L-114.85 -5.75 Q-115.1 -5.65 -115.1 -6.25 L-115.1 -6.35 -123.35 -5.85 Q-129.8 -4.6 -131.7 -4.85 M-70.6 19.3 L-70.3 19.2 -70.3 19.15 -70.6 19.3 M-30.0 4.4 L-30.1 4.65 -29.9 4.55 -30.0 4.4" fill="#1e1e1e" fill-rule="evenodd" stroke="none"/>
    <path d="M-88.1 9.05 Q-88.1 10.9 -89.7 12.4 L-93.7 15.9 -95.7 17.25 Q-97.15 18.1 -98.4 18.25 L-100.0 18.6 -106.75 17.85 Q-107.4 17.6 -110.45 15.95 L-111.3 16.2 -114.75 16.1 Q-118.35 15.65 -119.95 13.75 -120.75 12.7 -120.75 11.6 L-120.5 10.65 Q-120.2 10.4 -119.15 10.25 L-116.1 10.5 Q-115.15 10.9 -113.4 9.5 L-111.9 7.75 Q-110.6 6.55 -108.65 6.85 L-106.05 7.65 Q-104.15 7.9 -103.2 3.8 -102.25 -0.35 -98.7 0.1 -95.8 0.55 -94.1 2.5 -92.9 3.8 -92.9 4.45 -90.55 4.15 -89.15 6.15 -88.1 7.65 -88.1 9.05" fill="#1e1e1e" fill-opacity="0.8509804" fill-rule="evenodd" stroke="none"/>
    <path d="M-133.25 4.3 Q-132.2 5.3 -132.2 5.9 -132.2 7.0 -133.8 8.1 -135.45 9.25 -137.1 9.05 -139.2 8.75 -140.0 7.55 -140.3 7.05 -140.4 6.15 L-140.85 6.35 -141.55 6.5 Q-143.6 6.2 -144.9 5.35 -146.55 4.25 -149.0 3.65 -149.15 3.8 -149.15 3.15 -149.15 2.6 -147.6 2.45 L-143.55 2.55 Q-141.4 2.9 -139.85 0.95 -138.25 -0.9 -136.85 -0.75 -134.45 -0.45 -134.05 1.35 -133.85 2.3 -134.2 3.2 L-133.25 4.3 M-147.25 3.25 L-146.95 3.25 -146.9 3.15 -147.25 3.25" fill="#1e1e1e" fill-opacity="0.4509804" fill-rule="evenodd" stroke="none"/>
  </g>
</svg>
