<?xml version="1.0" encoding="UTF-8" standalone="no"?>
<svg xmlns:ffdec="https://www.free-decompiler.com/flash" xmlns:xlink="http://www.w3.org/1999/xlink" ffdec:objectType="shape" height="566.0px" width="847.15px" xmlns="http://www.w3.org/2000/svg">
  <g transform="matrix(1.0, 0.0, 0.0, 1.0, 466.65, 273.35)">
    <path d="M-133.8 -182.9 Q-130.5 -193.3 -140.1 -198.6 L-142.0 -199.45 Q-135.8 -244.5 -183.25 -234.4 -197.05 -245.35 -212.9 -236.95 -215.0 -255.15 -232.8 -256.65 -262.6 -292.0 -295.5 -252.55 -352.75 -231.0 -299.5 -208.0 L-292.75 -199.1 Q-264.95 -181.75 -248.9 -208.55 L-248.65 -208.6 -247.45 -207.5 Q-238.3 -170.25 -213.05 -192.95 -185.7 -193.35 -165.15 -220.85 -158.25 -195.6 -133.8 -182.9 M361.65 -146.75 Q326.4 -188.9 273.15 -172.7 L273.35 -178.7 Q273.4 -181.15 271.7 -182.9 L270.5 -184.05 Q248.05 -258.0 172.2 -202.4 164.55 -205.6 156.85 -203.15 151.3 -201.4 148.75 -196.0 98.4 -215.05 86.4 -162.5 83.25 -165.4 79.15 -167.0 72.45 -169.6 65.6 -167.35 L64.2 -176.45 Q62.65 -185.0 55.55 -190.1 74.7 -243.4 17.45 -235.8 -0.1 -256.4 -22.85 -241.7 -38.7 -249.95 -54.45 -242.65 -126.8 -208.9 -76.0 -161.7 L-76.0 -149.45 -65.65 -150.3 Q-44.65 -128.95 -27.15 -149.1 -5.7 -152.15 3.55 -172.7 L27.1 -161.35 27.2 -161.2 Q30.5 -143.3 41.1 -133.25 L52.4 -120.1 48.4 -100.45 Q74.6 -72.45 95.3 -103.45 L96.65 -105.6 Q124.7 -113.6 130.8 -142.1 145.15 -134.9 159.8 -140.05 198.4 -107.7 198.25 -155.1 247.7 -161.75 296.9 -157.1 327.35 -139.45 361.65 -146.75 M363.1 -143.4 L362.95 -143.8 362.85 -143.7 363.1 -143.4 M-113.65 -69.65 L-125.45 -78.7 Q-127.7 -97.2 -146.5 -103.4 L-145.0 -106.65 -133.6 -113.8 Q-115.75 -103.4 -100.0 -116.9 L-99.55 -119.95 Q-78.85 -148.6 -119.75 -148.3 -146.95 -167.75 -172.85 -140.7 -207.85 -154.25 -232.15 -125.15 L-240.4 -125.05 Q-249.2 -142.1 -267.5 -136.25 -294.95 -145.75 -296.75 -118.1 -297.35 -108.55 -299.5 -99.1 -335.55 -103.9 -340.9 -66.65 L-357.5 -56.0 Q-373.85 -77.45 -395.75 -62.1 -416.15 -71.1 -434.0 -57.75 -448.15 -60.3 -455.1 -47.8 L-466.65 -43.0 Q-463.45 -31.0 -451.35 -25.35 -459.0 -16.7 -452.35 -7.1 L-346.4 2.1 -348.2 4.95 -346.95 7.9 -355.95 20.5 -351.95 29.95 Q-359.15 38.9 -359.9 50.7 -293.65 93.55 -217.05 74.45 -179.15 121.1 -152.7 66.6 -111.5 107.7 -69.1 72.05 L-54.9 66.45 -52.95 67.35 Q-38.0 74.15 -26.7 62.3 -56.0 40.1 -85.65 61.25 L-86.85 62.35 Q-102.85 53.25 -121.4 54.9 -128.4 55.85 -134.9 58.95 -137.1 49.45 -143.7 42.5 -147.35 38.75 -152.3 37.0 -152.3 3.7 -189.25 3.15 L-188.1 -8.05 -190.3 -8.85 -188.7 -14.75 -188.7 -15.7 -196.45 -36.8 Q-187.35 -58.9 -168.4 -73.8 -166.4 -75.35 -165.7 -77.75 -143.15 -66.5 -113.65 -69.65 M-104.5 -25.8 Q-101.25 -25.0 -98.7 -27.0 -90.95 -32.95 -84.1 -39.9 -52.4 -29.85 -34.7 -57.05 L-34.3 -56.85 Q-24.05 -44.1 -9.1 -42.3 L-8.0 -28.35 Q-9.4 -9.0 8.35 -2.1 L8.2 -1.9 Q0.25 7.6 5.3 18.65 13.5 24.85 20.5 17.25 L21.55 16.15 Q62.4 23.3 39.1 -9.1 44.55 -14.2 39.15 -20.4 58.95 -15.2 64.95 -34.0 79.6 -25.9 95.65 -30.7 115.3 -22.75 131.05 -36.35 L119.5 -41.25 Q112.15 -54.25 97.45 -55.5 91.75 -56.2 86.4 -54.55 54.5 -66.7 32.9 -40.3 L14.15 -49.85 Q9.65 -113.95 -48.75 -84.95 -115.85 -95.0 -104.5 -25.8 M-221.05 -66.05 L-218.15 -53.0 Q-237.55 -54.15 -242.75 -35.8 -251.25 -41.05 -260.7 -38.55 -273.05 -50.05 -288.95 -46.3 L-290.6 -44.65 -293.1 -44.9 -293.25 -45.25 Q-289.9 -63.95 -300.1 -80.6 -285.8 -80.85 -274.9 -89.75 L-263.25 -83.3 -263.1 -83.4 -263.15 -83.3 Q-260.45 -81.95 -257.45 -81.95 -248.9 -81.9 -245.2 -90.5 -235.5 -83.05 -223.45 -84.2 L-221.05 -66.05 M-197.8 9.2 L-197.9 8.8 -197.5 8.75 -197.8 9.2 M-21.5 18.7 Q-24.9 16.7 -28.85 16.0 -33.95 15.4 -38.6 17.95 L-57.75 14.15 Q-69.85 -8.15 -97.9 -3.2 -101.0 -7.05 -105.6 -8.35 -138.35 -17.15 -125.85 11.7 L-127.35 15.05 Q-132.15 26.55 -125.9 37.5 -98.4 25.45 -71.7 20.25 L-70.9 24.8 -67.5 25.05 -64.4 37.65 Q-56.35 27.3 -43.2 29.65 L-42.0 25.8 -41.85 25.8 Q-28.35 30.85 -21.5 18.7 M-59.7 41.05 L-59.45 41.15 -59.3 40.5 -59.7 41.05 M-116.35 3.55 Q-116.7 4.25 -116.4 3.4 L-116.35 3.55 M46.2 104.4 L28.55 103.0 25.8 99.45 Q31.0 77.9 7.9 84.2 -5.45 77.5 -17.1 88.25 -46.95 89.35 -39.25 114.25 L-37.8 124.3 Q-14.9 126.3 -12.5 103.8 L-12.25 100.6 Q-4.1 96.15 4.9 99.0 12.95 114.8 30.35 117.35 L30.9 113.35 42.85 116.35 46.2 104.4 M114.05 221.65 Q106.8 214.4 96.3 215.05 L94.0 215.3 Q80.5 190.45 53.5 199.9 45.45 190.85 33.4 194.7 L42.0 184.55 Q27.55 134.3 -18.55 173.2 -40.8 160.6 -62.8 173.3 -48.05 155.85 -58.8 135.7 L-57.35 132.95 Q-61.05 111.8 -80.25 117.4 -82.85 118.1 -85.35 119.35 -110.8 115.15 -112.7 141.45 -136.55 132.3 -148.6 154.7 -159.65 156.1 -160.3 167.8 -160.75 175.55 -153.8 179.5 L-157.0 198.7 Q-142.6 204.0 -133.3 191.9 L-132.05 190.2 Q-104.6 225.35 -51.0 192.4 -52.25 202.8 -43.25 204.0 -40.05 204.45 -37.35 203.1 -30.15 208.35 -22.3 203.9 L-20.15 202.5 3.6 214.05 Q29.8 254.05 39.3 205.1 L74.3 220.8 75.65 218.4 Q93.8 243.55 114.05 221.65 M115.8 224.45 L115.55 223.9 115.4 224.25 115.8 224.45 M377.55 40.2 Q350.15 20.1 319.75 34.05 L318.6 29.65 Q322.6 27.6 323.2 23.35 324.4 14.45 318.4 9.45 318.0 -37.6 271.3 -24.0 L259.05 -33.25 Q263.95 -38.1 264.7 -45.0 266.7 -63.1 249.0 -60.6 L245.6 -63.5 Q227.15 -77.6 219.75 -56.0 214.15 -54.0 211.45 -48.7 208.85 -43.7 208.0 -38.7 160.55 -12.55 207.05 5.1 L208.1 6.5 Q225.65 27.05 248.8 11.7 249.9 15.45 252.15 18.55 253.55 20.45 255.95 20.7 L254.8 22.2 Q242.75 38.6 249.45 58.0 258.7 63.0 265.3 55.5 L265.6 55.3 Q304.45 71.8 291.65 34.75 L291.6 34.45 293.8 33.55 Q317.4 47.8 338.4 41.55 360.55 60.75 377.55 40.2 M81.55 -52.7 Q83.25 -53.05 81.2 -52.45 L81.55 -52.7 M37.65 -14.85 L37.0 -12.2 Q35.95 -18.85 37.65 -14.85 M279.0 92.3 Q251.3 76.85 222.15 88.95 L215.05 84.15 Q224.4 66.55 213.05 50.25 220.6 20.85 190.25 18.5 170.95 -2.45 147.95 14.3 121.0 13.6 121.35 40.55 111.2 46.2 109.75 57.6 100.35 55.65 91.15 56.5 7.3 65.95 91.65 111.85 86.2 126.45 100.5 132.15 97.05 140.6 91.45 147.25 74.45 167.4 98.2 177.2 107.7 168.1 105.55 154.4 L105.6 154.05 Q131.4 163.7 142.05 137.95 158.25 147.35 173.35 133.25 185.9 141.15 198.5 134.2 L204.5 137.95 218.1 134.45 Q220.95 155.0 239.85 147.5 240.85 147.15 242.0 147.5 287.15 188.9 274.25 135.85 L268.65 113.25 Q285.4 108.2 279.0 92.3 M204.95 53.65 L205.4 53.65 205.3 53.85 204.95 53.65" fill="#ffffff" fill-rule="evenodd" stroke="none"/>
    <path d="M-292.75 -199.1 Q-281.95 -184.5 -264.65 -181.2 -266.15 -177.5 -265.45 -173.6 -260.2 -145.1 -234.5 -155.8 -194.8 -135.45 -189.55 -173.3 -181.9 -170.5 -176.5 -175.55 -145.05 -148.25 -132.45 -181.4 L-133.8 -182.9 Q-158.25 -195.6 -165.15 -220.85 -185.7 -193.35 -213.05 -192.95 -238.3 -170.25 -247.45 -207.5 L-248.65 -208.6 -248.9 -208.55 Q-264.95 -181.75 -292.75 -199.1 M-76.0 -149.45 Q-48.55 -89.15 0.5 -133.6 L2.95 -132.3 Q22.25 -122.75 41.1 -133.25 30.5 -143.3 27.2 -161.2 L27.1 -161.35 3.55 -172.7 Q-5.7 -152.15 -27.15 -149.1 -44.65 -128.95 -65.65 -150.3 L-76.0 -149.45 M48.4 -100.45 Q53.85 -57.3 94.85 -67.4 96.4 -67.75 97.85 -68.5 150.6 -53.4 148.55 -104.4 162.9 -99.4 175.95 -107.55 193.85 -67.25 223.8 -95.9 260.05 -90.25 250.45 -127.45 261.05 -122.15 271.05 -128.25 281.4 -105.25 304.75 -117.85 353.25 -96.6 363.1 -143.4 L362.85 -143.7 362.95 -143.8 361.65 -146.75 Q327.35 -139.45 296.9 -157.1 247.7 -161.75 198.25 -155.1 198.4 -107.7 159.8 -140.05 145.15 -134.9 130.8 -142.1 124.7 -113.6 96.65 -105.6 L95.3 -103.45 Q74.6 -72.45 48.4 -100.45 M-113.65 -69.65 Q-143.15 -66.5 -165.7 -77.75 -166.4 -75.35 -168.4 -73.8 -187.35 -58.9 -196.45 -36.8 L-188.7 -15.7 Q-180.5 -16.85 -175.5 -23.55 -159.95 -18.75 -152.6 -33.2 -129.35 -26.45 -123.95 -49.3 L-122.65 -49.7 Q-108.5 -54.95 -113.65 -69.65 M-188.7 -14.75 L-190.3 -8.85 -188.1 -8.05 -188.7 -14.75 M-26.7 62.3 Q-38.0 74.15 -52.95 67.35 L-54.9 66.45 -69.1 72.05 Q-111.5 107.7 -152.7 66.6 -179.15 121.1 -217.05 74.45 -293.65 93.55 -359.9 50.7 -358.65 61.35 -349.95 67.8 L-348.45 68.85 Q-370.0 133.8 -288.75 121.6 -285.5 141.6 -264.3 140.75 L-262.7 140.65 Q-240.95 201.05 -220.95 148.3 L-214.5 147.95 Q-197.85 170.1 -174.85 150.6 -133.5 141.45 -151.0 97.4 -137.15 101.8 -126.85 92.15 -79.65 129.65 -40.55 88.6 -14.25 86.75 -26.7 62.3 M-348.2 4.95 L-346.4 2.1 -452.35 -7.1 Q-439.0 28.85 -404.3 15.95 L-401.25 14.65 Q-371.5 28.1 -348.2 4.95 M-104.5 -25.8 L-103.3 -24.75 Q-82.35 -9.0 -61.2 -23.95 L-58.1 -22.8 Q-39.45 -16.6 -25.55 -29.3 L-8.0 -28.35 -9.1 -42.3 Q-24.05 -44.1 -34.3 -56.85 L-34.7 -57.05 Q-52.4 -29.85 -84.1 -39.9 -90.95 -32.95 -98.7 -27.0 -101.25 -25.0 -104.5 -25.8 M5.3 18.65 Q59.35 63.5 64.75 -2.85 L67.45 -4.6 Q84.7 5.35 102.75 -3.35 L104.0 -2.85 Q142.6 0.15 131.05 -36.35 115.3 -22.75 95.65 -30.7 79.6 -25.9 64.95 -34.0 58.95 -15.2 39.15 -20.4 44.55 -14.2 39.1 -9.1 62.4 23.3 21.55 16.15 L20.5 17.25 Q13.5 24.85 5.3 18.65 M-221.05 -66.05 L-223.45 -84.2 Q-235.5 -83.05 -245.2 -90.5 -248.9 -81.9 -257.45 -81.95 -260.45 -81.95 -263.15 -83.3 -263.45 -82.65 -263.4 -83.15 L-263.25 -83.3 -274.9 -89.75 Q-285.8 -80.85 -300.1 -80.6 -289.9 -63.95 -293.25 -45.25 L-293.1 -44.9 -290.6 -44.65 -288.95 -46.3 -291.55 -48.2 -286.4 -61.0 Q-281.6 -60.45 -277.15 -62.3 -269.2 -65.65 -268.35 -74.4 L-263.1 -77.4 -259.9 -75.0 Q-248.35 -67.15 -236.05 -73.6 L-221.05 -66.05 M-125.9 37.5 L-117.65 43.25 Q-103.45 61.75 -88.0 45.15 -71.2 44.0 -73.25 27.65 L-70.9 24.8 -71.7 20.25 Q-98.4 25.45 -125.9 37.5 M-64.4 37.65 L-59.7 41.05 -59.3 40.5 -59.45 41.15 -44.85 39.85 Q-15.55 46.95 -21.5 18.7 -28.35 30.85 -41.85 25.8 L-42.0 25.8 -43.2 29.65 Q-56.35 27.3 -64.4 37.65 M46.2 104.4 L42.85 116.35 30.9 113.35 30.35 117.35 Q12.95 114.8 4.9 99.0 -4.1 96.15 -12.25 100.6 L-12.5 103.8 Q-14.9 126.3 -37.8 124.3 -13.15 136.85 0.15 112.05 L12.3 114.4 13.5 115.95 Q49.0 157.6 46.2 104.4 M114.05 221.65 Q93.8 243.55 75.65 218.4 L74.3 220.8 39.3 205.1 Q29.8 254.05 3.6 214.05 L-20.15 202.5 -22.3 203.9 Q-30.15 208.35 -37.35 203.1 -40.05 204.45 -43.25 204.0 -52.25 202.8 -51.0 192.4 -104.6 225.35 -132.05 190.2 L-133.3 191.9 Q-142.6 204.0 -157.0 198.7 -164.05 223.05 -139.05 225.15 L-136.05 224.75 Q-101.35 253.8 -70.1 221.65 L-60.3 220.0 Q-44.2 235.85 -21.4 234.2 -19.85 247.5 -6.95 250.75 -5.05 305.55 46.55 288.65 79.35 300.7 83.8 266.4 90.55 260.65 91.15 251.7 122.85 255.7 115.8 224.45 L115.4 224.25 115.55 223.9 114.05 221.65 M-16.45 227.95 L-16.4 227.95 -16.45 228.0 -16.45 227.95 M249.45 58.0 Q252.6 70.0 265.05 72.15 L266.85 72.25 Q292.2 104.75 307.65 69.6 L315.65 66.0 Q394.25 123.6 377.55 40.2 360.55 60.75 338.4 41.55 317.4 47.8 293.8 33.55 L291.6 34.45 291.65 34.75 Q304.45 71.8 265.6 55.3 L265.3 55.5 Q258.7 63.0 249.45 58.0 M37.65 -14.85 Q35.95 -18.85 37.0 -12.2 L37.65 -14.85 M98.2 177.2 Q100.3 186.3 109.7 188.05 L111.7 188.15 Q138.4 226.1 155.7 184.4 169.9 178.75 166.3 162.0 179.35 171.35 194.95 167.1 199.8 177.15 210.6 176.5 220.55 213.1 257.15 202.65 329.65 221.15 302.1 153.9 302.1 134.35 282.05 134.5 L281.85 122.6 Q291.5 106.45 279.0 92.3 285.4 108.2 268.65 113.25 L274.25 135.85 Q287.15 188.9 242.0 147.5 240.85 147.15 239.85 147.5 220.95 155.0 218.1 134.45 L204.5 137.95 198.5 134.2 Q185.9 141.15 173.35 133.25 158.25 147.35 142.05 137.95 131.4 163.7 105.6 154.05 L105.55 154.4 Q107.7 168.1 98.2 177.2" fill="#a8a8a8" fill-rule="evenodd" stroke="none"/>
  </g>
</svg>
