<?xml version="1.0" encoding="UTF-8" standalone="no"?>
<svg xmlns:ffdec="https://www.free-decompiler.com/flash" xmlns:xlink="http://www.w3.org/1999/xlink" ffdec:objectType="shape" height="90.75px" width="91.45px" xmlns="http://www.w3.org/2000/svg">
  <g transform="matrix(1.0, 0.0, 0.0, 1.0, 36.95, 42.45)">
    <path d="M40.05 -26.85 Q40.85 -26.35 41.25 -25.5 L41.95 -24.6 43.3 -24.95 49.4 -24.55 Q51.9 -22.9 52.85 -21.55 53.6 -20.45 54.1 -18.6 54.5 -16.95 54.5 -15.5 54.5 -12.25 52.05 -8.75 49.95 -5.8 48.25 -5.45 L48.1 -5.35 Q46.1 -3.85 44.0 -2.7 L39.25 -0.2 35.0 2.25 33.7 2.8 25.95 6.95 25.9 7.0 25.7 7.3 Q22.8 8.85 22.75 9.75 L22.35 9.95 22.85 15.05 22.85 16.1 24.55 17.65 Q27.0 20.1 28.9 22.7 L29.6 23.5 29.8 23.9 32.7 28.2 33.6 29.65 34.45 30.05 34.5 30.55 34.5 30.95 37.95 30.05 41.8 29.9 41.85 31.95 41.75 33.7 41.6 33.55 41.7 32.7 Q41.3 34.05 40.1 35.35 37.4 37.85 35.65 39.95 33.7 42.3 29.95 45.25 26.9 47.7 25.35 48.3 24.9 47.75 24.05 47.45 L24.1 47.4 Q22.15 46.1 17.55 41.05 13.45 36.5 10.9 32.95 L7.85 33.05 5.9 33.05 2.95 32.9 1.0 34.0 -4.1 37.05 -9.0 40.8 -11.7 43.45 Q-16.05 47.6 -16.4 47.6 -17.35 47.6 -19.4 44.45 L-23.35 38.45 -27.1 34.25 Q-30.3 30.55 -30.3 29.4 -30.3 27.4 -27.75 27.4 L-26.25 27.55 -25.65 27.8 -23.85 28.3 -20.15 25.45 -17.9 23.6 -15.75 21.6 -13.0 18.4 -10.75 16.3 -10.75 16.0 -10.7 15.55 -10.7 15.45 -10.55 14.1 -10.2 11.05 -9.9 7.0 -19.4 4.7 -22.8 4.0 -23.45 3.8 -26.75 2.8 Q-30.8 1.4 -32.05 0.2 L-35.9 -3.35 Q-36.95 -4.55 -36.95 -6.45 L-36.65 -9.85 -36.15 -12.75 Q-34.75 -14.7 -34.05 -16.0 L-33.0 -17.2 -32.45 -17.8 Q-30.9 -19.0 -28.55 -18.45 L-27.35 -18.05 -26.45 -19.25 Q-25.2 -20.5 -23.4 -20.4 -19.05 -20.2 -18.95 -14.1 L-18.65 -14.05 -18.6 -14.1 -11.3 -10.75 Q-12.8 -12.65 -13.95 -14.7 -15.3 -17.15 -15.65 -20.05 -15.85 -21.9 -15.7 -23.8 -15.3 -27.55 -14.55 -31.1 L-14.65 -31.25 -14.1 -32.1 Q-12.65 -34.6 -11.3 -36.1 L-8.5 -38.15 -5.55 -39.9 Q-3.8 -40.9 -2.25 -41.4 L1.5 -42.4 2.7 -42.4 Q7.1 -42.7 11.3 -41.45 16.35 -39.85 19.5 -35.6 21.85 -32.35 23.05 -28.6 25.4 -21.35 23.35 -14.15 24.8 -15.1 27.15 -16.15 L33.5 -19.25 32.9 -21.3 32.8 -22.75 Q32.8 -24.75 33.2 -25.4 34.0 -26.65 37.15 -27.4 38.85 -27.7 40.05 -26.85 M-11.65 18.35 L-11.55 18.15 -11.85 18.5 -11.65 18.35" fill="#000000" fill-rule="evenodd" stroke="none"/>
  </g>
</svg>
