<?xml version="1.0" encoding="UTF-8" standalone="no"?>
<svg xmlns:ffdec="https://www.free-decompiler.com/flash" xmlns:xlink="http://www.w3.org/1999/xlink" ffdec:objectType="shape" height="600.2px" width="915.6px" xmlns="http://www.w3.org/2000/svg">
  <g transform="matrix(1.0, 0.0, 0.0, 1.0, 494.65, 277.05)">
    <path d="M-318.95 -214.7 Q-311.9 -215.0 -308.4 -221.0 L-307.35 -222.9 Q-289.45 -206.25 -280.35 -227.35 L-258.75 -225.7 Q-261.75 -206.85 -243.4 -203.65 L-241.75 -206.0 -229.75 -206.85 -225.35 -212.75 Q-205.15 -202.5 -196.1 -223.3 -179.1 -216.55 -176.75 -234.3 L-176.45 -233.9 -165.35 -230.35 Q-158.5 -213.25 -138.95 -213.95 L-148.75 -220.1 Q-130.5 -245.3 -167.85 -242.65 -173.05 -253.3 -185.25 -250.65 L-186.95 -248.4 Q-196.8 -258.2 -207.35 -248.6 -209.45 -248.6 -211.5 -247.8 -217.0 -245.95 -215.2 -240.15 L-217.1 -242.05 Q-224.4 -242.4 -228.45 -236.25 L-227.5 -237.75 Q-227.45 -246.55 -235.85 -249.5 -236.2 -263.05 -247.55 -262.85 -267.2 -290.95 -289.8 -263.5 -299.8 -267.65 -304.35 -256.6 -340.25 -262.7 -327.7 -231.15 L-325.45 -230.8 -318.7 -224.8 -318.95 -214.7 M-315.9 -211.65 L-315.9 -211.9 -316.25 -211.9 -315.9 -211.65 M68.25 -227.7 L57.4 -230.1 56.75 -237.5 54.05 -237.95 57.8 -240.65 Q56.15 -269.1 26.75 -255.5 L22.7 -259.4 Q17.9 -259.8 14.55 -256.25 L9.95 -250.9 Q-4.45 -271.0 -27.65 -255.9 -50.6 -284.9 -74.15 -251.45 -100.55 -261.4 -101.5 -234.15 L-107.6 -231.55 Q-97.25 -214.85 -78.9 -222.25 -76.55 -216.1 -71.4 -211.9 -58.55 -201.5 -44.0 -211.15 -35.7 -204.45 -25.15 -207.5 -29.3 -189.5 -10.55 -187.95 -3.65 -169.25 15.3 -177.95 L19.45 -184.3 30.1 -180.95 Q30.0 -180.15 30.05 -179.35 31.1 -165.7 45.2 -161.7 L41.5 -168.55 42.7 -171.9 Q57.8 -162.95 60.8 -182.7 L68.45 -180.15 Q96.05 -180.1 65.6 -196.65 L64.5 -196.7 66.85 -202.05 64.05 -205.9 Q52.0 -211.5 40.2 -205.55 L38.65 -204.6 29.5 -208.4 28.45 -220.05 Q50.05 -218.15 68.25 -227.7 M-175.05 -133.0 L-166.75 -140.55 -166.2 -140.25 Q-164.65 -139.7 -163.05 -139.9 -159.9 -139.85 -158.3 -142.55 L-157.95 -145.2 -151.55 -142.85 Q-150.35 -140.55 -148.55 -138.8 -140.75 -131.3 -131.6 -137.85 -110.15 -127.8 -106.3 -148.55 L-99.35 -150.35 -98.2 -152.6 Q-106.6 -167.4 -121.75 -159.5 -126.2 -168.2 -134.35 -161.9 -156.35 -187.3 -173.0 -156.65 L-179.7 -159.25 -185.95 -151.85 -197.05 -146.55 Q-209.45 -161.2 -221.6 -146.15 -223.65 -147.35 -225.85 -147.8 -231.5 -147.75 -233.15 -142.45 -251.15 -161.65 -272.65 -146.55 -291.15 -150.8 -289.3 -129.9 -311.05 -131.8 -302.05 -111.15 -309.45 -112.1 -314.1 -106.25 -316.9 -108.6 -320.1 -109.3 -328.4 -111.3 -332.9 -104.25 -355.4 -104.5 -353.45 -82.3 L-354.75 -82.5 Q-362.45 -82.6 -364.15 -74.7 L-362.6 -71.35 -369.65 -65.15 Q-386.0 -74.8 -393.55 -56.4 L-402.2 -61.05 -405.15 -59.85 Q-416.95 -82.5 -434.95 -65.7 -467.85 -95.7 -486.45 -55.65 -503.05 -43.15 -486.0 -31.7 L-490.95 -23.15 Q-480.8 -19.4 -475.0 -28.65 -462.95 -12.9 -446.65 -27.0 -424.5 -7.4 -395.2 -10.7 L-394.2 -14.0 -379.35 -8.45 -379.2 -7.55 Q-376.65 0.05 -371.25 3.15 -365.85 6.55 -359.75 4.75 L-360.0 5.0 Q-370.35 14.8 -361.5 23.5 L-366.25 34.8 -361.7 42.8 Q-372.6 45.95 -382.25 53.25 L-376.15 57.85 -382.2 63.7 Q-381.05 68.4 -376.15 70.6 -387.5 81.45 -383.6 97.75 L-382.05 99.2 Q-365.7 101.05 -355.45 88.4 -353.8 99.5 -343.9 101.85 -335.6 103.7 -328.95 97.6 L-314.35 96.6 -308.75 83.05 -294.55 85.3 -293.25 83.6 Q-269.4 129.2 -244.2 84.1 -243.7 83.2 -243.7 82.1 L-221.8 82.7 -216.15 92.2 -213.65 92.85 Q-213.35 97.75 -209.3 100.0 -204.85 102.35 -200.0 100.1 -180.15 105.25 -167.75 87.9 L-152.65 95.0 Q-150.75 103.0 -143.15 106.05 -139.45 107.45 -135.6 107.35 L-132.85 94.4 -143.65 85.25 Q-137.2 81.2 -134.15 73.25 L-114.95 73.15 Q-98.15 88.5 -82.85 73.2 -73.95 79.55 -63.85 74.85 L-61.3 69.1 -58.8 69.65 -49.15 66.15 Q-59.9 60.25 -72.15 66.0 L-72.55 66.3 Q-76.75 63.0 -81.45 66.0 L-85.8 68.85 Q-102.55 51.15 -116.25 71.25 -124.3 49.45 -144.0 61.0 L-147.45 58.6 -153.7 61.95 Q-152.85 47.25 -166.35 51.2 -185.0 42.2 -189.1 65.15 -192.6 59.7 -199.85 60.55 -196.0 52.15 -203.3 46.2 L-204.3 45.35 Q-199.9 34.1 -206.7 27.3 -204.3 -2.55 -233.9 7.75 -235.35 -5.55 -247.4 -1.45 L-248.0 -1.25 -252.65 -11.7 -244.3 -18.8 -248.15 -26.45 -245.75 -27.2 Q-234.35 -19.6 -230.95 -30.75 L-235.25 -37.05 Q-214.2 -32.3 -222.1 -49.85 L-222.1 -50.7 -212.95 -52.9 -211.6 -57.5 Q-182.2 -49.2 -174.75 -76.25 -165.7 -72.75 -163.0 -80.25 -154.1 -76.7 -145.3 -81.25 -153.25 -87.6 -161.05 -90.35 -163.4 -98.35 -171.2 -99.85 L-172.3 -102.4 -191.4 -108.4 Q-210.2 -94.35 -231.6 -110.75 -218.65 -108.8 -213.75 -120.45 L-205.2 -118.4 -202.3 -120.3 Q-188.1 -115.55 -181.55 -129.6 L-175.0 -132.7 -175.0 -132.75 -175.15 -132.95 -175.05 -133.0 M-489.35 -18.95 L-488.6 -17.95 -487.65 -18.65 -489.35 -18.95 M-108.25 -44.15 Q-89.2 -36.2 -78.55 -49.5 -78.1 -50.05 -77.8 -50.75 -59.25 -45.1 -45.75 -62.35 L-30.5 -53.1 -28.9 -39.75 Q4.25 -20.4 3.55 -58.3 3.4 -65.85 5.15 -73.4 L13.6 -80.55 Q-14.85 -129.0 -49.35 -86.95 -104.8 -104.3 -108.25 -44.15 M-104.55 -39.95 L-104.4 -40.7 -106.1 -41.65 -104.55 -39.95 M-143.85 -80.5 L-144.0 -80.75 -143.95 -80.45 -143.85 -80.5 M-171.15 -126.4 L-171.35 -125.1 -170.8 -125.8 -171.15 -126.4 M-350.55 -39.45 L-349.75 -46.0 -353.75 -52.45 -347.4 -58.75 Q-320.7 -48.1 -322.6 -75.5 -304.2 -81.0 -291.3 -98.3 L-278.85 -93.85 -272.55 -104.35 -261.7 -107.25 -254.5 -103.3 -247.35 -102.45 Q-248.2 -100.7 -249.6 -99.55 -254.05 -95.8 -259.75 -97.9 -259.7 -97.3 -259.8 -96.65 -261.15 -87.45 -268.95 -85.3 L-263.8 -83.6 -265.25 -82.45 Q-271.05 -71.3 -259.5 -68.15 L-257.95 -67.75 Q-267.75 -45.7 -242.9 -40.5 L-254.35 -33.6 Q-271.85 -34.45 -275.3 -17.6 -281.95 -25.3 -289.85 -19.1 -299.8 -27.65 -314.25 -24.35 L-329.3 -30.65 -328.85 -3.7 Q-337.65 -14.35 -348.85 -7.3 L-358.8 -17.05 Q-347.3 -25.45 -350.55 -39.45 M-29.85 24.35 Q-39.8 17.7 -50.3 22.35 -55.75 17.95 -62.1 21.15 L-62.45 19.55 Q-62.8 18.1 -63.55 16.85 -70.15 4.95 -82.6 12.3 L-86.15 9.1 Q-94.2 10.55 -97.9 17.95 -101.2 12.85 -107.55 14.4 -105.45 -7.5 -126.75 -5.1 L-128.65 -7.45 -142.25 -2.35 -138.8 7.55 -139.55 11.1 -137.35 19.6 -137.95 20.2 Q-144.85 26.35 -142.5 34.1 L-130.45 33.95 -129.3 37.5 Q-103.7 26.5 -78.0 26.55 -76.5 26.55 -76.0 23.75 -67.5 28.45 -58.45 25.1 -44.05 29.75 -29.85 24.35 M-139.5 36.35 L-137.7 37.15 Q-137.45 35.9 -138.7 36.1 L-139.5 36.35 M54.65 138.95 Q53.05 136.8 51.25 134.8 38.95 121.35 22.0 127.4 L19.95 116.65 20.7 114.65 15.1 110.3 9.6 114.9 5.3 111.95 2.7 115.3 Q-0.35 108.7 -7.2 107.6 -17.4 106.45 -18.1 115.95 L-22.5 114.15 -28.05 121.95 -30.05 120.75 Q-54.65 113.2 -52.65 138.2 L-55.45 141.4 -54.0 146.3 Q-55.25 148.5 -54.5 150.9 -51.55 160.75 -41.1 160.3 L-37.95 150.15 -30.0 149.2 -28.6 147.35 Q-21.9 152.85 -14.6 149.65 -2.45 144.45 -5.9 130.1 L2.0 129.35 4.0 126.7 3.55 122.25 Q4.05 124.3 4.95 126.15 7.75 132.0 13.85 134.35 L11.05 138.6 Q15.95 148.85 26.9 149.95 L36.75 137.55 38.3 138.95 Q46.3 144.5 54.65 138.95 M119.95 246.3 Q113.5 235.5 101.25 236.55 L99.65 236.7 89.45 232.75 Q73.35 205.9 46.75 222.95 L33.85 218.05 Q27.0 209.15 15.2 205.55 -0.85 174.15 -20.05 204.9 L-25.5 201.4 Q-32.2 201.95 -34.3 208.15 L-34.7 209.75 -45.25 217.4 -61.2 213.9 Q-66.1 205.1 -75.4 209.05 L-78.4 210.45 -77.7 199.1 -72.8 192.9 -74.0 183.2 -77.4 181.35 -77.5 170.45 Q-81.0 168.7 -77.05 165.8 L-78.75 160.3 -77.35 158.75 Q-95.7 133.0 -109.65 162.75 L-117.55 166.95 Q-141.6 158.1 -143.8 184.1 L-147.2 183.55 -148.65 185.25 -152.75 184.15 -155.7 189.8 -152.65 195.05 -164.8 203.4 Q-155.15 208.75 -144.8 205.4 L-144.6 205.35 Q-133.4 241.2 -107.65 210.1 -87.1 217.55 -65.5 221.05 L-59.25 224.2 -58.0 229.4 -50.2 228.7 Q-47.5 246.65 -31.0 237.1 L-30.6 232.65 Q-20.7 233.05 -12.2 238.65 -11.55 250.9 -0.2 251.6 L1.0 254.0 Q4.3 281.0 37.6 270.1 41.5 259.8 48.9 250.95 L61.65 253.75 61.1 260.75 Q70.95 271.45 84.9 267.4 98.35 260.1 104.4 247.0 112.4 250.1 119.95 246.3 M-149.3 228.95 L-148.95 228.95 -149.0 228.75 -149.3 228.95 M-67.5 223.35 L-67.35 223.1 -67.65 223.2 -67.5 223.35 M386.1 -161.9 Q381.1 -171.4 371.25 -168.3 L370.5 -168.05 Q367.8 -173.95 361.5 -174.05 360.05 -174.05 358.8 -173.25 342.95 -194.05 319.7 -181.55 L314.95 -183.2 309.05 -179.4 Q290.3 -185.55 287.65 -166.25 L281.6 -162.2 275.3 -167.8 272.9 -167.45 Q261.0 -187.05 254.6 -163.95 L249.5 -165.4 Q244.2 -172.25 236.4 -169.75 L237.1 -173.75 231.7 -180.45 Q238.85 -191.8 227.45 -201.45 227.1 -201.7 227.35 -202.2 237.05 -199.65 247.1 -201.95 L247.95 -203.8 Q256.4 -203.9 263.0 -207.85 L261.7 -220.2 275.0 -217.2 279.25 -220.6 276.6 -223.0 Q289.75 -229.7 292.8 -243.4 266.85 -248.8 245.5 -232.9 211.7 -253.45 188.45 -220.75 L184.5 -222.6 172.35 -214.75 Q152.3 -232.75 137.7 -210.0 119.05 -220.25 109.55 -201.1 L112.4 -196.8 Q107.2 -191.35 111.25 -185.05 115.6 -178.35 123.6 -179.3 123.3 -172.55 130.35 -171.45 133.2 -171.05 135.95 -172.3 138.9 -168.15 143.6 -166.2 148.9 -163.95 154.35 -165.35 L152.1 -163.45 153.7 -153.9 Q134.4 -160.0 121.2 -150.35 118.75 -153.45 115.2 -155.05 106.9 -158.6 99.85 -152.8 84.75 -170.95 68.8 -153.25 62.15 -156.35 56.9 -151.7 46.5 -142.3 56.1 -133.9 L54.1 -129.2 Q54.65 -124.0 58.2 -120.0 59.95 -118.05 61.95 -116.7 L58.05 -107.05 Q77.4 -103.15 89.4 -118.95 L90.6 -120.6 Q108.7 -102.9 126.65 -120.75 L125.85 -127.25 Q145.2 -121.25 164.65 -127.45 L164.7 -135.05 180.4 -135.95 Q207.5 -105.5 215.55 -145.3 L231.8 -147.5 233.25 -152.6 237.4 -149.55 244.95 -152.1 246.45 -155.2 258.25 -154.45 Q276.0 -135.05 292.15 -155.9 302.85 -153.3 310.85 -159.3 L312.7 -159.25 Q317.35 -144.05 331.85 -148.05 L332.5 -150.7 Q353.1 -141.05 363.4 -164.75 374.0 -160.2 385.45 -162.05 L386.1 -161.9 M279.9 -211.2 L278.65 -211.4 Q279.45 -210.8 279.9 -211.2 M420.65 51.85 Q407.8 42.55 394.15 49.7 L393.9 49.8 Q389.3 37.85 378.4 42.5 378.0 42.7 377.6 43.05 371.9 28.15 353.05 31.85 351.8 21.0 341.2 23.7 338.65 24.4 336.8 26.5 L334.85 26.5 334.8 24.45 Q337.5 11.05 321.8 2.8 337.55 -16.4 312.75 -20.3 311.7 -25.95 305.7 -25.65 303.35 -25.55 301.5 -24.6 303.35 -32.05 295.75 -35.75 292.75 -37.25 289.3 -36.95 L286.7 -33.9 Q285.65 -35.45 283.0 -37.15 280.85 -38.65 278.35 -38.3 285.6 -58.25 263.3 -59.05 L263.3 -56.4 Q243.35 -69.8 237.7 -40.75 235.45 -42.45 232.15 -39.8 228.6 -36.85 227.95 -32.1 205.9 -39.0 215.5 -19.9 215.9 -19.1 217.05 -18.95 204.9 -0.2 229.15 3.75 235.5 14.4 247.75 9.8 L250.95 7.8 Q264.05 11.95 275.2 21.15 L269.5 38.3 281.2 38.2 Q282.7 53.2 293.25 44.15 295.0 42.6 296.7 39.65 317.25 60.25 334.35 47.15 L334.9 40.65 343.95 41.55 348.75 39.0 Q358.05 51.25 373.0 52.3 L375.6 50.45 Q385.5 58.25 395.5 54.5 L396.85 54.0 Q410.95 61.55 420.65 51.85 M138.9 -32.6 L136.6 -34.2 Q131.85 -37.2 126.55 -36.15 124.2 -55.55 104.8 -49.65 97.2 -53.45 89.6 -47.6 L87.6 -52.85 Q70.65 -59.9 58.4 -45.45 L54.45 -46.8 Q44.25 -42.4 43.65 -31.5 32.05 -48.05 21.05 -30.7 L21.7 -28.65 Q8.35 -10.25 34.35 -5.5 30.95 -5.8 29.25 -2.65 27.6 0.45 28.6 3.55 L21.2 15.65 34.4 21.6 41.9 12.35 41.4 2.9 68.45 8.7 69.75 5.55 72.3 4.05 65.75 1.9 62.35 -4.6 Q50.75 -4.6 42.9 -12.8 L53.85 -17.75 54.8 -25.55 Q74.8 -22.6 94.55 -27.7 L97.8 -35.25 Q118.85 -25.35 137.25 -33.1 L138.9 -32.6 M293.1 112.1 L281.7 105.0 Q271.8 82.5 251.9 97.25 L250.95 95.05 Q241.45 94.5 237.85 103.25 L228.6 94.45 227.2 84.05 229.0 82.95 Q243.75 73.0 229.8 61.25 L230.6 56.5 213.8 53.25 Q212.7 49.85 211.05 46.7 199.5 25.1 177.75 38.5 167.2 17.2 150.5 35.0 L147.65 35.8 Q143.45 36.95 141.15 40.6 134.9 50.55 144.1 57.6 L149.6 79.3 142.5 80.6 Q134.5 59.35 111.85 57.95 L84.4 67.6 Q69.8 57.15 58.05 70.6 L51.85 68.0 47.15 77.55 58.8 81.35 55.9 92.65 Q57.05 95.25 59.05 97.25 63.85 102.2 70.65 99.85 83.7 118.2 106.55 118.15 L112.1 128.45 109.55 133.4 109.95 139.3 108.7 140.0 Q99.95 145.15 99.55 155.3 L115.15 157.7 137.75 182.65 134.9 196.15 136.0 206.45 132.1 213.3 142.4 209.45 143.2 204.95 152.1 203.65 Q158.8 218.75 172.55 211.15 L172.25 206.7 176.9 201.9 177.8 195.5 192.55 192.25 192.35 192.05 Q191.9 191.5 192.7 192.1 L193.6 192.7 Q192.9 191.55 191.85 190.9 177.0 181.35 157.9 179.15 L156.4 178.05 155.85 177.75 146.35 177.15 142.2 166.95 Q142.2 165.9 142.7 165.7 156.15 160.9 153.1 147.7 153.6 146.5 154.65 145.65 160.45 141.35 166.05 145.85 174.85 139.3 170.55 128.4 181.1 117.05 172.35 104.15 L181.75 98.3 187.75 105.95 192.6 107.0 191.05 109.7 Q201.15 125.5 186.55 131.45 L186.2 134.45 186.95 135.55 Q191.45 141.65 190.1 145.85 191.0 146.25 191.9 146.7 202.75 151.8 213.25 146.9 213.7 171.35 235.3 166.6 L235.9 158.75 Q252.45 158.3 266.75 167.0 309.55 193.05 273.3 134.9 273.5 133.8 274.2 132.8 278.5 126.65 277.25 119.45 285.3 117.8 291.25 112.35 L293.1 112.1 M100.75 161.15 L100.85 161.35 101.0 161.25 100.75 161.15 M114.95 168.45 Q115.45 167.9 115.0 168.2 L114.95 168.45 M201.35 168.05 Q201.05 165.25 201.05 167.4 L201.35 168.05" fill="#ffffff" fill-rule="evenodd" stroke="none"/>
    <path d="M-138.95 -213.95 Q-158.5 -213.25 -165.35 -230.35 L-176.45 -233.9 -176.75 -234.3 Q-179.1 -216.55 -196.1 -223.3 -205.15 -202.5 -225.35 -212.75 L-229.75 -206.85 -241.75 -206.0 -243.4 -203.65 Q-261.75 -206.85 -258.75 -225.7 L-280.35 -227.35 Q-289.45 -206.25 -307.35 -222.9 L-308.4 -221.0 Q-311.9 -215.0 -318.95 -214.7 -318.95 -213.55 -318.15 -212.7 -317.35 -211.9 -316.25 -211.9 L-315.9 -211.9 -315.9 -211.65 Q-302.0 -204.9 -288.8 -207.25 L-287.5 -205.35 Q-278.5 -195.5 -267.15 -205.05 L-260.9 -197.85 Q-261.6 -190.35 -255.25 -187.25 -254.2 -181.9 -250.6 -178.15 -234.05 -160.65 -217.85 -186.7 L-211.2 -185.8 -209.65 -186.9 -206.8 -183.9 Q-191.85 -171.8 -187.75 -194.1 -166.25 -175.3 -159.4 -201.1 L-146.55 -197.05 -144.1 -203.1 -142.95 -203.9 Q-135.45 -209.05 -138.95 -213.95 M68.25 -227.7 Q50.05 -218.15 28.45 -220.05 L29.5 -208.4 38.65 -204.6 40.2 -205.55 Q52.0 -211.5 64.05 -205.9 L65.35 -208.45 Q81.3 -214.8 70.15 -227.05 69.3 -227.95 68.25 -227.7 M45.2 -161.7 Q31.1 -165.7 30.05 -179.35 30.0 -180.15 30.1 -180.95 L19.45 -184.3 15.3 -177.95 Q-3.65 -169.25 -10.55 -187.95 -29.3 -189.5 -25.15 -207.5 -35.7 -204.45 -44.0 -211.15 -58.55 -201.5 -71.4 -211.9 -76.55 -216.1 -78.9 -222.25 -97.25 -214.85 -107.6 -231.55 L-109.6 -233.0 Q-116.65 -217.25 -100.2 -212.15 -97.15 -183.9 -70.85 -193.5 -71.0 -191.3 -70.35 -189.3 -68.25 -182.6 -61.7 -179.75 -65.3 -141.95 -27.25 -142.15 L-19.6 -161.55 -8.0 -159.25 Q-7.6 -155.5 -5.5 -152.5 1.05 -143.1 11.15 -148.55 29.3 -131.05 36.0 -154.85 L45.2 -161.7 M-175.05 -133.0 L-175.15 -132.95 -175.0 -132.75 -175.05 -133.0 M-175.0 -132.7 L-181.55 -129.6 Q-188.1 -115.55 -202.3 -120.3 L-205.2 -118.4 -213.75 -120.45 Q-218.65 -108.8 -231.6 -110.75 -210.2 -94.35 -191.4 -108.4 L-172.3 -102.4 Q-154.65 -112.2 -171.25 -124.55 -171.45 -124.65 -171.35 -125.1 L-171.15 -126.4 Q-171.15 -129.0 -172.3 -130.85 -173.4 -132.7 -175.0 -132.7 M-145.3 -81.25 Q-154.1 -76.7 -163.0 -80.25 -165.7 -72.75 -174.75 -76.25 -182.2 -49.2 -211.6 -57.5 L-212.95 -52.9 -222.1 -50.7 -222.1 -49.85 Q-214.2 -32.3 -235.25 -37.05 L-230.95 -30.75 Q-234.35 -19.6 -245.75 -27.2 L-248.15 -26.45 -244.3 -18.8 -233.35 -14.85 Q-232.65 -13.35 -231.35 -12.25 -224.45 -6.15 -216.25 -10.45 L-213.65 -16.4 Q-188.5 -6.95 -185.8 -34.35 L-189.75 -40.35 -186.05 -42.1 Q-160.7 -31.9 -158.35 -61.9 L-156.75 -61.75 Q-139.95 -62.9 -143.85 -80.5 L-143.95 -80.45 -144.0 -80.75 -145.3 -81.25 M-49.15 66.15 L-58.8 69.65 -61.3 69.1 -63.85 74.85 Q-73.95 79.55 -82.85 73.2 -98.15 88.5 -114.95 73.15 L-134.15 73.25 Q-137.2 81.2 -143.65 85.25 L-132.85 94.4 -85.5 92.65 Q-64.75 102.4 -57.1 81.05 L-55.45 80.55 Q-44.55 76.7 -49.15 66.15 M-135.6 107.35 Q-139.45 107.45 -143.15 106.05 -150.75 103.0 -152.65 95.0 L-167.75 87.9 Q-180.15 105.25 -200.0 100.1 -204.85 102.35 -209.3 100.0 -213.35 97.75 -213.65 92.85 L-216.15 92.2 -221.8 82.7 -243.7 82.1 Q-243.7 83.2 -244.2 84.1 -269.4 129.2 -293.25 83.6 L-294.55 85.3 -308.75 83.05 -314.35 96.6 -328.95 97.6 Q-335.6 103.7 -343.9 101.85 -353.8 99.5 -355.45 88.4 -365.7 101.05 -382.05 99.2 L-383.6 97.75 -385.15 99.5 Q-369.55 125.8 -341.85 121.55 L-334.8 127.8 Q-321.45 156.8 -297.55 134.15 L-297.35 136.4 Q-295.5 152.3 -279.3 150.75 -268.0 189.05 -249.75 152.8 L-244.5 152.75 Q-229.1 164.8 -214.65 151.6 L-217.15 149.45 -210.7 146.9 Q-182.75 160.35 -176.5 129.35 -147.1 133.75 -151.7 108.05 L-150.65 108.75 Q-142.55 114.05 -135.6 107.35 M-371.25 3.15 Q-376.65 0.05 -379.2 -7.55 L-379.35 -8.45 -394.2 -14.0 -395.2 -10.7 Q-424.5 -7.4 -446.65 -27.0 -462.95 -12.9 -475.0 -28.65 -480.8 -19.4 -490.95 -23.15 -491.95 -22.6 -491.95 -21.7 -491.95 -19.65 -489.35 -18.95 L-487.65 -18.65 -488.6 -17.95 -476.1 -13.5 Q-474.25 -5.65 -465.9 -6.2 L-463.15 -6.6 Q-451.35 28.05 -420.5 5.95 L-410.3 5.15 Q-396.1 13.25 -378.55 10.65 L-373.5 3.35 -371.25 3.15 M-28.9 -39.75 L-30.5 -53.1 -45.75 -62.35 Q-59.25 -45.1 -77.8 -50.75 -78.1 -50.05 -78.55 -49.5 -89.2 -36.2 -108.25 -44.15 L-104.4 -40.7 -104.55 -39.95 Q-92.9 -11.0 -62.8 -29.4 -53.1 -19.6 -42.2 -28.3 L-41.0 -28.25 Q-30.7 -29.3 -28.9 -39.75 M-265.25 -82.45 L-263.8 -83.6 -268.95 -85.3 Q-261.15 -87.45 -259.8 -96.65 -259.7 -97.3 -259.75 -97.9 -254.05 -95.8 -249.6 -99.55 -248.2 -100.7 -247.35 -102.45 L-254.5 -103.3 -261.7 -107.25 -272.55 -104.35 -278.85 -93.85 -291.3 -98.3 Q-304.2 -81.0 -322.6 -75.5 -320.7 -48.1 -347.4 -58.75 L-353.75 -52.45 -349.75 -46.0 -350.55 -39.45 -348.45 -39.6 -346.9 -41.35 -341.3 -42.9 -336.75 -40.35 Q-305.5 -40.5 -302.05 -69.5 L-296.7 -73.95 Q-290.7 -73.8 -286.3 -78.3 L-285.7 -80.95 Q-276.3 -77.15 -265.25 -82.45 M-142.5 34.1 L-142.05 36.5 -139.5 36.35 -138.7 36.1 Q-137.45 35.9 -137.7 37.15 -139.45 56.0 -121.1 51.9 -119.95 51.65 -118.9 51.2 L-116.2 53.15 -109.1 50.6 Q-93.85 55.0 -91.45 40.45 -83.75 43.65 -77.65 38.15 -73.7 44.95 -67.65 40.2 L-66.5 39.15 -61.4 39.65 -60.1 34.45 Q-34.35 47.2 -29.85 24.35 -44.05 29.75 -58.45 25.1 -67.5 28.45 -76.0 23.75 -76.5 26.55 -78.0 26.55 -103.7 26.5 -129.3 37.5 L-130.45 33.95 -142.5 34.1 M11.05 138.6 Q10.05 163.35 32.05 157.45 62.5 186.6 53.4 148.8 L56.75 143.4 54.65 138.95 Q46.3 144.5 38.3 138.95 L36.75 137.55 26.9 149.95 Q15.95 148.85 11.05 138.6 M119.95 246.3 Q112.4 250.1 104.4 247.0 98.35 260.1 84.9 267.4 70.95 271.45 61.1 260.75 L61.65 253.75 48.9 250.95 Q41.5 259.8 37.6 270.1 4.3 281.0 1.0 254.0 L-0.2 251.6 Q-11.55 250.9 -12.2 238.65 -20.7 233.05 -30.6 232.65 L-31.0 237.1 Q-47.5 246.65 -50.2 228.7 L-58.0 229.4 Q-57.75 249.5 -39.55 248.95 L-37.25 248.45 -20.7 268.0 Q-26.0 295.65 3.05 297.8 5.05 322.45 29.0 323.15 33.05 323.25 35.45 319.8 L34.8 315.85 38.35 313.4 39.3 303.85 50.8 299.1 Q58.65 315.0 73.7 305.45 101.0 308.45 93.0 282.3 95.8 281.15 97.3 278.55 99.05 275.55 97.8 272.3 123.75 272.0 119.95 246.3 M-65.5 221.05 Q-87.1 217.55 -107.65 210.1 -133.4 241.2 -144.6 205.35 L-144.8 205.4 Q-155.15 208.75 -164.8 203.4 L-166.85 203.95 -160.75 216.3 Q-165.15 226.0 -154.6 230.75 L-153.0 231.35 -149.3 228.95 -149.0 228.75 -148.95 228.95 -142.75 228.5 Q-140.0 238.9 -129.65 240.25 -123.7 257.85 -109.15 246.1 L-99.35 246.05 Q-83.95 256.0 -82.2 238.95 -77.45 229.45 -79.6 226.05 L-78.25 226.7 Q-71.7 229.3 -67.5 223.35 L-67.65 223.2 -67.35 223.1 Q-66.6 222.65 -65.5 221.05 M386.1 -161.9 L385.45 -162.05 Q374.0 -160.2 363.4 -164.75 353.1 -141.05 332.5 -150.7 L331.85 -148.05 Q317.35 -144.05 312.7 -159.25 L310.85 -159.3 Q302.85 -153.3 292.15 -155.9 276.0 -135.05 258.25 -154.45 L246.45 -155.2 244.95 -152.1 237.4 -149.55 Q235.55 -148.7 237.2 -147.4 L237.55 -147.25 Q239.3 -135.0 253.95 -136.55 257.55 -123.55 268.45 -129.7 280.65 -124.85 285.8 -134.95 L291.8 -136.4 Q294.5 -131.25 299.35 -133.25 311.55 -106.4 330.1 -127.9 L338.75 -129.2 Q366.2 -113.3 367.45 -141.3 376.6 -141.0 372.8 -150.0 388.7 -148.05 386.1 -161.9 M231.8 -147.5 L215.55 -145.3 Q207.5 -105.5 180.4 -135.95 L164.7 -135.05 164.65 -127.45 Q145.2 -121.25 125.85 -127.25 L126.65 -120.75 Q108.7 -102.9 90.6 -120.6 L89.4 -118.95 Q77.4 -103.15 58.05 -107.05 L55.9 -108.0 53.95 -106.9 57.55 -103.45 Q66.0 -64.85 98.9 -82.4 130.95 -58.1 143.85 -96.4 L149.35 -96.75 Q159.85 -100.3 160.1 -112.45 163.2 -111.4 166.2 -111.85 175.85 -113.65 182.45 -120.15 182.7 -115.65 184.3 -111.35 195.45 -81.5 216.55 -101.8 271.45 -103.05 226.9 -138.3 L231.8 -147.5 M279.25 -220.6 L275.0 -217.2 261.7 -220.2 263.0 -207.85 Q256.4 -203.9 247.95 -203.8 L247.1 -201.95 Q237.05 -199.65 227.35 -202.2 227.1 -201.7 227.45 -201.45 238.85 -191.8 231.7 -180.45 L237.1 -173.75 Q251.0 -174.05 249.85 -187.6 L249.65 -189.45 257.6 -192.35 Q286.5 -179.45 283.4 -202.0 282.7 -206.85 279.9 -211.2 L279.25 -220.6 M279.9 -211.2 Q279.45 -210.8 278.65 -211.4 L279.9 -211.2 M420.65 51.85 Q410.95 61.55 396.85 54.0 L395.5 54.5 Q385.5 58.25 375.6 50.45 L373.0 52.3 Q358.05 51.25 348.75 39.0 L343.95 41.55 334.9 40.65 334.35 47.15 Q317.25 60.25 296.7 39.65 295.0 42.6 293.25 44.15 282.7 53.2 281.2 38.2 L269.5 38.3 277.25 49.7 Q278.1 61.4 289.95 63.75 313.2 100.75 330.1 63.2 L348.0 69.25 Q344.2 85.55 360.85 83.95 374.45 96.8 382.15 79.3 397.4 81.4 398.3 65.85 423.6 77.7 420.65 51.85 M62.35 -4.6 L69.85 -7.25 Q80.35 7.1 93.15 -4.1 L99.7 -6.55 Q111.55 7.9 123.2 -4.1 139.65 -5.0 135.9 -20.75 L139.1 -20.65 Q143.6 -26.55 138.9 -32.6 L137.25 -33.1 Q118.85 -25.35 97.8 -35.25 L94.55 -27.7 Q74.8 -22.6 54.8 -25.55 L53.85 -17.75 42.9 -12.8 Q50.75 -4.6 62.35 -4.6 M21.2 15.65 Q38.0 50.2 55.05 23.25 78.0 25.9 74.8 6.1 L74.35 3.5 72.3 4.05 69.75 5.55 68.45 8.7 41.4 2.9 41.9 12.35 34.4 21.6 21.2 15.65 M99.55 155.3 L100.75 161.15 101.0 161.25 100.85 161.35 Q100.85 164.3 104.95 166.4 109.1 168.45 114.95 168.45 L114.95 172.2 121.65 173.05 121.5 173.6 Q118.7 190.8 134.9 196.15 L137.75 182.65 115.15 157.7 99.55 155.3 M132.1 213.3 L134.25 217.25 155.0 221.6 Q154.05 225.7 157.05 227.5 177.55 240.1 185.55 218.95 190.75 218.6 193.25 214.25 196.4 208.75 191.7 203.55 L194.9 201.65 193.6 192.7 192.7 192.1 192.55 192.25 177.8 195.5 176.9 201.9 172.25 206.7 172.55 211.15 Q158.8 218.75 152.1 203.65 L143.2 204.95 142.4 209.45 132.1 213.3 M157.9 179.15 Q171.2 177.85 171.7 162.1 L171.95 162.65 Q185.7 186.0 201.35 168.05 L212.6 173.35 Q210.7 178.25 213.0 182.95 215.6 188.25 221.85 187.45 221.75 192.45 224.45 196.35 232.4 207.8 245.95 200.3 L256.45 200.75 Q256.1 203.7 258.4 205.6 270.15 215.65 280.7 202.8 L282.55 205.5 Q286.65 207.25 290.85 206.8 299.45 205.5 301.4 196.9 301.4 201.7 305.35 204.5 307.95 206.3 310.75 204.85 309.95 207.2 311.05 209.5 311.95 211.5 314.05 212.15 L313.0 212.9 Q306.15 217.9 307.05 226.45 309.8 229.65 313.8 231.05 329.5 236.45 325.85 220.25 L327.3 218.15 324.05 211.5 Q333.3 191.7 311.1 188.05 318.25 168.6 300.35 163.05 L298.7 160.05 Q316.7 146.15 296.7 136.65 L296.4 131.45 289.85 128.95 290.45 128.35 Q296.55 121.1 293.1 112.1 L291.25 112.35 Q285.3 117.8 277.25 119.45 278.5 126.65 274.2 132.8 273.5 133.8 273.3 134.9 309.55 193.05 266.75 167.0 252.45 158.3 235.9 158.75 L235.3 166.6 Q213.7 171.35 213.25 146.9 202.75 151.8 191.9 146.7 191.0 146.25 190.1 145.85 191.45 141.65 186.95 135.55 L186.2 134.45 186.55 131.45 Q201.15 125.5 191.05 109.7 L192.6 107.0 187.75 105.95 181.75 98.3 172.35 104.15 Q181.1 117.05 170.55 128.4 174.85 139.3 166.05 145.85 160.45 141.35 154.65 145.65 153.6 146.5 153.1 147.7 156.15 160.9 142.7 165.7 142.2 165.9 142.2 166.95 L146.35 177.15 155.85 177.75 155.7 177.45 156.4 178.05 157.9 179.15 M114.95 168.45 L115.0 168.2 Q115.45 167.9 114.95 168.45 M201.35 168.05 L201.05 167.4 Q201.05 165.25 201.35 168.05" fill="#a8a8a8" fill-rule="evenodd" stroke="none"/>
  </g>
</svg>
