<?xml version="1.0" encoding="UTF-8" standalone="no"?>
<svg xmlns:ffdec="https://www.free-decompiler.com/flash" xmlns:xlink="http://www.w3.org/1999/xlink" ffdec:objectType="shape" height="27.65px" width="123.55px" xmlns="http://www.w3.org/2000/svg">
  <g transform="matrix(1.0, 0.0, 0.0, 1.0, 62.1, 12.45)">
    <path d="M59.3 -8.85 L59.3 -4.85 59.3 -0.2 59.3 0.4 59.05 5.15 Q58.75 8.1 55.8 9.0 L52.7 9.45 52.55 9.45 52.5 9.45 -52.45 9.45 -53.2 9.45 -53.35 9.45 -56.45 9.0 Q-59.4 8.1 -59.7 5.15 L-59.95 0.4 -59.95 -0.2 -59.95 -4.85 -59.95 -8.85 Q-58.4 -10.8 -55.85 -11.4 L-53.2 -11.7 -52.45 -11.7 52.5 -11.7 52.55 -11.7 55.2 -11.4 Q57.75 -10.8 59.3 -8.85" fill="url(#gradient0)" fill-rule="evenodd" stroke="none"/>
    <path d="M-59.95 -8.85 L-59.95 -4.85 -59.95 -0.2 -59.95 0.4 -59.7 5.15 Q-59.4 8.1 -56.45 9.0 L-53.35 9.45 -53.2 9.45 -52.45 9.45 52.5 9.45 52.55 9.45 52.7 9.45 55.8 9.0 Q58.75 8.1 59.05 5.15 L59.3 0.4 59.3 -0.2 59.3 -4.85 59.3 -8.85 Q60.5 -7.25 60.7 -5.3 L60.7 -4.85 60.7 0.35 60.7 9.8 Q60.7 14.45 54.2 14.45 L52.5 14.45 -52.45 14.45 -54.85 14.45 Q-61.35 14.45 -61.35 9.8 L-61.35 0.35 -61.35 -4.85 -61.35 -5.3 Q-61.15 -7.25 -59.95 -8.85" fill="url(#gradient1)" fill-rule="evenodd" stroke="none"/>
    <path d="M59.3 -8.85 Q57.75 -10.8 55.2 -11.4 L52.55 -11.7 52.5 -11.7 -52.45 -11.7 -53.2 -11.7 -55.85 -11.4 Q-58.4 -10.8 -59.95 -8.85 -61.15 -7.25 -61.35 -5.3 L-61.35 -4.85 -61.35 0.35 -61.35 9.8 Q-61.35 14.45 -54.85 14.45 L-52.45 14.45 52.5 14.45 54.2 14.45 Q60.7 14.45 60.7 9.8 L60.7 0.35 60.7 -4.85 60.7 -5.3 Q60.5 -7.25 59.3 -8.85 Z" fill="none" stroke="#20201f" stroke-linecap="round" stroke-linejoin="round" stroke-width="1.5"/>
  </g>
  <defs>
    <linearGradient gradientTransform="matrix(0.0, 0.0107, -0.1131, 0.0, -6.15, 8.8)" gradientUnits="userSpaceOnUse" id="gradient0" spreadMethod="pad" x1="-819.2" x2="819.2">
      <stop offset="0.0" stop-color="#00bb06"/>
      <stop offset="0.4627450980392157" stop-color="#1c7900"/>
    </linearGradient>
    <linearGradient gradientTransform="matrix(0.0, -0.01, 0.1155, 0.0, -5.4, -0.2)" gradientUnits="userSpaceOnUse" id="gradient1" spreadMethod="pad" x1="-819.2" x2="819.2">
      <stop offset="0.0" stop-color="#00bb06"/>
      <stop offset="0.4627450980392157" stop-color="#1b7b00"/>
    </linearGradient>
  </defs>
</svg>
