<?xml version="1.0" encoding="UTF-8" standalone="no"?>
<svg xmlns:ffdec="https://www.free-decompiler.com/flash" xmlns:xlink="http://www.w3.org/1999/xlink" ffdec:objectType="shape" height="37.25px" width="35.45px" xmlns="http://www.w3.org/2000/svg">
  <g transform="matrix(1.0, 0.0, 0.0, 1.0, 17.7, 18.65)">
    <path d="M14.45 -7.4 L14.95 -7.25 14.45 -10.25 13.65 -11.7 12.15 -13.35 11.75 -13.75 11.6 -13.7 11.5 -13.75 Q10.9 -14.55 9.45 -15.3 L8.75 -15.6 Q5.5 -16.85 -0.3 -17.0 L-2.6 -17.05 -3.1 -17.0 -5.2 -16.5 -5.4 -16.45 -6.6 -16.1 -7.2 -15.65 -9.7 -14.65 -10.65 -14.1 -10.85 -13.85 -12.2 -12.7 Q-13.8 -11.15 -14.8 -9.1 L-15.45 -5.55 -15.45 -5.5 -15.1 -5.65 -15.6 -4.55 -15.85 -3.55 -15.75 -3.1 -16.05 -2.05 -15.85 -1.05 -15.65 -0.05 -15.8 1.2 -15.8 1.5 -15.65 3.3 -15.65 3.45 -15.45 4.55 -14.85 7.7 -14.8 8.65 -10.4 8.0 -7.65 7.5 -7.65 7.45 -8.1 3.15 -8.05 3.0 -8.05 2.9 -8.15 2.15 -8.05 0.65 -8.05 0.15 -8.05 -0.1 -7.95 -0.2 -7.55 -2.1 -7.25 -2.95 -6.65 -3.9 -5.3 -5.05 -4.75 -5.45 Q-3.35 -6.3 -1.05 -6.45 L-1.05 -6.55 0.15 -6.5 0.25 -6.45 3.45 -6.35 Q5.25 -6.05 5.9 -5.3 L6.35 -5.15 7.25 -4.05 8.5 -1.9 8.95 0.25 9.2 1.05 9.35 2.25 9.35 3.35 9.25 4.1 9.0 5.95 8.9 7.1 11.15 7.35 13.25 7.7 15.1 8.0 15.35 5.4 15.75 2.55 15.75 2.1 15.75 2.0 15.7 1.75 15.8 0.55 15.8 0.35 15.8 0.25 15.6 -3.4 15.35 -4.55 15.2 -5.35 14.9 -6.0 14.45 -7.4 M15.3 -12.5 L15.45 -12.2 15.9 -11.3 16.1 -10.9 16.2 -10.6 Q17.05 -9.05 17.4 -6.65 17.85 -4.1 17.7 -0.5 L17.65 0.95 17.65 1.95 17.5 2.05 17.4 2.05 17.4 2.65 17.5 4.5 17.4 5.1 17.1 7.0 16.8 7.95 16.3 10.4 16.15 11.3 16.05 11.65 15.9 12.35 15.7 12.95 15.45 14.15 14.65 17.6 14.6 17.65 14.45 17.65 14.5 17.85 Q14.5 18.3 14.1 18.45 L13.7 18.45 13.65 18.55 12.95 18.6 11.3 18.55 10.9 18.5 10.45 18.45 Q9.1 18.3 8.45 17.8 L7.45 17.6 Q5.95 17.2 5.85 16.45 L5.4 16.4 4.95 15.8 4.95 15.65 Q4.95 14.8 5.5 12.65 L5.55 12.05 5.55 11.75 5.65 11.35 6.0 10.25 6.1 9.7 6.15 8.9 6.6 5.75 6.75 2.25 Q6.75 0.35 6.4 -1.1 L5.35 -2.35 Q3.5 -4.0 0.55 -4.0 L-3.05 -3.5 Q-4.6 -2.6 -5.45 -1.4 L-5.45 -1.05 -5.65 -0.55 -5.65 0.85 -5.5 1.6 -5.65 2.55 -5.6 2.9 -4.45 10.35 -4.45 10.55 -4.15 11.85 -3.75 13.6 -3.7 13.9 -3.25 15.95 -3.15 16.25 -4.3 17.15 -4.55 17.05 -5.05 17.65 -8.8 18.3 -11.4 18.6 -13.5 18.6 -14.05 17.75 -14.25 17.55 -14.4 17.35 -15.55 13.3 -15.9 12.0 -16.2 10.85 -17.35 4.7 -17.45 3.4 -17.6 0.25 -17.7 -2.5 -17.5 -3.6 -17.25 -4.5 Q-17.35 -4.4 -17.45 -4.4 L-17.4 -6.5 -17.25 -7.35 -17.15 -7.9 -16.85 -9.15 -16.5 -10.25 -15.8 -11.3 -13.85 -14.4 -9.85 -17.05 Q-8.05 -17.75 -5.75 -18.05 L-5.4 -18.3 -3.4 -18.55 0.75 -18.6 4.95 -18.4 5.5 -18.15 6.4 -18.05 8.05 -17.5 Q9.7 -17.35 11.05 -16.4 L12.2 -16.05 12.45 -15.8 15.3 -12.5 M13.1 -8.3 L13.25 -8.25 13.25 -8.15 13.2 -8.15 13.1 -8.3 M6.45 -12.15 L6.4 -12.1 6.1 -12.25 6.45 -12.15 M8.45 10.1 L8.25 11.05 8.2 11.3 8.15 11.5 7.9 12.75 7.8 13.25 7.65 15.2 7.65 15.5 7.9 15.5 9.65 16.25 10.0 16.3 10.8 16.5 11.35 16.6 13.5 16.6 13.8 14.5 13.9 14.1 14.35 11.55 14.45 11.05 14.65 10.1 14.9 9.2 15.0 8.8 12.55 8.4 11.6 8.25 8.8 7.75 8.6 9.1 8.45 10.1 M-3.8 -13.75 L-3.7 -13.8 -3.7 -13.75 -3.8 -13.75 M-6.8 10.65 L-7.0 9.9 -7.15 9.3 -7.25 8.25 -7.85 8.25 -7.85 8.2 -8.1 8.3 -14.65 9.25 -14.8 9.25 -14.8 9.5 -14.65 9.5 -14.65 9.75 -14.55 10.25 -14.4 10.8 -14.15 11.7 -13.8 12.45 -13.65 13.05 -13.55 13.5 Q-13.05 15.15 -13.0 16.05 L-12.85 16.1 -12.7 16.15 -12.7 16.3 -12.55 16.4 -12.15 16.4 -10.0 16.25 -9.3 16.15 -9.2 16.1 -9.05 16.1 -8.9 16.1 -8.9 16.05 -7.5 15.8 Q-7.35 15.6 -7.05 15.5 L-6.55 15.35 -6.35 15.4 Q-6.1 15.4 -6.05 15.25 L-6.05 14.9 -6.15 13.8 -6.5 12.05 -6.65 11.45 -6.8 10.65" fill="#000000" fill-rule="evenodd" stroke="none"/>
    <path d="M5.9 -14.8 L5.95 -14.6 5.55 -14.6 5.9 -14.8" fill="#e03d00" fill-rule="evenodd" stroke="none"/>
    <path d="M14.45 11.05 L8.45 10.1 8.6 9.1 8.8 7.75 11.6 8.25 12.55 8.4 15.0 8.8 14.9 9.2 14.65 10.1 14.45 11.05 M-7.85 8.25 L-7.25 8.25 -7.15 9.3 -7.0 9.9 -6.8 10.65 -14.15 11.7 -14.4 10.8 -14.55 10.25 -14.65 9.75 -14.65 9.5 -14.8 9.5 -14.8 9.25 -14.65 9.25 -8.1 8.3 -7.85 8.25" fill="#d0d0d0" fill-rule="evenodd" stroke="none"/>
    <path d="M14.45 11.05 L14.35 11.55 13.9 14.1 13.8 14.5 13.5 16.6 11.35 16.6 10.8 16.5 10.0 16.3 9.65 16.25 7.9 15.5 7.65 15.5 7.65 15.2 7.8 13.25 7.9 12.75 8.15 11.5 8.2 11.3 8.25 11.05 8.45 10.1 14.45 11.05 M-6.8 10.65 L-6.65 11.45 -6.5 12.05 -6.15 13.8 -6.05 14.9 -6.05 15.25 Q-6.1 15.4 -6.35 15.4 L-6.55 15.35 -7.05 15.5 Q-7.35 15.6 -7.5 15.8 L-8.9 16.05 -8.9 16.1 -9.05 16.1 -9.2 16.1 -9.3 16.15 -10.0 16.25 -12.15 16.4 -12.55 16.4 -12.7 16.3 -12.7 16.15 -12.85 16.1 -13.0 16.05 Q-13.05 15.15 -13.55 13.5 L-13.65 13.05 -13.8 12.45 -14.15 11.7 -6.8 10.65" fill="#7391aa" fill-rule="evenodd" stroke="none"/>
    <path d="M-5.4 -16.45 L-5.2 -16.5 -3.1 -17.0 -2.6 -17.05 -0.3 -17.0 Q5.5 -16.85 8.75 -15.6 L9.45 -15.3 Q10.9 -14.55 11.5 -13.75 L11.6 -13.7 11.75 -13.75 12.15 -13.35 13.65 -11.7 14.45 -10.25 14.95 -7.25 14.45 -7.4 13.65 -8.85 12.15 -10.5 11.75 -10.9 11.6 -10.9 11.5 -10.95 9.45 -12.45 9.2 -12.55 Q5.95 -14.0 -0.3 -14.15 L-2.6 -14.2 -5.2 -13.65 -6.6 -13.25 -7.2 -12.8 -8.25 -12.5 -5.4 -16.45 M5.9 -14.8 L5.55 -14.6 5.95 -14.6 5.9 -14.8" fill="#ff7102" fill-rule="evenodd" stroke="none"/>
    <path d="M-15.1 -5.65 L-15.45 -5.5 -15.45 -5.55 -14.8 -9.1 Q-13.8 -11.15 -12.2 -12.7 L-10.85 -13.85 -10.65 -14.1 -9.7 -14.65 -7.2 -15.65 -6.6 -16.1 -5.4 -16.45 -8.25 -12.5 -9.7 -11.8 -10.65 -11.25 -10.85 -11.0 -12.2 -9.85 Q-13.95 -8.15 -15.05 -5.9 L-15.1 -5.65" fill="#ffc402" fill-rule="evenodd" stroke="none"/>
    <path d="M14.45 -7.4 L14.9 -6.0 15.2 -5.35 15.35 -4.55 15.6 -3.4 15.8 0.25 15.8 0.35 15.8 0.55 15.7 1.75 15.75 2.0 15.75 2.1 15.75 2.55 15.35 5.4 15.1 8.0 13.25 7.7 11.15 7.35 8.9 7.1 9.0 5.95 9.25 4.1 9.35 3.35 9.35 2.25 9.2 1.05 8.95 0.25 8.5 -1.9 7.25 -4.05 6.35 -5.15 5.9 -5.3 Q5.25 -6.05 3.45 -6.35 L0.25 -6.45 0.15 -6.5 -1.05 -6.55 -1.05 -6.45 Q-3.35 -6.3 -4.75 -5.45 L-5.3 -5.05 -6.65 -3.9 -7.25 -2.95 -7.55 -2.1 -7.95 -0.2 -8.05 -0.1 -8.05 0.15 -8.05 0.65 -8.15 2.15 -8.05 2.9 -8.05 3.0 -8.1 3.15 -7.65 7.45 -7.65 7.5 -10.4 8.0 -14.8 8.65 -14.85 7.7 -15.45 4.55 -15.65 3.45 -15.65 3.3 -15.8 1.5 -15.8 1.2 -15.65 -0.05 -15.85 -1.05 -16.05 -2.05 -15.75 -3.1 -15.85 -3.55 -15.6 -4.55 -15.1 -5.65 -15.05 -5.9 Q-13.95 -8.15 -12.2 -9.85 L-10.85 -11.0 -10.65 -11.25 -9.7 -11.8 -8.25 -12.5 -7.2 -12.8 -6.6 -13.25 -5.2 -13.65 -2.6 -14.2 -0.3 -14.15 Q5.95 -14.0 9.2 -12.55 L9.45 -12.45 11.5 -10.95 11.6 -10.9 11.75 -10.9 12.15 -10.5 13.65 -8.85 14.45 -7.4 M6.45 -12.15 L6.1 -12.25 6.4 -12.1 6.45 -12.15 M13.1 -8.3 L13.2 -8.15 13.25 -8.15 13.25 -8.25 13.1 -8.3 M-3.8 -13.75 L-3.7 -13.75 -3.7 -13.8 -3.8 -13.75 M-8.1 8.3 L-7.85 8.2 -7.85 8.25 -8.1 8.3" fill="url(#gradient0)" fill-rule="evenodd" stroke="none"/>
  </g>
  <defs>
    <linearGradient gradientTransform="matrix(0.0, 0.0232, -1.0, 0.0, -2.8, 3.25)" gradientUnits="userSpaceOnUse" id="gradient0" spreadMethod="pad" x1="-819.2" x2="819.2">
      <stop offset="0.00392156862745098" stop-color="#870006"/>
      <stop offset="1.0" stop-color="#e53e00"/>
    </linearGradient>
  </defs>
</svg>
