<?xml version="1.0" encoding="UTF-8" standalone="no"?>
<svg xmlns:ffdec="https://www.free-decompiler.com/flash" xmlns:xlink="http://www.w3.org/1999/xlink" ffdec:objectType="shape" height="78.75px" width="106.1px" xmlns="http://www.w3.org/2000/svg">
  <g transform="matrix(1.0, 0.0, 0.0, 1.0, 56.6, 45.05)">
    <path d="M39.1 -42.55 L39.25 -41.9 Q38.9 -37.3 35.4 -34.25 L36.05 -33.4 34.4 -22.15 33.15 -21.4 37.2 -17.3 Q44.65 -16.95 49.5 -11.9 47.7 -5.55 40.55 -3.75 L39.4 -1.55 40.05 -1.05 Q41.1 -0.3 41.2 1.2 41.4 5.3 37.45 5.5 38.1 6.8 38.3 8.15 39.85 17.55 30.25 18.5 L30.0 19.9 Q27.9 27.35 20.7 24.15 13.1 32.75 4.7 25.2 L3.3 25.45 Q-1.6 26.5 -2.95 21.45 L-6.25 22.9 Q-6.35 24.45 -6.85 25.9 -10.85 38.3 -22.2 31.05 L-22.4 30.35 Q-30.0 28.05 -26.85 20.5 -33.45 22.95 -37.55 17.95 L-38.25 19.8 Q-41.8 27.25 -50.1 25.1 L-50.05 23.5 -51.2 22.55 Q-56.9 16.85 -50.8 10.95 L-50.4 6.9 -51.7 6.6 Q-56.6 5.05 -56.6 -0.1 L-41.85 -9.0 Q-42.4 -9.9 -42.45 -11.05 -42.5 -14.05 -39.65 -15.45 L-40.45 -18.75 -41.55 -19.15 Q-43.4 -19.7 -43.85 -21.7 -49.0 -22.5 -48.7 -27.5 -48.0 -39.55 -37.65 -33.5 -25.9 -38.3 -18.6 -27.95 L-16.7 -29.15 -16.6 -30.05 Q-15.95 -32.75 -13.25 -33.55 -8.45 -48.9 5.2 -40.65 L6.85 -40.8 Q13.7 -40.45 14.05 -33.5 L16.9 -34.75 18.15 -36.85 Q27.0 -49.6 39.1 -42.55" fill="#ffa043" fill-opacity="0.29803923" fill-rule="evenodd" stroke="none"/>
  </g>
</svg>
