<?xml version="1.0" encoding="UTF-8" standalone="no"?>
<svg xmlns:ffdec="https://www.free-decompiler.com/flash" xmlns:xlink="http://www.w3.org/1999/xlink" ffdec:objectType="shape" height="95.65px" width="143.4px" xmlns="http://www.w3.org/2000/svg">
  <g transform="matrix(1.0, 0.0, 0.0, 1.0, 73.2, 51.3)">
    <path d="M-6.55 -2.25 L-7.1 -1.3 -6.35 1.25 -7.25 2.75 -6.6 4.85 -3.25 5.95 -2.8 7.9 0.0 5.0 -5.0 1.95 -4.7 -2.55 -6.55 -2.25 M-2.9 -19.0 L-4.5 -20.95 -4.45 -23.05 -8.8 -22.9 -10.0 -20.65 Q-9.55 -19.05 -10.55 -17.7 L-10.95 -17.3 -12.1 -16.75 Q-10.9 -15.75 -10.75 -14.25 -10.65 -13.6 -10.85 -12.95 L-11.4 -11.55 -9.6 -9.3 -8.35 -10.0 -7.4 -11.8 -8.35 -12.95 -7.9 -15.5 -3.55 -16.8 -2.9 -19.0 M19.15 17.05 L19.6 15.35 18.65 15.35 Q14.95 14.75 14.2 10.95 L11.5 12.9 12.75 16.65 15.2 16.3 16.95 18.7 19.15 17.05 M1.65 21.6 L2.05 19.4 0.4 19.2 -0.45 19.95 -6.0 17.45 -8.45 19.05 -8.75 20.85 -5.4 22.05 -3.85 21.6 -2.3 22.65 1.65 21.6 M32.9 -15.25 L34.0 -13.35 37.6 -14.9 38.45 -16.2 34.35 -17.75 32.9 -15.25 M16.95 -6.15 L19.15 -0.95 16.6 2.6 17.8 3.95 20.15 1.7 19.9 -0.5 Q19.9 -2.3 20.8 -3.85 L22.15 -6.05 16.95 -6.15 M13.35 -21.8 L11.55 -21.3 10.0 -22.2 7.9 -22.0 Q5.65 -21.85 3.5 -21.15 L1.2 -20.05 9.75 -18.9 10.3 -16.95 14.3 -21.05 13.35 -21.8 M42.1 -50.6 Q44.6 -51.7 46.8 -50.05 49.75 -47.8 49.15 -44.05 44.3 -38.5 37.05 -39.6 L37.8 -38.75 38.05 -36.2 Q39.5 -35.25 40.15 -33.7 41.15 -31.2 39.6 -29.0 L39.85 -27.9 43.25 -26.6 42.95 -23.35 43.95 -22.2 Q51.3 -23.6 55.65 -17.7 L59.05 -17.8 Q61.8 -17.15 62.85 -14.55 L64.55 -13.9 65.1 -12.25 Q70.2 -13.05 70.2 -8.15 70.15 -3.15 64.95 -3.1 63.6 -1.65 61.8 -1.15 57.7 0.0 54.9 -3.1 L51.65 -1.0 Q53.15 0.95 52.45 3.4 51.75 5.75 49.4 6.55 L53.1 9.3 52.45 12.05 48.35 14.3 48.6 15.5 Q47.65 18.25 45.75 20.55 42.6 24.3 38.1 21.95 35.6 23.3 32.95 24.3 30.2 25.15 28.2 22.75 L28.0 25.55 Q24.7 29.85 19.9 31.55 L19.3 34.85 Q18.1 35.7 17.05 36.65 14.45 38.95 11.35 38.45 L6.85 31.85 4.9 32.45 3.4 34.4 Q2.85 34.9 2.0 35.0 0.4 34.95 -0.9 33.95 L-4.25 35.15 Q-3.5 38.35 -6.3 40.0 -8.65 41.35 -10.7 39.5 L-13.3 40.7 Q-13.85 43.55 -16.7 44.2 -20.35 44.9 -22.9 42.25 L-22.2 39.2 Q-24.45 38.65 -24.85 36.7 -25.45 33.8 -22.8 31.85 L-23.45 30.4 Q-25.65 32.4 -28.4 31.8 -32.55 30.8 -33.05 26.3 L-37.35 23.25 -41.55 24.9 Q-42.25 28.05 -44.95 29.7 -49.7 32.45 -52.5 27.8 L-53.75 28.05 Q-54.65 29.6 -56.2 30.5 -57.6 31.3 -59.4 31.25 L-60.6 28.6 Q-61.3 26.6 -60.45 24.9 L-61.5 23.3 Q-61.05 21.8 -60.05 20.7 -59.0 19.5 -57.6 19.05 L-56.45 13.25 -54.25 10.95 -57.05 10.2 Q-58.55 12.35 -61.0 11.7 -63.3 11.05 -64.35 9.0 -65.85 9.85 -67.65 10.2 -70.5 10.6 -73.15 9.25 -73.35 7.1 -72.7 5.3 -70.55 -0.55 -64.85 -0.05 L-64.45 -1.75 Q-62.7 -7.8 -56.3 -7.0 -55.1 -8.45 -53.5 -9.15 L-48.2 -9.3 Q-45.55 -12.6 -41.6 -12.7 -35.35 -12.8 -35.85 -7.45 L-32.5 -7.6 -31.0 -11.45 -31.4 -12.4 -31.05 -13.6 -32.2 -14.15 -35.25 -13.85 Q-38.1 -14.25 -39.3 -16.9 -41.05 -15.05 -43.6 -15.45 -49.3 -15.8 -48.8 -21.85 L-50.35 -22.6 -52.6 -21.4 Q-56.25 -19.95 -58.6 -23.15 L-57.5 -27.35 -58.75 -28.25 Q-60.45 -27.5 -62.3 -27.9 -65.8 -28.8 -66.25 -32.2 -61.2 -37.05 -53.85 -36.9 -53.2 -38.9 -51.3 -40.0 -44.75 -43.85 -39.75 -38.9 -27.1 -41.15 -18.55 -32.4 L-15.65 -36.3 Q-11.6 -54.95 6.25 -46.3 L6.85 -46.55 9.1 -46.4 10.9 -44.9 13.2 -45.1 Q14.7 -44.8 15.45 -43.55 L17.15 -43.4 17.5 -42.4 Q17.8 -41.35 17.4 -40.45 16.85 -39.4 16.1 -38.75 L15.8 -36.4 16.6 -35.9 16.65 -33.05 20.05 -35.2 17.2 -37.55 Q22.4 -51.95 36.0 -49.8 37.25 -51.0 38.95 -51.3 40.6 -51.4 42.1 -50.6" fill="#ffa043" fill-opacity="0.29803923" fill-rule="evenodd" stroke="none"/>
  </g>
</svg>
