<?xml version="1.0" encoding="UTF-8" standalone="no"?>
<svg xmlns:ffdec="https://www.free-decompiler.com/flash" xmlns:xlink="http://www.w3.org/1999/xlink" ffdec:objectType="shape" height="56.65px" width="40.95px" xmlns="http://www.w3.org/2000/svg">
  <g transform="matrix(1.0, 0.0, 0.0, 1.0, 21.75, 57.8)">
    <path d="M-6.45 -47.75 L-6.65 -49.6 -6.65 -49.8 -6.65 -50.05 -6.75 -50.5 -6.7 -51.65 -6.6 -52.75 -6.4 -53.05 -6.5 -53.2 -6.5 -53.25 -5.4 -55.6 -5.35 -55.55 Q-5.2 -54.5 -4.85 -53.95 L-5.15 -53.5 -5.3 -52.45 -5.4 -51.4 -5.35 -51.3 -5.4 -50.9 -5.35 -49.8 -2.45 -49.7 -2.1 -49.1 -1.95 -48.85 -1.95 -48.8 -2.0 -48.65 -1.5 -47.9 -1.45 -47.85 -1.45 -47.8 -0.6 -46.55 0.0 -45.85 2.75 -46.0 3.35 -45.6 3.45 -45.7 3.45 -45.65 4.25 -44.35 5.05 -43.1 6.1 -41.5 6.6 -40.4 Q7.75 -40.1 10.2 -38.6 L12.65 -37.2 13.15 -37.05 13.65 -36.6 14.3 -35.85 Q15.6 -34.25 16.45 -32.1 L16.55 -31.9 16.65 -31.8 16.65 -31.75 16.9 -31.25 19.15 -24.0 19.15 -23.7 19.2 -23.45 19.2 -23.4 19.2 -23.05 19.2 -23.0 19.2 -22.5 19.2 -22.45 18.95 -19.7 18.7 -18.65 18.35 -16.2 17.4 -14.0 Q15.9 -10.3 15.9 -9.5 L15.95 -9.2 15.55 -8.95 15.55 -7.35 15.55 -6.95 15.7 -6.35 15.55 -5.8 15.7 -5.4 Q15.7 -4.75 13.7 -3.3 L13.15 -2.9 11.35 -3.1 12.5 -3.9 12.7 -4.05 12.8 -4.1 13.4 -4.6 Q14.6 -5.6 14.6 -6.25 L14.5 -6.6 14.6 -6.7 14.55 -8.5 14.55 -8.95 14.35 -8.85 14.25 -8.55 14.25 -8.5 13.15 -7.35 12.7 -7.05 12.55 -6.9 12.35 -6.8 11.9 -6.45 11.6 -6.3 10.0 -5.35 9.75 -5.25 9.75 -5.2 8.35 -4.55 8.3 -4.55 6.9 -3.95 5.55 -3.4 5.3 -3.4 4.9 -3.15 4.15 -3.1 4.0 -3.0 3.4 -2.85 2.15 -3.75 1.8 -3.9 1.9 -3.9 Q7.8 -4.4 11.45 -7.7 13.0 -9.15 14.35 -11.15 L15.45 -13.05 15.4 -13.0 16.2 -14.55 17.3 -18.75 17.3 -18.8 17.4 -19.15 17.6 -19.9 17.75 -22.0 17.75 -22.05 17.8 -22.35 17.85 -22.6 17.85 -22.7 17.85 -22.95 17.8 -23.1 17.7 -23.1 17.65 -23.75 17.55 -24.55 17.55 -24.65 17.1 -26.7 16.8 -27.75 16.8 -27.8 16.55 -28.55 16.4 -29.0 16.4 -29.05 16.15 -29.45 15.7 -30.55 15.15 -31.7 Q13.8 -34.15 12.5 -35.15 L9.35 -37.35 7.95 -37.5 7.4 -37.4 7.35 -37.15 7.05 -37.0 6.0 -36.05 5.5 -35.6 3.5 -33.35 Q0.55 -30.2 -5.95 -29.25 L-5.95 -29.2 -6.95 -29.25 -7.2 -29.25 -7.45 -29.25 -9.55 -29.25 -9.85 -29.4 -13.05 -30.0 -13.9 -30.2 -14.35 -30.45 -15.1 -30.8 -15.7 -31.05 -15.75 -31.35 -15.85 -31.9 -15.85 -31.95 -15.9 -31.9 Q-15.9 -32.25 -16.05 -32.1 L-16.15 -32.0 -16.3 -32.1 -16.5 -31.7 -16.95 -31.25 -18.25 -29.2 -19.65 -26.4 -19.7 -26.2 -19.8 -25.85 Q-20.3 -24.15 -20.35 -22.35 L-20.4 -22.05 -20.4 -21.95 -20.4 -21.9 -20.4 -21.8 -20.4 -21.55 -20.4 -21.45 -20.4 -21.4 -20.15 -18.65 -20.0 -18.0 -19.35 -16.5 -19.35 -16.25 Q-18.95 -14.9 -17.9 -13.55 -17.45 -12.55 -15.35 -10.3 L-14.9 -9.65 -13.6 -8.55 -11.25 -6.65 -11.3 -6.65 Q-9.95 -5.75 -8.75 -5.45 -6.75 -4.45 -3.2 -3.9 L-3.05 -3.9 -3.4 -3.85 -5.6 -3.15 -5.75 -3.1 -7.8 -3.65 -7.85 -3.4 -7.35 -2.6 -7.65 -2.45 -8.7 -2.1 -9.45 -3.85 -9.75 -4.1 Q-10.5 -4.35 -11.35 -4.85 -13.05 -5.6 -15.0 -7.45 L-15.65 -8.1 -16.5 -9.0 -19.25 -12.15 Q-20.45 -13.85 -21.15 -16.55 L-21.15 -16.6 -21.15 -16.65 -21.35 -17.35 -21.4 -17.65 -21.55 -18.55 -21.75 -21.0 -21.7 -22.55 -21.55 -23.95 -21.55 -24.05 -21.55 -24.25 -21.6 -24.55 -21.6 -24.6 -21.35 -25.7 -21.15 -26.4 -20.75 -27.6 Q-19.65 -30.3 -16.5 -34.05 L-16.85 -35.45 -17.2 -36.95 -17.3 -37.5 -17.45 -37.6 -17.45 -37.65 -17.5 -38.1 -17.5 -38.15 Q-17.5 -38.6 -16.3 -39.95 L-14.7 -41.3 -14.6 -41.45 -15.05 -42.4 -15.35 -43.5 -15.5 -44.45 -15.45 -44.9 -15.45 -45.0 -15.5 -45.3 -15.5 -45.35 Q-15.5 -46.0 -13.45 -47.55 L-11.4 -48.75 -11.35 -48.8 -11.05 -48.95 -11.0 -48.9 -10.9 -49.0 -10.6 -50.6 -10.55 -50.9 -10.45 -51.8 -10.3 -52.55 -10.3 -52.9 -9.9 -54.25 Q-9.35 -56.35 -8.6 -57.15 L-8.7 -57.25 -8.65 -57.3 -8.7 -57.3 -8.6 -57.5 -8.7 -57.5 -8.65 -57.55 -8.7 -57.55 -8.6 -57.7 -8.55 -57.75 -8.45 -57.8 -7.35 -56.95 -7.5 -56.7 -8.05 -55.9 -8.35 -55.2 -9.15 -53.05 -9.15 -52.95 -9.1 -52.95 -9.1 -52.9 -9.2 -52.4 -9.3 -51.9 -9.5 -50.05 -9.55 -50.05 -9.55 -47.55 -9.55 -45.55 -9.2 -45.05 -9.95 -45.1 -10.0 -45.05 -10.3 -45.25 -10.55 -45.35 -10.55 -45.55 -10.6 -46.3 -10.6 -46.45 -10.6 -46.5 -10.65 -46.6 -10.65 -46.65 -10.8 -47.5 -10.8 -47.55 -10.85 -47.55 -10.95 -47.55 -11.75 -47.3 -12.55 -46.65 -13.5 -45.9 -14.0 -44.65 -14.0 -44.4 -13.9 -43.95 -13.9 -43.9 -14.0 -43.65 -13.95 -43.6 -13.9 -43.65 -13.9 -43.6 -13.55 -43.15 -12.85 -42.65 -12.2 -42.15 -11.45 -42.05 -11.3 -42.0 -11.15 -41.95 -11.15 -41.9 -11.2 -41.85 -11.45 -41.9 -11.75 -41.95 -11.8 -41.95 -13.4 -42.15 -13.35 -42.1 -12.65 -40.65 -12.35 -40.25 -12.0 -39.5 -11.35 -39.3 -11.1 -39.25 -10.35 -39.15 -10.15 -39.15 -9.85 -39.15 -9.75 -39.15 -9.75 -39.1 -9.2 -39.1 -8.6 -39.1 -8.05 -39.15 -7.85 -39.1 -7.6 -39.1 -6.5 -39.2 -5.95 -39.35 -5.85 -39.35 Q-4.7 -39.75 -3.5 -40.65 -1.65 -41.95 -1.4 -42.95 L-1.35 -43.05 -1.35 -43.1 -1.05 -43.5 -1.05 -43.55 -1.1 -43.65 -1.2 -43.85 -1.75 -45.0 -1.9 -44.95 -2.0 -44.95 -1.8 -45.15 -1.8 -45.65 -1.9 -45.95 -2.2 -45.05 -2.3 -44.9 -2.45 -44.9 -2.85 -44.55 -3.95 -43.8 -4.1 -43.75 Q-3.1 -44.7 -2.95 -45.6 L-2.75 -46.0 -2.7 -46.3 -2.7 -46.85 -2.85 -47.35 Q-2.9 -47.95 -3.75 -48.4 L-5.3 -48.55 -5.25 -48.5 -5.15 -48.45 -4.8 -48.25 -5.4 -48.2 -5.5 -48.2 -5.5 -48.15 -5.45 -48.0 -5.45 -47.95 -5.4 -47.65 -5.3 -47.7 -5.0 -47.25 -5.0 -47.2 -5.05 -46.7 -5.15 -45.95 -5.3 -45.75 -5.6 -45.75 -5.75 -45.55 -5.85 -45.75 -5.9 -45.85 -5.9 -45.9 -5.85 -45.95 -5.8 -46.1 -5.8 -46.15 -6.1 -46.5 -6.45 -47.75 M2.9 -43.45 L2.9 -43.5 Q2.75 -45.05 0.25 -44.8 L0.25 -44.75 0.2 -44.8 0.05 -44.3 0.55 -43.15 0.5 -43.15 Q0.2 -42.25 -1.6 -40.65 L-2.4 -40.0 -2.85 -39.85 Q-3.5 -39.35 -5.1 -38.75 -5.6 -38.5 -6.05 -38.35 L-6.4 -38.3 -7.1 -38.3 -7.35 -38.3 -8.8 -38.55 Q-9.1 -38.25 -9.8 -38.25 L-9.9 -38.25 -10.35 -38.25 -10.4 -38.25 -11.55 -38.3 -12.2 -38.45 -12.45 -38.5 -13.1 -38.8 -13.55 -39.5 -13.9 -39.8 -13.9 -39.9 -13.9 -39.95 -14.0 -40.0 -14.45 -40.1 -15.4 -38.95 -15.75 -38.35 -15.75 -38.3 -15.65 -38.1 -15.6 -38.05 -15.6 -37.55 -14.45 -36.3 -13.35 -36.15 -13.3 -36.15 -12.95 -36.05 -12.8 -36.0 -12.55 -35.95 -12.45 -35.95 -11.9 -35.9 -11.65 -35.55 -7.4 -35.35 -7.1 -35.35 -7.1 -35.4 -7.1 -35.5 -7.1 -35.6 -6.4 -35.55 -5.7 -35.55 -5.7 -35.5 -6.05 -35.45 -6.85 -35.1 -6.9 -35.1 -11.15 -35.3 -11.35 -35.25 -11.4 -35.1 -11.45 -35.1 -12.2 -35.15 -12.95 -35.25 -13.2 -35.3 Q-13.5 -35.45 -14.0 -35.75 -14.8 -36.15 -15.25 -36.15 L-15.25 -36.1 -15.05 -35.7 -15.05 -34.85 -14.8 -33.95 -14.8 -33.6 -14.35 -32.75 -14.35 -32.7 -14.35 -32.3 -14.35 -32.25 -14.35 -32.15 -14.15 -32.1 -12.75 -31.45 -10.65 -30.9 -10.2 -30.85 -9.45 -30.75 -8.8 -30.75 -7.9 -30.65 -7.25 -30.65 -6.7 -30.7 -6.1 -30.75 -5.45 -30.65 -5.0 -30.65 -4.7 -30.7 Q-2.0 -30.95 1.0 -33.1 2.6 -34.25 3.4 -35.15 4.0 -35.4 4.65 -36.35 L5.45 -37.8 5.45 -37.85 5.35 -38.5 4.9 -40.2 4.05 -42.0 3.5 -41.35 3.5 -41.4 3.5 -41.35 3.5 -41.3 3.45 -41.3 3.0 -40.6 2.2 -39.8 1.7 -39.05 -0.45 -37.75 -0.5 -37.7 -0.65 -37.65 0.45 -38.65 Q2.85 -41.1 2.9 -42.5 L2.9 -42.55 2.85 -42.75 2.85 -42.8 2.9 -43.25 2.9 -43.4 3.1 -43.4 2.9 -43.45 M-2.2 -47.3 L-2.2 -47.35 -2.3 -47.25 -2.25 -47.2 -2.2 -47.2 -2.2 -47.3 M-6.35 -42.45 L-6.55 -42.35 -7.2 -42.1 -7.1 -42.05 -7.15 -42.05 -7.2 -42.1 -7.25 -42.15 Q-6.95 -42.2 -6.6 -42.35 L-6.35 -42.45 M-15.9 -42.0 L-15.85 -42.05 -15.8 -42.0 -15.9 -42.0" fill="#000000" fill-rule="evenodd" stroke="none"/>
    <path d="M11.35 -3.1 L7.95 -3.55 5.9 -1.15 3.4 -2.85 4.0 -3.0 4.15 -3.1 4.9 -3.15 5.3 -3.4 5.55 -3.4 6.9 -3.95 8.3 -4.55 8.35 -4.55 9.75 -5.2 9.75 -5.25 10.0 -5.35 11.6 -6.3 11.9 -6.45 12.35 -6.8 12.55 -6.9 12.7 -7.05 13.15 -7.35 14.25 -8.5 14.25 -8.55 14.35 -8.85 14.55 -8.95 14.55 -8.5 14.6 -6.7 14.5 -6.6 14.6 -6.25 Q14.6 -5.6 13.4 -4.6 L12.8 -4.1 12.7 -4.05 12.5 -3.9 11.35 -3.1 M-9.55 -47.55 L-8.7 -47.5 -6.45 -47.75 -6.1 -46.5 -5.8 -46.15 -5.8 -46.1 -5.85 -45.95 -5.9 -45.9 -5.9 -45.85 -5.85 -45.75 -6.0 -45.7 -6.45 -45.05 Q-7.1 -44.3 -7.6 -44.3 -8.65 -44.3 -9.1 -44.8 L-9.2 -45.05 -9.55 -45.55 -9.55 -47.55 M-6.4 -38.3 L-6.05 -38.35 Q-5.6 -38.5 -5.1 -38.75 -3.5 -39.35 -2.85 -39.85 L-2.4 -40.0 -1.6 -40.65 Q0.2 -42.25 0.5 -43.15 L0.55 -43.15 0.05 -44.3 0.2 -44.8 0.25 -44.75 0.25 -44.8 Q2.75 -45.05 2.9 -43.5 L2.9 -43.45 2.9 -43.4 2.9 -43.25 2.85 -42.8 2.85 -42.75 2.9 -42.55 2.9 -42.5 Q2.85 -41.1 0.45 -38.65 L-0.65 -37.65 -2.2 -36.95 Q-4.15 -35.9 -5.75 -35.75 L-5.7 -35.55 -6.4 -35.55 -7.1 -35.6 -7.5 -36.15 -7.3 -36.3 -7.2 -36.5 -6.4 -38.25 -6.4 -38.3 M-12.45 -35.95 L-12.55 -35.95 -12.8 -36.0 -12.95 -36.05 -13.3 -36.15 -13.35 -36.15 -14.45 -36.3 -15.6 -37.55 -15.6 -38.05 -15.65 -38.1 -15.75 -38.3 -15.75 -38.35 -15.4 -38.95 -14.45 -40.1 -14.0 -40.0 -13.9 -39.95 -13.9 -39.9 -13.9 -39.8 -13.55 -39.5 -13.1 -38.8 -12.45 -38.5 -12.2 -38.45 -11.55 -38.3 -10.4 -38.25 -10.4 -38.2 -10.65 -37.95 -11.25 -37.35 -12.1 -36.4 -11.9 -36.35 Q-11.9 -36.15 -12.05 -36.05 L-12.45 -36.05 -12.45 -35.95" fill="#fc503e" fill-rule="evenodd" stroke="none"/>
    <path d="M-5.75 -3.1 L-7.65 -2.45 -7.35 -2.6 -7.85 -3.4 -7.8 -3.65 -5.75 -3.1 M-0.65 -37.65 L-0.5 -37.7 -0.45 -37.75 1.7 -39.05 2.2 -39.8 3.0 -40.6 3.45 -41.3 3.5 -41.3 3.5 -41.35 3.5 -41.4 3.5 -41.35 4.05 -42.0 4.9 -40.2 5.35 -38.5 5.45 -37.85 5.45 -37.8 4.65 -36.35 Q4.0 -35.4 3.4 -35.15 2.6 -34.25 1.0 -33.1 -2.0 -30.95 -4.7 -30.7 L-5.0 -30.65 -4.85 -31.05 Q-4.85 -31.45 -5.4 -32.65 L-5.8 -33.5 -6.35 -34.85 -6.8 -34.85 -6.85 -35.05 -6.85 -35.1 -6.05 -35.45 -5.7 -35.5 -5.7 -35.55 -5.75 -35.75 Q-4.15 -35.9 -2.2 -36.95 L-0.65 -37.65 M-10.65 -30.9 L-12.75 -31.45 -14.15 -32.1 -14.35 -32.15 -14.35 -32.25 -14.35 -32.3 -14.35 -32.7 -14.35 -32.75 -14.8 -33.6 -14.8 -33.95 -15.05 -34.85 -15.05 -35.7 -15.25 -36.1 -15.25 -36.15 Q-14.8 -36.15 -14.0 -35.75 -13.5 -35.45 -13.2 -35.3 L-12.95 -35.25 -12.2 -35.15 -12.15 -35.1 -10.65 -31.1 -10.65 -30.9 M-7.1 -35.6 L-7.1 -35.5 -7.1 -35.4 -7.1 -35.35 -7.4 -35.35 -11.65 -35.55 -11.9 -35.9 -12.45 -35.95 -12.45 -36.05 -12.05 -36.05 Q-11.9 -36.15 -11.9 -36.35 L-12.1 -36.4 -11.25 -37.35 -10.65 -37.95 -10.4 -38.2 -10.4 -38.25 -10.35 -38.25 -9.9 -38.25 -9.8 -38.25 Q-9.1 -38.25 -8.8 -38.55 L-7.35 -38.3 -7.1 -38.3 -6.4 -38.3 -6.4 -38.25 -7.2 -36.5 -7.3 -36.3 -7.5 -36.15 -7.1 -35.6" fill="#df3523" fill-rule="evenodd" stroke="none"/>
    <path d="M7.95 -37.5 L9.35 -37.35 12.5 -35.15 Q13.8 -34.15 15.15 -31.7 L15.7 -30.55 16.15 -29.45 16.15 -29.4 16.65 -27.7 16.8 -27.1 17.1 -24.8 17.1 -23.15 16.8 -22.95 16.65 -23.55 16.45 -24.45 15.65 -28.25 15.55 -28.8 15.2 -30.35 Q14.1 -33.05 11.6 -34.85 L11.85 -34.55 12.2 -33.35 12.15 -33.25 11.85 -33.15 11.2 -33.75 Q10.7 -34.3 10.6 -34.85 L10.55 -35.0 10.55 -35.05 10.55 -35.1 11.3 -35.05 9.3 -36.2 8.25 -36.65 8.1 -36.7 Q7.85 -36.85 7.85 -37.1 L7.9 -37.45 7.95 -37.5 M-7.25 -20.65 L-7.25 -21.05 -7.2 -21.4 -6.5 -21.5 -6.5 -21.45 -6.6 -20.95 -6.6 -20.85 -6.05 -19.7 -4.35 -19.8 -4.8 -20.85 Q-4.85 -21.05 -4.5 -21.05 L-4.15 -20.55 -4.9 -25.9 -4.9 -25.95 -3.85 -26.15 -3.65 -26.2 -1.2 -26.6 -0.75 -26.7 0.45 -26.8 1.85 -26.9 3.4 -27.1 3.45 -27.15 3.65 -21.4 4.15 -21.85 Q4.8 -22.2 4.8 -21.45 L9.65 -22.65 9.8 -21.8 10.0 -20.2 10.05 -19.75 10.05 -19.7 10.1 -19.3 10.1 -19.25 10.05 -17.5 10.1 -17.2 10.1 -17.15 10.2 -14.25 10.2 -14.0 10.2 -13.85 10.1 -13.8 10.05 -13.75 10.05 -13.7 9.5 -13.55 9.0 -13.3 7.05 -13.05 Q0.8 -13.05 -3.6 -16.1 -7.05 -18.5 -7.25 -20.65 M5.15 -14.0 L4.9 -14.05 5.1 -14.0 5.15 -14.0" fill="#fdfdfd" fill-rule="evenodd" stroke="none"/>
    <path d="M7.35 -37.15 L7.4 -37.4 7.95 -37.5 7.9 -37.45 7.85 -37.1 Q7.85 -36.85 8.1 -36.7 L8.05 -36.6 8.15 -36.5 8.15 -36.45 7.9 -36.45 Q7.4 -36.45 7.35 -36.7 L7.35 -36.85 7.35 -37.05 7.35 -37.15 M9.3 -36.2 L11.3 -35.05 10.55 -35.1 10.55 -35.05 9.3 -36.2 M12.15 -33.25 L12.2 -33.35 11.85 -34.55 11.6 -34.85 Q14.1 -33.05 15.2 -30.35 L15.55 -28.8 14.75 -30.6 Q14.1 -31.8 13.35 -31.8 L12.15 -33.25 M16.65 -23.55 L16.8 -22.95 17.1 -23.15 17.1 -24.8 16.8 -27.1 16.8 -27.05 Q17.4 -25.2 17.4 -23.7 L17.4 -23.35 Q17.3 -22.55 16.85 -22.55 L16.55 -22.65 16.55 -22.8 16.65 -23.5 16.65 -23.55" fill="#fefefe" fill-rule="evenodd" stroke="none"/>
    <path d="M1.9 -3.9 L0.25 -5.05 -2.8 -4.05 -3.05 -3.9 -3.2 -3.9 Q-6.75 -4.45 -8.75 -5.45 -9.95 -5.75 -11.3 -6.65 L-11.25 -6.65 -13.6 -8.55 -14.9 -9.65 -15.35 -10.3 Q-17.45 -12.55 -17.9 -13.55 -18.95 -14.9 -19.35 -16.25 L-19.35 -16.5 -20.0 -18.0 -20.15 -18.65 -20.4 -21.4 -20.4 -21.45 -20.4 -21.55 -20.4 -21.8 -20.4 -21.9 -20.4 -21.95 -20.4 -22.05 -20.35 -22.35 Q-20.3 -24.15 -19.8 -25.85 L-19.7 -26.2 -19.65 -26.4 -18.25 -29.2 -16.95 -31.25 -16.5 -31.7 -16.3 -32.1 -16.15 -32.0 -16.05 -32.1 Q-15.9 -32.25 -15.9 -31.9 L-15.85 -31.95 -15.85 -31.9 -15.75 -31.35 -15.7 -31.05 -15.1 -30.8 -15.1 -30.75 -15.2 -30.65 -16.45 -28.25 -17.15 -26.5 -18.15 -22.05 -18.15 -21.95 Q-18.05 -16.0 -14.55 -12.6 L-11.8 -10.5 Q-10.0 -9.4 -5.6 -7.8 L-4.35 -7.75 -2.2 -7.6 -2.2 -7.5 -1.15 -7.5 1.25 -7.5 1.65 -7.6 Q4.95 -7.8 7.6 -8.9 L8.35 -9.25 Q10.6 -10.3 12.35 -12.1 L12.65 -12.45 Q14.3 -14.25 15.4 -16.65 L15.4 -16.75 Q13.35 -14.75 10.2 -13.8 L10.05 -13.75 10.1 -13.8 10.2 -13.85 10.2 -14.0 10.2 -14.25 10.1 -17.15 10.1 -17.2 10.05 -17.5 10.1 -19.25 10.1 -19.3 10.05 -19.7 10.05 -19.75 10.0 -20.2 9.8 -21.8 9.65 -22.65 4.8 -21.45 Q4.8 -22.2 4.15 -21.85 L3.65 -21.4 3.45 -27.15 3.4 -27.1 1.85 -26.9 0.45 -26.8 -0.75 -26.7 -1.2 -26.6 -3.65 -26.2 -3.85 -26.15 -4.9 -25.95 -4.9 -25.9 -4.15 -20.55 -4.5 -21.05 Q-4.85 -21.05 -4.8 -20.85 L-4.35 -19.8 -6.05 -19.7 -6.6 -20.85 -6.6 -20.95 -6.5 -21.45 -6.5 -21.5 -7.2 -21.4 -7.25 -21.05 -7.25 -20.65 -7.25 -20.75 -7.55 -21.65 -7.7 -22.3 -7.9 -24.4 -7.9 -24.45 -7.9 -24.55 -7.9 -24.65 -7.75 -27.75 -7.7 -28.3 -7.45 -29.2 -7.45 -29.25 -7.2 -29.25 -6.95 -29.25 -5.95 -29.2 -5.95 -29.25 Q0.55 -30.2 3.5 -33.35 L5.5 -35.6 6.0 -36.05 7.05 -37.0 7.35 -37.15 7.35 -37.05 7.35 -36.85 7.35 -36.7 Q7.4 -36.45 7.9 -36.45 L8.15 -36.45 8.15 -36.5 8.05 -36.6 8.1 -36.7 8.25 -36.65 9.3 -36.2 10.55 -35.05 10.55 -35.0 10.6 -34.85 Q10.7 -34.3 11.2 -33.75 L11.85 -33.15 12.15 -33.25 13.35 -31.8 Q14.1 -31.8 14.75 -30.6 L15.55 -28.8 15.65 -28.25 16.45 -24.45 16.65 -23.55 16.65 -23.5 16.55 -22.8 16.55 -22.65 16.85 -22.55 Q17.3 -22.55 17.4 -23.35 L17.4 -23.7 Q17.4 -25.2 16.8 -27.05 L16.8 -27.1 16.65 -27.7 16.15 -29.4 16.15 -29.45 16.4 -29.05 16.4 -29.0 16.55 -28.55 16.8 -27.8 16.8 -27.75 17.1 -26.7 17.55 -24.65 17.55 -24.55 17.65 -23.75 17.7 -23.1 17.8 -23.1 17.85 -22.95 17.85 -22.7 17.85 -22.6 17.8 -22.35 17.75 -22.05 17.75 -22.0 17.6 -19.9 17.4 -19.15 17.3 -18.8 17.3 -18.75 16.2 -14.55 15.4 -13.0 15.45 -13.05 14.35 -11.15 Q13.0 -9.15 11.45 -7.7 7.8 -4.4 1.9 -3.9 M-5.3 -45.75 L-5.15 -45.95 -5.05 -46.7 -5.0 -47.2 -5.0 -47.25 -5.3 -47.7 -5.4 -47.65 -5.45 -47.95 -5.45 -48.0 -5.5 -48.15 -5.5 -48.2 -5.4 -48.2 -4.8 -48.25 -5.15 -48.45 -5.25 -48.5 -5.3 -48.55 -3.75 -48.4 Q-2.9 -47.95 -2.85 -47.35 L-2.7 -46.85 -2.7 -46.3 -2.75 -46.0 -2.95 -45.6 Q-3.1 -44.7 -4.1 -43.75 L-4.25 -43.65 -5.6 -42.7 -6.05 -42.6 -6.1 -42.6 -6.35 -42.45 -6.6 -42.35 Q-6.95 -42.2 -7.25 -42.15 L-9.45 -41.85 -11.15 -41.95 -11.3 -42.0 -11.45 -42.05 -12.2 -42.15 -12.85 -42.65 -13.55 -43.15 -13.9 -43.6 -13.9 -43.65 -13.95 -43.6 -14.0 -43.65 -13.9 -43.9 -13.9 -43.95 -14.0 -44.4 -14.0 -44.65 -13.5 -45.9 -12.55 -46.65 -11.75 -47.3 -10.95 -47.55 -10.85 -47.55 -10.8 -47.55 -10.8 -47.5 -10.65 -46.65 -10.65 -46.6 -10.6 -46.5 -10.6 -46.45 -10.6 -46.3 -10.7 -46.55 -11.0 -45.35 Q-11.0 -43.55 -9.25 -43.25 L-8.65 -43.2 Q-7.9 -43.2 -6.65 -44.1 -5.5 -44.9 -5.3 -45.7 L-5.3 -45.75" fill="#fbfbfb" fill-rule="evenodd" stroke="none"/>
    <path d="M-5.85 -45.75 L-5.75 -45.55 -5.6 -45.75 -5.3 -45.75 -5.3 -45.7 Q-5.5 -44.9 -6.65 -44.1 -7.9 -43.2 -8.65 -43.2 L-9.25 -43.25 Q-11.0 -43.55 -11.0 -45.35 L-10.7 -46.55 -10.6 -46.3 -10.55 -45.55 -10.55 -45.35 -10.3 -45.25 -10.0 -45.05 -9.95 -45.1 -9.2 -45.05 -9.1 -44.8 Q-8.65 -44.3 -7.6 -44.3 -7.1 -44.3 -6.45 -45.05 L-6.0 -45.7 -5.85 -45.75 M-4.1 -43.75 L-3.95 -43.8 -2.85 -44.55 -2.45 -44.9 -2.3 -44.9 -2.2 -45.05 -1.9 -45.95 -1.8 -45.65 -1.8 -45.15 -2.0 -44.95 -1.9 -44.95 -1.75 -45.0 -1.2 -43.85 -1.1 -43.65 -1.05 -43.55 -1.05 -43.5 -1.35 -43.1 -1.35 -43.05 -1.4 -42.95 Q-1.65 -41.95 -3.5 -40.65 -4.7 -39.75 -5.85 -39.35 L-6.4 -40.65 -6.95 -41.9 -6.95 -41.95 -7.1 -42.05 -7.2 -42.1 -6.55 -42.35 -6.35 -42.45 -6.1 -42.6 -6.05 -42.6 -5.6 -42.7 -4.25 -43.65 -4.1 -43.75 M-9.85 -39.15 L-10.15 -39.15 -10.35 -39.15 -11.1 -39.25 -11.35 -39.3 -12.0 -39.5 -12.35 -40.25 -12.65 -40.65 -13.35 -42.1 -13.4 -42.15 -11.8 -41.95 -11.75 -41.95 -11.7 -41.85 -10.65 -40.55 -10.55 -40.4 -9.85 -39.15 M-7.45 -29.25 L-7.45 -29.2 -7.7 -28.3 -7.75 -27.75 -7.9 -24.65 -7.9 -24.55 -7.9 -24.45 -7.9 -24.4 -7.7 -22.3 -7.55 -21.65 -7.25 -20.75 -7.25 -20.65 Q-7.05 -18.5 -3.6 -16.1 0.8 -13.05 7.05 -13.05 L9.0 -13.3 9.5 -13.55 10.05 -13.7 10.05 -13.75 10.2 -13.8 Q13.35 -14.75 15.4 -16.75 L15.4 -16.65 Q14.3 -14.25 12.65 -12.45 L12.35 -12.1 Q10.6 -10.3 8.35 -9.25 L7.6 -8.9 Q4.95 -7.8 1.65 -7.6 L1.25 -7.5 -1.15 -7.5 -2.2 -7.5 -2.2 -7.6 -4.35 -7.75 -5.6 -7.8 Q-10.0 -9.4 -11.8 -10.5 L-14.55 -12.6 Q-18.05 -16.0 -18.15 -21.95 L-18.15 -22.05 -17.15 -26.5 -16.45 -28.25 -15.2 -30.65 -15.1 -30.75 -15.1 -30.8 -14.35 -30.45 -13.9 -30.2 -13.05 -30.0 -9.85 -29.4 -9.55 -29.25 -7.45 -29.25 M5.15 -14.0 L5.1 -14.0 4.9 -14.05 5.15 -14.0" fill="#c4c4c4" fill-rule="evenodd" stroke="none"/>
    <path d="M-5.0 -30.65 L-5.45 -30.65 -6.1 -30.75 -6.7 -30.7 -7.25 -30.65 -7.9 -30.65 -8.8 -30.75 -9.45 -30.75 -10.2 -30.85 -10.65 -30.9 -10.65 -31.1 -12.15 -35.1 -12.2 -35.15 -11.45 -35.1 -11.4 -35.1 -11.35 -35.25 -11.15 -35.3 -6.9 -35.1 -6.85 -35.1 -6.85 -35.05 -6.8 -34.85 -6.35 -34.85 -5.8 -33.5 -5.4 -32.65 Q-4.85 -31.45 -4.85 -31.05 L-5.0 -30.65" fill="#af1504" fill-rule="evenodd" stroke="none"/>
    <path d="M-5.85 -39.35 L-5.95 -39.35 -6.5 -39.2 -7.6 -39.1 -7.85 -39.1 -8.05 -39.15 -8.6 -39.1 -9.2 -39.1 -9.75 -39.1 -9.75 -39.15 -9.85 -39.15 -10.55 -40.4 -10.65 -40.55 -11.7 -41.85 -11.75 -41.95 -11.45 -41.9 -11.2 -41.85 -11.15 -41.9 -11.15 -41.95 -9.45 -41.85 -7.25 -42.15 -7.2 -42.1 -7.15 -42.05 -7.1 -42.05 -6.95 -41.95 -6.95 -41.9 -6.4 -40.65 -5.85 -39.35" fill="#a3a3a3" fill-rule="evenodd" stroke="none"/>
  </g>
</svg>
