<?xml version="1.0" encoding="UTF-8" standalone="no"?>
<svg xmlns:ffdec="https://www.free-decompiler.com/flash" xmlns:xlink="http://www.w3.org/1999/xlink" ffdec:objectType="shape" height="146.7px" width="185.25px" xmlns="http://www.w3.org/2000/svg">
  <g transform="matrix(1.0, 0.0, 0.0, 1.0, 91.65, 71.25)">
    <path d="M49.1 31.6 L49.9 32.4 49.05 34.55 48.45 33.6 47.45 33.45 49.1 31.6 M54.0 27.6 Q54.7 28.15 54.7 28.95 54.7 29.75 54.0 30.35 53.3 30.9 52.35 30.9 51.4 30.9 50.7 30.35 50.0 29.75 50.0 28.95 50.0 28.15 50.7 27.6 51.4 27.0 52.35 27.0 53.3 27.0 54.0 27.6 M76.85 7.55 L77.1 8.15 76.85 8.8 76.15 9.05 75.5 8.8 Q75.2 8.5 75.2 8.15 75.2 7.8 75.5 7.55 75.75 7.25 76.15 7.25 76.55 7.25 76.85 7.55 M92.9 -8.1 L92.4 -8.3 92.2 -8.75 92.4 -9.2 92.9 -9.4 93.4 -9.2 93.6 -8.75 93.4 -8.3 Q93.2 -8.1 92.9 -8.1 M63.3 -22.75 L63.5 -22.05 63.3 -21.35 62.85 -21.05 62.4 -21.35 62.2 -22.05 62.4 -22.75 Q62.6 -23.05 62.85 -23.05 L63.3 -22.75 M52.1 -37.55 L51.5 -37.35 Q51.15 -37.35 50.95 -37.55 50.7 -37.8 50.7 -38.15 L50.95 -38.7 Q51.15 -38.95 51.5 -38.95 L52.1 -38.7 52.3 -38.15 52.1 -37.55 M2.85 -68.25 L1.8 -70.45 3.1 -70.95 2.85 -68.25 M66.2 -58.9 L66.0 -58.2 Q65.8 -57.95 65.5 -57.95 65.2 -57.95 65.0 -58.2 L64.8 -58.9 65.0 -59.55 Q65.2 -59.85 65.5 -59.85 L66.0 -59.55 66.2 -58.9 M43.75 -56.85 L43.5 -57.4 43.75 -57.9 44.25 -58.15 44.8 -57.9 45.0 -57.4 44.8 -56.85 44.25 -56.65 Q43.95 -56.65 43.75 -56.85 M54.3 39.55 L54.05 40.25 53.35 40.5 52.7 40.25 Q52.4 39.95 52.4 39.55 52.4 39.15 52.7 38.9 52.95 38.6 53.35 38.6 53.75 38.6 54.05 38.9 L54.3 39.55 M-17.2 69.55 L-16.35 71.65 -18.7 72.55 -18.75 71.8 -20.25 70.2 -17.2 69.55 M-49.55 38.5 Q-49.05 38.5 -48.65 38.9 -48.3 39.25 -48.3 39.75 -48.3 40.25 -48.65 40.65 -49.05 41.0 -49.55 41.0 L-50.4 40.65 Q-50.8 40.25 -50.8 39.75 -50.8 39.25 -50.4 38.9 -50.05 38.5 -49.55 38.5 M-52.55 31.45 L-55.9 30.25 -54.4 29.0 -52.55 31.45 M-56.15 35.35 L-56.45 34.7 -56.15 34.1 Q-55.9 33.8 -55.5 33.8 -55.1 33.8 -54.8 34.1 L-54.55 34.7 -54.8 35.35 -55.5 35.6 -56.15 35.35 M-68.4 36.35 L-67.3 35.65 -66.15 36.95 -66.8 37.5 -66.0 38.4 -67.2 39.05 -66.15 40.6 -66.5 40.8 -68.15 39.95 -67.75 38.75 -68.4 36.35 M-44.35 -35.1 L-45.9 -36.55 -42.85 -36.1 -44.2 -34.2 -44.35 -35.1 M-56.55 -57.0 Q-56.25 -56.7 -56.25 -56.3 -56.25 -55.9 -56.55 -55.6 -56.85 -55.3 -57.25 -55.3 -57.65 -55.3 -57.95 -55.6 L-58.25 -56.3 -57.95 -57.0 -57.25 -57.3 Q-56.85 -57.3 -56.55 -57.0 M-69.55 -58.5 L-70.2 -58.3 -70.8 -58.5 -71.1 -59.0 -70.8 -59.5 -70.2 -59.7 -69.55 -59.5 -69.3 -59.0 Q-69.3 -58.7 -69.55 -58.5 M-2.1 -67.6 L-4.0 -67.9 -3.7 -69.25 -5.9 -69.7 -4.1 -71.25 0.5 -70.9 -2.0 -69.15 -2.1 -67.6 M-90.85 -40.85 L-90.25 -40.6 -90.05 -40.1 -90.25 -39.55 Q-90.5 -39.35 -90.85 -39.35 L-91.4 -39.55 -91.65 -40.1 -91.4 -40.6 -90.85 -40.85 M-19.0 73.6 Q-18.7 73.9 -18.7 74.35 -18.7 74.8 -19.0 75.15 -19.35 75.45 -19.8 75.45 -20.25 75.45 -20.55 75.15 L-20.9 74.35 Q-20.9 73.9 -20.55 73.6 -20.25 73.25 -19.8 73.25 -19.35 73.25 -19.0 73.6 M-86.15 7.75 L-86.35 7.3 -86.15 6.9 -85.7 6.7 -85.25 6.9 -85.05 7.3 -85.25 7.75 -85.7 7.9 -86.15 7.75 M-83.9 5.5 L-85.65 5.5 -85.65 3.75 -83.9 3.75 -83.9 5.5 M-22.05 67.0 L-23.95 71.95 -25.3 72.0 -23.8 66.95 -22.05 67.0" fill="#ffa043" fill-opacity="0.29803923" fill-rule="evenodd" stroke="none"/>
  </g>
</svg>
