<?xml version="1.0" encoding="UTF-8" standalone="no"?>
<svg xmlns:ffdec="https://www.free-decompiler.com/flash" xmlns:xlink="http://www.w3.org/1999/xlink" ffdec:objectType="shape" height="37.95px" width="22.95px" xmlns="http://www.w3.org/2000/svg">
  <g transform="matrix(1.0, 0.0, 0.0, 1.0, 8.4, 20.55)">
    <path d="M11.5 6.85 L11.9 6.85 11.45 7.25 Q10.9 8.3 10.1 8.65 L10.1 8.7 9.15 9.5 Q8.1 10.0 6.7 10.0 L4.65 9.7 4.55 9.75 4.75 9.85 4.7 9.85 3.95 9.4 3.75 9.35 Q2.9 6.75 2.9 5.25 L3.0 4.6 3.4 4.9 Q4.75 5.85 8.0 6.65 L8.2 6.75 10.0 6.75 10.05 6.85 11.5 6.85 M6.3 -0.6 L6.95 -1.1 8.0 -0.8 9.7 -0.85 Q11.05 -0.25 11.55 0.35 L11.8 0.3 12.35 0.95 13.4 2.55 Q13.2 3.0 13.15 3.8 L13.05 4.5 12.35 5.1 12.1 5.45 10.25 5.4 10.0 5.4 10.25 4.45 10.2 4.2 10.2 3.9 Q10.2 2.6 9.45 1.85 L8.65 1.25 Q7.8 0.65 6.6 0.25 L6.3 0.15 5.75 0.2 6.3 -0.6" fill="#d76a00" fill-rule="evenodd" stroke="none"/>
    <path d="M3.45 -18.05 L1.85 -14.3 1.0 -11.6 Q0.2 -9.1 0.15 -8.55 L0.25 -6.85 0.15 -5.3 0.15 -4.4 0.0 -3.95 0.05 -3.55 0.45 -2.7 0.65 -1.25 Q0.75 -0.9 0.0 -0.9 L-0.45 -1.05 Q-2.55 -0.2 -4.15 1.2 L-4.2 1.15 -4.2 1.1 -4.4 0.75 -4.55 0.75 -4.95 0.3 -5.45 -0.9 Q-5.95 -1.6 -6.1 -2.25 L-6.15 -2.5 -6.35 -2.9 -6.45 -5.35 -6.45 -5.65 -6.55 -6.2 -6.55 -6.25 -6.55 -6.3 Q-6.5 -8.35 -5.7 -10.75 -4.8 -13.55 -4.8 -14.95 L-4.8 -15.3 -4.45 -16.0 2.05 -17.65 3.45 -18.05 M2.3 -0.65 L2.45 -0.7 4.7 -1.15 3.4 -0.15 2.65 0.75 1.65 2.85 Q1.5 3.9 1.5 5.3 1.5 7.7 2.35 10.9 2.85 12.9 3.5 14.1 L3.6 14.1 4.25 15.8 1.9 15.35 -2.0 14.2 -2.8 13.85 -6.6 12.3 Q-6.55 8.75 -5.1 5.5 -4.15 3.4 -2.7 1.75 L-2.6 1.65 Q-0.5 0.1 2.3 -0.65" fill="#e09400" fill-rule="evenodd" stroke="none"/>
    <path d="M3.45 -18.05 L2.05 -17.65 -4.45 -16.0 -4.8 -15.3 -4.8 -14.95 Q-4.8 -13.55 -5.7 -10.75 -6.5 -8.35 -6.55 -6.3 L-6.55 -6.25 -6.55 -6.2 -6.45 -5.65 -6.45 -5.35 -6.35 -2.9 -6.15 -2.5 -6.1 -2.25 Q-5.95 -1.6 -5.45 -0.9 L-4.95 0.3 -4.55 0.75 -4.4 0.75 -4.2 1.1 -4.2 1.15 -4.15 1.2 Q-2.55 -0.2 -0.45 -1.05 L0.0 -0.9 Q0.75 -0.9 0.65 -1.25 L0.45 -2.7 0.05 -3.55 0.0 -3.95 0.15 -4.4 0.15 -5.3 0.25 -6.85 0.15 -8.55 Q0.2 -9.1 1.0 -11.6 L1.85 -14.3 3.45 -18.05 M5.85 -19.45 L3.55 -13.2 Q1.3 -7.75 1.2 -6.0 L1.2 -5.65 Q1.25 -4.75 1.9 -3.1 L2.35 -1.9 3.1 -2.05 Q7.55 -2.85 10.95 -1.4 14.55 0.1 14.55 3.15 L14.25 4.9 14.25 5.45 Q13.1 9.45 10.75 10.85 L10.4 11.15 8.25 11.6 8.15 11.6 7.8 11.6 7.5 11.6 4.6 11.55 4.85 12.25 6.75 16.75 6.75 17.2 6.6 17.4 6.3 17.4 4.75 17.1 4.5 17.1 Q0.85 17.1 -3.2 15.3 L-6.8 13.5 Q-8.4 12.85 -8.4 12.65 L-8.35 12.45 -8.4 12.4 -8.35 11.75 -8.4 10.85 Q-8.4 5.8 -5.4 2.45 -6.15 1.85 -6.65 0.0 -7.1 -0.8 -7.4 -2.1 L-7.8 -5.1 -7.85 -5.4 -7.85 -5.7 -7.85 -6.05 -7.85 -6.1 -7.85 -6.2 -7.85 -6.4 -7.8 -6.75 -7.25 -10.65 Q-6.3 -14.4 -6.05 -16.2 L-5.85 -16.2 -5.8 -16.75 -5.45 -17.35 -2.45 -18.25 -2.25 -18.25 -2.0 -18.35 1.75 -19.6 3.6 -20.2 5.6 -20.55 5.85 -19.45 M2.3 -0.65 Q-0.5 0.1 -2.6 1.65 L-2.7 1.75 Q-4.15 3.4 -5.1 5.5 -6.55 8.75 -6.6 12.3 L-2.8 13.85 -2.0 14.2 1.9 15.35 4.25 15.8 3.6 14.1 3.5 14.1 Q2.85 12.9 2.35 10.9 1.5 7.7 1.5 5.3 1.5 3.9 1.65 2.85 L2.65 0.75 3.4 -0.15 4.7 -1.15 2.45 -0.7 2.3 -0.65 M6.3 -0.6 L5.75 0.2 6.3 0.15 6.6 0.25 Q7.8 0.65 8.65 1.25 L9.45 1.85 Q10.2 2.6 10.2 3.9 L10.2 4.2 10.25 4.45 10.0 5.4 10.25 5.4 12.1 5.45 12.35 5.1 13.05 4.5 13.15 3.8 Q13.2 3.0 13.4 2.55 L12.35 0.95 11.8 0.3 11.55 0.35 Q11.05 -0.25 9.7 -0.85 L8.0 -0.8 6.95 -1.1 6.3 -0.6 M11.5 6.85 L10.05 6.85 10.0 6.75 8.2 6.75 8.0 6.65 Q4.75 5.85 3.4 4.9 L3.0 4.6 2.9 5.25 Q2.9 6.75 3.75 9.35 L3.95 9.4 4.7 9.85 4.75 9.85 4.55 9.75 4.65 9.7 6.7 10.0 Q8.1 10.0 9.15 9.5 L10.1 8.7 10.1 8.65 Q10.9 8.3 11.45 7.25 L11.9 6.85 11.5 6.85 M5.15 0.95 L4.7 1.5 3.8 2.75 4.8 3.75 Q5.7 4.95 7.45 4.95 8.85 4.95 8.85 3.75 8.85 2.95 8.05 2.15 7.05 1.1 5.15 0.95 M3.1 10.95 L3.1 11.1 3.15 11.1 3.1 10.95 M5.15 15.9 L5.15 16.0 5.25 16.3 5.3 16.25 5.15 15.9 M-6.9 8.25 L-6.7 7.65 -6.9 8.25" fill="#793c00" fill-rule="evenodd" stroke="none"/>
  </g>
</svg>
