<?xml version="1.0" encoding="UTF-8" standalone="no"?>
<svg xmlns:ffdec="https://www.free-decompiler.com/flash" xmlns:xlink="http://www.w3.org/1999/xlink" ffdec:objectType="shape" height="96.65px" width="157.45px" xmlns="http://www.w3.org/2000/svg">
  <g transform="matrix(1.0, 0.0, 0.0, 1.0, 79.5, 49.6)">
    <path d="M5.65 -49.6 L6.85 -49.6 Q35.65 -48.95 56.35 -35.65 77.95 -21.35 77.95 -1.2 77.95 18.65 56.35 32.9 36.45 45.9 8.95 47.05 L7.85 47.05 7.4 47.05 -5.35 47.05 -5.55 47.05 -5.85 47.05 -7.7 47.05 Q-36.55 46.2 -57.4 32.9 -79.5 18.65 -79.5 -1.2 -79.5 -21.35 -57.4 -35.65 -38.15 -47.8 -11.95 -49.4 L-10.5 -49.4 -9.6 -49.55 -9.6 -49.4 -9.7 -49.35 -10.0 -48.45 Q-29.85 -46.9 -44.45 -34.95 -61.15 -20.95 -61.15 -1.2 -61.15 18.3 -44.45 32.25 -28.5 45.45 -6.25 46.1 L-6.15 46.2 -5.85 46.55 -5.85 46.2 7.9 46.2 8.0 45.95 8.1 45.95 Q28.7 44.9 43.65 32.25 60.05 18.3 60.05 -1.2 60.05 -20.95 43.65 -34.95 27.95 -48.05 6.0 -48.65 L5.65 -49.6" fill="#ffffff" fill-opacity="0.7058824" fill-rule="evenodd" stroke="none"/>
    <path d="M5.65 -49.6 L6.0 -48.65 Q27.95 -48.05 43.65 -34.95 60.05 -20.95 60.05 -1.2 60.05 18.3 43.65 32.25 28.7 44.9 8.1 45.95 L8.0 45.95 7.9 46.2 -5.85 46.2 -5.85 46.55 -6.15 46.2 -6.25 46.1 Q-28.5 45.45 -44.45 32.25 -61.15 18.3 -61.15 -1.2 -61.15 -20.95 -44.45 -34.95 -29.85 -46.9 -10.0 -48.45 L-9.7 -49.35 -9.6 -49.4 5.65 -49.6" fill="#ffffff" fill-opacity="0.5921569" fill-rule="evenodd" stroke="none"/>
  </g>
</svg>
