<?xml version="1.0" encoding="UTF-8" standalone="no"?>
<svg xmlns:ffdec="https://www.free-decompiler.com/flash" xmlns:xlink="http://www.w3.org/1999/xlink" ffdec:objectType="shape" height="144.55px" width="213.7px" xmlns="http://www.w3.org/2000/svg">
  <g transform="matrix(1.0, 0.0, 0.0, 1.0, 103.3, 140.9)">
    <path d="M15.15 -129.5 L15.15 -130.0 14.8 -130.9 14.95 -130.25 15.15 -129.5 M-81.35 -0.85 Q-89.15 -3.0 -94.65 -7.8 -103.3 -15.3 -103.3 -25.9 -103.3 -29.45 -102.1 -30.85 -100.5 -32.85 -96.15 -32.35 -97.25 -34.45 -99.6 -37.75 -101.4 -40.6 -101.4 -43.35 -101.4 -46.8 -98.05 -50.45 -94.55 -54.25 -90.75 -54.25 L-88.8 -54.0 -87.85 -53.8 -87.5 -54.25 Q-86.65 -55.25 -86.65 -55.5 L-89.5 -64.65 Q-92.35 -74.55 -92.35 -79.05 -92.35 -88.75 -83.8 -94.75 -76.35 -100.0 -67.15 -100.0 L-60.7 -99.75 Q-59.4 -99.45 -57.2 -98.1 L-55.45 -99.4 -52.8 -101.5 Q-53.5 -102.8 -53.7 -104.05 L-53.8 -107.85 Q-53.8 -118.8 -44.25 -128.05 -35.9 -136.15 -29.5 -136.15 -28.1 -136.15 -23.65 -133.95 -22.1 -136.95 -16.65 -138.75 -10.35 -140.9 -1.0 -140.9 5.45 -140.9 8.95 -138.65 11.4 -137.1 13.25 -134.05 15.45 -136.4 18.05 -137.7 22.6 -140.0 29.75 -140.0 40.15 -140.0 45.1 -133.8 48.85 -129.0 49.05 -121.25 L50.6 -121.4 Q55.9 -121.4 58.65 -117.25 60.45 -114.55 60.5 -111.0 L60.9 -111.1 66.85 -111.4 Q78.05 -111.4 84.25 -104.7 89.5 -99.1 89.5 -91.15 L89.45 -87.5 Q89.25 -86.15 88.05 -84.75 91.45 -82.0 94.05 -77.4 96.6 -72.8 96.6 -69.5 96.6 -63.75 93.55 -58.35 90.5 -52.9 86.1 -50.9 95.95 -52.25 102.35 -46.7 108.5 -41.35 108.5 -32.6 108.5 -30.9 107.25 -29.05 106.45 -27.85 104.25 -25.65 106.5 -25.2 108.45 -22.0 110.4 -18.85 110.4 -15.65 110.4 -9.3 105.2 -6.2 101.1 -3.75 95.0 -3.75 87.35 -3.75 84.55 -6.45 L85.5 -7.0 85.5 -7.15 88.1 -8.1 Q89.15 -7.5 90.9 -7.5 96.1 -7.5 99.7 -13.25 102.4 -17.6 102.4 -19.8 102.4 -22.15 101.5 -24.15 100.8 -25.6 99.7 -25.95 100.65 -26.75 101.25 -28.3 102.05 -30.65 102.05 -33.45 102.05 -34.75 101.25 -38.4 100.4 -42.25 99.95 -42.95 98.55 -45.45 92.3 -46.5 88.9 -47.1 87.4 -46.4 L87.5 -46.75 86.3 -46.5 86.2 -46.75 Q85.25 -48.4 84.1 -49.3 L80.9 -51.3 Q85.05 -51.9 87.5 -58.7 89.4 -63.75 89.4 -67.4 89.4 -71.3 88.2 -75.15 87.95 -76.95 85.75 -79.4 L84.2 -80.55 Q84.7 -82.1 84.7 -84.35 84.7 -86.9 83.4 -90.2 82.0 -93.6 80.0 -95.95 76.8 -99.85 72.0 -101.95 70.25 -102.65 64.0 -103.35 60.1 -103.7 58.25 -103.35 L58.15 -103.35 58.15 -104.2 Q58.15 -109.35 50.0 -112.05 47.45 -112.9 45.3 -112.75 44.95 -114.75 39.45 -119.0 33.55 -123.45 29.8 -124.5 22.4 -126.5 15.0 -123.35 11.35 -121.8 9.7 -120.15 8.9 -121.8 6.55 -124.5 2.55 -129.0 -0.25 -129.35 -7.2 -131.2 -14.85 -127.8 -19.05 -125.9 -20.7 -124.15 L-25.3 -124.05 Q-30.7 -123.1 -33.05 -120.75 L-36.55 -117.8 Q-38.7 -116.05 -39.65 -114.65 -43.4 -109.7 -44.2 -107.95 -45.5 -105.35 -45.5 -101.5 L-45.25 -97.6 Q-44.9 -95.85 -44.1 -94.8 -46.45 -94.55 -48.55 -92.55 L-50.45 -90.55 Q-51.5 -92.45 -57.7 -91.6 -65.0 -90.8 -69.35 -88.1 -75.8 -84.0 -77.35 -81.5 L-81.8 -74.0 Q-83.8 -70.25 -83.8 -67.05 -83.8 -62.25 -82.05 -56.15 -80.05 -49.1 -76.85 -47.1 L-77.6 -46.25 Q-78.15 -45.45 -78.15 -42.75 L-78.15 -42.5 Q-83.8 -42.4 -86.5 -39.2 -88.6 -36.65 -88.6 -33.2 -88.6 -30.15 -88.4 -29.35 -87.9 -28.05 -85.45 -24.65 -87.1 -24.3 -88.05 -22.4 -90.05 -21.25 -90.05 -17.0 -90.05 -13.25 -88.05 -9.85 -87.0 -7.85 -85.1 -5.6 L-84.15 -4.55 -84.85 -4.55 Q-83.2 -2.35 -81.35 -0.85" fill="#ffe000" fill-opacity="0.8" fill-rule="evenodd" stroke="none"/>
    <path d="M84.55 -6.45 Q80.8 -4.65 71.65 -3.0 L65.35 -2.1 Q66.25 -2.9 66.9 -4.45 67.5 -6.0 67.5 -7.3 67.5 -9.35 66.1 -11.35 63.9 -14.55 59.35 -14.55 L58.05 -14.5 53.05 -13.8 Q51.75 -13.4 51.15 -12.9 L50.6 -12.75 Q52.15 -13.45 53.4 -14.2 L56.0 -16.2 57.2 -17.1 60.35 -20.55 Q61.2 -21.7 61.4 -22.9 L61.65 -24.9 Q61.65 -26.3 61.3 -27.35 L59.4 -29.7 Q58.7 -30.4 57.3 -30.75 L54.85 -31.2 44.25 -31.25 35.35 -30.65 44.85 -33.8 47.65 -35.2 Q49.45 -36.05 50.35 -36.65 L50.6 -36.75 51.3 -37.2 Q52.5 -38.4 52.5 -39.9 52.5 -41.2 51.45 -42.05 50.25 -42.95 47.9 -42.95 L47.8 -42.85 46.5 -42.95 Q47.1 -43.2 47.55 -43.55 L48.5 -44.15 48.75 -44.15 Q56.5 -48.95 58.95 -53.45 60.85 -56.7 60.85 -65.3 60.85 -67.65 58.85 -71.05 56.0 -76.1 50.95 -76.1 44.6 -76.1 40.25 -73.85 37.2 -72.35 35.7 -70.25 L35.35 -70.45 35.55 -71.3 35.35 -71.5 35.35 -71.85 Q35.35 -72.7 35.7 -73.85 35.8 -74.8 36.25 -76.45 36.85 -78.35 36.85 -79.4 36.85 -81.75 36.15 -83.85 34.85 -87.75 31.7 -87.75 22.75 -87.75 18.3 -83.85 16.65 -82.35 15.35 -79.4 L15.5 -79.15 Q15.1 -78.35 14.55 -78.2 14.2 -78.55 12.9 -81.25 11.25 -83.85 8.55 -83.85 2.45 -83.85 0.65 -81.4 L-0.15 -78.1 -0.4 -78.1 -0.4 -78.55 Q-0.6 -77.85 -0.95 -77.4 L-1.2 -77.3 -1.8 -78.35 -1.7 -78.8 Q-1.7 -81.5 -2.15 -84.35 -2.75 -87.6 -3.65 -89.4 -5.55 -92.65 -8.35 -95.85 -11.55 -99.35 -13.05 -99.35 -20.85 -99.35 -25.4 -94.1 -29.3 -89.5 -29.3 -83.25 L-28.6 -79.7 -28.55 -79.6 -28.35 -78.8 -27.3 -75.15 -27.55 -74.95 Q-28.0 -75.15 -28.45 -76.45 -29.65 -76.55 -31.65 -77.85 -33.65 -79.4 -34.0 -79.4 -37.3 -79.4 -39.65 -76.35 L-40.2 -75.75 -40.9 -74.35 Q-42.1 -72.0 -42.1 -69.9 L-42.2 -65.75 -45.15 -68.8 Q-46.55 -69.9 -47.85 -70.25 L-49.25 -70.6 -49.6 -70.6 -50.2 -70.7 Q-55.85 -70.7 -60.65 -65.55 L-62.65 -63.05 -63.7 -60.5 -63.95 -60.25 -64.65 -57.9 -64.9 -54.85 -64.4 -51.1 -63.5 -47.9 -63.5 -47.65 Q-62.55 -44.95 -61.15 -42.5 L-58.8 -39.2 -54.55 -34.65 -50.9 -31.45 -49.95 -30.75 -49.25 -30.4 -50.8 -30.05 -52.65 -29.35 Q-53.35 -29.1 -54.3 -28.5 L-54.65 -28.05 -55.95 -26.85 Q-57.35 -25.1 -57.35 -23.45 -57.35 -22.05 -56.1 -18.9 L-55.85 -18.2 -55.75 -18.05 -60.9 -18.65 Q-65.2 -18.65 -67.1 -15.8 -68.25 -14.15 -68.25 -12.5 -68.25 -8.3 -64.45 -2.05 -62.2 1.7 -59.6 3.65 L-71.25 3.45 -74.5 2.95 -75.1 2.15 -75.1 2.05 Q-78.45 1.55 -81.35 -0.85 -83.2 -2.35 -84.85 -4.55 L-84.15 -4.55 -85.1 -5.6 Q-87.0 -7.85 -88.05 -9.85 -90.05 -13.25 -90.05 -17.0 -90.05 -21.25 -88.05 -22.4 -87.1 -24.3 -85.45 -24.65 -87.9 -28.05 -88.4 -29.35 -88.6 -30.15 -88.6 -33.2 -88.6 -36.65 -86.5 -39.2 -83.8 -42.4 -78.15 -42.5 L-78.15 -42.75 Q-78.15 -45.45 -77.6 -46.25 L-76.85 -47.1 Q-80.05 -49.1 -82.05 -56.15 -83.8 -62.25 -83.8 -67.05 -83.8 -70.25 -81.8 -74.0 L-77.35 -81.5 Q-75.8 -84.0 -69.35 -88.1 -65.0 -90.8 -57.7 -91.6 -51.5 -92.45 -50.45 -90.55 L-48.55 -92.55 Q-46.45 -94.55 -44.1 -94.8 -44.9 -95.85 -45.25 -97.6 L-45.5 -101.5 Q-45.5 -105.35 -44.2 -107.95 -43.4 -109.7 -39.65 -114.65 -38.7 -116.05 -36.55 -117.8 L-33.05 -120.75 Q-30.7 -123.1 -25.3 -124.05 L-20.7 -124.15 Q-19.05 -125.9 -14.85 -127.8 -7.2 -131.2 -0.25 -129.35 2.55 -129.0 6.55 -124.5 8.9 -121.8 9.7 -120.15 11.35 -121.8 15.0 -123.35 22.4 -126.5 29.8 -124.5 33.55 -123.45 39.45 -119.0 44.95 -114.75 45.3 -112.75 47.45 -112.9 50.0 -112.05 58.15 -109.35 58.15 -104.2 L58.15 -103.35 58.25 -103.35 Q60.1 -103.7 64.0 -103.35 70.25 -102.65 72.0 -101.95 76.8 -99.85 80.0 -95.95 82.0 -93.6 83.4 -90.2 84.7 -86.9 84.7 -84.35 84.7 -82.1 84.2 -80.55 L85.75 -79.4 Q87.95 -76.95 88.2 -75.15 89.4 -71.3 89.4 -67.4 89.4 -63.75 87.5 -58.7 85.05 -51.9 80.9 -51.3 L84.1 -49.3 Q85.25 -48.4 86.2 -46.75 L86.3 -46.5 87.5 -46.75 87.4 -46.4 Q88.9 -47.1 92.3 -46.5 98.55 -45.45 99.95 -42.95 100.4 -42.25 101.25 -38.4 102.05 -34.75 102.05 -33.45 102.05 -30.65 101.25 -28.3 100.65 -26.75 99.7 -25.95 100.8 -25.6 101.5 -24.15 102.4 -22.15 102.4 -19.8 102.4 -17.6 99.7 -13.25 96.1 -7.5 90.9 -7.5 89.15 -7.5 88.1 -8.1 L85.5 -7.15 85.5 -7.0 84.55 -6.45 M-0.15 -81.5 L0.3 -82.0 -0.15 -82.55 -0.15 -81.5 M-29.3 -79.4 L-29.65 -79.15 -29.15 -78.7 -29.3 -79.4" fill="url(#gradient0)" fill-rule="evenodd" stroke="none"/>
    <path d="M52.7 -59.85 Q52.7 -54.7 45.2 -46.35 40.45 -41.05 36.0 -38.25 L35.45 -37.95 36.0 -38.15 36.1 -38.2 Q39.15 -39.25 42.35 -38.65 L42.5 -37.05 Q42.5 -35.55 40.3 -33.45 L38.25 -31.9 38.95 -31.9 35.35 -30.65 44.25 -31.25 Q47.25 -30.5 48.75 -28.95 50.25 -27.35 50.25 -24.55 50.25 -22.7 48.85 -20.7 47.75 -19.15 45.5 -17.15 51.65 -15.35 53.2 -14.35 L53.4 -14.2 Q52.15 -13.45 50.6 -12.75 L54.15 -13.5 Q55.0 -12.4 55.0 -10.65 L55.0 -9.45 54.7 -8.4 Q54.25 -7.15 53.3 -6.45 L52.75 -6.1 52.2 -5.65 Q50.55 -4.25 49.0 -3.4 L40.25 -1.2 27.3 0.25 -14.9 2.5 -16.8 2.45 -17.0 1.9 -18.3 1.95 -17.3 1.55 Q-17.9 0.85 -18.95 0.75 L-33.3 0.05 -51.0 -2.0 -51.8 -2.45 Q-55.65 -4.65 -55.65 -9.45 -55.65 -11.75 -53.75 -13.95 -51.25 -16.85 -46.75 -17.05 -48.1 -18.0 -49.0 -20.2 -49.75 -22.1 -49.75 -23.65 -49.75 -25.65 -46.75 -27.95 -43.75 -30.3 -41.2 -28.55 -41.1 -30.4 -40.0 -31.85 L-39.45 -32.45 Q-47.85 -33.55 -52.4 -40.05 -56.0 -45.15 -56.0 -50.25 -56.0 -56.15 -51.2 -58.55 -48.2 -60.05 -44.6 -58.5 -43.75 -59.6 -42.0 -60.55 -40.05 -61.65 -38.4 -61.2 L-36.7 -64.2 Q-30.1 -74.25 -14.85 -75.0 -10.4 -73.95 -6.35 -71.5 -1.5 -68.55 -1.5 -65.8 L-1.4 -65.8 -1.5 -66.85 Q-1.5 -69.55 1.65 -73.0 5.35 -77.1 10.15 -77.1 14.5 -77.1 14.8 -74.25 23.3 -82.6 29.15 -81.85 34.15 -81.25 34.15 -75.4 34.15 -72.6 30.5 -63.8 28.3 -58.45 22.85 -53.0 L23.1 -52.7 Q25.85 -55.7 28.35 -57.6 32.3 -60.6 37.5 -62.65 46.1 -66.0 49.95 -64.4 52.7 -63.2 52.7 -59.85 M19.05 -0.2 L30.45 -1.65 16.6 -0.2 16.35 -0.15 19.05 -0.2 M41.0 -3.05 L46.2 -3.65 Q46.95 -3.8 48.1 -4.5 L41.0 -3.05 M-9.25 0.3 L-9.2 -0.2 -10.1 0.4 -9.25 0.3" fill="#ffffff" fill-opacity="0.8" fill-rule="evenodd" stroke="none"/>
  </g>
  <defs>
    <radialGradient cx="0" cy="0" gradientTransform="matrix(0.1037, 0.0, 0.0, 0.1334, 3.1, -24.4)" gradientUnits="userSpaceOnUse" id="gradient0" r="819.2" spreadMethod="pad">
      <stop offset="0.4235294117647059" stop-color="#ffd200"/>
      <stop offset="1.0" stop-color="#dd5500"/>
    </radialGradient>
  </defs>
</svg>
