<?xml version="1.0" encoding="UTF-8" standalone="no"?>
<svg xmlns:ffdec="https://www.free-decompiler.com/flash" xmlns:xlink="http://www.w3.org/1999/xlink" ffdec:objectType="shape" height="88.65px" width="82.75px" xmlns="http://www.w3.org/2000/svg">
  <g transform="matrix(1.0, 0.0, 0.0, 1.0, 40.75, 50.8)">
    <path d="M36.55 -37.5 Q37.6 -37.4 37.6 -36.15 L37.4 -35.2 Q37.85 -34.75 37.85 -33.75 37.85 -32.8 36.85 -32.75 36.65 -32.0 35.7 -32.0 L34.9 -32.25 34.25 -32.0 33.75 -32.1 33.35 -32.35 33.25 -33.15 Q33.25 -34.2 34.4 -34.25 L34.45 -34.25 Q34.65 -34.6 35.3 -34.4 35.35 -34.9 35.55 -35.2 L35.45 -35.35 Q34.55 -35.35 34.35 -35.95 L34.25 -36.65 Q34.25 -38.4 35.45 -38.45 36.35 -38.45 36.55 -37.5 M32.35 -29.65 Q31.65 -29.65 31.3 -30.15 L31.15 -30.75 Q31.15 -31.8 32.35 -31.7 33.5 -31.6 33.5 -30.75 33.5 -29.65 32.35 -29.65 M8.75 -41.8 Q8.0 -41.8 7.8 -42.55 L7.75 -43.05 Q7.75 -44.15 8.75 -44.15 9.75 -44.1 9.75 -43.0 L9.5 -42.2 Q9.25 -41.8 8.75 -41.8 M7.5 -40.15 Q7.5 -41.25 8.5 -41.2 9.5 -41.2 9.5 -40.15 9.5 -38.9 8.5 -38.9 7.7 -38.9 7.55 -39.5 L7.5 -40.15 M7.75 -34.25 Q6.95 -34.25 6.75 -34.85 L6.65 -35.5 Q6.65 -36.6 7.7 -36.6 8.75 -36.6 8.75 -35.55 8.75 -34.25 7.75 -34.25 M40.5 -16.2 L41.0 -16.3 Q42.0 -16.3 42.0 -15.25 42.0 -14.0 41.0 -14.0 40.25 -14.0 40.1 -14.45 L40.05 -14.45 39.55 -14.1 Q40.25 -13.95 40.25 -13.15 L39.8 -12.3 39.05 -12.1 38.65 -12.15 Q38.5 -11.3 37.5 -11.3 36.8 -11.3 36.45 -11.85 L36.3 -12.4 Q36.3 -13.5 37.5 -13.4 L37.85 -13.35 Q37.9 -13.95 38.4 -14.1 L38.0 -14.55 Q37.85 -14.8 37.85 -15.15 37.85 -16.3 39.3 -16.4 L40.5 -16.2 M-26.9 -50.8 Q-25.75 -50.75 -25.75 -49.8 -25.75 -49.15 -26.15 -48.9 -25.25 -48.5 -25.25 -47.55 L-25.45 -47.0 Q-25.65 -46.6 -26.0 -46.5 L-26.0 -46.35 Q-26.0 -45.8 -26.4 -45.35 L-26.65 -45.15 Q-25.5 -45.1 -25.5 -44.15 -25.5 -43.55 -26.0 -43.25 L-26.65 -43.05 Q-27.8 -43.05 -27.8 -44.15 L-27.55 -44.9 Q-28.55 -44.95 -28.6 -45.9 L-28.85 -46.75 -28.6 -47.45 -28.65 -47.6 -28.85 -48.3 Q-28.85 -49.45 -28.05 -49.35 L-28.05 -49.8 Q-28.05 -50.9 -26.9 -50.8 M-35.55 -13.3 L-34.9 -13.55 Q-33.75 -13.75 -33.75 -12.55 L-34.0 -11.75 Q-34.35 -11.05 -35.0 -11.05 -35.6 -11.05 -35.85 -11.35 L-36.2 -11.3 Q-37.05 -11.3 -37.4 -12.05 L-37.55 -12.45 -38.0 -12.4 Q-39.25 -12.4 -39.55 -13.1 L-39.65 -13.75 Q-39.65 -14.95 -38.25 -14.95 -36.95 -14.95 -36.85 -13.65 L-36.3 -13.6 -35.55 -13.3 M-32.25 -8.25 Q-33.4 -8.25 -33.25 -9.45 -33.25 -10.55 -32.2 -10.55 -31.15 -10.55 -31.15 -9.5 -31.15 -8.25 -32.25 -8.25 M-36.95 8.4 Q-35.8 8.4 -35.8 9.4 -35.8 9.8 -36.2 10.25 -36.65 10.75 -37.1 10.75 L-37.65 10.7 -38.0 10.5 -38.05 10.05 -39.15 10.25 Q-40.8 10.25 -40.75 9.1 -40.75 8.1 -39.05 7.9 -37.7 7.75 -37.4 8.45 L-36.95 8.4 M-33.4 37.85 Q-34.25 37.85 -34.45 37.15 L-34.5 36.65 Q-34.5 35.45 -33.35 35.65 -32.25 35.85 -32.25 36.8 -32.25 37.85 -33.4 37.85" fill="#ffffff" fill-opacity="0.4509804" fill-rule="evenodd" stroke="none"/>
  </g>
</svg>
