<?xml version="1.0" encoding="UTF-8" standalone="no"?>
<svg xmlns:ffdec="https://www.free-decompiler.com/flash" xmlns:xlink="http://www.w3.org/1999/xlink" ffdec:objectType="shape" height="28.05px" width="26.3px" xmlns="http://www.w3.org/2000/svg">
  <g transform="matrix(1.0, 0.0, 0.0, 1.0, 6.65, 17.05)">
    <path d="M8.95 -11.8 L5.45 -11.55 1.05 -10.5 0.75 -10.65 0.15 -10.3 -2.15 -9.85 -0.6 -11.45 Q3.75 -15.5 9.75 -15.5 11.1 -15.5 13.55 -13.95 11.5 -13.55 8.95 -11.8 M3.6 4.7 L3.6 4.85 4.95 6.7 Q6.55 8.25 8.75 8.5 6.1 9.55 3.55 9.55 L-2.05 8.9 -2.75 8.75 -2.75 8.65 -2.95 8.55 -3.3 8.4 -2.8 8.1 Q-2.7 7.4 -0.2 6.3 L1.55 5.6 2.65 4.9 3.6 4.7" fill="#e09400" fill-rule="evenodd" stroke="none"/>
    <path d="M6.75 -7.65 L5.3 -9.0 8.1 -9.55 9.45 -9.95 9.75 -9.6 11.3 -10.7 Q12.4 -11.55 14.3 -11.55 16.15 -11.55 17.0 -7.95 17.5 -5.8 17.5 -3.8 17.5 -1.6 16.4 1.0 L16.0 2.0 14.45 3.6 Q11.7 7.1 9.6 7.1 L7.35 6.65 6.9 6.65 6.4 6.6 6.35 6.5 6.1 6.35 6.05 5.9 6.2 5.8 6.15 5.7 6.4 5.6 8.0 4.15 9.45 2.6 Q10.15 0.85 10.15 -0.75 10.15 -4.2 6.75 -7.65" fill="#d76a00" fill-rule="evenodd" stroke="none"/>
    <path d="M17.75 -12.85 Q19.65 -10.95 19.65 -7.55 19.65 -5.5 18.85 -1.25 L18.3 1.25 18.3 1.85 Q18.3 4.3 13.8 7.5 8.85 11.0 3.6 11.0 L-2.4 10.5 -4.55 9.75 -5.2 9.3 -5.4 9.35 -6.1 9.25 -6.3 9.1 -6.35 8.6 -6.2 8.4 -6.65 7.55 -6.65 7.5 2.45 3.2 3.75 3.0 3.8 2.95 4.3 2.85 4.4 2.9 5.1 2.75 5.2 2.85 5.25 3.25 5.05 3.9 5.1 4.05 6.3 2.3 Q7.9 0.2 8.3 -3.1 7.65 -4.75 6.05 -6.35 L3.75 -8.7 2.4 -8.4 -4.3 -7.55 -5.0 -7.35 -5.0 -7.8 -5.0 -7.95 -5.0 -8.15 -4.7 -9.35 -4.65 -9.5 -4.6 -9.5 Q-4.0 -10.7 -2.3 -12.1 0.4 -14.4 4.05 -15.75 13.6 -19.3 17.75 -13.0 L17.75 -12.85 M8.95 -11.8 Q11.5 -13.55 13.55 -13.95 11.1 -15.5 9.75 -15.5 3.75 -15.5 -0.6 -11.45 L-2.15 -9.85 0.15 -10.3 0.75 -10.65 1.05 -10.5 5.45 -11.55 8.95 -11.8 M6.75 -7.65 Q10.15 -4.2 10.15 -0.75 10.15 0.85 9.45 2.6 L8.0 4.15 6.4 5.6 6.15 5.7 6.2 5.8 6.05 5.9 6.1 6.35 6.35 6.5 6.4 6.6 6.9 6.65 7.35 6.65 9.6 7.1 Q11.7 7.1 14.45 3.6 L16.0 2.0 16.4 1.0 Q17.5 -1.6 17.5 -3.8 17.5 -5.8 17.0 -7.95 16.15 -11.55 14.3 -11.55 12.4 -11.55 11.3 -10.7 L9.75 -9.6 9.45 -9.95 8.1 -9.55 5.3 -9.0 6.75 -7.65 M3.6 4.7 L2.65 4.9 1.55 5.6 -0.2 6.3 Q-2.7 7.4 -2.8 8.1 L-3.3 8.4 -2.95 8.55 -2.75 8.65 -2.75 8.75 -2.05 8.9 3.55 9.55 Q6.1 9.55 8.75 8.5 6.55 8.25 4.95 6.7 L3.6 4.85 3.6 4.7" fill="#793c00" fill-rule="evenodd" stroke="none"/>
  </g>
</svg>
