<?xml version="1.0" encoding="UTF-8" standalone="no"?>
<svg xmlns:ffdec="https://www.free-decompiler.com/flash" xmlns:xlink="http://www.w3.org/1999/xlink" ffdec:objectType="shape" height="122.6px" width="208.4px" xmlns="http://www.w3.org/2000/svg">
  <g transform="matrix(1.0, 0.0, 0.0, 1.0, 104.65, 60.3)">
    <path d="M-30.25 -60.0 L-30.6 -58.9 Q-52.45 -55.65 -69.05 -39.4 -79.7 -29.0 -82.8 -13.65 -89.4 18.6 -66.35 39.4 -50.7 53.45 -30.7 56.85 -16.85 58.85 -2.85 59.55 13.85 60.45 30.15 57.05 41.75 55.4 52.0 50.35 65.6 43.85 75.05 31.35 84.85 18.3 85.05 1.15 85.3 -16.25 76.45 -30.55 68.65 -43.05 56.5 -50.15 42.4 -58.6 26.35 -59.1 L26.0 -60.3 33.55 -59.75 Q48.45 -58.25 62.7 -52.8 76.85 -47.3 88.4 -36.5 99.95 -25.6 102.95 -8.9 105.95 7.75 97.65 22.25 89.75 36.2 77.35 44.15 64.9 52.1 52.2 55.45 39.45 58.65 21.0 61.0 L-7.05 62.0 Q-21.7 61.1 -36.15 58.45 -49.95 55.75 -63.05 50.65 -76.3 45.35 -87.45 35.95 -98.7 26.25 -102.9 11.2 -107.25 -4.3 -100.9 -19.05 -94.6 -33.5 -82.55 -42.35 -71.05 -50.85 -57.7 -54.95 -44.25 -59.1 -30.25 -60.0" fill="#ffffff" fill-opacity="0.29803923" fill-rule="evenodd" stroke="none"/>
    <path d="M26.0 -60.3 L26.35 -59.1 Q42.4 -58.6 56.5 -50.15 68.65 -43.05 76.45 -30.55 85.3 -16.25 85.05 1.15 84.85 18.3 75.05 31.35 65.6 43.85 52.0 50.35 41.75 55.4 30.15 57.05 13.85 60.45 -2.85 59.55 -16.85 58.85 -30.7 56.85 -50.7 53.45 -66.35 39.4 -89.4 18.6 -82.8 -13.65 -79.7 -29.0 -69.05 -39.4 -52.45 -55.65 -30.6 -58.9 L-30.25 -60.0 26.0 -60.3" fill="#ffffff" fill-opacity="0.08627451" fill-rule="evenodd" stroke="none"/>
  </g>
</svg>
