<?xml version="1.0" encoding="UTF-8" standalone="no"?>
<svg xmlns:ffdec="https://www.free-decompiler.com/flash" xmlns:xlink="http://www.w3.org/1999/xlink" ffdec:objectType="shape" height="155.9px" width="232.35px" xmlns="http://www.w3.org/2000/svg">
  <g transform="matrix(1.0, 0.0, 0.0, 1.0, 112.35, 154.25)">
    <path d="M-51.5 -45.35 L-51.6 -46.6 -51.55 -46.75 -51.4 -46.15 -51.5 -45.35" fill="url(#gradient0)" fill-rule="evenodd" stroke="none"/>
    <path d="M-92.85 -3.15 Q-97.55 -5.75 -98.95 -7.6 L-99.8 -9.0 -100.0 -9.5 -100.35 -9.95 -101.45 -12.2 -101.3 -12.65 Q-101.65 -13.95 -101.65 -15.35 -101.65 -19.8 -100.7 -22.75 -100.0 -25.0 -98.85 -26.15 -99.9 -27.25 -100.7 -29.7 -101.9 -33.1 -101.9 -34.5 -101.9 -40.5 -95.55 -44.6 -91.8 -47.1 -88.95 -46.6 L-89.1 -46.4 -88.95 -46.4 -83.45 -46.85 Q-84.15 -47.8 -84.5 -49.1 L-85.55 -49.2 -84.5 -49.2 -84.5 -49.65 Q-86.05 -50.5 -87.8 -52.7 L-90.75 -57.55 Q-92.25 -61.4 -92.25 -62.35 L-92.25 -66.25 Q-92.25 -75.05 -86.75 -82.8 -79.1 -93.6 -64.3 -95.35 L-57.5 -95.6 Q-55.35 -95.35 -53.75 -93.25 -53.15 -94.8 -50.9 -96.9 -49.25 -98.3 -47.85 -98.65 -49.85 -100.9 -49.85 -112.55 -49.85 -121.1 -36.45 -127.0 -31.3 -129.2 -27.15 -129.55 L-23.9 -129.2 -24.1 -130.5 Q-24.1 -131.9 -21.9 -134.05 L-17.65 -137.55 Q-12.15 -141.8 -6.5 -142.6 3.25 -143.9 9.15 -138.15 13.35 -134.05 13.35 -130.6 L13.35 -130.5 13.5 -130.5 Q15.35 -132.05 16.4 -132.5 21.25 -134.5 32.5 -134.85 46.15 -128.75 48.0 -122.3 L49.1 -122.4 Q51.45 -122.65 54.5 -121.35 60.95 -118.65 62.1 -113.7 64.35 -114.75 69.9 -114.75 79.3 -115.0 83.4 -110.3 86.1 -107.35 86.1 -103.5 L85.95 -101.35 Q86.9 -101.35 88.55 -100.55 92.8 -98.65 92.8 -95.25 92.8 -94.3 91.95 -93.0 91.25 -92.1 90.55 -91.75 L90.8 -91.5 Q94.8 -93.0 97.0 -90.45 98.8 -88.45 98.8 -84.35 98.8 -82.55 98.2 -80.9 L97.95 -80.35 Q99.5 -80.35 101.25 -79.3 103.85 -78.0 105.95 -75.65 107.0 -73.75 107.35 -71.65 L107.45 -68.25 Q107.45 -65.05 105.95 -61.3 103.6 -55.55 99.0 -55.55 L98.3 -55.55 97.85 -55.8 97.7 -55.8 97.7 -55.4 Q98.55 -55.3 99.6 -54.0 100.9 -52.5 100.9 -51.45 L100.8 -50.25 103.15 -49.45 Q106.3 -47.8 109.0 -45.1 112.3 -40.5 112.3 -36.15 112.3 -34.65 111.0 -31.35 109.7 -28.05 108.3 -27.6 110.2 -27.0 111.1 -22.75 L111.8 -17.7 Q111.8 -14.4 108.4 -10.8 106.85 -9.2 104.9 -8.15 101.25 -6.2 96.3 -5.95 L93.85 -5.25 Q92.45 -4.65 90.65 -4.2 L84.9 -3.75 85.4 -4.1 81.85 -3.95 83.7 -6.2 Q85.0 -8.5 85.2 -9.4 L85.3 -12.1 Q85.3 -14.85 84.9 -16.6 L84.15 -18.9 83.6 -19.4 82.7 -20.75 Q79.85 -23.8 74.1 -22.15 L73.75 -22.3 74.1 -22.55 73.15 -22.55 Q72.95 -22.65 72.95 -23.25 L76.8 -28.85 Q77.4 -30.4 77.4 -34.05 77.4 -35.55 74.8 -37.45 71.4 -40.05 66.25 -38.5 L66.1 -38.25 Q65.9 -38.25 65.9 -38.85 L65.2 -39.0 65.2 -38.85 Q65.05 -38.85 65.05 -39.45 L70.35 -44.15 Q75.65 -48.85 75.65 -53.8 75.65 -58.6 74.6 -60.7 72.0 -66.45 63.55 -66.45 63.05 -66.45 62.95 -66.1 L61.05 -66.45 62.95 -69.65 Q64.7 -71.75 64.7 -73.65 64.7 -76.55 62.7 -78.7 59.3 -82.45 51.8 -80.0 L51.55 -80.0 50.95 -80.1 Q50.6 -80.2 50.6 -80.9 L53.3 -84.55 Q56.0 -87.95 56.0 -91.05 L55.85 -92.6 56.25 -93.8 Q56.25 -98.35 52.8 -99.55 49.85 -100.6 45.2 -99.05 40.9 -97.65 37.55 -95.0 L36.0 -93.6 35.8 -93.5 35.8 -93.35 34.95 -92.3 34.9 -92.35 Q34.65 -96.45 32.7 -98.8 30.7 -101.1 27.7 -101.1 24.85 -101.05 22.75 -99.05 21.4 -98.15 20.75 -96.65 L20.25 -93.45 19.3 -94.25 Q17.45 -95.45 14.85 -95.0 12.3 -94.55 10.55 -92.8 L10.3 -93.15 Q10.3 -93.85 11.25 -96.3 12.2 -98.65 12.2 -100.8 12.2 -107.35 8.2 -110.2 5.15 -112.4 0.3 -112.4 L-0.5 -111.95 Q-1.1 -111.45 -1.7 -111.35 L-1.7 -111.95 -2.6 -112.05 -2.95 -110.4 -3.45 -110.4 Q-3.9 -110.4 -4.75 -113.6 L-6.0 -118.3 -8.15 -123.0 Q-9.9 -126.15 -11.9 -126.15 -14.85 -126.15 -18.6 -122.5 -21.4 -119.8 -21.9 -118.5 -22.7 -117.1 -22.6 -114.3 L-22.4 -110.75 -22.95 -110.85 Q-29.1 -111.4 -29.1 -103.65 L-29.05 -100.25 -27.5 -96.05 -26.5 -94.55 -28.1 -94.35 Q-34.35 -93.0 -35.35 -88.35 L-35.5 -87.75 Q-35.8 -86.55 -35.5 -85.55 L-35.0 -83.05 Q-35.85 -83.8 -37.2 -84.25 L-39.6 -84.75 -41.25 -85.25 Q-47.75 -85.25 -51.9 -81.15 L-53.45 -79.75 Q-57.15 -76.0 -57.15 -70.75 -57.1 -69.1 -56.7 -67.4 L-61.25 -68.35 Q-67.35 -68.35 -71.25 -63.75 -74.15 -60.6 -74.15 -58.7 -74.15 -56.0 -71.8 -52.0 -70.2 -49.3 -67.85 -46.6 L-66.75 -45.8 Q-66.9 -45.65 -67.0 -45.65 L-66.9 -45.45 -70.7 -45.65 Q-78.45 -44.75 -78.45 -37.95 -78.45 -35.1 -74.4 -29.25 -71.7 -25.35 -68.9 -23.55 L-68.9 -23.25 -72.4 -23.35 Q-78.3 -23.35 -80.85 -19.8 -82.3 -17.95 -82.3 -15.7 -82.3 -13.95 -81.45 -12.3 L-81.15 -11.8 -81.0 -10.5 -80.3 -8.35 Q-79.8 -6.6 -78.4 -4.35 L-75.35 -0.4 -73.1 1.65 -83.55 0.25 Q-86.25 -0.2 -88.6 -1.15 -89.7 -1.6 -92.85 -3.15" fill="url(#gradient1)" fill-rule="evenodd" stroke="none"/>
    <path d="M104.9 -8.15 Q106.85 -9.2 108.4 -10.8 111.8 -14.4 111.8 -17.7 L111.1 -22.75 Q110.2 -27.0 108.3 -27.6 109.7 -28.05 111.0 -31.35 112.3 -34.65 112.3 -36.15 112.3 -40.5 109.0 -45.1 106.3 -47.8 103.15 -49.45 L100.8 -50.25 100.9 -51.45 Q100.9 -52.5 99.6 -54.0 98.55 -55.3 97.7 -55.4 L97.7 -55.8 97.85 -55.8 98.3 -55.55 99.0 -55.55 Q103.6 -55.55 105.95 -61.3 107.45 -65.05 107.45 -68.25 L107.35 -71.65 Q107.0 -73.75 105.95 -75.65 103.85 -78.0 101.25 -79.3 99.5 -80.35 97.95 -80.35 L98.2 -80.9 Q98.8 -82.55 98.8 -84.35 98.8 -88.45 97.0 -90.45 94.8 -93.0 90.8 -91.5 L90.55 -91.75 Q91.25 -92.1 91.95 -93.0 92.8 -94.3 92.8 -95.25 92.8 -98.65 88.55 -100.55 86.9 -101.35 85.95 -101.35 L86.1 -103.5 Q86.1 -107.35 83.4 -110.3 79.3 -115.0 69.9 -114.75 64.35 -114.75 62.1 -113.7 60.95 -118.65 54.5 -121.35 51.45 -122.65 49.1 -122.4 L48.0 -122.3 Q46.15 -128.75 32.5 -134.85 21.25 -134.5 16.4 -132.5 15.35 -132.05 13.5 -130.5 L13.35 -130.5 13.35 -130.6 Q13.35 -134.05 9.15 -138.15 3.25 -143.9 -6.5 -142.6 -12.15 -141.8 -17.65 -137.55 L-21.9 -134.05 Q-24.1 -131.9 -24.1 -130.5 L-23.9 -129.2 -27.15 -129.55 Q-31.3 -129.2 -36.45 -127.0 -49.85 -121.1 -49.85 -112.55 -49.85 -100.9 -47.85 -98.65 -49.25 -98.3 -50.9 -96.9 -53.15 -94.8 -53.75 -93.25 -55.35 -95.35 -57.5 -95.6 L-64.3 -95.35 Q-79.1 -93.6 -86.75 -82.8 -92.25 -75.05 -92.25 -66.25 L-92.25 -62.35 Q-92.25 -61.4 -90.75 -57.55 L-87.8 -52.7 Q-86.05 -50.5 -84.5 -49.65 L-84.5 -49.2 -85.55 -49.2 -84.5 -49.1 Q-84.15 -47.8 -83.45 -46.85 L-88.95 -46.4 -89.1 -46.4 -88.95 -46.6 Q-91.8 -47.1 -95.55 -44.6 -101.9 -40.5 -101.9 -34.5 -101.9 -33.1 -100.7 -29.7 -99.9 -27.25 -98.85 -26.15 -100.0 -25.0 -100.7 -22.75 -101.65 -19.8 -101.65 -15.35 -101.65 -13.95 -101.3 -12.65 L-101.45 -12.2 -100.35 -9.95 -100.0 -9.5 -99.8 -9.0 -98.95 -7.6 Q-97.55 -5.75 -92.85 -3.15 -100.25 -4.6 -104.8 -7.4 -112.35 -12.05 -112.35 -20.65 -112.35 -23.75 -111.3 -26.3 -109.75 -30.0 -106.65 -29.0 -108.6 -31.0 -110.2 -34.05 -112.35 -38.1 -112.35 -41.65 -112.35 -47.4 -109.0 -51.45 -105.8 -55.25 -101.6 -55.25 L-99.25 -55.1 Q-101.7 -58.15 -103.1 -60.95 -106.15 -66.85 -106.15 -73.55 -106.15 -89.85 -92.35 -98.05 -82.75 -103.75 -72.15 -103.75 L-67.4 -103.6 -64.7 -102.3 -61.9 -104.35 -60.2 -105.45 -61.4 -109.15 Q-62.35 -113.2 -62.35 -116.65 -62.35 -128.35 -54.25 -135.25 -47.0 -141.4 -36.65 -141.4 -34.25 -141.4 -31.8 -139.9 L-30.0 -138.8 Q-28.8 -143.55 -20.9 -148.35 -11.1 -154.25 -3.8 -154.25 5.25 -154.25 10.0 -150.75 14.1 -147.65 16.7 -140.9 17.8 -141.65 19.65 -142.15 L25.15 -142.8 32.75 -141.5 40.9 -139.5 Q44.1 -138.25 45.85 -135.1 L47.75 -131.65 49.15 -132.25 52.55 -132.8 Q58.7 -132.8 62.3 -129.0 65.1 -126.05 65.55 -121.9 L69.1 -122.1 73.25 -122.35 Q81.35 -122.35 85.7 -118.95 90.0 -115.6 90.0 -109.5 L90.0 -109.3 90.65 -109.5 Q93.8 -109.5 96.65 -107.15 99.5 -104.75 99.5 -102.1 99.5 -100.7 99.1 -99.9 L98.05 -98.5 Q98.55 -98.5 101.6 -100.0 104.05 -100.0 106.1 -97.1 108.05 -94.45 108.05 -91.85 108.05 -89.8 107.05 -88.4 104.8 -85.25 103.75 -83.3 109.2 -85.6 113.55 -81.3 117.55 -77.35 117.55 -71.6 117.55 -66.7 113.55 -61.15 109.2 -55.0 104.25 -55.25 L104.0 -54.75 103.75 -54.25 Q110.85 -54.85 115.75 -48.9 120.0 -43.7 120.0 -37.6 120.0 -34.45 117.85 -32.2 115.7 -29.95 112.3 -29.5 117.1 -27.35 117.1 -21.1 117.1 -15.3 112.3 -11.45 108.75 -8.6 104.9 -8.15" fill="#ffe000" fill-opacity="0.8" fill-rule="evenodd" stroke="none"/>
    <path d="M-44.85 0.05 L-54.3 -1.25 -55.7 -3.15 Q-57.05 -5.6 -57.05 -9.8 -57.05 -12.55 -55.85 -14.4 -54.5 -16.55 -51.4 -18.0 -52.1 -18.75 -52.55 -20.0 -53.25 -21.9 -53.25 -23.35 -53.25 -26.0 -52.25 -27.45 -50.75 -29.65 -46.7 -29.85 L-46.7 -29.9 Q-49.7 -30.05 -53.0 -34.1 -54.95 -36.6 -56.7 -40.05 -59.5 -45.55 -59.5 -50.4 -59.5 -54.3 -57.15 -57.4 -54.2 -61.35 -48.15 -62.35 L-47.1 -61.1 -47.15 -61.65 -47.1 -62.05 Q-46.9 -63.55 -45.25 -64.8 -43.0 -66.55 -39.5 -65.85 L-39.55 -66.0 -39.35 -65.85 -39.25 -65.8 -38.9 -65.8 -38.95 -66.25 Q-38.95 -69.45 -34.2 -73.5 -32.0 -75.4 -29.45 -76.5 -26.05 -78.0 -22.1 -78.15 L-19.6 -78.1 -19.1 -79.3 Q-17.85 -81.95 -16.25 -83.7 L-14.95 -84.9 Q-11.55 -87.7 -6.65 -87.2 -2.25 -89.2 1.9 -85.7 L2.0 -85.6 Q5.3 -82.85 6.05 -79.45 L6.05 -78.7 6.35 -79.0 6.35 -79.05 Q6.75 -79.4 7.3 -79.75 8.9 -80.8 11.05 -81.1 15.95 -81.85 16.4 -78.5 17.25 -80.25 20.45 -82.0 24.45 -84.1 30.45 -85.4 35.75 -86.8 37.8 -82.55 38.85 -80.4 38.85 -77.45 38.85 -73.9 37.2 -70.45 36.0 -67.95 34.15 -65.9 L33.15 -64.85 32.85 -64.05 35.05 -65.15 Q39.05 -66.85 43.4 -67.2 53.7 -67.45 53.7 -57.5 53.7 -52.55 49.95 -47.35 46.3 -42.3 41.15 -40.2 L41.4 -39.65 Q43.75 -40.6 44.45 -39.65 L44.7 -37.7 Q44.7 -36.05 44.3 -35.45 43.6 -34.3 41.0 -33.35 L40.95 -33.35 41.3 -32.7 Q47.55 -35.6 51.3 -33.25 54.8 -31.05 54.8 -25.75 54.8 -24.9 53.1 -22.9 51.6 -21.2 50.4 -20.8 L50.45 -20.75 Q56.8 -20.85 59.25 -18.0 60.75 -16.25 60.75 -13.15 60.75 -8.4 54.0 -4.45 50.7 -2.55 46.7 -1.4 L44.35 -0.75 44.15 -0.8 36.75 0.0 32.4 -0.1 Q30.95 -0.3 30.95 -0.5 37.45 -0.75 42.85 -2.0 43.1 -1.8 43.45 -1.8 44.15 -1.8 47.6 -3.2 L51.45 -4.85 52.1 -5.25 Q54.05 -6.8 54.05 -9.0 54.05 -10.75 53.05 -12.15 51.35 -14.45 47.4 -13.7 L46.45 -13.6 48.3 -17.2 49.6 -20.9 49.6 -21.1 49.65 -21.4 49.8 -21.6 49.75 -21.8 49.8 -22.8 Q49.8 -24.25 49.3 -24.55 L48.95 -26.0 Q48.35 -27.4 46.8 -28.5 L45.0 -29.55 44.0 -29.9 35.05 -30.0 33.95 -29.8 35.55 -31.0 Q36.8 -31.55 37.1 -32.8 37.95 -34.2 37.95 -35.75 38.05 -36.9 37.5 -37.9 36.45 -39.85 33.3 -39.15 L29.5 -38.5 29.65 -39.15 33.35 -41.2 34.75 -41.5 41.25 -46.7 Q43.15 -48.6 44.8 -51.95 46.5 -55.5 46.5 -57.9 46.5 -65.9 33.15 -59.7 28.25 -57.4 23.95 -54.25 L20.9 -51.65 20.55 -52.0 20.45 -52.55 20.5 -52.75 26.25 -62.5 26.45 -62.6 28.55 -65.9 Q31.05 -69.75 31.95 -71.9 33.2 -74.8 33.2 -77.7 33.2 -81.15 31.15 -82.0 28.3 -83.2 22.4 -77.7 21.15 -76.45 18.5 -72.45 L16.35 -69.0 15.5 -72.3 Q13.8 -76.85 10.1 -76.1 6.9 -75.5 4.15 -71.9 2.85 -70.2 2.3 -68.75 L2.55 -72.15 1.65 -78.3 Q1.3 -79.6 -0.55 -81.65 L-1.8 -82.85 Q-1.9 -83.0 -2.15 -83.15 -3.55 -84.2 -4.8 -84.2 -7.65 -84.2 -10.25 -82.0 -11.0 -81.8 -11.6 -81.2 L-12.5 -79.75 -12.55 -79.55 -13.2 -78.9 -14.45 -77.3 -15.3 -75.9 -16.1 -73.5 -17.9 -74.05 Q-18.7 -74.6 -21.4 -74.6 -24.0 -74.6 -24.45 -73.6 L-24.45 -73.55 -26.25 -72.4 -28.5 -70.35 Q-29.15 -69.7 -30.45 -66.5 -31.8 -63.2 -31.8 -62.05 -31.8 -60.85 -30.9 -58.2 L-30.45 -57.05 -30.6 -57.1 Q-33.65 -58.35 -37.4 -58.35 L-43.55 -57.95 Q-47.75 -57.0 -49.25 -55.55 L-49.4 -55.55 Q-52.2 -55.55 -53.25 -51.25 L-53.7 -46.7 Q-53.7 -45.1 -53.05 -42.75 -52.1 -39.5 -50.5 -39.2 -50.2 -38.4 -48.7 -36.95 L-46.05 -34.65 -45.75 -34.35 Q-45.7 -33.55 -43.95 -32.35 L-37.2 -27.3 -37.6 -27.3 Q-38.05 -28.1 -40.4 -28.1 L-41.4 -28.1 Q-45.4 -27.6 -47.75 -25.4 -49.7 -23.6 -49.7 -21.75 -49.7 -20.8 -48.3 -18.95 -46.45 -16.5 -43.85 -16.5 L-42.1 -16.75 -42.45 -16.35 -42.65 -16.35 Q-44.65 -16.35 -47.35 -14.4 -50.55 -12.05 -50.55 -9.1 -50.55 -5.45 -47.1 -1.85 L-44.85 0.05 M-47.9 -61.55 L-47.9 -61.6 -48.05 -61.55 -47.9 -61.55" fill="#ffffff" fill-rule="evenodd" stroke="none"/>
    <path d="M-44.85 0.05 L-47.1 -1.85 Q-50.55 -5.45 -50.55 -9.1 -50.55 -12.05 -47.35 -14.4 -44.65 -16.35 -42.65 -16.35 L-42.45 -16.35 -42.1 -16.75 -43.85 -16.5 Q-46.45 -16.5 -48.3 -18.95 -49.7 -20.8 -49.7 -21.75 -49.7 -23.6 -47.75 -25.4 -45.4 -27.6 -41.4 -28.1 L-40.4 -28.1 Q-38.05 -28.1 -37.6 -27.3 L-37.2 -27.3 -43.95 -32.35 Q-45.7 -33.55 -45.75 -34.35 L-46.05 -34.65 -48.7 -36.95 Q-50.2 -38.4 -50.5 -39.2 -52.1 -39.5 -53.05 -42.75 -53.7 -45.1 -53.7 -46.7 L-53.25 -51.25 Q-52.2 -55.55 -49.4 -55.55 L-49.25 -55.55 Q-47.75 -57.0 -43.55 -57.95 L-37.4 -58.35 Q-33.65 -58.35 -30.6 -57.1 L-30.45 -57.05 -30.9 -58.2 Q-31.8 -60.85 -31.8 -62.05 -31.8 -63.2 -30.45 -66.5 -29.15 -69.7 -28.5 -70.35 L-26.25 -72.4 -24.45 -73.55 -24.45 -73.6 Q-24.0 -74.6 -21.4 -74.6 -18.7 -74.6 -17.9 -74.05 L-16.1 -73.5 -15.3 -75.9 -14.45 -77.3 -13.2 -78.9 -12.55 -79.55 -12.5 -79.75 -11.6 -81.2 Q-11.0 -81.8 -10.25 -82.0 -7.65 -84.2 -4.8 -84.2 -3.55 -84.2 -2.15 -83.15 -1.9 -83.0 -1.8 -82.85 L-0.55 -81.65 Q1.3 -79.6 1.65 -78.3 L2.55 -72.15 2.3 -68.75 Q2.85 -70.2 4.15 -71.9 6.9 -75.5 10.1 -76.1 13.8 -76.85 15.5 -72.3 L16.35 -69.0 18.5 -72.45 Q21.15 -76.45 22.4 -77.7 28.3 -83.2 31.15 -82.0 33.2 -81.15 33.2 -77.7 33.2 -74.8 31.95 -71.9 31.05 -69.75 28.55 -65.9 L26.45 -62.6 26.25 -62.5 20.5 -52.75 20.45 -52.55 20.55 -52.0 20.9 -51.65 23.95 -54.25 Q28.25 -57.4 33.15 -59.7 46.5 -65.9 46.5 -57.9 46.5 -55.5 44.8 -51.95 43.15 -48.6 41.25 -46.7 L34.75 -41.5 33.35 -41.2 29.65 -39.15 29.5 -38.5 33.3 -39.15 Q36.45 -39.85 37.5 -37.9 38.05 -36.9 37.95 -35.75 37.95 -34.2 37.1 -32.8 36.8 -31.55 35.55 -31.0 L33.95 -29.8 35.05 -30.0 44.0 -29.9 45.0 -29.55 46.8 -28.5 Q48.35 -27.4 48.95 -26.0 L49.3 -24.55 Q49.8 -24.25 49.8 -22.8 L49.75 -21.8 49.8 -21.6 49.65 -21.4 49.6 -21.1 49.6 -20.9 48.3 -17.2 46.45 -13.6 47.4 -13.7 Q51.35 -14.45 53.05 -12.15 54.05 -10.75 54.05 -9.0 54.05 -6.8 52.1 -5.25 L51.45 -4.85 47.6 -3.2 Q44.15 -1.8 43.45 -1.8 43.1 -1.8 42.85 -2.0 37.45 -0.75 30.95 -0.5 30.95 -0.3 32.4 -0.1 L32.4 0.1 -36.75 1.6 Q-37.3 0.9 -41.6 0.4 L-44.85 0.05 M-51.55 -46.75 L-51.6 -46.6 -51.5 -45.35 -51.4 -46.15 -51.55 -46.75 M-34.6 0.8 L-34.65 0.5 -34.65 1.15 -34.6 0.8" fill="#ffffff" fill-opacity="0.29803923" fill-rule="evenodd" stroke="none"/>
  </g>
  <defs>
    <radialGradient cx="0" cy="0" gradientTransform="matrix(0.0381, 0.0, 0.0, 0.0491, 0.55, 2.2)" gradientUnits="userSpaceOnUse" id="gradient0" r="819.2" spreadMethod="pad">
      <stop offset="0.0" stop-color="#ff6600"/>
      <stop offset="1.0" stop-color="#dd0000"/>
    </radialGradient>
    <radialGradient cx="0" cy="0" gradientTransform="matrix(0.1342, 0.0, 0.0, 0.1727, 3.0, -6.05)" gradientUnits="userSpaceOnUse" id="gradient1" r="819.2" spreadMethod="pad">
      <stop offset="0.6313725490196078" stop-color="#ff6600"/>
      <stop offset="1.0" stop-color="#dd0000"/>
    </radialGradient>
  </defs>
</svg>
