<?xml version="1.0" encoding="UTF-8" standalone="no"?>
<svg xmlns:ffdec="https://www.free-decompiler.com/flash" xmlns:xlink="http://www.w3.org/1999/xlink" ffdec:objectType="shape" height="131.35px" width="217.9px" xmlns="http://www.w3.org/2000/svg">
  <g transform="matrix(1.0, 0.0, 0.0, 1.0, 109.3, 65.75)">
    <path d="M-33.7 -65.65 L-33.6 -65.65 -33.7 -65.4 -34.0 -64.2 Q-55.55 -62.05 -71.35 -45.8 -89.5 -26.75 -89.5 0.1 -89.5 26.55 -71.35 45.6 -54.05 63.5 -29.95 64.3 L-28.95 65.6 Q-61.85 65.25 -85.35 46.4 -109.3 27.05 -109.3 0.1 -109.3 -27.4 -85.35 -46.75 -63.6 -64.0 -33.7 -65.65 M30.45 -64.4 L30.05 -65.75 Q62.25 -65.3 85.15 -46.75 108.6 -27.4 108.6 0.1 108.6 27.05 85.15 46.4 62.9 64.55 31.95 65.6 L32.6 64.2 Q55.1 62.7 71.4 45.6 89.15 26.55 89.15 0.1 89.15 -26.75 71.4 -45.8 54.3 -63.65 30.45 -64.4" fill="#ffffff" fill-opacity="0.2509804" fill-rule="evenodd" stroke="none"/>
  </g>
</svg>
