<?xml version="1.0" encoding="UTF-8" standalone="no"?>
<svg xmlns:ffdec="https://www.free-decompiler.com/flash" xmlns:xlink="http://www.w3.org/1999/xlink" ffdec:objectType="shape" height="17.2px" width="28.25px" xmlns="http://www.w3.org/2000/svg">
  <g transform="matrix(1.0, 0.0, 0.0, 1.0, 11.0, 8.85)">
    <path d="M7.25 -6.8 L8.2 -6.55 Q6.45 -6.2 4.9 -4.6 3.15 -2.8 2.05 0.25 L1.4 2.65 1.15 2.7 1.0 3.0 0.9 3.05 0.9 3.5 1.2 4.05 1.15 4.5 1.3 5.6 -2.75 5.75 -8.3 6.2 Q-7.9 5.4 -7.65 3.9 L-7.1 0.05 -5.55 -3.35 -5.3 -3.35 -2.85 -5.45 Q-1.7 -6.25 -0.55 -6.75 L7.25 -6.8" fill="#e09400" fill-rule="evenodd" stroke="none"/>
    <path d="M3.7 -0.1 L4.1 -0.9 Q4.5 0.3 6.0 2.0 8.75 5.0 12.55 5.0 L12.9 5.0 Q12.0 6.0 10.65 6.1 L9.45 6.5 Q7.7 6.3 5.8 5.55 L4.0 4.1 2.8 3.2 Q3.05 1.5 3.7 -0.1 M13.2 -4.0 L14.55 -3.1 15.6 -1.2 15.7 0.05 15.85 0.95 15.05 2.65 15.0 2.75 14.9 2.6 14.4 3.0 13.4 3.5 11.5 3.5 12.6 1.75 12.45 1.05 12.6 0.65 Q12.35 -0.9 11.7 -2.1 10.35 -4.75 7.6 -4.6 L10.25 -5.1 11.55 -5.0 13.2 -4.0" fill="#d76a00" fill-rule="evenodd" stroke="none"/>
    <path d="M4.95 -2.35 L7.25 0.75 Q8.6 2.4 10.2 3.15 L10.6 0.9 10.55 0.7 Q9.65 -2.75 6.8 -4.15 L4.95 -2.35 M5.2 -8.7 Q9.85 -8.45 13.1 -6.8 16.6 -5.05 17.0 -2.15 L17.0 -1.7 17.2 -1.25 17.15 0.15 Q17.15 2.4 15.65 4.55 L14.25 6.15 14.25 6.45 Q14.25 7.0 13.25 7.45 12.15 8.0 10.4 8.0 L9.35 7.95 8.25 8.0 Q6.5 8.0 4.4 6.7 L4.4 6.75 Q4.4 8.35 -4.3 8.35 -8.8 8.35 -11.0 7.25 -11.0 6.8 -10.3 6.35 L-10.25 6.35 -10.5 5.85 -10.75 4.5 Q-10.75 1.35 -7.7 -3.95 -4.05 -10.3 0.25 -8.45 L5.2 -8.7 M3.7 -0.1 Q3.05 1.5 2.8 3.2 L4.0 4.1 5.8 5.55 Q7.7 6.3 9.45 6.5 L10.65 6.1 Q12.0 6.0 12.9 5.0 L12.55 5.0 Q8.75 5.0 6.0 2.0 4.5 0.3 4.1 -0.9 L3.7 -0.1 M7.25 -6.8 L-0.55 -6.75 Q-1.7 -6.25 -2.85 -5.45 L-5.3 -3.35 -5.55 -3.35 -7.1 0.05 -7.65 3.9 Q-7.9 5.4 -8.3 6.2 L-2.75 5.75 1.3 5.6 1.15 4.5 1.2 4.05 0.9 3.5 0.9 3.05 1.0 3.0 1.15 2.7 1.4 2.65 2.05 0.25 Q3.15 -2.8 4.9 -4.6 6.45 -6.2 8.2 -6.55 L7.25 -6.8 M13.2 -4.0 L11.55 -5.0 10.25 -5.1 7.6 -4.6 Q10.35 -4.75 11.7 -2.1 12.35 -0.9 12.6 0.65 L12.45 1.05 12.6 1.75 11.5 3.5 13.4 3.5 14.4 3.0 14.9 2.6 15.0 2.75 15.05 2.65 15.85 0.95 15.7 0.05 15.6 -1.2 14.55 -3.1 13.2 -4.0 M2.55 5.6 L2.9 5.6 2.55 5.35 2.55 5.6" fill="#793c00" fill-rule="evenodd" stroke="none"/>
  </g>
</svg>
