<?xml version="1.0" encoding="UTF-8" standalone="no"?>
<svg xmlns:ffdec="https://www.free-decompiler.com/flash" xmlns:xlink="http://www.w3.org/1999/xlink" ffdec:objectType="shape" height="90.1px" width="120.8px" xmlns="http://www.w3.org/2000/svg">
  <g transform="matrix(1.0, 0.0, 0.0, 1.0, 61.6, 89.1)">
    <path d="M-48.15 0.3 L-48.0 0.65 -48.05 0.9 -49.5 1.0 Q-51.95 1.0 -53.7 0.15 -54.95 -0.15 -55.7 -1.4 -56.75 -2.6 -57.0 -4.4 L-57.55 -8.5 -57.5 -9.55 -57.7 -11.05 Q-57.7 -12.85 -56.5 -14.7 L-56.5 -14.75 Q-55.3 -17.25 -52.5 -17.9 -53.45 -19.2 -53.8 -20.95 L-53.85 -21.0 Q-54.3 -22.3 -54.3 -23.9 -54.3 -27.65 -51.2 -29.6 L-50.95 -29.75 -50.0 -30.2 -51.65 -31.45 -54.35 -34.0 -58.05 -38.9 -60.65 -44.0 Q-61.6 -46.25 -61.6 -48.65 -61.6 -54.25 -58.35 -58.25 -55.15 -62.1 -51.05 -62.1 L-49.15 -62.1 Q-48.95 -64.5 -46.3 -65.9 -44.2 -67.0 -42.3 -67.0 L-41.25 -66.85 -41.0 -67.35 Q-40.15 -68.7 -38.85 -68.25 -39.15 -71.3 -35.7 -74.9 L-32.05 -78.2 Q-29.35 -79.8 -24.15 -80.15 L-21.1 -79.55 -20.35 -79.15 -19.55 -79.7 -18.8 -80.0 -18.8 -80.2 Q-18.8 -82.45 -15.95 -84.85 -13.1 -87.25 -8.85 -88.55 -3.45 -90.15 1.3 -87.2 2.15 -86.8 3.35 -85.1 L5.15 -82.2 5.7 -80.5 5.8 -80.6 Q7.65 -81.55 11.2 -81.1 12.15 -80.75 13.15 -79.55 L13.7 -78.85 15.4 -80.45 Q16.55 -81.4 19.1 -83.15 L23.1 -85.3 27.35 -86.8 Q30.1 -87.8 33.25 -87.35 36.2 -86.9 37.55 -85.55 L39.45 -82.75 39.65 -80.4 Q39.65 -78.6 39.05 -76.2 L36.45 -67.7 39.85 -68.55 44.25 -68.6 46.35 -68.15 46.9 -68.2 Q48.45 -68.2 49.85 -67.45 L51.9 -66.15 53.25 -64.9 54.1 -63.45 54.85 -60.8 55.1 -58.1 Q55.1 -55.9 54.6 -53.15 54.0 -49.95 53.05 -48.6 51.15 -45.4 49.8 -43.9 L46.3 -40.55 47.25 -39.65 Q47.65 -38.95 47.65 -38.2 47.65 -37.55 46.7 -35.9 L49.5 -36.4 Q53.25 -36.4 54.75 -32.95 55.55 -31.1 55.55 -28.95 55.55 -26.55 53.75 -23.05 L52.3 -20.6 54.0 -20.65 Q57.5 -20.15 58.65 -17.7 59.2 -16.45 59.2 -13.8 59.2 -10.9 58.35 -8.6 54.75 -8.25 54.75 -5.85 54.75 -5.05 55.2 -4.3 L54.95 -4.1 Q52.85 -2.3 51.95 -2.3 51.5 -2.3 51.3 -2.55 L51.25 -2.55 51.1 -2.95 51.1 -3.1 51.15 -3.3 51.6 -3.95 53.0 -5.25 54.55 -7.5 Q56.2 -10.05 56.2 -11.9 L55.35 -15.25 Q54.75 -16.1 53.35 -16.65 L51.55 -16.75 Q50.8 -16.6 50.0 -17.05 49.7 -17.2 49.7 -17.75 49.7 -18.25 50.25 -18.8 L50.65 -19.1 50.35 -19.5 Q49.8 -19.65 49.8 -20.3 L50.2 -21.05 50.2 -21.2 50.95 -23.95 Q51.7 -26.5 51.7 -27.75 L51.0 -31.2 50.6 -32.1 49.85 -32.95 46.25 -33.85 44.75 -33.5 Q44.3 -33.5 44.15 -33.8 L43.55 -33.75 Q43.3 -33.75 43.2 -33.9 L43.75 -35.85 43.65 -36.9 43.65 -37.15 43.55 -37.25 43.25 -37.65 42.55 -39.1 41.0 -40.2 Q40.35 -40.55 40.35 -41.05 40.35 -41.25 44.0 -43.1 L45.9 -44.15 48.8 -47.9 Q49.2 -48.45 50.0 -51.3 50.9 -54.3 50.9 -55.45 50.9 -65.25 40.85 -65.25 37.95 -65.25 35.75 -64.25 33.5 -63.3 33.2 -63.3 L32.85 -63.35 30.35 -61.6 Q29.9 -61.6 29.75 -61.95 L29.7 -62.3 34.7 -74.55 Q35.05 -75.65 35.05 -78.15 35.05 -83.6 30.35 -83.6 L25.6 -82.3 22.0 -79.95 Q20.7 -79.15 19.4 -77.55 L19.4 -77.25 18.6 -76.3 18.4 -76.0 Q17.65 -74.9 17.0 -74.9 16.5 -74.9 16.35 -75.2 L15.4 -75.95 Q14.05 -76.95 10.4 -76.95 L8.8 -76.7 8.0 -76.4 Q7.05 -75.95 6.55 -75.35 L6.1 -74.35 Q5.6 -73.5 5.0 -73.5 4.1 -73.5 3.1 -76.55 L0.1 -82.85 -1.05 -84.45 Q-2.3 -85.35 -5.3 -85.35 -8.25 -85.35 -9.9 -84.3 L-13.15 -81.4 -15.6 -77.65 Q-16.05 -77.15 -16.95 -77.15 L-17.65 -77.25 -18.2 -77.15 -19.75 -77.05 -20.3 -76.95 Q-20.55 -76.7 -20.95 -76.7 L-21.2 -76.75 -23.1 -76.35 -24.75 -76.55 Q-28.1 -76.55 -30.8 -74.15 -32.35 -72.75 -33.0 -71.5 L-34.35 -68.7 Q-35.0 -67.35 -35.0 -66.05 L-34.6 -62.95 Q-34.6 -62.55 -34.95 -62.35 -35.2 -62.2 -35.4 -62.2 -36.0 -62.2 -36.5 -62.75 L-37.2 -63.55 -37.65 -62.85 -37.2 -61.4 Q-37.2 -60.6 -37.95 -60.6 -38.4 -60.6 -39.05 -61.2 L-40.05 -62.05 -40.95 -62.65 -43.25 -62.9 Q-45.6 -62.9 -45.75 -60.75 -45.9 -58.6 -46.6 -58.6 -47.25 -58.6 -47.4 -59.25 L-49.85 -59.0 -52.65 -57.6 -55.9 -54.5 Q-56.6 -53.7 -57.2 -51.5 L-57.7 -49.35 -57.65 -48.75 -57.8 -48.3 -57.8 -48.1 Q-57.8 -45.75 -57.25 -44.15 L-55.1 -39.95 Q-53.9 -38.0 -51.65 -35.9 -50.05 -34.4 -49.0 -33.85 L-46.75 -32.85 -46.15 -32.3 -44.5 -31.65 Q-44.1 -31.4 -44.1 -30.9 -44.1 -30.35 -44.95 -29.85 -45.7 -29.4 -46.45 -29.4 L-46.85 -29.45 -47.5 -29.0 Q-49.3 -27.75 -50.0 -26.65 -50.9 -25.2 -50.9 -23.1 -50.9 -21.3 -49.5 -19.65 L-48.1 -17.85 -48.3 -17.2 Q-48.55 -16.75 -49.05 -16.75 L-49.65 -17.15 -50.35 -16.5 -50.6 -16.35 Q-52.2 -15.1 -52.65 -14.0 -53.55 -11.75 -53.55 -10.5 -53.55 -8.6 -52.7 -5.9 -51.85 -3.2 -51.85 -2.7 -51.85 -2.3 -52.0 -2.1 L-50.8 -1.2 -48.85 -0.2 Q-48.35 0.05 -48.15 0.3 M42.9 -41.0 L43.15 -41.25 42.8 -41.05 42.9 -41.0 M57.2 -15.6 L57.15 -15.95 57.1 -15.9 57.2 -15.6 M-36.6 -70.4 L-36.4 -70.55 -36.1 -71.35 -36.6 -70.4 M-36.65 -65.05 L-36.45 -65.05 -36.5 -65.3 -36.65 -65.05 M-47.55 -30.95 L-47.4 -31.0 -47.5 -31.05 -47.55 -30.95 M-52.5 -1.85 L-52.55 -1.85 -52.5 -1.75 -52.45 -1.8 -52.5 -1.85" fill="#ffffff" fill-opacity="0.42352942" fill-rule="evenodd" stroke="none"/>
    <path d="M-48.15 0.3 Q-48.35 0.05 -48.85 -0.2 L-50.8 -1.2 -52.0 -2.1 Q-51.85 -2.3 -51.85 -2.7 -51.85 -3.2 -52.7 -5.9 -53.55 -8.6 -53.55 -10.5 -53.55 -11.75 -52.65 -14.0 -52.2 -15.1 -50.6 -16.35 L-50.35 -16.5 -49.65 -17.15 -49.05 -16.75 Q-48.55 -16.75 -48.3 -17.2 L-48.1 -17.85 -49.5 -19.65 Q-50.9 -21.3 -50.9 -23.1 -50.9 -25.2 -50.0 -26.65 -49.3 -27.75 -47.5 -29.0 L-46.85 -29.45 -46.45 -29.4 Q-45.7 -29.4 -44.95 -29.85 -44.1 -30.35 -44.1 -30.9 -44.1 -31.4 -44.5 -31.65 L-46.15 -32.3 -46.75 -32.85 -49.0 -33.85 Q-50.05 -34.4 -51.65 -35.9 -53.9 -38.0 -55.1 -39.95 L-57.25 -44.15 Q-57.8 -45.75 -57.8 -48.1 L-57.8 -48.3 -57.65 -48.75 -57.7 -49.35 -57.2 -51.5 Q-56.6 -53.7 -55.9 -54.5 L-52.65 -57.6 -49.85 -59.0 -47.4 -59.25 Q-47.25 -58.6 -46.6 -58.6 -45.9 -58.6 -45.75 -60.75 -45.6 -62.9 -43.25 -62.9 L-40.95 -62.65 -40.05 -62.05 -39.05 -61.2 Q-38.4 -60.6 -37.95 -60.6 -37.2 -60.6 -37.2 -61.4 L-37.65 -62.85 -37.2 -63.55 -36.5 -62.75 Q-36.0 -62.2 -35.4 -62.2 -35.2 -62.2 -34.95 -62.35 -34.6 -62.55 -34.6 -62.95 L-35.0 -66.05 Q-35.0 -67.35 -34.35 -68.7 L-33.0 -71.5 Q-32.35 -72.75 -30.8 -74.15 -28.1 -76.55 -24.75 -76.55 L-23.1 -76.35 -21.2 -76.75 -20.95 -76.7 Q-20.55 -76.7 -20.3 -76.95 L-19.75 -77.05 -18.2 -77.15 -17.65 -77.25 -16.95 -77.15 Q-16.05 -77.15 -15.6 -77.65 L-13.15 -81.4 -9.9 -84.3 Q-8.25 -85.35 -5.3 -85.35 -2.3 -85.35 -1.05 -84.45 L0.1 -82.85 3.1 -76.55 Q4.1 -73.5 5.0 -73.5 5.6 -73.5 6.1 -74.35 L6.55 -75.35 Q7.05 -75.95 8.0 -76.4 L8.8 -76.7 10.4 -76.95 Q14.05 -76.95 15.4 -75.95 L16.35 -75.2 Q16.5 -74.9 17.0 -74.9 17.65 -74.9 18.4 -76.0 L18.6 -76.3 19.4 -77.25 19.4 -77.55 Q20.7 -79.15 22.0 -79.95 L25.6 -82.3 30.35 -83.6 Q35.05 -83.6 35.05 -78.15 35.05 -75.65 34.7 -74.55 L29.7 -62.3 29.75 -61.95 Q29.9 -61.6 30.35 -61.6 L32.85 -63.35 33.2 -63.3 Q33.5 -63.3 35.75 -64.25 37.95 -65.25 40.85 -65.25 50.9 -65.25 50.9 -55.45 50.9 -54.3 50.0 -51.3 49.2 -48.45 48.8 -47.9 L45.9 -44.15 44.0 -43.1 Q40.35 -41.25 40.35 -41.05 40.35 -40.55 41.0 -40.2 L42.55 -39.1 43.25 -37.65 43.55 -37.25 43.65 -37.15 43.65 -36.9 43.75 -35.85 43.2 -33.9 Q43.3 -33.75 43.55 -33.75 L44.15 -33.8 Q44.3 -33.5 44.75 -33.5 L46.25 -33.85 49.85 -32.95 50.6 -32.1 51.0 -31.2 51.7 -27.75 Q51.7 -26.5 50.95 -23.95 L50.2 -21.2 50.2 -21.05 49.8 -20.3 Q49.8 -19.65 50.35 -19.5 L50.65 -19.1 50.25 -18.8 Q49.7 -18.25 49.7 -17.75 49.7 -17.2 50.0 -17.05 50.8 -16.6 51.55 -16.75 L53.35 -16.65 Q54.75 -16.1 55.35 -15.25 L56.2 -11.9 Q56.2 -10.05 54.55 -7.5 L53.0 -5.25 51.6 -3.95 51.15 -3.3 51.1 -3.1 51.1 -2.95 51.25 -2.55 47.45 0.3 -48.15 0.3" fill="#ffffff" fill-opacity="0.08235294" fill-rule="evenodd" stroke="none"/>
  </g>
</svg>
