<?xml version="1.0" encoding="UTF-8" standalone="no"?>
<svg xmlns:ffdec="https://www.free-decompiler.com/flash" xmlns:xlink="http://www.w3.org/1999/xlink" ffdec:objectType="shape" height="246.4px" width="130.65px" xmlns="http://www.w3.org/2000/svg">
  <g transform="matrix(1.0, 0.0, 0.0, 1.0, 65.55, 301.4)">
    <path d="M14.65 -191.75 L14.65 -191.3 14.4 -190.8 -3.05 -202.6 Q-20.7 -214.2 -30.65 -223.1 -54.6 -244.55 -61.2 -272.1 -57.2 -261.55 -50.7 -252.75 -47.15 -247.85 -41.1 -241.8 L-37.4 -238.25 Q-29.4 -229.65 -19.15 -221.6 -6.85 -211.95 15.6 -198.15 39.4 -183.45 46.8 -177.95 43.5 -180.25 38.3 -182.6 L28.85 -186.75 33.0 -181.65 23.75 -186.55 Q17.4 -189.8 14.65 -191.75" fill="#ffffff" fill-opacity="0.7058824" fill-rule="evenodd" stroke="none"/>
    <path d="M-61.9 -90.8 L-61.6 -90.25 -61.9 -91.25 -61.9 -90.8 M33.9 -250.45 Q46.55 -261.65 53.1 -273.15 57.5 -280.9 65.1 -301.4 61.6 -281.9 51.6 -266.7 37.7 -245.5 11.85 -219.75 L-14.6 -193.1 Q-30.45 -176.45 -39.85 -162.9 -46.5 -153.35 -49.15 -148.8 -53.4 -141.45 -55.0 -135.3 L-59.65 -119.5 Q-61.9 -111.85 -61.9 -106.4 L-61.45 -102.85 -61.45 -99.55 -61.3 -94.15 -59.7 -89.85 -58.35 -84.85 Q-57.85 -82.9 -56.75 -80.65 L-57.95 -82.55 -59.25 -85.0 -60.45 -87.5 -59.5 -84.9 -58.55 -82.25 -56.9 -80.7 -51.7 -75.9 Q-44.2 -69.15 -41.0 -66.75 -40.6 -66.1 -39.95 -65.75 L-40.2 -65.15 -40.15 -65.15 -36.4 -63.8 -35.2 -63.2 -35.25 -63.45 -34.3 -63.15 Q-27.65 -61.05 -21.05 -59.6 L-7.95 -57.2 Q-0.5 -55.9 0.9 -55.0 L-7.3 -55.0 -23.85 -57.6 Q-33.8 -59.15 -40.35 -62.35 -42.55 -63.4 -47.6 -68.15 L-47.25 -68.75 -47.7 -68.25 -52.65 -73.1 -56.9 -77.5 -52.85 -65.3 Q-61.35 -74.4 -64.0 -85.6 -65.55 -92.15 -65.55 -105.05 -65.55 -134.65 -53.8 -156.8 -43.85 -175.5 -16.0 -204.6 -6.4 -214.6 6.4 -226.15 L33.9 -250.45" fill="#ffffff" fill-opacity="0.7058824" fill-rule="evenodd" stroke="none"/>
  </g>
</svg>
