<?xml version="1.0" encoding="UTF-8" standalone="no"?>
<svg xmlns:ffdec="https://www.free-decompiler.com/flash" xmlns:xlink="http://www.w3.org/1999/xlink" ffdec:objectType="shape" height="602.7px" width="139.0px" xmlns="http://www.w3.org/2000/svg">
  <g transform="matrix(1.0, 0.0, 0.0, 1.0, 64.95, 587.45)">
    <path d="M63.7 -163.15 Q67.65 -156.4 67.65 -144.9 67.65 -137.45 67.15 -131.1 L66.15 -130.95 Q63.25 -147.6 48.45 -163.15 33.45 -178.95 -3.75 -201.4 -39.05 -222.65 -53.3 -246.05 -64.65 -264.75 -64.9 -289.8 L-64.0 -289.85 Q-63.65 -276.9 -59.85 -266.85 -49.85 -240.4 -6.5 -210.7 6.7 -201.65 24.65 -192.85 40.45 -185.1 47.4 -179.55 59.75 -169.85 63.7 -163.15" fill="#ffffff" fill-opacity="0.7058824" fill-rule="evenodd" stroke="none"/>
    <path d="M63.1 -296.75 L63.75 -296.6 Q63.75 -279.15 44.1 -255.1 36.65 -245.95 24.0 -232.9 L0.9 -209.5 Q-28.75 -179.25 -42.3 -158.3 -61.95 -128.0 -61.95 -99.9 -61.95 -78.8 -43.0 -69.95 -35.4 -66.4 -23.2 -63.95 L0.0 -60.25 Q31.75 -55.6 46.15 -48.45 67.8 -37.7 74.05 -14.75 L73.5 -14.55 Q71.45 -22.2 63.1 -31.1 55.1 -39.55 46.7 -43.65 40.6 -46.6 12.8 -48.65 L-18.75 -51.0 Q-48.8 -56.85 -58.05 -70.15 -62.3 -76.25 -63.8 -85.55 -64.95 -92.55 -64.95 -105.6 -64.95 -117.85 -64.1 -124.8 -62.85 -134.75 -59.15 -143.9 -50.75 -164.75 -23.0 -194.85 -11.25 -207.6 7.95 -226.0 29.35 -246.5 35.45 -252.85 48.85 -266.8 55.4 -277.55 61.35 -287.35 63.1 -296.75" fill="#ffffff" fill-opacity="0.7058824" fill-rule="evenodd" stroke="none"/>
    <path d="M10.0 -478.1 L10.0 -455.0 -31.2 -455.0 -31.1 -473.4 -31.1 -477.5 -31.05 -481.95 -31.0 -481.95 -31.0 -478.1 -26.5 -478.1 -26.5 -474.6 -26.35 -477.5 -26.15 -481.95 -26.1 -481.95 -26.1 -478.1 10.0 -478.1 M-34.4 -478.1 L-34.4 -455.0 -58.9 -455.0 -58.9 -455.25 -58.9 -463.85 -58.95 -469.7 -58.95 -473.4 -58.95 -477.5 -58.95 -481.95 -58.9 -481.95 -58.9 -478.1 -34.4 -478.1" fill="#ffffff" fill-opacity="0.49803922" fill-rule="evenodd" stroke="none"/>
    <path d="M10.0 -455.0 L10.0 -261.25 8.5 -246.2 Q7.85 -239.65 7.1 -235.35 6.0 -240.85 3.7 -249.3 L3.55 -251.75 Q3.15 -256.05 1.5 -264.65 L-0.1 -270.2 Q-1.65 -275.15 -3.45 -278.7 -8.9 -289.6 -16.25 -286.85 -24.75 -283.65 -26.4 -275.95 L-26.85 -272.9 -27.4 -272.75 -27.4 -268.4 -27.25 -268.4 -27.05 -268.9 -27.25 -265.05 Q-27.65 -263.35 -27.65 -261.95 L-27.65 -261.8 -29.85 -249.65 -31.15 -241.45 -32.85 -248.55 -32.9 -252.55 Q-32.9 -261.35 -31.95 -265.85 L-31.95 -290.1 -31.1 -291.2 Q-31.25 -296.75 -31.0 -306.55 L-31.0 -310.75 -31.1 -313.6 -31.1 -320.45 -31.0 -355.25 Q-30.85 -379.6 -31.25 -441.2 L-31.2 -455.0 10.0 -455.0 M-27.95 -264.3 Q-28.35 -264.0 -28.35 -262.45 -27.85 -262.85 -27.65 -263.6 -27.55 -264.3 -27.95 -264.55 L-27.95 -264.3" fill="#ffffff" fill-opacity="0.49803922" fill-rule="evenodd" stroke="none"/>
    <path d="M-34.4 -455.0 L-34.4 -409.8 -35.3 -394.75 Q-36.3 -379.05 -37.4 -376.2 L-39.3 -397.0 Q-41.75 -422.1 -43.45 -430.15 -46.1 -433.9 -48.3 -434.15 L-48.8 -436.75 -49.75 -433.9 Q-52.0 -432.9 -53.7 -427.75 -55.6 -422.1 -57.05 -408.9 L-58.1 -394.0 -58.85 -384.3 -59.4 -384.5 Q-60.0 -389.75 -60.0 -401.1 -60.0 -409.9 -59.45 -414.4 L-59.45 -438.65 -58.95 -439.75 -58.9 -455.0 -34.4 -455.0 M-56.2 -421.55 L-56.75 -421.3 -56.75 -416.95 -56.65 -416.95 -55.75 -421.45 -56.2 -421.55 M-57.05 -412.85 L-57.3 -411.0 Q-57.0 -411.4 -56.9 -412.15 -56.8 -412.85 -57.05 -413.1 L-57.05 -412.85" fill="#ffffff" fill-opacity="0.49803922" fill-rule="evenodd" stroke="none"/>
    <path d="M58.4 -478.1 L58.4 -358.0 57.3 -342.95 56.25 -332.1 Q55.15 -339.75 52.25 -353.15 L49.8 -364.25 48.2 -373.8 Q47.25 -374.35 45.5 -376.4 L43.25 -379.15 Q37.1 -379.15 35.85 -377.9 L35.2 -377.1 35.0 -376.9 34.55 -375.95 Q33.15 -372.55 31.9 -366.35 30.6 -361.75 30.6 -358.65 L29.0 -346.4 Q27.65 -335.8 27.6 -332.6 L27.5 -332.7 Q26.75 -337.95 26.75 -349.3 26.75 -358.1 27.45 -362.6 L27.45 -386.85 Q27.5 -387.35 28.05 -387.95 27.95 -393.5 28.15 -403.3 L28.15 -407.5 28.05 -410.35 Q28.0 -416.05 28.1 -419.45 L28.15 -425.2 28.05 -455.0 27.95 -473.4 27.95 -475.75 27.95 -477.5 27.95 -481.95 28.0 -485.1 28.0 -478.1 58.4 -478.1 M31.45 -369.75 L30.8 -369.5 30.8 -365.15 30.9 -365.15 32.0 -369.65 31.45 -369.75 M30.4 -361.3 L30.4 -361.05 Q30.1 -360.75 30.1 -359.2 30.45 -359.6 30.6 -360.35 30.7 -361.05 30.4 -361.3" fill="url(#gradient0)" fill-rule="evenodd" stroke="none"/>
    <path d="M28.0 -485.1 L28.0 -488.0 28.0 -491.95 28.3 -587.45 58.4 -587.45 58.4 -571.15 58.4 -478.1 28.0 -478.1 28.0 -485.1 M31.45 -571.15 L31.45 -519.65 31.75 -534.45 31.75 -571.15 31.45 -571.15 M-31.0 -481.95 L-30.75 -587.45 10.0 -587.45 10.0 -540.15 10.0 -478.1 -26.1 -478.1 -26.1 -481.95 -26.1 -540.15 -26.5 -540.15 -26.5 -478.1 -31.0 -478.1 -31.0 -481.95 M-58.9 -481.95 L-58.9 -492.2 Q-58.8 -511.6 -59.05 -561.2 L-58.9 -587.45 -56.2 -587.45 -56.2 -580.05 -55.95 -583.2 -55.95 -587.45 -34.4 -587.45 -34.4 -478.1 -58.9 -478.1 -58.9 -481.95" fill="url(#gradient1)" fill-rule="evenodd" stroke="none"/>
    <path d="M27.55 -307.75 Q27.55 -312.4 29.0 -315.1 30.35 -312.65 30.3 -307.9 L30.25 -300.0 30.25 -284.05 30.1 -255.55 37.5 -255.75 Q39.45 -250.7 40.2 -243.45 L41.25 -231.1 42.55 -219.1 Q43.25 -211.75 43.25 -206.9 43.25 -204.8 42.85 -204.15 42.5 -203.6 41.2 -203.3 35.6 -202.0 30.75 -199.25 L30.75 -175.6 29.25 -155.35 29.25 -131.35 Q28.75 -128.35 28.75 -121.8 L28.8 -113.0 31.75 -113.0 39.0 -114.25 Q42.25 -112.55 42.25 -105.6 L42.35 -102.5 Q42.3 -101.5 41.4 -100.8 L28.3 -93.85 Q29.4 -93.4 29.65 -92.75 L29.75 -91.8 Q29.75 -91.0 28.75 -87.3 L27.75 -83.35 Q27.75 -78.1 27.25 -75.5 L27.05 -74.85 Q29.9 -74.85 32.15 -75.8 34.4 -76.75 39.25 -76.75 44.95 -76.75 45.75 -71.45 45.65 -65.05 46.25 -62.75 L46.25 -56.35 45.0 -55.75 Q44.25 -56.6 43.9 -59.75 L43.4 -65.9 Q42.55 -74.0 39.0 -74.0 L31.4 -73.5 Q30.05 -72.75 28.5 -72.25 L25.5 -72.25 Q24.85 -72.9 24.5 -73.7 L24.25 -74.55 Q24.25 -76.15 25.4 -82.85 26.6 -89.75 27.25 -91.5 25.8 -92.45 24.4 -93.05 L23.75 -93.65 Q23.75 -95.25 27.3 -96.95 L35.25 -100.25 Q38.45 -101.6 39.35 -103.4 39.75 -104.2 39.75 -106.3 L39.75 -109.1 Q39.55 -111.6 38.55 -111.6 L30.25 -110.25 Q26.9 -110.25 26.25 -115.85 25.9 -118.7 26.25 -121.5 26.25 -128.6 26.75 -132.0 L26.75 -156.0 28.25 -176.6 28.25 -201.0 Q28.7 -201.35 35.2 -203.8 40.75 -205.9 40.75 -207.35 40.75 -210.6 39.1 -228.2 37.35 -247.15 36.25 -253.1 L30.05 -253.2 30.05 -253.1 29.0 -252.75 Q27.55 -254.2 27.55 -256.5 L27.75 -260.5 Q27.65 -262.05 27.7 -264.4 L27.75 -268.35 27.75 -284.1 27.7 -290.45 Q27.65 -296.6 27.75 -299.85 L27.55 -307.75 M2.75 -324.6 L2.75 -302.5 3.45 -292.8 3.75 -286.15 Q2.25 -246.6 2.25 -234.8 2.25 -221.85 2.75 -215.5 L2.75 -179.85 3.25 -176.1 3.25 -90.25 4.05 -87.85 Q4.7 -86.1 5.75 -85.0 12.65 -85.15 14.8 -83.4 15.75 -82.65 15.75 -81.15 L14.75 -77.65 Q13.75 -74.6 13.75 -72.9 L14.75 -51.55 14.25 -48.9 Q13.75 -46.9 13.75 -46.3 13.75 -45.6 13.9 -45.45 L14.05 -45.0 18.55 -45.0 Q19.1 -45.0 21.85 -45.75 L25.5 -46.75 31.5 -46.75 Q33.8 -44.55 35.0 -36.15 35.75 -30.75 35.75 -27.0 35.75 -24.7 30.65 -21.3 L25.55 -17.65 26.75 -12.8 Q27.5 -9.7 25.75 -8.1 L25.75 11.3 26.35 12.25 Q26.75 12.85 26.75 13.6 L26.65 14.5 26.5 15.0 25.25 15.25 23.8 15.0 Q23.65 12.9 23.25 12.3 L23.25 -9.0 Q24.05 -11.55 23.5 -13.85 22.75 -17.1 22.75 -17.6 22.75 -19.5 28.0 -22.5 33.25 -25.5 33.25 -27.15 33.25 -28.95 32.3 -36.15 L31.05 -44.1 Q24.55 -44.2 21.8 -43.25 19.0 -42.25 16.25 -42.25 11.25 -42.25 11.25 -46.35 L11.75 -48.7 12.25 -51.05 11.25 -73.0 Q11.25 -75.9 11.4 -76.5 11.55 -77.3 13.05 -80.85 11.1 -82.45 7.65 -82.45 4.5 -82.45 2.55 -84.75 2.05 -85.35 1.5 -87.15 L0.75 -89.6 0.75 -175.5 0.25 -179.25 0.25 -214.85 Q-0.25 -221.6 -0.25 -234.9 L-0.15 -245.15 Q0.0 -255.5 0.25 -261.0 L1.25 -286.3 0.95 -292.55 0.25 -301.85 0.25 -324.0 Q-0.25 -325.05 -0.25 -327.0 -0.25 -331.05 1.2 -328.95 2.6 -326.9 2.75 -324.6 M-43.25 -317.55 Q-43.25 -321.15 -41.8 -319.0 -40.35 -316.9 -40.25 -314.85 L-39.75 -311.45 -39.25 -308.1 -39.25 -285.25 -38.55 -274.25 -38.25 -266.85 Q-38.25 -260.15 -39.25 -245.85 -40.25 -231.55 -40.25 -225.05 L-40.1 -218.35 Q-37.9 -218.8 -33.5 -220.25 L-30.5 -220.25 Q-29.2 -219.95 -28.85 -217.05 L-28.75 -212.85 Q-28.75 -207.0 -30.5 -205.85 -31.45 -205.25 -41.55 -203.3 L-52.6 -201.1 Q-50.75 -193.55 -50.75 -186.5 -50.75 -177.6 -52.0 -169.85 -53.25 -162.05 -53.25 -149.75 -52.75 -141.1 -52.75 -137.0 L-45.75 -139.55 -40.0 -141.75 -37.5 -141.75 Q-36.45 -140.7 -34.6 -134.35 -32.75 -127.95 -32.75 -125.35 -32.75 -122.45 -37.65 -117.55 -42.6 -113.05 -42.6 -112.6 -42.6 -111.35 -41.55 -108.2 -40.4 -104.9 -40.25 -101.75 L-39.8 -96.45 -39.35 -90.85 -38.25 -69.3 Q-38.25 -67.95 -45.0 -63.5 -51.75 -59.0 -51.75 -55.5 -51.75 -53.65 -51.0 -49.85 -50.25 -46.05 -50.25 -44.4 -50.25 -41.85 -51.8 -40.45 L-56.35 -36.85 Q-57.3 -35.95 -58.2 -33.25 -59.05 -30.7 -60.5 -29.75 -61.25 -30.0 -61.4 -30.15 -61.75 -30.45 -61.75 -31.3 -61.75 -35.05 -57.25 -39.55 -52.75 -44.05 -52.75 -44.8 -52.75 -46.3 -53.5 -50.45 L-54.25 -55.5 Q-54.25 -59.6 -47.55 -64.5 L-40.85 -69.35 Q-40.85 -80.05 -42.25 -91.1 -42.6 -94.4 -42.75 -102.0 -42.9 -104.5 -44.1 -107.9 -45.25 -111.1 -45.25 -112.85 -45.25 -113.55 -40.25 -118.5 -35.25 -123.45 -35.25 -125.3 -35.25 -126.65 -36.75 -132.65 -38.35 -139.0 -39.05 -139.0 -40.9 -139.0 -46.8 -136.7 -52.9 -134.35 -54.0 -134.25 -55.25 -137.7 -55.6 -142.25 L-55.75 -149.65 Q-55.75 -163.25 -54.5 -170.6 -53.25 -177.9 -53.25 -186.6 -53.25 -190.95 -54.5 -196.25 L-55.75 -201.4 Q-55.75 -202.9 -52.55 -203.9 -49.3 -204.95 -39.35 -206.5 -32.45 -207.5 -31.75 -208.1 -31.25 -208.5 -31.25 -212.65 L-31.35 -217.35 -31.1 -217.45 Q-30.95 -217.6 -31.75 -217.6 -35.55 -217.6 -38.4 -216.15 L-41.25 -214.75 -42.6 -215.0 -42.75 -224.15 Q-42.75 -231.55 -41.75 -245.8 -40.75 -260.05 -40.75 -266.9 L-41.05 -274.0 -41.75 -284.35 -41.75 -307.6 Q-43.25 -312.25 -43.25 -317.55 M-24.25 -316.75 Q-24.25 -319.15 -22.8 -318.7 -21.35 -318.25 -21.25 -315.1 L-21.25 -227.0 -20.75 -223.6 -20.75 -131.0 -21.2 -119.85 -21.25 -112.25 -21.2 -103.6 Q-21.1 -98.3 -20.5 -95.25 L-16.9 -97.05 Q-14.05 -98.35 -11.0 -98.75 -10.05 -97.7 -9.85 -95.3 L-9.75 -91.75 Q-9.75 -84.45 -11.05 -82.6 L-13.35 -79.65 Q-15.25 -77.05 -17.25 -73.0 -5.35 -70.6 -3.75 -63.8 -3.3 -61.9 -3.5 -57.9 -3.7 -54.0 -3.25 -52.25 -2.7 -50.05 -2.9 -46.65 L-3.25 -41.0 Q-3.25 -38.7 -2.5 -35.1 -1.75 -31.5 -1.75 -29.9 L-1.85 -28.6 -2.05 -28.4 -3.0 -28.25 Q-5.2 -28.25 -5.55 -37.45 L-5.75 -51.35 Q-5.8 -53.05 -6.5 -57.15 L-7.25 -63.0 Q-7.4 -67.2 -13.6 -68.9 -16.95 -69.8 -17.85 -70.25 -19.75 -71.25 -19.75 -73.1 -19.75 -75.8 -16.55 -79.65 -12.95 -84.05 -12.25 -86.6 L-12.25 -96.0 Q-14.35 -96.05 -17.3 -94.15 -20.3 -92.25 -21.5 -92.25 -23.35 -92.25 -23.6 -93.15 L-23.75 -95.1 -23.75 -129.6 Q-23.25 -145.35 -23.25 -177.4 L-23.3 -196.3 Q-23.45 -216.25 -23.75 -226.35 L-23.75 -314.5 Q-24.25 -315.55 -24.25 -316.75" fill="#ffffff" fill-opacity="0.49803922" fill-rule="evenodd" stroke="none"/>
  </g>
  <defs>
    <linearGradient gradientTransform="matrix(0.0, 0.0186, -0.0218, 0.0, 43.25, -504.7)" gradientUnits="userSpaceOnUse" id="gradient0" spreadMethod="pad" x1="-819.2" x2="819.2">
      <stop offset="0.0" stop-color="#ffffff" stop-opacity="0.0"/>
      <stop offset="1.0" stop-color="#ffffff" stop-opacity="0.49803922"/>
    </linearGradient>
    <linearGradient gradientTransform="matrix(0.0, 0.0608, -0.0218, 0.0, 42.15, -526.75)" gradientUnits="userSpaceOnUse" id="gradient1" spreadMethod="pad" x1="-819.2" x2="819.2">
      <stop offset="0.0" stop-color="#ffffff" stop-opacity="0.0"/>
      <stop offset="1.0" stop-color="#ffffff" stop-opacity="0.49803922"/>
    </linearGradient>
  </defs>
</svg>
