<?xml version="1.0" encoding="UTF-8" standalone="no"?>
<svg xmlns:ffdec="https://www.free-decompiler.com/flash" xmlns:xlink="http://www.w3.org/1999/xlink" ffdec:objectType="shape" height="630.7px" width="167.5px" xmlns="http://www.w3.org/2000/svg">
  <g transform="matrix(1.0, 0.0, 0.0, 1.0, 83.25, 587.45)">
    <path d="M57.3 -26.05 Q53.4 -28.8 48.15 -30.9 20.5 -39.45 -2.6 -38.7 L-0.4 -38.95 -6.55 -38.85 -7.2 -38.95 -7.15 -38.85 Q-34.65 -38.0 -54.55 -30.1 -64.25 -26.25 -69.65 -21.7 L-69.8 -19.65 Q-69.8 2.8 -52.55 16.85 L-48.95 19.55 -49.35 20.05 -43.95 22.65 Q-36.0 26.2 -27.35 28.6 -16.2 31.7 -8.25 31.7 5.55 31.7 20.95 27.45 30.15 24.95 45.75 18.85 58.85 13.75 64.95 2.45 69.8 -6.5 69.8 -18.3 L69.4 -21.65 70.1 -22.05 69.2 -23.4 Q66.75 -26.85 62.85 -30.65 53.55 -39.7 46.95 -41.75 36.35 -45.05 25.7 -47.3 13.1 -49.95 2.8 -50.55 -18.0 -51.75 -32.1 -55.65 L-36.05 -53.75 Q-64.0 -39.75 -68.8 -25.55 -60.05 -35.6 -38.9 -40.3 -20.85 -44.3 -2.8 -43.75 L-3.15 -43.75 -2.8 -43.7 Q-2.8 -42.5 -2.6 -43.35 -2.55 -43.6 -2.8 -43.7 L-2.8 -43.75 Q16.1 -43.7 35.25 -37.6 55.4 -31.2 64.45 -21.5 L64.2 -21.3 57.3 -26.05 M41.95 -92.65 L50.7 -96.9 48.35 -95.2 Q42.75 -91.3 30.8 -85.2 15.8 -77.6 10.0 -74.2 6.05 -71.9 -9.4 -65.55 L-16.65 -62.5 Q-7.95 -60.65 2.8 -58.95 22.45 -55.85 33.35 -52.05 39.55 -49.85 50.95 -45.3 59.55 -42.55 66.45 -34.55 74.85 -24.8 73.4 -13.6 L73.45 -12.45 Q73.45 -5.55 68.75 2.5 63.75 11.0 54.95 18.05 L54.15 18.7 52.25 20.1 Q31.45 35.3 1.4 35.3 -31.6 35.3 -54.15 22.45 -63.1 17.35 -68.45 11.3 -76.6 2.2 -76.6 -9.05 -76.6 -13.7 -73.45 -17.85 L-73.4 -17.9 -73.45 -17.9 Q-71.85 -30.55 -63.8 -40.4 -55.7 -50.35 -40.55 -58.5 -43.25 -59.6 -45.65 -60.85 -67.0 -72.05 -67.0 -97.1 -67.0 -111.7 -60.8 -127.15 -55.2 -141.2 -43.9 -157.4 L-43.7 -157.3 Q-50.05 -147.9 -55.55 -131.2 -61.35 -113.55 -61.35 -101.5 -61.35 -98.2 -60.55 -93.1 L-59.45 -85.75 -59.1 -85.15 Q-54.3 -77.05 -44.95 -71.8 -38.35 -68.1 -26.75 -64.95 L-20.45 -67.4 Q-0.65 -74.7 14.9 -82.85 L15.0 -82.85 Q21.55 -82.85 41.95 -92.65 M-75.0 -8.65 Q-75.0 -3.8 -72.45 0.85 -73.85 -4.9 -73.85 -11.45 -73.85 -14.7 -73.45 -17.75 -75.0 -13.55 -75.0 -8.65" fill="#ffffff" fill-opacity="0.7058824" fill-rule="evenodd" stroke="none"/>
    <path d="M58.4 -478.1 L58.4 -274.95 31.75 -274.95 31.75 -478.1 58.4 -478.1 M28.15 -274.95 L28.2 -334.95 28.25 -478.1 31.45 -478.1 31.5 -334.95 31.5 -274.95 28.15 -274.95 M10.0 -478.1 L10.0 -334.95 10.0 -274.95 10.0 -271.35 10.0 22.45 Q-11.4 34.8 -31.05 22.45 L-31.0 4.55 Q-30.85 -19.8 -31.25 -81.4 L-31.15 -102.5 -30.85 -274.95 -30.8 -334.95 -30.8 -478.1 -26.5 -478.1 -26.5 -487.95 -26.1 -487.95 -26.1 -478.1 10.0 -478.1 M-34.4 -478.1 L-34.4 -274.95 -58.95 -274.95 -59.05 -334.95 -59.05 -355.15 -59.0 -487.95 -58.9 -487.95 -58.9 -481.95 -58.9 -478.1 -34.4 -478.1 M-26.5 -271.35 L-26.4 -146.8 -26.1 -167.65 -26.1 -271.35 -26.5 -271.35" fill="#ffffff" fill-opacity="0.49803922" fill-rule="evenodd" stroke="none"/>
    <path d="M58.4 -274.95 L58.4 12.65 Q42.95 27.4 27.45 12.65 L27.45 8.95 Q27.5 7.35 28.05 5.45 27.95 -12.25 28.15 -43.3 L28.15 -43.5 28.15 -47.7 28.05 -50.55 Q28.0 -56.25 28.1 -59.65 L28.15 -65.4 28.0 -102.5 27.95 -131.7 28.15 -274.95 31.5 -274.95 31.55 -254.3 31.75 -264.05 31.75 -274.95 58.4 -274.95" fill="#ffffff" fill-opacity="0.49803922" fill-rule="evenodd" stroke="none"/>
    <path d="M-34.4 -274.95 L-34.4 -3.65 Q-47.55 8.65 -58.95 -3.65 L-58.95 -87.85 -58.9 -95.3 -58.9 -99.5 -58.95 -102.35 -58.95 -102.5 -58.9 -208.8 -58.95 -274.95 -34.4 -274.95" fill="#ffffff" fill-opacity="0.49803922" fill-rule="evenodd" stroke="none"/>
    <path d="M28.25 -478.1 L28.0 -478.1 28.0 -485.1 28.0 -488.0 28.0 -491.95 28.3 -587.45 58.4 -587.45 58.4 -571.15 58.4 -478.1 31.75 -478.1 31.45 -478.1 28.25 -478.1 M31.45 -571.15 L31.45 -519.65 31.75 -534.45 31.75 -571.15 31.45 -571.15 M-30.8 -478.1 L-31.0 -478.1 -31.0 -481.95 -30.75 -587.45 10.0 -587.45 10.0 -540.15 10.0 -478.1 -26.1 -478.1 -26.1 -487.95 -26.1 -540.15 -26.5 -540.15 -26.5 -487.95 -26.5 -478.1 -30.8 -478.1 M-58.9 -487.95 L-58.9 -492.2 Q-58.8 -511.6 -59.05 -561.2 L-58.9 -587.45 -56.2 -587.45 -56.2 -580.05 -55.95 -583.2 -55.95 -587.45 -34.4 -587.45 -34.4 -478.1 -58.9 -478.1 -58.9 -481.95 -58.9 -487.95" fill="url(#gradient0)" fill-rule="evenodd" stroke="none"/>
    <path d="M38.55 -41.75 Q38.1 -40.85 37.55 -35.65 37.15 -31.75 35.5 -31.75 34.8 -31.75 34.15 -32.45 L32.7 -33.95 Q29.85 -36.1 22.5 -35.75 16.45 -39.35 13.55 -43.5 L12.55 -35.6 Q12.25 -35.25 11.0 -35.25 9.35 -35.25 6.4 -37.9 3.2 -40.75 2.25 -41.0 L-3.5 -41.7 Q-6.35 -42.2 -7.85 -45.1 -9.0 -44.45 -9.45 -41.8 -9.85 -39.1 -11.5 -38.25 L-15.1 -38.3 -19.25 -38.5 -23.85 -38.5 Q-24.25 -38.25 -24.3 -37.65 L-24.35 -36.25 -24.5 -36.0 Q-24.75 -35.75 -25.5 -35.75 L-28.1 -37.15 Q-30.75 -38.7 -32.0 -39.6 L-34.75 -39.5 -35.6 -36.25 Q-36.25 -34.5 -39.75 -34.0 -41.7 -33.7 -44.6 -32.45 -47.85 -31.1 -48.85 -29.85 -49.9 -28.5 -56.7 -25.75 -63.6 -23.0 -65.0 -21.35 L-68.1 -18.9 -71.6 -16.1 Q-72.25 -15.45 -72.9 -13.3 -73.35 -11.75 -75.35 -11.0 -77.05 -10.4 -77.15 -8.65 -77.0 -6.55 -77.25 -5.6 L-79.15 -3.0 Q-80.5 -0.95 -80.5 -0.25 -80.5 0.4 -79.85 0.7 -79.25 1.0 -79.25 1.6 -79.25 2.1 -80.0 5.1 L-80.75 8.25 -80.15 8.35 -78.75 8.25 Q-77.1 8.25 -76.0 12.0 -74.7 16.3 -73.85 17.0 -69.0 15.0 -65.65 20.45 L-63.15 24.5 Q-61.75 26.5 -60.3 26.5 -58.6 26.5 -56.35 24.15 -54.15 21.75 -52.75 21.75 -50.3 21.75 -50.1 25.45 -49.95 27.45 -50.25 31.0 L-49.6 31.55 Q-48.25 31.05 -46.35 28.7 -44.75 26.75 -43.25 26.75 -41.65 26.75 -40.8 29.9 -39.75 33.9 -39.25 34.5 L-33.6 35.05 Q-33.7 35.75 -33.1 36.05 -25.95 35.15 -25.25 33.8 -24.75 32.75 -21.5 32.75 -17.0 32.75 -14.05 35.1 -12.5 36.3 -11.75 37.8 -10.05 41.05 -7.3 39.9 -3.4 38.25 -2.0 38.75 L-0.4 39.75 Q1.2 40.5 5.25 40.5 11.3 40.5 11.3 38.8 L10.8 36.2 Q10.25 34.25 10.25 33.6 10.25 30.25 13.0 30.25 14.1 30.25 15.55 31.6 L17.5 33.25 21.65 34.05 Q25.5 34.8 27.05 35.5 L31.55 35.5 Q32.1 31.25 32.6 29.2 33.5 25.75 36.0 23.25 L36.75 24.7 Q37.5 26.25 38.5 27.35 41.9 31.0 48.85 31.0 55.9 31.0 56.55 25.05 L56.8 20.15 Q57.1 17.45 58.5 16.25 L61.25 16.4 66.75 16.5 Q67.3 14.6 70.8 12.55 L76.3 9.3 78.45 5.05 Q80.3 1.1 80.3 0.55 L80.4 -3.05 80.25 -8.0 Q80.1 -9.05 77.25 -11.6 74.0 -14.5 73.25 -15.85 72.45 -17.3 69.75 -19.5 67.0 -21.7 66.05 -23.5 L64.25 -27.7 Q62.85 -30.35 60.3 -31.6 60.6 -30.8 59.5 -28.15 58.25 -25.25 56.75 -25.25 L53.25 -27.55 Q48.8 -30.25 43.5 -32.25 40.3 -33.45 39.5 -36.6 39.05 -38.35 38.75 -41.5 L38.55 -41.75 M38.75 -45.25 Q40.75 -45.25 41.7 -41.05 42.9 -35.85 43.05 -35.6 43.5 -35.0 46.75 -33.75 50.2 -32.5 51.25 -31.5 L53.35 -29.9 Q54.85 -28.95 56.05 -28.5 56.4 -28.65 57.45 -31.85 58.4 -34.75 60.25 -34.75 62.2 -34.75 64.95 -31.0 67.0 -28.25 67.75 -26.35 68.45 -24.7 71.2 -22.3 L74.75 -18.75 77.05 -14.55 Q78.7 -12.4 82.5 -11.1 82.75 -8.5 82.25 -2.65 82.25 -1.85 83.25 -0.05 84.25 1.75 84.25 2.35 L83.2 3.05 Q82.05 3.65 81.5 4.75 81.1 5.5 80.75 7.0 79.55 10.6 77.8 11.8 L72.0 15.05 Q70.5 15.85 69.7 17.55 69.0 19.0 68.0 19.25 L61.4 19.15 59.25 19.0 Q59.15 27.6 56.95 30.75 54.8 33.75 49.0 33.75 43.9 33.75 39.55 31.1 L36.05 28.3 Q35.35 29.2 34.65 33.15 33.95 36.85 32.5 38.25 L27.0 38.25 18.35 35.45 Q14.3 34.05 13.05 32.8 L12.8 32.95 12.75 33.85 14.25 38.85 Q14.25 40.4 12.0 41.75 9.4 43.25 5.25 43.25 2.1 43.25 -0.15 42.2 -2.15 41.3 -4.85 41.5 -10.35 42.0 -11.85 41.45 L-13.0 40.25 -14.9 38.1 Q-16.1 37.0 -19.25 35.5 L-23.35 35.5 -24.65 36.75 Q-25.9 37.55 -29.0 38.75 L-34.0 38.75 -35.85 37.3 Q-42.2 36.6 -43.0 34.3 -42.9 31.55 -43.75 30.3 L-43.85 30.05 -45.25 32.6 Q-45.85 33.7 -48.0 34.25 L-50.0 34.25 Q-52.75 32.4 -53.1 29.8 -53.05 26.8 -53.25 25.3 L-53.35 25.0 Q-54.2 26.75 -59.5 29.25 L-61.5 29.25 Q-62.3 28.25 -66.55 24.5 -69.55 21.85 -69.85 19.8 -74.9 22.05 -76.65 17.8 L-77.8 14.1 Q-78.5 11.95 -79.5 11.25 L-81.5 11.25 Q-82.8 10.8 -83.15 9.65 L-83.25 8.1 -82.65 5.2 Q-82.1 2.95 -82.1 2.3 -82.1 1.65 -82.65 1.1 -83.25 0.5 -83.25 -0.1 -83.25 -6.3 -75.9 -14.5 -68.05 -21.95 -67.1 -23.1 -65.25 -25.4 -58.5 -28.1 -51.85 -30.7 -50.0 -33.25 -48.7 -34.8 -38.75 -37.0 -38.3 -37.4 -37.25 -39.65 -36.35 -41.55 -35.0 -42.25 L-32.0 -42.25 Q-30.6 -41.8 -29.5 -40.7 -28.7 -40.0 -27.0 -40.0 -26.1 -40.0 -26.0 -40.4 L-25.65 -41.1 Q-24.0 -42.0 -12.75 -41.0 -12.55 -43.3 -10.25 -47.05 -7.6 -51.3 -6.25 -48.0 -5.25 -45.05 -2.85 -44.35 L2.75 -43.5 Q4.95 -43.0 7.2 -40.8 9.45 -38.55 10.25 -38.35 10.25 -40.4 10.85 -43.15 11.7 -47.25 13.25 -47.25 14.85 -47.25 16.5 -45.0 L18.5 -41.75 Q21.15 -38.0 22.25 -38.2 L23.6 -38.8 26.0 -39.25 Q28.35 -39.25 31.35 -37.9 L34.55 -36.25 35.35 -41.1 Q36.45 -45.25 38.75 -45.25" fill="#ffffff" fill-opacity="0.49803922" fill-rule="evenodd" stroke="none"/>
  </g>
  <defs>
    <linearGradient gradientTransform="matrix(0.0, 0.0608, -0.0218, 0.0, 42.15, -526.75)" gradientUnits="userSpaceOnUse" id="gradient0" spreadMethod="pad" x1="-819.2" x2="819.2">
      <stop offset="0.0" stop-color="#ffffff" stop-opacity="0.0"/>
      <stop offset="1.0" stop-color="#ffffff" stop-opacity="0.49803922"/>
    </linearGradient>
  </defs>
</svg>
