<?xml version="1.0" encoding="UTF-8" standalone="no"?>
<svg xmlns:ffdec="https://www.free-decompiler.com/flash" xmlns:xlink="http://www.w3.org/1999/xlink" ffdec:objectType="shape" height="601.4px" width="163.0px" xmlns="http://www.w3.org/2000/svg">
  <g transform="matrix(1.0, 0.0, 0.0, 1.0, 83.0, 311.85)">
    <path d="M50.45 151.55 L50.4 151.95 50.25 152.25 49.65 152.4 49.15 152.35 49.0 152.25 50.45 151.55 M-54.65 53.95 L-54.75 48.4 -54.7 47.45 -54.7 46.25 -53.05 46.35 -53.1 47.5 -53.1 48.25 -53.05 53.8 -54.65 53.95 M44.6 53.6 L44.65 53.05 44.7 53.9 44.6 53.6 M45.8 28.45 L45.7 35.7 45.55 35.5 45.6 33.9 45.8 28.45 M45.15 6.3 L45.15 8.15 44.9 7.05 44.95 6.4 45.15 6.3 M45.6 -32.85 L45.9 -37.85 45.9 -25.1 45.6 -21.75 45.6 -32.85 M-67.9 230.5 L-68.0 230.95 -67.95 230.45 -67.9 230.5" fill="#ffffff" fill-rule="evenodd" stroke="none"/>
    <path d="M65.85 253.25 L65.0 253.1 65.85 253.2 65.85 253.25" fill="#05afd0" fill-rule="evenodd" stroke="none"/>
    <path d="M51.65 -189.0 L62.65 -189.0 62.65 -186.8 62.65 83.55 Q63.5 86.2 63.5 95.5 L63.5 99.55 Q63.5 104.5 63.15 106.35 L62.9 121.0 62.35 150.55 Q62.35 204.35 71.2 223.95 71.75 225.2 77.25 234.3 80.0 238.85 80.0 244.75 80.0 251.5 75.95 258.6 71.3 266.8 62.35 273.25 39.6 289.55 -2.75 289.55 -23.05 289.55 -33.85 286.65 -38.3 285.45 -44.35 282.95 L-56.75 277.85 Q-68.55 273.15 -75.35 266.7 -83.0 259.35 -83.0 250.85 -83.0 243.6 -80.45 237.3 L-74.85 225.75 Q-66.75 208.35 -66.75 178.65 -66.75 171.55 -67.3 141.9 L-67.85 101.75 -67.95 -189.0 -57.75 -189.0 -57.6 -189.0 Q-58.0 -186.3 -58.0 -182.1 -58.0 -167.75 -55.0 -144.6 -52.4 -124.6 -52.05 -108.5 L-52.0 -103.5 -52.15 -96.75 -52.55 -61.25 -53.2 22.3 -53.25 25.0 -53.25 25.75 -53.65 28.45 -54.05 35.1 Q-54.4 37.75 -54.55 42.2 L-54.7 46.25 -54.7 47.45 -54.75 48.4 -54.65 53.95 -54.45 56.55 Q-54.2 58.05 -54.2 60.95 -54.05 63.25 -53.1 64.8 L-53.1 67.05 -53.35 71.6 -53.2 73.2 -53.75 74.35 -53.1 85.5 Q-53.1 90.45 -53.4 93.0 L-53.4 106.85 Q-53.75 108.95 -53.75 112.85 -53.75 116.95 -54.05 118.2 L-54.05 127.55 -54.75 129.3 -54.95 131.75 -55.25 131.85 -55.75 140.95 -55.95 143.15 -57.0 152.4 Q-57.6 157.9 -57.65 161.2 L-57.95 165.8 -58.8 166.15 -61.0 182.5 -60.9 183.3 Q-60.9 188.9 -61.25 194.45 L-61.3 198.65 Q-61.45 202.2 -61.95 204.05 L-62.15 204.1 Q-62.85 209.8 -63.95 215.4 L-64.0 215.45 -64.6 219.05 -64.85 220.65 -64.85 221.05 Q-64.85 225.1 -66.8 233.8 -68.55 241.45 -69.55 242.65 L-70.45 245.65 -71.75 253.65 -71.75 255.25 -70.35 254.75 Q-69.25 254.3 -69.05 254.1 L-68.7 257.35 Q-68.5 259.45 -67.8 260.6 L-66.45 259.45 -65.25 258.75 Q-64.15 258.75 -63.9 260.7 L-63.65 263.4 -63.5 263.45 -63.4 263.6 -62.65 262.65 -61.9 261.75 -61.15 261.75 -60.15 266.4 Q-59.45 266.2 -59.05 265.7 L-58.25 264.8 -57.75 264.8 Q-57.75 265.7 -57.0 268.25 L-56.25 268.5 Q-55.65 268.5 -55.25 268.0 L-54.25 266.9 -53.75 266.9 -53.25 269.2 -52.75 271.05 Q-52.2 270.95 -51.65 270.45 L-50.55 269.5 Q-49.65 269.75 -49.45 271.35 -49.25 272.75 -48.35 272.75 -47.8 272.75 -47.35 272.25 L-46.1 271.3 -45.6 273.45 Q-45.1 275.0 -45.1 275.5 -44.45 275.4 -43.5 274.55 L-41.65 272.75 -40.9 272.75 Q-41.15 274.9 -40.7 276.1 -40.35 277.1 -39.75 277.1 -39.2 277.1 -38.4 276.05 L-36.75 274.1 -36.5 274.1 -36.2 277.5 Q-36.0 278.5 -35.15 278.5 -34.7 278.5 -33.8 277.15 L-32.05 275.0 -31.3 275.0 Q-31.3 276.85 -30.8 278.75 -29.95 278.6 -28.95 277.6 L-26.6 275.25 -26.1 275.25 Q-25.95 276.3 -26.15 278.2 -26.2 279.65 -25.1 279.65 -24.45 279.65 -23.3 278.3 -21.95 276.6 -20.9 276.0 L-20.75 276.0 -20.65 278.7 Q-20.45 279.65 -19.85 279.65 -18.95 279.65 -17.8 278.35 L-15.75 276.0 -15.5 276.0 -15.25 279.65 -13.75 279.65 -10.8 277.1 Q-10.55 277.45 -10.6 279.25 -10.65 280.6 -9.7 280.6 -8.8 280.6 -7.75 279.55 L-5.35 277.1 -5.6 279.8 Q-5.6 281.2 -4.3 281.3 -3.15 281.3 -1.9 280.0 L0.5 277.35 0.75 277.35 Q0.95 277.85 0.75 279.9 0.95 281.75 2.95 281.75 5.05 281.75 6.7 279.85 L9.1 276.4 8.75 277.85 8.35 279.55 Q8.35 280.35 8.6 280.6 L9.5 280.8 Q11.15 280.8 12.25 279.2 L14.5 275.25 14.55 278.45 Q14.7 279.9 16.25 279.9 17.5 279.9 20.3 277.05 L23.4 273.6 23.5 275.1 23.4 276.65 Q23.4 277.7 23.9 278.05 L24.8 278.25 Q25.9 278.25 27.7 276.15 L31.3 272.0 31.55 272.0 31.05 275.25 Q31.05 275.9 31.3 276.15 L31.6 276.3 32.2 276.4 Q32.7 276.4 34.35 274.4 35.95 272.5 36.75 271.05 L37.0 271.05 36.75 274.1 36.95 274.2 37.4 274.3 Q38.3 274.3 39.35 272.8 40.9 270.45 41.9 269.5 41.9 271.8 42.4 272.75 L42.7 272.6 43.05 271.95 44.2 270.2 Q45.15 268.5 45.1 267.1 L46.1 268.55 47.6 270.1 47.6 266.85 47.85 266.65 49.2 267.75 Q49.8 268.25 50.55 268.25 51.7 268.25 51.7 266.55 L51.8 264.1 53.15 265.05 Q53.7 265.5 54.75 265.5 55.5 265.5 55.7 265.0 55.85 264.45 55.5 263.15 L55.5 261.75 57.0 262.45 Q58.45 263.1 59.25 263.15 59.5 263.3 59.5 262.7 L58.75 259.5 61.4 261.05 61.15 257.9 61.05 257.75 61.15 257.65 61.8 257.15 Q63.7 258.6 64.65 258.5 L64.4 256.25 64.4 254.8 Q64.75 254.8 66.85 256.25 L66.85 253.15 68.8 255.0 69.05 254.95 65.7 244.95 Q64.95 238.45 62.7 232.25 L59.3 224.0 55.25 210.9 Q52.1 200.5 50.4 177.0 L49.0 152.35 49.0 152.25 49.15 152.35 49.65 152.4 50.25 152.25 50.4 151.95 50.45 151.55 Q50.45 144.55 49.5 129.7 48.45 113.8 47.7 113.0 L47.35 113.2 45.4 82.35 43.35 52.05 43.75 48.55 44.1 43.4 44.1 34.65 Q44.05 23.1 43.7 17.55 43.6 14.35 43.2 13.2 L43.05 13.2 43.25 8.0 43.4 4.8 Q43.1 3.75 43.2 2.45 L43.65 -2.05 Q43.65 -8.25 43.95 -11.55 L43.95 -33.2 45.45 -67.2 Q46.55 -87.05 48.8 -101.25 L48.8 -112.55 Q48.35 -120.7 48.8 -128.7 49.55 -133.7 49.75 -137.3 L49.8 -144.55 49.2 -171.1 Q49.2 -174.45 49.6 -178.9 L50.15 -183.2 50.2 -183.65 51.1 -188.35 51.25 -189.0 51.65 -189.0 M45.6 -32.85 L45.6 -21.75 45.9 -25.1 45.9 -37.85 45.6 -32.85 M45.15 6.3 L44.95 6.4 44.9 7.05 45.15 8.15 45.15 6.3 M45.8 28.45 L45.6 33.9 45.55 35.5 45.7 35.7 45.8 28.45 M44.6 53.6 L44.7 53.9 44.65 53.05 44.6 53.6 M-52.75 42.3 L-52.45 45.65 -53.05 46.35 -52.75 42.3 M-53.05 53.8 L-53.1 48.25 -53.1 47.5 Q-52.8 49.55 -52.8 51.6 L-52.9 55.65 -53.05 53.8 M-67.9 230.5 L-67.95 230.45 -68.0 230.95 -67.9 230.5" fill="#ffffff" fill-opacity="0.6509804" fill-rule="evenodd" stroke="none"/>
    <path d="M-54.45 56.55 L-54.65 53.95 -53.05 53.8 -52.9 55.65 -54.45 56.55 M-54.7 46.25 L-54.55 42.2 -52.75 42.3 -53.05 46.35 -54.7 46.25" fill="url(#gradient0)" fill-rule="evenodd" stroke="none"/>
    <path d="M51.25 -189.0 L51.1 -188.35 50.2 -183.65 50.15 -183.2 49.6 -178.9 Q49.2 -174.45 49.2 -171.1 L49.8 -144.55 49.75 -137.3 Q49.55 -133.7 48.8 -128.7 48.35 -120.7 48.8 -112.55 L48.8 -101.25 Q46.55 -87.05 45.45 -67.2 L43.95 -33.2 43.95 -11.55 Q43.65 -8.25 43.65 -2.05 L43.2 2.45 Q43.1 3.75 43.4 4.8 L43.25 8.0 43.05 13.2 43.2 13.2 Q43.6 14.35 43.7 17.55 44.05 23.1 44.1 34.65 L44.1 43.4 43.75 48.55 43.35 52.05 45.4 82.35 47.35 113.2 47.7 113.0 Q48.45 113.8 49.5 129.7 50.45 144.55 50.45 151.55 L49.0 152.25 49.0 152.35 50.4 177.0 Q52.1 200.5 55.25 210.9 L59.3 224.0 62.7 232.25 Q64.95 238.45 65.7 244.95 L69.05 254.95 68.8 255.0 66.85 253.15 66.85 256.25 Q64.75 254.8 64.4 254.8 L64.4 256.25 64.65 258.5 Q63.7 258.6 61.8 257.15 L61.15 257.65 61.05 257.75 61.15 257.9 61.4 261.05 58.75 259.5 59.5 262.7 Q59.5 263.3 59.25 263.15 58.45 263.1 57.0 262.45 L55.5 261.75 55.5 263.15 Q55.85 264.45 55.7 265.0 55.5 265.5 54.75 265.5 53.7 265.5 53.15 265.05 L51.8 264.1 51.7 266.55 Q51.7 268.25 50.55 268.25 49.8 268.25 49.2 267.75 L47.85 266.65 47.6 266.85 47.6 270.1 46.1 268.55 45.1 267.1 Q45.15 268.5 44.2 270.2 L43.05 271.95 42.7 272.6 42.4 272.75 Q41.9 271.8 41.9 269.5 40.9 270.45 39.35 272.8 38.3 274.3 37.4 274.3 L36.95 274.2 36.75 274.1 37.0 271.05 36.75 271.05 Q35.95 272.5 34.35 274.4 32.7 276.4 32.2 276.4 L31.6 276.3 31.3 276.15 Q31.05 275.9 31.05 275.25 L31.55 272.0 31.3 272.0 27.7 276.15 Q25.9 278.25 24.8 278.25 L23.9 278.05 Q23.4 277.7 23.4 276.65 L23.5 275.1 23.4 273.6 20.3 277.05 Q17.5 279.9 16.25 279.9 14.7 279.9 14.55 278.45 L14.5 275.25 12.25 279.2 Q11.15 280.8 9.5 280.8 L8.6 280.6 Q8.35 280.35 8.35 279.55 L8.75 277.85 9.1 276.4 6.7 279.85 Q5.05 281.75 2.95 281.75 0.95 281.75 0.75 279.9 0.95 277.85 0.75 277.35 L0.5 277.35 -1.9 280.0 Q-3.15 281.3 -4.3 281.3 -5.6 281.2 -5.6 279.8 L-5.35 277.1 -7.75 279.55 Q-8.8 280.6 -9.7 280.6 -10.65 280.6 -10.6 279.25 -10.55 277.45 -10.8 277.1 L-13.75 279.65 -15.25 279.65 -15.5 276.0 -15.75 276.0 -17.8 278.35 Q-18.95 279.65 -19.85 279.65 -20.45 279.65 -20.65 278.7 L-20.75 276.0 -20.9 276.0 Q-21.95 276.6 -23.3 278.3 -24.45 279.65 -25.1 279.65 -26.2 279.65 -26.15 278.2 -25.95 276.3 -26.1 275.25 L-26.6 275.25 -28.95 277.6 Q-29.95 278.6 -30.8 278.75 -31.3 276.85 -31.3 275.0 L-32.05 275.0 -33.8 277.15 Q-34.7 278.5 -35.15 278.5 -36.0 278.5 -36.2 277.5 L-36.5 274.1 -36.75 274.1 -38.4 276.05 Q-39.2 277.1 -39.75 277.1 -40.35 277.1 -40.7 276.1 -41.15 274.9 -40.9 272.75 L-41.65 272.75 -43.5 274.55 Q-44.45 275.4 -45.1 275.5 -45.1 275.0 -45.6 273.45 L-46.1 271.3 -47.35 272.25 Q-47.8 272.75 -48.35 272.75 -49.25 272.75 -49.45 271.35 -49.65 269.75 -50.55 269.5 L-51.65 270.45 Q-52.2 270.95 -52.75 271.05 L-53.25 269.2 -53.75 266.9 -54.25 266.9 -55.25 268.0 Q-55.65 268.5 -56.25 268.5 L-57.0 268.25 Q-57.75 265.7 -57.75 264.8 L-58.25 264.8 -59.05 265.7 Q-59.45 266.2 -60.15 266.4 L-61.15 261.75 -61.9 261.75 -62.65 262.65 -63.4 263.6 -63.5 263.45 -63.65 263.4 -63.9 260.7 Q-64.15 258.75 -65.25 258.75 L-66.45 259.45 -67.8 260.6 Q-68.5 259.45 -68.7 257.35 L-69.05 254.1 Q-69.25 254.3 -70.35 254.75 L-71.75 255.25 -71.75 253.65 -70.45 245.65 -69.55 242.65 Q-68.55 241.45 -66.8 233.8 -64.85 225.1 -64.85 221.05 L-64.85 220.65 -64.6 219.05 -64.0 215.45 -63.95 215.4 Q-62.85 209.8 -62.15 204.1 L-61.95 204.05 Q-61.45 202.2 -61.3 198.65 L-61.25 194.45 Q-60.9 188.9 -60.9 183.3 L-61.0 182.5 -58.8 166.15 -57.95 165.8 -57.65 161.2 Q-57.6 157.9 -57.0 152.4 L-55.95 143.15 -55.75 140.95 -55.25 131.85 -54.95 131.75 -54.75 129.3 -54.05 127.55 -54.05 118.2 Q-53.75 116.95 -53.75 112.85 -53.75 108.95 -53.4 106.85 L-53.4 93.0 Q-53.1 90.45 -53.1 85.5 L-53.75 74.35 -53.2 73.2 -53.35 71.6 -53.1 67.05 -53.1 64.8 Q-54.05 63.25 -54.2 60.95 -54.2 58.05 -54.45 56.55 L-52.9 55.65 -52.8 51.6 Q-52.8 49.55 -53.1 47.5 L-53.05 46.35 -52.45 45.65 -52.75 42.3 -54.55 42.2 Q-54.4 37.75 -54.05 35.1 L-53.65 28.45 -53.25 25.75 -53.25 25.0 -53.2 22.3 -52.55 -61.25 -52.15 -96.75 -52.0 -103.5 -52.05 -108.5 Q-52.4 -124.6 -55.0 -144.6 -58.0 -167.75 -58.0 -182.1 -58.0 -186.3 -57.6 -189.0 L51.25 -189.0 M65.85 253.25 L65.85 253.2 65.0 253.1 65.85 253.25" fill="url(#gradient1)" fill-rule="evenodd" stroke="none"/>
    <path d="M48.9 -311.85 L62.8 -311.85 62.8 -189.0 62.65 -186.8 62.65 -189.0 51.65 -189.0 51.85 -192.55 51.95 -194.5 52.3 -205.1 Q52.3 -212.35 48.5 -236.9 44.65 -261.45 44.65 -280.15 44.65 -287.95 47.35 -303.0 L48.9 -311.85 M-67.95 -189.0 L-67.2 -311.85 -51.8 -311.85 Q-54.6 -305.65 -55.2 -301.1 -55.4 -299.45 -55.4 -291.85 -55.4 -285.3 -53.15 -256.1 L-50.9 -225.9 Q-50.9 -218.1 -53.65 -206.55 L-57.75 -189.0 -67.95 -189.0" fill="url(#gradient2)" fill-rule="evenodd" stroke="none"/>
    <path d="M48.9 -311.85 L47.35 -303.0 Q44.65 -287.95 44.65 -280.15 44.65 -261.45 48.5 -236.9 52.3 -212.35 52.3 -205.1 L51.95 -194.5 51.85 -192.55 51.65 -189.0 51.25 -189.0 -57.6 -189.0 -57.75 -189.0 -53.65 -206.55 Q-50.9 -218.1 -50.9 -225.9 L-53.15 -256.1 Q-55.4 -285.3 -55.4 -291.85 -55.4 -299.45 -55.2 -301.1 -54.6 -305.65 -51.8 -311.85 L48.9 -311.85" fill="url(#gradient3)" fill-rule="evenodd" stroke="none"/>
  </g>
  <defs>
    <radialGradient cx="0" cy="0" gradientTransform="matrix(0.0, 0.0, 0.0, 0.0, 0.0, 0.0)" gradientUnits="userSpaceOnUse" id="gradient0" r="819.2" spreadMethod="pad">
      <stop offset="0.0" stop-color="#ffffff"/>
      <stop offset="1.0" stop-color="#ffffff" stop-opacity="0.0"/>
    </radialGradient>
    <radialGradient cx="0" cy="0" gradientTransform="matrix(0.3459, 0.0, 0.0, 0.5225, -9.0, 345.4)" gradientUnits="userSpaceOnUse" id="gradient1" r="819.2" spreadMethod="pad">
      <stop offset="0.08235294117647059" stop-color="#ffffff" stop-opacity="0.0"/>
      <stop offset="0.7019607843137254" stop-color="#ffffff"/>
    </radialGradient>
    <linearGradient gradientTransform="matrix(0.0, 0.0434, -0.0218, 0.0, 36.5, -229.05)" gradientUnits="userSpaceOnUse" id="gradient2" spreadMethod="pad" x1="-819.2" x2="819.2">
      <stop offset="0.0" stop-color="#ffffff" stop-opacity="0.0"/>
      <stop offset="1.0" stop-color="#ffffff" stop-opacity="0.6509804"/>
    </linearGradient>
    <linearGradient gradientTransform="matrix(0.0, 0.0429, -0.0681, 0.0, -3.65, -238.8)" gradientUnits="userSpaceOnUse" id="gradient3" spreadMethod="pad" x1="-819.2" x2="819.2">
      <stop offset="0.0" stop-color="#ffffff" stop-opacity="0.0"/>
      <stop offset="1.0" stop-color="#ffffff"/>
    </linearGradient>
  </defs>
</svg>
