<?xml version="1.0" encoding="UTF-8" standalone="no"?>
<svg xmlns:ffdec="https://www.free-decompiler.com/flash" xmlns:xlink="http://www.w3.org/1999/xlink" ffdec:objectType="shape" height="638.6px" width="163.0px" xmlns="http://www.w3.org/2000/svg">
  <g transform="matrix(1.0, 0.0, 0.0, 1.0, 80.1, 593.95)">
    <path d="M-54.75 -487.95 L-54.7 -487.95 -54.75 -487.0 -54.75 -487.95 M53.75 -480.0 L54.0 -479.85 54.25 -480.55 54.3 -478.9 54.6 -478.85 54.75 -478.9 Q55.1 -480.05 55.65 -484.45 L56.05 -487.95 65.55 -487.95 65.55 -161.35 Q66.4 -158.7 66.4 -149.4 L66.4 -145.35 Q66.4 -140.4 66.05 -138.55 L65.8 -123.9 65.25 -94.35 Q65.25 -40.55 74.1 -20.95 74.65 -19.7 80.15 -10.6 82.9 -6.05 82.9 -0.15 82.9 6.6 78.85 13.7 74.2 21.9 65.25 28.35 42.5 44.65 0.15 44.65 -20.15 44.65 -30.95 41.75 -35.4 40.55 -41.45 38.05 L-53.85 32.95 Q-65.65 28.25 -72.45 21.8 -80.1 14.45 -80.1 5.95 -80.1 -1.3 -77.55 -7.6 L-71.95 -19.15 Q-63.85 -36.55 -63.85 -66.25 -63.85 -73.35 -64.4 -103.0 L-64.95 -143.15 -65.05 -487.95 -56.2 -487.95 -55.85 -485.15 -55.55 -485.1 -55.25 -485.2 -55.25 -485.95 -54.75 -486.5 -54.75 -486.45 Q-55.1 -479.95 -55.1 -470.4 -55.1 -441.65 -53.25 -398.95 L-52.1 -389.5 Q-49.5 -369.5 -49.15 -353.4 L-49.1 -348.4 -49.25 -341.65 -49.65 -306.15 -50.3 -222.6 -50.35 -219.9 -50.35 -219.15 -50.75 -216.45 -51.15 -209.8 Q-51.7 -205.45 -51.85 -196.5 -51.85 -190.65 -51.55 -188.35 -51.3 -186.85 -51.3 -183.95 -51.15 -181.65 -50.2 -180.1 L-50.2 -177.85 -50.45 -173.3 -50.3 -171.7 -50.85 -170.55 -50.2 -159.4 Q-50.2 -154.45 -50.5 -151.9 L-50.5 -138.05 Q-50.85 -135.95 -50.85 -132.05 -50.85 -127.95 -51.15 -126.7 L-51.15 -117.35 -51.85 -115.6 -52.05 -113.15 -52.35 -113.05 -52.85 -103.95 -53.05 -101.75 -54.1 -92.5 Q-54.7 -87.0 -54.75 -83.7 L-55.05 -79.1 -55.9 -78.75 -58.1 -62.4 -58.0 -61.6 Q-58.0 -56.0 -58.35 -50.45 L-58.4 -46.25 Q-58.55 -42.7 -59.05 -40.85 L-59.25 -40.8 Q-59.95 -35.1 -61.05 -29.5 L-61.1 -29.45 -61.7 -25.85 -61.95 -24.25 -61.95 -23.85 Q-61.95 -19.8 -63.9 -11.1 -65.65 -3.45 -66.65 -2.25 L-67.55 0.75 -68.85 8.75 -68.85 10.35 -67.45 9.85 Q-66.35 9.4 -66.15 9.2 L-65.8 12.45 Q-65.6 14.55 -64.9 15.7 L-63.55 14.55 Q-62.75 13.85 -62.35 13.85 -61.25 13.85 -61.0 15.8 L-60.75 18.5 -60.6 18.55 -60.5 18.7 -59.75 17.75 -59.0 16.85 -58.25 16.85 -57.25 21.5 -56.15 20.8 -55.35 19.9 -54.85 19.9 Q-54.85 20.8 -54.1 23.35 L-53.35 23.6 Q-52.75 23.6 -52.35 23.1 L-51.35 22.0 -50.85 22.0 -50.35 24.3 -49.85 26.15 -48.75 25.55 -47.65 24.6 Q-46.75 24.85 -46.55 26.45 -46.35 27.85 -45.45 27.85 -44.9 27.85 -44.45 27.35 L-43.2 26.4 -42.7 28.55 Q-42.2 30.1 -42.2 30.6 -41.55 30.5 -40.6 29.65 L-38.75 27.85 -38.0 27.85 Q-38.25 30.0 -37.8 31.2 -37.45 32.2 -36.85 32.2 -36.3 32.2 -35.5 31.15 L-33.85 29.2 -33.6 29.2 -33.3 32.6 Q-33.1 33.6 -32.25 33.6 -31.8 33.6 -30.9 32.25 L-29.15 30.1 -28.4 30.1 Q-28.4 31.95 -27.9 33.85 -27.05 33.7 -26.05 32.7 L-23.7 30.35 -23.2 30.35 Q-23.05 31.4 -23.25 33.3 -23.3 34.75 -22.2 34.75 -21.55 34.75 -20.4 33.4 -19.05 31.7 -18.0 31.1 L-17.85 31.1 -17.75 33.8 Q-17.55 34.75 -16.95 34.75 -16.05 34.75 -14.9 33.45 L-12.85 31.1 -12.6 31.1 -12.35 34.75 -10.85 34.75 -7.9 32.2 Q-7.65 32.55 -7.7 34.35 -7.75 35.7 -6.8 35.7 -5.9 35.7 -4.85 34.65 L-2.45 32.2 -2.7 34.9 Q-2.7 36.3 -1.4 36.4 -0.25 36.4 1.0 35.1 L3.4 32.45 3.65 32.45 Q3.85 32.95 3.65 35.0 3.85 36.85 5.85 36.85 7.95 36.85 9.6 34.95 L12.0 31.5 11.65 32.95 11.25 34.65 Q11.25 35.45 11.5 35.7 L12.4 35.9 Q14.05 35.9 15.15 34.3 L17.4 30.35 17.45 33.55 Q17.6 35.0 19.15 35.0 20.4 35.0 23.2 32.15 L26.3 28.7 26.4 30.2 26.3 31.75 Q26.3 32.8 26.8 33.15 L27.7 33.35 Q28.8 33.35 30.6 31.25 L34.2 27.1 34.45 27.1 33.95 30.35 Q33.95 31.0 34.2 31.25 L34.5 31.4 35.1 31.5 Q35.6 31.5 37.25 29.5 L39.65 26.15 39.9 26.15 39.65 29.2 39.85 29.3 40.3 29.4 Q41.2 29.4 42.25 27.9 43.8 25.55 44.8 24.6 44.8 26.9 45.3 27.85 L45.6 27.7 45.95 27.05 47.1 25.3 Q48.05 23.6 48.0 22.2 L49.0 23.65 50.5 25.2 50.5 21.95 50.75 21.75 52.1 22.85 Q52.7 23.35 53.45 23.35 54.6 23.35 54.6 21.65 L54.7 19.2 56.05 20.15 Q56.6 20.6 57.65 20.6 58.4 20.6 58.6 20.1 58.75 19.55 58.4 18.25 L58.4 16.85 59.9 17.55 Q61.35 18.2 62.15 18.25 62.4 18.4 62.4 17.8 L61.65 14.6 64.3 16.15 64.05 13.0 63.95 12.85 64.05 12.75 64.7 12.25 Q66.6 13.7 67.55 13.6 L67.3 11.35 67.3 9.9 69.75 11.35 69.75 8.25 71.7 10.1 71.95 10.05 68.6 0.05 Q67.85 -6.45 65.6 -12.65 L62.2 -20.9 58.15 -34.0 Q55.0 -44.4 53.3 -67.9 L51.9 -92.65 Q52.15 -92.5 52.55 -92.5 L53.15 -92.65 53.3 -92.95 53.35 -93.35 Q53.35 -100.35 52.4 -115.2 51.35 -131.1 50.6 -131.9 L50.25 -131.7 48.3 -162.55 46.25 -192.85 46.65 -196.35 Q47.0 -198.9 47.0 -201.5 L47.0 -210.25 Q46.95 -221.8 46.6 -227.35 46.5 -230.55 46.1 -231.7 L45.95 -231.7 46.15 -236.9 46.3 -240.1 Q46.0 -241.15 46.1 -242.45 L46.55 -246.95 Q46.55 -253.15 46.85 -256.45 L46.85 -278.1 48.35 -312.1 Q49.45 -331.95 51.7 -346.15 L51.7 -357.45 Q51.25 -365.6 51.7 -373.6 52.45 -378.6 52.65 -382.2 L52.7 -389.45 52.5 -398.95 52.1 -442.4 Q52.1 -450.9 52.5 -462.25 53.0 -476.25 53.75 -479.7 L53.75 -480.0 M48.5 -277.75 L48.5 -266.65 48.8 -270.0 48.8 -282.75 48.5 -277.75 M47.85 -238.5 L47.8 -237.85 48.05 -236.75 48.05 -238.6 47.85 -238.5 M48.5 -211.0 L48.45 -209.4 48.6 -209.2 48.7 -216.45 48.5 -211.0 M47.5 -191.3 L47.6 -191.0 47.55 -191.85 47.5 -191.3 M-49.9 -193.3 L-50.0 -189.25 -50.15 -191.1 -50.2 -196.65 -50.2 -197.4 Q-49.9 -195.35 -49.9 -193.3 M-49.85 -202.6 L-49.55 -199.25 -50.15 -198.55 -49.85 -202.6 M-65.1 -13.95 L-65.0 -14.4 -65.05 -14.45 -65.1 -13.95" fill="#ffffff" fill-opacity="0.6509804" fill-rule="evenodd" stroke="none"/>
    <path d="M-54.7 -487.95 L54.8 -487.95 Q53.6 -482.0 53.6 -480.15 L53.75 -480.0 53.75 -479.7 Q53.0 -476.25 52.5 -462.25 52.1 -450.9 52.1 -442.4 L52.5 -398.95 52.7 -389.45 52.65 -382.2 Q52.45 -378.6 51.7 -373.6 51.25 -365.6 51.7 -357.45 L51.7 -346.15 Q49.45 -331.95 48.35 -312.1 L46.85 -278.1 46.85 -256.45 Q46.55 -253.15 46.55 -246.95 L46.1 -242.45 Q46.0 -241.15 46.3 -240.1 L46.15 -236.9 45.95 -231.7 46.1 -231.7 Q46.5 -230.55 46.6 -227.35 46.95 -221.8 47.0 -210.25 L47.0 -201.5 Q47.0 -198.9 46.65 -196.35 L46.25 -192.85 48.3 -162.55 50.25 -131.7 50.6 -131.9 Q51.35 -131.1 52.4 -115.2 53.35 -100.35 53.35 -93.35 L53.3 -92.95 53.15 -92.65 52.55 -92.5 Q52.15 -92.5 51.9 -92.65 L53.3 -67.9 Q55.0 -44.4 58.15 -34.0 L62.2 -20.9 65.6 -12.65 Q67.85 -6.45 68.6 0.05 L71.95 10.05 71.7 10.1 69.75 8.25 69.75 11.35 67.3 9.9 67.3 11.35 67.55 13.6 Q66.6 13.7 64.7 12.25 L64.05 12.75 63.95 12.85 64.05 13.0 64.3 16.15 61.65 14.6 62.4 17.8 Q62.4 18.4 62.15 18.25 61.35 18.2 59.9 17.55 L58.4 16.85 58.4 18.25 Q58.75 19.55 58.6 20.1 58.4 20.6 57.65 20.6 56.6 20.6 56.05 20.15 L54.7 19.2 54.6 21.65 Q54.6 23.35 53.45 23.35 52.7 23.35 52.1 22.85 L50.75 21.75 50.5 21.95 50.5 25.2 49.0 23.65 48.0 22.2 Q48.05 23.6 47.1 25.3 L45.95 27.05 45.6 27.7 45.3 27.85 Q44.8 26.9 44.8 24.6 43.8 25.55 42.25 27.9 41.2 29.4 40.3 29.4 L39.85 29.3 39.65 29.2 39.9 26.15 39.65 26.15 37.25 29.5 Q35.6 31.5 35.1 31.5 L34.5 31.4 34.2 31.25 Q33.95 31.0 33.95 30.35 L34.45 27.1 34.2 27.1 30.6 31.25 Q28.8 33.35 27.7 33.35 L26.8 33.15 Q26.3 32.8 26.3 31.75 L26.4 30.2 26.3 28.7 23.2 32.15 Q20.4 35.0 19.15 35.0 17.6 35.0 17.45 33.55 L17.4 30.35 15.15 34.3 Q14.05 35.9 12.4 35.9 L11.5 35.7 Q11.25 35.45 11.25 34.65 L11.65 32.95 12.0 31.5 9.6 34.95 Q7.95 36.85 5.85 36.85 3.85 36.85 3.65 35.0 3.85 32.95 3.65 32.45 L3.4 32.45 1.0 35.1 Q-0.25 36.4 -1.4 36.4 -2.7 36.3 -2.7 34.9 L-2.45 32.2 -4.85 34.65 Q-5.9 35.7 -6.8 35.7 -7.75 35.7 -7.7 34.35 -7.65 32.55 -7.9 32.2 L-10.85 34.75 -12.35 34.75 -12.6 31.1 -12.85 31.1 -14.9 33.45 Q-16.05 34.75 -16.95 34.75 -17.55 34.75 -17.75 33.8 L-17.85 31.1 -18.0 31.1 Q-19.05 31.7 -20.4 33.4 -21.55 34.75 -22.2 34.75 -23.3 34.75 -23.25 33.3 -23.05 31.4 -23.2 30.35 L-23.7 30.35 -26.05 32.7 Q-27.05 33.7 -27.9 33.85 -28.4 31.95 -28.4 30.1 L-29.15 30.1 -30.9 32.25 Q-31.8 33.6 -32.25 33.6 -33.1 33.6 -33.3 32.6 L-33.6 29.2 -33.85 29.2 -35.5 31.15 Q-36.3 32.2 -36.85 32.2 -37.45 32.2 -37.8 31.2 -38.25 30.0 -38.0 27.85 L-38.75 27.85 -40.6 29.65 Q-41.55 30.5 -42.2 30.6 -42.2 30.1 -42.7 28.55 L-43.2 26.4 -44.45 27.35 Q-44.9 27.85 -45.45 27.85 -46.35 27.85 -46.55 26.45 -46.75 24.85 -47.65 24.6 L-48.75 25.55 -49.85 26.15 -50.35 24.3 -50.85 22.0 -51.35 22.0 -52.35 23.1 Q-52.75 23.6 -53.35 23.6 L-54.1 23.35 Q-54.85 20.8 -54.85 19.9 L-55.35 19.9 -56.15 20.8 -57.25 21.5 -58.25 16.85 -59.0 16.85 -59.75 17.75 -60.5 18.7 -60.6 18.55 -60.75 18.5 -61.0 15.8 Q-61.25 13.85 -62.35 13.85 -62.75 13.85 -63.55 14.55 L-64.9 15.7 Q-65.6 14.55 -65.8 12.45 L-66.15 9.2 Q-66.35 9.4 -67.45 9.85 L-68.85 10.35 -68.85 8.75 -67.55 0.75 -66.65 -2.25 Q-65.65 -3.45 -63.9 -11.1 -61.95 -19.8 -61.95 -23.85 L-61.95 -24.25 -61.7 -25.85 -61.1 -29.45 -61.05 -29.5 Q-59.95 -35.1 -59.25 -40.8 L-59.05 -40.85 Q-58.55 -42.7 -58.4 -46.25 L-58.35 -50.45 Q-58.0 -56.0 -58.0 -61.6 L-58.1 -62.4 -55.9 -78.75 -55.05 -79.1 -54.75 -83.7 Q-54.7 -87.0 -54.1 -92.5 L-53.05 -101.75 -52.85 -103.95 -52.35 -113.05 -52.05 -113.15 -51.85 -115.6 -51.15 -117.35 -51.15 -126.7 Q-50.85 -127.95 -50.85 -132.05 -50.85 -135.95 -50.5 -138.05 L-50.5 -151.9 Q-50.2 -154.45 -50.2 -159.4 L-50.85 -170.55 -50.3 -171.7 -50.45 -173.3 -50.2 -177.85 -50.2 -180.1 Q-51.15 -181.65 -51.3 -183.95 -51.3 -186.85 -51.55 -188.35 -51.85 -190.65 -51.85 -196.5 -51.7 -205.45 -51.15 -209.8 L-50.75 -216.45 -50.35 -219.15 -50.35 -219.9 -50.3 -222.6 -49.65 -306.15 -49.25 -341.65 -49.1 -348.4 -49.15 -353.4 Q-49.5 -369.5 -52.1 -389.5 L-53.25 -398.95 Q-55.1 -441.65 -55.1 -470.4 -55.1 -479.95 -54.75 -486.45 L-54.75 -486.5 -54.75 -486.55 -54.75 -487.0 -54.7 -487.95 M47.5 -191.3 L47.55 -191.85 47.6 -191.0 47.5 -191.3 M48.5 -211.0 L48.7 -216.45 48.6 -209.2 48.45 -209.4 48.5 -211.0 M47.85 -238.5 L48.05 -238.6 48.05 -236.75 47.8 -237.85 47.85 -238.5 M48.5 -277.75 L48.8 -282.75 48.8 -270.0 48.5 -266.65 48.5 -277.75 M68.75 8.3 L67.9 8.2 68.75 8.35 68.75 8.3 M-49.85 -202.6 L-50.15 -198.55 -49.55 -199.25 -49.85 -202.6 M-49.9 -193.3 Q-49.9 -195.35 -50.2 -197.4 L-50.2 -196.65 -50.15 -191.1 -50.0 -189.25 -49.9 -193.3 M-65.1 -13.95 L-65.05 -14.45 -65.0 -14.4 -65.1 -13.95" fill="#ffffff" fill-rule="evenodd" stroke="none"/>
    <path d="M68.75 8.3 L68.75 8.35 67.9 8.2 68.75 8.3" fill="#05afd0" fill-rule="evenodd" stroke="none"/>
    <path d="M57.75 -593.95 L57.1 -591.9 54.3 -583.1 Q52.35 -576.1 52.35 -561.0 52.35 -554.6 54.0 -529.75 L55.65 -501.5 Q55.65 -495.8 55.25 -492.3 L54.9 -488.45 54.8 -487.95 -54.7 -487.95 -54.75 -487.95 -54.65 -490.6 -54.8 -492.45 -55.05 -494.35 -55.15 -494.95 -55.15 -505.8 -51.3 -537.8 Q-50.2 -548.2 -50.2 -560.8 -50.2 -566.6 -51.0 -575.1 -51.85 -583.55 -51.85 -591.05 L-51.8 -593.95 57.75 -593.95" fill="url(#gradient0)" fill-rule="evenodd" stroke="none"/>
    <path d="M54.8 -487.95 L54.9 -488.45 55.25 -492.3 Q55.65 -495.8 55.65 -501.5 L54.0 -529.75 Q52.35 -554.6 52.35 -561.0 52.35 -576.1 54.3 -583.1 L57.1 -591.9 57.75 -593.95 63.85 -593.95 65.55 -487.95 56.05 -487.95 55.65 -484.45 Q55.1 -480.05 54.75 -478.9 L54.6 -478.85 54.3 -478.9 54.25 -480.55 54.0 -479.85 53.75 -480.0 53.6 -480.15 Q53.6 -482.0 54.8 -487.95 M-51.8 -593.95 L-51.85 -591.05 Q-51.85 -583.55 -51.0 -575.1 -50.2 -566.6 -50.2 -560.8 -50.2 -548.2 -51.3 -537.8 L-55.15 -505.8 -55.15 -494.95 -55.05 -494.35 -54.8 -492.45 -54.65 -490.6 -54.75 -487.95 -54.75 -487.0 -54.75 -486.55 -54.75 -486.5 -55.25 -485.95 -55.25 -485.2 -55.55 -485.1 -55.85 -485.15 -56.2 -487.95 -65.05 -487.95 -65.45 -593.95 -51.8 -593.95" fill="url(#gradient1)" fill-rule="evenodd" stroke="none"/>
  </g>
  <defs>
    <linearGradient gradientTransform="matrix(0.0, 0.0429, -0.0681, 0.0, 1.25, -525.55)" gradientUnits="userSpaceOnUse" id="gradient0" spreadMethod="pad" x1="-819.2" x2="819.2">
      <stop offset="0.0" stop-color="#ffffff" stop-opacity="0.0"/>
      <stop offset="1.0" stop-color="#ffffff"/>
    </linearGradient>
    <linearGradient gradientTransform="matrix(0.0, 0.0463, -0.0218, 0.0, 38.4, -546.95)" gradientUnits="userSpaceOnUse" id="gradient1" spreadMethod="pad" x1="-819.2" x2="819.2">
      <stop offset="0.0" stop-color="#ffffff" stop-opacity="0.0"/>
      <stop offset="1.0" stop-color="#ffffff" stop-opacity="0.6509804"/>
    </linearGradient>
  </defs>
</svg>
