<?xml version="1.0" encoding="UTF-8" standalone="no"?>
<svg xmlns:ffdec="https://www.free-decompiler.com/flash" xmlns:xlink="http://www.w3.org/1999/xlink" ffdec:objectType="shape" height="638.6px" width="163.0px" xmlns="http://www.w3.org/2000/svg">
  <g transform="matrix(1.0, 0.0, 0.0, 1.0, 80.1, 593.95)">
    <path d="M57.3 -487.95 L65.55 -487.95 65.55 -161.35 Q66.4 -158.7 66.4 -149.4 L66.4 -145.35 Q66.4 -140.4 66.05 -138.55 L65.8 -123.9 65.25 -94.35 Q65.25 -40.55 74.1 -20.95 74.65 -19.7 80.15 -10.6 82.9 -6.05 82.9 -0.15 82.9 6.6 78.85 13.7 74.2 21.9 65.25 28.35 42.5 44.65 0.15 44.65 -20.15 44.65 -30.95 41.75 -35.4 40.55 -41.45 38.05 L-53.85 32.95 Q-65.65 28.25 -72.45 21.8 -80.1 14.45 -80.1 5.95 -80.1 -1.3 -77.55 -7.6 L-71.95 -19.15 Q-63.85 -36.55 -63.85 -66.25 -63.85 -73.35 -64.4 -103.0 L-64.95 -143.15 -65.05 -487.95 -57.45 -487.95 -57.45 -486.75 -57.7 -486.5 -57.8 -485.8 -56.9 -484.6 Q-56.45 -484.65 -56.05 -485.0 -55.65 -485.35 -55.55 -485.8 L-55.55 -487.95 -54.7 -487.95 -54.7 -487.8 -54.8 -485.0 -55.1 -467.3 -55.1 -466.7 -55.05 -458.8 Q-54.95 -436.45 -54.15 -407.95 -53.4 -399.55 -52.1 -389.5 L-52.0 -388.7 -50.6 -376.7 -49.65 -376.85 Q-48.05 -370.2 -43.65 -357.8 L-40.45 -348.95 Q-35.25 -335.05 -35.05 -327.5 -33.8 -324.3 -32.7 -322.45 -37.7 -314.65 -45.05 -304.25 -62.85 -279.1 -62.85 -278.4 -62.85 -277.45 -55.05 -263.65 L-45.5 -246.25 -41.7 -240.5 Q-38.95 -236.2 -38.1 -231.45 -37.0 -225.55 -31.4 -213.65 L-26.05 -202.8 Q-26.05 -201.25 -31.5 -197.35 L-38.75 -192.05 Q-42.8 -188.15 -49.5 -179.25 L-55.45 -170.95 Q-55.45 -164.3 -47.05 -139.35 -38.95 -115.25 -30.0 -95.05 L-30.0 -94.95 -40.95 -73.45 Q-52.05 -51.7 -52.55 -50.3 L-59.05 -35.0 -60.85 -30.45 -61.05 -29.5 -61.1 -29.45 -61.7 -25.85 -61.95 -24.25 -61.95 -23.85 Q-61.95 -19.8 -63.9 -11.1 -65.65 -3.45 -66.65 -2.25 L-67.55 0.75 -68.85 8.75 -68.85 10.35 -67.45 9.85 Q-66.35 9.4 -66.15 9.2 L-65.8 12.45 Q-65.6 14.55 -64.9 15.7 L-63.55 14.55 Q-62.75 13.85 -62.35 13.85 -61.25 13.85 -61.0 15.8 L-60.75 18.5 -60.6 18.55 -60.5 18.7 -59.75 17.75 -59.0 16.85 -58.25 16.85 -57.25 21.5 -56.15 20.8 -55.35 19.9 -54.85 19.9 Q-54.85 20.8 -54.1 23.35 L-53.35 23.6 Q-52.75 23.6 -52.35 23.1 L-51.35 22.0 -50.85 22.0 -50.35 24.3 -49.85 26.15 -48.75 25.55 -47.65 24.6 Q-46.75 24.85 -46.55 26.45 -46.35 27.85 -45.45 27.85 -44.9 27.85 -44.45 27.35 L-43.2 26.4 -42.7 28.55 Q-42.2 30.1 -42.2 30.6 -41.55 30.5 -40.6 29.65 L-38.75 27.85 -38.0 27.85 Q-38.25 30.0 -37.8 31.2 -37.45 32.2 -36.85 32.2 -36.3 32.2 -35.5 31.15 L-33.85 29.2 -33.6 29.2 -33.3 32.6 Q-33.1 33.6 -32.25 33.6 -31.8 33.6 -30.9 32.25 L-29.15 30.1 -28.4 30.1 Q-28.4 31.95 -27.9 33.85 -27.05 33.7 -26.05 32.7 L-23.7 30.35 -23.2 30.35 Q-23.05 31.4 -23.25 33.3 -23.3 34.75 -22.2 34.75 -21.55 34.75 -20.4 33.4 -19.05 31.7 -18.0 31.1 L-17.85 31.1 -17.75 33.8 Q-17.55 34.75 -16.95 34.75 -16.05 34.75 -14.9 33.45 L-12.85 31.1 -12.6 31.1 -12.35 34.75 -10.85 34.75 -7.9 32.2 Q-7.65 32.55 -7.7 34.35 -7.75 35.7 -6.8 35.7 -5.9 35.7 -4.85 34.65 L-2.45 32.2 -2.7 34.9 Q-2.7 36.3 -1.4 36.4 -0.25 36.4 1.0 35.1 L3.4 32.45 3.65 32.45 Q3.85 32.95 3.65 35.0 3.85 36.85 5.85 36.85 7.95 36.85 9.6 34.95 L12.0 31.5 11.65 32.95 11.25 34.65 Q11.25 35.45 11.5 35.7 L12.4 35.9 Q14.05 35.9 15.15 34.3 L17.4 30.35 17.45 33.55 Q17.6 35.0 19.15 35.0 20.4 35.0 23.2 32.15 L26.3 28.7 26.4 30.2 26.3 31.75 Q26.3 32.8 26.8 33.15 L27.7 33.35 Q28.8 33.35 30.6 31.25 L34.2 27.1 34.45 27.1 33.95 30.35 Q33.95 31.0 34.2 31.25 L34.5 31.4 35.1 31.5 Q35.6 31.5 37.25 29.5 L39.65 26.15 39.9 26.15 39.65 29.2 39.85 29.3 40.3 29.4 Q41.2 29.4 42.25 27.9 43.8 25.55 44.8 24.6 44.8 26.9 45.3 27.85 L45.6 27.7 45.95 27.05 47.1 25.3 Q48.05 23.6 48.0 22.2 L49.0 23.65 50.5 25.2 50.5 21.95 50.75 21.75 52.1 22.85 Q52.7 23.35 53.45 23.35 54.6 23.35 54.6 21.65 L54.7 19.2 56.05 20.15 Q56.6 20.6 57.65 20.6 58.4 20.6 58.6 20.1 58.75 19.55 58.4 18.25 L58.4 16.85 59.9 17.55 Q61.35 18.2 62.15 18.25 62.4 18.4 62.4 17.8 L61.65 14.6 64.3 16.15 64.05 13.0 63.95 12.85 64.05 12.75 64.7 12.25 Q66.6 13.7 67.55 13.6 L67.3 11.35 67.3 9.9 69.75 11.35 69.75 8.25 71.7 10.1 71.95 10.05 68.6 0.05 Q67.85 -6.45 65.6 -12.65 L62.2 -20.9 59.45 -29.75 Q55.8 -32.05 52.6 -38.35 47.0 -50.85 41.5 -62.05 L29.4 -85.6 25.8 -92.8 Q28.25 -105.4 33.2 -124.55 38.3 -144.3 43.45 -161.9 L24.7 -192.35 5.9 -222.85 Q5.9 -231.1 22.15 -257.75 34.65 -278.2 48.15 -296.45 46.7 -297.1 36.45 -303.25 L26.05 -309.15 26.05 -311.8 36.55 -367.2 Q41.5 -393.55 44.5 -407.95 L46.0 -430.3 46.15 -431.55 52.6 -480.1 53.0 -479.6 52.9 -477.75 Q52.9 -476.95 53.9 -476.0 L54.8 -476.45 Q54.85 -477.6 56.1 -482.9 L57.3 -487.95 M48.8 -270.0 L48.8 -282.75 48.5 -277.75 48.5 -266.65 48.8 -270.0 M48.05 -238.6 L47.85 -238.5 47.8 -237.85 48.05 -236.75 48.05 -238.6 M48.5 -211.0 L48.45 -209.4 48.6 -209.2 48.7 -216.45 48.5 -211.0 M47.55 -191.85 L47.5 -191.3 47.6 -191.0 47.55 -191.85 M-48.15 -277.7 Q-48.15 -275.4 -42.3 -263.75 L-36.05 -251.6 Q-34.45 -247.5 -29.1 -229.65 -24.0 -212.75 -23.4 -210.1 -26.75 -217.2 -35.3 -237.15 -44.55 -257.8 -55.45 -277.05 L-31.75 -303.5 Q-48.15 -281.3 -48.15 -277.7 M-65.1 -13.95 L-65.0 -14.4 -65.05 -14.45 -65.1 -13.95" fill="#ffffff" fill-opacity="0.6509804" fill-rule="evenodd" stroke="none"/>
    <path d="M53.9 -487.95 L53.5 -484.55 53.0 -479.6 52.6 -480.1 46.15 -431.55 46.0 -430.3 44.5 -407.95 Q41.5 -393.55 36.55 -367.2 L26.05 -311.8 26.05 -309.15 36.45 -303.25 Q46.7 -297.1 48.15 -296.45 34.65 -278.2 22.15 -257.75 5.9 -231.1 5.9 -222.85 L24.7 -192.35 43.45 -161.9 Q38.3 -144.3 33.2 -124.55 28.25 -105.4 25.8 -92.8 L29.4 -85.6 41.5 -62.05 Q47.0 -50.85 52.6 -38.35 55.8 -32.05 59.45 -29.75 L62.2 -20.9 65.6 -12.65 Q67.85 -6.45 68.6 0.05 L71.95 10.05 71.7 10.1 69.75 8.25 69.75 11.35 67.3 9.9 67.3 11.35 67.55 13.6 Q66.6 13.7 64.7 12.25 L64.05 12.75 63.95 12.85 64.05 13.0 64.3 16.15 61.65 14.6 62.4 17.8 Q62.4 18.4 62.15 18.25 61.35 18.2 59.9 17.55 L58.4 16.85 58.4 18.25 Q58.75 19.55 58.6 20.1 58.4 20.6 57.65 20.6 56.6 20.6 56.05 20.15 L54.7 19.2 54.6 21.65 Q54.6 23.35 53.45 23.35 52.7 23.35 52.1 22.85 L50.75 21.75 50.5 21.95 50.5 25.2 49.0 23.65 48.0 22.2 Q48.05 23.6 47.1 25.3 L45.95 27.05 45.6 27.7 45.3 27.85 Q44.8 26.9 44.8 24.6 43.8 25.55 42.25 27.9 41.2 29.4 40.3 29.4 L39.85 29.3 39.65 29.2 39.9 26.15 39.65 26.15 37.25 29.5 Q35.6 31.5 35.1 31.5 L34.5 31.4 34.2 31.25 Q33.95 31.0 33.95 30.35 L34.45 27.1 34.2 27.1 30.6 31.25 Q28.8 33.35 27.7 33.35 L26.8 33.15 Q26.3 32.8 26.3 31.75 L26.4 30.2 26.3 28.7 23.2 32.15 Q20.4 35.0 19.15 35.0 17.6 35.0 17.45 33.55 L17.4 30.35 15.15 34.3 Q14.05 35.9 12.4 35.9 L11.5 35.7 Q11.25 35.45 11.25 34.65 L11.65 32.95 12.0 31.5 9.6 34.95 Q7.95 36.85 5.85 36.85 3.85 36.85 3.65 35.0 3.85 32.95 3.65 32.45 L3.4 32.45 1.0 35.1 Q-0.25 36.4 -1.4 36.4 -2.7 36.3 -2.7 34.9 L-2.45 32.2 -4.85 34.65 Q-5.9 35.7 -6.8 35.7 -7.75 35.7 -7.7 34.35 -7.65 32.55 -7.9 32.2 L-10.85 34.75 -12.35 34.75 -12.6 31.1 -12.85 31.1 -14.9 33.45 Q-16.05 34.75 -16.95 34.75 -17.55 34.75 -17.75 33.8 L-17.85 31.1 -18.0 31.1 Q-19.05 31.7 -20.4 33.4 -21.55 34.75 -22.2 34.75 -23.3 34.75 -23.25 33.3 -23.05 31.4 -23.2 30.35 L-23.7 30.35 -26.05 32.7 Q-27.05 33.7 -27.9 33.85 -28.4 31.95 -28.4 30.1 L-29.15 30.1 -30.9 32.25 Q-31.8 33.6 -32.25 33.6 -33.1 33.6 -33.3 32.6 L-33.6 29.2 -33.85 29.2 -35.5 31.15 Q-36.3 32.2 -36.85 32.2 -37.45 32.2 -37.8 31.2 -38.25 30.0 -38.0 27.85 L-38.75 27.85 -40.6 29.65 Q-41.55 30.5 -42.2 30.6 -42.2 30.1 -42.7 28.55 L-43.2 26.4 -44.45 27.35 Q-44.9 27.85 -45.45 27.85 -46.35 27.85 -46.55 26.45 -46.75 24.85 -47.65 24.6 L-48.75 25.55 -49.85 26.15 -50.35 24.3 -50.85 22.0 -51.35 22.0 -52.35 23.1 Q-52.75 23.6 -53.35 23.6 L-54.1 23.35 Q-54.85 20.8 -54.85 19.9 L-55.35 19.9 -56.15 20.8 -57.25 21.5 -58.25 16.85 -59.0 16.85 -59.75 17.75 -60.5 18.7 -60.6 18.55 -60.75 18.5 -61.0 15.8 Q-61.25 13.85 -62.35 13.85 -62.75 13.85 -63.55 14.55 L-64.9 15.7 Q-65.6 14.55 -65.8 12.45 L-66.15 9.2 Q-66.35 9.4 -67.45 9.85 L-68.85 10.35 -68.85 8.75 -67.55 0.75 -66.65 -2.25 Q-65.65 -3.45 -63.9 -11.1 -61.95 -19.8 -61.95 -23.85 L-61.95 -24.25 -61.7 -25.85 -61.1 -29.45 -61.05 -29.5 -60.85 -30.45 -59.05 -35.0 -52.55 -50.3 Q-52.05 -51.7 -40.95 -73.45 L-30.0 -94.95 -30.0 -95.05 Q-38.95 -115.25 -47.05 -139.35 -55.45 -164.3 -55.45 -170.95 L-49.5 -179.25 Q-42.8 -188.15 -38.75 -192.05 L-31.5 -197.35 Q-26.05 -201.25 -26.05 -202.8 L-31.4 -213.65 Q-37.0 -225.55 -38.1 -231.45 -38.95 -236.2 -41.7 -240.5 L-45.5 -246.25 -55.05 -263.65 Q-62.85 -277.45 -62.85 -278.4 -62.85 -279.1 -45.05 -304.25 -37.7 -314.65 -32.7 -322.45 -33.8 -324.3 -35.05 -327.5 -35.25 -335.05 -40.45 -348.95 L-43.65 -357.8 Q-48.05 -370.2 -49.65 -376.85 L-50.6 -376.7 -52.0 -388.7 -52.1 -389.5 Q-53.4 -399.55 -54.15 -407.95 -54.95 -436.45 -55.05 -458.8 L-55.1 -466.7 -55.1 -467.3 -54.8 -485.0 -54.7 -487.8 -54.7 -487.95 -54.65 -487.95 53.9 -487.95 M47.55 -191.85 L47.6 -191.0 47.5 -191.3 47.55 -191.85 M48.5 -211.0 L48.7 -216.45 48.6 -209.2 48.45 -209.4 48.5 -211.0 M48.05 -238.6 L48.05 -236.75 47.8 -237.85 47.85 -238.5 48.05 -238.6 M48.8 -270.0 L48.5 -266.65 48.5 -277.75 48.8 -282.75 48.8 -270.0 M68.75 8.35 L68.75 8.3 67.9 8.2 68.75 8.35 M-48.15 -277.7 Q-48.15 -281.3 -31.75 -303.5 L-55.45 -277.05 Q-44.55 -257.8 -35.3 -237.15 -26.75 -217.2 -23.4 -210.1 -24.0 -212.75 -29.1 -229.65 -34.45 -247.5 -36.05 -251.6 L-42.3 -263.75 Q-48.15 -275.4 -48.15 -277.7 M-65.1 -13.95 L-65.05 -14.45 -65.0 -14.4 -65.1 -13.95" fill="#ffffff" fill-rule="evenodd" stroke="none"/>
    <path d="M68.75 8.35 L67.9 8.2 68.75 8.3 68.75 8.35" fill="#05afd0" fill-rule="evenodd" stroke="none"/>
    <path d="M52.1 -593.95 L50.7 -589.0 50.15 -575.0 49.85 -563.25 Q49.85 -541.65 52.5 -521.4 54.6 -505.45 54.5 -490.75 L54.1 -490.8 53.9 -487.95 -54.65 -487.95 Q-55.2 -490.65 -55.55 -494.5 L-55.55 -499.65 Q-55.05 -504.05 -54.9 -506.7 L-54.8 -518.05 -54.45 -539.55 -54.45 -539.75 Q-52.7 -553.6 -52.7 -564.9 -52.7 -573.0 -53.4 -585.75 L-53.9 -593.95 52.1 -593.95" fill="url(#gradient0)" fill-rule="evenodd" stroke="none"/>
    <path d="M52.1 -593.95 L65.5 -593.95 65.55 -487.95 57.3 -487.95 57.4 -488.95 56.65 -489.9 Q55.75 -490.7 54.5 -490.75 54.6 -505.45 52.5 -521.4 49.85 -541.65 49.85 -563.25 L50.15 -575.0 50.7 -589.0 52.1 -593.95 M-65.05 -487.95 L-65.45 -593.95 -53.9 -593.95 -53.4 -585.75 Q-52.7 -573.0 -52.7 -564.9 -52.7 -553.6 -54.45 -539.75 L-54.45 -539.55 -54.8 -518.05 -54.9 -506.7 Q-55.05 -504.05 -55.55 -499.65 L-56.4 -492.8 -57.25 -492.45 -57.45 -492.65 -57.45 -487.95 -65.05 -487.95 M-54.7 -487.95 L-55.55 -487.95 -55.55 -494.5 Q-55.2 -490.65 -54.65 -487.95 L-54.7 -487.95 M-58.95 -505.0 L-58.9 -506.4 -58.9 -507.0 -58.95 -505.7 -58.95 -505.0" fill="url(#gradient1)" fill-rule="evenodd" stroke="none"/>
    <path d="M54.5 -490.75 Q55.75 -490.7 56.65 -489.9 L57.4 -488.95 57.3 -487.95 56.1 -482.9 Q54.85 -477.6 54.8 -476.45 L53.9 -476.0 Q52.9 -476.95 52.9 -477.75 L53.0 -479.6 53.5 -484.55 53.9 -487.95 54.1 -490.8 54.5 -490.75 M-55.55 -487.95 L-55.55 -485.8 Q-55.65 -485.35 -56.05 -485.0 -56.45 -484.65 -56.9 -484.6 L-57.8 -485.8 -57.7 -486.5 -57.45 -486.75 -57.45 -487.95 -57.45 -492.65 -57.25 -492.45 -56.4 -492.8 -55.55 -499.65 -55.55 -494.5 -55.55 -487.95 M-58.95 -505.0 L-58.95 -505.7 -58.9 -507.0 -58.9 -506.4 -58.95 -505.0" fill="url(#gradient2)" fill-rule="evenodd" stroke="none"/>
  </g>
  <defs>
    <linearGradient gradientTransform="matrix(0.0, 0.0429, -0.0681, 0.0, 1.25, -525.55)" gradientUnits="userSpaceOnUse" id="gradient0" spreadMethod="pad" x1="-819.2" x2="819.2">
      <stop offset="0.0" stop-color="#ffffff" stop-opacity="0.0"/>
      <stop offset="1.0" stop-color="#ffffff"/>
    </linearGradient>
    <linearGradient gradientTransform="matrix(0.0, 0.0434, -0.0218, 0.0, 37.2, -535.0)" gradientUnits="userSpaceOnUse" id="gradient1" spreadMethod="pad" x1="-819.2" x2="819.2">
      <stop offset="0.0" stop-color="#ffffff" stop-opacity="0.0"/>
      <stop offset="1.0" stop-color="#ffffff" stop-opacity="0.6509804"/>
    </linearGradient>
    <linearGradient gradientTransform="matrix(0.0, 0.0463, -0.0218, 0.0, 38.4, -546.95)" gradientUnits="userSpaceOnUse" id="gradient2" spreadMethod="pad" x1="-819.2" x2="819.2">
      <stop offset="0.0" stop-color="#ffffff" stop-opacity="0.0"/>
      <stop offset="1.0" stop-color="#ffffff" stop-opacity="0.6509804"/>
    </linearGradient>
  </defs>
</svg>
