<?xml version="1.0" encoding="UTF-8" standalone="no"?>
<svg xmlns:ffdec="https://www.free-decompiler.com/flash" xmlns:xlink="http://www.w3.org/1999/xlink" ffdec:objectType="shape" height="633.0px" width="167.95px" xmlns="http://www.w3.org/2000/svg">
  <g transform="matrix(1.0, 0.0, 0.0, 1.0, 84.0, 587.45)">
    <path d="M58.4 -481.9 L58.4 -466.1 58.4 -284.95 27.95 -284.95 Q27.95 -395.6 28.3 -481.9 L58.4 -481.9 M10.0 -481.9 L10.0 -424.5 10.0 -284.95 -26.4 -284.95 -26.1 -318.5 -26.1 -424.5 -26.5 -424.5 -26.5 -284.95 -31.1 -284.95 -30.75 -481.9 -26.5 -481.9 -26.5 -487.95 -26.1 -487.95 -26.1 -481.9 10.0 -481.9 M31.45 -466.1 L31.55 -407.05 31.75 -417.05 31.75 -466.1 31.45 -466.1 M-34.4 -481.9 L-34.4 -229.35 -35.3 -214.3 Q-36.3 -198.6 -37.4 -195.75 L-39.3 -216.55 Q-41.75 -241.65 -43.45 -249.7 -46.1 -253.45 -48.3 -253.7 L-48.8 -256.3 -49.75 -253.45 Q-52.0 -252.45 -53.7 -247.3 -55.6 -241.65 -57.05 -228.45 L-58.1 -213.55 -58.85 -203.85 -59.4 -204.05 Q-60.0 -209.3 -60.0 -220.65 -60.0 -229.45 -59.45 -233.95 L-59.45 -258.2 -58.95 -259.3 -58.9 -274.65 -58.9 -278.85 -58.95 -281.7 -58.95 -284.95 -58.9 -360.6 Q-58.8 -386.7 -59.05 -452.75 L-58.9 -485.05 -58.9 -482.1 -58.9 -481.95 -58.9 -481.9 -56.2 -481.9 -56.2 -477.8 -55.95 -481.9 -34.4 -481.9 M-56.75 -240.85 L-56.75 -236.5 -56.65 -236.5 -55.75 -241.0 -56.2 -241.1 -56.75 -240.85 M-57.3 -230.55 Q-57.0 -230.95 -56.9 -231.7 -56.8 -232.4 -57.05 -232.65 L-57.05 -232.4 -57.3 -230.55" fill="#ffffff" fill-opacity="0.49803922" fill-rule="evenodd" stroke="none"/>
    <path d="M58.4 -284.95 L58.4 -177.55 57.3 -162.5 56.25 -151.65 Q55.15 -159.3 52.25 -172.7 L49.8 -183.8 48.2 -193.35 Q47.25 -193.9 45.5 -195.95 L43.25 -198.7 Q37.1 -198.7 35.85 -197.45 L35.2 -196.65 35.0 -196.45 34.55 -195.5 Q33.15 -192.1 31.9 -185.9 30.6 -181.3 30.6 -178.2 L29.0 -165.95 Q27.65 -155.35 27.6 -152.15 L27.5 -152.25 Q26.75 -157.5 26.75 -168.85 26.75 -177.65 27.45 -182.15 L27.45 -206.4 Q27.5 -206.9 28.05 -207.5 27.95 -213.05 28.15 -222.85 L28.15 -227.05 28.05 -229.9 Q28.0 -235.6 28.1 -239.0 L28.15 -244.75 Q28.25 -256.05 27.95 -284.65 L27.95 -284.95 58.4 -284.95 M31.45 -189.3 L30.8 -189.05 30.8 -184.7 30.9 -184.7 32.0 -189.2 31.45 -189.3 M30.4 -180.6 Q30.1 -180.3 30.1 -178.75 30.45 -179.15 30.6 -179.9 30.7 -180.6 30.4 -180.85 L30.4 -180.6" fill="#ffffff" fill-opacity="0.49803922" fill-rule="evenodd" stroke="none"/>
    <path d="M10.0 -284.95 L10.0 -80.8 8.5 -65.75 Q7.85 -59.2 7.1 -54.9 6.0 -60.4 3.7 -68.85 L3.55 -71.3 Q3.15 -75.6 1.5 -84.2 L-0.1 -89.75 Q-1.65 -94.7 -3.45 -98.25 -8.9 -109.15 -16.25 -106.4 -24.75 -103.2 -26.4 -95.5 L-26.85 -92.45 -27.4 -92.3 -27.4 -87.95 -27.25 -87.95 -27.05 -88.45 -27.25 -84.6 Q-27.65 -82.9 -27.65 -81.5 L-27.65 -81.35 -29.85 -69.2 -31.15 -61.0 -32.85 -68.1 -32.9 -72.1 Q-32.9 -80.9 -31.95 -85.4 L-31.95 -109.65 -31.1 -110.75 Q-31.25 -116.3 -31.0 -126.1 L-31.0 -130.3 -31.1 -133.15 -31.1 -140.0 -31.0 -174.8 Q-30.85 -199.15 -31.25 -260.75 L-31.1 -284.95 -26.5 -284.95 -26.5 -284.1 -26.4 -284.95 10.0 -284.95 M-28.35 -82.0 Q-27.85 -82.4 -27.65 -83.15 -27.55 -83.85 -27.95 -84.1 L-27.95 -83.85 Q-28.35 -83.55 -28.35 -82.0" fill="#ffffff" fill-opacity="0.49803922" fill-rule="evenodd" stroke="none"/>
    <path d="M28.3 -481.9 L28.0 -481.9 28.0 -485.1 28.0 -488.0 28.0 -491.95 28.3 -587.45 58.4 -587.45 58.4 -571.15 58.4 -487.95 58.4 -481.9 28.3 -481.9 M31.45 -571.15 L31.45 -519.65 31.75 -534.45 31.75 -571.15 31.45 -571.15 M-30.75 -481.9 L-31.0 -481.9 -31.0 -481.95 -30.75 -587.45 10.0 -587.45 10.0 -540.15 10.0 -481.9 -26.1 -481.9 -26.1 -487.95 -26.1 -540.15 -26.5 -540.15 -26.5 -487.95 -26.5 -481.9 -30.75 -481.9 M-58.9 -485.05 L-58.9 -487.95 -58.9 -492.2 Q-58.8 -511.6 -59.05 -561.2 L-58.9 -587.45 -56.2 -587.45 -56.2 -580.05 -55.95 -583.2 -55.95 -587.45 -34.4 -587.45 -34.4 -481.9 -55.95 -481.9 -56.2 -481.9 -58.9 -481.9 -58.9 -481.95 -58.9 -482.1 -58.9 -485.05" fill="url(#gradient0)" fill-rule="evenodd" stroke="none"/>
    <path d="M1.65 -538.85 L1.75 -538.05 Q1.75 -537.35 -5.35 -528.75 -12.5 -520.15 -12.5 -518.35 -12.5 -516.95 -10.8 -512.3 L-7.1 -501.6 Q-3.6 -490.3 -2.4 -478.9 L0.25 -482.8 7.55 -491.65 Q10.9 -495.5 10.9 -497.1 L9.65 -506.05 Q8.35 -514.6 8.35 -519.5 L8.4 -522.25 Q8.9 -524.5 11.15 -524.75 L11.1 -522.0 10.9 -519.4 Q10.9 -514.7 12.15 -507.05 13.4 -499.4 13.4 -497.05 13.4 -496.25 10.5 -492.65 L3.95 -484.35 Q0.4 -479.6 -2.05 -475.25 -1.75 -471.05 -1.75 -466.85 -3.3 -434.25 -3.3 -417.25 -3.3 -409.7 -2.5 -381.6 -1.75 -353.5 -1.75 -348.55 -1.75 -335.5 -2.25 -329.0 L-2.25 -324.2 Q-0.8 -323.65 -1.1 -320.9 -0.6 -318.6 -0.6 -314.0 -0.6 -304.6 -0.05 -300.0 L-0.05 -276.75 2.25 -259.75 Q3.55 -249.75 3.0 -243.05 L9.6 -244.9 17.05 -246.65 19.1 -246.65 Q24.55 -242.3 24.35 -236.15 L23.85 -230.95 Q23.6 -227.75 24.15 -225.5 25.25 -221.3 25.85 -215.0 L26.75 -204.5 31.4 -161.8 Q31.8 -161.8 31.8 -161.4 L39.3 -162.9 44.5 -164.4 47.05 -164.4 Q49.6 -160.65 50.25 -154.55 50.6 -147.6 51.05 -144.35 51.65 -140.2 51.95 -132.25 L52.1 -124.15 51.95 -115.35 Q51.6 -112.6 50.15 -111.45 49.0 -110.55 44.95 -109.35 L34.4 -105.9 38.65 -80.4 Q39.3 -80.4 42.85 -82.25 46.4 -84.15 47.55 -84.15 50.1 -84.15 50.55 -78.0 L50.55 -68.75 Q50.55 -59.2 51.05 -53.65 L52.35 -38.25 Q53.35 -28.95 55.5 -23.25 56.45 -23.75 59.0 -25.35 60.5 -26.25 61.3 -26.25 64.15 -26.25 64.85 -23.15 65.2 -19.45 65.55 -18.25 L66.3 -14.65 73.3 -19.85 Q76.5 -22.3 77.4 -16.2 L77.4 -16.65 77.6 -16.9 78.5 -17.2 Q80.15 -17.2 82.2 -7.8 L83.95 1.6 Q83.95 7.1 78.6 15.8 72.9 25.1 66.75 28.0 49.6 36.05 28.55 41.0 9.1 45.55 -5.0 45.55 -20.7 45.55 -40.25 39.45 -58.75 33.7 -66.85 27.1 -75.6 20.1 -79.65 14.2 -84.0 7.85 -84.0 1.45 -84.0 -4.2 -78.5 -13.55 -72.3 -24.2 -65.85 -24.85 -65.7 -25.1 -65.7 -24.0 L-69.9 -20.7 Q-74.65 -16.45 -77.2 -11.25 L-77.65 -10.35 -77.85 -9.85 -77.85 -9.75 -77.2 -9.55 -77.1 -9.45 -77.0 -8.75 Q-77.0 -8.3 -77.65 -6.9 L-78.3 -5.45 -78.25 -5.25 -77.0 -3.2 -77.55 -2.25 -77.55 -2.2 Q-75.2 7.8 -72.5 7.8 -71.35 7.8 -71.0 6.4 -70.75 5.3 -70.0 5.05 L-69.65 3.3 Q-69.65 1.5 -70.45 -3.15 -71.25 -7.8 -71.25 -9.8 -71.25 -13.05 -68.9 -15.2 L-61.15 -20.9 -58.75 -21.75 Q-56.6 -22.55 -56.1 -23.35 -55.7 -24.0 -55.3 -26.5 L-55.1 -29.4 -54.65 -32.3 -54.4 -44.5 -54.15 -56.0 Q-54.15 -58.65 -53.8 -59.2 -52.95 -60.55 -48.3 -63.0 L-43.0 -66.4 Q-39.4 -68.55 -33.6 -69.4 L-33.5 -78.55 -34.45 -93.85 Q-35.85 -108.6 -37.85 -108.6 -40.9 -108.6 -43.8 -106.85 -46.75 -105.15 -48.6 -105.15 -51.9 -105.15 -52.6 -108.3 -52.9 -109.9 -52.6 -111.6 -52.6 -131.85 -50.5 -150.4 L-50.5 -169.8 -48.8 -190.35 Q-47.85 -202.85 -48.0 -211.0 -48.2 -223.95 -44.75 -231.55 L-33.5 -241.05 Q-23.1 -249.5 -23.1 -252.1 -23.1 -255.9 -25.95 -264.5 -28.8 -273.1 -28.8 -276.75 -28.8 -279.9 -24.8 -283.95 L-17.4 -290.9 -17.4 -311.85 Q-16.9 -315.75 -16.9 -323.5 L-16.6 -323.95 -16.9 -328.1 -17.0 -345.8 Q-17.5 -359.3 -19.0 -374.5 -20.05 -385.4 -21.2 -402.65 L-23.15 -431.3 -23.15 -452.3 -23.65 -455.75 -23.65 -476.0 -24.15 -479.05 -24.15 -526.75 -24.65 -532.7 -25.05 -539.0 -25.1 -542.05 Q-25.05 -544.05 -25.15 -545.1 -25.4 -547.2 -26.1 -548.4 -26.75 -549.4 -26.75 -550.6 -26.75 -553.1 -25.7 -553.9 -24.45 -554.8 -23.15 -550.75 -22.8 -549.3 -22.7 -547.05 L-22.6 -543.05 -21.6 -527.75 -21.6 -480.05 -21.1 -477.0 -21.1 -456.4 -20.6 -453.0 -20.6 -432.0 Q-19.3 -411.0 -16.6 -375.25 L-12.5 -318.6 -12.5 -369.85 -16.7 -461.5 -19.55 -530.25 -19.6 -533.2 Q-19.2 -535.3 -16.75 -535.4 L-16.85 -532.65 -17.0 -530.05 -14.15 -461.65 -11.0 -393.35 -9.9 -411.6 -9.9 -441.0 Q-10.4 -444.5 -10.4 -451.55 -10.4 -463.95 -4.65 -475.0 -5.7 -487.15 -9.65 -500.8 -10.75 -504.6 -13.35 -512.4 -15.0 -517.4 -15.0 -518.5 -15.0 -520.3 -12.15 -524.15 L-7.5 -529.75 Q-6.3 -531.05 -3.8 -535.25 -1.25 -538.8 1.5 -539.0 L1.65 -538.85 M17.75 -242.65 L2.3 -238.65 Q0.4 -238.65 -0.4 -241.1 -1.0 -243.05 -1.3 -248.25 -2.45 -266.8 -4.0 -275.75 L-4.0 -297.1 -4.6 -297.45 -4.8 -298.0 -4.8 -315.3 -5.0 -316.9 -5.4 -320.4 Q-5.9 -314.1 -5.25 -307.75 L-5.25 -288.3 Q-5.75 -286.35 -5.75 -283.65 -5.75 -262.2 -3.8 -223.9 L-1.65 -197.1 Q0.35 -171.55 0.35 -164.55 0.35 -162.25 -0.95 -161.4 -1.65 -160.9 -3.75 -160.55 -7.85 -159.95 -7.85 -156.05 L-7.55 -153.05 -7.25 -149.25 -7.4 -149.05 Q-7.55 -148.85 -6.8 -148.85 -6.2 -148.85 1.85 -151.65 L16.5 -156.6 21.25 -156.6 Q23.0 -154.9 24.3 -147.35 25.25 -141.65 25.25 -139.3 25.25 -137.7 15.5 -133.4 5.1 -128.85 4.0 -127.0 L4.0 -100.6 3.5 -99.5 3.5 -90.5 12.2 -94.15 Q18.55 -96.85 21.25 -97.6 L25.3 -97.6 Q28.8 -92.7 29.75 -85.5 L31.4 -73.3 Q35.0 -52.35 35.0 -48.85 L34.95 -46.7 Q34.75 -46.0 33.4 -45.55 L16.9 -41.75 12.95 -40.05 Q9.85 -38.6 8.25 -38.35 L-1.45 -36.9 Q-6.3 -36.05 -6.3 -35.05 -6.3 -32.6 -5.55 -27.55 -4.7 -21.85 -4.6 -19.85 L-4.25 -12.65 -3.75 -5.1 -0.05 -6.55 Q3.15 -7.85 5.0 -8.05 8.45 -10.7 28.3 -14.05 29.45 -12.2 29.35 -8.6 29.2 -3.65 29.35 -2.8 L30.8 8.35 Q31.7 15.35 32.8 19.6 L36.8 18.75 42.9 17.15 45.5 17.15 Q46.95 18.25 48.05 22.05 L48.6 24.2 48.65 24.0 Q50.3 19.8 51.45 19.8 53.25 19.8 53.3 21.85 53.35 22.9 53.0 24.3 L53.1 24.5 Q56.85 23.5 59.15 20.35 L60.15 18.75 Q58.3 17.3 55.85 7.6 54.45 1.9 53.4 -3.9 53.4 -4.9 62.35 -11.7 L62.4 -11.75 Q61.35 -15.1 60.5 -21.3 56.65 -18.9 55.35 -18.75 L53.25 -18.75 Q51.0 -21.8 50.1 -26.1 49.7 -28.1 49.25 -33.75 L48.65 -41.25 47.75 -48.85 Q46.6 -55.55 46.3 -63.95 46.15 -67.95 46.15 -79.1 L42.8 -77.45 Q40.2 -76.1 39.3 -76.15 L37.25 -76.15 Q34.05 -78.8 33.55 -83.7 L33.25 -91.55 31.2 -100.2 29.6 -107.1 Q29.6 -109.25 34.45 -110.35 42.4 -112.2 46.55 -114.25 47.9 -114.9 48.2 -118.35 L48.25 -124.15 Q48.25 -131.4 47.25 -142.25 L45.65 -160.25 39.6 -158.9 34.65 -157.4 30.5 -157.4 Q27.25 -160.9 26.55 -168.15 26.15 -172.05 26.0 -178.6 L24.8 -189.3 Q24.1 -196.3 23.4 -200.0 22.85 -203.1 22.15 -210.65 21.5 -217.75 20.8 -221.3 20.5 -222.75 20.05 -234.4 19.7 -242.65 17.75 -242.65 M16.9 -152.5 Q15.05 -152.1 -7.75 -144.0 -10.25 -144.0 -11.25 -150.0 -11.75 -153.0 -11.75 -156.25 -11.75 -160.0 -11.25 -160.95 -9.8 -163.6 -3.75 -165.55 -5.6 -183.9 -8.1 -225.0 -9.65 -250.5 -9.65 -284.35 L-9.6 -294.65 -10.15 -294.4 -11.2 -297.4 -10.95 -294.5 Q-9.9 -282.85 -9.9 -270.6 L-10.4 -236.65 Q-10.4 -234.0 -14.0 -230.1 L-17.65 -226.0 Q-17.65 -225.1 -14.85 -217.35 -11.85 -208.9 -11.5 -207.35 L-9.25 -197.0 -7.85 -189.3 Q-7.85 -186.95 -11.0 -186.15 L-20.75 -183.55 -22.75 -160.1 -24.2 -140.75 Q-23.35 -140.6 -23.35 -138.15 -23.35 -137.2 -23.85 -136.2 L-24.2 -135.55 -23.85 -134.7 Q-20.9 -135.4 -19.5 -136.5 -18.2 -137.5 -17.3 -137.5 -15.15 -137.5 -13.8 -123.35 L-12.1 -100.35 Q-10.85 -87.8 -10.55 -81.75 L-9.5 -72.4 Q-9.3 -71.2 -7.5 -67.4 -5.75 -63.8 -5.75 -63.1 -5.75 -60.05 -13.05 -56.65 -24.45 -51.3 -26.5 -49.9 L-20.15 -39.55 Q-16.1 -32.55 -16.1 -32.05 -16.1 -30.3 -21.2 -28.3 -24.35 -27.05 -33.25 -23.9 -32.45 -21.85 -27.85 -12.8 L-26.0 -9.15 -25.4 -9.0 -24.85 -6.75 -23.85 -4.1 Q-23.85 -3.5 -24.15 -3.0 -23.3 2.4 -22.85 9.15 -22.65 12.55 -20.65 19.9 L-18.75 27.0 Q-18.75 28.55 -19.6 29.05 L-18.9 30.6 Q-15.75 36.6 -10.7 36.6 -6.6 36.6 -3.65 35.45 -0.2 34.15 1.05 34.0 1.95 33.25 1.95 32.5 L1.9 30.7 1.7 29.65 1.15 25.15 Q1.15 22.8 2.2 17.8 L3.75 10.8 4.25 3.65 4.9 -3.5 5.15 -3.75 Q1.95 -3.6 -0.45 -2.1 -2.8 -0.6 -4.6 -0.6 -7.55 -0.6 -8.0 -7.55 L-8.25 -18.3 -9.7 -27.3 Q-10.75 -33.4 -10.75 -36.25 -10.75 -37.45 -10.2 -38.0 L-5.5 -40.5 Q-2.95 -41.55 3.6 -42.45 L11.0 -43.55 19.35 -46.4 Q25.0 -48.1 31.15 -49.25 30.1 -54.85 27.5 -71.35 25.35 -85.25 23.5 -93.5 18.35 -93.55 12.5 -90.8 L4.6 -86.5 2.05 -86.5 Q0.45 -87.6 -0.1 -91.3 L-0.35 -94.75 Q-0.35 -99.25 0.1 -101.5 L0.1 -128.3 Q1.25 -131.95 11.15 -136.35 L20.8 -140.5 20.3 -146.1 Q19.75 -149.8 19.75 -152.5 L16.9 -152.5 M9.15 -4.55 Q9.15 1.35 7.35 12.25 5.55 23.15 5.55 29.75 L5.55 32.1 5.55 32.25 7.55 33.9 Q12.35 37.5 14.05 37.5 19.25 37.5 23.6 32.15 L26.3 28.45 Q27.5 26.8 28.1 26.8 29.1 26.8 30.5 30.1 31.95 33.35 34.85 33.35 37.85 33.35 40.3 30.5 42.7 27.65 43.65 27.65 44.1 27.65 44.5 27.95 L44.15 26.8 43.3 21.3 33.1 24.15 31.0 24.15 Q28.25 21.15 27.4 15.95 L26.5 7.25 Q25.5 0.85 25.5 -9.8 L9.05 -5.45 9.15 -4.55 M73.3 -14.55 L73.05 -15.0 67.1 -10.55 67.1 -10.25 Q67.1 -7.85 65.15 -7.85 64.65 -7.85 64.15 -8.3 57.8 -3.3 57.8 -1.6 57.8 0.0 58.8 3.45 L59.85 7.85 61.45 12.4 62.25 14.55 Q63.05 14.65 64.1 16.45 L65.25 18.7 66.95 18.7 Q70.6 15.6 72.25 10.2 L73.75 5.2 73.6 4.6 73.6 -14.3 Q73.4 -14.3 73.3 -14.55 M77.55 -2.0 L78.3 -8.65 Q78.3 -10.1 77.7 -13.1 77.85 -9.55 77.5 -5.25 L77.5 -1.45 77.55 -2.0 M80.55 -5.85 L80.35 -6.05 80.35 -5.8 80.55 -5.8 80.55 -5.85 M28.0 30.05 L27.9 30.2 28.1 30.3 28.0 30.05 M-4.35 -470.75 Q-6.7 -465.7 -7.35 -461.35 -8.45 -454.05 -8.0 -439.8 L-7.35 -426.05 Q-7.35 -414.65 -8.35 -391.3 -9.4 -368.0 -9.4 -356.75 -9.4 -346.2 -9.0 -334.6 L-8.45 -323.85 Q-7.4 -324.5 -5.5 -322.35 -5.5 -323.5 -4.8 -324.0 L-4.8 -329.65 Q-4.3 -335.75 -4.3 -348.35 -4.3 -352.45 -5.05 -380.5 -5.8 -408.6 -5.8 -417.3 -5.8 -434.15 -5.05 -444.95 -4.3 -455.7 -4.3 -466.75 L-4.35 -470.75 M-12.75 -317.8 L-12.85 -317.45 -13.0 -317.35 Q-13.05 -313.25 -13.45 -311.15 -12.85 -311.05 -12.5 -310.3 L-12.5 -318.6 -12.75 -317.8 M-9.6 -306.9 L-9.6 -307.15 -9.6 -306.9 M-19.8 -283.3 Q-24.9 -278.4 -24.9 -276.65 -24.9 -273.95 -22.05 -265.35 -19.25 -256.75 -19.25 -252.0 -19.25 -247.5 -26.95 -242.1 -37.0 -235.0 -39.9 -231.0 -42.7 -227.15 -43.6 -221.1 -44.25 -216.9 -44.05 -210.5 -43.8 -202.45 -44.85 -189.9 L-46.65 -168.9 -46.65 -149.5 Q-47.3 -143.9 -47.7 -131.85 -48.05 -119.85 -48.75 -114.25 L-48.75 -109.9 Q-49.5 -109.4 -48.25 -109.4 -47.9 -109.4 -44.05 -111.0 -40.25 -112.65 -38.55 -112.65 -32.15 -112.65 -31.1 -105.75 -31.05 -97.75 -30.6 -95.55 -29.55 -90.55 -29.55 -78.1 L-29.55 -69.15 Q-29.55 -68.0 -30.15 -66.95 -30.95 -65.5 -32.55 -65.3 -38.1 -64.55 -40.45 -63.2 L-43.65 -61.15 Q-47.95 -59.4 -49.15 -56.9 -49.85 -55.45 -49.75 -52.25 -49.55 -46.5 -49.75 -43.65 L-50.35 -34.95 Q-50.7 -29.7 -51.3 -26.25 -51.3 -23.25 -51.8 -21.65 -52.55 -19.35 -55.35 -18.15 L-54.9 -15.75 Q-54.25 -12.2 -53.9 -7.6 -53.75 -5.3 -51.75 1.5 L-49.75 8.6 Q-49.75 9.25 -50.45 10.2 -51.1 11.05 -51.9 11.25 L-52.45 13.35 -53.2 15.75 Q-53.2 19.7 -51.05 23.05 -47.9 27.9 -41.3 27.9 -37.5 27.9 -36.3 25.95 L-35.0 24.0 -35.0 23.8 -35.1 23.5 -34.95 23.35 -34.25 15.6 Q-33.6 9.85 -34.0 6.3 -34.5 0.95 -31.75 -4.45 L-30.25 -6.85 -30.3 -7.0 -32.4 -13.25 -35.35 -18.45 Q-37.6 -22.6 -37.6 -24.55 -37.6 -26.85 -32.2 -28.5 -23.6 -31.15 -21.65 -32.15 L-21.4 -32.1 Q-21.15 -32.2 -21.15 -33.0 L-31.9 -51.0 Q-31.9 -52.25 -21.9 -57.4 -10.7 -63.15 -10.3 -63.5 -14.45 -70.2 -15.15 -80.45 L-15.85 -98.0 -17.45 -115.0 Q-18.35 -125.15 -18.5 -132.15 -22.2 -130.65 -24.8 -130.0 L-27.35 -130.0 Q-29.3 -131.4 -29.3 -132.6 -29.3 -134.55 -28.25 -136.55 L-27.2 -151.05 -25.75 -164.65 Q-25.75 -173.1 -25.05 -179.0 -24.65 -182.75 -24.65 -186.0 -23.2 -187.8 -18.55 -188.75 -13.1 -189.9 -12.25 -190.4 -13.5 -195.3 -15.75 -206.2 -18.0 -216.1 -21.05 -222.5 L-23.3 -220.7 Q-24.5 -220.0 -25.05 -220.0 -26.7 -220.0 -27.1 -220.85 L-27.25 -221.85 Q-27.25 -222.45 -21.0 -228.35 -14.8 -235.05 -14.8 -239.85 L-13.8 -270.55 Q-13.8 -279.6 -14.4 -288.35 L-19.8 -283.3 M-66.55 -3.4 Q-65.8 2.1 -65.8 4.0 -65.8 9.15 -67.5 10.0 L-67.35 11.0 Q-65.65 17.0 -58.55 17.0 -57.3 17.0 -56.2 12.85 -55.5 10.15 -54.45 8.6 L-54.3 7.05 -55.95 1.3 Q-57.65 -4.3 -57.75 -6.05 -57.8 -7.8 -58.85 -13.45 L-59.45 -16.8 Q-62.55 -15.6 -64.75 -13.65 -67.35 -11.35 -67.35 -9.55 L-66.55 -3.4 M-28.1 -3.05 Q-29.25 -0.05 -30.0 9.3 -30.6 17.3 -30.6 24.65 -30.6 26.25 -31.85 26.65 L-31.7 28.1 Q-30.85 33.35 -26.6 33.35 -23.7 33.35 -23.35 26.85 -25.3 22.9 -26.75 12.75 L-27.3 4.65 Q-27.5 -0.15 -27.8 -2.8 L-28.1 -3.05 M-55.35 17.4 L-55.5 17.7 -55.15 18.0 -55.35 17.4" fill="#ffffff" fill-opacity="0.49803922" fill-rule="evenodd" stroke="none"/>
  </g>
  <defs>
    <linearGradient gradientTransform="matrix(0.0, 0.0608, -0.0218, 0.0, 42.15, -526.75)" gradientUnits="userSpaceOnUse" id="gradient0" spreadMethod="pad" x1="-819.2" x2="819.2">
      <stop offset="0.0" stop-color="#ffffff" stop-opacity="0.0"/>
      <stop offset="1.0" stop-color="#ffffff" stop-opacity="0.49803922"/>
    </linearGradient>
  </defs>
</svg>
