<?xml version="1.0" encoding="UTF-8" standalone="no"?>
<svg xmlns:ffdec="https://www.free-decompiler.com/flash" xmlns:xlink="http://www.w3.org/1999/xlink" ffdec:objectType="shape" height="638.6px" width="163.0px" xmlns="http://www.w3.org/2000/svg">
  <g transform="matrix(1.0, 0.0, 0.0, 1.0, 80.1, 593.95)">
    <path d="M-65.05 -487.95 L-54.7 -487.95 -54.7 -487.85 -54.8 -485.6 -55.1 -471.45 -55.1 -470.95 -55.1 -467.0 -55.05 -464.7 -54.7 -443.75 Q-54.6 -448.05 -52.65 -463.3 L-49.55 -487.95 65.55 -487.95 65.55 -161.35 Q66.4 -158.7 66.4 -149.4 L66.4 -145.35 Q66.4 -140.4 66.05 -138.55 L65.8 -123.9 65.25 -94.35 Q65.25 -40.55 74.1 -20.95 74.65 -19.7 80.15 -10.6 82.9 -6.05 82.9 -0.15 82.9 6.6 78.85 13.7 74.2 21.9 65.25 28.35 42.5 44.65 0.15 44.65 -20.15 44.65 -30.95 41.75 -35.4 40.55 -41.45 38.05 L-53.85 32.95 Q-65.65 28.25 -72.45 21.8 -80.1 14.45 -80.1 5.95 -80.1 -1.3 -77.55 -7.6 L-71.95 -19.15 Q-63.85 -36.55 -63.85 -66.25 -63.85 -73.35 -64.4 -103.0 L-64.95 -143.15 -65.0 -396.95 -65.05 -487.95 M8.6 -324.0 L3.95 -331.6 Q-7.2 -349.6 -14.95 -361.1 -20.75 -369.8 -40.3 -393.95 L-42.7 -396.95 Q-53.75 -431.3 -54.65 -441.55 L-53.9 -418.25 Q-50.15 -410.75 -47.45 -404.35 L-44.5 -396.95 Q-34.65 -386.2 -26.3 -367.65 -24.55 -363.7 -2.1 -329.45 L1.2 -324.4 Q19.3 -296.6 19.3 -295.1 19.3 -293.4 13.95 -289.1 8.55 -284.8 8.55 -283.5 8.55 -283.05 12.85 -274.25 17.15 -265.45 17.15 -262.35 17.15 -259.6 13.3 -256.85 L0.75 -249.15 -0.6 -248.3 -5.6 -245.15 Q-29.75 -229.8 -56.4 -206.35 -50.8 -203.75 -47.45 -190.8 -44.85 -177.1 -44.05 -174.65 -41.95 -174.6 -28.6 -183.95 -14.8 -193.55 -12.85 -194.0 L-2.75 -173.1 5.85 -155.25 13.85 -138.45 24.95 -115.25 26.25 -112.5 35.95 -92.45 28.9 -86.65 23.35 -82.55 Q11.3 -73.75 6.35 -72.05 8.0 -70.1 9.55 -62.2 10.85 -54.3 11.25 -52.75 L11.25 -52.7 10.7 -52.65 -7.45 -45.35 Q-25.55 -38.05 -30.55 -37.05 -31.1 -34.2 -31.1 -30.55 -31.15 -27.5 -31.6 -26.25 -32.95 -22.7 -44.6 -16.05 L-49.6 -12.95 Q-51.65 -11.3 -52.1 -8.55 L-53.4 -2.3 -54.2 1.55 -54.2 2.65 -53.7 1.9 -48.2 -5.95 -41.9 -14.4 -39.95 -12.45 Q-39.15 -11.35 -39.15 -10.15 -35.7 -11.85 -30.7 -17.8 -24.65 -25.0 -27.4 -28.45 -14.1 -35.4 -1.6 -41.65 10.9 -47.9 13.3 -48.85 13.95 -46.95 15.25 -38.95 L17.15 -28.45 Q17.95 -28.45 24.0 -31.6 29.85 -34.65 31.1 -34.35 L38.05 -8.95 Q43.45 10.6 43.45 16.05 L46.2 14.4 47.3 14.4 47.3 19.85 Q46.75 20.35 46.75 22.55 L46.55 22.55 Q45.5 22.65 43.2 23.8 41.0 24.9 40.8 25.2 L40.8 25.75 39.9 26.15 39.65 29.2 39.85 29.3 40.3 29.4 Q41.2 29.4 42.25 27.9 43.8 25.55 44.8 24.6 44.8 26.9 45.3 27.85 L45.6 27.7 45.95 27.05 47.1 25.3 Q47.95 23.75 48.0 22.5 L48.0 22.2 48.1 22.45 49.0 23.65 50.5 25.2 50.5 21.95 50.75 21.75 50.6 21.2 Q51.85 20.7 52.55 20.9 L52.6 20.65 Q52.75 20.35 53.1 20.35 50.85 19.8 50.2 15.7 49.9 13.95 49.9 10.15 49.45 10.15 48.5 10.7 47.6 11.25 46.75 11.25 44.5 -2.25 41.9 -14.15 36.7 -37.6 32.7 -37.6 L27.5 -35.4 21.45 -32.75 Q20.8 -33.7 19.8 -38.05 18.75 -42.55 18.2 -43.5 L25.0 -45.4 Q30.6 -46.75 32.7 -46.75 35.4 -46.75 42.35 -31.95 L50.45 -13.95 Q55.3 -4.8 68.85 8.15 L69.75 9.0 69.75 8.25 71.7 10.1 71.95 10.05 69.75 3.55 69.7 3.45 68.6 0.05 67.85 0.6 64.95 -4.0 56.35 -18.25 47.25 -34.65 Q38.5 -49.95 37.25 -49.95 L28.7 -49.65 19.85 -49.4 19.75 -49.55 Q18.55 -51.5 15.8 -58.2 L11.75 -68.2 23.05 -77.05 30.85 -82.85 41.35 -90.25 17.5 -139.15 Q10.55 -153.9 5.25 -166.35 L5.05 -169.5 4.05 -169.1 Q-0.2 -179.1 -3.3 -187.5 -6.5 -196.1 -8.55 -203.05 L-10.15 -203.05 Q-11.35 -201.3 -23.65 -192.0 L-40.25 -179.4 Q-41.35 -181.6 -47.85 -204.25 -47.85 -208.5 -27.0 -221.7 -14.4 -229.65 -4.85 -235.8 L0.15 -239.0 Q15.55 -248.9 21.45 -253.1 23.45 -250.0 29.75 -233.1 35.95 -216.35 35.95 -214.15 35.95 -212.15 34.7 -210.7 L30.0 -206.35 32.0 -190.7 Q33.8 -177.35 37.5 -165.0 L44.45 -141.9 46.55 -133.9 43.55 -160.1 Q39.4 -193.4 35.95 -200.45 L45.65 -206.65 Q45.65 -210.95 33.95 -238.85 17.4 -278.2 15.5 -283.25 16.05 -283.25 16.05 -283.8 17.85 -284.05 22.0 -286.65 26.95 -289.75 27.9 -290.15 24.75 -297.55 8.6 -324.0 M48.8 -282.75 L48.5 -277.75 48.5 -266.65 48.8 -270.0 48.8 -282.75 M47.85 -238.5 L47.8 -237.85 48.05 -236.75 48.05 -238.6 47.85 -238.5 M48.45 -209.4 L48.6 -209.2 48.7 -216.45 48.5 -211.0 48.45 -209.4 M47.5 -191.3 L47.6 -191.0 47.55 -191.85 47.5 -191.3 M68.25 10.35 L69.75 11.35 69.75 9.15 68.25 10.35 M67.9 8.2 L68.75 8.35 68.75 8.3 67.9 8.2 M66.7 13.45 L67.55 13.6 67.4 11.7 67.0 12.55 66.7 13.45 M-31.8 -71.95 L-31.1 -73.05 -31.1 -73.6 -31.8 -71.95 -32.8 -70.3 -32.0 -71.55 -31.8 -71.95 M-49.65 -376.85 L-50.6 -376.75 -50.6 -376.7 -49.65 -376.85 M-65.1 -13.95 L-65.0 -14.4 -65.05 -14.45 -65.1 -13.95 M-68.85 10.35 L-67.45 9.85 -66.35 9.35 -66.6 9.1 Q-67.2 8.15 -68.1 7.55 L-68.6 7.25 -68.85 8.75 -68.85 10.35" fill="#ffffff" fill-opacity="0.6509804" fill-rule="evenodd" stroke="none"/>
    <path d="M-54.7 -487.95 L-49.55 -487.95 -52.65 -463.3 Q-54.6 -448.05 -54.7 -443.75 L-55.05 -464.7 -55.1 -467.0 -55.1 -470.95 -55.1 -471.45 -54.8 -485.6 -54.7 -487.85 -54.7 -487.95 M8.6 -324.0 Q24.75 -297.55 27.9 -290.15 26.95 -289.75 22.0 -286.65 17.85 -284.05 16.05 -283.8 16.05 -283.25 15.5 -283.25 17.4 -278.2 33.95 -238.85 45.65 -210.95 45.65 -206.65 L35.95 -200.45 Q39.4 -193.4 43.55 -160.1 L46.55 -133.9 44.45 -141.9 37.5 -165.0 Q33.8 -177.35 32.0 -190.7 L30.0 -206.35 34.7 -210.7 Q35.95 -212.15 35.95 -214.15 35.95 -216.35 29.75 -233.1 23.45 -250.0 21.45 -253.1 15.55 -248.9 0.15 -239.0 L-4.85 -235.8 Q-14.4 -229.65 -27.0 -221.7 -47.85 -208.5 -47.85 -204.25 -41.35 -181.6 -40.25 -179.4 L-23.65 -192.0 Q-11.35 -201.3 -10.15 -203.05 L-8.55 -203.05 Q-6.5 -196.1 -3.3 -187.5 -0.2 -179.1 4.05 -169.1 L5.05 -169.5 5.25 -166.35 Q10.55 -153.9 17.5 -139.15 L41.35 -90.25 30.85 -82.85 23.05 -77.05 11.75 -68.2 15.8 -58.2 Q18.55 -51.5 19.75 -49.55 L19.85 -49.4 28.7 -49.65 37.25 -49.95 Q38.5 -49.95 47.25 -34.65 L56.35 -18.25 64.95 -4.0 67.85 0.6 68.6 0.05 69.7 3.45 69.75 3.55 71.95 10.05 71.7 10.1 69.75 8.25 69.75 9.0 68.85 8.15 Q55.3 -4.8 50.45 -13.95 L42.35 -31.95 Q35.4 -46.75 32.7 -46.75 30.6 -46.75 25.0 -45.4 L18.2 -43.5 Q18.75 -42.55 19.8 -38.05 20.8 -33.7 21.45 -32.75 L27.5 -35.4 32.7 -37.6 Q36.7 -37.6 41.9 -14.15 44.5 -2.25 46.75 11.25 47.6 11.25 48.5 10.7 49.45 10.15 49.9 10.15 49.9 13.95 50.2 15.7 50.85 19.8 53.1 20.35 52.75 20.35 52.6 20.65 L52.55 20.9 Q51.85 20.7 50.6 21.2 L50.75 21.75 50.5 21.95 50.5 25.2 49.0 23.65 48.1 22.45 48.0 22.2 48.0 22.5 Q47.95 23.75 47.1 25.3 L45.95 27.05 45.6 27.7 45.3 27.85 Q44.8 26.9 44.8 24.6 43.8 25.55 42.25 27.9 41.2 29.4 40.3 29.4 L39.85 29.3 39.65 29.2 39.9 26.15 40.8 25.75 40.8 25.2 Q41.0 24.9 43.2 23.8 45.5 22.65 46.55 22.55 L46.75 22.55 Q46.75 20.35 47.3 19.85 L47.3 14.4 46.2 14.4 43.45 16.05 Q43.45 10.6 38.05 -8.95 L31.1 -34.35 Q29.85 -34.65 24.0 -31.6 17.95 -28.45 17.15 -28.45 L15.25 -38.95 Q13.95 -46.95 13.3 -48.85 10.9 -47.9 -1.6 -41.65 -14.1 -35.4 -27.4 -28.45 -24.65 -25.0 -30.7 -17.8 -35.7 -11.85 -39.15 -10.15 -39.15 -11.35 -39.95 -12.45 L-41.9 -14.4 -48.2 -5.95 -53.7 1.9 -54.2 2.65 -54.2 1.55 -53.4 -2.3 -52.1 -8.55 Q-51.65 -11.3 -49.6 -12.95 L-44.6 -16.05 Q-32.95 -22.7 -31.6 -26.25 -31.15 -27.5 -31.1 -30.55 -31.1 -34.2 -30.55 -37.05 -25.55 -38.05 -7.45 -45.35 L10.7 -52.65 11.25 -52.7 11.25 -52.75 Q10.85 -54.3 9.55 -62.2 8.0 -70.1 6.35 -72.05 11.3 -73.75 23.35 -82.55 L28.9 -86.65 35.95 -92.45 26.25 -112.5 24.95 -115.25 13.85 -138.45 5.85 -155.25 -2.75 -173.1 -12.85 -194.0 Q-14.8 -193.55 -28.6 -183.95 -41.95 -174.6 -44.05 -174.65 -44.85 -177.1 -47.45 -190.8 -50.8 -203.75 -56.4 -206.35 -29.75 -229.8 -5.6 -245.15 L-0.6 -248.3 0.75 -249.15 13.3 -256.85 Q17.15 -259.6 17.15 -262.35 17.15 -265.45 12.85 -274.25 8.55 -283.05 8.55 -283.5 8.55 -284.8 13.95 -289.1 19.3 -293.4 19.3 -295.1 19.3 -296.6 1.2 -324.4 L-2.1 -329.45 Q-24.55 -363.7 -26.3 -367.65 -34.65 -386.2 -44.5 -396.95 L-47.45 -404.35 Q-50.15 -410.75 -53.9 -418.25 L-54.65 -441.55 Q-53.75 -431.3 -42.7 -396.95 L-40.3 -393.95 Q-20.75 -369.8 -14.95 -361.1 -7.2 -349.6 3.95 -331.6 L8.6 -324.0 M68.25 10.35 L69.75 9.15 69.75 11.35 68.25 10.35 M47.5 -191.3 L47.55 -191.85 47.6 -191.0 47.5 -191.3 M48.45 -209.4 L48.5 -211.0 48.7 -216.45 48.6 -209.2 48.45 -209.4 M47.85 -238.5 L48.05 -238.6 48.05 -236.75 47.8 -237.85 47.85 -238.5 M48.8 -282.75 L48.8 -270.0 48.5 -266.65 48.5 -277.75 48.8 -282.75 M66.7 13.45 L67.0 12.55 67.4 11.7 67.55 13.6 66.7 13.45 M-49.65 -376.85 L-50.6 -376.7 -50.6 -376.75 -49.65 -376.85 M-31.8 -71.95 L-32.0 -71.55 -32.8 -70.3 -31.8 -71.95 -31.1 -73.6 -31.1 -73.05 -31.8 -71.95 M-68.85 10.35 L-68.85 8.75 -68.6 7.25 -68.1 7.55 Q-67.2 8.15 -66.6 9.1 L-66.35 9.35 -67.45 9.85 -68.85 10.35 M-65.1 -13.95 L-65.05 -14.45 -65.0 -14.4 -65.1 -13.95" fill="#ffffff" fill-rule="evenodd" stroke="none"/>
    <path d="M67.9 8.2 L68.75 8.3 68.75 8.35 67.9 8.2" fill="#05afd0" fill-rule="evenodd" stroke="none"/>
    <path d="M-65.05 -487.95 L-65.45 -593.95 65.5 -593.95 65.55 -487.95 -49.55 -487.95 -54.7 -487.95 -65.05 -487.95" fill="url(#gradient0)" fill-rule="evenodd" stroke="none"/>
  </g>
  <defs>
    <linearGradient gradientTransform="matrix(0.0, 0.0478, -0.0218, 0.0, 41.35, -535.8)" gradientUnits="userSpaceOnUse" id="gradient0" spreadMethod="pad" x1="-819.2" x2="819.2">
      <stop offset="0.0" stop-color="#ffffff" stop-opacity="0.0"/>
      <stop offset="1.0" stop-color="#ffffff" stop-opacity="0.6509804"/>
    </linearGradient>
  </defs>
</svg>
