<?xml version="1.0" encoding="UTF-8" standalone="no"?>
<svg xmlns:ffdec="https://www.free-decompiler.com/flash" xmlns:xlink="http://www.w3.org/1999/xlink" ffdec:objectType="shape" height="551.7px" width="139.0px" xmlns="http://www.w3.org/2000/svg">
  <g transform="matrix(1.0, 0.0, 0.0, 1.0, 64.95, 566.25)">
    <path d="M63.7 -163.15 Q67.65 -156.4 67.65 -144.9 67.65 -137.45 67.15 -131.1 L66.15 -130.95 Q63.25 -147.6 48.45 -163.15 33.45 -178.95 -3.75 -201.4 -39.05 -222.65 -53.3 -246.05 -64.65 -264.75 -64.9 -289.8 L-64.0 -289.85 Q-63.65 -276.9 -59.85 -266.85 -49.85 -240.4 -6.5 -210.7 6.7 -201.65 24.65 -192.85 40.45 -185.1 47.4 -179.55 59.75 -169.85 63.7 -163.15" fill="#ffffff" fill-opacity="0.7058824" fill-rule="evenodd" stroke="none"/>
    <path d="M63.75 -296.6 Q63.75 -279.15 44.1 -255.1 36.65 -245.95 24.0 -232.9 L0.9 -209.5 Q-28.75 -179.25 -42.3 -158.3 -61.95 -128.0 -61.95 -99.9 -61.95 -78.8 -43.0 -69.95 -35.4 -66.4 -23.2 -63.95 L0.0 -60.25 Q31.75 -55.6 46.15 -48.45 67.8 -37.7 74.05 -14.75 L73.5 -14.55 Q71.45 -22.2 63.1 -31.1 55.1 -39.55 46.7 -43.65 40.6 -46.6 12.8 -48.65 L-18.75 -51.0 Q-48.8 -56.85 -58.05 -70.15 -62.3 -76.25 -63.8 -85.55 -64.95 -92.55 -64.95 -105.6 -64.95 -117.85 -64.1 -124.8 -62.85 -134.75 -59.15 -143.9 -50.75 -164.75 -23.0 -194.85 -11.25 -207.6 7.95 -226.0 29.35 -246.5 35.45 -252.85 48.85 -266.8 55.4 -277.55 61.35 -287.35 63.1 -296.75 L63.75 -296.6" fill="#ffffff" fill-opacity="0.7058824" fill-rule="evenodd" stroke="none"/>
    <path d="M0.75 -565.05 L0.25 -560.55 -0.25 -556.05 Q-0.25 -549.1 2.25 -511.75 4.75 -474.35 4.75 -461.9 4.75 -445.5 3.0 -423.7 L3.0 -423.3 Q4.15 -403.35 7.5 -387.4 8.5 -382.55 12.95 -366.75 L17.0 -351.6 13.4 -342.3 Q9.55 -332.05 8.6 -325.25 L6.15 -312.1 Q4.5 -303.95 4.15 -298.5 L3.1 -298.0 3.25 -296.85 4.45 -289.2 Q6.4 -280.2 12.7 -274.5 26.0 -271.55 29.25 -268.65 30.7 -267.4 31.0 -265.55 L31.15 -261.6 Q31.15 -255.55 29.1 -250.2 L24.6 -240.8 Q18.05 -227.75 18.05 -210.7 18.05 -206.0 18.3 -204.55 L20.0 -196.9 Q21.85 -189.25 24.15 -186.45 26.4 -183.7 30.7 -183.7 34.75 -183.7 37.45 -186.8 40.35 -190.15 43.2 -190.45 46.15 -188.55 47.65 -185.6 L49.95 -180.0 Q51.8 -175.85 52.05 -174.2 L52.1 -169.2 Q52.1 -166.65 50.65 -157.0 49.0 -146.15 47.7 -143.65 46.75 -141.85 42.7 -137.25 38.95 -133.05 38.15 -130.95 L35.75 -124.6 Q34.65 -121.4 34.65 -118.45 34.65 -116.9 36.6 -112.4 38.55 -107.9 38.55 -103.7 38.55 -97.75 35.95 -91.65 33.35 -85.55 33.35 -81.15 33.35 -78.45 35.6 -72.95 L39.0 -64.8 38.8 -64.2 Q38.6 -63.9 37.9 -63.9 35.85 -63.9 33.3 -72.45 32.05 -76.75 31.15 -81.15 31.15 -86.15 33.8 -92.6 36.45 -99.0 36.45 -103.6 36.45 -108.4 34.45 -111.85 32.45 -115.3 32.45 -118.45 32.45 -124.95 35.65 -130.55 L45.1 -144.0 Q46.6 -146.15 48.4 -156.8 49.95 -166.2 49.95 -169.2 46.45 -188.15 42.85 -188.15 40.45 -188.15 37.4 -184.75 34.35 -181.35 30.95 -181.35 22.05 -181.35 18.15 -194.4 15.85 -202.1 15.85 -210.75 15.85 -215.25 17.2 -224.75 18.55 -234.25 19.5 -236.3 22.9 -243.6 26.75 -249.95 28.95 -254.3 28.95 -261.55 28.95 -265.25 28.4 -266.15 26.9 -268.55 20.45 -270.35 L15.35 -271.45 Q11.25 -272.5 9.45 -274.4 6.65 -277.25 5.5 -279.6 4.6 -281.35 2.65 -289.4 0.6 -297.8 0.6 -300.6 0.6 -303.55 1.7 -304.4 L2.0 -303.35 Q2.75 -309.45 6.15 -326.5 7.25 -330.65 11.1 -341.45 14.5 -350.9 14.5 -351.65 L10.25 -366.65 Q5.65 -382.1 4.65 -387.55 2.7 -398.15 1.6 -408.75 L0.75 -400.5 Q-3.3 -363.65 -3.3 -335.05 -3.3 -328.25 -2.25 -316.3 L-2.4 -315.15 -2.6 -314.95 -3.55 -314.75 Q-5.4 -314.75 -5.8 -324.8 -6.0 -329.85 -5.8 -335.05 -5.8 -364.25 -1.75 -401.45 L0.45 -424.45 Q0.05 -431.7 -2.1 -459.15 -3.8 -481.35 -3.8 -495.0 L-3.55 -508.8 Q-2.9 -518.35 -0.55 -516.1 -2.75 -550.15 -2.75 -555.9 L-2.6 -561.3 Q-2.15 -564.75 -0.5 -566.25 L0.35 -566.0 Q0.75 -565.85 0.75 -565.05 M1.7 -442.4 Q2.25 -453.1 2.25 -461.85 2.25 -473.35 -0.25 -511.55 L-0.35 -513.0 -1.25 -495.3 Q-1.25 -481.0 0.35 -459.4 L1.7 -442.4 M0.6 -198.75 Q0.6 -194.75 2.85 -191.85 3.75 -190.75 7.8 -187.3 15.0 -181.2 15.0 -171.2 15.0 -163.35 11.75 -158.4 L9.45 -154.75 Q8.45 -152.5 8.45 -149.45 L8.55 -148.45 Q8.8 -147.85 9.65 -147.45 L11.95 -147.45 13.6 -148.4 Q14.8 -149.0 16.5 -149.0 20.35 -149.0 21.6 -143.35 L22.05 -137.3 Q22.05 -132.0 19.75 -128.35 18.2 -125.95 14.65 -123.1 10.7 -119.95 9.5 -118.5 7.2 -115.5 7.2 -111.4 7.2 -108.3 12.2 -99.25 L16.35 -91.7 Q20.65 -87.9 22.85 -79.05 L22.85 -70.55 Q22.3 -70.2 21.75 -70.0 20.5 -71.7 20.5 -75.3 20.45 -79.55 19.8 -81.35 18.3 -85.45 15.65 -89.2 15.05 -89.75 14.35 -90.95 L12.8 -92.8 12.95 -93.7 9.9 -100.1 Q7.25 -103.6 6.15 -105.95 4.95 -108.6 4.95 -111.25 4.95 -115.6 7.25 -118.9 8.6 -120.8 12.4 -124.0 16.05 -127.15 17.5 -129.3 19.8 -132.75 19.8 -137.45 19.8 -140.1 19.35 -142.35 18.45 -146.5 16.35 -146.5 15.1 -146.5 13.7 -145.75 12.3 -145.05 10.85 -145.05 7.05 -145.05 6.3 -147.05 5.95 -148.1 6.3 -149.4 6.3 -153.85 9.55 -159.2 12.8 -164.5 12.8 -171.25 12.8 -176.9 10.55 -180.65 9.15 -183.0 5.65 -185.9 1.95 -189.0 0.75 -190.75 -1.5 -193.95 -1.5 -198.75 L-0.65 -220.4 Q0.15 -240.5 0.15 -246.6 0.15 -254.2 -2.2 -266.55 -4.55 -278.9 -4.55 -285.85 -4.55 -299.9 -3.15 -309.4 -1.65 -310.0 -1.2 -308.95 -1.05 -308.6 -1.05 -307.6 -1.05 -304.75 -1.7 -295.7 L-2.35 -285.9 Q-2.35 -278.7 0.0 -266.75 2.35 -254.75 2.35 -246.6 L1.5 -220.2 0.6 -198.75 M12.15 -56.0 L12.9 -55.85 Q13.25 -55.7 13.25 -55.0 L12.85 -51.3 12.4 -47.6 Q12.4 -45.15 13.7 -40.1 L15.0 -35.55 14.9 -34.5 14.75 -34.35 13.95 -34.2 Q11.6 -34.2 10.65 -40.8 10.2 -44.1 10.2 -47.5 10.2 -51.05 10.35 -52.15 10.7 -55.25 12.15 -56.0 M15.65 -26.55 Q15.85 -26.4 15.85 -25.3 L15.65 -23.35 15.35 -21.0 14.4 -20.7 Q13.25 -21.85 13.25 -23.2 13.25 -24.9 13.4 -25.4 13.85 -26.95 15.65 -26.55 M-13.25 -543.3 Q-12.55 -543.05 -12.0 -542.3 L-12.0 -517.5 Q-8.65 -490.15 -6.95 -469.2 -4.8 -442.75 -4.8 -420.9 -4.8 -411.5 -5.15 -406.05 L-6.35 -386.9 Q-6.75 -379.4 -10.4 -367.55 -14.75 -353.5 -18.8 -353.5 -19.1 -353.5 -24.35 -359.35 -30.05 -365.65 -32.05 -367.05 L-34.3 -367.0 -34.8 -365.9 -34.85 -364.5 Q-34.85 -359.55 -30.65 -348.15 -26.8 -337.65 -24.15 -333.75 -20.0 -327.55 -18.05 -318.7 -17.2 -314.7 -16.4 -307.45 L-15.65 -307.65 -15.55 -307.5 -15.45 -306.7 Q-15.45 -305.65 -16.05 -304.35 L-16.0 -303.55 -16.4 -302.95 -17.1 -302.55 -18.45 -300.8 -25.05 -293.45 Q-34.65 -282.7 -34.65 -273.95 -34.65 -272.0 -33.1 -265.4 -31.6 -258.75 -31.6 -257.6 -31.6 -254.25 -35.6 -249.45 L-44.45 -239.8 Q-57.35 -225.2 -57.35 -209.8 -57.35 -207.0 -56.5 -203.0 -55.65 -198.75 -54.45 -196.35 -53.2 -193.85 -48.95 -190.8 -44.45 -187.6 -42.75 -184.7 -36.45 -174.2 -36.45 -158.05 L-36.45 -151.35 Q-36.8 -147.65 -38.8 -145.05 -41.0 -142.15 -41.4 -138.6 -41.5 -134.35 -41.75 -131.95 L-42.75 -131.55 Q-43.6 -132.0 -43.8 -133.55 L-43.85 -135.55 Q-43.85 -141.65 -41.2 -145.55 -38.6 -149.4 -38.6 -158.1 -38.6 -167.7 -39.4 -171.45 -40.75 -177.9 -46.0 -185.1 -47.15 -186.65 -52.05 -190.6 -56.1 -193.85 -57.05 -196.8 -59.55 -204.4 -59.55 -209.9 -59.55 -226.55 -46.65 -240.75 L-37.8 -250.0 Q-33.8 -254.5 -33.8 -257.55 L-35.35 -264.8 Q-36.9 -272.25 -36.9 -274.1 -36.9 -277.85 -34.95 -282.55 -33.15 -286.85 -29.95 -291.4 L-25.9 -295.8 Q-23.0 -298.7 -22.05 -300.25 L-19.2 -305.0 -18.8 -305.55 Q-18.55 -312.05 -20.75 -319.1 -22.55 -324.85 -27.2 -334.2 -32.6 -345.0 -34.15 -349.0 -37.4 -357.4 -37.4 -364.5 L-37.25 -367.35 Q-36.8 -368.5 -34.6 -369.75 L-32.05 -369.75 Q-26.6 -367.0 -23.45 -363.0 L-19.0 -356.25 Q-11.65 -365.3 -8.95 -386.95 -7.35 -399.95 -7.35 -420.9 -7.35 -452.6 -10.9 -484.15 -14.5 -515.65 -14.5 -529.55 L-14.45 -536.8 Q-14.2 -541.25 -13.25 -543.3 M-8.7 -296.3 Q-8.45 -296.15 -8.45 -295.0 L-11.3 -286.6 Q-14.15 -277.35 -14.15 -270.75 -14.15 -260.8 -10.0 -234.3 -5.85 -207.85 -5.85 -200.55 -5.85 -192.25 -10.2 -181.35 -14.6 -170.45 -14.6 -163.1 -14.6 -158.4 -13.3 -155.1 -12.6 -153.3 -10.45 -150.05 -6.3 -143.8 -6.3 -135.25 -6.3 -133.15 -7.3 -127.4 L-8.6 -120.2 -9.55 -119.75 Q-10.4 -120.05 -10.6 -120.65 L-10.65 -121.6 -9.55 -126.45 Q-8.45 -131.4 -8.45 -135.2 -8.45 -142.9 -12.6 -149.15 -16.75 -155.4 -16.75 -162.9 -16.75 -171.45 -12.4 -182.05 -8.1 -192.65 -8.1 -200.5 -8.1 -206.4 -12.2 -233.65 -16.35 -260.95 -16.35 -270.75 -16.35 -277.45 -14.2 -286.75 -11.65 -297.8 -8.7 -296.3 M-42.0 -101.75 L-38.15 -97.05 -38.15 -92.8 -39.25 -92.25 Q-40.45 -92.75 -40.4 -94.2 -40.35 -96.0 -41.1 -96.75 L-43.15 -98.95 Q-43.85 -99.95 -43.85 -101.15 -43.85 -104.05 -42.0 -101.75 M-10.85 -69.35 L-10.65 -67.7 Q-10.65 -66.7 -10.8 -66.05 L-11.75 -65.6 Q-12.75 -66.6 -12.85 -67.7 L-12.75 -69.25 -10.85 -69.35 M-15.45 -53.25 Q-15.45 -52.7 -16.5 -51.45 -17.7 -50.05 -18.75 -49.95 L-19.5 -50.2 Q-19.8 -50.4 -19.8 -51.15 -19.8 -52.05 -18.9 -53.3 -17.6 -55.0 -15.65 -54.05 L-15.55 -53.95 -15.45 -53.25 M-43.15 -82.6 L-45.9 -78.85 Q-47.45 -75.95 -47.7 -72.95 L-48.3 -61.2 -49.3 -60.8 Q-50.15 -61.7 -50.4 -64.0 -50.4 -70.55 -48.5 -77.25 -46.0 -86.15 -41.85 -85.15 -41.65 -85.8 -41.65 -84.7 -41.65 -84.35 -43.15 -82.6" fill="#ffffff" fill-opacity="0.49803922" fill-rule="evenodd" stroke="none"/>
  </g>
</svg>
