<?xml version="1.0" encoding="UTF-8" standalone="no"?>
<svg xmlns:ffdec="https://www.free-decompiler.com/flash" xmlns:xlink="http://www.w3.org/1999/xlink" ffdec:objectType="shape" height="45.15px" width="53.95px" xmlns="http://www.w3.org/2000/svg">
  <g transform="matrix(1.0, 0.0, 0.0, 1.0, 26.1, 21.0)">
    <path d="M13.75 -15.4 L17.35 -14.85 17.85 -14.0 18.75 -13.1 22.4 -7.1 26.75 -2.5 23.85 5.25 22.1 9.1 20.35 12.5 Q19.1 11.15 18.0 10.8 16.9 10.55 16.55 10.05 L18.5 7.15 20.05 4.35 Q20.9 2.2 21.55 -0.45 22.3 -3.7 21.9 -4.35 21.7 -4.7 21.25 -4.6 L20.8 -5.4 15.5 -11.0 9.8 -16.25 10.1 -16.05 13.75 -15.4 M9.65 22.65 L8.65 18.9 12.7 18.25 Q15.2 17.75 17.05 18.25 L13.3 20.2 Q10.8 21.5 9.65 22.65 M-19.8 2.1 Q-16.4 3.25 -16.05 3.95 -15.95 4.15 -16.55 6.15 -17.35 8.0 -16.55 9.3 -15.2 11.7 -10.05 15.95 -9.25 16.35 -8.05 15.5 L-6.35 13.95 -2.65 16.4 1.05 18.45 -4.1 19.3 Q-9.15 20.3 -10.15 20.9 L-11.95 22.4 Q-14.4 20.75 -18.05 17.15 L-25.0 10.25 Q-23.8 1.65 -23.05 1.25 -23.0 1.1 -19.8 2.1 M-7.05 -19.0 Q-2.3 -18.05 -0.85 -18.15 -1.1 -17.1 -2.0 -15.25 L-3.1 -13.25 -5.8 -13.6 Q-8.65 -13.8 -10.05 -12.95 L-12.2 -10.25 Q-14.05 -7.9 -14.45 -7.65 L-19.4 -9.7 Q-13.4 -18.8 -11.5 -19.8 L-7.05 -19.0" fill="#93b0e0" fill-rule="evenodd" stroke="none"/>
    <path d="M17.75 -16.75 L18.45 -15.3 Q18.95 -14.45 19.7 -13.9 L23.4 -7.75 27.4 -3.55 Q28.3 -2.6 27.45 -0.5 L26.6 1.95 25.55 4.6 Q24.8 5.85 22.8 10.05 L20.8 14.05 19.65 14.0 Q18.5 12.0 17.15 11.7 15.8 11.4 15.35 10.65 14.95 9.85 16.65 7.4 L18.95 4.1 19.9 -0.1 20.7 -3.35 20.65 -3.4 17.0 -7.85 14.1 -10.8 7.35 -16.65 Q7.1 -17.15 7.15 -17.55 L7.45 -17.8 10.1 -17.6 12.85 -16.85 15.6 -16.45 17.15 -15.95 17.75 -16.75 M13.75 -15.4 L10.1 -16.05 9.8 -16.25 15.5 -11.0 20.8 -5.4 21.25 -4.6 Q21.7 -4.7 21.9 -4.35 22.3 -3.7 21.55 -0.45 20.9 2.2 20.05 4.35 L18.5 7.15 16.55 10.05 Q16.9 10.55 18.0 10.8 19.1 11.15 20.35 12.5 L22.1 9.1 23.85 5.25 26.75 -2.5 22.4 -7.1 18.75 -13.1 17.85 -14.0 17.35 -14.85 13.75 -15.4 M7.45 17.45 L10.75 17.25 12.6 16.85 13.7 16.25 15.75 16.55 Q17.75 16.95 18.15 17.4 19.35 18.55 18.2 19.3 L16.3 19.95 Q14.2 21.05 9.95 23.75 L9.15 24.15 8.5 23.7 Q7.95 22.65 7.7 21.15 L7.2 18.3 7.45 17.45 M2.75 18.55 L2.85 18.95 2.6 19.35 -3.25 20.45 -9.4 21.7 -11.5 23.55 Q-12.25 24.05 -14.7 21.85 L-18.4 18.2 -22.4 14.5 Q-25.45 11.75 -25.75 11.2 -26.65 9.65 -25.25 4.8 L-24.65 2.05 Q-24.35 0.4 -23.6 0.0 -23.3 -0.15 -19.4 1.2 -15.3 2.6 -14.85 3.25 -14.35 4.15 -15.05 5.85 -15.3 6.75 -15.9 8.05 L-15.2 9.35 -10.8 13.35 Q-9.35 14.6 -8.4 14.1 L-7.65 13.45 -6.85 12.6 Q-6.25 12.25 -4.95 13.4 L-2.65 15.2 Q1.15 17.0 2.3 17.8 L2.75 18.55 M9.65 22.65 Q10.8 21.5 13.3 20.2 L17.05 18.25 Q15.2 17.75 12.7 18.25 L8.65 18.9 9.65 22.65 M-22.0 -7.95 Q-22.2 -8.4 -12.4 -20.9 L-8.15 -20.3 Q-3.75 -19.3 -1.35 -19.25 0.55 -19.25 0.8 -18.8 1.2 -18.35 -0.15 -16.85 L-1.15 -14.5 Q-1.9 -12.5 -2.5 -12.15 L-5.45 -12.45 Q-8.55 -12.5 -9.4 -11.95 L-11.45 -9.25 Q-13.55 -6.4 -13.8 -6.3 -14.25 -6.05 -15.9 -6.9 L-17.95 -8.0 Q-19.95 -8.75 -21.4 -7.6 L-21.6 -7.6 -22.0 -7.95 M-7.05 -19.0 L-11.5 -19.8 Q-13.4 -18.8 -19.4 -9.7 L-14.45 -7.65 Q-14.05 -7.9 -12.2 -10.25 L-10.05 -12.95 Q-8.65 -13.8 -5.8 -13.6 L-3.1 -13.25 -2.0 -15.25 Q-1.1 -17.1 -0.85 -18.15 -2.3 -18.05 -7.05 -19.0 M-19.8 2.1 Q-23.0 1.1 -23.05 1.25 -23.8 1.65 -25.0 10.25 L-18.05 17.15 Q-14.4 20.75 -11.95 22.4 L-10.15 20.9 Q-9.15 20.3 -4.1 19.3 L1.05 18.45 -2.65 16.4 -6.35 13.95 -8.05 15.5 Q-9.25 16.35 -10.05 15.95 -15.2 11.7 -16.55 9.3 -17.35 8.0 -16.55 6.15 -15.95 4.15 -16.05 3.95 -16.4 3.25 -19.8 2.1" fill="#ffffff" fill-opacity="0.9882353" fill-rule="evenodd" stroke="none"/>
  </g>
</svg>
