<?xml version="1.0" encoding="UTF-8" standalone="no"?>
<svg xmlns:ffdec="https://www.free-decompiler.com/flash" xmlns:xlink="http://www.w3.org/1999/xlink" ffdec:objectType="shape" height="50.55px" width="50.1px" xmlns="http://www.w3.org/2000/svg">
  <g transform="matrix(1.0, 0.0, 0.0, 1.0, 26.75, 24.0)">
    <path d="M15.3 -14.95 Q15.3 -14.8 12.35 -13.25 9.15 -11.75 8.4 -11.9 8.15 -12.0 7.25 -13.85 6.45 -15.75 4.95 -16.1 2.3 -16.85 -4.35 -16.25 -5.2 -15.95 -5.4 -14.5 L-5.5 -12.2 -9.9 -11.35 -13.9 -10.2 -10.95 -14.4 Q-8.0 -18.65 -7.7 -19.75 L-7.5 -22.15 0.5 -22.7 10.25 -22.7 Q15.6 -15.75 15.3 -14.95 M4.25 20.65 L3.95 20.7 0.9 22.75 -2.1 24.9 -3.0 24.65 -4.25 24.7 -11.1 23.0 -17.45 22.8 Q-20.0 17.5 -20.8 15.2 L-22.3 11.3 -23.5 7.6 Q-21.6 7.75 -20.6 7.2 -19.65 6.55 -19.1 6.75 -18.75 7.7 -18.35 10.1 L-17.55 13.2 -15.2 17.7 Q-13.45 20.5 -12.65 20.7 -12.3 20.8 -12.05 20.4 L-11.2 20.6 -3.45 20.9 4.25 20.65 M15.4 -2.6 Q15.45 -2.8 20.35 -4.65 22.5 6.1 21.95 8.1 L18.15 10.7 Q14.15 13.35 13.15 14.45 12.6 13.55 11.95 11.6 L11.35 9.4 13.5 7.7 Q15.6 5.85 16.05 4.3 L15.65 0.85 Q15.3 -2.15 15.4 -2.6 M-23.85 -2.85 Q-23.0 -5.55 -23.05 -7.15 L-19.7 -5.15 -22.05 -1.85 Q-23.55 0.25 -25.1 1.3 L-23.85 -2.85" fill="#93b0e0" fill-rule="evenodd" stroke="none"/>
    <path d="M16.5 -14.5 Q16.45 -14.1 12.65 -12.3 8.8 -10.4 8.05 -10.6 7.0 -10.85 6.35 -12.55 5.9 -13.4 5.4 -14.75 L4.0 -15.15 -2.0 -14.95 Q-3.9 -14.8 -4.2 -13.8 L-4.25 -12.75 -4.25 -11.6 Q-4.45 -10.9 -6.15 -10.85 L-9.1 -10.5 Q-12.95 -9.05 -14.35 -8.85 L-15.2 -9.05 -15.6 -9.25 -15.7 -9.75 -12.3 -14.6 Q-9.0 -19.3 -8.85 -19.9 L-8.6 -22.65 Q-8.4 -23.5 -5.2 -23.7 L0.05 -23.75 5.45 -23.95 Q9.6 -24.1 10.2 -23.9 11.9 -23.5 14.35 -19.05 L15.85 -16.65 Q16.75 -15.25 16.5 -14.5 M15.3 -14.95 Q15.6 -15.75 10.25 -22.7 L0.5 -22.7 -7.5 -22.15 -7.7 -19.75 Q-8.0 -18.65 -10.95 -14.4 L-13.9 -10.2 -9.9 -11.35 -5.5 -12.2 -5.4 -14.5 Q-5.2 -15.95 -4.35 -16.25 2.3 -16.85 4.95 -16.1 6.45 -15.75 7.25 -13.85 8.15 -12.0 8.4 -11.9 9.15 -11.75 12.35 -13.25 15.3 -14.8 15.3 -14.95 M18.2 -4.75 Q20.1 -5.65 20.35 -7.5 L20.5 -7.65 21.0 -7.65 Q21.5 -7.5 23.35 8.25 23.2 8.8 19.85 10.85 16.0 13.25 14.35 14.9 12.95 16.2 12.45 16.1 11.9 16.0 11.8 14.05 L10.8 11.65 Q9.95 9.7 10.1 9.05 L12.4 7.15 Q14.65 5.05 14.95 4.05 L14.4 0.65 14.0 -3.05 Q14.1 -3.6 15.95 -4.15 L18.2 -4.75 M15.4 -2.6 Q15.3 -2.15 15.65 0.85 L16.05 4.3 Q15.6 5.85 13.5 7.7 L11.35 9.4 11.95 11.6 Q12.6 13.55 13.15 14.45 14.15 13.35 18.15 10.7 L21.95 8.1 Q22.5 6.1 20.35 -4.65 15.45 -2.8 15.4 -2.6 M4.25 20.65 L-3.45 20.9 -11.2 20.6 -12.05 20.4 Q-12.3 20.8 -12.65 20.7 -13.45 20.5 -15.2 17.7 L-17.55 13.2 -18.35 10.1 Q-18.75 7.7 -19.1 6.75 -19.65 6.55 -20.6 7.2 -21.6 7.75 -23.5 7.6 L-22.3 11.3 -20.8 15.2 Q-20.0 17.5 -17.45 22.8 L-11.1 23.0 -4.25 24.7 -3.0 24.65 -2.1 24.9 0.9 22.75 3.95 20.7 4.25 20.65 M2.55 23.2 L0.35 24.85 -1.15 25.6 Q-0.95 25.95 -1.0 26.55 L-2.55 26.0 -4.4 25.9 -11.35 24.2 -17.2 24.0 Q-18.45 24.0 -19.35 21.85 L-20.45 19.5 -21.55 16.9 -23.45 11.1 -24.85 6.85 Q-24.75 6.4 -24.05 6.1 L-20.65 5.95 Q-19.5 5.25 -18.7 5.45 -17.8 5.7 -17.25 8.65 L-16.5 12.6 -14.3 16.25 -12.55 19.15 -12.5 19.15 -6.7 19.7 Q-4.15 19.65 -2.6 19.75 L6.3 19.2 7.05 19.65 7.05 20.05 Q6.85 20.65 5.05 21.8 L2.55 23.2 M-23.85 -2.85 L-25.1 1.3 Q-23.55 0.25 -22.05 -1.85 L-19.7 -5.15 -23.05 -7.15 Q-23.0 -5.55 -23.85 -2.85 M-23.7 -8.5 Q-23.45 -8.85 -23.0 -8.7 -21.85 -8.35 -20.55 -7.4 L-18.2 -5.75 -17.8 -4.95 Q-17.95 -4.5 -20.0 -2.45 L-21.0 -0.9 -21.4 0.3 -23.05 1.5 Q-24.75 2.65 -25.4 2.6 -27.05 2.6 -26.7 1.25 L-25.85 -0.5 Q-25.1 -2.8 -24.05 -7.65 L-23.7 -8.5" fill="#ffffff" fill-opacity="0.9882353" fill-rule="evenodd" stroke="none"/>
  </g>
</svg>
