<?xml version="1.0" encoding="UTF-8" standalone="no"?>
<svg xmlns:ffdec="https://www.free-decompiler.com/flash" xmlns:xlink="http://www.w3.org/1999/xlink" ffdec:objectType="shape" height="59.3px" width="85.0px" xmlns="http://www.w3.org/2000/svg">
  <g transform="matrix(1.0, 0.0, 0.0, 1.0, 0.0, 0.0)">
    <path d="M69.4 12.55 Q58.25 5.0 42.5 5.0 26.75 5.0 15.6 12.55 5.1 19.65 5.0 29.65 5.1 39.7 15.6 46.75 26.75 54.3 42.5 54.3 58.25 54.3 69.4 46.75 79.9 39.7 80.0 29.65 79.9 19.65 69.4 12.55 M42.5 0.0 Q59.95 0.0 72.2 8.4 85.1 17.15 85.0 29.65 85.1 42.2 72.2 50.9 59.95 59.3 42.5 59.3 25.05 59.3 12.8 50.9 -0.1 42.2 0.0 29.65 -0.1 17.15 12.8 8.4 25.05 0.0 42.5 0.0" fill="#ffffff" fill-rule="evenodd" stroke="none"/>
  </g>
</svg>
