<?xml version="1.0" encoding="UTF-8" standalone="no"?>
<svg xmlns:ffdec="https://www.free-decompiler.com/flash" xmlns:xlink="http://www.w3.org/1999/xlink" ffdec:objectType="shape" height="108.55px" width="179.4px" xmlns="http://www.w3.org/2000/svg">
  <g transform="matrix(1.0, 0.0, 0.0, 1.0, 89.05, 42.8)">
    <path d="M72.45 -12.95 Q72.45 -7.1 76.0 -4.8 78.7 -3.05 84.35 -3.05 L89.7 -3.25 90.35 -3.45 Q85.85 -0.15 83.8 2.6 79.9 7.85 79.9 15.85 79.9 21.2 82.05 24.85 75.05 25.65 67.05 32.2 56.95 40.55 56.95 50.3 L57.0 53.5 55.3 52.2 Q46.6 45.9 40.6 45.9 32.75 45.9 26.7 50.95 20.5 56.1 17.25 65.75 L16.6 65.0 10.55 58.7 Q8.65 56.85 6.8 55.65 4.9 54.45 3.1 53.85 0.25 52.95 -5.5 52.95 -15.75 52.95 -20.25 55.35 -23.6 57.1 -27.75 62.05 -28.25 56.4 -31.2 52.25 -36.55 44.6 -48.35 44.6 -55.9 44.6 -60.15 45.65 -64.1 46.6 -67.3 48.85 L-66.7 46.4 Q-64.9 39.2 -64.9 38.15 -64.9 31.6 -69.25 26.5 -74.55 20.3 -83.85 20.3 L-87.65 20.75 -89.05 20.95 Q-80.35 18.35 -75.6 12.0 -70.2 4.75 -70.2 -7.25 L-70.3 -12.3 Q-70.6 -15.05 -71.7 -17.05 L-71.85 -17.65 -71.95 -18.0 Q-68.45 -14.55 -63.05 -12.25 -58.3 -10.2 -53.35 -9.5 -61.95 -1.35 -61.95 8.85 -61.95 23.9 -43.1 34.5 -24.25 45.15 2.45 45.15 L11.0 44.9 Q32.25 43.4 48.0 34.5 66.9 23.9 66.9 8.85 66.9 -0.95 59.0 -8.85 62.5 -10.5 66.4 -12.9 70.9 -15.65 73.8 -18.2 72.45 -15.2 72.45 -12.95 M11.1 -27.2 L2.45 -27.5 Q-20.55 -27.5 -37.7 -19.65 -35.35 -22.3 -33.55 -25.95 -29.95 -33.35 -31.35 -37.4 -27.3 -33.25 -22.95 -31.7 -19.3 -30.4 -12.8 -30.4 -9.0 -30.4 -3.05 -35.25 2.65 -39.95 3.05 -42.8 L3.5 -42.8 Q2.95 -37.8 7.7 -31.2 9.3 -28.95 11.1 -27.2 M37.05 -21.9 L30.75 -23.95 35.1 -23.85 37.8 -23.9 Q45.25 -24.25 49.15 -26.6 51.6 -28.1 55.45 -31.95 52.95 -28.3 51.7 -25.95 49.15 -21.1 49.05 -16.3 L48.0 -16.9 Q42.8 -19.8 37.05 -21.9" fill="#d9f5f9" fill-opacity="0.29803923" fill-rule="evenodd" stroke="none"/>
  </g>
</svg>
