<?xml version="1.0" encoding="UTF-8" standalone="no"?>
<svg xmlns:ffdec="https://www.free-decompiler.com/flash" xmlns:xlink="http://www.w3.org/1999/xlink" ffdec:objectType="shape" height="46.8px" width="94.45px" xmlns="http://www.w3.org/2000/svg">
  <g transform="matrix(1.0, 0.0, 0.0, 1.0, 46.3, 12.75)">
    <path d="M8.25 -9.7 Q11.0 -7.45 13.4 -7.45 15.45 -7.45 17.7 -8.45 20.05 -9.45 20.3 -10.55 L20.5 -10.6 20.7 -11.0 Q21.5 -9.0 26.35 -6.2 31.25 -3.45 33.95 -3.45 36.75 -3.45 46.35 -7.0 45.45 -5.2 45.45 -3.75 45.45 -0.3 46.6 0.2 L48.0 0.55 47.85 0.75 Q45.0 5.2 45.0 9.05 45.0 10.85 46.05 14.4 47.2 18.1 48.15 18.95 L47.7 18.95 Q47.2 18.3 45.45 18.1 L43.25 18.05 Q39.55 18.05 37.95 18.95 35.75 20.2 35.75 23.75 35.75 26.2 36.7 28.1 L37.9 30.15 Q36.1 29.1 32.0 27.45 26.25 25.2 23.4 25.2 15.8 25.2 6.0 29.0 -0.3 31.45 -2.65 34.05 L-4.05 31.8 Q-6.25 28.5 -8.8 26.9 -15.15 22.95 -22.05 22.95 -27.65 22.95 -33.9 24.85 -39.75 26.6 -43.25 29.1 L-39.9 23.25 Q-37.05 18.0 -37.05 16.75 -37.05 12.6 -41.55 7.5 -44.05 4.65 -46.3 3.35 -41.95 2.55 -36.75 -0.6 -29.05 -5.25 -28.2 -9.2 L-23.8 -6.2 Q-20.25 -4.35 -15.4 -4.35 -8.8 -4.35 -2.7 -7.2 3.0 -9.85 3.95 -12.75 5.0 -12.4 8.25 -9.7" fill="#d9f5f9" fill-opacity="0.4" fill-rule="evenodd" stroke="none"/>
  </g>
</svg>
