<?xml version="1.0" encoding="UTF-8" standalone="no"?>
<svg xmlns:ffdec="https://www.free-decompiler.com/flash" xmlns:xlink="http://www.w3.org/1999/xlink" ffdec:objectType="shape" height="103.85px" width="241.05px" xmlns="http://www.w3.org/2000/svg">
  <g transform="matrix(1.0, 0.0, 0.0, 1.0, 121.7, 92.55)">
    <path d="M98.65 -31.5 L98.7 -31.05 98.6 -30.45 98.1 -30.3 97.95 -30.45 97.95 -31.65 98.45 -31.65 98.65 -31.5 M114.4 6.95 Q115.35 6.25 116.7 8.55 L116.55 8.75 117.5 9.6 Q118.9 10.15 119.25 10.65 L119.25 11.1 Q119.55 11.3 118.8 11.3 L118.55 11.3 118.2 11.3 Q116.25 11.3 114.55 9.55 L114.5 9.5 113.7 8.65 113.7 8.5 113.1 7.7 113.1 6.35 114.35 7.05 114.4 6.95 M-118.35 -92.2 Q-118.5 -91.6 -119.9 -90.85 L-121.5 -90.25 -121.6 -90.15 -121.7 -90.7 Q-121.7 -91.25 -120.9 -91.75 -119.85 -92.25 -119.5 -92.55 L-118.35 -92.2" fill="#d9f5f9" fill-opacity="0.69411767" fill-rule="evenodd" stroke="none"/>
  </g>
</svg>
