<?xml version="1.0" encoding="UTF-8" standalone="no"?>
<svg xmlns:ffdec="https://www.free-decompiler.com/flash" xmlns:xlink="http://www.w3.org/1999/xlink" ffdec:objectType="shape" height="38.95px" width="116.0px" xmlns="http://www.w3.org/2000/svg">
  <g transform="matrix(1.0, 0.0, 0.0, 1.0, 59.0, 6.95)">
    <path d="M-54.15 2.05 Q-53.1 1.35 -51.8 0.75 -40.65 -4.25 -10.0 -4.25 L15.9 -6.45 Q35.45 -7.95 41.0 -5.0 46.85 -1.45 50.9 2.5 L50.45 8.45 Q50.1 15.2 47.85 18.45 44.55 23.25 36.0 24.0 L2.7 26.65 Q-5.6 26.65 -18.3 24.7 -31.65 22.65 -37.0 20.25 -41.2 18.4 -42.85 17.35 -45.7 15.4 -46.15 13.05 -46.9 9.15 -48.95 6.15 -51.15 2.85 -54.15 2.05 M31.6 7.25 Q32.9 6.05 36.5 5.8 L30.7 5.1 22.5 4.5 23.55 5.3 Q27.9 5.95 30.9 7.3 L31.4 7.55 31.6 7.25 M-35.0 6.75 L-34.75 4.5 Q-37.85 3.6 -42.1 5.4 -45.3 6.8 -47.0 8.5 -47.9 8.6 -46.35 10.05 -44.85 11.5 -43.6 11.5 -42.8 11.5 -39.4 9.3 -35.75 6.95 -35.0 6.75" fill="#d9f5f9" fill-opacity="0.69411767" fill-rule="evenodd" stroke="none"/>
    <path d="M50.9 2.5 L52.55 4.2 Q57.0 9.1 57.0 12.75 57.0 20.5 49.75 25.5 40.35 32.0 20.5 32.0 -32.45 32.0 -50.45 22.8 -56.5 19.7 -58.3 15.65 -59.0 14.0 -59.0 10.75 -59.0 5.2 -54.15 2.05 -51.15 2.85 -48.95 6.15 -46.9 9.15 -46.15 13.05 -45.7 15.4 -42.85 17.35 -41.2 18.4 -37.0 20.25 -31.65 22.65 -18.3 24.7 -5.6 26.65 2.7 26.65 L36.0 24.0 Q44.55 23.25 47.85 18.45 50.1 15.2 50.45 8.45 L50.9 2.5" fill="#d9f5f9" fill-opacity="0.29803923" fill-rule="evenodd" stroke="none"/>
  </g>
</svg>
