<?xml version="1.0" encoding="UTF-8" standalone="no"?>
<svg xmlns:ffdec="https://www.free-decompiler.com/flash" xmlns:xlink="http://www.w3.org/1999/xlink" ffdec:objectType="shape" height="141.95px" width="152.55px" xmlns="http://www.w3.org/2000/svg">
  <g transform="matrix(1.0, 0.0, 0.0, 1.0, 88.55, 115.65)">
    <path d="M45.9 -7.75 L48.3 -10.0 51.65 -13.05 63.3 -23.25 63.75 -21.6 Q61.55 -18.9 61.35 -13.45 L60.0 -10.35 51.95 7.45 Q46.9 18.1 46.65 17.55 L41.0 11.05 Q36.0 5.6 36.0 4.0 36.0 1.55 45.9 -7.75 M55.55 -6.05 Q57.95 -9.4 59.65 -17.65 L53.7 -12.25 47.85 -6.85 46.25 -5.4 46.05 -5.05 Q44.0 -1.5 44.0 3.5 44.0 4.7 44.5 7.05 L45.0 11.0 46.0 11.0 Q46.9 7.3 50.05 2.3 53.15 -2.75 55.55 -6.05 M-88.0 -62.7 L-87.25 -62.0 -83.95 -59.35 -81.3 -56.1 Q-79.55 -54.1 -75.9 -52.4 L-74.05 -51.45 -71.95 -49.65 -70.8 -48.65 -68.75 -45.9 Q-66.4 -42.7 -65.25 -41.75 -63.25 -40.15 -59.65 -38.25 L-58.5 -37.7 Q-56.85 -36.25 -54.35 -33.15 L-52.8 -31.2 -50.1 -28.35 -46.8 -24.7 Q-45.35 -23.1 -44.45 -22.55 L-44.15 -23.4 Q-40.1 -18.4 -37.85 -13.95 -35.0 -8.3 -34.6 -2.8 -35.6 1.35 -38.0 5.0 -42.0 11.0 -47.0 11.0 -51.1 11.0 -59.35 -1.85 L-62.1 -8.2 -63.6 -10.5 Q-64.9 -12.35 -66.95 -14.7 L-72.25 -24.55 -75.6 -35.15 Q-76.05 -36.45 -78.95 -40.1 -81.65 -43.45 -81.9 -44.9 -82.2 -46.75 -84.6 -51.4 L-86.0 -54.05 -83.9 -51.0 -86.45 -54.9 Q-86.65 -57.55 -87.8 -59.4 L-88.55 -61.85 -88.4 -62.6 -88.0 -62.7 M-54.5 -26.4 L-54.45 -25.9 Q-54.45 -25.0 -56.1 -23.45 L-56.2 -23.35 Q-55.55 -21.85 -52.7 -20.1 -48.65 -17.6 -47.55 -16.05 -47.05 -15.35 -46.6 -12.8 -46.2 -10.45 -45.5 -9.75 -44.65 -8.8 -42.45 -7.6 L-41.7 -6.95 -41.3 -8.05 Q-40.65 -9.85 -40.65 -11.05 L-40.65 -11.15 Q-40.65 -12.45 -41.95 -13.6 L-43.5 -14.75 -44.6 -15.4 Q-46.5 -18.4 -54.5 -26.4 M-82.8 -54.65 L-82.8 -53.25 -78.65 -45.9 -75.15 -40.05 -74.35 -38.2 -70.25 -29.4 -68.95 -26.75 Q-65.7 -20.25 -61.9 -13.7 -58.2 -7.35 -54.0 -1.0 L-53.9 -1.0 -52.2 1.85 -47.55 7.9 Q-47.9 4.1 -44.45 -1.75 L-43.55 -3.25 Q-46.05 -4.35 -48.3 -8.1 -51.75 -13.8 -54.15 -15.15 -55.4 -15.85 -56.85 -18.6 L-58.05 -21.05 -58.45 -21.95 -59.7 -21.75 -60.55 -21.9 -61.25 -22.05 -61.25 -22.35 Q-60.3 -22.4 -59.25 -23.15 L-61.1 -25.25 Q-62.6 -27.1 -62.9 -28.35 L-64.7 -28.05 -63.8 -29.35 -64.05 -29.6 -64.5 -30.5 Q-65.15 -30.0 -66.15 -30.0 -66.85 -30.0 -67.55 -31.5 -68.1 -32.7 -68.1 -33.3 L-67.8 -34.7 -67.95 -34.85 Q-70.4 -38.3 -70.4 -40.05 L-66.6 -35.85 -65.7 -36.05 Q-64.2 -36.05 -63.75 -34.8 L-63.4 -32.7 -63.45 -32.4 -62.8 -31.65 -62.5 -31.35 -61.4 -33.2 -61.85 -33.65 -61.8 -34.05 Q-61.8 -35.1 -63.45 -37.55 L-65.55 -40.35 Q-66.9 -41.75 -68.6 -42.6 L-71.25 -44.1 Q-74.45 -46.5 -82.8 -54.65 M-57.2 -29.1 L-59.1 -30.95 -61.0 -29.45 -61.15 -29.3 -61.6 -29.05 -59.15 -26.05 -57.9 -24.5 -57.7 -24.75 Q-56.6 -26.05 -55.95 -27.85 L-57.2 -29.1" fill="#d9f5f9" fill-rule="evenodd" stroke="none"/>
    <path d="M-82.8 -54.65 Q-74.45 -46.5 -71.25 -44.1 L-68.6 -42.6 Q-66.9 -41.75 -65.55 -40.35 L-63.45 -37.55 Q-61.8 -35.1 -61.8 -34.05 L-61.85 -33.65 -61.4 -33.2 -62.5 -31.35 -62.8 -31.65 -63.45 -32.4 -63.4 -32.7 -63.75 -34.8 Q-64.2 -36.05 -65.7 -36.05 L-66.6 -35.85 -70.4 -40.05 Q-70.4 -38.3 -67.95 -34.85 L-67.8 -34.7 -68.1 -33.3 Q-68.1 -32.7 -67.55 -31.5 -66.85 -30.0 -66.15 -30.0 -65.15 -30.0 -64.5 -30.5 L-64.05 -29.6 -63.8 -29.35 -64.7 -28.05 -62.9 -28.35 Q-62.6 -27.1 -61.1 -25.25 L-59.25 -23.15 Q-60.3 -22.4 -61.25 -22.35 L-61.25 -22.05 -60.55 -21.9 -59.7 -21.75 -58.45 -21.95 -58.05 -21.05 -56.85 -18.6 Q-55.4 -15.85 -54.15 -15.15 -51.75 -13.8 -48.3 -8.1 -46.05 -4.35 -43.55 -3.25 L-44.45 -1.75 Q-47.9 4.1 -47.55 7.9 L-52.2 1.85 -53.9 -1.0 -54.0 -1.0 Q-58.2 -7.35 -61.9 -13.7 -65.7 -20.25 -68.95 -26.75 L-70.25 -29.4 -74.35 -38.2 -75.15 -40.05 -78.65 -45.9 -82.8 -53.25 -82.8 -54.65 M-54.5 -26.4 Q-46.5 -18.4 -44.6 -15.4 L-43.5 -14.75 -41.95 -13.6 Q-40.65 -12.45 -40.65 -11.15 L-40.65 -11.05 Q-40.65 -9.85 -41.3 -8.05 L-41.7 -6.95 -42.45 -7.6 Q-44.65 -8.8 -45.5 -9.75 -46.2 -10.45 -46.6 -12.8 -47.05 -15.35 -47.55 -16.05 -48.65 -17.6 -52.7 -20.1 -55.55 -21.85 -56.2 -23.35 L-56.1 -23.45 Q-54.45 -25.0 -54.45 -25.9 L-54.5 -26.4 M-57.2 -29.1 L-55.95 -27.85 Q-56.6 -26.05 -57.7 -24.75 L-57.9 -24.5 -59.15 -26.05 -61.6 -29.05 -61.15 -29.3 -61.0 -29.45 -59.1 -30.95 -57.2 -29.1" fill="url(#gradient0)" fill-rule="evenodd" stroke="none"/>
    <path d="M55.55 -6.05 Q53.15 -2.75 50.05 2.3 46.9 7.3 46.0 11.0 L45.0 11.0 44.5 7.05 Q44.0 4.7 44.0 3.5 44.0 -1.5 46.05 -5.05 L46.25 -5.4 47.85 -6.85 53.7 -12.25 59.65 -17.65 Q57.95 -9.4 55.55 -6.05" fill="#0c6283" fill-rule="evenodd" stroke="none"/>
    <path d="M17.0 -19.7 L17.0 -18.8 19.35 -21.6 23.4 -26.4 24.55 -27.8 25.9 -37.9 28.1 -53.95 28.5 -56.8 29.1 -60.7 29.1 -60.8 32.75 -87.85 32.95 -88.8 Q33.55 -91.5 33.55 -92.75 L33.5 -93.65 33.45 -93.75 34.0 -100.5 Q34.0 -101.95 33.5 -102.8 L33.4 -103.0 Q32.15 -98.95 26.55 -91.25 L22.75 -86.25 Q13.75 -74.85 18.0 -72.0 13.95 -69.75 10.0 -65.0 6.5 -60.9 5.35 -56.35 L5.3 -56.3 Q4.25 -56.0 3.65 -54.45 L3.45 -53.75 2.95 -52.9 2.55 -52.5 Q0.5 -50.4 0.35 -48.95 L-1.2 -47.55 -1.35 -46.4 -1.5 -46.55 -2.15 -46.55 -2.25 -45.7 -1.8 -43.95 -2.15 -43.55 -7.1 -37.3 Q-9.5 -33.9 -10.5 -31.25 -11.15 -30.55 -12.15 -27.9 L-12.8 -25.85 -13.15 -25.85 -13.25 -24.6 -13.15 -24.2 -13.25 -23.25 Q-13.25 -22.6 -13.05 -22.45 L-12.75 -22.4 -12.85 -22.2 -13.15 -21.65 -13.65 -20.8 -14.25 -19.8 -14.75 -18.95 -18.15 -13.9 Q-20.4 -10.15 -21.0 -8.2 L-21.55 -7.35 Q-21.55 -5.75 -20.0 3.9 L-18.15 9.15 -17.55 12.25 -15.6 13.55 -15.05 13.55 -15.0 13.55 -14.6 14.0 Q-12.05 15.05 -8.8 15.05 -3.2 15.05 -0.45 13.55 L0.05 12.4 0.25 12.05 1.3 7.25 1.8 5.25 Q2.2 3.85 2.75 2.8 2.35 1.4 2.75 -0.85 L3.15 -3.15 3.7 -4.1 3.65 -5.2 Q3.65 -7.05 5.15 -11.05 L5.1 -11.2 10.05 -22.85 Q9.55 -23.95 9.55 -25.95 9.55 -26.85 9.85 -28.0 L10.05 -28.55 10.95 -30.85 12.75 -34.5 13.1 -34.5 14.1 -33.9 14.35 -33.7 15.85 -37.85 Q15.3 -37.35 14.55 -37.35 L13.8 -37.5 13.45 -37.7 13.45 -39.45 14.0 -40.7 14.4 -42.2 14.55 -42.55 Q14.8 -43.25 15.4 -43.7 L16.3 -43.0 Q17.0 -42.2 17.0 -41.45 L17.0 -41.3 20.35 -52.85 20.55 -53.5 18.1 -51.9 17.75 -52.25 17.75 -53.6 17.75 -54.75 18.3 -58.15 18.3 -58.25 Q18.7 -60.2 19.4 -60.95 19.75 -61.4 20.25 -61.5 L20.4 -61.5 21.35 -61.15 22.2 -60.65 24.8 -73.5 24.9 -73.9 Q27.75 -86.0 32.2 -93.8 L32.55 -93.65 31.9 -90.4 31.4 -87.85 29.9 -83.95 Q26.55 -75.1 26.0 -72.1 L25.0 -65.5 24.35 -61.6 Q23.3 -55.45 21.95 -51.3 18.7 -41.45 15.45 -32.7 L15.75 -32.25 15.95 -29.85 15.95 -28.8 Q15.95 -26.85 15.25 -24.9 14.25 -22.15 12.3 -21.75 L12.25 -21.25 11.7 -16.4 11.4 -14.4 12.9 -15.9 15.95 -18.7 17.0 -19.7 M-47.25 7.6 Q-43.0 -0.55 -39.65 -9.5 L-40.65 -11.05 -41.95 -13.6 -42.6 -15.35 -43.3 -17.7 -43.85 -20.85 -43.95 -21.85 -44.0 -22.35 -44.05 -22.75 -43.1 -21.65 -41.7 -19.75 -41.55 -19.5 Q-41.35 -20.6 -41.8 -22.45 L-41.9 -22.95 -42.35 -25.5 Q-42.35 -27.0 -45.0 -42.45 L-45.05 -42.75 Q-44.95 -44.5 -44.5 -46.1 -44.4 -47.9 -46.6 -51.8 L-46.6 -51.85 -47.4 -57.0 -47.05 -60.2 -47.65 -69.65 -47.35 -71.15 Q-46.65 -74.6 -46.45 -76.5 L-46.35 -77.85 Q-46.35 -81.45 -48.2 -85.65 L-48.9 -87.3 -51.85 -103.2 -51.8 -103.55 Q-51.5 -105.2 -51.5 -106.2 L-45.3 -98.1 -39.9 -90.9 Q-39.4 -89.3 -39.4 -87.85 -39.4 -85.2 -38.35 -83.25 -37.35 -81.4 -35.3 -80.25 -32.8 -76.0 -29.55 -71.75 L-24.25 -65.4 -22.0 -63.0 -19.85 -60.95 -17.75 -58.85 -15.8 -56.9 -12.05 -53.1 -8.0 -48.65 -8.0 -50.05 -6.65 -48.45 -6.2 -47.9 -5.35 -48.95 -2.6 -52.25 Q-0.4 -55.2 -0.05 -57.4 1.2 -65.3 7.1 -69.2 L7.95 -69.75 12.45 -77.8 12.45 -78.25 Q13.3 -79.2 14.95 -82.75 18.3 -89.9 19.75 -90.55 L23.0 -92.3 Q26.15 -94.3 27.0 -96.15 L33.85 -112.15 Q35.85 -114.65 37.5 -115.65 L37.5 -112.5 Q36.5 -105.5 36.45 -94.8 L36.45 -94.15 35.55 -86.65 33.2 -65.25 32.95 -64.2 Q30.3 -52.9 30.3 -48.9 L30.45 -44.45 30.6 -38.2 30.6 -38.05 30.5 -36.6 30.3 -34.75 32.0 -37.95 34.55 -40.55 Q36.1 -43.0 37.8 -44.0 L38.95 -45.2 46.95 -54.35 47.85 -55.4 51.85 -60.35 55.8 -65.25 63.35 -71.65 63.95 -70.8 64.0 -70.7 63.95 -70.5 58.5 -49.7 57.8 -46.95 55.1 -36.2 Q51.5 -21.5 50.4 -14.0 L50.4 -12.55 50.0 -12.1 Q51.15 -11.4 50.3 -7.45 47.75 4.35 45.7 15.1 45.8 15.85 45.4 16.8 L45.35 17.0 45.35 16.9 45.25 17.05 Q44.3 18.9 41.5 21.45 L41.0 21.85 Q41.05 21.7 38.1 22.85 33.0 24.85 28.0 24.85 L24.75 24.45 22.75 23.8 22.45 23.8 Q14.2 23.8 10.35 20.95 9.15 20.05 8.6 19.2 L5.25 18.1 Q2.45 16.75 2.7 14.85 L1.35 15.35 -4.4 17.0 Q-7.4 17.8 -11.25 16.55 -13.5 15.8 -14.8 14.95 L-16.5 14.35 -16.55 15.35 -16.55 15.55 Q-16.85 19.25 -19.95 21.85 L-23.05 23.85 -23.85 24.2 -23.9 24.2 Q-26.55 25.35 -28.8 25.85 L-32.55 26.3 -32.8 26.3 -35.15 25.9 -38.15 24.9 -41.7 23.45 -43.0 22.8 Q-44.15 22.25 -45.15 20.85 -46.3 19.25 -47.3 16.6 L-47.75 15.3 -49.0 10.85 -47.55 8.2 -47.25 7.65 -47.25 7.6 M-57.5 -5.2 Q-57.05 -4.1 -57.05 -3.4 L-57.15 -2.65 -57.6 -2.55 -58.3 -3.4 -58.35 -3.4 -58.4 -3.5 -59.8 -5.9 Q-61.1 -8.25 -61.1 -9.1 L-61.1 -9.65 -61.0 -9.65 Q-60.5 -9.6 -59.8 -8.85 L-59.5 -8.9 -59.35 -8.6 -58.8 -7.5 -58.55 -7.1 -57.5 -5.2 M52.95 -37.8 Q53.2 -39.25 54.0 -41.8 L54.5 -43.3 53.85 -48.45 55.25 -51.85 55.7 -52.95 59.0 -61.0 58.0 -61.0 56.8 -59.6 Q53.95 -57.85 49.75 -53.55 45.2 -48.9 44.1 -46.35 L43.0 -41.75 42.8 -40.9 40.4 -37.65 38.55 -36.55 38.3 -38.1 Q36.5 -37.3 36.05 -35.95 L35.95 -35.05 35.7 -34.9 35.25 -34.6 Q33.05 -33.2 32.0 -31.5 28.7 -24.9 27.2 -22.4 26.4 -21.0 25.25 -19.8 24.2 -22.0 23.75 -21.95 23.15 -21.85 23.15 -18.3 L23.15 -17.95 22.8 -17.65 22.15 -17.25 22.05 -17.2 21.2 -16.65 19.4 -15.75 Q16.8 -14.5 17.0 -14.1 9.75 -4.4 7.05 0.45 L6.85 1.75 6.85 2.3 5.9 4.05 Q3.7 8.3 3.7 10.85 3.7 11.25 4.15 11.9 L4.25 12.8 Q4.45 13.5 4.95 13.95 L4.95 14.0 Q4.95 14.5 5.1 14.7 L5.45 14.9 5.65 14.95 Q6.6 16.25 8.9 17.55 12.4 19.55 16.3 19.85 L17.15 20.8 18.85 21.0 18.75 20.65 18.7 20.6 18.7 19.6 19.1 19.35 18.95 20.2 21.55 21.4 24.5 22.45 24.55 22.3 24.65 22.45 24.7 22.45 25.2 22.4 26.15 21.9 26.15 22.05 26.15 22.3 28.45 22.1 29.05 22.1 29.6 21.9 32.15 22.1 Q33.35 22.1 35.1 20.9 36.85 20.15 38.3 18.75 L39.35 17.7 Q40.8 16.5 41.6 14.55 42.2 13.1 42.75 9.35 L43.3 6.25 43.15 6.2 43.6 1.9 Q43.85 -1.0 45.75 -8.85 47.5 -16.25 47.5 -17.15 47.5 -18.15 47.2 -17.8 L46.2 -16.7 49.2 -25.2 Q50.35 -28.8 52.6 -34.15 L53.05 -35.2 53.35 -36.05 53.0 -36.0 Q52.95 -35.9 52.9 -35.95 L52.8 -36.65 52.95 -37.8 M11.9 -10.25 L12.0 -10.35 11.95 -10.45 11.9 -10.65 11.85 -10.8 11.8 -10.95 11.8 -10.75 11.85 -10.65 11.9 -10.4 11.9 -10.25 M37.9 -6.55 L38.7 -7.35 39.2 -7.45 Q39.9 -7.45 40.15 -7.1 40.5 -6.6 40.5 -4.95 40.5 -3.8 39.95 -2.05 L39.45 -0.75 Q38.0 2.8 35.85 2.8 L35.15 2.8 Q34.45 2.6 34.45 1.55 34.45 0.05 35.85 -3.0 L36.05 -3.5 Q36.8 -5.1 37.55 -6.1 L37.9 -6.55 M-13.7 -37.65 L-13.2 -36.7 Q-12.05 -40.45 -8.95 -44.6 L-12.35 -49.9 -13.15 -51.1 -14.45 -53.05 -16.05 -54.2 -17.65 -55.4 -24.55 -61.2 -25.7 -62.25 -26.85 -63.35 -26.5 -62.65 -35.8 -76.1 Q-43.95 -88.2 -45.5 -91.85 L-45.75 -91.85 -44.6 -86.35 Q-44.0 -83.25 -43.7 -78.9 L-43.45 -74.75 -43.4 -74.0 -44.15 -68.55 Q-44.55 -65.05 -44.55 -62.2 -44.55 -60.1 -42.8 -54.6 L-41.65 -48.65 -41.25 -46.45 -41.15 -45.85 -40.7 -43.4 -40.75 -41.2 Q-40.75 -37.5 -40.55 -36.75 -40.25 -35.75 -39.2 -34.25 L-38.65 -32.05 -38.45 -27.65 Q-38.4 -25.1 -36.85 -24.05 L-36.6 -24.15 -36.2 -22.5 -35.85 -21.05 -34.65 -25.15 -33.1 -30.4 -32.95 -30.9 -32.2 -33.4 -32.1 -33.8 -31.75 -34.9 -30.5 -39.1 -29.05 -43.95 -28.25 -46.45 -27.95 -47.55 -27.7 -48.15 -27.6 -48.55 -27.4 -49.5 -27.4 -49.05 -27.15 -50.3 -26.75 -50.3 Q-26.3 -48.5 -26.1 -45.65 L-26.3 -46.2 -26.5 -46.7 -26.35 -45.1 -26.25 -43.9 -26.25 -43.8 -25.95 -41.1 -25.9 -40.55 -25.55 -37.7 -25.15 -34.7 -22.9 -20.0 -21.55 -12.35 -23.1 -8.25 -21.85 -11.2 -21.5 -12.15 -21.45 -11.95 -20.85 -13.8 -19.4 -17.35 -19.3 -17.65 -17.85 -21.1 -17.2 -22.55 -16.65 -23.8 -16.55 -24.0 -17.25 -25.5 -16.85 -26.45 Q-16.3 -27.9 -15.9 -29.45 L-13.7 -37.65 M-43.15 -58.15 L-43.1 -58.1 -43.1 -58.05 -43.15 -58.15 M-25.3 -12.6 L-24.9 -17.55 Q-24.9 -18.75 -25.95 -22.25 L-26.15 -23.1 -26.15 -26.8 Q-26.15 -30.6 -26.45 -32.2 L-26.95 -32.2 -26.95 -33.55 Q-26.95 -36.95 -27.3 -38.95 L-27.95 -38.95 -28.25 -37.05 -28.25 -37.25 -30.25 -31.2 -32.3 -23.5 -35.55 -10.25 Q-35.7 -9.7 -37.2 -8.1 -38.4 -6.85 -38.4 -5.6 L-38.4 -5.5 -39.05 -5.5 -39.05 -2.75 -39.05 -2.15 -39.95 -0.2 -42.8 6.45 -45.35 12.0 Q-45.8 12.65 -45.3 14.0 -44.6 15.9 -42.85 17.7 L-42.1 18.35 -40.8 19.55 Q-39.3 20.6 -36.75 21.1 L-36.2 21.2 -35.75 21.65 Q-34.75 22.35 -32.5 22.35 L-32.35 22.35 -28.95 22.15 -26.25 21.55 -26.1 21.5 Q-24.85 21.1 -23.85 20.5 L-21.75 19.05 -21.7 19.05 -21.7 18.95 Q-21.7 18.2 -20.95 16.85 L-21.15 13.15 -21.7 8.9 -22.65 2.35 -22.7 2.1 -22.75 1.75 Q-22.35 0.95 -22.35 0.4 L-22.4 -0.5 -22.65 -0.85 -23.1 -0.55 -23.3 -2.1 Q-22.35 -3.5 -22.35 -5.05 -22.35 -6.0 -23.1 -8.05 L-24.05 -6.75 -24.55 -9.15 -24.6 -9.35 -25.25 -11.9 -25.25 -12.3 -25.3 -12.6 M-29.25 -5.2 L-28.25 -4.65 -28.05 -4.55 -27.5 -4.05 -27.6 -3.35 -27.15 -3.6 -27.1 -3.55 Q-26.65 -2.85 -26.65 -1.95 L-26.75 -0.8 -27.0 0.0 Q-27.55 1.75 -28.65 1.75 L-29.65 1.4 -29.85 1.05 Q-30.15 0.45 -30.15 -0.9 L-30.2 -1.75 -30.2 -2.2 -30.2 -2.3 Q-30.15 -4.4 -29.75 -5.4 L-29.25 -5.2 M-29.15 -17.05 Q-28.25 -16.9 -27.65 -16.3 L-27.1 -11.75 -27.25 -11.4 Q-27.75 -10.65 -28.4 -10.65 L-28.65 -10.65 -28.75 -10.65 Q-29.25 -10.75 -29.15 -11.0 L-29.2 -11.15 Q-29.5 -12.25 -29.5 -14.7 L-29.4 -16.7 -29.15 -17.05 M31.95 4.0 L32.05 4.05 32.7 4.2 Q32.85 5.1 32.3 6.2 L31.1 7.9 30.55 8.45 29.9 8.3 29.85 8.1 29.85 5.25 30.25 4.95 Q31.15 4.15 31.7 3.95 L31.8 3.95 31.95 4.0 M8.2 10.0 L8.1 9.95 8.15 9.85 8.15 9.75 8.25 10.05 8.2 10.0 M9.8 10.55 L9.6 10.45 9.65 10.3 9.9 10.5 9.8 10.55" fill="#d9f5f9" fill-rule="evenodd" stroke="none"/>
    <path d="M46.2 -16.7 L47.2 -17.8 Q47.5 -18.15 47.5 -17.15 47.5 -16.25 45.75 -8.85 43.85 -1.0 43.6 1.9 L43.15 6.2 42.35 5.8 Q41.7 7.45 40.45 8.9 37.95 11.8 32.3 12.3 30.3 12.5 28.25 16.3 L27.45 17.85 27.6 17.0 27.8 16.65 28.05 15.9 28.3 15.25 Q29.3 13.45 29.3 12.9 L29.3 12.8 Q30.65 10.25 32.5 9.1 L35.15 7.0 39.3 2.15 Q39.45 0.15 40.9 -3.9 L41.4 -5.15 43.05 -9.4 43.2 -9.75 43.95 -12.35 Q44.85 -15.0 46.2 -16.7 M42.75 9.35 Q42.2 13.1 41.6 14.55 40.8 16.5 39.35 17.7 L38.3 18.75 Q36.85 20.15 35.1 20.9 L37.3 19.05 Q40.25 16.4 41.25 14.5 42.15 12.85 42.6 10.2 L42.75 9.35 M26.55 20.7 L26.6 20.55 26.6 20.6 26.55 20.7" fill="#4cb5b9" fill-rule="evenodd" stroke="none"/>
    <path d="M19.1 19.35 L18.7 19.6 18.8 19.05 19.0 18.35 19.85 16.75 19.8 17.1 19.85 17.3 Q19.3 18.5 19.1 19.35 M4.15 11.9 Q3.7 11.25 3.7 10.85 3.7 8.3 5.9 4.05 L6.85 2.3 6.85 1.75 7.05 0.45 Q9.75 -4.4 17.0 -14.1 16.8 -14.5 19.4 -15.75 L21.2 -16.65 22.05 -17.2 22.15 -17.25 22.8 -17.65 Q23.0 -13.9 26.3 -10.3 L27.25 -9.35 Q30.75 -6.0 35.15 -6.0 L36.55 -6.2 31.75 0.15 25.9 6.5 24.1 8.0 22.3 12.0 21.35 13.3 20.75 13.0 12.7 13.35 9.15 10.75 8.2 10.0 8.25 10.05 8.15 9.75 8.15 9.85 8.1 9.95 Q6.15 8.35 6.05 6.9 L6.15 6.35 6.1 6.45 6.2 5.85 6.15 5.5 5.35 7.05 5.25 7.25 Q4.4 8.15 4.25 8.7 4.1 9.1 4.1 11.05 L4.15 11.9 M25.25 -19.8 Q26.4 -21.0 27.2 -22.4 28.7 -24.9 32.0 -31.5 33.05 -33.2 35.25 -34.6 L35.7 -34.9 35.95 -35.05 35.9 -33.4 Q35.9 -31.35 36.75 -30.5 37.2 -29.2 38.15 -27.7 40.1 -24.65 42.25 -24.95 L46.05 -25.25 47.05 -25.3 40.8 -13.0 39.8 -11.25 38.75 -9.5 37.3 -9.0 Q35.9 -8.5 35.15 -8.5 33.2 -8.5 29.75 -11.3 L29.65 -11.65 Q28.7 -12.45 25.25 -19.75 L25.25 -19.8 M9.9 10.5 L9.65 10.3 9.6 10.45 9.8 10.55 9.85 10.6 9.9 10.5" fill="url(#gradient1)" fill-rule="evenodd" stroke="none"/>
    <path d="M-26.5 -62.65 L-26.85 -63.35 -25.7 -62.25 -24.55 -61.2 -17.65 -55.4 -16.05 -54.2 -14.45 -53.05 -13.15 -51.1 -12.35 -49.9 -8.95 -44.6 Q-12.05 -40.45 -13.2 -36.7 L-13.7 -37.65 -16.3 -42.5 -17.05 -43.85 -18.15 -46.0 -19.4 -48.4 -19.9 -49.35 -25.7 -60.9 -26.0 -61.55 -26.5 -62.65" fill="url(#gradient2)" fill-rule="evenodd" stroke="none"/>
    <path d="M-16.85 -26.45 L-17.25 -25.5 -16.55 -24.0 -16.65 -23.8 -17.2 -22.55 -17.85 -21.1 -19.3 -17.65 -19.3 -18.1 -19.4 -18.3 -19.4 -18.35 -20.0 -17.15 -19.8 -17.15 -21.2 -13.25 -21.55 -12.35 -22.9 -20.0 -25.15 -34.7 -25.55 -37.7 -25.9 -40.55 -25.95 -41.1 -26.25 -43.8 -26.25 -43.9 -26.35 -45.1 -26.5 -46.7 -26.3 -46.2 -26.1 -45.65 -25.6 -44.5 -25.5 -44.3 -24.6 -42.2 -23.9 -40.45 -23.1 -37.0 -23.05 -36.65 Q-22.25 -32.9 -20.75 -30.9 L-18.85 -28.9 -17.3 -27.1 -16.85 -26.45" fill="url(#gradient3)" fill-rule="evenodd" stroke="none"/>
    <path d="M52.95 -37.8 L52.8 -36.65 52.9 -35.95 Q52.95 -35.9 53.0 -36.0 L53.35 -36.05 53.05 -35.2 52.6 -34.15 Q50.35 -28.8 49.2 -25.2 L46.2 -16.7 Q44.85 -15.0 43.95 -12.35 L43.2 -9.75 43.05 -9.4 41.4 -5.15 40.9 -3.9 Q39.45 0.15 39.3 2.15 L35.15 7.0 32.5 9.1 Q30.65 10.25 29.3 12.8 L29.3 12.9 Q29.3 13.45 28.3 15.25 L28.05 15.9 27.8 16.65 27.6 17.0 27.45 17.85 Q26.55 19.65 26.55 20.35 L26.6 20.55 26.55 20.7 Q26.2 21.35 26.15 21.9 L25.2 22.4 24.7 22.45 24.65 22.45 24.55 22.3 24.5 22.45 21.55 21.4 18.95 20.2 19.1 19.35 Q19.3 18.5 19.85 17.3 L19.8 17.1 19.85 16.75 Q21.2 14.1 21.7 13.45 L21.35 13.3 22.3 12.0 24.1 8.0 25.9 6.5 31.75 0.15 36.55 -6.2 35.15 -6.0 Q30.75 -6.0 27.25 -9.35 L26.3 -10.3 Q23.0 -13.9 22.8 -17.65 L23.15 -17.95 23.15 -18.3 Q23.15 -21.85 23.75 -21.95 24.2 -22.0 25.25 -19.8 L25.25 -19.75 Q28.7 -12.45 29.65 -11.65 L29.75 -11.3 Q33.2 -8.5 35.15 -8.5 35.9 -8.5 37.3 -9.0 L38.75 -9.5 39.8 -11.25 40.8 -13.0 47.05 -25.3 46.05 -25.25 42.25 -24.95 Q40.1 -24.65 38.15 -27.7 37.2 -29.2 36.75 -30.5 35.9 -31.35 35.9 -33.4 L35.95 -35.05 36.05 -35.95 Q36.5 -37.3 38.3 -38.1 L38.55 -36.55 38.65 -33.0 39.7 -31.1 Q41.0 -28.75 43.3 -28.4 L46.0 -28.2 47.0 -28.25 48.2 -27.65 49.0 -29.4 49.2 -29.75 48.4 -29.65 Q45.4 -29.65 44.35 -31.8 43.85 -32.85 43.9 -34.05 L43.9 -34.2 Q44.3 -33.65 45.2 -33.45 L45.7 -32.85 45.85 -33.05 46.15 -33.35 46.7 -33.65 47.25 -33.75 Q48.0 -33.75 49.05 -32.7 L49.85 -31.8 50.0 -31.5 50.35 -32.25 52.95 -37.8 M37.9 -6.55 L37.55 -6.1 Q36.8 -5.1 36.05 -3.5 L35.85 -3.0 Q34.45 0.05 34.45 1.55 34.45 2.6 35.15 2.8 L35.85 2.8 Q38.0 2.8 39.45 -0.75 L39.95 -2.05 Q40.5 -3.8 40.5 -4.95 40.5 -6.6 40.15 -7.1 39.9 -7.45 39.2 -7.45 L38.7 -7.35 37.9 -6.55 M44.75 -35.3 L45.1 -35.55 45.2 -35.25 44.75 -35.3 M45.05 -34.6 L45.0 -34.6 45.05 -34.6 M49.25 -29.9 L49.3 -30.0 49.2 -29.95 49.25 -29.9 M-13.7 -37.65 L-15.9 -29.45 Q-16.3 -27.9 -16.85 -26.45 L-17.3 -27.1 -18.85 -28.9 -20.75 -30.9 Q-22.25 -32.9 -23.05 -36.65 L-23.1 -37.0 -23.9 -40.45 -24.6 -42.2 -25.5 -44.3 -25.6 -44.5 -26.1 -45.65 Q-26.3 -48.5 -26.75 -50.3 L-27.15 -50.3 -27.4 -49.05 -27.4 -49.5 -27.6 -48.55 -27.7 -48.15 -27.95 -47.55 -27.85 -47.85 -27.8 -48.1 -27.5 -49.1 -27.85 -50.0 -28.9 -52.45 Q-29.75 -53.7 -31.35 -55.15 L-32.65 -56.85 Q-33.3 -58.2 -33.3 -59.9 L-33.35 -63.35 Q-33.4 -66.25 -33.65 -67.0 -34.1 -68.2 -37.1 -73.05 L-38.0 -75.5 -41.6 -80.65 Q-43.95 -84.55 -45.0 -88.0 L-44.6 -86.35 -45.75 -91.85 -45.5 -91.85 Q-43.95 -88.2 -35.8 -76.1 L-26.5 -62.65 -26.0 -61.55 -25.7 -60.9 -19.9 -49.35 -19.4 -48.4 -18.15 -46.0 -17.05 -43.85 -16.3 -42.5 -13.7 -37.65 M-28.25 -37.05 L-27.95 -38.95 -27.3 -38.95 Q-26.95 -36.95 -26.95 -33.55 L-26.95 -32.2 -26.45 -32.2 Q-26.15 -30.6 -26.15 -26.8 L-26.15 -23.1 -25.95 -22.25 Q-24.9 -18.75 -24.9 -17.55 L-25.3 -12.6 -25.75 -9.4 -26.7 -8.9 -26.8 -8.1 -27.5 -4.05 -28.05 -4.55 -28.25 -4.65 -29.25 -5.2 -29.3 -5.35 -29.35 -6.0 -29.5 -7.3 -29.65 -8.5 -29.8 -9.9 -29.95 -11.55 -30.2 -15.1 Q-30.2 -17.0 -29.5 -19.65 -28.9 -22.0 -28.4 -22.75 L-28.2 -22.8 -28.15 -22.8 Q-28.5 -28.45 -28.5 -34.75 L-28.25 -37.05 M-24.05 -6.75 L-23.1 -8.05 Q-22.35 -6.0 -22.35 -5.05 -22.35 -3.5 -23.3 -2.1 L-24.15 -1.15 -24.55 -1.55 -24.85 -1.4 Q-25.75 -0.95 -26.75 -0.8 L-26.65 -1.95 Q-26.65 -2.85 -27.1 -3.55 L-27.15 -3.6 -25.25 -4.7 -24.65 -5.9 -24.05 -6.75 M-23.1 -0.55 L-22.65 -0.85 -22.4 -0.5 -22.35 0.4 Q-22.35 0.95 -22.75 1.75 L-22.95 2.1 -22.75 2.1 -22.7 2.1 -22.65 2.35 -23.6 3.1 Q-24.5 4.2 -25.4 4.75 L-26.15 4.7 -26.2 4.7 -27.15 5.1 -27.55 5.25 -27.95 5.6 -28.5 5.55 -30.0 5.85 -31.05 5.95 -32.2 6.0 Q-33.85 6.0 -35.0 4.35 -37.6 3.5 -38.35 2.25 -39.15 0.95 -39.05 -2.15 L-39.05 -2.75 -39.05 -5.5 -38.4 -5.5 -38.35 -5.5 Q-37.5 -2.0 -35.75 0.65 L-33.75 1.65 Q-31.8 2.55 -30.1 2.9 L-29.6 3.0 -27.95 3.15 -25.9 2.85 -25.2 1.7 Q-24.15 0.15 -23.1 -0.55 M-29.15 -17.05 L-29.4 -16.7 -29.5 -14.7 Q-29.5 -12.25 -29.2 -11.15 L-29.15 -11.0 Q-29.25 -10.75 -28.75 -10.65 L-28.65 -10.65 -28.4 -10.65 Q-27.75 -10.65 -27.25 -11.4 L-27.1 -11.75 -27.65 -16.3 Q-28.25 -16.9 -29.15 -17.05 M-30.15 -0.9 Q-31.1 -1.15 -31.9 -1.55 L-32.95 -2.15 -32.0 -2.1 -30.2 -2.3 -30.2 -2.2 -30.2 -1.75 -30.15 -0.9 M-25.95 10.1 Q-25.95 11.15 -26.65 12.9 L-27.95 15.6 -28.85 17.45 Q-29.05 16.75 -29.8 15.25 -30.9 13.05 -30.9 12.35 L-30.9 12.1 Q-30.85 10.6 -30.2 8.85 -29.35 6.35 -27.9 6.35 -26.3 6.35 -25.95 8.1 -25.8 9.0 -25.95 10.1 M31.95 4.0 L31.8 3.95 31.7 3.95 Q31.15 4.15 30.25 4.95 L29.85 5.25 29.85 8.1 29.9 8.3 30.55 8.45 31.1 7.9 32.3 6.2 Q32.85 5.1 32.7 4.2 L32.05 4.05 31.95 4.0" fill="#a7effa" fill-rule="evenodd" stroke="none"/>
    <path d="M38.55 -36.55 L40.4 -37.65 42.8 -40.9 43.0 -41.75 44.1 -46.35 Q45.2 -48.9 49.75 -53.55 53.95 -57.85 56.8 -59.6 L58.0 -61.0 59.0 -61.0 55.7 -52.95 55.25 -51.85 53.85 -48.45 54.5 -43.3 54.0 -41.8 Q53.2 -39.25 52.95 -37.8 L50.35 -32.25 50.0 -31.5 49.85 -31.8 49.05 -32.7 Q48.0 -33.75 47.25 -33.75 L46.7 -33.65 46.15 -33.35 45.85 -33.05 45.7 -32.85 45.2 -33.45 Q44.3 -33.65 43.9 -34.2 L43.9 -34.05 Q43.85 -32.85 44.35 -31.8 45.4 -29.65 48.4 -29.65 L49.2 -29.75 49.0 -29.4 48.2 -27.65 47.0 -28.25 46.0 -28.2 43.3 -28.4 Q41.0 -28.75 39.7 -31.1 L38.65 -33.0 38.55 -36.55 M44.75 -35.3 L45.2 -35.25 45.1 -35.55 44.75 -35.3 M45.05 -34.6 L45.0 -34.6 45.05 -34.6 M49.25 -29.9 L49.2 -29.95 49.3 -30.0 49.25 -29.9" fill="url(#gradient4)" fill-rule="evenodd" stroke="none"/>
    <path d="M-27.95 -47.55 L-28.25 -46.45 -29.05 -43.95 -30.5 -39.1 -31.75 -34.9 -32.1 -33.8 -32.2 -33.4 -32.95 -30.9 -33.1 -30.4 -34.65 -25.15 -35.85 -21.05 -36.2 -22.5 -36.6 -24.15 -36.85 -24.05 Q-38.4 -25.1 -38.45 -27.65 L-38.65 -32.05 -39.2 -34.25 Q-40.25 -35.75 -40.55 -36.75 -40.75 -37.5 -40.75 -41.2 L-40.7 -43.4 -41.15 -45.85 -41.25 -46.45 -41.65 -48.65 -42.8 -54.6 Q-44.55 -60.1 -44.55 -62.2 -44.55 -65.05 -44.15 -68.55 L-43.4 -74.0 -43.45 -74.75 -43.7 -78.9 Q-44.0 -83.25 -44.6 -86.35 L-45.0 -88.0 Q-43.95 -84.55 -41.6 -80.65 L-38.0 -75.5 -37.1 -73.05 Q-34.1 -68.2 -33.65 -67.0 -33.4 -66.25 -33.35 -63.35 L-33.3 -59.9 Q-33.3 -58.2 -32.65 -56.85 L-31.35 -55.15 Q-29.75 -53.7 -28.9 -52.45 L-27.85 -50.0 -27.5 -49.1 -27.8 -48.1 -27.85 -47.85 -27.95 -47.55 M-43.15 -58.15 L-43.1 -58.05 -43.1 -58.1 -43.15 -58.15" fill="url(#gradient5)" fill-rule="evenodd" stroke="none"/>
    <path d="M-25.3 -12.6 L-25.25 -12.3 -25.25 -11.9 -24.6 -9.35 -24.55 -9.15 -24.05 -6.75 -24.65 -5.9 -25.25 -4.7 -27.15 -3.6 -27.6 -3.35 -27.5 -4.05 -26.8 -8.1 -26.7 -8.9 -25.75 -9.4 -25.3 -12.6 M-23.3 -2.1 L-23.1 -0.55 Q-24.15 0.15 -25.2 1.7 L-25.9 2.85 -27.95 3.15 -29.6 3.0 -30.1 2.9 Q-31.8 2.55 -33.75 1.65 L-35.75 0.65 Q-37.5 -2.0 -38.35 -5.5 L-38.4 -5.5 -38.4 -5.6 Q-38.4 -6.85 -37.2 -8.1 -35.7 -9.7 -35.55 -10.25 L-32.3 -23.5 -30.25 -31.2 -28.25 -37.25 -28.25 -37.05 -28.5 -34.75 Q-28.5 -28.45 -28.15 -22.8 L-28.2 -22.8 -28.4 -22.75 Q-28.9 -22.0 -29.5 -19.65 -30.2 -17.0 -30.2 -15.1 L-29.95 -11.55 -29.8 -9.9 -29.65 -8.5 -29.5 -7.3 -29.35 -6.0 -29.3 -5.35 -29.25 -5.2 -29.75 -5.4 Q-30.15 -4.4 -30.2 -2.3 L-32.0 -2.1 -32.95 -2.15 -31.9 -1.55 Q-31.1 -1.15 -30.15 -0.9 -30.15 0.45 -29.85 1.05 L-29.65 1.4 -28.65 1.75 Q-27.55 1.75 -27.0 0.0 L-26.75 -0.8 Q-25.75 -0.95 -24.85 -1.4 L-24.55 -1.55 -24.15 -1.15 -23.3 -2.1 M-22.75 1.75 L-22.7 2.1 -22.75 2.1 -22.95 2.1 -22.75 1.75 M-22.65 2.35 L-21.7 8.9 -21.15 13.15 -20.95 16.85 Q-21.7 18.2 -21.7 18.95 L-21.7 19.05 -21.75 19.05 -23.85 20.5 Q-24.85 21.1 -26.1 21.5 L-26.25 21.55 -28.95 22.15 -32.35 22.35 -32.5 22.35 Q-34.75 22.35 -35.75 21.65 L-36.2 21.2 -36.75 21.1 Q-39.3 20.6 -40.8 19.55 L-42.1 18.35 -42.85 17.7 Q-44.6 15.9 -45.3 14.0 -45.8 12.65 -45.35 12.0 L-42.8 6.45 -39.95 -0.2 -39.05 -2.15 Q-39.15 0.95 -38.35 2.25 -37.6 3.5 -35.0 4.35 -33.85 6.0 -32.2 6.0 L-31.05 5.95 -30.0 5.85 -28.5 5.55 -27.95 5.6 -27.55 5.25 -27.15 5.1 -26.2 4.7 -26.15 4.7 -25.4 4.75 Q-24.5 4.2 -23.6 3.1 L-22.65 2.35 M-25.95 10.1 Q-25.8 9.0 -25.95 8.1 -26.3 6.35 -27.9 6.35 -29.35 6.35 -30.2 8.85 -30.85 10.6 -30.9 12.1 L-30.9 12.35 Q-30.9 13.05 -29.8 15.25 -29.05 16.75 -28.85 17.45 L-27.95 15.6 -26.65 12.9 Q-25.95 11.15 -25.95 10.1" fill="url(#gradient6)" fill-rule="evenodd" stroke="none"/>
    <path d="M17.0 -19.7 L15.95 -18.7 12.9 -15.9 11.4 -14.4 11.7 -16.4 12.25 -21.25 12.3 -21.75 Q14.25 -22.15 15.25 -24.9 15.95 -26.85 15.95 -28.8 L15.95 -29.85 15.75 -32.25 15.45 -32.7 Q18.7 -41.45 21.95 -51.3 23.3 -55.45 24.35 -61.6 L25.0 -65.5 24.9 -62.9 24.8 -60.6 Q24.6 -58.25 24.0 -55.45 L22.65 -50.35 Q21.2 -45.5 20.9 -42.4 20.7 -41.05 20.8 -40.05 L20.75 -36.15 20.7 -36.0 Q20.45 -33.6 19.7 -30.95 L18.6 -27.55 Q17.1 -23.4 17.0 -19.7 M24.9 -73.9 L24.8 -73.5 22.2 -60.65 21.35 -61.15 20.4 -61.5 20.25 -61.5 20.25 -61.6 Q20.55 -64.7 21.35 -67.0 22.0 -68.95 24.45 -73.1 L24.9 -73.9 M17.75 -53.6 L17.75 -52.25 18.1 -51.9 20.55 -53.5 20.35 -52.85 17.0 -41.3 17.0 -41.45 Q17.0 -42.2 16.3 -43.0 L15.4 -43.7 Q14.8 -43.25 14.55 -42.55 L14.4 -42.2 14.0 -40.7 13.45 -39.45 13.45 -37.7 13.8 -37.5 14.55 -37.35 Q15.3 -37.35 15.85 -37.85 L14.35 -33.7 14.1 -33.9 13.1 -34.5 12.75 -34.5 10.95 -30.85 11.05 -31.75 10.7 -34.15 10.7 -34.25 6.95 -33.5 Q4.0 -32.9 2.35 -34.9 0.75 -36.9 0.25 -36.95 -0.3 -36.95 -1.0 -38.95 -1.75 -40.95 -2.15 -43.55 L-1.8 -43.95 -2.25 -45.7 -2.15 -46.55 -1.5 -46.55 -1.35 -46.4 -1.2 -47.55 0.35 -48.95 Q0.5 -50.4 2.55 -52.5 L2.95 -52.9 3.45 -53.75 3.65 -54.45 Q4.25 -56.0 5.3 -56.3 L5.35 -56.35 Q5.6 -56.6 5.6 -55.7 L5.25 -54.35 5.6 -54.3 Q4.9 -52.7 4.45 -50.0 L3.7 -46.05 3.95 -45.55 5.2 -43.2 5.2 -43.1 6.2 -42.45 Q8.85 -40.75 11.1 -42.0 9.95 -43.9 12.15 -47.15 13.25 -48.85 14.9 -50.55 L17.75 -53.6 M10.05 -28.55 L9.85 -28.0 Q9.55 -26.85 9.55 -25.95 9.55 -23.95 10.05 -22.85 L5.1 -11.2 5.15 -11.05 Q3.65 -7.05 3.65 -5.2 L3.7 -4.1 3.15 -3.15 2.75 -0.85 Q2.35 1.4 2.75 2.8 2.2 3.85 1.8 5.25 L1.3 7.25 -0.75 5.2 Q-0.95 4.75 -0.95 2.7 L-1.35 -1.5 -1.5 -9.8 Q-1.5 -11.5 -0.6 -13.55 L-5.15 -13.65 Q-7.25 -13.05 -8.7 -14.8 L-9.0 -15.15 Q-10.4 -15.35 -11.95 -19.8 L-12.35 -21.15 -12.85 -22.2 -12.75 -22.4 -13.05 -22.45 Q-13.25 -22.6 -13.25 -23.25 L-13.15 -24.2 -13.25 -24.6 -13.15 -25.85 -12.8 -25.85 -12.15 -27.9 Q-11.15 -30.55 -10.5 -31.25 L-10.4 -31.35 -10.1 -31.2 -10.05 -30.55 Q-10.05 -28.4 -10.55 -26.3 L-11.15 -24.4 -10.45 -21.75 -10.4 -21.6 Q-8.0 -18.85 -5.2 -17.1 -1.4 -14.8 1.1 -16.0 0.95 -16.95 3.4 -20.15 L4.8 -21.95 9.1 -27.15 9.65 -27.95 10.05 -28.55 M0.25 -42.6 L0.5 -42.3 1.6 -40.75 Q2.85 -38.85 5.3 -36.3 7.75 -33.7 10.6 -34.8 L10.35 -35.9 9.75 -39.1 Q5.95 -39.15 4.2 -40.85 L3.0 -42.35 2.55 -43.0 Q1.45 -43.65 0.9 -45.25 0.4 -43.9 0.25 -42.75 L0.25 -42.6" fill="#81e4f3" fill-rule="evenodd" stroke="none"/>
    <path d="M5.35 -56.35 Q6.5 -60.9 10.0 -65.0 13.95 -69.75 18.0 -72.0 13.75 -74.85 22.75 -86.25 L26.55 -91.25 Q32.15 -98.95 33.4 -103.0 L33.5 -102.8 Q34.0 -101.95 34.0 -100.5 L33.45 -93.75 33.5 -93.65 33.55 -92.75 Q33.55 -91.5 32.95 -88.8 L32.75 -87.85 29.1 -60.8 29.1 -60.7 28.5 -56.8 28.1 -53.95 25.9 -37.9 24.55 -27.8 23.4 -26.4 19.35 -21.6 17.0 -18.8 17.0 -19.7 Q17.1 -23.4 18.6 -27.55 L19.7 -30.95 Q20.45 -33.6 20.7 -36.0 L20.75 -36.15 20.8 -40.05 Q20.7 -41.05 20.9 -42.4 21.2 -45.5 22.65 -50.35 L24.0 -55.45 Q24.6 -58.25 24.8 -60.6 L24.9 -62.9 25.0 -65.5 26.0 -72.1 Q26.55 -75.1 29.9 -83.95 L31.4 -87.85 31.9 -90.4 32.55 -93.65 32.2 -93.8 Q27.75 -86.0 24.9 -73.9 L24.45 -73.1 Q22.0 -68.95 21.35 -67.0 20.55 -64.7 20.25 -61.6 L20.25 -61.5 Q19.75 -61.4 19.4 -60.95 18.7 -60.2 18.3 -58.25 L18.3 -58.15 17.75 -54.75 17.75 -53.6 14.9 -50.55 Q13.25 -48.85 12.15 -47.15 9.95 -43.9 11.1 -42.0 8.85 -40.75 6.2 -42.45 L5.2 -43.1 5.2 -43.2 3.95 -45.55 3.7 -46.05 4.45 -50.0 Q4.9 -52.7 5.6 -54.3 L5.25 -54.35 5.6 -55.7 Q5.6 -56.6 5.35 -56.35 M10.95 -30.85 L10.05 -28.55 9.65 -27.95 9.1 -27.15 4.8 -21.95 3.4 -20.15 Q0.95 -16.95 1.1 -16.0 -1.4 -14.8 -5.2 -17.1 -8.0 -18.85 -10.4 -21.6 L-10.45 -21.75 -11.15 -24.4 -10.55 -26.3 Q-10.05 -28.4 -10.05 -30.55 L-10.1 -31.2 -10.4 -31.35 -10.5 -31.25 Q-9.5 -33.9 -7.1 -37.3 L-2.15 -43.55 Q-1.75 -40.95 -1.0 -38.95 -0.3 -36.95 0.25 -36.95 0.75 -36.9 2.35 -34.9 4.0 -32.9 6.95 -33.5 L10.7 -34.25 10.7 -34.15 11.05 -31.75 10.95 -30.85 M1.3 7.25 L0.25 12.05 0.05 12.4 -6.15 8.8 Q-7.55 7.95 -8.55 7.45 L-10.05 3.85 Q-14.3 -6.4 -14.3 -14.25 L-14.15 -16.65 Q-14.1 -18.55 -14.2 -19.5 L-14.75 -18.95 -14.25 -19.8 -13.65 -20.8 -13.15 -21.65 -12.85 -22.2 -12.35 -21.15 -11.95 -19.8 Q-10.4 -15.35 -9.0 -15.15 L-8.7 -14.8 Q-7.25 -13.05 -5.15 -13.65 L-0.6 -13.55 Q-1.5 -11.5 -1.5 -9.8 L-1.35 -1.5 -0.95 2.7 Q-0.95 4.75 -0.75 5.2 L1.3 7.25 M-18.15 9.15 L-20.0 3.9 Q-21.55 -5.75 -21.55 -7.35 L-21.0 -8.2 -21.3 -6.95 Q-21.3 -3.9 -19.95 1.25 L-20.0 1.75 -18.7 7.0 -18.15 9.15 M0.25 -42.6 L0.25 -42.75 Q0.4 -43.9 0.9 -45.25 1.45 -43.65 2.55 -43.0 L3.0 -42.35 4.2 -40.85 Q5.95 -39.15 9.75 -39.1 L10.35 -35.9 10.6 -34.8 Q7.75 -33.7 5.3 -36.3 2.85 -38.85 1.6 -40.75 L0.5 -42.3 0.25 -42.6" fill="url(#gradient7)" fill-rule="evenodd" stroke="none"/>
    <path d="M0.05 12.4 L-0.45 13.55 Q-3.2 15.05 -8.8 15.05 -12.05 15.05 -14.6 14.0 L-15.0 13.55 -15.05 13.55 -15.6 13.55 -17.55 12.25 -18.15 9.15 -18.7 7.0 -20.0 1.75 -19.95 1.25 Q-21.3 -3.9 -21.3 -6.95 L-21.0 -8.2 Q-20.4 -10.15 -18.15 -13.9 L-14.75 -18.95 -14.2 -19.5 Q-14.1 -18.55 -14.15 -16.65 L-14.3 -14.25 Q-14.3 -6.4 -10.05 3.85 L-8.55 7.45 Q-7.55 7.95 -6.15 8.8 L0.05 12.4 M-47.25 7.65 L-47.85 7.75 Q-48.8 7.75 -50.4 5.75 -52.7 5.0 -54.4 1.8 -55.4 -0.15 -55.9 -2.1 -57.3 -4.4 -57.3 -4.9 L-57.5 -5.2 -58.55 -7.1 -58.8 -7.5 -59.35 -8.6 Q-58.3 -8.75 -56.85 -6.35 L-54.55 -6.0 -46.9 -4.15 -46.9 -4.25 -46.4 -4.05 -43.5 -3.5 -43.5 -2.55 -44.0 -2.6 -43.95 -2.35 -45.6 1.35 Q-47.3 5.15 -47.3 6.8 L-47.35 7.35 -47.3 7.4 -47.25 7.6 -47.25 7.65 M43.15 6.2 L43.3 6.25 42.75 9.35 42.6 10.2 Q42.15 12.85 41.25 14.5 40.25 16.4 37.3 19.05 L35.1 20.9 Q33.35 22.1 32.15 22.1 L29.6 21.9 29.05 22.1 28.45 22.1 26.15 22.3 26.15 22.05 26.15 21.9 Q26.2 21.35 26.55 20.7 L26.6 20.6 26.6 20.55 26.55 20.35 Q26.55 19.65 27.45 17.85 L28.25 16.3 Q30.3 12.5 32.3 12.3 37.95 11.8 40.45 8.9 41.7 7.45 42.35 5.8 L43.15 6.2 M18.7 19.6 L18.7 20.6 18.75 20.65 18.85 21.0 17.15 20.8 16.3 19.85 Q12.4 19.55 8.9 17.55 6.6 16.25 5.65 14.95 L5.45 14.9 5.1 14.7 Q4.95 14.5 4.95 14.0 L4.95 13.95 Q4.45 13.5 4.25 12.8 L4.15 11.9 4.1 11.05 Q4.1 9.1 4.25 8.7 4.4 8.15 5.25 7.25 L5.35 7.05 6.15 5.5 6.2 5.85 6.1 6.45 6.15 6.35 6.05 6.9 Q6.15 8.35 8.1 9.95 L8.2 10.0 9.15 10.75 12.7 13.35 20.75 13.0 21.35 13.3 21.7 13.45 Q21.2 14.1 19.85 16.75 L19.0 18.35 18.8 19.05 18.7 19.6 M-48.4 -3.3 L-48.05 -3.1 -47.9 -3.25 -48.4 -3.3" fill="#1d9caa" fill-rule="evenodd" stroke="none"/>
  </g>
  <defs>
    <linearGradient gradientTransform="matrix(0.0245, 0.0424, -0.0264, 0.0153, -61.5, -25.0)" gradientUnits="userSpaceOnUse" id="gradient0" spreadMethod="pad" x1="-819.2" x2="819.2">
      <stop offset="0.0" stop-color="#15455b"/>
      <stop offset="1.0" stop-color="#4ecfd7"/>
    </linearGradient>
    <linearGradient gradientTransform="matrix(-0.0233, 0.087, -0.0694, -0.0186, 18.05, -44.15)" gradientUnits="userSpaceOnUse" id="gradient1" spreadMethod="pad" x1="-819.2" x2="819.2">
      <stop offset="0.0" stop-color="#15455b"/>
      <stop offset="1.0" stop-color="#4ecfd7"/>
    </linearGradient>
    <linearGradient gradientTransform="matrix(0.01, 0.0173, -0.0141, 0.0081, -17.85, -50.0)" gradientUnits="userSpaceOnUse" id="gradient2" spreadMethod="pad" x1="-819.2" x2="819.2">
      <stop offset="0.0" stop-color="#15455b"/>
      <stop offset="1.0" stop-color="#4ecfd7"/>
    </linearGradient>
    <linearGradient gradientTransform="matrix(0.0329, 0.0329, -0.0148, 0.0148, -21.5, -29.55)" gradientUnits="userSpaceOnUse" id="gradient3" spreadMethod="pad" x1="-819.2" x2="819.2">
      <stop offset="0.0" stop-color="#15455b"/>
      <stop offset="1.0" stop-color="#4ecfd7"/>
    </linearGradient>
    <linearGradient gradientTransform="matrix(-0.0233, 0.087, -0.0694, -0.0186, 18.05, -44.15)" gradientUnits="userSpaceOnUse" id="gradient4" spreadMethod="pad" x1="-819.2" x2="819.2">
      <stop offset="0.0" stop-color="#0b5f81"/>
      <stop offset="1.0" stop-color="#4ecfd7"/>
    </linearGradient>
    <linearGradient gradientTransform="matrix(0.0087, 0.0325, -0.0395, 0.0106, -36.25, -54.55)" gradientUnits="userSpaceOnUse" id="gradient5" spreadMethod="pad" x1="-819.2" x2="819.2">
      <stop offset="0.0" stop-color="#005679"/>
      <stop offset="1.0" stop-color="#4ecfd7"/>
    </linearGradient>
    <linearGradient gradientTransform="matrix(-0.0121, 0.0448, -0.0298, -0.0081, -35.05, -11.6)" gradientUnits="userSpaceOnUse" id="gradient6" spreadMethod="pad" x1="-819.2" x2="819.2">
      <stop offset="0.0" stop-color="#0c6283"/>
      <stop offset="1.0" stop-color="#4ecfd7"/>
    </linearGradient>
    <linearGradient gradientTransform="matrix(-0.0233, 0.087, -0.0694, -0.0186, 18.05, -44.15)" gradientUnits="userSpaceOnUse" id="gradient7" spreadMethod="pad" x1="-819.2" x2="819.2">
      <stop offset="0.0" stop-color="#035277"/>
      <stop offset="1.0" stop-color="#71cef7"/>
    </linearGradient>
  </defs>
</svg>
