<?xml version="1.0" encoding="UTF-8" standalone="no"?>
<svg xmlns:ffdec="https://www.free-decompiler.com/flash" xmlns:xlink="http://www.w3.org/1999/xlink" ffdec:objectType="shape" height="56.35px" width="57.9px" xmlns="http://www.w3.org/2000/svg">
  <g transform="matrix(1.0, 0.0, 0.0, 1.0, -2.55, 103.9)">
    <path d="M33.45 -103.7 Q35.55 -102.65 35.55 -99.45 35.55 -98.0 34.35 -97.2 L35.35 -95.9 35.85 -94.75 Q35.85 -94.35 35.3 -93.7 L34.05 -92.0 Q35.55 -91.15 35.55 -89.85 35.55 -89.45 34.75 -88.6 L33.0 -86.7 33.8 -85.7 Q34.2 -85.1 34.2 -84.45 L34.2 -84.2 34.2 -83.9 Q34.2 -82.55 33.6 -80.4 L32.65 -77.25 Q32.5 -76.0 31.8 -74.95 L31.05 -73.45 30.65 -72.75 30.95 -72.45 Q32.4 -70.85 32.4 -69.75 32.4 -68.25 30.7 -67.25 26.2 -67.4 17.7 -65.95 10.5 -64.75 5.45 -63.0 L2.55 -61.85 2.75 -62.15 Q3.35 -62.8 5.25 -63.75 4.85 -64.55 4.85 -65.1 4.85 -66.6 9.05 -68.7 L9.0 -69.05 Q9.0 -69.45 14.4 -77.35 20.4 -86.2 22.05 -89.3 L25.15 -94.3 28.1 -99.3 Q31.0 -104.9 33.45 -103.7 M46.8 -52.8 L48.8 -55.5 Q51.25 -58.45 53.55 -60.5 60.45 -66.6 60.45 -59.4 60.45 -58.55 58.1 -55.85 58.65 -54.9 58.65 -53.45 58.65 -52.15 57.05 -50.1 55.0 -47.55 52.45 -47.55 48.65 -47.55 47.1 -49.35 46.3 -50.3 46.25 -51.3 46.25 -52.25 46.8 -52.8" fill="#d9f5f9" fill-opacity="0.2" fill-rule="evenodd" stroke="none"/>
  </g>
</svg>
