<?xml version="1.0" encoding="UTF-8" standalone="no"?>
<svg xmlns:ffdec="https://www.free-decompiler.com/flash" xmlns:xlink="http://www.w3.org/1999/xlink" ffdec:objectType="shape" height="58.7px" width="123.0px" xmlns="http://www.w3.org/2000/svg">
  <g transform="matrix(1.0, 0.0, 0.0, 1.0, 62.0, 18.7)">
    <path d="M-54.95 -0.6 L-45.4 -8.1 Q-28.9 -20.05 -25.75 -18.5 L-25.35 -17.85 Q-25.0 -17.3 -25.0 -15.85 -25.0 -14.75 -37.95 -4.65 L-37.2 -4.6 Q-33.0 -4.0 -33.0 -1.1 -33.0 0.15 -34.3 1.6 L-36.0 3.5 -33.45 4.15 -32.1 3.95 -27.0 3.0 -19.0 3.0 Q-16.65 3.8 -16.15 4.9 L-16.1 5.0 -16.0 5.0 -4.05 7.65 -1.1 8.4 Q9.15 9.2 13.3 11.1 15.7 12.2 16.0 13.65 19.9 11.25 22.65 9.2 25.0 8.0 33.75 8.0 34.9 8.0 39.55 4.6 L41.8 3.0 36.0 3.0 33.55 0.9 33.0 0.25 Q33.0 -2.0 34.75 -2.7 37.85 -4.0 48.5 -4.0 52.75 -4.0 55.6 -2.6 L54.75 -2.25 Q52.5 -1.05 52.5 0.25 52.5 0.95 53.0 3.0 L53.5 5.9 Q53.5 8.0 46.45 17.25 38.95 27.0 35.3 28.0 12.65 34.0 -5.3 34.0 -18.7 34.0 -22.5 31.55 L-26.55 28.05 Q-28.8 25.95 -31.4 24.1 L-31.5 21.25 -31.5 21.0 -32.0 21.0 -35.4 20.65 -34.75 21.0 -32.2 23.55 -33.55 22.65 Q-35.95 21.1 -40.4 20.05 L-47.85 18.35 Q-56.25 16.1 -56.25 9.65 -56.25 7.7 -55.5 5.75 -54.75 3.85 -54.75 2.0 L-54.95 -0.6 M29.0 14.75 L29.75 14.0 Q27.45 14.0 25.15 14.85 L21.75 16.0 20.5 16.75 25.9 15.95 Q28.45 15.35 29.0 14.75 M-48.35 15.05 L-49.35 15.1 -46.95 15.9 -48.35 15.05" fill="#d9f5f9" fill-opacity="0.6" fill-rule="evenodd" stroke="none"/>
    <path d="M55.6 -2.6 Q58.35 -1.3 59.75 1.3 61.0 3.6 61.0 7.25 61.0 9.05 57.3 14.2 53.2 19.9 47.5 25.25 31.85 40.0 17.5 40.0 -19.8 40.0 -30.45 34.05 -33.25 32.5 -36.0 29.05 -38.45 26.05 -41.25 25.0 -55.7 19.4 -58.8 16.95 -62.0 14.4 -62.0 8.25 -62.0 5.45 -54.95 -0.6 L-54.75 2.0 Q-54.75 3.85 -55.5 5.75 -56.25 7.7 -56.25 9.65 -56.25 16.1 -47.85 18.35 L-40.4 20.05 Q-35.95 21.1 -33.55 22.65 L-32.2 23.55 -32.05 23.7 -31.4 24.35 -31.4 24.1 Q-28.8 25.95 -26.55 28.05 L-22.5 31.55 Q-18.7 34.0 -5.3 34.0 12.65 34.0 35.3 28.0 38.95 27.0 46.45 17.25 53.5 8.0 53.5 5.9 L53.0 3.0 Q52.5 0.95 52.5 0.25 52.5 -1.05 54.75 -2.25 L55.6 -2.6" fill="#d9f5f9" fill-opacity="0.29803923" fill-rule="evenodd" stroke="none"/>
  </g>
</svg>
