<?xml version="1.0" encoding="UTF-8" standalone="no"?>
<svg xmlns:ffdec="https://www.free-decompiler.com/flash" xmlns:xlink="http://www.w3.org/1999/xlink" ffdec:objectType="shape" height="97.85px" width="93.65px" xmlns="http://www.w3.org/2000/svg">
  <g transform="matrix(1.0, 0.0, 0.0, 1.0, 46.4, 89.85)">
    <path d="M2.15 -55.55 Q16.95 -62.0 20.4 -62.9 L29.25 -64.6 32.7 -65.65 32.7 -65.45 Q32.7 -64.65 31.8 -62.55 30.7 -59.95 29.4 -59.55 29.8 -58.4 29.5 -57.35 29.85 -56.9 29.85 -56.25 29.85 -55.8 29.5 -55.3 L28.7 -54.15 Q29.2 -53.95 29.55 -53.35 L29.85 -52.25 Q29.85 -51.15 28.35 -49.35 26.3 -47.05 25.8 -46.05 24.95 -44.25 21.75 -43.4 L15.0 -41.85 Q10.05 -40.5 1.0 -36.35 -6.9 -32.7 -8.25 -32.7 -9.7 -32.7 -10.25 -33.9 L-10.55 -35.1 Q-10.55 -35.65 -6.95 -39.3 L-3.35 -42.9 -3.6 -43.75 -3.9 -44.6 Q-3.9 -45.15 -2.75 -46.05 L-3.0 -47.1 Q-3.0 -48.3 -0.75 -51.1 1.5 -53.85 2.85 -54.45 2.35 -55.05 2.15 -55.55 M7.35 -2.7 Q7.35 -4.55 10.3 -5.6 13.2 -6.65 13.2 -7.15 13.2 -8.45 12.35 -9.05 11.45 -9.65 11.45 -10.7 11.45 -12.45 18.55 -16.05 25.5 -19.55 30.0 -20.25 33.6 -20.75 41.35 -23.6 47.25 -25.3 47.25 -21.8 L46.95 -20.95 46.65 -20.1 Q46.65 -19.7 46.95 -19.4 L47.25 -18.75 Q47.25 -17.65 45.85 -16.05 44.4 -14.45 44.4 -12.3 44.4 -10.5 35.55 -7.2 L22.7 -2.7 Q19.35 -1.35 2.85 8.0 1.35 8.0 0.75 6.85 L0.45 5.65 Q0.45 4.25 2.95 2.45 4.4 1.4 8.1 -0.65 7.35 -1.9 7.35 -2.7 M-36.45 -80.15 L-31.6 -73.3 Q-27.0 -66.6 -27.0 -64.75 L-27.0 -64.2 Q-26.15 -63.6 -25.8 -62.4 -23.65 -62.8 -20.3 -60.2 -16.95 -57.65 -16.95 -55.6 -16.95 -53.45 -20.25 -52.7 -27.95 -50.95 -31.05 -49.8 L-39.3 -46.05 -44.05 -43.9 -45.05 -47.8 -45.35 -48.9 -44.0 -49.55 Q-43.05 -51.0 -43.0 -51.75 L-43.2 -53.25 -43.05 -54.1 Q-45.1 -55.85 -45.95 -61.0 -46.55 -64.95 -46.35 -69.1 -46.35 -73.3 -45.45 -76.55 -44.55 -79.8 -44.55 -82.0 -44.55 -82.35 -45.1 -83.3 -45.65 -84.2 -45.65 -84.75 -42.4 -92.95 -40.2 -87.95 -39.15 -86.4 -38.15 -84.1 L-36.45 -80.15 M-23.55 -28.35 Q-23.55 -26.6 -26.25 -22.25 -29.35 -17.25 -32.1 -17.25 -34.1 -17.25 -35.15 -18.6 -35.85 -19.5 -35.85 -20.25 L-34.1 -24.0 Q-32.1 -28.35 -31.05 -31.1 L-30.25 -33.75 Q-29.7 -35.55 -28.95 -36.6 -27.0 -39.15 -25.45 -38.25 -24.15 -37.5 -24.15 -35.55 -24.15 -34.55 -24.7 -33.6 -25.45 -32.35 -25.8 -30.9 -23.55 -29.8 -23.55 -28.35" fill="#d9f5f9" fill-opacity="0.2" fill-rule="evenodd" stroke="none"/>
  </g>
</svg>
