<?xml version="1.0" encoding="UTF-8" standalone="no"?>
<svg xmlns:ffdec="https://www.free-decompiler.com/flash" xmlns:xlink="http://www.w3.org/1999/xlink" ffdec:objectType="shape" height="52.65px" width="98.25px" xmlns="http://www.w3.org/2000/svg">
  <g transform="matrix(1.0, 0.0, 0.0, 1.0, 52.15, 27.95)">
    <path d="M30.15 -25.55 Q30.5 -24.3 32.1 -22.4 34.15 -19.9 36.0 -18.9 L36.85 -18.45 37.8 -17.9 37.95 -17.8 39.45 -17.0 Q41.5 -15.85 42.55 -15.5 44.55 -14.4 46.1 -13.85 L45.1 -13.85 Q43.05 -13.85 40.65 -14.55 L37.5 -15.6 Q35.9 -16.1 34.85 -17.0 L32.9 -18.6 Q31.95 -19.25 30.95 -21.55 30.0 -23.7 30.0 -25.0 L30.1 -25.6 30.15 -25.55 M1.8 21.5 L1.7 21.45 -3.1 20.9 Q-8.0 20.9 -12.05 23.35 -13.2 24.05 -13.95 24.7 L-13.95 24.6 Q-13.95 23.6 -11.9 21.85 -9.85 20.15 -7.6 19.25 L-1.5 19.4 Q1.4 20.35 1.8 21.5 M24.2 22.0 L24.2 21.7 Q24.2 20.5 26.45 18.85 28.9 17.05 31.55 16.7 34.4 16.35 38.15 17.85 41.1 19.0 41.75 20.1 38.2 19.0 34.75 19.0 L33.55 19.05 32.7 19.0 Q31.15 19.0 29.8 19.65 28.3 20.0 26.85 20.6 25.2 21.25 24.2 22.0 M-47.0 -13.75 L-46.1 -13.4 Q-45.7 -13.0 -45.5 -11.65 L-45.3 -8.2 Q-45.3 -4.4 -47.35 0.15 -49.6 5.15 -52.15 5.2 -50.7 3.55 -49.25 0.15 -46.7 -5.95 -46.7 -10.1 L-47.0 -13.75 M-5.35 -26.1 L-3.15 -27.95 Q-3.4 -26.25 -6.0 -23.95 -9.45 -20.9 -14.15 -20.9 -16.5 -20.9 -20.15 -23.2 -23.1 -25.1 -23.6 -26.3 -22.7 -25.8 -21.05 -25.25 L-18.45 -24.0 Q-15.7 -22.85 -13.9 -22.85 -9.7 -22.85 -5.35 -26.1" fill="#ffffff" fill-opacity="0.4509804" fill-rule="evenodd" stroke="none"/>
  </g>
</svg>
