<?xml version="1.0" encoding="UTF-8" standalone="no"?>
<svg xmlns:ffdec="https://www.free-decompiler.com/flash" xmlns:xlink="http://www.w3.org/1999/xlink" ffdec:objectType="shape" height="38.25px" width="16.95px" xmlns="http://www.w3.org/2000/svg">
  <g transform="matrix(1.0, 0.0, 0.0, 1.0, 7.9, 17.9)">
    <path d="M9.05 -13.8 Q9.2 -12.15 8.1 -10.85 7.0 -9.55 5.25 -9.4 L4.05 -9.45 3.8 -9.2 Q2.3 -7.7 0.2 -7.7 -1.6 -7.7 -2.95 -8.8 L-4.35 -8.95 Q-6.0 -9.4 -6.8 -10.9 -7.6 -12.4 -7.15 -14.05 -6.85 -15.1 -6.1 -15.8 -5.25 -17.2 -3.6 -17.65 L-1.25 -17.7 0.2 -17.9 Q1.75 -17.9 2.95 -17.1 L4.65 -17.6 Q6.3 -17.75 7.6 -16.65 8.9 -15.55 9.05 -13.8 M3.1 18.05 L2.3 18.25 1.65 19.25 Q0.65 20.3 -0.75 20.35 -2.15 20.4 -3.25 19.45 -4.25 18.5 -4.35 17.2 L-4.9 17.05 Q-6.55 16.6 -7.4 15.1 -8.2 13.65 -7.75 12.0 -7.3 10.35 -5.8 9.5 -4.35 8.7 -2.7 9.15 L-1.85 9.45 Q-1.05 8.6 0.2 8.25 2.2 7.65 4.1 8.7 5.95 9.7 6.55 11.7 7.15 13.7 6.1 15.6 5.1 17.45 3.1 18.05" fill="#f3b6e1" fill-rule="evenodd" stroke="none"/>
  </g>
</svg>
