<?xml version="1.0" encoding="UTF-8" standalone="no"?>
<svg xmlns:ffdec="https://www.free-decompiler.com/flash" xmlns:xlink="http://www.w3.org/1999/xlink" ffdec:objectType="shape" height="77.65px" width="39.2px" xmlns="http://www.w3.org/2000/svg">
  <g transform="matrix(1.0, 0.0, 0.0, 1.0, 17.5, 38.9)">
    <path d="M18.6 -29.6 Q20.5 -28.0 21.3 -26.2 22.1 -24.3 21.3 -23.4 20.5 -22.45 18.6 -23.0 16.7 -23.5 14.8 -25.1 12.9 -26.7 12.1 -28.5 11.3 -30.35 12.1 -31.3 12.9 -32.2 14.8 -31.7 16.7 -31.2 18.6 -29.6 M5.5 -32.65 Q3.3 -31.6 0.2 -31.6 L-2.3 -31.8 -2.6 -31.55 Q-4.25 -30.1 -6.9 -29.35 L-7.05 -29.3 -7.25 -29.0 Q-8.4 -27.35 -10.6 -26.15 -12.8 -24.95 -14.75 -24.8 -16.75 -24.75 -17.3 -25.8 -17.9 -26.85 -16.8 -28.5 -15.85 -29.85 -14.2 -30.9 -14.35 -32.05 -12.95 -33.4 -11.3 -34.85 -8.65 -35.6 L-7.15 -35.95 Q-6.8 -37.0 -5.1 -37.85 -2.9 -38.9 0.2 -38.9 3.3 -38.9 5.5 -37.85 7.7 -36.75 7.7 -35.25 7.7 -33.75 5.5 -32.65 M12.35 30.7 Q14.75 31.15 15.15 32.55 15.6 34.0 13.8 35.65 11.95 37.3 9.0 38.15 6.05 39.0 3.6 38.65 1.2 38.2 0.75 36.75 0.4 35.6 1.55 34.3 L-0.1 34.5 Q-2.2 34.6 -3.75 33.95 L-4.45 33.6 -5.1 33.75 -9.45 33.4 Q-11.85 32.75 -13.3 31.45 -14.85 30.15 -14.5 28.95 -14.2 27.8 -12.2 27.4 L-7.85 27.7 Q-5.45 28.35 -4.0 29.7 L-3.45 30.25 Q-2.15 29.7 -0.35 29.6 1.75 29.5 3.3 30.15 4.8 30.8 4.85 31.8 L4.85 31.95 6.95 31.15 Q9.9 30.3 12.35 30.7" fill="#f3b6e1" fill-opacity="0.29803923" fill-rule="evenodd" stroke="none"/>
  </g>
</svg>
