<?xml version="1.0" encoding="UTF-8" standalone="no"?>
<svg xmlns:ffdec="https://www.free-decompiler.com/flash" xmlns:xlink="http://www.w3.org/1999/xlink" ffdec:objectType="shape" height="40.15px" width="88.85px" xmlns="http://www.w3.org/2000/svg">
  <g transform="matrix(1.0, 0.0, 0.0, 1.0, 44.4, 20.1)">
    <path d="M29.45 -5.65 Q34.35 -3.25 40.0 -3.25 L40.4 -3.25 39.9 -2.4 Q38.8 -0.25 38.8 2.25 38.8 6.15 40.85 9.9 L44.45 15.15 38.95 12.5 Q34.5 10.45 30.0 10.45 26.55 10.45 23.85 12.2 21.8 13.5 20.95 16.3 L20.85 15.75 Q20.3 13.4 19.4 11.7 16.7 6.7 10.5 6.7 5.25 6.7 3.4 10.35 2.8 11.7 2.55 14.4 2.4 13.45 0.5 12.15 -2.25 10.2 -5.95 10.2 -10.15 10.2 -13.4 12.9 -16.1 15.2 -16.15 17.3 -16.6 15.6 -17.2 14.65 -18.45 12.75 -21.85 12.75 -26.65 12.7 -31.05 16.25 -33.25 18.05 -34.6 20.05 -34.0 18.35 -34.0 16.75 -34.0 12.9 -38.65 10.8 -41.1 9.65 -44.4 9.0 L-42.7 7.35 Q-40.3 4.8 -39.85 3.75 -38.5 0.75 -38.05 -1.2 -37.6 -3.1 -37.6 -5.8 -37.6 -7.8 -37.85 -9.6 L-38.0 -10.35 Q-34.8 -8.35 -32.6 -8.35 -26.9 -8.35 -24.8 -12.4 -23.65 -14.7 -23.65 -18.75 L-23.5 -18.85 Q-22.55 -16.7 -20.65 -15.0 -17.3 -12.0 -12.05 -12.0 -7.15 -12.0 -3.75 -15.5 -1.85 -17.45 -0.8 -20.1 -0.35 -17.45 1.85 -15.25 5.35 -11.8 11.45 -11.8 15.4 -11.8 18.6 -13.65 21.25 -15.2 21.45 -16.35 22.05 -9.15 29.45 -5.65" fill="#ffffff" fill-rule="evenodd" stroke="none"/>
  </g>
</svg>
