<?xml version="1.0" encoding="UTF-8" standalone="no"?>
<svg xmlns:ffdec="https://www.free-decompiler.com/flash" xmlns:xlink="http://www.w3.org/1999/xlink" ffdec:objectType="shape" height="47.7px" width="68.3px" xmlns="http://www.w3.org/2000/svg">
  <g transform="matrix(1.0, 0.0, 0.0, 1.0, 23.45, 25.2)">
    <path d="M31.65 -16.65 Q30.7 -17.3 29.7 -19.6 28.75 -21.75 28.75 -23.05 L28.85 -23.65 28.9 -23.6 Q29.25 -22.35 30.85 -20.45 32.9 -17.95 34.75 -16.95 35.1 -16.75 35.6 -16.5 L36.55 -15.95 36.7 -15.85 38.2 -15.05 Q40.25 -13.9 41.3 -13.55 43.3 -12.45 44.85 -11.9 L43.85 -11.9 Q41.8 -11.9 39.4 -12.6 L36.25 -13.65 Q34.65 -14.15 33.6 -15.05 L31.65 -16.65 M1.7 19.3 L1.6 19.25 -3.2 18.7 Q-8.1 18.7 -12.15 21.15 -13.3 21.85 -14.05 22.5 L-14.05 22.4 Q-14.05 21.4 -12.0 19.65 -9.95 17.95 -7.7 17.05 L-1.6 17.2 Q1.3 18.15 1.7 19.3 M29.2 17.7 L26.25 18.65 Q24.6 19.3 23.6 20.05 L23.6 19.75 Q23.6 18.55 25.85 16.9 28.3 15.1 30.95 14.75 33.8 14.4 37.55 15.9 40.5 17.05 41.15 18.15 37.6 17.05 34.15 17.05 L32.95 17.1 32.1 17.05 Q30.55 17.05 29.2 17.7" fill="#ffffff" fill-rule="evenodd" stroke="none"/>
    <path d="M-20.9 -22.5 Q-19.7 -21.85 -18.3 -21.25 -15.55 -20.1 -13.75 -20.1 -9.55 -20.1 -5.2 -23.35 L-3.0 -25.2 Q-3.25 -23.5 -5.85 -21.2 -9.3 -18.15 -14.0 -18.15 -16.35 -18.15 -20.0 -20.45 -22.95 -22.35 -23.45 -23.55 -22.55 -23.05 -20.9 -22.5" fill="#ffffff" fill-rule="evenodd" stroke="none"/>
  </g>
</svg>
