<?xml version="1.0" encoding="UTF-8" standalone="no"?>
<svg xmlns:ffdec="https://www.free-decompiler.com/flash" xmlns:xlink="http://www.w3.org/1999/xlink" ffdec:objectType="shape" height="25.45px" width="20.4px" xmlns="http://www.w3.org/2000/svg">
  <g transform="matrix(1.0, 0.0, 0.0, 1.0, 10.2, 12.75)">
    <path d="M-9.85 12.7 L-10.0 12.7 -10.2 12.25 -10.05 10.7 -9.95 9.95 -9.85 9.2 -9.65 7.75 -9.35 6.25 -7.9 -5.55 -7.4 -8.45 -7.15 -9.9 -7.05 -10.65 -7.0 -10.75 -7.0 -10.8 Q-7.0 -11.15 -5.5 -11.45 L-3.4 -11.9 -1.35 -12.45 -0.45 -12.6 -0.35 -12.7 0.1 -12.65 0.2 -12.4 0.4 -12.1 1.1 -10.9 2.45 -8.6 5.0 -4.05 7.5 0.55 Q10.2 4.65 10.2 5.1 L10.2 5.3 10.2 5.5 10.1 6.35 9.8 7.4 9.55 8.35 9.5 8.8 9.35 9.1 Q9.3 8.75 8.9 8.75 L8.8 8.8 8.8 8.75 8.85 8.2 9.35 6.5 9.45 6.1 9.8 5.7 Q9.8 5.35 9.5 5.3 L9.35 5.05 9.3 5.0 6.95 1.05 5.8 -1.2 4.6 -3.4 2.05 -7.9 0.7 -10.15 0.0 -11.2 -0.3 -11.8 -0.9 -11.6 -2.45 -11.2 -3.7 -11.0 -4.55 -10.75 -5.45 -10.65 -5.95 -10.5 -6.3 -10.25 -6.55 -9.15 -6.65 -8.4 -6.85 -7.7 -7.25 -4.8 -7.6 -1.85 -7.95 1.05 -8.75 6.85 -9.0 8.3 -9.05 8.4 -9.0 8.5 -9.0 8.55 Q-9.5 8.7 -9.5 8.95 L-9.5 9.15 -9.1 9.3 -9.2 9.8 -9.4 11.25 -9.4 12.0 Q-10.05 12.05 -10.05 12.3 L-10.05 12.5 -9.7 12.65 -9.85 12.7" fill="#000000" fill-rule="evenodd" stroke="none"/>
    <path d="M-9.0 8.55 L-9.0 8.5 -9.05 8.4 -9.0 8.3 -8.75 6.85 -7.95 1.05 -7.6 -1.85 -7.25 -4.8 -6.85 -7.7 -6.65 -8.4 -6.55 -9.15 -6.3 -10.25 -5.95 -10.5 -5.45 -10.65 -4.55 -10.75 -3.7 -11.0 -2.45 -11.2 -0.9 -11.6 -0.3 -11.8 0.0 -11.2 0.7 -10.15 2.05 -7.9 4.6 -3.4 5.8 -1.2 6.95 1.05 9.3 5.0 9.35 5.05 9.5 5.3 9.5 5.35 9.05 5.75 7.65 6.0 4.7 6.5 Q4.45 6.5 4.1 5.9 L3.75 5.1 3.4 4.35 3.3 4.1 3.0 4.15 -1.85 4.7 -4.05 4.95 -4.45 7.3 Q-4.35 8.05 -4.85 8.05 L-5.0 8.1 -5.95 8.35 -8.55 8.65 -9.0 8.55 M0.55 0.3 L1.15 0.0 1.25 0.0 0.8 -0.95 -0.35 -3.45 -0.9 -4.5 -0.95 -4.65 -1.9 -6.65 -2.4 -7.45 -2.8 -8.2 -2.9 -8.05 -3.0 -7.5 -3.4 -4.25 -3.7 -2.3 -3.95 0.1 -3.85 0.75 -3.8 0.85 -3.6 0.95 -0.95 0.5 0.55 0.3" fill="#ffff00" fill-rule="evenodd" stroke="none"/>
    <path d="M-9.85 12.7 L-9.7 12.65 -10.05 12.5 -10.05 12.3 Q-10.05 12.05 -9.4 12.0 L-9.4 11.25 -9.2 9.8 -9.1 9.3 -9.5 9.15 -9.5 8.95 Q-9.5 8.7 -9.0 8.55 L-8.55 8.65 -5.95 8.35 -5.0 8.1 -4.85 8.05 Q-4.35 8.05 -4.45 7.3 L-4.05 4.95 -1.85 4.7 3.0 4.15 3.3 4.1 3.4 4.35 3.75 5.1 4.1 5.9 Q4.45 6.5 4.7 6.5 L7.65 6.0 9.05 5.75 9.5 5.35 9.5 5.3 Q9.8 5.35 9.8 5.7 L9.45 6.1 9.35 6.5 8.85 8.2 8.8 8.75 8.8 8.8 8.9 8.75 Q9.3 8.75 9.35 9.1 L9.4 9.2 9.35 9.2 8.55 9.75 7.1 10.1 4.35 10.7 3.8 10.05 3.75 9.9 3.75 9.85 3.4 8.95 2.55 7.45 2.05 7.5 -0.4 7.8 -3.95 8.4 -4.05 8.95 -4.25 10.0 -4.4 11.0 -4.4 11.6 Q-4.45 12.0 -4.85 12.0 L-5.0 12.0 -5.1 12.0 -6.65 12.25 -9.3 12.7 -9.65 12.7 -9.85 12.7 M0.55 0.3 L-0.95 0.5 -3.6 0.95 -3.8 0.85 -3.85 0.75 -3.95 0.1 -3.7 -2.3 -3.4 -4.25 -3.0 -7.5 -2.9 -8.05 -2.8 -8.2 -2.4 -7.45 -1.9 -6.65 -0.95 -4.65 -0.9 -4.5 -0.35 -3.45 0.8 -0.95 1.25 0.0 1.15 0.0 0.55 0.3 M-3.05 -3.5 L-3.45 -0.2 -3.35 0.4 -2.9 0.3 -1.05 0.05 -1.0 0.05 -1.3 -0.5 -2.0 -1.9 -2.55 -3.2 -2.9 -4.05 -3.05 -3.5" fill="#240d00" fill-rule="evenodd" stroke="none"/>
  </g>
</svg>
