<?xml version="1.0" encoding="UTF-8" standalone="no"?>
<svg xmlns:ffdec="https://www.free-decompiler.com/flash" xmlns:xlink="http://www.w3.org/1999/xlink" ffdec:objectType="shape" height="24.95px" width="20.55px" xmlns="http://www.w3.org/2000/svg">
  <g transform="matrix(1.0, 0.0, 0.0, 1.0, 10.25, 12.5)">
    <path d="M9.35 -9.95 L9.35 -9.4 9.2 -6.4 8.6 -0.45 7.9 5.5 7.7 7.9 7.25 7.8 4.8 7.5 3.05 7.3 2.0 5.65 1.5 4.8 -0.65 1.2 -0.8 0.95 -1.55 -0.3 -2.55 -2.15 -3.5 -3.95 -4.2 -5.35 -4.75 -1.7 -5.0 0.1 -5.0 0.2 -5.0 0.55 -5.3 3.6 -5.55 6.75 -9.35 6.4 -9.65 6.0 -9.65 5.6 -9.3 1.35 -8.8 -3.2 -8.6 -4.7 -8.5 -6.2 -8.1 -9.05 -8.0 -9.9 -7.85 -11.0 -7.8 -11.55 -7.75 -11.55 -7.75 -11.65 -7.7 -11.65 -7.45 -11.65 -7.35 -11.65 -4.5 -11.3 -3.5 -11.05 -3.0 -10.0 -1.95 -8.15 0.1 -4.9 2.6 -0.45 2.6 -0.35 2.85 -0.2 3.85 0.9 4.15 1.3 4.15 1.0 4.35 0.1 4.45 -0.15 4.6 -1.2 4.95 -4.4 Q4.85 -6.1 5.25 -7.55 L5.55 -10.55 7.2 -10.5 8.25 -10.2 9.35 -9.95" fill="#ffff00" fill-rule="evenodd" stroke="none"/>
    <path d="M10.0 -10.55 Q10.3 -10.4 10.3 -9.9 L10.2 -9.05 Q10.2 -6.1 9.2 1.5 L8.7 6.8 8.45 9.9 8.05 11.7 8.1 11.95 Q8.1 12.45 7.6 12.45 L5.6 12.4 3.5 12.05 2.85 11.8 2.7 11.4 2.1 10.35 Q1.05 9.25 -1.35 4.85 L-3.95 -0.25 -4.15 1.3 -4.5 4.55 -4.8 7.5 -4.8 7.65 -4.95 8.55 -5.15 10.15 -5.2 10.2 -5.15 10.2 -5.25 10.95 -6.05 11.15 -9.6 10.85 -9.75 10.8 -9.8 10.8 Q-10.1 10.8 -10.2 10.05 L-10.25 9.25 -10.0 3.35 -9.6 -1.8 -9.25 -7.3 -8.75 -10.1 -8.65 -11.45 Q-8.65 -12.05 -8.2 -12.35 L-7.85 -12.45 -7.45 -12.5 -4.85 -12.3 Q-2.9 -12.0 -2.85 -11.5 L-2.35 -10.7 -1.5 -9.05 0.65 -5.6 2.8 -1.95 3.7 -0.35 4.15 -5.55 4.25 -7.1 4.45 -7.95 4.55 -8.25 5.15 -11.35 5.4 -11.4 7.15 -11.35 8.95 -10.95 9.95 -10.6 10.0 -10.55 M9.35 -9.95 L8.25 -10.2 7.2 -10.5 5.55 -10.55 5.25 -7.55 Q4.85 -6.1 4.95 -4.4 L4.6 -1.2 4.45 -0.15 4.35 0.1 4.15 1.0 4.15 1.3 3.85 0.9 2.85 -0.2 2.6 -0.35 2.6 -0.45 0.1 -4.9 -1.95 -8.15 -3.0 -10.0 -3.5 -11.05 -4.5 -11.3 -7.35 -11.65 -7.45 -11.65 -7.7 -11.65 -7.75 -11.65 -7.75 -11.55 -7.8 -11.55 -7.85 -11.0 -8.0 -9.9 -8.1 -9.05 -8.5 -6.2 -8.6 -4.7 -8.8 -3.2 -9.3 1.35 -9.65 5.6 -9.65 6.0 -9.35 6.4 -5.55 6.75 -5.3 3.6 -5.0 0.55 -5.0 0.2 -5.0 0.1 -4.75 -1.7 -4.2 -5.35 -3.5 -3.95 -2.55 -2.15 -1.55 -0.3 -0.8 0.95 -0.65 1.2 1.5 4.8 2.0 5.65 3.05 7.3 4.8 7.5 7.25 7.8 7.7 7.9 7.9 5.5 8.6 -0.45 9.2 -6.4 9.35 -9.4 9.35 -9.95" fill="#000000" fill-rule="evenodd" stroke="none"/>
  </g>
</svg>
