<?xml version="1.0" encoding="UTF-8" standalone="no"?>
<svg xmlns:ffdec="https://www.free-decompiler.com/flash" xmlns:xlink="http://www.w3.org/1999/xlink" ffdec:objectType="shape" height="23.4px" width="20.35px" xmlns="http://www.w3.org/2000/svg">
  <g transform="matrix(1.0, 0.0, 0.0, 1.0, 10.15, 11.7)">
    <path d="M-9.35 -5.5 L-9.25 -5.95 -7.95 -8.1 -6.75 -9.4 -5.6 -10.15 -4.2 -10.9 Q-4.0 -10.95 -3.6 -11.15 L-2.95 -11.4 -2.2 -11.6 0.25 -11.7 Q2.6 -11.7 5.3 -10.35 L6.65 -9.35 7.75 -8.3 8.55 -7.25 9.1 -6.2 9.45 -5.1 9.55 -4.55 9.65 -4.1 9.65 -3.95 9.75 -3.5 9.9 -1.85 9.75 -1.3 9.85 -1.1 8.8 -0.9 9.25 -0.75 9.8 -0.6 9.8 -0.4 10.0 1.0 10.2 2.85 Q10.2 3.6 9.95 3.6 L9.9 3.6 9.75 4.15 Q8.45 8.75 5.3 10.55 2.1 12.45 -2.35 11.2 -4.5 10.55 -6.0 9.45 -7.5 8.3 -8.45 6.6 L-8.8 5.85 -9.05 5.45 -9.35 4.5 -9.8 2.55 -10.0 0.8 -10.0 0.75 -10.0 0.55 -10.15 -1.2 -10.0 -2.75 -10.0 -3.05 -10.0 -3.1 -9.9 -3.6 -9.6 -4.7 -9.35 -5.5 M-4.65 1.75 L-4.8 1.5 -4.95 1.15 -5.1 0.8 -5.05 0.65 Q-5.45 -0.85 -4.9 -2.85 -4.15 -5.35 -2.5 -6.45 -0.85 -7.6 1.3 -6.95 L3.3 -5.9 4.6 -3.85 7.7 -4.35 8.0 -4.5 8.9 -4.65 8.7 -5.7 7.35 -7.85 Q6.7 -8.8 4.85 -9.85 L3.95 -10.3 3.0 -10.6 2.0 -10.9 0.2 -11.15 -2.85 -10.8 -4.0 -10.3 Q-4.7 -10.1 -5.9 -9.15 L-7.15 -7.9 -8.05 -6.6 -9.2 -4.0 -9.35 -3.3 -9.55 -1.4 -9.35 1.65 -9.3 2.1 -9.15 2.5 -8.95 3.05 Q-8.0 4.75 -6.5 5.9 -5.0 7.0 -2.85 7.65 1.6 8.9 4.8 7.05 6.9 5.8 8.15 3.45 L8.2 3.4 8.35 2.95 8.55 2.5 9.2 0.65 9.3 0.3 9.3 -0.1 2.2 -2.4 1.0 -2.75 0.25 -2.9 0.2 -2.7 0.0 -2.05 -0.2 -1.0 -0.45 0.1 -0.55 0.7 -0.55 0.75 0.5 1.0 1.65 1.3 3.0 1.65 Q3.25 1.7 3.35 1.85 L3.7 1.9 Q3.1 3.35 1.55 3.9 L-0.2 4.25 -0.25 4.25 -0.4 4.25 -0.65 4.25 -1.75 4.0 -1.85 3.95 -2.75 3.5 -3.45 3.1 -4.0 2.6 -4.4 2.15 -4.6 1.85 -4.65 1.7 -4.65 1.75 M1.9 -3.1 L3.2 -2.75 3.4 -2.7 1.8 -3.4 Q-0.35 -4.05 -2.0 -2.9 -3.7 -1.8 -4.4 0.7 L-4.4 0.75 -4.15 1.35 -3.6 2.15 Q-2.15 3.6 -0.6 3.6 L-0.45 3.6 0.1 1.5 -0.35 1.4 -1.05 1.15 -1.2 0.95 -1.2 0.75 -0.9 -0.4 -0.7 -1.6 -0.45 -2.75 -0.25 -3.35 Q-0.1 -3.7 0.1 -3.55 L0.2 -3.5 0.3 -3.5 1.9 -3.1" fill="#240d00" fill-rule="evenodd" stroke="none"/>
    <path d="M-10.0 -3.1 L-9.75 -4.45 -9.35 -5.5 -9.6 -4.7 -9.9 -3.6 -10.0 -3.1 M-1.85 3.95 L-1.75 4.0 -0.65 4.25 -0.4 4.25 -0.25 4.25 -0.2 4.25 1.55 3.9 Q3.1 3.35 3.7 1.9 L3.35 1.85 Q3.25 1.7 3.0 1.65 L1.65 1.3 0.5 1.0 -0.55 0.75 -0.55 0.7 -0.45 0.1 -0.2 -1.0 0.0 -2.05 0.2 -2.7 0.25 -2.9 1.0 -2.75 2.2 -2.4 9.3 -0.1 9.3 0.3 9.2 0.65 8.55 2.5 8.35 2.95 8.2 3.4 8.15 3.45 Q6.9 5.8 4.8 7.05 1.6 8.9 -2.85 7.65 -5.0 7.0 -6.5 5.9 -8.0 4.75 -8.95 3.05 L-9.15 2.5 -9.3 2.1 -9.35 1.65 -9.55 -1.4 -9.35 -3.3 -9.2 -4.0 -8.05 -6.6 -7.15 -7.9 -5.9 -9.15 Q-4.7 -10.1 -4.0 -10.3 L-2.85 -10.8 0.2 -11.15 2.0 -10.9 3.0 -10.6 3.95 -10.3 4.85 -9.85 Q6.7 -8.8 7.35 -7.85 L8.7 -5.7 8.9 -4.65 8.0 -4.5 7.7 -4.35 4.6 -3.85 3.3 -5.9 1.3 -6.95 Q-0.85 -7.6 -2.5 -6.45 -4.15 -5.35 -4.9 -2.85 -5.45 -0.85 -5.05 0.65 L-5.1 0.8 -4.95 1.15 -4.8 1.5 -4.65 1.75 -4.6 1.85 -4.4 2.15 Q-3.55 3.4 -1.85 3.95" fill="#ffff00" fill-rule="evenodd" stroke="none"/>
  </g>
</svg>
