<?xml version="1.0" encoding="UTF-8" standalone="no"?>
<svg xmlns:ffdec="https://www.free-decompiler.com/flash" xmlns:xlink="http://www.w3.org/1999/xlink" ffdec:objectType="shape" height="60.0px" width="235.85px" xmlns="http://www.w3.org/2000/svg">
  <g transform="matrix(1.0, 0.0, 0.0, 1.0, 109.85, 30.0)">
    <path d="M20.7 -21.25 L18.15 -21.65 Q-39.95 -25.15 -84.2 -19.45 -96.65 -17.8 -105.85 -15.75 L-108.9 -15.0 -109.85 -14.85 -109.65 -15.2 Q-101.6 -18.4 -89.7 -21.2 -66.6 -26.7 -37.35 -28.7 L-0.35 -30.0 36.75 -28.7 Q65.9 -26.7 89.0 -21.2 126.0 -12.45 126.0 0.0 L126.0 1.0 Q124.55 12.8 89.0 21.2 52.0 30.0 -0.35 30.0 -32.85 30.0 -59.45 26.6 L-54.85 26.65 Q-37.55 27.85 -13.9 27.85 7.4 27.85 26.9 25.35 L43.85 23.2 Q51.1 22.0 55.8 20.65 L59.3 19.45 68.35 17.05 72.25 15.85 75.45 15.3 75.75 15.1 Q76.35 14.75 81.1 12.55 88.8 8.95 88.8 4.05 88.8 -0.95 83.45 -6.3 L82.15 -7.5 82.1 -7.55 80.8 -8.15 Q79.0 -9.4 74.2 -11.0 68.25 -12.95 60.65 -14.5 L56.25 -15.6 45.5 -17.85 44.7 -18.05 29.25 -20.4 20.7 -21.25" fill="#ffffff" fill-rule="evenodd" stroke="none"/>
  </g>
</svg>
