<?xml version="1.0" encoding="UTF-8" standalone="no"?>
<svg xmlns:ffdec="https://www.free-decompiler.com/flash" xmlns:xlink="http://www.w3.org/1999/xlink" ffdec:objectType="shape" height="240.85px" width="244.9px" xmlns="http://www.w3.org/2000/svg">
  <g transform="matrix(1.0, 0.0, 0.0, 1.0, 122.5, 176.95)">
    <path d="M15.85 -163.85 Q19.7 -162.25 21.6 -158.4 23.0 -155.6 23.0 -152.5 23.0 -149.55 22.0 -146.8 20.2 -141.75 15.75 -141.75 8.5 -141.75 6.0 -147.6 4.7 -150.5 4.9 -153.55 L4.95 -156.4 Q5.15 -158.1 5.85 -159.15 7.6 -161.7 10.85 -163.3 14.15 -164.9 15.85 -163.85 M13.55 -161.9 L10.75 -160.0 9.3 -159.05 8.0 -157.9 Q7.5 -156.85 7.35 -155.55 L7.3 -153.55 Q7.3 -150.5 8.1 -148.65 10.0 -144.25 15.65 -144.25 18.8 -144.25 20.0 -148.35 20.6 -150.4 20.6 -152.55 20.6 -154.75 19.4 -157.15 17.95 -160.2 15.35 -161.5 14.1 -162.1 13.55 -161.9 M4.5 -155.15 Q4.5 -147.6 -1.05 -143.15 -5.8 -139.4 -12.05 -139.4 -21.1 -139.4 -24.9 -145.25 -27.0 -148.45 -27.0 -151.95 -27.0 -163.3 -16.4 -166.55 -6.8 -169.6 0.6 -162.75 4.5 -160.1 4.5 -155.15 M35.55 -128.05 L42.25 -127.8 Q47.6 -124.8 49.6 -121.85 51.25 -119.35 51.25 -115.6 51.25 -112.25 50.2 -109.9 47.95 -105.0 41.85 -105.0 38.65 -105.0 36.15 -106.55 37.5 -104.0 37.5 -102.3 37.55 -100.5 36.9 -98.9 35.55 -95.75 31.9 -95.75 27.95 -95.75 25.8 -99.0 24.15 -101.5 24.15 -104.4 24.15 -107.4 25.0 -108.65 26.8 -111.55 32.5 -110.15 29.85 -114.05 29.85 -118.25 29.85 -119.85 30.0 -121.15 28.05 -120.15 25.9 -120.15 20.4 -120.15 17.0 -124.5 14.15 -128.15 14.15 -132.25 14.15 -137.75 17.55 -140.95 20.65 -143.85 25.1 -143.8 29.55 -143.75 32.6 -140.7 36.0 -137.35 36.0 -131.6 36.0 -129.75 35.55 -128.05 M34.45 -125.55 L32.85 -123.4 32.65 -123.2 Q31.75 -121.2 31.75 -118.15 31.75 -115.4 33.75 -112.0 36.6 -107.05 41.75 -107.05 47.0 -107.05 48.7 -111.3 49.5 -113.4 49.3 -115.55 49.3 -119.25 46.55 -122.4 44.0 -125.35 40.55 -126.35 36.9 -127.4 34.5 -125.6 L34.45 -125.55 M32.3 -127.0 L32.6 -127.2 Q33.5 -129.25 33.6 -131.6 33.6 -136.05 30.95 -138.7 28.55 -141.1 25.1 -141.2 21.6 -141.3 19.2 -139.1 16.55 -136.6 16.55 -132.3 16.55 -130.2 18.15 -127.25 20.65 -122.55 25.55 -122.55 28.65 -122.55 30.6 -124.3 31.2 -126.15 32.3 -127.0 M2.8 -128.65 Q2.8 -120.9 -6.0 -120.9 -13.5 -120.9 -15.9 -125.45 -17.1 -127.75 -16.8 -130.2 L-16.5 -133.3 Q-15.9 -136.1 -14.25 -136.1 -13.6 -136.1 -13.05 -135.25 -10.05 -138.25 -5.3 -137.75 -1.05 -137.35 0.55 -135.0 1.6 -133.95 2.25 -131.9 2.8 -130.2 2.8 -128.65 M17.75 -118.55 Q18.9 -116.5 18.9 -115.0 18.9 -113.05 18.1 -111.4 16.6 -108.35 12.8 -108.35 9.3 -108.35 8.0 -111.3 L8.0 -111.0 Q8.0 -108.35 7.1 -106.8 5.35 -103.8 0.3 -103.8 -5.5 -103.8 -7.55 -108.5 -8.6 -110.85 -8.5 -113.5 L-8.45 -115.5 -7.25 -118.3 -6.6 -119.1 -4.5 -120.0 Q-3.5 -120.2 -2.5 -120.9 L1.85 -120.65 Q6.05 -117.6 7.2 -115.5 L7.3 -115.3 7.3 -115.55 Q7.3 -121.85 12.5 -121.85 15.95 -121.85 17.75 -118.55 M14.0 -119.35 Q10.85 -120.0 9.95 -117.95 L9.65 -115.55 Q9.65 -110.8 12.75 -110.8 15.1 -110.8 16.05 -112.9 16.55 -113.95 16.55 -115.1 16.55 -115.55 15.4 -117.45 L14.0 -119.35 M1.6 -118.05 Q-0.4 -119.5 -2.4 -118.4 -3.7 -117.75 -4.35 -116.65 L-5.25 -116.05 Q-5.9 -115.7 -6.0 -115.15 L-6.1 -113.5 Q-6.1 -111.15 -5.45 -109.65 -4.05 -106.3 0.25 -106.3 4.35 -106.3 5.4 -108.6 5.95 -109.75 5.65 -111.0 5.65 -113.3 5.1 -114.45 4.25 -116.2 1.6 -118.05 M26.85 -100.75 Q28.3 -97.8 31.8 -97.8 34.45 -97.8 35.25 -100.0 35.65 -101.1 35.55 -102.25 35.55 -107.5 30.8 -108.4 28.9 -108.8 27.55 -107.8 26.05 -106.7 26.05 -104.4 26.05 -102.4 26.85 -100.75 M44.3 -103.3 Q44.3 -104.25 46.0 -105.05 48.0 -106.05 50.75 -105.5 52.45 -105.0 54.1 -103.95 L56.05 -102.4 58.85 -98.85 Q59.8 -97.3 59.8 -95.5 59.8 -93.2 58.5 -90.85 56.35 -87.0 51.7 -87.0 L48.45 -87.45 49.3 -86.15 50.5 -83.1 50.55 -80.95 Q50.55 -78.65 50.0 -77.45 48.65 -74.65 44.5 -74.65 39.9 -74.65 38.1 -78.8 37.25 -80.85 37.25 -83.0 37.25 -86.45 37.95 -87.6 38.75 -89.0 41.25 -89.0 42.05 -89.0 43.65 -89.85 L44.85 -89.9 44.75 -90.0 Q42.9 -92.45 42.9 -96.25 42.9 -97.7 43.6 -100.2 L44.3 -103.3 M51.35 -103.1 Q48.6 -104.1 46.85 -102.7 44.8 -101.0 44.8 -96.25 44.7 -94.25 45.5 -92.45 47.1 -89.0 51.7 -89.0 55.5 -89.0 57.05 -92.15 57.85 -93.75 57.9 -95.4 57.9 -97.5 55.85 -99.85 53.85 -102.15 51.35 -103.1 M63.75 -82.65 Q63.75 -80.9 62.95 -79.4 61.5 -76.8 58.05 -76.8 54.7 -76.8 53.55 -79.15 53.1 -80.15 53.1 -81.75 53.1 -88.1 58.45 -87.75 60.55 -87.65 62.1 -86.25 63.75 -84.75 63.75 -82.65 M61.85 -82.65 Q61.85 -85.55 58.45 -85.65 55.0 -85.7 55.0 -81.75 55.0 -81.0 55.4 -80.1 56.0 -78.75 57.05 -78.75 60.2 -78.75 61.35 -80.65 61.9 -81.6 61.85 -82.65 M41.75 -86.9 Q40.85 -86.3 39.6 -86.25 39.1 -84.05 39.1 -82.95 39.1 -81.85 40.0 -79.65 41.2 -76.6 43.0 -76.6 47.25 -76.6 48.35 -78.6 48.95 -79.6 48.65 -80.8 48.65 -82.15 47.8 -84.15 46.7 -86.7 45.05 -87.35 L43.0 -87.5 Q42.25 -87.0 41.75 -86.9 M46.0 -65.25 Q46.0 -59.25 39.75 -59.25 36.35 -59.25 35.5 -63.0 35.05 -64.9 35.3 -66.85 L35.2 -68.3 Q35.2 -69.4 35.5 -70.0 36.45 -71.85 38.7 -72.1 40.7 -72.35 42.85 -71.3 L45.15 -68.2 Q46.0 -66.7 46.0 -65.25 M40.65 -69.85 Q37.25 -70.9 37.25 -65.9 L37.45 -63.4 Q37.95 -61.25 39.75 -61.25 42.7 -61.25 43.65 -63.25 44.15 -64.3 44.05 -65.4 44.05 -68.85 40.65 -69.85 M44.75 -54.85 L44.65 -55.0 Q44.5 -54.75 43.95 -54.75 43.3 -54.75 43.0 -55.25 42.85 -55.5 42.85 -55.8 42.85 -57.9 46.7 -56.85 50.5 -55.8 50.5 -53.25 50.5 -52.25 49.75 -50.9 48.75 -49.05 47.15 -49.05 44.7 -49.05 44.35 -51.1 44.15 -52.3 44.75 -54.85 M46.25 -52.75 L46.3 -51.65 Q46.4 -51.05 47.05 -51.05 48.3 -51.05 48.5 -53.4 L47.0 -55.0 Q46.45 -54.6 46.3 -54.0 L46.25 -52.75 M50.75 -53.5 Q50.75 -55.8 51.1 -57.15 L51.4 -60.55 Q51.4 -62.25 55.15 -62.65 59.0 -63.0 59.75 -60.6 L61.1 -57.45 61.35 -54.95 Q61.35 -52.4 60.85 -50.85 59.55 -47.15 55.8 -47.15 52.05 -47.15 51.05 -50.3 50.5 -51.85 50.75 -53.5 M52.6 -53.45 Q52.6 -51.5 52.8 -51.0 53.4 -49.15 55.8 -49.15 58.2 -49.15 59.1 -52.0 59.55 -53.4 59.5 -54.85 59.5 -57.4 58.4 -59.15 57.4 -60.75 56.05 -60.8 52.6 -60.95 52.6 -53.45 M23.35 -79.25 Q19.45 -80.65 16.05 -79.1 L12.15 -76.5 Q11.35 -75.9 11.15 -73.85 L11.1 -71.0 Q11.1 -65.05 14.2 -61.6 17.15 -58.25 21.9 -58.25 26.4 -58.25 29.0 -62.4 31.0 -65.6 31.0 -68.95 31.0 -71.7 29.3 -74.4 27.2 -77.85 23.35 -79.25 M31.05 -75.4 Q32.9 -72.25 32.9 -68.85 32.9 -63.4 29.5 -59.65 26.25 -56.15 22.0 -56.15 17.5 -56.15 13.85 -59.35 11.25 -61.55 10.5 -63.6 10.05 -64.65 9.65 -67.65 L9.25 -71.7 Q9.25 -74.2 9.4 -75.2 9.65 -77.45 10.6 -78.0 L15.2 -81.05 Q19.05 -82.85 23.65 -81.05 28.6 -79.6 31.05 -75.4 M2.3 -69.05 Q2.3 -74.35 -2.35 -74.1 -4.2 -74.0 -5.6 -72.9 -7.05 -71.8 -7.05 -70.25 -7.05 -68.8 -6.2 -67.25 -4.8 -64.6 -1.65 -64.6 0.9 -64.6 1.85 -66.8 2.35 -67.9 2.3 -69.05 M3.5 -65.35 Q2.05 -62.55 -1.65 -62.55 -5.15 -62.55 -7.25 -65.4 -9.0 -67.75 -9.0 -70.4 -9.0 -72.65 -6.95 -74.25 -4.95 -75.8 -2.35 -75.9 0.4 -76.05 2.2 -74.4 4.25 -72.55 4.25 -68.9 4.25 -66.85 3.5 -65.35 M34.6 -40.85 L33.05 -43.35 30.75 -43.4 Q29.45 -41.05 28.65 -41.05 28.3 -41.05 28.3 -39.95 L28.4 -38.4 Q28.15 -37.4 28.5 -36.6 29.1 -35.0 31.9 -35.0 33.9 -35.0 34.4 -36.6 L34.55 -38.5 34.6 -40.85 M34.95 -44.4 Q36.5 -42.4 36.5 -38.55 36.5 -36.3 36.1 -35.4 34.95 -33.0 31.0 -33.0 27.8 -33.0 26.8 -35.6 26.35 -36.9 26.5 -38.3 26.5 -41.7 28.05 -43.85 29.5 -45.85 31.5 -46.05 33.55 -46.25 34.95 -44.4 M21.5 -37.35 Q21.5 -35.85 20.3 -35.85 19.5 -35.85 19.25 -36.4 L19.15 -37.0 Q19.15 -38.35 20.35 -38.6 21.5 -38.85 21.5 -37.35 M23.4 -47.15 Q22.5 -47.15 22.25 -47.7 L22.15 -48.3 Q22.15 -49.7 23.4 -49.8 24.6 -49.95 24.6 -48.55 24.6 -47.15 23.4 -47.15 M40.0 -33.05 Q40.0 -34.1 39.1 -34.9 38.15 -35.7 38.15 -33.4 38.15 -32.5 38.3 -32.0 L38.2 -31.9 Q38.2 -31.8 38.55 -31.8 40.05 -31.8 40.0 -33.05 M36.25 -33.45 Q36.25 -37.4 39.05 -36.9 41.85 -36.35 41.85 -33.0 41.85 -32.15 41.25 -31.25 40.35 -29.85 38.6 -29.85 36.75 -29.85 36.3 -31.75 36.1 -32.7 36.25 -33.45 M15.7 -48.1 L15.6 -48.8 Q15.6 -50.15 16.8 -50.1 18.0 -50.05 18.0 -48.8 18.0 -47.4 16.8 -47.4 15.9 -47.4 15.7 -48.1 M11.35 -45.25 Q9.65 -44.8 9.65 -43.4 9.65 -42.9 10.1 -42.0 10.7 -40.85 11.5 -40.85 12.35 -40.85 12.8 -42.25 L13.0 -43.4 Q13.0 -45.7 11.35 -45.25 M14.9 -43.55 Q14.9 -42.1 14.3 -40.85 13.4 -38.85 11.45 -38.85 9.15 -38.85 8.25 -41.1 7.75 -42.2 7.75 -43.4 7.75 -47.2 11.35 -47.3 14.9 -47.4 14.9 -43.55 M0.9 -38.65 Q0.9 -37.05 1.25 -36.35 1.9 -35.0 3.95 -35.0 5.7 -35.0 6.4 -36.25 6.8 -36.95 6.8 -37.65 6.8 -40.55 3.0 -42.35 L2.7 -41.4 Q2.35 -40.75 1.6 -40.5 1.05 -40.2 0.95 -39.4 L0.9 -38.65 M8.75 -37.6 Q8.75 -36.15 8.05 -35.0 6.8 -33.0 4.0 -33.0 0.55 -33.0 -0.5 -35.65 -0.9 -36.7 -0.9 -38.75 -0.9 -40.85 0.2 -42.95 1.8 -46.1 4.85 -44.0 L8.0 -40.6 Q8.75 -39.5 8.75 -37.6 M0.75 -28.5 Q-0.25 -28.5 -0.25 -29.55 -0.25 -30.5 0.75 -30.55 1.75 -30.65 1.75 -29.6 1.75 -28.5 0.75 -28.5 M14.65 -26.9 Q15.0 -26.15 15.8 -26.15 17.6 -26.15 18.0 -26.95 18.2 -27.35 18.0 -27.8 18.0 -29.35 16.2 -29.75 14.4 -30.2 14.4 -28.05 14.4 -27.45 14.65 -26.9 M12.5 -28.1 Q12.5 -32.15 16.2 -31.75 19.85 -31.4 19.85 -27.75 19.85 -26.4 19.45 -25.65 18.55 -24.15 15.85 -24.15 13.5 -24.15 12.75 -26.25 12.4 -27.3 12.5 -28.1 M2.6 -20.0 Q2.45 -20.35 2.55 -20.8 2.55 -22.55 4.05 -22.25 5.55 -22.0 5.55 -20.85 5.55 -20.1 5.0 -19.65 4.5 -19.25 3.95 -19.25 2.85 -19.25 2.6 -20.0 M43.55 -46.6 Q44.8 -47.55 46.6 -47.2 51.0 -46.35 51.0 -40.9 51.0 -39.85 50.35 -38.75 49.3 -37.0 47.05 -37.0 44.9 -37.0 43.7 -38.6 42.85 -39.65 42.85 -40.5 L42.45 -42.5 42.15 -43.75 Q42.15 -45.65 43.55 -46.6 M49.05 -40.9 Q49.05 -43.95 46.9 -45.1 44.75 -46.25 44.75 -41.85 44.75 -39.0 46.9 -39.0 47.8 -39.0 48.5 -39.7 49.05 -40.35 49.05 -40.9 M-16.55 -163.85 Q-21.25 -160.25 -22.9 -157.75 -24.6 -155.25 -24.6 -151.9 -24.6 -146.1 -20.1 -143.55 -17.0 -141.85 -12.1 -141.85 -4.95 -141.85 -1.15 -146.1 2.1 -149.75 2.1 -155.2 2.1 -158.75 -1.35 -161.7 -6.5 -165.95 -16.55 -163.85 M-50.7 -126.2 L-44.8 -126.5 -41.85 -125.15 -39.4 -123.55 Q-37.75 -121.9 -37.05 -120.2 -36.5 -118.8 -36.5 -117.0 -36.5 -111.2 -41.05 -106.85 -45.25 -102.85 -49.8 -102.85 -56.75 -102.85 -58.8 -107.2 -59.85 -109.4 -59.5 -111.9 -59.5 -116.1 -58.65 -118.75 -57.2 -123.35 -53.25 -124.8 L-50.7 -126.2 M-43.6 -133.15 Q-43.6 -136.35 -41.6 -139.9 -39.3 -143.95 -35.65 -145.75 L-33.35 -146.45 -31.1 -146.75 -28.35 -146.45 -26.5 -145.75 -23.0 -142.5 Q-21.9 -141.25 -20.9 -139.3 -19.9 -137.25 -19.9 -136.1 -19.9 -132.55 -21.85 -129.15 -25.3 -123.25 -33.3 -123.25 -38.35 -123.25 -41.1 -126.25 -43.6 -128.9 -43.6 -133.15 M-50.1 -124.25 L-52.8 -122.15 -54.35 -120.85 -55.65 -119.75 Q-56.35 -118.8 -56.65 -117.1 -57.1 -115.35 -57.1 -112.0 -57.1 -109.2 -56.6 -108.2 -55.15 -105.35 -49.9 -105.35 -44.0 -105.35 -40.35 -111.1 L-39.45 -113.85 -38.85 -116.9 Q-38.85 -118.15 -39.4 -119.6 -40.15 -121.4 -41.35 -122.15 -43.15 -123.25 -46.5 -124.35 L-50.1 -124.25 M-41.15 -131.4 L-39.9 -129.15 Q-39.7 -127.9 -38.9 -127.15 -37.5 -125.75 -33.3 -125.75 -26.8 -125.75 -23.9 -130.45 -22.25 -133.2 -22.25 -136.0 -22.25 -138.75 -24.6 -141.3 -28.2 -145.3 -35.25 -143.25 -37.7 -141.9 -39.55 -138.45 -41.25 -135.3 -41.25 -133.05 L-41.15 -131.4 M-62.1 -103.85 Q-55.25 -103.85 -52.4 -98.9 -50.85 -96.15 -50.85 -92.8 -50.85 -89.5 -51.75 -87.6 -53.85 -83.25 -60.0 -83.25 -64.0 -83.25 -67.15 -87.2 -69.9 -90.6 -69.9 -93.6 -69.9 -95.2 -67.65 -99.1 -64.95 -103.85 -62.1 -103.85 M-43.0 -100.75 Q-41.5 -99.15 -41.5 -96.5 -41.5 -94.25 -41.85 -93.5 -42.85 -91.25 -46.55 -91.25 -49.75 -91.25 -50.75 -94.1 -51.25 -95.55 -51.1 -96.9 -51.1 -99.4 -49.6 -100.9 -48.25 -102.25 -46.3 -102.2 -44.35 -102.15 -43.0 -100.75 M-63.85 -100.4 L-65.55 -97.85 -67.35 -95.6 Q-68.0 -94.6 -68.0 -93.65 -68.0 -92.5 -67.45 -91.4 L-66.05 -89.05 Q-65.75 -87.9 -64.95 -87.0 -63.4 -85.25 -60.0 -85.25 -54.9 -85.25 -53.3 -89.05 -52.5 -90.95 -52.75 -92.9 -52.75 -96.15 -53.7 -97.8 -55.35 -100.6 -60.4 -101.75 -62.35 -102.2 -63.85 -100.4 M-14.5 -130.2 Q-14.5 -127.65 -13.7 -126.35 -11.8 -123.35 -6.05 -123.35 0.4 -123.35 0.4 -128.65 0.4 -130.15 -0.35 -131.75 -1.25 -133.6 -2.65 -134.4 -7.6 -137.3 -10.65 -134.0 L-11.7 -132.4 Q-12.45 -131.25 -13.25 -131.25 L-13.9 -131.4 -14.25 -131.75 -14.5 -130.2 M-21.3 -119.75 Q-19.4 -116.1 -19.4 -114.4 -19.4 -112.6 -20.6 -110.3 -22.55 -106.65 -26.55 -106.65 -30.2 -106.65 -32.8 -109.15 -35.3 -111.55 -35.3 -114.5 -35.3 -116.55 -34.65 -118.3 -33.45 -121.5 -30.5 -121.5 L-28.35 -122.7 Q-26.95 -123.6 -24.6 -122.3 -22.15 -121.2 -21.3 -119.75 M-28.5 -119.6 Q-30.85 -117.75 -31.8 -118.25 L-32.5 -116.45 -33.0 -114.5 Q-33.0 -113.0 -31.85 -111.45 -30.1 -109.15 -26.65 -109.15 -23.75 -109.15 -22.5 -111.8 -21.85 -113.1 -21.8 -114.5 -21.8 -115.1 -22.8 -117.0 L-24.25 -119.3 Q-26.4 -121.25 -28.5 -119.6 M-17.65 -93.95 Q-19.65 -96.35 -22.4 -97.05 -25.25 -97.75 -27.2 -96.2 -29.35 -94.4 -29.35 -90.3 -29.35 -87.35 -28.85 -86.15 -27.4 -82.6 -22.3 -82.6 -18.05 -82.6 -16.35 -85.25 -15.5 -86.55 -15.5 -88.05 -15.5 -91.35 -17.65 -93.95 M-14.85 -83.85 Q-17.05 -80.6 -22.3 -80.6 -28.1 -80.6 -30.3 -84.75 -31.75 -87.5 -31.75 -92.5 -31.75 -94.9 -28.5 -97.6 -24.25 -101.15 -18.6 -97.5 -13.55 -93.75 -13.55 -88.05 -13.55 -85.7 -14.85 -83.85 M-32.65 -79.05 Q-28.1 -81.0 -25.0 -77.35 -23.55 -75.8 -22.5 -73.1 -21.55 -70.55 -21.55 -68.65 -21.45 -67.0 -22.25 -65.6 -23.75 -62.8 -28.0 -62.8 -33.05 -62.8 -35.25 -67.25 -36.75 -70.3 -36.75 -74.9 -36.75 -77.25 -32.65 -79.05 M-29.05 -77.35 Q-31.3 -78.05 -32.85 -77.0 -34.6 -75.8 -34.6 -72.9 -34.45 -70.75 -33.75 -68.75 -32.4 -64.75 -29.6 -64.75 -26.35 -64.75 -25.15 -65.35 -23.5 -66.2 -23.5 -68.75 -23.5 -72.0 -25.25 -74.4 -26.8 -76.6 -29.05 -77.35 M-46.55 -93.3 Q-44.15 -93.3 -43.5 -94.8 -43.2 -95.55 -43.35 -96.45 -43.35 -100.2 -46.3 -100.25 -49.25 -100.25 -49.25 -96.85 -49.25 -93.3 -46.55 -93.3 M-55.6 -80.2 Q-53.05 -82.2 -49.65 -82.45 -46.05 -82.75 -43.7 -80.75 -41.0 -78.5 -41.0 -73.8 -41.0 -71.25 -41.6 -69.8 -43.1 -66.25 -47.65 -66.25 -52.45 -66.25 -55.5 -69.1 -58.3 -71.75 -58.3 -75.35 -58.3 -78.1 -55.6 -80.2 M-56.4 -75.35 Q-56.4 -72.25 -53.75 -70.05 -51.4 -68.15 -49.05 -68.15 -44.65 -68.15 -43.35 -70.85 -42.7 -72.2 -42.9 -73.75 -42.9 -80.9 -49.65 -80.45 -52.25 -80.25 -54.3 -78.8 -56.4 -77.3 -56.4 -75.35 M-62.15 -52.9 Q-60.55 -49.35 -57.85 -49.35 -52.85 -49.35 -51.15 -51.6 -50.35 -52.75 -50.5 -54.0 -50.5 -56.2 -51.05 -57.45 -51.8 -59.2 -54.0 -60.65 -57.2 -62.75 -60.5 -60.3 -63.25 -58.25 -63.25 -56.65 -62.95 -54.7 -62.15 -52.9 M-63.65 -61.3 L-62.25 -62.25 -60.55 -62.5 Q-59.8 -62.55 -58.4 -63.3 L-54.65 -63.05 Q-50.75 -61.45 -49.4 -58.6 -48.55 -56.9 -48.55 -53.9 -48.55 -51.75 -49.8 -50.05 -51.8 -47.4 -56.3 -47.4 -61.45 -47.4 -63.8 -51.9 -65.0 -54.2 -65.15 -56.65 L-64.95 -58.8 Q-64.65 -59.95 -63.65 -61.3 M-49.05 -41.75 Q-49.05 -44.45 -44.75 -43.5 -40.5 -42.5 -40.5 -39.1 -40.5 -37.65 -41.0 -36.6 -42.0 -34.6 -44.65 -34.6 -47.7 -34.6 -48.65 -38.15 -49.15 -39.95 -49.05 -41.75 M-42.4 -39.05 Q-42.4 -41.4 -44.65 -41.7 -46.9 -42.0 -46.9 -39.75 -46.9 -38.7 -46.5 -37.85 -45.9 -36.6 -44.65 -36.6 -43.05 -36.6 -42.55 -37.8 -42.3 -38.4 -42.4 -39.05 M-10.05 -48.0 Q-11.2 -48.0 -11.5 -48.6 L-11.6 -49.25 Q-11.6 -50.55 -10.15 -50.45 -8.75 -50.35 -8.75 -49.1 -8.75 -48.0 -10.05 -48.0 M-12.1 -41.05 Q-10.65 -41.25 -10.65 -39.5 -10.65 -38.95 -11.0 -38.4 -11.4 -37.75 -12.15 -37.75 -13.2 -37.75 -13.45 -38.35 L-13.55 -39.05 Q-13.55 -40.85 -12.1 -41.05 M-36.5 -49.0 Q-35.3 -48.55 -35.3 -47.2 -35.3 -45.5 -36.65 -45.5 -37.6 -45.5 -37.75 -46.5 L-37.75 -47.35 Q-37.75 -49.4 -36.5 -49.0 M-21.2 -33.4 Q-21.6 -32.75 -22.2 -32.75 -23.25 -32.75 -23.5 -33.75 L-23.5 -34.7 Q-23.5 -36.85 -22.2 -36.4 -20.9 -36.0 -20.9 -34.35 -20.9 -33.9 -21.2 -33.4" fill="#2f2f2f" fill-rule="evenodd" stroke="none"/>
    <path d="M13.55 -161.9 Q14.1 -162.1 15.35 -161.5 17.95 -160.2 19.4 -157.15 20.6 -154.75 20.6 -152.55 20.6 -150.4 20.0 -148.35 18.8 -144.25 15.65 -144.25 10.0 -144.25 8.1 -148.65 7.3 -150.5 7.3 -153.55 L7.35 -155.55 Q7.5 -156.85 8.0 -157.9 L9.3 -159.05 10.75 -160.0 13.55 -161.9 M32.3 -127.0 Q31.2 -126.15 30.6 -124.3 28.65 -122.55 25.55 -122.55 20.65 -122.55 18.15 -127.25 16.55 -130.2 16.55 -132.3 16.55 -136.6 19.2 -139.1 21.6 -141.3 25.1 -141.2 28.55 -141.1 30.95 -138.7 33.6 -136.05 33.6 -131.6 33.5 -129.25 32.6 -127.2 L32.3 -127.0 M34.45 -125.55 L34.5 -125.6 Q36.9 -127.4 40.55 -126.35 44.0 -125.35 46.55 -122.4 49.3 -119.25 49.3 -115.55 49.5 -113.4 48.7 -111.3 47.0 -107.05 41.75 -107.05 36.6 -107.05 33.75 -112.0 31.75 -115.4 31.75 -118.15 31.75 -121.2 32.65 -123.2 L32.85 -123.4 34.45 -125.55 M26.85 -100.75 Q26.05 -102.4 26.05 -104.4 26.05 -106.7 27.55 -107.8 28.9 -108.8 30.8 -108.4 35.55 -107.5 35.55 -102.25 35.65 -101.1 35.25 -100.0 34.45 -97.8 31.8 -97.8 28.3 -97.8 26.85 -100.75 M1.6 -118.05 Q4.25 -116.2 5.1 -114.45 5.65 -113.3 5.65 -111.0 5.95 -109.75 5.4 -108.6 4.35 -106.3 0.25 -106.3 -4.05 -106.3 -5.45 -109.65 -6.1 -111.15 -6.1 -113.5 L-6.0 -115.15 Q-5.9 -115.7 -5.25 -116.05 L-4.35 -116.65 Q-3.7 -117.75 -2.4 -118.4 -0.4 -119.5 1.6 -118.05 M14.0 -119.35 L15.4 -117.45 Q16.55 -115.55 16.55 -115.1 16.55 -113.95 16.05 -112.9 15.1 -110.8 12.75 -110.8 9.65 -110.8 9.65 -115.55 L9.95 -117.95 Q10.85 -120.0 14.0 -119.35 M51.35 -103.1 Q53.85 -102.15 55.85 -99.85 57.9 -97.5 57.9 -95.4 57.85 -93.75 57.05 -92.15 55.5 -89.0 51.7 -89.0 47.1 -89.0 45.5 -92.45 44.7 -94.25 44.8 -96.25 44.8 -101.0 46.85 -102.7 48.6 -104.1 51.35 -103.1 M41.75 -86.9 Q42.25 -87.0 43.0 -87.5 L45.05 -87.35 Q46.7 -86.7 47.8 -84.15 48.65 -82.15 48.65 -80.8 48.95 -79.6 48.35 -78.6 47.25 -76.6 43.0 -76.6 41.2 -76.6 40.0 -79.65 39.1 -81.85 39.1 -82.95 39.1 -84.05 39.6 -86.25 40.85 -86.3 41.75 -86.9 M61.85 -82.65 Q61.9 -81.6 61.35 -80.65 60.2 -78.75 57.05 -78.75 56.0 -78.75 55.4 -80.1 55.0 -81.0 55.0 -81.75 55.0 -85.7 58.45 -85.65 61.85 -85.55 61.85 -82.65 M40.65 -69.85 Q44.05 -68.85 44.05 -65.4 44.15 -64.3 43.65 -63.25 42.7 -61.25 39.75 -61.25 37.95 -61.25 37.45 -63.4 L37.25 -65.9 Q37.25 -70.9 40.65 -69.85 M46.25 -52.75 L46.3 -54.0 Q46.45 -54.6 47.0 -55.0 L48.5 -53.4 Q48.3 -51.05 47.05 -51.05 46.4 -51.05 46.3 -51.65 L46.25 -52.75 M23.35 -79.25 Q27.2 -77.85 29.3 -74.4 31.0 -71.7 31.0 -68.95 31.0 -65.6 29.0 -62.4 26.4 -58.25 21.9 -58.25 17.15 -58.25 14.2 -61.6 11.1 -65.05 11.1 -71.0 L11.15 -73.85 Q11.35 -75.9 12.15 -76.5 L16.05 -79.1 Q19.45 -80.65 23.35 -79.25 M52.6 -53.45 Q52.6 -60.95 56.05 -60.8 57.4 -60.75 58.4 -59.15 59.5 -57.4 59.5 -54.85 59.55 -53.4 59.1 -52.0 58.2 -49.15 55.8 -49.15 53.4 -49.15 52.8 -51.0 52.6 -51.5 52.6 -53.45 M2.3 -69.05 Q2.35 -67.9 1.85 -66.8 0.9 -64.6 -1.65 -64.6 -4.8 -64.6 -6.2 -67.25 -7.05 -68.8 -7.05 -70.25 -7.05 -71.8 -5.6 -72.9 -4.2 -74.0 -2.35 -74.1 2.3 -74.35 2.3 -69.05 M34.6 -40.85 L34.55 -38.5 34.4 -36.6 Q33.9 -35.0 31.9 -35.0 29.1 -35.0 28.5 -36.6 28.15 -37.4 28.4 -38.4 L28.3 -39.95 Q28.3 -41.05 28.65 -41.05 29.45 -41.05 30.75 -43.4 L33.05 -43.35 34.6 -40.85 M40.0 -33.05 Q40.05 -31.8 38.55 -31.8 38.2 -31.8 38.2 -31.9 L38.3 -32.0 Q38.15 -32.5 38.15 -33.4 38.15 -35.7 39.1 -34.9 40.0 -34.1 40.0 -33.05 M11.35 -45.25 Q13.0 -45.7 13.0 -43.4 L12.8 -42.25 Q12.35 -40.85 11.5 -40.85 10.7 -40.85 10.1 -42.0 9.65 -42.9 9.65 -43.4 9.65 -44.8 11.35 -45.25 M0.9 -38.65 L0.95 -39.4 Q1.05 -40.2 1.6 -40.5 2.35 -40.75 2.7 -41.4 L3.0 -42.35 Q6.8 -40.55 6.8 -37.65 6.8 -36.95 6.4 -36.25 5.7 -35.0 3.95 -35.0 1.9 -35.0 1.25 -36.35 0.9 -37.05 0.9 -38.65 M14.65 -26.9 Q14.4 -27.45 14.4 -28.05 14.4 -30.2 16.2 -29.75 18.0 -29.35 18.0 -27.8 18.2 -27.35 18.0 -26.95 17.6 -26.15 15.8 -26.15 15.0 -26.15 14.65 -26.9 M-16.55 -163.85 Q-6.5 -165.95 -1.35 -161.7 2.1 -158.75 2.1 -155.2 2.1 -149.75 -1.15 -146.1 -4.95 -141.85 -12.1 -141.85 -17.0 -141.85 -20.1 -143.55 -24.6 -146.1 -24.6 -151.9 -24.6 -155.25 -22.9 -157.75 -21.25 -160.25 -16.55 -163.85 M49.05 -40.9 Q49.05 -40.35 48.5 -39.7 47.8 -39.0 46.9 -39.0 44.75 -39.0 44.75 -41.85 44.75 -46.25 46.9 -45.1 49.05 -43.95 49.05 -40.9 M-41.15 -131.4 L-41.25 -133.05 Q-41.25 -135.3 -39.55 -138.45 -37.7 -141.9 -35.25 -143.25 -28.2 -145.3 -24.6 -141.3 -22.25 -138.75 -22.25 -136.0 -22.25 -133.2 -23.9 -130.45 -26.8 -125.75 -33.3 -125.75 -37.5 -125.75 -38.9 -127.15 -39.7 -127.9 -39.9 -129.15 L-41.15 -131.4 M-50.1 -124.25 L-46.5 -124.35 Q-43.15 -123.25 -41.35 -122.15 -40.15 -121.4 -39.4 -119.6 -38.85 -118.15 -38.85 -116.9 L-39.45 -113.85 -40.35 -111.1 Q-44.0 -105.35 -49.9 -105.35 -55.15 -105.35 -56.6 -108.2 -57.1 -109.2 -57.1 -112.0 -57.1 -115.35 -56.65 -117.1 -56.35 -118.8 -55.65 -119.75 L-54.35 -120.85 -52.8 -122.15 -50.1 -124.25 M-14.5 -130.2 L-14.25 -131.75 -13.9 -131.4 -13.25 -131.25 Q-12.45 -131.25 -11.7 -132.4 L-10.65 -134.0 Q-7.6 -137.3 -2.65 -134.4 -1.25 -133.6 -0.35 -131.75 0.4 -130.15 0.4 -128.65 0.4 -123.35 -6.05 -123.35 -11.8 -123.35 -13.7 -126.35 -14.5 -127.65 -14.5 -130.2 M-63.85 -100.4 Q-62.35 -102.2 -60.4 -101.75 -55.35 -100.6 -53.7 -97.8 -52.75 -96.15 -52.75 -92.9 -52.5 -90.95 -53.3 -89.05 -54.9 -85.25 -60.0 -85.25 -63.4 -85.25 -64.95 -87.0 -65.75 -87.9 -66.05 -89.05 L-67.45 -91.4 Q-68.0 -92.5 -68.0 -93.65 -68.0 -94.6 -67.35 -95.6 L-65.55 -97.85 -63.85 -100.4 M-17.65 -93.95 Q-15.5 -91.35 -15.5 -88.05 -15.5 -86.55 -16.35 -85.25 -18.05 -82.6 -22.3 -82.6 -27.4 -82.6 -28.85 -86.15 -29.35 -87.35 -29.35 -90.3 -29.35 -94.4 -27.2 -96.2 -25.25 -97.75 -22.4 -97.05 -19.65 -96.35 -17.65 -93.95 M-28.5 -119.6 Q-26.4 -121.25 -24.25 -119.3 L-22.8 -117.0 Q-21.8 -115.1 -21.8 -114.5 -21.85 -113.1 -22.5 -111.8 -23.75 -109.15 -26.65 -109.15 -30.1 -109.15 -31.85 -111.45 -33.0 -113.0 -33.0 -114.5 L-32.5 -116.45 -31.8 -118.25 Q-30.85 -117.75 -28.5 -119.6 M-46.55 -93.3 Q-49.25 -93.3 -49.25 -96.85 -49.25 -100.25 -46.3 -100.25 -43.35 -100.2 -43.35 -96.45 -43.2 -95.55 -43.5 -94.8 -44.15 -93.3 -46.55 -93.3 M-29.05 -77.35 Q-26.8 -76.6 -25.25 -74.4 -23.5 -72.0 -23.5 -68.75 -23.5 -66.2 -25.15 -65.35 -26.35 -64.75 -29.6 -64.75 -32.4 -64.75 -33.75 -68.75 -34.45 -70.75 -34.6 -72.9 -34.6 -75.8 -32.85 -77.0 -31.3 -78.05 -29.05 -77.35 M-62.15 -52.9 Q-62.95 -54.7 -63.25 -56.65 -63.25 -58.25 -60.5 -60.3 -57.2 -62.75 -54.0 -60.65 -51.8 -59.2 -51.05 -57.45 -50.5 -56.2 -50.5 -54.0 -50.35 -52.75 -51.15 -51.6 -52.85 -49.35 -57.85 -49.35 -60.55 -49.35 -62.15 -52.9 M-56.4 -75.35 Q-56.4 -77.3 -54.3 -78.8 -52.25 -80.25 -49.65 -80.45 -42.9 -80.9 -42.9 -73.75 -42.7 -72.2 -43.35 -70.85 -44.65 -68.15 -49.05 -68.15 -51.4 -68.15 -53.75 -70.05 -56.4 -72.25 -56.4 -75.35 M-42.4 -39.05 Q-42.3 -38.4 -42.55 -37.8 -43.05 -36.6 -44.65 -36.6 -45.9 -36.6 -46.5 -37.85 -46.9 -38.7 -46.9 -39.75 -46.9 -42.0 -44.65 -41.7 -42.4 -41.4 -42.4 -39.05" fill="#444444" fill-rule="evenodd" stroke="none"/>
    <path d="M5.1 -163.65 L4.3 -163.65 Q-4.8 -166.1 -8.0 -166.1 -15.95 -166.1 -23.1 -161.8 -29.6 -157.95 -33.95 -151.45 -34.65 -150.5 -38.3 -149.65 -42.1 -148.75 -43.85 -146.9 -51.15 -138.8 -51.15 -131.5 L-51.15 -129.4 Q-52.65 -129.9 -53.1 -131.45 -53.55 -132.75 -53.55 -136.25 -53.55 -140.4 -52.85 -142.65 -52.3 -144.65 -49.75 -148.35 L-49.0 -149.4 -44.4 -153.2 -41.5 -154.8 Q-39.4 -155.7 -39.0 -156.15 L-36.6 -156.85 Q-35.35 -157.1 -35.1 -157.95 -30.4 -172.15 -11.05 -172.15 -6.4 -172.15 -1.0 -169.8 4.5 -167.4 5.1 -165.1 L5.1 -163.65 M20.9 -126.65 L20.4 -124.45 Q19.5 -131.0 11.9 -134.35 6.45 -136.95 1.05 -136.95 -2.45 -136.95 -5.15 -135.95 L-6.55 -135.35 Q-4.1 -139.55 -0.5 -141.4 3.0 -143.05 8.0 -143.05 14.25 -143.05 17.9 -138.3 20.95 -134.2 20.95 -128.65 L20.9 -126.65 M45.85 -121.8 Q45.85 -132.95 40.85 -144.65 36.9 -154.0 34.25 -155.35 41.4 -154.05 46.15 -146.75 50.95 -139.45 50.95 -130.2 50.95 -126.9 50.3 -123.55 L49.65 -120.85 Q50.55 -116.75 50.55 -115.35 50.55 -109.2 46.65 -103.05 44.45 -99.55 38.65 -93.1 L43.8 -104.35 Q45.85 -110.55 45.85 -121.8 M55.25 -81.8 Q55.25 -73.4 49.7 -67.75 45.95 -63.85 38.05 -60.3 43.45 -66.75 46.4 -74.05 49.75 -82.1 49.75 -89.75 L49.5 -93.0 Q51.65 -92.3 53.2 -89.85 55.25 -86.55 55.25 -81.8 M27.0 -75.0 Q25.05 -71.5 21.8 -69.75 L21.65 -69.75 Q23.5 -75.6 23.5 -79.7 23.5 -84.7 22.4 -87.65 L18.1 -96.95 Q22.7 -96.95 25.75 -92.8 28.8 -88.55 28.8 -81.85 28.8 -78.25 27.0 -75.0 M3.95 -68.0 Q4.1 -64.05 2.45 -61.0 0.05 -56.55 -5.15 -56.55 -7.45 -56.55 -9.8 -59.1 -12.45 -62.1 -12.45 -66.2 L-12.4 -67.55 Q-12.0 -65.3 -9.9 -63.7 -7.6 -61.95 -4.9 -61.95 -2.3 -61.95 0.7 -64.0 3.4 -65.85 3.95 -68.0 M1.55 -73.65 Q1.55 -72.55 0.7 -71.55 -0.4 -70.25 -2.15 -70.25 -5.45 -70.25 -5.45 -73.6 L-5.35 -74.35 -4.9 -75.35 -3.95 -76.3 Q-2.8 -77.35 -1.75 -77.35 -0.5 -77.35 0.55 -76.15 1.55 -75.05 1.55 -73.65 M-53.6 -109.1 L-56.5 -105.1 Q-59.15 -100.25 -59.15 -94.0 -59.15 -85.3 -57.45 -79.45 -55.9 -74.05 -52.15 -68.55 L-52.3 -68.45 Q-57.15 -71.0 -60.4 -76.1 -64.45 -82.45 -64.45 -90.85 -64.45 -97.9 -60.85 -103.05 -58.1 -106.85 -53.6 -109.1 M-32.6 -110.2 Q-32.6 -115.0 -31.55 -117.65 L-27.1 -124.1 Q-28.05 -122.8 -28.35 -120.9 -28.55 -119.8 -28.55 -115.85 -28.55 -111.1 -25.95 -104.65 -22.65 -96.35 -17.35 -93.65 L-18.75 -93.4 -20.4 -93.2 Q-24.9 -93.2 -28.55 -97.65 -32.6 -102.7 -32.6 -110.2 M-34.65 -65.45 Q-33.9 -60.3 -30.35 -54.6 -26.65 -48.55 -24.8 -47.9 L-26.6 -47.9 Q-29.75 -47.9 -32.65 -50.95 -35.8 -54.35 -35.8 -58.9 -35.8 -61.35 -34.65 -65.45" fill="#ffff99" fill-rule="evenodd" stroke="none"/>
    <path d="M5.1 -163.65 L5.1 -165.1 Q4.5 -167.4 -1.0 -169.8 -6.4 -172.15 -11.05 -172.15 -30.4 -172.15 -35.1 -157.95 -35.35 -157.1 -36.6 -156.85 L-39.0 -156.15 Q-39.4 -155.7 -41.5 -154.8 L-44.4 -153.2 -49.0 -149.4 -49.75 -148.35 Q-52.3 -144.65 -52.85 -142.65 -53.55 -140.4 -53.55 -136.25 -53.55 -132.75 -53.1 -131.45 -52.65 -129.9 -51.15 -129.4 L-51.15 -131.5 Q-51.15 -138.8 -43.85 -146.9 -42.1 -148.75 -38.3 -149.65 -34.65 -150.5 -33.95 -151.45 -29.6 -157.95 -23.1 -161.8 -15.95 -166.1 -8.0 -166.1 -4.8 -166.1 4.3 -163.65 L5.1 -163.65 M1.95 -158.55 Q1.95 -157.2 0.85 -157.2 -0.5 -157.2 -0.3 -158.5 -0.3 -159.75 0.85 -159.75 1.95 -159.75 1.95 -158.55 M18.15 -152.75 Q18.15 -153.85 19.4 -153.75 20.6 -153.7 20.6 -152.65 20.6 -151.55 19.4 -151.55 18.15 -151.55 18.15 -152.75 M17.35 -156.35 L12.85 -159.05 Q7.65 -161.85 3.95 -161.85 -1.0 -161.85 -8.2 -158.8 -16.15 -155.35 -23.1 -149.8 -41.0 -135.25 -41.0 -115.65 -41.0 -110.5 -39.95 -107.25 -39.2 -104.85 -37.15 -101.35 L-37.45 -101.2 Q-41.65 -103.1 -46.2 -109.1 -48.5 -107.05 -50.45 -102.0 -52.75 -95.85 -52.75 -90.3 -52.75 -82.1 -49.3 -75.05 -45.4 -66.9 -39.2 -66.7 -40.3 -65.65 -44.9 -65.1 L-50.0 -64.7 Q-56.8 -64.7 -62.1 -70.75 -68.35 -77.6 -68.35 -89.25 -68.35 -96.3 -64.95 -101.85 -62.3 -106.25 -58.2 -109.1 L-55.85 -110.15 Q-50.6 -112.55 -48.85 -112.85 L-50.2 -114.8 Q-57.35 -126.4 -57.35 -135.05 -57.35 -151.2 -42.55 -164.15 -27.9 -176.95 -10.1 -176.95 2.15 -176.95 7.65 -173.25 12.55 -169.85 16.0 -161.0 15.95 -160.65 16.75 -158.25 L17.35 -156.35 M33.05 -159.0 L33.55 -159.05 39.65 -158.35 Q48.65 -155.35 53.85 -145.0 59.35 -134.2 59.35 -119.25 59.35 -104.5 53.65 -97.25 L51.7 -94.95 Q54.65 -92.95 56.05 -90.45 57.75 -87.45 57.75 -83.1 57.75 -71.1 50.05 -63.5 42.25 -55.85 29.65 -55.85 L25.9 -56.25 25.55 -56.6 Q30.85 -59.85 34.75 -65.6 39.45 -72.45 39.45 -80.15 L39.6 -85.4 Q39.4 -86.95 38.4 -88.05 L32.15 -86.8 30.05 -86.8 Q30.55 -84.45 30.55 -81.5 30.55 -75.1 27.9 -71.5 25.05 -67.9 17.8 -65.1 L17.55 -65.15 Q18.15 -66.85 19.35 -72.35 20.45 -78.1 20.45 -80.15 20.45 -85.4 17.1 -89.65 13.85 -93.85 9.3 -93.65 L8.55 -93.7 6.4 -94.05 Q7.3 -95.1 9.25 -96.15 12.8 -98.45 15.4 -98.45 L17.2 -98.3 17.45 -98.3 Q23.8 -97.75 27.15 -93.55 29.0 -91.15 29.95 -87.65 34.05 -91.05 37.7 -100.05 41.9 -110.25 41.9 -119.05 41.9 -128.0 37.65 -139.0 33.4 -150.0 27.15 -157.4 27.55 -157.75 29.8 -158.35 L33.05 -159.0 M20.9 -126.65 L20.95 -128.65 Q20.95 -134.2 17.9 -138.3 14.25 -143.05 8.0 -143.05 3.0 -143.05 -0.5 -141.4 -4.1 -139.55 -6.55 -135.35 L-5.15 -135.95 Q-2.45 -136.95 1.05 -136.95 6.45 -136.95 11.9 -134.35 19.5 -131.0 20.4 -124.45 L20.9 -126.65 M33.95 -129.05 Q34.95 -129.0 35.45 -128.3 35.85 -127.8 35.85 -127.3 L35.3 -125.5 34.6 -123.35 Q34.65 -123.1 33.95 -123.1 L33.4 -123.15 33.2 -123.35 33.2 -125.0 Q33.75 -126.4 33.95 -129.05 M24.35 -131.3 Q24.35 -125.5 21.7 -118.75 18.65 -111.05 15.1 -111.05 L14.25 -111.05 Q16.55 -113.1 17.35 -114.65 18.15 -116.3 18.15 -118.95 18.15 -123.9 14.25 -126.85 11.0 -129.2 6.25 -129.2 -1.75 -129.2 -6.55 -125.65 -10.25 -123.1 -12.6 -117.9 -13.3 -120.65 -13.3 -124.8 -13.3 -129.95 -11.9 -133.05 -11.15 -134.65 -9.95 -135.6 -6.35 -141.4 -3.2 -143.7 1.6 -147.25 10.0 -147.25 16.4 -147.25 20.45 -142.5 24.35 -137.9 24.35 -131.3 M4.85 -112.7 Q4.85 -112.0 3.15 -111.05 L2.65 -111.1 Q2.45 -111.15 2.45 -111.65 L3.05 -112.5 Q3.8 -113.2 4.65 -113.35 4.85 -113.4 4.85 -112.7 M3.2 -100.85 Q3.2 -99.25 1.75 -99.25 0.55 -99.25 0.7 -100.95 0.7 -102.45 1.95 -102.45 3.2 -102.55 3.2 -100.85 M30.9 -108.55 Q30.2 -109.2 30.2 -109.65 30.2 -110.9 31.1 -111.85 31.95 -112.85 31.95 -110.7 L31.9 -109.55 30.9 -108.55 M45.85 -121.8 Q45.85 -110.55 43.8 -104.35 L38.65 -93.1 Q44.45 -99.55 46.65 -103.05 50.55 -109.2 50.55 -115.35 50.55 -116.75 49.65 -120.85 L50.3 -123.55 Q50.95 -126.9 50.95 -130.2 50.95 -139.45 46.15 -146.75 41.4 -154.05 34.25 -155.35 36.9 -154.0 40.85 -144.65 45.85 -132.95 45.85 -121.8 M27.0 -75.0 Q28.8 -78.25 28.8 -81.85 28.8 -88.55 25.75 -92.8 22.7 -96.95 18.1 -96.95 L22.4 -87.65 Q23.5 -84.7 23.5 -79.7 23.5 -75.6 21.65 -69.75 L21.8 -69.75 Q25.05 -71.5 27.0 -75.0 M55.25 -81.8 Q55.25 -86.55 53.2 -89.85 51.65 -92.3 49.5 -93.0 L49.75 -89.75 Q49.75 -82.1 46.4 -74.05 43.45 -66.75 38.05 -60.3 45.95 -63.85 49.7 -67.75 55.25 -73.4 55.25 -81.8 M0.25 -83.05 Q-0.7 -83.05 -1.1 -84.1 L-1.35 -84.95 Q-1.35 -86.25 0.2 -86.2 1.65 -86.1 1.65 -84.45 1.65 -83.05 0.25 -83.05 M17.45 -63.55 Q17.45 -65.95 19.7 -62.5 L19.55 -62.15 Q19.35 -61.9 18.95 -61.9 18.15 -61.9 17.75 -62.75 L17.45 -63.55 M3.95 -68.0 Q3.4 -65.85 0.7 -64.0 -2.3 -61.95 -4.9 -61.95 -7.6 -61.95 -9.9 -63.7 -12.0 -65.3 -12.4 -67.55 L-12.45 -66.2 Q-12.45 -62.1 -9.8 -59.1 -7.45 -56.55 -5.15 -56.55 0.05 -56.55 2.45 -61.0 4.1 -64.05 3.95 -68.0 M1.55 -73.65 Q1.55 -75.05 0.55 -76.15 -0.5 -77.35 -1.75 -77.35 -2.8 -77.35 -3.95 -76.3 L-4.9 -75.35 -5.35 -74.35 -5.45 -73.6 Q-5.45 -70.25 -2.15 -70.25 -0.4 -70.25 0.7 -71.55 1.55 -72.55 1.55 -73.65 M2.65 -50.05 L2.7 -50.05 Q3.95 -50.05 3.95 -49.15 3.95 -48.4 2.8 -48.4 L2.15 -48.45 1.6 -47.35 1.3 -46.65 Q0.05 -44.05 -3.0 -43.95 L-3.85 -43.95 Q-6.7 -44.15 -7.8 -46.65 L-8.55 -50.2 Q-8.9 -51.75 -10.1 -54.25 L-10.25 -54.5 Q-12.4 -55.75 -13.7 -58.05 -16.15 -62.3 -15.8 -69.6 L-15.8 -69.75 Q-14.6 -77.55 -9.05 -80.35 -6.0 -81.8 -0.75 -81.8 4.65 -81.8 8.15 -76.8 11.4 -72.05 11.05 -65.85 10.8 -59.75 5.9 -56.1 L4.1 -52.9 2.65 -50.6 2.65 -50.05 M27.85 -63.55 L27.75 -62.85 Q27.55 -62.4 26.65 -62.4 25.75 -62.4 25.55 -62.8 L25.55 -63.3 Q25.55 -64.55 26.7 -64.8 27.85 -65.15 27.85 -63.55 M21.65 -52.75 Q21.65 -51.8 20.4 -51.3 19.7 -51.45 19.7 -52.15 19.7 -52.85 20.65 -53.4 21.65 -54.05 21.65 -52.75 M35.45 -49.55 Q35.45 -48.95 34.5 -47.85 33.55 -46.65 32.9 -46.65 31.75 -46.65 31.55 -47.6 31.4 -48.1 31.55 -48.65 31.55 -50.95 33.5 -51.1 35.45 -51.15 35.45 -49.55 M30.6 -39.55 Q29.7 -39.55 29.5 -40.1 L29.5 -40.65 Q29.5 -42.05 30.55 -42.05 31.55 -42.05 31.55 -40.8 L31.45 -39.9 Q31.3 -39.55 30.6 -39.55 M17.25 -45.65 L17.2 -45.05 Q17.25 -44.7 16.55 -44.7 15.5 -44.7 15.5 -45.9 L15.6 -46.5 Q17.25 -47.15 17.25 -45.65 M11.15 -40.25 L11.2 -40.85 12.95 -40.95 13.1 -40.15 Q13.1 -39.05 12.05 -39.05 11.6 -39.05 11.35 -39.6 L11.15 -40.25 M-53.6 -109.1 Q-58.1 -106.85 -60.85 -103.05 -64.45 -97.9 -64.45 -90.85 -64.45 -82.45 -60.4 -76.1 -57.15 -71.0 -52.3 -68.45 L-52.15 -68.55 Q-55.9 -74.05 -57.45 -79.45 -59.15 -85.3 -59.15 -94.0 -59.15 -100.25 -56.5 -105.1 L-53.6 -109.1 M-43.65 -100.5 Q-42.55 -99.9 -42.55 -99.15 -42.55 -98.8 -42.9 -98.45 -43.3 -98.0 -43.85 -98.0 L-44.7 -98.1 -44.75 -99.25 Q-44.75 -101.15 -43.65 -100.5 M-18.1 -146.55 Q-16.8 -146.9 -16.8 -145.3 -16.8 -144.05 -18.3 -144.05 L-19.3 -144.15 -19.4 -144.8 Q-19.4 -146.2 -18.1 -146.55 M-19.2 -129.95 L-19.4 -125.0 Q-19.4 -120.0 -17.9 -113.4 -16.8 -108.75 -15.55 -105.1 -12.1 -95.95 -5.2 -95.95 -3.95 -95.95 -2.95 -96.4 L-2.85 -96.05 -9.25 -91.55 Q-14.6 -88.35 -19.4 -88.35 -26.85 -88.35 -31.05 -93.55 -34.9 -98.3 -34.9 -105.9 -34.9 -113.55 -32.1 -119.3 -28.75 -126.0 -21.85 -129.2 L-20.05 -129.95 -19.4 -130.3 -19.15 -130.5 -19.2 -129.95 M-24.8 -137.4 Q-24.8 -136.45 -25.4 -135.25 -26.1 -133.95 -26.95 -133.95 -28.1 -133.95 -28.25 -137.5 -28.25 -140.75 -26.5 -139.85 -24.8 -138.9 -24.8 -137.4 M-21.1 -138.2 Q-20.1 -137.7 -20.1 -136.8 -20.1 -135.8 -20.95 -135.8 -21.8 -135.8 -22.15 -137.55 -22.15 -138.65 -21.1 -138.2 M-33.0 -124.2 Q-33.35 -123.55 -33.75 -123.55 -35.0 -123.55 -35.15 -125.6 -35.15 -127.25 -33.95 -127.25 -32.85 -127.25 -32.65 -126.4 L-32.65 -125.5 Q-32.65 -124.8 -33.0 -124.2 M-32.6 -110.2 Q-32.6 -102.7 -28.55 -97.65 -24.9 -93.2 -20.4 -93.2 L-18.75 -93.4 -17.35 -93.65 Q-22.65 -96.35 -25.95 -104.65 -28.55 -111.1 -28.55 -115.85 -28.55 -119.8 -28.35 -120.9 -28.05 -122.8 -27.1 -124.1 L-31.55 -117.65 Q-32.6 -115.0 -32.6 -110.2 M-0.7 -118.55 L-0.75 -117.45 -0.9 -117.1 Q-1.05 -116.9 -1.45 -116.9 -2.1 -116.9 -2.7 -118.35 L-3.2 -119.55 Q-3.2 -121.05 -1.8 -120.45 -0.5 -119.8 -0.5 -119.1 L-0.7 -118.55 M-36.85 -91.2 Q-36.85 -90.65 -38.0 -90.1 -39.0 -89.6 -39.25 -89.6 L-40.15 -89.75 Q-40.15 -91.45 -40.3 -91.7 -40.3 -94.55 -38.55 -93.5 -36.85 -92.45 -36.85 -91.2 M-33.55 -85.9 Q-32.15 -85.85 -32.15 -84.65 -32.15 -84.3 -32.45 -83.75 -32.85 -83.05 -33.4 -83.05 -35.3 -83.05 -34.95 -84.5 -34.95 -86.0 -33.55 -85.9 M-26.2 -79.9 L-26.05 -80.0 -24.1 -80.6 -25.9 -76.65 Q-26.8 -74.65 -26.8 -72.55 -26.8 -61.6 -23.9 -55.15 -20.1 -46.95 -12.1 -48.3 -13.0 -47.55 -16.15 -46.5 -19.55 -45.45 -21.35 -45.45 -28.05 -45.45 -33.05 -48.9 -38.85 -52.9 -38.85 -59.75 -38.85 -64.45 -36.15 -69.85 L-34.55 -72.8 Q-31.95 -76.8 -28.35 -79.2 L-27.8 -79.45 -26.2 -79.9 M-34.65 -65.45 Q-35.8 -61.35 -35.8 -58.9 -35.8 -54.35 -32.65 -50.95 -29.75 -47.9 -26.6 -47.9 L-24.8 -47.9 Q-26.65 -48.55 -30.35 -54.6 -33.9 -60.3 -34.65 -65.45 M-1.25 -53.05 L-0.7 -53.0 -0.65 -53.2 -1.25 -53.05 M-43.25 -89.1 Q-43.95 -89.1 -44.4 -90.15 L-44.75 -91.0 Q-44.75 -93.3 -42.55 -89.8 L-42.6 -89.4 -42.65 -89.25 -43.25 -89.1 M-1.8 -41.0 Q-3.05 -41.0 -3.15 -42.4 -3.15 -44.0 -2.0 -43.6 -1.0 -43.1 -1.0 -42.1 -1.0 -41.0 -1.8 -41.0" fill="#fd0202" fill-rule="evenodd" stroke="none"/>
    <path d="M61.45 -54.35 L61.4 -54.35 Q60.6 -54.35 60.6 -54.9 60.6 -55.75 63.3 -56.2 L69.75 -55.95 Q71.2 -55.65 72.4 -54.95 L74.55 -53.4 Q75.35 -52.85 75.95 -51.9 L76.8 -50.3 77.4 -48.85 77.9 -47.3 77.9 -47.15 Q79.9 -47.65 86.0 -46.55 86.95 -46.5 88.95 -45.45 L92.0 -43.8 Q93.35 -43.2 95.55 -40.4 L97.65 -37.15 98.5 -37.2 Q104.2 -37.2 106.7 -33.3 108.15 -31.1 108.15 -28.85 107.45 -24.5 106.7 -24.5 106.1 -24.5 105.8 -25.15 L105.3 -26.65 Q104.3 -28.8 100.2 -28.8 98.1 -28.8 96.2 -27.3 L94.25 -25.8 Q94.0 -25.8 93.55 -27.65 93.0 -30.1 91.5 -32.1 90.9 -33.5 89.35 -34.85 86.3 -37.55 81.65 -37.55 79.35 -37.55 78.0 -36.4 L76.45 -35.25 Q75.85 -35.25 75.65 -35.65 L75.6 -36.05 76.05 -38.65 Q76.05 -43.15 71.35 -47.0 67.2 -50.4 63.95 -50.4 L62.45 -50.05 61.8 -49.7 Q61.55 -49.7 61.4 -49.9 L61.3 -50.1 61.25 -50.5 Q61.25 -51.15 61.75 -51.45 62.45 -51.95 64.05 -51.85 66.85 -51.7 69.45 -50.1 71.8 -48.65 74.3 -46.05 76.05 -44.25 76.9 -42.0 77.7 -39.85 77.45 -37.95 L77.55 -37.85 Q78.0 -38.15 78.8 -38.5 L81.7 -39.0 Q91.1 -39.0 95.0 -28.5 L96.8 -29.4 Q98.7 -30.2 100.1 -30.2 102.65 -30.2 104.6 -29.05 106.05 -28.25 106.35 -27.5 L106.5 -27.5 106.7 -28.9 Q106.7 -30.8 105.3 -32.75 103.0 -36.0 98.1 -36.0 L95.1 -35.55 Q94.8 -35.65 94.8 -35.95 94.8 -36.4 95.85 -36.75 L95.4 -37.45 94.7 -39.15 93.6 -40.7 91.95 -42.15 Q88.45 -44.4 87.35 -44.8 84.1 -45.95 77.5 -45.95 76.95 -45.95 76.95 -46.35 L77.05 -46.65 74.8 -50.65 Q72.1 -55.05 67.35 -55.05 L63.75 -54.7 61.45 -54.35 M99.45 -22.85 Q99.45 -25.7 101.7 -25.45 103.95 -25.2 103.95 -23.3 103.95 -21.3 101.75 -21.3 100.45 -21.3 99.8 -22.05 99.45 -22.45 99.45 -22.85 M115.1 -1.2 L115.0 -1.45 114.95 -2.1 Q114.95 -2.55 115.85 -4.15 116.7 -5.7 116.7 -6.65 116.7 -8.1 116.15 -10.5 115.95 -11.75 115.1 -13.0 L114.3 -14.3 Q114.3 -15.4 115.8 -14.9 L117.75 -14.0 Q118.6 -14.0 119.7 -12.9 L121.55 -10.35 Q121.85 -9.85 122.15 -7.85 L122.4 -5.55 Q122.4 -3.6 120.9 -1.7 119.9 -0.4 118.85 0.0 L120.0 1.65 120.45 3.75 120.45 5.1 120.4 6.85 Q120.2 7.95 119.65 8.2 L120.9 10.05 Q122.0 12.65 122.0 15.0 122.0 16.75 121.4 18.1 120.75 19.65 119.1 21.15 118.2 22.5 116.35 23.75 112.7 26.15 107.5 26.15 L105.45 26.05 105.4 26.25 105.95 27.85 105.95 29.55 Q105.95 33.15 103.1 35.8 100.45 38.3 97.55 38.3 L95.45 37.65 93.9 36.8 Q93.9 36.55 96.25 35.45 L99.0 34.05 Q100.65 32.75 101.55 30.75 102.55 28.3 102.45 27.1 L102.3 26.05 102.5 26.25 102.6 24.3 Q102.6 22.8 103.8 22.55 104.75 22.35 104.95 22.9 L106.3 22.65 Q109.75 22.0 111.15 21.0 113.65 19.2 114.6 17.9 L116.1 14.85 Q116.85 12.85 116.85 11.75 116.85 10.4 115.7 8.8 L115.0 7.85 Q114.5 7.85 114.3 7.45 L114.2 7.05 Q114.2 6.7 114.55 5.55 114.9 4.35 114.9 2.95 L114.35 -0.75 Q114.35 -1.3 114.95 -1.15 115.55 -0.95 115.55 -0.5 L116.15 3.8 115.85 6.25 115.95 6.25 Q115.8 6.6 115.8 7.05 L116.0 7.95 Q116.3 8.65 117.3 8.75 118.2 10.25 118.2 11.7 118.2 17.35 113.7 20.95 109.85 24.0 105.6 24.0 L105.25 24.0 104.9 23.6 104.7 23.65 103.65 23.85 103.7 25.95 103.6 26.6 103.65 26.6 Q103.3 30.15 102.6 31.55 101.2 34.5 96.8 36.65 L96.85 36.8 97.2 36.9 Q98.8 36.9 101.05 35.4 L103.55 33.3 104.15 31.45 104.55 29.55 104.25 27.75 103.85 26.6 104.3 26.55 Q104.3 25.5 105.3 24.85 L105.45 24.75 105.4 24.45 107.55 24.75 Q112.2 24.75 116.35 21.75 120.6 18.65 120.6 14.95 120.6 12.65 119.55 10.65 118.95 9.55 117.95 8.7 119.1 8.5 119.1 7.1 L119.0 6.15 119.1 4.8 Q119.1 3.05 118.2 1.5 L117.45 0.1 117.1 -0.15 117.05 -0.5 119.05 -2.0 Q121.05 -3.85 121.05 -5.55 121.05 -10.7 118.05 -12.9 L116.7 -13.2 117.5 -9.7 118.05 -6.75 Q118.05 -5.8 117.1 -3.35 116.1 -0.9 115.65 -0.9 L115.1 -1.2 M109.25 -22.05 L109.0 -21.5 108.9 -20.9 109.8 -20.55 110.55 -20.7 110.7 -21.35 110.2 -21.95 109.25 -22.05 M107.7 -20.85 Q107.7 -23.5 109.8 -23.25 111.9 -23.05 111.9 -21.4 111.9 -19.25 110.1 -19.25 108.7 -19.25 108.1 -20.0 107.7 -20.45 107.7 -20.85 M102.6 -22.9 L102.6 -23.25 Q102.6 -23.95 101.7 -23.95 100.8 -24.0 100.8 -23.1 100.8 -22.55 101.4 -22.55 102.45 -22.55 102.6 -22.9 M90.6 38.55 L90.9 40.2 Q90.9 41.75 89.95 43.3 88.5 45.6 85.5 45.6 83.15 45.6 82.2 44.8 L82.05 44.65 Q81.45 44.5 81.45 43.95 81.45 43.65 83.2 43.05 85.15 42.35 85.5 42.05 87.8 40.2 88.1 39.6 88.55 38.85 88.85 37.15 L89.55 34.8 Q90.15 35.35 90.65 38.15 L90.6 38.55 M89.55 39.4 L87.8 41.95 Q86.55 43.4 85.2 44.1 L85.5 44.1 Q87.8 44.1 88.75 42.95 89.25 42.35 89.4 41.55 L89.65 40.2 89.55 39.4 M68.9 46.5 L71.4 43.65 Q72.6 42.2 73.3 43.05 73.8 43.6 73.8 44.5 73.8 47.4 72.4 49.65 69.55 54.2 62.0 54.2 L59.05 54.0 56.15 52.65 54.45 51.9 Q53.9 51.65 53.9 51.15 L54.45 50.7 55.05 50.4 55.4 50.7 56.75 51.0 Q60.65 51.0 64.9 48.95 67.7 47.65 68.9 46.5 M67.9 49.0 Q63.95 51.6 58.35 52.35 58.9 52.45 59.05 52.7 L61.95 52.85 Q67.0 52.85 69.15 51.2 71.45 49.4 72.45 44.35 70.9 47.0 67.9 49.0 M38.2 53.15 Q35.95 52.35 34.95 54.3 L36.0 55.55 Q36.9 56.3 37.8 56.3 39.7 56.3 40.2 55.75 L40.35 55.2 Q40.35 53.95 38.2 53.15 M34.95 52.35 L38.1 52.2 Q40.15 52.8 40.9 53.6 41.4 54.2 41.4 55.2 L41.2 56.55 Q40.7 57.45 38.9 57.45 36.4 57.45 34.9 55.9 33.9 54.8 33.9 54.1 33.9 53.1 34.95 52.35 M22.25 55.2 Q22.65 56.75 22.65 58.05 22.65 59.5 21.3 61.2 19.15 63.9 15.0 63.9 12.0 63.9 9.0 61.8 8.4 61.3 8.3 60.5 L8.25 59.05 Q8.25 57.15 8.75 57.15 L9.6 57.55 12.75 57.9 Q16.4 57.9 18.15 56.85 L19.35 55.65 Q19.7 55.35 20.05 54.05 20.35 53.1 21.0 53.25 21.75 53.4 22.25 55.2 M21.5 58.05 Q21.5 56.4 21.0 55.5 20.4 56.75 18.7 57.7 16.3 59.1 12.75 59.1 L9.35 58.8 9.35 60.15 Q9.8 61.05 11.35 61.9 12.9 62.7 14.0 62.7 18.45 62.7 20.4 60.6 21.5 59.4 21.5 58.05 M3.1 56.9 Q1.8 56.4 1.8 57.3 L1.65 57.55 1.5 57.75 Q1.5 59.25 3.35 59.25 4.15 59.25 4.3 58.8 L4.35 58.15 Q4.35 57.45 3.1 56.9 M0.3 57.0 Q0.3 55.2 2.95 55.7 5.55 56.2 5.55 58.25 5.55 60.45 3.4 60.45 1.1 60.45 0.45 58.75 L0.3 57.0 M52.0 50.6 Q52.95 50.7 53.55 51.35 L54.25 52.65 54.3 53.7 Q54.3 55.15 53.65 56.25 52.4 58.35 49.2 58.35 47.55 58.35 46.5 57.35 L45.75 56.35 Q45.75 55.65 46.7 55.65 47.75 55.65 49.25 54.75 L50.7 53.6 51.0 52.6 51.0 51.45 Q51.0 50.55 52.0 50.6 M52.35 51.9 Q52.75 53.1 51.45 54.5 50.05 56.0 47.4 56.75 L47.55 57.05 49.2 57.15 Q51.65 57.15 52.6 55.55 53.15 54.7 53.15 53.75 53.15 52.5 52.35 51.8 L52.35 51.9 M-81.4 -50.0 L-78.45 -49.7 Q-78.05 -49.6 -77.8 -49.35 -75.9 -48.35 -72.8 -46.0 L-70.95 -44.6 Q-70.95 -43.95 -71.85 -43.95 L-75.55 -44.4 -75.65 -44.4 -77.9 -44.65 -81.05 -44.75 -81.05 -44.8 Q-84.25 -44.45 -87.0 -42.25 -90.3 -39.65 -90.3 -36.75 -90.3 -35.7 -89.6 -34.15 L-88.95 -32.75 Q-88.95 -32.0 -89.7 -32.0 -92.45 -32.0 -94.65 -35.25 -96.45 -37.95 -96.45 -39.9 -96.45 -42.8 -93.15 -46.35 -90.3 -49.4 -83.75 -49.9 L-81.4 -50.0 M-122.5 -7.9 L-121.4 -9.2 -119.4 -12.15 -116.1 -15.05 Q-115.25 -14.6 -115.25 -13.25 L-115.9 -11.7 Q-116.6 -10.35 -116.6 -9.35 L-116.3 -5.9 -115.4 -4.25 -114.5 -2.65 Q-114.5 -2.0 -114.85 -1.75 -115.35 -1.35 -116.9 -1.35 -119.85 -1.35 -121.35 -3.6 -122.5 -5.35 -122.5 -7.9 M-95.1 -39.8 Q-95.1 -38.6 -93.85 -36.65 -92.5 -34.65 -91.1 -33.95 L-91.05 -33.9 -91.05 -34.1 -91.5 -36.7 Q-91.5 -41.1 -86.9 -43.95 -83.2 -46.25 -79.8 -46.25 L-76.95 -46.05 -74.75 -45.9 Q-78.1 -48.45 -80.3 -48.8 L-82.2 -48.9 Q-89.4 -48.9 -92.9 -44.8 -95.1 -42.2 -95.1 -39.8 M-97.7 -32.1 Q-98.25 -30.8 -98.25 -30.05 -98.25 -27.7 -96.3 -26.15 -94.35 -24.95 -94.35 -24.65 -94.35 -24.15 -95.95 -23.7 L-98.6 -23.3 Q-102.2 -23.3 -103.8 -26.1 -104.75 -27.75 -104.75 -29.25 L-104.7 -31.5 -104.45 -32.6 -103.8 -33.75 Q-101.85 -35.65 -98.55 -35.65 -95.4 -35.6 -95.4 -34.25 -95.4 -33.6 -96.25 -33.35 -97.3 -33.0 -97.7 -32.1 M-99.5 -30.15 Q-99.5 -32.9 -97.1 -34.5 -101.05 -35.05 -102.6 -33.3 -103.5 -32.3 -103.5 -30.7 -103.5 -28.6 -103.05 -27.45 -102.0 -24.65 -98.65 -24.65 L-96.9 -24.9 Q-98.6 -26.5 -99.1 -27.65 -99.5 -28.55 -99.5 -30.15 M-91.35 -29.6 Q-90.85 -28.95 -90.85 -28.55 -90.85 -28.1 -91.25 -27.5 -91.85 -26.6 -93.0 -26.6 -94.3 -26.6 -94.8 -27.45 L-95.0 -28.35 -94.7 -29.5 Q-94.15 -30.45 -92.95 -30.45 -92.0 -30.45 -91.35 -29.6 M-91.8 -28.5 Q-91.8 -29.5 -93.0 -29.5 -94.2 -29.5 -94.2 -28.5 -94.2 -27.5 -93.05 -27.5 -92.25 -27.5 -91.95 -28.05 L-91.8 -28.5 M-88.5 -29.3 L-88.9 -29.55 Q-86.6 -31.35 -85.4 -30.9 -84.45 -30.55 -84.45 -29.15 -84.45 -28.5 -84.95 -27.95 -85.65 -27.1 -87.0 -27.1 -88.05 -27.1 -88.05 -29.35 L-88.5 -29.3 M-86.9 -27.95 Q-85.95 -27.95 -85.5 -28.5 L-85.25 -29.2 Q-85.25 -30.4 -86.25 -30.15 L-87.25 -29.7 -86.9 -27.95 M-106.25 -14.35 Q-108.25 -13.45 -112.75 -13.0 -113.1 -13.1 -113.1 -13.15 L-113.25 -13.65 Q-113.25 -14.55 -110.95 -16.7 -108.2 -19.3 -105.55 -18.25 L-104.6 -17.35 -104.4 -16.5 Q-104.4 -15.2 -106.25 -14.35 M-105.4 -17.2 L-108.35 -17.3 Q-110.85 -16.05 -111.75 -14.8 L-112.0 -14.5 Q-108.25 -14.55 -106.95 -15.15 L-105.3 -16.5 Q-105.6 -16.9 -105.4 -17.2 M-111.75 -8.2 Q-110.0 -7.35 -110.0 -6.05 -110.0 -4.35 -111.9 -4.35 -113.2 -4.35 -113.5 -5.85 L-113.55 -7.35 Q-113.55 -9.05 -111.75 -8.2 M-117.65 -11.75 L-117.45 -12.5 Q-118.9 -11.8 -119.95 -9.65 L-120.75 -7.25 Q-120.5 -4.6 -118.0 -3.3 L-117.3 -3.3 -117.9 -5.1 Q-118.55 -6.55 -118.55 -8.35 L-118.3 -10.2 -117.65 -11.75 M-111.9 -5.4 L-111.05 -5.55 -111.0 -6.2 -111.3 -6.65 Q-111.7 -7.0 -112.3 -7.15 L-112.6 -5.75 -112.45 -5.5 -111.9 -5.4 M-72.1 -52.65 Q-70.6 -54.4 -67.85 -55.25 -65.15 -56.1 -63.45 -53.5 -62.25 -51.65 -62.25 -50.15 -62.25 -49.95 -62.4 -49.7 L-62.9 -49.4 Q-63.25 -49.4 -63.8 -49.9 -64.4 -50.4 -65.65 -50.4 -68.75 -50.4 -70.6 -48.3 L-72.05 -46.25 Q-72.25 -46.25 -72.45 -46.45 -73.0 -47.1 -73.35 -49.6 -73.35 -51.15 -72.1 -52.65 M-72.45 -49.55 L-72.3 -48.8 -72.2 -48.75 -70.0 -50.6 Q-68.1 -51.6 -64.05 -51.6 -65.75 -55.95 -69.45 -53.55 -70.5 -53.1 -71.5 -51.7 -72.45 -50.35 -72.45 -49.55 M-77.25 38.6 Q-77.25 40.0 -78.2 41.7 -79.7 44.4 -82.7 44.4 -86.1 44.4 -86.1 40.95 L-85.65 40.4 Q-85.25 40.15 -85.25 39.6 -85.2 39.45 -84.8 39.45 L-83.95 40.2 Q-83.2 40.95 -82.2 40.95 -81.0 40.95 -79.95 40.15 L-79.1 39.3 Q-77.25 36.85 -77.25 38.6 M-80.2 41.6 L-82.25 42.05 -83.65 41.55 -84.9 40.8 Q-84.6 42.65 -84.25 42.95 L-82.7 43.2 Q-80.9 43.2 -79.95 42.25 -79.35 41.65 -79.35 41.25 L-79.25 41.15 -80.2 41.6 M-68.0 48.05 L-66.85 49.9 Q-65.85 51.3 -63.75 51.3 L-60.95 51.15 -55.95 49.8 -54.8 48.85 -54.6 48.7 -54.3 48.45 -53.35 48.5 -53.8 49.3 -53.45 49.75 -51.6 52.5 -49.2 54.35 Q-46.4 55.8 -41.7 55.8 -39.0 55.8 -37.5 55.0 -36.45 54.15 -36.05 54.15 L-35.8 54.25 -35.55 54.35 -35.45 54.45 -35.4 54.75 -35.4 54.85 Q-35.4 55.2 -35.9 56.0 L-37.5 58.05 -37.55 58.1 -37.5 58.4 Q-37.5 59.1 -39.15 60.0 -41.1 61.1 -43.4 61.1 -49.2 61.1 -52.9 58.4 -55.05 56.85 -55.5 55.5 L-56.3 55.9 Q-58.0 56.7 -60.2 56.7 -63.65 56.7 -67.05 54.05 L-68.8 52.4 -69.0 50.85 -68.95 49.65 -69.0 49.65 -68.95 49.55 -68.9 49.45 -68.65 49.1 -68.0 48.05 M-44.3 59.9 L-44.35 59.85 -44.2 59.85 Q-42.35 59.85 -40.9 59.15 -40.25 58.85 -39.9 58.5 L-38.7 57.4 -38.45 57.1 -38.4 57.0 -38.4 56.9 -39.45 57.2 -39.55 56.85 -41.7 57.0 Q-48.85 57.0 -52.05 53.6 L-53.9 51.5 -54.65 50.3 -55.2 50.55 -56.6 51.2 -60.3 51.95 -60.25 52.2 -60.35 52.2 -62.3 52.6 Q-65.3 52.35 -66.6 51.75 L-67.25 51.3 -68.0 50.35 -67.95 51.35 Q-67.7 52.4 -65.2 53.9 -62.5 55.5 -60.2 55.5 -57.95 55.5 -56.7 54.7 -55.8 53.9 -55.5 53.9 -55.05 53.9 -54.85 54.15 L-54.75 54.45 -54.75 54.55 -54.6 54.7 -52.65 57.2 Q-50.5 58.8 -47.65 59.45 L-45.1 59.85 -44.3 59.9 M-1.35 54.8 L-1.5 57.2 -1.55 57.5 Q-1.8 58.75 -2.6 59.85 -4.35 62.25 -8.5 62.25 -10.9 62.25 -11.55 60.65 L-11.65 59.05 -12.0 58.5 -12.45 57.25 Q-12.45 56.55 -12.0 56.35 -11.8 56.25 -11.65 56.55 L-11.6 56.25 Q-11.65 56.1 -11.25 56.1 -9.85 57.6 -8.7 57.6 -5.9 57.6 -4.35 56.7 L-3.3 55.8 -2.25 54.45 Q-1.35 53.55 -1.35 54.8 M-2.75 56.85 L-4.6 58.15 Q-5.7 58.65 -7.7 58.65 -9.8 58.65 -10.95 57.75 L-11.45 57.3 -11.25 58.0 -10.5 58.3 -10.5 58.85 -10.5 59.1 -10.2 59.35 -10.2 59.7 -10.25 59.8 -10.45 59.85 -10.4 60.15 Q-10.05 61.05 -8.45 61.05 -5.15 61.05 -3.6 59.25 L-3.4 59.0 -3.45 58.95 -3.5 58.6 -3.1 57.9 -2.7 57.2 -2.75 57.0 -2.75 56.85 M-13.2 54.85 Q-12.95 55.15 -12.95 56.1 L-13.05 57.1 Q-13.35 58.2 -14.2 59.5 -16.15 62.25 -19.7 62.25 -22.45 62.25 -26.15 56.85 -26.1 56.3 -25.7 56.3 -25.25 56.3 -24.8 56.85 -24.4 57.35 -20.75 57.35 -17.6 57.35 -16.05 56.4 L-14.85 55.25 Q-13.6 54.3 -13.2 54.85 M-15.35 58.85 Q-14.2 57.25 -14.1 56.15 -15.45 56.65 -15.65 57.65 -16.8 58.45 -23.7 58.5 L-21.9 60.0 Q-20.5 61.05 -19.65 61.05 -17.05 61.05 -15.35 58.85 M-27.6 57.3 Q-28.0 58.05 -29.4 58.05 -30.6 58.05 -30.95 57.2 L-31.1 56.35 Q-31.1 54.25 -29.25 54.15 -27.45 54.0 -27.45 56.25 -27.45 57.05 -27.6 57.3 M-29.75 57.05 Q-28.7 57.05 -28.5 56.65 L-28.5 56.25 Q-28.5 55.15 -29.3 55.15 -30.15 55.15 -30.15 56.3 L-30.0 56.75 -29.75 57.05 M-38.9 56.7 L-38.0 56.55 -37.85 56.35 -38.9 56.7 M-115.25 3.3 Q-116.15 5.7 -116.15 6.45 -116.15 7.7 -114.6 11.55 L-114.05 12.8 -112.8 14.0 -110.9 15.0 -109.5 15.2 Q-108.5 15.3 -108.5 15.8 -108.5 16.25 -109.2 16.45 L-109.2 16.6 Q-109.2 17.2 -110.25 17.65 L-113.9 18.2 Q-116.75 18.2 -118.95 16.55 L-120.75 14.7 Q-121.4 13.85 -121.5 12.9 L-121.5 11.05 -121.5 8.85 -120.8 5.9 Q-120.5 4.85 -119.3 3.55 -119.1 2.2 -116.05 0.65 -112.8 -0.95 -112.8 0.15 L-113.7 1.1 Q-114.75 2.15 -115.25 3.3 M-116.7 2.45 L-117.8 3.55 -119.4 5.75 -119.85 7.45 -120.2 9.15 -120.3 11.2 Q-120.3 12.5 -119.9 13.25 -119.65 14.05 -118.4 15.15 -116.45 16.8 -113.9 16.8 L-110.9 16.45 Q-114.15 16.0 -116.05 11.65 -117.45 8.5 -117.45 6.5 -117.45 3.85 -115.95 1.95 L-116.7 2.2 -116.7 2.45 M-108.95 22.05 Q-107.25 22.35 -107.25 23.9 -107.25 25.25 -108.7 25.25 -109.85 25.25 -110.4 24.45 L-110.7 23.75 Q-110.7 21.8 -108.95 22.05 M-108.45 23.75 L-108.8 23.5 Q-109.25 23.3 -109.65 23.25 -109.4 23.95 -108.5 24.05 L-108.45 23.75 M-103.55 22.1 Q-103.1 22.35 -102.45 23.6 -101.85 24.85 -100.65 25.35 -98.5 26.25 -98.0 26.85 -97.65 27.25 -97.65 28.3 -97.65 29.55 -98.15 30.15 -98.95 31.15 -101.15 31.15 -103.7 31.15 -104.5 29.4 L-104.75 27.55 -104.6 25.75 -104.5 23.45 Q-104.5 22.65 -103.55 22.1 M-103.35 26.15 L-103.3 28.15 Q-102.95 29.5 -101.05 29.5 -99.05 29.5 -99.05 28.3 -99.05 27.6 -100.75 26.7 L-103.1 25.35 -103.1 25.4 -103.2 25.6 -103.35 26.15 M-90.6 32.6 L-91.75 32.55 -91.75 32.15 Q-91.75 30.9 -89.05 31.35 -86.35 31.75 -86.35 34.15 -86.35 35.05 -87.25 35.85 -88.25 36.65 -89.4 36.65 -91.3 36.65 -91.8 34.8 -91.8 33.4 -90.75 33.35 -90.4 33.85 -90.6 34.5 L-89.75 35.25 Q-88.8 35.25 -88.25 34.8 -87.8 34.4 -87.8 34.05 -87.8 32.85 -90.6 32.6 M-99.75 34.05 Q-99.75 32.25 -96.75 32.85 -93.75 33.4 -93.75 35.3 -93.75 35.9 -94.65 36.6 -95.6 37.35 -96.6 37.35 -98.55 37.35 -99.35 35.75 -99.75 34.95 -99.75 34.05 M-96.6 35.85 L-95.5 35.5 Q-95.4 35.85 -95.4 35.25 -95.4 35.0 -96.1 34.5 -97.0 33.95 -98.05 34.15 L-98.3 34.35 -97.9 35.3 Q-97.55 35.85 -96.6 35.85 M-90.95 39.4 Q-90.95 38.15 -89.25 37.8 -87.6 37.5 -87.6 39.2 -87.6 40.65 -89.25 40.65 -90.35 40.65 -90.75 40.05 L-90.95 39.4 M-88.85 39.45 L-88.8 39.3 Q-88.8 38.95 -89.25 38.85 -89.75 38.8 -89.9 39.15 L-89.85 39.45 -89.7 39.5 -88.85 39.45" fill="#2f2f2f" fill-opacity="0.29803923" fill-rule="evenodd" stroke="none"/>
    <path d="M61.75 -51.45 L61.45 -54.35 63.75 -54.7 67.35 -55.05 Q72.1 -55.05 74.8 -50.65 L77.05 -46.65 76.95 -46.35 Q76.95 -45.95 77.5 -45.95 84.1 -45.95 87.35 -44.8 88.45 -44.4 91.95 -42.15 L93.6 -40.7 94.7 -39.15 95.4 -37.45 95.85 -36.75 Q94.8 -36.4 94.8 -35.95 94.8 -35.65 95.1 -35.55 L98.1 -36.0 Q103.0 -36.0 105.3 -32.75 106.7 -30.8 106.7 -28.9 L106.5 -27.5 106.35 -27.5 Q106.05 -28.25 104.6 -29.05 102.65 -30.2 100.1 -30.2 98.7 -30.2 96.8 -29.4 L95.0 -28.5 Q91.1 -39.0 81.7 -39.0 L78.8 -38.5 Q78.0 -38.15 77.55 -37.85 L77.45 -37.95 Q77.7 -39.85 76.9 -42.0 76.05 -44.25 74.3 -46.05 71.8 -48.65 69.45 -50.1 66.85 -51.7 64.05 -51.85 62.45 -51.95 61.75 -51.45 M115.1 -1.2 L115.65 -0.9 Q116.1 -0.9 117.1 -3.35 118.05 -5.8 118.05 -6.75 L117.5 -9.7 116.7 -13.2 118.05 -12.9 Q121.05 -10.7 121.05 -5.55 121.05 -3.85 119.05 -2.0 L117.05 -0.5 117.1 -0.15 117.45 0.1 118.2 1.5 Q119.1 3.05 119.1 4.8 L119.0 6.15 119.1 7.1 Q119.1 8.5 117.95 8.7 118.95 9.55 119.55 10.65 120.6 12.65 120.6 14.95 120.6 18.65 116.35 21.75 112.2 24.75 107.55 24.75 L105.4 24.45 105.45 24.75 105.3 24.85 Q104.3 25.5 104.3 26.55 L103.85 26.6 104.25 27.75 104.55 29.55 104.15 31.45 103.55 33.3 101.05 35.4 Q98.8 36.9 97.2 36.9 L96.85 36.8 96.8 36.65 Q101.2 34.5 102.6 31.55 103.3 30.15 103.65 26.6 L103.6 26.6 103.7 25.95 103.65 23.85 104.7 23.65 104.9 23.6 105.25 24.0 105.6 24.0 Q109.85 24.0 113.7 20.95 118.2 17.35 118.2 11.7 118.2 10.25 117.3 8.75 116.3 8.65 116.0 7.95 L115.8 7.05 Q115.8 6.6 115.95 6.25 L115.85 6.25 116.15 3.8 115.55 -0.5 Q115.55 -0.95 114.95 -1.15 L115.1 -1.2 M109.25 -22.05 L110.2 -21.95 110.7 -21.35 110.55 -20.7 109.8 -20.55 108.9 -20.9 109.0 -21.5 109.25 -22.05 M102.6 -22.9 Q102.45 -22.55 101.4 -22.55 100.8 -22.55 100.8 -23.1 100.8 -24.0 101.7 -23.95 102.6 -23.95 102.6 -23.25 L102.6 -22.9 M89.55 39.4 L89.65 40.2 89.4 41.55 Q89.25 42.35 88.75 42.95 87.8 44.1 85.5 44.1 L85.2 44.1 Q86.55 43.4 87.8 41.95 L89.55 39.4 M38.2 53.15 Q40.35 53.95 40.35 55.2 L40.2 55.75 Q39.7 56.3 37.8 56.3 36.9 56.3 36.0 55.55 L34.95 54.3 Q35.95 52.35 38.2 53.15 M67.9 49.0 Q70.9 47.0 72.45 44.35 71.45 49.4 69.15 51.2 67.0 52.85 61.95 52.85 L59.05 52.7 Q58.9 52.45 58.35 52.35 63.95 51.6 67.9 49.0 M3.1 56.9 Q4.35 57.45 4.35 58.15 L4.3 58.8 Q4.15 59.25 3.35 59.25 1.5 59.25 1.5 57.75 L1.65 57.55 1.8 57.3 Q1.8 56.4 3.1 56.9 M21.5 58.05 Q21.5 59.4 20.4 60.6 18.45 62.7 14.0 62.7 12.9 62.7 11.35 61.9 9.8 61.05 9.35 60.15 L9.35 58.8 12.75 59.1 Q16.3 59.1 18.7 57.7 20.4 56.75 21.0 55.5 21.5 56.4 21.5 58.05 M52.35 51.9 L52.35 51.8 Q53.15 52.5 53.15 53.75 53.15 54.7 52.6 55.55 51.65 57.15 49.2 57.15 L47.55 57.05 47.4 56.75 Q50.05 56.0 51.45 54.5 52.75 53.1 52.35 51.9 M-95.1 -39.8 Q-95.1 -42.2 -92.9 -44.8 -89.4 -48.9 -82.2 -48.9 L-80.3 -48.8 Q-78.1 -48.45 -74.75 -45.9 L-76.95 -46.05 -79.8 -46.25 Q-83.2 -46.25 -86.9 -43.95 -91.5 -41.1 -91.5 -36.7 L-91.05 -34.1 -91.05 -33.9 -91.1 -33.95 Q-92.5 -34.65 -93.85 -36.65 -95.1 -38.6 -95.1 -39.8 M-99.5 -30.15 Q-99.5 -28.55 -99.1 -27.65 -98.6 -26.5 -96.9 -24.9 L-98.65 -24.65 Q-102.0 -24.65 -103.05 -27.45 -103.5 -28.6 -103.5 -30.7 -103.5 -32.3 -102.6 -33.3 -101.05 -35.05 -97.1 -34.5 -99.5 -32.9 -99.5 -30.15 M-91.8 -28.5 L-91.95 -28.05 Q-92.25 -27.5 -93.05 -27.5 -94.2 -27.5 -94.2 -28.5 -94.2 -29.5 -93.0 -29.5 -91.8 -29.5 -91.8 -28.5 M-86.9 -27.95 L-87.25 -29.7 -86.25 -30.15 Q-85.25 -30.4 -85.25 -29.2 L-85.5 -28.5 Q-85.95 -27.95 -86.9 -27.95 M-105.4 -17.2 Q-105.6 -16.9 -105.3 -16.5 L-106.95 -15.15 Q-108.25 -14.55 -112.0 -14.5 L-111.75 -14.8 Q-110.85 -16.05 -108.35 -17.3 L-105.4 -17.2 M-111.9 -5.4 L-112.45 -5.5 -112.6 -5.75 -112.3 -7.15 Q-111.7 -7.0 -111.3 -6.65 L-111.0 -6.2 -111.05 -5.55 -111.9 -5.4 M-117.65 -11.75 L-118.3 -10.2 -118.55 -8.35 Q-118.55 -6.55 -117.9 -5.1 L-117.3 -3.3 -118.0 -3.3 Q-120.5 -4.6 -120.75 -7.25 L-119.95 -9.65 Q-118.9 -11.8 -117.45 -12.5 L-117.65 -11.75 M-72.45 -49.55 Q-72.45 -50.35 -71.5 -51.7 -70.5 -53.1 -69.45 -53.55 -65.75 -55.95 -64.05 -51.6 -68.1 -51.6 -70.0 -50.6 L-72.2 -48.75 -72.3 -48.8 -72.45 -49.55 M-80.2 41.6 L-79.25 41.15 -79.35 41.25 Q-79.35 41.65 -79.95 42.25 -80.9 43.2 -82.7 43.2 L-84.25 42.95 Q-84.6 42.65 -84.9 40.8 L-83.65 41.55 -82.25 42.05 -80.2 41.6 M-44.3 59.9 L-45.1 59.85 -47.65 59.45 Q-50.5 58.8 -52.65 57.2 L-54.6 54.7 -54.75 54.55 -54.75 54.45 -54.85 54.15 Q-55.05 53.9 -55.5 53.9 -55.8 53.9 -56.7 54.7 -57.95 55.5 -60.2 55.5 -62.5 55.5 -65.2 53.9 -67.7 52.4 -67.95 51.35 L-68.0 50.35 -67.25 51.3 -66.6 51.75 Q-65.3 52.35 -62.3 52.6 L-60.35 52.2 -60.25 52.2 -60.3 51.95 -56.6 51.2 -55.2 50.55 -54.65 50.3 -53.9 51.5 -52.05 53.6 Q-48.85 57.0 -41.7 57.0 L-39.55 56.85 -39.45 57.2 -38.4 56.9 -38.4 57.0 -38.45 57.1 -38.7 57.4 -39.9 58.5 Q-40.25 58.85 -40.9 59.15 -42.35 59.85 -44.2 59.85 L-44.35 59.85 -44.3 59.9 M-2.75 56.85 L-2.75 57.0 -2.7 57.2 -3.1 57.9 -3.5 58.6 -3.45 58.95 -3.4 59.0 -3.6 59.25 Q-5.15 61.05 -8.45 61.05 -10.05 61.05 -10.4 60.15 L-10.45 59.85 -10.25 59.8 -10.2 59.7 -10.2 59.35 -10.5 59.1 -10.5 58.85 -10.5 58.3 -11.25 58.0 -11.45 57.3 -10.95 57.75 Q-9.8 58.65 -7.7 58.65 -5.7 58.65 -4.6 58.15 L-2.75 56.85 M-15.35 58.85 Q-17.05 61.05 -19.65 61.05 -20.5 61.05 -21.9 60.0 L-23.7 58.5 Q-16.8 58.45 -15.65 57.65 -15.45 56.65 -14.1 56.15 -14.2 57.25 -15.35 58.85 M-29.75 57.05 L-30.0 56.75 -30.15 56.3 Q-30.15 55.15 -29.3 55.15 -28.5 55.15 -28.5 56.25 L-28.5 56.65 Q-28.7 57.05 -29.75 57.05 M-38.9 56.7 L-37.85 56.35 -38.0 56.55 -38.9 56.7 M-116.7 2.45 L-116.7 2.2 -115.95 1.95 Q-117.45 3.85 -117.45 6.5 -117.45 8.5 -116.05 11.65 -114.15 16.0 -110.9 16.45 L-113.9 16.8 Q-116.45 16.8 -118.4 15.15 -119.65 14.05 -119.9 13.25 -120.3 12.5 -120.3 11.2 L-120.2 9.15 -119.85 7.45 -119.4 5.75 -117.8 3.55 -116.7 2.45 M-108.45 23.75 L-108.5 24.05 Q-109.4 23.95 -109.65 23.25 -109.25 23.3 -108.8 23.5 L-108.45 23.75 M-103.35 26.15 L-103.2 25.6 -103.1 25.4 -103.1 25.35 -100.75 26.7 Q-99.05 27.6 -99.05 28.3 -99.05 29.5 -101.05 29.5 -102.95 29.5 -103.3 28.15 L-103.35 26.15 M-90.75 33.35 L-90.6 32.6 Q-87.8 32.85 -87.8 34.05 -87.8 34.4 -88.25 34.8 -88.8 35.25 -89.75 35.25 L-90.6 34.5 Q-90.4 33.85 -90.75 33.35 M-96.6 35.85 Q-97.55 35.85 -97.9 35.3 L-98.3 34.35 -98.05 34.15 Q-97.0 33.95 -96.1 34.5 -95.4 35.0 -95.4 35.25 -95.4 35.85 -95.5 35.5 L-96.6 35.85 M-88.85 39.45 L-89.7 39.5 -89.85 39.45 -89.9 39.15 Q-89.75 38.8 -89.25 38.85 -88.8 38.95 -88.8 39.3 L-88.85 39.45" fill="#444444" fill-opacity="0.29803923" fill-rule="evenodd" stroke="none"/>
  </g>
</svg>
