<?xml version="1.0" encoding="UTF-8" standalone="no"?>
<svg xmlns:ffdec="https://www.free-decompiler.com/flash" xmlns:xlink="http://www.w3.org/1999/xlink" ffdec:objectType="shape" height="37.1px" width="47.15px" xmlns="http://www.w3.org/2000/svg">
  <g transform="matrix(1.0, 0.0, 0.0, 1.0, 23.35, 18.6)">
    <path d="M12.0 -13.1 L11.7 -13.25 9.35 -15.05 Q5.4 -17.25 -0.45 -17.2 -6.25 -17.25 -10.15 -15.05 -12.65 -13.7 -13.35 -12.0 L-13.4 -11.95 Q-13.85 -11.75 -14.15 -10.8 L-14.2 -10.6 -14.3 -9.7 Q-14.3 -7.25 -11.35 -4.5 -10.1 -3.3 -8.1 -2.3 -4.7 -0.7 -0.8 -0.7 L5.5 -1.55 5.9 -1.65 6.15 -1.7 Q9.1 -2.45 10.3 -3.3 L10.35 -3.25 10.5 -3.35 11.7 -4.6 12.7 -6.1 Q13.5 -7.6 13.55 -9.05 L13.35 -10.1 13.15 -11.35 13.1 -11.5 12.8 -12.2 12.4 -12.55 12.0 -13.1 M12.6 -13.8 L12.75 -13.8 12.85 -13.55 13.35 -13.0 13.45 -12.75 13.8 -12.35 14.5 -11.3 14.65 -11.05 15.35 -9.85 17.35 -6.15 17.65 -6.15 17.7 -6.05 17.8 -5.8 18.0 -5.8 21.9 -4.8 23.3 -4.4 23.8 -3.9 22.65 -3.15 22.35 -3.0 20.5 -2.05 19.15 -1.6 18.55 -1.3 18.45 -1.3 18.45 -0.65 18.4 -0.6 18.45 1.3 18.5 2.3 18.5 3.1 18.65 3.2 21.0 4.7 22.1 5.7 23.0 6.25 23.2 6.45 23.25 6.65 22.6 7.2 19.15 7.45 16.1 7.85 15.7 7.85 Q15.0 8.6 14.0 9.0 L13.05 9.45 12.15 10.0 12.25 10.4 12.75 12.0 12.75 12.15 13.05 13.0 13.45 14.45 13.55 14.95 13.75 16.0 13.7 16.1 13.75 16.15 13.8 16.35 13.65 16.7 13.65 16.85 12.8 16.9 12.8 16.85 12.75 16.85 11.6 16.4 10.45 15.8 10.2 15.65 10.05 15.65 9.25 14.95 8.85 14.65 7.2 13.6 5.8 12.6 5.0 12.7 2.1 12.9 0.8 12.9 0.4 12.8 -2.15 12.6 -2.45 13.05 -3.05 13.85 -3.15 13.95 -3.6 14.5 -4.3 15.4 -4.6 15.85 -5.6 17.05 -6.25 17.8 -6.55 18.2 -7.2 18.45 -7.4 18.45 -7.6 18.5 Q-7.95 18.5 -8.2 18.0 L-8.3 17.8 -8.35 17.7 -8.6 17.15 -8.75 16.25 -8.85 15.8 -8.95 15.25 -9.15 14.45 -9.85 10.95 -9.95 10.9 -10.35 10.8 -15.4 7.8 -15.95 7.95 -18.4 8.15 -18.6 8.15 -22.7 8.5 -23.15 8.45 -23.25 8.25 -23.2 8.2 -23.35 7.85 -22.25 6.2 -21.1 4.85 -19.4 2.85 -19.35 2.8 -19.05 2.5 -19.0 2.5 -19.0 2.35 -19.05 1.85 -19.05 0.6 -18.85 0.05 -19.05 -1.0 -19.05 -1.9 Q-19.45 -1.95 -20.3 -2.35 L-21.6 -2.8 Q-22.0 -2.85 -22.6 -3.25 L-23.1 -3.85 Q-23.1 -4.3 -22.2 -4.6 L-20.55 -5.2 -18.85 -5.8 -18.7 -5.85 -18.6 -6.15 -18.45 -6.15 -18.15 -6.9 -18.1 -6.95 -18.1 -7.0 -16.9 -9.15 -15.6 -11.15 -14.35 -13.15 -14.1 -13.45 Q-13.65 -13.6 -12.9 -14.6 L-12.05 -15.3 -11.85 -15.5 -10.95 -16.1 Q-6.75 -18.6 -0.5 -18.6 5.85 -18.6 10.05 -16.1 11.7 -15.05 12.6 -13.8 M5.7 -12.25 L5.7 -12.85 5.7 -13.6 5.65 -13.7 5.7 -14.15 Q5.35 -14.3 4.75 -14.6 L3.2 -15.4 2.6 -15.6 0.35 -15.55 -1.4 -15.55 -4.15 -15.5 -4.5 -15.3 -6.1 -14.45 -6.6 -14.15 -6.45 -12.55 -6.5 -10.25 -6.35 -10.2 -6.4 -10.05 Q-6.4 -9.85 -6.95 -9.35 L-7.5 -8.8 -3.7 -8.7 -3.65 -8.65 -3.55 -8.55 -3.65 -6.95 -3.65 -6.6 -2.65 -7.2 -1.5 -7.95 -1.0 -7.95 Q-0.6 -7.65 -0.5 -7.2 L0.2 -6.5 0.45 -6.1 0.6 -6.25 0.6 -6.1 1.85 -7.45 2.1 -7.55 2.2 -7.7 2.3 -7.7 2.5 -7.45 2.75 -7.45 3.05 -7.15 3.8 -6.5 3.75 -6.95 3.5 -8.2 3.95 -8.3 6.75 -8.45 6.85 -8.55 6.2 -8.95 5.8 -9.3 5.9 -9.65 5.9 -9.8 5.8 -10.25 5.7 -10.6 5.65 -11.7 5.7 -12.25 M-3.6 -16.0 L-3.3 -16.05 -2.55 -16.1 -1.35 -16.1 -0.25 -16.1 0.8 -16.1 1.45 -16.0 3.3 -15.9 3.95 -15.75 3.9 -15.7 6.1 -14.55 6.2 -14.55 6.6 -14.15 6.6 -14.1 6.85 -14.15 Q6.95 -11.0 6.45 -10.05 L6.7 -9.9 7.55 -9.35 8.45 -8.55 8.5 -8.1 8.45 -7.95 4.65 -7.65 4.7 -7.4 5.05 -6.5 5.6 -4.95 5.7 -4.3 5.9 -4.0 Q5.95 -3.7 5.2 -3.6 L-2.1 -3.5 -3.8 -3.45 -3.9 -3.45 -4.9 -3.6 -5.1 -3.8 -5.05 -4.2 -5.1 -4.2 -5.1 -4.35 -5.0 -4.6 -4.6 -7.4 -4.55 -7.45 -4.4 -8.15 -4.95 -8.1 -7.05 -7.9 -8.45 -8.1 -9.25 -8.25 -9.2 -8.5 Q-9.0 -9.2 -7.45 -10.2 L-7.2 -10.4 -7.7 -12.45 -7.7 -12.85 -7.85 -13.95 -7.75 -14.0 -6.35 -14.85 Q-4.95 -15.55 -4.5 -15.8 L-3.6 -16.0 M4.4 -11.7 L4.55 -11.75 4.6 -11.75 4.95 -11.8 4.95 -11.35 4.9 -11.05 4.9 -9.3 2.25 -9.8 1.0 -10.05 0.6 -10.2 3.05 -11.2 4.4 -11.7 M2.3 -7.1 L0.6 -5.65 0.4 -5.65 -0.7 -6.65 -1.4 -7.45 -2.4 -6.75 -3.65 -5.9 -3.8 -5.75 -3.65 -4.95 -3.95 -4.4 -2.7 -4.5 -1.8 -4.5 4.2 -4.5 4.0 -4.95 4.0 -5.75 Q3.6 -5.85 2.85 -6.5 L2.3 -7.1 M3.7 -0.55 L3.3 -0.5 -1.1 -0.1 -5.05 -0.55 -5.75 -0.75 Q-7.35 -1.2 -8.75 -1.95 -9.25 -2.1 -9.5 -2.35 L-10.6 -3.1 -12.1 -4.3 -13.4 -5.8 -14.25 -7.25 -14.3 -7.35 -14.5 -8.0 -14.65 -8.65 -14.75 -9.65 -14.75 -9.95 -14.7 -10.75 -14.95 -10.45 -17.6 -6.4 -17.65 -6.4 -17.7 -6.2 -17.7 -6.15 -17.45 -6.15 -17.6 -5.75 -17.65 -5.3 -17.45 -4.0 -16.7 -2.1 -16.6 -1.95 -16.2 -1.1 -15.65 -0.1 -14.1 1.75 -14.1 1.85 -14.0 1.9 -12.85 2.5 -11.5 3.25 -9.7 3.85 -8.0 4.4 Q-7.0 4.5 -6.2 5.4 L-4.4 5.9 -4.15 5.95 -3.35 6.05 0.55 6.25 1.4 6.25 2.0 6.25 4.5 5.95 9.25 4.55 9.3 4.55 9.7 4.4 13.65 2.45 13.7 2.4 14.85 1.55 15.95 0.35 16.15 0.0 16.95 -1.75 17.05 -2.15 17.05 -2.4 16.85 -3.4 16.85 -3.45 16.6 -4.55 16.55 -4.6 16.55 -4.7 15.8 -6.15 15.9 -6.15 15.6 -6.8 15.05 -8.55 14.05 -10.1 14.15 -9.15 14.1 -8.45 Q14.1 -6.8 13.5 -5.55 12.9 -4.4 11.85 -3.6 L11.6 -3.4 11.45 -3.25 Q10.9 -2.75 10.5 -2.75 L10.15 -2.6 Q9.25 -1.95 6.4 -1.2 L3.7 -0.55 M16.25 6.55 L16.25 6.6 Q16.25 6.9 16.9 6.9 L19.55 6.7 20.9 6.65 21.25 6.45 21.3 6.45 21.25 6.35 21.1 6.25 20.65 6.0 19.4 5.15 18.15 4.35 17.6 3.9 17.45 3.9 17.35 3.95 17.3 3.95 Q16.35 4.05 16.2 5.2 L16.15 5.5 16.2 6.5 16.2 6.55 16.25 6.55 M18.0 -4.6 L18.05 -4.2 18.25 -3.65 18.2 -2.85 18.25 -2.3 18.45 -2.35 19.0 -2.6 19.55 -3.05 20.5 -3.4 21.05 -3.6 Q21.2 -3.6 21.25 -3.7 21.25 -3.9 20.9 -4.0 L19.85 -4.25 18.45 -4.55 18.05 -4.6 18.0 -4.6 M-6.65 9.5 L-6.05 9.55 -5.65 9.65 -5.35 9.7 -4.55 9.8 Q-3.95 9.9 -3.75 10.15 L-3.15 10.85 -2.65 10.9 -2.2 11.05 -1.7 10.95 -0.2 11.15 0.05 11.15 2.6 11.2 6.15 10.75 Q6.4 10.25 7.35 9.7 8.7 8.85 10.1 8.85 L10.8 9.0 13.65 7.8 14.85 6.85 15.2 6.5 15.15 5.9 15.25 5.2 15.55 4.2 Q15.8 3.45 16.65 3.25 L16.75 3.25 16.9 2.6 17.0 2.55 17.05 0.1 17.05 -0.05 16.95 0.0 16.2 1.0 14.35 2.7 Q9.3 5.9 4.6 6.65 L1.8 6.9 0.55 6.9 -3.4 6.7 -4.95 6.45 Q-5.75 6.25 -6.45 5.75 L-6.5 5.75 Q-6.7 5.6 -7.15 5.4 L-7.2 5.4 -7.25 5.35 -7.55 5.25 -8.0 5.1 -7.5 5.3 -7.55 5.3 -7.95 5.2 -9.1 4.95 -9.25 4.85 -9.5 4.75 Q-11.05 4.35 -12.2 3.75 L-13.8 2.6 -15.3 1.5 -15.35 1.4 -16.05 0.6 -16.75 -0.15 -17.5 -1.5 -17.5 -1.65 -17.7 -1.85 -17.8 -2.05 -17.8 -1.8 -17.8 -1.75 -17.85 -1.75 -17.8 -0.15 -17.8 0.95 -17.8 1.1 -17.8 1.85 -17.85 2.0 -17.85 2.25 -17.35 3.3 -17.15 3.2 -16.95 3.25 -16.7 3.25 -16.5 3.35 -16.35 3.6 -16.05 4.35 -15.85 4.9 -15.8 4.95 -15.65 5.75 -15.1 6.25 -14.0 7.2 -12.15 8.3 -9.3 9.5 -8.7 9.7 -7.95 9.5 -7.55 9.5 -6.65 9.5 M11.9 14.05 L11.8 13.25 11.25 10.5 11.2 10.5 10.95 10.4 10.65 10.45 10.45 10.45 9.1 10.95 8.35 11.4 7.9 11.6 7.55 11.9 7.25 12.1 9.25 13.55 Q11.25 15.0 11.6 15.0 L11.7 15.0 12.05 15.15 11.9 14.05 M-20.45 -4.2 Q-21.4 -4.0 -21.4 -3.75 L-21.05 -3.45 -20.35 -3.25 -19.75 -3.05 -19.1 -2.85 Q-18.85 -2.85 -18.85 -3.15 L-19.0 -3.3 -19.05 -3.9 -19.0 -4.25 -19.2 -4.55 -19.45 -4.5 -20.45 -4.2 M-1.15 -10.1 L-3.3 -9.7 -5.25 -9.6 -5.45 -9.5 -5.55 -10.95 Q-5.6 -11.6 -5.8 -11.9 L-5.1 -11.9 -1.0 -10.4 -0.8 -10.25 -1.0 -10.15 -1.15 -10.1 M-8.45 10.65 L-8.55 10.65 -8.55 10.8 -8.4 12.25 -8.25 13.05 -8.15 13.35 -7.65 16.0 -7.45 16.25 -7.2 16.1 -6.2 15.1 -6.1 15.0 -5.15 13.8 -3.6 11.8 -3.45 11.6 -3.7 11.35 Q-4.35 10.65 -6.2 10.5 L-7.25 10.45 -8.45 10.65 M-18.0 4.05 L-18.2 4.05 -18.35 3.95 -19.45 5.15 -20.3 5.9 -20.95 6.85 -20.9 6.9 -20.65 6.9 -20.5 6.8 -18.4 6.65 -16.95 6.65 -16.5 6.6 -16.6 5.5 Q-16.8 4.7 -17.05 4.5 L-17.35 4.25 -17.7 4.15 -18.0 4.05" fill="#000000" fill-rule="evenodd" stroke="none"/>
    <path d="M12.0 -13.1 L12.4 -12.55 12.8 -12.2 13.1 -11.5 13.15 -11.35 13.35 -10.1 13.55 -9.05 Q13.5 -7.6 12.7 -6.1 L11.7 -4.6 10.5 -3.35 10.35 -3.25 10.3 -3.3 Q9.1 -2.45 6.15 -1.7 L5.9 -1.65 5.5 -1.55 -0.8 -0.7 Q-4.7 -0.7 -8.1 -2.3 -10.1 -3.3 -11.35 -4.5 -14.3 -7.25 -14.3 -9.7 L-14.2 -10.6 -14.15 -10.8 Q-13.85 -11.75 -13.4 -11.95 L-13.35 -12.0 Q-12.65 -13.7 -10.15 -15.05 -6.25 -17.25 -0.45 -17.2 5.4 -17.25 9.35 -15.05 L11.7 -13.25 12.0 -13.1 M-4.9 -3.6 L-3.9 -3.45 -3.8 -3.45 -2.1 -3.5 5.2 -3.6 Q5.95 -3.7 5.9 -4.0 L5.7 -4.3 5.6 -4.95 5.05 -6.5 4.7 -7.4 4.65 -7.65 8.45 -7.95 8.5 -8.1 8.45 -8.55 7.55 -9.35 6.7 -9.9 6.45 -10.05 Q6.95 -11.0 6.85 -14.15 L6.6 -14.1 6.6 -14.15 6.2 -14.55 6.1 -14.55 3.9 -15.7 3.95 -15.75 3.3 -15.9 1.45 -16.0 0.8 -16.1 -0.25 -16.1 -1.35 -16.1 -2.55 -16.1 -3.3 -16.05 -3.6 -16.0 -3.85 -16.0 -5.85 -15.75 -6.8 -15.35 -9.2 -13.8 -8.9 -12.45 -8.6 -11.0 -10.0 -9.6 Q-11.4 -8.15 -11.4 -7.7 -11.4 -7.35 -10.65 -7.35 L-8.2 -7.3 -6.25 -7.35 -5.7 -7.05 Q-5.7 -6.0 -5.85 -5.15 L-6.55 -3.4 -6.4 -3.4 -5.4 -3.6 -4.9 -3.6 M4.5 5.95 L3.7 -0.55 6.4 -1.2 Q9.25 -1.95 10.15 -2.6 L10.5 -2.75 Q10.9 -2.75 11.45 -3.25 L11.6 -3.4 13.7 2.4 13.65 2.45 9.7 4.4 9.3 4.55 9.25 4.55 4.5 5.95" fill="#484a49" fill-rule="evenodd" stroke="none"/>
    <path d="M3.3 -0.5 L3.7 -0.55 4.5 5.95 2.0 6.25 0.55 6.2 0.35 0.0 3.3 -0.5" fill="#3c3c3c" fill-rule="evenodd" stroke="none"/>
    <path d="M13.5 -5.55 Q14.1 -6.8 14.1 -8.45 L14.15 -9.15 14.05 -10.1 15.05 -8.55 15.6 -6.8 15.9 -6.15 15.8 -6.15 16.55 -4.7 16.55 -4.6 16.6 -4.55 16.85 -3.45 16.85 -3.4 17.05 -2.4 17.05 -2.15 16.95 -1.75 16.15 0.0 15.95 0.35 13.5 -5.55" fill="#444444" fill-rule="evenodd" stroke="none"/>
    <path d="M11.6 -3.4 L11.85 -3.6 Q12.9 -4.4 13.5 -5.55 L15.95 0.35 14.85 1.55 13.7 2.4 11.6 -3.4" fill="#626262" fill-rule="evenodd" stroke="none"/>
    <path d="M0.55 6.2 L2.0 6.25 1.4 6.25 0.55 6.25 -3.35 6.05 -4.15 5.95 -3.35 6.0 0.45 6.2 0.55 6.2 M18.0 -4.6 L18.05 -4.6 18.45 -4.55 19.85 -4.25 20.9 -4.0 Q21.25 -3.9 21.25 -3.7 21.2 -3.6 21.05 -3.6 L20.5 -3.4 19.55 -3.05 19.0 -2.6 18.45 -2.35 18.25 -2.3 18.2 -2.85 18.25 -3.65 18.05 -4.2 18.0 -4.6 M21.25 6.45 L20.9 6.65 19.55 6.7 16.9 6.9 Q16.25 6.9 16.25 6.6 L16.25 6.55 16.25 6.5 16.35 6.45 16.5 6.5 16.9 6.6 18.85 6.45 21.0 6.3 Q21.2 6.3 21.25 6.45 M16.15 5.5 L16.2 5.2 Q16.35 4.05 17.3 3.95 L17.35 3.95 17.45 3.9 17.6 3.9 18.15 4.35 19.4 5.15 20.65 6.0 21.1 6.25 19.35 6.1 16.15 5.5 M-6.5 5.75 L-6.45 5.75 Q-5.75 6.25 -4.95 6.45 L-3.4 6.7 0.55 6.9 1.8 6.9 4.6 6.65 Q9.3 5.9 14.35 2.7 L16.2 1.0 16.95 0.0 17.05 -0.05 17.05 0.1 17.0 2.55 16.9 2.6 16.75 3.25 16.65 3.25 Q15.8 3.45 15.55 4.2 L15.25 5.2 15.15 5.9 15.2 6.5 14.85 6.85 13.65 7.8 10.8 9.0 10.1 8.85 Q8.7 8.85 7.35 9.7 6.4 10.25 6.15 10.75 L2.6 11.2 0.05 11.15 -0.2 11.15 -1.7 10.95 -2.2 11.05 -2.65 10.9 -3.15 10.85 -3.75 10.15 Q-3.95 9.9 -4.55 9.8 L-5.35 9.7 -5.65 9.65 -6.05 9.55 -6.65 9.5 -6.5 5.75 M-7.95 9.5 L-8.7 9.7 -9.3 9.5 -9.15 8.7 -9.15 8.5 -9.25 8.45 -9.15 7.35 -9.2 5.9 -9.15 5.9 -9.25 4.85 -9.1 4.95 -7.95 5.2 -7.95 8.8 -7.9 8.95 -7.95 9.25 -7.95 9.5 M-16.5 3.35 L-16.7 3.25 -16.95 3.25 -17.15 3.2 -17.35 3.3 -17.85 2.25 -17.85 2.0 -17.8 1.85 -17.8 1.1 -17.8 0.95 -17.8 -0.15 -17.85 -1.75 -17.8 -1.75 -17.8 -1.8 -17.7 -1.85 -17.5 -1.65 -17.5 -1.5 -16.75 -0.15 -16.05 0.6 -16.55 0.9 -16.5 1.0 -16.55 1.15 -16.6 2.1 -16.5 3.35 M8.35 11.4 L9.1 10.95 10.45 10.45 10.65 10.45 10.95 10.4 11.2 10.5 11.25 10.5 11.8 13.25 11.9 14.05 10.55 13.15 Q9.0 12.1 8.35 11.4 M11.7 15.0 L11.6 15.0 Q11.25 15.0 9.25 13.55 L7.25 12.1 7.55 11.9 7.65 11.95 8.4 12.45 9.5 13.25 10.65 14.1 Q11.8 14.7 11.8 14.85 L11.7 15.0 M-20.45 -4.2 L-19.45 -4.5 -19.2 -4.55 -19.0 -4.25 -19.05 -3.9 -19.0 -3.3 -18.85 -3.15 Q-18.85 -2.85 -19.1 -2.85 L-19.75 -3.05 -20.35 -3.25 -21.05 -3.45 -21.4 -3.75 Q-21.4 -4.0 -20.45 -4.2 M-7.2 16.1 L-7.45 16.25 -7.65 16.0 -8.15 13.35 -8.25 13.05 -8.4 12.25 -8.55 10.8 -8.55 10.65 -8.45 10.65 Q-8.4 10.65 -8.3 10.75 L-8.2 11.15 -8.1 11.85 -7.8 13.2 -7.5 14.7 -7.4 15.4 -7.2 16.0 -7.2 16.1 M-6.2 10.5 Q-4.35 10.65 -3.7 11.35 L-3.45 11.6 -3.6 11.8 -5.15 13.8 -6.1 15.0 -6.25 14.45 -6.45 12.4 -6.3 10.85 -6.2 10.5 M-20.5 6.8 L-20.65 6.9 -20.9 6.9 -20.95 6.85 -20.3 5.9 -19.45 5.15 -18.35 3.95 -18.2 4.05 -18.0 4.05 -19.3 5.6 -20.5 6.8 M-17.35 4.25 L-17.05 4.5 Q-16.8 4.7 -16.6 5.5 L-16.5 6.6 -16.95 6.65 -18.4 6.65 -17.8 5.0 -17.35 4.25" fill="#6d6c6d" fill-rule="evenodd" stroke="none"/>
    <path d="M16.25 6.55 L16.2 6.55 16.2 6.5 16.15 5.5 19.35 6.1 21.1 6.25 21.25 6.35 21.25 6.45 Q21.2 6.3 21.0 6.3 L18.85 6.45 16.9 6.6 16.5 6.5 16.35 6.45 16.25 6.5 16.25 6.55 M8.35 11.4 Q9.0 12.1 10.55 13.15 L11.9 14.05 12.05 15.15 11.7 15.0 11.8 14.85 Q11.8 14.7 10.65 14.1 L9.5 13.25 8.4 12.45 7.65 11.95 7.55 11.9 7.9 11.6 8.35 11.4 M-8.45 10.65 L-7.25 10.45 -6.2 10.5 -6.3 10.85 -6.45 12.4 -6.25 14.45 -6.1 15.0 -6.2 15.1 -7.2 16.1 -7.2 16.0 -7.4 15.4 -7.5 14.7 -7.8 13.2 -8.1 11.85 -8.2 11.15 -8.3 10.75 Q-8.4 10.65 -8.45 10.65 M-20.5 6.8 L-19.3 5.6 -18.0 4.05 -17.7 4.15 -17.35 4.25 -17.8 5.0 -18.4 6.65 -20.5 6.8" fill="#3f413f" fill-rule="evenodd" stroke="none"/>
    <path d="M-4.9 -3.6 L-5.4 -3.6 -6.4 -3.4 -6.55 -3.4 -5.85 -5.15 Q-5.7 -6.0 -5.7 -7.05 L-6.25 -7.35 -8.2 -7.3 -10.65 -7.35 Q-11.4 -7.35 -11.4 -7.7 -11.4 -8.15 -10.0 -9.6 L-8.6 -11.0 -8.9 -12.45 -9.2 -13.8 -6.8 -15.35 -5.85 -15.75 -3.85 -16.0 -3.6 -16.0 -4.5 -15.8 Q-4.95 -15.55 -6.35 -14.85 L-7.75 -14.0 -7.85 -13.95 -7.7 -12.85 -7.7 -12.45 -7.2 -10.4 -7.45 -10.2 Q-9.0 -9.2 -9.2 -8.5 L-9.25 -8.25 -8.45 -8.1 -7.05 -7.9 -4.95 -8.1 -4.4 -8.15 -4.55 -7.45 -4.6 -7.4 -5.0 -4.6 -5.1 -4.35 -5.1 -4.2 -5.05 -4.2 -5.1 -3.8 -4.9 -3.6 M3.3 -0.5 L0.35 0.0 0.55 6.2 0.45 6.2 -3.35 6.0 -4.15 5.95 -4.4 5.9 -6.2 5.4 Q-7.0 4.5 -8.0 4.4 L-9.7 3.85 -11.5 3.25 -12.85 2.5 -14.0 1.9 -14.1 1.85 -14.1 1.75 -15.65 -0.1 -16.2 -1.1 -16.6 -1.95 -13.9 -6.35 -14.25 -7.2 -14.25 -7.25 -13.4 -5.8 -12.1 -4.3 -10.6 -3.1 -9.5 -2.35 Q-9.25 -2.1 -8.75 -1.95 -7.35 -1.2 -5.75 -0.75 L-5.05 -0.55 -1.1 -0.1 3.3 -0.5 M-14.5 -8.0 L-14.3 -7.35 -14.5 -7.85 -14.5 -8.0" fill="#373737" fill-rule="evenodd" stroke="none"/>
    <path d="M-17.45 -4.0 L-17.65 -5.3 -17.6 -5.75 -17.45 -6.15 -17.7 -6.15 -17.7 -6.2 -17.65 -6.4 -17.6 -6.4 -14.95 -10.45 -14.7 -10.75 -14.75 -9.95 -14.75 -9.65 -14.65 -8.65 -17.45 -4.0" fill="#5e5e5e" fill-rule="evenodd" stroke="none"/>
    <path d="M-17.45 -4.0 L-14.65 -8.65 -14.5 -8.0 -14.5 -7.85 -14.3 -7.35 -14.25 -7.25 -14.25 -7.2 -13.9 -6.35 -16.6 -1.95 -16.7 -2.1 -17.45 -4.0" fill="#404040" fill-rule="evenodd" stroke="none"/>
    <path d="M-6.65 9.5 L-7.55 9.5 -7.95 9.5 -7.95 9.25 -7.9 8.95 -7.95 8.8 -7.95 5.2 -7.55 5.3 -7.5 5.3 -7.4 5.35 -7.25 5.35 -7.2 5.4 -7.15 5.4 Q-6.7 5.6 -6.5 5.75 L-6.65 9.5 M-9.3 9.5 L-12.15 8.3 -14.0 7.2 -15.1 6.25 -15.65 5.75 -15.8 4.95 -15.85 4.9 -16.05 4.35 -16.35 3.6 -16.5 3.35 -16.6 2.1 -16.55 1.15 -16.5 1.0 -16.55 0.9 -16.05 0.6 -15.35 1.4 -15.3 1.5 -13.8 2.6 -12.2 3.75 Q-11.05 4.35 -9.5 4.75 L-9.25 4.85 -9.15 5.9 -9.2 5.9 -9.15 7.35 -9.25 8.45 -9.15 8.5 -9.15 8.7 -9.3 9.5 M-17.8 -1.8 L-17.8 -2.05 -17.7 -1.85 -17.8 -1.8" fill="#4f4e4f" fill-rule="evenodd" stroke="none"/>
    <path d="M-6.6 -14.15 L-6.1 -14.45 -4.5 -15.3 -4.15 -15.5 -1.4 -15.55 0.35 -15.55 2.6 -15.6 3.2 -15.4 4.75 -14.6 Q5.35 -14.3 5.7 -14.15 L5.65 -13.7 5.7 -13.6 5.7 -12.85 5.7 -12.25 5.1 -12.65 4.35 -12.4 3.75 -12.2 1.15 -11.4 0.3 -11.75 0.2 -11.15 -0.05 -11.15 -0.8 -11.0 -0.6 -11.8 -1.7 -11.4 -1.75 -11.4 -5.15 -12.65 -5.9 -13.45 -6.6 -14.15 M3.95 -8.3 L3.5 -8.2 3.75 -6.95 3.8 -6.5 3.05 -7.15 2.75 -7.45 2.5 -7.45 2.3 -7.7 2.2 -7.7 2.1 -7.55 1.85 -7.45 0.6 -6.1 0.6 -6.25 -0.15 -9.05 0.6 -9.2 -0.2 -10.2 3.95 -8.3" fill="#7b7b7b" fill-rule="evenodd" stroke="none"/>
    <path d="M-6.6 -14.15 L-5.9 -13.45 -5.15 -12.65 -1.75 -11.4 -1.7 -11.4 -0.6 -11.8 -0.8 -11.0 -0.05 -11.15 0.2 -11.15 0.3 -11.75 1.15 -11.4 3.75 -12.2 4.35 -12.4 5.1 -12.65 5.7 -12.25 5.65 -11.7 5.7 -10.6 5.8 -10.25 5.9 -9.8 5.9 -9.65 5.8 -9.3 6.2 -8.95 6.85 -8.55 6.75 -8.45 3.95 -8.3 -0.2 -10.2 0.6 -9.2 -0.15 -9.05 0.6 -6.25 0.45 -6.1 0.2 -6.5 -0.5 -7.2 Q-0.6 -7.65 -1.0 -7.95 L-1.5 -7.95 -2.65 -7.2 -3.65 -6.6 -3.65 -6.95 -3.55 -8.55 -3.65 -8.65 -3.7 -8.7 -7.5 -8.8 -6.95 -9.35 Q-6.4 -9.85 -6.4 -10.05 L-6.35 -10.2 -6.5 -10.25 -6.45 -12.55 -6.6 -14.15 M4.4 -11.7 L3.05 -11.2 0.6 -10.2 1.0 -10.05 2.25 -9.8 4.9 -9.3 4.9 -11.05 4.95 -11.35 4.95 -11.8 4.6 -11.75 4.55 -11.75 4.4 -11.7 M2.3 -7.1 L2.85 -6.5 Q3.6 -5.85 4.0 -5.75 L4.0 -4.95 4.2 -4.5 -1.8 -4.5 -2.7 -4.5 -3.95 -4.4 -3.65 -4.95 -3.8 -5.75 -3.65 -5.9 -2.4 -6.75 -1.4 -7.45 -0.7 -6.65 0.4 -5.65 0.6 -5.65 2.3 -7.1 M-1.15 -10.1 L-1.0 -10.15 -0.8 -10.25 -1.0 -10.4 -5.1 -11.9 -5.8 -11.9 Q-5.6 -11.6 -5.55 -10.95 L-5.45 -9.5 -5.25 -9.6 -3.3 -9.7 -1.15 -10.1" fill="#555555" fill-rule="evenodd" stroke="none"/>
  </g>
</svg>
