<?xml version="1.0" encoding="UTF-8" standalone="no"?>
<svg xmlns:ffdec="https://www.free-decompiler.com/flash" xmlns:xlink="http://www.w3.org/1999/xlink" ffdec:objectType="shape" height="86.6px" width="86.6px" xmlns="http://www.w3.org/2000/svg">
  <g transform="matrix(1.0, 0.0, 0.0, 1.0, 43.3, 43.3)">
    <path d="M-39.9 -30.0 Q-42.0 -32.7 -41.4 -35.7 -40.9 -37.8 -39.5 -39.2 -38.15 -40.55 -36.4 -41.0 -33.35 -41.85 -30.65 -39.15 -29.75 -38.25 -29.85 -37.15 -29.9 -36.6 -30.2 -36.1 -30.4 -35.5 -31.15 -34.55 L-31.25 -34.35 -32.85 -33.45 -33.3 -33.3 -33.75 -33.25 -33.65 -33.35 -33.6 -33.4 -33.2 -33.9 -32.3 -34.8 Q-31.65 -35.55 -31.8 -36.1 -31.45 -37.25 -32.3 -38.1 -33.05 -38.85 -34.2 -38.8 -35.2 -38.9 -36.3 -38.2 L-37.75 -37.25 -38.45 -36.35 -38.65 -36.15 -39.35 -34.65 Q-39.5 -34.2 -39.25 -32.75 -38.9 -30.95 -37.95 -29.95 -36.95 -29.0 -34.8 -29.3 L-33.2 -29.6 -31.65 -29.95 -30.35 -30.35 Q-29.05 -30.55 -23.25 -35.05 L-19.85 -37.85 -18.05 -39.05 Q-17.2 -39.4 -16.75 -39.65 L-16.05 -39.85 Q-14.55 -40.35 -14.1 -40.6 L-12.15 -40.85 -10.1 -41.0 -5.95 -40.75 Q-1.7 -39.5 2.9 -34.9 L5.6 -32.0 8.05 -26.75 8.5 -25.8 9.25 -22.95 9.4 -22.6 8.4 -22.3 7.95 -22.15 6.25 -26.85 Q5.15 -29.15 2.7 -31.6 0.45 -33.85 -2.25 -35.35 L-7.1 -37.7 Q-9.25 -38.75 -11.45 -38.75 L-15.55 -37.95 Q-18.4 -37.0 -23.3 -33.2 -27.95 -29.55 -30.5 -28.6 -32.4 -27.6 -35.05 -28.05 -37.5 -28.4 -39.9 -30.0 M22.9 -9.3 L25.75 -8.55 Q26.25 -8.25 26.75 -8.05 L32.0 -5.6 34.9 -2.95 Q39.45 1.65 40.75 5.95 41.4 8.3 41.0 10.1 L40.85 12.15 40.55 14.05 39.85 16.05 39.6 16.7 39.05 18.05 37.85 19.85 35.05 23.2 Q30.55 29.05 30.35 30.35 L29.95 31.65 29.6 33.2 29.3 34.8 Q29.05 37.0 30.0 37.95 30.95 38.9 32.75 39.25 L34.6 39.3 36.15 38.65 36.35 38.45 37.25 37.75 38.2 36.3 Q38.9 35.2 38.8 34.2 38.85 33.05 38.05 32.25 37.25 31.45 36.1 31.8 35.55 31.65 34.8 32.3 L33.9 33.2 33.35 33.55 33.3 33.6 33.2 33.7 33.3 33.3 33.45 32.85 34.35 31.25 34.55 31.15 Q35.5 30.4 36.1 30.2 36.6 29.9 37.15 29.85 38.25 29.75 39.15 30.65 41.85 33.3 41.0 36.4 L40.5 37.8 40.25 38.05 Q37.85 40.45 34.9 40.5 32.2 40.6 30.35 38.75 27.95 36.35 28.3 33.5 28.55 31.45 30.5 28.3 L32.05 25.35 33.65 22.15 37.35 16.15 Q40.1 10.3 37.75 5.3 36.5 2.7 31.9 -1.9 L27.25 -5.85 Q25.4 -7.2 22.6 -8.75 L22.7 -9.3 22.9 -9.3" fill="#9f9886" fill-rule="evenodd" stroke="none"/>
    <path d="M7.95 -22.15 L8.4 -22.3 9.4 -22.6 9.25 -22.95 8.5 -25.8 8.05 -26.75 5.6 -32.0 2.9 -34.9 Q-1.7 -39.5 -5.95 -40.75 L-10.1 -41.0 -12.15 -40.85 -14.1 -40.6 Q-14.55 -40.35 -16.05 -39.85 L-16.75 -39.65 Q-17.2 -39.4 -18.05 -39.05 L-19.85 -37.85 -23.25 -35.05 Q-29.05 -30.55 -30.35 -30.35 L-31.65 -29.95 -33.2 -29.6 -34.8 -29.3 Q-36.95 -29.0 -37.95 -29.95 -38.9 -30.95 -39.25 -32.75 -39.5 -34.2 -39.35 -34.65 L-38.65 -36.15 -38.45 -36.35 -37.75 -37.25 -36.3 -38.2 Q-35.2 -38.9 -34.2 -38.8 -33.05 -38.85 -32.3 -38.1 -31.45 -37.25 -31.8 -36.1 -31.65 -35.55 -32.3 -34.8 L-33.2 -33.9 -33.6 -33.4 -33.65 -33.35 -33.75 -33.25 -33.3 -33.3 -32.85 -33.45 -31.25 -34.35 -31.15 -34.55 Q-30.4 -35.5 -30.2 -36.1 -29.9 -36.6 -29.85 -37.15 -29.75 -38.25 -30.65 -39.15 -33.35 -41.85 -36.4 -41.0 -38.15 -40.55 -39.5 -39.2 -40.9 -37.8 -41.4 -35.7 -42.0 -32.7 -39.9 -30.0 L-38.95 -28.95 Q-36.85 -26.85 -34.65 -26.7 -32.15 -26.65 -28.65 -29.15 L-28.55 -29.05 -26.9 -30.05 -24.4 -31.5 -22.2 -33.1 -20.5 -34.2 Q-19.0 -35.5 -17.1 -36.5 L-16.6 -36.8 -14.3 -37.5 -12.1 -37.7 -9.6 -37.6 -8.3 -37.5 -5.75 -36.65 -3.9 -35.8 -3.5 -35.6 -2.7 -35.0 2.55 -30.55 Q4.75 -28.3 5.85 -26.05 L6.4 -24.3 6.95 -21.85 7.0 -21.9 7.55 -22.05 7.95 -22.15 M2.55 -27.55 L0.65 -29.75 Q-2.0 -32.4 -4.25 -33.55 -6.5 -34.7 -9.75 -35.15 -12.8 -35.6 -16.0 -34.6 L-20.7 -32.5 -24.3 -30.1 -24.5 -29.9 -27.35 -27.85 Q-29.05 -26.6 -30.45 -26.05 L-34.1 -25.2 Q-37.95 -25.05 -40.95 -28.05 -42.5 -29.55 -43.05 -32.65 L-43.1 -32.8 Q-43.5 -35.2 -43.15 -36.45 L-42.2 -38.8 -40.8 -40.6 -40.15 -41.15 -39.45 -41.95 -37.9 -42.7 Q-36.55 -43.25 -35.3 -43.2 -34.55 -43.15 -34.5 -42.9 L-33.2 -42.7 -32.85 -42.55 -32.3 -42.4 -31.55 -42.05 -30.9 -41.7 -30.45 -41.55 -29.75 -40.65 -29.5 -40.4 -29.4 -39.9 -28.8 -39.15 Q-28.55 -38.7 -28.45 -38.05 -28.3 -37.1 -28.55 -36.35 L-28.7 -36.0 -29.5 -34.8 -30.05 -34.15 -30.85 -33.35 -32.35 -32.7 -35.8 -32.6 Q-36.05 -32.85 -35.75 -33.15 L-35.0 -33.6 -34.45 -33.85 -33.8 -34.7 Q-32.8 -35.9 -33.55 -36.65 L-33.75 -37.1 -33.55 -37.3 -33.5 -37.6 -35.5 -37.4 -36.35 -37.05 -36.45 -36.75 -37.0 -36.3 -37.5 -35.8 -37.9 -34.9 -38.1 -33.95 -37.85 -32.75 Q-37.75 -32.05 -37.3 -31.6 -35.4 -29.65 -31.55 -31.35 -28.8 -32.6 -27.65 -33.95 L-20.65 -39.35 -19.35 -40.25 -19.15 -40.65 -18.25 -41.45 -16.9 -42.0 -13.35 -43.05 -10.5 -43.3 Q-2.3 -43.3 4.65 -36.35 9.15 -31.85 10.4 -27.3 10.55 -26.65 11.65 -23.15 L12.25 -21.35 12.35 -20.75 12.3 -20.5 12.2 -20.4 12.05 -20.25 12.25 -19.85 12.5 -19.7 12.8 -19.1 Q13.05 -18.55 15.6 -16.0 L17.85 -13.85 18.1 -13.7 Q19.0 -13.1 19.4 -13.1 20.3 -13.0 21.05 -12.55 L21.45 -12.15 23.1 -11.7 27.3 -10.4 Q31.85 -9.15 36.35 -4.65 43.3 2.3 43.3 10.5 L43.05 13.35 42.0 16.9 41.45 18.25 40.65 19.15 40.25 19.35 39.3 20.6 33.95 27.65 Q32.6 28.8 31.35 31.55 29.65 35.35 31.6 37.3 32.05 37.75 32.75 37.85 L33.95 38.05 34.9 37.9 35.75 37.45 36.25 36.95 36.75 36.45 37.05 36.35 37.4 35.5 Q37.9 34.3 37.6 33.5 L37.3 33.5 37.1 33.7 36.65 33.55 Q35.9 32.8 34.7 33.8 L33.85 34.45 33.6 35.0 33.15 35.75 32.6 35.8 Q31.8 35.0 32.7 32.3 L33.35 30.85 34.15 30.05 34.8 29.5 Q35.25 29.05 36.0 28.7 L36.35 28.55 38.05 28.45 39.15 28.75 39.9 29.4 40.35 29.45 40.65 29.75 41.55 30.45 41.7 30.9 42.05 31.55 42.4 32.3 42.55 32.85 42.7 33.2 42.85 34.45 Q43.15 34.55 43.2 35.3 43.2 36.5 42.7 37.9 L41.95 39.45 41.15 40.15 40.6 40.8 38.8 42.2 36.45 43.15 32.65 43.05 Q29.55 42.45 28.05 40.95 25.05 37.95 25.15 34.05 L26.05 30.45 Q26.6 29.0 27.85 27.35 L29.9 24.5 30.1 24.3 Q30.5 23.3 32.5 20.7 L34.55 15.95 Q35.6 12.8 35.15 9.75 34.7 6.5 33.55 4.25 32.4 2.0 29.75 -0.65 L27.55 -2.55 26.75 -3.05 23.3 -4.1 19.65 -5.65 19.1 -5.8 19.2 -5.6 19.15 -5.55 18.8 -5.7 17.9 -6.0 14.85 -8.55 Q14.45 -8.85 13.7 -9.0 12.7 -9.5 10.3 -11.9 7.55 -14.65 6.4 -16.7 L5.45 -19.05 5.4 -19.2 5.6 -19.2 5.8 -19.1 5.65 -19.65 5.45 -19.95 5.45 -20.05 4.1 -23.3 3.0 -26.8 2.55 -27.55 M8.25 -19.25 L8.5 -19.3 Q9.8 -19.2 10.3 -19.7 L10.35 -19.95 10.3 -20.1 10.25 -20.15 9.95 -20.85 9.35 -20.85 8.3 -20.75 7.9 -20.6 7.4 -20.3 7.65 -19.35 8.25 -19.25 M11.8 -14.8 L12.5 -15.4 12.95 -16.05 11.85 -17.35 11.75 -17.25 10.3 -16.4 10.25 -16.35 9.0 -16.1 9.7 -14.9 10.35 -14.55 11.5 -14.6 11.8 -14.8 M9.7 -17.1 Q10.75 -17.25 11.25 -17.75 L11.35 -18.05 10.75 -19.05 Q10.35 -18.75 9.35 -18.45 L8.7 -18.3 7.9 -18.4 8.2 -17.6 8.5 -17.0 9.25 -17.05 9.7 -17.1 M12.3 -14.3 L11.85 -13.95 Q11.15 -13.45 10.55 -13.55 L11.95 -11.85 12.25 -11.65 14.1 -12.3 14.2 -12.5 14.7 -13.2 Q14.95 -13.55 14.8 -14.0 L14.8 -14.1 14.6 -14.3 13.5 -15.4 13.05 -14.85 12.3 -14.3 M16.35 -10.65 L16.85 -11.25 Q17.15 -11.55 17.0 -12.0 L16.95 -12.25 15.65 -13.35 15.5 -13.1 14.8 -12.0 14.6 -11.8 13.55 -11.15 13.05 -10.95 15.1 -9.5 16.0 -10.1 16.35 -10.65 M18.85 -8.95 L19.1 -9.35 19.3 -10.6 19.35 -11.05 18.75 -11.35 Q18.3 -11.5 17.85 -11.75 L17.5 -10.9 17.05 -10.15 16.5 -9.6 16.0 -9.1 15.9 -9.1 17.6 -8.2 18.0 -8.1 18.5 -8.5 18.85 -8.95 M20.8 -8.1 L20.85 -8.15 21.15 -8.75 21.35 -9.35 21.2 -9.9 20.15 -10.25 19.95 -10.45 19.5 -8.6 19.0 -7.8 18.95 -7.75 20.2 -7.4 20.8 -8.1 M40.25 38.05 L40.5 37.8 41.0 36.4 Q41.85 33.3 39.15 30.65 38.25 29.75 37.15 29.85 36.6 29.9 36.1 30.2 35.5 30.4 34.55 31.15 L34.35 31.25 33.45 32.85 33.3 33.3 33.2 33.7 33.3 33.6 33.35 33.55 33.9 33.2 34.8 32.3 Q35.55 31.65 36.1 31.8 37.25 31.45 38.05 32.25 38.85 33.05 38.8 34.2 38.9 35.2 38.2 36.3 L37.25 37.75 36.35 38.45 36.15 38.65 34.6 39.3 32.75 39.25 Q30.95 38.9 30.0 37.95 29.05 37.0 29.3 34.8 L29.6 33.2 29.95 31.65 30.35 30.35 Q30.55 29.05 35.05 23.2 L37.85 19.85 39.05 18.05 39.6 16.7 39.85 16.05 40.55 14.05 40.85 12.15 41.0 10.1 Q41.4 8.3 40.75 5.95 39.45 1.65 34.9 -2.95 L32.0 -5.6 26.75 -8.05 Q26.25 -8.25 25.75 -8.55 L22.9 -9.3 22.7 -9.4 22.7 -9.3 22.6 -8.75 Q22.4 -7.8 21.7 -7.0 L24.3 -6.4 26.0 -5.9 Q28.3 -4.8 30.55 -2.55 L35.0 2.7 35.6 3.5 35.8 3.9 36.65 5.75 37.5 8.3 37.6 9.6 37.7 12.1 37.5 14.3 36.8 16.6 36.5 17.1 Q35.5 19.0 34.2 20.5 L33.1 22.2 31.5 24.4 30.1 26.95 29.0 28.5 29.15 28.65 Q26.65 32.15 26.75 34.7 26.85 36.85 28.95 38.95 32.15 42.15 35.7 41.4 37.8 40.9 39.2 39.5 L40.25 38.05 M34.35 3.85 L34.4 3.8 32.6 1.2 34.05 3.25 34.35 3.85 M-3.25 -34.05 L-1.2 -32.6 -3.8 -34.4 -3.85 -34.35 -3.25 -34.05" fill="#000000" fill-rule="evenodd" stroke="none"/>
    <path d="M-39.9 -30.0 Q-37.5 -28.4 -35.05 -28.05 -32.4 -27.6 -30.5 -28.6 -27.95 -29.55 -23.3 -33.2 -18.4 -37.0 -15.55 -37.95 L-11.45 -38.75 Q-9.25 -38.75 -7.1 -37.7 L-2.25 -35.35 Q0.45 -33.85 2.7 -31.6 5.15 -29.15 6.25 -26.85 L7.95 -22.15 7.55 -22.05 7.0 -21.9 6.95 -21.85 6.4 -24.3 5.85 -26.05 Q4.75 -28.3 2.55 -30.55 L-2.7 -35.0 -3.5 -35.6 -3.9 -35.8 -5.75 -36.65 -8.3 -37.5 -9.6 -37.6 -12.1 -37.7 -14.3 -37.5 -16.6 -36.8 -17.1 -36.5 Q-19.0 -35.5 -20.5 -34.2 L-22.2 -33.1 -24.4 -31.5 -26.9 -30.05 -28.55 -29.05 -28.65 -29.15 Q-32.15 -26.65 -34.65 -26.7 -36.85 -26.85 -38.95 -28.95 L-39.9 -30.0 M40.25 38.05 L39.2 39.5 Q37.8 40.9 35.7 41.4 32.15 42.15 28.95 38.95 26.85 36.85 26.75 34.7 26.65 32.15 29.15 28.65 L29.0 28.5 30.1 26.95 31.5 24.4 33.1 22.2 34.2 20.5 Q35.5 19.0 36.5 17.1 L36.8 16.6 37.5 14.3 37.7 12.1 37.6 9.6 37.5 8.3 36.65 5.75 35.8 3.9 35.6 3.5 35.0 2.7 30.55 -2.55 Q28.3 -4.8 26.0 -5.9 L24.3 -6.4 21.7 -7.0 Q22.4 -7.8 22.6 -8.75 25.4 -7.2 27.25 -5.85 L31.9 -1.9 Q36.5 2.7 37.75 5.3 40.1 10.3 37.35 16.15 L33.65 22.15 32.05 25.35 30.5 28.3 Q28.55 31.45 28.3 33.5 27.95 36.35 30.35 38.75 32.2 40.6 34.9 40.5 37.85 40.45 40.25 38.05" fill="#666352" fill-rule="evenodd" stroke="none"/>
    <path d="M7.9 -20.6 L8.3 -20.75 9.35 -20.85 9.95 -20.85 10.25 -20.15 10.3 -20.1 10.35 -19.95 10.3 -19.7 Q9.8 -19.2 8.5 -19.3 L8.25 -19.25 7.9 -20.6 M10.3 -16.4 L11.75 -17.25 11.85 -17.35 12.95 -16.05 12.5 -15.4 11.8 -14.8 10.3 -16.4 M8.7 -18.3 L9.35 -18.45 Q10.35 -18.75 10.75 -19.05 L11.35 -18.05 11.25 -17.75 Q10.75 -17.25 9.7 -17.1 L8.7 -18.3 M12.3 -14.3 L13.05 -14.85 13.5 -15.4 14.6 -14.3 14.8 -14.1 14.8 -14.0 Q14.95 -13.55 14.7 -13.2 L14.2 -12.5 12.3 -14.3 M14.8 -12.0 L15.5 -13.1 15.65 -13.35 16.95 -12.25 17.0 -12.0 Q17.15 -11.55 16.85 -11.25 L16.35 -10.65 14.8 -12.0 M17.05 -10.15 L17.5 -10.9 17.85 -11.75 Q18.3 -11.5 18.75 -11.35 L19.35 -11.05 19.3 -10.6 19.1 -9.35 18.85 -8.95 17.05 -10.15 M19.5 -8.6 L19.95 -10.45 20.15 -10.25 21.2 -9.9 21.35 -9.35 21.15 -8.75 20.85 -8.15 20.8 -8.1 19.5 -8.6" fill="#e6d337" fill-rule="evenodd" stroke="none"/>
    <path d="M8.25 -19.25 L7.65 -19.35 7.4 -20.3 7.9 -20.6 8.25 -19.25 M11.8 -14.8 L11.5 -14.6 10.35 -14.55 9.7 -14.9 9.0 -16.1 10.25 -16.35 10.3 -16.4 11.8 -14.8 M9.7 -17.1 L9.25 -17.05 8.5 -17.0 8.2 -17.6 7.9 -18.4 8.7 -18.3 9.7 -17.1 M14.2 -12.5 L14.1 -12.3 12.25 -11.65 11.95 -11.85 10.55 -13.55 Q11.15 -13.45 11.85 -13.95 L12.3 -14.3 14.2 -12.5 M16.35 -10.65 L16.0 -10.1 15.1 -9.5 13.05 -10.95 13.55 -11.15 14.6 -11.8 14.8 -12.0 16.35 -10.65 M17.05 -10.15 L18.85 -8.95 18.5 -8.5 18.0 -8.1 17.6 -8.2 15.9 -9.1 16.0 -9.1 16.5 -9.6 17.05 -10.15 M19.5 -8.6 L20.8 -8.1 20.2 -7.4 18.95 -7.75 19.0 -7.8 19.5 -8.6" fill="#a59616" fill-rule="evenodd" stroke="none"/>
    <path d="M-35.5 -27.6 Q-36.5 -30.4 -36.15 -30.75 -35.55 -31.35 -34.6 -29.5 L-33.4 -26.8 Q-32.35 -24.75 -32.05 -23.55 L-31.85 -23.05 -31.65 -22.75 -30.4 -20.2 -30.3 -19.9 -30.2 -19.65 -30.05 -19.45 -29.95 -19.25 -29.95 -19.15 -29.05 -16.75 -28.3 -15.0 -27.9 -13.9 -27.8 -13.8 -27.35 -12.65 Q-26.35 -9.85 -25.65 -8.75 L-22.65 -1.65 Q-21.15 2.25 -20.8 4.0 L-20.0 6.0 -19.55 6.95 -19.65 6.85 -19.4 7.4 -18.25 10.05 -19.65 11.45 -19.7 11.5 -21.05 8.25 -21.8 6.0 -22.2 4.8 -30.9 -16.2 -31.0 -16.05 -31.15 -16.65 -33.65 -22.55 -33.4 -22.6 -34.7 -25.5 -34.8 -25.9 -35.5 -27.6 M-13.25 18.65 L-11.95 17.45 -11.8 17.3 -7.9 18.9 -7.35 19.15 -7.45 19.05 -6.5 19.5 -4.5 20.3 Q-2.75 20.65 1.15 22.15 L8.25 25.15 Q9.35 25.85 12.15 26.85 L13.3 27.3 13.4 27.4 Q14.05 27.55 14.5 27.8 L16.25 28.55 18.65 29.45 18.75 29.45 18.95 29.55 19.15 29.65 19.4 29.8 19.7 29.9 22.25 31.15 22.55 31.35 23.05 31.55 Q24.25 31.85 26.3 32.9 L29.0 34.1 Q30.85 35.05 30.25 35.65 29.9 36.0 27.1 35.0 L25.4 34.3 25.0 34.2 22.1 32.9 22.05 33.15 16.15 30.65 15.6 30.55 15.7 30.4 -5.3 21.7 -6.5 21.3 -8.75 20.55 -13.25 18.65" fill="#000000" fill-rule="evenodd" stroke="none"/>
    <path d="M24.05 -26.15 L24.45 -24.65 25.75 -24.45 25.35 -23.95 -9.45 11.25 -9.6 11.4 -12.9 14.1 -18.45 18.55 -18.5 18.4 -18.45 18.35 -14.1 13.2 -11.95 10.65 -11.1 9.9 -11.15 9.85 23.65 -25.65 24.05 -26.15 M18.15 -19.95 L18.2 -19.9 18.25 -19.95 18.15 -19.95" fill="#ffffff" fill-rule="evenodd" stroke="none"/>
    <path d="M22.85 -33.65 L42.95 -42.85 32.4 -22.2 26.7 -22.6 26.5 -22.6 -7.5 11.5 -7.4 15.8 -18.85 28.15 -20.1 20.0 -27.9 19.8 -15.7 7.8 -11.1 7.5 22.75 -27.25 22.85 -33.65 M38.8 -39.3 L24.85 -31.95 24.8 -31.8 24.05 -26.15 23.65 -25.65 -11.15 9.85 -15.1 9.6 -18.5 13.1 -23.0 17.8 -18.45 18.35 -18.5 18.4 -18.45 18.55 -17.85 23.75 -12.3 17.9 -9.25 14.75 -9.4 11.4 -9.45 11.25 25.35 -23.95 25.75 -24.45 30.95 -24.85 30.9 -25.0 38.8 -39.3" fill="#000000" fill-rule="evenodd" stroke="none"/>
    <path d="M27.3 -27.1 L38.8 -39.3 30.9 -25.0 27.45 -26.95 27.3 -27.1 M-11.15 9.85 L-11.1 9.9 -11.95 10.65 -14.1 13.2 -18.5 13.1 -15.1 9.6 -11.15 9.85 M-12.9 14.1 L-9.6 11.4 -9.4 11.4 -9.25 14.75 -12.3 17.9 -12.9 14.1" fill="#a9a9aa" fill-rule="evenodd" stroke="none"/>
    <path d="M24.8 -31.8 L27.3 -27.1 27.45 -26.95 30.9 -25.0 30.95 -24.85 25.75 -24.45 24.45 -24.65 24.05 -26.15 24.8 -31.8 M-14.1 13.2 L-18.45 18.35 -23.0 17.8 -18.5 13.1 -14.1 13.2 M-18.45 18.55 L-12.9 14.1 -12.3 17.9 -17.85 23.75 -18.45 18.55" fill="#7f7f80" fill-rule="evenodd" stroke="none"/>
    <path d="M27.3 -27.1 L24.8 -31.8 24.85 -31.95 38.8 -39.3 27.3 -27.1" fill="#fdfcff" fill-rule="evenodd" stroke="none"/>
    <path d="M-9.6 11.4 L-9.45 11.25 -9.4 11.4 -9.6 11.4" fill="#ff0900" fill-rule="evenodd" stroke="none"/>
  </g>
</svg>
