<?xml version="1.0" encoding="UTF-8" standalone="no"?>
<svg xmlns:ffdec="https://www.free-decompiler.com/flash" xmlns:xlink="http://www.w3.org/1999/xlink" ffdec:objectType="shape" height="85.8px" width="85.7px" xmlns="http://www.w3.org/2000/svg">
  <g transform="matrix(1.0, 0.0, 0.0, 1.0, 43.05, 42.4)">
    <path d="M0.6 -38.85 L1.15 -39.0 1.25 -39.05 1.4 -39.05 1.5 -39.05 1.65 -39.0 2.5 -38.85 2.6 -38.75 3.05 -38.5 3.8 -37.85 4.15 -37.4 4.8 -36.15 Q5.7 -33.95 4.1 -30.75 L4.55 -30.7 Q5.4 -30.45 5.1 -29.55 L4.9 -28.95 4.5 -27.95 5.2 -27.7 5.95 -27.4 8.0 -26.85 9.6 -26.45 9.9 -26.35 12.75 -23.6 12.8 -23.55 13.8 -23.65 14.45 -24.1 Q15.9 -24.55 16.2 -24.85 L16.2 -24.95 18.7 -22.45 21.3 -20.05 23.95 -17.3 23.65 -16.1 23.15 -14.6 22.9 -13.85 Q22.65 -13.3 22.9 -13.05 L23.2 -12.95 Q23.4 -12.45 24.15 -11.8 L25.7 -10.15 26.65 -9.1 27.0 -8.05 28.35 -4.8 Q28.55 -4.6 28.75 -4.6 L28.75 -4.5 28.8 -4.55 29.1 -4.65 29.15 -4.7 29.2 -4.5 30.0 -4.55 30.6 -3.95 30.7 -3.85 Q34.0 -5.65 36.25 -4.7 L37.45 -4.1 37.95 -3.7 38.6 -2.95 38.95 -2.4 39.15 -2.4 39.1 -1.65 39.15 -1.4 39.15 -1.3 38.85 -0.3 38.0 1.75 Q37.15 3.7 36.5 4.35 L35.8 5.25 35.65 5.2 35.45 5.1 Q35.2 4.95 35.3 4.6 L35.45 4.2 35.6 3.15 35.5 2.25 34.75 1.2 34.15 1.3 33.7 1.25 33.55 1.4 32.75 2.1 33.2 2.95 33.35 3.9 32.2 4.55 31.7 5.05 32.05 6.1 Q32.75 6.1 33.15 6.5 33.45 6.9 33.85 9.2 L34.15 11.55 34.2 13.65 34.1 14.05 34.9 14.25 35.3 15.05 35.35 15.2 Q39.1 14.75 40.8 16.45 L41.75 17.5 42.0 17.95 42.4 18.95 42.4 19.65 42.55 19.55 42.65 19.7 42.3 20.35 42.25 20.6 42.2 20.65 41.6 21.45 40.0 23.15 Q38.5 24.65 37.7 24.95 L36.7 25.55 36.55 25.4 36.4 25.25 Q36.3 25.05 36.45 24.8 L36.8 24.45 37.3 23.55 37.5 22.65 37.15 21.4 Q36.9 21.65 36.6 21.25 36.5 21.05 36.25 21.0 L36.05 21.1 35.05 21.5 35.1 22.45 34.9 23.35 33.6 23.65 Q33.45 23.6 33.0 23.85 L32.95 23.85 32.95 23.9 32.85 25.0 32.9 26.3 32.6 27.65 32.4 27.75 31.7 28.75 30.85 29.8 29.05 31.4 28.05 32.4 27.5 32.75 27.8 33.65 27.9 34.65 27.35 34.75 26.75 34.7 26.05 34.7 25.85 34.7 26.4 35.95 27.25 38.75 Q28.3 42.25 27.7 42.85 L27.6 42.95 27.45 43.05 27.35 43.1 27.1 43.35 26.6 43.25 26.3 42.8 26.25 42.8 22.5 38.25 21.1 36.45 20.25 35.2 20.0 35.45 19.75 35.5 19.1 35.05 19.0 34.9 Q18.05 33.9 17.45 32.6 16.75 31.0 17.2 29.65 L-10.3 15.65 -9.95 15.3 -9.45 14.8 17.55 28.8 18.55 27.6 20.15 26.3 Q21.45 25.7 22.0 25.65 L21.6 20.75 Q21.4 16.05 21.55 15.4 L19.9 10.85 17.8 5.55 15.95 1.1 15.5 0.05 15.25 -1.2 Q14.9 -2.55 14.4 -3.05 14.05 -3.4 13.7 -3.05 L13.1 -2.45 9.15 -6.4 9.25 -6.5 10.25 -8.0 Q11.05 -9.7 10.0 -10.75 8.75 -12.0 6.7 -10.75 L5.55 -10.0 1.4 -14.1 2.1 -14.55 Q2.9 -15.35 1.0 -15.65 L-0.3 -15.75 Q-3.3 -16.65 -6.95 -18.1 L-13.85 -21.0 -14.9 -21.25 -15.9 -21.55 -20.55 -21.7 -23.65 -21.8 -25.35 -21.9 Q-25.15 -21.1 -25.7 -20.05 -26.2 -18.8 -27.5 -17.55 L-28.6 -16.65 -16.3 8.45 -17.15 9.4 -29.5 -16.05 -29.7 -15.95 -31.7 -16.1 -33.25 -17.1 -34.05 -17.5 -34.85 -18.1 Q-35.5 -18.7 -35.6 -19.55 L-35.65 -20.5 -38.15 -22.3 -42.85 -26.2 Q-43.2 -26.55 -42.9 -26.85 L-42.65 -26.9 -42.2 -27.45 -41.95 -27.6 Q-41.3 -27.95 -37.2 -26.9 -34.85 -26.3 -33.95 -25.8 L-33.95 -26.0 -34.1 -26.05 Q-34.55 -26.5 -31.85 -29.0 L-29.0 -31.75 -28.7 -32.15 -28.45 -32.3 -28.35 -32.6 -27.1 -32.75 -25.85 -32.7 -25.5 -32.75 -25.35 -33.4 -24.75 -34.5 -24.0 -34.75 -23.2 -34.85 -22.45 -35.1 -22.5 -35.35 Q-22.2 -35.85 -23.05 -36.7 L-23.15 -36.8 -23.2 -36.8 -23.45 -37.0 -25.5 -37.15 -26.5 -36.75 -26.55 -36.7 -26.55 -36.8 -26.65 -36.9 Q-25.25 -39.8 -24.0 -41.05 -23.2 -41.85 -21.9 -42.2 -20.1 -42.75 -18.85 -41.9 L-17.55 -40.3 -16.9 -38.75 -16.75 -38.2 -16.6 -37.55 -16.3 -35.45 -16.25 -35.3 -15.95 -34.3 -15.7 -33.95 -15.6 -34.05 Q-15.3 -34.55 -15.0 -34.25 L-14.95 -34.2 -14.6 -34.25 -6.8 -33.45 -6.6 -31.95 -6.5 -31.95 -5.05 -31.4 -5.0 -31.55 -4.95 -31.6 -4.85 -31.7 -4.75 -32.1 -4.2 -33.55 -2.45 -33.4 -1.85 -33.05 -1.6 -33.55 Q-1.3 -34.45 -1.85 -35.0 -2.4 -35.55 -3.6 -35.25 L-5.05 -35.2 -4.35 -36.0 -1.8 -37.85 -1.65 -37.9 0.4 -38.75 0.6 -38.85 M2.9 -32.45 Q3.65 -34.7 3.0 -36.25 2.25 -38.1 -0.85 -36.95 L-1.75 -36.6 -1.7 -36.55 Q-0.1 -36.05 0.4 -34.95 1.05 -33.3 -0.35 -31.9 L1.1 -31.55 2.35 -31.1 2.9 -32.45 M2.6 -28.55 L2.85 -29.3 2.7 -29.45 2.8 -29.55 2.5 -29.65 Q1.9 -30.15 -0.2 -30.95 -2.9 -31.95 -3.1 -31.8 L-3.4 -31.35 -3.55 -31.1 -3.55 -30.7 -2.85 -30.2 -0.65 -29.3 0.35 -28.9 Q2.2 -28.25 2.45 -28.4 L2.6 -28.55 M1.2 -27.55 L1.1 -27.55 1.15 -27.5 1.2 -27.55 M8.55 -23.6 Q7.3 -23.95 4.85 -25.0 L2.25 -26.05 -1.15 -27.5 -6.2 -29.45 -6.35 -29.5 -6.3 -29.05 Q-6.0 -26.35 -6.55 -25.8 L-6.6 -25.75 -9.75 -23.5 Q-10.65 -22.8 -11.35 -22.5 L3.95 -16.9 4.85 -16.1 6.95 -18.0 7.55 -18.6 Q7.8 -18.85 8.05 -18.9 L8.3 -19.05 9.1 -19.65 11.4 -21.05 11.5 -21.05 8.9 -23.55 8.55 -23.6 M17.5 -9.25 L19.35 -12.7 19.5 -12.75 20.45 -14.6 20.75 -15.1 20.75 -15.2 20.95 -15.6 21.15 -15.8 21.25 -16.1 21.4 -16.35 21.45 -16.5 19.2 -18.95 16.65 -21.3 15.55 -22.2 15.45 -22.0 14.3 -21.25 14.25 -21.2 13.9 -21.05 13.65 -20.9 12.9 -20.35 8.2 -17.55 6.6 -15.65 6.0 -15.05 5.65 -14.7 5.2 -14.25 5.05 -14.1 5.0 -14.05 5.1 -13.95 5.8 -13.35 6.55 -12.4 Q7.2 -12.95 8.4 -12.95 10.2 -13.05 11.3 -11.55 12.0 -10.75 12.0 -9.25 11.95 -8.2 11.5 -7.65 L13.7 -5.55 13.7 -5.45 13.75 -5.4 13.85 -5.5 13.9 -5.55 13.85 -5.6 14.05 -5.8 17.15 -8.5 17.5 -9.25 M3.2 -19.55 Q3.8 -20.15 4.35 -19.7 5.05 -19.2 4.25 -18.4 L3.85 -18.2 3.1 -18.35 Q2.55 -18.9 3.2 -19.55 M22.5 -9.95 L20.5 -12.15 19.75 -10.5 19.15 -9.3 18.85 -8.7 18.25 -8.5 16.3 -6.25 15.55 -5.5 16.95 -3.9 17.0 -3.85 20.0 4.45 22.15 10.2 25.5 7.45 26.05 7.1 28.05 6.5 29.55 6.4 29.55 6.25 27.6 1.25 26.15 -2.2 25.1 -4.75 Q24.05 -7.2 23.7 -8.45 L23.65 -8.8 22.5 -9.95 M18.2 -3.65 L18.35 -4.0 19.35 -4.1 Q19.9 -3.55 19.4 -3.05 L18.35 -3.0 Q18.15 -3.2 18.2 -3.65 M29.65 -2.7 L29.55 -2.6 29.4 -2.75 29.0 -2.65 28.5 -2.35 Q28.3 -2.15 28.8 -0.85 L29.4 0.75 30.05 2.3 30.8 3.65 31.2 3.65 31.45 3.5 31.9 3.15 Q32.05 3.0 31.05 0.3 L29.75 -2.4 29.65 -2.7 M31.2 -2.25 L31.65 -1.0 32.0 0.45 Q33.4 -0.95 35.05 -0.3 36.1 0.15 36.65 1.8 L36.7 1.85 37.05 0.9 Q38.2 -2.15 36.3 -2.95 L32.55 -2.8 31.2 -2.25 M22.65 5.9 L23.6 5.85 Q24.05 6.3 23.5 6.85 22.95 7.4 22.55 7.0 22.3 6.75 22.4 6.35 L22.65 5.9 M26.65 8.4 L27.55 13.7 32.75 13.0 31.75 7.3 30.15 7.6 30.2 7.65 26.65 8.4 M25.75 8.9 L22.4 12.05 23.4 16.85 26.7 14.35 25.75 8.9 M27.25 15.8 L27.05 15.9 26.35 16.45 24.0 18.45 24.45 25.8 24.4 27.25 24.55 27.4 25.05 27.6 24.7 27.85 24.3 28.05 24.95 28.95 25.35 29.85 30.35 27.8 30.35 27.6 30.4 27.25 30.55 26.5 30.7 17.45 30.65 14.9 29.35 14.9 28.35 15.1 Q27.95 15.3 27.25 15.8 M25.05 24.2 Q24.5 23.65 25.2 22.95 25.8 22.35 26.25 22.8 26.85 23.4 26.3 23.95 L25.8 24.25 25.05 24.2 M40.2 18.15 Q39.0 16.95 36.65 16.9 L35.15 16.8 35.1 18.25 34.95 19.7 Q36.75 18.8 38.0 20.05 38.85 20.9 38.7 22.65 L38.75 22.7 39.45 22.0 Q41.65 19.6 40.2 18.15 M33.7 15.75 Q33.4 15.45 32.7 15.75 32.45 16.0 32.4 19.05 32.4 21.95 32.65 22.2 L33.25 22.3 33.85 22.2 34.05 19.2 Q34.15 16.9 33.85 16.2 L33.9 15.9 33.8 15.95 33.7 15.75 M23.65 28.8 L23.45 28.7 Q22.8 28.15 22.1 28.45 L21.3 28.95 20.4 29.45 19.5 30.15 Q19.0 30.65 19.7 31.65 L20.95 33.1 21.3 32.85 21.35 32.8 22.25 32.5 22.45 32.5 22.95 32.4 Q23.9 32.25 24.5 32.75 L25.35 32.5 25.45 32.5 25.55 32.5 25.55 32.45 25.55 32.4 25.5 32.15 25.4 31.85 25.15 31.3 24.75 30.5 24.6 30.05 24.15 29.4 23.75 28.9 23.65 28.8 M25.45 30.2 L25.8 30.85 25.95 31.4 Q27.15 30.5 27.85 30.1 L28.0 30.0 29.9 28.65 25.45 30.2 M25.05 37.9 L24.05 35.1 23.5 33.55 23.35 33.2 22.65 33.2 22.6 33.25 21.8 33.45 22.65 34.6 23.65 36.0 25.1 38.0 25.15 38.1 25.05 37.9 M-24.3 -38.35 Q-22.45 -38.3 -21.55 -37.4 -20.25 -36.1 -21.15 -34.3 L-19.55 -34.4 -18.1 -34.35 -18.05 -35.9 Q-18.1 -38.25 -19.4 -39.55 -20.95 -41.1 -23.6 -39.05 L-24.35 -38.4 -24.45 -38.3 -24.3 -38.35 M-17.25 -32.3 Q-16.65 -32.9 -17.1 -33.35 L-18.9 -33.65 -20.9 -33.55 -22.65 -33.5 -24.25 -33.1 -24.4 -32.65 -24.15 -32.2 Q-24.0 -32.05 -23.25 -32.0 L-22.5 -31.95 -21.8 -32.05 -20.95 -32.1 -20.5 -32.15 -19.6 -32.15 -17.45 -32.3 -17.25 -32.3 M-27.3 -24.45 L-27.15 -24.3 -25.7 -24.35 -18.7 -23.95 -18.4 -24.25 -15.65 -27.0 -15.5 -27.15 -14.75 -27.6 Q-14.35 -28.0 -14.5 -28.65 L-14.8 -30.45 -14.85 -30.6 -17.35 -30.6 -27.0 -30.45 -27.5 -30.25 -27.75 -30.2 -29.8 -25.05 -29.95 -24.7 -29.2 -24.25 -28.25 -23.75 -27.95 -24.2 -27.75 -24.6 -27.5 -24.95 -27.3 -24.45 M-9.15 -25.9 L-13.45 -27.0 -17.5 -23.35 -13.8 -22.55 -9.15 -25.9 M-14.15 -33.0 L-13.55 -27.9 -9.5 -27.05 -9.45 -27.1 -9.15 -27.0 -8.6 -26.75 -8.6 -26.85 -7.6 -26.65 -8.45 -32.3 -14.15 -33.0 M-31.75 -25.3 L-30.4 -24.85 -30.3 -24.85 -28.55 -29.8 -29.95 -27.9 -30.0 -27.75 Q-30.5 -26.85 -31.75 -25.3 M-21.55 -25.4 L-21.75 -26.0 -21.5 -26.45 Q-20.95 -27.0 -20.3 -26.45 -19.7 -25.85 -20.2 -25.35 L-20.65 -25.1 Q-21.15 -25.0 -21.55 -25.4 M-28.35 -22.7 L-28.45 -22.8 -28.8 -23.05 -29.55 -23.6 -30.2 -23.95 -30.55 -24.1 -30.85 -24.2 -31.7 -24.55 -31.8 -24.55 -32.0 -24.6 -32.3 -23.55 Q-32.0 -23.15 -32.0 -22.65 L-32.0 -21.95 -32.05 -21.5 -32.2 -20.95 -32.4 -20.35 -32.65 -20.0 -31.2 -18.75 Q-30.2 -18.05 -29.7 -18.55 L-29.0 -19.45 -28.5 -20.35 Q-28.1 -20.7 -28.0 -21.15 -27.7 -21.95 -28.35 -22.7 M-38.0 -25.05 L-35.95 -23.6 -32.85 -21.3 -32.75 -21.7 -32.75 -22.3 -32.9 -23.0 -32.95 -23.1 -33.05 -23.2 -33.45 -23.4 -35.0 -23.95 -38.0 -25.05 M-5.95 -23.9 L-4.9 -23.95 Q-4.3 -23.45 -4.8 -22.95 L-5.3 -22.65 -6.1 -22.75 -6.2 -23.35 -5.95 -23.9" fill="#000000" fill-rule="evenodd" stroke="none"/>
    <path d="M2.9 -32.45 L2.35 -31.1 1.1 -31.55 -0.35 -31.9 Q1.05 -33.3 0.4 -34.95 -0.1 -36.05 -1.7 -36.55 L-1.75 -36.6 -0.85 -36.95 Q2.25 -38.1 3.0 -36.25 3.65 -34.7 2.9 -32.45" fill="url(#gradient0)" fill-rule="evenodd" stroke="none"/>
    <path d="M2.6 -28.55 L2.45 -28.4 Q2.2 -28.25 0.35 -28.9 L-0.65 -29.3 -2.85 -30.2 -3.55 -30.7 -3.55 -31.1 -3.4 -31.35 -3.1 -31.8 Q-2.9 -31.95 -0.2 -30.95 1.9 -30.15 2.5 -29.65 L2.8 -29.55 2.7 -29.45 2.85 -29.3 2.6 -28.55" fill="url(#gradient1)" fill-rule="evenodd" stroke="none"/>
    <path d="M-6.6 -25.75 L-6.55 -25.8 Q-6.0 -26.35 -6.3 -29.05 L-6.35 -29.5 -6.2 -29.45 -1.15 -27.5 2.25 -26.05 4.85 -25.0 Q7.3 -23.95 8.55 -23.6 L7.9 -20.85 -6.6 -25.75" fill="url(#gradient2)" fill-rule="evenodd" stroke="none"/>
    <path d="M17.5 -9.25 L17.15 -8.5 14.05 -5.8 14.6 -6.45 14.85 -6.7 16.6 -8.05 16.7 -8.15 16.65 -8.2 17.0 -9.15 14.2 -12.15 13.9 -21.05 14.25 -21.2 14.3 -21.25 15.45 -22.0 15.55 -22.2 16.65 -21.3 17.5 -9.25" fill="#f1f1f1" fill-rule="evenodd" stroke="none"/>
    <path d="M7.9 -20.85 L8.55 -23.6 8.9 -23.55 11.5 -21.05 11.4 -21.05 9.1 -19.65 7.9 -20.85 M16.65 -21.3 L19.2 -18.95 21.45 -16.5 21.4 -16.35 21.25 -16.1 21.15 -15.8 20.95 -15.6 20.75 -15.2 20.75 -15.1 20.45 -14.6 19.5 -12.75 19.35 -12.7 17.5 -9.25 16.65 -21.3 M6.6 -15.65 L8.2 -17.55 12.9 -20.35 13.65 -20.9 13.9 -21.05 14.2 -12.15 8.8 -17.15 7.95 -16.7 7.8 -16.85 7.6 -16.55 7.5 -16.45 6.6 -15.65 M22.5 -9.95 L23.65 -8.8 23.7 -8.45 22.3 -8.15 22.5 -9.95" fill="url(#gradient3)" fill-rule="evenodd" stroke="none"/>
    <path d="M9.1 -19.65 L8.3 -19.05 8.05 -18.9 Q7.8 -18.85 7.55 -18.6 L6.95 -18.0 4.85 -16.1 3.95 -16.9 7.9 -20.85 9.1 -19.65 M14.05 -5.8 L13.85 -5.6 13.8 -5.55 13.85 -5.5 13.75 -5.4 13.7 -5.45 13.7 -5.55 11.5 -7.65 Q11.95 -8.2 12.0 -9.25 12.0 -10.75 11.3 -11.55 10.2 -13.05 8.4 -12.95 7.2 -12.95 6.55 -12.4 L5.8 -13.35 5.1 -13.95 5.0 -14.05 5.05 -14.1 5.2 -14.25 5.65 -14.7 6.0 -15.05 6.6 -15.65 7.5 -16.45 7.6 -16.55 7.8 -16.85 7.95 -16.7 8.8 -17.15 14.2 -12.15 17.0 -9.15 16.65 -8.2 16.7 -8.15 16.6 -8.05 14.85 -6.7 14.6 -6.45 14.05 -5.8" fill="url(#gradient4)" fill-rule="evenodd" stroke="none"/>
    <path d="M-6.6 -25.75 L7.9 -20.85 3.95 -16.9 -11.35 -22.5 Q-10.65 -22.8 -9.75 -23.5 L-6.6 -25.75 M3.2 -19.55 Q2.55 -18.9 3.1 -18.35 L3.85 -18.2 4.25 -18.4 Q5.05 -19.2 4.35 -19.7 3.8 -20.15 3.2 -19.55 M-5.95 -23.9 L-6.2 -23.35 -6.1 -22.75 -5.3 -22.65 -4.8 -22.95 Q-4.3 -23.45 -4.9 -23.95 L-5.95 -23.9" fill="url(#gradient5)" fill-rule="evenodd" stroke="none"/>
    <path d="M19.15 -9.3 L19.75 -10.5 20.5 -12.15 22.5 -9.95 22.3 -8.15 22.0 -4.75 20.95 -7.8 20.8 -7.75 19.15 -9.3 M20.95 -7.8 L20.9 -7.85 20.8 -7.85 20.95 -7.8" fill="#969793" fill-rule="evenodd" stroke="none"/>
    <path d="M20.0 4.45 L17.0 -3.85 16.95 -3.9 15.55 -5.5 16.3 -6.25 18.25 -8.5 18.85 -8.7 19.15 -9.3 20.8 -7.75 20.95 -7.8 22.0 -4.75 22.25 -4.1 20.0 4.45 M18.2 -3.65 Q18.15 -3.2 18.35 -3.0 L19.4 -3.05 Q19.9 -3.55 19.35 -4.1 L18.35 -4.0 18.2 -3.65" fill="#787975" fill-rule="evenodd" stroke="none"/>
    <path d="M23.7 -8.45 Q24.05 -7.2 25.1 -4.75 L26.15 -2.2 27.6 1.25 29.55 6.25 29.55 6.4 28.05 6.5 26.05 7.1 22.25 -4.1 22.0 -4.75 22.3 -8.15 23.7 -8.45" fill="url(#gradient6)" fill-rule="evenodd" stroke="none"/>
    <path d="M29.65 -2.7 L29.75 -2.4 31.05 0.3 Q32.05 3.0 31.9 3.15 L31.45 3.5 31.2 3.65 30.8 3.65 30.05 2.3 29.4 0.75 28.8 -0.85 Q28.3 -2.15 28.5 -2.35 L29.0 -2.65 29.4 -2.75 29.55 -2.6 29.65 -2.7" fill="url(#gradient7)" fill-rule="evenodd" stroke="none"/>
    <path d="M31.2 -2.25 L32.55 -2.8 36.3 -2.95 Q38.2 -2.15 37.05 0.9 L36.7 1.85 36.65 1.8 Q36.1 0.15 35.05 -0.3 33.4 -0.95 32.0 0.45 L31.65 -1.0 31.2 -2.25" fill="url(#gradient8)" fill-rule="evenodd" stroke="none"/>
    <path d="M26.05 7.1 L25.5 7.45 22.15 10.2 20.0 4.45 22.25 -4.1 26.05 7.1 M22.65 5.9 L22.4 6.35 Q22.3 6.75 22.55 7.0 22.95 7.4 23.5 6.85 24.05 6.3 23.6 5.85 L22.65 5.9 M26.65 8.4 L30.2 7.65 30.15 7.6 31.75 7.3 32.75 13.0 27.55 13.7 26.65 8.4 M25.75 8.9 L26.7 14.35 23.4 16.85 22.4 12.05 25.75 8.9 M-14.15 -33.0 L-8.45 -32.3 -7.6 -26.65 -8.6 -26.85 -8.6 -26.75 -9.15 -27.0 -9.45 -27.1 -9.5 -27.05 -13.55 -27.9 -14.15 -33.0 M-9.15 -25.9 L-13.8 -22.55 -17.5 -23.35 -13.45 -27.0 -9.15 -25.9" fill="url(#gradient9)" fill-rule="evenodd" stroke="none"/>
    <path d="M24.55 27.4 L24.4 27.25 24.45 25.8 24.0 18.45 26.35 16.45 27.05 15.9 27.25 15.8 27.25 27.85 27.0 27.85 25.0 27.55 24.55 27.4 M25.05 24.2 L25.8 24.25 26.3 23.95 Q26.85 23.4 26.25 22.8 25.8 22.35 25.2 22.95 24.5 23.65 25.05 24.2" fill="url(#gradient10)" fill-rule="evenodd" stroke="none"/>
    <path d="M27.25 27.85 L27.25 15.8 Q27.95 15.3 28.35 15.1 L29.35 14.9 30.65 14.9 30.7 17.45 30.55 26.5 30.4 27.25 30.35 27.6 27.25 27.85 M33.7 15.75 L33.8 15.95 33.9 15.9 33.85 16.2 Q34.15 16.9 34.05 19.2 L33.85 22.2 33.25 22.3 32.65 22.2 Q32.4 21.95 32.4 19.05 32.45 16.0 32.7 15.75 33.4 15.45 33.7 15.75" fill="url(#gradient11)" fill-rule="evenodd" stroke="none"/>
    <path d="M40.2 18.15 Q41.65 19.6 39.45 22.0 L38.75 22.7 38.7 22.65 Q38.85 20.9 38.0 20.05 36.75 18.8 34.95 19.7 L35.1 18.25 35.15 16.8 36.65 16.9 Q39.0 16.95 40.2 18.15 M-24.35 -38.4 L-23.6 -39.05 Q-20.95 -41.1 -19.4 -39.55 -18.1 -38.25 -18.05 -35.9 L-18.1 -34.35 -19.55 -34.4 -21.15 -34.3 Q-20.25 -36.1 -21.55 -37.4 -22.45 -38.3 -24.3 -38.35 L-24.35 -38.4 M-17.25 -32.3 L-17.45 -32.3 -19.6 -32.15 -20.5 -32.15 -20.95 -32.1 -21.8 -32.05 -22.5 -31.95 -23.25 -32.0 Q-24.0 -32.05 -24.15 -32.2 L-24.4 -32.65 -24.25 -33.1 -22.65 -33.5 -20.9 -33.55 -18.9 -33.65 -17.1 -33.35 Q-16.65 -32.9 -17.25 -32.3 M-15.5 -27.15 L-27.8 -27.15 -27.5 -30.25 -27.0 -30.45 -17.35 -30.6 -14.85 -30.6 -14.8 -30.45 -14.5 -28.65 Q-14.35 -28.0 -14.75 -27.6 L-15.5 -27.15" fill="url(#gradient12)" fill-rule="evenodd" stroke="none"/>
    <path d="M21.3 32.85 L20.95 33.1 19.7 31.65 Q19.0 30.65 19.5 30.15 L20.4 29.45 21.3 28.95 22.1 28.45 Q22.8 28.15 23.45 28.7 L23.65 28.8 Q22.65 29.1 21.8 29.95 21.45 30.3 21.25 30.8 L21.15 31.3 21.15 31.9 21.25 32.6 21.3 32.85 M-28.35 -22.7 Q-27.7 -21.95 -28.0 -21.15 -28.1 -20.7 -28.5 -20.35 L-29.0 -19.45 -29.7 -18.55 Q-30.2 -18.05 -31.2 -18.75 L-32.65 -20.0 -32.4 -20.35 -31.45 -20.2 -31.2 -20.15 -30.2 -20.35 -29.5 -20.85 Q-28.65 -21.7 -28.35 -22.7" fill="#444444" fill-rule="evenodd" stroke="none"/>
    <path d="M25.45 30.2 L29.9 28.65 28.0 30.0 27.85 30.1 Q27.15 30.5 25.95 31.4 L25.8 30.85 25.45 30.2 M22.6 33.25 L25.05 37.9 25.15 38.1 25.1 38.0 23.65 36.0 22.65 34.6 21.8 33.45 22.6 33.25 M-27.8 -26.95 L-27.45 -24.9 -27.5 -24.95 -27.75 -24.6 -27.95 -24.2 -28.25 -23.75 -29.2 -24.25 -27.8 -26.95 M-32.75 -22.3 L-32.75 -21.7 -32.85 -21.3 -35.95 -23.6 -38.0 -25.05 -32.75 -22.3" fill="#a2a2a2" fill-rule="evenodd" stroke="none"/>
    <path d="M25.0 27.55 L27.0 27.85 27.05 27.9 24.95 28.95 24.3 28.05 24.7 27.85 25.05 27.6 25.0 27.55" fill="url(#gradient13)" fill-rule="evenodd" stroke="none"/>
    <path d="M30.35 27.6 L30.35 27.8 25.35 29.85 24.95 28.95 27.05 27.9 27.25 27.85 30.35 27.6 M22.6 33.25 L22.65 33.2 23.35 33.2 23.5 33.55 24.05 35.1 25.05 37.9 22.6 33.25 M-27.8 -27.15 L-27.8 -26.95 -29.2 -24.25 -29.95 -24.7 -29.8 -25.05 -27.75 -30.2 -27.5 -30.25 -27.8 -27.15 M-38.0 -25.05 L-35.0 -23.95 -33.45 -23.4 -33.05 -23.2 -32.95 -23.1 -32.9 -23.0 -32.75 -22.3 -38.0 -25.05" fill="#b3b3b3" fill-rule="evenodd" stroke="none"/>
    <path d="M21.3 32.85 L21.25 32.6 21.15 31.9 21.15 31.3 21.25 30.8 Q21.45 30.3 21.8 29.95 22.65 29.1 23.65 28.8 L23.75 28.9 24.15 29.4 24.6 30.05 24.75 30.5 25.15 31.3 25.4 31.85 25.5 32.15 25.55 32.4 25.55 32.45 25.55 32.5 25.45 32.5 25.35 32.5 24.5 32.75 Q23.9 32.25 22.95 32.4 L22.45 32.5 22.25 32.5 21.35 32.8 21.3 32.85 M-32.4 -20.35 L-32.2 -20.95 -32.05 -21.5 -32.0 -21.95 -32.0 -22.65 Q-32.0 -23.15 -32.3 -23.55 L-32.0 -24.6 -31.8 -24.55 -31.7 -24.55 -30.85 -24.2 -30.55 -24.1 -30.2 -23.95 -29.55 -23.6 -28.8 -23.05 -28.45 -22.8 -28.35 -22.7 Q-28.65 -21.7 -29.5 -20.85 L-30.2 -20.35 -31.2 -20.15 -31.45 -20.2 -32.4 -20.35" fill="#5a5a58" fill-rule="evenodd" stroke="none"/>
    <path d="M-15.5 -27.15 L-15.65 -27.0 -18.4 -24.25 -18.7 -23.95 -25.7 -24.35 -27.15 -24.3 -27.3 -24.45 -27.45 -24.9 -27.8 -26.95 -27.8 -27.15 -15.5 -27.15 M-21.55 -25.4 Q-21.15 -25.0 -20.65 -25.1 L-20.2 -25.35 Q-19.7 -25.85 -20.3 -26.45 -20.95 -27.0 -21.5 -26.45 L-21.75 -26.0 -21.55 -25.4" fill="url(#gradient14)" fill-rule="evenodd" stroke="none"/>
    <path d="M-31.75 -25.3 Q-30.5 -26.85 -30.0 -27.75 L-29.95 -27.9 -28.55 -29.8 -30.3 -24.85 -30.4 -24.85 -31.75 -25.3" fill="#d9d9d9" fill-rule="evenodd" stroke="none"/>
  </g>
  <defs>
    <linearGradient gradientTransform="matrix(-0.0029, 0.0128, -0.0037, -8.0E-4, 29.1, 25.05)" gradientUnits="userSpaceOnUse" id="gradient0" spreadMethod="pad" x1="-819.2" x2="819.2">
      <stop offset="0.0" stop-color="#969794"/>
      <stop offset="1.0" stop-color="#cfcfce"/>
    </linearGradient>
    <linearGradient gradientTransform="matrix(0.0134, 0.0076, -0.0018, 0.0031, -7.1, -29.55)" gradientUnits="userSpaceOnUse" id="gradient1" spreadMethod="pad" x1="-819.2" x2="819.2">
      <stop offset="0.0" stop-color="#969794"/>
      <stop offset="1.0" stop-color="#cfcfce"/>
    </linearGradient>
    <linearGradient gradientTransform="matrix(-0.0099, -0.0046, -0.0013, 0.0028, 3.7, -24.15)" gradientUnits="userSpaceOnUse" id="gradient2" spreadMethod="pad" x1="-819.2" x2="819.2">
      <stop offset="0.0" stop-color="#969794"/>
      <stop offset="1.0" stop-color="#cfcfce"/>
    </linearGradient>
    <linearGradient gradientTransform="matrix(-0.0088, -0.0118, -0.0026, 0.0019, 20.15, -9.8)" gradientUnits="userSpaceOnUse" id="gradient3" spreadMethod="pad" x1="-819.2" x2="819.2">
      <stop offset="0.0" stop-color="#969794"/>
      <stop offset="1.0" stop-color="#cfcfce"/>
    </linearGradient>
    <linearGradient gradientTransform="matrix(-0.0051, 0.0055, 0.0084, 0.0078, 11.15, -9.7)" gradientUnits="userSpaceOnUse" id="gradient4" spreadMethod="pad" x1="-819.2" x2="819.2">
      <stop offset="0.0" stop-color="#969794"/>
      <stop offset="1.0" stop-color="#cfcfce"/>
    </linearGradient>
    <linearGradient gradientTransform="matrix(-0.0023, 0.006, 0.0121, 0.0048, -5.7, -18.35)" gradientUnits="userSpaceOnUse" id="gradient5" spreadMethod="pad" x1="-819.2" x2="819.2">
      <stop offset="0.0" stop-color="#969794"/>
      <stop offset="1.0" stop-color="#cfcfce"/>
    </linearGradient>
    <linearGradient gradientTransform="matrix(-0.002, -0.0118, -0.004, 7.0E-4, 25.8, 1.55)" gradientUnits="userSpaceOnUse" id="gradient6" spreadMethod="pad" x1="-819.2" x2="819.2">
      <stop offset="0.0" stop-color="#969794"/>
      <stop offset="1.0" stop-color="#cfcfce"/>
    </linearGradient>
    <linearGradient gradientTransform="matrix(-0.0076, -0.0134, -0.0031, 0.0018, 29.65, 7.2)" gradientUnits="userSpaceOnUse" id="gradient7" spreadMethod="pad" x1="-819.2" x2="819.2">
      <stop offset="0.0" stop-color="#969794"/>
      <stop offset="1.0" stop-color="#cfcfce"/>
    </linearGradient>
    <linearGradient gradientTransform="matrix(-0.0128, 0.0029, 8.0E-4, 0.0037, -24.95, -29.0)" gradientUnits="userSpaceOnUse" id="gradient8" spreadMethod="pad" x1="-819.2" x2="819.2">
      <stop offset="0.0" stop-color="#969794"/>
      <stop offset="1.0" stop-color="#cfcfce"/>
    </linearGradient>
    <linearGradient gradientTransform="matrix(-0.0046, 0.0018, 0.0038, 0.01, 20.05, 6.9)" gradientUnits="userSpaceOnUse" id="gradient9" spreadMethod="pad" x1="-819.2" x2="819.2">
      <stop offset="0.0" stop-color="#969794"/>
      <stop offset="1.0" stop-color="#cfcfce"/>
    </linearGradient>
    <linearGradient gradientTransform="matrix(-0.0042, 6.0E-4, 0.001, 0.007, 22.35, 23.7)" gradientUnits="userSpaceOnUse" id="gradient10" spreadMethod="pad" x1="-819.2" x2="819.2">
      <stop offset="0.0" stop-color="#969794"/>
      <stop offset="1.0" stop-color="#cfcfce"/>
    </linearGradient>
    <linearGradient gradientTransform="matrix(-0.0022, -0.0153, -0.0035, 5.0E-4, 30.25, 25.1)" gradientUnits="userSpaceOnUse" id="gradient11" spreadMethod="pad" x1="-819.2" x2="819.2">
      <stop offset="0.0" stop-color="#969794"/>
      <stop offset="1.0" stop-color="#cfcfce"/>
    </linearGradient>
    <linearGradient gradientTransform="matrix(-0.013, -0.0021, -6.0E-4, 0.0037, -7.25, -28.7)" gradientUnits="userSpaceOnUse" id="gradient12" spreadMethod="pad" x1="-819.2" x2="819.2">
      <stop offset="0.0" stop-color="#969794"/>
      <stop offset="1.0" stop-color="#cfcfce"/>
    </linearGradient>
    <linearGradient gradientTransform="matrix(-0.0019, -1.0E-4, -1.0E-4, 0.0021, 22.8, 29.15)" gradientUnits="userSpaceOnUse" id="gradient13" spreadMethod="pad" x1="-819.2" x2="819.2">
      <stop offset="0.0" stop-color="#969794"/>
      <stop offset="1.0" stop-color="#cfcfce"/>
    </linearGradient>
    <linearGradient gradientTransform="matrix(-8.0E-4, 0.0047, 0.0087, 0.0015, -21.8, -22.75)" gradientUnits="userSpaceOnUse" id="gradient14" spreadMethod="pad" x1="-819.2" x2="819.2">
      <stop offset="0.0" stop-color="#969794"/>
      <stop offset="1.0" stop-color="#cfcfce"/>
    </linearGradient>
  </defs>
</svg>
