<?xml version="1.0" encoding="UTF-8" standalone="no"?>
<svg xmlns:ffdec="https://www.free-decompiler.com/flash" xmlns:xlink="http://www.w3.org/1999/xlink" ffdec:objectType="shape" height="71.0px" width="70.8px" xmlns="http://www.w3.org/2000/svg">
  <g transform="matrix(1.0, 0.0, 0.0, 1.0, 29.3, 39.4)">
    <path d="M23.35 -28.35 L23.45 -28.55 37.35 -35.85 25.85 -23.7 23.35 -28.35" fill="#fdfcff" fill-rule="evenodd" stroke="none"/>
    <path d="M37.35 -35.85 L23.45 -28.55 23.35 -28.35 22.65 -22.75 22.25 -22.25 -12.6 13.3 -16.55 13.05 -19.95 16.55 -24.45 21.25 -19.9 21.8 -19.9 22.0 -19.3 27.2 -13.75 21.35 -10.7 18.2 -10.85 14.85 -10.85 14.65 23.95 -20.55 24.35 -21.05 29.5 -21.4 29.45 -21.55 37.35 -35.85 M25.05 -19.15 L-8.9 14.9 -8.85 19.25 -20.3 31.6 -21.55 23.45 -21.5 23.4 -29.3 23.2 -17.15 11.25 -12.55 10.95 21.3 -23.8 21.4 -30.2 41.5 -39.4 31.0 -18.8 25.3 -19.2 25.05 -19.15" fill="#000000" fill-rule="evenodd" stroke="none"/>
    <path d="M24.35 -21.05 L23.95 -20.55 -10.85 14.65 -11.0 14.8 -14.35 17.55 -19.9 22.0 -19.9 21.8 -15.55 16.65 -13.35 14.05 -12.55 13.35 -12.5 13.3 -12.6 13.3 22.25 -22.25 22.65 -22.75 23.0 -21.2 24.35 -21.05 M16.7 -16.5 L16.75 -16.45 16.85 -16.55 16.7 -16.5" fill="#4a76b5" fill-rule="evenodd" stroke="none"/>
    <path d="M23.35 -28.35 L25.85 -23.7 26.0 -23.55 29.45 -21.55 29.5 -21.4 24.35 -21.05 23.0 -21.2 22.65 -22.75 23.35 -28.35" fill="#41669c" fill-rule="evenodd" stroke="none"/>
    <path d="M25.85 -23.7 L37.35 -35.85 29.45 -21.55 26.0 -23.55 25.85 -23.7 M-13.75 21.35 L-19.3 27.2 -19.9 22.0 -14.35 17.55 -13.75 21.35 M-19.9 21.8 L-24.45 21.25 -19.95 16.55 -15.55 16.65 -19.9 21.8" fill="#8ca8d0" fill-rule="evenodd" stroke="none"/>
    <path d="M-10.85 14.65 L-10.85 14.85 -11.0 14.8 -10.85 14.65 M-12.55 13.35 L-12.6 13.3 -12.5 13.3 -12.55 13.35" fill="#ff0900" fill-rule="evenodd" stroke="none"/>
    <path d="M-10.85 14.85 L-10.7 18.2 -13.75 21.35 -14.35 17.55 -11.0 14.8 -10.85 14.85 M-19.95 16.55 L-16.55 13.05 -12.6 13.3 -12.55 13.35 -13.35 14.05 -15.55 16.65 -19.95 16.55" fill="#edf3f8" fill-rule="evenodd" stroke="none"/>
  </g>
</svg>
