<?xml version="1.0" encoding="UTF-8" standalone="no"?>
<svg xmlns:ffdec="https://www.free-decompiler.com/flash" xmlns:xlink="http://www.w3.org/1999/xlink" ffdec:objectType="shape" height="81.2px" width="72.95px" xmlns="http://www.w3.org/2000/svg">
  <g transform="matrix(1.0, 0.0, 0.0, 1.0, 32.0, 49.0)">
    <path d="M-15.95 22.0 L-15.4 21.15 Q-11.0 22.25 -1.45 25.7 L-1.25 25.5 -1.05 25.6 0.2 26.05 0.3 26.15 0.5 25.95 11.1 29.05 Q12.3 29.85 16.9 31.05 L16.5 31.75 16.45 32.2 15.75 32.1 1.2 27.85 1.0 27.85 -8.8 24.85 Q-14.0 23.05 -15.95 22.0 M-30.65 -17.6 L-30.05 -15.7 -25.45 0.0 -25.75 0.1 -25.55 0.3 -25.0 1.75 -25.15 1.9 Q-21.75 11.5 -20.7 15.85 L-21.55 16.4 Q-22.55 14.5 -24.4 9.25 L-31.8 -15.75 -31.9 -16.75 -32.0 -17.25 -31.25 -17.4 -30.65 -17.6" fill="#000000" fill-rule="evenodd" stroke="none"/>
    <path d="M23.1 -36.95 L22.9 -37.05 22.6 -31.85 22.1 -31.45 -1.1 -8.55 -2.25 -9.7 20.7 -32.55 20.75 -32.8 20.3 -38.55 40.95 -49.0 31.75 -28.9 25.35 -28.8 1.7 -5.75 0.55 -6.9 23.8 -29.75 24.3 -30.15 29.9 -30.85 30.1 -30.95 37.4 -44.85 23.1 -36.95" fill="#000000" fill-rule="evenodd" stroke="none"/>
    <path d="M22.6 -31.85 L22.9 -37.05 23.1 -36.95 25.1 -33.55 25.25 -33.4 29.9 -30.85 24.3 -30.15 22.9 -30.45 22.75 -30.5 22.6 -31.85" fill="#ff6600" fill-rule="evenodd" stroke="none"/>
    <path d="M23.1 -36.95 L37.4 -44.85 25.25 -33.4 25.1 -33.55 23.1 -36.95 M-1.1 -8.55 L22.1 -31.45 22.6 -31.85 22.75 -30.5 22.85 -30.4 -0.25 -7.7 -1.1 -8.55" fill="#ffcc00" fill-rule="evenodd" stroke="none"/>
    <path d="M24.3 -30.15 L23.8 -29.75 0.55 -6.9 -0.25 -7.7 22.85 -30.4 22.75 -30.5 22.9 -30.45 24.3 -30.15 M18.05 -24.2 L18.1 -24.35 18.0 -24.25 18.05 -24.2" fill="#ffffff" fill-rule="evenodd" stroke="none"/>
    <path d="M37.4 -44.85 L30.1 -30.95 29.9 -30.85 25.25 -33.4 37.4 -44.85" fill="#fdfcff" fill-rule="evenodd" stroke="none"/>
  </g>
</svg>
