<?xml version="1.0" encoding="UTF-8" standalone="no"?>
<svg xmlns:ffdec="https://www.free-decompiler.com/flash" xmlns:xlink="http://www.w3.org/1999/xlink" ffdec:objectType="shape" height="44.25px" width="44.15px" xmlns="http://www.w3.org/2000/svg">
  <g transform="matrix(1.0, 0.0, 0.0, 1.0, -4.25, 41.55)">
    <path d="M30.55 -29.5 L32.55 -26.1 32.7 -25.95 37.35 -23.4 31.75 -22.7 30.35 -23.0 30.2 -23.05 30.05 -24.4 30.4 -29.55 30.55 -29.5" fill="#ff6600" fill-rule="evenodd" stroke="none"/>
    <path d="M32.7 -25.95 L32.55 -26.1 30.55 -29.5 44.85 -37.4 32.7 -25.95 M30.05 -24.4 L30.2 -23.05 30.3 -22.95 6.2 0.75 5.35 -0.1 29.55 -24.0 30.05 -24.4" fill="#ffcc00" fill-rule="evenodd" stroke="none"/>
    <path d="M30.55 -29.5 L30.4 -29.55 30.05 -24.4 29.55 -24.0 5.35 -0.1 4.25 -1.2 28.15 -25.1 28.2 -25.35 27.8 -31.05 48.4 -41.55 39.2 -21.45 32.8 -21.35 8.15 2.7 6.95 1.5 31.25 -22.3 31.75 -22.7 37.35 -23.4 37.6 -23.45 44.85 -37.4 30.55 -29.5" fill="#000000" fill-rule="evenodd" stroke="none"/>
    <path d="M37.35 -23.4 L32.7 -25.95 44.85 -37.4 37.6 -23.45 37.35 -23.4" fill="#fdfcff" fill-rule="evenodd" stroke="none"/>
    <path d="M30.2 -23.05 L30.35 -23.0 31.75 -22.7 31.25 -22.3 6.95 1.5 6.2 0.75 30.3 -22.95 30.2 -23.05 M25.45 -16.8 L25.5 -16.75 25.55 -16.9 25.45 -16.8" fill="#ffffff" fill-rule="evenodd" stroke="none"/>
  </g>
</svg>
