<?xml version="1.0" encoding="UTF-8" standalone="no"?>
<svg xmlns:ffdec="https://www.free-decompiler.com/flash" xmlns:xlink="http://www.w3.org/1999/xlink" ffdec:objectType="shape" height="42.35px" width="43.1px" xmlns="http://www.w3.org/2000/svg">
  <g transform="matrix(1.0, 0.0, 0.0, 1.0, 20.05, 19.05)">
    <path d="M18.2 -17.8 L19.55 -17.55 20.25 -17.5 Q21.65 -17.55 21.55 -17.0 L21.55 -16.95 Q21.9 -16.35 21.9 -14.45 L22.0 -8.3 22.25 -2.7 22.5 -1.05 Q22.8 1.75 22.6 3.1 L23.05 4.0 22.5 4.55 22.2 5.05 21.65 5.35 4.65 22.35 3.9 22.8 3.8 23.05 3.55 23.05 3.3 23.15 3.0 23.15 2.75 23.3 2.65 23.3 2.6 23.25 2.6 23.15 1.8 23.1 -7.2 23.0 -17.85 22.35 Q-18.1 22.15 -18.0 21.7 L-17.95 21.7 -19.95 1.5 -20.0 1.5 Q-20.15 1.2 -19.75 0.8 L-19.65 0.6 -19.55 0.15 -19.3 0.15 -18.4 -0.8 -16.7 -2.7 -12.9 -6.45 -0.9 -18.55 Q-0.55 -19.05 -0.05 -19.05 0.4 -19.15 0.4 -18.5 L5.45 -18.45 10.25 -18.2 11.8 -18.4 12.3 -18.15 15.15 -18.05 18.2 -17.8" fill="#ffffff" fill-rule="evenodd" stroke="none"/>
  </g>
</svg>
