<?xml version="1.0" encoding="UTF-8" standalone="no"?>
<svg xmlns:ffdec="https://www.free-decompiler.com/flash" xmlns:xlink="http://www.w3.org/1999/xlink" ffdec:objectType="shape" height="39.4px" width="117.5px" xmlns="http://www.w3.org/2000/svg">
  <g transform="matrix(1.0, 0.0, 0.0, 1.0, 58.75, 19.2)">
    <path d="M51.75 -18.2 Q57.75 -18.2 57.75 -9.7 L57.75 10.7 Q57.75 19.2 51.75 19.2 L-51.75 19.2 Q-57.75 19.2 -57.75 10.7 L-57.75 -9.7 Q-57.75 -18.2 -51.75 -18.2 L51.75 -18.2" fill="url(#gradient0)" fill-rule="evenodd" stroke="none"/>
    <path d="M51.75 -18.2 L-51.75 -18.2 Q-57.75 -18.2 -57.75 -9.7 L-57.75 10.7 Q-57.75 19.2 -51.75 19.2 L51.75 19.2 Q57.75 19.2 57.75 10.7 L57.75 -9.7 Q57.75 -18.2 51.75 -18.2 Z" fill="none" stroke="#000000" stroke-linecap="square" stroke-linejoin="round" stroke-width="1.5"/>
  </g>
  <defs>
    <linearGradient gradientTransform="matrix(0.0, 0.0181, -0.0705, 0.0, 0.0, 4.0)" gradientUnits="userSpaceOnUse" id="gradient0" spreadMethod="pad" x1="-819.2" x2="819.2">
      <stop offset="0.0" stop-color="#00bb06"/>
      <stop offset="0.4627450980392157" stop-color="#1c7900"/>
    </linearGradient>
  </defs>
</svg>
