<?xml version="1.0" encoding="UTF-8" standalone="no"?>
<svg xmlns:ffdec="https://www.free-decompiler.com/flash" xmlns:xlink="http://www.w3.org/1999/xlink" ffdec:objectType="shape" height="29.35px" width="21.7px" xmlns="http://www.w3.org/2000/svg">
  <g transform="matrix(1.0, 0.0, 0.0, 1.0, 11.2, 17.0)">
    <path d="M3.05 10.35 L1.0 11.8 0.5 11.95 -0.05 12.15 -2.15 12.3 Q-3.2 12.05 -3.95 11.5 -4.75 10.95 -4.95 9.95 -5.25 8.95 -4.75 7.95 -4.4 6.85 -3.5 6.05 -2.65 5.2 -1.55 4.75 -0.45 4.25 0.8 4.15 L3.05 4.65 Q4.0 5.1 4.35 6.25 4.6 7.35 4.25 8.45 L3.05 10.35 M5.05 -16.8 Q6.85 -16.55 8.2 -15.45 9.55 -14.35 10.2 -12.35 10.85 -9.8 10.0 -7.45 9.05 -5.1 6.25 -3.25 L5.0 -2.5 Q4.45 -2.2 3.85 -1.7 3.0 -1.1 2.65 -0.15 2.35 0.85 2.55 1.7 L-5.4 3.6 -5.5 3.4 -5.5 3.25 -5.6 2.1 -5.45 0.95 Q-5.1 -0.3 -4.15 -1.25 L-2.2 -3.0 -0.15 -4.55 Q0.6 -5.15 0.85 -5.85 1.3 -6.6 1.1 -7.4 0.85 -8.25 0.05 -8.35 L-1.7 -8.0 Q-3.05 -7.35 -3.65 -6.3 -4.35 -5.15 -4.2 -3.7 -7.55 -2.2 -10.95 -0.75 -11.5 -3.6 -10.85 -6.4 -10.15 -9.25 -8.25 -11.6 -6.35 -13.95 -3.1 -15.55 -1.1 -16.45 1.0 -16.85 3.0 -17.2 5.05 -16.8" fill="#000000" fill-rule="evenodd" stroke="none"/>
  </g>
</svg>
