<?xml version="1.0" encoding="UTF-8" standalone="no"?>
<svg xmlns:ffdec="https://www.free-decompiler.com/flash" xmlns:xlink="http://www.w3.org/1999/xlink" ffdec:objectType="shape" height="335.75px" width="130.65px" xmlns="http://www.w3.org/2000/svg">
  <g transform="matrix(1.0, 0.0, 0.0, 1.0, 65.55, 390.75)">
    <path d="M33.0 -181.65 L23.75 -186.55 Q17.4 -189.8 14.65 -191.75 L14.65 -191.3 14.4 -190.8 -3.05 -202.6 Q-20.7 -214.2 -30.65 -223.1 -54.6 -244.55 -61.2 -272.1 -57.2 -261.55 -50.7 -252.75 -47.15 -247.85 -41.1 -241.8 L-37.4 -238.25 Q-29.4 -229.65 -19.15 -221.6 -6.85 -211.95 15.6 -198.15 39.4 -183.45 46.8 -177.95 43.5 -180.25 38.3 -182.6 L28.85 -186.75 33.0 -181.65" fill="#ffffff" fill-opacity="0.7058824" fill-rule="evenodd" stroke="none"/>
    <path d="M-61.6 -90.25 L-61.9 -91.25 -61.9 -90.8 -61.6 -90.25 M51.6 -266.7 Q37.7 -245.5 11.85 -219.75 L-14.6 -193.1 Q-30.45 -176.45 -39.85 -162.9 -46.5 -153.35 -49.15 -148.8 -53.4 -141.45 -55.0 -135.3 L-59.65 -119.5 Q-61.9 -111.85 -61.9 -106.4 L-61.45 -102.85 -61.45 -99.55 -61.3 -94.15 -59.7 -89.85 -58.35 -84.85 Q-57.85 -82.9 -56.75 -80.65 L-57.95 -82.55 -59.25 -85.0 -60.45 -87.5 -59.5 -84.9 -58.55 -82.25 -56.9 -80.7 -51.7 -75.9 Q-44.2 -69.15 -41.0 -66.75 -40.6 -66.1 -39.95 -65.75 L-40.2 -65.15 -40.15 -65.15 -36.4 -63.8 -35.2 -63.2 -35.25 -63.45 -34.3 -63.15 Q-27.65 -61.05 -21.05 -59.6 L-7.95 -57.2 Q-0.5 -55.9 0.9 -55.0 L-7.3 -55.0 -23.85 -57.6 Q-33.8 -59.15 -40.35 -62.35 -42.55 -63.4 -47.6 -68.15 L-47.25 -68.75 -47.7 -68.25 -52.65 -73.1 -56.9 -77.5 -52.85 -65.3 Q-61.35 -74.4 -64.0 -85.6 -65.55 -92.15 -65.55 -105.05 -65.55 -134.65 -53.8 -156.8 -43.85 -175.5 -16.0 -204.6 -6.4 -214.6 6.4 -226.15 L33.9 -250.45 Q46.55 -261.65 53.1 -273.15 57.5 -280.9 65.1 -301.4 61.6 -281.9 51.6 -266.7" fill="#ffffff" fill-opacity="0.7058824" fill-rule="evenodd" stroke="none"/>
    <path d="M3.15 -353.7 Q4.5 -344.2 5.35 -339.6 6.75 -331.65 8.95 -326.0 9.75 -323.9 14.65 -316.3 19.1 -309.45 19.95 -305.55 24.05 -286.35 25.0 -277.35 25.85 -269.6 25.95 -254.75 L25.95 -253.95 Q25.95 -248.4 23.4 -239.55 20.3 -228.95 19.75 -225.0 19.2 -224.6 18.75 -224.55 17.95 -225.15 17.75 -225.9 L17.7 -227.25 Q17.7 -229.75 20.75 -238.95 23.8 -248.15 23.8 -253.9 L23.8 -254.75 Q23.65 -266.25 22.5 -277.0 21.8 -283.5 20.55 -290.55 19.2 -298.35 17.9 -302.2 17.25 -303.95 12.65 -311.2 8.15 -318.25 7.1 -321.6 3.3 -333.6 1.95 -345.95 0.45 -358.65 -1.7 -390.75 L0.25 -390.75 0.75 -381.2 Q1.65 -363.95 3.15 -353.7 M19.4 -209.35 L20.2 -202.9 Q21.45 -195.25 27.7 -190.45 L27.15 -189.5 Q26.85 -189.15 26.4 -189.15 21.65 -189.15 18.75 -200.5 17.3 -206.25 16.8 -212.5 16.8 -214.9 17.9 -215.8 18.95 -213.2 19.4 -209.35 M41.55 -184.2 Q41.35 -183.9 40.65 -183.9 39.3 -183.9 38.3 -185.6 L36.45 -188.1 32.75 -188.3 Q31.65 -188.7 31.65 -189.8 L37.1 -190.45 Q39.65 -189.2 41.7 -185.0 L41.55 -184.2 M0.2 -187.1 Q0.2 -188.9 2.25 -187.7 4.25 -186.5 6.75 -183.3 13.3 -174.9 13.3 -166.2 13.3 -163.6 11.35 -157.4 9.4 -151.2 9.4 -148.25 9.4 -148.0 9.7 -147.85 L10.7 -146.8 10.15 -145.9 Q9.8 -145.5 8.9 -145.5 L7.7 -145.6 7.35 -145.7 Q7.2 -146.35 7.2 -148.05 7.2 -150.2 9.2 -157.5 11.15 -164.85 11.15 -166.25 11.15 -173.8 5.7 -180.8 L0.2 -187.1 M-31.5 -390.75 L-33.45 -369.95 Q-35.5 -346.45 -35.5 -337.15 -35.5 -330.05 -34.6 -318.6 -33.75 -307.3 -33.75 -298.5 -33.75 -276.8 -37.25 -258.1 L-37.9 -254.75 Q-40.75 -250.95 -47.35 -244.7 -51.45 -240.85 -52.05 -233.3 -52.8 -224.5 -54.05 -222.3 L-54.85 -222.6 -55.1 -223.5 Q-55.1 -228.55 -53.45 -235.85 -51.6 -244.05 -49.35 -245.8 -43.75 -250.1 -40.4 -254.75 L-39.6 -258.85 Q-35.9 -278.75 -35.9 -298.15 -35.9 -304.7 -36.75 -318.45 -37.65 -332.2 -37.65 -337.85 -37.65 -364.8 -34.1 -390.75 L-31.5 -390.75 M-7.9 -349.85 L-8.0 -390.75 -5.8 -390.75 -5.55 -352.45 Q-5.3 -324.8 -4.9 -317.0 L-2.6 -278.25 Q-1.95 -265.9 -1.7 -254.75 L-1.55 -250.8 -1.65 -244.6 Q-2.2 -244.25 -2.55 -244.15 -3.75 -246.6 -3.85 -250.4 L-3.95 -254.75 -4.05 -262.0 Q-4.5 -274.5 -6.65 -305.9 -7.65 -323.9 -7.9 -349.85 M-18.55 -390.75 L-16.0 -390.75 Q-18.45 -358.8 -18.45 -345.95 -18.45 -335.9 -17.5 -315.1 L-16.15 -285.8 -14.35 -254.75 -14.35 -254.7 Q-12.8 -247.5 -12.8 -246.75 L-12.85 -245.9 -12.9 -245.9 -13.0 -245.65 -13.85 -245.45 Q-15.75 -245.45 -17.25 -254.75 L-18.35 -284.05 -19.6 -314.05 Q-20.65 -336.8 -20.65 -345.75 -20.65 -360.4 -18.55 -390.75 M-2.75 -225.9 L-2.85 -227.4 Q-2.85 -229.4 -1.75 -230.2 -1.05 -229.9 -0.65 -229.3 L-0.65 -225.05 -1.75 -224.55 Q-2.55 -225.2 -2.75 -225.9 M-12.1 -218.85 Q-11.0 -218.25 -10.75 -216.35 L-10.65 -213.9 -10.7 -211.75 -11.7 -211.4 Q-12.3 -212.2 -12.75 -213.9 L-13.2 -216.75 Q-13.2 -218.1 -12.1 -218.85 M-13.2 -185.75 Q-13.2 -188.45 -11.7 -191.5 -10.2 -194.6 -10.2 -190.45 -10.2 -188.6 -11.15 -184.25 L-12.1 -183.9 Q-12.95 -184.3 -13.15 -184.8 L-13.2 -185.75" fill="#ffffff" fill-opacity="0.49803922" fill-rule="evenodd" stroke="none"/>
  </g>
</svg>
