<?xml version="1.0" encoding="UTF-8" standalone="no"?>
<svg xmlns:ffdec="https://www.free-decompiler.com/flash" xmlns:xlink="http://www.w3.org/1999/xlink" ffdec:objectType="shape" height="28.65px" width="137.4px" xmlns="http://www.w3.org/2000/svg">
  <g transform="matrix(1.0, 0.0, 0.0, 1.0, 68.7, 14.3)">
    <path d="M57.65 -9.35 L57.25 -9.4 -64.75 -9.4 Q-65.75 -11.55 -68.7 -14.3 L58.95 -14.3 59.55 -14.25 Q63.15 -14.0 65.75 -11.4 68.7 -8.45 68.7 -4.3 L68.7 4.35 Q68.7 8.5 65.75 11.4 62.95 14.25 58.95 14.35 L-67.15 14.35 Q-65.0 12.55 -63.75 9.4 L57.25 9.4 Q59.85 9.35 61.7 7.45 63.65 5.55 63.65 2.85 L63.65 -2.85 Q63.65 -5.55 61.7 -7.5 60.0 -9.2 57.65 -9.35" fill="#ffffff" fill-rule="evenodd" stroke="none"/>
  </g>
</svg>
