<?xml version="1.0" encoding="UTF-8" standalone="no"?>
<svg xmlns:ffdec="https://www.free-decompiler.com/flash" xmlns:xlink="http://www.w3.org/1999/xlink" ffdec:objectType="shape" height="31.7px" width="700.85px" xmlns="http://www.w3.org/2000/svg">
  <g transform="matrix(1.0, 0.0, 0.0, 1.0, 350.5, 15.85)">
    <path d="M-349.35 -0.85 Q-349.0 -5.95 -345.55 -9.7 L-345.55 -8.95 Q-345.55 -4.3 -342.8 -1.1 -340.5 1.7 -337.7 1.7 -334.75 1.7 -332.0 -1.65 -330.35 -3.8 -329.7 -5.95 -329.35 -7.3 -329.35 -8.65 -329.35 -11.15 -330.15 -13.3 -328.35 -12.65 -326.8 -11.6 L-324.8 -9.95 Q-320.55 -5.7 -320.55 0.35 -320.55 1.9 -320.8 3.25 L-322.8 3.8 Q-330.35 5.6 -335.2 5.6 -339.25 5.6 -342.55 4.05 L-343.2 3.8 -344.55 3.05 Q-345.95 2.25 -347.75 0.6 L-349.35 -0.85" fill="#ffdf00" fill-rule="evenodd" stroke="none"/>
    <path d="M-345.55 -9.7 Q-345.35 -9.75 -345.3 -9.95 -341.2 -13.95 -335.6 -14.15 L-335.0 -14.15 Q-332.45 -14.15 -330.15 -13.3 -329.35 -11.15 -329.35 -8.65 -329.35 -7.3 -329.7 -5.95 -330.35 -3.8 -332.0 -1.65 -334.75 1.7 -337.7 1.7 -340.5 1.7 -342.8 -1.1 -345.55 -4.3 -345.55 -8.95 L-345.55 -9.7" fill="#f6ffaa" fill-rule="evenodd" stroke="none"/>
    <path d="M-320.8 3.25 L-320.8 3.35 -321.4 5.6 Q-322.35 7.8 -323.95 9.75 L-324.8 10.55 Q-325.7 11.45 -326.7 12.15 -330.3 14.85 -335.0 14.85 -341.0 14.85 -345.3 10.55 -348.5 7.35 -349.2 3.05 L-349.5 0.35 -349.35 -0.85 -347.75 0.6 Q-345.95 2.25 -344.55 3.05 L-343.2 3.8 -342.55 4.05 Q-339.25 5.6 -335.2 5.6 -330.35 5.6 -322.8 3.8 L-320.8 3.25" fill="#f09100" fill-rule="evenodd" stroke="none"/>
    <path d="M-349.35 -0.85 Q-349.0 -5.95 -345.55 -9.7 -345.35 -9.75 -345.3 -9.95 -341.2 -13.95 -335.6 -14.15 L-335.0 -14.15 Q-332.45 -14.15 -330.15 -13.3 -328.35 -12.65 -326.8 -11.6 L-324.8 -9.95 Q-320.55 -5.7 -320.55 0.35 -320.55 1.9 -320.8 3.25 M-320.8 3.35 L-321.4 5.6 Q-322.35 7.8 -323.95 9.75 L-324.8 10.55 Q-325.7 11.45 -326.7 12.15 -330.3 14.85 -335.0 14.85 -341.0 14.85 -345.3 10.55 -348.5 7.35 -349.2 3.05 L-349.5 0.35 -349.35 -0.85" fill="none" stroke="#35000a" stroke-linecap="round" stroke-linejoin="round" stroke-width="2.0"/>
    <path d="M-336.7 5.5 L-337.35 5.6 -337.75 5.6 -338.25 5.6 -339.55 5.4 -340.35 4.95 -340.6 4.8 Q-341.7 4.0 -342.15 4.0 L-342.95 4.1 -344.0 5.15 -344.05 4.3 Q-344.05 3.1 -343.5 2.4 -343.05 1.85 -342.35 1.75 L-341.6 1.6 Q-341.2 1.6 -340.75 2.0 L-340.1 2.55 -339.1 3.75 -338.45 4.2 -337.65 4.6 -336.0 5.3 -336.0 5.4 -336.7 5.5 M-328.4 1.85 L-327.7 1.9 Q-327.0 2.05 -326.45 2.55 -325.85 3.15 -325.85 3.95 -325.85 4.6 -326.1 5.15 -326.2 4.5 -326.9 4.1 L-327.2 4.0 -327.7 4.0 -329.35 4.65 Q-330.6 5.35 -331.8 5.35 L-332.1 5.35 -332.9 5.45 -333.35 5.4 -333.7 5.4 -333.7 5.35 -333.6 5.35 -333.45 5.3 -332.9 5.1 -331.9 4.8 -330.55 3.45 -330.3 3.25 -329.55 2.45 Q-328.9 1.8 -328.4 1.85 M-340.5 -0.05 L-340.65 -0.3 -340.85 -0.6 -341.0 -1.2 -340.95 -1.45 -340.75 -1.75 -340.4 -2.15 -339.65 -2.5 Q-338.85 -2.5 -338.5 -1.95 L-338.35 -1.1 -338.2 -1.0 -336.8 -0.3 -336.6 -0.9 -336.3 -1.6 -336.15 -2.05 -336.1 -2.15 -336.25 -2.5 -336.3 -2.65 Q-336.7 -3.1 -336.7 -3.8 -336.7 -4.3 -336.1 -4.7 L-334.95 -4.95 -334.85 -4.95 Q-334.3 -4.95 -333.95 -4.55 -333.55 -4.05 -333.55 -3.35 L-333.8 -2.75 -333.95 -2.55 -334.0 -2.4 -334.0 -2.25 -333.85 -1.7 -333.45 -0.95 -333.05 -0.2 Q-332.5 -0.75 -331.8 -1.0 L-331.75 -1.55 -331.4 -2.1 -330.6 -2.35 Q-330.05 -2.3 -329.75 -2.05 L-329.5 -1.65 -329.3 -1.0 -329.3 -0.75 -329.85 -0.05 -329.9 -0.05 -330.15 0.1 -330.25 0.2 -331.05 2.0 -331.4 2.95 -331.7 3.9 -332.35 3.9 -337.2 3.95 -337.95 3.9 -338.1 3.9 -338.45 3.9 -339.6 0.35 -339.75 0.35 Q-340.15 0.35 -340.5 -0.05" fill="url(#gradient0)" fill-rule="evenodd" stroke="none"/>
    <path d="M-178.1 -10.45 Q-177.9 -10.5 -177.85 -10.7 -173.75 -14.75 -168.15 -14.85 L-167.55 -14.85 Q-165.0 -14.85 -162.7 -14.05 -161.9 -11.85 -161.9 -9.4 -161.9 -8.0 -162.25 -6.7 -162.85 -4.5 -164.5 -2.4 -167.25 0.95 -170.25 0.95 -173.0 0.95 -175.35 -1.85 -178.1 -5.05 -178.1 -9.65 L-178.1 -10.45" fill="#f6ffaa" fill-rule="evenodd" stroke="none"/>
    <path d="M-162.7 -14.05 Q-160.9 -13.4 -159.35 -12.3 L-157.3 -10.7 Q-153.1 -6.4 -153.1 -0.35 L-153.3 2.55 -155.35 3.05 Q-162.85 4.85 -167.7 4.85 -171.8 4.85 -175.1 3.3 L-175.75 3.05 -177.1 2.3 -180.3 -0.15 -181.9 -1.6 Q-181.55 -6.7 -178.1 -10.45 L-178.1 -9.65 Q-178.1 -5.05 -175.35 -1.85 -173.0 0.95 -170.25 0.95 -167.25 0.95 -164.5 -2.4 -162.85 -4.5 -162.25 -6.7 -161.9 -8.0 -161.9 -9.4 -161.9 -11.85 -162.7 -14.05" fill="#ffdf00" fill-rule="evenodd" stroke="none"/>
    <path d="M-153.3 2.55 L-153.3 2.6 -153.95 4.85 Q-154.9 7.05 -156.5 9.0 L-157.3 9.8 -159.25 11.45 Q-162.8 14.1 -167.55 14.1 -173.55 14.1 -177.85 9.8 -181.0 6.6 -181.75 2.3 L-182.0 -0.35 -181.9 -1.6 -180.3 -0.15 -177.1 2.3 -175.75 3.05 -175.1 3.3 Q-171.8 4.85 -167.7 4.85 -162.85 4.85 -155.35 3.05 L-153.3 2.55" fill="#f09100" fill-rule="evenodd" stroke="none"/>
    <path d="M-178.1 -10.45 Q-177.9 -10.5 -177.85 -10.7 -173.75 -14.75 -168.15 -14.85 L-167.55 -14.85 Q-165.0 -14.85 -162.7 -14.05 -160.9 -13.4 -159.35 -12.3 L-157.3 -10.7 Q-153.1 -6.4 -153.1 -0.35 L-153.3 2.55 M-153.3 2.6 L-153.95 4.85 Q-154.9 7.05 -156.5 9.0 L-157.3 9.8 -159.25 11.45 Q-162.8 14.1 -167.55 14.1 -173.55 14.1 -177.85 9.8 -181.0 6.6 -181.75 2.3 L-182.0 -0.35 -181.9 -1.6 Q-181.55 -6.7 -178.1 -10.45" fill="none" stroke="#35000a" stroke-linecap="round" stroke-linejoin="round" stroke-width="2.0"/>
    <path d="M-170.3 4.9 L-170.8 4.9 -172.1 4.7 -172.9 4.25 -173.15 4.1 Q-174.25 3.3 -174.7 3.3 L-175.5 3.4 -176.55 4.45 -176.6 3.6 Q-176.6 2.4 -176.05 1.7 -175.6 1.15 -174.9 1.05 L-174.15 0.9 Q-173.75 0.9 -173.3 1.3 L-172.65 1.85 -171.65 3.05 Q-171.4 3.2 -171.0 3.5 L-170.2 3.9 -168.55 4.6 -168.55 4.7 -169.25 4.8 -169.9 4.9 -170.3 4.9 M-159.75 3.3 L-160.25 3.3 -161.9 3.95 Q-163.15 4.65 -164.35 4.65 L-164.65 4.65 -165.45 4.75 -165.9 4.7 -166.25 4.7 -166.25 4.65 -166.15 4.65 -166.0 4.6 -165.45 4.4 -164.45 4.1 -163.1 2.75 -162.85 2.55 -162.1 1.75 Q-161.45 1.1 -160.95 1.15 L-160.25 1.2 Q-159.55 1.35 -159.0 1.85 -158.4 2.45 -158.4 3.25 L-158.65 4.45 Q-158.75 3.8 -159.45 3.4 L-159.75 3.3 M-173.55 -1.9 L-173.5 -2.15 -173.3 -2.45 -172.95 -2.85 -172.2 -3.2 Q-171.4 -3.2 -171.05 -2.65 -170.85 -2.3 -170.9 -1.8 L-170.75 -1.7 -169.35 -1.0 -169.15 -1.6 -168.85 -2.3 -168.7 -2.75 -168.65 -2.85 -168.8 -3.2 -168.85 -3.35 Q-169.25 -3.8 -169.25 -4.5 -169.25 -5.0 -168.65 -5.4 L-167.5 -5.65 -167.4 -5.65 Q-166.85 -5.65 -166.5 -5.25 -166.1 -4.75 -166.1 -4.05 L-166.35 -3.45 -166.5 -3.25 -166.55 -3.1 -166.55 -2.95 -166.4 -2.4 -166.0 -1.65 -165.6 -0.9 -164.35 -1.7 -164.3 -2.25 -163.95 -2.8 -163.15 -3.05 Q-162.6 -3.0 -162.3 -2.75 L-162.05 -2.35 -161.85 -1.7 -161.85 -1.45 Q-161.95 -1.15 -162.4 -0.75 L-162.45 -0.75 -162.7 -0.6 -162.8 -0.5 -163.6 1.3 -163.95 2.25 -164.25 3.2 -164.9 3.2 -169.75 3.25 -170.5 3.2 -170.65 3.2 -171.0 3.2 -172.15 -0.35 -172.3 -0.35 -173.05 -0.75 -173.2 -1.0 -173.4 -1.3 -173.55 -1.9" fill="url(#gradient1)" fill-rule="evenodd" stroke="none"/>
    <path d="M-10.65 -9.7 L-10.65 -8.95 Q-10.65 -4.35 -7.9 -1.15 -5.55 1.65 -2.8 1.65 0.15 1.65 2.9 -1.7 4.55 -3.8 5.15 -6.0 5.55 -7.3 5.55 -8.7 5.55 -11.15 4.75 -13.35 6.55 -12.7 8.1 -11.6 9.2 -10.9 10.1 -10.0 14.35 -5.7 14.35 0.35 L14.15 3.25 12.1 3.75 Q4.55 5.55 -0.25 5.55 -4.35 5.55 -7.65 4.05 L-8.3 3.75 -9.7 3.05 -12.85 0.55 -14.45 -0.85 Q-14.15 -6.0 -10.65 -9.7" fill="#ffdf00" fill-rule="evenodd" stroke="none"/>
    <path d="M4.75 -13.35 Q5.55 -11.15 5.55 -8.7 5.55 -7.3 5.15 -6.0 4.55 -3.8 2.9 -1.7 0.15 1.65 -2.8 1.65 -5.55 1.65 -7.9 -1.15 -10.65 -4.35 -10.65 -8.95 L-10.65 -9.7 -10.4 -10.0 Q-6.3 -14.0 -0.7 -14.1 L-0.1 -14.1 4.75 -13.35" fill="#f6ffaa" fill-rule="evenodd" stroke="none"/>
    <path d="M-14.45 -0.85 L-12.85 0.55 -9.7 3.05 -8.3 3.75 -7.65 4.05 Q-4.35 5.55 -0.25 5.55 4.55 5.55 12.1 3.75 L14.15 3.25 14.15 3.3 13.45 5.55 Q12.55 7.75 10.95 9.7 L10.1 10.5 8.2 12.15 Q4.6 14.8 -0.1 14.8 -6.1 14.8 -10.4 10.5 -13.6 7.35 -14.3 3.05 L-14.55 0.35 -14.45 -0.85" fill="#f09100" fill-rule="evenodd" stroke="none"/>
    <path d="M-10.65 -9.7 Q-14.15 -6.0 -14.45 -0.85 L-14.55 0.35 -14.3 3.05 Q-13.6 7.35 -10.4 10.5 -6.1 14.8 -0.1 14.8 4.6 14.8 8.2 12.15 L10.1 10.5 10.95 9.7 Q12.55 7.75 13.45 5.55 L14.15 3.3 M14.15 3.25 L14.35 0.35 Q14.35 -5.7 10.1 -10.0 9.2 -10.9 8.1 -11.6 6.55 -12.7 4.75 -13.35 L-0.1 -14.1 -0.7 -14.1 Q-6.3 -14.0 -10.4 -10.0 L-10.65 -9.7" fill="none" stroke="#35000a" stroke-linecap="round" stroke-linejoin="round" stroke-width="2.0"/>
    <path d="M-3.55 4.2 L-2.75 4.65 -1.1 5.3 -1.1 5.4 -1.8 5.5 -2.45 5.6 -2.85 5.6 -3.35 5.6 -4.65 5.4 -5.45 4.95 -5.7 4.8 Q-6.8 4.05 -7.25 4.05 L-8.1 4.15 -9.15 5.2 -9.2 4.3 Q-9.2 3.1 -8.65 2.45 -8.15 1.9 -7.5 1.75 L-6.7 1.6 Q-6.3 1.6 -5.9 2.0 -5.6 2.15 -5.2 2.55 L-4.25 3.75 Q-3.95 3.9 -3.55 4.2 M5.35 2.5 Q6.0 1.85 6.5 1.9 L7.2 1.95 Q7.85 2.05 8.4 2.55 9.0 3.15 9.0 3.95 L8.8 5.2 Q8.7 4.5 7.95 4.15 L7.7 4.05 7.2 4.05 Q6.8 4.05 5.55 4.7 4.3 5.35 3.1 5.35 L2.8 5.35 2.0 5.45 1.55 5.4 1.2 5.4 1.2 5.35 1.25 5.35 1.45 5.3 2.0 5.15 2.95 4.8 4.35 3.5 4.55 3.25 5.35 2.5 M0.05 -4.95 Q0.6 -4.95 0.95 -4.55 1.3 -4.05 1.3 -3.35 L1.1 -2.75 0.95 -2.5 0.9 -2.4 0.9 -2.25 1.05 -1.7 1.45 -0.9 1.8 -0.2 Q2.35 -0.75 3.1 -1.0 L3.15 -1.55 3.45 -2.1 4.3 -2.35 5.1 -2.0 5.4 -1.65 5.6 -1.0 5.6 -0.75 5.05 -0.05 5.0 -0.05 4.75 0.1 4.6 0.25 3.85 2.0 3.45 3.0 3.2 3.9 2.55 3.9 -2.3 3.95 -3.1 3.9 -3.2 3.9 -3.55 3.9 -4.75 0.35 -4.85 0.35 Q-5.3 0.35 -5.6 -0.05 L-5.75 -0.25 -5.95 -0.6 -6.1 -1.2 -6.05 -1.4 -5.9 -1.75 -5.5 -2.15 -4.8 -2.45 Q-3.95 -2.45 -3.65 -1.9 -3.4 -1.6 -3.45 -1.1 L-3.3 -1.0 -1.9 -0.25 -1.7 -0.85 -1.45 -1.6 -1.25 -2.0 -1.2 -2.15 -1.35 -2.45 -1.45 -2.65 Q-1.8 -3.05 -1.8 -3.8 -1.8 -4.3 -1.2 -4.65 L-0.05 -4.95 0.05 -4.95" fill="url(#gradient2)" fill-rule="evenodd" stroke="none"/>
    <path d="M156.85 -9.7 L156.85 -8.95 Q156.85 -4.35 159.6 -1.15 161.95 1.65 164.7 1.65 167.65 1.65 170.4 -1.7 172.05 -3.8 172.65 -6.0 173.05 -7.3 173.05 -8.7 173.05 -11.15 172.25 -13.35 L175.6 -11.6 177.6 -10.0 Q181.85 -5.7 181.85 0.35 L181.65 3.25 179.6 3.75 Q172.05 5.55 167.2 5.55 163.15 5.55 159.85 4.05 L159.2 3.75 157.8 3.05 Q156.45 2.2 154.65 0.55 L153.05 -0.85 Q153.35 -6.0 156.85 -9.7" fill="#ffdf00" fill-rule="evenodd" stroke="none"/>
    <path d="M172.25 -13.35 Q173.05 -11.15 173.05 -8.7 173.05 -7.3 172.65 -6.0 172.05 -3.8 170.4 -1.7 167.65 1.65 164.7 1.65 161.95 1.65 159.6 -1.15 156.85 -4.35 156.85 -8.95 L156.85 -9.7 157.1 -10.0 Q161.15 -14.0 166.8 -14.1 L167.4 -14.1 Q169.9 -14.1 172.25 -13.35" fill="#f6ffaa" fill-rule="evenodd" stroke="none"/>
    <path d="M153.05 -0.85 L154.65 0.55 Q156.45 2.2 157.8 3.05 L159.2 3.75 159.85 4.05 Q163.15 5.55 167.2 5.55 172.05 5.55 179.6 3.75 L181.65 3.25 181.65 3.3 180.95 5.55 Q180.05 7.75 178.45 9.7 L177.6 10.5 175.7 12.15 Q172.1 14.8 167.4 14.8 161.4 14.8 157.1 10.5 153.9 7.35 153.2 3.05 152.9 1.75 152.9 0.35 L153.05 -0.85" fill="#f09100" fill-rule="evenodd" stroke="none"/>
    <path d="M172.25 -13.35 Q169.9 -14.1 167.4 -14.1 L166.8 -14.1 Q161.15 -14.0 157.1 -10.0 L156.85 -9.7 Q153.35 -6.0 153.05 -0.85 L152.9 0.35 Q152.9 1.75 153.2 3.05 153.9 7.35 157.1 10.5 161.4 14.8 167.4 14.8 172.1 14.8 175.7 12.15 L177.6 10.5 178.45 9.7 Q180.05 7.75 180.95 5.55 L181.65 3.3 M181.65 3.25 L181.85 0.35 Q181.85 -5.7 177.6 -10.0 L175.6 -11.6 172.25 -13.35" fill="none" stroke="#35000a" stroke-linecap="round" stroke-linejoin="round" stroke-width="2.0"/>
    <path d="M162.8 5.4 L162.05 4.95 161.8 4.8 Q160.7 4.05 160.25 4.05 L159.4 4.15 158.35 5.2 158.3 4.3 Q158.3 3.1 158.85 2.45 L160.0 1.75 160.8 1.6 Q161.15 1.6 161.6 2.0 L162.25 2.55 163.25 3.75 Q163.55 3.9 163.9 4.2 L164.75 4.65 166.4 5.3 166.4 5.4 165.7 5.5 165.0 5.6 164.65 5.6 164.15 5.6 162.8 5.4 M174.7 1.95 Q175.35 2.05 175.9 2.55 176.5 3.15 176.5 3.95 L176.3 5.2 Q176.2 4.5 175.45 4.15 L175.2 4.05 174.7 4.05 173.05 4.7 Q171.8 5.35 170.6 5.35 L170.3 5.35 169.5 5.45 169.05 5.4 168.7 5.4 168.7 5.35 168.75 5.35 168.95 5.3 169.5 5.15 170.45 4.8 171.85 3.5 172.05 3.25 172.85 2.5 Q173.5 1.85 174.0 1.9 L174.7 1.95 M161.7 -0.25 L161.55 -0.6 161.4 -1.2 161.45 -1.4 161.6 -1.75 162.0 -2.15 162.7 -2.45 Q163.55 -2.45 163.85 -1.9 L164.05 -1.1 164.2 -1.0 165.55 -0.25 165.8 -0.85 166.05 -1.6 166.25 -2.0 166.3 -2.15 166.1 -2.45 166.05 -2.65 Q165.7 -3.05 165.7 -3.8 165.7 -4.3 166.3 -4.65 L167.45 -4.95 167.55 -4.95 Q168.1 -4.95 168.45 -4.55 168.8 -4.05 168.8 -3.35 L168.6 -2.75 168.45 -2.5 168.4 -2.4 168.4 -2.25 168.55 -1.7 168.95 -0.9 169.3 -0.2 170.6 -1.0 170.65 -1.55 170.95 -2.1 171.8 -2.35 Q172.35 -2.3 172.6 -2.0 L172.9 -1.65 173.1 -1.0 173.1 -0.75 172.55 -0.05 172.5 -0.05 172.25 0.1 172.1 0.25 171.35 2.0 170.95 3.0 170.7 3.9 170.05 3.9 165.2 3.95 164.4 3.9 164.3 3.9 163.9 3.9 162.75 0.35 162.65 0.35 161.9 -0.05 161.7 -0.25" fill="url(#gradient3)" fill-rule="evenodd" stroke="none"/>
    <path d="M324.3 -9.7 L324.6 -10.0 Q328.65 -14.0 334.3 -14.1 L334.9 -14.1 339.7 -13.35 Q340.55 -11.15 340.55 -8.7 340.55 -7.3 340.15 -6.0 339.55 -3.8 337.9 -1.7 335.15 1.65 332.2 1.65 329.45 1.65 327.05 -1.15 324.3 -4.35 324.3 -8.95 L324.3 -9.7" fill="#f6ffaa" fill-rule="evenodd" stroke="none"/>
    <path d="M324.3 -9.7 L324.3 -8.95 Q324.3 -4.35 327.05 -1.15 329.45 1.65 332.2 1.65 335.15 1.65 337.9 -1.7 339.55 -3.8 340.15 -6.0 340.55 -7.3 340.55 -8.7 340.55 -11.15 339.7 -13.35 341.55 -12.7 343.1 -11.6 344.2 -10.9 345.1 -10.0 349.35 -5.7 349.35 0.35 L349.15 3.25 347.1 3.75 Q339.55 5.55 334.7 5.55 330.65 5.55 327.35 4.05 L326.7 3.75 325.3 3.05 Q323.95 2.2 322.1 0.55 321.25 -0.15 320.55 -0.85 320.85 -6.0 324.3 -9.7" fill="#ffdf00" fill-rule="evenodd" stroke="none"/>
    <path d="M349.15 3.25 L349.15 3.3 348.45 5.55 Q347.55 7.75 345.95 9.7 L345.1 10.5 343.2 12.15 Q339.6 14.8 334.9 14.8 328.9 14.8 324.6 10.5 321.4 7.35 320.7 3.05 320.4 1.75 320.4 0.35 L320.55 -0.85 Q321.25 -0.15 322.1 0.55 323.95 2.2 325.3 3.05 L326.7 3.75 327.35 4.05 Q330.65 5.55 334.7 5.55 339.55 5.55 347.1 3.75 L349.15 3.25" fill="#f09100" fill-rule="evenodd" stroke="none"/>
    <path d="M339.7 -13.35 L334.9 -14.1 334.3 -14.1 Q328.65 -14.0 324.6 -10.0 L324.3 -9.7 Q320.85 -6.0 320.55 -0.85 L320.4 0.35 Q320.4 1.75 320.7 3.05 321.4 7.35 324.6 10.5 328.9 14.8 334.9 14.8 339.6 14.8 343.2 12.15 L345.1 10.5 345.95 9.7 Q347.55 7.75 348.45 5.55 L349.15 3.3 M339.7 -13.35 Q341.55 -12.7 343.1 -11.6 344.2 -10.9 345.1 -10.0 349.35 -5.7 349.35 0.35 L349.15 3.25" fill="none" stroke="#35000a" stroke-linecap="round" stroke-linejoin="round" stroke-width="2.0"/>
    <path d="M329.1 2.0 L329.75 2.55 330.75 3.75 331.4 4.2 332.25 4.65 333.9 5.3 333.9 5.4 333.2 5.5 332.5 5.6 332.15 5.6 331.65 5.6 330.3 5.4 329.55 4.95 329.25 4.8 Q328.15 4.05 327.75 4.05 L326.9 4.15 325.85 5.2 325.8 4.3 Q325.8 3.1 326.35 2.45 326.85 1.9 327.5 1.75 L328.3 1.6 Q328.65 1.6 329.1 2.0 M342.2 1.95 Q342.85 2.05 343.4 2.55 344.0 3.15 344.0 3.95 L343.8 5.2 Q343.7 4.5 342.95 4.15 L342.7 4.05 342.2 4.05 Q341.8 4.05 340.55 4.7 339.3 5.35 338.05 5.35 L337.8 5.35 336.95 5.45 336.55 5.4 336.2 5.4 336.2 5.35 336.25 5.35 336.4 5.3 336.95 5.15 337.95 4.8 339.35 3.5 339.55 3.25 340.35 2.5 Q341.0 1.85 341.5 1.9 L342.2 1.95 M328.9 -1.2 L328.95 -1.4 329.1 -1.75 329.5 -2.15 330.2 -2.45 Q331.05 -2.45 331.35 -1.9 L331.55 -1.1 331.7 -1.0 333.05 -0.25 333.3 -0.85 333.55 -1.6 333.75 -2.0 333.8 -2.15 333.6 -2.45 333.55 -2.65 Q333.2 -3.05 333.2 -3.8 333.2 -4.3 333.8 -4.65 L334.95 -4.95 335.05 -4.95 Q335.6 -4.95 335.95 -4.55 336.3 -4.05 336.3 -3.35 L336.1 -2.75 335.95 -2.5 335.85 -2.4 335.85 -2.25 336.05 -1.7 336.4 -0.9 336.8 -0.2 Q337.35 -0.75 338.05 -1.0 L338.15 -1.55 338.45 -2.1 339.3 -2.35 340.1 -2.0 340.4 -1.65 340.6 -1.0 340.6 -0.75 340.05 -0.05 340.0 -0.05 339.7 0.1 339.6 0.25 338.85 2.0 338.45 3.0 338.2 3.9 337.5 3.9 332.7 3.95 331.9 3.9 331.8 3.9 331.4 3.9 330.25 0.35 330.15 0.35 Q329.7 0.35 329.4 -0.05 L329.2 -0.25 329.05 -0.6 328.9 -1.2" fill="url(#gradient4)" fill-rule="evenodd" stroke="none"/>
  </g>
  <defs>
    <linearGradient gradientTransform="matrix(0.0, -0.006, 0.0047, 0.0, -335.1, 0.35)" gradientUnits="userSpaceOnUse" id="gradient0" spreadMethod="pad" x1="-819.2" x2="819.2">
      <stop offset="0.0" stop-color="#de7200"/>
      <stop offset="1.0" stop-color="#fca600"/>
      <stop offset="1.0" stop-color="#cb9044"/>
      <stop offset="1.0" stop-color="#3c961b"/>
    </linearGradient>
    <linearGradient gradientTransform="matrix(0.0, -0.006, 0.0047, 0.0, -167.65, -0.35)" gradientUnits="userSpaceOnUse" id="gradient1" spreadMethod="pad" x1="-819.2" x2="819.2">
      <stop offset="0.0" stop-color="#de7200"/>
      <stop offset="1.0" stop-color="#fca600"/>
      <stop offset="1.0" stop-color="#cb9044"/>
      <stop offset="1.0" stop-color="#3c961b"/>
    </linearGradient>
    <linearGradient gradientTransform="matrix(0.0, -0.006, 0.0047, 0.0, -0.2, 0.35)" gradientUnits="userSpaceOnUse" id="gradient2" spreadMethod="pad" x1="-819.2" x2="819.2">
      <stop offset="0.0" stop-color="#de7200"/>
      <stop offset="1.0" stop-color="#fca600"/>
      <stop offset="1.0" stop-color="#cb9044"/>
      <stop offset="1.0" stop-color="#3c961b"/>
    </linearGradient>
    <linearGradient gradientTransform="matrix(0.0, -0.006, 0.0047, 0.0, 167.3, 0.35)" gradientUnits="userSpaceOnUse" id="gradient3" spreadMethod="pad" x1="-819.2" x2="819.2">
      <stop offset="0.0" stop-color="#de7200"/>
      <stop offset="1.0" stop-color="#fca600"/>
      <stop offset="1.0" stop-color="#cb9044"/>
      <stop offset="1.0" stop-color="#3c961b"/>
    </linearGradient>
    <linearGradient gradientTransform="matrix(0.0, -0.006, 0.0047, 0.0, 334.75, 0.35)" gradientUnits="userSpaceOnUse" id="gradient4" spreadMethod="pad" x1="-819.2" x2="819.2">
      <stop offset="0.0" stop-color="#de7200"/>
      <stop offset="1.0" stop-color="#fca600"/>
      <stop offset="1.0" stop-color="#cb9044"/>
      <stop offset="1.0" stop-color="#3c961b"/>
    </linearGradient>
  </defs>
</svg>
