<?xml version="1.0" encoding="UTF-8" standalone="no"?>
<svg xmlns:ffdec="https://www.free-decompiler.com/flash" xmlns:xlink="http://www.w3.org/1999/xlink" ffdec:objectType="shape" height="42.0px" width="122.0px" xmlns="http://www.w3.org/2000/svg">
  <g transform="matrix(1.0, 0.0, 0.0, 1.0, 61.0, 21.0)">
    <path d="M51.75 -18.2 Q57.75 -18.2 57.75 -9.7 L57.75 10.7 Q57.75 19.2 51.75 19.2 L-51.75 19.2 Q-57.75 19.2 -57.75 10.7 L-57.75 -9.7 Q-57.75 -18.2 -51.75 -18.2 L51.75 -18.2" fill="url(#gradient0)" fill-rule="evenodd" stroke="none"/>
    <path d="M51.75 -18.2 L-51.75 -18.2 Q-57.75 -18.2 -57.75 -9.7 L-57.75 10.7 Q-57.75 19.2 -51.75 19.2 L51.75 19.2 Q57.75 19.2 57.75 10.7 L57.75 -9.7 Q57.75 -18.2 51.75 -18.2 Z" fill="none" stroke="#000000" stroke-linecap="square" stroke-linejoin="round" stroke-width="1.5"/>
    <path d="M56.25 -20.0 Q60.0 -20.0 60.0 -16.65 L60.0 16.65 Q60.0 20.0 56.25 20.0 L-56.25 20.0 Q-60.0 20.0 -60.0 16.65 L-60.0 -16.65 Q-60.0 -20.0 -56.25 -20.0 L56.25 -20.0" fill="#009900" fill-rule="evenodd" stroke="none"/>
    <path d="M56.25 -20.0 L-56.25 -20.0 Q-60.0 -20.0 -60.0 -16.65 L-60.0 16.65 Q-60.0 20.0 -56.25 20.0 L56.25 20.0 Q60.0 20.0 60.0 16.65 L60.0 -16.65 Q60.0 -20.0 56.25 -20.0 Z" fill="none" stroke="#000000" stroke-linecap="round" stroke-linejoin="round" stroke-width="2.0"/>
    <path d="M56.25 -20.0 Q60.0 -20.0 60.0 -16.65 L60.0 16.65 Q60.0 20.0 56.25 20.0 L-56.25 20.0 Q-60.0 20.0 -60.0 16.65 L-60.0 -16.65 Q-60.0 -20.0 -56.25 -20.0 L56.25 -20.0" fill="#009900" fill-rule="evenodd" stroke="none"/>
    <path d="M56.25 -20.0 L-56.25 -20.0 Q-60.0 -20.0 -60.0 -16.65 L-60.0 16.65 Q-60.0 20.0 -56.25 20.0 L56.25 20.0 Q60.0 20.0 60.0 16.65 L60.0 -16.65 Q60.0 -20.0 56.25 -20.0 Z" fill="none" stroke="#000000" stroke-linecap="round" stroke-linejoin="round" stroke-width="2.0"/>
  </g>
  <defs>
    <linearGradient gradientTransform="matrix(0.0, 0.0181, -0.0705, 0.0, 0.0, 4.0)" gradientUnits="userSpaceOnUse" id="gradient0" spreadMethod="pad" x1="-819.2" x2="819.2">
      <stop offset="0.0" stop-color="#00bb06"/>
      <stop offset="0.4627450980392157" stop-color="#1c7900"/>
    </linearGradient>
  </defs>
</svg>
