<?xml version="1.0" encoding="UTF-8" standalone="no"?>
<svg xmlns:ffdec="https://www.free-decompiler.com/flash" xmlns:xlink="http://www.w3.org/1999/xlink" ffdec:objectType="shape" height="22.7px" width="23.05px" xmlns="http://www.w3.org/2000/svg">
  <g transform="matrix(1.0, 0.0, 0.0, 1.0, 11.65, 11.35)">
    <path d="M-8.7 8.45 L-8.65 8.45 -8.85 8.6 -8.7 8.45" fill="#3e2611" fill-rule="evenodd" stroke="none"/>
    <path d="M-7.25 -8.55 L-8.7 -7.25 -11.6 -8.5 -10.15 -10.0 -10.1 -10.05 -8.75 -11.35 -7.25 -8.55 M-8.7 7.15 L-7.25 8.45 -8.75 11.25 -11.65 8.4 -8.7 7.15 M-8.7 8.45 L-8.85 8.6 -8.65 8.45 -8.7 8.45" fill="#ad5000" fill-rule="evenodd" stroke="none"/>
    <path d="M6.9 -8.5 L6.85 -8.55 -7.25 -8.55 -8.75 -11.35 8.15 -11.35 6.9 -8.5 M-7.25 8.45 L7.1 8.45 8.5 11.35 -8.75 11.25 -7.25 8.45" fill="#984600" fill-rule="evenodd" stroke="none"/>
    <path d="M8.3 -7.25 L6.9 -8.5 8.15 -11.35 8.35 -11.35 9.7 -10.05 9.75 -10.0 11.3 -8.45 8.3 -7.25" fill="#773600" fill-rule="evenodd" stroke="none"/>
    <path d="M8.3 7.35 L8.3 -7.25 11.3 -8.45 11.4 8.5 11.35 8.5 8.3 7.35" fill="#642d00" fill-rule="evenodd" stroke="none"/>
    <path d="M7.1 8.45 L8.3 7.35 11.35 8.5 8.5 11.35 7.1 8.45" fill="#723300" fill-rule="evenodd" stroke="none"/>
    <path d="M-8.7 -7.25 L-8.7 7.15 -11.65 8.4 -11.65 -8.5 -11.6 -8.5 -8.7 -7.25" fill="#c45a00" fill-rule="evenodd" stroke="none"/>
    <path d="M6.9 -8.5 L8.3 -7.25 8.3 7.35 7.1 8.45 -7.25 8.45 -8.7 7.15 -8.7 -7.25 -7.25 -8.55 6.85 -8.55 6.9 -8.5" fill="#4a2200" fill-rule="evenodd" stroke="none"/>
  </g>
</svg>
