<?xml version="1.0" encoding="UTF-8" standalone="no"?>
<svg xmlns:ffdec="https://www.free-decompiler.com/flash" xmlns:xlink="http://www.w3.org/1999/xlink" ffdec:objectType="shape" height="296.65px" width="289.15px" xmlns="http://www.w3.org/2000/svg">
  <g transform="matrix(1.0, 0.0, 0.0, 1.0, 146.5, 142.85)">
    <path d="M8.55 -142.85 Q12.45 -142.45 14.2 -140.05 15.5 -138.35 15.5 -136.1 15.5 -134.05 13.45 -130.65 11.9 -128.0 9.7 -126.75 L10.7 -125.25 13.05 -121.05 18.0 -112.55 24.05 -103.45 27.0 -98.85 28.6 -100.8 34.2 -107.75 39.35 -113.85 43.1 -118.05 43.2 -118.15 42.3 -119.4 Q41.1 -121.5 41.1 -123.95 L41.4 -126.6 41.7 -129.0 Q41.75 -131.65 44.5 -132.9 46.9 -134.05 48.9 -133.35 55.3 -133.25 57.55 -129.5 58.8 -127.5 58.8 -123.9 58.8 -120.1 55.75 -117.55 53.15 -115.4 50.35 -115.4 L50.15 -115.4 50.15 -115.2 50.4 -107.7 Q50.3 -106.2 50.35 -103.2 L50.4 -100.25 Q50.4 -94.75 50.8 -88.1 L51.1 -82.9 52.7 -81.2 57.35 -77.4 Q63.85 -72.9 65.55 -70.9 L66.05 -70.45 Q67.05 -69.2 67.05 -67.05 L67.45 -64.8 67.65 -62.4 Q68.65 -57.35 69.0 -53.1 69.6 -40.6 70.2 -34.5 71.1 -26.25 74.55 2.5 L74.55 2.65 74.7 2.85 Q76.15 5.15 76.8 8.55 L77.35 12.5 77.7 16.15 Q77.7 19.75 76.6 23.55 75.45 27.45 73.35 30.75 70.15 35.75 60.05 43.9 L59.7 46.2 59.7 46.45 63.75 46.8 80.1 48.65 85.8 48.6 89.05 48.3 95.25 47.85 99.7 47.45 100.05 46.65 100.4 45.5 100.4 43.45 Q100.4 39.45 98.95 29.2 L97.2 16.55 Q96.55 8.2 90.15 1.85 86.95 -1.3 85.9 -2.95 84.05 -6.0 84.05 -10.1 L84.05 -13.0 Q84.15 -14.65 84.75 -15.9 86.05 -18.6 87.55 -20.15 L87.9 -20.5 88.3 -20.9 Q89.35 -21.75 90.65 -21.75 93.55 -21.75 93.75 -16.65 93.95 -11.55 96.6 -11.55 100.0 -11.55 102.55 -14.05 L106.35 -18.9 Q107.35 -20.2 108.65 -22.65 L110.9 -26.55 115.65 -34.2 Q117.1 -36.6 118.65 -38.1 120.0 -39.25 122.65 -39.6 124.6 -39.85 125.2 -39.25 125.7 -39.0 125.7 -38.4 L124.6 -33.2 123.05 -26.0 121.8 -19.8 121.35 -16.15 121.35 -15.95 123.3 -18.25 128.1 -24.0 131.45 -28.7 133.75 -31.8 134.1 -32.15 134.15 -32.2 135.15 -31.45 135.1 -31.4 135.9 -30.45 137.1 -27.75 138.1 -24.95 Q138.45 -23.7 138.45 -22.3 L137.9 -19.5 138.0 -19.1 138.3 -17.25 139.05 -13.5 Q139.1 -12.7 139.65 -9.85 L140.1 -6.0 Q140.1 -3.45 138.9 -1.15 137.7 1.1 134.85 4.05 L126.15 13.25 126.6 13.85 Q128.2 16.15 129.35 19.5 L132.15 27.15 135.0 34.9 137.6 42.6 Q142.65 59.05 142.65 73.3 142.65 78.25 141.0 81.8 138.9 86.25 133.85 89.6 133.25 90.45 128.55 92.7 122.5 95.5 121.2 96.15 118.8 97.4 113.95 98.8 L106.05 100.8 95.55 102.9 85.35 104.85 76.25 106.95 66.45 109.1 67.05 111.6 68.0 117.3 Q68.2 119.15 69.1 123.0 L70.25 128.7 71.9 139.0 73.35 150.65 73.35 150.95 73.35 151.1 73.35 151.5 73.35 151.7 73.45 153.8 -108.5 153.8 Q-107.75 147.45 -98.15 128.6 -92.8 118.0 -81.55 97.9 -76.25 88.3 -67.35 69.5 L-60.55 55.3 -57.5 48.35 Q-57.0 47.25 -56.0 46.2 L-64.95 34.0 Q-75.05 19.55 -89.9 -3.8 -96.35 -13.9 -99.35 -17.95 -105.25 -26.0 -112.0 -32.25 -118.0 -37.75 -130.05 -46.4 L-139.45 -52.65 Q-146.5 -57.7 -146.5 -60.1 -146.5 -62.25 -144.05 -66.2 -141.6 -70.15 -141.6 -73.0 -141.55 -76.75 -141.05 -79.25 -140.2 -83.15 -138.1 -85.75 L-136.3 -87.2 -134.0 -89.0 -133.5 -92.3 Q-131.8 -97.0 -126.65 -97.75 -119.75 -99.1 -109.8 -94.55 -106.25 -92.95 -104.05 -91.5 -103.3 -96.35 -99.95 -100.85 -96.1 -106.0 -90.5 -108.7 -84.95 -111.45 -81.1 -110.05 -76.8 -108.5 -76.8 -102.4 -76.8 -98.7 -80.75 -92.15 L-86.5 -82.75 -90.85 -70.85 Q-92.55 -66.25 -93.7 -64.4 -90.65 -63.2 -84.15 -58.0 L-58.6 -35.9 -41.3 -20.05 -37.6 -16.4 -37.0 -21.7 Q-36.25 -27.55 -36.25 -30.1 -36.25 -33.95 -37.7 -42.35 -39.15 -50.8 -39.15 -53.4 -39.15 -61.6 -31.5 -68.35 -29.05 -70.5 -27.05 -71.15 L-28.3 -76.8 -30.45 -88.1 -32.3 -95.85 Q-33.85 -102.7 -34.05 -105.45 L-36.2 -105.3 Q-40.7 -105.3 -42.75 -110.05 -43.8 -112.4 -43.95 -115.0 L-43.4 -117.7 -42.6 -120.2 Q-41.7 -122.45 -41.25 -122.85 -39.35 -124.55 -34.25 -123.9 -31.85 -123.65 -30.2 -122.05 -29.35 -121.25 -28.25 -119.4 L-26.85 -116.75 Q-26.1 -115.2 -26.1 -114.15 -26.1 -111.8 -28.0 -109.2 L-28.3 -108.8 -27.3 -108.0 -20.75 -102.6 -14.7 -97.85 -12.0 -95.8 -9.9 -99.2 Q-5.45 -106.3 -3.45 -110.4 L0.75 -119.15 2.75 -123.5 3.6 -125.65 Q-1.15 -126.1 -2.6 -129.15 -3.5 -130.95 -3.15 -132.95 -3.15 -142.05 4.5 -142.85 L8.55 -142.85 M59.6 47.75 L59.65 47.4 59.6 47.75" fill="#ffdc99" fill-rule="evenodd" stroke="none"/>
  </g>
</svg>
