<?xml version="1.0" encoding="UTF-8" standalone="no"?>
<svg xmlns:ffdec="https://www.free-decompiler.com/flash" xmlns:xlink="http://www.w3.org/1999/xlink" ffdec:objectType="shape" height="491.5px" width="152.35px" xmlns="http://www.w3.org/2000/svg">
  <g transform="matrix(1.0, 0.0, 0.0, 1.0, 76.15, 2.05)">
    <path d="M72.7 27.8 L72.7 198.65 73.6 202.1 Q76.2 213.55 72.7 223.8 L72.7 487.95 -0.5 462.2 -72.75 484.3 -72.75 223.2 Q-76.0 211.95 -73.7 202.1 L-72.75 198.65 -72.75 -0.55 72.7 -0.55 72.85 23.45 72.85 23.8 72.8 25.35 72.7 25.6 72.7 27.8 M68.75 22.3 L68.75 4.75 -69.0 4.75 -69.0 22.3 68.75 22.3 M68.95 221.5 Q70.8 216.15 70.85 211.55 70.7 206.5 68.95 202.1 L68.95 26.15 -69.0 26.15 -69.0 202.1 Q-70.65 206.75 -70.8 211.8 -70.75 215.9 -69.35 220.25 L-69.0 221.5 -69.0 479.8 -0.45 457.75 68.95 483.45 68.95 221.5" fill="#ff7323" fill-rule="evenodd" stroke="none"/>
    <path d="M68.95 221.5 L68.95 483.45 -0.45 457.75 -69.0 479.8 -69.0 221.5 68.95 221.5 M-69.0 202.1 L-69.0 26.15 68.95 26.15 68.95 202.1 -69.0 202.1" fill="url(#gradient0)" fill-rule="evenodd" stroke="none"/>
    <path d="M68.95 202.1 Q70.7 206.5 70.85 211.55 70.8 216.15 68.95 221.5 L-69.0 221.5 -69.35 220.25 Q-70.75 215.9 -70.8 211.8 -70.65 206.75 -69.0 202.1 L68.95 202.1" fill="url(#gradient1)" fill-rule="evenodd" stroke="none"/>
    <path d="M68.75 22.3 L-69.0 22.3 -69.0 4.75 68.75 4.75 68.75 22.3" fill="url(#gradient2)" fill-rule="evenodd" stroke="none"/>
    <path d="M72.7 27.8 L72.7 198.65 73.6 202.1 Q76.2 213.55 72.7 223.8 L72.7 487.95 -0.5 462.2 -72.75 484.3 -72.75 223.2 Q-76.0 211.95 -73.7 202.1 L-72.75 198.65 -72.75 -0.55 72.7 -0.55 72.85 23.45 M72.85 23.8 L72.8 25.35 72.7 27.8 72.7 25.6 72.8 25.35" fill="none" stroke="#30273e" stroke-linecap="round" stroke-linejoin="round" stroke-width="3.0"/>
  </g>
  <defs>
    <linearGradient gradientTransform="matrix(0.0, 0.0447, -0.0833, 1.0E-4, 126.9, 402.75)" gradientUnits="userSpaceOnUse" id="gradient0" spreadMethod="pad" x1="-819.2" x2="819.2">
      <stop offset="0.0" stop-color="#60496b"/>
      <stop offset="1.0" stop-color="#4c3a55"/>
    </linearGradient>
    <linearGradient gradientTransform="matrix(0.0, -0.0097, 0.0865, 0.0, -175.0, 202.4)" gradientUnits="userSpaceOnUse" id="gradient1" spreadMethod="pad" x1="-819.2" x2="819.2">
      <stop offset="0.0" stop-color="#60496b"/>
      <stop offset="1.0" stop-color="#4c3a55"/>
    </linearGradient>
    <linearGradient gradientTransform="matrix(0.0, 0.0447, -0.0833, 1.0E-4, 126.9, 401.7)" gradientUnits="userSpaceOnUse" id="gradient2" spreadMethod="pad" x1="-819.2" x2="819.2">
      <stop offset="0.0" stop-color="#60496b"/>
      <stop offset="1.0" stop-color="#4c3a55"/>
    </linearGradient>
  </defs>
</svg>
