<?xml version="1.0" encoding="UTF-8" standalone="no"?>
<svg xmlns:ffdec="https://www.free-decompiler.com/flash" xmlns:xlink="http://www.w3.org/1999/xlink" ffdec:objectType="shape" height="490.45px" width="152.35px" xmlns="http://www.w3.org/2000/svg">
  <g transform="matrix(1.0, 0.0, 0.0, 1.0, 1.5, 1.5)">
    <path d="M143.4 22.85 L143.4 5.3 5.65 5.3 5.65 22.85 143.4 22.85 M147.5 24.0 L147.5 25.45 147.5 24.35 147.35 198.15 148.25 201.6 Q150.85 213.05 147.35 223.3 L147.35 487.45 74.15 461.7 1.9 483.8 1.9 222.7 Q-1.35 211.45 0.95 201.6 L1.9 198.15 1.9 0.0 147.35 0.0 147.5 24.0 M143.6 201.6 L143.6 25.75 5.65 25.75 5.65 201.6 Q4.0 206.25 3.85 211.3 3.9 215.4 5.3 219.75 L5.65 221.0 5.65 479.3 74.2 457.25 143.6 482.95 143.6 221.0 Q145.45 215.65 145.5 211.05 145.35 206.0 143.6 201.6" fill="#ff7323" fill-rule="evenodd" stroke="none"/>
    <path d="M5.65 201.6 L143.6 201.6 Q145.35 206.0 145.5 211.05 145.45 215.65 143.6 221.0 L5.65 221.0 5.3 219.75 Q3.9 215.4 3.85 211.3 4.0 206.25 5.65 201.6" fill="url(#gradient0)" fill-rule="evenodd" stroke="none"/>
    <path d="M143.4 22.85 L5.65 22.85 5.65 5.3 143.4 5.3 143.4 22.85 M5.65 201.6 L5.65 25.75 143.6 25.75 143.6 201.6 5.65 201.6 M143.6 221.0 L143.6 482.95 74.2 457.25 5.65 479.3 5.65 221.0 143.6 221.0" fill="url(#gradient1)" fill-rule="evenodd" stroke="none"/>
    <path d="M147.5 24.35 L147.35 198.15 148.25 201.6 Q150.85 213.05 147.35 223.3 L147.35 487.45 74.15 461.7 1.9 483.8 1.9 222.7 Q-1.35 211.45 0.95 201.6 L1.9 198.15 1.9 0.0 147.35 0.0 147.5 24.0" fill="none" stroke="#30273e" stroke-linecap="round" stroke-linejoin="round" stroke-width="3.0"/>
  </g>
  <defs>
    <linearGradient gradientTransform="matrix(0.0, -0.0097, 0.0865, 0.0, -100.35, 201.9)" gradientUnits="userSpaceOnUse" id="gradient0" spreadMethod="pad" x1="-819.2" x2="819.2">
      <stop offset="0.0" stop-color="#60496b"/>
      <stop offset="1.0" stop-color="#4c3a55"/>
    </linearGradient>
    <linearGradient gradientTransform="matrix(0.0, 0.0447, -0.0833, 1.0E-4, 201.55, 402.25)" gradientUnits="userSpaceOnUse" id="gradient1" spreadMethod="pad" x1="-819.2" x2="819.2">
      <stop offset="0.0" stop-color="#60496b"/>
      <stop offset="1.0" stop-color="#4c3a55"/>
    </linearGradient>
  </defs>
</svg>
