<?xml version="1.0" encoding="UTF-8" standalone="no"?>
<svg xmlns:ffdec="https://www.free-decompiler.com/flash" xmlns:xlink="http://www.w3.org/1999/xlink" ffdec:objectType="shape" height="490.45px" width="152.35px" xmlns="http://www.w3.org/2000/svg">
  <g transform="matrix(1.0, 0.0, 0.0, 1.0, 1.5, 1.5)">
    <path d="M143.4 22.85 L143.4 5.3 5.65 5.3 5.65 22.85 143.4 22.85 M147.35 0.0 L147.35 198.15 148.25 201.6 Q150.85 213.05 147.35 223.3 L147.35 487.45 74.15 461.7 1.9 483.8 1.9 222.7 Q-1.35 211.45 0.95 201.6 L1.9 198.15 1.9 0.0 147.35 0.0 M143.6 189.6 L143.6 25.75 5.65 25.75 5.65 189.6 5.65 201.6 Q4.0 206.25 3.85 211.3 3.9 215.4 5.3 219.75 L5.65 221.0 5.65 227.8 5.65 243.0 5.65 479.3 74.2 457.25 143.6 482.95 143.6 243.0 143.6 227.8 143.6 221.0 Q145.45 215.65 145.5 211.05 145.35 206.0 143.6 201.6 L143.6 189.6" fill="#ffcc00" fill-rule="evenodd" stroke="none"/>
    <path d="M143.4 22.85 L5.65 22.85 5.65 5.3 143.4 5.3 143.4 22.85" fill="url(#gradient0)" fill-rule="evenodd" stroke="none"/>
    <path d="M143.6 189.6 L5.65 189.6 5.65 25.75 143.6 25.75 143.6 189.6 M143.6 243.0 L143.6 482.95 74.2 457.25 5.65 479.3 5.65 243.0 143.6 243.0" fill="url(#gradient1)" fill-rule="evenodd" stroke="none"/>
    <path d="M5.65 189.6 L143.6 189.6 143.6 201.6 5.65 201.6 5.65 189.6 M143.6 227.8 L143.6 243.0 5.65 243.0 5.65 227.8 143.6 227.8" fill="url(#gradient2)" fill-rule="evenodd" stroke="none"/>
    <path d="M5.65 201.6 L143.6 201.6 Q145.35 206.0 145.5 211.05 145.45 215.65 143.6 221.0 L5.65 221.0 5.3 219.75 Q3.9 215.4 3.85 211.3 4.0 206.25 5.65 201.6" fill="url(#gradient3)" fill-rule="evenodd" stroke="none"/>
    <path d="M5.65 227.8 L5.65 221.0 143.6 221.0 143.6 227.8 5.65 227.8" fill="url(#gradient4)" fill-rule="evenodd" stroke="none"/>
    <path d="M147.35 0.0 L147.35 198.15 148.25 201.6 Q150.85 213.05 147.35 223.3 L147.35 487.45 74.15 461.7 1.9 483.8 1.9 222.7 Q-1.35 211.45 0.95 201.6 L1.9 198.15 1.9 0.0 147.35 0.0 Z" fill="none" stroke="#35000a" stroke-linecap="round" stroke-linejoin="round" stroke-width="3.0"/>
    <path d="M132.5 37.05 Q137.5 41.95 144.55 42.2 L144.55 46.7 Q135.65 46.5 129.35 40.2 123.1 34.05 122.7 25.65 L127.25 25.65 Q127.6 32.25 132.5 37.05 M131.7 25.65 L135.9 25.65 Q136.25 28.7 138.55 31.0 141.05 33.45 144.55 33.65 L144.55 37.75 Q139.35 37.55 135.65 33.9 132.1 30.4 131.7 25.65 M17.6 25.45 Q17.2 30.3 13.6 33.85 9.85 37.55 4.55 37.8 L4.55 33.65 Q8.1 33.4 10.6 30.95 13.0 28.55 13.3 25.45 L17.6 25.45 M4.55 46.9 L4.55 42.3 Q11.7 42.1 16.8 37.05 21.75 32.15 22.15 25.45 L26.8 25.45 Q26.4 34.0 20.0 40.3 13.6 46.7 4.55 46.9 M81.7 446.5 L81.9 446.45 81.6 441.55 79.9 442.85 78.6 448.35 76.85 446.55 71.05 446.55 69.3 448.35 68.0 442.85 66.3 441.55 66.0 446.45 66.2 446.5 70.45 451.15 77.45 451.15 81.7 446.5 M115.3 430.1 L116.05 430.9 115.9 433.65 115.45 434.7 124.55 428.2 115.3 430.1 M114.75 431.5 L113.15 430.0 106.55 429.65 107.6 430.7 107.35 434.15 106.7 435.2 107.35 434.95 113.65 435.15 114.35 434.0 114.75 431.5 M118.95 427.3 L119.0 427.55 119.0 427.6 118.95 427.3 M88.5 438.2 L86.5 436.1 84.9 436.5 86.35 437.9 82.6 440.8 82.9 446.35 87.85 445.7 88.5 444.0 88.5 438.2 M87.5 429.5 L87.95 426.25 83.1 430.65 80.3 431.35 81.05 434.15 83.25 435.55 84.35 434.7 87.5 429.5 M96.2 429.1 L95.75 429.45 97.8 430.9 98.15 436.65 97.7 438.1 105.35 435.6 106.35 434.0 106.6 430.85 105.35 429.55 96.2 429.1 M96.9 431.45 L94.9 430.1 87.75 435.7 89.55 437.75 89.8 443.65 88.9 445.6 90.75 445.35 96.0 439.5 97.0 437.2 96.9 431.45 M95.55 428.15 L95.7 428.05 115.15 429.1 127.6 427.0 114.85 436.15 107.45 436.15 97.3 439.65 91.25 446.55 81.8 447.8 77.8 452.35 70.1 452.35 66.1 447.8 56.65 446.55 50.6 439.65 40.45 436.15 33.05 436.15 20.3 427.0 32.75 429.1 52.2 428.05 52.35 428.15 60.85 434.7 62.35 435.3 59.45 429.4 59.2 424.5 65.55 429.6 67.65 430.15 68.55 429.25 79.35 429.25 80.25 430.15 82.35 429.6 88.7 424.5 88.45 429.4 85.55 435.3 87.05 434.7 95.55 428.15 M51.7 429.1 L42.55 429.55 41.3 430.85 41.55 434.0 42.55 435.6 50.2 438.1 49.75 436.65 50.1 430.9 52.15 429.45 51.7 429.1 M51.0 431.45 L50.9 437.2 51.9 439.5 57.15 445.35 59.0 445.6 58.1 443.65 58.35 437.75 60.15 435.7 53.0 430.1 51.0 431.45 M60.4 429.5 L63.55 434.7 64.65 435.55 66.85 434.15 67.6 431.35 64.8 430.65 59.95 426.25 60.4 429.5 M46.2 445.4 L46.25 445.5 46.15 445.45 46.2 445.4 M41.2 435.2 L40.55 434.15 40.3 430.7 41.35 429.65 34.75 430.0 33.15 431.5 33.55 434.0 34.25 435.15 40.55 434.95 41.2 435.2 M59.4 438.2 L59.4 444.0 60.05 445.7 65.0 446.35 65.3 440.8 61.55 437.9 63.0 436.5 61.4 436.1 59.4 438.2 M68.55 436.2 L72.3 440.1 67.7 440.1 65.6 438.45 68.55 436.2 M63.0 437.75 L68.75 442.4 69.55 447.1 70.6 445.8 77.3 445.8 78.35 447.1 79.15 442.4 84.9 437.75 80.25 434.55 79.1 431.1 68.8 431.1 67.65 434.55 63.0 437.75 M80.2 440.1 L75.6 440.1 79.35 436.2 82.3 438.45 80.2 440.1 M72.15 444.65 L72.05 443.6 73.95 440.7 75.85 443.6 75.75 444.65 73.95 443.0 72.15 444.65 M32.6 430.1 L23.35 428.2 32.45 434.7 32.0 433.65 31.85 430.9 32.6 430.1" fill="#ffcc00" fill-rule="evenodd" stroke="none"/>
    <path d="M79.2 207.65 L79.1 207.7 79.1 207.35 79.2 207.65" fill="url(#gradient5)" fill-rule="evenodd" stroke="none"/>
    <path d="M69.4 225.0 L69.5 225.05 69.3 225.0 69.4 225.0" fill="url(#gradient6)" fill-rule="evenodd" stroke="none"/>
  </g>
  <defs>
    <linearGradient gradientTransform="matrix(0.0, 0.0352, -0.0833, 1.0E-4, 376.55, 319.95)" gradientUnits="userSpaceOnUse" id="gradient0" spreadMethod="pad" x1="-819.2" x2="819.2">
      <stop offset="0.0" stop-color="#9e0402"/>
      <stop offset="1.0" stop-color="#690200"/>
    </linearGradient>
    <linearGradient gradientTransform="matrix(0.0, 0.0447, -0.0833, 1.0E-4, 376.55, 402.25)" gradientUnits="userSpaceOnUse" id="gradient1" spreadMethod="pad" x1="-819.2" x2="819.2">
      <stop offset="0.0" stop-color="#9e0402"/>
      <stop offset="1.0" stop-color="#690200"/>
    </linearGradient>
    <linearGradient gradientTransform="matrix(0.0, 0.0447, -0.0833, 1.0E-4, 376.55, 395.3)" gradientUnits="userSpaceOnUse" id="gradient2" spreadMethod="pad" x1="-819.2" x2="819.2">
      <stop offset="0.0" stop-color="#9e0402"/>
      <stop offset="1.0" stop-color="#690200"/>
    </linearGradient>
    <linearGradient gradientTransform="matrix(0.0, -0.0097, 0.0865, 0.0, 74.65, 201.9)" gradientUnits="userSpaceOnUse" id="gradient3" spreadMethod="pad" x1="-819.2" x2="819.2">
      <stop offset="0.0" stop-color="#9e0402"/>
      <stop offset="1.0" stop-color="#690200"/>
    </linearGradient>
    <linearGradient gradientTransform="matrix(0.0, 0.0447, -0.0833, 1.0E-4, 376.55, 600.4)" gradientUnits="userSpaceOnUse" id="gradient4" spreadMethod="pad" x1="-819.2" x2="819.2">
      <stop offset="0.0" stop-color="#9e0402"/>
      <stop offset="1.0" stop-color="#690200"/>
    </linearGradient>
    <linearGradient gradientTransform="matrix(8.0E-4, -0.0845, 0.883, 0.0081, -271.1, 156.2)" gradientUnits="userSpaceOnUse" id="gradient5" spreadMethod="pad" x1="-819.2" x2="819.2">
      <stop offset="0.0" stop-color="#983900"/>
      <stop offset="1.0" stop-color="#ff9900"/>
    </linearGradient>
    <linearGradient gradientTransform="matrix(2.0E-4, 0.0, 0.0, 1.0E-4, 69.5, 225.05)" gradientUnits="userSpaceOnUse" id="gradient6" spreadMethod="pad" x1="-819.2" x2="819.2">
      <stop offset="0.0" stop-color="#8e3600"/>
      <stop offset="1.0" stop-color="#ff9900"/>
    </linearGradient>
  </defs>
</svg>
