<?xml version="1.0" encoding="UTF-8" standalone="no"?>
<svg xmlns:ffdec="https://www.free-decompiler.com/flash" xmlns:xlink="http://www.w3.org/1999/xlink" ffdec:objectType="shape" height="490.45px" width="152.35px" xmlns="http://www.w3.org/2000/svg">
  <g transform="matrix(1.0, 0.0, 0.0, 1.0, 1.5, 1.5)">
    <path d="M143.4 22.85 L143.4 5.3 5.65 5.3 5.65 22.85 143.4 22.85 M138.15 31.45 Q139.8 33.1 142.0 33.7 L143.5 33.9 143.6 33.9 143.6 26.65 135.7 26.65 Q136.05 29.4 138.15 31.45 M143.5 41.65 L143.6 41.65 143.6 37.65 141.25 37.35 Q137.95 36.6 135.45 34.1 132.25 30.95 131.9 26.65 L127.85 26.65 127.8 26.65 128.25 29.55 Q129.3 33.7 132.6 36.95 136.0 40.3 140.45 41.25 L143.5 41.65 M143.6 189.6 L143.6 45.8 Q135.45 45.6 129.7 39.85 124.05 34.3 123.65 26.65 L25.55 26.65 25.55 27.0 25.5 27.35 23.75 34.05 Q22.15 37.15 19.4 39.8 13.75 45.35 5.8 45.7 L5.65 45.7 5.65 189.6 5.65 201.6 Q4.0 206.25 3.85 211.3 3.9 215.4 5.3 219.75 L5.65 221.0 5.65 227.8 5.65 243.0 5.65 479.3 74.2 457.25 143.6 482.95 143.6 243.0 143.6 227.8 143.6 221.0 Q145.45 215.65 145.5 211.05 145.35 206.0 143.6 201.6 L143.6 189.6 M13.45 26.65 L5.65 26.65 5.65 33.9 Q8.75 33.6 10.95 31.5 13.1 29.4 13.45 26.65 M16.3 30.7 Q15.35 32.55 13.7 34.1 10.4 37.25 5.8 37.6 L5.65 37.6 5.65 41.6 Q11.95 41.3 16.45 36.95 21.0 32.6 21.35 26.65 L17.4 26.65 17.4 26.8 Q17.2 28.9 16.3 30.7 M147.35 0.0 L147.35 198.15 148.25 201.6 Q150.85 213.05 147.35 223.3 L147.35 487.45 74.15 461.7 1.9 483.8 1.9 222.7 Q-1.35 211.45 0.95 201.6 L1.9 198.15 1.9 0.0 147.35 0.0 M81.7 446.5 L81.9 446.45 81.6 441.55 79.9 442.85 78.6 448.35 76.85 446.55 71.05 446.55 69.3 448.35 68.0 442.85 66.3 441.55 66.0 446.45 66.2 446.5 70.45 451.15 77.45 451.15 81.7 446.5 M119.0 427.6 L118.95 427.3 119.0 427.55 119.0 427.6 M114.75 431.5 L113.15 430.0 106.55 429.65 107.6 430.7 107.35 434.15 106.7 435.2 107.35 434.95 113.65 435.15 114.35 434.0 114.75 431.5 M115.3 430.1 L116.05 430.9 115.9 433.65 115.45 434.7 124.55 428.2 115.3 430.1 M88.5 438.2 L86.5 436.1 84.9 436.5 86.35 437.9 82.6 440.8 82.9 446.35 87.85 445.7 88.5 444.0 88.5 438.2 M87.95 426.25 L83.1 430.65 80.3 431.35 81.05 434.15 83.25 435.55 84.35 434.7 87.5 429.5 87.95 426.25 M95.55 428.15 L95.7 428.05 115.15 429.1 127.6 427.0 114.85 436.15 107.45 436.15 97.3 439.65 91.25 446.55 81.8 447.8 77.8 452.35 70.1 452.35 66.1 447.8 56.65 446.55 50.6 439.65 40.45 436.15 33.05 436.15 20.3 427.0 32.75 429.1 52.2 428.05 52.35 428.15 60.85 434.7 62.35 435.3 59.45 429.4 59.2 424.5 65.55 429.6 67.65 430.15 68.55 429.25 79.35 429.25 80.25 430.15 82.35 429.6 88.7 424.5 88.45 429.4 85.55 435.3 87.05 434.7 95.55 428.15 M96.9 431.45 L94.9 430.1 87.75 435.7 89.55 437.75 89.8 443.65 88.9 445.6 90.75 445.35 96.0 439.5 97.0 437.2 96.9 431.45 M95.75 429.45 L97.8 430.9 98.15 436.65 97.7 438.1 105.35 435.6 106.35 434.0 106.6 430.85 105.35 429.55 96.2 429.1 95.75 429.45 M60.4 429.5 L63.55 434.7 64.65 435.55 66.85 434.15 67.6 431.35 64.8 430.65 59.95 426.25 60.4 429.5 M51.0 431.45 L50.9 437.2 51.9 439.5 57.15 445.35 59.0 445.6 58.1 443.65 58.35 437.75 60.15 435.7 53.0 430.1 51.0 431.45 M51.7 429.1 L42.55 429.55 41.3 430.85 41.55 434.0 42.55 435.6 50.2 438.1 49.75 436.65 50.1 430.9 52.15 429.45 51.7 429.1 M40.55 434.15 L40.3 430.7 41.35 429.65 34.75 430.0 33.15 431.5 33.55 434.0 34.25 435.15 40.55 434.95 41.2 435.2 40.55 434.15 M46.2 445.4 L46.25 445.5 46.15 445.45 46.2 445.4 M59.4 438.2 L59.4 444.0 60.05 445.7 65.0 446.35 65.3 440.8 61.55 437.9 63.0 436.5 61.4 436.1 59.4 438.2 M65.6 438.45 L68.55 436.2 72.3 440.1 67.7 440.1 65.6 438.45 M63.0 437.75 L68.75 442.4 69.55 447.1 70.6 445.8 77.3 445.8 78.35 447.1 79.15 442.4 84.9 437.75 80.25 434.55 79.1 431.1 68.8 431.1 67.65 434.55 63.0 437.75 M75.85 443.6 L75.75 444.65 73.95 443.0 72.15 444.65 72.05 443.6 73.95 440.7 75.85 443.6 M75.6 440.1 L79.35 436.2 82.3 438.45 80.2 440.1 75.6 440.1 M32.6 430.1 L23.35 428.2 32.45 434.7 32.0 433.65 31.85 430.9 32.6 430.1" fill="#ffcc00" fill-rule="evenodd" stroke="none"/>
    <path d="M143.4 22.85 L5.65 22.85 5.65 5.3 143.4 5.3 143.4 22.85" fill="url(#gradient0)" fill-rule="evenodd" stroke="none"/>
    <path d="M127.85 26.65 L131.9 26.65 Q132.25 30.95 135.45 34.1 137.95 36.6 141.25 37.35 L143.6 37.65 143.6 41.65 143.5 41.65 143.5 41.6 140.45 41.25 Q136.0 40.3 132.6 36.95 129.3 33.7 128.25 29.55 L127.85 26.65 M138.15 31.45 Q136.05 29.4 135.7 26.65 L143.6 26.65 143.6 33.9 143.5 33.9 142.0 33.7 Q139.8 33.1 138.15 31.45 M23.75 34.05 L25.5 27.35 25.55 27.0 25.55 26.65 123.65 26.65 Q124.05 34.3 129.7 39.85 135.45 45.6 143.6 45.8 L143.6 189.6 5.65 189.6 5.65 45.7 5.8 45.7 Q13.85 45.5 19.55 39.8 22.25 37.15 23.75 34.05 M143.6 243.0 L143.6 482.95 74.2 457.25 5.65 479.3 5.65 243.0 143.6 243.0 M13.45 26.65 Q13.1 29.4 10.95 31.5 8.75 33.6 5.65 33.9 L5.65 26.65 13.45 26.65 M5.8 37.6 Q10.5 37.4 13.85 34.1 15.45 32.55 16.3 30.7 17.2 28.9 17.4 26.8 L17.4 26.65 21.35 26.65 Q21.0 32.6 16.45 36.95 11.95 41.3 5.65 41.6 L5.65 37.6 5.8 37.6 M95.75 429.45 L96.2 429.1 105.35 429.55 106.6 430.85 106.35 434.0 105.35 435.6 97.7 438.1 98.15 436.65 97.8 430.9 95.75 429.45 M96.9 431.45 L97.0 437.2 96.0 439.5 90.75 445.35 88.9 445.6 89.8 443.65 89.55 437.75 87.75 435.7 94.9 430.1 96.9 431.45 M95.55 428.15 L87.05 434.7 85.55 435.3 88.45 429.4 88.7 424.5 82.35 429.6 80.25 430.15 79.35 429.25 68.55 429.25 67.65 430.15 65.55 429.6 59.2 424.5 59.45 429.4 62.35 435.3 60.85 434.7 52.35 428.15 52.2 428.05 32.75 429.1 20.3 427.0 33.05 436.15 40.45 436.15 50.6 439.65 56.65 446.55 66.1 447.8 70.1 452.35 77.8 452.35 81.8 447.8 91.25 446.55 97.3 439.65 107.45 436.15 114.85 436.15 127.6 427.0 115.15 429.1 95.7 428.05 95.55 428.15 M87.95 426.25 L87.5 429.5 84.35 434.7 83.25 435.55 81.05 434.15 80.3 431.35 83.1 430.65 87.95 426.25 M88.5 438.2 L88.5 444.0 87.85 445.7 82.9 446.35 82.6 440.8 86.35 437.9 84.9 436.5 86.5 436.1 88.5 438.2 M115.3 430.1 L124.55 428.2 115.45 434.7 115.9 433.65 116.05 430.9 115.3 430.1 M114.75 431.5 L114.35 434.0 113.65 435.15 107.35 434.95 106.7 435.2 107.35 434.15 107.6 430.7 106.55 429.65 113.15 430.0 114.75 431.5 M119.0 427.6 L119.0 427.55 118.95 427.3 119.0 427.6 M81.7 446.5 L77.45 451.15 70.45 451.15 66.2 446.5 66.0 446.45 66.3 441.55 68.0 442.85 69.3 448.35 71.05 446.55 76.85 446.55 78.6 448.35 79.9 442.85 81.6 441.55 81.9 446.45 81.7 446.5 M46.2 445.4 L46.15 445.45 46.25 445.5 46.2 445.4 M40.55 434.15 L41.2 435.2 40.55 434.95 34.25 435.15 33.55 434.0 33.15 431.5 34.75 430.0 41.35 429.65 40.3 430.7 40.55 434.15 M51.7 429.1 L52.15 429.45 50.1 430.9 49.75 436.65 50.2 438.1 42.55 435.6 41.55 434.0 41.3 430.85 42.55 429.55 51.7 429.1 M51.0 431.45 L53.0 430.1 60.15 435.7 58.35 437.75 58.1 443.65 59.0 445.6 57.15 445.35 51.9 439.5 50.9 437.2 51.0 431.45 M60.4 429.5 L59.95 426.25 64.8 430.65 67.6 431.35 66.85 434.15 64.65 435.55 63.55 434.7 60.4 429.5 M59.4 438.2 L61.4 436.1 63.0 436.5 61.55 437.9 65.3 440.8 65.0 446.35 60.05 445.7 59.4 444.0 59.4 438.2 M75.85 443.6 L73.95 440.7 72.05 443.6 72.15 444.65 73.95 443.0 75.75 444.65 75.85 443.6 M63.0 437.75 L67.65 434.55 68.8 431.1 79.1 431.1 80.25 434.55 84.9 437.75 79.15 442.4 78.35 447.1 77.3 445.8 70.6 445.8 69.55 447.1 68.75 442.4 63.0 437.75 M65.6 438.45 L67.7 440.1 72.3 440.1 68.55 436.2 65.6 438.45 M75.6 440.1 L80.2 440.1 82.3 438.45 79.35 436.2 75.6 440.1 M32.6 430.1 L31.85 430.9 32.0 433.65 32.45 434.7 23.35 428.2 32.6 430.1" fill="url(#gradient1)" fill-rule="evenodd" stroke="none"/>
    <path d="M5.65 189.6 L143.6 189.6 143.6 201.6 5.65 201.6 5.65 189.6 M143.6 227.8 L143.6 243.0 5.65 243.0 5.65 227.8 143.6 227.8" fill="url(#gradient2)" fill-rule="evenodd" stroke="none"/>
    <path d="M143.6 201.6 Q145.35 206.0 145.5 211.05 145.45 215.65 143.6 221.0 L5.65 221.0 5.3 219.75 Q3.9 215.4 3.85 211.3 4.0 206.25 5.65 201.6 L143.6 201.6 M79.2 207.65 L79.1 207.35 79.1 207.7 79.2 207.65" fill="url(#gradient3)" fill-rule="evenodd" stroke="none"/>
    <path d="M143.6 221.0 L143.6 227.8 5.65 227.8 5.65 221.0 143.6 221.0 M69.4 225.0 L69.3 225.0 69.5 225.05 69.4 225.0" fill="url(#gradient4)" fill-rule="evenodd" stroke="none"/>
    <path d="M69.4 225.0 L69.5 225.05 69.3 225.0 69.4 225.0" fill="url(#gradient5)" fill-rule="evenodd" stroke="none"/>
    <path d="M79.2 207.65 L79.1 207.7 79.1 207.35 79.2 207.65" fill="url(#gradient6)" fill-rule="evenodd" stroke="none"/>
    <path d="M147.35 0.0 L147.35 198.15 148.25 201.6 Q150.85 213.05 147.35 223.3 L147.35 487.45 74.15 461.7 1.9 483.8 1.9 222.7 Q-1.35 211.45 0.95 201.6 L1.9 198.15 1.9 0.0 147.35 0.0 Z" fill="none" stroke="#35000a" stroke-linecap="round" stroke-linejoin="round" stroke-width="3.0"/>
  </g>
  <defs>
    <linearGradient gradientTransform="matrix(0.0, 0.0352, -0.0833, 1.0E-4, 376.55, 319.95)" gradientUnits="userSpaceOnUse" id="gradient0" spreadMethod="pad" x1="-819.2" x2="819.2">
      <stop offset="0.0" stop-color="#9e0402"/>
      <stop offset="1.0" stop-color="#690200"/>
    </linearGradient>
    <linearGradient gradientTransform="matrix(0.0, 0.0447, -0.0833, 1.0E-4, 376.55, 402.25)" gradientUnits="userSpaceOnUse" id="gradient1" spreadMethod="pad" x1="-819.2" x2="819.2">
      <stop offset="0.0" stop-color="#9e0402"/>
      <stop offset="1.0" stop-color="#690200"/>
    </linearGradient>
    <linearGradient gradientTransform="matrix(0.0, 0.0447, -0.0833, 1.0E-4, 376.55, 395.3)" gradientUnits="userSpaceOnUse" id="gradient2" spreadMethod="pad" x1="-819.2" x2="819.2">
      <stop offset="0.0" stop-color="#9e0402"/>
      <stop offset="1.0" stop-color="#690200"/>
    </linearGradient>
    <linearGradient gradientTransform="matrix(0.0, -0.0097, 0.0865, 0.0, 74.65, 201.9)" gradientUnits="userSpaceOnUse" id="gradient3" spreadMethod="pad" x1="-819.2" x2="819.2">
      <stop offset="0.0" stop-color="#9e0402"/>
      <stop offset="1.0" stop-color="#690200"/>
    </linearGradient>
    <linearGradient gradientTransform="matrix(0.0, 0.0447, -0.0833, 1.0E-4, 376.55, 600.4)" gradientUnits="userSpaceOnUse" id="gradient4" spreadMethod="pad" x1="-819.2" x2="819.2">
      <stop offset="0.0" stop-color="#9e0402"/>
      <stop offset="1.0" stop-color="#690200"/>
    </linearGradient>
    <linearGradient gradientTransform="matrix(2.0E-4, 0.0, 0.0, 1.0E-4, 69.5, 225.05)" gradientUnits="userSpaceOnUse" id="gradient5" spreadMethod="pad" x1="-819.2" x2="819.2">
      <stop offset="0.0" stop-color="#8e3600"/>
      <stop offset="1.0" stop-color="#ff9900"/>
    </linearGradient>
    <linearGradient gradientTransform="matrix(8.0E-4, -0.0845, 0.883, 0.0081, -271.1, 156.2)" gradientUnits="userSpaceOnUse" id="gradient6" spreadMethod="pad" x1="-819.2" x2="819.2">
      <stop offset="0.0" stop-color="#983900"/>
      <stop offset="1.0" stop-color="#ff9900"/>
    </linearGradient>
  </defs>
</svg>
