<?xml version="1.0" encoding="UTF-8" standalone="no"?>
<svg xmlns:ffdec="https://www.free-decompiler.com/flash" xmlns:xlink="http://www.w3.org/1999/xlink" ffdec:objectType="shape" height="457.3px" width="183.7px" xmlns="http://www.w3.org/2000/svg">
  <g transform="matrix(1.0, 0.0, 0.0, 1.0, 93.45, 218.15)">
    <path d="M-81.45 -143.15 L-81.5 -144.55 -81.5 -151.35 Q-81.5 -157.35 -81.15 -159.5 L-81.25 -159.75 -81.25 -169.6 -81.25 -179.25 -81.7 -179.75 -81.65 -180.8 -81.65 -183.8 Q-82.05 -185.85 -84.0 -186.8 -87.95 -188.65 -90.7 -193.2 L-93.35 -197.55 -93.35 -199.3 -93.35 -201.6 -93.35 -201.65 -93.4 -202.2 -93.45 -204.05 Q-93.6 -206.25 -92.7 -208.1 L-92.2 -209.25 Q-91.25 -211.75 -89.35 -214.05 -88.75 -214.3 -88.25 -214.7 -83.65 -218.8 -77.6 -216.8 L-75.5 -214.3 -68.1 -215.15 -59.9 -215.15 Q-49.7 -216.95 -39.0 -215.6 L-39.0 -215.75 -38.4 -215.75 -35.35 -215.65 -35.3 -215.65 -32.9 -215.85 -28.55 -215.95 -5.65 -215.95 14.95 -216.65 15.0 -216.75 15.15 -216.75 17.1 -216.35 20.1 -216.5 20.55 -216.45 20.8 -216.5 24.05 -216.7 28.9 -216.65 39.5 -216.5 44.25 -216.4 46.65 -216.15 52.55 -215.75 58.55 -216.3 72.6 -216.4 73.95 -217.9 73.95 -218.05 76.2 -218.1 76.35 -218.1 78.25 -217.95 Q85.15 -216.9 88.55 -210.05 L89.2 -208.65 89.45 -206.05 90.25 -204.55 90.2 -203.45 90.2 -203.4 90.25 -203.3 Q90.05 -196.25 85.65 -190.65 L77.55 -185.8 76.9 -183.15 76.4 -170.7 76.1 -168.15 75.65 -150.45 76.45 -149.2 76.55 -142.75 77.2 -141.7 77.2 -93.1 77.45 -92.8 77.75 -92.45 77.75 -89.9 77.75 -89.45 77.75 -79.9 Q78.3 -78.9 78.2 -77.65 L78.1 -75.35 78.1 -75.0 Q78.8 -73.0 78.7 -70.8 L78.6 -66.25 78.6 -65.5 78.7 -65.15 79.0 -64.75 79.0 -63.4 78.6 -63.3 78.6 -62.4 78.6 -59.15 78.6 -58.75 78.75 -58.3 79.0 -57.5 79.1 -57.1 79.1 -46.85 79.1 -35.8 79.1 -34.15 79.0 -33.9 79.0 -30.85 79.0 -27.85 78.8 -27.45 78.65 -26.7 78.6 -26.3 78.55 -25.95 78.25 -25.55 78.25 -24.95 78.35 -24.55 78.5 -24.2 78.5 -23.45 78.5 -22.3 78.5 -21.55 78.5 -21.45 78.4 -19.7 Q77.85 -18.2 77.9 -16.6 L78.0 -10.55 78.0 -6.75 78.0 -6.7 77.7 -6.15 78.0 -6.65 78.1 -6.35 78.25 -6.05 78.35 -5.7 78.5 -5.4 78.5 -5.05 78.5 -4.35 78.5 -3.7 78.5 -3.0 78.5 -2.35 78.6 -2.05 78.75 -1.7 78.85 -1.35 79.0 -1.0 79.0 2.35 79.0 3.0 79.0 8.35 79.0 15.4 79.0 22.15 78.95 28.6 78.05 38.95 78.2 40.0 Q79.85 55.25 79.55 70.55 79.25 87.0 80.15 103.25 80.75 113.4 81.7 123.75 L81.85 126.45 Q82.45 152.8 84.0 179.65 L84.15 182.3 84.35 186.85 Q84.65 191.9 85.4 196.85 L85.7 201.2 -0.05 239.0 Q-5.8 239.6 -11.15 237.4 -14.35 236.15 -17.15 234.65 -20.25 233.15 -23.7 232.45 -26.05 232.05 -28.25 230.95 -29.45 230.4 -30.8 230.1 L-87.55 205.9 -89.8 202.8 -86.3 107.2 -85.65 106.25 -84.3 72.8 -83.3 71.5 -83.3 53.35 -82.3 52.0 -80.3 12.95 -80.35 -1.3 -80.45 -14.05 -80.65 -14.2 -80.7 -14.55 -80.85 -14.95 -81.15 -15.7 -81.5 -16.1 -81.7 -22.55 -81.65 -23.65 -81.25 -24.1 -81.2 -24.95 Q-81.2 -28.8 -80.7 -33.05 L-80.7 -42.75 -80.9 -45.25 -81.0 -45.5 -81.2 -50.4 -81.15 -52.4 -81.65 -51.85 -81.65 -57.55 -81.65 -58.7 -81.5 -59.05 -81.4 -59.45 -81.15 -60.2 -81.2 -62.85 -80.85 -66.25 -80.65 -67.05 -80.7 -69.3 -80.5 -71.65 -80.55 -72.45 -80.7 -74.0 -80.9 -74.25 -81.5 -141.5 -81.4 -142.3 -81.45 -143.15 M76.15 -212.65 L76.05 -212.65 75.75 -212.35 72.8 -212.35 70.2 -212.55 69.6 -212.4 51.5 -212.4 46.6 -211.85 43.35 -211.65 25.25 -211.65 22.1 -211.95 1.1 -211.9 Q-0.75 -211.2 -4.3 -211.15 L-9.75 -211.15 -17.9 -211.15 -18.8 -210.9 -38.0 -210.9 -38.75 -211.0 -38.9 -211.05 -41.8 -211.5 -42.75 -211.65 -47.05 -211.9 -51.2 -211.7 -51.9 -211.65 -53.75 -211.55 -55.35 -211.4 -74.5 -211.4 -75.0 -210.8 Q-77.2 -210.6 -78.1 -209.05 L-78.6 -207.15 -79.0 -205.4 -79.05 -205.25 -79.15 -204.8 -79.15 -204.75 -79.8 -200.9 -79.8 -197.45 -79.6 -193.95 -79.55 -193.65 -79.35 -192.15 -79.35 -192.0 -78.9 -189.35 -78.15 -186.7 Q-77.6 -184.95 -77.55 -183.9 L-77.35 -181.7 -77.3 -181.65 -76.65 -175.8 -76.55 -175.65 -76.25 -175.3 -76.25 -175.2 -76.25 -174.05 -76.25 -172.45 -76.25 -172.3 -76.25 -165.85 -76.25 -165.35 -76.25 -164.1 -76.25 -162.95 -76.25 -162.85 -76.3 -162.2 -76.4 -161.8 -76.7 -161.4 -76.75 -161.05 -76.75 -159.9 -76.75 -155.0 -76.75 -150.45 -76.65 -150.05 -76.5 -149.7 -76.4 -149.3 -76.25 -148.9 -76.25 -147.8 -76.3 -146.25 -76.15 -145.15 -76.0 -144.75 -75.9 -144.55 -75.75 -139.4 -75.5 -137.45 -75.4 -128.5 -75.35 -127.0 -75.55 -96.8 -76.05 -72.15 -76.05 -71.95 -76.15 -71.45 -76.2 -69.2 Q-76.15 -68.2 -76.4 -67.3 L-76.7 -66.85 -76.75 -66.5 -76.75 -65.4 -76.7 -63.6 -76.7 -62.35 -76.7 -61.45 -76.7 -60.9 -76.7 -58.25 -76.7 -57.65 -76.6 -57.45 -76.55 -57.25 -76.45 -56.8 -76.45 -51.5 -76.4 -48.15 -76.55 -45.05 -76.65 -44.6 -76.7 -43.85 -76.75 -42.9 -76.75 -42.6 -76.7 -41.15 -76.7 -40.25 -76.7 -39.6 -76.75 -39.4 -76.85 -39.0 -76.95 -38.6 -76.95 -37.15 -76.95 -35.5 -76.95 -34.9 -76.95 -34.7 -77.05 -34.5 -77.1 -34.3 -77.15 -34.25 -77.15 -31.15 -77.15 -26.3 -77.25 -26.3 -77.3 -22.8 -77.15 -16.35 -76.85 -16.05 -76.75 -15.95 -76.7 -15.95 -76.7 -15.4 -75.4 -13.75 -74.6 -12.85 -74.1 -12.3 -73.85 -12.1 -72.8 -11.15 Q-67.6 -6.55 -58.9 -3.1 -54.8 -1.5 -48.0 0.8 L-47.7 0.95 -46.95 1.3 -46.25 1.4 -38.15 4.1 -35.15 5.05 -27.85 7.85 Q-16.8 11.95 -11.3 12.85 L-5.2 13.75 -1.65 14.45 2.15 14.65 Q5.3 14.45 13.0 12.0 18.35 10.75 24.65 8.25 L30.55 5.75 42.65 1.1 46.2 -0.1 46.45 -0.15 Q47.75 -1.0 48.75 -1.35 49.8 -1.7 55.95 -4.6 59.5 -6.3 61.1 -6.85 65.5 -9.8 67.7 -12.4 L68.25 -13.3 68.75 -13.95 69.1 -14.6 69.65 -16.25 70.35 -18.25 70.65 -19.05 71.25 -20.8 71.55 -21.3 71.6 -21.55 71.65 -21.65 71.75 -22.05 72.1 -22.5 72.25 -22.75 72.55 -23.6 72.9 -24.4 72.9 -24.85 72.9 -25.25 72.95 -25.3 73.1 -25.55 73.25 -26.2 73.55 -27.05 74.25 -28.35 74.25 -31.6 74.25 -32.75 74.25 -33.3 74.55 -33.4 74.4 -35.45 74.35 -35.5 74.35 -35.95 74.4 -36.0 74.6 -36.35 74.6 -38.4 74.6 -51.9 74.6 -64.2 74.3 -64.65 74.15 -66.65 73.85 -67.4 73.75 -67.7 73.75 -69.9 73.75 -70.15 73.75 -70.2 73.75 -70.45 73.75 -70.55 73.85 -72.35 73.85 -72.4 73.75 -74.05 73.45 -75.15 73.35 -75.35 Q73.15 -76.1 73.2 -76.9 L73.25 -78.8 73.25 -80.3 73.2 -80.35 Q73.15 -81.9 72.75 -83.1 L71.9 -146.5 72.1 -146.75 72.25 -147.9 72.2 -149.05 72.1 -149.8 71.95 -150.15 71.85 -150.4 71.75 -158.9 72.0 -159.3 72.15 -159.7 72.25 -160.05 72.25 -161.2 72.25 -163.1 72.25 -164.6 72.1 -164.95 72.0 -165.35 71.85 -165.75 71.75 -166.1 71.75 -167.25 71.85 -176.35 71.8 -180.8 72.15 -184.1 72.25 -185.5 Q72.7 -187.5 73.05 -192.35 L73.4 -200.5 73.35 -204.45 73.35 -204.55 73.35 -205.25 73.35 -205.3 72.9 -210.45 Q74.65 -207.05 75.1 -202.9 L75.3 -195.45 Q75.05 -193.15 75.2 -192.1 L75.1 -190.05 Q75.05 -188.8 75.7 -188.8 L75.85 -188.85 75.8 -188.55 78.6 -191.45 79.9 -191.9 Q81.7 -192.45 83.1 -195.75 L83.15 -195.8 83.3 -196.15 Q85.5 -200.45 85.5 -204.0 L85.5 -206.05 86.15 -207.4 Q86.15 -210.15 83.45 -212.9 82.35 -214.0 81.75 -214.0 L80.4 -214.5 Q79.3 -214.75 78.15 -213.45 L78.1 -213.4 77.9 -213.4 76.45 -213.0 76.2 -212.7 76.15 -212.65 M74.25 -16.65 L74.25 -19.8 74.1 -19.5 74.0 -19.1 73.7 -18.7 73.6 -18.35 73.35 -17.65 72.75 -16.85 72.6 -16.45 72.5 -16.1 72.35 -15.7 71.95 -15.0 71.65 -14.55 71.25 -13.8 71.0 -13.05 70.7 -12.75 70.6 -12.65 70.25 -12.3 70.1 -11.9 70.0 -11.55 69.5 -11.1 68.85 -10.4 68.65 -10.0 68.5 -9.65 68.1 -9.25 67.75 -8.9 66.75 -8.75 65.55 -7.65 64.9 -6.95 58.2 -2.85 57.9 -2.65 51.2 -0.05 46.95 1.65 42.5 3.3 35.3 6.35 Q23.4 12.05 6.75 15.8 L5.45 16.3 3.9 16.35 Q-3.4 16.35 -15.9 13.2 -23.25 11.3 -28.95 9.2 L-30.4 8.85 -30.65 8.75 -31.45 8.4 Q-35.15 7.1 -39.3 6.2 L-41.75 5.25 -43.6 4.65 -46.25 3.65 -47.45 3.15 -48.95 2.55 -54.85 0.9 -58.45 -0.35 -58.75 -0.45 -60.55 -0.95 -62.75 -1.45 -63.05 -1.75 -63.25 -2.0 -64.25 -2.3 -68.2 -3.8 -69.3 -4.25 -72.55 -6.75 -73.0 -7.05 -73.9 -7.75 -73.95 -7.8 -74.25 -8.0 -74.7 -8.35 -74.75 -8.4 -75.2 -8.55 -75.4 -8.75 -75.75 -9.15 -76.3 -9.55 -76.45 -9.7 -76.75 -9.9 -76.75 -7.85 -76.75 -5.3 -76.8 -5.35 -76.65 -0.95 -76.6 -0.95 -76.55 -0.15 Q-76.25 11.2 -76.6 22.45 -77.0 36.45 -77.9 50.5 -78.3 57.1 -78.85 63.7 L-78.9 65.1 Q-78.75 72.2 -80.8 78.75 L-84.8 186.05 -84.2 190.6 Q-83.75 191.15 -83.8 191.9 L-83.85 192.2 -83.9 193.2 -83.65 194.9 -83.65 194.95 -83.55 195.05 -83.5 195.25 Q-83.3 195.7 -83.35 196.25 L-83.35 196.9 -83.4 197.6 -83.4 198.2 -83.35 198.25 -83.2 198.4 -83.15 198.95 -83.15 199.1 -83.0 199.25 -82.9 199.9 -82.9 200.8 -82.9 200.85 -82.8 201.7 -82.2 201.9 -59.55 214.1 -48.15 218.55 -46.05 218.05 -41.9 221.35 -41.6 221.45 -41.3 221.65 -40.35 222.15 -39.45 222.25 -37.65 222.1 -16.8 230.85 -1.4 234.45 Q19.5 227.7 36.65 218.1 L37.85 218.45 45.2 216.05 67.95 205.0 68.3 205.2 69.45 205.4 70.45 204.7 71.2 204.05 74.45 202.65 Q76.65 201.6 78.95 200.7 L79.5 200.1 80.85 198.65 81.2 198.0 80.75 197.6 80.95 197.55 81.1 197.35 81.1 197.0 81.1 195.8 81.1 195.75 81.1 195.35 81.1 195.1 81.1 194.45 81.1 194.15 81.1 193.65 80.75 193.35 80.7 193.35 81.1 192.7 81.1 192.3 81.1 191.65 81.1 191.0 80.75 190.65 80.5 190.65 80.4 188.55 79.35 165.55 79.25 163.55 78.3 139.2 77.9 136.8 77.8 136.15 Q78.1 124.7 76.85 113.4 75.7 103.15 75.5 92.85 L75.5 78.3 Q75.7 67.4 75.25 56.45 74.7 43.95 75.25 37.0 L75.7 30.4 75.05 -4.35 75.05 -4.3 74.95 -8.5 75.0 -8.5 75.15 -8.55 75.25 -8.65 75.3 -9.0 75.25 -9.1 75.15 -9.7 75.2 -10.7 75.2 -10.75 75.1 -10.95 75.05 -11.15 75.05 -11.5 Q74.85 -11.9 74.9 -12.35 L74.95 -13.4 74.95 -14.2 74.9 -14.4 74.8 -14.6 74.75 -14.8 74.7 -15.0 74.7 -16.25 74.7 -17.5 74.7 -17.55 74.6 -17.35 74.25 -16.65 M-84.15 -213.1 L-84.2 -213.4 Q-84.7 -214.55 -86.8 -211.8 L-87.0 -211.45 Q-87.7 -211.05 -88.25 -210.0 L-88.55 -209.2 -88.6 -209.2 -88.85 -209.0 -88.9 -209.0 -88.85 -208.45 -89.1 -207.9 Q-89.5 -207.05 -89.55 -205.75 L-89.55 -203.7 Q-89.55 -200.45 -88.2 -198.05 L-86.85 -194.9 Q-86.05 -193.15 -85.25 -192.65 L-85.1 -192.25 -82.9 -191.55 -83.4 -194.65 -82.6 -198.75 -82.75 -199.5 Q-82.25 -200.2 -81.9 -201.65 L-81.4 -205.15 -80.55 -208.0 Q-79.85 -208.65 -79.25 -210.25 -78.5 -212.25 -78.5 -213.3 -78.5 -215.4 -79.85 -214.45 L-80.2 -214.7 Q-81.25 -215.25 -82.75 -214.25 L-83.05 -214.05 -84.15 -213.1" fill="#100d15" fill-rule="evenodd" stroke="none"/>
    <path d="M-75.0 -210.8 L-74.5 -211.4 -55.35 -211.4 -53.75 -211.55 -51.9 -211.65 -51.2 -211.7 -47.05 -211.9 -42.75 -211.65 -41.8 -211.5 -38.9 -211.05 -38.75 -211.0 -38.0 -210.9 -18.8 -210.9 -17.9 -211.15 -9.75 -211.15 -4.3 -211.15 Q-0.75 -211.2 1.1 -211.9 L22.1 -211.95 25.25 -211.65 43.35 -211.65 46.6 -211.85 51.5 -212.4 69.6 -212.4 70.2 -212.55 72.8 -212.35 75.75 -212.35 76.05 -212.65 76.15 -212.65 76.1 -212.45 75.4 -212.1 Q75.0 -211.75 75.0 -211.2 L75.2 -210.75 73.9 -210.65 74.65 -209.2 Q75.5 -206.95 75.75 -204.65 L76.2 -199.95 76.0 -199.5 76.1 -197.7 76.2 -196.5 76.2 -195.4 76.2 -192.0 Q76.1 -189.3 75.85 -188.85 L75.7 -188.8 Q75.05 -188.8 75.1 -190.05 L75.2 -192.1 Q75.05 -193.15 75.3 -195.45 L75.1 -202.9 Q74.65 -207.05 72.9 -210.45 L73.35 -205.3 73.35 -205.25 73.35 -204.55 73.35 -204.45 73.4 -200.5 73.05 -192.35 Q72.7 -187.5 72.25 -185.5 L72.15 -184.1 71.8 -180.8 71.35 -185.05 71.25 -185.45 71.25 -185.9 71.3 -186.1 71.6 -191.95 71.8 -201.65 Q71.8 -205.4 70.7 -211.75 L70.3 -211.55 70.35 -211.1 70.35 -206.95 70.45 -205.5 70.4 -203.65 70.55 -202.45 70.65 -198.9 70.65 -196.85 Q70.55 -194.0 70.2 -193.6 69.85 -193.1 68.75 -192.85 L68.15 -193.4 Q67.2 -192.9 65.7 -192.85 L60.45 -192.9 59.7 -192.9 59.1 -192.45 49.7 -192.45 49.05 -192.6 11.8 -192.75 4.0 -193.05 2.15 -193.25 -4.85 -193.25 -7.5 -193.1 -7.8 -193.05 -11.75 -192.7 -17.6 -192.15 -38.25 -192.0 -38.85 -191.85 -42.45 -191.75 -45.95 -191.9 -52.25 -192.1 -58.35 -192.15 -58.35 -192.0 -64.2 -191.7 -67.55 -191.6 -70.9 -191.8 -74.55 -192.25 -75.3 -192.45 -76.35 -192.45 Q-77.2 -193.1 -77.45 -195.3 L-77.5 -197.35 -77.5 -197.45 -77.2 -203.35 -76.75 -206.4 -76.0 -208.85 -75.0 -210.8 M72.35 -206.45 L72.4 -206.25 72.4 -206.5 72.35 -206.45 M-74.35 -184.45 L-74.85 -187.2 -74.65 -187.1 -74.7 -188.0 -74.2 -188.45 Q-73.25 -189.4 -72.75 -189.6 L-65.15 -190.3 -42.75 -190.4 -41.75 -190.1 -7.8 -190.8 35.35 -189.35 35.4 -189.3 39.6 -189.3 39.45 -189.4 60.45 -190.85 60.7 -191.15 62.95 -191.15 67.85 -191.1 68.1 -191.15 68.55 -190.55 68.85 -187.8 68.8 -185.55 68.65 -184.95 68.75 -184.7 68.75 -184.3 68.75 -183.95 68.75 -183.55 68.75 -183.15 68.6 -182.8 68.45 -182.45 68.25 -182.05 68.25 -182.0 68.25 -177.25 68.25 -171.15 68.25 -170.05 68.35 -169.65 68.5 -169.25 68.6 -168.9 68.75 -168.5 68.75 -167.0 68.75 -165.8 68.85 -165.45 68.85 -153.75 69.1 -152.5 69.25 -152.3 69.25 -152.1 69.25 -151.95 69.25 -150.45 69.25 -149.3 69.55 -148.9 69.7 -148.65 69.7 -78.95 69.65 -78.3 Q69.6 -77.8 69.7 -77.35 L69.7 -67.95 69.95 -68.1 70.0 -68.15 70.25 -68.05 70.3 -64.9 70.3 -64.65 70.4 -64.65 70.55 -64.4 70.55 -63.2 70.55 -61.95 70.55 -61.75 70.65 -61.35 70.75 -60.95 70.8 -60.75 70.8 -55.2 70.8 -49.9 70.8 -49.05 Q71.25 -46.35 71.15 -43.55 L71.05 -38.2 71.05 -37.4 71.05 -37.2 70.95 -36.95 70.9 -36.75 70.8 -36.35 70.8 -35.95 70.8 -35.15 70.8 -33.95 70.8 -33.55 70.8 -33.35 70.7 -33.15 70.65 -32.95 70.6 -32.55 70.55 -32.15 70.55 -31.7 70.55 -31.5 70.45 -31.3 70.4 -31.1 70.3 -30.5 70.3 -29.85 70.3 -29.65 70.25 -29.45 70.15 -29.05 70.05 -28.85 70.05 -28.25 70.05 -27.6 70.05 -27.4 70.0 -27.2 69.9 -26.8 69.8 -26.6 69.8 -26.4 69.8 -26.2 69.75 -26.0 Q69.45 -25.5 69.5 -24.95 L69.55 -23.95 69.5 -23.75 69.4 -23.5 69.35 -23.3 69.3 -23.1 69.25 -22.9 69.05 -22.7 69.05 -22.5 69.05 -22.3 69.05 -22.1 69.05 -21.9 68.85 -21.5 68.85 -21.4 68.7 -21.2 68.45 -20.6 68.25 -20.4 67.35 -18.85 66.65 -17.7 66.35 -17.4 Q65.4 -16.0 62.6 -13.6 59.4 -10.3 57.35 -9.55 L56.7 -9.2 Q54.5 -8.0 50.45 -6.2 L43.45 -2.8 37.25 0.05 36.3 0.65 Q34.15 1.3 32.0 2.25 L22.95 6.2 Q16.45 8.65 8.25 10.95 L4.65 12.05 4.25 12.05 3.4 12.0 1.9 12.2 -10.0 11.15 -17.9 9.0 Q-23.8 7.4 -27.15 6.0 L-39.3 1.4 Q-41.6 0.55 -43.0 0.25 L-43.65 -0.15 -43.95 -0.35 Q-47.75 -1.25 -55.1 -4.7 -62.9 -8.35 -65.65 -9.25 L-67.05 -10.25 -69.45 -11.9 -71.15 -13.0 Q-73.25 -14.7 -73.65 -16.35 L-74.2 -19.15 -74.3 -21.6 -74.2 -23.2 -74.2 -23.35 -74.55 -28.05 -74.55 -28.7 -74.6 -32.95 Q-74.6 -37.4 -74.25 -41.6 L-74.25 -57.3 -74.2 -58.55 -74.3 -58.75 -74.4 -59.15 -74.4 -59.55 -74.4 -60.75 -73.9 -66.4 -73.7 -67.55 -73.75 -69.8 -73.75 -71.7 -74.05 -72.05 -74.35 -72.4 -74.05 -96.35 Q-73.85 -97.35 -73.75 -99.7 L-73.4 -103.1 -73.15 -117.75 -73.0 -117.85 -72.8 -117.95 -72.9 -118.45 Q-73.45 -119.5 -73.35 -120.75 L-73.25 -123.4 -73.25 -124.15 -73.2 -124.5 -72.9 -124.9 Q-72.65 -128.5 -72.7 -132.1 L-72.7 -139.15 -72.7 -140.1 -72.7 -140.4 -72.9 -141.2 Q-73.5 -142.6 -73.4 -144.25 -73.25 -145.95 -73.25 -147.65 L-73.25 -148.8 -73.3 -149.15 -73.5 -149.55 -73.75 -149.95 -73.75 -151.05 -73.75 -152.6 -73.75 -153.35 -73.7 -153.7 -73.65 -153.75 -73.8 -161.7 -73.75 -164.65 -73.75 -164.95 -73.7 -165.75 -73.65 -165.95 -73.6 -167.1 -73.45 -168.7 -73.5 -168.75 -73.75 -169.15 -73.75 -171.05 -73.75 -173.7 -73.75 -174.85 -73.65 -175.2 -73.5 -175.6 -73.65 -175.95 -73.75 -176.35 -73.75 -176.75 -73.75 -177.5 -73.75 -178.25 -73.75 -178.6 -73.8 -179.0 -74.0 -179.4 -74.25 -179.75 -74.25 -181.3 -74.25 -182.8 -74.25 -183.55 -74.25 -183.95 -74.2 -184.0 -74.35 -184.45 M-74.45 29.4 L-74.15 24.75 -74.15 8.3 -74.05 7.95 -74.05 0.05 -74.05 -0.05 -74.1 -2.5 -73.8 -2.2 -73.8 -2.25 -73.8 -2.85 -73.9 -3.05 -74.0 -3.3 -74.05 -3.5 -74.05 -3.7 -73.95 -3.85 -73.75 -4.0 -73.75 -4.05 -73.65 -4.0 -73.55 -4.0 -73.35 -3.95 -73.25 -3.8 -73.1 -3.7 Q-70.5 -1.8 -69.2 -1.6 L-69.2 -1.45 -68.35 -0.9 -67.9 -0.45 -65.4 0.45 Q-62.9 1.2 -60.9 2.2 -58.9 2.7 -57.05 3.35 L-54.25 4.3 -51.0 5.4 -49.95 5.85 -46.75 6.3 -46.65 6.3 -46.25 6.4 -45.6 6.75 -44.6 7.3 -42.3 7.85 -39.95 8.85 -38.05 9.8 -35.9 10.45 Q-34.65 10.7 -34.65 11.0 L-33.9 11.3 Q-30.5 11.7 -27.8 12.75 -15.4 17.05 -5.7 18.55 3.95 20.0 7.1 18.7 L7.25 18.65 7.65 18.65 9.05 18.15 Q8.15 18.75 15.7 16.05 L37.3 7.8 38.3 7.35 Q39.85 7.05 45.0 4.85 L47.35 3.85 47.5 3.8 48.3 3.45 51.6 1.85 57.05 -0.45 Q60.45 -2.0 61.7 -3.05 L64.5 -4.8 64.8 -5.15 65.7 -5.7 66.25 -6.0 66.6 -6.05 69.4 -9.5 69.95 -10.25 70.7 -11.0 70.95 -11.25 72.0 -12.15 72.0 -12.2 72.05 -12.2 72.2 -12.15 72.4 -12.15 72.55 -11.95 72.55 -9.1 72.55 -6.0 72.55 -5.4 72.55 -5.2 72.4 -5.0 72.3 -5.0 72.35 -3.1 72.4 -3.15 72.45 -2.75 Q73.25 22.0 72.85 46.95 72.45 76.05 73.35 104.95 L73.65 111.5 73.65 117.15 Q73.25 124.25 74.35 131.35 74.85 134.65 74.95 137.7 75.45 154.2 76.55 170.55 L77.6 189.7 Q64.5 195.1 41.4 203.5 3.35 217.3 -2.25 217.3 -5.4 217.3 -9.55 214.95 L-10.65 214.35 Q-25.35 211.8 -43.8 206.05 L-81.8 192.9 Q-82.1 178.85 -81.05 164.75 -79.8 147.85 -80.15 130.85 -80.25 125.1 -79.3 119.6 L-79.05 116.95 Q-78.95 99.55 -77.7 82.55 L-76.55 68.2 -76.45 66.6 Q-76.1 50.15 -74.4 34.15 L-74.5 33.85 -74.55 32.65 -74.45 29.4" fill="#4c3a55" fill-rule="evenodd" stroke="none"/>
    <path d="M75.85 -188.85 Q76.1 -189.3 76.2 -192.0 L76.2 -195.4 76.2 -196.5 76.1 -197.7 76.0 -199.5 76.2 -199.95 75.75 -204.65 Q75.5 -206.95 74.65 -209.2 L73.9 -210.65 75.2 -210.75 75.0 -211.2 Q75.0 -211.75 75.4 -212.1 L76.1 -212.45 76.15 -212.5 77.25 -212.4 77.05 -212.15 77.0 -211.7 77.4 -210.45 Q77.8 -209.0 78.75 -206.3 L78.85 -206.0 79.25 -204.15 79.4 -201.65 79.4 -200.85 79.3 -199.9 Q79.05 -198.15 78.3 -196.4 77.15 -193.85 77.15 -193.15 L77.15 -192.3 77.15 -192.25 Q77.35 -191.45 78.3 -191.45 L78.6 -191.45 75.8 -188.55 75.85 -188.85 M-79.15 -204.8 L-79.05 -205.25 -79.05 -205.2 -79.1 -205.05 -79.15 -204.8 M80.5 190.65 L80.75 190.65 81.1 191.0 81.1 191.65 81.1 192.3 81.1 192.7 80.7 193.35 Q80.3 193.95 79.5 194.2 L79.25 194.15 79.1 194.2 78.35 194.9 78.2 195.0 78.1 195.05 77.7 195.2 77.65 195.25 76.95 195.35 76.75 195.5 76.6 195.55 75.7 196.15 74.75 196.6 73.75 196.55 61.5 201.75 59.95 201.5 48.2 205.25 Q26.45 215.45 2.95 221.85 L-0.2 222.75 -2.25 222.95 Q-12.1 222.05 -21.5 218.45 -24.25 217.3 -27.15 216.5 -42.85 211.6 -58.2 206.2 L-64.0 203.8 -79.5 198.45 -81.4 197.55 -81.75 197.35 -82.35 197.25 -82.4 197.2 -82.75 196.9 -83.0 196.9 -83.35 196.9 -83.35 196.25 Q-83.3 195.7 -83.5 195.25 L-83.55 195.05 -83.45 194.85 Q-83.4 194.6 -83.05 194.6 L-83.0 194.6 -81.8 194.65 -81.75 194.65 -81.45 194.8 -56.1 203.9 -1.2 221.55 72.95 194.05 73.2 193.8 74.65 193.25 75.95 192.05 76.0 192.3 76.3 192.15 76.95 191.95 76.95 191.8 77.55 191.85 77.7 191.7 Q78.2 191.35 78.95 191.15 L80.1 190.65 80.5 190.65 M80.75 197.6 L81.2 198.0 80.85 198.65 79.5 200.1 78.95 200.7 Q76.65 201.6 74.45 202.65 L71.2 204.05 70.45 204.7 69.45 205.4 68.3 205.2 67.95 205.0 45.2 216.05 37.85 218.45 36.65 218.1 Q19.5 227.7 -1.4 234.45 L-16.8 230.85 -37.65 222.1 -39.45 222.25 -40.35 222.15 -41.3 221.65 -41.6 221.45 -41.9 221.35 -46.05 218.05 -48.15 218.55 -59.55 214.1 -82.2 201.9 -79.55 200.85 -60.3 209.7 -58.2 209.45 -26.8 221.15 -2.9 229.2 Q8.35 227.5 18.6 222.4 23.6 219.9 28.9 217.7 39.3 213.5 49.45 208.9 L70.95 201.2 Q72.05 200.55 73.25 200.05 L74.95 199.4 75.8 198.75 76.0 198.8 76.5 198.6 77.5 198.35 77.85 198.25 Q78.4 198.0 79.0 197.7 L79.75 197.35 79.8 197.3 79.85 197.45 80.7 197.6 80.75 197.6" fill="#a53f00" fill-rule="evenodd" stroke="none"/>
    <path d="M76.1 -212.45 L76.15 -212.65 76.2 -212.7 76.45 -213.0 77.9 -213.4 78.1 -213.4 78.15 -213.45 Q79.3 -214.75 80.4 -214.5 L81.75 -214.0 Q81.25 -214.0 81.0 -213.4 80.75 -212.8 80.75 -211.55 80.6 -209.75 80.85 -207.95 81.15 -205.9 82.0 -205.0 L82.3 -204.75 Q82.8 -204.4 83.5 -204.4 L84.55 -205.0 84.7 -205.15 85.1 -205.6 85.5 -206.05 85.5 -204.0 Q85.5 -200.45 83.3 -196.15 L83.15 -195.8 83.1 -195.75 Q81.7 -192.45 79.9 -191.9 L78.6 -191.45 78.3 -191.45 Q77.35 -191.45 77.15 -192.25 L77.15 -192.3 77.15 -193.15 Q77.15 -193.85 78.3 -196.4 79.05 -198.15 79.3 -199.9 L79.4 -200.85 79.4 -201.65 79.25 -204.15 78.85 -206.0 78.75 -206.3 Q77.8 -209.0 77.4 -210.45 L77.0 -211.7 77.05 -212.15 77.25 -212.4 76.15 -212.5 76.1 -212.45 M-82.8 201.7 L-82.9 200.85 -82.85 200.85 -82.6 200.95 -82.8 201.7 M-83.15 198.95 L-83.2 198.4 -83.15 198.45 -83.15 198.6 -83.15 198.95 M-84.15 -213.1 L-83.05 -214.05 -82.75 -214.25 Q-81.25 -215.25 -80.2 -214.7 L-79.85 -214.45 -80.65 -213.85 -80.9 -213.6 -82.1 -212.0 -82.55 -211.0 -82.55 -210.9 -82.85 -209.15 Q-82.8 -207.7 -81.6 -207.65 L-81.5 -207.65 Q-81.0 -207.65 -80.55 -208.0 L-81.4 -205.15 -81.9 -201.65 Q-82.25 -200.2 -82.75 -199.5 L-82.6 -198.75 -83.1 -199.15 Q-83.45 -198.9 -83.85 -198.9 -84.2 -198.9 -84.6 -199.7 L-85.5 -201.3 -86.3 -203.55 -87.15 -205.4 -87.1 -206.4 -87.0 -207.4 -86.4 -208.35 Q-86.0 -211.1 -84.3 -212.9 L-84.15 -213.1 M-88.6 -209.2 L-88.55 -209.2 -88.7 -208.85 -88.75 -209.0 -88.6 -209.2" fill="#ff9900" fill-rule="evenodd" stroke="none"/>
    <path d="M-75.0 -210.8 L-76.0 -208.85 -76.75 -206.4 -77.2 -203.35 -77.5 -197.45 -77.5 -197.35 -77.45 -195.3 Q-77.2 -193.1 -76.35 -192.45 L-75.3 -192.45 -74.55 -192.25 -70.9 -191.8 -67.55 -191.6 -64.2 -191.7 -58.35 -192.0 -58.35 -192.15 -52.25 -192.1 -45.95 -191.9 -42.45 -191.75 -38.85 -191.85 -38.25 -192.0 -17.6 -192.15 -11.75 -192.7 -7.8 -193.05 -7.5 -193.1 -4.85 -193.25 2.15 -193.25 4.0 -193.05 11.8 -192.75 49.05 -192.6 49.7 -192.45 59.1 -192.45 59.7 -192.9 60.45 -192.9 65.7 -192.85 Q67.2 -192.9 68.15 -193.4 L68.75 -192.85 Q69.85 -193.1 70.2 -193.6 70.55 -194.0 70.65 -196.85 L70.65 -198.9 70.55 -202.45 70.4 -203.65 70.45 -205.5 70.35 -206.95 70.35 -211.1 70.3 -211.55 70.7 -211.75 Q71.8 -205.4 71.8 -201.65 L71.6 -191.95 71.3 -186.1 71.25 -185.9 71.25 -185.45 71.35 -185.05 71.8 -180.8 71.85 -176.35 71.75 -167.25 71.75 -166.1 71.85 -165.75 72.0 -165.35 72.1 -164.95 72.25 -164.6 72.25 -163.1 72.25 -161.2 72.25 -160.05 72.15 -159.7 72.0 -159.3 71.75 -158.9 71.85 -150.4 71.95 -150.15 72.1 -149.8 72.2 -149.05 72.25 -147.9 72.1 -146.75 71.9 -146.5 72.75 -83.1 Q73.15 -81.9 73.2 -80.35 L73.25 -80.3 73.25 -78.8 73.2 -76.9 Q73.15 -76.1 73.35 -75.35 L73.45 -75.15 73.75 -74.05 73.85 -72.4 73.85 -72.35 73.75 -70.55 73.75 -70.45 73.75 -70.2 73.75 -70.15 73.75 -69.9 73.65 -68.55 73.75 -67.7 73.85 -67.4 74.15 -66.65 74.3 -64.65 74.6 -64.2 74.6 -51.9 74.6 -38.4 74.6 -36.35 74.4 -36.0 74.35 -35.95 74.35 -35.5 74.4 -35.45 74.55 -33.4 74.25 -33.3 74.25 -32.75 74.25 -31.6 74.25 -28.35 73.55 -27.05 73.25 -26.2 73.1 -25.55 72.95 -25.3 72.9 -25.25 72.9 -24.85 72.9 -24.4 72.55 -23.6 72.25 -22.75 72.1 -22.5 71.75 -22.05 71.65 -21.65 71.6 -21.55 71.55 -21.3 71.25 -20.8 70.65 -19.05 70.35 -18.25 69.65 -16.25 69.1 -14.6 68.75 -13.95 68.25 -13.3 67.7 -12.4 Q65.5 -9.8 61.1 -6.85 59.5 -6.3 55.95 -4.6 49.8 -1.7 48.75 -1.35 47.75 -1.0 46.45 -0.15 L46.2 -0.1 42.65 1.1 30.55 5.75 24.65 8.25 Q18.35 10.75 13.0 12.0 5.3 14.45 2.15 14.65 L-1.65 14.45 -5.2 13.75 -11.3 12.85 Q-16.8 11.95 -27.85 7.85 L-35.15 5.05 -38.15 4.1 -46.25 1.4 -47.7 0.9 -48.0 0.8 Q-54.8 -1.5 -58.9 -3.1 -67.6 -6.55 -72.8 -11.15 L-73.85 -12.1 -74.1 -12.3 -74.6 -12.85 -75.4 -13.75 -76.7 -15.4 -76.7 -15.95 -76.75 -15.95 -76.85 -16.05 -77.15 -16.35 -77.3 -22.8 -77.25 -26.3 -77.15 -26.3 -77.15 -31.15 -77.15 -34.25 -77.1 -34.3 -77.05 -34.5 -76.95 -34.7 -76.95 -34.9 -76.95 -35.5 -76.95 -37.15 -76.95 -38.6 -76.85 -39.0 -76.75 -39.4 -76.7 -39.6 -76.7 -40.25 -76.7 -41.15 -76.65 -41.4 -76.65 -42.2 -76.65 -44.6 -76.55 -45.05 -76.4 -48.15 -76.45 -51.5 -76.45 -56.8 -76.55 -57.25 -76.6 -57.45 -76.7 -57.65 -76.7 -58.25 -76.7 -60.9 -76.7 -61.45 -76.7 -62.35 -76.7 -63.6 -76.75 -65.4 -76.75 -66.5 -76.7 -66.85 -76.4 -67.3 Q-76.15 -68.2 -76.2 -69.2 L-76.15 -71.45 -76.05 -71.95 -76.05 -72.15 -75.55 -96.8 -75.35 -127.0 -75.4 -128.5 -75.5 -137.45 -75.75 -139.4 -75.9 -144.55 -76.0 -144.75 -76.15 -145.15 -76.3 -146.25 -76.25 -147.8 -76.25 -148.9 -76.4 -149.3 -76.5 -149.7 -76.65 -150.05 -76.75 -150.45 -76.75 -155.0 -76.75 -159.9 -76.75 -161.05 -76.7 -161.4 -76.4 -161.8 -76.3 -162.2 -76.25 -162.85 -76.25 -162.95 -76.25 -164.1 -76.25 -165.35 -76.25 -165.85 -76.25 -172.3 -76.25 -172.45 -76.25 -174.05 -76.25 -175.2 -76.25 -175.3 -76.55 -175.65 -76.65 -175.8 -77.3 -181.65 -77.35 -181.7 -77.55 -183.9 Q-77.6 -184.95 -78.15 -186.7 L-78.9 -189.35 -79.35 -192.0 -79.35 -192.15 -79.55 -193.65 -79.6 -193.95 -79.8 -197.45 -79.8 -200.9 -79.15 -204.75 -79.15 -204.8 -79.1 -205.05 -79.05 -205.2 -79.05 -205.25 -79.0 -205.4 -78.6 -207.15 -78.1 -209.05 Q-77.2 -210.6 -75.0 -210.8 M-72.7 -139.15 L-72.7 -132.1 Q-72.65 -128.5 -72.9 -124.9 L-73.2 -124.5 -73.25 -124.15 -73.25 -123.4 -73.35 -120.75 Q-73.45 -119.5 -72.9 -118.45 L-72.8 -117.95 -73.0 -117.85 -73.15 -117.75 -73.4 -103.1 -73.75 -99.7 Q-73.85 -97.35 -74.05 -96.35 L-74.35 -72.4 -74.05 -72.05 -73.75 -71.7 -73.75 -69.8 -73.7 -67.55 -73.9 -66.4 -74.4 -60.75 -74.4 -59.55 -74.4 -59.15 -74.3 -58.75 -74.2 -58.55 -74.25 -57.3 -74.25 -41.6 Q-74.6 -37.4 -74.6 -32.95 L-74.55 -28.7 -74.55 -28.05 -74.2 -23.35 -74.2 -23.2 -74.3 -21.6 -74.2 -19.15 -73.65 -16.35 Q-73.25 -14.7 -71.15 -13.0 L-69.45 -11.9 -67.05 -10.25 -65.65 -9.25 Q-62.9 -8.35 -55.1 -4.7 -47.75 -1.25 -43.95 -0.35 L-43.65 -0.15 -43.0 0.25 Q-41.6 0.55 -39.3 1.4 L-27.15 6.0 Q-23.8 7.4 -17.9 9.0 L-10.0 11.15 1.9 12.2 3.4 12.0 4.25 12.05 4.65 12.05 8.25 10.95 Q16.45 8.65 22.95 6.2 L32.0 2.25 Q34.15 1.3 36.3 0.65 L37.25 0.05 43.45 -2.8 50.45 -6.2 Q54.5 -8.0 56.7 -9.2 L57.35 -9.55 Q59.4 -10.3 62.6 -13.6 65.4 -16.0 66.35 -17.4 L66.65 -17.7 67.35 -18.85 68.25 -20.4 68.45 -20.6 68.7 -21.2 68.85 -21.4 68.85 -21.5 69.05 -21.9 69.05 -22.1 69.05 -22.3 69.05 -22.5 69.05 -22.7 69.25 -22.9 69.3 -23.1 69.35 -23.3 69.4 -23.5 69.5 -23.75 69.55 -23.95 69.5 -24.95 Q69.45 -25.5 69.75 -26.0 L69.8 -26.2 69.8 -26.4 69.8 -26.6 69.9 -26.8 70.0 -27.2 70.05 -27.4 70.05 -27.6 70.05 -28.25 70.05 -28.85 70.15 -29.05 70.25 -29.45 70.3 -29.65 70.3 -29.85 70.3 -30.5 70.4 -31.1 70.45 -31.3 70.55 -31.5 70.55 -31.7 70.55 -32.15 70.6 -32.55 70.65 -32.95 70.7 -33.15 70.8 -33.35 70.8 -33.55 70.8 -33.95 70.8 -35.15 70.8 -35.95 70.8 -36.35 70.9 -36.75 70.95 -36.95 71.05 -37.2 71.05 -37.4 71.05 -38.2 71.15 -43.55 Q71.25 -46.35 70.8 -49.05 L70.8 -49.9 70.8 -55.2 70.8 -60.75 70.75 -60.95 70.65 -61.35 70.55 -61.75 70.55 -61.95 70.55 -63.2 70.55 -64.4 70.4 -64.65 70.3 -64.65 70.3 -64.9 70.25 -68.05 70.0 -68.15 69.95 -68.1 69.7 -67.95 69.7 -77.35 Q69.6 -77.8 69.65 -78.3 L69.7 -78.95 69.7 -148.65 69.55 -148.9 69.25 -149.3 69.25 -150.45 69.25 -151.95 69.25 -152.1 69.25 -152.3 69.1 -152.5 68.85 -153.75 68.85 -165.45 68.75 -165.8 68.75 -167.0 68.75 -168.5 68.6 -168.9 68.5 -169.25 68.35 -169.65 68.25 -170.05 68.25 -171.15 68.25 -177.25 68.25 -182.0 68.25 -182.05 68.45 -182.45 68.6 -182.8 68.75 -183.15 68.75 -183.55 68.75 -183.95 68.75 -184.3 68.75 -184.7 68.65 -184.95 68.8 -185.55 68.85 -187.8 68.55 -190.55 68.1 -191.15 67.85 -191.1 62.95 -191.15 60.7 -191.15 60.45 -190.85 39.45 -189.4 39.6 -189.3 35.4 -189.3 35.35 -189.35 -7.8 -190.8 -41.75 -190.1 -42.75 -190.4 -65.15 -190.3 -72.75 -189.6 Q-73.25 -189.4 -74.2 -188.45 L-74.7 -188.0 -74.65 -187.1 -74.85 -187.2 -74.35 -184.45 -74.25 -183.55 -74.25 -182.8 -74.25 -181.3 -74.25 -179.75 -74.0 -179.4 -73.8 -179.0 -73.75 -178.6 -73.75 -178.25 -73.75 -177.5 -73.75 -176.75 -73.75 -176.35 -73.65 -175.95 -73.5 -175.6 -73.65 -175.2 -73.75 -174.85 -73.75 -173.7 -73.75 -171.05 -73.75 -169.15 -73.5 -168.75 -73.45 -168.7 -73.6 -167.1 -73.65 -165.95 -73.7 -165.75 -73.75 -164.95 -73.75 -164.65 -73.8 -161.7 -73.65 -153.75 -73.7 -153.7 -73.75 -153.35 -73.75 -152.6 -73.75 -151.05 -73.75 -149.95 -73.5 -149.55 -73.3 -149.15 -73.25 -148.8 -73.25 -147.65 Q-73.25 -145.95 -73.4 -144.25 -73.5 -142.6 -72.9 -141.2 L-72.7 -140.4 -72.75 -140.35 -72.75 -139.8 -72.75 -139.3 -72.7 -139.15 M74.25 -16.65 L74.6 -17.35 74.7 -17.55 74.7 -17.5 74.7 -16.25 74.7 -15.0 74.75 -14.8 74.8 -14.6 74.9 -14.4 74.95 -14.2 74.95 -13.4 74.9 -12.35 Q74.85 -11.9 75.05 -11.5 L75.05 -11.15 75.1 -10.95 75.2 -10.75 75.2 -10.7 75.15 -9.7 75.25 -9.1 75.3 -9.0 75.25 -8.65 75.15 -8.55 75.0 -8.5 74.95 -8.5 75.05 -4.3 75.05 -4.35 75.7 30.4 75.25 37.0 Q74.7 43.95 75.25 56.45 75.7 67.4 75.5 78.3 L75.5 92.85 Q75.7 103.15 76.85 113.4 78.1 124.7 77.8 136.15 L77.9 136.8 78.3 139.2 79.25 163.55 79.35 165.55 80.4 188.55 80.5 190.65 80.1 190.65 78.95 191.15 Q78.2 191.35 77.7 191.7 L77.6 189.7 76.55 170.55 Q75.45 154.2 74.95 137.7 74.85 134.65 74.35 131.35 73.25 124.25 73.65 117.15 L73.65 111.5 73.35 104.95 Q72.45 76.05 72.85 46.95 73.25 22.0 72.45 -2.75 L72.4 -3.15 72.35 -3.1 72.3 -5.0 72.4 -5.0 72.55 -5.2 72.55 -5.4 72.55 -6.0 72.55 -9.1 72.55 -11.95 72.4 -12.15 72.2 -12.15 72.05 -12.2 72.1 -12.25 73.1 -14.15 73.2 -14.25 73.2 -14.35 73.2 -14.55 73.45 -14.95 73.7 -15.3 74.1 -16.35 74.25 -16.65 M-83.55 195.05 L-83.65 194.95 -83.65 194.9 -83.9 193.2 -83.85 192.2 -83.8 191.9 Q-83.75 191.15 -84.2 190.6 L-84.8 186.05 -80.8 78.75 Q-78.75 72.2 -78.9 65.1 L-78.85 63.7 Q-78.3 57.1 -77.9 50.5 -77.0 36.45 -76.6 22.45 -76.25 11.2 -76.55 -0.15 L-76.6 -0.95 -76.65 -0.95 -76.8 -5.35 -76.75 -5.3 -76.75 -7.85 -76.75 -9.9 -76.45 -9.7 -76.3 -9.55 -75.75 -9.15 -75.4 -8.75 -75.4 -8.35 -75.3 -8.05 -75.15 -7.75 -75.25 -5.85 -75.25 -5.6 -75.3 -5.6 -75.3 -3.95 -75.15 -1.2 -75.1 -0.45 -75.15 0.35 -75.25 1.7 -75.4 9.9 -75.0 13.45 -75.0 15.85 -75.15 19.2 -75.0 20.95 -75.0 26.3 Q-74.95 28.55 -74.45 29.4 L-74.55 32.65 -74.5 33.85 -74.4 34.15 Q-76.1 50.15 -76.45 66.6 L-76.55 68.2 -77.7 82.55 Q-78.95 99.55 -79.05 116.95 L-79.3 119.6 Q-80.25 125.1 -80.15 130.85 -79.8 147.85 -81.05 164.75 -82.1 178.85 -81.8 192.9 L-81.8 194.65 -83.0 194.6 -83.05 194.6 Q-83.4 194.6 -83.45 194.85 L-83.55 195.05" fill="#e26c32" fill-rule="evenodd" stroke="none"/>
    <path d="M72.35 -206.45 L72.4 -206.5 72.4 -206.25 72.35 -206.45" fill="#330000" fill-rule="evenodd" stroke="none"/>
    <path d="M81.75 -214.0 Q82.35 -214.0 83.45 -212.9 86.15 -210.15 86.15 -207.4 L85.5 -206.05 85.1 -205.6 84.7 -205.15 84.55 -205.0 83.5 -204.4 Q82.8 -204.4 82.3 -204.75 L82.0 -205.0 Q81.15 -205.9 80.85 -207.95 80.6 -209.75 80.75 -211.55 80.75 -212.8 81.0 -213.4 81.25 -214.0 81.75 -214.0" fill="#ffffff" fill-rule="evenodd" stroke="none"/>
    <path d="M73.75 -69.9 L73.75 -67.7 73.65 -68.55 73.75 -69.9" fill="url(#gradient0)" fill-rule="evenodd" stroke="none"/>
    <path d="M-75.4 -8.75 L-75.2 -8.55 -74.75 -8.4 -74.7 -8.35 -74.25 -8.0 -73.95 -7.8 -73.9 -7.75 -73.0 -7.05 -72.55 -6.75 -69.3 -4.25 -68.2 -3.8 -64.25 -2.3 -63.25 -2.0 -63.05 -1.75 -62.75 -1.45 -60.55 -0.95 -58.75 -0.45 -58.45 -0.35 -54.85 0.9 -48.95 2.55 -47.45 3.15 -46.25 3.65 -43.6 4.65 -41.75 5.25 -39.3 6.2 Q-35.15 7.1 -31.45 8.4 L-30.65 8.75 -30.4 8.85 -28.95 9.2 Q-23.25 11.3 -15.9 13.2 -3.4 16.35 3.9 16.35 L5.45 16.3 6.75 15.8 Q23.4 12.05 35.3 6.35 L42.5 3.3 46.95 1.65 51.2 -0.05 57.9 -2.65 58.2 -2.85 64.9 -6.95 65.55 -7.65 66.75 -8.75 67.75 -8.9 68.1 -9.25 68.5 -9.65 68.65 -10.0 68.85 -10.4 69.5 -11.1 70.0 -11.55 70.1 -11.9 70.25 -12.3 70.6 -12.65 70.7 -12.75 71.0 -13.05 71.25 -13.8 71.65 -14.55 71.95 -15.0 72.35 -15.7 72.5 -16.1 72.6 -16.45 72.75 -16.85 73.35 -17.65 73.6 -18.35 73.7 -18.7 74.0 -19.1 74.1 -19.5 74.25 -19.8 74.25 -16.65 74.1 -16.35 73.7 -15.3 73.45 -14.95 73.2 -14.55 73.2 -14.35 73.2 -14.25 73.1 -14.15 72.1 -12.25 72.05 -12.2 72.0 -12.2 72.0 -12.15 70.95 -11.25 70.7 -11.0 69.95 -10.25 69.4 -9.5 66.6 -6.05 66.25 -6.0 65.7 -5.7 64.8 -5.15 64.5 -4.8 61.7 -3.05 Q60.45 -2.0 57.05 -0.45 L51.6 1.85 48.3 3.45 47.5 3.8 47.35 3.85 45.0 4.85 Q39.85 7.05 38.3 7.35 L37.3 7.8 15.7 16.05 Q8.15 18.75 9.05 18.15 L7.65 18.65 7.25 18.65 7.1 18.7 Q3.95 20.0 -5.7 18.55 -15.4 17.05 -27.8 12.75 -30.5 11.7 -33.9 11.3 L-34.65 11.0 Q-34.65 10.7 -35.9 10.45 L-38.05 9.8 -39.95 8.85 -42.3 7.85 -44.6 7.3 -45.6 6.75 -46.25 6.4 -46.65 6.3 -46.75 6.3 -49.95 5.85 -51.0 5.4 -54.25 4.3 -57.05 3.35 Q-58.9 2.7 -60.9 2.2 -62.9 1.2 -65.4 0.45 L-67.9 -0.45 -68.35 -0.9 -69.2 -1.45 -69.2 -1.6 Q-70.5 -1.8 -73.1 -3.7 L-73.25 -3.8 -73.35 -3.95 -73.55 -4.0 -73.65 -4.05 -73.65 -4.0 -73.75 -4.05 -73.75 -4.0 -73.95 -3.85 -74.05 -3.7 -74.05 -3.5 -74.0 -3.3 -73.9 -3.05 -73.8 -2.85 -73.8 -2.25 -73.8 -2.2 -74.1 -2.5 -74.05 -0.05 -74.05 0.05 -74.05 7.95 -74.15 8.3 -74.15 24.75 -74.45 29.4 Q-74.95 28.55 -75.0 26.3 L-75.0 20.95 -75.15 19.2 -75.0 15.85 -75.0 13.45 -75.4 9.9 -75.25 1.7 -75.15 0.35 -75.1 -0.45 -75.15 -1.2 -75.3 -3.95 -75.3 -5.6 -75.25 -5.6 -75.25 -5.85 -75.15 -7.75 -75.3 -8.05 -75.4 -8.35 -75.4 -8.75 M80.7 193.35 L80.75 193.35 81.1 193.65 81.1 194.15 81.1 194.45 81.1 195.1 81.1 195.35 81.1 195.75 81.1 195.8 81.1 197.0 81.1 197.35 80.95 197.55 80.75 197.6 80.7 197.6 79.85 197.45 79.8 197.3 79.75 197.35 79.0 197.7 Q78.4 198.0 77.85 198.25 L77.5 198.35 76.5 198.6 76.0 198.8 75.8 198.75 74.95 199.4 73.25 200.05 Q72.05 200.55 70.95 201.2 L49.45 208.9 Q39.3 213.5 28.9 217.7 23.6 219.9 18.6 222.4 8.35 227.5 -2.9 229.2 L-26.8 221.15 -58.2 209.45 -60.3 209.7 -79.55 200.85 -82.2 201.9 -82.8 201.7 -82.6 200.95 -82.85 200.85 -82.9 200.85 -82.9 200.8 -82.9 199.9 -83.0 199.25 -83.15 199.1 -83.15 198.95 -83.15 198.6 -83.15 198.45 -83.2 198.4 -83.35 198.25 -83.4 198.2 -83.4 197.6 -83.35 196.9 -83.0 196.9 -82.75 196.9 -82.4 197.2 -82.35 197.25 -81.75 197.35 -81.4 197.55 -79.5 198.45 -64.0 203.8 -58.2 206.2 Q-42.85 211.6 -27.15 216.5 -24.25 217.3 -21.5 218.45 -12.1 222.05 -2.25 222.95 L-0.2 222.75 2.95 221.85 Q26.45 215.45 48.2 205.25 L59.95 201.5 61.5 201.75 73.75 196.55 74.75 196.6 75.7 196.15 76.6 195.55 76.75 195.5 77.65 195.25 77.7 195.2 78.1 195.05 78.2 195.0 78.35 194.9 79.1 194.2 79.25 194.15 79.5 194.2 Q80.3 193.95 80.7 193.35 M77.6 189.7 L77.7 191.7 77.55 191.85 76.95 191.8 76.95 191.95 76.3 192.15 76.0 192.3 75.95 192.05 74.65 193.25 73.2 193.8 72.95 194.05 -1.2 221.55 -56.1 203.9 -81.45 194.8 -81.75 194.65 -81.8 194.65 -81.8 192.9 -43.8 206.05 Q-25.35 211.8 -10.65 214.35 L-9.55 214.95 Q-5.4 217.3 -2.25 217.3 3.35 217.3 41.4 203.5 64.5 195.1 77.6 189.7" fill="#30273e" fill-rule="evenodd" stroke="none"/>
    <path d="M-88.55 -209.2 L-88.25 -210.0 Q-87.7 -211.05 -87.0 -211.45 L-86.8 -211.8 Q-84.7 -214.55 -84.2 -213.4 L-84.15 -213.1 -84.3 -212.9 Q-86.0 -211.1 -86.4 -208.35 L-87.0 -207.4 -87.1 -206.4 -87.15 -205.4 -86.3 -203.55 -85.5 -201.3 -84.6 -199.7 Q-84.2 -198.9 -83.85 -198.9 -83.45 -198.9 -83.1 -199.15 L-82.6 -198.75 -83.4 -194.65 -82.9 -191.55 -85.1 -192.25 -85.25 -192.65 Q-86.05 -193.15 -86.85 -194.9 L-88.2 -198.05 Q-89.55 -200.45 -89.55 -203.7 L-89.55 -205.75 Q-89.5 -207.05 -89.1 -207.9 L-88.85 -208.45 -88.9 -209.0 -88.85 -209.0 -88.6 -209.2 -88.75 -209.0 -88.7 -208.85 -88.55 -209.2" fill="#923802" fill-rule="evenodd" stroke="none"/>
    <path d="M-79.85 -214.45 Q-78.5 -215.4 -78.5 -213.3 -78.5 -212.25 -79.25 -210.25 -79.85 -208.65 -80.55 -208.0 -81.0 -207.65 -81.5 -207.65 L-81.6 -207.65 Q-82.8 -207.7 -82.85 -209.15 L-82.55 -210.9 -82.55 -211.0 -82.1 -212.0 -80.9 -213.6 -80.65 -213.85 -79.85 -214.45" fill="#ffffcc" fill-rule="evenodd" stroke="none"/>
    <path d="M-74.35 -184.45 L-74.2 -184.0 -74.25 -183.95 -74.25 -183.55 -74.35 -184.45 M-46.25 1.4 L-46.95 1.3 -47.7 0.95 -48.0 0.8 -47.7 0.9 -46.25 1.4" fill="#690000" fill-rule="evenodd" stroke="none"/>
    <path d="M-81.45 -143.15 L-81.4 -142.3 -81.5 -141.5 -81.45 -143.15" fill="#ff9933" fill-rule="evenodd" stroke="none"/>
    <path d="M-73.65 -4.0 L-73.65 -4.05 -73.55 -4.0 -73.65 -4.0" fill="url(#gradient1)" fill-rule="evenodd" stroke="none"/>
    <path d="M76.75 195.5 L76.95 195.35 77.65 195.25 76.75 195.5" fill="url(#gradient2)" fill-rule="evenodd" stroke="none"/>
    <path d="M3.05 -3.7 L2.6 -4.4 Q2.2 -4.85 1.55 -4.85 1.0 -4.85 0.55 -4.4 L0.4 -4.2 Q0.1 -3.85 0.1 -3.4 0.1 -2.75 0.55 -2.35 0.75 -2.15 1.0 -2.0 L-0.6 1.6 -3.7 0.25 -3.65 0.1 -3.65 -0.2 -3.65 -0.25 Q-3.65 -0.8 -4.0 -1.15 L-4.85 -1.45 -4.9 -1.45 -5.8 -1.15 -6.15 -0.2 -6.0 0.35 -5.8 0.65 -5.4 0.95 -5.35 1.05 -5.15 1.05 -5.0 1.05 -2.85 6.15 5.9 6.15 8.05 1.05 8.45 0.95 8.85 0.6 8.9 0.55 9.0 0.4 9.1 0.3 9.1 0.25 9.15 0.1 9.15 -0.2 8.85 -1.15 8.1 -1.45 7.95 -1.45 7.85 -1.45 7.0 -1.15 6.75 -0.65 6.6 -0.2 6.7 0.05 6.75 0.25 4.2 1.7 2.3 -2.15 2.6 -2.35 Q3.05 -2.75 3.05 -3.4 L3.05 -3.7 M0.25 8.85 L0.2 8.95 0.2 9.0 -0.75 9.2 -1.75 9.35 -2.3 9.35 -2.95 9.35 -4.85 9.0 -5.95 8.4 -6.3 8.2 Q-7.9 7.05 -8.55 7.05 L-8.95 7.1 -9.65 7.2 -11.15 8.7 -11.25 7.45 Q-11.25 5.75 -10.45 4.8 -9.85 4.1 -8.95 3.9 L-8.8 3.85 -7.7 3.65 Q-7.2 3.65 -6.55 4.15 L-5.65 4.95 -4.2 6.65 -3.3 7.3 -2.1 7.95 0.25 8.85 M11.6 4.6 L11.45 4.55 Q10.4 4.45 9.4 5.4 L9.0 5.7 7.1 7.4 6.0 8.2 7.95 6.3 8.25 5.95 9.4 4.85 Q10.3 3.95 11.0 4.05 L12.05 4.1 Q13.0 4.25 13.75 5.0 14.6 5.85 14.6 7.0 L14.3 8.7 Q14.15 7.8 13.15 7.25 L12.75 7.1 12.0 7.05 Q11.45 7.05 9.7 8.0 7.9 8.95 6.15 8.95 L5.75 8.95 6.6 8.8 6.9 8.75 Q8.5 8.25 9.5 7.4 10.65 6.4 11.45 6.35 L11.85 6.35 12.8 6.45 13.65 7.05 13.65 7.1 13.9 7.4 13.9 6.95 13.9 6.85 13.75 6.1 13.45 5.55 13.1 5.25 Q12.45 4.75 11.6 4.6 M3.15 -5.1 Q3.7 -4.45 3.7 -3.4 L3.4 -2.55 3.15 -2.25 3.05 -2.05 3.05 -1.85 3.25 -1.05 3.85 0.05 4.35 1.05 Q5.15 0.25 6.15 -0.05 L6.25 -0.8 Q6.3 -1.2 6.7 -1.6 7.1 -2.0 7.9 -2.0 8.65 -1.95 9.1 -1.55 L9.45 -1.0 9.8 -0.05 9.8 0.25 8.95 1.3 8.9 1.3 8.55 1.5 8.35 1.65 7.3 4.15 6.75 5.55 6.3 6.9 5.4 6.95 -1.45 7.0 -2.55 6.95 -2.7 6.95 -3.25 6.95 -4.9 1.85 -5.1 1.85 Q-5.7 1.85 -6.15 1.3 L-6.4 0.95 -6.65 0.5 -6.85 -0.35 -6.8 -0.65 -6.55 -1.1 -6.0 -1.65 Q-5.4 -2.15 -5.0 -2.15 -3.8 -2.15 -3.35 -1.4 -3.05 -0.9 -3.1 -0.2 L-2.9 -0.05 -0.9 0.95 -0.6 0.1 -0.2 -0.9 0.0 -1.5 0.05 -1.65 -0.15 -2.15 -0.25 -2.35 Q-0.75 -3.0 -0.75 -4.0 -0.75 -4.7 0.1 -5.25 L1.7 -5.7 1.9 -5.7 Q2.65 -5.65 3.15 -5.1 M-8.35 4.55 L-8.95 4.75 Q-9.6 5.0 -10.15 5.55 -10.4 5.85 -10.65 6.9 L-10.6 7.2 -10.6 7.4 -10.3 7.0 -10.25 6.9 -9.5 6.45 -8.95 6.35 -8.2 6.3 Q-7.35 6.35 -6.2 7.3 L-5.2 8.05 -4.6 8.35 -3.6 8.7 -3.3 8.8 -1.35 9.05 -0.9 9.05 -0.2 9.0 -0.2 8.85 -0.8 8.8 Q-2.7 8.3 -3.65 7.5 L-3.8 7.4 -3.85 7.4 -6.05 5.35 Q-6.95 4.6 -7.7 4.55 L-8.35 4.55" fill="#30273e" fill-rule="evenodd" stroke="none"/>
    <path d="M3.05 -3.7 L3.05 -3.4 Q3.05 -2.75 2.6 -2.35 L2.3 -2.15 4.2 1.7 6.75 0.25 6.7 0.05 6.6 -0.2 6.75 -0.65 7.0 -1.15 7.85 -1.45 7.95 -1.45 8.1 -1.45 8.85 -1.15 9.15 -0.2 9.15 0.1 9.1 0.25 9.1 0.3 9.0 0.4 8.9 0.55 8.85 0.6 8.45 0.95 8.05 1.05 5.9 6.15 -2.85 6.15 -5.0 1.05 -5.15 1.05 -5.35 1.05 -5.4 0.95 -5.8 0.65 -6.0 0.35 -6.15 -0.2 -5.8 -1.15 -4.9 -1.45 -4.85 -1.45 -4.0 -1.15 Q-3.65 -0.8 -3.65 -0.25 L-3.65 -0.2 -3.65 0.1 -3.7 0.25 -0.6 1.6 1.0 -2.0 Q0.75 -2.15 0.55 -2.35 0.1 -2.75 0.1 -3.4 0.1 -3.85 0.4 -4.2 L0.55 -4.4 Q1.0 -4.85 1.55 -4.85 2.2 -4.85 2.6 -4.4 L3.05 -3.7 M-8.35 4.55 L-7.7 4.55 Q-6.95 4.6 -6.05 5.35 L-3.85 7.4 -3.8 7.4 -3.65 7.5 Q-2.7 8.3 -0.8 8.8 L-0.2 8.85 -0.2 9.0 -0.9 9.05 -1.35 9.05 -3.3 8.8 -3.6 8.7 -4.6 8.35 -5.2 8.05 -6.2 7.3 Q-7.35 6.35 -8.2 6.3 L-8.95 6.35 -9.5 6.45 -10.25 6.9 -10.3 7.0 -10.6 7.4 -10.6 7.2 -10.65 6.9 Q-10.4 5.85 -10.15 5.55 -9.6 5.0 -8.95 4.75 L-8.35 4.55" fill="#4c3a55" fill-rule="evenodd" stroke="none"/>
  </g>
  <defs>
    <linearGradient gradientTransform="matrix(0.0, 0.2205, -0.1456, 0.0, 7.75, 124.05)" gradientUnits="userSpaceOnUse" id="gradient0" spreadMethod="pad" x1="-819.2" x2="819.2">
      <stop offset="0.0" stop-color="#990000"/>
      <stop offset="1.0" stop-color="#690000"/>
    </linearGradient>
    <linearGradient gradientTransform="matrix(0.0, 0.202, -0.1095, 0.0, 6.6, 67.75)" gradientUnits="userSpaceOnUse" id="gradient1" spreadMethod="pad" x1="-819.2" x2="819.2">
      <stop offset="0.0" stop-color="#990000"/>
      <stop offset="1.0" stop-color="#690000"/>
    </linearGradient>
    <linearGradient gradientTransform="matrix(0.0, 0.1784, -0.1095, 0.0, 6.6, 34.2)" gradientUnits="userSpaceOnUse" id="gradient2" spreadMethod="pad" x1="-819.2" x2="819.2">
      <stop offset="0.0" stop-color="#990000"/>
      <stop offset="1.0" stop-color="#690000"/>
    </linearGradient>
  </defs>
</svg>
