<?xml version="1.0" encoding="UTF-8" standalone="no"?>
<svg xmlns:ffdec="https://www.free-decompiler.com/flash" xmlns:xlink="http://www.w3.org/1999/xlink" ffdec:objectType="shape" height="457.3px" width="183.7px" xmlns="http://www.w3.org/2000/svg">
  <g transform="matrix(1.0, 0.0, 0.0, 1.0, 93.45, 218.15)">
    <path d="M-81.3 -151.9 L-80.75 -150.2 -80.8 -152.55 -80.75 -156.75 -80.75 -158.25 -80.9 -158.65 -81.0 -159.0 -81.15 -159.4 -81.25 -159.75 -81.25 -169.6 -81.25 -179.25 -81.7 -179.75 -81.65 -180.8 -81.65 -183.8 Q-82.05 -185.85 -84.0 -186.8 -87.95 -188.65 -90.7 -193.2 L-93.35 -197.55 -93.35 -199.3 -93.35 -201.6 -93.35 -201.65 -93.4 -202.2 -93.45 -204.05 Q-93.6 -206.25 -92.7 -208.1 L-92.2 -209.25 Q-91.25 -211.75 -89.35 -214.05 -88.75 -214.3 -88.25 -214.7 -83.65 -218.8 -77.6 -216.8 L-75.5 -214.3 -68.1 -215.15 -59.9 -215.15 Q-49.7 -216.95 -39.0 -215.6 L-39.0 -215.75 -38.4 -215.75 -35.35 -215.65 -35.3 -215.65 -32.9 -215.85 -28.55 -215.95 -5.65 -215.95 14.95 -216.65 15.0 -216.75 15.15 -216.75 17.1 -216.35 20.1 -216.5 20.55 -216.45 20.8 -216.5 24.05 -216.7 28.9 -216.65 39.5 -216.5 44.25 -216.4 46.65 -216.15 52.55 -215.75 58.55 -216.3 72.6 -216.4 73.95 -217.9 73.95 -218.05 76.2 -218.1 76.35 -218.1 78.25 -217.95 Q85.15 -216.9 88.55 -210.05 L89.2 -208.65 89.45 -206.05 90.25 -204.55 90.2 -203.45 90.2 -203.4 90.25 -203.3 Q90.05 -196.25 85.65 -190.65 L77.55 -185.8 76.9 -183.15 76.25 -184.0 Q76.45 -182.95 75.8 -181.65 L75.6 -181.35 75.2 -178.7 Q75.2 -178.2 75.35 -177.7 L75.55 -177.75 75.8 -177.8 76.45 -178.05 76.4 -170.7 76.1 -168.15 75.65 -150.45 76.45 -149.2 76.55 -142.75 77.2 -141.7 77.2 -93.1 77.45 -92.8 77.75 -92.45 77.75 -89.9 77.75 -89.45 77.75 -79.9 Q78.3 -78.9 78.2 -77.65 L78.1 -75.35 78.1 -75.0 Q78.8 -73.0 78.7 -70.8 L78.6 -66.25 78.6 -65.5 78.7 -65.15 79.0 -64.75 79.0 -63.4 78.6 -63.3 78.6 -62.4 78.6 -59.15 78.6 -58.75 78.75 -58.3 79.0 -57.5 79.1 -57.1 79.1 -46.85 79.1 -35.8 79.1 -34.15 79.0 -33.9 79.0 -30.85 79.0 -27.85 78.8 -27.45 78.65 -26.7 78.6 -26.3 78.55 -25.95 78.25 -25.55 78.25 -24.95 78.35 -24.55 78.5 -24.2 78.5 -23.45 78.5 -22.3 78.5 -21.55 78.5 -21.45 78.4 -19.7 Q77.85 -18.2 77.9 -16.6 L78.0 -10.55 78.0 -6.75 78.0 -6.7 77.7 -6.15 78.0 -6.65 78.1 -6.35 78.25 -6.05 78.35 -5.7 78.5 -5.4 78.5 -5.05 78.5 -4.35 78.5 -3.7 78.5 -3.0 78.5 -2.35 78.6 -2.05 78.75 -1.7 78.85 -1.35 79.0 -1.0 79.0 2.35 79.0 3.0 79.0 8.35 79.0 15.4 79.0 22.15 78.95 28.6 Q78.95 29.25 78.2 29.0 L78.2 40.0 Q79.85 55.25 79.55 70.55 79.25 87.0 80.15 103.25 80.75 113.4 81.7 123.75 L81.85 126.45 Q82.45 152.8 84.0 179.65 L84.15 182.3 Q84.35 189.75 85.4 196.85 L85.7 201.2 -0.05 239.0 Q-5.8 239.6 -11.15 237.4 -14.35 236.15 -17.15 234.65 -20.25 233.15 -23.7 232.45 -26.05 232.05 -28.25 230.95 -29.45 230.4 -30.8 230.1 L-87.55 205.9 -89.8 202.8 -86.3 107.2 -85.65 106.25 -84.3 72.8 -83.3 71.5 -83.3 53.35 -82.3 52.0 -80.3 12.95 -80.35 -1.3 -80.45 -14.05 -80.65 -14.2 -80.7 -14.55 -80.85 -14.95 -81.15 -15.7 -81.5 -16.1 -81.7 -22.55 -81.65 -23.65 -80.45 -24.85 -80.45 -28.5 -80.45 -31.0 -80.15 -30.8 -80.2 -31.9 -80.4 -38.1 -80.5 -38.5 -80.65 -38.95 -80.65 -41.4 -80.65 -43.85 -80.65 -44.25 -80.7 -44.65 -80.85 -45.1 -81.0 -45.5 -81.2 -50.4 -81.15 -52.4 -81.65 -51.85 -81.65 -57.55 -81.65 -58.7 -81.5 -59.05 -81.4 -59.45 -81.15 -60.2 -81.2 -62.85 -80.85 -66.25 -80.65 -67.05 -80.7 -69.3 -80.5 -71.65 -80.55 -72.45 -80.7 -74.0 -80.9 -74.25 -81.5 -141.5 -81.3 -143.7 -81.3 -149.65 -81.3 -149.95 -81.3 -151.9 M76.15 -212.65 L76.05 -212.65 75.75 -212.35 72.8 -212.35 70.2 -212.55 69.6 -212.4 51.5 -212.4 46.6 -211.85 43.35 -211.65 25.25 -211.65 22.1 -211.95 1.1 -211.9 Q-0.75 -211.2 -4.3 -211.15 L-9.75 -211.15 -17.9 -211.15 -18.8 -210.9 -38.0 -210.9 -38.75 -211.0 -38.9 -211.05 -41.8 -211.5 -42.75 -211.65 -47.05 -211.9 -51.2 -211.7 -51.9 -211.65 -53.75 -211.55 -55.35 -211.4 -74.5 -211.4 -75.0 -210.8 Q-77.2 -210.6 -78.1 -209.05 L-78.6 -207.15 -79.0 -205.4 -79.05 -205.25 -79.15 -204.8 -79.15 -204.75 -79.8 -200.9 -79.8 -197.45 -79.6 -193.95 -79.55 -193.65 -79.35 -191.95 -79.8 -191.5 -79.35 -191.35 -79.35 -189.2 -78.75 -188.45 -78.35 -187.2 -78.3 -183.25 -77.3 -181.65 -76.65 -175.8 -76.55 -175.65 -76.25 -175.3 -76.25 -175.2 -76.25 -174.05 -76.25 -172.45 -76.25 -172.3 -76.25 -165.85 -76.25 -165.35 -76.25 -164.1 -76.25 -162.95 -76.25 -162.85 -76.3 -162.2 -76.4 -161.8 -76.7 -161.4 -76.75 -161.05 -76.75 -159.9 -76.75 -155.0 -76.75 -150.45 -76.65 -150.05 -76.5 -149.7 -76.4 -149.3 -76.25 -148.9 -76.25 -147.8 -76.3 -146.25 -76.15 -145.15 -76.0 -144.75 -75.9 -144.55 -75.75 -139.4 -75.5 -137.45 -75.4 -128.5 -75.35 -127.0 -75.55 -96.8 -76.05 -72.15 -76.05 -71.95 -76.15 -71.45 -76.2 -69.2 Q-76.15 -68.2 -76.4 -67.3 L-76.7 -66.85 -76.75 -66.5 -76.75 -65.4 -76.7 -63.6 -76.7 -62.35 -76.7 -61.45 -76.7 -60.9 -76.7 -58.25 -76.7 -57.65 -76.6 -57.45 -76.55 -57.25 -76.45 -56.8 -76.45 -51.5 -76.4 -45.95 -76.5 -45.35 -76.65 -44.6 -76.7 -43.85 -76.75 -42.9 -76.75 -42.6 -76.7 -41.15 -76.7 -40.25 -76.7 -39.6 -76.75 -39.4 -76.85 -39.0 -76.95 -38.6 -76.95 -37.15 -76.95 -35.5 -76.95 -34.9 -76.95 -34.7 -77.05 -34.5 -77.1 -34.3 -77.15 -34.25 -77.15 -31.15 -77.15 -26.3 -77.25 -26.3 -77.3 -22.8 -77.15 -16.35 -76.85 -16.05 -76.75 -15.95 -76.7 -15.95 -76.7 -15.4 -75.4 -13.75 -74.6 -12.85 -74.1 -12.3 -73.85 -12.1 -72.8 -11.15 Q-67.6 -6.55 -58.9 -3.1 -54.8 -1.5 -48.0 0.8 L-47.7 0.95 -46.95 1.3 -46.25 1.4 -38.15 4.1 Q-19.05 10.2 -15.0 10.7 L-9.5 12.6 -1.65 14.45 0.55 15.1 Q1.2 15.1 1.55 14.65 L1.6 14.65 Q6.95 14.65 29.25 6.25 L42.65 1.1 49.15 -1.1 50.35 -1.5 Q54.35 -2.9 57.0 -4.4 66.9 -9.95 69.1 -14.6 L69.65 -16.25 70.35 -18.25 70.65 -19.05 71.25 -20.8 71.55 -21.3 71.6 -21.55 71.65 -21.65 71.75 -22.05 72.1 -22.5 72.25 -22.75 72.55 -23.6 72.9 -24.4 72.9 -24.85 72.9 -25.25 72.95 -25.3 73.1 -25.55 73.25 -26.2 73.55 -27.05 74.25 -28.35 74.25 -31.6 74.25 -32.75 74.25 -33.3 74.55 -33.4 74.4 -35.45 74.35 -35.5 74.35 -35.95 74.4 -36.0 74.6 -36.35 74.6 -38.4 74.6 -51.9 74.6 -64.2 74.3 -64.65 74.15 -66.65 73.85 -67.4 73.75 -67.7 73.75 -69.9 73.75 -70.15 73.75 -70.2 73.75 -70.45 73.75 -70.55 73.85 -72.35 73.85 -72.4 73.75 -74.05 73.75 -76.15 73.45 -75.15 73.35 -75.35 Q73.15 -76.1 73.2 -76.9 L73.25 -78.8 73.25 -80.3 73.2 -80.35 Q73.15 -81.9 72.75 -83.1 L71.9 -146.5 72.1 -146.75 72.25 -147.9 72.2 -149.05 72.1 -149.8 71.95 -150.15 71.85 -150.4 71.75 -158.9 72.0 -159.3 72.15 -159.7 72.25 -160.05 72.25 -161.2 72.25 -163.1 72.25 -164.6 72.1 -164.95 72.0 -165.35 71.85 -165.75 71.75 -166.1 71.75 -167.25 71.85 -176.35 71.8 -180.8 72.15 -184.1 72.25 -185.5 Q72.7 -187.5 73.05 -192.35 L73.4 -200.5 73.35 -204.9 73.45 -205.2 73.35 -205.3 72.9 -210.45 Q74.65 -207.05 75.1 -202.9 L75.3 -195.45 Q75.05 -193.15 75.2 -192.1 L75.1 -190.05 Q75.05 -188.8 75.7 -188.8 L75.85 -188.85 75.8 -188.55 78.6 -191.45 79.9 -191.9 Q81.7 -192.45 83.1 -195.75 L83.15 -195.8 83.3 -196.15 Q85.5 -200.45 85.5 -204.0 L85.5 -206.05 86.15 -207.4 Q86.15 -210.15 83.45 -212.9 82.35 -214.0 81.75 -214.0 L80.4 -214.5 Q79.3 -214.75 78.15 -213.45 L78.1 -213.4 77.9 -213.4 76.45 -213.0 76.2 -212.7 76.15 -212.65 M76.2 -197.15 L76.2 -197.6 76.3 -197.55 76.35 -197.2 76.2 -197.15 M72.35 -206.45 L72.4 -206.5 72.4 -206.25 72.35 -206.45 M0.7 13.3 L0.6 13.4 -0.05 13.15 0.7 13.3 M74.25 -16.65 L74.25 -19.8 74.1 -19.5 74.0 -19.1 73.7 -18.7 73.6 -18.35 73.35 -17.65 72.75 -16.85 72.6 -16.45 72.5 -16.1 72.35 -15.7 71.95 -15.0 71.65 -14.55 71.25 -13.8 71.0 -13.05 70.7 -12.75 70.6 -12.65 70.25 -12.3 70.1 -11.9 70.0 -11.55 69.5 -11.1 68.85 -10.4 68.65 -10.0 68.5 -9.65 68.1 -9.25 67.75 -8.9 66.75 -8.75 65.55 -7.65 64.5 -6.45 64.0 -6.2 63.2 -6.4 62.05 -5.8 Q61.05 -5.15 59.6 -4.7 57.75 -3.45 55.2 -2.45 53.0 -1.55 50.6 -0.8 L48.65 0.2 46.65 1.2 43.3 2.35 38.7 4.1 Q34.8 6.25 30.0 7.9 L13.7 13.35 13.45 13.5 Q11.85 14.5 9.25 15.05 L4.25 16.05 3.6 15.95 3.4 15.85 -3.6 15.3 -3.85 15.15 -5.65 15.1 -6.05 15.0 -11.15 13.5 -13.95 12.85 -14.7 12.55 -18.0 12.2 -30.4 8.85 -30.65 8.75 -31.45 8.4 Q-35.15 7.1 -39.3 6.2 L-41.75 5.25 -43.6 4.65 -46.25 3.65 -47.45 3.15 -48.95 2.55 -54.85 0.9 -58.45 -0.35 -58.75 -0.45 -60.55 -0.95 -62.75 -1.45 -63.05 -1.75 -63.25 -2.0 -64.25 -2.3 -68.2 -3.8 -69.3 -4.25 -72.55 -6.75 -73.0 -7.05 -73.9 -7.75 -73.95 -7.8 -74.25 -8.0 -74.7 -8.35 -74.75 -8.4 -75.2 -8.55 -75.4 -8.75 -75.75 -9.15 -76.3 -9.55 -76.45 -9.7 -76.75 -9.9 -76.75 -7.85 -76.75 -5.3 -76.8 -5.35 -76.65 -0.95 -76.6 -0.95 -76.55 -0.15 Q-76.25 11.2 -76.6 22.45 -77.0 36.45 -77.9 50.5 -78.3 57.1 -78.85 63.7 L-78.9 65.1 Q-78.75 72.2 -80.8 78.75 L-84.8 186.05 -84.2 190.6 Q-83.75 191.15 -83.8 191.9 L-83.9 193.2 -83.65 194.9 -83.65 194.95 -83.55 195.05 -83.5 195.25 Q-83.3 195.7 -83.35 196.25 L-83.35 196.9 -83.4 197.6 -83.4 198.2 -83.35 198.25 -83.2 198.4 -83.15 198.95 -83.15 199.1 -83.0 199.25 -82.9 199.9 -82.9 200.8 -82.9 200.85 -82.8 201.7 -82.2 201.9 -59.55 214.1 -48.15 218.55 -46.05 218.05 -41.9 221.35 -41.6 221.45 -41.3 221.65 -40.35 222.15 -39.45 222.25 -37.65 222.1 -16.8 230.85 -1.4 234.45 Q19.5 227.7 36.65 218.1 L37.85 218.45 45.2 216.05 67.95 205.0 68.3 205.2 69.45 205.4 70.45 204.7 71.2 204.05 74.45 202.65 Q76.65 201.6 78.95 200.7 L79.5 200.1 80.85 198.65 81.2 198.0 80.75 197.6 80.95 197.55 81.1 197.35 81.1 197.0 81.1 195.8 81.1 195.75 81.1 195.35 81.1 195.1 81.1 194.45 81.1 194.15 81.1 193.65 80.75 193.35 80.7 193.35 81.1 192.7 81.1 192.3 81.1 191.65 81.1 191.0 80.75 190.65 80.5 190.65 79.35 165.55 79.25 163.55 78.3 139.2 77.9 136.8 77.8 136.15 Q78.1 124.7 76.85 113.4 75.7 103.15 75.5 92.85 L75.5 78.3 Q75.7 67.4 75.25 56.45 74.7 43.95 74.7 31.25 L75.7 30.4 75.05 -4.35 75.05 -4.3 74.95 -8.5 75.0 -8.5 75.15 -8.55 75.25 -8.65 75.3 -9.0 75.25 -9.1 75.15 -9.7 75.2 -10.7 75.2 -10.75 75.1 -10.95 75.05 -11.15 75.05 -11.5 Q74.85 -11.9 74.9 -12.35 L74.95 -13.4 74.95 -14.2 74.9 -14.4 74.8 -14.6 74.75 -14.8 74.7 -15.0 74.7 -16.25 74.7 -17.5 74.7 -17.55 74.6 -17.35 74.25 -16.65 M68.85 -13.0 L67.95 -11.75 68.6 -12.4 68.8 -12.8 68.85 -13.0 M69.5 -13.95 L69.3 -13.6 69.6 -13.95 69.8 -14.35 69.5 -13.95 M-84.15 -213.1 L-84.2 -213.4 Q-84.7 -214.55 -86.8 -211.8 L-87.45 -210.85 -88.3 -209.4 -88.6 -209.2 -88.85 -209.0 -88.9 -209.0 -88.85 -208.25 Q-89.5 -206.65 -89.5 -205.15 -89.35 -202.8 -88.5 -202.45 L-88.35 -199.25 -88.35 -199.2 -88.25 -199.15 -85.1 -192.25 -82.9 -191.55 -83.4 -194.65 -82.6 -198.75 -82.75 -199.5 Q-82.25 -200.2 -81.9 -201.65 L-81.4 -205.15 -80.55 -208.0 Q-79.85 -208.65 -79.25 -210.25 -78.5 -212.25 -78.5 -213.3 -78.5 -215.4 -79.85 -214.45 L-80.2 -214.7 Q-81.25 -215.25 -82.75 -214.25 L-83.05 -214.05 -84.15 -213.1 M-81.5 -147.9 L-81.35 -149.2 -81.35 -149.25 -81.3 -149.65 -81.45 -143.55 -81.5 -147.9" fill="#330000" fill-rule="evenodd" stroke="none"/>
    <path d="M68.6 -187.15 L68.75 -186.95 68.75 -186.6 68.7 -186.2 68.6 -185.85 68.6 -187.15 M-79.35 -191.35 L-79.8 -191.5 -79.35 -191.95 -79.35 -191.7 -79.35 -191.35" fill="#990000" fill-rule="evenodd" stroke="none"/>
    <path d="M-81.3 -151.9 L-81.3 -149.95 -81.45 -149.8 -81.4 -152.2 -81.3 -151.9 M-81.3 -149.65 L-81.3 -143.7 -81.45 -143.55 -81.3 -149.65 M76.45 -178.05 L75.8 -177.8 75.6 -181.35 75.8 -181.65 Q76.45 -182.95 76.25 -184.0 L76.9 -183.15 76.45 -178.05 M73.35 -204.9 L73.35 -205.3 73.45 -205.2 73.35 -204.9 M75.85 -188.85 Q76.1 -189.3 76.2 -192.0 L76.2 -195.4 76.2 -197.15 76.35 -197.2 76.3 -197.55 76.2 -197.6 76.2 -199.6 75.75 -204.65 Q75.5 -206.95 74.65 -209.2 L73.9 -210.65 75.2 -210.75 75.0 -211.2 Q75.0 -211.75 75.4 -212.1 L76.1 -212.45 76.15 -212.5 77.25 -212.4 77.05 -212.15 77.0 -211.7 77.4 -210.45 Q77.8 -209.0 78.75 -206.3 L78.85 -206.0 79.25 -204.15 79.4 -201.65 79.4 -200.85 79.3 -199.9 Q79.05 -198.15 78.3 -196.4 77.15 -193.85 77.15 -193.15 L77.15 -192.3 77.15 -192.25 Q77.35 -191.45 78.3 -191.45 L78.6 -191.45 75.8 -188.55 75.85 -188.85 M-79.15 -204.8 L-79.05 -205.25 -79.05 -205.2 -79.1 -205.05 -79.15 -204.8 M80.5 190.65 L80.75 190.65 81.1 191.0 81.1 191.65 81.1 192.3 81.1 192.7 80.7 193.35 Q80.3 193.95 79.5 194.2 L79.25 194.15 79.1 194.2 78.35 194.9 78.2 195.0 78.1 195.05 77.7 195.2 77.65 195.25 76.95 195.35 76.75 195.5 76.6 195.55 75.7 196.15 74.75 196.6 73.75 196.55 61.5 201.75 59.95 201.5 48.2 205.25 Q26.45 215.45 2.95 221.85 L-0.2 222.75 -2.25 222.95 Q-12.1 222.05 -21.5 218.45 -24.25 217.3 -27.15 216.5 -42.85 211.6 -58.2 206.2 L-64.0 203.8 -79.5 198.45 -81.4 197.55 -81.75 197.35 -82.35 197.25 -82.4 197.2 -82.75 196.9 -83.0 196.9 -83.35 196.9 -83.35 196.25 Q-83.3 195.7 -83.5 195.25 L-83.55 195.05 -83.45 194.85 Q-83.4 194.6 -83.05 194.6 L-83.0 194.6 -81.8 194.65 -81.75 194.65 -81.45 194.8 -63.1 201.2 -56.1 203.9 -1.2 221.55 72.95 194.05 73.2 193.8 74.65 193.25 75.95 192.05 76.0 192.3 76.3 192.15 76.95 191.95 76.95 191.8 77.55 191.85 77.7 191.7 Q78.2 191.35 78.95 191.15 L80.1 190.65 80.5 190.65 M80.75 197.6 L81.2 198.0 80.85 198.65 79.5 200.1 78.95 200.7 Q76.65 201.6 74.45 202.65 L71.2 204.05 70.45 204.7 69.45 205.4 68.3 205.2 67.95 205.0 45.2 216.05 37.85 218.45 36.65 218.1 Q19.5 227.7 -1.4 234.45 L-16.8 230.85 -37.65 222.1 -39.45 222.25 -40.35 222.15 -41.3 221.65 -41.6 221.45 -41.9 221.35 -46.05 218.05 -48.15 218.55 -59.55 214.1 -82.2 201.9 -79.55 200.85 -60.3 209.7 -58.2 209.45 -26.8 221.15 -2.9 229.2 Q8.35 227.5 18.6 222.4 23.6 219.9 28.9 217.7 39.3 213.5 49.45 208.9 L70.95 201.2 Q72.05 200.55 73.25 200.05 L74.95 199.4 75.8 198.75 76.0 198.8 76.5 198.6 77.5 198.35 77.85 198.25 Q78.4 198.0 79.0 197.7 L79.75 197.35 79.8 197.3 79.85 197.45 80.7 197.6 80.75 197.6 M-88.3 -209.4 L-87.45 -210.85 -86.8 -211.8 Q-84.7 -214.55 -84.2 -213.4 L-84.15 -213.1 -84.3 -212.9 Q-86.0 -211.1 -86.4 -208.35 L-87.0 -207.4 -87.1 -206.4 -87.15 -205.4 -85.85 -202.5 -85.3 -201.45 Q-84.45 -198.9 -83.85 -198.9 -83.45 -198.9 -83.1 -199.15 L-82.6 -198.75 -83.4 -194.65 -82.9 -191.55 -85.1 -192.25 -88.25 -199.15 -88.35 -199.25 -88.5 -202.45 Q-89.35 -202.8 -89.5 -205.15 -89.5 -206.65 -88.85 -208.25 L-88.9 -209.0 -88.85 -209.0 -88.6 -209.2 -88.75 -209.0 -88.65 -208.75 -88.45 -209.15 -88.3 -209.4" fill="#a53f00" fill-rule="evenodd" stroke="none"/>
    <path d="M-75.0 -210.8 L-76.0 -208.85 -76.75 -206.4 -77.2 -203.35 -77.5 -197.45 -77.5 -197.35 -77.45 -195.3 Q-77.2 -193.1 -76.35 -192.45 L-75.3 -192.45 -74.55 -192.25 -70.9 -191.8 Q-65.6 -191.45 -54.75 -191.45 L-38.85 -191.85 -38.25 -192.0 -17.6 -192.15 -11.75 -192.7 -7.8 -193.05 -7.5 -193.1 -4.85 -193.25 2.15 -193.25 4.0 -193.05 11.8 -192.75 49.05 -192.6 49.7 -192.45 63.6 -192.45 Q69.3 -192.4 70.2 -193.6 70.55 -194.0 70.65 -196.85 L70.65 -198.9 70.55 -202.45 70.4 -203.65 70.45 -205.5 70.35 -206.95 70.35 -211.1 70.3 -211.55 70.7 -211.75 Q71.8 -205.4 71.8 -201.65 L71.6 -191.95 71.3 -186.1 71.25 -185.9 71.25 -185.45 71.35 -185.05 71.8 -180.8 71.85 -176.35 71.75 -167.25 71.75 -166.1 71.85 -165.75 72.0 -165.35 72.1 -164.95 72.25 -164.6 72.25 -163.1 72.25 -161.2 72.25 -160.05 72.15 -159.7 72.0 -159.3 71.75 -158.9 71.85 -150.4 71.95 -150.15 72.1 -149.8 72.2 -149.05 72.25 -147.9 72.1 -146.75 71.9 -146.5 72.75 -83.1 Q73.15 -81.9 73.2 -80.35 L73.25 -80.3 73.25 -78.8 73.2 -76.9 Q73.15 -76.1 73.35 -75.35 L73.45 -75.15 73.75 -74.05 73.85 -72.4 73.85 -72.35 73.75 -70.55 73.75 -70.45 73.75 -70.2 73.75 -70.15 73.75 -69.9 73.65 -68.55 73.75 -67.7 73.85 -67.4 74.15 -66.65 74.3 -64.65 74.6 -64.2 74.6 -51.9 74.6 -38.4 74.6 -36.35 74.4 -36.0 74.35 -35.95 74.35 -35.5 74.4 -35.45 74.55 -33.4 74.25 -33.3 74.25 -32.75 74.25 -31.6 74.25 -28.35 73.55 -27.05 73.25 -26.2 73.1 -25.55 72.95 -25.3 72.9 -25.25 72.9 -24.85 72.9 -24.4 72.55 -23.6 72.25 -22.75 72.1 -22.5 71.75 -22.05 71.65 -21.65 71.6 -21.55 71.55 -21.3 71.25 -20.8 70.65 -19.05 70.35 -18.25 69.65 -16.25 69.1 -14.6 Q66.9 -9.95 57.0 -4.4 54.35 -2.9 50.35 -1.5 L49.15 -1.1 42.65 1.1 29.25 6.25 Q6.95 14.65 1.6 14.65 L1.55 14.65 Q1.2 15.1 0.55 15.1 L-1.65 14.45 -9.5 12.6 -15.0 10.7 Q-19.05 10.2 -38.15 4.1 L-46.25 1.4 -47.7 0.9 -48.0 0.8 Q-54.8 -1.5 -58.9 -3.1 -67.6 -6.55 -72.8 -11.15 L-73.85 -12.1 -74.1 -12.3 -74.6 -12.85 -75.4 -13.75 -76.7 -15.4 -76.7 -15.95 -76.75 -15.95 -76.85 -16.05 -77.15 -16.35 -77.3 -22.8 -77.25 -26.3 -77.15 -26.3 -77.15 -31.15 -77.15 -34.25 -77.1 -34.3 -77.05 -34.5 -76.95 -34.7 -76.95 -34.9 -76.95 -35.5 -76.95 -37.15 -76.95 -38.6 -76.85 -39.0 -76.75 -39.4 -76.7 -39.6 -76.7 -40.25 -76.7 -41.15 -76.65 -41.4 -76.65 -44.6 -76.5 -45.35 -76.4 -45.95 -76.45 -51.5 -76.45 -56.8 -76.55 -57.25 -76.6 -57.45 -76.7 -57.65 -76.7 -58.25 -76.7 -60.9 -76.7 -61.45 -76.7 -62.35 -76.7 -63.6 -76.75 -65.4 -76.75 -66.5 -76.7 -66.85 -76.4 -67.3 Q-76.15 -68.2 -76.2 -69.2 L-76.15 -71.45 -76.05 -71.95 -76.05 -72.15 -75.55 -96.8 -75.35 -127.0 -75.4 -128.5 -75.5 -137.45 -75.75 -139.4 -75.9 -144.55 -76.0 -144.75 -76.15 -145.15 -76.3 -146.25 -76.25 -147.8 -76.25 -148.9 -76.4 -149.3 -76.5 -149.7 -76.65 -150.05 -76.75 -150.45 -76.75 -155.0 -76.75 -159.9 -76.75 -161.05 -76.7 -161.4 -76.4 -161.8 -76.3 -162.2 -76.25 -162.85 -76.25 -162.95 -76.25 -164.1 -76.25 -165.35 -76.25 -165.85 -76.25 -172.3 -76.25 -172.45 -76.25 -174.05 -76.25 -175.2 -76.25 -175.3 -76.55 -175.65 -76.65 -175.8 -77.3 -181.65 -78.3 -183.25 -78.35 -187.2 -78.75 -188.45 -79.35 -189.2 -79.35 -191.35 -79.35 -191.7 -79.35 -191.95 -79.55 -193.65 -79.6 -193.95 -79.8 -197.45 -79.8 -200.9 -79.15 -204.75 -79.15 -204.8 -79.1 -205.05 -79.05 -205.2 -79.05 -205.25 -79.0 -205.4 -78.6 -207.15 -78.1 -209.05 Q-77.2 -210.6 -75.0 -210.8 M76.1 -212.45 L76.15 -212.65 76.2 -212.7 76.45 -213.0 77.9 -213.4 78.1 -213.4 78.15 -213.45 Q79.3 -214.75 80.4 -214.5 L81.75 -214.0 Q81.25 -214.0 81.0 -213.4 80.75 -212.8 80.75 -211.55 80.6 -209.75 80.85 -207.95 81.15 -205.9 82.0 -205.0 L82.3 -204.75 Q82.8 -204.4 83.5 -204.4 L84.55 -205.0 84.7 -205.15 85.1 -205.6 85.5 -206.05 85.5 -204.0 Q85.5 -200.45 83.3 -196.15 L83.15 -195.8 83.1 -195.75 Q81.7 -192.45 79.9 -191.9 L78.6 -191.45 78.3 -191.45 Q77.35 -191.45 77.15 -192.25 L77.15 -192.3 77.15 -193.15 Q77.15 -193.85 78.3 -196.4 79.05 -198.15 79.3 -199.9 L79.4 -200.85 79.4 -201.65 79.25 -204.15 78.85 -206.0 78.75 -206.3 Q77.8 -209.0 77.4 -210.45 L77.0 -211.7 77.05 -212.15 77.25 -212.4 76.15 -212.5 76.1 -212.45 M68.6 -187.15 L68.6 -191.15 65.8 -191.25 63.8 -191.05 42.55 -189.6 Q41.15 -190.2 39.3 -189.65 L38.65 -189.4 31.85 -189.7 31.85 -189.45 -7.8 -190.8 -43.65 -190.05 -46.8 -190.25 -49.75 -190.45 -49.55 -190.7 -59.05 -190.2 -72.05 -190.4 -71.7 -190.05 Q-74.65 -190.5 -74.65 -188.6 L-74.45 -186.95 -74.7 -187.1 -74.5 -185.2 -74.35 -184.45 -74.25 -183.55 -74.25 -183.25 -73.45 -176.7 -73.5 -175.7 -73.25 -174.2 -73.25 -171.85 -72.4 -162.3 -72.55 -162.25 -72.55 -161.95 Q-72.4 -159.85 -72.05 -158.5 L-72.05 -158.15 -72.1 -158.05 -72.75 -157.9 -73.1 -157.5 -73.25 -157.15 -73.25 -156.4 -73.25 -155.25 -73.25 -154.5 -73.5 -154.1 -73.7 -153.7 -73.75 -153.35 -73.75 -152.6 -73.75 -151.05 -73.75 -149.95 -73.5 -149.55 -73.3 -149.15 -73.25 -148.8 -73.25 -147.65 Q-73.25 -145.95 -73.4 -144.25 -73.5 -142.6 -72.9 -141.2 L-72.7 -140.4 -72.75 -140.35 -72.75 -139.8 -72.75 -139.3 -72.7 -139.15 -72.7 -132.1 Q-72.65 -128.5 -72.9 -124.9 L-73.2 -124.5 -73.25 -124.15 -73.25 -123.4 -73.35 -120.75 Q-73.45 -119.5 -72.9 -118.45 L-72.8 -117.95 -73.0 -117.85 -73.15 -117.75 -73.4 -103.1 -73.75 -99.7 Q-73.85 -97.35 -74.05 -96.35 L-74.35 -72.4 -74.05 -72.05 -73.75 -71.7 -73.75 -69.8 -73.7 -67.55 -73.9 -66.4 -74.4 -60.75 -74.4 -59.55 -74.4 -59.15 -74.3 -58.75 -74.0 -58.3 -73.9 -56.55 -73.9 -56.5 -73.85 -53.65 -73.9 -52.45 -74.0 -44.45 -73.95 -44.4 -73.8 -43.3 -73.8 -40.45 -73.8 -37.3 -73.8 -34.35 -73.8 -34.15 -73.8 -33.85 -73.9 -33.75 -73.9 -31.7 -73.9 -30.0 -73.9 -29.65 -73.9 -28.8 -73.95 -28.45 -74.25 -28.0 -74.4 -26.3 -74.3 -26.3 -74.3 -25.9 -74.3 -25.7 -74.25 -25.65 -74.2 -21.75 -74.05 -21.4 -74.0 -21.2 -73.9 -21.0 -73.8 -20.8 -73.8 -20.6 -73.8 -20.55 -73.75 -20.35 -73.75 -20.25 -73.6 -19.9 -73.6 -19.75 -73.55 -19.55 -72.95 -17.85 -72.3 -16.45 -72.3 -16.25 -72.3 -16.05 -72.3 -15.85 -72.1 -15.65 -71.95 -15.45 -71.8 -15.25 -71.8 -15.05 -71.8 -14.85 -71.7 -14.6 -71.5 -14.4 -71.4 -14.2 -71.2 -13.8 -71.05 -13.4 -70.85 -13.2 -70.8 -13.0 -70.75 -12.8 -70.55 -12.55 -70.35 -12.35 -70.3 -12.15 -70.4 -11.9 -70.6 -11.6 -65.75 -8.5 Q-60.3 -5.45 -53.9 -3.2 L-48.1 -1.05 -40.9 1.65 Q-33.25 4.4 -27.4 5.8 L-15.2 9.3 Q-14.0 9.35 -11.2 10.4 L-5.85 11.85 -0.05 13.15 0.6 13.4 0.7 13.3 3.4 13.6 Q4.45 13.6 4.8 13.15 7.4 12.6 17.05 8.65 L31.65 2.35 Q34.95 1.15 43.45 -2.8 48.2 -5.0 50.95 -6.45 L52.6 -7.4 56.35 -9.35 Q58.85 -9.5 63.45 -14.5 L66.05 -17.45 65.9 -16.85 66.0 -17.1 66.65 -17.7 67.35 -18.85 68.25 -20.4 68.45 -20.6 68.7 -21.2 68.85 -21.4 68.85 -21.5 69.05 -21.9 69.05 -22.1 69.05 -22.3 69.05 -22.5 69.05 -22.7 69.25 -22.9 69.3 -23.1 69.35 -23.3 69.4 -23.5 69.5 -23.75 69.55 -23.95 69.5 -24.95 Q69.45 -25.5 69.75 -26.0 L69.8 -26.2 69.8 -26.4 69.8 -26.6 69.9 -26.8 70.0 -27.2 70.05 -27.4 70.05 -27.6 70.05 -28.25 70.05 -28.85 70.15 -29.05 70.25 -29.45 70.3 -29.65 70.3 -29.85 70.3 -30.5 70.4 -31.1 70.45 -31.3 70.55 -31.5 70.55 -31.7 70.55 -32.15 70.6 -32.55 70.65 -32.95 70.7 -33.15 70.8 -33.35 70.8 -33.55 70.8 -33.95 70.8 -35.15 70.8 -35.95 70.8 -36.35 70.9 -36.75 70.95 -36.95 71.05 -37.2 71.05 -37.4 71.05 -38.2 71.15 -43.55 Q71.25 -46.35 70.8 -49.05 L70.8 -49.9 70.8 -55.2 70.8 -60.75 70.75 -60.95 70.65 -61.35 70.55 -61.75 70.55 -61.95 70.55 -63.2 70.55 -64.4 70.4 -64.65 70.3 -64.65 70.3 -64.9 70.25 -68.05 70.0 -68.15 69.95 -68.1 69.7 -67.95 69.7 -77.35 Q69.6 -77.8 69.65 -78.3 L69.7 -78.95 69.7 -132.0 69.7 -140.15 69.7 -148.65 69.55 -148.9 69.25 -149.3 69.25 -150.45 69.25 -151.95 69.25 -152.1 69.25 -152.3 69.0 -152.6 68.95 -152.65 68.95 -155.05 68.9 -160.5 68.55 -163.45 68.6 -163.6 68.75 -163.95 68.75 -165.1 68.75 -167.0 68.75 -168.5 68.6 -168.9 68.5 -169.25 68.35 -169.65 68.25 -170.05 68.25 -171.15 68.25 -177.25 68.25 -182.0 68.25 -182.05 68.45 -182.45 68.6 -182.8 68.75 -183.15 68.75 -183.55 68.75 -183.95 68.75 -184.3 68.75 -184.7 68.6 -185.05 68.6 -185.85 68.7 -186.2 68.75 -186.6 68.75 -186.95 68.6 -187.15 M73.1 -14.15 L73.2 -14.25 73.2 -14.35 73.2 -14.55 73.45 -14.95 73.7 -15.3 74.1 -16.35 74.25 -16.65 74.6 -17.35 74.7 -17.55 74.7 -17.5 74.7 -16.25 74.7 -15.0 74.75 -14.8 74.8 -14.6 74.9 -14.4 74.95 -14.2 74.95 -13.4 74.9 -12.35 Q74.85 -11.9 75.05 -11.5 L75.05 -11.15 75.1 -10.95 75.2 -10.75 75.2 -10.7 75.15 -9.7 75.25 -9.1 75.3 -9.0 75.25 -8.65 75.15 -8.55 75.0 -8.5 74.95 -8.5 75.05 -4.3 75.05 -4.35 75.7 30.4 74.7 31.25 Q74.7 43.95 75.25 56.45 75.7 67.4 75.5 78.3 L75.5 92.85 Q75.7 103.15 76.85 113.4 78.1 124.7 77.8 136.15 L77.9 136.8 78.3 139.2 79.25 163.55 79.35 165.55 80.5 190.65 80.1 190.65 78.95 191.15 Q78.2 191.35 77.7 191.7 L76.55 170.55 Q75.45 154.2 74.95 137.7 74.85 134.65 74.35 131.35 73.25 124.25 73.65 117.15 L73.65 111.5 73.35 104.95 Q72.45 76.05 72.85 46.95 73.25 22.0 72.45 -2.75 L72.4 -3.15 72.35 -3.1 72.3 -5.0 72.4 -5.0 72.55 -5.2 72.55 -5.4 72.55 -6.0 72.55 -9.1 72.55 -11.95 72.4 -12.15 72.2 -12.15 72.25 -12.25 72.4 -12.5 72.45 -12.7 72.5 -12.9 72.7 -13.1 72.7 -13.3 72.8 -13.5 73.0 -13.75 73.15 -13.95 73.15 -14.15 73.1 -14.15 M-75.4 -8.75 L-75.4 -8.35 -75.3 -8.05 -75.15 -7.75 -75.25 -5.85 Q-75.35 -4.75 -74.85 -3.75 L-74.85 -3.25 -74.95 -3.35 -74.9 -3.0 -75.05 -0.4 -75.1 -0.45 -75.15 0.35 -75.25 1.7 -75.4 9.9 -75.0 13.45 -75.0 15.85 -75.15 19.2 -75.0 20.95 -75.0 26.3 Q-74.95 28.55 -74.45 29.4 L-74.55 32.65 -74.5 33.85 -74.4 34.15 Q-76.1 50.15 -76.45 66.6 L-76.55 68.2 -77.7 82.55 Q-78.95 99.55 -79.05 116.95 L-79.3 119.6 Q-80.25 125.1 -80.15 130.85 -79.8 147.85 -81.05 164.75 -82.15 179.75 -81.8 194.65 L-83.0 194.6 -83.05 194.6 Q-83.4 194.6 -83.45 194.85 L-83.55 195.05 -83.65 194.95 -83.65 194.9 -83.9 193.2 -83.8 191.9 Q-83.75 191.15 -84.2 190.6 L-84.8 186.05 -80.8 78.75 Q-78.75 72.2 -78.9 65.1 L-78.85 63.7 Q-78.3 57.1 -77.9 50.5 -77.0 36.45 -76.6 22.45 -76.25 11.2 -76.55 -0.15 L-76.6 -0.95 -76.65 -0.95 -76.8 -5.35 -76.75 -5.3 -76.65 -5.2 -76.65 -5.6 -76.65 -7.75 -76.65 -8.6 -76.65 -9.4 -76.45 -9.7 -76.3 -9.55 -75.75 -9.15 -75.4 -8.75 M-82.8 201.7 L-82.9 200.85 -82.85 200.85 -82.6 200.95 -82.8 201.7 M-83.15 198.95 L-83.2 198.4 -83.15 198.45 -83.15 198.6 -83.15 198.95 M64.1 -18.35 L64.25 -18.45 64.05 -18.1 64.1 -18.35 M-84.15 -213.1 L-83.05 -214.05 -82.75 -214.25 Q-81.25 -215.25 -80.2 -214.7 L-79.85 -214.45 -80.65 -213.85 -80.9 -213.6 -82.1 -212.0 -82.55 -211.0 -82.55 -210.9 -82.85 -209.15 Q-82.8 -207.7 -81.6 -207.65 L-81.5 -207.65 Q-81.0 -207.65 -80.55 -208.0 L-81.4 -205.15 -81.9 -201.65 Q-82.25 -200.2 -82.75 -199.5 L-82.6 -198.75 -83.1 -199.15 Q-83.45 -198.9 -83.85 -198.9 -84.45 -198.9 -85.3 -201.45 L-85.6 -202.55 -85.85 -202.5 -87.15 -205.4 -87.1 -206.4 -87.0 -207.4 -86.4 -208.35 Q-86.0 -211.1 -84.3 -212.9 L-84.15 -213.1 M-88.25 -199.15 L-88.35 -199.2 -88.35 -199.25 -88.25 -199.15 M-88.6 -209.2 L-88.3 -209.4 -88.45 -209.15 -88.65 -208.75 -88.75 -209.0 -88.6 -209.2" fill="#ff9900" fill-rule="evenodd" stroke="none"/>
    <path d="M81.75 -214.0 Q82.35 -214.0 83.45 -212.9 86.15 -210.15 86.15 -207.4 L85.5 -206.05 85.1 -205.6 84.7 -205.15 84.55 -205.0 83.5 -204.4 Q82.8 -204.4 82.3 -204.75 L82.0 -205.0 Q81.15 -205.9 80.85 -207.95 80.6 -209.75 80.75 -211.55 80.75 -212.8 81.0 -213.4 81.25 -214.0 81.75 -214.0 M-79.85 -214.45 Q-78.5 -215.4 -78.5 -213.3 -78.5 -212.25 -79.25 -210.25 -79.85 -208.65 -80.55 -208.0 -81.0 -207.65 -81.5 -207.65 L-81.6 -207.65 Q-82.8 -207.7 -82.85 -209.15 L-82.55 -210.9 -82.55 -211.0 -82.1 -212.0 -80.9 -213.6 -80.65 -213.85 -79.85 -214.45" fill="#ffffff" fill-rule="evenodd" stroke="none"/>
    <path d="M-81.3 -149.95 L-81.3 -149.65 -81.35 -149.25 -81.35 -149.2 -81.5 -147.9 -81.45 -149.8 -81.3 -149.95 M-81.3 -143.7 L-81.5 -141.5 -81.45 -143.55 -81.3 -143.7 M75.55 -177.75 L75.35 -177.7 Q75.2 -178.2 75.2 -178.7 L75.55 -177.75" fill="#ff9933" fill-rule="evenodd" stroke="none"/>
    <path d="M75.8 -177.8 L75.55 -177.75 75.2 -178.7 75.6 -181.35 75.8 -177.8" fill="#cc6600" fill-rule="evenodd" stroke="none"/>
    <path d="M-75.0 -210.8 L-74.5 -211.4 -55.35 -211.4 -53.75 -211.55 -51.9 -211.65 -51.2 -211.7 -47.05 -211.9 -42.75 -211.65 -41.8 -211.5 -38.9 -211.05 -38.75 -211.0 -38.0 -210.9 -18.8 -210.9 -17.9 -211.15 -9.75 -211.15 -4.3 -211.15 Q-0.75 -211.2 1.1 -211.9 L22.1 -211.95 25.25 -211.65 43.35 -211.65 46.6 -211.85 51.5 -212.4 69.6 -212.4 70.2 -212.55 72.8 -212.35 75.75 -212.35 76.05 -212.65 76.15 -212.65 76.1 -212.45 75.4 -212.1 Q75.0 -211.75 75.0 -211.2 L75.2 -210.75 73.9 -210.65 74.65 -209.2 Q75.5 -206.95 75.75 -204.65 L76.2 -199.6 76.2 -197.6 76.2 -197.15 76.2 -195.4 76.2 -192.0 Q76.1 -189.3 75.85 -188.85 L75.7 -188.8 Q75.05 -188.8 75.1 -190.05 L75.2 -192.1 Q75.05 -193.15 75.3 -195.45 L75.1 -202.9 Q74.65 -207.05 72.9 -210.45 L73.35 -205.3 73.35 -204.9 73.4 -200.5 73.05 -192.35 Q72.7 -187.5 72.25 -185.5 L72.15 -184.1 71.8 -180.8 71.35 -185.05 71.25 -185.45 71.25 -185.9 71.3 -186.1 71.6 -191.95 71.8 -201.65 Q71.8 -205.4 70.7 -211.75 L70.3 -211.55 70.35 -211.1 70.35 -206.95 70.45 -205.5 70.4 -203.65 70.55 -202.45 70.65 -198.9 70.65 -196.85 Q70.55 -194.0 70.2 -193.6 69.3 -192.4 63.6 -192.45 L49.7 -192.45 49.05 -192.6 11.8 -192.75 4.0 -193.05 2.15 -193.25 -4.85 -193.25 -7.5 -193.1 -7.8 -193.05 -11.75 -192.7 -17.6 -192.15 -38.25 -192.0 -38.85 -191.85 -54.75 -191.45 Q-65.6 -191.45 -70.9 -191.8 L-74.55 -192.25 -75.3 -192.45 -76.35 -192.45 Q-77.2 -193.1 -77.45 -195.3 L-77.5 -197.35 -77.5 -197.45 -77.2 -203.35 -76.75 -206.4 -76.0 -208.85 -75.0 -210.8 M72.35 -206.45 L72.4 -206.25 72.4 -206.5 72.35 -206.45 M-73.9 -30.0 L-73.9 -31.7 -73.9 -33.75 -73.8 -33.85 -73.8 -33.75 -73.8 -30.95 -73.8 -29.85 -73.8 -29.65 -73.9 -30.0 M-73.8 -43.3 L-73.95 -44.4 -73.85 -44.25 -73.8 -44.05 -73.8 -43.65 -73.8 -43.3 M-73.85 -53.65 L-73.9 -56.5 -73.9 -56.55 -73.75 -56.85 -73.75 -56.25 -73.8 -56.2 -73.8 -56.0 -73.8 -55.4 -73.8 -55.1 -73.85 -53.65 M64.1 -18.35 L64.35 -18.55 64.25 -18.45 64.1 -18.35" fill="#960000" fill-rule="evenodd" stroke="none"/>
    <path d="M69.25 -149.3 L69.55 -148.9 69.7 -148.65 69.7 -140.15 69.25 -138.5 69.25 -142.1 69.25 -149.3 M-74.25 -183.55 L-74.35 -184.45 -74.2 -184.0 -74.25 -183.95 -74.25 -183.55 M-46.25 1.4 L-46.95 1.3 -47.7 0.95 -48.0 0.8 -47.7 0.9 -46.25 1.4 M60.25 -2.1 L58.8 -1.95 57.0 -0.5 56.8 -0.45 54.8 0.05 50.75 2.15 47.5 3.8 47.2 3.9 45.5 4.3 44.45 4.85 42.2 5.85 40.7 6.3 Q39.65 6.7 38.65 7.15 L37.3 7.8 Q29.05 10.4 16.3 15.1 L11.1 17.05 9.55 17.65 -4.6 16.6 Q-16.45 15.0 -27.8 12.75 -30.5 11.7 -33.9 11.3 L-34.65 11.0 -34.85 10.5 -35.65 9.95 -39.55 8.75 -42.3 7.85 -44.6 7.3 -45.6 6.75 -46.25 6.4 -46.65 6.3 -46.75 6.3 -49.95 5.85 -51.0 5.4 -54.25 4.3 -57.05 3.35 Q-58.9 2.7 -60.9 2.2 -62.9 1.2 -65.4 0.45 L-67.9 -0.45 -68.35 -0.9 -69.2 -1.45 -69.2 -1.6 Q-70.5 -1.8 -73.1 -3.7 L-73.25 -3.8 -73.35 -3.95 -73.55 -4.0 -73.65 -4.05 -73.65 -4.0 -73.75 -4.05 -73.75 -4.0 -73.95 -3.85 -74.05 -3.7 -74.05 -3.5 -74.0 -3.3 -73.9 -3.05 -73.8 -2.85 -73.8 -2.25 -73.8 -2.2 -74.1 -2.5 -74.05 -0.05 -74.05 0.05 -74.05 7.95 -74.15 8.3 -74.15 24.75 -74.45 29.4 Q-74.95 28.55 -75.0 26.3 L-75.0 20.95 -75.15 19.2 -75.0 15.85 -75.0 13.45 -75.4 9.9 -75.25 1.7 -75.15 0.35 -75.1 -0.45 -75.05 -0.4 -74.9 -3.0 -74.95 -3.35 -74.85 -3.25 -74.7 -3.05 -74.7 -3.2 -74.75 -3.55 -74.85 -3.75 Q-75.35 -4.75 -75.25 -5.85 L-75.15 -7.75 -75.3 -8.05 -75.4 -8.35 -75.4 -8.75 -75.2 -8.55 -74.75 -8.4 -74.7 -8.35 -74.25 -8.0 -73.95 -7.8 -73.9 -7.75 -73.0 -7.05 -72.55 -6.75 -69.3 -4.25 -68.2 -3.8 -64.25 -2.3 -63.25 -2.0 -63.05 -1.75 -62.75 -1.45 -60.55 -0.95 -58.75 -0.45 -58.45 -0.35 -54.85 0.9 -48.95 2.55 -47.45 3.15 -46.25 3.65 -43.6 4.65 -41.75 5.25 -39.3 6.2 Q-35.15 7.1 -31.45 8.4 L-30.65 8.75 -30.4 8.85 -18.0 12.2 -14.7 12.55 -13.95 12.85 -11.15 13.5 -6.05 15.0 -5.65 15.1 -3.85 15.15 -3.6 15.3 3.4 15.85 3.6 15.95 4.25 16.05 9.25 15.05 Q11.85 14.5 13.45 13.5 L13.7 13.35 30.0 7.9 Q34.8 6.25 38.7 4.1 L43.3 2.35 46.65 1.2 48.65 0.2 50.6 -0.8 Q53.0 -1.55 55.2 -2.45 57.75 -3.45 59.6 -4.7 61.05 -5.15 62.05 -5.8 L63.2 -6.4 64.0 -6.2 64.5 -6.45 65.55 -7.65 66.75 -8.75 67.75 -8.9 68.1 -9.25 68.5 -9.65 68.65 -10.0 68.85 -10.4 69.5 -11.1 70.0 -11.55 70.1 -11.9 70.25 -12.3 70.6 -12.65 70.7 -12.75 71.0 -13.05 71.25 -13.8 71.65 -14.55 71.95 -15.0 72.35 -15.7 72.5 -16.1 72.6 -16.45 72.75 -16.85 73.35 -17.65 73.6 -18.35 73.7 -18.7 74.0 -19.1 74.1 -19.5 74.25 -19.8 74.25 -16.65 74.1 -16.35 73.7 -15.3 73.45 -14.95 73.2 -14.55 73.2 -14.35 73.2 -14.25 73.1 -14.15 72.1 -12.25 72.05 -12.2 72.0 -12.2 72.0 -12.15 70.95 -11.25 70.7 -11.0 69.95 -10.25 69.4 -9.5 66.6 -6.05 66.25 -6.0 65.7 -5.7 64.8 -5.15 64.5 -4.8 Q62.85 -3.75 61.4 -2.85 L60.25 -2.1 M80.7 193.35 L80.75 193.35 81.1 193.65 81.1 194.15 81.1 194.45 81.1 195.1 81.1 195.35 81.1 195.75 81.1 195.8 81.1 197.0 81.1 197.35 80.95 197.55 80.75 197.6 80.7 197.6 79.85 197.45 79.8 197.3 79.75 197.35 79.0 197.7 Q78.4 198.0 77.85 198.25 L77.5 198.35 76.5 198.6 76.0 198.8 75.8 198.75 75.1 198.7 74.75 198.35 73.5 198.6 71.75 199.6 70.5 200.15 69.65 199.9 69.35 199.7 Q70.3 198.55 72.15 197.85 L73.1 197.35 73.5 197.0 74.75 196.6 75.7 196.15 76.6 195.55 76.75 195.5 77.65 195.25 77.7 195.2 78.1 195.05 78.2 195.0 78.35 194.9 79.1 194.2 79.25 194.15 79.5 194.2 Q80.3 193.95 80.7 193.35 M-82.9 200.85 L-82.9 200.8 -82.9 199.9 -83.0 199.25 -83.15 199.1 -83.15 198.95 -83.15 198.6 -83.15 198.45 -83.2 198.4 -83.35 198.25 -83.4 198.2 -83.4 197.6 -83.35 196.9 -83.0 196.9 -82.75 196.9 -82.4 197.2 -82.35 197.25 -81.75 197.35 -81.4 197.55 -79.5 198.45 -78.8 198.75 Q-77.1 199.6 -75.25 200.05 L-75.0 200.4 -75.0 200.7 Q-75.25 200.9 -75.5 200.9 L-77.15 200.7 -78.4 200.5 -78.6 200.4 -79.0 200.6 -80.4 200.5 -81.0 200.15 -81.3 200.4 -81.5 200.7 -81.65 200.95 -82.0 201.0 -82.6 200.95 -82.85 200.85 -82.9 200.85 M-76.75 -7.85 L-76.75 -9.9 -76.45 -9.7 -76.65 -9.4 -76.65 -8.6 -76.65 -7.75 -76.75 -7.85 M69.5 -13.95 L69.8 -14.35 69.6 -13.95 69.3 -13.6 69.5 -13.95 M68.85 -13.0 L68.8 -12.8 68.6 -12.4 67.95 -11.75 68.85 -13.0 M-56.1 203.9 L-63.1 201.2 Q-60.2 201.2 -58.15 202.0 -56.1 202.8 -56.1 203.9 M61.5 201.75 Q62.85 202.7 61.05 203.4 55.1 205.95 49.45 208.9 39.3 213.5 28.9 217.7 23.6 219.9 18.6 222.4 8.35 227.5 -2.9 229.2 L-26.8 221.15 -58.2 209.45 -64.0 203.8 -58.2 206.2 Q-42.85 211.6 -27.15 216.5 -24.25 217.3 -21.5 218.45 -12.1 222.05 -2.25 222.95 L-0.2 222.75 2.95 221.85 Q26.45 215.45 48.2 205.25 L59.95 201.5 61.5 201.75" fill="#690000" fill-rule="evenodd" stroke="none"/>
    <path d="M69.7 -140.15 L69.7 -132.0 69.25 -131.15 69.25 -138.5 69.7 -140.15 M9.55 17.65 L11.1 17.05 16.3 15.1 Q29.05 10.4 37.3 7.8 L38.65 7.15 Q39.65 6.7 40.7 6.3 L42.2 5.85 44.45 4.85 45.5 4.3 47.2 3.9 47.5 3.8 50.75 2.15 54.8 0.05 56.8 -0.45 57.0 -0.5 58.8 -1.95 60.25 -2.1 61.0 -2.45 Q65.15 -4.65 68.45 -7.4 L68.45 -7.35 68.45 -7.15 68.45 -6.95 68.4 -6.75 68.3 -6.55 68.2 -6.35 68.15 -6.15 68.15 -5.95 67.95 -5.75 67.75 -5.55 67.7 -5.3 67.65 -5.1 67.5 -4.9 67.45 -4.7 67.55 -4.5 67.7 -4.3 67.7 -4.2 67.7 -4.1 67.7 -3.9 67.8 -3.7 68.2 -3.8 68.3 -3.95 68.4 -4.15 68.7 -4.8 68.9 -5.05 69.2 -5.3 69.65 -5.3 69.7 -5.4 69.7 -4.15 69.85 -4.0 70.0 -3.9 69.9 -3.5 69.75 -3.25 69.7 -3.05 69.7 -2.65 69.7 -2.05 69.7 -1.9 63.0 1.05 Q47.05 13.3 26.45 16.5 L9.55 17.65 M-74.05 -0.05 L-74.1 -2.5 -73.8 -2.2 -73.8 -1.45 -73.8 -0.8 -73.6 -0.6 -73.45 -0.4 -73.0 -0.5 -72.6 -0.7 -72.5 -0.9 -72.45 -1.05 -72.5 -1.1 -72.65 -1.3 -72.7 -1.5 -72.7 -1.7 -72.75 -1.9 -72.85 -2.1 -72.9 -2.35 -72.95 -2.75 -72.95 -3.15 -73.0 -3.35 -73.15 -3.55 -73.2 -3.75 -73.25 -3.8 -73.1 -3.7 Q-70.5 -1.8 -69.2 -1.6 L-69.2 -1.45 -68.35 -0.9 -67.9 -0.45 -65.4 0.45 Q-62.9 1.2 -60.9 2.2 -58.9 2.7 -57.05 3.35 L-54.25 4.3 -51.0 5.4 -49.95 5.85 -46.75 6.3 -46.65 6.3 -46.25 6.4 -45.6 6.75 -44.6 7.3 -42.3 7.85 -39.55 8.75 -35.65 9.95 -34.85 10.5 -34.65 11.0 -33.9 11.3 Q-30.5 11.7 -27.8 12.75 L-43.85 9.15 Q-59.4 5.2 -74.05 -0.05 M-72.4 -25.0 L-72.25 -24.65 -72.7 -25.45 -72.7 -25.6 -72.6 -25.4 -72.4 -25.0" fill="url(#gradient0)" fill-rule="evenodd" stroke="none"/>
    <path d="M72.0 -12.15 L72.0 -12.2 72.05 -12.2 72.2 -12.15 72.4 -12.15 72.55 -11.95 72.55 -9.1 72.55 -6.0 72.55 -5.4 72.55 -5.2 72.4 -5.0 72.3 -5.0 72.35 -3.1 72.4 -3.15 72.45 -2.75 Q73.25 22.0 72.85 46.95 72.45 76.05 73.35 104.95 L73.65 111.5 73.65 117.15 Q73.25 124.25 74.35 131.35 74.85 134.65 74.95 137.7 75.45 154.2 76.55 170.55 L75.7 169.5 75.45 166.2 Q74.35 160.7 73.95 154.85 L73.4 145.45 73.25 140.8 72.55 120.75 Q71.7 103.55 71.3 86.45 L71.25 84.45 Q70.05 56.65 70.75 28.6 L70.85 22.55 70.75 0.1 70.9 0.1 71.05 -0.1 71.05 -0.25 71.05 -0.8 71.05 -2.0 71.0 -2.5 71.25 -3.95 71.35 -4.55 71.35 -6.2 71.25 -7.65 71.2 -7.7 71.25 -7.8 71.3 -8.2 71.3 -9.2 71.3 -10.05 71.15 -10.25 71.35 -10.45 71.5 -10.65 71.5 -10.85 71.4 -11.05 71.1 -11.0 71.0 -10.95 71.0 -11.05 71.25 -11.4 71.5 -11.35 71.5 -11.45 71.7 -11.85 72.0 -12.15" fill="#c60000" fill-rule="evenodd" stroke="none"/>
    <path d="M77.75 -89.45 L77.75 -89.9 78.35 -91.0 78.25 -90.65 77.95 -89.95 77.75 -89.45 M73.45 -75.15 L73.75 -76.15 73.75 -74.05 73.45 -75.15 M73.75 -69.9 L73.75 -67.7 73.65 -68.55 73.75 -69.9" fill="url(#gradient1)" fill-rule="evenodd" stroke="none"/>
    <path d="M-74.35 -184.45 L-74.5 -185.2 -74.7 -187.1 -74.45 -186.95 -74.65 -188.6 Q-74.65 -190.5 -71.7 -190.05 L-72.05 -190.4 -59.05 -190.2 -49.55 -190.7 -49.75 -190.45 -46.8 -190.25 -43.65 -190.05 -7.8 -190.8 31.85 -189.45 31.85 -189.7 38.65 -189.4 39.3 -189.65 Q41.15 -190.2 42.55 -189.6 L63.8 -191.05 65.8 -191.25 68.6 -191.15 68.6 -187.15 68.6 -185.85 68.6 -185.05 68.75 -184.7 68.75 -184.3 68.75 -183.95 68.75 -183.55 68.75 -183.15 68.6 -182.8 68.45 -182.45 68.25 -182.05 68.25 -182.0 68.25 -177.25 68.25 -171.15 68.25 -170.05 68.35 -169.65 68.5 -169.25 68.6 -168.9 68.75 -168.5 68.75 -167.0 68.75 -165.1 68.75 -163.95 68.6 -163.6 68.55 -163.45 68.9 -160.5 68.95 -155.05 68.95 -152.65 69.0 -152.6 69.25 -152.3 69.25 -152.1 69.25 -151.95 69.25 -150.45 69.25 -149.3 69.25 -142.1 69.25 -138.5 69.25 -131.15 69.7 -132.0 69.7 -78.95 69.65 -78.3 Q69.6 -77.8 69.7 -77.35 L69.7 -67.95 69.95 -68.1 70.0 -68.15 70.25 -68.05 70.3 -64.9 70.3 -64.65 70.4 -64.65 70.55 -64.4 70.55 -63.2 70.55 -61.95 70.55 -61.75 70.65 -61.35 70.75 -60.95 70.8 -60.75 70.8 -55.2 70.8 -49.9 70.8 -49.05 Q71.25 -46.35 71.15 -43.55 L71.05 -38.2 71.05 -37.4 71.05 -37.2 70.95 -36.95 70.9 -36.75 70.8 -36.35 70.8 -35.95 70.8 -35.15 70.8 -33.95 70.8 -33.55 70.8 -33.35 70.7 -33.15 70.65 -32.95 70.6 -32.55 70.55 -32.15 70.55 -31.7 70.55 -31.5 70.45 -31.3 70.4 -31.1 70.3 -30.5 70.3 -29.85 70.3 -29.65 70.25 -29.45 70.15 -29.05 70.05 -28.85 70.05 -28.25 70.05 -27.6 70.05 -27.4 70.0 -27.2 69.9 -26.8 69.8 -26.6 69.8 -26.4 69.8 -26.2 69.75 -26.0 Q69.45 -25.5 69.5 -24.95 L69.55 -23.95 69.5 -23.75 69.4 -23.5 69.35 -23.3 69.3 -23.1 69.25 -22.9 69.05 -22.7 69.05 -22.5 69.05 -22.3 69.05 -22.1 69.05 -21.9 68.85 -21.5 68.85 -21.4 68.7 -21.2 68.45 -20.6 68.25 -20.4 67.35 -18.85 66.65 -17.7 66.0 -17.1 65.9 -16.85 66.05 -17.45 63.45 -14.5 Q58.85 -9.5 56.35 -9.35 L52.6 -7.4 50.95 -6.45 Q48.2 -5.0 43.45 -2.8 34.95 1.15 31.65 2.35 L17.05 8.65 Q7.4 12.6 4.8 13.15 4.45 13.6 3.4 13.6 L0.7 13.3 -0.05 13.15 -5.85 11.85 -11.2 10.4 Q-14.0 9.35 -15.2 9.3 L-27.4 5.8 Q-33.25 4.4 -40.9 1.65 L-48.1 -1.05 -53.9 -3.2 Q-60.3 -5.45 -65.75 -8.5 L-70.6 -11.6 -70.4 -11.9 -70.3 -12.15 -70.35 -12.35 -70.55 -12.55 -70.75 -12.8 -70.8 -13.0 -70.85 -13.2 -71.05 -13.4 -71.2 -13.8 -71.4 -14.2 -71.5 -14.4 -71.7 -14.6 -71.8 -14.85 -71.8 -15.05 -71.8 -15.25 -71.95 -15.45 -72.1 -15.65 -72.3 -15.85 -72.3 -16.05 -72.3 -16.25 -72.3 -16.45 -72.95 -17.85 -73.55 -19.55 -73.6 -19.75 -73.6 -19.9 -73.75 -20.25 -73.75 -20.35 -73.8 -20.55 -73.8 -20.6 -73.8 -20.8 -73.9 -21.0 -74.0 -21.2 -74.05 -21.4 -74.2 -21.75 -74.25 -25.65 -74.3 -25.7 -74.3 -25.9 -74.3 -26.3 -74.4 -26.3 -74.25 -28.0 -73.95 -28.45 -73.9 -28.8 -73.9 -29.65 -73.9 -30.0 -73.8 -29.65 -73.8 -29.85 -73.8 -30.95 -73.8 -33.75 -73.8 -33.85 -73.8 -34.15 -73.8 -34.35 -73.8 -37.3 -73.8 -40.45 -73.8 -43.3 -73.8 -43.65 -73.8 -44.05 -73.85 -44.25 -73.95 -44.4 -74.0 -44.45 -73.9 -52.45 -73.85 -53.65 -73.8 -55.1 -73.8 -55.4 -73.8 -56.0 -73.8 -56.2 -73.75 -56.25 -73.75 -56.85 -73.9 -56.55 -74.0 -58.3 -74.3 -58.75 -74.4 -59.15 -74.4 -59.55 -74.4 -60.75 -73.9 -66.4 -73.7 -67.55 -73.75 -69.8 -73.75 -71.7 -74.05 -72.05 -74.35 -72.4 -74.05 -96.35 Q-73.85 -97.35 -73.75 -99.7 L-73.4 -103.1 -73.15 -117.75 -73.0 -117.85 -72.8 -117.95 -72.9 -118.45 Q-73.45 -119.5 -73.35 -120.75 L-73.25 -123.4 -73.25 -124.15 -73.2 -124.5 -72.9 -124.9 Q-72.65 -128.5 -72.7 -132.1 L-72.7 -139.15 -72.75 -139.3 -72.75 -139.8 -72.75 -140.35 -72.7 -140.4 -72.9 -141.2 Q-73.5 -142.6 -73.4 -144.25 -73.25 -145.95 -73.25 -147.65 L-73.25 -148.8 -73.3 -149.15 -73.5 -149.55 -73.75 -149.95 -73.75 -151.05 -73.75 -152.6 -73.75 -153.35 -73.7 -153.7 -73.5 -154.1 -73.25 -154.5 -73.25 -155.25 -73.25 -156.4 -73.25 -157.15 -73.1 -157.5 -72.75 -157.9 -72.1 -158.05 -72.05 -158.15 -72.05 -158.5 Q-72.4 -159.85 -72.55 -161.95 L-72.55 -162.25 -72.4 -162.3 -73.25 -171.85 -73.25 -174.2 -73.5 -175.7 -73.45 -176.7 -74.25 -183.25 -74.25 -183.55 -74.25 -183.95 -74.2 -184.0 -74.35 -184.45 M64.25 -18.45 L64.35 -18.55 64.1 -18.35 64.05 -18.1 64.25 -18.45 M-72.4 -25.0 L-72.6 -25.4 -72.7 -25.6 -72.7 -25.45 -72.25 -24.65 -72.4 -25.0" fill="url(#gradient2)" fill-rule="evenodd" stroke="none"/>
    <path d="M60.25 -2.1 L61.4 -2.85 Q62.85 -3.75 64.5 -4.8 L64.8 -5.15 65.7 -5.7 66.25 -6.0 66.6 -6.05 69.4 -9.5 69.95 -10.25 70.7 -11.0 70.95 -11.25 72.0 -12.15 71.7 -11.85 71.5 -11.45 71.5 -11.35 71.25 -11.4 71.0 -11.05 71.0 -10.95 70.45 -10.6 69.95 -10.05 69.9 -9.85 69.8 -9.6 69.7 -9.4 69.65 -9.2 69.45 -9.0 69.25 -8.8 69.2 -8.6 69.15 -8.4 68.95 -8.2 68.75 -8.0 68.45 -7.6 68.45 -7.4 Q65.15 -4.65 61.0 -2.45 L60.25 -2.1 M72.05 -12.2 L72.1 -12.25 73.1 -14.15 73.15 -14.15 73.15 -13.95 73.0 -13.75 72.8 -13.5 72.7 -13.3 72.7 -13.1 72.5 -12.9 72.45 -12.7 72.4 -12.5 72.25 -12.25 72.2 -12.15 72.05 -12.2 M-74.85 -3.75 L-74.75 -3.55 -74.7 -3.2 -74.7 -3.05 -74.85 -3.25 -74.85 -3.75 M-76.75 -5.3 L-76.75 -7.85 -76.65 -7.75 -76.65 -5.6 -76.65 -5.2 -76.75 -5.3" fill="url(#gradient3)" fill-rule="evenodd" stroke="none"/>
    <path d="M-73.8 -2.2 L-73.8 -2.25 -73.8 -2.85 -73.9 -3.05 -74.0 -3.3 -74.05 -3.5 -74.05 -3.7 -73.95 -3.85 -73.75 -4.0 -73.75 -4.05 -73.65 -4.0 -73.55 -4.0 -73.35 -3.95 -73.25 -3.8 -73.2 -3.75 -73.15 -3.55 -73.0 -3.35 -72.95 -3.15 -72.95 -2.75 -72.9 -2.35 -72.85 -2.1 -72.75 -1.9 -72.7 -1.7 -72.7 -1.5 -72.65 -1.3 -72.5 -1.1 -72.45 -1.05 -72.5 -0.9 -72.6 -0.7 -73.0 -0.5 -73.45 -0.4 -73.6 -0.6 -73.8 -0.8 -73.8 -1.45 -73.8 -2.2 M69.7 -1.9 L69.7 -2.05 69.7 -2.65 69.7 -3.05 69.75 -3.25 69.9 -3.5 70.0 -3.9 69.85 -4.0 69.7 -4.15 69.7 -5.4 69.65 -5.3 69.2 -5.3 69.05 -5.3 68.9 -5.05 68.7 -4.8 68.4 -4.15 68.3 -3.95 68.2 -3.8 67.8 -3.7 67.7 -3.9 67.7 -4.1 67.7 -4.2 67.7 -4.3 67.55 -4.5 67.45 -4.7 67.5 -4.9 67.65 -5.1 67.7 -5.3 67.75 -5.55 67.95 -5.75 68.15 -5.95 68.15 -6.15 68.2 -6.35 68.3 -6.55 68.4 -6.75 68.45 -6.95 68.45 -7.15 68.45 -7.35 68.45 -7.4 68.45 -7.6 68.75 -8.0 68.95 -8.2 69.15 -8.4 69.2 -8.6 69.25 -8.8 69.45 -9.0 69.65 -9.2 69.7 -9.4 69.8 -9.6 69.9 -9.85 69.95 -10.05 70.45 -10.6 71.0 -10.95 71.1 -11.0 71.4 -11.05 71.5 -10.85 71.5 -10.65 71.35 -10.45 71.15 -10.25 71.3 -10.05 71.3 -9.2 71.3 -8.2 71.25 -7.8 71.2 -7.7 71.25 -7.65 71.35 -6.2 71.35 -4.55 71.25 -3.95 71.0 -2.5 71.05 -2.0 71.05 -0.8 71.05 -0.25 71.05 -0.1 70.9 0.1 70.75 0.1 70.6 0.05 70.45 -0.1 70.45 -0.45 70.45 -0.6 70.45 -0.8 70.45 -0.95 70.4 -1.15 70.25 -1.35 69.95 -1.45 69.95 -1.5 69.9 -1.65 69.8 -1.8 69.75 -1.95 69.7 -1.9" fill="#870000" fill-rule="evenodd" stroke="none"/>
    <path d="M-73.65 -4.0 L-73.65 -4.05 -73.55 -4.0 -73.65 -4.0 M69.2 -5.3 L68.9 -5.05 69.05 -5.3 69.2 -5.3" fill="url(#gradient4)" fill-rule="evenodd" stroke="none"/>
    <path d="M-85.85 -202.5 L-85.6 -202.55 -85.3 -201.45 -85.85 -202.5" fill="#ffffcc" fill-rule="evenodd" stroke="none"/>
    <path d="M-80.2 -31.9 L-80.15 -30.8 -80.45 -31.0 -80.45 -31.5 -80.2 -31.9" fill="url(#gradient5)" fill-rule="evenodd" stroke="none"/>
    <path d="M-74.45 29.4 L-74.15 24.75 -74.15 8.3 -74.05 7.95 -74.05 0.05 -74.05 -0.05 Q-59.4 5.2 -43.85 9.15 L-27.8 12.75 Q-16.45 15.0 -4.6 16.6 L9.55 17.65 26.45 16.5 Q47.05 13.3 63.0 1.05 L69.7 -1.9 69.75 -1.95 69.8 -1.8 69.9 -1.65 69.95 -1.5 69.95 -1.45 70.25 -1.35 70.4 -1.15 70.45 -0.95 70.45 -0.8 70.45 -0.6 70.45 -0.45 70.45 -0.1 70.6 0.05 70.75 0.1 70.85 22.55 70.75 28.6 Q70.05 56.65 71.25 84.45 L71.3 86.45 Q71.7 103.55 72.55 120.75 L73.25 140.8 73.4 145.45 73.95 154.85 Q74.35 160.7 75.45 166.2 L75.7 169.5 76.55 170.55 77.7 191.7 77.55 191.85 76.95 191.8 76.95 191.95 76.3 192.15 76.0 192.3 75.95 192.05 74.65 193.25 73.2 193.8 72.95 194.05 -1.2 221.55 -56.1 203.9 Q-56.1 202.8 -58.15 202.0 -60.2 201.2 -63.1 201.2 L-81.45 194.8 -81.75 194.65 -81.8 194.65 Q-82.15 179.75 -81.05 164.75 -79.8 147.85 -80.15 130.85 -80.25 125.1 -79.3 119.6 L-79.05 116.95 Q-78.95 99.55 -77.7 82.55 L-76.55 68.2 -76.45 66.6 Q-76.1 50.15 -74.4 34.15 L-74.5 33.85 -74.55 32.65 -74.45 29.4 M-82.2 201.9 L-82.8 201.7 -82.6 200.95 -82.0 201.0 -81.65 200.95 -81.5 200.7 -81.3 200.4 -81.0 200.15 -80.4 200.5 -79.0 200.6 -78.6 200.4 -78.4 200.5 -77.15 200.7 -75.5 200.9 Q-75.25 200.9 -75.0 200.7 L-75.0 200.4 -75.25 200.05 Q-77.1 199.6 -78.8 198.75 L-79.5 198.45 -64.0 203.8 -58.2 209.45 -60.3 209.7 -79.55 200.85 -82.2 201.9 M61.5 201.75 L73.75 196.55 74.75 196.6 73.5 197.0 73.1 197.35 72.15 197.85 Q70.3 198.55 69.35 199.7 L69.65 199.9 70.5 200.15 71.75 199.6 73.5 198.6 74.75 198.35 75.1 198.7 75.8 198.75 74.95 199.4 73.25 200.05 Q72.05 200.55 70.95 201.2 L49.45 208.9 Q55.1 205.95 61.05 203.4 62.85 202.7 61.5 201.75 M76.75 195.5 L76.95 195.35 77.65 195.25 76.75 195.5" fill="url(#gradient6)" fill-rule="evenodd" stroke="none"/>
    <path d="M2.65 -5.55 Q3.2 -4.9 3.2 -3.85 L2.9 -3.0 2.65 -2.7 2.55 -2.5 2.55 -2.3 2.75 -1.5 3.35 -0.4 3.85 0.6 5.65 -0.5 5.75 -1.25 Q5.8 -1.65 6.2 -2.05 6.6 -2.45 7.4 -2.45 8.15 -2.4 8.6 -2.0 L8.95 -1.45 9.3 -0.5 9.3 -0.2 8.45 0.85 8.4 0.85 8.05 1.05 7.85 1.2 6.8 3.7 6.25 5.1 5.8 6.45 4.9 6.5 -1.95 6.55 -3.05 6.5 -3.2 6.5 -3.75 6.5 -5.4 1.4 -5.6 1.4 Q-6.2 1.4 -6.65 0.85 L-6.9 0.5 -7.15 0.05 -7.35 -0.8 -7.3 -1.1 -7.05 -1.55 -6.5 -2.1 Q-5.9 -2.6 -5.5 -2.6 -4.3 -2.6 -3.85 -1.85 -3.55 -1.35 -3.6 -0.65 L-3.4 -0.5 -1.4 0.5 -1.1 -0.35 -0.7 -1.35 -0.5 -1.95 -0.45 -2.1 -0.65 -2.6 -0.75 -2.8 Q-1.25 -3.45 -1.25 -4.45 -1.25 -5.15 -0.4 -5.7 0.35 -6.15 1.2 -6.15 L1.4 -6.15 Q2.15 -6.1 2.65 -5.55 M2.55 -3.85 L2.55 -4.15 2.1 -4.85 1.05 -5.3 0.05 -4.85 -0.1 -4.65 -0.4 -3.85 Q-0.4 -3.2 0.05 -2.8 L0.5 -2.45 -1.1 1.15 -4.2 -0.2 -4.15 -0.35 -4.15 -0.65 -4.15 -0.7 Q-4.15 -1.25 -4.5 -1.6 -4.8 -1.9 -5.35 -1.9 L-5.4 -1.9 -6.3 -1.6 Q-6.65 -1.2 -6.65 -0.65 L-6.5 -0.1 -6.3 0.2 -5.9 0.5 -5.85 0.6 -5.65 0.6 -5.5 0.6 -3.35 5.7 5.4 5.7 7.55 0.6 7.95 0.5 8.35 0.15 8.4 0.1 8.5 -0.05 8.6 -0.15 8.6 -0.2 8.65 -0.35 8.65 -0.65 8.35 -1.6 7.6 -1.9 7.45 -1.9 7.35 -1.9 6.5 -1.6 6.25 -1.1 6.1 -0.65 6.2 -0.4 6.25 -0.2 3.7 1.25 1.8 -2.6 2.1 -2.8 Q2.55 -3.2 2.55 -3.85 M5.5 7.75 L7.45 5.85 7.75 5.5 8.9 4.4 Q9.8 3.5 10.5 3.6 L11.55 3.65 Q12.5 3.8 13.25 4.55 14.1 5.4 14.1 6.55 L13.8 8.25 Q13.65 7.35 12.65 6.8 L12.25 6.65 11.5 6.6 Q10.95 6.6 9.2 7.55 7.4 8.5 5.65 8.5 L5.25 8.5 6.1 8.35 6.4 8.3 Q8.0 7.8 9.0 6.95 10.15 5.95 10.95 5.9 L11.35 5.9 12.3 6.0 13.15 6.6 13.15 6.65 13.4 6.95 13.4 6.5 13.4 6.4 13.25 5.65 12.95 5.1 12.6 4.8 Q11.95 4.3 11.1 4.15 L10.95 4.1 Q9.9 4.0 8.9 4.95 L8.5 5.25 6.6 6.95 5.5 7.75 M-9.45 3.45 L-9.3 3.4 -8.2 3.2 Q-7.7 3.2 -7.05 3.7 L-6.15 4.5 -4.7 6.2 -3.8 6.85 -2.6 7.5 -0.25 8.4 -0.3 8.5 -0.3 8.55 -1.25 8.75 -2.25 8.9 -2.8 8.9 -3.45 8.9 -5.35 8.55 Q-5.9 8.35 -6.45 7.95 L-6.8 7.75 Q-8.4 6.6 -9.05 6.6 L-9.45 6.65 -10.15 6.75 -11.65 8.25 -11.75 7.0 Q-11.75 5.3 -10.95 4.35 -10.35 3.65 -9.45 3.45 M-8.85 4.1 L-9.45 4.3 Q-10.1 4.55 -10.65 5.1 L-11.15 6.45 -11.1 6.75 -11.1 6.95 -10.8 6.55 -10.75 6.45 Q-10.4 6.05 -10.0 6.0 L-9.45 5.9 -8.7 5.85 Q-7.85 5.9 -6.7 6.85 L-5.7 7.6 -5.1 7.9 -4.1 8.25 -3.8 8.35 -1.85 8.6 -1.4 8.6 -0.7 8.55 -0.7 8.4 -1.3 8.35 Q-3.2 7.85 -4.15 7.05 L-4.3 6.95 -4.35 6.95 -6.55 4.9 Q-7.45 4.15 -8.2 4.1 L-8.85 4.1" fill="#710000" fill-rule="evenodd" stroke="none"/>
    <path d="M2.55 -3.85 Q2.55 -3.2 2.1 -2.8 L1.8 -2.6 3.7 1.25 6.25 -0.2 6.2 -0.4 6.1 -0.65 6.25 -1.1 6.5 -1.6 7.35 -1.9 7.45 -1.9 7.6 -1.9 8.35 -1.6 8.65 -0.65 8.65 -0.35 8.6 -0.2 8.6 -0.15 8.5 -0.05 8.4 0.1 8.35 0.15 7.95 0.5 7.55 0.6 5.4 5.7 -3.35 5.7 -5.5 0.6 -5.65 0.6 -5.85 0.6 -5.9 0.5 -6.3 0.2 -6.5 -0.1 -6.65 -0.65 Q-6.65 -1.2 -6.3 -1.6 L-5.4 -1.9 -5.35 -1.9 Q-4.8 -1.9 -4.5 -1.6 -4.15 -1.25 -4.15 -0.7 L-4.15 -0.65 -4.15 -0.35 -4.2 -0.2 -1.1 1.15 0.5 -2.45 0.05 -2.8 Q-0.4 -3.2 -0.4 -3.85 L-0.1 -4.65 0.05 -4.85 1.05 -5.3 2.1 -4.85 2.55 -4.15 2.55 -3.85" fill="url(#gradient7)" fill-rule="evenodd" stroke="none"/>
    <path d="M5.5 7.75 L6.6 6.95 8.5 5.25 8.9 4.95 Q9.9 4.0 10.95 4.1 L11.1 4.15 Q11.95 4.3 12.6 4.8 L12.95 5.1 13.25 5.65 13.4 6.4 13.4 6.5 13.4 6.95 13.15 6.65 13.15 6.6 12.3 6.0 11.35 5.9 10.95 5.9 Q10.15 5.95 9.0 6.95 8.0 7.8 6.4 8.3 L6.1 8.35 5.25 8.5 4.1 8.65 3.5 8.6 3.0 8.6 3.0 8.5 3.1 8.5 3.35 8.4 4.15 8.2 5.5 7.75 M-8.85 4.1 L-8.2 4.1 Q-7.45 4.15 -6.55 4.9 L-4.35 6.95 -4.3 6.95 -4.15 7.05 Q-3.2 7.85 -1.3 8.35 L-0.7 8.4 -0.7 8.55 -1.4 8.6 -1.85 8.6 -3.8 8.35 -4.1 8.25 -5.1 7.9 -5.7 7.6 -6.7 6.85 Q-7.85 5.9 -8.7 5.85 L-9.45 5.9 -10.0 6.0 Q-10.4 6.05 -10.75 6.45 L-10.8 6.55 -11.1 6.95 -11.1 6.75 -11.15 6.45 -10.65 5.1 Q-10.1 4.55 -9.45 4.3 L-8.85 4.1" fill="#de7200" fill-rule="evenodd" stroke="none"/>
  </g>
  <defs>
    <linearGradient gradientTransform="matrix(0.0, 0.202, -0.1095, 0.0, 6.6, 39.55)" gradientUnits="userSpaceOnUse" id="gradient0" spreadMethod="pad" x1="-819.2" x2="819.2">
      <stop offset="0.0" stop-color="#990000"/>
      <stop offset="1.0" stop-color="#690000"/>
    </linearGradient>
    <linearGradient gradientTransform="matrix(0.0, 0.2205, -0.1456, 0.0, 7.75, 124.05)" gradientUnits="userSpaceOnUse" id="gradient1" spreadMethod="pad" x1="-819.2" x2="819.2">
      <stop offset="0.0" stop-color="#990000"/>
      <stop offset="1.0" stop-color="#690000"/>
    </linearGradient>
    <linearGradient gradientTransform="matrix(0.0, 0.1882, -0.1456, 0.0, 7.75, 126.65)" gradientUnits="userSpaceOnUse" id="gradient2" spreadMethod="pad" x1="-819.2" x2="819.2">
      <stop offset="0.0" stop-color="#990000"/>
      <stop offset="1.0" stop-color="#690000"/>
    </linearGradient>
    <linearGradient gradientTransform="matrix(0.0, 0.202, -0.1456, 0.0, 7.75, 128.75)" gradientUnits="userSpaceOnUse" id="gradient3" spreadMethod="pad" x1="-819.2" x2="819.2">
      <stop offset="0.0" stop-color="#990000"/>
      <stop offset="1.0" stop-color="#690000"/>
    </linearGradient>
    <linearGradient gradientTransform="matrix(0.0, 0.202, -0.1095, 0.0, 6.6, 67.75)" gradientUnits="userSpaceOnUse" id="gradient4" spreadMethod="pad" x1="-819.2" x2="819.2">
      <stop offset="0.0" stop-color="#990000"/>
      <stop offset="1.0" stop-color="#690000"/>
    </linearGradient>
    <linearGradient gradientTransform="matrix(0.0, 0.202, -0.1456, 0.0, 7.75, 100.55)" gradientUnits="userSpaceOnUse" id="gradient5" spreadMethod="pad" x1="-819.2" x2="819.2">
      <stop offset="0.0" stop-color="#990000"/>
      <stop offset="1.0" stop-color="#690000"/>
    </linearGradient>
    <linearGradient gradientTransform="matrix(0.0, 0.1784, -0.1095, 0.0, 6.6, 34.2)" gradientUnits="userSpaceOnUse" id="gradient6" spreadMethod="pad" x1="-819.2" x2="819.2">
      <stop offset="0.0" stop-color="#990000"/>
      <stop offset="1.0" stop-color="#690000"/>
    </linearGradient>
    <linearGradient gradientTransform="matrix(0.0, -0.0085, 0.0067, 0.0, 1.0, 1.4)" gradientUnits="userSpaceOnUse" id="gradient7" spreadMethod="pad" x1="-819.2" x2="819.2">
      <stop offset="0.0" stop-color="#de7200"/>
      <stop offset="1.0" stop-color="#fca600"/>
      <stop offset="1.0" stop-color="#cb9044"/>
      <stop offset="1.0" stop-color="#3c961b"/>
    </linearGradient>
  </defs>
</svg>
