<?xml version="1.0" encoding="UTF-8" standalone="no"?>
<svg xmlns:ffdec="https://www.free-decompiler.com/flash" xmlns:xlink="http://www.w3.org/1999/xlink" ffdec:objectType="shape" height="489.75px" width="183.7px" xmlns="http://www.w3.org/2000/svg">
  <g transform="matrix(1.0, 0.0, 0.0, 1.0, 93.45, 218.15)">
    <path d="M-81.3 -151.9 L-80.75 -150.2 -80.8 -152.55 -80.75 -156.75 -80.75 -158.25 -80.9 -158.65 -81.0 -159.0 -81.15 -159.4 -81.25 -159.75 -81.25 -169.6 -81.25 -179.25 -81.7 -179.75 -81.65 -180.8 -81.65 -183.8 Q-82.05 -185.85 -84.0 -186.8 -87.95 -188.65 -90.7 -193.2 L-93.35 -197.55 -93.35 -199.3 -93.35 -201.6 -93.35 -201.65 -93.4 -202.2 -93.45 -204.05 Q-93.6 -206.25 -92.7 -208.1 L-92.2 -209.25 Q-91.25 -211.75 -89.35 -214.05 -88.75 -214.3 -88.25 -214.7 -83.65 -218.8 -77.6 -216.8 L-75.5 -214.3 -68.1 -215.15 -59.9 -215.15 Q-49.7 -216.95 -39.0 -215.6 L-39.0 -215.75 -38.4 -215.75 -35.35 -215.65 -35.3 -215.65 -32.9 -215.85 -28.55 -215.95 -5.65 -215.95 14.95 -216.65 15.0 -216.75 15.15 -216.75 17.1 -216.35 20.1 -216.5 20.55 -216.45 20.8 -216.5 24.05 -216.7 28.9 -216.65 39.5 -216.5 44.25 -216.4 46.65 -216.15 52.55 -215.75 58.55 -216.3 72.6 -216.4 73.95 -217.9 73.95 -218.05 76.2 -218.1 76.35 -218.1 78.25 -217.95 Q85.15 -216.9 88.55 -210.05 L89.2 -208.65 89.45 -206.05 90.25 -204.55 90.2 -203.45 90.2 -203.4 90.25 -203.3 Q90.05 -196.25 85.65 -190.65 L77.55 -185.8 76.9 -183.15 76.25 -184.0 Q76.45 -182.95 75.8 -181.65 L75.6 -181.35 75.2 -178.7 Q75.2 -178.2 75.35 -177.7 L75.55 -177.75 75.8 -177.8 76.45 -178.05 76.4 -170.7 76.1 -168.15 75.65 -150.45 76.45 -149.2 76.55 -142.75 77.2 -141.7 77.2 -93.1 77.45 -92.8 77.75 -92.45 77.75 -89.9 77.75 -89.45 77.75 -79.9 Q78.3 -78.9 78.2 -77.65 L78.1 -75.35 78.1 -75.0 Q78.8 -73.0 78.7 -70.8 L78.6 -66.25 78.6 -65.5 78.7 -65.15 79.0 -64.75 79.0 -63.4 78.6 -63.3 78.6 -62.4 78.6 -59.15 78.6 -58.75 78.75 -58.3 79.0 -57.5 79.1 -57.1 79.1 -46.85 79.1 -35.8 79.1 -34.15 79.0 -33.9 79.0 -30.85 79.0 -27.85 78.8 -27.45 78.65 -26.7 78.6 -26.3 78.55 -25.95 78.25 -25.55 78.25 -24.95 78.35 -24.55 78.5 -24.2 78.5 -23.45 78.5 -22.3 78.5 -21.55 78.5 -21.45 78.4 -19.7 Q77.85 -18.2 77.9 -16.6 L78.0 -10.55 78.0 -6.75 78.1 -6.35 78.25 -6.0 78.35 -5.6 78.5 -5.25 78.5 -4.85 78.5 -4.1 78.5 -3.35 78.5 -2.55 78.5 -1.8 78.6 -1.45 78.75 -1.05 78.85 -0.7 79.0 -0.3 79.0 3.5 79.0 4.25 79.0 10.3 79.0 18.3 79.0 25.95 78.95 33.25 Q78.95 33.95 78.2 33.7 L78.2 46.15 Q79.85 63.4 79.55 80.75 79.25 99.35 80.15 117.75 80.75 129.25 81.7 140.95 L81.85 144.0 Q82.45 173.85 84.0 204.25 L84.15 207.25 Q84.35 215.7 85.4 223.75 L85.7 228.65 -0.05 271.45 Q-5.8 272.1 -11.15 269.65 -14.35 268.2 -17.15 266.55 -20.25 264.85 -23.7 264.05 -26.05 263.6 -28.25 262.35 -29.45 261.7 -30.8 261.4 L-87.55 234.0 -89.8 230.45 -86.3 122.25 -85.65 121.15 -84.3 83.25 -83.3 81.8 -83.3 61.25 -82.3 59.75 -80.3 15.5 -80.45 -14.05 -80.65 -14.2 -80.7 -14.55 -80.85 -14.95 -81.15 -15.7 -81.5 -16.1 -81.7 -22.55 -81.65 -23.65 -80.45 -24.85 -80.45 -28.5 -80.45 -31.0 -80.15 -30.8 -80.2 -31.9 -80.4 -38.1 -80.5 -38.5 -80.65 -38.95 -80.65 -41.4 -80.65 -43.85 -80.65 -44.25 -80.7 -44.65 -80.85 -45.1 -81.0 -45.5 -81.2 -50.4 -81.15 -52.4 -81.65 -51.85 -81.65 -57.55 -81.65 -58.7 -81.5 -59.05 -81.4 -59.45 -81.15 -60.2 -81.2 -62.85 -80.85 -66.25 -80.65 -67.05 -80.7 -69.3 -80.5 -71.65 -80.55 -72.45 -80.7 -74.0 -80.9 -74.25 -81.5 -141.5 -81.3 -143.7 -81.3 -149.65 -81.3 -149.95 -81.3 -151.9 M76.15 -212.65 L76.05 -212.65 75.75 -212.35 72.8 -212.35 70.2 -212.55 69.6 -212.4 51.5 -212.4 46.6 -211.85 43.35 -211.65 25.25 -211.65 22.1 -211.95 1.1 -211.9 Q-0.75 -211.2 -4.3 -211.15 L-9.75 -211.15 -17.9 -211.15 -18.8 -210.9 -38.0 -210.9 -38.75 -211.0 -38.9 -211.05 -41.8 -211.5 -42.75 -211.65 -47.05 -211.9 -51.2 -211.7 -51.9 -211.65 -53.75 -211.55 -55.35 -211.4 -74.5 -211.4 -75.0 -210.8 Q-77.2 -210.6 -78.1 -209.05 L-78.6 -207.15 -79.0 -205.4 -79.05 -205.25 -79.15 -204.8 -79.15 -204.75 -79.8 -200.9 -79.8 -197.45 -79.6 -193.95 -79.55 -193.65 -79.35 -191.95 -79.8 -191.5 -79.35 -191.35 -79.35 -189.2 -78.75 -188.45 -78.35 -187.2 -78.3 -183.25 -77.3 -181.65 -76.65 -175.8 -76.55 -175.65 -76.25 -175.3 -76.25 -175.2 -76.25 -174.05 -76.25 -172.45 -76.25 -172.3 -76.25 -165.85 -76.25 -165.35 -76.25 -164.1 -76.25 -162.95 -76.25 -162.85 -76.3 -162.2 -76.4 -161.8 -76.7 -161.4 -76.75 -161.05 -76.75 -159.9 -76.75 -155.0 -76.75 -150.45 -76.65 -150.05 -76.5 -149.7 -76.4 -149.3 -76.25 -148.9 -76.25 -147.8 -76.3 -146.25 -76.15 -145.15 -76.0 -144.75 -75.9 -144.55 -75.75 -139.4 -75.5 -137.45 -75.4 -128.5 -75.35 -127.0 -75.55 -96.8 -76.05 -72.15 -76.05 -71.95 -76.15 -71.45 -76.2 -69.2 Q-76.15 -68.2 -76.4 -67.3 L-76.7 -66.85 -76.75 -66.5 -76.75 -65.4 -76.7 -63.6 -76.7 -62.35 -76.7 -61.45 -76.7 -60.9 -76.7 -58.25 -76.7 -57.65 -76.6 -57.45 -76.55 -57.25 -76.45 -56.8 -76.45 -51.5 -76.4 -45.95 -76.5 -45.35 -76.65 -44.6 -76.7 -43.85 -76.75 -42.9 -76.75 -42.6 -76.7 -41.15 -76.7 -40.25 -76.7 -39.6 -76.75 -39.4 -76.85 -39.0 -76.95 -38.6 -76.95 -37.15 -76.95 -35.5 -76.95 -34.9 -76.95 -34.7 -77.05 -34.5 -77.1 -34.3 -77.15 -34.25 -77.15 -31.15 -77.15 -26.3 -77.25 -26.3 -77.3 -22.8 -77.15 -16.35 -76.85 -16.05 -76.75 -15.95 -76.7 -15.95 -76.7 -15.4 -75.4 -13.75 -74.6 -12.85 -74.1 -12.3 -73.85 -12.1 -72.8 -11.15 Q-67.6 -6.55 -58.9 -3.1 -54.8 -1.5 -48.0 0.8 L-47.7 0.95 -46.95 1.3 -46.25 1.4 -38.15 4.1 Q-19.05 10.2 -15.0 10.7 L-9.5 12.6 -1.65 14.45 0.55 15.1 Q1.2 15.1 1.55 14.65 L1.6 14.65 Q6.95 14.65 29.25 6.25 L42.65 1.1 49.15 -1.1 50.35 -1.5 Q54.35 -2.9 57.0 -4.4 66.9 -9.95 69.1 -14.6 L69.65 -16.25 70.35 -18.25 70.65 -19.05 71.25 -20.8 71.55 -21.3 71.6 -21.55 71.65 -21.65 71.75 -22.05 72.1 -22.5 72.25 -22.75 72.55 -23.6 72.9 -24.4 72.9 -24.85 72.9 -25.25 72.95 -25.3 73.1 -25.55 73.25 -26.2 73.55 -27.05 74.25 -28.35 74.25 -31.6 74.25 -32.75 74.25 -33.3 74.55 -33.4 74.4 -35.45 74.35 -35.5 74.35 -35.95 74.4 -36.0 74.6 -36.35 74.6 -38.4 74.6 -51.9 74.6 -64.2 74.3 -64.65 74.15 -66.65 73.85 -67.4 73.75 -67.7 73.75 -69.9 73.75 -70.15 73.75 -70.2 73.75 -70.45 73.75 -70.55 73.85 -72.35 73.85 -72.4 73.75 -74.05 73.75 -76.15 73.45 -75.15 73.35 -75.35 Q73.15 -76.1 73.2 -76.9 L73.25 -78.8 73.25 -80.3 73.2 -80.35 Q73.15 -81.9 72.75 -83.1 L71.9 -146.5 72.1 -146.75 72.25 -147.9 72.2 -149.05 72.1 -149.8 71.95 -150.15 71.85 -150.4 71.75 -158.9 72.0 -159.3 72.15 -159.7 72.25 -160.05 72.25 -161.2 72.25 -163.1 72.25 -164.6 72.1 -164.95 72.0 -165.35 71.85 -165.75 71.75 -166.1 71.75 -167.25 71.85 -176.35 71.8 -180.8 72.15 -184.1 72.25 -185.5 Q72.7 -187.5 73.05 -192.35 L73.4 -200.5 73.35 -204.9 73.45 -205.2 73.35 -205.3 72.9 -210.45 Q74.65 -207.05 75.1 -202.9 L75.3 -195.45 Q75.05 -193.15 75.2 -192.1 L75.1 -190.05 Q75.05 -188.8 75.7 -188.8 L75.85 -188.85 75.8 -188.55 78.6 -191.45 79.9 -191.9 Q81.7 -192.45 83.1 -195.75 L83.15 -195.8 83.3 -196.15 Q85.5 -200.45 85.5 -204.0 L85.5 -206.05 86.15 -207.4 Q86.15 -210.15 83.45 -212.9 82.35 -214.0 81.75 -214.0 L80.4 -214.5 Q79.3 -214.75 78.15 -213.45 L78.1 -213.4 77.9 -213.4 76.45 -213.0 76.2 -212.7 76.15 -212.65 M76.2 -197.15 L76.2 -197.6 76.3 -197.55 76.35 -197.2 76.2 -197.15 M72.4 -206.5 L72.4 -206.25 72.35 -206.45 72.4 -206.5 M0.7 13.3 L0.6 13.4 -0.05 13.15 0.7 13.3 M74.25 -16.65 L74.25 -19.8 74.1 -19.5 74.0 -19.1 73.7 -18.7 73.6 -18.35 73.35 -17.65 72.75 -16.85 72.6 -16.45 72.5 -16.1 72.35 -15.7 71.95 -15.0 71.65 -14.55 71.25 -13.8 71.0 -13.05 70.7 -12.75 70.6 -12.65 70.25 -12.3 70.1 -11.9 70.0 -11.55 69.5 -11.1 68.85 -10.4 68.65 -10.0 68.5 -9.65 68.1 -9.25 67.75 -8.9 66.75 -8.75 65.55 -7.65 64.5 -6.45 64.0 -6.2 63.2 -6.4 62.05 -5.8 Q61.05 -5.15 59.6 -4.7 57.75 -3.45 55.2 -2.45 53.0 -1.55 50.6 -0.8 L48.65 0.2 46.65 1.2 43.3 2.35 38.7 4.1 Q34.8 6.25 30.0 7.9 L13.7 13.35 13.45 13.5 Q11.85 14.5 9.25 15.05 L4.25 16.05 3.6 15.95 3.4 15.85 -3.6 15.3 -3.85 15.15 -5.65 15.1 -6.05 15.0 -11.15 13.5 -13.95 12.85 -14.7 12.55 -18.0 12.2 -30.4 8.85 -30.65 8.75 -31.45 8.4 Q-35.15 7.1 -39.3 6.2 L-41.75 5.25 -43.6 4.65 -46.25 3.65 -47.45 3.15 -48.95 2.55 -54.85 0.9 -58.45 -0.35 -58.75 -0.45 -60.55 -0.95 -62.75 -1.45 -63.05 -1.75 -63.25 -2.0 -64.25 -2.3 -68.2 -3.8 -69.3 -4.25 -72.55 -6.75 -73.0 -7.05 -73.9 -7.75 -73.95 -7.8 -74.25 -8.0 -74.7 -8.35 -74.75 -8.4 -75.2 -8.55 -75.4 -8.75 -75.75 -9.15 -76.3 -9.55 -76.45 -9.7 -76.75 -9.9 -76.75 -7.85 -76.75 -5.3 -76.8 -5.35 Q-76.2 10.5 -76.6 26.25 -77.0 42.1 -77.9 58.0 L-78.85 72.95 -78.9 74.55 Q-78.75 82.6 -80.8 90.0 L-84.8 211.5 -84.2 216.65 Q-83.75 217.3 -83.8 218.1 L-83.9 219.6 -83.65 221.5 -83.65 221.55 -83.55 221.7 -83.5 221.9 -83.35 223.05 -83.35 223.8 -83.4 224.55 -83.4 225.25 -83.35 225.3 -83.2 225.5 -83.15 226.1 -83.15 226.3 -83.0 226.45 -82.9 227.2 -82.9 228.2 -82.9 228.25 -82.8 229.2 -82.2 229.45 -59.55 243.25 -48.15 248.3 -46.05 247.75 -41.9 251.45 Q-41.75 251.45 -41.6 251.6 L-41.3 251.8 -40.35 252.35 -39.45 252.5 -37.65 252.3 -16.8 262.2 -1.4 266.3 Q19.5 258.65 36.65 247.8 L37.85 248.2 45.2 245.45 67.95 232.95 68.3 233.2 69.45 233.4 70.45 232.6 71.2 231.9 74.45 230.3 Q76.65 229.1 78.95 228.1 L79.5 227.4 80.85 225.75 81.2 225.05 80.75 224.6 80.75 224.55 80.95 224.5 81.1 224.3 81.1 223.9 81.1 222.55 81.1 222.5 81.1 222.0 81.1 221.75 81.1 221.0 81.1 220.65 81.1 220.1 80.75 219.75 80.7 219.75 81.1 219.0 81.1 218.6 81.1 217.85 81.1 217.1 80.75 216.7 80.5 216.7 79.35 188.3 79.25 186.0 78.3 158.45 77.9 155.75 77.8 155.0 Q78.1 142.05 76.85 129.25 75.7 117.65 75.5 106.0 L75.5 89.5 Q75.7 77.15 75.25 64.75 74.7 50.6 74.7 36.25 L75.7 35.25 74.95 -8.5 75.0 -8.5 75.15 -8.55 75.25 -8.65 75.3 -9.0 75.25 -9.1 75.15 -9.7 75.2 -10.7 75.2 -10.75 75.1 -10.95 75.05 -11.15 75.05 -11.5 Q74.85 -11.9 74.9 -12.35 L74.95 -13.4 74.95 -14.2 74.9 -14.4 74.8 -14.6 74.75 -14.8 74.7 -15.0 74.7 -16.25 74.7 -17.5 74.7 -17.55 74.6 -17.35 74.25 -16.65 M68.8 -12.8 L68.85 -13.0 67.95 -11.75 68.6 -12.4 68.8 -12.8 M69.5 -13.95 L69.3 -13.6 69.6 -13.95 69.8 -14.35 69.5 -13.95 M-84.15 -213.1 L-84.2 -213.4 Q-84.7 -214.55 -86.8 -211.8 L-87.45 -210.85 -88.3 -209.4 -88.6 -209.2 -88.85 -209.0 -88.9 -209.0 -88.85 -208.25 Q-89.5 -206.65 -89.5 -205.15 -89.35 -202.8 -88.5 -202.45 L-88.35 -199.25 -88.35 -199.2 -88.25 -199.15 -85.1 -192.25 -82.9 -191.55 -83.4 -194.65 -82.6 -198.75 -82.75 -199.5 Q-82.25 -200.2 -81.9 -201.65 L-81.4 -205.15 -80.55 -208.0 Q-79.85 -208.65 -79.25 -210.25 -78.5 -212.25 -78.5 -213.3 -78.5 -215.4 -79.85 -214.45 L-80.2 -214.7 Q-81.25 -215.25 -82.75 -214.25 L-83.05 -214.05 -84.15 -213.1 M-39.05 -195.7 L-37.8 -195.6 -36.85 -195.55 -39.05 -195.65 -39.05 -195.7 M-81.5 -147.9 L-81.35 -149.2 -81.35 -149.25 -81.3 -149.65 -81.45 -143.55 -81.5 -147.9" fill="#330000" fill-rule="evenodd" stroke="none"/>
    <path d="M-75.0 -210.8 L-74.5 -211.4 -55.35 -211.4 -53.75 -211.55 -51.9 -211.65 -51.2 -211.7 -47.05 -211.9 -42.75 -211.65 -41.8 -211.5 -38.9 -211.05 -38.75 -211.0 -38.0 -210.9 -18.8 -210.9 -17.9 -211.15 -9.75 -211.15 -4.3 -211.15 Q-0.75 -211.2 1.1 -211.9 L22.1 -211.95 25.25 -211.65 43.35 -211.65 46.6 -211.85 51.5 -212.4 69.6 -212.4 70.2 -212.55 72.8 -212.35 75.75 -212.35 76.05 -212.65 76.15 -212.65 76.1 -212.45 75.4 -212.1 Q75.0 -211.75 75.0 -211.2 L75.2 -210.75 73.9 -210.65 74.65 -209.2 Q75.5 -206.95 75.75 -204.65 L76.2 -199.6 76.2 -197.6 76.2 -197.15 76.2 -195.4 76.2 -192.0 Q76.1 -189.3 75.85 -188.85 L75.7 -188.8 Q75.05 -188.8 75.1 -190.05 L75.2 -192.1 Q75.05 -193.15 75.3 -195.45 L75.1 -202.9 Q74.65 -207.05 72.9 -210.45 L73.35 -205.3 73.35 -204.9 73.4 -200.5 73.05 -192.35 Q72.7 -187.5 72.25 -185.5 L72.15 -184.1 71.8 -180.8 71.35 -185.05 71.25 -185.45 71.25 -185.9 71.3 -186.1 71.6 -191.95 71.8 -201.65 Q71.8 -205.4 70.7 -211.75 L70.3 -211.55 70.35 -211.1 70.35 -206.95 70.45 -205.5 70.4 -203.65 70.55 -202.45 70.65 -198.9 70.65 -196.85 Q70.55 -194.0 70.2 -193.6 69.3 -192.4 63.6 -192.45 L49.7 -192.45 49.05 -192.6 11.8 -192.75 4.0 -193.05 2.15 -193.25 -4.85 -193.25 -7.5 -193.1 -7.8 -193.05 -11.75 -192.7 -17.6 -192.15 -38.25 -192.0 -38.85 -191.85 -54.75 -191.45 Q-65.6 -191.45 -70.9 -191.8 L-74.55 -192.25 -75.3 -192.45 -76.35 -192.45 Q-77.2 -193.1 -77.45 -195.3 L-77.5 -197.35 -77.5 -197.45 -77.2 -203.35 -76.75 -206.4 -76.0 -208.85 -75.0 -210.8 M72.4 -206.5 L72.35 -206.45 72.4 -206.25 72.4 -206.5 M-74.35 -184.45 L-74.85 -187.2 -74.45 -186.95 -74.45 -187.5 -74.4 -189.05 Q-74.2 -190.2 -73.4 -190.5 L-72.0 -190.35 -72.05 -190.4 -59.05 -190.2 -49.55 -190.7 -49.85 -190.35 -43.2 -190.05 -18.5 -190.55 -17.0 -191.35 Q-13.65 -192.65 -6.8 -192.3 -0.8 -191.95 2.2 -190.55 L33.0 -189.4 33.0 -189.5 40.4 -189.45 64.85 -191.15 64.0 -190.75 67.4 -190.7 68.55 -189.15 68.6 -188.0 68.55 -187.2 68.75 -186.95 68.75 -186.6 68.7 -186.2 68.6 -185.85 68.5 -185.45 68.6 -185.05 68.75 -184.7 68.75 -184.3 68.75 -183.95 68.75 -183.55 68.75 -183.15 68.6 -182.8 68.45 -182.45 68.25 -182.05 68.25 -182.0 68.25 -177.25 68.25 -171.15 68.25 -170.05 68.35 -169.65 68.5 -169.25 68.6 -168.9 68.75 -168.5 68.75 -167.0 68.75 -165.1 68.75 -164.45 69.35 -162.6 69.35 -161.9 69.95 -152.45 69.9 -151.15 69.8 -148.65 69.75 -146.7 69.7 -146.6 69.25 -146.3 69.25 -142.1 69.25 -138.5 69.25 -131.15 69.25 -128.85 69.25 -125.4 69.1 -125.05 69.0 -124.65 68.85 -124.3 68.75 -123.9 68.75 -123.15 68.75 -122.4 68.7 -121.25 68.7 -121.0 68.6 -120.5 68.4 -120.1 68.2 -119.75 68.0 -119.35 67.7 -119.0 67.35 -118.6 67.2 -115.95 67.25 -112.9 67.25 -109.5 67.1 -109.1 67.0 -108.75 66.85 -108.35 66.75 -108.0 66.45 -107.6 66.1 -107.25 65.6 -106.85 65.1 -106.45 64.9 -106.4 64.85 -106.2 64.75 -105.85 64.75 -105.45 64.75 -105.05 64.75 -104.7 64.75 -104.3 64.75 -103.55 64.9 -103.2 65.2 -102.75 65.7 -102.0 66.1 -101.3 66.45 -99.0 Q66.9 -97.2 66.8 -95.2 L66.75 -92.95 Q67.25 -91.65 67.25 -90.3 L67.25 -86.1 67.25 -83.85 Q68.05 -78.05 67.9 -72.1 L67.85 -68.0 68.1 -67.9 68.45 -67.5 68.65 -67.25 68.65 -66.9 68.7 -64.5 68.7 -64.45 68.75 -63.8 68.85 -63.6 68.9 -63.4 68.95 -63.2 68.95 -62.8 68.95 -60.55 68.95 -58.5 69.1 -58.25 69.2 -58.05 69.2 -57.25 69.2 -53.55 69.2 -49.9 69.3 -49.7 69.4 -49.45 69.45 -49.25 69.45 -48.85 69.35 -45.8 Q69.3 -44.3 69.65 -42.9 L69.65 -42.5 69.7 -41.7 69.7 -40.85 69.75 -40.65 69.9 -40.25 69.95 -40.05 69.95 -38.8 69.95 -37.4 69.95 -37.2 69.85 -36.95 69.75 -36.75 69.7 -36.55 69.7 -36.35 69.7 -35.35 69.7 -34.5 69.7 -34.3 69.65 -34.1 69.5 -33.7 69.45 -33.5 69.45 -33.1 69.45 -32.25 69.45 -31.85 69.45 -31.45 69.35 -31.25 69.25 -31.05 69.2 -30.85 69.2 -30.6 69.25 -29.0 Q69.3 -28.1 69.0 -27.35 L68.95 -27.15 68.95 -26.55 68.75 -25.9 68.7 -25.7 68.7 -25.3 68.7 -24.9 68.6 -24.7 68.3 -24.1 Q68.1 -23.8 68.2 -23.45 L68.15 -23.25 68.0 -22.85 67.95 -22.65 67.95 -22.45 67.95 -22.25 67.8 -22.0 67.7 -21.8 67.65 -21.6 67.65 -21.4 67.5 -21.2 67.45 -21.0 67.4 -20.8 67.25 -20.55 67.2 -20.4 67.2 -20.2 67.2 -19.8 67.0 -19.75 66.5 -19.75 66.0 -19.75 65.85 -19.75 65.8 -19.65 Q65.05 -17.15 62.8 -15.25 L61.3 -14.15 61.25 -14.05 60.95 -13.7 60.6 -13.3 60.1 -12.9 59.6 -12.55 58.75 -12.3 58.0 -12.15 57.9 -12.15 56.85 -11.6 55.35 -10.55 54.75 -10.4 54.1 -10.2 52.2 -9.3 51.7 -9.0 51.0 -8.6 50.9 -8.5 48.1 -6.85 47.25 -6.55 47.2 -6.55 46.35 -6.3 Q43.75 -4.85 41.15 -3.55 38.1 -2.05 34.95 -0.7 L32.35 0.4 31.75 0.55 31.25 0.65 31.0 0.65 30.55 0.65 24.1 3.45 18.65 5.75 17.9 6.05 17.4 6.25 17.35 6.4 16.45 7.5 Q15.0 8.6 13.35 9.3 L12.75 9.45 12.0 9.6 10.75 9.4 9.8 9.1 Q4.1 11.05 1.75 11.05 L1.6 11.05 1.4 11.05 0.35 11.0 -2.35 10.6 -19.9 7.35 -28.95 5.4 Q-41.4 2.6 -45.65 0.6 L-51.9 -2.45 Q-61.75 -7.4 -65.35 -10.4 -67.85 -12.45 -69.25 -14.85 L-69.9 -15.6 -70.25 -16.0 -70.5 -16.4 -70.65 -16.8 -71.0 -17.65 -71.25 -18.45 -71.25 -18.85 -71.25 -19.25 -71.25 -19.7 -71.4 -20.15 -71.95 -20.8 -72.15 -21.05 -72.35 -21.65 -72.4 -21.85 -72.4 -22.7 -72.6 -23.3 -72.65 -23.5 -72.7 -24.75 -72.7 -25.45 -72.25 -24.65 -72.4 -25.0 -72.6 -25.4 -72.7 -25.6 -72.7 -25.95 -72.8 -26.15 -72.85 -26.35 -72.95 -26.55 -72.95 -27.0 -72.95 -29.3 -72.95 -31.1 -72.95 -33.6 -72.85 -33.8 -72.75 -34.2 -72.7 -34.4 -72.7 -34.85 -72.65 -39.95 -72.75 -45.05 -72.9 -45.3 -72.95 -45.5 -72.95 -45.9 -72.95 -47.35 -72.85 -48.75 -72.7 -49.0 -72.7 -49.15 -72.7 -49.4 -72.7 -50.4 -72.7 -51.45 -72.6 -51.65 -72.5 -52.05 -72.45 -52.25 -72.45 -52.65 -72.45 -56.55 -72.45 -59.95 -72.05 -60.1 -71.95 -60.25 -71.95 -60.65 -72.0 -63.3 Q-72.05 -64.55 -71.7 -65.75 L-71.7 -66.4 -71.7 -71.5 -71.7 -76.4 -71.8 -76.5 -71.65 -78.25 -71.6 -78.55 Q-71.1 -81.15 -71.1 -83.85 L-70.75 -86.1 -70.55 -88.35 Q-70.1 -90.25 -70.2 -92.2 L-70.25 -94.45 -70.15 -94.85 -70.0 -95.2 -69.9 -95.6 -69.75 -95.95 -69.75 -96.75 -69.75 -97.5 -69.75 -98.25 -69.75 -99.4 -69.65 -99.75 -69.55 -99.95 -69.5 -100.15 -69.4 -100.5 -68.75 -101.25 -68.4 -101.65 -67.65 -102.4 -67.55 -102.45 -68.15 -103.55 -68.15 -103.95 -68.25 -104.3 -68.4 -105.05 -68.65 -105.85 -68.75 -106.2 -68.75 -107.9 -69.25 -108.5 -69.5 -108.85 -69.65 -109.25 -69.75 -109.6 -69.95 -109.95 -70.2 -110.4 -70.4 -110.75 -70.75 -111.9 -70.75 -113.4 -70.75 -114.05 -70.55 -114.3 -70.25 -114.65 -70.25 -115.45 -70.15 -118.1 Q-70.05 -119.35 -70.65 -120.35 L-70.7 -121.1 -70.75 -122.25 -70.75 -123.0 -70.5 -123.4 -70.3 -123.8 -70.25 -124.15 -70.25 -125.65 -70.25 -134.0 -70.25 -141.95 -70.5 -142.35 -70.7 -142.75 -70.75 -143.1 -70.75 -144.25 -70.7 -147.65 Q-70.65 -149.2 -70.9 -150.7 L-71.05 -151.05 -71.2 -151.45 -71.25 -151.85 -71.2 -152.2 -71.05 -152.6 -70.9 -152.95 -70.75 -153.35 -70.75 -154.5 -70.75 -156.0 -70.75 -157.15 -71.05 -157.5 -71.2 -157.7 -71.25 -157.5 -71.4 -157.9 -71.55 -158.35 -71.75 -158.05 -72.15 -157.65 -72.25 -158.0 Q-72.6 -159.55 -72.6 -162.4 L-72.6 -163.25 -73.25 -163.45 -73.65 -163.85 -73.7 -164.2 -73.75 -164.95 -73.7 -165.75 -73.65 -166.1 -73.4 -166.5 -73.3 -166.85 -73.25 -167.65 -73.25 -168.0 -73.3 -168.35 -73.5 -168.75 -73.75 -169.15 -73.75 -171.05 -73.75 -173.7 -73.75 -174.85 -73.65 -175.2 -73.5 -175.6 -73.65 -175.95 -73.75 -176.35 -73.75 -176.75 -73.75 -177.5 -73.75 -178.25 -73.75 -178.6 -73.8 -179.0 -74.0 -179.4 -74.25 -179.75 -74.25 -181.3 -74.25 -182.8 -74.25 -183.55 -74.25 -183.95 -74.2 -184.0 -74.35 -184.45 M-79.35 -191.35 L-79.8 -191.5 -79.35 -191.95 -79.35 -191.7 -79.35 -191.35 M-39.05 -195.7 L-39.05 -195.65 -36.85 -195.55 -37.8 -195.6 -39.05 -195.7" fill="#990000" fill-rule="evenodd" stroke="none"/>
    <path d="M-81.3 -151.9 L-81.3 -149.95 -81.45 -149.8 -81.4 -152.2 -81.3 -151.9 M-81.3 -149.65 L-81.3 -143.7 -81.45 -143.55 -81.3 -149.65 M76.45 -178.05 L75.8 -177.8 75.6 -181.35 75.8 -181.65 Q76.45 -182.95 76.25 -184.0 L76.9 -183.15 76.45 -178.05 M73.35 -204.9 L73.35 -205.3 73.45 -205.2 73.35 -204.9 M75.85 -188.85 Q76.1 -189.3 76.2 -192.0 L76.2 -195.4 76.2 -197.15 76.35 -197.2 76.3 -197.55 76.2 -197.6 76.2 -199.6 75.75 -204.65 Q75.5 -206.95 74.65 -209.2 L73.9 -210.65 75.2 -210.75 75.0 -211.2 Q75.0 -211.75 75.4 -212.1 L76.1 -212.45 76.15 -212.5 77.25 -212.4 77.05 -212.15 77.0 -211.7 77.4 -210.45 Q77.8 -209.0 78.75 -206.3 L78.85 -206.0 79.25 -204.15 79.4 -201.65 79.4 -200.85 79.3 -199.9 Q79.05 -198.15 78.3 -196.4 77.15 -193.85 77.15 -193.15 L77.15 -192.3 77.15 -192.25 Q77.35 -191.45 78.3 -191.45 L78.6 -191.45 75.8 -188.55 75.85 -188.85 M-79.15 -204.8 L-79.05 -205.25 -79.05 -205.2 -79.1 -205.05 -79.15 -204.8 M-88.3 -209.4 L-87.45 -210.85 -86.8 -211.8 Q-84.7 -214.55 -84.2 -213.4 L-84.15 -213.1 -84.3 -212.9 Q-86.0 -211.1 -86.4 -208.35 L-87.0 -207.4 -87.1 -206.4 -87.15 -205.4 -85.85 -202.5 -85.3 -201.45 Q-84.45 -198.9 -83.85 -198.9 -83.45 -198.9 -83.1 -199.15 L-82.6 -198.75 -83.4 -194.65 -82.9 -191.55 -85.1 -192.25 -88.25 -199.15 -88.35 -199.25 -88.5 -202.45 Q-89.35 -202.8 -89.5 -205.15 -89.5 -206.65 -88.85 -208.25 L-88.9 -209.0 -88.85 -209.0 -88.6 -209.2 -88.75 -209.0 -88.65 -208.75 -88.45 -209.15 -88.3 -209.4" fill="#a53f00" fill-rule="evenodd" stroke="none"/>
    <path d="M-75.0 -210.8 L-76.0 -208.85 -76.75 -206.4 -77.2 -203.35 -77.5 -197.45 -77.5 -197.35 -77.45 -195.3 Q-77.2 -193.1 -76.35 -192.45 L-75.3 -192.45 -74.55 -192.25 -70.9 -191.8 Q-65.6 -191.45 -54.75 -191.45 L-38.85 -191.85 -38.25 -192.0 -17.6 -192.15 -11.75 -192.7 -7.8 -193.05 -7.5 -193.1 -4.85 -193.25 2.15 -193.25 4.0 -193.05 11.8 -192.75 49.05 -192.6 49.7 -192.45 63.6 -192.45 Q69.3 -192.4 70.2 -193.6 70.55 -194.0 70.65 -196.85 L70.65 -198.9 70.55 -202.45 70.4 -203.65 70.45 -205.5 70.35 -206.95 70.35 -211.1 70.3 -211.55 70.7 -211.75 Q71.8 -205.4 71.8 -201.65 L71.6 -191.95 71.3 -186.1 71.25 -185.9 71.25 -185.45 71.35 -185.05 71.8 -180.8 71.85 -176.35 71.75 -167.25 71.75 -166.1 71.85 -165.75 72.0 -165.35 72.1 -164.95 72.25 -164.6 72.25 -163.1 72.25 -161.2 72.25 -160.05 72.15 -159.7 72.0 -159.3 71.75 -158.9 71.85 -150.4 71.95 -150.15 72.1 -149.8 72.2 -149.05 72.25 -147.9 72.1 -146.75 71.9 -146.5 72.75 -83.1 Q73.15 -81.9 73.2 -80.35 L73.25 -80.3 73.25 -78.8 73.2 -76.9 Q73.15 -76.1 73.35 -75.35 L73.45 -75.15 73.75 -74.05 73.85 -72.4 73.85 -72.35 73.75 -70.55 73.75 -70.45 73.75 -70.2 73.75 -70.15 73.75 -69.9 73.65 -68.55 73.75 -67.7 73.85 -67.4 74.15 -66.65 74.3 -64.65 74.6 -64.2 74.6 -51.9 74.6 -38.4 74.6 -36.35 74.4 -36.0 74.35 -35.95 74.35 -35.5 74.4 -35.45 74.55 -33.4 74.25 -33.3 74.25 -32.75 74.25 -31.6 74.25 -28.35 73.55 -27.05 73.25 -26.2 73.1 -25.55 72.95 -25.3 72.9 -25.25 72.9 -24.85 72.9 -24.4 72.55 -23.6 72.25 -22.75 72.1 -22.5 71.75 -22.05 71.65 -21.65 71.6 -21.55 71.55 -21.3 71.25 -20.8 70.65 -19.05 70.35 -18.25 69.65 -16.25 69.1 -14.6 Q66.9 -9.95 57.0 -4.4 54.35 -2.9 50.35 -1.5 L49.15 -1.1 42.65 1.1 29.25 6.25 Q6.95 14.65 1.6 14.65 L1.55 14.65 Q1.2 15.1 0.55 15.1 L-1.65 14.45 -9.5 12.6 -15.0 10.7 Q-19.05 10.2 -38.15 4.1 L-46.25 1.4 -47.7 0.9 -48.0 0.8 Q-54.8 -1.5 -58.9 -3.1 -67.6 -6.55 -72.8 -11.15 L-73.85 -12.1 -74.1 -12.3 -74.6 -12.85 -75.4 -13.75 -76.7 -15.4 -76.7 -15.95 -76.75 -15.95 -76.85 -16.05 -77.15 -16.35 -77.3 -22.8 -77.25 -26.3 -77.15 -26.3 -77.15 -31.15 -77.15 -34.25 -77.1 -34.3 -77.05 -34.5 -76.95 -34.7 -76.95 -34.9 -76.95 -35.5 -76.95 -37.15 -76.95 -38.6 -76.85 -39.0 -76.75 -39.4 -76.7 -39.6 -76.7 -40.25 -76.7 -41.15 -76.65 -41.4 -76.65 -44.6 -76.5 -45.35 -76.4 -45.95 -76.45 -51.5 -76.45 -56.8 -76.55 -57.25 -76.6 -57.45 -76.7 -57.65 -76.7 -58.25 -76.7 -60.9 -76.7 -61.45 -76.7 -62.35 -76.7 -63.6 -76.75 -65.4 -76.75 -66.5 -76.7 -66.85 -76.4 -67.3 Q-76.15 -68.2 -76.2 -69.2 L-76.15 -71.45 -76.05 -71.95 -76.05 -72.15 -75.55 -96.8 -75.35 -127.0 -75.4 -128.5 -75.5 -137.45 -75.75 -139.4 -75.9 -144.55 -76.0 -144.75 -76.15 -145.15 -76.3 -146.25 -76.25 -147.8 -76.25 -148.9 -76.4 -149.3 -76.5 -149.7 -76.65 -150.05 -76.75 -150.45 -76.75 -155.0 -76.75 -159.9 -76.75 -161.05 -76.7 -161.4 -76.4 -161.8 -76.3 -162.2 -76.25 -162.85 -76.25 -162.95 -76.25 -164.1 -76.25 -165.35 -76.25 -165.85 -76.25 -172.3 -76.25 -172.45 -76.25 -174.05 -76.25 -175.2 -76.25 -175.3 -76.55 -175.65 -76.65 -175.8 -77.3 -181.65 -78.3 -183.25 -78.35 -187.2 -78.75 -188.45 -79.35 -189.2 -79.35 -191.35 -79.35 -191.7 -79.35 -191.95 -79.55 -193.65 -79.6 -193.95 -79.8 -197.45 -79.8 -200.9 -79.15 -204.75 -79.15 -204.8 -79.1 -205.05 -79.05 -205.2 -79.05 -205.25 -79.0 -205.4 -78.6 -207.15 -78.1 -209.05 Q-77.2 -210.6 -75.0 -210.8 M76.1 -212.45 L76.15 -212.65 76.2 -212.7 76.45 -213.0 77.9 -213.4 78.1 -213.4 78.15 -213.45 Q79.3 -214.75 80.4 -214.5 L81.75 -214.0 Q81.25 -214.0 81.0 -213.4 80.75 -212.8 80.75 -211.55 80.6 -209.75 80.85 -207.95 81.15 -205.9 82.0 -205.0 L82.3 -204.75 Q82.8 -204.4 83.5 -204.4 L84.55 -205.0 84.7 -205.15 85.1 -205.6 85.5 -206.05 85.5 -204.0 Q85.5 -200.45 83.3 -196.15 L83.15 -195.8 83.1 -195.75 Q81.7 -192.45 79.9 -191.9 L78.6 -191.45 78.3 -191.45 Q77.35 -191.45 77.15 -192.25 L77.15 -192.3 77.15 -193.15 Q77.15 -193.85 78.3 -196.4 79.05 -198.15 79.3 -199.9 L79.4 -200.85 79.4 -201.65 79.25 -204.15 78.85 -206.0 78.75 -206.3 Q77.8 -209.0 77.4 -210.45 L77.0 -211.7 77.05 -212.15 77.25 -212.4 76.15 -212.5 76.1 -212.45 M69.7 -146.6 L69.75 -146.7 69.8 -148.65 69.9 -151.15 69.95 -152.45 69.35 -161.9 69.35 -162.6 68.75 -164.45 68.75 -165.1 68.75 -167.0 68.75 -168.5 68.6 -168.9 68.5 -169.25 68.35 -169.65 68.25 -170.05 68.25 -171.15 68.25 -177.25 68.25 -182.0 68.25 -182.05 68.45 -182.45 68.6 -182.8 68.75 -183.15 68.75 -183.55 68.75 -183.95 68.75 -184.3 68.75 -184.7 68.6 -185.05 68.5 -185.45 68.6 -185.85 68.7 -186.2 68.75 -186.6 68.75 -186.95 68.55 -187.2 68.6 -188.0 68.55 -189.15 67.4 -190.7 64.0 -190.75 64.85 -191.15 40.4 -189.45 33.0 -189.5 33.0 -189.4 2.2 -190.55 Q-0.8 -191.95 -6.8 -192.3 -13.65 -192.65 -17.0 -191.35 L-18.5 -190.55 -43.2 -190.05 -49.85 -190.35 -49.55 -190.7 -59.05 -190.2 -72.05 -190.4 -72.0 -190.35 -73.4 -190.5 Q-74.2 -190.2 -74.4 -189.05 L-74.45 -187.5 -74.45 -186.95 -74.85 -187.2 -74.35 -184.45 -74.25 -183.55 -74.25 -182.8 -74.25 -181.3 -74.25 -179.75 -74.0 -179.4 -73.8 -179.0 -73.75 -178.6 -73.75 -178.25 -73.75 -177.5 -73.75 -176.75 -73.75 -176.35 -73.65 -175.95 -73.5 -175.6 -73.65 -175.2 -73.75 -174.85 -73.75 -173.7 -73.75 -171.05 -73.75 -169.15 -73.5 -168.75 -73.3 -168.35 -73.25 -168.0 -73.25 -167.65 -73.3 -166.85 -73.4 -166.5 -73.65 -166.1 -73.7 -165.75 -73.75 -164.95 -73.7 -164.2 -73.65 -163.85 -73.25 -163.45 -72.6 -163.25 -72.6 -162.4 Q-72.6 -159.55 -72.25 -158.0 L-72.75 -157.9 -73.1 -157.5 -73.25 -157.15 -73.25 -156.4 -73.25 -155.25 -73.25 -154.5 -73.5 -154.1 -73.7 -153.7 -73.75 -153.35 -73.75 -152.6 -73.75 -151.05 -73.75 -149.95 -73.5 -149.55 -73.3 -149.15 -73.25 -148.8 -73.25 -147.65 Q-73.25 -145.95 -73.4 -144.25 -73.5 -142.6 -72.9 -141.2 L-72.7 -140.4 -72.75 -140.35 -72.75 -139.8 -72.75 -139.3 -72.7 -139.15 -72.7 -132.1 Q-72.65 -128.5 -72.9 -124.9 L-73.2 -124.5 -73.25 -124.15 -73.25 -123.4 -73.35 -120.75 Q-73.45 -119.5 -72.9 -118.45 L-72.8 -117.95 -73.0 -117.85 -73.15 -117.75 -73.4 -103.1 -73.75 -99.7 Q-73.85 -97.35 -74.05 -96.35 L-74.35 -72.4 -74.05 -72.05 -73.75 -71.7 -73.75 -69.8 -73.7 -67.55 -73.9 -66.4 -74.4 -60.75 -74.4 -59.55 -74.4 -59.15 -74.3 -58.75 -74.0 -58.3 -73.9 -56.55 -73.9 -56.5 -73.85 -53.65 -73.9 -52.45 -74.0 -44.45 -73.95 -44.4 -73.8 -43.3 -73.8 -40.45 -73.8 -37.3 -73.8 -34.35 -73.8 -34.15 -73.8 -33.85 -73.9 -33.75 -73.9 -31.7 -73.9 -30.0 -73.9 -29.65 -73.9 -28.8 -73.95 -28.45 -74.25 -28.0 -74.4 -26.3 -74.3 -26.3 -74.3 -25.9 -74.3 -25.7 -74.25 -25.65 -74.2 -21.75 -74.05 -21.4 -74.0 -21.2 -73.9 -21.0 -73.8 -20.8 -73.8 -20.6 -73.8 -20.55 -73.75 -20.35 -73.75 -20.25 -73.6 -19.9 -73.6 -19.75 -73.55 -19.55 -72.95 -17.85 -72.3 -16.45 -72.3 -16.25 -72.3 -16.05 -72.3 -15.85 -72.1 -15.65 -71.95 -15.45 -71.8 -15.25 -71.8 -15.05 -71.8 -14.85 -71.7 -14.6 -71.5 -14.4 -71.4 -14.2 -71.2 -13.8 -71.05 -13.4 -70.85 -13.2 -70.8 -13.0 -70.75 -12.8 -70.55 -12.55 -70.35 -12.35 -70.3 -12.15 -70.4 -11.9 -70.6 -11.6 -65.75 -8.5 Q-60.3 -5.45 -53.9 -3.2 L-51.9 -2.45 -45.65 0.6 Q-41.4 2.6 -28.95 5.4 L-27.4 5.8 -15.2 9.3 Q-14.0 9.35 -11.2 10.4 L-5.85 11.85 -0.05 13.15 0.6 13.4 0.7 13.3 3.4 13.6 Q4.45 13.6 4.8 13.15 7.4 12.6 17.05 8.65 L31.65 2.35 Q34.95 1.15 43.45 -2.8 48.2 -5.0 50.95 -6.45 L52.6 -7.4 56.35 -9.35 Q58.85 -9.5 63.45 -14.5 L66.05 -17.45 65.9 -16.85 66.0 -17.1 66.65 -17.7 67.35 -18.85 68.25 -20.4 68.45 -20.6 68.7 -21.2 68.85 -21.4 68.85 -21.5 69.05 -21.9 69.05 -22.1 69.05 -22.3 69.05 -22.5 69.05 -22.7 69.25 -22.9 69.3 -23.1 69.35 -23.3 69.4 -23.5 69.5 -23.75 69.55 -23.95 69.5 -24.95 Q69.45 -25.5 69.75 -26.0 L69.8 -26.2 69.8 -26.4 69.8 -26.6 69.9 -26.8 70.0 -27.2 70.05 -27.4 70.05 -27.6 70.05 -28.25 70.05 -28.85 70.15 -29.05 70.25 -29.45 70.3 -29.65 70.3 -29.85 70.3 -30.5 70.4 -31.1 70.45 -31.3 70.55 -31.5 70.55 -31.7 70.55 -32.15 70.6 -32.55 70.65 -32.95 70.7 -33.15 70.8 -33.35 70.8 -33.55 70.8 -33.95 70.8 -35.15 70.8 -35.95 70.8 -36.35 70.9 -36.75 70.95 -36.95 71.05 -37.2 71.05 -37.4 71.05 -38.2 71.15 -43.55 Q71.25 -46.35 70.8 -49.05 L70.8 -49.9 70.8 -55.2 70.8 -60.75 70.75 -60.95 70.65 -61.35 70.55 -61.75 70.55 -61.95 70.55 -63.2 70.55 -64.4 70.4 -64.65 70.3 -64.65 70.3 -64.9 70.25 -68.05 70.0 -68.15 69.95 -68.1 69.7 -67.95 69.7 -77.35 Q69.6 -77.8 69.65 -78.3 L69.7 -78.95 69.7 -132.0 69.7 -140.15 69.7 -146.6 M80.75 224.55 L80.75 224.6 80.7 224.55 80.75 224.55 M-82.8 229.2 L-82.9 228.25 -82.85 228.25 -82.6 228.35 -82.8 229.2 M-83.15 226.1 L-83.2 225.5 -83.15 225.55 -83.15 225.7 -83.15 226.1 M-84.15 -213.1 L-83.05 -214.05 -82.75 -214.25 Q-81.25 -215.25 -80.2 -214.7 L-79.85 -214.45 -80.65 -213.85 -80.9 -213.6 -82.1 -212.0 -82.55 -211.0 -82.55 -210.9 -82.85 -209.15 Q-82.8 -207.7 -81.6 -207.65 L-81.5 -207.65 Q-81.0 -207.65 -80.55 -208.0 L-81.4 -205.15 -81.9 -201.65 Q-82.25 -200.2 -82.75 -199.5 L-82.6 -198.75 -83.1 -199.15 Q-83.45 -198.9 -83.85 -198.9 -84.45 -198.9 -85.3 -201.45 L-85.6 -202.55 -85.85 -202.5 -87.15 -205.4 -87.1 -206.4 -87.0 -207.4 -86.4 -208.35 Q-86.0 -211.1 -84.3 -212.9 L-84.15 -213.1 M-88.25 -199.15 L-88.35 -199.2 -88.35 -199.25 -88.25 -199.15 M-88.6 -209.2 L-88.3 -209.4 -88.45 -209.15 -88.65 -208.75 -88.75 -209.0 -88.6 -209.2" fill="#ff9900" fill-rule="evenodd" stroke="none"/>
    <path d="M81.75 -214.0 Q82.35 -214.0 83.45 -212.9 86.15 -210.15 86.15 -207.4 L85.5 -206.05 85.1 -205.6 84.7 -205.15 84.55 -205.0 83.5 -204.4 Q82.8 -204.4 82.3 -204.75 L82.0 -205.0 Q81.15 -205.9 80.85 -207.95 80.6 -209.75 80.75 -211.55 80.75 -212.8 81.0 -213.4 81.25 -214.0 81.75 -214.0 M-79.85 -214.45 Q-78.5 -215.4 -78.5 -213.3 -78.5 -212.25 -79.25 -210.25 -79.85 -208.65 -80.55 -208.0 -81.0 -207.65 -81.5 -207.65 L-81.6 -207.65 Q-82.8 -207.7 -82.85 -209.15 L-82.55 -210.9 -82.55 -211.0 -82.1 -212.0 -80.9 -213.6 -80.65 -213.85 -79.85 -214.45" fill="#ffffff" fill-rule="evenodd" stroke="none"/>
    <path d="M-81.3 -149.95 L-81.3 -149.65 -81.35 -149.25 -81.35 -149.2 -81.5 -147.9 -81.45 -149.8 -81.3 -149.95 M-81.3 -143.7 L-81.5 -141.5 -81.45 -143.55 -81.3 -143.7 M75.55 -177.75 L75.35 -177.7 Q75.2 -178.2 75.2 -178.7 L75.55 -177.75" fill="#ff9933" fill-rule="evenodd" stroke="none"/>
    <path d="M75.8 -177.8 L75.55 -177.75 75.2 -178.7 75.6 -181.35 75.8 -177.8" fill="#cc6600" fill-rule="evenodd" stroke="none"/>
    <path d="M-70.75 -114.05 L-70.75 -113.4 -70.75 -111.9 -70.4 -110.75 -70.2 -110.4 -69.95 -109.95 -69.75 -109.6 -69.65 -109.25 -69.5 -108.85 -69.25 -108.5 -68.75 -107.9 -68.75 -106.2 -68.65 -105.85 -68.4 -105.05 -68.25 -104.3 -68.15 -103.95 -68.15 -103.55 -67.55 -102.45 -67.65 -102.4 -68.4 -101.65 -68.75 -101.25 -69.4 -100.5 -69.5 -100.15 -69.55 -99.95 Q-69.65 -105.2 -70.6 -102.75 L-70.85 -101.95 -70.8 -111.7 -70.8 -114.0 -70.75 -114.05" fill="url(#gradient0)" fill-rule="evenodd" stroke="none"/>
    <path d="M-73.9 -30.0 L-73.9 -31.7 -73.9 -33.75 -73.8 -33.85 -73.8 -33.75 -73.8 -30.95 -73.8 -29.85 -73.8 -29.65 -73.9 -30.0 M-73.8 -43.3 L-73.95 -44.4 -73.85 -44.25 -73.8 -44.05 -73.8 -43.65 -73.8 -43.3 M-73.85 -53.65 L-73.9 -56.5 -73.9 -56.55 -73.75 -56.85 -73.75 -56.25 -73.8 -56.2 -73.8 -56.0 -73.8 -55.4 -73.8 -55.1 -73.85 -53.65 M-71.75 -158.05 L-71.55 -158.35 -71.4 -157.9 -71.75 -158.05" fill="#960000" fill-rule="evenodd" stroke="none"/>
    <path d="M69.7 -146.6 L69.7 -140.15 69.25 -138.5 69.25 -142.1 69.25 -146.3 69.7 -146.6 M69.7 -132.0 L69.7 -78.95 69.65 -78.3 Q69.6 -77.8 69.7 -77.35 L69.7 -67.95 69.95 -68.1 70.0 -68.15 70.25 -68.05 70.3 -64.9 70.3 -64.65 70.4 -64.65 70.55 -64.4 70.55 -63.2 70.55 -61.95 70.55 -61.75 70.65 -61.35 70.75 -60.95 70.8 -60.75 70.8 -55.2 70.8 -49.9 70.8 -49.05 Q71.25 -46.35 71.15 -43.55 L71.05 -38.2 71.05 -37.4 71.05 -37.2 70.95 -36.95 70.9 -36.75 70.8 -36.35 70.8 -35.95 70.8 -35.15 70.8 -33.95 70.8 -33.55 70.8 -33.35 70.7 -33.15 70.65 -32.95 70.6 -32.55 70.55 -32.15 70.55 -31.7 70.55 -31.5 70.45 -31.3 70.4 -31.1 70.3 -30.5 70.3 -29.85 70.3 -29.65 70.25 -29.45 70.15 -29.05 70.05 -28.85 70.05 -28.25 70.05 -27.6 70.05 -27.4 70.0 -27.2 69.9 -26.8 69.8 -26.6 69.8 -26.4 69.8 -26.2 69.75 -26.0 Q69.45 -25.5 69.5 -24.95 L69.55 -23.95 69.5 -23.75 69.4 -23.5 69.35 -23.3 69.3 -23.1 69.25 -22.9 69.05 -22.7 69.05 -22.5 69.05 -22.3 69.05 -22.1 69.05 -21.9 68.85 -21.5 68.85 -21.4 68.7 -21.2 68.45 -20.6 68.25 -20.4 67.35 -18.85 66.65 -17.7 66.0 -17.1 65.9 -16.85 66.05 -17.45 66.15 -17.75 Q66.45 -18.65 67.15 -19.35 L67.15 -19.75 67.2 -19.8 67.2 -20.2 67.2 -20.4 67.25 -20.55 67.4 -20.8 67.45 -21.0 67.5 -21.2 67.65 -21.4 67.65 -21.6 67.7 -21.8 67.8 -22.0 67.95 -22.25 67.95 -22.45 67.95 -22.65 68.0 -22.85 68.15 -23.25 68.2 -23.45 Q68.1 -23.8 68.3 -24.1 L68.6 -24.7 68.7 -24.9 68.7 -25.3 68.7 -25.7 68.75 -25.9 68.95 -26.55 68.95 -27.15 69.0 -27.35 Q69.3 -28.1 69.25 -29.0 L69.2 -30.6 69.2 -30.85 69.25 -31.05 69.35 -31.25 69.45 -31.45 69.45 -31.85 69.45 -32.25 69.45 -33.1 69.45 -33.5 69.5 -33.7 69.65 -34.1 69.7 -34.3 69.7 -34.5 69.7 -35.35 69.7 -36.35 69.7 -36.55 69.75 -36.75 69.85 -36.95 69.95 -37.2 69.95 -37.4 69.95 -38.8 69.95 -40.05 69.9 -40.25 69.75 -40.65 69.7 -40.85 69.7 -41.7 69.65 -42.5 69.65 -42.9 Q69.3 -44.3 69.35 -45.8 L69.45 -48.85 69.45 -49.25 69.4 -49.45 69.3 -49.7 69.2 -49.9 69.2 -53.55 69.2 -57.25 69.2 -58.05 69.1 -58.25 68.95 -58.5 68.95 -60.55 68.95 -62.8 68.95 -63.2 68.9 -63.4 68.85 -63.6 68.75 -63.8 68.7 -64.45 68.7 -64.5 68.65 -66.9 68.65 -67.25 68.45 -67.5 68.1 -67.9 67.95 -82.25 68.15 -86.15 Q68.9 -98.9 68.85 -111.7 L68.8 -114.3 68.7 -121.0 68.7 -121.25 68.75 -122.4 68.75 -123.15 68.75 -123.9 68.85 -124.3 69.0 -124.65 69.1 -125.05 69.25 -125.4 69.25 -128.85 69.25 -131.15 69.7 -132.0 M-70.3 -12.15 L-70.35 -12.35 -70.55 -12.55 -70.75 -12.8 -70.8 -13.0 -70.85 -13.2 -71.05 -13.4 -71.2 -13.8 -71.4 -14.2 -71.5 -14.4 -71.7 -14.6 -71.8 -14.85 -71.8 -15.05 -71.8 -15.25 -71.95 -15.45 -72.1 -15.65 -72.3 -15.85 -72.3 -16.05 -72.3 -16.25 -72.3 -16.45 -72.95 -17.85 -73.55 -19.55 -73.6 -19.75 -73.6 -19.9 -73.75 -20.25 -73.75 -20.35 -73.8 -20.55 -73.8 -20.6 -73.8 -20.8 -73.9 -21.0 -74.0 -21.2 -74.05 -21.4 -74.2 -21.75 -74.25 -25.65 -74.3 -25.7 -74.3 -25.9 -74.3 -26.3 -74.4 -26.3 -74.25 -28.0 -73.95 -28.45 -73.9 -28.8 -73.9 -29.65 -73.9 -30.0 -73.8 -29.65 -73.8 -29.85 -73.8 -30.95 -73.8 -33.75 -73.8 -33.85 -73.8 -34.15 -73.8 -34.35 -73.8 -37.3 -73.8 -40.45 -73.8 -43.3 -73.8 -43.65 -73.8 -44.05 -73.85 -44.25 -73.95 -44.4 -74.0 -44.45 -73.9 -52.45 -73.85 -53.65 -73.8 -55.1 -73.8 -55.4 -73.8 -56.0 -73.8 -56.2 -73.75 -56.25 -73.75 -56.85 -73.9 -56.55 -74.0 -58.3 -74.3 -58.75 -74.4 -59.15 -74.4 -59.55 -74.4 -60.75 -73.9 -66.4 -73.7 -67.55 -73.75 -69.8 -73.75 -71.7 -74.05 -72.05 -74.35 -72.4 -74.05 -96.35 Q-73.85 -97.35 -73.75 -99.7 L-73.4 -103.1 -73.15 -117.75 -73.0 -117.85 -72.8 -117.95 -72.9 -118.45 Q-73.45 -119.5 -73.35 -120.75 L-73.25 -123.4 -73.25 -124.15 -73.2 -124.5 -72.9 -124.9 Q-72.65 -128.5 -72.7 -132.1 L-72.7 -139.15 -72.7 -140.1 -72.7 -140.4 -72.9 -141.2 Q-73.5 -142.6 -73.4 -144.25 -73.25 -145.95 -73.25 -147.65 L-73.25 -148.8 -73.3 -149.15 -73.5 -149.55 -73.75 -149.95 -73.75 -151.05 -73.75 -152.6 -73.75 -153.35 -73.7 -153.7 -73.5 -154.1 -73.25 -154.5 -73.25 -155.25 -73.25 -156.4 -73.25 -157.15 -73.1 -157.5 -72.75 -157.9 -72.25 -158.0 -72.15 -157.65 -71.75 -158.05 -71.4 -157.9 -71.25 -157.5 -71.2 -157.7 -71.05 -157.5 -70.75 -157.15 -70.75 -156.0 -70.75 -154.5 -70.75 -153.35 -70.9 -152.95 -71.05 -152.6 -71.2 -152.2 -71.25 -151.85 -71.2 -151.45 -71.05 -151.05 -70.9 -150.7 Q-70.65 -149.2 -70.7 -147.65 L-70.75 -144.25 -70.75 -143.1 -70.7 -142.75 -70.5 -142.35 -70.25 -141.95 -70.25 -134.0 -70.25 -125.65 -70.25 -124.15 -70.3 -123.8 -70.5 -123.4 -70.75 -123.0 -70.75 -122.25 -70.7 -121.1 -70.65 -120.35 Q-70.05 -119.35 -70.15 -118.1 L-70.25 -115.45 -70.25 -114.65 -70.55 -114.3 -70.75 -114.05 -70.8 -114.0 -70.8 -111.7 -70.85 -101.95 Q-71.6 -99.25 -71.45 -94.6 L-71.7 -87.7 Q-71.85 -83.45 -71.65 -80.8 L-71.65 -78.25 -71.8 -76.5 -71.7 -76.4 -71.7 -71.5 -71.7 -66.4 -71.7 -65.75 Q-72.05 -64.55 -72.0 -63.3 L-71.95 -60.65 -71.95 -60.25 -72.05 -60.1 -72.45 -59.95 -72.45 -56.55 -72.45 -52.65 -72.45 -52.25 -72.5 -52.05 -72.6 -51.65 -72.7 -51.45 -72.7 -50.4 -72.7 -49.4 -72.7 -49.15 -72.7 -49.0 -72.85 -48.75 -72.95 -47.35 -72.95 -45.9 -72.95 -45.5 -72.9 -45.3 -72.75 -45.05 -72.65 -39.95 -72.7 -34.85 -72.7 -34.4 -72.75 -34.2 -72.85 -33.8 -72.95 -33.6 -72.95 -31.1 -72.95 -29.3 -72.95 -27.0 -72.95 -26.55 -72.85 -26.35 -72.8 -26.15 -72.7 -25.95 -72.7 -25.6 -72.7 -25.45 -72.7 -24.75 -72.65 -23.5 -72.6 -23.3 -72.4 -22.7 -72.4 -21.85 -72.35 -21.65 -72.15 -21.05 -72.15 -20.85 -72.2 -20.0 -72.2 -19.8 -72.15 -19.6 -72.05 -19.4 -72.0 -19.2 -71.95 -19.0 -71.95 -18.8 -71.95 -18.6 -71.9 -18.4 -71.8 -18.15 -71.7 -17.95 -71.7 -17.75 -71.7 -17.55 -71.1 -16.3 -70.5 -15.1 -70.3 -14.9 -70.25 -14.7 -70.15 -14.3 -70.1 -14.05 -69.9 -13.7 -69.55 -13.25 -69.45 -13.05 -69.45 -12.85 -69.25 -12.65 -69.1 -12.25 -68.95 -11.8 -68.8 -11.6 -68.45 -11.2 -68.2 -10.8 -68.3 -10.65 -68.7 -10.5 -69.5 -11.15 -69.95 -11.35 -70.1 -11.75 -70.3 -12.15 M-74.25 -183.55 L-74.35 -184.45 -74.2 -184.0 -74.25 -183.95 -74.25 -183.55 M-46.25 1.4 L-46.95 1.3 -47.7 0.95 -48.0 0.8 -47.7 0.9 -46.25 1.4 M60.25 -2.1 L58.8 -1.95 57.0 -0.5 56.8 -0.45 54.8 0.05 50.75 2.15 47.5 3.8 47.2 3.9 45.5 4.3 44.45 4.85 42.2 5.85 40.7 6.3 Q39.65 6.7 38.65 7.15 L37.3 7.8 Q29.05 10.4 16.3 15.1 L11.1 17.05 9.4 17.7 -9.05 17.7 -11.1 17.05 Q-14.35 16.1 -17.95 15.5 L-18.55 15.25 -20.65 15.0 -21.65 14.45 -22.35 14.1 -22.75 14.0 -26.0 13.6 -26.1 13.5 Q-29.4 11.8 -33.9 11.3 L-34.65 11.0 -34.85 10.5 -35.65 9.95 -39.55 8.75 -42.3 7.85 -44.6 7.3 -45.6 6.75 -46.25 6.4 -46.65 6.3 -46.75 6.3 -49.95 5.85 -51.0 5.4 -54.25 4.3 -57.05 3.35 Q-58.9 2.7 -60.9 2.2 -62.9 1.2 -65.4 0.45 L-67.9 -0.45 -68.35 -0.9 -69.2 -1.45 -69.2 -1.6 Q-70.5 -1.8 -73.1 -3.7 L-73.25 -3.8 -73.35 -3.95 -73.55 -4.0 -73.65 -4.05 -73.65 -4.0 -73.75 -4.05 -73.75 -4.0 -73.95 -3.85 -74.05 -3.7 -74.05 -3.5 -74.0 -3.3 -73.9 -3.05 -73.8 -2.85 -73.8 -2.25 -73.8 -2.2 -74.1 -2.5 -74.05 0.05 -74.05 9.85 -74.15 10.25 -74.15 28.85 -74.45 34.15 Q-74.95 33.2 -75.0 30.6 L-75.0 24.55 -75.15 22.6 -75.0 18.8 -75.0 16.1 -75.4 12.05 -75.25 2.75 -74.9 -3.0 -74.95 -3.35 -74.85 -3.25 -74.7 -3.05 -74.7 -3.2 -74.75 -3.55 -74.85 -3.75 Q-75.35 -4.75 -75.25 -5.85 L-75.15 -7.75 -75.3 -8.05 -75.4 -8.35 -75.4 -8.75 -75.2 -8.55 -74.75 -8.4 -74.7 -8.35 -74.25 -8.0 -73.95 -7.8 -73.9 -7.75 -73.0 -7.05 -72.55 -6.75 -69.3 -4.25 -68.2 -3.8 -64.25 -2.3 -63.25 -2.0 -63.05 -1.75 -62.75 -1.45 -60.55 -0.95 -58.75 -0.45 -58.45 -0.35 -54.85 0.9 -48.95 2.55 -47.45 3.15 -46.25 3.65 -43.6 4.65 -41.75 5.25 -39.3 6.2 Q-35.15 7.1 -31.45 8.4 L-30.65 8.75 -30.4 8.85 -18.0 12.2 -14.7 12.55 -13.95 12.85 -11.15 13.5 -6.05 15.0 -5.65 15.1 -3.85 15.15 -3.6 15.3 3.4 15.85 3.6 15.95 4.25 16.05 9.25 15.05 Q11.85 14.5 13.45 13.5 L13.7 13.35 30.0 7.9 Q34.8 6.25 38.7 4.1 L43.3 2.35 46.65 1.2 48.65 0.2 50.6 -0.8 Q53.0 -1.55 55.2 -2.45 57.75 -3.45 59.6 -4.7 61.05 -5.15 62.05 -5.8 L63.2 -6.4 64.0 -6.2 64.5 -6.45 65.55 -7.65 66.75 -8.75 67.75 -8.9 68.1 -9.25 68.5 -9.65 68.65 -10.0 68.85 -10.4 69.5 -11.1 70.0 -11.55 70.1 -11.9 70.25 -12.3 70.6 -12.65 70.7 -12.75 71.0 -13.05 71.25 -13.8 71.65 -14.55 71.95 -15.0 72.35 -15.7 72.5 -16.1 72.6 -16.45 72.75 -16.85 73.35 -17.65 73.6 -18.35 73.7 -18.7 74.0 -19.1 74.1 -19.5 74.25 -19.8 74.25 -16.65 74.1 -16.35 73.7 -15.3 73.45 -14.95 73.2 -14.55 73.2 -14.35 73.2 -14.25 73.1 -14.15 72.1 -12.25 72.05 -12.2 72.2 -12.15 72.4 -12.15 72.55 -11.95 72.55 -9.1 72.55 -6.0 72.55 -5.4 72.55 -5.2 72.4 -5.0 72.3 -5.0 Q73.25 24.4 72.85 54.0 72.45 86.95 73.35 119.65 L73.65 127.1 73.65 133.5 Q73.25 141.55 74.35 149.55 74.85 153.3 74.95 156.75 75.45 175.45 76.55 193.95 L75.7 192.75 Q75.75 190.9 75.45 189.05 74.35 182.8 73.95 176.15 L73.4 165.55 73.25 160.25 72.55 137.55 Q71.7 118.1 71.3 98.75 L71.25 96.45 Q70.05 65.0 70.75 33.25 L70.85 26.4 70.75 0.95 70.9 0.95 71.05 0.75 71.05 0.55 71.05 -0.05 71.0 -2.1 Q70.95 -3.1 71.25 -3.95 L71.35 -4.55 71.35 -6.2 71.25 -7.65 71.2 -7.7 71.25 -7.8 71.3 -8.2 71.3 -9.2 71.3 -10.05 71.15 -10.25 71.35 -10.45 71.5 -10.65 71.5 -10.85 71.4 -11.05 71.1 -11.0 71.0 -10.95 71.0 -11.05 71.25 -11.4 71.5 -11.35 71.5 -11.45 71.7 -11.85 72.0 -12.15 70.95 -11.25 70.7 -11.0 69.95 -10.25 69.4 -9.5 66.6 -6.05 66.25 -6.0 65.7 -5.7 64.8 -5.15 64.5 -4.8 Q62.85 -3.75 61.4 -2.85 L60.25 -2.1 M80.7 219.75 L80.75 219.75 81.1 220.1 81.1 220.65 81.1 221.0 81.1 221.75 81.1 222.0 81.1 222.5 81.1 222.55 81.1 223.9 81.1 224.3 80.95 224.5 80.75 224.55 80.7 224.55 79.85 224.4 79.8 224.25 79.75 224.3 79.0 224.7 77.85 225.3 77.5 225.45 76.5 225.7 76.0 225.95 75.8 225.9 75.1 225.8 74.75 225.45 73.5 225.7 71.75 226.85 70.5 227.45 69.65 227.2 69.35 226.95 Q70.3 225.65 72.15 224.85 L73.1 224.3 73.5 223.9 74.75 223.45 75.7 222.95 76.6 222.25 76.75 222.2 77.7 221.85 78.1 221.7 78.2 221.65 78.35 221.5 79.1 220.75 79.25 220.65 79.5 220.75 Q80.3 220.45 80.7 219.75 M-82.9 228.25 L-82.9 228.2 -82.9 227.2 -83.0 226.45 -83.15 226.3 -83.15 226.1 -83.15 225.7 -83.15 225.55 -83.2 225.5 -83.35 225.3 -83.4 225.25 -83.4 224.55 -83.35 223.8 -83.0 223.8 -82.75 223.8 -82.4 224.15 -82.35 224.2 -81.75 224.3 -81.4 224.5 -79.5 225.55 -78.8 225.9 -75.25 227.35 -75.0 227.75 -75.0 228.1 Q-75.25 228.3 -75.5 228.3 L-77.15 228.1 -78.4 227.85 -78.6 227.75 -79.0 227.95 -80.4 227.85 -81.0 227.45 -81.3 227.75 -81.5 228.1 -81.65 228.35 -82.0 228.4 -82.6 228.35 -82.85 228.25 -82.9 228.25 M-76.75 -7.85 L-76.75 -9.9 -76.45 -9.7 -76.65 -9.4 -76.65 -8.6 -76.65 -7.75 -76.75 -7.85 M69.5 -13.95 L69.8 -14.35 69.6 -13.95 69.3 -13.6 69.5 -13.95 M68.8 -12.8 L68.6 -12.4 67.95 -11.75 68.85 -13.0 68.8 -12.8 M-56.1 231.7 L-63.1 228.65 Q-60.2 228.65 -58.15 229.55 -56.1 230.45 -56.1 231.7 M-64.0 231.6 L-58.2 234.3 Q-42.85 240.4 -27.15 245.95 -24.25 246.9 -21.5 248.2 -12.1 252.25 -2.25 253.25 L-0.2 253.05 2.95 252.05 Q26.45 244.8 48.2 233.25 L59.95 229.0 61.5 229.3 Q62.85 230.35 61.05 231.15 55.1 234.05 49.45 237.35 39.3 242.6 28.9 247.35 23.6 249.8 18.6 252.65 8.35 258.4 -2.9 260.35 L-26.8 251.25 -58.2 238.0 -64.0 231.6" fill="#690000" fill-rule="evenodd" stroke="none"/>
    <path d="M69.7 -140.15 L69.7 -132.0 69.25 -131.15 69.25 -138.5 69.7 -140.15 M68.7 -121.0 L68.8 -114.3 68.85 -111.7 Q68.9 -98.9 68.15 -86.15 L67.95 -82.25 68.1 -67.9 67.85 -68.0 67.9 -72.1 Q68.05 -78.05 67.25 -83.85 L67.25 -86.1 67.25 -90.3 Q67.25 -91.65 66.75 -92.95 L66.8 -95.2 Q66.9 -97.2 66.45 -99.0 L66.1 -101.3 65.7 -102.0 65.2 -102.75 64.9 -103.2 64.75 -103.55 64.75 -104.3 64.75 -104.7 64.75 -105.05 64.75 -105.45 64.75 -105.85 64.85 -106.2 64.9 -106.4 65.1 -106.45 65.6 -106.85 66.1 -107.25 66.45 -107.6 66.75 -108.0 66.85 -108.35 67.0 -108.75 67.1 -109.1 67.25 -109.5 67.25 -112.9 67.2 -115.95 67.35 -118.6 67.7 -119.0 68.0 -119.35 68.2 -119.75 68.4 -120.1 68.6 -120.5 68.7 -121.0 M-73.25 -3.8 L-73.1 -3.7 Q-70.5 -1.8 -69.2 -1.6 L-69.2 -1.45 -68.35 -0.9 -67.9 -0.45 -65.4 0.45 Q-62.9 1.2 -60.9 2.2 -58.9 2.7 -57.05 3.35 L-54.25 4.3 -51.0 5.4 -49.95 5.85 -46.75 6.3 -46.65 6.3 -46.25 6.4 -45.6 6.75 -44.6 7.3 -42.3 7.85 -39.55 8.75 -35.65 9.95 -34.85 10.5 -34.65 11.0 -33.9 11.3 Q-29.4 11.8 -26.1 13.5 L-26.0 13.6 -22.75 14.0 -22.35 14.1 -21.65 14.45 -20.65 15.0 -18.55 15.25 -17.95 15.5 Q-14.35 16.1 -11.1 17.05 L-9.05 17.7 9.4 17.7 11.1 17.05 16.3 15.1 Q29.05 10.4 37.3 7.8 L38.65 7.15 Q39.65 6.7 40.7 6.3 L42.2 5.85 44.45 4.85 45.5 4.3 47.2 3.9 47.5 3.8 50.75 2.15 54.8 0.05 56.8 -0.45 57.0 -0.5 58.8 -1.95 60.25 -2.1 61.0 -2.45 Q65.15 -4.65 68.45 -7.4 L68.45 -7.35 68.45 -7.15 68.45 -6.95 68.4 -6.75 68.3 -6.55 68.2 -6.35 68.15 -6.15 68.15 -5.95 67.95 -5.75 67.75 -5.55 67.7 -5.3 67.65 -5.1 67.5 -4.9 67.45 -4.7 67.55 -4.5 67.7 -4.3 67.7 -4.2 67.7 -4.1 67.7 -3.9 67.8 -3.7 68.2 -3.8 68.3 -3.95 68.4 -4.15 68.7 -4.8 68.9 -5.05 69.2 -5.3 69.65 -5.3 69.7 -5.4 69.7 -4.15 69.85 -4.0 70.0 -3.9 69.9 -3.5 69.75 -3.25 69.7 -3.05 69.7 -2.65 69.7 -2.05 69.7 -1.45 69.8 -1.2 69.9 -1.0 69.95 -0.8 70.25 -0.7 70.4 -0.45 70.45 -0.25 70.45 -0.05 70.45 0.15 70.45 0.35 70.45 0.75 70.6 0.9 70.75 0.95 70.85 26.4 70.75 33.25 Q70.05 65.0 71.25 96.45 L71.3 98.75 Q71.7 118.1 72.55 137.55 L73.25 160.25 73.4 165.55 73.95 176.15 Q74.35 182.8 75.45 189.05 75.75 190.9 75.7 192.75 L76.55 193.95 77.7 217.9 77.55 218.05 76.95 218.0 76.95 218.15 76.3 218.4 76.0 218.55 75.95 218.3 74.65 219.65 73.2 220.25 72.95 220.55 -1.2 251.7 -56.1 231.7 Q-56.1 230.45 -58.15 229.55 -60.2 228.65 -63.1 228.65 L-81.45 221.4 -81.75 221.25 -81.8 221.25 Q-82.15 204.35 -81.05 187.4 -79.8 168.25 -80.15 149.0 -80.25 142.5 -79.3 136.25 -79.05 134.75 -79.05 133.25 -78.95 113.55 -77.7 94.3 L-76.55 78.05 -76.45 76.25 Q-76.1 57.65 -74.4 39.5 L-74.5 39.2 -74.55 37.8 -74.45 34.15 -74.15 28.85 -74.15 10.25 -74.05 9.85 -74.05 0.05 -74.1 -2.5 -73.8 -2.2 -73.8 -1.45 -73.8 -0.8 -73.6 -0.6 -73.45 -0.4 -73.0 -0.5 -72.6 -0.7 -72.5 -0.9 -72.45 -1.05 -72.5 -1.1 -72.65 -1.3 -72.7 -1.5 -72.7 -1.7 -72.75 -1.9 -72.85 -2.1 -72.9 -2.35 -72.95 -2.75 -72.95 -3.15 -73.0 -3.35 -73.15 -3.55 -73.2 -3.75 -73.25 -3.8 M-82.2 229.45 L-82.8 229.2 -82.6 228.35 -82.0 228.4 -81.65 228.35 -81.5 228.1 -81.3 227.75 -81.0 227.45 -80.4 227.85 -79.0 227.95 -78.6 227.75 -78.4 227.85 -77.15 228.1 -75.5 228.3 Q-75.25 228.3 -75.0 228.1 L-75.0 227.75 -75.25 227.35 -78.8 225.9 -79.5 225.55 -64.0 231.6 -58.2 238.0 -60.3 238.25 -79.55 228.25 -82.2 229.45 M77.7 221.85 L76.75 222.2 76.95 222.05 77.7 221.85 M74.75 223.45 L73.5 223.9 73.1 224.3 72.15 224.85 Q70.3 225.65 69.35 226.95 L69.65 227.2 70.5 227.45 71.75 226.85 73.5 225.7 74.75 225.45 75.1 225.8 75.8 225.9 74.95 226.6 73.25 227.35 70.95 228.65 49.45 237.35 Q55.1 234.05 61.05 231.15 62.85 230.35 61.5 229.3 L73.75 223.4 74.75 223.45 M-69.55 -99.95 L-69.65 -99.75 -69.75 -99.4 -69.75 -98.25 -69.75 -97.5 -69.75 -96.75 -69.75 -95.95 -69.9 -95.6 -70.0 -95.2 -70.15 -94.85 -70.25 -94.45 -70.2 -92.2 Q-70.1 -90.25 -70.55 -88.35 L-70.75 -86.1 -71.1 -83.85 Q-71.1 -81.15 -71.6 -78.55 L-71.65 -78.25 -71.65 -80.8 Q-71.85 -83.45 -71.7 -87.7 L-71.45 -94.6 Q-71.6 -99.25 -70.85 -101.95 L-70.6 -102.75 Q-69.65 -105.2 -69.55 -99.95 M-72.7 -25.6 L-72.6 -25.4 -72.4 -25.0 -72.25 -24.65 -72.7 -25.45 -72.7 -25.6" fill="url(#gradient1)" fill-rule="evenodd" stroke="none"/>
    <path d="M77.75 -89.45 L77.75 -89.9 78.35 -91.0 78.25 -90.65 77.95 -89.95 77.75 -89.45 M73.45 -75.15 L73.75 -76.15 73.75 -74.05 73.45 -75.15 M73.75 -69.9 L73.75 -67.7 73.65 -68.55 73.75 -69.9" fill="url(#gradient2)" fill-rule="evenodd" stroke="none"/>
    <path d="M66.05 -17.45 L63.45 -14.5 Q58.85 -9.5 56.35 -9.35 L52.6 -7.4 Q54.6 -8.6 54.6 -9.1 54.6 -10.2 51.65 -8.85 L50.9 -8.5 51.0 -8.6 51.7 -9.0 52.2 -9.3 54.1 -10.2 54.75 -10.4 55.35 -10.55 56.85 -11.6 57.9 -12.15 58.0 -12.15 58.75 -12.3 59.6 -12.55 60.1 -12.9 60.6 -13.3 60.95 -13.7 61.25 -14.05 61.3 -14.15 62.8 -15.25 Q65.05 -17.15 65.8 -19.65 L65.85 -19.75 66.0 -19.75 66.5 -19.75 67.0 -19.75 67.2 -19.8 67.15 -19.75 67.15 -19.35 Q66.45 -18.65 66.15 -17.75 L66.05 -17.45 M47.2 -6.55 L43.85 -4.7 41.15 -3.55 Q43.75 -4.85 46.35 -6.3 L47.2 -6.55 M31.25 0.65 L30.45 0.95 17.75 6.4 17.9 6.1 17.9 6.05 18.65 5.75 24.1 3.45 30.55 0.65 31.0 0.65 31.25 0.65 M1.6 11.05 L1.5 11.1 1.4 11.05 1.6 11.05 M0.35 11.0 L0.15 11.05 0.15 11.15 -0.25 11.05 -2.35 10.6 0.35 11.0" fill="url(#gradient3)" fill-rule="evenodd" stroke="none"/>
    <path d="M52.6 -7.4 L50.95 -6.45 Q48.2 -5.0 43.45 -2.8 34.95 1.15 31.65 2.35 L17.05 8.65 Q7.4 12.6 4.8 13.15 4.45 13.6 3.4 13.6 L0.7 13.3 -0.05 13.15 -5.85 11.85 -11.2 10.4 Q-14.0 9.35 -15.2 9.3 L-27.4 5.8 -28.95 5.4 -19.9 7.35 -2.35 10.6 -0.25 11.05 0.15 11.15 0.15 11.05 0.35 11.0 1.4 11.05 1.5 11.1 1.6 11.05 1.75 11.05 Q4.1 11.05 9.8 9.1 L10.75 9.4 12.0 9.6 12.75 9.45 13.35 9.3 Q15.0 8.6 16.45 7.5 L17.35 6.4 17.4 6.25 17.9 6.05 17.9 6.1 17.75 6.4 30.45 0.95 31.25 0.65 31.75 0.55 32.35 0.4 34.95 -0.7 Q38.1 -2.05 41.15 -3.55 L43.85 -4.7 47.2 -6.55 47.25 -6.55 48.1 -6.85 50.9 -8.5 51.65 -8.85 Q54.6 -10.2 54.6 -9.1 54.6 -8.6 52.6 -7.4 M-51.9 -2.45 L-53.9 -3.2 Q-60.3 -5.45 -65.75 -8.5 L-70.6 -11.6 -70.4 -11.9 -70.3 -12.15 -70.1 -11.75 -69.95 -11.35 -69.5 -11.15 -68.7 -10.5 -68.3 -10.65 -68.2 -10.8 -68.45 -11.2 -68.8 -11.6 -68.95 -11.8 -69.1 -12.25 -69.25 -12.65 -69.45 -12.85 -69.45 -13.05 -69.55 -13.25 -69.9 -13.7 -70.1 -14.05 -70.15 -14.3 -70.25 -14.7 -70.3 -14.9 -70.5 -15.1 -71.1 -16.3 -71.7 -17.55 -71.7 -17.75 -71.7 -17.95 -71.8 -18.15 -71.9 -18.4 -71.95 -18.6 -71.95 -18.8 -71.95 -19.0 -72.0 -19.2 -72.05 -19.4 -72.15 -19.6 -72.2 -19.8 -72.2 -20.0 -72.15 -20.85 -72.15 -21.05 -71.95 -20.8 -71.4 -20.15 -71.25 -19.7 -71.25 -19.25 -71.25 -18.85 -71.25 -18.45 -71.0 -17.65 -70.65 -16.8 -70.5 -16.4 -70.25 -16.0 -69.9 -15.6 -69.25 -14.85 Q-67.85 -12.45 -65.35 -10.4 -61.75 -7.4 -51.9 -2.45" fill="url(#gradient4)" fill-rule="evenodd" stroke="none"/>
    <path d="M60.25 -2.1 L61.4 -2.85 Q62.85 -3.75 64.5 -4.8 L64.8 -5.15 65.7 -5.7 66.25 -6.0 66.6 -6.05 69.4 -9.5 69.95 -10.25 70.7 -11.0 70.95 -11.25 72.0 -12.15 71.7 -11.85 71.5 -11.45 71.5 -11.35 71.25 -11.4 71.0 -11.05 71.0 -10.95 70.45 -10.6 69.95 -10.05 69.9 -9.85 69.8 -9.6 69.7 -9.4 69.65 -9.2 69.45 -9.0 69.25 -8.8 69.2 -8.6 69.15 -8.4 68.95 -8.2 68.75 -8.0 68.45 -7.6 68.45 -7.4 Q65.15 -4.65 61.0 -2.45 L60.25 -2.1 M72.2 -12.15 L72.05 -12.2 72.1 -12.25 73.1 -14.15 73.15 -14.15 73.15 -13.95 73.0 -13.75 72.8 -13.5 72.7 -13.3 72.7 -13.1 72.5 -12.9 72.45 -12.7 72.4 -12.5 72.25 -12.25 72.2 -12.15 M-74.85 -3.75 L-74.75 -3.55 -74.7 -3.2 -74.7 -3.05 -74.85 -3.25 -74.85 -3.75 M-76.75 -5.3 L-76.75 -7.85 -76.65 -7.75 -76.65 -5.6 -76.65 -5.2 -76.75 -5.3" fill="url(#gradient5)" fill-rule="evenodd" stroke="none"/>
    <path d="M71.0 -10.95 L71.1 -11.0 71.4 -11.05 71.5 -10.85 71.5 -10.65 71.35 -10.45 71.15 -10.25 71.3 -10.05 71.3 -9.2 71.3 -8.2 71.25 -7.8 71.2 -7.7 71.25 -7.65 71.35 -6.2 71.35 -4.55 71.25 -3.95 Q70.95 -3.1 71.0 -2.1 L71.05 -0.05 71.05 0.55 71.05 0.75 70.9 0.95 70.75 0.95 70.6 0.9 70.45 0.75 70.45 0.35 70.45 0.15 70.45 -0.05 70.45 -0.25 70.4 -0.45 70.25 -0.7 69.95 -0.8 69.9 -1.0 69.8 -1.2 69.7 -1.45 69.7 -2.05 69.7 -2.65 69.7 -3.05 69.75 -3.25 69.9 -3.5 70.0 -3.9 69.85 -4.0 69.7 -4.15 69.7 -5.4 69.65 -5.3 69.2 -5.3 69.05 -5.3 68.9 -5.05 68.7 -4.8 68.4 -4.15 68.3 -3.95 68.2 -3.8 67.8 -3.7 67.7 -3.9 67.7 -4.1 67.7 -4.2 67.7 -4.3 67.55 -4.5 67.45 -4.7 67.5 -4.9 67.65 -5.1 67.7 -5.3 67.75 -5.55 67.95 -5.75 68.15 -5.95 68.15 -6.15 68.2 -6.35 68.3 -6.55 68.4 -6.75 68.45 -6.95 68.45 -7.15 68.45 -7.35 68.45 -7.4 68.45 -7.6 68.75 -8.0 68.95 -8.2 69.15 -8.4 69.2 -8.6 69.25 -8.8 69.45 -9.0 69.65 -9.2 69.7 -9.4 69.8 -9.6 69.9 -9.85 69.95 -10.05 70.45 -10.6 71.0 -10.95 M-73.8 -2.2 L-73.8 -2.25 -73.8 -2.85 -73.9 -3.05 -74.0 -3.3 -74.05 -3.5 -74.05 -3.7 -73.95 -3.85 -73.75 -4.0 -73.75 -4.05 -73.65 -4.0 -73.55 -4.0 -73.35 -3.95 -73.25 -3.8 -73.2 -3.75 -73.15 -3.55 -73.0 -3.35 -72.95 -3.15 -72.95 -2.75 -72.9 -2.35 -72.85 -2.1 -72.75 -1.9 -72.7 -1.7 -72.7 -1.5 -72.65 -1.3 -72.5 -1.1 -72.45 -1.05 -72.5 -0.9 -72.6 -0.7 -73.0 -0.5 -73.45 -0.4 -73.6 -0.6 -73.8 -0.8 -73.8 -1.45 -73.8 -2.2" fill="#870000" fill-rule="evenodd" stroke="none"/>
    <path d="M-73.65 -4.0 L-73.65 -4.05 -73.55 -4.0 -73.65 -4.0 M68.9 -5.05 L69.05 -5.3 69.2 -5.3 68.9 -5.05" fill="url(#gradient6)" fill-rule="evenodd" stroke="none"/>
    <path d="M-85.85 -202.5 L-85.6 -202.55 -85.3 -201.45 -85.85 -202.5" fill="#ffffcc" fill-rule="evenodd" stroke="none"/>
    <path d="M-80.2 -31.9 L-80.15 -30.8 -80.45 -31.0 -80.45 -31.5 -80.2 -31.9" fill="url(#gradient7)" fill-rule="evenodd" stroke="none"/>
    <path d="M76.55 193.95 Q75.45 175.45 74.95 156.75 74.85 153.3 74.35 149.55 73.25 141.55 73.65 133.5 L73.65 127.1 73.35 119.65 Q72.45 86.95 72.85 54.0 73.25 24.4 72.3 -5.0 L72.4 -5.0 72.55 -5.2 72.55 -5.4 72.55 -6.0 72.55 -9.1 72.55 -11.95 72.4 -12.15 72.2 -12.15 72.25 -12.25 72.4 -12.5 72.45 -12.7 72.5 -12.9 72.7 -13.1 72.7 -13.3 72.8 -13.5 73.0 -13.75 73.15 -13.95 73.15 -14.15 73.1 -14.15 73.2 -14.25 73.2 -14.35 73.2 -14.55 73.45 -14.95 73.7 -15.3 74.1 -16.35 74.25 -16.65 74.6 -17.35 74.7 -17.55 74.7 -17.5 74.7 -16.25 74.7 -15.0 74.75 -14.8 74.8 -14.6 74.9 -14.4 74.95 -14.2 74.95 -13.4 74.9 -12.35 Q74.85 -11.9 75.05 -11.5 L75.05 -11.15 75.1 -10.95 75.2 -10.75 75.2 -10.7 75.15 -9.7 75.25 -9.1 75.3 -9.0 75.25 -8.65 75.15 -8.55 75.0 -8.5 74.95 -8.5 75.7 35.25 74.7 36.25 Q74.7 50.6 75.25 64.75 75.7 77.15 75.5 89.5 L75.5 106.0 Q75.7 117.65 76.85 129.25 78.1 142.05 77.8 155.0 L77.9 155.75 78.3 158.45 79.25 186.0 79.35 188.3 80.5 216.7 80.75 216.7 81.1 217.1 81.1 217.85 81.1 218.6 81.1 219.0 80.7 219.75 Q80.3 220.45 79.5 220.75 L79.25 220.65 79.1 220.75 78.35 221.5 78.2 221.65 78.1 221.7 77.7 221.85 76.95 222.05 76.75 222.2 76.6 222.25 75.7 222.95 74.75 223.45 73.75 223.4 61.5 229.3 59.95 229.0 48.2 233.25 Q26.45 244.8 2.95 252.05 L-0.2 253.05 -2.25 253.25 Q-12.1 252.25 -21.5 248.2 -24.25 246.9 -27.15 245.95 -42.85 240.4 -58.2 234.3 L-64.0 231.6 -79.5 225.55 -81.4 224.5 -81.75 224.3 -82.35 224.2 -82.4 224.15 -82.75 223.8 -83.0 223.8 -83.35 223.8 -83.35 223.05 -83.5 221.9 -83.55 221.7 -83.65 221.55 -83.65 221.5 -83.9 219.6 -83.8 218.1 Q-83.75 217.3 -84.2 216.65 L-84.8 211.5 -80.8 90.0 Q-78.75 82.6 -78.9 74.55 L-78.85 72.95 -77.9 58.0 Q-77.0 42.1 -76.6 26.25 -76.2 10.5 -76.8 -5.35 L-76.75 -5.3 -76.65 -5.2 -76.65 -5.6 -76.65 -7.75 -76.65 -8.6 -76.65 -9.4 -76.45 -9.7 -76.3 -9.55 -75.75 -9.15 -75.4 -8.75 -75.4 -8.35 -75.3 -8.05 -75.15 -7.75 -75.25 -5.85 Q-75.35 -4.75 -74.85 -3.75 L-74.85 -3.25 -74.95 -3.35 -74.9 -3.0 -75.25 2.75 -75.4 12.05 -75.0 16.1 -75.0 18.8 -75.15 22.6 -75.0 24.55 -75.0 30.6 Q-74.95 33.2 -74.45 34.15 L-74.55 37.8 -74.5 39.2 -74.4 39.5 Q-76.1 57.65 -76.45 76.25 L-76.55 78.05 -77.7 94.3 Q-78.95 113.55 -79.05 133.25 -79.05 134.75 -79.3 136.25 -80.25 142.5 -80.15 149.0 -79.8 168.25 -81.05 187.4 -82.15 204.35 -81.8 221.25 L-81.75 221.25 -81.45 221.4 -63.1 228.65 -56.1 231.7 -1.2 251.7 72.95 220.55 73.2 220.25 74.65 219.65 75.95 218.3 76.0 218.55 76.3 218.4 76.95 218.15 76.95 218.0 77.55 218.05 77.7 217.9 76.55 193.95 M80.75 224.6 L81.2 225.05 80.85 225.75 79.5 227.4 78.95 228.1 Q76.65 229.1 74.45 230.3 L71.2 231.9 70.45 232.6 69.45 233.4 68.3 233.2 67.95 232.95 45.2 245.45 37.85 248.2 36.65 247.8 Q19.5 258.65 -1.4 266.3 L-16.8 262.2 -37.65 252.3 -39.45 252.5 -40.35 252.35 -41.3 251.8 -41.6 251.6 Q-41.75 251.45 -41.9 251.45 L-46.05 247.75 -48.15 248.3 -59.55 243.25 -82.2 229.45 -79.55 228.25 -60.3 238.25 -58.2 238.0 -26.8 251.25 -2.9 260.35 Q8.35 258.4 18.6 252.65 23.6 249.8 28.9 247.35 39.3 242.6 49.45 237.35 L70.95 228.65 73.25 227.35 74.95 226.6 75.8 225.9 76.0 225.95 76.5 225.7 77.5 225.45 77.85 225.3 79.0 224.7 79.75 224.3 79.8 224.25 79.85 224.4 80.7 224.55 80.75 224.6" fill="url(#gradient8)" fill-rule="evenodd" stroke="none"/>
  </g>
  <defs>
    <linearGradient gradientTransform="matrix(0.0, 0.2205, -0.1095, 0.0, 6.6, 63.05)" gradientUnits="userSpaceOnUse" id="gradient0" spreadMethod="pad" x1="-819.2" x2="819.2">
      <stop offset="0.0" stop-color="#990000"/>
      <stop offset="1.0" stop-color="#690000"/>
    </linearGradient>
    <linearGradient gradientTransform="matrix(0.0, 0.202, -0.1095, 0.0, 6.6, 39.55)" gradientUnits="userSpaceOnUse" id="gradient1" spreadMethod="pad" x1="-819.2" x2="819.2">
      <stop offset="0.0" stop-color="#990000"/>
      <stop offset="1.0" stop-color="#690000"/>
    </linearGradient>
    <linearGradient gradientTransform="matrix(0.0, 0.2205, -0.1456, 0.0, 7.75, 124.05)" gradientUnits="userSpaceOnUse" id="gradient2" spreadMethod="pad" x1="-819.2" x2="819.2">
      <stop offset="0.0" stop-color="#990000"/>
      <stop offset="1.0" stop-color="#690000"/>
    </linearGradient>
    <linearGradient gradientTransform="matrix(0.0, 0.1882, -0.1456, 0.0, 7.75, 126.65)" gradientUnits="userSpaceOnUse" id="gradient3" spreadMethod="pad" x1="-819.2" x2="819.2">
      <stop offset="0.0" stop-color="#990000"/>
      <stop offset="1.0" stop-color="#690000"/>
    </linearGradient>
    <linearGradient gradientTransform="matrix(0.0, 0.2205, -0.1456, 0.0, 7.75, 152.25)" gradientUnits="userSpaceOnUse" id="gradient4" spreadMethod="pad" x1="-819.2" x2="819.2">
      <stop offset="0.0" stop-color="#990000"/>
      <stop offset="1.0" stop-color="#690000"/>
    </linearGradient>
    <linearGradient gradientTransform="matrix(0.0, 0.202, -0.1456, 0.0, 7.75, 128.75)" gradientUnits="userSpaceOnUse" id="gradient5" spreadMethod="pad" x1="-819.2" x2="819.2">
      <stop offset="0.0" stop-color="#990000"/>
      <stop offset="1.0" stop-color="#690000"/>
    </linearGradient>
    <linearGradient gradientTransform="matrix(0.0, 0.202, -0.1095, 0.0, 6.6, 67.75)" gradientUnits="userSpaceOnUse" id="gradient6" spreadMethod="pad" x1="-819.2" x2="819.2">
      <stop offset="0.0" stop-color="#990000"/>
      <stop offset="1.0" stop-color="#690000"/>
    </linearGradient>
    <linearGradient gradientTransform="matrix(0.0, 0.202, -0.1456, 0.0, 7.75, 100.55)" gradientUnits="userSpaceOnUse" id="gradient7" spreadMethod="pad" x1="-819.2" x2="819.2">
      <stop offset="0.0" stop-color="#990000"/>
      <stop offset="1.0" stop-color="#690000"/>
    </linearGradient>
    <linearGradient gradientTransform="matrix(0.0021, -0.1, 0.0359, 9.0E-4, -39.7, 211.4)" gradientUnits="userSpaceOnUse" id="gradient8" spreadMethod="pad" x1="-819.2" x2="819.2">
      <stop offset="0.0" stop-color="#8e3600"/>
      <stop offset="1.0" stop-color="#ff9900"/>
    </linearGradient>
  </defs>
</svg>
