<?xml version="1.0" encoding="UTF-8" standalone="no"?>
<svg xmlns:ffdec="https://www.free-decompiler.com/flash" xmlns:xlink="http://www.w3.org/1999/xlink" ffdec:objectType="shape" height="40.75px" width="40.8px" xmlns="http://www.w3.org/2000/svg">
  <g transform="matrix(1.0, 0.0, 0.0, 1.0, 20.4, 20.35)">
    <path d="M2.15 -20.2 L6.05 -19.8 Q8.65 -18.9 9.75 -18.2 L10.0 -18.0 15.0 -13.7 18.55 -8.7 20.35 -0.25 20.4 1.6 19.65 7.4 15.55 15.05 14.7 16.15 Q14.25 16.35 13.55 16.85 L12.15 17.95 10.6 19.1 8.65 19.7 4.15 20.4 2.65 20.4 1.35 20.4 0.65 20.3 0.0 20.25 -0.35 20.25 -6.95 18.3 -0.35 20.25 Q-3.85 19.8 -6.95 18.3 L-10.9 16.0 -12.55 14.75 -14.0 13.35 -15.35 11.85 -17.5 8.75 Q-19.8 4.85 -20.4 0.15 L-17.3 -10.4 -3.25 -20.2 2.15 -20.2 M-17.5 8.75 L-20.4 0.15 -17.5 8.75" fill="url(#gradient0)" fill-rule="evenodd" stroke="none"/>
  </g>
  <defs>
    <radialGradient cx="0" cy="0" fx="-230.4" fy="0" gradientTransform="matrix(-0.0297, 0.0331, -0.0331, -0.0297, -5.85, 5.15)" gradientUnits="userSpaceOnUse" id="gradient0" r="819.2" spreadMethod="pad">
      <stop offset="0.0" stop-color="#f9f7e2"/>
      <stop offset="1.0" stop-color="#f9f074" stop-opacity="0.007843138"/>
    </radialGradient>
  </defs>
</svg>
