<?xml version="1.0" encoding="UTF-8" standalone="no"?>
<svg xmlns:ffdec="https://www.free-decompiler.com/flash" xmlns:xlink="http://www.w3.org/1999/xlink" ffdec:objectType="shape" height="32.9px" width="33.75px" xmlns="http://www.w3.org/2000/svg">
  <g transform="matrix(1.0, 0.0, 0.0, 1.0, 19.15, 19.2)">
    <path d="M-12.45 1.05 L-12.55 1.05 -12.45 0.95 -12.55 0.85 -12.6 0.95 -12.75 0.85 -13.15 0.3 -15.7 -2.25 -16.1 -2.65 -16.25 -2.8 -16.8 -3.4 -18.5 -5.25 -18.55 -5.35 -18.75 -5.65 -18.8 -5.8 -18.9 -6.1 -18.95 -6.25 -19.15 -6.85 Q-19.15 -7.7 -18.2 -8.05 L-18.2 -8.15 -17.2 -8.5 -15.7 -8.8 -15.6 -8.8 -15.3 -8.8 -13.2 -9.05 -12.65 -9.1 -12.05 -9.15 -11.85 -9.15 -10.85 -9.2 -10.8 -9.2 -10.65 -9.2 -10.5 -9.2 -10.45 -9.25 -9.85 -9.45 -9.3 -9.45 -9.1 -9.45 -9.1 -9.5 -8.4 -9.6 -8.05 -10.2 -6.5 -13.3 Q-4.35 -17.5 -3.4 -18.65 L-3.25 -18.65 -3.05 -19.05 -2.6 -19.15 -2.35 -19.2 -1.65 -19.2 -1.45 -19.1 -1.3 -18.85 0.1 -17.0 2.15 -13.1 2.2 -12.9 2.25 -12.8 3.75 -9.9 3.95 -9.9 5.2 -9.65 6.6 -9.45 9.5 -8.85 9.5 -8.9 11.5 -8.55 11.6 -8.55 12.1 -8.45 12.15 -8.45 12.2 -8.4 12.7 -8.3 12.65 -8.3 Q13.85 -7.95 14.25 -7.55 14.6 -7.25 14.6 -6.6 14.6 -6.15 14.25 -5.75 L14.2 -5.65 14.15 -5.6 13.85 -5.05 13.05 -4.1 12.3 -3.05 10.7 -1.3 10.6 -1.15 9.9 -0.45 9.55 -0.1 9.55 -0.05 9.5 0.05 9.4 0.15 9.2 0.3 8.95 0.55 7.9 1.7 7.8 1.7 7.8 1.8 7.9 2.1 8.05 3.75 8.1 3.9 8.15 4.15 8.35 4.75 8.55 5.65 8.55 5.7 9.2 8.1 9.5 10.05 10.0 12.0 10.0 12.35 10.0 12.9 10.0 13.0 10.0 13.1 9.9 13.1 9.8 13.4 9.25 13.7 9.1 13.7 8.95 13.7 8.8 13.7 8.55 13.7 8.35 13.7 7.95 13.55 7.8 13.5 Q5.45 12.65 1.55 10.8 L1.2 10.65 -0.5 9.9 -1.9 9.3 -2.35 9.2 -3.2 9.55 -6.65 11.0 -9.5 12.15 -12.25 13.05 -13.2 13.35 -13.35 13.35 -13.85 13.35 -14.1 13.35 -14.85 13.0 -15.0 12.75 -15.05 12.25 -15.0 11.95 -15.0 11.75 -14.5 8.75 -14.45 8.75 -13.8 6.0 -13.1 3.35 -13.1 3.05 -13.1 2.95 -12.75 1.4 -12.7 1.4 -12.65 1.2 -12.45 1.05 -12.4 1.15 -12.4 1.1 -12.45 1.05 M12.75 -6.25 L12.75 -6.45 11.9 -6.6 10.55 -6.85 10.25 -6.85 10.25 -6.95 5.95 -7.65 5.65 -7.7 4.6 -7.9 4.5 -7.9 4.25 -7.9 3.0 -8.05 2.9 -8.05 2.5 -8.45 2.5 -8.55 2.3 -8.8 2.05 -9.55 1.35 -11.0 1.15 -11.35 1.05 -11.6 0.85 -11.9 0.25 -13.1 -0.1 -14.05 -1.8 -17.25 -1.9 -17.35 -1.9 -17.4 -2.0 -17.55 -2.3 -17.55 -2.4 -17.3 -2.6 -17.15 -2.6 -17.0 -2.65 -17.0 -4.3 -13.9 -4.5 -13.55 -4.75 -13.15 -5.65 -11.5 -6.4 -9.85 -6.8 -9.1 -6.7 -9.1 -7.0 -8.55 -7.25 -8.05 -7.3 -8.05 -7.45 -8.0 -8.35 -7.9 -9.0 -7.75 -9.15 -7.75 -10.3 -7.65 -13.85 -7.2 -14.6 -7.15 -14.65 -7.05 -14.75 -7.05 -15.0 -7.0 -15.3 -7.0 -16.05 -6.85 -16.2 -6.85 -16.5 -6.75 -17.3 -6.55 -17.15 -6.45 -16.9 -6.1 -16.85 -6.1 -16.55 -5.5 -16.5 -5.5 -16.2 -5.2 -15.5 -4.25 -14.35 -3.1 -14.15 -2.95 -13.8 -2.65 -13.15 -1.85 -12.45 -1.4 -11.95 -0.7 -11.65 -0.45 -10.8 0.65 -10.75 0.65 -10.7 0.7 -10.5 0.75 -10.45 0.85 -10.5 0.85 -10.9 2.25 -11.6 5.0 -12.4 7.55 -13.05 10.45 -13.3 11.1 Q-13.1 11.3 -13.05 11.6 L-11.0 10.7 -7.05 9.15 Q-3.95 7.8 -2.5 7.05 L-0.8 7.95 2.4 9.3 5.8 10.9 8.0 11.95 8.15 11.95 8.15 11.9 8.25 11.9 8.4 11.65 8.35 11.45 6.75 5.1 6.75 5.0 6.5 3.55 6.15 2.1 5.95 0.95 6.0 0.95 9.5 -2.55 10.85 -3.9 11.95 -5.05 12.2 -5.35 12.55 -5.85 12.75 -6.1 12.75 -6.2 12.75 -6.25 M-12.4 0.9 L-12.4 0.7 -12.45 0.85 -12.45 0.9 -12.4 0.9" fill="#001b31" fill-rule="evenodd" stroke="none"/>
    <path d="M-16.85 -6.1 L-16.9 -6.1 -17.15 -6.45 -17.3 -6.55 -16.5 -6.75 -16.2 -6.85 -16.05 -6.85 -15.3 -7.0 -15.0 -7.0 -14.75 -7.05 -14.65 -7.05 -14.6 -7.15 -13.85 -7.2 -10.3 -7.65 -9.15 -7.75 -9.0 -7.75 -8.35 -7.9 -7.45 -8.0 -7.3 -8.05 -7.25 -8.05 -7.0 -8.55 -6.7 -9.1 -6.8 -9.1 -6.4 -9.85 -5.65 -11.5 -4.75 -13.15 -4.5 -13.55 -4.3 -13.9 -2.65 -17.0 -2.6 -17.0 -2.6 -17.15 -2.4 -17.3 -2.3 -17.55 -2.0 -17.55 -1.9 -17.4 -1.9 -17.35 -1.8 -17.25 -0.1 -14.05 0.25 -13.1 0.85 -11.9 1.05 -11.6 1.15 -11.35 1.35 -11.0 2.05 -9.55 2.3 -8.8 2.5 -8.55 2.5 -8.45 2.9 -8.05 3.0 -8.05 4.25 -7.9 4.5 -7.9 4.6 -7.9 5.65 -7.7 5.95 -7.65 10.25 -6.95 10.25 -6.85 10.55 -6.85 11.9 -6.6 12.75 -6.45 12.75 -6.25 12.25 -6.05 11.6 -5.8 9.4 -5.0 8.9 -4.75 8.35 -4.55 8.15 -4.55 8.1 -4.65 8.05 -4.55 8.0 -4.55 8.05 -4.6 7.7 -4.7 7.65 -4.7 7.1 -4.7 7.0 -4.85 4.9 -5.0 4.3 -5.05 3.55 -5.2 3.4 -5.2 3.0 -5.25 1.45 -5.4 1.45 -5.45 1.35 -5.45 1.2 -5.5 1.1 -5.5 -0.1 -8.65 Q-1.25 -11.5 -2.25 -12.15 -3.2 -10.2 -5.95 -5.75 L-8.75 -5.25 -10.3 -5.05 -11.05 -5.0 -11.3 -4.9 -11.55 -4.85 -12.65 -4.6 -12.6 -4.55 -12.65 -4.55 -12.65 -4.45 -12.7 -4.6 -12.8 -4.6 -12.85 -4.7 -12.8 -4.7 -13.2 -4.85 -13.3 -4.85 -16.85 -6.1 M8.35 -4.75 L8.35 -4.85 8.25 -4.7 8.35 -4.75" fill="url(#gradient0)" fill-rule="evenodd" stroke="none"/>
    <path d="M-12.6 -4.55 L-12.65 -4.6 -11.55 -4.85 -11.3 -4.9 -11.05 -5.0 -10.3 -5.05 -8.75 -5.25 -5.95 -5.75 Q-3.2 -10.2 -2.25 -12.15 -1.25 -11.5 -0.1 -8.65 L1.1 -5.5 1.2 -5.5 1.35 -5.45 1.45 -5.45 1.45 -5.4 3.0 -5.25 3.4 -5.2 3.55 -5.2 4.3 -5.05 4.9 -5.0 7.0 -4.85 7.1 -4.7 7.65 -4.7 7.7 -4.7 8.05 -4.6 8.0 -4.55 8.05 -4.55 8.05 -4.45 7.8 -4.15 7.65 -3.95 7.65 -3.9 4.95 -1.45 3.55 -0.25 3.3 0.05 4.35 3.25 5.0 5.9 5.05 6.15 5.2 6.5 5.2 6.6 5.05 6.6 5.05 6.7 4.95 6.8 3.75 6.15 1.85 5.1 1.45 4.95 1.1 4.65 1.0 4.65 -0.05 4.15 Q-0.55 3.75 -0.8 3.6 L-1.35 3.35 -1.65 3.15 -1.7 3.15 -2.2 2.95 -2.5 3.2 -3.4 3.75 -4.25 4.3 -6.2 5.4 -7.3 5.75 -8.25 6.2 -8.45 6.3 -8.75 6.55 -9.65 6.95 -9.75 6.95 -9.9 6.8 -9.7 5.9 -9.7 5.5 -9.5 4.4 -9.4 3.85 -9.4 3.7 -9.3 3.45 -9.2 3.25 -9.15 2.85 -8.7 0.8 -8.45 0.05 -8.6 0.05 -8.55 0.0 -12.25 -4.1 -12.3 -4.1 -12.45 -4.45 -12.6 -4.55" fill="url(#gradient1)" fill-rule="evenodd" stroke="none"/>
    <path d="M-16.85 -6.1 L-13.3 -4.85 -13.2 -4.85 -12.8 -4.7 -12.85 -4.7 -12.8 -4.6 -12.7 -4.6 -12.65 -4.45 -12.65 -4.55 -12.6 -4.55 -12.45 -4.45 -12.3 -4.1 -12.25 -4.1 -8.55 0.0 -8.6 0.05 -8.45 0.05 -8.7 0.8 -9.15 2.85 -9.2 3.25 -9.3 3.45 -9.4 3.7 -9.4 3.85 -9.5 4.4 -9.7 5.5 -9.7 5.9 -9.9 6.8 -9.75 6.95 -9.65 6.95 -8.75 6.55 -8.45 6.3 -8.25 6.2 -7.3 5.75 -6.2 5.4 -4.25 4.3 -3.4 3.75 -2.5 3.2 -2.2 2.95 -1.7 3.15 -1.65 3.15 -1.35 3.35 -0.8 3.6 Q-0.55 3.75 -0.05 4.15 L1.0 4.65 1.1 4.65 1.45 4.95 1.85 5.1 3.75 6.15 4.95 6.8 5.05 6.7 5.05 6.6 5.2 6.6 5.2 6.5 5.05 6.15 5.0 5.9 4.35 3.25 3.3 0.05 3.55 -0.25 4.95 -1.45 7.65 -3.9 7.65 -3.95 7.8 -4.15 8.05 -4.45 8.05 -4.55 8.1 -4.65 8.15 -4.55 8.35 -4.55 8.9 -4.75 9.4 -5.0 11.6 -5.8 12.25 -6.05 12.75 -6.25 12.75 -6.2 12.75 -6.1 12.55 -5.85 12.2 -5.35 11.95 -5.05 10.85 -3.9 9.5 -2.55 6.0 0.95 5.95 0.95 6.15 2.1 6.5 3.55 6.75 5.0 6.75 5.1 8.35 11.45 8.4 11.65 8.25 11.9 8.15 11.9 8.15 11.95 8.0 11.95 5.8 10.9 2.4 9.3 -0.8 7.95 -2.5 7.05 Q-3.95 7.8 -7.05 9.15 L-11.0 10.7 -13.05 11.6 Q-13.1 11.3 -13.3 11.1 L-13.05 10.45 -12.4 7.55 -11.6 5.0 -10.9 2.25 -10.5 0.85 -10.45 0.85 -10.5 0.75 -10.7 0.7 -10.75 0.65 -10.8 0.65 -11.65 -0.45 -11.95 -0.7 -12.45 -1.4 -13.15 -1.85 -13.8 -2.65 -14.15 -2.95 -14.35 -3.1 -15.5 -4.25 -16.2 -5.2 -16.5 -5.5 -16.55 -5.5 -16.85 -6.1 M8.35 -4.75 L8.25 -4.7 8.35 -4.85 8.35 -4.75" fill="url(#gradient2)" fill-rule="evenodd" stroke="none"/>
  </g>
  <defs>
    <linearGradient gradientTransform="matrix(0.0, 0.0088, -0.0074, 0.0, -0.95, -6.6)" gradientUnits="userSpaceOnUse" id="gradient0" spreadMethod="pad" x1="-819.2" x2="819.2">
      <stop offset="0.0" stop-color="#8eecff"/>
      <stop offset="1.0" stop-color="#38cfff"/>
    </linearGradient>
    <radialGradient cx="0" cy="0" gradientTransform="matrix(0.0132, 0.0, 0.0, 0.0132, -1.65, -2.3)" gradientUnits="userSpaceOnUse" id="gradient1" r="819.2" spreadMethod="pad">
      <stop offset="0.0" stop-color="#54e2ff"/>
      <stop offset="1.0" stop-color="#039ad7"/>
    </radialGradient>
    <linearGradient gradientTransform="matrix(-5.0E-4, -0.0129, 0.0112, -4.0E-4, -2.4, 3.85)" gradientUnits="userSpaceOnUse" id="gradient2" spreadMethod="pad" x1="-819.2" x2="819.2">
      <stop offset="0.0" stop-color="#006dcd"/>
      <stop offset="1.0" stop-color="#1597bf"/>
    </linearGradient>
  </defs>
</svg>
