<?xml version="1.0" encoding="UTF-8" standalone="no"?>
<svg xmlns:ffdec="https://www.free-decompiler.com/flash" xmlns:xlink="http://www.w3.org/1999/xlink" ffdec:objectType="shape" height="246.4px" width="130.65px" xmlns="http://www.w3.org/2000/svg">
  <g transform="matrix(1.0, 0.0, 0.0, 1.0, 68.55, 301.4)">
    <path d="M30.0 -181.65 L20.75 -186.55 Q14.4 -189.8 11.65 -191.75 L11.65 -191.3 11.4 -190.8 Q5.3 -195.15 -6.05 -202.6 -23.7 -214.2 -33.65 -223.1 -57.6 -244.55 -64.2 -272.1 -60.2 -261.55 -53.7 -252.75 -50.15 -247.85 -44.1 -241.8 L-40.4 -238.25 Q-32.4 -229.65 -22.15 -221.6 -9.85 -211.95 12.6 -198.15 36.4 -183.45 43.8 -177.95 40.5 -180.25 35.3 -182.6 L25.85 -186.75 30.0 -181.65" fill="#ffffff" fill-opacity="0.7058824" fill-rule="evenodd" stroke="none"/>
    <path d="M-64.9 -90.8 L-64.6 -90.25 -64.9 -91.25 -64.9 -90.8 M48.6 -266.7 Q34.7 -245.5 8.85 -219.75 L-17.6 -193.1 Q-33.45 -176.45 -42.85 -162.9 -49.5 -153.35 -52.15 -148.8 -56.4 -141.45 -58.0 -135.3 L-62.65 -119.5 Q-64.9 -111.85 -64.9 -106.4 L-64.45 -102.85 -64.45 -99.55 -64.3 -94.15 -62.7 -89.85 -61.35 -84.85 Q-60.85 -82.9 -59.75 -80.65 L-60.95 -82.55 -62.25 -85.0 -63.45 -87.5 -62.5 -84.9 -61.55 -82.25 -59.9 -80.7 -54.7 -75.9 Q-47.2 -69.15 -44.0 -66.75 -43.6 -66.1 -42.95 -65.75 L-43.2 -65.15 -43.15 -65.15 -39.4 -63.8 -38.2 -63.2 -38.25 -63.45 -37.3 -63.15 Q-30.65 -61.05 -24.05 -59.6 L-10.95 -57.2 Q-3.5 -55.9 -2.1 -55.0 L-10.3 -55.0 -26.85 -57.6 Q-36.8 -59.15 -43.35 -62.35 -45.55 -63.4 -50.6 -68.15 L-50.25 -68.75 -50.7 -68.25 -55.65 -73.1 -59.9 -77.5 -55.85 -65.3 Q-64.35 -74.4 -67.0 -85.6 -68.55 -92.15 -68.55 -105.05 -68.55 -134.65 -56.8 -156.8 -46.85 -175.5 -19.0 -204.6 -9.4 -214.6 3.4 -226.15 L30.9 -250.45 Q43.55 -261.65 50.1 -273.15 54.5 -280.9 62.1 -301.4 58.6 -281.9 48.6 -266.7" fill="#ffffff" fill-opacity="0.7058824" fill-rule="evenodd" stroke="none"/>
  </g>
</svg>
