<?xml version="1.0" encoding="UTF-8" standalone="no"?>
<svg xmlns:ffdec="https://www.free-decompiler.com/flash" xmlns:xlink="http://www.w3.org/1999/xlink" ffdec:objectType="shape" height="392.75px" width="138.15px" xmlns="http://www.w3.org/2000/svg">
  <g transform="matrix(1.0, 0.0, 0.0, 1.0, 67.95, 384.95)">
    <path d="M64.75 -17.9 L64.4 -20.75 63.8 -25.35 Q63.45 -27.0 61.15 -29.85 L60.55 -30.6 60.1 -31.1 Q52.1 -39.55 43.7 -43.65 37.6 -46.6 9.8 -48.65 L-21.75 -51.0 Q-51.8 -56.85 -61.05 -70.15 -65.3 -76.25 -66.8 -85.55 -67.95 -92.55 -67.95 -105.6 -67.95 -117.85 -67.1 -124.8 -65.85 -134.75 -62.15 -143.9 -53.75 -164.75 -26.0 -194.85 -14.25 -207.6 4.95 -226.0 26.35 -246.5 32.45 -252.85 45.85 -266.8 52.4 -277.55 58.35 -287.35 60.1 -296.75 L60.75 -296.6 Q60.75 -279.15 41.1 -255.1 33.65 -245.95 21.0 -232.9 L-2.1 -209.5 Q-31.75 -179.25 -45.3 -158.3 -64.95 -128.0 -64.95 -99.9 -64.95 -78.8 -46.0 -69.95 -38.4 -66.4 -26.2 -63.95 L-3.0 -60.25 Q28.65 -55.6 43.1 -48.45 L42.9 -48.2 43.0 -47.9 43.2 -47.85 47.95 -45.8 Q51.3 -44.2 54.65 -42.0 60.15 -38.5 63.45 -35.0 66.8 -31.4 68.1 -27.45 69.1 -24.55 69.15 -20.55 L69.15 -19.95 69.15 -18.35 69.05 -17.45 68.6 -14.1 67.8 -10.8 67.2 -8.3 67.25 -7.95 Q66.15 -5.2 64.4 -2.75 L64.3 -2.35 66.95 -6.75 67.15 -6.65 67.25 -6.95 68.7 -11.25 69.35 -13.35 69.55 -14.35 69.9 -14.85 70.05 -14.95 69.05 -10.2 Q67.8 -5.0 65.4 -1.4 L61.3 3.35 61.05 3.65 60.3 4.2 60.05 4.05 60.0 3.75 Q62.7 -0.75 63.9 -4.8 L64.5 -7.75 64.5 -13.05 Q64.35 -13.25 64.35 -13.5 64.35 -14.5 64.75 -13.95 L64.8 -13.85 Q65.15 -13.35 65.15 -12.55 L65.3 -10.55 65.05 -6.1 65.0 -5.25 65.4 -8.15 65.45 -13.95 65.45 -16.3 65.1 -16.2 64.75 -17.9 M63.25 -28.1 L64.2 -26.55 64.6 -25.6 64.55 -25.9 64.2 -27.15 63.6 -29.65 Q63.0 -31.15 61.95 -30.0 L62.7 -28.95 62.3 -29.4 63.25 -28.1" fill="#ffffff" fill-opacity="0.7058824" fill-rule="evenodd" stroke="none"/>
    <path d="M64.75 -17.9 L65.1 -16.2 65.45 -16.3 65.45 -13.95 65.4 -8.15 65.0 -5.25 65.05 -6.1 65.3 -10.55 65.15 -12.55 Q65.15 -13.35 64.8 -13.85 L64.75 -17.9 M69.9 -14.85 L69.55 -14.35 69.35 -13.35 68.7 -11.25 67.25 -6.95 67.15 -6.65 66.95 -6.75 64.3 -2.35 64.4 -2.75 Q66.15 -5.2 67.25 -7.95 L67.2 -8.3 67.8 -10.8 68.6 -14.1 69.05 -17.45 69.15 -18.35 69.15 -19.95 69.15 -20.55 Q69.1 -24.55 68.1 -27.45 66.8 -31.4 63.45 -35.0 60.15 -38.5 54.65 -42.0 51.3 -44.2 47.95 -45.8 L43.2 -47.85 43.0 -47.9 42.9 -48.2 43.1 -48.45 43.2 -48.5 Q48.85 -46.5 55.35 -42.35 61.25 -38.55 63.9 -35.6 67.4 -31.75 68.8 -27.7 69.9 -24.45 69.9 -19.95 L69.9 -19.55 70.1 -19.65 70.2 -19.15 70.0 -15.6 69.9 -14.85 M62.7 -28.95 L61.95 -30.0 Q63.0 -31.15 63.6 -29.65 L64.2 -27.15 64.55 -25.9 64.6 -25.6 64.2 -26.55 63.25 -28.1 62.7 -28.95" fill="#f3dada" fill-rule="evenodd" stroke="none"/>
    <path d="M60.7 -163.15 Q64.65 -156.4 64.65 -144.9 64.65 -137.45 64.15 -131.1 L63.15 -130.95 Q60.25 -147.6 45.45 -163.15 30.45 -178.95 -6.75 -201.4 -42.05 -222.65 -56.3 -246.05 -67.65 -264.75 -67.9 -289.8 L-67.0 -289.85 Q-66.65 -276.9 -62.85 -266.85 -52.85 -240.4 -9.5 -210.7 3.7 -201.65 21.65 -192.85 37.45 -185.1 44.4 -179.55 56.75 -169.85 60.7 -163.15" fill="#ffffff" fill-opacity="0.7058824" fill-rule="evenodd" stroke="none"/>
    <path d="M0.55 -251.75 Q0.15 -256.05 -1.5 -264.65 L-3.1 -270.2 -4.3 -273.75 Q-5.35 -298.4 -6.45 -318.15 -8.2 -349.5 -10.15 -368.3 L7.0 -368.3 7.0 -261.25 5.5 -246.2 Q4.85 -239.65 4.1 -235.35 3.0 -240.85 0.7 -249.3 L0.55 -251.75 M-34.95 -368.3 L-24.05 -368.3 Q-28.3 -340.1 -29.4 -293.5 L-29.75 -273.75 -29.85 -272.9 -30.4 -272.75 -30.4 -268.4 -30.25 -268.4 -30.05 -268.9 -30.25 -265.05 Q-30.65 -263.35 -30.65 -261.95 L-30.65 -261.8 -32.85 -249.65 -34.15 -241.45 -35.85 -248.55 -35.9 -252.55 Q-35.9 -261.35 -34.95 -265.85 L-34.95 -368.3 M-31.35 -262.45 Q-30.85 -262.85 -30.65 -263.6 -30.55 -264.3 -30.95 -264.55 L-30.95 -264.3 Q-31.35 -264.0 -31.35 -262.45" fill="#ffffff" fill-opacity="0.49803922" fill-rule="evenodd" stroke="none"/>
    <path d="M24.75 -384.95 L27.25 -384.95 27.2 -280.75 27.1 -257.6 34.5 -258.3 34.9 -254.75 Q36.5 -250.0 37.2 -243.45 L38.25 -231.1 39.55 -219.1 Q40.25 -211.75 40.25 -206.9 40.25 -204.8 39.85 -204.15 39.5 -203.6 38.2 -203.3 32.6 -202.0 27.75 -199.25 L27.75 -175.6 26.25 -155.35 26.25 -131.35 Q25.75 -128.35 25.75 -121.8 L25.8 -113.0 28.75 -113.0 36.0 -114.25 Q39.25 -112.55 39.25 -105.6 L39.35 -102.5 Q39.3 -101.5 38.4 -100.8 L25.3 -93.85 Q26.4 -93.4 26.65 -92.75 L26.75 -91.8 Q26.75 -91.0 25.75 -87.3 L24.75 -83.35 Q24.75 -78.1 24.25 -75.5 L24.05 -74.85 Q26.9 -74.85 29.15 -75.8 31.4 -76.75 36.25 -76.75 41.95 -76.75 42.75 -71.45 42.65 -65.05 43.25 -62.75 L43.25 -56.35 42.0 -55.75 Q41.25 -56.6 40.9 -59.75 L40.4 -65.9 Q39.55 -74.0 36.0 -74.0 L28.4 -73.5 Q27.05 -72.75 25.5 -72.25 L22.5 -72.25 Q21.85 -72.9 21.5 -73.7 L21.25 -74.55 Q21.25 -76.15 22.4 -82.85 23.6 -89.75 24.25 -91.5 L21.4 -93.05 Q20.75 -93.35 20.75 -93.65 20.75 -95.25 24.3 -96.95 L32.25 -100.25 Q35.45 -101.6 36.35 -103.4 36.75 -104.2 36.75 -106.3 L36.75 -109.1 Q36.55 -111.6 35.55 -111.6 L27.25 -110.25 Q23.9 -110.25 23.25 -115.85 22.9 -118.7 23.25 -121.5 23.25 -128.6 23.75 -132.0 L23.75 -156.0 25.25 -176.6 25.25 -201.0 32.2 -203.8 Q37.75 -205.9 37.75 -207.35 37.75 -210.6 36.1 -228.2 34.35 -247.15 33.25 -253.1 L27.05 -253.2 27.05 -253.1 26.0 -252.75 Q25.15 -253.6 24.8 -254.75 24.55 -257.6 24.55 -260.95 L24.75 -275.05 24.7 -280.75 24.7 -292.55 24.75 -312.95 24.75 -384.95 M11.75 -77.65 Q10.75 -74.6 10.75 -72.9 L11.75 -51.55 11.25 -48.9 Q10.75 -46.9 10.75 -46.3 10.75 -45.6 10.9 -45.45 L11.05 -45.0 15.55 -45.0 18.85 -45.75 22.5 -46.75 28.5 -46.75 Q30.8 -44.55 32.0 -36.15 32.75 -30.75 32.75 -27.0 32.75 -24.7 27.65 -21.3 L22.55 -17.65 23.75 -12.8 Q24.5 -9.7 22.75 -8.1 L22.75 7.8 22.4 6.9 20.8 3.0 20.25 1.45 20.25 -9.0 Q21.05 -11.55 20.5 -13.85 19.75 -17.1 19.75 -17.6 19.75 -19.5 25.0 -22.5 30.25 -25.5 30.25 -27.15 30.25 -28.95 29.3 -36.15 L28.05 -44.1 Q21.55 -44.2 18.8 -43.25 16.0 -42.25 13.25 -42.25 8.25 -42.25 8.25 -46.35 8.25 -46.95 8.75 -48.7 L9.25 -51.05 8.25 -73.0 Q8.25 -75.9 8.4 -76.5 8.55 -77.3 10.05 -80.85 8.1 -82.45 4.65 -82.45 1.5 -82.45 -0.45 -84.75 -0.95 -85.35 -1.5 -87.15 L-2.25 -89.6 -2.25 -175.5 -2.75 -179.25 -2.75 -214.85 Q-3.25 -221.6 -3.25 -234.9 L-3.15 -245.15 -2.95 -254.75 -2.75 -276.8 -2.7 -280.75 -1.85 -384.95 0.6 -384.95 -0.1 -280.75 -0.35 -254.75 -0.75 -234.8 Q-0.75 -221.85 -0.25 -215.5 L-0.25 -179.85 0.25 -176.1 0.25 -90.25 1.05 -87.85 Q1.7 -86.1 2.75 -85.0 9.65 -85.15 11.8 -83.4 12.75 -82.65 12.75 -81.15 L11.75 -77.65 M-26.75 -384.95 L-24.25 -384.95 -24.25 -227.0 -23.75 -223.6 -23.75 -131.0 -24.2 -119.85 -24.25 -112.25 -24.2 -103.6 Q-24.1 -98.3 -23.5 -95.25 L-19.9 -97.05 Q-17.05 -98.35 -14.0 -98.75 -13.05 -97.7 -12.85 -95.3 L-12.75 -91.75 Q-12.75 -84.45 -14.05 -82.6 L-16.35 -79.65 Q-18.25 -77.05 -20.25 -73.0 -8.35 -70.6 -6.75 -63.8 -6.3 -61.9 -6.5 -57.9 -6.7 -54.0 -6.25 -52.25 -5.7 -50.05 -5.9 -46.65 L-6.25 -41.0 Q-6.25 -38.7 -5.5 -35.1 -4.75 -31.5 -4.75 -29.9 L-4.85 -28.6 -5.05 -28.4 -6.0 -28.25 Q-8.2 -28.25 -8.55 -37.45 L-8.75 -51.35 Q-8.8 -53.05 -9.5 -57.15 L-10.25 -63.0 Q-10.4 -67.2 -16.6 -68.9 -19.95 -69.8 -20.85 -70.25 -22.75 -71.25 -22.75 -73.1 -22.75 -75.8 -19.55 -79.65 -15.95 -84.05 -15.25 -86.6 L-15.25 -96.0 Q-17.35 -96.05 -20.3 -94.15 -23.3 -92.25 -24.5 -92.25 -26.35 -92.25 -26.6 -93.15 L-26.75 -95.1 -26.75 -129.6 Q-26.25 -145.35 -26.25 -177.4 L-26.3 -196.3 Q-26.45 -216.25 -26.75 -226.35 L-26.75 -384.95 M-42.0 -384.95 L-41.55 -343.4 -41.25 -305.2 -41.3 -280.75 -41.65 -254.75 -42.25 -245.85 Q-43.25 -231.55 -43.25 -225.05 L-43.1 -218.35 -36.5 -220.25 -33.5 -220.25 Q-32.2 -219.95 -31.85 -217.05 L-31.75 -212.85 Q-31.75 -207.0 -33.5 -205.85 -34.45 -205.25 -44.55 -203.3 L-55.6 -201.1 Q-53.75 -193.55 -53.75 -186.5 -53.75 -177.6 -55.0 -169.85 -56.25 -162.05 -56.25 -149.75 -55.75 -141.1 -55.75 -137.0 -53.3 -137.8 -48.75 -139.55 L-43.0 -141.75 -40.5 -141.75 Q-39.45 -140.7 -37.6 -134.35 -35.75 -127.95 -35.75 -125.35 -35.75 -122.45 -40.65 -117.55 -45.6 -113.05 -45.6 -112.6 -45.6 -111.35 -44.55 -108.2 -43.4 -104.9 -43.25 -101.75 L-42.8 -96.45 -42.35 -90.85 -41.25 -69.3 Q-41.25 -67.95 -48.0 -63.5 -54.75 -59.0 -54.75 -55.5 -54.75 -53.65 -54.0 -49.85 -53.25 -46.05 -53.25 -44.4 -53.25 -41.85 -54.8 -40.45 L-59.35 -36.85 Q-60.3 -35.95 -61.2 -33.25 -62.05 -30.7 -63.5 -29.75 -64.25 -30.0 -64.4 -30.15 -64.75 -30.45 -64.75 -31.3 -64.75 -35.05 -60.25 -39.55 -55.75 -44.05 -55.75 -44.8 -55.75 -46.3 -56.5 -50.45 L-57.25 -55.5 Q-57.25 -59.6 -50.55 -64.5 L-43.85 -69.35 Q-43.85 -80.05 -45.25 -91.1 -45.6 -94.4 -45.75 -102.0 -45.9 -104.5 -47.1 -107.9 -48.25 -111.1 -48.25 -112.85 -48.25 -113.55 -43.25 -118.5 -38.25 -123.45 -38.25 -125.3 -38.25 -126.65 -39.75 -132.65 -41.35 -139.0 -42.05 -139.0 -43.9 -139.0 -49.8 -136.7 -55.9 -134.35 -57.0 -134.25 -58.25 -137.7 -58.6 -142.25 L-58.75 -149.65 Q-58.75 -163.25 -57.5 -170.6 -56.25 -177.9 -56.25 -186.6 -56.25 -190.95 -57.5 -196.25 L-58.75 -201.4 Q-58.75 -202.9 -55.55 -203.9 -52.3 -204.95 -42.35 -206.5 -35.45 -207.5 -34.75 -208.1 -34.25 -208.5 -34.25 -212.65 L-34.35 -217.35 -34.1 -217.45 -34.75 -217.6 Q-38.55 -217.6 -41.4 -216.15 L-44.25 -214.75 -45.6 -215.0 -45.75 -224.15 Q-45.75 -231.55 -44.75 -245.8 L-44.15 -254.75 -43.8 -280.75 -43.75 -305.45 -44.05 -342.1 -44.55 -384.95 -42.0 -384.95" fill="#ffffff" fill-opacity="0.49803922" fill-rule="evenodd" stroke="none"/>
  </g>
</svg>
