<?xml version="1.0" encoding="UTF-8" standalone="no"?>
<svg xmlns:ffdec="https://www.free-decompiler.com/flash" xmlns:xlink="http://www.w3.org/1999/xlink" ffdec:objectType="shape" height="394.45px" width="147.15px" xmlns="http://www.w3.org/2000/svg">
  <g transform="matrix(1.0, 0.0, 0.0, 1.0, 76.8, 382.3)">
    <path d="M57.45 -118.95 Q49.55 -101.95 28.1 -88.25 15.55 -80.3 -14.65 -67.05 L-22.9 -63.35 -21.6 -63.05 0.8 -58.0 Q6.55 -56.55 23.5 -54.45 37.4 -52.75 45.9 -49.35 58.0 -44.55 64.05 -37.15 69.35 -30.65 70.2 -21.9 L70.35 -18.5 Q70.35 -8.2 63.5 2.7 L61.6 5.5 Q60.1 5.8 57.9 7.65 52.95 11.85 50.85 11.85 L47.9 11.75 43.2 11.45 43.2 11.3 Q48.05 10.55 52.35 7.45 55.25 5.4 60.9 -0.3 L60.8 -0.65 60.95 -0.95 Q64.6 -8.9 64.6 -19.9 L64.55 -21.9 Q63.35 -35.55 46.35 -43.6 30.3 -51.25 7.25 -51.25 -0.9 -51.25 -21.95 -55.8 L-33.4 -58.35 Q-46.5 -51.85 -53.0 -47.1 -68.25 -35.85 -69.5 -21.9 L-69.65 -19.35 -69.35 -13.0 -70.7 -12.25 -71.6 -11.45 -72.5 -10.55 -73.7 -8.25 -74.4 -7.2 -74.7 -6.75 -74.85 -6.95 -75.45 -8.3 -75.9 -9.45 -76.55 -12.05 -76.8 -13.75 Q-76.75 -17.9 -75.95 -21.9 -75.05 -26.8 -73.15 -31.6 L-71.7 -34.8 -70.1 -37.75 Q-67.6 -41.1 -64.2 -44.35 -55.7 -52.5 -41.4 -60.4 L-47.55 -62.3 Q-57.1 -65.8 -63.2 -78.55 -68.65 -89.95 -68.65 -102.15 -68.65 -113.05 -67.1 -121.05 -65.6 -128.85 -61.0 -142.4 L-58.55 -150.5 Q-57.15 -155.35 -55.85 -158.35 -54.6 -161.25 -52.8 -164.0 L-32.35 -183.0 -22.85 -191.6 Q-37.8 -177.05 -50.05 -152.15 -64.35 -123.05 -64.35 -103.1 -64.35 -79.55 -42.65 -69.65 -38.0 -67.5 -31.35 -65.55 -23.95 -69.1 -8.45 -75.9 6.7 -82.55 13.75 -86.3 27.1 -93.4 41.55 -105.0 49.8 -111.6 57.45 -118.95 M6.75 -11.7 Q5.25 -12.25 2.25 -11.1 -1.0 -9.6 -2.1 -9.2 -4.45 -8.3 -7.0 -5.75 -9.5 -3.25 -11.15 -0.3 -12.6 2.3 -14.95 4.6 -11.0 8.7 -8.3 10.0 -6.05 11.1 -1.95 11.15 L-1.1 11.15 -0.8 11.3 -5.25 12.15 Q-11.45 12.15 -17.7 8.0 L-18.45 7.5 -19.25 8.0 Q-25.5 12.15 -31.7 12.15 -33.4 12.15 -36.15 11.3 -35.85 11.3 -35.85 11.15 L-35.0 11.15 Q-30.9 11.1 -28.65 10.0 -25.95 8.7 -22.0 4.6 -24.35 2.3 -25.8 -0.3 -27.45 -3.25 -29.95 -5.75 -32.5 -8.3 -34.85 -9.2 -35.95 -9.6 -39.2 -11.1 -42.2 -12.25 -43.7 -11.7 -43.65 -12.25 -42.8 -12.8 -41.75 -13.4 -40.35 -13.4 -33.55 -13.4 -29.5 -10.35 -27.3 -8.7 -18.45 0.8 -9.65 -8.7 -7.45 -10.35 -3.4 -13.4 3.4 -13.4 4.8 -13.4 5.85 -12.8 6.7 -12.25 6.75 -11.7" fill="#ffffff" fill-opacity="0.7058824" fill-rule="evenodd" stroke="none"/>
    <path d="M25.0 -382.3 L55.4 -382.3 55.4 -177.55 54.3 -162.5 53.25 -151.65 Q52.15 -159.3 49.25 -172.7 L46.8 -183.8 45.2 -193.35 Q44.25 -193.9 42.5 -195.95 L40.25 -198.7 Q34.1 -198.7 32.85 -197.45 L32.2 -196.65 32.0 -196.45 31.55 -195.5 Q30.15 -192.1 28.9 -185.9 27.6 -181.3 27.6 -178.2 L26.0 -165.95 Q24.65 -155.35 24.6 -152.15 L24.5 -152.25 Q23.75 -157.5 23.75 -168.85 23.75 -177.65 24.45 -182.15 L24.45 -206.4 Q24.5 -206.9 25.05 -207.5 24.95 -213.05 25.15 -222.85 L25.15 -227.05 25.05 -229.9 Q25.0 -235.6 25.1 -239.0 L25.15 -244.75 25.1 -266.75 24.95 -358.5 25.0 -382.3 M27.8 -189.05 L27.8 -184.7 27.9 -184.7 29.0 -189.2 28.45 -189.3 27.8 -189.05 M27.1 -178.75 Q27.45 -179.15 27.6 -179.9 27.7 -180.6 27.4 -180.85 L27.4 -180.6 Q27.1 -180.3 27.1 -178.75 M5.5 -65.75 Q4.85 -59.2 4.1 -54.9 3.0 -60.4 0.7 -68.85 L0.55 -71.3 Q0.15 -75.6 -1.5 -84.2 L-3.1 -89.75 Q-4.65 -94.7 -6.45 -98.25 -11.9 -109.15 -19.25 -106.4 -27.75 -103.2 -29.4 -95.5 L-29.85 -92.45 -30.4 -92.3 -30.4 -87.95 -30.25 -87.95 -30.05 -88.45 -30.25 -84.6 Q-30.65 -82.9 -30.65 -81.5 L-30.65 -81.35 -32.85 -69.2 -34.15 -61.0 -35.85 -68.1 -35.9 -72.1 Q-35.9 -80.9 -34.95 -85.4 L-34.95 -109.65 -34.1 -110.75 Q-34.25 -116.3 -34.0 -126.1 L-34.0 -130.3 -34.1 -133.15 -34.1 -140.0 -34.0 -174.8 Q-33.85 -199.15 -34.25 -260.75 L-34.25 -266.75 -34.0 -382.3 -29.5 -382.3 -29.5 -355.7 -29.1 -376.2 -29.1 -382.3 7.0 -382.3 7.0 -80.8 5.5 -65.75 M-61.9 -328.8 L-61.95 -343.4 -61.95 -382.3 -37.4 -382.3 -37.4 -229.35 -38.3 -214.3 Q-39.3 -198.6 -40.4 -195.75 L-42.3 -216.55 Q-44.75 -241.65 -46.45 -249.7 -49.1 -253.45 -51.3 -253.7 L-51.8 -256.3 -52.75 -253.45 Q-55.0 -252.45 -56.7 -247.3 -58.6 -241.65 -60.05 -228.45 L-61.1 -213.55 -61.85 -203.85 -62.4 -204.05 Q-63.0 -209.3 -63.0 -220.65 -63.0 -229.45 -62.45 -233.95 L-62.45 -258.2 -61.95 -259.3 -61.95 -266.75 -61.9 -307.25 -61.9 -328.8 M-58.75 -241.0 L-59.2 -241.1 -59.75 -240.85 -59.75 -236.5 -59.65 -236.5 -58.75 -241.0 M-59.9 -231.7 Q-59.8 -232.4 -60.05 -232.65 L-60.05 -232.4 -60.3 -230.55 Q-60.0 -230.95 -59.9 -231.7 M-30.65 -83.15 Q-30.55 -83.85 -30.95 -84.1 L-30.95 -83.85 Q-31.35 -83.55 -31.35 -82.0 -30.85 -82.4 -30.65 -83.15" fill="#ffffff" fill-opacity="0.49803922" fill-rule="evenodd" stroke="none"/>
    <path d="M23.25 -373.1 L23.25 -353.55 Q23.75 -344.2 23.75 -324.95 L22.8 -254.75 22.75 -253.1 Q22.75 -251.6 23.5 -245.0 24.2 -238.15 24.5 -237.75 25.4 -236.35 29.1 -234.6 L34.05 -232.0 Q37.5 -228.95 37.8 -228.1 L37.75 -224.65 37.25 -215.75 Q36.75 -209.95 36.75 -206.5 L36.9 -201.9 Q36.95 -199.2 36.25 -197.5 36.0 -196.85 26.7 -195.1 17.8 -193.4 17.8 -190.35 L19.25 -175.15 18.75 -167.25 18.25 -160.4 Q18.25 -159.5 18.4 -159.35 L19.25 -159.0 25.55 -159.0 Q34.25 -161.25 41.25 -161.25 44.6 -161.25 46.75 -143.1 L48.25 -124.8 48.25 -123.65 Q48.05 -123.25 46.75 -123.0 L29.8 -121.0 21.05 -119.8 Q17.8 -119.1 16.75 -117.5 L16.75 -103.75 31.0 -106.7 50.5 -110.25 53.0 -110.25 Q56.35 -107.6 57.85 -103.8 58.65 -101.8 59.75 -96.1 60.25 -93.3 60.3 -87.75 L60.25 -81.85 60.4 -75.35 Q60.5 -73.3 60.0 -72.9 L57.6 -72.7 51.85 -73.0 46.35 -72.6 46.5 -71.6 46.75 -69.55 Q46.75 -67.05 46.0 -62.6 45.25 -58.15 45.25 -55.85 45.25 -53.6 45.55 -52.5 L50.65 -52.8 55.0 -53.25 Q56.65 -49.3 57.05 -43.2 L57.75 -33.1 57.75 -16.5 56.1 -8.3 55.45 -5.45 55.25 -8.0 55.25 -32.35 53.75 -50.6 49.0 -49.75 44.5 -49.75 Q43.55 -50.65 43.05 -52.85 42.75 -54.3 42.75 -55.8 42.75 -57.65 43.5 -62.55 44.25 -67.5 44.25 -69.5 L43.75 -71.65 43.55 -72.25 41.55 -72.0 33.0 -70.75 Q31.0 -70.3 30.45 -69.3 L30.25 -67.9 30.75 -57.25 Q30.75 -53.35 31.25 -50.7 L31.7 -47.6 37.0 -47.75 Q38.25 -45.65 40.25 -37.45 42.25 -29.1 42.25 -25.55 42.25 -24.3 37.8 -21.3 33.3 -18.3 33.3 -16.35 33.3 -15.35 35.25 -5.55 L35.0 -4.65 33.65 0.65 Q30.75 -14.3 30.75 -16.6 30.75 -19.1 35.0 -22.5 39.25 -25.85 39.25 -27.5 39.25 -30.55 35.75 -45.1 L31.05 -45.25 Q30.45 -44.75 29.75 -44.75 L28.55 -44.85 28.3 -45.0 27.7 -58.35 Q27.25 -66.85 27.25 -71.05 27.25 -73.05 33.1 -73.85 L43.5 -74.75 Q43.75 -75.15 44.3 -75.3 44.95 -75.45 45.55 -74.9 L57.25 -75.5 Q57.25 -79.6 57.75 -88.4 57.75 -96.85 52.55 -107.6 L39.8 -105.55 30.0 -104.1 22.8 -102.4 15.75 -100.75 13.8 -101.0 13.75 -102.3 Q13.75 -114.25 14.15 -116.9 14.75 -121.0 17.45 -122.0 L26.9 -122.95 Q36.65 -123.4 45.75 -125.0 L44.05 -141.85 Q42.8 -151.3 40.75 -158.5 37.3 -157.6 29.45 -156.85 L22.25 -156.25 Q16.85 -156.25 15.75 -158.15 15.2 -159.1 15.75 -160.15 L16.75 -175.0 Q16.75 -177.9 15.25 -190.55 15.25 -193.05 19.35 -195.55 24.7 -198.75 33.55 -198.5 34.25 -202.6 34.25 -211.6 34.25 -214.05 34.75 -219.15 L35.25 -224.55 Q35.25 -226.65 33.95 -228.35 32.15 -230.75 28.25 -231.5 24.85 -232.1 23.3 -234.4 22.35 -235.75 21.75 -238.5 20.5 -243.95 20.3 -246.35 L20.25 -253.1 20.3 -254.75 21.25 -324.95 Q21.25 -342.95 20.75 -350.9 L20.75 -373.1 23.25 -373.1 M1.8 -254.75 L3.25 -250.0 Q3.25 -246.9 -1.25 -243.15 -5.75 -239.45 -5.75 -237.8 L-5.25 -235.05 -4.75 -232.35 Q-4.75 -229.75 -7.0 -229.75 -7.55 -229.75 -10.15 -231.4 L-12.6 -233.1 -13.1 -219.6 Q-13.45 -211.95 -14.25 -206.1 L-16.3 -194.0 Q-18.25 -182.2 -18.25 -179.3 -18.25 -177.75 -16.4 -177.5 -14.6 -177.25 -4.25 -177.25 -0.55 -177.25 0.7 -166.4 L1.25 -155.3 Q1.25 -149.4 -4.25 -146.1 -7.0 -144.7 -8.05 -144.2 -9.75 -143.25 -9.75 -142.5 -9.75 -140.1 -7.9 -132.1 -6.3 -125.3 -7.25 -119.6 L-7.25 -117.0 -3.95 -117.7 0.0 -118.75 5.0 -118.75 Q7.65 -114.7 7.5 -108.0 6.75 -100.4 6.75 -96.9 L7.25 -89.25 Q7.4 -86.7 9.35 -84.2 L11.25 -81.75 Q11.25 -80.7 8.25 -79.4 5.25 -78.05 1.75 -77.5 -0.05 -77.2 -0.6 -74.85 L-0.75 -72.3 Q-0.75 -68.05 -0.2 -60.0 0.3 -51.85 0.75 -49.6 L0.75 -22.6 0.8 -22.35 Q2.65 -22.75 7.9 -25.3 L13.25 -27.75 Q15.4 -27.75 16.2 -22.3 L16.75 -14.75 Q17.1 -10.4 19.0 -5.85 L20.75 -1.6 Q20.75 -0.15 17.9 0.5 12.25 1.8 9.3 2.8 L10.1 1.4 11.2 -0.25 Q14.0 -1.05 16.8 -2.35 15.05 -6.05 14.2 -13.2 13.15 -21.65 12.5 -23.85 L7.25 -21.7 Q3.8 -20.35 0.0 -19.75 L-1.75 -21.5 -1.75 -48.85 -2.6 -59.85 -3.25 -72.65 Q-3.25 -76.9 -2.55 -77.9 -0.6 -80.7 7.75 -82.25 4.6 -85.8 4.15 -90.65 3.9 -93.5 4.25 -99.1 L4.45 -107.25 Q4.55 -112.4 4.25 -116.0 L-0.25 -116.0 Q-1.65 -115.35 -2.75 -115.0 -4.75 -114.35 -8.0 -114.25 -9.9 -115.3 -9.85 -117.6 -9.85 -118.9 -9.25 -121.6 L-9.5 -125.2 -9.75 -129.1 Q-9.75 -129.9 -11.25 -136.6 L-12.75 -143.9 Q-12.75 -145.4 -10.25 -146.65 L-3.75 -150.0 Q-2.55 -150.7 -1.8 -153.5 -1.25 -155.55 -1.25 -156.9 L-1.75 -166.5 Q-1.9 -172.65 -3.8 -173.75 L-10.5 -174.25 Q-16.75 -174.25 -19.35 -176.65 -20.7 -177.8 -20.75 -179.05 -20.75 -182.4 -18.75 -194.7 -16.75 -206.95 -16.75 -208.1 -16.15 -211.95 -15.8 -225.1 -15.15 -236.25 -12.75 -236.25 -11.35 -236.25 -9.9 -234.7 -8.3 -233.05 -7.25 -232.85 -8.25 -235.85 -8.25 -238.1 -8.25 -241.65 -3.75 -244.5 0.75 -247.4 0.75 -250.1 L-0.7 -254.75 -2.5 -272.05 Q-5.75 -302.4 -5.75 -332.35 -5.75 -347.9 -5.05 -373.1 L-2.6 -373.1 Q-3.25 -349.65 -3.25 -332.55 -3.25 -306.25 0.0 -273.1 L1.8 -254.75 M-20.25 -373.1 L-20.25 -331.85 Q-18.25 -296.9 -18.25 -272.95 -18.25 -272.4 -24.75 -260.95 L-27.85 -254.75 Q-31.25 -252.65 -31.25 -251.15 -31.25 -249.0 -28.75 -243.4 -26.25 -237.75 -26.25 -234.3 -26.25 -231.35 -27.75 -227.65 -29.25 -223.95 -29.25 -222.5 -29.25 -220.85 -26.25 -214.95 -23.25 -209.05 -23.25 -202.05 -23.25 -198.2 -23.55 -197.1 -24.45 -194.05 -28.0 -193.25 -30.6 -192.7 -34.7 -189.2 -38.75 -185.75 -38.75 -184.05 L-37.75 -172.6 Q-37.75 -161.65 -39.05 -154.1 L-37.25 -155.25 Q-35.6 -155.25 -35.25 -147.2 L-35.25 -144.3 -25.5 -150.25 -22.0 -150.25 Q-18.5 -141.55 -17.0 -131.95 -15.75 -123.95 -15.75 -114.15 L-15.65 -109.75 Q-15.7 -108.0 -16.5 -106.9 -18.0 -104.95 -28.25 -99.75 -27.75 -95.6 -27.75 -87.35 L-22.6 -87.95 -19.0 -88.75 -12.5 -88.75 Q-9.9 -87.4 -8.15 -83.3 -6.75 -79.9 -6.75 -77.25 -6.75 -73.2 -9.75 -70.55 -12.3 -68.35 -19.5 -65.25 -21.3 -64.4 -24.85 -62.95 -27.85 -61.5 -30.1 -59.1 -35.25 -53.75 -35.25 -52.15 L-34.5 -47.65 Q-33.75 -43.95 -33.75 -40.15 L-34.75 -27.6 -34.7 -26.75 -34.5 -26.75 Q-32.75 -27.2 -29.75 -29.0 -27.65 -30.25 -24.5 -30.25 -19.0 -30.25 -16.25 -20.7 -15.65 -18.6 -14.5 -11.4 -14.25 -11.15 -14.25 -10.55 L-14.3 -10.35 -13.75 -6.6 -11.2 6.8 -10.9 8.2 -12.3 6.5 -14.55 3.55 -14.8 2.0 -15.75 -4.1 -16.65 -9.25 Q-19.55 -8.35 -25.75 -7.15 -38.9 -4.6 -49.75 -5.5 -50.45 -0.25 -52.9 8.15 L-56.0 10.45 -54.75 7.05 Q-54.05 4.85 -53.0 -0.8 -52.1 -5.65 -51.0 -8.25 L-28.8 -9.1 Q-22.45 -10.65 -17.05 -11.3 L-17.9 -15.9 Q-19.65 -22.65 -23.35 -27.6 -26.2 -27.95 -31.0 -25.65 L-36.0 -23.25 -37.6 -23.5 -37.65 -23.7 -37.75 -24.8 -37.0 -32.25 Q-36.25 -37.95 -36.25 -40.35 -36.25 -43.05 -37.0 -46.8 -37.75 -50.5 -37.75 -52.55 -37.75 -53.95 -35.85 -56.4 L-32.85 -59.85 Q-31.7 -61.15 -30.55 -63.0 -29.15 -64.4 -24.75 -66.0 -15.4 -69.35 -12.75 -71.1 -9.25 -73.4 -9.25 -77.15 -9.25 -78.5 -10.55 -81.9 -11.85 -85.5 -12.75 -86.0 L-19.6 -86.0 -25.5 -84.75 -28.5 -84.75 Q-30.45 -85.9 -30.45 -88.65 L-30.25 -92.85 -30.85 -97.3 -31.25 -100.75 Q-31.25 -101.35 -26.45 -103.9 L-20.5 -107.1 Q-18.8 -108.2 -18.35 -111.1 -18.15 -112.6 -18.25 -114.05 -18.25 -121.15 -19.9 -130.05 -22.2 -142.4 -22.75 -147.25 L-23.25 -147.6 Q-26.9 -147.3 -29.25 -145.75 L-33.75 -142.75 -35.25 -141.5 -35.25 -139.05 -35.15 -131.35 Q-35.2 -127.45 -36.0 -125.25 -37.95 -119.7 -47.25 -118.5 -46.1 -113.15 -47.0 -104.25 L-48.25 -89.6 Q-48.25 -81.2 -49.75 -75.0 -50.8 -70.45 -56.15 -65.55 L-61.25 -60.75 -58.4 -55.95 Q-55.4 -50.95 -54.75 -48.75 -54.3 -47.35 -50.4 -42.95 -46.75 -38.9 -46.75 -37.3 -46.75 -35.9 -55.15 -23.6 -60.45 -15.85 -62.85 -12.95 L-58.75 -4.85 Q-58.75 -3.55 -62.7 0.05 L-68.5 5.5 -69.95 7.4 -68.4 3.35 -67.45 0.9 Q-62.1 -4.25 -62.1 -4.6 L-64.3 -9.75 -64.95 -11.25 Q-66.0 -11.25 -65.75 -11.5 L-66.15 -11.7 -66.25 -12.6 -65.8 -13.2 Q-67.2 -16.35 -67.85 -18.5 L-71.55 -14.85 -75.25 -14.0 -70.0 -20.75 Q-67.6 -23.55 -65.8 -20.2 L-64.15 -15.6 -57.75 -24.9 Q-49.25 -37.15 -49.25 -37.55 L-52.85 -42.1 Q-56.75 -46.9 -57.85 -49.5 -59.0 -52.2 -61.85 -55.85 -63.75 -58.35 -63.75 -61.1 -63.75 -62.9 -58.3 -68.65 -52.6 -74.7 -52.25 -75.75 L-51.35 -82.65 Q-50.8 -87.05 -50.75 -90.0 L-50.1 -105.6 Q-49.75 -111.9 -49.75 -118.5 -49.75 -120.15 -48.75 -120.85 -48.1 -121.3 -46.05 -121.8 -40.85 -123.05 -37.75 -126.35 L-37.75 -139.35 Q-39.2 -138.25 -40.0 -138.25 L-41.6 -138.5 -41.75 -146.55 -41.65 -149.0 -42.05 -148.8 Q-45.05 -147.25 -46.5 -147.25 -50.15 -147.25 -50.9 -160.4 -51.3 -167.7 -51.25 -182.0 L-52.1 -199.05 Q-52.75 -210.15 -52.75 -216.5 L-52.75 -221.75 Q-52.75 -222.6 -53.45 -224.25 -53.15 -225.65 -47.75 -226.5 -41.35 -227.45 -40.55 -229.9 -40.0 -231.4 -40.75 -235.35 L-40.65 -239.85 Q-40.4 -242.4 -39.25 -244.35 L-39.25 -246.6 -45.15 -245.6 Q-47.75 -244.85 -50.0 -244.75 -51.65 -246.2 -52.1 -249.3 L-52.25 -253.8 -52.2 -254.75 Q-52.05 -270.65 -50.5 -321.45 L-48.9 -373.1 -46.3 -373.1 -46.35 -371.5 -48.05 -317.9 Q-49.55 -269.25 -49.7 -254.75 L-49.75 -253.9 Q-49.75 -250.0 -49.25 -247.75 L-49.25 -247.35 -45.6 -248.05 -41.5 -249.25 -38.0 -249.25 Q-37.3 -248.5 -36.95 -247.15 L-36.75 -245.8 Q-36.75 -244.55 -37.5 -240.75 -38.25 -236.95 -38.25 -235.65 L-37.75 -232.65 Q-37.25 -230.25 -37.25 -229.65 -37.25 -227.4 -40.6 -225.95 -43.15 -224.9 -50.25 -223.5 L-50.25 -209.25 -48.75 -179.8 Q-47.9 -161.65 -46.25 -150.1 -45.15 -150.3 -41.5 -152.55 L-41.0 -160.55 -40.25 -172.6 -41.25 -184.4 Q-41.25 -187.3 -39.85 -188.35 -33.85 -192.6 -32.5 -193.85 -31.95 -194.3 -28.8 -195.85 -26.05 -197.2 -25.85 -198.0 L-25.65 -200.3 -25.75 -202.5 Q-25.75 -207.95 -28.75 -213.85 -31.75 -219.75 -31.75 -222.55 -31.75 -225.05 -30.25 -228.75 -28.75 -232.5 -28.75 -234.35 -28.75 -236.75 -31.25 -242.4 -33.75 -248.05 -33.75 -250.85 -33.75 -252.65 -31.6 -254.75 -30.1 -260.05 -27.5 -266.05 -24.35 -273.1 -21.25 -278.75 -21.25 -285.1 -22.0 -314.05 L-22.75 -345.6 -22.75 -373.1 -20.25 -373.1 M-38.0 -151.75 Q-38.45 -151.15 -39.25 -150.5 L-39.25 -141.85 -39.1 -141.75 -37.75 -142.7 -37.75 -151.5 -38.0 -151.75" fill="#ffffff" fill-opacity="0.49803922" fill-rule="evenodd" stroke="none"/>
  </g>
</svg>
