<?xml version="1.0" encoding="UTF-8" standalone="no"?>
<svg xmlns:ffdec="https://www.free-decompiler.com/flash" xmlns:xlink="http://www.w3.org/1999/xlink" ffdec:objectType="shape" height="368.0px" width="121.2px" xmlns="http://www.w3.org/2000/svg">
  <g transform="matrix(1.0, 0.0, 0.0, 1.0, 61.4, 376.95)">
    <path d="M36.85 -376.95 L55.6 -376.95 54.5 -281.75 50.9 -133.15 Q51.5 -130.95 51.35 -122.9 L51.25 -119.45 Q51.1 -115.2 50.8 -113.65 L50.35 -101.25 49.3 -76.7 Q48.2 -33.55 54.75 -18.25 55.1 -17.3 59.15 -10.25 L59.8 -8.95 48.85 -8.95 48.0 -11.8 45.55 -18.2 42.9 -27.45 42.65 -28.35 42.6 -28.35 Q38.4 -38.75 37.55 -41.85 35.2 -49.45 35.4 -56.4 L36.1 -64.4 36.75 -72.4 Q36.9 -79.1 35.85 -84.75 35.3 -87.65 33.35 -94.55 29.45 -108.65 28.9 -125.65 L27.7 -152.35 Q26.95 -167.75 27.15 -178.4 27.1 -180.75 30.1 -194.45 L33.05 -209.6 Q33.25 -224.85 31.95 -236.65 30.55 -248.7 30.75 -263.8 30.7 -264.95 32.8 -274.6 L34.2 -281.75 34.95 -293.15 35.1 -313.35 Q35.6 -357.7 36.85 -376.95 M-51.8 -8.95 L-61.4 -8.95 -57.85 -16.85 Q-52.0 -30.4 -52.55 -53.95 L-53.75 -83.85 -55.05 -117.5 -59.35 -281.75 -60.55 -376.95 -44.2 -376.95 -38.4 -339.15 Q-36.05 -324.65 -34.75 -313.35 -33.4 -300.95 -33.3 -292.4 -33.35 -290.6 -34.35 -281.75 L-36.6 -273.3 Q-39.95 -261.6 -39.8 -257.7 -39.8 -252.1 -42.35 -241.75 -45.0 -231.45 -44.9 -225.9 -44.75 -221.05 -42.55 -212.75 L-39.4 -201.05 -36.55 -188.6 Q-34.2 -178.0 -34.15 -176.1 -34.15 -173.2 -35.65 -157.8 -37.25 -142.7 -37.05 -135.7 -37.05 -132.05 -38.5 -116.35 -40.05 -100.95 -39.8 -89.25 -39.6 -77.45 -45.25 -59.65 L-47.9 -51.25 -47.95 -50.85 -47.9 -50.2 Q-47.8 -45.75 -47.95 -41.35 L-47.9 -38.0 Q-48.0 -35.25 -48.3 -33.75 L-48.5 -33.7 Q-48.95 -29.3 -49.65 -24.85 L-49.7 -24.85 -50.05 -22.0 -50.25 -20.8 -50.25 -20.45 Q-50.2 -17.35 -51.5 -10.65 L-51.8 -8.95 M38.85 -238.95 L38.7 -228.4 39.0 -231.6 39.2 -243.7 38.85 -238.95 M37.8 -200.5 L37.85 -202.2 37.65 -202.15 37.6 -201.55 37.8 -200.5 M37.7 -175.6 L37.85 -175.4 37.95 -180.6 37.8 -177.0 37.7 -175.6 M36.7 -159.15 L36.7 -159.85 36.65 -159.4 36.7 -159.15 M-52.45 -13.2 L-52.5 -12.8 -52.4 -13.15 -52.45 -13.2" fill="#ffffff" fill-opacity="0.6509804" fill-rule="evenodd" stroke="none"/>
    <path d="M36.85 -376.95 Q35.6 -357.7 35.1 -313.35 L34.95 -293.15 34.2 -281.75 32.8 -274.6 Q30.7 -264.95 30.75 -263.8 30.55 -248.7 31.95 -236.65 33.25 -224.85 33.05 -209.6 L30.1 -194.45 Q27.1 -180.75 27.15 -178.4 26.95 -167.75 27.7 -152.35 L28.9 -125.65 Q29.45 -108.65 33.35 -94.55 35.3 -87.65 35.85 -84.75 36.9 -79.1 36.75 -72.4 L36.1 -64.4 35.4 -56.4 Q35.2 -49.45 37.55 -41.85 38.4 -38.75 42.6 -28.35 L42.65 -28.35 42.9 -27.45 45.55 -18.2 48.0 -11.8 48.85 -8.95 -51.8 -8.95 -51.5 -10.65 Q-50.2 -17.35 -50.25 -20.45 L-50.25 -20.8 -50.05 -22.0 -49.7 -24.85 -49.65 -24.85 Q-48.95 -29.3 -48.5 -33.7 L-48.3 -33.75 Q-48.0 -35.25 -47.9 -38.0 L-47.95 -41.35 Q-47.8 -45.75 -47.9 -50.2 L-47.95 -50.85 -47.9 -51.25 -45.25 -59.65 Q-39.6 -77.45 -39.8 -89.25 -40.05 -100.95 -38.5 -116.35 -37.05 -132.05 -37.05 -135.7 -37.25 -142.7 -35.65 -157.8 -34.15 -173.2 -34.15 -176.1 -34.2 -178.0 -36.55 -188.6 L-39.4 -201.05 -42.55 -212.75 Q-44.75 -221.05 -44.9 -225.9 -45.0 -231.45 -42.35 -241.75 -39.8 -252.1 -39.8 -257.7 -39.95 -261.6 -36.6 -273.3 L-34.35 -281.75 Q-33.35 -290.6 -33.3 -292.4 -33.4 -300.95 -34.75 -313.35 -36.05 -324.65 -38.4 -339.15 L-44.2 -376.95 36.85 -376.95 M36.7 -159.15 L36.65 -159.4 36.7 -159.85 36.7 -159.15 M37.7 -175.6 L37.8 -177.0 37.95 -180.6 37.85 -175.4 37.7 -175.6 M37.8 -200.5 L37.6 -201.55 37.65 -202.15 37.85 -202.2 37.8 -200.5 M38.85 -238.95 L39.2 -243.7 39.0 -231.6 38.7 -228.4 38.85 -238.95 M-52.45 -13.2 L-52.4 -13.15 -52.5 -12.8 -52.45 -13.2" fill="#ffffff" fill-rule="evenodd" stroke="none"/>
  </g>
</svg>
