<?xml version="1.0" encoding="UTF-8" standalone="no"?>
<svg xmlns:ffdec="https://www.free-decompiler.com/flash" xmlns:xlink="http://www.w3.org/1999/xlink" ffdec:objectType="shape" height="16.9px" width="4.55px" xmlns="http://www.w3.org/2000/svg">
  <g transform="matrix(1.0, 0.0, 0.0, 1.0, 41.15, 11.5)">
    <path d="M-41.15 -5.9 Q-41.05 -6.3 -40.65 -6.3 L-40.3 -6.25 -40.25 -6.2 Q-39.9 -6.9 -39.1 -6.9 -38.45 -6.9 -38.15 -6.4 L-38.05 -5.85 Q-38.05 -5.05 -39.25 -4.7 -40.4 -4.45 -40.4 -5.6 L-40.35 -5.75 -40.4 -5.75 Q-40.75 -5.7 -40.75 -5.3 -41.15 -5.45 -41.15 -5.9 M-36.6 -10.35 Q-36.6 -9.35 -37.9 -9.15 -39.15 -8.95 -39.15 -10.35 L-38.85 -11.1 Q-38.45 -11.5 -38.05 -11.5 L-36.7 -11.3 -36.6 -10.35 M-39.1 -8.95 Q-38.8 -8.8 -38.8 -8.35 -38.8 -8.0 -39.3 -8.0 -39.55 -8.1 -39.75 -8.35 L-39.5 -8.65 -39.1 -8.95 M-39.4 -0.15 Q-39.3 -0.4 -39.3 0.0 L-39.5 0.3 -39.95 0.2 -39.9 -0.05 -39.4 -0.15 M-40.45 2.55 L-41.1 1.85 Q-40.25 2.05 -40.15 2.4 -40.25 2.55 -40.45 2.55 M-39.25 4.75 L-39.05 4.6 -38.7 4.65 -38.6 5.05 -39.05 5.4 -39.25 4.75 M-40.75 0.0 L-40.25 -0.05 -40.15 0.1 -40.75 0.5 -40.75 0.0" fill="#212024" fill-opacity="0.53333336" fill-rule="evenodd" stroke="none"/>
  </g>
</svg>
