<?xml version="1.0" encoding="UTF-8" standalone="no"?>
<svg xmlns:ffdec="https://www.free-decompiler.com/flash" xmlns:xlink="http://www.w3.org/1999/xlink" ffdec:objectType="shape" height="9.3px" width="40.05px" xmlns="http://www.w3.org/2000/svg">
  <g transform="matrix(1.0, 0.0, 0.0, 1.0, 27.4, 30.75)">
    <path d="M2.0 -30.15 L2.0 -30.45 2.25 -30.75 Q2.7 -30.3 2.4 -29.9 L2.2 -29.9 2.1 -29.85 2.0 -30.15 M0.9 -29.45 L0.65 -29.75 1.15 -29.75 1.15 -29.55 0.9 -29.45 M4.5 -24.8 L4.7 -24.35 3.9 -24.35 3.75 -24.65 4.05 -25.05 4.5 -24.8 M6.0 -29.55 Q6.5 -30.15 7.1 -30.15 8.4 -30.15 8.1 -29.05 8.1 -27.85 6.85 -28.05 5.55 -28.15 5.55 -28.95 L6.0 -29.55 M9.95 -27.35 Q10.75 -27.35 10.95 -26.85 L10.95 -26.25 Q10.95 -25.3 9.95 -25.25 8.95 -25.25 8.95 -26.25 8.95 -27.35 9.95 -27.35 M12.65 -27.95 Q12.65 -26.95 11.65 -27.15 10.65 -27.3 10.65 -28.25 L10.75 -28.85 10.9 -28.95 11.4 -29.1 Q12.5 -29.1 12.65 -27.95 M11.65 -25.05 L11.65 -24.55 10.8 -24.65 10.7 -24.9 10.8 -25.15 11.65 -25.05 M-18.85 -26.6 L-18.8 -26.4 -19.05 -26.0 Q-19.4 -25.8 -19.85 -26.0 L-19.9 -25.95 -19.95 -26.25 -19.85 -26.5 -19.15 -26.7 -18.85 -26.6 M-15.5 -26.9 L-15.55 -27.2 Q-15.55 -27.7 -14.45 -27.7 L-13.9 -27.7 Q-14.2 -26.25 -15.45 -26.9 L-15.5 -26.9 M-11.35 -28.2 Q-11.35 -27.05 -12.45 -27.2 -13.6 -27.35 -13.6 -28.0 L-13.15 -28.9 Q-12.75 -29.3 -12.35 -29.3 -11.55 -29.3 -11.35 -28.8 L-11.35 -28.2 M-10.7 -27.05 L-10.4 -27.05 -10.35 -26.65 Q-10.35 -26.0 -11.5 -26.35 -11.05 -27.05 -10.7 -27.05 M-6.5 -28.9 L-6.45 -28.65 -7.1 -28.2 -7.3 -28.4 -6.85 -28.9 -6.5 -28.9 M-0.25 -28.9 Q-0.4 -28.5 -0.85 -28.2 L-1.2 -28.55 -0.7 -29.05 -0.25 -28.9 M-4.25 -29.8 L-4.15 -30.25 -3.8 -30.4 -3.55 -30.3 -3.55 -30.15 -3.55 -29.8 -4.25 -29.8 M-22.15 -26.05 Q-21.75 -26.05 -21.55 -25.85 -21.8 -25.4 -22.35 -25.15 -22.65 -25.25 -22.65 -25.7 -22.65 -26.05 -22.15 -26.05 M-27.4 -21.95 Q-27.4 -22.35 -26.65 -22.65 L-26.1 -22.45 -26.1 -22.2 Q-26.1 -21.8 -26.95 -21.45 -27.4 -21.55 -27.4 -21.95" fill="#212024" fill-opacity="0.53333336" fill-rule="evenodd" stroke="none"/>
  </g>
</svg>
