<?xml version="1.0" encoding="UTF-8" standalone="no"?>
<svg xmlns:ffdec="https://www.free-decompiler.com/flash" xmlns:xlink="http://www.w3.org/1999/xlink" ffdec:objectType="shape" height="121.0px" width="93.3px" xmlns="http://www.w3.org/2000/svg">
  <g transform="matrix(1.0, 0.0, 0.0, 1.0, 43.55, 50.6)">
    <path d="M15.15 -39.85 L15.05 -39.7 Q15.7 -39.6 15.8 -38.6 L15.75 -37.1 16.25 -34.65 16.0 -32.1 15.7 -30.25 Q16.75 -27.65 17.2 -24.1 17.6 -19.0 17.95 -16.5 L17.95 -14.6 17.65 -14.3 18.1 -11.6 18.85 -7.7 21.95 -6.1 Q26.7 -3.2 28.2 -1.55 28.9 -1.35 29.85 -0.75 L33.8 2.35 38.8 5.7 Q42.0 7.95 42.0 9.05 L42.0 9.25 Q43.2 10.05 43.95 11.8 L45.8 16.0 47.6 20.1 48.85 23.65 Q49.75 24.3 49.75 25.4 L47.25 34.5 46.15 39.55 Q45.05 43.05 43.45 43.1 L43.55 43.75 Q43.55 44.5 32.5 50.15 L24.4 54.2 24.75 54.95 27.75 59.15 29.45 61.45 29.75 62.0 30.05 62.45 30.05 62.55 30.25 62.75 Q31.25 64.0 32.15 64.1 L32.2 64.15 35.0 66.9 34.8 67.35 34.1 68.2 33.5 68.05 30.25 67.4 29.85 67.3 29.8 67.3 28.55 67.0 28.4 66.8 27.2 66.4 Q21.0 64.2 17.95 63.8 L11.05 62.1 10.5 61.95 9.65 62.0 8.9 62.7 5.45 65.3 1.6 68.15 Q-1.55 70.35 -2.1 70.4 -2.85 70.45 -3.0 69.8 L-3.35 69.7 -4.4 67.6 -4.55 67.35 -4.75 66.8 -4.8 66.85 -5.8 65.4 -6.25 63.9 -6.35 63.8 -9.6 64.25 -10.1 64.5 -10.8 64.8 -12.0 65.35 Q-12.25 65.4 -12.55 65.6 L-12.95 65.75 -13.1 65.7 -14.15 66.2 Q-15.25 66.65 -17.3 67.1 L-25.75 69.3 Q-26.55 69.35 -26.65 68.55 L-26.45 68.3 -26.05 67.75 -25.9 67.7 -25.9 67.55 -24.6 66.0 -23.15 64.75 -21.2 62.45 -19.25 60.4 -18.75 59.55 -16.0 56.25 -16.75 56.25 -23.3 55.9 Q-23.7 55.8 -23.75 55.2 L-30.6 50.2 -35.75 46.0 -36.25 46.05 Q-38.95 46.05 -40.35 36.55 L-41.75 31.8 -42.55 29.15 Q-43.55 28.75 -43.55 27.4 -43.55 25.85 -41.35 21.65 L-38.55 16.5 -36.9 13.95 -35.1 11.05 -34.15 9.85 -34.25 9.05 Q-34.25 7.7 -30.35 4.55 L-25.0 0.65 Q-20.75 -2.25 -18.1 -3.65 L-16.85 -4.2 -16.45 -4.55 -14.9 -6.4 -14.35 -7.0 -13.4 -8.75 -9.7 -13.4 -4.25 -19.8 Q-1.75 -25.45 -1.2 -27.3 -0.25 -30.2 -0.25 -33.95 L-1.1 -36.4 -1.4 -35.75 -1.6 -36.15 -0.75 -36.75 -1.4 -38.8 -2.05 -41.1 -5.5 -41.65 -5.65 -41.65 -8.2 -41.25 Q-9.9 -41.25 -10.2 -41.65 L-10.4 -42.1 -11.1 -41.85 -9.05 -44.25 -5.1 -48.85 -3.7 -50.0 Q-1.95 -51.1 -1.1 -50.2 L6.15 -45.95 7.55 -44.95 15.15 -39.85 M41.65 16.45 L39.85 13.55 37.8 10.25 38.0 9.35 36.15 7.95 33.0 5.35 28.9 2.75 26.65 0.85 Q24.35 0.4 19.85 -2.75 L17.6 -4.35 17.0 -4.25 Q15.6 -4.25 14.7 -5.95 L14.55 -6.25 14.15 -6.25 14.05 -6.4 13.85 -7.45 13.65 -8.1 13.95 -8.2 14.2 -8.65 14.2 -8.85 13.7 -10.5 12.65 -15.25 Q12.4 -15.3 12.3 -15.5 L12.35 -16.95 12.45 -17.5 11.85 -20.45 10.95 -27.2 11.0 -28.1 11.4 -28.45 11.35 -28.6 Q11.35 -29.45 11.65 -30.35 L11.9 -30.95 11.8 -31.8 Q11.8 -32.9 12.45 -35.15 L13.1 -37.35 12.8 -38.35 10.9 -39.45 5.4 -42.65 1.8 -45.35 -0.8 -47.65 -1.35 -47.75 -3.0 -46.2 -4.65 -44.65 -1.5 -43.6 Q1.9 -42.4 2.45 -40.85 L1.9 -40.4 1.75 -40.4 2.3 -37.9 2.35 -37.75 Q2.55 -34.6 2.85 -32.55 L2.45 -32.55 2.8 -28.55 2.8 -27.65 1.7 -24.9 -0.1 -19.15 -0.1 -18.95 -1.25 -16.7 Q-2.0 -15.4 -3.75 -13.7 L-6.6 -10.75 -9.6 -6.95 -10.2 -6.25 -10.75 -6.25 -12.85 -3.45 -14.15 -1.85 -14.25 -1.25 -14.25 -1.15 -15.4 -0.45 Q-16.95 1.15 -17.7 1.15 L-17.8 1.2 -19.0 1.95 -22.3 4.15 -26.3 8.0 Q-28.55 9.9 -30.9 10.45 -31.9 12.9 -35.35 19.5 L-38.5 25.3 -38.05 26.25 -38.05 26.4 Q-38.75 27.1 -38.75 28.4 L-38.2 30.45 Q-38.05 32.65 -37.55 33.9 L-36.15 38.2 -36.0 38.75 -34.95 42.9 Q-34.2 43.2 -33.2 43.85 L-31.85 44.8 Q-31.25 46.35 -30.95 46.35 L-30.55 46.25 -30.5 46.15 -30.45 45.9 -28.5 47.6 Q-26.4 48.75 -24.0 50.75 -22.4 52.05 -21.7 52.95 L-19.5 52.5 -17.6 52.5 -17.45 52.35 -17.1 52.3 -16.1 52.25 -17.4 52.1 -17.65 52.0 -15.25 52.15 -15.45 52.25 -12.15 52.15 -9.4 52.25 -1.0 52.25 17.15 50.0 20.45 49.25 20.25 50.25 20.8 51.0 22.25 48.7 27.35 47.0 28.2 47.0 Q28.65 47.15 28.75 47.45 L29.4 47.15 30.05 46.5 Q30.9 45.55 31.8 45.1 L33.7 44.05 Q34.55 43.6 35.65 43.25 L41.0 41.0 41.8 38.3 43.6 32.25 44.6 26.85 Q44.8 25.45 45.15 24.75 L44.15 22.8 42.65 18.25 41.65 16.45 M21.85 60.85 L24.3 61.65 22.6 58.4 21.05 55.6 20.25 55.8 Q18.95 55.8 18.4 55.05 L18.1 54.35 16.65 54.55 Q13.6 55.8 9.9 56.0 L9.85 56.0 9.85 56.1 8.85 56.25 6.9 56.25 3.85 56.55 3.8 56.55 3.7 56.6 1.45 56.9 -2.4 56.4 -2.95 56.3 -4.65 56.3 -4.9 56.0 -6.15 55.8 -9.0 55.45 -9.9 55.75 -11.05 56.0 -11.45 56.35 -11.55 56.95 -12.05 57.6 -15.45 61.6 -17.0 63.3 -16.9 63.25 Q-14.9 62.3 -13.8 62.25 L-13.7 62.25 -13.1 62.05 -10.8 61.45 -7.8 60.15 -6.4 59.9 -6.3 59.85 -6.2 59.85 -5.35 59.9 -5.0 59.8 Q-4.0 59.55 -3.5 60.65 L-2.3 63.0 -1.1 65.15 -0.85 65.65 0.65 64.4 1.35 63.85 2.35 62.9 4.4 60.9 6.7 59.25 7.05 58.9 7.45 58.5 7.35 58.3 7.95 57.75 8.3 57.4 9.15 57.5 11.55 58.25 13.5 58.65 16.05 59.25 17.7 59.7 17.8 59.7 19.55 60.25 21.85 60.85 M2.85 54.25 L-2.55 55.05 -2.7 55.1 -2.4 55.15 -0.85 55.05 3.0 54.35 3.05 54.35 3.1 54.3 2.85 54.25 M-6.65 -45.0 L-6.55 -45.1 -6.65 -45.0 M-8.15 -43.95 L-8.2 -43.95 -8.25 -43.95 -8.15 -43.95 M-13.65 54.5 L-10.9 54.75 -14.2 54.35 -14.25 54.35 -13.65 54.5" fill="#000000" fill-rule="evenodd" stroke="none"/>
    <path d="M21.85 60.85 L19.55 60.25 17.8 59.7 17.7 59.7 16.05 59.25 13.5 58.65 11.55 58.25 9.15 57.5 8.3 57.4 7.95 57.75 7.35 58.3 7.45 58.5 7.05 58.9 6.7 59.25 4.4 60.9 2.35 62.9 1.35 63.85 0.65 64.4 -0.85 65.65 -1.1 65.15 -2.3 63.0 -3.5 60.65 Q-4.0 59.55 -5.0 59.8 L-5.35 59.9 -6.2 59.85 -6.3 59.85 -6.4 59.9 -7.8 60.15 -10.8 61.45 -13.1 62.05 -13.7 62.25 -13.8 62.25 Q-14.9 62.3 -16.9 63.25 L-17.0 63.3 -15.45 61.6 -12.05 57.6 -11.55 56.95 -11.45 56.35 -11.05 56.0 -9.9 55.75 -9.0 55.45 -6.15 55.8 -4.9 56.0 -4.65 56.3 -2.95 56.3 -2.4 56.4 1.45 56.9 3.7 56.6 3.8 56.55 3.85 56.55 6.9 56.25 8.85 56.25 9.85 56.1 9.85 56.0 9.9 56.0 Q13.6 55.8 16.65 54.55 L18.1 54.35 18.4 55.05 Q18.95 55.8 20.25 55.8 L21.05 55.6 22.6 58.4 24.3 61.65 21.85 60.85" fill="#d9c8b7" fill-rule="evenodd" stroke="none"/>
    <path d="M-34.5 36.25 L-35.05 34.4 -34.95 33.2 -35.0 33.2 Q-35.5 32.65 -35.5 31.6 -35.5 29.95 -34.85 27.9 L-33.65 24.05 Q-33.3 21.7 -32.6 20.35 L-32.3 19.4 -32.15 18.45 Q-32.05 18.0 -31.25 17.9 -30.45 17.85 -30.45 18.4 L-32.15 24.7 -32.45 25.95 -32.55 26.25 -33.6 30.8 -34.05 32.05 -34.55 32.8 Q-33.95 33.3 -32.75 37.05 L-32.7 37.15 Q-30.45 44.15 -30.45 45.4 L-30.45 45.9 -30.5 46.15 -30.55 46.25 -30.95 46.35 Q-31.25 46.35 -31.85 44.8 L-34.5 36.25 M24.8 38.9 Q24.3 37.5 24.4 35.45 L24.7 31.35 24.4 24.25 24.1 22.3 24.15 21.85 24.7 21.8 24.8 21.6 Q24.35 21.15 23.6 19.5 22.65 17.45 22.65 17.2 22.65 16.65 23.35 16.65 23.85 16.65 25.45 20.8 26.05 20.45 26.25 21.85 L26.25 25.65 Q26.25 33.55 25.85 36.95 L25.8 37.55 25.8 37.6 25.75 37.65 25.75 37.7 Q25.45 39.3 25.05 39.55 L24.8 38.9 M22.25 48.7 L20.8 51.0 20.25 50.25 20.45 49.25 Q20.75 48.0 21.7 45.8 23.5 41.6 25.45 40.95 L25.55 41.3 23.8 45.6 22.25 48.7" fill="#d76275" fill-rule="evenodd" stroke="none"/>
    <path d="M2.35 -37.75 L2.25 -39.05 Q2.25 -42.7 4.6 -39.25 L6.9 -35.0 5.35 -32.05 4.65 -30.45 Q4.2 -29.45 3.6 -29.15 3.2 -30.05 2.85 -32.55 2.55 -34.6 2.35 -37.75 M-36.15 38.2 L-35.35 37.1 -34.5 36.25 -31.85 44.8 -33.2 43.85 Q-34.2 43.2 -34.95 42.9 L-36.0 38.75 -36.15 38.2 M-32.7 37.15 L-28.1 40.95 Q-23.9 44.15 -21.2 43.7 L-18.2 43.95 Q-15.5 44.45 -12.5 45.8 -6.55 48.35 -5.1 48.35 -4.4 48.35 0.8 45.95 6.0 43.5 7.85 43.5 L9.6 43.8 12.3 44.15 14.6 44.7 16.25 45.2 Q22.4 41.35 24.8 38.9 L25.05 39.55 Q25.45 39.3 25.75 37.7 L25.75 37.65 25.8 37.6 25.8 37.55 25.9 37.35 28.85 40.75 28.85 40.95 Q29.0 40.05 31.85 32.75 L34.8 25.45 35.3 25.85 35.85 26.5 Q37.5 24.8 40.2 19.45 L41.65 16.45 42.65 18.25 44.15 22.8 45.15 24.75 Q44.8 25.45 44.6 26.85 L43.6 32.25 41.8 38.3 41.0 41.0 35.65 43.25 Q34.55 43.6 33.7 44.05 L31.8 45.1 Q30.9 45.55 30.05 46.5 L29.4 47.15 28.75 47.45 Q28.65 47.15 28.2 47.0 L27.35 47.0 22.25 48.7 23.8 45.6 25.55 41.3 25.45 40.95 Q23.5 41.6 21.7 45.8 20.75 48.0 20.45 49.25 L17.15 50.0 -1.0 52.25 -9.4 52.25 -12.15 52.15 -15.45 52.25 -15.25 52.15 -17.65 52.0 -17.4 52.1 -16.1 52.25 -17.1 52.3 -17.45 52.35 -17.6 52.5 -19.5 52.5 -21.7 52.95 Q-22.4 52.05 -24.0 50.75 -26.4 48.75 -28.5 47.6 L-30.45 45.9 -30.45 45.4 Q-30.45 44.15 -32.7 37.15 M-11.2 -0.15 Q-11.85 -0.15 -12.2 0.2 L-12.8 0.55 -13.25 0.45 -13.4 0.3 -13.45 -0.05 Q-11.05 -4.05 -8.65 -7.25 -3.9 -13.7 -3.9 -9.95 -3.9 -8.75 -6.35 -4.95 L-9.2 -0.65 -7.5 -2.45 Q-6.35 -3.9 -5.1 -4.55 L-4.55 -4.15 Q-4.9 -3.5 -6.75 -1.45 -8.95 0.95 -9.85 0.95 L-10.45 0.85 -10.5 -0.1 -11.2 -0.15 M-6.75 -7.9 L-8.1 -5.85 -8.15 -5.7 Q-6.8 -6.25 -6.05 -7.55 -5.6 -8.25 -5.1 -9.4 -6.0 -8.95 -6.75 -7.9" fill="#ebcfcf" fill-rule="evenodd" stroke="none"/>
    <path d="M2.35 -37.75 L2.3 -37.9 1.75 -40.4 1.9 -40.4 2.45 -40.85 Q1.9 -42.4 -1.5 -43.6 L-4.65 -44.65 -3.0 -46.2 -1.35 -47.75 -0.8 -47.65 1.8 -45.35 5.4 -42.65 10.9 -39.45 12.8 -38.35 13.1 -37.35 12.45 -35.15 Q11.8 -32.9 11.8 -31.8 L11.9 -30.95 11.65 -30.35 Q11.35 -29.45 11.35 -28.6 L11.4 -28.45 11.0 -28.1 10.95 -27.2 11.85 -20.45 12.45 -17.5 12.35 -16.95 12.3 -15.5 Q12.4 -15.3 12.65 -15.25 L13.7 -10.5 14.2 -8.85 14.2 -8.65 13.95 -8.2 13.65 -8.1 13.85 -7.45 14.05 -6.4 14.15 -6.25 14.55 -6.25 14.7 -5.95 Q15.6 -4.25 17.0 -4.25 L17.6 -4.35 19.85 -2.75 Q24.35 0.4 26.65 0.85 L28.9 2.75 33.0 5.35 36.15 7.95 38.0 9.35 37.8 10.25 39.85 13.55 41.65 16.45 40.2 19.45 Q37.5 24.8 35.85 26.5 L35.3 25.85 34.8 25.45 31.85 32.75 Q29.0 40.05 28.85 40.95 L28.85 40.75 25.9 37.35 25.8 37.55 25.85 36.95 Q26.25 33.55 26.25 25.65 L26.25 21.85 Q26.05 20.45 25.45 20.8 23.85 16.65 23.35 16.65 22.65 16.65 22.65 17.2 22.65 17.45 23.6 19.5 24.35 21.15 24.8 21.6 L24.7 21.8 24.15 21.85 24.1 22.3 24.4 24.25 24.7 31.35 24.4 35.45 Q24.3 37.5 24.8 38.9 22.4 41.35 16.25 45.2 L14.6 44.7 12.3 44.15 9.6 43.8 7.85 43.5 Q6.0 43.5 0.8 45.95 -4.4 48.35 -5.1 48.35 -6.55 48.35 -12.5 45.8 -15.5 44.45 -18.2 43.95 L-21.2 43.7 Q-23.9 44.15 -28.1 40.95 L-32.7 37.15 -32.75 37.05 Q-33.95 33.3 -34.55 32.8 L-34.05 32.05 -33.6 30.8 -32.55 26.25 -32.45 25.95 -32.15 24.7 -30.45 18.4 Q-30.45 17.85 -31.25 17.9 -32.05 18.0 -32.15 18.45 L-32.3 19.4 -32.6 20.35 Q-33.3 21.7 -33.65 24.05 L-34.85 27.9 Q-35.5 29.95 -35.5 31.6 -35.5 32.65 -35.0 33.2 L-34.95 33.2 -35.05 34.4 -34.5 36.25 -35.35 37.1 -36.15 38.2 -37.55 33.9 Q-38.05 32.65 -38.2 30.45 L-38.75 28.4 Q-38.75 27.1 -38.05 26.4 L-38.05 26.25 -38.5 25.3 -35.35 19.5 Q-31.9 12.9 -30.9 10.45 -28.55 9.9 -26.3 8.0 L-22.3 4.15 -19.0 1.95 -17.8 1.2 -17.7 1.15 Q-16.95 1.15 -15.4 -0.45 L-14.25 -1.15 -14.25 -1.25 -14.15 -1.85 -12.85 -3.45 -10.75 -6.25 -10.2 -6.25 -9.6 -6.95 -6.6 -10.75 -3.75 -13.7 Q-2.0 -15.4 -1.25 -16.7 L-0.1 -18.95 -0.1 -19.15 1.7 -24.9 2.8 -27.65 2.8 -28.55 2.45 -32.55 2.85 -32.55 Q3.2 -30.05 3.6 -29.15 4.2 -29.45 4.65 -30.45 L5.35 -32.05 6.9 -35.0 4.6 -39.25 Q2.25 -42.7 2.25 -39.05 L2.35 -37.75 M-11.2 -0.15 L-10.5 -0.1 -10.45 0.85 -9.85 0.95 Q-8.95 0.95 -6.75 -1.45 -4.9 -3.5 -4.55 -4.15 L-5.1 -4.55 Q-6.35 -3.9 -7.5 -2.45 L-9.2 -0.65 -6.35 -4.95 Q-3.9 -8.75 -3.9 -9.95 -3.9 -13.7 -8.65 -7.25 -11.05 -4.05 -13.45 -0.05 L-13.4 0.3 -13.25 0.45 -12.8 0.55 -12.2 0.2 Q-11.85 -0.15 -11.2 -0.15" fill="#ffffff" fill-rule="evenodd" stroke="none"/>
  </g>
</svg>
