<?xml version="1.0" encoding="UTF-8" standalone="no"?>
<svg xmlns:ffdec="https://www.free-decompiler.com/flash" xmlns:xlink="http://www.w3.org/1999/xlink" ffdec:objectType="shape" height="41.7px" width="68.55px" xmlns="http://www.w3.org/2000/svg">
  <g transform="matrix(1.0, 0.0, 0.0, 1.0, 35.35, 26.6)">
    <path d="M-14.05 4.45 L-14.2 4.6 -14.15 4.3 -14.05 4.45 M-18.65 -19.05 L-18.7 -19.0 -18.75 -19.1 -18.65 -19.05" fill="#000000" fill-rule="evenodd" stroke="none"/>
    <path d="M16.05 5.8 Q15.25 5.5 15.25 4.25 L15.45 3.3 15.25 3.25 Q13.85 2.9 13.5 2.45 L12.15 1.55 11.35 0.6 11.0 -0.15 10.8 -0.6 10.4 -1.45 Q9.95 -2.5 9.9 -3.25 8.7 -2.45 5.8 -1.65 2.5 -1.1 -0.1 -2.9 L-1.9 -4.45 -2.85 -3.5 -4.95 -1.65 Q-7.1 -0.15 -9.85 -0.7 -11.05 -0.9 -11.65 -1.25 L-11.7 -1.25 -11.7 -1.2 -11.95 0.5 -12.7 2.45 Q-13.35 3.85 -14.05 4.45 L-14.15 4.3 -13.9 3.5 -13.8 3.15 -13.75 2.95 -13.8 3.0 -13.8 1.8 -14.0 -1.55 -14.0 -1.7 Q-14.3 -4.45 -14.55 -5.6 L-14.55 -5.85 Q-14.1 -5.75 -12.35 -4.9 -10.9 -4.2 -9.85 -4.2 -6.1 -4.2 -2.1 -9.8 -1.35 -7.05 0.25 -6.0 1.65 -5.1 4.55 -5.1 L5.45 -5.1 6.3 -5.2 Q9.3 -5.65 12.3 -7.5 11.65 -4.1 12.9 -1.65 L13.95 -0.2 Q14.7 0.5 15.75 0.8 L17.1 0.95 18.0 0.8 18.9 0.6 Q17.45 2.85 16.4 5.5 L16.55 5.85 16.05 5.8" fill="#333333" fill-rule="evenodd" stroke="none"/>
    <path d="M-13.8 3.0 L-16.5 5.95 Q-21.55 10.7 -27.65 10.7 L-27.75 10.55 -28.15 10.8 Q-28.7 11.0 -29.2 10.6 L-30.8 10.3 -31.1 8.2 -30.6 6.0 -31.4 5.5 Q-33.1 4.35 -33.9 3.25 L-35.25 0.6 -35.35 -1.45 Q-35.35 -5.0 -33.15 -7.95 -31.55 -10.1 -29.8 -10.65 L-29.8 -10.95 -29.65 -11.05 -29.8 -12.35 Q-29.8 -14.75 -28.4 -17.0 -26.2 -20.6 -21.35 -20.6 L-19.1 -20.25 -18.85 -20.1 Q-18.55 -21.6 -15.1 -23.85 -11.0 -26.5 -7.45 -26.5 -2.4 -26.5 -0.4 -25.0 L0.65 -23.55 Q1.3 -24.35 3.1 -25.2 6.0 -26.6 7.9 -26.6 13.45 -26.6 15.5 -23.65 L16.3 -21.3 Q17.55 -22.0 19.6 -22.0 24.25 -22.0 26.4 -18.25 27.7 -16.05 27.7 -14.1 L27.4 -13.2 27.6 -13.25 Q31.4 -13.25 32.65 -10.7 33.2 -9.6 33.2 -7.75 33.2 -5.05 32.1 -2.2 L32.05 -2.0 32.0 -1.9 31.9 -1.65 31.7 -1.2 31.25 -0.25 30.95 0.3 30.1 1.4 28.35 2.85 Q28.85 3.5 29.15 4.8 L29.3 5.45 29.45 7.5 Q29.45 10.6 26.85 13.65 L25.25 15.1 23.5 14.6 Q22.6 14.2 21.8 13.65 20.35 12.7 19.05 11.25 16.5 8.4 16.05 5.8 L16.55 5.85 16.4 5.5 Q17.45 2.85 18.9 0.6 L18.0 0.8 17.1 0.95 15.75 0.8 Q14.7 0.5 13.95 -0.2 L12.9 -1.65 Q11.65 -4.1 12.3 -7.5 9.3 -5.65 6.3 -5.2 L5.45 -5.1 4.55 -5.1 Q1.65 -5.1 0.25 -6.0 -1.35 -7.05 -2.1 -9.8 -6.1 -4.2 -9.85 -4.2 -10.9 -4.2 -12.35 -4.9 -14.1 -5.75 -14.55 -5.85 L-14.55 -5.6 Q-14.3 -4.45 -14.0 -1.7 L-14.0 -1.55 -13.8 1.8 -13.8 3.0 M-27.9 -10.5 L-27.95 -10.6 -27.9 -10.5 M-18.65 -19.05 L-18.75 -19.1 -18.7 -19.0 -18.65 -19.05 M9.7 -18.15 L9.7 -18.05 9.7 -18.15" fill="#1e1e1e" fill-rule="evenodd" stroke="none"/>
  </g>
</svg>
