<?xml version="1.0" encoding="UTF-8" standalone="no"?>
<svg xmlns:ffdec="https://www.free-decompiler.com/flash" xmlns:xlink="http://www.w3.org/1999/xlink" ffdec:objectType="shape" height="87.0px" width="78.7px" xmlns="http://www.w3.org/2000/svg">
  <g transform="matrix(1.0, 0.0, 0.0, 1.0, 40.1, 44.1)">
    <path d="M23.0 -33.25 L22.85 -32.95 21.35 -33.2 Q20.9 -33.0 20.8 -32.3 20.7 -31.6 20.95 -31.05 22.05 -28.85 23.9 -28.15 24.75 -27.75 27.55 -27.5 30.95 -27.2 32.75 -24.75 L32.85 -24.6 32.15 -24.2 Q30.4 -25.3 29.4 -24.8 28.9 -24.6 28.9 -23.65 28.9 -22.9 29.15 -22.4 29.85 -20.9 30.7 -20.15 L33.0 -18.1 33.05 -18.05 31.15 -18.5 Q30.0 -18.95 29.2 -19.75 L29.6 -19.1 28.5 -19.9 27.1 -20.1 Q26.65 -19.85 26.8 -19.1 26.8 -18.5 27.1 -17.8 27.75 -16.45 31.5 -13.75 L32.5 -13.0 33.15 -12.45 Q35.65 -10.15 37.1 -7.15 38.5 -4.25 38.6 -0.7 L38.55 1.65 38.4 1.65 37.75 -0.7 Q37.05 -2.2 36.1 -1.75 35.45 -1.4 35.2 -0.65 L35.1 2.15 35.35 3.6 36.65 8.3 36.65 8.45 36.75 10.2 36.35 12.75 36.15 13.6 36.0 14.25 Q35.75 15.4 35.75 17.35 L35.75 17.8 Q35.2 16.65 35.1 15.6 L34.55 13.85 Q33.95 12.6 33.05 13.05 31.95 13.6 31.55 15.7 31.35 17.2 31.6 18.35 L31.65 18.45 31.7 19.05 Q31.85 20.85 30.5 22.6 29.3 24.2 27.65 24.95 29.15 22.2 28.35 20.45 L26.55 22.8 Q25.4 24.3 24.7 27.2 24.2 29.45 22.75 30.1 L19.6 30.25 17.7 30.05 17.2 30.15 16.95 30.3 16.9 30.4 16.95 30.35 16.35 32.6 Q15.45 34.7 13.3 35.7 11.15 36.75 8.7 36.7 6.3 36.6 5.0 37.25 4.25 37.6 3.35 38.1 L1.5 39.1 Q-0.75 40.2 -2.0 40.0 L-3.55 39.35 -3.65 38.9 -3.35 38.75 Q-2.2 38.2 -2.8 36.95 -3.25 36.1 -4.3 35.45 -5.5 34.8 -7.05 34.6 L-9.55 34.8 -11.25 35.6 -11.4 35.65 -12.7 36.4 Q-14.55 37.25 -15.55 36.85 -16.5 36.5 -18.4 34.45 -19.4 33.2 -21.4 32.5 L-24.35 31.75 -26.6 31.65 Q-28.5 31.45 -29.25 30.9 L-32.3 28.1 -32.05 27.95 Q-30.45 29.6 -29.55 29.2 -29.2 29.05 -29.2 28.35 -29.2 27.7 -29.5 27.1 L-29.55 27.0 Q-28.1 28.35 -27.0 27.85 -26.55 27.65 -27.05 26.6 -28.55 23.45 -31.2 21.9 -33.85 20.45 -34.5 19.1 L-35.05 17.3 -34.75 17.15 Q-34.35 18.0 -33.6 18.45 L-32.4 18.55 Q-31.95 18.35 -31.85 17.65 -31.85 17.05 -32.1 16.55 L-33.5 14.25 -34.0 13.55 -35.15 12.0 -36.1 11.15 -38.15 7.65 Q-39.5 4.85 -39.9 -0.05 L-40.05 -4.95 -39.65 -4.8 -39.1 -3.25 -38.35 -2.45 Q-37.85 -2.25 -37.35 -2.45 -37.0 -2.65 -36.75 -3.5 -36.5 -4.25 -36.55 -4.85 L-36.6 -7.95 Q-36.45 -9.65 -35.55 -11.5 L-34.5 -13.05 -34.0 -14.15 -35.35 -19.4 Q-36.3 -24.55 -32.45 -27.5 L-31.75 -25.65 Q-30.95 -24.0 -29.1 -24.15 -28.0 -24.25 -26.05 -24.9 -25.05 -24.8 -23.4 -25.6 -21.8 -26.35 -18.05 -31.15 -14.25 -36.0 -11.8 -37.15 -9.9 -38.1 -8.45 -38.2 L-4.4 -37.95 -5.2 -37.75 -5.85 -37.65 -6.7 -36.85 -6.85 -35.85 -4.95 -35.75 -2.8 -35.9 Q-1.35 -36.1 0.35 -36.9 L3.5 -38.6 Q7.0 -40.25 11.5 -39.7 L11.55 -39.35 Q11.25 -38.5 11.7 -37.55 12.5 -35.9 14.0 -35.75 L17.0 -36.2 Q21.1 -37.1 23.0 -33.25 M5.55 -43.7 Q5.55 -43.25 3.9 -42.6 2.75 -42.15 1.5 -41.95 L0.3 -41.7 -2.0 -41.4 -2.75 -41.1 Q-4.25 -40.4 -6.45 -40.4 L-7.05 -40.45 -7.1 -40.95 Q-7.1 -42.25 -3.35 -42.9 L5.4 -44.1 Q5.55 -44.2 5.55 -43.7 M34.25 23.55 L35.05 21.65 Q35.3 21.3 36.2 21.15 L36.75 21.25 Q37.35 21.45 37.45 21.9 37.6 22.7 35.45 24.6 34.0 25.3 33.05 26.8 L32.95 26.9 Q32.75 26.2 33.4 25.2 L34.25 23.55 M6.55 40.85 Q6.55 41.5 4.15 42.2 L-0.4 42.9 Q-2.8 42.9 -3.9 42.1 -4.6 41.6 -4.6 41.1 L-4.5 40.65 -4.1 40.5 -3.2 40.5 Q-2.65 41.0 -2.15 41.0 L0.6 40.55 5.9 40.2 6.3 40.5 6.55 40.85 M-16.85 -38.45 Q-16.85 -37.9 -18.65 -36.75 L-21.75 -34.65 Q-22.4 -34.75 -22.95 -34.2 L-23.15 -34.2 -23.25 -34.4 -22.4 -35.7 -21.55 -36.95 Q-20.7 -37.9 -20.05 -38.05 L-18.65 -38.15 Q-18.1 -38.1 -17.7 -38.35 L-17.05 -38.75 -16.85 -38.45 M-38.1 19.8 L-38.2 19.45 -38.15 19.15 -38.15 19.2 -37.45 19.3 -37.35 19.6 -37.6 19.85 -38.1 19.8 M-34.8 24.4 L-35.1 24.75 -35.35 24.7 -35.4 24.35 -35.25 23.95 -35.1 23.9 Q-34.8 24.05 -34.8 24.4 M-32.9 27.1 L-32.9 27.2 -33.2 27.25 -33.9 27.05 -33.95 25.95 -33.3 25.9 Q-32.8 25.9 -32.8 26.3 L-32.9 27.1" fill="#02ff35" fill-rule="evenodd" stroke="none"/>
  </g>
</svg>
