<?xml version="1.0" encoding="UTF-8" standalone="no"?>
<svg xmlns:ffdec="https://www.free-decompiler.com/flash" xmlns:xlink="http://www.w3.org/1999/xlink" ffdec:objectType="shape" height="83.9px" width="78.35px" xmlns="http://www.w3.org/2000/svg">
  <g transform="matrix(1.0, 0.0, 0.0, 1.0, 41.0, 42.95)">
    <path d="M27.25 -27.25 L27.7 -26.85 28.15 -26.3 Q29.35 -25.05 30.85 -24.3 L29.45 -24.65 27.65 -24.95 Q26.25 -25.05 26.25 -24.0 26.25 -22.75 27.9 -21.45 29.15 -20.55 30.3 -20.3 L30.4 -20.3 30.95 -20.05 Q32.65 -19.35 33.55 -17.35 34.4 -15.55 34.35 -13.75 32.6 -16.35 30.7 -16.45 L31.9 -13.75 Q32.75 -12.05 35.0 -10.1 36.8 -8.6 36.65 -7.0 36.65 -5.5 35.4 -4.15 34.5 -3.15 34.3 -2.6 L34.2 -2.1 34.2 -1.75 34.25 -1.65 34.25 -1.75 36.0 -0.2 Q37.45 1.55 37.35 3.95 37.25 6.35 36.1 8.45 34.95 10.55 34.9 12.0 L34.9 13.85 34.95 15.95 Q34.9 18.45 34.15 19.55 L32.85 20.6 32.45 20.45 32.4 20.15 Q32.45 18.85 31.05 18.85 30.1 18.85 29.05 19.45 27.95 20.25 27.0 21.5 26.3 22.55 26.05 23.85 L26.0 25.7 26.0 25.9 26.05 27.4 Q25.95 29.4 25.15 30.1 24.4 30.75 21.65 31.55 20.1 31.85 18.6 33.3 L16.55 35.6 15.45 37.55 Q14.4 39.15 13.55 39.55 11.45 40.55 9.7 40.95 L9.65 40.7 Q11.85 40.0 11.9 39.05 11.9 38.65 11.3 38.35 L10.1 38.0 9.95 38.0 Q11.85 37.4 11.9 36.15 11.95 35.65 10.75 35.65 7.25 35.55 4.65 37.2 2.2 38.85 0.7 38.8 L-1.15 38.5 -1.15 38.15 Q-0.25 38.2 0.5 37.7 1.1 37.3 1.15 36.7 1.15 36.2 0.6 35.8 0.05 35.5 -0.5 35.55 L-3.2 35.75 -4.05 35.8 -5.95 36.15 -7.15 36.6 -11.2 36.8 Q-14.3 36.7 -18.85 34.85 -21.5 33.75 -23.25 32.75 L-22.9 32.45 -21.3 32.65 -20.25 32.4 Q-19.85 32.0 -19.8 31.5 -19.8 31.1 -20.45 30.45 L-21.55 29.7 Q-23.5 28.8 -24.3 28.3 -25.8 27.4 -27.0 25.75 L-27.9 24.05 -28.7 23.1 -33.95 21.9 Q-38.95 20.4 -39.8 15.65 L-37.85 15.85 Q-36.05 15.9 -35.3 14.2 -34.9 13.2 -34.6 11.15 -34.05 10.3 -33.95 8.45 -33.9 6.75 -36.45 1.2 -39.05 -4.45 -38.9 -7.1 -38.9 -9.25 -38.3 -10.6 -37.9 -11.9 -36.25 -14.1 L-36.45 -13.3 -36.65 -12.65 Q-36.65 -11.95 -36.3 -11.55 -35.9 -11.0 -35.5 -10.9 -35.25 -11.0 -34.55 -12.6 L-33.7 -14.55 Q-33.2 -15.95 -33.15 -17.8 L-33.2 -21.4 Q-33.1 -25.25 -30.55 -29.0 L-30.2 -28.9 Q-29.55 -28.25 -28.55 -28.2 -26.65 -28.15 -25.9 -29.45 -25.55 -29.95 -24.9 -32.3 -23.85 -36.35 -19.5 -36.3 L-19.35 -36.0 Q-20.2 -35.3 -20.2 -34.8 -20.25 -34.3 -19.65 -33.9 -19.1 -33.5 -18.5 -33.45 -16.05 -33.4 -14.55 -34.75 -13.8 -35.3 -12.35 -37.7 -10.5 -40.55 -7.5 -41.05 L-7.3 -41.05 -7.25 -40.3 Q-9.05 -39.2 -9.1 -38.1 -9.1 -37.55 -8.25 -37.15 L-7.05 -36.75 -4.35 -37.15 -1.5 -38.25 -1.4 -38.25 -2.7 -36.8 Q-3.6 -35.95 -4.65 -35.6 L-3.95 -35.65 -5.15 -35.05 Q-5.9 -34.5 -5.95 -33.9 -5.95 -33.4 -5.2 -33.15 L-3.9 -32.85 Q-2.4 -32.8 1.75 -34.9 L2.85 -35.45 3.65 -35.75 Q6.85 -36.95 10.15 -36.9 13.35 -36.75 16.6 -35.2 L18.6 -34.1 18.55 -34.0 16.2 -34.45 Q14.5 -34.55 14.5 -33.5 14.5 -32.75 15.05 -32.2 L17.5 -30.8 18.9 -30.35 24.8 -29.15 27.25 -27.25 M15.1 -40.3 L15.3 -39.95 14.65 -39.55 13.9 -39.6 13.85 -39.6 13.8 -39.9 13.85 -40.25 15.1 -40.3 M12.5 -41.65 L13.0 -41.05 Q12.9 -40.7 11.95 -40.7 L9.75 -40.85 9.6 -41.5 10.65 -41.8 12.5 -41.65 M16.5 -39.2 L17.8 -39.25 Q18.9 -39.05 18.75 -38.35 L18.35 -38.15 Q17.1 -38.5 16.5 -39.2 M4.4 -41.95 Q4.3 -42.0 4.3 -42.35 4.3 -42.95 4.95 -42.95 5.55 -43.0 6.15 -42.3 L4.85 -41.9 4.4 -41.95 M33.55 27.2 L33.5 27.4 32.95 27.25 32.95 27.05 33.4 27.05 33.55 27.2 M32.15 29.2 L31.85 29.5 31.55 29.15 31.7 28.85 31.85 28.75 32.15 29.2 M30.55 32.05 L30.35 32.25 29.3 33.2 28.85 33.1 Q28.7 33.05 28.7 32.65 28.7 32.45 29.45 31.6 L30.35 30.85 31.15 30.65 31.25 31.0 30.55 32.05 M-15.65 -37.8 L-15.75 -38.1 Q-15.75 -38.5 -14.9 -38.9 L-13.5 -39.5 -12.95 -38.7 -13.05 -38.4 -14.1 -38.3 Q-14.7 -37.85 -15.35 -37.8 L-15.65 -37.8 M-39.2 19.65 L-39.35 19.25 Q-38.95 19.25 -38.8 19.5 L-39.2 19.65 M-14.2 38.8 L-14.15 38.35 Q-13.2 38.25 -12.15 38.75 L-10.55 39.6 -9.9 39.6 -9.8 39.85 -9.9 40.0 Q-10.15 40.4 -11.0 40.4 -12.2 40.4 -14.2 38.8 M-6.75 39.8 L-6.7 39.75 -6.65 40.05 Q-6.65 40.85 -7.45 40.85 L-8.0 40.7 -8.2 40.4 -8.8 40.4 -8.8 40.05 -8.7 40.05 -8.65 40.2 -8.2 40.35 -8.3 40.0 -7.45 39.7 -6.75 39.8 M-41.0 13.95 L-40.85 13.6 -40.7 13.55 Q-40.4 13.65 -40.4 14.2 L-40.7 14.4 -40.9 14.35 -41.0 13.95" fill="#02ff35" fill-rule="evenodd" stroke="none"/>
  </g>
</svg>
