<?xml version="1.0" encoding="UTF-8" standalone="no"?>
<svg xmlns:ffdec="https://www.free-decompiler.com/flash" xmlns:xlink="http://www.w3.org/1999/xlink" ffdec:objectType="shape" height="80.85px" width="215.3px" xmlns="http://www.w3.org/2000/svg">
  <g transform="matrix(1.0, 0.0, 0.0, 1.0, 104.9, 63.5)">
    <path d="M76.8 -50.6 Q77.55 -51.65 80.25 -50.35 82.65 -49.25 84.0 -47.75 85.6 -50.35 96.1 -58.6 103.65 -65.2 107.65 -62.9 110.4 -61.25 110.4 -57.35 110.4 -54.4 109.45 -53.0 107.7 -50.6 102.55 -49.75 L95.35 -48.25 91.65 -46.75 88.95 -44.65 Q87.0 -43.0 85.95 -43.0 L85.3 -43.1 86.1 -41.6 87.6 -39.85 Q86.35 -39.1 86.1 -38.05 L85.5 -33.85 Q85.15 -31.25 84.1 -30.05 L83.7 -29.6 88.05 -29.75 Q93.45 -30.05 93.45 -26.5 93.45 -24.85 92.1 -23.95 90.15 -22.85 85.5 -22.85 83.65 -22.85 79.35 -24.25 L76.95 -25.15 Q74.65 -24.2 71.8 -23.5 68.7 -22.75 66.6 -20.45 L66.15 -19.85 67.3 -20.0 68.8 -19.6 70.3 -19.25 Q71.4 -19.25 73.9 -20.5 75.9 -21.1 75.9 -18.4 75.9 -17.6 73.2 -15.8 73.6 -15.4 74.55 -15.35 75.3 -15.25 75.3 -14.75 75.3 -13.15 74.5 -12.8 73.5 -12.25 69.6 -12.25 69.15 -12.25 68.85 -11.9 68.55 -11.5 68.05 -11.5 67.0 -11.5 66.1 -12.5 65.2 -13.55 64.6 -13.55 L63.85 -13.55 Q62.95 -10.3 61.75 -8.05 L61.35 -7.3 Q62.35 -7.25 62.85 -6.65 L63.3 -5.9 Q63.7 -5.45 64.65 -5.3 L66.15 -5.0 Q67.15 -4.6 67.8 -3.55 68.35 -2.75 68.35 -2.2 68.35 0.7 66.1 0.7 L59.05 -1.1 Q57.4 -1.6 56.85 -2.2 L53.95 -0.5 Q49.05 1.85 47.65 3.5 L45.0 6.95 41.05 10.85 40.0 11.65 41.2 13.55 Q41.2 15.5 39.85 16.15 37.3 17.35 28.9 17.35 23.2 17.35 17.7 12.5 L13.35 7.45 Q13.35 4.45 14.8 4.4 15.6 4.4 17.25 5.3 10.45 -1.3 4.9 1.1 1.0 3.2 -1.4 4.0 -5.7 5.6 -10.4 4.7 L-24.2 3.5 Q-23.3 3.85 -22.55 4.6 L-22.8 5.35 Q-23.55 5.6 -27.35 5.3 -26.7 5.8 -26.7 6.5 -26.7 8.05 -28.85 8.6 -31.7 9.4 -32.0 9.65 L-32.25 10.3 Q-32.6 11.0 -34.05 12.2 -36.05 13.85 -37.95 13.85 -39.95 13.85 -43.8 10.6 -47.3 7.6 -47.3 6.95 L-47.25 6.55 -54.95 2.2 Q-56.25 1.45 -58.05 0.95 L-58.5 1.7 Q-59.25 2.65 -60.15 2.65 L-61.35 2.3 Q-62.1 1.9 -62.55 1.9 L-67.8 1.85 Q-68.55 3.05 -70.05 3.05 -70.5 3.05 -71.15 2.65 L-72.35 2.3 Q-73.25 2.3 -76.1 3.5 -78.95 4.6 -80.15 4.6 -84.05 4.6 -84.95 1.4 L-85.05 -2.35 -84.95 -2.5 -85.4 -3.2 Q-85.65 -3.8 -85.5 -4.45 L-85.4 -5.35 -87.0 -6.35 Q-90.65 -8.0 -90.65 -8.45 L-90.45 -9.2 Q-92.7 -10.7 -92.7 -12.85 -92.7 -15.1 -91.1 -15.65 -95.0 -17.45 -95.0 -19.6 -95.0 -20.65 -94.4 -21.35 L-94.4 -21.7 -94.05 -23.6 -93.65 -25.45 Q-92.45 -26.35 -92.25 -27.95 L-93.0 -28.75 -93.0 -29.35 Q-93.0 -33.55 -96.9 -33.4 -100.85 -33.25 -100.85 -29.6 L-100.8 -29.2 Q-102.75 -29.6 -103.95 -32.15 -104.7 -33.65 -104.9 -35.0 -104.9 -42.8 -97.4 -39.2 -94.4 -37.75 -92.25 -35.2 -90.15 -32.65 -89.9 -30.4 L-89.7 -30.05 Q-85.95 -29.2 -85.85 -26.65 L-86.6 -25.9 Q-88.35 -24.8 -90.35 -22.6 L-91.5 -21.35 Q-90.75 -20.65 -89.9 -20.15 L-86.4 -17.95 Q-84.5 -17.15 -83.25 -15.55 -79.25 -10.45 -75.2 -6.4 L-73.25 -4.85 Q-71.7 -3.8 -69.65 -3.25 L-64.25 -2.8 Q-55.8 -3.2 -49.85 -0.1 -40.05 5.75 -38.9 5.75 -37.8 5.75 -35.55 3.5 L-34.65 2.6 -30.2 2.95 -24.95 3.1 -22.85 3.1 Q-7.55 3.1 -4.7 1.25 -1.85 -0.65 7.0 -0.65 12.1 -0.65 18.6 4.4 25.15 9.4 27.7 9.4 29.65 9.4 31.65 8.6 L32.05 9.2 33.7 9.55 Q50.85 0.2 58.45 -12.7 L61.3 -18.2 Q62.85 -21.2 65.05 -23.3 L72.6 -27.7 Q79.65 -32.15 79.65 -34.0 L79.65 -34.25 Q82.0 -36.4 84.6 -39.5 84.6 -43.1 79.6 -48.4 77.95 -50.15 76.8 -50.6 M-32.0 -2.0 L-33.0 -1.9 -33.2 -2.8 Q-32.4 -2.6 -32.0 -2.0 M-34.1 -2.9 L-35.7 -2.6 -35.55 -2.75 -34.8 -2.9 -34.1 -2.9 M62.1 -26.3 L59.5 -23.65 60.7 -26.15 61.5 -26.75 62.1 -26.3 M107.1 -37.15 L106.95 -37.7 Q106.95 -38.8 108.3 -38.65 109.6 -38.6 109.6 -37.6 109.6 -37.1 109.2 -36.7 108.85 -36.4 108.3 -36.4 107.4 -36.4 107.1 -37.15 M93.3 -31.6 L92.85 -32.95 Q92.85 -35.2 96.45 -36.5 100.0 -37.7 100.0 -35.5 100.0 -34.7 98.35 -32.5 96.7 -30.25 95.7 -30.25 94.15 -30.25 93.3 -31.6 M83.95 -17.9 Q83.95 -17.35 83.4 -16.9 82.9 -16.4 82.2 -16.4 79.75 -16.4 79.75 -18.25 79.75 -19.7 81.85 -19.45 83.95 -19.25 83.95 -17.9 M3.25 9.25 L3.85 9.2 Q4.45 9.7 4.75 10.75 L4.35 11.15 3.15 10.0 3.25 9.25 M-101.6 -14.9 Q-99.05 -13.85 -99.05 -11.6 -99.05 -11.05 -99.35 -10.45 -99.8 -9.8 -100.5 -9.8 L-104.15 -13.75 Q-104.15 -15.95 -101.6 -14.9 M-95.6 -13.4 Q-93.9 -12.55 -92.9 -11.6 -93.8 -10.85 -94.05 -9.65 -94.1 -9.05 -95.6 -9.05 -96.75 -9.05 -97.55 -10.9 L-98.15 -12.5 Q-98.15 -14.65 -95.6 -13.4 M-80.3 -5.0 L-80.0 -4.85 -80.3 -5.3 -80.3 -5.0 M-4.05 8.15 L-2.15 8.35 -1.55 9.1 Q-2.25 9.7 -6.05 11.05 -10.2 12.5 -12.15 12.5 -13.05 12.5 -14.1 11.35 -15.2 10.25 -19.4 10.25 L-20.25 10.45 -20.0 11.0 -21.15 10.0 -22.2 8.6 Q-19.4 6.65 -15.0 8.65 -12.75 9.7 -11.0 11.15 -8.9 11.15 -8.0 9.65 -7.1 8.15 -4.05 8.15" fill="#de4830" fill-rule="evenodd" stroke="none"/>
    <path d="M76.75 -50.6 L76.8 -50.6 Q77.95 -50.15 79.6 -48.4 84.6 -43.1 84.6 -39.5 82.0 -36.4 79.65 -34.25 L79.65 -34.0 Q79.65 -32.15 72.6 -27.7 L65.05 -23.3 Q62.85 -21.2 61.3 -18.2 L58.45 -12.7 Q50.85 0.2 33.7 9.55 L32.05 9.2 31.65 8.6 Q29.65 9.4 27.7 9.4 25.15 9.4 18.6 4.4 12.1 -0.65 7.0 -0.65 -1.85 -0.65 -4.7 1.25 -7.55 3.1 -22.85 3.1 L-24.95 3.1 -30.2 2.95 -34.65 2.6 -35.55 3.5 Q-37.8 5.75 -38.9 5.75 -40.05 5.75 -49.85 -0.1 -55.8 -3.2 -64.25 -2.8 L-69.65 -3.25 Q-71.7 -3.8 -73.25 -4.85 L-75.2 -6.4 Q-79.25 -10.45 -83.25 -15.55 -84.5 -17.15 -86.4 -17.95 L-89.9 -20.15 Q-90.75 -20.65 -91.5 -21.35 L-90.35 -22.6 Q-88.35 -24.8 -86.6 -25.9 -87.75 -24.8 -87.8 -23.9 L-87.8 -23.75 Q-87.8 -22.55 -86.55 -21.65 L-81.95 -18.5 -79.25 -15.35 Q-77.0 -12.85 -75.2 -12.85 L-72.8 -12.35 -73.5 -11.75 -67.95 -9.05 Q-64.35 -6.1 -61.1 -6.1 L-60.65 -6.1 Q-48.0 -1.6 -38.1 -1.6 -36.45 -2.0 -35.7 -2.6 L-34.1 -2.9 -34.05 -2.9 -33.95 -2.95 -33.8 -2.95 -33.2 -2.8 -33.0 -1.9 -32.0 -2.0 -31.85 -1.7 Q-31.55 -0.8 -29.1 -0.8 L-12.95 -3.65 5.35 -6.55 Q12.3 -6.55 21.15 -1.7 29.95 3.2 30.75 3.2 L34.0 2.95 34.5 3.05 34.75 2.8 Q42.75 1.25 51.3 -6.5 60.7 -14.9 60.7 -18.85 L60.7 -20.15 Q59.5 -20.3 56.55 -18.8 57.85 -20.35 58.9 -22.55 L59.5 -23.65 62.1 -26.3 62.7 -26.2 Q64.8 -26.2 68.7 -30.05 71.05 -32.35 75.1 -37.4 75.9 -38.35 76.0 -40.15 L76.0 -43.3 Q76.0 -44.45 76.45 -46.7 L76.9 -49.4 76.75 -50.6 M55.6 -18.35 L55.75 -18.55 55.8 -18.5 55.6 -18.35" fill="#f2a955" fill-rule="evenodd" stroke="none"/>
    <path d="M55.75 -18.55 Q55.05 -19.4 55.05 -20.05 55.05 -21.35 58.65 -26.9 62.65 -33.1 65.2 -33.1 66.7 -33.1 66.4 -31.3 67.8 -32.45 70.35 -35.8 72.9 -39.35 72.9 -40.55 L72.4 -43.4 Q71.8 -45.4 71.8 -46.4 71.8 -48.7 74.35 -50.6 76.3 -52.1 76.75 -50.6 L76.9 -49.4 76.45 -46.7 Q76.0 -44.45 76.0 -43.3 L76.0 -40.15 Q75.9 -38.35 75.1 -37.4 71.05 -32.35 68.7 -30.05 64.8 -26.2 62.7 -26.2 L62.1 -26.3 61.5 -26.75 61.15 -27.1 60.7 -26.15 59.5 -23.65 58.9 -22.55 Q57.85 -20.35 56.55 -18.8 59.5 -20.3 60.7 -20.15 L60.7 -18.85 Q60.7 -14.9 51.3 -6.5 42.75 1.25 34.75 2.8 L34.0 2.95 30.75 3.2 Q29.95 3.2 21.15 -1.7 12.3 -6.55 5.35 -6.55 L-12.95 -3.65 -29.1 -0.8 Q-31.55 -0.8 -31.85 -1.7 L-32.0 -2.0 Q-32.4 -2.6 -33.2 -2.8 L-33.8 -2.95 -33.95 -2.95 -34.8 -2.9 -35.55 -2.75 -35.7 -2.6 Q-36.45 -2.0 -38.1 -1.6 -48.0 -1.6 -60.65 -6.1 L-61.1 -6.1 Q-64.35 -6.1 -67.95 -9.05 L-73.5 -11.75 -72.8 -12.35 -75.2 -12.85 Q-77.0 -12.85 -79.25 -15.35 L-81.95 -18.5 -86.55 -21.65 Q-87.8 -22.55 -87.8 -23.75 L-87.8 -23.9 Q-87.75 -24.8 -86.6 -25.9 L-85.85 -26.65 -85.35 -27.1 Q-82.8 -29.15 -81.3 -28.7 -79.2 -27.4 -77.1 -25.3 L-73.2 -21.7 Q-71.7 -20.5 -70.25 -18.2 -68.9 -15.95 -67.1 -14.65 L-63.05 -11.75 -50.25 -10.9 Q-45.75 -11.3 -40.2 -8.15 L-37.2 -6.2 -35.0 -6.65 -23.55 -8.15 Q-15.8 -9.55 2.35 -11.75 25.9 -11.75 23.1 -6.2 26.7 -6.1 28.8 -4.4 30.9 -2.6 33.0 -2.6 35.1 -2.6 40.2 -7.25 L45.6 -12.4 Q51.75 -16.4 55.6 -18.35 L55.8 -18.5 55.75 -18.55" fill="#ffff8c" fill-rule="evenodd" stroke="none"/>
  </g>
</svg>
