<?xml version="1.0" encoding="UTF-8" standalone="no"?>
<svg xmlns:ffdec="https://www.free-decompiler.com/flash" xmlns:xlink="http://www.w3.org/1999/xlink" ffdec:objectType="shape" height="70.45px" width="300.4px" xmlns="http://www.w3.org/2000/svg">
  <g transform="matrix(1.0, 0.0, 0.0, 1.0, 150.2, 35.25)">
    <path d="M45.95 -2.25 L46.1 -2.45 46.15 -2.4 45.95 -2.25 M67.1 -34.5 L67.15 -34.5 Q68.3 -34.05 69.95 -32.3 72.5 -29.6 73.75 -27.35 73.4 -26.85 73.4 -26.3 L73.45 -25.5 Q73.75 -24.9 74.8 -24.75 L74.95 -23.4 Q72.35 -20.3 70.0 -18.15 L70.0 -17.9 Q70.0 -16.05 62.95 -11.6 L55.4 -7.2 Q53.2 -5.1 51.65 -2.1 L48.8 3.4 Q41.2 16.3 24.05 25.65 L22.4 25.3 22.0 24.7 Q20.0 25.5 18.05 25.5 15.5 25.5 8.95 20.5 2.45 15.45 -2.65 15.45 -11.5 15.45 -14.35 17.35 -17.2 19.2 -32.5 19.2 L-44.3 18.7 -45.2 19.6 Q-47.45 21.85 -48.55 21.85 -49.7 21.85 -59.5 16.0 -65.45 12.9 -73.9 13.3 -80.9 13.65 -84.85 9.7 -88.9 5.65 -92.9 0.55 -94.15 -1.05 -96.05 -1.85 -98.5 -3.0 -101.15 -5.25 L-100.0 -6.5 -99.8 -6.75 -99.25 -6.9 Q-98.05 -7.2 -97.45 -7.65 -97.45 -6.45 -96.2 -5.55 -92.8 -3.35 -91.6 -2.4 L-88.9 0.75 Q-86.65 3.25 -84.85 3.25 -83.8 3.25 -82.45 3.75 L-83.15 4.35 Q-80.65 5.7 -77.6 7.05 -74.0 10.0 -70.75 10.0 L-70.3 10.0 Q-57.65 14.5 -47.75 14.5 -46.1 14.1 -45.35 13.5 L-43.75 13.2 -43.7 13.2 -43.6 13.15 -43.45 13.15 -42.85 13.3 -42.65 14.2 -41.65 14.1 -41.5 14.4 Q-41.2 15.3 -38.75 15.3 L-22.6 12.45 Q-6.5 9.55 -4.3 9.55 2.65 9.55 11.5 14.4 20.3 19.3 21.1 19.3 L24.35 19.05 24.85 19.15 25.1 18.9 Q33.1 17.35 41.65 9.6 51.05 1.2 51.05 -2.75 L51.05 -4.05 Q49.85 -4.2 46.9 -2.7 48.2 -4.25 49.25 -6.45 L49.85 -7.55 52.45 -10.2 53.05 -10.1 Q55.15 -10.1 59.05 -13.95 61.4 -16.25 65.45 -21.3 66.25 -22.25 66.35 -24.05 L66.35 -27.2 Q66.35 -28.35 66.8 -30.6 L67.25 -33.3 67.1 -34.5" fill="#f2a955" fill-rule="evenodd" stroke="none"/>
    <path d="M67.15 -34.5 Q67.9 -35.55 70.6 -34.25 73.0 -33.15 74.35 -31.65 L74.65 -32.1 74.95 -30.8 Q75.25 -29.4 75.5 -28.8 L76.15 -29.25 76.9 -26.25 77.05 -25.65 76.6 -25.25 77.35 -24.35 78.2 -24.5 Q82.45 -25.05 84.05 -21.45 L87.25 -21.05 87.95 -20.4 Q86.9 -19.1 84.55 -18.95 L81.7 -18.9 79.0 -18.8 77.45 -19.05 Q77.0 -19.05 76.75 -17.9 76.6 -17.0 75.7 -16.85 L75.05 -14.85 74.45 -14.4 73.3 -13.5 74.75 -13.55 74.45 -13.4 Q73.0 -12.45 70.45 -11.9 68.35 -11.55 66.95 -10.35 L67.15 -10.2 Q68.05 -9.75 68.9 -9.45 L68.9 -9.5 68.95 -10.25 72.95 -9.9 73.7 -10.05 74.8 -9.75 75.2 -9.35 77.15 -8.9 77.2 -8.6 Q76.85 -8.3 75.55 -8.0 L73.9 -7.8 72.95 -7.5 71.0 -7.05 Q68.9 -7.05 66.55 -8.7 L65.75 -9.3 64.4 -8.0 62.15 -7.4 Q59.05 -6.65 56.95 -4.35 L56.5 -3.75 56.9 -3.8 Q56.3 -3.05 56.0 -1.85 L56.15 -1.8 54.85 0.45 56.8 0.9 Q61.85 2.25 64.4 4.2 64.0 5.95 59.9 5.95 58.9 5.95 54.95 3.85 L54.1 3.4 53.65 5.1 53.5 4.8 52.1 8.05 Q49.4 13.05 44.3 15.6 39.4 17.95 38.0 19.6 36.85 21.55 35.35 23.05 L31.4 26.95 Q28.1 29.65 24.95 29.65 L23.65 29.55 23.6 29.7 22.55 29.7 22.3 29.5 19.25 29.1 19.3 29.65 19.3 29.95 19.85 29.5 22.15 29.7 22.3 29.8 20.95 30.1 19.45 30.45 19.15 30.4 19.1 30.45 Q19.25 30.7 18.25 30.7 16.7 30.7 15.55 30.1 14.45 29.4 14.45 28.6 L14.45 27.55 Q11.9 26.05 10.15 24.15 1.85 14.35 -4.75 17.2 -8.65 19.3 -11.05 20.1 -15.35 21.7 -20.05 20.8 -27.1 19.45 -41.0 19.45 -41.5 19.45 -43.4 23.05 -45.25 26.65 -49.1 26.65 L-54.95 23.7 -64.6 18.3 Q-67.7 16.5 -73.7 15.75 L-73.85 15.75 Q-73.7 16.15 -73.7 16.6 -73.7 17.4 -74.45 18.7 -75.35 20.2 -76.3 20.2 L-76.75 20.2 Q-77.45 22.0 -81.7 23.05 L-87.5 24.0 -87.65 24.0 -90.5 25.35 -92.9 27.45 -94.4 28.75 -95.6 29.8 Q-96.95 30.85 -98.6 31.45 L-100.25 31.8 -102.25 31.95 Q-105.85 31.95 -107.05 29.55 -107.65 28.35 -107.6 27.0 -107.6 21.55 -102.35 17.55 L-97.75 14.1 -97.55 12.55 -97.9 11.85 -98.35 10.8 Q-99.2 10.2 -100.25 9.9 L-100.85 9.75 -100.9 9.75 Q-101.6 10.35 -103.6 10.35 -105.4 10.35 -106.85 8.85 -107.95 7.65 -107.95 7.0 -107.95 5.35 -104.75 4.5 L-102.35 4.15 -102.35 3.45 Q-102.35 0.6 -99.95 1.75 -97.75 2.7 -95.8 6.1 L-95.0 6.7 Q-93.05 8.4 -92.45 10.6 -92.0 11.95 -90.4 13.75 -88.3 16.0 -86.35 16.0 L-83.6 15.4 -81.85 14.95 -86.3 14.55 Q-86.95 14.55 -88.25 13.15 -89.35 11.95 -91.25 8.8 L-93.7 4.15 Q-94.3 2.85 -96.5 1.95 L-99.95 0.75 Q-104.3 -0.95 -104.6 -3.15 L-108.95 -2.7 -120.2 -1.05 Q-124.25 -1.05 -125.6 -1.7 -126.95 -2.4 -128.9 -2.4 L-134.05 -2.6 Q-135.5 -2.45 -136.4 -1.8 -137.5 -0.9 -138.65 -0.9 -140.5 -0.9 -141.05 -1.95 L-141.8 -1.8 Q-142.3 -2.55 -142.3 -3.15 L-142.3 -3.9 -142.15 -4.05 -141.25 -3.15 -141.2 -3.5 Q-141.2 -7.55 -134.3 -9.45 L-111.8 -8.3 -109.15 -7.95 Q-107.6 -8.75 -103.75 -9.5 L-95.8 -10.25 -94.55 -10.05 Q-95.0 -9.15 -95.6 -8.75 -96.1 -8.4 -97.1 -8.0 L-97.45 -7.65 Q-98.05 -7.2 -99.25 -6.9 L-99.8 -6.75 -100.55 -6.5 -100.0 -6.5 -101.15 -5.25 Q-98.5 -3.0 -96.05 -1.85 -94.15 -1.05 -92.9 0.55 -88.9 5.65 -84.85 9.7 -80.9 13.65 -73.9 13.3 -65.45 12.9 -59.5 16.0 -49.7 21.85 -48.55 21.85 -47.45 21.85 -45.2 19.6 L-44.3 18.7 -32.5 19.2 Q-17.2 19.2 -14.35 17.35 -11.5 15.45 -2.65 15.45 2.45 15.45 8.95 20.5 15.5 25.5 18.05 25.5 20.0 25.5 22.0 24.7 L22.4 25.3 24.05 25.65 Q41.2 16.3 48.8 3.4 L51.65 -2.1 Q53.2 -5.1 55.4 -7.2 L62.95 -11.6 Q70.0 -16.05 70.0 -17.9 L70.0 -18.15 Q72.35 -20.3 74.95 -23.4 L74.8 -24.75 Q73.75 -24.9 73.45 -25.5 L73.4 -26.3 Q73.4 -26.85 73.75 -27.35 72.5 -29.6 69.95 -32.3 68.3 -34.05 67.15 -34.5 M52.45 -10.2 L49.85 -7.55 51.05 -10.05 51.85 -10.65 Q52.1 -10.35 52.45 -10.2 M-41.65 14.1 L-42.65 14.2 -42.85 13.3 Q-42.05 13.5 -41.65 14.1 M-43.75 13.2 L-45.35 13.5 -45.2 13.35 -44.45 13.2 -43.75 13.2 M98.5 -19.25 L97.15 -19.5 97.7 -19.05 93.8 -19.1 93.65 -19.2 93.55 -19.8 Q93.55 -21.75 95.45 -20.7 L95.45 -21.3 103.3 -22.8 Q104.75 -22.85 107.15 -21.95 109.4 -21.15 109.9 -20.0 L109.9 -20.25 Q109.9 -23.15 116.8 -21.3 121.75 -19.25 123.55 -19.5 L128.65 -20.25 Q134.35 -20.25 137.3 -17.75 L138.65 -16.35 140.05 -16.4 140.15 -16.05 Q140.15 -15.6 139.55 -15.3 L139.15 -15.05 139.15 -14.75 Q139.15 -12.65 137.5 -12.65 120.7 -13.65 114.7 -15.45 110.75 -16.7 110.05 -19.1 109.9 -17.9 108.35 -17.9 106.9 -17.9 105.7 -18.5 L103.7 -19.65 102.95 -19.65 Q102.8 -18.75 101.95 -18.15 101.0 -17.4 99.55 -17.4 98.65 -17.4 98.45 -18.05 L98.45 -18.9 98.5 -19.25 M85.3 -7.05 Q86.65 -7.7 87.95 -6.5 L89.65 -4.4 Q87.55 -5.9 86.75 -5.9 85.4 -5.9 84.7 -5.4 84.05 -4.95 83.3 -4.95 81.7 -4.95 81.35 -5.7 L81.25 -6.5 Q81.25 -8.6 81.95 -9.45 83.0 -10.7 85.3 -7.05 M96.4 -8.4 Q98.75 -7.85 101.9 -6.35 L103.25 -6.95 Q104.5 -7.55 106.75 -7.55 111.8 -7.55 116.05 -4.65 119.5 -2.3 119.5 -1.1 119.5 0.75 116.9 0.75 L101.9 -1.5 Q99.8 -1.95 98.05 -3.05 L96.2 -4.55 93.65 -3.3 Q92.6 -3.3 92.15 -4.05 L91.9 -4.8 Q91.9 -9.45 96.4 -8.4 M150.2 -13.4 Q150.2 -11.75 147.5 -11.75 145.6 -11.75 145.1 -12.6 144.95 -12.9 144.95 -13.55 L145.15 -14.9 Q145.45 -15.45 146.8 -16.25 147.7 -15.95 147.35 -15.05 148.75 -15.35 149.6 -14.45 150.2 -13.85 150.2 -13.4 M126.25 3.6 L126.2 2.8 Q126.2 1.95 126.7 1.8 L128.95 1.9 Q129.2 1.75 129.2 2.7 L128.95 3.4 128.15 3.85 126.25 3.6 M82.0 7.2 L79.9 7.2 Q78.95 8.2 78.4 8.2 75.55 8.2 75.55 6.75 75.55 6.45 76.1 6.25 L77.65 5.5 78.4 4.65 79.1 3.85 Q81.2 2.7 82.75 6.1 82.75 7.15 82.0 7.2 M92.2 31.9 L91.1 32.2 Q89.65 32.2 89.65 30.85 89.65 29.35 91.1 29.25 92.45 29.1 92.45 30.6 L92.2 31.9 M85.7 31.45 Q86.95 30.6 86.95 33.1 L86.8 34.05 85.7 34.2 84.35 34.05 Q84.35 32.35 85.7 31.45 M73.4 5.7 L68.8 6.1 Q68.0 6.1 67.75 5.55 L67.75 4.95 Q67.75 3.7 69.05 3.7 70.15 3.7 73.7 4.75 73.75 5.5 73.4 5.7 M67.4 19.45 L69.95 20.5 76.1 20.85 76.3 21.0 76.4 21.55 Q76.4 22.6 72.1 24.1 71.05 24.1 66.1 22.6 L59.45 20.55 59.15 21.45 Q58.9 21.85 58.3 21.85 56.8 21.85 56.05 19.95 55.6 19.05 55.55 18.15 55.55 16.95 56.35 16.6 57.35 16.3 58.55 17.5 61.4 19.0 65.3 18.45 L67.4 19.45 M50.15 14.85 Q51.55 14.85 53.45 16.6 L53.3 17.1 52.45 17.35 Q50.05 17.35 50.05 15.75 L50.15 14.85 M73.1 32.35 L73.15 32.95 73.1 33.7 72.65 34.2 71.65 32.35 73.1 32.35 M79.0 33.85 Q79.0 33.3 79.1 33.4 L79.1 33.45 80.65 33.7 80.8 34.0 80.15 34.2 Q79.0 34.8 79.0 33.85 M8.15 27.9 Q8.65 28.6 11.9 29.65 16.15 31.05 20.8 31.05 24.8 31.05 26.65 30.3 L28.45 29.5 30.7 29.95 Q32.05 30.45 32.05 31.2 32.05 32.35 28.3 33.6 23.65 35.2 17.0 35.2 10.85 35.2 7.25 32.05 4.7 29.95 4.7 28.45 4.7 27.1 5.5 26.55 6.5 25.8 8.15 27.9 M-148.15 -2.75 Q-147.95 -2.85 -147.95 -1.85 -147.95 -0.75 -149.45 -0.45 L-149.65 -0.55 -149.95 -0.75 -150.2 -1.65 Q-150.2 -2.5 -149.65 -2.75 -149.15 -3.0 -148.15 -2.75 M-37.0 23.35 L-38.3 23.4 Q-38.8 23.4 -39.55 24.85 -40.25 26.1 -40.85 26.55 -40.9 28.15 -42.55 30.1 -44.9 32.7 -48.7 32.7 -54.05 32.7 -60.2 24.45 -60.2 23.1 -58.75 23.35 -57.25 23.5 -54.8 25.3 L-53.3 27.25 Q-51.65 28.75 -48.55 28.75 L-47.9 28.65 -47.95 28.2 Q-47.95 27.55 -46.6 27.25 L-45.35 27.1 -45.25 27.0 Q-43.6 25.2 -42.65 25.2 L-42.2 25.3 Q-42.1 23.85 -40.6 22.2 -38.5 19.9 -35.9 22.45 L-37.0 23.35 M-24.95 32.95 Q-27.8 32.95 -28.9 31.8 -29.05 32.2 -29.05 31.2 -29.05 29.85 -26.6 30.45 -24.4 31.0 -23.2 31.95 -24.05 32.95 -24.95 32.95 M-21.4 32.35 L-17.65 32.55 -17.6 32.8 Q-17.95 33.3 -19.3 33.3 -21.1 33.3 -21.35 32.85 -21.2 32.4 -21.4 32.35 M-12.95 30.1 L-12.7 30.15 Q-12.55 30.25 -12.55 30.85 -12.55 31.35 -13.6 31.95 L-15.2 33.1 Q-16.1 32.7 -16.1 31.8 -16.1 30.9 -14.95 30.3 L-12.95 30.1 M-103.15 7.45 L-103.0 7.75 -102.85 7.3 -103.15 7.45 M-119.15 6.85 L-114.95 6.45 -114.4 7.15 -115.1 7.95 -116.05 8.5 -118.9 8.25 -119.15 6.85 M-103.85 27.6 Q-104.0 27.45 -104.15 27.4 L-103.75 28.0 -103.85 27.6 M-99.35 25.2 L-99.25 25.3 -98.35 24.55 -99.25 25.0 -99.35 25.2 M-130.15 8.35 Q-129.95 8.1 -129.95 9.1 -129.95 9.75 -130.45 10.35 -131.0 10.9 -131.5 10.9 L-132.65 10.75 Q-132.65 9.9 -132.2 9.25 -131.5 8.25 -130.15 8.35" fill="#de4830" fill-rule="evenodd" stroke="none"/>
    <path d="M-95.8 -10.25 L-95.0 -11.0 Q-92.45 -13.05 -90.95 -12.6 -88.85 -11.3 -86.75 -9.2 L-82.85 -5.6 Q-81.35 -4.4 -79.9 -2.1 -78.55 0.15 -76.75 1.45 L-72.7 4.35 -59.9 5.2 Q-55.4 4.8 -49.85 7.95 L-46.85 9.9 -44.65 9.45 -33.2 7.95 -7.3 4.35 Q16.25 4.35 13.45 9.9 17.05 10.0 19.15 11.7 21.25 13.5 23.35 13.5 25.45 13.5 30.55 8.85 L35.95 3.7 Q42.1 -0.3 45.95 -2.25 L46.15 -2.4 46.1 -2.45 Q45.4 -3.3 45.4 -3.95 45.4 -5.25 49.0 -10.8 53.0 -17.0 55.55 -17.0 57.05 -17.0 56.75 -15.2 58.15 -16.35 60.7 -19.7 63.25 -23.25 63.25 -24.45 L62.75 -27.3 Q62.15 -29.3 62.15 -30.3 62.15 -32.6 64.7 -34.5 66.65 -36.0 67.1 -34.5 L67.25 -33.3 66.8 -30.6 Q66.35 -28.35 66.35 -27.2 L66.35 -24.05 Q66.25 -22.25 65.45 -21.3 61.4 -16.25 59.05 -13.95 55.15 -10.1 53.05 -10.1 L52.45 -10.2 Q52.1 -10.35 51.85 -10.65 L51.5 -11.0 51.05 -10.05 49.85 -7.55 49.25 -6.45 Q48.2 -4.25 46.9 -2.7 49.85 -4.2 51.05 -4.05 L51.05 -2.75 Q51.05 1.2 41.65 9.6 33.1 17.35 25.1 18.9 L24.35 19.05 21.1 19.3 Q20.3 19.3 11.5 14.4 2.65 9.55 -4.3 9.55 -6.5 9.55 -22.6 12.45 L-38.75 15.3 Q-41.2 15.3 -41.5 14.4 L-41.65 14.1 Q-42.05 13.5 -42.85 13.3 L-43.45 13.15 -43.6 13.15 -44.45 13.2 -45.2 13.35 -45.35 13.5 Q-46.1 14.1 -47.75 14.5 -57.65 14.5 -70.3 10.0 L-70.75 10.0 Q-74.0 10.0 -77.6 7.05 -80.65 5.7 -83.15 4.35 L-82.45 3.75 Q-83.8 3.25 -84.85 3.25 -86.65 3.25 -88.9 0.75 L-91.6 -2.4 Q-92.8 -3.35 -96.2 -5.55 -97.45 -6.45 -97.45 -7.65 L-97.1 -8.0 Q-96.1 -8.4 -95.6 -8.75 -95.0 -9.15 -94.55 -10.05 L-95.8 -10.25" fill="#ffff8c" fill-rule="evenodd" stroke="none"/>
  </g>
</svg>
