<?xml version="1.0" encoding="UTF-8" standalone="no"?>
<svg xmlns:ffdec="https://www.free-decompiler.com/flash" xmlns:xlink="http://www.w3.org/1999/xlink" ffdec:objectType="shape" height="49.3px" width="84.9px" xmlns="http://www.w3.org/2000/svg">
  <g transform="matrix(1.0, 0.0, 0.0, 1.0, 75.1, 25.55)">
    <path d="M7.15 -13.6 Q7.9 -12.55 8.25 -11.25 L8.6 -9.65 9.2 -7.25 Q9.8 -4.3 9.8 -2.0 9.8 3.0 7.75 8.15 6.6 11.0 3.45 13.7 0.45 17.05 -2.25 17.25 -2.9 16.2 -3.75 16.65 -4.85 16.1 -5.45 15.9 -6.5 15.45 -7.1 15.45 L-9.2 15.75 -9.3 15.75 -9.9 15.95 Q-11.75 16.65 -13.8 18.1 L-14.35 18.8 -15.5 19.85 Q-16.25 20.85 -17.8 21.85 -19.8 23.4 -21.85 23.55 L-22.1 23.75 -23.5 23.15 -25.2 22.1 -24.9 21.4 -24.6 21.4 -24.4 21.4 -23.75 21.0 -22.6 20.35 -20.4 17.75 -18.25 15.3 -19.45 14.65 Q-21.15 14.65 -25.25 17.05 -29.4 19.35 -32.65 19.35 L-36.9 18.9 -37.0 18.9 -37.45 18.7 -38.7 18.35 -39.8 17.95 Q-42.8 17.05 -44.35 17.05 -46.4 17.05 -48.5 18.25 L-49.8 19.05 Q-50.15 19.65 -51.25 20.15 L-53.4 20.8 Q-57.9 20.8 -64.8 13.85 -68.65 9.95 -71.45 5.75 L-73.55 3.15 -73.85 2.75 -74.4 1.35 -75.1 -0.15 -74.5 -0.3 -73.95 -0.45 -73.8 -0.25 -73.6 -0.15 -71.45 -0.15 Q-66.8 -2.3 -61.8 -7.8 -58.15 -11.45 -56.45 -13.45 L-55.8 -14.45 -55.1 -15.6 -54.55 -16.2 -54.55 -16.35 -53.25 -17.2 -52.6 -17.6 Q-51.55 -18.35 -51.1 -18.35 L-50.9 -18.2 -50.75 -18.35 -48.05 -17.8 -45.55 -17.2 -43.85 -17.35 -44.65 -18.3 -46.35 -20.35 Q-47.2 -21.25 -48.7 -22.0 -49.8 -22.65 -49.8 -23.1 -49.8 -24.3 -46.5 -24.85 L-43.25 -24.15 Q-41.4 -23.55 -40.35 -22.85 L-37.5 -20.8 Q-35.4 -19.5 -34.3 -19.5 L-31.55 -19.9 -31.3 -19.8 -30.6 -20.35 -30.55 -20.4 -28.9 -21.2 Q-25.25 -22.8 -22.5 -22.8 -20.15 -22.8 -16.2 -20.55 -12.3 -18.35 -9.3 -18.35 L-8.45 -18.6 -9.55 -20.2 Q-11.35 -23.15 -13.95 -23.15 L-14.15 -22.95 -14.35 -22.8 -15.0 -22.85 -15.1 -23.45 Q-15.1 -24.7 -12.9 -25.3 L-10.65 -25.55 Q-7.5 -25.55 -3.95 -21.35 -3.05 -20.35 -0.7 -19.05 L0.45 -18.8 0.65 -19.05 2.0 -18.35 3.6 -17.45 3.75 -17.3 Q5.5 -16.2 6.7 -14.2 L7.15 -13.6 M-22.2 22.0 L-20.65 21.7 -20.3 21.45 Q-17.4 19.8 -16.55 19.05 L-14.8 17.25 -13.0 15.35 -11.85 14.3 -11.8 14.3 Q-9.6 13.15 -8.05 13.15 L-6.3 13.35 -4.7 13.75 -3.7 14.3 -3.15 14.3 -1.8 14.5 Q-0.4 14.5 1.3 13.15 L1.25 12.9 2.4 12.15 2.5 12.05 3.5 10.95 5.2 8.65 6.1 7.55 6.45 6.8 6.9 5.35 7.7 1.5 8.2 -2.3 8.05 -4.5 7.75 -6.8 Q7.25 -9.65 6.25 -11.55 L4.75 -14.0 Q3.8 -15.2 2.25 -16.05 L-0.05 -17.3 Q-2.35 -17.6 -4.6 -20.1 -7.5 -23.3 -9.7 -23.95 L-11.2 -23.95 -10.7 -23.4 -10.05 -23.0 -8.9 -21.35 -7.75 -19.6 -7.15 -19.2 Q-6.75 -18.8 -6.75 -18.1 -6.75 -17.35 -7.05 -17.2 L-7.6 -17.5 Q-8.55 -16.9 -10.0 -16.9 -12.1 -16.9 -16.55 -19.05 -21.0 -21.2 -22.5 -21.2 -25.2 -21.2 -28.35 -19.6 -31.55 -17.95 -33.1 -17.95 L-33.2 -17.95 -34.3 -17.8 Q-36.0 -17.8 -40.45 -20.95 L-43.5 -22.65 -45.05 -22.95 -46.5 -23.15 -47.2 -22.85 -47.2 -22.8 -46.05 -21.8 -44.75 -20.2 Q-44.35 -19.4 -43.6 -18.95 L-42.3 -17.95 -42.2 -17.75 -42.15 -17.35 -42.4 -17.0 Q-42.5 -16.75 -42.7 -16.6 L-43.65 -16.05 -45.5 -15.7 Q-48.25 -16.2 -49.6 -16.8 L-50.0 -16.65 -50.1 -16.9 -50.1 -17.0 -50.4 -17.2 Q-51.4 -17.05 -52.9 -16.0 -54.55 -14.75 -55.45 -13.3 -57.35 -10.5 -60.75 -7.25 L-65.95 -2.05 Q-67.95 -0.25 -69.5 0.45 L-71.0 1.0 -72.95 1.05 -72.25 2.2 -69.15 7.2 -66.55 10.7 -63.9 13.7 Q-61.9 15.45 -58.9 17.25 -55.15 19.5 -53.3 19.5 -52.45 19.5 -51.15 18.9 L-50.95 18.7 Q-50.85 17.9 -49.6 16.9 -48.5 15.95 -47.65 15.65 L-44.35 15.05 -42.35 15.15 Q-41.45 15.3 -40.15 15.9 L-38.05 16.65 -36.95 17.05 Q-34.7 17.75 -32.65 17.75 -29.6 17.75 -25.55 15.5 -21.45 13.3 -20.25 13.3 -19.35 13.3 -17.8 14.05 -17.35 14.2 -17.0 14.5 L-16.0 14.3 Q-15.6 14.3 -15.9 14.9 L-15.95 15.15 Q-15.75 16.05 -16.4 15.9 L-16.9 15.8 -17.5 16.05 -18.55 17.25 -19.65 18.65 -21.85 21.3 -22.25 21.8 -22.55 22.0 -22.2 22.0" fill="#028701" fill-rule="evenodd" stroke="none"/>
    <path d="M-22.25 21.8 L-21.85 21.3 -19.65 18.65 -18.55 17.25 -17.5 16.05 -16.9 15.8 -16.4 15.9 Q-15.75 16.05 -15.95 15.15 L-15.9 14.9 Q-15.6 14.3 -16.0 14.3 L-17.0 14.5 Q-17.35 14.2 -17.8 14.05 -19.35 13.3 -20.25 13.3 -21.45 13.3 -25.55 15.5 -29.6 17.75 -32.65 17.75 -34.7 17.75 -36.95 17.05 L-38.05 16.65 -40.15 15.9 Q-41.45 15.3 -42.35 15.15 L-44.35 15.05 -47.65 15.65 Q-48.5 15.95 -49.6 16.9 -50.85 17.9 -50.95 18.7 L-51.15 18.9 Q-52.45 19.5 -53.3 19.5 -55.15 19.5 -58.9 17.25 -61.9 15.45 -63.9 13.7 L-66.55 10.7 -69.15 7.2 -72.25 2.2 -72.95 1.05 -71.0 1.0 -69.5 0.45 Q-67.95 -0.25 -65.95 -2.05 L-60.75 -7.25 Q-57.35 -10.5 -55.45 -13.3 -54.55 -14.75 -52.9 -16.0 -51.4 -17.05 -50.4 -17.2 L-50.1 -17.0 -50.1 -16.9 -50.0 -16.65 -49.6 -16.8 Q-48.25 -16.2 -45.5 -15.7 L-43.65 -16.05 -42.7 -16.6 Q-42.5 -16.75 -42.4 -17.0 L-42.15 -17.35 -42.2 -17.75 -42.3 -17.95 -43.6 -18.95 Q-44.35 -19.4 -44.75 -20.2 L-46.05 -21.8 -47.2 -22.8 -47.2 -22.85 -46.5 -23.15 -45.05 -22.95 -43.5 -22.65 -40.45 -20.95 Q-36.0 -17.8 -34.3 -17.8 L-33.2 -17.95 -33.1 -17.95 Q-31.55 -17.95 -28.35 -19.6 -25.2 -21.2 -22.5 -21.2 -21.0 -21.2 -16.55 -19.05 -12.1 -16.9 -10.0 -16.9 -8.55 -16.9 -7.6 -17.5 L-7.05 -17.2 Q-6.75 -17.35 -6.75 -18.1 -6.75 -18.8 -7.15 -19.2 L-7.75 -19.6 -8.9 -21.35 -10.05 -23.0 -10.7 -23.4 -11.2 -23.95 -9.7 -23.95 Q-7.5 -23.3 -4.6 -20.1 -2.35 -17.6 -0.05 -17.3 L2.25 -16.05 Q3.8 -15.2 4.75 -14.0 L6.25 -11.55 Q7.25 -9.65 7.75 -6.8 L8.05 -4.5 8.2 -2.3 7.7 1.5 6.9 5.35 6.45 6.8 6.1 7.55 5.2 8.65 3.5 10.95 2.5 12.05 2.4 12.15 1.25 12.9 1.3 13.15 Q-0.4 14.5 -1.8 14.5 L-3.15 14.3 -3.7 14.3 -4.7 13.75 -6.3 13.35 -8.05 13.15 Q-9.6 13.15 -11.8 14.3 L-11.85 14.3 -13.0 15.35 -14.8 17.25 -16.55 19.05 Q-17.4 19.8 -20.3 21.45 L-20.65 21.7 -22.2 22.0 -22.25 21.8" fill="url(#gradient0)" fill-rule="evenodd" stroke="none"/>
  </g>
  <defs>
    <linearGradient gradientTransform="matrix(0.0251, -0.0031, 8.0E-4, 0.0293, -27.35, -1.45)" gradientUnits="userSpaceOnUse" id="gradient0" spreadMethod="pad" x1="-819.2" x2="819.2">
      <stop offset="0.0" stop-color="#0ad828"/>
      <stop offset="1.0" stop-color="#96e99d"/>
    </linearGradient>
  </defs>
</svg>
