<?xml version="1.0" encoding="UTF-8" standalone="no"?>
<svg xmlns:ffdec="https://www.free-decompiler.com/flash" xmlns:xlink="http://www.w3.org/1999/xlink" ffdec:objectType="shape" height="49.35px" width="84.45px" xmlns="http://www.w3.org/2000/svg">
  <g transform="matrix(1.0, 0.0, 0.0, 1.0, 74.65, 24.95)">
    <path d="M-38.55 23.85 L-38.5 23.85 -38.55 23.9 -38.55 23.85 M0.0 15.95 L0.05 15.9 0.15 15.9 0.0 15.95" fill="#137d32" fill-rule="evenodd" stroke="none"/>
    <path d="M-68.2 1.6 L-68.2 1.7 -68.35 1.7 -68.2 1.6 M-31.45 -24.95 Q-29.05 -24.95 -26.55 -23.0 L-24.85 -21.7 -24.65 -21.65 -24.55 -21.65 -24.6 -21.55 -24.5 -20.9 Q-24.65 -20.7 -24.9 -20.7 L-25.25 -20.35 -26.25 -19.95 -26.55 -19.95 -27.0 -19.6 -27.55 -19.75 -27.6 -19.75 -28.2 -19.65 -30.3 -19.95 Q-31.35 -20.35 -32.3 -21.2 L-32.55 -21.4 Q-34.4 -22.4 -36.05 -22.35 L-36.15 -22.7 -36.4 -23.0 Q-36.35 -23.8 -36.1 -23.95 L-35.75 -23.85 -35.15 -24.1 -34.65 -24.15 -34.15 -24.4 -33.9 -24.55 -32.75 -24.75 -32.05 -24.95 -31.85 -24.95 -31.65 -24.95 -31.45 -24.95 M-29.1 -23.3 L-30.35 -23.55 -31.75 -23.85 -31.8 -23.85 -31.95 -23.85 -33.75 -23.3 -32.8 -22.7 -30.55 -21.55 Q-29.6 -20.9 -27.15 -20.9 L-26.8 -21.05 -26.3 -21.25 -27.55 -22.35 -29.0 -23.3 -29.1 -23.3 M-38.55 23.9 L-39.2 24.15 -39.7 24.3 -39.95 24.3 -40.4 24.4 -42.9 24.0 -43.0 23.55 -42.85 22.95 Q-42.65 22.15 -41.75 21.85 L-40.55 21.7 -40.1 21.8 -39.9 21.7 Q-38.25 21.7 -37.95 22.3 -37.65 22.3 -37.45 22.85 L-37.95 23.3 -38.6 23.6 -38.75 23.75 -38.55 23.85 -38.55 23.9 M-42.15 23.25 L-40.4 23.45 -39.65 23.45 -38.9 22.85 Q-39.75 22.4 -39.85 22.4 L-40.3 22.3 -40.4 22.3 -40.95 22.4 -42.15 23.15 -42.2 23.25 -42.15 23.25" fill="#00b10d" fill-rule="evenodd" stroke="none"/>
    <path d="M-73.05 1.3 L-71.45 3.5 Q-70.5 4.6 -69.7 6.4 L-69.65 6.4 -67.3 8.7 Q-66.55 9.4 -64.95 11.45 L-64.9 11.55 -60.4 14.75 Q-55.4 18.5 -50.2 18.5 L-47.6 18.05 -47.45 18.05 -45.0 16.9 Q-41.45 15.15 -40.0 14.75 L-34.3 14.3 -30.05 14.2 Q-26.7 14.2 -22.8 15.65 L-21.9 15.8 Q-21.3 15.8 -20.95 16.05 -20.05 16.9 -19.25 17.05 L-17.3 17.5 Q-17.05 17.5 -16.8 17.65 L-16.7 17.65 -15.05 17.6 Q-12.8 17.2 -11.75 16.5 L-10.15 15.5 Q-9.4 15.0 -8.85 14.8 -8.25 14.45 -7.05 14.3 L-3.15 14.3 Q-1.9 14.3 1.3 13.3 L1.25 12.9 2.4 12.15 4.6 9.95 5.75 8.4 6.45 6.8 6.9 5.35 7.7 1.5 8.2 -2.3 8.05 -4.5 7.75 -6.8 Q7.25 -9.65 6.25 -11.55 L4.75 -14.0 Q3.8 -15.2 2.25 -16.05 L-1.35 -17.95 Q-2.1 -18.2 -2.55 -18.6 L-2.95 -19.2 -2.4 -18.95 -0.7 -18.5 -2.4 -19.35 Q-6.2 -21.35 -8.1 -21.35 L-12.1 -20.35 -13.2 -20.05 Q-13.85 -19.2 -14.2 -19.35 L-14.55 -19.6 -15.25 -19.35 -17.4 -19.05 -19.5 -18.8 -20.05 -18.9 -22.3 -18.35 Q-23.45 -17.8 -25.95 -17.05 -27.2 -16.5 -29.55 -16.5 L-32.55 -16.6 -33.2 -16.6 -33.45 -16.65 -34.55 -16.75 -34.6 -17.2 -41.35 -19.9 -42.75 -19.75 Q-44.3 -19.75 -46.05 -18.95 L-46.15 -19.65 Q-48.1 -19.6 -49.2 -18.95 -53.1 -16.6 -56.15 -13.0 -58.4 -10.4 -63.1 -3.85 -63.95 -2.7 -66.15 -0.4 L-68.2 1.6 -68.35 1.7 -70.05 2.75 -70.3 2.6 -70.4 2.05 -70.35 2.0 -70.95 2.0 Q-71.35 2.0 -72.9 1.2 L-73.05 1.2 -73.2 1.15 -73.05 1.3 M7.15 -13.6 Q7.9 -12.55 8.25 -11.25 L8.6 -9.65 9.2 -7.25 Q9.8 -4.3 9.8 -2.0 9.8 3.0 7.75 8.15 6.55 11.15 3.2 13.9 L1.95 14.8 1.75 15.0 1.75 15.15 0.55 15.65 1.05 15.0 0.45 15.2 -2.7 15.9 -5.85 15.9 -8.75 16.35 -10.55 17.25 Q-13.3 19.2 -16.2 19.2 -17.45 19.4 -18.0 18.9 L-19.75 18.25 Q-21.85 17.35 -23.35 17.05 L-26.65 16.3 Q-28.75 15.75 -30.0 15.75 L-37.9 15.9 Q-40.45 15.9 -44.45 18.25 L-46.8 19.65 -47.65 20.0 -50.25 20.0 -53.75 20.1 -58.25 17.95 Q-61.95 15.9 -64.5 13.2 L-64.65 13.7 -65.15 13.05 -67.55 10.15 -69.9 7.95 -71.1 6.4 -74.15 1.45 -74.15 1.05 -74.1 1.0 -74.15 0.7 -74.65 0.4 Q-74.5 -0.4 -73.8 -0.4 L-69.75 0.45 -69.15 0.45 -68.05 -0.6 -64.65 -3.9 Q-60.65 -9.1 -58.9 -11.8 -56.45 -15.6 -52.8 -18.45 -49.45 -20.95 -47.5 -20.95 L-44.85 -20.95 -44.3 -20.95 -43.6 -21.05 -43.15 -21.25 -42.75 -21.5 -42.55 -21.25 -42.35 -21.05 -41.4 -21.5 -38.75 -20.4 -36.45 -19.35 -35.2 -18.95 -34.0 -18.35 -33.25 -17.9 -27.9 -17.95 Q-27.55 -17.95 -26.85 -18.3 L-25.7 -18.6 -21.8 -19.75 Q-17.95 -21.05 -16.85 -21.05 L-15.45 -20.95 -13.1 -21.55 Q-9.3 -22.85 -8.1 -22.85 -6.05 -22.85 -2.8 -21.2 L1.25 -18.75 2.0 -18.35 3.6 -17.45 3.75 -17.3 Q5.5 -16.2 6.7 -14.2 L7.15 -13.6" fill="#028701" fill-rule="evenodd" stroke="none"/>
    <path d="M-2.4 -18.95 L-2.95 -19.2 -2.55 -18.6 Q-2.1 -18.2 -1.35 -17.95 L2.25 -16.05 Q3.8 -15.2 4.75 -14.0 L6.25 -11.55 Q7.25 -9.65 7.75 -6.8 L8.05 -4.5 8.2 -2.3 7.7 1.5 6.9 5.35 6.45 6.8 5.75 8.4 4.6 9.95 2.4 12.15 1.25 12.9 1.3 13.3 Q-1.9 14.3 -3.15 14.3 L-7.05 14.3 Q-8.25 14.45 -8.85 14.8 -9.4 15.0 -10.15 15.5 L-11.75 16.5 Q-12.8 17.2 -15.05 17.6 L-16.7 17.65 -16.8 17.65 Q-17.05 17.5 -17.3 17.5 L-19.25 17.05 Q-20.05 16.9 -20.95 16.05 -21.3 15.8 -21.9 15.8 L-22.8 15.65 Q-26.7 14.2 -30.05 14.2 L-34.3 14.3 -40.0 14.75 Q-41.45 15.15 -45.0 16.9 L-47.45 18.05 -47.6 18.05 -50.2 18.5 Q-55.4 18.5 -60.4 14.75 L-64.9 11.55 -64.95 11.45 Q-66.55 9.4 -67.3 8.7 L-69.65 6.4 -69.7 6.4 Q-70.5 4.6 -71.45 3.5 L-73.05 1.3 -73.05 1.2 -72.9 1.2 Q-71.35 2.0 -70.95 2.0 L-70.35 2.0 -70.4 2.05 -70.3 2.6 -70.05 2.75 -68.35 1.7 -68.2 1.7 -68.2 1.6 -66.15 -0.4 Q-63.95 -2.7 -63.1 -3.85 -58.4 -10.4 -56.15 -13.0 -53.1 -16.6 -49.2 -18.95 -48.1 -19.6 -46.15 -19.65 L-46.05 -18.95 Q-44.3 -19.75 -42.75 -19.75 L-41.35 -19.9 -34.6 -17.2 -34.55 -16.75 -33.45 -16.65 -33.2 -16.6 -32.55 -16.6 -29.55 -16.5 Q-27.2 -16.5 -25.95 -17.05 -23.45 -17.8 -22.3 -18.35 L-20.05 -18.9 -19.5 -18.8 -17.4 -19.05 -15.25 -19.35 -14.55 -19.6 -14.2 -19.35 Q-13.85 -19.2 -13.2 -20.05 L-12.1 -20.35 -8.1 -21.35 Q-6.2 -21.35 -2.4 -19.35 L-2.4 -18.95" fill="url(#gradient0)" fill-rule="evenodd" stroke="none"/>
    <path d="M-29.1 -23.3 L-29.0 -23.3 -27.55 -22.35 -26.3 -21.25 -26.8 -21.05 -27.15 -20.9 Q-29.6 -20.9 -30.55 -21.55 L-32.8 -22.7 -33.75 -23.3 -31.95 -23.85 -31.8 -23.85 -31.75 -23.85 -30.35 -23.55 -29.1 -23.3 M-42.15 23.15 L-40.95 22.4 -40.4 22.3 -40.3 22.3 -39.85 22.4 Q-39.75 22.4 -38.9 22.85 L-39.65 23.45 -40.4 23.45 -42.15 23.25 -42.15 23.15" fill="url(#gradient1)" fill-rule="evenodd" stroke="none"/>
  </g>
  <defs>
    <linearGradient gradientTransform="matrix(0.0289, -0.0046, 9.0E-4, 0.0257, -24.45, -2.15)" gradientUnits="userSpaceOnUse" id="gradient0" spreadMethod="pad" x1="-819.2" x2="819.2">
      <stop offset="0.0" stop-color="#0ad828"/>
      <stop offset="1.0" stop-color="#96e99d"/>
    </linearGradient>
    <linearGradient gradientTransform="matrix(0.0251, -0.0031, 8.0E-4, 0.0293, -27.35, -1.45)" gradientUnits="userSpaceOnUse" id="gradient1" spreadMethod="pad" x1="-819.2" x2="819.2">
      <stop offset="0.0" stop-color="#0ad828"/>
      <stop offset="1.0" stop-color="#96e99d"/>
    </linearGradient>
  </defs>
</svg>
