<?xml version="1.0" encoding="UTF-8" standalone="no"?>
<svg xmlns:ffdec="https://www.free-decompiler.com/flash" xmlns:xlink="http://www.w3.org/1999/xlink" ffdec:objectType="shape" height="49.45px" width="83.9px" xmlns="http://www.w3.org/2000/svg">
  <g transform="matrix(1.0, 0.0, 0.0, 1.0, 74.1, 24.7)">
    <path d="M1.2 -18.75 L1.45 -18.9 Q2.25 -18.9 2.35 -18.2 L3.6 -17.45 3.75 -17.3 Q5.5 -16.2 6.7 -14.2 L7.15 -13.6 Q7.9 -12.55 8.25 -11.25 L8.6 -9.65 9.2 -7.25 Q9.8 -4.3 9.8 -2.0 9.8 3.0 7.75 8.15 6.55 11.15 3.2 13.9 L1.95 14.8 1.45 15.5 0.55 15.75 -1.3 16.35 -5.0 18.7 Q-6.75 20.0 -12.15 20.65 L-12.4 20.65 -12.5 20.0 Q-12.5 19.55 -11.45 18.95 L-9.95 18.05 -8.9 16.9 -9.7 16.75 Q-11.75 16.75 -15.35 18.5 -18.95 20.15 -20.7 20.15 -22.95 20.15 -27.5 18.55 -32.05 16.9 -33.5 16.9 L-35.05 17.05 -35.2 16.5 -37.5 16.2 -40.8 16.5 -43.85 16.9 -46.95 17.5 -48.35 18.4 Q-49.6 19.2 -50.0 19.25 L-50.5 19.65 -52.15 20.65 -53.8 21.15 -55.45 21.15 Q-60.3 21.15 -63.8 16.5 L-73.4 1.9 -73.8 3.0 -74.0 2.75 -74.1 2.3 Q-74.1 1.15 -72.85 -1.55 L-71.0 -5.15 Q-69.9 -6.95 -67.95 -8.7 -65.2 -11.1 -61.8 -11.0 -58.3 -11.0 -55.6 -14.0 L-54.2 -16.2 -52.7 -18.5 -51.05 -19.6 -49.6 -20.1 -48.95 -19.95 -48.4 -20.55 -47.35 -20.9 Q-45.65 -20.9 -43.5 -19.9 L-39.55 -17.9 -37.55 -17.0 Q-36.4 -16.5 -35.6 -16.35 L-33.65 -16.35 -32.65 -16.5 -32.1 -16.05 -31.45 -16.2 -28.55 -16.9 Q-27.5 -17.05 -25.7 -17.95 -23.8 -18.8 -22.8 -19.05 -21.95 -19.25 -17.25 -21.2 -13.35 -22.85 -11.35 -22.85 -8.9 -22.85 -4.5 -20.55 L-0.3 -18.5 Q0.35 -18.6 0.65 -19.05 L1.2 -18.75 M-73.1 1.35 Q-72.2 1.35 -68.95 6.65 L-64.2 13.9 -62.0 16.75 Q-60.6 18.65 -59.8 18.9 L-57.4 19.55 -55.45 19.7 Q-53.45 19.7 -51.45 18.7 L-50.15 17.95 -49.25 17.1 -47.5 16.05 -46.1 15.75 -44.6 15.5 -41.4 15.15 -38.9 14.9 -35.6 15.35 -33.45 15.3 Q-31.8 15.3 -27.25 16.9 -22.7 18.55 -20.7 18.55 L-18.35 18.2 -15.75 16.75 -13.55 16.05 Q-11.35 15.35 -10.85 15.35 L-8.5 15.65 -7.9 15.9 -7.35 15.65 Q-7.0 15.65 -7.0 16.2 L-7.15 16.6 -7.15 17.05 -7.5 17.05 -9.35 18.9 -9.35 19.05 -8.95 19.05 Q-7.1 18.35 -3.45 16.05 -1.95 15.2 1.05 14.5 L0.85 13.9 Q1.1 13.75 1.3 13.7 L1.25 12.9 2.4 12.15 4.6 9.95 5.75 8.4 6.45 6.8 6.9 5.35 7.7 1.5 8.2 -2.3 8.05 -4.5 7.75 -6.8 Q7.25 -9.65 6.25 -11.55 L4.75 -14.0 Q3.8 -15.2 2.25 -16.05 1.05 -16.65 0.15 -17.2 L-0.7 -17.05 Q-8.7 -21.35 -10.5 -21.35 -12.55 -21.35 -21.25 -17.95 -29.95 -14.55 -31.3 -14.55 L-34.25 -14.85 -34.35 -15.15 -35.85 -15.05 Q-37.35 -15.05 -41.45 -17.2 -45.6 -19.35 -47.35 -19.35 L-48.9 -18.95 -49.2 -18.75 -51.45 -17.2 Q-53.15 -15.75 -54.75 -13.0 -55.35 -12.0 -56.35 -11.25 L-58.0 -10.15 Q-59.15 -9.5 -61.1 -9.5 -65.0 -9.4 -67.45 -7.4 -70.6 -4.9 -73.15 1.3 L-73.2 1.35 -73.1 1.35" fill="#028701" fill-rule="evenodd" stroke="none"/>
    <path d="M-45.45 -23.85 L-46.05 -23.65 Q-44.2 -21.7 -42.05 -21.95 L-43.6 -22.95 Q-45.05 -23.85 -45.45 -23.85 M-45.45 -24.7 Q-44.85 -24.7 -39.45 -21.35 -39.6 -20.7 -40.3 -20.7 L-43.6 -21.2 Q-46.6 -21.95 -46.6 -23.65 -46.6 -24.7 -45.45 -24.7 M-46.55 22.45 L-45.55 22.3 Q-44.75 22.3 -44.7 22.85 L-46.2 23.85 Q-47.65 24.75 -48.1 24.75 -49.75 24.75 -49.75 23.4 -49.75 22.4 -48.85 22.4 L-47.6 22.55 -46.55 22.45 M-48.9 23.45 Q-48.1 24.25 -47.45 23.45 L-48.9 23.45" fill="#00b10d" fill-rule="evenodd" stroke="none"/>
    <path d="M-73.15 1.3 Q-70.6 -4.9 -67.45 -7.4 -65.0 -9.4 -61.1 -9.5 -59.15 -9.5 -58.0 -10.15 L-56.35 -11.25 Q-55.35 -12.0 -54.75 -13.0 -53.15 -15.75 -51.45 -17.2 L-49.2 -18.75 -48.9 -18.95 -47.35 -19.35 Q-45.6 -19.35 -41.45 -17.2 -37.35 -15.05 -35.85 -15.05 L-34.35 -15.15 -34.25 -14.85 -31.3 -14.55 Q-29.95 -14.55 -21.25 -17.95 -12.55 -21.35 -10.5 -21.35 -8.7 -21.35 -0.7 -17.05 L0.15 -17.2 Q1.05 -16.65 2.25 -16.05 3.8 -15.2 4.75 -14.0 L6.25 -11.55 Q7.25 -9.65 7.75 -6.8 L8.05 -4.5 8.2 -2.3 7.7 1.5 6.9 5.35 6.45 6.8 5.75 8.4 4.6 9.95 2.4 12.15 1.25 12.9 1.3 13.7 Q1.1 13.75 0.85 13.9 L1.05 14.5 Q-1.95 15.2 -3.45 16.05 -7.1 18.35 -8.95 19.05 L-9.35 19.05 -9.35 18.9 -7.5 17.05 -7.15 17.05 -7.15 16.6 -7.0 16.2 Q-7.0 15.65 -7.35 15.65 L-7.9 15.9 -8.5 15.65 -10.85 15.35 Q-11.35 15.35 -13.55 16.05 L-15.75 16.75 -18.35 18.2 -20.7 18.55 Q-22.7 18.55 -27.25 16.9 -31.8 15.3 -33.45 15.3 L-35.6 15.35 -38.9 14.9 -41.4 15.15 -44.6 15.5 -46.1 15.75 -47.5 16.05 -49.25 17.1 -50.15 17.95 -51.45 18.7 Q-53.45 19.7 -55.45 19.7 L-57.4 19.55 -59.8 18.9 Q-60.6 18.65 -62.0 16.75 L-64.2 13.9 -68.95 6.65 Q-72.2 1.35 -73.1 1.35 L-73.15 1.3 M-45.45 -23.85 Q-45.05 -23.85 -43.6 -22.95 L-42.05 -21.95 Q-44.2 -21.7 -46.05 -23.65 L-45.45 -23.85 M-48.9 23.45 L-47.45 23.45 Q-48.1 24.25 -48.9 23.45" fill="url(#gradient0)" fill-rule="evenodd" stroke="none"/>
  </g>
  <defs>
    <linearGradient gradientTransform="matrix(0.0233, 0.0, 0.0, 0.0251, -18.7, -0.85)" gradientUnits="userSpaceOnUse" id="gradient0" spreadMethod="pad" x1="-819.2" x2="819.2">
      <stop offset="0.0" stop-color="#0ad828"/>
      <stop offset="1.0" stop-color="#96e99d"/>
    </linearGradient>
  </defs>
</svg>
