<?xml version="1.0" encoding="UTF-8" standalone="no"?>
<svg xmlns:ffdec="https://www.free-decompiler.com/flash" xmlns:xlink="http://www.w3.org/1999/xlink" ffdec:objectType="shape" height="44.9px" width="48.0px" xmlns="http://www.w3.org/2000/svg">
  <g transform="matrix(1.0, 0.0, 0.0, 1.0, 23.7, 22.45)">
    <path d="M-6.55 22.25 L-6.7 22.25 -9.95 22.25 -10.0 22.15 Q-11.85 21.4 -13.45 20.4 L-13.35 20.3 -8.1 16.5 -8.15 16.45 Q-9.9 15.9 -11.2 14.95 L-11.2 14.85 -7.95 12.45 -8.0 12.4 -11.4 10.9 Q-10.45 9.85 -8.85 9.6 -7.15 9.35 -7.05 7.65 L-7.0 7.55 Q-7.3 6.85 -8.4 6.6 L-21.35 3.75 -21.35 3.6 Q-22.9 -3.15 -23.7 -10.6 -23.05 -12.0 -22.75 -13.7 L-22.75 -13.85 -17.2 -9.15 -17.15 -9.0 -14.9 -13.8 -14.8 -13.85 -12.4 -9.05 -12.3 -9.0 -9.9 -13.35 -9.85 -13.4 Q-8.8 -11.6 -8.4 -9.4 -8.2 -8.4 -7.35 -8.25 -6.1 -8.85 -5.55 -10.35 L-1.1 -21.8 12.45 -22.45 12.6 -22.45 14.5 -21.35 14.6 -21.35 Q13.05 -19.25 10.9 -17.7 L10.9 -17.6 13.65 -15.05 13.7 -14.95 Q11.95 -14.1 9.65 -13.85 L9.45 -13.85 13.7 -11.75 13.7 -11.7 Q11.85 -10.0 9.2 -9.15 L9.2 -9.0 Q8.85 -8.15 8.85 -6.85 L8.85 -6.7 22.25 -3.5 22.25 -3.4 Q23.55 2.7 24.2 9.5 L24.3 9.5 24.3 9.8 24.3 9.95 24.2 10.0 Q23.85 11.7 23.05 12.95 L22.95 12.9 18.2 8.7 18.2 8.85 Q17.15 11.3 15.25 12.95 L15.15 12.9 13.5 9.5 13.45 9.55 Q12.9 11.35 11.8 12.6 L11.75 12.6 10.1 8.55 10.1 8.45 Q9.5 7.95 8.4 7.95 L8.2 8.0 Q6.45 11.3 5.15 15.05 3.9 18.85 2.15 22.25 L2.15 22.35 -4.4 22.45 -4.4 22.35 -6.55 22.25 M-0.1 -19.9 L-2.5 -14.15 -2.5 -14.1 4.95 -14.35 5.0 -14.45 11.2 -20.7 11.05 -20.7 0.45 -19.75 0.6 -19.75 Q3.15 -17.5 5.3 -14.95 L5.15 -15.0 0.0 -19.95 -0.1 -19.9 M11.7 -15.25 L11.5 -15.3 8.85 -17.0 8.7 -16.95 Q6.6 -15.7 4.95 -13.85 L3.9 -13.7 Q2.9 -13.45 2.15 -12.75 L2.15 -12.6 Q2.35 -10.3 2.95 -8.4 L3.0 -8.55 7.65 -14.15 7.75 -14.15 Q9.9 -14.55 11.7 -15.25 M-2.65 -13.55 L-2.7 -13.4 -4.2 -9.5 -4.15 -9.25 Q-0.95 -8.35 2.45 -7.8 L2.45 -7.95 Q2.05 -10.6 2.0 -12.95 L1.85 -12.95 Q0.85 -13.1 0.3 -13.7 L0.1 -13.7 -2.65 -13.55 M7.1 -8.4 L7.3 -9.0 7.35 -9.15 11.7 -11.55 11.65 -11.6 7.65 -13.25 7.5 -13.2 2.65 -7.3 2.45 -7.3 0.45 -7.8 0.35 -7.75 Q0.0 -6.7 -1.1 -7.2 -1.6 -8.35 -3.25 -8.55 -4.85 -8.75 -5.0 -7.2 L-5.0 -7.0 -3.15 -4.35 -2.05 -4.7 Q1.8 -5.6 4.05 -3.25 L4.15 -3.3 Q6.1 -3.95 6.85 -5.9 L6.85 -6.0 Q4.9 -6.05 3.6 -6.7 L3.7 -6.75 5.05 -7.6 6.5 -8.25 6.5 -8.15 6.4 -8.1 5.05 -7.6 6.4 -8.1 Q5.3 -7.5 4.35 -6.7 L4.35 -6.6 6.85 -6.55 6.85 -6.7 7.1 -8.4 8.2 -8.9 7.1 -8.4 M4.95 -1.4 L4.95 -1.25 4.95 0.9 4.85 0.95 Q4.65 1.95 4.05 2.5 L5.7 4.85 Q6.7 5.9 8.4 6.2 L8.65 6.2 9.0 2.0 Q9.65 3.05 9.8 4.35 10.05 6.1 11.05 6.2 L11.1 6.25 12.0 9.8 12.05 9.75 13.05 6.05 13.05 5.95 10.7 2.5 10.75 2.35 Q11.05 0.65 10.1 0.15 L10.1 0.0 Q9.9 -1.1 10.9 -1.9 L10.9 -2.0 11.05 -4.35 10.9 -4.35 6.85 -4.65 6.8 -4.55 4.5 -2.65 4.5 -2.5 Q4.65 -1.85 4.95 -1.4 M4.45 -1.85 Q3.75 -2.5 3.4 -3.4 2.5 -4.05 1.35 -4.3 -4.2 -5.3 -5.3 -0.8 -5.3 1.55 -4.1 2.65 -3.3 3.35 -2.3 3.65 3.0 5.0 4.65 0.9 L4.65 0.8 Q4.75 -0.65 4.5 -1.7 L4.45 -1.85 M11.2 1.25 Q11.2 2.3 11.85 2.25 L11.35 2.5 11.4 2.65 Q12.5 4.5 13.95 6.05 L14.05 6.2 Q14.3 8.55 15.55 10.75 L15.55 10.6 18.35 6.05 18.25 6.05 15.55 2.8 15.55 2.65 Q15.65 1.3 14.95 0.8 L14.8 0.8 12.85 1.75 14.3 0.3 Q14.45 -0.95 14.9 -1.15 L14.95 -1.25 14.65 -3.25 14.6 -3.4 11.8 -4.2 11.7 -4.2 Q11.25 -2.55 11.35 -0.3 L11.35 -0.15 11.2 -0.15 11.2 1.1 11.2 1.25 M15.1 -3.4 L15.1 -3.25 Q15.55 -0.05 16.3 2.8 L19.0 0.7 Q20.35 -0.3 21.0 -2.0 L20.9 -2.05 15.1 -3.4 M21.0 -0.9 L20.9 -0.9 16.5 2.95 16.55 3.1 Q19.35 6.8 22.6 10.1 L22.55 9.95 21.0 -0.9 M-22.0 -10.25 L-21.95 -10.1 -19.65 2.0 -19.55 2.0 -14.95 -2.5 -15.0 -2.6 Q-18.3 -6.6 -22.0 -10.25 M-14.8 -11.2 L-14.85 -11.05 -16.85 -5.75 -16.8 -5.65 Q-15.55 -3.75 -14.0 -2.8 L-14.3 -2.5 Q-14.35 -2.15 -14.2 -2.1 L-12.8 -0.9 -12.65 -0.95 Q-10.8 -1.35 -9.35 -2.15 L-10.45 -3.45 Q-11.2 -4.2 -10.9 -4.5 L-10.8 -4.5 -9.05 -2.65 -9.05 -2.5 Q-9.05 -1.45 -8.6 -0.8 L-8.6 -0.85 Q-7.45 -0.55 -7.95 1.1 L-8.15 1.4 -8.25 1.55 -8.1 5.15 -8.0 5.15 -6.1 5.3 -6.0 5.25 Q-5.0 4.3 -4.4 2.95 L-4.4 2.85 Q-6.8 -0.8 -3.9 -3.9 L-4.0 -3.95 Q-4.7 -5.5 -6.25 -6.05 L-6.35 -6.05 -6.7 -2.15 -6.8 -2.2 Q-7.35 -4.75 -8.75 -6.4 L-8.75 -6.55 Q-8.75 -8.55 -9.85 -10.9 L-9.85 -10.75 Q-10.65 -7.7 -12.0 -5.3 L-12.1 -5.3 -14.8 -11.2 M-14.8 -2.0 L-14.9 -2.0 -19.5 2.35 -19.5 2.45 Q-16.45 3.35 -13.1 3.9 L-13.15 3.75 -14.8 -2.0 M-7.05 -3.75 Q-6.85 -3.35 -6.75 -3.9 -6.35 -5.95 -7.8 -6.05 L-7.8 -5.95 -7.05 -3.75 M-9.5 -1.7 L-9.65 -1.65 Q-11.85 -0.95 -13.55 0.3 L-13.55 0.45 -12.65 4.05 -12.5 4.1 -8.6 4.95 -8.6 4.85 -9.5 -1.7 M3.25 3.4 L1.55 4.2 Q-1.8 5.15 -3.9 3.25 L-4.0 3.3 Q-5.15 4.7 -5.15 6.55 L-5.15 6.8 -1.85 6.4 -1.95 6.5 Q-4.95 9.0 -9.05 10.45 -8.5 11.2 -7.35 11.2 -6.25 11.25 -5.9 12.0 L-6.0 12.1 Q-7.2 13.65 -8.9 14.8 L-8.85 14.9 Q-6.9 15.3 -6.1 16.8 L-6.05 16.7 -1.1 13.25 -0.95 13.25 0.1 13.4 0.1 13.0 0.1 12.95 Q0.1 10.8 -0.8 8.55 L-0.95 8.6 Q-3.0 10.0 -4.85 10.85 -3.2 9.0 -0.8 7.95 L-0.8 7.9 Q-0.05 7.8 0.3 8.25 L0.45 8.2 2.45 8.25 2.55 8.3 Q3.1 10.1 5.1 10.45 L5.15 10.3 6.5 6.55 6.5 6.45 3.25 3.4 M-5.15 7.3 L-5.15 7.5 -5.3 7.5 Q-5.5 8.6 -4.85 8.2 L-4.85 8.1 -4.75 8.05 Q-4.05 7.4 -3.15 7.0 L-3.15 6.95 -5.15 7.3 M4.95 10.9 L4.8 10.9 Q2.25 9.55 -0.45 8.4 L-0.45 8.55 0.9 12.95 1.0 12.95 Q1.75 14.0 3.25 14.35 L3.35 14.3 Q4.4 12.8 4.95 10.9 M1.25 20.7 L1.2 20.55 Q0.15 17.05 -1.4 14.0 L-1.45 14.1 Q-6.0 17.05 -10.15 20.4 L-7.05 20.7 1.25 20.7 M3.4 14.8 L3.25 14.8 -0.95 13.7 -0.95 13.85 Q0.1 17.05 1.55 19.95 L1.6 19.8 3.4 14.8 M9.7 4.9 Q9.5 4.55 9.45 4.05 L9.45 3.9 9.2 3.6 9.25 6.2 9.35 6.2 Q10.5 6.5 9.7 4.9" fill="#000000" fill-opacity="0.9019608" fill-rule="evenodd" stroke="none"/>
    <path d="M-0.1 -19.9 L0.0 -19.95 5.15 -15.0 5.3 -14.95 Q3.15 -17.5 0.6 -19.75 L0.45 -19.75 11.05 -20.7 11.2 -20.7 5.0 -14.45 4.95 -14.35 -2.5 -14.1 -2.5 -14.15 -0.1 -19.9" fill="url(#gradient0)" fill-rule="evenodd" stroke="none"/>
    <path d="M11.7 -15.25 Q9.9 -14.55 7.75 -14.15 L7.65 -14.15 3.0 -8.55 2.95 -8.4 Q2.35 -10.3 2.15 -12.6 L2.15 -12.75 Q2.9 -13.45 3.9 -13.7 L4.95 -13.85 Q6.6 -15.7 8.7 -16.95 L8.85 -17.0 11.5 -15.3 11.7 -15.25" fill="url(#gradient1)" fill-rule="evenodd" stroke="none"/>
    <path d="M-2.65 -13.55 L0.1 -13.7 0.3 -13.7 Q0.85 -13.1 1.85 -12.95 L2.0 -12.95 Q2.05 -10.6 2.45 -7.95 L2.45 -7.8 Q-0.95 -8.35 -4.15 -9.25 L-4.2 -9.5 -2.7 -13.4 -2.65 -13.55" fill="url(#gradient2)" fill-rule="evenodd" stroke="none"/>
    <path d="M5.05 -7.6 L3.7 -6.75 3.6 -6.7 Q4.9 -6.05 6.85 -6.0 L6.85 -5.9 Q6.1 -3.95 4.15 -3.3 L4.05 -3.25 Q1.8 -5.6 -2.05 -4.7 L-3.15 -4.35 -5.0 -7.0 -5.0 -7.2 Q-4.85 -8.75 -3.25 -8.55 -1.6 -8.35 -1.1 -7.2 0.0 -6.7 0.35 -7.75 L0.45 -7.8 2.45 -7.3 2.65 -7.3 7.5 -13.2 7.65 -13.25 11.65 -11.6 11.7 -11.55 7.35 -9.15 7.3 -9.0 7.1 -8.4 6.4 -8.1 6.5 -8.15 6.5 -8.25 5.05 -7.6" fill="url(#gradient3)" fill-rule="evenodd" stroke="none"/>
    <path d="M6.4 -8.1 L7.1 -8.4 6.85 -6.7 6.85 -6.55 4.35 -6.6 4.35 -6.7 Q5.3 -7.5 6.4 -8.1 M4.45 -1.85 L4.5 -1.7 Q4.75 -0.65 4.65 0.8 L4.65 0.9 Q3.0 5.0 -2.3 3.65 -3.3 3.35 -4.1 2.65 -5.3 1.55 -5.3 -0.8 -4.2 -5.3 1.35 -4.3 2.5 -4.05 3.4 -3.4 3.75 -2.5 4.45 -1.85 M-0.8 -3.25 L-0.8 -3.2 -2.65 -2.15 -2.7 -2.0 -3.3 -0.6 -3.3 -0.45 Q-3.1 1.95 -1.1 2.65 L-0.95 2.65 1.05 2.5 1.1 2.4 Q3.65 0.8 2.15 -2.15 L2.05 -2.25 Q1.2 -3.3 -0.8 -3.25 M-7.05 -3.75 L-7.8 -5.95 -7.8 -6.05 Q-6.35 -5.95 -6.75 -3.9 -6.85 -3.35 -7.05 -3.75 M-5.15 7.3 L-3.15 6.95 -3.15 7.0 Q-4.05 7.4 -4.75 8.05 L-4.85 8.1 -4.85 8.2 Q-5.5 8.6 -5.3 7.5 L-5.15 7.5 -5.15 7.3 M9.7 4.9 Q10.5 6.5 9.35 6.2 L9.25 6.2 9.2 3.6 9.45 3.9 9.45 4.05 Q9.5 4.55 9.7 4.9" fill="#cc2222" fill-rule="evenodd" stroke="none"/>
    <path d="M4.95 -1.4 Q4.65 -1.85 4.5 -2.5 L4.5 -2.65 6.8 -4.55 6.85 -4.65 10.9 -4.35 11.05 -4.35 10.9 -2.0 10.9 -1.9 Q9.9 -1.1 10.1 0.0 L10.1 0.15 Q11.05 0.65 10.75 2.35 L10.7 2.5 13.05 5.95 13.05 6.05 12.05 9.75 12.0 9.8 11.1 6.25 11.05 6.2 Q10.05 6.1 9.8 4.35 9.65 3.05 9.0 2.0 L8.65 6.2 8.4 6.2 Q6.7 5.9 5.7 4.85 L4.05 2.5 Q4.65 1.95 4.85 0.95 L4.95 0.9 4.95 -1.25 4.95 -1.4" fill="url(#gradient4)" fill-rule="evenodd" stroke="none"/>
    <path d="M-0.8 -3.25 Q1.2 -3.3 2.05 -2.25 L2.15 -2.15 Q3.65 0.8 1.1 2.4 L1.05 2.5 -0.95 2.65 -1.1 2.65 Q-3.1 1.95 -3.3 -0.45 L-3.3 -0.6 -2.7 -2.0 -2.65 -2.15 -0.8 -3.2 -0.8 -3.25 M-2.5 -0.9 L-2.5 -0.8 -2.5 0.45 -2.4 0.5 -1.75 1.55 -1.6 1.6 Q-1.0 2.15 0.3 2.0 L0.35 1.95 Q1.65 1.55 2.0 0.3 L2.0 0.15 Q2.1 -2.65 -0.8 -2.5 L-0.95 -2.45 Q-1.95 -1.95 -2.5 -0.9" fill="#000000" fill-opacity="0.9019608" fill-rule="evenodd" stroke="none"/>
    <path d="M15.1 -3.4 L20.9 -2.05 21.0 -2.0 Q20.35 -0.3 19.0 0.7 L16.3 2.8 Q15.55 -0.05 15.1 -3.25 L15.1 -3.4" fill="url(#gradient5)" fill-rule="evenodd" stroke="none"/>
    <path d="M11.35 -0.15 L11.35 -0.3 Q11.25 -2.55 11.7 -4.2 L11.8 -4.2 14.6 -3.4 14.65 -3.25 14.95 -1.25 14.9 -1.15 Q14.45 -0.95 14.3 0.3 L12.85 1.75 14.8 0.8 14.95 0.8 Q15.65 1.3 15.55 2.65 L15.55 2.8 18.25 6.05 18.35 6.05 15.55 10.6 15.55 10.75 Q14.3 8.55 14.05 6.2 L13.95 6.05 Q12.5 4.5 11.4 2.65 L11.35 2.5 11.85 2.25 Q11.2 2.3 11.2 1.25 11.45 0.8 11.35 0.0 L11.35 -0.15" fill="url(#gradient6)" fill-rule="evenodd" stroke="none"/>
    <path d="M11.35 -0.15 L11.35 0.0 Q11.45 0.8 11.2 1.25 L11.2 1.1 11.2 -0.15 11.35 -0.15" fill="#000000" fill-opacity="0.30980393" fill-rule="evenodd" stroke="none"/>
    <path d="M21.0 -0.9 L22.55 9.95 22.6 10.1 Q19.35 6.8 16.55 3.1 L16.5 2.95 20.9 -0.9 21.0 -0.9" fill="url(#gradient7)" fill-rule="evenodd" stroke="none"/>
    <path d="M-22.0 -10.25 Q-18.3 -6.6 -15.0 -2.6 L-14.95 -2.5 -19.55 2.0 -19.65 2.0 -21.95 -10.1 -22.0 -10.25" fill="url(#gradient8)" fill-rule="evenodd" stroke="none"/>
    <path d="M-14.8 -11.2 L-12.1 -5.3 -12.0 -5.3 Q-10.65 -7.7 -9.85 -10.75 L-9.85 -10.9 Q-8.75 -8.55 -8.75 -6.55 L-8.75 -6.4 Q-7.35 -4.75 -6.8 -2.2 L-6.7 -2.15 -6.35 -6.05 -6.25 -6.05 Q-4.7 -5.5 -4.0 -3.95 L-3.9 -3.9 Q-6.8 -0.8 -4.4 2.85 L-4.4 2.95 Q-5.0 4.3 -6.0 5.25 L-6.1 5.3 -8.0 5.15 -8.1 5.15 -8.25 1.55 -8.15 1.4 -7.95 1.1 Q-7.45 -0.55 -8.6 -0.85 L-8.6 -0.8 Q-9.05 -1.45 -9.05 -2.5 L-9.05 -2.65 -10.8 -4.5 -10.9 -4.5 Q-11.2 -4.2 -10.45 -3.45 L-9.35 -2.15 Q-10.8 -1.35 -12.65 -0.95 L-12.8 -0.9 -14.2 -2.1 Q-14.35 -2.15 -14.3 -2.5 L-14.0 -2.8 Q-15.55 -3.75 -16.8 -5.65 L-16.85 -5.75 -14.85 -11.05 -14.8 -11.2" fill="url(#gradient9)" fill-rule="evenodd" stroke="none"/>
    <path d="M-14.8 -2.0 L-13.15 3.75 -13.1 3.9 Q-16.45 3.35 -19.5 2.45 L-19.5 2.35 -14.9 -2.0 -14.8 -2.0" fill="url(#gradient10)" fill-rule="evenodd" stroke="none"/>
    <path d="M-9.5 -1.7 L-8.6 4.85 -8.6 4.95 -12.5 4.1 -12.65 4.05 -13.55 0.45 -13.55 0.3 Q-11.85 -0.95 -9.65 -1.65 L-9.5 -1.7" fill="url(#gradient11)" fill-rule="evenodd" stroke="none"/>
    <path d="M3.25 3.4 L6.5 6.45 6.5 6.55 5.15 10.3 5.1 10.45 Q3.1 10.1 2.55 8.3 L2.45 8.25 0.45 8.2 0.3 8.25 Q-0.05 7.8 -0.8 7.9 L-0.8 7.95 Q-3.2 9.0 -4.85 10.85 -3.0 10.0 -0.95 8.6 L-0.8 8.55 Q0.1 10.8 0.1 12.95 L0.1 13.0 0.1 13.4 -0.95 13.25 -1.1 13.25 -6.05 16.7 -6.1 16.8 Q-6.9 15.3 -8.85 14.9 L-8.9 14.8 Q-7.2 13.65 -6.0 12.1 L-5.9 12.0 Q-6.25 11.25 -7.35 11.2 -8.5 11.2 -9.05 10.45 -4.95 9.0 -1.95 6.5 L-1.85 6.4 -5.15 6.8 -5.15 6.55 Q-5.15 4.7 -4.0 3.3 L-3.9 3.25 Q-1.8 5.15 1.55 4.2 L3.25 3.4" fill="url(#gradient12)" fill-rule="evenodd" stroke="none"/>
    <path d="M4.95 10.9 Q4.4 12.8 3.35 14.3 L3.25 14.35 Q1.75 14.0 1.0 12.95 L0.9 12.95 -0.45 8.55 -0.45 8.4 Q2.25 9.55 4.8 10.9 L4.95 10.9" fill="url(#gradient13)" fill-rule="evenodd" stroke="none"/>
    <path d="M3.4 14.8 L1.6 19.8 1.55 19.95 Q0.1 17.05 -0.95 13.85 L-0.95 13.7 3.25 14.8 3.4 14.8" fill="url(#gradient14)" fill-rule="evenodd" stroke="none"/>
    <path d="M1.25 20.7 L-7.05 20.7 -10.15 20.4 Q-6.0 17.05 -1.45 14.1 L-1.4 14.0 Q0.15 17.05 1.2 20.55 L1.25 20.7" fill="url(#gradient15)" fill-rule="evenodd" stroke="none"/>
    <path d="M-4.4 22.45 L-4.5 22.45 -6.55 22.25 -4.4 22.35 -4.4 22.45" fill="#000000" fill-opacity="0.48235294" fill-rule="evenodd" stroke="none"/>
    <path d="M7.1 -8.4 L8.2 -8.9 M7.1 -8.4 L6.4 -8.1 5.05 -7.6" ffdec:has-small-stroke="true" ffdec:original-stroke-width="0.1" fill="none" stroke="#ff0000" stroke-linecap="round" stroke-linejoin="round" stroke-width="1.0"/>
  </g>
  <defs>
    <radialGradient cx="0" cy="0" gradientTransform="matrix(0.0141, 0.0, 0.0, 0.0141, 7.1, -18.85)" gradientUnits="userSpaceOnUse" id="gradient0" r="819.2" spreadMethod="pad">
      <stop offset="0.23921568627450981" stop-color="#646464"/>
      <stop offset="1.0" stop-color="#000000"/>
    </radialGradient>
    <radialGradient cx="0" cy="0" gradientTransform="matrix(0.0112, 0.0, 0.0, 0.0112, 3.6, -10.95)" gradientUnits="userSpaceOnUse" id="gradient1" r="819.2" spreadMethod="pad">
      <stop offset="0.23921568627450981" stop-color="#333333"/>
      <stop offset="1.0" stop-color="#000000"/>
    </radialGradient>
    <radialGradient cx="0" cy="0" gradientTransform="matrix(0.0058, 0.0, 0.0, 0.0058, -0.15, -9.65)" gradientUnits="userSpaceOnUse" id="gradient2" r="819.2" spreadMethod="pad">
      <stop offset="0.23921568627450981" stop-color="#333333"/>
      <stop offset="1.0" stop-color="#000000"/>
    </radialGradient>
    <radialGradient cx="0" cy="0" gradientTransform="matrix(0.0125, 0.0, 0.0, 0.0125, 4.85, -8.2)" gradientUnits="userSpaceOnUse" id="gradient3" r="819.2" spreadMethod="pad">
      <stop offset="0.23921568627450981" stop-color="#333333"/>
      <stop offset="1.0" stop-color="#000000"/>
    </radialGradient>
    <radialGradient cx="0" cy="0" gradientTransform="matrix(0.0353, 0.0, 0.0, 0.0353, 0.9, -0.5)" gradientUnits="userSpaceOnUse" id="gradient4" r="819.2" spreadMethod="pad">
      <stop offset="0.23921568627450981" stop-color="#333333"/>
      <stop offset="1.0" stop-color="#000000"/>
    </radialGradient>
    <radialGradient cx="0" cy="0" fx="22.400000000000002" fy="0" gradientTransform="matrix(0.0099, 0.0, 0.0, 0.0099, 20.95, -2.8)" gradientUnits="userSpaceOnUse" id="gradient5" r="819.2" spreadMethod="pad">
      <stop offset="0.23137254901960785" stop-color="#808080"/>
      <stop offset="1.0" stop-color="#000000"/>
    </radialGradient>
    <radialGradient cx="0" cy="0" gradientTransform="matrix(0.0142, 0.0, 0.0, 0.0142, 13.25, -0.45)" gradientUnits="userSpaceOnUse" id="gradient6" r="819.2" spreadMethod="pad">
      <stop offset="0.23921568627450981" stop-color="#333333"/>
      <stop offset="1.0" stop-color="#000000"/>
    </radialGradient>
    <radialGradient cx="0" cy="0" gradientTransform="matrix(0.0209, 0.0, 0.0, 0.0209, 22.25, 0.95)" gradientUnits="userSpaceOnUse" id="gradient7" r="819.2" spreadMethod="pad">
      <stop offset="0.23137254901960785" stop-color="#808080"/>
      <stop offset="1.0" stop-color="#000000"/>
    </radialGradient>
    <radialGradient cx="0" cy="0" gradientTransform="matrix(0.019, 0.0, 0.0, 0.019, -16.2, -0.9)" gradientUnits="userSpaceOnUse" id="gradient8" r="819.2" spreadMethod="pad">
      <stop offset="0.23137254901960785" stop-color="#808080"/>
      <stop offset="1.0" stop-color="#000000"/>
    </radialGradient>
    <radialGradient cx="0" cy="0" gradientTransform="matrix(0.019, 0.0, 0.0, 0.019, -6.75, 2.1)" gradientUnits="userSpaceOnUse" id="gradient9" r="819.2" spreadMethod="pad">
      <stop offset="0.23921568627450981" stop-color="#333333"/>
      <stop offset="1.0" stop-color="#000000"/>
    </radialGradient>
    <radialGradient cx="0" cy="0" gradientTransform="matrix(0.0116, 0.0, 0.0, 0.0116, -20.8, 0.45)" gradientUnits="userSpaceOnUse" id="gradient10" r="819.2" spreadMethod="pad">
      <stop offset="0.23137254901960785" stop-color="#808080"/>
      <stop offset="1.0" stop-color="#000000"/>
    </radialGradient>
    <radialGradient cx="0" cy="0" gradientTransform="matrix(0.0048, 0.0, 0.0, 0.0048, -10.9, 1.8)" gradientUnits="userSpaceOnUse" id="gradient11" r="819.2" spreadMethod="pad">
      <stop offset="0.23921568627450981" stop-color="#333333"/>
      <stop offset="1.0" stop-color="#000000"/>
    </radialGradient>
    <radialGradient cx="0" cy="0" gradientTransform="matrix(0.0163, 0.0, 0.0, 0.0163, 1.3, 6.3)" gradientUnits="userSpaceOnUse" id="gradient12" r="819.2" spreadMethod="pad">
      <stop offset="0.23921568627450981" stop-color="#333333"/>
      <stop offset="1.0" stop-color="#000000"/>
    </radialGradient>
    <radialGradient cx="0" cy="0" gradientTransform="matrix(0.0048, 0.0, 0.0, 0.0048, 1.95, 11.45)" gradientUnits="userSpaceOnUse" id="gradient13" r="819.2" spreadMethod="pad">
      <stop offset="0.23921568627450981" stop-color="#333333"/>
      <stop offset="1.0" stop-color="#000000"/>
    </radialGradient>
    <radialGradient cx="0" cy="0" gradientTransform="matrix(0.01, 0.0, 0.0, 0.01, 2.35, 18.0)" gradientUnits="userSpaceOnUse" id="gradient14" r="819.2" spreadMethod="pad">
      <stop offset="0.23137254901960785" stop-color="#808080"/>
      <stop offset="1.0" stop-color="#000000"/>
    </radialGradient>
    <radialGradient cx="0" cy="0" gradientTransform="matrix(0.0126, 0.0, 0.0, 0.0126, -1.05, 21.3)" gradientUnits="userSpaceOnUse" id="gradient15" r="819.2" spreadMethod="pad">
      <stop offset="0.23137254901960785" stop-color="#808080"/>
      <stop offset="1.0" stop-color="#000000"/>
    </radialGradient>
  </defs>
</svg>
