<?xml version="1.0" encoding="UTF-8" standalone="no"?>
<svg xmlns:ffdec="https://www.free-decompiler.com/flash" xmlns:xlink="http://www.w3.org/1999/xlink" ffdec:objectType="shape" height="15.85px" width="94.1px" xmlns="http://www.w3.org/2000/svg">
  <g transform="matrix(1.0, 0.0, 0.0, 1.0, 54.6, 7.15)">
    <path d="M21.05 -0.5 L5.8 -0.35 5.8 -0.4 5.3 -0.4 3.4 -0.2 3.15 -0.15 3.25 -0.45 2.1 -0.45 1.2 -0.3 -1.0 -0.45 -0.7 -0.85 -0.2 -1.95 0.7 -4.05 1.0 -4.1 3.4 -4.45 5.6 -4.45 6.15 -4.5 2.05 -5.05 -3.0 -5.5 -3.45 -4.5 -3.75 -3.75 -4.25 -2.85 -4.9 -1.25 -5.1 -1.25 -5.4 -1.05 -5.45 -1.0 -5.95 -0.95 -6.0 -1.05 -6.3 -1.05 -10.95 -0.9 -13.45 -0.8 -13.6 -0.75 -16.45 -0.75 -16.5 -0.95 -16.8 -0.95 -17.8 -0.8 -19.5 -0.65 -19.8 -0.45 -20.45 -0.45 -20.75 -0.45 -20.75 -0.3 -23.85 -0.3 -25.7 -0.15 -27.45 0.0 Q-27.9 0.0 -28.0 -0.3 L-29.45 -0.3 -29.45 -0.4 -29.85 -1.3 -29.65 -1.3 -29.85 -1.5 -30.25 -1.95 -31.0 -2.85 -32.7 -4.6 -35.25 -4.6 -41.25 -4.9 -42.75 -4.9 -42.8 -4.95 -49.7 -4.95 -49.8 -5.0 -51.65 -5.05 -47.45 -2.1 -45.95 -1.1 -45.7 -0.95 -46.4 -1.95 -47.6 -3.4 -47.7 -3.45 -47.75 -3.55 -47.65 -3.7 Q-47.65 -3.9 -47.5 -3.8 L-47.0 -3.9 -46.95 -3.85 -33.85 -3.85 -33.75 -3.75 -33.75 -3.7 -33.65 -3.6 -33.65 -3.55 -33.6 -3.5 -32.5 -2.65 Q-30.95 -1.2 -30.95 -0.75 L-30.95 -0.7 -30.7 -0.75 -30.65 -0.6 -32.1 0.8 -32.3 0.75 -34.05 -0.65 -35.0 -1.3 Q-35.6 -1.7 -35.6 -2.1 L-43.7 -2.1 -43.75 -2.05 -41.95 0.2 -41.6 0.8 -41.7 1.05 -41.75 1.15 -41.8 1.2 -42.55 2.45 Q-43.45 3.9 -43.7 3.9 L-44.6 3.8 -44.75 3.9 -45.1 3.75 -45.2 3.55 Q-45.2 3.35 -44.95 3.35 L-44.6 2.5 -44.85 2.65 -46.0 3.5 -46.45 3.95 -48.1 5.65 -34.4 4.65 -34.25 4.45 -34.0 4.25 -34.05 4.05 -33.75 3.6 -33.7 3.55 -32.05 2.25 -20.75 2.25 -20.45 2.25 -20.1 2.25 -19.45 2.75 -19.2 2.7 -18.5 4.7 -17.7 6.65 -17.75 6.75 -17.7 6.95 -17.5 7.0 -11.75 5.95 -9.85 5.6 -9.0 5.5 -6.9 5.25 -5.4 4.95 -5.6 4.75 -10.7 4.75 -10.7 4.8 -14.45 4.8 -15.35 4.9 -15.7 4.1 -15.85 3.8 -16.1 3.05 -16.65 1.75 -16.5 1.7 -16.6 1.6 -16.45 1.4 -12.75 1.05 -8.85 0.95 -7.5 0.8 -2.45 0.8 -0.5 0.9 Q-0.45 0.9 -0.35 1.0 L2.15 1.05 2.65 1.2 2.75 0.95 5.8 1.1 9.75 1.15 9.95 1.35 21.7 1.3 26.3 1.25 26.3 1.3 26.45 1.5 26.75 1.95 27.3 2.85 28.95 5.25 36.8 0.5 36.6 0.4 36.3 0.25 28.85 -3.9 28.8 -3.75 28.65 -3.55 28.3 -3.45 27.85 -2.9 27.1 -1.95 25.95 -0.55 25.7 -0.6 21.05 -0.5 M1.45 -1.75 L1.45 -1.65 3.75 -1.75 3.75 -1.8 3.95 -1.8 4.2 -1.8 4.25 -1.75 5.65 -1.7 5.75 -1.65 5.8 -1.65 5.8 -1.7 24.75 -2.0 25.0 -1.95 25.15 -2.0 25.2 -2.0 25.45 -2.2 26.0 -2.95 27.2 -4.6 28.05 -5.6 28.1 -5.8 28.15 -5.75 Q29.1 -5.2 30.75 -4.4 L39.5 0.35 38.1 1.45 38.05 1.5 35.8 2.85 33.5 4.25 Q32.4 4.8 31.85 5.1 L30.1 6.1 28.4 7.15 28.4 7.0 27.65 6.15 27.1 5.3 26.65 4.8 25.45 3.25 25.25 2.9 23.9 2.9 23.05 2.8 21.95 2.75 15.3 2.8 14.8 2.85 14.2 2.85 13.0 2.95 9.65 2.95 8.05 2.8 7.05 2.75 2.05 2.7 2.1 2.5 -8.7 2.6 -8.85 2.7 -14.4 2.75 -14.25 3.6 -1.8 3.75 Q-1.1 3.9 -1.1 4.4 -1.1 5.2 -4.3 5.8 L-9.65 6.75 -18.05 8.7 Q-18.9 8.7 -19.5 6.95 L-19.95 4.2 -20.45 4.2 -20.45 3.7 -20.55 3.75 -24.3 3.75 -24.6 3.9 -30.75 3.9 -31.35 3.55 -31.35 3.45 -31.4 3.45 -32.25 4.45 -33.4 5.95 -33.3 6.05 -33.65 6.25 -33.75 6.35 -33.8 6.25 -39.65 6.65 -48.4 7.2 -51.35 7.3 -51.35 7.25 -51.45 7.25 -51.6 7.05 -51.2 6.7 -51.2 6.65 -47.45 3.8 -44.15 1.35 -44.15 1.3 -44.05 1.3 -43.9 1.2 -43.9 1.15 -43.8 1.15 -43.7 1.05 -43.6 1.15 -43.65 1.2 -43.65 1.3 -43.9 2.1 -44.25 3.05 -44.4 3.3 -43.9 3.3 -43.9 3.25 -43.1 1.9 -42.35 0.85 -42.65 0.45 -43.3 -0.55 -43.45 -0.7 -44.75 -2.3 -44.6 -2.45 -44.85 -2.7 -44.5 -2.7 -35.25 -2.7 -34.95 -2.4 -34.85 -2.35 -34.4 -2.0 -33.6 -1.3 -33.05 -0.8 -32.35 -0.1 -32.2 -0.15 -31.9 -0.45 -31.55 -0.75 -32.1 -1.3 -32.05 -1.3 -32.65 -1.95 Q-34.05 -2.95 -34.05 -3.25 L-46.7 -3.25 -45.45 -1.85 -44.7 -0.95 -44.5 -0.7 -44.1 -0.2 -43.95 -0.05 -43.9 0.0 -43.6 0.4 -43.55 0.45 -43.55 0.5 -43.65 0.6 -43.75 0.6 -49.5 -2.75 -52.25 -4.15 -53.6 -4.9 Q-54.4 -5.35 -54.45 -5.65 L-54.5 -5.65 -54.6 -5.9 -32.35 -5.9 -32.3 -5.95 -32.05 -5.7 -31.35 -5.2 -30.1 -3.95 -28.15 -1.9 -28.05 -1.95 -25.7 -2.2 -24.3 -2.25 -24.3 -2.3 -6.2 -2.25 -6.2 -2.7 -5.1 -5.45 -4.95 -5.85 -4.55 -6.9 -2.4 -7.05 8.05 -5.6 Q15.3 -4.6 15.3 -3.9 15.3 -3.4 14.7 -3.3 L5.1 -3.2 1.85 -2.9 1.45 -1.75 M-15.25 4.45 L-15.2 4.45 -15.25 4.35 -15.25 4.45" fill="#3399cc" fill-rule="evenodd" stroke="none"/>
    <path d="M-20.45 -0.45 L-19.8 -0.45 -19.5 -0.65 -17.8 -0.8 -16.8 -0.95 -16.5 -0.95 -16.45 -0.75 -13.6 -0.75 -13.45 -0.8 -10.95 -0.9 -6.3 -1.05 -6.0 -1.05 -5.95 -0.95 -5.45 -1.0 -5.4 -1.05 -5.1 -1.25 -4.9 -1.25 -4.25 -2.85 -3.75 -3.75 -3.45 -4.5 -3.0 -5.5 2.05 -5.05 6.15 -4.5 5.6 -4.45 3.4 -4.45 1.0 -4.1 0.7 -4.05 -0.2 -1.95 -0.7 -0.85 -1.0 -0.45 1.2 -0.3 2.1 -0.45 3.25 -0.45 3.15 -0.15 3.4 -0.2 5.3 -0.4 5.8 -0.4 5.8 -0.35 21.05 -0.5 21.05 -0.45 21.1 -0.25 21.0 -0.15 21.35 0.6 21.4 0.7 21.7 1.3 9.95 1.35 9.75 1.15 5.8 1.1 2.75 0.95 2.65 1.2 2.15 1.05 -0.35 1.0 Q-0.45 0.9 -0.5 0.9 L-2.45 0.8 -7.5 0.8 -8.85 0.95 -12.75 1.05 -16.45 1.4 -16.6 1.6 -16.5 1.7 -16.65 1.75 -16.1 3.05 -15.85 3.8 -15.7 4.1 -15.35 4.9 -14.45 4.8 -10.7 4.8 -10.7 4.75 -5.6 4.75 -5.4 4.95 -6.9 5.25 -9.0 5.5 -9.85 5.6 -11.75 5.95 -17.5 7.0 -17.7 6.95 -17.75 6.75 -17.7 6.65 -18.5 4.7 -19.2 2.7 -19.45 2.75 -20.1 2.25 -20.45 2.25 -20.45 2.2 -20.75 2.25 -32.05 2.25 -33.7 3.55 -33.75 3.6 -34.05 4.05 -34.0 4.25 -34.25 4.45 -34.4 4.65 -48.1 5.65 -46.45 3.95 -46.0 3.5 -44.85 2.65 -44.6 2.5 -44.95 3.35 Q-45.2 3.35 -45.2 3.55 L-45.1 3.75 -44.75 3.9 -44.6 3.8 -43.7 3.9 Q-43.45 3.9 -42.55 2.45 L-41.8 1.2 -41.75 1.15 -41.7 1.05 -41.6 0.8 -41.95 0.2 -43.75 -2.05 -43.7 -2.1 -35.6 -2.1 Q-35.6 -1.7 -35.0 -1.3 L-34.05 -0.65 -32.3 0.75 -32.1 0.8 -30.65 -0.6 -30.7 -0.75 -30.95 -0.7 -30.95 -0.75 Q-30.95 -1.2 -32.5 -2.65 L-33.6 -3.5 -33.65 -3.55 -33.65 -3.6 -33.75 -3.7 -33.75 -3.75 -33.85 -3.85 -46.95 -3.85 -47.0 -3.9 -47.5 -3.8 Q-47.65 -3.9 -47.65 -3.7 L-47.75 -3.55 -47.7 -3.45 -47.6 -3.4 -46.4 -1.95 -45.7 -0.95 -45.95 -1.1 -47.45 -2.1 -51.65 -5.05 -49.8 -5.0 -49.7 -4.95 -42.8 -4.95 -42.75 -4.9 -41.25 -4.9 -35.25 -4.6 -32.7 -4.6 -31.0 -2.85 -30.25 -1.95 -29.85 -1.5 -29.65 -1.3 -29.85 -1.3 -29.45 -0.4 -29.45 -0.3 -28.0 -0.3 Q-27.9 0.0 -27.45 0.0 L-25.7 -0.15 -23.85 -0.3 -20.75 -0.3 -20.45 -0.25 -20.45 -0.45" fill="#fdfcff" fill-rule="evenodd" stroke="none"/>
    <path d="M21.05 -0.5 L25.7 -0.6 25.95 -0.55 27.1 -1.95 27.85 -2.9 28.3 -3.45 28.65 -3.55 28.8 -3.75 28.9 -3.65 28.55 -3.25 28.1 -0.45 28.1 -0.2 28.9 4.85 29.0 5.0 36.6 0.4 36.8 0.5 28.95 5.25 27.3 2.85 26.75 1.95 26.45 1.5 26.3 1.3 26.3 1.25 21.7 1.3 21.4 0.7 21.35 0.6 21.0 -0.15 21.1 -0.2 21.1 -0.25 21.05 -0.45 21.05 -0.5" fill="#86d6e9" fill-rule="evenodd" stroke="none"/>
    <path d="M21.1 -0.25 L21.1 -0.2 21.0 -0.15 21.1 -0.25" fill="#818181" fill-rule="evenodd" stroke="none"/>
    <path d="M28.8 -3.75 L28.85 -3.9 36.3 0.25 28.1 -0.2 28.1 -0.45 28.55 -3.25 28.9 -3.65 28.8 -3.75" fill="#ade0e9" fill-rule="evenodd" stroke="none"/>
    <path d="M36.3 0.25 L36.6 0.4 29.0 5.0 28.9 4.85 28.1 -0.2 36.3 0.25" fill="#fefeff" fill-rule="evenodd" stroke="none"/>
  </g>
</svg>
