<?xml version="1.0" encoding="UTF-8" standalone="no"?>
<svg xmlns:ffdec="https://www.free-decompiler.com/flash" xmlns:xlink="http://www.w3.org/1999/xlink" ffdec:objectType="shape" height="24.95px" width="102.0px" xmlns="http://www.w3.org/2000/svg">
  <g transform="matrix(1.0, 0.0, 0.0, 1.0, 55.55, 12.6)">
    <path d="M-42.7 9.95 L-43.25 9.75 -44.1 9.55 -44.75 9.2 -47.0 8.65 -47.4 8.5 Q-50.35 7.1 -52.7 4.75 -55.9 1.55 -55.5 -1.2 L-52.55 -4.05 -48.75 -6.7 -49.35 -6.55 Q-49.7 -6.55 -49.7 -6.7 L-48.4 -7.6 -46.5 -8.55 -44.85 -9.1 -44.0 -8.9 Q-37.5 -7.9 -34.55 -4.8 -32.3 -2.45 -32.3 0.9 -32.3 4.4 -37.15 7.25 -39.35 8.55 -42.4 9.85 L-42.7 9.95 M-47.4 -7.35 L-46.6 -7.8 -46.8 -7.65 -47.4 -7.35" fill="#f3f308" fill-rule="evenodd" stroke="none"/>
    <path d="M-21.35 9.95 L-24.85 9.75 -27.25 9.95 -28.4 10.2 Q-29.4 10.3 -29.4 10.95 -29.4 11.5 -27.6 12.05 L-26.95 12.25 -28.75 12.35 -30.3 12.3 Q-34.9 12.3 -40.6 10.7 L-42.3 10.2 -42.5 10.1 -42.7 9.95 -42.4 9.85 Q-39.35 8.55 -37.15 7.25 -32.3 4.4 -32.3 0.9 -32.3 -2.45 -34.55 -4.8 -37.5 -7.9 -44.0 -8.9 L-44.85 -9.1 -43.0 -9.75 -36.1 -11.0 Q-38.45 -10.3 -38.45 -9.8 L-38.65 -9.55 Q-38.65 -8.8 -35.8 -8.8 L-32.5 -9.15 -31.7 -9.3 -27.9 -10.3 -25.55 -10.7 -20.5 -8.8 Q-13.2 -5.4 -13.2 -0.2 -13.2 5.35 -21.35 9.95" fill="#ffe70b" fill-rule="evenodd" stroke="none"/>
    <path d="M-25.55 -10.7 L-20.5 -11.6 -6.6 -12.6 -0.3 -12.3 5.4 -11.65 10.9 -10.5 13.65 -9.45 14.75 -8.6 15.15 -8.25 11.4 -8.7 11.05 -8.7 10.2 -8.75 9.9 -8.75 9.25 -8.6 8.95 -8.25 Q8.95 -7.7 10.55 -7.15 L11.4 -6.9 12.1 -6.8 12.9 -6.75 15.15 -6.55 16.45 -6.55 Q19.85 -5.95 23.05 -4.65 24.2 -4.1 26.6 -3.95 L30.6 -3.7 34.4 -2.95 Q36.8 -2.3 37.15 -1.8 L34.55 -2.05 32.8 -1.9 32.55 -1.9 Q30.55 -1.9 30.55 -1.1 30.55 -0.85 30.7 -0.55 30.7 -0.05 32.65 0.3 L34.4 0.55 33.1 1.0 Q30.15 1.95 26.95 1.95 L24.0 1.85 21.95 2.1 20.65 2.4 20.6 2.4 Q19.2 2.95 19.2 3.75 L19.35 4.2 19.85 4.6 20.5 4.85 21.1 4.75 21.6 4.75 23.4 4.55 23.4 4.6 Q23.05 4.75 22.6 5.05 L21.8 5.6 21.15 6.0 20.95 6.05 Q19.2 6.7 18.85 7.15 L17.3 7.9 10.9 10.2 Q3.95 12.25 -4.35 12.25 L-5.75 12.25 -6.3 12.25 Q-9.95 12.25 -15.4 10.95 L-21.35 9.95 Q-13.2 5.35 -13.2 -0.2 -13.2 -5.4 -20.5 -8.8 L-25.55 -10.7 M31.1 -9.8 L31.1 -10.0 31.2 -10.0 Q34.7 -9.1 38.95 -9.1 L41.0 -9.1 Q38.0 -8.0 35.2 -8.0 L33.1 -8.3 Q32.2 -8.7 31.1 -9.8 M38.95 -2.45 L38.25 -3.05 38.55 -3.0 39.85 -2.95 43.55 -2.4 Q46.45 -1.75 46.45 -0.45 46.45 1.15 40.8 1.15 L38.3 1.1 38.4 1.0 Q40.2 0.45 40.2 -0.35 L40.2 -0.45 40.2 -0.55 Q40.2 -1.2 39.7 -1.6 L38.95 -2.45 M37.0 5.65 L36.85 5.65 34.1 5.45 31.55 5.7 29.75 6.05 26.45 6.8 25.8 6.9 25.0 7.0 23.35 7.1 21.5 7.15 22.4 6.75 Q24.5 5.7 24.85 5.15 L25.1 5.1 25.3 4.9 Q25.75 4.55 26.6 4.35 L30.05 3.95 34.15 4.35 Q36.65 5.05 37.65 5.6 L37.0 5.65" fill="#ffaa2a" fill-rule="evenodd" stroke="none"/>
  </g>
</svg>
