<?xml version="1.0" encoding="UTF-8" standalone="no"?>
<svg xmlns:ffdec="https://www.free-decompiler.com/flash" xmlns:xlink="http://www.w3.org/1999/xlink" ffdec:objectType="shape" height="45.05px" width="47.55px" xmlns="http://www.w3.org/2000/svg">
  <g transform="matrix(1.0, 0.0, 0.0, 1.0, 23.75, 22.5)">
    <path d="M-6.05 22.35 L-6.2 22.35 -10.0 22.35 -10.0 22.25 -10.65 21.95 -13.25 20.45 -13.2 20.4 -7.95 16.4 -7.95 16.25 Q-7.35 11.9 -6.9 7.45 L-6.85 7.2 -7.0 7.2 -16.45 5.0 -21.2 3.75 -21.25 3.6 -21.55 2.4 Q-23.0 -3.7 -23.75 -10.5 -23.1 -12.05 -22.55 -13.9 L-22.45 -13.9 -20.65 -12.3 -18.95 -10.8 -16.2 -8.35 -16.1 -8.25 Q-11.55 -7.95 -6.85 -8.25 L-6.7 -8.25 -5.65 -10.8 -1.0 -21.85 -0.9 -21.85 1.95 -22.1 12.5 -22.5 12.7 -22.5 14.75 -21.3 14.9 -21.25 Q12.55 -18.95 10.05 -16.85 L10.0 -16.7 9.35 -10.8 8.95 -6.9 8.95 -6.7 20.1 -4.1 22.2 -3.55 22.5 -3.45 Q23.75 2.75 23.8 9.0 L23.8 9.35 23.55 10.75 23.0 12.8 20.1 10.15 18.35 8.55 18.35 8.45 8.15 8.0 8.0 8.0 2.45 22.35 2.4 22.35 Q-0.75 22.65 -4.2 22.5 L-4.35 22.5 -4.35 22.4 -6.05 22.35 M22.45 8.05 L20.95 -2.2 20.1 -2.35 10.45 -4.3 7.05 -4.85 6.95 -4.85 7.45 -10.8 8.45 -17.8 8.6 -17.85 11.7 -20.8 11.6 -20.8 1.25 -19.95 0.05 -19.8 -0.05 -19.8 -3.6 -10.8 -5.25 -6.35 -5.3 -6.25 -5.45 -6.25 Q-9.3 -6.0 -13.55 -6.1 L-13.6 -6.2 -16.55 -6.25 -16.55 -6.1 -17.0 -6.15 -19.65 -8.25 -21.55 -10.0 -22.0 -10.5 -21.55 -8.0 -19.6 2.5 -19.5 2.5 -16.9 3.1 -6.05 5.3 -5.9 5.25 -5.6 5.3 Q-4.85 6.2 -4.9 7.65 L-4.95 8.15 -6.4 17.35 Q-8.0 19.1 -10.0 20.45 L-10.1 20.45 -8.8 20.6 -5.6 20.6 -5.45 20.6 -4.2 20.8 -4.05 20.8 -3.9 20.8 1.25 20.8 4.7 11.55 Q5.65 8.7 7.2 6.45 L7.2 6.3 19.4 6.9 19.45 7.0 19.6 7.15 20.1 7.65 22.7 10.15 22.7 10.0 22.45 8.05" fill="#000000" fill-opacity="0.972549" fill-rule="evenodd" stroke="none"/>
    <path d="M22.45 8.05 L22.7 10.0 22.7 10.15 20.1 7.65 19.6 7.15 Q20.1 6.95 20.55 6.7 L22.45 8.05 M-8.8 20.6 L-10.1 20.45 -10.0 20.45 Q-8.0 19.1 -6.4 17.35 L-4.95 8.15 -4.9 7.65 -3.8 7.8 -3.9 15.65 -3.95 15.65 -5.3 18.15 -8.8 20.6 M-16.9 3.1 L-19.5 2.5 -19.6 2.5 -21.55 -8.0 -22.0 -10.5 -21.55 -10.0 -19.65 -8.25 -19.0 -5.5 -19.65 -5.8 -19.65 -5.65 -17.95 0.9 -17.4 1.1 -16.9 3.1 M-5.25 -6.35 L-3.6 -10.8 -0.05 -19.8 0.05 -19.8 1.25 -19.95 0.5 -17.45 0.15 -17.35 0.15 -17.2 -1.8 -10.8 -3.4 -6.1 -5.25 -6.35" fill="#ffffff" fill-rule="evenodd" stroke="none"/>
    <path d="M0.5 -17.45 Q3.45 -18.7 6.7 -19.45 L6.7 -19.35 5.45 -16.45 5.35 -16.4 5.0 -10.8 4.5 -5.15 4.4 -5.15 Q3.75 -5.9 3.95 -7.85 L4.25 -10.8 4.7 -16.7 5.65 -18.45 5.65 -18.6 0.95 -16.9 0.8 -16.85 -1.1 -10.8 -2.9 -5.9 -3.0 -6.0 -3.1 -6.2 -3.35 -6.1 -3.45 -6.05 -3.4 -6.1 -1.8 -10.8 0.15 -17.2 0.15 -17.35 0.5 -17.45 M0.95 -2.35 L0.8 -2.35 -0.9 -2.5 -0.9 -2.4 -2.0 -1.7 -2.0 -1.6 -2.45 -0.8 -2.45 -0.6 Q-2.55 2.15 0.35 2.0 L0.45 2.0 Q1.6 1.5 2.05 0.3 L2.05 0.15 Q2.3 -1.5 0.95 -2.35 M2.85 -0.9 L2.85 0.3 2.85 0.45 1.8 2.05 1.75 2.2 0.85 2.55 0.8 2.65 -0.9 2.65 -1.1 2.65 Q-2.25 2.2 -2.85 1.15 L-2.95 1.1 -3.1 -1.1 -3.1 -1.25 Q-1.9 -3.75 0.9 -2.85 2.4 -2.45 2.85 -0.9 M6.15 -3.6 L19.55 -1.15 19.55 -1.1 20.1 1.6 20.55 5.45 20.5 5.45 20.1 5.35 Q18.25 4.9 16.3 3.85 L16.3 3.75 7.05 4.15 6.7 4.1 Q7.0 3.25 8.45 3.25 L16.1 2.95 19.55 4.5 19.7 4.55 19.0 -0.45 18.95 -0.45 9.05 -2.3 Q7.3 -2.6 6.2 -3.35 L6.15 -3.6 M-19.0 -5.5 Q-17.4 -4.85 -16.05 -3.3 L-15.9 -3.3 -4.65 -4.3 -4.65 -4.2 Q-5.5 -3.45 -7.15 -3.35 L-16.1 -2.5 Q-17.3 -3.3 -18.3 -4.3 L-18.4 -4.35 Q-18.15 -2.15 -17.35 0.3 L-17.35 0.45 -5.15 3.05 -5.15 3.15 Q-6.4 3.5 -8.3 3.15 L-17.4 1.1 -17.95 0.9 -19.65 -5.65 -19.65 -5.8 -19.0 -5.5 M-3.8 7.8 L-3.65 5.0 -3.55 5.0 Q-2.8 6.45 -2.95 8.9 L-3.25 15.95 -4.5 18.0 -4.5 18.1 -0.9 17.85 -0.9 17.8 Q1.25 11.95 3.85 6.45 L3.9 6.45 Q2.25 12.45 -0.25 18.45 L-0.3 18.6 -5.75 18.85 -5.75 18.75 -5.3 18.15 -3.95 15.65 -3.9 15.65 -3.8 7.8" fill="#000000" fill-opacity="0.9019608" fill-rule="evenodd" stroke="none"/>
    <path d="M1.25 -19.95 L11.6 -20.8 11.7 -20.8 8.6 -17.85 8.45 -17.8 7.45 -10.8 6.95 -4.85 7.05 -4.85 10.45 -4.3 20.1 -2.35 20.95 -2.2 22.45 8.05 20.55 6.7 Q20.1 6.95 19.6 7.15 L19.45 7.0 19.4 6.9 7.2 6.3 7.2 6.45 Q5.65 8.7 4.7 11.55 L1.25 20.8 -3.9 20.8 -4.05 20.8 -4.05 20.7 -5.45 20.6 -5.6 20.6 -8.8 20.6 -5.3 18.15 -5.75 18.75 -5.75 18.85 -0.3 18.6 -0.25 18.45 Q2.25 12.45 3.9 6.45 L3.85 6.45 Q1.25 11.95 -0.9 17.8 L-0.9 17.85 -4.5 18.1 -4.5 18.0 -3.25 15.95 -2.95 8.9 Q-2.8 6.45 -3.55 5.0 L-3.65 5.0 -3.8 7.8 -4.9 7.65 Q-4.85 6.2 -5.6 5.3 L-5.9 5.25 -6.05 5.3 -16.9 3.1 -17.4 1.1 -8.3 3.15 Q-6.4 3.5 -5.15 3.15 L-5.15 3.05 -17.35 0.45 -17.35 0.3 Q-18.15 -2.15 -18.4 -4.35 L-18.3 -4.3 Q-17.3 -3.3 -16.1 -2.5 L-7.15 -3.35 Q-5.5 -3.45 -4.65 -4.2 L-4.65 -4.3 -15.9 -3.3 -16.05 -3.3 Q-17.4 -4.85 -19.0 -5.5 L-19.65 -8.25 -17.0 -6.15 -16.55 -6.1 -13.75 -6.1 -13.55 -6.1 Q-9.3 -6.0 -5.45 -6.25 L-5.3 -6.25 -5.25 -6.35 -3.4 -6.1 -3.45 -6.05 -3.35 -6.1 -3.1 -6.2 -3.0 -6.0 -2.9 -5.9 -1.1 -10.8 0.8 -16.85 0.95 -16.9 5.65 -18.6 5.65 -18.45 4.7 -16.7 4.25 -10.8 3.95 -7.85 Q3.75 -5.9 4.4 -5.15 L4.5 -5.15 5.0 -10.8 5.35 -16.4 5.45 -16.45 6.7 -19.35 6.7 -19.45 Q3.45 -18.7 0.5 -17.45 L1.25 -19.95 M6.15 -3.6 L6.2 -3.35 Q7.3 -2.6 9.05 -2.3 L18.95 -0.45 19.0 -0.45 19.7 4.55 19.55 4.5 16.1 2.95 8.45 3.25 Q7.0 3.25 6.7 4.1 L7.05 4.15 16.3 3.75 16.3 3.85 Q18.25 4.9 20.1 5.35 L20.5 5.45 20.55 5.45 20.1 1.6 19.55 -1.1 19.55 -1.15 6.15 -3.6 M2.85 -0.9 Q2.4 -2.45 0.9 -2.85 -1.9 -3.75 -3.1 -1.25 L-3.1 -1.1 -2.95 1.1 -2.85 1.15 Q-2.25 2.2 -1.1 2.65 L-0.9 2.65 0.8 2.65 0.85 2.55 1.75 2.2 1.8 2.05 2.85 0.45 2.85 0.3 2.85 -0.9" fill="url(#gradient0)" fill-rule="evenodd" stroke="none"/>
    <path d="M-16.55 -6.1 L-16.55 -6.25 -13.6 -6.2 -13.55 -6.1 -13.75 -6.1 -16.55 -6.1" fill="#000000" fill-opacity="0.5764706" fill-rule="evenodd" stroke="none"/>
    <path d="M-4.05 20.8 L-4.2 20.8 -5.45 20.6 -4.05 20.7 -4.05 20.8" fill="#000000" fill-opacity="0.49803922" fill-rule="evenodd" stroke="none"/>
    <path d="M-4.35 22.5 L-4.5 22.5 -6.05 22.35 -4.35 22.4 -4.35 22.5" fill="#000000" fill-opacity="0.49411765" fill-rule="evenodd" stroke="none"/>
  </g>
  <defs>
    <radialGradient cx="0" cy="0" gradientTransform="matrix(0.0286, 0.0, 0.0, 0.0286, -0.4, 0.05)" gradientUnits="userSpaceOnUse" id="gradient0" r="819.2" spreadMethod="pad">
      <stop offset="0.5058823529411764" stop-color="#666666"/>
      <stop offset="0.6509803921568628" stop-color="#999999"/>
      <stop offset="0.7843137254901961" stop-color="#484848"/>
    </radialGradient>
  </defs>
</svg>
