<?xml version="1.0" encoding="UTF-8" standalone="no"?>
<svg xmlns:ffdec="https://www.free-decompiler.com/flash" xmlns:xlink="http://www.w3.org/1999/xlink" ffdec:objectType="shape" height="25.75px" width="21.0px" xmlns="http://www.w3.org/2000/svg">
  <g transform="matrix(1.0, 0.0, 0.0, 1.0, -125.5, 13.25)">
    <path d="M135.55 -13.2 L139.0 -13.0 Q139.5 -11.5 139.5 -7.75 L138.75 -7.1 Q138.0 -6.5 136.5 -6.5 L134.2 -6.75 133.75 -7.0 Q133.5 -7.5 133.5 -10.0 133.5 -12.5 133.75 -13.0 L135.55 -13.2 M144.0 12.5 Q141.5 10.15 141.5 9.35 141.5 7.55 142.65 7.0 143.75 6.5 146.0 7.0 L146.25 7.45 146.5 9.25 Q146.5 11.75 146.25 11.5 L145.4 11.9 144.0 12.5 M126.4 0.45 L128.0 -0.5 Q129.6 0.15 130.5 1.5 130.5 2.2 129.9 3.0 129.2 4.0 128.0 4.5 126.5 4.0 125.75 3.25 L125.5 1.75 Q125.5 1.2 126.4 0.45" fill="#666666" fill-rule="evenodd" stroke="none"/>
  </g>
</svg>
