<?xml version="1.0" encoding="UTF-8" standalone="no"?>
<svg xmlns:ffdec="https://www.free-decompiler.com/flash" xmlns:xlink="http://www.w3.org/1999/xlink" ffdec:objectType="shape" height="62.55px" width="194.55px" xmlns="http://www.w3.org/2000/svg">
  <g transform="matrix(1.0, 0.0, 0.0, 1.0, 97.3, 31.3)">
    <path d="M-20.4 26.15 Q-20.85 29.15 -23.3 27.7 L-24.0 27.25 Q-26.3 25.65 -26.3 23.6 -26.3 22.75 -25.3 22.25 L-25.2 22.35 -24.35 23.1 -22.8 23.7 Q-21.4 23.85 -21.3 22.4 -20.2 24.2 -16.55 24.6 -10.9 25.25 -5.15 21.35 -4.05 20.6 -2.9 18.9 L-2.0 19.65 -1.7 19.85 -2.05 19.75 -3.35 20.55 Q-3.6 24.55 -6.3 26.0 -7.35 26.6 -8.75 26.8 -9.85 27.6 -11.55 28.05 -15.3 29.1 -16.1 26.8 L-16.3 25.8 -19.8 24.55 -20.3 24.35 -20.3 24.6 -20.4 26.15 M-31.4 21.0 Q-31.9 22.45 -34.55 22.8 -37.8 23.2 -37.8 21.0 -37.8 20.1 -36.45 19.1 L-35.25 18.35 -34.8 18.25 Q-32.05 18.25 -31.4 19.2 L-31.3 20.3 -31.4 21.0 M-35.35 15.25 L-39.55 15.25 -42.1 12.6 -42.85 11.95 -44.6 10.2 -44.0 9.95 Q-43.15 9.5 -42.8 9.1 L-42.85 8.75 Q-41.9 8.9 -40.6 10.05 L-40.55 10.1 Q-39.05 11.35 -33.8 11.35 -33.2 11.35 -32.55 10.8 L-32.5 10.75 -32.35 10.6 -32.25 11.2 -31.65 14.35 -33.55 15.25 -35.35 15.25 M-60.3 12.95 Q-60.35 15.15 -63.3 16.05 -65.95 16.9 -66.25 15.05 L-65.05 15.05 Q-62.3 14.75 -62.3 13.35 -62.3 12.9 -62.8 12.2 -63.45 11.25 -64.55 11.25 -65.45 11.25 -66.55 11.75 L-66.7 11.8 -66.8 11.1 -66.8 10.5 Q-66.25 10.5 -65.75 10.2 L-65.25 9.75 -64.8 9.75 -63.2 9.85 Q-62.8 10.3 -62.8 11.0 L-62.8 11.1 -62.2 11.85 -61.75 12.3 Q-60.95 12.55 -60.3 12.9 L-60.3 12.95 M-78.15 8.15 Q-79.9 8.8 -81.2 8.45 L-81.55 8.75 -81.95 8.15 Q-82.6 7.85 -83.1 7.15 L-83.75 5.9 -84.05 5.8 -85.05 5.35 -85.3 5.2 -85.3 5.0 -85.35 4.0 -83.9 2.65 Q-82.55 1.65 -81.1 1.35 L-81.3 1.9 -80.95 3.0 Q-81.8 4.65 -81.8 5.55 L-81.7 6.3 -81.55 6.5 -80.3 6.75 -79.85 6.6 Q-79.9 7.35 -80.8 8.15 -79.65 8.4 -78.15 8.15 M-85.55 -2.7 Q-85.2 -3.15 -84.45 -3.4 L-82.05 -3.75 Q-80.45 -3.75 -79.6 -3.15 L-79.15 -2.75 Q-78.8 -2.25 -78.8 -1.6 L-78.85 -0.8 -79.2 -0.45 -81.8 -0.65 -81.85 -0.65 -81.8 -0.35 -83.1 1.35 Q-84.3 2.65 -85.05 2.75 L-86.05 1.95 -86.3 0.65 -86.05 -1.5 -85.8 -1.6 -85.8 -1.9 -85.55 -2.7 M-77.8 -3.25 Q-77.7 -4.05 -76.55 -4.9 L-76.05 -5.25 Q-74.45 -6.25 -73.55 -6.25 L-72.45 -6.15 -72.3 -6.0 -71.9 -5.75 -71.85 -5.5 -71.8 -4.85 Q-71.8 -4.6 -72.65 -3.7 -73.55 -2.7 -73.9 -0.5 L-75.3 -0.8 -76.45 -1.4 Q-77.8 -2.3 -77.8 -3.1 L-77.8 -3.25 M-71.3 -8.5 L-71.3 -9.1 Q-71.3 -10.45 -69.9 -10.9 L-68.2 -11.2 Q-67.65 -11.65 -66.8 -12.0 -65.1 -12.75 -63.3 -12.75 -60.8 -12.75 -60.3 -11.55 L-60.3 -10.25 -60.4 -9.45 -60.4 -9.5 -60.65 -9.65 -61.8 -9.75 -62.95 -9.45 -63.15 -9.25 -63.45 -9.7 -64.55 -9.75 Q-67.25 -9.75 -67.3 -7.85 L-68.55 -7.75 -71.05 -8.0 -71.2 -8.2 -71.3 -8.5 M-58.45 -7.1 L-57.7 -6.4 -57.6 -6.25 -55.15 -6.25 -55.3 -7.35 Q-55.3 -8.35 -53.4 -9.4 -51.8 -10.25 -51.05 -10.25 L-49.5 -10.15 -48.9 -10.0 -48.8 -8.65 Q-48.8 -7.8 -49.35 -7.1 -48.2 -7.75 -47.05 -7.75 L-45.55 -7.45 -45.35 -7.35 Q-44.75 -8.1 -43.7 -8.55 -44.65 -8.5 -45.4 -9.35 L-45.8 -9.9 Q-46.3 -10.65 -46.3 -11.4 -46.3 -12.45 -45.7 -13.1 -45.1 -13.75 -44.3 -13.75 -42.65 -13.75 -42.3 -12.5 L-42.3 -12.25 -42.3 -11.05 -42.4 -9.0 -42.5 -8.95 -41.0 -9.2 -39.55 -9.25 -38.15 -8.9 -37.35 -8.4 Q-36.45 -7.75 -36.3 -7.35 L-36.3 -5.4 -42.55 -4.55 Q-44.2 -4.45 -46.1 -3.0 L-46.3 -4.35 -46.3 -4.8 -46.75 -5.0 -46.9 -5.1 Q-48.95 -5.1 -49.6 -3.9 L-50.8 -2.0 -49.0 -2.0 -49.8 -0.2 -50.75 -0.05 -53.05 -0.9 -53.3 -1.0 -51.55 -2.0 -51.9 -2.25 Q-52.3 -2.65 -52.3 -3.5 L-51.75 -4.95 -50.8 -6.0 -52.05 -5.45 -53.4 -5.2 -53.3 -4.4 -53.3 -4.1 Q-53.3 -3.25 -53.55 -2.75 -53.85 -2.15 -54.6 -1.6 L-55.7 -2.4 -55.75 -2.45 -55.9 -3.4 -55.9 -3.6 -56.3 -3.65 -56.65 -3.05 Q-59.25 -4.75 -60.8 -4.75 L-62.55 -4.5 -62.65 -3.45 -63.55 -3.3 -64.55 -3.05 -64.9 -2.15 -65.05 -0.3 -64.95 1.05 -65.4 1.05 -65.55 1.25 Q-66.65 1.35 -68.45 2.15 L-69.85 2.75 -73.45 0.5 -74.05 0.15 -73.95 0.05 -72.3 -0.25 -70.05 -2.0 -68.85 -1.9 -67.4 -2.0 -67.35 -2.05 -68.0 -0.55 -67.05 -1.1 Q-66.6 -2.5 -65.3 -4.35 L-64.8 -5.0 Q-63.75 -4.55 -62.9 -5.0 L-62.6 -6.45 -61.3 -6.4 -60.4 -6.5 -60.35 -7.75 -60.05 -7.75 Q-59.25 -7.75 -58.45 -7.1 M-37.7 -12.25 L-38.05 -12.25 -38.9 -12.55 Q-39.3 -12.8 -39.3 -13.6 -39.3 -14.6 -38.65 -15.3 L-35.55 -17.25 -32.05 -17.25 -31.75 -17.0 Q-30.3 -15.7 -30.3 -14.9 -30.3 -14.25 -30.8 -13.45 -31.85 -13.8 -32.2 -14.8 L-32.35 -15.5 -32.55 -15.55 Q-33.7 -15.05 -34.4 -14.15 L-34.45 -14.15 -36.15 -12.15 -37.7 -12.25 M-22.7 -15.45 L-20.3 -15.5 -20.75 -15.2 -21.3 -15.1 Q-21.8 -15.1 -22.7 -15.45 M-15.05 -17.75 L-15.9 -17.95 Q-16.3 -18.1 -16.3 -18.9 -16.3 -19.7 -15.4 -20.25 -14.55 -20.8 -12.55 -21.25 L-9.05 -21.25 Q-7.55 -20.25 -7.1 -19.55 L-7.1 -19.5 Q-6.8 -19.1 -6.8 -18.55 -6.8 -16.85 -8.55 -15.75 L-8.85 -16.1 Q-9.1 -13.85 -11.45 -13.65 -10.3 -12.65 -10.3 -12.15 -10.3 -11.55 -10.65 -10.85 L-12.75 -10.75 Q-16.15 -13.55 -23.05 -13.55 L-26.55 -13.45 -25.0 -13.6 -24.55 -13.75 Q-20.7 -15.25 -15.8 -15.25 L-15.7 -15.25 -15.8 -16.0 Q-15.8 -16.8 -15.05 -17.75 M-5.15 -21.05 L-5.3 -22.05 Q-5.3 -23.2 -4.3 -24.0 -3.35 -24.75 -2.05 -24.75 L-0.75 -24.65 -0.4 -24.5 -0.35 -23.15 -0.35 -22.95 1.6 -23.25 2.2 -23.25 Q4.05 -23.25 4.7 -22.75 L4.95 -22.3 5.2 -21.85 5.2 -20.55 4.95 -20.55 3.15 -20.45 2.7 -20.6 2.3 -20.3 -0.45 -19.4 -2.05 -19.1 -3.45 -18.2 -4.4 -17.6 -5.25 -16.9 -5.3 -17.85 Q-5.3 -19.0 -4.45 -20.15 -4.9 -20.5 -5.15 -21.05 M5.2 -22.45 L5.2 -22.85 Q5.2 -24.05 6.45 -25.15 7.8 -26.25 9.45 -26.25 L12.0 -26.0 12.15 -25.55 12.15 -25.2 11.95 -25.25 10.45 -24.6 10.2 -23.1 Q10.2 -22.8 10.55 -22.4 L10.85 -22.1 Q10.05 -21.45 8.7 -21.0 5.45 -19.9 5.2 -22.45 M10.6 26.25 L11.65 25.0 11.9 24.75 10.85 24.8 11.8 24.25 Q13.25 23.25 14.2 23.25 L14.3 23.75 15.25 23.75 14.95 24.45 Q17.1 25.65 19.2 26.35 L19.15 26.85 18.2 26.75 Q17.0 26.75 16.15 27.45 L16.2 27.0 16.1 25.9 16.0 25.5 14.2 25.25 Q13.0 25.25 12.15 25.95 L11.55 26.25 10.6 26.25 M6.8 24.45 Q2.6 23.65 -0.8 21.25 L-0.85 20.95 -0.6 21.2 Q1.45 23.05 6.3 22.85 L6.4 22.85 6.55 22.85 6.6 22.85 6.7 22.85 6.2 23.35 Q6.2 23.95 6.8 24.45 M-21.6 21.85 L-21.5 22.1 -21.7 21.9 -21.65 21.9 -21.6 21.85 M-28.05 -9.6 L-26.55 -8.55 -25.85 -8.5 -27.2 -8.0 Q-31.15 -6.5 -35.25 -5.65 L-35.3 -6.4 Q-35.3 -7.85 -28.05 -9.6 M-55.8 18.5 Q-56.7 20.05 -58.55 20.5 -59.9 20.8 -61.05 20.5 L-61.2 20.05 -61.3 19.0 Q-61.3 16.75 -58.8 16.75 -57.5 16.75 -56.9 17.3 L-55.8 18.5 M-48.2 15.35 L-48.3 14.55 Q-48.3 13.6 -47.2 12.85 -46.3 12.25 -45.55 12.25 L-44.25 12.35 -43.9 12.5 -43.8 13.8 Q-43.8 14.7 -44.5 15.25 -45.55 16.1 -48.05 15.5 L-48.2 15.35 M-46.3 8.6 L-46.3 8.85 -46.6 9.05 -47.1 8.9 -46.3 8.6 M-42.8 7.8 L-43.8 7.75 -44.0 7.75 -43.25 7.4 -42.8 7.8 M-56.3 4.9 L-56.4 3.5 -56.9 3.35 -57.45 3.25 Q-57.55 3.15 -57.8 3.0 L-55.3 3.0 Q-54.45 3.25 -52.3 4.25 L-52.6 4.9 -53.75 5.65 -54.05 5.8 -56.3 4.9 M-77.8 19.5 L-77.8 18.85 -74.8 15.6 Q-72.4 13.25 -71.65 13.25 L-71.55 13.25 -70.25 13.35 -69.9 13.5 -69.8 14.8 -69.8 14.85 -69.85 15.0 -69.85 15.05 -70.35 15.7 -70.4 15.35 -70.8 14.9 -71.8 14.75 -72.85 14.9 -73.15 15.1 -73.25 15.1 -73.3 16.05 -73.2 16.85 -73.05 17.0 -71.9 17.2 -71.8 18.35 Q-71.8 19.8 -72.55 20.1 L-74.8 20.25 -77.55 20.0 -77.7 19.75 -77.8 19.5 M-68.8 21.55 Q-68.8 20.75 -68.0 20.35 L-66.55 19.75 Q-65.8 20.0 -65.65 20.15 -65.3 20.45 -65.3 21.3 -65.3 22.25 -65.95 22.5 -66.6 22.75 -68.55 22.5 L-68.7 22.35 -68.8 21.55 M-74.7 7.25 L-74.8 7.25 -75.25 7.25 -75.2 7.0 -74.6 7.1 -74.7 7.25 M-87.2 11.6 L-88.05 11.5 -88.2 11.35 -88.3 10.55 -88.3 10.25 Q-88.1 9.3 -86.8 8.5 -86.0 8.0 -85.3 7.85 L-84.55 7.75 -83.0 7.85 -82.4 8.0 -82.3 9.5 -82.3 10.0 Q-82.3 9.3 -82.65 9.05 L-83.55 8.75 -84.55 9.25 Q-85.3 9.85 -85.3 10.55 L-85.2 11.35 -85.05 11.5 Q-83.85 11.5 -83.0 11.0 -82.3 10.55 -82.3 10.1 -82.35 11.9 -83.8 11.9 L-86.2 11.7 -86.9 11.6 -87.2 11.6 M-82.4 6.3 L-83.65 5.95 -82.7 7.2 -82.25 7.55 -82.4 6.3 M-83.15 1.05 L-82.3 0.15 -82.4 -0.6 -82.8 -1.1 -83.8 -1.25 -84.85 -1.05 -85.15 -0.85 Q-85.3 -1.15 -85.3 0.1 L-85.2 0.9 -85.05 1.0 -83.15 1.05 M-95.05 4.75 L-94.15 5.15 Q-93.8 5.45 -93.8 6.3 -93.8 6.7 -94.45 7.45 -95.15 8.2 -96.05 8.75 L-96.9 8.4 Q-97.3 8.15 -97.3 7.35 -97.3 6.65 -96.95 6.0 -96.35 5.0 -95.05 4.75 M-94.75 -3.75 L-94.3 -3.5 -94.15 -2.8 -96.05 -2.75 -95.55 -2.85 -95.05 -3.5 -94.9 -3.8 -94.75 -3.75 M-66.9 -2.6 L-66.85 -3.0 -66.5 -3.0 -66.9 -2.6 M-33.35 -10.85 Q-35.7 -9.0 -35.05 -11.1 L-34.05 -10.9 -33.35 -10.85 M20.35 19.35 L19.4 20.0 19.2 20.0 19.15 18.0 19.15 17.95 20.35 19.35 M18.2 16.95 L18.45 16.95 18.55 17.15 18.2 16.95" fill="#666666" fill-rule="evenodd" stroke="none"/>
    <path d="M-24.0 27.25 Q-26.8 27.15 -26.8 23.6 L-26.8 21.75 -26.6 21.35 -26.35 21.1 -27.0 21.15 -31.05 21.25 -31.4 21.0 -31.3 20.3 -31.4 19.2 Q-32.05 18.25 -34.8 18.25 L-35.25 18.35 Q-36.3 17.5 -36.3 16.85 -36.3 16.2 -35.8 15.9 -35.4 15.65 -35.35 15.25 L-33.55 15.25 -31.65 14.35 -31.4 15.3 -31.05 16.85 -30.9 17.5 -30.85 17.95 -30.25 18.7 Q-27.6 19.75 -24.6 20.3 L-24.85 20.75 -24.8 20.75 -24.3 20.85 -24.6 21.15 -25.3 22.25 Q-26.3 22.75 -26.3 23.6 -26.3 25.65 -24.0 27.25 M-42.85 11.95 L-43.65 11.6 -46.75 11.25 -48.65 10.8 -47.25 9.55 -47.1 8.9 -46.6 9.05 -46.3 9.15 -46.3 8.85 -46.3 8.6 -46.0 8.5 -46.3 9.55 -46.2 10.35 -46.05 10.5 -44.6 10.2 -42.85 11.95 M-48.75 10.9 L-48.8 11.4 Q-48.8 15.65 -54.05 16.0 -56.15 16.15 -57.65 15.3 L-59.0 14.05 -57.55 15.25 -52.65 15.05 -50.8 13.0 -49.85 12.0 -48.75 10.9 M-60.25 12.95 L-60.3 12.95 -60.3 12.9 -60.25 12.95 M-67.75 13.8 Q-68.8 13.3 -68.8 12.1 -68.8 10.9 -68.3 10.1 -67.5 10.55 -66.8 10.5 L-66.8 11.1 -66.7 11.8 Q-67.8 12.4 -67.8 13.1 L-67.75 13.8 M-70.3 10.25 L-70.4 11.5 Q-71.75 11.95 -72.75 10.95 -74.3 9.4 -76.8 8.75 L-76.25 7.75 -77.05 7.75 -78.15 8.15 Q-79.65 8.4 -80.8 8.15 -79.9 7.35 -79.85 6.6 L-78.6 5.6 -77.85 4.9 -76.0 6.0 -75.8 6.5 -75.55 6.95 -75.2 7.0 -75.25 7.25 -74.8 7.25 -74.7 7.25 -74.85 7.75 -72.55 7.75 Q-71.35 8.15 -70.8 9.45 L-70.3 10.25 M-85.05 5.35 L-85.3 5.55 -85.3 5.2 -85.05 5.35 M-89.8 4.95 L-89.8 4.4 Q-89.8 3.75 -88.05 2.25 L-87.3 1.6 Q-88.3 1.15 -88.3 -0.1 -88.3 -1.25 -87.3 -2.0 -86.55 -2.55 -85.55 -2.7 L-85.8 -1.9 -85.8 -1.6 -86.05 -1.5 -86.3 0.65 -86.05 1.95 -85.05 2.75 Q-84.3 2.65 -83.1 1.35 L-81.8 -0.35 -81.85 -0.65 -81.8 -0.65 -79.2 -0.45 -81.1 1.35 Q-82.55 1.65 -83.9 2.65 L-85.35 4.0 -85.4 3.5 -85.9 3.35 -87.3 3.25 Q-89.55 3.25 -89.8 4.95 M-79.6 -3.15 L-78.05 -3.25 -77.8 -3.25 -77.8 -3.1 Q-77.8 -2.3 -76.45 -1.4 L-75.3 -0.8 -75.3 -0.65 Q-76.6 -1.45 -77.2 -1.65 L-78.55 -1.0 -78.85 -0.8 -78.8 -1.6 Q-78.8 -2.25 -79.15 -2.75 L-79.6 -3.15 M-76.55 -4.9 Q-75.95 -6.0 -74.2 -7.15 -72.65 -8.15 -71.3 -8.5 L-71.2 -8.2 -71.05 -8.0 -68.55 -7.75 -67.3 -7.85 -67.3 -7.75 Q-67.3 -6.7 -65.75 -5.55 -65.25 -5.2 -64.8 -5.0 L-65.3 -4.35 Q-66.6 -2.5 -67.05 -1.1 L-68.0 -0.55 -67.35 -2.05 -67.05 -2.25 -66.9 -2.35 -66.9 -2.6 -66.5 -3.0 -66.2 -3.25 -66.8 -3.25 -66.9 -4.5 -67.75 -4.65 Q-68.3 -5.25 -69.05 -5.25 -69.8 -5.25 -70.05 -4.95 L-70.3 -4.6 -70.3 -3.8 Q-71.35 -4.35 -71.8 -5.5 L-71.85 -5.5 -71.9 -5.75 -72.3 -6.0 -72.45 -6.15 -73.55 -6.25 Q-74.45 -6.25 -76.05 -5.25 L-76.55 -4.9 M-60.35 -9.35 Q-59.35 -8.6 -58.55 -7.4 L-58.45 -7.1 Q-59.25 -7.75 -60.05 -7.75 L-60.35 -7.75 -60.3 -8.0 -60.35 -9.35 M-45.55 -7.45 L-44.7 -8.0 Q-45.75 -8.45 -45.8 -9.9 L-45.4 -9.35 Q-44.65 -8.5 -43.7 -8.55 -44.75 -8.1 -45.35 -7.35 L-45.55 -7.45 M-42.3 -12.25 L-41.5 -12.15 -40.9 -12.0 -40.8 -10.5 -41.0 -9.2 -42.5 -8.95 -42.4 -9.0 -42.3 -11.05 -42.3 -12.25 M-38.15 -8.9 Q-37.6 -10.3 -36.65 -11.55 L-36.45 -11.8 Q-36.0 -11.35 -35.05 -11.1 -35.7 -9.0 -33.35 -10.85 L-33.15 -10.85 Q-32.85 -10.65 -32.55 -10.55 L-32.05 -10.75 -30.95 -10.85 -30.55 -11.3 -30.15 -11.15 -30.3 -11.7 -30.35 -11.7 -30.3 -11.85 -30.35 -12.15 Q-30.05 -12.5 -30.05 -12.8 L-30.15 -13.3 -30.8 -13.45 Q-30.3 -14.25 -30.3 -14.9 -30.3 -15.7 -31.75 -17.0 L-31.05 -17.25 Q-28.75 -17.25 -28.3 -16.05 L-28.3 -15.65 Q-27.1 -16.25 -25.3 -16.25 L-23.3 -15.7 -22.7 -15.45 Q-21.8 -15.1 -21.3 -15.1 L-20.75 -15.2 -20.3 -15.5 -19.25 -16.15 -18.85 -16.45 Q-17.45 -17.75 -15.3 -17.75 L-15.05 -17.75 Q-15.8 -16.8 -15.8 -16.0 L-15.7 -15.25 -15.8 -15.25 Q-20.7 -15.25 -24.55 -13.75 L-25.0 -13.6 -26.55 -13.45 -28.3 -13.3 -29.05 -10.9 -28.25 -9.8 -28.05 -9.6 Q-35.3 -7.85 -35.3 -6.4 L-35.25 -5.65 -36.3 -5.4 -36.3 -7.35 Q-36.45 -7.75 -37.35 -8.4 L-38.15 -8.9 M-36.4 -11.85 L-36.55 -11.75 -37.4 -11.95 -37.7 -12.25 -36.15 -12.15 -36.4 -11.85 M-7.1 -19.5 L-6.05 -20.35 -5.15 -21.05 Q-4.9 -20.5 -4.45 -20.15 -5.3 -19.0 -5.3 -17.85 L-5.25 -16.9 Q-6.05 -16.0 -6.05 -14.9 L-6.05 -14.6 -6.1 -14.55 Q-6.4 -14.4 -6.75 -14.2 -9.1 -12.75 -9.3 -10.25 -10.0 -10.65 -10.65 -10.85 -10.3 -11.55 -10.3 -12.15 -10.3 -12.65 -11.45 -13.65 -9.1 -13.85 -8.85 -16.1 L-8.55 -15.75 Q-6.8 -16.85 -6.8 -18.55 -6.8 -19.1 -7.1 -19.5 M-0.35 -23.15 L0.95 -23.25 1.6 -23.25 -0.35 -22.95 -0.35 -23.15 M4.95 -22.3 L5.0 -22.25 5.2 -22.45 Q5.45 -19.9 8.7 -21.0 10.05 -21.45 10.85 -22.1 L11.45 -21.75 Q11.45 -22.2 12.3 -22.7 13.2 -23.25 13.2 -23.65 13.2 -24.5 12.85 -24.85 L12.15 -25.2 12.15 -25.55 Q13.4 -25.25 13.75 -24.4 L13.7 -24.0 13.75 -24.0 Q15.05 -25.75 16.7 -25.75 L19.85 -25.35 22.35 -24.85 23.0 -25.35 Q26.55 -28.25 29.2 -28.25 31.05 -28.25 31.65 -27.75 L31.75 -27.65 27.7 -25.4 25.5 -24.55 26.0 -24.5 26.15 -24.15 24.6 -22.6 20.0 -19.85 19.75 -19.65 19.55 -19.55 19.45 -19.55 18.05 -18.7 16.75 -17.6 13.75 -18.25 13.25 -18.95 11.45 -19.55 10.45 -19.55 Q8.65 -20.5 5.2 -20.55 L5.2 -21.85 4.95 -22.3 M34.6 24.8 Q34.35 26.25 33.25 27.25 30.45 29.75 22.95 28.75 L20.2 28.4 Q20.15 27.25 19.15 26.85 L19.2 26.35 Q24.15 28.05 28.8 27.05 L30.7 26.25 31.0 26.1 34.6 24.8 M10.85 24.8 L9.45 25.25 Q7.75 25.25 6.85 24.5 L6.8 24.45 Q6.2 23.95 6.2 23.35 L6.7 22.85 6.6 22.85 6.55 22.85 6.4 22.85 6.3 22.85 Q1.45 23.05 -0.6 21.2 L-0.85 20.95 Q-0.85 20.4 -1.15 20.15 L-1.7 19.85 -2.0 19.65 -2.9 18.9 -2.45 18.25 -1.25 15.95 0.25 16.65 Q3.9 20.45 7.95 20.45 11.3 20.45 13.7 18.7 15.95 17.05 18.2 16.95 L18.55 17.15 19.15 17.95 19.15 18.0 19.2 20.0 19.4 20.0 21.25 20.1 22.05 20.65 22.3 20.95 22.8 21.4 Q16.95 21.1 15.65 22.15 15.15 22.55 15.25 23.45 L15.25 23.75 14.3 23.75 14.2 23.25 Q13.25 23.25 11.8 24.25 L10.85 24.8 M-16.1 26.8 Q-19.8 27.05 -19.8 24.85 L-19.8 24.6 Q-19.8 25.55 -20.4 26.15 L-20.3 24.6 -20.3 24.35 -19.8 24.55 -16.3 25.8 -16.1 26.8 M1.15 29.65 L-1.05 29.5 -1.3 28.0 Q-1.3 27.1 -0.7 26.5 0.05 25.75 1.45 25.75 2.95 25.75 3.45 26.65 L3.7 27.65 Q3.7 28.5 3.2 29.0 L3.2 28.5 3.1 27.0 1.7 26.75 Q0.55 26.75 -0.3 28.75 0.45 29.35 1.15 29.65 M-37.05 9.75 L-36.15 10.15 -35.95 10.45 -35.8 10.15 -35.6 9.75 -34.8 9.75 -33.15 9.9 -32.5 10.75 -32.55 10.8 Q-33.2 11.35 -33.8 11.35 -39.05 11.35 -40.55 10.1 -38.95 10.5 -37.05 9.75 M-46.1 -3.0 L-46.75 -2.45 -47.85 -1.7 -48.05 -1.75 Q-48.5 -1.65 -48.95 -0.75 -49.15 -0.4 -49.8 -0.2 L-49.0 -2.0 -47.85 -3.65 -46.75 -5.0 -46.3 -4.8 -46.3 -4.35 -46.1 -3.0 M-64.9 1.25 L-65.3 1.25 -65.55 1.25 -65.4 1.05 -64.95 1.05 -64.9 1.25 M-64.9 9.3 L-63.35 9.7 -63.2 9.85 -64.8 9.75 -65.25 9.75 -64.9 9.3 M-74.8 15.6 Q-74.65 14.75 -73.7 14.0 -72.65 13.25 -71.8 13.25 L-71.65 13.25 Q-72.4 13.25 -74.8 15.6 M-69.85 15.05 L-70.3 16.0 -70.35 15.7 -69.85 15.05 M-71.9 17.2 L-71.4 17.7 -71.3 18.8 Q-71.3 19.9 -72.95 20.65 L-77.55 21.0 -77.7 20.75 -77.8 19.85 -77.8 19.5 -77.7 19.75 -77.55 20.0 -74.8 20.25 -72.55 20.1 Q-71.8 19.8 -71.8 18.35 L-71.9 17.2 M-88.3 10.25 L-88.55 9.8 -88.8 7.75 -88.3 7.1 Q-87.85 6.75 -87.05 6.75 L-85.75 6.85 -85.4 7.0 Q-85.3 7.05 -85.3 7.85 -86.0 8.0 -86.8 8.5 -88.1 9.3 -88.3 10.25 M-82.3 9.5 L-82.25 9.55 Q-81.4 10.25 -81.3 10.75 -82.1 12.25 -83.8 12.25 L-86.05 12.0 -86.2 11.7 -83.8 11.9 Q-82.35 11.9 -82.3 10.1 L-82.3 10.0 -82.3 9.5 M-86.9 11.6 L-87.05 11.75 -87.2 11.6 -86.9 11.6 M-82.4 6.3 L-82.25 7.55 -82.7 7.2 -83.65 5.95 -82.4 6.3 M2.3 -20.3 L2.7 -20.6 3.15 -20.45 2.3 -20.3 M17.5 -22.15 Q16.2 -23.25 15.2 -23.25 13.7 -23.25 13.7 -21.5 13.7 -19.85 16.2 -19.0 18.7 -18.15 18.7 -20.6 18.7 -21.1 17.5 -22.15 M57.75 -31.2 L57.6 -31.25 57.7 -31.3 57.75 -31.2" fill="#999999" fill-rule="evenodd" stroke="none"/>
    <path d="M-48.65 10.8 L-48.75 10.9 -49.85 12.0 -50.4 12.25 -51.5 12.65 -52.3 12.85 -53.7 13.1 -53.25 12.95 Q-52.8 12.75 -52.55 12.4 -52.15 11.9 -52.1 11.0 L-51.6 10.8 -50.55 10.3 -51.55 10.0 -51.7 9.85 -51.8 9.65 -51.8 9.05 -51.65 7.05 -52.05 6.75 Q-52.8 6.95 -53.8 7.7 L-54.55 7.45 Q-55.35 7.45 -56.6 8.45 L-57.2 9.0 Q-57.9 9.85 -58.05 10.75 L-58.05 11.1 -57.8 12.7 -57.55 12.95 -55.55 13.15 -55.1 13.2 -55.5 13.2 -59.3 12.95 -59.55 12.95 -59.8 12.7 Q-60.05 12.55 -60.05 11.1 -60.05 10.0 -59.1 9.15 -58.3 8.45 -56.85 7.9 L-52.0 6.3 -52.05 5.1 -51.9 4.45 -51.65 4.6 -51.4 4.7 -51.35 4.2 -51.6 4.1 -57.35 1.8 -59.55 0.9 -60.3 0.6 -61.25 0.2 -61.8 -0.1 Q-61.8 -0.95 -61.45 -1.3 L-60.55 -1.75 -57.05 -1.75 -55.15 -1.4 -54.95 -1.35 -53.85 -1.1 -53.3 -1.0 -53.05 -0.9 -50.75 -0.05 -50.0 0.45 -49.8 0.6 -49.45 0.15 -48.05 -1.45 -47.85 -1.7 -46.75 -2.45 -46.0 -2.75 -44.15 -3.15 -42.3 -3.25 -39.6 -3.0 Q-37.75 -2.55 -36.9 -1.4 L-36.3 0.6 -36.65 1.75 -36.05 1.4 Q-35.3 1.0 -34.5 0.75 -33.85 -1.3 -32.05 -2.45 L-30.15 -3.45 -30.0 -3.55 -19.55 -3.55 Q-18.1 -3.05 -17.75 -2.75 L-17.55 -2.55 -17.45 -2.55 -17.1 -3.0 -14.9 -3.2 -14.2 -3.55 -16.95 -3.9 Q-19.9 -4.4 -21.3 -5.6 L-21.55 -5.8 -21.8 -5.4 -21.95 -5.55 -22.05 -6.65 -22.05 -6.9 -22.05 -7.1 -22.05 -7.35 -21.9 -8.0 -21.85 -8.1 -21.4 -8.8 -19.05 -9.1 -19.05 -8.15 -19.05 -7.9 Q-19.05 -6.45 -18.8 -6.3 L-18.55 -6.1 -18.55 -6.05 -14.75 -5.95 -14.5 -6.15 -13.95 -6.75 -12.7 -6.7 -11.4 -6.5 -11.4 -6.65 -10.9 -6.6 -9.4 -5.15 -8.85 -4.65 Q-7.95 -4.45 -7.2 -3.9 L-6.45 -5.5 -5.3 -6.75 -5.05 -7.05 Q-3.65 -8.85 -1.1 -9.5 0.85 -10.4 3.0 -10.85 L2.7 -10.85 0.3 -10.3 -0.95 -9.95 -2.05 -9.75 -4.05 -10.0 -4.2 -10.2 -4.3 -11.1 -4.0 -12.0 -4.9 -11.85 Q-3.85 -12.9 -1.4 -13.95 0.2 -14.6 0.2 -16.15 L-0.05 -17.2 -0.15 -17.35 -0.95 -17.7 -1.05 -17.75 -3.8 -15.85 -6.1 -14.55 -6.05 -14.6 -6.05 -14.9 Q-6.05 -16.0 -5.25 -16.9 L-4.4 -17.6 -3.45 -18.2 -2.05 -19.1 -0.45 -19.4 2.3 -20.3 3.15 -20.45 4.95 -20.55 5.2 -20.55 Q8.65 -20.5 10.45 -19.55 L11.45 -19.55 13.25 -18.95 13.75 -18.25 16.75 -17.6 Q15.95 -16.75 15.95 -15.9 L15.95 -15.6 Q16.0 -14.45 16.2 -14.3 L16.45 -14.05 16.5 -14.05 Q15.95 -12.75 15.95 -11.4 L14.7 -11.2 14.7 -11.5 13.4 -14.9 12.6 -15.9 Q11.0 -17.6 8.4 -18.1 L6.95 -18.55 5.35 -18.25 Q0.7 -18.05 0.7 -16.35 0.7 -15.6 0.2 -14.55 L0.1 -14.35 1.45 -15.25 6.45 -15.25 Q7.9 -14.05 8.15 -13.25 L8.2 -13.25 8.95 -11.05 9.0 -11.05 10.0 -10.65 Q11.2 -9.95 11.2 -9.1 11.2 -8.3 10.85 -8.05 L10.35 -7.9 9.95 -7.75 Q-2.25 -8.05 -3.3 -4.4 -3.4 -2.65 -3.75 -2.05 L-3.8 -2.0 -3.8 -1.55 Q-4.35 -1.05 -4.8 -0.9 L-4.8 2.4 Q-7.45 2.4 -7.7 0.95 -7.95 -0.5 -12.2 -0.5 L-12.45 -0.5 -13.7 1.15 Q-15.15 2.65 -15.3 3.8 L-15.6 4.0 -16.55 4.25 -18.3 2.75 -19.55 2.5 -19.8 1.15 -21.4 -0.1 Q-25.85 -0.2 -27.2 1.2 -27.8 1.85 -27.8 3.5 L-27.8 3.6 -27.55 3.8 -27.8 3.7 -26.8 6.3 Q-25.8 8.25 -25.8 8.75 -25.8 13.15 -28.4 9.9 -30.95 6.7 -31.3 4.0 L-31.1 3.85 -31.85 3.75 -35.15 4.25 -35.3 4.45 Q-35.4 4.95 -36.55 5.75 L-37.55 5.0 -37.8 3.8 Q-37.8 3.05 -37.35 2.4 -37.4 1.75 -37.7 1.3 -38.4 0.35 -40.55 -0.25 L-45.05 -0.25 Q-46.0 0.15 -46.75 0.65 -47.2 1.9 -47.3 3.9 L-47.3 4.8 -47.75 6.6 -47.75 6.75 -47.5 6.6 Q-47.05 7.3 -47.05 8.6 L-47.1 8.9 -47.25 9.55 -48.65 10.8 M-66.25 15.05 Q-67.45 14.85 -67.75 13.8 L-67.8 13.1 Q-67.8 12.4 -66.7 11.8 L-66.55 11.75 Q-65.45 11.25 -64.55 11.25 -63.45 11.25 -62.8 12.2 -62.3 12.9 -62.3 13.35 -62.3 14.75 -65.05 15.05 L-66.25 15.05 M-85.3 5.55 L-85.4 6.5 -86.15 6.6 -87.55 6.75 -87.7 6.75 -89.0 6.6 -89.55 6.5 -89.7 6.2 -89.8 5.35 -89.8 4.95 Q-89.55 3.25 -87.3 3.25 L-85.9 3.35 -85.4 3.5 -85.35 4.0 -85.3 5.0 -85.3 5.2 -85.3 5.55 M-36.45 -11.8 L-36.4 -11.85 -36.15 -12.15 -34.45 -14.15 -34.4 -14.15 -33.65 -13.95 -31.4 -13.5 -31.35 -13.2 -32.05 -13.25 -33.25 -13.05 -33.65 -12.85 Q-33.8 -13.15 -33.8 -11.9 L-33.7 -11.1 -33.55 -11.0 -33.25 -10.95 -32.75 -10.85 -33.15 -10.85 -33.35 -10.85 -34.05 -10.9 -35.05 -11.1 Q-36.0 -11.35 -36.45 -11.8 M31.75 -27.65 Q35.15 -29.1 39.45 -29.55 L43.45 -29.75 Q47.5 -29.75 48.95 -28.1 49.7 -27.3 49.7 -26.25 L49.5 -25.6 Q49.25 -25.25 48.45 -25.25 47.95 -25.25 46.2 -27.0 L41.7 -27.0 41.55 -28.0 39.45 -28.25 Q36.25 -28.25 32.2 -26.15 L30.3 -25.05 28.7 -24.0 28.0 -23.55 Q23.2 -20.1 23.2 -18.9 L23.3 -18.1 23.45 -18.0 Q24.25 -17.85 26.6 -18.95 29.55 -20.3 30.5 -22.25 L30.8 -22.75 30.7 -21.35 30.75 -20.5 Q29.25 -20.3 27.95 -18.6 L27.4 -17.85 26.15 -15.65 27.45 -15.75 Q31.6 -15.75 33.55 -14.15 34.7 -13.15 34.7 -12.25 34.7 -12.0 33.9 -11.75 L33.05 -11.2 33.75 -11.1 32.25 -7.95 31.95 -6.75 31.55 -6.35 29.0 -6.3 Q29.2 -7.5 30.35 -9.1 31.7 -10.95 31.7 -11.65 31.7 -12.9 31.5 -13.0 L30.2 -13.25 Q27.5 -13.25 24.45 -10.75 21.2 -8.1 21.2 -5.3 21.2 -3.9 24.9 -0.25 L25.55 0.4 24.6 1.0 Q20.7 3.25 20.7 3.6 20.7 4.8 21.9 5.55 L24.95 6.8 Q24.0 7.7 24.45 9.0 L25.95 8.95 26.25 11.25 31.7 11.0 35.0 8.0 Q37.35 6.2 38.95 5.8 L39.1 5.8 39.7 5.75 41.55 6.0 41.7 7.3 Q41.7 9.7 36.05 13.45 32.65 15.75 29.85 16.45 L29.85 16.5 30.5 17.35 28.85 19.6 Q27.7 21.0 27.7 21.85 L27.8 22.75 27.95 23.0 Q29.95 22.85 31.8 21.65 L33.1 20.75 34.75 19.15 Q37.7 15.85 37.7 13.0 L42.8 13.0 43.1 13.1 Q44.65 9.65 46.45 8.75 47.35 9.05 47.6 9.7 L47.7 10.35 47.7 10.55 47.7 10.85 Q47.7 12.5 46.35 15.1 44.85 18.05 42.95 19.25 L42.7 19.15 42.8 19.75 42.95 20.0 43.1 20.1 44.2 20.25 Q45.5 20.25 48.15 15.8 L49.1 14.25 47.95 14.0 47.8 13.85 47.7 13.05 Q47.7 12.1 48.4 11.85 L50.2 11.75 51.95 11.9 51.95 11.7 52.0 11.35 52.8 11.55 53.1 11.5 54.65 13.35 54.5 13.4 Q55.2 14.35 55.2 15.85 L55.15 16.9 56.7 15.85 56.55 17.7 Q56.55 18.8 57.45 19.75 58.9 18.8 59.6 16.9 60.2 15.35 60.2 13.5 L60.0 12.55 61.05 11.25 Q60.4 10.25 59.2 10.0 L59.15 11.0 58.6 10.25 57.05 8.25 Q57.05 7.15 57.2 6.25 56.15 6.8 55.5 8.1 54.7 9.8 51.95 8.5 L51.8 8.2 51.7 7.35 Q51.7 6.2 55.2 4.0 58.7 1.75 60.45 1.75 L63.3 2.15 64.95 2.4 Q66.75 5.05 70.45 8.25 L71.45 8.0 71.7 7.75 71.7 4.2 71.95 4.7 72.55 4.55 73.2 4.75 Q74.55 4.75 75.0 3.05 75.45 1.4 75.8 1.4 L76.4 1.45 77.45 2.75 78.7 5.25 Q78.7 6.0 76.85 8.05 L76.05 8.85 75.35 9.45 Q74.1 10.45 72.95 10.5 72.7 9.8 72.85 9.2 L70.7 9.1 68.95 8.35 68.95 8.1 68.95 7.75 66.0 7.2 Q64.45 6.8 63.6 6.25 L63.45 6.25 62.8 6.15 61.7 6.0 61.7 6.5 61.4 7.0 60.8 7.2 Q62.0 8.05 62.85 9.25 64.2 11.25 64.2 13.0 64.2 14.8 63.9 15.3 L63.0 16.1 63.05 16.4 59.95 20.25 59.9 20.3 59.45 20.6 57.1 21.9 56.95 21.95 51.3 23.6 Q52.55 22.75 53.15 21.4 L55.3 19.5 53.5 20.3 53.7 18.4 53.75 18.15 52.45 18.0 Q52.3 17.6 52.5 17.05 L52.7 15.9 52.7 15.75 Q52.7 15.25 51.75 14.95 L50.05 14.5 Q50.2 15.45 50.5 16.05 L50.2 16.35 Q50.2 17.05 51.0 18.85 51.75 20.4 51.5 21.05 L51.45 21.15 49.2 21.95 48.3 21.7 48.1 21.5 47.0 22.1 39.45 21.25 39.15 21.35 Q39.6 20.4 41.3 19.05 L41.95 18.55 Q41.7 18.2 41.7 17.5 42.1 15.65 42.9 13.65 L43.1 13.15 43.0 13.15 42.45 13.6 40.5 13.5 Q40.0 13.5 38.65 15.45 L37.6 16.55 Q37.0 19.8 35.25 21.8 L34.65 22.4 Q33.55 23.5 32.0 24.3 L30.5 25.05 29.75 25.3 29.35 25.45 Q26.05 26.6 21.45 26.95 L21.2 26.7 Q20.95 26.55 20.95 25.1 L21.4 24.6 21.8 24.25 22.0 24.1 21.95 23.1 24.4 20.7 26.75 18.7 23.95 16.5 21.6 14.25 20.95 13.6 18.9 11.0 Q17.9 12.85 13.85 14.5 10.4 15.9 7.0 15.6 5.0 15.45 3.05 14.7 L2.75 14.7 -0.6 14.25 -0.75 14.55 -1.25 15.95 -2.45 18.25 -2.9 18.9 Q-4.05 20.6 -5.15 21.35 -10.9 25.25 -16.55 24.6 -20.2 24.2 -21.3 22.4 -21.4 23.85 -22.8 23.7 L-24.35 23.1 -25.2 22.35 -25.3 22.25 -24.6 21.15 -24.3 20.85 -24.2 20.8 -24.25 20.85 -24.3 21.55 -24.3 21.9 -24.2 22.35 -24.05 22.5 Q-22.9 22.5 -21.7 21.9 L-21.5 22.1 -21.6 21.85 -21.5 21.8 Q-20.3 21.25 -20.3 20.6 L-20.4 19.7 -20.8 19.5 -20.85 19.45 -20.25 19.25 -19.5 19.1 -14.4 18.6 -11.15 18.0 Q-6.7 16.85 -6.3 13.85 L-6.0 12.55 -5.4 11.3 -5.35 11.2 Q-4.8 12.25 -4.8 13.65 L-4.8 13.85 -5.0 14.55 -3.35 13.05 -1.9 11.8 -1.8 11.75 -0.85 11.8 -1.0 11.7 -1.8 11.05 Q-3.8 9.2 -3.8 6.35 L-3.8 5.95 -3.8 5.5 Q-3.8 4.4 -3.2 3.55 -2.55 2.75 -1.8 2.75 L-0.65 2.85 -0.4 3.0 -0.7 3.95 Q-0.2 4.2 0.25 4.8 L1.65 7.1 Q2.65 8.65 4.25 9.5 L4.3 9.0 5.1 8.85 6.45 10.15 6.0 10.15 8.95 10.5 Q11.95 10.5 15.2 8.1 18.45 5.75 18.7 5.75 L19.05 5.75 19.2 5.6 19.0 4.5 18.65 4.35 18.7 4.15 Q18.7 2.55 19.7 1.5 L20.35 0.95 Q21.4 0.25 22.9 0.25 L22.95 0.25 23.9 1.05 23.95 0.6 23.95 -0.25 23.25 -0.2 Q21.9 -0.45 20.9 -3.45 19.7 -7.0 19.7 -10.25 19.7 -12.3 20.15 -14.3 21.1 -18.3 24.0 -21.9 L24.6 -22.6 26.15 -24.15 27.7 -25.4 31.75 -27.65 M61.0 -24.05 L61.55 -25.05 Q62.25 -26.05 63.45 -26.55 L65.3 -25.65 65.1 -25.15 65.0 -24.75 64.7 -24.5 Q64.2 -24.1 64.2 -23.9 64.2 -23.15 64.3 -23.1 L62.05 -22.35 60.95 -23.55 61.0 -24.05 M82.05 19.75 Q79.65 21.45 76.6 21.1 79.45 20.9 82.05 19.75 M49.8 27.75 L50.6 27.9 51.05 28.35 51.2 29.1 Q49.8 30.5 47.95 30.5 L47.8 30.25 47.7 29.35 47.7 29.2 47.75 28.45 47.95 28.0 48.3 27.85 49.45 27.75 49.8 27.75 M46.85 29.15 L44.7 30.45 Q41.7 31.65 41.7 28.8 41.7 27.55 43.05 26.6 44.35 25.75 45.95 25.75 L46.2 25.75 47.55 26.0 47.7 27.5 Q47.7 28.4 46.85 29.15 M20.2 28.4 L20.2 28.5 Q20.2 31.35 15.45 31.0 15.2 30.75 15.2 29.5 L15.25 29.0 15.1 29.1 15.0 29.2 Q13.55 30.35 10.95 30.0 L10.8 29.6 10.8 29.55 10.75 29.25 10.7 28.5 Q10.7 27.7 11.5 26.65 L12.15 25.95 Q13.0 25.25 14.2 25.25 L16.0 25.5 16.1 25.9 16.2 27.0 16.15 27.45 Q17.0 26.75 18.2 26.75 L19.15 26.85 Q20.15 27.25 20.2 28.4 M-7.35 11.3 L-7.3 12.1 -7.45 12.5 Q-7.8 13.1 -9.05 13.6 -10.8 14.3 -10.8 15.5 -10.8 15.7 -14.0 16.65 L-14.5 16.75 -20.3 18.05 -21.05 18.15 Q-24.25 18.55 -26.45 18.2 -30.75 17.55 -31.25 14.15 L-31.3 13.3 -31.1 12.6 -30.3 13.5 -30.05 13.75 -28.25 15.0 Q-25.85 16.25 -22.3 16.25 L-17.05 16.25 -16.8 16.1 -16.55 16.1 -16.45 16.0 -16.1 15.55 Q-14.15 15.6 -11.7 13.7 L-8.8 10.8 -8.8 10.75 -7.85 10.85 -7.8 11.0 -7.4 11.2 -7.35 11.3 M-31.7 11.5 L-32.25 11.2 -32.35 10.6 -32.4 10.0 -33.15 9.9 -34.8 9.75 -35.35 9.4 -37.05 8.3 -41.1 5.25 -39.3 5.05 -38.05 4.65 -38.05 4.7 -38.05 5.25 -37.8 6.5 -37.55 6.95 -37.1 6.95 -31.9 7.2 -32.05 8.6 Q-32.05 9.4 -31.5 10.2 L-31.55 10.25 -31.8 11.1 -31.7 11.5 M-17.5 12.6 L-18.05 13.0 -18.35 12.7 -17.5 12.6 M-18.75 12.25 L-19.15 11.75 -21.35 8.45 -22.4 7.2 -22.05 6.5 -21.8 7.5 -21.55 7.95 Q-17.05 8.55 -14.3 7.85 L-13.9 7.7 -13.05 8.6 -12.85 8.8 -12.55 8.75 -12.05 9.3 -11.75 9.75 -13.95 10.75 -15.3 11.4 -16.05 11.25 -18.75 12.25 M-5.7 10.55 L-6.05 10.5 -6.2 10.0 -5.7 10.55 M16.95 -2.3 L16.0 -2.0 15.7 -2.7 Q14.9 -4.25 13.45 -4.25 12.6 -4.25 11.9 -2.9 L10.25 0.0 8.8 1.55 8.95 0.6 Q8.95 -1.0 8.75 -1.4 L7.95 -2.05 7.9 -2.25 5.6 -0.15 Q4.35 0.75 4.1 4.0 2.1 3.85 0.95 1.55 L0.25 -0.55 -1.5 -0.05 -1.8 -0.3 Q-0.25 -0.25 -0.15 -1.2 L0.0 -2.5 1.7 -2.75 1.95 -3.25 2.1 -2.45 6.05 -4.65 5.8 -4.9 6.05 -4.95 8.5 -6.1 Q8.3 -5.2 7.65 -4.7 L8.5 -4.5 8.6 -3.9 9.05 -4.1 Q12.8 -5.85 16.75 -6.2 L16.7 -4.65 Q16.7 -3.3 16.95 -2.3 M-0.4 12.1 L-0.4 12.15 -0.35 12.1 -0.4 12.1 M-24.25 4.1 L-24.95 5.45 -26.85 4.15 Q-26.05 3.9 -25.95 3.25 -25.05 3.85 -24.25 4.1 M-54.85 13.2 L-55.1 13.2 -54.85 13.2 M-44.6 10.2 L-46.05 10.5 -46.2 10.35 -46.3 9.55 -46.0 8.5 -45.3 8.0 -44.3 7.75 -44.15 7.75 -44.0 7.75 -43.3 7.9 -42.9 8.35 -42.85 8.75 -42.8 9.1 Q-43.15 9.5 -44.0 9.95 L-44.6 10.2 M-56.3 4.9 L-56.3 5.35 Q-56.3 6.25 -57.2 7.15 -58.1 8.05 -59.9 8.95 L-60.9 9.35 -63.35 9.7 -64.9 9.3 -66.0 8.7 -66.35 8.45 -69.35 8.35 -71.65 6.0 -72.85 5.65 -73.2 5.35 -73.4 6.5 -75.1 6.3 -76.0 6.0 -77.85 4.9 -78.85 4.05 -80.3 2.55 Q-80.3 1.7 -79.75 1.25 -79.1 0.75 -77.8 0.75 L-76.15 0.9 Q-74.75 1.2 -73.8 2.0 L-73.65 2.15 -73.55 2.0 -72.55 1.75 Q-72.2 1.75 -71.4 2.4 L-70.55 3.05 -69.85 2.75 -68.45 2.15 Q-66.65 1.35 -65.55 1.25 L-65.3 1.25 -64.9 1.25 -63.65 1.35 -63.0 1.15 -62.25 0.9 -61.3 0.75 -60.5 0.75 -60.15 0.85 -59.9 1.0 Q-59.8 1.1 -59.8 2.35 L-59.85 2.8 Q-60.1 4.15 -61.9 4.3 L-63.65 4.1 -63.8 4.05 -65.45 4.0 -67.7 4.9 -68.35 5.15 -68.2 5.3 -67.6 5.8 -66.45 6.9 -66.4 6.8 -61.65 6.5 Q-60.75 6.1 -60.4 5.25 L-60.2 4.4 Q-60.05 3.25 -58.3 3.25 L-57.45 3.25 -56.9 3.35 -56.4 3.5 -56.3 4.9 M-50.8 1.85 Q-50.8 0.85 -51.3 0.5 -52.1 -0.05 -54.55 -0.2 L-56.3 -0.25 -58.55 0.0 -58.8 1.0 -57.2 1.65 Q-50.8 4.25 -50.8 1.85 M-70.3 16.0 L-70.3 16.1 -71.15 17.0 -71.9 17.2 -73.05 17.0 -73.2 16.85 -73.3 16.05 -73.25 15.1 -73.15 15.1 -72.85 14.9 -71.8 14.75 -70.8 14.9 -70.4 15.35 -70.35 15.7 -70.3 16.0 M-70.05 -2.0 L-70.3 -3.8 -70.3 -4.6 -70.05 -4.95 Q-69.8 -5.25 -69.05 -5.25 -68.3 -5.25 -67.75 -4.65 L-68.3 -4.75 -69.55 -4.5 -69.8 -3.55 -69.8 -3.1 -69.7 -2.2 -69.55 -2.0 -68.85 -1.9 -70.05 -2.0 M-82.3 10.1 Q-82.3 10.55 -83.0 11.0 -83.85 11.5 -85.05 11.5 L-85.2 11.35 -85.3 10.55 Q-85.3 9.85 -84.55 9.25 L-83.55 8.75 -82.65 9.05 Q-82.3 9.3 -82.3 10.0 L-82.3 10.1 M-83.15 1.05 L-85.05 1.0 -85.2 0.9 -85.3 0.1 Q-85.3 -1.15 -85.15 -0.85 L-84.85 -1.05 -83.8 -1.25 -82.8 -1.1 -82.4 -0.6 -82.3 0.15 -83.15 1.05 M-67.3 -7.85 Q-67.25 -9.75 -64.55 -9.75 L-63.45 -9.7 -63.15 -9.25 -63.3 -9.1 -63.3 -8.25 -63.1 -6.7 -63.05 -6.5 -62.6 -6.45 -62.9 -5.0 Q-63.75 -4.55 -64.8 -5.0 -65.25 -5.2 -65.75 -5.55 -67.3 -6.7 -67.3 -7.75 L-67.3 -7.85 M-67.05 -2.25 L-66.9 -2.6 -66.9 -2.35 -67.05 -2.25 M-0.05 -10.25 L2.35 -11.85 3.7 -12.5 1.75 -12.2 0.45 -11.75 -0.3 -11.95 -0.4 -11.95 Q-0.75 -12.1 -0.8 -12.7 L-1.3 -11.4 Q-1.3 -10.6 -0.9 -10.45 L-0.75 -10.45 -0.05 -10.25 M80.4 4.45 L81.35 4.45 81.7 5.5 Q81.7 6.25 80.95 7.75 80.2 9.25 80.2 9.6 80.2 11.9 81.15 11.85 81.95 11.8 83.2 10.05 L84.45 8.0 85.3 7.0 85.65 5.15 Q86.2 3.3 86.2 1.5 86.2 -0.45 84.7 -3.0 82.75 -6.35 79.5 -6.7 81.25 -8.0 83.95 -8.0 86.9 -8.0 87.8 -4.15 88.7 -0.25 89.45 -0.25 L89.7 -0.25 89.7 -0.9 Q89.7 -1.55 90.2 -2.05 90.7 -2.55 90.7 -3.15 L90.7 -3.3 Q90.65 -5.15 89.2 -7.15 86.75 -10.5 81.45 -10.5 L78.05 -10.0 74.95 -9.25 74.1 -9.45 73.85 -9.65 Q71.7 -7.2 71.7 -5.4 71.7 -4.5 72.05 -3.55 L71.35 -4.1 Q70.7 -4.65 70.7 -5.0 70.7 -8.05 73.8 -10.95 74.15 -11.9 75.65 -12.5 77.5 -13.75 78.95 -13.75 81.45 -13.75 83.5 -13.15 89.4 -12.5 91.85 -8.05 93.25 -5.4 93.2 -2.65 93.2 -0.7 93.0 -0.4 92.75 0.0 92.05 0.05 L91.0 4.0 89.65 6.4 89.5 7.0 Q88.8 8.95 87.2 9.35 L84.0 11.9 Q80.2 14.55 77.6 15.45 L76.45 15.5 75.05 15.35 75.0 15.3 77.8 12.4 Q80.7 8.7 80.7 7.1 80.9 5.9 80.55 4.85 L80.4 4.45 M67.6 -5.7 L67.55 -5.75 Q65.65 -8.75 61.7 -8.75 L60.15 -8.75 60.2 -7.25 Q60.2 -5.5 59.05 -3.8 57.65 -1.65 55.45 -2.0 L55.3 -2.1 55.2 -2.9 55.85 -5.9 56.55 -8.9 56.35 -10.25 56.25 -10.5 56.15 -10.5 56.15 -10.8 55.35 -11.75 51.1 -14.35 50.45 -14.25 49.85 -14.7 46.0 -15.0 45.05 -14.95 Q43.6 -14.25 43.2 -12.8 L42.75 -10.65 42.6 -10.25 42.7 -10.3 43.65 -8.8 43.65 -8.75 Q47.9 -8.7 49.45 -6.45 50.25 -5.25 50.2 -4.0 L50.15 -3.25 49.95 -3.0 Q48.7 -3.0 47.6 -4.15 L45.7 -6.0 45.55 -6.0 40.45 -5.75 39.6 -5.9 39.45 -6.35 39.3 -6.15 Q39.2 -6.1 39.2 -6.9 39.2 -7.75 40.1 -8.25 L38.55 -10.4 Q36.7 -13.65 36.7 -16.1 36.7 -17.15 37.15 -18.15 37.75 -19.3 38.9 -20.4 L39.25 -20.65 Q42.4 -23.25 47.7 -23.25 52.95 -23.25 53.95 -21.25 54.45 -20.25 53.95 -19.0 53.95 -18.55 55.45 -16.95 L58.2 -13.9 58.2 -14.0 Q58.2 -15.35 61.8 -18.1 65.9 -21.25 69.7 -21.25 73.85 -21.25 75.4 -18.6 76.15 -17.25 76.2 -15.75 L75.95 -15.5 74.95 -15.25 74.35 -15.35 Q70.9 -14.65 68.95 -12.15 L68.9 -12.1 68.95 -11.8 68.6 -11.7 68.7 -10.5 68.1 -7.9 67.6 -5.7 M43.0 -0.3 L41.65 0.3 41.25 0.95 Q41.7 -0.15 41.7 -1.65 L41.55 -3.0 40.2 -3.25 Q38.55 -3.25 37.3 -1.3 L35.95 0.1 Q36.5 -1.45 37.75 -2.75 39.05 -4.05 39.45 -5.55 L42.0 -5.3 43.7 -5.05 Q43.95 -4.9 43.95 -2.4 43.95 -1.0 43.0 -0.3 M31.2 -2.4 L30.7 -3.1 30.35 -3.6 31.2 -4.05 31.2 -3.25 31.2 -2.4 M59.8 6.5 L59.7 6.1 59.2 6.25 57.95 6.0 57.95 5.95 57.85 6.0 59.8 6.65 59.8 6.5 M44.5 3.55 L43.95 3.9 43.95 3.3 44.5 3.55 M50.2 5.35 L49.25 4.5 50.9 4.8 50.2 5.35 M28.65 4.35 L28.6 3.55 28.4 3.0 29.45 3.75 30.6 3.85 28.95 4.45 28.65 4.35 M14.7 -9.35 Q14.7 -7.85 13.7 -7.45 L13.7 -7.8 13.45 -8.75 Q14.2 -9.15 14.5 -10.05 L14.7 -9.35 M17.5 -22.15 Q18.7 -21.1 18.7 -20.6 18.7 -18.15 16.2 -19.0 13.7 -19.85 13.7 -21.5 13.7 -23.25 15.2 -23.25 16.2 -23.25 17.5 -22.15 M17.2 -21.15 Q17.2 -21.55 15.95 -22.75 14.95 -22.25 14.75 -22.25 L14.7 -21.1 14.8 -20.2 14.95 -20.0 Q17.2 -19.5 17.2 -21.15 M10.85 -22.1 L10.55 -22.4 Q10.2 -22.8 10.2 -23.1 L10.45 -24.6 11.95 -25.25 12.15 -25.2 12.85 -24.85 Q13.2 -24.5 13.2 -23.65 13.2 -23.25 12.3 -22.7 11.45 -22.2 11.45 -21.75 L10.85 -22.1 M26.0 -7.9 L25.7 -7.5 24.7 -6.15 24.7 -6.4 Q24.7 -7.05 26.5 -8.6 L26.4 -8.1 26.0 -7.9 M36.55 -23.65 L36.45 -23.85 35.85 -24.65 36.85 -24.75 37.95 -24.85 36.7 -23.8 36.55 -23.65 M58.95 -12.45 L60.0 -9.8 62.65 -11.0 62.3 -13.7 Q61.0 -12.3 58.95 -12.45 M75.8 -5.1 L74.8 -4.1 Q74.6 -5.65 75.95 -6.5 L77.15 -6.2 76.55 -5.75 76.45 -5.75 75.8 -5.1 M74.35 -15.35 Q73.9 -15.55 73.7 -16.0 L73.3 -17.25 73.05 -16.7 Q72.75 -16.25 71.95 -16.25 71.8 -16.25 71.0 -16.85 L69.95 -17.6 65.8 -17.5 62.8 -14.3 63.6 -14.45 Q65.25 -15.55 66.45 -15.55 L68.45 -15.4 70.95 -15.55 74.35 -15.35 M79.95 -29.1 L80.05 -28.8 80.2 -27.8 80.1 -26.7 80.05 -26.5 Q78.8 -26.5 78.05 -27.15 77.3 -27.75 77.2 -28.75 L77.4 -29.05 Q77.85 -29.5 78.45 -29.75 L79.95 -29.1" fill="#f8f907" fill-rule="evenodd" stroke="none"/>
    <path d="M-59.0 14.05 L-59.2 13.8 -59.65 13.35 -60.1 13.05 -60.2 13.0 -60.25 12.95 -60.3 12.9 Q-60.95 12.55 -61.75 12.3 L-62.2 11.85 -62.8 11.1 -62.8 11.0 Q-62.8 10.3 -63.2 9.85 L-63.35 9.7 -60.9 9.35 -59.9 8.95 Q-58.1 8.05 -57.2 7.15 -56.3 6.25 -56.3 5.35 L-56.3 4.9 -54.05 5.8 -53.4 6.15 -52.85 5.65 -52.7 5.2 -52.6 4.9 -52.3 4.25 Q-54.45 3.25 -55.3 3.0 L-57.8 3.0 -57.9 2.9 -59.05 2.75 -59.85 2.8 -59.8 2.35 Q-59.8 1.1 -59.9 1.0 L-60.15 0.85 -60.5 0.75 -61.3 0.75 -62.25 0.9 -63.0 1.15 -63.65 1.35 -64.9 1.25 -64.95 1.05 -65.05 -0.3 -64.9 -2.15 -64.55 -3.05 -63.55 -3.3 -62.65 -3.45 -62.55 -4.5 -60.8 -4.75 Q-59.25 -4.75 -56.65 -3.05 L-56.5 -2.95 -55.75 -2.45 -55.7 -2.4 -54.6 -1.6 -53.85 -1.1 -54.95 -1.35 -55.15 -1.4 -57.05 -1.75 -60.55 -1.75 -61.45 -1.3 Q-61.8 -0.95 -61.8 -0.1 L-61.25 0.2 -60.3 0.6 -59.55 0.9 -57.35 1.8 -51.6 4.1 -51.35 4.2 -51.4 4.7 -51.65 4.6 -51.9 4.45 -52.05 5.1 -52.0 6.3 -56.85 7.9 Q-58.3 8.45 -59.1 9.15 -60.05 10.0 -60.05 11.1 -60.05 12.55 -59.8 12.7 L-59.55 12.95 -59.3 12.95 -55.5 13.2 -55.1 13.2 -54.85 13.2 -53.7 13.1 -52.3 12.85 -51.5 12.65 -50.4 12.25 -49.85 12.0 -50.8 13.0 -52.65 15.05 -57.55 15.25 -59.0 14.05 M-68.35 10.1 L-68.55 10.15 -69.55 10.6 -70.3 10.25 -70.8 9.45 Q-71.35 8.15 -72.55 7.75 L-74.85 7.75 -74.7 7.25 -74.6 7.1 -75.2 7.0 -75.55 6.95 -75.8 6.5 -76.0 6.0 -75.1 6.3 -73.4 6.5 -73.2 5.35 -72.85 5.65 Q-70.25 9.05 -68.35 10.1 M39.45 -29.55 Q43.45 -30.75 46.7 -30.75 L48.35 -30.6 51.45 -30.25 Q52.7 -28.45 54.85 -27.15 L55.0 -27.05 Q58.7 -26.2 61.0 -24.05 L60.95 -23.55 62.05 -22.35 64.3 -23.1 64.45 -23.0 64.6 -22.9 65.7 -22.75 72.0 -22.65 75.15 -22.5 Q77.0 -21.5 78.3 -19.75 L78.4 -19.65 80.7 -19.75 Q91.95 -19.75 95.7 -10.4 97.55 -5.7 97.2 -0.9 97.2 6.4 92.6 11.95 89.75 15.4 85.65 17.7 83.9 18.95 82.05 19.75 79.45 20.9 76.6 21.1 L75.45 21.2 75.2 21.6 Q75.05 21.65 75.0 21.15 L72.3 21.15 Q69.7 20.9 68.55 19.85 L67.1 21.85 66.85 22.1 Q66.6 23.3 64.9 24.55 L62.3 26.0 Q59.5 27.65 56.2 27.95 L55.3 27.7 55.1 27.45 Q52.4 27.5 49.95 26.6 48.25 26.0 46.6 24.9 L45.0 24.95 44.7 24.95 42.95 24.75 42.55 24.75 39.45 24.25 38.55 23.9 Q38.2 23.65 38.2 22.85 38.2 22.0 38.55 21.65 L39.0 21.4 38.65 21.1 38.1 21.8 Q36.65 23.45 34.75 24.65 L34.65 24.6 33.95 24.45 31.45 24.95 31.35 25.25 31.1 25.85 31.0 26.1 30.7 26.25 28.8 27.05 Q24.15 28.05 19.2 26.35 17.1 25.65 14.95 24.45 L15.25 23.75 15.25 23.45 Q15.15 22.55 15.65 22.15 16.95 21.1 22.8 21.4 L22.3 20.95 22.05 20.65 21.25 20.1 20.35 19.35 19.15 17.95 18.55 17.15 18.45 16.95 18.2 16.95 Q15.95 17.05 13.7 18.7 11.3 20.45 7.95 20.45 3.9 20.45 0.25 16.65 L-1.25 15.95 -0.75 14.55 -0.6 14.25 2.75 14.7 3.05 14.7 Q5.0 15.45 7.0 15.6 10.4 15.9 13.85 14.5 17.9 12.85 18.9 11.0 L20.95 13.6 21.6 14.25 23.95 16.5 26.75 18.7 24.4 20.7 21.95 23.1 22.0 24.1 21.8 24.25 21.4 24.6 20.95 25.1 Q20.95 26.55 21.2 26.7 L21.45 26.95 Q26.05 26.6 29.35 25.45 L29.75 25.3 30.5 25.05 32.0 24.3 Q33.55 23.5 34.65 22.4 L35.25 21.8 Q37.0 19.8 37.6 16.55 L38.65 15.45 Q40.0 13.5 40.5 13.5 L42.45 13.6 43.0 13.15 43.1 13.15 42.9 13.65 Q42.1 15.65 41.7 17.5 41.7 18.2 41.95 18.55 L41.3 19.05 Q39.6 20.4 39.15 21.35 L39.45 21.25 47.0 22.1 48.1 21.5 48.3 21.7 49.2 21.95 51.45 21.15 51.5 21.05 Q51.75 20.4 51.0 18.85 50.2 17.05 50.2 16.35 L50.5 16.05 50.55 16.05 Q50.95 15.75 51.7 15.75 L52.7 15.9 52.5 17.05 Q52.3 17.6 52.45 18.0 L53.75 18.15 53.7 18.4 53.5 20.3 55.3 19.5 53.15 21.4 Q52.55 22.75 51.3 23.6 L56.95 21.95 57.1 21.9 59.45 20.6 59.9 20.3 59.95 20.25 63.05 16.4 63.0 16.1 63.9 15.3 Q64.2 14.8 64.2 13.0 64.2 11.25 62.85 9.25 62.0 8.05 60.8 7.2 L61.4 7.0 61.7 6.5 61.7 6.0 62.8 6.15 63.45 6.25 63.6 6.25 Q64.45 6.8 66.0 7.2 L68.95 7.75 68.95 8.1 68.95 8.35 70.7 9.1 72.85 9.2 Q72.7 9.8 72.95 10.5 74.1 10.45 75.35 9.45 L76.05 8.85 76.85 8.05 Q78.7 6.0 78.7 5.25 L77.45 2.75 Q79.7 2.75 80.4 4.45 L80.55 4.85 Q80.9 5.9 80.7 7.1 80.7 8.7 77.8 12.4 L75.0 15.3 75.05 15.35 76.45 15.5 77.6 15.45 Q80.2 14.55 84.0 11.9 L87.2 9.35 Q88.8 8.95 89.5 7.0 L89.65 6.4 91.0 4.0 92.05 0.05 Q92.75 0.0 93.0 -0.4 93.2 -0.7 93.2 -2.65 93.25 -5.4 91.85 -8.05 89.4 -12.5 83.5 -13.15 81.45 -13.75 78.95 -13.75 77.5 -13.75 75.65 -12.5 74.15 -11.9 73.8 -10.95 70.7 -8.05 70.7 -5.0 70.7 -4.65 71.35 -4.1 L72.05 -3.55 72.3 -2.95 Q71.45 -0.35 70.5 0.4 L69.3 -1.75 68.65 -2.7 Q68.6 -4.05 67.6 -5.7 L68.1 -7.9 68.7 -10.5 68.6 -11.7 68.95 -11.8 68.9 -12.1 68.95 -12.15 Q70.9 -14.65 74.35 -15.35 L74.95 -15.25 75.95 -15.5 76.2 -15.75 Q76.15 -17.25 75.4 -18.6 73.85 -21.25 69.7 -21.25 65.9 -21.25 61.8 -18.1 58.2 -15.35 58.2 -14.0 L58.2 -13.9 55.45 -16.95 Q53.95 -18.55 53.95 -19.0 54.45 -20.25 53.95 -21.25 52.95 -23.25 47.7 -23.25 42.4 -23.25 39.25 -20.65 L38.9 -20.4 Q37.75 -19.3 37.15 -18.15 36.7 -17.15 36.7 -16.1 36.7 -13.65 38.55 -10.4 L40.1 -8.25 Q39.2 -7.75 39.2 -6.9 39.2 -6.1 39.3 -6.15 L39.45 -6.35 39.6 -5.9 40.45 -5.75 45.55 -6.0 Q48.95 -2.85 48.95 -2.05 L48.9 -0.6 48.45 -0.05 Q45.75 1.25 43.0 -0.3 43.95 -1.0 43.95 -2.4 43.95 -4.9 43.7 -5.05 L42.0 -5.3 39.45 -5.55 Q39.05 -4.05 37.75 -2.75 36.5 -1.45 35.95 0.1 34.75 0.95 32.95 1.15 32.6 -0.3 31.2 -2.4 L31.2 -3.25 31.2 -4.05 Q31.3 -5.4 31.55 -6.35 L31.95 -6.75 32.25 -7.95 33.75 -11.1 33.05 -11.2 33.9 -11.75 Q34.7 -12.0 34.7 -12.25 34.7 -13.15 33.55 -14.15 31.6 -15.75 27.45 -15.75 L26.15 -15.65 27.4 -17.85 27.95 -18.6 Q29.25 -20.3 30.75 -20.5 31.1 -18.0 33.7 -20.0 36.7 -22.25 36.7 -23.1 L36.55 -23.65 36.7 -23.8 37.95 -24.85 Q41.7 -25.3 41.7 -26.65 L41.7 -27.0 46.2 -27.0 Q47.95 -25.25 48.45 -25.25 49.25 -25.25 49.5 -25.6 L49.7 -26.25 Q49.7 -27.3 48.95 -28.1 47.5 -29.75 43.45 -29.75 L39.45 -29.55 M15.1 29.1 Q14.75 30.6 12.95 31.1 10.25 31.85 6.2 29.25 6.95 28.15 8.4 27.2 9.65 26.4 10.45 26.25 L10.6 26.25 11.55 26.25 11.2 26.5 Q10.3 27.15 10.2 28.1 L10.2 28.35 10.3 29.25 10.45 29.5 10.8 29.6 10.95 30.0 Q13.55 30.35 15.0 29.2 L15.1 29.1 M3.2 29.0 L3.1 30.0 1.15 29.65 Q0.45 29.35 -0.3 28.75 0.55 26.75 1.7 26.75 L3.1 27.0 3.2 28.5 3.2 29.0 M-5.35 11.2 L-5.4 11.3 -6.0 12.55 -6.3 13.85 Q-6.7 16.85 -11.15 18.0 L-14.4 18.6 -19.5 19.1 -20.25 19.25 -20.85 19.45 -20.95 19.35 -22.05 19.25 Q-22.9 19.25 -23.55 19.85 L-24.05 20.4 -24.6 20.3 Q-27.6 19.75 -30.25 18.7 L-30.85 17.95 -30.9 17.5 -31.05 16.85 -31.4 15.3 -31.65 14.35 -32.25 11.2 -31.7 11.5 -31.1 12.6 -31.3 13.3 -31.25 14.15 Q-30.75 17.55 -26.45 18.2 -24.25 18.55 -21.05 18.15 L-20.3 18.05 -14.5 16.75 -14.0 16.65 Q-10.8 15.7 -10.8 15.5 -10.8 14.3 -9.05 13.6 -7.8 13.1 -7.45 12.5 L-7.3 12.1 -7.35 11.3 -5.4 11.3 -5.7 10.55 -5.35 11.2 M-17.5 12.6 L-18.35 12.7 -18.75 12.25 -16.05 11.25 -15.3 11.4 -17.5 12.6 M-12.05 9.3 L-11.75 8.85 Q-10.8 7.25 -9.8 7.25 L-8.65 7.35 -8.4 7.5 -8.3 9.0 Q-8.3 9.75 -8.8 10.65 L-8.9 9.8 -9.3 9.5 -9.35 9.35 -10.3 9.25 Q-10.55 9.25 -11.75 9.75 L-12.05 9.3 M20.35 0.95 L20.2 0.9 Q17.7 0.3 16.95 -2.3 16.7 -3.3 16.7 -4.65 L16.75 -6.2 16.8 -7.35 Q16.45 -7.85 16.25 -8.6 15.95 -9.7 15.95 -11.4 15.95 -12.75 16.5 -14.05 L16.45 -14.05 16.2 -14.3 Q16.0 -14.45 15.95 -15.6 L15.95 -15.9 Q15.95 -16.75 16.75 -17.6 L18.05 -18.7 19.55 -19.55 19.75 -19.65 20.0 -19.85 24.6 -22.6 24.0 -21.9 Q21.1 -18.3 20.15 -14.3 19.7 -12.3 19.7 -10.25 19.7 -7.0 20.9 -3.45 21.9 -0.45 23.25 -0.2 L22.9 0.25 Q21.4 0.25 20.35 0.95 M-47.5 6.6 L-46.55 6.1 -46.35 6.05 -46.3 6.05 -45.55 6.45 -44.65 6.0 -43.95 5.5 -43.25 4.7 Q-42.95 5.2 -42.0 5.25 L-41.8 5.25 -41.1 5.25 -37.05 8.3 -35.35 9.4 -34.8 9.75 -35.6 9.75 -36.65 9.75 -36.8 9.75 -37.05 9.75 -38.2 9.8 Q-40.1 8.7 -41.85 8.4 L-41.9 8.0 -42.4 7.85 -42.8 7.8 -43.25 7.4 -44.0 7.75 -44.15 7.75 -44.3 7.75 -45.3 8.0 -46.0 8.5 -46.3 8.6 -47.1 8.9 -47.05 8.6 Q-47.05 7.3 -47.5 6.6 M-19.05 -9.1 L-21.4 -8.8 -21.85 -8.1 -21.9 -8.0 -22.05 -7.35 -22.05 -7.1 -22.05 -6.9 -22.05 -6.65 -21.95 -5.55 -21.8 -5.4 -21.55 -5.8 -21.3 -5.6 Q-19.9 -4.4 -16.95 -3.9 L-14.2 -3.55 -14.9 -3.2 -17.1 -3.0 -17.45 -2.55 -17.55 -2.55 -17.75 -2.75 Q-18.1 -3.05 -19.55 -3.55 L-30.0 -3.55 -30.15 -3.45 -32.05 -2.45 Q-33.85 -1.3 -34.5 0.75 -35.3 1.0 -36.05 1.4 L-36.65 1.75 -36.3 0.6 -36.9 -1.4 Q-37.75 -2.55 -39.6 -3.0 L-42.3 -3.25 -44.15 -3.15 -46.0 -2.75 -46.75 -2.45 -46.1 -3.0 Q-44.2 -4.45 -42.55 -4.55 L-36.3 -5.4 -35.25 -5.65 Q-31.15 -6.5 -27.2 -8.0 L-25.85 -8.5 -26.55 -8.55 -28.05 -9.6 -28.25 -9.8 -29.05 -10.9 -28.3 -13.3 -26.55 -13.45 -23.05 -13.55 Q-16.15 -13.55 -12.75 -10.75 L-10.65 -10.85 Q-10.0 -10.65 -9.3 -10.25 -9.1 -12.75 -6.75 -14.2 -6.4 -14.4 -6.1 -14.55 L-3.8 -15.85 -1.05 -17.75 -0.95 -17.7 -0.15 -17.35 -0.05 -17.2 0.2 -16.15 Q0.2 -14.6 -1.4 -13.95 -3.85 -12.9 -4.9 -11.85 L-4.0 -12.0 -4.3 -11.1 -4.2 -10.2 -4.05 -10.0 -2.05 -9.75 -0.95 -9.95 0.3 -10.3 2.7 -10.85 3.0 -10.85 Q0.85 -10.4 -1.1 -9.5 -3.65 -8.85 -5.05 -7.05 L-5.3 -6.75 -6.45 -5.5 -7.2 -3.9 Q-7.95 -4.45 -8.85 -4.65 L-9.4 -5.15 -10.9 -6.6 -11.4 -6.65 -11.4 -6.5 -12.7 -6.7 -13.95 -6.75 -14.05 -6.75 -14.9 -6.95 Q-15.3 -7.1 -15.3 -7.85 L-16.4 -8.45 -16.7 -8.55 -17.65 -8.9 -18.8 -9.1 -19.05 -9.1 M-47.85 -1.7 L-48.05 -1.45 -49.45 0.15 -49.8 0.6 -50.0 0.45 -50.75 -0.05 -49.8 -0.2 Q-49.15 -0.4 -48.95 -0.75 -48.5 -1.65 -48.05 -1.75 L-47.85 -1.7 M-67.7 4.9 L-65.45 4.0 -63.8 4.05 -63.65 4.1 -64.45 4.35 -67.05 5.0 -67.7 4.9 M-69.85 2.75 L-70.55 3.05 -71.4 2.4 Q-72.2 1.75 -72.55 1.75 L-73.55 2.0 -73.65 2.15 -73.8 2.0 Q-74.75 1.2 -76.15 0.9 L-77.8 0.75 Q-79.1 0.75 -79.75 1.25 -80.3 1.7 -80.3 2.55 L-78.85 4.05 -77.85 4.9 -78.6 5.6 -79.85 6.6 -80.3 6.75 -81.55 6.5 -81.7 6.3 -81.8 5.55 Q-81.8 4.65 -80.95 3.0 L-81.3 1.9 -81.1 1.35 -79.2 -0.45 -78.85 -0.8 -78.55 -1.0 -77.2 -1.65 Q-76.6 -1.45 -75.3 -0.65 L-74.05 0.15 -73.45 0.5 -69.85 2.75 M-32.75 -10.85 L-32.05 -10.75 -32.55 -10.55 Q-32.85 -10.65 -33.15 -10.85 L-32.75 -10.85 M-30.35 -12.15 L-30.4 -12.6 -30.9 -13.1 -31.05 -13.15 -31.35 -13.2 -31.4 -13.5 -33.65 -13.95 -34.4 -14.15 Q-33.7 -15.05 -32.55 -15.55 L-32.35 -15.5 -32.2 -14.8 Q-31.85 -13.8 -30.8 -13.45 L-30.15 -13.3 -30.05 -12.8 Q-30.05 -12.5 -30.35 -12.15 M67.45 22.95 L68.1 22.7 67.35 23.2 67.45 22.95 M59.8 6.5 L59.8 6.65 57.85 6.0 57.95 5.95 57.95 6.0 59.2 6.25 59.7 6.1 59.8 6.5 M58.95 -12.45 Q61.0 -12.3 62.3 -13.7 L62.65 -11.0 60.0 -9.8 58.95 -12.45 M74.35 -15.35 L70.95 -15.55 68.45 -15.4 66.45 -15.55 Q65.25 -15.55 63.6 -14.45 L62.8 -14.3 65.8 -17.5 69.95 -17.6 71.0 -16.85 Q71.8 -16.25 71.95 -16.25 72.75 -16.25 73.05 -16.7 L73.3 -17.25 73.7 -16.0 Q73.9 -15.55 74.35 -15.35 M77.4 -29.05 L77.2 -28.75 Q77.3 -27.75 78.05 -27.15 78.8 -26.5 80.05 -26.5 L80.1 -26.7 80.2 -27.8 80.05 -28.8 79.95 -29.1 Q81.55 -28.7 82.05 -27.1 82.4 -26.1 82.2 -25.4 82.2 -22.55 79.45 -23.5 76.7 -24.45 76.7 -26.75 L76.7 -28.25 Q76.85 -28.8 77.4 -29.05" fill="#f6b200" fill-rule="evenodd" stroke="none"/>
    <path d="M-68.3 10.1 L-68.35 10.1 Q-70.25 9.05 -72.85 5.65 L-71.65 6.0 -69.35 8.35 -66.35 8.45 -66.0 8.7 -64.9 9.3 -65.25 9.75 -65.75 10.2 Q-66.25 10.5 -66.8 10.5 -67.5 10.55 -68.3 10.1 M-60.4 -9.45 L-60.35 -9.35 -60.3 -8.0 -60.35 -7.75 -60.4 -6.5 -61.3 -6.4 -62.6 -6.45 -63.05 -6.5 -63.1 -6.7 -63.3 -8.25 -63.3 -9.1 -63.15 -9.25 -62.95 -9.45 -61.8 -9.75 -60.65 -9.65 -60.4 -9.5 -60.4 -9.45 M65.3 -25.65 L65.35 -25.8 65.7 -25.6 65.0 -24.75 65.1 -25.15 65.3 -25.65 M49.95 26.6 L49.8 27.75 49.45 27.75 48.3 27.85 47.95 28.0 47.75 28.45 47.7 29.2 46.85 29.15 Q47.7 28.4 47.7 27.5 L47.55 26.0 46.2 25.75 45.0 25.0 45.0 24.95 46.6 24.9 Q48.25 26.0 49.95 26.6 M34.75 24.65 L34.95 24.7 34.6 24.8 31.0 26.1 31.1 25.85 31.35 25.25 31.45 24.95 33.95 24.45 34.65 24.6 34.75 24.65 M-20.85 19.45 L-20.8 19.5 -20.4 19.7 -20.3 20.6 Q-20.3 21.25 -21.5 21.8 L-21.6 21.85 -21.65 21.9 -21.7 21.9 Q-22.9 22.5 -24.05 22.5 L-24.2 22.35 -24.3 21.9 -24.3 21.55 -24.25 20.85 -24.2 20.8 -24.05 20.4 -23.55 19.85 Q-22.9 19.25 -22.05 19.25 L-20.95 19.35 -20.85 19.45 M50.5 16.05 Q50.2 15.45 50.05 14.5 L51.75 14.95 Q52.7 15.25 52.7 15.75 L52.7 15.9 51.7 15.75 Q50.95 15.75 50.55 16.05 L50.5 16.05 M77.45 2.75 L76.4 1.45 75.8 1.4 Q75.45 1.4 75.0 3.05 74.55 4.75 73.2 4.75 L72.55 4.55 71.95 4.7 71.7 4.2 71.7 7.75 71.45 8.0 70.45 8.25 Q66.75 5.05 64.95 2.4 L63.3 2.15 60.45 1.75 Q58.7 1.75 55.2 4.0 51.7 6.2 51.7 7.35 L51.8 8.2 51.95 8.5 Q54.7 9.8 55.5 8.1 56.15 6.8 57.2 6.25 57.05 7.15 57.05 8.25 L58.6 10.25 59.15 11.0 59.2 10.0 Q60.4 10.25 61.05 11.25 L60.0 12.55 60.2 13.5 Q60.2 15.35 59.6 16.9 58.9 18.8 57.45 19.75 56.55 18.8 56.55 17.7 L56.7 15.85 55.15 16.9 55.2 15.85 Q55.2 14.35 54.5 13.4 L54.65 13.35 53.1 11.5 52.8 11.55 52.0 11.35 51.95 11.7 51.95 11.9 50.2 11.75 48.4 11.85 Q47.7 12.1 47.7 13.05 L47.8 13.85 47.95 14.0 49.1 14.25 48.15 15.8 Q45.5 20.25 44.2 20.25 L43.1 20.1 42.95 20.0 42.8 19.75 42.7 19.15 42.95 19.25 Q44.85 18.05 46.35 15.1 47.7 12.5 47.7 10.85 L47.7 10.55 47.7 10.35 47.6 9.7 Q47.35 9.05 46.45 8.75 44.65 9.65 43.1 13.1 L42.8 13.0 37.7 13.0 Q37.7 15.85 34.75 19.15 L33.1 20.75 31.8 21.65 Q29.95 22.85 27.95 23.0 L27.8 22.75 27.7 21.85 Q27.7 21.0 28.85 19.6 L30.5 17.35 29.85 16.5 29.85 16.45 Q32.65 15.75 36.05 13.45 41.7 9.7 41.7 7.3 L41.55 6.0 39.7 5.75 39.1 5.8 38.95 5.8 Q37.35 6.2 35.0 8.0 L31.7 11.0 26.25 11.25 25.95 8.95 24.45 9.0 Q24.0 7.7 24.95 6.8 L21.9 5.55 Q20.7 4.8 20.7 3.6 20.7 3.25 24.6 1.0 L25.55 0.4 24.9 -0.25 Q21.2 -3.9 21.2 -5.3 21.2 -8.1 24.45 -10.75 27.5 -13.25 30.2 -13.25 L31.5 -13.0 Q31.7 -12.9 31.7 -11.65 31.7 -10.95 30.35 -9.1 29.2 -7.5 29.0 -6.3 L31.55 -6.35 Q31.3 -5.4 31.2 -4.05 L30.35 -3.6 30.7 -3.1 31.2 -2.4 Q32.6 -0.3 32.95 1.15 34.75 0.95 35.95 0.1 L37.3 -1.3 Q38.55 -3.25 40.2 -3.25 L41.55 -3.0 41.7 -1.65 Q41.7 -0.15 41.25 0.95 L41.65 0.3 43.0 -0.3 Q45.75 1.25 48.45 -0.05 L48.9 -0.6 48.95 -2.05 Q48.95 -2.85 45.55 -6.0 L45.7 -6.0 47.6 -4.15 Q48.7 -3.0 49.95 -3.0 L50.15 -3.25 50.2 -4.0 Q50.25 -5.25 49.45 -6.45 47.9 -8.7 43.65 -8.75 L43.65 -8.8 42.7 -10.3 42.6 -10.25 42.75 -10.65 43.2 -12.8 Q43.6 -14.25 45.05 -14.95 L46.0 -15.0 49.85 -14.7 50.45 -14.25 51.1 -14.35 55.35 -11.75 56.15 -10.8 56.15 -10.5 56.25 -10.5 56.35 -10.25 56.55 -8.9 55.85 -5.9 55.2 -2.9 55.3 -2.1 55.45 -2.0 Q57.65 -1.65 59.05 -3.8 60.2 -5.5 60.2 -7.25 L60.15 -8.75 61.7 -8.75 Q65.65 -8.75 67.55 -5.75 L67.6 -5.7 Q68.6 -4.05 68.65 -2.7 L69.3 -1.75 70.5 0.4 Q71.45 -0.35 72.3 -2.95 L72.05 -3.55 Q71.7 -4.5 71.7 -5.4 71.7 -7.2 73.85 -9.65 L74.1 -9.45 74.95 -9.25 78.05 -10.0 81.45 -10.5 Q86.75 -10.5 89.2 -7.15 90.65 -5.15 90.7 -3.3 L90.7 -3.15 Q90.7 -2.55 90.2 -2.05 89.7 -1.55 89.7 -0.9 L89.7 -0.25 89.45 -0.25 Q88.7 -0.25 87.8 -4.15 86.9 -8.0 83.95 -8.0 81.25 -8.0 79.5 -6.7 82.75 -6.35 84.7 -3.0 86.2 -0.45 86.2 1.5 86.2 3.3 85.65 5.15 L85.3 7.0 84.45 8.0 83.2 10.05 Q81.95 11.8 81.15 11.85 80.2 11.9 80.2 9.6 80.2 9.25 80.95 7.75 81.7 6.25 81.7 5.5 L81.35 4.45 80.4 4.45 Q79.7 2.75 77.45 2.75 M30.75 -20.5 L30.7 -21.35 30.8 -22.75 30.5 -22.25 Q29.55 -20.3 26.6 -18.95 24.25 -17.85 23.45 -18.0 L23.3 -18.1 23.2 -18.9 Q23.2 -20.1 28.0 -23.55 L28.7 -24.0 30.3 -25.05 32.2 -26.15 Q36.25 -28.25 39.45 -28.25 L41.55 -28.0 41.7 -27.0 41.7 -26.65 Q41.7 -25.3 37.95 -24.85 L36.85 -24.75 35.85 -24.65 36.45 -23.85 36.55 -23.65 36.7 -23.1 Q36.7 -22.25 33.7 -20.0 31.1 -18.0 30.75 -20.5 M-31.1 12.6 L-31.7 11.5 -31.8 11.1 -31.55 10.25 -31.5 10.2 Q-32.05 9.4 -32.05 8.6 L-31.9 7.2 -37.1 6.95 -37.55 6.95 -37.8 6.5 -38.05 5.25 -38.05 4.7 -38.05 4.65 -39.3 5.05 -41.1 5.25 -41.8 5.25 -42.0 5.25 Q-42.95 5.2 -43.25 4.7 L-43.95 5.5 -44.65 6.0 -45.55 6.45 -46.3 6.05 -46.35 6.05 -46.55 6.1 -47.5 6.6 -47.75 6.75 -47.75 6.6 -47.3 4.8 -47.3 3.9 Q-47.2 1.9 -46.75 0.65 -46.0 0.15 -45.05 -0.25 L-40.55 -0.25 Q-38.4 0.35 -37.7 1.3 -37.4 1.75 -37.35 2.4 -37.8 3.05 -37.8 3.8 L-37.55 5.0 -36.55 5.75 Q-35.4 4.95 -35.3 4.45 L-35.15 4.25 -31.85 3.75 -31.1 3.85 -31.3 4.0 Q-30.95 6.7 -28.4 9.9 -25.8 13.15 -25.8 8.75 -25.8 8.25 -26.8 6.3 L-27.8 3.7 -27.55 3.8 -27.8 3.6 -27.8 3.5 Q-27.8 1.85 -27.2 1.2 -25.85 -0.2 -21.4 -0.1 L-19.8 1.15 -19.55 2.5 -18.3 2.75 -16.55 4.25 -15.6 4.0 -15.3 3.8 Q-15.15 2.65 -13.7 1.15 L-12.45 -0.5 -12.2 -0.5 Q-7.95 -0.5 -7.7 0.95 -7.45 2.4 -4.8 2.4 L-4.8 -0.9 Q-4.35 -1.05 -3.8 -1.55 L-3.8 -2.0 -3.75 -2.05 Q-3.4 -2.65 -3.3 -4.4 -2.25 -8.05 9.95 -7.75 L10.35 -7.9 10.85 -8.05 Q11.2 -8.3 11.2 -9.1 11.2 -9.95 10.0 -10.65 L9.0 -11.05 8.95 -11.05 8.2 -13.25 8.15 -13.25 Q7.9 -14.05 6.45 -15.25 L1.45 -15.25 0.1 -14.35 0.2 -14.55 Q0.7 -15.6 0.7 -16.35 0.7 -18.05 5.35 -18.25 L6.95 -18.55 8.4 -18.1 Q11.0 -17.6 12.6 -15.9 L13.4 -14.9 14.7 -11.5 14.7 -11.2 15.95 -11.4 Q15.95 -9.7 16.25 -8.6 16.45 -7.85 16.8 -7.35 L16.75 -6.2 Q12.8 -5.85 9.05 -4.1 L8.6 -3.9 8.5 -4.5 7.65 -4.7 Q8.3 -5.2 8.5 -6.1 L6.05 -4.95 5.8 -4.9 6.05 -4.65 2.1 -2.45 1.95 -3.25 1.7 -2.75 0.0 -2.5 -0.15 -1.2 Q-0.25 -0.25 -1.8 -0.3 L-1.5 -0.05 0.25 -0.55 0.95 1.55 Q2.1 3.85 4.1 4.0 4.35 0.75 5.6 -0.15 L7.9 -2.25 7.95 -2.05 8.75 -1.4 Q8.95 -1.0 8.95 0.6 L8.8 1.55 10.25 0.0 11.9 -2.9 Q12.6 -4.25 13.45 -4.25 14.9 -4.25 15.7 -2.7 L16.0 -2.0 16.95 -2.3 Q17.7 0.3 20.2 0.9 L20.35 0.95 19.7 1.5 Q18.7 2.55 18.7 4.15 L18.65 4.35 19.0 4.5 19.2 5.6 19.05 5.75 18.7 5.75 Q18.45 5.75 15.2 8.1 11.95 10.5 8.95 10.5 L6.0 10.15 6.45 10.15 5.1 8.85 4.3 9.0 4.25 9.5 Q2.65 8.65 1.65 7.1 L0.25 4.8 Q-0.2 4.2 -0.7 3.95 L-0.4 3.0 -0.65 2.85 -1.8 2.75 Q-2.55 2.75 -3.2 3.55 -3.8 4.4 -3.8 5.5 L-3.8 5.95 -3.8 6.35 Q-3.8 9.2 -1.8 11.05 L-1.0 11.7 -0.85 11.8 -1.8 11.75 -1.9 11.8 -3.35 13.05 -5.0 14.55 -4.8 13.85 -4.8 13.65 Q-4.8 12.25 -5.35 11.2 L-5.7 10.55 -5.4 11.3 -7.35 11.3 -7.4 11.2 -7.8 11.0 -7.85 10.85 -8.8 10.75 -8.8 10.8 -11.7 13.7 Q-14.15 15.6 -16.1 15.55 L-16.45 16.0 -16.55 16.1 -16.8 16.1 -17.05 16.25 -22.3 16.25 Q-25.85 16.25 -28.25 15.0 L-30.05 13.75 -30.3 13.5 -31.1 12.6 M-18.35 12.7 L-18.05 13.0 -17.5 12.6 -15.3 11.4 -13.95 10.75 -11.75 9.75 Q-10.55 9.25 -10.3 9.25 L-9.35 9.35 -9.3 9.5 -8.9 9.8 -8.8 10.65 Q-8.3 9.75 -8.3 9.0 L-8.4 7.5 -8.65 7.35 -9.8 7.25 Q-10.8 7.25 -11.75 8.85 L-12.05 9.3 -12.55 8.75 -12.85 8.8 -13.05 8.6 -13.9 7.7 -14.3 7.85 Q-17.05 8.55 -21.55 7.95 L-21.8 7.5 -22.05 6.5 -22.4 7.2 -21.35 8.45 -19.15 11.75 -18.75 12.25 -18.35 12.7 M-5.7 10.55 L-6.2 10.0 -6.05 10.5 -5.7 10.55 M-0.4 12.1 L-0.35 12.1 -0.4 12.15 -0.4 12.1 M-24.25 4.1 Q-25.05 3.85 -25.95 3.25 -26.05 3.9 -26.85 4.15 L-24.95 5.45 -24.25 4.1 M-19.05 -9.1 L-18.8 -9.1 -17.65 -8.9 -16.7 -8.55 -16.4 -8.45 -15.3 -7.85 Q-15.3 -7.1 -14.9 -6.95 L-14.05 -6.75 -13.95 -6.75 -14.5 -6.15 -14.75 -5.95 -18.55 -6.05 -18.55 -6.1 -18.8 -6.3 Q-19.05 -6.45 -19.05 -7.9 L-19.05 -8.15 -19.05 -9.1 M-55.1 13.2 L-55.55 13.15 -57.55 12.95 -57.8 12.7 -58.05 11.1 -58.05 10.75 Q-57.9 9.85 -57.2 9.0 L-56.6 8.45 Q-55.35 7.45 -54.55 7.45 L-53.8 7.7 Q-52.8 6.95 -52.05 6.75 L-51.65 7.05 -51.8 9.05 -51.8 9.65 -51.7 9.85 -51.55 10.0 -50.55 10.3 -51.6 10.8 -52.1 11.0 Q-52.15 11.9 -52.55 12.4 -52.8 12.75 -53.25 12.95 L-53.7 13.1 -54.85 13.2 -55.1 13.2 M-57.45 3.25 L-58.3 3.25 Q-60.05 3.25 -60.2 4.4 L-60.4 5.25 Q-60.75 6.1 -61.65 6.5 L-66.4 6.8 -66.45 6.9 -67.6 5.8 -68.2 5.3 -68.35 5.15 -67.7 4.9 -67.05 5.0 -64.45 4.35 -63.65 4.1 -61.9 4.3 Q-60.1 4.15 -59.85 2.8 L-59.05 2.75 -57.9 2.9 -57.8 3.0 Q-57.55 3.15 -57.45 3.25 M-50.8 1.85 Q-50.8 4.25 -57.2 1.65 L-58.8 1.0 -58.55 0.0 -56.3 -0.25 -54.55 -0.2 Q-52.1 -0.05 -51.3 0.5 -50.8 0.85 -50.8 1.85 M-68.85 -1.9 L-69.55 -2.0 -69.7 -2.2 -69.8 -3.1 -69.8 -3.55 -69.55 -4.5 -68.3 -4.75 -67.75 -4.65 -66.9 -4.5 -66.8 -3.25 -66.8 -3.15 -66.8 -3.1 -66.85 -3.0 -66.9 -2.6 -67.05 -2.25 -67.35 -2.05 -67.4 -2.0 -68.85 -1.9 M-32.05 -10.75 L-32.75 -10.85 -33.25 -10.95 -33.55 -11.0 -33.7 -11.1 -33.8 -11.9 Q-33.8 -13.15 -33.65 -12.85 L-33.25 -13.05 -32.05 -13.25 -31.35 -13.2 -31.05 -13.15 -30.9 -13.1 -30.4 -12.6 -30.35 -12.15 -30.3 -11.85 -30.35 -11.7 -30.55 -11.3 -30.95 -10.85 -32.05 -10.75 M-0.05 -10.25 L-0.75 -10.45 -0.9 -10.45 Q-1.3 -10.6 -1.3 -11.4 L-0.8 -12.7 Q-0.75 -12.1 -0.4 -11.95 L-0.3 -11.95 0.45 -11.75 1.75 -12.2 3.7 -12.5 2.35 -11.85 -0.05 -10.25 M50.2 5.35 L50.9 4.8 49.25 4.5 50.2 5.35 M44.5 3.55 L43.95 3.3 43.95 3.9 44.5 3.55 M12.15 25.95 L11.5 26.65 Q10.7 27.7 10.7 28.5 L10.75 29.25 10.8 29.55 10.8 29.6 10.45 29.5 10.3 29.25 10.2 28.35 10.2 28.1 Q10.3 27.15 11.2 26.5 L11.55 26.25 12.15 25.95 M28.65 4.35 L28.95 4.45 30.6 3.85 29.45 3.75 28.4 3.0 28.6 3.55 28.65 4.35 M22.9 0.25 L23.25 -0.2 23.95 -0.25 23.95 0.6 23.9 1.05 22.95 0.25 22.9 0.25 M19.55 -19.55 L18.05 -18.7 19.45 -19.55 19.55 -19.55 M14.7 -9.35 L14.5 -10.05 Q14.2 -9.15 13.45 -8.75 L13.7 -7.8 13.7 -7.45 Q14.7 -7.85 14.7 -9.35 M17.2 -21.15 Q17.2 -19.5 14.95 -20.0 L14.8 -20.2 14.7 -21.1 14.75 -22.25 Q14.95 -22.25 15.95 -22.75 17.2 -21.55 17.2 -21.15 M26.0 -7.9 L26.4 -8.1 26.5 -8.6 Q24.7 -7.05 24.7 -6.4 L24.7 -6.15 25.7 -7.5 26.0 -7.9 M75.8 -5.1 L76.45 -5.75 76.55 -5.75 77.15 -6.2 75.95 -6.5 Q74.6 -5.65 74.8 -4.1 L75.8 -5.1" fill="#fffffd" fill-rule="evenodd" stroke="none"/>
    <path d="M-26.6 21.35 L-27.0 21.15 -26.35 21.1 -26.6 21.35 M-24.2 20.8 L-24.3 20.85 -24.8 20.75 -24.85 20.75 -24.6 20.3 -24.05 20.4 -24.2 20.8 M-53.3 -1.0 L-53.85 -1.1 -54.6 -1.6 Q-53.85 -2.15 -53.55 -2.75 -53.3 -3.25 -53.3 -4.1 L-53.3 -4.4 -51.75 -4.95 -52.3 -3.5 Q-52.3 -2.65 -51.9 -2.25 L-51.55 -2.0 -53.3 -1.0 M-52.7 5.2 L-52.8 5.25 -53.75 5.65 -52.6 4.9 -52.7 5.2 M-70.05 -2.0 L-72.3 -0.25 -73.95 0.05 -74.05 0.15 -75.3 -0.65 -75.3 -0.8 -73.9 -0.5 Q-73.55 -2.7 -72.65 -3.7 -71.8 -4.6 -71.8 -4.85 L-71.85 -5.5 -71.8 -5.5 Q-71.35 -4.35 -70.3 -3.8 L-70.05 -2.0 M-66.85 -3.0 L-66.8 -3.1 -66.8 -3.15 -66.8 -3.25 -66.2 -3.25 -66.5 -3.0 -66.85 -3.0 M-55.9 -3.4 L-55.75 -2.45 -56.5 -2.95 -56.05 -2.9 -55.95 -3.45 -55.9 -3.4 M-49.0 -2.0 L-50.8 -2.0 -49.6 -3.9 Q-48.95 -5.1 -46.9 -5.1 L-46.75 -5.0 -47.85 -3.65 -49.0 -2.0 M-30.55 -11.3 L-30.35 -11.7 -30.3 -11.7 -30.15 -11.15 -30.55 -11.3 M-27.05 -18.25 L-27.35 -18.15 -27.2 -18.3 -27.05 -18.25" fill="#333333" fill-rule="evenodd" stroke="none"/>
  </g>
</svg>
