<?xml version="1.0" encoding="UTF-8" standalone="no"?>
<svg xmlns:ffdec="https://www.free-decompiler.com/flash" xmlns:xlink="http://www.w3.org/1999/xlink" ffdec:objectType="shape" height="50.4px" width="63.9px" xmlns="http://www.w3.org/2000/svg">
  <g transform="matrix(1.0, 0.0, 0.0, 1.0, 31.95, 24.55)">
    <path d="M18.25 -9.85 L17.75 -9.6 17.7 -9.6 18.05 -9.15 18.6 -8.65 19.05 -7.65 19.45 -7.1 19.7 -7.3 20.15 -7.95 20.55 -8.8 21.35 -9.85 21.85 -10.4 22.05 -10.7 21.5 -10.85 20.05 -10.35 18.25 -9.85 M15.3 -11.35 L15.35 -11.3 15.25 -11.25 15.3 -11.35 M16.45 -10.45 L16.6 -10.9 16.7 -10.8 16.9 -10.95 22.05 -12.4 23.95 -12.85 Q24.7 -13.0 24.85 -12.6 25.0 -12.25 24.0 -11.0 L23.75 -10.65 22.2 -8.35 20.5 -6.15 20.4 -6.1 20.85 -5.35 Q17.7 -7.05 16.4 -10.3 L16.45 -10.45" fill="#000000" fill-rule="evenodd" stroke="none"/>
    <path d="M18.25 -9.85 L20.05 -10.35 21.5 -10.85 22.05 -10.7 21.85 -10.4 21.35 -9.85 20.55 -8.8 20.15 -7.95 19.7 -7.3 19.45 -7.1 19.05 -7.65 18.6 -8.65 18.05 -9.15 17.7 -9.6 17.75 -9.6 18.25 -9.85" fill="#6d6c6d" fill-rule="evenodd" stroke="none"/>
    <path d="M16.4 -18.25 L16.55 -18.2 16.7 -17.85 17.4 -17.15 17.45 -16.85 17.95 -16.3 18.9 -14.9 19.1 -14.55 20.05 -13.0 22.3 -8.75 22.25 -8.7 22.35 -8.7 22.65 -8.1 23.1 -8.1 23.1 -7.95 23.2 -7.75 23.15 -7.75 23.45 -7.2 23.85 -5.1 24.05 -1.05 24.05 -0.95 24.15 -0.8 24.05 -0.75 24.1 0.3 24.15 1.15 24.15 1.8 24.2 3.1 24.2 3.7 24.05 3.7 23.95 5.9 23.45 7.8 23.3 7.95 22.65 8.95 21.25 10.7 Q19.65 12.1 16.0 13.45 L14.9 13.85 14.9 13.95 11.45 15.1 9.55 15.65 2.3 16.8 1.9 16.8 1.4 16.9 -0.85 16.9 -0.95 16.8 -1.05 16.8 -1.1 16.9 -1.1 16.8 -2.65 16.8 -6.3 16.35 -7.45 16.05 -9.3 15.7 -10.6 15.35 -10.75 15.3 -12.75 14.55 -14.6 13.85 -14.7 13.95 -18.75 11.55 Q-19.75 11.55 -21.55 9.9 L-23.4 8.0 -25.4 5.35 -25.7 3.9 -25.9 2.7 -25.9 1.95 -26.0 -0.9 -26.0 -1.3 Q-25.95 -3.55 -25.5 -6.3 L-24.75 -8.95 -24.05 -10.3 -23.45 -10.8 -22.7 -12.05 -20.95 -14.65 -19.35 -17.35 -19.0 -17.75 Q-18.4 -17.95 -17.4 -19.25 L-16.3 -20.2 -16.0 -20.45 -14.8 -21.25 Q-9.25 -24.55 -0.95 -24.55 7.4 -24.55 12.95 -21.25 15.2 -19.85 16.4 -18.25 M16.1 -16.55 L15.6 -17.3 15.2 -17.45 Q14.1 -18.75 12.05 -19.85 6.85 -22.75 -0.9 -22.7 -8.6 -22.75 -13.75 -19.85 -15.85 -18.7 -17.0 -17.4 L-17.9 -16.05 -18.0 -15.9 -18.1 -15.75 -18.2 -15.7 -18.6 -15.15 -18.8 -14.85 -19.05 -14.25 -19.15 -13.95 -19.25 -12.75 Q-19.25 -9.5 -15.35 -5.9 -13.7 -4.3 -11.05 -3.0 -6.55 -0.9 -1.35 -0.9 2.25 -0.9 6.95 -2.0 L7.5 -2.1 7.85 -2.2 Q11.7 -3.2 13.35 -4.3 L13.4 -4.25 13.55 -4.35 15.2 -6.05 16.5 -8.0 Q17.55 -10.0 17.6 -11.95 L17.35 -13.3 17.1 -15.0 17.0 -15.15 16.6 -16.15 16.1 -16.55 M7.0 -16.15 L7.0 -17.0 7.05 -17.95 7.0 -18.1 7.05 -18.65 Q6.55 -18.85 5.8 -19.25 L3.7 -20.3 2.95 -20.6 -0.05 -20.55 -2.35 -20.55 -6.0 -20.45 Q-6.15 -20.3 -6.45 -20.2 L-8.55 -19.05 -9.25 -18.65 -9.05 -16.55 -9.15 -13.5 -8.95 -13.45 -9.0 -13.25 -9.75 -12.35 -10.45 -11.6 -5.4 -11.45 -5.35 -11.35 -5.2 -11.3 -5.35 -9.1 -5.35 -8.65 -4.0 -9.5 -2.45 -10.45 Q-2.3 -10.65 -1.85 -10.45 -1.3 -10.05 -1.2 -9.5 L-0.2 -8.55 0.05 -8.05 0.25 -8.2 0.25 -8.05 1.95 -9.8 2.25 -9.95 2.4 -10.1 2.5 -10.15 2.85 -9.85 3.1 -9.8 3.5 -9.4 4.5 -8.55 4.4 -9.15 4.1 -10.85 4.75 -10.9 8.4 -11.15 8.55 -11.3 7.7 -11.85 7.15 -12.25 7.3 -12.7 7.3 -12.9 7.15 -13.5 7.05 -14.0 7.0 -15.4 7.0 -16.15 M-5.25 -21.15 L-4.9 -21.15 -3.9 -21.3 -2.3 -21.3 -0.85 -21.3 0.55 -21.3 1.4 -21.15 3.85 -21.0 4.7 -20.75 4.65 -20.7 Q7.0 -19.65 7.55 -19.2 L7.7 -19.2 8.2 -18.65 8.25 -18.65 8.55 -18.65 Q8.65 -14.5 8.05 -13.25 L8.35 -13.1 9.45 -12.35 10.6 -11.3 10.7 -10.6 10.6 -10.45 5.6 -10.05 5.7 -9.75 6.15 -8.55 6.85 -6.45 7.0 -5.6 7.3 -5.25 Q7.35 -4.85 6.35 -4.75 L-3.3 -4.55 -5.5 -4.5 -5.7 -4.5 -7.0 -4.75 -7.3 -5.0 -7.2 -5.5 -7.25 -5.5 -7.25 -5.7 -7.15 -6.05 -6.6 -9.75 -6.55 -9.85 -6.3 -10.7 -7.1 -10.6 -9.9 -10.4 -11.7 -10.6 Q-12.55 -10.65 -12.75 -10.9 L-12.7 -11.15 Q-12.4 -12.15 -10.35 -13.45 L-10.05 -13.7 -10.7 -16.45 -10.7 -16.95 -10.95 -18.4 -10.8 -18.5 -8.95 -19.6 Q-7.05 -20.5 -6.45 -20.85 L-5.25 -21.15 M2.45 -12.9 L0.8 -13.25 0.3 -13.45 3.5 -14.75 5.3 -15.4 5.5 -15.45 5.55 -15.5 6.05 -15.6 6.05 -14.95 5.95 -14.55 Q5.85 -13.0 6.0 -12.25 L2.45 -12.9 M0.0 -7.4 L-1.45 -8.75 -2.35 -9.85 -3.7 -8.9 -5.35 -7.75 -5.5 -7.55 -5.35 -6.45 -5.75 -5.8 -4.1 -5.9 -2.95 -5.9 5.05 -5.9 4.8 -6.45 4.8 -7.55 Q4.25 -7.65 3.25 -8.55 L2.55 -9.35 0.25 -7.4 0.0 -7.4 M4.55 -0.7 L4.05 -0.6 -1.75 -0.05 -7.0 -0.7 -8.0 -0.9 Q-10.05 -1.5 -11.9 -2.5 L-12.9 -3.05 -14.35 -4.05 -16.35 -5.65 -18.1 -7.55 -19.2 -9.5 -19.25 -9.65 -19.5 -10.55 -19.7 -11.4 -19.8 -12.7 -19.8 -13.1 -19.8 -13.55 -21.0 -11.95 -22.8 -8.65 -23.5 -7.45 Q-23.35 -7.25 -23.35 -6.85 L-23.55 -6.0 -23.4 -5.2 Q-23.1 -3.95 -22.4 -2.75 L-22.3 -2.5 -21.75 -1.4 -21.1 -0.15 -21.05 -0.05 -19.0 2.35 -19.0 2.45 -18.8 2.55 -17.3 3.4 -15.55 4.35 -13.2 5.2 -12.4 5.45 -10.9 5.9 -10.5 6.0 Q-9.65 6.15 -8.9 6.8 L-8.5 7.2 -6.15 7.85 -4.8 8.05 0.4 8.3 1.6 8.3 2.3 8.3 5.65 7.95 Q8.55 7.35 11.9 6.1 L12.0 6.05 12.5 5.9 Q15.7 4.55 17.75 3.25 L17.8 3.25 19.35 2.1 20.75 0.5 21.1 0.05 Q21.9 -1.2 22.1 -2.25 L22.25 -2.8 22.25 -3.1 22.0 -4.45 21.95 -4.5 21.65 -6.0 21.6 -6.05 21.6 -6.15 20.6 -8.1 20.75 -8.1 20.35 -8.95 19.65 -11.25 18.25 -13.3 18.4 -12.05 18.4 -11.15 Q18.35 -8.95 17.55 -7.3 16.75 -5.8 15.4 -4.7 L15.05 -4.4 14.8 -4.25 Q14.1 -3.6 13.6 -3.6 L13.55 -3.6 13.1 -3.35 Q11.95 -2.55 8.15 -1.5 L4.55 -0.7 M-9.2 13.4 L-8.6 13.55 -1.65 14.6 -1.1 14.6 6.1 13.95 8.95 13.45 11.25 13.0 13.65 12.0 13.7 12.0 Q14.05 12.0 16.6 10.8 17.7 10.35 18.85 9.5 L20.85 8.1 21.35 7.5 21.45 7.5 Q21.95 7.5 22.05 6.9 L22.15 6.15 Q22.35 5.8 22.35 4.5 L22.4 1.7 22.25 1.35 22.25 0.2 22.25 -0.05 22.15 0.05 21.15 1.35 18.65 3.65 Q12.0 7.9 5.75 8.9 L2.05 9.2 0.4 9.2 -4.85 8.95 -6.9 8.55 Q-8.0 8.3 -8.9 7.7 L-8.95 7.7 -8.95 7.65 -9.8 7.25 -9.9 7.2 -9.95 7.15 -10.35 7.0 -10.5 6.95 -10.95 6.8 -10.2 7.15 -10.35 7.1 -10.5 7.1 -12.35 6.6 -12.55 6.45 -12.95 6.3 Q-14.95 5.85 -16.45 5.0 L-18.55 3.5 -20.6 2.05 -20.6 1.95 -21.25 1.2 -22.55 -0.15 -23.5 -1.95 -23.5 -2.1 -23.8 -2.4 -23.9 -2.65 -23.9 -2.3 -23.95 -2.25 -23.9 -0.1 -23.9 1.3 -23.9 1.5 -23.9 1.65 -23.85 1.65 -23.9 2.15 -23.85 3.25 -23.85 3.8 -23.8 4.25 -23.65 4.35 -23.2 4.9 -23.15 4.9 -23.0 5.1 -21.7 7.0 -21.45 7.2 -20.4 7.95 Q-19.45 8.7 -19.1 9.0 L-18.95 9.3 Q-18.55 9.55 -18.1 9.75 L-12.65 12.2 -12.55 12.25 -11.9 12.55 -10.85 12.95 -10.65 13.0 -9.2 13.4 M-7.25 -15.7 L-1.85 -13.7 Q-1.7 -13.7 -1.6 -13.5 L-1.85 -13.4 -2.05 -13.35 -4.9 -12.85 -7.45 -12.6 -7.75 -12.5 -7.9 -14.45 -8.2 -15.7 Q-7.85 -15.9 -7.25 -15.7" fill="#000000" fill-rule="evenodd" stroke="none"/>
    <path d="M16.1 -16.55 L16.6 -16.15 17.0 -15.15 17.1 -15.0 17.35 -13.3 17.6 -11.95 Q17.55 -10.0 16.5 -8.0 L15.2 -6.05 13.55 -4.35 13.4 -4.25 13.35 -4.3 Q11.7 -3.2 7.85 -2.2 L7.5 -2.1 6.95 -2.0 Q2.25 -0.9 -1.35 -0.9 -6.55 -0.9 -11.05 -3.0 -13.7 -4.3 -15.35 -5.9 -19.25 -9.5 -19.25 -12.75 L-19.15 -13.95 -19.05 -14.25 -18.8 -14.85 -18.6 -15.15 -18.2 -15.7 -18.1 -15.75 -18.0 -15.9 -17.9 -16.05 -17.0 -17.4 Q-15.85 -18.7 -13.75 -19.85 -8.6 -22.75 -0.9 -22.7 6.85 -22.75 12.05 -19.85 14.1 -18.75 15.2 -17.45 L15.6 -17.3 16.1 -16.55 M-7.0 -4.75 L-5.7 -4.5 -5.5 -4.5 -3.3 -4.55 6.35 -4.75 Q7.35 -4.85 7.3 -5.25 L7.0 -5.6 6.85 -6.45 6.15 -8.55 5.7 -9.75 5.6 -10.05 10.6 -10.45 10.7 -10.6 10.6 -11.3 9.45 -12.35 8.35 -13.1 8.05 -13.25 Q8.65 -14.5 8.55 -18.65 L8.25 -18.65 8.2 -18.65 7.7 -19.2 7.55 -19.2 Q7.0 -19.65 4.65 -20.7 L4.7 -20.75 3.85 -21.0 1.4 -21.15 0.55 -21.3 -0.85 -21.3 -2.3 -21.3 -3.9 -21.3 -4.9 -21.15 -5.25 -21.15 -5.65 -21.15 -8.25 -20.75 -9.5 -20.25 -12.7 -18.2 -12.3 -16.4 -11.95 -14.5 -13.75 -12.65 Q-15.6 -10.7 -15.6 -10.15 -15.6 -9.65 -14.6 -9.65 L-11.4 -9.6 -8.8 -9.65 Q-8.05 -9.65 -8.05 -9.3 L-8.25 -6.8 Q-8.55 -5.85 -9.2 -4.4 L-9.0 -4.4 -7.65 -4.7 -7.0 -4.75 M5.65 7.95 L4.55 -0.7 8.15 -1.5 Q11.95 -2.55 13.1 -3.35 L13.55 -3.6 13.6 -3.6 Q14.1 -3.6 14.8 -4.25 L15.05 -4.4 17.8 3.25 17.75 3.25 Q15.7 4.55 12.5 5.9 L12.0 6.05 11.9 6.1 Q8.55 7.35 5.65 7.95 M0.35 -2.55 L0.05 -2.5 0.35 -2.5 0.35 -2.55" fill="#484a49" fill-rule="evenodd" stroke="none"/>
    <path d="M-9.25 -18.65 L-8.55 -19.05 -6.45 -20.2 Q-6.15 -20.3 -6.0 -20.45 L-2.35 -20.55 -0.05 -20.55 2.95 -20.6 3.7 -20.3 5.8 -19.25 Q6.55 -18.85 7.05 -18.65 L7.0 -18.1 7.05 -17.95 7.0 -17.0 7.0 -16.15 6.25 -16.7 5.25 -16.35 4.45 -16.1 Q2.75 -15.4 1.05 -15.05 L-0.15 -15.5 -0.2 -14.7 -0.6 -14.7 -1.6 -14.5 -1.3 -15.6 -2.8 -15.05 -2.85 -15.05 -7.35 -16.7 -8.3 -17.7 -9.25 -18.65 M4.75 -10.9 L4.1 -10.85 4.4 -9.15 4.5 -8.55 3.5 -9.4 3.1 -9.8 2.85 -9.85 2.5 -10.15 2.4 -10.1 2.25 -9.95 1.95 -9.8 0.25 -8.05 0.25 -8.2 -0.75 -11.9 0.25 -12.15 -0.75 -13.4 4.75 -10.9" fill="#7b7b7b" fill-rule="evenodd" stroke="none"/>
    <path d="M-9.25 -18.65 L-8.3 -17.7 -7.35 -16.7 -2.85 -15.05 -2.8 -15.05 -1.3 -15.6 -1.6 -14.5 -0.6 -14.7 -0.2 -14.7 -0.15 -15.5 1.05 -15.05 Q2.75 -15.4 4.45 -16.1 L5.25 -16.35 6.25 -16.7 7.0 -16.15 7.0 -15.4 7.05 -14.0 7.15 -13.5 7.3 -12.9 7.3 -12.7 7.15 -12.25 7.7 -11.85 8.55 -11.3 8.4 -11.15 4.75 -10.9 -0.75 -13.4 0.25 -12.15 -0.75 -11.9 0.25 -8.2 0.05 -8.05 -0.2 -8.55 -1.2 -9.5 Q-1.3 -10.05 -1.85 -10.45 -2.3 -10.65 -2.45 -10.45 L-4.0 -9.5 -5.35 -8.65 -5.35 -9.1 -5.2 -11.3 -5.35 -11.35 -5.4 -11.45 -10.45 -11.6 -9.75 -12.35 -9.0 -13.25 -8.95 -13.45 -9.15 -13.5 -9.05 -16.55 -9.25 -18.65 M2.45 -12.9 L6.0 -12.25 Q5.85 -13.0 5.95 -14.55 L6.05 -14.95 6.05 -15.6 5.55 -15.5 5.5 -15.45 5.3 -15.4 3.5 -14.75 0.3 -13.45 0.8 -13.25 2.45 -12.9 M0.0 -7.4 L0.25 -7.4 2.55 -9.35 3.25 -8.55 Q4.25 -7.65 4.8 -7.55 L4.8 -6.45 5.05 -5.9 -2.95 -5.9 -4.1 -5.9 -5.75 -5.8 -5.35 -6.45 -5.5 -7.55 -5.35 -7.75 -3.7 -8.9 -2.35 -9.85 -1.45 -8.75 0.0 -7.4 M-7.25 -15.7 Q-7.85 -15.9 -8.2 -15.7 L-7.9 -14.45 -7.75 -12.5 -7.45 -12.6 -4.9 -12.85 -2.05 -13.35 -1.85 -13.4 -1.6 -13.5 Q-1.7 -13.7 -1.85 -13.7 L-7.25 -15.7" fill="#555555" fill-rule="evenodd" stroke="none"/>
    <path d="M4.05 -0.6 L4.55 -0.7 5.65 7.95 2.3 8.3 0.4 8.25 0.1 0.05 Q2.4 -0.1 4.05 -0.6 M0.35 -2.55 L0.35 -2.5 0.05 -2.5 0.35 -2.55" fill="#3c3c3c" fill-rule="evenodd" stroke="none"/>
    <path d="M17.55 -7.3 Q18.35 -8.95 18.4 -11.15 L18.4 -12.05 18.25 -13.3 19.65 -11.25 20.35 -8.95 20.75 -8.1 20.6 -8.1 21.6 -6.15 21.6 -6.05 21.65 -6.0 21.95 -4.5 22.0 -4.45 22.25 -3.1 22.25 -2.8 22.1 -2.25 Q21.9 -1.2 21.1 0.05 L20.75 0.5 17.55 -7.3" fill="#444444" fill-rule="evenodd" stroke="none"/>
    <path d="M15.05 -4.4 L15.4 -4.7 Q16.75 -5.8 17.55 -7.3 L20.75 0.5 19.35 2.1 17.8 3.25 15.05 -4.4" fill="#626262" fill-rule="evenodd" stroke="none"/>
    <path d="M0.4 8.25 L2.3 8.3 1.6 8.3 0.4 8.3 -4.8 8.05 -6.15 7.85 -4.8 8.0 0.25 8.25 0.4 8.25 M-8.95 7.7 L-8.9 7.7 Q-8.0 8.3 -6.9 8.55 L-4.85 8.95 0.4 9.2 2.05 9.2 5.75 8.9 Q12.0 7.9 18.65 3.65 L21.15 1.35 22.15 0.05 22.25 -0.05 22.25 0.2 22.25 1.35 22.4 1.7 22.35 4.5 Q22.35 5.8 22.15 6.15 L22.05 6.9 Q21.95 7.5 21.45 7.5 L21.35 7.5 20.85 8.1 18.85 9.5 Q17.7 10.35 16.6 10.8 14.05 12.0 13.7 12.0 L13.65 12.0 11.25 13.0 8.95 13.45 6.1 13.95 -1.1 14.6 -1.65 14.6 -8.6 13.55 -9.2 13.4 -9.1 12.05 -8.95 7.7 M-10.65 13.0 L-10.85 12.95 -11.9 12.55 -12.55 12.25 -12.65 12.2 -12.5 7.85 -12.45 7.85 -12.55 6.45 -12.35 6.6 -10.5 7.1 -10.65 13.0 M-21.45 7.2 L-21.7 7.0 -23.0 5.1 -23.15 4.9 -23.2 4.9 -23.65 4.35 -23.85 3.25 -23.9 2.15 -23.85 1.65 -23.9 1.65 -23.9 1.5 -23.9 1.3 -23.9 -0.1 -23.95 -2.25 -23.9 -2.3 -23.8 -2.4 -23.5 -2.1 -23.5 -1.95 -22.55 -0.15 -21.25 1.2 -21.4 5.65 -21.45 7.2" fill="#6d6c6d" fill-rule="evenodd" stroke="none"/>
    <path d="M-7.0 -4.75 L-7.65 -4.7 -9.0 -4.4 -9.2 -4.4 Q-8.55 -5.85 -8.25 -6.8 L-8.05 -9.3 Q-8.05 -9.65 -8.8 -9.65 L-11.4 -9.6 -14.6 -9.65 Q-15.6 -9.65 -15.6 -10.15 -15.6 -10.7 -13.75 -12.65 L-11.95 -14.5 -12.3 -16.4 -12.7 -18.2 -9.5 -20.25 -8.25 -20.75 -5.65 -21.15 -5.25 -21.15 -6.45 -20.85 Q-7.05 -20.5 -8.95 -19.6 L-10.8 -18.5 -10.95 -18.4 -10.7 -16.95 -10.7 -16.45 -10.05 -13.7 -10.35 -13.45 Q-12.4 -12.15 -12.7 -11.15 L-12.75 -10.9 Q-12.55 -10.65 -11.7 -10.6 L-9.9 -10.4 -7.1 -10.6 -6.3 -10.7 -6.55 -9.85 -6.6 -9.75 -7.15 -6.05 -7.25 -5.7 -7.25 -5.5 -7.2 -5.5 -7.3 -5.0 -7.0 -4.75 M4.05 -0.6 Q2.4 -0.1 0.1 0.05 L0.4 8.25 0.25 8.25 -4.8 8.0 -6.15 7.85 -8.5 7.2 -8.9 6.8 Q-9.65 6.15 -10.5 6.0 L-10.9 5.9 -12.4 5.45 -13.2 5.2 -15.55 4.35 -17.3 3.4 -18.8 2.55 -19.0 2.45 -19.0 2.35 -21.05 -0.05 -21.1 -0.15 -21.75 -1.4 -22.3 -2.5 -18.7 -8.35 Q-19.2 -8.95 -19.2 -9.5 L-18.1 -7.55 -16.35 -5.65 -14.35 -4.05 -12.9 -3.05 -11.9 -2.5 Q-10.05 -1.5 -8.0 -0.9 L-7.0 -0.7 -1.75 -0.05 4.05 -0.6 M-19.5 -10.55 L-19.25 -9.65 -19.5 -10.35 -19.5 -10.55" fill="#373737" fill-rule="evenodd" stroke="none"/>
    <path d="M-23.4 -5.2 L-23.55 -6.0 -23.35 -6.85 Q-23.35 -7.25 -23.5 -7.45 L-22.8 -8.65 -21.0 -11.95 -19.8 -13.55 -19.8 -13.1 -19.8 -12.7 -19.7 -11.4 -23.4 -5.2" fill="#5e5e5e" fill-rule="evenodd" stroke="none"/>
    <path d="M-9.2 13.4 L-10.65 13.0 -10.5 7.1 -10.35 7.1 -10.2 7.15 -10.15 7.15 -9.95 7.15 -9.9 7.2 -9.8 7.25 -8.95 7.65 -8.95 7.7 -9.1 12.05 -9.2 13.4 M-12.65 12.2 L-18.1 9.75 Q-18.55 9.55 -18.95 9.3 L-19.1 9.0 Q-19.45 8.7 -20.4 7.95 L-21.45 7.2 -21.4 5.65 -21.25 1.2 -20.6 1.95 -20.6 2.05 -18.55 3.5 -16.45 5.0 Q-14.95 5.85 -12.95 6.3 L-12.55 6.45 -12.45 7.85 -12.5 7.85 -12.65 12.2 M-23.9 -2.3 L-23.9 -2.65 -23.8 -2.4 -23.9 -2.3" fill="#4f4e4f" fill-rule="evenodd" stroke="none"/>
    <path d="M-19.7 -11.4 L-19.5 -10.55 -19.5 -10.35 -19.25 -9.65 -19.2 -9.5 Q-19.2 -8.95 -18.7 -8.35 L-22.3 -2.5 -22.4 -2.75 Q-23.1 -3.95 -23.4 -5.2 L-19.7 -11.4" fill="#404040" fill-rule="evenodd" stroke="none"/>
    <path d="M11.05 9.7 L11.15 9.7 11.2 9.75 11.1 9.75 11.05 9.7" fill="#6d6c6d" fill-rule="evenodd" stroke="none"/>
    <path d="M-1.7 12.75 L-0.8 12.75 -0.15 12.8 0.25 12.8 1.45 12.8 Q2.35 12.85 2.6 13.15 L3.6 14.1 4.3 14.05 4.9 14.15 5.55 16.35 5.6 16.45 5.45 16.4 5.0 17.1 4.35 18.35 4.2 18.5 3.7 19.4 2.85 20.8 2.45 21.5 1.25 23.4 0.5 24.65 0.15 25.3 Q-0.2 25.7 -0.8 25.75 L-1.05 25.8 -1.3 25.85 Q-1.85 25.95 -2.3 25.25 L-2.45 24.95 -2.5 24.85 -3.0 24.1 -3.45 22.85 -3.6 22.2 -3.85 21.55 -4.25 20.35 Q-5.75 16.75 -6.05 15.45 L-6.1 15.4 -6.05 14.9 -5.8 14.3 Q-4.6 13.55 -3.4 13.15 L-2.65 12.9 -1.7 12.75 M0.2 20.55 L1.3 18.65 3.15 15.55 3.35 15.2 2.95 14.9 Q1.85 13.95 -0.8 14.1 L-2.35 14.25 -4.1 14.75 -4.15 14.8 -4.15 15.0 -3.7 17.1 -3.3 18.15 -3.15 18.6 -1.9 22.3 -1.55 22.6 -1.2 22.35 0.0 20.7 0.2 20.55" fill="#000000" fill-rule="evenodd" stroke="none"/>
    <path d="M-0.8 14.1 Q1.85 13.95 2.95 14.9 L3.35 15.2 3.15 15.55 1.3 18.65 0.2 20.55 -0.1 19.8 -0.85 16.9 -0.9 14.65 -0.8 14.1 M-1.2 22.35 L-1.55 22.6 -1.9 22.3 -3.15 18.6 -3.3 18.15 -3.7 17.1 -4.15 15.0 -4.15 14.8 -3.75 14.85 -3.55 15.35 -3.3 16.4 -2.6 18.3 -1.95 20.35 -1.6 21.4 Q-1.25 21.9 -1.25 22.2 L-1.2 22.35" fill="#6d6c6d" fill-rule="evenodd" stroke="none"/>
    <path d="M0.2 20.55 L0.0 20.7 -1.2 22.35 -1.25 22.2 Q-1.25 21.9 -1.6 21.4 L-1.95 20.35 -2.6 18.3 -3.3 16.4 -3.55 15.35 -3.75 14.85 -4.15 14.8 -4.1 14.75 -2.35 14.25 -0.8 14.1 -0.9 14.65 -0.85 16.9 -0.1 19.8 0.2 20.55" fill="#3f413f" fill-rule="evenodd" stroke="none"/>
    <path d="M-1.7 12.75 L-2.65 12.9 -1.75 12.5 -1.7 12.75" fill="#4f4e4f" fill-rule="evenodd" stroke="none"/>
    <path d="M20.1 8.45 L21.3 8.75 21.65 9.2 22.0 9.65 22.15 9.8 22.25 10.15 22.35 10.35 23.0 11.8 23.25 12.45 23.3 12.6 23.9 13.75 24.35 14.75 24.7 15.75 24.95 16.4 25.4 17.95 25.4 18.1 25.45 18.1 25.6 18.4 25.45 18.95 25.45 19.15 25.35 19.15 24.95 19.25 24.3 19.35 24.2 19.35 22.45 18.9 20.7 18.3 20.35 18.05 20.1 18.05 18.75 17.2 18.2 16.9 15.65 15.8 15.6 15.75 13.4 14.55 13.05 14.65 13.1 14.3 13.7 11.95 13.85 11.45 14.25 10.9 15.25 10.05 15.55 9.8 Q17.15 8.65 18.9 8.4 L19.45 8.4 19.95 8.5 20.1 8.45 M22.45 15.45 L22.15 14.35 21.35 12.05 20.85 10.6 20.8 10.55 20.4 10.5 19.9 10.6 19.7 10.7 Q18.3 11.3 17.8 11.6 L16.85 12.4 Q16.55 12.5 16.3 12.7 L15.8 13.25 15.45 13.55 18.5 15.25 Q21.7 16.95 22.15 16.85 L22.35 16.85 22.8 17.05 22.45 15.45" fill="#000000" fill-rule="evenodd" stroke="none"/>
    <path d="M20.1 8.45 L19.95 8.5 19.45 8.4 18.9 8.4 Q17.15 8.65 15.55 9.8 16.25 9.15 17.15 8.7 L18.85 8.3 20.1 8.45 M14.25 10.9 L13.85 11.45 13.9 11.25 14.25 10.9 M16.85 12.4 L17.8 11.6 Q18.3 11.3 19.7 10.7 L19.9 10.6 20.4 10.5 20.8 10.55 20.85 10.6 21.35 12.05 22.15 14.35 22.45 15.45 20.3 14.4 17.15 12.6 16.85 12.4 M22.35 16.85 L22.15 16.85 Q21.7 16.95 18.5 15.25 L15.45 13.55 15.8 13.25 15.95 13.3 17.15 13.85 18.85 14.75 20.65 15.75 Q22.4 16.45 22.45 16.65 L22.35 16.85" fill="#6d6c6d" fill-rule="evenodd" stroke="none"/>
    <path d="M16.85 12.4 L17.15 12.6 20.3 14.4 22.45 15.45 22.8 17.05 22.35 16.85 22.45 16.65 Q22.4 16.45 20.65 15.75 L18.85 14.75 17.15 13.85 15.95 13.3 15.8 13.25 16.3 12.7 Q16.55 12.5 16.85 12.4" fill="#3f413f" fill-rule="evenodd" stroke="none"/>
    <path d="M21.85 0.45 Q22.8 -0.35 24.05 -0.8 L24.15 -0.35 24.4 -0.25 28.2 0.95 30.05 1.9 31.5 2.35 31.85 2.5 31.95 2.9 Q32.1 3.35 31.25 3.8 30.2 4.45 26.6 5.5 L22.55 7.1 22.0 7.25 21.7 7.85 21.3 7.3 21.05 6.55 20.5 3.45 20.5 2.25 20.55 2.05 20.75 1.5 20.9 1.3 20.9 1.25 21.6 0.55 21.8 0.5 21.85 0.45 M29.1 3.15 L28.85 3.1 28.1 2.9 26.15 2.2 24.15 1.55 23.15 1.1 22.95 1.15 22.85 1.3 22.8 1.25 Q21.55 1.75 21.8 3.4 L21.85 3.9 Q21.9 4.55 22.25 5.2 L22.3 5.3 22.35 5.3 22.35 5.35 23.4 5.5 26.9 4.3 28.8 3.7 29.15 3.3 29.15 3.2 29.2 3.2 29.1 3.15" fill="#000000" fill-rule="evenodd" stroke="none"/>
    <path d="M28.85 3.1 L29.1 3.15 29.15 3.2 28.8 3.15 25.85 4.1 23.3 5.1 22.6 5.1 22.45 5.0 22.3 5.2 22.35 5.3 22.3 5.3 22.25 5.2 Q21.9 4.55 21.85 3.9 L26.4 3.45 28.85 3.1" fill="#3f413f" fill-rule="evenodd" stroke="none"/>
    <path d="M21.85 0.45 L21.8 0.5 21.6 0.55 21.85 0.45 M20.9 1.3 L20.75 1.5 20.75 1.4 Q20.85 1.3 20.9 1.3 M20.55 2.05 L20.5 2.25 20.5 3.45 20.4 2.45 20.55 2.05 M29.15 3.2 L29.15 3.3 28.8 3.7 26.9 4.3 23.4 5.5 22.35 5.35 22.35 5.3 22.3 5.2 22.45 5.0 22.6 5.1 23.3 5.1 25.85 4.1 28.8 3.15 29.15 3.2 M21.85 3.9 L21.8 3.4 Q21.55 1.75 22.8 1.25 L22.85 1.3 22.95 1.15 23.15 1.1 24.15 1.55 26.15 2.2 28.1 2.9 28.85 3.1 26.4 3.45 21.85 3.9" fill="#6d6c6d" fill-rule="evenodd" stroke="none"/>
    <path d="M-31.15 -0.2 Q-31.95 -0.85 -31.95 -1.2 -31.95 -1.85 -30.55 -2.4 L-27.85 -3.4 -25.1 -4.3 -25.05 -4.3 Q-24.55 -3.7 -23.55 -3.55 -23.2 -2.65 -23.1 -1.5 -23.25 0.4 -24.2 1.7 L-24.25 1.7 -25.4 2.0 Q-26.1 1.9 -27.4 1.25 -29.0 0.55 -29.5 0.45 -30.2 0.45 -31.15 -0.2 M-29.2 -1.0 L-28.65 -0.5 -27.55 -0.2 -26.55 0.15 -25.45 0.4 Q-25.1 0.4 -25.1 0.0 L-25.3 -0.25 -25.4 -1.25 -25.35 -1.8 Q-25.35 -2.2 -25.65 -2.3 L-26.0 -2.2 -27.65 -1.75 Q-29.2 -1.35 -29.2 -1.0" fill="#000000" fill-rule="evenodd" stroke="none"/>
    <path d="M-29.2 -1.0 Q-29.2 -1.35 -27.65 -1.75 L-26.0 -2.2 -25.65 -2.3 Q-25.35 -2.2 -25.35 -1.8 L-25.4 -1.25 -25.3 -0.25 -25.1 0.0 Q-25.1 0.4 -25.45 0.4 L-26.55 0.15 -27.55 -0.2 -28.65 -0.5 -29.2 -1.0" fill="#6d6c6d" fill-rule="evenodd" stroke="none"/>
    <path d="M-18.55 7.2 L-18.8 7.2 -19.1 7.45 -19.8 6.8 -19.5 6.9 -18.55 7.2 M-19.7 8.7 L-20.85 11.2 -22.1 13.3 -22.25 13.5 -22.6 13.55 -22.65 13.55 Q-22.75 13.2 -22.1 12.05 L-21.2 10.65 -20.15 8.65 -19.9 8.7 -19.7 8.7 M-19.25 12.35 Q-19.35 11.25 -19.05 9.9 L-18.7 8.8 -18.15 8.95 Q-17.75 9.15 -17.25 10.1 L-16.75 11.6 -17.25 11.8 -19.25 12.35" fill="#6d6c6d" fill-rule="evenodd" stroke="none"/>
    <path d="M-19.8 6.8 L-19.1 7.45 -18.8 7.2 -18.55 7.2 Q-17.35 7.75 -16.45 9.1 L-15.9 10.05 -15.85 10.15 -15.15 11.9 -14.95 13.0 -15.5 13.2 -18.75 14.35 -18.95 14.5 -24.45 16.4 -25.0 16.5 -25.25 16.25 -25.2 16.15 -25.55 15.75 Q-25.65 15.35 -24.65 13.1 L-23.6 10.85 -22.0 7.55 -21.9 7.45 -21.65 7.0 -21.65 6.9 -21.65 6.75 -21.75 6.4 -21.7 6.4 -19.8 6.8 M-18.7 8.8 L-19.3 8.65 -19.7 8.7 -19.9 8.7 -20.15 8.65 -21.2 10.65 -22.1 12.05 Q-22.75 13.2 -22.65 13.55 L-22.6 13.55 -22.25 13.5 -22.1 13.3 -19.25 12.35 -17.25 11.8 -16.75 11.6 -17.25 10.1 Q-17.75 9.15 -18.15 8.95 L-18.7 8.8" fill="#000000" fill-rule="evenodd" stroke="none"/>
    <path d="M-19.7 8.7 L-19.3 8.65 -18.7 8.8 -19.05 9.9 Q-19.35 11.25 -19.25 12.35 L-22.1 13.3 -20.85 11.2 -19.7 8.7" fill="#3f413f" fill-rule="evenodd" stroke="none"/>
    <path d="M-15.85 10.15 L-15.9 10.05 -16.45 9.1 Q-16.1 9.55 -15.85 10.15" fill="#4f4e4f" fill-rule="evenodd" stroke="none"/>
  </g>
</svg>
