<?xml version="1.0" encoding="UTF-8" standalone="no"?>
<svg xmlns:ffdec="https://www.free-decompiler.com/flash" xmlns:xlink="http://www.w3.org/1999/xlink" ffdec:objectType="shape" height="29.65px" width="49.35px" xmlns="http://www.w3.org/2000/svg">
  <g transform="matrix(1.0, 0.0, 0.0, 1.0, 11.15, 0.65)">
    <path d="M37.2 -0.35 L37.3 -0.55 37.5 -0.5 Q37.65 -0.85 37.65 -0.4 L37.35 -0.05 Q37.2 0.1 37.2 -0.35 M38.2 1.25 L37.65 1.7 37.5 1.2 37.75 0.9 38.05 1.05 Q38.2 0.85 38.2 1.25 M37.85 3.4 L37.65 3.6 37.35 3.4 Q37.6 3.2 37.85 3.4 M37.05 5.1 L37.35 5.15 37.35 5.75 37.0 5.75 36.8 5.4 37.05 5.1 M31.9 8.85 L32.25 8.45 32.85 8.7 Q32.85 9.3 32.5 9.3 L31.9 8.85 M-11.15 28.5 Q-11.15 27.95 -10.25 27.5 -9.55 27.15 -9.05 27.15 L-7.05 27.35 -7.0 27.9 Q-7.0 28.75 -8.8 28.9 L-11.05 28.85 -11.15 28.5" fill="#212024" fill-opacity="0.53333336" fill-rule="evenodd" stroke="none"/>
  </g>
</svg>
