<?xml version="1.0" encoding="UTF-8" standalone="no"?>
<svg xmlns:ffdec="https://www.free-decompiler.com/flash" xmlns:xlink="http://www.w3.org/1999/xlink" ffdec:objectType="shape" height="11.15px" width="28.1px" xmlns="http://www.w3.org/2000/svg">
  <g transform="matrix(1.0, 0.0, 0.0, 1.0, 15.75, 2.15)">
    <path d="M10.0 -1.95 L10.95 -0.5 11.9 1.0 12.35 2.3 Q12.35 4.3 11.55 4.45 L9.95 4.95 Q9.2 5.6 7.85 5.6 L7.6 5.6 6.25 5.85 Q4.8 5.85 3.2 4.7 1.65 3.55 1.65 2.7 L2.9 1.35 2.95 1.3 5.55 -1.0 6.2 -1.45 7.0 -1.95 7.1 -1.95 7.7 -1.9 8.65 -2.1 10.0 -1.95 M5.15 2.05 L5.05 2.1 5.15 2.1 5.15 2.05 M3.95 3.4 L4.3 3.55 4.35 3.55 4.0 3.0 3.7 3.25 3.95 3.4 M-9.45 7.15 Q-9.45 7.7 -10.5 8.35 -11.55 9.0 -12.55 9.0 -13.9 9.0 -14.65 8.05 L-15.1 7.15 Q-15.5 6.55 -15.5 5.95 L-15.25 5.2 -15.55 5.0 -15.75 4.25 Q-15.75 3.4 -15.05 3.15 L-13.9 3.35 -13.2 3.8 -13.1 3.85 -13.05 3.85 -11.9 4.6 Q-10.95 5.35 -10.9 5.45 L-10.15 6.2 -9.9 6.55 Q-9.45 6.65 -9.45 7.15" fill="#f3f3f5" fill-rule="evenodd" stroke="none"/>
    <path d="M-13.9 3.35 L-15.05 3.15 -14.4 3.05 -13.9 3.35" fill="#f3f3f5" fill-rule="evenodd" stroke="none"/>
    <path d="M-14.4 7.55 L-13.9 7.85 -15.05 7.65 -14.4 7.55" fill="#f3f3f5" fill-rule="evenodd" stroke="none"/>
  </g>
</svg>
