<?xml version="1.0" encoding="UTF-8" standalone="no"?>
<svg xmlns:ffdec="https://www.free-decompiler.com/flash" xmlns:xlink="http://www.w3.org/1999/xlink" ffdec:objectType="shape" height="9.65px" width="25.6px" xmlns="http://www.w3.org/2000/svg">
  <g transform="matrix(1.0, 0.0, 0.0, 1.0, 14.05, 1.55)">
    <path d="M7.8 -1.4 L8.95 -1.55 Q10.25 -1.55 11.0 -0.55 L11.55 0.65 11.55 0.95 Q11.55 2.15 11.1 3.05 10.35 4.55 8.5 4.55 7.0 4.55 6.35 3.2 5.95 2.35 5.95 1.35 5.95 0.55 6.2 0.0 L6.75 -0.8 Q7.15 -1.25 7.8 -1.4 M-9.6 5.5 L-9.6 5.7 Q-9.6 6.5 -9.95 7.1 -10.55 8.1 -12.0 8.1 -13.2 8.1 -13.7 7.2 L-14.05 5.95 -13.85 5.05 -13.4 4.55 -12.55 4.15 -11.65 4.05 Q-10.6 4.05 -10.0 4.7 -9.65 5.1 -9.6 5.5" fill="#3b1c00" fill-rule="evenodd" stroke="none"/>
  </g>
</svg>
