<?xml version="1.0" encoding="UTF-8" standalone="no"?>
<svg xmlns:ffdec="https://www.free-decompiler.com/flash" xmlns:xlink="http://www.w3.org/1999/xlink" ffdec:objectType="shape" height="209.05px" width="222.35px" xmlns="http://www.w3.org/2000/svg">
  <g transform="matrix(1.0, 0.0, 0.0, 1.0, 91.25, 108.55)">
    <path d="M-8.4 -14.6 L-6.15 -12.45 5.55 -0.3 14.8 9.15 16.85 11.2 17.7 11.95 32.05 24.95 44.2 36.2 63.7 54.65 64.4 55.3 73.05 63.6 88.6 78.7 88.15 78.85 Q87.6 79.05 87.1 79.35 98.9 90.4 101.75 95.0 L101.8 95.05 102.05 95.05 104.75 94.65 118.45 94.55 123.55 94.1 124.9 93.5 124.9 92.2 126.25 78.5 Q126.7 73.65 127.65 69.9 L128.2 68.1 123.65 62.05 91.1 26.95 85.5 21.1 75.85 12.15 46.45 -15.35 44.05 -17.35 Q13.75 -42.15 -2.5 -58.5 -45.4 -95.95 -51.0 -101.55 L-59.45 -90.8 Q-66.7 -81.75 -70.0 -78.35 L-71.3 -75.5 -72.65 -73.5 -71.3 -72.2 -70.75 -71.7 -69.2 -70.3 -69.35 -70.2 -69.05 -69.95 -62.2 -62.55 -57.2 -57.95 -49.95 -51.2 -37.55 -39.55 -37.35 -39.35 -34.65 -36.75 -32.8 -35.15 -28.8 -31.65 -19.05 -23.65 -15.0 -20.3 -8.4 -14.6 M3.15 -59.5 Q10.8 -52.0 20.05 -43.7 L45.0 -21.7 Q57.05 -11.1 70.15 1.2 L70.65 1.65 91.3 21.4 Q124.5 53.75 130.35 64.9 L131.1 65.85 Q130.95 66.25 130.95 66.7 L130.9 70.0 129.5 83.2 Q128.4 92.2 127.4 94.9 L127.55 95.5 Q127.55 97.15 127.4 96.6 L127.1 96.85 127.3 96.85 127.4 96.9 127.4 97.2 Q127.4 97.9 126.65 97.95 L124.95 98.15 123.75 98.15 119.1 99.4 111.6 99.4 111.75 99.8 111.4 100.15 110.85 100.5 109.6 100.5 104.0 99.6 103.0 99.4 102.3 99.4 102.1 99.2 101.8 99.15 101.1 99.4 100.1 98.45 99.85 98.2 99.05 97.4 96.4 94.9 80.65 79.95 61.35 61.1 58.65 58.4 58.25 58.0 55.75 55.6 44.65 44.8 41.75 42.15 31.45 32.95 29.3 31.05 14.6 18.15 7.1 11.5 1.9 6.8 -13.5 -7.4 -19.5 -13.0 -32.65 -25.6 -38.85 -31.8 -40.9 -33.8 -53.3 -46.1 -60.1 -52.7 -63.8 -56.35 Q-70.25 -62.95 -73.75 -67.4 L-76.3 -71.15 Q-78.5 -73.7 -78.5 -74.55 L-78.5 -74.75 -79.05 -75.55 -78.35 -76.7 -77.75 -77.75 -77.25 -77.35 Q-68.9 -89.85 -60.25 -99.5 -55.5 -104.85 -52.65 -106.75 L-52.2 -106.4 -52.1 -106.45 -35.95 -92.05 -27.05 -84.5 -16.2 -75.15 -4.0 -64.4 3.15 -59.5" fill="#3f2a0d" fill-rule="evenodd" stroke="none"/>
    <path d="M5.55 -0.3 L6.45 -2.0 21.75 -29.6 2.8 -30.2 -6.1 -17.75 -8.4 -14.6 -15.0 -20.3 -14.8 -20.6 -8.15 -31.55 -20.9 -44.35 -21.0 -44.15 Q-22.05 -42.2 -28.8 -31.65 L-32.8 -35.15 -34.65 -36.75 -37.35 -39.35 -32.1 -47.6 -18.6 -69.15 -36.05 -72.85 Q-37.05 -70.55 -47.4 -55.0 L-49.95 -51.2 -57.2 -57.95 -57.05 -58.2 Q-50.75 -69.5 -49.5 -72.2 L-67.05 -77.0 -70.75 -71.7 -71.3 -72.2 -72.65 -73.5 -71.3 -75.5 -70.0 -78.35 Q-66.7 -81.75 -59.45 -90.8 L-51.0 -101.55 Q-45.4 -95.95 -2.5 -58.5 13.75 -42.15 44.05 -17.35 L46.45 -15.35 75.85 12.15 Q78.75 20.35 78.75 29.15 78.75 43.85 68.7 52.25 L64.4 55.3 63.7 54.65 66.9 45.5 Q73.25 26.95 72.45 17.15 L53.35 12.0 Q52.55 15.2 46.75 29.85 L44.2 36.2 32.05 24.95 34.15 19.8 Q37.55 11.2 38.15 8.3 L21.65 3.35 17.7 11.95 16.85 11.2 14.8 9.15 5.55 -0.3" fill="#bd7e39" fill-rule="evenodd" stroke="none"/>
    <path d="M-8.4 -14.6 L-6.1 -17.75 2.8 -30.2 21.75 -29.6 6.45 -2.0 5.55 -0.3 -6.15 -12.45 -8.4 -14.6 M17.7 11.95 L21.65 3.35 38.15 8.3 Q37.55 11.2 34.15 19.8 L32.05 24.95 17.7 11.95 M44.2 36.2 L46.75 29.85 Q52.55 15.2 53.35 12.0 L72.45 17.15 Q73.25 26.95 66.9 45.5 L63.7 54.65 44.2 36.2 M64.4 55.3 L68.7 52.25 Q78.75 43.85 78.75 29.15 78.75 20.35 75.85 12.15 L85.5 21.1 91.1 26.95 123.65 62.05 128.2 68.1 127.65 69.9 Q119.85 77.2 110.0 87.05 L101.75 95.0 Q98.9 90.4 87.1 79.35 87.6 79.05 88.15 78.85 L88.6 78.7 73.05 63.6 64.4 55.3 M-70.75 -71.7 L-67.05 -77.0 -49.5 -72.2 Q-50.75 -69.5 -57.05 -58.2 L-57.2 -57.95 -62.2 -62.55 -69.05 -69.95 -69.35 -70.2 -69.2 -70.3 -70.75 -71.7 M-49.95 -51.2 L-47.4 -55.0 Q-37.05 -70.55 -36.05 -72.85 L-18.6 -69.15 -32.1 -47.6 -37.35 -39.35 -37.55 -39.55 -49.95 -51.2 M-28.8 -31.65 Q-22.05 -42.2 -21.0 -44.15 L-20.9 -44.35 -8.15 -31.55 -14.8 -20.6 -15.0 -20.3 -19.05 -23.65 -28.8 -31.65" fill="#915821" fill-rule="evenodd" stroke="none"/>
    <path d="M127.65 69.9 Q126.7 73.65 126.25 78.5 L124.9 92.2 124.9 93.5 123.55 94.1 118.45 94.55 104.75 94.65 102.05 95.05 101.8 95.05 101.75 95.0 110.0 87.05 Q119.85 77.2 127.65 69.9" fill="#d3853a" fill-rule="evenodd" stroke="none"/>
    <path d="M9.15 -58.55 L8.45 -60.5 7.15 -44.2 Q6.35 -33.7 5.4 -29.15 L6.85 -28.05 8.35 -26.9 11.6 -24.1 13.6 -22.05 13.25 -24.3 Q12.1 -32.7 12.95 -34.6 L13.2 -35.0 13.6 -34.45 14.15 -27.25 14.8 -22.35 18.95 -27.3 19.7 -28.3 20.05 -28.8 20.35 -29.2 Q18.5 -35.25 14.0 -46.35 L9.15 -58.55 M7.05 -69.25 L8.05 -67.35 8.05 -66.95 9.55 -64.05 10.6 -62.0 Q13.6 -54.05 15.45 -49.85 L18.15 -41.95 20.3 -35.25 22.75 -28.35 19.8 -23.75 17.55 -20.5 Q15.55 -18.4 14.25 -17.75 L13.45 -18.2 Q11.2 -19.75 6.6 -23.4 L1.05 -28.15 2.15 -37.4 Q3.2 -46.35 3.85 -49.85 L5.4 -61.05 Q6.35 -67.4 7.05 -69.25 M6.4 -15.7 L4.6 -16.5 15.4 -4.3 Q22.45 3.6 25.05 7.4 L26.85 7.1 28.75 6.9 33.0 6.45 35.85 6.45 34.0 5.1 Q27.2 0.1 26.35 -1.85 L26.25 -2.25 26.9 -2.15 32.55 2.4 36.45 5.35 35.7 -1.05 35.55 -2.3 35.45 -2.85 35.35 -3.4 Q29.7 -6.25 18.6 -10.7 L6.4 -15.7 M5.0 -19.1 Q12.8 -15.75 17.05 -14.1 L24.65 -10.6 31.0 -7.55 37.65 -4.55 38.95 0.8 39.65 4.65 Q39.75 7.55 39.4 8.95 L38.5 9.2 30.05 10.5 22.75 11.25 16.85 4.1 9.05 -5.8 2.0 -14.7 Q-1.9 -19.75 -2.7 -21.55 L-0.7 -20.95 -0.35 -20.7 2.75 -19.75 5.0 -19.1 M70.7 -19.8 L71.15 -17.45 Q71.75 -9.0 72.25 -4.45 L72.65 3.95 72.85 10.9 73.2 18.25 69.05 21.8 65.95 24.25 Q63.45 25.7 62.05 26.0 L61.4 25.35 56.35 18.4 52.3 12.2 55.95 3.7 Q59.6 -4.6 61.2 -7.75 L65.85 -18.1 Q68.6 -23.9 69.8 -25.4 L70.15 -23.35 70.05 -22.95 70.7 -19.8 M68.75 -14.65 L68.65 -16.6 62.75 -1.4 Q59.0 8.45 56.8 12.5 L57.9 14.0 58.9 15.55 61.35 19.15 62.65 21.7 62.95 19.4 Q64.25 11.05 65.6 9.4 L65.9 9.1 66.15 9.8 64.7 16.85 63.85 21.7 Q67.2 19.6 69.2 18.1 L70.25 17.4 70.7 17.05 71.15 16.7 Q71.1 10.45 69.9 -1.5 L68.75 -14.65 M115.0 23.3 L115.9 26.45 116.55 28.7 118.9 41.55 120.0 49.85 120.8 56.8 121.85 64.05 118.05 68.05 115.2 70.7 Q112.8 72.35 111.45 72.8 L110.8 72.2 105.05 65.75 100.55 59.95 103.4 51.15 107.5 39.25 111.3 28.6 Q113.4 22.55 114.5 20.9 L115.1 22.9 115.0 23.3 M85.55 12.35 L85.5 12.6 86.65 14.4 87.5 15.6 91.4 23.05 93.6 27.9 95.45 32.0 97.45 36.25 95.9 39.45 94.65 41.55 92.75 43.6 92.25 43.3 Q90.65 42.5 87.55 40.5 86.85 40.15 83.7 37.8 L83.7 31.85 Q83.8 26.05 84.0 23.8 L84.3 16.55 Q84.45 12.45 84.75 11.25 L85.55 12.35 M90.85 32.9 L90.95 32.65 91.25 33.0 92.1 37.55 92.75 40.55 95.1 37.15 95.55 36.45 95.7 36.15 95.85 35.9 Q94.3 32.15 90.7 25.35 L86.8 17.9 86.25 16.7 86.45 27.15 Q86.7 33.9 86.35 36.85 86.95 37.15 87.35 37.55 L88.35 38.15 90.65 39.7 92.1 40.9 91.7 39.45 Q90.4 34.15 90.85 32.9 M89.8 47.95 L91.15 53.25 91.9 57.1 Q92.0 60.0 91.65 61.4 L90.75 61.65 82.3 63.05 75.05 63.85 69.05 56.75 61.2 46.9 54.1 38.05 Q50.15 33.05 49.3 31.25 L51.35 31.85 51.7 32.05 54.8 33.0 57.05 33.65 69.15 38.55 76.75 42.0 83.15 45.0 89.8 47.95 M113.5 56.0 L113.8 55.65 114.05 56.3 113.25 63.5 112.85 68.35 117.9 64.3 118.9 63.5 119.3 63.1 119.65 62.75 Q119.05 56.45 116.8 44.7 L114.45 31.75 114.15 29.75 109.7 45.45 Q106.85 55.6 105.0 59.85 L106.2 61.25 107.4 62.7 110.1 66.05 111.7 68.45 111.75 66.15 Q112.3 57.7 113.5 56.0 M87.9 51.45 L87.7 50.2 87.6 49.65 87.5 49.1 Q81.85 46.3 70.7 41.95 L58.45 37.0 56.65 36.25 67.55 48.35 Q74.65 56.2 77.3 60.0 L79.1 59.65 81.0 59.45 85.25 58.95 88.1 58.95 86.25 57.6 Q79.4 52.65 78.55 50.7 L78.45 50.3 79.1 50.4 84.75 54.9 88.7 57.85 87.9 51.45 M-32.5 -108.55 L-31.6 -106.7 -31.6 -106.3 -30.2 -103.35 -29.2 -101.25 -24.7 -89.0 -22.2 -81.0 -20.15 -74.25 -17.95 -67.3 -21.0 -62.75 -23.4 -59.65 Q-25.4 -57.6 -26.7 -56.9 L-27.5 -57.45 -34.15 -62.8 Q-35.1 -63.45 -39.65 -67.65 L-38.3 -76.9 -36.25 -89.3 -34.45 -100.5 Q-33.35 -106.8 -32.5 -108.55 M-89.25 -99.4 L-88.9 -99.15 -85.8 -98.2 -83.55 -97.55 Q-75.75 -94.2 -71.5 -92.55 -69.95 -91.95 -63.9 -89.05 L-57.55 -86.0 -50.9 -83.0 -49.6 -77.65 -48.9 -73.8 Q-48.8 -70.9 -49.15 -69.5 L-50.05 -69.25 -58.5 -67.95 -65.8 -67.2 -71.7 -74.35 -79.5 -84.25 -86.55 -93.15 Q-90.45 -98.2 -91.25 -100.0 L-89.25 -99.4 M-82.15 -94.15 L-83.95 -94.95 -73.15 -82.75 Q-66.1 -74.85 -63.5 -71.05 L-61.7 -71.35 -59.8 -71.55 -55.55 -72.0 -52.7 -72.0 -54.55 -73.35 Q-61.35 -78.35 -62.2 -80.3 L-62.3 -80.7 -61.65 -80.6 -56.0 -76.05 -52.1 -73.1 -52.85 -79.5 -53.0 -80.75 -53.1 -81.3 -53.2 -81.85 Q-58.85 -84.7 -69.95 -89.15 L-82.15 -94.15 M-33.8 -67.45 L-32.4 -66.2 -29.15 -63.35 -27.25 -61.25 -27.5 -63.5 Q-28.4 -71.95 -27.55 -73.85 L-27.3 -74.2 -26.95 -73.65 -26.45 -66.4 -26.05 -61.55 -21.8 -66.4 -21.0 -67.35 -20.65 -67.8 -20.35 -68.25 Q-22.0 -74.35 -26.2 -85.55 L-30.75 -97.95 -31.35 -99.8 -33.1 -83.6 Q-34.2 -73.1 -35.25 -68.55 L-33.8 -67.45 M-19.85 -41.9 L-19.95 -42.3 -19.3 -42.2 -13.65 -37.65 -9.75 -34.7 -10.5 -41.1 -10.65 -42.35 -10.75 -42.9 -10.85 -43.45 Q-16.5 -46.3 -27.6 -50.75 L-39.8 -55.75 -41.6 -56.55 -30.8 -44.35 Q-23.75 -36.45 -21.15 -32.65 L-19.35 -32.95 -17.45 -33.15 -13.2 -33.6 -10.35 -33.6 -12.2 -34.95 Q-19.0 -39.95 -19.85 -41.9 M-21.55 -50.65 L-15.2 -47.6 -8.55 -44.6 -7.25 -39.25 -6.55 -35.4 Q-6.45 -32.5 -6.8 -31.1 L-7.7 -30.85 -16.15 -29.55 -23.45 -28.8 -29.35 -35.95 -37.15 -45.85 -44.2 -54.75 Q-48.1 -59.8 -48.9 -61.6 L-46.9 -61.0 -46.55 -60.75 -43.45 -59.8 -41.2 -59.15 -29.15 -54.15 -21.55 -50.65" fill="#412c0d" fill-rule="evenodd" stroke="none"/>
    <path d="M6.85 -28.05 L5.4 -29.15 Q6.35 -33.7 7.15 -44.2 L8.45 -60.5 9.15 -58.55 8.3 -44.85 Q7.6 -32.25 6.85 -28.05 M26.85 7.1 L25.05 7.4 Q22.45 3.6 15.4 -4.3 L4.6 -16.5 6.4 -15.7 15.7 -5.55 Q24.35 3.7 26.85 7.1 M57.9 14.0 L56.8 12.5 Q59.0 8.45 62.75 -1.4 L68.65 -16.6 68.75 -14.65 64.0 -1.65 Q59.8 10.2 57.9 14.0 M86.8 17.9 L87.15 26.7 Q87.55 34.8 87.35 37.55 86.95 37.15 86.35 36.85 86.7 33.9 86.45 27.15 L86.25 16.7 86.8 17.9 M114.45 31.75 L110.9 45.05 Q107.8 57.3 106.2 61.25 L105.0 59.85 Q106.85 55.6 109.7 45.45 L114.15 29.75 114.45 31.75 M79.1 59.65 L77.3 60.0 Q74.65 56.2 67.55 48.35 L56.65 36.25 58.45 37.0 67.85 47.1 Q76.55 56.3 79.1 59.65 M-61.7 -71.35 L-63.5 -71.05 Q-66.1 -74.85 -73.15 -82.75 L-83.95 -94.95 -82.15 -94.15 -72.85 -84.0 Q-64.2 -74.75 -61.7 -71.35 M-30.75 -97.95 L-31.95 -84.25 Q-33.0 -71.6 -33.8 -67.45 L-35.25 -68.55 Q-34.2 -73.1 -33.1 -83.6 L-31.35 -99.8 -30.75 -97.95 M-39.8 -55.75 L-30.5 -45.6 Q-21.85 -36.35 -19.35 -32.95 L-21.15 -32.65 Q-23.75 -36.45 -30.8 -44.35 L-41.6 -56.55 -39.8 -55.75" fill="#8e8b7c" fill-rule="evenodd" stroke="none"/>
    <path d="M9.15 -58.55 L14.0 -46.35 Q18.5 -35.25 20.35 -29.2 L20.05 -28.8 19.7 -28.3 18.95 -27.3 Q17.0 -33.55 12.9 -48.35 L12.7 -48.35 Q13.0 -44.75 12.9 -38.95 L12.95 -34.6 Q12.1 -32.7 13.25 -24.3 L13.6 -22.05 11.6 -24.1 8.35 -26.9 6.85 -28.05 Q7.6 -32.25 8.3 -44.85 L9.15 -58.55 M6.4 -15.7 L18.6 -10.7 Q29.7 -6.25 35.35 -3.4 L35.45 -2.85 35.55 -2.3 35.7 -1.05 16.4 -11.25 16.3 -11.15 23.2 -4.75 26.35 -1.85 Q27.2 0.1 34.0 5.1 L35.85 6.45 33.0 6.45 28.75 6.9 26.85 7.1 Q24.35 3.7 15.7 -5.55 L6.4 -15.7 M68.75 -14.65 L69.9 -1.5 Q71.1 10.45 71.15 16.7 L70.7 17.05 70.25 17.4 69.2 18.1 69.45 -3.75 69.25 -3.8 Q68.5 -0.25 66.75 5.25 L65.6 9.4 Q64.25 11.05 62.95 19.4 L62.65 21.7 61.35 19.15 58.9 15.55 57.9 14.0 Q59.8 10.2 64.0 -1.65 L68.75 -14.65 M95.1 37.15 L89.85 24.15 89.75 24.2 90.45 30.15 90.85 32.9 Q90.4 34.15 91.7 39.45 L92.1 40.9 90.65 39.7 88.35 38.15 87.35 37.55 Q87.55 34.8 87.15 26.7 L86.8 17.9 90.7 25.35 Q94.3 32.15 95.85 35.9 L95.7 36.15 95.55 36.45 95.1 37.15 M117.9 64.3 Q117.25 57.8 116.15 42.5 L115.95 42.5 Q115.5 46.05 114.25 51.75 L113.5 56.0 Q112.3 57.7 111.75 66.15 L111.7 68.45 110.1 66.05 107.4 62.7 106.2 61.25 Q107.8 57.3 110.9 45.05 L114.45 31.75 116.8 44.7 Q119.05 56.45 119.65 62.75 L119.3 63.1 118.9 63.5 117.9 64.3 M58.45 37.0 L70.7 41.95 Q81.85 46.3 87.5 49.1 L87.6 49.65 87.7 50.2 87.9 51.45 68.5 41.4 68.4 41.5 75.35 47.85 78.55 50.7 Q79.4 52.65 86.25 57.6 L88.1 58.95 85.25 58.95 81.0 59.45 79.1 59.65 Q76.55 56.3 67.85 47.1 L58.45 37.0 M-82.15 -94.15 L-69.95 -89.15 Q-58.85 -84.7 -53.2 -81.85 L-53.1 -81.3 -53.0 -80.75 -52.85 -79.5 -72.15 -89.7 -72.25 -89.6 -65.35 -83.2 -62.2 -80.3 Q-61.35 -78.35 -54.55 -73.35 L-52.7 -72.0 -55.55 -72.0 -59.8 -71.55 -61.7 -71.35 Q-64.2 -74.75 -72.85 -84.0 L-82.15 -94.15 M-33.8 -67.45 Q-33.0 -71.6 -31.95 -84.25 L-30.75 -97.95 -26.2 -85.55 Q-22.0 -74.35 -20.35 -68.25 L-20.65 -67.8 -21.0 -67.35 -21.8 -66.4 -27.3 -87.55 -27.4 -87.55 Q-27.3 -83.95 -27.5 -78.15 L-27.55 -73.85 Q-28.4 -71.95 -27.5 -63.5 L-27.25 -61.25 -29.15 -63.35 -32.4 -66.2 -33.8 -67.45 M-10.5 -41.1 L-29.8 -51.3 -29.9 -51.2 -23.0 -44.8 -19.85 -41.9 Q-19.0 -39.95 -12.2 -34.95 L-10.35 -33.6 -13.2 -33.6 -17.45 -33.15 -19.35 -32.95 Q-21.85 -36.35 -30.5 -45.6 L-39.8 -55.75 -27.6 -50.75 Q-16.5 -46.3 -10.85 -43.45 L-10.75 -42.9 -10.65 -42.35 -10.5 -41.1" fill="#495b5f" fill-rule="evenodd" stroke="none"/>
    <path d="M18.95 -27.3 L14.8 -22.35 14.15 -27.25 13.6 -34.45 13.2 -35.0 12.95 -34.6 12.9 -38.95 Q13.0 -44.75 12.7 -48.35 L12.9 -48.35 Q17.0 -33.55 18.95 -27.3 M35.7 -1.05 L36.45 5.35 32.55 2.4 26.9 -2.15 26.25 -2.25 26.35 -1.85 23.2 -4.75 16.3 -11.15 16.4 -11.25 35.7 -1.05 M69.2 18.1 Q67.2 19.6 63.85 21.7 L64.7 16.85 66.15 9.8 65.9 9.1 65.6 9.4 66.75 5.25 Q68.5 -0.25 69.25 -3.8 L69.45 -3.75 69.2 18.1 M90.85 32.9 L90.45 30.15 89.75 24.2 89.85 24.15 95.1 37.15 92.75 40.55 92.1 37.55 91.25 33.0 90.95 32.65 90.85 32.9 M113.5 56.0 L114.25 51.75 Q115.5 46.05 115.95 42.5 L116.15 42.5 Q117.25 57.8 117.9 64.3 L112.85 68.35 113.25 63.5 114.05 56.3 113.8 55.65 113.5 56.0 M87.9 51.45 L88.7 57.85 84.75 54.9 79.1 50.4 78.45 50.3 78.55 50.7 75.35 47.85 68.4 41.5 68.5 41.4 87.9 51.45 M-52.85 -79.5 L-52.1 -73.1 -56.0 -76.05 -61.65 -80.6 -62.3 -80.7 -62.2 -80.3 -65.35 -83.2 -72.25 -89.6 -72.15 -89.7 -52.85 -79.5 M-27.55 -73.85 L-27.5 -78.15 Q-27.3 -83.95 -27.4 -87.55 L-27.3 -87.55 -21.8 -66.4 -26.05 -61.55 -26.45 -66.4 -26.95 -73.65 -27.3 -74.2 -27.55 -73.85 M-19.85 -41.9 L-23.0 -44.8 -29.9 -51.2 -29.8 -51.3 -10.5 -41.1 -9.75 -34.7 -13.65 -37.65 -19.3 -42.2 -19.95 -42.3 -19.85 -41.9" fill="#e8e6eb" fill-rule="evenodd" stroke="none"/>
  </g>
</svg>
