<?xml version="1.0" encoding="UTF-8" standalone="no"?>
<svg xmlns:ffdec="https://www.free-decompiler.com/flash" xmlns:xlink="http://www.w3.org/1999/xlink" ffdec:objectType="shape" height="207.25px" width="210.15px" xmlns="http://www.w3.org/2000/svg">
  <g transform="matrix(1.0, 0.0, 0.0, 1.0, 124.15, 111.75)">
    <path d="M59.15 -111.4 L59.6 -111.75 Q62.45 -109.85 67.2 -104.5 75.85 -94.85 84.2 -82.35 L84.7 -82.75 85.3 -81.7 86.0 -80.55 85.45 -79.75 85.45 -79.55 Q85.45 -78.7 83.25 -76.15 L80.7 -72.4 Q77.2 -67.95 70.75 -61.35 L67.05 -57.7 60.25 -51.1 47.85 -38.8 45.8 -36.8 39.6 -30.6 34.35 -25.55 26.45 -18.0 20.45 -12.4 5.05 1.8 2.85 3.8 1.75 4.8 1.25 5.25 -0.15 6.5 -7.65 13.15 -22.35 26.05 -24.5 27.95 -34.8 37.15 -37.7 39.8 -48.8 50.6 -51.3 53.0 -51.7 53.4 -54.4 56.1 -73.7 74.95 -89.45 89.9 -92.1 92.4 -92.9 93.2 -93.15 93.45 -94.15 94.4 -94.85 94.15 -95.15 94.2 -95.35 94.4 -96.05 94.4 -97.05 94.6 -102.65 95.5 -103.9 95.5 -104.45 95.15 -104.8 94.8 -104.65 94.4 -112.15 94.4 -116.8 93.15 -118.0 93.15 -119.7 92.95 Q-120.45 92.9 -120.45 92.2 L-120.45 91.9 -120.35 91.85 -120.15 91.85 -120.45 91.6 Q-120.6 92.15 -120.6 90.5 L-120.45 89.9 Q-121.45 87.2 -122.55 78.2 L-123.95 65.0 -124.0 61.7 Q-124.0 61.25 -124.15 60.85 L-123.4 59.9 Q-117.55 48.75 -84.35 16.4 L-63.7 -3.35 -63.2 -3.8 -38.05 -26.7 -13.1 -48.7 Q-3.85 -57.0 3.8 -64.5 6.6 -66.05 10.95 -69.4 L23.15 -80.15 34.0 -89.5 42.9 -97.05 59.05 -111.45 59.15 -111.4 M74.3 -86.25 L74.3 -86.4 Q74.3 -86.85 73.65 -87.2 L73.5 -87.2 Q70.6 -90.55 66.4 -95.8 L57.95 -106.55 Q52.35 -100.95 9.45 -63.5 -6.8 -47.15 -37.1 -22.35 L-39.5 -20.35 -68.9 7.15 -78.55 16.1 -84.15 21.95 -116.7 57.05 -121.25 63.1 -120.7 64.9 Q-119.75 68.65 -119.3 73.5 L-117.95 87.2 -117.95 88.5 -116.6 89.1 -111.5 89.55 -97.8 89.65 -95.1 90.05 -94.85 90.05 -94.8 90.0 Q-91.95 85.4 -80.15 74.35 L-81.2 73.85 -81.65 73.7 -66.1 58.6 -57.45 50.3 -56.75 49.65 -37.25 31.2 -25.1 19.95 -16.55 12.15 -14.8 10.55 -10.75 6.95 -9.9 6.2 -7.85 4.15 -3.25 -0.5 1.4 -5.3 13.1 -17.45 15.35 -19.6 21.95 -25.3 22.45 -25.75 26.0 -28.65 30.15 -32.05 30.2 -32.1 31.85 -33.45 32.15 -33.35 34.7 -35.3 Q36.95 -37.15 37.05 -37.8 L39.75 -40.15 41.6 -41.75 44.3 -44.35 44.5 -44.55 56.9 -56.2 64.15 -62.95 69.15 -67.55 71.55 -70.15 71.65 -70.2 71.75 -70.3 72.35 -70.95 72.45 -70.95 72.65 -70.9 73.45 -70.65 72.5 -71.15 73.3 -72.0 73.45 -72.0 Q73.9 -72.0 74.15 -72.4 L74.15 -72.9 76.0 -74.95 76.3 -75.2 76.15 -75.3 77.7 -76.7 78.25 -77.2 79.6 -78.5 78.25 -80.5 76.95 -83.35 74.3 -86.25" fill="#3f2a0d" fill-rule="evenodd" stroke="none"/>
    <path d="M74.3 -86.25 L76.95 -83.35 78.25 -80.5 79.6 -78.5 78.25 -77.2 77.7 -76.7 74.15 -81.8 Q74.05 -83.45 74.3 -86.25 M72.5 -71.15 L73.45 -70.65 72.65 -70.9 72.45 -70.95 72.5 -71.15 M71.75 -70.3 L71.65 -70.2 71.55 -70.15 69.15 -67.55 64.15 -62.95 56.9 -56.2 44.5 -44.55 44.3 -44.35 41.6 -41.75 39.75 -40.15 37.05 -37.8 Q36.95 -37.15 34.7 -35.3 L32.15 -33.35 31.85 -33.45 31.8 -33.45 Q31.65 -33.55 31.65 -33.9 L31.7 -33.95 31.65 -34.15 Q31.65 -35.25 32.25 -38.05 32.6 -39.75 33.05 -40.9 L31.5 -43.35 31.65 -44.85 31.65 -44.9 31.65 -45.05 31.55 -45.1 31.2 -45.5 31.05 -45.3 30.0 -45.7 25.75 -47.2 23.4 -48.0 15.15 -50.5 15.05 -50.1 15.7 -49.75 Q14.85 -47.7 13.85 -42.7 12.8 -37.7 12.8 -36.55 12.8 -35.7 13.25 -35.45 L15.95 -35.15 17.05 -33.3 18.4 -33.45 Q22.7 -33.75 26.25 -33.45 29.55 -33.15 30.45 -32.55 L30.2 -32.1 30.15 -32.05 26.0 -28.65 22.45 -25.75 20.05 -25.3 Q16.75 -25.3 14.6 -29.8 12.5 -34.35 9.45 -34.35 L6.5 -33.5 5.65 -33.15 5.6 -33.15 6.65 -34.1 3.85 -36.4 1.65 -38.4 Q0.85 -38.9 -0.6 -40.85 -2.05 -42.25 -3.95 -41.2 L-11.4 -36.75 Q-16.0 -33.95 -16.0 -33.7 L-11.85 -27.9 -8.85 -23.95 -8.5 -23.3 Q-8.2 -21.45 -6.3 -17.15 L-4.05 -12.2 Q-4.05 -11.6 -4.7 -9.25 L-5.4 -6.3 Q-5.4 -3.55 -3.25 -0.5 L-7.85 4.15 -9.9 6.2 -10.75 6.95 -14.8 10.55 -16.55 12.15 -25.1 19.95 -37.25 31.2 -56.75 49.65 -57.45 50.3 -61.75 47.25 Q-71.8 38.85 -71.8 24.15 -71.8 15.35 -68.9 7.15 L-39.5 -20.35 -37.1 -22.35 Q-6.8 -47.15 9.45 -63.5 52.35 -100.95 57.95 -106.55 L66.4 -95.8 Q70.6 -90.55 73.5 -87.2 L57.75 -88.8 Q57.7 -86.95 56.65 -81.05 L55.6 -75.0 Q55.6 -74.65 56.3 -74.1 L58.0 -74.15 58.95 -72.35 61.65 -72.45 Q65.7 -72.65 68.3 -71.45 70.85 -70.3 71.55 -70.3 L71.75 -70.3 M42.45 -77.75 L40.3 -79.75 Q38.55 -81.2 36.85 -80.05 34.2 -78.3 28.5 -75.25 L27.1 -74.45 25.55 -74.15 25.8 -73.7 24.4 -72.55 Q24.4 -72.0 26.8 -69.5 L29.3 -67.05 32.3 -63.3 35.25 -58.65 40.65 -64.05 47.5 -70.45 46.25 -72.35 47.4 -73.4 45.25 -75.55 43.45 -76.95 43.0 -77.85 42.45 -77.75 M44.35 -50.4 L43.4 -50.65 Q42.75 -50.65 36.65 -47.55 L36.6 -47.05 Q36.6 -46.3 37.55 -45.7 38.35 -45.2 39.05 -45.2 40.65 -45.2 42.1 -46.35 L44.75 -49.3 44.75 -50.2 Q44.6 -50.2 44.35 -50.4 M21.65 -53.35 L22.5 -55.65 Q24.15 -59.9 24.4 -61.05 L24.4 -63.8 Q22.6 -62.2 21.35 -58.8 20.3 -56.0 20.3 -54.55 20.3 -53.9 20.55 -53.45 L20.75 -52.9 Q21.15 -53.05 21.65 -53.35 M-44.3 -7.65 Q-44.95 -7.65 -46.15 -6.75 -47.45 -5.75 -47.45 -4.95 -47.45 -2.8 -43.15 -1.65 L-39.3 -0.95 -39.5 -1.45 -39.65 -2.25 Q-40.25 -4.05 -41.35 -5.8 -42.5 -7.65 -44.3 -7.65 M-22.1 -20.4 L-18.15 -22.7 -20.55 -23.05 Q-22.85 -23.05 -24.9 -22.05 -27.05 -20.95 -28.45 -19.0 L-28.0 -18.55 -27.1 -18.5 Q-25.6 -18.5 -22.1 -20.4 M-12.85 2.45 L-11.15 0.25 Q-9.85 -1.3 -9.85 -1.55 L-9.9 -2.05 Q-13.85 -3.5 -20.9 -6.65 -26.95 -9.1 -31.3 -9.55 -31.5 -6.6 -32.05 -3.4 L-33.25 2.85 Q-33.25 3.75 -32.1 4.2 L-30.9 4.55 -30.2 6.8 -15.95 10.25 Q-14.95 8.15 -12.45 4.3 L-12.2 3.9 -12.85 2.45 M-28.2 14.05 Q-29.7 17.1 -31.2 21.2 -28.3 20.7 -24.85 13.95 L-24.85 11.25 Q-26.35 11.6 -28.2 14.0 L-28.2 14.05 M-45.7 9.3 Q-44.6 7.75 -44.6 7.35 -44.6 6.95 -47.5 5.0 L-50.55 3.05 Q-51.95 1.9 -53.3 2.05 -54.65 2.25 -56.35 3.9 -59.05 6.5 -66.85 13.0 L-65.55 13.9 -65.4 17.8 -54.8 24.3 -48.4 17.1 -44.6 12.4 -45.7 9.3" fill="#bd7e39" fill-rule="evenodd" stroke="none"/>
    <path d="M77.7 -76.7 L76.15 -75.3 76.3 -75.2 76.0 -74.95 74.15 -72.9 74.15 -81.35 74.15 -81.8 77.7 -76.7 M73.3 -72.0 L72.5 -71.15 72.45 -70.95 72.35 -70.95 71.75 -70.3 71.55 -70.3 Q70.85 -70.3 68.3 -71.45 65.7 -72.65 61.65 -72.45 L58.95 -72.35 58.0 -74.15 Q63.15 -74.35 67.35 -73.3 L73.3 -72.0 M31.85 -33.45 L30.2 -32.1 30.45 -32.55 Q29.55 -33.15 26.25 -33.45 22.7 -33.75 18.4 -33.45 L17.05 -33.3 15.95 -35.15 22.45 -34.4 29.9 -33.35 30.85 -33.35 Q31.3 -33.75 31.3 -35.05 L31.1 -39.95 Q31.1 -40.95 31.4 -42.6 L31.5 -43.35 33.05 -40.9 Q32.6 -39.75 32.25 -38.05 31.65 -35.25 31.65 -34.15 L31.7 -33.95 31.65 -33.9 Q31.65 -33.55 31.8 -33.45 L31.85 -33.45 M-57.45 50.3 L-66.1 58.6 -81.65 73.7 -81.2 73.85 -80.15 74.35 Q-91.95 85.4 -94.8 90.0 L-103.05 82.05 Q-112.9 72.2 -120.7 64.9 L-121.25 63.1 -116.7 57.05 -84.15 21.95 -78.55 16.1 -68.9 7.15 Q-71.8 15.35 -71.8 24.15 -71.8 38.85 -61.75 47.25 L-57.45 50.3 M43.45 -76.95 L42.75 -77.55 42.45 -77.75 43.0 -77.85 43.45 -76.95 M27.1 -74.45 L25.8 -73.7 25.55 -74.15 27.1 -74.45 M32.3 -63.3 Q33.7 -61.6 33.85 -61.6 L36.65 -64.2 40.45 -67.7 Q41.55 -68.5 44.45 -70.85 L46.25 -72.35 47.5 -70.45 40.65 -64.05 35.25 -58.65 32.3 -63.3 M5.65 -33.15 L6.8 -31.45 4.75 -29.85 0.7 -26.05 -3.85 -22.2 -6.5 -19.75 -8.5 -23.3 -8.85 -23.95 -8.7 -23.8 -8.5 -23.55 -7.1 -22.15 5.55 -33.1 5.6 -33.15 5.65 -33.15 M-12.85 2.45 L-12.2 3.9 -12.45 4.3 Q-14.95 8.15 -15.95 10.25 L-30.2 6.8 -30.9 4.55 -28.65 4.9 -23.75 5.9 -16.9 6.85 Q-15.3 6.85 -14.15 5.0 L-13.2 2.85 -12.85 2.45 M-45.7 9.3 L-44.6 12.4 -48.4 17.1 -54.8 24.3 -65.4 17.8 -65.55 13.9 Q-55.65 20.8 -54.75 20.8 -54.2 20.8 -52.2 17.8 L-49.9 14.3 -45.7 9.3 M-102.45 47.65 L-104.1 49.05 -110.35 54.2 Q-115.25 58.35 -115.25 59.05 -106.7 67.9 -105.3 67.9 L-98.95 61.35 Q-92.6 54.7 -92.6 54.15 -92.6 53.05 -97.15 48.95 L-98.95 47.7 Q-100.3 46.8 -100.95 46.85 -101.5 46.85 -102.45 47.65 M-79.55 35.0 Q-75.65 32.65 -75.65 31.9 -75.65 31.15 -77.2 27.85 -78.85 24.35 -79.25 25.6 -79.55 26.55 -85.2 28.75 L-90.75 30.8 Q-87.45 36.8 -86.2 38.0 L-84.95 38.0 Q-82.35 36.7 -79.55 35.0 M-74.7 44.2 Q-78.9 43.6 -80.2 43.05 L-82.5 42.55 Q-83.05 42.6 -83.3 43.65 L-84.7 49.8 Q-85.15 52.25 -85.15 55.45 -85.15 56.95 -81.0 57.75 L-68.8 59.15 -67.85 59.15 Q-67.1 58.4 -64.9 54.3 -62.75 50.2 -62.75 49.6 -62.75 48.8 -65.4 46.9 -68.3 44.85 -70.3 44.7 L-74.7 44.2" fill="#915821" fill-rule="evenodd" stroke="none"/>
    <path d="M-94.8 90.0 L-94.85 90.05 -95.1 90.05 -97.8 89.65 -111.5 89.55 -116.6 89.1 -117.95 88.5 -117.95 87.2 -119.3 73.5 Q-119.75 68.65 -120.7 64.9 -112.9 72.2 -103.05 82.05 L-94.8 90.0" fill="#d3853a" fill-rule="evenodd" stroke="none"/>
    <path d="M73.5 -87.2 L73.65 -87.2 Q74.3 -86.85 74.3 -86.4 L74.3 -86.25 Q74.05 -83.45 74.15 -81.8 L74.15 -81.35 74.15 -72.9 74.15 -72.4 Q73.9 -72.0 73.45 -72.0 L73.3 -72.0 67.35 -73.3 Q63.15 -74.35 58.0 -74.15 L56.3 -74.1 Q55.6 -74.65 55.6 -75.0 L56.65 -81.05 Q57.7 -86.95 57.75 -88.8 L73.5 -87.2 M42.45 -77.75 L42.75 -77.55 43.45 -76.95 45.25 -75.55 47.4 -73.4 46.25 -72.35 44.45 -70.85 Q41.55 -68.5 40.45 -67.7 L36.65 -64.2 33.85 -61.6 Q33.7 -61.6 32.3 -63.3 L29.3 -67.05 26.8 -69.5 Q24.4 -72.0 24.4 -72.55 L25.8 -73.7 27.1 -74.45 28.5 -75.25 Q34.2 -78.3 36.85 -80.05 38.55 -81.2 40.3 -79.75 L42.45 -77.75 M15.95 -35.15 L13.25 -35.45 Q12.8 -35.7 12.8 -36.55 12.8 -37.7 13.85 -42.7 14.85 -47.7 15.7 -49.75 L15.05 -50.1 15.15 -50.5 23.4 -48.0 25.75 -47.2 30.0 -45.7 31.05 -45.3 31.2 -45.5 31.55 -45.1 31.65 -45.05 31.65 -44.9 31.65 -44.85 31.5 -43.35 31.4 -42.6 Q31.1 -40.95 31.1 -39.95 L31.3 -35.05 Q31.3 -33.75 30.85 -33.35 L29.9 -33.35 22.45 -34.4 15.95 -35.15 M-8.85 -23.95 L-11.85 -27.9 -16.0 -33.7 Q-16.0 -33.95 -11.4 -36.75 L-3.95 -41.2 Q-2.05 -42.25 -0.6 -40.85 0.85 -38.9 1.65 -38.4 L3.85 -36.4 6.65 -34.1 5.6 -33.15 5.55 -33.1 -7.1 -22.15 -8.5 -23.55 -8.7 -23.8 -8.85 -23.95 M-30.9 4.55 L-32.1 4.2 Q-33.25 3.75 -33.25 2.85 L-32.05 -3.4 Q-31.5 -6.6 -31.3 -9.55 -26.95 -9.1 -20.9 -6.65 -13.85 -3.5 -9.9 -2.05 L-9.85 -1.55 Q-9.85 -1.3 -11.15 0.25 L-12.85 2.45 -13.2 2.85 -14.15 5.0 Q-15.3 6.85 -16.9 6.85 L-23.75 5.9 -28.65 4.9 -30.9 4.55 M-65.55 13.9 L-66.85 13.0 Q-59.05 6.5 -56.35 3.9 -54.65 2.25 -53.3 2.05 -51.95 1.9 -50.55 3.05 L-47.5 5.0 Q-44.6 6.95 -44.6 7.35 -44.6 7.75 -45.7 9.3 L-49.9 14.3 -52.2 17.8 Q-54.2 20.8 -54.75 20.8 -55.65 20.8 -65.55 13.9 M-74.7 44.2 L-70.3 44.7 Q-68.3 44.85 -65.4 46.9 -62.75 48.8 -62.75 49.6 -62.75 50.2 -64.9 54.3 -67.1 58.4 -67.85 59.15 L-68.8 59.15 -81.0 57.75 Q-85.15 56.95 -85.15 55.45 -85.15 52.25 -84.7 49.8 L-83.3 43.65 Q-83.05 42.6 -82.5 42.55 L-80.2 43.05 Q-78.9 43.6 -74.7 44.2 M-79.55 35.0 Q-82.35 36.7 -84.95 38.0 L-86.2 38.0 Q-87.45 36.8 -90.75 30.8 L-85.2 28.75 Q-79.55 26.55 -79.25 25.6 -78.85 24.35 -77.2 27.85 -75.65 31.15 -75.65 31.9 -75.65 32.65 -79.55 35.0 M-102.45 47.65 Q-101.5 46.85 -100.95 46.85 -100.3 46.8 -98.95 47.7 L-97.15 48.95 Q-92.6 53.05 -92.6 54.15 -92.6 54.7 -98.95 61.35 L-105.3 67.9 Q-106.7 67.9 -115.25 59.05 -115.25 58.35 -110.35 54.2 L-104.1 49.05 -102.45 47.65" fill="#412c0d" fill-rule="evenodd" stroke="none"/>
    <path d="M22.45 -25.75 L21.95 -25.3 15.35 -19.6 13.1 -17.45 1.4 -5.3 -3.25 -0.5 Q-5.4 -3.55 -5.4 -6.3 L-4.7 -9.25 Q-4.05 -11.6 -4.05 -12.2 L-6.3 -17.15 Q-8.2 -21.45 -8.5 -23.3 L-6.5 -19.75 -3.85 -22.2 0.7 -26.05 4.75 -29.85 6.8 -31.45 5.65 -33.15 6.5 -33.5 9.45 -34.35 Q12.5 -34.35 14.6 -29.8 16.75 -25.3 20.05 -25.3 L22.45 -25.75 M44.35 -50.4 Q44.6 -50.2 44.75 -50.2 L44.75 -49.3 42.1 -46.35 Q40.65 -45.2 39.05 -45.2 38.35 -45.2 37.55 -45.7 36.6 -46.3 36.6 -47.05 L36.65 -47.55 Q42.75 -50.65 43.4 -50.65 L44.35 -50.4 M21.65 -53.35 Q21.15 -53.05 20.75 -52.9 L20.55 -53.45 Q20.3 -53.9 20.3 -54.55 20.3 -56.0 21.35 -58.8 22.6 -62.2 24.4 -63.8 L24.4 -61.05 Q24.15 -59.9 22.5 -55.65 L21.65 -53.35 M-44.3 -7.65 Q-42.5 -7.65 -41.35 -5.8 -40.25 -4.05 -39.65 -2.25 L-39.5 -1.45 -39.3 -0.95 -43.15 -1.65 Q-47.45 -2.8 -47.45 -4.95 -47.45 -5.75 -46.15 -6.75 -44.95 -7.65 -44.3 -7.65 M-22.1 -20.4 Q-25.6 -18.5 -27.1 -18.5 L-28.0 -18.55 -28.45 -19.0 Q-27.05 -20.95 -24.9 -22.05 -22.85 -23.05 -20.55 -23.05 L-18.15 -22.7 -22.1 -20.4 M-28.2 14.05 L-28.2 14.0 Q-26.35 11.6 -24.85 11.25 L-24.85 13.95 Q-28.3 20.7 -31.2 21.2 -29.7 17.1 -28.2 14.05" fill="#a87032" fill-rule="evenodd" stroke="none"/>
  </g>
</svg>
