<?xml version="1.0" encoding="UTF-8" standalone="no"?>
<svg xmlns:ffdec="https://www.free-decompiler.com/flash" xmlns:xlink="http://www.w3.org/1999/xlink" ffdec:objectType="shape" height="209.05px" width="222.35px" xmlns="http://www.w3.org/2000/svg">
  <g transform="matrix(1.0, 0.0, 0.0, 1.0, 124.15, 113.55)">
    <path d="M59.15 -111.4 L59.6 -111.75 Q62.45 -109.85 67.2 -104.5 75.85 -94.85 84.2 -82.35 L84.7 -82.75 85.3 -81.7 86.0 -80.55 85.45 -79.75 85.45 -79.55 Q85.45 -78.7 83.25 -76.15 L80.7 -72.4 Q77.2 -67.95 70.75 -61.35 L67.05 -57.7 60.25 -51.1 47.85 -38.8 45.8 -36.8 39.6 -30.6 26.45 -18.0 20.45 -12.4 5.05 1.8 -0.15 6.5 -7.65 13.15 -22.35 26.05 -24.5 27.95 -34.8 37.15 -37.7 39.8 -48.8 50.6 -51.3 53.0 -51.7 53.4 -54.4 56.1 -73.7 74.95 -89.45 89.9 -92.1 92.4 -92.9 93.2 -93.15 93.45 -94.15 94.4 -94.85 94.15 -95.15 94.2 -95.35 94.4 -96.05 94.4 -97.05 94.6 -102.65 95.5 -103.9 95.5 -104.45 95.15 -104.8 94.8 -104.65 94.4 -112.15 94.4 -116.8 93.15 -118.0 93.15 -119.7 92.95 Q-120.45 92.9 -120.45 92.2 L-120.45 91.9 -120.35 91.85 -120.15 91.85 -120.45 91.6 Q-120.6 92.15 -120.6 90.5 L-120.45 89.9 Q-121.45 87.2 -122.55 78.2 L-123.95 65.0 -124.0 61.7 Q-124.0 61.25 -124.15 60.85 L-123.4 59.9 Q-117.55 48.75 -84.35 16.4 L-63.7 -3.35 -63.2 -3.8 -38.05 -26.7 -13.1 -48.7 Q-3.85 -57.0 3.8 -64.5 6.6 -66.05 10.95 -69.4 L23.15 -80.15 34.0 -89.5 42.9 -97.05 59.05 -111.45 59.15 -111.4 M77.7 -76.7 L78.25 -77.2 79.6 -78.5 78.25 -80.5 76.95 -83.35 Q73.65 -86.75 66.4 -95.8 L57.95 -106.55 Q52.35 -100.95 9.45 -63.5 -6.8 -47.15 -37.1 -22.35 L-39.5 -20.35 -68.9 7.15 -78.55 16.1 -84.15 21.95 -116.7 57.05 -121.25 63.1 -120.7 64.9 Q-119.75 68.65 -119.3 73.5 L-117.95 87.2 -117.95 88.5 -116.6 89.1 -111.5 89.55 -97.8 89.65 -95.1 90.05 -94.85 90.05 -94.8 90.0 Q-91.95 85.4 -80.15 74.35 L-81.2 73.85 -81.65 73.7 -66.1 58.6 -57.45 50.3 -56.75 49.65 -37.25 31.2 -25.1 19.95 -10.75 6.95 -9.9 6.2 -7.85 4.15 1.4 -5.3 13.1 -17.45 15.35 -19.6 21.95 -25.3 26.0 -28.65 35.75 -36.65 39.75 -40.15 41.6 -41.75 44.3 -44.35 44.5 -44.55 56.9 -56.2 64.15 -62.95 69.15 -67.55 76.0 -74.95 76.3 -75.2 76.15 -75.3 77.7 -76.7" fill="#3f2a0d" fill-rule="evenodd" stroke="none"/>
    <path d="M-68.9 7.15 L-39.5 -20.35 -37.1 -22.35 Q-6.8 -47.15 9.45 -63.5 52.35 -100.95 57.95 -106.55 L66.4 -95.8 Q73.65 -86.75 76.95 -83.35 L78.25 -80.5 79.6 -78.5 78.25 -77.2 77.7 -76.7 74.0 -82.0 56.45 -77.2 Q57.7 -74.5 64.0 -63.2 L64.15 -62.95 56.9 -56.2 54.35 -60.0 Q44.0 -75.55 43.0 -77.85 L25.55 -74.15 Q27.75 -70.5 39.05 -52.6 L44.3 -44.35 41.6 -41.75 39.75 -40.15 35.75 -36.65 27.95 -49.15 27.85 -49.35 15.1 -36.55 21.75 -25.6 21.95 -25.3 15.35 -19.6 13.05 -22.75 4.15 -35.2 -14.8 -34.6 0.5 -7.0 1.4 -5.3 -7.85 4.15 -9.9 6.2 -10.75 6.95 -14.7 -1.65 -31.2 3.3 Q-30.6 6.2 -27.2 14.8 L-25.1 19.95 -37.25 31.2 -39.8 24.85 Q-45.6 10.2 -46.4 7.0 L-65.5 12.15 Q-66.3 21.95 -59.95 40.5 L-56.75 49.65 -57.45 50.3 -61.75 47.25 Q-71.8 38.85 -71.8 24.15 -71.8 15.35 -68.9 7.15" fill="#bd7e39" fill-rule="evenodd" stroke="none"/>
    <path d="M-68.9 7.15 Q-71.8 15.35 -71.8 24.15 -71.8 38.85 -61.75 47.25 L-57.45 50.3 -66.1 58.6 -81.65 73.7 -81.2 73.85 -80.15 74.35 Q-91.95 85.4 -94.8 90.0 L-103.05 82.05 Q-112.9 72.2 -120.7 64.9 L-121.25 63.1 -116.7 57.05 -84.15 21.95 -78.55 16.1 -68.9 7.15 M-56.75 49.65 L-59.95 40.5 Q-66.3 21.95 -65.5 12.15 L-46.4 7.0 Q-45.6 10.2 -39.8 24.85 L-37.25 31.2 -56.75 49.65 M-25.1 19.95 L-27.2 14.8 Q-30.6 6.2 -31.2 3.3 L-14.7 -1.65 -10.75 6.95 -25.1 19.95 M1.4 -5.3 L0.5 -7.0 -14.8 -34.6 4.15 -35.2 13.05 -22.75 15.35 -19.6 13.1 -17.45 1.4 -5.3 M21.95 -25.3 L21.75 -25.6 15.1 -36.55 27.85 -49.35 27.95 -49.15 35.75 -36.65 26.0 -28.65 21.95 -25.3 M44.3 -44.35 L39.05 -52.6 Q27.75 -70.5 25.55 -74.15 L43.0 -77.85 Q44.0 -75.55 54.35 -60.0 L56.9 -56.2 44.5 -44.55 44.3 -44.35 M64.15 -62.95 L64.0 -63.2 Q57.7 -74.5 56.45 -77.2 L74.0 -82.0 77.7 -76.7 76.15 -75.3 76.3 -75.2 76.0 -74.95 69.15 -67.55 64.15 -62.95" fill="#915821" fill-rule="evenodd" stroke="none"/>
    <path d="M-120.7 64.9 Q-112.9 72.2 -103.05 82.05 L-94.8 90.0 -94.85 90.05 -95.1 90.05 -97.8 89.65 -111.5 89.55 -116.6 89.1 -117.95 88.5 -117.95 87.2 -119.3 73.5 Q-119.75 68.65 -120.7 64.9" fill="#d3853a" fill-rule="evenodd" stroke="none"/>
    <path d="M68.65 -76.35 L70.45 -76.05 Q73.05 -79.85 80.1 -87.75 L90.9 -99.95 89.1 -99.15 76.9 -94.15 Q65.8 -89.7 60.15 -86.85 L60.05 -86.3 59.95 -85.75 59.8 -84.5 59.05 -78.1 62.95 -81.05 68.6 -85.6 69.25 -85.7 69.15 -85.3 Q68.3 -83.35 61.5 -78.35 L59.65 -77.0 62.5 -77.0 66.75 -76.55 68.65 -76.35 M95.85 -104.15 L96.2 -104.4 98.2 -105.0 Q97.4 -103.2 93.5 -98.15 L86.45 -89.25 78.65 -79.35 72.75 -72.2 65.45 -72.95 57.0 -74.25 56.1 -74.5 Q55.75 -75.9 55.85 -78.8 L56.55 -82.65 57.85 -88.0 64.5 -91.0 70.85 -94.05 Q76.9 -96.95 78.45 -97.55 82.7 -99.2 90.5 -102.55 L92.75 -103.2 95.85 -104.15 M40.75 -72.45 L42.2 -73.55 Q41.15 -78.1 40.05 -88.6 L38.3 -104.8 37.7 -102.95 33.15 -90.55 Q28.95 -79.35 27.3 -73.25 L27.6 -72.8 27.95 -72.35 28.75 -71.4 33.0 -66.55 33.4 -71.4 33.9 -78.65 34.25 -79.2 34.5 -78.85 Q35.35 -76.95 34.45 -68.5 L34.2 -66.25 36.1 -68.35 39.35 -71.2 40.75 -72.45 M38.55 -111.3 L38.55 -111.7 39.45 -113.55 Q40.3 -111.8 41.4 -105.5 L43.2 -94.3 45.25 -81.9 46.6 -72.65 41.1 -67.8 34.45 -62.45 33.65 -61.9 Q32.35 -62.6 30.35 -64.65 L27.95 -67.75 24.9 -72.3 27.1 -79.25 29.15 -86.0 Q31.05 -92.45 31.65 -94.0 L36.15 -106.25 37.15 -108.35 38.55 -111.3 M53.5 -65.75 L53.85 -66.0 55.85 -66.6 Q55.05 -64.8 51.15 -59.75 L44.1 -50.85 36.3 -40.95 30.4 -33.8 23.1 -34.55 14.65 -35.85 13.75 -36.1 Q13.4 -37.5 13.5 -40.4 L14.2 -44.25 15.5 -49.6 22.15 -52.6 28.5 -55.65 36.1 -59.15 48.15 -64.15 50.4 -64.8 53.5 -65.75 M26.3 -37.95 L28.1 -37.65 Q30.7 -41.45 37.75 -49.35 L48.55 -61.55 46.75 -60.75 34.55 -55.75 Q23.45 -51.3 17.8 -48.45 L17.7 -47.9 17.6 -47.35 17.45 -46.1 16.7 -39.7 20.6 -42.65 26.25 -47.2 26.9 -47.3 26.8 -46.9 Q25.95 -44.95 19.15 -39.95 L17.3 -38.6 20.15 -38.6 24.4 -38.15 26.3 -37.95 M1.55 -66.05 Q2.75 -56.4 3.1 -54.85 3.75 -51.35 4.8 -42.4 L5.9 -33.15 0.35 -28.4 -6.5 -23.2 -7.3 -22.75 Q-8.6 -23.4 -10.6 -25.5 L-12.85 -28.75 -15.8 -33.35 -13.35 -40.25 -11.2 -46.95 -8.5 -54.85 Q-6.65 -59.05 -3.65 -67.0 L-2.6 -69.05 -1.1 -71.95 -1.1 -72.35 -0.1 -74.25 Q0.6 -72.4 1.55 -66.05 M7.3 -25.7 L7.65 -25.95 9.65 -26.55 Q8.85 -24.75 4.95 -19.7 L-2.1 -10.8 -9.9 -0.9 -15.8 6.25 -23.1 5.5 -31.55 4.2 -32.45 3.95 Q-32.8 2.55 -32.7 -0.35 L-32.0 -4.2 -30.7 -9.55 -24.05 -12.55 -17.7 -15.6 -10.1 -19.1 Q-5.85 -20.75 1.95 -24.1 L4.2 -24.75 7.3 -25.7 M0.1 -33.05 L1.55 -34.15 Q0.6 -38.7 -0.2 -49.2 L-1.5 -65.5 -2.2 -63.55 -7.05 -51.35 Q-11.55 -40.25 -13.4 -34.2 L-13.1 -33.8 -12.75 -33.3 -12.0 -32.3 -7.85 -27.35 -7.2 -32.25 -6.65 -39.45 -6.25 -40.0 -6.0 -39.6 Q-5.15 -37.7 -6.3 -29.3 L-6.65 -27.05 -4.65 -29.1 -1.4 -31.9 0.1 -33.05 M-19.9 2.1 L-18.1 2.4 Q-15.5 -1.4 -8.45 -9.3 L2.35 -21.5 0.55 -20.7 -11.65 -15.7 Q-22.75 -11.25 -28.4 -8.4 L-28.5 -7.85 -28.6 -7.3 -28.75 -6.05 -29.5 0.35 -25.6 -2.6 -19.95 -7.15 -19.3 -7.25 -19.4 -6.85 Q-20.25 -4.9 -27.05 0.1 L-28.9 1.45 -26.05 1.45 -21.8 1.9 -19.9 2.1 M-63.75 -24.8 L-63.1 -27.95 -63.2 -28.35 -62.85 -30.4 Q-61.65 -28.9 -58.9 -23.1 L-54.25 -12.75 Q-52.65 -9.6 -49.0 -1.3 L-45.35 7.2 -49.4 13.4 -54.45 20.35 -55.1 21.0 Q-56.5 20.7 -59.0 19.25 L-62.1 16.8 -66.25 13.25 -65.9 5.9 -65.7 -1.05 -65.3 -9.45 Q-64.8 -14.0 -64.2 -22.45 L-63.75 -24.8 M-58.65 4.4 Q-57.3 6.05 -56.0 14.4 L-55.7 16.7 Q-55.25 15.55 -54.4 14.15 L-51.95 10.55 -50.95 9.0 -49.85 7.5 Q-52.05 3.45 -55.8 -6.4 L-61.7 -21.6 -61.8 -19.65 -62.95 -6.5 Q-64.15 5.45 -64.2 11.7 L-63.75 12.05 -63.3 12.4 -62.25 13.1 -56.9 16.7 -57.75 11.85 -59.2 4.8 -58.95 4.1 -58.65 4.4 M-77.8 6.25 Q-77.5 7.45 -77.35 11.55 L-77.05 18.8 Q-76.85 21.05 -76.75 26.85 L-76.75 32.8 Q-79.9 35.15 -80.6 35.5 L-85.3 38.3 -85.8 38.6 Q-86.55 38.05 -87.7 36.55 L-88.95 34.45 -90.5 31.25 -88.5 27.0 -86.65 22.9 -84.45 18.05 -80.55 10.6 -79.7 9.4 -78.55 7.6 -78.6 7.35 -77.8 6.25 M-80.4 32.55 L-79.4 31.85 Q-79.75 28.9 -79.5 22.15 L-79.3 11.7 -79.85 12.9 -83.75 20.35 Q-87.35 27.15 -88.9 30.9 L-88.75 31.15 -88.6 31.45 -88.15 32.15 -85.8 35.55 -85.15 32.55 -84.3 28.0 -84.0 27.65 -83.9 27.9 Q-83.45 29.15 -84.75 34.45 L-85.15 35.9 -83.7 34.7 -81.4 33.15 -80.4 32.55 M-69.8 37.0 L-62.2 33.55 -50.1 28.65 -47.85 28.0 -44.75 27.05 -44.4 26.85 -42.35 26.25 Q-43.2 28.05 -47.15 33.05 L-54.25 41.9 -62.1 51.75 -68.1 58.85 -75.35 58.05 -83.8 56.65 -84.7 56.4 Q-85.05 55.0 -84.95 52.1 L-84.2 48.25 -82.85 42.95 -76.2 40.0 -69.8 37.0 M-71.6 45.7 Q-72.45 47.65 -79.3 52.6 L-81.15 53.95 -78.3 53.95 -74.05 54.45 -72.15 54.65 -70.35 55.0 Q-67.7 51.2 -60.6 43.35 L-49.7 31.25 -51.5 32.0 -63.75 36.95 Q-74.9 41.3 -80.55 44.1 L-80.65 44.65 -80.75 45.2 -80.95 46.45 -81.75 52.85 -77.8 49.9 -72.15 45.4 -71.5 45.3 -71.6 45.7 M-108.05 18.3 L-108.15 17.9 -107.55 15.9 Q-106.45 17.55 -104.35 23.6 L-100.55 34.25 -96.45 46.15 -93.6 54.95 -98.1 60.75 -103.85 67.2 -104.5 67.8 Q-105.85 67.35 -108.25 65.7 L-111.1 63.05 -114.9 59.05 -113.85 51.8 -113.05 44.85 -111.95 36.55 -109.6 23.7 -108.95 21.45 -108.05 18.3 M-107.5 26.75 L-109.85 39.7 Q-112.1 51.45 -112.7 57.75 L-112.35 58.1 -111.95 58.5 -110.95 59.3 -105.9 63.35 -106.3 58.5 -107.1 51.3 -106.85 50.65 -106.55 51.0 Q-105.35 52.7 -104.8 61.15 L-104.75 63.45 -103.15 61.05 -100.45 57.7 -99.25 56.25 -98.05 54.85 Q-99.9 50.6 -102.75 40.45 L-107.2 24.75 -107.5 26.75" fill="#412c0d" fill-rule="evenodd" stroke="none"/>
    <path d="M89.1 -99.15 L90.9 -99.95 80.1 -87.75 Q73.05 -79.85 70.45 -76.05 L68.65 -76.35 Q71.15 -79.75 79.8 -89.0 L89.1 -99.15 M37.7 -102.95 L38.3 -104.8 40.05 -88.6 Q41.15 -78.1 42.2 -73.55 L40.75 -72.45 Q39.95 -76.6 38.9 -89.25 L37.7 -102.95 M46.75 -60.75 L48.55 -61.55 37.75 -49.35 Q30.7 -41.45 28.1 -37.65 L26.3 -37.95 Q28.8 -41.35 37.45 -50.6 L46.75 -60.75 M-2.2 -63.55 L-1.5 -65.5 -0.2 -49.2 Q0.6 -38.7 1.55 -34.15 L0.1 -33.05 Q-0.65 -37.25 -1.35 -49.85 L-2.2 -63.55 M0.55 -20.7 L2.35 -21.5 -8.45 -9.3 Q-15.5 -1.4 -18.1 2.4 L-19.9 2.1 Q-17.4 -1.3 -8.75 -10.55 L0.55 -20.7 M-50.95 9.0 Q-52.85 5.2 -57.05 -6.65 L-61.8 -19.65 -61.7 -21.6 -55.8 -6.4 Q-52.05 3.45 -49.85 7.5 L-50.95 9.0 M-80.4 32.55 Q-80.6 29.8 -80.2 21.7 L-79.85 12.9 -79.3 11.7 -79.5 22.15 Q-79.75 28.9 -79.4 31.85 L-80.4 32.55 M-72.15 54.65 Q-69.6 51.3 -60.9 42.1 L-51.5 32.0 -49.7 31.25 -60.6 43.35 Q-67.7 51.2 -70.35 55.0 L-72.15 54.65 M-99.25 56.25 Q-100.85 52.3 -103.95 40.05 L-107.5 26.75 -107.2 24.75 -102.75 40.45 Q-99.9 50.6 -98.05 54.85 L-99.25 56.25" fill="#8e8b7c" fill-rule="evenodd" stroke="none"/>
    <path d="M89.1 -99.15 L79.8 -89.0 Q71.15 -79.75 68.65 -76.35 L66.75 -76.55 62.5 -77.0 59.65 -77.0 61.5 -78.35 Q68.3 -83.35 69.15 -85.3 L72.3 -88.2 79.2 -94.6 79.1 -94.7 59.8 -84.5 59.95 -85.75 60.05 -86.3 60.15 -86.85 Q65.8 -89.7 76.9 -94.15 L89.1 -99.15 M37.7 -102.95 L38.9 -89.25 Q39.95 -76.6 40.75 -72.45 L39.35 -71.2 36.1 -68.35 34.2 -66.25 34.45 -68.5 Q35.35 -76.95 34.5 -78.85 L34.45 -83.15 Q34.25 -88.95 34.35 -92.55 L34.25 -92.55 28.75 -71.4 27.95 -72.35 27.6 -72.8 27.3 -73.25 Q28.95 -79.35 33.15 -90.55 L37.7 -102.95 M46.75 -60.75 L37.45 -50.6 Q28.8 -41.35 26.3 -37.95 L24.4 -38.15 20.15 -38.6 17.3 -38.6 19.15 -39.95 Q25.95 -44.95 26.8 -46.9 L29.95 -49.8 36.85 -56.2 36.75 -56.3 Q23.2 -49.05 17.45 -46.1 L17.6 -47.35 17.7 -47.9 17.8 -48.45 Q23.45 -51.3 34.55 -55.75 L46.75 -60.75 M-2.2 -63.55 L-1.35 -49.85 Q-0.65 -37.25 0.1 -33.05 L-1.4 -31.9 -4.65 -29.1 -6.65 -27.05 -6.3 -29.3 Q-5.15 -37.7 -6.0 -39.6 L-5.95 -43.95 Q-6.05 -49.75 -5.75 -53.35 L-5.95 -53.35 Q-10.05 -38.55 -12.0 -32.3 L-12.75 -33.3 -13.1 -33.8 -13.4 -34.2 Q-11.55 -40.25 -7.05 -51.35 L-2.2 -63.55 M0.55 -20.7 L-8.75 -10.55 Q-17.4 -1.3 -19.9 2.1 L-21.8 1.9 -26.05 1.45 -28.9 1.45 -27.05 0.1 Q-20.25 -4.9 -19.4 -6.85 L-16.25 -9.75 -9.35 -16.15 -9.45 -16.25 -28.75 -6.05 -28.6 -7.3 -28.5 -7.85 -28.4 -8.4 Q-22.75 -11.25 -11.65 -15.7 L0.55 -20.7 M-58.65 4.4 L-59.8 0.25 Q-61.55 -5.25 -62.3 -8.8 L-62.5 -8.75 -62.25 13.1 -63.3 12.4 -63.75 12.05 -64.2 11.7 Q-64.15 5.45 -62.95 -6.5 L-61.8 -19.65 -57.05 -6.65 Q-52.85 5.2 -50.95 9.0 L-51.95 10.55 -54.4 14.15 Q-55.25 15.55 -55.7 16.7 L-56.0 14.4 Q-57.3 6.05 -58.65 4.4 M-79.85 12.9 L-80.2 21.7 Q-80.6 29.8 -80.4 32.55 L-81.4 33.15 -83.7 34.7 -85.15 35.9 -84.75 34.45 Q-83.45 29.15 -83.9 27.9 L-83.5 25.15 -82.8 19.2 -82.9 19.15 -88.15 32.15 -88.6 31.45 -88.75 31.15 -88.9 30.9 Q-87.35 27.15 -83.75 20.35 L-79.85 12.9 M-71.6 45.7 L-68.4 42.85 -61.45 36.5 -61.55 36.4 -80.95 46.45 -80.75 45.2 -80.65 44.65 -80.55 44.1 Q-74.9 41.3 -63.75 36.95 L-51.5 32.0 -60.9 42.1 Q-69.6 51.3 -72.15 54.65 L-74.05 54.45 -78.3 53.95 -81.15 53.95 -79.3 52.6 Q-72.45 47.65 -71.6 45.7 M-107.5 26.75 L-103.95 40.05 Q-100.85 52.3 -99.25 56.25 L-100.45 57.7 -103.15 61.05 -104.75 63.45 -104.8 61.15 Q-105.35 52.7 -106.55 51.0 L-107.3 46.75 Q-108.55 41.05 -109.0 37.5 L-109.2 37.5 Q-110.3 52.8 -110.95 59.3 L-111.95 58.5 -112.35 58.1 -112.7 57.75 Q-112.1 51.45 -109.85 39.7 L-107.5 26.75" fill="#495b5f" fill-rule="evenodd" stroke="none"/>
    <path d="M69.15 -85.3 L69.25 -85.7 68.6 -85.6 62.95 -81.05 59.05 -78.1 59.8 -84.5 79.1 -94.7 79.2 -94.6 72.3 -88.2 69.15 -85.3 M34.5 -78.85 L34.25 -79.2 33.9 -78.65 33.4 -71.4 33.0 -66.55 28.75 -71.4 34.25 -92.55 34.35 -92.55 Q34.25 -88.95 34.45 -83.15 L34.5 -78.85 M26.8 -46.9 L26.9 -47.3 26.25 -47.2 20.6 -42.65 16.7 -39.7 17.45 -46.1 Q23.2 -49.05 36.75 -56.3 L36.85 -56.2 29.95 -49.8 26.8 -46.9 M-6.0 -39.6 L-6.25 -40.0 -6.65 -39.45 -7.2 -32.25 -7.85 -27.35 -12.0 -32.3 Q-10.05 -38.55 -5.95 -53.35 L-5.75 -53.35 Q-6.05 -49.75 -5.95 -43.95 L-6.0 -39.6 M-19.4 -6.85 L-19.3 -7.25 -19.95 -7.15 -25.6 -2.6 -29.5 0.35 -28.75 -6.05 -9.45 -16.25 -9.35 -16.15 -16.25 -9.75 -19.4 -6.85 M-62.25 13.1 L-62.5 -8.75 -62.3 -8.8 Q-61.55 -5.25 -59.8 0.25 L-58.65 4.4 -58.95 4.1 -59.2 4.8 -57.75 11.85 -56.9 16.7 -62.25 13.1 M-88.15 32.15 L-82.9 19.15 -82.8 19.2 -83.5 25.15 -83.9 27.9 -84.0 27.65 -84.3 28.0 -85.15 32.55 -85.8 35.55 -88.15 32.15 M-80.95 46.45 L-61.55 36.4 -61.45 36.5 -68.4 42.85 -71.6 45.7 -71.5 45.3 -72.15 45.4 -77.8 49.9 -81.75 52.85 -80.95 46.45 M-110.95 59.3 Q-110.3 52.8 -109.2 37.5 L-109.0 37.5 Q-108.55 41.05 -107.3 46.75 L-106.55 51.0 -106.85 50.65 -107.1 51.3 -106.3 58.5 -105.9 63.35 -110.95 59.3" fill="#e8e6eb" fill-rule="evenodd" stroke="none"/>
  </g>
</svg>
