<?xml version="1.0" encoding="UTF-8" standalone="no"?>
<svg xmlns:ffdec="https://www.free-decompiler.com/flash" xmlns:xlink="http://www.w3.org/1999/xlink" ffdec:objectType="shape" height="187.55px" width="188.3px" xmlns="http://www.w3.org/2000/svg">
  <g transform="matrix(1.0, 0.0, 0.0, 1.0, 92.75, 229.6)">
    <path d="M21.7 -229.0 Q20.95 -227.15 19.5 -225.3 16.4 -221.75 16.4 -221.25 16.4 -220.7 16.55 -220.4 L16.85 -220.05 16.8 -219.65 16.9 -218.6 Q17.3 -217.7 18.4 -217.7 18.65 -217.7 20.15 -218.55 21.65 -219.4 25.6 -219.4 31.15 -219.4 36.45 -214.15 40.05 -210.45 41.0 -207.9 42.2 -204.7 42.65 -198.7 42.8 -195.0 44.45 -195.0 L44.75 -195.0 45.15 -195.0 Q50.2 -195.0 53.6 -195.15 54.8 -195.0 58.7 -191.2 59.9 -190.1 60.85 -187.9 L62.15 -184.8 Q64.55 -174.05 64.55 -172.0 L64.1 -169.0 Q64.05 -168.0 64.3 -167.3 L64.25 -166.9 Q64.1 -166.6 64.35 -166.15 64.75 -165.25 65.9 -165.25 L72.6 -164.55 Q76.15 -162.85 79.95 -156.55 81.6 -153.65 81.9 -150.9 L81.85 -145.4 Q81.85 -141.65 80.55 -136.65 79.15 -132.25 79.15 -131.6 L79.2 -131.0 78.5 -130.25 Q77.95 -129.5 77.95 -128.85 77.95 -128.0 78.55 -127.8 L81.9 -127.55 Q83.4 -127.7 84.7 -126.95 L86.7 -125.5 Q88.05 -124.5 89.25 -122.5 90.4 -120.6 90.45 -119.5 L90.65 -112.15 90.7 -111.7 87.75 -112.7 Q80.6 -114.85 72.05 -115.6 62.8 -114.65 54.45 -111.4 L52.8 -110.8 50.75 -115.3 Q48.9 -118.05 45.15 -119.8 35.85 -124.7 25.15 -118.25 21.85 -116.25 19.25 -113.75 L19.45 -115.35 Q19.45 -121.5 16.0 -127.8 10.7 -137.5 0.25 -135.75 -3.95 -136.4 -11.5 -131.05 L-16.35 -127.2 -16.7 -129.85 Q-16.95 -131.75 -17.45 -132.55 -18.35 -136.75 -23.4 -139.95 -29.0 -143.55 -34.5 -141.75 -40.9 -139.65 -49.2 -132.15 -55.95 -126.2 -57.2 -122.65 -58.8 -125.4 -61.15 -127.0 -68.3 -132.25 -78.0 -125.9 -82.65 -122.75 -85.05 -118.55 -86.0 -116.75 -86.55 -114.85 L-87.0 -116.45 Q-88.55 -121.25 -88.55 -126.55 L-88.25 -131.85 Q-88.05 -133.75 -86.8 -135.5 L-85.5 -137.25 Q-85.5 -137.85 -85.9 -138.2 L-85.9 -138.55 Q-85.9 -138.95 -87.65 -142.2 -89.45 -145.8 -89.45 -148.9 L-89.45 -152.3 -87.65 -157.05 -86.05 -159.3 -84.55 -161.2 Q-83.55 -163.25 -80.95 -163.3 -78.7 -163.3 -78.7 -164.8 -78.7 -165.85 -79.15 -166.4 L-79.95 -170.25 -80.7 -175.2 Q-80.7 -177.2 -78.7 -182.3 -77.0 -186.6 -76.2 -187.7 L-73.6 -191.0 Q-71.8 -192.8 -69.35 -194.0 -60.15 -198.9 -56.9 -198.9 L-54.8 -199.2 Q-54.3 -199.55 -54.3 -200.55 -54.3 -201.3 -54.9 -201.65 L-55.4 -202.9 -56.05 -205.2 Q-56.05 -211.1 -50.9 -215.55 L-50.05 -216.2 -48.0 -215.85 -46.3 -216.1 Q-46.3 -215.0 -45.65 -214.0 -44.6 -212.25 -42.35 -212.25 -41.9 -212.25 -35.6 -218.45 L-34.15 -219.75 -32.65 -219.6 Q-31.55 -219.6 -31.05 -220.25 -30.65 -220.7 -30.65 -221.25 -30.65 -221.85 -31.1 -222.3 -27.8 -224.7 -25.45 -224.75 -22.55 -225.95 -17.7 -227.15 -8.0 -229.6 5.95 -229.6 L21.7 -229.0 M2.55 -120.05 Q5.05 -117.9 5.05 -114.95 5.25 -112.85 3.95 -110.9 1.25 -107.1 -6.45 -107.1 -9.15 -107.1 -10.5 -110.35 -11.45 -112.4 -11.45 -114.35 -11.45 -118.55 -8.8 -120.65 -6.6 -122.5 -3.2 -122.2 0.1 -122.05 2.55 -120.05 M62.45 -81.6 Q62.45 -84.0 66.75 -84.4 71.1 -84.8 71.1 -79.45 71.1 -77.05 70.85 -76.75 70.45 -76.25 68.15 -76.25 64.6 -76.25 63.25 -78.75 62.45 -80.05 62.45 -81.6 M69.9 -105.3 Q73.15 -107.0 77.15 -104.7 79.25 -103.55 80.75 -101.1 82.15 -98.8 82.15 -96.95 82.15 -94.3 80.9 -92.3 79.2 -89.85 75.95 -89.85 69.45 -89.85 67.55 -94.65 66.9 -96.45 66.9 -100.55 66.9 -103.8 69.9 -105.3 M25.9 -80.95 Q27.55 -79.2 28.45 -76.25 29.15 -73.8 29.15 -71.7 29.15 -67.1 25.9 -63.2 22.25 -58.65 16.35 -58.65 7.15 -58.65 3.35 -65.8 1.25 -69.7 1.25 -74.0 1.25 -75.4 1.8 -77.7 2.15 -79.15 3.75 -80.3 5.1 -81.15 5.1 -82.0 L4.2 -83.55 Q7.65 -86.95 14.75 -86.2 21.9 -85.4 25.9 -80.95 M41.75 -79.65 Q42.4 -81.0 43.4 -81.2 L48.15 -81.05 Q50.7 -80.35 52.5 -78.35 54.75 -75.7 54.95 -74.75 54.8 -73.3 54.8 -71.7 55.2 -69.85 54.45 -68.15 52.7 -64.65 46.5 -64.65 38.95 -64.65 38.95 -73.45 38.95 -75.5 39.4 -75.95 40.85 -77.4 39.65 -78.65 41.2 -78.55 41.75 -79.65 M-77.95 -105.5 Q-74.7 -106.4 -72.15 -104.4 -69.4 -102.2 -68.5 -99.25 -67.95 -97.5 -67.95 -93.9 -67.95 -91.5 -69.15 -89.5 -71.25 -86.0 -76.45 -86.0 -82.45 -86.0 -84.4 -91.0 -85.15 -93.1 -85.15 -97.05 L-84.4 -99.6 -83.05 -102.35 Q-80.7 -104.7 -77.95 -105.5 M-48.15 -116.25 Q-48.15 -118.55 -47.2 -120.3 -45.7 -123.15 -42.05 -123.45 -36.5 -123.95 -34.35 -120.75 -33.2 -119.15 -33.2 -116.75 -33.2 -110.35 -40.95 -110.35 -48.15 -110.35 -48.15 -116.25 M-36.8 -98.15 Q-33.45 -98.5 -29.15 -96.6 -18.15 -91.65 -18.15 -81.6 -18.15 -69.1 -31.1 -69.1 -34.9 -69.1 -38.9 -73.55 -43.3 -78.25 -43.3 -83.55 L-42.8 -89.3 Q-42.7 -91.2 -41.45 -93.15 L-40.25 -95.35 Q-40.25 -97.85 -36.8 -98.15 M-55.15 -79.85 Q-54.25 -78.2 -54.25 -76.7 -54.25 -75.5 -55.25 -73.6 -56.95 -70.8 -59.85 -70.8 -63.65 -70.8 -65.2 -74.05 -65.95 -75.65 -65.95 -77.65 L-65.9 -79.5 Q-63.55 -79.65 -62.6 -83.3 -62.0 -85.75 -57.55 -82.6 -56.05 -81.5 -55.15 -79.85" fill="#444444" fill-rule="evenodd" stroke="none"/>
    <path d="M21.7 -229.0 L25.1 -228.65 23.6 -224.7 22.45 -222.65 Q26.9 -223.05 32.5 -221.0 L37.45 -217.75 Q40.55 -215.65 41.4 -214.15 44.25 -209.35 45.15 -206.7 46.05 -204.0 46.05 -199.95 L46.15 -198.95 48.85 -198.95 Q54.25 -198.45 59.35 -195.1 61.5 -193.6 62.95 -191.25 L64.7 -187.45 66.45 -180.8 Q67.85 -174.85 67.85 -172.2 L67.55 -168.8 69.1 -168.7 Q73.65 -168.0 76.0 -166.0 81.65 -161.0 82.5 -159.15 84.5 -154.5 84.9 -151.8 L85.05 -145.25 Q85.05 -140.9 84.4 -136.7 83.85 -133.35 83.0 -131.6 L84.2 -130.8 Q87.65 -129.35 89.5 -127.55 90.7 -126.55 92.15 -124.25 93.8 -121.6 94.2 -110.8 L94.2 -109.75 Q95.55 -108.6 95.55 -107.55 95.55 -107.0 94.95 -106.45 94.5 -105.95 93.8 -105.95 93.35 -105.95 90.35 -107.4 L85.95 -109.4 81.65 -110.9 Q77.2 -112.3 73.65 -112.3 68.5 -112.3 61.45 -110.3 L55.45 -108.3 54.15 -107.55 53.95 -107.55 48.65 -108.6 50.1 -109.45 Q46.6 -118.55 37.45 -118.55 28.65 -118.55 22.6 -112.55 18.3 -106.55 17.4 -106.55 16.8 -106.55 16.35 -106.95 15.45 -107.1 15.2 -108.1 L15.1 -109.35 15.6 -111.7 16.05 -115.3 Q16.05 -119.5 13.85 -124.45 10.1 -132.5 2.3 -132.5 -4.7 -132.5 -11.05 -127.4 L-15.1 -123.45 -14.6 -121.85 Q-14.6 -121.3 -15.0 -120.85 -15.45 -120.15 -16.3 -120.15 -18.15 -120.15 -18.95 -123.05 L-20.2 -129.45 Q-22.2 -138.7 -30.3 -138.7 -36.35 -138.7 -42.45 -134.3 -44.4 -132.9 -48.75 -128.7 -49.75 -127.85 -52.8 -123.05 L-55.65 -118.9 -55.65 -118.35 Q-55.65 -117.9 -56.0 -117.4 -56.45 -116.75 -57.35 -116.75 -58.05 -116.75 -60.7 -121.2 -64.3 -125.65 -69.35 -125.65 -77.3 -125.65 -81.6 -116.75 L-84.0 -110.65 Q-85.0 -107.9 -85.5 -107.9 -86.95 -107.9 -87.15 -109.2 L-87.25 -109.5 Q-90.45 -109.6 -91.4 -118.05 -91.9 -122.25 -91.7 -126.65 -91.7 -132.5 -91.15 -134.05 -90.25 -137.15 -89.55 -137.8 -91.05 -139.25 -91.95 -142.9 -92.7 -145.85 -92.75 -148.95 -92.75 -158.5 -85.75 -164.6 L-82.65 -166.65 -83.4 -169.85 Q-83.9 -172.55 -83.95 -175.2 -83.95 -189.75 -69.15 -198.1 -63.8 -201.2 -58.95 -201.9 L-58.8 -201.9 -58.95 -202.4 Q-59.35 -203.8 -59.4 -205.4 -59.4 -214.4 -52.5 -219.15 L-52.1 -218.05 Q-51.35 -216.75 -50.05 -216.2 L-50.9 -215.55 Q-56.05 -211.1 -56.05 -205.2 L-55.4 -202.9 -54.9 -201.65 Q-54.3 -201.3 -54.3 -200.55 -54.3 -199.55 -54.8 -199.2 L-56.9 -198.9 Q-60.15 -198.9 -69.35 -194.0 -71.8 -192.8 -73.6 -191.0 L-76.2 -187.7 Q-77.0 -186.6 -78.7 -182.3 -80.7 -177.2 -80.7 -175.2 L-79.95 -170.25 -79.15 -166.4 Q-78.7 -165.85 -78.7 -164.8 -78.7 -163.3 -80.95 -163.3 -83.55 -163.25 -84.55 -161.2 L-86.05 -159.3 -87.65 -157.05 -89.45 -152.3 -89.45 -148.9 Q-89.45 -145.8 -87.65 -142.2 -85.9 -138.95 -85.9 -138.55 L-85.9 -138.2 Q-85.5 -137.85 -85.5 -137.25 L-86.8 -135.5 Q-88.05 -133.75 -88.25 -131.85 L-88.55 -126.55 Q-88.55 -121.25 -87.0 -116.45 L-86.55 -114.85 Q-86.0 -116.75 -85.05 -118.55 -82.65 -122.75 -78.0 -125.9 -68.3 -132.25 -61.15 -127.0 -58.8 -125.4 -57.2 -122.65 -55.95 -126.2 -49.2 -132.15 -40.9 -139.65 -34.5 -141.75 -29.0 -143.55 -23.4 -139.95 -18.35 -136.75 -17.45 -132.55 -16.95 -131.75 -16.7 -129.85 L-16.35 -127.2 -11.5 -131.05 Q-3.95 -136.4 0.25 -135.75 10.7 -137.5 16.0 -127.8 19.45 -121.5 19.45 -115.35 L19.25 -113.75 Q21.85 -116.25 25.15 -118.25 35.85 -124.7 45.15 -119.8 48.9 -118.05 50.75 -115.3 L52.8 -110.8 54.45 -111.4 Q62.8 -114.65 72.05 -115.6 80.6 -114.85 87.75 -112.7 L90.7 -111.7 90.65 -112.15 90.45 -119.5 Q90.4 -120.6 89.25 -122.5 88.05 -124.5 86.7 -125.5 L84.7 -126.95 Q83.4 -127.7 81.9 -127.55 L78.55 -127.8 Q77.95 -128.0 77.95 -128.85 77.95 -129.5 78.5 -130.25 L79.2 -131.0 79.15 -131.6 Q79.15 -132.25 80.55 -136.65 81.85 -141.65 81.85 -145.4 L81.9 -150.9 Q81.6 -153.65 79.95 -156.55 76.15 -162.85 72.6 -164.55 L65.9 -165.25 Q64.75 -165.25 64.35 -166.15 64.1 -166.6 64.25 -166.9 L64.3 -167.3 Q64.05 -168.0 64.1 -169.0 L64.55 -172.0 Q64.55 -174.05 62.15 -184.8 L60.85 -187.9 Q59.9 -190.1 58.7 -191.2 54.8 -195.0 53.6 -195.15 50.2 -195.0 45.15 -195.0 L44.75 -195.0 44.45 -195.0 Q42.8 -195.0 42.65 -198.7 42.2 -204.7 41.0 -207.9 40.05 -210.45 36.45 -214.15 31.15 -219.4 25.6 -219.4 21.65 -219.4 20.15 -218.55 18.65 -217.7 18.4 -217.7 17.3 -217.7 16.9 -218.6 L16.8 -219.65 16.85 -220.05 16.55 -220.4 Q16.4 -220.7 16.4 -221.25 16.4 -221.75 19.5 -225.3 20.95 -227.15 21.7 -229.0 M-34.15 -219.75 L-31.1 -222.3 Q-30.65 -221.85 -30.65 -221.25 -30.65 -220.7 -31.05 -220.25 -31.55 -219.6 -32.65 -219.6 L-34.15 -219.75 M2.55 -120.05 Q0.1 -122.05 -3.2 -122.2 -6.6 -122.5 -8.8 -120.65 -11.45 -118.55 -11.45 -114.35 -11.45 -112.4 -10.5 -110.35 -9.15 -107.1 -6.45 -107.1 1.25 -107.1 3.95 -110.9 5.25 -112.85 5.05 -114.95 5.05 -117.9 2.55 -120.05 M8.2 -115.0 Q8.2 -111.7 6.55 -108.85 3.6 -103.7 -3.75 -103.7 -10.95 -103.7 -13.55 -108.9 -14.85 -111.55 -14.75 -114.35 -14.75 -118.0 -13.15 -121.5 -11.05 -126.2 -7.3 -126.0 1.85 -125.65 5.7 -121.6 8.2 -119.0 8.2 -115.0 M77.05 -108.55 Q80.95 -107.55 83.4 -103.35 85.4 -99.9 85.4 -97.0 85.4 -94.0 84.1 -91.35 81.65 -86.55 75.8 -86.55 66.95 -86.55 64.45 -93.35 63.2 -96.7 63.65 -100.55 63.65 -106.5 67.95 -108.25 L77.05 -108.55 M69.9 -105.3 Q66.9 -103.8 66.9 -100.55 66.9 -96.45 67.55 -94.65 69.45 -89.85 75.95 -89.85 79.2 -89.85 80.9 -92.3 82.15 -94.3 82.15 -96.95 82.15 -98.8 80.75 -101.1 79.25 -103.55 77.15 -104.7 73.15 -107.0 69.9 -105.3 M62.45 -81.6 Q62.45 -80.05 63.25 -78.75 64.6 -76.25 68.15 -76.25 70.45 -76.25 70.85 -76.75 71.1 -77.05 71.1 -79.45 71.1 -84.8 66.75 -84.4 62.45 -84.0 62.45 -81.6 M74.35 -79.45 Q74.35 -76.55 73.9 -75.6 72.7 -72.85 68.25 -72.85 62.3 -72.85 60.15 -77.2 59.05 -79.4 59.2 -81.5 59.2 -84.4 60.3 -85.75 62.85 -88.9 70.35 -87.05 73.35 -85.6 74.15 -83.25 74.35 -82.45 74.35 -79.45 M49.5 -84.3 L53.55 -81.8 57.7 -76.25 Q58.15 -75.3 58.15 -71.7 58.15 -68.2 57.25 -66.15 55.15 -61.25 48.85 -61.25 39.85 -61.25 36.95 -67.0 35.35 -70.0 35.6 -73.45 35.6 -75.8 35.85 -76.6 36.5 -78.95 38.85 -79.1 37.9 -80.15 38.35 -81.55 38.9 -83.25 41.55 -83.95 46.75 -85.35 49.5 -84.3 M41.75 -79.65 Q41.2 -78.55 39.65 -78.65 40.85 -77.4 39.4 -75.95 38.95 -75.5 38.95 -73.45 38.95 -64.65 46.5 -64.65 52.7 -64.65 54.45 -68.15 55.2 -69.85 54.8 -71.7 54.8 -73.3 54.95 -74.75 54.75 -75.7 52.5 -78.35 50.7 -80.35 48.15 -81.05 L43.4 -81.2 Q42.4 -81.0 41.75 -79.65 M25.9 -80.95 Q21.9 -85.4 14.75 -86.2 7.65 -86.95 4.2 -83.55 L5.1 -82.0 Q5.1 -81.15 3.75 -80.3 2.15 -79.15 1.8 -77.7 1.25 -75.4 1.25 -74.0 1.25 -69.7 3.35 -65.8 7.15 -58.65 16.35 -58.65 22.25 -58.65 25.9 -63.2 29.15 -67.1 29.15 -71.7 29.15 -73.8 28.45 -76.25 27.55 -79.2 25.9 -80.95 M9.6 -88.95 Q23.4 -90.4 29.1 -82.9 32.5 -78.35 32.5 -71.75 32.5 -67.5 30.2 -63.25 26.05 -55.4 16.05 -55.4 5.0 -55.4 0.35 -64.45 -1.85 -69.1 -1.9 -73.85 -1.9 -78.2 0.35 -83.1 3.65 -90.2 9.6 -88.95 M-40.6 -127.15 Q-36.35 -127.1 -33.25 -124.55 -29.95 -121.65 -29.95 -116.8 -29.95 -107.0 -40.8 -107.0 -46.65 -107.0 -49.2 -109.9 -51.35 -112.4 -51.35 -117.65 -51.35 -122.1 -48.05 -124.75 -45.0 -127.15 -40.6 -127.15 M-77.95 -105.5 Q-80.7 -104.7 -83.05 -102.35 L-84.4 -99.6 -85.15 -97.05 Q-85.15 -93.1 -84.4 -91.0 -82.45 -86.0 -76.45 -86.0 -71.25 -86.0 -69.15 -89.5 -67.95 -91.5 -67.95 -93.9 -67.95 -97.5 -68.5 -99.25 -69.4 -102.2 -72.15 -104.4 -74.7 -106.4 -77.95 -105.5 M-77.6 -108.55 Q-69.95 -109.0 -66.7 -102.6 -64.7 -98.75 -64.7 -94.0 -64.7 -90.65 -66.3 -87.8 -69.2 -82.65 -76.45 -82.65 -84.6 -82.65 -87.4 -89.65 -88.85 -93.15 -88.55 -97.05 -88.55 -101.0 -86.5 -104.3 -83.55 -108.85 -77.65 -108.55 L-77.6 -108.55 M-48.15 -116.25 Q-48.15 -110.35 -40.95 -110.35 -33.2 -110.35 -33.2 -116.75 -33.2 -119.15 -34.35 -120.75 -36.5 -123.95 -42.05 -123.45 -45.7 -123.15 -47.2 -120.3 -48.15 -118.55 -48.15 -116.25 M-30.65 -101.2 Q-24.55 -99.4 -19.8 -93.75 -14.85 -87.85 -14.85 -81.6 -14.85 -76.6 -16.9 -72.85 -20.8 -65.7 -30.9 -65.7 -37.9 -65.7 -42.6 -72.45 -46.5 -78.05 -46.5 -83.5 -46.5 -94.85 -41.55 -99.3 -37.35 -103.2 -30.65 -101.2 M-36.8 -98.15 Q-40.25 -97.85 -40.25 -95.35 L-41.45 -93.15 Q-42.7 -91.2 -42.8 -89.3 L-43.3 -83.55 Q-43.3 -78.25 -38.9 -73.55 -34.9 -69.1 -31.1 -69.1 -18.15 -69.1 -18.15 -81.6 -18.15 -91.65 -29.15 -96.6 -33.45 -98.5 -36.8 -98.15 M-7.0 -68.8 L-7.05 -67.95 -6.3 -67.85 Q-3.6 -67.0 -3.6 -64.85 -3.6 -64.25 -4.35 -63.25 -5.25 -62.05 -6.3 -62.05 -7.9 -62.05 -8.65 -63.75 L-9.15 -65.4 -8.95 -66.75 Q-9.75 -66.95 -9.9 -67.7 L-9.9 -68.75 Q-9.9 -70.9 -8.4 -70.8 -7.0 -70.65 -7.0 -68.8 M-55.15 -79.85 Q-56.05 -81.5 -57.55 -82.6 -62.0 -85.75 -62.6 -83.3 -63.55 -79.65 -65.9 -79.5 L-65.95 -77.65 Q-65.95 -75.65 -65.2 -74.05 -63.65 -70.8 -59.85 -70.8 -56.95 -70.8 -55.25 -73.6 -54.25 -75.5 -54.25 -76.7 -54.25 -78.2 -55.15 -79.85 M-51.05 -76.6 Q-51.05 -74.45 -52.6 -71.65 -55.05 -67.35 -59.6 -67.35 -65.85 -67.35 -68.2 -72.55 -69.4 -75.05 -69.35 -77.7 L-69.2 -80.4 Q-68.8 -81.85 -66.95 -82.95 L-65.2 -85.7 Q-63.55 -87.35 -57.75 -86.45 -54.2 -84.5 -52.45 -81.6 -51.05 -79.35 -51.05 -76.6" fill="#2f2f2f" fill-rule="evenodd" stroke="none"/>
    <path d="M45.95 -171.05 Q46.75 -169.7 50.4 -166.2 L53.9 -162.75 Q56.7 -158.75 58.5 -153.5 65.6 -135.3 67.15 -130.25 69.05 -123.8 69.05 -111.15 69.05 -106.75 67.25 -98.6 65.25 -90.15 63.7 -88.05 57.9 -80.25 55.9 -76.15 52.6 -69.25 48.4 -64.3 47.0 -62.45 41.25 -58.35 34.85 -53.7 33.55 -52.5 L33.35 -52.3 Q30.1 -50.5 26.5 -48.65 L22.9 -48.0 Q14.2 -46.7 11.9 -45.5 8.9 -44.15 2.25 -43.2 L-7.05 -42.05 Q-14.9 -42.85 -26.25 -48.1 -34.25 -51.9 -40.35 -55.9 -45.85 -59.35 -50.95 -65.1 -55.05 -69.75 -58.05 -75.0 L-63.3 -84.55 Q-65.2 -91.7 -67.4 -98.25 -69.0 -103.85 -69.0 -112.15 -69.0 -117.95 -65.9 -132.8 -63.2 -145.75 -62.1 -148.65 -57.25 -161.95 -44.5 -172.95 -41.4 -175.75 -36.55 -179.75 L-34.35 -182.3 -21.45 -185.95 Q-4.4 -190.9 3.7 -190.9 7.7 -190.9 15.35 -188.15 L24.4 -184.7 Q27.35 -183.7 32.65 -180.15 L40.45 -174.85 45.95 -171.05 M39.85 -167.45 Q23.45 -184.1 2.25 -184.1 L-4.0 -184.1 -6.45 -183.9 -6.3 -183.8 -6.45 -183.8 -6.85 -183.8 -7.5 -183.8 Q-24.15 -183.3 -40.2 -170.1 -55.0 -157.9 -56.8 -147.4 -57.05 -145.95 -61.25 -130.85 -64.4 -119.65 -64.4 -110.75 -64.4 -99.3 -58.9 -86.25 L-58.2 -84.65 -57.85 -83.65 Q-52.65 -71.85 -49.6 -68.75 -46.7 -65.7 -41.25 -65.1 L-37.9 -64.9 Q-32.25 -64.9 -29.25 -70.1 -28.45 -71.45 -27.8 -73.35 L-26.6 -71.3 -24.6 -67.95 -23.4 -66.15 -19.8 -60.35 -15.35 -54.5 -14.35 -53.1 Q-13.4 -51.2 -12.95 -51.2 L-12.25 -51.4 -13.3 -55.45 -16.2 -63.65 -16.8 -65.95 -17.05 -66.75 -18.45 -70.35 -20.0 -75.4 -21.0 -78.85 -21.35 -79.4 -21.55 -81.95 -19.7 -84.7 Q-17.8 -87.1 -17.8 -89.9 L-18.0 -92.0 -16.15 -93.0 Q-13.55 -94.35 -11.15 -95.15 -11.15 -94.05 -10.5 -92.85 -9.6 -91.25 -8.2 -91.55 L-5.45 -83.05 -3.85 -77.85 -3.05 -75.8 -1.15 -71.0 3.55 -57.85 3.7 -63.1 3.45 -72.9 Q3.45 -77.1 3.6 -79.35 L4.0 -82.4 4.1 -83.9 Q4.2 -84.6 4.6 -84.85 L4.6 -85.25 5.35 -85.15 Q7.45 -85.15 7.55 -88.2 7.6 -89.75 7.25 -92.05 L7.45 -93.2 Q9.8 -91.55 12.0 -89.1 15.6 -85.1 17.35 -80.7 18.9 -76.55 18.9 -72.0 18.9 -68.9 18.05 -63.85 L17.05 -58.0 Q17.05 -55.75 19.05 -54.35 20.6 -53.3 22.45 -53.1 L25.45 -54.5 Q32.35 -57.6 40.65 -65.45 L40.95 -65.65 43.6 -68.15 Q54.4 -78.9 59.95 -89.9 66.3 -102.75 66.3 -117.7 66.3 -130.05 61.1 -139.6 57.9 -145.35 51.65 -152.15 44.75 -162.55 39.85 -167.45 M-51.35 -112.7 L-51.05 -112.8 -51.05 -112.7 -51.35 -112.7 M-1.05 -51.9 L-1.15 -51.85 -1.05 -51.85 -1.05 -51.9" fill="#fd0202" fill-rule="evenodd" stroke="none"/>
    <path d="M39.85 -167.45 Q44.75 -162.55 51.65 -152.15 57.9 -145.35 61.1 -139.6 66.3 -130.05 66.3 -117.7 66.3 -102.75 59.95 -89.9 54.4 -78.9 43.6 -68.15 L40.95 -65.65 40.65 -65.45 Q32.35 -57.6 25.45 -54.5 L22.45 -53.1 Q20.6 -53.3 19.05 -54.35 17.05 -55.75 17.05 -58.0 L18.05 -63.85 Q18.9 -68.9 18.9 -72.0 18.9 -76.55 17.35 -80.7 15.6 -85.1 12.0 -89.1 9.8 -91.55 7.45 -93.2 L7.25 -92.05 Q7.6 -89.75 7.55 -88.2 7.45 -85.15 5.35 -85.15 L4.6 -85.25 4.6 -84.85 Q4.2 -84.6 4.1 -83.9 L4.0 -82.4 3.6 -79.35 Q3.45 -77.1 3.45 -72.9 L3.7 -63.1 3.55 -57.85 -1.15 -71.0 -3.05 -75.8 -3.85 -77.85 -5.45 -83.05 -8.2 -91.55 Q-9.6 -91.25 -10.5 -92.85 -11.15 -94.05 -11.15 -95.15 -13.55 -94.35 -16.15 -93.0 L-18.0 -92.0 -17.8 -89.9 Q-17.8 -87.1 -19.7 -84.7 L-21.55 -81.95 -21.35 -79.4 -21.0 -78.85 -20.0 -75.4 -18.45 -70.35 -17.05 -66.75 -16.8 -65.95 -16.2 -63.65 -13.3 -55.45 -12.25 -51.4 -12.95 -51.2 Q-13.4 -51.2 -14.35 -53.1 L-15.35 -54.5 -19.8 -60.35 -23.4 -66.15 -24.6 -67.95 -26.6 -71.3 -27.8 -73.35 Q-28.45 -71.45 -29.25 -70.1 -32.25 -64.9 -37.9 -64.9 L-41.25 -65.1 Q-46.7 -65.7 -49.6 -68.75 -52.65 -71.85 -57.85 -83.65 L-58.2 -84.65 -58.9 -86.25 Q-64.4 -99.3 -64.4 -110.75 -64.4 -119.65 -61.25 -130.85 -57.05 -145.95 -56.8 -147.4 -55.0 -157.9 -40.2 -170.1 -24.15 -183.3 -7.5 -183.8 L-6.85 -183.8 -6.45 -183.8 -6.3 -183.8 -6.45 -183.9 -4.0 -184.1 2.25 -184.1 Q23.45 -184.1 39.85 -167.45 M-51.05 -112.8 L-52.25 -114.6 Q-53.0 -116.3 -53.0 -118.2 -53.0 -121.1 -49.8 -127.15 -47.0 -132.3 -44.65 -135.15 -39.4 -141.55 -24.3 -140.55 -22.65 -143.6 -18.65 -146.45 -12.55 -150.6 -5.9 -150.6 -0.85 -150.6 0.9 -146.9 2.35 -142.0 3.9 -139.6 5.1 -135.25 8.6 -131.05 14.85 -123.5 24.25 -123.5 35.05 -123.5 39.55 -130.85 42.5 -135.55 42.5 -142.2 42.5 -160.55 24.5 -170.55 10.95 -178.2 -3.9 -178.2 -22.6 -178.2 -32.0 -170.95 -39.95 -165.0 -39.85 -155.8 L-39.85 -155.7 -40.9 -156.75 -42.05 -157.2 Q-43.25 -157.2 -46.35 -153.85 -49.75 -150.1 -52.75 -145.2 -54.45 -142.2 -55.85 -135.5 -57.05 -129.45 -57.05 -124.95 -57.05 -118.55 -55.45 -116.0 -54.4 -114.15 -51.35 -112.7 L-51.05 -112.7 -51.05 -112.8 M-1.05 -51.9 L-1.05 -51.85 -1.15 -51.85 -1.05 -51.9" fill="#ffff00" fill-rule="evenodd" stroke="none"/>
    <path d="M-51.35 -112.7 Q-54.4 -114.15 -55.45 -116.0 -57.05 -118.55 -57.05 -124.95 -57.05 -129.45 -55.85 -135.5 -54.45 -142.2 -52.75 -145.2 -49.75 -150.1 -46.35 -153.85 -43.25 -157.2 -42.05 -157.2 L-40.9 -156.75 -39.85 -155.7 -39.85 -155.8 Q-39.95 -165.0 -32.0 -170.95 -22.6 -178.2 -3.9 -178.2 10.95 -178.2 24.5 -170.55 42.5 -160.55 42.5 -142.2 42.5 -135.55 39.55 -130.85 35.05 -123.5 24.25 -123.5 14.85 -123.5 8.6 -131.05 5.1 -135.25 3.9 -139.6 2.35 -142.0 0.9 -146.9 -0.85 -150.6 -5.9 -150.6 -12.55 -150.6 -18.65 -146.45 -22.65 -143.6 -24.3 -140.55 -39.4 -141.55 -44.65 -135.15 -47.0 -132.3 -49.8 -127.15 -53.0 -121.1 -53.0 -118.2 -53.0 -116.3 -52.25 -114.6 L-51.05 -112.8 -51.35 -112.7" fill="#ffff99" fill-rule="evenodd" stroke="none"/>
  </g>
</svg>
