<?xml version="1.0" encoding="UTF-8" standalone="no"?>
<svg xmlns:ffdec="https://www.free-decompiler.com/flash" xmlns:xlink="http://www.w3.org/1999/xlink" ffdec:objectType="shape" height="193.3px" width="177.45px" xmlns="http://www.w3.org/2000/svg">
  <g transform="matrix(1.0, 0.0, 0.0, 1.0, 93.35, 264.5)">
    <path d="M16.8 -255.25 Q19.2 -255.55 21.85 -253.8 23.95 -252.35 25.25 -250.3 L27.05 -247.0 27.2 -244.6 Q27.2 -241.65 25.25 -238.6 22.45 -234.15 16.9 -234.15 12.15 -234.15 9.5 -237.55 7.3 -240.35 7.3 -244.1 7.3 -247.85 8.9 -250.5 11.2 -254.35 16.8 -255.25 M10.45 -248.1 Q9.9 -247.05 9.9 -244.05 9.9 -241.85 10.85 -240.15 12.5 -236.85 16.8 -236.85 21.15 -236.85 23.25 -240.65 24.35 -242.5 24.6 -244.6 24.6 -247.9 21.35 -250.45 18.4 -252.6 16.35 -252.25 11.6 -250.15 10.45 -248.1 M26.05 -230.35 Q25.75 -229.85 24.9 -229.85 L24.2 -230.0 23.75 -230.3 23.7 -230.5 23.6 -231.3 Q23.6 -232.35 24.85 -232.45 26.15 -232.5 26.15 -231.25 L26.05 -230.35 M25.9 -223.3 L24.8 -222.05 Q23.25 -220.35 23.25 -219.3 L23.6 -216.65 Q23.6 -213.75 24.25 -212.35 25.9 -208.95 31.45 -208.95 37.05 -208.95 39.45 -212.6 40.7 -214.4 40.85 -216.5 40.85 -219.0 38.6 -222.95 35.8 -228.4 31.5 -227.1 L29.15 -226.35 Q27.35 -225.65 26.8 -224.7 L25.9 -223.3 M31.75 -229.85 Q37.1 -231.0 40.8 -224.65 43.4 -219.95 43.4 -216.45 43.4 -213.75 41.4 -210.8 38.15 -206.25 31.5 -206.25 24.1 -206.25 21.85 -211.35 20.7 -213.85 21.0 -216.7 21.0 -221.5 22.3 -223.9 24.65 -228.3 31.75 -229.85 M11.9 -227.95 Q11.0 -227.95 10.5 -228.85 L10.2 -229.55 Q10.2 -230.95 11.8 -230.9 13.3 -230.75 13.3 -229.5 13.3 -227.95 11.9 -227.95 M47.75 -202.85 Q49.9 -204.85 55.45 -205.85 61.45 -205.8 63.85 -202.1 65.25 -200.05 65.25 -197.25 65.25 -194.75 63.8 -192.45 61.3 -188.6 55.5 -188.6 51.1 -188.6 48.4 -191.75 46.05 -194.6 46.05 -198.6 46.05 -201.3 47.75 -202.85 M54.3 -203.05 Q50.15 -200.95 49.5 -201.2 48.65 -200.05 48.65 -198.65 48.65 -196.55 49.7 -194.6 51.5 -191.3 55.5 -191.3 60.3 -191.3 61.95 -194.25 62.8 -195.75 62.6 -197.4 62.6 -198.7 62.15 -199.55 L59.95 -202.3 Q57.9 -204.9 54.3 -203.05 M83.0 -144.65 Q81.25 -142.1 77.95 -142.1 74.55 -142.1 73.65 -144.75 73.25 -146.15 73.5 -147.7 73.5 -151.2 73.9 -152.05 74.55 -153.05 77.75 -154.8 82.4 -157.05 84.1 -147.95 84.1 -146.35 83.0 -144.65 M82.85 -110.9 Q82.85 -108.6 81.6 -106.25 79.55 -102.2 75.05 -102.2 67.5 -102.2 67.5 -109.0 67.5 -110.55 68.2 -112.9 69.15 -116.3 70.85 -116.75 77.45 -118.55 81.2 -115.0 82.65 -113.75 82.85 -113.0 L82.85 -110.9 M64.25 -175.45 Q62.75 -173.2 61.8 -172.85 L60.5 -172.0 Q60.0 -171.65 60.0 -171.05 L60.0 -169.1 Q60.0 -166.7 60.9 -164.45 62.45 -160.45 66.05 -160.45 72.3 -160.45 74.2 -163.7 75.25 -165.25 75.0 -167.0 75.0 -171.95 69.2 -175.2 66.05 -177.0 64.25 -175.45 M42.95 -182.9 Q41.4 -184.3 39.8 -181.85 38.35 -179.2 38.0 -179.2 36.55 -179.2 36.8 -180.8 L37.3 -182.55 37.3 -182.75 36.5 -181.55 35.95 -180.45 Q35.95 -179.0 37.45 -177.2 39.5 -174.85 42.7 -174.85 L43.85 -174.9 Q45.1 -175.0 45.7 -175.5 L45.85 -175.7 Q46.2 -176.15 46.05 -176.7 46.05 -177.5 44.7 -180.05 L42.95 -182.9 M48.35 -175.15 Q52.2 -173.95 52.2 -169.25 52.2 -168.2 50.8 -166.9 49.15 -165.2 46.5 -165.2 43.7 -165.2 42.65 -167.55 42.15 -168.75 42.15 -169.95 L42.35 -172.0 Q37.55 -172.15 34.95 -176.15 33.6 -178.25 33.4 -180.35 33.4 -182.45 35.4 -184.7 36.1 -185.4 39.55 -185.8 43.05 -186.2 44.15 -185.4 45.85 -184.2 47.35 -181.1 48.65 -178.25 48.65 -176.6 L48.35 -175.15 M57.5 -169.2 Q57.5 -173.45 58.6 -175.05 60.8 -178.4 67.95 -178.45 72.85 -177.05 75.5 -173.1 77.6 -170.0 77.6 -166.9 77.6 -164.3 76.25 -162.1 73.75 -157.85 67.5 -157.85 60.9 -157.85 58.6 -163.35 57.35 -166.15 57.5 -169.2 M49.15 -171.05 Q48.55 -171.9 46.85 -172.6 L45.15 -171.15 Q44.8 -170.7 44.8 -169.95 44.8 -169.5 45.15 -168.75 45.65 -167.85 46.35 -167.85 47.85 -167.85 49.6 -169.55 49.6 -170.5 49.15 -171.05 M49.8 -154.15 Q52.2 -155.9 55.45 -156.05 63.65 -156.6 63.65 -148.35 63.65 -145.6 62.8 -143.5 60.9 -139.15 56.1 -139.15 50.5 -139.15 48.3 -144.7 47.2 -147.55 47.2 -150.1 47.2 -152.4 49.8 -154.15 M23.1 -188.6 Q23.1 -187.65 21.65 -186.2 19.75 -184.45 17.1 -184.45 13.75 -184.45 12.85 -187.3 12.45 -188.75 12.65 -189.85 12.65 -192.35 13.3 -193.2 13.4 -193.5 14.55 -193.95 L15.9 -194.55 Q16.55 -195.15 18.4 -195.0 L21.0 -191.8 23.1 -188.6 M16.35 -187.15 Q18.7 -187.15 19.35 -187.6 L20.2 -188.45 Q19.85 -188.9 19.2 -190.4 18.4 -191.75 17.4 -192.2 L16.3 -190.55 15.35 -189.25 Q15.35 -188.65 15.75 -187.9 16.05 -187.15 16.35 -187.15 M3.15 -190.75 Q2.15 -193.25 1.6 -193.7 -1.4 -196.6 -4.05 -194.25 -7.1 -191.55 -7.9 -191.8 L-8.1 -190.05 Q-8.1 -187.45 -7.5 -186.2 -6.25 -183.55 -2.55 -183.55 1.7 -183.55 3.25 -185.4 4.1 -186.4 4.1 -187.65 L3.15 -190.75 M5.15 -183.55 Q2.7 -180.85 -2.65 -180.85 -8.05 -180.85 -9.9 -185.25 -10.7 -187.1 -10.7 -190.1 -10.7 -193.0 -8.0 -195.2 -5.35 -197.25 -1.9 -197.5 6.75 -198.0 6.75 -187.6 6.75 -185.35 5.15 -183.55 M26.15 -140.55 Q28.8 -137.6 28.8 -132.85 28.8 -130.45 27.85 -128.85 25.8 -125.15 19.9 -125.15 14.85 -125.15 12.95 -128.9 11.9 -130.8 11.9 -133.3 11.9 -138.15 14.55 -140.85 16.9 -143.3 20.4 -143.2 23.8 -143.15 26.15 -140.55 M26.3 -132.85 Q26.3 -135.2 25.15 -137.45 23.4 -140.8 19.8 -140.35 L20.05 -140.15 20.15 -139.45 Q20.15 -139.1 19.75 -138.65 19.3 -138.2 18.8 -138.2 L18.2 -138.55 Q18.05 -138.85 17.55 -138.85 16.1 -138.85 15.2 -136.05 L14.5 -133.2 Q14.5 -131.7 15.2 -130.25 16.35 -127.9 18.75 -127.9 24.2 -127.9 25.75 -130.25 26.6 -131.4 26.3 -132.85 M32.1 -128.05 Q32.1 -137.8 37.95 -136.7 40.25 -136.2 41.9 -133.95 43.8 -131.55 43.8 -128.45 43.8 -126.2 43.2 -125.05 41.85 -122.35 37.6 -122.35 34.15 -122.35 32.8 -125.15 32.1 -126.6 32.1 -128.05 M35.2 -126.25 Q35.8 -125.05 36.4 -125.05 40.05 -125.05 41.0 -126.85 41.45 -127.7 41.2 -128.6 41.2 -132.9 37.95 -133.6 34.65 -134.35 34.65 -128.1 34.65 -127.45 35.2 -126.25 M77.95 -144.8 Q79.45 -144.8 80.6 -146.45 L81.5 -148.0 Q81.5 -152.0 78.8 -152.1 76.1 -152.3 76.1 -147.75 76.1 -144.8 77.95 -144.8 M55.1 -141.9 Q59.5 -141.9 60.7 -145.1 61.3 -146.75 61.0 -148.2 61.0 -154.35 55.65 -153.1 50.3 -152.0 50.3 -148.15 50.3 -146.65 51.1 -144.75 52.45 -141.9 55.1 -141.9 M53.35 -124.15 Q53.2 -123.45 53.35 -122.95 53.6 -121.65 54.75 -121.65 57.2 -121.65 58.35 -122.35 59.55 -123.1 59.55 -125.1 59.55 -126.05 58.95 -127.4 58.0 -129.2 56.45 -129.3 L56.45 -128.95 Q56.45 -128.35 54.95 -127.0 53.35 -125.7 53.35 -124.15 M60.3 -130.45 Q62.05 -128.5 62.05 -125.15 62.05 -123.4 61.3 -121.85 59.8 -119.0 56.05 -119.0 51.85 -119.0 50.8 -121.45 50.35 -122.65 50.7 -123.95 50.7 -131.85 56.4 -132.05 58.65 -132.25 60.3 -130.45 M60.4 -106.55 Q60.4 -106.15 60.9 -105.6 61.35 -105.15 61.6 -105.15 62.85 -105.15 63.4 -105.55 L64.0 -106.25 Q63.5 -106.95 62.45 -107.3 L60.55 -107.55 Q60.4 -107.5 60.4 -106.55 M57.85 -106.8 Q57.85 -111.25 62.25 -110.65 66.5 -109.95 66.5 -106.45 66.5 -105.05 65.75 -104.0 64.45 -102.4 61.8 -102.4 59.2 -102.4 58.35 -104.55 57.85 -105.55 57.85 -106.8 M75.6 -115.1 Q73.2 -115.3 71.25 -113.2 70.45 -112.45 70.25 -111.25 L70.2 -109.05 Q70.2 -104.9 73.15 -104.9 78.0 -104.9 79.55 -107.9 80.4 -109.45 80.15 -111.15 80.15 -112.4 79.5 -113.0 77.7 -114.95 75.6 -115.1 M63.05 -94.0 Q59.55 -94.1 59.55 -90.45 59.55 -88.9 59.85 -88.15 60.4 -86.65 62.05 -86.65 63.95 -86.65 65.35 -88.15 66.5 -89.45 66.5 -90.35 66.5 -93.8 63.05 -94.0 M67.4 -86.25 Q65.3 -83.9 62.0 -83.9 58.4 -83.9 57.25 -87.15 56.9 -88.3 56.9 -90.7 56.9 -93.5 57.2 -94.2 58.05 -96.1 61.65 -96.6 66.15 -97.05 68.0 -94.2 69.15 -92.45 69.15 -90.2 69.15 -88.15 67.4 -86.25 M41.9 -92.9 L39.65 -90.75 38.5 -89.25 38.3 -88.15 Q38.3 -87.15 38.9 -86.05 39.65 -84.75 41.0 -84.75 45.0 -84.75 45.9 -86.0 46.35 -86.75 46.05 -87.4 46.05 -91.2 41.9 -92.9 M48.65 -87.35 Q48.65 -85.35 48.05 -84.3 46.75 -82.1 42.7 -82.1 35.65 -82.1 35.65 -88.15 35.65 -91.25 37.75 -93.3 39.55 -95.25 42.2 -95.4 48.65 -95.85 48.65 -87.35 M53.45 -81.9 Q55.5 -81.6 55.5 -78.55 55.5 -77.7 54.95 -77.0 54.3 -76.1 53.2 -76.1 51.65 -76.1 51.35 -77.1 51.2 -77.6 51.3 -78.2 51.3 -82.3 53.45 -81.9 M13.9 -93.3 Q13.6 -92.8 13.6 -92.25 L13.65 -90.9 Q13.75 -90.15 14.3 -90.15 16.05 -90.15 17.1 -90.95 L17.85 -91.85 16.7 -93.35 Q15.45 -94.6 14.85 -94.65 L13.9 -93.3 M11.3 -89.85 Q10.9 -91.1 10.95 -92.25 10.95 -97.95 15.75 -97.15 20.45 -96.25 20.45 -91.8 20.45 -90.45 19.3 -89.2 17.75 -87.45 15.05 -87.45 12.2 -87.45 11.3 -89.85 M5.15 -92.85 Q11.35 -92.75 11.35 -86.05 11.35 -84.25 10.4 -82.8 8.9 -80.4 5.3 -80.4 0.6 -80.4 -0.65 -83.7 -1.25 -85.3 -1.0 -86.8 -1.0 -89.65 0.9 -91.35 2.7 -92.85 5.15 -92.85 M1.5 -86.8 Q1.5 -85.35 1.75 -84.85 2.55 -83.1 5.45 -83.1 7.15 -83.1 8.05 -84.0 8.8 -84.85 8.8 -86.2 8.8 -89.9 5.15 -90.2 1.5 -90.6 1.5 -86.8 M19.8 -72.85 Q19.8 -74.3 21.6 -74.65 23.25 -75.05 23.25 -73.3 23.25 -72.6 22.85 -72.0 22.35 -71.2 21.4 -71.2 20.15 -71.2 19.8 -72.0 19.65 -72.35 19.8 -72.85 M-24.3 -254.5 L-24.4 -251.45 Q-24.4 -247.2 -23.4 -245.45 -20.7 -240.5 -11.15 -240.5 -5.6 -240.5 -3.55 -245.2 -2.55 -247.6 -2.65 -250.05 -2.65 -254.45 -3.8 -256.85 -6.3 -261.85 -13.65 -262.0 -16.85 -262.05 -17.75 -261.25 -18.45 -260.15 -19.3 -259.45 -19.95 -258.85 -21.1 -258.65 -22.0 -258.55 -22.85 -257.65 -23.95 -256.4 -24.3 -254.5 M-25.45 -258.75 Q-23.35 -261.5 -21.7 -262.4 -18.7 -264.15 -12.8 -264.5 -4.25 -263.6 -1.45 -257.95 -0.1 -255.3 -0.1 -250.3 -0.1 -246.6 -1.45 -243.55 -4.15 -237.75 -11.15 -237.75 -22.65 -237.75 -25.9 -244.2 -27.0 -246.2 -27.0 -251.45 L-26.8 -255.1 Q-26.6 -257.25 -25.45 -258.75 M-49.9 -231.5 L-49.6 -230.7 Q-39.05 -235.3 -33.4 -229.4 -29.6 -225.45 -29.6 -220.85 -29.6 -217.45 -31.95 -214.1 -35.5 -209.1 -42.7 -209.1 -57.35 -209.1 -57.35 -221.2 L-56.65 -226.8 Q-55.15 -232.15 -51.2 -232.15 -50.3 -232.15 -49.9 -231.5 M-52.1 -225.55 Q-52.45 -224.95 -53.45 -224.45 -54.45 -224.05 -54.5 -223.65 L-54.65 -221.25 Q-54.65 -217.95 -53.0 -215.65 -50.05 -211.75 -42.7 -211.75 -36.85 -211.75 -34.0 -215.95 -32.2 -218.55 -32.2 -220.9 -32.2 -223.45 -34.2 -226.05 -37.1 -229.8 -42.6 -230.05 -45.6 -229.5 -48.6 -228.0 -51.55 -226.55 -52.1 -225.55 M-60.9 -203.1 Q-57.9 -198.95 -57.9 -196.35 -57.9 -192.8 -59.3 -190.4 -61.8 -185.95 -68.5 -185.95 -75.55 -185.95 -78.1 -191.3 -79.45 -194.0 -79.4 -196.7 -79.4 -200.55 -78.25 -202.55 -76.55 -206.0 -71.25 -207.8 -65.0 -208.85 -60.9 -203.1 M-68.75 -204.95 Q-72.55 -206.05 -75.0 -201.8 -76.75 -198.65 -76.75 -196.85 -76.75 -188.75 -68.4 -188.75 -63.35 -188.75 -61.45 -192.5 -60.5 -194.45 -60.55 -196.35 -60.55 -197.65 -63.25 -200.7 -66.2 -204.25 -68.75 -204.95 M-10.45 -232.65 Q-10.45 -235.45 -8.6 -235.15 -6.8 -234.8 -6.8 -232.4 -6.8 -231.35 -7.4 -230.75 -7.95 -230.2 -8.65 -230.2 -10.0 -230.2 -10.35 -231.35 L-10.45 -232.65 M-20.15 -232.15 Q-20.95 -230.5 -22.65 -230.5 -25.0 -230.5 -26.35 -233.65 L-27.3 -236.7 Q-27.3 -240.35 -23.4 -239.35 -19.5 -238.4 -19.5 -234.55 -19.5 -233.3 -20.15 -232.15 M-23.65 -236.85 L-23.75 -235.35 -23.7 -234.3 Q-23.6 -233.7 -22.8 -233.3 L-22.3 -233.7 Q-22.15 -233.95 -22.15 -234.55 -22.15 -235.15 -22.65 -235.95 -23.2 -236.7 -23.65 -236.85 M-2.65 -216.2 Q-2.65 -212.8 -3.65 -210.2 -5.65 -205.2 -10.95 -205.2 -14.35 -205.2 -16.9 -207.95 -19.3 -210.7 -19.3 -213.55 -19.3 -218.6 -16.7 -221.5 -14.45 -223.95 -10.95 -224.05 -7.65 -224.1 -5.25 -222.05 -2.65 -219.75 -2.65 -216.2 M-5.25 -216.15 Q-5.25 -220.25 -9.15 -220.95 -13.1 -221.6 -13.1 -220.1 L-14.15 -218.55 -14.25 -217.6 Q-14.55 -216.8 -15.95 -217.05 L-16.6 -213.5 Q-16.6 -211.9 -15.1 -210.15 -13.35 -207.9 -10.95 -207.9 -7.3 -207.9 -5.95 -212.05 -5.15 -214.1 -5.25 -216.15 M-1.3 -208.4 Q0.25 -208.4 0.25 -207.25 0.25 -206.7 -0.25 -206.05 -0.7 -205.4 -1.55 -205.4 -3.2 -205.4 -2.9 -206.95 -2.9 -208.4 -1.3 -208.4 M-29.95 -186.45 Q-31.1 -184.35 -33.9 -184.35 -37.45 -184.35 -38.8 -187.2 -39.45 -188.65 -39.4 -189.75 -39.4 -193.4 -34.35 -194.2 -29.3 -195.05 -29.3 -189.15 -29.3 -187.65 -29.95 -186.45 M-36.8 -188.75 Q-35.5 -187.0 -35.05 -187.0 -32.95 -187.0 -32.25 -188.1 -31.95 -188.75 -32.0 -189.25 -32.0 -191.65 -33.7 -191.3 -35.4 -191.05 -36.8 -188.75 M-21.3 -163.0 Q-20.2 -160.9 -20.2 -159.0 -20.2 -156.9 -21.45 -155.45 -23.35 -153.5 -27.3 -153.5 -32.1 -153.5 -33.5 -157.2 -34.1 -158.95 -33.85 -160.7 -33.85 -167.75 -26.05 -166.3 -22.9 -166.05 -21.3 -163.0 M-30.95 -158.0 Q-30.15 -156.25 -27.55 -156.25 -24.55 -156.25 -23.35 -157.55 -22.8 -158.3 -22.8 -159.15 -22.8 -163.7 -27.05 -163.75 -31.25 -163.85 -31.25 -160.35 L-30.95 -158.0 M-72.1 -181.35 Q-73.55 -181.35 -73.55 -182.75 -73.55 -184.15 -72.05 -183.95 -70.6 -183.9 -70.6 -182.75 -70.6 -182.0 -71.15 -181.55 L-72.1 -181.35 M-65.0 -182.75 Q-65.0 -184.15 -63.4 -183.95 -61.8 -183.9 -61.8 -182.75 -61.8 -181.35 -63.5 -181.35 -65.25 -181.35 -65.0 -182.75 M-71.15 -159.25 Q-73.75 -155.45 -80.15 -155.45 -87.4 -155.45 -90.95 -160.2 -93.35 -163.3 -93.35 -166.35 -93.35 -169.95 -90.2 -173.05 -86.6 -176.5 -80.65 -177.55 -75.1 -177.5 -71.95 -171.95 -69.7 -168.0 -69.7 -164.6 -69.7 -161.4 -71.15 -159.25 M-73.2 -161.0 Q-72.25 -162.45 -72.25 -164.45 -72.25 -166.25 -73.9 -169.55 -75.95 -173.4 -78.1 -174.45 -82.05 -176.45 -86.25 -171.95 -89.8 -166.85 -90.7 -166.85 L-91.0 -166.85 Q-90.75 -166.75 -90.75 -166.3 -90.75 -164.15 -88.45 -161.5 -85.5 -158.05 -80.9 -158.05 -75.25 -158.05 -73.2 -161.0 M-60.0 -132.6 Q-63.15 -129.05 -68.5 -129.05 -74.25 -129.05 -76.1 -132.85 -77.0 -134.8 -76.75 -136.75 -76.75 -142.2 -73.8 -144.65 -71.25 -146.75 -67.3 -146.15 -63.55 -145.6 -60.85 -143.1 -57.9 -140.3 -57.9 -136.9 -57.9 -135.15 -60.0 -132.6 M-44.0 -139.45 Q-40.35 -141.5 -36.8 -140.25 -33.15 -137.65 -32.3 -135.55 -32.0 -134.65 -32.0 -131.35 -32.0 -128.1 -32.4 -127.1 -33.55 -123.95 -38.15 -123.95 -43.05 -123.95 -45.7 -126.5 -48.15 -128.9 -48.15 -132.9 -48.15 -137.3 -44.0 -139.45 M-44.15 -128.7 Q-42.35 -126.55 -40.35 -126.55 L-35.6 -126.9 Q-34.5 -127.55 -34.5 -131.35 -34.5 -138.75 -40.0 -138.15 -42.3 -137.85 -43.85 -136.05 -45.6 -134.05 -45.6 -131.35 -45.6 -130.55 -44.15 -128.7 M-67.3 -143.4 Q-74.15 -144.5 -74.15 -136.7 -74.15 -135.15 -73.3 -133.9 -71.95 -131.85 -68.45 -131.85 -64.25 -131.85 -61.95 -134.35 -60.8 -135.7 -60.5 -136.8 -60.5 -139.25 -62.6 -141.15 -64.6 -143.0 -67.3 -143.4 M-77.1 -101.45 Q-84.6 -101.45 -87.75 -105.6 -89.45 -108.0 -89.45 -111.0 -89.45 -114.45 -85.95 -117.35 -82.55 -120.1 -78.2 -120.75 -73.55 -121.55 -70.5 -119.3 -67.0 -116.85 -67.0 -111.15 -67.0 -108.15 -68.85 -105.45 -71.65 -101.45 -77.1 -101.45 M-78.25 -118.25 Q-81.55 -117.5 -84.15 -115.4 -86.85 -113.25 -86.85 -110.95 -86.85 -108.75 -84.85 -106.75 -82.2 -104.1 -77.1 -104.1 -72.85 -104.1 -70.85 -107.3 -69.7 -109.2 -69.7 -111.15 -69.7 -120.05 -78.25 -118.25 M-56.3 -85.45 Q-57.85 -83.55 -61.05 -83.55 -66.35 -83.55 -66.35 -87.35 L-66.45 -89.5 -66.7 -90.9 Q-66.7 -94.85 -61.0 -93.5 -55.25 -92.1 -55.25 -88.05 -55.25 -86.8 -56.3 -85.45 M-58.95 -90.1 Q-60.2 -91.35 -62.5 -91.2 L-62.25 -91.0 -62.15 -90.35 Q-62.15 -89.9 -62.95 -88.95 L-63.85 -87.7 Q-63.85 -87.2 -63.35 -86.8 -62.55 -86.3 -61.1 -86.3 -59.0 -86.3 -58.2 -87.15 -57.9 -87.45 -57.9 -88.0 -57.9 -89.0 -58.95 -90.1" fill="#2f2f2f" fill-rule="evenodd" stroke="none"/>
    <path d="M10.45 -248.1 Q11.6 -250.15 16.35 -252.25 18.4 -252.6 21.35 -250.45 24.6 -247.9 24.6 -244.6 24.35 -242.5 23.25 -240.65 21.15 -236.85 16.8 -236.85 12.5 -236.85 10.85 -240.15 9.9 -241.85 9.9 -244.05 9.9 -247.05 10.45 -248.1 M25.9 -223.3 L26.8 -224.7 Q27.35 -225.65 29.15 -226.35 L31.5 -227.1 Q35.8 -228.4 38.6 -222.95 40.85 -219.0 40.85 -216.5 40.7 -214.4 39.45 -212.6 37.05 -208.95 31.45 -208.95 25.9 -208.95 24.25 -212.35 23.6 -213.75 23.6 -216.65 L23.25 -219.3 Q23.25 -220.35 24.8 -222.05 L25.9 -223.3 M54.3 -203.05 Q57.9 -204.9 59.95 -202.3 L62.15 -199.55 Q62.6 -198.7 62.6 -197.4 62.8 -195.75 61.95 -194.25 60.3 -191.3 55.5 -191.3 51.5 -191.3 49.7 -194.6 48.65 -196.55 48.65 -198.65 48.65 -200.05 49.5 -201.2 50.15 -200.95 54.3 -203.05 M42.95 -182.9 L44.7 -180.05 Q46.05 -177.5 46.05 -176.7 46.2 -176.15 45.85 -175.7 L45.7 -175.5 Q45.1 -175.0 43.85 -174.9 L42.7 -174.85 Q39.5 -174.85 37.45 -177.2 35.95 -179.0 35.95 -180.45 L36.5 -181.55 37.3 -182.75 37.3 -182.55 36.8 -180.8 Q36.55 -179.2 38.0 -179.2 38.35 -179.2 39.8 -181.85 41.4 -184.3 42.95 -182.9 M64.25 -175.45 Q66.05 -177.0 69.2 -175.2 75.0 -171.95 75.0 -167.0 75.25 -165.25 74.2 -163.7 72.3 -160.45 66.05 -160.45 62.45 -160.45 60.9 -164.45 60.0 -166.7 60.0 -169.1 L60.0 -171.05 Q60.0 -171.65 60.5 -172.0 L61.8 -172.85 Q62.75 -173.2 64.25 -175.45 M49.15 -171.05 Q49.6 -170.5 49.6 -169.55 47.85 -167.85 46.35 -167.85 45.65 -167.85 45.15 -168.75 44.8 -169.5 44.8 -169.95 44.8 -170.7 45.15 -171.15 L46.85 -172.6 Q48.55 -171.9 49.15 -171.05 M3.15 -190.75 L4.1 -187.65 Q4.1 -186.4 3.25 -185.4 1.7 -183.55 -2.55 -183.55 -6.25 -183.55 -7.5 -186.2 -8.1 -187.45 -8.1 -190.05 L-7.9 -191.8 Q-7.1 -191.55 -4.05 -194.25 -1.4 -196.6 1.6 -193.7 2.15 -193.25 3.15 -190.75 M16.35 -187.15 Q16.05 -187.15 15.75 -187.9 15.35 -188.65 15.35 -189.25 L16.3 -190.55 17.4 -192.2 Q18.4 -191.75 19.2 -190.4 19.85 -188.9 20.2 -188.45 L19.35 -187.6 Q18.7 -187.15 16.35 -187.15 M26.3 -132.85 Q26.6 -131.4 25.75 -130.25 24.2 -127.9 18.75 -127.9 16.35 -127.9 15.2 -130.25 14.5 -131.7 14.5 -133.2 L15.2 -136.05 Q16.1 -138.85 17.55 -138.85 18.05 -138.85 18.2 -138.55 L18.8 -138.2 Q19.3 -138.2 19.75 -138.65 20.15 -139.1 20.15 -139.45 L20.05 -140.15 19.8 -140.35 Q23.4 -140.8 25.15 -137.45 26.3 -135.2 26.3 -132.85 M53.35 -124.15 Q53.35 -125.7 54.95 -127.0 56.45 -128.35 56.45 -128.95 L56.45 -129.3 Q58.0 -129.2 58.95 -127.4 59.55 -126.05 59.55 -125.1 59.55 -123.1 58.35 -122.35 57.2 -121.65 54.75 -121.65 53.6 -121.65 53.35 -122.95 53.2 -123.45 53.35 -124.15 M55.1 -141.9 Q52.45 -141.9 51.1 -144.75 50.3 -146.65 50.3 -148.15 50.3 -152.0 55.65 -153.1 61.0 -154.35 61.0 -148.2 61.3 -146.75 60.7 -145.1 59.5 -141.9 55.1 -141.9 M77.95 -144.8 Q76.1 -144.8 76.1 -147.75 76.1 -152.3 78.8 -152.1 81.5 -152.0 81.5 -148.0 L80.6 -146.45 Q79.45 -144.8 77.95 -144.8 M35.2 -126.25 Q34.65 -127.45 34.65 -128.1 34.65 -134.35 37.95 -133.6 41.2 -132.9 41.2 -128.6 41.45 -127.7 41.0 -126.85 40.05 -125.05 36.4 -125.05 35.8 -125.05 35.2 -126.25 M60.4 -106.55 Q60.4 -107.5 60.55 -107.55 L62.45 -107.3 Q63.5 -106.95 64.0 -106.25 L63.4 -105.55 Q62.85 -105.15 61.6 -105.15 61.35 -105.15 60.9 -105.6 60.4 -106.15 60.4 -106.55 M63.05 -94.0 Q66.5 -93.8 66.5 -90.35 66.5 -89.45 65.35 -88.15 63.95 -86.65 62.05 -86.65 60.4 -86.65 59.85 -88.15 59.55 -88.9 59.55 -90.45 59.55 -94.1 63.05 -94.0 M75.6 -115.1 Q77.7 -114.95 79.5 -113.0 80.15 -112.4 80.15 -111.15 80.4 -109.45 79.55 -107.9 78.0 -104.9 73.15 -104.9 70.2 -104.9 70.2 -109.05 L70.25 -111.25 Q70.45 -112.45 71.25 -113.2 73.2 -115.3 75.6 -115.1 M41.9 -92.9 Q46.05 -91.2 46.05 -87.4 46.35 -86.75 45.9 -86.0 45.0 -84.75 41.0 -84.75 39.65 -84.75 38.9 -86.05 38.3 -87.15 38.3 -88.15 L38.5 -89.25 39.65 -90.75 41.9 -92.9 M13.9 -93.3 L14.85 -94.65 Q15.45 -94.6 16.7 -93.35 L17.85 -91.85 17.1 -90.95 Q16.05 -90.15 14.3 -90.15 13.75 -90.15 13.65 -90.9 L13.6 -92.25 Q13.6 -92.8 13.9 -93.3 M1.5 -86.8 Q1.5 -90.6 5.15 -90.2 8.8 -89.9 8.8 -86.2 8.8 -84.85 8.05 -84.0 7.15 -83.1 5.45 -83.1 2.55 -83.1 1.75 -84.85 1.5 -85.35 1.5 -86.8 M-24.3 -254.5 Q-23.95 -256.4 -22.85 -257.65 -22.0 -258.55 -21.1 -258.65 -19.95 -258.85 -19.3 -259.45 -18.45 -260.15 -17.75 -261.25 -16.85 -262.05 -13.65 -262.0 -6.3 -261.85 -3.8 -256.85 -2.65 -254.45 -2.65 -250.05 -2.55 -247.6 -3.55 -245.2 -5.6 -240.5 -11.15 -240.5 -20.7 -240.5 -23.4 -245.45 -24.4 -247.2 -24.4 -251.45 L-24.3 -254.5 M-52.1 -225.55 Q-51.55 -226.55 -48.6 -228.0 -45.6 -229.5 -42.6 -230.05 -37.1 -229.8 -34.2 -226.05 -32.2 -223.45 -32.2 -220.9 -32.2 -218.55 -34.0 -215.95 -36.85 -211.75 -42.7 -211.75 -50.05 -211.75 -53.0 -215.65 -54.65 -217.95 -54.65 -221.25 L-54.5 -223.65 Q-54.45 -224.05 -53.45 -224.45 -52.45 -224.95 -52.1 -225.55 M-68.75 -204.95 Q-66.2 -204.25 -63.25 -200.7 -60.55 -197.65 -60.55 -196.35 -60.5 -194.45 -61.45 -192.5 -63.35 -188.75 -68.4 -188.75 -76.75 -188.75 -76.75 -196.85 -76.75 -198.65 -75.0 -201.8 -72.55 -206.05 -68.75 -204.95 M-23.65 -236.85 Q-23.2 -236.7 -22.65 -235.95 -22.15 -235.15 -22.15 -234.55 -22.15 -233.95 -22.3 -233.7 L-22.8 -233.3 Q-23.6 -233.7 -23.7 -234.3 L-23.75 -235.35 -23.65 -236.85 M-5.25 -216.15 Q-5.15 -214.1 -5.95 -212.05 -7.3 -207.9 -10.95 -207.9 -13.35 -207.9 -15.1 -210.15 -16.6 -211.9 -16.6 -213.5 L-15.95 -217.05 Q-14.55 -216.8 -14.25 -217.6 L-14.15 -218.55 -13.1 -220.1 Q-13.1 -221.6 -9.15 -220.95 -5.25 -220.25 -5.25 -216.15 M-36.8 -188.75 Q-35.4 -191.05 -33.7 -191.3 -32.0 -191.65 -32.0 -189.25 -31.95 -188.75 -32.25 -188.1 -32.95 -187.0 -35.05 -187.0 -35.5 -187.0 -36.8 -188.75 M-30.95 -158.0 L-31.25 -160.35 Q-31.25 -163.85 -27.05 -163.75 -22.8 -163.7 -22.8 -159.15 -22.8 -158.3 -23.35 -157.55 -24.55 -156.25 -27.55 -156.25 -30.15 -156.25 -30.95 -158.0 M-73.2 -161.0 Q-75.25 -158.05 -80.9 -158.05 -85.5 -158.05 -88.45 -161.5 -90.75 -164.15 -90.75 -166.3 -90.75 -166.75 -91.0 -166.85 L-90.7 -166.85 Q-89.8 -166.85 -86.25 -171.95 -82.05 -176.45 -78.1 -174.45 -75.95 -173.4 -73.9 -169.55 -72.25 -166.25 -72.25 -164.45 -72.25 -162.45 -73.2 -161.0 M-67.3 -143.4 Q-64.6 -143.0 -62.6 -141.15 -60.5 -139.25 -60.5 -136.8 -60.8 -135.7 -61.95 -134.35 -64.25 -131.85 -68.45 -131.85 -71.95 -131.85 -73.3 -133.9 -74.15 -135.15 -74.15 -136.7 -74.15 -144.5 -67.3 -143.4 M-44.15 -128.7 Q-45.6 -130.55 -45.6 -131.35 -45.6 -134.05 -43.85 -136.05 -42.3 -137.85 -40.0 -138.15 -34.5 -138.75 -34.5 -131.35 -34.5 -127.55 -35.6 -126.9 L-40.35 -126.55 Q-42.35 -126.55 -44.15 -128.7 M-78.25 -118.25 Q-69.7 -120.05 -69.7 -111.15 -69.7 -109.2 -70.85 -107.3 -72.85 -104.1 -77.1 -104.1 -82.2 -104.1 -84.85 -106.75 -86.85 -108.75 -86.85 -110.95 -86.85 -113.25 -84.15 -115.4 -81.55 -117.5 -78.25 -118.25 M-58.95 -90.1 Q-57.9 -89.0 -57.9 -88.0 -57.9 -87.45 -58.2 -87.15 -59.0 -86.3 -61.1 -86.3 -62.55 -86.3 -63.35 -86.8 -63.85 -87.2 -63.85 -87.7 L-62.95 -88.95 Q-62.15 -89.9 -62.15 -90.35 L-62.25 -91.0 -62.5 -91.2 Q-60.2 -91.35 -58.95 -90.1" fill="#444444" fill-rule="evenodd" stroke="none"/>
    <path d="M1.7 -232.35 L-3.3 -233.9 Q-8.45 -235.5 -13.15 -235.5 -17.4 -235.5 -25.05 -233.15 L-32.0 -230.7 Q-35.65 -229.25 -38.9 -226.9 -41.7 -224.9 -43.45 -222.85 -48.2 -216.95 -49.1 -214.7 L-50.65 -210.65 -50.95 -208.25 Q-51.15 -206.8 -52.05 -206.8 -53.05 -206.8 -53.2 -207.5 L-53.2 -208.45 -53.95 -210.25 Q-54.4 -211.35 -54.85 -213.8 L-55.35 -215.4 -56.0 -217.8 -56.1 -220.85 -56.1 -221.45 -56.1 -222.05 Q-56.1 -226.1 -54.85 -229.15 -49.75 -245.1 -22.7 -249.75 L-20.2 -249.75 Q-14.55 -249.75 -8.3 -246.45 -4.85 -244.65 -2.75 -242.8 -0.75 -241.0 1.15 -237.55 2.8 -234.55 2.8 -233.4 2.8 -232.35 1.7 -232.35 M12.95 -200.6 Q9.7 -202.75 5.35 -202.75 1.7 -202.75 -3.45 -199.4 -3.8 -198.55 -4.45 -198.2 L-5.45 -197.15 -5.9 -196.1 Q-5.9 -195.8 -6.05 -195.55 -6.3 -195.15 -6.8 -195.15 -7.1 -195.15 -7.65 -195.75 L-8.1 -196.2 -8.3 -197.4 -8.3 -199.6 Q-8.3 -202.85 -7.95 -203.9 -7.45 -205.6 -4.85 -209.05 -3.05 -211.3 0.5 -213.75 4.8 -216.7 7.7 -216.95 8.6 -216.95 9.65 -217.45 L16.6 -217.75 Q18.15 -217.15 19.25 -217.15 L21.0 -216.45 Q23.85 -215.35 25.3 -212.15 L26.95 -207.2 Q27.4 -205.25 27.4 -202.75 27.4 -200.9 26.75 -198.15 26.15 -195.15 25.45 -194.15 23.85 -191.0 22.5 -189.8 L21.7 -189.05 19.85 -187.65 19.05 -186.85 Q18.15 -186.0 17.65 -185.75 L18.0 -186.55 Q18.8 -188.8 18.8 -190.45 18.8 -192.45 18.15 -194.3 L18.15 -194.35 18.05 -194.55 18.05 -194.65 17.95 -194.9 17.95 -195.0 17.8 -195.1 17.6 -195.7 16.95 -197.1 15.95 -198.3 15.4 -198.4 13.15 -200.5 12.95 -200.6 M21.1 -214.1 L19.85 -214.75 17.8 -215.5 16.45 -215.65 16.15 -215.75 11.95 -215.8 Q6.4 -214.9 3.45 -213.3 0.65 -211.75 -1.55 -209.7 -5.75 -205.65 -6.45 -202.05 L-6.45 -199.2 -2.25 -202.35 0.45 -203.5 1.95 -204.15 5.45 -204.65 Q8.6 -204.65 11.2 -203.6 L14.2 -202.05 Q16.05 -200.75 18.05 -198.3 19.7 -195.95 20.05 -194.55 20.45 -192.25 20.45 -190.7 21.5 -191.35 22.95 -193.7 24.15 -195.55 24.5 -196.7 L25.45 -200.8 25.55 -202.75 25.05 -206.6 24.15 -209.75 23.45 -211.5 22.45 -213.3 21.1 -214.1 M52.6 -227.05 L60.85 -223.05 Q64.6 -220.75 66.7 -218.65 L69.8 -214.1 71.8 -209.4 73.1 -204.8 Q74.15 -201.0 74.15 -195.55 74.15 -191.9 73.75 -189.9 L71.7 -183.65 69.8 -180.55 67.45 -177.7 64.2 -174.3 Q61.7 -172.2 61.1 -172.2 L60.55 -172.25 Q60.15 -171.8 59.75 -171.8 59.25 -171.8 58.95 -172.3 L58.85 -172.8 Q58.85 -173.35 60.35 -177.25 60.35 -177.65 60.85 -178.45 L60.95 -179.55 61.55 -181.6 Q62.35 -185.75 62.35 -190.3 62.35 -200.8 58.9 -208.9 L56.7 -213.45 53.65 -218.0 49.4 -222.65 46.75 -224.85 Q46.1 -225.5 44.95 -225.95 44.3 -226.25 44.3 -226.75 L44.35 -227.15 Q44.35 -228.5 47.8 -228.35 51.2 -228.15 52.6 -227.05 M67.0 -214.9 L66.0 -216.45 64.1 -218.55 Q63.4 -218.8 61.3 -220.4 60.05 -221.15 58.6 -222.25 L55.2 -223.85 Q53.1 -224.4 51.65 -225.2 49.95 -226.1 48.2 -226.35 L50.35 -224.45 52.85 -222.05 53.9 -220.75 54.85 -219.6 Q59.15 -213.1 60.5 -209.85 L62.15 -205.05 62.65 -203.65 63.4 -200.1 63.95 -195.3 64.15 -193.9 64.2 -192.85 64.2 -190.3 Q64.2 -184.6 63.35 -180.95 L62.1 -176.3 61.6 -174.85 Q62.15 -175.45 63.0 -176.05 L65.8 -178.85 Q69.05 -182.6 69.85 -184.45 71.4 -188.4 71.85 -190.3 72.25 -192.3 72.25 -195.55 72.25 -200.25 71.5 -203.5 71.05 -206.0 69.95 -209.0 L68.6 -212.25 67.0 -214.9 M60.05 -152.8 L61.3 -150.35 62.1 -147.9 63.2 -142.65 63.4 -138.1 62.95 -132.6 Q62.4 -130.95 62.35 -129.95 L64.3 -131.15 Q66.6 -133.55 67.0 -134.55 L68.25 -138.1 Q68.75 -139.7 68.75 -141.35 68.75 -144.3 67.0 -149.0 L66.45 -149.95 Q66.0 -150.35 66.0 -150.95 L63.55 -152.8 Q61.85 -154.2 58.75 -154.3 L59.1 -153.9 60.05 -152.8 M57.1 -153.25 L56.45 -154.3 Q55.7 -154.7 55.7 -155.25 55.7 -156.1 56.7 -156.3 L57.1 -156.3 59.25 -156.4 Q62.15 -156.0 64.7 -154.4 L67.25 -152.2 68.6 -150.0 Q69.0 -149.35 70.0 -145.7 L70.6 -143.2 70.65 -141.3 Q70.65 -139.7 70.1 -137.5 L68.75 -133.85 Q68.05 -132.25 66.0 -130.15 L63.35 -128.35 Q61.55 -126.9 60.9 -126.9 60.15 -126.9 60.05 -127.35 L59.95 -127.9 60.05 -128.15 59.95 -128.2 60.75 -131.7 Q61.55 -135.25 61.55 -138.1 L61.45 -141.95 60.45 -146.75 Q60.1 -148.15 58.6 -151.15 L57.1 -153.25 M-1.15 -118.2 L-1.8 -117.45 -3.85 -115.55 Q-6.65 -113.35 -8.85 -113.35 L-11.55 -113.6 Q-13.5 -114.1 -15.2 -114.95 -17.2 -116.0 -19.85 -118.6 L-20.85 -120.2 -21.4 -121.8 -21.9 -123.35 -21.9 -124.9 -21.7 -127.5 -20.5 -131.0 -18.85 -134.0 -17.6 -135.2 Q-17.25 -135.9 -16.6 -136.0 -15.6 -136.15 -15.6 -135.05 L-16.0 -133.45 -16.05 -131.8 Q-16.05 -129.15 -14.55 -126.35 L-13.75 -125.05 -12.55 -123.75 Q-10.35 -122.45 -9.55 -122.1 L-7.05 -121.8 Q-5.05 -121.8 -3.2 -122.95 L-2.0 -123.75 -1.85 -123.9 -1.4 -124.25 Q-0.95 -124.25 -0.6 -123.85 0.45 -123.75 0.2 -122.3 L0.15 -121.4 -0.45 -119.7 -1.15 -118.2 M-53.65 -217.0 L-52.4 -212.3 Q-49.95 -219.6 -42.1 -227.15 -40.45 -228.7 -36.7 -230.75 L-29.9 -233.75 -19.85 -236.85 -13.15 -237.55 Q-7.6 -237.55 0.05 -235.1 -3.05 -242.3 -11.35 -245.7 -19.45 -248.9 -26.85 -247.0 -30.9 -246.05 -37.65 -243.35 -46.95 -239.55 -51.05 -232.5 -54.05 -227.3 -54.05 -221.0 -54.05 -218.55 -53.65 -217.0 M-32.25 -193.85 Q-25.9 -195.35 -25.9 -193.25 L-25.9 -192.95 -25.9 -192.85 -25.95 -192.55 -26.15 -192.45 -27.75 -190.85 -29.95 -188.6 -30.0 -188.6 -31.7 -185.4 -31.85 -185.25 -31.85 -185.2 -31.95 -185.15 -32.2 -184.4 Q-33.2 -179.9 -33.2 -175.65 -33.2 -172.8 -32.75 -170.85 -32.2 -168.35 -30.6 -165.9 -28.35 -162.4 -26.5 -161.1 -24.5 -159.3 -23.05 -158.7 -22.7 -158.5 -20.65 -157.85 -20.0 -157.55 -20.0 -156.85 -20.0 -155.85 -21.15 -155.85 L-21.3 -155.85 Q-21.85 -155.3 -23.0 -154.85 -25.7 -153.8 -29.8 -153.8 -34.85 -153.8 -38.9 -156.4 -42.45 -158.65 -44.55 -162.5 -45.7 -164.5 -46.5 -167.35 -47.15 -170.2 -47.15 -172.4 L-46.7 -176.15 -46.1 -178.85 Q-45.3 -181.95 -44.3 -183.95 L-43.85 -184.95 Q-41.5 -188.8 -38.25 -191.1 -35.4 -193.05 -33.35 -193.55 L-33.15 -193.55 -32.25 -193.85 M-34.25 -184.95 Q-33.3 -188.45 -30.8 -191.25 L-29.95 -192.15 Q-37.6 -191.3 -41.8 -184.4 -45.1 -178.7 -45.1 -172.3 -45.1 -167.85 -42.7 -163.4 -38.8 -156.0 -29.9 -156.0 -26.35 -156.0 -24.25 -156.8 -26.25 -157.95 -28.85 -160.45 -31.85 -163.7 -32.75 -165.5 -34.45 -169.0 -34.85 -170.85 -35.25 -172.4 -35.25 -175.65 -35.25 -180.95 -34.25 -184.95 M-59.9 -173.6 L-61.65 -173.7 -64.6 -173.3 Q-66.3 -172.9 -67.55 -171.85 -70.5 -169.55 -71.45 -168.55 L-73.5 -165.15 Q-74.3 -163.15 -74.3 -161.6 -74.3 -160.15 -73.25 -157.3 -72.25 -154.3 -71.2 -153.65 -71.15 -153.9 -71.45 -155.2 L-71.45 -156.65 Q-71.45 -161.55 -69.4 -165.6 -66.45 -171.3 -59.95 -173.45 L-59.9 -173.6 M-55.35 -173.9 Q-55.35 -173.2 -56.1 -172.8 L-56.7 -172.6 -57.7 -172.4 -58.05 -171.85 -59.1 -171.45 -60.15 -171.2 Q-61.05 -171.0 -61.75 -170.45 -65.4 -168.65 -67.1 -165.9 -69.55 -161.15 -69.55 -156.7 -69.55 -154.6 -69.05 -153.1 L-68.6 -151.25 Q-68.6 -150.15 -69.6 -150.15 -70.5 -150.15 -71.7 -151.2 L-73.4 -153.05 -74.85 -156.0 Q-76.25 -160.45 -76.25 -161.75 -76.25 -163.35 -75.2 -165.75 -74.25 -168.05 -73.1 -169.4 L-68.95 -173.2 -66.3 -175.05 -61.55 -175.75 -61.3 -175.75 -59.55 -175.65 Q-55.35 -175.45 -55.35 -173.9 M-2.1 -121.3 L-2.6 -121.05 Q-4.8 -119.8 -7.05 -119.8 -13.15 -119.8 -16.15 -125.35 -17.55 -127.8 -17.75 -128.85 L-17.85 -131.85 -17.85 -131.95 -18.95 -129.75 -19.85 -126.95 -20.1 -124.7 Q-20.1 -123.7 -19.4 -121.9 -18.8 -120.25 -18.15 -119.6 -17.55 -118.9 -16.15 -117.85 L-14.6 -116.95 Q-13.75 -116.2 -12.55 -115.95 L-10.75 -115.55 -9.15 -115.35 Q-6.9 -115.35 -4.7 -117.2 -3.2 -118.45 -2.75 -119.4 L-2.6 -119.6 Q-2.25 -120.1 -1.85 -121.45 L-2.1 -121.3 M-6.85 -95.8 Q-5.25 -95.8 -5.25 -94.6 -5.25 -93.55 -6.0 -93.2 L-6.4 -93.2 Q-7.25 -93.2 -7.85 -93.75 L-8.05 -94.8 -7.85 -95.75 -6.85 -95.8 M-1.95 -88.3 Q-3.15 -86.6 -5.5 -86.6 -9.25 -86.6 -10.1 -90.35 L-10.5 -91.95 Q-9.05 -90.1 -6.4 -90.1 -1.85 -90.1 -1.85 -94.15 -1.2 -93.75 -1.2 -91.1 -1.2 -89.5 -1.95 -88.3 M-3.85 -81.95 Q-3.85 -81.55 -4.25 -81.15 L-4.85 -80.75 Q-5.85 -80.75 -5.75 -81.95 -5.75 -82.85 -4.8 -82.85 -3.85 -82.85 -3.85 -81.95 M-1.4 -77.5 L-1.85 -78.1 -1.6 -78.15 Q-1.4 -78.2 -1.4 -78.6 L-0.95 -77.95 -1.0 -77.7 -1.4 -77.5 M-3.4 -77.35 Q-3.4 -76.7 -4.05 -76.7 L-4.7 -76.8 -4.8 -77.1 Q-4.8 -78.15 -4.05 -78.15 -3.4 -78.15 -3.4 -77.35" fill="#fd0202" fill-rule="evenodd" stroke="none"/>
    <path d="M21.7 -189.05 Q20.6 -188.0 19.05 -186.85 L19.85 -187.65 21.7 -189.05 M18.05 -194.55 L17.95 -194.9 18.05 -194.65 18.05 -194.55 M15.4 -198.4 L15.25 -198.4 12.95 -200.6 13.15 -200.5 15.4 -198.4 M25.45 -200.8 L24.5 -196.7 Q24.15 -195.55 22.95 -193.7 21.5 -191.35 20.45 -190.7 20.45 -192.25 20.05 -194.55 19.7 -195.95 18.05 -198.3 16.05 -200.75 14.2 -202.05 L11.2 -203.6 Q8.6 -204.65 5.45 -204.65 L1.95 -204.15 0.45 -203.5 -2.25 -202.35 -6.45 -199.2 -6.45 -202.05 Q-5.75 -205.65 -1.55 -209.7 0.65 -211.75 3.45 -213.3 6.4 -214.9 11.95 -215.8 L16.15 -215.75 16.45 -215.65 17.8 -215.5 19.85 -214.75 21.1 -214.1 Q25.45 -210.35 25.45 -201.55 L25.45 -200.8 M69.95 -209.0 Q71.05 -206.0 71.5 -203.5 72.25 -200.25 72.25 -195.55 72.25 -192.3 71.85 -190.3 71.4 -188.4 69.85 -184.45 69.05 -182.6 65.8 -178.85 L63.0 -176.05 Q62.15 -175.45 61.6 -174.85 L62.1 -176.3 63.35 -180.95 Q64.2 -184.6 64.2 -190.3 L64.2 -192.85 64.15 -193.9 63.95 -195.3 63.4 -200.1 62.65 -203.65 62.15 -205.05 60.5 -209.85 Q59.15 -213.1 54.85 -219.6 L53.9 -220.75 52.85 -222.05 50.35 -224.45 48.2 -226.35 Q49.95 -226.1 51.65 -225.2 53.1 -224.4 55.2 -223.85 L58.6 -222.25 Q60.05 -221.15 61.3 -220.4 63.4 -218.8 64.1 -218.55 L66.0 -216.45 67.0 -214.9 68.15 -212.7 69.95 -209.0 M53.65 -222.6 L53.8 -222.45 53.8 -222.6 53.65 -222.6 M49.4 -208.85 L49.2 -209.45 Q49.2 -210.75 50.55 -210.65 51.65 -210.55 51.65 -209.4 L51.4 -208.65 Q51.0 -208.1 50.4 -208.1 49.75 -208.1 49.4 -208.85 M56.4 -198.55 L55.7 -198.6 55.25 -199.0 55.1 -199.85 Q55.1 -201.15 56.4 -201.05 57.65 -201.0 57.65 -199.85 L57.3 -199.1 Q56.9 -198.55 56.4 -198.55 M53.5 -161.1 Q52.45 -161.1 52.2 -161.95 L52.05 -162.5 Q52.05 -164.0 53.5 -163.75 54.85 -163.55 54.85 -162.3 54.85 -161.1 53.5 -161.1 M60.05 -152.8 L59.1 -153.9 58.75 -154.3 Q61.85 -154.2 63.55 -152.8 L66.0 -150.95 Q66.0 -150.35 66.45 -149.95 L67.0 -149.0 Q68.75 -144.3 68.75 -141.35 68.75 -139.7 68.25 -138.1 L67.0 -134.55 Q66.6 -133.55 64.3 -131.15 L62.35 -129.95 Q62.4 -130.95 62.95 -132.6 L63.4 -138.1 63.2 -142.65 62.1 -147.9 61.3 -150.35 60.05 -152.8 M7.85 -153.4 Q9.0 -153.4 9.0 -151.85 9.0 -150.4 7.85 -150.4 7.3 -150.4 7.15 -150.55 L6.7 -150.8 6.55 -151.85 Q6.55 -153.4 7.85 -153.4 M39.45 -148.7 Q39.65 -148.15 39.65 -145.8 37.5 -133.95 32.8 -133.95 31.8 -133.95 31.55 -134.65 L31.45 -135.35 Q31.45 -136.0 33.85 -138.4 36.15 -140.75 36.15 -143.2 36.15 -145.1 34.95 -148.8 33.55 -153.25 31.85 -153.25 31.0 -153.25 30.5 -154.2 L30.3 -155.0 Q30.3 -156.05 31.05 -156.65 32.2 -157.3 34.35 -156.0 37.3 -153.65 37.8 -152.6 L39.45 -148.7 M29.95 -147.15 Q31.55 -147.1 31.55 -145.9 31.55 -144.55 29.95 -144.55 28.95 -144.55 28.55 -145.2 L28.35 -145.95 Q28.35 -147.25 29.95 -147.15 M33.15 -129.4 Q32.1 -129.4 31.8 -130.3 31.6 -130.7 31.7 -130.95 31.7 -132.6 33.15 -132.25 34.55 -131.85 34.55 -130.7 34.55 -129.4 33.15 -129.4 M0.15 -121.4 L1.55 -122.25 Q2.8 -123.1 4.2 -124.7 7.5 -128.6 7.1 -133.0 L7.3 -133.4 7.9 -131.55 8.35 -127.5 Q8.35 -123.1 6.7 -119.85 4.8 -116.2 1.85 -116.2 0.15 -116.2 -1.0 -118.0 L-1.15 -118.2 -0.45 -119.7 0.15 -121.4 M-3.85 -115.55 Q-5.0 -113.05 -8.25 -113.05 L-11.55 -113.6 -8.85 -113.35 Q-6.65 -113.35 -3.85 -115.55 M-2.0 -123.75 L-1.85 -124.05 -1.85 -123.9 -2.0 -123.75 M5.85 -113.3 Q5.85 -112.0 4.55 -112.0 3.4 -112.0 3.4 -113.35 3.4 -114.5 4.65 -114.55 5.85 -114.6 5.85 -113.3 M58.95 -136.55 L58.5 -135.5 57.7 -135.2 Q56.8 -135.2 56.4 -136.15 L56.1 -136.85 Q56.1 -138.3 57.55 -138.0 58.95 -137.7 58.95 -136.55 M57.55 -122.25 Q57.05 -121.7 56.4 -121.7 55.6 -121.7 55.25 -122.3 L55.1 -123.05 Q55.1 -124.45 56.65 -124.5 58.05 -124.55 58.05 -123.3 58.05 -122.7 57.55 -122.25 M-43.45 -211.45 Q-44.75 -211.45 -45.5 -212.65 L-45.95 -214.15 -45.3 -215.8 Q-44.55 -217.1 -43.95 -217.1 -40.35 -217.1 -40.35 -214.55 -40.35 -213.95 -41.05 -212.9 -42.05 -211.45 -43.45 -211.45 M-53.65 -217.0 Q-54.05 -218.55 -54.05 -221.0 -54.05 -227.3 -51.05 -232.5 -46.95 -239.55 -37.65 -243.35 -30.9 -246.05 -26.85 -247.0 -19.45 -248.9 -11.35 -245.7 -3.05 -242.3 0.05 -235.1 -7.6 -237.55 -13.15 -237.55 L-19.85 -236.85 -29.9 -233.75 -36.7 -230.75 Q-40.45 -228.7 -42.1 -227.15 -49.95 -219.6 -52.4 -212.3 L-53.65 -217.0 M-60.45 -207.8 Q-60.45 -211.1 -57.85 -210.1 -55.2 -209.15 -55.2 -206.9 -55.2 -206.05 -55.75 -205.25 -56.5 -204.05 -57.9 -204.05 -59.55 -204.05 -60.15 -205.9 L-60.45 -207.8 M-26.75 -214.55 Q-28.15 -214.55 -28.15 -215.95 -28.15 -217.2 -26.7 -217.4 -25.35 -217.55 -25.35 -216.15 -25.35 -214.55 -26.75 -214.55 M-38.2 -220.75 Q-38.2 -221.8 -37.0 -222.25 -35.8 -222.8 -35.8 -220.75 L-36.05 -220.25 Q-36.3 -219.85 -36.7 -219.85 -38.2 -219.85 -38.2 -220.75 M-30.9 -198.4 Q-30.9 -197.15 -32.25 -197.15 -33.7 -197.15 -33.7 -198.55 -33.7 -199.85 -32.25 -199.8 -30.9 -199.7 -30.9 -198.4 M-32.25 -193.85 L-33.15 -193.55 -32.8 -193.85 -32.25 -193.85 M-44.3 -183.95 Q-45.3 -181.95 -46.1 -178.85 L-46.7 -176.15 Q-46.5 -180.4 -44.3 -183.95 M-31.7 -185.4 L-30.0 -188.6 -29.95 -188.6 -31.7 -185.4 M-34.25 -184.95 Q-35.25 -180.95 -35.25 -175.65 -35.25 -172.4 -34.85 -170.85 -34.45 -169.0 -32.75 -165.5 -31.85 -163.7 -28.85 -160.45 -26.25 -157.95 -24.25 -156.8 -26.35 -156.0 -29.9 -156.0 -38.8 -156.0 -42.7 -163.4 -45.1 -167.85 -45.1 -172.3 -45.1 -178.7 -41.8 -184.4 -37.6 -191.3 -29.95 -192.15 L-30.8 -191.25 Q-33.3 -188.45 -34.25 -184.95 M-29.95 -170.85 Q-31.7 -170.85 -31.6 -172.2 -31.6 -173.45 -29.95 -173.35 -28.35 -173.3 -28.35 -172.0 -28.35 -170.85 -29.95 -170.85 M-56.9 -189.4 Q-58.5 -189.4 -60.05 -191.45 -61.3 -193.3 -61.3 -194.3 -59.8 -199.95 -57.3 -197.6 -54.2 -195.05 -54.2 -192.85 -54.2 -191.85 -54.65 -190.9 -55.35 -189.4 -56.9 -189.4 M-59.9 -173.6 L-59.95 -173.45 Q-66.45 -171.3 -69.4 -165.6 -71.45 -161.55 -71.45 -156.65 L-71.45 -155.2 Q-71.15 -153.9 -71.2 -153.65 -72.25 -154.3 -73.25 -157.3 -74.3 -160.15 -74.3 -161.6 -74.3 -163.15 -73.5 -165.15 L-71.45 -168.55 Q-70.5 -169.55 -67.55 -171.85 -66.3 -172.9 -64.6 -173.3 L-61.65 -173.7 -59.9 -173.6 M-67.75 -156.05 Q-67.75 -157.65 -66.3 -157.55 -64.9 -157.45 -64.9 -156.25 -64.9 -155.7 -65.4 -155.2 -66.0 -154.6 -66.45 -154.6 -67.95 -154.6 -67.75 -156.05 M-40.65 -132.25 Q-39.4 -132.5 -39.4 -131.05 -39.4 -129.8 -40.75 -127.4 L-42.5 -124.65 Q-44.1 -121.85 -44.1 -118.45 L-43.75 -116.95 -43.45 -115.4 Q-43.45 -114.0 -44.7 -114.0 -46.2 -114.0 -46.95 -117.0 -47.35 -118.45 -47.4 -120.05 -47.4 -126.35 -43.35 -130.55 -41.85 -132.1 -40.65 -132.25 M-71.95 -136.4 Q-71.2 -134.65 -71.2 -134.25 -71.2 -132.75 -72.85 -132.75 -75.5 -132.75 -76.35 -136.0 -76.85 -137.5 -76.75 -139.15 -76.75 -144.3 -73.65 -145.55 -70.6 -146.7 -70.6 -143.85 L-71.6 -142.05 Q-72.7 -140.25 -72.7 -139.15 -72.7 -138.1 -71.95 -136.4 M-62.75 -127.7 Q-62.75 -125.9 -64.1 -125.9 -65.5 -125.9 -66.15 -127.5 L-66.45 -128.85 Q-66.45 -130.8 -64.55 -130.35 -62.75 -129.95 -62.75 -127.7 M-43.95 -108.15 Q-43.95 -109.95 -42.45 -109.9 -40.9 -109.9 -40.9 -107.65 -40.9 -106.15 -42.25 -106.15 -43.5 -106.15 -43.9 -107.35 L-43.95 -108.15 M-4.7 -138.4 Q-3.7 -138.4 -1.95 -137.0 0.2 -135.35 0.2 -133.45 0.2 -132.25 -1.05 -131.15 -2.4 -129.9 -4.25 -129.9 -5.75 -129.9 -6.25 -130.8 -6.65 -131.45 -6.65 -133.65 L-6.55 -136.9 Q-6.4 -137.7 -5.0 -138.4 L-4.7 -138.4 M-2.6 -119.6 L-2.75 -119.4 Q-3.2 -118.45 -4.7 -117.2 -6.9 -115.35 -9.15 -115.35 L-10.75 -115.55 -12.55 -115.95 Q-13.75 -116.2 -14.6 -116.95 L-16.15 -117.85 Q-17.55 -118.9 -18.15 -119.6 -18.8 -120.25 -19.4 -121.9 -20.1 -123.7 -20.1 -124.7 L-19.85 -126.95 -18.95 -129.75 -17.85 -131.95 -17.85 -131.85 -17.75 -128.85 Q-17.55 -127.8 -16.15 -125.35 -13.15 -119.8 -7.05 -119.8 -4.8 -119.8 -2.6 -121.05 L-2.1 -121.3 -2.6 -119.6 M-36.85 -101.7 Q-38.1 -101.7 -38.1 -103.05 -38.1 -104.2 -36.85 -104.25 -35.65 -104.3 -35.65 -103.0 -35.65 -102.6 -36.0 -102.2 -36.4 -101.7 -36.85 -101.7 M-5.05 -111.1 Q-3.55 -111.0 -3.55 -109.9 -3.55 -108.5 -5.05 -108.5 -6.65 -108.5 -6.55 -109.9 -6.55 -111.15 -5.05 -111.1" fill="#ffff99" fill-rule="evenodd" stroke="none"/>
  </g>
</svg>
