<?xml version="1.0" encoding="UTF-8" standalone="no"?>
<svg xmlns:ffdec="https://www.free-decompiler.com/flash" xmlns:xlink="http://www.w3.org/1999/xlink" ffdec:objectType="shape" height="67.2px" width="144.85px" xmlns="http://www.w3.org/2000/svg">
  <g transform="matrix(1.0, 0.0, 0.0, 1.0, 72.75, 41.05)">
    <path d="M-27.4 1.95 L-28.45 0.7 -27.9 0.15 -27.4 1.95 M-46.45 -7.8 L-47.5 -7.4 -46.3 -8.75 -46.45 -7.8 M47.6 -15.75 L47.0 -15.55 46.2 -15.6 47.6 -15.75" fill="#444444" fill-rule="evenodd" stroke="none"/>
    <path d="M-45.8 -30.2 Q-46.7 -30.15 -47.75 -29.5 -51.6 -27.2 -51.6 -21.9 -51.1 -17.4 -49.4 -16.15 -51.55 -15.9 -52.9 -15.1 -53.7 -14.65 -54.25 -14.0 -55.25 -12.75 -55.25 -10.45 -55.25 -9.1 -54.65 -7.85 -53.5 -5.5 -50.55 -5.5 L-50.55 -5.45 -50.4 -5.5 Q-48.35 -5.5 -46.95 -6.2 L-46.7 -6.25 -46.65 -6.25 -46.7 -5.9 Q-46.7 -3.3 -45.5 -1.4 -43.05 2.6 -36.3 2.6 -33.85 2.6 -31.5 1.45 L-30.2 0.65 -29.35 1.6 -29.0 2.0 -27.05 4.25 -26.2 4.9 -24.6 5.95 Q-21.75 7.5 -18.3 7.5 -16.85 7.5 -15.1 6.45 L-14.95 6.4 Q-14.45 8.05 -12.7 9.55 -10.15 11.65 -7.15 11.65 L-7.1 11.75 -6.25 11.65 Q-2.15 11.4 0.25 9.25 1.7 8.0 2.0 6.8 L3.2 7.7 3.3 7.9 3.35 7.85 3.9 8.1 Q5.55 8.9 8.25 8.9 12.7 8.9 14.75 6.85 L15.75 5.4 16.55 5.8 Q18.9 6.8 21.3 6.8 27.35 6.8 30.3 3.65 32.25 1.7 32.25 -0.2 32.25 -1.15 31.6 -2.05 L31.65 -2.1 33.7 -2.15 36.95 -2.45 37.3 -2.45 37.3 -2.5 Q40.45 -3.05 42.25 -4.35 44.5 -5.9 44.5 -8.0 44.5 -9.1 43.85 -9.8 L44.95 -10.6 Q45.5 -11.25 45.5 -12.1 45.5 -12.85 45.0 -13.25 47.4 -13.6 49.1 -14.7 L50.0 -15.4 Q51.4 -16.7 51.75 -17.85 L51.85 -18.65 Q51.85 -20.4 51.0 -21.75 49.5 -24.15 45.85 -23.65 L46.35 -24.55 46.9 -25.65 46.65 -27.1 46.2 -28.6 Q45.65 -29.4 44.3 -29.85 L43.4 -30.0 45.4 -34.05 45.55 -34.45 47.9 -39.75 48.0 -39.75 52.65 -39.4 55.6 -38.4 Q58.95 -36.55 60.1 -35.15 L61.65 -33.55 62.75 -31.95 63.0 -29.95 Q62.25 -30.0 62.25 -29.4 L63.55 -28.65 Q65.05 -27.75 66.15 -26.3 L66.9 -24.7 67.3 -23.05 66.85 -21.1 Q65.9 -21.4 65.9 -20.45 L66.2 -19.75 66.2 -19.7 Q66.2 -19.4 66.45 -19.2 66.65 -18.9 67.0 -18.9 L67.4 -18.95 68.95 -17.8 69.8 -16.5 70.5 -15.0 Q70.5 -13.6 69.4 -11.25 68.3 -8.95 67.1 -7.75 L63.25 -4.0 Q62.0 -2.95 59.55 -1.85 57.55 -0.95 57.55 -0.7 L57.65 -0.3 Q57.9 0.0 58.55 0.0 L58.8 0.0 58.9 1.0 Q58.9 2.8 56.7 6.05 55.5 7.55 53.55 8.65 L50.6 9.85 48.55 10.1 Q48.15 10.15 48.15 10.55 48.15 10.95 48.5 11.15 48.1 11.55 47.7 12.75 L46.3 15.85 Q45.5 17.45 42.2 18.9 38.8 20.35 35.55 20.35 L29.0 19.8 28.05 19.25 Q27.35 19.25 27.0 20.05 L26.35 21.85 Q24.95 24.4 18.5 24.4 11.65 24.4 8.65 22.5 6.85 20.5 6.45 20.5 6.05 20.5 6.0 20.85 L6.0 20.9 5.75 20.85 Q4.65 21.5 2.75 22.15 -1.0 23.45 -8.45 23.45 -15.0 23.45 -20.0 22.25 -22.55 21.7 -24.15 21.0 -25.35 20.65 -26.95 19.75 L-28.65 18.65 -30.1 17.1 -30.25 17.05 Q-30.8 16.6 -31.05 16.8 -31.5 16.5 -31.55 15.85 L-32.0 16.05 Q-32.25 15.7 -32.8 15.7 L-36.35 15.95 -43.9 14.85 -48.7 13.35 Q-52.85 11.5 -55.9 9.05 -56.4 8.55 -57.75 7.85 L-58.5 7.0 -60.55 4.45 Q-61.45 3.5 -61.95 2.0 L-62.5 0.3 -62.35 -0.25 Q-62.35 -0.85 -64.1 -1.55 L-66.7 -2.75 -66.85 -2.9 -66.9 -2.9 -67.1 -3.1 -68.9 -5.05 -69.5 -6.25 Q-70.4 -7.8 -70.7 -9.45 L-70.9 -12.55 -70.65 -15.35 -69.6 -18.35 Q-68.85 -20.2 -67.4 -22.3 L-66.3 -23.8 -66.1 -23.9 -66.1 -24.3 -65.8 -24.9 Q-65.8 -25.25 -66.05 -25.3 L-65.7 -26.3 -65.0 -28.95 Q-64.0 -31.2 -61.85 -33.45 -59.55 -35.75 -55.3 -37.3 L-49.75 -38.55 -47.75 -39.0 -47.45 -39.1 Q-47.3 -39.75 -46.25 -39.6 L-46.05 -39.55 Q-44.6 -39.15 -44.6 -38.2 -44.6 -37.3 -45.05 -37.1 L-45.5 -35.9 Q-46.15 -34.25 -46.15 -32.6 L-45.8 -30.2" fill="#bd9a0a" fill-rule="evenodd" stroke="none"/>
    <path d="M-27.4 1.95 L-26.7 2.75 -24.35 4.45 Q-21.4 6.1 -18.45 6.1 -17.0 6.1 -15.65 5.15 L-14.15 4.15 -13.65 4.45 -13.5 4.85 -14.1 5.8 -12.7 7.6 Q-10.4 10.25 -8.5 10.25 -2.0 10.25 -0.05 7.7 0.6 6.9 0.7 5.9 L0.7 4.9 Q1.75 4.65 2.0 5.15 L2.1 5.25 3.35 6.25 Q4.95 7.5 6.85 7.5 13.9 7.5 14.3 5.0 L14.4 3.55 Q15.7 3.2 15.95 4.05 L17.0 4.6 Q19.2 5.45 20.85 5.45 24.5 5.45 27.25 4.25 30.85 2.7 30.85 -0.2 30.85 -1.0 29.95 -1.9 L29.2 -2.7 29.1 -2.7 29.1 -2.75 29.0 -3.0 Q29.0 -4.4 30.5 -3.15 L36.05 -3.95 Q43.0 -4.9 43.0 -8.05 43.0 -9.0 41.65 -9.3 L41.3 -9.45 39.7 -9.7 39.7 -10.05 Q39.7 -10.35 40.25 -10.5 40.5 -11.25 41.9 -10.85 L42.05 -10.9 Q44.3 -11.25 44.3 -12.1 44.3 -12.75 43.6 -12.9 L42.0 -13.35 Q41.9 -13.1 41.9 -13.55 L42.1 -13.9 42.1 -13.95 46.3 -15.3 47.0 -15.55 47.6 -15.75 Q50.45 -17.0 50.45 -18.8 50.3 -22.25 47.55 -22.25 L44.95 -22.0 43.45 -21.75 Q42.85 -21.75 42.65 -22.05 L42.6 -22.4 44.1 -23.9 Q45.55 -25.35 45.55 -26.6 45.55 -27.95 44.3 -28.55 L42.8 -29.1 43.4 -30.0 44.3 -29.85 Q45.65 -29.4 46.2 -28.6 L46.65 -27.1 46.9 -25.65 46.35 -24.55 45.85 -23.65 Q49.5 -24.15 51.0 -21.75 51.85 -20.4 51.85 -18.65 L51.75 -17.85 Q51.4 -16.7 50.0 -15.4 L49.1 -14.7 Q47.4 -13.6 45.0 -13.25 45.5 -12.85 45.5 -12.1 45.5 -11.25 44.95 -10.6 L43.85 -9.8 Q44.5 -9.1 44.5 -8.0 44.5 -5.9 42.25 -4.35 40.45 -3.05 37.3 -2.5 L36.95 -2.45 33.7 -2.15 31.65 -2.1 31.55 -2.1 31.6 -2.05 Q32.25 -1.15 32.25 -0.2 32.25 1.7 30.3 3.65 27.35 6.8 21.3 6.8 18.9 6.8 16.55 5.8 L15.75 5.4 14.75 6.85 Q12.7 8.9 8.25 8.9 5.55 8.9 3.9 8.1 L3.35 7.85 3.2 7.7 2.0 6.8 Q1.7 8.0 0.25 9.25 -2.15 11.4 -6.25 11.65 L-7.15 11.65 Q-10.15 11.65 -12.7 9.55 -14.45 8.05 -14.95 6.4 L-15.1 6.45 Q-16.85 7.5 -18.3 7.5 -21.75 7.5 -24.6 5.95 L-26.2 4.9 -27.05 4.25 -29.0 2.0 -29.35 1.6 -30.2 0.65 -31.5 1.45 Q-33.85 2.6 -36.3 2.6 -43.05 2.6 -45.5 -1.4 -46.7 -3.3 -46.7 -5.9 L-46.65 -6.25 -46.65 -6.3 -46.7 -6.25 -46.95 -6.2 Q-48.35 -5.5 -50.4 -5.5 L-50.55 -5.5 Q-53.5 -5.5 -54.65 -7.85 -55.25 -9.1 -55.25 -10.45 -55.25 -12.75 -54.25 -14.0 -53.7 -14.65 -52.9 -15.1 -51.55 -15.9 -49.4 -16.15 -51.1 -17.4 -51.6 -21.9 -51.6 -27.2 -47.75 -29.5 -46.7 -30.15 -45.8 -30.2 L-45.1 -30.2 Q-43.9 -30.05 -43.9 -29.0 L-43.9 -28.95 -44.85 -28.7 Q-46.15 -28.55 -47.35 -27.55 L-49.2 -25.7 Q-49.9 -25.0 -50.05 -24.05 L-50.05 -22.25 Q-50.05 -20.5 -49.4 -18.8 L-48.55 -17.25 Q-48.1 -16.4 -47.45 -15.9 L-48.0 -15.75 -48.1 -15.75 -50.85 -14.5 Q-53.85 -12.85 -53.85 -10.6 L-53.4 -8.65 Q-52.75 -6.85 -51.45 -6.85 L-47.6 -7.35 -47.5 -7.4 -46.45 -7.8 -46.15 -7.9 -45.65 -7.4 -45.75 -7.0 -45.65 -6.55 -45.1 -3.6 Q-44.65 -2.25 -43.05 -0.95 -40.45 1.15 -36.3 1.15 -33.55 1.15 -31.65 0.1 L-30.05 -1.05 -29.55 -0.9 -29.45 -0.45 -29.45 -0.2 -28.45 0.7 -27.4 1.95 M47.9 -39.75 L47.5 -39.75 47.45 -39.75 47.7 -40.65 47.85 -40.8 50.4 -41.0 Q54.65 -40.95 57.7 -38.95 59.35 -37.9 61.55 -35.85 L62.95 -34.4 64.05 -32.8 65.05 -29.85 65.05 -29.45 65.5 -29.2 66.85 -28.0 67.7 -27.05 68.75 -24.85 69.0 -22.7 68.7 -20.8 68.55 -20.15 69.0 -19.8 Q72.1 -17.4 72.1 -15.0 72.1 -10.05 66.4 -4.7 62.75 -1.3 60.35 -0.3 L60.4 1.0 Q60.4 5.5 56.15 8.75 52.7 11.4 49.85 11.4 L49.55 11.4 49.7 12.05 Q49.7 13.2 48.55 15.25 L46.5 18.25 Q45.3 19.55 41.8 20.7 37.7 22.1 33.2 22.1 L29.4 21.75 28.4 21.4 Q27.85 21.85 26.7 24.15 24.6 26.15 18.45 26.15 14.4 26.15 10.75 25.05 7.0 23.95 6.25 22.2 5.55 23.1 3.0 23.9 -1.05 25.05 -8.2 25.05 -14.5 25.05 -20.05 23.7 L-24.95 22.2 Q-27.0 21.8 -29.15 19.95 -31.05 18.4 -31.2 17.5 L-31.5 17.6 -36.2 18.0 Q-42.7 18.0 -49.45 15.15 -54.65 12.9 -56.65 10.85 L-57.3 10.1 -59.1 8.95 -60.75 7.85 -61.65 6.5 -62.45 5.15 -63.3 2.75 -63.75 0.65 Q-64.65 0.6 -66.5 -0.6 -68.1 -1.65 -68.9 -2.45 -70.9 -4.65 -71.55 -5.9 -72.6 -7.95 -72.75 -9.6 L-72.75 -12.8 -72.65 -15.7 -71.7 -19.4 Q-71.2 -20.8 -69.55 -22.65 L-67.85 -24.25 -67.05 -24.75 -67.05 -24.85 Q-67.4 -25.25 -67.45 -26.25 -67.45 -28.35 -65.85 -31.1 -64.25 -33.9 -61.95 -35.65 -57.9 -38.55 -54.6 -39.3 L-50.05 -40.2 Q-46.2 -40.85 -46.2 -39.75 L-46.25 -39.6 Q-47.3 -39.75 -47.45 -39.1 L-47.75 -39.0 -49.75 -38.55 -55.3 -37.3 Q-59.55 -35.75 -61.85 -33.45 -64.0 -31.2 -65.0 -28.95 L-65.7 -26.3 -66.05 -25.3 Q-65.8 -25.25 -65.8 -24.9 L-66.1 -24.3 -66.1 -23.9 -66.3 -23.8 -67.4 -22.3 Q-68.85 -20.2 -69.6 -18.35 L-70.65 -15.35 -70.9 -12.55 -70.7 -9.45 Q-70.4 -7.8 -69.5 -6.25 L-68.9 -5.05 -67.1 -3.1 -66.9 -2.9 -66.85 -2.9 -66.7 -2.75 -64.1 -1.55 Q-62.35 -0.85 -62.35 -0.25 L-62.5 0.3 -61.95 2.0 Q-61.45 3.5 -60.55 4.45 L-58.5 7.0 -57.75 7.85 Q-56.4 8.55 -55.9 9.05 -52.85 11.5 -48.7 13.35 L-43.9 14.85 -36.35 15.95 -32.8 15.7 Q-32.25 15.7 -32.0 16.05 L-31.55 15.85 Q-31.5 16.5 -31.05 16.8 -30.8 16.6 -30.25 17.05 L-30.1 17.1 -28.65 18.65 -26.95 19.75 Q-25.35 20.65 -24.15 21.0 -22.55 21.7 -20.0 22.25 -15.0 23.45 -8.45 23.45 -1.0 23.45 2.75 22.15 4.65 21.5 5.75 20.85 L6.0 20.9 6.0 20.85 Q6.05 20.5 6.45 20.5 6.85 20.5 8.65 22.5 11.65 24.4 18.5 24.4 24.95 24.4 26.35 21.85 L27.0 20.05 Q27.35 19.25 28.05 19.25 L29.0 19.8 35.55 20.35 Q38.8 20.35 42.2 18.9 45.5 17.45 46.3 15.85 L47.7 12.75 Q48.1 11.55 48.5 11.15 48.15 10.95 48.15 10.55 48.15 10.15 48.55 10.1 L50.6 9.85 53.55 8.65 Q55.5 7.55 56.7 6.05 58.9 2.8 58.9 1.0 L58.8 0.0 58.55 0.0 Q57.9 0.0 57.65 -0.3 L57.55 -0.7 Q57.55 -0.95 59.55 -1.85 62.0 -2.95 63.25 -4.0 L67.1 -7.75 Q68.3 -8.95 69.4 -11.25 70.5 -13.6 70.5 -15.0 L69.8 -16.5 68.95 -17.8 67.4 -18.95 67.0 -18.9 Q66.65 -18.9 66.45 -19.2 66.2 -19.4 66.2 -19.7 L66.2 -19.75 65.9 -20.45 Q65.9 -21.4 66.85 -21.1 L67.3 -23.05 66.9 -24.7 66.15 -26.3 Q65.05 -27.75 63.55 -28.65 L62.25 -29.4 Q62.25 -30.0 63.0 -29.95 L62.75 -31.95 61.65 -33.55 60.1 -35.15 Q58.95 -36.55 55.6 -38.4 L52.65 -39.4 48.0 -39.75 47.9 -39.75" fill="#472205" fill-rule="evenodd" stroke="none"/>
    <path d="M47.9 -39.75 L48.0 -39.75 M45.55 -34.45 L47.9 -39.75 M35.95 -21.75 Q39.25 -24.7 41.75 -27.95 M-13.1 -7.95 L-5.5 -9.05" ffdec:has-small-stroke="true" ffdec:original-stroke-width="0.25" fill="none" stroke="#010101" stroke-linecap="round" stroke-linejoin="round" stroke-opacity="0.0" stroke-width="1.0"/>
  </g>
</svg>
