<?xml version="1.0" encoding="UTF-8" standalone="no"?>
<svg xmlns:ffdec="https://www.free-decompiler.com/flash" xmlns:xlink="http://www.w3.org/1999/xlink" ffdec:objectType="shape" height="7.3px" width="16.1px" xmlns="http://www.w3.org/2000/svg">
  <g transform="matrix(1.0, 0.0, 0.0, 1.0, 0.05, 4.2)">
    <path d="M5.0 -3.4 L4.15 -3.15 3.05 -2.75 1.35 -2.0 1.0 -1.15 Q0.85 -0.75 0.85 -0.2 L0.8 0.8 0.7 1.5 1.8 1.0 3.25 0.55 3.85 0.45 4.75 0.55 6.3 0.95 7.5 1.3 10.55 2.05 11.15 2.1 11.2 2.1 Q12.4 2.1 13.05 1.3 L13.5 0.45 14.15 -0.6 14.6 -1.15 14.45 -1.15 13.0 -1.4 10.55 -2.1 9.9 -2.3 7.3 -3.1 5.8 -3.5 5.0 -3.4 M5.05 -4.15 L7.4 -4.0 7.65 -3.9 10.55 -2.9 11.9 -2.35 13.3 -1.9 14.8 -1.8 16.05 -1.95 Q15.2 -1.05 14.4 0.7 13.3 3.1 11.7 3.1 L10.55 3.0 10.3 2.95 7.75 2.2 Q6.9 1.85 6.15 1.65 L4.7 1.35 3.55 1.25 3.2 1.25 Q2.4 1.3 1.85 1.65 1.5 1.85 0.6 2.55 0.15 2.35 0.0 1.55 L-0.05 0.4 0.1 -1.25 0.4 -1.95 Q0.7 -2.65 2.35 -3.45 L4.45 -4.05 5.05 -4.15" fill="#463114" fill-rule="evenodd" stroke="none"/>
    <path d="M4.75 0.55 L5.0 -3.4 5.8 -3.5 7.3 -3.1 9.9 -2.3 10.55 -2.1 10.55 2.05 7.5 1.3 6.3 0.95 4.75 0.55" fill="#dd8636" fill-rule="evenodd" stroke="none"/>
    <path d="M4.75 0.55 L3.85 0.45 3.25 0.55 1.8 1.0 0.7 1.5 0.8 0.8 0.85 -0.2 Q0.85 -0.75 1.0 -1.15 L1.35 -2.0 3.05 -2.75 4.15 -3.15 5.0 -3.4 4.75 0.55 M10.55 -2.1 L13.0 -1.4 14.45 -1.15 14.6 -1.15 14.15 -0.6 13.5 0.45 13.05 1.3 Q12.4 2.1 11.2 2.1 L11.15 2.1 10.55 2.05 10.55 -2.1" fill="#95571e" fill-rule="evenodd" stroke="none"/>
  </g>
</svg>
