<?xml version="1.0" encoding="UTF-8" standalone="no"?>
<svg xmlns:ffdec="https://www.free-decompiler.com/flash" xmlns:xlink="http://www.w3.org/1999/xlink" ffdec:objectType="shape" height="8.1px" width="16.25px" xmlns="http://www.w3.org/2000/svg">
  <g transform="matrix(1.0, 0.0, 0.0, 1.0, 0.0, 5.65)">
    <path d="M4.5 -3.65 L5.45 -4.3 7.65 -5.25 8.3 -5.45 8.55 -5.65 11.4 -5.5 12.55 -5.25 12.65 -5.2 13.65 -4.8 15.15 -3.65 16.25 -2.75 Q14.65 -0.55 12.85 -0.55 L12.8 -0.55 9.9 -0.95 Q9.4 -0.95 8.05 -0.15 L6.55 0.75 Q4.35 2.15 2.25 2.4 L1.45 2.45 0.25 2.35 0.15 2.1 0.05 1.7 0.05 0.9 0.1 -1.25 Q0.1 -2.05 0.25 -2.3 0.6 -2.9 1.0 -2.55 L1.55 -2.6 2.5 -2.65 Q3.4 -2.8 4.1 -3.3 L4.5 -3.65 M12.8 -4.35 L10.25 -4.95 8.05 -4.5 6.25 -3.4 Q4.2 -1.75 2.55 -1.65 L1.25 -1.65 1.15 -1.65 1.15 0.15 1.2 1.85 2.0 1.85 2.3 1.85 5.05 1.1 6.45 0.15 7.8 -0.75 8.0 -0.85 Q9.1 -1.5 10.0 -1.5 L12.8 -1.35 12.9 -1.35 Q13.95 -1.4 14.8 -2.1 L15.35 -2.45 15.4 -2.5 14.6 -3.15 13.75 -3.95 12.8 -4.35" fill="#463114" fill-rule="evenodd" stroke="none"/>
    <path d="M12.9 -1.35 L12.95 -2.55 12.8 -4.35 13.75 -3.95 14.6 -3.15 15.4 -2.5 15.35 -2.45 14.8 -2.1 Q13.95 -1.4 12.9 -1.35" fill="#dd8636" fill-rule="evenodd" stroke="none"/>
    <path d="M12.9 -1.35 L12.8 -1.35 10.0 -1.5 Q9.1 -1.5 8.0 -0.85 L7.8 -0.75 6.45 0.15 5.05 1.1 2.3 1.85 2.0 1.85 1.2 1.85 1.15 0.15 1.15 -1.65 1.25 -1.65 2.55 -1.65 Q4.2 -1.75 6.25 -3.4 L8.05 -4.5 10.25 -4.95 12.8 -4.35 12.95 -2.55 12.9 -1.35" fill="#95571e" fill-rule="evenodd" stroke="none"/>
  </g>
</svg>
