<?xml version="1.0" encoding="UTF-8" standalone="no"?>
<svg xmlns:ffdec="https://www.free-decompiler.com/flash" xmlns:xlink="http://www.w3.org/1999/xlink" ffdec:objectType="shape" height="9.05px" width="16.2px" xmlns="http://www.w3.org/2000/svg">
  <g transform="matrix(1.0, 0.0, 0.0, 1.0, 0.1, 6.1)">
    <path d="M0.65 -2.45 Q0.8 -2.65 1.1 -2.65 L2.35 -2.15 3.3 -1.85 5.55 -1.65 Q8.2 -1.65 10.4 -3.65 12.75 -5.8 14.85 -6.1 L15.45 -6.1 16.1 -6.05 14.6 -5.1 Q13.8 -4.35 12.25 -1.8 9.25 2.95 4.15 2.95 L3.15 2.85 1.75 2.3 -0.05 1.45 0.05 1.1 -0.05 0.85 -0.05 0.35 0.2 -1.55 Q0.35 -2.3 0.65 -2.45 M3.2 -1.1 L2.5 -1.35 1.4 -1.95 1.1 -0.85 1.0 0.35 1.1 1.35 3.05 1.95 4.8 2.2 Q7.85 2.2 10.45 -1.15 12.05 -3.25 13.95 -4.95 L13.95 -5.0 10.55 -2.8 Q8.45 -1.5 6.05 -0.85 L4.2 -0.85 3.2 -1.1" fill="#463114" fill-rule="evenodd" stroke="none"/>
    <path d="M3.05 1.95 L1.1 1.35 1.0 0.35 1.1 -0.85 1.4 -1.95 2.5 -1.35 3.2 -1.1 3.0 0.95 3.05 1.95" fill="#dd8636" fill-rule="evenodd" stroke="none"/>
    <path d="M3.05 1.95 L3.0 0.95 3.2 -1.1 4.2 -0.85 6.05 -0.85 Q8.45 -1.5 10.55 -2.8 L13.95 -5.0 13.95 -4.95 Q12.05 -3.25 10.45 -1.15 7.85 2.2 4.8 2.2 L3.05 1.95" fill="#95571e" fill-rule="evenodd" stroke="none"/>
  </g>
</svg>
