<?xml version="1.0" encoding="UTF-8" standalone="no"?>
<svg xmlns:ffdec="https://www.free-decompiler.com/flash" xmlns:xlink="http://www.w3.org/1999/xlink" ffdec:objectType="shape" height="383.6px" width="766.25px" xmlns="http://www.w3.org/2000/svg">
  <g transform="matrix(1.0, 0.0, 0.0, 1.0, 344.85, 523.0)">
    <path d="M77.7 -461.5 Q82.2 -461.5 82.2 -457.35 82.2 -455.0 80.1 -454.05 78.95 -453.55 77.6 -453.55 74.3 -453.55 73.4 -455.2 73.15 -455.7 73.15 -457.2 73.15 -461.5 77.7 -461.5 M37.15 -450.7 Q36.6 -450.35 35.7 -450.35 34.4 -450.35 33.2 -452.55 32.6 -453.65 32.25 -454.8 32.25 -458.85 34.7 -457.35 37.05 -455.95 37.95 -452.75 L37.65 -451.1 37.15 -450.7 M20.55 -432.2 Q18.95 -432.2 18.45 -433.2 18.3 -433.55 18.3 -434.4 18.3 -436.9 22.4 -437.85 26.45 -438.8 26.45 -435.65 26.45 -434.7 24.85 -433.55 23.0 -432.2 20.55 -432.2 M14.75 -398.15 Q14.75 -396.75 13.2 -395.5 12.45 -394.85 10.0 -393.5 L6.5 -394.75 6.4 -395.3 Q6.25 -396.2 6.25 -397.75 6.25 -402.05 10.5 -402.0 14.75 -401.9 14.75 -398.15 M38.2 -418.1 Q38.2 -422.2 42.75 -422.25 47.3 -422.3 47.3 -418.25 47.3 -416.0 45.25 -415.0 44.05 -414.45 42.7 -414.45 39.45 -414.45 38.5 -416.1 38.2 -416.7 38.2 -418.1 M73.4 -430.35 Q72.95 -431.4 73.15 -432.65 73.15 -437.1 77.7 -437.1 82.2 -437.1 82.2 -432.65 82.2 -430.7 81.2 -429.55 80.0 -428.2 77.6 -428.2 74.3 -428.2 73.4 -430.35 M63.7 -436.65 Q62.75 -434.5 60.25 -434.5 58.7 -434.5 58.05 -434.85 L56.45 -435.8 56.35 -436.4 Q56.2 -437.3 56.2 -438.95 56.2 -443.4 60.2 -443.4 64.2 -443.4 64.2 -438.95 64.2 -437.7 63.7 -436.65 M137.0 -457.8 Q136.35 -456.0 133.25 -454.6 L129.55 -455.9 Q129.45 -457.45 128.25 -461.3 127.1 -464.9 127.1 -466.25 127.1 -468.25 128.7 -469.1 L132.15 -469.2 Q137.2 -467.65 137.2 -461.95 137.2 -458.45 137.0 -457.8 M93.85 -450.65 Q93.85 -447.8 89.8 -446.05 L86.15 -447.5 86.0 -448.1 Q85.85 -449.0 85.85 -450.65 85.85 -455.05 89.85 -455.05 93.85 -455.05 93.85 -450.65 M113.45 -417.05 Q113.45 -421.4 116.0 -426.45 119.65 -433.6 125.75 -430.85 128.1 -430.6 130.35 -427.95 130.55 -431.7 135.35 -432.5 140.35 -433.35 140.35 -428.85 140.35 -427.15 138.65 -425.9 137.4 -425.05 134.3 -423.9 L132.75 -424.45 Q135.1 -420.3 135.1 -417.95 135.1 -415.75 130.65 -411.25 126.35 -406.95 124.7 -406.95 124.0 -406.95 118.7 -411.85 113.45 -416.7 113.45 -417.05 M112.85 -397.75 Q112.85 -394.65 108.9 -393.15 L105.1 -394.6 105.0 -397.75 Q105.0 -402.15 108.95 -402.15 112.85 -402.15 112.85 -397.75 M154.6 -428.2 Q154.6 -429.8 156.2 -430.85 157.65 -431.8 159.65 -431.85 164.7 -431.9 164.7 -427.4 164.7 -426.05 164.2 -424.95 163.25 -422.8 160.75 -422.8 156.55 -422.8 155.15 -425.75 154.45 -427.15 154.6 -428.2 M123.85 -417.45 Q125.3 -417.8 126.05 -418.35 125.55 -421.1 123.95 -422.3 123.55 -422.1 122.9 -420.6 122.2 -419.05 121.85 -417.3 L123.85 -417.45 M139.05 -409.9 Q140.8 -409.75 142.15 -408.55 143.55 -407.25 143.55 -405.5 143.55 -404.1 141.9 -401.95 140.05 -399.6 138.45 -399.6 135.15 -399.6 134.5 -401.85 134.2 -403.05 134.5 -404.45 134.5 -410.2 139.05 -409.9 M150.9 -415.7 Q149.8 -414.4 148.05 -414.4 144.05 -414.4 142.55 -417.25 141.8 -418.65 141.85 -419.65 141.85 -423.7 146.9 -422.9 151.95 -422.05 151.95 -418.5 151.95 -416.9 150.9 -415.7 M180.85 -410.2 Q177.6 -410.2 176.95 -412.65 176.6 -413.95 176.9 -415.45 176.9 -420.95 181.4 -420.65 183.15 -420.5 184.45 -419.25 185.85 -417.9 185.85 -416.0 185.85 -413.9 184.3 -412.05 182.7 -410.2 180.85 -410.2 M249.3 -347.6 L250.65 -346.25 250.5 -344.1 Q250.2 -342.9 249.3 -342.0 L245.7 -342.0 245.05 -342.6 Q244.35 -342.95 244.35 -345.6 244.35 -348.4 244.6 -348.05 L244.8 -347.15 Q245.85 -348.2 249.3 -347.6 M273.7 -339.9 Q273.7 -333.3 268.65 -333.3 265.65 -333.3 262.95 -337.05 260.85 -340.05 260.85 -341.1 260.85 -343.6 262.85 -345.0 264.7 -346.25 267.3 -346.1 269.9 -345.95 271.7 -344.45 273.7 -342.7 273.7 -339.9 M261.3 -313.95 Q262.9 -315.2 265.25 -315.2 267.6 -315.2 269.2 -313.95 271.0 -312.5 271.0 -310.05 271.0 -307.25 268.3 -306.0 266.75 -305.3 265.25 -305.3 261.3 -305.3 260.0 -307.85 L259.5 -310.05 Q259.5 -312.5 261.3 -313.95 M202.85 -359.45 Q202.15 -361.05 202.15 -363.2 202.15 -366.2 204.15 -367.75 205.85 -369.1 208.5 -368.9 211.0 -368.75 212.8 -367.3 214.8 -365.75 214.8 -363.5 214.8 -361.6 212.85 -359.0 210.7 -356.1 208.4 -356.1 204.35 -356.1 202.85 -359.45 M235.3 -367.4 Q237.1 -367.2 239.85 -366.05 L239.05 -364.35 Q238.45 -363.65 237.35 -363.35 L235.65 -363.75 Q233.85 -364.3 233.3 -365.15 L233.3 -367.4 235.3 -367.4 M179.55 -367.25 Q179.55 -366.55 178.65 -365.25 177.65 -363.8 176.7 -363.8 174.8 -363.8 174.15 -365.25 173.85 -365.9 173.85 -366.9 173.85 -369.35 176.7 -369.5 179.55 -369.65 179.55 -367.25 M202.2 -352.5 Q204.3 -350.6 204.3 -347.4 204.3 -344.5 202.1 -342.5 200.05 -340.65 197.55 -340.65 192.75 -340.65 191.3 -343.65 190.8 -344.7 190.8 -347.15 190.8 -350.6 192.9 -352.55 194.8 -354.3 197.55 -354.3 200.3 -354.25 202.2 -352.5 M187.85 -329.7 Q190.4 -329.7 190.4 -327.3 190.4 -326.45 189.5 -325.7 188.95 -325.25 187.55 -324.5 L185.45 -325.25 185.3 -327.05 Q185.3 -329.7 187.85 -329.7 M178.7 -334.15 Q178.7 -331.2 176.0 -329.95 174.55 -329.25 172.95 -329.25 168.9 -329.25 167.8 -331.45 167.4 -332.15 167.4 -334.0 167.4 -336.55 169.15 -338.05 170.75 -339.35 173.05 -339.3 175.35 -339.3 176.95 -338.0 178.7 -336.55 178.7 -334.15 M197.7 -310.7 Q196.65 -309.95 195.75 -309.95 193.85 -309.95 193.35 -310.95 193.2 -311.25 193.2 -312.15 193.2 -314.4 196.05 -314.9 198.9 -315.4 198.9 -312.8 198.9 -311.6 197.7 -310.7 M232.9 -327.25 Q234.9 -325.4 234.9 -323.35 234.9 -320.9 233.85 -319.3 232.55 -317.3 229.8 -317.3 226.55 -317.3 224.05 -321.0 222.8 -322.9 222.2 -324.9 222.2 -327.95 224.2 -329.15 225.9 -330.2 228.55 -329.55 231.05 -328.95 232.9 -327.25 M214.65 -333.15 Q213.95 -332.4 212.7 -332.4 210.8 -332.4 210.3 -333.6 210.05 -334.25 210.15 -334.95 210.15 -337.8 212.7 -337.3 215.25 -336.75 215.25 -334.7 215.25 -333.8 214.65 -333.15 M235.95 -263.1 Q237.55 -264.45 239.85 -264.45 242.15 -264.45 243.75 -263.1 245.5 -261.65 245.5 -259.25 245.5 -257.55 243.45 -255.8 242.1 -254.65 239.25 -253.15 L234.55 -254.85 234.4 -255.6 234.2 -258.9 Q234.2 -261.6 235.95 -263.1 M272.0 -273.15 L273.4 -273.3 276.5 -273.15 277.85 -271.8 Q277.45 -270.65 275.85 -269.25 274.0 -267.75 272.45 -267.75 L271.9 -267.4 Q271.35 -267.65 271.35 -270.45 L271.45 -273.0 Q271.8 -272.75 272.0 -273.15 M245.25 -280.35 Q244.65 -281.25 244.45 -282.5 L244.35 -285.5 245.95 -285.55 Q247.45 -285.45 248.85 -284.6 L248.7 -282.4 Q248.4 -281.25 247.5 -280.35 L245.25 -280.35 M269.2 -259.85 Q272.55 -260.9 276.2 -254.85 L276.1 -253.75 Q277.55 -252.3 277.55 -249.95 277.55 -247.85 276.15 -246.45 274.75 -245.05 272.7 -245.05 269.1 -245.05 268.0 -247.25 267.6 -248.05 267.6 -249.8 L267.65 -250.4 266.6 -250.8 266.45 -251.55 266.25 -254.85 Q266.25 -258.95 269.2 -259.85 M263.25 -236.9 L262.8 -236.25 Q262.35 -236.15 262.35 -238.95 262.35 -241.8 264.25 -241.75 L268.65 -240.95 268.5 -238.9 Q268.2 -237.8 267.3 -236.9 L263.25 -236.9 M116.55 -384.35 Q118.1 -383.15 118.1 -381.4 118.1 -379.1 116.0 -378.1 114.65 -377.45 113.1 -377.45 110.0 -377.45 108.8 -378.65 L107.35 -378.5 Q102.7 -378.5 101.2 -381.4 100.45 -382.8 100.65 -383.9 100.65 -385.45 102.4 -386.55 104.05 -387.55 106.25 -387.55 109.9 -387.6 111.15 -385.45 L113.15 -385.55 Q115.1 -385.45 116.55 -384.35 M96.95 -382.45 Q96.95 -379.45 93.6 -374.1 89.75 -368.0 86.1 -368.0 82.85 -368.0 81.9 -369.7 81.6 -370.3 81.6 -371.7 81.6 -372.2 84.0 -375.85 86.7 -379.9 89.3 -382.85 96.95 -391.5 96.95 -382.45 M114.8 -351.9 Q113.8 -351.15 112.8 -351.15 110.9 -351.15 110.4 -352.1 110.25 -352.4 110.25 -353.25 110.25 -355.5 113.15 -356.0 116.0 -356.5 116.0 -353.9 116.0 -352.75 114.8 -351.9 M150.65 -337.85 Q153.5 -338.35 153.5 -335.75 153.5 -334.6 152.3 -333.75 151.3 -333.0 150.35 -333.0 148.45 -333.0 147.9 -333.95 147.75 -334.25 147.75 -335.1 147.75 -337.35 150.65 -337.85 M28.85 -378.9 Q28.85 -375.95 26.6 -375.95 24.7 -375.95 24.3 -377.25 24.1 -377.9 24.3 -378.75 24.3 -381.4 26.6 -381.6 28.85 -381.75 28.85 -378.9 M6.6 -359.6 Q5.0 -359.6 4.5 -360.55 4.35 -360.9 4.35 -361.7 4.35 -364.5 6.95 -365.15 9.5 -365.75 9.5 -362.75 9.5 -361.95 8.9 -361.0 8.1 -359.6 6.6 -359.6 M-230.8 -430.45 Q-229.3 -430.35 -227.9 -429.5 L-228.35 -428.7 Q-229.0 -427.8 -230.15 -427.25 L-231.25 -428.0 Q-232.4 -429.0 -232.4 -430.4 L-230.8 -430.45 M-214.6 -401.15 Q-214.6 -405.6 -210.85 -405.9 -207.1 -406.2 -207.1 -401.4 -207.1 -399.3 -207.9 -398.0 -208.85 -396.5 -210.85 -396.5 -214.1 -396.5 -214.65 -398.65 -214.95 -399.8 -214.6 -401.15 M-172.55 -443.25 Q-169.2 -446.25 -164.45 -445.95 -165.2 -443.7 -167.6 -441.9 L-169.75 -442.05 Q-172.0 -442.4 -172.55 -443.25 M-179.1 -413.4 Q-181.2 -413.4 -181.8 -415.55 L-181.95 -417.6 Q-181.95 -421.15 -179.4 -421.6 -176.85 -422.05 -176.85 -417.45 -176.85 -415.4 -177.0 -414.9 -177.4 -413.4 -179.1 -413.4 M-164.85 -419.85 L-165.0 -421.05 Q-165.0 -423.3 -161.85 -423.8 -158.7 -424.3 -158.7 -421.7 -158.7 -420.45 -159.9 -419.6 -161.0 -418.85 -162.15 -418.85 -164.3 -418.85 -164.85 -419.85 M-112.75 -448.85 Q-111.2 -447.3 -111.2 -444.7 -111.2 -440.55 -116.25 -438.95 L-120.95 -440.65 -121.05 -441.4 -121.15 -444.7 Q-121.15 -447.3 -119.6 -448.85 -118.2 -450.25 -116.15 -450.25 -114.15 -450.25 -112.75 -448.85 M-154.6 -408.0 Q-154.6 -412.0 -150.35 -411.95 -146.1 -411.95 -146.1 -408.15 -146.1 -405.95 -148.1 -405.0 -149.2 -404.5 -150.35 -404.5 -153.5 -404.5 -154.35 -406.1 L-154.6 -408.0 M-122.1 -402.05 L-122.6 -401.65 Q-123.15 -401.3 -124.05 -401.3 -125.9 -401.3 -126.6 -402.95 -126.95 -403.75 -126.9 -404.4 -126.9 -406.7 -124.55 -406.2 -122.25 -405.75 -121.8 -403.7 L-122.1 -402.05 M-83.6 -431.45 Q-83.6 -428.55 -85.95 -428.55 -87.85 -428.55 -88.2 -429.85 -88.4 -430.5 -88.2 -431.3 -88.2 -434.1 -85.9 -434.25 -83.6 -434.4 -83.6 -431.45 M-101.75 -418.25 Q-99.95 -418.05 -97.4 -416.9 L-98.2 -415.2 Q-98.7 -414.5 -99.65 -414.2 L-101.35 -414.6 Q-103.15 -415.15 -103.7 -416.0 L-103.7 -418.25 -101.75 -418.25 M-100.35 -397.75 Q-98.2 -397.55 -96.75 -395.8 -95.1 -393.85 -95.1 -390.75 -95.1 -388.1 -95.85 -387.0 -96.85 -385.5 -99.85 -385.5 -104.2 -385.5 -105.35 -389.0 -105.9 -390.7 -105.6 -392.0 -105.6 -394.95 -103.95 -396.5 -102.45 -397.95 -100.35 -397.75 M-46.35 -447.55 Q-44.35 -446.15 -44.35 -443.85 -44.35 -441.35 -47.05 -439.35 -49.45 -437.6 -51.45 -437.6 -55.6 -437.6 -56.7 -440.35 -57.25 -441.75 -57.0 -443.35 -57.0 -446.05 -55.0 -447.55 -53.25 -448.85 -50.65 -448.85 -48.15 -448.85 -46.35 -447.55 M-44.65 -428.7 Q-43.0 -430.4 -40.75 -430.9 -38.4 -431.45 -36.85 -430.35 -35.1 -429.05 -35.1 -425.95 -35.1 -424.3 -36.5 -421.95 -38.35 -418.85 -41.3 -418.85 -45.05 -418.85 -46.1 -421.6 -46.6 -423.0 -46.4 -424.6 -46.4 -426.85 -44.65 -428.7 M-71.7 -408.9 Q-71.7 -411.35 -69.95 -412.8 -68.35 -414.05 -66.05 -414.05 -63.75 -414.05 -62.15 -412.8 -60.4 -411.4 -60.4 -409.1 -60.4 -406.1 -63.15 -404.85 -64.6 -404.2 -66.15 -404.2 -70.25 -404.2 -71.4 -406.35 -71.7 -407.0 -71.7 -408.9 M-3.6 -415.85 Q-5.5 -415.85 -6.15 -417.85 -6.5 -418.9 -6.45 -420.05 -6.45 -422.8 -3.6 -422.8 -0.75 -422.8 -0.75 -420.5 -1.4 -415.85 -3.6 -415.85 M-327.3 -423.85 Q-327.3 -422.45 -328.65 -421.2 -329.95 -420.1 -331.15 -420.1 -334.0 -420.1 -334.8 -421.75 L-335.05 -423.7 Q-335.05 -427.8 -331.15 -427.8 -327.3 -427.8 -327.3 -423.85 M-333.4 -387.2 Q-333.4 -385.9 -335.25 -384.6 -336.25 -383.85 -338.3 -382.6 L-341.8 -383.85 -341.9 -384.4 -342.05 -386.85 Q-342.05 -391.15 -337.7 -391.15 -333.4 -391.15 -333.4 -387.2 M-334.3 -335.85 Q-337.05 -335.85 -337.8 -337.45 L-338.05 -339.35 Q-338.05 -343.45 -334.2 -343.45 -330.4 -343.4 -330.4 -339.45 -330.4 -337.95 -331.7 -336.85 -332.9 -335.85 -334.3 -335.85 M-19.85 -386.5 Q-23.0 -386.5 -23.6 -388.65 -23.9 -389.8 -23.6 -391.15 -23.6 -396.45 -19.35 -396.15 -17.7 -396.0 -16.45 -394.9 -15.1 -393.7 -15.1 -392.15 -15.1 -390.9 -16.65 -388.8 -18.3 -386.5 -19.85 -386.5 M-23.85 -355.05 Q-25.5 -353.5 -27.35 -353.5 -30.5 -353.5 -31.35 -355.55 -31.8 -356.55 -31.6 -357.75 -31.6 -359.35 -30.1 -360.75 -28.75 -362.1 -26.85 -362.5 -22.1 -363.6 -22.1 -358.75 -22.1 -356.7 -23.85 -355.05 M-46.0 -386.55 L-44.75 -383.85 -45.2 -383.05 Q-45.85 -382.15 -47.0 -381.6 L-50.2 -382.0 Q-51.05 -382.45 -51.05 -385.4 L-51.0 -388.35 -50.6 -389.25 -47.9 -389.25 Q-46.95 -388.3 -46.0 -386.55 M-56.05 -371.75 Q-54.1 -370.1 -54.1 -366.9 -54.1 -364.45 -54.6 -363.5 -55.6 -361.5 -58.85 -361.5 -62.35 -361.5 -64.6 -363.0 -66.6 -364.35 -66.6 -366.0 -66.6 -369.0 -64.65 -371.0 -62.9 -372.8 -60.35 -373.0 -57.8 -373.25 -56.05 -371.75 M-66.35 -353.65 Q-66.55 -354.3 -66.35 -355.1 -66.35 -357.85 -64.1 -358.0 -61.85 -358.15 -61.85 -355.25 -61.85 -352.35 -64.1 -352.35 -66.0 -352.35 -66.35 -353.65 M-67.85 -333.5 Q-71.4 -333.5 -72.35 -335.55 -72.8 -336.55 -72.6 -337.75 -72.6 -340.35 -70.95 -342.55 -69.45 -344.6 -67.35 -345.35 -65.2 -346.1 -63.75 -344.95 -62.1 -343.65 -62.1 -340.25 -62.1 -333.5 -67.85 -333.5 M-117.85 -377.5 Q-121.1 -377.5 -121.65 -379.65 -121.95 -380.8 -121.6 -382.15 -121.6 -387.3 -117.35 -387.8 -115.65 -387.95 -114.45 -387.0 -113.1 -386.0 -113.1 -384.15 -113.1 -382.15 -114.35 -380.0 -115.8 -377.5 -117.85 -377.5 M-86.4 -365.75 Q-86.4 -368.4 -83.8 -368.4 -81.2 -368.4 -81.2 -365.75 -81.2 -364.65 -81.8 -363.95 -82.45 -363.2 -83.75 -363.2 -85.75 -363.2 -86.25 -364.4 -86.5 -365.05 -86.4 -365.75 M-92.4 -349.7 Q-92.1 -349.25 -92.1 -348.45 -92.1 -347.3 -93.6 -346.45 -95.0 -345.65 -96.5 -345.65 -98.9 -345.65 -99.5 -346.6 L-99.65 -347.75 Q-99.65 -349.15 -98.45 -350.05 -97.3 -350.85 -95.55 -350.85 -93.2 -350.85 -92.4 -349.7 M-139.75 -383.45 Q-137.45 -383.45 -137.45 -380.9 -137.45 -378.9 -139.8 -378.3 L-141.9 -379.05 -142.05 -380.9 Q-142.05 -383.45 -139.75 -383.45 M-179.25 -387.2 Q-179.25 -385.85 -180.45 -385.25 L-181.8 -384.95 Q-183.7 -384.95 -184.2 -385.95 L-184.35 -387.15 Q-184.35 -389.5 -181.8 -389.5 -179.25 -389.45 -179.25 -387.2 M-229.0 -388.85 Q-227.5 -388.75 -226.1 -387.9 -226.1 -386.55 -226.25 -385.85 -226.55 -384.75 -227.45 -383.85 L-229.7 -383.85 Q-230.3 -384.75 -230.5 -386.0 L-230.6 -388.8 -229.0 -388.85 M-235.55 -361.05 L-236.0 -362.9 -235.55 -365.6 -234.15 -365.75 -231.05 -365.6 -229.7 -364.25 Q-230.1 -363.1 -231.7 -361.7 -233.55 -360.2 -235.1 -360.2 L-235.55 -361.05 M-259.95 -358.7 L-256.55 -355.85 Q-251.15 -351.2 -251.15 -348.7 L-251.25 -347.15 Q-247.75 -346.7 -245.15 -344.85 -242.05 -342.7 -242.05 -339.85 -242.05 -338.2 -244.1 -335.6 -244.45 -334.55 -246.05 -332.65 -248.05 -330.25 -248.05 -329.2 -248.05 -327.4 -248.95 -326.25 -250.15 -324.6 -252.9 -324.6 -256.55 -324.6 -257.6 -325.35 -258.3 -325.85 -258.3 -327.4 -258.25 -331.5 -263.3 -334.1 -268.65 -336.8 -269.65 -339.2 L-269.9 -344.35 Q-269.9 -347.9 -268.25 -353.7 -266.35 -360.3 -264.4 -360.45 -262.6 -360.6 -259.95 -358.7 M-301.65 -378.45 Q-304.6 -378.45 -305.35 -380.1 L-305.55 -382.1 Q-305.55 -386.05 -301.7 -386.05 -297.9 -386.0 -297.9 -382.2 -297.9 -380.55 -299.15 -379.45 -300.3 -378.45 -301.65 -378.45 M-287.8 -339.45 Q-287.8 -337.95 -289.05 -336.85 -290.2 -335.85 -291.55 -335.85 -294.3 -335.85 -295.05 -337.45 L-295.3 -339.35 Q-295.3 -343.45 -291.55 -343.45 -287.8 -343.4 -287.8 -339.45 M-317.15 -305.9 Q-318.35 -305.35 -319.55 -305.35 -322.7 -305.35 -323.55 -306.95 L-323.8 -308.85 Q-323.8 -312.95 -319.45 -312.95 -315.15 -312.9 -315.15 -308.95 -315.15 -306.85 -317.15 -305.9 M-262.3 -342.85 L-261.55 -342.6 -261.15 -343.65 -262.05 -343.95 -262.3 -342.85 M-268.2 -311.95 Q-264.4 -311.9 -264.4 -307.95 -264.4 -306.45 -265.65 -305.35 -266.85 -304.35 -268.15 -304.35 -271.0 -304.35 -271.8 -305.95 L-272.05 -307.85 Q-272.05 -311.95 -268.2 -311.95 M-250.65 -302.35 Q-250.65 -308.0 -246.85 -307.95 -243.05 -307.95 -243.05 -302.45 -243.05 -300.4 -243.85 -299.0 -244.85 -297.2 -246.8 -297.2 -250.0 -297.2 -250.65 -299.6 -250.95 -300.85 -250.65 -302.35 M-305.8 -276.85 Q-308.55 -276.85 -309.3 -278.5 L-309.55 -280.45 Q-309.55 -284.45 -305.7 -284.4 -301.9 -284.4 -301.9 -280.6 -301.9 -278.95 -303.3 -277.8 -304.55 -276.85 -305.8 -276.85" fill="#4f7329" fill-opacity="0.49803922" fill-rule="evenodd" stroke="none"/>
    <path d="M113.9 -424.0 Q113.9 -423.0 113.3 -422.1 112.45 -420.9 110.8 -420.9 108.2 -420.9 106.5 -423.15 105.3 -424.75 105.3 -425.6 105.3 -429.4 109.6 -428.55 113.9 -427.7 113.9 -424.0 M83.1 -407.3 Q83.1 -411.45 87.4 -411.4 91.7 -411.35 91.7 -408.3 91.7 -406.9 90.1 -405.7 88.45 -404.5 86.2 -404.5 83.95 -404.5 83.3 -405.8 83.1 -406.2 83.1 -407.3 M96.5 -402.0 Q93.9 -402.0 93.2 -403.35 93.0 -403.75 93.0 -404.9 93.0 -407.9 96.5 -408.65 100.0 -409.4 100.0 -405.5 100.0 -404.0 99.15 -403.05 98.2 -402.0 96.5 -402.0 M152.9 -379.4 Q152.9 -383.0 157.2 -382.8 161.5 -382.55 161.5 -379.5 161.5 -377.6 159.9 -376.9 L157.2 -376.5 Q153.95 -376.5 153.1 -377.85 152.9 -378.15 152.9 -379.4 M124.2 -358.8 Q123.9 -359.8 124.2 -361.0 124.2 -364.85 128.5 -366.4 L131.45 -366.5 Q132.8 -365.85 132.8 -363.9 132.8 -361.25 131.8 -359.3 130.55 -356.8 128.1 -356.8 124.85 -356.8 124.2 -358.8 M154.8 -360.95 Q158.3 -361.6 158.3 -358.2 158.3 -357.35 157.2 -356.0 155.9 -354.4 154.4 -354.4 L152.75 -354.65 151.5 -355.4 151.4 -355.55 151.3 -357.2 Q151.3 -360.35 154.8 -360.95 M49.95 -395.25 L54.1 -395.8 Q57.7 -395.8 58.95 -394.8 59.7 -394.2 59.7 -392.7 59.7 -390.75 57.5 -389.3 55.55 -388.0 53.7 -388.0 50.1 -388.0 49.0 -390.15 48.45 -391.2 48.6 -392.5 48.6 -394.55 49.95 -395.25 M-166.35 -374.75 L-166.45 -375.3 -166.6 -377.75 Q-166.6 -382.0 -162.85 -382.0 -159.1 -382.0 -159.1 -377.75 -159.1 -374.7 -162.85 -373.5 L-166.35 -374.75" fill="#4f7329" fill-opacity="0.2" fill-rule="evenodd" stroke="none"/>
    <path d="M382.75 -375.85 Q380.9 -375.4 379.5 -374.5 L378.85 -375.45 383.55 -387.05 Q385.5 -392.95 385.5 -399.45 385.5 -408.45 374.65 -410.7 L365.2 -411.75 356.7 -412.4 Q356.8 -413.45 358.6 -418.15 360.3 -422.55 360.3 -425.9 360.3 -430.65 359.4 -432.2 358.35 -434.0 354.9 -434.0 353.35 -434.0 349.55 -432.3 346.15 -430.8 344.1 -431.3 L345.35 -438.35 345.9 -444.35 Q345.9 -456.75 337.8 -464.5 334.7 -467.45 331.5 -468.8 L331.4 -469.8 Q333.55 -471.45 336.05 -472.1 L347.7 -472.7 Q354.35 -472.7 357.1 -470.65 359.45 -468.9 359.65 -464.95 L359.15 -456.35 Q358.65 -450.15 359.4 -445.7 L359.4 -444.8 Q361.0 -447.45 363.5 -448.15 L367.05 -448.4 Q370.2 -448.4 374.75 -443.0 379.2 -437.7 379.2 -434.45 379.2 -432.8 378.65 -429.9 L377.4 -425.0 377.4 -424.1 Q378.95 -424.8 383.55 -427.35 387.65 -429.5 388.65 -429.5 395.25 -429.5 399.05 -418.7 401.7 -411.2 401.7 -405.75 401.7 -396.15 395.7 -388.1 391.45 -382.45 382.75 -375.85 L388.2 -376.5 Q412.4 -376.5 412.4 -355.35 412.4 -351.75 409.8 -347.7 413.95 -346.45 417.65 -341.15 421.4 -335.8 421.4 -330.75 421.4 -323.7 414.1 -314.7 407.8 -307.0 401.7 -303.75 L401.7 -302.85 Q411.25 -305.8 413.45 -300.25 414.25 -298.25 414.3 -294.5 L414.2 -288.0 Q414.2 -276.3 413.6 -273.45 411.6 -264.35 403.5 -262.35 405.3 -262.35 408.55 -264.6 411.85 -266.85 412.85 -266.85 415.45 -266.85 416.0 -264.1 L416.0 -260.55 Q416.0 -249.05 398.45 -239.8 394.6 -237.75 384.65 -233.4 376.95 -230.05 374.7 -228.25 L373.8 -228.25 Q378.95 -238.2 388.9 -253.25 396.3 -265.6 396.3 -274.95 396.3 -279.8 394.05 -282.55 392.75 -284.1 389.1 -286.15 385.55 -288.15 384.15 -290.05 381.9 -293.05 381.9 -298.35 381.9 -300.25 385.0 -302.95 L391.8 -308.8 Q401.7 -318.5 401.7 -333.45 401.7 -339.05 392.8 -343.25 384.1 -347.35 379.2 -345.0 L384.5 -352.7 Q386.4 -356.1 386.4 -360.3 386.4 -365.55 383.35 -369.4 L380.0 -373.8 382.75 -375.85 M329.9 -481.9 L324.15 -486.85 Q319.05 -491.5 314.1 -491.5 309.2 -491.5 305.6 -489.35 303.05 -487.8 299.8 -484.35 L297.95 -487.5 Q293.45 -494.2 290.25 -494.2 285.9 -494.2 281.1 -490.65 L277.3 -496.1 Q272.25 -502.3 266.4 -502.3 260.6 -502.3 255.1 -498.35 252.6 -496.55 250.0 -493.75 L245.85 -499.45 Q242.3 -503.2 236.25 -503.2 228.95 -503.2 224.4 -500.95 218.05 -497.85 217.45 -490.6 L216.55 -490.6 Q215.0 -495.85 210.45 -498.4 206.7 -500.5 201.7 -500.5 183.85 -500.5 175.2 -483.05 175.7 -486.6 178.05 -491.35 181.35 -498.05 187.15 -505.0 193.0 -512.05 199.0 -516.45 205.6 -521.2 210.25 -521.2 212.6 -521.2 216.2 -519.3 220.65 -516.95 220.15 -514.0 222.85 -515.2 228.5 -519.4 234.2 -523.0 240.3 -523.0 248.15 -523.0 251.05 -517.35 251.65 -516.2 252.95 -510.8 257.15 -512.2 262.0 -514.8 265.55 -516.7 270.9 -516.7 276.5 -516.7 283.0 -511.1 289.75 -504.4 292.95 -502.3 292.6 -507.65 293.55 -509.25 294.8 -511.3 299.7 -511.3 304.2 -511.3 307.65 -506.05 310.45 -500.35 310.95 -499.6 312.65 -501.95 314.05 -503.1 316.4 -505.0 319.05 -505.0 325.15 -505.0 327.5 -498.85 L329.3 -486.2 329.9 -481.9 M-197.6 -486.6 L-198.0 -488.95 -198.3 -491.9 Q-198.3 -496.8 -194.6 -499.8 -191.75 -502.1 -189.05 -502.1 -182.9 -502.1 -172.65 -490.95 -164.35 -481.9 -162.9 -478.35 L-162.45 -478.55 -161.9 -478.8 Q-161.9 -480.0 -163.55 -485.55 -165.2 -491.15 -165.2 -492.55 -165.2 -498.6 -160.55 -503.1 -156.7 -506.8 -153.75 -506.8 -147.55 -506.8 -142.1 -498.05 L-139.5 -493.3 Q-137.75 -496.55 -135.35 -499.0 -131.85 -502.65 -129.0 -502.65 -124.95 -502.65 -121.6 -497.85 L-117.1 -489.5 -117.1 -489.25 Q-116.95 -494.25 -110.8 -499.15 -105.25 -503.55 -101.95 -503.55 -90.15 -503.55 -80.0 -493.75 -76.3 -490.2 -71.4 -484.0 L-63.0 -473.2 Q-59.1 -473.15 -56.75 -468.3 L-54.05 -461.05 Q-56.75 -465.2 -61.1 -468.7 -65.15 -471.95 -73.25 -476.45 -77.35 -478.7 -81.4 -483.95 -86.25 -488.1 -97.95 -488.1 -106.05 -488.1 -111.2 -481.3 -114.55 -476.9 -117.55 -467.6 -118.05 -467.6 -118.05 -467.1 -119.1 -469.35 -121.7 -472.2 -125.5 -476.3 -129.25 -476.9 -133.65 -477.6 -136.8 -478.85 -139.0 -479.7 -142.3 -479.7 -146.5 -479.7 -153.5 -475.65 -160.15 -471.85 -161.9 -469.0 -164.8 -470.35 -172.5 -478.4 -180.9 -485.8 -189.7 -485.8 -196.0 -485.8 -198.0 -480.8 -198.6 -479.2 -199.0 -476.5 L-199.7 -472.7 -206.5 -476.7 Q-210.5 -479.25 -215.15 -479.25 -220.35 -479.25 -223.5 -476.05 -226.8 -472.7 -226.8 -466.9 -226.8 -464.75 -225.85 -461.5 -225.1 -458.85 -224.0 -456.4 L-224.0 -455.9 Q-227.75 -463.7 -228.95 -466.95 -231.0 -472.5 -231.0 -477.35 L-230.9 -480.55 -230.7 -481.6 -230.75 -481.85 -231.0 -485.8 Q-231.0 -493.1 -224.0 -498.85 -217.85 -504.0 -212.1 -504.0 -204.85 -504.0 -201.7 -497.4 -199.35 -489.7 -197.6 -486.6 L-197.4 -485.8 -197.4 -486.25 -197.6 -486.6 M-265.05 -455.0 Q-265.65 -457.45 -266.9 -461.05 -267.85 -464.25 -267.85 -467.65 -267.85 -474.3 -262.75 -477.9 -258.75 -480.7 -253.85 -480.7 -249.6 -480.7 -241.6 -474.25 -233.4 -466.95 -231.0 -465.3 -237.05 -465.85 -243.6 -460.75 -251.55 -454.55 -251.55 -444.5 -251.55 -440.55 -249.2 -437.75 -246.55 -435.25 -245.9 -434.0 -252.5 -436.95 -257.6 -427.95 -261.8 -420.5 -261.8 -413.7 -261.8 -409.3 -257.65 -403.85 L-263.9 -407.7 -266.4 -409.35 -266.95 -409.65 Q-270.8 -412.75 -273.55 -418.35 -277.65 -426.65 -277.65 -435.65 -277.65 -446.15 -276.1 -448.85 -274.1 -452.45 -265.05 -455.0 M-269.0 -400.85 Q-263.55 -400.85 -259.25 -398.05 L-254.05 -394.2 -257.4 -394.8 Q-267.1 -394.8 -272.55 -384.5 -276.3 -377.35 -276.3 -371.45 L-276.3 -370.9 Q-280.3 -374.4 -281.1 -375.45 -284.2 -379.6 -284.2 -387.1 -284.2 -394.9 -278.1 -398.5 -274.05 -400.85 -269.0 -400.85 M-320.2 -290.05 Q-327.35 -296.2 -328.95 -298.4 -331.35 -301.7 -331.35 -307.25 -331.35 -316.3 -328.0 -318.45 -326.4 -319.5 -315.45 -321.05 -318.75 -322.85 -321.45 -326.55 -324.35 -330.5 -324.35 -333.9 -324.35 -337.65 -317.8 -340.65 -313.4 -342.65 -311.2 -342.9 L-311.6 -344.25 Q-312.65 -348.15 -312.65 -352.55 -312.65 -362.55 -306.6 -367.7 -302.15 -371.45 -296.8 -371.45 -291.05 -371.45 -283.95 -366.8 L-274.6 -360.25 -276.75 -360.25 Q-293.05 -353.2 -293.05 -343.45 -293.05 -340.75 -291.8 -338.1 -290.9 -336.15 -289.8 -335.05 L-291.65 -335.05 -293.55 -335.65 -295.65 -335.95 Q-300.4 -335.95 -305.15 -330.85 -309.85 -325.8 -309.85 -321.05 -309.85 -314.9 -305.65 -312.65 L-305.65 -312.15 Q-308.3 -313.1 -309.85 -313.1 -314.45 -313.1 -317.75 -307.95 -320.55 -303.55 -320.55 -299.4 -320.55 -297.3 -318.85 -293.15 L-317.05 -288.95 Q-317.95 -289.65 -319.75 -289.95 L-320.2 -290.05 -318.75 -288.8 -317.0 -288.8 -316.85 -288.35 -317.3 -287.9 Q-318.3 -288.9 -319.65 -288.9 -322.55 -288.9 -325.75 -282.75 -328.5 -277.4 -328.5 -275.1 -328.5 -271.55 -323.8 -266.15 -318.45 -260.7 -317.3 -258.95 L-321.5 -258.2 Q-324.3 -257.35 -324.3 -254.3 -324.3 -252.7 -322.3 -251.05 L-319.75 -249.2 -322.45 -245.15 Q-325.25 -240.0 -325.25 -237.35 -325.25 -231.4 -320.1 -224.85 -318.8 -223.15 -312.65 -217.0 -317.7 -218.0 -322.8 -208.6 -327.6 -199.7 -327.6 -191.55 -327.6 -182.1 -319.25 -175.65 -316.55 -173.55 -312.55 -171.5 L-307.5 -168.9 Q-309.55 -168.0 -310.7 -165.7 -311.7 -163.65 -311.7 -161.0 -311.7 -155.85 -302.95 -146.2 L-296.3 -139.4 -296.65 -139.45 Q-304.25 -140.25 -310.75 -141.85 -331.3 -146.85 -331.3 -157.25 -331.3 -162.45 -327.8 -166.65 -324.3 -169.9 -324.3 -170.6 -324.3 -171.15 -327.05 -173.75 -331.0 -177.45 -333.15 -179.95 -342.05 -190.2 -342.05 -201.15 -342.05 -207.3 -338.85 -210.75 -335.6 -214.2 -328.5 -215.6 -334.95 -219.55 -339.85 -227.1 -344.85 -234.9 -344.85 -241.5 -344.85 -247.45 -339.05 -251.55 -334.35 -254.85 -330.15 -253.8 -331.55 -254.4 -332.6 -255.4 -334.55 -257.25 -334.55 -259.5 -334.55 -260.65 -330.35 -261.8 L-329.15 -262.1 Q-332.9 -265.5 -334.75 -268.55 -336.95 -272.2 -336.95 -276.45 -336.95 -283.65 -331.35 -287.45 -327.2 -290.25 -322.5 -290.25 L-320.2 -290.05 M-327.6 -252.95 L-328.45 -253.15 -328.05 -252.95 -327.6 -252.95" fill="#503700" fill-opacity="0.4509804" fill-rule="evenodd" stroke="none"/>
  </g>
</svg>
