<?xml version="1.0" encoding="UTF-8" standalone="no"?>
<svg xmlns:ffdec="https://www.free-decompiler.com/flash" xmlns:xlink="http://www.w3.org/1999/xlink" ffdec:objectType="shape" height="233.25px" width="619.9px" xmlns="http://www.w3.org/2000/svg">
  <g transform="matrix(1.0, 0.0, 0.0, 1.0, 342.05, 311.1)">
    <path d="M164.2 -266.55 Q163.25 -264.4 160.75 -264.4 156.55 -264.4 155.15 -267.35 154.45 -268.75 154.6 -269.8 154.6 -271.4 156.2 -272.45 157.65 -273.4 159.65 -273.45 164.7 -273.5 164.7 -269.0 164.7 -267.65 164.2 -266.55 M180.85 -251.8 Q177.6 -251.8 176.95 -254.25 176.6 -255.55 176.9 -257.05 176.9 -262.55 181.4 -262.25 183.15 -262.1 184.45 -260.85 185.85 -259.5 185.85 -257.6 185.85 -255.5 184.3 -253.65 182.7 -251.8 180.85 -251.8 M178.65 -206.85 Q177.65 -205.4 176.7 -205.4 174.8 -205.4 174.15 -206.85 173.85 -207.5 173.85 -208.5 173.85 -210.95 176.7 -211.1 179.55 -211.25 179.55 -208.85 179.55 -208.15 178.65 -206.85 M212.8 -208.9 Q214.8 -207.35 214.8 -205.1 214.8 -203.2 212.85 -200.6 210.7 -197.7 208.4 -197.7 204.35 -197.7 202.85 -201.05 202.15 -202.65 202.15 -204.8 202.15 -207.8 204.15 -209.35 205.85 -210.7 208.5 -210.5 211.0 -210.35 212.8 -208.9 M237.35 -204.95 L235.65 -205.35 Q233.85 -205.9 233.3 -206.75 L233.3 -209.0 235.3 -209.0 Q237.1 -208.8 239.85 -207.65 L239.05 -205.95 Q238.45 -205.25 237.35 -204.95 M137.2 -303.55 Q137.2 -300.05 137.0 -299.4 136.35 -297.6 133.25 -296.2 L129.55 -297.5 Q129.45 -299.05 128.25 -302.9 127.1 -306.5 127.1 -307.85 127.1 -309.85 128.7 -310.7 L132.15 -310.8 Q137.2 -309.25 137.2 -303.55 M77.7 -303.1 Q82.2 -303.1 82.2 -298.95 82.2 -296.6 80.1 -295.65 78.95 -295.15 77.6 -295.15 74.3 -295.15 73.4 -296.8 73.15 -297.3 73.15 -298.8 73.15 -303.1 77.7 -303.1 M63.7 -278.25 Q62.75 -276.1 60.25 -276.1 58.7 -276.1 58.05 -276.45 L56.45 -277.4 56.35 -278.0 Q56.2 -278.9 56.2 -280.55 56.2 -285.0 60.2 -285.0 64.2 -285.0 64.2 -280.55 64.2 -279.3 63.7 -278.25 M77.7 -278.7 Q82.2 -278.7 82.2 -274.25 82.2 -272.3 81.2 -271.15 80.0 -269.8 77.6 -269.8 74.3 -269.8 73.4 -271.95 72.95 -273.0 73.15 -274.25 73.15 -278.7 77.7 -278.7 M45.25 -256.6 Q44.05 -256.05 42.7 -256.05 39.45 -256.05 38.5 -257.7 38.2 -258.3 38.2 -259.7 38.2 -263.8 42.75 -263.85 47.3 -263.9 47.3 -259.85 47.3 -257.6 45.25 -256.6 M20.55 -273.8 Q18.95 -273.8 18.45 -274.8 18.3 -275.15 18.3 -276.0 18.3 -278.5 22.4 -279.45 26.45 -280.4 26.45 -277.25 26.45 -276.3 24.85 -275.15 23.0 -273.8 20.55 -273.8 M32.25 -296.4 Q32.25 -300.45 34.7 -298.95 37.05 -297.55 37.95 -294.35 L37.65 -292.7 37.15 -292.3 Q36.6 -291.95 35.7 -291.95 34.4 -291.95 33.2 -294.15 32.6 -295.25 32.25 -296.4 M13.2 -237.1 Q12.45 -236.45 10.0 -235.1 L6.5 -236.35 6.4 -236.9 Q6.25 -237.8 6.25 -239.35 6.25 -243.65 10.5 -243.6 14.75 -243.5 14.75 -239.75 14.75 -238.35 13.2 -237.1 M9.5 -204.35 Q9.5 -203.55 8.9 -202.6 8.1 -201.2 6.6 -201.2 5.0 -201.2 4.5 -202.15 4.35 -202.5 4.35 -203.3 4.35 -206.1 6.95 -206.75 9.5 -207.35 9.5 -204.35 M24.3 -218.85 Q24.1 -219.5 24.3 -220.35 24.3 -223.0 26.6 -223.2 28.85 -223.35 28.85 -220.5 28.85 -217.55 26.6 -217.55 24.7 -217.55 24.3 -218.85 M49.95 -236.85 L54.1 -237.4 Q57.7 -237.4 58.95 -236.4 59.7 -235.8 59.7 -234.3 59.7 -232.35 57.5 -230.9 55.55 -229.6 53.7 -229.6 50.1 -229.6 49.0 -231.75 48.45 -232.8 48.6 -234.1 48.6 -236.15 49.95 -236.85 M132.75 -266.05 Q135.1 -261.9 135.1 -259.55 135.1 -257.35 130.65 -252.85 126.35 -248.55 124.7 -248.55 124.0 -248.55 118.7 -253.45 113.45 -258.3 113.45 -258.65 113.45 -263.0 116.0 -268.05 119.65 -275.2 125.75 -272.45 128.1 -272.2 130.35 -269.55 130.55 -273.3 135.35 -274.1 140.35 -274.95 140.35 -270.45 140.35 -268.75 138.65 -267.5 137.4 -266.65 134.3 -265.5 L132.75 -266.05 M123.95 -263.9 Q123.55 -263.7 122.9 -262.2 122.2 -260.65 121.85 -258.9 L123.85 -259.05 Q125.3 -259.4 126.05 -259.95 125.55 -262.7 123.95 -263.9 M148.05 -256.0 Q144.05 -256.0 142.55 -258.85 141.8 -260.25 141.85 -261.25 141.85 -265.3 146.9 -264.5 151.95 -263.65 151.95 -260.1 151.95 -258.5 150.9 -257.3 149.8 -256.0 148.05 -256.0 M142.15 -250.15 Q143.55 -248.85 143.55 -247.1 143.55 -245.7 141.9 -243.55 140.05 -241.2 138.45 -241.2 135.15 -241.2 134.5 -243.45 134.2 -244.65 134.5 -246.05 134.5 -251.8 139.05 -251.5 140.8 -251.35 142.15 -250.15 M89.85 -296.65 Q93.85 -296.65 93.85 -292.25 93.85 -289.4 89.8 -287.65 L86.15 -289.1 86.0 -289.7 Q85.85 -290.6 85.85 -292.25 85.85 -296.65 89.85 -296.65 M91.7 -249.9 Q91.7 -248.5 90.1 -247.3 88.45 -246.1 86.2 -246.1 83.95 -246.1 83.3 -247.4 83.1 -247.8 83.1 -248.9 83.1 -253.05 87.4 -253.0 91.7 -252.95 91.7 -249.9 M109.6 -270.15 Q113.9 -269.3 113.9 -265.6 113.9 -264.6 113.3 -263.7 112.45 -262.5 110.8 -262.5 108.2 -262.5 106.5 -264.75 105.3 -266.35 105.3 -267.2 105.3 -271.0 109.6 -270.15 M105.0 -239.35 Q105.0 -243.75 108.95 -243.75 112.85 -243.75 112.85 -239.35 112.85 -236.25 108.9 -234.75 L105.1 -236.2 105.0 -239.35 M111.15 -227.05 L113.15 -227.15 Q115.1 -227.05 116.55 -225.95 118.1 -224.75 118.1 -223.0 118.1 -220.7 116.0 -219.7 114.65 -219.05 113.1 -219.05 110.0 -219.05 108.8 -220.25 L107.35 -220.1 Q102.7 -220.1 101.2 -223.0 100.45 -224.4 100.65 -225.5 100.65 -227.05 102.4 -228.15 104.05 -229.15 106.25 -229.15 109.9 -229.2 111.15 -227.05 M93.2 -244.95 Q93.0 -245.35 93.0 -246.5 93.0 -249.5 96.5 -250.25 100.0 -251.0 100.0 -247.1 100.0 -245.6 99.15 -244.65 98.2 -243.6 96.5 -243.6 93.9 -243.6 93.2 -244.95 M96.95 -224.05 Q96.95 -221.05 93.6 -215.7 89.75 -209.6 86.1 -209.6 82.85 -209.6 81.9 -211.3 81.6 -211.9 81.6 -213.3 81.6 -213.8 84.0 -217.45 86.7 -221.5 89.3 -224.45 96.95 -233.1 96.95 -224.05 M131.8 -200.9 Q130.55 -198.4 128.1 -198.4 124.85 -198.4 124.2 -200.4 123.9 -201.4 124.2 -202.6 124.2 -206.45 128.5 -208.0 L131.45 -208.1 Q132.8 -207.45 132.8 -205.5 132.8 -202.85 131.8 -200.9 M159.9 -218.5 L157.2 -218.1 Q153.95 -218.1 153.1 -219.45 152.9 -219.75 152.9 -221.0 152.9 -224.6 157.2 -224.4 161.5 -224.15 161.5 -221.1 161.5 -219.2 159.9 -218.5 M158.3 -199.8 Q158.3 -198.95 157.2 -197.6 155.9 -196.0 154.4 -196.0 L152.75 -196.25 151.5 -197.0 151.4 -197.15 151.3 -198.8 Q151.3 -201.95 154.8 -202.55 158.3 -203.2 158.3 -199.8 M147.9 -175.55 Q147.75 -175.85 147.75 -176.7 147.75 -178.95 150.65 -179.45 153.5 -179.95 153.5 -177.35 153.5 -176.2 152.3 -175.35 151.3 -174.6 150.35 -174.6 148.45 -174.6 147.9 -175.55 M114.8 -193.5 Q113.8 -192.75 112.8 -192.75 110.9 -192.75 110.4 -193.7 110.25 -194.0 110.25 -194.85 110.25 -197.1 113.15 -197.6 116.0 -198.1 116.0 -195.5 116.0 -194.35 114.8 -193.5 M268.65 -174.9 Q265.65 -174.9 262.95 -178.65 260.85 -181.65 260.85 -182.7 260.85 -185.2 262.85 -186.6 264.7 -187.85 267.3 -187.7 269.9 -187.55 271.7 -186.05 273.7 -184.3 273.7 -181.5 273.7 -174.9 268.65 -174.9 M250.5 -185.7 Q250.2 -184.5 249.3 -183.6 L245.7 -183.6 245.05 -184.2 Q244.35 -184.55 244.35 -187.2 244.35 -190.0 244.6 -189.65 L244.8 -188.75 Q245.85 -189.8 249.3 -189.2 L250.65 -187.85 250.5 -185.7 M261.3 -155.55 Q262.9 -156.8 265.25 -156.8 267.6 -156.8 269.2 -155.55 271.0 -154.1 271.0 -151.65 271.0 -148.85 268.3 -147.6 266.75 -146.9 265.25 -146.9 261.3 -146.9 260.0 -149.45 L259.5 -151.65 Q259.5 -154.1 261.3 -155.55 M245.95 -127.15 Q247.45 -127.05 248.85 -126.2 L248.7 -124.0 Q248.4 -122.85 247.5 -121.95 L245.25 -121.95 Q244.65 -122.85 244.45 -124.1 L244.35 -127.1 245.95 -127.15 M245.5 -100.85 Q245.5 -99.15 243.45 -97.4 242.1 -96.25 239.25 -94.75 L234.55 -96.45 234.4 -97.2 234.2 -100.5 Q234.2 -103.2 235.95 -104.7 237.55 -106.05 239.85 -106.05 242.15 -106.05 243.75 -104.7 245.5 -103.25 245.5 -100.85 M276.5 -114.75 L277.85 -113.4 Q277.45 -112.25 275.85 -110.85 274.0 -109.35 272.45 -109.35 L271.9 -109.0 Q271.35 -109.25 271.35 -112.05 L271.45 -114.6 Q271.8 -114.35 272.0 -114.75 L273.4 -114.9 276.5 -114.75 M212.7 -178.9 Q215.25 -178.35 215.25 -176.3 215.25 -175.4 214.65 -174.75 213.95 -174.0 212.7 -174.0 210.8 -174.0 210.3 -175.2 210.05 -175.85 210.15 -176.55 210.15 -179.4 212.7 -178.9 M224.05 -162.6 Q222.8 -164.5 222.2 -166.5 222.2 -169.55 224.2 -170.75 225.9 -171.8 228.55 -171.15 231.05 -170.55 232.9 -168.85 234.9 -167.0 234.9 -164.95 234.9 -162.5 233.85 -160.9 232.55 -158.9 229.8 -158.9 226.55 -158.9 224.05 -162.6 M190.8 -188.75 Q190.8 -192.2 192.9 -194.15 194.8 -195.9 197.55 -195.9 200.3 -195.85 202.2 -194.1 204.3 -192.2 204.3 -189.0 204.3 -186.1 202.1 -184.1 200.05 -182.25 197.55 -182.25 192.75 -182.25 191.3 -185.25 190.8 -186.3 190.8 -188.75 M169.15 -179.65 Q170.75 -180.95 173.05 -180.9 175.35 -180.9 176.95 -179.6 178.7 -178.15 178.7 -175.75 178.7 -172.8 176.0 -171.55 174.55 -170.85 172.95 -170.85 168.9 -170.85 167.8 -173.05 167.4 -173.75 167.4 -175.6 167.4 -178.15 169.15 -179.65 M187.85 -171.3 Q190.4 -171.3 190.4 -168.9 190.4 -168.05 189.5 -167.3 188.95 -166.85 187.55 -166.1 L185.45 -166.85 185.3 -168.65 Q185.3 -171.3 187.85 -171.3 M197.7 -152.3 Q196.65 -151.55 195.75 -151.55 193.85 -151.55 193.35 -152.55 193.2 -152.85 193.2 -153.75 193.2 -156.0 196.05 -156.5 198.9 -157.0 198.9 -154.4 198.9 -153.2 197.7 -152.3 M276.15 -88.05 Q274.75 -86.65 272.7 -86.65 269.1 -86.65 268.0 -88.85 267.6 -89.65 267.6 -91.4 L267.65 -92.0 266.6 -92.4 266.45 -93.15 266.25 -96.45 Q266.25 -100.55 269.2 -101.45 272.55 -102.5 276.2 -96.45 L276.1 -95.35 Q277.55 -93.9 277.55 -91.55 277.55 -89.45 276.15 -88.05 M268.65 -82.55 L268.5 -80.5 Q268.2 -79.4 267.3 -78.5 L263.25 -78.5 262.8 -77.85 Q262.35 -77.75 262.35 -80.55 262.35 -83.4 264.25 -83.35 L268.65 -82.55 M-327.3 -265.45 Q-327.3 -264.05 -328.65 -262.8 -329.95 -261.7 -331.15 -261.7 -334.0 -261.7 -334.8 -263.35 L-335.05 -265.3 Q-335.05 -269.4 -331.15 -269.4 -327.3 -269.4 -327.3 -265.45 M-333.4 -228.8 Q-333.4 -227.5 -335.25 -226.2 -336.25 -225.45 -338.3 -224.2 L-341.8 -225.45 -341.9 -226.0 -342.05 -228.45 Q-342.05 -232.75 -337.7 -232.75 -333.4 -232.75 -333.4 -228.8 M-334.3 -177.45 Q-337.05 -177.45 -337.8 -179.05 L-338.05 -180.95 Q-338.05 -185.05 -334.2 -185.05 -330.4 -185.0 -330.4 -181.05 -330.4 -179.55 -331.7 -178.45 -332.9 -177.45 -334.3 -177.45 M-85.9 -275.85 Q-83.6 -276.0 -83.6 -273.05 -83.6 -270.15 -85.95 -270.15 -87.85 -270.15 -88.2 -271.45 -88.4 -272.1 -88.2 -272.9 -88.2 -275.7 -85.9 -275.85 M-120.95 -282.25 L-121.05 -283.0 -121.15 -286.3 Q-121.15 -288.9 -119.6 -290.45 -118.2 -291.85 -116.15 -291.85 -114.15 -291.85 -112.75 -290.45 -111.2 -288.9 -111.2 -286.3 -111.2 -282.15 -116.25 -280.55 L-120.95 -282.25 M-103.7 -257.6 L-103.7 -259.85 -101.75 -259.85 Q-99.95 -259.65 -97.4 -258.5 L-98.2 -256.8 Q-98.7 -256.1 -99.65 -255.8 L-101.35 -256.2 Q-103.15 -256.75 -103.7 -257.6 M-159.9 -261.2 Q-161.0 -260.45 -162.15 -260.45 -164.3 -260.45 -164.85 -261.45 L-165.0 -262.65 Q-165.0 -264.9 -161.85 -265.4 -158.7 -265.9 -158.7 -263.3 -158.7 -262.05 -159.9 -261.2 M-154.6 -249.6 Q-154.6 -253.6 -150.35 -253.55 -146.1 -253.55 -146.1 -249.75 -146.1 -247.55 -148.1 -246.6 -149.2 -246.1 -150.35 -246.1 -153.5 -246.1 -154.35 -247.7 L-154.6 -249.6 M-122.6 -243.25 Q-123.15 -242.9 -124.05 -242.9 -125.9 -242.9 -126.6 -244.55 -126.95 -245.35 -126.9 -246.0 -126.9 -248.3 -124.55 -247.8 -122.25 -247.35 -121.8 -245.3 L-122.1 -243.65 -122.6 -243.25 M-142.05 -222.5 Q-142.05 -225.05 -139.75 -225.05 -137.45 -225.05 -137.45 -222.5 -137.45 -220.5 -139.8 -219.9 L-141.9 -220.65 -142.05 -222.5 M-121.6 -223.75 Q-121.6 -228.9 -117.35 -229.4 -115.65 -229.55 -114.45 -228.6 -113.1 -227.6 -113.1 -225.75 -113.1 -223.75 -114.35 -221.6 -115.8 -219.1 -117.85 -219.1 -121.1 -219.1 -121.65 -221.25 -121.95 -222.4 -121.6 -223.75 M-96.75 -237.4 Q-95.1 -235.45 -95.1 -232.35 -95.1 -229.7 -95.85 -228.6 -96.85 -227.1 -99.85 -227.1 -104.2 -227.1 -105.35 -230.6 -105.9 -232.3 -105.6 -233.6 -105.6 -236.55 -103.95 -238.1 -102.45 -239.55 -100.35 -239.35 -98.2 -239.15 -96.75 -237.4 M-86.25 -206.0 Q-86.5 -206.65 -86.4 -207.35 -86.4 -210.0 -83.8 -210.0 -81.2 -210.0 -81.2 -207.35 -81.2 -206.25 -81.8 -205.55 -82.45 -204.8 -83.75 -204.8 -85.75 -204.8 -86.25 -206.0 M-3.6 -257.45 Q-5.5 -257.45 -6.15 -259.45 -6.5 -260.5 -6.45 -261.65 -6.45 -264.4 -3.6 -264.4 -0.75 -264.4 -0.75 -262.1 -1.4 -257.45 -3.6 -257.45 M-36.5 -263.55 Q-38.35 -260.45 -41.3 -260.45 -45.05 -260.45 -46.1 -263.2 -46.6 -264.6 -46.4 -266.2 -46.4 -268.45 -44.65 -270.3 -43.0 -272.0 -40.75 -272.5 -38.4 -273.05 -36.85 -271.95 -35.1 -270.65 -35.1 -267.55 -35.1 -265.9 -36.5 -263.55 M-44.35 -285.45 Q-44.35 -282.95 -47.05 -280.95 -49.45 -279.2 -51.45 -279.2 -55.6 -279.2 -56.7 -281.95 -57.25 -283.35 -57.0 -284.95 -57.0 -287.65 -55.0 -289.15 -53.25 -290.45 -50.65 -290.45 -48.15 -290.45 -46.35 -289.15 -44.35 -287.75 -44.35 -285.45 M-62.15 -254.4 Q-60.4 -253.0 -60.4 -250.7 -60.4 -247.7 -63.15 -246.45 -64.6 -245.8 -66.15 -245.8 -70.25 -245.8 -71.4 -247.95 -71.7 -248.6 -71.7 -250.5 -71.7 -252.95 -69.95 -254.4 -68.35 -255.65 -66.05 -255.65 -63.75 -255.65 -62.15 -254.4 M-51.0 -229.95 L-50.6 -230.85 -47.9 -230.85 Q-46.95 -229.9 -46.0 -228.15 L-44.75 -225.45 -45.2 -224.65 Q-45.85 -223.75 -47.0 -223.2 L-50.2 -223.6 Q-51.05 -224.05 -51.05 -227.0 L-51.0 -229.95 M-66.6 -207.6 Q-66.6 -210.6 -64.65 -212.6 -62.9 -214.4 -60.35 -214.6 -57.8 -214.85 -56.05 -213.35 -54.1 -211.7 -54.1 -208.5 -54.1 -206.05 -54.6 -205.1 -55.6 -203.1 -58.85 -203.1 -62.35 -203.1 -64.6 -204.6 -66.6 -205.95 -66.6 -207.6 M-16.45 -236.5 Q-15.1 -235.3 -15.1 -233.75 -15.1 -232.5 -16.65 -230.4 -18.3 -228.1 -19.85 -228.1 -23.0 -228.1 -23.6 -230.25 -23.9 -231.4 -23.6 -232.75 -23.6 -238.05 -19.35 -237.75 -17.7 -237.6 -16.45 -236.5 M-30.1 -202.35 Q-28.75 -203.7 -26.85 -204.1 -22.1 -205.2 -22.1 -200.35 -22.1 -198.3 -23.85 -196.65 -25.5 -195.1 -27.35 -195.1 -30.5 -195.1 -31.35 -197.15 -31.8 -198.15 -31.6 -199.35 -31.6 -200.95 -30.1 -202.35 M-305.35 -221.7 L-305.55 -223.7 Q-305.55 -227.65 -301.7 -227.65 -297.9 -227.6 -297.9 -223.8 -297.9 -222.15 -299.15 -221.05 -300.3 -220.05 -301.65 -220.05 -304.6 -220.05 -305.35 -221.7 M-259.95 -200.3 L-256.55 -197.45 Q-251.15 -192.8 -251.15 -190.3 L-251.25 -188.75 Q-247.75 -188.3 -245.15 -186.45 -242.05 -184.3 -242.05 -181.45 -242.05 -179.8 -244.1 -177.2 -244.45 -176.15 -246.05 -174.25 -248.05 -171.85 -248.05 -170.8 -248.05 -169.0 -248.95 -167.85 -250.15 -166.2 -252.9 -166.2 -256.55 -166.2 -257.6 -166.95 -258.3 -167.45 -258.3 -169.0 -258.25 -173.1 -263.3 -175.7 -268.65 -178.4 -269.65 -180.8 L-269.9 -185.95 Q-269.9 -189.5 -268.25 -195.3 -266.35 -201.9 -264.4 -202.05 -262.6 -202.2 -259.95 -200.3 M-164.45 -287.55 Q-165.2 -285.3 -167.6 -283.5 L-169.75 -283.65 Q-172.0 -284.0 -172.55 -284.85 -169.2 -287.85 -164.45 -287.55 M-181.95 -259.2 Q-181.95 -262.75 -179.4 -263.2 -176.85 -263.65 -176.85 -259.05 -176.85 -257.0 -177.0 -256.5 -177.4 -255.0 -179.1 -255.0 -181.2 -255.0 -181.8 -257.15 L-181.95 -259.2 M-228.35 -270.3 Q-229.0 -269.4 -230.15 -268.85 L-231.25 -269.6 Q-232.4 -270.6 -232.4 -272.0 L-230.8 -272.05 Q-229.3 -271.95 -227.9 -271.1 L-228.35 -270.3 M-207.9 -239.6 Q-208.85 -238.1 -210.85 -238.1 -214.1 -238.1 -214.65 -240.25 -214.95 -241.4 -214.6 -242.75 -214.6 -247.2 -210.85 -247.5 -207.1 -247.8 -207.1 -243.0 -207.1 -240.9 -207.9 -239.6 M-226.1 -229.5 Q-226.1 -228.15 -226.25 -227.45 -226.55 -226.35 -227.45 -225.45 L-229.7 -225.45 Q-230.3 -226.35 -230.5 -227.6 L-230.6 -230.4 -229.0 -230.45 Q-227.5 -230.35 -226.1 -229.5 M-234.15 -207.35 L-231.05 -207.2 -229.7 -205.85 Q-230.1 -204.7 -231.7 -203.3 -233.55 -201.8 -235.1 -201.8 L-235.55 -202.65 -236.0 -204.5 -235.55 -207.2 -234.15 -207.35 M-180.45 -226.85 L-181.8 -226.55 Q-183.7 -226.55 -184.2 -227.55 L-184.35 -228.75 Q-184.35 -231.1 -181.8 -231.1 -179.25 -231.05 -179.25 -228.8 -179.25 -227.45 -180.45 -226.85 M-166.45 -216.9 L-166.6 -219.35 Q-166.6 -223.6 -162.85 -223.6 -159.1 -223.6 -159.1 -219.35 -159.1 -216.3 -162.85 -215.1 L-166.35 -216.35 -166.45 -216.9 M-262.05 -185.55 L-262.3 -184.45 -261.55 -184.2 -261.15 -185.25 -262.05 -185.55 M-264.4 -149.55 Q-264.4 -148.05 -265.65 -146.95 -266.85 -145.95 -268.15 -145.95 -271.0 -145.95 -271.8 -147.55 L-272.05 -149.45 Q-272.05 -153.55 -268.2 -153.55 -264.4 -153.5 -264.4 -149.55 M-289.05 -178.45 Q-290.2 -177.45 -291.55 -177.45 -294.3 -177.45 -295.05 -179.05 L-295.3 -180.95 Q-295.3 -185.05 -291.55 -185.05 -287.8 -185.0 -287.8 -181.05 -287.8 -179.55 -289.05 -178.45 M-319.45 -154.55 Q-315.15 -154.5 -315.15 -150.55 -315.15 -148.45 -317.15 -147.5 -318.35 -146.95 -319.55 -146.95 -322.7 -146.95 -323.55 -148.55 L-323.8 -150.45 Q-323.8 -154.55 -319.45 -154.55 M-301.9 -122.2 Q-301.9 -120.55 -303.3 -119.4 -304.55 -118.45 -305.8 -118.45 -308.55 -118.45 -309.3 -120.1 L-309.55 -122.05 Q-309.55 -126.05 -305.7 -126.0 -301.9 -126.0 -301.9 -122.2 M-243.85 -140.6 Q-244.85 -138.8 -246.8 -138.8 -250.0 -138.8 -250.65 -141.2 -250.95 -142.45 -250.65 -143.95 -250.65 -149.6 -246.85 -149.55 -243.05 -149.55 -243.05 -144.05 -243.05 -142.0 -243.85 -140.6 M-63.75 -186.55 Q-62.1 -185.25 -62.1 -181.85 -62.1 -175.1 -67.85 -175.1 -71.4 -175.1 -72.35 -177.15 -72.8 -178.15 -72.6 -179.35 -72.6 -181.95 -70.95 -184.15 -69.45 -186.2 -67.35 -186.95 -65.2 -187.7 -63.75 -186.55 M-64.1 -193.95 Q-66.0 -193.95 -66.35 -195.25 -66.55 -195.9 -66.35 -196.7 -66.35 -199.45 -64.1 -199.6 -61.85 -199.75 -61.85 -196.85 -61.85 -193.95 -64.1 -193.95 M-92.4 -191.3 Q-92.1 -190.85 -92.1 -190.05 -92.1 -188.9 -93.6 -188.05 -95.0 -187.25 -96.5 -187.25 -98.9 -187.25 -99.5 -188.2 L-99.65 -189.35 Q-99.65 -190.75 -98.45 -191.65 -97.3 -192.45 -95.55 -192.45 -93.2 -192.45 -92.4 -191.3" fill="#4f7329" fill-opacity="0.2" fill-rule="evenodd" stroke="none"/>
  </g>
</svg>
