<?xml version="1.0" encoding="UTF-8" standalone="no"?>
<svg xmlns:ffdec="https://www.free-decompiler.com/flash" xmlns:xlink="http://www.w3.org/1999/xlink" ffdec:objectType="shape" height="696.1px" width="211.95px" xmlns="http://www.w3.org/2000/svg">
  <g transform="matrix(1.0, 0.0, 0.0, 1.0, 106.35, 317.5)">
    <path d="M93.9 -222.9 L93.55 -222.85 93.25 -222.8 92.3 -222.6 91.25 -222.3 90.0 -221.95 88.6 -221.65 88.4 -221.6 87.2 -221.25 87.0 -221.25 84.6 -220.8 84.9 -221.7 85.4 -223.15 85.7 -227.05 Q85.7 -228.0 84.65 -229.25 83.55 -230.45 82.5 -230.7 L80.05 -230.65 Q78.45 -230.6 77.8 -231.3 75.95 -233.15 73.4 -234.0 71.25 -234.4 70.55 -234.75 69.5 -235.3 69.5 -237.35 L69.7 -240.2 Q69.7 -242.25 68.75 -244.05 67.8 -245.85 66.3 -246.6 64.7 -247.35 64.1 -249.55 L63.3 -253.5 Q62.8 -255.1 60.1 -256.35 L56.9 -257.8 54.5 -259.6 52.55 -261.15 50.4 -261.4 Q48.05 -261.7 46.8 -263.3 45.65 -264.7 43.0 -265.3 40.5 -265.9 40.1 -266.5 L38.95 -268.75 Q38.15 -270.2 36.8 -270.8 L33.75 -271.95 Q31.8 -273.0 31.8 -274.65 L31.95 -275.55 32.1 -276.4 Q32.1 -276.9 31.5 -277.5 30.9 -278.05 30.9 -278.45 30.9 -279.0 32.7 -279.75 34.5 -280.55 34.5 -281.45 L33.95 -282.2 Q33.4 -282.7 33.4 -283.0 L33.85 -284.35 34.5 -285.6 Q34.9 -286.5 35.5 -286.95 L37.1 -287.8 Q39.8 -289.05 40.85 -290.1 42.0 -291.25 42.0 -292.85 42.0 -293.75 41.5 -294.75 40.95 -295.9 40.1 -296.2 L37.45 -297.1 Q35.8 -297.75 35.3 -298.5 34.2 -300.15 31.65 -301.05 29.3 -301.9 26.65 -301.9 L24.2 -301.85 Q22.85 -301.7 21.6 -300.9 L20.95 -300.25 20.4 -299.8 20.05 -299.3 19.3 -299.3 Q16.2 -299.35 14.35 -298.0 8.75 -293.95 4.15 -295.0 0.05 -295.95 -7.2 -292.95 -15.15 -289.25 -18.6 -288.3 L-15.75 -287.2 -14.5 -286.75 -10.8 -286.3 Q-8.2 -286.3 -1.5 -287.65 3.85 -288.7 5.85 -289.35 L6.4 -289.55 6.4 -289.3 5.85 -289.35 6.05 -289.05 Q4.45 -288.1 -0.2 -286.65 -6.05 -284.8 -9.45 -284.8 L-16.4 -285.3 Q-19.7 -285.3 -22.05 -284.2 L-23.7 -281.7 Q-26.05 -277.8 -28.6 -277.8 L-29.7 -278.0 -29.75 -278.05 -29.7 -278.55 -30.05 -278.95 -29.8 -279.15 -29.65 -279.1 -29.6 -279.7 -29.5 -279.75 -29.45 -280.5 -28.25 -280.5 Q-26.4 -281.8 -25.3 -283.7 L-25.1 -284.0 Q-24.95 -285.1 -23.3 -288.75 -22.1 -291.45 -21.0 -292.25 L-20.5 -292.6 -18.3 -294.15 -17.95 -294.4 -17.8 -294.55 -16.3 -295.65 -15.55 -296.05 -14.65 -296.25 -13.4 -295.8 Q-12.6 -295.4 -12.05 -295.4 -11.0 -295.4 -9.65 -296.2 -8.3 -297.0 -7.95 -297.0 -7.2 -297.0 -6.45 -296.2 L-5.3 -295.4 Q-4.15 -295.4 -2.85 -297.95 -1.35 -301.05 0.25 -302.05 4.7 -304.8 8.75 -305.55 12.0 -306.2 18.6 -308.4 22.7 -309.8 27.55 -309.8 32.4 -309.8 38.1 -303.15 42.45 -298.05 43.4 -293.7 L43.65 -291.45 Q43.65 -289.7 43.25 -288.15 L42.85 -285.75 Q42.85 -284.0 43.8 -281.9 45.1 -279.1 48.15 -275.65 L54.85 -269.05 Q56.05 -267.85 58.05 -264.75 L60.75 -260.5 63.7 -257.2 66.85 -253.85 Q68.55 -252.0 69.8 -249.5 L71.6 -245.5 Q73.7 -241.3 78.55 -240.5 L86.7 -237.9 Q94.8 -234.85 94.8 -232.8 94.8 -232.1 93.6 -230.8 92.4 -229.5 92.4 -229.0 92.4 -228.35 93.2 -227.25 94.0 -226.2 94.0 -224.95 L93.9 -222.9 M44.8 -291.9 L45.0 -291.75 45.05 -291.55 44.8 -291.9 M72.8 -250.55 L72.95 -251.0 73.2 -251.5 73.15 -250.95 73.1 -250.8 73.05 -250.45 72.8 -250.55 M31.9 -292.5 Q27.0 -294.15 25.5 -294.15 23.75 -294.15 21.15 -291.85 18.7 -289.7 16.7 -289.55 L17.75 -290.35 17.8 -290.35 20.55 -292.5 23.25 -295.1 Q24.35 -296.05 26.65 -296.05 29.95 -296.05 33.2 -293.55 35.8 -291.6 37.9 -291.2 L38.0 -291.1 37.9 -290.85 37.1 -290.85 31.9 -292.5 M13.6 -288.45 L14.4 -288.75 13.65 -287.45 12.55 -286.05 11.25 -284.85 Q10.35 -284.35 9.9 -283.45 L8.9 -282.25 Q8.35 -281.9 6.65 -281.3 4.5 -280.5 3.35 -280.5 2.25 -280.5 1.8 -280.95 1.55 -281.15 1.55 -281.4 L1.65 -281.7 2.55 -281.7 Q4.7 -281.7 7.25 -283.35 9.0 -284.55 9.9 -285.65 10.8 -286.75 12.6 -287.95 L13.6 -288.45 M9.15 -277.05 L9.1 -277.7 Q9.1 -278.9 9.8 -279.4 L12.9 -281.3 Q15.8 -283.15 20.45 -283.65 L16.25 -281.8 Q13.9 -280.8 11.6 -278.4 L10.05 -276.45 Q9.35 -276.6 9.15 -277.05 M13.55 -280.45 L13.45 -280.45 13.5 -280.4 13.55 -280.45 M18.2 -282.75 L18.25 -282.8 18.2 -282.8 18.2 -282.75 M18.0 -263.75 L18.8 -263.7 Q19.75 -263.7 20.85 -264.45 21.95 -265.25 24.3 -265.25 27.7 -265.25 31.5 -263.5 L33.75 -262.6 Q32.9 -261.9 29.75 -261.45 L28.35 -260.75 28.2 -260.9 28.15 -261.25 Q28.15 -261.7 29.45 -261.85 31.05 -262.05 31.75 -262.75 L30.95 -263.2 29.4 -263.65 26.25 -263.7 24.8 -263.9 23.1 -263.4 21.2 -262.9 Q19.05 -262.9 18.35 -263.3 18.05 -263.45 18.0 -263.75 M19.9 -209.25 Q20.3 -210.1 22.3 -212.0 23.45 -213.05 26.45 -213.05 L30.3 -212.7 33.65 -211.9 35.15 -211.0 34.9 -210.75 Q30.3 -210.4 27.95 -209.3 L24.9 -207.4 22.55 -205.6 21.4 -204.6 20.65 -203.85 20.85 -203.0 20.8 -202.8 20.65 -202.75 Q20.2 -202.75 19.85 -204.85 L19.6 -207.0 Q19.6 -208.65 19.9 -209.25 M33.55 -211.35 L33.55 -211.25 33.95 -211.3 33.55 -211.35 M34.9 -200.7 L34.4 -199.25 33.6 -196.55 Q33.05 -195.25 31.75 -193.8 29.6 -191.5 27.3 -191.5 L24.9 -191.75 23.75 -192.05 22.25 -191.95 Q21.15 -191.9 19.8 -192.35 L18.95 -192.6 Q18.5 -192.85 17.8 -193.55 17.1 -194.05 16.2 -193.95 L16.2 -194.45 17.35 -194.55 18.25 -194.35 21.3 -194.35 Q22.8 -194.45 23.6 -195.15 L24.85 -196.45 26.25 -197.55 Q27.2 -198.3 27.9 -198.35 30.75 -198.55 32.2 -200.3 33.65 -202.0 36.35 -202.2 L36.6 -201.95 35.9 -201.45 34.9 -200.7 M59.9 -215.4 L59.9 -215.25 60.3 -215.25 59.9 -215.4 M56.8 -236.1 Q57.4 -235.6 58.9 -235.15 L57.75 -234.9 Q57.05 -234.55 56.45 -234.55 55.7 -234.55 55.0 -235.0 L54.0 -235.5 52.35 -235.25 51.05 -235.0 Q49.35 -235.0 49.35 -235.75 49.35 -237.05 49.7 -237.8 L51.8 -238.05 54.4 -237.3 56.8 -236.1 M61.65 -222.8 Q61.65 -223.3 62.2 -223.9 L64.1 -224.25 Q65.3 -224.25 69.8 -222.75 68.2 -223.05 65.15 -221.65 L63.6 -221.6 Q62.25 -221.6 61.85 -222.1 61.65 -222.3 61.65 -222.8 M48.3 -209.9 L48.05 -210.15 48.0 -211.05 Q48.0 -213.85 50.3 -215.45 L51.95 -216.45 52.85 -216.85 57.1 -216.7 59.7 -216.0 Q61.0 -215.6 62.6 -215.35 L62.85 -215.0 62.6 -214.7 59.85 -214.65 Q57.2 -214.2 56.1 -213.3 L54.8 -211.65 53.1 -210.15 51.4 -209.45 48.3 -209.9 M73.05 -189.1 L72.25 -189.5 70.95 -190.0 70.35 -190.2 68.3 -190.95 61.1 -191.75 52.65 -191.7 47.85 -190.95 46.5 -190.9 46.45 -190.9 46.35 -190.85 46.25 -190.9 44.3 -190.9 45.1 -192.45 45.6 -193.4 46.25 -194.4 46.45 -194.6 46.85 -194.6 47.7 -195.1 Q49.7 -196.15 51.15 -196.3 54.15 -196.65 55.55 -197.75 56.6 -198.55 56.6 -199.6 56.6 -200.65 55.65 -201.6 54.65 -202.5 54.65 -203.2 54.65 -204.55 56.55 -205.25 L62.2 -205.25 67.95 -204.35 70.9 -204.35 73.85 -205.15 Q75.45 -205.75 75.6 -206.15 L75.75 -206.8 75.9 -207.0 76.15 -207.3 77.2 -209.05 78.3 -212.6 Q78.75 -213.95 80.2 -215.85 L80.25 -215.6 80.5 -214.1 80.15 -213.75 80.25 -212.6 80.35 -212.55 80.35 -212.05 80.3 -212.0 80.3 -211.95 80.35 -211.75 80.2 -211.85 Q78.9 -210.5 78.5 -207.95 78.3 -206.7 78.3 -202.2 L78.8 -195.25 Q78.8 -192.6 74.55 -190.65 L73.05 -189.9 73.3 -189.5 73.05 -189.1 M-9.35 -278.7 L-8.75 -278.45 Q-6.95 -277.8 -5.25 -277.8 -4.15 -277.8 -2.55 -279.0 -1.45 -279.8 -0.95 -280.7 -1.05 -279.6 -1.95 -278.15 -3.3 -275.9 -5.6 -275.9 -8.5 -275.9 -9.1 -277.8 L-9.35 -278.7 M43.2 -194.45 L43.2 -194.6 43.3 -194.6 43.2 -194.45 M-29.8 -268.6 L-29.85 -268.7 -29.85 -268.65 -29.8 -268.6 M-31.5 -268.65 L-30.45 -269.65 -30.8 -270.3 Q-30.8 -272.1 -29.25 -269.75 -27.75 -267.45 -27.75 -265.6 -27.75 -264.7 -28.45 -263.05 L-29.2 -261.2 Q-27.75 -258.15 -27.75 -257.4 -27.75 -255.55 -28.25 -253.65 -29.0 -250.85 -30.4 -250.65 L-31.35 -250.65 Q-32.2 -251.05 -31.6 -252.85 L-31.6 -254.15 -32.95 -254.25 Q-33.75 -254.0 -34.85 -252.5 -35.95 -251.05 -35.95 -250.2 -35.95 -248.6 -34.25 -247.5 L-33.35 -247.5 -31.55 -248.0 -30.7 -248.0 Q-29.7 -247.7 -29.7 -246.7 -29.7 -245.5 -30.45 -244.65 -31.45 -243.45 -33.65 -243.45 -35.55 -243.45 -38.05 -245.45 L-39.55 -246.05 -41.6 -246.9 -47.0 -246.9 -48.2 -245.95 -48.95 -245.2 Q-49.05 -244.75 -49.5 -244.3 -50.3 -243.45 -51.75 -243.45 -53.05 -243.45 -53.5 -243.75 L-54.95 -244.05 Q-56.95 -244.05 -58.55 -242.9 -59.9 -241.9 -59.9 -241.15 -59.9 -240.65 -59.4 -240.3 -58.85 -239.9 -58.0 -239.9 -56.8 -239.9 -55.55 -240.4 -54.3 -240.95 -53.0 -240.95 L-49.85 -240.4 -46.4 -240.0 Q-45.85 -239.45 -45.85 -239.15 -45.85 -238.8 -46.6 -237.95 -47.35 -237.05 -48.0 -236.75 L-56.75 -236.7 Q-58.15 -236.4 -59.5 -234.6 -60.6 -233.15 -63.45 -233.15 -65.0 -233.15 -65.85 -233.95 L-66.95 -235.25 -68.15 -235.95 -69.7 -236.7 -70.35 -237.2 Q-69.05 -243.85 -69.05 -245.3 L-69.45 -247.1 Q-69.45 -248.45 -67.3 -249.4 -64.15 -250.9 -63.3 -251.6 -62.1 -252.65 -60.3 -253.35 -58.75 -253.95 -57.9 -255.0 -57.1 -256.05 -55.2 -256.55 L-52.2 -257.4 Q-49.25 -258.65 -48.55 -258.7 L-45.5 -258.5 Q-40.8 -258.5 -37.2 -260.25 -36.5 -260.6 -35.55 -261.75 -34.7 -262.75 -33.75 -263.0 -32.75 -263.3 -31.7 -264.45 -30.65 -265.7 -30.65 -266.7 -30.65 -267.4 -31.35 -268.4 L-31.5 -268.65 M-47.15 -238.9 L-47.2 -238.75 -47.15 -238.9 M-41.35 -212.65 Q-38.6 -212.65 -38.6 -211.15 -38.6 -210.05 -39.8 -209.35 -41.45 -208.45 -44.6 -208.85 L-45.3 -208.2 Q-45.3 -206.85 -40.55 -204.8 -35.85 -202.8 -33.3 -202.95 L-30.85 -203.35 -25.85 -203.8 Q-23.95 -203.8 -22.4 -202.5 -21.35 -201.55 -21.0 -200.7 L-19.9 -199.2 Q-19.15 -198.25 -19.15 -197.55 -19.15 -196.8 -19.7 -196.65 L-21.2 -196.65 Q-22.3 -196.95 -22.9 -197.7 L-23.95 -198.9 -24.8 -198.9 -25.3 -197.9 -25.7 -196.75 Q-25.4 -195.8 -25.4 -195.25 -24.05 -195.55 -22.0 -195.2 -20.0 -194.85 -20.0 -194.3 -20.0 -193.15 -24.2 -192.2 L-25.35 -191.7 -27.25 -191.35 -33.7 -190.75 Q-34.35 -190.45 -34.85 -190.45 -38.05 -190.3 -41.75 -188.9 -45.35 -187.55 -46.75 -187.55 -49.5 -187.55 -51.1 -190.2 -51.9 -191.6 -52.3 -193.2 -52.7 -194.1 -54.6 -196.05 -56.55 -197.95 -56.9 -198.8 -58.95 -203.95 -59.15 -205.35 L-59.0 -210.45 -59.2 -211.2 -59.4 -212.0 Q-59.4 -212.5 -57.85 -213.25 -56.1 -214.15 -54.85 -213.45 L-53.0 -212.0 -51.65 -210.8 -50.3 -210.8 -41.35 -212.65 M-20.95 -197.8 L-20.5 -197.8 -20.75 -198.0 -20.95 -197.8 M-42.3 135.85 L-41.0 135.45 -41.0 135.4 Q-41.0 134.95 -40.05 134.35 L-36.1 134.2 -36.1 134.0 -35.1 134.0 -34.9 134.55 -31.8 134.55 -31.15 134.65 -31.6 136.2 -31.8 137.75 Q-31.8 139.2 -30.0 141.05 -28.2 142.9 -28.2 144.6 -28.2 145.5 -28.95 146.75 -29.75 148.05 -29.75 148.75 -29.75 149.75 -28.95 150.7 -28.2 151.65 -28.2 153.05 -28.2 154.05 -28.9 155.35 -29.65 156.65 -29.65 157.7 L-29.4 160.15 Q-29.4 161.45 -30.3 163.25 L-31.7 165.85 -33.55 164.65 -33.9 164.4 -33.9 164.65 -33.95 164.65 -34.2 164.65 -34.35 164.6 Q-35.8 164.25 -37.7 161.45 L-38.5 160.2 -38.6 160.05 -38.5 160.05 -39.75 153.35 -39.15 147.75 Q-39.15 145.6 -40.95 143.05 -42.75 140.45 -42.75 138.6 L-42.45 136.45 -42.3 135.85 M-4.65 193.2 L-4.25 196.3 -4.1 199.25 -4.3 203.6 -4.8 210.15 -5.45 210.35 Q-6.3 209.6 -6.3 208.05 L-5.6 198.1 Q-5.6 195.65 -7.3 192.65 L-9.0 189.4 Q-9.0 187.45 -7.05 189.2 -5.15 190.9 -4.65 193.2 M-19.8 207.0 Q-19.05 208.75 -19.05 211.7 L-19.65 217.65 Q-19.65 219.15 -18.15 222.7 L-18.2 223.05 -18.4 223.35 -19.05 223.5 Q-20.25 223.5 -21.2 220.65 L-21.9 217.75 Q-21.9 216.3 -21.2 214.25 -20.55 212.25 -20.55 211.2 -20.55 210.1 -21.2 207.75 L-21.9 204.45 Q-21.9 203.45 -21.15 203.85 -20.45 204.2 -20.25 204.75 L-19.8 207.0 M-42.5 208.2 L-42.0 206.55 -41.5 204.7 -40.05 199.2 -39.65 198.95 Q-38.7 199.1 -36.75 204.35 -34.35 210.65 -34.35 212.55 L-34.8 214.6 -35.3 216.5 -34.65 221.2 Q-34.65 222.8 -35.45 225.1 -36.25 227.25 -36.15 229.5 -36.0 233.3 -38.4 237.45 -38.8 238.15 -39.5 241.35 -40.15 244.0 -41.45 245.45 L-44.9 249.5 Q-47.45 252.3 -49.25 253.25 L-54.75 256.75 -59.55 259.5 Q-61.45 260.2 -62.55 261.4 L-64.5 263.25 Q-65.25 263.7 -67.95 264.95 L-70.8 266.4 Q-72.7 267.8 -73.95 270.0 -75.05 272.05 -75.2 274.05 -75.25 274.85 -76.95 277.9 -78.6 280.85 -78.6 282.1 L-77.7 286.3 Q-77.7 292.35 -81.75 295.35 L-85.55 297.95 Q-87.8 299.7 -89.25 301.95 -92.85 307.5 -93.5 309.75 -93.7 310.35 -93.35 313.75 -93.45 316.85 -96.15 316.85 -100.75 316.85 -103.8 313.5 L-104.7 312.45 -105.7 310.75 -102.65 304.65 Q-100.2 300.4 -99.3 298.25 -98.45 296.3 -97.15 294.85 L-93.75 291.8 Q-91.0 290.0 -90.2 289.2 -89.35 288.3 -89.35 286.75 L-88.65 285.85 Q-87.0 283.7 -87.0 282.45 L-87.75 279.7 Q-87.75 278.1 -86.75 275.55 L-85.6 273.05 -83.55 269.2 -83.35 268.9 -79.1 265.2 -75.0 259.9 Q-72.15 256.15 -69.3 255.3 -66.45 254.5 -62.4 251.65 -58.45 248.65 -57.3 247.95 -52.05 244.9 -49.7 240.65 -48.0 237.6 -48.0 234.35 L-48.2 231.75 -48.35 230.85 -48.45 230.85 -48.35 230.7 -47.35 228.1 -46.6 225.55 -46.35 224.45 -45.95 221.7 -45.55 220.95 Q-42.9 215.9 -42.5 208.2 M-22.9 234.25 Q-23.75 236.4 -25.25 237.75 L-25.7 237.65 -25.85 237.15 -23.85 233.4 -23.4 231.5 Q-23.0 230.2 -21.65 230.25 L-21.55 230.6 -22.9 234.25 M-26.8 240.75 L-27.5 241.15 -28.1 241.05 -28.15 240.5 Q-28.15 240.1 -27.6 239.8 L-26.6 239.5 -26.5 239.9 -26.8 240.75 M-7.8 224.0 Q-6.4 223.5 -5.9 225.25 L-5.4 228.05 -4.75 230.95 Q-4.4 232.3 -4.4 233.55 -4.4 237.2 -6.75 237.2 L-7.7 237.05 -7.8 236.15 -7.35 233.9 Q-6.9 232.1 -6.9 231.15 L-6.95 229.4 Q-7.15 228.5 -7.8 227.25 L-7.8 224.0 M-63.05 292.15 L-63.0 292.7 Q-63.0 293.5 -64.7 294.8 L-67.2 296.55 -68.65 298.4 -69.95 300.45 Q-70.3 300.9 -70.9 304.9 -71.4 308.3 -72.6 308.3 -73.95 308.3 -74.3 306.45 -74.3 305.95 -73.95 305.7 -73.55 305.4 -72.9 305.7 -73.15 302.2 -70.5 297.95 -67.5 293.15 -63.15 292.05 L-63.05 292.15 M-46.3 277.25 L-47.15 278.6 -49.6 282.25 -49.35 284.9 Q-49.35 285.3 -50.1 285.8 -50.75 285.45 -50.75 283.9 -50.75 281.8 -49.7 279.75 -48.45 277.25 -46.3 277.25 M-53.6 288.8 Q-53.6 287.8 -52.0 287.8 L-51.9 287.85 -51.85 288.25 -52.3 288.9 -53.05 289.5 -53.45 289.35 -53.6 288.8 M-8.25 252.7 Q-6.6 255.55 -6.6 257.25 -6.6 258.5 -7.3 260.75 -8.25 263.65 -9.5 264.05 L-10.25 263.1 -9.45 261.05 Q-8.7 259.2 -8.7 258.1 -8.7 256.75 -9.3 254.6 L-9.95 252.6 Q-9.95 249.85 -8.25 252.7 M-1.9 256.6 Q-1.9 261.05 -3.3 261.05 L-4.2 260.75 -4.25 260.25 -3.75 259.1 Q-3.25 258.1 -3.25 257.5 L-3.5 256.6 -3.75 255.75 -3.45 255.0 -2.5 254.25 Q-2.05 254.5 -1.95 255.3 L-1.9 256.6 M-17.9 270.4 Q-19.1 271.0 -19.75 271.0 -20.65 271.0 -21.05 270.5 L-21.3 269.8 Q-21.3 269.0 -20.3 269.0 -19.85 269.0 -19.5 269.65 L-18.3 269.15 -16.75 268.6 -16.65 268.65 -16.55 269.05 Q-16.55 269.75 -17.9 270.4 M-12.25 267.8 Q-12.25 268.3 -13.3 268.9 L-13.7 268.7 -13.85 268.2 Q-13.85 267.65 -12.55 267.4 L-12.35 267.45 -12.25 267.8 M-24.6 253.2 L-24.75 252.65 Q-24.75 252.25 -23.6 251.0 -22.45 249.85 -22.1 249.75 L-21.7 249.8 Q-21.55 249.9 -21.55 250.3 -21.55 250.85 -24.15 253.35 L-24.6 253.2 M-29.65 257.9 Q-29.65 258.65 -30.75 259.5 -31.8 260.35 -32.65 260.35 L-33.3 260.25 -33.45 260.15 -33.5 259.75 -30.25 257.35 -29.85 257.45 Q-29.65 257.5 -29.65 257.9 M-28.45 283.3 L-27.2 282.2 Q-23.8 279.35 -22.8 279.15 L-22.7 279.2 -22.65 279.55 Q-22.65 280.3 -24.8 282.1 L-26.55 283.55 -26.3 283.5 -26.2 283.6 -26.15 284.15 -27.45 286.2 Q-28.9 288.25 -29.25 289.2 -29.6 290.1 -29.45 291.85 L-29.25 294.0 Q-29.25 294.95 -29.85 296.3 -30.55 297.85 -31.7 298.15 L-32.1 298.55 Q-33.15 299.45 -34.65 299.45 -35.4 299.45 -35.75 299.1 L-35.85 298.65 Q-35.85 298.35 -34.35 297.6 -32.9 296.85 -33.0 296.1 L-33.15 293.05 Q-33.15 289.45 -32.15 287.55 L-32.1 287.45 Q-31.15 285.7 -29.85 284.25 -28.95 283.25 -28.45 283.3 M-22.2 301.05 L-22.85 301.35 -23.6 300.75 -23.6 297.3 Q-21.8 297.3 -21.8 298.1 L-22.1 300.5 -22.2 301.05 M-1.6 346.15 L-2.55 347.2 -4.4 347.2 -13.2 346.7 -15.1 346.25 Q-16.7 346.25 -21.1 348.85 L-26.6 352.15 Q-30.15 353.85 -31.8 355.2 -33.15 356.25 -33.8 357.35 -34.65 356.85 -35.95 356.9 -35.6 355.05 -34.6 353.2 -32.75 349.6 -29.55 348.1 L-26.8 346.5 Q-24.7 345.2 -23.15 344.6 -20.6 343.55 -12.75 343.8 -4.15 344.05 -1.6 346.15 M-43.2 306.5 Q-43.2 307.0 -43.85 307.65 L-43.65 307.8 Q-43.5 307.95 -43.5 308.4 -43.5 308.9 -43.95 309.5 L-44.4 310.35 Q-44.4 312.15 -43.05 314.45 -41.7 316.75 -41.7 317.1 L-41.85 318.0 -42.9 318.15 Q-45.2 318.15 -46.35 314.55 -47.1 312.3 -47.1 310.6 L-46.85 307.15 Q-46.15 305.2 -43.2 306.5 M-53.55 302.05 L-54.75 303.35 Q-55.8 304.5 -55.35 307.1 L-55.5 307.5 Q-55.65 307.7 -56.1 307.7 -57.1 307.7 -57.3 306.7 L-57.3 305.65 Q-57.3 304.3 -56.45 302.95 -55.4 301.2 -53.7 301.5 L-53.6 301.55 -53.55 302.05 M-0.6 356.5 Q0.9 357.3 2.0 357.3 2.85 357.3 4.0 356.5 5.15 355.65 7.15 355.65 9.6 355.65 9.6 356.7 L9.4 357.6 9.2 358.65 Q9.2 360.75 12.4 360.75 13.6 360.75 14.4 360.05 15.2 359.3 15.7 359.3 16.55 359.3 16.8 359.85 L16.95 360.85 16.55 363.45 Q16.55 364.5 16.95 365.35 L19.65 363.75 25.0 361.05 25.2 360.9 Q22.85 360.45 21.15 358.8 L18.2 355.95 Q15.1 353.25 14.55 353.0 L9.3 353.05 8.45 353.0 8.3 352.9 8.2 351.9 Q8.2 351.25 8.9 351.0 L13.0 350.35 13.9 349.75 Q15.9 349.35 17.0 350.25 L18.6 352.55 Q20.75 356.2 25.45 356.2 30.15 356.2 32.95 355.2 34.35 354.7 35.0 354.2 35.95 354.2 36.15 354.75 L36.15 355.45 Q36.15 356.9 32.5 358.6 28.15 360.55 27.3 361.7 L24.4 365.4 Q22.5 367.3 19.9 368.1 L21.65 368.45 Q23.25 368.65 24.5 369.95 25.65 371.1 27.2 371.1 L28.5 370.8 29.85 370.5 32.55 370.5 Q32.0 371.3 31.6 372.25 31.25 372.8 30.15 373.35 L31.25 373.35 31.3 373.4 Q29.45 374.55 27.0 376.25 23.1 378.6 19.45 378.6 17.3 378.6 14.25 376.0 L8.2 370.35 Q2.05 364.65 -4.05 362.9 -6.25 362.25 -8.4 362.15 L-9.5 362.1 Q-11.75 362.1 -17.95 363.35 L-21.5 364.1 -21.9 364.2 Q-28.85 365.6 -33.25 364.4 L-33.3 364.35 -34.15 364.0 -33.5 363.4 -33.25 363.15 -32.95 363.0 -33.15 363.0 Q-32.4 362.0 -32.3 360.95 L-31.2 360.85 -30.5 360.95 -30.3 361.3 -28.35 359.4 Q-24.7 355.35 -23.4 355.35 -21.85 355.35 -20.15 356.8 -18.45 358.2 -15.75 358.2 -14.35 358.2 -13.15 357.4 -11.9 356.55 -10.85 356.55 L-9.65 356.95 -8.15 357.3 Q-7.1 357.3 -6.05 356.5 -5.05 355.65 -3.15 355.65 -2.1 355.65 -0.6 356.5 M54.8 140.35 Q52.7 141.8 51.95 143.25 51.1 144.95 51.1 148.2 51.1 151.3 52.35 154.1 53.6 156.9 53.6 158.9 53.6 159.8 51.95 163.45 50.3 167.1 50.3 168.5 50.3 169.45 51.25 170.35 L52.5 171.4 52.85 171.4 Q52.15 170.0 52.15 168.9 52.15 167.9 52.5 167.15 52.9 166.35 53.95 165.25 L57.05 168.65 Q57.95 169.9 57.95 173.05 57.95 175.8 56.3 176.0 54.65 176.25 54.65 177.9 L55.4 179.0 56.5 180.1 57.95 180.1 Q58.2 177.5 59.3 175.95 60.5 174.3 62.3 174.3 63.05 174.3 65.15 176.3 67.3 178.3 68.6 178.3 L70.45 177.95 72.25 177.6 Q73.85 177.6 77.2 179.75 80.75 182.05 80.75 183.75 80.75 184.9 79.3 185.75 L78.2 186.45 78.65 186.85 79.65 186.65 Q81.9 186.65 82.95 189.2 83.65 190.85 83.65 192.6 L83.15 197.75 Q82.6 201.05 82.6 202.4 L83.3 211.1 Q83.3 213.1 81.7 215.4 L79.7 218.2 Q78.25 217.6 77.95 216.4 77.65 215.35 78.25 214.2 L78.25 213.85 Q77.65 214.4 76.9 215.75 76.05 217.25 76.05 218.0 76.05 219.25 76.4 220.0 L77.85 220.0 78.95 219.45 80.05 218.9 Q80.05 219.8 80.65 220.75 81.2 221.7 81.2 222.55 L80.65 225.95 Q80.05 228.5 80.05 229.8 80.05 235.9 83.15 237.75 L86.6 239.65 Q88.95 241.15 90.9 243.6 L90.9 247.2 89.85 247.9 Q88.85 246.95 88.0 245.55 L86.55 243.25 85.6 243.95 85.5 244.85 Q85.5 246.1 89.05 251.4 L92.35 256.15 92.75 255.75 Q92.05 253.9 92.05 253.15 92.05 250.95 92.8 250.1 93.45 249.35 95.1 249.35 97.55 249.35 99.25 252.6 100.7 255.3 100.7 257.9 100.7 259.4 99.65 261.15 98.55 262.95 98.55 264.4 98.55 265.4 99.35 266.55 97.0 269.5 94.25 271.4 L93.85 271.65 93.65 271.85 92.95 272.55 91.75 270.2 Q91.25 269.4 91.25 266.9 91.25 265.95 91.7 264.05 L92.15 260.9 Q92.15 257.3 89.95 256.5 87.75 255.65 87.75 254.15 L88.0 253.0 88.25 251.85 Q88.25 248.6 84.5 247.6 80.5 246.6 80.1 244.1 79.7 241.5 75.1 240.3 70.6 239.15 70.6 238.65 70.6 237.75 70.95 237.35 L71.3 236.3 Q71.3 234.1 68.3 233.55 65.3 232.95 65.3 231.8 65.3 230.8 67.05 229.7 68.75 228.6 68.75 226.75 68.75 226.05 68.05 225.6 67.35 225.1 67.35 224.3 67.35 223.95 67.7 223.05 L68.05 221.6 68.05 220.9 Q67.95 220.5 67.4 220.5 65.45 220.5 64.15 223.55 62.95 226.35 61.1 225.8 L60.9 224.75 Q60.9 223.3 61.4 221.75 61.95 220.0 62.75 219.3 63.45 218.7 65.4 217.85 66.75 217.2 67.35 216.05 68.1 214.6 72.45 213.4 76.15 212.35 76.15 209.5 L75.6 208.25 Q75.0 207.3 75.0 206.65 75.0 206.1 76.05 203.95 L77.1 201.15 Q77.1 199.15 75.65 199.35 L72.25 199.15 Q71.5 198.75 70.25 196.8 69.25 195.2 68.05 195.25 L64.8 195.5 Q62.6 195.55 61.8 195.0 61.15 194.55 61.15 193.4 L61.1 192.0 60.15 191.1 58.7 191.05 Q56.55 191.05 55.3 192.2 54.0 193.35 53.05 193.35 51.6 193.35 51.6 192.05 51.6 191.7 52.55 190.55 53.5 189.45 53.5 188.3 53.5 186.65 52.1 185.95 L51.3 185.7 Q51.0 185.1 49.9 184.7 L48.4 184.25 47.0 182.7 46.0 181.7 Q45.6 180.9 44.55 180.7 L43.75 180.6 43.85 180.95 43.5 181.1 Q43.05 181.4 43.05 181.9 43.05 183.35 44.9 185.9 L46.75 188.65 Q46.75 189.9 45.25 189.9 L44.8 189.8 44.65 189.65 Q45.4 187.6 42.65 185.95 39.6 184.05 39.6 182.35 39.6 181.0 40.05 179.9 L40.3 179.4 40.7 179.55 41.6 178.35 41.9 178.0 Q43.75 176.25 43.75 175.3 43.75 172.9 41.7 171.6 39.6 170.35 39.6 168.0 39.6 166.2 41.1 163.45 42.6 160.7 42.6 159.3 42.6 157.3 41.8 155.75 41.0 154.15 41.0 152.5 41.0 148.3 46.15 144.55 49.5 142.1 54.65 140.1 L54.8 140.35 M85.6 212.0 L85.05 212.0 85.85 207.15 85.6 212.0 M86.75 187.2 L86.5 187.0 86.45 186.95 86.85 186.6 86.75 187.2 M11.4 247.35 L10.75 248.75 9.8 249.9 8.8 249.0 8.7 248.0 Q8.7 246.85 8.85 246.7 L11.15 246.6 11.3 246.7 11.4 247.35 M31.1 255.85 Q31.1 256.65 30.05 257.1 29.2 257.5 28.2 257.5 L27.25 257.4 27.1 257.3 26.75 257.1 26.65 256.3 Q26.65 255.5 28.05 255.15 L30.9 255.05 31.0 255.15 31.1 255.85 M22.4 258.65 L24.15 257.5 24.95 257.7 Q25.3 257.85 25.3 258.55 25.3 259.15 24.6 260.0 23.75 260.95 22.8 261.1 L22.0 260.75 Q21.7 260.45 21.7 259.7 21.7 259.3 22.4 258.65 M20.8 261.25 L19.0 262.7 Q17.6 263.55 16.1 263.8 L15.3 263.55 Q15.0 263.3 15.0 262.55 15.0 261.85 17.35 261.15 19.6 260.45 20.6 260.75 L20.8 261.25 M8.1 252.15 Q9.05 253.25 9.15 254.7 L8.7 254.9 8.1 255.3 7.15 254.4 6.9 253.7 7.5 253.25 Q8.1 252.95 8.1 252.15 M7.35 257.5 Q7.35 255.35 8.7 255.85 10.05 256.35 10.05 258.3 L9.95 259.3 9.8 259.55 8.9 259.75 Q7.6 259.75 7.35 258.6 L7.35 257.5 M14.55 262.0 Q14.55 262.85 13.4 263.35 L10.35 263.0 9.6 262.0 10.15 260.7 13.4 261.1 14.55 262.0 M68.4 305.6 L68.45 305.6 68.4 305.55 68.4 305.6 M67.9 345.8 Q67.3 346.05 66.65 346.35 66.2 346.8 65.3 348.7 L64.85 349.5 63.55 351.0 63.35 351.15 Q61.7 352.35 57.55 353.25 53.6 354.15 52.95 354.75 52.15 355.5 49.7 359.55 L49.4 359.45 49.25 359.05 Q49.25 355.3 50.15 352.75 51.0 350.2 51.0 349.05 51.0 346.85 49.0 345.35 46.95 343.85 46.95 340.55 L47.05 339.05 48.15 336.8 49.2 334.45 Q50.0 333.15 51.05 333.6 51.6 333.75 51.6 334.8 51.6 335.8 50.65 337.5 49.65 339.2 49.65 340.0 L50.1 342.3 Q51.35 344.55 53.15 344.55 55.85 344.55 57.6 342.5 58.85 340.95 58.85 339.7 58.85 338.05 57.4 336.7 55.95 335.35 55.95 334.35 55.95 333.65 56.3 332.75 L56.9 330.95 56.45 330.75 55.45 331.45 54.75 332.25 Q53.7 332.45 53.2 331.65 52.8 331.1 52.8 330.5 52.8 329.45 53.6 328.55 54.6 327.4 56.6 327.3 L60.55 326.75 61.1 325.95 61.6 324.85 61.8 324.2 Q61.8 323.5 61.3 322.45 60.75 321.4 60.75 320.45 60.75 317.95 62.35 315.3 L65.1 311.15 67.45 305.7 Q68.85 302.5 70.1 302.25 L70.2 302.7 69.25 306.35 Q68.3 309.7 68.3 310.65 68.3 313.55 67.65 318.45 L67.45 318.5 Q67.7 324.0 68.9 327.85 68.6 329.0 68.6 330.45 68.6 332.55 69.2 333.95 69.8 335.35 69.8 336.45 L69.6 339.2 69.35 340.4 69.2 340.6 68.1 341.8 65.9 341.8 65.8 339.0 Q65.75 337.05 64.3 337.05 62.7 337.05 60.8 341.95 59.75 344.65 59.0 347.6 L59.0 349.05 59.75 349.05 Q59.45 347.35 61.45 345.1 63.45 342.85 65.4 342.85 L66.25 343.8 Q67.0 344.75 67.7 344.75 L68.2 344.7 68.1 345.05 67.9 345.8" fill="#61699a" fill-rule="evenodd" stroke="none"/>
    <path d="M-29.45 -280.5 L-29.45 -280.7 -28.75 -285.05 Q-28.15 -287.7 -27.05 -290.35 -25.45 -294.15 -23.15 -297.25 L-22.4 -298.25 -19.75 -301.2 -19.45 -301.45 -16.7 -304.35 -9.35 -310.35 Q-3.25 -314.15 2.1 -314.15 L8.7 -313.1 12.45 -312.35 13.4 -312.3 Q15.65 -312.3 21.9 -314.25 L23.25 -314.65 23.3 -314.65 23.2 -314.8 Q29.45 -317.5 31.45 -317.5 34.35 -317.5 36.25 -315.15 L38.45 -311.4 39.2 -310.15 40.1 -308.4 41.0 -306.75 41.15 -306.45 41.2 -306.35 41.3 -306.4 43.35 -302.95 Q44.95 -299.05 44.95 -296.9 L44.85 -296.75 44.9 -296.55 44.95 -295.5 44.95 -295.3 45.0 -295.05 45.0 -293.55 44.8 -291.9 45.05 -291.55 47.45 -285.8 Q49.95 -280.25 50.75 -279.05 53.25 -275.25 56.95 -271.9 58.2 -270.75 60.7 -269.3 L64.8 -266.8 Q69.1 -263.7 70.3 -258.4 L70.9 -257.65 71.1 -257.35 71.5 -255.55 72.25 -252.0 72.65 -250.1 72.8 -250.55 73.05 -250.45 Q73.35 -249.3 74.8 -248.15 L75.05 -247.95 Q77.1 -246.35 81.3 -244.65 86.1 -242.75 92.3 -241.15 97.45 -239.75 99.8 -237.65 102.85 -235.0 102.85 -230.15 102.85 -226.45 100.35 -224.85 99.6 -224.35 98.25 -223.95 L97.35 -223.7 95.9 -223.4 95.6 -223.35 95.6 -223.25 93.9 -222.9 94.0 -224.95 Q94.0 -226.2 93.2 -227.25 92.4 -228.35 92.4 -229.0 92.4 -229.5 93.6 -230.8 94.8 -232.1 94.8 -232.8 94.8 -234.85 86.7 -237.9 L78.55 -240.5 Q73.7 -241.3 71.6 -245.5 L69.8 -249.5 Q68.55 -252.0 66.85 -253.85 L63.7 -257.2 60.75 -260.5 58.05 -264.75 Q56.05 -267.85 54.85 -269.05 L48.15 -275.65 Q45.1 -279.1 43.8 -281.9 42.85 -284.0 42.85 -285.75 L43.25 -288.15 Q43.65 -289.7 43.65 -291.45 L43.4 -293.7 Q42.45 -298.05 38.1 -303.15 32.4 -309.8 27.55 -309.8 22.7 -309.8 18.6 -308.4 12.0 -306.2 8.75 -305.55 4.7 -304.8 0.25 -302.05 -1.35 -301.05 -2.85 -297.95 -4.15 -295.4 -5.3 -295.4 L-6.45 -296.2 Q-7.2 -297.0 -7.95 -297.0 -8.3 -297.0 -9.65 -296.2 -11.0 -295.4 -12.05 -295.4 -12.6 -295.4 -13.4 -295.8 L-14.65 -296.25 -15.55 -296.05 -16.3 -295.65 -17.8 -294.55 -17.95 -294.4 -18.3 -294.15 -20.5 -292.6 -21.0 -292.25 Q-22.1 -291.45 -23.3 -288.75 -24.95 -285.1 -25.1 -284.0 L-25.3 -283.7 Q-26.4 -281.8 -28.25 -280.5 L-29.45 -280.5 M51.4 -209.45 L52.65 -209.15 53.3 -208.5 53.15 -207.9 52.5 -207.35 Q47.15 -207.1 44.85 -205.9 L42.25 -203.5 Q41.7 -204.0 41.6 -205.25 41.6 -207.7 43.35 -208.95 45.1 -210.15 48.3 -209.9 L51.4 -209.45 M80.35 -211.75 L80.5 -210.65 80.6 -207.65 Q80.6 -204.7 81.45 -201.55 L83.55 -194.6 Q84.7 -191.05 84.7 -189.35 L84.5 -186.3 Q84.05 -183.4 82.65 -183.4 L81.7 -183.55 Q80.25 -184.0 78.05 -185.65 L76.1 -187.2 75.9 -187.35 75.15 -188.05 73.05 -189.1 73.3 -189.5 73.05 -189.9 74.55 -190.65 Q78.8 -192.6 78.8 -195.25 L78.3 -202.2 Q78.3 -206.7 78.5 -207.95 78.9 -210.5 80.2 -211.85 L80.35 -211.75 M-70.35 -237.2 L-71.05 -237.85 -71.65 -238.7 -72.0 -239.4 Q-72.7 -240.0 -73.1 -242.25 -73.1 -244.65 -71.2 -249.05 -69.2 -253.65 -67.4 -255.05 L-64.1 -257.95 Q-61.9 -259.8 -59.6 -260.6 -57.95 -261.15 -56.9 -261.85 L-55.35 -262.9 Q-53.3 -263.85 -45.1 -263.75 L-39.85 -263.75 -36.75 -264.75 Q-35.35 -265.3 -33.8 -266.35 -32.8 -267.0 -31.9 -268.1 L-31.85 -268.2 -31.75 -268.3 -31.5 -268.65 -31.35 -268.4 Q-30.65 -267.4 -30.65 -266.7 -30.65 -265.7 -31.7 -264.45 -32.75 -263.3 -33.75 -263.0 -34.7 -262.75 -35.55 -261.75 -36.5 -260.6 -37.2 -260.25 -40.8 -258.5 -45.5 -258.5 L-48.55 -258.7 Q-49.25 -258.65 -52.2 -257.4 L-55.2 -256.55 Q-57.1 -256.05 -57.9 -255.0 -58.75 -253.95 -60.3 -253.35 -62.1 -252.65 -63.3 -251.6 -64.15 -250.9 -67.3 -249.4 -69.45 -248.45 -69.45 -247.1 L-69.05 -245.3 Q-69.05 -243.85 -70.35 -237.2 M-38.6 160.05 L-38.75 160.35 -39.75 159.0 -40.35 158.1 -42.85 153.75 Q-45.8 147.9 -45.45 143.9 L-45.45 136.0 -43.55 136.05 -43.2 136.0 -42.35 135.85 -42.3 135.85 -42.45 136.45 -42.75 138.6 Q-42.75 140.45 -40.95 143.05 -39.15 145.6 -39.15 147.75 L-39.75 153.35 -38.5 160.05 -38.6 160.05 M-105.7 310.75 Q-106.35 309.4 -106.35 308.05 -106.35 305.0 -104.25 301.3 -101.95 297.2 -98.3 294.95 -92.15 289.95 -89.35 286.75 -89.35 288.3 -90.2 289.2 -91.0 290.0 -93.75 291.8 L-97.15 294.85 Q-98.45 296.3 -99.3 298.25 -100.2 300.4 -102.65 304.65 L-105.7 310.75 M-83.35 268.9 Q-80.0 263.15 -76.5 258.8 -72.6 253.95 -63.0 248.45 -53.65 243.1 -52.4 241.35 -50.8 239.15 -49.7 236.25 -48.5 233.15 -48.45 230.85 L-48.35 230.85 -48.2 231.75 -48.0 234.35 Q-48.0 237.6 -49.7 240.65 -52.05 244.9 -57.3 247.95 -58.45 248.65 -62.4 251.65 -66.45 254.5 -69.3 255.3 -72.15 256.15 -75.0 259.9 L-79.1 265.2 -83.35 268.9 M-45.95 221.7 L-45.9 220.35 -43.0 209.85 -42.5 208.2 Q-42.9 215.9 -45.55 220.95 L-45.95 221.7 M54.8 140.35 L55.15 141.05 55.3 141.4 55.4 141.25 55.45 141.6 55.65 141.8 55.85 142.0 56.1 141.85 56.2 141.9 56.25 142.15 56.1 142.3 56.1 142.35 56.0 142.65 55.9 142.9 57.0 147.0 Q57.8 151.0 58.35 153.0 59.8 155.75 62.0 158.5 L67.45 165.35 70.35 168.65 70.7 169.0 Q74.2 171.2 79.6 173.8 81.6 175.0 83.05 176.4 L84.0 177.1 Q87.2 179.7 87.2 182.9 L86.85 186.6 86.45 186.95 86.5 187.0 86.75 187.2 86.3 189.55 85.75 192.35 85.55 193.5 85.45 194.1 85.75 195.75 Q86.25 199.2 86.0 204.15 L86.0 204.45 85.9 205.8 85.85 207.15 85.05 212.0 85.6 212.0 85.6 212.05 85.45 214.65 85.5 216.6 85.55 217.55 Q87.4 227.35 93.9 234.9 L95.2 236.4 98.55 238.3 Q102.3 240.15 103.55 241.8 105.6 244.5 105.6 250.1 L105.25 254.05 104.5 257.2 Q103.45 260.45 101.4 263.6 L99.35 266.55 Q98.55 265.4 98.55 264.4 98.55 262.95 99.65 261.15 100.7 259.4 100.7 257.9 100.7 255.3 99.25 252.6 97.55 249.35 95.1 249.35 93.45 249.35 92.8 250.1 92.05 250.95 92.05 253.15 92.05 253.9 92.75 255.75 L92.35 256.15 89.05 251.4 Q85.5 246.1 85.5 244.85 L85.6 243.95 86.55 243.25 88.0 245.55 Q88.85 246.95 89.85 247.9 L90.9 247.2 90.9 243.6 Q88.95 241.15 86.6 239.65 L83.15 237.75 Q80.05 235.9 80.05 229.8 80.05 228.5 80.65 225.95 L81.2 222.55 Q81.2 221.7 80.65 220.75 80.05 219.8 80.05 218.9 L78.95 219.45 77.85 220.0 76.4 220.0 Q76.05 219.25 76.05 218.0 76.05 217.25 76.9 215.75 77.65 214.4 78.25 213.85 L78.25 214.2 Q77.65 215.35 77.95 216.4 78.25 217.6 79.7 218.2 L81.7 215.4 Q83.3 213.1 83.3 211.1 L82.6 202.4 Q82.6 201.05 83.15 197.75 L83.65 192.6 Q83.65 190.85 82.95 189.2 81.9 186.65 79.65 186.65 L78.65 186.85 78.2 186.45 79.3 185.75 Q80.75 184.9 80.75 183.75 80.75 182.05 77.2 179.75 73.85 177.6 72.25 177.6 L70.45 177.95 68.6 178.3 Q67.3 178.3 65.15 176.3 63.05 174.3 62.3 174.3 60.5 174.3 59.3 175.95 58.2 177.5 57.95 180.1 L56.5 180.1 55.4 179.0 54.65 177.9 Q54.65 176.25 56.3 176.0 57.95 175.8 57.95 173.05 57.95 169.9 57.05 168.65 L53.95 165.25 Q52.9 166.35 52.5 167.15 52.15 167.9 52.15 168.9 52.15 170.0 52.85 171.4 L52.5 171.4 51.25 170.35 Q50.3 169.45 50.3 168.5 50.3 167.1 51.95 163.45 53.6 159.8 53.6 158.9 53.6 156.9 52.35 154.1 51.1 151.3 51.1 148.2 51.1 144.95 51.95 143.25 52.7 141.8 54.8 140.35 M68.9 327.85 Q69.45 329.5 70.15 330.85 L72.1 334.65 Q72.95 337.0 72.95 340.45 72.95 342.8 71.2 343.9 L69.7 344.8 67.9 345.8 68.1 345.05 68.2 344.7 67.7 344.75 Q67.0 344.75 66.25 343.8 L65.4 342.85 Q63.45 342.85 61.45 345.1 59.45 347.35 59.75 349.05 L59.0 349.05 59.0 347.6 Q59.75 344.65 60.8 341.95 62.7 337.05 64.3 337.05 65.75 337.05 65.8 339.0 L65.9 341.8 68.1 341.8 69.2 340.6 69.35 340.4 69.6 339.2 69.8 336.45 Q69.8 335.35 69.2 333.95 68.6 332.55 68.6 330.45 68.6 329.0 68.9 327.85" fill="#96a2ee" fill-rule="evenodd" stroke="none"/>
  </g>
</svg>
