<?xml version="1.0" encoding="UTF-8" standalone="no"?>
<svg xmlns:ffdec="https://www.free-decompiler.com/flash" xmlns:xlink="http://www.w3.org/1999/xlink" ffdec:objectType="shape" height="694.75px" width="211.25px" xmlns="http://www.w3.org/2000/svg">
  <g transform="matrix(1.0, 0.0, 0.0, 1.0, 105.65, 317.5)">
    <path d="M-28.2 -287.05 L-24.95 -292.2 Q-20.45 -299.5 -14.9 -304.15 -14.25 -304.65 -10.7 -306.15 -6.75 -307.75 -5.05 -308.8 L-0.55 -310.65 3.4 -311.5 6.65 -310.9 Q8.8 -310.35 10.35 -310.35 13.35 -310.35 19.6 -312.4 25.9 -314.45 27.5 -314.45 31.2 -314.45 34.25 -312.55 L39.5 -308.45 40.7 -306.75 40.95 -306.85 41.0 -306.75 41.15 -306.45 41.2 -306.35 41.3 -306.4 43.35 -302.95 44.6 -299.2 44.8 -298.45 43.45 -300.25 Q42.75 -300.8 41.2 -301.15 L38.75 -301.55 Q37.8 -301.7 36.7 -302.85 35.4 -304.25 34.35 -304.7 L32.9 -305.1 32.8 -305.15 28.5 -305.4 24.15 -305.4 Q21.75 -305.25 19.4 -303.8 17.05 -302.15 15.9 -301.65 L13.45 -301.15 11.25 -300.65 Q10.6 -300.25 10.1 -299.5 L9.3 -298.25 4.85 -298.1 3.2 -297.6 1.25 -297.15 -3.5 -296.75 Q-4.7 -296.55 -6.85 -295.15 -8.8 -293.85 -10.4 -293.9 L-16.7 -293.85 Q-19.6 -293.1 -21.65 -290.85 L-24.45 -287.1 Q-25.8 -284.7 -26.85 -283.5 L-26.95 -283.4 -28.9 -281.8 -29.35 -281.35 -28.75 -285.05 -28.2 -287.05 M40.0 -298.95 L40.05 -298.95 41.45 -298.1 42.35 -297.15 42.35 -297.0 41.9 -297.4 40.0 -298.95 M101.15 -225.45 L100.35 -224.85 Q99.6 -224.35 98.25 -223.95 L97.35 -223.7 95.9 -223.4 95.6 -223.35 95.6 -223.25 93.55 -222.85 93.25 -222.8 92.3 -222.6 91.25 -222.3 90.05 -221.95 90.0 -221.95 89.9 -221.95 89.85 -222.0 89.65 -223.0 89.25 -223.95 Q88.6 -224.65 88.65 -225.75 L88.65 -227.7 Q88.5 -228.2 86.75 -229.35 L86.15 -230.4 85.7 -231.3 84.2 -233.35 Q83.05 -234.6 81.2 -235.05 79.55 -235.45 78.7 -236.5 L77.1 -238.25 Q75.8 -239.15 75.5 -240.25 L75.15 -242.1 Q74.7 -243.45 72.9 -245.85 L71.7 -246.85 70.35 -247.7 69.55 -248.65 69.45 -249.6 Q69.45 -251.7 68.55 -253.4 67.55 -255.35 65.25 -257.25 L61.05 -261.0 Q60.6 -261.4 57.55 -262.1 54.6 -262.75 53.85 -263.55 51.4 -266.1 44.85 -270.95 43.7 -271.8 43.15 -272.85 L42.45 -274.7 41.5 -276.5 Q40.65 -278.1 40.65 -278.6 L41.0 -280.05 41.4 -281.85 41.6 -283.55 42.0 -285.15 42.4 -285.9 44.9 -289.5 45.0 -289.6 Q45.15 -285.8 47.4 -282.7 L49.95 -280.0 50.7 -279.0 50.75 -279.05 52.1 -277.15 53.55 -275.35 53.6 -275.3 56.95 -271.9 56.8 -271.7 56.85 -271.65 63.45 -265.85 Q67.5 -261.9 69.7 -257.35 71.15 -252.45 72.35 -249.95 L72.65 -250.1 72.4 -249.9 72.95 -248.85 Q75.25 -245.05 83.25 -242.4 92.4 -239.35 97.05 -235.9 L97.8 -235.3 Q101.65 -232.05 101.65 -228.45 L101.15 -225.45 M72.8 -250.55 L72.95 -251.0 73.2 -251.5 73.15 -250.95 73.1 -250.8 73.05 -250.45 72.8 -250.55 M58.45 -259.5 L59.7 -258.8 59.9 -258.45 59.15 -258.95 58.45 -259.5 M41.25 -270.95 Q41.6 -270.4 42.3 -269.8 40.2 -271.1 40.2 -273.1 L41.25 -270.95 M12.75 -284.7 L13.75 -285.2 14.55 -285.5 13.8 -284.2 12.7 -282.8 11.4 -281.6 Q10.5 -281.1 10.05 -280.2 L9.85 -279.8 10.15 -280.0 Q13.05 -281.85 17.7 -282.35 L13.5 -280.5 Q11.15 -279.5 8.85 -277.1 L7.3 -275.15 Q6.6 -275.3 6.4 -275.75 L6.35 -276.4 Q6.35 -277.6 7.05 -278.1 L7.1 -278.1 6.8 -278.05 Q4.65 -277.25 3.5 -277.25 2.4 -277.25 1.95 -277.7 L1.7 -278.15 1.8 -278.45 2.7 -278.45 Q4.85 -278.45 7.4 -280.1 9.15 -281.3 10.05 -282.4 10.95 -283.5 12.75 -284.7 M31.5 -289.7 Q34.1 -287.75 36.2 -287.35 L36.3 -287.25 36.2 -287.0 35.4 -287.0 30.2 -288.65 Q25.3 -290.3 23.8 -290.3 22.05 -290.3 19.45 -288.0 17.0 -285.85 15.0 -285.7 L16.05 -286.5 16.1 -286.5 18.85 -288.65 21.55 -291.25 Q22.65 -292.2 24.95 -292.2 28.25 -292.2 31.5 -289.7 M9.8 -288.55 L9.9 -288.05 Q9.9 -286.05 3.95 -282.4 -1.05 -279.4 -5.0 -278.0 L-13.0 -278.0 -17.7 -278.9 Q-20.7 -279.7 -20.75 -280.35 L-20.65 -280.35 -7.9 -280.35 -4.3 -280.85 -1.9 -281.5 Q0.3 -282.2 2.6 -283.25 7.15 -285.35 8.4 -287.6 L9.8 -288.55 M15.45 -281.45 L15.5 -281.5 15.45 -281.5 15.45 -281.45 M10.7 -279.15 L10.75 -279.1 10.8 -279.15 10.7 -279.15 M10.95 -263.4 Q10.65 -263.55 10.6 -263.85 L11.4 -263.8 Q12.35 -263.8 13.45 -264.55 14.55 -265.35 16.9 -265.35 20.3 -265.35 24.1 -263.6 L26.35 -262.7 Q25.5 -262.0 22.35 -261.55 L20.95 -260.85 20.8 -261.0 20.75 -261.35 Q20.75 -261.8 22.05 -261.95 23.65 -262.15 24.35 -262.85 L23.55 -263.3 22.0 -263.75 18.85 -263.8 17.4 -264.0 15.7 -263.5 Q14.6 -263.0 13.8 -263.0 L10.95 -263.4 M7.45 -200.4 Q7.45 -199.4 3.55 -197.75 L-1.75 -195.75 -3.05 -195.75 -3.6 -196.45 -2.05 -197.9 Q-0.55 -199.1 -0.55 -200.2 -0.55 -201.1 -2.3 -201.9 L-4.35 -202.7 -5.85 -202.45 -6.4 -203.15 -1.55 -203.35 6.25 -201.85 Q7.45 -201.35 7.45 -200.4 M44.05 -236.15 L42.75 -235.9 Q41.05 -235.9 41.05 -236.65 41.05 -237.95 41.4 -238.7 L43.5 -238.95 Q44.2 -238.95 46.1 -238.2 L48.5 -237.0 Q49.1 -236.5 50.6 -236.05 L49.45 -235.8 Q48.75 -235.45 48.15 -235.45 47.4 -235.45 46.7 -235.9 L45.7 -236.4 44.05 -236.15 M74.3 -237.2 L76.05 -235.5 76.55 -234.7 Q75.35 -235.7 74.3 -237.2 M53.45 -224.4 L55.35 -224.75 Q56.55 -224.75 61.05 -223.25 59.45 -223.55 56.4 -222.15 L54.85 -222.1 Q53.5 -222.1 53.1 -222.6 52.9 -222.8 52.9 -223.3 52.9 -223.8 53.45 -224.4 M46.55 138.6 L48.65 138.85 50.7 139.1 52.15 138.8 Q52.5 138.4 53.3 138.25 L53.65 138.2 55.65 138.0 Q55.1 139.75 53.05 140.95 50.3 142.55 49.5 143.4 48.8 144.1 47.45 144.65 L45.45 145.4 42.35 147.9 Q41.75 147.9 41.75 147.3 41.75 146.45 43.4 144.95 45.05 143.45 45.05 142.95 L44.9 142.4 Q44.75 142.25 44.2 142.25 42.8 142.25 40.3 144.65 L37.7 147.0 36.65 146.2 Q36.65 145.25 38.5 143.6 L40.65 141.75 Q41.95 139.65 43.15 139.05 L46.55 138.6 M87.25 -221.3 L87.2 -221.25 87.15 -221.25 87.2 -221.45 87.25 -221.3 M67.65 -204.0 Q67.7 -205.6 69.35 -206.35 71.5 -207.3 75.35 -208.0 76.1 -208.2 76.6 -209.5 77.0 -210.6 78.25 -210.6 79.3 -210.6 79.7 -209.8 L79.8 -209.55 Q80.05 -208.85 79.95 -207.3 L79.95 -207.05 80.1 -207.1 80.6 -207.15 80.45 -206.9 80.3 -206.65 79.95 -205.65 79.9 -205.45 79.65 -204.05 Q79.65 -203.1 80.65 -200.9 L81.7 -198.7 82.35 -197.4 Q85.05 -192.25 85.05 -188.8 85.05 -183.9 83.0 -183.9 81.8 -183.9 79.85 -184.8 L79.8 -184.8 77.85 -185.7 77.25 -185.95 77.2 -186.4 76.7 -186.65 75.45 -187.45 74.15 -188.2 72.35 -189.1 72.1 -189.2 71.9 -189.85 71.8 -190.1 69.25 -190.95 64.05 -191.6 63.3 -191.7 63.3 -191.55 61.6 -191.45 59.6 -191.3 58.4 -191.5 60.1 -193.05 Q61.55 -194.1 61.55 -194.65 L60.85 -195.45 Q60.1 -195.95 60.1 -196.5 60.1 -197.35 66.75 -202.0 67.6 -202.4 67.65 -204.0 M85.75 194.3 L85.55 194.45 85.5 194.5 85.35 196.5 85.85 196.5 86.0 198.3 86.1 200.4 85.85 200.4 Q81.55 227.1 81.55 227.8 81.55 231.75 84.65 236.2 L90.9 244.3 Q92.05 245.95 94.7 248.7 L99.25 253.75 Q101.0 255.9 102.3 260.1 L102.7 261.4 101.4 263.6 Q98.25 268.6 94.25 271.4 L93.65 271.15 95.15 266.95 94.75 265.75 Q94.15 264.4 94.15 263.7 94.15 262.8 94.75 261.05 L95.3 258.65 Q95.3 256.05 93.4 254.2 91.55 252.45 91.8 249.15 92.05 246.05 89.05 244.4 86.75 243.1 84.0 243.1 L82.6 242.9 79.6 239.1 78.4 236.3 77.45 235.3 77.55 235.15 77.5 235.1 75.4 233.4 75.35 233.35 73.95 231.8 73.8 231.85 73.8 231.9 75.1 233.55 75.0 233.9 75.0 233.85 73.85 233.4 Q70.6 232.05 70.6 229.3 L70.65 227.85 70.95 227.9 Q70.95 227.4 71.5 226.25 L71.55 226.25 71.55 226.1 71.95 225.25 Q72.9 223.25 72.9 222.45 L72.6 220.55 72.5 219.65 Q72.5 216.6 75.45 213.8 L76.35 212.9 76.4 212.9 76.6 213.1 76.65 213.0 76.7 213.0 77.7 211.2 77.65 211.15 Q78.35 209.9 78.35 208.85 78.35 208.15 77.95 206.8 L77.55 204.85 Q77.55 203.5 78.75 201.0 L79.85 197.8 78.15 196.9 Q75.6 195.45 74.6 195.45 74.05 195.45 73.35 196.3 72.7 197.1 71.95 197.1 70.95 197.1 68.75 195.25 L66.45 193.2 63.65 191.85 61.25 190.7 58.65 188.25 57.15 185.85 Q55.6 183.25 53.4 182.4 51.05 181.5 50.25 178.45 49.65 174.9 49.05 173.45 L46.55 168.5 Q45.15 165.6 45.15 163.3 45.15 161.9 45.9 160.8 L47.25 158.4 47.55 155.5 Q47.65 153.5 48.15 152.7 48.5 152.2 50.4 150.6 51.95 149.25 52.2 148.2 52.3 146.25 52.5 145.2 52.65 144.15 53.15 143.35 L53.3 143.5 Q52.85 144.4 52.75 145.3 L53.05 147.45 53.5 154.15 Q54.35 159.35 57.55 162.05 60.8 164.8 63.05 168.55 L67.35 176.15 Q68.1 177.35 70.55 178.35 L74.6 179.75 Q76.55 180.45 77.9 182.05 L80.4 185.55 Q82.0 187.8 84.4 192.0 L85.75 194.3 M85.85 207.15 L85.6 212.0 85.05 212.0 85.85 207.15 M37.1 197.7 Q38.1 197.55 38.8 196.75 L41.35 196.15 Q44.15 195.25 44.15 194.1 44.15 193.1 43.45 191.2 42.7 189.35 42.7 188.25 42.7 187.3 43.4 185.35 43.45 187.35 44.3 188.45 L46.35 191.35 Q46.65 191.95 46.45 194.65 L46.55 195.9 Q46.65 196.65 47.15 197.25 L47.9 197.75 48.9 197.95 Q49.6 197.95 51.3 197.2 L53.15 196.2 53.25 196.45 Q52.1 197.9 49.25 199.6 46.4 201.25 45.2 201.25 44.0 201.25 42.15 200.15 40.3 199.05 39.2 199.05 L36.15 199.6 32.85 200.1 31.65 199.95 30.6 199.75 30.6 198.65 37.1 197.7 M34.9 176.2 L35.25 176.55 35.35 178.55 Q35.35 179.25 34.45 181.2 33.6 183.1 33.6 183.7 33.6 184.15 33.95 185.0 L34.3 186.25 Q34.3 187.1 32.85 189.2 31.35 191.3 30.6 191.35 L30.6 191.0 Q30.6 189.7 31.95 188.5 33.25 187.25 33.25 186.05 33.25 185.4 32.15 183.55 31.0 181.7 31.0 180.4 L31.05 180.05 34.9 176.2 M37.35 155.2 L36.85 152.45 36.3 150.2 36.45 148.35 Q36.7 149.8 38.95 150.55 41.1 151.3 41.1 151.7 L39.8 159.7 40.1 162.65 40.25 166.2 Q39.95 167.3 40.55 169.2 L41.6 172.05 42.4 174.95 Q42.9 176.55 43.5 177.0 L45.25 178.65 45.55 178.95 Q45.15 179.3 45.15 180.2 L45.6 182.0 45.9 182.55 44.45 181.8 Q43.4 181.25 42.75 180.2 L41.9 178.25 Q41.45 177.1 40.5 176.9 39.65 176.75 39.4 175.25 39.05 173.55 38.3 172.95 L36.1 171.65 Q35.0 170.9 35.0 169.6 35.0 168.9 35.65 167.65 L36.3 165.7 Q36.3 164.65 35.55 163.85 34.8 163.05 34.8 162.4 34.8 161.6 36.1 159.4 37.35 157.25 37.35 155.2 M48.45 190.35 Q48.35 189.15 47.3 187.4 L46.25 185.85 47.15 186.55 Q48.3 187.35 48.75 188.7 L49.55 190.8 Q50.3 192.15 51.8 192.15 L53.3 191.65 Q54.4 191.1 54.8 191.1 57.75 191.1 57.9 194.5 58.05 197.9 59.75 197.9 60.5 197.9 61.0 197.5 61.5 197.1 62.05 197.1 63.7 197.1 64.85 199.15 66.0 201.2 66.4 201.2 67.1 201.2 68.35 200.3 69.6 199.4 70.2 199.4 71.75 199.4 73.1 200.75 74.4 202.1 76.1 202.05 L75.95 202.35 75.3 202.6 74.3 202.85 73.05 202.4 71.6 201.9 Q70.4 201.9 69.35 202.6 68.35 203.25 67.05 203.25 65.5 203.25 65.2 202.65 64.3 201.05 63.3 200.1 62.85 199.65 61.25 199.75 L58.8 199.55 Q57.85 199.25 56.05 195.9 54.4 192.75 53.1 192.75 52.5 192.75 51.45 193.2 50.55 193.6 50.25 193.95 L50.1 194.05 49.0 192.8 Q48.6 192.0 48.45 190.35 M84.45 251.1 L83.4 254.45 82.35 257.4 Q82.35 258.7 84.1 259.8 85.8 260.9 85.8 261.85 85.8 262.9 85.2 264.15 L84.15 266.3 84.05 266.25 Q84.0 261.05 81.35 260.0 79.95 259.45 79.55 259.05 78.75 258.15 78.75 255.85 L78.9 251.8 Q78.65 248.9 76.5 248.9 L76.5 248.8 77.15 248.6 Q78.75 248.6 79.85 250.4 81.0 252.15 81.5 252.15 82.55 252.15 82.55 250.6 82.55 249.45 82.0 248.7 81.5 248.05 80.25 247.3 L80.25 247.2 Q81.5 247.55 82.8 248.5 84.45 249.7 84.45 251.1 M62.05 207.75 L63.6 207.45 65.45 207.7 67.2 207.9 68.4 207.7 69.75 207.45 69.9 207.65 66.5 209.05 Q63.45 210.35 63.45 211.1 63.45 211.45 63.95 212.2 L64.4 213.5 64.1 214.95 Q63.75 215.9 63.4 215.9 L62.55 215.55 61.25 216.4 61.05 216.2 60.9 216.2 60.85 216.35 60.15 217.3 59.4 218.05 56.9 220.3 Q54.0 222.75 54.0 225.75 L54.45 228.8 Q53.5 228.55 52.6 227.25 51.65 225.85 51.65 224.45 51.65 222.85 52.25 221.6 53.0 219.95 54.5 219.55 L54.7 219.35 Q55.35 218.85 56.25 218.5 L56.65 218.35 58.35 216.55 60.4 214.4 60.9 213.35 60.95 213.2 61.35 212.7 61.25 212.35 61.2 212.2 Q60.75 210.55 60.75 209.5 60.75 208.25 62.05 207.75 M64.1 233.25 L64.1 234.45 Q63.8 234.8 63.8 235.35 63.8 236.4 64.85 237.05 L65.7 237.3 Q67.7 238.2 68.1 241.05 68.45 243.9 70.7 245.5 L71.2 245.8 Q72.3 246.45 72.3 246.95 72.3 247.7 71.5 247.7 L71.1 247.7 71.05 247.65 70.7 247.35 70.6 247.7 69.9 247.7 Q65.3 247.7 64.8 242.15 L64.35 238.45 64.3 238.35 64.1 237.9 64.1 237.85 64.05 237.8 Q63.55 236.6 63.05 236.6 L62.05 236.75 61.95 236.75 Q61.35 236.75 61.35 235.8 61.35 235.1 62.1 234.15 62.9 233.1 63.55 233.1 L64.1 233.25 M50.7 234.85 Q50.7 234.0 51.75 233.7 L53.4 233.4 54.35 233.4 Q55.6 232.8 57.25 232.8 L60.3 232.95 60.3 233.1 Q59.75 233.65 58.2 233.8 L55.95 234.0 53.9 235.05 Q52.45 235.85 51.75 235.85 L51.1 235.55 Q50.7 235.25 50.7 234.85 M54.45 229.85 L54.45 230.0 Q53.15 230.25 51.55 231.8 L49.95 233.25 Q49.45 233.25 48.9 232.5 48.3 231.8 48.3 231.15 48.3 230.3 49.7 229.95 L51.2 229.8 51.2 229.95 51.55 229.85 52.6 229.55 54.45 229.85 M32.8 259.2 L32.9 259.9 Q32.9 260.75 32.15 261.15 L29.55 262.05 29.25 262.0 29.15 262.05 29.1 262.1 27.3 262.9 26.5 262.65 Q26.2 262.45 26.2 261.8 L26.2 261.7 Q26.2 261.1 27.45 260.55 L29.05 260.1 29.1 260.1 30.05 259.6 32.7 259.1 32.8 259.2 M23.7 263.8 Q22.6 263.6 22.25 263.25 L22.15 262.55 Q23.35 261.5 25.05 261.35 L25.2 261.6 25.3 262.4 25.25 263.2 25.05 263.6 23.7 263.8 M14.9 248.5 L15.0 249.15 Q15.0 250.05 10.7 253.95 L9.9 253.7 Q9.6 253.45 9.6 252.7 L9.8 252.35 9.25 251.75 9.15 250.7 Q9.15 249.55 9.35 249.25 9.9 248.5 12.05 248.85 L12.2 248.95 12.3 249.35 Q13.45 248.45 14.75 248.4 L14.9 248.5 M10.05 255.45 L9.9 256.0 10.05 256.8 9.95 259.0 9.75 259.2 8.9 259.35 Q8.15 259.35 7.7 258.2 7.35 257.4 7.35 256.95 L7.55 256.15 7.35 255.85 Q7.35 255.55 8.0 255.0 L8.9 254.4 9.7 255.0 10.05 255.45 M8.25 264.55 Q7.35 263.6 7.35 263.0 L7.45 261.8 Q8.75 261.9 10.1 262.7 11.3 263.4 11.45 264.15 L12.2 264.3 16.1 265.4 16.2 265.5 16.3 266.05 16.3 266.2 Q16.3 266.75 15.7 267.25 L14.75 267.85 12.5 267.85 11.0 266.85 Q10.3 266.15 10.1 265.6 9.2 265.5 8.25 264.55 M19.7 264.05 L19.8 264.15 19.9 264.85 Q19.9 266.5 17.9 266.5 L16.9 266.4 16.75 266.3 16.4 266.1 16.3 265.25 Q16.3 264.6 17.75 264.15 L19.7 264.05 M53.7 296.85 Q50.75 300.85 50.3 304.25 50.0 306.35 50.3 310.95 50.3 315.95 48.15 319.4 45.45 323.8 38.7 327.05 L37.65 327.05 37.2 326.6 38.9 325.6 Q41.1 324.3 43.05 321.45 44.7 319.25 45.65 316.1 46.35 314.1 46.5 310.8 L46.85 305.3 Q47.85 298.65 50.85 294.5 54.6 289.2 62.45 286.9 68.25 285.2 74.25 285.45 L74.7 285.75 Q73.8 286.4 67.85 287.9 L65.35 288.8 Q63.6 289.4 61.95 290.25 59.55 291.5 57.25 293.35 54.9 295.2 53.7 296.85 M68.9 286.7 L69.3 286.65 68.9 286.65 68.9 286.7 M67.65 346.6 L65.55 348.15 Q62.9 350.3 57.15 351.05 L52.9 354.9 Q50.65 357.3 50.7 359.15 L50.25 359.3 Q49.8 358.7 49.8 356.15 49.8 352.1 50.15 349.7 50.4 347.65 50.95 346.4 51.45 345.2 53.2 344.7 L55.65 343.85 Q57.25 342.4 57.25 340.6 57.0 338.55 57.15 337.45 L58.25 334.4 59.25 331.25 Q59.25 329.85 57.85 329.3 56.45 328.75 56.45 327.9 56.45 326.6 57.95 325.65 L59.85 324.3 Q60.55 323.1 60.2 320.5 59.9 318.65 61.35 316.05 L63.15 312.65 Q63.85 309.45 66.6 304.85 67.3 303.5 69.75 300.65 72.6 297.35 72.6 299.0 L72.0 300.45 71.4 301.75 71.05 304.45 69.7 309.7 Q69.2 311.1 68.7 314.75 68.2 318.3 68.2 320.35 68.2 323.4 69.45 326.5 69.1 327.0 68.9 327.85 68.6 329.0 68.6 330.45 L68.8 332.5 68.45 331.7 Q67.15 328.35 66.45 328.35 65.05 328.35 63.1 330.85 L62.4 331.85 Q61.9 332.6 61.65 333.3 61.15 334.0 60.9 334.85 L60.6 335.85 Q60.45 336.6 60.45 339.8 60.45 341.25 61.4 344.4 62.3 347.2 62.65 347.6 L64.45 347.6 64.5 347.4 Q64.6 347.2 64.8 347.2 63.45 346.65 63.15 345.5 63.0 345.05 63.0 342.9 63.0 340.45 65.55 336.35 66.85 336.7 68.3 338.45 69.05 339.35 69.4 340.15 L68.75 342.8 68.1 345.05 67.65 346.6 M61.05 304.6 Q60.05 305.8 59.75 306.75 L58.55 309.9 Q58.2 310.95 58.2 313.05 L57.9 316.2 56.95 319.35 Q56.25 321.15 54.9 322.35 51.05 325.85 51.45 328.8 51.6 328.95 51.2 328.95 L50.85 328.85 50.75 327.95 50.9 326.3 51.15 324.75 Q51.25 324.0 51.8 323.05 L52.55 321.65 Q53.2 319.85 53.7 315.35 54.65 306.85 61.65 303.15 61.95 303.15 61.95 303.5 L61.05 304.6 M59.6 305.45 L59.6 305.4 59.45 305.4 59.6 305.45 M42.9 306.3 L43.4 308.6 43.65 311.15 Q43.65 313.75 41.4 316.7 39.25 319.55 37.5 319.55 L37.05 319.35 37.05 319.1 Q39.05 317.1 40.0 314.35 L41.3 309.6 41.85 306.8 Q42.3 305.05 42.9 306.3 M42.4 312.6 L42.25 313.35 42.6 312.5 42.4 312.6 M52.05 324.35 L52.25 324.0 52.2 324.05 52.05 324.35 M43.95 329.05 Q43.95 329.55 42.45 330.25 L39.15 331.85 Q34.35 334.55 34.35 338.7 34.35 341.3 35.35 343.95 L36.3 346.1 36.3 346.5 35.9 346.55 Q35.45 346.55 33.25 344.4 31.1 342.35 30.65 341.55 29.4 339.0 29.4 336.35 L29.6 333.95 Q29.9 332.8 31.05 331.65 32.5 330.15 34.15 329.9 L37.65 329.7 41.0 329.1 43.8 328.7 43.9 328.8 43.95 329.05 M41.85 324.45 L41.95 324.4 41.9 324.3 41.85 324.45 M45.05 344.7 Q44.1 346.45 43.85 347.55 L43.0 353.9 Q42.45 357.65 41.55 359.25 41.15 359.0 41.15 358.3 41.15 357.25 41.6 355.55 L42.05 352.55 41.7 349.65 Q41.3 347.85 41.3 346.5 41.3 342.1 43.4 340.35 43.7 340.1 45.5 339.3 47.15 338.6 47.7 337.95 L49.45 336.5 Q50.8 335.5 51.3 335.4 L51.4 335.5 51.45 335.7 49.6 338.15 46.95 341.7 45.05 344.7 M48.15 338.6 L48.15 338.55 48.15 338.6 M68.8 332.5 L69.35 333.95 69.2 333.95 68.8 332.5 M34.35 344.25 L34.25 344.25 34.35 344.25 M27.3 348.6 Q27.75 347.75 28.1 347.55 L28.65 347.4 28.65 348.15 Q28.45 348.75 28.45 350.8 28.05 352.5 25.5 352.5 23.5 352.5 20.85 349.9 18.6 347.65 14.35 347.35 L11.35 347.1 9.55 347.25 9.95 346.8 Q12.0 344.6 17.15 344.6 19.5 344.6 20.85 347.0 22.15 349.4 25.0 349.4 26.6 349.4 27.3 348.6 M24.65 360.0 Q25.95 360.0 25.65 361.35 25.65 362.3 24.25 363.9 22.8 365.5 22.8 367.45 L22.85 368.35 Q22.95 368.8 23.4 369.0 L25.65 369.0 27.05 368.4 Q28.4 367.85 29.8 367.85 L31.25 368.0 33.9 368.4 Q34.65 368.45 34.65 368.9 34.65 369.05 28.65 373.5 L26.25 375.55 Q23.45 377.25 19.4 377.25 15.55 377.25 12.55 374.55 11.15 373.3 8.25 369.3 7.0 367.4 5.05 365.65 1.25 362.25 -2.6 362.25 L-10.95 363.05 -20.0 364.05 Q-22.4 364.35 -23.5 364.9 L-25.7 365.85 -29.45 365.9 -30.05 366.0 Q-32.0 366.0 -35.1 364.45 -38.75 362.55 -39.15 362.45 L-39.4 362.4 -39.5 362.1 Q-39.5 361.35 -38.2 361.2 -35.6 360.95 -33.5 360.2 -32.35 359.8 -30.3 358.1 -29.3 357.35 -27.4 357.5 -25.8 357.55 -24.65 356.25 L-23.7 354.95 Q-22.9 354.2 -21.6 354.15 L-19.7 356.2 Q-17.7 357.9 -14.7 357.9 -12.3 357.9 -11.35 357.25 -10.35 356.55 -8.45 356.55 -7.85 356.55 -7.0 356.95 L-5.25 357.3 -0.65 355.8 Q3.25 354.3 7.7 354.3 9.75 354.3 10.1 355.05 L10.7 358.25 Q11.1 359.85 11.55 360.5 12.5 362.0 14.45 362.0 15.95 362.0 16.8 361.25 L18.3 360.0 19.7 360.0 20.65 361.0 Q20.9 361.4 21.75 361.4 22.5 361.4 23.4 360.7 24.25 360.0 24.65 360.0 M-2.5 -274.0 Q-3.85 -271.75 -6.15 -271.75 -9.05 -271.75 -9.65 -273.65 L-9.9 -274.55 -9.3 -274.3 -5.8 -273.65 Q-4.7 -273.65 -3.1 -274.85 -2.0 -275.65 -1.5 -276.55 -1.6 -275.45 -2.5 -274.0 M-29.85 -269.65 L-29.95 -269.8 -29.95 -269.65 -29.85 -269.65 M-36.2 -265.3 L-34.75 -265.95 Q-32.8 -266.6 -31.9 -267.8 L-31.6 -268.3 -31.6 -268.35 -30.5 -270.6 -30.6 -270.75 -30.55 -271.35 Q-28.4 -270.7 -27.85 -268.55 L-27.6 -264.85 -27.35 -257.7 Q-27.35 -252.05 -33.9 -251.6 L-39.1 -251.4 Q-41.8 -251.15 -42.75 -250.0 L-43.95 -247.85 Q-44.75 -246.4 -45.8 -245.8 L-46.45 -245.5 -48.6 -245.4 Q-52.2 -245.65 -53.2 -245.35 L-54.25 -244.75 Q-54.85 -244.55 -55.75 -243.75 L-56.55 -242.75 -55.65 -241.4 Q-54.8 -240.25 -54.8 -239.4 -54.8 -237.1 -58.45 -236.2 -62.15 -235.3 -62.15 -232.35 L-62.15 -232.15 Q-62.2 -231.5 -62.9 -231.5 L-63.0 -231.5 -63.85 -231.6 -63.85 -231.65 Q-65.55 -232.15 -67.75 -234.35 -69.65 -236.25 -70.85 -238.1 L-70.9 -238.2 -72.0 -239.95 -72.55 -241.65 -72.8 -243.25 -71.55 -247.2 Q-69.45 -252.4 -65.8 -254.55 L-59.65 -258.55 Q-55.3 -261.15 -51.95 -261.15 L-46.85 -260.75 Q-43.3 -260.75 -40.2 -262.45 -38.7 -263.3 -36.2 -265.3 M-17.85 -248.7 L-17.8 -249.3 Q-16.4 -249.35 -15.6 -247.25 -15.1 -245.9 -15.1 -244.9 -15.1 -240.0 -21.15 -239.1 -24.3 -238.6 -28.8 -239.1 L-31.7 -238.6 -32.3 -238.7 -32.35 -239.25 Q-32.35 -240.3 -29.45 -241.35 L-28.6 -241.7 -28.25 -241.75 -24.25 -242.95 Q-23.25 -243.5 -22.15 -243.45 L-20.25 -243.7 -19.65 -244.1 -18.95 -244.75 -18.15 -245.95 Q-17.45 -247.05 -17.45 -247.3 L-17.65 -248.0 -17.85 -248.7 M-55.05 -227.65 Q-45.0 -232.5 -42.05 -233.35 L-34.95 -233.55 Q-29.95 -231.95 -29.95 -230.95 L-30.5 -230.35 -41.2 -229.65 -45.8 -228.3 -48.2 -227.0 Q-50.4 -225.8 -51.25 -225.8 -53.4 -225.8 -55.05 -227.65 M-55.5 -213.95 Q-51.85 -213.0 -50.5 -210.6 L-49.2 -209.1 Q-48.35 -208.35 -47.1 -208.0 L-43.8 -207.15 -42.75 -206.7 -41.75 -205.25 -40.85 -203.6 Q-40.05 -202.6 -38.35 -202.25 L-32.1 -201.5 Q-26.25 -200.8 -25.05 -200.2 -23.45 -199.4 -22.25 -197.2 -21.15 -195.3 -21.15 -193.95 -21.15 -193.05 -21.3 -192.9 -21.55 -192.55 -22.8 -192.35 L-36.95 -190.9 -41.0 -190.15 -44.05 -189.45 -45.4 -188.7 Q-46.7 -188.05 -47.7 -188.05 -50.7 -188.05 -53.6 -193.7 -55.35 -197.1 -56.15 -200.2 -57.0 -203.7 -58.45 -207.55 -59.15 -209.35 -59.15 -212.5 -59.15 -214.85 -55.5 -213.95 M-38.75 -233.05 L-38.8 -233.05 -38.8 -232.8 -38.75 -233.05 M-26.15 -222.25 L-26.8 -222.3 -26.25 -222.15 -26.15 -222.25 M-29.25 -212.85 L-29.3 -213.2 -27.05 -214.85 Q-24.8 -216.2 -24.8 -218.35 -24.8 -219.95 -25.45 -220.55 -26.75 -221.7 -31.05 -221.7 L-33.95 -221.05 -34.5 -221.15 -34.65 -221.3 -34.7 -221.65 Q-34.7 -222.45 -28.1 -223.35 -24.2 -223.6 -21.75 -222.35 -19.35 -221.05 -19.35 -218.8 -19.35 -217.75 -20.1 -216.85 -21.0 -215.7 -22.7 -215.35 L-25.6 -213.9 Q-28.1 -212.65 -28.55 -212.65 L-29.1 -212.75 -29.25 -212.85 M-6.6 -211.25 L-5.15 -209.15 Q-4.5 -208.35 -4.5 -207.4 -4.5 -206.8 -4.85 -206.55 -5.35 -206.15 -6.8 -206.15 -8.55 -206.15 -8.55 -207.2 L-8.55 -208.9 -8.85 -209.6 -9.4 -210.35 Q-9.75 -210.65 -11.2 -210.95 L-12.0 -211.1 -12.55 -210.9 -14.35 -211.0 -16.8 -210.7 -17.35 -210.45 -18.05 -210.6 -18.1 -211.4 Q-18.1 -212.3 -16.5 -213.3 -14.9 -214.25 -14.05 -213.9 L-13.95 -213.75 -12.1 -214.05 Q-9.4 -214.0 -8.15 -213.1 -7.55 -212.7 -6.6 -211.25 M-7.35 -207.85 L-7.25 -207.5 Q-7.45 -207.35 -6.95 -207.35 L-6.8 -207.35 -7.35 -207.85 M-0.7 -197.35 L-0.7 -197.45 -0.85 -197.35 -0.7 -197.35 M-38.35 134.7 L-32.3 134.6 -30.4 134.5 -30.6 134.25 Q-30.6 133.95 -30.2 133.95 L-25.25 133.8 Q-25.0 133.8 -24.9 134.0 L-23.4 133.4 -22.8 133.4 -22.35 133.95 -23.9 136.3 Q-25.5 138.65 -25.5 139.95 L-24.9 142.95 Q-24.0 145.85 -22.5 145.85 -21.65 145.85 -21.4 144.8 L-21.3 143.75 Q-21.3 142.7 -21.9 141.5 -22.55 140.3 -22.55 139.0 -22.55 137.75 -21.6 135.9 -21.15 135.1 -19.85 134.3 -18.5 133.45 -17.25 133.35 L-17.25 133.9 Q-17.25 134.35 -18.35 136.2 -19.5 138.1 -19.5 138.95 -19.5 140.3 -18.4 141.5 -17.3 142.7 -17.3 143.95 L-17.6 145.95 -17.9 147.9 Q-17.9 148.75 -16.3 150.4 L-14.45 152.3 -13.95 154.6 -13.65 156.75 Q-13.65 159.7 -15.35 162.1 -17.45 165.1 -21.9 166.5 -22.25 166.35 -22.25 165.8 L-19.7 163.3 Q-17.15 160.7 -17.15 158.1 -17.15 156.5 -17.5 154.9 -17.8 153.6 -18.3 152.8 L-19.9 151.15 Q-21.5 149.25 -22.85 149.25 L-22.9 149.25 -23.15 149.9 Q-23.15 150.6 -21.85 153.1 -20.55 155.6 -20.55 158.7 -20.55 162.2 -23.75 163.6 -27.0 165.05 -27.15 168.8 L-27.15 171.65 -24.15 169.25 -22.05 167.4 Q-21.65 167.4 -21.6 167.75 L-21.6 168.1 Q-21.6 170.35 -23.55 172.35 -26.1 175.0 -30.8 175.2 L-31.7 175.2 -32.4 174.65 -32.45 174.15 Q-31.5 170.8 -31.5 169.3 -31.5 166.7 -32.95 164.85 L-35.0 162.65 -34.25 161.4 Q-33.7 160.85 -32.1 160.3 -30.75 159.85 -30.75 159.4 -30.75 159.1 -30.9 158.75 -31.1 158.25 -31.4 158.25 L-32.8 158.6 -34.1 158.9 Q-35.55 158.9 -36.25 157.55 -36.9 156.4 -36.9 154.55 -36.9 152.65 -35.9 151.4 -34.9 150.2 -33.3 150.2 -32.3 150.2 -30.95 150.8 -29.6 151.4 -28.95 151.4 L-27.5 151.35 Q-26.95 151.15 -26.25 150.2 -28.45 150.3 -29.85 148.1 -31.25 145.95 -33.3 146.1 -35.7 146.3 -37.1 144.8 -38.9 142.95 -38.9 138.7 -38.9 136.1 -38.35 134.7 M-18.45 134.7 L-18.45 134.75 -18.45 134.7 M-22.7 168.95 L-22.75 169.0 -22.7 169.05 -22.7 168.95 M-31.45 174.45 L-31.5 174.2 -31.5 174.45 -31.45 174.45 M-41.75 209.75 L-39.7 201.25 -39.25 198.6 Q-38.7 195.85 -37.85 194.75 L-38.45 194.75 -38.5 194.45 -38.2 193.95 -37.0 193.8 Q-34.65 196.15 -34.7 199.8 L-34.65 205.9 -33.4 208.9 Q-32.3 211.05 -32.1 211.95 -30.9 216.4 -30.9 217.85 -30.9 220.5 -33.15 223.95 -31.65 226.15 -31.65 229.25 -31.65 230.5 -31.95 231.5 L-32.6 233.3 -32.85 233.4 -33.0 232.7 -32.75 230.4 -32.85 229.7 Q-33.0 229.45 -33.55 229.45 -34.25 229.45 -34.85 230.7 L-35.75 232.45 -36.2 232.45 -36.45 229.9 -36.4 228.8 -36.0 227.4 -36.0 226.35 -36.6 226.35 -37.2 227.2 -37.55 228.35 -37.3 231.9 Q-37.3 235.7 -38.75 236.6 -40.2 237.45 -40.2 239.05 L-40.0 239.75 -40.05 240.6 Q-40.05 241.55 -41.75 243.35 L-44.1 245.3 Q-45.35 245.95 -46.05 247.1 -46.75 248.2 -46.75 249.3 -46.75 250.2 -46.05 250.25 L-44.75 250.1 Q-44.15 250.1 -43.75 250.6 -43.4 251.05 -43.4 251.55 -43.4 252.25 -43.8 252.8 L-44.25 253.7 Q-44.25 254.35 -42.95 254.2 -42.25 254.2 -41.1 253.55 -39.9 252.9 -39.15 252.9 L-38.5 253.1 Q-38.15 253.3 -38.15 253.65 -38.15 254.35 -40.75 255.15 L-42.25 255.75 -43.5 256.1 Q-45.2 256.1 -45.45 254.45 -45.75 252.75 -47.95 252.75 -48.75 252.75 -50.35 253.75 L-52.3 255.15 Q-53.05 255.85 -54.2 255.95 L-56.25 256.0 Q-57.55 256.0 -58.65 258.05 L-59.6 259.6 -61.05 259.45 -63.0 259.95 -65.0 260.55 -66.95 261.1 Q-68.25 261.75 -68.1 262.95 -67.9 264.25 -68.55 264.9 L-70.05 266.05 -72.0 267.35 Q-72.9 268.05 -72.9 269.25 -72.9 270.65 -72.15 271.7 L-71.45 272.95 -75.2 277.95 Q-75.8 277.7 -75.8 276.75 -75.8 276.0 -74.95 275.05 -74.1 274.1 -74.1 273.4 -74.1 272.45 -74.8 272.2 -75.8 271.8 -76.05 271.45 L-76.05 270.2 Q-76.05 269.2 -76.65 269.2 -77.35 269.2 -77.7 270.25 L-77.95 271.95 -77.6 275.2 Q-77.6 276.45 -78.95 277.75 -80.35 279.1 -80.35 280.15 -80.35 280.7 -78.8 283.45 -78.3 284.15 -78.2 285.8 L-78.1 288.0 -78.05 288.85 Q-78.2 290.85 -80.9 292.95 -84.3 295.6 -84.3 296.25 L-84.0 297.15 Q-83.7 297.75 -83.7 298.2 -83.7 298.9 -84.45 299.55 -85.1 300.15 -85.85 300.25 -87.25 300.4 -88.4 302.75 L-89.9 307.6 Q-90.95 310.9 -92.05 310.9 -92.7 310.9 -92.7 309.65 -92.7 308.8 -91.45 306.15 -90.2 303.45 -90.2 302.35 -90.2 301.4 -90.4 301.2 L-91.15 301.1 Q-93.0 301.1 -94.05 303.9 -94.85 305.95 -95.0 308.75 L-95.35 311.55 -95.8 313.7 -95.8 314.6 Q-95.75 315.15 -95.95 315.35 -96.55 316.1 -97.15 316.1 L-97.8 315.85 -97.85 315.85 -97.8 316.1 -98.5 315.7 -98.7 315.55 Q-101.1 315.5 -102.8 313.95 L-103.0 313.75 -104.35 312.35 -104.65 311.8 -104.95 311.25 -104.65 311.2 Q-104.35 308.05 -102.75 306.65 -100.3 304.5 -99.45 300.3 -99.1 298.7 -93.25 294.6 -87.6 290.6 -87.6 288.9 L-88.2 287.15 -88.55 286.2 -88.45 286.05 -87.75 284.4 Q-87.2 282.85 -87.0 281.2 L-86.75 279.75 -86.75 279.65 -86.9 278.45 -86.6 275.55 -85.95 273.05 -85.45 273.05 Q-84.1 272.85 -83.4 271.05 L-81.3 269.05 Q-79.1 267.35 -78.45 266.55 -77.35 265.25 -73.35 261.65 -69.95 258.6 -68.6 256.5 -67.8 255.25 -64.0 254.05 L-59.75 252.65 -57.9 250.55 Q-56.5 248.95 -54.15 247.95 -49.8 246.1 -47.7 240.5 -46.2 236.5 -46.2 232.35 -46.2 230.45 -46.9 229.1 L-47.1 229.05 -47.05 228.85 -45.3 222.75 -45.15 222.3 -45.05 222.35 Q-42.4 218.15 -42.0 214.8 L-41.75 209.75 M-31.85 343.2 L-30.15 341.1 Q-29.1 339.65 -27.6 339.05 -25.45 338.2 -20.0 337.7 L-20.0 337.65 Q-14.65 338.4 -11.4 339.9 L-6.15 342.6 -6.6 343.05 -8.3 343.05 -13.85 342.1 -19.9 341.55 Q-23.5 341.55 -27.3 342.65 -31.85 343.95 -32.85 346.1 L-33.3 345.7 Q-33.3 345.05 -31.85 343.2 M-9.7 341.7 L-9.9 341.9 -9.3 341.9 -9.7 341.7" fill="#61699a" fill-rule="evenodd" stroke="none"/>
    <path d="M-28.2 -287.05 L-27.05 -290.35 Q-25.45 -294.15 -23.15 -297.25 L-22.4 -298.25 -19.75 -301.2 -19.45 -301.45 -16.7 -304.35 -9.35 -310.35 Q-3.25 -314.15 2.1 -314.15 L8.7 -313.1 12.45 -312.35 13.4 -312.3 Q15.65 -312.3 21.9 -314.25 L23.25 -314.65 23.3 -314.65 23.2 -314.8 Q29.45 -317.5 31.45 -317.5 34.35 -317.5 36.25 -315.15 L38.45 -311.4 39.2 -310.15 40.1 -308.4 40.95 -306.85 40.7 -306.75 39.5 -308.45 34.25 -312.55 Q31.2 -314.45 27.5 -314.45 25.9 -314.45 19.6 -312.4 13.35 -310.35 10.35 -310.35 8.8 -310.35 6.65 -310.9 L3.4 -311.5 -0.55 -310.65 -5.05 -308.8 Q-6.75 -307.75 -10.7 -306.15 -14.25 -304.65 -14.9 -304.15 -20.45 -299.5 -24.95 -292.2 L-28.2 -287.05 M45.0 -289.6 L45.55 -290.3 47.45 -285.8 50.15 -280.1 50.75 -279.05 50.7 -279.0 49.95 -280.0 47.4 -282.7 Q45.15 -285.8 45.0 -289.6 M56.95 -271.9 Q58.2 -270.75 60.7 -269.3 L64.8 -266.8 Q69.1 -263.7 70.3 -258.4 L70.9 -257.65 71.1 -257.35 71.5 -255.55 72.25 -252.0 72.65 -250.1 72.8 -250.55 73.05 -250.45 Q73.35 -249.3 74.8 -248.15 L75.05 -247.95 Q77.1 -246.35 81.3 -244.65 86.1 -242.75 92.3 -241.15 97.45 -239.75 99.8 -237.65 102.85 -235.0 102.85 -230.15 102.85 -227.1 101.15 -225.45 L101.65 -228.45 Q101.65 -232.05 97.8 -235.3 L97.05 -235.9 Q92.4 -239.35 83.25 -242.4 75.25 -245.05 72.95 -248.85 L72.4 -249.9 72.65 -250.1 72.35 -249.95 Q71.15 -252.45 69.7 -257.35 67.5 -261.9 63.45 -265.85 L56.85 -271.65 56.8 -271.7 56.95 -271.9 M53.3 143.5 L53.4 143.55 53.95 142.6 54.3 142.2 54.35 142.15 54.5 142.1 54.6 142.0 54.65 142.0 54.8 141.75 55.05 141.75 Q57.45 156.8 66.6 165.9 69.0 168.25 73.0 170.55 L79.55 174.2 Q86.7 178.5 86.7 184.85 L86.65 187.1 86.65 187.2 86.25 191.2 86.15 192.05 86.1 192.4 85.85 194.2 85.75 194.3 84.4 192.0 Q82.0 187.8 80.4 185.55 L77.9 182.05 Q76.55 180.45 74.6 179.75 L70.55 178.35 Q68.1 177.35 67.35 176.15 L63.05 168.55 Q60.8 164.8 57.55 162.05 54.35 159.35 53.5 154.15 L53.05 147.45 52.75 145.3 Q52.85 144.4 53.3 143.5 M86.1 200.4 L86.0 204.15 86.0 204.45 85.9 205.8 85.85 207.15 85.05 212.0 85.6 212.0 85.45 214.65 85.5 216.6 Q85.5 217.95 85.65 219.2 85.85 221.85 86.45 223.65 88.7 230.4 92.3 234.05 94.4 236.2 98.55 238.3 102.3 240.15 103.55 241.8 105.6 244.5 105.6 250.1 L105.25 254.05 104.5 257.2 Q103.8 259.3 102.7 261.4 L102.3 260.1 Q101.0 255.9 99.25 253.75 L94.7 248.7 Q92.05 245.95 90.9 244.3 L84.65 236.2 Q81.55 231.75 81.55 227.8 81.55 227.1 85.85 200.4 L86.1 200.4 M46.9 179.4 L46.25 177.35 45.25 174.3 45.25 167.8 Q45.95 175.25 48.85 180.6 51.85 186.05 57.45 190.05 54.3 188.45 52.1 186.9 49.55 185.1 48.25 182.9 47.25 181.25 46.9 179.4 M64.4 220.5 L68.1 216.3 74.25 210.2 68.9 219.25 Q66.25 223.6 66.25 228.65 66.25 231.2 68.6 235.05 L68.45 235.3 67.95 234.7 Q63.0 228.65 63.0 226.5 63.0 225.85 63.5 223.7 L63.6 223.3 64.4 220.5 M69.45 326.5 Q70.1 328.2 71.15 329.9 74.05 334.65 74.05 337.25 74.05 343.85 70.55 344.95 69.45 345.3 67.65 346.6 L68.1 345.05 68.75 342.8 69.4 340.15 Q69.05 339.35 68.3 338.45 66.85 336.7 65.55 336.35 63.0 340.45 63.0 342.9 63.0 345.05 63.15 345.5 63.45 346.65 64.8 347.2 64.6 347.2 64.5 347.4 L64.45 347.6 62.65 347.6 Q62.3 347.2 61.4 344.4 60.45 341.25 60.45 339.8 60.45 336.6 60.6 335.85 L60.9 334.85 Q61.15 334.0 61.65 333.3 61.9 332.6 62.4 331.85 L63.1 330.85 Q65.05 328.35 66.45 328.35 67.15 328.35 68.45 331.7 L68.8 332.5 68.6 330.45 Q68.6 329.0 68.9 327.85 69.1 327.0 69.45 326.5 M68.8 332.5 L69.2 333.95 69.35 333.95 68.8 332.5 M-72.8 -243.25 L-73.2 -244.95 Q-73.2 -247.4 -71.05 -250.35 L-67.0 -255.75 Q-64.35 -259.9 -53.7 -264.1 L-48.3 -264.1 Q-44.6 -262.7 -43.45 -262.7 -42.0 -262.7 -38.7 -264.15 L-36.2 -265.3 Q-38.7 -263.3 -40.2 -262.45 -43.3 -260.75 -46.85 -260.75 L-51.95 -261.15 Q-55.3 -261.15 -59.65 -258.55 L-65.8 -254.55 Q-69.45 -252.4 -71.55 -247.2 L-72.8 -243.25 M-35.0 162.65 L-35.9 161.6 -38.05 159.65 -38.7 159.1 -39.95 157.8 -41.55 155.8 -43.05 153.9 Q-45.9 149.2 -45.5 145.95 L-45.9 142.35 -46.35 138.1 -46.25 136.2 -46.15 135.8 -45.6 135.45 -44.9 135.05 -44.95 135.25 -44.9 135.25 -42.0 134.9 -39.45 134.7 -38.35 134.7 Q-38.9 136.1 -38.9 138.7 -38.9 142.95 -37.1 144.8 -35.7 146.3 -33.3 146.1 -31.25 145.95 -29.85 148.1 -28.45 150.3 -26.25 150.2 -26.95 151.15 -27.5 151.35 L-28.95 151.4 Q-29.6 151.4 -30.95 150.8 -32.3 150.2 -33.3 150.2 -34.9 150.2 -35.9 151.4 -36.9 152.65 -36.9 154.55 -36.9 156.4 -36.25 157.55 -35.55 158.9 -34.1 158.9 L-32.8 158.6 -31.4 158.25 Q-31.1 158.25 -30.9 158.75 -30.75 159.1 -30.75 159.4 -30.75 159.85 -32.1 160.3 -33.7 160.85 -34.25 161.4 L-35.0 162.65 M-104.95 311.25 L-105.3 310.3 Q-105.65 309.15 -105.65 306.85 L-105.5 304.3 Q-105.25 302.85 -104.45 301.85 L-104.35 301.75 -104.4 301.7 -103.75 301.0 -101.4 298.7 Q-100.05 297.05 -98.2 295.55 L-95.0 293.1 -94.9 293.05 -93.4 292.2 -93.2 292.05 -91.7 290.55 -90.4 289.05 -88.55 286.2 -88.2 287.15 -87.6 288.9 Q-87.6 290.6 -93.25 294.6 -99.1 298.7 -99.45 300.3 -100.3 304.5 -102.75 306.65 -104.35 308.05 -104.65 311.2 L-104.95 311.25 M-85.95 273.05 Q-85.05 270.35 -83.3 267.55 -80.9 263.75 -78.7 262.4 -74.2 255.85 -69.85 252.65 -67.15 250.7 -63.2 248.7 L-57.2 245.65 Q-50.95 241.95 -48.75 234.65 L-47.1 229.05 -46.9 229.1 Q-46.2 230.45 -46.2 232.35 -46.2 236.5 -47.7 240.5 -49.8 246.1 -54.15 247.95 -56.5 248.95 -57.9 250.55 L-59.75 252.65 -64.0 254.05 Q-67.8 255.25 -68.6 256.5 -69.95 258.6 -73.35 261.65 -77.35 265.25 -78.45 266.55 -79.1 267.35 -81.3 269.05 L-83.4 271.05 Q-84.1 272.85 -85.45 273.05 L-85.95 273.05 M-45.15 222.3 L-43.4 216.0 -41.75 209.75 -42.0 214.8 Q-42.4 218.15 -45.05 222.35 L-45.15 222.3" fill="#96a2ee" fill-rule="evenodd" stroke="none"/>
  </g>
</svg>
