<?xml version="1.0" encoding="UTF-8" standalone="no"?>
<svg xmlns:ffdec="https://www.free-decompiler.com/flash" xmlns:xlink="http://www.w3.org/1999/xlink" ffdec:objectType="shape" height="59.55px" width="48.15px" xmlns="http://www.w3.org/2000/svg">
  <g transform="matrix(1.0, 0.0, 0.0, 1.0, 11.85, -22.75)">
    <path d="M-8.3 48.1 L-9.45 47.85 -11.45 47.4 -11.8 43.75 -11.75 40.85 -11.85 40.25 -8.25 31.75 Q-4.9 24.25 -3.4 23.25 L-3.4 23.2 Q-3.35 22.75 -2.9 22.75 -2.4 22.7 -2.6 22.85 L-2.4 23.1 Q-2.0 23.3 -2.0 23.8 L-1.95 23.9 1.35 30.4 4.15 34.85 4.9 35.95 5.1 39.7 Q5.1 42.6 5.45 43.9 L5.5 43.95 5.55 45.65 Q4.6 45.95 2.9 46.75 L2.5 40.15 Q2.15 39.45 2.15 39.15 L2.2 38.95 2.65 38.4 Q1.75 37.5 1.35 36.4 L0.3 34.0 -0.7 32.45 -2.2 29.7 -3.35 27.05 -4.65 30.7 -4.65 30.9 -4.65 31.25 -4.9 31.95 -5.1 32.55 -8.0 37.75 -8.75 39.1 -9.1 39.6 -9.25 39.85 Q-8.7 43.75 -8.3 48.1" fill="#42381f" fill-rule="evenodd" stroke="none"/>
    <path d="M-4.65 31.25 L-4.65 30.9 -4.65 30.7 -3.35 27.05 -2.2 29.7 -0.7 32.45 0.3 34.0 1.35 36.4 Q1.75 37.5 2.65 38.4 L2.2 38.95 Q-0.55 38.8 -2.7 37.65 L-3.35 37.3 -3.4 37.3 -4.3 32.85 -4.65 31.25" fill="#d6c6a0" fill-rule="evenodd" stroke="none"/>
    <path d="M-8.75 39.1 L-8.0 37.75 -5.1 32.55 -4.9 31.95 -4.65 31.25 -4.3 32.85 -3.4 37.3 -3.4 37.35 -4.45 38.55 -5.05 39.25 -5.5 39.75 -8.55 39.15 -8.75 39.1" fill="#b0934f" fill-rule="evenodd" stroke="none"/>
    <path d="M-2.7 48.4 L-4.05 48.45 -4.65 48.45 -5.05 39.25 -4.45 38.55 -3.4 37.35 -3.35 37.3 -2.7 37.65 -2.7 48.4" fill="#826b39" fill-rule="evenodd" stroke="none"/>
    <path d="M-8.3 48.1 Q-8.7 43.75 -9.25 39.85 L-9.1 39.6 -8.75 39.1 -8.55 39.15 -5.5 39.75 -5.05 39.25 -4.65 48.45 -8.3 48.1" fill="#634803" fill-rule="evenodd" stroke="none"/>
    <path d="M2.2 38.95 L2.15 39.15 Q2.15 39.45 2.5 40.15 L2.9 46.75 2.45 46.95 Q-0.05 48.15 -2.7 48.4 L-2.7 37.65 Q-0.55 38.8 2.2 38.95 M-3.5 70.1 L-3.35 70.15 -3.5 70.15 -3.5 70.1" fill="#a28947" fill-rule="evenodd" stroke="none"/>
    <path d="M-3.5 70.1 L-3.25 70.05 -3.25 70.1 -3.35 70.15 -3.5 70.1" fill="#937a42" fill-rule="evenodd" stroke="none"/>
    <path d="M22.25 57.65 L19.95 57.3 19.15 57.45 19.0 55.9 Q18.9 54.15 19.05 53.0 L18.95 52.4 22.55 43.9 Q25.9 36.4 27.4 35.4 L27.4 35.35 Q27.45 34.9 27.9 34.9 28.4 34.85 28.2 35.0 L28.4 35.25 Q28.8 35.45 28.8 35.95 L28.85 36.05 32.15 42.55 Q32.7 43.65 34.95 47.0 L35.7 48.1 35.9 51.85 Q35.9 54.75 36.25 56.05 L36.3 56.1 36.3 56.35 35.9 56.55 33.9 57.55 33.6 57.65 33.3 52.3 Q32.95 51.6 32.95 51.3 L33.0 51.1 33.45 50.55 Q32.55 49.65 32.15 48.55 L31.1 46.15 30.1 44.6 28.6 41.85 27.45 39.2 Q26.65 41.05 26.15 42.85 L26.15 43.05 26.15 43.4 25.9 44.1 25.7 44.7 22.8 49.9 22.05 51.25 21.7 51.75 21.55 52.0 22.25 57.65" fill="#42381f" fill-rule="evenodd" stroke="none"/>
    <path d="M26.15 43.4 L26.15 43.05 26.15 42.85 Q26.65 41.05 27.45 39.2 L28.6 41.85 30.1 44.6 31.1 46.15 32.15 48.55 Q32.55 49.65 33.45 50.55 L33.0 51.1 Q30.25 50.95 28.1 49.8 L27.45 49.45 27.4 49.45 26.5 45.0 26.15 43.4" fill="#d6c6a0" fill-rule="evenodd" stroke="none"/>
    <path d="M22.05 51.25 L22.8 49.9 25.7 44.7 25.9 44.1 26.15 43.4 26.5 45.0 27.4 49.45 27.4 49.5 26.35 50.7 25.75 51.4 25.3 51.9 22.25 51.3 22.05 51.25" fill="#b0934f" fill-rule="evenodd" stroke="none"/>
    <path d="M28.05 58.25 L26.05 58.25 25.75 51.4 26.35 50.7 27.4 49.5 27.45 49.45 28.1 49.8 Q27.95 52.8 28.05 58.25" fill="#826b39" fill-rule="evenodd" stroke="none"/>
    <path d="M22.25 57.65 L21.55 52.0 21.7 51.75 22.05 51.25 22.25 51.3 25.3 51.9 25.75 51.4 26.05 58.25 25.2 58.25 22.25 57.65" fill="#634803" fill-rule="evenodd" stroke="none"/>
    <path d="M33.0 51.1 L32.95 51.3 Q32.95 51.6 33.3 52.3 L33.6 57.65 30.8 58.25 28.05 58.25 Q27.95 52.8 28.1 49.8 30.25 50.95 33.0 51.1 M27.45 82.3 L27.3 82.3 27.3 82.25 27.45 82.3" fill="#a28947" fill-rule="evenodd" stroke="none"/>
    <path d="M27.3 82.25 L27.55 82.2 27.55 82.25 27.45 82.3 27.3 82.25" fill="#937a42" fill-rule="evenodd" stroke="none"/>
  </g>
</svg>
