<?xml version="1.0" encoding="UTF-8" standalone="no"?>
<svg xmlns:ffdec="https://www.free-decompiler.com/flash" xmlns:xlink="http://www.w3.org/1999/xlink" ffdec:objectType="shape" height="29.7px" width="17.75px" xmlns="http://www.w3.org/2000/svg">
  <g transform="matrix(1.0, 0.0, 0.0, 1.0, -109.75, -17.55)">
    <path d="M117.0 22.95 L117.0 22.75 117.0 22.65 118.25 20.25 119.4 21.85 120.9 23.5 121.9 24.4 122.95 25.8 Q123.35 26.5 124.2 27.0 L123.8 27.4 118.9 26.85 118.3 26.7 118.25 26.7 117.3 23.95 117.0 22.95" fill="#d6c6a0" fill-rule="evenodd" stroke="none"/>
    <path d="M114.2 40.8 L110.7 40.2 110.45 35.65 109.8 31.15 109.8 30.0 109.9 29.4 109.75 29.0 113.4 23.45 Q116.75 18.65 118.2 17.9 L118.15 17.85 118.7 17.55 119.0 17.6 119.15 17.75 Q119.6 17.85 119.6 18.15 L119.6 18.2 122.95 22.1 125.7 24.7 126.5 25.4 126.7 27.7 Q126.65 29.5 127.05 30.35 L127.1 30.35 127.2 34.6 127.2 34.65 127.25 35.1 127.5 38.25 127.05 38.4 125.4 39.8 124.4 40.45 123.75 35.6 Q123.65 34.6 123.95 34.05 L124.6 34.1 124.05 28.15 123.75 27.55 123.8 27.4 124.2 27.0 Q123.35 26.5 122.95 25.8 L121.9 24.4 120.9 23.5 119.4 21.85 118.25 20.25 117.0 22.65 117.0 22.75 117.0 22.95 116.7 23.4 116.55 23.8 113.65 27.25 112.85 28.1 112.55 28.45 112.4 28.6 Q113.55 33.85 114.15 40.3 L114.2 40.8" fill="#42381f" fill-rule="evenodd" stroke="none"/>
    <path d="M123.8 27.4 L123.75 27.55 124.05 28.15 124.6 34.1 123.95 34.05 Q123.65 34.6 123.75 35.6 L124.4 40.45 Q123.3 40.95 122.2 40.95 L120.9 40.8 119.25 40.8 Q118.65 30.6 118.9 26.85 L123.8 27.4 M118.25 47.25 L118.1 47.25 118.1 47.2 118.25 47.25" fill="#a28947" fill-rule="evenodd" stroke="none"/>
    <path d="M112.85 28.1 L113.65 27.25 116.55 23.8 116.7 23.4 117.0 22.95 117.3 23.95 118.25 26.7 117.2 27.5 116.6 28.0 116.1 28.3 113.05 28.15 112.85 28.1" fill="#b0934f" fill-rule="evenodd" stroke="none"/>
    <path d="M119.25 40.8 L117.55 40.8 117.4 39.6 116.6 28.0 117.2 27.5 118.25 26.7 118.3 26.7 118.9 26.85 Q118.65 30.6 119.25 40.8" fill="#826b39" fill-rule="evenodd" stroke="none"/>
    <path d="M114.2 40.8 L114.15 40.3 Q113.55 33.85 112.4 28.6 L112.55 28.45 112.85 28.1 113.05 28.15 116.1 28.3 116.6 28.0 117.4 39.6 117.55 40.8 114.2 40.8" fill="#634803" fill-rule="evenodd" stroke="none"/>
    <path d="M118.1 47.2 L118.35 47.15 118.35 47.2 118.25 47.25 118.1 47.2" fill="#937a42" fill-rule="evenodd" stroke="none"/>
  </g>
</svg>
