<?xml version="1.0" encoding="UTF-8" standalone="no"?>
<svg xmlns:ffdec="https://www.free-decompiler.com/flash" xmlns:xlink="http://www.w3.org/1999/xlink" ffdec:objectType="shape" height="57.9px" width="43.05px" xmlns="http://www.w3.org/2000/svg">
  <g transform="matrix(1.0, 0.0, 0.0, 1.0, 104.35, 14.85)">
    <path d="M-101.35 22.5 L-102.05 22.05 -104.35 20.6 -104.3 15.35 -104.25 9.7 -104.05 2.4 -104.25 -2.05 -104.0 -3.85 -104.1 -4.2 -100.0 -9.4 Q-96.25 -13.95 -94.7 -14.55 -94.6 -14.85 -94.15 -14.85 -93.65 -14.85 -93.85 -14.75 L-93.7 -14.55 Q-93.3 -14.45 -93.3 -14.15 L-93.3 -14.05 -90.35 -9.9 -87.85 -7.05 -87.15 -6.3 -87.15 -4.0 Q-87.35 -2.15 -87.05 -1.35 L-87.0 -1.3 -87.3 2.95 -87.3 3.0 -87.25 3.45 Q-87.25 6.65 -87.6 10.75 L-87.8 13.35 -87.8 14.95 -87.8 15.35 -87.9 19.55 -87.9 20.0 -87.85 21.25 -89.85 22.2 -89.9 20.95 -89.95 19.75 -89.95 19.4 -90.1 16.2 -90.15 15.9 -90.15 15.35 -90.8 3.6 Q-90.8 2.6 -90.45 2.1 L-89.8 2.2 -89.8 -3.8 -90.05 -4.4 -90.0 -4.55 -89.55 -4.9 -90.7 -6.2 -91.6 -7.7 -92.5 -8.7 -93.85 -10.5 -94.85 -12.15 -96.35 -9.9 -96.35 -9.8 -96.4 -9.6 -96.7 -9.15 -96.9 -8.8 -100.1 -5.65 -100.35 -5.4 -100.95 -4.85 -101.3 -4.55 -101.45 -4.35 Q-100.8 0.95 -100.8 7.4 L-101.05 14.05 -101.1 15.35 -101.35 21.75 -101.35 22.5" fill="#42381f" fill-rule="evenodd" stroke="none"/>
    <path d="M-101.35 22.5 L-101.35 21.75 -101.1 15.35 -101.05 14.05 -100.8 7.4 Q-100.8 0.95 -101.45 -4.35 L-101.3 -4.55 -100.95 -4.85 -100.75 -4.8 -100.3 -4.75 -97.75 -4.35 Q-97.55 -4.4 -97.25 -4.6 L-97.5 7.0 -97.25 14.65 -97.5 14.65 -97.5 14.7 -97.5 15.35 -97.6 19.4 -97.7 23.65 Q-99.7 23.5 -101.35 22.5" fill="#634803" fill-rule="evenodd" stroke="none"/>
    <path d="M-96.4 -9.6 L-96.35 -9.8 -96.35 -9.9 -94.85 -12.15 -93.85 -10.5 -92.5 -8.7 -91.6 -7.7 -90.7 -6.2 -89.55 -4.9 -90.0 -4.55 Q-92.75 -4.7 -94.8 -5.55 L-95.45 -5.75 -95.5 -5.75 -96.15 -8.6 -96.4 -9.6" fill="#d6c6a0" fill-rule="evenodd" stroke="none"/>
    <path d="M-100.95 -4.85 L-100.35 -5.4 -100.1 -5.65 -96.9 -8.8 -96.7 -9.15 -96.4 -9.6 -96.15 -8.6 -95.5 -5.75 -96.6 -5.05 -97.25 -4.6 Q-97.55 -4.4 -97.75 -4.35 L-100.3 -4.75 -100.75 -4.8 -100.95 -4.85" fill="#b0934f" fill-rule="evenodd" stroke="none"/>
    <path d="M-96.35 23.7 L-96.85 23.7 -97.7 23.65 -97.6 19.4 -97.5 15.35 -97.5 14.7 -97.25 14.7 -97.25 14.65 -97.5 7.0 -97.25 -4.6 -96.6 -5.05 -95.5 -5.75 -95.45 -5.75 -94.8 -5.55 Q-95.6 -0.85 -95.95 13.85 L-95.95 14.25 -95.95 14.9 -96.35 14.85 -96.4 15.35 -96.45 16.9 -96.5 19.75 -96.35 23.7" fill="#826b39" fill-rule="evenodd" stroke="none"/>
    <path d="M-90.0 -4.55 L-90.05 -4.4 -89.8 -3.8 -89.8 2.2 -90.45 2.1 Q-90.8 2.6 -90.8 3.6 L-90.15 15.35 -90.15 15.9 -90.1 16.2 -89.95 19.4 -89.95 19.75 -89.9 20.95 -89.85 22.2 -90.95 22.6 Q-93.9 23.6 -96.35 23.7 L-96.5 19.75 -96.45 16.9 -96.4 15.35 -96.35 14.85 -95.95 14.9 -95.95 14.25 -95.95 13.85 Q-95.6 -0.85 -94.8 -5.55 -92.75 -4.7 -90.0 -4.55 M-97.25 14.7 L-97.5 14.7 -97.5 14.65 -97.25 14.7" fill="#a28947" fill-rule="evenodd" stroke="none"/>
    <path d="M-97.5 14.65 L-97.25 14.65 -97.25 14.7 -97.5 14.65" fill="#937a42" fill-rule="evenodd" stroke="none"/>
    <path d="M-76.0 42.5 L-77.35 42.0 Q-78.05 41.65 -78.65 41.45 L-78.75 38.25 -78.6 24.85 -78.55 19.2 -78.35 11.9 -78.55 7.45 -78.3 5.65 -78.4 5.3 -74.3 0.1 Q-70.55 -4.45 -69.0 -5.05 -68.9 -5.35 -68.45 -5.35 L-68.15 -5.25 -68.0 -5.05 Q-67.6 -4.95 -67.6 -4.65 L-67.6 -4.55 -64.65 -0.4 -62.15 2.45 -61.45 3.2 -61.45 5.5 Q-61.65 7.35 -61.35 8.15 L-61.3 8.2 -61.6 12.45 -61.6 12.5 -61.55 12.95 Q-61.55 16.15 -61.9 20.25 L-62.1 22.85 -62.1 24.45 -62.1 24.85 -62.2 29.05 -62.2 29.5 -61.9 37.3 -61.75 40.25 Q-62.9 41.2 -64.4 41.85 L-64.1 36.55 -64.1 34.15 -64.2 30.45 -64.25 29.25 -64.25 28.9 -64.4 25.7 -64.45 25.4 -64.45 24.85 -65.1 13.1 Q-65.1 12.1 -64.75 11.6 L-64.1 11.7 -64.1 5.7 -64.35 5.1 -64.3 4.95 -63.85 4.6 -65.0 3.3 -65.9 1.8 -66.8 0.8 -68.15 -1.0 -69.15 -2.65 -70.65 -0.4 -70.65 -0.3 -70.7 -0.1 -71.0 0.35 -71.2 0.7 -73.6 3.15 -74.4 3.85 -75.25 4.65 -75.6 4.95 -75.75 5.15 Q-75.1 10.45 -75.1 16.9 L-75.35 23.55 -75.4 24.85 -75.65 31.25 -76.0 42.5" fill="#42381f" fill-rule="evenodd" stroke="none"/>
    <path d="M-70.7 -0.1 L-70.65 -0.3 -70.65 -0.4 -69.15 -2.65 -68.15 -1.0 -66.8 0.8 -65.9 1.8 -65.0 3.3 -63.85 4.6 -64.3 4.95 Q-67.05 4.8 -69.1 3.95 L-69.75 3.75 -69.8 3.75 -70.45 0.9 -70.7 -0.1" fill="#d6c6a0" fill-rule="evenodd" stroke="none"/>
    <path d="M-64.3 4.95 L-64.35 5.1 -64.1 5.7 -64.1 11.7 -64.75 11.6 Q-65.1 12.1 -65.1 13.1 L-64.45 24.85 -64.45 25.4 -64.4 25.7 -64.25 28.9 -64.25 29.25 -64.2 30.45 -64.1 34.15 -64.1 36.55 -64.4 41.85 -67.35 42.7 Q-69.35 37.25 -70.7 31.45 L-70.8 29.25 -70.75 26.4 -70.7 24.85 -70.65 24.35 -70.25 24.4 -70.25 23.75 -70.25 23.35 Q-69.9 8.65 -69.1 3.95 -67.05 4.8 -64.3 4.95 M-71.55 24.2 L-71.8 24.2 -71.8 24.15 -71.55 24.2" fill="#a28947" fill-rule="evenodd" stroke="none"/>
    <path d="M-67.35 42.7 L-71.7 43.05 -72.0 43.05 -72.1 39.6 -71.8 25.9 -71.8 24.85 -71.8 24.2 -71.55 24.2 -71.55 24.15 -71.8 16.5 -71.55 4.9 -70.9 4.45 -69.8 3.75 -69.75 3.75 -69.1 3.95 Q-69.9 8.65 -70.25 23.35 L-70.25 23.75 -70.25 24.4 -70.65 24.35 -70.7 24.85 -70.75 26.4 -70.8 29.25 -70.7 31.45 Q-69.35 37.25 -67.35 42.7" fill="#826b39" fill-rule="evenodd" stroke="none"/>
    <path d="M-75.25 4.65 L-74.4 3.85 -73.6 3.15 -71.2 0.7 -71.0 0.35 -70.7 -0.1 -70.45 0.9 -69.8 3.75 -70.9 4.45 -71.55 4.9 -72.05 5.15 -73.65 4.9 -75.05 4.7 -75.25 4.65" fill="#b0934f" fill-rule="evenodd" stroke="none"/>
    <path d="M-76.0 42.5 L-75.65 31.25 -75.4 24.85 -75.35 23.55 -75.1 16.9 Q-75.1 10.45 -75.75 5.15 L-75.6 4.95 -75.25 4.65 -75.05 4.7 -73.65 4.9 -72.05 5.15 -71.55 4.9 -71.8 16.5 -71.55 24.15 -71.8 24.15 -71.8 24.2 -71.8 24.85 -71.8 25.9 -72.1 39.6 -72.0 43.05 -76.0 42.5" fill="#634803" fill-rule="evenodd" stroke="none"/>
    <path d="M-71.55 24.15 L-71.55 24.2 -71.8 24.15 -71.55 24.15" fill="#937a42" fill-rule="evenodd" stroke="none"/>
  </g>
</svg>
