<?xml version="1.0" encoding="UTF-8" standalone="no"?>
<svg xmlns:ffdec="https://www.free-decompiler.com/flash" xmlns:xlink="http://www.w3.org/1999/xlink" ffdec:objectType="shape" height="67.55px" width="50.5px" xmlns="http://www.w3.org/2000/svg">
  <g transform="matrix(1.0, 0.0, 0.0, 1.0, 13.9, 8.55)">
    <path d="M-8.35 49.2 L-9.95 48.6 -11.6 47.9 -12.2 42.2 -12.3 40.35 -12.8 31.3 -13.0 25.8 -13.25 19.6 -13.85 12.45 -13.8 9.55 -13.9 8.95 -10.3 0.45 Q-6.95 -7.05 -5.45 -8.05 L-5.45 -8.1 Q-5.4 -8.55 -4.95 -8.55 -4.45 -8.6 -4.65 -8.45 L-4.45 -8.2 Q-4.05 -8.0 -4.05 -7.5 L-4.0 -7.4 -0.7 -0.9 2.1 3.55 2.85 4.65 3.05 8.4 Q3.05 11.3 3.4 12.6 L3.45 12.65 3.55 19.45 3.55 19.55 3.65 20.3 3.95 31.95 4.0 36.2 4.15 38.75 4.2 39.4 4.3 41.25 4.8 46.0 4.8 46.75 4.95 47.75 4.65 48.0 3.1 49.0 3.0 48.4 2.75 46.45 2.65 45.95 2.0 41.35 1.95 40.85 1.9 40.35 1.85 39.5 Q0.35 25.2 0.1 20.75 0.0 19.1 0.3 18.3 L1.0 18.4 0.45 8.85 Q0.1 8.15 0.1 7.85 L0.15 7.65 0.6 7.1 Q-0.3 6.2 -0.7 5.1 L-1.75 2.7 -2.75 1.15 -4.25 -1.6 -5.4 -4.25 -6.7 -0.6 -6.7 -0.4 -6.7 -0.05 -6.95 0.65 -7.15 1.25 -10.05 6.45 -10.8 7.8 -11.15 8.3 -11.3 8.55 Q-10.15 17.05 -9.55 27.4 L-9.2 38.0 -9.1 39.45 -9.1 40.15 -9.05 42.0 -8.35 49.2" fill="#42381f" fill-rule="evenodd" stroke="none"/>
    <path d="M-6.7 -0.05 L-6.7 -0.4 -6.7 -0.6 -5.4 -4.25 -4.25 -1.6 -2.75 1.15 -1.75 2.7 -0.7 5.1 Q-0.3 6.2 0.6 7.1 L0.15 7.65 Q-2.6 7.5 -4.75 6.35 L-5.4 6.0 -5.45 6.0 -6.35 1.55 -6.7 -0.05" fill="#d6c6a0" fill-rule="evenodd" stroke="none"/>
    <path d="M-10.8 7.8 L-10.05 6.45 -7.15 1.25 -6.95 0.65 -6.7 -0.05 -6.35 1.55 -5.45 6.0 -5.45 6.05 -6.5 7.25 -7.1 7.95 -7.55 8.45 -10.6 7.85 -10.8 7.8" fill="#b0934f" fill-rule="evenodd" stroke="none"/>
    <path d="M-3.35 50.05 L-4.65 49.95 -5.45 41.8 -5.5 39.95 -5.55 38.85 -5.4 38.85 -5.3 38.8 -5.3 38.75 -6.25 26.6 -7.1 7.95 -6.5 7.25 -5.45 6.05 -5.4 6.0 -4.75 6.35 Q-5.1 13.9 -4.1 37.4 L-4.05 38.05 -4.0 39.1 -4.4 39.0 -4.4 39.9 -4.3 41.75 -4.25 42.35 -3.8 46.9 -3.35 50.05" fill="#826b39" fill-rule="evenodd" stroke="none"/>
    <path d="M-8.35 49.2 L-9.05 42.0 -9.1 40.15 -9.1 39.45 -9.2 38.0 -9.55 27.4 Q-10.15 17.05 -11.3 8.55 L-11.15 8.3 -10.8 7.8 -10.6 7.85 -7.55 8.45 -7.1 7.95 -6.25 26.6 -5.3 38.75 -5.55 38.8 -5.55 38.85 -5.5 39.95 -5.45 41.8 -4.65 49.95 -8.35 49.2" fill="#634803" fill-rule="evenodd" stroke="none"/>
    <path d="M0.15 7.65 L0.1 7.85 Q0.1 8.15 0.45 8.85 L1.0 18.4 0.3 18.3 Q0.0 19.1 0.1 20.75 0.35 25.2 1.85 39.5 L1.9 40.35 1.95 40.85 2.0 41.35 2.65 45.95 2.75 46.45 3.0 48.4 3.1 49.0 Q0.85 50.1 -1.6 50.1 L-3.35 50.05 -3.8 46.9 -4.25 42.35 -4.3 41.75 -4.4 39.9 -4.4 39.0 -4.0 39.1 -4.05 38.05 -4.1 37.4 Q-5.1 13.9 -4.75 6.35 -2.6 7.5 0.15 7.65 M-5.4 38.85 L-5.55 38.85 -5.55 38.8 -5.4 38.85" fill="#a28947" fill-rule="evenodd" stroke="none"/>
    <path d="M-5.3 38.75 L-5.3 38.8 -5.4 38.85 -5.55 38.8 -5.3 38.75" fill="#937a42" fill-rule="evenodd" stroke="none"/>
    <path d="M23.5 58.8 L21.75 58.4 20.4 58.0 19.3 47.55 19.2 45.7 19.1 43.8 18.7 36.65 18.25 24.95 17.65 17.8 Q17.55 16.05 17.7 14.9 L17.6 14.3 21.2 5.8 Q24.55 -1.7 26.05 -2.7 L26.05 -2.75 Q26.1 -3.2 26.55 -3.2 27.05 -3.25 26.85 -3.1 L27.05 -2.85 Q27.45 -2.65 27.45 -2.15 L27.5 -2.05 30.8 4.45 33.6 8.9 34.35 10.0 34.55 13.75 Q34.55 16.65 34.9 17.95 L34.95 18.0 35.05 24.8 35.05 24.9 35.15 25.65 35.45 37.3 35.5 41.55 35.65 44.1 35.7 44.75 35.8 46.6 36.3 51.35 36.3 52.1 36.6 54.45 36.6 54.6 35.7 55.85 34.95 56.75 34.5 53.75 34.25 51.8 34.15 51.3 33.5 46.7 33.45 46.2 33.4 45.7 33.35 44.85 Q31.85 30.55 31.6 26.1 31.5 24.45 31.8 23.65 L32.5 23.75 31.95 14.2 Q31.6 13.5 31.6 13.2 L31.65 13.0 32.1 12.45 Q31.2 11.55 30.8 10.45 L29.75 8.05 28.75 6.5 27.25 3.75 26.1 1.1 Q25.3 2.95 24.8 4.75 L24.8 4.95 24.8 5.3 24.55 6.0 24.35 6.6 21.45 11.8 20.7 13.15 20.35 13.65 20.2 13.9 Q21.35 22.4 21.95 32.75 L22.3 43.35 22.4 45.5 22.45 47.35 23.25 55.75 23.5 58.8" fill="#42381f" fill-rule="evenodd" stroke="none"/>
    <path d="M24.8 5.3 L24.8 4.95 24.8 4.75 Q25.3 2.95 26.1 1.1 L27.25 3.75 28.75 6.5 29.75 8.05 30.8 10.45 Q31.2 11.55 32.1 12.45 L31.65 13.0 Q28.9 12.85 26.75 11.7 L26.1 11.35 26.05 11.35 25.15 6.9 24.8 5.3" fill="#d6c6a0" fill-rule="evenodd" stroke="none"/>
    <path d="M20.7 13.15 L21.45 11.8 24.35 6.6 24.55 6.0 24.8 5.3 25.15 6.9 26.05 11.35 26.05 11.4 25.0 12.6 24.4 13.3 23.95 13.8 20.9 13.2 20.7 13.15" fill="#b0934f" fill-rule="evenodd" stroke="none"/>
    <path d="M28.6 58.85 L27.2 59.0 26.05 47.15 26.0 45.3 25.95 44.2 26.1 44.2 26.2 44.15 26.2 44.1 25.25 31.95 24.4 13.3 25.0 12.6 26.05 11.4 26.1 11.35 26.75 11.7 Q26.4 19.25 27.4 42.75 L27.45 43.4 27.5 44.45 27.1 44.35 27.1 45.25 27.2 47.1 27.25 47.7 27.7 52.25 28.6 58.85" fill="#826b39" fill-rule="evenodd" stroke="none"/>
    <path d="M23.5 58.8 L23.25 55.75 22.45 47.35 22.4 45.5 22.3 43.35 21.95 32.75 Q21.35 22.4 20.2 13.9 L20.35 13.65 20.7 13.15 20.9 13.2 23.95 13.8 24.4 13.3 25.25 31.95 26.2 44.1 25.95 44.15 25.95 44.2 26.0 45.3 26.05 47.15 27.2 59.0 26.1 59.0 23.5 58.8" fill="#634803" fill-rule="evenodd" stroke="none"/>
    <path d="M31.65 13.0 L31.6 13.2 Q31.6 13.5 31.95 14.2 L32.5 23.75 31.8 23.65 Q31.5 24.45 31.6 26.1 31.85 30.55 33.35 44.85 L33.4 45.7 33.45 46.2 33.5 46.7 34.15 51.3 34.25 51.8 34.5 53.75 34.95 56.75 Q33.9 57.5 31.8 58.15 L28.6 58.85 27.7 52.25 27.25 47.7 27.2 47.1 27.1 45.25 27.1 44.35 27.5 44.45 27.45 43.4 27.4 42.75 Q26.4 19.25 26.75 11.7 28.9 12.85 31.65 13.0 M26.1 44.2 L25.95 44.2 25.95 44.15 26.1 44.2" fill="#a28947" fill-rule="evenodd" stroke="none"/>
    <path d="M26.2 44.1 L26.2 44.15 26.1 44.2 25.95 44.15 26.2 44.1" fill="#937a42" fill-rule="evenodd" stroke="none"/>
  </g>
</svg>
